<?xml version="1.0" encoding="UTF-8" standalone="no"?>
<!DOCTYPE svg PUBLIC "-//W3C//DTD SVG 1.1//EN"
 "http://www.w3.org/Graphics/SVG/1.1/DTD/svg11.dtd">
<!-- Generated by graphviz version 2.26.3 (20100126.1600)
 -->
<!-- Title: src/analysis/utils/A2GeoAcceptance.h Pages: 1 -->
<svg width="592pt" height="188pt"
 viewBox="0.00 0.00 592.00 188.00" xmlns="http://www.w3.org/2000/svg" xmlns:xlink="http://www.w3.org/1999/xlink">
<g id="graph1" class="graph" transform="scale(1 1) rotate(0) translate(4 184)">
<title>src/analysis/utils/A2GeoAcceptance.h</title>
<polygon fill="white" stroke="white" points="-4,5 -4,-184 589,-184 589,5 -4,5"/>
<!-- Node1 -->
<g id="node1" class="node"><title>Node1</title>
<polygon fill="#bfbfbf" stroke="black" points="253,-145 253,-179 363,-179 363,-145 253,-145"/>
<text text-anchor="start" x="261" y="-166" font-family="Helvetica,sans-Serif" font-size="10.00">src/analysis/utils</text>
<text text-anchor="middle" x="308" y="-153" font-family="Helvetica,sans-Serif" font-size="10.00">/A2GeoAcceptance.h</text>
</g>
<!-- Node2 -->
<g id="node3" class="node"><title>Node2</title>
<a xlink:href="_geo_acceptance_8h.html" target="_top" xlink:title="src/analysis/physics\l/omega/GeoAcceptance.h">
<polygon fill="white" stroke="black" points="4,-73 4,-107 134,-107 134,-73 4,-73"/>
<text text-anchor="start" x="12" y="-94" font-family="Helvetica,sans-Serif" font-size="10.00">src/analysis/physics</text>
<text text-anchor="middle" x="69" y="-81" font-family="Helvetica,sans-Serif" font-size="10.00">/omega/GeoAcceptance.h</text>
</a>
</g>
<!-- Node1&#45;&gt;Node2 -->
<g id="edge2" class="edge"><title>Node1&#45;&gt;Node2</title>
<path fill="none" stroke="midnightblue" d="M243.232,-142.488C206.449,-131.407 160.84,-117.667 125.514,-107.025"/>
<polygon fill="midnightblue" stroke="midnightblue" points="242.284,-145.858 252.868,-145.391 244.303,-139.156 242.284,-145.858"/>
</g>
<!-- Node4 -->
<g id="node7" class="node"><title>Node4</title>
<a xlink:href="mctrue__acceptance_8h.html" target="_top" xlink:title="src/analysis/physics\l/omega/mctrue_acceptance.h">
<polygon fill="white" stroke="black" points="159,-73 159,-107 305,-107 305,-73 159,-73"/>
<text text-anchor="start" x="167" y="-94" font-family="Helvetica,sans-Serif" font-size="10.00">src/analysis/physics</text>
<text text-anchor="middle" x="232" y="-81" font-family="Helvetica,sans-Serif" font-size="10.00">/omega/mctrue_acceptance.h</text>
</a>
</g>
<!-- Node1&#45;&gt;Node4 -->
<g id="edge6" class="edge"><title>Node1&#45;&gt;Node4</title>
<path fill="none" stroke="midnightblue" d="M282.57,-137.908C271.946,-127.844 259.845,-116.38 250.145,-107.19"/>
<polygon fill="midnightblue" stroke="midnightblue" points="280.322,-140.6 289.989,-144.937 285.137,-135.519 280.322,-140.6"/>
</g>
<!-- Node6 -->
<g id="node11" class="node"><title>Node6</title>
<a xlink:href="omega_8h.html" target="_top" xlink:title="src/analysis/physics\l/omega/omega.h">
<polygon fill="white" stroke="black" points="332,-73 332,-107 438,-107 438,-73 332,-73"/>
<text text-anchor="start" x="340" y="-94" font-family="Helvetica,sans-Serif" font-size="10.00">src/analysis/physics</text>
<text text-anchor="middle" x="385" y="-81" font-family="Helvetica,sans-Serif" font-size="10.00">/omega/omega.h</text>
</a>
</g>
<!-- Node1&#45;&gt;Node6 -->
<g id="edge10" class="edge"><title>Node1&#45;&gt;Node6</title>
<path fill="none" stroke="midnightblue" d="M333.765,-137.908C344.528,-127.844 356.788,-116.38 366.616,-107.19"/>
<polygon fill="midnightblue" stroke="midnightblue" points="331.162,-135.551 326.248,-144.937 335.943,-140.664 331.162,-135.551"/>
</g>
<!-- Node9 -->
<g id="node17" class="node"><title>Node9</title>
<a xlink:href="_a2_geo_acceptance_8cc.html" target="_top" xlink:title="src/analysis/utils\l/A2GeoAcceptance.cc">
<polygon fill="white" stroke="black" points="455.5,-73 455.5,-107 570.5,-107 570.5,-73 455.5,-73"/>
<text text-anchor="start" x="463.5" y="-94" font-family="Helvetica,sans-Serif" font-size="10.00">src/analysis/utils</text>
<text text-anchor="middle" x="513" y="-81" font-family="Helvetica,sans-Serif" font-size="10.00">/A2GeoAcceptance.cc</text>
</a>
</g>
<!-- Node1&#45;&gt;Node9 -->
<g id="edge16" class="edge"><title>Node1&#45;&gt;Node9</title>
<path fill="none" stroke="midnightblue" d="M366.393,-141.491C397.387,-130.606 435.03,-117.385 464.412,-107.065"/>
<polygon fill="midnightblue" stroke="midnightblue" points="364.857,-138.321 356.582,-144.937 367.177,-144.925 364.857,-138.321"/>
</g>
<!-- Node3 -->
<g id="node5" class="node"><title>Node3</title>
<a xlink:href="_geo_acceptance_8cc.html" target="_top" xlink:title="src/analysis/physics\l/omega/GeoAcceptance.cc">
<polygon fill="white" stroke="black" points="-0.5,-1 -0.5,-35 134.5,-35 134.5,-1 -0.5,-1"/>
<text text-anchor="start" x="7.5" y="-22" font-family="Helvetica,sans-Serif" font-size="10.00">src/analysis/physics</text>
<text text-anchor="middle" x="67" y="-9" font-family="Helvetica,sans-Serif" font-size="10.00">/omega/GeoAcceptance.cc</text>
</a>
</g>
<!-- Node2&#45;&gt;Node3 -->
<g id="edge4" class="edge"><title>Node2&#45;&gt;Node3</title>
<path fill="none" stroke="midnightblue" d="M68.2422,-62.7193C67.9881,-53.572 67.7118,-43.6255 67.4845,-35.4407"/>
<polygon fill="midnightblue" stroke="midnightblue" points="64.7496,-63.0381 68.526,-72.937 71.7469,-62.8436 64.7496,-63.0381"/>
</g>
<!-- Node5 -->
<g id="node9" class="node"><title>Node5</title>
<a xlink:href="mctrue__acceptance_8cc.html" target="_top" xlink:title="src/analysis/physics\l/omega/mctrue_acceptance.cc">
<polygon fill="white" stroke="black" points="151.5,-1 151.5,-35 302.5,-35 302.5,-1 151.5,-1"/>
<text text-anchor="start" x="159.5" y="-22" font-family="Helvetica,sans-Serif" font-size="10.00">src/analysis/physics</text>
<text text-anchor="middle" x="227" y="-9" font-family="Helvetica,sans-Serif" font-size="10.00">/omega/mctrue_acceptance.cc</text>
</a>
</g>
<!-- Node4&#45;&gt;Node5 -->
<g id="edge8" class="edge"><title>Node4&#45;&gt;Node5</title>
<path fill="none" stroke="midnightblue" d="M230.106,-62.7193C229.47,-53.572 228.78,-43.6255 228.211,-35.4407"/>
<polygon fill="midnightblue" stroke="midnightblue" points="226.631,-63.2035 230.815,-72.937 233.614,-62.7185 226.631,-63.2035"/>
</g>
<!-- Node7 -->
<g id="node13" class="node"><title>Node7</title>
<a xlink:href="omega__histograms_8cc.html" target="_top" xlink:title="progs/omega_histograms.cc">
<polygon fill="white" stroke="black" points="320,-7.5 320,-28.5 460,-28.5 460,-7.5 320,-7.5"/>
<text text-anchor="middle" x="390" y="-15.5" font-family="Helvetica,sans-Serif" font-size="10.00">progs/omega_histograms.cc</text>
</a>
</g>
<!-- Node6&#45;&gt;Node7 -->
<g id="edge12" class="edge"><title>Node6&#45;&gt;Node7</title>
<path fill="none" stroke="midnightblue" d="M386.898,-62.6667C387.714,-50.9127 388.622,-37.8483 389.243,-28.901"/>
<polygon fill="midnightblue" stroke="midnightblue" points="383.386,-62.7185 386.185,-72.937 390.369,-63.2035 383.386,-62.7185"/>
</g>
<!-- Node8 -->
<g id="node15" class="node"><title>Node8</title>
<a xlink:href="omega_8cc.html" target="_top" xlink:title="src/analysis/physics\l/omega/omega.cc">
<polygon fill="white" stroke="black" points="478,-1 478,-35 584,-35 584,-1 478,-1"/>
<text text-anchor="start" x="486" y="-22" font-family="Helvetica,sans-Serif" font-size="10.00">src/analysis/physics</text>
<text text-anchor="middle" x="531" y="-9" font-family="Helvetica,sans-Serif" font-size="10.00">/omega/omega.cc</text>
</a>
</g>
<!-- Node6&#45;&gt;Node8 -->
<g id="edge14" class="edge"><title>Node6&#45;&gt;Node8</title>
<path fill="none" stroke="midnightblue" d="M428.606,-68.4954C450.28,-57.8069 476.104,-45.0718 496.396,-35.0651"/>
<polygon fill="midnightblue" stroke="midnightblue" points="427.021,-65.375 419.6,-72.937 430.117,-71.6531 427.021,-65.375"/>
</g>
</g>
</svg>
