<?xml version="1.0" encoding="UTF-8" standalone="no"?>
<!DOCTYPE svg PUBLIC "-//W3C//DTD SVG 1.1//EN"
 "http://www.w3.org/Graphics/SVG/1.1/DTD/svg11.dtd">
<!-- Generated by graphviz version 2.26.3 (20100126.1600)
 -->
<!-- Title: src/simulation/mc/A2Cocktail.h Pages: 1 -->
<svg width="292pt" height="88pt"
 viewBox="0.00 0.00 292.00 88.00" xmlns="http://www.w3.org/2000/svg" xmlns:xlink="http://www.w3.org/1999/xlink">
<g id="graph1" class="graph" transform="scale(1 1) rotate(0) translate(4 84)">
<title>src/simulation/mc/A2Cocktail.h</title>
<polygon fill="white" stroke="white" points="-4,5 -4,-84 289,-84 289,5 -4,5"/>
<!-- Node1 -->
<g id="node1" class="node"><title>Node1</title>
<polygon fill="#bfbfbf" stroke="black" points="52.5,-58.5 52.5,-79.5 205.5,-79.5 205.5,-58.5 52.5,-58.5"/>
<text text-anchor="middle" x="129" y="-66.5" font-family="Helvetica,sans-Serif" font-size="10.00">src/simulation/mc/A2Cocktail.h</text>
</g>
<!-- Node2 -->
<g id="node3" class="node"><title>Node2</title>
<a xlink:href="_ant-cocktail_8cc.html" target="_top" xlink:title="progs/Ant&#45;cocktail.cc">
<polygon fill="white" stroke="black" points="-0.5,-0.5 -0.5,-21.5 108.5,-21.5 108.5,-0.5 -0.5,-0.5"/>
<text text-anchor="middle" x="54" y="-8.5" font-family="Helvetica,sans-Serif" font-size="10.00">progs/Ant&#45;cocktail.cc</text>
</a>
</g>
<!-- Node1&#45;&gt;Node2 -->
<g id="edge2" class="edge"><title>Node1&#45;&gt;Node2</title>
<path fill="none" stroke="midnightblue" d="M106.985,-51.9753C94.2563,-42.1315 78.6395,-30.0545 67.6689,-21.5707"/>
<polygon fill="midnightblue" stroke="midnightblue" points="105.192,-55.0131 115.244,-58.3619 109.474,-49.4757 105.192,-55.0131"/>
</g>
<!-- Node3 -->
<g id="node5" class="node"><title>Node3</title>
<a xlink:href="_a2_cocktail_8cc.html" target="_top" xlink:title="src/simulation/mc/A2Cocktail.cc">
<polygon fill="white" stroke="black" points="126,-0.5 126,-21.5 284,-21.5 284,-0.5 126,-0.5"/>
<text text-anchor="middle" x="205" y="-8.5" font-family="Helvetica,sans-Serif" font-size="10.00">src/simulation/mc/A2Cocktail.cc</text>
</a>
</g>
<!-- Node1&#45;&gt;Node3 -->
<g id="edge4" class="edge"><title>Node1&#45;&gt;Node3</title>
<path fill="none" stroke="midnightblue" d="M150.937,-52.2587C163.902,-42.3641 179.925,-30.1361 191.149,-21.5707"/>
<polygon fill="midnightblue" stroke="midnightblue" points="148.766,-49.5128 142.94,-58.3619 153.012,-55.0775 148.766,-49.5128"/>
</g>
</g>
</svg>
