<?xml version="1.0" encoding="UTF-8" standalone="no"?>
<!DOCTYPE svg PUBLIC "-//W3C//DTD SVG 1.1//EN"
 "http://www.w3.org/Graphics/SVG/1.1/DTD/svg11.dtd">
<!-- Generated by graphviz version 2.26.3 (20100126.1600)
 -->
<!-- Title: src/simulation/mc/A2Channels.h Pages: 1 -->
<svg width="420pt" height="146pt"
 viewBox="0.00 0.00 420.00 146.00" xmlns="http://www.w3.org/2000/svg" xmlns:xlink="http://www.w3.org/1999/xlink">
<g id="graph1" class="graph" transform="scale(1 1) rotate(0) translate(4 142)">
<title>src/simulation/mc/A2Channels.h</title>
<polygon fill="white" stroke="white" points="-4,5 -4,-142 417,-142 417,5 -4,5"/>
<!-- Node1 -->
<g id="node1" class="node"><title>Node1</title>
<polygon fill="#bfbfbf" stroke="black" points="91,-116.5 91,-137.5 249,-137.5 249,-116.5 91,-116.5"/>
<text text-anchor="middle" x="170" y="-124.5" font-family="Helvetica,sans-Serif" font-size="10.00">src/simulation/mc/A2Channels.h</text>
</g>
<!-- Node2 -->
<g id="node3" class="node"><title>Node2</title>
<a xlink:href="_a2_channels_8cc.html" target="_top" xlink:title="src/simulation/mc/A2Channels.cc">
<polygon fill="white" stroke="black" points="0,-58.5 0,-79.5 164,-79.5 164,-58.5 0,-58.5"/>
<text text-anchor="middle" x="82" y="-66.5" font-family="Helvetica,sans-Serif" font-size="10.00">src/simulation/mc/A2Channels.cc</text>
</a>
</g>
<!-- Node1&#45;&gt;Node2 -->
<g id="edge2" class="edge"><title>Node1&#45;&gt;Node2</title>
<path fill="none" stroke="midnightblue" d="M145.453,-110.821C130.296,-100.831 111.282,-88.2993 98.0382,-79.5707"/>
<polygon fill="midnightblue" stroke="midnightblue" points="143.584,-113.781 153.859,-116.362 147.436,-107.936 143.584,-113.781"/>
</g>
<!-- Node3 -->
<g id="node5" class="node"><title>Node3</title>
<a xlink:href="_a2_cocktail_8h.html" target="_top" xlink:title="src/simulation/mc/A2Cocktail.h">
<polygon fill="white" stroke="black" points="181.5,-58.5 181.5,-79.5 334.5,-79.5 334.5,-58.5 181.5,-58.5"/>
<text text-anchor="middle" x="258" y="-66.5" font-family="Helvetica,sans-Serif" font-size="10.00">src/simulation/mc/A2Cocktail.h</text>
</a>
</g>
<!-- Node1&#45;&gt;Node3 -->
<g id="edge4" class="edge"><title>Node1&#45;&gt;Node3</title>
<path fill="none" stroke="midnightblue" d="M194.547,-110.821C209.704,-100.831 228.718,-88.2993 241.962,-79.5707"/>
<polygon fill="midnightblue" stroke="midnightblue" points="192.564,-107.936 186.141,-116.362 196.416,-113.781 192.564,-107.936"/>
</g>
<!-- Node4 -->
<g id="node7" class="node"><title>Node4</title>
<a xlink:href="_ant-cocktail_8cc.html" target="_top" xlink:title="progs/Ant&#45;cocktail.cc">
<polygon fill="white" stroke="black" points="127.5,-0.5 127.5,-21.5 236.5,-21.5 236.5,-0.5 127.5,-0.5"/>
<text text-anchor="middle" x="182" y="-8.5" font-family="Helvetica,sans-Serif" font-size="10.00">progs/Ant&#45;cocktail.cc</text>
</a>
</g>
<!-- Node3&#45;&gt;Node4 -->
<g id="edge6" class="edge"><title>Node3&#45;&gt;Node4</title>
<path fill="none" stroke="midnightblue" d="M236.063,-52.2587C223.098,-42.3641 207.075,-30.1361 195.851,-21.5707"/>
<polygon fill="midnightblue" stroke="midnightblue" points="233.988,-55.0775 244.06,-58.3619 238.234,-49.5128 233.988,-55.0775"/>
</g>
<!-- Node5 -->
<g id="node9" class="node"><title>Node5</title>
<a xlink:href="_a2_cocktail_8cc.html" target="_top" xlink:title="src/simulation/mc/A2Cocktail.cc">
<polygon fill="white" stroke="black" points="254,-0.5 254,-21.5 412,-21.5 412,-0.5 254,-0.5"/>
<text text-anchor="middle" x="333" y="-8.5" font-family="Helvetica,sans-Serif" font-size="10.00">src/simulation/mc/A2Cocktail.cc</text>
</a>
</g>
<!-- Node3&#45;&gt;Node5 -->
<g id="edge8" class="edge"><title>Node3&#45;&gt;Node5</title>
<path fill="none" stroke="midnightblue" d="M280.015,-51.9753C292.744,-42.1315 308.361,-30.0545 319.331,-21.5707"/>
<polygon fill="midnightblue" stroke="midnightblue" points="277.526,-49.4757 271.756,-58.3619 281.808,-55.0131 277.526,-49.4757"/>
</g>
</g>
</svg>
