<?xml version="1.0" encoding="UTF-8" standalone="no"?>
<!DOCTYPE svg PUBLIC "-//W3C//DTD SVG 1.1//EN"
 "http://www.w3.org/Graphics/SVG/1.1/DTD/svg11.dtd">
<!-- Generated by graphviz version 2.26.3 (20100126.1600)
 -->
<!-- Title: src/simulation/mc/A2Cocktail.cc Pages: 1 -->
<svg width="1055pt" height="204pt"
 viewBox="0.00 0.00 1055.00 204.00" xmlns="http://www.w3.org/2000/svg" xmlns:xlink="http://www.w3.org/1999/xlink">
<g id="graph1" class="graph" transform="scale(1 1) rotate(0) translate(4 200)">
<title>src/simulation/mc/A2Cocktail.cc</title>
<polygon fill="white" stroke="white" points="-4,5 -4,-200 1052,-200 1052,5 -4,5"/>
<!-- Node1 -->
<g id="node1" class="node"><title>Node1</title>
<polygon fill="#bfbfbf" stroke="black" points="589,-174.5 589,-195.5 747,-195.5 747,-174.5 589,-174.5"/>
<text text-anchor="middle" x="668" y="-182.5" font-family="Helvetica,sans-Serif" font-size="10.00">src/simulation/mc/A2Cocktail.cc</text>
</g>
<!-- Node2 -->
<g id="node3" class="node"><title>Node2</title>
<a xlink:href="_a2_cocktail_8h.html" target="_top" xlink:title="A2Cocktail.h">
<polygon fill="white" stroke="black" points="270.5,-116.5 270.5,-137.5 343.5,-137.5 343.5,-116.5 270.5,-116.5"/>
<text text-anchor="middle" x="307" y="-124.5" font-family="Helvetica,sans-Serif" font-size="10.00">A2Cocktail.h</text>
</a>
</g>
<!-- Node1&#45;&gt;Node2 -->
<g id="edge2" class="edge"><title>Node1&#45;&gt;Node2</title>
<path fill="none" stroke="midnightblue" d="M602.626,-174.497C530.835,-162.962 417.342,-144.728 353.893,-134.534"/>
<polygon fill="midnightblue" stroke="midnightblue" points="354.207,-131.04 343.778,-132.909 353.096,-137.951 354.207,-131.04"/>
</g>
<!-- Node14 -->
<g id="node29" class="node"><title>Node14</title>
<polygon fill="white" stroke="#bfbfbf" points="411,-116.5 411,-137.5 465,-137.5 465,-116.5 411,-116.5"/>
<text text-anchor="middle" x="438" y="-124.5" font-family="Helvetica,sans-Serif" font-size="10.00">iostream</text>
</g>
<!-- Node1&#45;&gt;Node14 -->
<g id="edge30" class="edge"><title>Node1&#45;&gt;Node14</title>
<path fill="none" stroke="midnightblue" d="M621.155,-174.465C583.895,-165.902 530.235,-153.163 474.727,-138.098"/>
<polygon fill="midnightblue" stroke="midnightblue" points="475.646,-134.721 465.077,-135.46 473.8,-141.473 475.646,-134.721"/>
</g>
<!-- Node15 -->
<g id="node31" class="node"><title>Node15</title>
<a xlink:href="_pluto_extensions_8h.html" target="_top" xlink:title="PlutoExtensions.h">
<polygon fill="white" stroke="black" points="483,-116.5 483,-137.5 579,-137.5 579,-116.5 483,-116.5"/>
<text text-anchor="middle" x="531" y="-124.5" font-family="Helvetica,sans-Serif" font-size="10.00">PlutoExtensions.h</text>
</a>
</g>
<!-- Node1&#45;&gt;Node15 -->
<g id="edge32" class="edge"><title>Node1&#45;&gt;Node15</title>
<path fill="none" stroke="midnightblue" d="M643.19,-174.497C621.504,-165.315 589.789,-151.889 565.608,-141.652"/>
<polygon fill="midnightblue" stroke="midnightblue" points="566.661,-138.297 556.088,-137.621 563.932,-144.743 566.661,-138.297"/>
</g>
<!-- Node17 -->
<g id="node35" class="node"><title>Node17</title>
<polygon fill="white" stroke="#bfbfbf" points="596.5,-116.5 596.5,-137.5 647.5,-137.5 647.5,-116.5 596.5,-116.5"/>
<text text-anchor="middle" x="622" y="-124.5" font-family="Helvetica,sans-Serif" font-size="10.00">TH1D.h</text>
</g>
<!-- Node1&#45;&gt;Node17 -->
<g id="edge36" class="edge"><title>Node1&#45;&gt;Node17</title>
<path fill="none" stroke="midnightblue" d="M659.563,-174.362C653.208,-166.35 644.334,-155.161 636.807,-145.67"/>
<polygon fill="midnightblue" stroke="midnightblue" points="639.34,-143.231 630.384,-137.571 633.855,-147.581 639.34,-143.231"/>
</g>
<!-- Node18 -->
<g id="node37" class="node"><title>Node18</title>
<polygon fill="white" stroke="#bfbfbf" points="665,-116.5 665,-137.5 763,-137.5 763,-116.5 665,-116.5"/>
<text text-anchor="middle" x="714" y="-124.5" font-family="Helvetica,sans-Serif" font-size="10.00">PDecayManager.h</text>
</g>
<!-- Node1&#45;&gt;Node18 -->
<g id="edge38" class="edge"><title>Node1&#45;&gt;Node18</title>
<path fill="none" stroke="midnightblue" d="M676.437,-174.362C682.792,-166.35 691.666,-155.161 699.193,-145.67"/>
<polygon fill="midnightblue" stroke="midnightblue" points="702.145,-147.581 705.616,-137.571 696.66,-143.231 702.145,-147.581"/>
</g>
<!-- Node19 -->
<g id="node39" class="node"><title>Node19</title>
<polygon fill="white" stroke="#bfbfbf" points="781,-116.5 781,-137.5 877,-137.5 877,-116.5 781,-116.5"/>
<text text-anchor="middle" x="829" y="-124.5" font-family="Helvetica,sans-Serif" font-size="10.00">PDecayChannel.h</text>
</g>
<!-- Node1&#45;&gt;Node19 -->
<g id="edge40" class="edge"><title>Node1&#45;&gt;Node19</title>
<path fill="none" stroke="midnightblue" d="M697.156,-174.497C723.176,-165.123 761.479,-151.324 790.104,-141.012"/>
<polygon fill="midnightblue" stroke="midnightblue" points="791.568,-144.205 799.789,-137.523 789.195,-137.62 791.568,-144.205"/>
</g>
<!-- Node20 -->
<g id="node41" class="node"><title>Node20</title>
<polygon fill="white" stroke="#bfbfbf" points="894.5,-116.5 894.5,-137.5 965.5,-137.5 965.5,-116.5 894.5,-116.5"/>
<text text-anchor="middle" x="930" y="-124.5" font-family="Helvetica,sans-Serif" font-size="10.00">PReaction.h</text>
</g>
<!-- Node1&#45;&gt;Node20 -->
<g id="edge42" class="edge"><title>Node1&#45;&gt;Node20</title>
<path fill="none" stroke="midnightblue" d="M719.2,-174.454C761.198,-165.692 822.451,-152.659 884.517,-138.3"/>
<polygon fill="midnightblue" stroke="midnightblue" points="885.534,-141.657 894.483,-135.985 883.95,-134.839 885.534,-141.657"/>
</g>
<!-- Node21 -->
<g id="node43" class="node"><title>Node21</title>
<polygon fill="white" stroke="#bfbfbf" points="982.5,-116.5 982.5,-137.5 1047.5,-137.5 1047.5,-116.5 982.5,-116.5"/>
<text text-anchor="middle" x="1015" y="-124.5" font-family="Helvetica,sans-Serif" font-size="10.00">PParticle.h</text>
</g>
<!-- Node1&#45;&gt;Node21 -->
<g id="edge44" class="edge"><title>Node1&#45;&gt;Node21</title>
<path fill="none" stroke="midnightblue" d="M747.043,-175.284C806.662,-167.396 890.606,-155.1 972.437,-138.178"/>
<polygon fill="midnightblue" stroke="midnightblue" points="973.333,-141.566 982.404,-136.091 971.899,-134.715 973.333,-141.566"/>
</g>
<!-- Node3 -->
<g id="node5" class="node"><title>Node3</title>
<polygon fill="white" stroke="#bfbfbf" points="402.5,-0.5 402.5,-21.5 443.5,-21.5 443.5,-0.5 402.5,-0.5"/>
<text text-anchor="middle" x="423" y="-8.5" font-family="Helvetica,sans-Serif" font-size="10.00">string</text>
</g>
<!-- Node2&#45;&gt;Node3 -->
<g id="edge4" class="edge"><title>Node2&#45;&gt;Node3</title>
<path fill="none" stroke="midnightblue" d="M343.591,-121.614C386.823,-114.416 454.816,-100.18 470,-80 482.956,-62.7808 465.012,-42.2901 447.688,-28.1352"/>
<polygon fill="midnightblue" stroke="midnightblue" points="449.432,-25.0609 439.372,-21.7375 445.164,-30.6091 449.432,-25.0609"/>
</g>
<!-- Node4 -->
<g id="node7" class="node"><title>Node4</title>
<polygon fill="white" stroke="#bfbfbf" points="0,-0.5 0,-21.5 44,-21.5 44,-0.5 0,-0.5"/>
<text text-anchor="middle" x="22" y="-8.5" font-family="Helvetica,sans-Serif" font-size="10.00">vector</text>
</g>
<!-- Node2&#45;&gt;Node4 -->
<g id="edge6" class="edge"><title>Node2&#45;&gt;Node4</title>
<path fill="none" stroke="midnightblue" d="M270.238,-125.162C225.625,-121.584 149.272,-111.044 92,-80 69.0889,-67.5813 48.6017,-45.4237 35.8001,-29.5665"/>
<polygon fill="midnightblue" stroke="midnightblue" points="38.4229,-27.2383 29.5121,-21.5069 32.9039,-31.5442 38.4229,-27.2383"/>
</g>
<!-- Node5 -->
<g id="node9" class="node"><title>Node5</title>
<a xlink:href="_a2_channels_8h.html" target="_top" xlink:title="A2Channels.h">
<polygon fill="white" stroke="black" points="101,-58.5 101,-79.5 179,-79.5 179,-58.5 101,-58.5"/>
<text text-anchor="middle" x="140" y="-66.5" font-family="Helvetica,sans-Serif" font-size="10.00">A2Channels.h</text>
</a>
</g>
<!-- Node2&#45;&gt;Node5 -->
<g id="edge8" class="edge"><title>Node2&#45;&gt;Node5</title>
<path fill="none" stroke="midnightblue" d="M276.758,-116.497C249.65,-107.082 209.69,-93.2036 179.957,-82.8773"/>
<polygon fill="midnightblue" stroke="midnightblue" points="180.894,-79.4977 170.299,-79.5231 178.597,-86.1102 180.894,-79.4977"/>
</g>
<!-- Node10 -->
<g id="node21" class="node"><title>Node10</title>
<polygon fill="white" stroke="#bfbfbf" points="196.5,-58.5 196.5,-79.5 243.5,-79.5 243.5,-58.5 196.5,-58.5"/>
<text text-anchor="middle" x="220" y="-66.5" font-family="Helvetica,sans-Serif" font-size="10.00">TFile.h</text>
</g>
<!-- Node2&#45;&gt;Node10 -->
<g id="edge22" class="edge"><title>Node2&#45;&gt;Node10</title>
<path fill="none" stroke="midnightblue" d="M291.043,-116.362C278.043,-107.696 259.469,-95.3126 244.573,-85.3819"/>
<polygon fill="midnightblue" stroke="midnightblue" points="246.118,-82.2055 235.856,-79.5707 242.235,-88.0299 246.118,-82.2055"/>
</g>
<!-- Node11 -->
<g id="node23" class="node"><title>Node11</title>
<polygon fill="white" stroke="#bfbfbf" points="261,-58.5 261,-79.5 303,-79.5 303,-58.5 261,-58.5"/>
<text text-anchor="middle" x="282" y="-66.5" font-family="Helvetica,sans-Serif" font-size="10.00">TF1.h</text>
</g>
<!-- Node2&#45;&gt;Node11 -->
<g id="edge24" class="edge"><title>Node2&#45;&gt;Node11</title>
<path fill="none" stroke="midnightblue" d="M302.415,-116.362C299.102,-108.677 294.53,-98.0686 290.552,-88.8399"/>
<polygon fill="midnightblue" stroke="midnightblue" points="293.729,-87.3685 286.556,-79.5707 287.301,-90.1393 293.729,-87.3685"/>
</g>
<!-- Node12 -->
<g id="node25" class="node"><title>Node12</title>
<polygon fill="white" stroke="#bfbfbf" points="321,-58.5 321,-79.5 371,-79.5 371,-58.5 321,-58.5"/>
<text text-anchor="middle" x="346" y="-66.5" font-family="Helvetica,sans-Serif" font-size="10.00">TTree.h</text>
</g>
<!-- Node2&#45;&gt;Node12 -->
<g id="edge26" class="edge"><title>Node2&#45;&gt;Node12</title>
<path fill="none" stroke="midnightblue" d="M314.153,-116.362C319.486,-108.431 326.911,-97.3885 333.251,-87.9606"/>
<polygon fill="midnightblue" stroke="midnightblue" points="336.217,-89.8221 338.892,-79.5707 330.408,-85.9161 336.217,-89.8221"/>
</g>
<!-- Node13 -->
<g id="node27" class="node"><title>Node13</title>
<polygon fill="white" stroke="#bfbfbf" points="388.5,-58.5 388.5,-79.5 461.5,-79.5 461.5,-58.5 388.5,-58.5"/>
<text text-anchor="middle" x="425" y="-66.5" font-family="Helvetica,sans-Serif" font-size="10.00">TRandom3.h</text>
</g>
<!-- Node2&#45;&gt;Node13 -->
<g id="edge28" class="edge"><title>Node2&#45;&gt;Node13</title>
<path fill="none" stroke="midnightblue" d="M328.369,-116.497C346.799,-107.438 373.637,-94.2462 394.355,-84.0628"/>
<polygon fill="midnightblue" stroke="midnightblue" points="395.961,-87.1735 403.391,-79.6212 392.873,-80.8914 395.961,-87.1735"/>
</g>
<!-- Node5&#45;&gt;Node3 -->
<g id="edge16" class="edge"><title>Node5&#45;&gt;Node3</title>
<path fill="none" stroke="midnightblue" d="M179.013,-59.964C182.051,-59.2893 185.074,-58.6277 188,-58 261.064,-42.325 347.276,-25.5108 392.225,-16.8711"/>
<polygon fill="midnightblue" stroke="midnightblue" points="393.051,-20.2767 402.212,-14.9556 391.732,-13.402 393.051,-20.2767"/>
</g>
<!-- Node5&#45;&gt;Node4 -->
<g id="edge14" class="edge"><title>Node5&#45;&gt;Node4</title>
<path fill="none" stroke="midnightblue" d="M118.631,-58.4966C100.201,-49.4378 73.3629,-36.2462 52.6449,-26.0628"/>
<polygon fill="midnightblue" stroke="midnightblue" points="54.1271,-22.8914 43.6087,-21.6212 51.0392,-29.1735 54.1271,-22.8914"/>
</g>
<!-- Node6 -->
<g id="node11" class="node"><title>Node6</title>
<polygon fill="white" stroke="#bfbfbf" points="285.5,-0.5 285.5,-21.5 320.5,-21.5 320.5,-0.5 285.5,-0.5"/>
<text text-anchor="middle" x="303" y="-8.5" font-family="Helvetica,sans-Serif" font-size="10.00">map</text>
</g>
<!-- Node5&#45;&gt;Node6 -->
<g id="edge10" class="edge"><title>Node5&#45;&gt;Node6</title>
<path fill="none" stroke="midnightblue" d="M172.894,-58.4304C198.775,-49.9563 235.917,-37.4492 276.023,-22.2284"/>
<polygon fill="midnightblue" stroke="midnightblue" points="277.357,-25.4657 285.445,-18.6228 274.855,-18.928 277.357,-25.4657"/>
</g>
<!-- Node7 -->
<g id="node13" class="node"><title>Node7</title>
<polygon fill="white" stroke="#bfbfbf" points="61.5,-0.5 61.5,-21.5 90.5,-21.5 90.5,-0.5 61.5,-0.5"/>
<text text-anchor="middle" x="76" y="-8.5" font-family="Helvetica,sans-Serif" font-size="10.00">list</text>
</g>
<!-- Node5&#45;&gt;Node7 -->
<g id="edge12" class="edge"><title>Node5&#45;&gt;Node7</title>
<path fill="none" stroke="midnightblue" d="M128.261,-58.3619C119.059,-50.0226 106.06,-38.2418 95.3283,-28.5162"/>
<polygon fill="midnightblue" stroke="midnightblue" points="97.4244,-25.6924 87.6642,-21.5707 92.7237,-30.8793 97.4244,-25.6924"/>
</g>
<!-- Node8 -->
<g id="node17" class="node"><title>Node8</title>
<polygon fill="white" stroke="#bfbfbf" points="108,-0.5 108,-21.5 206,-21.5 206,-0.5 108,-0.5"/>
<text text-anchor="middle" x="157" y="-8.5" font-family="Helvetica,sans-Serif" font-size="10.00">Math/Interpolator.h</text>
</g>
<!-- Node5&#45;&gt;Node8 -->
<g id="edge18" class="edge"><title>Node5&#45;&gt;Node8</title>
<path fill="none" stroke="midnightblue" d="M143.118,-58.3619C145.323,-50.8401 148.348,-40.5187 151.012,-31.4308"/>
<polygon fill="midnightblue" stroke="midnightblue" points="154.448,-32.1514 153.902,-21.5707 147.73,-30.1825 154.448,-32.1514"/>
</g>
<!-- Node9 -->
<g id="node19" class="node"><title>Node9</title>
<polygon fill="white" stroke="#bfbfbf" points="224,-0.5 224,-21.5 268,-21.5 268,-0.5 224,-0.5"/>
<text text-anchor="middle" x="246" y="-8.5" font-family="Helvetica,sans-Serif" font-size="10.00">TH1.h</text>
</g>
<!-- Node5&#45;&gt;Node9 -->
<g id="edge20" class="edge"><title>Node5&#45;&gt;Node9</title>
<path fill="none" stroke="midnightblue" d="M159.442,-58.3619C175.804,-49.4094 199.413,-36.4908 217.843,-26.4064"/>
<polygon fill="midnightblue" stroke="midnightblue" points="219.589,-29.4412 226.681,-21.5707 216.229,-23.3004 219.589,-29.4412"/>
</g>
<!-- Node16 -->
<g id="node33" class="node"><title>Node16</title>
<polygon fill="white" stroke="#bfbfbf" points="517,-58.5 517,-79.5 595,-79.5 595,-58.5 517,-58.5"/>
<text text-anchor="middle" x="556" y="-66.5" font-family="Helvetica,sans-Serif" font-size="10.00">PStaticData.h</text>
</g>
<!-- Node15&#45;&gt;Node16 -->
<g id="edge34" class="edge"><title>Node15&#45;&gt;Node16</title>
<path fill="none" stroke="midnightblue" d="M535.585,-116.362C538.898,-108.677 543.47,-98.0686 547.448,-88.8399"/>
<polygon fill="midnightblue" stroke="midnightblue" points="550.699,-90.1393 551.444,-79.5707 544.271,-87.3685 550.699,-90.1393"/>
</g>
</g>
</svg>
