<?xml version="1.0" encoding="UTF-8" standalone="no"?>
<!DOCTYPE svg PUBLIC "-//W3C//DTD SVG 1.1//EN"
 "http://www.w3.org/Graphics/SVG/1.1/DTD/svg11.dtd">
<!-- Generated by graphviz version 2.26.3 (20100126.1600)
 -->
<!-- Title: src/simulation/mc/A2Channels.cc Pages: 1 -->
<svg width="773pt" height="146pt"
 viewBox="0.00 0.00 773.00 146.00" xmlns="http://www.w3.org/2000/svg" xmlns:xlink="http://www.w3.org/1999/xlink">
<g id="graph1" class="graph" transform="scale(1 1) rotate(0) translate(4 142)">
<title>src/simulation/mc/A2Channels.cc</title>
<polygon fill="white" stroke="white" points="-4,5 -4,-142 770,-142 770,5 -4,5"/>
<!-- Node1 -->
<g id="node1" class="node"><title>Node1</title>
<polygon fill="#bfbfbf" stroke="black" points="325,-116.5 325,-137.5 489,-137.5 489,-116.5 325,-116.5"/>
<text text-anchor="middle" x="407" y="-124.5" font-family="Helvetica,sans-Serif" font-size="10.00">src/simulation/mc/A2Channels.cc</text>
</g>
<!-- Node2 -->
<g id="node3" class="node"><title>Node2</title>
<a xlink:href="_a2_channels_8h.html" target="_top" xlink:title="A2Channels.h">
<polygon fill="white" stroke="black" points="81,-58.5 81,-79.5 159,-79.5 159,-58.5 81,-58.5"/>
<text text-anchor="middle" x="120" y="-66.5" font-family="Helvetica,sans-Serif" font-size="10.00">A2Channels.h</text>
</a>
</g>
<!-- Node1&#45;&gt;Node2 -->
<g id="edge2" class="edge"><title>Node1&#45;&gt;Node2</title>
<path fill="none" stroke="midnightblue" d="M350.883,-116.475C304.658,-107.689 237.147,-94.5926 169.058,-80.1819"/>
<polygon fill="midnightblue" stroke="midnightblue" points="169.519,-76.7019 159.01,-78.0466 168.064,-83.549 169.519,-76.7019"/>
</g>
<!-- Node4 -->
<g id="node7" class="node"><title>Node4</title>
<polygon fill="white" stroke="#bfbfbf" points="-0.5,-0.5 -0.5,-21.5 28.5,-21.5 28.5,-0.5 -0.5,-0.5"/>
<text text-anchor="middle" x="14" y="-8.5" font-family="Helvetica,sans-Serif" font-size="10.00">list</text>
</g>
<!-- Node1&#45;&gt;Node4 -->
<g id="edge18" class="edge"><title>Node1&#45;&gt;Node4</title>
<path fill="none" stroke="midnightblue" d="M324.625,-122.19C239.767,-116.053 114.133,-103.324 72,-80 51.1701,-68.4689 34.6135,-46.2734 24.6079,-30.1619"/>
<polygon fill="midnightblue" stroke="midnightblue" points="27.5925,-28.3329 19.4909,-21.5054 21.5665,-31.8949 27.5925,-28.3329"/>
</g>
<!-- Node9 -->
<g id="node17" class="node"><title>Node9</title>
<polygon fill="white" stroke="#bfbfbf" points="176.5,-58.5 176.5,-79.5 291.5,-79.5 291.5,-58.5 176.5,-58.5"/>
<text text-anchor="middle" x="234" y="-66.5" font-family="Helvetica,sans-Serif" font-size="10.00">simulation/mc/chgen.h</text>
</g>
<!-- Node1&#45;&gt;Node9 -->
<g id="edge16" class="edge"><title>Node1&#45;&gt;Node9</title>
<path fill="none" stroke="midnightblue" d="M375.671,-116.497C347.467,-107.041 305.833,-93.0829 274.991,-82.7428"/>
<polygon fill="midnightblue" stroke="midnightblue" points="275.982,-79.3834 265.388,-79.5231 273.757,-86.0203 275.982,-79.3834"/>
</g>
<!-- Node10 -->
<g id="node20" class="node"><title>Node10</title>
<polygon fill="white" stroke="#bfbfbf" points="309,-58.5 309,-79.5 363,-79.5 363,-58.5 309,-58.5"/>
<text text-anchor="middle" x="336" y="-66.5" font-family="Helvetica,sans-Serif" font-size="10.00">iostream</text>
</g>
<!-- Node1&#45;&gt;Node10 -->
<g id="edge20" class="edge"><title>Node1&#45;&gt;Node10</title>
<path fill="none" stroke="midnightblue" d="M393.978,-116.362C383.569,-107.859 368.781,-95.7785 356.745,-85.9466"/>
<polygon fill="midnightblue" stroke="midnightblue" points="358.899,-83.1866 348.94,-79.5707 354.47,-88.6077 358.899,-83.1866"/>
</g>
<!-- Node11 -->
<g id="node22" class="node"><title>Node11</title>
<polygon fill="white" stroke="#bfbfbf" points="381,-58.5 381,-79.5 433,-79.5 433,-58.5 381,-58.5"/>
<text text-anchor="middle" x="407" y="-66.5" font-family="Helvetica,sans-Serif" font-size="10.00">sstream</text>
</g>
<!-- Node1&#45;&gt;Node11 -->
<g id="edge22" class="edge"><title>Node1&#45;&gt;Node11</title>
<path fill="none" stroke="midnightblue" d="M407,-116.362C407,-108.922 407,-98.7427 407,-89.7276"/>
<polygon fill="midnightblue" stroke="midnightblue" points="410.5,-89.5706 407,-79.5707 403.5,-89.5707 410.5,-89.5706"/>
</g>
<!-- Node12 -->
<g id="node24" class="node"><title>Node12</title>
<polygon fill="white" stroke="#bfbfbf" points="451,-58.5 451,-79.5 501,-79.5 501,-58.5 451,-58.5"/>
<text text-anchor="middle" x="476" y="-66.5" font-family="Helvetica,sans-Serif" font-size="10.00">fstream</text>
</g>
<!-- Node1&#45;&gt;Node12 -->
<g id="edge24" class="edge"><title>Node1&#45;&gt;Node12</title>
<path fill="none" stroke="midnightblue" d="M419.656,-116.362C429.674,-107.941 443.867,-96.0105 455.501,-86.2308"/>
<polygon fill="midnightblue" stroke="midnightblue" points="458.022,-88.6844 463.425,-79.5707 453.518,-83.326 458.022,-88.6844"/>
</g>
<!-- Node13 -->
<g id="node26" class="node"><title>Node13</title>
<polygon fill="white" stroke="#bfbfbf" points="518.5,-58.5 518.5,-79.5 583.5,-79.5 583.5,-58.5 518.5,-58.5"/>
<text text-anchor="middle" x="551" y="-66.5" font-family="Helvetica,sans-Serif" font-size="10.00">TCanvas.h</text>
</g>
<!-- Node1&#45;&gt;Node13 -->
<g id="edge26" class="edge"><title>Node1&#45;&gt;Node13</title>
<path fill="none" stroke="midnightblue" d="M433.077,-116.497C456.075,-107.234 489.8,-93.6499 515.3,-83.3793"/>
<polygon fill="midnightblue" stroke="midnightblue" points="516.662,-86.6039 524.63,-79.6212 514.047,-80.1108 516.662,-86.6039"/>
</g>
<!-- Node14 -->
<g id="node28" class="node"><title>Node14</title>
<polygon fill="white" stroke="#bfbfbf" points="600.5,-58.5 600.5,-79.5 651.5,-79.5 651.5,-58.5 600.5,-58.5"/>
<text text-anchor="middle" x="626" y="-66.5" font-family="Helvetica,sans-Serif" font-size="10.00">TH1D.h</text>
</g>
<!-- Node1&#45;&gt;Node14 -->
<g id="edge28" class="edge"><title>Node1&#45;&gt;Node14</title>
<path fill="none" stroke="midnightblue" d="M451.699,-116.495C487.099,-107.984 538.003,-95.3235 590.597,-80.298"/>
<polygon fill="midnightblue" stroke="midnightblue" points="591.793,-83.5959 600.434,-77.4653 589.856,-76.8692 591.793,-83.5959"/>
</g>
<!-- Node15 -->
<g id="node30" class="node"><title>Node15</title>
<polygon fill="white" stroke="#bfbfbf" points="669,-58.5 669,-79.5 765,-79.5 765,-58.5 669,-58.5"/>
<text text-anchor="middle" x="717" y="-66.5" font-family="Helvetica,sans-Serif" font-size="10.00">PDecayChannel.h</text>
</g>
<!-- Node1&#45;&gt;Node15 -->
<g id="edge30" class="edge"><title>Node1&#45;&gt;Node15</title>
<path fill="none" stroke="midnightblue" d="M464.295,-116.474C513.284,-107.447 585.952,-93.9936 658.56,-80.2644"/>
<polygon fill="midnightblue" stroke="midnightblue" points="659.628,-83.6245 668.802,-78.3257 658.326,-76.7466 659.628,-83.6245"/>
</g>
<!-- Node3 -->
<g id="node5" class="node"><title>Node3</title>
<polygon fill="white" stroke="#bfbfbf" points="45.5,-0.5 45.5,-21.5 80.5,-21.5 80.5,-0.5 45.5,-0.5"/>
<text text-anchor="middle" x="63" y="-8.5" font-family="Helvetica,sans-Serif" font-size="10.00">map</text>
</g>
<!-- Node2&#45;&gt;Node3 -->
<g id="edge4" class="edge"><title>Node2&#45;&gt;Node3</title>
<path fill="none" stroke="midnightblue" d="M109.545,-58.3619C101.43,-50.1043 89.9988,-38.4725 80.4959,-28.8029"/>
<polygon fill="midnightblue" stroke="midnightblue" points="82.8941,-26.2497 73.3884,-21.5707 77.9014,-31.1562 82.8941,-26.2497"/>
</g>
<!-- Node2&#45;&gt;Node4 -->
<g id="edge6" class="edge"><title>Node2&#45;&gt;Node4</title>
<path fill="none" stroke="midnightblue" d="M100.558,-58.3619C82.7648,-48.626 56.3993,-34.1996 37.4459,-23.8289"/>
<polygon fill="midnightblue" stroke="midnightblue" points="39.0039,-20.6917 28.5512,-18.962 35.6438,-26.8326 39.0039,-20.6917"/>
</g>
<!-- Node5 -->
<g id="node9" class="node"><title>Node5</title>
<polygon fill="white" stroke="#bfbfbf" points="98,-0.5 98,-21.5 142,-21.5 142,-0.5 98,-0.5"/>
<text text-anchor="middle" x="120" y="-8.5" font-family="Helvetica,sans-Serif" font-size="10.00">vector</text>
</g>
<!-- Node2&#45;&gt;Node5 -->
<g id="edge8" class="edge"><title>Node2&#45;&gt;Node5</title>
<path fill="none" stroke="midnightblue" d="M120,-58.3619C120,-50.9219 120,-40.7427 120,-31.7276"/>
<polygon fill="midnightblue" stroke="midnightblue" points="123.5,-31.5706 120,-21.5707 116.5,-31.5707 123.5,-31.5706"/>
</g>
<!-- Node6 -->
<g id="node11" class="node"><title>Node6</title>
<polygon fill="white" stroke="#bfbfbf" points="159.5,-0.5 159.5,-21.5 200.5,-21.5 200.5,-0.5 159.5,-0.5"/>
<text text-anchor="middle" x="180" y="-8.5" font-family="Helvetica,sans-Serif" font-size="10.00">string</text>
</g>
<!-- Node2&#45;&gt;Node6 -->
<g id="edge10" class="edge"><title>Node2&#45;&gt;Node6</title>
<path fill="none" stroke="midnightblue" d="M131.005,-58.3619C139.547,-50.1043 151.58,-38.4725 161.583,-28.8029"/>
<polygon fill="midnightblue" stroke="midnightblue" points="164.308,-31.0374 169.065,-21.5707 159.442,-26.0044 164.308,-31.0374"/>
</g>
<!-- Node7 -->
<g id="node13" class="node"><title>Node7</title>
<polygon fill="white" stroke="#bfbfbf" points="218,-0.5 218,-21.5 316,-21.5 316,-0.5 218,-0.5"/>
<text text-anchor="middle" x="267" y="-8.5" font-family="Helvetica,sans-Serif" font-size="10.00">Math/Interpolator.h</text>
</g>
<!-- Node2&#45;&gt;Node7 -->
<g id="edge12" class="edge"><title>Node2&#45;&gt;Node7</title>
<path fill="none" stroke="midnightblue" d="M146.621,-58.4966C170.097,-49.2337 204.525,-35.6499 230.556,-25.3793"/>
<polygon fill="midnightblue" stroke="midnightblue" points="232.063,-28.5473 240.081,-21.6212 229.494,-22.0358 232.063,-28.5473"/>
</g>
<!-- Node8 -->
<g id="node15" class="node"><title>Node8</title>
<polygon fill="white" stroke="#bfbfbf" points="334,-0.5 334,-21.5 378,-21.5 378,-0.5 334,-0.5"/>
<text text-anchor="middle" x="356" y="-8.5" font-family="Helvetica,sans-Serif" font-size="10.00">TH1.h</text>
</g>
<!-- Node2&#45;&gt;Node8 -->
<g id="edge14" class="edge"><title>Node2&#45;&gt;Node8</title>
<path fill="none" stroke="midnightblue" d="M159.406,-59.9727C209.995,-48.383 294.141,-29.1021 323.721,-21.8399"/>
<polygon fill="midnightblue" stroke="midnightblue" points="324.947,-25.1381 333.749,-19.2422 323.191,-18.3618 324.947,-25.1381"/>
</g>
</g>
</svg>
