<?xml version="1.0" encoding="UTF-8" standalone="no"?>
<!DOCTYPE svg PUBLIC "-//W3C//DTD SVG 1.1//EN"
 "http://www.w3.org/Graphics/SVG/1.1/DTD/svg11.dtd">
<!-- Generated by graphviz version 2.26.3 (20100126.1600)
 -->
<!-- Title: src/analysis/utils/A2GeoAcceptance.cc Pages: 1 -->
<svg width="666pt" height="276pt"
 viewBox="0.00 0.00 666.00 276.00" xmlns="http://www.w3.org/2000/svg" xmlns:xlink="http://www.w3.org/1999/xlink">
<g id="graph1" class="graph" transform="scale(1 1) rotate(0) translate(4 272)">
<title>src/analysis/utils/A2GeoAcceptance.cc</title>
<polygon fill="white" stroke="white" points="-4,5 -4,-272 663,-272 663,5 -4,5"/>
<!-- Node1 -->
<g id="node1" class="node"><title>Node1</title>
<polygon fill="#bfbfbf" stroke="black" points="336.5,-233 336.5,-267 451.5,-267 451.5,-233 336.5,-233"/>
<text text-anchor="start" x="344.5" y="-254" font-family="Helvetica,sans-Serif" font-size="10.00">src/analysis/utils</text>
<text text-anchor="middle" x="394" y="-241" font-family="Helvetica,sans-Serif" font-size="10.00">/A2GeoAcceptance.cc</text>
</g>
<!-- Node2 -->
<g id="node3" class="node"><title>Node2</title>
<a xlink:href="_a2_geo_acceptance_8h.html" target="_top" xlink:title="A2GeoAcceptance.h">
<polygon fill="white" stroke="black" points="340.5,-174.5 340.5,-195.5 447.5,-195.5 447.5,-174.5 340.5,-174.5"/>
<text text-anchor="middle" x="394" y="-182.5" font-family="Helvetica,sans-Serif" font-size="10.00">A2GeoAcceptance.h</text>
</a>
</g>
<!-- Node1&#45;&gt;Node2 -->
<g id="edge2" class="edge"><title>Node1&#45;&gt;Node2</title>
<path fill="none" stroke="midnightblue" d="M394,-232.922C394,-224.67 394,-214.692 394,-205.982"/>
<polygon fill="midnightblue" stroke="midnightblue" points="397.5,-205.852 394,-195.852 390.5,-205.852 397.5,-205.852"/>
</g>
<!-- Node3 -->
<g id="node5" class="node"><title>Node3</title>
<a xlink:href="interval_8h.html" target="_top" xlink:title="base/interval.h">
<polygon fill="white" stroke="black" points="154,-116.5 154,-137.5 234,-137.5 234,-116.5 154,-116.5"/>
<text text-anchor="middle" x="194" y="-124.5" font-family="Helvetica,sans-Serif" font-size="10.00">base/interval.h</text>
</a>
</g>
<!-- Node2&#45;&gt;Node3 -->
<g id="edge4" class="edge"><title>Node2&#45;&gt;Node3</title>
<path fill="none" stroke="midnightblue" d="M357.782,-174.497C324.753,-164.918 275.792,-150.72 240.006,-140.342"/>
<polygon fill="midnightblue" stroke="midnightblue" points="240.866,-136.947 230.286,-137.523 238.916,-143.67 240.866,-136.947"/>
</g>
<!-- Node11 -->
<g id="node21" class="node"><title>Node11</title>
<polygon fill="white" stroke="#bfbfbf" points="458.5,-116.5 458.5,-137.5 511.5,-137.5 511.5,-116.5 458.5,-116.5"/>
<text text-anchor="middle" x="485" y="-124.5" font-family="Helvetica,sans-Serif" font-size="10.00">TMath.h</text>
</g>
<!-- Node2&#45;&gt;Node11 -->
<g id="edge20" class="edge"><title>Node2&#45;&gt;Node11</title>
<path fill="none" stroke="midnightblue" d="M410.691,-174.362C424.416,-165.614 444.084,-153.079 459.737,-143.101"/>
<polygon fill="midnightblue" stroke="midnightblue" points="461.863,-145.897 468.415,-137.571 458.101,-139.994 461.863,-145.897"/>
</g>
<!-- Node12 -->
<g id="node23" class="node"><title>Node12</title>
<a xlink:href="_detector__t_8h.html" target="_top" xlink:title="base/Detector_t.h">
<polygon fill="white" stroke="black" points="346.5,-116.5 346.5,-137.5 441.5,-137.5 441.5,-116.5 346.5,-116.5"/>
<text text-anchor="middle" x="394" y="-124.5" font-family="Helvetica,sans-Serif" font-size="10.00">base/Detector_t.h</text>
</a>
</g>
<!-- Node2&#45;&gt;Node12 -->
<g id="edge22" class="edge"><title>Node2&#45;&gt;Node12</title>
<path fill="none" stroke="midnightblue" d="M394,-174.362C394,-166.922 394,-156.743 394,-147.728"/>
<polygon fill="midnightblue" stroke="midnightblue" points="397.5,-147.571 394,-137.571 390.5,-147.571 397.5,-147.571"/>
</g>
<!-- Node4 -->
<g id="node7" class="node"><title>Node4</title>
<polygon fill="white" stroke="#bfbfbf" points="0,-58.5 0,-79.5 56,-79.5 56,-58.5 0,-58.5"/>
<text text-anchor="middle" x="28" y="-66.5" font-family="Helvetica,sans-Serif" font-size="10.00">algorithm</text>
</g>
<!-- Node3&#45;&gt;Node4 -->
<g id="edge6" class="edge"><title>Node3&#45;&gt;Node4</title>
<path fill="none" stroke="midnightblue" d="M163.939,-116.497C136.406,-106.877 95.534,-92.5962 65.799,-82.2069"/>
<polygon fill="midnightblue" stroke="midnightblue" points="66.7721,-78.8394 56.1773,-78.8451 64.4631,-85.4477 66.7721,-78.8394"/>
</g>
<!-- Node5 -->
<g id="node9" class="node"><title>Node5</title>
<polygon fill="white" stroke="#bfbfbf" points="197.5,-58.5 197.5,-79.5 256.5,-79.5 256.5,-58.5 197.5,-58.5"/>
<text text-anchor="middle" x="227" y="-66.5" font-family="Helvetica,sans-Serif" font-size="10.00">stdexcept</text>
</g>
<!-- Node3&#45;&gt;Node5 -->
<g id="edge8" class="edge"><title>Node3&#45;&gt;Node5</title>
<path fill="none" stroke="midnightblue" d="M200.053,-116.362C204.472,-108.595 210.59,-97.8426 215.879,-88.5458"/>
<polygon fill="midnightblue" stroke="midnightblue" points="219.082,-89.9932 220.986,-79.5707 212.998,-86.5315 219.082,-89.9932"/>
</g>
<!-- Node6 -->
<g id="node11" class="node"><title>Node6</title>
<a xlink:href="printable_8h.html" target="_top" xlink:title="printable.h">
<polygon fill="white" stroke="black" points="274,-58.5 274,-79.5 336,-79.5 336,-58.5 274,-58.5"/>
<text text-anchor="middle" x="305" y="-66.5" font-family="Helvetica,sans-Serif" font-size="10.00">printable.h</text>
</a>
</g>
<!-- Node3&#45;&gt;Node6 -->
<g id="edge10" class="edge"><title>Node3&#45;&gt;Node6</title>
<path fill="none" stroke="midnightblue" d="M214.101,-116.497C231.282,-107.519 256.23,-94.4835 275.645,-84.3387"/>
<polygon fill="midnightblue" stroke="midnightblue" points="277.431,-87.3544 284.673,-79.6212 274.189,-81.1503 277.431,-87.3544"/>
</g>
<!-- Node9 -->
<g id="node17" class="node"><title>Node9</title>
<a xlink:href="types_8h.html" target="_top" xlink:title="types.h">
<polygon fill="white" stroke="black" points="73.5,-58.5 73.5,-79.5 122.5,-79.5 122.5,-58.5 73.5,-58.5"/>
<text text-anchor="middle" x="98" y="-66.5" font-family="Helvetica,sans-Serif" font-size="10.00">types.h</text>
</a>
</g>
<!-- Node3&#45;&gt;Node9 -->
<g id="edge16" class="edge"><title>Node3&#45;&gt;Node9</title>
<path fill="none" stroke="midnightblue" d="M176.392,-116.362C161.777,-107.532 140.776,-94.844 124.189,-84.8224"/>
<polygon fill="midnightblue" stroke="midnightblue" points="125.865,-81.7461 115.496,-79.5707 122.246,-87.7376 125.865,-81.7461"/>
</g>
<!-- Node10 -->
<g id="node19" class="node"><title>Node10</title>
<polygon fill="white" stroke="#bfbfbf" points="140,-58.5 140,-79.5 180,-79.5 180,-58.5 140,-58.5"/>
<text text-anchor="middle" x="160" y="-66.5" font-family="Helvetica,sans-Serif" font-size="10.00">limits</text>
</g>
<!-- Node3&#45;&gt;Node10 -->
<g id="edge18" class="edge"><title>Node3&#45;&gt;Node10</title>
<path fill="none" stroke="midnightblue" d="M187.764,-116.362C183.163,-108.513 176.775,-97.6159 171.286,-88.2527"/>
<polygon fill="midnightblue" stroke="midnightblue" points="174.273,-86.4276 166.197,-79.5707 168.234,-89.9677 174.273,-86.4276"/>
</g>
<!-- Node7 -->
<g id="node13" class="node"><title>Node7</title>
<polygon fill="white" stroke="#bfbfbf" points="342,-0.5 342,-21.5 386,-21.5 386,-0.5 342,-0.5"/>
<text text-anchor="middle" x="364" y="-8.5" font-family="Helvetica,sans-Serif" font-size="10.00">vector</text>
</g>
<!-- Node6&#45;&gt;Node7 -->
<g id="edge12" class="edge"><title>Node6&#45;&gt;Node7</title>
<path fill="none" stroke="midnightblue" d="M315.822,-58.3619C324.221,-50.1043 336.054,-38.4725 345.89,-28.8029"/>
<polygon fill="midnightblue" stroke="midnightblue" points="348.569,-31.077 353.247,-21.5707 343.662,-26.0851 348.569,-31.077"/>
</g>
<!-- Node8 -->
<g id="node15" class="node"><title>Node8</title>
<polygon fill="white" stroke="#bfbfbf" points="272,-0.5 272,-21.5 324,-21.5 324,-0.5 272,-0.5"/>
<text text-anchor="middle" x="298" y="-8.5" font-family="Helvetica,sans-Serif" font-size="10.00">ostream</text>
</g>
<!-- Node6&#45;&gt;Node8 -->
<g id="edge14" class="edge"><title>Node6&#45;&gt;Node8</title>
<path fill="none" stroke="midnightblue" d="M303.716,-58.3619C302.818,-50.9219 301.59,-40.7427 300.502,-31.7276"/>
<polygon fill="midnightblue" stroke="midnightblue" points="303.949,-31.0792 299.276,-21.5707 296.999,-31.918 303.949,-31.0792"/>
</g>
<!-- Node12&#45;&gt;Node5 -->
<g id="edge30" class="edge"><title>Node12&#45;&gt;Node5</title>
<path fill="none" stroke="midnightblue" d="M363.758,-116.497C336.481,-107.023 296.191,-93.0305 266.402,-82.6847"/>
<polygon fill="midnightblue" stroke="midnightblue" points="267.331,-79.3023 256.737,-79.3277 265.035,-85.9149 267.331,-79.3023"/>
</g>
<!-- Node12&#45;&gt;Node6 -->
<g id="edge24" class="edge"><title>Node12&#45;&gt;Node6</title>
<path fill="none" stroke="midnightblue" d="M377.676,-116.362C364.252,-107.614 345.017,-95.0786 329.707,-85.1015"/>
<polygon fill="midnightblue" stroke="midnightblue" points="331.509,-82.0982 321.22,-79.5707 327.688,-87.9628 331.509,-82.0982"/>
</g>
<!-- Node12&#45;&gt;Node7 -->
<g id="edge36" class="edge"><title>Node12&#45;&gt;Node7</title>
<path fill="none" stroke="midnightblue" d="M391.231,-116.295C386.253,-97.0451 375.713,-56.2889 369.304,-31.5091"/>
<polygon fill="midnightblue" stroke="midnightblue" points="372.654,-30.4843 366.762,-21.6792 365.877,-32.237 372.654,-30.4843"/>
</g>
<!-- Node13 -->
<g id="node26" class="node"><title>Node13</title>
<polygon fill="white" stroke="#bfbfbf" points="391.5,-58.5 391.5,-79.5 456.5,-79.5 456.5,-58.5 391.5,-58.5"/>
<text text-anchor="middle" x="424" y="-66.5" font-family="Helvetica,sans-Serif" font-size="10.00">TVector3.h</text>
</g>
<!-- Node12&#45;&gt;Node13 -->
<g id="edge26" class="edge"><title>Node12&#45;&gt;Node13</title>
<path fill="none" stroke="midnightblue" d="M399.502,-116.362C403.52,-108.595 409.081,-97.8426 413.89,-88.5458"/>
<polygon fill="midnightblue" stroke="midnightblue" points="417.047,-90.0608 418.532,-79.5707 410.829,-86.8448 417.047,-90.0608"/>
</g>
<!-- Node14 -->
<g id="node28" class="node"><title>Node14</title>
<polygon fill="white" stroke="#bfbfbf" points="474,-58.5 474,-79.5 520,-79.5 520,-58.5 474,-58.5"/>
<text text-anchor="middle" x="497" y="-66.5" font-family="Helvetica,sans-Serif" font-size="10.00">cstdint</text>
</g>
<!-- Node12&#45;&gt;Node14 -->
<g id="edge28" class="edge"><title>Node12&#45;&gt;Node14</title>
<path fill="none" stroke="midnightblue" d="M412.892,-116.362C428.718,-107.45 451.523,-94.6087 469.395,-84.5447"/>
<polygon fill="midnightblue" stroke="midnightblue" points="471.232,-87.5271 478.228,-79.5707 467.797,-81.4276 471.232,-87.5271"/>
</g>
<!-- Node15 -->
<g id="node31" class="node"><title>Node15</title>
<polygon fill="white" stroke="#bfbfbf" points="537.5,-58.5 537.5,-79.5 578.5,-79.5 578.5,-58.5 537.5,-58.5"/>
<text text-anchor="middle" x="558" y="-66.5" font-family="Helvetica,sans-Serif" font-size="10.00">string</text>
</g>
<!-- Node12&#45;&gt;Node15 -->
<g id="edge32" class="edge"><title>Node12&#45;&gt;Node15</title>
<path fill="none" stroke="midnightblue" d="M425.186,-116.415C450.622,-107.721 487.702,-94.9122 527.967,-80.3227"/>
<polygon fill="midnightblue" stroke="midnightblue" points="529.229,-83.5883 537.431,-76.882 526.837,-77.0096 529.229,-83.5883"/>
</g>
<!-- Node16 -->
<g id="node33" class="node"><title>Node16</title>
<polygon fill="white" stroke="#bfbfbf" points="596,-58.5 596,-79.5 658,-79.5 658,-58.5 596,-58.5"/>
<text text-anchor="middle" x="627" y="-66.5" font-family="Helvetica,sans-Serif" font-size="10.00">type_traits</text>
</g>
<!-- Node12&#45;&gt;Node16 -->
<g id="edge34" class="edge"><title>Node12&#45;&gt;Node16</title>
<path fill="none" stroke="midnightblue" d="M438.941,-116.452C475.975,-107.671 530.105,-94.6321 585.886,-80.2444"/>
<polygon fill="midnightblue" stroke="midnightblue" points="586.777,-83.6292 595.581,-77.7344 585.022,-76.8527 586.777,-83.6292"/>
</g>
</g>
</svg>
