<?xml version="1.0" encoding="UTF-8" standalone="no"?>
<!DOCTYPE svg PUBLIC "-//W3C//DTD SVG 1.1//EN"
 "http://www.w3.org/Graphics/SVG/1.1/DTD/svg11.dtd">
<!-- Generated by graphviz version 2.26.3 (20100126.1600)
 -->
<!-- Title: src/calibration/gui/ACECanvas.cc Pages: 1 -->
<svg width="2004pt" height="580pt"
 viewBox="0.00 0.00 2004.00 580.00" xmlns="http://www.w3.org/2000/svg" xmlns:xlink="http://www.w3.org/1999/xlink">
<g id="graph1" class="graph" transform="scale(1 1) rotate(0) translate(4 576)">
<title>src/calibration/gui/ACECanvas.cc</title>
<polygon fill="white" stroke="white" points="-4,5 -4,-576 2001,-576 2001,5 -4,5"/>
<!-- Node1 -->
<g id="node1" class="node"><title>Node1</title>
<polygon fill="#bfbfbf" stroke="black" points="1728.5,-537 1728.5,-571 1821.5,-571 1821.5,-537 1728.5,-537"/>
<text text-anchor="start" x="1736.5" y="-558" font-family="Helvetica,sans-Serif" font-size="10.00">src/calibration/gui</text>
<text text-anchor="middle" x="1775" y="-545" font-family="Helvetica,sans-Serif" font-size="10.00">/ACECanvas.cc</text>
</g>
<!-- Node2 -->
<g id="node3" class="node"><title>Node2</title>
<a xlink:href="_a_c_e_canvas_8h.html" target="_top" xlink:title="ACECanvas.h">
<polygon fill="white" stroke="black" points="457,-478.5 457,-499.5 537,-499.5 537,-478.5 457,-478.5"/>
<text text-anchor="middle" x="497" y="-486.5" font-family="Helvetica,sans-Serif" font-size="10.00">ACECanvas.h</text>
</a>
</g>
<!-- Node1&#45;&gt;Node2 -->
<g id="edge2" class="edge"><title>Node1&#45;&gt;Node2</title>
<path fill="none" stroke="midnightblue" d="M1728.38,-551.629C1529.6,-541.519 753.627,-502.052 547.506,-491.569"/>
<polygon fill="midnightblue" stroke="midnightblue" points="547.443,-488.061 537.278,-491.049 547.087,-495.052 547.443,-488.061"/>
</g>
<!-- Node3 -->
<g id="node5" class="node"><title>Node3</title>
<a xlink:href="_editor_8h.html" target="_top" xlink:title="calibration/Editor.h">
<polygon fill="white" stroke="black" points="743,-420.5 743,-441.5 841,-441.5 841,-420.5 743,-420.5"/>
<text text-anchor="middle" x="792" y="-428.5" font-family="Helvetica,sans-Serif" font-size="10.00">calibration/Editor.h</text>
</a>
</g>
<!-- Node1&#45;&gt;Node3 -->
<g id="edge146" class="edge"><title>Node1&#45;&gt;Node3</title>
<path fill="none" stroke="midnightblue" d="M1728.25,-548.15C1566.47,-527.907 1030.52,-460.845 851.105,-438.396"/>
<polygon fill="midnightblue" stroke="midnightblue" points="851.422,-434.908 841.065,-437.139 850.553,-441.854 851.422,-434.908"/>
</g>
<!-- Node23 -->
<g id="node48" class="node"><title>Node23</title>
<a xlink:href="string_8h.html" target="_top" xlink:title="base/std_ext/string.h">
<polygon fill="white" stroke="black" points="1676,-58.5 1676,-79.5 1784,-79.5 1784,-58.5 1676,-58.5"/>
<text text-anchor="middle" x="1730" y="-66.5" font-family="Helvetica,sans-Serif" font-size="10.00">base/std_ext/string.h</text>
</a>
</g>
<!-- Node1&#45;&gt;Node23 -->
<g id="edge148" class="edge"><title>Node1&#45;&gt;Node23</title>
<path fill="none" stroke="midnightblue" d="M1762.17,-536.678C1746.48,-513.742 1722,-471.459 1722,-431 1722,-431 1722,-431 1722,-185 1722,-151.518 1725.36,-112.729 1727.72,-89.5644"/>
<polygon fill="midnightblue" stroke="midnightblue" points="1731.21,-89.8524 1728.78,-79.5393 1724.25,-89.1149 1731.21,-89.8524"/>
</g>
<!-- Node41 -->
<g id="node116" class="node"><title>Node41</title>
<polygon fill="white" stroke="#bfbfbf" points="1749.5,-478.5 1749.5,-499.5 1800.5,-499.5 1800.5,-478.5 1749.5,-478.5"/>
<text text-anchor="middle" x="1775" y="-486.5" font-family="Helvetica,sans-Serif" font-size="10.00">TH2D.h</text>
</g>
<!-- Node1&#45;&gt;Node41 -->
<g id="edge150" class="edge"><title>Node1&#45;&gt;Node41</title>
<path fill="none" stroke="midnightblue" d="M1775,-536.922C1775,-528.67 1775,-518.692 1775,-509.982"/>
<polygon fill="midnightblue" stroke="midnightblue" points="1778.5,-509.852 1775,-499.852 1771.5,-509.852 1778.5,-509.852"/>
</g>
<!-- Node42 -->
<g id="node118" class="node"><title>Node42</title>
<polygon fill="white" stroke="#bfbfbf" points="1818,-478.5 1818,-499.5 1862,-499.5 1862,-478.5 1818,-478.5"/>
<text text-anchor="middle" x="1840" y="-486.5" font-family="Helvetica,sans-Serif" font-size="10.00">TH2.h</text>
</g>
<!-- Node1&#45;&gt;Node42 -->
<g id="edge152" class="edge"><title>Node1&#45;&gt;Node42</title>
<path fill="none" stroke="midnightblue" d="M1792.08,-536.922C1801.25,-527.754 1812.55,-516.454 1821.87,-507.129"/>
<polygon fill="midnightblue" stroke="midnightblue" points="1824.55,-509.398 1829.15,-499.852 1819.6,-504.448 1824.55,-509.398"/>
</g>
<!-- Node43 -->
<g id="node120" class="node"><title>Node43</title>
<polygon fill="white" stroke="#bfbfbf" points="1880,-478.5 1880,-499.5 1924,-499.5 1924,-478.5 1880,-478.5"/>
<text text-anchor="middle" x="1902" y="-486.5" font-family="Helvetica,sans-Serif" font-size="10.00">cmath</text>
</g>
<!-- Node1&#45;&gt;Node43 -->
<g id="edge154" class="edge"><title>Node1&#45;&gt;Node43</title>
<path fill="none" stroke="midnightblue" d="M1808.37,-536.922C1828.11,-526.818 1852.91,-514.126 1872.02,-504.342"/>
<polygon fill="midnightblue" stroke="midnightblue" points="1873.87,-507.33 1881.18,-499.658 1870.68,-501.099 1873.87,-507.33"/>
</g>
<!-- Node44 -->
<g id="node122" class="node"><title>Node44</title>
<polygon fill="white" stroke="#bfbfbf" points="1942,-478.5 1942,-499.5 1996,-499.5 1996,-478.5 1942,-478.5"/>
<text text-anchor="middle" x="1969" y="-486.5" font-family="Helvetica,sans-Serif" font-size="10.00">iostream</text>
</g>
<!-- Node1&#45;&gt;Node44 -->
<g id="edge156" class="edge"><title>Node1&#45;&gt;Node44</title>
<path fill="none" stroke="midnightblue" d="M1821.96,-538.265C1855.86,-526.908 1900.98,-511.789 1932.26,-501.309"/>
<polygon fill="midnightblue" stroke="midnightblue" points="1933.53,-504.575 1941.9,-498.08 1931.31,-497.938 1933.53,-504.575"/>
</g>
<!-- Node2&#45;&gt;Node3 -->
<g id="edge4" class="edge"><title>Node2&#45;&gt;Node3</title>
<path fill="none" stroke="midnightblue" d="M537.092,-481.118C587.546,-471.198 674.621,-454.078 732.76,-442.647"/>
<polygon fill="midnightblue" stroke="midnightblue" points="733.768,-446.016 742.905,-440.652 732.418,-439.147 733.768,-446.016"/>
</g>
<!-- Node4 -->
<g id="node7" class="node"><title>Node4</title>
<a xlink:href="root__draw_8h.html" target="_top" xlink:title="analysis/plot/root\l_draw.h">
<polygon fill="white" stroke="black" points="544.5,-349 544.5,-383 635.5,-383 635.5,-349 544.5,-349"/>
<text text-anchor="start" x="552.5" y="-370" font-family="Helvetica,sans-Serif" font-size="10.00">analysis/plot/root</text>
<text text-anchor="middle" x="590" y="-357" font-family="Helvetica,sans-Serif" font-size="10.00">_draw.h</text>
</a>
</g>
<!-- Node2&#45;&gt;Node4 -->
<g id="edge140" class="edge"><title>Node2&#45;&gt;Node4</title>
<path fill="none" stroke="midnightblue" d="M493.428,-478.338C489.316,-464.008 484.393,-438.231 495,-420 504.012,-404.511 519.308,-393.1 535.024,-384.867"/>
<polygon fill="midnightblue" stroke="midnightblue" points="536.809,-387.891 544.281,-380.379 533.755,-381.592 536.809,-387.891"/>
</g>
<!-- Node5 -->
<g id="node9" class="node"><title>Node5</title>
<polygon fill="white" stroke="#bfbfbf" points="623.5,-0.5 623.5,-21.5 664.5,-21.5 664.5,-0.5 623.5,-0.5"/>
<text text-anchor="middle" x="644" y="-8.5" font-family="Helvetica,sans-Serif" font-size="10.00">string</text>
</g>
<!-- Node2&#45;&gt;Node5 -->
<g id="edge130" class="edge"><title>Node2&#45;&gt;Node5</title>
<path fill="none" stroke="midnightblue" d="M456.816,-483.883C395.596,-473.587 286,-444.231 286,-366 286,-366 286,-366 286,-127 286,-79.7089 324.15,-78.007 367,-58 410.452,-37.7123 550.565,-20.8627 613.222,-14.138"/>
<polygon fill="midnightblue" stroke="midnightblue" points="613.708,-17.6062 623.285,-13.0739 612.972,-10.645 613.708,-17.6062"/>
</g>
<!-- Node8 -->
<g id="node15" class="node"><title>Node8</title>
<polygon fill="white" stroke="#bfbfbf" points="527.5,-232.5 527.5,-253.5 562.5,-253.5 562.5,-232.5 527.5,-232.5"/>
<text text-anchor="middle" x="545" y="-240.5" font-family="Helvetica,sans-Serif" font-size="10.00">map</text>
</g>
<!-- Node2&#45;&gt;Node8 -->
<g id="edge132" class="edge"><title>Node2&#45;&gt;Node8</title>
<path fill="none" stroke="midnightblue" d="M486.045,-478.234C455.516,-446.914 374.558,-354.011 419,-290 430.474,-273.473 483.607,-257.897 517.107,-249.482"/>
<polygon fill="midnightblue" stroke="midnightblue" points="518.333,-252.785 527.215,-247.009 516.67,-245.985 518.333,-252.785"/>
</g>
<!-- Node10 -->
<g id="node19" class="node"><title>Node10</title>
<polygon fill="white" stroke="#bfbfbf" points="427.5,-290.5 427.5,-311.5 486.5,-311.5 486.5,-290.5 427.5,-290.5"/>
<text text-anchor="middle" x="457" y="-298.5" font-family="Helvetica,sans-Serif" font-size="10.00">functional</text>
</g>
<!-- Node2&#45;&gt;Node10 -->
<g id="edge136" class="edge"><title>Node2&#45;&gt;Node10</title>
<path fill="none" stroke="midnightblue" d="M494.069,-478.213C491.531,-468.712 487.831,-454.484 485,-442 475.346,-399.43 465.814,-349.213 460.743,-321.669"/>
<polygon fill="midnightblue" stroke="midnightblue" points="464.154,-320.862 458.913,-311.654 457.268,-322.121 464.154,-320.862"/>
</g>
<!-- Node11 -->
<g id="node21" class="node"><title>Node11</title>
<polygon fill="white" stroke="#bfbfbf" points="666,-116.5 666,-137.5 722,-137.5 722,-116.5 666,-116.5"/>
<text text-anchor="middle" x="694" y="-124.5" font-family="Helvetica,sans-Serif" font-size="10.00">Rtypes.h</text>
</g>
<!-- Node2&#45;&gt;Node11 -->
<g id="edge138" class="edge"><title>Node2&#45;&gt;Node11</title>
<path fill="none" stroke="midnightblue" d="M479.661,-478.451C466.518,-469.835 448.625,-456.711 436,-442 391.098,-389.68 369.715,-349.233 405,-290 460.546,-196.754 590.884,-152.469 655.827,-135.586"/>
<polygon fill="midnightblue" stroke="midnightblue" points="656.824,-138.944 665.667,-133.108 655.115,-132.156 656.824,-138.944"/>
</g>
<!-- Node12 -->
<g id="node23" class="node"><title>Node12</title>
<a xlink:href="interval_8h.html" target="_top" xlink:title="base/interval.h">
<polygon fill="white" stroke="black" points="1010,-174.5 1010,-195.5 1090,-195.5 1090,-174.5 1010,-174.5"/>
<text text-anchor="middle" x="1050" y="-182.5" font-family="Helvetica,sans-Serif" font-size="10.00">base/interval.h</text>
</a>
</g>
<!-- Node2&#45;&gt;Node12 -->
<g id="edge116" class="edge"><title>Node2&#45;&gt;Node12</title>
<path fill="none" stroke="midnightblue" d="M537.157,-484.929C670.176,-470.913 1088,-422.397 1088,-366 1088,-366 1088,-366 1088,-301 1088,-265.741 1071.95,-227.315 1060.71,-204.732"/>
<polygon fill="midnightblue" stroke="midnightblue" points="1063.8,-203.09 1056.11,-195.809 1057.58,-206.301 1063.8,-203.09"/>
</g>
<!-- Node34 -->
<g id="node93" class="node"><title>Node34</title>
<a xlink:href="_dialogs_8h.html" target="_top" xlink:title="Dialogs.h">
<polygon fill="white" stroke="black" points="172,-290.5 172,-311.5 230,-311.5 230,-290.5 172,-290.5"/>
<text text-anchor="middle" x="201" y="-298.5" font-family="Helvetica,sans-Serif" font-size="10.00">Dialogs.h</text>
</a>
</g>
<!-- Node2&#45;&gt;Node34 -->
<g id="edge118" class="edge"><title>Node2&#45;&gt;Node34</title>
<path fill="none" stroke="midnightblue" d="M456.813,-484.818C400.146,-478.228 300.48,-463.881 272,-442 232.34,-411.528 213.145,-352.853 205.391,-321.666"/>
<polygon fill="midnightblue" stroke="midnightblue" points="208.787,-320.819 203.11,-311.873 201.969,-322.406 208.787,-320.819"/>
</g>
<!-- Node38 -->
<g id="node105" class="node"><title>Node38</title>
<polygon fill="white" stroke="#bfbfbf" points="504,-420.5 504,-441.5 534,-441.5 534,-420.5 504,-420.5"/>
<text text-anchor="middle" x="519" y="-428.5" font-family="Helvetica,sans-Serif" font-size="10.00">set</text>
</g>
<!-- Node2&#45;&gt;Node38 -->
<g id="edge134" class="edge"><title>Node2&#45;&gt;Node38</title>
<path fill="none" stroke="midnightblue" d="M501.035,-478.362C503.919,-470.758 507.888,-460.294 511.363,-451.135"/>
<polygon fill="midnightblue" stroke="midnightblue" points="514.716,-452.162 514.99,-441.571 508.171,-449.679 514.716,-452.162"/>
</g>
<!-- Node39 -->
<g id="node110" class="node"><title>Node39</title>
<polygon fill="white" stroke="#bfbfbf" points="551.5,-420.5 551.5,-441.5 616.5,-441.5 616.5,-420.5 551.5,-420.5"/>
<text text-anchor="middle" x="584" y="-428.5" font-family="Helvetica,sans-Serif" font-size="10.00">TCanvas.h</text>
</g>
<!-- Node2&#45;&gt;Node39 -->
<g id="edge142" class="edge"><title>Node2&#45;&gt;Node39</title>
<path fill="none" stroke="midnightblue" d="M512.957,-478.362C525.957,-469.696 544.531,-457.313 559.427,-447.382"/>
<polygon fill="midnightblue" stroke="midnightblue" points="561.765,-450.03 568.144,-441.571 557.882,-444.206 561.765,-450.03"/>
</g>
<!-- Node40 -->
<g id="node112" class="node"><title>Node40</title>
<polygon fill="white" stroke="#bfbfbf" points="633.5,-420.5 633.5,-441.5 706.5,-441.5 706.5,-420.5 633.5,-420.5"/>
<text text-anchor="middle" x="670" y="-428.5" font-family="Helvetica,sans-Serif" font-size="10.00">TPaveText.h</text>
</g>
<!-- Node2&#45;&gt;Node40 -->
<g id="edge144" class="edge"><title>Node2&#45;&gt;Node40</title>
<path fill="none" stroke="midnightblue" d="M528.329,-478.497C556.533,-469.041 598.167,-455.083 629.009,-444.743"/>
<polygon fill="midnightblue" stroke="midnightblue" points="630.243,-448.02 638.612,-441.523 628.018,-441.383 630.243,-448.02"/>
</g>
<!-- Node3&#45;&gt;Node4 -->
<g id="edge6" class="edge"><title>Node3&#45;&gt;Node4</title>
<path fill="none" stroke="midnightblue" d="M759.096,-420.412C728.308,-410.505 681.72,-395.514 645.235,-383.774"/>
<polygon fill="midnightblue" stroke="midnightblue" points="646.306,-380.442 635.715,-380.71 644.162,-387.105 646.306,-380.442"/>
</g>
<!-- Node3&#45;&gt;Node5 -->
<g id="edge112" class="edge"><title>Node3&#45;&gt;Node5</title>
<path fill="none" stroke="midnightblue" d="M742.728,-422.96C673.834,-411.564 554.983,-391.289 536,-384 479,-362.114 469.738,-345.965 419,-312 375.636,-282.971 324,-295.184 324,-243 324,-243 324,-243 324,-127 324,-65.7804 533.623,-27.6705 613.546,-15.3652"/>
<polygon fill="midnightblue" stroke="midnightblue" points="614.13,-18.8167 623.496,-13.864 613.086,-11.8951 614.13,-18.8167"/>
</g>
<!-- Node7 -->
<g id="node13" class="node"><title>Node7</title>
<polygon fill="white" stroke="#bfbfbf" points="666,-58.5 666,-79.5 710,-79.5 710,-58.5 666,-58.5"/>
<text text-anchor="middle" x="688" y="-66.5" font-family="Helvetica,sans-Serif" font-size="10.00">vector</text>
</g>
<!-- Node3&#45;&gt;Node7 -->
<g id="edge114" class="edge"><title>Node3&#45;&gt;Node7</title>
<path fill="none" stroke="midnightblue" d="M790.39,-420.361C786.504,-396.327 775.391,-336.327 755,-290 722.618,-216.432 679.702,-215.107 657,-138 654.238,-128.62 654.19,-125.365 657,-116 660.054,-105.824 666.102,-95.8172 672.052,-87.6697"/>
<polygon fill="midnightblue" stroke="midnightblue" points="674.927,-89.6745 678.323,-79.6387 669.41,-85.3662 674.927,-89.6745"/>
</g>
<!-- Node9 -->
<g id="node17" class="node"><title>Node9</title>
<polygon fill="white" stroke="#bfbfbf" points="694,-290.5 694,-311.5 746,-311.5 746,-290.5 694,-290.5"/>
<text text-anchor="middle" x="720" y="-298.5" font-family="Helvetica,sans-Serif" font-size="10.00">memory</text>
</g>
<!-- Node3&#45;&gt;Node9 -->
<g id="edge110" class="edge"><title>Node3&#45;&gt;Node9</title>
<path fill="none" stroke="midnightblue" d="M786.108,-420.362C774.031,-398.555 746.308,-348.5 730.874,-320.634"/>
<polygon fill="midnightblue" stroke="midnightblue" points="733.88,-318.838 725.973,-311.785 727.757,-322.229 733.88,-318.838"/>
</g>
<!-- Node3&#45;&gt;Node12 -->
<g id="edge22" class="edge"><title>Node3&#45;&gt;Node12</title>
<path fill="none" stroke="midnightblue" d="M841.141,-423.165C869.786,-416.592 905.228,-404.797 931,-384 991.966,-334.804 1029.01,-245.404 1043.27,-205.356"/>
<polygon fill="midnightblue" stroke="midnightblue" points="1046.59,-206.46 1046.55,-195.866 1039.97,-204.175 1046.59,-206.46"/>
</g>
<!-- Node19 -->
<g id="node38" class="node"><title>Node19</title>
<a xlink:href="_data_manager_8h.html" target="_top" xlink:title="DataManager.h">
<polygon fill="white" stroke="black" points="839.5,-355.5 839.5,-376.5 922.5,-376.5 922.5,-355.5 839.5,-355.5"/>
<text text-anchor="middle" x="881" y="-363.5" font-family="Helvetica,sans-Serif" font-size="10.00">DataManager.h</text>
</a>
</g>
<!-- Node3&#45;&gt;Node19 -->
<g id="edge38" class="edge"><title>Node3&#45;&gt;Node19</title>
<path fill="none" stroke="midnightblue" d="M806.697,-420.267C820.694,-410.044 841.971,-394.504 858.175,-382.67"/>
<polygon fill="midnightblue" stroke="midnightblue" points="860.566,-385.258 866.577,-376.534 856.437,-379.605 860.566,-385.258"/>
</g>
<!-- Node4&#45;&gt;Node5 -->
<g id="edge8" class="edge"><title>Node4&#45;&gt;Node5</title>
<path fill="none" stroke="midnightblue" d="M574.733,-348.925C549.055,-318.374 500,-251.328 500,-185 500,-185 500,-185 500,-127 500,-69.0461 571.609,-35.1435 613.832,-20.1906"/>
<polygon fill="midnightblue" stroke="midnightblue" points="615.022,-23.483 623.368,-16.9571 612.774,-16.8537 615.022,-23.483"/>
</g>
<!-- Node6 -->
<g id="node11" class="node"><title>Node6</title>
<polygon fill="white" stroke="#bfbfbf" points="655.5,-232.5 655.5,-253.5 684.5,-253.5 684.5,-232.5 655.5,-232.5"/>
<text text-anchor="middle" x="670" y="-240.5" font-family="Helvetica,sans-Serif" font-size="10.00">list</text>
</g>
<!-- Node4&#45;&gt;Node6 -->
<g id="edge10" class="edge"><title>Node4&#45;&gt;Node6</title>
<path fill="none" stroke="midnightblue" d="M609.953,-348.769C620.533,-338.838 633.139,-325.644 642,-312 651.764,-296.967 659.165,-277.977 663.898,-263.726"/>
<polygon fill="midnightblue" stroke="midnightblue" points="667.329,-264.486 666.993,-253.896 660.652,-262.384 667.329,-264.486"/>
</g>
<!-- Node4&#45;&gt;Node7 -->
<g id="edge12" class="edge"><title>Node4&#45;&gt;Node7</title>
<path fill="none" stroke="midnightblue" d="M587.987,-348.753C583.862,-305.958 578.345,-192.813 624,-116 631.822,-102.841 644.9,-92.2542 657.203,-84.4845"/>
<polygon fill="midnightblue" stroke="midnightblue" points="659.105,-87.4257 665.938,-79.3283 655.547,-81.3976 659.105,-87.4257"/>
</g>
<!-- Node4&#45;&gt;Node8 -->
<g id="edge14" class="edge"><title>Node4&#45;&gt;Node8</title>
<path fill="none" stroke="midnightblue" d="M583.743,-348.897C575.539,-326.472 561.165,-287.183 552.42,-263.283"/>
<polygon fill="midnightblue" stroke="midnightblue" points="555.669,-261.976 548.947,-253.787 549.096,-264.381 555.669,-261.976"/>
</g>
<!-- Node4&#45;&gt;Node9 -->
<g id="edge16" class="edge"><title>Node4&#45;&gt;Node9</title>
<path fill="none" stroke="midnightblue" d="M624.156,-348.922C644.456,-338.772 669.981,-326.01 689.584,-316.208"/>
<polygon fill="midnightblue" stroke="midnightblue" points="691.304,-319.261 698.683,-311.658 688.174,-313 691.304,-319.261"/>
</g>
<!-- Node4&#45;&gt;Node10 -->
<g id="edge18" class="edge"><title>Node4&#45;&gt;Node10</title>
<path fill="none" stroke="midnightblue" d="M555.056,-348.922C534.193,-338.726 507.936,-325.894 487.845,-316.074"/>
<polygon fill="midnightblue" stroke="midnightblue" points="489.33,-312.905 478.809,-311.658 486.256,-319.194 489.33,-312.905"/>
</g>
<!-- Node4&#45;&gt;Node11 -->
<g id="edge20" class="edge"><title>Node4&#45;&gt;Node11</title>
<path fill="none" stroke="midnightblue" d="M597.275,-348.609C608.012,-323.011 628.797,-273.707 647,-232 659.976,-202.269 675.406,-167.998 684.952,-146.915"/>
<polygon fill="midnightblue" stroke="midnightblue" points="688.188,-148.256 689.13,-137.703 681.812,-145.365 688.188,-148.256"/>
</g>
<!-- Node13 -->
<g id="node25" class="node"><title>Node13</title>
<polygon fill="white" stroke="#bfbfbf" points="1354,-0.5 1354,-21.5 1410,-21.5 1410,-0.5 1354,-0.5"/>
<text text-anchor="middle" x="1382" y="-8.5" font-family="Helvetica,sans-Serif" font-size="10.00">algorithm</text>
</g>
<!-- Node12&#45;&gt;Node13 -->
<g id="edge24" class="edge"><title>Node12&#45;&gt;Node13</title>
<path fill="none" stroke="midnightblue" d="M1059.24,-174.389C1072.54,-159.647 1098.41,-132.884 1125,-116 1196.9,-70.3375 1292,-37.6823 1344.01,-21.8356"/>
<polygon fill="midnightblue" stroke="midnightblue" points="1345.24,-25.1189 1353.82,-18.8915 1343.23,-18.4145 1345.24,-25.1189"/>
</g>
<!-- Node14 -->
<g id="node27" class="node"><title>Node14</title>
<polygon fill="white" stroke="#bfbfbf" points="1133.5,-116.5 1133.5,-137.5 1192.5,-137.5 1192.5,-116.5 1133.5,-116.5"/>
<text text-anchor="middle" x="1163" y="-124.5" font-family="Helvetica,sans-Serif" font-size="10.00">stdexcept</text>
</g>
<!-- Node12&#45;&gt;Node14 -->
<g id="edge26" class="edge"><title>Node12&#45;&gt;Node14</title>
<path fill="none" stroke="midnightblue" d="M1070.46,-174.497C1088.03,-165.479 1113.58,-152.365 1133.39,-142.201"/>
<polygon fill="midnightblue" stroke="midnightblue" points="1135.01,-145.301 1142.31,-137.621 1131.81,-139.074 1135.01,-145.301"/>
</g>
<!-- Node15 -->
<g id="node29" class="node"><title>Node15</title>
<a xlink:href="printable_8h.html" target="_top" xlink:title="printable.h">
<polygon fill="white" stroke="black" points="1016,-116.5 1016,-137.5 1078,-137.5 1078,-116.5 1016,-116.5"/>
<text text-anchor="middle" x="1047" y="-124.5" font-family="Helvetica,sans-Serif" font-size="10.00">printable.h</text>
</a>
</g>
<!-- Node12&#45;&gt;Node15 -->
<g id="edge28" class="edge"><title>Node12&#45;&gt;Node15</title>
<path fill="none" stroke="midnightblue" d="M1049.45,-174.362C1049.06,-166.922 1048.54,-156.743 1048.07,-147.728"/>
<polygon fill="midnightblue" stroke="midnightblue" points="1051.56,-147.376 1047.55,-137.571 1044.57,-147.738 1051.56,-147.376"/>
</g>
<!-- Node17 -->
<g id="node34" class="node"><title>Node17</title>
<a xlink:href="types_8h.html" target="_top" xlink:title="types.h">
<polygon fill="white" stroke="black" points="949.5,-116.5 949.5,-137.5 998.5,-137.5 998.5,-116.5 949.5,-116.5"/>
<text text-anchor="middle" x="974" y="-124.5" font-family="Helvetica,sans-Serif" font-size="10.00">types.h</text>
</a>
</g>
<!-- Node12&#45;&gt;Node17 -->
<g id="edge34" class="edge"><title>Node12&#45;&gt;Node17</title>
<path fill="none" stroke="midnightblue" d="M1036.06,-174.362C1024.81,-165.777 1008.78,-153.546 995.835,-143.664"/>
<polygon fill="midnightblue" stroke="midnightblue" points="997.924,-140.855 987.851,-137.571 993.677,-146.42 997.924,-140.855"/>
</g>
<!-- Node18 -->
<g id="node36" class="node"><title>Node18</title>
<polygon fill="white" stroke="#bfbfbf" points="892,-116.5 892,-137.5 932,-137.5 932,-116.5 892,-116.5"/>
<text text-anchor="middle" x="912" y="-124.5" font-family="Helvetica,sans-Serif" font-size="10.00">limits</text>
</g>
<!-- Node12&#45;&gt;Node18 -->
<g id="edge36" class="edge"><title>Node12&#45;&gt;Node18</title>
<path fill="none" stroke="midnightblue" d="M1025.01,-174.497C1001.56,-164.641 966.468,-149.892 941.62,-139.449"/>
<polygon fill="midnightblue" stroke="midnightblue" points="942.892,-136.187 932.317,-135.539 940.18,-142.64 942.892,-136.187"/>
</g>
<!-- Node15&#45;&gt;Node7 -->
<g id="edge30" class="edge"><title>Node15&#45;&gt;Node7</title>
<path fill="none" stroke="midnightblue" d="M1015.65,-117.988C1012.73,-117.269 1009.82,-116.593 1007,-116 903.084,-94.1416 778.017,-78.8708 720.202,-72.4266"/>
<polygon fill="midnightblue" stroke="midnightblue" points="720.532,-68.9419 710.209,-71.3265 719.766,-75.8999 720.532,-68.9419"/>
</g>
<!-- Node16 -->
<g id="node32" class="node"><title>Node16</title>
<polygon fill="white" stroke="#bfbfbf" points="1021,-58.5 1021,-79.5 1073,-79.5 1073,-58.5 1021,-58.5"/>
<text text-anchor="middle" x="1047" y="-66.5" font-family="Helvetica,sans-Serif" font-size="10.00">ostream</text>
</g>
<!-- Node15&#45;&gt;Node16 -->
<g id="edge32" class="edge"><title>Node15&#45;&gt;Node16</title>
<path fill="none" stroke="midnightblue" d="M1047,-116.362C1047,-108.922 1047,-98.7427 1047,-89.7276"/>
<polygon fill="midnightblue" stroke="midnightblue" points="1050.5,-89.5706 1047,-79.5707 1043.5,-89.5707 1050.5,-89.5706"/>
</g>
<!-- Node19&#45;&gt;Node5 -->
<g id="edge106" class="edge"><title>Node19&#45;&gt;Node5</title>
<path fill="none" stroke="midnightblue" d="M892.025,-355.41C905.692,-340.933 926.132,-314.018 917,-290 909.392,-269.99 899.03,-270.169 885,-254 810.185,-167.778 805.277,-132.751 719,-58 705.186,-46.0316 688.018,-35.0385 673.594,-26.6982"/>
<polygon fill="midnightblue" stroke="midnightblue" points="675.006,-23.4762 664.575,-21.6169 671.57,-29.5749 675.006,-23.4762"/>
</g>
<!-- Node19&#45;&gt;Node6 -->
<g id="edge104" class="edge"><title>Node19&#45;&gt;Node6</title>
<path fill="none" stroke="midnightblue" d="M864.002,-355.469C839.909,-340.606 794.373,-312.749 755,-290 734.495,-278.153 710.907,-265.159 693.79,-255.843"/>
<polygon fill="midnightblue" stroke="midnightblue" points="694.99,-252.512 684.531,-250.819 691.651,-258.665 694.99,-252.512"/>
</g>
<!-- Node19&#45;&gt;Node9 -->
<g id="edge108" class="edge"><title>Node19&#45;&gt;Node9</title>
<path fill="none" stroke="midnightblue" d="M854.774,-355.412C827.876,-344.552 785.845,-327.583 755.876,-315.484"/>
<polygon fill="midnightblue" stroke="midnightblue" points="756.798,-312.082 746.215,-311.584 754.177,-318.573 756.798,-312.082"/>
</g>
<!-- Node20 -->
<g id="node40" class="node"><title>Node20</title>
<a xlink:href="_t_calibration_data_8h.html" target="_top" xlink:title="tree/TCalibrationData.h">
<polygon fill="white" stroke="black" points="1146,-232.5 1146,-253.5 1264,-253.5 1264,-232.5 1146,-232.5"/>
<text text-anchor="middle" x="1205" y="-240.5" font-family="Helvetica,sans-Serif" font-size="10.00">tree/TCalibrationData.h</text>
</a>
</g>
<!-- Node19&#45;&gt;Node20 -->
<g id="edge40" class="edge"><title>Node19&#45;&gt;Node20</title>
<path fill="none" stroke="midnightblue" d="M908.904,-355.407C967.159,-333.291 1101.74,-282.201 1167.49,-257.241"/>
<polygon fill="midnightblue" stroke="midnightblue" points="1168.94,-260.433 1177.05,-253.612 1166.46,-253.889 1168.94,-260.433"/>
</g>
<!-- Node32 -->
<g id="node73" class="node"><title>Node32</title>
<a xlink:href="_t_data_record_8h.html" target="_top" xlink:title="tree/TDataRecord.h">
<polygon fill="white" stroke="black" points="893.5,-232.5 893.5,-253.5 996.5,-253.5 996.5,-232.5 893.5,-232.5"/>
<text text-anchor="middle" x="945" y="-240.5" font-family="Helvetica,sans-Serif" font-size="10.00">tree/TDataRecord.h</text>
</a>
</g>
<!-- Node19&#45;&gt;Node32 -->
<g id="edge82" class="edge"><title>Node19&#45;&gt;Node32</title>
<path fill="none" stroke="midnightblue" d="M903.556,-355.343C919.773,-346.316 940.406,-331.692 950,-312 957.294,-297.029 955.22,-278.034 951.786,-263.765"/>
<polygon fill="midnightblue" stroke="midnightblue" points="955.096,-262.605 949.028,-253.92 948.356,-264.494 955.096,-262.605"/>
</g>
<!-- Node33 -->
<g id="node79" class="node"><title>Node33</title>
<a xlink:href="_data_base_8h.html" target="_top" xlink:title="DataBase.h">
<polygon fill="white" stroke="black" points="840,-290.5 840,-311.5 908,-311.5 908,-290.5 840,-290.5"/>
<text text-anchor="middle" x="874" y="-298.5" font-family="Helvetica,sans-Serif" font-size="10.00">DataBase.h</text>
</a>
</g>
<!-- Node19&#45;&gt;Node33 -->
<g id="edge92" class="edge"><title>Node19&#45;&gt;Node33</title>
<path fill="none" stroke="midnightblue" d="M879.844,-355.267C878.866,-346.18 877.435,-332.892 876.233,-321.74"/>
<polygon fill="midnightblue" stroke="midnightblue" points="879.685,-321.101 875.134,-311.534 872.725,-321.851 879.685,-321.101"/>
</g>
<!-- Node20&#45;&gt;Node5 -->
<g id="edge74" class="edge"><title>Node20&#45;&gt;Node5</title>
<path fill="none" stroke="midnightblue" d="M1145.94,-233.128C1104.65,-225.327 1048.6,-212.926 1001,-196 945.94,-176.421 930.628,-171.86 883,-138 841.761,-108.682 845.55,-83.7606 802,-58 761.548,-34.0719 707.974,-21.5019 674.762,-15.5646"/>
<polygon fill="midnightblue" stroke="midnightblue" points="675.181,-12.0857 664.736,-13.8639 674.01,-18.9871 675.181,-12.0857"/>
</g>
<!-- Node21 -->
<g id="node42" class="node"><title>Node21</title>
<a xlink:href="_t_i_d_8h.html" target="_top" xlink:title="TID.h">
<polygon fill="white" stroke="black" points="1214.5,-174.5 1214.5,-195.5 1255.5,-195.5 1255.5,-174.5 1214.5,-174.5"/>
<text text-anchor="middle" x="1235" y="-182.5" font-family="Helvetica,sans-Serif" font-size="10.00">TID.h</text>
</a>
</g>
<!-- Node20&#45;&gt;Node21 -->
<g id="edge42" class="edge"><title>Node20&#45;&gt;Node21</title>
<path fill="none" stroke="midnightblue" d="M1210.5,-232.362C1214.52,-224.595 1220.08,-213.843 1224.89,-204.546"/>
<polygon fill="midnightblue" stroke="midnightblue" points="1228.05,-206.061 1229.53,-195.571 1221.83,-202.845 1228.05,-206.061"/>
</g>
<!-- Node26 -->
<g id="node56" class="node"><title>Node26</title>
<polygon fill="white" stroke="#bfbfbf" points="1486.5,-58.5 1486.5,-79.5 1527.5,-79.5 1527.5,-58.5 1486.5,-58.5"/>
<text text-anchor="middle" x="1507" y="-66.5" font-family="Helvetica,sans-Serif" font-size="10.00">ctime</text>
</g>
<!-- Node20&#45;&gt;Node26 -->
<g id="edge76" class="edge"><title>Node20&#45;&gt;Node26</title>
<path fill="none" stroke="midnightblue" d="M1264.13,-237.927C1329.69,-229.046 1433.86,-204.684 1492,-138 1503.43,-124.894 1506.8,-105.128 1507.53,-90.1063"/>
<polygon fill="midnightblue" stroke="midnightblue" points="1511.03,-89.7777 1507.66,-79.7327 1504.03,-89.686 1511.03,-89.7777"/>
</g>
<!-- Node31 -->
<g id="node70" class="node"><title>Node31</title>
<a xlink:href="_git_info_8h.html" target="_top" xlink:title="base/GitInfo.h">
<polygon fill="white" stroke="black" points="1585,-174.5 1585,-195.5 1663,-195.5 1663,-174.5 1585,-174.5"/>
<text text-anchor="middle" x="1624" y="-182.5" font-family="Helvetica,sans-Serif" font-size="10.00">base/GitInfo.h</text>
</a>
</g>
<!-- Node20&#45;&gt;Node31 -->
<g id="edge78" class="edge"><title>Node20&#45;&gt;Node31</title>
<path fill="none" stroke="midnightblue" d="M1264.14,-234.813C1347.37,-223.293 1497.5,-202.51 1574.91,-191.796"/>
<polygon fill="midnightblue" stroke="midnightblue" points="1575.45,-195.253 1584.88,-190.415 1574.49,-188.32 1575.45,-195.253"/>
</g>
<!-- Node21&#45;&gt;Node11 -->
<g id="edge44" class="edge"><title>Node21&#45;&gt;Node11</title>
<path fill="none" stroke="midnightblue" d="M1214.45,-182.797C1133.84,-174.155 838.424,-142.484 732.29,-131.105"/>
<polygon fill="midnightblue" stroke="midnightblue" points="732.358,-127.592 722.041,-130.006 731.611,-134.552 732.358,-127.592"/>
</g>
<!-- Node21&#45;&gt;Node14 -->
<g id="edge68" class="edge"><title>Node21&#45;&gt;Node14</title>
<path fill="none" stroke="midnightblue" d="M1221.79,-174.362C1211.24,-165.859 1196.24,-153.779 1184.04,-143.947"/>
<polygon fill="midnightblue" stroke="midnightblue" points="1186.11,-141.118 1176.12,-137.571 1181.71,-146.57 1186.11,-141.118"/>
</g>
<!-- Node21&#45;&gt;Node15 -->
<g id="edge46" class="edge"><title>Node21&#45;&gt;Node15</title>
<path fill="none" stroke="midnightblue" d="M1214.16,-178.571C1183.89,-169.231 1127.11,-151.714 1088.2,-139.709"/>
<polygon fill="midnightblue" stroke="midnightblue" points="1088.81,-136.237 1078.22,-136.633 1086.75,-142.925 1088.81,-136.237"/>
</g>
<!-- Node22 -->
<g id="node46" class="node"><title>Node22</title>
<a xlink:href="time_8h.html" target="_top" xlink:title="base/std_ext/time.h">
<polygon fill="white" stroke="black" points="1553.5,-116.5 1553.5,-137.5 1656.5,-137.5 1656.5,-116.5 1553.5,-116.5"/>
<text text-anchor="middle" x="1605" y="-124.5" font-family="Helvetica,sans-Serif" font-size="10.00">base/std_ext/time.h</text>
</a>
</g>
<!-- Node21&#45;&gt;Node22 -->
<g id="edge48" class="edge"><title>Node21&#45;&gt;Node22</title>
<path fill="none" stroke="midnightblue" d="M1255.69,-181.757C1310.01,-173.241 1458.4,-149.98 1543.27,-136.676"/>
<polygon fill="midnightblue" stroke="midnightblue" points="1543.96,-140.112 1553.3,-135.105 1542.87,-133.196 1543.96,-140.112"/>
</g>
<!-- Node21&#45;&gt;Node26 -->
<g id="edge72" class="edge"><title>Node21&#45;&gt;Node26</title>
<path fill="none" stroke="midnightblue" d="M1255.82,-183.064C1306.56,-178 1434.92,-162.996 1469,-138 1485.22,-126.106 1495.34,-105.107 1501.02,-89.3885"/>
<polygon fill="midnightblue" stroke="midnightblue" points="1504.47,-90.1203 1504.27,-79.5274 1497.82,-87.9335 1504.47,-90.1203"/>
</g>
<!-- Node27 -->
<g id="node58" class="node"><title>Node27</title>
<polygon fill="white" stroke="#bfbfbf" points="1342,-116.5 1342,-137.5 1404,-137.5 1404,-116.5 1342,-116.5"/>
<text text-anchor="middle" x="1373" y="-124.5" font-family="Helvetica,sans-Serif" font-size="10.00">type_traits</text>
</g>
<!-- Node21&#45;&gt;Node27 -->
<g id="edge62" class="edge"><title>Node21&#45;&gt;Node27</title>
<path fill="none" stroke="midnightblue" d="M1255.66,-176.317C1277.53,-167.126 1312.42,-152.463 1338.47,-141.511"/>
<polygon fill="midnightblue" stroke="midnightblue" points="1340.12,-144.615 1347.98,-137.514 1337.41,-138.162 1340.12,-144.615"/>
</g>
<!-- Node28 -->
<g id="node60" class="node"><title>Node28</title>
<polygon fill="white" stroke="#bfbfbf" points="1422,-116.5 1422,-137.5 1460,-137.5 1460,-116.5 1422,-116.5"/>
<text text-anchor="middle" x="1441" y="-124.5" font-family="Helvetica,sans-Serif" font-size="10.00">tuple</text>
</g>
<!-- Node21&#45;&gt;Node28 -->
<g id="edge64" class="edge"><title>Node21&#45;&gt;Node28</title>
<path fill="none" stroke="midnightblue" d="M1255.51,-180.403C1287.24,-173.119 1350.25,-157.966 1412.29,-137.986"/>
<polygon fill="midnightblue" stroke="midnightblue" points="1413.41,-141.302 1421.83,-134.871 1411.23,-134.647 1413.41,-141.302"/>
</g>
<!-- Node29 -->
<g id="node62" class="node"><title>Node29</title>
<polygon fill="white" stroke="#bfbfbf" points="1278,-116.5 1278,-137.5 1324,-137.5 1324,-116.5 1278,-116.5"/>
<text text-anchor="middle" x="1301" y="-124.5" font-family="Helvetica,sans-Serif" font-size="10.00">cstdint</text>
</g>
<!-- Node21&#45;&gt;Node29 -->
<g id="edge66" class="edge"><title>Node21&#45;&gt;Node29</title>
<path fill="none" stroke="midnightblue" d="M1247.11,-174.362C1256.69,-165.941 1270.26,-154.011 1281.39,-144.231"/>
<polygon fill="midnightblue" stroke="midnightblue" points="1283.77,-146.801 1288.97,-137.571 1279.15,-141.543 1283.77,-146.801"/>
</g>
<!-- Node30 -->
<g id="node65" class="node"><title>Node30</title>
<polygon fill="white" stroke="#bfbfbf" points="1210,-116.5 1210,-137.5 1260,-137.5 1260,-116.5 1210,-116.5"/>
<text text-anchor="middle" x="1235" y="-124.5" font-family="Helvetica,sans-Serif" font-size="10.00">iomanip</text>
</g>
<!-- Node21&#45;&gt;Node30 -->
<g id="edge70" class="edge"><title>Node21&#45;&gt;Node30</title>
<path fill="none" stroke="midnightblue" d="M1235,-174.362C1235,-166.922 1235,-156.743 1235,-147.728"/>
<polygon fill="midnightblue" stroke="midnightblue" points="1238.5,-147.571 1235,-137.571 1231.5,-147.571 1238.5,-147.571"/>
</g>
<!-- Node22&#45;&gt;Node23 -->
<g id="edge50" class="edge"><title>Node22&#45;&gt;Node23</title>
<path fill="none" stroke="midnightblue" d="M1627.64,-116.497C1647.25,-107.397 1675.85,-94.1273 1697.83,-83.9253"/>
<polygon fill="midnightblue" stroke="midnightblue" points="1699.51,-87.0051 1707.11,-79.6212 1696.57,-80.6554 1699.51,-87.0051"/>
</g>
<!-- Node25 -->
<g id="node54" class="node"><title>Node25</title>
<polygon fill="white" stroke="#bfbfbf" points="1574,-58.5 1574,-79.5 1620,-79.5 1620,-58.5 1574,-58.5"/>
<text text-anchor="middle" x="1597" y="-66.5" font-family="Helvetica,sans-Serif" font-size="10.00">cstring</text>
</g>
<!-- Node22&#45;&gt;Node25 -->
<g id="edge58" class="edge"><title>Node22&#45;&gt;Node25</title>
<path fill="none" stroke="midnightblue" d="M1603.53,-116.362C1602.51,-108.922 1601.1,-98.7427 1599.86,-89.7276"/>
<polygon fill="midnightblue" stroke="midnightblue" points="1603.29,-88.9986 1598.46,-79.5707 1596.36,-89.9551 1603.29,-88.9986"/>
</g>
<!-- Node22&#45;&gt;Node26 -->
<g id="edge60" class="edge"><title>Node22&#45;&gt;Node26</title>
<path fill="none" stroke="midnightblue" d="M1587.03,-116.362C1572.11,-107.532 1550.67,-94.844 1533.73,-84.8224"/>
<polygon fill="midnightblue" stroke="midnightblue" points="1535.25,-81.6519 1524.86,-79.5707 1531.68,-87.6759 1535.25,-81.6519"/>
</g>
<!-- Node23&#45;&gt;Node5 -->
<g id="edge52" class="edge"><title>Node23&#45;&gt;Node5</title>
<path fill="none" stroke="midnightblue" d="M1675.88,-59.6742C1671.2,-59.0401 1666.52,-58.4684 1662,-58 1273.8,-17.7727 798.742,-11.9744 674.757,-11.14"/>
<polygon fill="midnightblue" stroke="midnightblue" points="674.524,-7.63858 664.502,-11.0772 674.481,-14.6384 674.524,-7.63858"/>
</g>
<!-- Node23&#45;&gt;Node13 -->
<g id="edge56" class="edge"><title>Node23&#45;&gt;Node13</title>
<path fill="none" stroke="midnightblue" d="M1675.62,-59.9375C1604.61,-48.1011 1482.06,-27.6763 1420.15,-17.3584"/>
<polygon fill="midnightblue" stroke="midnightblue" points="1420.48,-13.8645 1410.04,-15.6728 1419.33,-20.7692 1420.48,-13.8645"/>
</g>
<!-- Node24 -->
<g id="node51" class="node"><title>Node24</title>
<polygon fill="white" stroke="#bfbfbf" points="1704,-0.5 1704,-21.5 1756,-21.5 1756,-0.5 1704,-0.5"/>
<text text-anchor="middle" x="1730" y="-8.5" font-family="Helvetica,sans-Serif" font-size="10.00">sstream</text>
</g>
<!-- Node23&#45;&gt;Node24 -->
<g id="edge54" class="edge"><title>Node23&#45;&gt;Node24</title>
<path fill="none" stroke="midnightblue" d="M1730,-58.3619C1730,-50.9219 1730,-40.7427 1730,-31.7276"/>
<polygon fill="midnightblue" stroke="midnightblue" points="1733.5,-31.5706 1730,-21.5707 1726.5,-31.5707 1733.5,-31.5706"/>
</g>
<!-- Node31&#45;&gt;Node5 -->
<g id="edge80" class="edge"><title>Node31&#45;&gt;Node5</title>
<path fill="none" stroke="midnightblue" d="M1637.53,-174.267C1647.24,-165.646 1659.53,-152.6 1665,-138 1678.69,-101.491 1662.61,-77.7607 1629,-58 1586.94,-33.2699 838.412,-15.3078 675.24,-11.6758"/>
<polygon fill="midnightblue" stroke="midnightblue" points="675.01,-8.16992 664.935,-11.4482 674.855,-15.1682 675.01,-8.16992"/>
</g>
<!-- Node32&#45;&gt;Node11 -->
<g id="edge86" class="edge"><title>Node32&#45;&gt;Node11</title>
<path fill="none" stroke="midnightblue" d="M909.556,-232.495C882.338,-223.948 844.101,-210.894 812,-196 778.362,-180.393 741.825,-158.131 718.461,-143.154"/>
<polygon fill="midnightblue" stroke="midnightblue" points="720.187,-140.102 709.89,-137.607 716.384,-145.978 720.187,-140.102"/>
</g>
<!-- Node32&#45;&gt;Node21 -->
<g id="edge84" class="edge"><title>Node32&#45;&gt;Node21</title>
<path fill="none" stroke="midnightblue" d="M996.512,-232.698C1056.86,-220.627 1154.88,-201.024 1204.36,-191.129"/>
<polygon fill="midnightblue" stroke="midnightblue" points="1205.31,-194.507 1214.43,-189.114 1203.94,-187.643 1205.31,-194.507"/>
</g>
<!-- Node32&#45;&gt;Node26 -->
<g id="edge90" class="edge"><title>Node32&#45;&gt;Node26</title>
<path fill="none" stroke="midnightblue" d="M932.209,-232.24C905.678,-208.683 849.797,-151.798 883,-116 903.394,-94.0123 1352.95,-74.9847 1476.07,-70.1722"/>
<polygon fill="midnightblue" stroke="midnightblue" points="1476.44,-73.6603 1486.3,-69.7756 1476.17,-66.6655 1476.44,-73.6603"/>
</g>
<!-- Node32&#45;&gt;Node30 -->
<g id="edge88" class="edge"><title>Node32&#45;&gt;Node30</title>
<path fill="none" stroke="midnightblue" d="M986.525,-232.43C1017.91,-223.939 1061.79,-210.985 1099,-196 1137.89,-180.34 1180.69,-157.656 1207.7,-142.628"/>
<polygon fill="midnightblue" stroke="midnightblue" points="1209.55,-145.602 1216.56,-137.656 1206.12,-139.497 1209.55,-145.602"/>
</g>
<!-- Node33&#45;&gt;Node6 -->
<g id="edge98" class="edge"><title>Node33&#45;&gt;Node6</title>
<path fill="none" stroke="midnightblue" d="M839.855,-291.292C798.768,-279.61 730.796,-260.285 694.549,-249.98"/>
<polygon fill="midnightblue" stroke="midnightblue" points="695.374,-246.576 684.798,-247.207 693.46,-253.309 695.374,-246.576"/>
</g>
<!-- Node33&#45;&gt;Node7 -->
<g id="edge96" class="edge"><title>Node33&#45;&gt;Node7</title>
<path fill="none" stroke="midnightblue" d="M850.64,-290.362C834.773,-282.21 814.175,-269.703 800,-254 754.052,-203.098 769.85,-172.506 731,-116 723.973,-105.779 714.849,-95.4925 706.815,-87.1599"/>
<polygon fill="midnightblue" stroke="midnightblue" points="709.078,-84.4707 699.551,-79.8355 704.108,-89.4002 709.078,-84.4707"/>
</g>
<!-- Node33&#45;&gt;Node8 -->
<g id="edge94" class="edge"><title>Node33&#45;&gt;Node8</title>
<path fill="none" stroke="midnightblue" d="M839.722,-294.957C774.203,-283.407 632.394,-258.407 572.541,-247.855"/>
<polygon fill="midnightblue" stroke="midnightblue" points="573.136,-244.406 562.68,-246.117 571.921,-251.3 573.136,-244.406"/>
</g>
<!-- Node33&#45;&gt;Node20 -->
<g id="edge102" class="edge"><title>Node33&#45;&gt;Node20</title>
<path fill="none" stroke="midnightblue" d="M908.176,-295.011C961.625,-285.646 1066.07,-267.344 1135.71,-255.142"/>
<polygon fill="midnightblue" stroke="midnightblue" points="1136.48,-258.561 1145.72,-253.387 1135.27,-251.666 1136.48,-258.561"/>
</g>
<!-- Node33&#45;&gt;Node32 -->
<g id="edge100" class="edge"><title>Node33&#45;&gt;Node32</title>
<path fill="none" stroke="midnightblue" d="M887.022,-290.362C897.431,-281.859 912.219,-269.779 924.255,-259.947"/>
<polygon fill="midnightblue" stroke="midnightblue" points="926.53,-262.608 932.06,-253.571 922.101,-257.187 926.53,-262.608"/>
</g>
<!-- Node34&#45;&gt;Node5 -->
<g id="edge120" class="edge"><title>Node34&#45;&gt;Node5</title>
<path fill="none" stroke="midnightblue" d="M208.551,-290.389C221.837,-270.648 248,-226.503 248,-185 248,-185 248,-185 248,-127 248,-94.5312 246.771,-78.4381 272,-58 298.379,-36.6302 528.779,-18.8791 613.184,-13.0389"/>
<polygon fill="midnightblue" stroke="midnightblue" points="613.673,-16.5137 623.412,-12.3403 613.196,-9.52995 613.673,-16.5137"/>
</g>
<!-- Node34&#45;&gt;Node6 -->
<g id="edge122" class="edge"><title>Node34&#45;&gt;Node6</title>
<path fill="none" stroke="midnightblue" d="M230.338,-297.372C316.143,-286.761 565.587,-255.912 645.242,-246.062"/>
<polygon fill="midnightblue" stroke="midnightblue" points="645.825,-249.516 655.32,-244.815 644.966,-242.569 645.825,-249.516"/>
</g>
<!-- Node35 -->
<g id="node97" class="node"><title>Node35</title>
<polygon fill="white" stroke="#bfbfbf" points="149.5,-232.5 149.5,-253.5 220.5,-253.5 220.5,-232.5 149.5,-232.5"/>
<text text-anchor="middle" x="185" y="-240.5" font-family="Helvetica,sans-Serif" font-size="10.00">TGListBox.h</text>
</g>
<!-- Node34&#45;&gt;Node35 -->
<g id="edge124" class="edge"><title>Node34&#45;&gt;Node35</title>
<path fill="none" stroke="midnightblue" d="M198.065,-290.362C195.99,-282.84 193.143,-272.519 190.636,-263.431"/>
<polygon fill="midnightblue" stroke="midnightblue" points="193.949,-262.28 187.916,-253.571 187.201,-264.141 193.949,-262.28"/>
</g>
<!-- Node36 -->
<g id="node99" class="node"><title>Node36</title>
<polygon fill="white" stroke="#bfbfbf" points="0,-232.5 0,-253.5 62,-253.5 62,-232.5 0,-232.5"/>
<text text-anchor="middle" x="31" y="-240.5" font-family="Helvetica,sans-Serif" font-size="10.00">TGLabel.h</text>
</g>
<!-- Node34&#45;&gt;Node36 -->
<g id="edge126" class="edge"><title>Node34&#45;&gt;Node36</title>
<path fill="none" stroke="midnightblue" d="M171.776,-291.029C144.107,-281.59 102.321,-267.333 71.4566,-256.803"/>
<polygon fill="midnightblue" stroke="midnightblue" points="72.4457,-253.442 61.8512,-253.526 70.1853,-260.067 72.4457,-253.442"/>
</g>
<!-- Node37 -->
<g id="node101" class="node"><title>Node37</title>
<polygon fill="white" stroke="#bfbfbf" points="79.5,-232.5 79.5,-253.5 132.5,-253.5 132.5,-232.5 79.5,-232.5"/>
<text text-anchor="middle" x="106" y="-240.5" font-family="Helvetica,sans-Serif" font-size="10.00">TExec.h</text>
</g>
<!-- Node34&#45;&gt;Node37 -->
<g id="edge128" class="edge"><title>Node34&#45;&gt;Node37</title>
<path fill="none" stroke="midnightblue" d="M183.576,-290.362C169.113,-281.532 148.331,-268.844 131.916,-258.822"/>
<polygon fill="midnightblue" stroke="midnightblue" points="133.673,-255.794 123.314,-253.571 130.025,-261.769 133.673,-255.794"/>
</g>
</g>
</svg>
