<?xml version="1.0" encoding="UTF-8" standalone="no"?>
<!DOCTYPE svg PUBLIC "-//W3C//DTD SVG 1.1//EN"
 "http://www.w3.org/Graphics/SVG/1.1/DTD/svg11.dtd">
<!-- Generated by graphviz version 2.26.3 (20100126.1600)
 -->
<!-- Title: src/calibration/gui/ACECanvas.h Pages: 1 -->
<svg width="240pt" height="116pt"
 viewBox="0.00 0.00 240.00 116.00" xmlns="http://www.w3.org/2000/svg" xmlns:xlink="http://www.w3.org/1999/xlink">
<g id="graph1" class="graph" transform="scale(1 1) rotate(0) translate(4 112)">
<title>src/calibration/gui/ACECanvas.h</title>
<polygon fill="white" stroke="white" points="-4,5 -4,-112 237,-112 237,5 -4,5"/>
<!-- Node1 -->
<g id="node1" class="node"><title>Node1</title>
<polygon fill="#bfbfbf" stroke="black" points="76.5,-73 76.5,-107 169.5,-107 169.5,-73 76.5,-73"/>
<text text-anchor="start" x="84.5" y="-94" font-family="Helvetica,sans-Serif" font-size="10.00">src/calibration/gui</text>
<text text-anchor="middle" x="123" y="-81" font-family="Helvetica,sans-Serif" font-size="10.00">/ACECanvas.h</text>
</g>
<!-- Node2 -->
<g id="node3" class="node"><title>Node2</title>
<a xlink:href="_ant-calib-editor_8cc.html" target="_top" xlink:title="progs/Ant&#45;calib&#45;editor.cc">
<polygon fill="white" stroke="black" points="0,-7.5 0,-28.5 122,-28.5 122,-7.5 0,-7.5"/>
<text text-anchor="middle" x="61" y="-15.5" font-family="Helvetica,sans-Serif" font-size="10.00">progs/Ant&#45;calib&#45;editor.cc</text>
</a>
</g>
<!-- Node1&#45;&gt;Node2 -->
<g id="edge2" class="edge"><title>Node1&#45;&gt;Node2</title>
<path fill="none" stroke="midnightblue" d="M101.613,-65.1634C90.9668,-52.8001 78.6419,-38.4874 70.387,-28.901"/>
<polygon fill="midnightblue" stroke="midnightblue" points="99.1294,-67.6431 108.307,-72.937 104.434,-63.0755 99.1294,-67.6431"/>
</g>
<!-- Node3 -->
<g id="node5" class="node"><title>Node3</title>
<a xlink:href="_a_c_e_canvas_8cc.html" target="_top" xlink:title="src/calibration/gui\l/ACECanvas.cc">
<polygon fill="white" stroke="black" points="139.5,-1 139.5,-35 232.5,-35 232.5,-1 139.5,-1"/>
<text text-anchor="start" x="147.5" y="-22" font-family="Helvetica,sans-Serif" font-size="10.00">src/calibration/gui</text>
<text text-anchor="middle" x="186" y="-9" font-family="Helvetica,sans-Serif" font-size="10.00">/ACECanvas.cc</text>
</a>
</g>
<!-- Node1&#45;&gt;Node3 -->
<g id="edge4" class="edge"><title>Node1&#45;&gt;Node3</title>
<path fill="none" stroke="midnightblue" d="M144.544,-65.3785C153.157,-55.5349 162.877,-44.4262 170.739,-35.4407"/>
<polygon fill="midnightblue" stroke="midnightblue" points="141.881,-63.1064 137.93,-72.937 147.149,-67.716 141.881,-63.1064"/>
</g>
</g>
</svg>
