<?xml version="1.0" encoding="UTF-8" standalone="no"?>
<!DOCTYPE svg PUBLIC "-//W3C//DTD SVG 1.1//EN"
 "http://www.w3.org/Graphics/SVG/1.1/DTD/svg11.dtd">
<!-- Generated by graphviz version 2.26.3 (20100126.1600)
 -->
<!-- Title: src/calibration/gui/ACECanvas.h Pages: 1 -->
<svg width="1740pt" height="522pt"
 viewBox="0.00 0.00 1740.00 522.00" xmlns="http://www.w3.org/2000/svg" xmlns:xlink="http://www.w3.org/1999/xlink">
<g id="graph1" class="graph" transform="scale(1 1) rotate(0) translate(4 518)">
<title>src/calibration/gui/ACECanvas.h</title>
<polygon fill="white" stroke="white" points="-4,5 -4,-518 1737,-518 1737,5 -4,5"/>
<!-- Node1 -->
<g id="node1" class="node"><title>Node1</title>
<polygon fill="#bfbfbf" stroke="black" points="1360.5,-479 1360.5,-513 1453.5,-513 1453.5,-479 1360.5,-479"/>
<text text-anchor="start" x="1368.5" y="-500" font-family="Helvetica,sans-Serif" font-size="10.00">src/calibration/gui</text>
<text text-anchor="middle" x="1407" y="-487" font-family="Helvetica,sans-Serif" font-size="10.00">/ACECanvas.h</text>
</g>
<!-- Node2 -->
<g id="node3" class="node"><title>Node2</title>
<a xlink:href="_editor_8h.html" target="_top" xlink:title="calibration/Editor.h">
<polygon fill="white" stroke="black" points="1035,-420.5 1035,-441.5 1133,-441.5 1133,-420.5 1035,-420.5"/>
<text text-anchor="middle" x="1084" y="-428.5" font-family="Helvetica,sans-Serif" font-size="10.00">calibration/Editor.h</text>
</a>
</g>
<!-- Node1&#45;&gt;Node2 -->
<g id="edge2" class="edge"><title>Node1&#45;&gt;Node2</title>
<path fill="none" stroke="midnightblue" d="M1360.38,-486.618C1303.12,-475.095 1205.91,-455.533 1143.37,-442.947"/>
<polygon fill="midnightblue" stroke="midnightblue" points="1143.75,-439.454 1133.26,-440.912 1142.37,-446.316 1143.75,-439.454"/>
</g>
<!-- Node3 -->
<g id="node5" class="node"><title>Node3</title>
<a xlink:href="root__draw_8h.html" target="_top" xlink:title="analysis/plot/root\l_draw.h">
<polygon fill="white" stroke="black" points="1228.5,-349 1228.5,-383 1319.5,-383 1319.5,-349 1228.5,-349"/>
<text text-anchor="start" x="1236.5" y="-370" font-family="Helvetica,sans-Serif" font-size="10.00">analysis/plot/root</text>
<text text-anchor="middle" x="1274" y="-357" font-family="Helvetica,sans-Serif" font-size="10.00">_draw.h</text>
</a>
</g>
<!-- Node1&#45;&gt;Node3 -->
<g id="edge138" class="edge"><title>Node1&#45;&gt;Node3</title>
<path fill="none" stroke="midnightblue" d="M1389.34,-478.737C1366.19,-456.107 1325.43,-416.271 1299.08,-390.519"/>
<polygon fill="midnightblue" stroke="midnightblue" points="1301.33,-387.821 1291.73,-383.334 1296.44,-392.827 1301.33,-387.821"/>
</g>
<!-- Node4 -->
<g id="node7" class="node"><title>Node4</title>
<polygon fill="white" stroke="#bfbfbf" points="350.5,-0.5 350.5,-21.5 391.5,-21.5 391.5,-0.5 350.5,-0.5"/>
<text text-anchor="middle" x="371" y="-8.5" font-family="Helvetica,sans-Serif" font-size="10.00">string</text>
</g>
<!-- Node1&#45;&gt;Node4 -->
<g id="edge128" class="edge"><title>Node1&#45;&gt;Node4</title>
<path fill="none" stroke="midnightblue" d="M1360.01,-495.406C1218.7,-493.19 785.426,-483.26 429,-442 236.649,-419.733 0,-559.636 0,-366 0,-366 0,-366 0,-127 0,-55.9097 251.283,-23.2643 340.242,-13.9347"/>
<polygon fill="midnightblue" stroke="midnightblue" points="340.666,-17.4097 350.258,-12.9115 339.955,-10.446 340.666,-17.4097"/>
</g>
<!-- Node7 -->
<g id="node13" class="node"><title>Node7</title>
<polygon fill="white" stroke="#bfbfbf" points="1377.5,-232.5 1377.5,-253.5 1412.5,-253.5 1412.5,-232.5 1377.5,-232.5"/>
<text text-anchor="middle" x="1395" y="-240.5" font-family="Helvetica,sans-Serif" font-size="10.00">map</text>
</g>
<!-- Node1&#45;&gt;Node7 -->
<g id="edge130" class="edge"><title>Node1&#45;&gt;Node7</title>
<path fill="none" stroke="midnightblue" d="M1416.51,-478.973C1435.41,-442.739 1473.51,-355.925 1445,-290 1439.88,-278.16 1430.15,-267.927 1420.62,-260.06"/>
<polygon fill="midnightblue" stroke="midnightblue" points="1422.48,-257.081 1412.42,-253.775 1418.22,-262.637 1422.48,-257.081"/>
</g>
<!-- Node9 -->
<g id="node17" class="node"><title>Node9</title>
<polygon fill="white" stroke="#bfbfbf" points="1377.5,-290.5 1377.5,-311.5 1436.5,-311.5 1436.5,-290.5 1377.5,-290.5"/>
<text text-anchor="middle" x="1407" y="-298.5" font-family="Helvetica,sans-Serif" font-size="10.00">functional</text>
</g>
<!-- Node1&#45;&gt;Node9 -->
<g id="edge134" class="edge"><title>Node1&#45;&gt;Node9</title>
<path fill="none" stroke="midnightblue" d="M1407,-478.695C1407,-442.894 1407,-360.808 1407,-322.028"/>
<polygon fill="midnightblue" stroke="midnightblue" points="1410.5,-321.895 1407,-311.895 1403.5,-321.895 1410.5,-321.895"/>
</g>
<!-- Node10 -->
<g id="node19" class="node"><title>Node10</title>
<polygon fill="white" stroke="#bfbfbf" points="958,-116.5 958,-137.5 1014,-137.5 1014,-116.5 958,-116.5"/>
<text text-anchor="middle" x="986" y="-124.5" font-family="Helvetica,sans-Serif" font-size="10.00">Rtypes.h</text>
</g>
<!-- Node1&#45;&gt;Node10 -->
<g id="edge136" class="edge"><title>Node1&#45;&gt;Node10</title>
<path fill="none" stroke="midnightblue" d="M1371.94,-478.958C1332.81,-459.069 1268.61,-423.789 1220,-384 1125.42,-306.587 1034.02,-190.792 999.976,-145.81"/>
<polygon fill="midnightblue" stroke="midnightblue" points="1002.58,-143.449 993.773,-137.558 996.983,-147.654 1002.58,-143.449"/>
</g>
<!-- Node11 -->
<g id="node21" class="node"><title>Node11</title>
<a xlink:href="interval_8h.html" target="_top" xlink:title="base/interval.h">
<polygon fill="white" stroke="black" points="1302,-174.5 1302,-195.5 1382,-195.5 1382,-174.5 1302,-174.5"/>
<text text-anchor="middle" x="1342" y="-182.5" font-family="Helvetica,sans-Serif" font-size="10.00">base/interval.h</text>
</a>
</g>
<!-- Node1&#45;&gt;Node11 -->
<g id="edge114" class="edge"><title>Node1&#45;&gt;Node11</title>
<path fill="none" stroke="midnightblue" d="M1430.97,-478.725C1459.12,-456.237 1502,-414.08 1502,-366 1502,-366 1502,-366 1502,-301 1502,-245.906 1439.05,-214.287 1392.12,-198.371"/>
<polygon fill="midnightblue" stroke="midnightblue" points="1392.97,-194.967 1382.37,-195.211 1390.81,-201.626 1392.97,-194.967"/>
</g>
<!-- Node33 -->
<g id="node91" class="node"><title>Node33</title>
<a xlink:href="_dialogs_8h.html" target="_top" xlink:title="Dialogs.h">
<polygon fill="white" stroke="black" points="181,-290.5 181,-311.5 239,-311.5 239,-290.5 181,-290.5"/>
<text text-anchor="middle" x="210" y="-298.5" font-family="Helvetica,sans-Serif" font-size="10.00">Dialogs.h</text>
</a>
</g>
<!-- Node1&#45;&gt;Node33 -->
<g id="edge116" class="edge"><title>Node1&#45;&gt;Node33</title>
<path fill="none" stroke="midnightblue" d="M1360.25,-495.178C1175.13,-491.332 494.207,-471.403 300,-384 268.089,-369.639 239.999,-339.421 224.014,-319.681"/>
<polygon fill="midnightblue" stroke="midnightblue" points="226.669,-317.395 217.74,-311.692 221.163,-321.718 226.669,-317.395"/>
</g>
<!-- Node37 -->
<g id="node103" class="node"><title>Node37</title>
<polygon fill="white" stroke="#bfbfbf" points="1530,-420.5 1530,-441.5 1560,-441.5 1560,-420.5 1530,-420.5"/>
<text text-anchor="middle" x="1545" y="-428.5" font-family="Helvetica,sans-Serif" font-size="10.00">set</text>
</g>
<!-- Node1&#45;&gt;Node37 -->
<g id="edge132" class="edge"><title>Node1&#45;&gt;Node37</title>
<path fill="none" stroke="midnightblue" d="M1443.26,-478.922C1467.77,-467.375 1499.47,-452.447 1520.92,-442.343"/>
<polygon fill="midnightblue" stroke="midnightblue" points="1522.43,-445.498 1529.99,-438.07 1519.45,-439.165 1522.43,-445.498"/>
</g>
<!-- Node38 -->
<g id="node108" class="node"><title>Node38</title>
<polygon fill="white" stroke="#bfbfbf" points="1577.5,-420.5 1577.5,-441.5 1642.5,-441.5 1642.5,-420.5 1577.5,-420.5"/>
<text text-anchor="middle" x="1610" y="-428.5" font-family="Helvetica,sans-Serif" font-size="10.00">TCanvas.h</text>
</g>
<!-- Node1&#45;&gt;Node38 -->
<g id="edge140" class="edge"><title>Node1&#45;&gt;Node38</title>
<path fill="none" stroke="midnightblue" d="M1453.57,-481.088C1487.84,-470.116 1534.05,-455.318 1567.35,-444.655"/>
<polygon fill="midnightblue" stroke="midnightblue" points="1568.79,-447.87 1577.25,-441.488 1566.66,-441.204 1568.79,-447.87"/>
</g>
<!-- Node39 -->
<g id="node110" class="node"><title>Node39</title>
<polygon fill="white" stroke="#bfbfbf" points="1659.5,-420.5 1659.5,-441.5 1732.5,-441.5 1732.5,-420.5 1659.5,-420.5"/>
<text text-anchor="middle" x="1696" y="-428.5" font-family="Helvetica,sans-Serif" font-size="10.00">TPaveText.h</text>
</g>
<!-- Node1&#45;&gt;Node39 -->
<g id="edge142" class="edge"><title>Node1&#45;&gt;Node39</title>
<path fill="none" stroke="midnightblue" d="M1453.85,-485.952C1500.91,-475.786 1575.77,-459.421 1649.29,-442.371"/>
<polygon fill="midnightblue" stroke="midnightblue" points="1650.23,-445.745 1659.18,-440.07 1648.65,-438.926 1650.23,-445.745"/>
</g>
<!-- Node2&#45;&gt;Node3 -->
<g id="edge4" class="edge"><title>Node2&#45;&gt;Node3</title>
<path fill="none" stroke="midnightblue" d="M1114.95,-420.412C1142.9,-410.851 1184.68,-396.555 1218.41,-385.016"/>
<polygon fill="midnightblue" stroke="midnightblue" points="1219.82,-388.235 1228.15,-381.687 1217.55,-381.612 1219.82,-388.235"/>
</g>
<!-- Node2&#45;&gt;Node4 -->
<g id="edge110" class="edge"><title>Node2&#45;&gt;Node4</title>
<path fill="none" stroke="midnightblue" d="M1034.96,-427.931C865.351,-416.671 314,-374.421 314,-301 314,-301 314,-301 314,-127 314,-89.5289 338.254,-51.5841 355.12,-29.7281"/>
<polygon fill="midnightblue" stroke="midnightblue" points="358.067,-31.6467 361.588,-21.6538 352.604,-27.2705 358.067,-31.6467"/>
</g>
<!-- Node6 -->
<g id="node11" class="node"><title>Node6</title>
<polygon fill="white" stroke="#bfbfbf" points="1155,-58.5 1155,-79.5 1199,-79.5 1199,-58.5 1155,-58.5"/>
<text text-anchor="middle" x="1177" y="-66.5" font-family="Helvetica,sans-Serif" font-size="10.00">vector</text>
</g>
<!-- Node2&#45;&gt;Node6 -->
<g id="edge112" class="edge"><title>Node2&#45;&gt;Node6</title>
<path fill="none" stroke="midnightblue" d="M1089.56,-420.382C1113.09,-375.231 1203.86,-198.743 1217,-138 1219.07,-128.443 1220.38,-125.176 1217,-116 1213,-105.14 1205.26,-95.0779 1197.64,-87.0736"/>
<polygon fill="midnightblue" stroke="midnightblue" points="1199.81,-84.2934 1190.21,-79.8019 1194.91,-89.297 1199.81,-84.2934"/>
</g>
<!-- Node8 -->
<g id="node15" class="node"><title>Node8</title>
<polygon fill="white" stroke="#bfbfbf" points="1004,-290.5 1004,-311.5 1056,-311.5 1056,-290.5 1004,-290.5"/>
<text text-anchor="middle" x="1030" y="-298.5" font-family="Helvetica,sans-Serif" font-size="10.00">memory</text>
</g>
<!-- Node2&#45;&gt;Node8 -->
<g id="edge108" class="edge"><title>Node2&#45;&gt;Node8</title>
<path fill="none" stroke="midnightblue" d="M1079.58,-420.362C1070.6,-398.746 1050.09,-349.372 1038.46,-321.369"/>
<polygon fill="midnightblue" stroke="midnightblue" points="1041.55,-319.678 1034.48,-311.785 1035.08,-322.363 1041.55,-319.678"/>
</g>
<!-- Node2&#45;&gt;Node11 -->
<g id="edge20" class="edge"><title>Node2&#45;&gt;Node11</title>
<path fill="none" stroke="midnightblue" d="M1095.09,-420.43C1135.28,-382.107 1273.6,-250.216 1323.7,-202.448"/>
<polygon fill="midnightblue" stroke="midnightblue" points="1326.13,-204.965 1330.96,-195.531 1321.3,-199.899 1326.13,-204.965"/>
</g>
<!-- Node18 -->
<g id="node36" class="node"><title>Node18</title>
<a xlink:href="_data_manager_8h.html" target="_top" xlink:title="DataManager.h">
<polygon fill="white" stroke="black" points="826.5,-355.5 826.5,-376.5 909.5,-376.5 909.5,-355.5 826.5,-355.5"/>
<text text-anchor="middle" x="868" y="-363.5" font-family="Helvetica,sans-Serif" font-size="10.00">DataManager.h</text>
</a>
</g>
<!-- Node2&#45;&gt;Node18 -->
<g id="edge36" class="edge"><title>Node2&#45;&gt;Node18</title>
<path fill="none" stroke="midnightblue" d="M1048.82,-420.412C1011.71,-409.246 953.135,-391.619 912.763,-379.47"/>
<polygon fill="midnightblue" stroke="midnightblue" points="913.754,-376.114 903.17,-376.584 911.737,-382.817 913.754,-376.114"/>
</g>
<!-- Node3&#45;&gt;Node4 -->
<g id="edge6" class="edge"><title>Node3&#45;&gt;Node4</title>
<path fill="none" stroke="midnightblue" d="M1274,-348.888C1274,-325.127 1274,-280.797 1274,-243 1274,-243 1274,-243 1274,-127 1274,-84.5631 1246.54,-75.7622 1208,-58 1189.32,-49.3919 550.782,-19.329 401.838,-12.4221"/>
<polygon fill="midnightblue" stroke="midnightblue" points="401.744,-8.91413 391.593,-11.9478 401.421,-15.9066 401.744,-8.91413"/>
</g>
<!-- Node5 -->
<g id="node9" class="node"><title>Node5</title>
<polygon fill="white" stroke="#bfbfbf" points="696.5,-232.5 696.5,-253.5 725.5,-253.5 725.5,-232.5 696.5,-232.5"/>
<text text-anchor="middle" x="711" y="-240.5" font-family="Helvetica,sans-Serif" font-size="10.00">list</text>
</g>
<!-- Node3&#45;&gt;Node5 -->
<g id="edge8" class="edge"><title>Node3&#45;&gt;Node5</title>
<path fill="none" stroke="midnightblue" d="M1235.56,-348.843C1194.27,-331.171 1126.3,-304.259 1065,-290 924.107,-257.226 878.38,-292.827 735.793,-253.784"/>
<polygon fill="midnightblue" stroke="midnightblue" points="736.383,-250.314 725.808,-250.973 734.486,-257.052 736.383,-250.314"/>
</g>
<!-- Node3&#45;&gt;Node6 -->
<g id="edge10" class="edge"><title>Node3&#45;&gt;Node6</title>
<path fill="none" stroke="midnightblue" d="M1285.75,-348.779C1296.27,-333.364 1312.14,-310.153 1326,-290 1354.79,-248.151 1366.06,-240.25 1391,-196 1404.87,-171.39 1411.09,-165.625 1417,-138 1419.05,-128.438 1423.21,-123.549 1417,-116 1391.09,-84.5229 1268.99,-73.8226 1209.6,-70.4408"/>
<polygon fill="midnightblue" stroke="midnightblue" points="1209.45,-66.9279 1199.28,-69.8911 1209.08,-73.918 1209.45,-66.9279"/>
</g>
<!-- Node3&#45;&gt;Node7 -->
<g id="edge12" class="edge"><title>Node3&#45;&gt;Node7</title>
<path fill="none" stroke="midnightblue" d="M1290.82,-348.897C1313.58,-325.768 1353.98,-284.7 1377.22,-261.078"/>
<polygon fill="midnightblue" stroke="midnightblue" points="1379.87,-263.371 1384.39,-253.787 1374.88,-258.462 1379.87,-263.371"/>
</g>
<!-- Node3&#45;&gt;Node8 -->
<g id="edge14" class="edge"><title>Node3&#45;&gt;Node8</title>
<path fill="none" stroke="midnightblue" d="M1228.39,-353.85C1181.4,-341.332 1109.1,-322.073 1065.99,-310.586"/>
<polygon fill="midnightblue" stroke="midnightblue" points="1066.77,-307.173 1056.21,-307.981 1064.97,-313.937 1066.77,-307.173"/>
</g>
<!-- Node3&#45;&gt;Node9 -->
<g id="edge16" class="edge"><title>Node3&#45;&gt;Node9</title>
<path fill="none" stroke="midnightblue" d="M1308.94,-348.922C1329.81,-338.726 1356.06,-325.894 1376.16,-316.074"/>
<polygon fill="midnightblue" stroke="midnightblue" points="1377.74,-319.194 1385.19,-311.658 1374.67,-312.905 1377.74,-319.194"/>
</g>
<!-- Node3&#45;&gt;Node10 -->
<g id="edge18" class="edge"><title>Node3&#45;&gt;Node10</title>
<path fill="none" stroke="midnightblue" d="M1262.27,-348.833C1236.47,-312.199 1171.23,-225.517 1098,-174 1075.46,-158.146 1046.76,-146.232 1024.05,-138.366"/>
<polygon fill="midnightblue" stroke="midnightblue" points="1024.99,-134.992 1014.4,-135.14 1022.77,-141.63 1024.99,-134.992"/>
</g>
<!-- Node12 -->
<g id="node23" class="node"><title>Node12</title>
<polygon fill="white" stroke="#bfbfbf" points="1067,-0.5 1067,-21.5 1123,-21.5 1123,-0.5 1067,-0.5"/>
<text text-anchor="middle" x="1095" y="-8.5" font-family="Helvetica,sans-Serif" font-size="10.00">algorithm</text>
</g>
<!-- Node11&#45;&gt;Node12 -->
<g id="edge22" class="edge"><title>Node11&#45;&gt;Node12</title>
<path fill="none" stroke="midnightblue" d="M1369.7,-174.334C1397.12,-162.091 1432.86,-140.513 1417,-116 1385.48,-67.2728 1211.14,-31.2637 1132.95,-17.3291"/>
<polygon fill="midnightblue" stroke="midnightblue" points="1133.48,-13.8682 1123.02,-15.5865 1132.27,-20.7627 1133.48,-13.8682"/>
</g>
<!-- Node13 -->
<g id="node25" class="node"><title>Node13</title>
<polygon fill="white" stroke="#bfbfbf" points="1149.5,-116.5 1149.5,-137.5 1208.5,-137.5 1208.5,-116.5 1149.5,-116.5"/>
<text text-anchor="middle" x="1179" y="-124.5" font-family="Helvetica,sans-Serif" font-size="10.00">stdexcept</text>
</g>
<!-- Node11&#45;&gt;Node13 -->
<g id="edge24" class="edge"><title>Node11&#45;&gt;Node13</title>
<path fill="none" stroke="midnightblue" d="M1312.48,-174.497C1286.02,-165.082 1247.02,-151.204 1218,-140.877"/>
<polygon fill="midnightblue" stroke="midnightblue" points="1219.17,-137.578 1208.57,-137.523 1216.82,-144.173 1219.17,-137.578"/>
</g>
<!-- Node14 -->
<g id="node27" class="node"><title>Node14</title>
<a xlink:href="printable_8h.html" target="_top" xlink:title="printable.h">
<polygon fill="white" stroke="black" points="1032,-116.5 1032,-137.5 1094,-137.5 1094,-116.5 1032,-116.5"/>
<text text-anchor="middle" x="1063" y="-124.5" font-family="Helvetica,sans-Serif" font-size="10.00">printable.h</text>
</a>
</g>
<!-- Node11&#45;&gt;Node14 -->
<g id="edge26" class="edge"><title>Node11&#45;&gt;Node14</title>
<path fill="none" stroke="midnightblue" d="M1301.73,-176.628C1249.1,-165.688 1157.41,-146.625 1104.28,-135.582"/>
<polygon fill="midnightblue" stroke="midnightblue" points="1104.7,-132.094 1094.19,-133.485 1103.27,-138.947 1104.7,-132.094"/>
</g>
<!-- Node16 -->
<g id="node32" class="node"><title>Node16</title>
<a xlink:href="types_8h.html" target="_top" xlink:title="types.h">
<polygon fill="white" stroke="black" points="1301.5,-116.5 1301.5,-137.5 1350.5,-137.5 1350.5,-116.5 1301.5,-116.5"/>
<text text-anchor="middle" x="1326" y="-124.5" font-family="Helvetica,sans-Serif" font-size="10.00">types.h</text>
</a>
</g>
<!-- Node11&#45;&gt;Node16 -->
<g id="edge32" class="edge"><title>Node11&#45;&gt;Node16</title>
<path fill="none" stroke="midnightblue" d="M1339.07,-174.362C1336.99,-166.84 1334.14,-156.519 1331.64,-147.431"/>
<polygon fill="midnightblue" stroke="midnightblue" points="1334.95,-146.28 1328.92,-137.571 1328.2,-148.141 1334.95,-146.28"/>
</g>
<!-- Node17 -->
<g id="node34" class="node"><title>Node17</title>
<polygon fill="white" stroke="#bfbfbf" points="1368,-116.5 1368,-137.5 1408,-137.5 1408,-116.5 1368,-116.5"/>
<text text-anchor="middle" x="1388" y="-124.5" font-family="Helvetica,sans-Serif" font-size="10.00">limits</text>
</g>
<!-- Node11&#45;&gt;Node17 -->
<g id="edge34" class="edge"><title>Node11&#45;&gt;Node17</title>
<path fill="none" stroke="midnightblue" d="M1350.44,-174.362C1356.79,-166.35 1365.67,-155.161 1373.19,-145.67"/>
<polygon fill="midnightblue" stroke="midnightblue" points="1376.14,-147.581 1379.62,-137.571 1370.66,-143.231 1376.14,-147.581"/>
</g>
<!-- Node14&#45;&gt;Node6 -->
<g id="edge28" class="edge"><title>Node14&#45;&gt;Node6</title>
<path fill="none" stroke="midnightblue" d="M1083.64,-116.497C1101.37,-107.479 1127.14,-94.3649 1147.12,-84.2006"/>
<polygon fill="midnightblue" stroke="midnightblue" points="1148.8,-87.2753 1156.12,-79.6212 1145.62,-81.0364 1148.8,-87.2753"/>
</g>
<!-- Node15 -->
<g id="node30" class="node"><title>Node15</title>
<polygon fill="white" stroke="#bfbfbf" points="1037,-58.5 1037,-79.5 1089,-79.5 1089,-58.5 1037,-58.5"/>
<text text-anchor="middle" x="1063" y="-66.5" font-family="Helvetica,sans-Serif" font-size="10.00">ostream</text>
</g>
<!-- Node14&#45;&gt;Node15 -->
<g id="edge30" class="edge"><title>Node14&#45;&gt;Node15</title>
<path fill="none" stroke="midnightblue" d="M1063,-116.362C1063,-108.922 1063,-98.7427 1063,-89.7276"/>
<polygon fill="midnightblue" stroke="midnightblue" points="1066.5,-89.5706 1063,-79.5707 1059.5,-89.5707 1066.5,-89.5706"/>
</g>
<!-- Node18&#45;&gt;Node4 -->
<g id="edge104" class="edge"><title>Node18&#45;&gt;Node4</title>
<path fill="none" stroke="midnightblue" d="M826.211,-364.956C703.369,-360.764 352,-340.274 352,-243 352,-243 352,-243 352,-127 352,-93.175 359.965,-54.5229 365.581,-31.474"/>
<polygon fill="midnightblue" stroke="midnightblue" points="368.974,-32.3312 368.031,-21.7784 362.188,-30.6159 368.974,-32.3312"/>
</g>
<!-- Node18&#45;&gt;Node5 -->
<g id="edge102" class="edge"><title>Node18&#45;&gt;Node5</title>
<path fill="none" stroke="midnightblue" d="M854.342,-355.3C827.085,-333.946 765.739,-285.885 732.834,-260.106"/>
<polygon fill="midnightblue" stroke="midnightblue" points="734.769,-257.175 724.738,-253.763 730.452,-262.685 734.769,-257.175"/>
</g>
<!-- Node18&#45;&gt;Node8 -->
<g id="edge106" class="edge"><title>Node18&#45;&gt;Node8</title>
<path fill="none" stroke="midnightblue" d="M894.389,-355.412C921.653,-344.473 964.368,-327.334 994.563,-315.219"/>
<polygon fill="midnightblue" stroke="midnightblue" points="995.914,-318.448 1003.89,-311.476 993.307,-311.951 995.914,-318.448"/>
</g>
<!-- Node19 -->
<g id="node38" class="node"><title>Node19</title>
<a xlink:href="_t_calibration_data_8h.html" target="_top" xlink:title="tree/TCalibrationData.h">
<polygon fill="white" stroke="black" points="743,-232.5 743,-253.5 861,-253.5 861,-232.5 743,-232.5"/>
<text text-anchor="middle" x="802" y="-240.5" font-family="Helvetica,sans-Serif" font-size="10.00">tree/TCalibrationData.h</text>
</a>
</g>
<!-- Node18&#45;&gt;Node19 -->
<g id="edge38" class="edge"><title>Node18&#45;&gt;Node19</title>
<path fill="none" stroke="midnightblue" d="M862.143,-355.085C851.009,-334.335 826.649,-288.937 812.586,-262.729"/>
<polygon fill="midnightblue" stroke="midnightblue" points="815.562,-260.872 807.75,-253.715 809.394,-264.182 815.562,-260.872"/>
</g>
<!-- Node31 -->
<g id="node71" class="node"><title>Node31</title>
<a xlink:href="_t_data_record_8h.html" target="_top" xlink:title="tree/TDataRecord.h">
<polygon fill="white" stroke="black" points="878.5,-232.5 878.5,-253.5 981.5,-253.5 981.5,-232.5 878.5,-232.5"/>
<text text-anchor="middle" x="930" y="-240.5" font-family="Helvetica,sans-Serif" font-size="10.00">tree/TDataRecord.h</text>
</a>
</g>
<!-- Node18&#45;&gt;Node31 -->
<g id="edge80" class="edge"><title>Node18&#45;&gt;Node31</title>
<path fill="none" stroke="midnightblue" d="M868.996,-355.33C870.78,-340.058 875.479,-311.446 887,-290 892.791,-279.221 901.608,-268.98 909.754,-260.825"/>
<polygon fill="midnightblue" stroke="midnightblue" points="912.411,-263.128 917.238,-253.697 907.583,-258.06 912.411,-263.128"/>
</g>
<!-- Node32 -->
<g id="node77" class="node"><title>Node32</title>
<a xlink:href="_data_base_8h.html" target="_top" xlink:title="DataBase.h">
<polygon fill="white" stroke="black" points="896,-290.5 896,-311.5 964,-311.5 964,-290.5 896,-290.5"/>
<text text-anchor="middle" x="930" y="-298.5" font-family="Helvetica,sans-Serif" font-size="10.00">DataBase.h</text>
</a>
</g>
<!-- Node18&#45;&gt;Node32 -->
<g id="edge90" class="edge"><title>Node18&#45;&gt;Node32</title>
<path fill="none" stroke="midnightblue" d="M878.238,-355.267C887.628,-345.423 901.72,-330.648 912.831,-319"/>
<polygon fill="midnightblue" stroke="midnightblue" points="915.583,-321.186 919.952,-311.534 910.518,-316.354 915.583,-321.186"/>
</g>
<!-- Node19&#45;&gt;Node4 -->
<g id="edge72" class="edge"><title>Node19&#45;&gt;Node4</title>
<path fill="none" stroke="midnightblue" d="M742.688,-233.226C739.752,-232.799 736.844,-232.387 734,-232 662.001,-222.195 462.696,-244.957 409,-196 362.469,-153.576 364.365,-70.6929 368.217,-31.9274"/>
<polygon fill="midnightblue" stroke="midnightblue" points="371.715,-32.1508 369.371,-21.8185 364.76,-31.3573 371.715,-32.1508"/>
</g>
<!-- Node20 -->
<g id="node40" class="node"><title>Node20</title>
<a xlink:href="_t_i_d_8h.html" target="_top" xlink:title="TID.h">
<polygon fill="white" stroke="black" points="803.5,-174.5 803.5,-195.5 844.5,-195.5 844.5,-174.5 803.5,-174.5"/>
<text text-anchor="middle" x="824" y="-182.5" font-family="Helvetica,sans-Serif" font-size="10.00">TID.h</text>
</a>
</g>
<!-- Node19&#45;&gt;Node20 -->
<g id="edge40" class="edge"><title>Node19&#45;&gt;Node20</title>
<path fill="none" stroke="midnightblue" d="M806.035,-232.362C808.919,-224.758 812.888,-214.294 816.363,-205.135"/>
<polygon fill="midnightblue" stroke="midnightblue" points="819.716,-206.162 819.99,-195.571 813.171,-203.679 819.716,-206.162"/>
</g>
<!-- Node25 -->
<g id="node54" class="node"><title>Node25</title>
<polygon fill="white" stroke="#bfbfbf" points="770.5,-58.5 770.5,-79.5 811.5,-79.5 811.5,-58.5 770.5,-58.5"/>
<text text-anchor="middle" x="791" y="-66.5" font-family="Helvetica,sans-Serif" font-size="10.00">ctime</text>
</g>
<!-- Node19&#45;&gt;Node25 -->
<g id="edge74" class="edge"><title>Node19&#45;&gt;Node25</title>
<path fill="none" stroke="midnightblue" d="M751.255,-232.478C652.405,-210.851 446.886,-159.755 485,-116 523.312,-72.0176 687.679,-90.7956 745,-80 750.114,-79.0369 755.515,-77.8764 760.748,-76.6755"/>
<polygon fill="midnightblue" stroke="midnightblue" points="761.566,-80.0786 770.483,-74.3571 759.944,-73.2691 761.566,-80.0786"/>
</g>
<!-- Node30 -->
<g id="node68" class="node"><title>Node30</title>
<a xlink:href="_git_info_8h.html" target="_top" xlink:title="base/GitInfo.h">
<polygon fill="white" stroke="black" points="418,-174.5 418,-195.5 496,-195.5 496,-174.5 418,-174.5"/>
<text text-anchor="middle" x="457" y="-182.5" font-family="Helvetica,sans-Serif" font-size="10.00">base/GitInfo.h</text>
</a>
</g>
<!-- Node19&#45;&gt;Node30 -->
<g id="edge76" class="edge"><title>Node19&#45;&gt;Node30</title>
<path fill="none" stroke="midnightblue" d="M742.662,-233.398C739.733,-232.925 736.834,-232.457 734,-232 634.453,-215.949 609.168,-214.25 510,-196 508.726,-195.766 507.436,-195.525 506.135,-195.278"/>
<polygon fill="midnightblue" stroke="midnightblue" points="506.52,-191.788 496.035,-193.311 505.181,-198.658 506.52,-191.788"/>
</g>
<!-- Node20&#45;&gt;Node10 -->
<g id="edge42" class="edge"><title>Node20&#45;&gt;Node10</title>
<path fill="none" stroke="midnightblue" d="M844.517,-177.654C870.52,-168.345 915.842,-152.118 948.184,-140.539"/>
<polygon fill="midnightblue" stroke="midnightblue" points="949.534,-143.773 957.769,-137.107 947.174,-137.183 949.534,-143.773"/>
</g>
<!-- Node20&#45;&gt;Node13 -->
<g id="edge66" class="edge"><title>Node20&#45;&gt;Node13</title>
<path fill="none" stroke="midnightblue" d="M844.621,-181.631C901.931,-172.268 1063.86,-145.812 1139.35,-133.479"/>
<polygon fill="midnightblue" stroke="midnightblue" points="1140.1,-136.902 1149.4,-131.835 1138.97,-129.994 1140.1,-136.902"/>
</g>
<!-- Node20&#45;&gt;Node14 -->
<g id="edge44" class="edge"><title>Node20&#45;&gt;Node14</title>
<path fill="none" stroke="midnightblue" d="M844.687,-180.375C879.289,-172.584 951.309,-156.132 1021.67,-138.282"/>
<polygon fill="midnightblue" stroke="midnightblue" points="1022.76,-141.617 1031.59,-135.755 1021.03,-134.834 1022.76,-141.617"/>
</g>
<!-- Node21 -->
<g id="node44" class="node"><title>Node21</title>
<a xlink:href="time_8h.html" target="_top" xlink:title="base/std_ext/time.h">
<polygon fill="white" stroke="black" points="613.5,-116.5 613.5,-137.5 716.5,-137.5 716.5,-116.5 613.5,-116.5"/>
<text text-anchor="middle" x="665" y="-124.5" font-family="Helvetica,sans-Serif" font-size="10.00">base/std_ext/time.h</text>
</a>
</g>
<!-- Node20&#45;&gt;Node21 -->
<g id="edge46" class="edge"><title>Node20&#45;&gt;Node21</title>
<path fill="none" stroke="midnightblue" d="M803.214,-177.418C777.996,-168.219 734.97,-152.524 703.609,-141.084"/>
<polygon fill="midnightblue" stroke="midnightblue" points="704.468,-137.672 693.874,-137.533 702.069,-144.248 704.468,-137.672"/>
</g>
<!-- Node20&#45;&gt;Node25 -->
<g id="edge70" class="edge"><title>Node20&#45;&gt;Node25</title>
<path fill="none" stroke="midnightblue" d="M821.107,-174.224C817.441,-160.63 810.888,-136.544 805,-116 802.521,-107.35 799.703,-97.8315 797.248,-89.636"/>
<polygon fill="midnightblue" stroke="midnightblue" points="800.523,-88.3749 794.289,-79.8086 793.821,-90.393 800.523,-88.3749"/>
</g>
<!-- Node26 -->
<g id="node56" class="node"><title>Node26</title>
<polygon fill="white" stroke="#bfbfbf" points="734,-116.5 734,-137.5 796,-137.5 796,-116.5 734,-116.5"/>
<text text-anchor="middle" x="765" y="-124.5" font-family="Helvetica,sans-Serif" font-size="10.00">type_traits</text>
</g>
<!-- Node20&#45;&gt;Node26 -->
<g id="edge60" class="edge"><title>Node20&#45;&gt;Node26</title>
<path fill="none" stroke="midnightblue" d="M813.178,-174.362C804.779,-166.104 792.946,-154.472 783.11,-144.803"/>
<polygon fill="midnightblue" stroke="midnightblue" points="785.338,-142.085 775.753,-137.571 780.431,-147.077 785.338,-142.085"/>
</g>
<!-- Node27 -->
<g id="node58" class="node"><title>Node27</title>
<polygon fill="white" stroke="#bfbfbf" points="494,-116.5 494,-137.5 532,-137.5 532,-116.5 494,-116.5"/>
<text text-anchor="middle" x="513" y="-124.5" font-family="Helvetica,sans-Serif" font-size="10.00">tuple</text>
</g>
<!-- Node20&#45;&gt;Node27 -->
<g id="edge62" class="edge"><title>Node20&#45;&gt;Node27</title>
<path fill="none" stroke="midnightblue" d="M803.436,-183.079C757.802,-178.504 644.627,-165.435 541.996,-137.832"/>
<polygon fill="midnightblue" stroke="midnightblue" points="542.669,-134.387 532.099,-135.115 540.816,-141.137 542.669,-134.387"/>
</g>
<!-- Node28 -->
<g id="node60" class="node"><title>Node28</title>
<polygon fill="white" stroke="#bfbfbf" points="550,-116.5 550,-137.5 596,-137.5 596,-116.5 550,-116.5"/>
<text text-anchor="middle" x="573" y="-124.5" font-family="Helvetica,sans-Serif" font-size="10.00">cstdint</text>
</g>
<!-- Node20&#45;&gt;Node28 -->
<g id="edge64" class="edge"><title>Node20&#45;&gt;Node28</title>
<path fill="none" stroke="midnightblue" d="M803.269,-181.407C765.758,-174.726 684.006,-159.337 606.266,-138.129"/>
<polygon fill="midnightblue" stroke="midnightblue" points="606.889,-134.67 596.317,-135.376 605.022,-141.416 606.889,-134.67"/>
</g>
<!-- Node29 -->
<g id="node63" class="node"><title>Node29</title>
<polygon fill="white" stroke="#bfbfbf" points="852,-116.5 852,-137.5 902,-137.5 902,-116.5 852,-116.5"/>
<text text-anchor="middle" x="877" y="-124.5" font-family="Helvetica,sans-Serif" font-size="10.00">iomanip</text>
</g>
<!-- Node20&#45;&gt;Node29 -->
<g id="edge68" class="edge"><title>Node20&#45;&gt;Node29</title>
<path fill="none" stroke="midnightblue" d="M833.721,-174.362C841.192,-166.186 851.686,-154.702 860.469,-145.091"/>
<polygon fill="midnightblue" stroke="midnightblue" points="863.179,-147.314 867.341,-137.571 858.011,-142.592 863.179,-147.314"/>
</g>
<!-- Node22 -->
<g id="node46" class="node"><title>Node22</title>
<a xlink:href="string_8h.html" target="_top" xlink:title="base/std_ext/string.h">
<polygon fill="white" stroke="black" points="628,-58.5 628,-79.5 736,-79.5 736,-58.5 628,-58.5"/>
<text text-anchor="middle" x="682" y="-66.5" font-family="Helvetica,sans-Serif" font-size="10.00">base/std_ext/string.h</text>
</a>
</g>
<!-- Node21&#45;&gt;Node22 -->
<g id="edge48" class="edge"><title>Node21&#45;&gt;Node22</title>
<path fill="none" stroke="midnightblue" d="M668.118,-116.362C670.323,-108.84 673.348,-98.5187 676.012,-89.4308"/>
<polygon fill="midnightblue" stroke="midnightblue" points="679.448,-90.1514 678.902,-79.5707 672.73,-88.1825 679.448,-90.1514"/>
</g>
<!-- Node24 -->
<g id="node52" class="node"><title>Node24</title>
<polygon fill="white" stroke="#bfbfbf" points="564,-58.5 564,-79.5 610,-79.5 610,-58.5 564,-58.5"/>
<text text-anchor="middle" x="587" y="-66.5" font-family="Helvetica,sans-Serif" font-size="10.00">cstring</text>
</g>
<!-- Node21&#45;&gt;Node24 -->
<g id="edge56" class="edge"><title>Node21&#45;&gt;Node24</title>
<path fill="none" stroke="midnightblue" d="M650.694,-116.362C639.149,-107.777 622.7,-95.5459 609.41,-85.6636"/>
<polygon fill="midnightblue" stroke="midnightblue" points="611.329,-82.7291 601.216,-79.5707 607.152,-88.3463 611.329,-82.7291"/>
</g>
<!-- Node21&#45;&gt;Node25 -->
<g id="edge58" class="edge"><title>Node21&#45;&gt;Node25</title>
<path fill="none" stroke="midnightblue" d="M687.818,-116.497C708.419,-107.013 738.86,-93.0011 761.342,-82.6521"/>
<polygon fill="midnightblue" stroke="midnightblue" points="762.818,-85.8258 770.438,-78.465 759.891,-79.4671 762.818,-85.8258"/>
</g>
<!-- Node22&#45;&gt;Node4 -->
<g id="edge50" class="edge"><title>Node22&#45;&gt;Node4</title>
<path fill="none" stroke="midnightblue" d="M627.828,-58.8972C562.377,-46.6909 454.505,-26.5732 401.848,-16.7529"/>
<polygon fill="midnightblue" stroke="midnightblue" points="402.255,-13.2686 391.782,-14.8758 400.971,-20.1499 402.255,-13.2686"/>
</g>
<!-- Node22&#45;&gt;Node12 -->
<g id="edge54" class="edge"><title>Node22&#45;&gt;Node12</title>
<path fill="none" stroke="midnightblue" d="M736.417,-61.3579C821.282,-49.4398 983.046,-26.7223 1056.73,-16.3747"/>
<polygon fill="midnightblue" stroke="midnightblue" points="1057.52,-19.7973 1066.94,-14.9405 1056.55,-12.8653 1057.52,-19.7973"/>
</g>
<!-- Node23 -->
<g id="node49" class="node"><title>Node23</title>
<polygon fill="white" stroke="#bfbfbf" points="656,-0.5 656,-21.5 708,-21.5 708,-0.5 656,-0.5"/>
<text text-anchor="middle" x="682" y="-8.5" font-family="Helvetica,sans-Serif" font-size="10.00">sstream</text>
</g>
<!-- Node22&#45;&gt;Node23 -->
<g id="edge52" class="edge"><title>Node22&#45;&gt;Node23</title>
<path fill="none" stroke="midnightblue" d="M682,-58.3619C682,-50.9219 682,-40.7427 682,-31.7276"/>
<polygon fill="midnightblue" stroke="midnightblue" points="685.5,-31.5706 682,-21.5707 678.5,-31.5707 685.5,-31.5706"/>
</g>
<!-- Node30&#45;&gt;Node4 -->
<g id="edge78" class="edge"><title>Node30&#45;&gt;Node4</title>
<path fill="none" stroke="midnightblue" d="M453.472,-174.44C445.858,-152.206 426.72,-99.2197 404,-58 398.698,-48.3815 391.849,-38.3383 385.766,-30.0168"/>
<polygon fill="midnightblue" stroke="midnightblue" points="388.376,-27.6633 379.575,-21.7645 382.776,-31.8641 388.376,-27.6633"/>
</g>
<!-- Node31&#45;&gt;Node10 -->
<g id="edge84" class="edge"><title>Node31&#45;&gt;Node10</title>
<path fill="none" stroke="midnightblue" d="M935.168,-232.295C944.544,-212.872 964.49,-171.556 976.419,-146.846"/>
<polygon fill="midnightblue" stroke="midnightblue" points="979.649,-148.206 980.845,-137.679 973.345,-145.163 979.649,-148.206"/>
</g>
<!-- Node31&#45;&gt;Node20 -->
<g id="edge82" class="edge"><title>Node31&#45;&gt;Node20</title>
<path fill="none" stroke="midnightblue" d="M910.558,-232.362C894.196,-223.409 870.587,-210.491 852.157,-200.406"/>
<polygon fill="midnightblue" stroke="midnightblue" points="853.771,-197.3 843.319,-195.571 850.411,-203.441 853.771,-197.3"/>
</g>
<!-- Node31&#45;&gt;Node25 -->
<g id="edge88" class="edge"><title>Node31&#45;&gt;Node25</title>
<path fill="none" stroke="midnightblue" d="M931.66,-232.432C934.756,-208.768 938.793,-150.866 911,-116 889.234,-88.6958 849.41,-77.215 821.634,-72.4124"/>
<polygon fill="midnightblue" stroke="midnightblue" points="822.056,-68.9363 811.641,-70.8797 820.995,-75.8554 822.056,-68.9363"/>
</g>
<!-- Node31&#45;&gt;Node29 -->
<g id="edge86" class="edge"><title>Node31&#45;&gt;Node29</title>
<path fill="none" stroke="midnightblue" d="M925.109,-232.295C916.235,-212.872 897.358,-171.556 886.068,-146.846"/>
<polygon fill="midnightblue" stroke="midnightblue" points="889.219,-145.32 881.879,-137.679 882.852,-148.229 889.219,-145.32"/>
</g>
<!-- Node32&#45;&gt;Node5 -->
<g id="edge96" class="edge"><title>Node32&#45;&gt;Node5</title>
<path fill="none" stroke="midnightblue" d="M895.73,-295.055C858.116,-288.039 795.963,-274.999 735.574,-254.105"/>
<polygon fill="midnightblue" stroke="midnightblue" points="736.496,-250.719 725.901,-250.684 734.161,-257.318 736.496,-250.719"/>
</g>
<!-- Node32&#45;&gt;Node6 -->
<g id="edge94" class="edge"><title>Node32&#45;&gt;Node6</title>
<path fill="none" stroke="midnightblue" d="M944.682,-290.248C957.068,-281.002 975.108,-267.121 990,-254 1055.66,-196.144 1127.81,-121.239 1159.93,-87.2307"/>
<polygon fill="midnightblue" stroke="midnightblue" points="1162.56,-89.5498 1166.87,-79.8699 1157.46,-84.7511 1162.56,-89.5498"/>
</g>
<!-- Node32&#45;&gt;Node7 -->
<g id="edge92" class="edge"><title>Node32&#45;&gt;Node7</title>
<path fill="none" stroke="midnightblue" d="M964.021,-294.908C973.988,-293.214 984.917,-291.445 995,-290 1134.37,-270.033 1301.95,-252.4 1367.15,-245.781"/>
<polygon fill="midnightblue" stroke="midnightblue" points="1367.82,-249.232 1377.41,-244.745 1367.11,-242.267 1367.82,-249.232"/>
</g>
<!-- Node32&#45;&gt;Node19 -->
<g id="edge100" class="edge"><title>Node32&#45;&gt;Node19</title>
<path fill="none" stroke="midnightblue" d="M906.82,-290.497C886.648,-281.356 857.19,-268.008 834.636,-257.788"/>
<polygon fill="midnightblue" stroke="midnightblue" points="835.993,-254.561 825.44,-253.621 833.104,-260.937 835.993,-254.561"/>
</g>
<!-- Node32&#45;&gt;Node31 -->
<g id="edge98" class="edge"><title>Node32&#45;&gt;Node31</title>
<path fill="none" stroke="midnightblue" d="M930,-290.362C930,-282.922 930,-272.743 930,-263.728"/>
<polygon fill="midnightblue" stroke="midnightblue" points="933.5,-263.571 930,-253.571 926.5,-263.571 933.5,-263.571"/>
</g>
<!-- Node33&#45;&gt;Node4 -->
<g id="edge118" class="edge"><title>Node33&#45;&gt;Node4</title>
<path fill="none" stroke="midnightblue" d="M206.562,-290.254C200.375,-269.928 188,-224.356 188,-185 188,-185 188,-185 188,-127 188,-55.7372 288.22,-26.4208 340.327,-15.9943"/>
<polygon fill="midnightblue" stroke="midnightblue" points="341.186,-19.3942 350.363,-14.1008 339.888,-12.5156 341.186,-19.3942"/>
</g>
<!-- Node33&#45;&gt;Node5 -->
<g id="edge120" class="edge"><title>Node33&#45;&gt;Node5</title>
<path fill="none" stroke="midnightblue" d="M239.101,-297.631C329.041,-287.219 601.553,-255.67 685.866,-245.91"/>
<polygon fill="midnightblue" stroke="midnightblue" points="686.52,-249.358 696.051,-244.731 685.715,-242.404 686.52,-249.358"/>
</g>
<!-- Node34 -->
<g id="node95" class="node"><title>Node34</title>
<polygon fill="white" stroke="#bfbfbf" points="215.5,-232.5 215.5,-253.5 286.5,-253.5 286.5,-232.5 215.5,-232.5"/>
<text text-anchor="middle" x="251" y="-240.5" font-family="Helvetica,sans-Serif" font-size="10.00">TGListBox.h</text>
</g>
<!-- Node33&#45;&gt;Node34 -->
<g id="edge122" class="edge"><title>Node33&#45;&gt;Node34</title>
<path fill="none" stroke="midnightblue" d="M217.52,-290.362C223.126,-282.431 230.932,-271.389 237.597,-261.961"/>
<polygon fill="midnightblue" stroke="midnightblue" points="240.613,-263.757 243.528,-253.571 234.897,-259.716 240.613,-263.757"/>
</g>
<!-- Node35 -->
<g id="node97" class="node"><title>Node35</title>
<polygon fill="white" stroke="#bfbfbf" points="28,-232.5 28,-253.5 90,-253.5 90,-232.5 28,-232.5"/>
<text text-anchor="middle" x="59" y="-240.5" font-family="Helvetica,sans-Serif" font-size="10.00">TGLabel.h</text>
</g>
<!-- Node33&#45;&gt;Node35 -->
<g id="edge124" class="edge"><title>Node33&#45;&gt;Node35</title>
<path fill="none" stroke="midnightblue" d="M182.655,-290.497C158.358,-281.164 122.64,-267.445 95.8322,-257.147"/>
<polygon fill="midnightblue" stroke="midnightblue" points="96.9863,-253.842 86.3962,-253.523 94.4763,-260.376 96.9863,-253.842"/>
</g>
<!-- Node36 -->
<g id="node99" class="node"><title>Node36</title>
<polygon fill="white" stroke="#bfbfbf" points="107.5,-232.5 107.5,-253.5 160.5,-253.5 160.5,-232.5 107.5,-232.5"/>
<text text-anchor="middle" x="134" y="-240.5" font-family="Helvetica,sans-Serif" font-size="10.00">TExec.h</text>
</g>
<!-- Node33&#45;&gt;Node36 -->
<g id="edge126" class="edge"><title>Node33&#45;&gt;Node36</title>
<path fill="none" stroke="midnightblue" d="M196.06,-290.362C184.812,-281.777 168.784,-269.546 155.835,-259.664"/>
<polygon fill="midnightblue" stroke="midnightblue" points="157.924,-256.855 147.851,-253.571 153.677,-262.42 157.924,-256.855"/>
</g>
</g>
</svg>
