<?xml version="1.0" encoding="UTF-8" standalone="no"?>
<!DOCTYPE svg PUBLIC "-//W3C//DTD SVG 1.1//EN"
 "http://www.w3.org/Graphics/SVG/1.1/DTD/svg11.dtd">
<!-- Generated by graphviz version 2.26.3 (20100126.1600)
 -->
<!-- Title: progs/Ant&#45;calib&#45;editor.cc Pages: 1 -->
<svg width="1438pt" height="566pt"
 viewBox="0.00 0.00 1438.48 566.00" xmlns="http://www.w3.org/2000/svg" xmlns:xlink="http://www.w3.org/1999/xlink">
<g id="graph1" class="graph" transform="scale(1 1) rotate(0) translate(4 562)">
<title>progs/Ant&#45;calib&#45;editor.cc</title>
<polygon fill="white" stroke="white" points="-4,5 -4,-562 1435.48,-562 1435.48,5 -4,5"/>
<!-- Node1 -->
<g id="node1" class="node"><title>Node1</title>
<polygon fill="#bfbfbf" stroke="black" points="1092,-536.5 1092,-557.5 1214,-557.5 1214,-536.5 1092,-536.5"/>
<text text-anchor="middle" x="1153" y="-544.5" font-family="Helvetica,sans-Serif" font-size="10.00">progs/Ant&#45;calib&#45;editor.cc</text>
</g>
<!-- Node2 -->
<g id="node3" class="node"><title>Node2</title>
<a xlink:href="_a_c_e_canvas_8h.html" target="_top" xlink:title="calibration/gui/ACECanvas.h">
<polygon fill="white" stroke="black" points="1023.5,-478.5 1023.5,-499.5 1166.5,-499.5 1166.5,-478.5 1023.5,-478.5"/>
<text text-anchor="middle" x="1095" y="-486.5" font-family="Helvetica,sans-Serif" font-size="10.00">calibration/gui/ACECanvas.h</text>
</a>
</g>
<!-- Node1&#45;&gt;Node2 -->
<g id="edge2" class="edge"><title>Node1&#45;&gt;Node2</title>
<path fill="none" stroke="midnightblue" d="M1142.36,-536.362C1134.1,-528.104 1122.47,-516.472 1112.8,-506.803"/>
<polygon fill="midnightblue" stroke="midnightblue" points="1115.12,-504.167 1105.57,-499.571 1110.17,-509.117 1115.12,-504.167"/>
</g>
<!-- Node34 -->
<g id="node93" class="node"><title>Node34</title>
<a xlink:href="_dialogs_8h.html" target="_top" xlink:title="Dialogs.h">
<polygon fill="white" stroke="black" points="200,-420.5 200,-441.5 258,-441.5 258,-420.5 200,-420.5"/>
<text text-anchor="middle" x="229" y="-428.5" font-family="Helvetica,sans-Serif" font-size="10.00">Dialogs.h</text>
</a>
</g>
<!-- Node1&#45;&gt;Node34 -->
<g id="edge146" class="edge"><title>Node1&#45;&gt;Node34</title>
<path fill="none" stroke="midnightblue" d="M1091.97,-542.514C948.185,-531.34 577.298,-498.986 272,-442 270.722,-441.761 269.425,-441.506 268.118,-441.238"/>
<polygon fill="midnightblue" stroke="midnightblue" points="268.552,-437.749 258.029,-438.979 267.022,-444.58 268.552,-437.749"/>
</g>
<!-- Node41 -->
<g id="node115" class="node"><title>Node41</title>
<polygon fill="white" stroke="#bfbfbf" points="1184,-478.5 1184,-499.5 1238,-499.5 1238,-478.5 1184,-478.5"/>
<text text-anchor="middle" x="1211" y="-486.5" font-family="Helvetica,sans-Serif" font-size="10.00">iostream</text>
</g>
<!-- Node1&#45;&gt;Node41 -->
<g id="edge148" class="edge"><title>Node1&#45;&gt;Node41</title>
<path fill="none" stroke="midnightblue" d="M1163.64,-536.362C1171.9,-528.104 1183.53,-516.472 1193.2,-506.803"/>
<polygon fill="midnightblue" stroke="midnightblue" points="1195.83,-509.117 1200.43,-499.571 1190.88,-504.167 1195.83,-509.117"/>
</g>
<!-- Node42 -->
<g id="node117" class="node"><title>Node42</title>
<polygon fill="white" stroke="#bfbfbf" points="1255.5,-478.5 1255.5,-499.5 1304.5,-499.5 1304.5,-478.5 1255.5,-478.5"/>
<text text-anchor="middle" x="1280" y="-486.5" font-family="Helvetica,sans-Serif" font-size="10.00">TRint.h</text>
</g>
<!-- Node1&#45;&gt;Node42 -->
<g id="edge150" class="edge"><title>Node1&#45;&gt;Node42</title>
<path fill="none" stroke="midnightblue" d="M1176,-536.497C1196.01,-527.356 1225.24,-514.008 1247.62,-503.788"/>
<polygon fill="midnightblue" stroke="midnightblue" points="1249.1,-506.959 1256.74,-499.621 1246.19,-500.592 1249.1,-506.959"/>
</g>
<!-- Node3 -->
<g id="node5" class="node"><title>Node3</title>
<a xlink:href="_editor_8h.html" target="_top" xlink:title="calibration/Editor.h">
<polygon fill="white" stroke="black" points="947,-420.5 947,-441.5 1045,-441.5 1045,-420.5 947,-420.5"/>
<text text-anchor="middle" x="996" y="-428.5" font-family="Helvetica,sans-Serif" font-size="10.00">calibration/Editor.h</text>
</a>
</g>
<!-- Node2&#45;&gt;Node3 -->
<g id="edge4" class="edge"><title>Node2&#45;&gt;Node3</title>
<path fill="none" stroke="midnightblue" d="M1076.84,-478.362C1061.77,-469.532 1040.11,-456.844 1023.01,-446.822"/>
<polygon fill="midnightblue" stroke="midnightblue" points="1024.44,-443.606 1014.04,-441.571 1020.9,-449.646 1024.44,-443.606"/>
</g>
<!-- Node4 -->
<g id="node7" class="node"><title>Node4</title>
<a xlink:href="root__draw_8h.html" target="_top" xlink:title="analysis/plot/root\l_draw.h">
<polygon fill="white" stroke="black" points="1030.5,-349 1030.5,-383 1121.5,-383 1121.5,-349 1030.5,-349"/>
<text text-anchor="start" x="1038.5" y="-370" font-family="Helvetica,sans-Serif" font-size="10.00">analysis/plot/root</text>
<text text-anchor="middle" x="1076" y="-357" font-family="Helvetica,sans-Serif" font-size="10.00">_draw.h</text>
</a>
</g>
<!-- Node2&#45;&gt;Node4 -->
<g id="edge140" class="edge"><title>Node2&#45;&gt;Node4</title>
<path fill="none" stroke="midnightblue" d="M1093.31,-478.085C1090.41,-459.275 1084.37,-420.21 1080.26,-393.547"/>
<polygon fill="midnightblue" stroke="midnightblue" points="1083.66,-392.666 1078.68,-383.317 1076.74,-393.734 1083.66,-392.666"/>
</g>
<!-- Node5 -->
<g id="node9" class="node"><title>Node5</title>
<polygon fill="white" stroke="#bfbfbf" points="360.5,-0.5 360.5,-21.5 401.5,-21.5 401.5,-0.5 360.5,-0.5"/>
<text text-anchor="middle" x="381" y="-8.5" font-family="Helvetica,sans-Serif" font-size="10.00">string</text>
</g>
<!-- Node2&#45;&gt;Node5 -->
<g id="edge130" class="edge"><title>Node2&#45;&gt;Node5</title>
<path fill="none" stroke="midnightblue" d="M1023.21,-485.591C825.214,-475.238 286,-440.229 286,-366 286,-366 286,-366 286,-127 286,-83.5461 326.395,-47.4386 354.504,-27.5737"/>
<polygon fill="midnightblue" stroke="midnightblue" points="356.831,-30.224 363.131,-21.7061 352.894,-24.4357 356.831,-30.224"/>
</g>
<!-- Node8 -->
<g id="node15" class="node"><title>Node8</title>
<polygon fill="white" stroke="#bfbfbf" points="1137.5,-232.5 1137.5,-253.5 1172.5,-253.5 1172.5,-232.5 1137.5,-232.5"/>
<text text-anchor="middle" x="1155" y="-240.5" font-family="Helvetica,sans-Serif" font-size="10.00">map</text>
</g>
<!-- Node2&#45;&gt;Node8 -->
<g id="edge132" class="edge"><title>Node2&#45;&gt;Node8</title>
<path fill="none" stroke="midnightblue" d="M1099.04,-478.406C1106.09,-459.617 1120.77,-419.125 1130,-384 1138.28,-352.471 1138.32,-344.101 1144,-312 1146.84,-295.949 1149.73,-277.737 1151.83,-264.056"/>
<polygon fill="midnightblue" stroke="midnightblue" points="1155.35,-264.188 1153.4,-253.775 1148.43,-263.135 1155.35,-264.188"/>
</g>
<!-- Node10 -->
<g id="node19" class="node"><title>Node10</title>
<polygon fill="white" stroke="#bfbfbf" points="1251.5,-290.5 1251.5,-311.5 1310.5,-311.5 1310.5,-290.5 1251.5,-290.5"/>
<text text-anchor="middle" x="1281" y="-298.5" font-family="Helvetica,sans-Serif" font-size="10.00">functional</text>
</g>
<!-- Node2&#45;&gt;Node10 -->
<g id="edge136" class="edge"><title>Node2&#45;&gt;Node10</title>
<path fill="none" stroke="midnightblue" d="M1165.33,-478.451C1239.62,-466.969 1346.93,-449.276 1353,-442 1385.49,-403.058 1333.74,-347.004 1302.31,-318.735"/>
<polygon fill="midnightblue" stroke="midnightblue" points="1304.27,-315.804 1294.44,-311.854 1299.67,-321.072 1304.27,-315.804"/>
</g>
<!-- Node11 -->
<g id="node21" class="node"><title>Node11</title>
<polygon fill="white" stroke="#bfbfbf" points="968,-116.5 968,-137.5 1024,-137.5 1024,-116.5 968,-116.5"/>
<text text-anchor="middle" x="996" y="-124.5" font-family="Helvetica,sans-Serif" font-size="10.00">Rtypes.h</text>
</g>
<!-- Node2&#45;&gt;Node11 -->
<g id="edge138" class="edge"><title>Node2&#45;&gt;Node11</title>
<path fill="none" stroke="midnightblue" d="M1027.48,-478.449C935.62,-462.557 778.787,-429.434 745,-384 720.07,-350.476 722.002,-324.878 745,-290 767.36,-256.091 793.904,-274.447 829,-254 886.248,-220.647 946.455,-170.573 976.513,-144.379"/>
<polygon fill="midnightblue" stroke="midnightblue" points="978.961,-146.887 984.164,-137.658 974.341,-141.628 978.961,-146.887"/>
</g>
<!-- Node12 -->
<g id="node23" class="node"><title>Node12</title>
<a xlink:href="interval_8h.html" target="_top" xlink:title="base/interval.h">
<polygon fill="white" stroke="black" points="1298,-174.5 1298,-195.5 1378,-195.5 1378,-174.5 1298,-174.5"/>
<text text-anchor="middle" x="1338" y="-182.5" font-family="Helvetica,sans-Serif" font-size="10.00">base/interval.h</text>
</a>
</g>
<!-- Node2&#45;&gt;Node12 -->
<g id="edge116" class="edge"><title>Node2&#45;&gt;Node12</title>
<path fill="none" stroke="midnightblue" d="M1166.44,-478.456C1245.44,-466.555 1362.73,-448.063 1371,-442 1401.62,-419.551 1410,-403.966 1410,-366 1410,-366 1410,-366 1410,-301 1410,-261.313 1379.2,-223.917 1357.89,-202.794"/>
<polygon fill="midnightblue" stroke="midnightblue" points="1360.19,-200.151 1350.54,-195.773 1355.35,-205.212 1360.19,-200.151"/>
</g>
<!-- Node2&#45;&gt;Node34 -->
<g id="edge118" class="edge"><title>Node2&#45;&gt;Node34</title>
<path fill="none" stroke="midnightblue" d="M1023.2,-486.684C850.542,-480.826 415.813,-464.286 272,-442 270.896,-441.829 269.779,-441.642 268.654,-441.441"/>
<polygon fill="midnightblue" stroke="midnightblue" points="268.954,-437.929 258.452,-439.334 267.537,-444.785 268.954,-437.929"/>
</g>
<!-- Node38 -->
<g id="node105" class="node"><title>Node38</title>
<polygon fill="white" stroke="#bfbfbf" points="1142,-420.5 1142,-441.5 1172,-441.5 1172,-420.5 1142,-420.5"/>
<text text-anchor="middle" x="1157" y="-428.5" font-family="Helvetica,sans-Serif" font-size="10.00">set</text>
</g>
<!-- Node2&#45;&gt;Node38 -->
<g id="edge134" class="edge"><title>Node2&#45;&gt;Node38</title>
<path fill="none" stroke="midnightblue" d="M1106.37,-478.362C1115.29,-470.023 1127.88,-458.242 1138.28,-448.516"/>
<polygon fill="midnightblue" stroke="midnightblue" points="1140.79,-450.958 1145.7,-441.571 1136.01,-445.846 1140.79,-450.958"/>
</g>
<!-- Node39 -->
<g id="node110" class="node"><title>Node39</title>
<polygon fill="white" stroke="#bfbfbf" points="1189.5,-420.5 1189.5,-441.5 1254.5,-441.5 1254.5,-420.5 1189.5,-420.5"/>
<text text-anchor="middle" x="1222" y="-428.5" font-family="Helvetica,sans-Serif" font-size="10.00">TCanvas.h</text>
</g>
<!-- Node2&#45;&gt;Node39 -->
<g id="edge142" class="edge"><title>Node2&#45;&gt;Node39</title>
<path fill="none" stroke="midnightblue" d="M1118,-478.497C1138.01,-469.356 1167.24,-456.008 1189.62,-445.788"/>
<polygon fill="midnightblue" stroke="midnightblue" points="1191.1,-448.959 1198.74,-441.621 1188.19,-442.592 1191.1,-448.959"/>
</g>
<!-- Node40 -->
<g id="node112" class="node"><title>Node40</title>
<polygon fill="white" stroke="#bfbfbf" points="1271.5,-420.5 1271.5,-441.5 1344.5,-441.5 1344.5,-420.5 1271.5,-420.5"/>
<text text-anchor="middle" x="1308" y="-428.5" font-family="Helvetica,sans-Serif" font-size="10.00">TPaveText.h</text>
</g>
<!-- Node2&#45;&gt;Node40 -->
<g id="edge144" class="edge"><title>Node2&#45;&gt;Node40</title>
<path fill="none" stroke="midnightblue" d="M1133.57,-478.497C1169.56,-468.698 1223.3,-454.063 1261.62,-443.631"/>
<polygon fill="midnightblue" stroke="midnightblue" points="1262.76,-446.945 1271.49,-440.941 1260.92,-440.191 1262.76,-446.945"/>
</g>
<!-- Node3&#45;&gt;Node4 -->
<g id="edge6" class="edge"><title>Node3&#45;&gt;Node4</title>
<path fill="none" stroke="midnightblue" d="M1009.21,-420.267C1019.5,-411.906 1034.17,-399.988 1047.14,-389.449"/>
<polygon fill="midnightblue" stroke="midnightblue" points="1049.39,-392.132 1054.94,-383.11 1044.97,-386.699 1049.39,-392.132"/>
</g>
<!-- Node3&#45;&gt;Node5 -->
<g id="edge112" class="edge"><title>Node3&#45;&gt;Node5</title>
<path fill="none" stroke="midnightblue" d="M946.934,-421.859C896.331,-412.421 815.137,-397.246 745,-384 551.101,-347.38 324,-440.326 324,-243 324,-243 324,-243 324,-127 324,-89.5289 348.254,-51.5841 365.12,-29.7281"/>
<polygon fill="midnightblue" stroke="midnightblue" points="368.067,-31.6467 371.588,-21.6538 362.604,-27.2705 368.067,-31.6467"/>
</g>
<!-- Node7 -->
<g id="node13" class="node"><title>Node7</title>
<polygon fill="white" stroke="#bfbfbf" points="1262,-58.5 1262,-79.5 1306,-79.5 1306,-58.5 1262,-58.5"/>
<text text-anchor="middle" x="1284" y="-66.5" font-family="Helvetica,sans-Serif" font-size="10.00">vector</text>
</g>
<!-- Node3&#45;&gt;Node7 -->
<g id="edge114" class="edge"><title>Node3&#45;&gt;Node7</title>
<path fill="none" stroke="midnightblue" d="M997.762,-420.437C1000.82,-404.056 1008.17,-371.921 1022,-348 1057.11,-287.283 1076.05,-277.998 1129,-232 1184.47,-183.813 1222.47,-197.914 1265,-138 1275.09,-123.791 1279.82,-104.441 1282.05,-89.8476"/>
<polygon fill="midnightblue" stroke="midnightblue" points="1285.54,-90.1356 1283.3,-79.7794 1278.59,-89.2694 1285.54,-90.1356"/>
</g>
<!-- Node9 -->
<g id="node17" class="node"><title>Node9</title>
<polygon fill="white" stroke="#bfbfbf" points="916,-290.5 916,-311.5 968,-311.5 968,-290.5 916,-290.5"/>
<text text-anchor="middle" x="942" y="-298.5" font-family="Helvetica,sans-Serif" font-size="10.00">memory</text>
</g>
<!-- Node3&#45;&gt;Node9 -->
<g id="edge110" class="edge"><title>Node3&#45;&gt;Node9</title>
<path fill="none" stroke="midnightblue" d="M991.581,-420.362C982.602,-398.746 962.093,-349.372 950.461,-321.369"/>
<polygon fill="midnightblue" stroke="midnightblue" points="953.548,-319.678 946.48,-311.785 947.084,-322.363 953.548,-319.678"/>
</g>
<!-- Node3&#45;&gt;Node12 -->
<g id="edge22" class="edge"><title>Node3&#45;&gt;Node12</title>
<path fill="none" stroke="midnightblue" d="M1040.98,-420.48C1121.03,-400.82 1283.22,-356.461 1319,-312 1343.57,-281.47 1343.36,-232.989 1340.81,-205.602"/>
<polygon fill="midnightblue" stroke="midnightblue" points="1344.28,-205.132 1339.68,-195.586 1337.32,-205.915 1344.28,-205.132"/>
</g>
<!-- Node19 -->
<g id="node38" class="node"><title>Node19</title>
<a xlink:href="_data_manager_8h.html" target="_top" xlink:title="DataManager.h">
<polygon fill="white" stroke="black" points="753.5,-355.5 753.5,-376.5 836.5,-376.5 836.5,-355.5 753.5,-355.5"/>
<text text-anchor="middle" x="795" y="-363.5" font-family="Helvetica,sans-Serif" font-size="10.00">DataManager.h</text>
</a>
</g>
<!-- Node3&#45;&gt;Node19 -->
<g id="edge38" class="edge"><title>Node3&#45;&gt;Node19</title>
<path fill="none" stroke="midnightblue" d="M963.259,-420.412C928.947,-409.316 874.913,-391.843 837.371,-379.702"/>
<polygon fill="midnightblue" stroke="midnightblue" points="838.319,-376.33 827.727,-376.584 836.165,-382.991 838.319,-376.33"/>
</g>
<!-- Node4&#45;&gt;Node5 -->
<g id="edge8" class="edge"><title>Node4&#45;&gt;Node5</title>
<path fill="none" stroke="midnightblue" d="M1078.57,-348.919C1084.22,-304.517 1092.84,-184.191 1033,-116 980.345,-55.9952 941.028,-74.8757 863,-58 695.433,-21.7588 489.005,-13.4324 411.935,-11.5444"/>
<polygon fill="midnightblue" stroke="midnightblue" points="412.012,-8.04539 401.936,-11.3185 411.854,-15.0436 412.012,-8.04539"/>
</g>
<!-- Node6 -->
<g id="node11" class="node"><title>Node6</title>
<polygon fill="white" stroke="#bfbfbf" points="977.5,-232.5 977.5,-253.5 1006.5,-253.5 1006.5,-232.5 977.5,-232.5"/>
<text text-anchor="middle" x="992" y="-240.5" font-family="Helvetica,sans-Serif" font-size="10.00">list</text>
</g>
<!-- Node4&#45;&gt;Node6 -->
<g id="edge10" class="edge"><title>Node4&#45;&gt;Node6</title>
<path fill="none" stroke="midnightblue" d="M1064.32,-348.897C1048.8,-326.17 1021.45,-286.123 1005.2,-262.326"/>
<polygon fill="midnightblue" stroke="midnightblue" points="1007.9,-260.072 999.367,-253.787 1002.12,-264.019 1007.9,-260.072"/>
</g>
<!-- Node4&#45;&gt;Node7 -->
<g id="edge12" class="edge"><title>Node4&#45;&gt;Node7</title>
<path fill="none" stroke="midnightblue" d="M1112.14,-348.884C1184.11,-314.378 1342.27,-236.326 1387,-196 1410.26,-175.033 1417.69,-167.898 1427,-138 1441.94,-90.0207 1363.09,-75.3845 1316.45,-70.9339"/>
<polygon fill="midnightblue" stroke="midnightblue" points="1316.45,-67.422 1306.19,-70.0683 1315.86,-74.3972 1316.45,-67.422"/>
</g>
<!-- Node4&#45;&gt;Node8 -->
<g id="edge14" class="edge"><title>Node4&#45;&gt;Node8</title>
<path fill="none" stroke="midnightblue" d="M1093.92,-348.632C1103.65,-338.557 1115.41,-325.268 1124,-312 1133.89,-296.714 1142.16,-277.744 1147.67,-263.566"/>
<polygon fill="midnightblue" stroke="midnightblue" points="1151.1,-264.391 1151.32,-253.798 1144.54,-261.941 1151.1,-264.391"/>
</g>
<!-- Node4&#45;&gt;Node9 -->
<g id="edge16" class="edge"><title>Node4&#45;&gt;Node9</title>
<path fill="none" stroke="midnightblue" d="M1040.79,-348.922C1019.77,-338.726 993.319,-325.894 973.077,-316.074"/>
<polygon fill="midnightblue" stroke="midnightblue" points="974.498,-312.874 963.973,-311.658 971.442,-319.172 974.498,-312.874"/>
</g>
<!-- Node4&#45;&gt;Node10 -->
<g id="edge18" class="edge"><title>Node4&#45;&gt;Node10</title>
<path fill="none" stroke="midnightblue" d="M1121.75,-351.494C1157.73,-340.085 1207.33,-324.358 1241.57,-313.501"/>
<polygon fill="midnightblue" stroke="midnightblue" points="1242.76,-316.796 1251.24,-310.437 1240.65,-310.124 1242.76,-316.796"/>
</g>
<!-- Node4&#45;&gt;Node11 -->
<g id="edge20" class="edge"><title>Node4&#45;&gt;Node11</title>
<path fill="none" stroke="midnightblue" d="M1070.25,-348.812C1055.82,-305.717 1018.17,-193.228 1002.74,-147.139"/>
<polygon fill="midnightblue" stroke="midnightblue" points="1006.06,-146.013 999.562,-137.641 999.417,-148.235 1006.06,-146.013"/>
</g>
<!-- Node13 -->
<g id="node25" class="node"><title>Node13</title>
<polygon fill="white" stroke="#bfbfbf" points="1291,-0.5 1291,-21.5 1347,-21.5 1347,-0.5 1291,-0.5"/>
<text text-anchor="middle" x="1319" y="-8.5" font-family="Helvetica,sans-Serif" font-size="10.00">algorithm</text>
</g>
<!-- Node12&#45;&gt;Node13 -->
<g id="edge24" class="edge"><title>Node12&#45;&gt;Node13</title>
<path fill="none" stroke="midnightblue" d="M1377.96,-174.326C1396.28,-167.216 1416.27,-155.808 1427,-138 1432.05,-129.626 1430.81,-125.007 1427,-116 1410.45,-76.8269 1371.35,-45.0527 1345.02,-27.0842"/>
<polygon fill="midnightblue" stroke="midnightblue" points="1346.9,-24.1333 1336.63,-21.5291 1343.04,-29.9692 1346.9,-24.1333"/>
</g>
<!-- Node14 -->
<g id="node27" class="node"><title>Node14</title>
<polygon fill="white" stroke="#bfbfbf" points="1197.5,-116.5 1197.5,-137.5 1256.5,-137.5 1256.5,-116.5 1197.5,-116.5"/>
<text text-anchor="middle" x="1227" y="-124.5" font-family="Helvetica,sans-Serif" font-size="10.00">stdexcept</text>
</g>
<!-- Node12&#45;&gt;Node14 -->
<g id="edge26" class="edge"><title>Node12&#45;&gt;Node14</title>
<path fill="none" stroke="midnightblue" d="M1317.9,-174.497C1300.72,-165.519 1275.77,-152.484 1256.36,-142.339"/>
<polygon fill="midnightblue" stroke="midnightblue" points="1257.81,-139.15 1247.33,-137.621 1254.57,-145.354 1257.81,-139.15"/>
</g>
<!-- Node15 -->
<g id="node29" class="node"><title>Node15</title>
<a xlink:href="printable_8h.html" target="_top" xlink:title="printable.h">
<polygon fill="white" stroke="black" points="1080,-116.5 1080,-137.5 1142,-137.5 1142,-116.5 1080,-116.5"/>
<text text-anchor="middle" x="1111" y="-124.5" font-family="Helvetica,sans-Serif" font-size="10.00">printable.h</text>
</a>
</g>
<!-- Node12&#45;&gt;Node15 -->
<g id="edge28" class="edge"><title>Node12&#45;&gt;Node15</title>
<path fill="none" stroke="midnightblue" d="M1297.94,-174.764C1256.9,-164.279 1193.42,-148.059 1152.03,-137.484"/>
<polygon fill="midnightblue" stroke="midnightblue" points="1152.83,-134.074 1142.27,-134.99 1151.09,-140.856 1152.83,-134.074"/>
</g>
<!-- Node17 -->
<g id="node34" class="node"><title>Node17</title>
<a xlink:href="types_8h.html" target="_top" xlink:title="types.h">
<polygon fill="white" stroke="black" points="1311.5,-116.5 1311.5,-137.5 1360.5,-137.5 1360.5,-116.5 1311.5,-116.5"/>
<text text-anchor="middle" x="1336" y="-124.5" font-family="Helvetica,sans-Serif" font-size="10.00">types.h</text>
</a>
</g>
<!-- Node12&#45;&gt;Node17 -->
<g id="edge34" class="edge"><title>Node12&#45;&gt;Node17</title>
<path fill="none" stroke="midnightblue" d="M1337.63,-174.362C1337.38,-166.922 1337.03,-156.743 1336.71,-147.728"/>
<polygon fill="midnightblue" stroke="midnightblue" points="1340.21,-147.444 1336.36,-137.571 1333.21,-147.685 1340.21,-147.444"/>
</g>
<!-- Node18 -->
<g id="node36" class="node"><title>Node18</title>
<polygon fill="white" stroke="#bfbfbf" points="1378,-116.5 1378,-137.5 1418,-137.5 1418,-116.5 1378,-116.5"/>
<text text-anchor="middle" x="1398" y="-124.5" font-family="Helvetica,sans-Serif" font-size="10.00">limits</text>
</g>
<!-- Node12&#45;&gt;Node18 -->
<g id="edge36" class="edge"><title>Node12&#45;&gt;Node18</title>
<path fill="none" stroke="midnightblue" d="M1349,-174.362C1357.55,-166.104 1369.58,-154.472 1379.58,-144.803"/>
<polygon fill="midnightblue" stroke="midnightblue" points="1382.31,-147.037 1387.06,-137.571 1377.44,-142.004 1382.31,-147.037"/>
</g>
<!-- Node15&#45;&gt;Node7 -->
<g id="edge30" class="edge"><title>Node15&#45;&gt;Node7</title>
<path fill="none" stroke="midnightblue" d="M1142.09,-116.921C1168.93,-108.173 1208.98,-95.01 1252.12,-80.2595"/>
<polygon fill="midnightblue" stroke="midnightblue" points="1253.34,-83.5416 1261.67,-76.988 1251.07,-76.9198 1253.34,-83.5416"/>
</g>
<!-- Node16 -->
<g id="node32" class="node"><title>Node16</title>
<polygon fill="white" stroke="#bfbfbf" points="1192,-58.5 1192,-79.5 1244,-79.5 1244,-58.5 1192,-58.5"/>
<text text-anchor="middle" x="1218" y="-66.5" font-family="Helvetica,sans-Serif" font-size="10.00">ostream</text>
</g>
<!-- Node15&#45;&gt;Node16 -->
<g id="edge32" class="edge"><title>Node15&#45;&gt;Node16</title>
<path fill="none" stroke="midnightblue" d="M1130.63,-116.362C1147.14,-107.409 1170.97,-94.4908 1189.58,-84.4064"/>
<polygon fill="midnightblue" stroke="midnightblue" points="1191.38,-87.4132 1198.5,-79.5707 1188.04,-81.2592 1191.38,-87.4132"/>
</g>
<!-- Node19&#45;&gt;Node5 -->
<g id="edge106" class="edge"><title>Node19&#45;&gt;Node5</title>
<path fill="none" stroke="midnightblue" d="M763.666,-355.473C755.95,-352.956 747.694,-350.326 740,-348 573.101,-297.537 362,-417.361 362,-243 362,-243 362,-243 362,-127 362,-93.175 369.965,-54.5229 375.581,-31.474"/>
<polygon fill="midnightblue" stroke="midnightblue" points="378.974,-32.3312 378.031,-21.7784 372.188,-30.6159 378.974,-32.3312"/>
</g>
<!-- Node19&#45;&gt;Node6 -->
<g id="edge104" class="edge"><title>Node19&#45;&gt;Node6</title>
<path fill="none" stroke="midnightblue" d="M803.689,-355.324C817.24,-339.262 844.886,-308.766 874,-290 876.089,-288.653 933.795,-265.879 967.721,-252.536"/>
<polygon fill="midnightblue" stroke="midnightblue" points="969.372,-255.647 977.398,-248.732 966.811,-249.133 969.372,-255.647"/>
</g>
<!-- Node19&#45;&gt;Node9 -->
<g id="edge108" class="edge"><title>Node19&#45;&gt;Node9</title>
<path fill="none" stroke="midnightblue" d="M818.945,-355.412C843.398,-344.6 881.547,-327.731 908.886,-315.642"/>
<polygon fill="midnightblue" stroke="midnightblue" points="910.335,-318.829 918.065,-311.584 907.504,-312.427 910.335,-318.829"/>
</g>
<!-- Node20 -->
<g id="node40" class="node"><title>Node20</title>
<a xlink:href="_t_calibration_data_8h.html" target="_top" xlink:title="tree/TCalibrationData.h">
<polygon fill="white" stroke="black" points="533,-232.5 533,-253.5 651,-253.5 651,-232.5 533,-232.5"/>
<text text-anchor="middle" x="592" y="-240.5" font-family="Helvetica,sans-Serif" font-size="10.00">tree/TCalibrationData.h</text>
</a>
</g>
<!-- Node19&#45;&gt;Node20 -->
<g id="edge40" class="edge"><title>Node19&#45;&gt;Node20</title>
<path fill="none" stroke="midnightblue" d="M777.34,-355.3C741.483,-333.573 659.997,-284.2 618.039,-258.777"/>
<polygon fill="midnightblue" stroke="midnightblue" points="619.841,-255.777 609.474,-253.588 616.213,-261.763 619.841,-255.777"/>
</g>
<!-- Node32 -->
<g id="node73" class="node"><title>Node32</title>
<a xlink:href="_t_data_record_8h.html" target="_top" xlink:title="tree/TDataRecord.h">
<polygon fill="white" stroke="black" points="717.5,-232.5 717.5,-253.5 820.5,-253.5 820.5,-232.5 717.5,-232.5"/>
<text text-anchor="middle" x="769" y="-240.5" font-family="Helvetica,sans-Serif" font-size="10.00">tree/TDataRecord.h</text>
</a>
</g>
<!-- Node19&#45;&gt;Node32 -->
<g id="edge82" class="edge"><title>Node19&#45;&gt;Node32</title>
<path fill="none" stroke="midnightblue" d="M780.457,-355.457C768.384,-345.729 752.086,-330.082 745,-312 738.533,-295.497 746.279,-276.45 754.647,-262.554"/>
<polygon fill="midnightblue" stroke="midnightblue" points="757.8,-264.129 760.373,-253.851 751.953,-260.281 757.8,-264.129"/>
</g>
<!-- Node33 -->
<g id="node79" class="node"><title>Node33</title>
<a xlink:href="_data_base_8h.html" target="_top" xlink:title="DataBase.h">
<polygon fill="white" stroke="black" points="754,-290.5 754,-311.5 822,-311.5 822,-290.5 754,-290.5"/>
<text text-anchor="middle" x="788" y="-298.5" font-family="Helvetica,sans-Serif" font-size="10.00">DataBase.h</text>
</a>
</g>
<!-- Node19&#45;&gt;Node33 -->
<g id="edge92" class="edge"><title>Node19&#45;&gt;Node33</title>
<path fill="none" stroke="midnightblue" d="M793.844,-355.267C792.866,-346.18 791.435,-332.892 790.233,-321.74"/>
<polygon fill="midnightblue" stroke="midnightblue" points="793.685,-321.101 789.134,-311.534 786.725,-321.851 793.685,-321.101"/>
</g>
<!-- Node20&#45;&gt;Node5 -->
<g id="edge74" class="edge"><title>Node20&#45;&gt;Node5</title>
<path fill="none" stroke="midnightblue" d="M571.113,-232.458C555.45,-223.937 534.041,-210.933 518,-196 488.9,-168.911 422.286,-72.1911 394.042,-30.4301"/>
<polygon fill="midnightblue" stroke="midnightblue" points="396.818,-28.2863 388.325,-21.9519 391.014,-32.1999 396.818,-28.2863"/>
</g>
<!-- Node21 -->
<g id="node42" class="node"><title>Node21</title>
<a xlink:href="_t_i_d_8h.html" target="_top" xlink:title="TID.h">
<polygon fill="white" stroke="black" points="729.5,-174.5 729.5,-195.5 770.5,-195.5 770.5,-174.5 729.5,-174.5"/>
<text text-anchor="middle" x="750" y="-182.5" font-family="Helvetica,sans-Serif" font-size="10.00">TID.h</text>
</a>
</g>
<!-- Node20&#45;&gt;Node21 -->
<g id="edge42" class="edge"><title>Node20&#45;&gt;Node21</title>
<path fill="none" stroke="midnightblue" d="M620.613,-232.497C648.614,-222.218 691.11,-206.618 719.682,-196.129"/>
<polygon fill="midnightblue" stroke="midnightblue" points="720.98,-199.381 729.161,-192.65 718.568,-192.81 720.98,-199.381"/>
</g>
<!-- Node26 -->
<g id="node56" class="node"><title>Node26</title>
<polygon fill="white" stroke="#bfbfbf" points="612.5,-58.5 612.5,-79.5 653.5,-79.5 653.5,-58.5 612.5,-58.5"/>
<text text-anchor="middle" x="633" y="-66.5" font-family="Helvetica,sans-Serif" font-size="10.00">ctime</text>
</g>
<!-- Node20&#45;&gt;Node26 -->
<g id="edge76" class="edge"><title>Node20&#45;&gt;Node26</title>
<path fill="none" stroke="midnightblue" d="M577.633,-232.382C555.917,-215.331 515.614,-179.514 500,-138 496.558,-128.848 494.354,-123.983 500,-116 512.066,-98.9392 567.148,-83.7386 602.533,-75.4996"/>
<polygon fill="midnightblue" stroke="midnightblue" points="603.397,-78.8926 612.376,-73.2682 601.85,-72.0658 603.397,-78.8926"/>
</g>
<!-- Node31 -->
<g id="node70" class="node"><title>Node31</title>
<a xlink:href="_git_info_8h.html" target="_top" xlink:title="base/GitInfo.h">
<polygon fill="white" stroke="black" points="390,-174.5 390,-195.5 468,-195.5 468,-174.5 390,-174.5"/>
<text text-anchor="middle" x="429" y="-182.5" font-family="Helvetica,sans-Serif" font-size="10.00">base/GitInfo.h</text>
</a>
</g>
<!-- Node20&#45;&gt;Node31 -->
<g id="edge78" class="edge"><title>Node20&#45;&gt;Node31</title>
<path fill="none" stroke="midnightblue" d="M562.482,-232.497C536.024,-223.082 497.021,-209.204 468,-198.877"/>
<polygon fill="midnightblue" stroke="midnightblue" points="469.168,-195.578 458.573,-195.523 466.821,-202.173 469.168,-195.578"/>
</g>
<!-- Node21&#45;&gt;Node11 -->
<g id="edge44" class="edge"><title>Node21&#45;&gt;Node11</title>
<path fill="none" stroke="midnightblue" d="M770.581,-180.855C806.57,-173.504 883.457,-157.346 957.782,-138.202"/>
<polygon fill="midnightblue" stroke="midnightblue" points="958.975,-141.508 967.773,-135.606 957.215,-134.733 958.975,-141.508"/>
</g>
<!-- Node21&#45;&gt;Node14 -->
<g id="edge68" class="edge"><title>Node21&#45;&gt;Node14</title>
<path fill="none" stroke="midnightblue" d="M770.898,-182.752C830.389,-176.311 1005.74,-157.021 1151,-138 1162.86,-136.447 1175.74,-134.631 1187.47,-132.928"/>
<polygon fill="midnightblue" stroke="midnightblue" points="1188.04,-136.382 1197.43,-131.47 1187.03,-129.456 1188.04,-136.382"/>
</g>
<!-- Node21&#45;&gt;Node15 -->
<g id="edge46" class="edge"><title>Node21&#45;&gt;Node15</title>
<path fill="none" stroke="midnightblue" d="M770.706,-181.673C828.442,-172.397 992.052,-146.111 1069.45,-133.676"/>
<polygon fill="midnightblue" stroke="midnightblue" points="1070.46,-137.059 1079.78,-132.017 1069.35,-130.147 1070.46,-137.059"/>
</g>
<!-- Node22 -->
<g id="node46" class="node"><title>Node22</title>
<a xlink:href="time_8h.html" target="_top" xlink:title="base/std_ext/time.h">
<polygon fill="white" stroke="black" points="779.5,-116.5 779.5,-137.5 882.5,-137.5 882.5,-116.5 779.5,-116.5"/>
<text text-anchor="middle" x="831" y="-124.5" font-family="Helvetica,sans-Serif" font-size="10.00">base/std_ext/time.h</text>
</a>
</g>
<!-- Node21&#45;&gt;Node22 -->
<g id="edge48" class="edge"><title>Node21&#45;&gt;Node22</title>
<path fill="none" stroke="midnightblue" d="M764.857,-174.362C776.846,-165.777 793.927,-153.546 807.728,-143.664"/>
<polygon fill="midnightblue" stroke="midnightblue" points="810.145,-146.238 816.238,-137.571 806.069,-140.547 810.145,-146.238"/>
</g>
<!-- Node21&#45;&gt;Node26 -->
<g id="edge72" class="edge"><title>Node21&#45;&gt;Node26</title>
<path fill="none" stroke="midnightblue" d="M750.104,-174.417C749.701,-159.709 746.919,-132.986 733,-116 715.497,-94.641 686.058,-82.4416 663.642,-75.8544"/>
<polygon fill="midnightblue" stroke="midnightblue" points="664.472,-72.4532 653.905,-73.21 662.638,-79.2085 664.472,-72.4532"/>
</g>
<!-- Node27 -->
<g id="node58" class="node"><title>Node27</title>
<polygon fill="white" stroke="#bfbfbf" points="542,-116.5 542,-137.5 604,-137.5 604,-116.5 542,-116.5"/>
<text text-anchor="middle" x="573" y="-124.5" font-family="Helvetica,sans-Serif" font-size="10.00">type_traits</text>
</g>
<!-- Node21&#45;&gt;Node27 -->
<g id="edge62" class="edge"><title>Node21&#45;&gt;Node27</title>
<path fill="none" stroke="midnightblue" d="M729.349,-178.233C701.175,-169.001 650.073,-152.256 613.972,-140.426"/>
<polygon fill="midnightblue" stroke="midnightblue" points="614.812,-137.018 604.219,-137.23 612.632,-143.67 614.812,-137.018"/>
</g>
<!-- Node28 -->
<g id="node60" class="node"><title>Node28</title>
<polygon fill="white" stroke="#bfbfbf" points="622,-116.5 622,-137.5 660,-137.5 660,-116.5 622,-116.5"/>
<text text-anchor="middle" x="641" y="-124.5" font-family="Helvetica,sans-Serif" font-size="10.00">tuple</text>
</g>
<!-- Node21&#45;&gt;Node28 -->
<g id="edge64" class="edge"><title>Node21&#45;&gt;Node28</title>
<path fill="none" stroke="midnightblue" d="M730.261,-174.497C713.179,-165.407 688.278,-152.157 669.114,-141.96"/>
<polygon fill="midnightblue" stroke="midnightblue" points="670.698,-138.838 660.226,-137.231 667.41,-145.018 670.698,-138.838"/>
</g>
<!-- Node29 -->
<g id="node62" class="node"><title>Node29</title>
<polygon fill="white" stroke="#bfbfbf" points="678,-116.5 678,-137.5 724,-137.5 724,-116.5 678,-116.5"/>
<text text-anchor="middle" x="701" y="-124.5" font-family="Helvetica,sans-Serif" font-size="10.00">cstdint</text>
</g>
<!-- Node21&#45;&gt;Node29 -->
<g id="edge66" class="edge"><title>Node21&#45;&gt;Node29</title>
<path fill="none" stroke="midnightblue" d="M741.013,-174.362C734.175,-166.268 724.598,-154.932 716.528,-145.38"/>
<polygon fill="midnightblue" stroke="midnightblue" points="719.058,-142.951 709.93,-137.571 713.71,-147.468 719.058,-142.951"/>
</g>
<!-- Node30 -->
<g id="node65" class="node"><title>Node30</title>
<polygon fill="white" stroke="#bfbfbf" points="900,-116.5 900,-137.5 950,-137.5 950,-116.5 900,-116.5"/>
<text text-anchor="middle" x="925" y="-124.5" font-family="Helvetica,sans-Serif" font-size="10.00">iomanip</text>
</g>
<!-- Node21&#45;&gt;Node30 -->
<g id="edge70" class="edge"><title>Node21&#45;&gt;Node30</title>
<path fill="none" stroke="midnightblue" d="M770.762,-178.119C800.224,-168.354 854.538,-150.353 890.214,-138.529"/>
<polygon fill="midnightblue" stroke="midnightblue" points="891.355,-141.838 899.746,-135.37 889.153,-135.194 891.355,-141.838"/>
</g>
<!-- Node23 -->
<g id="node48" class="node"><title>Node23</title>
<a xlink:href="string_8h.html" target="_top" xlink:title="base/std_ext/string.h">
<polygon fill="white" stroke="black" points="1066,-58.5 1066,-79.5 1174,-79.5 1174,-58.5 1066,-58.5"/>
<text text-anchor="middle" x="1120" y="-66.5" font-family="Helvetica,sans-Serif" font-size="10.00">base/std_ext/string.h</text>
</a>
</g>
<!-- Node22&#45;&gt;Node23 -->
<g id="edge50" class="edge"><title>Node22&#45;&gt;Node23</title>
<path fill="none" stroke="midnightblue" d="M882.667,-116.631C931.628,-106.805 1005.25,-92.0299 1057.49,-81.5446"/>
<polygon fill="midnightblue" stroke="midnightblue" points="1058.2,-84.9726 1067.32,-79.5733 1056.82,-78.1095 1058.2,-84.9726"/>
</g>
<!-- Node25 -->
<g id="node54" class="node"><title>Node25</title>
<polygon fill="white" stroke="#bfbfbf" points="808,-58.5 808,-79.5 854,-79.5 854,-58.5 808,-58.5"/>
<text text-anchor="middle" x="831" y="-66.5" font-family="Helvetica,sans-Serif" font-size="10.00">cstring</text>
</g>
<!-- Node22&#45;&gt;Node25 -->
<g id="edge58" class="edge"><title>Node22&#45;&gt;Node25</title>
<path fill="none" stroke="midnightblue" d="M831,-116.362C831,-108.922 831,-98.7427 831,-89.7276"/>
<polygon fill="midnightblue" stroke="midnightblue" points="834.5,-89.5706 831,-79.5707 827.5,-89.5707 834.5,-89.5706"/>
</g>
<!-- Node22&#45;&gt;Node26 -->
<g id="edge60" class="edge"><title>Node22&#45;&gt;Node26</title>
<path fill="none" stroke="midnightblue" d="M795.144,-116.497C757.513,-105.474 698.994,-88.3314 663.505,-77.9358"/>
<polygon fill="midnightblue" stroke="midnightblue" points="664.292,-74.5193 653.711,-75.0669 662.324,-81.237 664.292,-74.5193"/>
</g>
<!-- Node23&#45;&gt;Node5 -->
<g id="edge52" class="edge"><title>Node23&#45;&gt;Node5</title>
<path fill="none" stroke="midnightblue" d="M1065.87,-59.7911C1061.19,-59.1317 1056.51,-58.5221 1052,-58 805.98,-29.5442 507.079,-15.9799 411.754,-12.1629"/>
<polygon fill="midnightblue" stroke="midnightblue" points="411.784,-8.66152 401.654,-11.7648 411.508,-15.6561 411.784,-8.66152"/>
</g>
<!-- Node23&#45;&gt;Node13 -->
<g id="edge56" class="edge"><title>Node23&#45;&gt;Node13</title>
<path fill="none" stroke="midnightblue" d="M1156.04,-58.4966C1191.46,-48.1723 1245.3,-32.4799 1281.29,-21.9906"/>
<polygon fill="midnightblue" stroke="midnightblue" points="1282.32,-25.3372 1290.94,-19.1788 1280.36,-18.6169 1282.32,-25.3372"/>
</g>
<!-- Node24 -->
<g id="node51" class="node"><title>Node24</title>
<polygon fill="white" stroke="#bfbfbf" points="1094,-0.5 1094,-21.5 1146,-21.5 1146,-0.5 1094,-0.5"/>
<text text-anchor="middle" x="1120" y="-8.5" font-family="Helvetica,sans-Serif" font-size="10.00">sstream</text>
</g>
<!-- Node23&#45;&gt;Node24 -->
<g id="edge54" class="edge"><title>Node23&#45;&gt;Node24</title>
<path fill="none" stroke="midnightblue" d="M1120,-58.3619C1120,-50.9219 1120,-40.7427 1120,-31.7276"/>
<polygon fill="midnightblue" stroke="midnightblue" points="1123.5,-31.5706 1120,-21.5707 1116.5,-31.5707 1123.5,-31.5706"/>
</g>
<!-- Node31&#45;&gt;Node5 -->
<g id="edge80" class="edge"><title>Node31&#45;&gt;Node5</title>
<path fill="none" stroke="midnightblue" d="M426.07,-174.377C418.289,-146.172 397.003,-69.0121 386.716,-31.7203"/>
<polygon fill="midnightblue" stroke="midnightblue" points="390.048,-30.6369 384.015,-21.9277 383.3,-32.4984 390.048,-30.6369"/>
</g>
<!-- Node32&#45;&gt;Node11 -->
<g id="edge86" class="edge"><title>Node32&#45;&gt;Node11</title>
<path fill="none" stroke="midnightblue" d="M780.527,-232.319C797.038,-217.494 828.874,-190.632 860,-174 877.246,-164.785 924.256,-149.264 958.18,-138.596"/>
<polygon fill="midnightblue" stroke="midnightblue" points="959.301,-141.913 967.802,-135.59 957.213,-135.232 959.301,-141.913"/>
</g>
<!-- Node32&#45;&gt;Node21 -->
<g id="edge84" class="edge"><title>Node32&#45;&gt;Node21</title>
<path fill="none" stroke="midnightblue" d="M765.515,-232.362C763.024,-224.758 759.596,-214.294 756.596,-205.135"/>
<polygon fill="midnightblue" stroke="midnightblue" points="759.902,-203.984 753.463,-195.571 753.25,-206.163 759.902,-203.984"/>
</g>
<!-- Node32&#45;&gt;Node26 -->
<g id="edge90" class="edge"><title>Node32&#45;&gt;Node26</title>
<path fill="none" stroke="midnightblue" d="M717.294,-236.386C661.007,-226.12 573.613,-200.521 533,-138 512.992,-107.199 566.469,-86.3758 602.719,-76.2069"/>
<polygon fill="midnightblue" stroke="midnightblue" points="603.652,-79.5807 612.412,-73.6219 601.848,-72.8172 603.652,-79.5807"/>
</g>
<!-- Node32&#45;&gt;Node30 -->
<g id="edge88" class="edge"><title>Node32&#45;&gt;Node30</title>
<path fill="none" stroke="midnightblue" d="M774.902,-232.348C783.554,-217.558 800.958,-190.738 822,-174 833.185,-165.103 864.899,-151.148 890.21,-140.752"/>
<polygon fill="midnightblue" stroke="midnightblue" points="891.595,-143.967 899.541,-136.96 888.959,-137.482 891.595,-143.967"/>
</g>
<!-- Node33&#45;&gt;Node6 -->
<g id="edge98" class="edge"><title>Node33&#45;&gt;Node6</title>
<path fill="none" stroke="midnightblue" d="M822.075,-293.116C857.777,-284.573 915.328,-270.002 964,-254 965.228,-253.596 966.48,-253.168 967.741,-252.723"/>
<polygon fill="midnightblue" stroke="midnightblue" points="969.159,-255.929 977.292,-249.14 966.7,-249.375 969.159,-255.929"/>
</g>
<!-- Node33&#45;&gt;Node7 -->
<g id="edge96" class="edge"><title>Node33&#45;&gt;Node7</title>
<path fill="none" stroke="midnightblue" d="M810.066,-290.375C865.414,-263.765 1009.19,-194.897 1058,-174 1098.75,-156.557 1111.03,-157.161 1151,-138 1168.6,-129.563 1171.8,-125.221 1189,-116 1209.99,-104.746 1234.04,-92.8573 1252.69,-83.8524"/>
<polygon fill="midnightblue" stroke="midnightblue" points="1254.41,-86.9102 1261.91,-79.4249 1251.38,-80.6006 1254.41,-86.9102"/>
</g>
<!-- Node33&#45;&gt;Node8 -->
<g id="edge94" class="edge"><title>Node33&#45;&gt;Node8</title>
<path fill="none" stroke="midnightblue" d="M822.197,-295.596C894.341,-284.194 1060.91,-257.87 1127.12,-247.406"/>
<polygon fill="midnightblue" stroke="midnightblue" points="1127.88,-250.829 1137.22,-245.811 1126.79,-243.915 1127.88,-250.829"/>
</g>
<!-- Node33&#45;&gt;Node20 -->
<g id="edge102" class="edge"><title>Node33&#45;&gt;Node20</title>
<path fill="none" stroke="midnightblue" d="M753.859,-290.897C721.578,-281.345 672.922,-266.946 637.386,-256.431"/>
<polygon fill="midnightblue" stroke="midnightblue" points="638.318,-253.056 627.736,-253.575 636.332,-259.769 638.318,-253.056"/>
</g>
<!-- Node33&#45;&gt;Node32 -->
<g id="edge100" class="edge"><title>Node33&#45;&gt;Node32</title>
<path fill="none" stroke="midnightblue" d="M784.515,-290.362C782.024,-282.758 778.596,-272.294 775.596,-263.135"/>
<polygon fill="midnightblue" stroke="midnightblue" points="778.902,-261.984 772.463,-253.571 772.25,-264.163 778.902,-261.984"/>
</g>
<!-- Node34&#45;&gt;Node5 -->
<g id="edge120" class="edge"><title>Node34&#45;&gt;Node5</title>
<path fill="none" stroke="midnightblue" d="M231.642,-420.291C236.863,-398.16 248,-345.706 248,-301 248,-301 248,-301 248,-127 248,-94.5312 249.887,-81.7744 272,-58 292.877,-35.5543 326.294,-23.3246 350.629,-17.017"/>
<polygon fill="midnightblue" stroke="midnightblue" points="351.532,-20.3999 360.44,-14.6638 349.899,-13.5929 351.532,-20.3999"/>
</g>
<!-- Node34&#45;&gt;Node6 -->
<g id="edge122" class="edge"><title>Node34&#45;&gt;Node6</title>
<path fill="none" stroke="midnightblue" d="M258.312,-430.269C373.866,-427.186 794.045,-413.988 845,-384 888.132,-358.616 870.259,-323.982 907,-290 924.966,-273.383 949.878,-260.502 968.088,-252.461"/>
<polygon fill="midnightblue" stroke="midnightblue" points="969.589,-255.626 977.428,-248.499 966.856,-249.182 969.589,-255.626"/>
</g>
<!-- Node35 -->
<g id="node97" class="node"><title>Node35</title>
<polygon fill="white" stroke="#bfbfbf" points="-0.5,-355.5 -0.5,-376.5 70.5,-376.5 70.5,-355.5 -0.5,-355.5"/>
<text text-anchor="middle" x="35" y="-363.5" font-family="Helvetica,sans-Serif" font-size="10.00">TGListBox.h</text>
</g>
<!-- Node34&#45;&gt;Node35 -->
<g id="edge124" class="edge"><title>Node34&#45;&gt;Node35</title>
<path fill="none" stroke="midnightblue" d="M199.72,-422.625C169.308,-413.74 120.462,-398.946 79,-384 75.8943,-382.88 72.6849,-381.671 69.48,-380.428"/>
<polygon fill="midnightblue" stroke="midnightblue" points="70.5727,-377.096 59.9873,-376.65 67.9844,-383.6 70.5727,-377.096"/>
</g>
<!-- Node36 -->
<g id="node99" class="node"><title>Node36</title>
<polygon fill="white" stroke="#bfbfbf" points="88,-355.5 88,-376.5 150,-376.5 150,-355.5 88,-355.5"/>
<text text-anchor="middle" x="119" y="-363.5" font-family="Helvetica,sans-Serif" font-size="10.00">TGLabel.h</text>
</g>
<!-- Node34&#45;&gt;Node36 -->
<g id="edge126" class="edge"><title>Node34&#45;&gt;Node36</title>
<path fill="none" stroke="midnightblue" d="M210.836,-420.267C193.056,-409.76 165.77,-393.637 145.556,-381.692"/>
<polygon fill="midnightblue" stroke="midnightblue" points="147.216,-378.608 136.826,-376.534 143.655,-384.634 147.216,-378.608"/>
</g>
<!-- Node37 -->
<g id="node101" class="node"><title>Node37</title>
<polygon fill="white" stroke="#bfbfbf" points="167.5,-355.5 167.5,-376.5 220.5,-376.5 220.5,-355.5 167.5,-355.5"/>
<text text-anchor="middle" x="194" y="-363.5" font-family="Helvetica,sans-Serif" font-size="10.00">TExec.h</text>
</g>
<!-- Node34&#45;&gt;Node37 -->
<g id="edge128" class="edge"><title>Node34&#45;&gt;Node37</title>
<path fill="none" stroke="midnightblue" d="M223.22,-420.267C218.124,-410.801 210.572,-396.777 204.423,-385.357"/>
<polygon fill="midnightblue" stroke="midnightblue" points="207.495,-383.679 199.672,-376.534 201.331,-386.998 207.495,-383.679"/>
</g>
</g>
</svg>
