<?xml version="1.0" encoding="UTF-8" standalone="no"?>
<!DOCTYPE svg PUBLIC "-//W3C//DTD SVG 1.1//EN"
 "http://www.w3.org/Graphics/SVG/1.1/DTD/svg11.dtd">
<!-- Generated by graphviz version 2.26.3 (20100126.1600)
 -->
<!-- Title: src/analysis/input/ant/AntReader.h Pages: 1 -->
<svg width="1419pt" height="464pt"
 viewBox="0.00 0.00 1419.00 464.00" xmlns="http://www.w3.org/2000/svg" xmlns:xlink="http://www.w3.org/1999/xlink">
<g id="graph1" class="graph" transform="scale(1 1) rotate(0) translate(4 460)">
<title>src/analysis/input/ant/AntReader.h</title>
<polygon fill="white" stroke="white" points="-4,5 -4,-460 1416,-460 1416,5 -4,5"/>
<!-- Node1 -->
<g id="node1" class="node"><title>Node1</title>
<polygon fill="#bfbfbf" stroke="black" points="982.5,-421 982.5,-455 1075.5,-455 1075.5,-421 982.5,-421"/>
<text text-anchor="start" x="990.5" y="-442" font-family="Helvetica,sans-Serif" font-size="10.00">src/analysis/input</text>
<text text-anchor="middle" x="1029" y="-429" font-family="Helvetica,sans-Serif" font-size="10.00">/ant/AntReader.h</text>
</g>
<!-- Node2 -->
<g id="node3" class="node"><title>Node2</title>
<a xlink:href="_data_reader_8h.html" target="_top" xlink:title="analysis/input/DataReader.h">
<polygon fill="white" stroke="black" points="805,-362.5 805,-383.5 945,-383.5 945,-362.5 805,-362.5"/>
<text text-anchor="middle" x="875" y="-370.5" font-family="Helvetica,sans-Serif" font-size="10.00">analysis/input/DataReader.h</text>
</a>
</g>
<!-- Node1&#45;&gt;Node2 -->
<g id="edge2" class="edge"><title>Node1&#45;&gt;Node2</title>
<path fill="none" stroke="midnightblue" d="M988.538,-420.922C964.054,-410.588 933.152,-397.545 909.771,-387.676"/>
<polygon fill="midnightblue" stroke="midnightblue" points="910.826,-384.322 900.252,-383.658 908.104,-390.772 910.826,-384.322"/>
</g>
<!-- Node6 -->
<g id="node11" class="node"><title>Node6</title>
<polygon fill="white" stroke="#bfbfbf" points="207,-116.5 207,-137.5 263,-137.5 263,-116.5 207,-116.5"/>
<text text-anchor="middle" x="235" y="-124.5" font-family="Helvetica,sans-Serif" font-size="10.00">Rtypes.h</text>
</g>
<!-- Node1&#45;&gt;Node6 -->
<g id="edge122" class="edge"><title>Node1&#45;&gt;Node6</title>
<path fill="none" stroke="midnightblue" d="M982.196,-436.135C799.048,-428.227 141,-393.842 141,-308 141,-308 141,-308 141,-243 141,-199.729 180.97,-163.566 208.783,-143.64"/>
<polygon fill="midnightblue" stroke="midnightblue" points="211.074,-146.311 217.319,-137.753 207.1,-140.549 211.074,-146.311"/>
</g>
<!-- Node12 -->
<g id="node23" class="node"><title>Node12</title>
<polygon fill="white" stroke="#bfbfbf" points="952.5,-0.5 952.5,-21.5 993.5,-21.5 993.5,-0.5 952.5,-0.5"/>
<text text-anchor="middle" x="973" y="-8.5" font-family="Helvetica,sans-Serif" font-size="10.00">string</text>
</g>
<!-- Node1&#45;&gt;Node12 -->
<g id="edge126" class="edge"><title>Node1&#45;&gt;Node12</title>
<path fill="none" stroke="midnightblue" d="M1075.84,-432.116C1177.85,-417.995 1411,-378.055 1411,-308 1411,-308 1411,-308 1411,-127 1411,-42.5637 1102.99,-18.1674 1003.55,-12.4915"/>
<polygon fill="midnightblue" stroke="midnightblue" points="1003.71,-8.99521 993.538,-11.9436 1003.33,-15.9848 1003.71,-8.99521"/>
</g>
<!-- Node22 -->
<g id="node49" class="node"><title>Node22</title>
<polygon fill="white" stroke="#bfbfbf" points="1047,-116.5 1047,-137.5 1099,-137.5 1099,-116.5 1047,-116.5"/>
<text text-anchor="middle" x="1073" y="-124.5" font-family="Helvetica,sans-Serif" font-size="10.00">memory</text>
</g>
<!-- Node1&#45;&gt;Node22 -->
<g id="edge124" class="edge"><title>Node1&#45;&gt;Node22</title>
<path fill="none" stroke="midnightblue" d="M1059.9,-420.893C1106.63,-393.018 1193.5,-332.894 1228,-254 1231.92,-245.041 1232.58,-240.638 1228,-232 1227.09,-230.283 1140.91,-172.447 1097.46,-143.362"/>
<polygon fill="midnightblue" stroke="midnightblue" points="1099.14,-140.276 1088.89,-137.622 1095.25,-146.093 1099.14,-140.276"/>
</g>
<!-- Node23 -->
<g id="node51" class="node"><title>Node23</title>
<a xlink:href="_unpacker_8h.html" target="_top" xlink:title="unpacker/Unpacker.h">
<polygon fill="white" stroke="black" points="1109,-232.5 1109,-253.5 1219,-253.5 1219,-232.5 1109,-232.5"/>
<text text-anchor="middle" x="1164" y="-240.5" font-family="Helvetica,sans-Serif" font-size="10.00">unpacker/Unpacker.h</text>
</a>
</g>
<!-- Node1&#45;&gt;Node23 -->
<g id="edge56" class="edge"><title>Node1&#45;&gt;Node23</title>
<path fill="none" stroke="midnightblue" d="M1040.98,-420.695C1066.08,-384.433 1124.06,-300.687 1150.46,-262.551"/>
<polygon fill="midnightblue" stroke="midnightblue" points="1153.64,-264.109 1156.46,-253.895 1147.89,-260.125 1153.64,-264.109"/>
</g>
<!-- Node24 -->
<g id="node55" class="node"><title>Node24</title>
<a xlink:href="_unpacker_writer_8h.html" target="_top" xlink:title="tree/UnpackerWriter.h">
<polygon fill="white" stroke="black" points="693.5,-297.5 693.5,-318.5 806.5,-318.5 806.5,-297.5 693.5,-297.5"/>
<text text-anchor="middle" x="750" y="-305.5" font-family="Helvetica,sans-Serif" font-size="10.00">tree/UnpackerWriter.h</text>
</a>
</g>
<!-- Node1&#45;&gt;Node24 -->
<g id="edge62" class="edge"><title>Node1&#45;&gt;Node24</title>
<path fill="none" stroke="midnightblue" d="M1016.6,-420.877C1003.11,-403.495 979.98,-377.062 954,-362 911.836,-337.555 858.405,-323.934 816.803,-316.488"/>
<polygon fill="midnightblue" stroke="midnightblue" points="817.214,-313.008 806.767,-314.77 816.033,-319.907 817.214,-313.008"/>
</g>
<!-- Node30 -->
<g id="node74" class="node"><title>Node30</title>
<a xlink:href="_reconstruct__traits_8h.html" target="_top" xlink:title="reconstruct/Reconstruct\l_traits.h">
<polygon fill="white" stroke="black" points="968,-291 968,-325 1090,-325 1090,-291 968,-291"/>
<text text-anchor="start" x="976" y="-312" font-family="Helvetica,sans-Serif" font-size="10.00">reconstruct/Reconstruct</text>
<text text-anchor="middle" x="1029" y="-299" font-family="Helvetica,sans-Serif" font-size="10.00">_traits.h</text>
</a>
</g>
<!-- Node1&#45;&gt;Node30 -->
<g id="edge88" class="edge"><title>Node1&#45;&gt;Node30</title>
<path fill="none" stroke="midnightblue" d="M1029,-420.737C1029,-398.981 1029,-361.322 1029,-335.564"/>
<polygon fill="midnightblue" stroke="midnightblue" points="1032.5,-335.334 1029,-325.334 1025.5,-335.334 1032.5,-335.334"/>
</g>
<!-- Node3 -->
<g id="node5" class="node"><title>Node3</title>
<a xlink:href="_t_slow_control_8h.html" target="_top" xlink:title="tree/TSlowControl.h">
<polygon fill="white" stroke="black" points="277,-297.5 277,-318.5 381,-318.5 381,-297.5 277,-297.5"/>
<text text-anchor="middle" x="329" y="-305.5" font-family="Helvetica,sans-Serif" font-size="10.00">tree/TSlowControl.h</text>
</a>
</g>
<!-- Node2&#45;&gt;Node3 -->
<g id="edge4" class="edge"><title>Node2&#45;&gt;Node3</title>
<path fill="none" stroke="midnightblue" d="M804.738,-364.635C697.254,-351.84 493.715,-327.609 391.247,-315.41"/>
<polygon fill="midnightblue" stroke="midnightblue" points="391.399,-311.904 381.055,-314.197 390.571,-318.855 391.399,-311.904"/>
</g>
<!-- Node2&#45;&gt;Node22 -->
<g id="edge54" class="edge"><title>Node2&#45;&gt;Node22</title>
<path fill="none" stroke="midnightblue" d="M874.554,-362.236C873.942,-337.947 874.661,-277.458 894,-232 906.88,-201.725 913.222,-193.116 940,-174 969.29,-153.09 1008.78,-140.699 1037.11,-133.937"/>
<polygon fill="midnightblue" stroke="midnightblue" points="1038.02,-137.319 1047,-131.695 1036.47,-130.492 1038.02,-137.319"/>
</g>
<!-- Node4 -->
<g id="node7" class="node"><title>Node4</title>
<a xlink:href="_t_data_record_8h.html" target="_top" xlink:title="TDataRecord.h">
<polygon fill="white" stroke="black" points="321.5,-232.5 321.5,-253.5 404.5,-253.5 404.5,-232.5 321.5,-232.5"/>
<text text-anchor="middle" x="363" y="-240.5" font-family="Helvetica,sans-Serif" font-size="10.00">TDataRecord.h</text>
</a>
</g>
<!-- Node3&#45;&gt;Node4 -->
<g id="edge6" class="edge"><title>Node3&#45;&gt;Node4</title>
<path fill="none" stroke="midnightblue" d="M334.614,-297.267C339.516,-287.896 346.755,-274.057 352.695,-262.7"/>
<polygon fill="midnightblue" stroke="midnightblue" points="355.956,-264.017 357.49,-253.534 349.754,-260.772 355.956,-264.017"/>
</g>
<!-- Node10 -->
<g id="node19" class="node"><title>Node10</title>
<a xlink:href="time_8h.html" target="_top" xlink:title="base/std_ext/time.h">
<polygon fill="white" stroke="black" points="48.5,-116.5 48.5,-137.5 151.5,-137.5 151.5,-116.5 48.5,-116.5"/>
<text text-anchor="middle" x="100" y="-124.5" font-family="Helvetica,sans-Serif" font-size="10.00">base/std_ext/time.h</text>
</a>
</g>
<!-- Node3&#45;&gt;Node10 -->
<g id="edge50" class="edge"><title>Node3&#45;&gt;Node10</title>
<path fill="none" stroke="midnightblue" d="M315.698,-297.486C277.596,-267.37 167.806,-180.593 121.262,-143.805"/>
<polygon fill="midnightblue" stroke="midnightblue" points="123.354,-140.998 113.339,-137.543 119.014,-146.489 123.354,-140.998"/>
</g>
<!-- Node18 -->
<g id="node35" class="node"><title>Node18</title>
<polygon fill="white" stroke="#bfbfbf" points="281,-116.5 281,-137.5 319,-137.5 319,-116.5 281,-116.5"/>
<text text-anchor="middle" x="300" y="-124.5" font-family="Helvetica,sans-Serif" font-size="10.00">tuple</text>
</g>
<!-- Node3&#45;&gt;Node18 -->
<g id="edge52" class="edge"><title>Node3&#45;&gt;Node18</title>
<path fill="none" stroke="midnightblue" d="M325.217,-297.389C321.524,-286.605 316.032,-269.348 313,-254 305.699,-217.043 302.362,-173.176 300.944,-147.867"/>
<polygon fill="midnightblue" stroke="midnightblue" points="304.427,-147.444 300.42,-137.636 297.436,-147.802 304.427,-147.444"/>
</g>
<!-- Node5 -->
<g id="node9" class="node"><title>Node5</title>
<a xlink:href="_t_i_d_8h.html" target="_top" xlink:title="TID.h">
<polygon fill="white" stroke="black" points="384.5,-174.5 384.5,-195.5 425.5,-195.5 425.5,-174.5 384.5,-174.5"/>
<text text-anchor="middle" x="405" y="-182.5" font-family="Helvetica,sans-Serif" font-size="10.00">TID.h</text>
</a>
</g>
<!-- Node4&#45;&gt;Node5 -->
<g id="edge8" class="edge"><title>Node4&#45;&gt;Node5</title>
<path fill="none" stroke="midnightblue" d="M370.703,-232.362C376.446,-224.431 384.443,-213.389 391.27,-203.961"/>
<polygon fill="midnightblue" stroke="midnightblue" points="394.315,-205.723 397.345,-195.571 388.645,-201.617 394.315,-205.723"/>
</g>
<!-- Node4&#45;&gt;Node6 -->
<g id="edge44" class="edge"><title>Node4&#45;&gt;Node6</title>
<path fill="none" stroke="midnightblue" d="M351.188,-232.295C329.089,-212.268 281.305,-168.964 254.409,-144.589"/>
<polygon fill="midnightblue" stroke="midnightblue" points="256.544,-141.801 246.784,-137.679 251.844,-146.988 256.544,-141.801"/>
</g>
<!-- Node16 -->
<g id="node31" class="node"><title>Node16</title>
<polygon fill="white" stroke="#bfbfbf" points="197.5,-58.5 197.5,-79.5 238.5,-79.5 238.5,-58.5 197.5,-58.5"/>
<text text-anchor="middle" x="218" y="-66.5" font-family="Helvetica,sans-Serif" font-size="10.00">ctime</text>
</g>
<!-- Node4&#45;&gt;Node16 -->
<g id="edge48" class="edge"><title>Node4&#45;&gt;Node16</title>
<path fill="none" stroke="midnightblue" d="M328.07,-232.442C288.126,-218.246 224.803,-188.738 198,-138 189.764,-122.409 196.724,-102.995 204.608,-88.7351"/>
<polygon fill="midnightblue" stroke="midnightblue" points="207.837,-90.1604 210.038,-79.7967 201.855,-86.5258 207.837,-90.1604"/>
</g>
<!-- Node21 -->
<g id="node41" class="node"><title>Node21</title>
<polygon fill="white" stroke="#bfbfbf" points="337,-116.5 337,-137.5 387,-137.5 387,-116.5 337,-116.5"/>
<text text-anchor="middle" x="362" y="-124.5" font-family="Helvetica,sans-Serif" font-size="10.00">iomanip</text>
</g>
<!-- Node4&#45;&gt;Node21 -->
<g id="edge46" class="edge"><title>Node4&#45;&gt;Node21</title>
<path fill="none" stroke="midnightblue" d="M362.908,-232.295C362.743,-213.131 362.394,-172.654 362.18,-147.843"/>
<polygon fill="midnightblue" stroke="midnightblue" points="365.678,-147.649 362.092,-137.679 358.678,-147.709 365.678,-147.649"/>
</g>
<!-- Node5&#45;&gt;Node6 -->
<g id="edge10" class="edge"><title>Node5&#45;&gt;Node6</title>
<path fill="none" stroke="midnightblue" d="M384.494,-178.004C356.925,-168.598 307.397,-151.7 272.938,-139.944"/>
<polygon fill="midnightblue" stroke="midnightblue" points="273.804,-136.541 263.21,-136.625 271.544,-143.166 273.804,-136.541"/>
</g>
<!-- Node7 -->
<g id="node13" class="node"><title>Node7</title>
<a xlink:href="printable_8h.html" target="_top" xlink:title="base/printable.h">
<polygon fill="white" stroke="black" points="481,-116.5 481,-137.5 567,-137.5 567,-116.5 481,-116.5"/>
<text text-anchor="middle" x="524" y="-124.5" font-family="Helvetica,sans-Serif" font-size="10.00">base/printable.h</text>
</a>
</g>
<!-- Node5&#45;&gt;Node7 -->
<g id="edge12" class="edge"><title>Node5&#45;&gt;Node7</title>
<path fill="none" stroke="midnightblue" d="M425.728,-174.897C444.323,-165.834 471.865,-152.41 493.064,-142.078"/>
<polygon fill="midnightblue" stroke="midnightblue" points="494.848,-145.102 502.303,-137.575 491.781,-138.81 494.848,-145.102"/>
</g>
<!-- Node5&#45;&gt;Node10 -->
<g id="edge18" class="edge"><title>Node5&#45;&gt;Node10</title>
<path fill="none" stroke="midnightblue" d="M384.036,-181.013C338.818,-172.415 230.638,-151.843 161.598,-138.714"/>
<polygon fill="midnightblue" stroke="midnightblue" points="162.186,-135.263 151.708,-136.833 160.878,-142.14 162.186,-135.263"/>
</g>
<!-- Node5&#45;&gt;Node16 -->
<g id="edge42" class="edge"><title>Node5&#45;&gt;Node16</title>
<path fill="none" stroke="midnightblue" d="M406.922,-174.436C408.989,-159.504 410.278,-132.241 396,-116 376.715,-94.0643 294.243,-79.4942 248.633,-72.9531"/>
<polygon fill="midnightblue" stroke="midnightblue" points="249.08,-69.4816 238.694,-71.571 248.116,-76.4149 249.08,-69.4816"/>
</g>
<!-- Node17 -->
<g id="node33" class="node"><title>Node17</title>
<polygon fill="white" stroke="#bfbfbf" points="883,-116.5 883,-137.5 945,-137.5 945,-116.5 883,-116.5"/>
<text text-anchor="middle" x="914" y="-124.5" font-family="Helvetica,sans-Serif" font-size="10.00">type_traits</text>
</g>
<!-- Node5&#45;&gt;Node17 -->
<g id="edge32" class="edge"><title>Node5&#45;&gt;Node17</title>
<path fill="none" stroke="midnightblue" d="M425.748,-184.168C490.533,-181.311 694.869,-170.33 872.622,-138.008"/>
<polygon fill="midnightblue" stroke="midnightblue" points="873.475,-141.41 882.673,-136.152 872.204,-134.526 873.475,-141.41"/>
</g>
<!-- Node5&#45;&gt;Node18 -->
<g id="edge34" class="edge"><title>Node5&#45;&gt;Node18</title>
<path fill="none" stroke="midnightblue" d="M385.741,-174.362C369.534,-165.409 346.147,-152.491 327.891,-142.406"/>
<polygon fill="midnightblue" stroke="midnightblue" points="329.582,-139.342 319.137,-137.571 326.198,-145.47 329.582,-139.342"/>
</g>
<!-- Node19 -->
<g id="node37" class="node"><title>Node19</title>
<polygon fill="white" stroke="#bfbfbf" points="623,-116.5 623,-137.5 669,-137.5 669,-116.5 623,-116.5"/>
<text text-anchor="middle" x="646" y="-124.5" font-family="Helvetica,sans-Serif" font-size="10.00">cstdint</text>
</g>
<!-- Node5&#45;&gt;Node19 -->
<g id="edge36" class="edge"><title>Node5&#45;&gt;Node19</title>
<path fill="none" stroke="midnightblue" d="M425.548,-180.055C467.293,-170.008 562.34,-147.134 612.913,-134.963"/>
<polygon fill="midnightblue" stroke="midnightblue" points="613.797,-138.35 622.7,-132.607 612.159,-131.544 613.797,-138.35"/>
</g>
<!-- Node20 -->
<g id="node39" class="node"><title>Node20</title>
<polygon fill="white" stroke="#bfbfbf" points="686.5,-116.5 686.5,-137.5 745.5,-137.5 745.5,-116.5 686.5,-116.5"/>
<text text-anchor="middle" x="716" y="-124.5" font-family="Helvetica,sans-Serif" font-size="10.00">stdexcept</text>
</g>
<!-- Node5&#45;&gt;Node20 -->
<g id="edge38" class="edge"><title>Node5&#45;&gt;Node20</title>
<path fill="none" stroke="midnightblue" d="M425.704,-182.239C470.026,-176.158 577.503,-160.511 676.366,-138.212"/>
<polygon fill="midnightblue" stroke="midnightblue" points="677.242,-141.602 686.211,-135.963 675.683,-134.778 677.242,-141.602"/>
</g>
<!-- Node5&#45;&gt;Node21 -->
<g id="edge40" class="edge"><title>Node5&#45;&gt;Node21</title>
<path fill="none" stroke="midnightblue" d="M397.113,-174.362C391.173,-166.35 382.878,-155.161 375.841,-145.67"/>
<polygon fill="midnightblue" stroke="midnightblue" points="378.604,-143.519 369.837,-137.571 372.981,-147.688 378.604,-143.519"/>
</g>
<!-- Node8 -->
<g id="node15" class="node"><title>Node8</title>
<polygon fill="white" stroke="#bfbfbf" points="662,-58.5 662,-79.5 706,-79.5 706,-58.5 662,-58.5"/>
<text text-anchor="middle" x="684" y="-66.5" font-family="Helvetica,sans-Serif" font-size="10.00">vector</text>
</g>
<!-- Node7&#45;&gt;Node8 -->
<g id="edge14" class="edge"><title>Node7&#45;&gt;Node8</title>
<path fill="none" stroke="midnightblue" d="M552.975,-116.497C581.008,-106.334 623.389,-90.9717 652.307,-80.4888"/>
<polygon fill="midnightblue" stroke="midnightblue" points="653.72,-83.6994 661.929,-77.0009 651.334,-77.1185 653.72,-83.6994"/>
</g>
<!-- Node9 -->
<g id="node17" class="node"><title>Node9</title>
<polygon fill="white" stroke="#bfbfbf" points="498,-58.5 498,-79.5 550,-79.5 550,-58.5 498,-58.5"/>
<text text-anchor="middle" x="524" y="-66.5" font-family="Helvetica,sans-Serif" font-size="10.00">ostream</text>
</g>
<!-- Node7&#45;&gt;Node9 -->
<g id="edge16" class="edge"><title>Node7&#45;&gt;Node9</title>
<path fill="none" stroke="midnightblue" d="M524,-116.362C524,-108.922 524,-98.7427 524,-89.7276"/>
<polygon fill="midnightblue" stroke="midnightblue" points="527.5,-89.5706 524,-79.5707 520.5,-89.5707 527.5,-89.5706"/>
</g>
<!-- Node11 -->
<g id="node21" class="node"><title>Node11</title>
<a xlink:href="string_8h.html" target="_top" xlink:title="base/std_ext/string.h">
<polygon fill="white" stroke="black" points="8,-58.5 8,-79.5 116,-79.5 116,-58.5 8,-58.5"/>
<text text-anchor="middle" x="62" y="-66.5" font-family="Helvetica,sans-Serif" font-size="10.00">base/std_ext/string.h</text>
</a>
</g>
<!-- Node10&#45;&gt;Node11 -->
<g id="edge20" class="edge"><title>Node10&#45;&gt;Node11</title>
<path fill="none" stroke="midnightblue" d="M93.0302,-116.362C87.8343,-108.431 80.5994,-97.3885 74.4225,-87.9606"/>
<polygon fill="midnightblue" stroke="midnightblue" points="77.3335,-86.0172 68.9256,-79.5707 71.4783,-89.8534 77.3335,-86.0172"/>
</g>
<!-- Node15 -->
<g id="node29" class="node"><title>Node15</title>
<polygon fill="white" stroke="#bfbfbf" points="134,-58.5 134,-79.5 180,-79.5 180,-58.5 134,-58.5"/>
<text text-anchor="middle" x="157" y="-66.5" font-family="Helvetica,sans-Serif" font-size="10.00">cstring</text>
</g>
<!-- Node10&#45;&gt;Node15 -->
<g id="edge28" class="edge"><title>Node10&#45;&gt;Node15</title>
<path fill="none" stroke="midnightblue" d="M110.455,-116.362C118.57,-108.104 130.001,-96.4725 139.504,-86.8029"/>
<polygon fill="midnightblue" stroke="midnightblue" points="142.099,-89.1562 146.612,-79.5707 137.106,-84.2497 142.099,-89.1562"/>
</g>
<!-- Node10&#45;&gt;Node16 -->
<g id="edge30" class="edge"><title>Node10&#45;&gt;Node16</title>
<path fill="none" stroke="midnightblue" d="M121.369,-116.497C140.029,-107.325 167.309,-93.9157 188.129,-83.6823"/>
<polygon fill="midnightblue" stroke="midnightblue" points="189.756,-86.7828 197.186,-79.2305 186.668,-80.5007 189.756,-86.7828"/>
</g>
<!-- Node11&#45;&gt;Node12 -->
<g id="edge22" class="edge"><title>Node11&#45;&gt;Node12</title>
<path fill="none" stroke="midnightblue" d="M116.237,-59.1133C119.197,-58.7041 122.132,-58.3287 125,-58 442.915,-21.563 831.243,-13.127 942.122,-11.4028"/>
<polygon fill="midnightblue" stroke="midnightblue" points="942.316,-14.9004 952.263,-11.2521 942.212,-7.9012 942.316,-14.9004"/>
</g>
<!-- Node13 -->
<g id="node25" class="node"><title>Node13</title>
<polygon fill="white" stroke="#bfbfbf" points="0,-0.5 0,-21.5 52,-21.5 52,-0.5 0,-0.5"/>
<text text-anchor="middle" x="26" y="-8.5" font-family="Helvetica,sans-Serif" font-size="10.00">sstream</text>
</g>
<!-- Node11&#45;&gt;Node13 -->
<g id="edge24" class="edge"><title>Node11&#45;&gt;Node13</title>
<path fill="none" stroke="midnightblue" d="M55.397,-58.3619C50.5254,-50.5131 43.7616,-39.6159 37.95,-30.2527"/>
<polygon fill="midnightblue" stroke="midnightblue" points="40.8085,-28.2213 32.5611,-21.5707 34.861,-31.9129 40.8085,-28.2213"/>
</g>
<!-- Node14 -->
<g id="node27" class="node"><title>Node14</title>
<polygon fill="white" stroke="#bfbfbf" points="70,-0.5 70,-21.5 126,-21.5 126,-0.5 70,-0.5"/>
<text text-anchor="middle" x="98" y="-8.5" font-family="Helvetica,sans-Serif" font-size="10.00">algorithm</text>
</g>
<!-- Node11&#45;&gt;Node14 -->
<g id="edge26" class="edge"><title>Node11&#45;&gt;Node14</title>
<path fill="none" stroke="midnightblue" d="M68.603,-58.3619C73.4746,-50.5131 80.2384,-39.6159 86.05,-30.2527"/>
<polygon fill="midnightblue" stroke="midnightblue" points="89.139,-31.9129 91.4389,-21.5707 83.1915,-28.2213 89.139,-31.9129"/>
</g>
<!-- Node23&#45;&gt;Node12 -->
<g id="edge58" class="edge"><title>Node23&#45;&gt;Node12</title>
<path fill="none" stroke="midnightblue" d="M1219.1,-237.649C1270.69,-230.183 1336.45,-212.88 1312,-174 1242.21,-63.012 1073.4,-25.8569 1003.79,-14.9899"/>
<polygon fill="midnightblue" stroke="midnightblue" points="1003.91,-11.469 993.504,-13.4643 1002.88,-18.3933 1003.91,-11.469"/>
</g>
<!-- Node23&#45;&gt;Node22 -->
<g id="edge60" class="edge"><title>Node23&#45;&gt;Node22</title>
<path fill="none" stroke="midnightblue" d="M1155.6,-232.295C1140.16,-212.613 1107.09,-170.45 1087.8,-145.867"/>
<polygon fill="midnightblue" stroke="midnightblue" points="1090.3,-143.387 1081.38,-137.679 1084.8,-147.707 1090.3,-143.387"/>
</g>
<!-- Node24&#45;&gt;Node4 -->
<g id="edge78" class="edge"><title>Node24&#45;&gt;Node4</title>
<path fill="none" stroke="midnightblue" d="M693.312,-298.479C618.373,-285.892 487.381,-263.891 414.914,-251.719"/>
<polygon fill="midnightblue" stroke="midnightblue" points="415.103,-248.202 404.661,-249.997 413.943,-255.105 415.103,-248.202"/>
</g>
<!-- Node24&#45;&gt;Node8 -->
<g id="edge82" class="edge"><title>Node24&#45;&gt;Node8</title>
<path fill="none" stroke="midnightblue" d="M726.293,-297.378C693.353,-281.079 635.38,-246.404 614,-196 600.116,-163.267 597.274,-147.376 614,-116 622.247,-100.53 638.098,-89.2474 652.634,-81.6208"/>
<polygon fill="midnightblue" stroke="midnightblue" points="654.43,-84.64 661.903,-77.1296 651.377,-78.3405 654.43,-84.64"/>
</g>
<!-- Node24&#45;&gt;Node12 -->
<g id="edge86" class="edge"><title>Node24&#45;&gt;Node12</title>
<path fill="none" stroke="midnightblue" d="M697.245,-297.457C611.899,-278.871 453,-237.252 453,-185 453,-185 453,-185 453,-127 453,-92.4103 460.323,-77.3407 489,-58 526.565,-32.6654 841.488,-16.7697 942.176,-12.2981"/>
<polygon fill="midnightblue" stroke="midnightblue" points="942.468,-15.7888 952.305,-11.8549 942.161,-8.7955 942.468,-15.7888"/>
</g>
<!-- Node24&#45;&gt;Node22 -->
<g id="edge84" class="edge"><title>Node24&#45;&gt;Node22</title>
<path fill="none" stroke="midnightblue" d="M759.49,-297.186C782.321,-271.836 843.172,-208.145 907,-174 948.646,-151.721 1001.97,-139.056 1036.78,-132.614"/>
<polygon fill="midnightblue" stroke="midnightblue" points="1037.72,-136.002 1046.96,-130.811 1036.5,-129.109 1037.72,-136.002"/>
</g>
<!-- Node24&#45;&gt;Node23 -->
<g id="edge64" class="edge"><title>Node24&#45;&gt;Node23</title>
<path fill="none" stroke="midnightblue" d="M806.697,-299.098C883.044,-287.111 1018.58,-265.832 1098.97,-253.21"/>
<polygon fill="midnightblue" stroke="midnightblue" points="1099.64,-256.648 1108.98,-251.639 1098.55,-249.732 1099.64,-256.648"/>
</g>
<!-- Node25 -->
<g id="node58" class="node"><title>Node25</title>
<a xlink:href="_memory_pool_8h.html" target="_top" xlink:title="tree/MemoryPool.h">
<polygon fill="white" stroke="black" points="902.5,-232.5 902.5,-253.5 1001.5,-253.5 1001.5,-232.5 902.5,-232.5"/>
<text text-anchor="middle" x="952" y="-240.5" font-family="Helvetica,sans-Serif" font-size="10.00">tree/MemoryPool.h</text>
</a>
</g>
<!-- Node24&#45;&gt;Node25 -->
<g id="edge66" class="edge"><title>Node24&#45;&gt;Node25</title>
<path fill="none" stroke="midnightblue" d="M782.904,-297.412C817.386,-286.316 871.689,-268.843 909.418,-256.702"/>
<polygon fill="midnightblue" stroke="midnightblue" points="910.663,-259.978 919.11,-253.584 908.518,-253.315 910.663,-259.978"/>
</g>
<!-- Node29 -->
<g id="node69" class="node"><title>Node29</title>
<polygon fill="white" stroke="#bfbfbf" points="683,-232.5 683,-253.5 733,-253.5 733,-232.5 683,-232.5"/>
<text text-anchor="middle" x="708" y="-240.5" font-family="Helvetica,sans-Serif" font-size="10.00">TTree.h</text>
</g>
<!-- Node24&#45;&gt;Node29 -->
<g id="edge80" class="edge"><title>Node24&#45;&gt;Node29</title>
<path fill="none" stroke="midnightblue" d="M743.065,-297.267C736.887,-287.707 727.705,-273.496 720.287,-262.015"/>
<polygon fill="midnightblue" stroke="midnightblue" points="723.173,-260.033 714.806,-253.534 717.294,-263.832 723.173,-260.033"/>
</g>
<!-- Node25&#45;&gt;Node22 -->
<g id="edge74" class="edge"><title>Node25&#45;&gt;Node22</title>
<path fill="none" stroke="midnightblue" d="M972.388,-232.439C987.661,-223.908 1008.51,-210.899 1024,-196 1039.29,-181.297 1052.92,-161.232 1061.9,-146.53"/>
<polygon fill="midnightblue" stroke="midnightblue" points="1065.01,-148.14 1067.1,-137.752 1058.99,-144.573 1065.01,-148.14"/>
</g>
<!-- Node26 -->
<g id="node60" class="node"><title>Node26</title>
<a xlink:href="memory_8h.html" target="_top" xlink:title="base/std_ext/memory.h">
<polygon fill="white" stroke="black" points="1184.5,-174.5 1184.5,-195.5 1303.5,-195.5 1303.5,-174.5 1184.5,-174.5"/>
<text text-anchor="middle" x="1244" y="-182.5" font-family="Helvetica,sans-Serif" font-size="10.00">base/std_ext/memory.h</text>
</a>
</g>
<!-- Node25&#45;&gt;Node26 -->
<g id="edge68" class="edge"><title>Node25&#45;&gt;Node26</title>
<path fill="none" stroke="midnightblue" d="M1001.53,-233.161C1050.98,-223.339 1127.16,-208.208 1180.91,-197.532"/>
<polygon fill="midnightblue" stroke="midnightblue" points="1181.88,-200.907 1191.01,-195.526 1180.52,-194.041 1181.88,-200.907"/>
</g>
<!-- Node28 -->
<g id="node66" class="node"><title>Node28</title>
<polygon fill="white" stroke="#bfbfbf" points="948.5,-174.5 948.5,-195.5 1015.5,-195.5 1015.5,-174.5 948.5,-174.5"/>
<text text-anchor="middle" x="982" y="-182.5" font-family="Helvetica,sans-Serif" font-size="10.00">forward_list</text>
</g>
<!-- Node25&#45;&gt;Node28 -->
<g id="edge76" class="edge"><title>Node25&#45;&gt;Node28</title>
<path fill="none" stroke="midnightblue" d="M957.502,-232.362C961.52,-224.595 967.081,-213.843 971.89,-204.546"/>
<polygon fill="midnightblue" stroke="midnightblue" points="975.047,-206.061 976.532,-195.571 968.829,-202.845 975.047,-206.061"/>
</g>
<!-- Node26&#45;&gt;Node22 -->
<g id="edge70" class="edge"><title>Node26&#45;&gt;Node22</title>
<path fill="none" stroke="midnightblue" d="M1213.03,-174.497C1183.68,-164.54 1139.61,-149.592 1108.77,-139.132"/>
<polygon fill="midnightblue" stroke="midnightblue" points="1109.85,-135.803 1099.25,-135.905 1107.6,-142.432 1109.85,-135.803"/>
</g>
<!-- Node27 -->
<g id="node63" class="node"><title>Node27</title>
<polygon fill="white" stroke="#bfbfbf" points="1354.5,-116.5 1354.5,-137.5 1383.5,-137.5 1383.5,-116.5 1354.5,-116.5"/>
<text text-anchor="middle" x="1369" y="-124.5" font-family="Helvetica,sans-Serif" font-size="10.00">list</text>
</g>
<!-- Node26&#45;&gt;Node27 -->
<g id="edge72" class="edge"><title>Node26&#45;&gt;Node27</title>
<path fill="none" stroke="midnightblue" d="M1266.64,-174.497C1288.82,-164.203 1322.51,-148.572 1345.11,-138.083"/>
<polygon fill="midnightblue" stroke="midnightblue" points="1346.75,-141.182 1354.35,-133.798 1343.8,-134.833 1346.75,-141.182"/>
</g>
<!-- Node30&#45;&gt;Node22 -->
<g id="edge116" class="edge"><title>Node30&#45;&gt;Node22</title>
<path fill="none" stroke="midnightblue" d="M1042.54,-290.542C1049.62,-280.439 1057.68,-267.152 1062,-254 1073.86,-217.92 1074.76,-173.144 1074.07,-147.543"/>
<polygon fill="midnightblue" stroke="midnightblue" points="1077.56,-147.387 1073.69,-137.528 1070.57,-147.654 1077.56,-147.387"/>
</g>
<!-- Node30&#45;&gt;Node25 -->
<g id="edge106" class="edge"><title>Node30&#45;&gt;Node25</title>
<path fill="none" stroke="midnightblue" d="M1008.77,-290.922C997.691,-281.57 983.985,-270.001 972.816,-260.572"/>
<polygon fill="midnightblue" stroke="midnightblue" points="974.755,-257.628 964.856,-253.852 970.239,-262.977 974.755,-257.628"/>
</g>
<!-- Node30&#45;&gt;Node27 -->
<g id="edge120" class="edge"><title>Node30&#45;&gt;Node27</title>
<path fill="none" stroke="midnightblue" d="M1090.19,-303.663C1162.03,-295.18 1279.65,-270.107 1345,-196 1356.9,-182.506 1362.98,-162.783 1366.04,-147.875"/>
<polygon fill="midnightblue" stroke="midnightblue" points="1369.56,-148.05 1367.83,-137.597 1362.66,-146.846 1369.56,-148.05"/>
</g>
<!-- Node31 -->
<g id="node76" class="node"><title>Node31</title>
<a xlink:href="_detector__t_8h.html" target="_top" xlink:title="base/Detector_t.h">
<polygon fill="white" stroke="black" points="622.5,-174.5 622.5,-195.5 717.5,-195.5 717.5,-174.5 622.5,-174.5"/>
<text text-anchor="middle" x="670" y="-182.5" font-family="Helvetica,sans-Serif" font-size="10.00">base/Detector_t.h</text>
</a>
</g>
<!-- Node30&#45;&gt;Node31 -->
<g id="edge90" class="edge"><title>Node30&#45;&gt;Node31</title>
<path fill="none" stroke="midnightblue" d="M971.133,-290.929C937.155,-280.685 893.465,-267.13 855,-254 802.885,-236.21 743.327,-213.576 706.189,-199.183"/>
<polygon fill="midnightblue" stroke="midnightblue" points="707.38,-195.891 696.792,-195.532 704.845,-202.416 707.38,-195.891"/>
</g>
<!-- Node33 -->
<g id="node87" class="node"><title>Node33</title>
<a xlink:href="mapped__vectors_8h.html" target="_top" xlink:title="base/mapped_vectors.h">
<polygon fill="white" stroke="black" points="734.5,-174.5 734.5,-195.5 855.5,-195.5 855.5,-174.5 734.5,-174.5"/>
<text text-anchor="middle" x="795" y="-182.5" font-family="Helvetica,sans-Serif" font-size="10.00">base/mapped_vectors.h</text>
</a>
</g>
<!-- Node30&#45;&gt;Node33 -->
<g id="edge108" class="edge"><title>Node30&#45;&gt;Node33</title>
<path fill="none" stroke="midnightblue" d="M978.397,-290.883C952.513,-281.355 920.884,-268.499 894,-254 865.569,-238.667 835.474,-216.774 816.032,-201.786"/>
<polygon fill="midnightblue" stroke="midnightblue" points="818.177,-199.02 808.14,-195.628 813.871,-204.539 818.177,-199.02"/>
</g>
<!-- Node34 -->
<g id="node93" class="node"><title>Node34</title>
<polygon fill="white" stroke="#bfbfbf" points="1018.5,-232.5 1018.5,-253.5 1053.5,-253.5 1053.5,-232.5 1018.5,-232.5"/>
<text text-anchor="middle" x="1036" y="-240.5" font-family="Helvetica,sans-Serif" font-size="10.00">map</text>
</g>
<!-- Node30&#45;&gt;Node34 -->
<g id="edge118" class="edge"><title>Node30&#45;&gt;Node34</title>
<path fill="none" stroke="midnightblue" d="M1030.84,-290.922C1031.73,-282.67 1032.8,-272.692 1033.74,-263.982"/>
<polygon fill="midnightblue" stroke="midnightblue" points="1037.24,-264.169 1034.83,-253.852 1030.28,-263.42 1037.24,-264.169"/>
</g>
<!-- Node31&#45;&gt;Node7 -->
<g id="edge92" class="edge"><title>Node31&#45;&gt;Node7</title>
<path fill="none" stroke="midnightblue" d="M643.561,-174.497C620.244,-165.234 586.05,-151.65 560.196,-141.379"/>
<polygon fill="midnightblue" stroke="midnightblue" points="561.322,-138.06 550.736,-137.621 558.737,-144.566 561.322,-138.06"/>
</g>
<!-- Node31&#45;&gt;Node8 -->
<g id="edge104" class="edge"><title>Node31&#45;&gt;Node8</title>
<path fill="none" stroke="midnightblue" d="M706.041,-174.481C723.806,-167.274 743.603,-155.731 754,-138 767.241,-115.419 739.478,-95.124 715.098,-82.4838"/>
<polygon fill="midnightblue" stroke="midnightblue" points="716.532,-79.2887 706.012,-78.0254 713.448,-85.5728 716.532,-79.2887"/>
</g>
<!-- Node31&#45;&gt;Node12 -->
<g id="edge100" class="edge"><title>Node31&#45;&gt;Node12</title>
<path fill="none" stroke="midnightblue" d="M717.636,-175.517C720.464,-174.993 723.268,-174.484 726,-174 776.508,-165.055 917.877,-174.417 954,-138 981.859,-109.914 980.226,-59.7462 976.601,-31.6022"/>
<polygon fill="midnightblue" stroke="midnightblue" points="980.055,-31.0351 975.116,-21.6619 973.132,-32.0692 980.055,-31.0351"/>
</g>
<!-- Node31&#45;&gt;Node17 -->
<g id="edge102" class="edge"><title>Node31&#45;&gt;Node17</title>
<path fill="none" stroke="midnightblue" d="M717.539,-174.639C756.785,-165.952 814.169,-152.946 872.791,-138.242"/>
<polygon fill="midnightblue" stroke="midnightblue" points="873.749,-141.61 882.59,-135.772 872.038,-134.823 873.749,-141.61"/>
</g>
<!-- Node31&#45;&gt;Node19 -->
<g id="edge96" class="edge"><title>Node31&#45;&gt;Node19</title>
<path fill="none" stroke="midnightblue" d="M665.598,-174.362C662.418,-166.677 658.028,-156.069 654.21,-146.84"/>
<polygon fill="midnightblue" stroke="midnightblue" points="657.432,-145.473 650.374,-137.571 650.964,-148.149 657.432,-145.473"/>
</g>
<!-- Node31&#45;&gt;Node20 -->
<g id="edge98" class="edge"><title>Node31&#45;&gt;Node20</title>
<path fill="none" stroke="midnightblue" d="M678.437,-174.362C684.792,-166.35 693.666,-155.161 701.193,-145.67"/>
<polygon fill="midnightblue" stroke="midnightblue" points="704.145,-147.581 707.616,-137.571 698.66,-143.231 704.145,-147.581"/>
</g>
<!-- Node32 -->
<g id="node79" class="node"><title>Node32</title>
<polygon fill="white" stroke="#bfbfbf" points="800.5,-116.5 800.5,-137.5 865.5,-137.5 865.5,-116.5 800.5,-116.5"/>
<text text-anchor="middle" x="833" y="-124.5" font-family="Helvetica,sans-Serif" font-size="10.00">TVector3.h</text>
</g>
<!-- Node31&#45;&gt;Node32 -->
<g id="edge94" class="edge"><title>Node31&#45;&gt;Node32</title>
<path fill="none" stroke="midnightblue" d="M699.518,-174.497C725.976,-165.082 764.979,-151.204 794,-140.877"/>
<polygon fill="midnightblue" stroke="midnightblue" points="795.179,-144.173 803.427,-137.523 792.832,-137.578 795.179,-144.173"/>
</g>
<!-- Node33&#45;&gt;Node8 -->
<g id="edge110" class="edge"><title>Node33&#45;&gt;Node8</title>
<path fill="none" stroke="midnightblue" d="M855.5,-174.824C895.186,-166.774 941.896,-154.199 954,-138 959.853,-130.167 960.293,-123.483 954,-116 923.976,-80.2981 781.541,-71.714 716.513,-69.6515"/>
<polygon fill="midnightblue" stroke="midnightblue" points="716.501,-66.1499 706.405,-69.3642 716.302,-73.147 716.501,-66.1499"/>
</g>
<!-- Node33&#45;&gt;Node17 -->
<g id="edge114" class="edge"><title>Node33&#45;&gt;Node17</title>
<path fill="none" stroke="midnightblue" d="M816.55,-174.497C835.136,-165.438 862.202,-152.246 883.095,-142.063"/>
<polygon fill="midnightblue" stroke="midnightblue" points="884.753,-145.149 892.208,-137.621 881.686,-138.856 884.753,-145.149"/>
</g>
<!-- Node33&#45;&gt;Node22 -->
<g id="edge112" class="edge"><title>Node33&#45;&gt;Node22</title>
<path fill="none" stroke="midnightblue" d="M848.521,-174.437C895.183,-165.138 964.656,-151.078 1025,-138 1028.88,-137.158 1032.94,-136.26 1036.98,-135.352"/>
<polygon fill="midnightblue" stroke="midnightblue" points="1037.89,-138.734 1046.87,-133.107 1036.34,-131.908 1037.89,-138.734"/>
</g>
</g>
</svg>
