<?xml version="1.0" encoding="UTF-8" standalone="no"?>
<!DOCTYPE svg PUBLIC "-//W3C//DTD SVG 1.1//EN"
 "http://www.w3.org/Graphics/SVG/1.1/DTD/svg11.dtd">
<!-- Generated by graphviz version 2.26.3 (20100126.1600)
 -->
<!-- Title: src/analysis/physics/misc/Basic.h Pages: 1 -->
<svg width="196pt" height="102pt"
 viewBox="0.00 0.00 196.00 102.00" xmlns="http://www.w3.org/2000/svg" xmlns:xlink="http://www.w3.org/1999/xlink">
<g id="graph1" class="graph" transform="scale(1 1) rotate(0) translate(4 98)">
<title>src/analysis/physics/misc/Basic.h</title>
<polygon fill="white" stroke="white" points="-4,5 -4,-98 193,-98 193,5 -4,5"/>
<!-- Node1 -->
<g id="node1" class="node"><title>Node1</title>
<polygon fill="#bfbfbf" stroke="black" points="61,-59 61,-93 167,-93 167,-59 61,-59"/>
<text text-anchor="start" x="69" y="-80" font-family="Helvetica,sans-Serif" font-size="10.00">src/analysis/physics</text>
<text text-anchor="middle" x="114" y="-67" font-family="Helvetica,sans-Serif" font-size="10.00">/misc/Basic.h</text>
</g>
<!-- Node2 -->
<g id="node3" class="node"><title>Node2</title>
<polygon fill="white" stroke="#bfbfbf" points="-0.5,-0.5 -0.5,-21.5 74.5,-21.5 74.5,-0.5 -0.5,-0.5"/>
<text text-anchor="middle" x="37" y="-8.5" font-family="Helvetica,sans-Serif" font-size="10.00">AntPhysics.h</text>
</g>
<!-- Node1&#45;&gt;Node2 -->
<g id="edge2" class="edge"><title>Node1&#45;&gt;Node2</title>
<path fill="none" stroke="midnightblue" d="M93.7692,-58.922C82.6909,-49.5702 68.9854,-38.0007 57.8165,-28.5724"/>
<polygon fill="midnightblue" stroke="midnightblue" points="59.7547,-25.6281 49.8556,-21.8521 55.2393,-30.9771 59.7547,-25.6281"/>
</g>
<!-- Node3 -->
<g id="node5" class="node"><title>Node3</title>
<polygon fill="white" stroke="#bfbfbf" points="92,-0.5 92,-21.5 136,-21.5 136,-0.5 92,-0.5"/>
<text text-anchor="middle" x="114" y="-8.5" font-family="Helvetica,sans-Serif" font-size="10.00">vector</text>
</g>
<!-- Node1&#45;&gt;Node3 -->
<g id="edge4" class="edge"><title>Node1&#45;&gt;Node3</title>
<path fill="none" stroke="midnightblue" d="M114,-58.922C114,-50.6704 114,-40.6922 114,-31.9818"/>
<polygon fill="midnightblue" stroke="midnightblue" points="117.5,-31.8521 114,-21.8521 110.5,-31.8521 117.5,-31.8521"/>
</g>
<!-- Node4 -->
<g id="node7" class="node"><title>Node4</title>
<polygon fill="white" stroke="#bfbfbf" points="153.5,-0.5 153.5,-21.5 188.5,-21.5 188.5,-0.5 153.5,-0.5"/>
<text text-anchor="middle" x="171" y="-8.5" font-family="Helvetica,sans-Serif" font-size="10.00">map</text>
</g>
<!-- Node1&#45;&gt;Node4 -->
<g id="edge6" class="edge"><title>Node1&#45;&gt;Node4</title>
<path fill="none" stroke="midnightblue" d="M128.976,-58.922C136.936,-49.8453 146.727,-38.6793 154.856,-29.4097"/>
<polygon fill="midnightblue" stroke="midnightblue" points="157.522,-31.6784 161.484,-21.8521 152.259,-27.0631 157.522,-31.6784"/>
</g>
</g>
</svg>
