<?xml version="1.0" encoding="UTF-8" standalone="no"?>
<!DOCTYPE svg PUBLIC "-//W3C//DTD SVG 1.1//EN"
 "http://www.w3.org/Graphics/SVG/1.1/DTD/svg11.dtd">
<!-- Generated by graphviz version 2.26.3 (20100126.1600)
 -->
<!-- Title: src/analysis/physics/misc/Basic.cc Pages: 1 -->
<svg width="1629pt" height="392pt"
 viewBox="0.00 0.00 1628.87 392.00" xmlns="http://www.w3.org/2000/svg" xmlns:xlink="http://www.w3.org/1999/xlink">
<g id="graph1" class="graph" transform="scale(1 1) rotate(0) translate(4 388)">
<title>src/analysis/physics/misc/Basic.cc</title>
<polygon fill="white" stroke="white" points="-4,5 -4,-388 1625.87,-388 1625.87,5 -4,5"/>
<!-- Node1 -->
<g id="node1" class="node"><title>Node1</title>
<polygon fill="#bfbfbf" stroke="black" points="1235.87,-349 1235.87,-383 1341.87,-383 1341.87,-349 1235.87,-349"/>
<text text-anchor="start" x="1243.87" y="-370" font-family="Helvetica,sans-Serif" font-size="10.00">src/analysis/physics</text>
<text text-anchor="middle" x="1288.87" y="-357" font-family="Helvetica,sans-Serif" font-size="10.00">/misc/Basic.cc</text>
</g>
<!-- Node2 -->
<g id="node3" class="node"><title>Node2</title>
<a xlink:href="_basic_8h.html" target="_top" xlink:title="Basic.h">
<polygon fill="white" stroke="black" points="1358.87,-116.5 1358.87,-137.5 1408.87,-137.5 1408.87,-116.5 1358.87,-116.5"/>
<text text-anchor="middle" x="1383.87" y="-124.5" font-family="Helvetica,sans-Serif" font-size="10.00">Basic.h</text>
</a>
</g>
<!-- Node1&#45;&gt;Node2 -->
<g id="edge2" class="edge"><title>Node1&#45;&gt;Node2</title>
<path fill="none" stroke="midnightblue" d="M1295.7,-348.812C1312.83,-305.717 1357.54,-193.228 1375.86,-147.139"/>
<polygon fill="midnightblue" stroke="midnightblue" points="1379.2,-148.227 1379.64,-137.641 1372.69,-145.641 1379.2,-148.227"/>
</g>
<!-- Node4 -->
<g id="node7" class="node"><title>Node4</title>
<polygon fill="white" stroke="#bfbfbf" points="845.868,-0.5 845.868,-21.5 889.868,-21.5 889.868,-0.5 845.868,-0.5"/>
<text text-anchor="middle" x="867.868" y="-8.5" font-family="Helvetica,sans-Serif" font-size="10.00">vector</text>
</g>
<!-- Node1&#45;&gt;Node4 -->
<g id="edge124" class="edge"><title>Node1&#45;&gt;Node4</title>
<path fill="none" stroke="midnightblue" d="M1342.17,-354.775C1397.13,-339.707 1474.87,-307.071 1474.87,-243 1474.87,-243 1474.87,-243 1474.87,-127 1474.87,-84.5631 1447.13,-76.3491 1408.87,-58 1363,-36.0063 1009.99,-17.6927 900.286,-12.485"/>
<polygon fill="midnightblue" stroke="midnightblue" points="900.31,-8.98237 890.157,-12.0087 899.981,-15.9746 900.31,-8.98237"/>
</g>
<!-- Node6 -->
<g id="node11" class="node"><title>Node6</title>
<a xlink:href="_particle_8h.html" target="_top" xlink:title="Particle.h">
<polygon fill="white" stroke="black" points="710.868,-290.5 710.868,-311.5 768.868,-311.5 768.868,-290.5 710.868,-290.5"/>
<text text-anchor="middle" x="739.868" y="-298.5" font-family="Helvetica,sans-Serif" font-size="10.00">Particle.h</text>
</a>
</g>
<!-- Node1&#45;&gt;Node6 -->
<g id="edge10" class="edge"><title>Node1&#45;&gt;Node6</title>
<path fill="none" stroke="midnightblue" d="M1235.73,-359.708C1125.77,-346.69 875.501,-317.059 778.909,-305.622"/>
<polygon fill="midnightblue" stroke="midnightblue" points="779.319,-302.147 768.977,-304.446 778.496,-309.098 779.319,-302.147"/>
</g>
<!-- Node11 -->
<g id="node23" class="node"><title>Node11</title>
<polygon fill="white" stroke="#bfbfbf" points="914.368,-58.5 914.368,-79.5 955.368,-79.5 955.368,-58.5 914.368,-58.5"/>
<text text-anchor="middle" x="934.868" y="-66.5" font-family="Helvetica,sans-Serif" font-size="10.00">string</text>
</g>
<!-- Node1&#45;&gt;Node11 -->
<g id="edge118" class="edge"><title>Node1&#45;&gt;Node11</title>
<path fill="none" stroke="midnightblue" d="M1252.19,-348.969C1186.66,-316.781 1049.06,-240.902 970.868,-138 959.422,-122.937 949.727,-103.711 943.292,-89.3807"/>
<polygon fill="midnightblue" stroke="midnightblue" points="946.39,-87.7268 939.204,-79.9413 939.967,-90.5087 946.39,-87.7268"/>
</g>
<!-- Node25 -->
<g id="node65" class="node"><title>Node25</title>
<polygon fill="white" stroke="#bfbfbf" points="1502.87,-290.5 1502.87,-311.5 1552.87,-311.5 1552.87,-290.5 1502.87,-290.5"/>
<text text-anchor="middle" x="1527.87" y="-298.5" font-family="Helvetica,sans-Serif" font-size="10.00">Track.h</text>
</g>
<!-- Node1&#45;&gt;Node25 -->
<g id="edge80" class="edge"><title>Node1&#45;&gt;Node25</title>
<path fill="none" stroke="midnightblue" d="M1341.97,-351.836C1382.3,-341.037 1439.12,-325.732 1488.87,-312 1490.13,-311.653 1491.41,-311.298 1492.7,-310.938"/>
<polygon fill="midnightblue" stroke="midnightblue" points="1494.02,-314.205 1502.7,-308.142 1492.13,-307.464 1494.02,-314.205"/>
</g>
<!-- Node26 -->
<g id="node67" class="node"><title>Node26</title>
<a xlink:href="_histogram_8h.html" target="_top" xlink:title="plot/Histogram.h">
<polygon fill="white" stroke="black" points="188.368,-174.5 188.368,-195.5 277.368,-195.5 277.368,-174.5 188.368,-174.5"/>
<text text-anchor="middle" x="232.868" y="-182.5" font-family="Helvetica,sans-Serif" font-size="10.00">plot/Histogram.h</text>
</a>
</g>
<!-- Node1&#45;&gt;Node26 -->
<g id="edge82" class="edge"><title>Node1&#45;&gt;Node26</title>
<path fill="none" stroke="midnightblue" d="M1235.77,-365.341C1053.52,-362.274 455.668,-345.318 290.868,-254 270.043,-242.46 253.485,-220.267 243.478,-204.158"/>
<polygon fill="midnightblue" stroke="midnightblue" points="246.463,-202.329 238.36,-195.503 240.438,-205.892 246.463,-202.329"/>
</g>
<!-- Node31 -->
<g id="node82" class="node"><title>Node31</title>
<a xlink:href="root__draw_8h.html" target="_top" xlink:title="plot/root_draw.h">
<polygon fill="white" stroke="black" points="1187.87,-174.5 1187.87,-195.5 1273.87,-195.5 1273.87,-174.5 1187.87,-174.5"/>
<text text-anchor="middle" x="1230.87" y="-182.5" font-family="Helvetica,sans-Serif" font-size="10.00">plot/root_draw.h</text>
</a>
</g>
<!-- Node1&#45;&gt;Node31 -->
<g id="edge102" class="edge"><title>Node1&#45;&gt;Node31</title>
<path fill="none" stroke="midnightblue" d="M1283.41,-348.972C1272.73,-315.635 1249.09,-241.869 1237.52,-205.747"/>
<polygon fill="midnightblue" stroke="midnightblue" points="1240.72,-204.287 1234.34,-195.832 1234.06,-206.423 1240.72,-204.287"/>
</g>
<!-- Node32 -->
<g id="node89" class="node"><title>Node32</title>
<polygon fill="white" stroke="#bfbfbf" points="1282.37,-116.5 1282.37,-137.5 1341.37,-137.5 1341.37,-116.5 1282.37,-116.5"/>
<text text-anchor="middle" x="1311.87" y="-124.5" font-family="Helvetica,sans-Serif" font-size="10.00">functional</text>
</g>
<!-- Node1&#45;&gt;Node32 -->
<g id="edge128" class="edge"><title>Node1&#45;&gt;Node32</title>
<path fill="none" stroke="midnightblue" d="M1290.52,-348.812C1294.65,-305.898 1305.4,-194.174 1309.87,-147.724"/>
<polygon fill="midnightblue" stroke="midnightblue" points="1313.37,-147.93 1310.84,-137.641 1306.4,-147.26 1313.37,-147.93"/>
</g>
<!-- Node34 -->
<g id="node94" class="node"><title>Node34</title>
<a xlink:href="combinatorics_8h.html" target="_top" xlink:title="utils/combinatorics.h">
<polygon fill="white" stroke="black" points="1103.37,-232.5 1103.37,-253.5 1210.37,-253.5 1210.37,-232.5 1103.37,-232.5"/>
<text text-anchor="middle" x="1156.87" y="-240.5" font-family="Helvetica,sans-Serif" font-size="10.00">utils/combinatorics.h</text>
</a>
</g>
<!-- Node1&#45;&gt;Node34 -->
<g id="edge120" class="edge"><title>Node1&#45;&gt;Node34</title>
<path fill="none" stroke="midnightblue" d="M1270.51,-348.897C1245.58,-325.668 1201.24,-284.342 1175.94,-260.771"/>
<polygon fill="midnightblue" stroke="midnightblue" points="1178.15,-258.044 1168.44,-253.787 1173.37,-263.165 1178.15,-258.044"/>
</g>
<!-- Node35 -->
<g id="node98" class="node"><title>Node35</title>
<polygon fill="white" stroke="#bfbfbf" points="1570.37,-290.5 1570.37,-311.5 1621.37,-311.5 1621.37,-290.5 1570.37,-290.5"/>
<text text-anchor="middle" x="1595.87" y="-298.5" font-family="Helvetica,sans-Serif" font-size="10.00">numeric</text>
</g>
<!-- Node1&#45;&gt;Node35 -->
<g id="edge126" class="edge"><title>Node1&#45;&gt;Node35</title>
<path fill="none" stroke="midnightblue" d="M1341.87,-357.419C1395.03,-348.389 1479.32,-332.913 1560.47,-312.17"/>
<polygon fill="midnightblue" stroke="midnightblue" points="1561.54,-315.507 1570.34,-309.614 1559.79,-308.731 1561.54,-315.507"/>
</g>
<!-- Node3 -->
<g id="node5" class="node"><title>Node3</title>
<polygon fill="white" stroke="#bfbfbf" points="1281.37,-58.5 1281.37,-79.5 1356.37,-79.5 1356.37,-58.5 1281.37,-58.5"/>
<text text-anchor="middle" x="1318.87" y="-66.5" font-family="Helvetica,sans-Serif" font-size="10.00">AntPhysics.h</text>
</g>
<!-- Node2&#45;&gt;Node3 -->
<g id="edge4" class="edge"><title>Node2&#45;&gt;Node3</title>
<path fill="none" stroke="midnightblue" d="M1371.95,-116.362C1362.51,-107.941 1349.14,-96.0105 1338.18,-86.2308"/>
<polygon fill="midnightblue" stroke="midnightblue" points="1340.51,-83.6171 1330.71,-79.5707 1335.85,-88.8401 1340.51,-83.6171"/>
</g>
<!-- Node2&#45;&gt;Node4 -->
<g id="edge6" class="edge"><title>Node2&#45;&gt;Node4</title>
<path fill="none" stroke="midnightblue" d="M1384.37,-116.426C1384.46,-100.963 1382.09,-72.4568 1364.87,-58 1329.28,-28.1356 1004.67,-15.3271 900.138,-11.9537"/>
<polygon fill="midnightblue" stroke="midnightblue" points="899.995,-8.44752 889.89,-11.6306 899.774,-15.444 899.995,-8.44752"/>
</g>
<!-- Node5 -->
<g id="node9" class="node"><title>Node5</title>
<polygon fill="white" stroke="#bfbfbf" points="1170.37,-58.5 1170.37,-79.5 1205.37,-79.5 1205.37,-58.5 1170.37,-58.5"/>
<text text-anchor="middle" x="1187.87" y="-66.5" font-family="Helvetica,sans-Serif" font-size="10.00">map</text>
</g>
<!-- Node2&#45;&gt;Node5 -->
<g id="edge8" class="edge"><title>Node2&#45;&gt;Node5</title>
<path fill="none" stroke="midnightblue" d="M1358.64,-118.745C1355.69,-117.806 1352.72,-116.873 1349.87,-116 1302.83,-101.571 1247.76,-85.8381 1215.46,-76.7271"/>
<polygon fill="midnightblue" stroke="midnightblue" points="1215.99,-73.2424 1205.42,-73.9026 1214.1,-79.9807 1215.99,-73.2424"/>
</g>
<!-- Node6&#45;&gt;Node4 -->
<g id="edge74" class="edge"><title>Node6&#45;&gt;Node4</title>
<path fill="none" stroke="midnightblue" d="M710.591,-297.734C654.566,-291.09 534.577,-274.848 498.868,-254 433.681,-215.941 381.041,-189.098 399.868,-116 407.211,-87.4896 407.355,-74.3065 431.868,-58 465.323,-35.7444 740.11,-18.2323 835.442,-12.7755"/>
<polygon fill="midnightblue" stroke="midnightblue" points="835.854,-16.2578 845.641,-12.1987 835.459,-9.26901 835.854,-16.2578"/>
</g>
<!-- Node7 -->
<g id="node13" class="node"><title>Node7</title>
<a xlink:href="printable_8h.html" target="_top" xlink:title="base/printable.h">
<polygon fill="white" stroke="black" points="298.868,-58.5 298.868,-79.5 384.868,-79.5 384.868,-58.5 298.868,-58.5"/>
<text text-anchor="middle" x="341.868" y="-66.5" font-family="Helvetica,sans-Serif" font-size="10.00">base/printable.h</text>
</a>
</g>
<!-- Node6&#45;&gt;Node7 -->
<g id="edge12" class="edge"><title>Node6&#45;&gt;Node7</title>
<path fill="none" stroke="midnightblue" d="M710.722,-299.347C627.172,-294.334 391.235,-278.15 366.868,-254 322.66,-210.187 330.71,-127.999 337.492,-89.6674"/>
<polygon fill="midnightblue" stroke="midnightblue" points="340.961,-90.1579 339.411,-79.6771 334.087,-88.8369 340.961,-90.1579"/>
</g>
<!-- Node9 -->
<g id="node18" class="node"><title>Node9</title>
<a xlink:href="types_8h.html" target="_top" xlink:title="base/types.h">
<polygon fill="white" stroke="black" points="748.368,-58.5 748.368,-79.5 821.368,-79.5 821.368,-58.5 748.368,-58.5"/>
<text text-anchor="middle" x="784.868" y="-66.5" font-family="Helvetica,sans-Serif" font-size="10.00">base/types.h</text>
</a>
</g>
<!-- Node6&#45;&gt;Node9 -->
<g id="edge18" class="edge"><title>Node6&#45;&gt;Node9</title>
<path fill="none" stroke="midnightblue" d="M720.483,-290.458C707.762,-282.35 692.175,-269.856 684.868,-254 680.776,-245.12 681.393,-241.14 684.868,-232 692.476,-211.99 702.848,-212.178 716.868,-196 738.968,-170.498 750.133,-167.852 765.868,-138 773.823,-122.909 778.71,-104.158 781.532,-90.014"/>
<polygon fill="midnightblue" stroke="midnightblue" points="785.041,-90.2787 783.372,-79.8162 778.152,-89.036 785.041,-90.2787"/>
</g>
<!-- Node10 -->
<g id="node20" class="node"><title>Node10</title>
<a xlink:href="_particle_type_8h.html" target="_top" xlink:title="base/ParticleType.h">
<polygon fill="white" stroke="black" points="1010.87,-116.5 1010.87,-137.5 1114.87,-137.5 1114.87,-116.5 1010.87,-116.5"/>
<text text-anchor="middle" x="1062.87" y="-124.5" font-family="Helvetica,sans-Serif" font-size="10.00">base/ParticleType.h</text>
</a>
</g>
<!-- Node6&#45;&gt;Node10 -->
<g id="edge20" class="edge"><title>Node6&#45;&gt;Node10</title>
<path fill="none" stroke="midnightblue" d="M768.885,-294.497C799.114,-287.081 847.348,-273.418 885.868,-254 947.873,-222.744 1011.98,-171 1043.28,-144.231"/>
<polygon fill="midnightblue" stroke="midnightblue" points="1045.58,-146.869 1050.86,-137.685 1041,-141.571 1045.58,-146.869"/>
</g>
<!-- Node13 -->
<g id="node30" class="node"><title>Node13</title>
<a xlink:href="_candidate_8h.html" target="_top" xlink:title="analysis/data/Candidate.h">
<polygon fill="white" stroke="black" points="507.868,-232.5 507.868,-253.5 637.868,-253.5 637.868,-232.5 507.868,-232.5"/>
<text text-anchor="middle" x="572.868" y="-240.5" font-family="Helvetica,sans-Serif" font-size="10.00">analysis/data/Candidate.h</text>
</a>
</g>
<!-- Node6&#45;&gt;Node13 -->
<g id="edge34" class="edge"><title>Node6&#45;&gt;Node13</title>
<path fill="none" stroke="midnightblue" d="M710.779,-290.897C683.744,-281.508 643.231,-267.437 613.101,-256.973"/>
<polygon fill="midnightblue" stroke="midnightblue" points="613.911,-253.549 603.316,-253.575 611.615,-260.162 613.911,-253.549"/>
</g>
<!-- Node20 -->
<g id="node50" class="node"><title>Node20</title>
<polygon fill="white" stroke="#bfbfbf" points="818.368,-116.5 818.368,-137.5 847.368,-137.5 847.368,-116.5 818.368,-116.5"/>
<text text-anchor="middle" x="832.868" y="-124.5" font-family="Helvetica,sans-Serif" font-size="10.00">list</text>
</g>
<!-- Node6&#45;&gt;Node20 -->
<g id="edge76" class="edge"><title>Node6&#45;&gt;Node20</title>
<path fill="none" stroke="midnightblue" d="M769.072,-294.278C802.884,-285.835 855.416,-270.449 866.868,-254 890.084,-220.654 864.573,-172.276 846.875,-145.894"/>
<polygon fill="midnightblue" stroke="midnightblue" points="849.633,-143.73 841.034,-137.54 843.896,-147.741 849.633,-143.73"/>
</g>
<!-- Node23 -->
<g id="node59" class="node"><title>Node23</title>
<polygon fill="white" stroke="#bfbfbf" points="693.868,-232.5 693.868,-253.5 785.868,-253.5 785.868,-232.5 693.868,-232.5"/>
<text text-anchor="middle" x="739.868" y="-240.5" font-family="Helvetica,sans-Serif" font-size="10.00">TLorentzVector.h</text>
</g>
<!-- Node6&#45;&gt;Node23 -->
<g id="edge72" class="edge"><title>Node6&#45;&gt;Node23</title>
<path fill="none" stroke="midnightblue" d="M739.868,-290.362C739.868,-282.922 739.868,-272.743 739.868,-263.728"/>
<polygon fill="midnightblue" stroke="midnightblue" points="743.368,-263.571 739.868,-253.571 736.368,-263.571 743.368,-263.571"/>
</g>
<!-- Node24 -->
<g id="node63" class="node"><title>Node24</title>
<polygon fill="white" stroke="#bfbfbf" points="803.868,-232.5 803.868,-253.5 857.868,-253.5 857.868,-232.5 803.868,-232.5"/>
<text text-anchor="middle" x="830.868" y="-240.5" font-family="Helvetica,sans-Serif" font-size="10.00">iostream</text>
</g>
<!-- Node6&#45;&gt;Node24 -->
<g id="edge78" class="edge"><title>Node6&#45;&gt;Node24</title>
<path fill="none" stroke="midnightblue" d="M756.559,-290.362C770.284,-281.614 789.952,-269.079 805.605,-259.101"/>
<polygon fill="midnightblue" stroke="midnightblue" points="807.731,-261.897 814.283,-253.571 803.969,-255.994 807.731,-261.897"/>
</g>
<!-- Node7&#45;&gt;Node4 -->
<g id="edge14" class="edge"><title>Node7&#45;&gt;Node4</title>
<path fill="none" stroke="midnightblue" d="M385.058,-60.2381C389.709,-59.4221 394.38,-58.6565 398.868,-58 562.091,-34.1221 759.069,-18.706 835.431,-13.2312"/>
<polygon fill="midnightblue" stroke="midnightblue" points="836.077,-16.6943 845.804,-12.4958 835.582,-9.71187 836.077,-16.6943"/>
</g>
<!-- Node8 -->
<g id="node16" class="node"><title>Node8</title>
<polygon fill="white" stroke="#bfbfbf" points="315.868,-0.5 315.868,-21.5 367.868,-21.5 367.868,-0.5 315.868,-0.5"/>
<text text-anchor="middle" x="341.868" y="-8.5" font-family="Helvetica,sans-Serif" font-size="10.00">ostream</text>
</g>
<!-- Node7&#45;&gt;Node8 -->
<g id="edge16" class="edge"><title>Node7&#45;&gt;Node8</title>
<path fill="none" stroke="midnightblue" d="M341.868,-58.3619C341.868,-50.9219 341.868,-40.7427 341.868,-31.7276"/>
<polygon fill="midnightblue" stroke="midnightblue" points="345.368,-31.5706 341.868,-21.5707 338.368,-31.5707 345.368,-31.5706"/>
</g>
<!-- Node10&#45;&gt;Node4 -->
<g id="edge32" class="edge"><title>Node10&#45;&gt;Node4</title>
<path fill="none" stroke="midnightblue" d="M1055.29,-116.431C1044.08,-101.494 1021.71,-74.2242 996.868,-58 966.784,-38.354 927.401,-25.5483 900.101,-18.3391"/>
<polygon fill="midnightblue" stroke="midnightblue" points="900.828,-14.9127 890.275,-15.8476 899.108,-21.698 900.828,-14.9127"/>
</g>
<!-- Node10&#45;&gt;Node5 -->
<g id="edge28" class="edge"><title>Node10&#45;&gt;Node5</title>
<path fill="none" stroke="midnightblue" d="M1085.5,-116.497C1106.71,-106.658 1138.42,-91.9434 1160.92,-81.5032"/>
<polygon fill="midnightblue" stroke="midnightblue" points="1162.64,-84.5627 1170.24,-77.1788 1159.7,-78.213 1162.64,-84.5627"/>
</g>
<!-- Node10&#45;&gt;Node8 -->
<g id="edge26" class="edge"><title>Node10&#45;&gt;Node8</title>
<path fill="none" stroke="midnightblue" d="M1047.87,-116.238C1021.37,-97.2612 968.58,-59.6777 963.868,-58 854.796,-19.1648 493.993,-12.4146 378.071,-11.2445"/>
<polygon fill="midnightblue" stroke="midnightblue" points="377.977,-7.74358 367.945,-11.1504 377.912,-14.7433 377.977,-7.74358"/>
</g>
<!-- Node10&#45;&gt;Node9 -->
<g id="edge22" class="edge"><title>Node10&#45;&gt;Node9</title>
<path fill="none" stroke="midnightblue" d="M1012.52,-116.497C960.997,-105.746 881.574,-89.1761 831.456,-78.7198"/>
<polygon fill="midnightblue" stroke="midnightblue" points="832.037,-75.2658 821.533,-76.6496 830.608,-82.1183 832.037,-75.2658"/>
</g>
<!-- Node10&#45;&gt;Node11 -->
<g id="edge24" class="edge"><title>Node10&#45;&gt;Node11</title>
<path fill="none" stroke="midnightblue" d="M1039.69,-116.497C1018.76,-107.013 987.836,-93.0011 964.997,-82.6521"/>
<polygon fill="midnightblue" stroke="midnightblue" points="966.309,-79.4044 955.756,-78.465 963.42,-85.7803 966.309,-79.4044"/>
</g>
<!-- Node12 -->
<g id="node27" class="node"><title>Node12</title>
<polygon fill="white" stroke="#bfbfbf" points="1048.37,-58.5 1048.37,-79.5 1095.37,-79.5 1095.37,-58.5 1048.37,-58.5"/>
<text text-anchor="middle" x="1071.87" y="-66.5" font-family="Helvetica,sans-Serif" font-size="10.00">iterator</text>
</g>
<!-- Node10&#45;&gt;Node12 -->
<g id="edge30" class="edge"><title>Node10&#45;&gt;Node12</title>
<path fill="none" stroke="midnightblue" d="M1064.52,-116.362C1065.67,-108.922 1067.25,-98.7427 1068.65,-89.7276"/>
<polygon fill="midnightblue" stroke="midnightblue" points="1072.15,-89.9891 1070.23,-79.5707 1065.24,-88.9157 1072.15,-89.9891"/>
</g>
<!-- Node13&#45;&gt;Node4 -->
<g id="edge70" class="edge"><title>Node13&#45;&gt;Node4</title>
<path fill="none" stroke="midnightblue" d="M589.764,-232.441C603.719,-223.422 623.776,-209.757 639.868,-196 667.104,-172.716 674.603,-166.84 695.868,-138 719.95,-105.34 709.093,-84.4483 739.868,-58 767.25,-34.4675 807.437,-22.2927 835.453,-16.2951"/>
<polygon fill="midnightblue" stroke="midnightblue" points="836.418,-19.6719 845.543,-14.2881 835.052,-12.8064 836.418,-19.6719"/>
</g>
<!-- Node13&#45;&gt;Node7 -->
<g id="edge36" class="edge"><title>Node13&#45;&gt;Node7</title>
<path fill="none" stroke="midnightblue" d="M549.427,-232.399C514.285,-215.752 447.042,-180.906 399.868,-138 382.995,-122.653 366.534,-102.416 355.486,-87.8306"/>
<polygon fill="midnightblue" stroke="midnightblue" points="358.125,-85.5133 349.351,-79.5742 352.506,-89.6884 358.125,-85.5133"/>
</g>
<!-- Node13&#45;&gt;Node8 -->
<g id="edge66" class="edge"><title>Node13&#45;&gt;Node8</title>
<path fill="none" stroke="midnightblue" d="M507.618,-241.619C371.573,-237.141 65.445,-218.178 7.86802,-138 -21.5479,-97.0373 43.3173,-70.4451 67.868,-58 108.953,-37.1735 241.094,-21.2752 305.669,-14.5341"/>
<polygon fill="midnightblue" stroke="midnightblue" points="306.207,-17.9973 315.798,-13.4941 305.492,-11.0339 306.207,-17.9973"/>
</g>
<!-- Node13&#45;&gt;Node9 -->
<g id="edge38" class="edge"><title>Node13&#45;&gt;Node9</title>
<path fill="none" stroke="midnightblue" d="M615.097,-232.418C639.007,-224.974 668.507,-213.224 690.868,-196 729.578,-166.184 759.928,-116.374 774.811,-88.8293"/>
<polygon fill="midnightblue" stroke="midnightblue" points="778.02,-90.2461 779.581,-79.7668 771.826,-86.9855 778.02,-90.2461"/>
</g>
<!-- Node14 -->
<g id="node34" class="node"><title>Node14</title>
<a xlink:href="_detector__t_8h.html" target="_top" xlink:title="base/Detector_t.h">
<polygon fill="white" stroke="black" points="408.368,-116.5 408.368,-137.5 503.368,-137.5 503.368,-116.5 408.368,-116.5"/>
<text text-anchor="middle" x="455.868" y="-124.5" font-family="Helvetica,sans-Serif" font-size="10.00">base/Detector_t.h</text>
</a>
</g>
<!-- Node13&#45;&gt;Node14 -->
<g id="edge40" class="edge"><title>Node13&#45;&gt;Node14</title>
<path fill="none" stroke="midnightblue" d="M554.575,-232.487C540.362,-223.796 520.649,-210.556 505.868,-196 490.65,-181.014 476.694,-160.985 467.417,-146.368"/>
<polygon fill="midnightblue" stroke="midnightblue" points="470.264,-144.318 462.03,-137.651 464.31,-147.998 470.264,-144.318"/>
</g>
<!-- Node19 -->
<g id="node47" class="node"><title>Node19</title>
<a xlink:href="_cluster_8h.html" target="_top" xlink:title="analysis/data/Cluster.h">
<polygon fill="white" stroke="black" points="514.368,-174.5 514.368,-195.5 631.368,-195.5 631.368,-174.5 514.368,-174.5"/>
<text text-anchor="middle" x="572.868" y="-182.5" font-family="Helvetica,sans-Serif" font-size="10.00">analysis/data/Cluster.h</text>
</a>
</g>
<!-- Node13&#45;&gt;Node19 -->
<g id="edge56" class="edge"><title>Node13&#45;&gt;Node19</title>
<path fill="none" stroke="midnightblue" d="M572.868,-232.362C572.868,-224.922 572.868,-214.743 572.868,-205.728"/>
<polygon fill="midnightblue" stroke="midnightblue" points="576.368,-205.571 572.868,-195.571 569.368,-205.571 576.368,-205.571"/>
</g>
<!-- Node22 -->
<g id="node56" class="node"><title>Node22</title>
<polygon fill="white" stroke="#bfbfbf" points="864.868,-116.5 864.868,-137.5 916.868,-137.5 916.868,-116.5 864.868,-116.5"/>
<text text-anchor="middle" x="890.868" y="-124.5" font-family="Helvetica,sans-Serif" font-size="10.00">memory</text>
</g>
<!-- Node13&#45;&gt;Node22 -->
<g id="edge68" class="edge"><title>Node13&#45;&gt;Node22</title>
<path fill="none" stroke="midnightblue" d="M612.043,-232.488C643.83,-223.651 689.642,-210.214 728.868,-196 774.84,-179.341 826.608,-156.563 858.982,-141.815"/>
<polygon fill="midnightblue" stroke="midnightblue" points="860.744,-144.858 868.378,-137.512 857.829,-138.494 860.744,-144.858"/>
</g>
<!-- Node14&#45;&gt;Node4 -->
<g id="edge54" class="edge"><title>Node14&#45;&gt;Node4</title>
<path fill="none" stroke="midnightblue" d="M486.492,-116.459C511.069,-107.656 546.239,-94.2779 575.868,-80 593.448,-71.5283 595.562,-64.7628 613.868,-58 690.487,-29.6943 786.653,-17.875 835.769,-13.411"/>
<polygon fill="midnightblue" stroke="midnightblue" points="836.133,-16.8927 845.794,-12.5436 835.53,-9.91873 836.133,-16.8927"/>
</g>
<!-- Node14&#45;&gt;Node7 -->
<g id="edge42" class="edge"><title>Node14&#45;&gt;Node7</title>
<path fill="none" stroke="midnightblue" d="M435.223,-116.497C417.498,-107.479 391.723,-94.3649 371.745,-84.2006"/>
<polygon fill="midnightblue" stroke="midnightblue" points="373.244,-81.0364 362.744,-79.6212 370.07,-87.2753 373.244,-81.0364"/>
</g>
<!-- Node14&#45;&gt;Node11 -->
<g id="edge50" class="edge"><title>Node14&#45;&gt;Node11</title>
<path fill="none" stroke="midnightblue" d="M503.548,-121.227C601.382,-109.38 822.456,-82.6114 903.947,-72.7441"/>
<polygon fill="midnightblue" stroke="midnightblue" points="904.548,-76.1969 914.055,-71.5201 903.707,-69.2477 904.548,-76.1969"/>
</g>
<!-- Node15 -->
<g id="node37" class="node"><title>Node15</title>
<polygon fill="white" stroke="#bfbfbf" points="622.368,-58.5 622.368,-79.5 687.368,-79.5 687.368,-58.5 622.368,-58.5"/>
<text text-anchor="middle" x="654.868" y="-66.5" font-family="Helvetica,sans-Serif" font-size="10.00">TVector3.h</text>
</g>
<!-- Node14&#45;&gt;Node15 -->
<g id="edge44" class="edge"><title>Node14&#45;&gt;Node15</title>
<path fill="none" stroke="midnightblue" d="M491.905,-116.497C525.793,-106.62 576.536,-91.8304 612.381,-81.3833"/>
<polygon fill="midnightblue" stroke="midnightblue" points="613.448,-84.7179 622.069,-78.5595 611.489,-77.9975 613.448,-84.7179"/>
</g>
<!-- Node16 -->
<g id="node39" class="node"><title>Node16</title>
<polygon fill="white" stroke="#bfbfbf" points="440.868,-58.5 440.868,-79.5 486.868,-79.5 486.868,-58.5 440.868,-58.5"/>
<text text-anchor="middle" x="463.868" y="-66.5" font-family="Helvetica,sans-Serif" font-size="10.00">cstdint</text>
</g>
<!-- Node14&#45;&gt;Node16 -->
<g id="edge46" class="edge"><title>Node14&#45;&gt;Node16</title>
<path fill="none" stroke="midnightblue" d="M457.335,-116.362C458.362,-108.922 459.766,-98.7427 461.009,-89.7276"/>
<polygon fill="midnightblue" stroke="midnightblue" points="464.511,-89.9551 462.41,-79.5707 457.576,-88.9986 464.511,-89.9551"/>
</g>
<!-- Node17 -->
<g id="node41" class="node"><title>Node17</title>
<polygon fill="white" stroke="#bfbfbf" points="222.368,-58.5 222.368,-79.5 281.368,-79.5 281.368,-58.5 222.368,-58.5"/>
<text text-anchor="middle" x="251.868" y="-66.5" font-family="Helvetica,sans-Serif" font-size="10.00">stdexcept</text>
</g>
<!-- Node14&#45;&gt;Node17 -->
<g id="edge48" class="edge"><title>Node14&#45;&gt;Node17</title>
<path fill="none" stroke="midnightblue" d="M418.271,-116.423C386.718,-107.531 340.195,-94.3852 291.498,-80.4581"/>
<polygon fill="midnightblue" stroke="midnightblue" points="292.311,-77.0502 281.734,-77.6633 290.385,-83.78 292.311,-77.0502"/>
</g>
<!-- Node18 -->
<g id="node44" class="node"><title>Node18</title>
<polygon fill="white" stroke="#bfbfbf" points="504.868,-58.5 504.868,-79.5 566.868,-79.5 566.868,-58.5 504.868,-58.5"/>
<text text-anchor="middle" x="535.868" y="-66.5" font-family="Helvetica,sans-Serif" font-size="10.00">type_traits</text>
</g>
<!-- Node14&#45;&gt;Node18 -->
<g id="edge52" class="edge"><title>Node14&#45;&gt;Node18</title>
<path fill="none" stroke="midnightblue" d="M470.541,-116.362C482.382,-107.777 499.253,-95.5459 512.884,-85.6636"/>
<polygon fill="midnightblue" stroke="midnightblue" points="515.246,-88.274 521.288,-79.5707 511.137,-82.6067 515.246,-88.274"/>
</g>
<!-- Node19&#45;&gt;Node14 -->
<g id="edge58" class="edge"><title>Node19&#45;&gt;Node14</title>
<path fill="none" stroke="midnightblue" d="M551.68,-174.497C533.406,-165.438 506.796,-152.246 486.253,-142.063"/>
<polygon fill="midnightblue" stroke="midnightblue" points="487.808,-138.927 477.294,-137.621 484.699,-145.199 487.808,-138.927"/>
</g>
<!-- Node19&#45;&gt;Node15 -->
<g id="edge62" class="edge"><title>Node19&#45;&gt;Node15</title>
<path fill="none" stroke="midnightblue" d="M572.848,-174.261C573.314,-159.844 575.926,-133.969 587.868,-116 596.538,-102.954 610.166,-92.4287 622.873,-84.6717"/>
<polygon fill="midnightblue" stroke="midnightblue" points="624.94,-87.5217 631.88,-79.5163 621.462,-81.4466 624.94,-87.5217"/>
</g>
<!-- Node19&#45;&gt;Node20 -->
<g id="edge60" class="edge"><title>Node19&#45;&gt;Node20</title>
<path fill="none" stroke="midnightblue" d="M619.952,-174.497C675.398,-162.128 765.381,-142.055 808.421,-132.454"/>
<polygon fill="midnightblue" stroke="midnightblue" points="809.304,-135.843 818.302,-130.249 807.78,-129.011 809.304,-135.843"/>
</g>
<!-- Node21 -->
<g id="node53" class="node"><title>Node21</title>
<a xlink:href="enumfield_8h.html" target="_top" xlink:title="base/enumfield.h">
<polygon fill="white" stroke="black" points="596.368,-116.5 596.368,-137.5 687.368,-137.5 687.368,-116.5 596.368,-116.5"/>
<text text-anchor="middle" x="641.868" y="-124.5" font-family="Helvetica,sans-Serif" font-size="10.00">base/enumfield.h</text>
</a>
</g>
<!-- Node19&#45;&gt;Node21 -->
<g id="edge64" class="edge"><title>Node19&#45;&gt;Node21</title>
<path fill="none" stroke="midnightblue" d="M585.524,-174.362C595.542,-165.941 609.735,-154.011 621.369,-144.231"/>
<polygon fill="midnightblue" stroke="midnightblue" points="623.89,-146.684 629.293,-137.571 619.386,-141.326 623.89,-146.684"/>
</g>
<!-- Node26&#45;&gt;Node4 -->
<g id="edge86" class="edge"><title>Node26&#45;&gt;Node4</title>
<path fill="none" stroke="midnightblue" d="M201.698,-174.455C145.381,-153.869 36.5368,-106.123 81.868,-58 108.13,-30.1208 690.943,-15.0312 835.598,-11.7072"/>
<polygon fill="midnightblue" stroke="midnightblue" points="835.701,-15.2059 845.619,-11.4798 835.542,-8.20769 835.701,-15.2059"/>
</g>
<!-- Node26&#45;&gt;Node11 -->
<g id="edge88" class="edge"><title>Node26&#45;&gt;Node11</title>
<path fill="none" stroke="midnightblue" d="M277.633,-179.076C333.003,-171.379 429.978,-156.685 511.868,-138 546.151,-130.177 553.463,-123.268 587.868,-116 648.245,-103.245 831.088,-81.1619 904.187,-72.5674"/>
<polygon fill="midnightblue" stroke="midnightblue" points="904.624,-76.0403 914.148,-71.3999 903.809,-69.0878 904.624,-76.0403"/>
</g>
<!-- Node27 -->
<g id="node69" class="node"><title>Node27</title>
<polygon fill="white" stroke="#bfbfbf" points="16.868,-116.5 16.868,-137.5 70.868,-137.5 70.868,-116.5 16.868,-116.5"/>
<text text-anchor="middle" x="43.868" y="-124.5" font-family="Helvetica,sans-Serif" font-size="10.00">TColor.h</text>
</g>
<!-- Node26&#45;&gt;Node27 -->
<g id="edge84" class="edge"><title>Node26&#45;&gt;Node27</title>
<path fill="none" stroke="midnightblue" d="M198.642,-174.497C165.336,-164.276 114.887,-148.794 80.7157,-138.308"/>
<polygon fill="midnightblue" stroke="midnightblue" points="81.6911,-134.946 71.1043,-135.358 79.6375,-141.638 81.6911,-134.946"/>
</g>
<!-- Node28 -->
<g id="node73" class="node"><title>Node28</title>
<a xlink:href="interval_8h.html" target="_top" xlink:title="base/interval.h">
<polygon fill="white" stroke="black" points="194.868,-116.5 194.868,-137.5 274.868,-137.5 274.868,-116.5 194.868,-116.5"/>
<text text-anchor="middle" x="234.868" y="-124.5" font-family="Helvetica,sans-Serif" font-size="10.00">base/interval.h</text>
</a>
</g>
<!-- Node26&#45;&gt;Node28 -->
<g id="edge90" class="edge"><title>Node26&#45;&gt;Node28</title>
<path fill="none" stroke="midnightblue" d="M233.235,-174.362C233.491,-166.922 233.842,-156.743 234.153,-147.728"/>
<polygon fill="midnightblue" stroke="midnightblue" points="237.657,-147.685 234.504,-137.571 230.661,-147.444 237.657,-147.685"/>
</g>
<!-- Node28&#45;&gt;Node7 -->
<g id="edge96" class="edge"><title>Node28&#45;&gt;Node7</title>
<path fill="none" stroke="midnightblue" d="M254.493,-116.362C271.009,-107.409 294.842,-94.4908 313.446,-84.4064"/>
<polygon fill="midnightblue" stroke="midnightblue" points="315.243,-87.4132 322.367,-79.5707 311.908,-81.2592 315.243,-87.4132"/>
</g>
<!-- Node28&#45;&gt;Node9 -->
<g id="edge98" class="edge"><title>Node28&#45;&gt;Node9</title>
<path fill="none" stroke="midnightblue" d="M274.98,-123.201C355.051,-115.555 540.379,-97.5331 695.868,-80 709.553,-78.4569 724.406,-76.6669 737.986,-74.9849"/>
<polygon fill="midnightblue" stroke="midnightblue" points="738.593,-78.4365 748.083,-73.7256 737.726,-71.4903 738.593,-78.4365"/>
</g>
<!-- Node28&#45;&gt;Node17 -->
<g id="edge94" class="edge"><title>Node28&#45;&gt;Node17</title>
<path fill="none" stroke="midnightblue" d="M237.986,-116.362C240.191,-108.84 243.216,-98.5187 245.88,-89.4308"/>
<polygon fill="midnightblue" stroke="midnightblue" points="249.316,-90.1514 248.77,-79.5707 242.598,-88.1825 249.316,-90.1514"/>
</g>
<!-- Node29 -->
<g id="node75" class="node"><title>Node29</title>
<polygon fill="white" stroke="#bfbfbf" points="148.868,-58.5 148.868,-79.5 204.868,-79.5 204.868,-58.5 148.868,-58.5"/>
<text text-anchor="middle" x="176.868" y="-66.5" font-family="Helvetica,sans-Serif" font-size="10.00">algorithm</text>
</g>
<!-- Node28&#45;&gt;Node29 -->
<g id="edge92" class="edge"><title>Node28&#45;&gt;Node29</title>
<path fill="none" stroke="midnightblue" d="M224.23,-116.362C215.972,-108.104 204.341,-96.4725 194.671,-86.8029"/>
<polygon fill="midnightblue" stroke="midnightblue" points="196.985,-84.1669 187.439,-79.5707 192.035,-89.1166 196.985,-84.1669"/>
</g>
<!-- Node30 -->
<g id="node80" class="node"><title>Node30</title>
<polygon fill="white" stroke="#bfbfbf" points="90.868,-58.5 90.868,-79.5 130.868,-79.5 130.868,-58.5 90.868,-58.5"/>
<text text-anchor="middle" x="110.868" y="-66.5" font-family="Helvetica,sans-Serif" font-size="10.00">limits</text>
</g>
<!-- Node28&#45;&gt;Node30 -->
<g id="edge100" class="edge"><title>Node28&#45;&gt;Node30</title>
<path fill="none" stroke="midnightblue" d="M212.413,-116.497C192.229,-107.056 162.448,-93.1262 140.352,-82.7909"/>
<polygon fill="midnightblue" stroke="midnightblue" points="141.645,-79.5316 131.103,-78.465 138.679,-85.8722 141.645,-79.5316"/>
</g>
<!-- Node31&#45;&gt;Node4 -->
<g id="edge108" class="edge"><title>Node31&#45;&gt;Node4</title>
<path fill="none" stroke="midnightblue" d="M1274.08,-180.248C1323.65,-173.802 1400.37,-160.438 1417.87,-138 1439.18,-110.664 1400.69,-68.1864 1384.87,-58 1344.12,-31.7598 1006.81,-16.4324 900.102,-12.2057"/>
<polygon fill="midnightblue" stroke="midnightblue" points="900.074,-8.70208 889.945,-11.8095 899.801,-15.6968 900.074,-8.70208"/>
</g>
<!-- Node31&#45;&gt;Node5 -->
<g id="edge110" class="edge"><title>Node31&#45;&gt;Node5</title>
<path fill="none" stroke="midnightblue" d="M1221.82,-174.143C1214.73,-165.055 1205.2,-151.447 1199.87,-138 1193.71,-122.482 1190.71,-103.763 1189.25,-89.7389"/>
<polygon fill="midnightblue" stroke="midnightblue" points="1192.72,-89.3106 1188.37,-79.6498 1185.75,-89.9144 1192.72,-89.3106"/>
</g>
<!-- Node31&#45;&gt;Node11 -->
<g id="edge104" class="edge"><title>Node31&#45;&gt;Node11</title>
<path fill="none" stroke="midnightblue" d="M1187.42,-179.197C1130.23,-171.031 1033.28,-155.211 1001.87,-138 979.505,-125.746 959.98,-103.557 947.865,-87.6471"/>
<polygon fill="midnightblue" stroke="midnightblue" points="950.665,-85.547 941.926,-79.5573 945.022,-89.6895 950.665,-85.547"/>
</g>
<!-- Node31&#45;&gt;Node20 -->
<g id="edge106" class="edge"><title>Node31&#45;&gt;Node20</title>
<path fill="none" stroke="midnightblue" d="M1187.6,-181.334C1106.52,-174.189 933.712,-157.593 857.744,-137.755"/>
<polygon fill="midnightblue" stroke="midnightblue" points="858.261,-134.265 847.687,-134.935 856.371,-141.005 858.261,-134.265"/>
</g>
<!-- Node31&#45;&gt;Node22 -->
<g id="edge112" class="edge"><title>Node31&#45;&gt;Node22</title>
<path fill="none" stroke="midnightblue" d="M1187.81,-177.654C1120.1,-166.104 989.98,-143.907 926.906,-133.148"/>
<polygon fill="midnightblue" stroke="midnightblue" points="927.464,-129.692 917.018,-131.461 926.287,-136.593 927.464,-129.692"/>
</g>
<!-- Node31&#45;&gt;Node32 -->
<g id="edge114" class="edge"><title>Node31&#45;&gt;Node32</title>
<path fill="none" stroke="midnightblue" d="M1245.72,-174.362C1257.71,-165.777 1274.8,-153.546 1288.6,-143.664"/>
<polygon fill="midnightblue" stroke="midnightblue" points="1291.01,-146.238 1297.11,-137.571 1286.94,-140.547 1291.01,-146.238"/>
</g>
<!-- Node33 -->
<g id="node91" class="node"><title>Node33</title>
<polygon fill="white" stroke="#bfbfbf" points="1208.87,-116.5 1208.87,-137.5 1264.87,-137.5 1264.87,-116.5 1208.87,-116.5"/>
<text text-anchor="middle" x="1236.87" y="-124.5" font-family="Helvetica,sans-Serif" font-size="10.00">Rtypes.h</text>
</g>
<!-- Node31&#45;&gt;Node33 -->
<g id="edge116" class="edge"><title>Node31&#45;&gt;Node33</title>
<path fill="none" stroke="midnightblue" d="M1231.97,-174.362C1232.74,-166.922 1233.79,-156.743 1234.72,-147.728"/>
<polygon fill="midnightblue" stroke="midnightblue" points="1238.23,-147.878 1235.77,-137.571 1231.26,-147.157 1238.23,-147.878"/>
</g>
<!-- Node34&#45;&gt;Node4 -->
<g id="edge122" class="edge"><title>Node34&#45;&gt;Node4</title>
<path fill="none" stroke="midnightblue" d="M1157.45,-232.158C1158.54,-199.975 1156.98,-104.359 1103.87,-58 1073.86,-31.8029 957.589,-18.5541 900.235,-13.5001"/>
<polygon fill="midnightblue" stroke="midnightblue" points="900.179,-9.98278 889.918,-12.6237 899.586,-16.9577 900.179,-9.98278"/>
</g>
</g>
</svg>
