<?xml version="1.0" encoding="UTF-8" standalone="no"?>
<!DOCTYPE svg PUBLIC "-//W3C//DTD SVG 1.1//EN"
 "http://www.w3.org/Graphics/SVG/1.1/DTD/svg11.dtd">
<!-- Generated by graphviz version 2.26.3 (20100126.1600)
 -->
<!-- Title: src/calibration/fitfunctions/BaseFunctions.cc Pages: 1 -->
<svg width="282pt" height="160pt"
 viewBox="0.00 0.00 282.00 160.00" xmlns="http://www.w3.org/2000/svg" xmlns:xlink="http://www.w3.org/1999/xlink">
<g id="graph1" class="graph" transform="scale(1 1) rotate(0) translate(4 156)">
<title>src/calibration/fitfunctions/BaseFunctions.cc</title>
<polygon fill="white" stroke="white" points="-4,5 -4,-156 279,-156 279,5 -4,5"/>
<!-- Node1 -->
<g id="node1" class="node"><title>Node1</title>
<polygon fill="#bfbfbf" stroke="black" points="97,-117 97,-151 225,-151 225,-117 97,-117"/>
<text text-anchor="start" x="105" y="-138" font-family="Helvetica,sans-Serif" font-size="10.00">src/calibration/fitfunctions</text>
<text text-anchor="middle" x="161" y="-125" font-family="Helvetica,sans-Serif" font-size="10.00">/BaseFunctions.cc</text>
</g>
<!-- Node2 -->
<g id="node3" class="node"><title>Node2</title>
<a xlink:href="_base_functions_8h.html" target="_top" xlink:title="BaseFunctions.h">
<polygon fill="white" stroke="black" points="0,-58.5 0,-79.5 90,-79.5 90,-58.5 0,-58.5"/>
<text text-anchor="middle" x="45" y="-66.5" font-family="Helvetica,sans-Serif" font-size="10.00">BaseFunctions.h</text>
</a>
</g>
<!-- Node1&#45;&gt;Node2 -->
<g id="edge2" class="edge"><title>Node1&#45;&gt;Node2</title>
<path fill="none" stroke="midnightblue" d="M130.522,-116.922C112.738,-106.957 90.4594,-94.4729 73.0996,-84.7455"/>
<polygon fill="midnightblue" stroke="midnightblue" points="74.4558,-81.4934 64.0211,-79.6584 71.034,-87.6001 74.4558,-81.4934"/>
</g>
<!-- Node3 -->
<g id="node5" class="node"><title>Node3</title>
<a xlink:href="math_8h.html" target="_top" xlink:title="base/std_ext/math.h">
<polygon fill="white" stroke="black" points="108,-58.5 108,-79.5 214,-79.5 214,-58.5 108,-58.5"/>
<text text-anchor="middle" x="161" y="-66.5" font-family="Helvetica,sans-Serif" font-size="10.00">base/std_ext/math.h</text>
</a>
</g>
<!-- Node1&#45;&gt;Node3 -->
<g id="edge4" class="edge"><title>Node1&#45;&gt;Node3</title>
<path fill="none" stroke="midnightblue" d="M161,-116.922C161,-108.67 161,-98.6922 161,-89.9818"/>
<polygon fill="midnightblue" stroke="midnightblue" points="164.5,-89.8521 161,-79.8521 157.5,-89.8521 164.5,-89.8521"/>
</g>
<!-- Node6 -->
<g id="node11" class="node"><title>Node6</title>
<polygon fill="white" stroke="#bfbfbf" points="232,-58.5 232,-79.5 274,-79.5 274,-58.5 232,-58.5"/>
<text text-anchor="middle" x="253" y="-66.5" font-family="Helvetica,sans-Serif" font-size="10.00">TF1.h</text>
</g>
<!-- Node1&#45;&gt;Node6 -->
<g id="edge10" class="edge"><title>Node1&#45;&gt;Node6</title>
<path fill="none" stroke="midnightblue" d="M185.172,-116.922C198.885,-107.233 215.967,-95.1645 229.558,-85.5623"/>
<polygon fill="midnightblue" stroke="midnightblue" points="231.767,-88.2873 237.914,-79.6584 227.727,-82.5702 231.767,-88.2873"/>
</g>
<!-- Node4 -->
<g id="node7" class="node"><title>Node4</title>
<polygon fill="white" stroke="#bfbfbf" points="109,-0.5 109,-21.5 153,-21.5 153,-0.5 109,-0.5"/>
<text text-anchor="middle" x="131" y="-8.5" font-family="Helvetica,sans-Serif" font-size="10.00">cmath</text>
</g>
<!-- Node3&#45;&gt;Node4 -->
<g id="edge6" class="edge"><title>Node3&#45;&gt;Node4</title>
<path fill="none" stroke="midnightblue" d="M155.498,-58.3619C151.48,-50.5949 145.919,-39.8426 141.11,-30.5458"/>
<polygon fill="midnightblue" stroke="midnightblue" points="144.171,-28.8448 136.468,-21.5707 137.953,-32.0608 144.171,-28.8448"/>
</g>
<!-- Node5 -->
<g id="node9" class="node"><title>Node5</title>
<polygon fill="white" stroke="#bfbfbf" points="171,-0.5 171,-21.5 211,-21.5 211,-0.5 171,-0.5"/>
<text text-anchor="middle" x="191" y="-8.5" font-family="Helvetica,sans-Serif" font-size="10.00">limits</text>
</g>
<!-- Node3&#45;&gt;Node5 -->
<g id="edge8" class="edge"><title>Node3&#45;&gt;Node5</title>
<path fill="none" stroke="midnightblue" d="M166.502,-58.3619C170.52,-50.5949 176.081,-39.8426 180.89,-30.5458"/>
<polygon fill="midnightblue" stroke="midnightblue" points="184.047,-32.0608 185.532,-21.5707 177.829,-28.8448 184.047,-32.0608"/>
</g>
</g>
</svg>
