<?xml version="1.0" encoding="UTF-8" standalone="no"?>
<!DOCTYPE svg PUBLIC "-//W3C//DTD SVG 1.1//EN"
 "http://www.w3.org/Graphics/SVG/1.1/DTD/svg11.dtd">
<!-- Generated by graphviz version 2.26.3 (20100126.1600)
 -->
<!-- Title: src/calibration/gui/CalCanvas.h Pages: 1 -->
<svg width="1004pt" height="116pt"
 viewBox="0.00 0.00 1004.00 116.00" xmlns="http://www.w3.org/2000/svg" xmlns:xlink="http://www.w3.org/1999/xlink">
<g id="graph1" class="graph" transform="scale(1 1) rotate(0) translate(4 112)">
<title>src/calibration/gui/CalCanvas.h</title>
<polygon fill="white" stroke="white" points="-4,5 -4,-112 1001,-112 1001,5 -4,5"/>
<!-- Node1 -->
<g id="node1" class="node"><title>Node1</title>
<polygon fill="#bfbfbf" stroke="black" points="422.5,-73 422.5,-107 515.5,-107 515.5,-73 422.5,-73"/>
<text text-anchor="start" x="430.5" y="-94" font-family="Helvetica,sans-Serif" font-size="10.00">src/calibration/gui</text>
<text text-anchor="middle" x="469" y="-81" font-family="Helvetica,sans-Serif" font-size="10.00">/CalCanvas.h</text>
</g>
<!-- Node2 -->
<g id="node3" class="node"><title>Node2</title>
<a xlink:href="_cal_canvas_8cc.html" target="_top" xlink:title="src/calibration/gui\l/CalCanvas.cc">
<polygon fill="white" stroke="black" points="-0.5,-1 -0.5,-35 92.5,-35 92.5,-1 -0.5,-1"/>
<text text-anchor="start" x="7.5" y="-22" font-family="Helvetica,sans-Serif" font-size="10.00">src/calibration/gui</text>
<text text-anchor="middle" x="46" y="-9" font-family="Helvetica,sans-Serif" font-size="10.00">/CalCanvas.cc</text>
</a>
</g>
<!-- Node1&#45;&gt;Node2 -->
<g id="edge2" class="edge"><title>Node1&#45;&gt;Node2</title>
<path fill="none" stroke="midnightblue" d="M412.016,-84.6851C339.203,-77.2004 209.59,-61.5393 101,-36 98.2616,-35.3559 95.4642,-34.6374 92.6536,-33.8685"/>
<polygon fill="midnightblue" stroke="midnightblue" points="412.035,-88.2049 422.337,-85.7303 412.741,-81.2405 412.035,-88.2049"/>
</g>
<!-- Node3 -->
<g id="node5" class="node"><title>Node3</title>
<a xlink:href="_manager_8cc.html" target="_top" xlink:title="src/calibration/gui\l/Manager.cc">
<polygon fill="white" stroke="black" points="109.5,-1 109.5,-35 202.5,-35 202.5,-1 109.5,-1"/>
<text text-anchor="start" x="117.5" y="-22" font-family="Helvetica,sans-Serif" font-size="10.00">src/calibration/gui</text>
<text text-anchor="middle" x="156" y="-9" font-family="Helvetica,sans-Serif" font-size="10.00">/Manager.cc</text>
</a>
</g>
<!-- Node1&#45;&gt;Node3 -->
<g id="edge4" class="edge"><title>Node1&#45;&gt;Node3</title>
<path fill="none" stroke="midnightblue" d="M412.368,-80.0026C359.812,-70.2873 279.593,-54.343 211,-36 208.282,-35.2732 205.501,-34.4901 202.703,-33.6717"/>
<polygon fill="midnightblue" stroke="midnightblue" points="412.031,-83.4991 422.499,-81.8614 413.295,-76.6141 412.031,-83.4991"/>
</g>
<!-- Node4 -->
<g id="node7" class="node"><title>Node4</title>
<a xlink:href="_manager_window_8cc.html" target="_top" xlink:title="src/calibration/gui\l/ManagerWindow.cc">
<polygon fill="white" stroke="black" points="220,-1 220,-35 326,-35 326,-1 220,-1"/>
<text text-anchor="start" x="228" y="-22" font-family="Helvetica,sans-Serif" font-size="10.00">src/calibration/gui</text>
<text text-anchor="middle" x="273" y="-9" font-family="Helvetica,sans-Serif" font-size="10.00">/ManagerWindow.cc</text>
</a>
</g>
<!-- Node1&#45;&gt;Node4 -->
<g id="edge6" class="edge"><title>Node1&#45;&gt;Node4</title>
<path fill="none" stroke="midnightblue" d="M412.786,-69.3498C383.226,-58.4911 347.425,-45.3399 319.455,-35.0651"/>
<polygon fill="midnightblue" stroke="midnightblue" points="411.957,-72.7741 422.551,-72.937 414.371,-66.2034 411.957,-72.7741"/>
</g>
<!-- Node5 -->
<g id="node9" class="node"><title>Node5</title>
<a xlink:href="_c_b___energy_8cc.html" target="_top" xlink:title="src/calibration/modules\l/CB_Energy.cc">
<polygon fill="white" stroke="black" points="343.5,-1 343.5,-35 460.5,-35 460.5,-1 343.5,-1"/>
<text text-anchor="start" x="351.5" y="-22" font-family="Helvetica,sans-Serif" font-size="10.00">src/calibration/modules</text>
<text text-anchor="middle" x="402" y="-9" font-family="Helvetica,sans-Serif" font-size="10.00">/CB_Energy.cc</text>
</a>
</g>
<!-- Node1&#45;&gt;Node5 -->
<g id="edge8" class="edge"><title>Node1&#45;&gt;Node5</title>
<path fill="none" stroke="midnightblue" d="M446.088,-65.3785C436.928,-55.5349 426.591,-44.4262 418.23,-35.4407"/>
<polygon fill="midnightblue" stroke="midnightblue" points="443.747,-68.0006 453.122,-72.937 448.872,-63.232 443.747,-68.0006"/>
</g>
<!-- Node6 -->
<g id="node11" class="node"><title>Node6</title>
<a xlink:href="_c_b___time_walk_8cc.html" target="_top" xlink:title="src/calibration/modules\l/CB_TimeWalk.cc">
<polygon fill="white" stroke="black" points="477.5,-1 477.5,-35 594.5,-35 594.5,-1 477.5,-1"/>
<text text-anchor="start" x="485.5" y="-22" font-family="Helvetica,sans-Serif" font-size="10.00">src/calibration/modules</text>
<text text-anchor="middle" x="536" y="-9" font-family="Helvetica,sans-Serif" font-size="10.00">/CB_TimeWalk.cc</text>
</a>
</g>
<!-- Node1&#45;&gt;Node6 -->
<g id="edge10" class="edge"><title>Node1&#45;&gt;Node6</title>
<path fill="none" stroke="midnightblue" d="M491.912,-65.3785C501.072,-55.5349 511.409,-44.4262 519.77,-35.4407"/>
<polygon fill="midnightblue" stroke="midnightblue" points="489.128,-63.232 484.878,-72.937 494.253,-68.0006 489.128,-63.232"/>
</g>
<!-- Node7 -->
<g id="node13" class="node"><title>Node7</title>
<a xlink:href="_p_i_d___energy_8cc.html" target="_top" xlink:title="src/calibration/modules\l/PID_Energy.cc">
<polygon fill="white" stroke="black" points="611.5,-1 611.5,-35 728.5,-35 728.5,-1 611.5,-1"/>
<text text-anchor="start" x="619.5" y="-22" font-family="Helvetica,sans-Serif" font-size="10.00">src/calibration/modules</text>
<text text-anchor="middle" x="670" y="-9" font-family="Helvetica,sans-Serif" font-size="10.00">/PID_Energy.cc</text>
</a>
</g>
<!-- Node1&#45;&gt;Node7 -->
<g id="edge12" class="edge"><title>Node1&#45;&gt;Node7</title>
<path fill="none" stroke="midnightblue" d="M525.273,-69.8424C555.804,-58.906 593.137,-45.533 622.238,-35.1086"/>
<polygon fill="midnightblue" stroke="midnightblue" points="523.853,-66.6335 515.619,-73.3008 526.213,-73.2234 523.853,-66.6335"/>
</g>
<!-- Node8 -->
<g id="node15" class="node"><title>Node8</title>
<a xlink:href="_p_i_d___phi_angle_8cc.html" target="_top" xlink:title="src/calibration/modules\l/PID_PhiAngle.cc">
<polygon fill="white" stroke="black" points="745.5,-1 745.5,-35 862.5,-35 862.5,-1 745.5,-1"/>
<text text-anchor="start" x="753.5" y="-22" font-family="Helvetica,sans-Serif" font-size="10.00">src/calibration/modules</text>
<text text-anchor="middle" x="804" y="-9" font-family="Helvetica,sans-Serif" font-size="10.00">/PID_PhiAngle.cc</text>
</a>
</g>
<!-- Node1&#45;&gt;Node8 -->
<g id="edge14" class="edge"><title>Node1&#45;&gt;Node8</title>
<path fill="none" stroke="midnightblue" d="M525.809,-79.6399C580.213,-69.4623 664.508,-53.0228 737,-36 739.697,-35.3667 742.45,-34.7019 745.227,-34.0164"/>
<polygon fill="midnightblue" stroke="midnightblue" points="524.863,-76.2558 515.674,-81.5282 526.146,-83.1374 524.863,-76.2558"/>
</g>
<!-- Node9 -->
<g id="node17" class="node"><title>Node9</title>
<a xlink:href="_time_8cc.html" target="_top" xlink:title="src/calibration/modules\l/Time.cc">
<polygon fill="white" stroke="black" points="879.5,-1 879.5,-35 996.5,-35 996.5,-1 879.5,-1"/>
<text text-anchor="start" x="887.5" y="-22" font-family="Helvetica,sans-Serif" font-size="10.00">src/calibration/modules</text>
<text text-anchor="middle" x="938" y="-9" font-family="Helvetica,sans-Serif" font-size="10.00">/Time.cc</text>
</a>
</g>
<!-- Node1&#45;&gt;Node9 -->
<g id="edge16" class="edge"><title>Node1&#45;&gt;Node9</title>
<path fill="none" stroke="midnightblue" d="M525.874,-84.6942C604.106,-76.8666 749.09,-60.458 871,-36 873.716,-35.4551 876.485,-34.8628 879.275,-34.236"/>
<polygon fill="midnightblue" stroke="midnightblue" points="525.355,-81.2283 515.749,-85.6966 526.045,-88.1943 525.355,-81.2283"/>
</g>
</g>
</svg>
