<?xml version="1.0" encoding="UTF-8" standalone="no"?>
<!DOCTYPE svg PUBLIC "-//W3C//DTD SVG 1.1//EN"
 "http://www.w3.org/Graphics/SVG/1.1/DTD/svg11.dtd">
<!-- Generated by graphviz version 2.26.3 (20100126.1600)
 -->
<!-- Title: src/calibration/gui/CalCanvas.cc Pages: 1 -->
<svg width="1510pt" height="362pt"
 viewBox="0.00 0.00 1510.00 362.00" xmlns="http://www.w3.org/2000/svg" xmlns:xlink="http://www.w3.org/1999/xlink">
<g id="graph1" class="graph" transform="scale(1 1) rotate(0) translate(4 358)">
<title>src/calibration/gui/CalCanvas.cc</title>
<polygon fill="white" stroke="white" points="-4,5 -4,-358 1507,-358 1507,5 -4,5"/>
<!-- Node1 -->
<g id="node1" class="node"><title>Node1</title>
<polygon fill="#bfbfbf" stroke="black" points="1058.5,-319 1058.5,-353 1151.5,-353 1151.5,-319 1058.5,-319"/>
<text text-anchor="start" x="1066.5" y="-340" font-family="Helvetica,sans-Serif" font-size="10.00">src/calibration/gui</text>
<text text-anchor="middle" x="1105" y="-327" font-family="Helvetica,sans-Serif" font-size="10.00">/CalCanvas.cc</text>
</g>
<!-- Node2 -->
<g id="node3" class="node"><title>Node2</title>
<a xlink:href="_cal_canvas_8h.html" target="_top" xlink:title="CalCanvas.h">
<polygon fill="white" stroke="black" points="703,-260.5 703,-281.5 777,-281.5 777,-260.5 703,-260.5"/>
<text text-anchor="middle" x="740" y="-268.5" font-family="Helvetica,sans-Serif" font-size="10.00">CalCanvas.h</text>
</a>
</g>
<!-- Node1&#45;&gt;Node2 -->
<g id="edge2" class="edge"><title>Node1&#45;&gt;Node2</title>
<path fill="none" stroke="midnightblue" d="M1058.4,-327.702C988.519,-315.257 857.304,-291.89 787.119,-279.391"/>
<polygon fill="midnightblue" stroke="midnightblue" points="787.68,-275.936 777.221,-277.628 786.452,-282.828 787.68,-275.936"/>
</g>
<!-- Node5 -->
<g id="node9" class="node"><title>Node5</title>
<a xlink:href="_fit_function_8h.html" target="_top" xlink:title="calibration/fitfunctions\l/FitFunction.h">
<polygon fill="white" stroke="black" points="502,-189 502,-223 614,-223 614,-189 502,-189"/>
<text text-anchor="start" x="510" y="-210" font-family="Helvetica,sans-Serif" font-size="10.00">calibration/fitfunctions</text>
<text text-anchor="middle" x="558" y="-197" font-family="Helvetica,sans-Serif" font-size="10.00">/FitFunction.h</text>
</a>
</g>
<!-- Node1&#45;&gt;Node5 -->
<g id="edge72" class="edge"><title>Node1&#45;&gt;Node5</title>
<path fill="none" stroke="midnightblue" d="M1058.17,-332.087C965.254,-323.956 760.774,-304.137 694,-282 656.402,-269.536 617.315,-246.461 590.746,-228.995"/>
<polygon fill="midnightblue" stroke="midnightblue" points="592.496,-225.954 582.236,-223.31 588.607,-231.775 592.496,-225.954"/>
</g>
<!-- Node21 -->
<g id="node51" class="node"><title>Node21</title>
<a xlink:href="_indicator_8h.html" target="_top" xlink:title="Indicator.h">
<polygon fill="white" stroke="black" points="920,-130.5 920,-151.5 982,-151.5 982,-130.5 920,-130.5"/>
<text text-anchor="middle" x="951" y="-138.5" font-family="Helvetica,sans-Serif" font-size="10.00">Indicator.h</text>
</a>
</g>
<!-- Node1&#45;&gt;Node21 -->
<g id="edge60" class="edge"><title>Node1&#45;&gt;Node21</title>
<path fill="none" stroke="midnightblue" d="M1058.12,-326.054C1017.06,-316.279 961.967,-300.21 949,-282 923.453,-246.122 934.8,-191.036 943.803,-161.458"/>
<polygon fill="midnightblue" stroke="midnightblue" points="947.181,-162.389 946.942,-151.797 940.523,-160.227 947.181,-162.389"/>
</g>
<!-- Node23 -->
<g id="node57" class="node"><title>Node23</title>
<a xlink:href="_logger_8h.html" target="_top" xlink:title="base/Logger.h">
<polygon fill="white" stroke="black" points="958,-260.5 958,-281.5 1036,-281.5 1036,-260.5 958,-260.5"/>
<text text-anchor="middle" x="997" y="-268.5" font-family="Helvetica,sans-Serif" font-size="10.00">base/Logger.h</text>
</a>
</g>
<!-- Node1&#45;&gt;Node23 -->
<g id="edge68" class="edge"><title>Node1&#45;&gt;Node23</title>
<path fill="none" stroke="midnightblue" d="M1076.62,-318.922C1060.22,-309.049 1039.71,-296.704 1023.61,-287.016"/>
<polygon fill="midnightblue" stroke="midnightblue" points="1025.08,-283.816 1014.71,-281.658 1021.47,-289.814 1025.08,-283.816"/>
</g>
<!-- Node25 -->
<g id="node62" class="node"><title>Node25</title>
<polygon fill="white" stroke="#bfbfbf" points="1054,-260.5 1054,-281.5 1096,-281.5 1096,-260.5 1054,-260.5"/>
<text text-anchor="middle" x="1075" y="-268.5" font-family="Helvetica,sans-Serif" font-size="10.00">TF1.h</text>
</g>
<!-- Node1&#45;&gt;Node25 -->
<g id="edge74" class="edge"><title>Node1&#45;&gt;Node25</title>
<path fill="none" stroke="midnightblue" d="M1097.12,-318.922C1093.18,-310.395 1088.4,-300.025 1084.28,-291.115"/>
<polygon fill="midnightblue" stroke="midnightblue" points="1087.38,-289.465 1080.01,-281.852 1081.02,-292.398 1087.38,-289.465"/>
</g>
<!-- Node26 -->
<g id="node64" class="node"><title>Node26</title>
<polygon fill="white" stroke="#bfbfbf" points="1114,-260.5 1114,-281.5 1158,-281.5 1158,-260.5 1114,-260.5"/>
<text text-anchor="middle" x="1136" y="-268.5" font-family="Helvetica,sans-Serif" font-size="10.00">TH1.h</text>
</g>
<!-- Node1&#45;&gt;Node26 -->
<g id="edge76" class="edge"><title>Node1&#45;&gt;Node26</title>
<path fill="none" stroke="midnightblue" d="M1113.14,-318.922C1117.21,-310.395 1122.16,-300.025 1126.41,-291.115"/>
<polygon fill="midnightblue" stroke="midnightblue" points="1129.68,-292.385 1130.82,-281.852 1123.36,-289.371 1129.68,-292.385"/>
</g>
<!-- Node27 -->
<g id="node66" class="node"><title>Node27</title>
<polygon fill="white" stroke="#bfbfbf" points="1176,-260.5 1176,-281.5 1262,-281.5 1262,-260.5 1176,-260.5"/>
<text text-anchor="middle" x="1219" y="-268.5" font-family="Helvetica,sans-Serif" font-size="10.00">TRootCanvas.h</text>
</g>
<!-- Node1&#45;&gt;Node27 -->
<g id="edge78" class="edge"><title>Node1&#45;&gt;Node27</title>
<path fill="none" stroke="midnightblue" d="M1134.95,-318.922C1152.43,-308.957 1174.32,-296.473 1191.38,-286.745"/>
<polygon fill="midnightblue" stroke="midnightblue" points="1193.35,-289.652 1200.31,-281.658 1189.89,-283.571 1193.35,-289.652"/>
</g>
<!-- Node28 -->
<g id="node68" class="node"><title>Node28</title>
<polygon fill="white" stroke="#bfbfbf" points="1280,-260.5 1280,-281.5 1362,-281.5 1362,-260.5 1280,-260.5"/>
<text text-anchor="middle" x="1321" y="-268.5" font-family="Helvetica,sans-Serif" font-size="10.00">TGStatusBar.h</text>
</g>
<!-- Node1&#45;&gt;Node28 -->
<g id="edge80" class="edge"><title>Node1&#45;&gt;Node28</title>
<path fill="none" stroke="midnightblue" d="M1151.6,-321.976C1188.45,-310.889 1239.56,-295.507 1275.99,-284.546"/>
<polygon fill="midnightblue" stroke="midnightblue" points="1277.28,-287.812 1285.85,-281.579 1275.26,-281.109 1277.28,-287.812"/>
</g>
<!-- Node29 -->
<g id="node70" class="node"><title>Node29</title>
<polygon fill="white" stroke="#bfbfbf" points="1379.5,-260.5 1379.5,-281.5 1432.5,-281.5 1432.5,-260.5 1379.5,-260.5"/>
<text text-anchor="middle" x="1406" y="-268.5" font-family="Helvetica,sans-Serif" font-size="10.00">TExec.h</text>
</g>
<!-- Node1&#45;&gt;Node29 -->
<g id="edge82" class="edge"><title>Node1&#45;&gt;Node29</title>
<path fill="none" stroke="midnightblue" d="M1151.95,-327.999C1203.27,-318.912 1288.08,-302.906 1369.43,-282.24"/>
<polygon fill="midnightblue" stroke="midnightblue" points="1370.51,-285.575 1379.33,-279.697 1368.77,-278.795 1370.51,-285.575"/>
</g>
<!-- Node30 -->
<g id="node72" class="node"><title>Node30</title>
<polygon fill="white" stroke="#bfbfbf" points="1450,-260.5 1450,-281.5 1502,-281.5 1502,-260.5 1450,-260.5"/>
<text text-anchor="middle" x="1476" y="-268.5" font-family="Helvetica,sans-Serif" font-size="10.00">sstream</text>
</g>
<!-- Node1&#45;&gt;Node30 -->
<g id="edge84" class="edge"><title>Node1&#45;&gt;Node30</title>
<path fill="none" stroke="midnightblue" d="M1151.61,-330.681C1214.96,-322.976 1331.83,-307.073 1439.97,-281.998"/>
<polygon fill="midnightblue" stroke="midnightblue" points="1440.81,-285.398 1449.74,-279.703 1439.2,-278.584 1440.81,-285.398"/>
</g>
<!-- Node3 -->
<g id="node5" class="node"><title>Node3</title>
<a xlink:href="_indicator__traits_8h.html" target="_top" xlink:title="calibration/gui/Indicator\l_traits.h">
<polygon fill="white" stroke="black" points="719.5,-59 719.5,-93 836.5,-93 836.5,-59 719.5,-59"/>
<text text-anchor="start" x="727.5" y="-80" font-family="Helvetica,sans-Serif" font-size="10.00">calibration/gui/Indicator</text>
<text text-anchor="middle" x="778" y="-67" font-family="Helvetica,sans-Serif" font-size="10.00">_traits.h</text>
</a>
</g>
<!-- Node2&#45;&gt;Node3 -->
<g id="edge4" class="edge"><title>Node2&#45;&gt;Node3</title>
<path fill="none" stroke="midnightblue" d="M743.624,-260.278C746.717,-250.819 751.111,-236.615 754,-224 763.574,-182.194 770.766,-132.894 774.676,-103.065"/>
<polygon fill="midnightblue" stroke="midnightblue" points="778.166,-103.37 775.966,-93.0058 771.222,-102.479 778.166,-103.37"/>
</g>
<!-- Node2&#45;&gt;Node5 -->
<g id="edge8" class="edge"><title>Node2&#45;&gt;Node5</title>
<path fill="none" stroke="midnightblue" d="M710.353,-260.412C684.703,-251.251 646.879,-237.742 615.336,-226.477"/>
<polygon fill="midnightblue" stroke="midnightblue" points="616.364,-223.128 605.769,-223.06 614.009,-229.72 616.364,-223.128"/>
</g>
<!-- Node7 -->
<g id="node14" class="node"><title>Node7</title>
<polygon fill="white" stroke="#bfbfbf" points="429.5,-65.5 429.5,-86.5 470.5,-86.5 470.5,-65.5 429.5,-65.5"/>
<text text-anchor="middle" x="450" y="-73.5" font-family="Helvetica,sans-Serif" font-size="10.00">string</text>
</g>
<!-- Node2&#45;&gt;Node7 -->
<g id="edge52" class="edge"><title>Node2&#45;&gt;Node7</title>
<path fill="none" stroke="midnightblue" d="M702.953,-268.575C641.804,-263.836 523.464,-251.325 493,-224 456.296,-191.077 450.153,-128.867 449.591,-96.5909"/>
<polygon fill="midnightblue" stroke="midnightblue" points="453.091,-96.5176 449.585,-86.52 446.091,-96.5223 453.091,-96.5176"/>
</g>
<!-- Node15 -->
<g id="node31" class="node"><title>Node15</title>
<polygon fill="white" stroke="#bfbfbf" points="320,-65.5 320,-86.5 360,-86.5 360,-65.5 320,-65.5"/>
<text text-anchor="middle" x="340" y="-73.5" font-family="Helvetica,sans-Serif" font-size="10.00">limits</text>
</g>
<!-- Node2&#45;&gt;Node15 -->
<g id="edge56" class="edge"><title>Node2&#45;&gt;Node15</title>
<path fill="none" stroke="midnightblue" d="M702.928,-267.87C637.381,-261.819 504.154,-247.046 464,-224 409.725,-192.849 368.666,-128.425 350.412,-95.8225"/>
<polygon fill="midnightblue" stroke="midnightblue" points="353.35,-93.901 345.489,-86.7982 347.205,-97.2531 353.35,-93.901"/>
</g>
<!-- Node17 -->
<g id="node35" class="node"><title>Node17</title>
<polygon fill="white" stroke="#bfbfbf" points="855,-65.5 855,-86.5 907,-86.5 907,-65.5 855,-65.5"/>
<text text-anchor="middle" x="881" y="-73.5" font-family="Helvetica,sans-Serif" font-size="10.00">memory</text>
</g>
<!-- Node2&#45;&gt;Node17 -->
<g id="edge50" class="edge"><title>Node2&#45;&gt;Node17</title>
<path fill="none" stroke="midnightblue" d="M777.129,-262.746C812.242,-254.123 861.26,-239.684 873,-224 901.016,-186.572 893.295,-127.723 886.451,-96.7115"/>
<polygon fill="midnightblue" stroke="midnightblue" points="889.771,-95.5462 884.037,-86.6369 882.964,-97.1771 889.771,-95.5462"/>
</g>
<!-- Node18 -->
<g id="node37" class="node"><title>Node18</title>
<polygon fill="white" stroke="#bfbfbf" points="638.5,-65.5 638.5,-86.5 667.5,-86.5 667.5,-65.5 638.5,-65.5"/>
<text text-anchor="middle" x="653" y="-73.5" font-family="Helvetica,sans-Serif" font-size="10.00">list</text>
</g>
<!-- Node2&#45;&gt;Node18 -->
<g id="edge48" class="edge"><title>Node2&#45;&gt;Node18</title>
<path fill="none" stroke="midnightblue" d="M741.143,-260.249C743.254,-235.469 745.531,-173.164 721,-130 710.76,-111.983 691.91,-97.7443 676.649,-88.4218"/>
<polygon fill="midnightblue" stroke="midnightblue" points="678.129,-85.235 667.719,-83.2626 674.627,-91.296 678.129,-85.235"/>
</g>
<!-- Node19 -->
<g id="node46" class="node"><title>Node19</title>
<polygon fill="white" stroke="#bfbfbf" points="823.5,-195.5 823.5,-216.5 864.5,-216.5 864.5,-195.5 823.5,-195.5"/>
<text text-anchor="middle" x="844" y="-203.5" font-family="Helvetica,sans-Serif" font-size="10.00">stack</text>
</g>
<!-- Node2&#45;&gt;Node19 -->
<g id="edge54" class="edge"><title>Node2&#45;&gt;Node19</title>
<path fill="none" stroke="midnightblue" d="M757.173,-260.267C773.908,-249.807 799.549,-233.782 818.633,-221.854"/>
<polygon fill="midnightblue" stroke="midnightblue" points="820.521,-224.802 827.146,-216.534 816.811,-218.866 820.521,-224.802"/>
</g>
<!-- Node20 -->
<g id="node49" class="node"><title>Node20</title>
<polygon fill="white" stroke="#bfbfbf" points="647.5,-195.5 647.5,-216.5 712.5,-216.5 712.5,-195.5 647.5,-195.5"/>
<text text-anchor="middle" x="680" y="-203.5" font-family="Helvetica,sans-Serif" font-size="10.00">TCanvas.h</text>
</g>
<!-- Node2&#45;&gt;Node20 -->
<g id="edge58" class="edge"><title>Node2&#45;&gt;Node20</title>
<path fill="none" stroke="midnightblue" d="M730.092,-260.267C721.006,-250.423 707.367,-235.648 696.615,-224"/>
<polygon fill="midnightblue" stroke="midnightblue" points="699.078,-221.508 689.723,-216.534 693.934,-226.256 699.078,-221.508"/>
</g>
<!-- Node4 -->
<g id="node7" class="node"><title>Node4</title>
<polygon fill="white" stroke="#bfbfbf" points="562,-0.5 562,-21.5 618,-21.5 618,-0.5 562,-0.5"/>
<text text-anchor="middle" x="590" y="-8.5" font-family="Helvetica,sans-Serif" font-size="10.00">Rtypes.h</text>
</g>
<!-- Node3&#45;&gt;Node4 -->
<g id="edge6" class="edge"><title>Node3&#45;&gt;Node4</title>
<path fill="none" stroke="midnightblue" d="M728.605,-58.922C697.074,-48.0204 656.827,-34.105 627.835,-24.0812"/>
<polygon fill="midnightblue" stroke="midnightblue" points="628.677,-20.669 618.082,-20.7092 626.389,-27.2848 628.677,-20.669"/>
</g>
<!-- Node5&#45;&gt;Node3 -->
<g id="edge16" class="edge"><title>Node5&#45;&gt;Node3</title>
<path fill="none" stroke="midnightblue" d="M614.293,-191.233C654.18,-180.053 703.576,-164.534 721,-152 739.188,-138.916 754.123,-118.318 764.137,-101.865"/>
<polygon fill="midnightblue" stroke="midnightblue" points="767.162,-103.624 769.183,-93.2241 761.117,-100.094 767.162,-103.624"/>
</g>
<!-- Node5&#45;&gt;Node4 -->
<g id="edge40" class="edge"><title>Node5&#45;&gt;Node4</title>
<path fill="none" stroke="midnightblue" d="M521.045,-188.988C468.426,-162.43 382.341,-108.878 421,-58 436.768,-37.2477 507.003,-23.2347 551.82,-16.2264"/>
<polygon fill="midnightblue" stroke="midnightblue" points="552.429,-19.6741 561.792,-14.7162 551.381,-12.753 552.429,-19.6741"/>
</g>
<!-- Node6 -->
<g id="node11" class="node"><title>Node6</title>
<a xlink:href="_knobs_t_f1_8h.html" target="_top" xlink:title="KnobsTF1.h">
<polygon fill="white" stroke="black" points="506,-130.5 506,-151.5 576,-151.5 576,-130.5 506,-130.5"/>
<text text-anchor="middle" x="541" y="-138.5" font-family="Helvetica,sans-Serif" font-size="10.00">KnobsTF1.h</text>
</a>
</g>
<!-- Node5&#45;&gt;Node6 -->
<g id="edge10" class="edge"><title>Node5&#45;&gt;Node6</title>
<path fill="none" stroke="midnightblue" d="M553.533,-188.922C551.351,-180.579 548.708,-170.47 546.412,-161.692"/>
<polygon fill="midnightblue" stroke="midnightblue" points="549.755,-160.641 543.838,-151.852 542.982,-162.412 549.755,-160.641"/>
</g>
<!-- Node5&#45;&gt;Node7 -->
<g id="edge46" class="edge"><title>Node5&#45;&gt;Node7</title>
<path fill="none" stroke="midnightblue" d="M530.791,-188.863C517.044,-179.242 500.819,-166.308 489,-152 475.054,-135.117 464.221,-112.426 457.55,-96.244"/>
<polygon fill="midnightblue" stroke="midnightblue" points="460.701,-94.6943 453.776,-86.676 454.189,-97.2628 460.701,-94.6943"/>
</g>
<!-- Node8 -->
<g id="node17" class="node"><title>Node8</title>
<a xlink:href="interval_8h.html" target="_top" xlink:title="base/interval.h">
<polygon fill="white" stroke="black" points="192,-130.5 192,-151.5 272,-151.5 272,-130.5 192,-130.5"/>
<text text-anchor="middle" x="232" y="-138.5" font-family="Helvetica,sans-Serif" font-size="10.00">base/interval.h</text>
</a>
</g>
<!-- Node5&#45;&gt;Node8 -->
<g id="edge18" class="edge"><title>Node5&#45;&gt;Node8</title>
<path fill="none" stroke="midnightblue" d="M501.959,-194.826C440.178,-182.508 341.694,-162.871 282.305,-151.03"/>
<polygon fill="midnightblue" stroke="midnightblue" points="282.896,-147.579 272.405,-149.056 281.527,-154.444 282.896,-147.579"/>
</g>
<!-- Node16 -->
<g id="node33" class="node"><title>Node16</title>
<a xlink:href="memory_8h.html" target="_top" xlink:title="base/std_ext/memory.h">
<polygon fill="white" stroke="black" points="593.5,-130.5 593.5,-151.5 712.5,-151.5 712.5,-130.5 593.5,-130.5"/>
<text text-anchor="middle" x="653" y="-138.5" font-family="Helvetica,sans-Serif" font-size="10.00">base/std_ext/memory.h</text>
</a>
</g>
<!-- Node5&#45;&gt;Node16 -->
<g id="edge34" class="edge"><title>Node5&#45;&gt;Node16</title>
<path fill="none" stroke="midnightblue" d="M582.96,-188.922C597.12,-179.233 614.76,-167.165 628.793,-157.562"/>
<polygon fill="midnightblue" stroke="midnightblue" points="631.146,-160.194 637.422,-151.658 627.193,-154.417 631.146,-160.194"/>
</g>
<!-- Node5&#45;&gt;Node17 -->
<g id="edge42" class="edge"><title>Node5&#45;&gt;Node17</title>
<path fill="none" stroke="midnightblue" d="M614.184,-193.666C652.416,-184.379 703.729,-170.148 747,-152 787.154,-135.16 830.431,-109.001 856.618,-92.1876"/>
<polygon fill="midnightblue" stroke="midnightblue" points="858.652,-95.0402 865.135,-86.6606 854.841,-89.1682 858.652,-95.0402"/>
</g>
<!-- Node5&#45;&gt;Node18 -->
<g id="edge44" class="edge"><title>Node5&#45;&gt;Node18</title>
<path fill="none" stroke="midnightblue" d="M528.592,-188.934C506.385,-173.814 482.083,-150.948 497,-130 512.532,-108.187 588.51,-89.4461 628.413,-80.9149"/>
<polygon fill="midnightblue" stroke="midnightblue" points="629.329,-84.2992 638.404,-78.8314 627.9,-77.4466 629.329,-84.2992"/>
</g>
<!-- Node6&#45;&gt;Node3 -->
<g id="edge12" class="edge"><title>Node6&#45;&gt;Node3</title>
<path fill="none" stroke="midnightblue" d="M576.225,-131.339C611.23,-121.738 665.839,-106.761 709.423,-94.8081"/>
<polygon fill="midnightblue" stroke="midnightblue" points="710.391,-98.172 719.109,-92.1516 708.539,-91.4212 710.391,-98.172"/>
</g>
<!-- Node6&#45;&gt;Node7 -->
<g id="edge14" class="edge"><title>Node6&#45;&gt;Node7</title>
<path fill="none" stroke="midnightblue" d="M525.973,-130.267C511.662,-120.044 489.906,-104.504 473.338,-92.6699"/>
<polygon fill="midnightblue" stroke="midnightblue" points="474.919,-89.4981 464.747,-86.5337 470.85,-95.1942 474.919,-89.4981"/>
</g>
<!-- Node9 -->
<g id="node19" class="node"><title>Node9</title>
<polygon fill="white" stroke="#bfbfbf" points="104,-65.5 104,-86.5 160,-86.5 160,-65.5 104,-65.5"/>
<text text-anchor="middle" x="132" y="-73.5" font-family="Helvetica,sans-Serif" font-size="10.00">algorithm</text>
</g>
<!-- Node8&#45;&gt;Node9 -->
<g id="edge20" class="edge"><title>Node8&#45;&gt;Node9</title>
<path fill="none" stroke="midnightblue" d="M215.487,-130.267C199.469,-119.855 174.964,-103.927 156.64,-92.0163"/>
<polygon fill="midnightblue" stroke="midnightblue" points="158.498,-89.0491 148.206,-86.5337 154.683,-94.9182 158.498,-89.0491"/>
</g>
<!-- Node10 -->
<g id="node21" class="node"><title>Node10</title>
<polygon fill="white" stroke="#bfbfbf" points="177.5,-65.5 177.5,-86.5 236.5,-86.5 236.5,-65.5 177.5,-65.5"/>
<text text-anchor="middle" x="207" y="-73.5" font-family="Helvetica,sans-Serif" font-size="10.00">stdexcept</text>
</g>
<!-- Node8&#45;&gt;Node10 -->
<g id="edge22" class="edge"><title>Node8&#45;&gt;Node10</title>
<path fill="none" stroke="midnightblue" d="M227.872,-130.267C224.304,-120.991 219.052,-107.336 214.71,-96.0453"/>
<polygon fill="midnightblue" stroke="midnightblue" points="217.908,-94.6107 211.051,-86.5337 211.375,-97.1236 217.908,-94.6107"/>
</g>
<!-- Node11 -->
<g id="node23" class="node"><title>Node11</title>
<a xlink:href="printable_8h.html" target="_top" xlink:title="printable.h">
<polygon fill="white" stroke="black" points="24,-65.5 24,-86.5 86,-86.5 86,-65.5 24,-65.5"/>
<text text-anchor="middle" x="55" y="-73.5" font-family="Helvetica,sans-Serif" font-size="10.00">printable.h</text>
</a>
</g>
<!-- Node8&#45;&gt;Node11 -->
<g id="edge24" class="edge"><title>Node8&#45;&gt;Node11</title>
<path fill="none" stroke="midnightblue" d="M198.466,-130.454C170.534,-121.442 129.84,-107.781 95,-94 92.3445,-92.9496 89.6087,-91.8207 86.873,-90.6588"/>
<polygon fill="midnightblue" stroke="midnightblue" points="88.2547,-87.4431 77.6898,-86.6478 85.4528,-93.8579 88.2547,-87.4431"/>
</g>
<!-- Node14 -->
<g id="node29" class="node"><title>Node14</title>
<a xlink:href="types_8h.html" target="_top" xlink:title="types.h">
<polygon fill="white" stroke="black" points="253.5,-65.5 253.5,-86.5 302.5,-86.5 302.5,-65.5 253.5,-65.5"/>
<text text-anchor="middle" x="278" y="-73.5" font-family="Helvetica,sans-Serif" font-size="10.00">types.h</text>
</a>
</g>
<!-- Node8&#45;&gt;Node14 -->
<g id="edge30" class="edge"><title>Node8&#45;&gt;Node14</title>
<path fill="none" stroke="midnightblue" d="M239.596,-130.267C246.361,-120.707 256.418,-106.496 264.543,-95.0152"/>
<polygon fill="midnightblue" stroke="midnightblue" points="267.626,-96.7183 270.545,-86.5337 261.912,-92.6746 267.626,-96.7183"/>
</g>
<!-- Node8&#45;&gt;Node15 -->
<g id="edge32" class="edge"><title>Node8&#45;&gt;Node15</title>
<path fill="none" stroke="midnightblue" d="M249.941,-130.456C265.991,-120.992 290.134,-106.681 311,-94 312.111,-93.3249 313.244,-92.6333 314.388,-91.933"/>
<polygon fill="midnightblue" stroke="midnightblue" points="316.488,-94.7501 323.165,-86.5236 312.815,-88.7911 316.488,-94.7501"/>
</g>
<!-- Node12 -->
<g id="node25" class="node"><title>Node12</title>
<polygon fill="white" stroke="#bfbfbf" points="0,-0.5 0,-21.5 44,-21.5 44,-0.5 0,-0.5"/>
<text text-anchor="middle" x="22" y="-8.5" font-family="Helvetica,sans-Serif" font-size="10.00">vector</text>
</g>
<!-- Node11&#45;&gt;Node12 -->
<g id="edge26" class="edge"><title>Node11&#45;&gt;Node12</title>
<path fill="none" stroke="midnightblue" d="M49.5507,-65.2666C44.7933,-55.8959 37.7676,-42.0573 32.0018,-30.7004"/>
<polygon fill="midnightblue" stroke="midnightblue" points="34.9957,-28.8659 27.3479,-21.5337 28.754,-32.0348 34.9957,-28.8659"/>
</g>
<!-- Node13 -->
<g id="node27" class="node"><title>Node13</title>
<polygon fill="white" stroke="#bfbfbf" points="62,-0.5 62,-21.5 114,-21.5 114,-0.5 62,-0.5"/>
<text text-anchor="middle" x="88" y="-8.5" font-family="Helvetica,sans-Serif" font-size="10.00">ostream</text>
</g>
<!-- Node11&#45;&gt;Node13 -->
<g id="edge28" class="edge"><title>Node11&#45;&gt;Node13</title>
<path fill="none" stroke="midnightblue" d="M60.4493,-65.2666C65.2067,-55.8959 72.2324,-42.0573 77.9982,-30.7004"/>
<polygon fill="midnightblue" stroke="midnightblue" points="81.246,-32.0348 82.6521,-21.5337 75.0043,-28.8659 81.246,-32.0348"/>
</g>
<!-- Node16&#45;&gt;Node17 -->
<g id="edge36" class="edge"><title>Node16&#45;&gt;Node17</title>
<path fill="none" stroke="midnightblue" d="M710.282,-130.478C748.981,-122.525 800.865,-110.203 845,-94 847.556,-93.0615 850.168,-91.9917 852.76,-90.8522"/>
<polygon fill="midnightblue" stroke="midnightblue" points="854.37,-93.9625 861.922,-86.5308 851.384,-87.6315 854.37,-93.9625"/>
</g>
<!-- Node16&#45;&gt;Node18 -->
<g id="edge38" class="edge"><title>Node16&#45;&gt;Node18</title>
<path fill="none" stroke="midnightblue" d="M653,-130.267C653,-121.18 653,-107.892 653,-96.7395"/>
<polygon fill="midnightblue" stroke="midnightblue" points="656.5,-96.5337 653,-86.5337 649.5,-96.5337 656.5,-96.5337"/>
</g>
<!-- Node21&#45;&gt;Node3 -->
<g id="edge62" class="edge"><title>Node21&#45;&gt;Node3</title>
<path fill="none" stroke="midnightblue" d="M922.82,-130.412C898.542,-121.291 862.793,-107.859 832.889,-96.623"/>
<polygon fill="midnightblue" stroke="midnightblue" points="833.999,-93.3012 823.407,-93.0604 831.537,-99.854 833.999,-93.3012"/>
</g>
<!-- Node21&#45;&gt;Node17 -->
<g id="edge64" class="edge"><title>Node21&#45;&gt;Node17</title>
<path fill="none" stroke="midnightblue" d="M939.441,-130.267C928.738,-120.328 912.622,-105.363 900.023,-93.6645"/>
<polygon fill="midnightblue" stroke="midnightblue" points="902.054,-90.7735 892.344,-86.5337 897.29,-95.903 902.054,-90.7735"/>
</g>
<!-- Node22 -->
<g id="node55" class="node"><title>Node22</title>
<polygon fill="white" stroke="#bfbfbf" points="926.5,-65.5 926.5,-86.5 975.5,-86.5 975.5,-65.5 926.5,-65.5"/>
<text text-anchor="middle" x="951" y="-73.5" font-family="Helvetica,sans-Serif" font-size="10.00">TLine.h</text>
</g>
<!-- Node21&#45;&gt;Node22 -->
<g id="edge66" class="edge"><title>Node21&#45;&gt;Node22</title>
<path fill="none" stroke="midnightblue" d="M951,-130.267C951,-121.18 951,-107.892 951,-96.7395"/>
<polygon fill="midnightblue" stroke="midnightblue" points="954.5,-96.5337 951,-86.5337 947.5,-96.5337 954.5,-96.5337"/>
</g>
<!-- Node24 -->
<g id="node59" class="node"><title>Node24</title>
<polygon fill="white" stroke="#bfbfbf" points="957.5,-195.5 957.5,-216.5 1072.5,-216.5 1072.5,-195.5 957.5,-195.5"/>
<text text-anchor="middle" x="1015" y="-203.5" font-family="Helvetica,sans-Serif" font-size="10.00">detail/easylogging++.h</text>
</g>
<!-- Node23&#45;&gt;Node24 -->
<g id="edge70" class="edge"><title>Node23&#45;&gt;Node24</title>
<path fill="none" stroke="midnightblue" d="M999.972,-260.267C1002.51,-251.085 1006.25,-237.615 1009.35,-226.392"/>
<polygon fill="midnightblue" stroke="midnightblue" points="1012.79,-227.105 1012.08,-216.534 1006.04,-225.237 1012.79,-227.105"/>
</g>
</g>
</svg>
