<?xml version="1.0" encoding="UTF-8" standalone="no"?>
<!DOCTYPE svg PUBLIC "-//W3C//DTD SVG 1.1//EN"
 "http://www.w3.org/Graphics/SVG/1.1/DTD/svg11.dtd">
<!-- Generated by graphviz version 2.26.3 (20100126.1600)
 -->
<!-- Title: src/calibration/gui/CalCanvas.h Pages: 1 -->
<svg width="872pt" height="304pt"
 viewBox="0.00 0.00 872.00 304.00" xmlns="http://www.w3.org/2000/svg" xmlns:xlink="http://www.w3.org/1999/xlink">
<g id="graph1" class="graph" transform="scale(1 1) rotate(0) translate(4 300)">
<title>src/calibration/gui/CalCanvas.h</title>
<polygon fill="white" stroke="white" points="-4,5 -4,-300 869,-300 869,5 -4,5"/>
<!-- Node1 -->
<g id="node1" class="node"><title>Node1</title>
<polygon fill="#bfbfbf" stroke="black" points="416.5,-261 416.5,-295 509.5,-295 509.5,-261 416.5,-261"/>
<text text-anchor="start" x="424.5" y="-282" font-family="Helvetica,sans-Serif" font-size="10.00">src/calibration/gui</text>
<text text-anchor="middle" x="463" y="-269" font-family="Helvetica,sans-Serif" font-size="10.00">/CalCanvas.h</text>
</g>
<!-- Node2 -->
<g id="node3" class="node"><title>Node2</title>
<a xlink:href="_indicator__traits_8h.html" target="_top" xlink:title="calibration/gui/Indicator\l_traits.h">
<polygon fill="white" stroke="black" points="-0.5,-59 -0.5,-93 116.5,-93 116.5,-59 -0.5,-59"/>
<text text-anchor="start" x="7.5" y="-80" font-family="Helvetica,sans-Serif" font-size="10.00">calibration/gui/Indicator</text>
<text text-anchor="middle" x="58" y="-67" font-family="Helvetica,sans-Serif" font-size="10.00">_traits.h</text>
</a>
</g>
<!-- Node1&#45;&gt;Node2 -->
<g id="edge2" class="edge"><title>Node1&#45;&gt;Node2</title>
<path fill="none" stroke="midnightblue" d="M416.41,-273.213C342.505,-265.046 202.233,-247.046 158,-224 117.866,-203.09 110.39,-190.12 86,-152 76.3943,-136.987 69.4366,-118.21 64.8594,-103.076"/>
<polygon fill="midnightblue" stroke="midnightblue" points="68.1726,-101.931 62.0677,-93.2719 61.4402,-103.848 68.1726,-101.931"/>
</g>
<!-- Node4 -->
<g id="node7" class="node"><title>Node4</title>
<a xlink:href="_fit_function_8h.html" target="_top" xlink:title="calibration/fitfunctions\l/FitFunction.h">
<polygon fill="white" stroke="black" points="326,-189 326,-223 438,-223 438,-189 326,-189"/>
<text text-anchor="start" x="334" y="-210" font-family="Helvetica,sans-Serif" font-size="10.00">calibration/fitfunctions</text>
<text text-anchor="middle" x="382" y="-197" font-family="Helvetica,sans-Serif" font-size="10.00">/FitFunction.h</text>
</a>
</g>
<!-- Node1&#45;&gt;Node4 -->
<g id="edge6" class="edge"><title>Node1&#45;&gt;Node4</title>
<path fill="none" stroke="midnightblue" d="M443.804,-260.937C433.389,-251.679 420.346,-240.086 408.93,-229.938"/>
<polygon fill="midnightblue" stroke="midnightblue" points="411.138,-227.218 401.339,-223.19 406.488,-232.45 411.138,-227.218"/>
</g>
<!-- Node6 -->
<g id="node12" class="node"><title>Node6</title>
<polygon fill="white" stroke="#bfbfbf" points="135.5,-65.5 135.5,-86.5 176.5,-86.5 176.5,-65.5 135.5,-65.5"/>
<text text-anchor="middle" x="156" y="-73.5" font-family="Helvetica,sans-Serif" font-size="10.00">string</text>
</g>
<!-- Node1&#45;&gt;Node6 -->
<g id="edge50" class="edge"><title>Node1&#45;&gt;Node6</title>
<path fill="none" stroke="midnightblue" d="M416.402,-268.332C329.235,-249.18 147.122,-203.77 112,-152 98.7876,-132.525 117.506,-108.904 134.451,-93.2179"/>
<polygon fill="midnightblue" stroke="midnightblue" points="136.776,-95.8345 141.992,-86.6123 132.163,-90.5692 136.776,-95.8345"/>
</g>
<!-- Node14 -->
<g id="node29" class="node"><title>Node14</title>
<polygon fill="white" stroke="#bfbfbf" points="824,-65.5 824,-86.5 864,-86.5 864,-65.5 824,-65.5"/>
<text text-anchor="middle" x="844" y="-73.5" font-family="Helvetica,sans-Serif" font-size="10.00">limits</text>
</g>
<!-- Node1&#45;&gt;Node14 -->
<g id="edge54" class="edge"><title>Node1&#45;&gt;Node14</title>
<path fill="none" stroke="midnightblue" d="M497.681,-260.939C561.334,-229.391 700.759,-159.195 815,-94 816.129,-93.3557 817.278,-92.6896 818.434,-92.0103"/>
<polygon fill="midnightblue" stroke="midnightblue" points="820.507,-94.8473 827.258,-86.6825 816.889,-88.8548 820.507,-94.8473"/>
</g>
<!-- Node16 -->
<g id="node33" class="node"><title>Node16</title>
<polygon fill="white" stroke="#bfbfbf" points="269,-65.5 269,-86.5 321,-86.5 321,-65.5 269,-65.5"/>
<text text-anchor="middle" x="295" y="-73.5" font-family="Helvetica,sans-Serif" font-size="10.00">memory</text>
</g>
<!-- Node1&#45;&gt;Node16 -->
<g id="edge48" class="edge"><title>Node1&#45;&gt;Node16</title>
<path fill="none" stroke="midnightblue" d="M416.367,-272.378C383.973,-266.025 342.247,-252.542 317,-224 285.577,-188.475 287.785,-128.343 291.637,-96.7724"/>
<polygon fill="midnightblue" stroke="midnightblue" points="295.15,-96.9208 293.071,-86.532 288.218,-95.9499 295.15,-96.9208"/>
</g>
<!-- Node17 -->
<g id="node35" class="node"><title>Node17</title>
<polygon fill="white" stroke="#bfbfbf" points="443.5,-65.5 443.5,-86.5 472.5,-86.5 472.5,-65.5 443.5,-65.5"/>
<text text-anchor="middle" x="458" y="-73.5" font-family="Helvetica,sans-Serif" font-size="10.00">list</text>
</g>
<!-- Node1&#45;&gt;Node17 -->
<g id="edge46" class="edge"><title>Node1&#45;&gt;Node17</title>
<path fill="none" stroke="midnightblue" d="M464.697,-260.649C467.128,-232.97 470.901,-177.134 467,-130 466.079,-118.87 464.107,-106.582 462.244,-96.5421"/>
<polygon fill="midnightblue" stroke="midnightblue" points="465.672,-95.8353 460.319,-86.6924 458.802,-97.1781 465.672,-95.8353"/>
</g>
<!-- Node18 -->
<g id="node44" class="node"><title>Node18</title>
<polygon fill="white" stroke="#bfbfbf" points="714.5,-195.5 714.5,-216.5 755.5,-216.5 755.5,-195.5 714.5,-195.5"/>
<text text-anchor="middle" x="735" y="-203.5" font-family="Helvetica,sans-Serif" font-size="10.00">stack</text>
</g>
<!-- Node1&#45;&gt;Node18 -->
<g id="edge52" class="edge"><title>Node1&#45;&gt;Node18</title>
<path fill="none" stroke="midnightblue" d="M509.669,-271.155C558.429,-263.146 636.641,-247.859 701,-224 703.272,-223.158 705.583,-222.193 707.876,-221.156"/>
<polygon fill="midnightblue" stroke="midnightblue" points="709.637,-224.191 717.058,-216.629 706.541,-217.912 709.637,-224.191"/>
</g>
<!-- Node19 -->
<g id="node47" class="node"><title>Node19</title>
<polygon fill="white" stroke="#bfbfbf" points="772.5,-195.5 772.5,-216.5 837.5,-216.5 837.5,-195.5 772.5,-195.5"/>
<text text-anchor="middle" x="805" y="-203.5" font-family="Helvetica,sans-Serif" font-size="10.00">TCanvas.h</text>
</g>
<!-- Node1&#45;&gt;Node19 -->
<g id="edge56" class="edge"><title>Node1&#45;&gt;Node19</title>
<path fill="none" stroke="midnightblue" d="M509.696,-273.089C569.565,-266.011 676.136,-250.757 764,-224 767.374,-222.972 770.841,-221.744 774.26,-220.417"/>
<polygon fill="midnightblue" stroke="midnightblue" points="775.77,-223.58 783.659,-216.507 773.081,-217.117 775.77,-223.58"/>
</g>
<!-- Node3 -->
<g id="node5" class="node"><title>Node3</title>
<polygon fill="white" stroke="#bfbfbf" points="245,-0.5 245,-21.5 301,-21.5 301,-0.5 245,-0.5"/>
<text text-anchor="middle" x="273" y="-8.5" font-family="Helvetica,sans-Serif" font-size="10.00">Rtypes.h</text>
</g>
<!-- Node2&#45;&gt;Node3 -->
<g id="edge4" class="edge"><title>Node2&#45;&gt;Node3</title>
<path fill="none" stroke="midnightblue" d="M114.489,-58.922C152.486,-47.4345 201.552,-32.6004 234.963,-22.4996"/>
<polygon fill="midnightblue" stroke="midnightblue" points="236.24,-25.77 244.799,-19.5258 234.214,-19.0695 236.24,-25.77"/>
</g>
<!-- Node4&#45;&gt;Node2 -->
<g id="edge14" class="edge"><title>Node4&#45;&gt;Node2</title>
<path fill="none" stroke="midnightblue" d="M325.903,-199.709C257.481,-191.199 146.645,-174.463 112,-152 93.4946,-140.002 79.3904,-119.245 70.2448,-102.453"/>
<polygon fill="midnightblue" stroke="midnightblue" points="73.128,-100.407 65.4372,-93.1199 66.9051,-103.613 73.128,-100.407"/>
</g>
<!-- Node4&#45;&gt;Node3 -->
<g id="edge38" class="edge"><title>Node4&#45;&gt;Node3</title>
<path fill="none" stroke="midnightblue" d="M422.052,-188.845C438.231,-180.033 455.711,-167.785 467,-152 491.571,-117.644 507.371,-90.9949 481,-58 460.197,-31.9724 365.816,-19.31 311.611,-14.0857"/>
<polygon fill="midnightblue" stroke="midnightblue" points="311.619,-10.5716 301.339,-13.1382 310.976,-17.542 311.619,-10.5716"/>
</g>
<!-- Node5 -->
<g id="node9" class="node"><title>Node5</title>
<a xlink:href="_knobs_t_f1_8h.html" target="_top" xlink:title="KnobsTF1.h">
<polygon fill="white" stroke="black" points="121,-130.5 121,-151.5 191,-151.5 191,-130.5 121,-130.5"/>
<text text-anchor="middle" x="156" y="-138.5" font-family="Helvetica,sans-Serif" font-size="10.00">KnobsTF1.h</text>
</a>
</g>
<!-- Node4&#45;&gt;Node5 -->
<g id="edge8" class="edge"><title>Node4&#45;&gt;Node5</title>
<path fill="none" stroke="midnightblue" d="M325.844,-189.849C287.248,-178.748 236.688,-164.207 200.796,-153.884"/>
<polygon fill="midnightblue" stroke="midnightblue" points="201.661,-150.491 191.083,-151.09 199.726,-157.218 201.661,-150.491"/>
</g>
<!-- Node4&#45;&gt;Node6 -->
<g id="edge44" class="edge"><title>Node4&#45;&gt;Node6</title>
<path fill="none" stroke="midnightblue" d="M351.989,-188.737C307.691,-163.256 225.472,-115.962 182.981,-91.5201"/>
<polygon fill="midnightblue" stroke="midnightblue" points="184.714,-88.4789 174.3,-86.5266 181.223,-94.5467 184.714,-88.4789"/>
</g>
<!-- Node7 -->
<g id="node15" class="node"><title>Node7</title>
<a xlink:href="interval_8h.html" target="_top" xlink:title="base/interval.h">
<polygon fill="white" stroke="black" points="579,-130.5 579,-151.5 659,-151.5 659,-130.5 579,-130.5"/>
<text text-anchor="middle" x="619" y="-138.5" font-family="Helvetica,sans-Serif" font-size="10.00">base/interval.h</text>
</a>
</g>
<!-- Node4&#45;&gt;Node7 -->
<g id="edge16" class="edge"><title>Node4&#45;&gt;Node7</title>
<path fill="none" stroke="midnightblue" d="M438.166,-190.596C478.501,-179.534 532.305,-164.777 570.716,-154.243"/>
<polygon fill="midnightblue" stroke="midnightblue" points="571.905,-157.546 580.623,-151.525 570.054,-150.795 571.905,-157.546"/>
</g>
<!-- Node15 -->
<g id="node31" class="node"><title>Node15</title>
<a xlink:href="memory_8h.html" target="_top" xlink:title="base/std_ext/memory.h">
<polygon fill="white" stroke="black" points="322.5,-130.5 322.5,-151.5 441.5,-151.5 441.5,-130.5 322.5,-130.5"/>
<text text-anchor="middle" x="382" y="-138.5" font-family="Helvetica,sans-Serif" font-size="10.00">base/std_ext/memory.h</text>
</a>
</g>
<!-- Node4&#45;&gt;Node15 -->
<g id="edge32" class="edge"><title>Node4&#45;&gt;Node15</title>
<path fill="none" stroke="midnightblue" d="M382,-188.922C382,-180.67 382,-170.692 382,-161.982"/>
<polygon fill="midnightblue" stroke="midnightblue" points="385.5,-161.852 382,-151.852 378.5,-161.852 385.5,-161.852"/>
</g>
<!-- Node4&#45;&gt;Node16 -->
<g id="edge40" class="edge"><title>Node4&#45;&gt;Node16</title>
<path fill="none" stroke="midnightblue" d="M352.422,-188.879C338.834,-179.595 323.634,-166.954 314,-152 303.228,-135.279 298.562,-112.859 296.542,-96.7084"/>
<polygon fill="midnightblue" stroke="midnightblue" points="300.016,-96.2716 295.524,-86.6762 293.052,-96.9786 300.016,-96.2716"/>
</g>
<!-- Node4&#45;&gt;Node17 -->
<g id="edge42" class="edge"><title>Node4&#45;&gt;Node17</title>
<path fill="none" stroke="midnightblue" d="M413.214,-188.966C426.83,-179.852 441.581,-167.327 450,-152 459.251,-135.156 460.595,-113.043 460.017,-97.0159"/>
<polygon fill="midnightblue" stroke="midnightblue" points="463.481,-96.3366 459.343,-86.5832 456.496,-96.7882 463.481,-96.3366"/>
</g>
<!-- Node5&#45;&gt;Node2 -->
<g id="edge10" class="edge"><title>Node5&#45;&gt;Node2</title>
<path fill="none" stroke="midnightblue" d="M139.817,-130.267C126.974,-121.748 108.563,-109.537 92.4569,-98.8541"/>
<polygon fill="midnightblue" stroke="midnightblue" points="94.0646,-95.7205 83.7964,-93.1099 90.1954,-101.554 94.0646,-95.7205"/>
</g>
<!-- Node5&#45;&gt;Node6 -->
<g id="edge12" class="edge"><title>Node5&#45;&gt;Node6</title>
<path fill="none" stroke="midnightblue" d="M156,-130.267C156,-121.18 156,-107.892 156,-96.7395"/>
<polygon fill="midnightblue" stroke="midnightblue" points="159.5,-96.5337 156,-86.5337 152.5,-96.5337 159.5,-96.5337"/>
</g>
<!-- Node8 -->
<g id="node17" class="node"><title>Node8</title>
<polygon fill="white" stroke="#bfbfbf" points="674,-65.5 674,-86.5 730,-86.5 730,-65.5 674,-65.5"/>
<text text-anchor="middle" x="702" y="-73.5" font-family="Helvetica,sans-Serif" font-size="10.00">algorithm</text>
</g>
<!-- Node7&#45;&gt;Node8 -->
<g id="edge18" class="edge"><title>Node7&#45;&gt;Node8</title>
<path fill="none" stroke="midnightblue" d="M632.706,-130.267C645.638,-120.139 665.235,-104.792 680.293,-92.9995"/>
<polygon fill="midnightblue" stroke="midnightblue" points="682.834,-95.455 688.549,-86.5337 678.518,-89.9438 682.834,-95.455"/>
</g>
<!-- Node9 -->
<g id="node19" class="node"><title>Node9</title>
<polygon fill="white" stroke="#bfbfbf" points="747.5,-65.5 747.5,-86.5 806.5,-86.5 806.5,-65.5 747.5,-65.5"/>
<text text-anchor="middle" x="777" y="-73.5" font-family="Helvetica,sans-Serif" font-size="10.00">stdexcept</text>
</g>
<!-- Node7&#45;&gt;Node9 -->
<g id="edge20" class="edge"><title>Node7&#45;&gt;Node9</title>
<path fill="none" stroke="midnightblue" d="M647.837,-130.346C672.288,-121.16 708.191,-107.311 739,-94 741.345,-92.9866 743.76,-91.9139 746.18,-90.817"/>
<polygon fill="midnightblue" stroke="midnightblue" points="747.811,-93.9188 755.415,-86.5408 744.87,-87.5668 747.811,-93.9188"/>
</g>
<!-- Node10 -->
<g id="node21" class="node"><title>Node10</title>
<a xlink:href="printable_8h.html" target="_top" xlink:title="printable.h">
<polygon fill="white" stroke="black" points="528,-65.5 528,-86.5 590,-86.5 590,-65.5 528,-65.5"/>
<text text-anchor="middle" x="559" y="-73.5" font-family="Helvetica,sans-Serif" font-size="10.00">printable.h</text>
</a>
</g>
<!-- Node7&#45;&gt;Node10 -->
<g id="edge22" class="edge"><title>Node7&#45;&gt;Node10</title>
<path fill="none" stroke="midnightblue" d="M609.092,-130.267C600.006,-120.423 586.367,-105.648 575.615,-93.9996"/>
<polygon fill="midnightblue" stroke="midnightblue" points="578.078,-91.5078 568.723,-86.5337 572.934,-96.2558 578.078,-91.5078"/>
</g>
<!-- Node13 -->
<g id="node27" class="node"><title>Node13</title>
<a xlink:href="types_8h.html" target="_top" xlink:title="types.h">
<polygon fill="white" stroke="black" points="607.5,-65.5 607.5,-86.5 656.5,-86.5 656.5,-65.5 607.5,-65.5"/>
<text text-anchor="middle" x="632" y="-73.5" font-family="Helvetica,sans-Serif" font-size="10.00">types.h</text>
</a>
</g>
<!-- Node7&#45;&gt;Node13 -->
<g id="edge28" class="edge"><title>Node7&#45;&gt;Node13</title>
<path fill="none" stroke="midnightblue" d="M621.147,-130.267C622.983,-121.085 625.677,-107.615 627.922,-96.3917"/>
<polygon fill="midnightblue" stroke="midnightblue" points="631.364,-97.0259 629.893,-86.5337 624.5,-95.6531 631.364,-97.0259"/>
</g>
<!-- Node7&#45;&gt;Node14 -->
<g id="edge30" class="edge"><title>Node7&#45;&gt;Node14</title>
<path fill="none" stroke="midnightblue" d="M659.393,-132.039C712.484,-120.149 800.711,-99.9645 815,-94 816.617,-93.3252 818.247,-92.5662 819.865,-91.7515"/>
<polygon fill="midnightblue" stroke="midnightblue" points="821.861,-94.644 828.841,-86.6738 818.414,-88.5514 821.861,-94.644"/>
</g>
<!-- Node11 -->
<g id="node23" class="node"><title>Node11</title>
<polygon fill="white" stroke="#bfbfbf" points="570,-0.5 570,-21.5 614,-21.5 614,-0.5 570,-0.5"/>
<text text-anchor="middle" x="592" y="-8.5" font-family="Helvetica,sans-Serif" font-size="10.00">vector</text>
</g>
<!-- Node10&#45;&gt;Node11 -->
<g id="edge24" class="edge"><title>Node10&#45;&gt;Node11</title>
<path fill="none" stroke="midnightblue" d="M564.449,-65.2666C569.207,-55.8959 576.232,-42.0573 581.998,-30.7004"/>
<polygon fill="midnightblue" stroke="midnightblue" points="585.246,-32.0348 586.652,-21.5337 579.004,-28.8659 585.246,-32.0348"/>
</g>
<!-- Node12 -->
<g id="node25" class="node"><title>Node12</title>
<polygon fill="white" stroke="#bfbfbf" points="500,-0.5 500,-21.5 552,-21.5 552,-0.5 500,-0.5"/>
<text text-anchor="middle" x="526" y="-8.5" font-family="Helvetica,sans-Serif" font-size="10.00">ostream</text>
</g>
<!-- Node10&#45;&gt;Node12 -->
<g id="edge26" class="edge"><title>Node10&#45;&gt;Node12</title>
<path fill="none" stroke="midnightblue" d="M553.551,-65.2666C548.793,-55.8959 541.768,-42.0573 536.002,-30.7004"/>
<polygon fill="midnightblue" stroke="midnightblue" points="538.996,-28.8659 531.348,-21.5337 532.754,-32.0348 538.996,-28.8659"/>
</g>
<!-- Node15&#45;&gt;Node16 -->
<g id="edge34" class="edge"><title>Node15&#45;&gt;Node16</title>
<path fill="none" stroke="midnightblue" d="M367.634,-130.267C353.951,-120.044 333.152,-104.504 317.312,-92.6699"/>
<polygon fill="midnightblue" stroke="midnightblue" points="319.205,-89.7151 309.099,-86.5337 315.015,-95.3229 319.205,-89.7151"/>
</g>
<!-- Node15&#45;&gt;Node17 -->
<g id="edge36" class="edge"><title>Node15&#45;&gt;Node17</title>
<path fill="none" stroke="midnightblue" d="M394.55,-130.267C406.281,-120.233 424.001,-105.078 437.736,-93.3311"/>
<polygon fill="midnightblue" stroke="midnightblue" points="440.359,-95.6933 445.684,-86.5337 435.809,-90.3735 440.359,-95.6933"/>
</g>
</g>
</svg>
