<?xml version="1.0" encoding="UTF-8" standalone="no"?>
<!DOCTYPE svg PUBLIC "-//W3C//DTD SVG 1.1//EN"
 "http://www.w3.org/Graphics/SVG/1.1/DTD/svg11.dtd">
<!-- Generated by graphviz version 2.26.3 (20100126.1600)
 -->
<!-- Title: src/reconstruct/CandidateBuilder.h Pages: 1 -->
<svg width="1277pt" height="508pt"
 viewBox="0.00 0.00 1276.64 508.00" xmlns="http://www.w3.org/2000/svg" xmlns:xlink="http://www.w3.org/1999/xlink">
<g id="graph1" class="graph" transform="scale(1 1) rotate(0) translate(4 504)">
<title>src/reconstruct/CandidateBuilder.h</title>
<polygon fill="white" stroke="white" points="-4,5 -4,-504 1273.64,-504 1273.64,5 -4,5"/>
<!-- Node1 -->
<g id="node1" class="node"><title>Node1</title>
<polygon fill="#bfbfbf" stroke="black" points="764.5,-465 764.5,-499 893.5,-499 893.5,-465 764.5,-465"/>
<text text-anchor="start" x="772.5" y="-486" font-family="Helvetica,sans-Serif" font-size="10.00">src/reconstruct/Candidate</text>
<text text-anchor="middle" x="829" y="-473" font-family="Helvetica,sans-Serif" font-size="10.00">Builder.h</text>
</g>
<!-- Node2 -->
<g id="node3" class="node"><title>Node2</title>
<a xlink:href="_detector__t_8h.html" target="_top" xlink:title="base/Detector_t.h">
<polygon fill="white" stroke="black" points="688.5,-174.5 688.5,-195.5 783.5,-195.5 783.5,-174.5 688.5,-174.5"/>
<text text-anchor="middle" x="736" y="-182.5" font-family="Helvetica,sans-Serif" font-size="10.00">base/Detector_t.h</text>
</a>
</g>
<!-- Node1&#45;&gt;Node2 -->
<g id="edge2" class="edge"><title>Node1&#45;&gt;Node2</title>
<path fill="none" stroke="midnightblue" d="M823.897,-464.658C817.398,-440.999 807,-397.18 807,-359 807,-359 807,-359 807,-301 807,-268.228 798.464,-259.731 781,-232 774.271,-221.315 764.839,-211 756.347,-202.769"/>
<polygon fill="midnightblue" stroke="midnightblue" points="758.619,-200.102 748.917,-195.845 753.847,-205.223 758.619,-200.102"/>
</g>
<!-- Node11 -->
<g id="node22" class="node"><title>Node11</title>
<a xlink:href="_t_cluster_8h.html" target="_top" xlink:title="tree/TCluster.h">
<polygon fill="white" stroke="black" points="298,-290.5 298,-311.5 380,-311.5 380,-290.5 298,-290.5"/>
<text text-anchor="middle" x="339" y="-298.5" font-family="Helvetica,sans-Serif" font-size="10.00">tree/TCluster.h</text>
</a>
</g>
<!-- Node1&#45;&gt;Node11 -->
<g id="edge22" class="edge"><title>Node1&#45;&gt;Node11</title>
<path fill="none" stroke="midnightblue" d="M764.488,-474.46C651.409,-459.965 424.071,-424.721 368,-370 354.605,-356.928 347.103,-336.722 343.103,-321.548"/>
<polygon fill="midnightblue" stroke="midnightblue" points="346.454,-320.507 340.775,-311.563 339.637,-322.096 346.454,-320.507"/>
</g>
<!-- Node25 -->
<g id="node66" class="node"><title>Node25</title>
<a xlink:href="_t_event_8h.html" target="_top" xlink:title="tree/TEvent.h">
<polygon fill="white" stroke="black" points="525,-406.5 525,-427.5 601,-427.5 601,-406.5 525,-406.5"/>
<text text-anchor="middle" x="563" y="-414.5" font-family="Helvetica,sans-Serif" font-size="10.00">tree/TEvent.h</text>
</a>
</g>
<!-- Node1&#45;&gt;Node25 -->
<g id="edge82" class="edge"><title>Node1&#45;&gt;Node25</title>
<path fill="none" stroke="midnightblue" d="M764.269,-466.182C717.003,-454.632 653.953,-439.225 611.104,-428.755"/>
<polygon fill="midnightblue" stroke="midnightblue" points="611.751,-425.31 601.206,-426.336 610.09,-432.11 611.751,-425.31"/>
</g>
<!-- Node29 -->
<g id="node89" class="node"><title>Node29</title>
<polygon fill="white" stroke="#bfbfbf" points="834.5,-406.5 834.5,-427.5 869.5,-427.5 869.5,-406.5 834.5,-406.5"/>
<text text-anchor="middle" x="852" y="-414.5" font-family="Helvetica,sans-Serif" font-size="10.00">map</text>
</g>
<!-- Node1&#45;&gt;Node29 -->
<g id="edge120" class="edge"><title>Node1&#45;&gt;Node29</title>
<path fill="none" stroke="midnightblue" d="M835.043,-464.922C838.028,-456.487 841.651,-446.248 844.78,-437.403"/>
<polygon fill="midnightblue" stroke="midnightblue" points="848.124,-438.447 848.16,-427.852 841.525,-436.112 848.124,-438.447"/>
</g>
<!-- Node30 -->
<g id="node91" class="node"><title>Node30</title>
<polygon fill="white" stroke="#bfbfbf" points="886.5,-406.5 886.5,-427.5 915.5,-427.5 915.5,-406.5 886.5,-406.5"/>
<text text-anchor="middle" x="901" y="-414.5" font-family="Helvetica,sans-Serif" font-size="10.00">list</text>
</g>
<!-- Node1&#45;&gt;Node30 -->
<g id="edge122" class="edge"><title>Node1&#45;&gt;Node30</title>
<path fill="none" stroke="midnightblue" d="M847.917,-464.922C858.276,-455.57 871.092,-444.001 881.535,-434.572"/>
<polygon fill="midnightblue" stroke="midnightblue" points="883.902,-437.151 888.979,-427.852 879.211,-431.955 883.902,-437.151"/>
</g>
<!-- Node31 -->
<g id="node93" class="node"><title>Node31</title>
<polygon fill="white" stroke="#bfbfbf" points="933,-406.5 933,-427.5 985,-427.5 985,-406.5 933,-406.5"/>
<text text-anchor="middle" x="959" y="-414.5" font-family="Helvetica,sans-Serif" font-size="10.00">memory</text>
</g>
<!-- Node1&#45;&gt;Node31 -->
<g id="edge124" class="edge"><title>Node1&#45;&gt;Node31</title>
<path fill="none" stroke="midnightblue" d="M863.156,-464.922C883.456,-454.772 908.981,-442.01 928.584,-432.208"/>
<polygon fill="midnightblue" stroke="midnightblue" points="930.304,-435.261 937.683,-427.658 927.174,-429 930.304,-435.261"/>
</g>
<!-- Node3 -->
<g id="node5" class="node"><title>Node3</title>
<a xlink:href="printable_8h.html" target="_top" xlink:title="base/printable.h">
<polygon fill="white" stroke="black" points="622,-116.5 622,-137.5 708,-137.5 708,-116.5 622,-116.5"/>
<text text-anchor="middle" x="665" y="-124.5" font-family="Helvetica,sans-Serif" font-size="10.00">base/printable.h</text>
</a>
</g>
<!-- Node2&#45;&gt;Node3 -->
<g id="edge4" class="edge"><title>Node2&#45;&gt;Node3</title>
<path fill="none" stroke="midnightblue" d="M722.978,-174.362C712.569,-165.859 697.781,-153.779 685.745,-143.947"/>
<polygon fill="midnightblue" stroke="midnightblue" points="687.899,-141.187 677.94,-137.571 683.47,-146.608 687.899,-141.187"/>
</g>
<!-- Node4 -->
<g id="node7" class="node"><title>Node4</title>
<polygon fill="white" stroke="#bfbfbf" points="534,-58.5 534,-79.5 578,-79.5 578,-58.5 534,-58.5"/>
<text text-anchor="middle" x="556" y="-66.5" font-family="Helvetica,sans-Serif" font-size="10.00">vector</text>
</g>
<!-- Node2&#45;&gt;Node4 -->
<g id="edge20" class="edge"><title>Node2&#45;&gt;Node4</title>
<path fill="none" stroke="midnightblue" d="M692.907,-174.473C668,-166.998 636.955,-155.198 613,-138 594.29,-124.567 578.136,-103.556 567.852,-88.2463"/>
<polygon fill="midnightblue" stroke="midnightblue" points="570.608,-86.0631 562.236,-79.5695 564.731,-89.8664 570.608,-86.0631"/>
</g>
<!-- Node6 -->
<g id="node11" class="node"><title>Node6</title>
<polygon fill="white" stroke="#bfbfbf" points="224.5,-116.5 224.5,-137.5 289.5,-137.5 289.5,-116.5 224.5,-116.5"/>
<text text-anchor="middle" x="257" y="-124.5" font-family="Helvetica,sans-Serif" font-size="10.00">TVector3.h</text>
</g>
<!-- Node2&#45;&gt;Node6 -->
<g id="edge10" class="edge"><title>Node2&#45;&gt;Node6</title>
<path fill="none" stroke="midnightblue" d="M688.32,-179.227C594.881,-167.913 389.024,-142.986 299.724,-132.173"/>
<polygon fill="midnightblue" stroke="midnightblue" points="300.027,-128.685 289.679,-130.957 299.186,-135.634 300.027,-128.685"/>
</g>
<!-- Node7 -->
<g id="node13" class="node"><title>Node7</title>
<polygon fill="white" stroke="#bfbfbf" points="764,-116.5 764,-137.5 810,-137.5 810,-116.5 764,-116.5"/>
<text text-anchor="middle" x="787" y="-124.5" font-family="Helvetica,sans-Serif" font-size="10.00">cstdint</text>
</g>
<!-- Node2&#45;&gt;Node7 -->
<g id="edge12" class="edge"><title>Node2&#45;&gt;Node7</title>
<path fill="none" stroke="midnightblue" d="M745.354,-174.362C752.543,-166.186 762.641,-154.702 771.093,-145.091"/>
<polygon fill="midnightblue" stroke="midnightblue" points="773.73,-147.392 777.705,-137.571 768.473,-142.769 773.73,-147.392"/>
</g>
<!-- Node8 -->
<g id="node15" class="node"><title>Node8</title>
<polygon fill="white" stroke="#bfbfbf" points="907.5,-116.5 907.5,-137.5 966.5,-137.5 966.5,-116.5 907.5,-116.5"/>
<text text-anchor="middle" x="937" y="-124.5" font-family="Helvetica,sans-Serif" font-size="10.00">stdexcept</text>
</g>
<!-- Node2&#45;&gt;Node8 -->
<g id="edge14" class="edge"><title>Node2&#45;&gt;Node8</title>
<path fill="none" stroke="midnightblue" d="M772.58,-174.464C803.552,-165.541 849.39,-152.329 897.485,-138.436"/>
<polygon fill="midnightblue" stroke="midnightblue" points="898.494,-141.788 907.13,-135.65 896.552,-135.063 898.494,-141.788"/>
</g>
<!-- Node9 -->
<g id="node17" class="node"><title>Node9</title>
<polygon fill="white" stroke="#bfbfbf" points="723.5,-0.5 723.5,-21.5 764.5,-21.5 764.5,-0.5 723.5,-0.5"/>
<text text-anchor="middle" x="744" y="-8.5" font-family="Helvetica,sans-Serif" font-size="10.00">string</text>
</g>
<!-- Node2&#45;&gt;Node9 -->
<g id="edge16" class="edge"><title>Node2&#45;&gt;Node9</title>
<path fill="none" stroke="midnightblue" d="M736.488,-174.377C737.78,-146.293 741.302,-69.6735 743.025,-32.2027"/>
<polygon fill="midnightblue" stroke="midnightblue" points="746.535,-32.0779 743.498,-21.9277 739.542,-31.7564 746.535,-32.0779"/>
</g>
<!-- Node10 -->
<g id="node19" class="node"><title>Node10</title>
<polygon fill="white" stroke="#bfbfbf" points="828,-116.5 828,-137.5 890,-137.5 890,-116.5 828,-116.5"/>
<text text-anchor="middle" x="859" y="-124.5" font-family="Helvetica,sans-Serif" font-size="10.00">type_traits</text>
</g>
<!-- Node2&#45;&gt;Node10 -->
<g id="edge18" class="edge"><title>Node2&#45;&gt;Node10</title>
<path fill="none" stroke="midnightblue" d="M758.274,-174.497C777.572,-165.397 805.713,-152.127 827.348,-141.925"/>
<polygon fill="midnightblue" stroke="midnightblue" points="828.924,-145.052 836.476,-137.621 825.938,-138.721 828.924,-145.052"/>
</g>
<!-- Node3&#45;&gt;Node4 -->
<g id="edge6" class="edge"><title>Node3&#45;&gt;Node4</title>
<path fill="none" stroke="midnightblue" d="M645.261,-116.497C628.39,-107.519 603.891,-94.4835 584.826,-84.3387"/>
<polygon fill="midnightblue" stroke="midnightblue" points="586.433,-81.2289 575.961,-79.6212 583.144,-87.4086 586.433,-81.2289"/>
</g>
<!-- Node5 -->
<g id="node9" class="node"><title>Node5</title>
<polygon fill="white" stroke="#bfbfbf" points="232,-58.5 232,-79.5 284,-79.5 284,-58.5 232,-58.5"/>
<text text-anchor="middle" x="258" y="-66.5" font-family="Helvetica,sans-Serif" font-size="10.00">ostream</text>
</g>
<!-- Node3&#45;&gt;Node5 -->
<g id="edge8" class="edge"><title>Node3&#45;&gt;Node5</title>
<path fill="none" stroke="midnightblue" d="M621.829,-120.848C541.297,-109.372 369.537,-84.8947 294.429,-74.1913"/>
<polygon fill="midnightblue" stroke="midnightblue" points="294.465,-70.6612 284.071,-72.7153 293.477,-77.5911 294.465,-70.6612"/>
</g>
<!-- Node11&#45;&gt;Node2 -->
<g id="edge80" class="edge"><title>Node11&#45;&gt;Node2</title>
<path fill="none" stroke="midnightblue" d="M375.284,-290.398C447.791,-269.212 610.454,-221.683 690.183,-198.387"/>
<polygon fill="midnightblue" stroke="midnightblue" points="691.327,-201.699 699.944,-195.535 689.364,-194.98 691.327,-201.699"/>
</g>
<!-- Node11&#45;&gt;Node4 -->
<g id="edge66" class="edge"><title>Node11&#45;&gt;Node4</title>
<path fill="none" stroke="midnightblue" d="M341.757,-290.128C350.271,-258.671 379.079,-166.595 436,-116 460.95,-93.8231 497.576,-81.5318 523.795,-75.136"/>
<polygon fill="midnightblue" stroke="midnightblue" points="524.663,-78.5279 533.634,-72.8913 523.106,-71.7032 524.663,-78.5279"/>
</g>
<!-- Node11&#45;&gt;Node6 -->
<g id="edge64" class="edge"><title>Node11&#45;&gt;Node6</title>
<path fill="none" stroke="midnightblue" d="M302.104,-290.414C284.245,-283.225 264.451,-271.72 254,-254 248.766,-245.125 252.772,-181.532 255.317,-147.837"/>
<polygon fill="midnightblue" stroke="midnightblue" points="258.821,-147.92 256.109,-137.678 251.842,-147.376 258.821,-147.92"/>
</g>
<!-- Node12 -->
<g id="node24" class="node"><title>Node12</title>
<a xlink:href="_t_data_record_8h.html" target="_top" xlink:title="TDataRecord.h">
<polygon fill="white" stroke="black" points="689.5,-232.5 689.5,-253.5 772.5,-253.5 772.5,-232.5 689.5,-232.5"/>
<text text-anchor="middle" x="731" y="-240.5" font-family="Helvetica,sans-Serif" font-size="10.00">TDataRecord.h</text>
</a>
</g>
<!-- Node11&#45;&gt;Node12 -->
<g id="edge24" class="edge"><title>Node11&#45;&gt;Node12</title>
<path fill="none" stroke="midnightblue" d="M380.21,-294.903C452.168,-284.256 600.548,-262.302 679.287,-250.651"/>
<polygon fill="midnightblue" stroke="midnightblue" points="680.079,-254.072 689.459,-249.146 679.054,-247.148 680.079,-254.072"/>
</g>
<!-- Node17 -->
<g id="node36" class="node"><title>Node17</title>
<polygon fill="white" stroke="#bfbfbf" points="50,-0.5 50,-21.5 102,-21.5 102,-0.5 50,-0.5"/>
<text text-anchor="middle" x="76" y="-8.5" font-family="Helvetica,sans-Serif" font-size="10.00">sstream</text>
</g>
<!-- Node11&#45;&gt;Node17 -->
<g id="edge72" class="edge"><title>Node11&#45;&gt;Node17</title>
<path fill="none" stroke="midnightblue" d="M297.906,-291.858C223.938,-274.204 76,-232.908 76,-185 76,-185 76,-185 76,-127 76,-93.5978 76,-54.7853 76,-31.5939"/>
<polygon fill="midnightblue" stroke="midnightblue" points="79.5001,-31.5561 76,-21.5561 72.5001,-31.5561 79.5001,-31.5561"/>
</g>
<!-- Node22 -->
<g id="node49" class="node"><title>Node22</title>
<polygon fill="white" stroke="#bfbfbf" points="478,-116.5 478,-137.5 528,-137.5 528,-116.5 478,-116.5"/>
<text text-anchor="middle" x="503" y="-124.5" font-family="Helvetica,sans-Serif" font-size="10.00">iomanip</text>
</g>
<!-- Node11&#45;&gt;Node22 -->
<g id="edge70" class="edge"><title>Node11&#45;&gt;Node22</title>
<path fill="none" stroke="midnightblue" d="M347.361,-290.46C358.385,-276.704 378.548,-252.024 397,-232 426.262,-200.245 462.362,-165.323 483.987,-144.823"/>
<polygon fill="midnightblue" stroke="midnightblue" points="486.653,-147.12 491.521,-137.709 481.847,-142.03 486.653,-147.12"/>
</g>
<!-- Node23 -->
<g id="node57" class="node"><title>Node23</title>
<polygon fill="white" stroke="#bfbfbf" points="263,-232.5 263,-253.5 307,-253.5 307,-232.5 263,-232.5"/>
<text text-anchor="middle" x="285" y="-240.5" font-family="Helvetica,sans-Serif" font-size="10.00">cmath</text>
</g>
<!-- Node11&#45;&gt;Node23 -->
<g id="edge68" class="edge"><title>Node11&#45;&gt;Node23</title>
<path fill="none" stroke="midnightblue" d="M329.096,-290.362C321.484,-282.186 310.792,-270.702 301.843,-261.091"/>
<polygon fill="midnightblue" stroke="midnightblue" points="304.217,-258.505 294.842,-253.571 299.094,-263.275 304.217,-258.505"/>
</g>
<!-- Node24 -->
<g id="node61" class="node"><title>Node24</title>
<a xlink:href="root__printable_8h.html" target="_top" xlink:title="base/root_printable.h">
<polygon fill="white" stroke="black" points="103.5,-174.5 103.5,-195.5 210.5,-195.5 210.5,-174.5 103.5,-174.5"/>
<text text-anchor="middle" x="157" y="-182.5" font-family="Helvetica,sans-Serif" font-size="10.00">base/root_printable.h</text>
</a>
</g>
<!-- Node11&#45;&gt;Node24 -->
<g id="edge74" class="edge"><title>Node11&#45;&gt;Node24</title>
<path fill="none" stroke="midnightblue" d="M300.479,-290.449C276.326,-282.713 245.28,-270.647 221,-254 200.949,-240.252 182.585,-219.175 170.721,-203.933"/>
<polygon fill="midnightblue" stroke="midnightblue" points="173.345,-201.601 164.523,-195.733 167.761,-205.821 173.345,-201.601"/>
</g>
<!-- Node13 -->
<g id="node26" class="node"><title>Node13</title>
<a xlink:href="_t_i_d_8h.html" target="_top" xlink:title="TID.h">
<polygon fill="white" stroke="black" points="877.5,-174.5 877.5,-195.5 918.5,-195.5 918.5,-174.5 877.5,-174.5"/>
<text text-anchor="middle" x="898" y="-182.5" font-family="Helvetica,sans-Serif" font-size="10.00">TID.h</text>
</a>
</g>
<!-- Node12&#45;&gt;Node13 -->
<g id="edge26" class="edge"><title>Node12&#45;&gt;Node13</title>
<path fill="none" stroke="midnightblue" d="M761.242,-232.497C791.475,-221.997 837.693,-205.945 867.881,-195.46"/>
<polygon fill="midnightblue" stroke="midnightblue" points="869.16,-198.721 877.458,-192.134 866.864,-192.109 869.16,-198.721"/>
</g>
<!-- Node14 -->
<g id="node28" class="node"><title>Node14</title>
<polygon fill="white" stroke="#bfbfbf" points="1198,-116.5 1198,-137.5 1254,-137.5 1254,-116.5 1198,-116.5"/>
<text text-anchor="middle" x="1226" y="-124.5" font-family="Helvetica,sans-Serif" font-size="10.00">Rtypes.h</text>
</g>
<!-- Node12&#45;&gt;Node14 -->
<g id="edge58" class="edge"><title>Node12&#45;&gt;Node14</title>
<path fill="none" stroke="midnightblue" d="M772.777,-233.21C867.375,-211.041 1096.79,-157.28 1187.84,-135.943"/>
<polygon fill="midnightblue" stroke="midnightblue" points="1188.8,-139.313 1197.73,-133.624 1187.2,-132.498 1188.8,-139.313"/>
</g>
<!-- Node20 -->
<g id="node42" class="node"><title>Node20</title>
<polygon fill="white" stroke="#bfbfbf" points="1149.5,-58.5 1149.5,-79.5 1190.5,-79.5 1190.5,-58.5 1149.5,-58.5"/>
<text text-anchor="middle" x="1170" y="-66.5" font-family="Helvetica,sans-Serif" font-size="10.00">ctime</text>
</g>
<!-- Node12&#45;&gt;Node20 -->
<g id="edge62" class="edge"><title>Node12&#45;&gt;Node20</title>
<path fill="none" stroke="midnightblue" d="M772.776,-241.379C887.206,-235.97 1201.29,-214.315 1263,-138 1284.75,-111.108 1235.28,-89.2016 1200.48,-77.7227"/>
<polygon fill="midnightblue" stroke="midnightblue" points="1201.28,-74.304 1190.69,-74.6334 1199.17,-80.9798 1201.28,-74.304"/>
</g>
<!-- Node12&#45;&gt;Node22 -->
<g id="edge60" class="edge"><title>Node12&#45;&gt;Node22</title>
<path fill="none" stroke="midnightblue" d="M710.958,-232.314C685.165,-218.609 638.916,-194.199 599,-174 577.47,-163.105 553.044,-151.152 534.218,-142.027"/>
<polygon fill="midnightblue" stroke="midnightblue" points="535.724,-138.867 525.197,-137.662 532.675,-145.168 535.724,-138.867"/>
</g>
<!-- Node13&#45;&gt;Node3 -->
<g id="edge30" class="edge"><title>Node13&#45;&gt;Node3</title>
<path fill="none" stroke="midnightblue" d="M877.323,-179.853C841.718,-170.99 767.799,-152.589 717.293,-140.017"/>
<polygon fill="midnightblue" stroke="midnightblue" points="718.071,-136.604 707.522,-137.585 716.38,-143.397 718.071,-136.604"/>
</g>
<!-- Node13&#45;&gt;Node7 -->
<g id="edge50" class="edge"><title>Node13&#45;&gt;Node7</title>
<path fill="none" stroke="midnightblue" d="M877.899,-174.497C860.718,-165.519 835.77,-152.484 816.355,-142.339"/>
<polygon fill="midnightblue" stroke="midnightblue" points="817.811,-139.15 807.327,-137.621 814.569,-145.354 817.811,-139.15"/>
</g>
<!-- Node13&#45;&gt;Node8 -->
<g id="edge52" class="edge"><title>Node13&#45;&gt;Node8</title>
<path fill="none" stroke="midnightblue" d="M905.153,-174.362C910.486,-166.431 917.911,-155.389 924.251,-145.961"/>
<polygon fill="midnightblue" stroke="midnightblue" points="927.217,-147.822 929.892,-137.571 921.408,-143.916 927.217,-147.822"/>
</g>
<!-- Node13&#45;&gt;Node10 -->
<g id="edge46" class="edge"><title>Node13&#45;&gt;Node10</title>
<path fill="none" stroke="midnightblue" d="M890.847,-174.362C885.514,-166.431 878.089,-155.389 871.749,-145.961"/>
<polygon fill="midnightblue" stroke="midnightblue" points="874.592,-143.916 866.108,-137.571 868.783,-147.822 874.592,-143.916"/>
</g>
<!-- Node13&#45;&gt;Node14 -->
<g id="edge28" class="edge"><title>Node13&#45;&gt;Node14</title>
<path fill="none" stroke="midnightblue" d="M918.584,-182.289C965.777,-175.928 1085.32,-158.984 1184,-138 1185.24,-137.735 1186.51,-137.458 1187.78,-137.17"/>
<polygon fill="midnightblue" stroke="midnightblue" points="1188.71,-140.547 1197.62,-134.816 1187.08,-133.739 1188.71,-140.547"/>
</g>
<!-- Node15 -->
<g id="node31" class="node"><title>Node15</title>
<a xlink:href="time_8h.html" target="_top" xlink:title="base/std_ext/time.h">
<polygon fill="white" stroke="black" points="983.5,-116.5 983.5,-137.5 1086.5,-137.5 1086.5,-116.5 983.5,-116.5"/>
<text text-anchor="middle" x="1035" y="-124.5" font-family="Helvetica,sans-Serif" font-size="10.00">base/std_ext/time.h</text>
</a>
</g>
<!-- Node13&#45;&gt;Node15 -->
<g id="edge32" class="edge"><title>Node13&#45;&gt;Node15</title>
<path fill="none" stroke="midnightblue" d="M918.51,-176.317C940.22,-167.126 974.855,-152.463 1000.72,-141.511"/>
<polygon fill="midnightblue" stroke="midnightblue" points="1002.32,-144.636 1010.17,-137.514 999.592,-138.189 1002.32,-144.636"/>
</g>
<!-- Node13&#45;&gt;Node20 -->
<g id="edge56" class="edge"><title>Node13&#45;&gt;Node20</title>
<path fill="none" stroke="midnightblue" d="M918.516,-183.931C972.546,-180.703 1116.94,-169.277 1151,-138 1164.26,-125.827 1168.59,-105.34 1169.86,-89.8442"/>
<polygon fill="midnightblue" stroke="midnightblue" points="1173.37,-89.782 1170.33,-79.6332 1166.38,-89.4638 1173.37,-89.782"/>
</g>
<!-- Node21 -->
<g id="node45" class="node"><title>Node21</title>
<polygon fill="white" stroke="#bfbfbf" points="1104,-116.5 1104,-137.5 1142,-137.5 1142,-116.5 1104,-116.5"/>
<text text-anchor="middle" x="1123" y="-124.5" font-family="Helvetica,sans-Serif" font-size="10.00">tuple</text>
</g>
<!-- Node13&#45;&gt;Node21 -->
<g id="edge48" class="edge"><title>Node13&#45;&gt;Node21</title>
<path fill="none" stroke="midnightblue" d="M918.677,-181.062C953.22,-174.273 1024.94,-159.285 1094.11,-137.981"/>
<polygon fill="midnightblue" stroke="midnightblue" points="1095.35,-141.26 1103.85,-134.933 1093.26,-134.58 1095.35,-141.26"/>
</g>
<!-- Node13&#45;&gt;Node22 -->
<g id="edge54" class="edge"><title>Node13&#45;&gt;Node22</title>
<path fill="none" stroke="midnightblue" d="M877.319,-181.963C813.438,-172.583 618.725,-143.993 538.314,-132.185"/>
<polygon fill="midnightblue" stroke="midnightblue" points="538.599,-128.69 528.196,-130.7 537.582,-135.615 538.599,-128.69"/>
</g>
<!-- Node16 -->
<g id="node33" class="node"><title>Node16</title>
<a xlink:href="string_8h.html" target="_top" xlink:title="base/std_ext/string.h">
<polygon fill="white" stroke="black" points="764,-58.5 764,-79.5 872,-79.5 872,-58.5 764,-58.5"/>
<text text-anchor="middle" x="818" y="-66.5" font-family="Helvetica,sans-Serif" font-size="10.00">base/std_ext/string.h</text>
</a>
</g>
<!-- Node15&#45;&gt;Node16 -->
<g id="edge34" class="edge"><title>Node15&#45;&gt;Node16</title>
<path fill="none" stroke="midnightblue" d="M995.703,-116.497C959.713,-106.877 906.29,-92.5981 867.42,-82.209"/>
<polygon fill="midnightblue" stroke="midnightblue" points="867.935,-78.724 857.371,-79.5231 866.128,-85.4866 867.935,-78.724"/>
</g>
<!-- Node19 -->
<g id="node40" class="node"><title>Node19</title>
<polygon fill="white" stroke="#bfbfbf" points="1012,-58.5 1012,-79.5 1058,-79.5 1058,-58.5 1012,-58.5"/>
<text text-anchor="middle" x="1035" y="-66.5" font-family="Helvetica,sans-Serif" font-size="10.00">cstring</text>
</g>
<!-- Node15&#45;&gt;Node19 -->
<g id="edge42" class="edge"><title>Node15&#45;&gt;Node19</title>
<path fill="none" stroke="midnightblue" d="M1035,-116.362C1035,-108.922 1035,-98.7427 1035,-89.7276"/>
<polygon fill="midnightblue" stroke="midnightblue" points="1038.5,-89.5706 1035,-79.5707 1031.5,-89.5707 1038.5,-89.5706"/>
</g>
<!-- Node15&#45;&gt;Node20 -->
<g id="edge44" class="edge"><title>Node15&#45;&gt;Node20</title>
<path fill="none" stroke="midnightblue" d="M1059.45,-116.497C1082.02,-106.799 1115.62,-92.365 1139.84,-81.9556"/>
<polygon fill="midnightblue" stroke="midnightblue" points="1141.47,-85.0684 1149.27,-77.9052 1138.7,-78.6369 1141.47,-85.0684"/>
</g>
<!-- Node16&#45;&gt;Node9 -->
<g id="edge36" class="edge"><title>Node16&#45;&gt;Node9</title>
<path fill="none" stroke="midnightblue" d="M804.427,-58.3619C793.579,-49.859 778.166,-37.7785 765.621,-27.9466"/>
<polygon fill="midnightblue" stroke="midnightblue" points="767.516,-24.9848 757.487,-21.5707 763.198,-30.4942 767.516,-24.9848"/>
</g>
<!-- Node16&#45;&gt;Node17 -->
<g id="edge38" class="edge"><title>Node16&#45;&gt;Node17</title>
<path fill="none" stroke="midnightblue" d="M763.74,-64.7586C620.076,-53.5288 232.597,-23.2408 112.199,-13.8295"/>
<polygon fill="midnightblue" stroke="midnightblue" points="112.284,-10.3256 102.041,-13.0356 111.738,-17.3043 112.284,-10.3256"/>
</g>
<!-- Node18 -->
<g id="node38" class="node"><title>Node18</title>
<polygon fill="white" stroke="#bfbfbf" points="790,-0.5 790,-21.5 846,-21.5 846,-0.5 790,-0.5"/>
<text text-anchor="middle" x="818" y="-8.5" font-family="Helvetica,sans-Serif" font-size="10.00">algorithm</text>
</g>
<!-- Node16&#45;&gt;Node18 -->
<g id="edge40" class="edge"><title>Node16&#45;&gt;Node18</title>
<path fill="none" stroke="midnightblue" d="M818,-58.3619C818,-50.9219 818,-40.7427 818,-31.7276"/>
<polygon fill="midnightblue" stroke="midnightblue" points="821.5,-31.5706 818,-21.5707 814.5,-31.5707 821.5,-31.5706"/>
</g>
<!-- Node24&#45;&gt;Node5 -->
<g id="edge76" class="edge"><title>Node24&#45;&gt;Node5</title>
<path fill="none" stroke="midnightblue" d="M166.125,-174.181C177.658,-160.542 198.158,-136.411 216,-116 224.296,-106.51 233.629,-96.0445 241.387,-87.4028"/>
<polygon fill="midnightblue" stroke="midnightblue" points="244.17,-89.5426 248.257,-79.7677 238.967,-84.8605 244.17,-89.5426"/>
</g>
<!-- Node24&#45;&gt;Node6 -->
<g id="edge78" class="edge"><title>Node24&#45;&gt;Node6</title>
<path fill="none" stroke="midnightblue" d="M175.342,-174.362C190.566,-165.532 212.441,-152.844 229.72,-142.822"/>
<polygon fill="midnightblue" stroke="midnightblue" points="231.88,-145.615 238.775,-137.571 228.368,-139.56 231.88,-145.615"/>
</g>
<!-- Node25&#45;&gt;Node11 -->
<g id="edge100" class="edge"><title>Node25&#45;&gt;Node11</title>
<path fill="none" stroke="midnightblue" d="M524.827,-412.879C489.114,-407.564 435.497,-395.727 396,-370 376.593,-357.359 360.461,-336.045 350.37,-320.444"/>
<polygon fill="midnightblue" stroke="midnightblue" points="353.132,-318.257 344.892,-311.597 347.181,-321.942 353.132,-318.257"/>
</g>
<!-- Node25&#45;&gt;Node12 -->
<g id="edge84" class="edge"><title>Node25&#45;&gt;Node12</title>
<path fill="none" stroke="midnightblue" d="M599.782,-406.484C640.465,-392.538 703.387,-363.47 727,-312 733.87,-297.026 734.521,-278.267 733.649,-264.09"/>
<polygon fill="midnightblue" stroke="midnightblue" points="737.109,-263.501 732.711,-253.862 730.139,-264.14 737.109,-263.501"/>
</g>
<!-- Node25&#45;&gt;Node17 -->
<g id="edge118" class="edge"><title>Node25&#45;&gt;Node17</title>
<path fill="none" stroke="midnightblue" d="M524.745,-413.2C398.029,-400.106 0,-354.703 0,-301 0,-301 0,-301 0,-127 0,-86.5104 32.7975,-49.1585 55.3017,-28.2949"/>
<polygon fill="midnightblue" stroke="midnightblue" points="57.6399,-30.8993 62.7618,-21.6247 52.9742,-25.681 57.6399,-30.8993"/>
</g>
<!-- Node25&#45;&gt;Node22 -->
<g id="edge116" class="edge"><title>Node25&#45;&gt;Node22</title>
<path fill="none" stroke="midnightblue" d="M562.376,-406.436C560.534,-377.948 554.261,-297.281 539,-232 531.907,-201.66 519.414,-167.761 511.171,-146.9"/>
<polygon fill="midnightblue" stroke="midnightblue" points="514.379,-145.498 507.403,-137.524 507.884,-148.108 514.379,-145.498"/>
</g>
<!-- Node26 -->
<g id="node69" class="node"><title>Node26</title>
<a xlink:href="_t_candidate_8h.html" target="_top" xlink:title="TCandidate.h">
<polygon fill="white" stroke="black" points="404.5,-348.5 404.5,-369.5 479.5,-369.5 479.5,-348.5 404.5,-348.5"/>
<text text-anchor="middle" x="442" y="-356.5" font-family="Helvetica,sans-Serif" font-size="10.00">TCandidate.h</text>
</a>
</g>
<!-- Node25&#45;&gt;Node26 -->
<g id="edge86" class="edge"><title>Node25&#45;&gt;Node26</title>
<path fill="none" stroke="midnightblue" d="M541.088,-406.497C522.189,-397.438 494.669,-384.246 473.424,-374.063"/>
<polygon fill="midnightblue" stroke="midnightblue" points="474.689,-370.788 464.158,-369.621 471.663,-377.1 474.689,-370.788"/>
</g>
<!-- Node27 -->
<g id="node78" class="node"><title>Node27</title>
<a xlink:href="_t_tagger_8h.html" target="_top" xlink:title="TTagger.h">
<polygon fill="white" stroke="black" points="597.5,-348.5 597.5,-369.5 658.5,-369.5 658.5,-348.5 597.5,-348.5"/>
<text text-anchor="middle" x="628" y="-356.5" font-family="Helvetica,sans-Serif" font-size="10.00">TTagger.h</text>
</a>
</g>
<!-- Node25&#45;&gt;Node27 -->
<g id="edge102" class="edge"><title>Node25&#45;&gt;Node27</title>
<path fill="none" stroke="midnightblue" d="M574.922,-406.362C584.359,-397.941 597.73,-386.011 608.69,-376.231"/>
<polygon fill="midnightblue" stroke="midnightblue" points="611.022,-378.84 616.154,-369.571 606.362,-373.617 611.022,-378.84"/>
</g>
<!-- Node26&#45;&gt;Node4 -->
<g id="edge94" class="edge"><title>Node26&#45;&gt;Node4</title>
<path fill="none" stroke="midnightblue" d="M439.975,-348.374C433.691,-312.195 417.874,-191.852 469,-116 481.828,-96.9676 504.986,-84.9956 524.185,-77.9003"/>
<polygon fill="midnightblue" stroke="midnightblue" points="525.455,-81.1652 533.789,-74.6229 523.194,-74.5404 525.455,-81.1652"/>
</g>
<!-- Node26&#45;&gt;Node6 -->
<g id="edge92" class="edge"><title>Node26&#45;&gt;Node6</title>
<path fill="none" stroke="midnightblue" d="M404.35,-354.407C371.36,-348.853 323.435,-336.936 289,-312 263.432,-293.485 257.56,-284.086 248,-254 236.461,-217.688 244.542,-172.696 251.053,-147.177"/>
<polygon fill="midnightblue" stroke="midnightblue" points="254.433,-148.083 253.685,-137.515 247.679,-146.243 254.433,-148.083"/>
</g>
<!-- Node26&#45;&gt;Node11 -->
<g id="edge90" class="edge"><title>Node26&#45;&gt;Node11</title>
<path fill="none" stroke="midnightblue" d="M423.108,-348.362C407.282,-339.45 384.477,-326.609 366.605,-316.545"/>
<polygon fill="midnightblue" stroke="midnightblue" points="368.203,-313.428 357.772,-311.571 364.768,-319.527 368.203,-313.428"/>
</g>
<!-- Node26&#45;&gt;Node12 -->
<g id="edge88" class="edge"><title>Node26&#45;&gt;Node12</title>
<path fill="none" stroke="midnightblue" d="M479.502,-354.492C536.482,-347.131 641.662,-331.39 674,-312 693.975,-300.024 710.099,-278.417 720.035,-262.563"/>
<polygon fill="midnightblue" stroke="midnightblue" points="723.281,-263.954 725.4,-253.573 717.27,-260.366 723.281,-263.954"/>
</g>
<!-- Node26&#45;&gt;Node17 -->
<g id="edge98" class="edge"><title>Node26&#45;&gt;Node17</title>
<path fill="none" stroke="midnightblue" d="M404.355,-356.269C304.062,-347.967 38,-318.801 38,-243 38,-243 38,-243 38,-127 38,-91.7411 54.0509,-53.3154 65.2892,-30.7323"/>
<polygon fill="midnightblue" stroke="midnightblue" points="68.4185,-32.3005 69.8946,-21.809 62.1981,-29.0901 68.4185,-32.3005"/>
</g>
<!-- Node26&#45;&gt;Node22 -->
<g id="edge96" class="edge"><title>Node26&#45;&gt;Node22</title>
<path fill="none" stroke="midnightblue" d="M444.78,-348.429C454.207,-312.573 485.076,-195.169 497.624,-147.446"/>
<polygon fill="midnightblue" stroke="midnightblue" points="501.046,-148.195 500.204,-137.634 494.276,-146.415 501.046,-148.195"/>
</g>
<!-- Node27&#45;&gt;Node12 -->
<g id="edge104" class="edge"><title>Node27&#45;&gt;Node12</title>
<path fill="none" stroke="midnightblue" d="M655.513,-348.44C672.469,-340.67 693.48,-328.569 707,-312 718.246,-298.218 724.373,-278.827 727.615,-264.11"/>
<polygon fill="midnightblue" stroke="midnightblue" points="731.12,-264.417 729.568,-253.937 724.245,-263.097 731.12,-264.417"/>
</g>
<!-- Node28 -->
<g id="node81" class="node"><title>Node28</title>
<a xlink:href="_t_tagger_hit_8h.html" target="_top" xlink:title="TTaggerHit.h">
<polygon fill="white" stroke="black" points="591,-290.5 591,-311.5 665,-311.5 665,-290.5 591,-290.5"/>
<text text-anchor="middle" x="628" y="-298.5" font-family="Helvetica,sans-Serif" font-size="10.00">TTaggerHit.h</text>
</a>
</g>
<!-- Node27&#45;&gt;Node28 -->
<g id="edge106" class="edge"><title>Node27&#45;&gt;Node28</title>
<path fill="none" stroke="midnightblue" d="M628,-348.362C628,-340.922 628,-330.743 628,-321.728"/>
<polygon fill="midnightblue" stroke="midnightblue" points="631.5,-321.571 628,-311.571 624.5,-321.571 631.5,-321.571"/>
</g>
<!-- Node28&#45;&gt;Node4 -->
<g id="edge110" class="edge"><title>Node28&#45;&gt;Node4</title>
<path fill="none" stroke="midnightblue" d="M626.944,-290.104C625.46,-276.386 622.325,-252.173 617,-232 609.598,-203.961 579.001,-126.327 564.154,-89.2373"/>
<polygon fill="midnightblue" stroke="midnightblue" points="567.39,-87.9025 560.416,-79.926 560.893,-90.5101 567.39,-87.9025"/>
</g>
<!-- Node28&#45;&gt;Node12 -->
<g id="edge108" class="edge"><title>Node28&#45;&gt;Node12</title>
<path fill="none" stroke="midnightblue" d="M646.892,-290.362C662.718,-281.45 685.523,-268.609 703.395,-258.545"/>
<polygon fill="midnightblue" stroke="midnightblue" points="705.232,-261.527 712.228,-253.571 701.797,-255.428 705.232,-261.527"/>
</g>
<!-- Node28&#45;&gt;Node17 -->
<g id="edge114" class="edge"><title>Node28&#45;&gt;Node17</title>
<path fill="none" stroke="midnightblue" d="M617.229,-290.493C577.726,-252.591 435.664,-121.782 293,-58 232.893,-31.1271 156.391,-19.191 112.131,-14.2227"/>
<polygon fill="midnightblue" stroke="midnightblue" points="112.447,-10.7366 102.133,-13.158 111.706,-17.6973 112.447,-10.7366"/>
</g>
<!-- Node28&#45;&gt;Node22 -->
<g id="edge112" class="edge"><title>Node28&#45;&gt;Node22</title>
<path fill="none" stroke="midnightblue" d="M624.065,-290.271C615.275,-267.256 592.328,-212.143 561,-174 551.588,-162.541 539.004,-151.937 527.963,-143.712"/>
<polygon fill="midnightblue" stroke="midnightblue" points="529.693,-140.646 519.529,-137.655 525.61,-146.331 529.693,-140.646"/>
</g>
</g>
</svg>
