<?xml version="1.0" encoding="UTF-8" standalone="no"?>
<!DOCTYPE svg PUBLIC "-//W3C//DTD SVG 1.1//EN"
 "http://www.w3.org/Graphics/SVG/1.1/DTD/svg11.dtd">
<!-- Generated by graphviz version 2.26.3 (20100126.1600)
 -->
<!-- Title: src/analysis/data/Candidate.h Pages: 1 -->
<svg width="703pt" height="262pt"
 viewBox="0.00 0.00 702.91 262.00" xmlns="http://www.w3.org/2000/svg" xmlns:xlink="http://www.w3.org/1999/xlink">
<g id="graph1" class="graph" transform="scale(1 1) rotate(0) translate(4 258)">
<title>src/analysis/data/Candidate.h</title>
<polygon fill="white" stroke="white" points="-4,5 -4,-258 699.91,-258 699.91,5 -4,5"/>
<!-- Node1 -->
<g id="node1" class="node"><title>Node1</title>
<polygon fill="#bfbfbf" stroke="black" points="293.91,-232.5 293.91,-253.5 439.91,-253.5 439.91,-232.5 293.91,-232.5"/>
<text text-anchor="middle" x="366.91" y="-240.5" font-family="Helvetica,sans-Serif" font-size="10.00">src/analysis/data/Candidate.h</text>
</g>
<!-- Node2 -->
<g id="node3" class="node"><title>Node2</title>
<a xlink:href="printable_8h.html" target="_top" xlink:title="base/printable.h">
<polygon fill="white" stroke="black" points="12.9098,-58.5 12.9098,-79.5 98.9098,-79.5 98.9098,-58.5 12.9098,-58.5"/>
<text text-anchor="middle" x="55.9098" y="-66.5" font-family="Helvetica,sans-Serif" font-size="10.00">base/printable.h</text>
</a>
</g>
<!-- Node1&#45;&gt;Node2 -->
<g id="edge2" class="edge"><title>Node1&#45;&gt;Node2</title>
<path fill="none" stroke="midnightblue" d="M346.553,-232.328C328.663,-222.902 301.962,-208.717 278.91,-196 207.643,-156.685 124.53,-108.808 82.769,-84.6093"/>
<polygon fill="midnightblue" stroke="midnightblue" points="84.4329,-81.5283 74.0265,-79.5392 80.9211,-87.5837 84.4329,-81.5283"/>
</g>
<!-- Node3 -->
<g id="node5" class="node"><title>Node3</title>
<polygon fill="white" stroke="#bfbfbf" points="33.9098,-0.5 33.9098,-21.5 77.9098,-21.5 77.9098,-0.5 33.9098,-0.5"/>
<text text-anchor="middle" x="55.9098" y="-8.5" font-family="Helvetica,sans-Serif" font-size="10.00">vector</text>
</g>
<!-- Node1&#45;&gt;Node3 -->
<g id="edge40" class="edge"><title>Node1&#45;&gt;Node3</title>
<path fill="none" stroke="midnightblue" d="M293.587,-234.193C206.703,-219.344 65.9245,-180.342 3.90981,-80 -7.78425,-61.0786 11.5172,-40.9259 29.8294,-27.3171"/>
<polygon fill="midnightblue" stroke="midnightblue" points="31.876,-30.1568 38.0586,-21.5528 27.86,-24.4234 31.876,-30.1568"/>
</g>
<!-- Node4 -->
<g id="node7" class="node"><title>Node4</title>
<polygon fill="white" stroke="#bfbfbf" points="296.91,-0.5 296.91,-21.5 348.91,-21.5 348.91,-0.5 296.91,-0.5"/>
<text text-anchor="middle" x="322.91" y="-8.5" font-family="Helvetica,sans-Serif" font-size="10.00">ostream</text>
</g>
<!-- Node1&#45;&gt;Node4 -->
<g id="edge36" class="edge"><title>Node1&#45;&gt;Node4</title>
<path fill="none" stroke="midnightblue" d="M392.989,-232.455C426.498,-217.277 483.064,-185.741 505.91,-138 521.258,-105.928 527.701,-86.0952 505.91,-58 488.07,-34.9995 407.011,-21.3008 358.964,-15.0612"/>
<polygon fill="midnightblue" stroke="midnightblue" points="359.316,-11.578 348.959,-13.8074 358.446,-18.5237 359.316,-11.578"/>
</g>
<!-- Node5 -->
<g id="node9" class="node"><title>Node5</title>
<a xlink:href="types_8h.html" target="_top" xlink:title="base/types.h">
<polygon fill="white" stroke="black" points="552.41,-174.5 552.41,-195.5 625.41,-195.5 625.41,-174.5 552.41,-174.5"/>
<text text-anchor="middle" x="588.91" y="-182.5" font-family="Helvetica,sans-Serif" font-size="10.00">base/types.h</text>
</a>
</g>
<!-- Node1&#45;&gt;Node5 -->
<g id="edge8" class="edge"><title>Node1&#45;&gt;Node5</title>
<path fill="none" stroke="midnightblue" d="M407.112,-232.497C445.24,-222.535 502.493,-207.577 542.533,-197.116"/>
<polygon fill="midnightblue" stroke="midnightblue" points="543.53,-200.474 552.32,-194.559 541.76,-193.701 543.53,-200.474"/>
</g>
<!-- Node6 -->
<g id="node11" class="node"><title>Node6</title>
<a xlink:href="_detector__t_8h.html" target="_top" xlink:title="base/Detector_t.h">
<polygon fill="white" stroke="black" points="210.41,-116.5 210.41,-137.5 305.41,-137.5 305.41,-116.5 210.41,-116.5"/>
<text text-anchor="middle" x="257.91" y="-124.5" font-family="Helvetica,sans-Serif" font-size="10.00">base/Detector_t.h</text>
</a>
</g>
<!-- Node1&#45;&gt;Node6 -->
<g id="edge10" class="edge"><title>Node1&#45;&gt;Node6</title>
<path fill="none" stroke="midnightblue" d="M347.692,-232.456C333.351,-223.935 313.9,-210.93 299.91,-196 286.197,-181.367 274.699,-161.552 267.22,-146.91"/>
<polygon fill="midnightblue" stroke="midnightblue" points="270.259,-145.158 262.707,-137.727 263.977,-148.245 270.259,-145.158"/>
</g>
<!-- Node12 -->
<g id="node25" class="node"><title>Node12</title>
<a xlink:href="_cluster_8h.html" target="_top" xlink:title="analysis/data/Cluster.h">
<polygon fill="white" stroke="black" points="308.41,-174.5 308.41,-195.5 425.41,-195.5 425.41,-174.5 308.41,-174.5"/>
<text text-anchor="middle" x="366.91" y="-182.5" font-family="Helvetica,sans-Serif" font-size="10.00">analysis/data/Cluster.h</text>
</a>
</g>
<!-- Node1&#45;&gt;Node12 -->
<g id="edge26" class="edge"><title>Node1&#45;&gt;Node12</title>
<path fill="none" stroke="midnightblue" d="M366.91,-232.362C366.91,-224.922 366.91,-214.743 366.91,-205.728"/>
<polygon fill="midnightblue" stroke="midnightblue" points="370.41,-205.571 366.91,-195.571 363.41,-205.571 370.41,-205.571"/>
</g>
<!-- Node15 -->
<g id="node34" class="node"><title>Node15</title>
<polygon fill="white" stroke="#bfbfbf" points="642.91,-174.5 642.91,-195.5 694.91,-195.5 694.91,-174.5 642.91,-174.5"/>
<text text-anchor="middle" x="668.91" y="-182.5" font-family="Helvetica,sans-Serif" font-size="10.00">memory</text>
</g>
<!-- Node1&#45;&gt;Node15 -->
<g id="edge38" class="edge"><title>Node1&#45;&gt;Node15</title>
<path fill="none" stroke="midnightblue" d="M439.968,-232.767C491.508,-224.942 562.281,-212.981 632.707,-196.078"/>
<polygon fill="midnightblue" stroke="midnightblue" points="633.752,-199.426 642.64,-193.66 632.096,-192.624 633.752,-199.426"/>
</g>
<!-- Node2&#45;&gt;Node3 -->
<g id="edge4" class="edge"><title>Node2&#45;&gt;Node3</title>
<path fill="none" stroke="midnightblue" d="M55.9098,-58.3619C55.9098,-50.9219 55.9098,-40.7427 55.9098,-31.7276"/>
<polygon fill="midnightblue" stroke="midnightblue" points="59.4099,-31.5706 55.9098,-21.5707 52.4099,-31.5707 59.4099,-31.5706"/>
</g>
<!-- Node2&#45;&gt;Node4 -->
<g id="edge6" class="edge"><title>Node2&#45;&gt;Node4</title>
<path fill="none" stroke="midnightblue" d="M99.1047,-59.6168C151.327,-48.2726 238.257,-29.389 286.982,-18.8045"/>
<polygon fill="midnightblue" stroke="midnightblue" points="287.744,-22.2206 296.773,-16.6776 286.258,-15.3802 287.744,-22.2206"/>
</g>
<!-- Node6&#45;&gt;Node2 -->
<g id="edge12" class="edge"><title>Node6&#45;&gt;Node2</title>
<path fill="none" stroke="midnightblue" d="M221.329,-116.497C187.97,-106.918 138.519,-92.7196 102.376,-82.3418"/>
<polygon fill="midnightblue" stroke="midnightblue" points="103.137,-78.9188 92.5591,-79.5231 101.205,-85.647 103.137,-78.9188"/>
</g>
<!-- Node6&#45;&gt;Node3 -->
<g id="edge24" class="edge"><title>Node6&#45;&gt;Node3</title>
<path fill="none" stroke="midnightblue" d="M226.954,-116.457C203.883,-108.024 171.993,-95.1322 145.91,-80 120.005,-64.9713 93.1105,-43.4418 75.5475,-28.4426"/>
<polygon fill="midnightblue" stroke="midnightblue" points="77.5703,-25.5642 67.7206,-21.661 72.9864,-30.8546 77.5703,-25.5642"/>
</g>
<!-- Node7 -->
<g id="node14" class="node"><title>Node7</title>
<polygon fill="white" stroke="#bfbfbf" points="432.41,-58.5 432.41,-79.5 497.41,-79.5 497.41,-58.5 432.41,-58.5"/>
<text text-anchor="middle" x="464.91" y="-66.5" font-family="Helvetica,sans-Serif" font-size="10.00">TVector3.h</text>
</g>
<!-- Node6&#45;&gt;Node7 -->
<g id="edge14" class="edge"><title>Node6&#45;&gt;Node7</title>
<path fill="none" stroke="midnightblue" d="M295.396,-116.497C331.072,-106.501 384.707,-91.4723 422.059,-81.0065"/>
<polygon fill="midnightblue" stroke="midnightblue" points="423.449,-84.2518 432.134,-78.1835 421.561,-77.5114 423.449,-84.2518"/>
</g>
<!-- Node8 -->
<g id="node16" class="node"><title>Node8</title>
<polygon fill="white" stroke="#bfbfbf" points="154.91,-58.5 154.91,-79.5 200.91,-79.5 200.91,-58.5 154.91,-58.5"/>
<text text-anchor="middle" x="177.91" y="-66.5" font-family="Helvetica,sans-Serif" font-size="10.00">cstdint</text>
</g>
<!-- Node6&#45;&gt;Node8 -->
<g id="edge16" class="edge"><title>Node6&#45;&gt;Node8</title>
<path fill="none" stroke="midnightblue" d="M243.237,-116.362C231.396,-107.777 214.525,-95.5459 200.894,-85.6636"/>
<polygon fill="midnightblue" stroke="midnightblue" points="202.641,-82.6067 192.49,-79.5707 198.532,-88.274 202.641,-82.6067"/>
</g>
<!-- Node9 -->
<g id="node18" class="node"><title>Node9</title>
<polygon fill="white" stroke="#bfbfbf" points="218.41,-58.5 218.41,-79.5 277.41,-79.5 277.41,-58.5 218.41,-58.5"/>
<text text-anchor="middle" x="247.91" y="-66.5" font-family="Helvetica,sans-Serif" font-size="10.00">stdexcept</text>
</g>
<!-- Node6&#45;&gt;Node9 -->
<g id="edge18" class="edge"><title>Node6&#45;&gt;Node9</title>
<path fill="none" stroke="midnightblue" d="M256.076,-116.362C254.779,-108.84 252.999,-98.5187 251.432,-89.4308"/>
<polygon fill="midnightblue" stroke="midnightblue" points="254.881,-88.8306 249.732,-79.5707 247.982,-90.02 254.881,-88.8306"/>
</g>
<!-- Node10 -->
<g id="node20" class="node"><title>Node10</title>
<polygon fill="white" stroke="#bfbfbf" points="294.41,-58.5 294.41,-79.5 335.41,-79.5 335.41,-58.5 294.41,-58.5"/>
<text text-anchor="middle" x="314.91" y="-66.5" font-family="Helvetica,sans-Serif" font-size="10.00">string</text>
</g>
<!-- Node6&#45;&gt;Node10 -->
<g id="edge20" class="edge"><title>Node6&#45;&gt;Node10</title>
<path fill="none" stroke="midnightblue" d="M268.364,-116.362C276.48,-108.104 287.911,-96.4725 297.414,-86.8029"/>
<polygon fill="midnightblue" stroke="midnightblue" points="300.008,-89.1562 304.521,-79.5707 295.016,-84.2497 300.008,-89.1562"/>
</g>
<!-- Node11 -->
<g id="node22" class="node"><title>Node11</title>
<polygon fill="white" stroke="#bfbfbf" points="352.91,-58.5 352.91,-79.5 414.91,-79.5 414.91,-58.5 352.91,-58.5"/>
<text text-anchor="middle" x="383.91" y="-66.5" font-family="Helvetica,sans-Serif" font-size="10.00">type_traits</text>
</g>
<!-- Node6&#45;&gt;Node11 -->
<g id="edge22" class="edge"><title>Node6&#45;&gt;Node11</title>
<path fill="none" stroke="midnightblue" d="M280.727,-116.497C300.496,-107.397 329.323,-94.1273 351.486,-83.9253"/>
<polygon fill="midnightblue" stroke="midnightblue" points="353.216,-86.982 360.836,-79.6212 350.289,-80.6234 353.216,-86.982"/>
</g>
<!-- Node12&#45;&gt;Node6 -->
<g id="edge28" class="edge"><title>Node12&#45;&gt;Node6</title>
<path fill="none" stroke="midnightblue" d="M347.171,-174.497C330.3,-165.519 305.801,-152.484 286.736,-142.339"/>
<polygon fill="midnightblue" stroke="midnightblue" points="288.343,-139.229 277.87,-137.621 285.054,-145.409 288.343,-139.229"/>
</g>
<!-- Node12&#45;&gt;Node7 -->
<g id="edge32" class="edge"><title>Node12&#45;&gt;Node7</title>
<path fill="none" stroke="midnightblue" d="M359.923,-174.255C351.516,-159.831 339.936,-133.948 351.91,-116 360.269,-103.47 394.03,-90.4023 422.492,-81.2362"/>
<polygon fill="midnightblue" stroke="midnightblue" points="423.794,-84.4961 432.288,-78.164 421.699,-77.8169 423.794,-84.4961"/>
</g>
<!-- Node13 -->
<g id="node28" class="node"><title>Node13</title>
<polygon fill="white" stroke="#bfbfbf" points="360.41,-116.5 360.41,-137.5 389.41,-137.5 389.41,-116.5 360.41,-116.5"/>
<text text-anchor="middle" x="374.91" y="-124.5" font-family="Helvetica,sans-Serif" font-size="10.00">list</text>
</g>
<!-- Node12&#45;&gt;Node13 -->
<g id="edge30" class="edge"><title>Node12&#45;&gt;Node13</title>
<path fill="none" stroke="midnightblue" d="M368.377,-174.362C369.403,-166.922 370.807,-156.743 372.051,-147.728"/>
<polygon fill="midnightblue" stroke="midnightblue" points="375.553,-147.955 373.452,-137.571 368.618,-146.999 375.553,-147.955"/>
</g>
<!-- Node14 -->
<g id="node31" class="node"><title>Node14</title>
<a xlink:href="enumfield_8h.html" target="_top" xlink:title="base/enumfield.h">
<polygon fill="white" stroke="black" points="406.41,-116.5 406.41,-137.5 497.41,-137.5 497.41,-116.5 406.41,-116.5"/>
<text text-anchor="middle" x="451.91" y="-124.5" font-family="Helvetica,sans-Serif" font-size="10.00">base/enumfield.h</text>
</a>
</g>
<!-- Node12&#45;&gt;Node14 -->
<g id="edge34" class="edge"><title>Node12&#45;&gt;Node14</title>
<path fill="none" stroke="midnightblue" d="M382.5,-174.362C395.201,-165.696 413.348,-153.313 427.902,-143.382"/>
<polygon fill="midnightblue" stroke="midnightblue" points="430.131,-146.098 436.418,-137.571 426.185,-140.316 430.131,-146.098"/>
</g>
</g>
</svg>
