<?xml version="1.0" encoding="UTF-8" standalone="no"?>
<!DOCTYPE svg PUBLIC "-//W3C//DTD SVG 1.1//EN"
 "http://www.w3.org/Graphics/SVG/1.1/DTD/svg11.dtd">
<!-- Generated by graphviz version 2.26.3 (20100126.1600)
 -->
<!-- Title: src/reconstruct/Clustering.h Pages: 1 -->
<svg width="816pt" height="102pt"
 viewBox="0.00 0.00 816.00 102.00" xmlns="http://www.w3.org/2000/svg" xmlns:xlink="http://www.w3.org/1999/xlink">
<g id="graph1" class="graph" transform="scale(1 1) rotate(0) translate(4 98)">
<title>src/reconstruct/Clustering.h</title>
<polygon fill="white" stroke="white" points="-4,5 -4,-98 813,-98 813,5 -4,5"/>
<!-- Node1 -->
<g id="node1" class="node"><title>Node1</title>
<polygon fill="#bfbfbf" stroke="black" points="301.5,-72.5 301.5,-93.5 438.5,-93.5 438.5,-72.5 301.5,-72.5"/>
<text text-anchor="middle" x="370" y="-80.5" font-family="Helvetica,sans-Serif" font-size="10.00">src/reconstruct/Clustering.h</text>
</g>
<!-- Node2 -->
<g id="node3" class="node"><title>Node2</title>
<a xlink:href="_c_b___time_walk_8cc.html" target="_top" xlink:title="src/calibration/modules\l/CB_TimeWalk.cc">
<polygon fill="white" stroke="black" points="-0.5,-1 -0.5,-35 116.5,-35 116.5,-1 -0.5,-1"/>
<text text-anchor="start" x="7.5" y="-22" font-family="Helvetica,sans-Serif" font-size="10.00">src/calibration/modules</text>
<text text-anchor="middle" x="58" y="-9" font-family="Helvetica,sans-Serif" font-size="10.00">/CB_TimeWalk.cc</text>
</a>
</g>
<!-- Node1&#45;&gt;Node2 -->
<g id="edge2" class="edge"><title>Node1&#45;&gt;Node2</title>
<path fill="none" stroke="midnightblue" d="M298.696,-70.7387C249.659,-61.9601 183.147,-49.3694 125,-36 122.3,-35.3793 119.545,-34.7248 116.765,-34.0476"/>
<polygon fill="midnightblue" stroke="midnightblue" points="298.115,-74.1902 308.574,-72.4978 299.343,-67.2987 298.115,-74.1902"/>
</g>
<!-- Node3 -->
<g id="node5" class="node"><title>Node3</title>
<a xlink:href="_clustering_8cc.html" target="_top" xlink:title="src/reconstruct/Clustering.cc">
<polygon fill="white" stroke="black" points="133.5,-7.5 133.5,-28.5 276.5,-28.5 276.5,-7.5 133.5,-7.5"/>
<text text-anchor="middle" x="205" y="-15.5" font-family="Helvetica,sans-Serif" font-size="10.00">src/reconstruct/Clustering.cc</text>
</a>
</g>
<!-- Node1&#45;&gt;Node3 -->
<g id="edge4" class="edge"><title>Node1&#45;&gt;Node3</title>
<path fill="none" stroke="midnightblue" d="M333.62,-68.6684C302.878,-56.5579 259.548,-39.4886 231.866,-28.5835"/>
<polygon fill="midnightblue" stroke="midnightblue" points="332.536,-72.0031 343.123,-72.412 335.101,-65.4902 332.536,-72.0031"/>
</g>
<!-- Node4 -->
<g id="node7" class="node"><title>Node4</title>
<a xlink:href="_reconstruct_8cc.html" target="_top" xlink:title="src/reconstruct/Reconstruct.cc">
<polygon fill="white" stroke="black" points="294,-7.5 294,-28.5 446,-28.5 446,-7.5 294,-7.5"/>
<text text-anchor="middle" x="370" y="-15.5" font-family="Helvetica,sans-Serif" font-size="10.00">src/reconstruct/Reconstruct.cc</text>
</a>
</g>
<!-- Node1&#45;&gt;Node4 -->
<g id="edge6" class="edge"><title>Node1&#45;&gt;Node4</title>
<path fill="none" stroke="midnightblue" d="M370,-62.0142C370,-50.8307 370,-37.5583 370,-28.5337"/>
<polygon fill="midnightblue" stroke="midnightblue" points="366.5,-62.2665 370,-72.2666 373.5,-62.2666 366.5,-62.2665"/>
</g>
<!-- Node5 -->
<g id="node9" class="node"><title>Node5</title>
<a xlink:href="_test_candidate_builder_8cc.html" target="_top" xlink:title="test/reconstruct/TestCandidate\lBuilder.cc">
<polygon fill="white" stroke="black" points="464,-1 464,-35 616,-35 616,-1 464,-1"/>
<text text-anchor="start" x="472" y="-22" font-family="Helvetica,sans-Serif" font-size="10.00">test/reconstruct/TestCandidate</text>
<text text-anchor="middle" x="540" y="-9" font-family="Helvetica,sans-Serif" font-size="10.00">Builder.cc</text>
</a>
</g>
<!-- Node1&#45;&gt;Node5 -->
<g id="edge8" class="edge"><title>Node1&#45;&gt;Node5</title>
<path fill="none" stroke="midnightblue" d="M407.176,-68.7857C433.137,-58.8595 467.921,-45.5597 495.38,-35.0604"/>
<polygon fill="midnightblue" stroke="midnightblue" points="405.782,-65.5713 397.692,-72.412 408.282,-72.1097 405.782,-65.5713"/>
</g>
<!-- Node6 -->
<g id="node11" class="node"><title>Node6</title>
<a xlink:href="_test_reconstruct_8cc.html" target="_top" xlink:title="test/reconstruct/TestReconstruct.cc">
<polygon fill="white" stroke="black" points="634,-7.5 634,-28.5 808,-28.5 808,-7.5 634,-7.5"/>
<text text-anchor="middle" x="721" y="-15.5" font-family="Helvetica,sans-Serif" font-size="10.00">test/reconstruct/TestReconstruct.cc</text>
</a>
</g>
<!-- Node1&#45;&gt;Node6 -->
<g id="edge10" class="edge"><title>Node1&#45;&gt;Node6</title>
<path fill="none" stroke="midnightblue" d="M437.474,-70.6221C488.882,-61.1772 561.413,-47.8212 625,-36 637.92,-33.598 651.816,-31.0007 664.912,-28.5464"/>
<polygon fill="midnightblue" stroke="midnightblue" points="436.686,-67.2082 427.483,-72.4573 437.951,-74.093 436.686,-67.2082"/>
</g>
</g>
</svg>
