<?xml version="1.0" encoding="UTF-8" standalone="no"?>
<!DOCTYPE svg PUBLIC "-//W3C//DTD SVG 1.1//EN"
 "http://www.w3.org/Graphics/SVG/1.1/DTD/svg11.dtd">
<!-- Generated by graphviz version 2.26.3 (20100126.1600)
 -->
<!-- Title: src/analysis/input/DataReader.h Pages: 1 -->
<svg width="787pt" height="392pt"
 viewBox="0.00 0.00 787.00 392.00" xmlns="http://www.w3.org/2000/svg" xmlns:xlink="http://www.w3.org/1999/xlink">
<g id="graph1" class="graph" transform="scale(1 1) rotate(0) translate(4 388)">
<title>src/analysis/input/DataReader.h</title>
<polygon fill="white" stroke="white" points="-4,5 -4,-388 784,-388 784,5 -4,5"/>
<!-- Node1 -->
<g id="node1" class="node"><title>Node1</title>
<polygon fill="#bfbfbf" stroke="black" points="594.5,-349 594.5,-383 687.5,-383 687.5,-349 594.5,-349"/>
<text text-anchor="start" x="602.5" y="-370" font-family="Helvetica,sans-Serif" font-size="10.00">src/analysis/input</text>
<text text-anchor="middle" x="641" y="-357" font-family="Helvetica,sans-Serif" font-size="10.00">/DataReader.h</text>
</g>
<!-- Node2 -->
<g id="node3" class="node"><title>Node2</title>
<a xlink:href="_t_slow_control_8h.html" target="_top" xlink:title="tree/TSlowControl.h">
<polygon fill="white" stroke="black" points="541,-290.5 541,-311.5 645,-311.5 645,-290.5 541,-290.5"/>
<text text-anchor="middle" x="593" y="-298.5" font-family="Helvetica,sans-Serif" font-size="10.00">tree/TSlowControl.h</text>
</a>
</g>
<!-- Node1&#45;&gt;Node2 -->
<g id="edge2" class="edge"><title>Node1&#45;&gt;Node2</title>
<path fill="none" stroke="midnightblue" d="M628.389,-348.922C621.821,-340.029 613.773,-329.13 607.011,-319.974"/>
<polygon fill="midnightblue" stroke="midnightblue" points="609.77,-317.817 601.014,-311.852 604.139,-321.976 609.77,-317.817"/>
</g>
<!-- Node21 -->
<g id="node47" class="node"><title>Node21</title>
<polygon fill="white" stroke="#bfbfbf" points="663,-290.5 663,-311.5 715,-311.5 715,-290.5 663,-290.5"/>
<text text-anchor="middle" x="689" y="-298.5" font-family="Helvetica,sans-Serif" font-size="10.00">memory</text>
</g>
<!-- Node1&#45;&gt;Node21 -->
<g id="edge52" class="edge"><title>Node1&#45;&gt;Node21</title>
<path fill="none" stroke="midnightblue" d="M653.611,-348.922C660.179,-340.029 668.227,-329.13 674.989,-319.974"/>
<polygon fill="midnightblue" stroke="midnightblue" points="677.861,-321.976 680.986,-311.852 672.23,-317.817 677.861,-321.976"/>
</g>
<!-- Node3 -->
<g id="node5" class="node"><title>Node3</title>
<a xlink:href="_t_data_record_8h.html" target="_top" xlink:title="TDataRecord.h">
<polygon fill="white" stroke="black" points="307.5,-232.5 307.5,-253.5 390.5,-253.5 390.5,-232.5 307.5,-232.5"/>
<text text-anchor="middle" x="349" y="-240.5" font-family="Helvetica,sans-Serif" font-size="10.00">TDataRecord.h</text>
</a>
</g>
<!-- Node2&#45;&gt;Node3 -->
<g id="edge4" class="edge"><title>Node2&#45;&gt;Node3</title>
<path fill="none" stroke="midnightblue" d="M548.813,-290.497C507.151,-280.593 444.71,-265.751 400.741,-255.299"/>
<polygon fill="midnightblue" stroke="midnightblue" points="401.359,-251.848 390.82,-252.941 399.74,-258.659 401.359,-251.848"/>
</g>
<!-- Node9 -->
<g id="node17" class="node"><title>Node9</title>
<a xlink:href="time_8h.html" target="_top" xlink:title="base/std_ext/time.h">
<polygon fill="white" stroke="black" points="541.5,-116.5 541.5,-137.5 644.5,-137.5 644.5,-116.5 541.5,-116.5"/>
<text text-anchor="middle" x="593" y="-124.5" font-family="Helvetica,sans-Serif" font-size="10.00">base/std_ext/time.h</text>
</a>
</g>
<!-- Node2&#45;&gt;Node9 -->
<g id="edge48" class="edge"><title>Node2&#45;&gt;Node9</title>
<path fill="none" stroke="midnightblue" d="M593,-290.377C593,-262.293 593,-185.673 593,-148.203"/>
<polygon fill="midnightblue" stroke="midnightblue" points="596.5,-147.928 593,-137.928 589.5,-147.928 596.5,-147.928"/>
</g>
<!-- Node17 -->
<g id="node33" class="node"><title>Node17</title>
<polygon fill="white" stroke="#bfbfbf" points="662,-116.5 662,-137.5 700,-137.5 700,-116.5 662,-116.5"/>
<text text-anchor="middle" x="681" y="-124.5" font-family="Helvetica,sans-Serif" font-size="10.00">tuple</text>
</g>
<!-- Node2&#45;&gt;Node17 -->
<g id="edge50" class="edge"><title>Node2&#45;&gt;Node17</title>
<path fill="none" stroke="midnightblue" d="M598.372,-290.377C612.698,-262.051 651.996,-184.349 670.762,-147.242"/>
<polygon fill="midnightblue" stroke="midnightblue" points="674.083,-148.431 675.473,-137.928 667.837,-145.272 674.083,-148.431"/>
</g>
<!-- Node4 -->
<g id="node7" class="node"><title>Node4</title>
<a xlink:href="_t_i_d_8h.html" target="_top" xlink:title="TID.h">
<polygon fill="white" stroke="black" points="328.5,-174.5 328.5,-195.5 369.5,-195.5 369.5,-174.5 328.5,-174.5"/>
<text text-anchor="middle" x="349" y="-182.5" font-family="Helvetica,sans-Serif" font-size="10.00">TID.h</text>
</a>
</g>
<!-- Node3&#45;&gt;Node4 -->
<g id="edge6" class="edge"><title>Node3&#45;&gt;Node4</title>
<path fill="none" stroke="midnightblue" d="M349,-232.362C349,-224.922 349,-214.743 349,-205.728"/>
<polygon fill="midnightblue" stroke="midnightblue" points="352.5,-205.571 349,-195.571 345.5,-205.571 352.5,-205.571"/>
</g>
<!-- Node5 -->
<g id="node9" class="node"><title>Node5</title>
<polygon fill="white" stroke="#bfbfbf" points="68,-116.5 68,-137.5 124,-137.5 124,-116.5 68,-116.5"/>
<text text-anchor="middle" x="96" y="-124.5" font-family="Helvetica,sans-Serif" font-size="10.00">Rtypes.h</text>
</g>
<!-- Node3&#45;&gt;Node5 -->
<g id="edge42" class="edge"><title>Node3&#45;&gt;Node5</title>
<path fill="none" stroke="midnightblue" d="M325.652,-232.295C280.258,-211.482 180.029,-165.527 128.297,-141.808"/>
<polygon fill="midnightblue" stroke="midnightblue" points="129.475,-138.498 118.926,-137.512 126.558,-144.861 129.475,-138.498"/>
</g>
<!-- Node15 -->
<g id="node29" class="node"><title>Node15</title>
<polygon fill="white" stroke="#bfbfbf" points="493.5,-58.5 493.5,-79.5 534.5,-79.5 534.5,-58.5 493.5,-58.5"/>
<text text-anchor="middle" x="514" y="-66.5" font-family="Helvetica,sans-Serif" font-size="10.00">ctime</text>
</g>
<!-- Node3&#45;&gt;Node15 -->
<g id="edge46" class="edge"><title>Node3&#45;&gt;Node15</title>
<path fill="none" stroke="midnightblue" d="M367.597,-232.285C395.595,-215.364 448.819,-180.021 482,-138 493.589,-123.323 502.149,-103.767 507.485,-89.2231"/>
<polygon fill="midnightblue" stroke="midnightblue" points="510.832,-90.2545 510.798,-79.6598 504.217,-87.9634 510.832,-90.2545"/>
</g>
<!-- Node20 -->
<g id="node39" class="node"><title>Node20</title>
<polygon fill="white" stroke="#bfbfbf" points="0,-116.5 0,-137.5 50,-137.5 50,-116.5 0,-116.5"/>
<text text-anchor="middle" x="25" y="-124.5" font-family="Helvetica,sans-Serif" font-size="10.00">iomanip</text>
</g>
<!-- Node3&#45;&gt;Node20 -->
<g id="edge44" class="edge"><title>Node3&#45;&gt;Node20</title>
<path fill="none" stroke="midnightblue" d="M311.609,-232.484C280.451,-223.49 235.022,-209.838 196,-196 147.805,-178.909 93.1794,-156.283 58.9112,-141.683"/>
<polygon fill="midnightblue" stroke="midnightblue" points="59.9547,-138.323 49.384,-137.607 57.2013,-144.758 59.9547,-138.323"/>
</g>
<!-- Node4&#45;&gt;Node5 -->
<g id="edge8" class="edge"><title>Node4&#45;&gt;Node5</title>
<path fill="none" stroke="midnightblue" d="M328.33,-181.037C291.318,-173.828 211.118,-157.694 134.084,-138.152"/>
<polygon fill="midnightblue" stroke="midnightblue" points="134.777,-134.717 124.221,-135.626 133.04,-141.498 134.777,-134.717"/>
</g>
<!-- Node6 -->
<g id="node11" class="node"><title>Node6</title>
<a xlink:href="printable_8h.html" target="_top" xlink:title="base/printable.h">
<polygon fill="white" stroke="black" points="142,-116.5 142,-137.5 228,-137.5 228,-116.5 142,-116.5"/>
<text text-anchor="middle" x="185" y="-124.5" font-family="Helvetica,sans-Serif" font-size="10.00">base/printable.h</text>
</a>
</g>
<!-- Node4&#45;&gt;Node6 -->
<g id="edge10" class="edge"><title>Node4&#45;&gt;Node6</title>
<path fill="none" stroke="midnightblue" d="M328.229,-177.654C302.218,-168.455 257.11,-152.502 224.454,-140.953"/>
<polygon fill="midnightblue" stroke="midnightblue" points="225.349,-137.557 214.754,-137.523 223.015,-144.157 225.349,-137.557"/>
</g>
<!-- Node4&#45;&gt;Node9 -->
<g id="edge16" class="edge"><title>Node4&#45;&gt;Node9</title>
<path fill="none" stroke="midnightblue" d="M369.803,-180.055C406.831,-171.253 485.279,-152.606 538.582,-139.935"/>
<polygon fill="midnightblue" stroke="midnightblue" points="539.637,-143.282 548.557,-137.564 538.019,-136.472 539.637,-143.282"/>
</g>
<!-- Node4&#45;&gt;Node15 -->
<g id="edge40" class="edge"><title>Node4&#45;&gt;Node15</title>
<path fill="none" stroke="midnightblue" d="M369.605,-179.228C392.523,-172.119 429.883,-158.419 457,-138 475.297,-124.223 491.421,-103.434 501.809,-88.277"/>
<polygon fill="midnightblue" stroke="midnightblue" points="504.899,-89.9497 507.503,-79.68 499.063,-86.0842 504.899,-89.9497"/>
</g>
<!-- Node16 -->
<g id="node31" class="node"><title>Node16</title>
<polygon fill="white" stroke="#bfbfbf" points="246,-116.5 246,-137.5 308,-137.5 308,-116.5 246,-116.5"/>
<text text-anchor="middle" x="277" y="-124.5" font-family="Helvetica,sans-Serif" font-size="10.00">type_traits</text>
</g>
<!-- Node4&#45;&gt;Node16 -->
<g id="edge30" class="edge"><title>Node4&#45;&gt;Node16</title>
<path fill="none" stroke="midnightblue" d="M335.794,-174.362C325.239,-165.859 310.242,-153.779 298.037,-143.947"/>
<polygon fill="midnightblue" stroke="midnightblue" points="300.105,-141.118 290.122,-137.571 295.714,-146.57 300.105,-141.118"/>
</g>
<!-- Node4&#45;&gt;Node17 -->
<g id="edge32" class="edge"><title>Node4&#45;&gt;Node17</title>
<path fill="none" stroke="midnightblue" d="M369.603,-183.395C417.746,-179.316 541.33,-166.934 652.245,-137.74"/>
<polygon fill="midnightblue" stroke="midnightblue" points="653.159,-141.118 661.909,-135.144 651.343,-134.358 653.159,-141.118"/>
</g>
<!-- Node18 -->
<g id="node35" class="node"><title>Node18</title>
<polygon fill="white" stroke="#bfbfbf" points="326,-116.5 326,-137.5 372,-137.5 372,-116.5 326,-116.5"/>
<text text-anchor="middle" x="349" y="-124.5" font-family="Helvetica,sans-Serif" font-size="10.00">cstdint</text>
</g>
<!-- Node4&#45;&gt;Node18 -->
<g id="edge34" class="edge"><title>Node4&#45;&gt;Node18</title>
<path fill="none" stroke="midnightblue" d="M349,-174.362C349,-166.922 349,-156.743 349,-147.728"/>
<polygon fill="midnightblue" stroke="midnightblue" points="352.5,-147.571 349,-137.571 345.5,-147.571 352.5,-147.571"/>
</g>
<!-- Node19 -->
<g id="node37" class="node"><title>Node19</title>
<polygon fill="white" stroke="#bfbfbf" points="389.5,-116.5 389.5,-137.5 448.5,-137.5 448.5,-116.5 389.5,-116.5"/>
<text text-anchor="middle" x="419" y="-124.5" font-family="Helvetica,sans-Serif" font-size="10.00">stdexcept</text>
</g>
<!-- Node4&#45;&gt;Node19 -->
<g id="edge36" class="edge"><title>Node4&#45;&gt;Node19</title>
<path fill="none" stroke="midnightblue" d="M361.839,-174.362C372.002,-165.941 386.401,-154.011 398.204,-144.231"/>
<polygon fill="midnightblue" stroke="midnightblue" points="400.775,-146.646 406.242,-137.571 396.309,-141.256 400.775,-146.646"/>
</g>
<!-- Node4&#45;&gt;Node20 -->
<g id="edge38" class="edge"><title>Node4&#45;&gt;Node20</title>
<path fill="none" stroke="midnightblue" d="M328.394,-182.754C282.045,-177.472 165.973,-162.964 60.0202,-137.973"/>
<polygon fill="midnightblue" stroke="midnightblue" points="60.6696,-134.529 50.1292,-135.601 59.0377,-141.336 60.6696,-134.529"/>
</g>
<!-- Node7 -->
<g id="node13" class="node"><title>Node7</title>
<polygon fill="white" stroke="#bfbfbf" points="196,-58.5 196,-79.5 240,-79.5 240,-58.5 196,-58.5"/>
<text text-anchor="middle" x="218" y="-66.5" font-family="Helvetica,sans-Serif" font-size="10.00">vector</text>
</g>
<!-- Node6&#45;&gt;Node7 -->
<g id="edge12" class="edge"><title>Node6&#45;&gt;Node7</title>
<path fill="none" stroke="midnightblue" d="M191.053,-116.362C195.472,-108.595 201.59,-97.8426 206.879,-88.5458"/>
<polygon fill="midnightblue" stroke="midnightblue" points="210.082,-89.9932 211.986,-79.5707 203.998,-86.5315 210.082,-89.9932"/>
</g>
<!-- Node8 -->
<g id="node15" class="node"><title>Node8</title>
<polygon fill="white" stroke="#bfbfbf" points="126,-58.5 126,-79.5 178,-79.5 178,-58.5 126,-58.5"/>
<text text-anchor="middle" x="152" y="-66.5" font-family="Helvetica,sans-Serif" font-size="10.00">ostream</text>
</g>
<!-- Node6&#45;&gt;Node8 -->
<g id="edge14" class="edge"><title>Node6&#45;&gt;Node8</title>
<path fill="none" stroke="midnightblue" d="M178.947,-116.362C174.528,-108.595 168.41,-97.8426 163.121,-88.5458"/>
<polygon fill="midnightblue" stroke="midnightblue" points="166.002,-86.5315 158.014,-79.5707 159.918,-89.9932 166.002,-86.5315"/>
</g>
<!-- Node10 -->
<g id="node19" class="node"><title>Node10</title>
<a xlink:href="string_8h.html" target="_top" xlink:title="base/std_ext/string.h">
<polygon fill="white" stroke="black" points="625,-58.5 625,-79.5 733,-79.5 733,-58.5 625,-58.5"/>
<text text-anchor="middle" x="679" y="-66.5" font-family="Helvetica,sans-Serif" font-size="10.00">base/std_ext/string.h</text>
</a>
</g>
<!-- Node9&#45;&gt;Node10 -->
<g id="edge18" class="edge"><title>Node9&#45;&gt;Node10</title>
<path fill="none" stroke="midnightblue" d="M608.774,-116.362C621.624,-107.696 639.985,-95.3126 654.71,-85.3819"/>
<polygon fill="midnightblue" stroke="midnightblue" points="656.993,-88.0639 663.326,-79.5707 653.079,-82.2604 656.993,-88.0639"/>
</g>
<!-- Node14 -->
<g id="node27" class="node"><title>Node14</title>
<polygon fill="white" stroke="#bfbfbf" points="561,-58.5 561,-79.5 607,-79.5 607,-58.5 561,-58.5"/>
<text text-anchor="middle" x="584" y="-66.5" font-family="Helvetica,sans-Serif" font-size="10.00">cstring</text>
</g>
<!-- Node9&#45;&gt;Node14 -->
<g id="edge26" class="edge"><title>Node9&#45;&gt;Node14</title>
<path fill="none" stroke="midnightblue" d="M591.349,-116.362C590.195,-108.922 588.615,-98.7427 587.216,-89.7276"/>
<polygon fill="midnightblue" stroke="midnightblue" points="590.632,-88.9157 585.64,-79.5707 583.715,-89.9891 590.632,-88.9157"/>
</g>
<!-- Node9&#45;&gt;Node15 -->
<g id="edge28" class="edge"><title>Node9&#45;&gt;Node15</title>
<path fill="none" stroke="midnightblue" d="M578.51,-116.362C566.817,-107.777 550.157,-95.5459 536.697,-85.6636"/>
<polygon fill="midnightblue" stroke="midnightblue" points="538.53,-82.6675 528.398,-79.5707 534.387,-88.31 538.53,-82.6675"/>
</g>
<!-- Node11 -->
<g id="node21" class="node"><title>Node11</title>
<polygon fill="white" stroke="#bfbfbf" points="594.5,-0.5 594.5,-21.5 635.5,-21.5 635.5,-0.5 594.5,-0.5"/>
<text text-anchor="middle" x="615" y="-8.5" font-family="Helvetica,sans-Serif" font-size="10.00">string</text>
</g>
<!-- Node10&#45;&gt;Node11 -->
<g id="edge20" class="edge"><title>Node10&#45;&gt;Node11</title>
<path fill="none" stroke="midnightblue" d="M667.261,-58.3619C658.059,-50.0226 645.06,-38.2418 634.328,-28.5162"/>
<polygon fill="midnightblue" stroke="midnightblue" points="636.424,-25.6924 626.664,-21.5707 631.724,-30.8793 636.424,-25.6924"/>
</g>
<!-- Node12 -->
<g id="node23" class="node"><title>Node12</title>
<polygon fill="white" stroke="#bfbfbf" points="653,-0.5 653,-21.5 705,-21.5 705,-0.5 653,-0.5"/>
<text text-anchor="middle" x="679" y="-8.5" font-family="Helvetica,sans-Serif" font-size="10.00">sstream</text>
</g>
<!-- Node10&#45;&gt;Node12 -->
<g id="edge22" class="edge"><title>Node10&#45;&gt;Node12</title>
<path fill="none" stroke="midnightblue" d="M679,-58.3619C679,-50.9219 679,-40.7427 679,-31.7276"/>
<polygon fill="midnightblue" stroke="midnightblue" points="682.5,-31.5706 679,-21.5707 675.5,-31.5707 682.5,-31.5706"/>
</g>
<!-- Node13 -->
<g id="node25" class="node"><title>Node13</title>
<polygon fill="white" stroke="#bfbfbf" points="723,-0.5 723,-21.5 779,-21.5 779,-0.5 723,-0.5"/>
<text text-anchor="middle" x="751" y="-8.5" font-family="Helvetica,sans-Serif" font-size="10.00">algorithm</text>
</g>
<!-- Node10&#45;&gt;Node13 -->
<g id="edge24" class="edge"><title>Node10&#45;&gt;Node13</title>
<path fill="none" stroke="midnightblue" d="M692.206,-58.3619C702.761,-49.859 717.758,-37.7785 729.963,-27.9466"/>
<polygon fill="midnightblue" stroke="midnightblue" points="732.286,-30.5696 737.878,-21.5707 727.895,-25.1183 732.286,-30.5696"/>
</g>
</g>
</svg>
