<?xml version="1.0" encoding="UTF-8" standalone="no"?>
<!DOCTYPE svg PUBLIC "-//W3C//DTD SVG 1.1//EN"
 "http://www.w3.org/Graphics/SVG/1.1/DTD/svg11.dtd">
<!-- Generated by graphviz version 2.26.3 (20100126.1600)
 -->
<!-- Title: src/analysis/input/DataReader.h Pages: 1 -->
<svg width="944pt" height="188pt"
 viewBox="0.00 0.00 944.00 188.00" xmlns="http://www.w3.org/2000/svg" xmlns:xlink="http://www.w3.org/1999/xlink">
<g id="graph1" class="graph" transform="scale(1 1) rotate(0) translate(4 184)">
<title>src/analysis/input/DataReader.h</title>
<polygon fill="white" stroke="white" points="-4,5 -4,-184 941,-184 941,5 -4,5"/>
<!-- Node1 -->
<g id="node1" class="node"><title>Node1</title>
<polygon fill="#bfbfbf" stroke="black" points="375.5,-145 375.5,-179 468.5,-179 468.5,-145 375.5,-145"/>
<text text-anchor="start" x="383.5" y="-166" font-family="Helvetica,sans-Serif" font-size="10.00">src/analysis/input</text>
<text text-anchor="middle" x="422" y="-153" font-family="Helvetica,sans-Serif" font-size="10.00">/DataReader.h</text>
</g>
<!-- Node2 -->
<g id="node3" class="node"><title>Node2</title>
<a xlink:href="_ant_8cc.html" target="_top" xlink:title="progs/Ant.cc">
<polygon fill="white" stroke="black" points="286,-7.5 286,-28.5 358,-28.5 358,-7.5 286,-7.5"/>
<text text-anchor="middle" x="322" y="-15.5" font-family="Helvetica,sans-Serif" font-size="10.00">progs/Ant.cc</text>
</a>
</g>
<!-- Node1&#45;&gt;Node2 -->
<g id="edge2" class="edge"><title>Node1&#45;&gt;Node2</title>
<path fill="none" stroke="midnightblue" d="M390.82,-138.339C380.72,-129.597 370.057,-119.095 362,-108 343.312,-82.2663 330.664,-46.4165 325.145,-28.7352"/>
<polygon fill="midnightblue" stroke="midnightblue" points="388.819,-141.228 398.739,-144.95 393.305,-135.854 388.819,-141.228"/>
</g>
<!-- Node3 -->
<g id="node5" class="node"><title>Node3</title>
<a xlink:href="_ant_reader_8h.html" target="_top" xlink:title="src/analysis/input\l/ant/AntReader.h">
<polygon fill="white" stroke="black" points="187.5,-73 187.5,-107 280.5,-107 280.5,-73 187.5,-73"/>
<text text-anchor="start" x="195.5" y="-94" font-family="Helvetica,sans-Serif" font-size="10.00">src/analysis/input</text>
<text text-anchor="middle" x="234" y="-81" font-family="Helvetica,sans-Serif" font-size="10.00">/ant/AntReader.h</text>
</a>
</g>
<!-- Node1&#45;&gt;Node3 -->
<g id="edge4" class="edge"><title>Node1&#45;&gt;Node3</title>
<path fill="none" stroke="midnightblue" d="M368.08,-141.35C339.727,-130.491 305.387,-117.34 278.559,-107.065"/>
<polygon fill="midnightblue" stroke="midnightblue" points="366.856,-144.629 377.447,-144.937 369.36,-138.092 366.856,-144.629"/>
</g>
<!-- Node6 -->
<g id="node12" class="node"><title>Node6</title>
<a xlink:href="_goat_reader_8h.html" target="_top" xlink:title="src/analysis/input\l/goat/GoatReader.h">
<polygon fill="white" stroke="black" points="371,-73 371,-107 473,-107 473,-73 371,-73"/>
<text text-anchor="start" x="379" y="-94" font-family="Helvetica,sans-Serif" font-size="10.00">src/analysis/input</text>
<text text-anchor="middle" x="422" y="-81" font-family="Helvetica,sans-Serif" font-size="10.00">/goat/GoatReader.h</text>
</a>
</g>
<!-- Node1&#45;&gt;Node6 -->
<g id="edge12" class="edge"><title>Node1&#45;&gt;Node6</title>
<path fill="none" stroke="midnightblue" d="M422,-134.719C422,-125.572 422,-115.625 422,-107.441"/>
<polygon fill="midnightblue" stroke="midnightblue" points="418.5,-134.937 422,-144.937 425.5,-134.937 418.5,-134.937"/>
</g>
<!-- Node10 -->
<g id="node21" class="node"><title>Node10</title>
<a xlink:href="_pluto_reader_8h.html" target="_top" xlink:title="src/analysis/input\l/pluto/PlutoReader.h">
<polygon fill="white" stroke="black" points="491,-73 491,-107 597,-107 597,-73 491,-73"/>
<text text-anchor="start" x="499" y="-94" font-family="Helvetica,sans-Serif" font-size="10.00">src/analysis/input</text>
<text text-anchor="middle" x="544" y="-81" font-family="Helvetica,sans-Serif" font-size="10.00">/pluto/PlutoReader.h</text>
</a>
</g>
<!-- Node1&#45;&gt;Node10 -->
<g id="edge22" class="edge"><title>Node1&#45;&gt;Node10</title>
<path fill="none" stroke="midnightblue" d="M459.867,-139.652C477.6,-129.187 498.394,-116.915 514.872,-107.19"/>
<polygon fill="midnightblue" stroke="midnightblue" points="457.745,-136.84 450.912,-144.937 461.303,-142.869 457.745,-136.84"/>
</g>
<!-- Node12 -->
<g id="node26" class="node"><title>Node12</title>
<a xlink:href="_physics_manager_8cc.html" target="_top" xlink:title="src/analysis/physics\l/PhysicsManager.cc">
<polygon fill="white" stroke="black" points="615,-73 615,-107 721,-107 721,-73 615,-73"/>
<text text-anchor="start" x="623" y="-94" font-family="Helvetica,sans-Serif" font-size="10.00">src/analysis/physics</text>
<text text-anchor="middle" x="668" y="-81" font-family="Helvetica,sans-Serif" font-size="10.00">/PhysicsManager.cc</text>
</a>
</g>
<!-- Node1&#45;&gt;Node12 -->
<g id="edge28" class="edge"><title>Node1&#45;&gt;Node12</title>
<path fill="none" stroke="midnightblue" d="M478.398,-145.493C519.403,-133.492 574.548,-117.352 614.793,-105.573"/>
<polygon fill="midnightblue" stroke="midnightblue" points="477.174,-142.205 468.56,-148.373 479.14,-148.923 477.174,-142.205"/>
</g>
<!-- Node3&#45;&gt;Node2 -->
<g id="edge6" class="edge"><title>Node3&#45;&gt;Node2</title>
<path fill="none" stroke="midnightblue" d="M262.689,-66.527C278.275,-53.7747 296.79,-38.6265 308.937,-28.688"/>
<polygon fill="midnightblue" stroke="midnightblue" points="260.378,-63.8957 254.855,-72.937 264.811,-69.3134 260.378,-63.8957"/>
</g>
<!-- Node4 -->
<g id="node8" class="node"><title>Node4</title>
<a xlink:href="_ant_reader_8cc.html" target="_top" xlink:title="src/analysis/input\l/ant/AntReader.cc">
<polygon fill="white" stroke="black" points="172,-1 172,-35 268,-35 268,-1 172,-1"/>
<text text-anchor="start" x="180" y="-22" font-family="Helvetica,sans-Serif" font-size="10.00">src/analysis/input</text>
<text text-anchor="middle" x="220" y="-9" font-family="Helvetica,sans-Serif" font-size="10.00">/ant/AntReader.cc</text>
</a>
</g>
<!-- Node3&#45;&gt;Node4 -->
<g id="edge8" class="edge"><title>Node3&#45;&gt;Node4</title>
<path fill="none" stroke="midnightblue" d="M228.753,-63.0173C226.959,-53.7884 225,-43.7144 223.391,-35.4407"/>
<polygon fill="midnightblue" stroke="midnightblue" points="225.338,-63.7889 230.682,-72.937 232.209,-62.4528 225.338,-63.7889"/>
</g>
<!-- Node5 -->
<g id="node10" class="node"><title>Node5</title>
<a xlink:href="_test_ant_reader_8cc.html" target="_top" xlink:title="test/analysis/TestAntReader.cc">
<polygon fill="white" stroke="black" points="-0.5,-7.5 -0.5,-28.5 154.5,-28.5 154.5,-7.5 -0.5,-7.5"/>
<text text-anchor="middle" x="77" y="-15.5" font-family="Helvetica,sans-Serif" font-size="10.00">test/analysis/TestAntReader.cc</text>
</a>
</g>
<!-- Node3&#45;&gt;Node5 -->
<g id="edge10" class="edge"><title>Node3&#45;&gt;Node5</title>
<path fill="none" stroke="midnightblue" d="M187.358,-68.6099C158.68,-55.4582 123.17,-39.1736 100.306,-28.688"/>
<polygon fill="midnightblue" stroke="midnightblue" points="186.244,-71.9498 196.793,-72.937 189.162,-65.587 186.244,-71.9498"/>
</g>
<!-- Node6&#45;&gt;Node2 -->
<g id="edge14" class="edge"><title>Node6&#45;&gt;Node2</title>
<path fill="none" stroke="midnightblue" d="M389.885,-66.8774C372.074,-54.0531 350.775,-38.7177 336.845,-28.688"/>
<polygon fill="midnightblue" stroke="midnightblue" points="388.141,-69.9343 398.301,-72.937 392.231,-64.2535 388.141,-69.9343"/>
</g>
<!-- Node7 -->
<g id="node15" class="node"><title>Node7</title>
<a xlink:href="_goat_reader_8cc.html" target="_top" xlink:title="src/analysis/input\l/goat/GoatReader.cc">
<polygon fill="white" stroke="black" points="375.5,-1 375.5,-35 482.5,-35 482.5,-1 375.5,-1"/>
<text text-anchor="start" x="383.5" y="-22" font-family="Helvetica,sans-Serif" font-size="10.00">src/analysis/input</text>
<text text-anchor="middle" x="429" y="-9" font-family="Helvetica,sans-Serif" font-size="10.00">/goat/GoatReader.cc</text>
</a>
</g>
<!-- Node6&#45;&gt;Node7 -->
<g id="edge16" class="edge"><title>Node6&#45;&gt;Node7</title>
<path fill="none" stroke="midnightblue" d="M424.652,-62.7193C425.542,-53.572 426.509,-43.6255 427.304,-35.4407"/>
<polygon fill="midnightblue" stroke="midnightblue" points="421.143,-62.6452 423.659,-72.937 428.11,-63.3226 421.143,-62.6452"/>
</g>
<!-- Node8 -->
<g id="node17" class="node"><title>Node8</title>
<a xlink:href="_test_goat_reader_8cc.html" target="_top" xlink:title="test/analysis/TestGoatReader.cc">
<polygon fill="white" stroke="black" points="499.5,-7.5 499.5,-28.5 660.5,-28.5 660.5,-7.5 499.5,-7.5"/>
<text text-anchor="middle" x="580" y="-15.5" font-family="Helvetica,sans-Serif" font-size="10.00">test/analysis/TestGoatReader.cc</text>
</a>
</g>
<!-- Node6&#45;&gt;Node8 -->
<g id="edge18" class="edge"><title>Node6&#45;&gt;Node8</title>
<path fill="none" stroke="midnightblue" d="M468.563,-68.7812C497.489,-55.5999 533.436,-39.2192 556.546,-28.688"/>
<polygon fill="midnightblue" stroke="midnightblue" points="467.092,-65.6053 459.444,-72.937 469.995,-71.9751 467.092,-65.6053"/>
</g>
<!-- Node9 -->
<g id="node19" class="node"><title>Node9</title>
<a xlink:href="_test_physics_manager_8cc.html" target="_top" xlink:title="test/analysis/TestPhysics\lManager.cc">
<polygon fill="white" stroke="black" points="678,-1 678,-35 808,-35 808,-1 678,-1"/>
<text text-anchor="start" x="686" y="-22" font-family="Helvetica,sans-Serif" font-size="10.00">test/analysis/TestPhysics</text>
<text text-anchor="middle" x="743" y="-9" font-family="Helvetica,sans-Serif" font-size="10.00">Manager.cc</text>
</a>
</g>
<!-- Node6&#45;&gt;Node9 -->
<g id="edge20" class="edge"><title>Node6&#45;&gt;Node9</title>
<path fill="none" stroke="midnightblue" d="M483.135,-71.8424C565.919,-51.9489 589.37,-53.3391 669,-36 671.842,-35.3811 674.742,-34.7357 677.67,-34.0728"/>
<polygon fill="midnightblue" stroke="midnightblue" points="482.181,-68.4725 473.293,-74.2396 483.837,-75.2737 482.181,-68.4725"/>
</g>
<!-- Node10&#45;&gt;Node2 -->
<g id="edge24" class="edge"><title>Node10&#45;&gt;Node2</title>
<path fill="none" stroke="midnightblue" d="M481.055,-71.4068C439.225,-58.9336 388.228,-43.4687 367,-36 360.65,-33.7659 353.874,-31.1703 347.559,-28.6573"/>
<polygon fill="midnightblue" stroke="midnightblue" points="480.062,-74.7628 490.645,-74.262 482.059,-68.0539 480.062,-74.7628"/>
</g>
<!-- Node11 -->
<g id="node24" class="node"><title>Node11</title>
<a xlink:href="_pluto_reader_8cc.html" target="_top" xlink:title="src/analysis/input\l/pluto/PlutoReader.cc">
<polygon fill="white" stroke="black" points="825.5,-1 825.5,-35 936.5,-35 936.5,-1 825.5,-1"/>
<text text-anchor="start" x="833.5" y="-22" font-family="Helvetica,sans-Serif" font-size="10.00">src/analysis/input</text>
<text text-anchor="middle" x="881" y="-9" font-family="Helvetica,sans-Serif" font-size="10.00">/pluto/PlutoReader.cc</text>
</a>
</g>
<!-- Node10&#45;&gt;Node11 -->
<g id="edge26" class="edge"><title>Node10&#45;&gt;Node11</title>
<path fill="none" stroke="midnightblue" d="M607.187,-71.8645C700.484,-51.0857 727.274,-56.2131 817,-36 819.702,-35.3912 822.461,-34.7384 825.24,-34.0551"/>
<polygon fill="midnightblue" stroke="midnightblue" points="606.312,-68.4739 597.334,-74.099 607.86,-75.3005 606.312,-68.4739"/>
</g>
</g>
</svg>
