<?xml version="1.0" encoding="UTF-8" standalone="no"?>
<!DOCTYPE svg PUBLIC "-//W3C//DTD SVG 1.1//EN"
 "http://www.w3.org/Graphics/SVG/1.1/DTD/svg11.dtd">
<!-- Generated by graphviz version 2.26.3 (20100126.1600)
 -->
<!-- Title: src/calibration/DataBase.h Pages: 1 -->
<svg width="970pt" height="320pt"
 viewBox="0.00 0.00 970.00 320.00" xmlns="http://www.w3.org/2000/svg" xmlns:xlink="http://www.w3.org/1999/xlink">
<g id="graph1" class="graph" transform="scale(1 1) rotate(0) translate(4 316)">
<title>src/calibration/DataBase.h</title>
<polygon fill="white" stroke="white" points="-4,5 -4,-316 967,-316 967,5 -4,5"/>
<!-- Node1 -->
<g id="node1" class="node"><title>Node1</title>
<polygon fill="#bfbfbf" stroke="black" points="207,-290.5 207,-311.5 339,-311.5 339,-290.5 207,-290.5"/>
<text text-anchor="middle" x="273" y="-298.5" font-family="Helvetica,sans-Serif" font-size="10.00">src/calibration/DataBase.h</text>
</g>
<!-- Node2 -->
<g id="node3" class="node"><title>Node2</title>
<polygon fill="white" stroke="#bfbfbf" points="-0.5,-232.5 -0.5,-253.5 34.5,-253.5 34.5,-232.5 -0.5,-232.5"/>
<text text-anchor="middle" x="17" y="-240.5" font-family="Helvetica,sans-Serif" font-size="10.00">map</text>
</g>
<!-- Node1&#45;&gt;Node2 -->
<g id="edge2" class="edge"><title>Node1&#45;&gt;Node2</title>
<path fill="none" stroke="midnightblue" d="M211.342,-290.444C165.821,-282.09 102.561,-269.303 48,-254 46.7628,-253.653 45.5037,-253.282 44.2359,-252.894"/>
<polygon fill="midnightblue" stroke="midnightblue" points="45.1659,-249.515 34.5727,-249.699 42.9686,-256.161 45.1659,-249.515"/>
</g>
<!-- Node3 -->
<g id="node5" class="node"><title>Node3</title>
<polygon fill="white" stroke="#bfbfbf" points="80,-58.5 80,-79.5 124,-79.5 124,-58.5 80,-58.5"/>
<text text-anchor="middle" x="102" y="-66.5" font-family="Helvetica,sans-Serif" font-size="10.00">vector</text>
</g>
<!-- Node1&#45;&gt;Node3 -->
<g id="edge4" class="edge"><title>Node1&#45;&gt;Node3</title>
<path fill="none" stroke="midnightblue" d="M250.939,-290.495C208.519,-268.896 116.628,-214.983 81,-138 73.5648,-121.935 80.7462,-102.57 88.6679,-88.4497"/>
<polygon fill="midnightblue" stroke="midnightblue" points="91.8427,-89.9685 94.0998,-79.6169 85.8799,-86.3016 91.8427,-89.9685"/>
</g>
<!-- Node4 -->
<g id="node7" class="node"><title>Node4</title>
<polygon fill="white" stroke="#bfbfbf" points="258.5,-232.5 258.5,-253.5 287.5,-253.5 287.5,-232.5 258.5,-232.5"/>
<text text-anchor="middle" x="273" y="-240.5" font-family="Helvetica,sans-Serif" font-size="10.00">list</text>
</g>
<!-- Node1&#45;&gt;Node4 -->
<g id="edge6" class="edge"><title>Node1&#45;&gt;Node4</title>
<path fill="none" stroke="midnightblue" d="M273,-290.362C273,-282.922 273,-272.743 273,-263.728"/>
<polygon fill="midnightblue" stroke="midnightblue" points="276.5,-263.571 273,-253.571 269.5,-263.571 276.5,-263.571"/>
</g>
<!-- Node5 -->
<g id="node9" class="node"><title>Node5</title>
<a xlink:href="_t_data_record_8h.html" target="_top" xlink:title="tree/TDataRecord.h">
<polygon fill="white" stroke="black" points="439.5,-232.5 439.5,-253.5 542.5,-253.5 542.5,-232.5 439.5,-232.5"/>
<text text-anchor="middle" x="491" y="-240.5" font-family="Helvetica,sans-Serif" font-size="10.00">tree/TDataRecord.h</text>
</a>
</g>
<!-- Node1&#45;&gt;Node5 -->
<g id="edge8" class="edge"><title>Node1&#45;&gt;Node5</title>
<path fill="none" stroke="midnightblue" d="M312.478,-290.497C348.633,-280.877 402.304,-266.598 441.353,-256.209"/>
<polygon fill="midnightblue" stroke="midnightblue" points="442.684,-259.477 451.448,-253.523 440.884,-252.712 442.684,-259.477"/>
</g>
<!-- Node22 -->
<g id="node48" class="node"><title>Node22</title>
<a xlink:href="_t_calibration_data_8h.html" target="_top" xlink:title="tree/TCalibrationData.h">
<polygon fill="white" stroke="black" points="759,-232.5 759,-253.5 877,-253.5 877,-232.5 759,-232.5"/>
<text text-anchor="middle" x="818" y="-240.5" font-family="Helvetica,sans-Serif" font-size="10.00">tree/TCalibrationData.h</text>
</a>
</g>
<!-- Node1&#45;&gt;Node22 -->
<g id="edge52" class="edge"><title>Node1&#45;&gt;Node22</title>
<path fill="none" stroke="midnightblue" d="M339.011,-293.975C442.683,-282.942 642.731,-261.652 748.512,-250.395"/>
<polygon fill="midnightblue" stroke="midnightblue" points="749.185,-253.843 758.759,-249.305 748.445,-246.883 749.185,-253.843"/>
</g>
<!-- Node6 -->
<g id="node11" class="node"><title>Node6</title>
<a xlink:href="_t_i_d_8h.html" target="_top" xlink:title="TID.h">
<polygon fill="white" stroke="black" points="470.5,-174.5 470.5,-195.5 511.5,-195.5 511.5,-174.5 470.5,-174.5"/>
<text text-anchor="middle" x="491" y="-182.5" font-family="Helvetica,sans-Serif" font-size="10.00">TID.h</text>
</a>
</g>
<!-- Node5&#45;&gt;Node6 -->
<g id="edge10" class="edge"><title>Node5&#45;&gt;Node6</title>
<path fill="none" stroke="midnightblue" d="M491,-232.362C491,-224.922 491,-214.743 491,-205.728"/>
<polygon fill="midnightblue" stroke="midnightblue" points="494.5,-205.571 491,-195.571 487.5,-205.571 494.5,-205.571"/>
</g>
<!-- Node7 -->
<g id="node13" class="node"><title>Node7</title>
<polygon fill="white" stroke="#bfbfbf" points="90,-116.5 90,-137.5 146,-137.5 146,-116.5 90,-116.5"/>
<text text-anchor="middle" x="118" y="-124.5" font-family="Helvetica,sans-Serif" font-size="10.00">Rtypes.h</text>
</g>
<!-- Node5&#45;&gt;Node7 -->
<g id="edge46" class="edge"><title>Node5&#45;&gt;Node7</title>
<path fill="none" stroke="midnightblue" d="M456.91,-232.398C387.174,-210.711 228.676,-161.419 155.863,-138.775"/>
<polygon fill="midnightblue" stroke="midnightblue" points="156.764,-135.39 146.175,-135.762 154.685,-142.074 156.764,-135.39"/>
</g>
<!-- Node16 -->
<g id="node32" class="node"><title>Node16</title>
<polygon fill="white" stroke="#bfbfbf" points="602.5,-58.5 602.5,-79.5 643.5,-79.5 643.5,-58.5 602.5,-58.5"/>
<text text-anchor="middle" x="623" y="-66.5" font-family="Helvetica,sans-Serif" font-size="10.00">ctime</text>
</g>
<!-- Node5&#45;&gt;Node16 -->
<g id="edge50" class="edge"><title>Node5&#45;&gt;Node16</title>
<path fill="none" stroke="midnightblue" d="M534.716,-232.48C604.313,-214.734 735.114,-176.958 761,-138 788.69,-96.3256 702.499,-78.7316 653.874,-72.2646"/>
<polygon fill="midnightblue" stroke="midnightblue" points="654.193,-68.7773 643.837,-71.0156 653.328,-75.7238 654.193,-68.7773"/>
</g>
<!-- Node21 -->
<g id="node42" class="node"><title>Node21</title>
<polygon fill="white" stroke="#bfbfbf" points="702,-116.5 702,-137.5 752,-137.5 752,-116.5 702,-116.5"/>
<text text-anchor="middle" x="727" y="-124.5" font-family="Helvetica,sans-Serif" font-size="10.00">iomanip</text>
</g>
<!-- Node5&#45;&gt;Node21 -->
<g id="edge48" class="edge"><title>Node5&#45;&gt;Node21</title>
<path fill="none" stroke="midnightblue" d="M512.779,-232.295C555.035,-211.525 648.229,-165.718 696.572,-141.956"/>
<polygon fill="midnightblue" stroke="midnightblue" points="698.184,-145.064 705.614,-137.512 695.096,-138.782 698.184,-145.064"/>
</g>
<!-- Node6&#45;&gt;Node7 -->
<g id="edge12" class="edge"><title>Node6&#45;&gt;Node7</title>
<path fill="none" stroke="midnightblue" d="M470.356,-183.2C418.868,-178.483 280.549,-164.41 156.235,-138.02"/>
<polygon fill="midnightblue" stroke="midnightblue" points="156.682,-134.536 146.169,-135.849 155.206,-141.378 156.682,-134.536"/>
</g>
<!-- Node8 -->
<g id="node15" class="node"><title>Node8</title>
<a xlink:href="printable_8h.html" target="_top" xlink:title="base/printable.h">
<polygon fill="white" stroke="black" points="164,-116.5 164,-137.5 250,-137.5 250,-116.5 164,-116.5"/>
<text text-anchor="middle" x="207" y="-124.5" font-family="Helvetica,sans-Serif" font-size="10.00">base/printable.h</text>
</a>
</g>
<!-- Node6&#45;&gt;Node8 -->
<g id="edge14" class="edge"><title>Node6&#45;&gt;Node8</title>
<path fill="none" stroke="midnightblue" d="M470.191,-180.847C431.116,-173.034 343.855,-155.525 260.058,-138.208"/>
<polygon fill="midnightblue" stroke="midnightblue" points="260.626,-134.751 250.124,-136.152 259.208,-141.606 260.626,-134.751"/>
</g>
<!-- Node10 -->
<g id="node20" class="node"><title>Node10</title>
<a xlink:href="time_8h.html" target="_top" xlink:title="base/std_ext/time.h">
<polygon fill="white" stroke="black" points="267.5,-116.5 267.5,-137.5 370.5,-137.5 370.5,-116.5 267.5,-116.5"/>
<text text-anchor="middle" x="319" y="-124.5" font-family="Helvetica,sans-Serif" font-size="10.00">base/std_ext/time.h</text>
</a>
</g>
<!-- Node6&#45;&gt;Node10 -->
<g id="edge20" class="edge"><title>Node6&#45;&gt;Node10</title>
<path fill="none" stroke="midnightblue" d="M470.253,-178.004C443.091,-168.845 394.864,-152.582 360.16,-140.88"/>
<polygon fill="midnightblue" stroke="midnightblue" points="360.906,-137.437 350.312,-137.559 358.669,-144.07 360.906,-137.437"/>
</g>
<!-- Node6&#45;&gt;Node16 -->
<g id="edge44" class="edge"><title>Node6&#45;&gt;Node16</title>
<path fill="none" stroke="midnightblue" d="M470.094,-176.903C441.879,-164.79 397.285,-140.719 417,-116 438.612,-88.9012 540.575,-76.1989 592.48,-71.4053"/>
<polygon fill="midnightblue" stroke="midnightblue" points="592.799,-74.8908 602.453,-70.525 592.184,-67.918 592.799,-74.8908"/>
</g>
<!-- Node17 -->
<g id="node34" class="node"><title>Node17</title>
<polygon fill="white" stroke="#bfbfbf" points="426,-116.5 426,-137.5 488,-137.5 488,-116.5 426,-116.5"/>
<text text-anchor="middle" x="457" y="-124.5" font-family="Helvetica,sans-Serif" font-size="10.00">type_traits</text>
</g>
<!-- Node6&#45;&gt;Node17 -->
<g id="edge34" class="edge"><title>Node6&#45;&gt;Node17</title>
<path fill="none" stroke="midnightblue" d="M484.764,-174.362C480.163,-166.513 473.775,-155.616 468.286,-146.253"/>
<polygon fill="midnightblue" stroke="midnightblue" points="471.273,-144.428 463.197,-137.571 465.234,-147.968 471.273,-144.428"/>
</g>
<!-- Node18 -->
<g id="node36" class="node"><title>Node18</title>
<polygon fill="white" stroke="#bfbfbf" points="506,-116.5 506,-137.5 544,-137.5 544,-116.5 506,-116.5"/>
<text text-anchor="middle" x="525" y="-124.5" font-family="Helvetica,sans-Serif" font-size="10.00">tuple</text>
</g>
<!-- Node6&#45;&gt;Node18 -->
<g id="edge36" class="edge"><title>Node6&#45;&gt;Node18</title>
<path fill="none" stroke="midnightblue" d="M497.236,-174.362C501.837,-166.513 508.225,-155.616 513.714,-146.253"/>
<polygon fill="midnightblue" stroke="midnightblue" points="516.766,-147.968 518.803,-137.571 510.727,-144.428 516.766,-147.968"/>
</g>
<!-- Node19 -->
<g id="node38" class="node"><title>Node19</title>
<polygon fill="white" stroke="#bfbfbf" points="562,-116.5 562,-137.5 608,-137.5 608,-116.5 562,-116.5"/>
<text text-anchor="middle" x="585" y="-124.5" font-family="Helvetica,sans-Serif" font-size="10.00">cstdint</text>
</g>
<!-- Node6&#45;&gt;Node19 -->
<g id="edge38" class="edge"><title>Node6&#45;&gt;Node19</title>
<path fill="none" stroke="midnightblue" d="M508.241,-174.362C522.552,-165.532 543.115,-152.844 559.357,-142.822"/>
<polygon fill="midnightblue" stroke="midnightblue" points="561.196,-145.8 567.868,-137.571 557.52,-139.843 561.196,-145.8"/>
</g>
<!-- Node20 -->
<g id="node40" class="node"><title>Node20</title>
<polygon fill="white" stroke="#bfbfbf" points="625.5,-116.5 625.5,-137.5 684.5,-137.5 684.5,-116.5 625.5,-116.5"/>
<text text-anchor="middle" x="655" y="-124.5" font-family="Helvetica,sans-Serif" font-size="10.00">stdexcept</text>
</g>
<!-- Node6&#45;&gt;Node20 -->
<g id="edge40" class="edge"><title>Node6&#45;&gt;Node20</title>
<path fill="none" stroke="midnightblue" d="M511.771,-177.654C537.782,-168.455 582.89,-152.502 615.546,-140.953"/>
<polygon fill="midnightblue" stroke="midnightblue" points="616.985,-144.157 625.246,-137.523 614.651,-137.557 616.985,-144.157"/>
</g>
<!-- Node6&#45;&gt;Node21 -->
<g id="edge42" class="edge"><title>Node6&#45;&gt;Node21</title>
<path fill="none" stroke="midnightblue" d="M511.501,-180.828C546.511,-173.576 620.233,-157.756 691.748,-138.192"/>
<polygon fill="midnightblue" stroke="midnightblue" points="693.115,-141.446 701.821,-135.407 691.249,-134.699 693.115,-141.446"/>
</g>
<!-- Node8&#45;&gt;Node3 -->
<g id="edge16" class="edge"><title>Node8&#45;&gt;Node3</title>
<path fill="none" stroke="midnightblue" d="M187.741,-116.362C171.534,-107.409 148.147,-94.4908 129.891,-84.4064"/>
<polygon fill="midnightblue" stroke="midnightblue" points="131.582,-81.3422 121.137,-79.5707 128.198,-87.4696 131.582,-81.3422"/>
</g>
<!-- Node9 -->
<g id="node18" class="node"><title>Node9</title>
<polygon fill="white" stroke="#bfbfbf" points="181,-58.5 181,-79.5 233,-79.5 233,-58.5 181,-58.5"/>
<text text-anchor="middle" x="207" y="-66.5" font-family="Helvetica,sans-Serif" font-size="10.00">ostream</text>
</g>
<!-- Node8&#45;&gt;Node9 -->
<g id="edge18" class="edge"><title>Node8&#45;&gt;Node9</title>
<path fill="none" stroke="midnightblue" d="M207,-116.362C207,-108.922 207,-98.7427 207,-89.7276"/>
<polygon fill="midnightblue" stroke="midnightblue" points="210.5,-89.5706 207,-79.5707 203.5,-89.5707 210.5,-89.5706"/>
</g>
<!-- Node11 -->
<g id="node22" class="node"><title>Node11</title>
<a xlink:href="string_8h.html" target="_top" xlink:title="base/std_ext/string.h">
<polygon fill="white" stroke="black" points="265,-58.5 265,-79.5 373,-79.5 373,-58.5 265,-58.5"/>
<text text-anchor="middle" x="319" y="-66.5" font-family="Helvetica,sans-Serif" font-size="10.00">base/std_ext/string.h</text>
</a>
</g>
<!-- Node10&#45;&gt;Node11 -->
<g id="edge22" class="edge"><title>Node10&#45;&gt;Node11</title>
<path fill="none" stroke="midnightblue" d="M319,-116.362C319,-108.922 319,-98.7427 319,-89.7276"/>
<polygon fill="midnightblue" stroke="midnightblue" points="322.5,-89.5706 319,-79.5707 315.5,-89.5707 322.5,-89.5706"/>
</g>
<!-- Node15 -->
<g id="node30" class="node"><title>Node15</title>
<polygon fill="white" stroke="#bfbfbf" points="391,-58.5 391,-79.5 437,-79.5 437,-58.5 391,-58.5"/>
<text text-anchor="middle" x="414" y="-66.5" font-family="Helvetica,sans-Serif" font-size="10.00">cstring</text>
</g>
<!-- Node10&#45;&gt;Node15 -->
<g id="edge30" class="edge"><title>Node10&#45;&gt;Node15</title>
<path fill="none" stroke="midnightblue" d="M336.424,-116.362C350.887,-107.532 371.669,-94.844 388.084,-84.8224"/>
<polygon fill="midnightblue" stroke="midnightblue" points="389.975,-87.7688 396.686,-79.5707 386.327,-81.7943 389.975,-87.7688"/>
</g>
<!-- Node10&#45;&gt;Node16 -->
<g id="edge32" class="edge"><title>Node10&#45;&gt;Node16</title>
<path fill="none" stroke="midnightblue" d="M370.569,-117.161C434.279,-105.006 540.595,-84.722 592.549,-74.8097"/>
<polygon fill="midnightblue" stroke="midnightblue" points="593.315,-78.2269 602.481,-72.9147 592.003,-71.3509 593.315,-78.2269"/>
</g>
<!-- Node12 -->
<g id="node24" class="node"><title>Node12</title>
<polygon fill="white" stroke="#bfbfbf" points="797.5,-0.5 797.5,-21.5 838.5,-21.5 838.5,-0.5 797.5,-0.5"/>
<text text-anchor="middle" x="818" y="-8.5" font-family="Helvetica,sans-Serif" font-size="10.00">string</text>
</g>
<!-- Node11&#45;&gt;Node12 -->
<g id="edge24" class="edge"><title>Node11&#45;&gt;Node12</title>
<path fill="none" stroke="midnightblue" d="M373.26,-59.2937C376.214,-58.8379 379.142,-58.4032 382,-58 533.299,-36.6598 715.341,-19.893 786.932,-13.6448"/>
<polygon fill="midnightblue" stroke="midnightblue" points="787.405,-17.117 797.065,-12.7665 786.8,-10.1432 787.405,-17.117"/>
</g>
<!-- Node13 -->
<g id="node26" class="node"><title>Node13</title>
<polygon fill="white" stroke="#bfbfbf" points="257,-0.5 257,-21.5 309,-21.5 309,-0.5 257,-0.5"/>
<text text-anchor="middle" x="283" y="-8.5" font-family="Helvetica,sans-Serif" font-size="10.00">sstream</text>
</g>
<!-- Node11&#45;&gt;Node13 -->
<g id="edge26" class="edge"><title>Node11&#45;&gt;Node13</title>
<path fill="none" stroke="midnightblue" d="M312.397,-58.3619C307.525,-50.5131 300.762,-39.6159 294.95,-30.2527"/>
<polygon fill="midnightblue" stroke="midnightblue" points="297.809,-28.2213 289.561,-21.5707 291.861,-31.9129 297.809,-28.2213"/>
</g>
<!-- Node14 -->
<g id="node28" class="node"><title>Node14</title>
<polygon fill="white" stroke="#bfbfbf" points="327,-0.5 327,-21.5 383,-21.5 383,-0.5 327,-0.5"/>
<text text-anchor="middle" x="355" y="-8.5" font-family="Helvetica,sans-Serif" font-size="10.00">algorithm</text>
</g>
<!-- Node11&#45;&gt;Node14 -->
<g id="edge28" class="edge"><title>Node11&#45;&gt;Node14</title>
<path fill="none" stroke="midnightblue" d="M325.603,-58.3619C330.475,-50.5131 337.238,-39.6159 343.05,-30.2527"/>
<polygon fill="midnightblue" stroke="midnightblue" points="346.139,-31.9129 348.439,-21.5707 340.191,-28.2213 346.139,-31.9129"/>
</g>
<!-- Node22&#45;&gt;Node6 -->
<g id="edge54" class="edge"><title>Node22&#45;&gt;Node6</title>
<path fill="none" stroke="midnightblue" d="M758.783,-232.497C689.075,-220.133 575.962,-200.07 521.807,-190.464"/>
<polygon fill="midnightblue" stroke="midnightblue" points="522.25,-186.988 511.793,-188.688 521.028,-193.881 522.25,-186.988"/>
</g>
<!-- Node22&#45;&gt;Node12 -->
<g id="edge56" class="edge"><title>Node22&#45;&gt;Node12</title>
<path fill="none" stroke="midnightblue" d="M818,-232.429C818,-196.648 818,-79.6628 818,-31.7481"/>
<polygon fill="midnightblue" stroke="midnightblue" points="821.5,-31.6335 818,-21.6335 814.5,-31.6335 821.5,-31.6335"/>
</g>
<!-- Node22&#45;&gt;Node16 -->
<g id="edge58" class="edge"><title>Node22&#45;&gt;Node16</title>
<path fill="none" stroke="midnightblue" d="M817.732,-232.456C816.538,-208.327 810.193,-148.664 777,-116 759.488,-98.7665 693.41,-83.0388 653.723,-74.8751"/>
<polygon fill="midnightblue" stroke="midnightblue" points="654.263,-71.4137 643.769,-72.872 652.882,-78.2761 654.263,-71.4137"/>
</g>
<!-- Node23 -->
<g id="node53" class="node"><title>Node23</title>
<a xlink:href="_git_info_8h.html" target="_top" xlink:title="base/GitInfo.h">
<polygon fill="white" stroke="black" points="884,-174.5 884,-195.5 962,-195.5 962,-174.5 884,-174.5"/>
<text text-anchor="middle" x="923" y="-182.5" font-family="Helvetica,sans-Serif" font-size="10.00">base/GitInfo.h</text>
</a>
</g>
<!-- Node22&#45;&gt;Node23 -->
<g id="edge60" class="edge"><title>Node22&#45;&gt;Node23</title>
<path fill="none" stroke="midnightblue" d="M837.259,-232.362C853.466,-223.409 876.853,-210.491 895.109,-200.406"/>
<polygon fill="midnightblue" stroke="midnightblue" points="896.802,-203.47 903.863,-195.571 893.418,-197.342 896.802,-203.47"/>
</g>
<!-- Node23&#45;&gt;Node12 -->
<g id="edge62" class="edge"><title>Node23&#45;&gt;Node12</title>
<path fill="none" stroke="midnightblue" d="M916.59,-174.377C899.423,-145.93 852.206,-67.6838 829.929,-30.7689"/>
<polygon fill="midnightblue" stroke="midnightblue" points="832.758,-28.6813 824.594,-21.9277 826.764,-32.298 832.758,-28.6813"/>
</g>
</g>
</svg>
