<?xml version="1.0" encoding="UTF-8" standalone="no"?>
<!DOCTYPE svg PUBLIC "-//W3C//DTD SVG 1.1//EN"
 "http://www.w3.org/Graphics/SVG/1.1/DTD/svg11.dtd">
<!-- Generated by graphviz version 2.26.3 (20100126.1600)
 -->
<!-- Title: src/calibration/DataManager.h Pages: 1 -->
<svg width="1150pt" height="246pt"
 viewBox="0.00 0.00 1150.00 246.00" xmlns="http://www.w3.org/2000/svg" xmlns:xlink="http://www.w3.org/1999/xlink">
<g id="graph1" class="graph" transform="scale(1 1) rotate(0) translate(4 242)">
<title>src/calibration/DataManager.h</title>
<polygon fill="white" stroke="white" points="-4,5 -4,-242 1147,-242 1147,5 -4,5"/>
<!-- Node1 -->
<g id="node1" class="node"><title>Node1</title>
<polygon fill="#bfbfbf" stroke="black" points="487.5,-216.5 487.5,-237.5 634.5,-237.5 634.5,-216.5 487.5,-216.5"/>
<text text-anchor="middle" x="561" y="-224.5" font-family="Helvetica,sans-Serif" font-size="10.00">src/calibration/DataManager.h</text>
</g>
<!-- Node2 -->
<g id="node3" class="node"><title>Node2</title>
<a xlink:href="_data_manager_8cc.html" target="_top" xlink:title="src/calibration/DataManager.cc">
<polygon fill="white" stroke="black" points="0,-151.5 0,-172.5 152,-172.5 152,-151.5 0,-151.5"/>
<text text-anchor="middle" x="76" y="-159.5" font-family="Helvetica,sans-Serif" font-size="10.00">src/calibration/DataManager.cc</text>
</a>
</g>
<!-- Node1&#45;&gt;Node2 -->
<g id="edge2" class="edge"><title>Node1&#45;&gt;Node2</title>
<path fill="none" stroke="midnightblue" d="M477.201,-219.411C396.052,-211.53 269.68,-197.854 161,-180 148.348,-177.922 134.727,-175.239 122.175,-172.582"/>
<polygon fill="midnightblue" stroke="midnightblue" points="477.071,-222.914 487.36,-220.39 477.742,-215.947 477.071,-222.914"/>
</g>
<!-- Node3 -->
<g id="node5" class="node"><title>Node3</title>
<a xlink:href="_editor_8h.html" target="_top" xlink:title="src/calibration/Editor.h">
<polygon fill="white" stroke="black" points="170,-151.5 170,-172.5 284,-172.5 284,-151.5 170,-151.5"/>
<text text-anchor="middle" x="227" y="-159.5" font-family="Helvetica,sans-Serif" font-size="10.00">src/calibration/Editor.h</text>
</a>
</g>
<!-- Node1&#45;&gt;Node3 -->
<g id="edge4" class="edge"><title>Node1&#45;&gt;Node3</title>
<path fill="none" stroke="midnightblue" d="M480.58,-214.892C427.152,-206.359 355.581,-193.99 293,-180 283.264,-177.824 272.811,-175.137 263.16,-172.51"/>
<polygon fill="midnightblue" stroke="midnightblue" points="480.252,-218.384 490.677,-216.494 481.349,-211.47 480.252,-218.384"/>
</g>
<!-- Node8 -->
<g id="node16" class="node"><title>Node8</title>
<a xlink:href="_c_b___time_walk_8cc.html" target="_top" xlink:title="src/calibration/modules\l/CB_TimeWalk.cc">
<polygon fill="white" stroke="black" points="301.5,-145 301.5,-179 418.5,-179 418.5,-145 301.5,-145"/>
<text text-anchor="start" x="309.5" y="-166" font-family="Helvetica,sans-Serif" font-size="10.00">src/calibration/modules</text>
<text text-anchor="middle" x="360" y="-153" font-family="Helvetica,sans-Serif" font-size="10.00">/CB_TimeWalk.cc</text>
</a>
</g>
<!-- Node1&#45;&gt;Node8 -->
<g id="edge16" class="edge"><title>Node1&#45;&gt;Node8</title>
<path fill="none" stroke="midnightblue" d="M518.658,-213.307C487.802,-203.329 445.795,-189.745 412.756,-179.06"/>
<polygon fill="midnightblue" stroke="midnightblue" points="517.667,-216.665 528.259,-216.412 519.821,-210.005 517.667,-216.665"/>
</g>
<!-- Node9 -->
<g id="node18" class="node"><title>Node9</title>
<a xlink:href="_energy_8cc.html" target="_top" xlink:title="src/calibration/modules\l/Energy.cc">
<polygon fill="white" stroke="black" points="435.5,-145 435.5,-179 552.5,-179 552.5,-145 435.5,-145"/>
<text text-anchor="start" x="443.5" y="-166" font-family="Helvetica,sans-Serif" font-size="10.00">src/calibration/modules</text>
<text text-anchor="middle" x="494" y="-153" font-family="Helvetica,sans-Serif" font-size="10.00">/Energy.cc</text>
</a>
</g>
<!-- Node1&#45;&gt;Node9 -->
<g id="edge18" class="edge"><title>Node1&#45;&gt;Node9</title>
<path fill="none" stroke="midnightblue" d="M542.721,-209.267C533.044,-199.879 521.215,-188.403 511.636,-179.11"/>
<polygon fill="midnightblue" stroke="midnightblue" points="540.322,-211.816 549.936,-216.267 545.196,-206.791 540.322,-211.816"/>
</g>
<!-- Node10 -->
<g id="node20" class="node"><title>Node10</title>
<a xlink:href="_p_i_d___phi_angle_8cc.html" target="_top" xlink:title="src/calibration/modules\l/PID_PhiAngle.cc">
<polygon fill="white" stroke="black" points="569.5,-145 569.5,-179 686.5,-179 686.5,-145 569.5,-145"/>
<text text-anchor="start" x="577.5" y="-166" font-family="Helvetica,sans-Serif" font-size="10.00">src/calibration/modules</text>
<text text-anchor="middle" x="628" y="-153" font-family="Helvetica,sans-Serif" font-size="10.00">/PID_PhiAngle.cc</text>
</a>
</g>
<!-- Node1&#45;&gt;Node10 -->
<g id="edge20" class="edge"><title>Node1&#45;&gt;Node10</title>
<path fill="none" stroke="midnightblue" d="M579.279,-209.267C588.956,-199.879 600.785,-188.403 610.364,-179.11"/>
<polygon fill="midnightblue" stroke="midnightblue" points="576.804,-206.791 572.064,-216.267 581.678,-211.816 576.804,-206.791"/>
</g>
<!-- Node11 -->
<g id="node22" class="node"><title>Node11</title>
<a xlink:href="_time_8cc.html" target="_top" xlink:title="src/calibration/modules\l/Time.cc">
<polygon fill="white" stroke="black" points="703.5,-145 703.5,-179 820.5,-179 820.5,-145 703.5,-145"/>
<text text-anchor="start" x="711.5" y="-166" font-family="Helvetica,sans-Serif" font-size="10.00">src/calibration/modules</text>
<text text-anchor="middle" x="762" y="-153" font-family="Helvetica,sans-Serif" font-size="10.00">/Time.cc</text>
</a>
</g>
<!-- Node1&#45;&gt;Node11 -->
<g id="edge22" class="edge"><title>Node1&#45;&gt;Node11</title>
<path fill="none" stroke="midnightblue" d="M603.342,-213.307C634.198,-203.329 676.205,-189.745 709.244,-179.06"/>
<polygon fill="midnightblue" stroke="midnightblue" points="602.179,-210.005 593.741,-216.412 604.333,-216.665 602.179,-210.005"/>
</g>
<!-- Node12 -->
<g id="node24" class="node"><title>Node12</title>
<a xlink:href="_setup_8h.html" target="_top" xlink:title="src/expconfig/setups\l/Setup.h">
<polygon fill="white" stroke="black" points="837.5,-145 837.5,-179 944.5,-179 944.5,-145 837.5,-145"/>
<text text-anchor="start" x="845.5" y="-166" font-family="Helvetica,sans-Serif" font-size="10.00">src/expconfig/setups</text>
<text text-anchor="middle" x="891" y="-153" font-family="Helvetica,sans-Serif" font-size="10.00">/Setup.h</text>
</a>
</g>
<!-- Node1&#45;&gt;Node12 -->
<g id="edge24" class="edge"><title>Node1&#45;&gt;Node12</title>
<path fill="none" stroke="midnightblue" d="M643.447,-214.923C696.69,-206.538 767.291,-194.324 829,-180 831.73,-179.366 834.517,-178.685 837.326,-177.971"/>
<polygon fill="midnightblue" stroke="midnightblue" points="642.716,-211.494 633.376,-216.496 643.796,-218.411 642.716,-211.494"/>
</g>
<!-- Node20 -->
<g id="node40" class="node"><title>Node20</title>
<a xlink:href="_test_data_manager_8cc.html" target="_top" xlink:title="test/calibration/TestData\lManager.cc">
<polygon fill="white" stroke="black" points="962,-145 962,-179 1086,-179 1086,-145 962,-145"/>
<text text-anchor="start" x="970" y="-166" font-family="Helvetica,sans-Serif" font-size="10.00">test/calibration/TestData</text>
<text text-anchor="middle" x="1024" y="-153" font-family="Helvetica,sans-Serif" font-size="10.00">Manager.cc</text>
</a>
</g>
<!-- Node1&#45;&gt;Node20 -->
<g id="edge40" class="edge"><title>Node1&#45;&gt;Node20</title>
<path fill="none" stroke="midnightblue" d="M644.743,-220.112C724.435,-212.815 847.501,-199.613 953,-180 955.875,-179.465 958.807,-178.882 961.762,-178.262"/>
<polygon fill="midnightblue" stroke="midnightblue" points="644.404,-216.628 634.76,-221.016 645.035,-223.6 644.404,-216.628"/>
</g>
<!-- Node4 -->
<g id="node7" class="node"><title>Node4</title>
<a xlink:href="_editor_8cc.html" target="_top" xlink:title="src/calibration/Editor.cc">
<polygon fill="white" stroke="black" points="44.5,-79.5 44.5,-100.5 163.5,-100.5 163.5,-79.5 44.5,-79.5"/>
<text text-anchor="middle" x="104" y="-87.5" font-family="Helvetica,sans-Serif" font-size="10.00">src/calibration/Editor.cc</text>
</a>
</g>
<!-- Node3&#45;&gt;Node4 -->
<g id="edge6" class="edge"><title>Node3&#45;&gt;Node4</title>
<path fill="none" stroke="midnightblue" d="M200.036,-146.216C176.432,-132.399 142.785,-112.703 122.224,-100.667"/>
<polygon fill="midnightblue" stroke="midnightblue" points="198.453,-149.345 208.851,-151.376 201.989,-143.304 198.453,-149.345"/>
</g>
<!-- Node5 -->
<g id="node9" class="node"><title>Node5</title>
<a xlink:href="_a_c_e_canvas_8h.html" target="_top" xlink:title="src/calibration/gui\l/ACECanvas.h">
<polygon fill="white" stroke="black" points="180.5,-73 180.5,-107 273.5,-107 273.5,-73 180.5,-73"/>
<text text-anchor="start" x="188.5" y="-94" font-family="Helvetica,sans-Serif" font-size="10.00">src/calibration/gui</text>
<text text-anchor="middle" x="227" y="-81" font-family="Helvetica,sans-Serif" font-size="10.00">/ACECanvas.h</text>
</a>
</g>
<!-- Node3&#45;&gt;Node5 -->
<g id="edge8" class="edge"><title>Node3&#45;&gt;Node5</title>
<path fill="none" stroke="midnightblue" d="M227,-141.132C227,-130.326 227,-117.296 227,-107.094"/>
<polygon fill="midnightblue" stroke="midnightblue" points="223.5,-141.376 227,-151.376 230.5,-141.376 223.5,-141.376"/>
</g>
<!-- Node7 -->
<g id="node13" class="node"><title>Node7</title>
<a xlink:href="_a_c_e_canvas_8cc.html" target="_top" xlink:title="src/calibration/gui\l/ACECanvas.cc">
<polygon fill="white" stroke="black" points="254.5,-1 254.5,-35 347.5,-35 347.5,-1 254.5,-1"/>
<text text-anchor="start" x="262.5" y="-22" font-family="Helvetica,sans-Serif" font-size="10.00">src/calibration/gui</text>
<text text-anchor="middle" x="301" y="-9" font-family="Helvetica,sans-Serif" font-size="10.00">/ACECanvas.cc</text>
</a>
</g>
<!-- Node3&#45;&gt;Node7 -->
<g id="edge14" class="edge"><title>Node3&#45;&gt;Node7</title>
<path fill="none" stroke="midnightblue" d="M249.896,-144.945C261.229,-135.318 274.134,-122.353 282,-108 294.663,-84.8928 298.896,-54.1844 300.305,-35.2724"/>
<polygon fill="midnightblue" stroke="midnightblue" points="247.578,-142.318 242.017,-151.336 251.988,-147.755 247.578,-142.318"/>
</g>
<!-- Node6 -->
<g id="node11" class="node"><title>Node6</title>
<a xlink:href="_ant-calib-editor_8cc.html" target="_top" xlink:title="progs/Ant&#45;calib&#45;editor.cc">
<polygon fill="white" stroke="black" points="115,-7.5 115,-28.5 237,-28.5 237,-7.5 115,-7.5"/>
<text text-anchor="middle" x="176" y="-15.5" font-family="Helvetica,sans-Serif" font-size="10.00">progs/Ant&#45;calib&#45;editor.cc</text>
</a>
</g>
<!-- Node5&#45;&gt;Node6 -->
<g id="edge10" class="edge"><title>Node5&#45;&gt;Node6</title>
<path fill="none" stroke="midnightblue" d="M208.905,-64.4548C200.265,-52.2566 190.383,-38.3048 183.722,-28.901"/>
<polygon fill="midnightblue" stroke="midnightblue" points="206.277,-66.7998 214.914,-72.937 211.99,-62.7537 206.277,-66.7998"/>
</g>
<!-- Node5&#45;&gt;Node7 -->
<g id="edge12" class="edge"><title>Node5&#45;&gt;Node7</title>
<path fill="none" stroke="midnightblue" d="M251.761,-65.9083C262.105,-55.8438 273.887,-44.3799 283.332,-35.19"/>
<polygon fill="midnightblue" stroke="midnightblue" points="249.264,-63.4549 244.537,-72.937 254.145,-68.472 249.264,-63.4549"/>
</g>
<!-- Node13 -->
<g id="node26" class="node"><title>Node13</title>
<a xlink:href="_exp_config_8cc.html" target="_top" xlink:title="src/expconfig/ExpConfig.cc">
<polygon fill="white" stroke="black" points="617.5,-79.5 617.5,-100.5 754.5,-100.5 754.5,-79.5 617.5,-79.5"/>
<text text-anchor="middle" x="686" y="-87.5" font-family="Helvetica,sans-Serif" font-size="10.00">src/expconfig/ExpConfig.cc</text>
</a>
</g>
<!-- Node12&#45;&gt;Node13 -->
<g id="edge26" class="edge"><title>Node12&#45;&gt;Node13</title>
<path fill="none" stroke="midnightblue" d="M832.98,-141.622C794.933,-128.259 746.741,-111.333 716.13,-100.582"/>
<polygon fill="midnightblue" stroke="midnightblue" points="831.823,-144.925 842.418,-144.937 834.143,-138.321 831.823,-144.925"/>
</g>
<!-- Node14 -->
<g id="node28" class="node"><title>Node14</title>
<a xlink:href="_setup__2014___e_p_t_8h.html" target="_top" xlink:title="src/expconfig/setups\l/Setup_2014_EPT.h">
<polygon fill="white" stroke="black" points="771.5,-73 771.5,-107 878.5,-107 878.5,-73 771.5,-73"/>
<text text-anchor="start" x="779.5" y="-94" font-family="Helvetica,sans-Serif" font-size="10.00">src/expconfig/setups</text>
<text text-anchor="middle" x="825" y="-81" font-family="Helvetica,sans-Serif" font-size="10.00">/Setup_2014_EPT.h</text>
</a>
</g>
<!-- Node12&#45;&gt;Node14 -->
<g id="edge28" class="edge"><title>Node12&#45;&gt;Node14</title>
<path fill="none" stroke="midnightblue" d="M868.43,-137.379C859.407,-127.535 849.224,-116.426 840.987,-107.441"/>
<polygon fill="midnightblue" stroke="midnightblue" points="866.022,-139.93 875.359,-144.937 871.182,-135.2 866.022,-139.93"/>
</g>
<!-- Node18 -->
<g id="node36" class="node"><title>Node18</title>
<a xlink:href="_setup__2015__dummy_8cc.html" target="_top" xlink:title="src/expconfig/setups\l/Setup_2015_dummy.cc">
<polygon fill="white" stroke="black" points="896,-73 896,-107 1018,-107 1018,-73 896,-73"/>
<text text-anchor="start" x="904" y="-94" font-family="Helvetica,sans-Serif" font-size="10.00">src/expconfig/setups</text>
<text text-anchor="middle" x="957" y="-81" font-family="Helvetica,sans-Serif" font-size="10.00">/Setup_2015_dummy.cc</text>
</a>
</g>
<!-- Node12&#45;&gt;Node18 -->
<g id="edge36" class="edge"><title>Node12&#45;&gt;Node18</title>
<path fill="none" stroke="midnightblue" d="M913.57,-137.379C922.593,-127.535 932.776,-116.426 941.013,-107.441"/>
<polygon fill="midnightblue" stroke="midnightblue" points="910.818,-135.2 906.641,-144.937 915.978,-139.93 910.818,-135.2"/>
</g>
<!-- Node19 -->
<g id="node38" class="node"><title>Node19</title>
<a xlink:href="_setup_registry_8cc.html" target="_top" xlink:title="src/expconfig/setups\l/SetupRegistry.cc">
<polygon fill="white" stroke="black" points="1035.5,-73 1035.5,-107 1142.5,-107 1142.5,-73 1035.5,-73"/>
<text text-anchor="start" x="1043.5" y="-94" font-family="Helvetica,sans-Serif" font-size="10.00">src/expconfig/setups</text>
<text text-anchor="middle" x="1089" y="-81" font-family="Helvetica,sans-Serif" font-size="10.00">/SetupRegistry.cc</text>
</a>
</g>
<!-- Node12&#45;&gt;Node19 -->
<g id="edge38" class="edge"><title>Node12&#45;&gt;Node19</title>
<path fill="none" stroke="midnightblue" d="M947.399,-141.491C977.335,-130.606 1013.69,-117.385 1042.07,-107.065"/>
<polygon fill="midnightblue" stroke="midnightblue" points="946.125,-138.23 937.923,-144.937 948.517,-144.809 946.125,-138.23"/>
</g>
<!-- Node15 -->
<g id="node30" class="node"><title>Node15</title>
<a xlink:href="_setup__2014__07___e_p_t___prod_8cc.html" target="_top" xlink:title="src/expconfig/setups\l/Setup_2014_07_EPT_Prod.cc">
<polygon fill="white" stroke="black" points="581.5,-1 581.5,-35 732.5,-35 732.5,-1 581.5,-1"/>
<text text-anchor="start" x="589.5" y="-22" font-family="Helvetica,sans-Serif" font-size="10.00">src/expconfig/setups</text>
<text text-anchor="middle" x="657" y="-9" font-family="Helvetica,sans-Serif" font-size="10.00">/Setup_2014_07_EPT_Prod.cc</text>
</a>
</g>
<!-- Node14&#45;&gt;Node15 -->
<g id="edge30" class="edge"><title>Node14&#45;&gt;Node15</title>
<path fill="none" stroke="midnightblue" d="M775.822,-68.9238C750.68,-58.1485 720.48,-45.2059 696.819,-35.0651"/>
<polygon fill="midnightblue" stroke="midnightblue" points="774.616,-72.2148 785.186,-72.937 777.374,-65.7807 774.616,-72.2148"/>
</g>
<!-- Node16 -->
<g id="node32" class="node"><title>Node16</title>
<a xlink:href="_setup__2014__10___e_p_t___prod_8cc.html" target="_top" xlink:title="src/expconfig/setups\l/Setup_2014_10_EPT_Prod.cc">
<polygon fill="white" stroke="black" points="749.5,-1 749.5,-35 900.5,-35 900.5,-1 749.5,-1"/>
<text text-anchor="start" x="757.5" y="-22" font-family="Helvetica,sans-Serif" font-size="10.00">src/expconfig/setups</text>
<text text-anchor="middle" x="825" y="-9" font-family="Helvetica,sans-Serif" font-size="10.00">/Setup_2014_10_EPT_Prod.cc</text>
</a>
</g>
<!-- Node14&#45;&gt;Node16 -->
<g id="edge32" class="edge"><title>Node14&#45;&gt;Node16</title>
<path fill="none" stroke="midnightblue" d="M825,-62.7193C825,-53.572 825,-43.6255 825,-35.4407"/>
<polygon fill="midnightblue" stroke="midnightblue" points="821.5,-62.937 825,-72.937 828.5,-62.937 821.5,-62.937"/>
</g>
<!-- Node17 -->
<g id="node34" class="node"><title>Node17</title>
<a xlink:href="_setup__2014__12___e_p_t___prod_8cc.html" target="_top" xlink:title="src/expconfig/setups\l/Setup_2014_12_EPT_Prod.cc">
<polygon fill="white" stroke="black" points="917.5,-1 917.5,-35 1068.5,-35 1068.5,-1 917.5,-1"/>
<text text-anchor="start" x="925.5" y="-22" font-family="Helvetica,sans-Serif" font-size="10.00">src/expconfig/setups</text>
<text text-anchor="middle" x="993" y="-9" font-family="Helvetica,sans-Serif" font-size="10.00">/Setup_2014_12_EPT_Prod.cc</text>
</a>
</g>
<!-- Node14&#45;&gt;Node17 -->
<g id="edge34" class="edge"><title>Node14&#45;&gt;Node17</title>
<path fill="none" stroke="midnightblue" d="M874.178,-68.9238C899.32,-58.1485 929.52,-45.2059 953.181,-35.0651"/>
<polygon fill="midnightblue" stroke="midnightblue" points="872.626,-65.7807 864.814,-72.937 875.384,-72.2148 872.626,-65.7807"/>
</g>
</g>
</svg>
