<?xml version="1.0" encoding="UTF-8" standalone="no"?>
<!DOCTYPE svg PUBLIC "-//W3C//DTD SVG 1.1//EN"
 "http://www.w3.org/Graphics/SVG/1.1/DTD/svg11.dtd">
<!-- Generated by graphviz version 2.26.3 (20100126.1600)
 -->
<!-- Title: src/calibration/DataBase.cc Pages: 1 -->
<svg width="1538pt" height="378pt"
 viewBox="0.00 0.00 1538.00 378.00" xmlns="http://www.w3.org/2000/svg" xmlns:xlink="http://www.w3.org/1999/xlink">
<g id="graph1" class="graph" transform="scale(1 1) rotate(0) translate(4 374)">
<title>src/calibration/DataBase.cc</title>
<polygon fill="white" stroke="white" points="-4,5 -4,-374 1535,-374 1535,5 -4,5"/>
<!-- Node1 -->
<g id="node1" class="node"><title>Node1</title>
<polygon fill="#bfbfbf" stroke="black" points="895.5,-348.5 895.5,-369.5 1032.5,-369.5 1032.5,-348.5 895.5,-348.5"/>
<text text-anchor="middle" x="964" y="-356.5" font-family="Helvetica,sans-Serif" font-size="10.00">src/calibration/DataBase.cc</text>
</g>
<!-- Node2 -->
<g id="node3" class="node"><title>Node2</title>
<a xlink:href="_data_base_8h.html" target="_top" xlink:title="DataBase.h">
<polygon fill="white" stroke="black" points="469,-290.5 469,-311.5 537,-311.5 537,-290.5 469,-290.5"/>
<text text-anchor="middle" x="503" y="-298.5" font-family="Helvetica,sans-Serif" font-size="10.00">DataBase.h</text>
</a>
</g>
<!-- Node1&#45;&gt;Node2 -->
<g id="edge2" class="edge"><title>Node1&#45;&gt;Node2</title>
<path fill="none" stroke="midnightblue" d="M895.481,-350.379C799.584,-338.314 628.049,-316.733 547.316,-306.576"/>
<polygon fill="midnightblue" stroke="midnightblue" points="547.365,-303.054 537.006,-305.278 546.491,-309.999 547.365,-303.054"/>
</g>
<!-- Node25 -->
<g id="node58" class="node"><title>Node25</title>
<a xlink:href="_wrap_t_file_8h.html" target="_top" xlink:title="base/WrapTFile.h">
<polygon fill="white" stroke="black" points="917,-290.5 917,-311.5 1011,-311.5 1011,-290.5 917,-290.5"/>
<text text-anchor="middle" x="964" y="-298.5" font-family="Helvetica,sans-Serif" font-size="10.00">base/WrapTFile.h</text>
</a>
</g>
<!-- Node1&#45;&gt;Node25 -->
<g id="edge66" class="edge"><title>Node1&#45;&gt;Node25</title>
<path fill="none" stroke="midnightblue" d="M964,-348.362C964,-340.922 964,-330.743 964,-321.728"/>
<polygon fill="midnightblue" stroke="midnightblue" points="967.5,-321.571 964,-311.571 960.5,-321.571 967.5,-321.571"/>
</g>
<!-- Node33 -->
<g id="node77" class="node"><title>Node33</title>
<a xlink:href="interval_8h.html" target="_top" xlink:title="base/interval.h">
<polygon fill="white" stroke="black" points="130,-174.5 130,-195.5 210,-195.5 210,-174.5 130,-174.5"/>
<text text-anchor="middle" x="170" y="-182.5" font-family="Helvetica,sans-Serif" font-size="10.00">base/interval.h</text>
</a>
</g>
<!-- Node1&#45;&gt;Node33 -->
<g id="edge88" class="edge"><title>Node1&#45;&gt;Node33</title>
<path fill="none" stroke="midnightblue" d="M895.447,-357.753C753.277,-354.547 430.863,-343.897 326,-312 276.107,-296.824 263.484,-288.068 224,-254 207.214,-239.517 192.038,-219.159 182.08,-204.311"/>
<polygon fill="midnightblue" stroke="midnightblue" points="184.978,-202.347 176.586,-195.88 179.113,-206.169 184.978,-202.347"/>
</g>
<!-- Node36 -->
<g id="node86" class="node"><title>Node36</title>
<a xlink:href="_logger_8h.html" target="_top" xlink:title="base/Logger.h">
<polygon fill="white" stroke="black" points="1289,-290.5 1289,-311.5 1367,-311.5 1367,-290.5 1289,-290.5"/>
<text text-anchor="middle" x="1328" y="-298.5" font-family="Helvetica,sans-Serif" font-size="10.00">base/Logger.h</text>
</a>
</g>
<!-- Node1&#45;&gt;Node36 -->
<g id="edge100" class="edge"><title>Node1&#45;&gt;Node36</title>
<path fill="none" stroke="midnightblue" d="M1032.68,-350.349C1094.61,-342.192 1188.37,-328.96 1278.88,-312.11"/>
<polygon fill="midnightblue" stroke="midnightblue" points="1279.58,-315.54 1288.76,-310.254 1278.28,-308.661 1279.58,-315.54"/>
</g>
<!-- Node38 -->
<g id="node90" class="node"><title>Node38</title>
<a xlink:href="misc_8h.html" target="_top" xlink:title="base/std_ext/misc.h">
<polygon fill="white" stroke="black" points="1166.5,-290.5 1166.5,-311.5 1271.5,-311.5 1271.5,-290.5 1166.5,-290.5"/>
<text text-anchor="middle" x="1219" y="-298.5" font-family="Helvetica,sans-Serif" font-size="10.00">base/std_ext/misc.h</text>
</a>
</g>
<!-- Node1&#45;&gt;Node38 -->
<g id="edge104" class="edge"><title>Node1&#45;&gt;Node38</title>
<path fill="none" stroke="midnightblue" d="M1010.18,-348.497C1053.1,-338.734 1117.12,-324.172 1162.96,-313.747"/>
<polygon fill="midnightblue" stroke="midnightblue" points="1163.76,-317.154 1172.73,-311.523 1162.21,-310.328 1163.76,-317.154"/>
</g>
<!-- Node40 -->
<g id="node95" class="node"><title>Node40</title>
<a xlink:href="system_8h.html" target="_top" xlink:title="base/std_ext/system.h">
<polygon fill="white" stroke="black" points="335,-290.5 335,-311.5 451,-311.5 451,-290.5 335,-290.5"/>
<text text-anchor="middle" x="393" y="-298.5" font-family="Helvetica,sans-Serif" font-size="10.00">base/std_ext/system.h</text>
</a>
</g>
<!-- Node1&#45;&gt;Node40 -->
<g id="edge110" class="edge"><title>Node1&#45;&gt;Node40</title>
<path fill="none" stroke="midnightblue" d="M895.356,-354.124C800.2,-347.026 622.621,-332.555 461.186,-312.082"/>
<polygon fill="midnightblue" stroke="midnightblue" points="461.432,-308.585 451.068,-310.788 460.544,-315.528 461.432,-308.585"/>
</g>
<!-- Node41 -->
<g id="node99" class="node"><title>Node41</title>
<polygon fill="white" stroke="#bfbfbf" points="1385,-290.5 1385,-311.5 1435,-311.5 1435,-290.5 1385,-290.5"/>
<text text-anchor="middle" x="1410" y="-298.5" font-family="Helvetica,sans-Serif" font-size="10.00">TTree.h</text>
</g>
<!-- Node1&#45;&gt;Node41 -->
<g id="edge116" class="edge"><title>Node1&#45;&gt;Node41</title>
<path fill="none" stroke="midnightblue" d="M1032.84,-355.35C1113.04,-350.16 1249.48,-338.427 1374.75,-311.923"/>
<polygon fill="midnightblue" stroke="midnightblue" points="1375.86,-315.263 1384.9,-309.737 1374.39,-308.42 1375.86,-315.263"/>
</g>
<!-- Node3 -->
<g id="node5" class="node"><title>Node3</title>
<polygon fill="white" stroke="#bfbfbf" points="345.5,-232.5 345.5,-253.5 380.5,-253.5 380.5,-232.5 345.5,-232.5"/>
<text text-anchor="middle" x="363" y="-240.5" font-family="Helvetica,sans-Serif" font-size="10.00">map</text>
</g>
<!-- Node2&#45;&gt;Node3 -->
<g id="edge4" class="edge"><title>Node2&#45;&gt;Node3</title>
<path fill="none" stroke="midnightblue" d="M477.165,-290.428C455.937,-281.724 424.857,-268.941 390.034,-254.412"/>
<polygon fill="midnightblue" stroke="midnightblue" points="391.189,-251.102 380.613,-250.477 388.491,-257.561 391.189,-251.102"/>
</g>
<!-- Node4 -->
<g id="node7" class="node"><title>Node4</title>
<polygon fill="white" stroke="#bfbfbf" points="263,-58.5 263,-79.5 307,-79.5 307,-58.5 263,-58.5"/>
<text text-anchor="middle" x="285" y="-66.5" font-family="Helvetica,sans-Serif" font-size="10.00">vector</text>
</g>
<!-- Node2&#45;&gt;Node4 -->
<g id="edge6" class="edge"><title>Node2&#45;&gt;Node4</title>
<path fill="none" stroke="midnightblue" d="M468.853,-291.966C421.878,-279.446 342.464,-257.913 337,-254 286.083,-217.536 275.62,-197.795 257,-138 251.577,-120.584 260.637,-101.406 269.863,-87.6986"/>
<polygon fill="midnightblue" stroke="midnightblue" points="272.737,-89.697 275.799,-79.5542 267.08,-85.5739 272.737,-89.697"/>
</g>
<!-- Node5 -->
<g id="node9" class="node"><title>Node5</title>
<polygon fill="white" stroke="#bfbfbf" points="397.5,-232.5 397.5,-253.5 426.5,-253.5 426.5,-232.5 397.5,-232.5"/>
<text text-anchor="middle" x="412" y="-240.5" font-family="Helvetica,sans-Serif" font-size="10.00">list</text>
</g>
<!-- Node2&#45;&gt;Node5 -->
<g id="edge8" class="edge"><title>Node2&#45;&gt;Node5</title>
<path fill="none" stroke="midnightblue" d="M486.309,-290.362C472.069,-281.286 451.433,-268.133 435.519,-257.99"/>
<polygon fill="midnightblue" stroke="midnightblue" points="437.093,-254.843 426.779,-252.419 433.33,-260.746 437.093,-254.843"/>
</g>
<!-- Node6 -->
<g id="node11" class="node"><title>Node6</title>
<a xlink:href="_t_data_record_8h.html" target="_top" xlink:title="tree/TDataRecord.h">
<polygon fill="white" stroke="black" points="597.5,-232.5 597.5,-253.5 700.5,-253.5 700.5,-232.5 597.5,-232.5"/>
<text text-anchor="middle" x="649" y="-240.5" font-family="Helvetica,sans-Serif" font-size="10.00">tree/TDataRecord.h</text>
</a>
</g>
<!-- Node2&#45;&gt;Node6 -->
<g id="edge10" class="edge"><title>Node2&#45;&gt;Node6</title>
<path fill="none" stroke="midnightblue" d="M529.439,-290.497C552.756,-281.234 586.95,-267.65 612.804,-257.379"/>
<polygon fill="midnightblue" stroke="midnightblue" points="614.263,-260.566 622.264,-253.621 611.678,-254.06 614.263,-260.566"/>
</g>
<!-- Node23 -->
<g id="node50" class="node"><title>Node23</title>
<a xlink:href="_t_calibration_data_8h.html" target="_top" xlink:title="tree/TCalibrationData.h">
<polygon fill="white" stroke="black" points="444,-232.5 444,-253.5 562,-253.5 562,-232.5 444,-232.5"/>
<text text-anchor="middle" x="503" y="-240.5" font-family="Helvetica,sans-Serif" font-size="10.00">tree/TCalibrationData.h</text>
</a>
</g>
<!-- Node2&#45;&gt;Node23 -->
<g id="edge54" class="edge"><title>Node2&#45;&gt;Node23</title>
<path fill="none" stroke="midnightblue" d="M503,-290.362C503,-282.922 503,-272.743 503,-263.728"/>
<polygon fill="midnightblue" stroke="midnightblue" points="506.5,-263.571 503,-253.571 499.5,-263.571 506.5,-263.571"/>
</g>
<!-- Node7 -->
<g id="node13" class="node"><title>Node7</title>
<a xlink:href="_t_i_d_8h.html" target="_top" xlink:title="TID.h">
<polygon fill="white" stroke="black" points="628.5,-174.5 628.5,-195.5 669.5,-195.5 669.5,-174.5 628.5,-174.5"/>
<text text-anchor="middle" x="649" y="-182.5" font-family="Helvetica,sans-Serif" font-size="10.00">TID.h</text>
</a>
</g>
<!-- Node6&#45;&gt;Node7 -->
<g id="edge12" class="edge"><title>Node6&#45;&gt;Node7</title>
<path fill="none" stroke="midnightblue" d="M649,-232.362C649,-224.922 649,-214.743 649,-205.728"/>
<polygon fill="midnightblue" stroke="midnightblue" points="652.5,-205.571 649,-195.571 645.5,-205.571 652.5,-205.571"/>
</g>
<!-- Node8 -->
<g id="node15" class="node"><title>Node8</title>
<polygon fill="white" stroke="#bfbfbf" points="986,-116.5 986,-137.5 1042,-137.5 1042,-116.5 986,-116.5"/>
<text text-anchor="middle" x="1014" y="-124.5" font-family="Helvetica,sans-Serif" font-size="10.00">Rtypes.h</text>
</g>
<!-- Node6&#45;&gt;Node8 -->
<g id="edge48" class="edge"><title>Node6&#45;&gt;Node8</title>
<path fill="none" stroke="midnightblue" d="M692.708,-232.48C728.511,-223.587 780.36,-210.078 825,-196 878.822,-179.026 939.987,-155.995 977.789,-141.312"/>
<polygon fill="midnightblue" stroke="midnightblue" points="979.297,-144.481 987.342,-137.586 976.753,-137.959 979.297,-144.481"/>
</g>
<!-- Node17 -->
<g id="node34" class="node"><title>Node17</title>
<polygon fill="white" stroke="#bfbfbf" points="630.5,-58.5 630.5,-79.5 671.5,-79.5 671.5,-58.5 630.5,-58.5"/>
<text text-anchor="middle" x="651" y="-66.5" font-family="Helvetica,sans-Serif" font-size="10.00">ctime</text>
</g>
<!-- Node6&#45;&gt;Node17 -->
<g id="edge52" class="edge"><title>Node6&#45;&gt;Node17</title>
<path fill="none" stroke="midnightblue" d="M665.282,-232.496C689.392,-215.849 733.609,-180.86 751,-138 754.676,-128.94 756.241,-124.254 751,-116 735.863,-92.1594 705.066,-80.1958 681.626,-74.3331"/>
<polygon fill="midnightblue" stroke="midnightblue" points="682.302,-70.8978 671.777,-72.1124 680.762,-77.7264 682.302,-70.8978"/>
</g>
<!-- Node22 -->
<g id="node44" class="node"><title>Node22</title>
<polygon fill="white" stroke="#bfbfbf" points="918,-116.5 918,-137.5 968,-137.5 968,-116.5 918,-116.5"/>
<text text-anchor="middle" x="943" y="-124.5" font-family="Helvetica,sans-Serif" font-size="10.00">iomanip</text>
</g>
<!-- Node6&#45;&gt;Node22 -->
<g id="edge50" class="edge"><title>Node6&#45;&gt;Node22</title>
<path fill="none" stroke="midnightblue" d="M681.433,-232.463C708.935,-223.348 749.323,-209.539 784,-196 828.455,-178.643 878.852,-156.31 910.767,-141.828"/>
<polygon fill="midnightblue" stroke="midnightblue" points="912.402,-144.93 920.052,-137.6 909.501,-138.559 912.402,-144.93"/>
</g>
<!-- Node7&#45;&gt;Node8 -->
<g id="edge14" class="edge"><title>Node7&#45;&gt;Node8</title>
<path fill="none" stroke="midnightblue" d="M669.53,-183.115C720.09,-178.252 854.73,-163.954 976.008,-137.975"/>
<polygon fill="midnightblue" stroke="midnightblue" points="976.802,-141.384 985.829,-135.839 975.314,-134.544 976.802,-141.384"/>
</g>
<!-- Node9 -->
<g id="node17" class="node"><title>Node9</title>
<a xlink:href="printable_8h.html" target="_top" xlink:title="base/printable.h">
<polygon fill="white" stroke="black" points="342,-116.5 342,-137.5 428,-137.5 428,-116.5 342,-116.5"/>
<text text-anchor="middle" x="385" y="-124.5" font-family="Helvetica,sans-Serif" font-size="10.00">base/printable.h</text>
</a>
</g>
<!-- Node7&#45;&gt;Node9 -->
<g id="edge16" class="edge"><title>Node7&#45;&gt;Node9</title>
<path fill="none" stroke="midnightblue" d="M628.284,-180.449C587.722,-171.538 496.691,-151.538 438.207,-138.69"/>
<polygon fill="midnightblue" stroke="midnightblue" points="438.918,-135.262 428.4,-136.535 437.416,-142.099 438.918,-135.262"/>
</g>
<!-- Node11 -->
<g id="node22" class="node"><title>Node11</title>
<a xlink:href="time_8h.html" target="_top" xlink:title="base/std_ext/time.h">
<polygon fill="white" stroke="black" points="797.5,-116.5 797.5,-137.5 900.5,-137.5 900.5,-116.5 797.5,-116.5"/>
<text text-anchor="middle" x="849" y="-124.5" font-family="Helvetica,sans-Serif" font-size="10.00">base/std_ext/time.h</text>
</a>
</g>
<!-- Node7&#45;&gt;Node11 -->
<g id="edge22" class="edge"><title>Node7&#45;&gt;Node11</title>
<path fill="none" stroke="midnightblue" d="M669.65,-179.011C700.88,-169.955 760.927,-152.541 802.903,-140.368"/>
<polygon fill="midnightblue" stroke="midnightblue" points="803.996,-143.695 812.626,-137.549 802.047,-136.972 803.996,-143.695"/>
</g>
<!-- Node7&#45;&gt;Node17 -->
<g id="edge46" class="edge"><title>Node7&#45;&gt;Node17</title>
<path fill="none" stroke="midnightblue" d="M628.318,-180.19C593.718,-171.102 529.864,-149.288 551,-116 566.137,-92.1594 596.934,-80.1958 620.374,-74.3331"/>
<polygon fill="midnightblue" stroke="midnightblue" points="621.238,-77.7264 630.223,-72.1124 619.698,-70.8978 621.238,-77.7264"/>
</g>
<!-- Node18 -->
<g id="node36" class="node"><title>Node18</title>
<polygon fill="white" stroke="#bfbfbf" points="560,-116.5 560,-137.5 622,-137.5 622,-116.5 560,-116.5"/>
<text text-anchor="middle" x="591" y="-124.5" font-family="Helvetica,sans-Serif" font-size="10.00">type_traits</text>
</g>
<!-- Node7&#45;&gt;Node18 -->
<g id="edge36" class="edge"><title>Node7&#45;&gt;Node18</title>
<path fill="none" stroke="midnightblue" d="M638.362,-174.362C630.104,-166.104 618.472,-154.472 608.803,-144.803"/>
<polygon fill="midnightblue" stroke="midnightblue" points="611.117,-142.167 601.571,-137.571 606.167,-147.117 611.117,-142.167"/>
</g>
<!-- Node19 -->
<g id="node38" class="node"><title>Node19</title>
<polygon fill="white" stroke="#bfbfbf" points="640,-116.5 640,-137.5 678,-137.5 678,-116.5 640,-116.5"/>
<text text-anchor="middle" x="659" y="-124.5" font-family="Helvetica,sans-Serif" font-size="10.00">tuple</text>
</g>
<!-- Node7&#45;&gt;Node19 -->
<g id="edge38" class="edge"><title>Node7&#45;&gt;Node19</title>
<path fill="none" stroke="midnightblue" d="M650.834,-174.362C652.131,-166.84 653.911,-156.519 655.477,-147.431"/>
<polygon fill="midnightblue" stroke="midnightblue" points="658.927,-148.02 657.177,-137.571 652.029,-146.831 658.927,-148.02"/>
</g>
<!-- Node20 -->
<g id="node40" class="node"><title>Node20</title>
<polygon fill="white" stroke="#bfbfbf" points="696,-116.5 696,-137.5 742,-137.5 742,-116.5 696,-116.5"/>
<text text-anchor="middle" x="719" y="-124.5" font-family="Helvetica,sans-Serif" font-size="10.00">cstdint</text>
</g>
<!-- Node7&#45;&gt;Node20 -->
<g id="edge40" class="edge"><title>Node7&#45;&gt;Node20</title>
<path fill="none" stroke="midnightblue" d="M661.839,-174.362C672.002,-165.941 686.401,-154.011 698.204,-144.231"/>
<polygon fill="midnightblue" stroke="midnightblue" points="700.775,-146.646 706.242,-137.571 696.309,-141.256 700.775,-146.646"/>
</g>
<!-- Node21 -->
<g id="node42" class="node"><title>Node21</title>
<polygon fill="white" stroke="#bfbfbf" points="265.5,-116.5 265.5,-137.5 324.5,-137.5 324.5,-116.5 265.5,-116.5"/>
<text text-anchor="middle" x="295" y="-124.5" font-family="Helvetica,sans-Serif" font-size="10.00">stdexcept</text>
</g>
<!-- Node7&#45;&gt;Node21 -->
<g id="edge42" class="edge"><title>Node7&#45;&gt;Node21</title>
<path fill="none" stroke="midnightblue" d="M628.495,-182.915C579.345,-177.715 450.837,-162.919 334.879,-138.214"/>
<polygon fill="midnightblue" stroke="midnightblue" points="335.288,-134.721 324.774,-136.028 333.808,-141.563 335.288,-134.721"/>
</g>
<!-- Node7&#45;&gt;Node22 -->
<g id="edge44" class="edge"><title>Node7&#45;&gt;Node22</title>
<path fill="none" stroke="midnightblue" d="M669.76,-182.213C712.577,-176.262 813.887,-161.133 907.906,-138.032"/>
<polygon fill="midnightblue" stroke="midnightblue" points="909.003,-141.366 917.858,-135.549 907.308,-134.574 909.003,-141.366"/>
</g>
<!-- Node9&#45;&gt;Node4 -->
<g id="edge18" class="edge"><title>Node9&#45;&gt;Node4</title>
<path fill="none" stroke="midnightblue" d="M366.658,-116.362C351.434,-107.532 329.559,-94.844 312.28,-84.8224"/>
<polygon fill="midnightblue" stroke="midnightblue" points="313.632,-81.5603 303.225,-79.5707 310.12,-87.6155 313.632,-81.5603"/>
</g>
<!-- Node10 -->
<g id="node20" class="node"><title>Node10</title>
<polygon fill="white" stroke="#bfbfbf" points="359,-58.5 359,-79.5 411,-79.5 411,-58.5 359,-58.5"/>
<text text-anchor="middle" x="385" y="-66.5" font-family="Helvetica,sans-Serif" font-size="10.00">ostream</text>
</g>
<!-- Node9&#45;&gt;Node10 -->
<g id="edge20" class="edge"><title>Node9&#45;&gt;Node10</title>
<path fill="none" stroke="midnightblue" d="M385,-116.362C385,-108.922 385,-98.7427 385,-89.7276"/>
<polygon fill="midnightblue" stroke="midnightblue" points="388.5,-89.5706 385,-79.5707 381.5,-89.5707 388.5,-89.5706"/>
</g>
<!-- Node12 -->
<g id="node24" class="node"><title>Node12</title>
<a xlink:href="string_8h.html" target="_top" xlink:title="base/std_ext/string.h">
<polygon fill="white" stroke="black" points="1098,-58.5 1098,-79.5 1206,-79.5 1206,-58.5 1098,-58.5"/>
<text text-anchor="middle" x="1152" y="-66.5" font-family="Helvetica,sans-Serif" font-size="10.00">base/std_ext/string.h</text>
</a>
</g>
<!-- Node11&#45;&gt;Node12 -->
<g id="edge24" class="edge"><title>Node11&#45;&gt;Node12</title>
<path fill="none" stroke="midnightblue" d="M900.743,-117.095C952.457,-107.196 1032.09,-91.9535 1087.8,-81.2885"/>
<polygon fill="midnightblue" stroke="midnightblue" points="1088.75,-84.6704 1097.92,-79.3526 1087.44,-77.7952 1088.75,-84.6704"/>
</g>
<!-- Node16 -->
<g id="node32" class="node"><title>Node16</title>
<polygon fill="white" stroke="#bfbfbf" points="826,-58.5 826,-79.5 872,-79.5 872,-58.5 826,-58.5"/>
<text text-anchor="middle" x="849" y="-66.5" font-family="Helvetica,sans-Serif" font-size="10.00">cstring</text>
</g>
<!-- Node11&#45;&gt;Node16 -->
<g id="edge32" class="edge"><title>Node11&#45;&gt;Node16</title>
<path fill="none" stroke="midnightblue" d="M849,-116.362C849,-108.922 849,-98.7427 849,-89.7276"/>
<polygon fill="midnightblue" stroke="midnightblue" points="852.5,-89.5706 849,-79.5707 845.5,-89.5707 852.5,-89.5706"/>
</g>
<!-- Node11&#45;&gt;Node17 -->
<g id="edge34" class="edge"><title>Node11&#45;&gt;Node17</title>
<path fill="none" stroke="midnightblue" d="M813.144,-116.497C775.513,-105.474 716.994,-88.3314 681.505,-77.9358"/>
<polygon fill="midnightblue" stroke="midnightblue" points="682.292,-74.5193 671.711,-75.0669 680.324,-81.237 682.292,-74.5193"/>
</g>
<!-- Node13 -->
<g id="node26" class="node"><title>Node13</title>
<polygon fill="white" stroke="#bfbfbf" points="435.5,-0.5 435.5,-21.5 476.5,-21.5 476.5,-0.5 435.5,-0.5"/>
<text text-anchor="middle" x="456" y="-8.5" font-family="Helvetica,sans-Serif" font-size="10.00">string</text>
</g>
<!-- Node12&#45;&gt;Node13 -->
<g id="edge26" class="edge"><title>Node12&#45;&gt;Node13</title>
<path fill="none" stroke="midnightblue" d="M1097.87,-59.8145C1093.18,-59.15 1088.51,-58.5329 1084,-58 855.502,-31.0183 578.295,-16.6362 486.874,-12.372"/>
<polygon fill="midnightblue" stroke="midnightblue" points="486.812,-8.86554 476.662,-11.902 486.49,-15.8581 486.812,-8.86554"/>
</g>
<!-- Node14 -->
<g id="node28" class="node"><title>Node14</title>
<polygon fill="white" stroke="#bfbfbf" points="1090,-0.5 1090,-21.5 1142,-21.5 1142,-0.5 1090,-0.5"/>
<text text-anchor="middle" x="1116" y="-8.5" font-family="Helvetica,sans-Serif" font-size="10.00">sstream</text>
</g>
<!-- Node12&#45;&gt;Node14 -->
<g id="edge28" class="edge"><title>Node12&#45;&gt;Node14</title>
<path fill="none" stroke="midnightblue" d="M1145.4,-58.3619C1140.53,-50.5131 1133.76,-39.6159 1127.95,-30.2527"/>
<polygon fill="midnightblue" stroke="midnightblue" points="1130.81,-28.2213 1122.56,-21.5707 1124.86,-31.9129 1130.81,-28.2213"/>
</g>
<!-- Node15 -->
<g id="node30" class="node"><title>Node15</title>
<polygon fill="white" stroke="#bfbfbf" points="1160,-0.5 1160,-21.5 1216,-21.5 1216,-0.5 1160,-0.5"/>
<text text-anchor="middle" x="1188" y="-8.5" font-family="Helvetica,sans-Serif" font-size="10.00">algorithm</text>
</g>
<!-- Node12&#45;&gt;Node15 -->
<g id="edge30" class="edge"><title>Node12&#45;&gt;Node15</title>
<path fill="none" stroke="midnightblue" d="M1158.6,-58.3619C1163.47,-50.5131 1170.24,-39.6159 1176.05,-30.2527"/>
<polygon fill="midnightblue" stroke="midnightblue" points="1179.14,-31.9129 1181.44,-21.5707 1173.19,-28.2213 1179.14,-31.9129"/>
</g>
<!-- Node23&#45;&gt;Node7 -->
<g id="edge56" class="edge"><title>Node23&#45;&gt;Node7</title>
<path fill="none" stroke="midnightblue" d="M529.439,-232.497C554.651,-222.481 592.579,-207.414 618.93,-196.946"/>
<polygon fill="midnightblue" stroke="midnightblue" points="620.411,-200.124 628.412,-193.179 617.826,-193.618 620.411,-200.124"/>
</g>
<!-- Node23&#45;&gt;Node13 -->
<g id="edge58" class="edge"><title>Node23&#45;&gt;Node13</title>
<path fill="none" stroke="midnightblue" d="M443.686,-233.24C440.751,-232.809 437.843,-232.393 435,-232 295.851,-212.779 248.962,-253.945 121,-196 86.031,-180.165 72.557,-173.094 57,-138 53.0374,-129.061 51.34,-123.973 57,-116 100.391,-54.876 339.532,-23.5141 425.341,-14.1056"/>
<polygon fill="midnightblue" stroke="midnightblue" points="425.912,-17.5645 435.482,-13.0183 425.166,-10.6044 425.912,-17.5645"/>
</g>
<!-- Node23&#45;&gt;Node17 -->
<g id="edge60" class="edge"><title>Node23&#45;&gt;Node17</title>
<path fill="none" stroke="midnightblue" d="M503.465,-232.361C505.056,-208.55 512.075,-150.367 543,-116 563.346,-93.3893 596.511,-81.1863 620.729,-74.9301"/>
<polygon fill="midnightblue" stroke="midnightblue" points="621.582,-78.325 630.497,-72.6 619.958,-71.516 621.582,-78.325"/>
</g>
<!-- Node24 -->
<g id="node55" class="node"><title>Node24</title>
<a xlink:href="_git_info_8h.html" target="_top" xlink:title="base/GitInfo.h">
<polygon fill="white" stroke="black" points="388,-174.5 388,-195.5 466,-195.5 466,-174.5 388,-174.5"/>
<text text-anchor="middle" x="427" y="-182.5" font-family="Helvetica,sans-Serif" font-size="10.00">base/GitInfo.h</text>
</a>
</g>
<!-- Node23&#45;&gt;Node24 -->
<g id="edge62" class="edge"><title>Node23&#45;&gt;Node24</title>
<path fill="none" stroke="midnightblue" d="M489.06,-232.362C477.812,-223.777 461.784,-211.546 448.835,-201.664"/>
<polygon fill="midnightblue" stroke="midnightblue" points="450.924,-198.855 440.851,-195.571 446.677,-204.42 450.924,-198.855"/>
</g>
<!-- Node24&#45;&gt;Node13 -->
<g id="edge64" class="edge"><title>Node24&#45;&gt;Node13</title>
<path fill="none" stroke="midnightblue" d="M429.492,-174.21C431.64,-164.707 434.741,-150.478 437,-138 443.749,-100.713 449.912,-56.955 453.292,-31.7554"/>
<polygon fill="midnightblue" stroke="midnightblue" points="456.797,-31.9462 454.641,-21.573 449.857,-31.0266 456.797,-31.9462"/>
</g>
<!-- Node25&#45;&gt;Node5 -->
<g id="edge72" class="edge"><title>Node25&#45;&gt;Node5</title>
<path fill="none" stroke="midnightblue" d="M916.973,-298.97C808.507,-293.953 542.581,-279.656 436.547,-253.579"/>
<polygon fill="midnightblue" stroke="midnightblue" points="437.357,-250.173 426.796,-251.018 435.579,-256.943 437.357,-250.173"/>
</g>
<!-- Node25&#45;&gt;Node12 -->
<g id="edge74" class="edge"><title>Node25&#45;&gt;Node12</title>
<path fill="none" stroke="midnightblue" d="M1011.09,-296.881C1090.73,-289.435 1244.98,-272.755 1261,-254 1308.33,-198.594 1219.83,-119.942 1175.34,-85.8451"/>
<polygon fill="midnightblue" stroke="midnightblue" points="1177.18,-82.8484 1167.08,-79.6398 1172.97,-88.4449 1177.18,-82.8484"/>
</g>
<!-- Node25&#45;&gt;Node13 -->
<g id="edge70" class="edge"><title>Node25&#45;&gt;Node13</title>
<path fill="none" stroke="midnightblue" d="M916.961,-297.566C859.674,-292.293 767.934,-279.953 747,-254 740.861,-246.389 741.137,-239.825 747,-232 781.155,-186.416 815.541,-212.692 870,-196 950.765,-171.245 1001.21,-206.24 1051,-138 1056.76,-130.101 1056.69,-123.952 1051,-116 1004.55,-51.073 958.917,-75.3801 881,-58 735.886,-25.6308 557.696,-15.1422 487.009,-12.11"/>
<polygon fill="midnightblue" stroke="midnightblue" points="486.743,-8.59631 476.608,-11.6852 486.457,-15.5905 486.743,-8.59631"/>
</g>
<!-- Node26 -->
<g id="node60" class="node"><title>Node26</title>
<polygon fill="white" stroke="#bfbfbf" points="756,-232.5 756,-253.5 808,-253.5 808,-232.5 756,-232.5"/>
<text text-anchor="middle" x="782" y="-240.5" font-family="Helvetica,sans-Serif" font-size="10.00">memory</text>
</g>
<!-- Node25&#45;&gt;Node26 -->
<g id="edge68" class="edge"><title>Node25&#45;&gt;Node26</title>
<path fill="none" stroke="midnightblue" d="M931.041,-290.497C899.107,-280.32 850.805,-264.927 817.907,-254.443"/>
<polygon fill="midnightblue" stroke="midnightblue" points="818.818,-251.06 808.228,-251.358 816.693,-257.729 818.818,-251.06"/>
</g>
<!-- Node27 -->
<g id="node65" class="node"><title>Node27</title>
<polygon fill="white" stroke="#bfbfbf" points="825.5,-232.5 825.5,-253.5 872.5,-253.5 872.5,-232.5 825.5,-232.5"/>
<text text-anchor="middle" x="849" y="-240.5" font-family="Helvetica,sans-Serif" font-size="10.00">TFile.h</text>
</g>
<!-- Node25&#45;&gt;Node27 -->
<g id="edge76" class="edge"><title>Node25&#45;&gt;Node27</title>
<path fill="none" stroke="midnightblue" d="M943.174,-290.497C925.294,-281.479 899.293,-268.365 879.139,-258.201"/>
<polygon fill="midnightblue" stroke="midnightblue" points="880.564,-254.999 870.059,-253.621 877.412,-261.249 880.564,-254.999"/>
</g>
<!-- Node28 -->
<g id="node67" class="node"><title>Node28</title>
<polygon fill="white" stroke="#bfbfbf" points="889.5,-232.5 889.5,-253.5 960.5,-253.5 960.5,-232.5 889.5,-232.5"/>
<text text-anchor="middle" x="925" y="-240.5" font-family="Helvetica,sans-Serif" font-size="10.00">TDirectory.h</text>
</g>
<!-- Node25&#45;&gt;Node28 -->
<g id="edge78" class="edge"><title>Node25&#45;&gt;Node28</title>
<path fill="none" stroke="midnightblue" d="M956.847,-290.362C951.514,-282.431 944.089,-271.389 937.749,-261.961"/>
<polygon fill="midnightblue" stroke="midnightblue" points="940.592,-259.916 932.108,-253.571 934.783,-263.822 940.592,-259.916"/>
</g>
<!-- Node29 -->
<g id="node69" class="node"><title>Node29</title>
<polygon fill="white" stroke="#bfbfbf" points="978,-232.5 978,-253.5 1030,-253.5 1030,-232.5 978,-232.5"/>
<text text-anchor="middle" x="1004" y="-240.5" font-family="Helvetica,sans-Serif" font-size="10.00">TError.h</text>
</g>
<!-- Node25&#45;&gt;Node29 -->
<g id="edge80" class="edge"><title>Node25&#45;&gt;Node29</title>
<path fill="none" stroke="midnightblue" d="M971.337,-290.362C976.806,-282.431 984.422,-271.389 990.924,-261.961"/>
<polygon fill="midnightblue" stroke="midnightblue" points="993.914,-263.79 996.71,-253.571 988.151,-259.816 993.914,-263.79"/>
</g>
<!-- Node30 -->
<g id="node71" class="node"><title>Node30</title>
<polygon fill="white" stroke="#bfbfbf" points="1047.5,-232.5 1047.5,-253.5 1094.5,-253.5 1094.5,-232.5 1047.5,-232.5"/>
<text text-anchor="middle" x="1071" y="-240.5" font-family="Helvetica,sans-Serif" font-size="10.00">TList.h</text>
</g>
<!-- Node25&#45;&gt;Node30 -->
<g id="edge82" class="edge"><title>Node25&#45;&gt;Node30</title>
<path fill="none" stroke="midnightblue" d="M983.625,-290.362C1000.14,-281.409 1023.97,-268.491 1042.58,-258.406"/>
<polygon fill="midnightblue" stroke="midnightblue" points="1044.38,-261.413 1051.5,-253.571 1041.04,-255.259 1044.38,-261.413"/>
</g>
<!-- Node31 -->
<g id="node73" class="node"><title>Node31</title>
<polygon fill="white" stroke="#bfbfbf" points="1112,-232.5 1112,-253.5 1186,-253.5 1186,-232.5 1112,-232.5"/>
<text text-anchor="middle" x="1149" y="-240.5" font-family="Helvetica,sans-Serif" font-size="10.00">TCollection.h</text>
</g>
<!-- Node25&#45;&gt;Node31 -->
<g id="edge84" class="edge"><title>Node25&#45;&gt;Node31</title>
<path fill="none" stroke="midnightblue" d="M997.502,-290.497C1027.79,-281 1072.57,-266.962 1105.59,-256.609"/>
<polygon fill="midnightblue" stroke="midnightblue" points="1106.94,-259.854 1115.44,-253.523 1104.85,-253.175 1106.94,-259.854"/>
</g>
<!-- Node32 -->
<g id="node75" class="node"><title>Node32</title>
<polygon fill="white" stroke="#bfbfbf" points="1204,-232.5 1204,-253.5 1252,-253.5 1252,-232.5 1204,-232.5"/>
<text text-anchor="middle" x="1228" y="-240.5" font-family="Helvetica,sans-Serif" font-size="10.00">TKey.h</text>
</g>
<!-- Node25&#45;&gt;Node32 -->
<g id="edge86" class="edge"><title>Node25&#45;&gt;Node32</title>
<path fill="none" stroke="midnightblue" d="M1011.29,-293.109C1056.14,-285.237 1125.55,-272.058 1194.26,-253.974"/>
<polygon fill="midnightblue" stroke="midnightblue" points="1195.19,-257.349 1203.95,-251.39 1193.39,-250.586 1195.19,-257.349"/>
</g>
<!-- Node33&#45;&gt;Node9 -->
<g id="edge94" class="edge"><title>Node33&#45;&gt;Node9</title>
<path fill="none" stroke="midnightblue" d="M208.935,-174.497C244.593,-164.877 297.524,-150.598 336.036,-140.209"/>
<polygon fill="midnightblue" stroke="midnightblue" points="337.249,-143.507 345.992,-137.523 335.426,-136.748 337.249,-143.507"/>
</g>
<!-- Node33&#45;&gt;Node15 -->
<g id="edge90" class="edge"><title>Node33&#45;&gt;Node15</title>
<path fill="none" stroke="midnightblue" d="M173.299,-174.312C181.824,-148.768 207.252,-84.3504 254,-58 338.518,-10.3603 1014.15,-36.794 1149.76,-21.5318"/>
<polygon fill="midnightblue" stroke="midnightblue" points="1150.46,-24.9687 1159.89,-20.1431 1149.51,-18.0335 1150.46,-24.9687"/>
</g>
<!-- Node33&#45;&gt;Node21 -->
<g id="edge92" class="edge"><title>Node33&#45;&gt;Node21</title>
<path fill="none" stroke="midnightblue" d="M192.637,-174.497C212.248,-165.397 240.846,-152.127 262.833,-141.925"/>
<polygon fill="midnightblue" stroke="midnightblue" points="264.512,-145.005 272.109,-137.621 261.565,-138.655 264.512,-145.005"/>
</g>
<!-- Node34 -->
<g id="node82" class="node"><title>Node34</title>
<a xlink:href="types_8h.html" target="_top" xlink:title="types.h">
<polygon fill="white" stroke="black" points="123.5,-116.5 123.5,-137.5 172.5,-137.5 172.5,-116.5 123.5,-116.5"/>
<text text-anchor="middle" x="148" y="-124.5" font-family="Helvetica,sans-Serif" font-size="10.00">types.h</text>
</a>
</g>
<!-- Node33&#45;&gt;Node34 -->
<g id="edge96" class="edge"><title>Node33&#45;&gt;Node34</title>
<path fill="none" stroke="midnightblue" d="M165.965,-174.362C163.081,-166.758 159.112,-156.294 155.637,-147.135"/>
<polygon fill="midnightblue" stroke="midnightblue" points="158.829,-145.679 152.01,-137.571 152.284,-148.162 158.829,-145.679"/>
</g>
<!-- Node35 -->
<g id="node84" class="node"><title>Node35</title>
<polygon fill="white" stroke="#bfbfbf" points="66,-116.5 66,-137.5 106,-137.5 106,-116.5 66,-116.5"/>
<text text-anchor="middle" x="86" y="-124.5" font-family="Helvetica,sans-Serif" font-size="10.00">limits</text>
</g>
<!-- Node33&#45;&gt;Node35 -->
<g id="edge98" class="edge"><title>Node33&#45;&gt;Node35</title>
<path fill="none" stroke="midnightblue" d="M154.593,-174.362C142.042,-165.696 124.108,-153.313 109.725,-143.382"/>
<polygon fill="midnightblue" stroke="midnightblue" points="111.527,-140.372 101.309,-137.571 107.55,-146.133 111.527,-140.372"/>
</g>
<!-- Node37 -->
<g id="node88" class="node"><title>Node37</title>
<polygon fill="white" stroke="#bfbfbf" points="1415.5,-232.5 1415.5,-253.5 1530.5,-253.5 1530.5,-232.5 1415.5,-232.5"/>
<text text-anchor="middle" x="1473" y="-240.5" font-family="Helvetica,sans-Serif" font-size="10.00">detail/easylogging++.h</text>
</g>
<!-- Node36&#45;&gt;Node37 -->
<g id="edge102" class="edge"><title>Node36&#45;&gt;Node37</title>
<path fill="none" stroke="midnightblue" d="M1354.26,-290.497C1377.42,-281.234 1411.38,-267.65 1437.05,-257.379"/>
<polygon fill="midnightblue" stroke="midnightblue" points="1438.46,-260.585 1446.45,-253.621 1435.86,-254.086 1438.46,-260.585"/>
</g>
<!-- Node38&#45;&gt;Node15 -->
<g id="edge106" class="edge"><title>Node38&#45;&gt;Node15</title>
<path fill="none" stroke="midnightblue" d="M1237.62,-290.484C1266.3,-272.748 1318,-233.981 1318,-185 1318,-185 1318,-185 1318,-127 1318,-77.0857 1263.99,-43.3222 1225.59,-25.6276"/>
<polygon fill="midnightblue" stroke="midnightblue" points="1226.77,-22.3217 1216.21,-21.4751 1223.94,-28.7228 1226.77,-22.3217"/>
</g>
<!-- Node39 -->
<g id="node93" class="node"><title>Node39</title>
<polygon fill="white" stroke="#bfbfbf" points="1345.5,-232.5 1345.5,-253.5 1398.5,-253.5 1398.5,-232.5 1345.5,-232.5"/>
<text text-anchor="middle" x="1372" y="-240.5" font-family="Helvetica,sans-Serif" font-size="10.00">cxxabi.h</text>
</g>
<!-- Node38&#45;&gt;Node39 -->
<g id="edge108" class="edge"><title>Node38&#45;&gt;Node39</title>
<path fill="none" stroke="midnightblue" d="M1246.71,-290.497C1271.63,-281.048 1308.42,-267.102 1335.69,-256.764"/>
<polygon fill="midnightblue" stroke="midnightblue" points="1337.16,-259.951 1345.27,-253.134 1334.68,-253.406 1337.16,-259.951"/>
</g>
<!-- Node40&#45;&gt;Node5 -->
<g id="edge112" class="edge"><title>Node40&#45;&gt;Node5</title>
<path fill="none" stroke="midnightblue" d="M396.485,-290.362C398.976,-282.758 402.404,-272.294 405.404,-263.135"/>
<polygon fill="midnightblue" stroke="midnightblue" points="408.75,-264.163 408.537,-253.571 402.098,-261.984 408.75,-264.163"/>
</g>
<!-- Node40&#45;&gt;Node13 -->
<g id="edge114" class="edge"><title>Node40&#45;&gt;Node13</title>
<path fill="none" stroke="midnightblue" d="M334.588,-295.984C225.111,-284.961 0,-253.916 0,-185 0,-185 0,-185 0,-127 0,-39.031 322.766,-16.9751 425.199,-12.1905"/>
<polygon fill="midnightblue" stroke="midnightblue" points="425.387,-15.6856 435.222,-11.7452 425.076,-8.69254 425.387,-15.6856"/>
</g>
</g>
</svg>
