<?xml version="1.0" encoding="UTF-8" standalone="no"?>
<!DOCTYPE svg PUBLIC "-//W3C//DTD SVG 1.1//EN"
 "http://www.w3.org/Graphics/SVG/1.1/DTD/svg11.dtd">
<!-- Generated by graphviz version 2.26.3 (20100126.1600)
 -->
<!-- Title: src/calibration/DataManager.cc Pages: 1 -->
<svg width="1713pt" height="436pt"
 viewBox="0.00 0.00 1713.00 436.00" xmlns="http://www.w3.org/2000/svg" xmlns:xlink="http://www.w3.org/1999/xlink">
<g id="graph1" class="graph" transform="scale(1 1) rotate(0) translate(4 432)">
<title>src/calibration/DataManager.cc</title>
<polygon fill="white" stroke="white" points="-4,5 -4,-432 1710,-432 1710,5 -4,5"/>
<!-- Node1 -->
<g id="node1" class="node"><title>Node1</title>
<polygon fill="#bfbfbf" stroke="black" points="1326,-406.5 1326,-427.5 1478,-427.5 1478,-406.5 1326,-406.5"/>
<text text-anchor="middle" x="1402" y="-414.5" font-family="Helvetica,sans-Serif" font-size="10.00">src/calibration/DataManager.cc</text>
</g>
<!-- Node2 -->
<g id="node3" class="node"><title>Node2</title>
<a xlink:href="_data_manager_8h.html" target="_top" xlink:title="DataManager.h">
<polygon fill="white" stroke="black" points="613.5,-348.5 613.5,-369.5 696.5,-369.5 696.5,-348.5 613.5,-348.5"/>
<text text-anchor="middle" x="655" y="-356.5" font-family="Helvetica,sans-Serif" font-size="10.00">DataManager.h</text>
</a>
</g>
<!-- Node1&#45;&gt;Node2 -->
<g id="edge2" class="edge"><title>Node1&#45;&gt;Node2</title>
<path fill="none" stroke="midnightblue" d="M1325.8,-412.977C1202.66,-406.164 952.363,-391.015 741,-370 729.876,-368.894 717.969,-367.504 706.669,-366.088"/>
<polygon fill="midnightblue" stroke="midnightblue" points="706.865,-362.584 696.502,-364.787 705.977,-369.528 706.865,-362.584"/>
</g>
<!-- Node13 -->
<g id="node25" class="node"><title>Node13</title>
<polygon fill="white" stroke="#bfbfbf" points="1137,-0.5 1137,-21.5 1193,-21.5 1193,-0.5 1137,-0.5"/>
<text text-anchor="middle" x="1165" y="-8.5" font-family="Helvetica,sans-Serif" font-size="10.00">algorithm</text>
</g>
<!-- Node1&#45;&gt;Node13 -->
<g id="edge128" class="edge"><title>Node1&#45;&gt;Node13</title>
<path fill="none" stroke="midnightblue" d="M1411.41,-406.346C1427.6,-386.881 1459,-343.634 1459,-301 1459,-301 1459,-301 1459,-127 1459,-72.6488 1282.94,-32.9511 1203.31,-17.7755"/>
<polygon fill="midnightblue" stroke="midnightblue" points="1203.66,-14.2813 1193.19,-15.8807 1202.37,-21.1617 1203.66,-14.2813"/>
</g>
<!-- Node27 -->
<g id="node66" class="node"><title>Node27</title>
<a xlink:href="_wrap_t_file_8h.html" target="_top" xlink:title="base/WrapTFile.h">
<polygon fill="white" stroke="black" points="1007,-348.5 1007,-369.5 1101,-369.5 1101,-348.5 1007,-348.5"/>
<text text-anchor="middle" x="1054" y="-356.5" font-family="Helvetica,sans-Serif" font-size="10.00">base/WrapTFile.h</text>
</a>
</g>
<!-- Node1&#45;&gt;Node27 -->
<g id="edge78" class="edge"><title>Node1&#45;&gt;Node27</title>
<path fill="none" stroke="midnightblue" d="M1338.98,-406.497C1274.13,-395.689 1173.99,-378.999 1111.32,-368.553"/>
<polygon fill="midnightblue" stroke="midnightblue" points="1111.65,-365.06 1101.21,-366.868 1110.5,-371.965 1111.65,-365.06"/>
</g>
<!-- Node29 -->
<g id="node74" class="node"><title>Node29</title>
<polygon fill="white" stroke="#bfbfbf" points="1252.5,-290.5 1252.5,-311.5 1323.5,-311.5 1323.5,-290.5 1252.5,-290.5"/>
<text text-anchor="middle" x="1288" y="-298.5" font-family="Helvetica,sans-Serif" font-size="10.00">TDirectory.h</text>
</g>
<!-- Node1&#45;&gt;Node29 -->
<g id="edge126" class="edge"><title>Node1&#45;&gt;Node29</title>
<path fill="none" stroke="midnightblue" d="M1391.48,-406.295C1371.88,-386.355 1329.61,-343.337 1305.6,-318.906"/>
<polygon fill="midnightblue" stroke="midnightblue" points="1308,-316.358 1298.5,-311.679 1303.01,-321.265 1308,-316.358"/>
</g>
<!-- Node30 -->
<g id="node76" class="node"><title>Node30</title>
<polygon fill="white" stroke="#bfbfbf" points="1341,-290.5 1341,-311.5 1393,-311.5 1393,-290.5 1341,-290.5"/>
<text text-anchor="middle" x="1367" y="-298.5" font-family="Helvetica,sans-Serif" font-size="10.00">TError.h</text>
</g>
<!-- Node1&#45;&gt;Node30 -->
<g id="edge124" class="edge"><title>Node1&#45;&gt;Node30</title>
<path fill="none" stroke="midnightblue" d="M1398.77,-406.295C1392.96,-387.045 1380.66,-346.289 1373.19,-321.509"/>
<polygon fill="midnightblue" stroke="midnightblue" points="1376.46,-320.242 1370.22,-311.679 1369.76,-322.264 1376.46,-320.242"/>
</g>
<!-- Node34 -->
<g id="node84" class="node"><title>Node34</title>
<a xlink:href="_logger_8h.html" target="_top" xlink:title="base/Logger.h">
<polygon fill="white" stroke="black" points="1487,-348.5 1487,-369.5 1565,-369.5 1565,-348.5 1487,-348.5"/>
<text text-anchor="middle" x="1526" y="-356.5" font-family="Helvetica,sans-Serif" font-size="10.00">base/Logger.h</text>
</a>
</g>
<!-- Node1&#45;&gt;Node34 -->
<g id="edge100" class="edge"><title>Node1&#45;&gt;Node34</title>
<path fill="none" stroke="midnightblue" d="M1424.46,-406.497C1443.91,-397.397 1472.28,-384.127 1494.09,-373.925"/>
<polygon fill="midnightblue" stroke="midnightblue" points="1495.72,-377.028 1503.29,-369.621 1492.75,-370.688 1495.72,-377.028"/>
</g>
<!-- Node36 -->
<g id="node88" class="node"><title>Node36</title>
<a xlink:href="memory_8h.html" target="_top" xlink:title="base/std_ext/memory.h">
<polygon fill="white" stroke="black" points="749.5,-348.5 749.5,-369.5 868.5,-369.5 868.5,-348.5 749.5,-348.5"/>
<text text-anchor="middle" x="809" y="-356.5" font-family="Helvetica,sans-Serif" font-size="10.00">base/std_ext/memory.h</text>
</a>
</g>
<!-- Node1&#45;&gt;Node36 -->
<g id="edge104" class="edge"><title>Node1&#45;&gt;Node36</title>
<path fill="none" stroke="midnightblue" d="M1325.99,-409.566C1210.07,-398.228 990.774,-376.779 878.722,-365.819"/>
<polygon fill="midnightblue" stroke="midnightblue" points="878.841,-362.314 868.548,-364.824 878.16,-369.281 878.841,-362.314"/>
</g>
<!-- Node37 -->
<g id="node92" class="node"><title>Node37</title>
<a xlink:href="interval_8h.html" target="_top" xlink:title="base/interval.h">
<polygon fill="white" stroke="black" points="1054,-174.5 1054,-195.5 1134,-195.5 1134,-174.5 1054,-174.5"/>
<text text-anchor="middle" x="1094" y="-182.5" font-family="Helvetica,sans-Serif" font-size="10.00">base/interval.h</text>
</a>
</g>
<!-- Node1&#45;&gt;Node37 -->
<g id="edge110" class="edge"><title>Node1&#45;&gt;Node37</title>
<path fill="none" stroke="midnightblue" d="M1405.8,-406.222C1413.37,-382.631 1427.53,-325.682 1402,-290 1371.52,-247.406 1223.61,-211.428 1144.37,-194.829"/>
<polygon fill="midnightblue" stroke="midnightblue" points="1144.63,-191.309 1134.13,-192.711 1143.21,-198.164 1144.63,-191.309"/>
</g>
<!-- Node40 -->
<g id="node101" class="node"><title>Node40</title>
<polygon fill="white" stroke="#bfbfbf" points="1583,-348.5 1583,-369.5 1633,-369.5 1633,-348.5 1583,-348.5"/>
<text text-anchor="middle" x="1608" y="-356.5" font-family="Helvetica,sans-Serif" font-size="10.00">TTree.h</text>
</g>
<!-- Node1&#45;&gt;Node40 -->
<g id="edge122" class="edge"><title>Node1&#45;&gt;Node40</title>
<path fill="none" stroke="midnightblue" d="M1442.81,-406.416C1475.64,-397.775 1523.17,-384.981 1573.11,-370.185"/>
<polygon fill="midnightblue" stroke="midnightblue" points="1574.21,-373.509 1582.79,-367.299 1572.21,-366.801 1574.21,-373.509"/>
</g>
<!-- Node41 -->
<g id="node106" class="node"><title>Node41</title>
<polygon fill="white" stroke="#bfbfbf" points="1651,-348.5 1651,-369.5 1705,-369.5 1705,-348.5 1651,-348.5"/>
<text text-anchor="middle" x="1678" y="-356.5" font-family="Helvetica,sans-Serif" font-size="10.00">iostream</text>
</g>
<!-- Node1&#45;&gt;Node41 -->
<g id="edge130" class="edge"><title>Node1&#45;&gt;Node41</title>
<path fill="none" stroke="midnightblue" d="M1465.05,-406.487C1511.31,-398.353 1575.81,-386.144 1640.93,-370.093"/>
<polygon fill="midnightblue" stroke="midnightblue" points="1642.1,-373.407 1650.96,-367.59 1640.41,-366.615 1642.1,-373.407"/>
</g>
<!-- Node3 -->
<g id="node5" class="node"><title>Node3</title>
<a xlink:href="_t_calibration_data_8h.html" target="_top" xlink:title="tree/TCalibrationData.h">
<polygon fill="white" stroke="black" points="526,-232.5 526,-253.5 644,-253.5 644,-232.5 526,-232.5"/>
<text text-anchor="middle" x="585" y="-240.5" font-family="Helvetica,sans-Serif" font-size="10.00">tree/TCalibrationData.h</text>
</a>
</g>
<!-- Node2&#45;&gt;Node3 -->
<g id="edge4" class="edge"><title>Node2&#45;&gt;Node3</title>
<path fill="none" stroke="midnightblue" d="M643.118,-348.381C633.672,-339.432 620.653,-325.894 612,-312 602.571,-296.86 595.436,-277.878 590.875,-263.658"/>
<polygon fill="midnightblue" stroke="midnightblue" points="594.152,-262.404 587.894,-253.855 587.455,-264.441 594.152,-262.404"/>
</g>
<!-- Node11 -->
<g id="node21" class="node"><title>Node11</title>
<polygon fill="white" stroke="#bfbfbf" points="631.5,-0.5 631.5,-21.5 672.5,-21.5 672.5,-0.5 631.5,-0.5"/>
<text text-anchor="middle" x="652" y="-8.5" font-family="Helvetica,sans-Serif" font-size="10.00">string</text>
</g>
<!-- Node2&#45;&gt;Node11 -->
<g id="edge74" class="edge"><title>Node2&#45;&gt;Node11</title>
<path fill="none" stroke="midnightblue" d="M613.03,-356.032C468.465,-345.254 0,-305.506 0,-243 0,-243 0,-243 0,-127 0,-63.0482 492.503,-22.637 621.419,-13.1545"/>
<polygon fill="midnightblue" stroke="midnightblue" points="621.69,-16.6441 631.41,-12.4283 621.183,-9.66254 621.69,-16.6441"/>
</g>
<!-- Node22 -->
<g id="node47" class="node"><title>Node22</title>
<a xlink:href="_t_data_record_8h.html" target="_top" xlink:title="tree/TDataRecord.h">
<polygon fill="white" stroke="black" points="255.5,-232.5 255.5,-253.5 358.5,-253.5 358.5,-232.5 255.5,-232.5"/>
<text text-anchor="middle" x="307" y="-240.5" font-family="Helvetica,sans-Serif" font-size="10.00">tree/TDataRecord.h</text>
</a>
</g>
<!-- Node2&#45;&gt;Node22 -->
<g id="edge50" class="edge"><title>Node2&#45;&gt;Node22</title>
<path fill="none" stroke="midnightblue" d="M623.195,-348.398C560.025,-327.342 418.79,-280.263 348.451,-256.817"/>
<polygon fill="midnightblue" stroke="midnightblue" points="349.199,-253.377 338.605,-253.535 346.985,-260.018 349.199,-253.377"/>
</g>
<!-- Node23 -->
<g id="node53" class="node"><title>Node23</title>
<a xlink:href="_data_base_8h.html" target="_top" xlink:title="DataBase.h">
<polygon fill="white" stroke="black" points="621,-290.5 621,-311.5 689,-311.5 689,-290.5 621,-290.5"/>
<text text-anchor="middle" x="655" y="-298.5" font-family="Helvetica,sans-Serif" font-size="10.00">DataBase.h</text>
</a>
</g>
<!-- Node2&#45;&gt;Node23 -->
<g id="edge60" class="edge"><title>Node2&#45;&gt;Node23</title>
<path fill="none" stroke="midnightblue" d="M655,-348.362C655,-340.922 655,-330.743 655,-321.728"/>
<polygon fill="midnightblue" stroke="midnightblue" points="658.5,-321.571 655,-311.571 651.5,-321.571 658.5,-321.571"/>
</g>
<!-- Node25 -->
<g id="node58" class="node"><title>Node25</title>
<polygon fill="white" stroke="#bfbfbf" points="848.5,-232.5 848.5,-253.5 877.5,-253.5 877.5,-232.5 848.5,-232.5"/>
<text text-anchor="middle" x="863" y="-240.5" font-family="Helvetica,sans-Serif" font-size="10.00">list</text>
</g>
<!-- Node2&#45;&gt;Node25 -->
<g id="edge72" class="edge"><title>Node2&#45;&gt;Node25</title>
<path fill="none" stroke="midnightblue" d="M671.03,-348.442C692.512,-334.452 731.997,-309.291 767,-290 791.191,-276.667 819.707,-262.949 839.339,-253.801"/>
<polygon fill="midnightblue" stroke="midnightblue" points="840.858,-256.955 848.465,-249.58 837.92,-250.602 840.858,-256.955"/>
</g>
<!-- Node26 -->
<g id="node64" class="node"><title>Node26</title>
<polygon fill="white" stroke="#bfbfbf" points="783,-290.5 783,-311.5 835,-311.5 835,-290.5 783,-290.5"/>
<text text-anchor="middle" x="809" y="-298.5" font-family="Helvetica,sans-Serif" font-size="10.00">memory</text>
</g>
<!-- Node2&#45;&gt;Node26 -->
<g id="edge76" class="edge"><title>Node2&#45;&gt;Node26</title>
<path fill="none" stroke="midnightblue" d="M682.888,-348.497C708.209,-338.96 745.689,-324.844 773.211,-314.479"/>
<polygon fill="midnightblue" stroke="midnightblue" points="774.735,-317.645 782.86,-310.845 772.268,-311.094 774.735,-317.645"/>
</g>
<!-- Node4 -->
<g id="node7" class="node"><title>Node4</title>
<a xlink:href="_t_i_d_8h.html" target="_top" xlink:title="TID.h">
<polygon fill="white" stroke="black" points="346.5,-174.5 346.5,-195.5 387.5,-195.5 387.5,-174.5 346.5,-174.5"/>
<text text-anchor="middle" x="367" y="-182.5" font-family="Helvetica,sans-Serif" font-size="10.00">TID.h</text>
</a>
</g>
<!-- Node3&#45;&gt;Node4 -->
<g id="edge6" class="edge"><title>Node3&#45;&gt;Node4</title>
<path fill="none" stroke="midnightblue" d="M545.522,-232.497C503.128,-221.217 436.652,-203.531 397.904,-193.222"/>
<polygon fill="midnightblue" stroke="midnightblue" points="398.317,-189.71 387.753,-190.521 396.517,-196.475 398.317,-189.71"/>
</g>
<!-- Node3&#45;&gt;Node11 -->
<g id="edge42" class="edge"><title>Node3&#45;&gt;Node11</title>
<path fill="none" stroke="midnightblue" d="M600.8,-232.216C611.827,-223.748 625.809,-210.919 633,-196 659.311,-141.411 657.255,-67.4262 654.284,-31.828"/>
<polygon fill="midnightblue" stroke="midnightblue" points="657.751,-31.3168 653.322,-21.6923 650.782,-31.9782 657.751,-31.3168"/>
</g>
<!-- Node15 -->
<g id="node29" class="node"><title>Node15</title>
<polygon fill="white" stroke="#bfbfbf" points="416.5,-58.5 416.5,-79.5 457.5,-79.5 457.5,-58.5 416.5,-58.5"/>
<text text-anchor="middle" x="437" y="-66.5" font-family="Helvetica,sans-Serif" font-size="10.00">ctime</text>
</g>
<!-- Node3&#45;&gt;Node15 -->
<g id="edge44" class="edge"><title>Node3&#45;&gt;Node15</title>
<path fill="none" stroke="midnightblue" d="M571.543,-232.47C549.449,-214.709 504.953,-176.912 475,-138 463.32,-122.827 453.049,-103.61 446.14,-89.3126"/>
<polygon fill="midnightblue" stroke="midnightblue" points="449.142,-87.4704 441.731,-79.899 442.803,-90.4395 449.142,-87.4704"/>
</g>
<!-- Node21 -->
<g id="node44" class="node"><title>Node21</title>
<a xlink:href="_git_info_8h.html" target="_top" xlink:title="base/GitInfo.h">
<polygon fill="white" stroke="black" points="546,-174.5 546,-195.5 624,-195.5 624,-174.5 546,-174.5"/>
<text text-anchor="middle" x="585" y="-182.5" font-family="Helvetica,sans-Serif" font-size="10.00">base/GitInfo.h</text>
</a>
</g>
<!-- Node3&#45;&gt;Node21 -->
<g id="edge46" class="edge"><title>Node3&#45;&gt;Node21</title>
<path fill="none" stroke="midnightblue" d="M585,-232.362C585,-224.922 585,-214.743 585,-205.728"/>
<polygon fill="midnightblue" stroke="midnightblue" points="588.5,-205.571 585,-195.571 581.5,-205.571 588.5,-205.571"/>
</g>
<!-- Node5 -->
<g id="node9" class="node"><title>Node5</title>
<polygon fill="white" stroke="#bfbfbf" points="134,-116.5 134,-137.5 190,-137.5 190,-116.5 134,-116.5"/>
<text text-anchor="middle" x="162" y="-124.5" font-family="Helvetica,sans-Serif" font-size="10.00">Rtypes.h</text>
</g>
<!-- Node4&#45;&gt;Node5 -->
<g id="edge8" class="edge"><title>Node4&#45;&gt;Node5</title>
<path fill="none" stroke="midnightblue" d="M346.279,-179.319C316.205,-171.049 258.475,-155.082 200.031,-138.27"/>
<polygon fill="midnightblue" stroke="midnightblue" points="200.846,-134.862 190.268,-135.455 198.907,-141.588 200.846,-134.862"/>
</g>
<!-- Node6 -->
<g id="node11" class="node"><title>Node6</title>
<a xlink:href="printable_8h.html" target="_top" xlink:title="base/printable.h">
<polygon fill="white" stroke="black" points="680,-116.5 680,-137.5 766,-137.5 766,-116.5 680,-116.5"/>
<text text-anchor="middle" x="723" y="-124.5" font-family="Helvetica,sans-Serif" font-size="10.00">base/printable.h</text>
</a>
</g>
<!-- Node4&#45;&gt;Node6 -->
<g id="edge10" class="edge"><title>Node4&#45;&gt;Node6</title>
<path fill="none" stroke="midnightblue" d="M387.679,-181.631C441.97,-172.786 589.885,-148.687 669.904,-135.65"/>
<polygon fill="midnightblue" stroke="midnightblue" points="670.479,-139.103 679.786,-134.041 669.353,-132.194 670.479,-139.103"/>
</g>
<!-- Node9 -->
<g id="node17" class="node"><title>Node9</title>
<a xlink:href="time_8h.html" target="_top" xlink:title="base/std_ext/time.h">
<polygon fill="white" stroke="black" points="483.5,-116.5 483.5,-137.5 586.5,-137.5 586.5,-116.5 483.5,-116.5"/>
<text text-anchor="middle" x="535" y="-124.5" font-family="Helvetica,sans-Serif" font-size="10.00">base/std_ext/time.h</text>
</a>
</g>
<!-- Node4&#45;&gt;Node9 -->
<g id="edge16" class="edge"><title>Node4&#45;&gt;Node9</title>
<path fill="none" stroke="midnightblue" d="M387.6,-177.888C414.236,-168.692 461.204,-152.477 494.971,-140.82"/>
<polygon fill="midnightblue" stroke="midnightblue" points="496.242,-144.084 504.552,-137.512 493.957,-137.467 496.242,-144.084"/>
</g>
<!-- Node4&#45;&gt;Node15 -->
<g id="edge40" class="edge"><title>Node4&#45;&gt;Node15</title>
<path fill="none" stroke="midnightblue" d="M374.666,-174.363C381.341,-164.959 391.15,-150.787 399,-138 408.903,-121.869 419.205,-103.012 426.58,-89.0911"/>
<polygon fill="midnightblue" stroke="midnightblue" points="429.837,-90.4178 431.386,-79.9368 423.639,-87.1642 429.837,-90.4178"/>
</g>
<!-- Node16 -->
<g id="node31" class="node"><title>Node16</title>
<polygon fill="white" stroke="#bfbfbf" points="208,-116.5 208,-137.5 270,-137.5 270,-116.5 208,-116.5"/>
<text text-anchor="middle" x="239" y="-124.5" font-family="Helvetica,sans-Serif" font-size="10.00">type_traits</text>
</g>
<!-- Node4&#45;&gt;Node16 -->
<g id="edge30" class="edge"><title>Node4&#45;&gt;Node16</title>
<path fill="none" stroke="midnightblue" d="M346.435,-175.681C326.31,-166.563 295.338,-152.528 271.81,-141.867"/>
<polygon fill="midnightblue" stroke="midnightblue" points="273.109,-138.613 262.556,-137.674 270.22,-144.989 273.109,-138.613"/>
</g>
<!-- Node17 -->
<g id="node33" class="node"><title>Node17</title>
<polygon fill="white" stroke="#bfbfbf" points="288,-116.5 288,-137.5 326,-137.5 326,-116.5 288,-116.5"/>
<text text-anchor="middle" x="307" y="-124.5" font-family="Helvetica,sans-Serif" font-size="10.00">tuple</text>
</g>
<!-- Node4&#45;&gt;Node17 -->
<g id="edge32" class="edge"><title>Node4&#45;&gt;Node17</title>
<path fill="none" stroke="midnightblue" d="M355.995,-174.362C347.453,-166.104 335.42,-154.472 325.417,-144.803"/>
<polygon fill="midnightblue" stroke="midnightblue" points="327.558,-142.004 317.935,-137.571 322.692,-147.037 327.558,-142.004"/>
</g>
<!-- Node18 -->
<g id="node35" class="node"><title>Node18</title>
<polygon fill="white" stroke="#bfbfbf" points="344,-116.5 344,-137.5 390,-137.5 390,-116.5 344,-116.5"/>
<text text-anchor="middle" x="367" y="-124.5" font-family="Helvetica,sans-Serif" font-size="10.00">cstdint</text>
</g>
<!-- Node4&#45;&gt;Node18 -->
<g id="edge34" class="edge"><title>Node4&#45;&gt;Node18</title>
<path fill="none" stroke="midnightblue" d="M367,-174.362C367,-166.922 367,-156.743 367,-147.728"/>
<polygon fill="midnightblue" stroke="midnightblue" points="370.5,-147.571 367,-137.571 363.5,-147.571 370.5,-147.571"/>
</g>
<!-- Node19 -->
<g id="node37" class="node"><title>Node19</title>
<polygon fill="white" stroke="#bfbfbf" points="783.5,-116.5 783.5,-137.5 842.5,-137.5 842.5,-116.5 783.5,-116.5"/>
<text text-anchor="middle" x="813" y="-124.5" font-family="Helvetica,sans-Serif" font-size="10.00">stdexcept</text>
</g>
<!-- Node4&#45;&gt;Node19 -->
<g id="edge36" class="edge"><title>Node4&#45;&gt;Node19</title>
<path fill="none" stroke="midnightblue" d="M387.566,-183.849C446.403,-180.302 620.498,-168.031 773.219,-138.119"/>
<polygon fill="midnightblue" stroke="midnightblue" points="774.121,-141.508 783.246,-136.123 772.755,-134.642 774.121,-141.508"/>
</g>
<!-- Node20 -->
<g id="node39" class="node"><title>Node20</title>
<polygon fill="white" stroke="#bfbfbf" points="66,-116.5 66,-137.5 116,-137.5 116,-116.5 66,-116.5"/>
<text text-anchor="middle" x="91" y="-124.5" font-family="Helvetica,sans-Serif" font-size="10.00">iomanip</text>
</g>
<!-- Node4&#45;&gt;Node20 -->
<g id="edge38" class="edge"><title>Node4&#45;&gt;Node20</title>
<path fill="none" stroke="midnightblue" d="M346.416,-181.866C305.946,-175.523 213.059,-160.064 125.924,-138.019"/>
<polygon fill="midnightblue" stroke="midnightblue" points="126.708,-134.607 116.151,-135.512 124.968,-141.387 126.708,-134.607"/>
</g>
<!-- Node7 -->
<g id="node13" class="node"><title>Node7</title>
<polygon fill="white" stroke="#bfbfbf" points="802,-58.5 802,-79.5 846,-79.5 846,-58.5 802,-58.5"/>
<text text-anchor="middle" x="824" y="-66.5" font-family="Helvetica,sans-Serif" font-size="10.00">vector</text>
</g>
<!-- Node6&#45;&gt;Node7 -->
<g id="edge12" class="edge"><title>Node6&#45;&gt;Node7</title>
<path fill="none" stroke="midnightblue" d="M741.525,-116.362C756.901,-107.532 778.996,-94.844 796.447,-84.8224"/>
<polygon fill="midnightblue" stroke="midnightblue" points="798.664,-87.5857 805.592,-79.5707 795.178,-81.5154 798.664,-87.5857"/>
</g>
<!-- Node8 -->
<g id="node15" class="node"><title>Node8</title>
<polygon fill="white" stroke="#bfbfbf" points="697,-58.5 697,-79.5 749,-79.5 749,-58.5 697,-58.5"/>
<text text-anchor="middle" x="723" y="-66.5" font-family="Helvetica,sans-Serif" font-size="10.00">ostream</text>
</g>
<!-- Node6&#45;&gt;Node8 -->
<g id="edge14" class="edge"><title>Node6&#45;&gt;Node8</title>
<path fill="none" stroke="midnightblue" d="M723,-116.362C723,-108.922 723,-98.7427 723,-89.7276"/>
<polygon fill="midnightblue" stroke="midnightblue" points="726.5,-89.5706 723,-79.5707 719.5,-89.5707 726.5,-89.5706"/>
</g>
<!-- Node10 -->
<g id="node19" class="node"><title>Node10</title>
<a xlink:href="string_8h.html" target="_top" xlink:title="base/std_ext/string.h">
<polygon fill="white" stroke="black" points="942,-58.5 942,-79.5 1050,-79.5 1050,-58.5 942,-58.5"/>
<text text-anchor="middle" x="996" y="-66.5" font-family="Helvetica,sans-Serif" font-size="10.00">base/std_ext/string.h</text>
</a>
</g>
<!-- Node9&#45;&gt;Node10 -->
<g id="edge18" class="edge"><title>Node9&#45;&gt;Node10</title>
<path fill="none" stroke="midnightblue" d="M586.541,-120.515C671.238,-109.859 839.647,-88.6713 931.902,-77.0644"/>
<polygon fill="midnightblue" stroke="midnightblue" points="932.463,-80.5215 941.948,-75.8005 931.589,-73.5762 932.463,-80.5215"/>
</g>
<!-- Node14 -->
<g id="node27" class="node"><title>Node14</title>
<polygon fill="white" stroke="#bfbfbf" points="512,-58.5 512,-79.5 558,-79.5 558,-58.5 512,-58.5"/>
<text text-anchor="middle" x="535" y="-66.5" font-family="Helvetica,sans-Serif" font-size="10.00">cstring</text>
</g>
<!-- Node9&#45;&gt;Node14 -->
<g id="edge26" class="edge"><title>Node9&#45;&gt;Node14</title>
<path fill="none" stroke="midnightblue" d="M535,-116.362C535,-108.922 535,-98.7427 535,-89.7276"/>
<polygon fill="midnightblue" stroke="midnightblue" points="538.5,-89.5706 535,-79.5707 531.5,-89.5707 538.5,-89.5706"/>
</g>
<!-- Node9&#45;&gt;Node15 -->
<g id="edge28" class="edge"><title>Node9&#45;&gt;Node15</title>
<path fill="none" stroke="midnightblue" d="M517.025,-116.362C502.106,-107.532 480.667,-94.844 463.734,-84.8224"/>
<polygon fill="midnightblue" stroke="midnightblue" points="465.249,-81.6519 454.861,-79.5707 461.684,-87.6759 465.249,-81.6519"/>
</g>
<!-- Node10&#45;&gt;Node11 -->
<g id="edge20" class="edge"><title>Node10&#45;&gt;Node11</title>
<path fill="none" stroke="midnightblue" d="M941.872,-59.8737C868.841,-47.5604 741.185,-26.0369 682.766,-16.1874"/>
<polygon fill="midnightblue" stroke="midnightblue" points="683.136,-12.7003 672.693,-14.4889 681.972,-19.6029 683.136,-12.7003"/>
</g>
<!-- Node12 -->
<g id="node23" class="node"><title>Node12</title>
<polygon fill="white" stroke="#bfbfbf" points="970,-0.5 970,-21.5 1022,-21.5 1022,-0.5 970,-0.5"/>
<text text-anchor="middle" x="996" y="-8.5" font-family="Helvetica,sans-Serif" font-size="10.00">sstream</text>
</g>
<!-- Node10&#45;&gt;Node12 -->
<g id="edge22" class="edge"><title>Node10&#45;&gt;Node12</title>
<path fill="none" stroke="midnightblue" d="M996,-58.3619C996,-50.9219 996,-40.7427 996,-31.7276"/>
<polygon fill="midnightblue" stroke="midnightblue" points="999.5,-31.5706 996,-21.5707 992.5,-31.5707 999.5,-31.5706"/>
</g>
<!-- Node10&#45;&gt;Node13 -->
<g id="edge24" class="edge"><title>Node10&#45;&gt;Node13</title>
<path fill="none" stroke="midnightblue" d="M1026.6,-58.4966C1054.81,-48.818 1096.75,-34.4219 1127.07,-24.0173"/>
<polygon fill="midnightblue" stroke="midnightblue" points="1128.55,-27.211 1136.87,-20.6543 1126.27,-20.59 1128.55,-27.211"/>
</g>
<!-- Node21&#45;&gt;Node11 -->
<g id="edge48" class="edge"><title>Node21&#45;&gt;Node11</title>
<path fill="none" stroke="midnightblue" d="M589.09,-174.377C599.951,-146.172 629.662,-69.0121 644.021,-31.7203"/>
<polygon fill="midnightblue" stroke="midnightblue" points="647.465,-32.5175 647.792,-21.9277 640.933,-30.0021 647.465,-32.5175"/>
</g>
<!-- Node22&#45;&gt;Node4 -->
<g id="edge52" class="edge"><title>Node22&#45;&gt;Node4</title>
<path fill="none" stroke="midnightblue" d="M318.005,-232.362C326.547,-224.104 338.58,-212.472 348.583,-202.803"/>
<polygon fill="midnightblue" stroke="midnightblue" points="351.308,-205.037 356.065,-195.571 346.442,-200.004 351.308,-205.037"/>
</g>
<!-- Node22&#45;&gt;Node5 -->
<g id="edge54" class="edge"><title>Node22&#45;&gt;Node5</title>
<path fill="none" stroke="midnightblue" d="M293.619,-232.295C268.369,-212.096 213.52,-168.216 183.204,-143.963"/>
<polygon fill="midnightblue" stroke="midnightblue" points="185.344,-141.193 175.349,-137.679 180.971,-146.659 185.344,-141.193"/>
</g>
<!-- Node22&#45;&gt;Node15 -->
<g id="edge58" class="edge"><title>Node22&#45;&gt;Node15</title>
<path fill="none" stroke="midnightblue" d="M255.276,-236.124C165.336,-222.168 -4.66196,-185.758 57,-116 80.0626,-89.9092 319.954,-75.0416 406.272,-70.5043"/>
<polygon fill="midnightblue" stroke="midnightblue" points="406.669,-73.9885 416.475,-69.9787 406.308,-66.9978 406.669,-73.9885"/>
</g>
<!-- Node22&#45;&gt;Node20 -->
<g id="edge56" class="edge"><title>Node22&#45;&gt;Node20</title>
<path fill="none" stroke="midnightblue" d="M286.816,-232.428C268.754,-222.946 241.566,-208.624 218,-196 183.919,-177.744 144.858,-156.468 119.156,-142.421"/>
<polygon fill="midnightblue" stroke="midnightblue" points="120.779,-139.319 110.326,-137.592 117.42,-145.461 120.779,-139.319"/>
</g>
<!-- Node23&#45;&gt;Node3 -->
<g id="edge70" class="edge"><title>Node23&#45;&gt;Node3</title>
<path fill="none" stroke="midnightblue" d="M642.161,-290.362C631.998,-281.941 617.599,-270.011 605.796,-260.231"/>
<polygon fill="midnightblue" stroke="midnightblue" points="607.691,-257.256 597.758,-253.571 603.225,-262.646 607.691,-257.256"/>
</g>
<!-- Node23&#45;&gt;Node7 -->
<g id="edge64" class="edge"><title>Node23&#45;&gt;Node7</title>
<path fill="none" stroke="midnightblue" d="M677.841,-290.461C721.265,-268.984 814.637,-215.534 851,-138 858.707,-121.568 849.717,-102.289 840.094,-88.2929"/>
<polygon fill="midnightblue" stroke="midnightblue" points="842.64,-85.8533 833.848,-79.9414 837.034,-90.0457 842.64,-85.8533"/>
</g>
<!-- Node23&#45;&gt;Node22 -->
<g id="edge68" class="edge"><title>Node23&#45;&gt;Node22</title>
<path fill="none" stroke="midnightblue" d="M620.999,-295.333C562.521,-285.587 442.114,-265.519 368.57,-253.262"/>
<polygon fill="midnightblue" stroke="midnightblue" points="368.955,-249.778 358.515,-251.586 367.804,-256.682 368.955,-249.778"/>
</g>
<!-- Node24 -->
<g id="node55" class="node"><title>Node24</title>
<polygon fill="white" stroke="#bfbfbf" points="661.5,-232.5 661.5,-253.5 696.5,-253.5 696.5,-232.5 661.5,-232.5"/>
<text text-anchor="middle" x="679" y="-240.5" font-family="Helvetica,sans-Serif" font-size="10.00">map</text>
</g>
<!-- Node23&#45;&gt;Node24 -->
<g id="edge62" class="edge"><title>Node23&#45;&gt;Node24</title>
<path fill="none" stroke="midnightblue" d="M659.402,-290.362C662.582,-282.677 666.972,-272.069 670.79,-262.84"/>
<polygon fill="midnightblue" stroke="midnightblue" points="674.036,-264.149 674.626,-253.571 667.568,-261.473 674.036,-264.149"/>
</g>
<!-- Node23&#45;&gt;Node25 -->
<g id="edge66" class="edge"><title>Node23&#45;&gt;Node25</title>
<path fill="none" stroke="midnightblue" d="M689.208,-292.584C733.457,-281.609 808.052,-262.777 835,-254 836.229,-253.6 837.482,-253.174 838.743,-252.731"/>
<polygon fill="midnightblue" stroke="midnightblue" points="840.159,-255.939 848.297,-249.155 837.705,-249.383 840.159,-255.939"/>
</g>
<!-- Node27&#45;&gt;Node10 -->
<g id="edge86" class="edge"><title>Node27&#45;&gt;Node10</title>
<path fill="none" stroke="midnightblue" d="M1045.28,-348.411C1038.13,-339.265 1028.22,-325.439 1022,-312 1008.65,-283.131 1003,-274.808 1003,-243 1003,-243 1003,-243 1003,-185 1003,-151.537 1000.06,-112.743 997.992,-89.5713"/>
<polygon fill="midnightblue" stroke="midnightblue" points="1001.47,-89.1776 997.063,-79.5433 994.501,-89.8236 1001.47,-89.1776"/>
</g>
<!-- Node27&#45;&gt;Node11 -->
<g id="edge82" class="edge"><title>Node27&#45;&gt;Node11</title>
<path fill="none" stroke="midnightblue" d="M1006.92,-353.743C977.992,-348.087 942.324,-336.351 920,-312 841.256,-226.105 938.339,-139.443 855,-58 830.785,-34.3362 733.449,-20.1498 682.87,-14.2328"/>
<polygon fill="midnightblue" stroke="midnightblue" points="683.16,-10.7434 672.829,-13.0953 682.372,-17.6989 683.16,-10.7434"/>
</g>
<!-- Node27&#45;&gt;Node25 -->
<g id="edge84" class="edge"><title>Node27&#45;&gt;Node25</title>
<path fill="none" stroke="midnightblue" d="M1006.93,-350.781C963.879,-342.39 904.325,-328.309 887,-312 873.698,-299.478 867.767,-279.203 865.123,-263.864"/>
<polygon fill="midnightblue" stroke="midnightblue" points="868.561,-263.173 863.721,-253.749 861.627,-264.134 868.561,-263.173"/>
</g>
<!-- Node27&#45;&gt;Node26 -->
<g id="edge80" class="edge"><title>Node27&#45;&gt;Node26</title>
<path fill="none" stroke="midnightblue" d="M1006.64,-348.747C964.998,-339.589 902.818,-325.563 849,-312 847.743,-311.683 846.465,-311.357 845.175,-311.023"/>
<polygon fill="midnightblue" stroke="midnightblue" points="845.77,-307.56 835.207,-308.38 843.976,-314.326 845.77,-307.56"/>
</g>
<!-- Node28 -->
<g id="node72" class="node"><title>Node28</title>
<polygon fill="white" stroke="#bfbfbf" points="928.5,-290.5 928.5,-311.5 975.5,-311.5 975.5,-290.5 928.5,-290.5"/>
<text text-anchor="middle" x="952" y="-298.5" font-family="Helvetica,sans-Serif" font-size="10.00">TFile.h</text>
</g>
<!-- Node27&#45;&gt;Node28 -->
<g id="edge88" class="edge"><title>Node27&#45;&gt;Node28</title>
<path fill="none" stroke="midnightblue" d="M1035.29,-348.362C1019.62,-339.45 997.036,-326.609 979.337,-316.545"/>
<polygon fill="midnightblue" stroke="midnightblue" points="981.013,-313.471 970.59,-311.571 977.553,-319.556 981.013,-313.471"/>
</g>
<!-- Node27&#45;&gt;Node29 -->
<g id="edge90" class="edge"><title>Node27&#45;&gt;Node29</title>
<path fill="none" stroke="midnightblue" d="M1096.64,-348.484C1132.97,-339.517 1186.85,-326.202 1242.43,-312.386"/>
<polygon fill="midnightblue" stroke="midnightblue" points="1243.6,-315.703 1252.46,-309.893 1241.91,-308.909 1243.6,-315.703"/>
</g>
<!-- Node27&#45;&gt;Node30 -->
<g id="edge92" class="edge"><title>Node27&#45;&gt;Node30</title>
<path fill="none" stroke="midnightblue" d="M1101.13,-353.04C1154.68,-345.823 1244.81,-332.334 1330.81,-312.054"/>
<polygon fill="midnightblue" stroke="midnightblue" points="1331.82,-315.411 1340.73,-309.679 1330.19,-308.603 1331.82,-315.411"/>
</g>
<!-- Node31 -->
<g id="node78" class="node"><title>Node31</title>
<polygon fill="white" stroke="#bfbfbf" points="1030.5,-290.5 1030.5,-311.5 1077.5,-311.5 1077.5,-290.5 1030.5,-290.5"/>
<text text-anchor="middle" x="1054" y="-298.5" font-family="Helvetica,sans-Serif" font-size="10.00">TList.h</text>
</g>
<!-- Node27&#45;&gt;Node31 -->
<g id="edge94" class="edge"><title>Node27&#45;&gt;Node31</title>
<path fill="none" stroke="midnightblue" d="M1054,-348.362C1054,-340.922 1054,-330.743 1054,-321.728"/>
<polygon fill="midnightblue" stroke="midnightblue" points="1057.5,-321.571 1054,-311.571 1050.5,-321.571 1057.5,-321.571"/>
</g>
<!-- Node32 -->
<g id="node80" class="node"><title>Node32</title>
<polygon fill="white" stroke="#bfbfbf" points="1095,-290.5 1095,-311.5 1169,-311.5 1169,-290.5 1095,-290.5"/>
<text text-anchor="middle" x="1132" y="-298.5" font-family="Helvetica,sans-Serif" font-size="10.00">TCollection.h</text>
</g>
<!-- Node27&#45;&gt;Node32 -->
<g id="edge96" class="edge"><title>Node27&#45;&gt;Node32</title>
<path fill="none" stroke="midnightblue" d="M1068.31,-348.362C1079.85,-339.777 1096.3,-327.546 1109.59,-317.664"/>
<polygon fill="midnightblue" stroke="midnightblue" points="1111.85,-320.346 1117.78,-311.571 1107.67,-314.729 1111.85,-320.346"/>
</g>
<!-- Node33 -->
<g id="node82" class="node"><title>Node33</title>
<polygon fill="white" stroke="#bfbfbf" points="1187,-290.5 1187,-311.5 1235,-311.5 1235,-290.5 1187,-290.5"/>
<text text-anchor="middle" x="1211" y="-298.5" font-family="Helvetica,sans-Serif" font-size="10.00">TKey.h</text>
</g>
<!-- Node27&#45;&gt;Node33 -->
<g id="edge98" class="edge"><title>Node27&#45;&gt;Node33</title>
<path fill="none" stroke="midnightblue" d="M1082.43,-348.497C1109.15,-338.627 1149.15,-323.85 1177.42,-313.404"/>
<polygon fill="midnightblue" stroke="midnightblue" points="1178.73,-316.654 1186.89,-309.905 1176.3,-310.087 1178.73,-316.654"/>
</g>
<!-- Node35 -->
<g id="node86" class="node"><title>Node35</title>
<polygon fill="white" stroke="#bfbfbf" points="1486.5,-290.5 1486.5,-311.5 1601.5,-311.5 1601.5,-290.5 1486.5,-290.5"/>
<text text-anchor="middle" x="1544" y="-298.5" font-family="Helvetica,sans-Serif" font-size="10.00">detail/easylogging++.h</text>
</g>
<!-- Node34&#45;&gt;Node35 -->
<g id="edge102" class="edge"><title>Node34&#45;&gt;Node35</title>
<path fill="none" stroke="midnightblue" d="M1529.3,-348.362C1531.66,-340.758 1534.91,-330.294 1537.75,-321.135"/>
<polygon fill="midnightblue" stroke="midnightblue" points="1541.1,-322.159 1540.72,-311.571 1534.41,-320.084 1541.1,-322.159"/>
</g>
<!-- Node36&#45;&gt;Node25 -->
<g id="edge108" class="edge"><title>Node36&#45;&gt;Node25</title>
<path fill="none" stroke="midnightblue" d="M796.814,-348.458C782.44,-334.699 761.934,-310.017 774,-290 781.301,-277.888 814.954,-262.301 838.714,-252.477"/>
<polygon fill="midnightblue" stroke="midnightblue" points="840.227,-255.64 848.185,-248.646 837.602,-249.151 840.227,-255.64"/>
</g>
<!-- Node36&#45;&gt;Node26 -->
<g id="edge106" class="edge"><title>Node36&#45;&gt;Node26</title>
<path fill="none" stroke="midnightblue" d="M809,-348.362C809,-340.922 809,-330.743 809,-321.728"/>
<polygon fill="midnightblue" stroke="midnightblue" points="812.5,-321.571 809,-311.571 805.5,-321.571 812.5,-321.571"/>
</g>
<!-- Node37&#45;&gt;Node6 -->
<g id="edge116" class="edge"><title>Node37&#45;&gt;Node6</title>
<path fill="none" stroke="midnightblue" d="M1053.83,-179.898C995.065,-172.254 881.985,-156.871 775.994,-138.099"/>
<polygon fill="midnightblue" stroke="midnightblue" points="776.549,-134.642 766.09,-136.331 775.319,-141.534 776.549,-134.642"/>
</g>
<!-- Node37&#45;&gt;Node13 -->
<g id="edge112" class="edge"><title>Node37&#45;&gt;Node13</title>
<path fill="none" stroke="midnightblue" d="M1110.89,-174.4C1122.73,-166.024 1137.83,-153.229 1146,-138 1164.17,-104.112 1166.48,-58.2393 1166.05,-31.9133"/>
<polygon fill="midnightblue" stroke="midnightblue" points="1169.54,-31.4964 1165.73,-21.6124 1162.55,-31.7183 1169.54,-31.4964"/>
</g>
<!-- Node37&#45;&gt;Node19 -->
<g id="edge114" class="edge"><title>Node37&#45;&gt;Node19</title>
<path fill="none" stroke="midnightblue" d="M1053.74,-176.69C1000.25,-165.649 906.3,-146.258 852.959,-135.248"/>
<polygon fill="midnightblue" stroke="midnightblue" points="853.357,-131.756 842.856,-133.162 851.942,-138.612 853.357,-131.756"/>
</g>
<!-- Node38 -->
<g id="node97" class="node"><title>Node38</title>
<a xlink:href="types_8h.html" target="_top" xlink:title="types.h">
<polygon fill="white" stroke="black" points="1030.5,-116.5 1030.5,-137.5 1079.5,-137.5 1079.5,-116.5 1030.5,-116.5"/>
<text text-anchor="middle" x="1055" y="-124.5" font-family="Helvetica,sans-Serif" font-size="10.00">types.h</text>
</a>
</g>
<!-- Node37&#45;&gt;Node38 -->
<g id="edge118" class="edge"><title>Node37&#45;&gt;Node38</title>
<path fill="none" stroke="midnightblue" d="M1086.85,-174.362C1081.51,-166.431 1074.09,-155.389 1067.75,-145.961"/>
<polygon fill="midnightblue" stroke="midnightblue" points="1070.59,-143.916 1062.11,-137.571 1064.78,-147.822 1070.59,-143.916"/>
</g>
<!-- Node39 -->
<g id="node99" class="node"><title>Node39</title>
<polygon fill="white" stroke="#bfbfbf" points="1097,-116.5 1097,-137.5 1137,-137.5 1137,-116.5 1097,-116.5"/>
<text text-anchor="middle" x="1117" y="-124.5" font-family="Helvetica,sans-Serif" font-size="10.00">limits</text>
</g>
<!-- Node37&#45;&gt;Node39 -->
<g id="edge120" class="edge"><title>Node37&#45;&gt;Node39</title>
<path fill="none" stroke="midnightblue" d="M1098.22,-174.362C1101.23,-166.758 1105.38,-156.294 1109.02,-147.135"/>
<polygon fill="midnightblue" stroke="midnightblue" points="1112.38,-148.157 1112.81,-137.571 1105.87,-145.576 1112.38,-148.157"/>
</g>
</g>
</svg>
