<?xml version="1.0" encoding="UTF-8" standalone="no"?>
<!DOCTYPE svg PUBLIC "-//W3C//DTD SVG 1.1//EN"
 "http://www.w3.org/Graphics/SVG/1.1/DTD/svg11.dtd">
<!-- Generated by graphviz version 2.26.3 (20100126.1600)
 -->
<!-- Title: src/calibration/DataManager.h Pages: 1 -->
<svg width="1023pt" height="378pt"
 viewBox="0.00 0.00 1023.00 378.00" xmlns="http://www.w3.org/2000/svg" xmlns:xlink="http://www.w3.org/1999/xlink">
<g id="graph1" class="graph" transform="scale(1 1) rotate(0) translate(4 374)">
<title>src/calibration/DataManager.h</title>
<polygon fill="white" stroke="white" points="-4,5 -4,-374 1020,-374 1020,5 -4,5"/>
<!-- Node1 -->
<g id="node1" class="node"><title>Node1</title>
<polygon fill="#bfbfbf" stroke="black" points="768.5,-348.5 768.5,-369.5 915.5,-369.5 915.5,-348.5 768.5,-348.5"/>
<text text-anchor="middle" x="842" y="-356.5" font-family="Helvetica,sans-Serif" font-size="10.00">src/calibration/DataManager.h</text>
</g>
<!-- Node2 -->
<g id="node3" class="node"><title>Node2</title>
<a xlink:href="_t_calibration_data_8h.html" target="_top" xlink:title="tree/TCalibrationData.h">
<polygon fill="white" stroke="black" points="320,-232.5 320,-253.5 438,-253.5 438,-232.5 320,-232.5"/>
<text text-anchor="middle" x="379" y="-240.5" font-family="Helvetica,sans-Serif" font-size="10.00">tree/TCalibrationData.h</text>
</a>
</g>
<!-- Node1&#45;&gt;Node2 -->
<g id="edge2" class="edge"><title>Node1&#45;&gt;Node2</title>
<path fill="none" stroke="midnightblue" d="M799.684,-348.398C714.692,-327.104 523.483,-279.199 431.021,-256.033"/>
<polygon fill="midnightblue" stroke="midnightblue" points="431.601,-252.57 421.05,-253.535 429.899,-259.361 431.601,-252.57"/>
</g>
<!-- Node10 -->
<g id="node19" class="node"><title>Node10</title>
<polygon fill="white" stroke="#bfbfbf" points="59.5,-0.5 59.5,-21.5 100.5,-21.5 100.5,-0.5 59.5,-0.5"/>
<text text-anchor="middle" x="80" y="-8.5" font-family="Helvetica,sans-Serif" font-size="10.00">string</text>
</g>
<!-- Node1&#45;&gt;Node10 -->
<g id="edge72" class="edge"><title>Node1&#45;&gt;Node10</title>
<path fill="none" stroke="midnightblue" d="M768.384,-356.544C563.225,-348.729 0,-320.239 0,-243 0,-243 0,-243 0,-127 0,-86.0777 34.1574,-49.1067 57.8334,-28.3957"/>
<polygon fill="midnightblue" stroke="midnightblue" points="60.3063,-30.8888 65.6976,-21.7683 55.7954,-25.5361 60.3063,-30.8888"/>
</g>
<!-- Node21 -->
<g id="node45" class="node"><title>Node21</title>
<a xlink:href="_t_data_record_8h.html" target="_top" xlink:title="tree/TDataRecord.h">
<polygon fill="white" stroke="black" points="759.5,-232.5 759.5,-253.5 862.5,-253.5 862.5,-232.5 759.5,-232.5"/>
<text text-anchor="middle" x="811" y="-240.5" font-family="Helvetica,sans-Serif" font-size="10.00">tree/TDataRecord.h</text>
</a>
</g>
<!-- Node1&#45;&gt;Node21 -->
<g id="edge48" class="edge"><title>Node1&#45;&gt;Node21</title>
<path fill="none" stroke="midnightblue" d="M839.139,-348.295C833.995,-329.045 823.103,-288.289 816.481,-263.509"/>
<polygon fill="midnightblue" stroke="midnightblue" points="819.817,-262.437 813.854,-253.679 813.054,-264.244 819.817,-262.437"/>
</g>
<!-- Node22 -->
<g id="node51" class="node"><title>Node22</title>
<a xlink:href="_data_base_8h.html" target="_top" xlink:title="DataBase.h">
<polygon fill="white" stroke="black" points="839,-290.5 839,-311.5 907,-311.5 907,-290.5 839,-290.5"/>
<text text-anchor="middle" x="873" y="-298.5" font-family="Helvetica,sans-Serif" font-size="10.00">DataBase.h</text>
</a>
</g>
<!-- Node1&#45;&gt;Node22 -->
<g id="edge58" class="edge"><title>Node1&#45;&gt;Node22</title>
<path fill="none" stroke="midnightblue" d="M847.686,-348.362C851.837,-340.595 857.584,-329.843 862.553,-320.546"/>
<polygon fill="midnightblue" stroke="midnightblue" points="865.723,-322.04 867.35,-311.571 859.55,-318.74 865.723,-322.04"/>
</g>
<!-- Node24 -->
<g id="node56" class="node"><title>Node24</title>
<polygon fill="white" stroke="#bfbfbf" points="975.5,-232.5 975.5,-253.5 1004.5,-253.5 1004.5,-232.5 975.5,-232.5"/>
<text text-anchor="middle" x="990" y="-240.5" font-family="Helvetica,sans-Serif" font-size="10.00">list</text>
</g>
<!-- Node1&#45;&gt;Node24 -->
<g id="edge70" class="edge"><title>Node1&#45;&gt;Node24</title>
<path fill="none" stroke="midnightblue" d="M860.884,-348.319C876.232,-339.333 898.18,-325.777 916,-312 936.402,-296.226 957.741,-275.851 972.232,-261.341"/>
<polygon fill="midnightblue" stroke="midnightblue" points="974.995,-263.524 979.529,-253.949 970.013,-258.607 974.995,-263.524"/>
</g>
<!-- Node25 -->
<g id="node62" class="node"><title>Node25</title>
<polygon fill="white" stroke="#bfbfbf" points="963,-290.5 963,-311.5 1015,-311.5 1015,-290.5 963,-290.5"/>
<text text-anchor="middle" x="989" y="-298.5" font-family="Helvetica,sans-Serif" font-size="10.00">memory</text>
</g>
<!-- Node1&#45;&gt;Node25 -->
<g id="edge74" class="edge"><title>Node1&#45;&gt;Node25</title>
<path fill="none" stroke="midnightblue" d="M868.621,-348.497C892.244,-339.176 926.956,-325.48 953.043,-315.187"/>
<polygon fill="midnightblue" stroke="midnightblue" points="954.56,-318.351 962.577,-311.425 951.991,-311.84 954.56,-318.351"/>
</g>
<!-- Node3 -->
<g id="node5" class="node"><title>Node3</title>
<a xlink:href="_t_i_d_8h.html" target="_top" xlink:title="TID.h">
<polygon fill="white" stroke="black" points="470.5,-174.5 470.5,-195.5 511.5,-195.5 511.5,-174.5 470.5,-174.5"/>
<text text-anchor="middle" x="491" y="-182.5" font-family="Helvetica,sans-Serif" font-size="10.00">TID.h</text>
</a>
</g>
<!-- Node2&#45;&gt;Node3 -->
<g id="edge4" class="edge"><title>Node2&#45;&gt;Node3</title>
<path fill="none" stroke="midnightblue" d="M399.282,-232.497C416.618,-223.519 441.79,-210.484 461.38,-200.339"/>
<polygon fill="midnightblue" stroke="midnightblue" points="463.22,-203.328 470.49,-195.621 460.001,-197.112 463.22,-203.328"/>
</g>
<!-- Node2&#45;&gt;Node10 -->
<g id="edge40" class="edge"><title>Node2&#45;&gt;Node10</title>
<path fill="none" stroke="midnightblue" d="M319.827,-232.487C263.238,-219.52 179.037,-192.18 127,-138 111.995,-122.377 94.2393,-63.442 85.4675,-31.6433"/>
<polygon fill="midnightblue" stroke="midnightblue" points="88.7515,-30.38 82.7587,-21.6429 81.995,-32.2101 88.7515,-30.38"/>
</g>
<!-- Node14 -->
<g id="node27" class="node"><title>Node14</title>
<polygon fill="white" stroke="#bfbfbf" points="322.5,-58.5 322.5,-79.5 363.5,-79.5 363.5,-58.5 322.5,-58.5"/>
<text text-anchor="middle" x="343" y="-66.5" font-family="Helvetica,sans-Serif" font-size="10.00">ctime</text>
</g>
<!-- Node2&#45;&gt;Node14 -->
<g id="edge42" class="edge"><title>Node2&#45;&gt;Node14</title>
<path fill="none" stroke="midnightblue" d="M369.525,-232.345C354.28,-214.404 324.911,-176.355 314,-138 311.325,-128.595 311.332,-125.407 314,-116 316.814,-106.081 322.38,-96.2026 327.891,-88.0804"/>
<polygon fill="midnightblue" stroke="midnightblue" points="330.897,-89.8969 333.939,-79.748 325.232,-85.7851 330.897,-89.8969"/>
</g>
<!-- Node20 -->
<g id="node42" class="node"><title>Node20</title>
<a xlink:href="_git_info_8h.html" target="_top" xlink:title="base/GitInfo.h">
<polygon fill="white" stroke="black" points="28,-174.5 28,-195.5 106,-195.5 106,-174.5 28,-174.5"/>
<text text-anchor="middle" x="67" y="-182.5" font-family="Helvetica,sans-Serif" font-size="10.00">base/GitInfo.h</text>
</a>
</g>
<!-- Node2&#45;&gt;Node20 -->
<g id="edge44" class="edge"><title>Node2&#45;&gt;Node20</title>
<path fill="none" stroke="midnightblue" d="M319.773,-232.689C267.225,-223.436 188.41,-209.304 120,-196 118.729,-195.753 117.441,-195.5 116.142,-195.244"/>
<polygon fill="midnightblue" stroke="midnightblue" points="116.545,-191.755 106.052,-193.221 115.169,-198.619 116.545,-191.755"/>
</g>
<!-- Node4 -->
<g id="node7" class="node"><title>Node4</title>
<polygon fill="white" stroke="#bfbfbf" points="712,-116.5 712,-137.5 768,-137.5 768,-116.5 712,-116.5"/>
<text text-anchor="middle" x="740" y="-124.5" font-family="Helvetica,sans-Serif" font-size="10.00">Rtypes.h</text>
</g>
<!-- Node3&#45;&gt;Node4 -->
<g id="edge6" class="edge"><title>Node3&#45;&gt;Node4</title>
<path fill="none" stroke="midnightblue" d="M511.581,-180.942C547.96,-173.663 626.188,-157.53 701.635,-138.233"/>
<polygon fill="midnightblue" stroke="midnightblue" points="702.968,-141.503 711.776,-135.615 701.218,-134.726 702.968,-141.503"/>
</g>
<!-- Node5 -->
<g id="node9" class="node"><title>Node5</title>
<a xlink:href="printable_8h.html" target="_top" xlink:title="base/printable.h">
<polygon fill="white" stroke="black" points="608,-116.5 608,-137.5 694,-137.5 694,-116.5 608,-116.5"/>
<text text-anchor="middle" x="651" y="-124.5" font-family="Helvetica,sans-Serif" font-size="10.00">base/printable.h</text>
</a>
</g>
<!-- Node3&#45;&gt;Node5 -->
<g id="edge8" class="edge"><title>Node3&#45;&gt;Node5</title>
<path fill="none" stroke="midnightblue" d="M511.59,-177.536C536.984,-168.331 580.675,-152.493 612.389,-140.996"/>
<polygon fill="midnightblue" stroke="midnightblue" points="613.605,-144.279 621.813,-137.58 611.219,-137.698 613.605,-144.279"/>
</g>
<!-- Node8 -->
<g id="node15" class="node"><title>Node8</title>
<a xlink:href="time_8h.html" target="_top" xlink:title="base/std_ext/time.h">
<polygon fill="white" stroke="black" points="135.5,-116.5 135.5,-137.5 238.5,-137.5 238.5,-116.5 135.5,-116.5"/>
<text text-anchor="middle" x="187" y="-124.5" font-family="Helvetica,sans-Serif" font-size="10.00">base/std_ext/time.h</text>
</a>
</g>
<!-- Node3&#45;&gt;Node8 -->
<g id="edge14" class="edge"><title>Node3&#45;&gt;Node8</title>
<path fill="none" stroke="midnightblue" d="M470.105,-181.013C425.035,-172.415 317.209,-151.843 248.396,-138.714"/>
<polygon fill="midnightblue" stroke="midnightblue" points="249.017,-135.269 238.539,-136.833 247.705,-142.145 249.017,-135.269"/>
</g>
<!-- Node3&#45;&gt;Node14 -->
<g id="edge38" class="edge"><title>Node3&#45;&gt;Node14</title>
<path fill="none" stroke="midnightblue" d="M470.284,-182.318C429.434,-176.558 340.893,-161.586 323,-138 312.013,-123.518 320.02,-103.16 328.954,-88.3115"/>
<polygon fill="midnightblue" stroke="midnightblue" points="331.924,-90.1633 334.474,-79.8799 326.068,-86.3287 331.924,-90.1633"/>
</g>
<!-- Node15 -->
<g id="node29" class="node"><title>Node15</title>
<polygon fill="white" stroke="#bfbfbf" points="332,-116.5 332,-137.5 394,-137.5 394,-116.5 332,-116.5"/>
<text text-anchor="middle" x="363" y="-124.5" font-family="Helvetica,sans-Serif" font-size="10.00">type_traits</text>
</g>
<!-- Node3&#45;&gt;Node15 -->
<g id="edge28" class="edge"><title>Node3&#45;&gt;Node15</title>
<path fill="none" stroke="midnightblue" d="M470.435,-175.681C450.31,-166.563 419.338,-152.528 395.81,-141.867"/>
<polygon fill="midnightblue" stroke="midnightblue" points="397.109,-138.613 386.556,-137.674 394.22,-144.989 397.109,-138.613"/>
</g>
<!-- Node16 -->
<g id="node31" class="node"><title>Node16</title>
<polygon fill="white" stroke="#bfbfbf" points="412,-116.5 412,-137.5 450,-137.5 450,-116.5 412,-116.5"/>
<text text-anchor="middle" x="431" y="-124.5" font-family="Helvetica,sans-Serif" font-size="10.00">tuple</text>
</g>
<!-- Node3&#45;&gt;Node16 -->
<g id="edge30" class="edge"><title>Node3&#45;&gt;Node16</title>
<path fill="none" stroke="midnightblue" d="M479.995,-174.362C471.453,-166.104 459.42,-154.472 449.417,-144.803"/>
<polygon fill="midnightblue" stroke="midnightblue" points="451.558,-142.004 441.935,-137.571 446.692,-147.037 451.558,-142.004"/>
</g>
<!-- Node17 -->
<g id="node33" class="node"><title>Node17</title>
<polygon fill="white" stroke="#bfbfbf" points="468,-116.5 468,-137.5 514,-137.5 514,-116.5 468,-116.5"/>
<text text-anchor="middle" x="491" y="-124.5" font-family="Helvetica,sans-Serif" font-size="10.00">cstdint</text>
</g>
<!-- Node3&#45;&gt;Node17 -->
<g id="edge32" class="edge"><title>Node3&#45;&gt;Node17</title>
<path fill="none" stroke="midnightblue" d="M491,-174.362C491,-166.922 491,-156.743 491,-147.728"/>
<polygon fill="midnightblue" stroke="midnightblue" points="494.5,-147.571 491,-137.571 487.5,-147.571 494.5,-147.571"/>
</g>
<!-- Node18 -->
<g id="node35" class="node"><title>Node18</title>
<polygon fill="white" stroke="#bfbfbf" points="531.5,-116.5 531.5,-137.5 590.5,-137.5 590.5,-116.5 531.5,-116.5"/>
<text text-anchor="middle" x="561" y="-124.5" font-family="Helvetica,sans-Serif" font-size="10.00">stdexcept</text>
</g>
<!-- Node3&#45;&gt;Node18 -->
<g id="edge34" class="edge"><title>Node3&#45;&gt;Node18</title>
<path fill="none" stroke="midnightblue" d="M503.839,-174.362C514.002,-165.941 528.401,-154.011 540.204,-144.231"/>
<polygon fill="midnightblue" stroke="midnightblue" points="542.775,-146.646 548.242,-137.571 538.309,-141.256 542.775,-146.646"/>
</g>
<!-- Node19 -->
<g id="node37" class="node"><title>Node19</title>
<polygon fill="white" stroke="#bfbfbf" points="786,-116.5 786,-137.5 836,-137.5 836,-116.5 786,-116.5"/>
<text text-anchor="middle" x="811" y="-124.5" font-family="Helvetica,sans-Serif" font-size="10.00">iomanip</text>
</g>
<!-- Node3&#45;&gt;Node19 -->
<g id="edge36" class="edge"><title>Node3&#45;&gt;Node19</title>
<path fill="none" stroke="midnightblue" d="M511.673,-182.683C557.618,-177.307 671.759,-162.696 776.126,-137.943"/>
<polygon fill="midnightblue" stroke="midnightblue" points="776.968,-141.34 785.869,-135.595 775.328,-134.535 776.968,-141.34"/>
</g>
<!-- Node6 -->
<g id="node11" class="node"><title>Node6</title>
<polygon fill="white" stroke="#bfbfbf" points="787,-58.5 787,-79.5 831,-79.5 831,-58.5 787,-58.5"/>
<text text-anchor="middle" x="809" y="-66.5" font-family="Helvetica,sans-Serif" font-size="10.00">vector</text>
</g>
<!-- Node5&#45;&gt;Node6 -->
<g id="edge10" class="edge"><title>Node5&#45;&gt;Node6</title>
<path fill="none" stroke="midnightblue" d="M679.613,-116.497C707.137,-106.393 748.666,-91.1481 777.209,-80.67"/>
<polygon fill="midnightblue" stroke="midnightblue" points="778.538,-83.9105 786.72,-77.1788 776.126,-77.3393 778.538,-83.9105"/>
</g>
<!-- Node7 -->
<g id="node13" class="node"><title>Node7</title>
<polygon fill="white" stroke="#bfbfbf" points="625,-58.5 625,-79.5 677,-79.5 677,-58.5 625,-58.5"/>
<text text-anchor="middle" x="651" y="-66.5" font-family="Helvetica,sans-Serif" font-size="10.00">ostream</text>
</g>
<!-- Node5&#45;&gt;Node7 -->
<g id="edge12" class="edge"><title>Node5&#45;&gt;Node7</title>
<path fill="none" stroke="midnightblue" d="M651,-116.362C651,-108.922 651,-98.7427 651,-89.7276"/>
<polygon fill="midnightblue" stroke="midnightblue" points="654.5,-89.5706 651,-79.5707 647.5,-89.5707 654.5,-89.5706"/>
</g>
<!-- Node9 -->
<g id="node17" class="node"><title>Node9</title>
<a xlink:href="string_8h.html" target="_top" xlink:title="base/std_ext/string.h">
<polygon fill="white" stroke="black" points="133,-58.5 133,-79.5 241,-79.5 241,-58.5 133,-58.5"/>
<text text-anchor="middle" x="187" y="-66.5" font-family="Helvetica,sans-Serif" font-size="10.00">base/std_ext/string.h</text>
</a>
</g>
<!-- Node8&#45;&gt;Node9 -->
<g id="edge16" class="edge"><title>Node8&#45;&gt;Node9</title>
<path fill="none" stroke="midnightblue" d="M187,-116.362C187,-108.922 187,-98.7427 187,-89.7276"/>
<polygon fill="midnightblue" stroke="midnightblue" points="190.5,-89.5706 187,-79.5707 183.5,-89.5707 190.5,-89.5706"/>
</g>
<!-- Node13 -->
<g id="node25" class="node"><title>Node13</title>
<polygon fill="white" stroke="#bfbfbf" points="259,-58.5 259,-79.5 305,-79.5 305,-58.5 259,-58.5"/>
<text text-anchor="middle" x="282" y="-66.5" font-family="Helvetica,sans-Serif" font-size="10.00">cstring</text>
</g>
<!-- Node8&#45;&gt;Node13 -->
<g id="edge24" class="edge"><title>Node8&#45;&gt;Node13</title>
<path fill="none" stroke="midnightblue" d="M204.424,-116.362C218.887,-107.532 239.669,-94.844 256.084,-84.8224"/>
<polygon fill="midnightblue" stroke="midnightblue" points="257.975,-87.7688 264.686,-79.5707 254.327,-81.7943 257.975,-87.7688"/>
</g>
<!-- Node8&#45;&gt;Node14 -->
<g id="edge26" class="edge"><title>Node8&#45;&gt;Node14</title>
<path fill="none" stroke="midnightblue" d="M215.775,-116.426C239.519,-107.685 274.336,-94.8292 312.612,-80.5044"/>
<polygon fill="midnightblue" stroke="midnightblue" points="314.276,-83.6184 322.413,-76.8325 311.82,-77.0634 314.276,-83.6184"/>
</g>
<!-- Node9&#45;&gt;Node10 -->
<g id="edge18" class="edge"><title>Node9&#45;&gt;Node10</title>
<path fill="none" stroke="midnightblue" d="M167.375,-58.3619C150.859,-49.4094 127.026,-36.4908 108.422,-26.4064"/>
<polygon fill="midnightblue" stroke="midnightblue" points="109.96,-23.2592 99.501,-21.5707 106.625,-29.4132 109.96,-23.2592"/>
</g>
<!-- Node11 -->
<g id="node21" class="node"><title>Node11</title>
<polygon fill="white" stroke="#bfbfbf" points="219,-0.5 219,-21.5 271,-21.5 271,-0.5 219,-0.5"/>
<text text-anchor="middle" x="245" y="-8.5" font-family="Helvetica,sans-Serif" font-size="10.00">sstream</text>
</g>
<!-- Node9&#45;&gt;Node11 -->
<g id="edge20" class="edge"><title>Node9&#45;&gt;Node11</title>
<path fill="none" stroke="midnightblue" d="M197.638,-58.3619C205.896,-50.1043 217.528,-38.4725 227.197,-28.8029"/>
<polygon fill="midnightblue" stroke="midnightblue" points="229.833,-31.1166 234.429,-21.5707 224.883,-26.1669 229.833,-31.1166"/>
</g>
<!-- Node12 -->
<g id="node23" class="node"><title>Node12</title>
<polygon fill="white" stroke="#bfbfbf" points="145,-0.5 145,-21.5 201,-21.5 201,-0.5 145,-0.5"/>
<text text-anchor="middle" x="173" y="-8.5" font-family="Helvetica,sans-Serif" font-size="10.00">algorithm</text>
</g>
<!-- Node9&#45;&gt;Node12 -->
<g id="edge22" class="edge"><title>Node9&#45;&gt;Node12</title>
<path fill="none" stroke="midnightblue" d="M184.432,-58.3619C182.617,-50.8401 180.125,-40.5187 177.932,-31.4308"/>
<polygon fill="midnightblue" stroke="midnightblue" points="181.3,-30.4702 175.552,-21.5707 174.496,-32.1127 181.3,-30.4702"/>
</g>
<!-- Node20&#45;&gt;Node10 -->
<g id="edge46" class="edge"><title>Node20&#45;&gt;Node10</title>
<path fill="none" stroke="midnightblue" d="M67.7936,-174.377C69.8919,-146.293 75.6163,-69.6735 78.4159,-32.2027"/>
<polygon fill="midnightblue" stroke="midnightblue" points="81.9287,-32.1607 79.1836,-21.9277 74.9481,-31.6391 81.9287,-32.1607"/>
</g>
<!-- Node21&#45;&gt;Node3 -->
<g id="edge50" class="edge"><title>Node21&#45;&gt;Node3</title>
<path fill="none" stroke="midnightblue" d="M759.231,-233.617C692.068,-221.444 577.008,-200.589 522.025,-190.623"/>
<polygon fill="midnightblue" stroke="midnightblue" points="522.325,-187.121 511.862,-188.781 521.077,-194.009 522.325,-187.121"/>
</g>
<!-- Node21&#45;&gt;Node4 -->
<g id="edge52" class="edge"><title>Node21&#45;&gt;Node4</title>
<path fill="none" stroke="midnightblue" d="M804.448,-232.295C792.507,-212.786 767.046,-171.188 751.946,-146.518"/>
<polygon fill="midnightblue" stroke="midnightblue" points="754.742,-144.381 746.536,-137.679 748.772,-148.036 754.742,-144.381"/>
</g>
<!-- Node21&#45;&gt;Node14 -->
<g id="edge56" class="edge"><title>Node21&#45;&gt;Node14</title>
<path fill="none" stroke="midnightblue" d="M819.582,-232.272C837.696,-208.281 875.738,-149.751 845,-116 829.045,-98.4811 480.839,-76.9679 373.934,-70.7553"/>
<polygon fill="midnightblue" stroke="midnightblue" points="373.982,-67.2523 363.797,-70.1701 373.578,-74.2407 373.982,-67.2523"/>
</g>
<!-- Node21&#45;&gt;Node19 -->
<g id="edge54" class="edge"><title>Node21&#45;&gt;Node19</title>
<path fill="none" stroke="midnightblue" d="M811,-232.295C811,-213.131 811,-172.654 811,-147.843"/>
<polygon fill="midnightblue" stroke="midnightblue" points="814.5,-147.679 811,-137.679 807.5,-147.679 814.5,-147.679"/>
</g>
<!-- Node22&#45;&gt;Node2 -->
<g id="edge68" class="edge"><title>Node22&#45;&gt;Node2</title>
<path fill="none" stroke="midnightblue" d="M838.655,-296.968C758.107,-287.511 555.767,-263.754 448.409,-251.149"/>
<polygon fill="midnightblue" stroke="midnightblue" points="448.663,-247.655 438.323,-249.965 447.847,-254.607 448.663,-247.655"/>
</g>
<!-- Node22&#45;&gt;Node6 -->
<g id="edge62" class="edge"><title>Node22&#45;&gt;Node6</title>
<path fill="none" stroke="midnightblue" d="M875.314,-290.242C881.121,-260.581 893.811,-175.873 864,-116 857.816,-103.579 846.727,-93.1265 836.119,-85.2558"/>
<polygon fill="midnightblue" stroke="midnightblue" points="838.031,-82.3228 827.817,-79.5091 834.047,-88.0785 838.031,-82.3228"/>
</g>
<!-- Node22&#45;&gt;Node21 -->
<g id="edge66" class="edge"><title>Node22&#45;&gt;Node21</title>
<path fill="none" stroke="midnightblue" d="M861.628,-290.362C852.714,-282.023 840.121,-270.242 829.724,-260.516"/>
<polygon fill="midnightblue" stroke="midnightblue" points="831.993,-257.846 822.3,-253.571 827.211,-262.958 831.993,-257.846"/>
</g>
<!-- Node23 -->
<g id="node53" class="node"><title>Node23</title>
<polygon fill="white" stroke="#bfbfbf" points="923.5,-232.5 923.5,-253.5 958.5,-253.5 958.5,-232.5 923.5,-232.5"/>
<text text-anchor="middle" x="941" y="-240.5" font-family="Helvetica,sans-Serif" font-size="10.00">map</text>
</g>
<!-- Node22&#45;&gt;Node23 -->
<g id="edge60" class="edge"><title>Node22&#45;&gt;Node23</title>
<path fill="none" stroke="midnightblue" d="M885.472,-290.362C895.345,-281.941 909.333,-270.011 920.798,-260.231"/>
<polygon fill="midnightblue" stroke="midnightblue" points="923.27,-262.723 928.607,-253.571 918.727,-257.397 923.27,-262.723"/>
</g>
<!-- Node22&#45;&gt;Node24 -->
<g id="edge64" class="edge"><title>Node22&#45;&gt;Node24</title>
<path fill="none" stroke="midnightblue" d="M894.188,-290.497C914.518,-280.419 945.165,-265.226 966.297,-254.75"/>
<polygon fill="midnightblue" stroke="midnightblue" points="967.86,-257.882 975.265,-250.304 964.751,-251.61 967.86,-257.882"/>
</g>
</g>
</svg>
