<?xml version="1.0" encoding="UTF-8" standalone="no"?>
<!DOCTYPE svg PUBLIC "-//W3C//DTD SVG 1.1//EN"
 "http://www.w3.org/Graphics/SVG/1.1/DTD/svg11.dtd">
<!-- Generated by graphviz version 2.26.3 (20100126.1600)
 -->
<!-- Title: src/analysis/physics/DeltaTreeGenerator/DeltaTreeGenerator.h Pages: 1 -->
<svg width="158pt" height="140pt"
 viewBox="0.00 0.00 158.00 140.00" xmlns="http://www.w3.org/2000/svg" xmlns:xlink="http://www.w3.org/1999/xlink">
<g id="graph1" class="graph" transform="scale(1 1) rotate(0) translate(4 136)">
<title>src/analysis/physics/DeltaTreeGenerator/DeltaTreeGenerator.h</title>
<polygon fill="white" stroke="white" points="-4,5 -4,-136 155,-136 155,5 -4,5"/>
<!-- Node1 -->
<g id="node1" class="node"><title>Node1</title>
<polygon fill="#bfbfbf" stroke="black" points="-0.5,-84.5 -0.5,-131.5 150.5,-131.5 150.5,-84.5 -0.5,-84.5"/>
<text text-anchor="start" x="7.5" y="-118.5" font-family="Helvetica,sans-Serif" font-size="10.00">src/analysis/physics</text>
<text text-anchor="start" x="7.5" y="-105.5" font-family="Helvetica,sans-Serif" font-size="10.00">/DeltaTreeGenerator/DeltaTree</text>
<text text-anchor="middle" x="75" y="-92.5" font-family="Helvetica,sans-Serif" font-size="10.00">Generator.h</text>
</g>
<!-- Node2 -->
<g id="node3" class="node"><title>Node2</title>
<a xlink:href="_delta_tree_generator_8cc.html" target="_top" xlink:title="src/analysis/physics\l/DeltaTreeGenerator/DeltaTree\lGenerator.cc">
<polygon fill="white" stroke="black" points="-0.5,-0.5 -0.5,-47.5 150.5,-47.5 150.5,-0.5 -0.5,-0.5"/>
<text text-anchor="start" x="7.5" y="-34.5" font-family="Helvetica,sans-Serif" font-size="10.00">src/analysis/physics</text>
<text text-anchor="start" x="7.5" y="-21.5" font-family="Helvetica,sans-Serif" font-size="10.00">/DeltaTreeGenerator/DeltaTree</text>
<text text-anchor="middle" x="75" y="-8.5" font-family="Helvetica,sans-Serif" font-size="10.00">Generator.cc</text>
</a>
</g>
<!-- Node1&#45;&gt;Node2 -->
<g id="edge2" class="edge"><title>Node1&#45;&gt;Node2</title>
<path fill="none" stroke="midnightblue" d="M75,-74.0664C75,-65.1933 75,-55.821 75,-47.6152"/>
<polygon fill="midnightblue" stroke="midnightblue" points="71.5001,-74.1536 75,-84.1537 78.5001,-74.1537 71.5001,-74.1536"/>
</g>
</g>
</svg>
