<?xml version="1.0" encoding="UTF-8" standalone="no"?>
<!DOCTYPE svg PUBLIC "-//W3C//DTD SVG 1.1//EN"
 "http://www.w3.org/Graphics/SVG/1.1/DTD/svg11.dtd">
<!-- Generated by graphviz version 2.26.3 (20100126.1600)
 -->
<!-- Title: src/base/Detector_t.h Pages: 1 -->
<svg width="501pt" height="146pt"
 viewBox="0.00 0.00 501.00 146.00" xmlns="http://www.w3.org/2000/svg" xmlns:xlink="http://www.w3.org/1999/xlink">
<g id="graph1" class="graph" transform="scale(1 1) rotate(0) translate(4 142)">
<title>src/base/Detector_t.h</title>
<polygon fill="white" stroke="white" points="-4,5 -4,-142 498,-142 498,5 -4,5"/>
<!-- Node1 -->
<g id="node1" class="node"><title>Node1</title>
<polygon fill="#bfbfbf" stroke="black" points="200.5,-116.5 200.5,-137.5 311.5,-137.5 311.5,-116.5 200.5,-116.5"/>
<text text-anchor="middle" x="256" y="-124.5" font-family="Helvetica,sans-Serif" font-size="10.00">src/base/Detector_t.h</text>
</g>
<!-- Node2 -->
<g id="node3" class="node"><title>Node2</title>
<a xlink:href="printable_8h.html" target="_top" xlink:title="base/printable.h">
<polygon fill="white" stroke="black" points="47,-58.5 47,-79.5 133,-79.5 133,-58.5 47,-58.5"/>
<text text-anchor="middle" x="90" y="-66.5" font-family="Helvetica,sans-Serif" font-size="10.00">base/printable.h</text>
</a>
</g>
<!-- Node1&#45;&gt;Node2 -->
<g id="edge2" class="edge"><title>Node1&#45;&gt;Node2</title>
<path fill="none" stroke="midnightblue" d="M225.939,-116.497C198.993,-107.082 159.272,-93.2036 129.718,-82.8773"/>
<polygon fill="midnightblue" stroke="midnightblue" points="130.713,-79.5174 120.118,-79.5231 128.404,-86.1257 130.713,-79.5174"/>
</g>
<!-- Node3 -->
<g id="node5" class="node"><title>Node3</title>
<polygon fill="white" stroke="#bfbfbf" points="0,-0.5 0,-21.5 44,-21.5 44,-0.5 0,-0.5"/>
<text text-anchor="middle" x="22" y="-8.5" font-family="Helvetica,sans-Serif" font-size="10.00">vector</text>
</g>
<!-- Node1&#45;&gt;Node3 -->
<g id="edge18" class="edge"><title>Node1&#45;&gt;Node3</title>
<path fill="none" stroke="midnightblue" d="M200.277,-121.753C143.474,-115.259 60.588,-102.24 38,-80 25.3081,-67.5035 21.8563,-47.0593 21.2515,-31.6614"/>
<polygon fill="midnightblue" stroke="midnightblue" points="24.7512,-31.5171 21.2229,-21.527 17.7512,-31.5369 24.7512,-31.5171"/>
</g>
<!-- Node5 -->
<g id="node9" class="node"><title>Node5</title>
<polygon fill="white" stroke="#bfbfbf" points="150.5,-58.5 150.5,-79.5 215.5,-79.5 215.5,-58.5 150.5,-58.5"/>
<text text-anchor="middle" x="183" y="-66.5" font-family="Helvetica,sans-Serif" font-size="10.00">TVector3.h</text>
</g>
<!-- Node1&#45;&gt;Node5 -->
<g id="edge8" class="edge"><title>Node1&#45;&gt;Node5</title>
<path fill="none" stroke="midnightblue" d="M242.611,-116.362C231.909,-107.859 216.704,-95.7785 204.329,-85.9466"/>
<polygon fill="midnightblue" stroke="midnightblue" points="206.311,-83.0511 196.304,-79.5707 201.957,-88.5318 206.311,-83.0511"/>
</g>
<!-- Node6 -->
<g id="node11" class="node"><title>Node6</title>
<polygon fill="white" stroke="#bfbfbf" points="233,-58.5 233,-79.5 279,-79.5 279,-58.5 233,-58.5"/>
<text text-anchor="middle" x="256" y="-66.5" font-family="Helvetica,sans-Serif" font-size="10.00">cstdint</text>
</g>
<!-- Node1&#45;&gt;Node6 -->
<g id="edge10" class="edge"><title>Node1&#45;&gt;Node6</title>
<path fill="none" stroke="midnightblue" d="M256,-116.362C256,-108.922 256,-98.7427 256,-89.7276"/>
<polygon fill="midnightblue" stroke="midnightblue" points="259.5,-89.5706 256,-79.5707 252.5,-89.5707 259.5,-89.5706"/>
</g>
<!-- Node7 -->
<g id="node13" class="node"><title>Node7</title>
<polygon fill="white" stroke="#bfbfbf" points="296.5,-58.5 296.5,-79.5 355.5,-79.5 355.5,-58.5 296.5,-58.5"/>
<text text-anchor="middle" x="326" y="-66.5" font-family="Helvetica,sans-Serif" font-size="10.00">stdexcept</text>
</g>
<!-- Node1&#45;&gt;Node7 -->
<g id="edge12" class="edge"><title>Node1&#45;&gt;Node7</title>
<path fill="none" stroke="midnightblue" d="M268.839,-116.362C279.002,-107.941 293.401,-96.0105 305.204,-86.2308"/>
<polygon fill="midnightblue" stroke="midnightblue" points="307.775,-88.6459 313.242,-79.5707 303.309,-83.2558 307.775,-88.6459"/>
</g>
<!-- Node8 -->
<g id="node15" class="node"><title>Node8</title>
<polygon fill="white" stroke="#bfbfbf" points="372.5,-58.5 372.5,-79.5 413.5,-79.5 413.5,-58.5 372.5,-58.5"/>
<text text-anchor="middle" x="393" y="-66.5" font-family="Helvetica,sans-Serif" font-size="10.00">string</text>
</g>
<!-- Node1&#45;&gt;Node8 -->
<g id="edge14" class="edge"><title>Node1&#45;&gt;Node8</title>
<path fill="none" stroke="midnightblue" d="M280.81,-116.497C303.954,-106.698 338.52,-92.0646 363.161,-81.6325"/>
<polygon fill="midnightblue" stroke="midnightblue" points="364.555,-84.8432 372.399,-77.7214 361.826,-78.397 364.555,-84.8432"/>
</g>
<!-- Node9 -->
<g id="node17" class="node"><title>Node9</title>
<polygon fill="white" stroke="#bfbfbf" points="431,-58.5 431,-79.5 493,-79.5 493,-58.5 431,-58.5"/>
<text text-anchor="middle" x="462" y="-66.5" font-family="Helvetica,sans-Serif" font-size="10.00">type_traits</text>
</g>
<!-- Node1&#45;&gt;Node9 -->
<g id="edge16" class="edge"><title>Node1&#45;&gt;Node9</title>
<path fill="none" stroke="midnightblue" d="M293.305,-116.497C329.232,-106.381 383.462,-91.1127 420.681,-80.6335"/>
<polygon fill="midnightblue" stroke="midnightblue" points="422.021,-83.8924 430.698,-77.8131 420.124,-77.1544 422.021,-83.8924"/>
</g>
<!-- Node2&#45;&gt;Node3 -->
<g id="edge4" class="edge"><title>Node2&#45;&gt;Node3</title>
<path fill="none" stroke="midnightblue" d="M77.5278,-58.3619C67.6547,-49.9408 53.6675,-38.0105 42.2016,-28.2308"/>
<polygon fill="midnightblue" stroke="midnightblue" points="44.2729,-25.3972 34.3932,-21.5707 39.7302,-30.7231 44.2729,-25.3972"/>
</g>
<!-- Node4 -->
<g id="node7" class="node"><title>Node4</title>
<polygon fill="white" stroke="#bfbfbf" points="64,-0.5 64,-21.5 116,-21.5 116,-0.5 64,-0.5"/>
<text text-anchor="middle" x="90" y="-8.5" font-family="Helvetica,sans-Serif" font-size="10.00">ostream</text>
</g>
<!-- Node2&#45;&gt;Node4 -->
<g id="edge6" class="edge"><title>Node2&#45;&gt;Node4</title>
<path fill="none" stroke="midnightblue" d="M90,-58.3619C90,-50.9219 90,-40.7427 90,-31.7276"/>
<polygon fill="midnightblue" stroke="midnightblue" points="93.5001,-31.5706 90,-21.5707 86.5001,-31.5707 93.5001,-31.5706"/>
</g>
</g>
</svg>
