<?xml version="1.0" encoding="UTF-8" standalone="no"?>
<!DOCTYPE svg PUBLIC "-//W3C//DTD SVG 1.1//EN"
 "http://www.w3.org/Graphics/SVG/1.1/DTD/svg11.dtd">
<!-- Generated by graphviz version 2.26.3 (20100126.1600)
 -->
<!-- Title: src/analysis/input/goat/detail/DetectorHitInput.cc Pages: 1 -->
<svg width="292pt" height="218pt"
 viewBox="0.00 0.00 292.00 218.00" xmlns="http://www.w3.org/2000/svg" xmlns:xlink="http://www.w3.org/1999/xlink">
<g id="graph1" class="graph" transform="scale(1 1) rotate(0) translate(4 214)">
<title>src/analysis/input/goat/detail/DetectorHitInput.cc</title>
<polygon fill="white" stroke="white" points="-4,5 -4,-214 289,-214 289,5 -4,5"/>
<!-- Node1 -->
<g id="node1" class="node"><title>Node1</title>
<polygon fill="#bfbfbf" stroke="black" points="126.5,-175 126.5,-209 279.5,-209 279.5,-175 126.5,-175"/>
<text text-anchor="start" x="134.5" y="-196" font-family="Helvetica,sans-Serif" font-size="10.00">src/analysis/input</text>
<text text-anchor="middle" x="203" y="-183" font-family="Helvetica,sans-Serif" font-size="10.00">/goat/detail/DetectorHitInput.cc</text>
</g>
<!-- Node2 -->
<g id="node3" class="node"><title>Node2</title>
<a xlink:href="_detector_hit_input_8h.html" target="_top" xlink:title="DetectorHitInput.h">
<polygon fill="white" stroke="black" points="109.5,-116.5 109.5,-137.5 206.5,-137.5 206.5,-116.5 109.5,-116.5"/>
<text text-anchor="middle" x="158" y="-124.5" font-family="Helvetica,sans-Serif" font-size="10.00">DetectorHitInput.h</text>
</a>
</g>
<!-- Node1&#45;&gt;Node2 -->
<g id="edge2" class="edge"><title>Node1&#45;&gt;Node2</title>
<path fill="none" stroke="midnightblue" d="M191.177,-174.922C185.083,-166.12 177.63,-155.354 171.332,-146.258"/>
<polygon fill="midnightblue" stroke="midnightblue" points="174.083,-144.082 165.513,-137.852 168.327,-148.066 174.083,-144.082"/>
</g>
<!-- Node8 -->
<g id="node15" class="node"><title>Node8</title>
<polygon fill="white" stroke="#bfbfbf" points="224,-116.5 224,-137.5 274,-137.5 274,-116.5 224,-116.5"/>
<text text-anchor="middle" x="249" y="-124.5" font-family="Helvetica,sans-Serif" font-size="10.00">TTree.h</text>
</g>
<!-- Node1&#45;&gt;Node8 -->
<g id="edge14" class="edge"><title>Node1&#45;&gt;Node8</title>
<path fill="none" stroke="midnightblue" d="M215.086,-174.922C221.315,-166.12 228.934,-155.354 235.372,-146.258"/>
<polygon fill="midnightblue" stroke="midnightblue" points="238.4,-148.037 241.32,-137.852 232.686,-143.993 238.4,-148.037"/>
</g>
<!-- Node3 -->
<g id="node5" class="node"><title>Node3</title>
<a xlink:href="_input_module_8h.html" target="_top" xlink:title="InputModule.h">
<polygon fill="white" stroke="black" points="0,-58.5 0,-79.5 78,-79.5 78,-58.5 0,-58.5"/>
<text text-anchor="middle" x="39" y="-66.5" font-family="Helvetica,sans-Serif" font-size="10.00">InputModule.h</text>
</a>
</g>
<!-- Node2&#45;&gt;Node3 -->
<g id="edge4" class="edge"><title>Node2&#45;&gt;Node3</title>
<path fill="none" stroke="midnightblue" d="M136.45,-116.497C117.864,-107.438 90.7982,-94.2462 69.9046,-84.0628"/>
<polygon fill="midnightblue" stroke="midnightblue" points="71.3144,-80.8563 60.7918,-79.6212 68.2475,-87.1487 71.3144,-80.8563"/>
</g>
<!-- Node5 -->
<g id="node9" class="node"><title>Node5</title>
<polygon fill="white" stroke="#bfbfbf" points="96,-58.5 96,-79.5 152,-79.5 152,-58.5 96,-58.5"/>
<text text-anchor="middle" x="124" y="-66.5" font-family="Helvetica,sans-Serif" font-size="10.00">Rtypes.h</text>
</g>
<!-- Node2&#45;&gt;Node5 -->
<g id="edge8" class="edge"><title>Node2&#45;&gt;Node5</title>
<path fill="none" stroke="midnightblue" d="M151.764,-116.362C147.163,-108.513 140.775,-97.6159 135.286,-88.2527"/>
<polygon fill="midnightblue" stroke="midnightblue" points="138.273,-86.4276 130.197,-79.5707 132.234,-89.9677 138.273,-86.4276"/>
</g>
<!-- Node6 -->
<g id="node11" class="node"><title>Node6</title>
<polygon fill="white" stroke="#bfbfbf" points="170,-58.5 170,-79.5 214,-79.5 214,-58.5 170,-58.5"/>
<text text-anchor="middle" x="192" y="-66.5" font-family="Helvetica,sans-Serif" font-size="10.00">vector</text>
</g>
<!-- Node2&#45;&gt;Node6 -->
<g id="edge10" class="edge"><title>Node2&#45;&gt;Node6</title>
<path fill="none" stroke="midnightblue" d="M164.236,-116.362C168.837,-108.513 175.225,-97.6159 180.714,-88.2527"/>
<polygon fill="midnightblue" stroke="midnightblue" points="183.766,-89.9677 185.803,-79.5707 177.727,-86.4276 183.766,-89.9677"/>
</g>
<!-- Node7 -->
<g id="node13" class="node"><title>Node7</title>
<polygon fill="white" stroke="#bfbfbf" points="231.5,-58.5 231.5,-79.5 284.5,-79.5 284.5,-58.5 231.5,-58.5"/>
<text text-anchor="middle" x="258" y="-66.5" font-family="Helvetica,sans-Serif" font-size="10.00">TMath.h</text>
</g>
<!-- Node2&#45;&gt;Node7 -->
<g id="edge12" class="edge"><title>Node2&#45;&gt;Node7</title>
<path fill="none" stroke="midnightblue" d="M176.342,-116.362C191.566,-107.532 213.441,-94.844 230.72,-84.8224"/>
<polygon fill="midnightblue" stroke="midnightblue" points="232.88,-87.6155 239.775,-79.5707 229.368,-81.5603 232.88,-87.6155"/>
</g>
<!-- Node4 -->
<g id="node7" class="node"><title>Node4</title>
<polygon fill="white" stroke="#bfbfbf" points="18.5,-0.5 18.5,-21.5 59.5,-21.5 59.5,-0.5 18.5,-0.5"/>
<text text-anchor="middle" x="39" y="-8.5" font-family="Helvetica,sans-Serif" font-size="10.00">string</text>
</g>
<!-- Node3&#45;&gt;Node4 -->
<g id="edge6" class="edge"><title>Node3&#45;&gt;Node4</title>
<path fill="none" stroke="midnightblue" d="M39,-58.3619C39,-50.9219 39,-40.7427 39,-31.7276"/>
<polygon fill="midnightblue" stroke="midnightblue" points="42.5001,-31.5706 39,-21.5707 35.5001,-31.5707 42.5001,-31.5706"/>
</g>
</g>
</svg>
