<?xml version="1.0" encoding="UTF-8" standalone="no"?>
<!DOCTYPE svg PUBLIC "-//W3C//DTD SVG 1.1//EN"
 "http://www.w3.org/Graphics/SVG/1.1/DTD/svg11.dtd">
<!-- Generated by graphviz version 2.26.3 (20100126.1600)
 -->
<!-- Title: src/calibration/gui/Dialogs.h Pages: 1 -->
<svg width="299pt" height="188pt"
 viewBox="0.00 0.00 299.00 188.00" xmlns="http://www.w3.org/2000/svg" xmlns:xlink="http://www.w3.org/1999/xlink">
<g id="graph1" class="graph" transform="scale(1 1) rotate(0) translate(4 184)">
<title>src/calibration/gui/Dialogs.h</title>
<polygon fill="white" stroke="white" points="-4,5 -4,-184 296,-184 296,5 -4,5"/>
<!-- Node1 -->
<g id="node1" class="node"><title>Node1</title>
<polygon fill="#bfbfbf" stroke="black" points="88.5,-145 88.5,-179 181.5,-179 181.5,-145 88.5,-145"/>
<text text-anchor="start" x="96.5" y="-166" font-family="Helvetica,sans-Serif" font-size="10.00">src/calibration/gui</text>
<text text-anchor="middle" x="135" y="-153" font-family="Helvetica,sans-Serif" font-size="10.00">/Dialogs.h</text>
</g>
<!-- Node2 -->
<g id="node3" class="node"><title>Node2</title>
<a xlink:href="_ant-calib-editor_8cc.html" target="_top" xlink:title="progs/Ant&#45;calib&#45;editor.cc">
<polygon fill="white" stroke="black" points="0,-7.5 0,-28.5 122,-28.5 122,-7.5 0,-7.5"/>
<text text-anchor="middle" x="61" y="-15.5" font-family="Helvetica,sans-Serif" font-size="10.00">progs/Ant&#45;calib&#45;editor.cc</text>
</a>
</g>
<!-- Node1&#45;&gt;Node2 -->
<g id="edge2" class="edge"><title>Node1&#45;&gt;Node2</title>
<path fill="none" stroke="midnightblue" d="M104.44,-138.103C95.3187,-129.527 86.1294,-119.185 80,-108 65.7253,-81.9518 62.1636,-46.2445 61.283,-28.6647"/>
<polygon fill="midnightblue" stroke="midnightblue" points="102.227,-140.819 112.017,-144.871 106.89,-135.599 102.227,-140.819"/>
</g>
<!-- Node3 -->
<g id="node5" class="node"><title>Node3</title>
<a xlink:href="_a_c_e_canvas_8h.html" target="_top" xlink:title="src/calibration/gui\l/ACECanvas.h">
<polygon fill="white" stroke="black" points="88.5,-73 88.5,-107 181.5,-107 181.5,-73 88.5,-73"/>
<text text-anchor="start" x="96.5" y="-94" font-family="Helvetica,sans-Serif" font-size="10.00">src/calibration/gui</text>
<text text-anchor="middle" x="135" y="-81" font-family="Helvetica,sans-Serif" font-size="10.00">/ACECanvas.h</text>
</a>
</g>
<!-- Node1&#45;&gt;Node3 -->
<g id="edge4" class="edge"><title>Node1&#45;&gt;Node3</title>
<path fill="none" stroke="midnightblue" d="M135,-134.719C135,-125.572 135,-115.625 135,-107.441"/>
<polygon fill="midnightblue" stroke="midnightblue" points="131.5,-134.937 135,-144.937 138.5,-134.937 131.5,-134.937"/>
</g>
<!-- Node5 -->
<g id="node10" class="node"><title>Node5</title>
<a xlink:href="_dialogs_8cc.html" target="_top" xlink:title="src/calibration/gui\l/Dialogs.cc">
<polygon fill="white" stroke="black" points="198.5,-73 198.5,-107 291.5,-107 291.5,-73 198.5,-73"/>
<text text-anchor="start" x="206.5" y="-94" font-family="Helvetica,sans-Serif" font-size="10.00">src/calibration/gui</text>
<text text-anchor="middle" x="245" y="-81" font-family="Helvetica,sans-Serif" font-size="10.00">/Dialogs.cc</text>
</a>
</g>
<!-- Node1&#45;&gt;Node5 -->
<g id="edge10" class="edge"><title>Node1&#45;&gt;Node5</title>
<path fill="none" stroke="midnightblue" d="M169.583,-139.364C185.474,-128.962 204.016,-116.826 218.737,-107.19"/>
<polygon fill="midnightblue" stroke="midnightblue" points="167.519,-136.532 161.068,-144.937 171.352,-142.389 167.519,-136.532"/>
</g>
<!-- Node3&#45;&gt;Node2 -->
<g id="edge6" class="edge"><title>Node3&#45;&gt;Node2</title>
<path fill="none" stroke="midnightblue" d="M110.197,-65.8677C97.3289,-53.3471 82.2441,-38.67 72.2038,-28.901"/>
<polygon fill="midnightblue" stroke="midnightblue" points="107.855,-68.472 117.463,-72.937 112.736,-63.4549 107.855,-68.472"/>
</g>
<!-- Node4 -->
<g id="node8" class="node"><title>Node4</title>
<a xlink:href="_a_c_e_canvas_8cc.html" target="_top" xlink:title="src/calibration/gui\l/ACECanvas.cc">
<polygon fill="white" stroke="black" points="139.5,-1 139.5,-35 232.5,-35 232.5,-1 139.5,-1"/>
<text text-anchor="start" x="147.5" y="-22" font-family="Helvetica,sans-Serif" font-size="10.00">src/calibration/gui</text>
<text text-anchor="middle" x="186" y="-9" font-family="Helvetica,sans-Serif" font-size="10.00">/ACECanvas.cc</text>
</a>
</g>
<!-- Node3&#45;&gt;Node4 -->
<g id="edge8" class="edge"><title>Node3&#45;&gt;Node4</title>
<path fill="none" stroke="midnightblue" d="M153.064,-64.4981C159.879,-54.8768 167.471,-44.1593 173.646,-35.4407"/>
<polygon fill="midnightblue" stroke="midnightblue" points="150.01,-62.7537 147.086,-72.937 155.723,-66.7998 150.01,-62.7537"/>
</g>
</g>
</svg>
