<?xml version="1.0" encoding="UTF-8" standalone="no"?>
<!DOCTYPE svg PUBLIC "-//W3C//DTD SVG 1.1//EN"
 "http://www.w3.org/Graphics/SVG/1.1/DTD/svg11.dtd">
<!-- Generated by graphviz version 2.26.3 (20100126.1600)
 -->
<!-- Title: src/expconfig/detectors/EPT.cc Pages: 1 -->
<svg width="3510pt" height="812pt"
 viewBox="0.00 0.00 3510.00 812.00" xmlns="http://www.w3.org/2000/svg" xmlns:xlink="http://www.w3.org/1999/xlink">
<g id="graph1" class="graph" transform="scale(1 1) rotate(0) translate(4 808)">
<title>src/expconfig/detectors/EPT.cc</title>
<polygon fill="white" stroke="white" points="-4,5 -4,-808 3507,-808 3507,5 -4,5"/>
<!-- Node1 -->
<g id="node1" class="node"><title>Node1</title>
<polygon fill="#bfbfbf" stroke="black" points="1560.5,-769 1560.5,-803 1679.5,-803 1679.5,-769 1560.5,-769"/>
<text text-anchor="start" x="1568.5" y="-790" font-family="Helvetica,sans-Serif" font-size="10.00">src/expconfig/detectors</text>
<text text-anchor="middle" x="1620" y="-777" font-family="Helvetica,sans-Serif" font-size="10.00">/EPT.cc</text>
</g>
<!-- Node2 -->
<g id="node3" class="node"><title>Node2</title>
<a xlink:href="_e_p_t_8h.html" target="_top" xlink:title="EPT.h">
<polygon fill="white" stroke="black" points="1589,-652.5 1589,-673.5 1633,-673.5 1633,-652.5 1589,-652.5"/>
<text text-anchor="middle" x="1611" y="-660.5" font-family="Helvetica,sans-Serif" font-size="10.00">EPT.h</text>
</a>
</g>
<!-- Node1&#45;&gt;Node2 -->
<g id="edge2" class="edge"><title>Node1&#45;&gt;Node2</title>
<path fill="none" stroke="midnightblue" d="M1579.64,-768.986C1564.35,-760.312 1548.57,-748.128 1540,-732 1527.7,-708.851 1555.25,-688.795 1579.54,-676.362"/>
<polygon fill="midnightblue" stroke="midnightblue" points="1581.12,-679.485 1588.6,-671.979 1578.08,-673.183 1581.12,-679.485"/>
</g>
<!-- Node31 -->
<g id="node76" class="node"><title>Node31</title>
<polygon fill="white" stroke="#bfbfbf" points="3454,-116.5 3454,-137.5 3494,-137.5 3494,-116.5 3454,-116.5"/>
<text text-anchor="middle" x="3474" y="-124.5" font-family="Helvetica,sans-Serif" font-size="10.00">limits</text>
</g>
<!-- Node1&#45;&gt;Node31 -->
<g id="edge322" class="edge"><title>Node1&#45;&gt;Node31</title>
<path fill="none" stroke="midnightblue" d="M1679.7,-785.295C2000.16,-781.127 3502,-756.6 3502,-663 3502,-663 3502,-663 3502,-243 3502,-208.661 3490.26,-170.161 3481.99,-147.282"/>
<polygon fill="midnightblue" stroke="midnightblue" points="3485.17,-145.798 3478.38,-137.667 3478.61,-148.259 3485.17,-145.798"/>
</g>
<!-- Node62 -->
<g id="node202" class="node"><title>Node62</title>
<a xlink:href="_t_header_info_8h.html" target="_top" xlink:title="tree/THeaderInfo.h">
<polygon fill="white" stroke="black" points="74,-290.5 74,-311.5 172,-311.5 172,-290.5 74,-290.5"/>
<text text-anchor="middle" x="123" y="-298.5" font-family="Helvetica,sans-Serif" font-size="10.00">tree/THeaderInfo.h</text>
</a>
</g>
<!-- Node1&#45;&gt;Node62 -->
<g id="edge320" class="edge"><title>Node1&#45;&gt;Node62</title>
<path fill="none" stroke="midnightblue" d="M1560.09,-783.663C1300.52,-773.149 286,-727.904 286,-663 286,-663 286,-663 286,-431 286,-370.384 216.25,-333.443 168.004,-315.142"/>
<polygon fill="midnightblue" stroke="midnightblue" points="168.962,-311.766 158.369,-311.623 166.561,-318.341 168.962,-311.766"/>
</g>
<!-- Node63 -->
<g id="node220" class="node"><title>Node63</title>
<polygon fill="white" stroke="#bfbfbf" points="1694.5,-594.5 1694.5,-615.5 1743.5,-615.5 1743.5,-594.5 1694.5,-594.5"/>
<text text-anchor="middle" x="1719" y="-602.5" font-family="Helvetica,sans-Serif" font-size="10.00">cassert</text>
</g>
<!-- Node1&#45;&gt;Node63 -->
<g id="edge324" class="edge"><title>Node1&#45;&gt;Node63</title>
<path fill="none" stroke="midnightblue" d="M1658.37,-768.794C1673.72,-759.973 1690.08,-747.732 1700,-732 1720.71,-699.167 1722.04,-652.244 1720.77,-625.587"/>
<polygon fill="midnightblue" stroke="midnightblue" points="1724.25,-625.256 1720.11,-615.504 1717.27,-625.71 1724.25,-625.256"/>
</g>
<!-- Node64 -->
<g id="node222" class="node"><title>Node64</title>
<a xlink:href="_e_p_t__2014__elements_8h.html" target="_top" xlink:title="detail/EPT_2014_elements.h">
<polygon fill="white" stroke="black" points="1549,-710.5 1549,-731.5 1691,-731.5 1691,-710.5 1549,-710.5"/>
<text text-anchor="middle" x="1620" y="-718.5" font-family="Helvetica,sans-Serif" font-size="10.00">detail/EPT_2014_elements.h</text>
</a>
</g>
<!-- Node1&#45;&gt;Node64 -->
<g id="edge316" class="edge"><title>Node1&#45;&gt;Node64</title>
<path fill="none" stroke="midnightblue" d="M1620,-768.922C1620,-760.67 1620,-750.692 1620,-741.982"/>
<polygon fill="midnightblue" stroke="midnightblue" points="1623.5,-741.852 1620,-731.852 1616.5,-741.852 1623.5,-741.852"/>
</g>
<!-- Node3 -->
<g id="node5" class="node"><title>Node3</title>
<a xlink:href="_detector__t_8h.html" target="_top" xlink:title="base/Detector_t.h">
<polygon fill="white" stroke="black" points="1370.5,-116.5 1370.5,-137.5 1465.5,-137.5 1465.5,-116.5 1370.5,-116.5"/>
<text text-anchor="middle" x="1418" y="-124.5" font-family="Helvetica,sans-Serif" font-size="10.00">base/Detector_t.h</text>
</a>
</g>
<!-- Node2&#45;&gt;Node3 -->
<g id="edge4" class="edge"><title>Node2&#45;&gt;Node3</title>
<path fill="none" stroke="midnightblue" d="M1588.78,-661.913C1430.98,-654.054 486,-604.585 486,-547 486,-547 486,-547 486,-243 486,-205.643 501.361,-192.173 534,-174 570.094,-153.902 1169.32,-134.405 1360.13,-128.681"/>
<polygon fill="midnightblue" stroke="midnightblue" points="1360.35,-132.176 1370.24,-128.379 1360.14,-125.179 1360.35,-132.176"/>
</g>
<!-- Node12 -->
<g id="node24" class="node"><title>Node12</title>
<a xlink:href="_unpacker_acqu_8h.html" target="_top" xlink:title="unpacker/UnpackerAcqu.h">
<polygon fill="white" stroke="black" points="1545,-594.5 1545,-615.5 1677,-615.5 1677,-594.5 1545,-594.5"/>
<text text-anchor="middle" x="1611" y="-602.5" font-family="Helvetica,sans-Serif" font-size="10.00">unpacker/UnpackerAcqu.h</text>
</a>
</g>
<!-- Node2&#45;&gt;Node12 -->
<g id="edge24" class="edge"><title>Node2&#45;&gt;Node12</title>
<path fill="none" stroke="midnightblue" d="M1611,-652.362C1611,-644.922 1611,-634.743 1611,-625.728"/>
<polygon fill="midnightblue" stroke="midnightblue" points="1614.5,-625.571 1611,-615.571 1607.5,-625.571 1614.5,-625.571"/>
</g>
<!-- Node2&#45;&gt;Node63 -->
<g id="edge314" class="edge"><title>Node2&#45;&gt;Node63</title>
<path fill="none" stroke="midnightblue" d="M1630.56,-652.497C1647.2,-643.56 1671.33,-630.602 1690.18,-620.477"/>
<polygon fill="midnightblue" stroke="midnightblue" points="1692.07,-623.436 1699.22,-615.621 1688.76,-617.269 1692.07,-623.436"/>
</g>
<!-- Node4 -->
<g id="node7" class="node"><title>Node4</title>
<a xlink:href="printable_8h.html" target="_top" xlink:title="base/printable.h">
<polygon fill="white" stroke="black" points="3003,-58.5 3003,-79.5 3089,-79.5 3089,-58.5 3003,-58.5"/>
<text text-anchor="middle" x="3046" y="-66.5" font-family="Helvetica,sans-Serif" font-size="10.00">base/printable.h</text>
</a>
</g>
<!-- Node3&#45;&gt;Node4 -->
<g id="edge6" class="edge"><title>Node3&#45;&gt;Node4</title>
<path fill="none" stroke="midnightblue" d="M1465.58,-117.103C1468.42,-116.684 1471.24,-116.31 1474,-116 1777.78,-81.8566 2752.85,-71.4841 2992.45,-69.4207"/>
<polygon fill="midnightblue" stroke="midnightblue" points="2992.67,-72.919 3002.64,-69.3341 2992.61,-65.9193 2992.67,-72.919"/>
</g>
<!-- Node5 -->
<g id="node9" class="node"><title>Node5</title>
<polygon fill="white" stroke="#bfbfbf" points="2493,-0.5 2493,-21.5 2537,-21.5 2537,-0.5 2493,-0.5"/>
<text text-anchor="middle" x="2515" y="-8.5" font-family="Helvetica,sans-Serif" font-size="10.00">vector</text>
</g>
<!-- Node3&#45;&gt;Node5 -->
<g id="edge22" class="edge"><title>Node3&#45;&gt;Node5</title>
<path fill="none" stroke="midnightblue" d="M1451.44,-116.483C1481.65,-106.977 1527.31,-92.5866 1567,-80 1597.68,-70.2697 1604.34,-63.7953 1636,-58 1720.42,-42.5482 2333.46,-18.0263 2482.44,-12.2483"/>
<polygon fill="midnightblue" stroke="midnightblue" points="2482.88,-15.734 2492.74,-11.8502 2482.61,-8.73922 2482.88,-15.734"/>
</g>
<!-- Node7 -->
<g id="node13" class="node"><title>Node7</title>
<polygon fill="white" stroke="#bfbfbf" points="1644.5,-58.5 1644.5,-79.5 1709.5,-79.5 1709.5,-58.5 1644.5,-58.5"/>
<text text-anchor="middle" x="1677" y="-66.5" font-family="Helvetica,sans-Serif" font-size="10.00">TVector3.h</text>
</g>
<!-- Node3&#45;&gt;Node7 -->
<g id="edge12" class="edge"><title>Node3&#45;&gt;Node7</title>
<path fill="none" stroke="midnightblue" d="M1464.9,-116.497C1513.25,-105.67 1587.96,-88.9391 1634.59,-78.4967"/>
<polygon fill="midnightblue" stroke="midnightblue" points="1635.39,-81.9052 1644.38,-76.3044 1633.86,-75.0744 1635.39,-81.9052"/>
</g>
<!-- Node8 -->
<g id="node15" class="node"><title>Node8</title>
<polygon fill="white" stroke="#bfbfbf" points="1360,-58.5 1360,-79.5 1406,-79.5 1406,-58.5 1360,-58.5"/>
<text text-anchor="middle" x="1383" y="-66.5" font-family="Helvetica,sans-Serif" font-size="10.00">cstdint</text>
</g>
<!-- Node3&#45;&gt;Node8 -->
<g id="edge14" class="edge"><title>Node3&#45;&gt;Node8</title>
<path fill="none" stroke="midnightblue" d="M1411.58,-116.362C1406.84,-108.513 1400.27,-97.6159 1394.62,-88.2527"/>
<polygon fill="midnightblue" stroke="midnightblue" points="1397.54,-86.3242 1389.38,-79.5707 1391.55,-89.9409 1397.54,-86.3242"/>
</g>
<!-- Node9 -->
<g id="node17" class="node"><title>Node9</title>
<polygon fill="white" stroke="#bfbfbf" points="1423.5,-58.5 1423.5,-79.5 1482.5,-79.5 1482.5,-58.5 1423.5,-58.5"/>
<text text-anchor="middle" x="1453" y="-66.5" font-family="Helvetica,sans-Serif" font-size="10.00">stdexcept</text>
</g>
<!-- Node3&#45;&gt;Node9 -->
<g id="edge16" class="edge"><title>Node3&#45;&gt;Node9</title>
<path fill="none" stroke="midnightblue" d="M1424.42,-116.362C1429.16,-108.513 1435.73,-97.6159 1441.38,-88.2527"/>
<polygon fill="midnightblue" stroke="midnightblue" points="1444.45,-89.9409 1446.62,-79.5707 1438.46,-86.3242 1444.45,-89.9409"/>
</g>
<!-- Node10 -->
<g id="node19" class="node"><title>Node10</title>
<polygon fill="white" stroke="#bfbfbf" points="1897.5,-0.5 1897.5,-21.5 1938.5,-21.5 1938.5,-0.5 1897.5,-0.5"/>
<text text-anchor="middle" x="1918" y="-8.5" font-family="Helvetica,sans-Serif" font-size="10.00">string</text>
</g>
<!-- Node3&#45;&gt;Node10 -->
<g id="edge18" class="edge"><title>Node3&#45;&gt;Node10</title>
<path fill="none" stroke="midnightblue" d="M1438.49,-116.404C1469.09,-101.048 1528.95,-72.8265 1583,-58 1692.3,-28.016 1827.19,-16.5291 1886.97,-12.691"/>
<polygon fill="midnightblue" stroke="midnightblue" points="1887.47,-16.167 1897.23,-12.0606 1887.04,-9.1802 1887.47,-16.167"/>
</g>
<!-- Node11 -->
<g id="node21" class="node"><title>Node11</title>
<polygon fill="white" stroke="#bfbfbf" points="443,-58.5 443,-79.5 505,-79.5 505,-58.5 443,-58.5"/>
<text text-anchor="middle" x="474" y="-66.5" font-family="Helvetica,sans-Serif" font-size="10.00">type_traits</text>
</g>
<!-- Node3&#45;&gt;Node11 -->
<g id="edge20" class="edge"><title>Node3&#45;&gt;Node11</title>
<path fill="none" stroke="midnightblue" d="M1370.22,-124.064C1206.42,-114.001 669.319,-81.0005 515.502,-71.5499"/>
<polygon fill="midnightblue" stroke="midnightblue" points="515.296,-68.0307 505.1,-70.9108 514.867,-75.0176 515.296,-68.0307"/>
</g>
<!-- Node4&#45;&gt;Node5 -->
<g id="edge8" class="edge"><title>Node4&#45;&gt;Node5</title>
<path fill="none" stroke="midnightblue" d="M3003,-64.3027C2899.57,-53.0053 2638.7,-24.512 2547.27,-14.5248"/>
<polygon fill="midnightblue" stroke="midnightblue" points="2547.55,-11.0343 2537.23,-13.4277 2546.79,-17.9929 2547.55,-11.0343"/>
</g>
<!-- Node6 -->
<g id="node11" class="node"><title>Node6</title>
<polygon fill="white" stroke="#bfbfbf" points="3172,-0.5 3172,-21.5 3224,-21.5 3224,-0.5 3172,-0.5"/>
<text text-anchor="middle" x="3198" y="-8.5" font-family="Helvetica,sans-Serif" font-size="10.00">ostream</text>
</g>
<!-- Node4&#45;&gt;Node6 -->
<g id="edge10" class="edge"><title>Node4&#45;&gt;Node6</title>
<path fill="none" stroke="midnightblue" d="M3073.53,-58.4966C3098.44,-48.9894 3135.29,-34.9303 3162.43,-24.5737"/>
<polygon fill="midnightblue" stroke="midnightblue" points="3163.85,-27.7761 3171.95,-20.9409 3161.36,-21.236 3163.85,-27.7761"/>
</g>
<!-- Node12&#45;&gt;Node3 -->
<g id="edge300" class="edge"><title>Node12&#45;&gt;Node3</title>
<path fill="none" stroke="midnightblue" d="M1544.86,-603.018C1346.66,-596.887 766.148,-577.47 683,-558 607.995,-540.436 524,-566.034 524,-489 524,-489 524,-489 524,-243 524,-207.553 533.784,-192.534 564,-174 597.91,-153.2 1173.61,-134.285 1360.16,-128.678"/>
<polygon fill="midnightblue" stroke="midnightblue" points="1360.43,-132.171 1370.32,-128.374 1360.22,-125.174 1360.43,-132.171"/>
</g>
<!-- Node12&#45;&gt;Node5 -->
<g id="edge308" class="edge"><title>Node12&#45;&gt;Node5</title>
<path fill="none" stroke="midnightblue" d="M1677.21,-594.976C1680.18,-594.625 1683.12,-594.298 1686,-594 1782.33,-584.048 3426,-585.843 3426,-489 3426,-489 3426,-489 3426,-127 3426,-58.8245 3354.82,-75.7641 3289,-58 3145.82,-19.3569 2675.77,-12.4164 2547.56,-11.2325"/>
<polygon fill="midnightblue" stroke="midnightblue" points="2547.26,-7.72989 2537.23,-11.143 2547.2,-14.7296 2547.26,-7.72989"/>
</g>
<!-- Node12&#45;&gt;Node8 -->
<g id="edge310" class="edge"><title>Node12&#45;&gt;Node8</title>
<path fill="none" stroke="midnightblue" d="M1669.88,-594.474C1756.72,-577.247 1909,-539.799 1909,-489 1909,-489 1909,-489 1909,-431 1909,-342.538 1970.13,-299.542 1913,-232 1881.86,-195.181 1745.16,-209.95 1699,-196 1615.59,-170.792 1601.07,-147.941 1520,-116 1476.88,-99.0118 1463.29,-96.3078 1415.71,-80.2183"/>
<polygon fill="midnightblue" stroke="midnightblue" points="1416.67,-76.8461 1406.07,-76.9332 1414.41,-83.4719 1416.67,-76.8461"/>
</g>
<!-- Node13 -->
<g id="node26" class="node"><title>Node13</title>
<a xlink:href="_unpacker_8h.html" target="_top" xlink:title="Unpacker.h">
<polygon fill="white" stroke="black" points="2149.5,-232.5 2149.5,-253.5 2216.5,-253.5 2216.5,-232.5 2149.5,-232.5"/>
<text text-anchor="middle" x="2183" y="-240.5" font-family="Helvetica,sans-Serif" font-size="10.00">Unpacker.h</text>
</a>
</g>
<!-- Node12&#45;&gt;Node13 -->
<g id="edge26" class="edge"><title>Node12&#45;&gt;Node13</title>
<path fill="none" stroke="midnightblue" d="M1677.28,-595.166C1765.28,-582.087 1911.06,-560.336 1923,-558 2051.33,-532.904 2209,-619.758 2209,-489 2209,-489 2209,-489 2209,-366 2209,-329.281 2197.77,-287.703 2190.07,-263.511"/>
<polygon fill="midnightblue" stroke="midnightblue" points="2193.29,-262.099 2186.84,-253.698 2186.64,-264.291 2193.29,-262.099"/>
</g>
<!-- Node14 -->
<g id="node29" class="node"><title>Node14</title>
<polygon fill="white" stroke="#bfbfbf" points="1270,-174.5 1270,-195.5 1322,-195.5 1322,-174.5 1270,-174.5"/>
<text text-anchor="middle" x="1296" y="-182.5" font-family="Helvetica,sans-Serif" font-size="10.00">memory</text>
</g>
<!-- Node12&#45;&gt;Node14 -->
<g id="edge302" class="edge"><title>Node12&#45;&gt;Node14</title>
<path fill="none" stroke="midnightblue" d="M1544.74,-601.325C1365.76,-590.519 886,-555.364 886,-489 886,-489 886,-489 886,-431 886,-342.554 826.119,-297.998 885,-232 909.77,-204.236 1163.76,-190.623 1259.63,-186.444"/>
<polygon fill="midnightblue" stroke="midnightblue" points="1259.89,-189.937 1269.73,-186.014 1259.59,-182.943 1259.89,-189.937"/>
</g>
<!-- Node15 -->
<g id="node31" class="node"><title>Node15</title>
<a xlink:href="_exp_config_8h.html" target="_top" xlink:title="expconfig/ExpConfig.h">
<polygon fill="white" stroke="black" points="1187,-536.5 1187,-557.5 1303,-557.5 1303,-536.5 1187,-536.5"/>
<text text-anchor="middle" x="1245" y="-544.5" font-family="Helvetica,sans-Serif" font-size="10.00">expconfig/ExpConfig.h</text>
</a>
</g>
<!-- Node12&#45;&gt;Node15 -->
<g id="edge32" class="edge"><title>Node12&#45;&gt;Node15</title>
<path fill="none" stroke="midnightblue" d="M1544.72,-594.497C1479.18,-584.11 1379.35,-568.291 1313.16,-557.802"/>
<polygon fill="midnightblue" stroke="midnightblue" points="1313.67,-554.339 1303.25,-556.23 1312.57,-561.252 1313.67,-554.339"/>
</g>
<!-- Node19 -->
<g id="node42" class="node"><title>Node19</title>
<polygon fill="white" stroke="#bfbfbf" points="1482.5,-116.5 1482.5,-137.5 1511.5,-137.5 1511.5,-116.5 1482.5,-116.5"/>
<text text-anchor="middle" x="1497" y="-124.5" font-family="Helvetica,sans-Serif" font-size="10.00">list</text>
</g>
<!-- Node12&#45;&gt;Node19 -->
<g id="edge304" class="edge"><title>Node12&#45;&gt;Node19</title>
<path fill="none" stroke="midnightblue" d="M1544.67,-604.376C1319.75,-601.395 600,-584.403 600,-489 600,-489 600,-489 600,-243 600,-205.128 616.651,-191.947 650,-174 728.335,-131.844 1347.24,-158.544 1472.29,-137.19"/>
<polygon fill="midnightblue" stroke="midnightblue" points="1473.15,-140.585 1482.23,-135.122 1471.73,-133.732 1473.15,-140.585"/>
</g>
<!-- Node22 -->
<g id="node53" class="node"><title>Node22</title>
<polygon fill="white" stroke="#bfbfbf" points="2069.5,-174.5 2069.5,-195.5 2104.5,-195.5 2104.5,-174.5 2069.5,-174.5"/>
<text text-anchor="middle" x="2087" y="-182.5" font-family="Helvetica,sans-Serif" font-size="10.00">map</text>
</g>
<!-- Node12&#45;&gt;Node22 -->
<g id="edge306" class="edge"><title>Node12&#45;&gt;Node22</title>
<path fill="none" stroke="midnightblue" d="M1677.23,-595.092C1680.19,-594.71 1683.13,-594.344 1686,-594 1806.07,-579.635 2139.87,-588.761 2222,-500 2306,-409.214 2374.32,-328.54 2297,-232 2291.25,-224.826 2170.22,-200.903 2114.56,-190.224"/>
<polygon fill="midnightblue" stroke="midnightblue" points="2115.14,-186.772 2104.66,-188.333 2113.83,-193.648 2115.14,-186.772"/>
</g>
<!-- Node12&#45;&gt;Node31 -->
<g id="edge312" class="edge"><title>Node12&#45;&gt;Node31</title>
<path fill="none" stroke="midnightblue" d="M1677.2,-594.832C1680.17,-594.52 1683.11,-594.24 1686,-594 1734.56,-589.956 3400.57,-586.643 3440,-558 3466.27,-538.916 3464,-521.469 3464,-489 3464,-489 3464,-489 3464,-243 3464,-209.474 3468.2,-170.698 3471.15,-147.548"/>
<polygon fill="midnightblue" stroke="midnightblue" points="3474.64,-147.903 3472.48,-137.53 3467.7,-146.983 3474.64,-147.903"/>
</g>
<!-- Node13&#45;&gt;Node10 -->
<g id="edge28" class="edge"><title>Node13&#45;&gt;Node10</title>
<path fill="none" stroke="midnightblue" d="M2175.76,-232.357C2149.14,-193.241 2058.12,-59.6072 2056,-58 2023.89,-33.6519 1978.33,-21.4095 1948.48,-15.6331"/>
<polygon fill="midnightblue" stroke="midnightblue" points="1949.09,-12.1862 1938.63,-13.8503 1947.85,-19.0745 1949.09,-12.1862"/>
</g>
<!-- Node13&#45;&gt;Node14 -->
<g id="edge30" class="edge"><title>Node13&#45;&gt;Node14</title>
<path fill="none" stroke="midnightblue" d="M2149.31,-240.797C2009.62,-231.663 1476.45,-196.8 1332.18,-187.366"/>
<polygon fill="midnightblue" stroke="midnightblue" points="1332.3,-183.866 1322.09,-186.706 1331.84,-190.851 1332.3,-183.866"/>
</g>
<!-- Node15&#45;&gt;Node3 -->
<g id="edge34" class="edge"><title>Node15&#45;&gt;Node3</title>
<path fill="none" stroke="midnightblue" d="M1186.82,-542.471C1119.45,-536.394 1005.51,-523.536 910,-500 737.006,-457.372 562,-479.169 562,-301 562,-301 562,-301 562,-243 562,-210.531 560.079,-193.552 586,-174 616.872,-150.713 1176.65,-133.537 1360.23,-128.51"/>
<polygon fill="midnightblue" stroke="midnightblue" points="1360.33,-132.009 1370.23,-128.238 1360.14,-125.011 1360.33,-132.009"/>
</g>
<!-- Node15&#45;&gt;Node4 -->
<g id="edge292" class="edge"><title>Node15&#45;&gt;Node4</title>
<path fill="none" stroke="midnightblue" d="M1303.15,-545.217C1645.95,-534.333 3388,-473.724 3388,-366 3388,-366 3388,-366 3388,-185 3388,-124.809 3195.62,-89.6538 3099.43,-75.8386"/>
<polygon fill="midnightblue" stroke="midnightblue" points="3099.71,-72.3427 3089.31,-74.4133 3098.73,-79.2742 3099.71,-72.3427"/>
</g>
<!-- Node15&#45;&gt;Node14 -->
<g id="edge294" class="edge"><title>Node15&#45;&gt;Node14</title>
<path fill="none" stroke="midnightblue" d="M1238.09,-536.297C1225.94,-516.404 1202,-472.023 1202,-431 1202,-431 1202,-431 1202,-301 1202,-257.729 1241.97,-221.566 1269.78,-201.64"/>
<polygon fill="midnightblue" stroke="midnightblue" points="1272.07,-204.311 1278.32,-195.753 1268.1,-198.549 1272.07,-204.311"/>
</g>
<!-- Node16 -->
<g id="node34" class="node"><title>Node16</title>
<a xlink:href="_reconstruct__traits_8h.html" target="_top" xlink:title="reconstruct/Reconstruct\l_traits.h">
<polygon fill="white" stroke="black" points="1039,-349 1039,-383 1161,-383 1161,-349 1039,-349"/>
<text text-anchor="start" x="1047" y="-370" font-family="Helvetica,sans-Serif" font-size="10.00">reconstruct/Reconstruct</text>
<text text-anchor="middle" x="1100" y="-357" font-family="Helvetica,sans-Serif" font-size="10.00">_traits.h</text>
</a>
</g>
<!-- Node15&#45;&gt;Node16 -->
<g id="edge36" class="edge"><title>Node15&#45;&gt;Node16</title>
<path fill="none" stroke="midnightblue" d="M1229.4,-536.145C1217.29,-527.266 1200.5,-513.94 1188,-500 1157.44,-465.937 1129.84,-420.356 1114,-392.101"/>
<polygon fill="midnightblue" stroke="midnightblue" points="1116.99,-390.283 1109.09,-383.225 1110.87,-393.67 1116.99,-390.283"/>
</g>
<!-- Node15&#45;&gt;Node19 -->
<g id="edge296" class="edge"><title>Node15&#45;&gt;Node19</title>
<path fill="none" stroke="midnightblue" d="M1186.92,-538.551C1053.48,-517.979 730.828,-461.256 657,-384 630.855,-356.641 638,-338.843 638,-301 638,-301 638,-301 638,-243 638,-206.388 651.213,-192.166 683,-174 757.074,-131.668 1351.07,-157.715 1472.29,-137.181"/>
<polygon fill="midnightblue" stroke="midnightblue" points="1473.15,-140.577 1482.23,-135.118 1471.73,-133.723 1473.15,-140.577"/>
</g>
<!-- Node15&#45;&gt;Node22 -->
<g id="edge298" class="edge"><title>Node15&#45;&gt;Node22</title>
<path fill="none" stroke="midnightblue" d="M1303.28,-545.829C1486.08,-540.81 2042.56,-514.857 2152,-384 2197.74,-329.309 2135.22,-241.588 2103.49,-203.569"/>
<polygon fill="midnightblue" stroke="midnightblue" points="2106.04,-201.162 2096.88,-195.832 2100.71,-205.709 2106.04,-201.162"/>
</g>
<!-- Node23 -->
<g id="node56" class="node"><title>Node23</title>
<a xlink:href="_calibration_8h.html" target="_top" xlink:title="calibration/Calibration.h">
<polygon fill="white" stroke="black" points="1229.5,-478.5 1229.5,-499.5 1348.5,-499.5 1348.5,-478.5 1229.5,-478.5"/>
<text text-anchor="middle" x="1289" y="-486.5" font-family="Helvetica,sans-Serif" font-size="10.00">calibration/Calibration.h</text>
</a>
</g>
<!-- Node15&#45;&gt;Node23 -->
<g id="edge66" class="edge"><title>Node15&#45;&gt;Node23</title>
<path fill="none" stroke="midnightblue" d="M1253.07,-536.362C1259.15,-528.35 1267.64,-517.161 1274.84,-507.67"/>
<polygon fill="midnightblue" stroke="midnightblue" points="1277.73,-509.653 1280.98,-499.571 1272.15,-505.422 1277.73,-509.653"/>
</g>
<!-- Node16&#45;&gt;Node3 -->
<g id="edge38" class="edge"><title>Node16&#45;&gt;Node3</title>
<path fill="none" stroke="midnightblue" d="M1038.92,-355.181C985.9,-344.917 913.972,-328.628 890,-312 831.564,-271.465 760.685,-226.187 809,-174 827.578,-153.933 1211.7,-135.686 1360.15,-129.358"/>
<polygon fill="midnightblue" stroke="midnightblue" points="1360.58,-132.843 1370.42,-128.923 1360.28,-125.849 1360.58,-132.843"/>
</g>
<!-- Node16&#45;&gt;Node14 -->
<g id="edge60" class="edge"><title>Node16&#45;&gt;Node14</title>
<path fill="none" stroke="midnightblue" d="M1115.94,-348.709C1125.01,-338.445 1136.26,-324.945 1145,-312 1167.59,-278.547 1158.3,-259.338 1188,-232 1208.31,-213.301 1237.24,-201.253 1260.05,-194.041"/>
<polygon fill="midnightblue" stroke="midnightblue" points="1261.14,-197.367 1269.72,-191.151 1259.14,-190.659 1261.14,-197.367"/>
</g>
<!-- Node17 -->
<g id="node37" class="node"><title>Node17</title>
<a xlink:href="_memory_pool_8h.html" target="_top" xlink:title="tree/MemoryPool.h">
<polygon fill="white" stroke="black" points="1037.5,-290.5 1037.5,-311.5 1136.5,-311.5 1136.5,-290.5 1037.5,-290.5"/>
<text text-anchor="middle" x="1087" y="-298.5" font-family="Helvetica,sans-Serif" font-size="10.00">tree/MemoryPool.h</text>
</a>
</g>
<!-- Node16&#45;&gt;Node17 -->
<g id="edge40" class="edge"><title>Node16&#45;&gt;Node17</title>
<path fill="none" stroke="midnightblue" d="M1096.58,-348.922C1094.92,-340.579 1092.89,-330.47 1091.14,-321.692"/>
<polygon fill="midnightblue" stroke="midnightblue" points="1094.56,-320.971 1089.17,-311.852 1087.7,-322.344 1094.56,-320.971"/>
</g>
<!-- Node16&#45;&gt;Node19 -->
<g id="edge64" class="edge"><title>Node16&#45;&gt;Node19</title>
<path fill="none" stroke="midnightblue" d="M1038.81,-352.646C987.754,-337.925 918.18,-308.696 885,-254 879.929,-245.64 878.654,-239.439 885,-232 969.006,-133.525 1329.97,-175.357 1472.3,-137.71"/>
<polygon fill="midnightblue" stroke="midnightblue" points="1473.52,-140.998 1482.16,-134.859 1471.58,-134.273 1473.52,-140.998"/>
</g>
<!-- Node21 -->
<g id="node47" class="node"><title>Node21</title>
<a xlink:href="mapped__vectors_8h.html" target="_top" xlink:title="base/mapped_vectors.h">
<polygon fill="white" stroke="black" points="893.5,-232.5 893.5,-253.5 1014.5,-253.5 1014.5,-232.5 893.5,-232.5"/>
<text text-anchor="middle" x="954" y="-240.5" font-family="Helvetica,sans-Serif" font-size="10.00">base/mapped_vectors.h</text>
</a>
</g>
<!-- Node16&#45;&gt;Node21 -->
<g id="edge52" class="edge"><title>Node16&#45;&gt;Node21</title>
<path fill="none" stroke="midnightblue" d="M1076.23,-348.785C1062.23,-338.435 1044.32,-324.824 1029,-312 1009.08,-295.326 987.343,-275.083 972.423,-260.849"/>
<polygon fill="midnightblue" stroke="midnightblue" points="974.528,-258.019 964.89,-253.62 969.681,-263.07 974.528,-258.019"/>
</g>
<!-- Node16&#45;&gt;Node22 -->
<g id="edge62" class="edge"><title>Node16&#45;&gt;Node22</title>
<path fill="none" stroke="midnightblue" d="M1161,-364.881C1315.88,-361.518 1721.16,-349.314 1850,-312 1934.62,-287.492 2023.28,-230.097 2064.03,-201.624"/>
<polygon fill="midnightblue" stroke="midnightblue" points="2066.29,-204.316 2072.44,-195.687 2062.25,-198.599 2066.29,-204.316"/>
</g>
<!-- Node17&#45;&gt;Node14 -->
<g id="edge48" class="edge"><title>Node17&#45;&gt;Node14</title>
<path fill="none" stroke="midnightblue" d="M1094.04,-290.288C1104.5,-275.177 1125.57,-247.696 1150,-232 1184.01,-210.144 1229.04,-197.68 1260.05,-191.156"/>
<polygon fill="midnightblue" stroke="midnightblue" points="1260.87,-194.561 1269.99,-189.166 1259.5,-187.697 1260.87,-194.561"/>
</g>
<!-- Node18 -->
<g id="node39" class="node"><title>Node18</title>
<a xlink:href="memory_8h.html" target="_top" xlink:title="base/std_ext/memory.h">
<polygon fill="white" stroke="black" points="1381.5,-232.5 1381.5,-253.5 1500.5,-253.5 1500.5,-232.5 1381.5,-232.5"/>
<text text-anchor="middle" x="1441" y="-240.5" font-family="Helvetica,sans-Serif" font-size="10.00">base/std_ext/memory.h</text>
</a>
</g>
<!-- Node17&#45;&gt;Node18 -->
<g id="edge42" class="edge"><title>Node17&#45;&gt;Node18</title>
<path fill="none" stroke="midnightblue" d="M1136.59,-292.874C1197.81,-282.845 1302.26,-265.731 1371.46,-254.394"/>
<polygon fill="midnightblue" stroke="midnightblue" points="1372.1,-257.835 1381.4,-252.764 1370.97,-250.927 1372.1,-257.835"/>
</g>
<!-- Node20 -->
<g id="node45" class="node"><title>Node20</title>
<polygon fill="white" stroke="#bfbfbf" points="1031.5,-232.5 1031.5,-253.5 1098.5,-253.5 1098.5,-232.5 1031.5,-232.5"/>
<text text-anchor="middle" x="1065" y="-240.5" font-family="Helvetica,sans-Serif" font-size="10.00">forward_list</text>
</g>
<!-- Node17&#45;&gt;Node20 -->
<g id="edge50" class="edge"><title>Node17&#45;&gt;Node20</title>
<path fill="none" stroke="midnightblue" d="M1082.96,-290.362C1080.08,-282.758 1076.11,-272.294 1072.64,-263.135"/>
<polygon fill="midnightblue" stroke="midnightblue" points="1075.83,-261.679 1069.01,-253.571 1069.28,-264.162 1075.83,-261.679"/>
</g>
<!-- Node18&#45;&gt;Node14 -->
<g id="edge44" class="edge"><title>Node18&#45;&gt;Node14</title>
<path fill="none" stroke="midnightblue" d="M1414.74,-232.497C1391.44,-223.176 1357.2,-209.48 1331.47,-199.187"/>
<polygon fill="midnightblue" stroke="midnightblue" points="1332.65,-195.89 1322.06,-195.425 1330.05,-202.389 1332.65,-195.89"/>
</g>
<!-- Node18&#45;&gt;Node19 -->
<g id="edge46" class="edge"><title>Node18&#45;&gt;Node19</title>
<path fill="none" stroke="midnightblue" d="M1446.17,-232.295C1455.54,-212.872 1475.49,-171.556 1487.42,-146.846"/>
<polygon fill="midnightblue" stroke="midnightblue" points="1490.65,-148.206 1491.84,-137.679 1484.35,-145.163 1490.65,-148.206"/>
</g>
<!-- Node21&#45;&gt;Node5 -->
<g id="edge54" class="edge"><title>Node21&#45;&gt;Node5</title>
<path fill="none" stroke="midnightblue" d="M1014.53,-232.951C1017.39,-232.602 1020.22,-232.282 1023,-232 1202.25,-213.788 1661.76,-252.029 1833,-196 1849.75,-190.519 1849.95,-181.294 1866,-174 2045.03,-92.6224 2101.84,-104.162 2293,-58 2360.22,-41.7679 2439.63,-25.6993 2482.91,-17.2011"/>
<polygon fill="midnightblue" stroke="midnightblue" points="2483.71,-20.6111 2492.85,-15.2575 2482.36,-13.7412 2483.71,-20.6111"/>
</g>
<!-- Node21&#45;&gt;Node11 -->
<g id="edge58" class="edge"><title>Node21&#45;&gt;Node11</title>
<path fill="none" stroke="midnightblue" d="M893.38,-241.739C752.544,-238.3 412.074,-226.86 371,-196 341.518,-173.85 328.009,-146.318 349,-116 358.957,-101.619 400.603,-87.8622 433.122,-78.9902"/>
<polygon fill="midnightblue" stroke="midnightblue" points="434.111,-82.3491 442.877,-76.3983 432.313,-75.5839 434.111,-82.3491"/>
</g>
<!-- Node21&#45;&gt;Node14 -->
<g id="edge56" class="edge"><title>Node21&#45;&gt;Node14</title>
<path fill="none" stroke="midnightblue" d="M1014.75,-232.698C1085.91,-220.629 1201.48,-201.029 1259.84,-191.133"/>
<polygon fill="midnightblue" stroke="midnightblue" points="1260.43,-194.582 1269.71,-189.459 1259.26,-187.68 1260.43,-194.582"/>
</g>
<!-- Node23&#45;&gt;Node5 -->
<g id="edge290" class="edge"><title>Node23&#45;&gt;Node5</title>
<path fill="none" stroke="midnightblue" d="M1348.68,-487.306C1646.68,-478.619 2966.32,-437.403 3141,-384 3248.16,-351.24 3350,-355.051 3350,-243 3350,-243 3350,-243 3350,-127 3350,-65.8634 3289.49,-75.8043 3231,-58 3100.57,-18.2945 2669.71,-12.1272 2547.55,-11.1735"/>
<polygon fill="midnightblue" stroke="midnightblue" points="2547.37,-7.67226 2537.35,-11.1006 2547.32,-14.6721 2547.37,-7.67226"/>
</g>
<!-- Node23&#45;&gt;Node16 -->
<g id="edge274" class="edge"><title>Node23&#45;&gt;Node16</title>
<path fill="none" stroke="midnightblue" d="M1272.56,-478.3C1242.02,-458.425 1175.93,-415.414 1134.98,-388.766"/>
<polygon fill="midnightblue" stroke="midnightblue" points="1136.69,-385.701 1126.4,-383.18 1132.87,-391.568 1136.69,-385.701"/>
</g>
<!-- Node24 -->
<g id="node58" class="node"><title>Node24</title>
<a xlink:href="_physics_8h.html" target="_top" xlink:title="analysis/physics/Physics.h">
<polygon fill="white" stroke="black" points="1230,-420.5 1230,-441.5 1366,-441.5 1366,-420.5 1230,-420.5"/>
<text text-anchor="middle" x="1298" y="-428.5" font-family="Helvetica,sans-Serif" font-size="10.00">analysis/physics/Physics.h</text>
</a>
</g>
<!-- Node23&#45;&gt;Node24 -->
<g id="edge68" class="edge"><title>Node23&#45;&gt;Node24</title>
<path fill="none" stroke="midnightblue" d="M1290.65,-478.362C1291.81,-470.922 1293.38,-460.743 1294.78,-451.728"/>
<polygon fill="midnightblue" stroke="midnightblue" points="1298.28,-451.989 1296.36,-441.571 1291.37,-450.916 1298.28,-451.989"/>
</g>
<!-- Node61 -->
<g id="node199" class="node"><title>Node61</title>
<a xlink:href="_manager__traits_8h.html" target="_top" xlink:title="calibration/gui/Manager\l_traits.h">
<polygon fill="white" stroke="black" points="665.5,-349 665.5,-383 782.5,-383 782.5,-349 665.5,-349"/>
<text text-anchor="start" x="673.5" y="-370" font-family="Helvetica,sans-Serif" font-size="10.00">calibration/gui/Manager</text>
<text text-anchor="middle" x="724" y="-357" font-family="Helvetica,sans-Serif" font-size="10.00">_traits.h</text>
</a>
</g>
<!-- Node23&#45;&gt;Node61 -->
<g id="edge276" class="edge"><title>Node23&#45;&gt;Node61</title>
<path fill="none" stroke="midnightblue" d="M1236.69,-478.489C1146.52,-460.228 956.07,-421.043 796,-384 794.764,-383.714 793.517,-383.423 792.261,-383.129"/>
<polygon fill="midnightblue" stroke="midnightblue" points="793.046,-379.718 782.508,-380.809 791.427,-386.528 793.046,-379.718"/>
</g>
<!-- Node24&#45;&gt;Node10 -->
<g id="edge266" class="edge"><title>Node24&#45;&gt;Node10</title>
<path fill="none" stroke="midnightblue" d="M1229.9,-430.041C1116.49,-427.488 894.535,-418.149 825,-384 805.246,-374.299 810.258,-358.653 791,-348 603.831,-244.464 480.857,-393.837 319,-254 249.863,-194.269 193.315,-123.512 257,-58 286.553,-27.5992 1663.26,-13.3922 1887.33,-11.2796"/>
<polygon fill="midnightblue" stroke="midnightblue" points="1887.43,-14.7788 1897.4,-11.1855 1887.36,-7.77916 1887.43,-14.7788"/>
</g>
<!-- Node24&#45;&gt;Node14 -->
<g id="edge270" class="edge"><title>Node24&#45;&gt;Node14</title>
<path fill="none" stroke="midnightblue" d="M1297.91,-420.43C1297.61,-382.975 1296.58,-256.138 1296.17,-205.819"/>
<polygon fill="midnightblue" stroke="midnightblue" points="1299.67,-205.502 1296.09,-195.531 1292.67,-205.559 1299.67,-205.502"/>
</g>
<!-- Node24&#45;&gt;Node19 -->
<g id="edge264" class="edge"><title>Node24&#45;&gt;Node19</title>
<path fill="none" stroke="midnightblue" d="M1229.88,-425.169C1143.6,-417.201 1000.11,-401.847 950,-384 840.783,-345.1 688.312,-336.75 738,-232 755.463,-195.186 771.004,-188.716 809,-174 944.04,-121.697 1314.24,-172.354 1472.14,-137.518"/>
<polygon fill="midnightblue" stroke="midnightblue" points="1473.32,-140.834 1482.23,-135.098 1471.68,-134.028 1473.32,-140.834"/>
</g>
<!-- Node24&#45;&gt;Node22 -->
<g id="edge268" class="edge"><title>Node24&#45;&gt;Node22</title>
<path fill="none" stroke="midnightblue" d="M1366.18,-422.457C1478.09,-407.312 1706.9,-371.606 1893,-312 1952.87,-292.826 1970.8,-290.468 2022,-254 2041.95,-239.794 2060.66,-218.791 2072.84,-203.692"/>
<polygon fill="midnightblue" stroke="midnightblue" points="2075.79,-205.605 2079.22,-195.58 2070.29,-201.28 2075.79,-205.605"/>
</g>
<!-- Node25 -->
<g id="node60" class="node"><title>Node25</title>
<a xlink:href="_histogram_factories_8h.html" target="_top" xlink:title="analysis/plot/HistogramFactories.h">
<polygon fill="white" stroke="black" points="1975,-355.5 1975,-376.5 2143,-376.5 2143,-355.5 1975,-355.5"/>
<text text-anchor="middle" x="2059" y="-363.5" font-family="Helvetica,sans-Serif" font-size="10.00">analysis/plot/HistogramFactories.h</text>
</a>
</g>
<!-- Node24&#45;&gt;Node25 -->
<g id="edge70" class="edge"><title>Node24&#45;&gt;Node25</title>
<path fill="none" stroke="midnightblue" d="M1366.01,-428.668C1486.38,-423.987 1744.64,-411.453 1961,-384 1972.93,-382.486 1985.61,-380.467 1997.75,-378.328"/>
<polygon fill="midnightblue" stroke="midnightblue" points="1998.58,-381.735 2007.8,-376.512 1997.33,-374.847 1998.58,-381.735"/>
</g>
<!-- Node34 -->
<g id="node88" class="node"><title>Node34</title>
<polygon fill="white" stroke="#bfbfbf" points="817.5,-174.5 817.5,-195.5 876.5,-195.5 876.5,-174.5 817.5,-174.5"/>
<text text-anchor="middle" x="847" y="-182.5" font-family="Helvetica,sans-Serif" font-size="10.00">functional</text>
</g>
<!-- Node24&#45;&gt;Node34 -->
<g id="edge272" class="edge"><title>Node24&#45;&gt;Node34</title>
<path fill="none" stroke="midnightblue" d="M1229.75,-426.244C1174.42,-420.7 1095.21,-408.884 1030,-384 946.632,-352.186 918.915,-332.774 877,-254 868.492,-238.011 860.4,-219.1 854.769,-205.123"/>
<polygon fill="midnightblue" stroke="midnightblue" points="857.907,-203.541 850.976,-195.527 851.397,-206.113 857.907,-203.541"/>
</g>
<!-- Node48 -->
<g id="node139" class="node"><title>Node48</title>
<a xlink:href="_event_8h.html" target="_top" xlink:title="analysis/data/Event.h">
<polygon fill="white" stroke="black" points="2666.5,-355.5 2666.5,-376.5 2777.5,-376.5 2777.5,-355.5 2666.5,-355.5"/>
<text text-anchor="middle" x="2722" y="-363.5" font-family="Helvetica,sans-Serif" font-size="10.00">analysis/data/Event.h</text>
</a>
</g>
<!-- Node24&#45;&gt;Node48 -->
<g id="edge182" class="edge"><title>Node24&#45;&gt;Node48</title>
<path fill="none" stroke="midnightblue" d="M1366.2,-427.887C1607.41,-416.877 2418.41,-379.858 2656.04,-369.011"/>
<polygon fill="midnightblue" stroke="midnightblue" points="2656.43,-372.497 2666.26,-368.544 2656.11,-365.504 2656.43,-372.497"/>
</g>
<!-- Node60 -->
<g id="node190" class="node"><title>Node60</title>
<a xlink:href="_slowcontrol_8h.html" target="_top" xlink:title="analysis/data/Slowcontrol.h">
<polygon fill="white" stroke="black" points="2995.5,-355.5 2995.5,-376.5 3132.5,-376.5 3132.5,-355.5 2995.5,-355.5"/>
<text text-anchor="middle" x="3064" y="-363.5" font-family="Helvetica,sans-Serif" font-size="10.00">analysis/data/Slowcontrol.h</text>
</a>
</g>
<!-- Node24&#45;&gt;Node60 -->
<g id="edge260" class="edge"><title>Node24&#45;&gt;Node60</title>
<path fill="none" stroke="midnightblue" d="M1366.26,-429.648C1577.41,-425.292 2238.69,-410.355 2786,-384 2853.31,-380.759 2929.7,-375.714 2985.35,-371.789"/>
<polygon fill="midnightblue" stroke="midnightblue" points="2985.76,-375.268 2995.49,-371.07 2985.27,-368.286 2985.76,-375.268"/>
</g>
<!-- Node25&#45;&gt;Node10 -->
<g id="edge180" class="edge"><title>Node25&#45;&gt;Node10</title>
<path fill="none" stroke="midnightblue" d="M2056.6,-355.424C2051.32,-332.586 2037.85,-277.079 2022,-232 1994.06,-152.559 1985.88,-132.699 1947,-58 1942.11,-48.6074 1936.04,-38.5718 1930.72,-30.196"/>
<polygon fill="midnightblue" stroke="midnightblue" points="1933.51,-28.0602 1925.14,-21.5675 1927.63,-31.8641 1933.51,-28.0602"/>
</g>
<!-- Node26 -->
<g id="node62" class="node"><title>Node26</title>
<a xlink:href="_histogram_8h.html" target="_top" xlink:title="Histogram.h">
<polygon fill="white" stroke="black" points="2420,-232.5 2420,-253.5 2490,-253.5 2490,-232.5 2420,-232.5"/>
<text text-anchor="middle" x="2455" y="-240.5" font-family="Helvetica,sans-Serif" font-size="10.00">Histogram.h</text>
</a>
</g>
<!-- Node25&#45;&gt;Node26 -->
<g id="edge72" class="edge"><title>Node25&#45;&gt;Node26</title>
<path fill="none" stroke="midnightblue" d="M2093.11,-355.407C2164.98,-333.082 2331.92,-281.23 2411.41,-256.539"/>
<polygon fill="midnightblue" stroke="midnightblue" points="2412.61,-259.833 2421.12,-253.524 2410.53,-253.148 2412.61,-259.833"/>
</g>
<!-- Node32 -->
<g id="node78" class="node"><title>Node32</title>
<a xlink:href="_smart_hist_8h.html" target="_top" xlink:title="SmartHist.h">
<polygon fill="white" stroke="black" points="1772.5,-290.5 1772.5,-311.5 1841.5,-311.5 1841.5,-290.5 1772.5,-290.5"/>
<text text-anchor="middle" x="1807" y="-298.5" font-family="Helvetica,sans-Serif" font-size="10.00">SmartHist.h</text>
</a>
</g>
<!-- Node25&#45;&gt;Node32 -->
<g id="edge92" class="edge"><title>Node25&#45;&gt;Node32</title>
<path fill="none" stroke="midnightblue" d="M2018.23,-355.484C1972.55,-343.701 1898.73,-324.661 1851.56,-312.493"/>
<polygon fill="midnightblue" stroke="midnightblue" points="1852.18,-309.04 1841.63,-309.931 1850.44,-315.818 1852.18,-309.04"/>
</g>
<!-- Node41 -->
<g id="node105" class="node"><title>Node41</title>
<a xlink:href="_particle_8h.html" target="_top" xlink:title="analysis/data/Particle.h">
<polygon fill="white" stroke="black" points="2619.5,-290.5 2619.5,-311.5 2738.5,-311.5 2738.5,-290.5 2619.5,-290.5"/>
<text text-anchor="middle" x="2679" y="-298.5" font-family="Helvetica,sans-Serif" font-size="10.00">analysis/data/Particle.h</text>
</a>
</g>
<!-- Node25&#45;&gt;Node41 -->
<g id="edge128" class="edge"><title>Node25&#45;&gt;Node41</title>
<path fill="none" stroke="midnightblue" d="M2143.26,-357.166C2266.68,-344.228 2494.35,-320.359 2609.06,-308.333"/>
<polygon fill="midnightblue" stroke="midnightblue" points="2609.55,-311.8 2619.13,-307.277 2608.82,-304.839 2609.55,-311.8"/>
</g>
<!-- Node26&#45;&gt;Node5 -->
<g id="edge76" class="edge"><title>Node26&#45;&gt;Node5</title>
<path fill="none" stroke="midnightblue" d="M2419.91,-237.655C2379.47,-229.664 2320.55,-211.359 2337,-174 2367.61,-104.474 2444.13,-51.6762 2486.19,-26.7806"/>
<polygon fill="midnightblue" stroke="midnightblue" points="2488.21,-29.6567 2495.1,-21.6157 2484.7,-23.5995 2488.21,-29.6567"/>
</g>
<!-- Node26&#45;&gt;Node10 -->
<g id="edge78" class="edge"><title>Node26&#45;&gt;Node10</title>
<path fill="none" stroke="midnightblue" d="M2423.17,-232.413C2397.6,-223.583 2360.99,-210.192 2330,-196 2213.55,-142.664 2195.3,-107.096 2077,-58 2033.58,-39.9794 1980.84,-25.8224 1948.35,-17.934"/>
<polygon fill="midnightblue" stroke="midnightblue" points="1949.09,-14.5122 1938.55,-15.5961 1947.47,-21.3211 1949.09,-14.5122"/>
</g>
<!-- Node27 -->
<g id="node64" class="node"><title>Node27</title>
<polygon fill="white" stroke="#bfbfbf" points="2160,-174.5 2160,-195.5 2214,-195.5 2214,-174.5 2160,-174.5"/>
<text text-anchor="middle" x="2187" y="-182.5" font-family="Helvetica,sans-Serif" font-size="10.00">TColor.h</text>
</g>
<!-- Node26&#45;&gt;Node27 -->
<g id="edge74" class="edge"><title>Node26&#45;&gt;Node27</title>
<path fill="none" stroke="midnightblue" d="M2419.96,-235.038C2415.27,-234.001 2410.52,-232.964 2406,-232 2327.06,-215.159 2306.57,-214.467 2228,-196 2226.75,-195.706 2225.48,-195.401 2224.2,-195.088"/>
<polygon fill="midnightblue" stroke="midnightblue" points="2224.84,-191.641 2214.29,-192.576 2223.12,-198.426 2224.84,-191.641"/>
</g>
<!-- Node28 -->
<g id="node68" class="node"><title>Node28</title>
<a xlink:href="interval_8h.html" target="_top" xlink:title="base/interval.h">
<polygon fill="white" stroke="black" points="2900,-174.5 2900,-195.5 2980,-195.5 2980,-174.5 2900,-174.5"/>
<text text-anchor="middle" x="2940" y="-182.5" font-family="Helvetica,sans-Serif" font-size="10.00">base/interval.h</text>
</a>
</g>
<!-- Node26&#45;&gt;Node28 -->
<g id="edge80" class="edge"><title>Node26&#45;&gt;Node28</title>
<path fill="none" stroke="midnightblue" d="M2490.45,-233.674C2493.33,-233.057 2496.21,-232.488 2499,-232 2654.78,-204.752 2695.87,-213.92 2853,-196 2864.82,-194.652 2877.52,-193.103 2889.47,-191.6"/>
<polygon fill="midnightblue" stroke="midnightblue" points="2890.26,-195.029 2899.74,-190.298 2889.38,-188.084 2890.26,-195.029"/>
</g>
<!-- Node28&#45;&gt;Node4 -->
<g id="edge86" class="edge"><title>Node28&#45;&gt;Node4</title>
<path fill="none" stroke="midnightblue" d="M2947.52,-174.258C2957.5,-160.283 2975.96,-135.367 2994,-116 3003.72,-105.565 3015.44,-94.8352 3025.29,-86.2666"/>
<polygon fill="midnightblue" stroke="midnightblue" points="3027.72,-88.7939 3033.04,-79.6313 3023.16,-83.4767 3027.72,-88.7939"/>
</g>
<!-- Node28&#45;&gt;Node9 -->
<g id="edge84" class="edge"><title>Node28&#45;&gt;Node9</title>
<path fill="none" stroke="midnightblue" d="M2899.9,-176.81C2895.21,-175.859 2890.5,-174.906 2886,-174 2805.59,-157.814 2782.47,-164.936 2705,-138 2684.72,-130.95 2682.78,-121.394 2662,-116 2441.18,-58.6757 1863.88,-90.8452 1636,-80 1586.81,-77.6589 1530.23,-74.1295 1493.16,-71.7033"/>
<polygon fill="midnightblue" stroke="midnightblue" points="1492.99,-68.1845 1482.78,-71.0193 1492.53,-75.1693 1492.99,-68.1845"/>
</g>
<!-- Node29 -->
<g id="node70" class="node"><title>Node29</title>
<polygon fill="white" stroke="#bfbfbf" points="2162,-0.5 2162,-21.5 2218,-21.5 2218,-0.5 2162,-0.5"/>
<text text-anchor="middle" x="2190" y="-8.5" font-family="Helvetica,sans-Serif" font-size="10.00">algorithm</text>
</g>
<!-- Node28&#45;&gt;Node29 -->
<g id="edge82" class="edge"><title>Node28&#45;&gt;Node29</title>
<path fill="none" stroke="midnightblue" d="M2905.6,-174.381C2858.71,-160.101 2771.96,-134.38 2697,-116 2523.1,-73.3624 2312.87,-33.5068 2228.13,-17.9179"/>
<polygon fill="midnightblue" stroke="midnightblue" points="2228.66,-14.457 2218.19,-16.0956 2227.4,-21.3421 2228.66,-14.457"/>
</g>
<!-- Node30 -->
<g id="node74" class="node"><title>Node30</title>
<a xlink:href="types_8h.html" target="_top" xlink:title="types.h">
<polygon fill="white" stroke="black" points="2604.5,-116.5 2604.5,-137.5 2653.5,-137.5 2653.5,-116.5 2604.5,-116.5"/>
<text text-anchor="middle" x="2629" y="-124.5" font-family="Helvetica,sans-Serif" font-size="10.00">types.h</text>
</a>
</g>
<!-- Node28&#45;&gt;Node30 -->
<g id="edge88" class="edge"><title>Node28&#45;&gt;Node30</title>
<path fill="none" stroke="midnightblue" d="M2899.93,-176.661C2895.24,-175.737 2890.52,-174.831 2886,-174 2788.99,-156.152 2763.21,-159.752 2667,-138 2665.93,-137.758 2664.84,-137.503 2663.75,-137.238"/>
<polygon fill="midnightblue" stroke="midnightblue" points="2664.39,-133.787 2653.83,-134.646 2662.62,-140.56 2664.39,-133.787"/>
</g>
<!-- Node28&#45;&gt;Node31 -->
<g id="edge90" class="edge"><title>Node28&#45;&gt;Node31</title>
<path fill="none" stroke="midnightblue" d="M2980.14,-180.641C3082.69,-169.502 3352.66,-140.179 3443.6,-130.302"/>
<polygon fill="midnightblue" stroke="midnightblue" points="3444.22,-133.756 3453.78,-129.196 3443.46,-126.797 3444.22,-133.756"/>
</g>
<!-- Node32&#45;&gt;Node10 -->
<g id="edge122" class="edge"><title>Node32&#45;&gt;Node10</title>
<path fill="none" stroke="midnightblue" d="M1840.47,-290.483C1868.17,-281.038 1904.34,-266.738 1913,-254 1960.21,-184.516 1937.02,-76.1427 1924.37,-31.389"/>
<polygon fill="midnightblue" stroke="midnightblue" points="1927.69,-30.2737 1921.5,-21.6739 1920.98,-32.2557 1927.69,-30.2737"/>
</g>
<!-- Node32&#45;&gt;Node14 -->
<g id="edge120" class="edge"><title>Node32&#45;&gt;Node14</title>
<path fill="none" stroke="midnightblue" d="M1772.47,-297.843C1672.91,-288.663 1391.21,-262.118 1373,-254 1359.51,-247.99 1331.57,-221.213 1313.31,-202.84"/>
<polygon fill="midnightblue" stroke="midnightblue" points="1315.66,-200.237 1306.15,-195.565 1310.67,-205.147 1315.66,-200.237"/>
</g>
<!-- Node32&#45;&gt;Node18 -->
<g id="edge112" class="edge"><title>Node32&#45;&gt;Node18</title>
<path fill="none" stroke="midnightblue" d="M1772.24,-295.491C1712.47,-286.02 1589.13,-266.475 1510.98,-254.09"/>
<polygon fill="midnightblue" stroke="midnightblue" points="1511.17,-250.576 1500.74,-252.467 1510.07,-257.489 1511.17,-250.576"/>
</g>
<!-- Node32&#45;&gt;Node26 -->
<g id="edge94" class="edge"><title>Node32&#45;&gt;Node26</title>
<path fill="none" stroke="midnightblue" d="M1841.84,-297.882C1951.17,-288.096 2287.44,-257.998 2409.84,-247.042"/>
<polygon fill="midnightblue" stroke="midnightblue" points="2410.34,-250.511 2419.99,-246.134 2409.72,-243.539 2410.34,-250.511"/>
</g>
<!-- Node33 -->
<g id="node81" class="node"><title>Node33</title>
<a xlink:href="root__draw_8h.html" target="_top" xlink:title="root_draw.h">
<polygon fill="white" stroke="black" points="1556,-232.5 1556,-253.5 1624,-253.5 1624,-232.5 1556,-232.5"/>
<text text-anchor="middle" x="1590" y="-240.5" font-family="Helvetica,sans-Serif" font-size="10.00">root_draw.h</text>
</a>
</g>
<!-- Node32&#45;&gt;Node33 -->
<g id="edge96" class="edge"><title>Node32&#45;&gt;Node33</title>
<path fill="none" stroke="midnightblue" d="M1772.14,-291.681C1734.5,-281.623 1674.5,-265.584 1633.73,-254.688"/>
<polygon fill="midnightblue" stroke="midnightblue" points="1634.63,-251.305 1624.06,-252.104 1632.82,-258.068 1634.63,-251.305"/>
</g>
<!-- Node36 -->
<g id="node93" class="node"><title>Node36</title>
<polygon fill="white" stroke="#bfbfbf" points="1853.5,-232.5 1853.5,-253.5 1904.5,-253.5 1904.5,-232.5 1853.5,-232.5"/>
<text text-anchor="middle" x="1879" y="-240.5" font-family="Helvetica,sans-Serif" font-size="10.00">TH1D.h</text>
</g>
<!-- Node32&#45;&gt;Node36 -->
<g id="edge114" class="edge"><title>Node32&#45;&gt;Node36</title>
<path fill="none" stroke="midnightblue" d="M1820.21,-290.362C1830.76,-281.859 1845.76,-269.779 1857.96,-259.947"/>
<polygon fill="midnightblue" stroke="midnightblue" points="1860.29,-262.57 1865.88,-253.571 1855.89,-257.118 1860.29,-262.57"/>
</g>
<!-- Node37 -->
<g id="node95" class="node"><title>Node37</title>
<polygon fill="white" stroke="#bfbfbf" points="1641.5,-232.5 1641.5,-253.5 1692.5,-253.5 1692.5,-232.5 1641.5,-232.5"/>
<text text-anchor="middle" x="1667" y="-240.5" font-family="Helvetica,sans-Serif" font-size="10.00">TH2D.h</text>
</g>
<!-- Node32&#45;&gt;Node37 -->
<g id="edge116" class="edge"><title>Node32&#45;&gt;Node37</title>
<path fill="none" stroke="midnightblue" d="M1781.65,-290.497C1759.39,-281.275 1726.79,-267.769 1702.04,-257.515"/>
<polygon fill="midnightblue" stroke="midnightblue" points="1703.22,-254.215 1692.64,-253.621 1700.54,-260.682 1703.22,-254.215"/>
</g>
<!-- Node38 -->
<g id="node97" class="node"><title>Node38</title>
<polygon fill="white" stroke="#bfbfbf" points="1709.5,-232.5 1709.5,-253.5 1760.5,-253.5 1760.5,-232.5 1709.5,-232.5"/>
<text text-anchor="middle" x="1735" y="-240.5" font-family="Helvetica,sans-Serif" font-size="10.00">TH3D.h</text>
</g>
<!-- Node32&#45;&gt;Node38 -->
<g id="edge118" class="edge"><title>Node32&#45;&gt;Node38</title>
<path fill="none" stroke="midnightblue" d="M1793.79,-290.362C1783.24,-281.859 1768.24,-269.779 1756.04,-259.947"/>
<polygon fill="midnightblue" stroke="midnightblue" points="1758.11,-257.118 1748.12,-253.571 1753.71,-262.57 1758.11,-257.118"/>
</g>
<!-- Node39 -->
<g id="node101" class="node"><title>Node39</title>
<polygon fill="white" stroke="#bfbfbf" points="2234,-232.5 2234,-253.5 2288,-253.5 2288,-232.5 2234,-232.5"/>
<text text-anchor="middle" x="2261" y="-240.5" font-family="Helvetica,sans-Serif" font-size="10.00">iostream</text>
</g>
<!-- Node32&#45;&gt;Node39 -->
<g id="edge124" class="edge"><title>Node32&#45;&gt;Node39</title>
<path fill="none" stroke="midnightblue" d="M1841.75,-299.265C1912.22,-295.282 2077.04,-283.611 2223.55,-254.006"/>
<polygon fill="midnightblue" stroke="midnightblue" points="2224.53,-257.378 2233.62,-251.937 2223.12,-250.522 2224.53,-257.378"/>
</g>
<!-- Node40 -->
<g id="node103" class="node"><title>Node40</title>
<polygon fill="white" stroke="#bfbfbf" points="1777.5,-232.5 1777.5,-253.5 1836.5,-253.5 1836.5,-232.5 1777.5,-232.5"/>
<text text-anchor="middle" x="1807" y="-240.5" font-family="Helvetica,sans-Serif" font-size="10.00">exception</text>
</g>
<!-- Node32&#45;&gt;Node40 -->
<g id="edge126" class="edge"><title>Node32&#45;&gt;Node40</title>
<path fill="none" stroke="midnightblue" d="M1807,-290.362C1807,-282.922 1807,-272.743 1807,-263.728"/>
<polygon fill="midnightblue" stroke="midnightblue" points="1810.5,-263.571 1807,-253.571 1803.5,-263.571 1810.5,-263.571"/>
</g>
<!-- Node33&#45;&gt;Node5 -->
<g id="edge102" class="edge"><title>Node33&#45;&gt;Node5</title>
<path fill="none" stroke="midnightblue" d="M1624.2,-233.951C1627.17,-233.257 1630.13,-232.596 1633,-232 1731.72,-211.484 1758.53,-217.681 1857,-196 2101.04,-142.27 2388.81,-51.7589 2483.25,-21.3312"/>
<polygon fill="midnightblue" stroke="midnightblue" points="2484.36,-24.6535 2492.8,-18.2491 2482.2,-17.9924 2484.36,-24.6535"/>
</g>
<!-- Node33&#45;&gt;Node10 -->
<g id="edge98" class="edge"><title>Node33&#45;&gt;Node10</title>
<path fill="none" stroke="midnightblue" d="M1624.21,-234.01C1627.18,-233.303 1630.14,-232.623 1633,-232 1721.25,-212.796 1761.6,-251.311 1833,-196 1886.78,-154.341 1907.74,-70.7623 1914.83,-31.8368"/>
<polygon fill="midnightblue" stroke="midnightblue" points="1918.29,-32.3494 1916.51,-21.9056 1911.39,-31.1813 1918.29,-32.3494"/>
</g>
<!-- Node33&#45;&gt;Node14 -->
<g id="edge106" class="edge"><title>Node33&#45;&gt;Node14</title>
<path fill="none" stroke="midnightblue" d="M1555.99,-236.29C1500.21,-225.286 1389.77,-203.499 1332.45,-192.19"/>
<polygon fill="midnightblue" stroke="midnightblue" points="1332.87,-188.707 1322.39,-190.205 1331.52,-195.575 1332.87,-188.707"/>
</g>
<!-- Node33&#45;&gt;Node19 -->
<g id="edge100" class="edge"><title>Node33&#45;&gt;Node19</title>
<path fill="none" stroke="midnightblue" d="M1583.33,-232.346C1574.48,-218.466 1558.08,-193.652 1542,-174 1533.78,-163.959 1523.88,-153.468 1515.46,-144.952"/>
<polygon fill="midnightblue" stroke="midnightblue" points="1517.79,-142.332 1508.24,-137.756 1512.85,-147.292 1517.79,-142.332"/>
</g>
<!-- Node33&#45;&gt;Node22 -->
<g id="edge104" class="edge"><title>Node33&#45;&gt;Node22</title>
<path fill="none" stroke="midnightblue" d="M1624.16,-233.744C1627.14,-233.095 1630.11,-232.501 1633,-232 1802.33,-202.613 1847.5,-217.539 2018,-196 2031.73,-194.266 2046.92,-191.893 2059.55,-189.796"/>
<polygon fill="midnightblue" stroke="midnightblue" points="2060.19,-193.237 2069.46,-188.118 2059.02,-186.335 2060.19,-193.237"/>
</g>
<!-- Node33&#45;&gt;Node34 -->
<g id="edge108" class="edge"><title>Node33&#45;&gt;Node34</title>
<path fill="none" stroke="midnightblue" d="M1555.77,-237.857C1541.36,-235.819 1524.39,-233.589 1509,-232 1273.78,-207.703 990.225,-192.156 887.02,-186.945"/>
<polygon fill="midnightblue" stroke="midnightblue" points="886.913,-183.436 876.751,-186.431 886.563,-190.427 886.913,-183.436"/>
</g>
<!-- Node35 -->
<g id="node90" class="node"><title>Node35</title>
<polygon fill="white" stroke="#bfbfbf" points="634,-116.5 634,-137.5 690,-137.5 690,-116.5 634,-116.5"/>
<text text-anchor="middle" x="662" y="-124.5" font-family="Helvetica,sans-Serif" font-size="10.00">Rtypes.h</text>
</g>
<!-- Node33&#45;&gt;Node35 -->
<g id="edge110" class="edge"><title>Node33&#45;&gt;Node35</title>
<path fill="none" stroke="midnightblue" d="M1558.13,-232.4C1509.68,-216.77 1414.31,-187.893 1331,-174 1208.11,-153.505 823.142,-134.43 700.168,-128.724"/>
<polygon fill="midnightblue" stroke="midnightblue" points="700.247,-125.224 690.097,-128.26 699.925,-132.217 700.247,-125.224"/>
</g>
<!-- Node41&#45;&gt;Node4 -->
<g id="edge130" class="edge"><title>Node41&#45;&gt;Node4</title>
<path fill="none" stroke="midnightblue" d="M2738.81,-296.218C2826.59,-288.69 2985.79,-272.963 3040,-254 3087.05,-237.542 3111.51,-239.416 3136,-196 3159.71,-153.977 3106.57,-108.795 3072.24,-85.3019"/>
<polygon fill="midnightblue" stroke="midnightblue" points="3073.83,-82.1529 3063.56,-79.541 3069.96,-87.9859 3073.83,-82.1529"/>
</g>
<!-- Node41&#45;&gt;Node5 -->
<g id="edge174" class="edge"><title>Node41&#45;&gt;Node5</title>
<path fill="none" stroke="midnightblue" d="M2669.96,-290.298C2644.55,-259.657 2571.86,-168.118 2534,-80 2527.27,-64.3264 2522.29,-45.618 2519.12,-31.6383"/>
<polygon fill="midnightblue" stroke="midnightblue" points="2522.49,-30.6351 2516.97,-21.589 2515.64,-32.1 2522.49,-30.6351"/>
</g>
<!-- Node41&#45;&gt;Node19 -->
<g id="edge176" class="edge"><title>Node41&#45;&gt;Node19</title>
<path fill="none" stroke="midnightblue" d="M2619.34,-290.837C2564.99,-281.508 2482.54,-267.176 2411,-254 2360.25,-244.654 2348.2,-238.453 2297,-232 2032.83,-198.703 1960.23,-247.499 1699,-196 1632.86,-182.962 1558.73,-153.616 1521.35,-137.72"/>
<polygon fill="midnightblue" stroke="midnightblue" points="1522.39,-134.356 1511.82,-133.617 1519.62,-140.786 1522.39,-134.356"/>
</g>
<!-- Node41&#45;&gt;Node30 -->
<g id="edge132" class="edge"><title>Node41&#45;&gt;Node30</title>
<path fill="none" stroke="midnightblue" d="M2738.77,-296.45C2798.36,-289.554 2876.77,-272.625 2845,-232 2804.09,-179.696 2758.04,-228.255 2700,-196 2687.82,-189.23 2662.58,-163.35 2645.71,-145.287"/>
<polygon fill="midnightblue" stroke="midnightblue" points="2647.99,-142.596 2638.63,-137.634 2642.86,-147.351 2647.99,-142.596"/>
</g>
<!-- Node41&#45;&gt;Node39 -->
<g id="edge178" class="edge"><title>Node41&#45;&gt;Node39</title>
<path fill="none" stroke="midnightblue" d="M2619.29,-292.733C2551.57,-283.354 2437.84,-267.594 2340,-254 2326.36,-252.105 2311.4,-250.023 2298.2,-248.185"/>
<polygon fill="midnightblue" stroke="midnightblue" points="2298.44,-244.684 2288.06,-246.771 2297.48,-251.618 2298.44,-244.684"/>
</g>
<!-- Node42 -->
<g id="node109" class="node"><title>Node42</title>
<a xlink:href="_particle_type_8h.html" target="_top" xlink:title="base/ParticleType.h">
<polygon fill="white" stroke="black" points="2508,-232.5 2508,-253.5 2612,-253.5 2612,-232.5 2508,-232.5"/>
<text text-anchor="middle" x="2560" y="-240.5" font-family="Helvetica,sans-Serif" font-size="10.00">base/ParticleType.h</text>
</a>
</g>
<!-- Node41&#45;&gt;Node42 -->
<g id="edge134" class="edge"><title>Node41&#45;&gt;Node42</title>
<path fill="none" stroke="midnightblue" d="M2657.45,-290.497C2638.86,-281.438 2611.8,-268.246 2590.9,-258.063"/>
<polygon fill="midnightblue" stroke="midnightblue" points="2592.31,-254.856 2581.79,-253.621 2589.25,-261.149 2592.31,-254.856"/>
</g>
<!-- Node44 -->
<g id="node118" class="node"><title>Node44</title>
<a xlink:href="_candidate_8h.html" target="_top" xlink:title="analysis/data/Candidate.h">
<polygon fill="white" stroke="black" points="2706,-232.5 2706,-253.5 2836,-253.5 2836,-232.5 2706,-232.5"/>
<text text-anchor="middle" x="2771" y="-240.5" font-family="Helvetica,sans-Serif" font-size="10.00">analysis/data/Candidate.h</text>
</a>
</g>
<!-- Node41&#45;&gt;Node44 -->
<g id="edge148" class="edge"><title>Node41&#45;&gt;Node44</title>
<path fill="none" stroke="midnightblue" d="M2695.87,-290.362C2709.75,-281.614 2729.63,-269.079 2745.46,-259.101"/>
<polygon fill="midnightblue" stroke="midnightblue" points="2747.64,-261.864 2754.23,-253.571 2743.91,-255.943 2747.64,-261.864"/>
</g>
<!-- Node47 -->
<g id="node133" class="node"><title>Node47</title>
<polygon fill="white" stroke="#bfbfbf" points="2752,-174.5 2752,-195.5 2844,-195.5 2844,-174.5 2752,-174.5"/>
<text text-anchor="middle" x="2798" y="-182.5" font-family="Helvetica,sans-Serif" font-size="10.00">TLorentzVector.h</text>
</g>
<!-- Node41&#45;&gt;Node47 -->
<g id="edge172" class="edge"><title>Node41&#45;&gt;Node47</title>
<path fill="none" stroke="midnightblue" d="M2738.59,-295.451C2819.08,-287.346 2954.25,-271.334 2969,-254 2975.34,-246.554 2974.93,-239.776 2969,-232 2961.79,-222.542 2900.99,-207.379 2853.92,-196.844"/>
<polygon fill="midnightblue" stroke="midnightblue" points="2854.63,-193.416 2844.11,-194.67 2853.11,-200.25 2854.63,-193.416"/>
</g>
<!-- Node42&#45;&gt;Node5 -->
<g id="edge146" class="edge"><title>Node42&#45;&gt;Node5</title>
<path fill="none" stroke="midnightblue" d="M2527.67,-232.367C2510.85,-225.001 2491.8,-213.344 2482,-196 2451.83,-142.599 2463.52,-116.483 2482,-58 2485.3,-47.5574 2491.84,-37.4231 2498.24,-29.2551"/>
<polygon fill="midnightblue" stroke="midnightblue" points="2500.98,-31.4395 2504.71,-21.5245 2495.61,-26.9468 2500.98,-31.4395"/>
</g>
<!-- Node42&#45;&gt;Node6 -->
<g id="edge140" class="edge"><title>Node42&#45;&gt;Node6</title>
<path fill="none" stroke="midnightblue" d="M2612.22,-238.13C2722.81,-227.7 2971.98,-203.536 2989,-196 3076.33,-157.332 3153.07,-68.5473 3183.77,-29.7357"/>
<polygon fill="midnightblue" stroke="midnightblue" points="3186.54,-31.8702 3189.92,-21.8306 3181.02,-27.5682 3186.54,-31.8702"/>
</g>
<!-- Node42&#45;&gt;Node10 -->
<g id="edge138" class="edge"><title>Node42&#45;&gt;Node10</title>
<path fill="none" stroke="midnightblue" d="M2507.98,-233.145C2447.1,-221.438 2352.58,-202.655 2337,-196 2333.38,-194.453 2223.36,-118.052 2220,-116 2173.83,-87.8079 2163.5,-77.3902 2113,-58 2056.99,-36.4918 1988.04,-22.645 1948.94,-15.8897"/>
<polygon fill="midnightblue" stroke="midnightblue" points="1949.18,-12.3812 1938.74,-14.1719 1948.02,-19.284 1949.18,-12.3812"/>
</g>
<!-- Node42&#45;&gt;Node22 -->
<g id="edge142" class="edge"><title>Node42&#45;&gt;Node22</title>
<path fill="none" stroke="midnightblue" d="M2507.8,-233.32C2504.83,-232.852 2501.88,-232.408 2499,-232 2345.05,-210.187 2305.04,-217.181 2151,-196 2139.07,-194.359 2125.94,-192.172 2114.71,-190.18"/>
<polygon fill="midnightblue" stroke="midnightblue" points="2115.07,-186.689 2104.61,-188.354 2113.83,-193.577 2115.07,-186.689"/>
</g>
<!-- Node42&#45;&gt;Node30 -->
<g id="edge136" class="edge"><title>Node42&#45;&gt;Node30</title>
<path fill="none" stroke="midnightblue" d="M2564.95,-232.479C2571.54,-218.744 2583.78,-194.086 2596,-174 2601.85,-164.391 2608.95,-154.123 2615.06,-145.644"/>
<polygon fill="midnightblue" stroke="midnightblue" points="2617.9,-147.693 2620.99,-137.558 2612.25,-143.557 2617.9,-147.693"/>
</g>
<!-- Node43 -->
<g id="node115" class="node"><title>Node43</title>
<polygon fill="white" stroke="#bfbfbf" points="2345.5,-174.5 2345.5,-195.5 2392.5,-195.5 2392.5,-174.5 2345.5,-174.5"/>
<text text-anchor="middle" x="2369" y="-182.5" font-family="Helvetica,sans-Serif" font-size="10.00">iterator</text>
</g>
<!-- Node42&#45;&gt;Node43 -->
<g id="edge144" class="edge"><title>Node42&#45;&gt;Node43</title>
<path fill="none" stroke="midnightblue" d="M2525.41,-232.497C2490.48,-221.89 2436.89,-205.616 2402.39,-195.141"/>
<polygon fill="midnightblue" stroke="midnightblue" points="2403.36,-191.776 2392.77,-192.219 2401.32,-198.474 2403.36,-191.776"/>
</g>
<!-- Node44&#45;&gt;Node3 -->
<g id="edge154" class="edge"><title>Node44&#45;&gt;Node3</title>
<path fill="none" stroke="midnightblue" d="M2705.69,-237.723C2679.39,-235.725 2648.77,-233.56 2621,-232 2211.56,-209 2105.08,-253.187 1699,-196 1613.3,-183.932 1515.69,-156.858 1461.01,-140.44"/>
<polygon fill="midnightblue" stroke="midnightblue" points="1461.9,-137.052 1451.31,-137.505 1459.87,-143.752 1461.9,-137.052"/>
</g>
<!-- Node44&#45;&gt;Node4 -->
<g id="edge150" class="edge"><title>Node44&#45;&gt;Node4</title>
<path fill="none" stroke="midnightblue" d="M2836.21,-235.496C2891.65,-227.958 2965.83,-214.76 2989,-196 3022.33,-169.014 3036.84,-118.421 3042.61,-89.9128"/>
<polygon fill="midnightblue" stroke="midnightblue" points="3046.09,-90.3032 3044.47,-79.8343 3039.21,-89.034 3046.09,-90.3032"/>
</g>
<!-- Node44&#45;&gt;Node5 -->
<g id="edge170" class="edge"><title>Node44&#45;&gt;Node5</title>
<path fill="none" stroke="midnightblue" d="M2730.27,-232.492C2705.41,-224.862 2673.74,-212.894 2649,-196 2585.83,-152.871 2541.79,-69.7229 2523.9,-31.3353"/>
<polygon fill="midnightblue" stroke="midnightblue" points="2526.88,-29.4245 2519.56,-21.7655 2520.51,-32.318 2526.88,-29.4245"/>
</g>
<!-- Node44&#45;&gt;Node6 -->
<g id="edge166" class="edge"><title>Node44&#45;&gt;Node6</title>
<path fill="none" stroke="midnightblue" d="M2836.08,-236.25C2895.18,-229.218 2984.41,-216.342 3060,-196 3129.82,-177.211 3170.99,-197.549 3212,-138 3234.2,-105.764 3219.15,-57.6282 3207.65,-30.8273"/>
<polygon fill="midnightblue" stroke="midnightblue" points="3210.81,-29.3401 3203.5,-21.6778 3204.44,-32.2307 3210.81,-29.3401"/>
</g>
<!-- Node44&#45;&gt;Node14 -->
<g id="edge168" class="edge"><title>Node44&#45;&gt;Node14</title>
<path fill="none" stroke="midnightblue" d="M2705.69,-237.672C2679.39,-235.668 2648.77,-233.51 2621,-232 2359.74,-217.792 1517.6,-191.754 1332.29,-186.101"/>
<polygon fill="midnightblue" stroke="midnightblue" points="1332.35,-182.602 1322.25,-185.795 1332.14,-189.598 1332.35,-182.602"/>
</g>
<!-- Node44&#45;&gt;Node30 -->
<g id="edge152" class="edge"><title>Node44&#45;&gt;Node30</title>
<path fill="none" stroke="midnightblue" d="M2737.01,-232.368C2716.48,-224.691 2690.74,-212.718 2672,-196 2656.77,-182.412 2645.02,-162.154 2637.68,-147.1"/>
<polygon fill="midnightblue" stroke="midnightblue" points="2640.69,-145.266 2633.32,-137.656 2634.34,-148.202 2640.69,-145.266"/>
</g>
<!-- Node45 -->
<g id="node123" class="node"><title>Node45</title>
<a xlink:href="_cluster_8h.html" target="_top" xlink:title="analysis/data/Cluster.h">
<polygon fill="white" stroke="black" points="1707.5,-174.5 1707.5,-195.5 1824.5,-195.5 1824.5,-174.5 1707.5,-174.5"/>
<text text-anchor="middle" x="1766" y="-182.5" font-family="Helvetica,sans-Serif" font-size="10.00">analysis/data/Cluster.h</text>
</a>
</g>
<!-- Node44&#45;&gt;Node45 -->
<g id="edge156" class="edge"><title>Node44&#45;&gt;Node45</title>
<path fill="none" stroke="midnightblue" d="M2705.67,-237.949C2679.37,-235.983 2648.75,-233.78 2621,-232 2328.71,-213.25 1979.9,-195.522 1834.69,-188.349"/>
<polygon fill="midnightblue" stroke="midnightblue" points="1834.75,-184.848 1824.59,-187.851 1834.41,-191.839 1834.75,-184.848"/>
</g>
<!-- Node45&#45;&gt;Node3 -->
<g id="edge158" class="edge"><title>Node45&#45;&gt;Node3</title>
<path fill="none" stroke="midnightblue" d="M1707.3,-175.796C1639.72,-165.16 1531.74,-148.034 1475.78,-138.266"/>
<polygon fill="midnightblue" stroke="midnightblue" points="1476.09,-134.767 1465.64,-136.473 1474.88,-141.66 1476.09,-134.767"/>
</g>
<!-- Node45&#45;&gt;Node7 -->
<g id="edge162" class="edge"><title>Node45&#45;&gt;Node7</title>
<path fill="none" stroke="midnightblue" d="M1750.84,-174.352C1739.15,-165.587 1723.15,-152.313 1712,-138 1700.31,-122.995 1690.84,-103.475 1684.71,-89.027"/>
<polygon fill="midnightblue" stroke="midnightblue" points="1687.87,-87.488 1680.86,-79.5405 1681.38,-90.1225 1687.87,-87.488"/>
</g>
<!-- Node45&#45;&gt;Node19 -->
<g id="edge160" class="edge"><title>Node45&#45;&gt;Node19</title>
<path fill="none" stroke="midnightblue" d="M1717.29,-174.497C1659.52,-162.041 1565.52,-141.774 1521.37,-132.254"/>
<polygon fill="midnightblue" stroke="midnightblue" points="1522.02,-128.815 1511.51,-130.128 1520.55,-135.658 1522.02,-128.815"/>
</g>
<!-- Node46 -->
<g id="node128" class="node"><title>Node46</title>
<a xlink:href="enumfield_8h.html" target="_top" xlink:title="base/enumfield.h">
<polygon fill="white" stroke="black" points="1720.5,-116.5 1720.5,-137.5 1811.5,-137.5 1811.5,-116.5 1720.5,-116.5"/>
<text text-anchor="middle" x="1766" y="-124.5" font-family="Helvetica,sans-Serif" font-size="10.00">base/enumfield.h</text>
</a>
</g>
<!-- Node45&#45;&gt;Node46 -->
<g id="edge164" class="edge"><title>Node45&#45;&gt;Node46</title>
<path fill="none" stroke="midnightblue" d="M1766,-174.362C1766,-166.922 1766,-156.743 1766,-147.728"/>
<polygon fill="midnightblue" stroke="midnightblue" points="1769.5,-147.571 1766,-137.571 1762.5,-147.571 1769.5,-147.571"/>
</g>
<!-- Node48&#45;&gt;Node4 -->
<g id="edge252" class="edge"><title>Node48&#45;&gt;Node4</title>
<path fill="none" stroke="midnightblue" d="M2777.64,-359.622C2831.47,-352.27 2914.7,-337.75 2983,-312 3031.8,-293.603 3042.41,-284.1 3085,-254 3117.16,-231.267 3135.63,-231.822 3152,-196 3163.07,-171.774 3135.34,-118.795 3133,-116 3121.04,-101.683 3103.55,-91.0522 3087.39,-83.5574"/>
<polygon fill="midnightblue" stroke="midnightblue" points="3088.65,-80.2862 3078.08,-79.5028 3085.85,-86.7041 3088.65,-80.2862"/>
</g>
<!-- Node48&#45;&gt;Node5 -->
<g id="edge254" class="edge"><title>Node48&#45;&gt;Node5</title>
<path fill="none" stroke="midnightblue" d="M2777.71,-359.449C2917.87,-342.219 3274,-293.473 3274,-243 3274,-243 3274,-243 3274,-185 3274,-88.5392 3188.52,-91.3259 3098,-58 2995.62,-20.3096 2654.39,-12.7782 2547.38,-11.3311"/>
<polygon fill="midnightblue" stroke="midnightblue" points="2547.25,-7.82922 2537.21,-11.2025 2547.16,-14.8287 2547.25,-7.82922"/>
</g>
<!-- Node48&#45;&gt;Node14 -->
<g id="edge256" class="edge"><title>Node48&#45;&gt;Node14</title>
<path fill="none" stroke="midnightblue" d="M2666.46,-364.613C2467.93,-359.461 1793.87,-340.257 1580,-312 1460.47,-296.208 1402.49,-336.954 1315,-254 1301.94,-241.617 1297.58,-221.158 1296.25,-205.726"/>
<polygon fill="midnightblue" stroke="midnightblue" points="1299.74,-205.376 1295.74,-195.564 1292.74,-205.728 1299.74,-205.376"/>
</g>
<!-- Node48&#45;&gt;Node22 -->
<g id="edge258" class="edge"><title>Node48&#45;&gt;Node22</title>
<path fill="none" stroke="midnightblue" d="M2695.31,-355.436C2632.49,-330.895 2470.04,-269.288 2330,-232 2289.42,-221.195 2169.14,-199.489 2114.53,-189.828"/>
<polygon fill="midnightblue" stroke="midnightblue" points="2114.98,-186.354 2104.52,-188.063 2113.76,-193.248 2114.98,-186.354"/>
</g>
<!-- Node48&#45;&gt;Node30 -->
<g id="edge250" class="edge"><title>Node48&#45;&gt;Node30</title>
<path fill="none" stroke="midnightblue" d="M2777.53,-359.717C2869.93,-346.899 3039.96,-311.903 2985,-232 2959.65,-195.141 2931.37,-215.268 2891,-196 2873.39,-187.595 2871.31,-180.759 2853,-174 2773.39,-144.608 2744.99,-160.437 2663.27,-139.283"/>
<polygon fill="midnightblue" stroke="midnightblue" points="2664.15,-135.894 2653.58,-136.668 2662.32,-142.653 2664.15,-135.894"/>
</g>
<!-- Node48&#45;&gt;Node41 -->
<g id="edge184" class="edge"><title>Node48&#45;&gt;Node41</title>
<path fill="none" stroke="midnightblue" d="M2714.9,-355.267C2708.58,-345.707 2699.17,-331.496 2691.58,-320.015"/>
<polygon fill="midnightblue" stroke="midnightblue" points="2694.4,-317.943 2685.97,-311.534 2688.57,-321.805 2694.4,-317.943"/>
</g>
<!-- Node48&#45;&gt;Node44 -->
<g id="edge186" class="edge"><title>Node48&#45;&gt;Node44</title>
<path fill="none" stroke="midnightblue" d="M2727.3,-355.379C2732.59,-344.587 2740.81,-327.325 2747,-312 2753.52,-295.883 2759.93,-277.245 2764.49,-263.406"/>
<polygon fill="midnightblue" stroke="midnightblue" points="2767.83,-264.471 2767.58,-253.879 2761.17,-262.309 2767.83,-264.471"/>
</g>
<!-- Node49 -->
<g id="node143" class="node"><title>Node49</title>
<a xlink:href="_tagger_hit_8h.html" target="_top" xlink:title="TaggerHit.h">
<polygon fill="white" stroke="black" points="2892,-232.5 2892,-253.5 2960,-253.5 2960,-232.5 2892,-232.5"/>
<text text-anchor="middle" x="2926" y="-240.5" font-family="Helvetica,sans-Serif" font-size="10.00">TaggerHit.h</text>
</a>
</g>
<!-- Node48&#45;&gt;Node49 -->
<g id="edge188" class="edge"><title>Node48&#45;&gt;Node49</title>
<path fill="none" stroke="midnightblue" d="M2739.75,-355.3C2775.78,-333.573 2857.67,-284.2 2899.83,-258.777"/>
<polygon fill="midnightblue" stroke="midnightblue" points="2901.68,-261.749 2908.44,-253.588 2898.07,-255.754 2901.68,-261.749"/>
</g>
<!-- Node50 -->
<g id="node150" class="node"><title>Node50</title>
<a xlink:href="_trigger_info_8h.html" target="_top" xlink:title="TriggerInfo.h">
<polygon fill="white" stroke="black" points="1588.5,-290.5 1588.5,-311.5 1659.5,-311.5 1659.5,-290.5 1588.5,-290.5"/>
<text text-anchor="middle" x="1624" y="-298.5" font-family="Helvetica,sans-Serif" font-size="10.00">TriggerInfo.h</text>
</a>
</g>
<!-- Node48&#45;&gt;Node50 -->
<g id="edge200" class="edge"><title>Node48&#45;&gt;Node50</title>
<path fill="none" stroke="midnightblue" d="M2666.36,-363.295C2519.07,-356.039 2106.8,-335.126 1764,-312 1732.51,-309.876 1697.06,-307.087 1669.72,-304.849"/>
<polygon fill="midnightblue" stroke="midnightblue" points="1669.91,-301.353 1659.66,-304.02 1669.34,-308.329 1669.91,-301.353"/>
</g>
<!-- Node49&#45;&gt;Node4 -->
<g id="edge196" class="edge"><title>Node49&#45;&gt;Node4</title>
<path fill="none" stroke="midnightblue" d="M2960.36,-234.627C2981.33,-227.729 3006.93,-215.778 3022,-196 3045.68,-164.923 3048.25,-117.366 3047.47,-90.1258"/>
<polygon fill="midnightblue" stroke="midnightblue" points="3050.95,-89.6263 3046.99,-79.8023 3043.96,-89.9561 3050.95,-89.6263"/>
</g>
<!-- Node49&#45;&gt;Node14 -->
<g id="edge192" class="edge"><title>Node49&#45;&gt;Node14</title>
<path fill="none" stroke="midnightblue" d="M2891.8,-237.548C2877.39,-235.461 2860.42,-233.277 2845,-232 2767.26,-225.56 1558.75,-192.206 1332.38,-185.996"/>
<polygon fill="midnightblue" stroke="midnightblue" points="1332.15,-182.488 1322.06,-185.713 1331.96,-189.486 1332.15,-182.488"/>
</g>
<!-- Node49&#45;&gt;Node19 -->
<g id="edge190" class="edge"><title>Node49&#45;&gt;Node19</title>
<path fill="none" stroke="midnightblue" d="M2891.71,-237.531C2808.07,-224.403 2586.85,-190.944 2401,-174 2389.73,-172.972 1665.91,-135.694 1521.8,-128.276"/>
<polygon fill="midnightblue" stroke="midnightblue" points="1521.9,-124.777 1511.74,-127.758 1521.54,-131.768 1521.9,-124.777"/>
</g>
<!-- Node49&#45;&gt;Node30 -->
<g id="edge194" class="edge"><title>Node49&#45;&gt;Node30</title>
<path fill="none" stroke="midnightblue" d="M2891.61,-234.742C2842.5,-222.864 2756.68,-201.751 2743,-196 2725.01,-188.438 2681.2,-160.867 2653.43,-142.95"/>
<polygon fill="midnightblue" stroke="midnightblue" points="2655.33,-140.008 2645.03,-137.509 2651.53,-145.883 2655.33,-140.008"/>
</g>
<!-- Node49&#45;&gt;Node47 -->
<g id="edge198" class="edge"><title>Node49&#45;&gt;Node47</title>
<path fill="none" stroke="midnightblue" d="M2902.82,-232.497C2882.65,-223.356 2853.19,-210.008 2830.64,-199.788"/>
<polygon fill="midnightblue" stroke="midnightblue" points="2831.99,-196.561 2821.44,-195.621 2829.1,-202.937 2831.99,-196.561"/>
</g>
<!-- Node50&#45;&gt;Node4 -->
<g id="edge204" class="edge"><title>Node50&#45;&gt;Node4</title>
<path fill="none" stroke="midnightblue" d="M1659.64,-297.719C1687.92,-295.233 1728.46,-291.926 1764,-290 1897.75,-282.752 2843.2,-300.01 2969,-254 3007.92,-239.766 3018.87,-230.381 3042,-196 3062.29,-165.842 3063.89,-152.019 3059,-116 3057.8,-107.134 3055.37,-97.5776 3052.94,-89.4123"/>
<polygon fill="midnightblue" stroke="midnightblue" points="3056.2,-88.1247 3049.84,-79.6546 3049.53,-90.245 3056.2,-88.1247"/>
</g>
<!-- Node50&#45;&gt;Node14 -->
<g id="edge248" class="edge"><title>Node50&#45;&gt;Node14</title>
<path fill="none" stroke="midnightblue" d="M1588.44,-298.709C1521.59,-293.827 1380.3,-280.608 1340,-254 1322.4,-242.377 1310.41,-221.026 1303.45,-205.141"/>
<polygon fill="midnightblue" stroke="midnightblue" points="1306.6,-203.594 1299.59,-195.648 1300.11,-206.23 1306.6,-203.594"/>
</g>
<!-- Node50&#45;&gt;Node19 -->
<g id="edge246" class="edge"><title>Node50&#45;&gt;Node19</title>
<path fill="none" stroke="midnightblue" d="M1598.14,-290.449C1581.58,-282.551 1560.7,-270.306 1547,-254 1520.33,-222.273 1506.77,-174.617 1500.85,-147.608"/>
<polygon fill="midnightblue" stroke="midnightblue" points="1504.26,-146.81 1498.82,-137.716 1497.4,-148.215 1504.26,-146.81"/>
</g>
<!-- Node50&#45;&gt;Node30 -->
<g id="edge202" class="edge"><title>Node50&#45;&gt;Node30</title>
<path fill="none" stroke="midnightblue" d="M1659.65,-297.839C1687.93,-295.418 1728.47,-292.141 1764,-290 1811.57,-287.133 2586.95,-287.341 2621,-254 2649.01,-226.572 2642.03,-176.15 2635.11,-147.788"/>
<polygon fill="midnightblue" stroke="midnightblue" points="2638.4,-146.527 2632.44,-137.765 2631.64,-148.329 2638.4,-146.527"/>
</g>
<!-- Node51 -->
<g id="node154" class="node"><title>Node51</title>
<a xlink:href="_t_data_record_8h.html" target="_top" xlink:title="tree/TDataRecord.h">
<polygon fill="white" stroke="black" points="327.5,-232.5 327.5,-253.5 430.5,-253.5 430.5,-232.5 327.5,-232.5"/>
<text text-anchor="middle" x="379" y="-240.5" font-family="Helvetica,sans-Serif" font-size="10.00">tree/TDataRecord.h</text>
</a>
</g>
<!-- Node50&#45;&gt;Node51 -->
<g id="edge206" class="edge"><title>Node50&#45;&gt;Node51</title>
<path fill="none" stroke="midnightblue" d="M1588.41,-299.342C1415.59,-291.291 663.121,-256.236 440.966,-245.887"/>
<polygon fill="midnightblue" stroke="midnightblue" points="440.945,-242.382 430.793,-245.413 440.619,-249.374 440.945,-242.382"/>
</g>
<!-- Node51&#45;&gt;Node35 -->
<g id="edge240" class="edge"><title>Node51&#45;&gt;Node35</title>
<path fill="none" stroke="midnightblue" d="M390.06,-232.429C406.568,-217.235 439.235,-189.364 472,-174 533.292,-145.26 554.365,-154.576 620,-138 621.233,-137.689 622.486,-137.37 623.751,-137.048"/>
<polygon fill="midnightblue" stroke="midnightblue" points="624.74,-140.407 633.551,-134.523 622.994,-133.629 624.74,-140.407"/>
</g>
<!-- Node52 -->
<g id="node156" class="node"><title>Node52</title>
<a xlink:href="_t_i_d_8h.html" target="_top" xlink:title="TID.h">
<polygon fill="white" stroke="black" points="379.5,-174.5 379.5,-195.5 420.5,-195.5 420.5,-174.5 379.5,-174.5"/>
<text text-anchor="middle" x="400" y="-182.5" font-family="Helvetica,sans-Serif" font-size="10.00">TID.h</text>
</a>
</g>
<!-- Node51&#45;&gt;Node52 -->
<g id="edge208" class="edge"><title>Node51&#45;&gt;Node52</title>
<path fill="none" stroke="midnightblue" d="M382.852,-232.362C385.605,-224.758 389.394,-214.294 392.71,-205.135"/>
<polygon fill="midnightblue" stroke="midnightblue" points="396.059,-206.165 396.173,-195.571 389.477,-203.782 396.059,-206.165"/>
</g>
<!-- Node57 -->
<g id="node170" class="node"><title>Node57</title>
<polygon fill="white" stroke="#bfbfbf" points="265.5,-58.5 265.5,-79.5 306.5,-79.5 306.5,-58.5 265.5,-58.5"/>
<text text-anchor="middle" x="286" y="-66.5" font-family="Helvetica,sans-Serif" font-size="10.00">ctime</text>
</g>
<!-- Node51&#45;&gt;Node57 -->
<g id="edge244" class="edge"><title>Node51&#45;&gt;Node57</title>
<path fill="none" stroke="midnightblue" d="M371.897,-232.232C359.692,-213.506 334.288,-173.537 316,-138 307.808,-122.081 299.788,-103.429 294.105,-89.5334"/>
<polygon fill="midnightblue" stroke="midnightblue" points="297.231,-87.9281 290.25,-79.959 290.738,-90.5426 297.231,-87.9281"/>
</g>
<!-- Node59 -->
<g id="node177" class="node"><title>Node59</title>
<polygon fill="white" stroke="#bfbfbf" points="358,-116.5 358,-137.5 408,-137.5 408,-116.5 358,-116.5"/>
<text text-anchor="middle" x="383" y="-124.5" font-family="Helvetica,sans-Serif" font-size="10.00">iomanip</text>
</g>
<!-- Node51&#45;&gt;Node59 -->
<g id="edge242" class="edge"><title>Node51&#45;&gt;Node59</title>
<path fill="none" stroke="midnightblue" d="M376.146,-232.236C372.914,-218.654 368.414,-194.58 371,-174 372.11,-165.169 374.348,-155.619 376.595,-147.449"/>
<polygon fill="midnightblue" stroke="midnightblue" points="380.004,-148.26 379.458,-137.68 373.286,-146.292 380.004,-148.26"/>
</g>
<!-- Node52&#45;&gt;Node4 -->
<g id="edge212" class="edge"><title>Node52&#45;&gt;Node4</title>
<path fill="none" stroke="midnightblue" d="M420.854,-184.491C549.602,-181.313 1249.54,-163.49 1820,-138 2273.97,-117.715 2821.95,-83.3714 2992.64,-72.4456"/>
<polygon fill="midnightblue" stroke="midnightblue" points="2993.1,-75.9231 3002.86,-71.7905 2992.65,-68.9374 2993.1,-75.9231"/>
</g>
<!-- Node52&#45;&gt;Node8 -->
<g id="edge232" class="edge"><title>Node52&#45;&gt;Node8</title>
<path fill="none" stroke="midnightblue" d="M420.574,-178.068C424.685,-176.704 428.976,-175.295 433,-174 484.386,-157.464 499.009,-158.369 549,-138 568.88,-129.9 571.289,-121.646 592,-116 738.202,-76.1463 1218.57,-70.0791 1349.68,-69.162"/>
<polygon fill="midnightblue" stroke="midnightblue" points="1349.92,-72.6606 1359.9,-69.0962 1349.88,-65.6608 1349.92,-72.6606"/>
</g>
<!-- Node52&#45;&gt;Node9 -->
<g id="edge234" class="edge"><title>Node52&#45;&gt;Node9</title>
<path fill="none" stroke="midnightblue" d="M420.508,-177.849C424.624,-176.503 428.934,-175.157 433,-174 499.775,-155.004 520.216,-162.956 585,-138 603.933,-130.707 605.469,-121.494 625,-116 791.117,-69.2755 1225.53,-107.208 1413.18,-79.897"/>
<polygon fill="midnightblue" stroke="midnightblue" points="1413.94,-83.3206 1423.28,-78.3223 1412.86,-76.4041 1413.94,-83.3206"/>
</g>
<!-- Node52&#45;&gt;Node11 -->
<g id="edge228" class="edge"><title>Node52&#45;&gt;Node11</title>
<path fill="none" stroke="midnightblue" d="M414.975,-174.147C426.009,-165.464 440.663,-152.392 450,-138 459.682,-123.077 465.958,-103.796 469.655,-89.4103"/>
<polygon fill="midnightblue" stroke="midnightblue" points="473.099,-90.0541 471.993,-79.5172 466.287,-88.4443 473.099,-90.0541"/>
</g>
<!-- Node52&#45;&gt;Node35 -->
<g id="edge210" class="edge"><title>Node52&#45;&gt;Node35</title>
<path fill="none" stroke="midnightblue" d="M420.74,-177.847C425.092,-176.471 429.674,-175.114 434,-174 515.54,-153.002 537.897,-156.676 620,-138 621.24,-137.718 622.5,-137.425 623.77,-137.124"/>
<polygon fill="midnightblue" stroke="midnightblue" points="624.721,-140.495 633.595,-134.706 623.048,-133.698 624.721,-140.495"/>
</g>
<!-- Node53 -->
<g id="node160" class="node"><title>Node53</title>
<a xlink:href="time_8h.html" target="_top" xlink:title="base/std_ext/time.h">
<polygon fill="white" stroke="black" points="69.5,-116.5 69.5,-137.5 172.5,-137.5 172.5,-116.5 69.5,-116.5"/>
<text text-anchor="middle" x="121" y="-124.5" font-family="Helvetica,sans-Serif" font-size="10.00">base/std_ext/time.h</text>
</a>
</g>
<!-- Node52&#45;&gt;Node53 -->
<g id="edge214" class="edge"><title>Node52&#45;&gt;Node53</title>
<path fill="none" stroke="midnightblue" d="M379.484,-180.735C338.358,-172.186 244.422,-152.658 181.847,-139.649"/>
<polygon fill="midnightblue" stroke="midnightblue" points="182.206,-136.149 171.703,-137.54 180.781,-143.003 182.206,-136.149"/>
</g>
<!-- Node52&#45;&gt;Node57 -->
<g id="edge238" class="edge"><title>Node52&#45;&gt;Node57</title>
<path fill="none" stroke="midnightblue" d="M407.604,-174.199C416.774,-159.712 429.495,-133.758 417,-116 405.218,-99.2557 351.627,-84.0838 316.745,-75.7402"/>
<polygon fill="midnightblue" stroke="midnightblue" points="317.12,-72.234 306.587,-73.3759 315.533,-79.0518 317.12,-72.234"/>
</g>
<!-- Node58 -->
<g id="node173" class="node"><title>Node58</title>
<polygon fill="white" stroke="#bfbfbf" points="502,-116.5 502,-137.5 540,-137.5 540,-116.5 502,-116.5"/>
<text text-anchor="middle" x="521" y="-124.5" font-family="Helvetica,sans-Serif" font-size="10.00">tuple</text>
</g>
<!-- Node52&#45;&gt;Node58 -->
<g id="edge230" class="edge"><title>Node52&#45;&gt;Node58</title>
<path fill="none" stroke="midnightblue" d="M420.526,-175.161C440.378,-165.645 470.624,-151.147 492.744,-140.544"/>
<polygon fill="midnightblue" stroke="midnightblue" points="494.466,-143.6 501.971,-136.121 491.441,-137.288 494.466,-143.6"/>
</g>
<!-- Node52&#45;&gt;Node59 -->
<g id="edge236" class="edge"><title>Node52&#45;&gt;Node59</title>
<path fill="none" stroke="midnightblue" d="M396.882,-174.362C394.677,-166.84 391.652,-156.519 388.988,-147.431"/>
<polygon fill="midnightblue" stroke="midnightblue" points="392.27,-146.182 386.098,-137.571 385.552,-148.151 392.27,-146.182"/>
</g>
<!-- Node54 -->
<g id="node162" class="node"><title>Node54</title>
<a xlink:href="string_8h.html" target="_top" xlink:title="base/std_ext/string.h">
<polygon fill="white" stroke="black" points="64,-58.5 64,-79.5 172,-79.5 172,-58.5 64,-58.5"/>
<text text-anchor="middle" x="118" y="-66.5" font-family="Helvetica,sans-Serif" font-size="10.00">base/std_ext/string.h</text>
</a>
</g>
<!-- Node53&#45;&gt;Node54 -->
<g id="edge216" class="edge"><title>Node53&#45;&gt;Node54</title>
<path fill="none" stroke="midnightblue" d="M120.45,-116.362C120.065,-108.922 119.538,-98.7427 119.072,-89.7276"/>
<polygon fill="midnightblue" stroke="midnightblue" points="122.559,-89.3765 118.547,-79.5707 115.568,-89.7381 122.559,-89.3765"/>
</g>
<!-- Node56 -->
<g id="node168" class="node"><title>Node56</title>
<polygon fill="white" stroke="#bfbfbf" points="0,-58.5 0,-79.5 46,-79.5 46,-58.5 0,-58.5"/>
<text text-anchor="middle" x="23" y="-66.5" font-family="Helvetica,sans-Serif" font-size="10.00">cstring</text>
</g>
<!-- Node53&#45;&gt;Node56 -->
<g id="edge224" class="edge"><title>Node53&#45;&gt;Node56</title>
<path fill="none" stroke="midnightblue" d="M103.025,-116.362C88.1058,-107.532 66.6674,-94.844 49.7344,-84.8224"/>
<polygon fill="midnightblue" stroke="midnightblue" points="51.2492,-81.6519 40.8608,-79.5707 47.6839,-87.6759 51.2492,-81.6519"/>
</g>
<!-- Node53&#45;&gt;Node57 -->
<g id="edge226" class="edge"><title>Node53&#45;&gt;Node57</title>
<path fill="none" stroke="midnightblue" d="M150.88,-116.497C180.584,-106.055 225.905,-90.1241 255.741,-79.6366"/>
<polygon fill="midnightblue" stroke="midnightblue" points="256.947,-82.9227 265.22,-76.3044 254.625,-76.3188 256.947,-82.9227"/>
</g>
<!-- Node54&#45;&gt;Node10 -->
<g id="edge218" class="edge"><title>Node54&#45;&gt;Node10</title>
<path fill="none" stroke="midnightblue" d="M172.107,-59.5807C176.796,-58.9669 181.476,-58.4254 186,-58 535.029,-25.1815 1684.31,-13.1621 1887.25,-11.2734"/>
<polygon fill="midnightblue" stroke="midnightblue" points="1887.51,-14.7713 1897.48,-11.1794 1887.44,-7.77156 1887.51,-14.7713"/>
</g>
<!-- Node54&#45;&gt;Node29 -->
<g id="edge222" class="edge"><title>Node54&#45;&gt;Node29</title>
<path fill="none" stroke="midnightblue" d="M172.082,-63.9914C197.786,-61.7977 228.955,-59.4072 257,-58 1007.34,-20.35 1196.13,-46.9887 1947,-22 2019.4,-19.5906 2103.87,-15.4716 2151.73,-13.0157"/>
<polygon fill="midnightblue" stroke="midnightblue" points="2152.14,-16.4995 2161.95,-12.4884 2151.78,-9.50884 2152.14,-16.4995"/>
</g>
<!-- Node55 -->
<g id="node165" class="node"><title>Node55</title>
<polygon fill="white" stroke="#bfbfbf" points="92,-0.5 92,-21.5 144,-21.5 144,-0.5 92,-0.5"/>
<text text-anchor="middle" x="118" y="-8.5" font-family="Helvetica,sans-Serif" font-size="10.00">sstream</text>
</g>
<!-- Node54&#45;&gt;Node55 -->
<g id="edge220" class="edge"><title>Node54&#45;&gt;Node55</title>
<path fill="none" stroke="midnightblue" d="M118,-58.3619C118,-50.9219 118,-40.7427 118,-31.7276"/>
<polygon fill="midnightblue" stroke="midnightblue" points="121.5,-31.5706 118,-21.5707 114.5,-31.5707 121.5,-31.5706"/>
</g>
<!-- Node60&#45;&gt;Node5 -->
<g id="edge262" class="edge"><title>Node60&#45;&gt;Node5</title>
<path fill="none" stroke="midnightblue" d="M3102.75,-355.432C3172.5,-335.256 3312,-289.138 3312,-243 3312,-243 3312,-243 3312,-127 3312,-47.5128 3224.3,-76.5201 3147,-58 3031.17,-30.2478 2659.19,-15.8193 2547.2,-12.0287"/>
<polygon fill="midnightblue" stroke="midnightblue" points="2547.3,-8.53031 2537.19,-11.695 2547.07,-15.5264 2547.3,-8.53031"/>
</g>
<!-- Node61&#45;&gt;Node10 -->
<g id="edge286" class="edge"><title>Node61&#45;&gt;Node10</title>
<path fill="none" stroke="midnightblue" d="M665.416,-364.544C528.68,-359.561 200,-337.73 200,-243 200,-243 200,-243 200,-127 200,-94.5312 197.801,-77.1786 224,-58 258.909,-32.446 1660.44,-14.1648 1887.17,-11.3719"/>
<polygon fill="midnightblue" stroke="midnightblue" points="1887.39,-14.8695 1897.35,-11.2472 1887.31,-7.87001 1887.39,-14.8695"/>
</g>
<!-- Node61&#45;&gt;Node19 -->
<g id="edge288" class="edge"><title>Node61&#45;&gt;Node19</title>
<path fill="none" stroke="midnightblue" d="M714.095,-348.875C693.947,-311.552 653.841,-222.355 700,-174 757.588,-113.671 1351.62,-156.143 1472.08,-137.151"/>
<polygon fill="midnightblue" stroke="midnightblue" points="1473.11,-140.514 1482.23,-135.116 1471.74,-133.651 1473.11,-140.514"/>
</g>
<!-- Node61&#45;&gt;Node28 -->
<g id="edge278" class="edge"><title>Node61&#45;&gt;Node28</title>
<path fill="none" stroke="midnightblue" d="M782.63,-361.891C844.201,-357.731 943.857,-351.435 1030,-348 1411.34,-332.792 2368.58,-361.474 2747,-312 2854.95,-297.886 2917.74,-339.615 2985,-254 2998.21,-237.183 2980.64,-216.47 2963.73,-202.151"/>
<polygon fill="midnightblue" stroke="midnightblue" points="2965.62,-199.183 2955.62,-195.68 2961.26,-204.654 2965.62,-199.183"/>
</g>
<!-- Node61&#45;&gt;Node62 -->
<g id="edge280" class="edge"><title>Node61&#45;&gt;Node62</title>
<path fill="none" stroke="midnightblue" d="M665.321,-361.518C566.263,-353.638 359.677,-335.846 186,-312 184.732,-311.826 183.45,-311.645 182.158,-311.459"/>
<polygon fill="midnightblue" stroke="midnightblue" points="182.539,-307.976 172.127,-309.934 181.487,-314.897 182.539,-307.976"/>
</g>
<!-- Node62&#45;&gt;Node51 -->
<g id="edge282" class="edge"><title>Node62&#45;&gt;Node51</title>
<path fill="none" stroke="midnightblue" d="M169.36,-290.497C212.45,-280.734 276.725,-266.172 322.736,-255.747"/>
<polygon fill="midnightblue" stroke="midnightblue" points="323.574,-259.146 332.553,-253.523 322.027,-252.319 323.574,-259.146"/>
</g>
<!-- Node62&#45;&gt;Node53 -->
<g id="edge284" class="edge"><title>Node62&#45;&gt;Node53</title>
<path fill="none" stroke="midnightblue" d="M122.878,-290.377C122.555,-262.293 121.674,-185.673 121.244,-148.203"/>
<polygon fill="midnightblue" stroke="midnightblue" points="124.74,-147.887 121.126,-137.928 117.741,-147.967 124.74,-147.887"/>
</g>
<!-- Node64&#45;&gt;Node2 -->
<g id="edge318" class="edge"><title>Node64&#45;&gt;Node2</title>
<path fill="none" stroke="midnightblue" d="M1618.35,-710.362C1617.19,-702.922 1615.62,-692.743 1614.22,-683.728"/>
<polygon fill="midnightblue" stroke="midnightblue" points="1617.63,-682.916 1612.64,-673.571 1610.72,-683.989 1617.63,-682.916"/>
</g>
</g>
</svg>
