<?xml version="1.0" encoding="UTF-8" standalone="no"?>
<!DOCTYPE svg PUBLIC "-//W3C//DTD SVG 1.1//EN"
 "http://www.w3.org/Graphics/SVG/1.1/DTD/svg11.dtd">
<!-- Generated by graphviz version 2.26.3 (20100126.1600)
 -->
<!-- Title: src/calibration/Editor.h Pages: 1 -->
<svg width="1210pt" height="450pt"
 viewBox="0.00 0.00 1210.40 450.00" xmlns="http://www.w3.org/2000/svg" xmlns:xlink="http://www.w3.org/1999/xlink">
<g id="graph1" class="graph" transform="scale(1 1) rotate(0) translate(4 446)">
<title>src/calibration/Editor.h</title>
<polygon fill="white" stroke="white" points="-4,5 -4,-446 1207.4,-446 1207.4,5 -4,5"/>
<!-- Node1 -->
<g id="node1" class="node"><title>Node1</title>
<polygon fill="#bfbfbf" stroke="black" points="886,-420.5 886,-441.5 1000,-441.5 1000,-420.5 886,-420.5"/>
<text text-anchor="middle" x="943" y="-428.5" font-family="Helvetica,sans-Serif" font-size="10.00">src/calibration/Editor.h</text>
</g>
<!-- Node2 -->
<g id="node3" class="node"><title>Node2</title>
<a xlink:href="root__draw_8h.html" target="_top" xlink:title="analysis/plot/root\l_draw.h">
<polygon fill="white" stroke="black" points="789.5,-291 789.5,-325 880.5,-325 880.5,-291 789.5,-291"/>
<text text-anchor="start" x="797.5" y="-312" font-family="Helvetica,sans-Serif" font-size="10.00">analysis/plot/root</text>
<text text-anchor="middle" x="835" y="-299" font-family="Helvetica,sans-Serif" font-size="10.00">_draw.h</text>
</a>
</g>
<!-- Node1&#45;&gt;Node2 -->
<g id="edge2" class="edge"><title>Node1&#45;&gt;Node2</title>
<path fill="none" stroke="midnightblue" d="M933.416,-420.085C916.386,-400.69 880.447,-359.76 857.035,-333.095"/>
<polygon fill="midnightblue" stroke="midnightblue" points="859.434,-330.522 850.205,-325.317 854.173,-335.141 859.434,-330.522"/>
</g>
<!-- Node3 -->
<g id="node5" class="node"><title>Node3</title>
<polygon fill="white" stroke="#bfbfbf" points="131.5,-0.5 131.5,-21.5 172.5,-21.5 172.5,-0.5 131.5,-0.5"/>
<text text-anchor="middle" x="152" y="-8.5" font-family="Helvetica,sans-Serif" font-size="10.00">string</text>
</g>
<!-- Node1&#45;&gt;Node3 -->
<g id="edge108" class="edge"><title>Node1&#45;&gt;Node3</title>
<path fill="none" stroke="midnightblue" d="M885.783,-429.592C681.474,-423.818 0,-397.826 0,-308 0,-308 0,-308 0,-127 0,-66.4845 77.079,-33.3328 121.46,-19.2602"/>
<polygon fill="midnightblue" stroke="midnightblue" points="122.628,-22.5635 131.184,-16.315 120.599,-15.8641 122.628,-22.5635"/>
</g>
<!-- Node5 -->
<g id="node9" class="node"><title>Node5</title>
<polygon fill="white" stroke="#bfbfbf" points="920,-58.5 920,-79.5 964,-79.5 964,-58.5 920,-58.5"/>
<text text-anchor="middle" x="942" y="-66.5" font-family="Helvetica,sans-Serif" font-size="10.00">vector</text>
</g>
<!-- Node1&#45;&gt;Node5 -->
<g id="edge110" class="edge"><title>Node1&#45;&gt;Node5</title>
<path fill="none" stroke="midnightblue" d="M963.99,-420.391C996.668,-402.209 1056,-361.791 1056,-308 1056,-308 1056,-308 1056,-185 1056,-153.192 1057.25,-140.531 1037,-116 1020.89,-96.4868 994.683,-84.3762 973.869,-77.3455"/>
<polygon fill="midnightblue" stroke="midnightblue" points="974.741,-73.951 964.152,-74.2919 972.643,-80.629 974.741,-73.951"/>
</g>
<!-- Node7 -->
<g id="node13" class="node"><title>Node7</title>
<polygon fill="white" stroke="#bfbfbf" points="970,-232.5 970,-253.5 1022,-253.5 1022,-232.5 970,-232.5"/>
<text text-anchor="middle" x="996" y="-240.5" font-family="Helvetica,sans-Serif" font-size="10.00">memory</text>
</g>
<!-- Node1&#45;&gt;Node7 -->
<g id="edge106" class="edge"><title>Node1&#45;&gt;Node7</title>
<path fill="none" stroke="midnightblue" d="M946.001,-420.354C954.546,-390.043 979.109,-302.914 990.31,-263.182"/>
<polygon fill="midnightblue" stroke="midnightblue" points="993.687,-264.104 993.032,-253.53 986.949,-262.205 993.687,-264.104"/>
</g>
<!-- Node10 -->
<g id="node19" class="node"><title>Node10</title>
<a xlink:href="interval_8h.html" target="_top" xlink:title="base/interval.h">
<polygon fill="white" stroke="black" points="1084,-174.5 1084,-195.5 1164,-195.5 1164,-174.5 1084,-174.5"/>
<text text-anchor="middle" x="1124" y="-182.5" font-family="Helvetica,sans-Serif" font-size="10.00">base/interval.h</text>
</a>
</g>
<!-- Node1&#45;&gt;Node10 -->
<g id="edge18" class="edge"><title>Node1&#45;&gt;Node10</title>
<path fill="none" stroke="midnightblue" d="M1000.18,-421.918C1024.75,-415.264 1051.92,-403.78 1070,-384 1116.71,-332.913 1123.66,-245.465 1124.27,-205.733"/>
<polygon fill="midnightblue" stroke="midnightblue" points="1127.77,-205.661 1124.3,-195.651 1120.77,-205.641 1127.77,-205.661"/>
</g>
<!-- Node17 -->
<g id="node34" class="node"><title>Node17</title>
<a xlink:href="_data_manager_8h.html" target="_top" xlink:title="DataManager.h">
<polygon fill="white" stroke="black" points="595.5,-362.5 595.5,-383.5 678.5,-383.5 678.5,-362.5 595.5,-362.5"/>
<text text-anchor="middle" x="637" y="-370.5" font-family="Helvetica,sans-Serif" font-size="10.00">DataManager.h</text>
</a>
</g>
<!-- Node1&#45;&gt;Node17 -->
<g id="edge34" class="edge"><title>Node1&#45;&gt;Node17</title>
<path fill="none" stroke="midnightblue" d="M887.586,-420.497C831,-409.771 743.85,-393.253 688.663,-382.792"/>
<polygon fill="midnightblue" stroke="midnightblue" points="689.222,-379.336 678.745,-380.913 687.919,-386.214 689.222,-379.336"/>
</g>
<!-- Node2&#45;&gt;Node3 -->
<g id="edge4" class="edge"><title>Node2&#45;&gt;Node3</title>
<path fill="none" stroke="midnightblue" d="M833.885,-290.986C830.537,-253.885 817.407,-165.104 767,-116 682.348,-33.5368 295.172,-15.3655 182.712,-11.7978"/>
<polygon fill="midnightblue" stroke="midnightblue" points="182.807,-8.29911 172.706,-11.4964 182.596,-15.2959 182.807,-8.29911"/>
</g>
<!-- Node4 -->
<g id="node7" class="node"><title>Node4</title>
<polygon fill="white" stroke="#bfbfbf" points="681.5,-232.5 681.5,-253.5 710.5,-253.5 710.5,-232.5 681.5,-232.5"/>
<text text-anchor="middle" x="696" y="-240.5" font-family="Helvetica,sans-Serif" font-size="10.00">list</text>
</g>
<!-- Node2&#45;&gt;Node4 -->
<g id="edge6" class="edge"><title>Node2&#45;&gt;Node4</title>
<path fill="none" stroke="midnightblue" d="M798.123,-290.952C777.354,-281.324 750.731,-268.938 719.856,-254.38"/>
<polygon fill="midnightblue" stroke="midnightblue" points="721.127,-251.11 710.59,-250.006 718.139,-257.44 721.127,-251.11"/>
</g>
<!-- Node2&#45;&gt;Node5 -->
<g id="edge8" class="edge"><title>Node2&#45;&gt;Node5</title>
<path fill="none" stroke="midnightblue" d="M879.354,-290.915C895.741,-282.333 912.79,-270.236 923,-254 955.555,-202.232 950.338,-125.797 945.421,-89.5339"/>
<polygon fill="midnightblue" stroke="midnightblue" points="948.882,-89.0161 943.946,-79.6412 941.959,-90.0479 948.882,-89.0161"/>
</g>
<!-- Node6 -->
<g id="node11" class="node"><title>Node6</title>
<polygon fill="white" stroke="#bfbfbf" points="727.5,-232.5 727.5,-253.5 762.5,-253.5 762.5,-232.5 727.5,-232.5"/>
<text text-anchor="middle" x="745" y="-240.5" font-family="Helvetica,sans-Serif" font-size="10.00">map</text>
</g>
<!-- Node2&#45;&gt;Node6 -->
<g id="edge10" class="edge"><title>Node2&#45;&gt;Node6</title>
<path fill="none" stroke="midnightblue" d="M811.354,-290.922C797.939,-281.233 781.228,-269.165 767.932,-259.562"/>
<polygon fill="midnightblue" stroke="midnightblue" points="769.914,-256.676 759.758,-253.658 765.815,-262.351 769.914,-256.676"/>
</g>
<!-- Node2&#45;&gt;Node7 -->
<g id="edge12" class="edge"><title>Node2&#45;&gt;Node7</title>
<path fill="none" stroke="midnightblue" d="M877.301,-290.922C903.127,-280.495 935.782,-267.312 960.301,-257.413"/>
<polygon fill="midnightblue" stroke="midnightblue" points="961.638,-260.648 969.6,-253.658 959.017,-254.157 961.638,-260.648"/>
</g>
<!-- Node8 -->
<g id="node15" class="node"><title>Node8</title>
<polygon fill="white" stroke="#bfbfbf" points="855.5,-232.5 855.5,-253.5 914.5,-253.5 914.5,-232.5 855.5,-232.5"/>
<text text-anchor="middle" x="885" y="-240.5" font-family="Helvetica,sans-Serif" font-size="10.00">functional</text>
</g>
<!-- Node2&#45;&gt;Node8 -->
<g id="edge14" class="edge"><title>Node2&#45;&gt;Node8</title>
<path fill="none" stroke="midnightblue" d="M848.137,-290.922C854.978,-282.029 863.362,-271.13 870.405,-261.974"/>
<polygon fill="midnightblue" stroke="midnightblue" points="873.329,-263.912 876.652,-253.852 867.781,-259.644 873.329,-263.912"/>
</g>
<!-- Node9 -->
<g id="node17" class="node"><title>Node9</title>
<polygon fill="white" stroke="#bfbfbf" points="702,-116.5 702,-137.5 758,-137.5 758,-116.5 702,-116.5"/>
<text text-anchor="middle" x="730" y="-124.5" font-family="Helvetica,sans-Serif" font-size="10.00">Rtypes.h</text>
</g>
<!-- Node2&#45;&gt;Node9 -->
<g id="edge16" class="edge"><title>Node2&#45;&gt;Node9</title>
<path fill="none" stroke="midnightblue" d="M825.122,-290.972C805.616,-257.348 762.251,-182.594 741.499,-146.821"/>
<polygon fill="midnightblue" stroke="midnightblue" points="744.329,-144.725 736.284,-137.832 738.274,-148.238 744.329,-144.725"/>
</g>
<!-- Node11 -->
<g id="node21" class="node"><title>Node11</title>
<polygon fill="white" stroke="#bfbfbf" points="1006,-0.5 1006,-21.5 1062,-21.5 1062,-0.5 1006,-0.5"/>
<text text-anchor="middle" x="1034" y="-8.5" font-family="Helvetica,sans-Serif" font-size="10.00">algorithm</text>
</g>
<!-- Node10&#45;&gt;Node11 -->
<g id="edge20" class="edge"><title>Node10&#45;&gt;Node11</title>
<path fill="none" stroke="midnightblue" d="M1152,-174.307C1178.68,-162.342 1212.88,-141.281 1199,-116 1172.11,-67.0212 1111.62,-37.6247 1071.83,-22.873"/>
<polygon fill="midnightblue" stroke="midnightblue" points="1072.79,-19.4987 1062.19,-19.435 1070.43,-26.0917 1072.79,-19.4987"/>
</g>
<!-- Node12 -->
<g id="node23" class="node"><title>Node12</title>
<polygon fill="white" stroke="#bfbfbf" points="969.5,-116.5 969.5,-137.5 1028.5,-137.5 1028.5,-116.5 969.5,-116.5"/>
<text text-anchor="middle" x="999" y="-124.5" font-family="Helvetica,sans-Serif" font-size="10.00">stdexcept</text>
</g>
<!-- Node10&#45;&gt;Node12 -->
<g id="edge22" class="edge"><title>Node10&#45;&gt;Node12</title>
<path fill="none" stroke="midnightblue" d="M1101.36,-174.497C1081.75,-165.397 1053.15,-152.127 1031.17,-141.925"/>
<polygon fill="midnightblue" stroke="midnightblue" points="1032.43,-138.655 1021.89,-137.621 1029.49,-145.005 1032.43,-138.655"/>
</g>
<!-- Node13 -->
<g id="node25" class="node"><title>Node13</title>
<a xlink:href="printable_8h.html" target="_top" xlink:title="printable.h">
<polygon fill="white" stroke="black" points="814,-116.5 814,-137.5 876,-137.5 876,-116.5 814,-116.5"/>
<text text-anchor="middle" x="845" y="-124.5" font-family="Helvetica,sans-Serif" font-size="10.00">printable.h</text>
</a>
</g>
<!-- Node10&#45;&gt;Node13 -->
<g id="edge24" class="edge"><title>Node10&#45;&gt;Node13</title>
<path fill="none" stroke="midnightblue" d="M1083.73,-176.628C1031.1,-165.688 939.405,-146.625 886.282,-135.582"/>
<polygon fill="midnightblue" stroke="midnightblue" points="886.698,-132.094 876.195,-133.485 885.273,-138.947 886.698,-132.094"/>
</g>
<!-- Node15 -->
<g id="node30" class="node"><title>Node15</title>
<a xlink:href="types_8h.html" target="_top" xlink:title="types.h">
<polygon fill="white" stroke="black" points="1083.5,-116.5 1083.5,-137.5 1132.5,-137.5 1132.5,-116.5 1083.5,-116.5"/>
<text text-anchor="middle" x="1108" y="-124.5" font-family="Helvetica,sans-Serif" font-size="10.00">types.h</text>
</a>
</g>
<!-- Node10&#45;&gt;Node15 -->
<g id="edge30" class="edge"><title>Node10&#45;&gt;Node15</title>
<path fill="none" stroke="midnightblue" d="M1121.07,-174.362C1118.99,-166.84 1116.14,-156.519 1113.64,-147.431"/>
<polygon fill="midnightblue" stroke="midnightblue" points="1116.95,-146.28 1110.92,-137.571 1110.2,-148.141 1116.95,-146.28"/>
</g>
<!-- Node16 -->
<g id="node32" class="node"><title>Node16</title>
<polygon fill="white" stroke="#bfbfbf" points="1150,-116.5 1150,-137.5 1190,-137.5 1190,-116.5 1150,-116.5"/>
<text text-anchor="middle" x="1170" y="-124.5" font-family="Helvetica,sans-Serif" font-size="10.00">limits</text>
</g>
<!-- Node10&#45;&gt;Node16 -->
<g id="edge32" class="edge"><title>Node10&#45;&gt;Node16</title>
<path fill="none" stroke="midnightblue" d="M1132.44,-174.362C1138.79,-166.35 1147.67,-155.161 1155.19,-145.67"/>
<polygon fill="midnightblue" stroke="midnightblue" points="1158.14,-147.581 1161.62,-137.571 1152.66,-143.231 1158.14,-147.581"/>
</g>
<!-- Node13&#45;&gt;Node5 -->
<g id="edge26" class="edge"><title>Node13&#45;&gt;Node5</title>
<path fill="none" stroke="midnightblue" d="M862.791,-116.362C877.559,-107.532 898.778,-94.844 915.538,-84.8224"/>
<polygon fill="midnightblue" stroke="midnightblue" points="917.535,-87.7066 924.321,-79.5707 913.943,-81.6987 917.535,-87.7066"/>
</g>
<!-- Node14 -->
<g id="node28" class="node"><title>Node14</title>
<polygon fill="white" stroke="#bfbfbf" points="850,-58.5 850,-79.5 902,-79.5 902,-58.5 850,-58.5"/>
<text text-anchor="middle" x="876" y="-66.5" font-family="Helvetica,sans-Serif" font-size="10.00">ostream</text>
</g>
<!-- Node13&#45;&gt;Node14 -->
<g id="edge28" class="edge"><title>Node13&#45;&gt;Node14</title>
<path fill="none" stroke="midnightblue" d="M850.686,-116.362C854.837,-108.595 860.584,-97.8426 865.553,-88.5458"/>
<polygon fill="midnightblue" stroke="midnightblue" points="868.723,-90.0398 870.35,-79.5707 862.55,-86.7401 868.723,-90.0398"/>
</g>
<!-- Node17&#45;&gt;Node3 -->
<g id="edge102" class="edge"><title>Node17&#45;&gt;Node3</title>
<path fill="none" stroke="midnightblue" d="M595.355,-368.412C459.515,-352.892 38,-300.131 38,-243 38,-243 38,-243 38,-127 38,-78.8649 88.5515,-43.3986 122.329,-25.0733"/>
<polygon fill="midnightblue" stroke="midnightblue" points="124.109,-28.0923 131.355,-20.3629 120.871,-21.8865 124.109,-28.0923"/>
</g>
<!-- Node17&#45;&gt;Node4 -->
<g id="edge100" class="edge"><title>Node17&#45;&gt;Node4</title>
<path fill="none" stroke="midnightblue" d="M649.979,-362.416C659.783,-353.685 672.749,-340.427 680,-326 689.893,-306.316 693.685,-281.177 695.13,-263.749"/>
<polygon fill="midnightblue" stroke="midnightblue" points="698.637,-263.747 695.781,-253.545 691.651,-263.302 698.637,-263.747"/>
</g>
<!-- Node17&#45;&gt;Node7 -->
<g id="edge104" class="edge"><title>Node17&#45;&gt;Node7</title>
<path fill="none" stroke="midnightblue" d="M678.935,-371.207C730.46,-367.673 819.576,-357.175 889,-326 924.438,-310.087 958.705,-280.138 978.55,-260.901"/>
<polygon fill="midnightblue" stroke="midnightblue" points="981.255,-263.149 985.897,-253.625 976.329,-258.175 981.255,-263.149"/>
</g>
<!-- Node18 -->
<g id="node36" class="node"><title>Node18</title>
<a xlink:href="_t_calibration_data_8h.html" target="_top" xlink:title="tree/TCalibrationData.h">
<polygon fill="white" stroke="black" points="270,-232.5 270,-253.5 388,-253.5 388,-232.5 270,-232.5"/>
<text text-anchor="middle" x="329" y="-240.5" font-family="Helvetica,sans-Serif" font-size="10.00">tree/TCalibrationData.h</text>
</a>
</g>
<!-- Node17&#45;&gt;Node18 -->
<g id="edge36" class="edge"><title>Node17&#45;&gt;Node18</title>
<path fill="none" stroke="midnightblue" d="M612.056,-362.472C557.273,-339.349 426.344,-284.087 363.634,-257.618"/>
<polygon fill="midnightblue" stroke="midnightblue" points="364.751,-254.291 354.177,-253.627 362.029,-260.74 364.751,-254.291"/>
</g>
<!-- Node30 -->
<g id="node69" class="node"><title>Node30</title>
<a xlink:href="_t_data_record_8h.html" target="_top" xlink:title="tree/TDataRecord.h">
<polygon fill="white" stroke="black" points="523.5,-232.5 523.5,-253.5 626.5,-253.5 626.5,-232.5 523.5,-232.5"/>
<text text-anchor="middle" x="575" y="-240.5" font-family="Helvetica,sans-Serif" font-size="10.00">tree/TDataRecord.h</text>
</a>
</g>
<!-- Node17&#45;&gt;Node30 -->
<g id="edge78" class="edge"><title>Node17&#45;&gt;Node30</title>
<path fill="none" stroke="midnightblue" d="M624.159,-362.345C614.431,-353.576 601.499,-340.3 594,-326 583.693,-306.348 578.941,-281.203 576.773,-263.765"/>
<polygon fill="midnightblue" stroke="midnightblue" points="580.225,-263.129 575.689,-253.554 573.264,-263.868 580.225,-263.129"/>
</g>
<!-- Node31 -->
<g id="node75" class="node"><title>Node31</title>
<a xlink:href="_data_base_8h.html" target="_top" xlink:title="DataBase.h">
<polygon fill="white" stroke="black" points="603,-297.5 603,-318.5 671,-318.5 671,-297.5 603,-297.5"/>
<text text-anchor="middle" x="637" y="-305.5" font-family="Helvetica,sans-Serif" font-size="10.00">DataBase.h</text>
</a>
</g>
<!-- Node17&#45;&gt;Node31 -->
<g id="edge88" class="edge"><title>Node17&#45;&gt;Node31</title>
<path fill="none" stroke="midnightblue" d="M637,-362.267C637,-353.18 637,-339.892 637,-328.74"/>
<polygon fill="midnightblue" stroke="midnightblue" points="640.5,-328.534 637,-318.534 633.5,-328.534 640.5,-328.534"/>
</g>
<!-- Node18&#45;&gt;Node3 -->
<g id="edge70" class="edge"><title>Node18&#45;&gt;Node3</title>
<path fill="none" stroke="midnightblue" d="M284.506,-232.467C262.873,-225.344 237.951,-213.883 221,-196 176.12,-148.653 159.835,-69.4611 154.433,-31.9383"/>
<polygon fill="midnightblue" stroke="midnightblue" points="157.862,-31.1698 153.086,-21.7124 150.922,-32.0838 157.862,-31.1698"/>
</g>
<!-- Node19 -->
<g id="node38" class="node"><title>Node19</title>
<a xlink:href="_t_i_d_8h.html" target="_top" xlink:title="TID.h">
<polygon fill="white" stroke="black" points="544.5,-174.5 544.5,-195.5 585.5,-195.5 585.5,-174.5 544.5,-174.5"/>
<text text-anchor="middle" x="565" y="-182.5" font-family="Helvetica,sans-Serif" font-size="10.00">TID.h</text>
</a>
</g>
<!-- Node18&#45;&gt;Node19 -->
<g id="edge38" class="edge"><title>Node18&#45;&gt;Node19</title>
<path fill="none" stroke="midnightblue" d="M371.738,-232.497C418.759,-220.94 493.147,-202.659 534.579,-192.476"/>
<polygon fill="midnightblue" stroke="midnightblue" points="535.491,-195.856 544.367,-190.071 533.82,-189.059 535.491,-195.856"/>
</g>
<!-- Node24 -->
<g id="node52" class="node"><title>Node24</title>
<polygon fill="white" stroke="#bfbfbf" points="246.5,-58.5 246.5,-79.5 287.5,-79.5 287.5,-58.5 246.5,-58.5"/>
<text text-anchor="middle" x="267" y="-66.5" font-family="Helvetica,sans-Serif" font-size="10.00">ctime</text>
</g>
<!-- Node18&#45;&gt;Node24 -->
<g id="edge72" class="edge"><title>Node18&#45;&gt;Node24</title>
<path fill="none" stroke="midnightblue" d="M284.943,-232.475C265.821,-225.484 245.26,-214.134 234,-196 215.244,-165.794 223.286,-149.903 234,-116 237.3,-105.557 243.844,-95.4231 250.24,-87.2551"/>
<polygon fill="midnightblue" stroke="midnightblue" points="252.976,-89.4395 256.71,-79.5245 247.608,-84.9468 252.976,-89.4395"/>
</g>
<!-- Node29 -->
<g id="node66" class="node"><title>Node29</title>
<a xlink:href="_git_info_8h.html" target="_top" xlink:title="base/GitInfo.h">
<polygon fill="white" stroke="black" points="66,-174.5 66,-195.5 144,-195.5 144,-174.5 66,-174.5"/>
<text text-anchor="middle" x="105" y="-182.5" font-family="Helvetica,sans-Serif" font-size="10.00">base/GitInfo.h</text>
</a>
</g>
<!-- Node18&#45;&gt;Node29 -->
<g id="edge74" class="edge"><title>Node18&#45;&gt;Node29</title>
<path fill="none" stroke="midnightblue" d="M288.435,-232.497C250.662,-222.716 194.283,-208.118 154.008,-197.69"/>
<polygon fill="midnightblue" stroke="midnightblue" points="154.695,-194.252 144.137,-195.134 152.94,-201.029 154.695,-194.252"/>
</g>
<!-- Node19&#45;&gt;Node9 -->
<g id="edge40" class="edge"><title>Node19&#45;&gt;Node9</title>
<path fill="none" stroke="midnightblue" d="M585.564,-177.772C612.182,-168.415 659.073,-151.932 692.196,-140.289"/>
<polygon fill="midnightblue" stroke="midnightblue" points="693.722,-143.462 701.995,-136.844 691.401,-136.858 693.722,-143.462"/>
</g>
<!-- Node19&#45;&gt;Node12 -->
<g id="edge64" class="edge"><title>Node19&#45;&gt;Node12</title>
<path fill="none" stroke="midnightblue" d="M585.641,-182.242C653.374,-173.19 869.649,-144.287 959.39,-132.294"/>
<polygon fill="midnightblue" stroke="midnightblue" points="959.989,-135.745 969.437,-130.951 959.062,-128.806 959.989,-135.745"/>
</g>
<!-- Node19&#45;&gt;Node13 -->
<g id="edge42" class="edge"><title>Node19&#45;&gt;Node13</title>
<path fill="none" stroke="midnightblue" d="M585.589,-180.735C631.434,-171.239 742.667,-148.197 803.526,-135.591"/>
<polygon fill="midnightblue" stroke="midnightblue" points="804.478,-138.968 813.56,-133.513 803.058,-132.114 804.478,-138.968"/>
</g>
<!-- Node20 -->
<g id="node42" class="node"><title>Node20</title>
<a xlink:href="time_8h.html" target="_top" xlink:title="base/std_ext/time.h">
<polygon fill="white" stroke="black" points="513.5,-116.5 513.5,-137.5 616.5,-137.5 616.5,-116.5 513.5,-116.5"/>
<text text-anchor="middle" x="565" y="-124.5" font-family="Helvetica,sans-Serif" font-size="10.00">base/std_ext/time.h</text>
</a>
</g>
<!-- Node19&#45;&gt;Node20 -->
<g id="edge44" class="edge"><title>Node19&#45;&gt;Node20</title>
<path fill="none" stroke="midnightblue" d="M565,-174.362C565,-166.922 565,-156.743 565,-147.728"/>
<polygon fill="midnightblue" stroke="midnightblue" points="568.5,-147.571 565,-137.571 561.5,-147.571 568.5,-147.571"/>
</g>
<!-- Node19&#45;&gt;Node24 -->
<g id="edge68" class="edge"><title>Node19&#45;&gt;Node24</title>
<path fill="none" stroke="midnightblue" d="M544.307,-183.539C489.753,-179.336 343.553,-165.706 305,-138 288.668,-126.263 278.56,-105.241 272.915,-89.4742"/>
<polygon fill="midnightblue" stroke="midnightblue" points="276.118,-88.0056 269.698,-79.5774 269.461,-90.1695 276.118,-88.0056"/>
</g>
<!-- Node25 -->
<g id="node54" class="node"><title>Node25</title>
<polygon fill="white" stroke="#bfbfbf" points="314,-116.5 314,-137.5 376,-137.5 376,-116.5 314,-116.5"/>
<text text-anchor="middle" x="345" y="-124.5" font-family="Helvetica,sans-Serif" font-size="10.00">type_traits</text>
</g>
<!-- Node19&#45;&gt;Node25 -->
<g id="edge58" class="edge"><title>Node19&#45;&gt;Node25</title>
<path fill="none" stroke="midnightblue" d="M544.461,-179.729C512.648,-171.546 449.3,-155.172 386.152,-138.288"/>
<polygon fill="midnightblue" stroke="midnightblue" points="386.997,-134.892 376.432,-135.685 385.186,-141.653 386.997,-134.892"/>
</g>
<!-- Node26 -->
<g id="node56" class="node"><title>Node26</title>
<polygon fill="white" stroke="#bfbfbf" points="394,-116.5 394,-137.5 432,-137.5 432,-116.5 394,-116.5"/>
<text text-anchor="middle" x="413" y="-124.5" font-family="Helvetica,sans-Serif" font-size="10.00">tuple</text>
</g>
<!-- Node19&#45;&gt;Node26 -->
<g id="edge60" class="edge"><title>Node19&#45;&gt;Node26</title>
<path fill="none" stroke="midnightblue" d="M544.347,-177.259C521.444,-168.655 483.175,-154.225 441.722,-138.253"/>
<polygon fill="midnightblue" stroke="midnightblue" points="442.857,-134.94 432.268,-134.605 440.337,-141.47 442.857,-134.94"/>
</g>
<!-- Node27 -->
<g id="node58" class="node"><title>Node27</title>
<polygon fill="white" stroke="#bfbfbf" points="450,-116.5 450,-137.5 496,-137.5 496,-116.5 450,-116.5"/>
<text text-anchor="middle" x="473" y="-124.5" font-family="Helvetica,sans-Serif" font-size="10.00">cstdint</text>
</g>
<!-- Node19&#45;&gt;Node27 -->
<g id="edge62" class="edge"><title>Node19&#45;&gt;Node27</title>
<path fill="none" stroke="midnightblue" d="M548.126,-174.362C534.249,-165.614 514.366,-153.079 498.54,-143.101"/>
<polygon fill="midnightblue" stroke="midnightblue" points="500.093,-139.943 489.767,-137.571 496.36,-145.864 500.093,-139.943"/>
</g>
<!-- Node28 -->
<g id="node61" class="node"><title>Node28</title>
<polygon fill="white" stroke="#bfbfbf" points="634,-116.5 634,-137.5 684,-137.5 684,-116.5 634,-116.5"/>
<text text-anchor="middle" x="659" y="-124.5" font-family="Helvetica,sans-Serif" font-size="10.00">iomanip</text>
</g>
<!-- Node19&#45;&gt;Node28 -->
<g id="edge66" class="edge"><title>Node19&#45;&gt;Node28</title>
<path fill="none" stroke="midnightblue" d="M582.241,-174.362C596.552,-165.532 617.115,-152.844 633.357,-142.822"/>
<polygon fill="midnightblue" stroke="midnightblue" points="635.196,-145.8 641.868,-137.571 631.52,-139.843 635.196,-145.8"/>
</g>
<!-- Node21 -->
<g id="node44" class="node"><title>Node21</title>
<a xlink:href="string_8h.html" target="_top" xlink:title="base/std_ext/string.h">
<polygon fill="white" stroke="black" points="724,-58.5 724,-79.5 832,-79.5 832,-58.5 724,-58.5"/>
<text text-anchor="middle" x="778" y="-66.5" font-family="Helvetica,sans-Serif" font-size="10.00">base/std_ext/string.h</text>
</a>
</g>
<!-- Node20&#45;&gt;Node21 -->
<g id="edge46" class="edge"><title>Node20&#45;&gt;Node21</title>
<path fill="none" stroke="midnightblue" d="M603.573,-116.497C638.899,-106.877 691.338,-92.5981 729.491,-82.209"/>
<polygon fill="midnightblue" stroke="midnightblue" points="730.626,-85.5275 739.355,-79.5231 728.787,-78.7734 730.626,-85.5275"/>
</g>
<!-- Node23 -->
<g id="node50" class="node"><title>Node23</title>
<polygon fill="white" stroke="#bfbfbf" points="542,-58.5 542,-79.5 588,-79.5 588,-58.5 542,-58.5"/>
<text text-anchor="middle" x="565" y="-66.5" font-family="Helvetica,sans-Serif" font-size="10.00">cstring</text>
</g>
<!-- Node20&#45;&gt;Node23 -->
<g id="edge54" class="edge"><title>Node20&#45;&gt;Node23</title>
<path fill="none" stroke="midnightblue" d="M565,-116.362C565,-108.922 565,-98.7427 565,-89.7276"/>
<polygon fill="midnightblue" stroke="midnightblue" points="568.5,-89.5706 565,-79.5707 561.5,-89.5707 568.5,-89.5706"/>
</g>
<!-- Node20&#45;&gt;Node24 -->
<g id="edge56" class="edge"><title>Node20&#45;&gt;Node24</title>
<path fill="none" stroke="midnightblue" d="M513.433,-116.963C451.224,-104.856 348.664,-84.8943 297.709,-74.9769"/>
<polygon fill="midnightblue" stroke="midnightblue" points="298.136,-71.4945 287.652,-73.0195 296.799,-78.3656 298.136,-71.4945"/>
</g>
<!-- Node21&#45;&gt;Node3 -->
<g id="edge48" class="edge"><title>Node21&#45;&gt;Node3</title>
<path fill="none" stroke="midnightblue" d="M723.863,-59.8603C719.18,-59.1858 714.511,-58.554 710,-58 509.634,-33.392 267.19,-17.7819 182.755,-12.763"/>
<polygon fill="midnightblue" stroke="midnightblue" points="182.768,-9.25784 172.579,-12.1643 182.356,-16.2458 182.768,-9.25784"/>
</g>
<!-- Node21&#45;&gt;Node11 -->
<g id="edge52" class="edge"><title>Node21&#45;&gt;Node11</title>
<path fill="none" stroke="midnightblue" d="M824.36,-58.4966C873.521,-47.3585 950.259,-29.9726 995.987,-19.6123"/>
<polygon fill="midnightblue" stroke="midnightblue" points="996.826,-23.0111 1005.81,-17.3879 995.279,-16.1841 996.826,-23.0111"/>
</g>
<!-- Node22 -->
<g id="node47" class="node"><title>Node22</title>
<polygon fill="white" stroke="#bfbfbf" points="752,-0.5 752,-21.5 804,-21.5 804,-0.5 752,-0.5"/>
<text text-anchor="middle" x="778" y="-8.5" font-family="Helvetica,sans-Serif" font-size="10.00">sstream</text>
</g>
<!-- Node21&#45;&gt;Node22 -->
<g id="edge50" class="edge"><title>Node21&#45;&gt;Node22</title>
<path fill="none" stroke="midnightblue" d="M778,-58.3619C778,-50.9219 778,-40.7427 778,-31.7276"/>
<polygon fill="midnightblue" stroke="midnightblue" points="781.5,-31.5706 778,-21.5707 774.5,-31.5707 781.5,-31.5706"/>
</g>
<!-- Node29&#45;&gt;Node3 -->
<g id="edge76" class="edge"><title>Node29&#45;&gt;Node3</title>
<path fill="none" stroke="midnightblue" d="M107.869,-174.377C115.488,-146.172 136.33,-69.0121 146.403,-31.7203"/>
<polygon fill="midnightblue" stroke="midnightblue" points="149.819,-32.4944 149.048,-21.9277 143.062,-30.669 149.819,-32.4944"/>
</g>
<!-- Node30&#45;&gt;Node9 -->
<g id="edge82" class="edge"><title>Node30&#45;&gt;Node9</title>
<path fill="none" stroke="midnightblue" d="M589.304,-232.295C616.295,-212.096 674.927,-168.216 707.334,-143.963"/>
<polygon fill="midnightblue" stroke="midnightblue" points="709.821,-146.473 715.73,-137.679 705.627,-140.869 709.821,-146.473"/>
</g>
<!-- Node30&#45;&gt;Node19 -->
<g id="edge80" class="edge"><title>Node30&#45;&gt;Node19</title>
<path fill="none" stroke="midnightblue" d="M573.166,-232.362C571.869,-224.84 570.089,-214.519 568.523,-205.431"/>
<polygon fill="midnightblue" stroke="midnightblue" points="571.971,-204.831 566.823,-195.571 565.073,-206.02 571.971,-204.831"/>
</g>
<!-- Node30&#45;&gt;Node24 -->
<g id="edge86" class="edge"><title>Node30&#45;&gt;Node24</title>
<path fill="none" stroke="midnightblue" d="M523.485,-239.145C457.796,-231.386 345.282,-208.055 283,-138 271.411,-124.964 267.752,-105.191 266.794,-90.1485"/>
<polygon fill="midnightblue" stroke="midnightblue" points="270.281,-89.6547 266.501,-79.7574 263.284,-89.8522 270.281,-89.6547"/>
</g>
<!-- Node30&#45;&gt;Node28 -->
<g id="edge84" class="edge"><title>Node30&#45;&gt;Node28</title>
<path fill="none" stroke="midnightblue" d="M582.752,-232.295C597.004,-212.613 627.536,-170.45 645.338,-145.867"/>
<polygon fill="midnightblue" stroke="midnightblue" points="648.236,-147.831 651.267,-137.679 642.567,-143.726 648.236,-147.831"/>
</g>
<!-- Node31&#45;&gt;Node4 -->
<g id="edge94" class="edge"><title>Node31&#45;&gt;Node4</title>
<path fill="none" stroke="midnightblue" d="M646.743,-297.267C655.678,-287.423 669.089,-272.648 679.662,-261"/>
<polygon fill="midnightblue" stroke="midnightblue" points="682.309,-263.291 686.439,-253.534 677.126,-258.586 682.309,-263.291"/>
</g>
<!-- Node31&#45;&gt;Node5 -->
<g id="edge92" class="edge"><title>Node31&#45;&gt;Node5</title>
<path fill="none" stroke="midnightblue" d="M639.517,-297.271C643.807,-281.139 653.977,-250.552 673,-232 746.787,-160.037 802.877,-200.281 885,-138 903.249,-124.16 919.381,-103.381 929.783,-88.243"/>
<polygon fill="midnightblue" stroke="midnightblue" points="932.868,-89.9248 935.487,-79.6588 927.038,-86.0506 932.868,-89.9248"/>
</g>
<!-- Node31&#45;&gt;Node6 -->
<g id="edge90" class="edge"><title>Node31&#45;&gt;Node6</title>
<path fill="none" stroke="midnightblue" d="M654.834,-297.267C672.291,-286.76 699.08,-270.637 718.926,-258.692"/>
<polygon fill="midnightblue" stroke="midnightblue" points="720.735,-261.689 727.498,-253.534 717.125,-255.692 720.735,-261.689"/>
</g>
<!-- Node31&#45;&gt;Node18 -->
<g id="edge98" class="edge"><title>Node31&#45;&gt;Node18</title>
<path fill="none" stroke="midnightblue" d="M602.862,-300.796C551.199,-289.893 452.436,-269.05 388.704,-255.6"/>
<polygon fill="midnightblue" stroke="midnightblue" points="389.296,-252.148 378.789,-253.507 387.851,-258.997 389.296,-252.148"/>
</g>
<!-- Node31&#45;&gt;Node30 -->
<g id="edge96" class="edge"><title>Node31&#45;&gt;Node30</title>
<path fill="none" stroke="midnightblue" d="M626.762,-297.267C617.372,-287.423 603.28,-272.648 592.169,-261"/>
<polygon fill="midnightblue" stroke="midnightblue" points="594.482,-258.354 585.048,-253.534 589.417,-263.186 594.482,-258.354"/>
</g>
</g>
</svg>
