<?xml version="1.0" encoding="UTF-8" standalone="no"?>
<!DOCTYPE svg PUBLIC "-//W3C//DTD SVG 1.1//EN"
 "http://www.w3.org/Graphics/SVG/1.1/DTD/svg11.dtd">
<!-- Generated by graphviz version 2.26.3 (20100126.1600)
 -->
<!-- Title: src/calibration/Editor.cc Pages: 1 -->
<svg width="1380pt" height="508pt"
 viewBox="0.00 0.00 1380.00 508.00" xmlns="http://www.w3.org/2000/svg" xmlns:xlink="http://www.w3.org/1999/xlink">
<g id="graph1" class="graph" transform="scale(1 1) rotate(0) translate(4 504)">
<title>src/calibration/Editor.cc</title>
<polygon fill="white" stroke="white" points="-4,5 -4,-504 1377,-504 1377,5 -4,5"/>
<!-- Node1 -->
<g id="node1" class="node"><title>Node1</title>
<polygon fill="#bfbfbf" stroke="black" points="1133.5,-478.5 1133.5,-499.5 1252.5,-499.5 1252.5,-478.5 1133.5,-478.5"/>
<text text-anchor="middle" x="1193" y="-486.5" font-family="Helvetica,sans-Serif" font-size="10.00">src/calibration/Editor.cc</text>
</g>
<!-- Node2 -->
<g id="node3" class="node"><title>Node2</title>
<a xlink:href="_editor_8h.html" target="_top" xlink:title="Editor.h">
<polygon fill="white" stroke="black" points="852,-420.5 852,-441.5 902,-441.5 902,-420.5 852,-420.5"/>
<text text-anchor="middle" x="877" y="-428.5" font-family="Helvetica,sans-Serif" font-size="10.00">Editor.h</text>
</a>
</g>
<!-- Node1&#45;&gt;Node2 -->
<g id="edge2" class="edge"><title>Node1&#45;&gt;Node2</title>
<path fill="none" stroke="midnightblue" d="M1135.77,-478.497C1070.75,-466.561 966.629,-447.451 912.413,-437.5"/>
<polygon fill="midnightblue" stroke="midnightblue" points="912.729,-433.999 902.261,-435.637 911.465,-440.884 912.729,-433.999"/>
</g>
<!-- Node11 -->
<g id="node21" class="node"><title>Node11</title>
<a xlink:href="interval_8h.html" target="_top" xlink:title="base/interval.h">
<polygon fill="white" stroke="black" points="1084,-174.5 1084,-195.5 1164,-195.5 1164,-174.5 1084,-174.5"/>
<text text-anchor="middle" x="1124" y="-182.5" font-family="Helvetica,sans-Serif" font-size="10.00">base/interval.h</text>
</a>
</g>
<!-- Node1&#45;&gt;Node11 -->
<g id="edge118" class="edge"><title>Node1&#45;&gt;Node11</title>
<path fill="none" stroke="midnightblue" d="M1189.09,-478.291C1182.06,-458.027 1168,-412.554 1168,-373 1168,-373 1168,-373 1168,-308 1168,-269.529 1148.68,-228.037 1135.65,-204.418"/>
<polygon fill="midnightblue" stroke="midnightblue" points="1138.68,-202.676 1130.68,-195.728 1132.6,-206.148 1138.68,-202.676"/>
</g>
<!-- Node12 -->
<g id="node23" class="node"><title>Node12</title>
<polygon fill="white" stroke="#bfbfbf" points="1228,-0.5 1228,-21.5 1284,-21.5 1284,-0.5 1228,-0.5"/>
<text text-anchor="middle" x="1256" y="-8.5" font-family="Helvetica,sans-Serif" font-size="10.00">algorithm</text>
</g>
<!-- Node1&#45;&gt;Node12 -->
<g id="edge122" class="edge"><title>Node1&#45;&gt;Node12</title>
<path fill="none" stroke="midnightblue" d="M1212.47,-478.294C1241.82,-460.563 1294,-422.133 1294,-373 1294,-373 1294,-373 1294,-127 1294,-91.7411 1277.95,-53.3154 1266.71,-30.7323"/>
<polygon fill="midnightblue" stroke="midnightblue" points="1269.8,-29.0901 1262.11,-21.809 1263.58,-32.3005 1269.8,-29.0901"/>
</g>
<!-- Node19 -->
<g id="node38" class="node"><title>Node19</title>
<a xlink:href="_t_calibration_data_8h.html" target="_top" xlink:title="tree/TCalibrationData.h">
<polygon fill="white" stroke="black" points="386,-232.5 386,-253.5 504,-253.5 504,-232.5 386,-232.5"/>
<text text-anchor="middle" x="445" y="-240.5" font-family="Helvetica,sans-Serif" font-size="10.00">tree/TCalibrationData.h</text>
</a>
</g>
<!-- Node1&#45;&gt;Node19 -->
<g id="edge116" class="edge"><title>Node1&#45;&gt;Node19</title>
<path fill="none" stroke="midnightblue" d="M1133.25,-482.867C1063.34,-475.255 944.245,-460.929 843,-442 734.707,-421.753 702.328,-429.515 602,-384 539.484,-355.639 484.371,-293.252 459.317,-261.847"/>
<polygon fill="midnightblue" stroke="midnightblue" points="461.988,-259.58 453.067,-253.864 456.476,-263.895 461.988,-259.58"/>
</g>
<!-- Node22 -->
<g id="node46" class="node"><title>Node22</title>
<a xlink:href="string_8h.html" target="_top" xlink:title="base/std_ext/string.h">
<polygon fill="white" stroke="black" points="1070,-58.5 1070,-79.5 1178,-79.5 1178,-58.5 1070,-58.5"/>
<text text-anchor="middle" x="1124" y="-66.5" font-family="Helvetica,sans-Serif" font-size="10.00">base/std_ext/string.h</text>
</a>
</g>
<!-- Node1&#45;&gt;Node22 -->
<g id="edge114" class="edge"><title>Node1&#45;&gt;Node22</title>
<path fill="none" stroke="midnightblue" d="M1196.91,-478.291C1203.94,-458.027 1218,-412.554 1218,-373 1218,-373 1218,-373 1218,-185 1218,-153.192 1217.99,-141.516 1199,-116 1188.91,-102.45 1173.66,-91.8713 1159.54,-84.21"/>
<polygon fill="midnightblue" stroke="midnightblue" points="1160.99,-81.0191 1150.49,-79.5948 1157.81,-87.2553 1160.99,-81.0191"/>
</g>
<!-- Node33 -->
<g id="node93" class="node"><title>Node33</title>
<polygon fill="white" stroke="#bfbfbf" points="1321.5,-420.5 1321.5,-441.5 1372.5,-441.5 1372.5,-420.5 1321.5,-420.5"/>
<text text-anchor="middle" x="1347" y="-428.5" font-family="Helvetica,sans-Serif" font-size="10.00">TH2D.h</text>
</g>
<!-- Node1&#45;&gt;Node33 -->
<g id="edge120" class="edge"><title>Node1&#45;&gt;Node33</title>
<path fill="none" stroke="midnightblue" d="M1220.89,-478.497C1246.36,-468.902 1284.15,-454.672 1311.71,-444.29"/>
<polygon fill="midnightblue" stroke="midnightblue" points="1313.24,-447.454 1321.37,-440.654 1310.77,-440.904 1313.24,-447.454"/>
</g>
<!-- Node3 -->
<g id="node5" class="node"><title>Node3</title>
<a xlink:href="root__draw_8h.html" target="_top" xlink:title="analysis/plot/root\l_draw.h">
<polygon fill="white" stroke="black" points="831.5,-291 831.5,-325 922.5,-325 922.5,-291 831.5,-291"/>
<text text-anchor="start" x="839.5" y="-312" font-family="Helvetica,sans-Serif" font-size="10.00">analysis/plot/root</text>
<text text-anchor="middle" x="877" y="-299" font-family="Helvetica,sans-Serif" font-size="10.00">_draw.h</text>
</a>
</g>
<!-- Node2&#45;&gt;Node3 -->
<g id="edge4" class="edge"><title>Node2&#45;&gt;Node3</title>
<path fill="none" stroke="midnightblue" d="M877,-420.085C877,-401.275 877,-362.21 877,-335.547"/>
<polygon fill="midnightblue" stroke="midnightblue" points="880.5,-335.317 877,-325.317 873.5,-335.317 880.5,-335.317"/>
</g>
<!-- Node4 -->
<g id="node7" class="node"><title>Node4</title>
<polygon fill="white" stroke="#bfbfbf" points="131.5,-0.5 131.5,-21.5 172.5,-21.5 172.5,-0.5 131.5,-0.5"/>
<text text-anchor="middle" x="152" y="-8.5" font-family="Helvetica,sans-Serif" font-size="10.00">string</text>
</g>
<!-- Node2&#45;&gt;Node4 -->
<g id="edge110" class="edge"><title>Node2&#45;&gt;Node4</title>
<path fill="none" stroke="midnightblue" d="M851.699,-430.187C707.906,-425.242 0,-396.405 0,-308 0,-308 0,-308 0,-127 0,-66.4845 77.079,-33.3328 121.46,-19.2602"/>
<polygon fill="midnightblue" stroke="midnightblue" points="122.628,-22.5635 131.184,-16.315 120.599,-15.8641 122.628,-22.5635"/>
</g>
<!-- Node6 -->
<g id="node11" class="node"><title>Node6</title>
<polygon fill="white" stroke="#bfbfbf" points="977,-58.5 977,-79.5 1021,-79.5 1021,-58.5 977,-58.5"/>
<text text-anchor="middle" x="999" y="-66.5" font-family="Helvetica,sans-Serif" font-size="10.00">vector</text>
</g>
<!-- Node2&#45;&gt;Node6 -->
<g id="edge112" class="edge"><title>Node2&#45;&gt;Node6</title>
<path fill="none" stroke="midnightblue" d="M902.267,-425.989C951.608,-414.575 1056,-381.715 1056,-308 1056,-308 1056,-308 1056,-185 1056,-147.529 1031.75,-109.584 1014.88,-87.7281"/>
<polygon fill="midnightblue" stroke="midnightblue" points="1017.4,-85.2705 1008.41,-79.6538 1011.93,-89.6467 1017.4,-85.2705"/>
</g>
<!-- Node8 -->
<g id="node15" class="node"><title>Node8</title>
<polygon fill="white" stroke="#bfbfbf" points="778,-232.5 778,-253.5 830,-253.5 830,-232.5 778,-232.5"/>
<text text-anchor="middle" x="804" y="-240.5" font-family="Helvetica,sans-Serif" font-size="10.00">memory</text>
</g>
<!-- Node2&#45;&gt;Node8 -->
<g id="edge108" class="edge"><title>Node2&#45;&gt;Node8</title>
<path fill="none" stroke="midnightblue" d="M870.391,-420.373C859.143,-401.859 836.215,-362.201 823,-326 815.473,-305.382 810.286,-280.761 807.257,-263.715"/>
<polygon fill="midnightblue" stroke="midnightblue" points="810.686,-263.006 805.574,-253.726 803.784,-264.168 810.686,-263.006"/>
</g>
<!-- Node2&#45;&gt;Node11 -->
<g id="edge20" class="edge"><title>Node2&#45;&gt;Node11</title>
<path fill="none" stroke="midnightblue" d="M902.345,-428.035C949.077,-422.066 1046.22,-407.163 1070,-384 1119.69,-335.592 1125.09,-246.446 1124.79,-205.972"/>
<polygon fill="midnightblue" stroke="midnightblue" points="1128.28,-205.848 1124.58,-195.922 1121.29,-205.992 1128.28,-205.848"/>
</g>
<!-- Node18 -->
<g id="node36" class="node"><title>Node18</title>
<a xlink:href="_data_manager_8h.html" target="_top" xlink:title="DataManager.h">
<polygon fill="white" stroke="black" points="610.5,-362.5 610.5,-383.5 693.5,-383.5 693.5,-362.5 610.5,-362.5"/>
<text text-anchor="middle" x="652" y="-370.5" font-family="Helvetica,sans-Serif" font-size="10.00">DataManager.h</text>
</a>
</g>
<!-- Node2&#45;&gt;Node18 -->
<g id="edge36" class="edge"><title>Node2&#45;&gt;Node18</title>
<path fill="none" stroke="midnightblue" d="M851.627,-424.459C815.651,-415.186 749.046,-398.016 702.712,-386.072"/>
<polygon fill="midnightblue" stroke="midnightblue" points="703.417,-382.64 692.86,-383.533 701.67,-389.418 703.417,-382.64"/>
</g>
<!-- Node3&#45;&gt;Node4 -->
<g id="edge6" class="edge"><title>Node3&#45;&gt;Node4</title>
<path fill="none" stroke="midnightblue" d="M875.131,-290.982C872.895,-275.091 868.23,-251.033 859,-232 830.287,-172.793 820.763,-153.94 767,-116 701.774,-69.9707 674.96,-75.1887 597,-58 444.02,-24.2707 255.939,-14.5165 182.972,-11.895"/>
<polygon fill="midnightblue" stroke="midnightblue" points="182.778,-8.38647 172.665,-11.5454 182.54,-15.3825 182.778,-8.38647"/>
</g>
<!-- Node5 -->
<g id="node9" class="node"><title>Node5</title>
<polygon fill="white" stroke="#bfbfbf" points="731.5,-232.5 731.5,-253.5 760.5,-253.5 760.5,-232.5 731.5,-232.5"/>
<text text-anchor="middle" x="746" y="-240.5" font-family="Helvetica,sans-Serif" font-size="10.00">list</text>
</g>
<!-- Node3&#45;&gt;Node5 -->
<g id="edge8" class="edge"><title>Node3&#45;&gt;Node5</title>
<path fill="none" stroke="midnightblue" d="M842.581,-290.922C819.65,-279.544 790.102,-264.882 769.76,-254.789"/>
<polygon fill="midnightblue" stroke="midnightblue" points="771.096,-251.545 760.583,-250.236 767.985,-257.816 771.096,-251.545"/>
</g>
<!-- Node3&#45;&gt;Node6 -->
<g id="edge10" class="edge"><title>Node3&#45;&gt;Node6</title>
<path fill="none" stroke="midnightblue" d="M922.665,-298.428C947.224,-290.752 975.562,-277.266 991,-254 1024.67,-203.262 1012.89,-126.333 1004.49,-89.743"/>
<polygon fill="midnightblue" stroke="midnightblue" points="1007.82,-88.6368 1002.05,-79.7562 1001.03,-90.3017 1007.82,-88.6368"/>
</g>
<!-- Node7 -->
<g id="node13" class="node"><title>Node7</title>
<polygon fill="white" stroke="#bfbfbf" points="679.5,-232.5 679.5,-253.5 714.5,-253.5 714.5,-232.5 679.5,-232.5"/>
<text text-anchor="middle" x="697" y="-240.5" font-family="Helvetica,sans-Serif" font-size="10.00">map</text>
</g>
<!-- Node3&#45;&gt;Node7 -->
<g id="edge12" class="edge"><title>Node3&#45;&gt;Node7</title>
<path fill="none" stroke="midnightblue" d="M831.24,-292.798C802.625,-283.1 764.841,-269.949 723.901,-254.219"/>
<polygon fill="midnightblue" stroke="midnightblue" points="725.15,-250.95 714.561,-250.606 722.625,-257.478 725.15,-250.95"/>
</g>
<!-- Node3&#45;&gt;Node8 -->
<g id="edge14" class="edge"><title>Node3&#45;&gt;Node8</title>
<path fill="none" stroke="midnightblue" d="M857.82,-290.922C847.317,-281.57 834.324,-270.001 823.735,-260.572"/>
<polygon fill="midnightblue" stroke="midnightblue" points="825.984,-257.888 816.188,-253.852 821.329,-263.116 825.984,-257.888"/>
</g>
<!-- Node9 -->
<g id="node17" class="node"><title>Node9</title>
<polygon fill="white" stroke="#bfbfbf" points="923.5,-232.5 923.5,-253.5 982.5,-253.5 982.5,-232.5 923.5,-232.5"/>
<text text-anchor="middle" x="953" y="-240.5" font-family="Helvetica,sans-Serif" font-size="10.00">functional</text>
</g>
<!-- Node3&#45;&gt;Node9 -->
<g id="edge16" class="edge"><title>Node3&#45;&gt;Node9</title>
<path fill="none" stroke="midnightblue" d="M896.968,-290.922C907.903,-281.57 921.43,-270.001 932.454,-260.572"/>
<polygon fill="midnightblue" stroke="midnightblue" points="934.987,-263.012 940.311,-253.852 930.437,-257.692 934.987,-263.012"/>
</g>
<!-- Node10 -->
<g id="node19" class="node"><title>Node10</title>
<polygon fill="white" stroke="#bfbfbf" points="702,-116.5 702,-137.5 758,-137.5 758,-116.5 702,-116.5"/>
<text text-anchor="middle" x="730" y="-124.5" font-family="Helvetica,sans-Serif" font-size="10.00">Rtypes.h</text>
</g>
<!-- Node3&#45;&gt;Node10 -->
<g id="edge18" class="edge"><title>Node3&#45;&gt;Node10</title>
<path fill="none" stroke="midnightblue" d="M870.374,-290.758C863.759,-274.708 852.63,-250.542 839,-232 813.359,-197.117 775.572,-163.641 751.895,-144.211"/>
<polygon fill="midnightblue" stroke="midnightblue" points="753.835,-141.279 743.859,-137.712 749.433,-146.721 753.835,-141.279"/>
</g>
<!-- Node11&#45;&gt;Node12 -->
<g id="edge22" class="edge"><title>Node11&#45;&gt;Node12</title>
<path fill="none" stroke="midnightblue" d="M1148.24,-174.442C1164.37,-166.4 1185.07,-153.992 1199,-138 1226.76,-106.122 1243.19,-58.5222 1250.82,-31.5629"/>
<polygon fill="midnightblue" stroke="midnightblue" points="1254.26,-32.2564 1253.48,-21.6903 1247.5,-30.4368 1254.26,-32.2564"/>
</g>
<!-- Node13 -->
<g id="node25" class="node"><title>Node13</title>
<polygon fill="white" stroke="#bfbfbf" points="893.5,-116.5 893.5,-137.5 952.5,-137.5 952.5,-116.5 893.5,-116.5"/>
<text text-anchor="middle" x="923" y="-124.5" font-family="Helvetica,sans-Serif" font-size="10.00">stdexcept</text>
</g>
<!-- Node11&#45;&gt;Node13 -->
<g id="edge24" class="edge"><title>Node11&#45;&gt;Node13</title>
<path fill="none" stroke="midnightblue" d="M1087.6,-174.497C1052.23,-164.292 998.694,-148.842 962.356,-138.356"/>
<polygon fill="midnightblue" stroke="midnightblue" points="963.171,-134.949 952.592,-135.539 961.23,-141.674 963.171,-134.949"/>
</g>
<!-- Node14 -->
<g id="node27" class="node"><title>Node14</title>
<a xlink:href="printable_8h.html" target="_top" xlink:title="printable.h">
<polygon fill="white" stroke="black" points="814,-116.5 814,-137.5 876,-137.5 876,-116.5 814,-116.5"/>
<text text-anchor="middle" x="845" y="-124.5" font-family="Helvetica,sans-Serif" font-size="10.00">printable.h</text>
</a>
</g>
<!-- Node11&#45;&gt;Node14 -->
<g id="edge26" class="edge"><title>Node11&#45;&gt;Node14</title>
<path fill="none" stroke="midnightblue" d="M1083.63,-178.005C1038,-169.891 961.307,-155.626 886.455,-138.23"/>
<polygon fill="midnightblue" stroke="midnightblue" points="886.922,-134.744 876.386,-135.868 885.323,-141.559 886.922,-134.744"/>
</g>
<!-- Node16 -->
<g id="node32" class="node"><title>Node16</title>
<a xlink:href="types_8h.html" target="_top" xlink:title="types.h">
<polygon fill="white" stroke="black" points="1141.5,-116.5 1141.5,-137.5 1190.5,-137.5 1190.5,-116.5 1141.5,-116.5"/>
<text text-anchor="middle" x="1166" y="-124.5" font-family="Helvetica,sans-Serif" font-size="10.00">types.h</text>
</a>
</g>
<!-- Node11&#45;&gt;Node16 -->
<g id="edge32" class="edge"><title>Node11&#45;&gt;Node16</title>
<path fill="none" stroke="midnightblue" d="M1131.7,-174.362C1137.45,-166.431 1145.44,-155.389 1152.27,-145.961"/>
<polygon fill="midnightblue" stroke="midnightblue" points="1155.32,-147.723 1158.35,-137.571 1149.65,-143.617 1155.32,-147.723"/>
</g>
<!-- Node17 -->
<g id="node34" class="node"><title>Node17</title>
<polygon fill="white" stroke="#bfbfbf" points="1084,-116.5 1084,-137.5 1124,-137.5 1124,-116.5 1084,-116.5"/>
<text text-anchor="middle" x="1104" y="-124.5" font-family="Helvetica,sans-Serif" font-size="10.00">limits</text>
</g>
<!-- Node11&#45;&gt;Node17 -->
<g id="edge34" class="edge"><title>Node11&#45;&gt;Node17</title>
<path fill="none" stroke="midnightblue" d="M1120.33,-174.362C1117.71,-166.758 1114.1,-156.294 1110.94,-147.135"/>
<polygon fill="midnightblue" stroke="midnightblue" points="1114.21,-145.883 1107.65,-137.571 1107.6,-148.165 1114.21,-145.883"/>
</g>
<!-- Node14&#45;&gt;Node6 -->
<g id="edge28" class="edge"><title>Node14&#45;&gt;Node6</title>
<path fill="none" stroke="midnightblue" d="M872.888,-116.497C899.444,-106.495 939.375,-91.4562 967.165,-80.9896"/>
<polygon fill="midnightblue" stroke="midnightblue" points="968.683,-84.1582 976.807,-77.3582 966.216,-77.6074 968.683,-84.1582"/>
</g>
<!-- Node15 -->
<g id="node30" class="node"><title>Node15</title>
<polygon fill="white" stroke="#bfbfbf" points="819,-58.5 819,-79.5 871,-79.5 871,-58.5 819,-58.5"/>
<text text-anchor="middle" x="845" y="-66.5" font-family="Helvetica,sans-Serif" font-size="10.00">ostream</text>
</g>
<!-- Node14&#45;&gt;Node15 -->
<g id="edge30" class="edge"><title>Node14&#45;&gt;Node15</title>
<path fill="none" stroke="midnightblue" d="M845,-116.362C845,-108.922 845,-98.7427 845,-89.7276"/>
<polygon fill="midnightblue" stroke="midnightblue" points="848.5,-89.5706 845,-79.5707 841.5,-89.5707 848.5,-89.5706"/>
</g>
<!-- Node18&#45;&gt;Node4 -->
<g id="edge104" class="edge"><title>Node18&#45;&gt;Node4</title>
<path fill="none" stroke="midnightblue" d="M610.28,-368.624C472.085,-353.574 38,-301.634 38,-243 38,-243 38,-243 38,-127 38,-78.8649 88.5515,-43.3986 122.329,-25.0733"/>
<polygon fill="midnightblue" stroke="midnightblue" points="124.109,-28.0923 131.355,-20.3629 120.871,-21.8865 124.109,-28.0923"/>
</g>
<!-- Node18&#45;&gt;Node5 -->
<g id="edge102" class="edge"><title>Node18&#45;&gt;Node5</title>
<path fill="none" stroke="midnightblue" d="M662.875,-362.312C671.967,-353.106 685.014,-339.247 695,-326 710.49,-305.454 725.581,-280.014 735.277,-262.754"/>
<polygon fill="midnightblue" stroke="midnightblue" points="738.543,-264.079 740.324,-253.635 732.419,-260.689 738.543,-264.079"/>
</g>
<!-- Node18&#45;&gt;Node8 -->
<g id="edge106" class="edge"><title>Node18&#45;&gt;Node8</title>
<path fill="none" stroke="midnightblue" d="M669.08,-362.383C683.202,-353.329 703.537,-339.646 720,-326 744.823,-305.425 770.848,-278.806 787.231,-261.334"/>
<polygon fill="midnightblue" stroke="midnightblue" points="790.211,-263.267 794.451,-253.558 785.082,-258.504 790.211,-263.267"/>
</g>
<!-- Node18&#45;&gt;Node19 -->
<g id="edge38" class="edge"><title>Node18&#45;&gt;Node19</title>
<path fill="none" stroke="midnightblue" d="M635.06,-362.362C598.808,-339.594 513.522,-286.033 470.609,-259.083"/>
<polygon fill="midnightblue" stroke="midnightblue" points="472.213,-255.958 461.883,-253.603 468.49,-261.886 472.213,-255.958"/>
</g>
<!-- Node31 -->
<g id="node71" class="node"><title>Node31</title>
<a xlink:href="_t_data_record_8h.html" target="_top" xlink:title="tree/TDataRecord.h">
<polygon fill="white" stroke="black" points="521.5,-232.5 521.5,-253.5 624.5,-253.5 624.5,-232.5 521.5,-232.5"/>
<text text-anchor="middle" x="573" y="-240.5" font-family="Helvetica,sans-Serif" font-size="10.00">tree/TDataRecord.h</text>
</a>
</g>
<!-- Node18&#45;&gt;Node31 -->
<g id="edge80" class="edge"><title>Node18&#45;&gt;Node31</title>
<path fill="none" stroke="midnightblue" d="M640.252,-362.297C630.884,-353.298 617.903,-339.735 609,-326 596.053,-306.026 585.819,-280.614 579.623,-263.202"/>
<polygon fill="midnightblue" stroke="midnightblue" points="582.855,-261.837 576.299,-253.514 576.234,-264.109 582.855,-261.837"/>
</g>
<!-- Node32 -->
<g id="node77" class="node"><title>Node32</title>
<a xlink:href="_data_base_8h.html" target="_top" xlink:title="DataBase.h">
<polygon fill="white" stroke="black" points="618,-297.5 618,-318.5 686,-318.5 686,-297.5 618,-297.5"/>
<text text-anchor="middle" x="652" y="-305.5" font-family="Helvetica,sans-Serif" font-size="10.00">DataBase.h</text>
</a>
</g>
<!-- Node18&#45;&gt;Node32 -->
<g id="edge90" class="edge"><title>Node18&#45;&gt;Node32</title>
<path fill="none" stroke="midnightblue" d="M652,-362.267C652,-353.18 652,-339.892 652,-328.74"/>
<polygon fill="midnightblue" stroke="midnightblue" points="655.5,-328.534 652,-318.534 648.5,-328.534 655.5,-328.534"/>
</g>
<!-- Node19&#45;&gt;Node4 -->
<g id="edge72" class="edge"><title>Node19&#45;&gt;Node4</title>
<path fill="none" stroke="midnightblue" d="M385.877,-237.33C327.222,-230.578 242.629,-217.433 218,-196 168.599,-153.009 156.175,-70.4096 153.05,-31.8212"/>
<polygon fill="midnightblue" stroke="midnightblue" points="156.536,-31.5019 152.37,-21.7608 149.552,-31.9741 156.536,-31.5019"/>
</g>
<!-- Node20 -->
<g id="node40" class="node"><title>Node20</title>
<a xlink:href="_t_i_d_8h.html" target="_top" xlink:title="TID.h">
<polygon fill="white" stroke="black" points="544.5,-174.5 544.5,-195.5 585.5,-195.5 585.5,-174.5 544.5,-174.5"/>
<text text-anchor="middle" x="565" y="-182.5" font-family="Helvetica,sans-Serif" font-size="10.00">TID.h</text>
</a>
</g>
<!-- Node19&#45;&gt;Node20 -->
<g id="edge40" class="edge"><title>Node19&#45;&gt;Node20</title>
<path fill="none" stroke="midnightblue" d="M466.731,-232.497C485.825,-223.268 513.793,-209.75 535.014,-199.493"/>
<polygon fill="midnightblue" stroke="midnightblue" points="536.753,-202.54 544.234,-195.037 533.707,-196.238 536.753,-202.54"/>
</g>
<!-- Node25 -->
<g id="node54" class="node"><title>Node25</title>
<polygon fill="white" stroke="#bfbfbf" points="314.5,-58.5 314.5,-79.5 355.5,-79.5 355.5,-58.5 314.5,-58.5"/>
<text text-anchor="middle" x="335" y="-66.5" font-family="Helvetica,sans-Serif" font-size="10.00">ctime</text>
</g>
<!-- Node19&#45;&gt;Node25 -->
<g id="edge74" class="edge"><title>Node19&#45;&gt;Node25</title>
<path fill="none" stroke="midnightblue" d="M385.9,-237.983C330.265,-231.889 252.751,-219.388 234,-196 211.759,-168.26 214.884,-145.98 234,-116 249.398,-91.8511 280.778,-79.9136 304.498,-74.1405"/>
<polygon fill="midnightblue" stroke="midnightblue" points="305.428,-77.5199 314.448,-71.9629 303.931,-70.6817 305.428,-77.5199"/>
</g>
<!-- Node30 -->
<g id="node68" class="node"><title>Node30</title>
<a xlink:href="_git_info_8h.html" target="_top" xlink:title="base/GitInfo.h">
<polygon fill="white" stroke="black" points="66,-174.5 66,-195.5 144,-195.5 144,-174.5 66,-174.5"/>
<text text-anchor="middle" x="105" y="-182.5" font-family="Helvetica,sans-Serif" font-size="10.00">base/GitInfo.h</text>
</a>
</g>
<!-- Node19&#45;&gt;Node30 -->
<g id="edge76" class="edge"><title>Node19&#45;&gt;Node30</title>
<path fill="none" stroke="midnightblue" d="M385.784,-234.052C327.664,-225.093 236.559,-210.578 158,-196 156.727,-195.764 155.437,-195.521 154.136,-195.273"/>
<polygon fill="midnightblue" stroke="midnightblue" points="154.524,-191.783 144.038,-193.297 153.179,-198.652 154.524,-191.783"/>
</g>
<!-- Node20&#45;&gt;Node10 -->
<g id="edge42" class="edge"><title>Node20&#45;&gt;Node10</title>
<path fill="none" stroke="midnightblue" d="M585.564,-177.772C612.182,-168.415 659.073,-151.932 692.196,-140.289"/>
<polygon fill="midnightblue" stroke="midnightblue" points="693.722,-143.462 701.995,-136.844 691.401,-136.858 693.722,-143.462"/>
</g>
<!-- Node20&#45;&gt;Node13 -->
<g id="edge66" class="edge"><title>Node20&#45;&gt;Node13</title>
<path fill="none" stroke="midnightblue" d="M585.766,-182.94C635.59,-177.788 765.941,-163.08 883.357,-138.159"/>
<polygon fill="midnightblue" stroke="midnightblue" points="884.188,-141.561 893.227,-136.033 882.714,-134.718 884.188,-141.561"/>
</g>
<!-- Node20&#45;&gt;Node14 -->
<g id="edge44" class="edge"><title>Node20&#45;&gt;Node14</title>
<path fill="none" stroke="midnightblue" d="M585.589,-180.735C631.434,-171.239 742.667,-148.197 803.526,-135.591"/>
<polygon fill="midnightblue" stroke="midnightblue" points="804.478,-138.968 813.56,-133.513 803.058,-132.114 804.478,-138.968"/>
</g>
<!-- Node21 -->
<g id="node44" class="node"><title>Node21</title>
<a xlink:href="time_8h.html" target="_top" xlink:title="base/std_ext/time.h">
<polygon fill="white" stroke="black" points="513.5,-116.5 513.5,-137.5 616.5,-137.5 616.5,-116.5 513.5,-116.5"/>
<text text-anchor="middle" x="565" y="-124.5" font-family="Helvetica,sans-Serif" font-size="10.00">base/std_ext/time.h</text>
</a>
</g>
<!-- Node20&#45;&gt;Node21 -->
<g id="edge46" class="edge"><title>Node20&#45;&gt;Node21</title>
<path fill="none" stroke="midnightblue" d="M565,-174.362C565,-166.922 565,-156.743 565,-147.728"/>
<polygon fill="midnightblue" stroke="midnightblue" points="568.5,-147.571 565,-137.571 561.5,-147.571 568.5,-147.571"/>
</g>
<!-- Node20&#45;&gt;Node25 -->
<g id="edge70" class="edge"><title>Node20&#45;&gt;Node25</title>
<path fill="none" stroke="midnightblue" d="M544.236,-178.648C519.13,-170.627 475.9,-155.713 441,-138 424.711,-129.732 384.82,-103.065 358.887,-85.4075"/>
<polygon fill="midnightblue" stroke="midnightblue" points="360.589,-82.3321 350.357,-79.5825 356.641,-88.1126 360.589,-82.3321"/>
</g>
<!-- Node26 -->
<g id="node56" class="node"><title>Node26</title>
<polygon fill="white" stroke="#bfbfbf" points="276,-116.5 276,-137.5 338,-137.5 338,-116.5 276,-116.5"/>
<text text-anchor="middle" x="307" y="-124.5" font-family="Helvetica,sans-Serif" font-size="10.00">type_traits</text>
</g>
<!-- Node20&#45;&gt;Node26 -->
<g id="edge60" class="edge"><title>Node20&#45;&gt;Node26</title>
<path fill="none" stroke="midnightblue" d="M544.475,-180.974C507.314,-173.601 426.217,-157.122 348.367,-138.248"/>
<polygon fill="midnightblue" stroke="midnightblue" points="348.944,-134.786 338.4,-135.814 347.284,-141.586 348.944,-134.786"/>
</g>
<!-- Node27 -->
<g id="node58" class="node"><title>Node27</title>
<polygon fill="white" stroke="#bfbfbf" points="356,-116.5 356,-137.5 394,-137.5 394,-116.5 356,-116.5"/>
<text text-anchor="middle" x="375" y="-124.5" font-family="Helvetica,sans-Serif" font-size="10.00">tuple</text>
</g>
<!-- Node20&#45;&gt;Node27 -->
<g id="edge62" class="edge"><title>Node20&#45;&gt;Node27</title>
<path fill="none" stroke="midnightblue" d="M544.364,-179.043C514.29,-170.311 456.694,-153.4 408,-138 406.596,-137.556 405.161,-137.097 403.713,-136.63"/>
<polygon fill="midnightblue" stroke="midnightblue" points="404.755,-133.288 394.162,-133.499 402.574,-139.94 404.755,-133.288"/>
</g>
<!-- Node28 -->
<g id="node60" class="node"><title>Node28</title>
<polygon fill="white" stroke="#bfbfbf" points="450,-116.5 450,-137.5 496,-137.5 496,-116.5 450,-116.5"/>
<text text-anchor="middle" x="473" y="-124.5" font-family="Helvetica,sans-Serif" font-size="10.00">cstdint</text>
</g>
<!-- Node20&#45;&gt;Node28 -->
<g id="edge64" class="edge"><title>Node20&#45;&gt;Node28</title>
<path fill="none" stroke="midnightblue" d="M548.126,-174.362C534.249,-165.614 514.366,-153.079 498.54,-143.101"/>
<polygon fill="midnightblue" stroke="midnightblue" points="500.093,-139.943 489.767,-137.571 496.36,-145.864 500.093,-139.943"/>
</g>
<!-- Node29 -->
<g id="node63" class="node"><title>Node29</title>
<polygon fill="white" stroke="#bfbfbf" points="634,-116.5 634,-137.5 684,-137.5 684,-116.5 634,-116.5"/>
<text text-anchor="middle" x="659" y="-124.5" font-family="Helvetica,sans-Serif" font-size="10.00">iomanip</text>
</g>
<!-- Node20&#45;&gt;Node29 -->
<g id="edge68" class="edge"><title>Node20&#45;&gt;Node29</title>
<path fill="none" stroke="midnightblue" d="M582.241,-174.362C596.552,-165.532 617.115,-152.844 633.357,-142.822"/>
<polygon fill="midnightblue" stroke="midnightblue" points="635.196,-145.8 641.868,-137.571 631.52,-139.843 635.196,-145.8"/>
</g>
<!-- Node21&#45;&gt;Node22 -->
<g id="edge48" class="edge"><title>Node21&#45;&gt;Node22</title>
<path fill="none" stroke="midnightblue" d="M616.662,-117.215C619.478,-116.779 622.272,-116.371 625,-116 804.066,-91.6804 850.24,-98.5036 1030,-80 1039.58,-79.0136 1049.71,-77.9019 1059.62,-76.7742"/>
<polygon fill="midnightblue" stroke="midnightblue" points="1060.31,-80.218 1069.85,-75.5978 1059.51,-73.2638 1060.31,-80.218"/>
</g>
<!-- Node24 -->
<g id="node52" class="node"><title>Node24</title>
<polygon fill="white" stroke="#bfbfbf" points="542,-58.5 542,-79.5 588,-79.5 588,-58.5 542,-58.5"/>
<text text-anchor="middle" x="565" y="-66.5" font-family="Helvetica,sans-Serif" font-size="10.00">cstring</text>
</g>
<!-- Node21&#45;&gt;Node24 -->
<g id="edge56" class="edge"><title>Node21&#45;&gt;Node24</title>
<path fill="none" stroke="midnightblue" d="M565,-116.362C565,-108.922 565,-98.7427 565,-89.7276"/>
<polygon fill="midnightblue" stroke="midnightblue" points="568.5,-89.5706 565,-79.5707 561.5,-89.5707 568.5,-89.5706"/>
</g>
<!-- Node21&#45;&gt;Node25 -->
<g id="edge58" class="edge"><title>Node21&#45;&gt;Node25</title>
<path fill="none" stroke="midnightblue" d="M523.349,-116.497C477.858,-105.025 406.086,-86.926 365.539,-76.701"/>
<polygon fill="midnightblue" stroke="midnightblue" points="366.25,-73.2709 355.697,-74.2194 364.538,-80.0584 366.25,-73.2709"/>
</g>
<!-- Node22&#45;&gt;Node4 -->
<g id="edge50" class="edge"><title>Node22&#45;&gt;Node4</title>
<path fill="none" stroke="midnightblue" d="M1069.88,-62.0762C1056.84,-60.5711 1042.93,-59.1018 1030,-58 698.843,-29.7884 295.887,-15.5674 182.801,-11.9457"/>
<polygon fill="midnightblue" stroke="midnightblue" points="182.88,-8.44659 172.774,-11.6282 182.658,-15.4431 182.88,-8.44659"/>
</g>
<!-- Node22&#45;&gt;Node12 -->
<g id="edge54" class="edge"><title>Node22&#45;&gt;Node12</title>
<path fill="none" stroke="midnightblue" d="M1147.9,-58.4966C1168.8,-49.3154 1199.36,-35.8889 1222.66,-25.6516"/>
<polygon fill="midnightblue" stroke="midnightblue" points="1224.08,-28.8483 1231.83,-21.6212 1221.26,-22.4397 1224.08,-28.8483"/>
</g>
<!-- Node23 -->
<g id="node49" class="node"><title>Node23</title>
<polygon fill="white" stroke="#bfbfbf" points="1098,-0.5 1098,-21.5 1150,-21.5 1150,-0.5 1098,-0.5"/>
<text text-anchor="middle" x="1124" y="-8.5" font-family="Helvetica,sans-Serif" font-size="10.00">sstream</text>
</g>
<!-- Node22&#45;&gt;Node23 -->
<g id="edge52" class="edge"><title>Node22&#45;&gt;Node23</title>
<path fill="none" stroke="midnightblue" d="M1124,-58.3619C1124,-50.9219 1124,-40.7427 1124,-31.7276"/>
<polygon fill="midnightblue" stroke="midnightblue" points="1127.5,-31.5706 1124,-21.5707 1120.5,-31.5707 1127.5,-31.5706"/>
</g>
<!-- Node30&#45;&gt;Node4 -->
<g id="edge78" class="edge"><title>Node30&#45;&gt;Node4</title>
<path fill="none" stroke="midnightblue" d="M107.869,-174.377C115.488,-146.172 136.33,-69.0121 146.403,-31.7203"/>
<polygon fill="midnightblue" stroke="midnightblue" points="149.819,-32.4944 149.048,-21.9277 143.062,-30.669 149.819,-32.4944"/>
</g>
<!-- Node31&#45;&gt;Node10 -->
<g id="edge84" class="edge"><title>Node31&#45;&gt;Node10</title>
<path fill="none" stroke="midnightblue" d="M587.489,-232.295C614.944,-212.009 674.725,-167.84 707.461,-143.653"/>
<polygon fill="midnightblue" stroke="midnightblue" points="709.583,-146.437 715.546,-137.679 705.424,-140.807 709.583,-146.437"/>
</g>
<!-- Node31&#45;&gt;Node20 -->
<g id="edge82" class="edge"><title>Node31&#45;&gt;Node20</title>
<path fill="none" stroke="midnightblue" d="M571.533,-232.362C570.506,-224.922 569.102,-214.743 567.859,-205.728"/>
<polygon fill="midnightblue" stroke="midnightblue" points="571.292,-204.999 566.458,-195.571 564.357,-205.955 571.292,-204.999"/>
</g>
<!-- Node31&#45;&gt;Node25 -->
<g id="edge88" class="edge"><title>Node31&#45;&gt;Node25</title>
<path fill="none" stroke="midnightblue" d="M521.448,-232.802C442.365,-215.994 297.069,-180.108 267,-138 251.746,-116.639 280.362,-95.6796 305.028,-82.5703"/>
<polygon fill="midnightblue" stroke="midnightblue" points="306.839,-85.5769 314.189,-77.9459 303.684,-79.328 306.839,-85.5769"/>
</g>
<!-- Node31&#45;&gt;Node29 -->
<g id="edge86" class="edge"><title>Node31&#45;&gt;Node29</title>
<path fill="none" stroke="midnightblue" d="M580.937,-232.295C595.528,-212.613 626.787,-170.45 645.013,-145.867"/>
<polygon fill="midnightblue" stroke="midnightblue" points="647.939,-147.797 651.083,-137.679 642.315,-143.628 647.939,-147.797"/>
</g>
<!-- Node32&#45;&gt;Node5 -->
<g id="edge96" class="edge"><title>Node32&#45;&gt;Node5</title>
<path fill="none" stroke="midnightblue" d="M667.522,-297.267C682.62,-286.827 705.738,-270.841 722.978,-258.92"/>
<polygon fill="midnightblue" stroke="midnightblue" points="725.149,-261.674 731.383,-253.107 721.168,-255.916 725.149,-261.674"/>
</g>
<!-- Node32&#45;&gt;Node6 -->
<g id="edge94" class="edge"><title>Node32&#45;&gt;Node6</title>
<path fill="none" stroke="midnightblue" d="M651.61,-297.422C651.603,-281.211 654.014,-250.191 671,-232 763.471,-132.97 856.54,-224.289 961,-138 976.334,-125.333 986.51,-104.789 992.439,-89.4056"/>
<polygon fill="midnightblue" stroke="midnightblue" points="995.823,-90.3354 995.877,-79.7407 989.228,-87.9896 995.823,-90.3354"/>
</g>
<!-- Node32&#45;&gt;Node7 -->
<g id="edge92" class="edge"><title>Node32&#45;&gt;Node7</title>
<path fill="none" stroke="midnightblue" d="M659.431,-297.267C666.049,-287.707 675.887,-273.496 683.836,-262.015"/>
<polygon fill="midnightblue" stroke="midnightblue" points="686.893,-263.748 689.707,-253.534 681.138,-259.763 686.893,-263.748"/>
</g>
<!-- Node32&#45;&gt;Node19 -->
<g id="edge100" class="edge"><title>Node32&#45;&gt;Node19</title>
<path fill="none" stroke="midnightblue" d="M618.281,-297.412C582.946,-286.316 527.299,-268.843 488.636,-256.702"/>
<polygon fill="midnightblue" stroke="midnightblue" points="489.294,-253.24 478.704,-253.584 487.197,-259.919 489.294,-253.24"/>
</g>
<!-- Node32&#45;&gt;Node31 -->
<g id="edge98" class="edge"><title>Node32&#45;&gt;Node31</title>
<path fill="none" stroke="midnightblue" d="M638.955,-297.267C626.646,-287.139 607.993,-271.792 593.661,-260"/>
<polygon fill="midnightblue" stroke="midnightblue" points="595.748,-257.185 585.803,-253.534 591.301,-262.59 595.748,-257.185"/>
</g>
</g>
</svg>
