<?xml version="1.0" encoding="UTF-8" standalone="no"?>
<!DOCTYPE svg PUBLIC "-//W3C//DTD SVG 1.1//EN"
 "http://www.w3.org/Graphics/SVG/1.1/DTD/svg11.dtd">
<!-- Generated by graphviz version 2.26.3 (20100126.1600)
 -->
<!-- Title: src/calibration/Editor.h Pages: 1 -->
<svg width="310pt" height="174pt"
 viewBox="0.00 0.00 310.00 174.00" xmlns="http://www.w3.org/2000/svg" xmlns:xlink="http://www.w3.org/1999/xlink">
<g id="graph1" class="graph" transform="scale(1 1) rotate(0) translate(4 170)">
<title>src/calibration/Editor.h</title>
<polygon fill="white" stroke="white" points="-4,5 -4,-170 307,-170 307,5 -4,5"/>
<!-- Node1 -->
<g id="node1" class="node"><title>Node1</title>
<polygon fill="#bfbfbf" stroke="black" points="125,-144.5 125,-165.5 239,-165.5 239,-144.5 125,-144.5"/>
<text text-anchor="middle" x="182" y="-152.5" font-family="Helvetica,sans-Serif" font-size="10.00">src/calibration/Editor.h</text>
</g>
<!-- Node2 -->
<g id="node3" class="node"><title>Node2</title>
<a xlink:href="_editor_8cc.html" target="_top" xlink:title="src/calibration/Editor.cc">
<polygon fill="white" stroke="black" points="-0.5,-79.5 -0.5,-100.5 118.5,-100.5 118.5,-79.5 -0.5,-79.5"/>
<text text-anchor="middle" x="59" y="-87.5" font-family="Helvetica,sans-Serif" font-size="10.00">src/calibration/Editor.cc</text>
</a>
</g>
<!-- Node1&#45;&gt;Node2 -->
<g id="edge2" class="edge"><title>Node1&#45;&gt;Node2</title>
<path fill="none" stroke="midnightblue" d="M153.076,-139.715C130.293,-127.675 99.127,-111.205 79.0273,-100.584"/>
<polygon fill="midnightblue" stroke="midnightblue" points="151.487,-142.834 161.964,-144.412 154.758,-136.645 151.487,-142.834"/>
</g>
<!-- Node3 -->
<g id="node5" class="node"><title>Node3</title>
<a xlink:href="_a_c_e_canvas_8h.html" target="_top" xlink:title="src/calibration/gui\l/ACECanvas.h">
<polygon fill="white" stroke="black" points="135.5,-73 135.5,-107 228.5,-107 228.5,-73 135.5,-73"/>
<text text-anchor="start" x="143.5" y="-94" font-family="Helvetica,sans-Serif" font-size="10.00">src/calibration/gui</text>
<text text-anchor="middle" x="182" y="-81" font-family="Helvetica,sans-Serif" font-size="10.00">/ACECanvas.h</text>
</a>
</g>
<!-- Node1&#45;&gt;Node3 -->
<g id="edge4" class="edge"><title>Node1&#45;&gt;Node3</title>
<path fill="none" stroke="midnightblue" d="M182,-134.131C182,-125.405 182,-115.391 182,-107.11"/>
<polygon fill="midnightblue" stroke="midnightblue" points="178.5,-134.267 182,-144.267 185.5,-134.267 178.5,-134.267"/>
</g>
<!-- Node5 -->
<g id="node9" class="node"><title>Node5</title>
<a xlink:href="_a_c_e_canvas_8cc.html" target="_top" xlink:title="src/calibration/gui\l/ACECanvas.cc">
<polygon fill="white" stroke="black" points="209.5,-1 209.5,-35 302.5,-35 302.5,-1 209.5,-1"/>
<text text-anchor="start" x="217.5" y="-22" font-family="Helvetica,sans-Serif" font-size="10.00">src/calibration/gui</text>
<text text-anchor="middle" x="256" y="-9" font-family="Helvetica,sans-Serif" font-size="10.00">/ACECanvas.cc</text>
</a>
</g>
<!-- Node1&#45;&gt;Node5 -->
<g id="edge10" class="edge"><title>Node1&#45;&gt;Node5</title>
<path fill="none" stroke="midnightblue" d="M207.798,-138.608C218.383,-130.612 229.814,-120.101 237,-108 250.535,-85.2066 254.506,-54.131 255.625,-35.0981"/>
<polygon fill="midnightblue" stroke="midnightblue" points="205.698,-135.807 199.589,-144.463 209.763,-141.506 205.698,-135.807"/>
</g>
<!-- Node4 -->
<g id="node7" class="node"><title>Node4</title>
<a xlink:href="_ant-calib-editor_8cc.html" target="_top" xlink:title="progs/Ant&#45;calib&#45;editor.cc">
<polygon fill="white" stroke="black" points="70,-7.5 70,-28.5 192,-28.5 192,-7.5 70,-7.5"/>
<text text-anchor="middle" x="131" y="-15.5" font-family="Helvetica,sans-Serif" font-size="10.00">progs/Ant&#45;calib&#45;editor.cc</text>
</a>
</g>
<!-- Node3&#45;&gt;Node4 -->
<g id="edge6" class="edge"><title>Node3&#45;&gt;Node4</title>
<path fill="none" stroke="midnightblue" d="M163.905,-64.4548C155.265,-52.2566 145.383,-38.3048 138.722,-28.901"/>
<polygon fill="midnightblue" stroke="midnightblue" points="161.277,-66.7998 169.914,-72.937 166.99,-62.7537 161.277,-66.7998"/>
</g>
<!-- Node3&#45;&gt;Node5 -->
<g id="edge8" class="edge"><title>Node3&#45;&gt;Node5</title>
<path fill="none" stroke="midnightblue" d="M206.761,-65.9083C217.105,-55.8438 228.887,-44.3799 238.332,-35.19"/>
<polygon fill="midnightblue" stroke="midnightblue" points="204.264,-63.4549 199.537,-72.937 209.145,-68.472 204.264,-63.4549"/>
</g>
</g>
</svg>
