<?xml version="1.0" encoding="UTF-8" standalone="no"?>
<!DOCTYPE svg PUBLIC "-//W3C//DTD SVG 1.1//EN"
 "http://www.w3.org/Graphics/SVG/1.1/DTD/svg11.dtd">
<!-- Generated by graphviz version 2.26.3 (20100126.1600)
 -->
<!-- Title: src/calibration/modules/Energy.h Pages: 1 -->
<svg width="722pt" height="332pt"
 viewBox="0.00 0.00 722.00 332.00" xmlns="http://www.w3.org/2000/svg" xmlns:xlink="http://www.w3.org/1999/xlink">
<g id="graph1" class="graph" transform="scale(1 1) rotate(0) translate(4 328)">
<title>src/calibration/modules/Energy.h</title>
<polygon fill="white" stroke="white" points="-4,5 -4,-328 719,-328 719,5 -4,5"/>
<!-- Node1 -->
<g id="node1" class="node"><title>Node1</title>
<polygon fill="#bfbfbf" stroke="black" points="329.5,-289 329.5,-323 446.5,-323 446.5,-289 329.5,-289"/>
<text text-anchor="start" x="337.5" y="-310" font-family="Helvetica,sans-Serif" font-size="10.00">src/calibration/modules</text>
<text text-anchor="middle" x="388" y="-297" font-family="Helvetica,sans-Serif" font-size="10.00">/Energy.h</text>
</g>
<!-- Node2 -->
<g id="node3" class="node"><title>Node2</title>
<a xlink:href="_c_b___energy_8h.html" target="_top" xlink:title="src/calibration/modules\l/CB_Energy.h">
<polygon fill="white" stroke="black" points="61.5,-217 61.5,-251 178.5,-251 178.5,-217 61.5,-217"/>
<text text-anchor="start" x="69.5" y="-238" font-family="Helvetica,sans-Serif" font-size="10.00">src/calibration/modules</text>
<text text-anchor="middle" x="120" y="-225" font-family="Helvetica,sans-Serif" font-size="10.00">/CB_Energy.h</text>
</a>
</g>
<!-- Node1&#45;&gt;Node2 -->
<g id="edge2" class="edge"><title>Node1&#45;&gt;Node2</title>
<path fill="none" stroke="midnightblue" d="M319.528,-287.604C275.981,-275.905 220.187,-260.916 178.677,-249.764"/>
<polygon fill="midnightblue" stroke="midnightblue" points="318.621,-290.985 329.186,-290.199 320.437,-284.225 318.621,-290.985"/>
</g>
<!-- Node12 -->
<g id="node23" class="node"><title>Node12</title>
<a xlink:href="_energy_8cc.html" target="_top" xlink:title="src/calibration/modules\l/Energy.cc">
<polygon fill="white" stroke="black" points="597.5,-217 597.5,-251 714.5,-251 714.5,-217 597.5,-217"/>
<text text-anchor="start" x="605.5" y="-238" font-family="Helvetica,sans-Serif" font-size="10.00">src/calibration/modules</text>
<text text-anchor="middle" x="656" y="-225" font-family="Helvetica,sans-Serif" font-size="10.00">/Energy.cc</text>
</a>
</g>
<!-- Node1&#45;&gt;Node12 -->
<g id="edge22" class="edge"><title>Node1&#45;&gt;Node12</title>
<path fill="none" stroke="midnightblue" d="M456.472,-287.604C500.019,-275.905 555.813,-260.916 597.323,-249.764"/>
<polygon fill="midnightblue" stroke="midnightblue" points="455.563,-284.225 446.814,-290.199 457.379,-290.985 455.563,-284.225"/>
</g>
<!-- Node13 -->
<g id="node25" class="node"><title>Node13</title>
<a xlink:href="_p_i_d___energy_8h.html" target="_top" xlink:title="src/calibration/modules\l/PID_Energy.h">
<polygon fill="white" stroke="black" points="195.5,-217 195.5,-251 312.5,-251 312.5,-217 195.5,-217"/>
<text text-anchor="start" x="203.5" y="-238" font-family="Helvetica,sans-Serif" font-size="10.00">src/calibration/modules</text>
<text text-anchor="middle" x="254" y="-225" font-family="Helvetica,sans-Serif" font-size="10.00">/PID_Energy.h</text>
</a>
</g>
<!-- Node1&#45;&gt;Node13 -->
<g id="edge24" class="edge"><title>Node1&#45;&gt;Node13</title>
<path fill="none" stroke="midnightblue" d="M347.21,-284.083C327.561,-273.525 304.341,-261.049 285.993,-251.19"/>
<polygon fill="midnightblue" stroke="midnightblue" points="345.778,-287.287 356.244,-288.937 349.092,-281.121 345.778,-287.287"/>
</g>
<!-- Node15 -->
<g id="node30" class="node"><title>Node15</title>
<a xlink:href="_t_a_p_s___energy_8h.html" target="_top" xlink:title="src/calibration/modules\l/TAPS_Energy.h">
<polygon fill="white" stroke="black" points="329.5,-217 329.5,-251 446.5,-251 446.5,-217 329.5,-217"/>
<text text-anchor="start" x="337.5" y="-238" font-family="Helvetica,sans-Serif" font-size="10.00">src/calibration/modules</text>
<text text-anchor="middle" x="388" y="-225" font-family="Helvetica,sans-Serif" font-size="10.00">/TAPS_Energy.h</text>
</a>
</g>
<!-- Node1&#45;&gt;Node15 -->
<g id="edge30" class="edge"><title>Node1&#45;&gt;Node15</title>
<path fill="none" stroke="midnightblue" d="M388,-278.719C388,-269.572 388,-259.625 388,-251.441"/>
<polygon fill="midnightblue" stroke="midnightblue" points="384.5,-278.937 388,-288.937 391.5,-278.937 384.5,-278.937"/>
</g>
<!-- Node17 -->
<g id="node35" class="node"><title>Node17</title>
<a xlink:href="_t_a_p_s_veto___energy_8h.html" target="_top" xlink:title="src/calibration/modules\l/TAPSVeto_Energy.h">
<polygon fill="white" stroke="black" points="463.5,-217 463.5,-251 580.5,-251 580.5,-217 463.5,-217"/>
<text text-anchor="start" x="471.5" y="-238" font-family="Helvetica,sans-Serif" font-size="10.00">src/calibration/modules</text>
<text text-anchor="middle" x="522" y="-225" font-family="Helvetica,sans-Serif" font-size="10.00">/TAPSVeto_Energy.h</text>
</a>
</g>
<!-- Node1&#45;&gt;Node17 -->
<g id="edge36" class="edge"><title>Node1&#45;&gt;Node17</title>
<path fill="none" stroke="midnightblue" d="M428.79,-284.083C448.439,-273.525 471.659,-261.049 490.007,-251.19"/>
<polygon fill="midnightblue" stroke="midnightblue" points="426.908,-281.121 419.756,-288.937 430.222,-287.287 426.908,-281.121"/>
</g>
<!-- Node3 -->
<g id="node5" class="node"><title>Node3</title>
<a xlink:href="_c_b___energy_8cc.html" target="_top" xlink:title="src/calibration/modules\l/CB_Energy.cc">
<polygon fill="white" stroke="black" points="-0.5,-145 -0.5,-179 116.5,-179 116.5,-145 -0.5,-145"/>
<text text-anchor="start" x="7.5" y="-166" font-family="Helvetica,sans-Serif" font-size="10.00">src/calibration/modules</text>
<text text-anchor="middle" x="58" y="-153" font-family="Helvetica,sans-Serif" font-size="10.00">/CB_Energy.cc</text>
</a>
</g>
<!-- Node2&#45;&gt;Node3 -->
<g id="edge4" class="edge"><title>Node2&#45;&gt;Node3</title>
<path fill="none" stroke="midnightblue" d="M98.5461,-209.086C90.1325,-199.315 80.6793,-188.337 73.0184,-179.441"/>
<polygon fill="midnightblue" stroke="midnightblue" points="96.1294,-211.643 105.307,-216.937 101.434,-207.075 96.1294,-211.643"/>
</g>
<!-- Node4 -->
<g id="node7" class="node"><title>Node4</title>
<a xlink:href="_setup_8h.html" target="_top" xlink:title="src/expconfig/setups\l/Setup.h">
<polygon fill="white" stroke="black" points="267.5,-145 267.5,-179 374.5,-179 374.5,-145 267.5,-145"/>
<text text-anchor="start" x="275.5" y="-166" font-family="Helvetica,sans-Serif" font-size="10.00">src/expconfig/setups</text>
<text text-anchor="middle" x="321" y="-153" font-family="Helvetica,sans-Serif" font-size="10.00">/Setup.h</text>
</a>
</g>
<!-- Node2&#45;&gt;Node4 -->
<g id="edge6" class="edge"><title>Node2&#45;&gt;Node4</title>
<path fill="none" stroke="midnightblue" d="M177.253,-213.491C207.643,-202.606 244.551,-189.385 273.36,-179.065"/>
<polygon fill="midnightblue" stroke="midnightblue" points="175.868,-210.27 167.634,-216.937 178.229,-216.86 175.868,-210.27"/>
</g>
<!-- Node5 -->
<g id="node9" class="node"><title>Node5</title>
<a xlink:href="_exp_config_8cc.html" target="_top" xlink:title="src/expconfig/ExpConfig.cc">
<polygon fill="white" stroke="black" points="47.5,-79.5 47.5,-100.5 184.5,-100.5 184.5,-79.5 47.5,-79.5"/>
<text text-anchor="middle" x="116" y="-87.5" font-family="Helvetica,sans-Serif" font-size="10.00">src/expconfig/ExpConfig.cc</text>
</a>
</g>
<!-- Node4&#45;&gt;Node5 -->
<g id="edge8" class="edge"><title>Node4&#45;&gt;Node5</title>
<path fill="none" stroke="midnightblue" d="M262.98,-141.622C224.933,-128.259 176.741,-111.333 146.13,-100.582"/>
<polygon fill="midnightblue" stroke="midnightblue" points="261.823,-144.925 272.418,-144.937 264.143,-138.321 261.823,-144.925"/>
</g>
<!-- Node6 -->
<g id="node11" class="node"><title>Node6</title>
<a xlink:href="_setup__2014___e_p_t_8h.html" target="_top" xlink:title="src/expconfig/setups\l/Setup_2014_EPT.h">
<polygon fill="white" stroke="black" points="201.5,-73 201.5,-107 308.5,-107 308.5,-73 201.5,-73"/>
<text text-anchor="start" x="209.5" y="-94" font-family="Helvetica,sans-Serif" font-size="10.00">src/expconfig/setups</text>
<text text-anchor="middle" x="255" y="-81" font-family="Helvetica,sans-Serif" font-size="10.00">/Setup_2014_EPT.h</text>
</a>
</g>
<!-- Node4&#45;&gt;Node6 -->
<g id="edge10" class="edge"><title>Node4&#45;&gt;Node6</title>
<path fill="none" stroke="midnightblue" d="M298.43,-137.379C289.407,-127.535 279.224,-116.426 270.987,-107.441"/>
<polygon fill="midnightblue" stroke="midnightblue" points="296.022,-139.93 305.359,-144.937 301.182,-135.2 296.022,-139.93"/>
</g>
<!-- Node10 -->
<g id="node19" class="node"><title>Node10</title>
<a xlink:href="_setup__2015__dummy_8cc.html" target="_top" xlink:title="src/expconfig/setups\l/Setup_2015_dummy.cc">
<polygon fill="white" stroke="black" points="326,-73 326,-107 448,-107 448,-73 326,-73"/>
<text text-anchor="start" x="334" y="-94" font-family="Helvetica,sans-Serif" font-size="10.00">src/expconfig/setups</text>
<text text-anchor="middle" x="387" y="-81" font-family="Helvetica,sans-Serif" font-size="10.00">/Setup_2015_dummy.cc</text>
</a>
</g>
<!-- Node4&#45;&gt;Node10 -->
<g id="edge18" class="edge"><title>Node4&#45;&gt;Node10</title>
<path fill="none" stroke="midnightblue" d="M343.57,-137.379C352.593,-127.535 362.776,-116.426 371.013,-107.441"/>
<polygon fill="midnightblue" stroke="midnightblue" points="340.818,-135.2 336.641,-144.937 345.978,-139.93 340.818,-135.2"/>
</g>
<!-- Node11 -->
<g id="node21" class="node"><title>Node11</title>
<a xlink:href="_setup_registry_8cc.html" target="_top" xlink:title="src/expconfig/setups\l/SetupRegistry.cc">
<polygon fill="white" stroke="black" points="465.5,-73 465.5,-107 572.5,-107 572.5,-73 465.5,-73"/>
<text text-anchor="start" x="473.5" y="-94" font-family="Helvetica,sans-Serif" font-size="10.00">src/expconfig/setups</text>
<text text-anchor="middle" x="519" y="-81" font-family="Helvetica,sans-Serif" font-size="10.00">/SetupRegistry.cc</text>
</a>
</g>
<!-- Node4&#45;&gt;Node11 -->
<g id="edge20" class="edge"><title>Node4&#45;&gt;Node11</title>
<path fill="none" stroke="midnightblue" d="M377.399,-141.491C407.335,-130.606 443.692,-117.385 472.071,-107.065"/>
<polygon fill="midnightblue" stroke="midnightblue" points="376.125,-138.23 367.923,-144.937 378.517,-144.809 376.125,-138.23"/>
</g>
<!-- Node7 -->
<g id="node13" class="node"><title>Node7</title>
<a xlink:href="_setup__2014__07___e_p_t___prod_8cc.html" target="_top" xlink:title="src/expconfig/setups\l/Setup_2014_07_EPT_Prod.cc">
<polygon fill="white" stroke="black" points="11.5,-1 11.5,-35 162.5,-35 162.5,-1 11.5,-1"/>
<text text-anchor="start" x="19.5" y="-22" font-family="Helvetica,sans-Serif" font-size="10.00">src/expconfig/setups</text>
<text text-anchor="middle" x="87" y="-9" font-family="Helvetica,sans-Serif" font-size="10.00">/Setup_2014_07_EPT_Prod.cc</text>
</a>
</g>
<!-- Node6&#45;&gt;Node7 -->
<g id="edge12" class="edge"><title>Node6&#45;&gt;Node7</title>
<path fill="none" stroke="midnightblue" d="M205.822,-68.9238C180.68,-58.1485 150.48,-45.2059 126.819,-35.0651"/>
<polygon fill="midnightblue" stroke="midnightblue" points="204.616,-72.2148 215.186,-72.937 207.374,-65.7807 204.616,-72.2148"/>
</g>
<!-- Node8 -->
<g id="node15" class="node"><title>Node8</title>
<a xlink:href="_setup__2014__10___e_p_t___prod_8cc.html" target="_top" xlink:title="src/expconfig/setups\l/Setup_2014_10_EPT_Prod.cc">
<polygon fill="white" stroke="black" points="179.5,-1 179.5,-35 330.5,-35 330.5,-1 179.5,-1"/>
<text text-anchor="start" x="187.5" y="-22" font-family="Helvetica,sans-Serif" font-size="10.00">src/expconfig/setups</text>
<text text-anchor="middle" x="255" y="-9" font-family="Helvetica,sans-Serif" font-size="10.00">/Setup_2014_10_EPT_Prod.cc</text>
</a>
</g>
<!-- Node6&#45;&gt;Node8 -->
<g id="edge14" class="edge"><title>Node6&#45;&gt;Node8</title>
<path fill="none" stroke="midnightblue" d="M255,-62.7193C255,-53.572 255,-43.6255 255,-35.4407"/>
<polygon fill="midnightblue" stroke="midnightblue" points="251.5,-62.937 255,-72.937 258.5,-62.937 251.5,-62.937"/>
</g>
<!-- Node9 -->
<g id="node17" class="node"><title>Node9</title>
<a xlink:href="_setup__2014__12___e_p_t___prod_8cc.html" target="_top" xlink:title="src/expconfig/setups\l/Setup_2014_12_EPT_Prod.cc">
<polygon fill="white" stroke="black" points="347.5,-1 347.5,-35 498.5,-35 498.5,-1 347.5,-1"/>
<text text-anchor="start" x="355.5" y="-22" font-family="Helvetica,sans-Serif" font-size="10.00">src/expconfig/setups</text>
<text text-anchor="middle" x="423" y="-9" font-family="Helvetica,sans-Serif" font-size="10.00">/Setup_2014_12_EPT_Prod.cc</text>
</a>
</g>
<!-- Node6&#45;&gt;Node9 -->
<g id="edge16" class="edge"><title>Node6&#45;&gt;Node9</title>
<path fill="none" stroke="midnightblue" d="M304.178,-68.9238C329.32,-58.1485 359.52,-45.2059 383.181,-35.0651"/>
<polygon fill="midnightblue" stroke="midnightblue" points="302.626,-65.7807 294.814,-72.937 305.384,-72.2148 302.626,-65.7807"/>
</g>
<!-- Node13&#45;&gt;Node4 -->
<g id="edge28" class="edge"><title>Node13&#45;&gt;Node4</title>
<path fill="none" stroke="midnightblue" d="M276.912,-209.379C286.072,-199.535 296.409,-188.426 304.77,-179.441"/>
<polygon fill="midnightblue" stroke="midnightblue" points="274.128,-207.232 269.878,-216.937 279.253,-212.001 274.128,-207.232"/>
</g>
<!-- Node14 -->
<g id="node27" class="node"><title>Node14</title>
<a xlink:href="_p_i_d___energy_8cc.html" target="_top" xlink:title="src/calibration/modules\l/PID_Energy.cc">
<polygon fill="white" stroke="black" points="133.5,-145 133.5,-179 250.5,-179 250.5,-145 133.5,-145"/>
<text text-anchor="start" x="141.5" y="-166" font-family="Helvetica,sans-Serif" font-size="10.00">src/calibration/modules</text>
<text text-anchor="middle" x="192" y="-153" font-family="Helvetica,sans-Serif" font-size="10.00">/PID_Energy.cc</text>
</a>
</g>
<!-- Node13&#45;&gt;Node14 -->
<g id="edge26" class="edge"><title>Node13&#45;&gt;Node14</title>
<path fill="none" stroke="midnightblue" d="M232.546,-209.086C224.132,-199.315 214.679,-188.337 207.018,-179.441"/>
<polygon fill="midnightblue" stroke="midnightblue" points="230.129,-211.643 239.307,-216.937 235.434,-207.075 230.129,-211.643"/>
</g>
<!-- Node15&#45;&gt;Node4 -->
<g id="edge34" class="edge"><title>Node15&#45;&gt;Node4</title>
<path fill="none" stroke="midnightblue" d="M365.088,-209.379C355.928,-199.535 345.591,-188.426 337.23,-179.441"/>
<polygon fill="midnightblue" stroke="midnightblue" points="362.747,-212.001 372.122,-216.937 367.872,-207.232 362.747,-212.001"/>
</g>
<!-- Node16 -->
<g id="node32" class="node"><title>Node16</title>
<a xlink:href="_t_a_p_s___energy_8cc.html" target="_top" xlink:title="src/calibration/modules\l/TAPS_Energy.cc">
<polygon fill="white" stroke="black" points="391.5,-145 391.5,-179 508.5,-179 508.5,-145 391.5,-145"/>
<text text-anchor="start" x="399.5" y="-166" font-family="Helvetica,sans-Serif" font-size="10.00">src/calibration/modules</text>
<text text-anchor="middle" x="450" y="-153" font-family="Helvetica,sans-Serif" font-size="10.00">/TAPS_Energy.cc</text>
</a>
</g>
<!-- Node15&#45;&gt;Node16 -->
<g id="edge32" class="edge"><title>Node15&#45;&gt;Node16</title>
<path fill="none" stroke="midnightblue" d="M409.454,-209.086C417.868,-199.315 427.321,-188.337 434.982,-179.441"/>
<polygon fill="midnightblue" stroke="midnightblue" points="406.566,-207.075 402.693,-216.937 411.871,-211.643 406.566,-207.075"/>
</g>
<!-- Node17&#45;&gt;Node4 -->
<g id="edge40" class="edge"><title>Node17&#45;&gt;Node4</title>
<path fill="none" stroke="midnightblue" d="M464.747,-213.491C434.357,-202.606 397.449,-189.385 368.64,-179.065"/>
<polygon fill="midnightblue" stroke="midnightblue" points="463.771,-216.86 474.366,-216.937 466.132,-210.27 463.771,-216.86"/>
</g>
<!-- Node18 -->
<g id="node37" class="node"><title>Node18</title>
<a xlink:href="_t_a_p_s_veto___energy_8cc.html" target="_top" xlink:title="src/calibration/modules\l/TAPSVeto_Energy.cc">
<polygon fill="white" stroke="black" points="525.5,-145 525.5,-179 642.5,-179 642.5,-145 525.5,-145"/>
<text text-anchor="start" x="533.5" y="-166" font-family="Helvetica,sans-Serif" font-size="10.00">src/calibration/modules</text>
<text text-anchor="middle" x="584" y="-153" font-family="Helvetica,sans-Serif" font-size="10.00">/TAPSVeto_Energy.cc</text>
</a>
</g>
<!-- Node17&#45;&gt;Node18 -->
<g id="edge38" class="edge"><title>Node17&#45;&gt;Node18</title>
<path fill="none" stroke="midnightblue" d="M543.454,-209.086C551.868,-199.315 561.321,-188.337 568.982,-179.441"/>
<polygon fill="midnightblue" stroke="midnightblue" points="540.566,-207.075 536.693,-216.937 545.871,-211.643 540.566,-207.075"/>
</g>
</g>
</svg>
