<?xml version="1.0" encoding="UTF-8" standalone="no"?>
<!DOCTYPE svg PUBLIC "-//W3C//DTD SVG 1.1//EN"
 "http://www.w3.org/Graphics/SVG/1.1/DTD/svg11.dtd">
<!-- Generated by graphviz version 2.26.3 (20100126.1600)
 -->
<!-- Title: src/analysis/data/Event.h Pages: 1 -->
<svg width="1490pt" height="436pt"
 viewBox="0.00 0.00 1490.00 436.00" xmlns="http://www.w3.org/2000/svg" xmlns:xlink="http://www.w3.org/1999/xlink">
<g id="graph1" class="graph" transform="scale(1 1) rotate(0) translate(4 432)">
<title>src/analysis/data/Event.h</title>
<polygon fill="white" stroke="white" points="-4,5 -4,-432 1487,-432 1487,5 -4,5"/>
<!-- Node1 -->
<g id="node1" class="node"><title>Node1</title>
<polygon fill="#bfbfbf" stroke="black" points="888,-406.5 888,-427.5 1016,-427.5 1016,-406.5 888,-406.5"/>
<text text-anchor="middle" x="952" y="-414.5" font-family="Helvetica,sans-Serif" font-size="10.00">src/analysis/data/Event.h</text>
</g>
<!-- Node2 -->
<g id="node3" class="node"><title>Node2</title>
<a xlink:href="_particle_8h.html" target="_top" xlink:title="Particle.h">
<polygon fill="white" stroke="black" points="1016,-348.5 1016,-369.5 1074,-369.5 1074,-348.5 1016,-348.5"/>
<text text-anchor="middle" x="1045" y="-356.5" font-family="Helvetica,sans-Serif" font-size="10.00">Particle.h</text>
</a>
</g>
<!-- Node1&#45;&gt;Node2 -->
<g id="edge2" class="edge"><title>Node1&#45;&gt;Node2</title>
<path fill="none" stroke="midnightblue" d="M969.058,-406.362C983.085,-397.614 1003.18,-385.079 1019.18,-375.101"/>
<polygon fill="midnightblue" stroke="midnightblue" points="1021.42,-377.832 1028.05,-369.571 1017.71,-371.893 1021.42,-377.832"/>
</g>
<!-- Node3 -->
<g id="node5" class="node"><title>Node3</title>
<a xlink:href="printable_8h.html" target="_top" xlink:title="base/printable.h">
<polygon fill="white" stroke="black" points="835,-116.5 835,-137.5 921,-137.5 921,-116.5 835,-116.5"/>
<text text-anchor="middle" x="878" y="-124.5" font-family="Helvetica,sans-Serif" font-size="10.00">base/printable.h</text>
</a>
</g>
<!-- Node1&#45;&gt;Node3 -->
<g id="edge138" class="edge"><title>Node1&#45;&gt;Node3</title>
<path fill="none" stroke="midnightblue" d="M1016.19,-410.933C1082.38,-400.726 1176,-373.479 1176,-301 1176,-301 1176,-301 1176,-243 1176,-191.889 1130.37,-195.488 1084,-174 1034.85,-151.227 973.865,-139.088 931.048,-132.892"/>
<polygon fill="midnightblue" stroke="midnightblue" points="931.502,-129.422 921.116,-131.514 930.54,-136.356 931.502,-129.422"/>
</g>
<!-- Node4 -->
<g id="node7" class="node"><title>Node4</title>
<polygon fill="white" stroke="#bfbfbf" points="1262,-58.5 1262,-79.5 1306,-79.5 1306,-58.5 1262,-58.5"/>
<text text-anchor="middle" x="1284" y="-66.5" font-family="Helvetica,sans-Serif" font-size="10.00">vector</text>
</g>
<!-- Node1&#45;&gt;Node4 -->
<g id="edge140" class="edge"><title>Node1&#45;&gt;Node4</title>
<path fill="none" stroke="midnightblue" d="M1016.2,-413.154C1087.81,-407.789 1206.66,-395.665 1306,-370 1387.35,-348.984 1482,-385.019 1482,-301 1482,-301 1482,-301 1482,-185 1482,-109.209 1372.66,-82.0032 1316.48,-73.0272"/>
<polygon fill="midnightblue" stroke="midnightblue" points="1316.74,-69.5261 1306.33,-71.5108 1315.7,-76.4494 1316.74,-69.5261"/>
</g>
<!-- Node6 -->
<g id="node11" class="node"><title>Node6</title>
<a xlink:href="types_8h.html" target="_top" xlink:title="base/types.h">
<polygon fill="white" stroke="black" points="927.5,-232.5 927.5,-253.5 1000.5,-253.5 1000.5,-232.5 927.5,-232.5"/>
<text text-anchor="middle" x="964" y="-240.5" font-family="Helvetica,sans-Serif" font-size="10.00">base/types.h</text>
</a>
</g>
<!-- Node1&#45;&gt;Node6 -->
<g id="edge136" class="edge"><title>Node1&#45;&gt;Node6</title>
<path fill="none" stroke="midnightblue" d="M952.733,-406.377C954.669,-378.293 959.954,-301.673 962.538,-264.203"/>
<polygon fill="midnightblue" stroke="midnightblue" points="966.05,-264.145 963.246,-253.928 959.067,-263.663 966.05,-264.145"/>
</g>
<!-- Node9 -->
<g id="node19" class="node"><title>Node9</title>
<polygon fill="white" stroke="#bfbfbf" points="1419.5,-232.5 1419.5,-253.5 1454.5,-253.5 1454.5,-232.5 1419.5,-232.5"/>
<text text-anchor="middle" x="1437" y="-240.5" font-family="Helvetica,sans-Serif" font-size="10.00">map</text>
</g>
<!-- Node1&#45;&gt;Node9 -->
<g id="edge144" class="edge"><title>Node1&#45;&gt;Node9</title>
<path fill="none" stroke="midnightblue" d="M1016.18,-409.486C1126.91,-395.355 1347.64,-361.699 1406,-312 1420.48,-299.667 1428.5,-279.201 1432.73,-263.754"/>
<polygon fill="midnightblue" stroke="midnightblue" points="1436.24,-264.122 1435.18,-253.581 1429.44,-262.483 1436.24,-264.122"/>
</g>
<!-- Node11 -->
<g id="node24" class="node"><title>Node11</title>
<a xlink:href="_candidate_8h.html" target="_top" xlink:title="analysis/data/Candidate.h">
<polygon fill="white" stroke="black" points="708,-290.5 708,-311.5 838,-311.5 838,-290.5 708,-290.5"/>
<text text-anchor="middle" x="773" y="-298.5" font-family="Helvetica,sans-Serif" font-size="10.00">analysis/data/Candidate.h</text>
</a>
</g>
<!-- Node1&#45;&gt;Node11 -->
<g id="edge72" class="edge"><title>Node1&#45;&gt;Node11</title>
<path fill="none" stroke="midnightblue" d="M935.481,-406.295C903.965,-385.871 835.092,-341.238 797.94,-317.162"/>
<polygon fill="midnightblue" stroke="midnightblue" points="799.516,-314.013 789.221,-311.512 795.709,-319.887 799.516,-314.013"/>
</g>
<!-- Node20 -->
<g id="node50" class="node"><title>Node20</title>
<polygon fill="white" stroke="#bfbfbf" points="458,-232.5 458,-253.5 510,-253.5 510,-232.5 458,-232.5"/>
<text text-anchor="middle" x="484" y="-240.5" font-family="Helvetica,sans-Serif" font-size="10.00">memory</text>
</g>
<!-- Node1&#45;&gt;Node20 -->
<g id="edge142" class="edge"><title>Node1&#45;&gt;Node20</title>
<path fill="none" stroke="midnightblue" d="M917.962,-406.363C860.847,-388.3 742.313,-349.889 644,-312 599.106,-294.698 548.238,-272.262 516.147,-257.749"/>
<polygon fill="midnightblue" stroke="midnightblue" points="517.37,-254.461 506.818,-253.514 514.477,-260.835 517.37,-254.461"/>
</g>
<!-- Node23 -->
<g id="node60" class="node"><title>Node23</title>
<a xlink:href="_tagger_hit_8h.html" target="_top" xlink:title="TaggerHit.h">
<polygon fill="white" stroke="black" points="856,-290.5 856,-311.5 924,-311.5 924,-290.5 856,-290.5"/>
<text text-anchor="middle" x="890" y="-298.5" font-family="Helvetica,sans-Serif" font-size="10.00">TaggerHit.h</text>
</a>
</g>
<!-- Node1&#45;&gt;Node23 -->
<g id="edge74" class="edge"><title>Node1&#45;&gt;Node23</title>
<path fill="none" stroke="midnightblue" d="M946.278,-406.295C935.851,-386.786 913.618,-345.188 900.432,-320.518"/>
<polygon fill="midnightblue" stroke="midnightblue" points="903.508,-318.849 895.708,-311.679 897.335,-322.148 903.508,-318.849"/>
</g>
<!-- Node24 -->
<g id="node67" class="node"><title>Node24</title>
<a xlink:href="_trigger_info_8h.html" target="_top" xlink:title="TriggerInfo.h">
<polygon fill="white" stroke="black" points="396.5,-290.5 396.5,-311.5 467.5,-311.5 467.5,-290.5 396.5,-290.5"/>
<text text-anchor="middle" x="432" y="-298.5" font-family="Helvetica,sans-Serif" font-size="10.00">TriggerInfo.h</text>
</a>
</g>
<!-- Node1&#45;&gt;Node24 -->
<g id="edge86" class="edge"><title>Node1&#45;&gt;Node24</title>
<path fill="none" stroke="midnightblue" d="M887.939,-413.463C767.753,-406.407 517.411,-389.569 483,-370 463.484,-358.901 449.27,-336.954 440.88,-320.78"/>
<polygon fill="midnightblue" stroke="midnightblue" points="443.937,-319.063 436.413,-311.604 437.643,-322.127 443.937,-319.063"/>
</g>
<!-- Node2&#45;&gt;Node3 -->
<g id="edge4" class="edge"><title>Node2&#45;&gt;Node3</title>
<path fill="none" stroke="midnightblue" d="M1059.81,-348.236C1088.47,-326.057 1146.41,-273.838 1119,-232 1077.48,-168.615 988.442,-143.282 930.99,-133.304"/>
<polygon fill="midnightblue" stroke="midnightblue" points="931.435,-129.831 921,-131.668 930.303,-136.739 931.435,-129.831"/>
</g>
<!-- Node2&#45;&gt;Node4 -->
<g id="edge66" class="edge"><title>Node2&#45;&gt;Node4</title>
<path fill="none" stroke="midnightblue" d="M1074.06,-356.254C1142.59,-349.486 1309.78,-331.158 1326,-312 1382.43,-245.347 1339.49,-198.895 1312,-116 1308.74,-106.175 1303.18,-96.197 1297.87,-87.9772"/>
<polygon fill="midnightblue" stroke="midnightblue" points="1300.65,-85.8329 1292.12,-79.5457 1294.87,-89.7786 1300.65,-85.8329"/>
</g>
<!-- Node2&#45;&gt;Node6 -->
<g id="edge10" class="edge"><title>Node2&#45;&gt;Node6</title>
<path fill="none" stroke="midnightblue" d="M1036.47,-348.346C1029.02,-338.932 1018.02,-324.754 1009,-312 997.456,-295.684 985.106,-276.62 976.269,-262.67"/>
<polygon fill="midnightblue" stroke="midnightblue" points="979.055,-260.525 970.766,-253.926 973.13,-264.253 979.055,-260.525"/>
</g>
<!-- Node7 -->
<g id="node13" class="node"><title>Node7</title>
<a xlink:href="_particle_type_8h.html" target="_top" xlink:title="base/ParticleType.h">
<polygon fill="white" stroke="black" points="1213,-290.5 1213,-311.5 1317,-311.5 1317,-290.5 1213,-290.5"/>
<text text-anchor="middle" x="1265" y="-298.5" font-family="Helvetica,sans-Serif" font-size="10.00">base/ParticleType.h</text>
</a>
</g>
<!-- Node2&#45;&gt;Node7 -->
<g id="edge12" class="edge"><title>Node2&#45;&gt;Node7</title>
<path fill="none" stroke="midnightblue" d="M1074.21,-351.298C1110.11,-341.835 1171.57,-325.63 1215.03,-314.175"/>
<polygon fill="midnightblue" stroke="midnightblue" points="1216.06,-317.523 1224.83,-311.589 1214.27,-310.754 1216.06,-317.523"/>
</g>
<!-- Node2&#45;&gt;Node11 -->
<g id="edge26" class="edge"><title>Node2&#45;&gt;Node11</title>
<path fill="none" stroke="midnightblue" d="M1015.89,-352.793C972.257,-343.489 888.967,-325.728 832.213,-313.626"/>
<polygon fill="midnightblue" stroke="midnightblue" points="832.802,-310.173 822.292,-311.511 831.342,-317.019 832.802,-310.173"/>
</g>
<!-- Node18 -->
<g id="node44" class="node"><title>Node18</title>
<polygon fill="white" stroke="#bfbfbf" points="583.5,-174.5 583.5,-195.5 612.5,-195.5 612.5,-174.5 583.5,-174.5"/>
<text text-anchor="middle" x="598" y="-182.5" font-family="Helvetica,sans-Serif" font-size="10.00">list</text>
</g>
<!-- Node2&#45;&gt;Node18 -->
<g id="edge68" class="edge"><title>Node2&#45;&gt;Node18</title>
<path fill="none" stroke="midnightblue" d="M1015.93,-356.742C943.574,-350.854 757.05,-333.95 699,-312 655.532,-295.564 637.912,-292.577 612,-254 602.441,-239.769 599.154,-220.421 598.136,-205.835"/>
<polygon fill="midnightblue" stroke="midnightblue" points="601.63,-205.624 597.733,-195.772 594.636,-205.904 601.63,-205.624"/>
</g>
<!-- Node21 -->
<g id="node53" class="node"><title>Node21</title>
<polygon fill="white" stroke="#bfbfbf" points="1018,-232.5 1018,-253.5 1110,-253.5 1110,-232.5 1018,-232.5"/>
<text text-anchor="middle" x="1064" y="-240.5" font-family="Helvetica,sans-Serif" font-size="10.00">TLorentzVector.h</text>
</g>
<!-- Node2&#45;&gt;Node21 -->
<g id="edge64" class="edge"><title>Node2&#45;&gt;Node21</title>
<path fill="none" stroke="midnightblue" d="M1056.56,-348.296C1065.15,-339.501 1076.18,-326.212 1081,-312 1086.48,-295.828 1081.07,-276.974 1074.94,-263.065"/>
<polygon fill="midnightblue" stroke="midnightblue" points="1078.01,-261.384 1070.49,-253.92 1071.71,-264.444 1078.01,-261.384"/>
</g>
<!-- Node22 -->
<g id="node57" class="node"><title>Node22</title>
<polygon fill="white" stroke="#bfbfbf" points="1018,-290.5 1018,-311.5 1072,-311.5 1072,-290.5 1018,-290.5"/>
<text text-anchor="middle" x="1045" y="-298.5" font-family="Helvetica,sans-Serif" font-size="10.00">iostream</text>
</g>
<!-- Node2&#45;&gt;Node22 -->
<g id="edge70" class="edge"><title>Node2&#45;&gt;Node22</title>
<path fill="none" stroke="midnightblue" d="M1045,-348.362C1045,-340.922 1045,-330.743 1045,-321.728"/>
<polygon fill="midnightblue" stroke="midnightblue" points="1048.5,-321.571 1045,-311.571 1041.5,-321.571 1048.5,-321.571"/>
</g>
<!-- Node3&#45;&gt;Node4 -->
<g id="edge6" class="edge"><title>Node3&#45;&gt;Node4</title>
<path fill="none" stroke="midnightblue" d="M921.065,-120.848C1002.96,-109.149 1179.41,-83.9416 1251.9,-73.585"/>
<polygon fill="midnightblue" stroke="midnightblue" points="1252.42,-77.0473 1261.82,-72.1682 1251.43,-70.1176 1252.42,-77.0473"/>
</g>
<!-- Node5 -->
<g id="node9" class="node"><title>Node5</title>
<polygon fill="white" stroke="#bfbfbf" points="852,-58.5 852,-79.5 904,-79.5 904,-58.5 852,-58.5"/>
<text text-anchor="middle" x="878" y="-66.5" font-family="Helvetica,sans-Serif" font-size="10.00">ostream</text>
</g>
<!-- Node3&#45;&gt;Node5 -->
<g id="edge8" class="edge"><title>Node3&#45;&gt;Node5</title>
<path fill="none" stroke="midnightblue" d="M878,-116.362C878,-108.922 878,-98.7427 878,-89.7276"/>
<polygon fill="midnightblue" stroke="midnightblue" points="881.5,-89.5706 878,-79.5707 874.5,-89.5707 881.5,-89.5706"/>
</g>
<!-- Node7&#45;&gt;Node4 -->
<g id="edge24" class="edge"><title>Node7&#45;&gt;Node4</title>
<path fill="none" stroke="midnightblue" d="M1274.98,-290.418C1282.68,-281.489 1292.7,-267.962 1297,-254 1314.71,-196.526 1299.65,-124.435 1290.22,-89.6539"/>
<polygon fill="midnightblue" stroke="midnightblue" points="1293.5,-88.4009 1287.4,-79.7381 1286.77,-90.3139 1293.5,-88.4009"/>
</g>
<!-- Node7&#45;&gt;Node5 -->
<g id="edge18" class="edge"><title>Node7&#45;&gt;Node5</title>
<path fill="none" stroke="midnightblue" d="M1257.3,-290.383C1250.61,-280.991 1240.78,-266.827 1233,-254 1212.06,-219.492 1220.84,-200.039 1190,-174 1107.64,-104.473 977.305,-80.4009 914.375,-72.5446"/>
<polygon fill="midnightblue" stroke="midnightblue" points="914.494,-69.0344 904.153,-71.3382 913.674,-75.9862 914.494,-69.0344"/>
</g>
<!-- Node7&#45;&gt;Node6 -->
<g id="edge14" class="edge"><title>Node7&#45;&gt;Node6</title>
<path fill="none" stroke="midnightblue" d="M1212.85,-292.341C1163.23,-283.895 1086.23,-270.259 1010.93,-254.337"/>
<polygon fill="midnightblue" stroke="midnightblue" points="1011.31,-250.84 1000.8,-252.179 1009.85,-257.686 1011.31,-250.84"/>
</g>
<!-- Node8 -->
<g id="node16" class="node"><title>Node8</title>
<polygon fill="white" stroke="#bfbfbf" points="603.5,-0.5 603.5,-21.5 644.5,-21.5 644.5,-0.5 603.5,-0.5"/>
<text text-anchor="middle" x="624" y="-8.5" font-family="Helvetica,sans-Serif" font-size="10.00">string</text>
</g>
<!-- Node7&#45;&gt;Node8 -->
<g id="edge16" class="edge"><title>Node7&#45;&gt;Node8</title>
<path fill="none" stroke="midnightblue" d="M1280.87,-290.25C1291.94,-281.8 1305.93,-268.977 1313,-254 1330.05,-217.879 1317.54,-60.6521 1315,-58 1291.83,-33.8348 785.875,-16.1404 654.791,-11.9503"/>
<polygon fill="midnightblue" stroke="midnightblue" points="654.749,-8.44729 644.643,-11.6291 654.527,-15.4438 654.749,-8.44729"/>
</g>
<!-- Node7&#45;&gt;Node9 -->
<g id="edge20" class="edge"><title>Node7&#45;&gt;Node9</title>
<path fill="none" stroke="midnightblue" d="M1296.15,-290.497C1328.5,-279.586 1378.64,-262.681 1409.55,-252.257"/>
<polygon fill="midnightblue" stroke="midnightblue" points="1410.89,-255.5 1419.24,-248.988 1408.65,-248.867 1410.89,-255.5"/>
</g>
<!-- Node10 -->
<g id="node21" class="node"><title>Node10</title>
<polygon fill="white" stroke="#bfbfbf" points="1241.5,-232.5 1241.5,-253.5 1288.5,-253.5 1288.5,-232.5 1241.5,-232.5"/>
<text text-anchor="middle" x="1265" y="-240.5" font-family="Helvetica,sans-Serif" font-size="10.00">iterator</text>
</g>
<!-- Node7&#45;&gt;Node10 -->
<g id="edge22" class="edge"><title>Node7&#45;&gt;Node10</title>
<path fill="none" stroke="midnightblue" d="M1265,-290.362C1265,-282.922 1265,-272.743 1265,-263.728"/>
<polygon fill="midnightblue" stroke="midnightblue" points="1268.5,-263.571 1265,-253.571 1261.5,-263.571 1268.5,-263.571"/>
</g>
<!-- Node11&#45;&gt;Node3 -->
<g id="edge28" class="edge"><title>Node11&#45;&gt;Node3</title>
<path fill="none" stroke="midnightblue" d="M779.41,-290.377C796.577,-261.93 843.794,-183.684 866.071,-146.769"/>
<polygon fill="midnightblue" stroke="midnightblue" points="869.236,-148.298 871.406,-137.928 863.242,-144.681 869.236,-148.298"/>
</g>
<!-- Node11&#45;&gt;Node4 -->
<g id="edge62" class="edge"><title>Node11&#45;&gt;Node4</title>
<path fill="none" stroke="midnightblue" d="M795.192,-290.33C823.748,-276.643 874.929,-252.252 919,-232 1041.71,-175.612 1188.76,-110.769 1252.25,-82.9046"/>
<polygon fill="midnightblue" stroke="midnightblue" points="1253.95,-85.9792 1261.71,-78.757 1251.14,-79.5688 1253.95,-85.9792"/>
</g>
<!-- Node11&#45;&gt;Node5 -->
<g id="edge58" class="edge"><title>Node11&#45;&gt;Node5</title>
<path fill="none" stroke="midnightblue" d="M774.014,-290.147C777.226,-260.244 789.237,-174.973 826,-116 833.242,-104.382 844.161,-93.8991 854.127,-85.7966"/>
<polygon fill="midnightblue" stroke="midnightblue" points="856.401,-88.4627 862.173,-79.5778 852.12,-82.9243 856.401,-88.4627"/>
</g>
<!-- Node11&#45;&gt;Node6 -->
<g id="edge30" class="edge"><title>Node11&#45;&gt;Node6</title>
<path fill="none" stroke="midnightblue" d="M807.589,-290.497C838.996,-280.959 885.49,-266.841 919.625,-256.475"/>
<polygon fill="midnightblue" stroke="midnightblue" points="920.795,-259.778 929.346,-253.523 918.761,-253.08 920.795,-259.778"/>
</g>
<!-- Node12 -->
<g id="node28" class="node"><title>Node12</title>
<a xlink:href="_detector__t_8h.html" target="_top" xlink:title="base/Detector_t.h">
<polygon fill="white" stroke="black" points="433.5,-174.5 433.5,-195.5 528.5,-195.5 528.5,-174.5 433.5,-174.5"/>
<text text-anchor="middle" x="481" y="-182.5" font-family="Helvetica,sans-Serif" font-size="10.00">base/Detector_t.h</text>
</a>
</g>
<!-- Node11&#45;&gt;Node12 -->
<g id="edge32" class="edge"><title>Node11&#45;&gt;Node12</title>
<path fill="none" stroke="midnightblue" d="M720.348,-290.446C685.446,-282.548 639.062,-270.302 600,-254 565.173,-239.465 527.999,-216.583 504.646,-201.197"/>
<polygon fill="midnightblue" stroke="midnightblue" points="506.375,-198.143 496.114,-195.503 502.489,-203.966 506.375,-198.143"/>
</g>
<!-- Node17 -->
<g id="node41" class="node"><title>Node17</title>
<a xlink:href="_cluster_8h.html" target="_top" xlink:title="analysis/data/Cluster.h">
<polygon fill="white" stroke="black" points="641.5,-232.5 641.5,-253.5 758.5,-253.5 758.5,-232.5 641.5,-232.5"/>
<text text-anchor="middle" x="700" y="-240.5" font-family="Helvetica,sans-Serif" font-size="10.00">analysis/data/Cluster.h</text>
</a>
</g>
<!-- Node11&#45;&gt;Node17 -->
<g id="edge48" class="edge"><title>Node11&#45;&gt;Node17</title>
<path fill="none" stroke="midnightblue" d="M759.611,-290.362C748.909,-281.859 733.704,-269.779 721.329,-259.947"/>
<polygon fill="midnightblue" stroke="midnightblue" points="723.311,-257.051 713.304,-253.571 718.957,-262.532 723.311,-257.051"/>
</g>
<!-- Node11&#45;&gt;Node20 -->
<g id="edge60" class="edge"><title>Node11&#45;&gt;Node20</title>
<path fill="none" stroke="midnightblue" d="M720.664,-290.497C662.654,-278.855 570.633,-260.387 520.127,-250.25"/>
<polygon fill="midnightblue" stroke="midnightblue" points="520.5,-246.756 510.007,-248.219 519.123,-253.619 520.5,-246.756"/>
</g>
<!-- Node12&#45;&gt;Node3 -->
<g id="edge34" class="edge"><title>Node12&#45;&gt;Node3</title>
<path fill="none" stroke="midnightblue" d="M528.589,-176.231C533.118,-175.453 537.643,-174.697 542,-174 641.65,-158.052 758.417,-142.399 824.754,-133.789"/>
<polygon fill="midnightblue" stroke="midnightblue" points="825.489,-137.223 834.957,-132.469 824.59,-130.281 825.489,-137.223"/>
</g>
<!-- Node12&#45;&gt;Node4 -->
<g id="edge46" class="edge"><title>Node12&#45;&gt;Node4</title>
<path fill="none" stroke="midnightblue" d="M522.578,-174.447C554.569,-165.875 599.647,-152.809 638,-138 659.141,-129.837 662.112,-121.873 684,-116 792.664,-86.844 1143.1,-73.4815 1251.64,-69.9733"/>
<polygon fill="midnightblue" stroke="midnightblue" points="1252.07,-73.4617 1261.95,-69.6464 1251.85,-66.4652 1252.07,-73.4617"/>
</g>
<!-- Node12&#45;&gt;Node8 -->
<g id="edge42" class="edge"><title>Node12&#45;&gt;Node8</title>
<path fill="none" stroke="midnightblue" d="M521.599,-174.413C553.454,-165.268 594.163,-151.442 605,-138 629.596,-107.491 629.373,-59.0015 626.818,-31.6084"/>
<polygon fill="midnightblue" stroke="midnightblue" points="630.286,-31.1342 625.688,-21.5896 623.33,-31.9189 630.286,-31.1342"/>
</g>
<!-- Node13 -->
<g id="node31" class="node"><title>Node13</title>
<polygon fill="white" stroke="#bfbfbf" points="692.5,-116.5 692.5,-137.5 757.5,-137.5 757.5,-116.5 692.5,-116.5"/>
<text text-anchor="middle" x="725" y="-124.5" font-family="Helvetica,sans-Serif" font-size="10.00">TVector3.h</text>
</g>
<!-- Node12&#45;&gt;Node13 -->
<g id="edge36" class="edge"><title>Node12&#45;&gt;Node13</title>
<path fill="none" stroke="midnightblue" d="M525.187,-174.497C569.907,-163.866 638.567,-147.545 682.627,-137.072"/>
<polygon fill="midnightblue" stroke="midnightblue" points="683.532,-140.455 692.452,-134.737 681.913,-133.644 683.532,-140.455"/>
</g>
<!-- Node14 -->
<g id="node33" class="node"><title>Node14</title>
<polygon fill="white" stroke="#bfbfbf" points="394,-116.5 394,-137.5 440,-137.5 440,-116.5 394,-116.5"/>
<text text-anchor="middle" x="417" y="-124.5" font-family="Helvetica,sans-Serif" font-size="10.00">cstdint</text>
</g>
<!-- Node12&#45;&gt;Node14 -->
<g id="edge38" class="edge"><title>Node12&#45;&gt;Node14</title>
<path fill="none" stroke="midnightblue" d="M469.261,-174.362C460.059,-166.023 447.06,-154.242 436.328,-144.516"/>
<polygon fill="midnightblue" stroke="midnightblue" points="438.424,-141.692 428.664,-137.571 433.724,-146.879 438.424,-141.692"/>
</g>
<!-- Node15 -->
<g id="node35" class="node"><title>Node15</title>
<polygon fill="white" stroke="#bfbfbf" points="457.5,-116.5 457.5,-137.5 516.5,-137.5 516.5,-116.5 457.5,-116.5"/>
<text text-anchor="middle" x="487" y="-124.5" font-family="Helvetica,sans-Serif" font-size="10.00">stdexcept</text>
</g>
<!-- Node12&#45;&gt;Node15 -->
<g id="edge40" class="edge"><title>Node12&#45;&gt;Node15</title>
<path fill="none" stroke="midnightblue" d="M482.1,-174.362C482.87,-166.922 483.923,-156.743 484.856,-147.728"/>
<polygon fill="midnightblue" stroke="midnightblue" points="488.359,-147.878 485.906,-137.571 481.396,-147.157 488.359,-147.878"/>
</g>
<!-- Node16 -->
<g id="node38" class="node"><title>Node16</title>
<polygon fill="white" stroke="#bfbfbf" points="534,-116.5 534,-137.5 596,-137.5 596,-116.5 534,-116.5"/>
<text text-anchor="middle" x="565" y="-124.5" font-family="Helvetica,sans-Serif" font-size="10.00">type_traits</text>
</g>
<!-- Node12&#45;&gt;Node16 -->
<g id="edge44" class="edge"><title>Node12&#45;&gt;Node16</title>
<path fill="none" stroke="midnightblue" d="M496.407,-174.362C508.958,-165.696 526.892,-153.313 541.275,-143.382"/>
<polygon fill="midnightblue" stroke="midnightblue" points="543.45,-146.133 549.691,-137.571 539.473,-140.372 543.45,-146.133"/>
</g>
<!-- Node17&#45;&gt;Node12 -->
<g id="edge50" class="edge"><title>Node17&#45;&gt;Node12</title>
<path fill="none" stroke="midnightblue" d="M660.341,-232.497C623.942,-222.857 569.874,-208.537 530.625,-198.143"/>
<polygon fill="midnightblue" stroke="midnightblue" points="531.296,-194.7 520.734,-195.523 529.504,-201.467 531.296,-194.7"/>
</g>
<!-- Node17&#45;&gt;Node13 -->
<g id="edge54" class="edge"><title>Node17&#45;&gt;Node13</title>
<path fill="none" stroke="midnightblue" d="M709.061,-232.252C716.04,-223.227 725.127,-209.652 729,-196 733.496,-180.151 732.019,-161.455 729.683,-147.525"/>
<polygon fill="midnightblue" stroke="midnightblue" points="733.08,-146.661 727.722,-137.52 726.21,-148.007 733.08,-146.661"/>
</g>
<!-- Node17&#45;&gt;Node18 -->
<g id="edge52" class="edge"><title>Node17&#45;&gt;Node18</title>
<path fill="none" stroke="midnightblue" d="M681.292,-232.362C664.444,-222.782 639.61,-208.66 621.442,-198.33"/>
<polygon fill="midnightblue" stroke="midnightblue" points="623.051,-195.218 612.628,-193.318 619.591,-201.303 623.051,-195.218"/>
</g>
<!-- Node19 -->
<g id="node47" class="node"><title>Node19</title>
<a xlink:href="enumfield_8h.html" target="_top" xlink:title="base/enumfield.h">
<polygon fill="white" stroke="black" points="629.5,-174.5 629.5,-195.5 720.5,-195.5 720.5,-174.5 629.5,-174.5"/>
<text text-anchor="middle" x="675" y="-182.5" font-family="Helvetica,sans-Serif" font-size="10.00">base/enumfield.h</text>
</a>
</g>
<!-- Node17&#45;&gt;Node19 -->
<g id="edge56" class="edge"><title>Node17&#45;&gt;Node19</title>
<path fill="none" stroke="midnightblue" d="M695.415,-232.362C692.102,-224.677 687.53,-214.069 683.552,-204.84"/>
<polygon fill="midnightblue" stroke="midnightblue" points="686.729,-203.368 679.556,-195.571 680.301,-206.139 686.729,-203.368"/>
</g>
<!-- Node23&#45;&gt;Node3 -->
<g id="edge82" class="edge"><title>Node23&#45;&gt;Node3</title>
<path fill="none" stroke="midnightblue" d="M889.267,-290.377C887.331,-262.293 882.046,-185.673 879.462,-148.203"/>
<polygon fill="midnightblue" stroke="midnightblue" points="882.933,-147.663 878.754,-137.928 875.95,-148.145 882.933,-147.663"/>
</g>
<!-- Node23&#45;&gt;Node6 -->
<g id="edge80" class="edge"><title>Node23&#45;&gt;Node6</title>
<path fill="none" stroke="midnightblue" d="M903.573,-290.362C914.421,-281.859 929.834,-269.779 942.379,-259.947"/>
<polygon fill="midnightblue" stroke="midnightblue" points="944.802,-262.494 950.513,-253.571 940.484,-256.985 944.802,-262.494"/>
</g>
<!-- Node23&#45;&gt;Node18 -->
<g id="edge76" class="edge"><title>Node23&#45;&gt;Node18</title>
<path fill="none" stroke="midnightblue" d="M855.793,-291.974C852.826,-291.275 849.865,-290.606 847,-290 752.642,-270.031 710.703,-311.134 633,-254 617.085,-242.298 607.905,-221.27 602.974,-205.493"/>
<polygon fill="midnightblue" stroke="midnightblue" points="606.269,-204.279 600.208,-195.588 599.527,-206.161 606.269,-204.279"/>
</g>
<!-- Node23&#45;&gt;Node20 -->
<g id="edge78" class="edge"><title>Node23&#45;&gt;Node20</title>
<path fill="none" stroke="midnightblue" d="M855.817,-291.856C852.845,-291.182 849.876,-290.552 847,-290 728.47,-267.253 586.014,-252.389 520.374,-246.231"/>
<polygon fill="midnightblue" stroke="midnightblue" points="520.423,-242.72 510.143,-245.283 519.778,-249.691 520.423,-242.72"/>
</g>
<!-- Node23&#45;&gt;Node21 -->
<g id="edge84" class="edge"><title>Node23&#45;&gt;Node21</title>
<path fill="none" stroke="midnightblue" d="M921.51,-290.497C949.877,-281.041 991.751,-267.083 1022.77,-256.743"/>
<polygon fill="midnightblue" stroke="midnightblue" points="1024.05,-260.006 1032.43,-253.523 1021.84,-253.365 1024.05,-260.006"/>
</g>
<!-- Node24&#45;&gt;Node3 -->
<g id="edge90" class="edge"><title>Node24&#45;&gt;Node3</title>
<path fill="none" stroke="midnightblue" d="M428.742,-290.5C424.902,-275.889 420.505,-249.281 433,-232 461.659,-192.363 492.52,-216.347 537,-196 554.747,-187.882 556.598,-180.496 575,-174 620.006,-158.113 750.625,-141.422 824.84,-132.849"/>
<polygon fill="midnightblue" stroke="midnightblue" points="825.386,-136.309 834.923,-131.694 824.589,-129.355 825.386,-136.309"/>
</g>
<!-- Node24&#45;&gt;Node6 -->
<g id="edge88" class="edge"><title>Node24&#45;&gt;Node6</title>
<path fill="none" stroke="midnightblue" d="M467.732,-297.104C561.186,-286.916 812.831,-259.481 917.422,-248.078"/>
<polygon fill="midnightblue" stroke="midnightblue" points="917.809,-251.557 927.37,-246.993 917.05,-244.598 917.809,-251.557"/>
</g>
<!-- Node24&#45;&gt;Node18 -->
<g id="edge132" class="edge"><title>Node24&#45;&gt;Node18</title>
<path fill="none" stroke="midnightblue" d="M431.553,-290.366C431.521,-275.349 433.76,-247.983 449,-232 487.718,-191.393 516.952,-214.274 570,-196 571.222,-195.579 572.47,-195.137 573.726,-194.681"/>
<polygon fill="midnightblue" stroke="midnightblue" points="575.158,-197.881 583.265,-191.06 572.674,-191.337 575.158,-197.881"/>
</g>
<!-- Node24&#45;&gt;Node20 -->
<g id="edge134" class="edge"><title>Node24&#45;&gt;Node20</title>
<path fill="none" stroke="midnightblue" d="M441.538,-290.362C448.868,-282.186 459.163,-270.702 467.781,-261.091"/>
<polygon fill="midnightblue" stroke="midnightblue" points="470.453,-263.353 474.523,-253.571 465.241,-258.68 470.453,-263.353"/>
</g>
<!-- Node25 -->
<g id="node71" class="node"><title>Node25</title>
<a xlink:href="_t_data_record_8h.html" target="_top" xlink:title="tree/TDataRecord.h">
<polygon fill="white" stroke="black" points="261.5,-232.5 261.5,-253.5 364.5,-253.5 364.5,-232.5 261.5,-232.5"/>
<text text-anchor="middle" x="313" y="-240.5" font-family="Helvetica,sans-Serif" font-size="10.00">tree/TDataRecord.h</text>
</a>
</g>
<!-- Node24&#45;&gt;Node25 -->
<g id="edge92" class="edge"><title>Node24&#45;&gt;Node25</title>
<path fill="none" stroke="midnightblue" d="M410.45,-290.497C391.864,-281.438 364.798,-268.246 343.905,-258.063"/>
<polygon fill="midnightblue" stroke="midnightblue" points="345.314,-254.856 334.792,-253.621 342.247,-261.149 345.314,-254.856"/>
</g>
<!-- Node26 -->
<g id="node73" class="node"><title>Node26</title>
<a xlink:href="_t_i_d_8h.html" target="_top" xlink:title="TID.h">
<polygon fill="white" stroke="black" points="296.5,-174.5 296.5,-195.5 337.5,-195.5 337.5,-174.5 296.5,-174.5"/>
<text text-anchor="middle" x="317" y="-182.5" font-family="Helvetica,sans-Serif" font-size="10.00">TID.h</text>
</a>
</g>
<!-- Node25&#45;&gt;Node26 -->
<g id="edge94" class="edge"><title>Node25&#45;&gt;Node26</title>
<path fill="none" stroke="midnightblue" d="M313.734,-232.362C314.247,-224.922 314.949,-214.743 315.571,-205.728"/>
<polygon fill="midnightblue" stroke="midnightblue" points="319.075,-205.788 316.271,-195.571 312.091,-205.306 319.075,-205.788"/>
</g>
<!-- Node27 -->
<g id="node75" class="node"><title>Node27</title>
<polygon fill="white" stroke="#bfbfbf" points="0,-116.5 0,-137.5 56,-137.5 56,-116.5 0,-116.5"/>
<text text-anchor="middle" x="28" y="-124.5" font-family="Helvetica,sans-Serif" font-size="10.00">Rtypes.h</text>
</g>
<!-- Node25&#45;&gt;Node27 -->
<g id="edge126" class="edge"><title>Node25&#45;&gt;Node27</title>
<path fill="none" stroke="midnightblue" d="M281.768,-232.416C255.285,-223.273 216.392,-209.449 183,-196 139.854,-178.623 90.9608,-156.43 59.8267,-141.974"/>
<polygon fill="midnightblue" stroke="midnightblue" points="60.9146,-138.62 50.3721,-137.568 57.9579,-144.965 60.9146,-138.62"/>
</g>
<!-- Node33 -->
<g id="node89" class="node"><title>Node33</title>
<polygon fill="white" stroke="#bfbfbf" points="290.5,-58.5 290.5,-79.5 331.5,-79.5 331.5,-58.5 290.5,-58.5"/>
<text text-anchor="middle" x="311" y="-66.5" font-family="Helvetica,sans-Serif" font-size="10.00">ctime</text>
</g>
<!-- Node25&#45;&gt;Node33 -->
<g id="edge130" class="edge"><title>Node25&#45;&gt;Node33</title>
<path fill="none" stroke="midnightblue" d="M323.226,-232.455C331.117,-223.548 341.433,-210.031 346,-196 357.006,-162.188 358.415,-149.676 347,-116 343.387,-105.341 336.278,-95.2015 329.325,-87.0872"/>
<polygon fill="midnightblue" stroke="midnightblue" points="331.896,-84.712 322.56,-79.7037 326.735,-89.4411 331.896,-84.712"/>
</g>
<!-- Node35 -->
<g id="node96" class="node"><title>Node35</title>
<polygon fill="white" stroke="#bfbfbf" points="74,-116.5 74,-137.5 124,-137.5 124,-116.5 74,-116.5"/>
<text text-anchor="middle" x="99" y="-124.5" font-family="Helvetica,sans-Serif" font-size="10.00">iomanip</text>
</g>
<!-- Node25&#45;&gt;Node35 -->
<g id="edge128" class="edge"><title>Node25&#45;&gt;Node35</title>
<path fill="none" stroke="midnightblue" d="M293.251,-232.295C255.174,-211.655 171.483,-166.29 127.418,-142.404"/>
<polygon fill="midnightblue" stroke="midnightblue" points="128.852,-139.2 118.392,-137.512 125.516,-145.354 128.852,-139.2"/>
</g>
<!-- Node26&#45;&gt;Node3 -->
<g id="edge98" class="edge"><title>Node26&#45;&gt;Node3</title>
<path fill="none" stroke="midnightblue" d="M337.632,-182.867C417.057,-174.655 704.597,-144.928 824.706,-132.51"/>
<polygon fill="midnightblue" stroke="midnightblue" points="825.185,-135.979 834.772,-131.469 824.465,-129.016 825.185,-135.979"/>
</g>
<!-- Node26&#45;&gt;Node14 -->
<g id="edge118" class="edge"><title>Node26&#45;&gt;Node14</title>
<path fill="none" stroke="midnightblue" d="M335.342,-174.362C350.566,-165.532 372.441,-152.844 389.72,-142.822"/>
<polygon fill="midnightblue" stroke="midnightblue" points="391.88,-145.615 398.775,-137.571 388.368,-139.56 391.88,-145.615"/>
</g>
<!-- Node26&#45;&gt;Node15 -->
<g id="edge120" class="edge"><title>Node26&#45;&gt;Node15</title>
<path fill="none" stroke="midnightblue" d="M337.506,-178.004C364.673,-168.735 413.163,-152.191 447.545,-140.461"/>
<polygon fill="midnightblue" stroke="midnightblue" points="448.946,-143.681 457.28,-137.14 446.686,-137.056 448.946,-143.681"/>
</g>
<!-- Node26&#45;&gt;Node16 -->
<g id="edge114" class="edge"><title>Node26&#45;&gt;Node16</title>
<path fill="none" stroke="midnightblue" d="M337.741,-180.645C373.63,-173.039 449.84,-156.578 523.667,-138.262"/>
<polygon fill="midnightblue" stroke="midnightblue" points="524.739,-141.602 533.593,-135.784 523.043,-134.81 524.739,-141.602"/>
</g>
<!-- Node26&#45;&gt;Node27 -->
<g id="edge96" class="edge"><title>Node26&#45;&gt;Node27</title>
<path fill="none" stroke="midnightblue" d="M296.266,-181.887C254.512,-175.457 157.18,-159.668 66.1247,-138.095"/>
<polygon fill="midnightblue" stroke="midnightblue" points="66.7399,-134.644 56.1993,-135.714 65.1069,-141.451 66.7399,-134.644"/>
</g>
<!-- Node28 -->
<g id="node78" class="node"><title>Node28</title>
<a xlink:href="time_8h.html" target="_top" xlink:title="base/std_ext/time.h">
<polygon fill="white" stroke="black" points="141.5,-116.5 141.5,-137.5 244.5,-137.5 244.5,-116.5 141.5,-116.5"/>
<text text-anchor="middle" x="193" y="-124.5" font-family="Helvetica,sans-Serif" font-size="10.00">base/std_ext/time.h</text>
</a>
</g>
<!-- Node26&#45;&gt;Node28 -->
<g id="edge100" class="edge"><title>Node26&#45;&gt;Node28</title>
<path fill="none" stroke="midnightblue" d="M296.245,-175.292C276.699,-166.15 247.144,-152.326 224.657,-141.807"/>
<polygon fill="midnightblue" stroke="midnightblue" points="226.044,-138.592 215.503,-137.525 223.078,-144.933 226.044,-138.592"/>
</g>
<!-- Node26&#45;&gt;Node33 -->
<g id="edge124" class="edge"><title>Node26&#45;&gt;Node33</title>
<path fill="none" stroke="midnightblue" d="M309.117,-174.465C302.822,-165.352 294.496,-151.544 291,-138 286.685,-121.286 292.882,-102.476 299.485,-88.7217"/>
<polygon fill="midnightblue" stroke="midnightblue" points="302.671,-90.1834 304.221,-79.7025 296.473,-86.9291 302.671,-90.1834"/>
</g>
<!-- Node34 -->
<g id="node92" class="node"><title>Node34</title>
<polygon fill="white" stroke="#bfbfbf" points="300,-116.5 300,-137.5 338,-137.5 338,-116.5 300,-116.5"/>
<text text-anchor="middle" x="319" y="-124.5" font-family="Helvetica,sans-Serif" font-size="10.00">tuple</text>
</g>
<!-- Node26&#45;&gt;Node34 -->
<g id="edge116" class="edge"><title>Node26&#45;&gt;Node34</title>
<path fill="none" stroke="midnightblue" d="M317.367,-174.362C317.623,-166.922 317.974,-156.743 318.285,-147.728"/>
<polygon fill="midnightblue" stroke="midnightblue" points="321.789,-147.685 318.635,-137.571 314.793,-147.444 321.789,-147.685"/>
</g>
<!-- Node26&#45;&gt;Node35 -->
<g id="edge122" class="edge"><title>Node26&#45;&gt;Node35</title>
<path fill="none" stroke="midnightblue" d="M296.465,-180.201C264.015,-172.521 198.703,-156.683 134.131,-138.211"/>
<polygon fill="midnightblue" stroke="midnightblue" points="134.775,-134.755 124.197,-135.347 132.835,-141.48 134.775,-134.755"/>
</g>
<!-- Node29 -->
<g id="node80" class="node"><title>Node29</title>
<a xlink:href="string_8h.html" target="_top" xlink:title="base/std_ext/string.h">
<polygon fill="white" stroke="black" points="101,-58.5 101,-79.5 209,-79.5 209,-58.5 101,-58.5"/>
<text text-anchor="middle" x="155" y="-66.5" font-family="Helvetica,sans-Serif" font-size="10.00">base/std_ext/string.h</text>
</a>
</g>
<!-- Node28&#45;&gt;Node29 -->
<g id="edge102" class="edge"><title>Node28&#45;&gt;Node29</title>
<path fill="none" stroke="midnightblue" d="M186.03,-116.362C180.834,-108.431 173.599,-97.3885 167.422,-87.9606"/>
<polygon fill="midnightblue" stroke="midnightblue" points="170.334,-86.0172 161.926,-79.5707 164.478,-89.8534 170.334,-86.0172"/>
</g>
<!-- Node32 -->
<g id="node87" class="node"><title>Node32</title>
<polygon fill="white" stroke="#bfbfbf" points="227,-58.5 227,-79.5 273,-79.5 273,-58.5 227,-58.5"/>
<text text-anchor="middle" x="250" y="-66.5" font-family="Helvetica,sans-Serif" font-size="10.00">cstring</text>
</g>
<!-- Node28&#45;&gt;Node32 -->
<g id="edge110" class="edge"><title>Node28&#45;&gt;Node32</title>
<path fill="none" stroke="midnightblue" d="M203.455,-116.362C211.57,-108.104 223.001,-96.4725 232.504,-86.8029"/>
<polygon fill="midnightblue" stroke="midnightblue" points="235.099,-89.1562 239.612,-79.5707 230.106,-84.2497 235.099,-89.1562"/>
</g>
<!-- Node28&#45;&gt;Node33 -->
<g id="edge112" class="edge"><title>Node28&#45;&gt;Node33</title>
<path fill="none" stroke="midnightblue" d="M214.369,-116.497C233.029,-107.325 260.309,-93.9157 281.129,-83.6823"/>
<polygon fill="midnightblue" stroke="midnightblue" points="282.756,-86.7828 290.186,-79.2305 279.668,-80.5007 282.756,-86.7828"/>
</g>
<!-- Node29&#45;&gt;Node8 -->
<g id="edge104" class="edge"><title>Node29&#45;&gt;Node8</title>
<path fill="none" stroke="midnightblue" d="M209.264,-59.3209C212.217,-58.8581 215.143,-58.4144 218,-58 357.644,-37.7432 525.326,-20.5966 593.221,-13.9516"/>
<polygon fill="midnightblue" stroke="midnightblue" points="593.628,-17.4287 603.242,-12.9764 592.95,-10.4616 593.628,-17.4287"/>
</g>
<!-- Node30 -->
<g id="node83" class="node"><title>Node30</title>
<polygon fill="white" stroke="#bfbfbf" points="93,-0.5 93,-21.5 145,-21.5 145,-0.5 93,-0.5"/>
<text text-anchor="middle" x="119" y="-8.5" font-family="Helvetica,sans-Serif" font-size="10.00">sstream</text>
</g>
<!-- Node29&#45;&gt;Node30 -->
<g id="edge106" class="edge"><title>Node29&#45;&gt;Node30</title>
<path fill="none" stroke="midnightblue" d="M148.397,-58.3619C143.525,-50.5131 136.762,-39.6159 130.95,-30.2527"/>
<polygon fill="midnightblue" stroke="midnightblue" points="133.809,-28.2213 125.561,-21.5707 127.861,-31.9129 133.809,-28.2213"/>
</g>
<!-- Node31 -->
<g id="node85" class="node"><title>Node31</title>
<polygon fill="white" stroke="#bfbfbf" points="163,-0.5 163,-21.5 219,-21.5 219,-0.5 163,-0.5"/>
<text text-anchor="middle" x="191" y="-8.5" font-family="Helvetica,sans-Serif" font-size="10.00">algorithm</text>
</g>
<!-- Node29&#45;&gt;Node31 -->
<g id="edge108" class="edge"><title>Node29&#45;&gt;Node31</title>
<path fill="none" stroke="midnightblue" d="M161.603,-58.3619C166.475,-50.5131 173.238,-39.6159 179.05,-30.2527"/>
<polygon fill="midnightblue" stroke="midnightblue" points="182.139,-31.9129 184.439,-21.5707 176.191,-28.2213 182.139,-31.9129"/>
</g>
</g>
</svg>
