<?xml version="1.0" encoding="UTF-8" standalone="no"?>
<!DOCTYPE svg PUBLIC "-//W3C//DTD SVG 1.1//EN"
 "http://www.w3.org/Graphics/SVG/1.1/DTD/svg11.dtd">
<!-- Generated by graphviz version 2.26.3 (20100126.1600)
 -->
<!-- Title: src/analysis/data/Event.cc Pages: 1 -->
<svg width="1439pt" height="494pt"
 viewBox="0.00 0.00 1438.63 494.00" xmlns="http://www.w3.org/2000/svg" xmlns:xlink="http://www.w3.org/1999/xlink">
<g id="graph1" class="graph" transform="scale(1 1) rotate(0) translate(4 490)">
<title>src/analysis/data/Event.cc</title>
<polygon fill="white" stroke="white" points="-4,5 -4,-490 1435.63,-490 1435.63,5 -4,5"/>
<!-- Node1 -->
<g id="node1" class="node"><title>Node1</title>
<polygon fill="#bfbfbf" stroke="black" points="1113.5,-464.5 1113.5,-485.5 1246.5,-485.5 1246.5,-464.5 1113.5,-464.5"/>
<text text-anchor="middle" x="1180" y="-472.5" font-family="Helvetica,sans-Serif" font-size="10.00">src/analysis/data/Event.cc</text>
</g>
<!-- Node2 -->
<g id="node3" class="node"><title>Node2</title>
<a xlink:href="_event_8h.html" target="_top" xlink:title="Event.h">
<polygon fill="white" stroke="black" points="838,-406.5 838,-427.5 888,-427.5 888,-406.5 838,-406.5"/>
<text text-anchor="middle" x="863" y="-414.5" font-family="Helvetica,sans-Serif" font-size="10.00">Event.h</text>
</a>
</g>
<!-- Node1&#45;&gt;Node2 -->
<g id="edge2" class="edge"><title>Node1&#45;&gt;Node2</title>
<path fill="none" stroke="midnightblue" d="M1122.59,-464.497C1057.22,-452.536 952.478,-433.371 898.185,-423.438"/>
<polygon fill="midnightblue" stroke="midnightblue" points="898.808,-419.994 888.341,-421.637 897.548,-426.879 898.808,-419.994"/>
</g>
<!-- Node23 -->
<g id="node59" class="node"><title>Node23</title>
<polygon fill="white" stroke="#bfbfbf" points="1345,-290.5 1345,-311.5 1399,-311.5 1399,-290.5 1345,-290.5"/>
<text text-anchor="middle" x="1372" y="-298.5" font-family="Helvetica,sans-Serif" font-size="10.00">iostream</text>
</g>
<!-- Node1&#45;&gt;Node23 -->
<g id="edge148" class="edge"><title>Node1&#45;&gt;Node23</title>
<path fill="none" stroke="midnightblue" d="M1191.72,-464.377C1223.71,-435.385 1312.78,-354.669 1352.48,-318.694"/>
<polygon fill="midnightblue" stroke="midnightblue" points="1354.88,-321.236 1359.94,-311.928 1350.18,-316.049 1354.88,-321.236"/>
</g>
<!-- Node3 -->
<g id="node5" class="node"><title>Node3</title>
<a xlink:href="_particle_8h.html" target="_top" xlink:title="Particle.h">
<polygon fill="white" stroke="black" points="1052,-348.5 1052,-369.5 1110,-369.5 1110,-348.5 1052,-348.5"/>
<text text-anchor="middle" x="1081" y="-356.5" font-family="Helvetica,sans-Serif" font-size="10.00">Particle.h</text>
</a>
</g>
<!-- Node2&#45;&gt;Node3 -->
<g id="edge4" class="edge"><title>Node2&#45;&gt;Node3</title>
<path fill="none" stroke="midnightblue" d="M888.007,-410.347C925.671,-400.326 997.283,-381.273 1041.89,-369.405"/>
<polygon fill="midnightblue" stroke="midnightblue" points="1043.03,-372.724 1051.79,-366.77 1041.23,-365.959 1043.03,-372.724"/>
</g>
<!-- Node4 -->
<g id="node7" class="node"><title>Node4</title>
<a xlink:href="printable_8h.html" target="_top" xlink:title="base/printable.h">
<polygon fill="white" stroke="black" points="810,-116.5 810,-137.5 896,-137.5 896,-116.5 810,-116.5"/>
<text text-anchor="middle" x="853" y="-124.5" font-family="Helvetica,sans-Serif" font-size="10.00">base/printable.h</text>
</a>
</g>
<!-- Node2&#45;&gt;Node4 -->
<g id="edge140" class="edge"><title>Node2&#45;&gt;Node4</title>
<path fill="none" stroke="midnightblue" d="M855.771,-406.161C839.384,-380.86 799.769,-315.382 786,-254 776.539,-211.822 810.633,-168.516 833.62,-144.96"/>
<polygon fill="midnightblue" stroke="midnightblue" points="836.256,-147.276 840.911,-137.759 831.337,-142.296 836.256,-147.276"/>
</g>
<!-- Node5 -->
<g id="node9" class="node"><title>Node5</title>
<polygon fill="white" stroke="#bfbfbf" points="1147,-58.5 1147,-79.5 1191,-79.5 1191,-58.5 1147,-58.5"/>
<text text-anchor="middle" x="1169" y="-66.5" font-family="Helvetica,sans-Serif" font-size="10.00">vector</text>
</g>
<!-- Node2&#45;&gt;Node5 -->
<g id="edge142" class="edge"><title>Node2&#45;&gt;Node5</title>
<path fill="none" stroke="midnightblue" d="M888.079,-416.309C986.269,-413.019 1342.41,-395.414 1408,-312 1467.72,-236.056 1398.21,-163.36 1314,-116 1269.01,-90.6962 1249.94,-97.4037 1200.61,-81.4289"/>
<polygon fill="midnightblue" stroke="midnightblue" points="1201.63,-78.0787 1191.04,-78.1692 1199.38,-84.7053 1201.63,-78.0787"/>
</g>
<!-- Node7 -->
<g id="node13" class="node"><title>Node7</title>
<a xlink:href="types_8h.html" target="_top" xlink:title="base/types.h">
<polygon fill="white" stroke="black" points="794.5,-232.5 794.5,-253.5 867.5,-253.5 867.5,-232.5 794.5,-232.5"/>
<text text-anchor="middle" x="831" y="-240.5" font-family="Helvetica,sans-Serif" font-size="10.00">base/types.h</text>
</a>
</g>
<!-- Node2&#45;&gt;Node7 -->
<g id="edge138" class="edge"><title>Node2&#45;&gt;Node7</title>
<path fill="none" stroke="midnightblue" d="M861.046,-406.377C855.881,-378.293 841.791,-301.673 834.899,-264.203"/>
<polygon fill="midnightblue" stroke="midnightblue" points="838.261,-263.13 833.01,-253.928 831.376,-264.396 838.261,-263.13"/>
</g>
<!-- Node10 -->
<g id="node21" class="node"><title>Node10</title>
<polygon fill="white" stroke="#bfbfbf" points="1324.5,-232.5 1324.5,-253.5 1359.5,-253.5 1359.5,-232.5 1324.5,-232.5"/>
<text text-anchor="middle" x="1342" y="-240.5" font-family="Helvetica,sans-Serif" font-size="10.00">map</text>
</g>
<!-- Node2&#45;&gt;Node10 -->
<g id="edge146" class="edge"><title>Node2&#45;&gt;Node10</title>
<path fill="none" stroke="midnightblue" d="M888.144,-415.26C953.873,-409.725 1134.4,-388.123 1260,-312 1284.12,-297.382 1308.42,-275.885 1324.24,-260.779"/>
<polygon fill="midnightblue" stroke="midnightblue" points="1326.96,-263.014 1331.69,-253.533 1322.08,-257.996 1326.96,-263.014"/>
</g>
<!-- Node12 -->
<g id="node26" class="node"><title>Node12</title>
<a xlink:href="_candidate_8h.html" target="_top" xlink:title="analysis/data/Candidate.h">
<polygon fill="white" stroke="black" points="571,-290.5 571,-311.5 701,-311.5 701,-290.5 571,-290.5"/>
<text text-anchor="middle" x="636" y="-298.5" font-family="Helvetica,sans-Serif" font-size="10.00">analysis/data/Candidate.h</text>
</a>
</g>
<!-- Node2&#45;&gt;Node12 -->
<g id="edge74" class="edge"><title>Node2&#45;&gt;Node12</title>
<path fill="none" stroke="midnightblue" d="M837.905,-412.319C807.405,-405.909 755.055,-392.548 715,-370 690.812,-356.384 667.42,-334.519 652.452,-319.057"/>
<polygon fill="midnightblue" stroke="midnightblue" points="654.846,-316.495 645.433,-311.632 649.759,-321.303 654.846,-316.495"/>
</g>
<!-- Node21 -->
<g id="node52" class="node"><title>Node21</title>
<polygon fill="white" stroke="#bfbfbf" points="401,-232.5 401,-253.5 453,-253.5 453,-232.5 401,-232.5"/>
<text text-anchor="middle" x="427" y="-240.5" font-family="Helvetica,sans-Serif" font-size="10.00">memory</text>
</g>
<!-- Node2&#45;&gt;Node21 -->
<g id="edge144" class="edge"><title>Node2&#45;&gt;Node21</title>
<path fill="none" stroke="midnightblue" d="M837.788,-412.164C802.203,-404.964 735.504,-390.088 681,-370 625.794,-349.653 614.642,-338.279 562,-312 525.555,-293.807 483.84,-272.395 456.544,-258.304"/>
<polygon fill="midnightblue" stroke="midnightblue" points="458.014,-255.124 447.523,-253.642 454.8,-261.343 458.014,-255.124"/>
</g>
<!-- Node24 -->
<g id="node62" class="node"><title>Node24</title>
<a xlink:href="_tagger_hit_8h.html" target="_top" xlink:title="TaggerHit.h">
<polygon fill="white" stroke="black" points="879,-290.5 879,-311.5 947,-311.5 947,-290.5 879,-290.5"/>
<text text-anchor="middle" x="913" y="-298.5" font-family="Helvetica,sans-Serif" font-size="10.00">TaggerHit.h</text>
</a>
</g>
<!-- Node2&#45;&gt;Node24 -->
<g id="edge76" class="edge"><title>Node2&#45;&gt;Node24</title>
<path fill="none" stroke="midnightblue" d="M867.614,-406.295C875.949,-386.959 893.637,-345.923 904.303,-321.177"/>
<polygon fill="midnightblue" stroke="midnightblue" points="907.653,-322.248 908.397,-311.679 901.224,-319.477 907.653,-322.248"/>
</g>
<!-- Node25 -->
<g id="node69" class="node"><title>Node25</title>
<a xlink:href="_trigger_info_8h.html" target="_top" xlink:title="TriggerInfo.h">
<polygon fill="white" stroke="black" points="364.5,-290.5 364.5,-311.5 435.5,-311.5 435.5,-290.5 364.5,-290.5"/>
<text text-anchor="middle" x="400" y="-298.5" font-family="Helvetica,sans-Serif" font-size="10.00">TriggerInfo.h</text>
</a>
</g>
<!-- Node2&#45;&gt;Node25 -->
<g id="edge88" class="edge"><title>Node2&#45;&gt;Node25</title>
<path fill="none" stroke="midnightblue" d="M837.819,-415.047C767.596,-409.378 570.772,-391.929 510,-370 476.266,-357.828 441.981,-334.139 420.856,-317.947"/>
<polygon fill="midnightblue" stroke="midnightblue" points="422.942,-315.135 412.909,-311.731 418.629,-320.649 422.942,-315.135"/>
</g>
<!-- Node3&#45;&gt;Node4 -->
<g id="edge6" class="edge"><title>Node3&#45;&gt;Node4</title>
<path fill="none" stroke="midnightblue" d="M1086.78,-348.164C1091.39,-338.868 1097.48,-324.959 1100,-312 1106.94,-276.319 1106.8,-259.475 1083,-232 1036.97,-178.856 958.496,-151.109 906.201,-137.783"/>
<polygon fill="midnightblue" stroke="midnightblue" points="906.978,-134.37 896.432,-135.383 905.308,-141.168 906.978,-134.37"/>
</g>
<!-- Node3&#45;&gt;Node5 -->
<g id="edge68" class="edge"><title>Node3&#45;&gt;Node5</title>
<path fill="none" stroke="midnightblue" d="M1110.25,-353.094C1177.7,-338.777 1340.5,-299.99 1368,-254 1416.25,-173.327 1268.81,-106.153 1201.09,-80.343"/>
<polygon fill="midnightblue" stroke="midnightblue" points="1201.92,-76.9176 1191.33,-76.699 1199.48,-83.4755 1201.92,-76.9176"/>
</g>
<!-- Node3&#45;&gt;Node7 -->
<g id="edge12" class="edge"><title>Node3&#45;&gt;Node7</title>
<path fill="none" stroke="midnightblue" d="M1051.87,-355.472C1001,-348.835 898.645,-333.228 870,-312 853.831,-300.018 843.408,-279.207 837.443,-263.565"/>
<polygon fill="midnightblue" stroke="midnightblue" points="840.611,-262.021 834.009,-253.734 834.002,-264.329 840.611,-262.021"/>
</g>
<!-- Node8 -->
<g id="node15" class="node"><title>Node8</title>
<a xlink:href="_particle_type_8h.html" target="_top" xlink:title="base/ParticleType.h">
<polygon fill="white" stroke="black" points="1147,-290.5 1147,-311.5 1251,-311.5 1251,-290.5 1147,-290.5"/>
<text text-anchor="middle" x="1199" y="-298.5" font-family="Helvetica,sans-Serif" font-size="10.00">base/ParticleType.h</text>
</a>
</g>
<!-- Node3&#45;&gt;Node8 -->
<g id="edge14" class="edge"><title>Node3&#45;&gt;Node8</title>
<path fill="none" stroke="midnightblue" d="M1102.37,-348.497C1120.8,-339.438 1147.64,-326.246 1168.36,-316.063"/>
<polygon fill="midnightblue" stroke="midnightblue" points="1169.96,-319.174 1177.39,-311.621 1166.87,-312.891 1169.96,-319.174"/>
</g>
<!-- Node3&#45;&gt;Node12 -->
<g id="edge28" class="edge"><title>Node3&#45;&gt;Node12</title>
<path fill="none" stroke="midnightblue" d="M1051.8,-355.194C983.476,-346.289 811.404,-323.862 711.336,-310.819"/>
<polygon fill="midnightblue" stroke="midnightblue" points="711.656,-307.331 701.288,-309.509 710.752,-314.273 711.656,-307.331"/>
</g>
<!-- Node19 -->
<g id="node46" class="node"><title>Node19</title>
<polygon fill="white" stroke="#bfbfbf" points="867.5,-174.5 867.5,-195.5 896.5,-195.5 896.5,-174.5 867.5,-174.5"/>
<text text-anchor="middle" x="882" y="-182.5" font-family="Helvetica,sans-Serif" font-size="10.00">list</text>
</g>
<!-- Node3&#45;&gt;Node19 -->
<g id="edge70" class="edge"><title>Node3&#45;&gt;Node19</title>
<path fill="none" stroke="midnightblue" d="M1082.95,-348.189C1086.63,-324.026 1091.8,-265.168 1062,-232 1041.31,-208.972 950.678,-194.078 906.451,-188.048"/>
<polygon fill="midnightblue" stroke="midnightblue" points="906.895,-184.576 896.523,-186.738 905.979,-191.516 906.895,-184.576"/>
</g>
<!-- Node22 -->
<g id="node55" class="node"><title>Node22</title>
<polygon fill="white" stroke="#bfbfbf" points="961,-232.5 961,-253.5 1053,-253.5 1053,-232.5 961,-232.5"/>
<text text-anchor="middle" x="1007" y="-240.5" font-family="Helvetica,sans-Serif" font-size="10.00">TLorentzVector.h</text>
</g>
<!-- Node3&#45;&gt;Node22 -->
<g id="edge66" class="edge"><title>Node3&#45;&gt;Node22</title>
<path fill="none" stroke="midnightblue" d="M1074.17,-348.295C1061.67,-328.7 1034.95,-286.82 1019.24,-262.191"/>
<polygon fill="midnightblue" stroke="midnightblue" points="1022.14,-260.227 1013.81,-253.679 1016.24,-263.992 1022.14,-260.227"/>
</g>
<!-- Node3&#45;&gt;Node23 -->
<g id="edge72" class="edge"><title>Node3&#45;&gt;Node23</title>
<path fill="none" stroke="midnightblue" d="M1110.02,-354.284C1156.77,-346.522 1251.55,-330.098 1331,-312 1332.25,-311.715 1333.53,-311.417 1334.81,-311.11"/>
<polygon fill="midnightblue" stroke="midnightblue" points="1335.87,-314.452 1344.73,-308.628 1334.17,-307.661 1335.87,-314.452"/>
</g>
<!-- Node4&#45;&gt;Node5 -->
<g id="edge8" class="edge"><title>Node4&#45;&gt;Node5</title>
<path fill="none" stroke="midnightblue" d="M896.276,-119.057C960.564,-107.257 1079.83,-85.3668 1136.92,-74.8879"/>
<polygon fill="midnightblue" stroke="midnightblue" points="1137.63,-78.3169 1146.83,-73.0691 1136.36,-71.4319 1137.63,-78.3169"/>
</g>
<!-- Node6 -->
<g id="node11" class="node"><title>Node6</title>
<polygon fill="white" stroke="#bfbfbf" points="827,-58.5 827,-79.5 879,-79.5 879,-58.5 827,-58.5"/>
<text text-anchor="middle" x="853" y="-66.5" font-family="Helvetica,sans-Serif" font-size="10.00">ostream</text>
</g>
<!-- Node4&#45;&gt;Node6 -->
<g id="edge10" class="edge"><title>Node4&#45;&gt;Node6</title>
<path fill="none" stroke="midnightblue" d="M853,-116.362C853,-108.922 853,-98.7427 853,-89.7276"/>
<polygon fill="midnightblue" stroke="midnightblue" points="856.5,-89.5706 853,-79.5707 849.5,-89.5707 856.5,-89.5706"/>
</g>
<!-- Node8&#45;&gt;Node5 -->
<g id="edge26" class="edge"><title>Node8&#45;&gt;Node5</title>
<path fill="none" stroke="midnightblue" d="M1212.53,-290.267C1222.24,-281.646 1234.53,-268.6 1240,-254 1243.43,-244.844 1241.99,-241.572 1240,-232 1228.57,-177.159 1197.67,-118.155 1180.64,-88.4519"/>
<polygon fill="midnightblue" stroke="midnightblue" points="1183.51,-86.424 1175.45,-79.5503 1177.46,-89.9515 1183.51,-86.424"/>
</g>
<!-- Node8&#45;&gt;Node6 -->
<g id="edge20" class="edge"><title>Node8&#45;&gt;Node6</title>
<path fill="none" stroke="midnightblue" d="M1187.05,-290.435C1161.11,-267.739 1097.25,-213.209 1039,-174 986.252,-138.497 920.719,-103.447 883.193,-84.1717"/>
<polygon fill="midnightblue" stroke="midnightblue" points="884.779,-81.0514 874.281,-79.6202 881.595,-87.2855 884.779,-81.0514"/>
</g>
<!-- Node8&#45;&gt;Node7 -->
<g id="edge16" class="edge"><title>Node8&#45;&gt;Node7</title>
<path fill="none" stroke="midnightblue" d="M1146.67,-292.752C1074.75,-281.418 946.496,-261.203 877.684,-250.358"/>
<polygon fill="midnightblue" stroke="midnightblue" points="877.995,-246.864 867.572,-248.764 876.905,-253.778 877.995,-246.864"/>
</g>
<!-- Node9 -->
<g id="node18" class="node"><title>Node9</title>
<polygon fill="white" stroke="#bfbfbf" points="641.5,-0.5 641.5,-21.5 682.5,-21.5 682.5,-0.5 641.5,-0.5"/>
<text text-anchor="middle" x="662" y="-8.5" font-family="Helvetica,sans-Serif" font-size="10.00">string</text>
</g>
<!-- Node8&#45;&gt;Node9 -->
<g id="edge18" class="edge"><title>Node8&#45;&gt;Node9</title>
<path fill="none" stroke="midnightblue" d="M1219.36,-290.453C1232.48,-282.416 1248.45,-270.009 1256,-254 1276.27,-211.01 1201.53,-59.1874 1200,-58 1159.78,-26.8442 801.032,-14.7336 692.786,-11.7694"/>
<polygon fill="midnightblue" stroke="midnightblue" points="692.633,-8.26414 682.543,-11.4959 692.446,-15.2616 692.633,-8.26414"/>
</g>
<!-- Node8&#45;&gt;Node10 -->
<g id="edge22" class="edge"><title>Node8&#45;&gt;Node10</title>
<path fill="none" stroke="midnightblue" d="M1224.9,-290.497C1250.33,-280.179 1288.99,-264.502 1314.85,-254.012"/>
<polygon fill="midnightblue" stroke="midnightblue" points="1316.46,-257.136 1324.41,-250.134 1313.83,-250.649 1316.46,-257.136"/>
</g>
<!-- Node11 -->
<g id="node23" class="node"><title>Node11</title>
<polygon fill="white" stroke="#bfbfbf" points="1184.5,-232.5 1184.5,-253.5 1231.5,-253.5 1231.5,-232.5 1184.5,-232.5"/>
<text text-anchor="middle" x="1208" y="-240.5" font-family="Helvetica,sans-Serif" font-size="10.00">iterator</text>
</g>
<!-- Node8&#45;&gt;Node11 -->
<g id="edge24" class="edge"><title>Node8&#45;&gt;Node11</title>
<path fill="none" stroke="midnightblue" d="M1200.65,-290.362C1201.81,-282.922 1203.38,-272.743 1204.78,-263.728"/>
<polygon fill="midnightblue" stroke="midnightblue" points="1208.28,-263.989 1206.36,-253.571 1201.37,-262.916 1208.28,-263.989"/>
</g>
<!-- Node12&#45;&gt;Node4 -->
<g id="edge30" class="edge"><title>Node12&#45;&gt;Node4</title>
<path fill="none" stroke="midnightblue" d="M644.547,-290.354C663.673,-267.025 712.169,-210.566 762,-174 779.297,-161.307 800.504,-150.139 818.093,-141.877"/>
<polygon fill="midnightblue" stroke="midnightblue" points="819.809,-144.941 827.444,-137.595 816.895,-138.576 819.809,-144.941"/>
</g>
<!-- Node12&#45;&gt;Node5 -->
<g id="edge64" class="edge"><title>Node12&#45;&gt;Node5</title>
<path fill="none" stroke="midnightblue" d="M651.944,-290.494C687.781,-267.202 777.919,-210.417 859,-174 957.083,-129.947 1079.54,-93.6515 1136.75,-77.7137"/>
<polygon fill="midnightblue" stroke="midnightblue" points="1137.94,-81.0144 1146.65,-74.9774 1136.08,-74.2673 1137.94,-81.0144"/>
</g>
<!-- Node12&#45;&gt;Node6 -->
<g id="edge60" class="edge"><title>Node12&#45;&gt;Node6</title>
<path fill="none" stroke="midnightblue" d="M604.134,-290.368C549.428,-271.353 441.7,-230.297 423,-196 405.98,-164.783 399.264,-142.472 423,-116 449.121,-86.8688 717.689,-74.0196 816.648,-70.2488"/>
<polygon fill="midnightblue" stroke="midnightblue" points="816.906,-73.7417 826.769,-69.8724 816.646,-66.7465 816.906,-73.7417"/>
</g>
<!-- Node12&#45;&gt;Node7 -->
<g id="edge32" class="edge"><title>Node12&#45;&gt;Node7</title>
<path fill="none" stroke="midnightblue" d="M671.313,-290.497C703.379,-280.959 750.845,-266.841 785.696,-256.475"/>
<polygon fill="midnightblue" stroke="midnightblue" points="787.034,-259.729 795.621,-253.523 785.038,-253.019 787.034,-259.729"/>
</g>
<!-- Node13 -->
<g id="node30" class="node"><title>Node13</title>
<a xlink:href="_detector__t_8h.html" target="_top" xlink:title="base/Detector_t.h">
<polygon fill="white" stroke="black" points="431.5,-174.5 431.5,-195.5 526.5,-195.5 526.5,-174.5 431.5,-174.5"/>
<text text-anchor="middle" x="479" y="-182.5" font-family="Helvetica,sans-Serif" font-size="10.00">base/Detector_t.h</text>
</a>
</g>
<!-- Node12&#45;&gt;Node13 -->
<g id="edge34" class="edge"><title>Node12&#45;&gt;Node13</title>
<path fill="none" stroke="midnightblue" d="M605.89,-290.362C585.511,-282.286 558.646,-269.868 538,-254 519.579,-239.842 502.81,-219.112 491.898,-204.072"/>
<polygon fill="midnightblue" stroke="midnightblue" points="494.518,-201.713 485.899,-195.552 488.795,-205.743 494.518,-201.713"/>
</g>
<!-- Node18 -->
<g id="node43" class="node"><title>Node18</title>
<a xlink:href="_cluster_8h.html" target="_top" xlink:title="analysis/data/Cluster.h">
<polygon fill="white" stroke="black" points="546.5,-232.5 546.5,-253.5 663.5,-253.5 663.5,-232.5 546.5,-232.5"/>
<text text-anchor="middle" x="605" y="-240.5" font-family="Helvetica,sans-Serif" font-size="10.00">analysis/data/Cluster.h</text>
</a>
</g>
<!-- Node12&#45;&gt;Node18 -->
<g id="edge50" class="edge"><title>Node12&#45;&gt;Node18</title>
<path fill="none" stroke="midnightblue" d="M630.314,-290.362C626.163,-282.595 620.416,-271.843 615.447,-262.546"/>
<polygon fill="midnightblue" stroke="midnightblue" points="618.45,-260.74 610.65,-253.571 612.277,-264.04 618.45,-260.74"/>
</g>
<!-- Node12&#45;&gt;Node21 -->
<g id="edge62" class="edge"><title>Node12&#45;&gt;Node21</title>
<path fill="none" stroke="midnightblue" d="M598.152,-290.497C559.766,-279.844 500.787,-263.477 463.057,-253.006"/>
<polygon fill="midnightblue" stroke="midnightblue" points="463.585,-249.521 453.014,-250.219 461.714,-256.266 463.585,-249.521"/>
</g>
<!-- Node13&#45;&gt;Node4 -->
<g id="edge36" class="edge"><title>Node13&#45;&gt;Node4</title>
<path fill="none" stroke="midnightblue" d="M526.587,-176.223C531.116,-175.446 535.643,-174.693 540,-174 652.482,-156.109 683.94,-158.008 799.929,-138.094"/>
<polygon fill="midnightblue" stroke="midnightblue" points="800.661,-141.519 809.916,-136.361 799.465,-134.622 800.661,-141.519"/>
</g>
<!-- Node13&#45;&gt;Node5 -->
<g id="edge48" class="edge"><title>Node13&#45;&gt;Node5</title>
<path fill="none" stroke="midnightblue" d="M526.561,-175.02C575.71,-164.464 648.951,-147.983 676,-138 696.139,-130.567 698.42,-122.107 719,-116 797.604,-92.6731 1047.26,-76.136 1136.72,-70.8274"/>
<polygon fill="midnightblue" stroke="midnightblue" points="1137.03,-74.3151 1146.81,-70.236 1136.62,-67.3271 1137.03,-74.3151"/>
</g>
<!-- Node13&#45;&gt;Node9 -->
<g id="edge44" class="edge"><title>Node13&#45;&gt;Node9</title>
<path fill="none" stroke="midnightblue" d="M525.054,-174.491C570.73,-163.647 635.041,-147.073 643,-138 668.843,-108.54 668.154,-59.6591 665.185,-31.9175"/>
<polygon fill="midnightblue" stroke="midnightblue" points="668.627,-31.2385 663.891,-21.7609 661.683,-32.1231 668.627,-31.2385"/>
</g>
<!-- Node14 -->
<g id="node33" class="node"><title>Node14</title>
<polygon fill="white" stroke="#bfbfbf" points="727.5,-116.5 727.5,-137.5 792.5,-137.5 792.5,-116.5 727.5,-116.5"/>
<text text-anchor="middle" x="760" y="-124.5" font-family="Helvetica,sans-Serif" font-size="10.00">TVector3.h</text>
</g>
<!-- Node13&#45;&gt;Node14 -->
<g id="edge38" class="edge"><title>Node13&#45;&gt;Node14</title>
<path fill="none" stroke="midnightblue" d="M526.818,-175.979C574.38,-166.878 649.384,-152.182 714,-138 715.083,-137.762 716.179,-137.519 717.285,-137.272"/>
<polygon fill="midnightblue" stroke="midnightblue" points="718.4,-140.607 727.366,-134.963 716.837,-133.784 718.4,-140.607"/>
</g>
<!-- Node15 -->
<g id="node35" class="node"><title>Node15</title>
<polygon fill="white" stroke="#bfbfbf" points="512,-116.5 512,-137.5 558,-137.5 558,-116.5 512,-116.5"/>
<text text-anchor="middle" x="535" y="-124.5" font-family="Helvetica,sans-Serif" font-size="10.00">cstdint</text>
</g>
<!-- Node13&#45;&gt;Node15 -->
<g id="edge40" class="edge"><title>Node13&#45;&gt;Node15</title>
<path fill="none" stroke="midnightblue" d="M489.271,-174.362C497.244,-166.104 508.475,-154.472 517.811,-144.803"/>
<polygon fill="midnightblue" stroke="midnightblue" points="520.366,-147.196 524.794,-137.571 515.33,-142.334 520.366,-147.196"/>
</g>
<!-- Node16 -->
<g id="node37" class="node"><title>Node16</title>
<polygon fill="white" stroke="#bfbfbf" points="575.5,-116.5 575.5,-137.5 634.5,-137.5 634.5,-116.5 575.5,-116.5"/>
<text text-anchor="middle" x="605" y="-124.5" font-family="Helvetica,sans-Serif" font-size="10.00">stdexcept</text>
</g>
<!-- Node13&#45;&gt;Node16 -->
<g id="edge42" class="edge"><title>Node13&#45;&gt;Node16</title>
<path fill="none" stroke="midnightblue" d="M501.818,-174.497C521.586,-165.397 550.413,-152.127 572.576,-141.925"/>
<polygon fill="midnightblue" stroke="midnightblue" points="574.306,-144.982 581.926,-137.621 571.379,-138.623 574.306,-144.982"/>
</g>
<!-- Node17 -->
<g id="node40" class="node"><title>Node17</title>
<polygon fill="white" stroke="#bfbfbf" points="432,-116.5 432,-137.5 494,-137.5 494,-116.5 432,-116.5"/>
<text text-anchor="middle" x="463" y="-124.5" font-family="Helvetica,sans-Serif" font-size="10.00">type_traits</text>
</g>
<!-- Node13&#45;&gt;Node17 -->
<g id="edge46" class="edge"><title>Node13&#45;&gt;Node17</title>
<path fill="none" stroke="midnightblue" d="M476.065,-174.362C473.99,-166.84 471.143,-156.519 468.636,-147.431"/>
<polygon fill="midnightblue" stroke="midnightblue" points="471.949,-146.28 465.916,-137.571 465.201,-148.141 471.949,-146.28"/>
</g>
<!-- Node18&#45;&gt;Node13 -->
<g id="edge52" class="edge"><title>Node18&#45;&gt;Node13</title>
<path fill="none" stroke="midnightblue" d="M582.182,-232.497C562.414,-223.397 533.587,-210.127 511.424,-199.925"/>
<polygon fill="midnightblue" stroke="midnightblue" points="512.621,-196.623 502.074,-195.621 509.694,-202.982 512.621,-196.623"/>
</g>
<!-- Node18&#45;&gt;Node14 -->
<g id="edge56" class="edge"><title>Node18&#45;&gt;Node14</title>
<path fill="none" stroke="midnightblue" d="M602.602,-232.337C599.939,-217.533 597.609,-190.697 611,-174 617.879,-165.423 675.809,-148.859 717.367,-137.864"/>
<polygon fill="midnightblue" stroke="midnightblue" points="718.49,-141.188 727.275,-135.265 716.714,-134.417 718.49,-141.188"/>
</g>
<!-- Node18&#45;&gt;Node19 -->
<g id="edge54" class="edge"><title>Node18&#45;&gt;Node19</title>
<path fill="none" stroke="midnightblue" d="M655.163,-232.497C714.917,-219.985 812.323,-199.589 857.525,-190.125"/>
<polygon fill="midnightblue" stroke="midnightblue" points="858.274,-193.544 867.344,-188.069 856.839,-186.693 858.274,-193.544"/>
</g>
<!-- Node20 -->
<g id="node49" class="node"><title>Node20</title>
<a xlink:href="enumfield_8h.html" target="_top" xlink:title="base/enumfield.h">
<polygon fill="white" stroke="black" points="619.5,-174.5 619.5,-195.5 710.5,-195.5 710.5,-174.5 619.5,-174.5"/>
<text text-anchor="middle" x="665" y="-182.5" font-family="Helvetica,sans-Serif" font-size="10.00">base/enumfield.h</text>
</a>
</g>
<!-- Node18&#45;&gt;Node20 -->
<g id="edge58" class="edge"><title>Node18&#45;&gt;Node20</title>
<path fill="none" stroke="midnightblue" d="M616.005,-232.362C624.547,-224.104 636.58,-212.472 646.583,-202.803"/>
<polygon fill="midnightblue" stroke="midnightblue" points="649.308,-205.037 654.065,-195.571 644.442,-200.004 649.308,-205.037"/>
</g>
<!-- Node24&#45;&gt;Node4 -->
<g id="edge84" class="edge"><title>Node24&#45;&gt;Node4</title>
<path fill="none" stroke="midnightblue" d="M915.053,-290.378C918.903,-267.572 925.121,-212.84 905,-174 898.79,-162.013 888.197,-151.589 878.186,-143.624"/>
<polygon fill="midnightblue" stroke="midnightblue" points="880.13,-140.708 870.023,-137.532 875.944,-146.318 880.13,-140.708"/>
</g>
<!-- Node24&#45;&gt;Node7 -->
<g id="edge82" class="edge"><title>Node24&#45;&gt;Node7</title>
<path fill="none" stroke="midnightblue" d="M897.96,-290.362C885.707,-281.696 868.201,-269.313 854.161,-259.382"/>
<polygon fill="midnightblue" stroke="midnightblue" points="856.13,-256.488 845.945,-253.571 852.088,-262.203 856.13,-256.488"/>
</g>
<!-- Node24&#45;&gt;Node19 -->
<g id="edge78" class="edge"><title>Node24&#45;&gt;Node19</title>
<path fill="none" stroke="midnightblue" d="M910.139,-290.295C904.995,-271.045 894.103,-230.289 887.481,-205.509"/>
<polygon fill="midnightblue" stroke="midnightblue" points="890.817,-204.437 884.854,-195.679 884.054,-206.244 890.817,-204.437"/>
</g>
<!-- Node24&#45;&gt;Node21 -->
<g id="edge80" class="edge"><title>Node24&#45;&gt;Node21</title>
<path fill="none" stroke="midnightblue" d="M878.825,-296.922C790.288,-286.355 554.055,-258.163 463.253,-247.327"/>
<polygon fill="midnightblue" stroke="midnightblue" points="463.514,-243.833 453.17,-246.123 462.685,-250.784 463.514,-243.833"/>
</g>
<!-- Node24&#45;&gt;Node22 -->
<g id="edge86" class="edge"><title>Node24&#45;&gt;Node22</title>
<path fill="none" stroke="midnightblue" d="M930.241,-290.362C944.552,-281.532 965.115,-268.844 981.357,-258.822"/>
<polygon fill="midnightblue" stroke="midnightblue" points="983.196,-261.8 989.868,-253.571 979.52,-255.843 983.196,-261.8"/>
</g>
<!-- Node25&#45;&gt;Node4 -->
<g id="edge92" class="edge"><title>Node25&#45;&gt;Node4</title>
<path fill="none" stroke="midnightblue" d="M391.612,-290.016C381.487,-275.321 367.41,-249.133 381,-232 424.681,-176.931 466.996,-213.778 535,-196 569.021,-187.106 576.798,-182.171 611,-174 691.574,-154.75 715.05,-154.859 800.058,-138.147"/>
<polygon fill="midnightblue" stroke="midnightblue" points="800.758,-141.576 809.884,-136.194 799.394,-134.71 800.758,-141.576"/>
</g>
<!-- Node25&#45;&gt;Node7 -->
<g id="edge90" class="edge"><title>Node25&#45;&gt;Node7</title>
<path fill="none" stroke="midnightblue" d="M435.637,-296.204C513.256,-285.759 697.571,-260.956 784.326,-249.281"/>
<polygon fill="midnightblue" stroke="midnightblue" points="784.964,-252.727 794.408,-247.924 784.031,-245.789 784.964,-252.727"/>
</g>
<!-- Node25&#45;&gt;Node19 -->
<g id="edge134" class="edge"><title>Node25&#45;&gt;Node19</title>
<path fill="none" stroke="midnightblue" d="M394.324,-290.364C387.178,-275.345 377.483,-247.976 392,-232 399.929,-223.274 758.509,-194.651 857.128,-186.932"/>
<polygon fill="midnightblue" stroke="midnightblue" points="857.64,-190.403 867.337,-186.135 857.095,-183.424 857.64,-190.403"/>
</g>
<!-- Node25&#45;&gt;Node21 -->
<g id="edge136" class="edge"><title>Node25&#45;&gt;Node21</title>
<path fill="none" stroke="midnightblue" d="M404.952,-290.362C408.53,-282.677 413.468,-272.069 417.764,-262.84"/>
<polygon fill="midnightblue" stroke="midnightblue" points="421.032,-264.114 422.079,-253.571 414.686,-261.159 421.032,-264.114"/>
</g>
<!-- Node26 -->
<g id="node73" class="node"><title>Node26</title>
<a xlink:href="_t_data_record_8h.html" target="_top" xlink:title="tree/TDataRecord.h">
<polygon fill="white" stroke="black" points="204.5,-232.5 204.5,-253.5 307.5,-253.5 307.5,-232.5 204.5,-232.5"/>
<text text-anchor="middle" x="256" y="-240.5" font-family="Helvetica,sans-Serif" font-size="10.00">tree/TDataRecord.h</text>
</a>
</g>
<!-- Node25&#45;&gt;Node26 -->
<g id="edge94" class="edge"><title>Node25&#45;&gt;Node26</title>
<path fill="none" stroke="midnightblue" d="M373.923,-290.497C350.925,-281.234 317.2,-267.65 291.7,-257.379"/>
<polygon fill="midnightblue" stroke="midnightblue" points="292.953,-254.111 282.37,-253.621 290.338,-260.604 292.953,-254.111"/>
</g>
<!-- Node27 -->
<g id="node75" class="node"><title>Node27</title>
<a xlink:href="_t_i_d_8h.html" target="_top" xlink:title="TID.h">
<polygon fill="white" stroke="black" points="279.5,-174.5 279.5,-195.5 320.5,-195.5 320.5,-174.5 279.5,-174.5"/>
<text text-anchor="middle" x="300" y="-182.5" font-family="Helvetica,sans-Serif" font-size="10.00">TID.h</text>
</a>
</g>
<!-- Node26&#45;&gt;Node27 -->
<g id="edge96" class="edge"><title>Node26&#45;&gt;Node27</title>
<path fill="none" stroke="midnightblue" d="M264.07,-232.362C270.149,-224.35 278.637,-213.161 285.837,-203.67"/>
<polygon fill="midnightblue" stroke="midnightblue" points="288.725,-205.653 291.981,-195.571 283.149,-201.422 288.725,-205.653"/>
</g>
<!-- Node28 -->
<g id="node77" class="node"><title>Node28</title>
<polygon fill="white" stroke="#bfbfbf" points="68,-116.5 68,-137.5 124,-137.5 124,-116.5 68,-116.5"/>
<text text-anchor="middle" x="96" y="-124.5" font-family="Helvetica,sans-Serif" font-size="10.00">Rtypes.h</text>
</g>
<!-- Node26&#45;&gt;Node28 -->
<g id="edge128" class="edge"><title>Node26&#45;&gt;Node28</title>
<path fill="none" stroke="midnightblue" d="M241.234,-232.295C213.254,-212.009 152.331,-167.84 118.97,-143.653"/>
<polygon fill="midnightblue" stroke="midnightblue" points="120.88,-140.715 110.73,-137.679 116.772,-146.383 120.88,-140.715"/>
</g>
<!-- Node34 -->
<g id="node91" class="node"><title>Node34</title>
<polygon fill="white" stroke="#bfbfbf" points="318.5,-58.5 318.5,-79.5 359.5,-79.5 359.5,-58.5 318.5,-58.5"/>
<text text-anchor="middle" x="339" y="-66.5" font-family="Helvetica,sans-Serif" font-size="10.00">ctime</text>
</g>
<!-- Node26&#45;&gt;Node34 -->
<g id="edge132" class="edge"><title>Node26&#45;&gt;Node34</title>
<path fill="none" stroke="midnightblue" d="M283.927,-232.422C299.931,-224.823 318.808,-212.912 329,-196 348.779,-163.182 346.367,-116.617 342.741,-89.9433"/>
<polygon fill="midnightblue" stroke="midnightblue" points="346.163,-89.1736 341.174,-79.8273 339.246,-90.2453 346.163,-89.1736"/>
</g>
<!-- Node36 -->
<g id="node98" class="node"><title>Node36</title>
<polygon fill="white" stroke="#bfbfbf" points="0,-116.5 0,-137.5 50,-137.5 50,-116.5 0,-116.5"/>
<text text-anchor="middle" x="25" y="-124.5" font-family="Helvetica,sans-Serif" font-size="10.00">iomanip</text>
</g>
<!-- Node26&#45;&gt;Node36 -->
<g id="edge130" class="edge"><title>Node26&#45;&gt;Node36</title>
<path fill="none" stroke="midnightblue" d="M233.326,-232.373C213.4,-222.975 183.663,-208.807 158,-196 121.98,-178.025 80.9069,-156.567 54.0524,-142.406"/>
<polygon fill="midnightblue" stroke="midnightblue" points="55.6553,-139.295 45.1783,-137.719 52.3861,-145.484 55.6553,-139.295"/>
</g>
<!-- Node27&#45;&gt;Node4 -->
<g id="edge100" class="edge"><title>Node27&#45;&gt;Node4</title>
<path fill="none" stroke="midnightblue" d="M320.699,-183.125C406.473,-175.349 732.33,-145.723 799.996,-137.791"/>
<polygon fill="midnightblue" stroke="midnightblue" points="800.47,-141.259 809.939,-136.507 799.573,-134.317 800.47,-141.259"/>
</g>
<!-- Node27&#45;&gt;Node15 -->
<g id="edge120" class="edge"><title>Node27&#45;&gt;Node15</title>
<path fill="none" stroke="midnightblue" d="M320.638,-180.959C355.947,-173.89 430.345,-158.315 502.034,-138.085"/>
<polygon fill="midnightblue" stroke="midnightblue" points="503.016,-141.444 511.67,-135.332 501.093,-134.714 503.016,-141.444"/>
</g>
<!-- Node27&#45;&gt;Node16 -->
<g id="edge122" class="edge"><title>Node27&#45;&gt;Node16</title>
<path fill="none" stroke="midnightblue" d="M320.585,-182.148C364.094,-175.957 468.731,-160.211 565.292,-138.238"/>
<polygon fill="midnightblue" stroke="midnightblue" points="566.25,-141.609 575.209,-135.952 564.678,-134.787 566.25,-141.609"/>
</g>
<!-- Node27&#45;&gt;Node17 -->
<g id="edge116" class="edge"><title>Node27&#45;&gt;Node17</title>
<path fill="none" stroke="midnightblue" d="M320.644,-177.654C346.496,-168.455 391.329,-152.502 423.786,-140.953"/>
<polygon fill="midnightblue" stroke="midnightblue" points="425.179,-144.173 433.427,-137.523 422.833,-137.578 425.179,-144.173"/>
</g>
<!-- Node27&#45;&gt;Node28 -->
<g id="edge98" class="edge"><title>Node27&#45;&gt;Node28</title>
<path fill="none" stroke="midnightblue" d="M279.405,-179.308C249.514,-171.025 192.131,-155.04 133.983,-138.259"/>
<polygon fill="midnightblue" stroke="midnightblue" points="134.848,-134.866 124.269,-135.451 132.904,-141.591 134.848,-134.866"/>
</g>
<!-- Node29 -->
<g id="node80" class="node"><title>Node29</title>
<a xlink:href="time_8h.html" target="_top" xlink:title="base/std_ext/time.h">
<polygon fill="white" stroke="black" points="141.5,-116.5 141.5,-137.5 244.5,-137.5 244.5,-116.5 141.5,-116.5"/>
<text text-anchor="middle" x="193" y="-124.5" font-family="Helvetica,sans-Serif" font-size="10.00">base/std_ext/time.h</text>
</a>
</g>
<!-- Node27&#45;&gt;Node29 -->
<g id="edge102" class="edge"><title>Node27&#45;&gt;Node29</title>
<path fill="none" stroke="midnightblue" d="M280.375,-174.362C263.859,-165.409 240.026,-152.491 221.422,-142.406"/>
<polygon fill="midnightblue" stroke="midnightblue" points="222.96,-139.259 212.501,-137.571 219.625,-145.413 222.96,-139.259"/>
</g>
<!-- Node27&#45;&gt;Node34 -->
<g id="edge126" class="edge"><title>Node27&#45;&gt;Node34</title>
<path fill="none" stroke="midnightblue" d="M303.599,-174.295C310.1,-154.959 323.897,-113.923 332.216,-89.1767"/>
<polygon fill="midnightblue" stroke="midnightblue" points="335.54,-90.2732 335.41,-79.6792 328.905,-88.0424 335.54,-90.2732"/>
</g>
<!-- Node35 -->
<g id="node94" class="node"><title>Node35</title>
<polygon fill="white" stroke="#bfbfbf" points="262,-116.5 262,-137.5 300,-137.5 300,-116.5 262,-116.5"/>
<text text-anchor="middle" x="281" y="-124.5" font-family="Helvetica,sans-Serif" font-size="10.00">tuple</text>
</g>
<!-- Node27&#45;&gt;Node35 -->
<g id="edge118" class="edge"><title>Node27&#45;&gt;Node35</title>
<path fill="none" stroke="midnightblue" d="M296.515,-174.362C294.024,-166.758 290.596,-156.294 287.596,-147.135"/>
<polygon fill="midnightblue" stroke="midnightblue" points="290.902,-145.984 284.463,-137.571 284.25,-148.163 290.902,-145.984"/>
</g>
<!-- Node27&#45;&gt;Node36 -->
<g id="edge124" class="edge"><title>Node27&#45;&gt;Node36</title>
<path fill="none" stroke="midnightblue" d="M279.18,-181.807C238.705,-175.416 146.472,-159.959 59.8653,-138.006"/>
<polygon fill="midnightblue" stroke="midnightblue" points="60.7085,-134.609 50.152,-135.51 58.9662,-141.389 60.7085,-134.609"/>
</g>
<!-- Node30 -->
<g id="node82" class="node"><title>Node30</title>
<a xlink:href="string_8h.html" target="_top" xlink:title="base/std_ext/string.h">
<polygon fill="white" stroke="black" points="129,-58.5 129,-79.5 237,-79.5 237,-58.5 129,-58.5"/>
<text text-anchor="middle" x="183" y="-66.5" font-family="Helvetica,sans-Serif" font-size="10.00">base/std_ext/string.h</text>
</a>
</g>
<!-- Node29&#45;&gt;Node30 -->
<g id="edge104" class="edge"><title>Node29&#45;&gt;Node30</title>
<path fill="none" stroke="midnightblue" d="M191.166,-116.362C189.869,-108.84 188.089,-98.5187 186.523,-89.4308"/>
<polygon fill="midnightblue" stroke="midnightblue" points="189.971,-88.8306 184.823,-79.5707 183.073,-90.02 189.971,-88.8306"/>
</g>
<!-- Node33 -->
<g id="node89" class="node"><title>Node33</title>
<polygon fill="white" stroke="#bfbfbf" points="255,-58.5 255,-79.5 301,-79.5 301,-58.5 255,-58.5"/>
<text text-anchor="middle" x="278" y="-66.5" font-family="Helvetica,sans-Serif" font-size="10.00">cstring</text>
</g>
<!-- Node29&#45;&gt;Node33 -->
<g id="edge112" class="edge"><title>Node29&#45;&gt;Node33</title>
<path fill="none" stroke="midnightblue" d="M208.59,-116.362C221.291,-107.696 239.438,-95.3126 253.992,-85.3819"/>
<polygon fill="midnightblue" stroke="midnightblue" points="256.221,-88.0982 262.509,-79.5707 252.276,-82.316 256.221,-88.0982"/>
</g>
<!-- Node29&#45;&gt;Node34 -->
<g id="edge114" class="edge"><title>Node29&#45;&gt;Node34</title>
<path fill="none" stroke="midnightblue" d="M219.439,-116.497C244.651,-106.481 282.579,-91.414 308.93,-80.9456"/>
<polygon fill="midnightblue" stroke="midnightblue" points="310.411,-84.1236 318.412,-77.1788 307.826,-77.6181 310.411,-84.1236"/>
</g>
<!-- Node30&#45;&gt;Node9 -->
<g id="edge106" class="edge"><title>Node30&#45;&gt;Node9</title>
<path fill="none" stroke="midnightblue" d="M237.263,-59.3114C240.216,-58.8511 243.143,-58.4105 246,-58 389.409,-37.3982 561.708,-20.3835 630.957,-13.8606"/>
<polygon fill="midnightblue" stroke="midnightblue" points="631.536,-17.3218 641.166,-12.9049 630.883,-10.3523 631.536,-17.3218"/>
</g>
<!-- Node31 -->
<g id="node85" class="node"><title>Node31</title>
<polygon fill="white" stroke="#bfbfbf" points="121,-0.5 121,-21.5 173,-21.5 173,-0.5 121,-0.5"/>
<text text-anchor="middle" x="147" y="-8.5" font-family="Helvetica,sans-Serif" font-size="10.00">sstream</text>
</g>
<!-- Node30&#45;&gt;Node31 -->
<g id="edge108" class="edge"><title>Node30&#45;&gt;Node31</title>
<path fill="none" stroke="midnightblue" d="M176.397,-58.3619C171.525,-50.5131 164.762,-39.6159 158.95,-30.2527"/>
<polygon fill="midnightblue" stroke="midnightblue" points="161.809,-28.2213 153.561,-21.5707 155.861,-31.9129 161.809,-28.2213"/>
</g>
<!-- Node32 -->
<g id="node87" class="node"><title>Node32</title>
<polygon fill="white" stroke="#bfbfbf" points="191,-0.5 191,-21.5 247,-21.5 247,-0.5 191,-0.5"/>
<text text-anchor="middle" x="219" y="-8.5" font-family="Helvetica,sans-Serif" font-size="10.00">algorithm</text>
</g>
<!-- Node30&#45;&gt;Node32 -->
<g id="edge110" class="edge"><title>Node30&#45;&gt;Node32</title>
<path fill="none" stroke="midnightblue" d="M189.603,-58.3619C194.475,-50.5131 201.238,-39.6159 207.05,-30.2527"/>
<polygon fill="midnightblue" stroke="midnightblue" points="210.139,-31.9129 212.439,-21.5707 204.191,-28.2213 210.139,-31.9129"/>
</g>
</g>
</svg>
