<?xml version="1.0" encoding="UTF-8" standalone="no"?>
<!DOCTYPE svg PUBLIC "-//W3C//DTD SVG 1.1//EN"
 "http://www.w3.org/Graphics/SVG/1.1/DTD/svg11.dtd">
<!-- Generated by graphviz version 2.26.3 (20100126.1600)
 -->
<!-- Title: src/calibration/fitfunctions/FitGausPol0.h Pages: 1 -->
<svg width="592pt" height="260pt"
 viewBox="0.00 0.00 592.00 260.00" xmlns="http://www.w3.org/2000/svg" xmlns:xlink="http://www.w3.org/1999/xlink">
<g id="graph1" class="graph" transform="scale(1 1) rotate(0) translate(4 256)">
<title>src/calibration/fitfunctions/FitGausPol0.h</title>
<polygon fill="white" stroke="white" points="-4,5 -4,-256 589,-256 589,5 -4,5"/>
<!-- Node1 -->
<g id="node1" class="node"><title>Node1</title>
<polygon fill="#bfbfbf" stroke="black" points="140,-217 140,-251 268,-251 268,-217 140,-217"/>
<text text-anchor="start" x="148" y="-238" font-family="Helvetica,sans-Serif" font-size="10.00">src/calibration/fitfunctions</text>
<text text-anchor="middle" x="204" y="-225" font-family="Helvetica,sans-Serif" font-size="10.00">/FitGausPol0.h</text>
</g>
<!-- Node2 -->
<g id="node3" class="node"><title>Node2</title>
<a xlink:href="_fit_gaus_pol0_8cc.html" target="_top" xlink:title="src/calibration/fitfunctions\l/FitGausPol0.cc">
<polygon fill="white" stroke="black" points="0,-145 0,-179 128,-179 128,-145 0,-145"/>
<text text-anchor="start" x="8" y="-166" font-family="Helvetica,sans-Serif" font-size="10.00">src/calibration/fitfunctions</text>
<text text-anchor="middle" x="64" y="-153" font-family="Helvetica,sans-Serif" font-size="10.00">/FitGausPol0.cc</text>
</a>
</g>
<!-- Node1&#45;&gt;Node2 -->
<g id="edge2" class="edge"><title>Node1&#45;&gt;Node2</title>
<path fill="none" stroke="midnightblue" d="M161.662,-212.226C141.075,-201.638 116.682,-189.094 97.4251,-179.19"/>
<polygon fill="midnightblue" stroke="midnightblue" points="160.328,-215.476 170.822,-216.937 163.53,-209.251 160.328,-215.476"/>
</g>
<!-- Node3 -->
<g id="node5" class="node"><title>Node3</title>
<a xlink:href="_p_i_d___energy_8cc.html" target="_top" xlink:title="src/calibration/modules\l/PID_Energy.cc">
<polygon fill="white" stroke="black" points="145.5,-145 145.5,-179 262.5,-179 262.5,-145 145.5,-145"/>
<text text-anchor="start" x="153.5" y="-166" font-family="Helvetica,sans-Serif" font-size="10.00">src/calibration/modules</text>
<text text-anchor="middle" x="204" y="-153" font-family="Helvetica,sans-Serif" font-size="10.00">/PID_Energy.cc</text>
</a>
</g>
<!-- Node1&#45;&gt;Node3 -->
<g id="edge4" class="edge"><title>Node1&#45;&gt;Node3</title>
<path fill="none" stroke="midnightblue" d="M204,-206.719C204,-197.572 204,-187.625 204,-179.441"/>
<polygon fill="midnightblue" stroke="midnightblue" points="200.5,-206.937 204,-216.937 207.5,-206.937 200.5,-206.937"/>
</g>
<!-- Node4 -->
<g id="node7" class="node"><title>Node4</title>
<a xlink:href="_setup_8h.html" target="_top" xlink:title="src/expconfig/setups\l/Setup.h">
<polygon fill="white" stroke="black" points="279.5,-145 279.5,-179 386.5,-179 386.5,-145 279.5,-145"/>
<text text-anchor="start" x="287.5" y="-166" font-family="Helvetica,sans-Serif" font-size="10.00">src/expconfig/setups</text>
<text text-anchor="middle" x="333" y="-153" font-family="Helvetica,sans-Serif" font-size="10.00">/Setup.h</text>
</a>
</g>
<!-- Node1&#45;&gt;Node4 -->
<g id="edge6" class="edge"><title>Node1&#45;&gt;Node4</title>
<path fill="none" stroke="midnightblue" d="M243.525,-211.94C262.386,-201.413 284.617,-189.004 302.201,-179.19"/>
<polygon fill="midnightblue" stroke="midnightblue" points="241.597,-209.007 234.571,-216.937 245.009,-215.119 241.597,-209.007"/>
</g>
<!-- Node5 -->
<g id="node9" class="node"><title>Node5</title>
<a xlink:href="_exp_config_8cc.html" target="_top" xlink:title="src/expconfig/ExpConfig.cc">
<polygon fill="white" stroke="black" points="59.5,-79.5 59.5,-100.5 196.5,-100.5 196.5,-79.5 59.5,-79.5"/>
<text text-anchor="middle" x="128" y="-87.5" font-family="Helvetica,sans-Serif" font-size="10.00">src/expconfig/ExpConfig.cc</text>
</a>
</g>
<!-- Node4&#45;&gt;Node5 -->
<g id="edge8" class="edge"><title>Node4&#45;&gt;Node5</title>
<path fill="none" stroke="midnightblue" d="M274.98,-141.622C236.933,-128.259 188.741,-111.333 158.13,-100.582"/>
<polygon fill="midnightblue" stroke="midnightblue" points="273.823,-144.925 284.418,-144.937 276.143,-138.321 273.823,-144.925"/>
</g>
<!-- Node6 -->
<g id="node11" class="node"><title>Node6</title>
<a xlink:href="_setup__2014___e_p_t_8h.html" target="_top" xlink:title="src/expconfig/setups\l/Setup_2014_EPT.h">
<polygon fill="white" stroke="black" points="213.5,-73 213.5,-107 320.5,-107 320.5,-73 213.5,-73"/>
<text text-anchor="start" x="221.5" y="-94" font-family="Helvetica,sans-Serif" font-size="10.00">src/expconfig/setups</text>
<text text-anchor="middle" x="267" y="-81" font-family="Helvetica,sans-Serif" font-size="10.00">/Setup_2014_EPT.h</text>
</a>
</g>
<!-- Node4&#45;&gt;Node6 -->
<g id="edge10" class="edge"><title>Node4&#45;&gt;Node6</title>
<path fill="none" stroke="midnightblue" d="M310.43,-137.379C301.407,-127.535 291.224,-116.426 282.987,-107.441"/>
<polygon fill="midnightblue" stroke="midnightblue" points="308.022,-139.93 317.359,-144.937 313.182,-135.2 308.022,-139.93"/>
</g>
<!-- Node10 -->
<g id="node19" class="node"><title>Node10</title>
<a xlink:href="_setup__2015__dummy_8cc.html" target="_top" xlink:title="src/expconfig/setups\l/Setup_2015_dummy.cc">
<polygon fill="white" stroke="black" points="338,-73 338,-107 460,-107 460,-73 338,-73"/>
<text text-anchor="start" x="346" y="-94" font-family="Helvetica,sans-Serif" font-size="10.00">src/expconfig/setups</text>
<text text-anchor="middle" x="399" y="-81" font-family="Helvetica,sans-Serif" font-size="10.00">/Setup_2015_dummy.cc</text>
</a>
</g>
<!-- Node4&#45;&gt;Node10 -->
<g id="edge18" class="edge"><title>Node4&#45;&gt;Node10</title>
<path fill="none" stroke="midnightblue" d="M355.57,-137.379C364.593,-127.535 374.776,-116.426 383.013,-107.441"/>
<polygon fill="midnightblue" stroke="midnightblue" points="352.818,-135.2 348.641,-144.937 357.978,-139.93 352.818,-135.2"/>
</g>
<!-- Node11 -->
<g id="node21" class="node"><title>Node11</title>
<a xlink:href="_setup_registry_8cc.html" target="_top" xlink:title="src/expconfig/setups\l/SetupRegistry.cc">
<polygon fill="white" stroke="black" points="477.5,-73 477.5,-107 584.5,-107 584.5,-73 477.5,-73"/>
<text text-anchor="start" x="485.5" y="-94" font-family="Helvetica,sans-Serif" font-size="10.00">src/expconfig/setups</text>
<text text-anchor="middle" x="531" y="-81" font-family="Helvetica,sans-Serif" font-size="10.00">/SetupRegistry.cc</text>
</a>
</g>
<!-- Node4&#45;&gt;Node11 -->
<g id="edge20" class="edge"><title>Node4&#45;&gt;Node11</title>
<path fill="none" stroke="midnightblue" d="M389.399,-141.491C419.335,-130.606 455.692,-117.385 484.071,-107.065"/>
<polygon fill="midnightblue" stroke="midnightblue" points="388.125,-138.23 379.923,-144.937 390.517,-144.809 388.125,-138.23"/>
</g>
<!-- Node7 -->
<g id="node13" class="node"><title>Node7</title>
<a xlink:href="_setup__2014__07___e_p_t___prod_8cc.html" target="_top" xlink:title="src/expconfig/setups\l/Setup_2014_07_EPT_Prod.cc">
<polygon fill="white" stroke="black" points="23.5,-1 23.5,-35 174.5,-35 174.5,-1 23.5,-1"/>
<text text-anchor="start" x="31.5" y="-22" font-family="Helvetica,sans-Serif" font-size="10.00">src/expconfig/setups</text>
<text text-anchor="middle" x="99" y="-9" font-family="Helvetica,sans-Serif" font-size="10.00">/Setup_2014_07_EPT_Prod.cc</text>
</a>
</g>
<!-- Node6&#45;&gt;Node7 -->
<g id="edge12" class="edge"><title>Node6&#45;&gt;Node7</title>
<path fill="none" stroke="midnightblue" d="M217.822,-68.9238C192.68,-58.1485 162.48,-45.2059 138.819,-35.0651"/>
<polygon fill="midnightblue" stroke="midnightblue" points="216.616,-72.2148 227.186,-72.937 219.374,-65.7807 216.616,-72.2148"/>
</g>
<!-- Node8 -->
<g id="node15" class="node"><title>Node8</title>
<a xlink:href="_setup__2014__10___e_p_t___prod_8cc.html" target="_top" xlink:title="src/expconfig/setups\l/Setup_2014_10_EPT_Prod.cc">
<polygon fill="white" stroke="black" points="191.5,-1 191.5,-35 342.5,-35 342.5,-1 191.5,-1"/>
<text text-anchor="start" x="199.5" y="-22" font-family="Helvetica,sans-Serif" font-size="10.00">src/expconfig/setups</text>
<text text-anchor="middle" x="267" y="-9" font-family="Helvetica,sans-Serif" font-size="10.00">/Setup_2014_10_EPT_Prod.cc</text>
</a>
</g>
<!-- Node6&#45;&gt;Node8 -->
<g id="edge14" class="edge"><title>Node6&#45;&gt;Node8</title>
<path fill="none" stroke="midnightblue" d="M267,-62.7193C267,-53.572 267,-43.6255 267,-35.4407"/>
<polygon fill="midnightblue" stroke="midnightblue" points="263.5,-62.937 267,-72.937 270.5,-62.937 263.5,-62.937"/>
</g>
<!-- Node9 -->
<g id="node17" class="node"><title>Node9</title>
<a xlink:href="_setup__2014__12___e_p_t___prod_8cc.html" target="_top" xlink:title="src/expconfig/setups\l/Setup_2014_12_EPT_Prod.cc">
<polygon fill="white" stroke="black" points="359.5,-1 359.5,-35 510.5,-35 510.5,-1 359.5,-1"/>
<text text-anchor="start" x="367.5" y="-22" font-family="Helvetica,sans-Serif" font-size="10.00">src/expconfig/setups</text>
<text text-anchor="middle" x="435" y="-9" font-family="Helvetica,sans-Serif" font-size="10.00">/Setup_2014_12_EPT_Prod.cc</text>
</a>
</g>
<!-- Node6&#45;&gt;Node9 -->
<g id="edge16" class="edge"><title>Node6&#45;&gt;Node9</title>
<path fill="none" stroke="midnightblue" d="M316.178,-68.9238C341.32,-58.1485 371.52,-45.2059 395.181,-35.0651"/>
<polygon fill="midnightblue" stroke="midnightblue" points="314.626,-65.7807 306.814,-72.937 317.384,-72.2148 314.626,-65.7807"/>
</g>
</g>
</svg>
