<?xml version="1.0" encoding="UTF-8" standalone="no"?>
<!DOCTYPE svg PUBLIC "-//W3C//DTD SVG 1.1//EN"
 "http://www.w3.org/Graphics/SVG/1.1/DTD/svg11.dtd">
<!-- Generated by graphviz version 2.26.3 (20100126.1600)
 -->
<!-- Title: src/calibration/fitfunctions/FitFunction.cc Pages: 1 -->
<svg width="871pt" height="290pt"
 viewBox="0.00 0.00 871.15 290.00" xmlns="http://www.w3.org/2000/svg" xmlns:xlink="http://www.w3.org/1999/xlink">
<g id="graph1" class="graph" transform="scale(1 1) rotate(0) translate(4 286)">
<title>src/calibration/fitfunctions/FitFunction.cc</title>
<polygon fill="white" stroke="white" points="-4,5 -4,-286 868.15,-286 868.15,5 -4,5"/>
<!-- Node1 -->
<g id="node1" class="node"><title>Node1</title>
<polygon fill="#bfbfbf" stroke="black" points="536.15,-247 536.15,-281 664.15,-281 664.15,-247 536.15,-247"/>
<text text-anchor="start" x="544.15" y="-268" font-family="Helvetica,sans-Serif" font-size="10.00">src/calibration/fitfunctions</text>
<text text-anchor="middle" x="600.15" y="-255" font-family="Helvetica,sans-Serif" font-size="10.00">/FitFunction.cc</text>
</g>
<!-- Node2 -->
<g id="node3" class="node"><title>Node2</title>
<a xlink:href="_fit_function_8h.html" target="_top" xlink:title="FitFunction.h">
<polygon fill="white" stroke="black" points="198.15,-188.5 198.15,-209.5 272.15,-209.5 272.15,-188.5 198.15,-188.5"/>
<text text-anchor="middle" x="235.15" y="-196.5" font-family="Helvetica,sans-Serif" font-size="10.00">FitFunction.h</text>
</a>
</g>
<!-- Node1&#45;&gt;Node2 -->
<g id="edge2" class="edge"><title>Node1&#45;&gt;Node2</title>
<path fill="none" stroke="midnightblue" d="M535.736,-252.529C463.081,-239.59 346.668,-218.859 282.109,-207.362"/>
<polygon fill="midnightblue" stroke="midnightblue" points="282.666,-203.907 272.207,-205.599 281.439,-210.798 282.666,-203.907"/>
</g>
<!-- Node7 -->
<g id="node14" class="node"><title>Node7</title>
<a xlink:href="interval_8h.html" target="_top" xlink:title="base/interval.h">
<polygon fill="white" stroke="black" points="419.15,-130.5 419.15,-151.5 499.15,-151.5 499.15,-130.5 419.15,-130.5"/>
<text text-anchor="middle" x="459.15" y="-138.5" font-family="Helvetica,sans-Serif" font-size="10.00">base/interval.h</text>
</a>
</g>
<!-- Node1&#45;&gt;Node7 -->
<g id="edge46" class="edge"><title>Node1&#45;&gt;Node7</title>
<path fill="none" stroke="midnightblue" d="M566.444,-246.77C549.475,-237.212 529.163,-224.363 513.15,-210 496.645,-195.196 481.43,-174.883 471.386,-160.133"/>
<polygon fill="midnightblue" stroke="midnightblue" points="474.281,-158.164 465.836,-151.766 468.448,-162.034 474.281,-158.164"/>
</g>
<!-- Node8 -->
<g id="node16" class="node"><title>Node8</title>
<polygon fill="white" stroke="#bfbfbf" points="616.15,-65.5 616.15,-86.5 672.15,-86.5 672.15,-65.5 616.15,-65.5"/>
<text text-anchor="middle" x="644.15" y="-73.5" font-family="Helvetica,sans-Serif" font-size="10.00">algorithm</text>
</g>
<!-- Node1&#45;&gt;Node8 -->
<g id="edge56" class="edge"><title>Node1&#45;&gt;Node8</title>
<path fill="none" stroke="midnightblue" d="M574.928,-246.807C557.089,-232.322 537.724,-210.424 546.15,-188 561.189,-147.975 597.737,-112.894 621.701,-93.0915"/>
<polygon fill="midnightblue" stroke="midnightblue" points="623.998,-95.7358 629.596,-86.7412 619.611,-90.2812 623.998,-95.7358"/>
</g>
<!-- Node18 -->
<g id="node40" class="node"><title>Node18</title>
<a xlink:href="_base_functions_8h.html" target="_top" xlink:title="BaseFunctions.h">
<polygon fill="white" stroke="black" points="555.15,-188.5 555.15,-209.5 645.15,-209.5 645.15,-188.5 555.15,-188.5"/>
<text text-anchor="middle" x="600.15" y="-196.5" font-family="Helvetica,sans-Serif" font-size="10.00">BaseFunctions.h</text>
</a>
</g>
<!-- Node1&#45;&gt;Node18 -->
<g id="edge44" class="edge"><title>Node1&#45;&gt;Node18</title>
<path fill="none" stroke="midnightblue" d="M600.15,-246.922C600.15,-238.67 600.15,-228.692 600.15,-219.982"/>
<polygon fill="midnightblue" stroke="midnightblue" points="603.65,-219.852 600.15,-209.852 596.65,-219.852 603.65,-219.852"/>
</g>
<!-- Node19 -->
<g id="node43" class="node"><title>Node19</title>
<a xlink:href="_logger_8h.html" target="_top" xlink:title="base/Logger.h">
<polygon fill="white" stroke="black" points="663.15,-188.5 663.15,-209.5 741.15,-209.5 741.15,-188.5 663.15,-188.5"/>
<text text-anchor="middle" x="702.15" y="-196.5" font-family="Helvetica,sans-Serif" font-size="10.00">base/Logger.h</text>
</a>
</g>
<!-- Node1&#45;&gt;Node19 -->
<g id="edge48" class="edge"><title>Node1&#45;&gt;Node19</title>
<path fill="none" stroke="midnightblue" d="M626.949,-246.922C642.298,-237.141 661.453,-224.934 676.589,-215.289"/>
<polygon fill="midnightblue" stroke="midnightblue" points="678.872,-217.984 685.425,-209.658 675.11,-212.081 678.872,-217.984"/>
</g>
<!-- Node21 -->
<g id="node47" class="node"><title>Node21</title>
<polygon fill="white" stroke="#bfbfbf" points="759.15,-188.5 759.15,-209.5 801.15,-209.5 801.15,-188.5 759.15,-188.5"/>
<text text-anchor="middle" x="780.15" y="-196.5" font-family="Helvetica,sans-Serif" font-size="10.00">TF1.h</text>
</g>
<!-- Node1&#45;&gt;Node21 -->
<g id="edge52" class="edge"><title>Node1&#45;&gt;Node21</title>
<path fill="none" stroke="midnightblue" d="M647.802,-246.926C675.109,-237.123 710.256,-224.475 749.369,-210.273"/>
<polygon fill="midnightblue" stroke="midnightblue" points="750.647,-213.532 758.85,-206.827 748.256,-206.953 750.647,-213.532"/>
</g>
<!-- Node22 -->
<g id="node49" class="node"><title>Node22</title>
<polygon fill="white" stroke="#bfbfbf" points="819.15,-188.5 819.15,-209.5 863.15,-209.5 863.15,-188.5 819.15,-188.5"/>
<text text-anchor="middle" x="841.15" y="-196.5" font-family="Helvetica,sans-Serif" font-size="10.00">TH1.h</text>
</g>
<!-- Node1&#45;&gt;Node22 -->
<g id="edge54" class="edge"><title>Node1&#45;&gt;Node22</title>
<path fill="none" stroke="midnightblue" d="M664.435,-249.046C703.85,-239.513 755.481,-226.376 809.185,-210.131"/>
<polygon fill="midnightblue" stroke="midnightblue" points="810.336,-213.439 818.878,-207.171 808.292,-206.744 810.336,-213.439"/>
</g>
<!-- Node3 -->
<g id="node5" class="node"><title>Node3</title>
<a xlink:href="_knobs_t_f1_8h.html" target="_top" xlink:title="KnobsTF1.h">
<polygon fill="white" stroke="black" points="263.15,-130.5 263.15,-151.5 333.15,-151.5 333.15,-130.5 263.15,-130.5"/>
<text text-anchor="middle" x="298.15" y="-138.5" font-family="Helvetica,sans-Serif" font-size="10.00">KnobsTF1.h</text>
</a>
</g>
<!-- Node2&#45;&gt;Node3 -->
<g id="edge4" class="edge"><title>Node2&#45;&gt;Node3</title>
<path fill="none" stroke="midnightblue" d="M246.705,-188.362C255.763,-180.023 268.56,-168.242 279.124,-158.516"/>
<polygon fill="midnightblue" stroke="midnightblue" points="281.682,-160.919 286.668,-151.571 276.94,-155.769 281.682,-160.919"/>
</g>
<!-- Node4 -->
<g id="node7" class="node"><title>Node4</title>
<a xlink:href="_indicator__traits_8h.html" target="_top" xlink:title="calibration/gui/Indicator\l_traits.h">
<polygon fill="white" stroke="black" points="143.65,-59 143.65,-93 260.65,-93 260.65,-59 143.65,-59"/>
<text text-anchor="start" x="151.65" y="-80" font-family="Helvetica,sans-Serif" font-size="10.00">calibration/gui/Indicator</text>
<text text-anchor="middle" x="202.15" y="-67" font-family="Helvetica,sans-Serif" font-size="10.00">_traits.h</text>
</a>
</g>
<!-- Node2&#45;&gt;Node4 -->
<g id="edge12" class="edge"><title>Node2&#45;&gt;Node4</title>
<path fill="none" stroke="midnightblue" d="M232.221,-188.085C227.153,-169.191 216.601,-129.862 209.445,-103.192"/>
<polygon fill="midnightblue" stroke="midnightblue" points="212.768,-102.069 206.796,-93.3173 206.007,-103.883 212.768,-102.069"/>
</g>
<!-- Node5 -->
<g id="node9" class="node"><title>Node5</title>
<polygon fill="white" stroke="#bfbfbf" points="66.15,-0.5 66.15,-21.5 122.15,-21.5 122.15,-0.5 66.15,-0.5"/>
<text text-anchor="middle" x="94.15" y="-8.5" font-family="Helvetica,sans-Serif" font-size="10.00">Rtypes.h</text>
</g>
<!-- Node2&#45;&gt;Node5 -->
<g id="edge36" class="edge"><title>Node2&#45;&gt;Node5</title>
<path fill="none" stroke="midnightblue" d="M197.838,-194.812C145.837,-188.257 55.2309,-174.003 31.15,-152 -0.31589,-123.25 -9.21926,-94.8788 12.15,-58 21.7778,-41.3845 39.74,-30.1381 56.4042,-22.8244"/>
<polygon fill="midnightblue" stroke="midnightblue" points="58.0252,-25.9448 65.9931,-18.9617 55.4096,-19.4518 58.0252,-25.9448"/>
</g>
<!-- Node6 -->
<g id="node11" class="node"><title>Node6</title>
<polygon fill="white" stroke="#bfbfbf" points="277.65,-65.5 277.65,-86.5 318.65,-86.5 318.65,-65.5 277.65,-65.5"/>
<text text-anchor="middle" x="298.15" y="-73.5" font-family="Helvetica,sans-Serif" font-size="10.00">string</text>
</g>
<!-- Node2&#45;&gt;Node6 -->
<g id="edge42" class="edge"><title>Node2&#45;&gt;Node6</title>
<path fill="none" stroke="midnightblue" d="M272.372,-193.256C296.728,-187.356 326.786,-175.529 342.15,-152 354.901,-132.472 336.704,-109.146 319.991,-93.533"/>
<polygon fill="midnightblue" stroke="midnightblue" points="321.865,-90.5204 312.047,-86.5384 317.239,-95.7739 321.865,-90.5204"/>
</g>
<!-- Node2&#45;&gt;Node7 -->
<g id="edge14" class="edge"><title>Node2&#45;&gt;Node7</title>
<path fill="none" stroke="midnightblue" d="M272.391,-189.357C309.742,-179.686 367.51,-164.728 408.905,-154.01"/>
<polygon fill="midnightblue" stroke="midnightblue" points="409.986,-157.345 418.789,-151.451 408.231,-150.569 409.986,-157.345"/>
</g>
<!-- Node15 -->
<g id="node30" class="node"><title>Node15</title>
<a xlink:href="memory_8h.html" target="_top" xlink:title="base/std_ext/memory.h">
<polygon fill="white" stroke="black" points="50.65,-130.5 50.65,-151.5 169.65,-151.5 169.65,-130.5 50.65,-130.5"/>
<text text-anchor="middle" x="110.15" y="-138.5" font-family="Helvetica,sans-Serif" font-size="10.00">base/std_ext/memory.h</text>
</a>
</g>
<!-- Node2&#45;&gt;Node15 -->
<g id="edge30" class="edge"><title>Node2&#45;&gt;Node15</title>
<path fill="none" stroke="midnightblue" d="M212.513,-188.497C192.902,-179.397 164.304,-166.127 142.317,-155.925"/>
<polygon fill="midnightblue" stroke="midnightblue" points="143.585,-152.655 133.041,-151.621 140.638,-159.005 143.585,-152.655"/>
</g>
<!-- Node16 -->
<g id="node32" class="node"><title>Node16</title>
<polygon fill="white" stroke="#bfbfbf" points="21.15,-65.5 21.15,-86.5 73.15,-86.5 73.15,-65.5 21.15,-65.5"/>
<text text-anchor="middle" x="47.15" y="-73.5" font-family="Helvetica,sans-Serif" font-size="10.00">memory</text>
</g>
<!-- Node2&#45;&gt;Node16 -->
<g id="edge38" class="edge"><title>Node2&#45;&gt;Node16</title>
<path fill="none" stroke="midnightblue" d="M198.024,-195.34C147.496,-189.504 61.1657,-176.202 42.15,-152 29.9534,-136.477 33.6833,-113.211 38.9114,-96.5132"/>
<polygon fill="midnightblue" stroke="midnightblue" points="42.3703,-97.2309 42.4111,-86.6362 35.7723,-94.893 42.3703,-97.2309"/>
</g>
<!-- Node17 -->
<g id="node34" class="node"><title>Node17</title>
<polygon fill="white" stroke="#bfbfbf" points="96.65,-65.5 96.65,-86.5 125.65,-86.5 125.65,-65.5 96.65,-65.5"/>
<text text-anchor="middle" x="111.15" y="-73.5" font-family="Helvetica,sans-Serif" font-size="10.00">list</text>
</g>
<!-- Node2&#45;&gt;Node17 -->
<g id="edge40" class="edge"><title>Node2&#45;&gt;Node17</title>
<path fill="none" stroke="midnightblue" d="M227.272,-188.146C216.803,-174.049 197.382,-149.002 178.15,-130 170.367,-122.31 149.558,-105.743 133.176,-92.9739"/>
<polygon fill="midnightblue" stroke="midnightblue" points="135.151,-90.0763 125.105,-86.7098 130.859,-95.6062 135.151,-90.0763"/>
</g>
<!-- Node3&#45;&gt;Node4 -->
<g id="edge6" class="edge"><title>Node3&#45;&gt;Node4</title>
<path fill="none" stroke="midnightblue" d="M282.298,-130.267C269.716,-121.748 251.681,-109.537 235.904,-98.8541"/>
<polygon fill="midnightblue" stroke="midnightblue" points="237.663,-95.8183 227.42,-93.1099 233.738,-101.615 237.663,-95.8183"/>
</g>
<!-- Node3&#45;&gt;Node6 -->
<g id="edge10" class="edge"><title>Node3&#45;&gt;Node6</title>
<path fill="none" stroke="midnightblue" d="M298.15,-130.267C298.15,-121.18 298.15,-107.892 298.15,-96.7395"/>
<polygon fill="midnightblue" stroke="midnightblue" points="301.65,-96.5337 298.15,-86.5337 294.65,-96.5337 301.65,-96.5337"/>
</g>
<!-- Node4&#45;&gt;Node5 -->
<g id="edge8" class="edge"><title>Node4&#45;&gt;Node5</title>
<path fill="none" stroke="midnightblue" d="M173.774,-58.922C157.37,-49.0489 136.858,-36.7039 120.762,-27.0164"/>
<polygon fill="midnightblue" stroke="midnightblue" points="122.232,-23.8163 111.859,-21.6584 118.622,-29.8138 122.232,-23.8163"/>
</g>
<!-- Node7&#45;&gt;Node8 -->
<g id="edge16" class="edge"><title>Node7&#45;&gt;Node8</title>
<path fill="none" stroke="midnightblue" d="M497.709,-130.424C527.896,-121.747 570.725,-108.554 607.15,-94 609.53,-93.0491 611.969,-92.0113 614.405,-90.9295"/>
<polygon fill="midnightblue" stroke="midnightblue" points="616.055,-94.0221 623.645,-86.6305 613.102,-87.6753 616.055,-94.0221"/>
</g>
<!-- Node9 -->
<g id="node18" class="node"><title>Node9</title>
<polygon fill="white" stroke="#bfbfbf" points="459.65,-65.5 459.65,-86.5 518.65,-86.5 518.65,-65.5 459.65,-65.5"/>
<text text-anchor="middle" x="489.15" y="-73.5" font-family="Helvetica,sans-Serif" font-size="10.00">stdexcept</text>
</g>
<!-- Node7&#45;&gt;Node9 -->
<g id="edge18" class="edge"><title>Node7&#45;&gt;Node9</title>
<path fill="none" stroke="midnightblue" d="M464.104,-130.267C468.429,-120.896 474.816,-107.057 480.057,-95.7004"/>
<polygon fill="midnightblue" stroke="midnightblue" points="483.276,-97.08 484.288,-86.5337 476.92,-94.1466 483.276,-97.08"/>
</g>
<!-- Node10 -->
<g id="node20" class="node"><title>Node10</title>
<a xlink:href="printable_8h.html" target="_top" xlink:title="printable.h">
<polygon fill="white" stroke="black" points="536.15,-65.5 536.15,-86.5 598.15,-86.5 598.15,-65.5 536.15,-65.5"/>
<text text-anchor="middle" x="567.15" y="-73.5" font-family="Helvetica,sans-Serif" font-size="10.00">printable.h</text>
</a>
</g>
<!-- Node7&#45;&gt;Node10 -->
<g id="edge20" class="edge"><title>Node7&#45;&gt;Node10</title>
<path fill="none" stroke="midnightblue" d="M476.984,-130.267C494.441,-119.76 521.23,-103.637 541.076,-91.6924"/>
<polygon fill="midnightblue" stroke="midnightblue" points="542.885,-94.6891 549.648,-86.5337 539.275,-88.6916 542.885,-94.6891"/>
</g>
<!-- Node13 -->
<g id="node26" class="node"><title>Node13</title>
<a xlink:href="types_8h.html" target="_top" xlink:title="types.h">
<polygon fill="white" stroke="black" points="335.65,-65.5 335.65,-86.5 384.65,-86.5 384.65,-65.5 335.65,-65.5"/>
<text text-anchor="middle" x="360.15" y="-73.5" font-family="Helvetica,sans-Serif" font-size="10.00">types.h</text>
</a>
</g>
<!-- Node7&#45;&gt;Node13 -->
<g id="edge26" class="edge"><title>Node7&#45;&gt;Node13</title>
<path fill="none" stroke="midnightblue" d="M442.802,-130.267C427.088,-119.949 403.125,-104.216 385.04,-92.3421"/>
<polygon fill="midnightblue" stroke="midnightblue" points="386.474,-89.0964 376.194,-86.5337 382.632,-94.9479 386.474,-89.0964"/>
</g>
<!-- Node14 -->
<g id="node28" class="node"><title>Node14</title>
<polygon fill="white" stroke="#bfbfbf" points="402.15,-65.5 402.15,-86.5 442.15,-86.5 442.15,-65.5 402.15,-65.5"/>
<text text-anchor="middle" x="422.15" y="-73.5" font-family="Helvetica,sans-Serif" font-size="10.00">limits</text>
</g>
<!-- Node7&#45;&gt;Node14 -->
<g id="edge28" class="edge"><title>Node7&#45;&gt;Node14</title>
<path fill="none" stroke="midnightblue" d="M453.04,-130.267C447.652,-120.801 439.669,-106.777 433.169,-95.3571"/>
<polygon fill="midnightblue" stroke="midnightblue" points="436.135,-93.4929 428.146,-86.5337 430.051,-96.9558 436.135,-93.4929"/>
</g>
<!-- Node11 -->
<g id="node22" class="node"><title>Node11</title>
<polygon fill="white" stroke="#bfbfbf" points="578.15,-0.5 578.15,-21.5 622.15,-21.5 622.15,-0.5 578.15,-0.5"/>
<text text-anchor="middle" x="600.15" y="-8.5" font-family="Helvetica,sans-Serif" font-size="10.00">vector</text>
</g>
<!-- Node10&#45;&gt;Node11 -->
<g id="edge22" class="edge"><title>Node10&#45;&gt;Node11</title>
<path fill="none" stroke="midnightblue" d="M572.599,-65.2666C577.357,-55.8959 584.382,-42.0573 590.148,-30.7004"/>
<polygon fill="midnightblue" stroke="midnightblue" points="593.396,-32.0348 594.802,-21.5337 587.154,-28.8659 593.396,-32.0348"/>
</g>
<!-- Node12 -->
<g id="node24" class="node"><title>Node12</title>
<polygon fill="white" stroke="#bfbfbf" points="508.15,-0.5 508.15,-21.5 560.15,-21.5 560.15,-0.5 508.15,-0.5"/>
<text text-anchor="middle" x="534.15" y="-8.5" font-family="Helvetica,sans-Serif" font-size="10.00">ostream</text>
</g>
<!-- Node10&#45;&gt;Node12 -->
<g id="edge24" class="edge"><title>Node10&#45;&gt;Node12</title>
<path fill="none" stroke="midnightblue" d="M561.701,-65.2666C556.943,-55.8959 549.918,-42.0573 544.152,-30.7004"/>
<polygon fill="midnightblue" stroke="midnightblue" points="547.146,-28.8659 539.498,-21.5337 540.904,-32.0348 547.146,-28.8659"/>
</g>
<!-- Node15&#45;&gt;Node16 -->
<g id="edge32" class="edge"><title>Node15&#45;&gt;Node16</title>
<path fill="none" stroke="midnightblue" d="M99.7468,-130.267C90.2058,-120.423 75.8858,-105.648 64.5958,-93.9996"/>
<polygon fill="midnightblue" stroke="midnightblue" points="66.8326,-91.2785 57.3596,-86.5337 61.8061,-96.1503 66.8326,-91.2785"/>
</g>
<!-- Node15&#45;&gt;Node17 -->
<g id="edge34" class="edge"><title>Node15&#45;&gt;Node17</title>
<path fill="none" stroke="midnightblue" d="M110.315,-130.267C110.455,-121.18 110.659,-107.892 110.831,-96.7395"/>
<polygon fill="midnightblue" stroke="midnightblue" points="114.334,-96.5864 110.988,-86.5337 107.334,-96.4786 114.334,-96.5864"/>
</g>
<!-- Node20 -->
<g id="node45" class="node"><title>Node20</title>
<polygon fill="white" stroke="#bfbfbf" points="644.65,-130.5 644.65,-151.5 759.65,-151.5 759.65,-130.5 644.65,-130.5"/>
<text text-anchor="middle" x="702.15" y="-138.5" font-family="Helvetica,sans-Serif" font-size="10.00">detail/easylogging++.h</text>
</g>
<!-- Node19&#45;&gt;Node20 -->
<g id="edge50" class="edge"><title>Node19&#45;&gt;Node20</title>
<path fill="none" stroke="midnightblue" d="M702.15,-188.362C702.15,-180.922 702.15,-170.743 702.15,-161.728"/>
<polygon fill="midnightblue" stroke="midnightblue" points="705.65,-161.571 702.15,-151.571 698.65,-161.571 705.65,-161.571"/>
</g>
</g>
</svg>
