<?xml version="1.0" encoding="UTF-8" standalone="no"?>
<!DOCTYPE svg PUBLIC "-//W3C//DTD SVG 1.1//EN"
 "http://www.w3.org/Graphics/SVG/1.1/DTD/svg11.dtd">
<!-- Generated by graphviz version 2.26.3 (20100126.1600)
 -->
<!-- Title: src/calibration/fitfunctions/FitTimewalk.cc Pages: 1 -->
<svg width="872pt" height="348pt"
 viewBox="0.00 0.00 872.02 348.00" xmlns="http://www.w3.org/2000/svg" xmlns:xlink="http://www.w3.org/1999/xlink">
<g id="graph1" class="graph" transform="scale(1 1) rotate(0) translate(4 344)">
<title>src/calibration/fitfunctions/FitTimewalk.cc</title>
<polygon fill="white" stroke="white" points="-4,5 -4,-344 869.02,-344 869.02,5 -4,5"/>
<!-- Node1 -->
<g id="node1" class="node"><title>Node1</title>
<polygon fill="#bfbfbf" stroke="black" points="531.02,-305 531.02,-339 659.02,-339 659.02,-305 531.02,-305"/>
<text text-anchor="start" x="539.02" y="-326" font-family="Helvetica,sans-Serif" font-size="10.00">src/calibration/fitfunctions</text>
<text text-anchor="middle" x="595.02" y="-313" font-family="Helvetica,sans-Serif" font-size="10.00">/FitTimewalk.cc</text>
</g>
<!-- Node2 -->
<g id="node3" class="node"><title>Node2</title>
<a xlink:href="_fit_timewalk_8h.html" target="_top" xlink:title="FitTimewalk.h">
<polygon fill="white" stroke="black" points="249.02,-246.5 249.02,-267.5 327.02,-267.5 327.02,-246.5 249.02,-246.5"/>
<text text-anchor="middle" x="288.02" y="-254.5" font-family="Helvetica,sans-Serif" font-size="10.00">FitTimewalk.h</text>
</a>
</g>
<!-- Node1&#45;&gt;Node2 -->
<g id="edge2" class="edge"><title>Node1&#45;&gt;Node2</title>
<path fill="none" stroke="midnightblue" d="M530.663,-308.374C472.971,-296.159 389.568,-278.5 337.104,-267.392"/>
<polygon fill="midnightblue" stroke="midnightblue" points="337.549,-263.909 327.041,-265.262 336.099,-270.757 337.549,-263.909"/>
</g>
<!-- Node8 -->
<g id="node16" class="node"><title>Node8</title>
<a xlink:href="interval_8h.html" target="_top" xlink:title="base/interval.h">
<polygon fill="white" stroke="black" points="420.02,-130.5 420.02,-151.5 500.02,-151.5 500.02,-130.5 420.02,-130.5"/>
<text text-anchor="middle" x="460.02" y="-138.5" font-family="Helvetica,sans-Serif" font-size="10.00">base/interval.h</text>
</a>
</g>
<!-- Node1&#45;&gt;Node8 -->
<g id="edge46" class="edge"><title>Node1&#45;&gt;Node8</title>
<path fill="none" stroke="midnightblue" d="M560.478,-304.99C544.648,-295.808 526.644,-283.22 514.02,-268 487.269,-235.746 471.865,-188.283 464.79,-161.45"/>
<polygon fill="midnightblue" stroke="midnightblue" points="468.155,-160.478 462.333,-151.627 461.365,-162.177 468.155,-160.478"/>
</g>
<!-- Node9 -->
<g id="node18" class="node"><title>Node9</title>
<polygon fill="white" stroke="#bfbfbf" points="605.02,-65.5 605.02,-86.5 661.02,-86.5 661.02,-65.5 605.02,-65.5"/>
<text text-anchor="middle" x="633.02" y="-73.5" font-family="Helvetica,sans-Serif" font-size="10.00">algorithm</text>
</g>
<!-- Node1&#45;&gt;Node9 -->
<g id="edge58" class="edge"><title>Node1&#45;&gt;Node9</title>
<path fill="none" stroke="midnightblue" d="M573.804,-304.86C563.615,-295.238 552.459,-282.304 547.02,-268 534.385,-234.765 535.586,-221.667 547.02,-188 560.094,-149.509 592.312,-113.892 613.389,-93.5747"/>
<polygon fill="midnightblue" stroke="midnightblue" points="615.963,-95.9589 620.859,-86.5628 611.172,-90.8553 615.963,-95.9589"/>
</g>
<!-- Node19 -->
<g id="node43" class="node"><title>Node19</title>
<a xlink:href="_logger_8h.html" target="_top" xlink:title="base/Logger.h">
<polygon fill="white" stroke="black" points="556.02,-246.5 556.02,-267.5 634.02,-267.5 634.02,-246.5 556.02,-246.5"/>
<text text-anchor="middle" x="595.02" y="-254.5" font-family="Helvetica,sans-Serif" font-size="10.00">base/Logger.h</text>
</a>
</g>
<!-- Node1&#45;&gt;Node19 -->
<g id="edge48" class="edge"><title>Node1&#45;&gt;Node19</title>
<path fill="none" stroke="midnightblue" d="M595.02,-304.922C595.02,-296.67 595.02,-286.692 595.02,-277.982"/>
<polygon fill="midnightblue" stroke="midnightblue" points="598.521,-277.852 595.02,-267.852 591.521,-277.852 598.521,-277.852"/>
</g>
<!-- Node21 -->
<g id="node47" class="node"><title>Node21</title>
<a xlink:href="_base_functions_8h.html" target="_top" xlink:title="BaseFunctions.h">
<polygon fill="white" stroke="black" points="652.02,-246.5 652.02,-267.5 742.02,-267.5 742.02,-246.5 652.02,-246.5"/>
<text text-anchor="middle" x="697.02" y="-254.5" font-family="Helvetica,sans-Serif" font-size="10.00">BaseFunctions.h</text>
</a>
</g>
<!-- Node1&#45;&gt;Node21 -->
<g id="edge52" class="edge"><title>Node1&#45;&gt;Node21</title>
<path fill="none" stroke="midnightblue" d="M621.82,-304.922C637.168,-295.141 656.323,-282.934 671.46,-273.289"/>
<polygon fill="midnightblue" stroke="midnightblue" points="673.743,-275.984 680.295,-267.658 669.981,-270.081 673.743,-275.984"/>
</g>
<!-- Node22 -->
<g id="node49" class="node"><title>Node22</title>
<polygon fill="white" stroke="#bfbfbf" points="760.02,-246.5 760.02,-267.5 802.02,-267.5 802.02,-246.5 760.02,-246.5"/>
<text text-anchor="middle" x="781.02" y="-254.5" font-family="Helvetica,sans-Serif" font-size="10.00">TF1.h</text>
</g>
<!-- Node1&#45;&gt;Node22 -->
<g id="edge54" class="edge"><title>Node1&#45;&gt;Node22</title>
<path fill="none" stroke="midnightblue" d="M644.983,-304.964C673.419,-295.208 709.919,-282.587 750.242,-268.243"/>
<polygon fill="midnightblue" stroke="midnightblue" points="751.488,-271.514 759.733,-264.86 749.138,-264.921 751.488,-271.514"/>
</g>
<!-- Node23 -->
<g id="node51" class="node"><title>Node23</title>
<polygon fill="white" stroke="#bfbfbf" points="820.02,-246.5 820.02,-267.5 864.02,-267.5 864.02,-246.5 820.02,-246.5"/>
<text text-anchor="middle" x="842.02" y="-254.5" font-family="Helvetica,sans-Serif" font-size="10.00">TH1.h</text>
</g>
<!-- Node1&#45;&gt;Node23 -->
<g id="edge56" class="edge"><title>Node1&#45;&gt;Node23</title>
<path fill="none" stroke="midnightblue" d="M659.257,-307.647C700.088,-298.129 754.201,-284.794 810.047,-268.117"/>
<polygon fill="midnightblue" stroke="midnightblue" points="811.191,-271.428 819.754,-265.189 809.169,-264.726 811.191,-271.428"/>
</g>
<!-- Node3 -->
<g id="node5" class="node"><title>Node3</title>
<a xlink:href="_fit_function_8h.html" target="_top" xlink:title="FitFunction.h">
<polygon fill="white" stroke="black" points="164.02,-188.5 164.02,-209.5 238.02,-209.5 238.02,-188.5 164.02,-188.5"/>
<text text-anchor="middle" x="201.02" y="-196.5" font-family="Helvetica,sans-Serif" font-size="10.00">FitFunction.h</text>
</a>
</g>
<!-- Node2&#45;&gt;Node3 -->
<g id="edge4" class="edge"><title>Node2&#45;&gt;Node3</title>
<path fill="none" stroke="midnightblue" d="M272.063,-246.362C259.064,-237.696 240.489,-225.313 225.593,-215.382"/>
<polygon fill="midnightblue" stroke="midnightblue" points="227.138,-212.206 216.876,-209.571 223.256,-218.03 227.138,-212.206"/>
</g>
<!-- Node4 -->
<g id="node7" class="node"><title>Node4</title>
<a xlink:href="_knobs_t_f1_8h.html" target="_top" xlink:title="KnobsTF1.h">
<polygon fill="white" stroke="black" points="65.0205,-130.5 65.0205,-151.5 135.02,-151.5 135.02,-130.5 65.0205,-130.5"/>
<text text-anchor="middle" x="100.02" y="-138.5" font-family="Helvetica,sans-Serif" font-size="10.00">KnobsTF1.h</text>
</a>
</g>
<!-- Node3&#45;&gt;Node4 -->
<g id="edge6" class="edge"><title>Node3&#45;&gt;Node4</title>
<path fill="none" stroke="midnightblue" d="M182.496,-188.362C167.119,-179.532 145.025,-166.844 127.573,-156.822"/>
<polygon fill="midnightblue" stroke="midnightblue" points="128.843,-153.515 118.428,-151.571 125.357,-159.586 128.843,-153.515"/>
</g>
<!-- Node5 -->
<g id="node9" class="node"><title>Node5</title>
<a xlink:href="_indicator__traits_8h.html" target="_top" xlink:title="calibration/gui/Indicator\l_traits.h">
<polygon fill="white" stroke="black" points="74.5205,-59 74.5205,-93 191.52,-93 191.52,-59 74.5205,-59"/>
<text text-anchor="start" x="82.5205" y="-80" font-family="Helvetica,sans-Serif" font-size="10.00">calibration/gui/Indicator</text>
<text text-anchor="middle" x="133.02" y="-67" font-family="Helvetica,sans-Serif" font-size="10.00">_traits.h</text>
</a>
</g>
<!-- Node3&#45;&gt;Node5 -->
<g id="edge14" class="edge"><title>Node3&#45;&gt;Node5</title>
<path fill="none" stroke="midnightblue" d="M194.986,-188.085C184.402,-168.941 162.219,-128.815 147.47,-102.136"/>
<polygon fill="midnightblue" stroke="midnightblue" points="150.496,-100.376 142.594,-93.3173 144.37,-103.762 150.496,-100.376"/>
</g>
<!-- Node6 -->
<g id="node11" class="node"><title>Node6</title>
<polygon fill="white" stroke="#bfbfbf" points="33.0205,-0.5 33.0205,-21.5 89.0205,-21.5 89.0205,-0.5 33.0205,-0.5"/>
<text text-anchor="middle" x="61.0205" y="-8.5" font-family="Helvetica,sans-Serif" font-size="10.00">Rtypes.h</text>
</g>
<!-- Node3&#45;&gt;Node6 -->
<g id="edge38" class="edge"><title>Node3&#45;&gt;Node6</title>
<path fill="none" stroke="midnightblue" d="M163.754,-196.214C128.506,-191.853 75.8149,-180.67 40.0205,-152 5.5753,-124.41 -10.0821,-98.2486 8.0205,-58 13.5381,-45.7325 24.0155,-35.3682 34.2074,-27.52"/>
<polygon fill="midnightblue" stroke="midnightblue" points="36.4849,-30.1944 42.5864,-21.5328 32.4152,-24.499 36.4849,-30.1944"/>
</g>
<!-- Node7 -->
<g id="node13" class="node"><title>Node7</title>
<polygon fill="white" stroke="#bfbfbf" points="16.5205,-65.5 16.5205,-86.5 57.5205,-86.5 57.5205,-65.5 16.5205,-65.5"/>
<text text-anchor="middle" x="37.0205" y="-73.5" font-family="Helvetica,sans-Serif" font-size="10.00">string</text>
</g>
<!-- Node3&#45;&gt;Node7 -->
<g id="edge44" class="edge"><title>Node3&#45;&gt;Node7</title>
<path fill="none" stroke="midnightblue" d="M163.691,-191.219C125.836,-182.598 70.7851,-167.812 56.0205,-152 42.0863,-137.077 37.9607,-113.523 36.9316,-96.5906"/>
<polygon fill="midnightblue" stroke="midnightblue" points="40.4296,-96.4678 36.6306,-86.5775 33.4328,-96.6782 40.4296,-96.4678"/>
</g>
<!-- Node3&#45;&gt;Node8 -->
<g id="edge16" class="edge"><title>Node3&#45;&gt;Node8</title>
<path fill="none" stroke="midnightblue" d="M238.129,-190.69C283.275,-180.58 359.681,-163.47 409.994,-152.203"/>
<polygon fill="midnightblue" stroke="midnightblue" points="411.009,-155.562 420.002,-149.962 409.479,-148.732 411.009,-155.562"/>
</g>
<!-- Node16 -->
<g id="node32" class="node"><title>Node16</title>
<a xlink:href="memory_8h.html" target="_top" xlink:title="base/std_ext/memory.h">
<polygon fill="white" stroke="black" points="228.52,-130.5 228.52,-151.5 347.52,-151.5 347.52,-130.5 228.52,-130.5"/>
<text text-anchor="middle" x="288.02" y="-138.5" font-family="Helvetica,sans-Serif" font-size="10.00">base/std_ext/memory.h</text>
</a>
</g>
<!-- Node3&#45;&gt;Node16 -->
<g id="edge32" class="edge"><title>Node3&#45;&gt;Node16</title>
<path fill="none" stroke="midnightblue" d="M216.978,-188.362C229.977,-179.696 248.552,-167.313 263.448,-157.382"/>
<polygon fill="midnightblue" stroke="midnightblue" points="265.785,-160.03 272.165,-151.571 261.903,-154.206 265.785,-160.03"/>
</g>
<!-- Node17 -->
<g id="node34" class="node"><title>Node17</title>
<polygon fill="white" stroke="#bfbfbf" points="209.02,-65.5 209.02,-86.5 261.02,-86.5 261.02,-65.5 209.02,-65.5"/>
<text text-anchor="middle" x="235.02" y="-73.5" font-family="Helvetica,sans-Serif" font-size="10.00">memory</text>
</g>
<!-- Node3&#45;&gt;Node17 -->
<g id="edge40" class="edge"><title>Node3&#45;&gt;Node17</title>
<path fill="none" stroke="midnightblue" d="M203.975,-188.241C207.705,-174.665 214.324,-150.598 220.02,-130 223.068,-118.981 226.478,-106.701 229.276,-96.6391"/>
<polygon fill="midnightblue" stroke="midnightblue" points="232.717,-97.3281 232.025,-86.7558 225.973,-95.452 232.717,-97.3281"/>
</g>
<!-- Node18 -->
<g id="node36" class="node"><title>Node18</title>
<polygon fill="white" stroke="#bfbfbf" points="278.52,-65.5 278.52,-86.5 307.52,-86.5 307.52,-65.5 278.52,-65.5"/>
<text text-anchor="middle" x="293.02" y="-73.5" font-family="Helvetica,sans-Serif" font-size="10.00">list</text>
</g>
<!-- Node3&#45;&gt;Node18 -->
<g id="edge42" class="edge"><title>Node3&#45;&gt;Node18</title>
<path fill="none" stroke="midnightblue" d="M238.387,-192.882C279.593,-185.284 341.949,-170.971 356.02,-152 361.846,-144.147 360.106,-138.883 356.02,-130 353.731,-125.023 331.921,-106.896 314.595,-93.0029"/>
<polygon fill="midnightblue" stroke="midnightblue" points="316.558,-90.0917 306.555,-86.5989 312.196,-95.567 316.558,-90.0917"/>
</g>
<!-- Node4&#45;&gt;Node5 -->
<g id="edge8" class="edge"><title>Node4&#45;&gt;Node5</title>
<path fill="none" stroke="midnightblue" d="M105.47,-130.267C109.354,-122.615 114.751,-111.986 119.739,-102.16"/>
<polygon fill="midnightblue" stroke="midnightblue" points="122.928,-103.611 124.334,-93.1099 116.686,-100.442 122.928,-103.611"/>
</g>
<!-- Node4&#45;&gt;Node7 -->
<g id="edge12" class="edge"><title>Node4&#45;&gt;Node7</title>
<path fill="none" stroke="midnightblue" d="M89.6173,-130.267C80.0763,-120.423 65.7563,-105.648 54.4663,-93.9996"/>
<polygon fill="midnightblue" stroke="midnightblue" points="56.7031,-91.2785 47.2301,-86.5337 51.6766,-96.1503 56.7031,-91.2785"/>
</g>
<!-- Node5&#45;&gt;Node6 -->
<g id="edge10" class="edge"><title>Node5&#45;&gt;Node6</title>
<path fill="none" stroke="midnightblue" d="M114.103,-58.922C103.744,-49.5702 90.9289,-38.0007 80.4853,-28.5724"/>
<polygon fill="midnightblue" stroke="midnightblue" points="82.8094,-25.9552 73.0413,-21.8521 78.1186,-31.1511 82.8094,-25.9552"/>
</g>
<!-- Node8&#45;&gt;Node9 -->
<g id="edge18" class="edge"><title>Node8&#45;&gt;Node9</title>
<path fill="none" stroke="midnightblue" d="M494.257,-130.429C522.016,-121.557 561.979,-108.103 596.02,-94 598.388,-93.0192 600.819,-91.9597 603.248,-90.863"/>
<polygon fill="midnightblue" stroke="midnightblue" points="604.909,-93.95 612.477,-86.5356 601.937,-87.6121 604.909,-93.95"/>
</g>
<!-- Node10 -->
<g id="node20" class="node"><title>Node10</title>
<polygon fill="white" stroke="#bfbfbf" points="448.52,-65.5 448.52,-86.5 507.52,-86.5 507.52,-65.5 448.52,-65.5"/>
<text text-anchor="middle" x="478.02" y="-73.5" font-family="Helvetica,sans-Serif" font-size="10.00">stdexcept</text>
</g>
<!-- Node8&#45;&gt;Node10 -->
<g id="edge20" class="edge"><title>Node8&#45;&gt;Node10</title>
<path fill="none" stroke="midnightblue" d="M462.993,-130.267C465.535,-121.085 469.266,-107.615 472.374,-96.3917"/>
<polygon fill="midnightblue" stroke="midnightblue" points="475.808,-97.1051 475.103,-86.5337 469.062,-95.2369 475.808,-97.1051"/>
</g>
<!-- Node11 -->
<g id="node22" class="node"><title>Node11</title>
<a xlink:href="printable_8h.html" target="_top" xlink:title="printable.h">
<polygon fill="white" stroke="black" points="525.02,-65.5 525.02,-86.5 587.02,-86.5 587.02,-65.5 525.02,-65.5"/>
<text text-anchor="middle" x="556.02" y="-73.5" font-family="Helvetica,sans-Serif" font-size="10.00">printable.h</text>
</a>
</g>
<!-- Node8&#45;&gt;Node11 -->
<g id="edge22" class="edge"><title>Node8&#45;&gt;Node11</title>
<path fill="none" stroke="midnightblue" d="M475.873,-130.267C491.111,-119.949 514.348,-104.216 531.884,-92.3421"/>
<polygon fill="midnightblue" stroke="midnightblue" points="534.145,-95.0385 540.463,-86.5337 530.22,-89.2421 534.145,-95.0385"/>
</g>
<!-- Node14 -->
<g id="node28" class="node"><title>Node14</title>
<a xlink:href="types_8h.html" target="_top" xlink:title="types.h">
<polygon fill="white" stroke="black" points="324.52,-65.5 324.52,-86.5 373.52,-86.5 373.52,-65.5 324.52,-65.5"/>
<text text-anchor="middle" x="349.02" y="-73.5" font-family="Helvetica,sans-Serif" font-size="10.00">types.h</text>
</a>
</g>
<!-- Node8&#45;&gt;Node14 -->
<g id="edge28" class="edge"><title>Node8&#45;&gt;Node14</title>
<path fill="none" stroke="midnightblue" d="M441.691,-130.267C423.749,-119.76 396.216,-103.637 375.818,-91.6924"/>
<polygon fill="midnightblue" stroke="midnightblue" points="377.407,-88.5667 367.009,-86.5337 373.87,-94.6072 377.407,-88.5667"/>
</g>
<!-- Node15 -->
<g id="node30" class="node"><title>Node15</title>
<polygon fill="white" stroke="#bfbfbf" points="391.02,-65.5 391.02,-86.5 431.02,-86.5 431.02,-65.5 391.02,-65.5"/>
<text text-anchor="middle" x="411.02" y="-73.5" font-family="Helvetica,sans-Serif" font-size="10.00">limits</text>
</g>
<!-- Node8&#45;&gt;Node15 -->
<g id="edge30" class="edge"><title>Node8&#45;&gt;Node15</title>
<path fill="none" stroke="midnightblue" d="M451.929,-130.267C444.651,-120.612 433.798,-106.215 425.099,-94.675"/>
<polygon fill="midnightblue" stroke="midnightblue" points="427.776,-92.4121 418.961,-86.5337 422.186,-96.6258 427.776,-92.4121"/>
</g>
<!-- Node12 -->
<g id="node24" class="node"><title>Node12</title>
<polygon fill="white" stroke="#bfbfbf" points="567.02,-0.5 567.02,-21.5 611.02,-21.5 611.02,-0.5 567.02,-0.5"/>
<text text-anchor="middle" x="589.02" y="-8.5" font-family="Helvetica,sans-Serif" font-size="10.00">vector</text>
</g>
<!-- Node11&#45;&gt;Node12 -->
<g id="edge24" class="edge"><title>Node11&#45;&gt;Node12</title>
<path fill="none" stroke="midnightblue" d="M561.47,-65.2666C566.227,-55.8959 573.253,-42.0573 579.019,-30.7004"/>
<polygon fill="midnightblue" stroke="midnightblue" points="582.266,-32.0348 583.673,-21.5337 576.025,-28.8659 582.266,-32.0348"/>
</g>
<!-- Node13 -->
<g id="node26" class="node"><title>Node13</title>
<polygon fill="white" stroke="#bfbfbf" points="497.02,-0.5 497.02,-21.5 549.02,-21.5 549.02,-0.5 497.02,-0.5"/>
<text text-anchor="middle" x="523.02" y="-8.5" font-family="Helvetica,sans-Serif" font-size="10.00">ostream</text>
</g>
<!-- Node11&#45;&gt;Node13 -->
<g id="edge26" class="edge"><title>Node11&#45;&gt;Node13</title>
<path fill="none" stroke="midnightblue" d="M550.571,-65.2666C545.814,-55.8959 538.788,-42.0573 533.022,-30.7004"/>
<polygon fill="midnightblue" stroke="midnightblue" points="536.016,-28.8659 528.368,-21.5337 529.775,-32.0348 536.016,-28.8659"/>
</g>
<!-- Node16&#45;&gt;Node17 -->
<g id="edge34" class="edge"><title>Node16&#45;&gt;Node17</title>
<path fill="none" stroke="midnightblue" d="M279.269,-130.267C271.319,-120.517 259.426,-105.932 249.972,-94.3365"/>
<polygon fill="midnightblue" stroke="midnightblue" points="252.642,-92.0721 243.61,-86.5337 247.216,-96.4957 252.642,-92.0721"/>
</g>
<!-- Node16&#45;&gt;Node18 -->
<g id="edge36" class="edge"><title>Node16&#45;&gt;Node18</title>
<path fill="none" stroke="midnightblue" d="M288.846,-130.267C289.545,-121.18 290.567,-107.892 291.425,-96.7395"/>
<polygon fill="midnightblue" stroke="midnightblue" points="294.933,-96.7727 292.21,-86.5337 287.953,-96.2358 294.933,-96.7727"/>
</g>
<!-- Node20 -->
<g id="node45" class="node"><title>Node20</title>
<polygon fill="white" stroke="#bfbfbf" points="555.52,-188.5 555.52,-209.5 670.52,-209.5 670.52,-188.5 555.52,-188.5"/>
<text text-anchor="middle" x="613.02" y="-196.5" font-family="Helvetica,sans-Serif" font-size="10.00">detail/easylogging++.h</text>
</g>
<!-- Node19&#45;&gt;Node20 -->
<g id="edge50" class="edge"><title>Node19&#45;&gt;Node20</title>
<path fill="none" stroke="midnightblue" d="M598.322,-246.362C600.682,-238.758 603.929,-228.294 606.772,-219.135"/>
<polygon fill="midnightblue" stroke="midnightblue" points="610.119,-220.159 609.74,-209.571 603.433,-218.084 610.119,-220.159"/>
</g>
</g>
</svg>
