<?xml version="1.0" encoding="UTF-8" standalone="no"?>
<!DOCTYPE svg PUBLIC "-//W3C//DTD SVG 1.1//EN"
 "http://www.w3.org/Graphics/SVG/1.1/DTD/svg11.dtd">
<!-- Generated by graphviz version 2.26.3 (20100126.1600)
 -->
<!-- Title: src/calibration/fitfunctions/FitFunction.h Pages: 1 -->
<svg width="690pt" height="232pt"
 viewBox="0.00 0.00 690.00 232.00" xmlns="http://www.w3.org/2000/svg" xmlns:xlink="http://www.w3.org/1999/xlink">
<g id="graph1" class="graph" transform="scale(1 1) rotate(0) translate(4 228)">
<title>src/calibration/fitfunctions/FitFunction.h</title>
<polygon fill="white" stroke="white" points="-4,5 -4,-228 687,-228 687,5 -4,5"/>
<!-- Node1 -->
<g id="node1" class="node"><title>Node1</title>
<polygon fill="#bfbfbf" stroke="black" points="203,-189 203,-223 331,-223 331,-189 203,-189"/>
<text text-anchor="start" x="211" y="-210" font-family="Helvetica,sans-Serif" font-size="10.00">src/calibration/fitfunctions</text>
<text text-anchor="middle" x="267" y="-197" font-family="Helvetica,sans-Serif" font-size="10.00">/FitFunction.h</text>
</g>
<!-- Node2 -->
<g id="node3" class="node"><title>Node2</title>
<a xlink:href="_knobs_t_f1_8h.html" target="_top" xlink:title="KnobsTF1.h">
<polygon fill="white" stroke="black" points="76,-130.5 76,-151.5 146,-151.5 146,-130.5 76,-130.5"/>
<text text-anchor="middle" x="111" y="-138.5" font-family="Helvetica,sans-Serif" font-size="10.00">KnobsTF1.h</text>
</a>
</g>
<!-- Node1&#45;&gt;Node2 -->
<g id="edge2" class="edge"><title>Node1&#45;&gt;Node2</title>
<path fill="none" stroke="midnightblue" d="M226.013,-188.922C201.099,-178.541 169.628,-165.428 145.906,-155.544"/>
<polygon fill="midnightblue" stroke="midnightblue" points="147.157,-152.274 136.58,-151.658 144.465,-158.735 147.157,-152.274"/>
</g>
<!-- Node3 -->
<g id="node5" class="node"><title>Node3</title>
<a xlink:href="_indicator__traits_8h.html" target="_top" xlink:title="calibration/gui/Indicator\l_traits.h">
<polygon fill="white" stroke="black" points="-0.5,-59 -0.5,-93 116.5,-93 116.5,-59 -0.5,-59"/>
<text text-anchor="start" x="7.5" y="-80" font-family="Helvetica,sans-Serif" font-size="10.00">calibration/gui/Indicator</text>
<text text-anchor="middle" x="58" y="-67" font-family="Helvetica,sans-Serif" font-size="10.00">_traits.h</text>
</a>
</g>
<!-- Node1&#45;&gt;Node3 -->
<g id="edge10" class="edge"><title>Node1&#45;&gt;Node3</title>
<path fill="none" stroke="midnightblue" d="M202.877,-196.614C151.364,-187.694 84.7803,-172.583 67,-152 55.7087,-138.929 53.5643,-119.535 54.1886,-103.61"/>
<polygon fill="midnightblue" stroke="midnightblue" points="57.7074,-103.499 54.9849,-93.26 50.7281,-102.962 57.7074,-103.499"/>
</g>
<!-- Node4 -->
<g id="node7" class="node"><title>Node4</title>
<polygon fill="white" stroke="#bfbfbf" points="102,-0.5 102,-21.5 158,-21.5 158,-0.5 102,-0.5"/>
<text text-anchor="middle" x="130" y="-8.5" font-family="Helvetica,sans-Serif" font-size="10.00">Rtypes.h</text>
</g>
<!-- Node1&#45;&gt;Node4 -->
<g id="edge34" class="edge"><title>Node1&#45;&gt;Node4</title>
<path fill="none" stroke="midnightblue" d="M259.561,-188.897C246.566,-160.114 217.773,-100.932 183,-58 174.171,-47.0993 162.688,-36.5819 152.669,-28.2702"/>
<polygon fill="midnightblue" stroke="midnightblue" points="154.672,-25.39 144.687,-21.8472 150.284,-30.8435 154.672,-25.39"/>
</g>
<!-- Node5 -->
<g id="node9" class="node"><title>Node5</title>
<polygon fill="white" stroke="#bfbfbf" points="133.5,-65.5 133.5,-86.5 174.5,-86.5 174.5,-65.5 133.5,-65.5"/>
<text text-anchor="middle" x="154" y="-73.5" font-family="Helvetica,sans-Serif" font-size="10.00">string</text>
</g>
<!-- Node1&#45;&gt;Node5 -->
<g id="edge40" class="edge"><title>Node1&#45;&gt;Node5</title>
<path fill="none" stroke="midnightblue" d="M240.421,-188.851C226.686,-179.136 210.278,-166.118 198,-152 183.087,-134.851 170.623,-111.906 162.812,-95.7281"/>
<polygon fill="midnightblue" stroke="midnightblue" points="165.972,-94.2225 158.57,-86.6423 159.629,-97.184 165.972,-94.2225"/>
</g>
<!-- Node6 -->
<g id="node12" class="node"><title>Node6</title>
<a xlink:href="interval_8h.html" target="_top" xlink:title="base/interval.h">
<polygon fill="white" stroke="black" points="316,-130.5 316,-151.5 396,-151.5 396,-130.5 316,-130.5"/>
<text text-anchor="middle" x="356" y="-138.5" font-family="Helvetica,sans-Serif" font-size="10.00">base/interval.h</text>
</a>
</g>
<!-- Node1&#45;&gt;Node6 -->
<g id="edge12" class="edge"><title>Node1&#45;&gt;Node6</title>
<path fill="none" stroke="midnightblue" d="M290.384,-188.922C303.65,-179.233 320.175,-167.165 333.322,-157.562"/>
<polygon fill="midnightblue" stroke="midnightblue" points="335.395,-160.383 341.406,-151.658 331.266,-154.73 335.395,-160.383"/>
</g>
<!-- Node14 -->
<g id="node28" class="node"><title>Node14</title>
<a xlink:href="memory_8h.html" target="_top" xlink:title="base/std_ext/memory.h">
<polygon fill="white" stroke="black" points="521.5,-130.5 521.5,-151.5 640.5,-151.5 640.5,-130.5 521.5,-130.5"/>
<text text-anchor="middle" x="581" y="-138.5" font-family="Helvetica,sans-Serif" font-size="10.00">base/std_ext/memory.h</text>
</a>
</g>
<!-- Node1&#45;&gt;Node14 -->
<g id="edge28" class="edge"><title>Node1&#45;&gt;Node14</title>
<path fill="none" stroke="midnightblue" d="M331.3,-192.689C386.703,-181.221 466.1,-164.785 520.399,-153.545"/>
<polygon fill="midnightblue" stroke="midnightblue" points="521.151,-156.963 530.234,-151.509 519.732,-150.109 521.151,-156.963"/>
</g>
<!-- Node15 -->
<g id="node30" class="node"><title>Node15</title>
<polygon fill="white" stroke="#bfbfbf" points="584,-65.5 584,-86.5 636,-86.5 636,-65.5 584,-65.5"/>
<text text-anchor="middle" x="610" y="-73.5" font-family="Helvetica,sans-Serif" font-size="10.00">memory</text>
</g>
<!-- Node1&#45;&gt;Node15 -->
<g id="edge36" class="edge"><title>Node1&#45;&gt;Node15</title>
<path fill="none" stroke="midnightblue" d="M320.111,-188.961C382.135,-168.544 487.406,-132.268 575,-94 577.086,-93.0887 579.221,-92.1098 581.359,-91.0963"/>
<polygon fill="midnightblue" stroke="midnightblue" points="583.175,-94.1029 590.588,-86.5339 580.073,-87.8277 583.175,-94.1029"/>
</g>
<!-- Node16 -->
<g id="node32" class="node"><title>Node16</title>
<polygon fill="white" stroke="#bfbfbf" points="653.5,-65.5 653.5,-86.5 682.5,-86.5 682.5,-65.5 653.5,-65.5"/>
<text text-anchor="middle" x="668" y="-73.5" font-family="Helvetica,sans-Serif" font-size="10.00">list</text>
</g>
<!-- Node1&#45;&gt;Node16 -->
<g id="edge38" class="edge"><title>Node1&#45;&gt;Node16</title>
<path fill="none" stroke="midnightblue" d="M331.046,-200.842C433.659,-192.007 625.794,-172.898 649,-152 664.254,-138.263 668.126,-114.305 668.734,-96.9537"/>
<polygon fill="midnightblue" stroke="midnightblue" points="672.234,-96.6848 668.749,-86.6795 665.234,-96.6742 672.234,-96.6848"/>
</g>
<!-- Node2&#45;&gt;Node3 -->
<g id="edge4" class="edge"><title>Node2&#45;&gt;Node3</title>
<path fill="none" stroke="midnightblue" d="M102.248,-130.267C95.7523,-122.3 86.6232,-111.104 78.3431,-100.949"/>
<polygon fill="midnightblue" stroke="midnightblue" points="80.9831,-98.6483 71.9511,-93.1099 75.558,-103.072 80.9831,-98.6483"/>
</g>
<!-- Node2&#45;&gt;Node5 -->
<g id="edge8" class="edge"><title>Node2&#45;&gt;Node5</title>
<path fill="none" stroke="midnightblue" d="M118.101,-130.267C124.425,-120.707 133.825,-106.496 141.421,-95.0152"/>
<polygon fill="midnightblue" stroke="midnightblue" points="144.433,-96.805 147.032,-86.5337 138.595,-92.9428 144.433,-96.805"/>
</g>
<!-- Node3&#45;&gt;Node4 -->
<g id="edge6" class="edge"><title>Node3&#45;&gt;Node4</title>
<path fill="none" stroke="midnightblue" d="M76.9172,-58.922C87.2761,-49.5702 100.092,-38.0007 110.535,-28.5724"/>
<polygon fill="midnightblue" stroke="midnightblue" points="112.902,-31.1511 117.979,-21.8521 108.211,-25.9552 112.902,-31.1511"/>
</g>
<!-- Node7 -->
<g id="node14" class="node"><title>Node7</title>
<polygon fill="white" stroke="#bfbfbf" points="230,-65.5 230,-86.5 286,-86.5 286,-65.5 230,-65.5"/>
<text text-anchor="middle" x="258" y="-73.5" font-family="Helvetica,sans-Serif" font-size="10.00">algorithm</text>
</g>
<!-- Node6&#45;&gt;Node7 -->
<g id="edge14" class="edge"><title>Node6&#45;&gt;Node7</title>
<path fill="none" stroke="midnightblue" d="M339.817,-130.267C324.262,-119.949 300.541,-104.216 282.639,-92.3421"/>
<polygon fill="midnightblue" stroke="midnightblue" points="284.15,-89.1444 273.882,-86.5337 280.281,-94.9779 284.15,-89.1444"/>
</g>
<!-- Node8 -->
<g id="node16" class="node"><title>Node8</title>
<polygon fill="white" stroke="#bfbfbf" points="303.5,-65.5 303.5,-86.5 362.5,-86.5 362.5,-65.5 303.5,-65.5"/>
<text text-anchor="middle" x="333" y="-73.5" font-family="Helvetica,sans-Serif" font-size="10.00">stdexcept</text>
</g>
<!-- Node6&#45;&gt;Node8 -->
<g id="edge16" class="edge"><title>Node6&#45;&gt;Node8</title>
<path fill="none" stroke="midnightblue" d="M352.202,-130.267C348.92,-120.991 344.088,-107.336 340.093,-96.0453"/>
<polygon fill="midnightblue" stroke="midnightblue" points="343.363,-94.7934 336.727,-86.5337 336.764,-97.1285 343.363,-94.7934"/>
</g>
<!-- Node9 -->
<g id="node18" class="node"><title>Node9</title>
<a xlink:href="printable_8h.html" target="_top" xlink:title="printable.h">
<polygon fill="white" stroke="black" points="380,-65.5 380,-86.5 442,-86.5 442,-65.5 380,-65.5"/>
<text text-anchor="middle" x="411" y="-73.5" font-family="Helvetica,sans-Serif" font-size="10.00">printable.h</text>
</a>
</g>
<!-- Node6&#45;&gt;Node9 -->
<g id="edge18" class="edge"><title>Node6&#45;&gt;Node9</title>
<path fill="none" stroke="midnightblue" d="M365.082,-130.267C373.331,-120.517 385.673,-105.932 395.485,-94.3365"/>
<polygon fill="midnightblue" stroke="midnightblue" points="398.299,-96.4284 402.087,-86.5337 392.956,-91.9068 398.299,-96.4284"/>
</g>
<!-- Node12 -->
<g id="node24" class="node"><title>Node12</title>
<a xlink:href="types_8h.html" target="_top" xlink:title="types.h">
<polygon fill="white" stroke="black" points="459.5,-65.5 459.5,-86.5 508.5,-86.5 508.5,-65.5 459.5,-65.5"/>
<text text-anchor="middle" x="484" y="-73.5" font-family="Helvetica,sans-Serif" font-size="10.00">types.h</text>
</a>
</g>
<!-- Node6&#45;&gt;Node12 -->
<g id="edge24" class="edge"><title>Node6&#45;&gt;Node12</title>
<path fill="none" stroke="midnightblue" d="M378.01,-130.419C397.345,-121.051 426.183,-106.901 451,-94 452.553,-93.1929 454.142,-92.3575 455.743,-91.5084"/>
<polygon fill="midnightblue" stroke="midnightblue" points="457.724,-94.4176 464.874,-86.6 454.409,-88.252 457.724,-94.4176"/>
</g>
<!-- Node13 -->
<g id="node26" class="node"><title>Node13</title>
<polygon fill="white" stroke="#bfbfbf" points="526,-65.5 526,-86.5 566,-86.5 566,-65.5 526,-65.5"/>
<text text-anchor="middle" x="546" y="-73.5" font-family="Helvetica,sans-Serif" font-size="10.00">limits</text>
</g>
<!-- Node6&#45;&gt;Node13 -->
<g id="edge26" class="edge"><title>Node6&#45;&gt;Node13</title>
<path fill="none" stroke="midnightblue" d="M396.103,-132.498C429.34,-124.703 477.381,-111.682 517,-94 518.6,-93.2861 520.217,-92.497 521.826,-91.6596"/>
<polygon fill="midnightblue" stroke="midnightblue" points="523.845,-94.5363 530.776,-86.5231 520.361,-88.465 523.845,-94.5363"/>
</g>
<!-- Node10 -->
<g id="node20" class="node"><title>Node10</title>
<polygon fill="white" stroke="#bfbfbf" points="356,-0.5 356,-21.5 400,-21.5 400,-0.5 356,-0.5"/>
<text text-anchor="middle" x="378" y="-8.5" font-family="Helvetica,sans-Serif" font-size="10.00">vector</text>
</g>
<!-- Node9&#45;&gt;Node10 -->
<g id="edge20" class="edge"><title>Node9&#45;&gt;Node10</title>
<path fill="none" stroke="midnightblue" d="M405.551,-65.2666C400.793,-55.8959 393.768,-42.0573 388.002,-30.7004"/>
<polygon fill="midnightblue" stroke="midnightblue" points="390.996,-28.8659 383.348,-21.5337 384.754,-32.0348 390.996,-28.8659"/>
</g>
<!-- Node11 -->
<g id="node22" class="node"><title>Node11</title>
<polygon fill="white" stroke="#bfbfbf" points="418,-0.5 418,-21.5 470,-21.5 470,-0.5 418,-0.5"/>
<text text-anchor="middle" x="444" y="-8.5" font-family="Helvetica,sans-Serif" font-size="10.00">ostream</text>
</g>
<!-- Node9&#45;&gt;Node11 -->
<g id="edge22" class="edge"><title>Node9&#45;&gt;Node11</title>
<path fill="none" stroke="midnightblue" d="M416.449,-65.2666C421.207,-55.8959 428.232,-42.0573 433.998,-30.7004"/>
<polygon fill="midnightblue" stroke="midnightblue" points="437.246,-32.0348 438.652,-21.5337 431.004,-28.8659 437.246,-32.0348"/>
</g>
<!-- Node14&#45;&gt;Node15 -->
<g id="edge30" class="edge"><title>Node14&#45;&gt;Node15</title>
<path fill="none" stroke="midnightblue" d="M585.789,-130.267C589.97,-120.896 596.144,-107.057 601.211,-95.7004"/>
<polygon fill="midnightblue" stroke="midnightblue" points="604.422,-97.0921 605.3,-86.5337 598.03,-94.24 604.422,-97.0921"/>
</g>
<!-- Node14&#45;&gt;Node16 -->
<g id="edge32" class="edge"><title>Node14&#45;&gt;Node16</title>
<path fill="none" stroke="midnightblue" d="M595.582,-130.486C608.615,-121.042 628.193,-106.743 645,-94 645.48,-93.6362 645.965,-93.2674 646.453,-92.8949"/>
<polygon fill="midnightblue" stroke="midnightblue" points="648.659,-95.6134 654.432,-86.7295 644.379,-90.0742 648.659,-95.6134"/>
</g>
</g>
</svg>
