<?xml version="1.0" encoding="UTF-8" standalone="no"?>
<!DOCTYPE svg PUBLIC "-//W3C//DTD SVG 1.1//EN"
 "http://www.w3.org/Graphics/SVG/1.1/DTD/svg11.dtd">
<!-- Generated by graphviz version 2.26.3 (20100126.1600)
 -->
<!-- Title: src/base/Format.h Pages: 1 -->
<svg width="804pt" height="88pt"
 viewBox="0.00 0.00 804.00 88.00" xmlns="http://www.w3.org/2000/svg" xmlns:xlink="http://www.w3.org/1999/xlink">
<g id="graph1" class="graph" transform="scale(1 1) rotate(0) translate(4 84)">
<title>src/base/Format.h</title>
<polygon fill="white" stroke="white" points="-4,5 -4,-84 801,-84 801,5 -4,5"/>
<!-- Node1 -->
<g id="node1" class="node"><title>Node1</title>
<polygon fill="#bfbfbf" stroke="black" points="362,-58.5 362,-79.5 458,-79.5 458,-58.5 362,-58.5"/>
<text text-anchor="middle" x="410" y="-66.5" font-family="Helvetica,sans-Serif" font-size="10.00">src/base/Format.h</text>
</g>
<!-- Node2 -->
<g id="node3" class="node"><title>Node2</title>
<polygon fill="white" stroke="#bfbfbf" points="-0.5,-0.5 -0.5,-21.5 78.5,-21.5 78.5,-0.5 -0.5,-0.5"/>
<text text-anchor="middle" x="39" y="-8.5" font-family="Helvetica,sans-Serif" font-size="10.00">detail/format.h</text>
</g>
<!-- Node1&#45;&gt;Node2 -->
<g id="edge2" class="edge"><title>Node1&#45;&gt;Node2</title>
<path fill="none" stroke="midnightblue" d="M361.915,-63.2358C300.614,-55.6145 191.17,-41.0961 88.6579,-22.2131"/>
<polygon fill="midnightblue" stroke="midnightblue" points="89.2323,-18.76 78.7608,-20.3722 87.9521,-25.6419 89.2323,-18.76"/>
</g>
<!-- Node3 -->
<g id="node5" class="node"><title>Node3</title>
<polygon fill="white" stroke="#bfbfbf" points="95.5,-0.5 95.5,-21.5 144.5,-21.5 144.5,-0.5 95.5,-0.5"/>
<text text-anchor="middle" x="120" y="-8.5" font-family="Helvetica,sans-Serif" font-size="10.00">stdint.h</text>
</g>
<!-- Node1&#45;&gt;Node3 -->
<g id="edge4" class="edge"><title>Node1&#45;&gt;Node3</title>
<path fill="none" stroke="midnightblue" d="M361.722,-62.249C311.872,-54.8166 231.741,-41.5846 154.63,-22.1899"/>
<polygon fill="midnightblue" stroke="midnightblue" points="155.31,-18.7514 144.755,-19.6676 153.577,-25.5336 155.31,-18.7514"/>
</g>
<!-- Node4 -->
<g id="node7" class="node"><title>Node4</title>
<polygon fill="white" stroke="#bfbfbf" points="161.5,-0.5 161.5,-21.5 210.5,-21.5 210.5,-0.5 161.5,-0.5"/>
<text text-anchor="middle" x="186" y="-8.5" font-family="Helvetica,sans-Serif" font-size="10.00">cassert</text>
</g>
<!-- Node1&#45;&gt;Node4 -->
<g id="edge6" class="edge"><title>Node1&#45;&gt;Node4</title>
<path fill="none" stroke="midnightblue" d="M362.624,-58.4598C326.001,-50.0599 273.867,-37.5569 220.435,-22.2847"/>
<polygon fill="midnightblue" stroke="midnightblue" points="221.378,-18.9141 210.799,-19.5042 219.437,-25.6396 221.378,-18.9141"/>
</g>
<!-- Node5 -->
<g id="node9" class="node"><title>Node5</title>
<polygon fill="white" stroke="#bfbfbf" points="228,-0.5 228,-21.5 272,-21.5 272,-0.5 228,-0.5"/>
<text text-anchor="middle" x="250" y="-8.5" font-family="Helvetica,sans-Serif" font-size="10.00">cmath</text>
</g>
<!-- Node1&#45;&gt;Node5 -->
<g id="edge8" class="edge"><title>Node1&#45;&gt;Node5</title>
<path fill="none" stroke="midnightblue" d="M381.025,-58.4966C352.992,-48.3345 310.611,-32.9717 281.693,-22.4888"/>
<polygon fill="midnightblue" stroke="midnightblue" points="282.666,-19.1185 272.071,-19.0009 280.28,-25.6994 282.666,-19.1185"/>
</g>
<!-- Node6 -->
<g id="node11" class="node"><title>Node6</title>
<polygon fill="white" stroke="#bfbfbf" points="289.5,-0.5 289.5,-21.5 338.5,-21.5 338.5,-0.5 289.5,-0.5"/>
<text text-anchor="middle" x="314" y="-8.5" font-family="Helvetica,sans-Serif" font-size="10.00">cstddef</text>
</g>
<!-- Node1&#45;&gt;Node6 -->
<g id="edge10" class="edge"><title>Node1&#45;&gt;Node6</title>
<path fill="none" stroke="midnightblue" d="M392.392,-58.3619C377.777,-49.532 356.776,-36.844 340.189,-26.8224"/>
<polygon fill="midnightblue" stroke="midnightblue" points="341.865,-23.7461 331.496,-21.5707 338.246,-29.7376 341.865,-23.7461"/>
</g>
<!-- Node7 -->
<g id="node13" class="node"><title>Node7</title>
<polygon fill="white" stroke="#bfbfbf" points="355.5,-0.5 355.5,-21.5 398.5,-21.5 398.5,-0.5 355.5,-0.5"/>
<text text-anchor="middle" x="377" y="-8.5" font-family="Helvetica,sans-Serif" font-size="10.00">cstdio</text>
</g>
<!-- Node1&#45;&gt;Node7 -->
<g id="edge12" class="edge"><title>Node1&#45;&gt;Node7</title>
<path fill="none" stroke="midnightblue" d="M403.947,-58.3619C399.528,-50.5949 393.41,-39.8426 388.121,-30.5458"/>
<polygon fill="midnightblue" stroke="midnightblue" points="391.002,-28.5315 383.014,-21.5707 384.918,-31.9932 391.002,-28.5315"/>
</g>
<!-- Node8 -->
<g id="node15" class="node"><title>Node8</title>
<polygon fill="white" stroke="#bfbfbf" points="416,-0.5 416,-21.5 472,-21.5 472,-0.5 416,-0.5"/>
<text text-anchor="middle" x="444" y="-8.5" font-family="Helvetica,sans-Serif" font-size="10.00">algorithm</text>
</g>
<!-- Node1&#45;&gt;Node8 -->
<g id="edge14" class="edge"><title>Node1&#45;&gt;Node8</title>
<path fill="none" stroke="midnightblue" d="M416.236,-58.3619C420.837,-50.5131 427.225,-39.6159 432.714,-30.2527"/>
<polygon fill="midnightblue" stroke="midnightblue" points="435.766,-31.9677 437.803,-21.5707 429.727,-28.4276 435.766,-31.9677"/>
</g>
<!-- Node9 -->
<g id="node17" class="node"><title>Node9</title>
<polygon fill="white" stroke="#bfbfbf" points="490,-0.5 490,-21.5 530,-21.5 530,-0.5 490,-0.5"/>
<text text-anchor="middle" x="510" y="-8.5" font-family="Helvetica,sans-Serif" font-size="10.00">limits</text>
</g>
<!-- Node1&#45;&gt;Node9 -->
<g id="edge16" class="edge"><title>Node1&#45;&gt;Node9</title>
<path fill="none" stroke="midnightblue" d="M428.342,-58.3619C443.566,-49.532 465.441,-36.844 482.72,-26.8224"/>
<polygon fill="midnightblue" stroke="midnightblue" points="484.88,-29.6155 491.775,-21.5707 481.368,-23.5603 484.88,-29.6155"/>
</g>
<!-- Node10 -->
<g id="node19" class="node"><title>Node10</title>
<polygon fill="white" stroke="#bfbfbf" points="547.5,-0.5 547.5,-21.5 606.5,-21.5 606.5,-0.5 547.5,-0.5"/>
<text text-anchor="middle" x="577" y="-8.5" font-family="Helvetica,sans-Serif" font-size="10.00">stdexcept</text>
</g>
<!-- Node1&#45;&gt;Node10 -->
<g id="edge18" class="edge"><title>Node1&#45;&gt;Node10</title>
<path fill="none" stroke="midnightblue" d="M440.242,-58.4966C467.519,-49.0233 507.809,-35.0305 537.598,-24.6847"/>
<polygon fill="midnightblue" stroke="midnightblue" points="538.965,-27.9149 547.263,-21.3277 536.669,-21.3023 538.965,-27.9149"/>
</g>
<!-- Node11 -->
<g id="node21" class="node"><title>Node11</title>
<polygon fill="white" stroke="#bfbfbf" points="623.5,-0.5 623.5,-21.5 664.5,-21.5 664.5,-0.5 623.5,-0.5"/>
<text text-anchor="middle" x="644" y="-8.5" font-family="Helvetica,sans-Serif" font-size="10.00">string</text>
</g>
<!-- Node1&#45;&gt;Node11 -->
<g id="edge20" class="edge"><title>Node1&#45;&gt;Node11</title>
<path fill="none" stroke="midnightblue" d="M458.123,-59.9112C497.772,-51.9871 555.564,-39.4395 613.53,-22.2001"/>
<polygon fill="midnightblue" stroke="midnightblue" points="614.648,-25.5186 623.209,-19.2773 612.624,-18.8174 614.648,-25.5186"/>
</g>
<!-- Node12 -->
<g id="node23" class="node"><title>Node12</title>
<polygon fill="white" stroke="#bfbfbf" points="682,-0.5 682,-21.5 734,-21.5 734,-0.5 682,-0.5"/>
<text text-anchor="middle" x="708" y="-8.5" font-family="Helvetica,sans-Serif" font-size="10.00">sstream</text>
</g>
<!-- Node1&#45;&gt;Node12 -->
<g id="edge22" class="edge"><title>Node1&#45;&gt;Node12</title>
<path fill="none" stroke="midnightblue" d="M458.378,-62.2494C509.362,-54.7137 592.118,-41.2881 672.003,-22.0298"/>
<polygon fill="midnightblue" stroke="midnightblue" points="672.846,-25.4269 681.728,-19.6523 671.183,-18.6272 672.846,-25.4269"/>
</g>
<!-- Node13 -->
<g id="node25" class="node"><title>Node13</title>
<polygon fill="white" stroke="#bfbfbf" points="752,-0.5 752,-21.5 796,-21.5 796,-0.5 752,-0.5"/>
<text text-anchor="middle" x="774" y="-8.5" font-family="Helvetica,sans-Serif" font-size="10.00">vector</text>
</g>
<!-- Node1&#45;&gt;Node13 -->
<g id="edge24" class="edge"><title>Node1&#45;&gt;Node13</title>
<path fill="none" stroke="midnightblue" d="M458.274,-65.2481C521.595,-59.6558 636.141,-47.2331 741.931,-21.8866"/>
<polygon fill="midnightblue" stroke="midnightblue" points="742.927,-25.2464 751.812,-19.4748 741.267,-18.4461 742.927,-25.2464"/>
</g>
</g>
</svg>
