<?xml version="1.0" encoding="UTF-8" standalone="no"?>
<!DOCTYPE svg PUBLIC "-//W3C//DTD SVG 1.1//EN"
 "http://www.w3.org/Graphics/SVG/1.1/DTD/svg11.dtd">
<!-- Generated by graphviz version 2.26.3 (20100126.1600)
 -->
<!-- Title: src/analysis/physics/omega/GeoAcceptance.cc Pages: 1 -->
<svg width="2561pt" height="566pt"
 viewBox="0.00 0.00 2561.40 566.00" xmlns="http://www.w3.org/2000/svg" xmlns:xlink="http://www.w3.org/1999/xlink">
<g id="graph1" class="graph" transform="scale(1 1) rotate(0) translate(4 562)">
<title>src/analysis/physics/omega/GeoAcceptance.cc</title>
<polygon fill="white" stroke="white" points="-4,5 -4,-562 2558.4,-562 2558.4,5 -4,5"/>
<!-- Node1 -->
<g id="node1" class="node"><title>Node1</title>
<polygon fill="#bfbfbf" stroke="black" points="1456.46,-523 1456.46,-557 1591.46,-557 1591.46,-523 1456.46,-523"/>
<text text-anchor="start" x="1464.46" y="-544" font-family="Helvetica,sans-Serif" font-size="10.00">src/analysis/physics</text>
<text text-anchor="middle" x="1523.96" y="-531" font-family="Helvetica,sans-Serif" font-size="10.00">/omega/GeoAcceptance.cc</text>
</g>
<!-- Node2 -->
<g id="node3" class="node"><title>Node2</title>
<a xlink:href="_geo_acceptance_8h.html" target="_top" xlink:title="GeoAcceptance.h">
<polygon fill="white" stroke="black" points="680.457,-464.5 680.457,-485.5 775.457,-485.5 775.457,-464.5 680.457,-464.5"/>
<text text-anchor="middle" x="727.957" y="-472.5" font-family="Helvetica,sans-Serif" font-size="10.00">GeoAcceptance.h</text>
</a>
</g>
<!-- Node1&#45;&gt;Node2 -->
<g id="edge2" class="edge"><title>Node1&#45;&gt;Node2</title>
<path fill="none" stroke="midnightblue" d="M1456.43,-534.486C1302.98,-521.956 930.218,-491.516 786.141,-479.751"/>
<polygon fill="midnightblue" stroke="midnightblue" points="786.013,-476.229 775.762,-478.904 785.444,-483.206 786.013,-476.229"/>
</g>
<!-- Node17 -->
<g id="node35" class="node"><title>Node17</title>
<a xlink:href="root__draw_8h.html" target="_top" xlink:title="root_draw.h">
<polygon fill="white" stroke="black" points="831.957,-232.5 831.957,-253.5 899.957,-253.5 899.957,-232.5 831.957,-232.5"/>
<text text-anchor="middle" x="865.957" y="-240.5" font-family="Helvetica,sans-Serif" font-size="10.00">root_draw.h</text>
</a>
</g>
<!-- Node1&#45;&gt;Node17 -->
<g id="edge268" class="edge"><title>Node1&#45;&gt;Node17</title>
<path fill="none" stroke="midnightblue" d="M1456.38,-537.376C1350.34,-532.307 1150.5,-518.642 1087.96,-486 1051.41,-466.925 1025.96,-458.228 1025.96,-417 1025.96,-417 1025.96,-417 1025.96,-359 1025.96,-301.503 957.395,-269.575 910.033,-254.378"/>
<polygon fill="midnightblue" stroke="midnightblue" points="910.868,-250.973 900.281,-251.386 908.814,-257.665 910.868,-250.973"/>
</g>
<!-- Node25 -->
<g id="node55" class="node"><title>Node25</title>
<polygon fill="white" stroke="#bfbfbf" points="955.457,-232.5 955.457,-253.5 1006.46,-253.5 1006.46,-232.5 955.457,-232.5"/>
<text text-anchor="middle" x="980.957" y="-240.5" font-family="Helvetica,sans-Serif" font-size="10.00">TH2D.h</text>
</g>
<!-- Node1&#45;&gt;Node25 -->
<g id="edge282" class="edge"><title>Node1&#45;&gt;Node25</title>
<path fill="none" stroke="midnightblue" d="M1456.43,-535.225C1361.92,-527.739 1195.6,-511.417 1140.96,-486 1099.29,-466.62 1063.96,-462.952 1063.96,-417 1063.96,-417 1063.96,-417 1063.96,-359 1063.96,-326.531 1058.73,-316.493 1039.96,-290 1031.39,-277.909 1018.87,-267.324 1007.56,-259.276"/>
<polygon fill="midnightblue" stroke="midnightblue" points="1009.48,-256.348 999.24,-253.633 1005.55,-262.142 1009.48,-256.348"/>
</g>
<!-- Node26 -->
<g id="node57" class="node"><title>Node26</title>
<polygon fill="white" stroke="#bfbfbf" points="1061.46,-232.5 1061.46,-253.5 1112.46,-253.5 1112.46,-232.5 1061.46,-232.5"/>
<text text-anchor="middle" x="1086.96" y="-240.5" font-family="Helvetica,sans-Serif" font-size="10.00">TH3D.h</text>
</g>
<!-- Node1&#45;&gt;Node26 -->
<g id="edge280" class="edge"><title>Node1&#45;&gt;Node26</title>
<path fill="none" stroke="midnightblue" d="M1456.16,-534.333C1336.87,-522.477 1101.96,-489.878 1101.96,-417 1101.96,-417 1101.96,-417 1101.96,-359 1101.96,-325.494 1095.73,-286.991 1091.3,-263.851"/>
<polygon fill="midnightblue" stroke="midnightblue" points="1094.68,-262.94 1089.3,-253.815 1087.82,-264.305 1094.68,-262.94"/>
</g>
<!-- Node29 -->
<g id="node65" class="node"><title>Node29</title>
<a xlink:href="_particle_8h.html" target="_top" xlink:title="analysis/data/Particle.h">
<polygon fill="white" stroke="black" points="1624.46,-290.5 1624.46,-311.5 1743.46,-311.5 1743.46,-290.5 1624.46,-290.5"/>
<text text-anchor="middle" x="1683.96" y="-298.5" font-family="Helvetica,sans-Serif" font-size="10.00">analysis/data/Particle.h</text>
</a>
</g>
<!-- Node1&#45;&gt;Node29 -->
<g id="edge248" class="edge"><title>Node1&#45;&gt;Node29</title>
<path fill="none" stroke="midnightblue" d="M1535.46,-522.812C1564.56,-479.354 1640.89,-365.328 1671.24,-319.988"/>
<polygon fill="midnightblue" stroke="midnightblue" points="1674.18,-321.898 1676.83,-311.641 1668.36,-318.004 1674.18,-321.898"/>
</g>
<!-- Node32 -->
<g id="node78" class="node"><title>Node32</title>
<a xlink:href="_candidate_8h.html" target="_top" xlink:title="analysis/data/Candidate.h">
<polygon fill="white" stroke="black" points="2103.96,-232.5 2103.96,-253.5 2233.96,-253.5 2233.96,-232.5 2103.96,-232.5"/>
<text text-anchor="middle" x="2168.96" y="-240.5" font-family="Helvetica,sans-Serif" font-size="10.00">analysis/data/Candidate.h</text>
</a>
</g>
<!-- Node1&#45;&gt;Node32 -->
<g id="edge250" class="edge"><title>Node1&#45;&gt;Node32</title>
<path fill="none" stroke="midnightblue" d="M1591.65,-536.6C1732.45,-529.088 2047.34,-509.84 2089.96,-486 2123.47,-467.252 2141.96,-455.4 2141.96,-417 2141.96,-417 2141.96,-417 2141.96,-359 2141.96,-324.728 2153.28,-286.207 2161.26,-263.307"/>
<polygon fill="midnightblue" stroke="midnightblue" points="2164.63,-264.275 2164.74,-253.681 2158.04,-261.894 2164.63,-264.275"/>
</g>
<!-- Node34 -->
<g id="node85" class="node"><title>Node34</title>
<polygon fill="white" stroke="#bfbfbf" points="2239.46,-58.5 2239.46,-79.5 2304.46,-79.5 2304.46,-58.5 2239.46,-58.5"/>
<text text-anchor="middle" x="2271.96" y="-66.5" font-family="Helvetica,sans-Serif" font-size="10.00">TVector3.h</text>
</g>
<!-- Node1&#45;&gt;Node34 -->
<g id="edge276" class="edge"><title>Node1&#45;&gt;Node34</title>
<path fill="none" stroke="midnightblue" d="M1591.71,-538.568C1726.88,-534.945 2025.2,-522.907 2119.96,-486 2285.7,-421.442 2437.96,-420.874 2437.96,-243 2437.96,-243 2437.96,-243 2437.96,-185 2437.96,-124.806 2363.71,-93.2428 2314.53,-78.9372"/>
<polygon fill="midnightblue" stroke="midnightblue" points="2315.33,-75.5258 2304.75,-76.2225 2313.45,-82.2706 2315.33,-75.5258"/>
</g>
<!-- Node40 -->
<g id="node110" class="node"><title>Node40</title>
<a xlink:href="_event_8h.html" target="_top" xlink:title="analysis/data/Event.h">
<polygon fill="white" stroke="black" points="1468.46,-348.5 1468.46,-369.5 1579.46,-369.5 1579.46,-348.5 1468.46,-348.5"/>
<text text-anchor="middle" x="1523.96" y="-356.5" font-family="Helvetica,sans-Serif" font-size="10.00">analysis/data/Event.h</text>
</a>
</g>
<!-- Node1&#45;&gt;Node40 -->
<g id="edge270" class="edge"><title>Node1&#45;&gt;Node40</title>
<path fill="none" stroke="midnightblue" d="M1523.96,-522.972C1523.96,-489.779 1523.96,-416.504 1523.96,-380.216"/>
<polygon fill="midnightblue" stroke="midnightblue" points="1527.46,-379.832 1523.96,-369.832 1520.46,-379.832 1527.46,-379.832"/>
</g>
<!-- Node47 -->
<g id="node136" class="node"><title>Node47</title>
<polygon fill="white" stroke="#bfbfbf" points="1836.96,-0.5 1836.96,-21.5 1888.96,-21.5 1888.96,-0.5 1836.96,-0.5"/>
<text text-anchor="middle" x="1862.96" y="-8.5" font-family="Helvetica,sans-Serif" font-size="10.00">sstream</text>
</g>
<!-- Node1&#45;&gt;Node47 -->
<g id="edge278" class="edge"><title>Node1&#45;&gt;Node47</title>
<path fill="none" stroke="midnightblue" d="M1591.63,-538.537C1811.9,-533.495 2496.3,-515.512 2532.96,-486 2557.73,-466.054 2551.96,-448.808 2551.96,-417 2551.96,-417 2551.96,-417 2551.96,-127 2551.96,-63.9312 2488.29,-76.3601 2427.96,-58 2377.56,-42.6654 2016.38,-20.1126 1899.41,-13.1357"/>
<polygon fill="midnightblue" stroke="midnightblue" points="1899.38,-9.62758 1889.19,-12.5285 1898.96,-16.6153 1899.38,-9.62758"/>
</g>
<!-- Node50 -->
<g id="node144" class="node"><title>Node50</title>
<polygon fill="white" stroke="#bfbfbf" points="1912.96,-116.5 1912.96,-137.5 1950.96,-137.5 1950.96,-116.5 1912.96,-116.5"/>
<text text-anchor="middle" x="1931.96" y="-124.5" font-family="Helvetica,sans-Serif" font-size="10.00">tuple</text>
</g>
<!-- Node1&#45;&gt;Node50 -->
<g id="edge274" class="edge"><title>Node1&#45;&gt;Node50</title>
<path fill="none" stroke="midnightblue" d="M1591.64,-531.965C1739.04,-513.551 2075.96,-466.092 2075.96,-417 2075.96,-417 2075.96,-417 2075.96,-301 2075.96,-228.486 2000.81,-169.938 1959.09,-143.019"/>
<polygon fill="midnightblue" stroke="midnightblue" points="1960.82,-139.971 1950.49,-137.611 1957.09,-145.897 1960.82,-139.971"/>
</g>
<!-- Node54 -->
<g id="node176" class="node"><title>Node54</title>
<polygon fill="white" stroke="#bfbfbf" points="945.457,-348.5 945.457,-369.5 998.457,-369.5 998.457,-348.5 945.457,-348.5"/>
<text text-anchor="middle" x="971.957" y="-356.5" font-family="Helvetica,sans-Serif" font-size="10.00">TMath.h</text>
</g>
<!-- Node1&#45;&gt;Node54 -->
<g id="edge272" class="edge"><title>Node1&#45;&gt;Node54</title>
<path fill="none" stroke="midnightblue" d="M1456.35,-536.961C1325.1,-530.475 1045.69,-513.581 1011.96,-486 980.043,-459.907 973.181,-408.541 971.955,-379.773"/>
<polygon fill="midnightblue" stroke="midnightblue" points="975.451,-379.539 971.72,-369.623 968.453,-379.702 975.451,-379.539"/>
</g>
<!-- Node55 -->
<g id="node181" class="node"><title>Node55</title>
<a xlink:href="combinatorics_8h.html" target="_top" xlink:title="utils/combinatorics.h">
<polygon fill="white" stroke="black" points="2417.46,-464.5 2417.46,-485.5 2524.46,-485.5 2524.46,-464.5 2417.46,-464.5"/>
<text text-anchor="middle" x="2470.96" y="-472.5" font-family="Helvetica,sans-Serif" font-size="10.00">utils/combinatorics.h</text>
</a>
</g>
<!-- Node1&#45;&gt;Node55 -->
<g id="edge252" class="edge"><title>Node1&#45;&gt;Node55</title>
<path fill="none" stroke="midnightblue" d="M1591.5,-538.191C1739.24,-533.722 2102.03,-519.96 2403.96,-486 2405.04,-485.878 2406.13,-485.751 2407.23,-485.618"/>
<polygon fill="midnightblue" stroke="midnightblue" points="2407.8,-489.073 2417.27,-484.307 2406.9,-482.132 2407.8,-489.073"/>
</g>
<!-- Node56 -->
<g id="node184" class="node"><title>Node56</title>
<a xlink:href="matcher_8h.html" target="_top" xlink:title="utils/matcher.h">
<polygon fill="white" stroke="black" points="63.4568,-232.5 63.4568,-253.5 144.457,-253.5 144.457,-232.5 63.4568,-232.5"/>
<text text-anchor="middle" x="103.957" y="-240.5" font-family="Helvetica,sans-Serif" font-size="10.00">utils/matcher.h</text>
</a>
</g>
<!-- Node1&#45;&gt;Node56 -->
<g id="edge256" class="edge"><title>Node1&#45;&gt;Node56</title>
<path fill="none" stroke="midnightblue" d="M1456.19,-537.913C1167.87,-528.597 57.9568,-488.115 57.9568,-417 57.9568,-417 57.9568,-417 57.9568,-359 57.9568,-322.793 77.5616,-284.422 91.1738,-262.144"/>
<polygon fill="midnightblue" stroke="midnightblue" points="94.1698,-263.955 96.5662,-253.634 88.257,-260.208 94.1698,-263.955"/>
</g>
<!-- Node3 -->
<g id="node5" class="node"><title>Node3</title>
<a xlink:href="_physics_8h.html" target="_top" xlink:title="analysis/physics/Physics.h">
<polygon fill="white" stroke="black" points="389.957,-406.5 389.957,-427.5 525.957,-427.5 525.957,-406.5 389.957,-406.5"/>
<text text-anchor="middle" x="457.957" y="-414.5" font-family="Helvetica,sans-Serif" font-size="10.00">analysis/physics/Physics.h</text>
</a>
</g>
<!-- Node2&#45;&gt;Node3 -->
<g id="edge4" class="edge"><title>Node2&#45;&gt;Node3</title>
<path fill="none" stroke="midnightblue" d="M680.308,-464.764C634.702,-454.968 565.789,-440.164 516.783,-429.637"/>
<polygon fill="midnightblue" stroke="midnightblue" points="517.464,-426.203 506.952,-427.525 515.994,-433.047 517.464,-426.203"/>
</g>
<!-- Node4 -->
<g id="node7" class="node"><title>Node4</title>
<a xlink:href="_histogram_factories_8h.html" target="_top" xlink:title="analysis/plot/HistogramFactories.h">
<polygon fill="white" stroke="black" points="123.957,-348.5 123.957,-369.5 291.957,-369.5 291.957,-348.5 123.957,-348.5"/>
<text text-anchor="middle" x="207.957" y="-356.5" font-family="Helvetica,sans-Serif" font-size="10.00">analysis/plot/HistogramFactories.h</text>
</a>
</g>
<!-- Node2&#45;&gt;Node4 -->
<g id="edge236" class="edge"><title>Node2&#45;&gt;Node4</title>
<path fill="none" stroke="midnightblue" d="M680.378,-472.251C612.848,-467.522 485.76,-455.551 380.957,-428 329.581,-414.494 272.899,-389.907 238.879,-374.023"/>
<polygon fill="midnightblue" stroke="midnightblue" points="240.031,-370.696 229.494,-369.593 237.043,-377.027 240.031,-370.696"/>
</g>
<!-- Node5 -->
<g id="node9" class="node"><title>Node5</title>
<a xlink:href="_histogram_8h.html" target="_top" xlink:title="Histogram.h">
<polygon fill="white" stroke="black" points="176.957,-232.5 176.957,-253.5 246.957,-253.5 246.957,-232.5 176.957,-232.5"/>
<text text-anchor="middle" x="211.957" y="-240.5" font-family="Helvetica,sans-Serif" font-size="10.00">Histogram.h</text>
</a>
</g>
<!-- Node2&#45;&gt;Node5 -->
<g id="edge232" class="edge"><title>Node2&#45;&gt;Node5</title>
<path fill="none" stroke="midnightblue" d="M680.243,-472.275C602.624,-467.244 444.455,-454.501 312.957,-428 223.066,-409.884 169.933,-443.39 114.957,-370 84.8517,-329.811 145.799,-282.969 184.1,-258.97"/>
<polygon fill="midnightblue" stroke="midnightblue" points="186.102,-261.848 192.816,-253.653 182.456,-255.872 186.102,-261.848"/>
</g>
<!-- Node16 -->
<g id="node32" class="node"><title>Node16</title>
<a xlink:href="_smart_hist_8h.html" target="_top" xlink:title="SmartHist.h">
<polygon fill="white" stroke="black" points="700.457,-290.5 700.457,-311.5 769.457,-311.5 769.457,-290.5 700.457,-290.5"/>
<text text-anchor="middle" x="734.957" y="-298.5" font-family="Helvetica,sans-Serif" font-size="10.00">SmartHist.h</text>
</a>
</g>
<!-- Node2&#45;&gt;Node16 -->
<g id="edge234" class="edge"><title>Node2&#45;&gt;Node16</title>
<path fill="none" stroke="midnightblue" d="M728.384,-464.377C729.514,-436.293 732.596,-359.673 734.104,-322.203"/>
<polygon fill="midnightblue" stroke="midnightblue" points="737.612,-322.06 734.517,-311.928 730.618,-321.779 737.612,-322.06"/>
</g>
<!-- Node2&#45;&gt;Node17 -->
<g id="edge238" class="edge"><title>Node2&#45;&gt;Node17</title>
<path fill="none" stroke="midnightblue" d="M734.245,-464.429C755.753,-428.271 826.588,-309.186 854.503,-262.255"/>
<polygon fill="midnightblue" stroke="midnightblue" points="857.528,-264.017 859.632,-253.634 851.511,-260.439 857.528,-264.017"/>
</g>
<!-- Node53 -->
<g id="node173" class="node"><title>Node53</title>
<a xlink:href="_a2_geo_acceptance_8h.html" target="_top" xlink:title="analysis/utils/A2GeoAcceptance.h">
<polygon fill="white" stroke="black" points="793.457,-406.5 793.457,-427.5 960.457,-427.5 960.457,-406.5 793.457,-406.5"/>
<text text-anchor="middle" x="876.957" y="-414.5" font-family="Helvetica,sans-Serif" font-size="10.00">analysis/utils/A2GeoAcceptance.h</text>
</a>
</g>
<!-- Node2&#45;&gt;Node53 -->
<g id="edge240" class="edge"><title>Node2&#45;&gt;Node53</title>
<path fill="none" stroke="midnightblue" d="M754.94,-464.497C778.81,-455.205 813.85,-441.565 840.264,-431.283"/>
<polygon fill="midnightblue" stroke="midnightblue" points="841.874,-434.412 849.923,-427.523 839.335,-427.889 841.874,-434.412"/>
</g>
<!-- Node3&#45;&gt;Node4 -->
<g id="edge6" class="edge"><title>Node3&#45;&gt;Node4</title>
<path fill="none" stroke="midnightblue" d="M412.684,-406.497C370.692,-396.755 308.098,-382.233 263.185,-371.813"/>
<polygon fill="midnightblue" stroke="midnightblue" points="263.847,-368.374 253.315,-369.523 262.265,-375.193 263.847,-368.374"/>
</g>
<!-- Node8 -->
<g id="node15" class="node"><title>Node8</title>
<polygon fill="white" stroke="#bfbfbf" points="521.457,-0.5 521.457,-21.5 562.457,-21.5 562.457,-0.5 521.457,-0.5"/>
<text text-anchor="middle" x="541.957" y="-8.5" font-family="Helvetica,sans-Serif" font-size="10.00">string</text>
</g>
<!-- Node3&#45;&gt;Node8 -->
<g id="edge224" class="edge"><title>Node3&#45;&gt;Node8</title>
<path fill="none" stroke="midnightblue" d="M433.23,-406.449C379.841,-383.425 257.702,-329.349 246.957,-312 241.808,-303.687 242.607,-298.757 246.957,-290 277.725,-228.065 319.732,-242.461 370.957,-196 403.387,-166.586 489.679,-70.03 525.752,-29.3401"/>
<polygon fill="midnightblue" stroke="midnightblue" points="528.449,-31.5731 532.458,-21.7659 523.208,-26.9326 528.449,-31.5731"/>
</g>
<!-- Node18 -->
<g id="node38" class="node"><title>Node18</title>
<polygon fill="white" stroke="#bfbfbf" points="1054.46,-116.5 1054.46,-137.5 1083.46,-137.5 1083.46,-116.5 1054.46,-116.5"/>
<text text-anchor="middle" x="1068.96" y="-124.5" font-family="Helvetica,sans-Serif" font-size="10.00">list</text>
</g>
<!-- Node3&#45;&gt;Node18 -->
<g id="edge222" class="edge"><title>Node3&#45;&gt;Node18</title>
<path fill="none" stroke="midnightblue" d="M453.24,-406.432C449.336,-397.072 444.097,-382.926 441.957,-370 431.895,-309.222 417.905,-281.217 454.957,-232 456.976,-229.319 557.747,-174.981 560.957,-174 607.503,-159.782 948.602,-135.332 1044.14,-128.701"/>
<polygon fill="midnightblue" stroke="midnightblue" points="1044.57,-132.18 1054.31,-127.999 1044.09,-125.197 1044.57,-132.18"/>
</g>
<!-- Node19 -->
<g id="node41" class="node"><title>Node19</title>
<polygon fill="white" stroke="#bfbfbf" points="951.457,-174.5 951.457,-195.5 986.457,-195.5 986.457,-174.5 951.457,-174.5"/>
<text text-anchor="middle" x="968.957" y="-182.5" font-family="Helvetica,sans-Serif" font-size="10.00">map</text>
</g>
<!-- Node3&#45;&gt;Node19 -->
<g id="edge226" class="edge"><title>Node3&#45;&gt;Node19</title>
<path fill="none" stroke="midnightblue" d="M459.083,-406.325C463.095,-370.472 477.913,-255.315 504.957,-232 538.101,-203.426 846.175,-189.594 941.189,-185.983"/>
<polygon fill="midnightblue" stroke="midnightblue" points="941.58,-189.471 951.443,-185.602 941.32,-182.476 941.58,-189.471"/>
</g>
<!-- Node20 -->
<g id="node43" class="node"><title>Node20</title>
<polygon fill="white" stroke="#bfbfbf" points="1003.96,-174.5 1003.96,-195.5 1055.96,-195.5 1055.96,-174.5 1003.96,-174.5"/>
<text text-anchor="middle" x="1029.96" y="-182.5" font-family="Helvetica,sans-Serif" font-size="10.00">memory</text>
</g>
<!-- Node3&#45;&gt;Node20 -->
<g id="edge228" class="edge"><title>Node3&#45;&gt;Node20</title>
<path fill="none" stroke="midnightblue" d="M523.049,-406.458C655.045,-383.776 947.43,-326.473 1014.96,-254 1026.99,-241.081 1030.23,-220.856 1030.77,-205.636"/>
<polygon fill="midnightblue" stroke="midnightblue" points="1034.27,-205.613 1030.76,-195.615 1027.27,-205.616 1034.27,-205.613"/>
</g>
<!-- Node21 -->
<g id="node45" class="node"><title>Node21</title>
<polygon fill="white" stroke="#bfbfbf" points="569.457,-174.5 569.457,-195.5 628.457,-195.5 628.457,-174.5 569.457,-174.5"/>
<text text-anchor="middle" x="598.957" y="-182.5" font-family="Helvetica,sans-Serif" font-size="10.00">functional</text>
</g>
<!-- Node3&#45;&gt;Node21 -->
<g id="edge230" class="edge"><title>Node3&#45;&gt;Node21</title>
<path fill="none" stroke="midnightblue" d="M455.207,-406.459C447.904,-375.9 431.241,-286.013 471.957,-232 477.535,-224.6 524.421,-208.486 559.613,-197.199"/>
<polygon fill="midnightblue" stroke="midnightblue" points="560.716,-200.521 569.185,-194.155 558.594,-193.85 560.716,-200.521"/>
</g>
<!-- Node3&#45;&gt;Node40 -->
<g id="edge140" class="edge"><title>Node3&#45;&gt;Node40</title>
<path fill="none" stroke="midnightblue" d="M526.262,-413.284C719.498,-402.77 1268.32,-372.909 1458.29,-362.573"/>
<polygon fill="midnightblue" stroke="midnightblue" points="1458.61,-366.061 1468.4,-362.023 1458.23,-359.071 1458.61,-366.061"/>
</g>
<!-- Node52 -->
<g id="node161" class="node"><title>Node52</title>
<a xlink:href="_slowcontrol_8h.html" target="_top" xlink:title="analysis/data/Slowcontrol.h">
<polygon fill="white" stroke="black" points="255.457,-290.5 255.457,-311.5 392.457,-311.5 392.457,-290.5 255.457,-290.5"/>
<text text-anchor="middle" x="323.957" y="-298.5" font-family="Helvetica,sans-Serif" font-size="10.00">analysis/data/Slowcontrol.h</text>
</a>
</g>
<!-- Node3&#45;&gt;Node52 -->
<g id="edge218" class="edge"><title>Node3&#45;&gt;Node52</title>
<path fill="none" stroke="midnightblue" d="M445.591,-406.295C422.357,-386.182 372.001,-342.59 343.913,-318.275"/>
<polygon fill="midnightblue" stroke="midnightblue" points="346.145,-315.578 336.293,-311.679 341.563,-320.87 346.145,-315.578"/>
</g>
<!-- Node4&#45;&gt;Node5 -->
<g id="edge8" class="edge"><title>Node4&#45;&gt;Node5</title>
<path fill="none" stroke="midnightblue" d="M208.326,-348.295C208.987,-329.131 210.383,-288.654 211.238,-263.843"/>
<polygon fill="midnightblue" stroke="midnightblue" points="214.742,-263.794 211.589,-253.679 207.746,-263.553 214.742,-263.794"/>
</g>
<!-- Node4&#45;&gt;Node8 -->
<g id="edge138" class="edge"><title>Node4&#45;&gt;Node8</title>
<path fill="none" stroke="midnightblue" d="M178.007,-348.469C141.316,-333.752 80.8491,-303.172 54.9568,-254 11.9287,-172.285 42.0736,-100.707 123.957,-58 191.483,-22.7806 426.458,-13.7517 511.193,-11.6152"/>
<polygon fill="midnightblue" stroke="midnightblue" points="511.302,-15.1137 521.216,-11.3774 511.136,-8.11568 511.302,-15.1137"/>
</g>
<!-- Node4&#45;&gt;Node16 -->
<g id="edge32" class="edge"><title>Node4&#45;&gt;Node16</title>
<path fill="none" stroke="midnightblue" d="M292.044,-349.746C405.139,-337.299 602.208,-315.61 690.248,-305.921"/>
<polygon fill="midnightblue" stroke="midnightblue" points="690.874,-309.373 700.431,-304.8 690.108,-302.415 690.874,-309.373"/>
</g>
<!-- Node4&#45;&gt;Node29 -->
<g id="edge72" class="edge"><title>Node4&#45;&gt;Node29</title>
<path fill="none" stroke="midnightblue" d="M292.038,-357.193C502.206,-352.422 1067.34,-338.034 1537.96,-312 1562.83,-310.624 1590.05,-308.69 1614.19,-306.826"/>
<polygon fill="midnightblue" stroke="midnightblue" points="1614.63,-310.302 1624.32,-306.033 1614.08,-303.324 1614.63,-310.302"/>
</g>
<!-- Node6 -->
<g id="node11" class="node"><title>Node6</title>
<polygon fill="white" stroke="#bfbfbf" points="307.957,-174.5 307.957,-195.5 361.957,-195.5 361.957,-174.5 307.957,-174.5"/>
<text text-anchor="middle" x="334.957" y="-182.5" font-family="Helvetica,sans-Serif" font-size="10.00">TColor.h</text>
</g>
<!-- Node5&#45;&gt;Node6 -->
<g id="edge10" class="edge"><title>Node5&#45;&gt;Node6</title>
<path fill="none" stroke="midnightblue" d="M234.231,-232.497C253.529,-223.397 281.67,-210.127 303.305,-199.925"/>
<polygon fill="midnightblue" stroke="midnightblue" points="304.88,-203.052 312.433,-195.621 301.895,-196.721 304.88,-203.052"/>
</g>
<!-- Node7 -->
<g id="node13" class="node"><title>Node7</title>
<polygon fill="white" stroke="#bfbfbf" points="1616.96,-0.5 1616.96,-21.5 1660.96,-21.5 1660.96,-0.5 1616.96,-0.5"/>
<text text-anchor="middle" x="1638.96" y="-8.5" font-family="Helvetica,sans-Serif" font-size="10.00">vector</text>
</g>
<!-- Node5&#45;&gt;Node7 -->
<g id="edge12" class="edge"><title>Node5&#45;&gt;Node7</title>
<path fill="none" stroke="midnightblue" d="M247.26,-235.226C280.076,-227.384 329.925,-213.886 370.957,-196 481.286,-147.907 488.628,-92.4217 603.957,-58 701.89,-28.7701 1441.72,-14.3958 1606.49,-11.5383"/>
<polygon fill="midnightblue" stroke="midnightblue" points="1606.99,-15.0304 1616.93,-11.3595 1606.87,-8.03147 1606.99,-15.0304"/>
</g>
<!-- Node5&#45;&gt;Node8 -->
<g id="edge14" class="edge"><title>Node5&#45;&gt;Node8</title>
<path fill="none" stroke="midnightblue" d="M195.094,-232.375C176.298,-219.13 150.125,-195.6 162.957,-174 237.574,-48.3981 433.883,-19.4687 510.599,-12.8976"/>
<polygon fill="midnightblue" stroke="midnightblue" points="511.326,-16.3515 521.022,-12.0815 510.779,-9.37289 511.326,-16.3515"/>
</g>
<!-- Node9 -->
<g id="node17" class="node"><title>Node9</title>
<a xlink:href="interval_8h.html" target="_top" xlink:title="base/interval.h">
<polygon fill="white" stroke="black" points="171.957,-174.5 171.957,-195.5 251.957,-195.5 251.957,-174.5 171.957,-174.5"/>
<text text-anchor="middle" x="211.957" y="-182.5" font-family="Helvetica,sans-Serif" font-size="10.00">base/interval.h</text>
</a>
</g>
<!-- Node5&#45;&gt;Node9 -->
<g id="edge16" class="edge"><title>Node5&#45;&gt;Node9</title>
<path fill="none" stroke="midnightblue" d="M211.957,-232.362C211.957,-224.922 211.957,-214.743 211.957,-205.728"/>
<polygon fill="midnightblue" stroke="midnightblue" points="215.457,-205.571 211.957,-195.571 208.457,-205.571 215.457,-205.571"/>
</g>
<!-- Node10 -->
<g id="node19" class="node"><title>Node10</title>
<polygon fill="white" stroke="#bfbfbf" points="183.957,-0.5 183.957,-21.5 239.957,-21.5 239.957,-0.5 183.957,-0.5"/>
<text text-anchor="middle" x="211.957" y="-8.5" font-family="Helvetica,sans-Serif" font-size="10.00">algorithm</text>
</g>
<!-- Node9&#45;&gt;Node10 -->
<g id="edge18" class="edge"><title>Node9&#45;&gt;Node10</title>
<path fill="none" stroke="midnightblue" d="M211.957,-174.377C211.957,-146.293 211.957,-69.6735 211.957,-32.2027"/>
<polygon fill="midnightblue" stroke="midnightblue" points="215.457,-31.9277 211.957,-21.9277 208.457,-31.9278 215.457,-31.9277"/>
</g>
<!-- Node11 -->
<g id="node21" class="node"><title>Node11</title>
<polygon fill="white" stroke="#bfbfbf" points="1351.46,-58.5 1351.46,-79.5 1410.46,-79.5 1410.46,-58.5 1351.46,-58.5"/>
<text text-anchor="middle" x="1380.96" y="-66.5" font-family="Helvetica,sans-Serif" font-size="10.00">stdexcept</text>
</g>
<!-- Node9&#45;&gt;Node11 -->
<g id="edge20" class="edge"><title>Node9&#45;&gt;Node11</title>
<path fill="none" stroke="midnightblue" d="M252.137,-174.901C253.761,-174.58 255.373,-174.278 256.957,-174 492.083,-132.678 553.128,-136.718 790.957,-116 1034.12,-94.8174 1098.03,-119.097 1338.96,-80 1339.71,-79.8778 1340.47,-79.748 1341.23,-79.6114"/>
<polygon fill="midnightblue" stroke="midnightblue" points="1342.2,-82.9848 1351.28,-77.5203 1340.78,-76.1317 1342.2,-82.9848"/>
</g>
<!-- Node12 -->
<g id="node23" class="node"><title>Node12</title>
<a xlink:href="printable_8h.html" target="_top" xlink:title="printable.h">
<polygon fill="white" stroke="black" points="1887.96,-58.5 1887.96,-79.5 1949.96,-79.5 1949.96,-58.5 1887.96,-58.5"/>
<text text-anchor="middle" x="1918.96" y="-66.5" font-family="Helvetica,sans-Serif" font-size="10.00">printable.h</text>
</a>
</g>
<!-- Node9&#45;&gt;Node12 -->
<g id="edge22" class="edge"><title>Node9&#45;&gt;Node12</title>
<path fill="none" stroke="midnightblue" d="M252.125,-174.83C253.753,-174.53 255.368,-174.251 256.957,-174 343.785,-160.294 958.203,-121.121 1045.96,-116 1412.55,-94.6088 1511.1,-136.72 1877.57,-79.9022"/>
<polygon fill="midnightblue" stroke="midnightblue" points="1878.32,-83.3275 1887.66,-78.3236 1877.24,-76.4117 1878.32,-83.3275"/>
</g>
<!-- Node14 -->
<g id="node28" class="node"><title>Node14</title>
<a xlink:href="types_8h.html" target="_top" xlink:title="types.h">
<polygon fill="white" stroke="black" points="1780.46,-116.5 1780.46,-137.5 1829.46,-137.5 1829.46,-116.5 1780.46,-116.5"/>
<text text-anchor="middle" x="1804.96" y="-124.5" font-family="Helvetica,sans-Serif" font-size="10.00">types.h</text>
</a>
</g>
<!-- Node9&#45;&gt;Node14 -->
<g id="edge28" class="edge"><title>Node9&#45;&gt;Node14</title>
<path fill="none" stroke="midnightblue" d="M252.155,-179.085C266.85,-177.143 283.626,-175.181 298.957,-174 867.717,-130.17 1011.94,-160.053 1581.96,-138 1648.51,-135.425 1726.19,-131.351 1770.07,-128.95"/>
<polygon fill="midnightblue" stroke="midnightblue" points="1770.42,-132.437 1780.21,-128.392 1770.04,-125.447 1770.42,-132.437"/>
</g>
<!-- Node15 -->
<g id="node30" class="node"><title>Node15</title>
<polygon fill="white" stroke="#bfbfbf" points="95.9568,-116.5 95.9568,-137.5 135.957,-137.5 135.957,-116.5 95.9568,-116.5"/>
<text text-anchor="middle" x="115.957" y="-124.5" font-family="Helvetica,sans-Serif" font-size="10.00">limits</text>
</g>
<!-- Node9&#45;&gt;Node15 -->
<g id="edge30" class="edge"><title>Node9&#45;&gt;Node15</title>
<path fill="none" stroke="midnightblue" d="M194.349,-174.362C179.734,-165.532 158.733,-152.844 142.146,-142.822"/>
<polygon fill="midnightblue" stroke="midnightblue" points="143.822,-139.746 133.453,-137.571 140.202,-145.738 143.822,-139.746"/>
</g>
<!-- Node12&#45;&gt;Node7 -->
<g id="edge24" class="edge"><title>Node12&#45;&gt;Node7</title>
<path fill="none" stroke="midnightblue" d="M1887.57,-60.1297C1884.67,-59.381 1881.76,-58.6592 1878.96,-58 1805.14,-40.6488 1717.52,-24.6333 1671.27,-16.534"/>
<polygon fill="midnightblue" stroke="midnightblue" points="1671.7,-13.0554 1661.24,-14.7886 1670.5,-19.9517 1671.7,-13.0554"/>
</g>
<!-- Node13 -->
<g id="node26" class="node"><title>Node13</title>
<polygon fill="white" stroke="#bfbfbf" points="2064.96,-0.5 2064.96,-21.5 2116.96,-21.5 2116.96,-0.5 2064.96,-0.5"/>
<text text-anchor="middle" x="2090.96" y="-8.5" font-family="Helvetica,sans-Serif" font-size="10.00">ostream</text>
</g>
<!-- Node12&#45;&gt;Node13 -->
<g id="edge26" class="edge"><title>Node12&#45;&gt;Node13</title>
<path fill="none" stroke="midnightblue" d="M1950.1,-58.4966C1979.72,-48.5109 2024.22,-33.5033 2055.26,-23.0389"/>
<polygon fill="midnightblue" stroke="midnightblue" points="2056.46,-26.325 2064.82,-19.8131 2054.23,-19.692 2056.46,-26.325"/>
</g>
<!-- Node16&#45;&gt;Node5 -->
<g id="edge34" class="edge"><title>Node16&#45;&gt;Node5</title>
<path fill="none" stroke="midnightblue" d="M700.236,-297.15C608.48,-286.974 359.586,-259.372 257.043,-248"/>
<polygon fill="midnightblue" stroke="midnightblue" points="257.333,-244.511 247.008,-246.887 256.561,-251.468 257.333,-244.511"/>
</g>
<!-- Node16&#45;&gt;Node8 -->
<g id="edge66" class="edge"><title>Node16&#45;&gt;Node8</title>
<path fill="none" stroke="midnightblue" d="M700.022,-299.095C641.868,-295.114 529.183,-283.678 504.957,-254 450.652,-187.476 504.585,-75.3855 530.146,-30.4713"/>
<polygon fill="midnightblue" stroke="midnightblue" points="533.239,-32.1144 535.26,-21.7141 527.194,-28.5842 533.239,-32.1144"/>
</g>
<!-- Node16&#45;&gt;Node17 -->
<g id="edge36" class="edge"><title>Node16&#45;&gt;Node17</title>
<path fill="none" stroke="midnightblue" d="M758.68,-290.497C779.325,-281.356 809.473,-268.008 832.556,-257.788"/>
<polygon fill="midnightblue" stroke="midnightblue" points="834.241,-260.87 841.968,-253.621 831.407,-254.469 834.241,-260.87"/>
</g>
<!-- Node16&#45;&gt;Node20 -->
<g id="edge64" class="edge"><title>Node16&#45;&gt;Node20</title>
<path fill="none" stroke="midnightblue" d="M769.509,-294.451C805.262,-287.038 862.3,-273.414 908.957,-254 926.974,-246.503 930.021,-241.697 946.957,-232 965.337,-221.476 986.068,-209.736 1002.21,-200.622"/>
<polygon fill="midnightblue" stroke="midnightblue" points="1004.15,-203.55 1011.14,-195.589 1000.71,-197.453 1004.15,-203.55"/>
</g>
<!-- Node23 -->
<g id="node49" class="node"><title>Node23</title>
<a xlink:href="memory_8h.html" target="_top" xlink:title="base/std_ext/memory.h">
<polygon fill="white" stroke="black" points="589.457,-232.5 589.457,-253.5 708.457,-253.5 708.457,-232.5 589.457,-232.5"/>
<text text-anchor="middle" x="648.957" y="-240.5" font-family="Helvetica,sans-Serif" font-size="10.00">base/std_ext/memory.h</text>
</a>
</g>
<!-- Node16&#45;&gt;Node23 -->
<g id="edge52" class="edge"><title>Node16&#45;&gt;Node23</title>
<path fill="none" stroke="midnightblue" d="M719.183,-290.362C706.333,-281.696 687.972,-269.313 673.247,-259.382"/>
<polygon fill="midnightblue" stroke="midnightblue" points="674.878,-256.26 664.631,-253.571 670.964,-262.064 674.878,-256.26"/>
</g>
<!-- Node24 -->
<g id="node53" class="node"><title>Node24</title>
<polygon fill="white" stroke="#bfbfbf" points="725.457,-232.5 725.457,-253.5 776.457,-253.5 776.457,-232.5 725.457,-232.5"/>
<text text-anchor="middle" x="750.957" y="-240.5" font-family="Helvetica,sans-Serif" font-size="10.00">TH1D.h</text>
</g>
<!-- Node16&#45;&gt;Node24 -->
<g id="edge58" class="edge"><title>Node16&#45;&gt;Node24</title>
<path fill="none" stroke="midnightblue" d="M737.891,-290.362C739.966,-282.84 742.814,-272.519 745.321,-263.431"/>
<polygon fill="midnightblue" stroke="midnightblue" points="748.755,-264.141 748.041,-253.571 742.007,-262.28 748.755,-264.141"/>
</g>
<!-- Node16&#45;&gt;Node25 -->
<g id="edge60" class="edge"><title>Node16&#45;&gt;Node25</title>
<path fill="none" stroke="midnightblue" d="M769.516,-293.725C810.72,-284.918 881.599,-269.353 941.957,-254 943.184,-253.688 944.432,-253.365 945.69,-253.035"/>
<polygon fill="midnightblue" stroke="midnightblue" points="946.673,-256.395 955.414,-250.408 944.847,-249.637 946.673,-256.395"/>
</g>
<!-- Node16&#45;&gt;Node26 -->
<g id="edge62" class="edge"><title>Node16&#45;&gt;Node26</title>
<path fill="none" stroke="midnightblue" d="M769.671,-295.28C836.679,-284.239 983.212,-260.094 1051.11,-248.907"/>
<polygon fill="midnightblue" stroke="midnightblue" points="1052.01,-252.306 1061.3,-247.227 1050.87,-245.399 1052.01,-252.306"/>
</g>
<!-- Node27 -->
<g id="node61" class="node"><title>Node27</title>
<polygon fill="white" stroke="#bfbfbf" points="1281.96,-232.5 1281.96,-253.5 1335.96,-253.5 1335.96,-232.5 1281.96,-232.5"/>
<text text-anchor="middle" x="1308.96" y="-240.5" font-family="Helvetica,sans-Serif" font-size="10.00">iostream</text>
</g>
<!-- Node16&#45;&gt;Node27 -->
<g id="edge68" class="edge"><title>Node16&#45;&gt;Node27</title>
<path fill="none" stroke="midnightblue" d="M769.57,-297.502C871.037,-287.25 1167.16,-257.327 1271.8,-246.754"/>
<polygon fill="midnightblue" stroke="midnightblue" points="1272.29,-250.223 1281.89,-245.735 1271.59,-243.258 1272.29,-250.223"/>
</g>
<!-- Node28 -->
<g id="node63" class="node"><title>Node28</title>
<polygon fill="white" stroke="#bfbfbf" points="513.457,-232.5 513.457,-253.5 572.457,-253.5 572.457,-232.5 513.457,-232.5"/>
<text text-anchor="middle" x="542.957" y="-240.5" font-family="Helvetica,sans-Serif" font-size="10.00">exception</text>
</g>
<!-- Node16&#45;&gt;Node28 -->
<g id="edge70" class="edge"><title>Node16&#45;&gt;Node28</title>
<path fill="none" stroke="midnightblue" d="M700.187,-290.497C667.041,-280.484 617.181,-265.422 582.529,-254.954"/>
<polygon fill="midnightblue" stroke="midnightblue" points="583.327,-251.539 572.742,-251.998 581.303,-258.24 583.327,-251.539"/>
</g>
<!-- Node17&#45;&gt;Node7 -->
<g id="edge42" class="edge"><title>Node17&#45;&gt;Node7</title>
<path fill="none" stroke="midnightblue" d="M867.199,-232.458C869.258,-218.263 874.364,-192.64 885.957,-174 926.329,-109.084 942.772,-88.3002 1012.96,-58 1067.71,-34.3606 1486.51,-16.7846 1606.76,-12.1861"/>
<polygon fill="midnightblue" stroke="midnightblue" points="1606.96,-15.6814 1616.82,-11.8054 1606.69,-8.68641 1606.96,-15.6814"/>
</g>
<!-- Node17&#45;&gt;Node8 -->
<g id="edge38" class="edge"><title>Node17&#45;&gt;Node8</title>
<path fill="none" stroke="midnightblue" d="M851.193,-232.429C799.748,-195.591 628.098,-72.6815 565.261,-27.6871"/>
<polygon fill="midnightblue" stroke="midnightblue" points="566.975,-24.6097 556.807,-21.6335 562.9,-30.3011 566.975,-24.6097"/>
</g>
<!-- Node17&#45;&gt;Node18 -->
<g id="edge40" class="edge"><title>Node17&#45;&gt;Node18</title>
<path fill="none" stroke="midnightblue" d="M869.886,-232.433C876.073,-217.245 889.525,-189.38 909.957,-174 950.454,-143.515 1010.47,-132.731 1043.99,-128.969"/>
<polygon fill="midnightblue" stroke="midnightblue" points="1044.67,-132.418 1054.28,-127.944 1043.98,-125.452 1044.67,-132.418"/>
</g>
<!-- Node17&#45;&gt;Node19 -->
<g id="edge44" class="edge"><title>Node17&#45;&gt;Node19</title>
<path fill="none" stroke="midnightblue" d="M884.849,-232.362C900.971,-223.283 924.337,-210.126 942.352,-199.982"/>
<polygon fill="midnightblue" stroke="midnightblue" points="944.221,-202.946 951.218,-194.989 940.787,-196.846 944.221,-202.946"/>
</g>
<!-- Node17&#45;&gt;Node20 -->
<g id="edge46" class="edge"><title>Node17&#45;&gt;Node20</title>
<path fill="none" stroke="midnightblue" d="M895.656,-232.497C923.355,-222.701 964.718,-208.072 994.214,-197.641"/>
<polygon fill="midnightblue" stroke="midnightblue" points="995.465,-200.911 1003.73,-194.277 993.131,-194.312 995.465,-200.911"/>
</g>
<!-- Node17&#45;&gt;Node21 -->
<g id="edge48" class="edge"><title>Node17&#45;&gt;Node21</title>
<path fill="none" stroke="midnightblue" d="M831.882,-235.13C827.205,-234.068 822.464,-233 817.957,-232 755.397,-218.119 682.633,-202.634 638.724,-193.361"/>
<polygon fill="midnightblue" stroke="midnightblue" points="639.247,-189.895 628.74,-191.255 637.802,-196.744 639.247,-189.895"/>
</g>
<!-- Node22 -->
<g id="node47" class="node"><title>Node22</title>
<polygon fill="white" stroke="#bfbfbf" points="1138.96,-116.5 1138.96,-137.5 1194.96,-137.5 1194.96,-116.5 1138.96,-116.5"/>
<text text-anchor="middle" x="1166.96" y="-124.5" font-family="Helvetica,sans-Serif" font-size="10.00">Rtypes.h</text>
</g>
<!-- Node17&#45;&gt;Node22 -->
<g id="edge50" class="edge"><title>Node17&#45;&gt;Node22</title>
<path fill="none" stroke="midnightblue" d="M874.448,-232.483C887.482,-217.093 913.972,-188.678 942.957,-174 975.011,-157.768 1073.56,-141.015 1128.66,-132.577"/>
<polygon fill="midnightblue" stroke="midnightblue" points="1129.38,-136.008 1138.75,-131.052 1128.33,-129.087 1129.38,-136.008"/>
</g>
<!-- Node23&#45;&gt;Node18 -->
<g id="edge56" class="edge"><title>Node23&#45;&gt;Node18</title>
<path fill="none" stroke="midnightblue" d="M683.794,-232.48C729.916,-218.638 813.833,-193.755 885.957,-174 942.438,-158.529 1009.14,-141.778 1044.34,-133.057"/>
<polygon fill="midnightblue" stroke="midnightblue" points="1045.34,-136.416 1054.21,-130.618 1043.66,-129.62 1045.34,-136.416"/>
</g>
<!-- Node23&#45;&gt;Node20 -->
<g id="edge54" class="edge"><title>Node23&#45;&gt;Node20</title>
<path fill="none" stroke="midnightblue" d="M708.645,-233.235C711.453,-232.81 714.235,-232.396 716.957,-232 836.993,-214.523 871.477,-222.339 993.599,-196.006"/>
<polygon fill="midnightblue" stroke="midnightblue" points="994.698,-199.349 1003.72,-193.791 993.2,-192.511 994.698,-199.349"/>
</g>
<!-- Node29&#45;&gt;Node7 -->
<g id="edge132" class="edge"><title>Node29&#45;&gt;Node7</title>
<path fill="none" stroke="midnightblue" d="M1684.89,-290.209C1685.89,-276.599 1687.07,-252.498 1684.96,-232 1677.28,-157.488 1655.43,-71.0472 1644.84,-32.0251"/>
<polygon fill="midnightblue" stroke="midnightblue" points="1648.09,-30.6268 1642.06,-21.9125 1641.34,-32.4826 1648.09,-30.6268"/>
</g>
<!-- Node29&#45;&gt;Node12 -->
<g id="edge74" class="edge"><title>Node29&#45;&gt;Node12</title>
<path fill="none" stroke="midnightblue" d="M1743.68,-297.468C1805.86,-292.397 1897.19,-280.545 1918.96,-254 1958.07,-206.289 1894.47,-176.96 1903.96,-116 1905.37,-106.955 1908.21,-97.2705 1911.05,-89.057"/>
<polygon fill="midnightblue" stroke="midnightblue" points="1914.36,-90.1923 1914.53,-79.5988 1907.79,-87.7736 1914.36,-90.1923"/>
</g>
<!-- Node29&#45;&gt;Node14 -->
<g id="edge76" class="edge"><title>Node29&#45;&gt;Node14</title>
<path fill="none" stroke="midnightblue" d="M1743.65,-296.338C1800.92,-290.477 1881.51,-278.115 1900.96,-254 1932.52,-214.864 1870.75,-167.218 1832.35,-142.919"/>
<polygon fill="midnightblue" stroke="midnightblue" points="1833.98,-139.81 1823.63,-137.542 1830.31,-145.769 1833.98,-139.81"/>
</g>
<!-- Node29&#45;&gt;Node18 -->
<g id="edge134" class="edge"><title>Node29&#45;&gt;Node18</title>
<path fill="none" stroke="midnightblue" d="M1624.37,-295.765C1570.16,-289.744 1488.53,-277.499 1420.96,-254 1401.42,-247.208 1399.47,-238.839 1379.96,-232 1296.37,-202.709 1266.82,-227.286 1183.96,-196 1174.33,-192.366 1123.2,-160.869 1092.45,-141.709"/>
<polygon fill="midnightblue" stroke="midnightblue" points="1093.96,-138.529 1083.62,-136.203 1090.25,-144.467 1093.96,-138.529"/>
</g>
<!-- Node29&#45;&gt;Node27 -->
<g id="edge136" class="edge"><title>Node29&#45;&gt;Node27</title>
<path fill="none" stroke="midnightblue" d="M1624.12,-291.746C1545.97,-279.658 1411.45,-258.853 1346.38,-248.788"/>
<polygon fill="midnightblue" stroke="midnightblue" points="1346.6,-245.28 1336.18,-247.21 1345.53,-252.198 1346.6,-245.28"/>
</g>
<!-- Node30 -->
<g id="node69" class="node"><title>Node30</title>
<a xlink:href="_particle_type_8h.html" target="_top" xlink:title="base/ParticleType.h">
<polygon fill="white" stroke="black" points="1787.96,-232.5 1787.96,-253.5 1891.96,-253.5 1891.96,-232.5 1787.96,-232.5"/>
<text text-anchor="middle" x="1839.96" y="-240.5" font-family="Helvetica,sans-Serif" font-size="10.00">base/ParticleType.h</text>
</a>
</g>
<!-- Node29&#45;&gt;Node30 -->
<g id="edge78" class="edge"><title>Node29&#45;&gt;Node30</title>
<path fill="none" stroke="midnightblue" d="M1712.21,-290.497C1737.42,-281.123 1774.53,-267.324 1802.27,-257.012"/>
<polygon fill="midnightblue" stroke="midnightblue" points="1803.5,-260.289 1811.65,-253.523 1801.06,-253.727 1803.5,-260.289"/>
</g>
<!-- Node29&#45;&gt;Node32 -->
<g id="edge92" class="edge"><title>Node29&#45;&gt;Node32</title>
<path fill="none" stroke="midnightblue" d="M1743.91,-293.83C1832.28,-283.262 1997.4,-263.516 2093.76,-251.992"/>
<polygon fill="midnightblue" stroke="midnightblue" points="2094.21,-255.463 2103.73,-250.801 2093.38,-248.513 2094.21,-255.463"/>
</g>
<!-- Node39 -->
<g id="node104" class="node"><title>Node39</title>
<polygon fill="white" stroke="#bfbfbf" points="1511.96,-174.5 1511.96,-195.5 1603.96,-195.5 1603.96,-174.5 1511.96,-174.5"/>
<text text-anchor="middle" x="1557.96" y="-182.5" font-family="Helvetica,sans-Serif" font-size="10.00">TLorentzVector.h</text>
</g>
<!-- Node29&#45;&gt;Node39 -->
<g id="edge130" class="edge"><title>Node29&#45;&gt;Node39</title>
<path fill="none" stroke="midnightblue" d="M1683.77,-290.347C1682.96,-275.555 1679.42,-248.732 1664.96,-232 1651.62,-216.576 1632.27,-206.019 1613.68,-198.885"/>
<polygon fill="midnightblue" stroke="midnightblue" points="1614.66,-195.518 1604.06,-195.458 1612.31,-202.112 1614.66,-195.518"/>
</g>
<!-- Node30&#45;&gt;Node7 -->
<g id="edge90" class="edge"><title>Node30&#45;&gt;Node7</title>
<path fill="none" stroke="midnightblue" d="M1829.39,-232.355C1820.15,-222.946 1806.43,-208.771 1794.96,-196 1741.59,-136.623 1681.5,-63.4662 1654.07,-29.7"/>
<polygon fill="midnightblue" stroke="midnightblue" points="1656.54,-27.1928 1647.53,-21.6294 1651.1,-31.6013 1656.54,-27.1928"/>
</g>
<!-- Node30&#45;&gt;Node8 -->
<g id="edge82" class="edge"><title>Node30&#45;&gt;Node8</title>
<path fill="none" stroke="midnightblue" d="M1820.57,-232.493C1778.08,-209.678 1673.25,-154.559 1581.96,-116 1511.12,-86.0814 1494.35,-73.103 1418.96,-58 1251.92,-24.5405 708.327,-13.6835 572.787,-11.4635"/>
<polygon fill="midnightblue" stroke="midnightblue" points="572.744,-7.96247 562.689,-11.3019 572.631,-14.9616 572.744,-7.96247"/>
</g>
<!-- Node30&#45;&gt;Node13 -->
<g id="edge84" class="edge"><title>Node30&#45;&gt;Node13</title>
<path fill="none" stroke="midnightblue" d="M1892.36,-234.259C1946.33,-222.34 2028.51,-195.493 2071.96,-138 2095.47,-106.891 2095.72,-59.0094 2093.52,-31.7945"/>
<polygon fill="midnightblue" stroke="midnightblue" points="2097,-31.4242 2092.53,-21.8205 2090.04,-32.1183 2097,-31.4242"/>
</g>
<!-- Node30&#45;&gt;Node14 -->
<g id="edge80" class="edge"><title>Node30&#45;&gt;Node14</title>
<path fill="none" stroke="midnightblue" d="M1828.08,-232.36C1819.26,-223.599 1807.92,-210.327 1802.96,-196 1797.57,-180.452 1798.54,-161.735 1800.59,-147.72"/>
<polygon fill="midnightblue" stroke="midnightblue" points="1804.08,-148.094 1802.37,-137.638 1797.19,-146.877 1804.08,-148.094"/>
</g>
<!-- Node30&#45;&gt;Node19 -->
<g id="edge86" class="edge"><title>Node30&#45;&gt;Node19</title>
<path fill="none" stroke="midnightblue" d="M1787.89,-239.603C1753.09,-237.363 1706.29,-234.409 1664.96,-232 1519.3,-223.509 1156.28,-229.29 996.793,-195.685"/>
<polygon fill="midnightblue" stroke="midnightblue" points="997.109,-192.17 986.587,-193.414 995.588,-199.002 997.109,-192.17"/>
</g>
<!-- Node31 -->
<g id="node75" class="node"><title>Node31</title>
<polygon fill="white" stroke="#bfbfbf" points="1811.46,-174.5 1811.46,-195.5 1858.46,-195.5 1858.46,-174.5 1811.46,-174.5"/>
<text text-anchor="middle" x="1834.96" y="-182.5" font-family="Helvetica,sans-Serif" font-size="10.00">iterator</text>
</g>
<!-- Node30&#45;&gt;Node31 -->
<g id="edge88" class="edge"><title>Node30&#45;&gt;Node31</title>
<path fill="none" stroke="midnightblue" d="M1839.04,-232.362C1838.4,-224.922 1837.52,-214.743 1836.74,-205.728"/>
<polygon fill="midnightblue" stroke="midnightblue" points="1840.21,-205.233 1835.87,-195.571 1833.24,-205.834 1840.21,-205.233"/>
</g>
<!-- Node32&#45;&gt;Node7 -->
<g id="edge128" class="edge"><title>Node32&#45;&gt;Node7</title>
<path fill="none" stroke="midnightblue" d="M2227.61,-232.431C2265.72,-224.234 2310.4,-211.644 2321.96,-196 2344.28,-165.796 2418.23,-162.457 2312.96,-58 2307.18,-52.2687 1804.62,-21.1362 1671.18,-12.9649"/>
<polygon fill="midnightblue" stroke="midnightblue" points="1671.36,-9.46967 1661.17,-12.3525 1670.94,-16.4566 1671.36,-9.46967"/>
</g>
<!-- Node32&#45;&gt;Node12 -->
<g id="edge94" class="edge"><title>Node32&#45;&gt;Node12</title>
<path fill="none" stroke="midnightblue" d="M2217.56,-232.474C2252.21,-223.87 2294.45,-210.751 2304.96,-196 2331.54,-158.691 2271.21,-125.733 2252.96,-116 2203.05,-89.391 2038.3,-76.1784 1960.43,-71.2954"/>
<polygon fill="midnightblue" stroke="midnightblue" points="1960.23,-67.777 1950.04,-70.6612 1959.8,-74.764 1960.23,-67.777"/>
</g>
<!-- Node32&#45;&gt;Node13 -->
<g id="edge124" class="edge"><title>Node32&#45;&gt;Node13</title>
<path fill="none" stroke="midnightblue" d="M2234.1,-233.65C2285.87,-225.237 2353.22,-211.793 2375.96,-196 2428.21,-159.711 2455.58,-106.113 2413.96,-58 2395.37,-36.5179 2207.77,-19.8556 2127.3,-13.6404"/>
<polygon fill="midnightblue" stroke="midnightblue" points="2127.37,-10.1357 2117.13,-12.867 2126.84,-17.1156 2127.37,-10.1357"/>
</g>
<!-- Node32&#45;&gt;Node14 -->
<g id="edge96" class="edge"><title>Node32&#45;&gt;Node14</title>
<path fill="none" stroke="midnightblue" d="M2148.42,-232.28C2119.22,-217.41 2063.73,-190.494 2013.96,-174 1953.91,-154.101 1881.4,-139.897 1839.49,-132.604"/>
<polygon fill="midnightblue" stroke="midnightblue" points="1839.96,-129.135 1829.52,-130.9 1838.78,-136.035 1839.96,-129.135"/>
</g>
<!-- Node32&#45;&gt;Node20 -->
<g id="edge126" class="edge"><title>Node32&#45;&gt;Node20</title>
<path fill="none" stroke="midnightblue" d="M2103.63,-239.673C1891.99,-228.897 1229.51,-195.161 1066.48,-186.86"/>
<polygon fill="midnightblue" stroke="midnightblue" points="1066.21,-183.342 1056.04,-186.328 1065.85,-190.332 1066.21,-183.342"/>
</g>
<!-- Node33 -->
<g id="node82" class="node"><title>Node33</title>
<a xlink:href="_detector__t_8h.html" target="_top" xlink:title="base/Detector_t.h">
<polygon fill="white" stroke="black" points="1968.46,-116.5 1968.46,-137.5 2063.46,-137.5 2063.46,-116.5 1968.46,-116.5"/>
<text text-anchor="middle" x="2015.96" y="-124.5" font-family="Helvetica,sans-Serif" font-size="10.00">base/Detector_t.h</text>
</a>
</g>
<!-- Node32&#45;&gt;Node33 -->
<g id="edge98" class="edge"><title>Node32&#45;&gt;Node33</title>
<path fill="none" stroke="midnightblue" d="M2165.07,-232.221C2159.18,-217.279 2146.67,-190.28 2127.96,-174 2110.65,-158.945 2087.83,-148.198 2067.31,-140.817"/>
<polygon fill="midnightblue" stroke="midnightblue" points="2068.36,-137.476 2057.76,-137.559 2066.1,-144.101 2068.36,-137.476"/>
</g>
<!-- Node37 -->
<g id="node94" class="node"><title>Node37</title>
<a xlink:href="_cluster_8h.html" target="_top" xlink:title="analysis/data/Cluster.h">
<polygon fill="white" stroke="black" points="2179.46,-174.5 2179.46,-195.5 2296.46,-195.5 2296.46,-174.5 2179.46,-174.5"/>
<text text-anchor="middle" x="2237.96" y="-182.5" font-family="Helvetica,sans-Serif" font-size="10.00">analysis/data/Cluster.h</text>
</a>
</g>
<!-- Node32&#45;&gt;Node37 -->
<g id="edge114" class="edge"><title>Node32&#45;&gt;Node37</title>
<path fill="none" stroke="midnightblue" d="M2181.61,-232.362C2191.63,-223.941 2205.82,-212.011 2217.46,-202.231"/>
<polygon fill="midnightblue" stroke="midnightblue" points="2219.98,-204.684 2225.38,-195.571 2215.47,-199.326 2219.98,-204.684"/>
</g>
<!-- Node33&#45;&gt;Node7 -->
<g id="edge112" class="edge"><title>Node33&#45;&gt;Node7</title>
<path fill="none" stroke="midnightblue" d="M2015.56,-116.439C2014.38,-100.995 2009.75,-72.5099 1991.96,-58 1967.26,-37.8544 1753.31,-19.6679 1671.02,-13.3558"/>
<polygon fill="midnightblue" stroke="midnightblue" points="1671.22,-9.86111 1660.98,-12.5951 1670.69,-16.8411 1671.22,-9.86111"/>
</g>
<!-- Node33&#45;&gt;Node8 -->
<g id="edge108" class="edge"><title>Node33&#45;&gt;Node8</title>
<path fill="none" stroke="midnightblue" d="M2010.92,-116.427C2002.64,-100.411 1984.48,-70.5406 1958.96,-58 1894.63,-26.3875 773.924,-13.3887 572.751,-11.3053"/>
<polygon fill="midnightblue" stroke="midnightblue" points="572.629,-7.80396 562.593,-11.2013 572.557,-14.8036 572.629,-7.80396"/>
</g>
<!-- Node33&#45;&gt;Node11 -->
<g id="edge106" class="edge"><title>Node33&#45;&gt;Node11</title>
<path fill="none" stroke="midnightblue" d="M1968.36,-117.271C1965.52,-116.809 1962.7,-116.38 1959.96,-116 1758.43,-88.1191 1514.99,-74.9943 1420.82,-70.6823"/>
<polygon fill="midnightblue" stroke="midnightblue" points="1420.76,-67.176 1410.61,-70.2227 1420.44,-74.1689 1420.76,-67.176"/>
</g>
<!-- Node33&#45;&gt;Node12 -->
<g id="edge100" class="edge"><title>Node33&#45;&gt;Node12</title>
<path fill="none" stroke="midnightblue" d="M1998.17,-116.362C1983.4,-107.532 1962.18,-94.844 1945.42,-84.8224"/>
<polygon fill="midnightblue" stroke="midnightblue" points="1947.01,-81.6987 1936.64,-79.5707 1943.42,-87.7066 1947.01,-81.6987"/>
</g>
<!-- Node33&#45;&gt;Node34 -->
<g id="edge102" class="edge"><title>Node33&#45;&gt;Node34</title>
<path fill="none" stroke="midnightblue" d="M2062.32,-116.497C2109.87,-105.723 2183.23,-89.1029 2229.36,-78.6506"/>
<polygon fill="midnightblue" stroke="midnightblue" points="2230.36,-82.0133 2239.34,-76.3901 2228.81,-75.1863 2230.36,-82.0133"/>
</g>
<!-- Node35 -->
<g id="node87" class="node"><title>Node35</title>
<polygon fill="white" stroke="#bfbfbf" points="1743.96,-58.5 1743.96,-79.5 1789.96,-79.5 1789.96,-58.5 1743.96,-58.5"/>
<text text-anchor="middle" x="1766.96" y="-66.5" font-family="Helvetica,sans-Serif" font-size="10.00">cstdint</text>
</g>
<!-- Node33&#45;&gt;Node35 -->
<g id="edge104" class="edge"><title>Node33&#45;&gt;Node35</title>
<path fill="none" stroke="midnightblue" d="M1968.2,-117.341C1918.45,-107.169 1842.88,-91.374 1800.14,-80.0699"/>
<polygon fill="midnightblue" stroke="midnightblue" points="1800.84,-76.6333 1790.28,-77.371 1799,-83.3853 1800.84,-76.6333"/>
</g>
<!-- Node36 -->
<g id="node91" class="node"><title>Node36</title>
<polygon fill="white" stroke="#bfbfbf" points="1807.96,-58.5 1807.96,-79.5 1869.96,-79.5 1869.96,-58.5 1807.96,-58.5"/>
<text text-anchor="middle" x="1838.96" y="-66.5" font-family="Helvetica,sans-Serif" font-size="10.00">type_traits</text>
</g>
<!-- Node33&#45;&gt;Node36 -->
<g id="edge110" class="edge"><title>Node33&#45;&gt;Node36</title>
<path fill="none" stroke="midnightblue" d="M1983.9,-116.497C1954.78,-106.953 1911.65,-92.8216 1880.01,-82.4538"/>
<polygon fill="midnightblue" stroke="midnightblue" points="1880.77,-79.0185 1870.18,-79.2305 1878.59,-85.6705 1880.77,-79.0185"/>
</g>
<!-- Node37&#45;&gt;Node18 -->
<g id="edge118" class="edge"><title>Node37&#45;&gt;Node18</title>
<path fill="none" stroke="midnightblue" d="M2179.23,-182.978C1965.23,-175.544 1234.31,-149.568 1129.96,-138 1117.96,-136.67 1104.77,-134.394 1093.73,-132.256"/>
<polygon fill="midnightblue" stroke="midnightblue" points="1094.41,-128.823 1083.91,-130.285 1093.03,-135.686 1094.41,-128.823"/>
</g>
<!-- Node37&#45;&gt;Node33 -->
<g id="edge116" class="edge"><title>Node37&#45;&gt;Node33</title>
<path fill="none" stroke="midnightblue" d="M2197.75,-174.497C2160.78,-164.836 2105.82,-150.477 2066.01,-140.077"/>
<polygon fill="midnightblue" stroke="midnightblue" points="2066.79,-136.665 2056.23,-137.523 2065.03,-143.437 2066.79,-136.665"/>
</g>
<!-- Node37&#45;&gt;Node34 -->
<g id="edge120" class="edge"><title>Node37&#45;&gt;Node34</title>
<path fill="none" stroke="midnightblue" d="M2241.54,-174.211C2244.66,-164.709 2249.25,-150.48 2252.96,-138 2257.76,-121.835 2262.81,-103.417 2266.5,-89.6777"/>
<polygon fill="midnightblue" stroke="midnightblue" points="2269.94,-90.3587 2269.13,-79.7947 2263.17,-88.5569 2269.94,-90.3587"/>
</g>
<!-- Node38 -->
<g id="node99" class="node"><title>Node38</title>
<a xlink:href="enumfield_8h.html" target="_top" xlink:title="base/enumfield.h">
<polygon fill="white" stroke="black" points="2153.46,-116.5 2153.46,-137.5 2244.46,-137.5 2244.46,-116.5 2153.46,-116.5"/>
<text text-anchor="middle" x="2198.96" y="-124.5" font-family="Helvetica,sans-Serif" font-size="10.00">base/enumfield.h</text>
</a>
</g>
<!-- Node37&#45;&gt;Node38 -->
<g id="edge122" class="edge"><title>Node37&#45;&gt;Node38</title>
<path fill="none" stroke="midnightblue" d="M2230.8,-174.362C2225.47,-166.431 2218.05,-155.389 2211.71,-145.961"/>
<polygon fill="midnightblue" stroke="midnightblue" points="2214.55,-143.916 2206.06,-137.571 2208.74,-147.822 2214.55,-143.916"/>
</g>
<!-- Node40&#45;&gt;Node7 -->
<g id="edge212" class="edge"><title>Node40&#45;&gt;Node7</title>
<path fill="none" stroke="midnightblue" d="M1492.95,-348.427C1408.85,-319.497 1178.21,-238.378 1109.96,-196 1071.27,-171.981 1031.21,-159.078 1045.96,-116 1056.53,-85.1331 1062.3,-73.592 1090.96,-58 1136.26,-33.3519 1495.42,-16.831 1606.4,-12.2755"/>
<polygon fill="midnightblue" stroke="midnightblue" points="1606.79,-15.7626 1616.64,-11.8603 1606.51,-8.76836 1606.79,-15.7626"/>
</g>
<!-- Node40&#45;&gt;Node12 -->
<g id="edge210" class="edge"><title>Node40&#45;&gt;Node12</title>
<path fill="none" stroke="midnightblue" d="M1579.67,-358.083C1749.64,-353.834 2254.12,-329.955 2321.96,-196 2339.83,-160.711 2316.6,-136.797 2282.96,-116 2229.74,-83.1096 2044.02,-73.0235 1960.37,-70.109"/>
<polygon fill="midnightblue" stroke="midnightblue" points="1960.32,-66.6056 1950.21,-69.7731 1960.09,-73.6018 1960.32,-66.6056"/>
</g>
<!-- Node40&#45;&gt;Node14 -->
<g id="edge208" class="edge"><title>Node40&#45;&gt;Node14</title>
<path fill="none" stroke="midnightblue" d="M1579.82,-352.81C1679.13,-340.491 1879.68,-309.221 1918.96,-254 1934.15,-232.644 1909.22,-186.709 1897.96,-174 1882.36,-156.395 1858.61,-144.548 1839.02,-137.152"/>
<polygon fill="midnightblue" stroke="midnightblue" points="1840.1,-133.822 1829.5,-133.779 1837.76,-140.419 1840.1,-133.822"/>
</g>
<!-- Node40&#45;&gt;Node19 -->
<g id="edge216" class="edge"><title>Node40&#45;&gt;Node19</title>
<path fill="none" stroke="midnightblue" d="M1468.23,-356.763C1383.13,-352.468 1225.63,-340.796 1177.96,-312 1140.59,-289.428 1156.61,-257.189 1120.96,-232 1075.9,-200.169 1052.42,-213.732 996.174,-196.013"/>
<polygon fill="midnightblue" stroke="midnightblue" points="997.059,-192.618 986.465,-192.749 994.829,-199.253 997.059,-192.618"/>
</g>
<!-- Node40&#45;&gt;Node20 -->
<g id="edge214" class="edge"><title>Node40&#45;&gt;Node20</title>
<path fill="none" stroke="midnightblue" d="M1468.19,-356.56C1387.85,-352.104 1244.51,-340.346 1201.96,-312 1167.45,-289.011 1185.77,-258.596 1153.96,-232 1140.21,-220.507 1097.34,-205.615 1065.84,-195.705"/>
<polygon fill="midnightblue" stroke="midnightblue" points="1066.65,-192.293 1056.07,-192.674 1064.58,-198.979 1066.65,-192.293"/>
</g>
<!-- Node40&#45;&gt;Node29 -->
<g id="edge142" class="edge"><title>Node40&#45;&gt;Node29</title>
<path fill="none" stroke="midnightblue" d="M1552.93,-348.497C1578.79,-339.123 1616.86,-325.324 1645.3,-315.012"/>
<polygon fill="midnightblue" stroke="midnightblue" points="1646.72,-318.222 1654.93,-311.523 1644.33,-311.641 1646.72,-318.222"/>
</g>
<!-- Node40&#45;&gt;Node32 -->
<g id="edge144" class="edge"><title>Node40&#45;&gt;Node32</title>
<path fill="none" stroke="midnightblue" d="M1579.59,-355.926C1690.01,-349.455 1933.17,-333.252 2013.96,-312 2060.74,-299.694 2111.29,-274.781 2141.52,-258.5"/>
<polygon fill="midnightblue" stroke="midnightblue" points="2143.49,-261.411 2150.59,-253.545 2140.13,-255.268 2143.49,-261.411"/>
</g>
<!-- Node41 -->
<g id="node114" class="node"><title>Node41</title>
<a xlink:href="_tagger_hit_8h.html" target="_top" xlink:title="TaggerHit.h">
<polygon fill="white" stroke="black" points="1587.96,-232.5 1587.96,-253.5 1655.96,-253.5 1655.96,-232.5 1587.96,-232.5"/>
<text text-anchor="middle" x="1621.96" y="-240.5" font-family="Helvetica,sans-Serif" font-size="10.00">TaggerHit.h</text>
</a>
</g>
<!-- Node40&#45;&gt;Node41 -->
<g id="edge146" class="edge"><title>Node40&#45;&gt;Node41</title>
<path fill="none" stroke="midnightblue" d="M1533,-348.295C1549.7,-328.527 1585.56,-286.08 1606.29,-261.544"/>
<polygon fill="midnightblue" stroke="midnightblue" points="1609.15,-263.577 1612.93,-253.679 1603.81,-259.059 1609.15,-263.577"/>
</g>
<!-- Node42 -->
<g id="node121" class="node"><title>Node42</title>
<a xlink:href="_trigger_info_8h.html" target="_top" xlink:title="TriggerInfo.h">
<polygon fill="white" stroke="black" points="1458.46,-290.5 1458.46,-311.5 1529.46,-311.5 1529.46,-290.5 1458.46,-290.5"/>
<text text-anchor="middle" x="1493.96" y="-298.5" font-family="Helvetica,sans-Serif" font-size="10.00">TriggerInfo.h</text>
</a>
</g>
<!-- Node40&#45;&gt;Node42 -->
<g id="edge158" class="edge"><title>Node40&#45;&gt;Node42</title>
<path fill="none" stroke="midnightblue" d="M1518.45,-348.362C1514.44,-340.595 1508.88,-329.843 1504.07,-320.546"/>
<polygon fill="midnightblue" stroke="midnightblue" points="1507.13,-318.845 1499.42,-311.571 1500.91,-322.061 1507.13,-318.845"/>
</g>
<!-- Node41&#45;&gt;Node12 -->
<g id="edge154" class="edge"><title>Node41&#45;&gt;Node12</title>
<path fill="none" stroke="midnightblue" d="M1587.93,-235.162C1553.87,-226.548 1505,-211.82 1493.96,-196 1488.36,-187.983 1487.7,-181.51 1493.96,-174 1522.46,-139.82 1647.7,-148.462 1690.96,-138 1726.62,-129.374 1822.4,-99.5518 1877.81,-82.0642"/>
<polygon fill="midnightblue" stroke="midnightblue" points="1879.18,-85.301 1887.66,-78.9503 1877.07,-78.6264 1879.18,-85.301"/>
</g>
<!-- Node41&#45;&gt;Node14 -->
<g id="edge152" class="edge"><title>Node41&#45;&gt;Node14</title>
<path fill="none" stroke="midnightblue" d="M1587.93,-234.159C1556.39,-225.196 1512.89,-210.601 1502.96,-196 1497.46,-187.915 1496.6,-181.427 1502.96,-174 1505.13,-171.457 1691.78,-143.682 1770.53,-132.063"/>
<polygon fill="midnightblue" stroke="midnightblue" points="1771.07,-135.521 1780.45,-130.6 1770.05,-128.596 1771.07,-135.521"/>
</g>
<!-- Node41&#45;&gt;Node18 -->
<g id="edge148" class="edge"><title>Node41&#45;&gt;Node18</title>
<path fill="none" stroke="midnightblue" d="M1587.93,-238.285C1506.73,-227.015 1307.28,-199.208 1292.96,-196 1218.99,-179.431 1134.06,-150.44 1093.29,-135.878"/>
<polygon fill="midnightblue" stroke="midnightblue" points="1094.28,-132.514 1083.68,-132.421 1091.91,-139.1 1094.28,-132.514"/>
</g>
<!-- Node41&#45;&gt;Node20 -->
<g id="edge150" class="edge"><title>Node41&#45;&gt;Node20</title>
<path fill="none" stroke="midnightblue" d="M1587.71,-238.015C1573.29,-236.003 1556.33,-233.75 1540.96,-232 1363.12,-211.756 1149.69,-194.339 1066.06,-187.781"/>
<polygon fill="midnightblue" stroke="midnightblue" points="1066.3,-184.289 1056.06,-186.999 1065.75,-191.267 1066.3,-184.289"/>
</g>
<!-- Node41&#45;&gt;Node39 -->
<g id="edge156" class="edge"><title>Node41&#45;&gt;Node39</title>
<path fill="none" stroke="midnightblue" d="M1610.22,-232.362C1601.02,-224.023 1588.02,-212.242 1577.29,-202.516"/>
<polygon fill="midnightblue" stroke="midnightblue" points="1579.38,-199.692 1569.62,-195.571 1574.68,-204.879 1579.38,-199.692"/>
</g>
<!-- Node42&#45;&gt;Node12 -->
<g id="edge162" class="edge"><title>Node42&#45;&gt;Node12</title>
<path fill="none" stroke="midnightblue" d="M1509.99,-290.426C1527.87,-277.233 1552.83,-253.754 1540.96,-232 1526.78,-206.03 1499.14,-221.97 1484.96,-196 1480.27,-187.418 1479.05,-181.795 1484.96,-174 1499.31,-155.044 1667.81,-121.463 1690.96,-116 1770.68,-97.1794 1794.36,-99.1141 1877.67,-80.1687"/>
<polygon fill="midnightblue" stroke="midnightblue" points="1878.62,-83.542 1887.57,-77.8828 1877.04,-76.7213 1878.62,-83.542"/>
</g>
<!-- Node42&#45;&gt;Node14 -->
<g id="edge160" class="edge"><title>Node42&#45;&gt;Node14</title>
<path fill="none" stroke="midnightblue" d="M1529.51,-296.194C1565.43,-290.231 1621.65,-277.799 1664.96,-254 1717.34,-225.211 1766.06,-173.091 1789.81,-145.419"/>
<polygon fill="midnightblue" stroke="midnightblue" points="1792.57,-147.567 1796.35,-137.668 1787.23,-143.051 1792.57,-147.567"/>
</g>
<!-- Node42&#45;&gt;Node18 -->
<g id="edge204" class="edge"><title>Node42&#45;&gt;Node18</title>
<path fill="none" stroke="midnightblue" d="M1468.93,-290.371C1447.34,-281.088 1415.39,-267.088 1387.96,-254 1368.58,-244.757 1365.29,-238.874 1344.96,-232 1259.81,-203.221 1226.7,-235.484 1145.96,-196 1121.1,-183.846 1098.26,-161.315 1084.02,-145.308"/>
<polygon fill="midnightblue" stroke="midnightblue" points="1086.58,-142.909 1077.4,-137.622 1081.28,-147.481 1086.58,-142.909"/>
</g>
<!-- Node42&#45;&gt;Node20 -->
<g id="edge206" class="edge"><title>Node42&#45;&gt;Node20</title>
<path fill="none" stroke="midnightblue" d="M1458.19,-294.161C1414.35,-285.602 1337.87,-270.1 1272.96,-254 1233.4,-244.19 1123.22,-212.261 1065.79,-195.496"/>
<polygon fill="midnightblue" stroke="midnightblue" points="1066.63,-192.094 1056.05,-192.649 1064.66,-198.813 1066.63,-192.094"/>
</g>
<!-- Node43 -->
<g id="node125" class="node"><title>Node43</title>
<a xlink:href="_t_data_record_8h.html" target="_top" xlink:title="tree/TDataRecord.h">
<polygon fill="white" stroke="black" points="1429.46,-232.5 1429.46,-253.5 1532.46,-253.5 1532.46,-232.5 1429.46,-232.5"/>
<text text-anchor="middle" x="1480.96" y="-240.5" font-family="Helvetica,sans-Serif" font-size="10.00">tree/TDataRecord.h</text>
</a>
</g>
<!-- Node42&#45;&gt;Node43 -->
<g id="edge164" class="edge"><title>Node42&#45;&gt;Node43</title>
<path fill="none" stroke="midnightblue" d="M1491.57,-290.362C1489.89,-282.84 1487.57,-272.519 1485.54,-263.431"/>
<polygon fill="midnightblue" stroke="midnightblue" points="1488.93,-262.563 1483.33,-253.571 1482.1,-264.094 1488.93,-262.563"/>
</g>
<!-- Node43&#45;&gt;Node22 -->
<g id="edge198" class="edge"><title>Node43&#45;&gt;Node22</title>
<path fill="none" stroke="midnightblue" d="M1429.19,-233.778C1390.8,-226.054 1337.6,-213.47 1292.96,-196 1256.09,-181.575 1216.51,-158.513 1191.74,-143.069"/>
<polygon fill="midnightblue" stroke="midnightblue" points="1193.34,-139.937 1183.01,-137.557 1189.6,-145.856 1193.34,-139.937"/>
</g>
<!-- Node44 -->
<g id="node127" class="node"><title>Node44</title>
<a xlink:href="_t_i_d_8h.html" target="_top" xlink:title="TID.h">
<polygon fill="white" stroke="black" points="1301.46,-174.5 1301.46,-195.5 1342.46,-195.5 1342.46,-174.5 1301.46,-174.5"/>
<text text-anchor="middle" x="1321.96" y="-182.5" font-family="Helvetica,sans-Serif" font-size="10.00">TID.h</text>
</a>
</g>
<!-- Node43&#45;&gt;Node44 -->
<g id="edge166" class="edge"><title>Node43&#45;&gt;Node44</title>
<path fill="none" stroke="midnightblue" d="M1452.16,-232.497C1423.98,-222.218 1381.22,-206.618 1352.47,-196.129"/>
<polygon fill="midnightblue" stroke="midnightblue" points="1353.52,-192.789 1342.93,-192.65 1351.12,-199.365 1353.52,-192.789"/>
</g>
<!-- Node49 -->
<g id="node141" class="node"><title>Node49</title>
<polygon fill="white" stroke="#bfbfbf" points="1099.46,-58.5 1099.46,-79.5 1140.46,-79.5 1140.46,-58.5 1099.46,-58.5"/>
<text text-anchor="middle" x="1119.96" y="-66.5" font-family="Helvetica,sans-Serif" font-size="10.00">ctime</text>
</g>
<!-- Node43&#45;&gt;Node49 -->
<g id="edge202" class="edge"><title>Node43&#45;&gt;Node49</title>
<path fill="none" stroke="midnightblue" d="M1429.28,-233.643C1364.39,-221.767 1259.4,-202.091 1241.96,-196 1215.5,-186.759 1146.21,-160.837 1129.96,-138 1120.11,-124.168 1118.06,-104.782 1118.2,-90.0791"/>
<polygon fill="midnightblue" stroke="midnightblue" points="1121.71,-90.0641 1118.66,-79.9181 1114.72,-89.7524 1121.71,-90.0641"/>
</g>
<!-- Node51 -->
<g id="node148" class="node"><title>Node51</title>
<polygon fill="white" stroke="#bfbfbf" points="1522.96,-116.5 1522.96,-137.5 1572.96,-137.5 1572.96,-116.5 1522.96,-116.5"/>
<text text-anchor="middle" x="1547.96" y="-124.5" font-family="Helvetica,sans-Serif" font-size="10.00">iomanip</text>
</g>
<!-- Node43&#45;&gt;Node51 -->
<g id="edge200" class="edge"><title>Node43&#45;&gt;Node51</title>
<path fill="none" stroke="midnightblue" d="M1447.74,-232.407C1415.89,-220.452 1375.2,-199.332 1393.96,-174 1395.79,-171.52 1468.42,-150.085 1513.26,-137.035"/>
<polygon fill="midnightblue" stroke="midnightblue" points="1514.29,-140.38 1522.92,-134.229 1512.34,-133.658 1514.29,-140.38"/>
</g>
<!-- Node44&#45;&gt;Node11 -->
<g id="edge192" class="edge"><title>Node44&#45;&gt;Node11</title>
<path fill="none" stroke="midnightblue" d="M1333.35,-174.446C1342.33,-165.534 1354.54,-152.015 1361.96,-138 1369.94,-122.923 1374.82,-104.172 1377.64,-90.0234"/>
<polygon fill="midnightblue" stroke="midnightblue" points="1381.15,-90.2832 1379.47,-79.8218 1374.26,-89.0454 1381.15,-90.2832"/>
</g>
<!-- Node44&#45;&gt;Node12 -->
<g id="edge170" class="edge"><title>Node44&#45;&gt;Node12</title>
<path fill="none" stroke="midnightblue" d="M1342.91,-179.462C1371.92,-171.544 1425.74,-155.946 1469.96,-138 1490.22,-129.777 1492.95,-122.063 1513.96,-116 1667.36,-71.725 1716.66,-108.158 1877.39,-80.0107"/>
<polygon fill="midnightblue" stroke="midnightblue" points="1878.41,-83.3817 1887.63,-78.1565 1877.17,-76.4937 1878.41,-83.3817"/>
</g>
<!-- Node44&#45;&gt;Node22 -->
<g id="edge168" class="edge"><title>Node44&#45;&gt;Node22</title>
<path fill="none" stroke="midnightblue" d="M1301.37,-177.298C1276.7,-168.067 1234.88,-152.418 1204.43,-141.022"/>
<polygon fill="midnightblue" stroke="midnightblue" points="1205.57,-137.712 1194.98,-137.486 1203.12,-144.268 1205.57,-137.712"/>
</g>
<!-- Node44&#45;&gt;Node35 -->
<g id="edge190" class="edge"><title>Node44&#45;&gt;Node35</title>
<path fill="none" stroke="midnightblue" d="M1336.37,-174.368C1358.22,-158.831 1401.56,-130.231 1442.96,-116 1496.38,-97.631 1662.21,-79.4487 1733.66,-72.2401"/>
<polygon fill="midnightblue" stroke="midnightblue" points="1734.28,-75.695 1743.88,-71.2181 1733.59,-68.7297 1734.28,-75.695"/>
</g>
<!-- Node44&#45;&gt;Node36 -->
<g id="edge186" class="edge"><title>Node44&#45;&gt;Node36</title>
<path fill="none" stroke="midnightblue" d="M1342.68,-176.276C1364.83,-166.923 1400.95,-151.583 1431.96,-138 1453.82,-128.421 1457.93,-122.307 1480.96,-116 1615.06,-79.2664 1657.4,-105.691 1797.79,-79.9699"/>
<polygon fill="midnightblue" stroke="midnightblue" points="1798.45,-83.4076 1807.62,-78.1129 1797.15,-76.5292 1798.45,-83.4076"/>
</g>
<!-- Node45 -->
<g id="node131" class="node"><title>Node45</title>
<a xlink:href="time_8h.html" target="_top" xlink:title="base/std_ext/time.h">
<polygon fill="white" stroke="black" points="1250.46,-116.5 1250.46,-137.5 1353.46,-137.5 1353.46,-116.5 1250.46,-116.5"/>
<text text-anchor="middle" x="1301.96" y="-124.5" font-family="Helvetica,sans-Serif" font-size="10.00">base/std_ext/time.h</text>
</a>
</g>
<!-- Node44&#45;&gt;Node45 -->
<g id="edge172" class="edge"><title>Node44&#45;&gt;Node45</title>
<path fill="none" stroke="midnightblue" d="M1318.29,-174.362C1315.67,-166.758 1312.06,-156.294 1308.9,-147.135"/>
<polygon fill="midnightblue" stroke="midnightblue" points="1312.17,-145.883 1305.6,-137.571 1305.55,-148.165 1312.17,-145.883"/>
</g>
<!-- Node44&#45;&gt;Node49 -->
<g id="edge196" class="edge"><title>Node44&#45;&gt;Node49</title>
<path fill="none" stroke="midnightblue" d="M1303.7,-174.269C1275.58,-157.744 1222.91,-126.841 1203.96,-116 1185.4,-105.387 1164.42,-93.6473 1148.07,-84.5557"/>
<polygon fill="midnightblue" stroke="midnightblue" points="1149.47,-81.3308 1139.03,-79.5372 1146.08,-87.451 1149.47,-81.3308"/>
</g>
<!-- Node44&#45;&gt;Node50 -->
<g id="edge188" class="edge"><title>Node44&#45;&gt;Node50</title>
<path fill="none" stroke="midnightblue" d="M1342.62,-183.309C1412.39,-177.561 1645.59,-158.013 1837.96,-138 1859.68,-135.74 1884.18,-132.862 1902.73,-130.616"/>
<polygon fill="midnightblue" stroke="midnightblue" points="1903.39,-134.062 1912.89,-129.377 1902.54,-127.113 1903.39,-134.062"/>
</g>
<!-- Node44&#45;&gt;Node51 -->
<g id="edge194" class="edge"><title>Node44&#45;&gt;Node51</title>
<path fill="none" stroke="midnightblue" d="M1342.73,-177.981C1347.08,-176.595 1351.65,-175.2 1355.96,-174 1423.25,-155.233 1441.32,-155.486 1508.96,-138 1510.22,-137.673 1511.51,-137.336 1512.81,-136.991"/>
<polygon fill="midnightblue" stroke="midnightblue" points="1514.1,-140.267 1522.83,-134.263 1512.26,-133.513 1514.1,-140.267"/>
</g>
<!-- Node46 -->
<g id="node133" class="node"><title>Node46</title>
<a xlink:href="string_8h.html" target="_top" xlink:title="base/std_ext/string.h">
<polygon fill="white" stroke="black" points="1157.96,-58.5 1157.96,-79.5 1265.96,-79.5 1265.96,-58.5 1157.96,-58.5"/>
<text text-anchor="middle" x="1211.96" y="-66.5" font-family="Helvetica,sans-Serif" font-size="10.00">base/std_ext/string.h</text>
</a>
</g>
<!-- Node45&#45;&gt;Node46 -->
<g id="edge174" class="edge"><title>Node45&#45;&gt;Node46</title>
<path fill="none" stroke="midnightblue" d="M1285.45,-116.362C1271.87,-107.614 1252.42,-95.0786 1236.94,-85.1015"/>
<polygon fill="midnightblue" stroke="midnightblue" points="1238.66,-82.0457 1228.36,-79.5707 1234.87,-87.9297 1238.66,-82.0457"/>
</g>
<!-- Node48 -->
<g id="node139" class="node"><title>Node48</title>
<polygon fill="white" stroke="#bfbfbf" points="1283.96,-58.5 1283.96,-79.5 1329.96,-79.5 1329.96,-58.5 1283.96,-58.5"/>
<text text-anchor="middle" x="1306.96" y="-66.5" font-family="Helvetica,sans-Serif" font-size="10.00">cstring</text>
</g>
<!-- Node45&#45;&gt;Node48 -->
<g id="edge182" class="edge"><title>Node45&#45;&gt;Node48</title>
<path fill="none" stroke="midnightblue" d="M1302.87,-116.362C1303.52,-108.922 1304.39,-98.7427 1305.17,-89.7276"/>
<polygon fill="midnightblue" stroke="midnightblue" points="1308.67,-89.8343 1306.05,-79.5707 1301.7,-89.2331 1308.67,-89.8343"/>
</g>
<!-- Node45&#45;&gt;Node49 -->
<g id="edge184" class="edge"><title>Node45&#45;&gt;Node49</title>
<path fill="none" stroke="midnightblue" d="M1265.26,-116.452C1236.2,-107.936 1194.4,-95.3319 1150,-80.2354"/>
<polygon fill="midnightblue" stroke="midnightblue" points="1151.09,-76.9076 1140.49,-76.9767 1148.82,-83.5296 1151.09,-76.9076"/>
</g>
<!-- Node46&#45;&gt;Node8 -->
<g id="edge176" class="edge"><title>Node46&#45;&gt;Node8</title>
<path fill="none" stroke="midnightblue" d="M1157.71,-59.1894C1154.75,-58.7605 1151.82,-58.3601 1148.96,-58 928.987,-30.3444 661.986,-16.4555 572.694,-12.3398"/>
<polygon fill="midnightblue" stroke="midnightblue" points="572.613,-8.83263 562.465,-11.8755 572.296,-15.8254 572.613,-8.83263"/>
</g>
<!-- Node46&#45;&gt;Node10 -->
<g id="edge180" class="edge"><title>Node46&#45;&gt;Node10</title>
<path fill="none" stroke="midnightblue" d="M1157.72,-59.0951C1154.76,-58.6906 1151.83,-58.3212 1148.96,-58 970.334,-38.0026 403.272,-17.5526 250.296,-12.2936"/>
<polygon fill="midnightblue" stroke="midnightblue" points="250.122,-8.7857 240.009,-11.9414 249.883,-15.7816 250.122,-8.7857"/>
</g>
<!-- Node46&#45;&gt;Node47 -->
<g id="edge178" class="edge"><title>Node46&#45;&gt;Node47</title>
<path fill="none" stroke="midnightblue" d="M1266.2,-59.198C1269.16,-58.7669 1272.09,-58.3637 1274.96,-58 1382.72,-44.3148 1715.71,-21.0327 1826.61,-13.4593"/>
<polygon fill="midnightblue" stroke="midnightblue" points="1826.89,-16.9481 1836.63,-12.7763 1826.42,-9.96433 1826.89,-16.9481"/>
</g>
<!-- Node52&#45;&gt;Node7 -->
<g id="edge220" class="edge"><title>Node52&#45;&gt;Node7</title>
<path fill="none" stroke="midnightblue" d="M336.726,-290.466C366.566,-266.357 443.96,-206.734 517.957,-174 706.051,-90.7913 762.957,-91.0816 965.957,-58 1091.79,-37.4938 1490.31,-17.8749 1606.73,-12.464"/>
<polygon fill="midnightblue" stroke="midnightblue" points="1606.96,-15.957 1616.79,-11.9992 1606.64,-8.9645 1606.96,-15.957"/>
</g>
<!-- Node53&#45;&gt;Node9 -->
<g id="edge242" class="edge"><title>Node53&#45;&gt;Node9</title>
<path fill="none" stroke="midnightblue" d="M875.332,-406.242C869.747,-373.45 848.077,-274.411 784.957,-232 740.012,-201.801 352.835,-201.398 298.957,-196 287.123,-194.814 274.411,-193.328 262.457,-191.835"/>
<polygon fill="midnightblue" stroke="midnightblue" points="262.552,-188.319 252.19,-190.529 261.668,-195.263 262.552,-188.319"/>
</g>
<!-- Node53&#45;&gt;Node33 -->
<g id="edge246" class="edge"><title>Node53&#45;&gt;Node33</title>
<path fill="none" stroke="midnightblue" d="M882.428,-406.448C891.375,-390.46 910.793,-360.626 936.957,-348 1018.59,-308.606 1662.67,-327.622 1751.96,-312 1837.25,-297.076 1869.61,-307.17 1937.96,-254 1974.36,-225.683 1997.88,-175.237 2008.81,-147.2"/>
<polygon fill="midnightblue" stroke="midnightblue" points="2012.16,-148.238 2012.39,-137.645 2005.61,-145.785 2012.16,-148.238"/>
</g>
<!-- Node53&#45;&gt;Node54 -->
<g id="edge244" class="edge"><title>Node53&#45;&gt;Node54</title>
<path fill="none" stroke="midnightblue" d="M894.381,-406.362C908.844,-397.532 929.626,-384.844 946.041,-374.822"/>
<polygon fill="midnightblue" stroke="midnightblue" points="947.932,-377.769 954.643,-369.571 944.284,-371.794 947.932,-377.769"/>
</g>
<!-- Node55&#45;&gt;Node7 -->
<g id="edge254" class="edge"><title>Node55&#45;&gt;Node7</title>
<path fill="none" stroke="midnightblue" d="M2477.87,-464.297C2490.02,-444.404 2513.96,-400.023 2513.96,-359 2513.96,-359 2513.96,-359 2513.96,-127 2513.96,-42.153 2418.79,-76.3975 2335.96,-58 2303.17,-50.7181 1805.22,-20.8458 1671.69,-12.9316"/>
<polygon fill="midnightblue" stroke="midnightblue" points="1671.5,-9.41434 1661.32,-12.3172 1671.09,-16.4021 1671.5,-9.41434"/>
</g>
<!-- Node56&#45;&gt;Node7 -->
<g id="edge260" class="edge"><title>Node56&#45;&gt;Node7</title>
<path fill="none" stroke="midnightblue" d="M97.65,-232.219C84.4649,-208.119 57.5443,-149.381 86.9568,-116 222.31,37.617 339.948,-75.2938 543.957,-58 963.04,-22.4743 1474.75,-13.2576 1606.71,-11.4026"/>
<polygon fill="midnightblue" stroke="midnightblue" points="1606.98,-14.8994 1616.93,-11.2632 1606.88,-7.90006 1606.98,-14.8994"/>
</g>
<!-- Node56&#45;&gt;Node9 -->
<g id="edge264" class="edge"><title>Node56&#45;&gt;Node9</title>
<path fill="none" stroke="midnightblue" d="M123.515,-232.497C140.155,-223.56 164.284,-210.602 183.137,-200.477"/>
<polygon fill="midnightblue" stroke="midnightblue" points="185.025,-203.436 192.179,-195.621 181.713,-197.269 185.025,-203.436"/>
</g>
<!-- Node56&#45;&gt;Node10 -->
<g id="edge262" class="edge"><title>Node56&#45;&gt;Node10</title>
<path fill="none" stroke="midnightblue" d="M88.9063,-232.196C77.8326,-223.538 63.1631,-210.476 53.9568,-196 19.8183,-142.32 -23.4342,-107.954 15.9568,-58 35.2141,-33.5791 122.225,-20.4117 173.615,-14.644"/>
<polygon fill="midnightblue" stroke="midnightblue" points="174.129,-18.109 183.696,-13.556 173.378,-11.1494 174.129,-18.109"/>
</g>
<!-- Node56&#45;&gt;Node15 -->
<g id="edge266" class="edge"><title>Node56&#45;&gt;Node15</title>
<path fill="none" stroke="midnightblue" d="M105.064,-232.295C107.047,-213.131 111.234,-172.654 113.801,-147.843"/>
<polygon fill="midnightblue" stroke="midnightblue" points="117.304,-147.986 114.852,-137.679 110.342,-147.266 117.304,-147.986"/>
</g>
<!-- Node56&#45;&gt;Node18 -->
<g id="edge258" class="edge"><title>Node56&#45;&gt;Node18</title>
<path fill="none" stroke="midnightblue" d="M144.555,-233.633C176.808,-225.535 222.693,-212.532 260.957,-196 278.871,-188.26 280.273,-179.634 298.957,-174 335.442,-162.998 915.836,-134.401 1044.03,-128.198"/>
<polygon fill="midnightblue" stroke="midnightblue" points="1044.55,-131.677 1054.37,-127.699 1044.21,-124.685 1044.55,-131.677"/>
</g>
</g>
</svg>
