<?xml version="1.0" encoding="UTF-8" standalone="no"?>
<!DOCTYPE svg PUBLIC "-//W3C//DTD SVG 1.1//EN"
 "http://www.w3.org/Graphics/SVG/1.1/DTD/svg11.dtd">
<!-- Generated by graphviz version 2.26.3 (20100126.1600)
 -->
<!-- Title: src/base/GitInfo.cc Pages: 1 -->
<svg width="464pt" height="146pt"
 viewBox="0.00 0.00 464.00 146.00" xmlns="http://www.w3.org/2000/svg" xmlns:xlink="http://www.w3.org/1999/xlink">
<g id="graph1" class="graph" transform="scale(1 1) rotate(0) translate(4 142)">
<title>src/base/GitInfo.cc</title>
<polygon fill="white" stroke="white" points="-4,5 -4,-142 461,-142 461,5 -4,5"/>
<!-- Node1 -->
<g id="node1" class="node"><title>Node1</title>
<polygon fill="#bfbfbf" stroke="black" points="222,-116.5 222,-137.5 322,-137.5 322,-116.5 222,-116.5"/>
<text text-anchor="middle" x="272" y="-124.5" font-family="Helvetica,sans-Serif" font-size="10.00">src/base/GitInfo.cc</text>
</g>
<!-- Node2 -->
<g id="node3" class="node"><title>Node2</title>
<a xlink:href="_git_info_8h.html" target="_top" xlink:title="GitInfo.h">
<polygon fill="white" stroke="black" points="202,-58.5 202,-79.5 256,-79.5 256,-58.5 202,-58.5"/>
<text text-anchor="middle" x="229" y="-66.5" font-family="Helvetica,sans-Serif" font-size="10.00">GitInfo.h</text>
</a>
</g>
<!-- Node1&#45;&gt;Node2 -->
<g id="edge2" class="edge"><title>Node1&#45;&gt;Node2</title>
<path fill="none" stroke="midnightblue" d="M264.113,-116.362C258.173,-108.35 249.878,-97.1605 242.841,-87.6696"/>
<polygon fill="midnightblue" stroke="midnightblue" points="245.604,-85.5193 236.837,-79.5707 239.981,-89.6883 245.604,-85.5193"/>
</g>
<!-- Node4 -->
<g id="node7" class="node"><title>Node4</title>
<polygon fill="white" stroke="#bfbfbf" points="110,-58.5 110,-79.5 184,-79.5 184,-58.5 110,-58.5"/>
<text text-anchor="middle" x="147" y="-66.5" font-family="Helvetica,sans-Serif" font-size="10.00">base/Paths.h</text>
</g>
<!-- Node1&#45;&gt;Node4 -->
<g id="edge6" class="edge"><title>Node1&#45;&gt;Node4</title>
<path fill="none" stroke="midnightblue" d="M249.363,-116.497C229.752,-107.397 201.154,-94.1273 179.167,-83.9253"/>
<polygon fill="midnightblue" stroke="midnightblue" points="180.435,-80.6554 169.891,-79.6212 177.488,-87.0051 180.435,-80.6554"/>
</g>
<!-- Node5 -->
<g id="node9" class="node"><title>Node5</title>
<a xlink:href="system_8h.html" target="_top" xlink:title="std_ext/system.h">
<polygon fill="white" stroke="black" points="0,-58.5 0,-79.5 92,-79.5 92,-58.5 0,-58.5"/>
<text text-anchor="middle" x="46" y="-66.5" font-family="Helvetica,sans-Serif" font-size="10.00">std_ext/system.h</text>
</a>
</g>
<!-- Node1&#45;&gt;Node5 -->
<g id="edge8" class="edge"><title>Node1&#45;&gt;Node5</title>
<path fill="none" stroke="midnightblue" d="M231.073,-116.497C193.352,-106.816 137.24,-92.4156 96.696,-82.0105"/>
<polygon fill="midnightblue" stroke="midnightblue" points="97.5598,-78.6188 87.0037,-79.5231 95.8197,-85.3991 97.5598,-78.6188"/>
</g>
<!-- Node7 -->
<g id="node14" class="node"><title>Node7</title>
<a xlink:href="string_8h.html" target="_top" xlink:title="std_ext/string.h">
<polygon fill="white" stroke="black" points="274,-58.5 274,-79.5 358,-79.5 358,-58.5 274,-58.5"/>
<text text-anchor="middle" x="316" y="-66.5" font-family="Helvetica,sans-Serif" font-size="10.00">std_ext/string.h</text>
</a>
</g>
<!-- Node1&#45;&gt;Node7 -->
<g id="edge14" class="edge"><title>Node1&#45;&gt;Node7</title>
<path fill="none" stroke="midnightblue" d="M280.07,-116.362C286.149,-108.35 294.637,-97.1605 301.837,-87.6696"/>
<polygon fill="midnightblue" stroke="midnightblue" points="304.725,-89.653 307.981,-79.5707 299.149,-85.4222 304.725,-89.653"/>
</g>
<!-- Node8 -->
<g id="node17" class="node"><title>Node8</title>
<polygon fill="white" stroke="#bfbfbf" points="360,-0.5 360,-21.5 412,-21.5 412,-0.5 360,-0.5"/>
<text text-anchor="middle" x="386" y="-8.5" font-family="Helvetica,sans-Serif" font-size="10.00">sstream</text>
</g>
<!-- Node1&#45;&gt;Node8 -->
<g id="edge24" class="edge"><title>Node1&#45;&gt;Node8</title>
<path fill="none" stroke="midnightblue" d="M310.141,-116.435C329.733,-109.174 352.475,-97.5973 367,-80 378.219,-66.4079 382.839,-46.6948 384.728,-31.8166"/>
<polygon fill="midnightblue" stroke="midnightblue" points="388.24,-31.8498 385.704,-21.563 381.272,-31.1861 388.24,-31.8498"/>
</g>
<!-- Node10 -->
<g id="node21" class="node"><title>Node10</title>
<polygon fill="white" stroke="#bfbfbf" points="413.5,-58.5 413.5,-79.5 456.5,-79.5 456.5,-58.5 413.5,-58.5"/>
<text text-anchor="middle" x="435" y="-66.5" font-family="Helvetica,sans-Serif" font-size="10.00">cstdio</text>
</g>
<!-- Node1&#45;&gt;Node10 -->
<g id="edge22" class="edge"><title>Node1&#45;&gt;Node10</title>
<path fill="none" stroke="midnightblue" d="M301.518,-116.497C330.241,-106.276 373.749,-90.7949 403.219,-80.3085"/>
<polygon fill="midnightblue" stroke="midnightblue" points="404.762,-83.4744 413.01,-76.8245 402.416,-76.8795 404.762,-83.4744"/>
</g>
<!-- Node3 -->
<g id="node5" class="node"><title>Node3</title>
<polygon fill="white" stroke="#bfbfbf" points="208.5,-0.5 208.5,-21.5 249.5,-21.5 249.5,-0.5 208.5,-0.5"/>
<text text-anchor="middle" x="229" y="-8.5" font-family="Helvetica,sans-Serif" font-size="10.00">string</text>
</g>
<!-- Node2&#45;&gt;Node3 -->
<g id="edge4" class="edge"><title>Node2&#45;&gt;Node3</title>
<path fill="none" stroke="midnightblue" d="M229,-58.3619C229,-50.9219 229,-40.7427 229,-31.7276"/>
<polygon fill="midnightblue" stroke="midnightblue" points="232.5,-31.5706 229,-21.5707 225.5,-31.5707 232.5,-31.5706"/>
</g>
<!-- Node5&#45;&gt;Node3 -->
<g id="edge12" class="edge"><title>Node5&#45;&gt;Node3</title>
<path fill="none" stroke="midnightblue" d="M79.1399,-58.4966C113.21,-47.6984 165.808,-31.0281 198.773,-20.5802"/>
<polygon fill="midnightblue" stroke="midnightblue" points="199.856,-23.9087 208.331,-17.5509 197.741,-17.2358 199.856,-23.9087"/>
</g>
<!-- Node6 -->
<g id="node11" class="node"><title>Node6</title>
<polygon fill="white" stroke="#bfbfbf" points="31.5,-0.5 31.5,-21.5 60.5,-21.5 60.5,-0.5 31.5,-0.5"/>
<text text-anchor="middle" x="46" y="-8.5" font-family="Helvetica,sans-Serif" font-size="10.00">list</text>
</g>
<!-- Node5&#45;&gt;Node6 -->
<g id="edge10" class="edge"><title>Node5&#45;&gt;Node6</title>
<path fill="none" stroke="midnightblue" d="M46,-58.3619C46,-50.9219 46,-40.7427 46,-31.7276"/>
<polygon fill="midnightblue" stroke="midnightblue" points="49.5001,-31.5706 46,-21.5707 42.5001,-31.5707 49.5001,-31.5706"/>
</g>
<!-- Node7&#45;&gt;Node3 -->
<g id="edge16" class="edge"><title>Node7&#45;&gt;Node3</title>
<path fill="none" stroke="midnightblue" d="M300.043,-58.3619C287.043,-49.6955 268.469,-37.3126 253.573,-27.3819"/>
<polygon fill="midnightblue" stroke="midnightblue" points="255.118,-24.2055 244.856,-21.5707 251.235,-30.0299 255.118,-24.2055"/>
</g>
<!-- Node7&#45;&gt;Node8 -->
<g id="edge18" class="edge"><title>Node7&#45;&gt;Node8</title>
<path fill="none" stroke="midnightblue" d="M328.839,-58.3619C339.002,-49.9408 353.401,-38.0105 365.204,-28.2308"/>
<polygon fill="midnightblue" stroke="midnightblue" points="367.775,-30.6459 373.242,-21.5707 363.309,-25.2558 367.775,-30.6459"/>
</g>
<!-- Node9 -->
<g id="node19" class="node"><title>Node9</title>
<polygon fill="white" stroke="#bfbfbf" points="286,-0.5 286,-21.5 342,-21.5 342,-0.5 286,-0.5"/>
<text text-anchor="middle" x="314" y="-8.5" font-family="Helvetica,sans-Serif" font-size="10.00">algorithm</text>
</g>
<!-- Node7&#45;&gt;Node9 -->
<g id="edge20" class="edge"><title>Node7&#45;&gt;Node9</title>
<path fill="none" stroke="midnightblue" d="M315.633,-58.3619C315.377,-50.9219 315.026,-40.7427 314.715,-31.7276"/>
<polygon fill="midnightblue" stroke="midnightblue" points="318.207,-31.4441 314.365,-21.5707 311.211,-31.6854 318.207,-31.4441"/>
</g>
</g>
</svg>
