<?xml version="1.0" encoding="UTF-8" standalone="no"?>
<!DOCTYPE svg PUBLIC "-//W3C//DTD SVG 1.1//EN"
 "http://www.w3.org/Graphics/SVG/1.1/DTD/svg11.dtd">
<!-- Generated by graphviz version 2.26.3 (20100126.1600)
 -->
<!-- Title: src/base/GitInfo.h Pages: 1 -->
<svg width="1278pt" height="434pt"
 viewBox="0.00 0.00 1278.00 434.00" xmlns="http://www.w3.org/2000/svg" xmlns:xlink="http://www.w3.org/1999/xlink">
<g id="graph1" class="graph" transform="scale(1 1) rotate(0) translate(4 430)">
<title>src/base/GitInfo.h</title>
<polygon fill="white" stroke="white" points="-4,5 -4,-430 1275,-430 1275,5 -4,5"/>
<!-- Node1 -->
<g id="node1" class="node"><title>Node1</title>
<polygon fill="#bfbfbf" stroke="black" points="797.5,-404.5 797.5,-425.5 892.5,-425.5 892.5,-404.5 797.5,-404.5"/>
<text text-anchor="middle" x="845" y="-412.5" font-family="Helvetica,sans-Serif" font-size="10.00">src/base/GitInfo.h</text>
</g>
<!-- Node2 -->
<g id="node3" class="node"><title>Node2</title>
<a xlink:href="_ant_8cc.html" target="_top" xlink:title="progs/Ant.cc">
<polygon fill="white" stroke="black" points="705,-346.5 705,-367.5 777,-367.5 777,-346.5 705,-346.5"/>
<text text-anchor="middle" x="741" y="-354.5" font-family="Helvetica,sans-Serif" font-size="10.00">progs/Ant.cc</text>
</a>
</g>
<!-- Node1&#45;&gt;Node2 -->
<g id="edge2" class="edge"><title>Node1&#45;&gt;Node2</title>
<path fill="none" stroke="midnightblue" d="M816.99,-399.379C798.919,-389.301 775.898,-376.462 759.954,-367.571"/>
<polygon fill="midnightblue" stroke="midnightblue" points="815.486,-402.548 825.925,-404.362 818.896,-396.434 815.486,-402.548"/>
</g>
<!-- Node3 -->
<g id="node5" class="node"><title>Node3</title>
<a xlink:href="_git_info_8cc.html" target="_top" xlink:title="src/base/GitInfo.cc">
<polygon fill="white" stroke="black" points="795,-346.5 795,-367.5 895,-367.5 895,-346.5 795,-346.5"/>
<text text-anchor="middle" x="845" y="-354.5" font-family="Helvetica,sans-Serif" font-size="10.00">src/base/GitInfo.cc</text>
</a>
</g>
<!-- Node1&#45;&gt;Node3 -->
<g id="edge4" class="edge"><title>Node1&#45;&gt;Node3</title>
<path fill="none" stroke="midnightblue" d="M845,-394.191C845,-385.168 845,-374.994 845,-367.571"/>
<polygon fill="midnightblue" stroke="midnightblue" points="841.5,-394.362 845,-404.362 848.5,-394.362 841.5,-394.362"/>
</g>
<!-- Node4 -->
<g id="node7" class="node"><title>Node4</title>
<a xlink:href="_t_calibration_data_8h.html" target="_top" xlink:title="src/tree/TCalibrationData.h">
<polygon fill="white" stroke="black" points="913,-346.5 913,-367.5 1047,-367.5 1047,-346.5 913,-346.5"/>
<text text-anchor="middle" x="980" y="-354.5" font-family="Helvetica,sans-Serif" font-size="10.00">src/tree/TCalibrationData.h</text>
</a>
</g>
<!-- Node1&#45;&gt;Node4 -->
<g id="edge6" class="edge"><title>Node1&#45;&gt;Node4</title>
<path fill="none" stroke="midnightblue" d="M878.798,-400.479C902.562,-390.269 933.824,-376.839 955.278,-367.621"/>
<polygon fill="midnightblue" stroke="midnightblue" points="877.254,-397.333 869.447,-404.497 880.017,-403.765 877.254,-397.333"/>
</g>
<!-- Node5 -->
<g id="node9" class="node"><title>Node5</title>
<a xlink:href="_data_base_8h.html" target="_top" xlink:title="src/calibration/DataBase.h">
<polygon fill="white" stroke="black" points="586,-281.5 586,-302.5 718,-302.5 718,-281.5 586,-281.5"/>
<text text-anchor="middle" x="652" y="-289.5" font-family="Helvetica,sans-Serif" font-size="10.00">src/calibration/DataBase.h</text>
</a>
</g>
<!-- Node4&#45;&gt;Node5 -->
<g id="edge8" class="edge"><title>Node4&#45;&gt;Node5</title>
<path fill="none" stroke="midnightblue" d="M916.959,-344.507C855.419,-332.312 762.836,-313.964 704.987,-302.501"/>
<polygon fill="midnightblue" stroke="midnightblue" points="916.447,-347.974 926.937,-346.484 917.808,-341.107 916.447,-347.974"/>
</g>
<!-- Node7 -->
<g id="node13" class="node"><title>Node7</title>
<a xlink:href="_data_manager_8h.html" target="_top" xlink:title="src/calibration/DataManager.h">
<polygon fill="white" stroke="black" points="578.5,-216.5 578.5,-237.5 725.5,-237.5 725.5,-216.5 578.5,-216.5"/>
<text text-anchor="middle" x="652" y="-224.5" font-family="Helvetica,sans-Serif" font-size="10.00">src/calibration/DataManager.h</text>
</a>
</g>
<!-- Node4&#45;&gt;Node7 -->
<g id="edge54" class="edge"><title>Node4&#45;&gt;Node7</title>
<path fill="none" stroke="midnightblue" d="M943.81,-342.656C877.397,-316.334 737.502,-260.888 678.812,-237.627"/>
<polygon fill="midnightblue" stroke="midnightblue" points="942.85,-346.041 953.436,-346.472 945.429,-339.533 942.85,-346.041"/>
</g>
<!-- Node10 -->
<g id="node19" class="node"><title>Node10</title>
<a xlink:href="_editor_8cc.html" target="_top" xlink:title="src/calibration/Editor.cc">
<polygon fill="white" stroke="black" points="956.5,-79.5 956.5,-100.5 1075.5,-100.5 1075.5,-79.5 956.5,-79.5"/>
<text text-anchor="middle" x="1016" y="-87.5" font-family="Helvetica,sans-Serif" font-size="10.00">src/calibration/Editor.cc</text>
</a>
</g>
<!-- Node4&#45;&gt;Node10 -->
<g id="edge56" class="edge"><title>Node4&#45;&gt;Node10</title>
<path fill="none" stroke="midnightblue" d="M997.344,-338.531C1024.46,-308.243 1075.78,-244.874 1095,-180 1099.55,-164.659 1102.47,-158.15 1095,-144 1084.14,-123.43 1061.54,-109.209 1043.27,-100.544"/>
<polygon fill="midnightblue" stroke="midnightblue" points="994.532,-336.42 990.385,-346.17 999.706,-341.134 994.532,-336.42"/>
</g>
<!-- Node17 -->
<g id="node34" class="node"><title>Node17</title>
<a xlink:href="_time_8cc.html" target="_top" xlink:title="src/calibration/modules\l/Time.cc">
<polygon fill="white" stroke="black" points="827.5,-145 827.5,-179 944.5,-179 944.5,-145 827.5,-145"/>
<text text-anchor="start" x="835.5" y="-166" font-family="Helvetica,sans-Serif" font-size="10.00">src/calibration/modules</text>
<text text-anchor="middle" x="886" y="-153" font-family="Helvetica,sans-Serif" font-size="10.00">/Time.cc</text>
</a>
</g>
<!-- Node4&#45;&gt;Node17 -->
<g id="edge58" class="edge"><title>Node4&#45;&gt;Node17</title>
<path fill="none" stroke="midnightblue" d="M970.409,-337.104C951.918,-298.746 911.632,-215.173 894.253,-179.12"/>
<polygon fill="midnightblue" stroke="midnightblue" points="967.317,-338.75 974.812,-346.238 973.623,-335.71 967.317,-338.75"/>
</g>
<!-- Node26 -->
<g id="node52" class="node"><title>Node26</title>
<a xlink:href="_test_data_manager_8cc.html" target="_top" xlink:title="test/calibration/TestData\lManager.cc">
<polygon fill="white" stroke="black" points="962,-145 962,-179 1086,-179 1086,-145 962,-145"/>
<text text-anchor="start" x="970" y="-166" font-family="Helvetica,sans-Serif" font-size="10.00">test/calibration/TestData</text>
<text text-anchor="middle" x="1024" y="-153" font-family="Helvetica,sans-Serif" font-size="10.00">Manager.cc</text>
</a>
</g>
<!-- Node4&#45;&gt;Node26 -->
<g id="edge60" class="edge"><title>Node4&#45;&gt;Node26</title>
<path fill="none" stroke="midnightblue" d="M984.713,-336.115C993.465,-297.327 1012.07,-214.866 1020.14,-179.12"/>
<polygon fill="midnightblue" stroke="midnightblue" points="981.215,-335.713 982.428,-346.238 988.044,-337.254 981.215,-335.713"/>
</g>
<!-- Node27 -->
<g id="node58" class="node"><title>Node27</title>
<a xlink:href="_test_t_calibration_data_8cc.html" target="_top" xlink:title="test/tree/TestTCalibration\lData.cc">
<polygon fill="white" stroke="black" points="1142,-275 1142,-309 1270,-309 1270,-275 1142,-275"/>
<text text-anchor="start" x="1150" y="-296" font-family="Helvetica,sans-Serif" font-size="10.00">test/tree/TestTCalibration</text>
<text text-anchor="middle" x="1206" y="-283" font-family="Helvetica,sans-Serif" font-size="10.00">Data.cc</text>
</a>
</g>
<!-- Node4&#45;&gt;Node27 -->
<g id="edge62" class="edge"><title>Node4&#45;&gt;Node27</title>
<path fill="none" stroke="midnightblue" d="M1026.45,-343.64C1061.2,-333.645 1109.01,-319.897 1146.55,-309.099"/>
<polygon fill="midnightblue" stroke="midnightblue" points="1025.2,-340.357 1016.56,-346.484 1027.14,-347.084 1025.2,-340.357"/>
</g>
<!-- Node6 -->
<g id="node11" class="node"><title>Node6</title>
<a xlink:href="_data_base_8cc.html" target="_top" xlink:title="src/calibration/DataBase.cc">
<polygon fill="white" stroke="black" points="424.5,-216.5 424.5,-237.5 561.5,-237.5 561.5,-216.5 424.5,-216.5"/>
<text text-anchor="middle" x="493" y="-224.5" font-family="Helvetica,sans-Serif" font-size="10.00">src/calibration/DataBase.cc</text>
</a>
</g>
<!-- Node5&#45;&gt;Node6 -->
<g id="edge10" class="edge"><title>Node5&#45;&gt;Node6</title>
<path fill="none" stroke="midnightblue" d="M616.557,-277.511C586.957,-265.41 545.449,-248.441 518.889,-237.584"/>
<polygon fill="midnightblue" stroke="midnightblue" points="615.519,-280.868 626.1,-281.412 618.168,-274.388 615.519,-280.868"/>
</g>
<!-- Node5&#45;&gt;Node7 -->
<g id="edge12" class="edge"><title>Node5&#45;&gt;Node7</title>
<path fill="none" stroke="midnightblue" d="M652,-271.014C652,-259.831 652,-246.558 652,-237.534"/>
<polygon fill="midnightblue" stroke="midnightblue" points="648.5,-271.267 652,-281.267 655.5,-271.267 648.5,-271.267"/>
</g>
<!-- Node8 -->
<g id="node15" class="node"><title>Node8</title>
<a xlink:href="_data_manager_8cc.html" target="_top" xlink:title="src/calibration/DataManager.cc">
<polygon fill="white" stroke="black" points="526,-151.5 526,-172.5 678,-172.5 678,-151.5 526,-151.5"/>
<text text-anchor="middle" x="602" y="-159.5" font-family="Helvetica,sans-Serif" font-size="10.00">src/calibration/DataManager.cc</text>
</a>
</g>
<!-- Node7&#45;&gt;Node8 -->
<g id="edge14" class="edge"><title>Node7&#45;&gt;Node8</title>
<path fill="none" stroke="midnightblue" d="M637.45,-208.085C628.543,-196.506 617.479,-182.122 610.103,-172.534"/>
<polygon fill="midnightblue" stroke="midnightblue" points="634.872,-210.474 643.744,-216.267 640.421,-206.206 634.872,-210.474"/>
</g>
<!-- Node9 -->
<g id="node17" class="node"><title>Node9</title>
<a xlink:href="_editor_8h.html" target="_top" xlink:title="src/calibration/Editor.h">
<polygon fill="white" stroke="black" points="696,-151.5 696,-172.5 810,-172.5 810,-151.5 696,-151.5"/>
<text text-anchor="middle" x="753" y="-159.5" font-family="Helvetica,sans-Serif" font-size="10.00">src/calibration/Editor.h</text>
</a>
</g>
<!-- Node7&#45;&gt;Node9 -->
<g id="edge16" class="edge"><title>Node7&#45;&gt;Node9</title>
<path fill="none" stroke="midnightblue" d="M677.244,-210.754C695.831,-198.792 720.564,-182.874 736.632,-172.534"/>
<polygon fill="midnightblue" stroke="midnightblue" points="675.193,-207.912 668.678,-216.267 678.981,-213.798 675.193,-207.912"/>
</g>
<!-- Node14 -->
<g id="node28" class="node"><title>Node14</title>
<a xlink:href="_c_b___time_walk_8cc.html" target="_top" xlink:title="src/calibration/modules\l/CB_TimeWalk.cc">
<polygon fill="white" stroke="black" points="-0.5,-145 -0.5,-179 116.5,-179 116.5,-145 -0.5,-145"/>
<text text-anchor="start" x="7.5" y="-166" font-family="Helvetica,sans-Serif" font-size="10.00">src/calibration/modules</text>
<text text-anchor="middle" x="58" y="-153" font-family="Helvetica,sans-Serif" font-size="10.00">/CB_TimeWalk.cc</text>
</a>
</g>
<!-- Node7&#45;&gt;Node14 -->
<g id="edge28" class="edge"><title>Node7&#45;&gt;Node14</title>
<path fill="none" stroke="midnightblue" d="M568.153,-215.854C370.939,-195.421 317.264,-213.318 125,-180 122.27,-179.527 119.491,-178.994 116.691,-178.415"/>
<polygon fill="midnightblue" stroke="midnightblue" points="567.953,-219.353 578.265,-216.922 568.688,-212.391 567.953,-219.353"/>
</g>
<!-- Node15 -->
<g id="node30" class="node"><title>Node15</title>
<a xlink:href="_energy_8cc.html" target="_top" xlink:title="src/calibration/modules\l/Energy.cc">
<polygon fill="white" stroke="black" points="133.5,-145 133.5,-179 250.5,-179 250.5,-145 133.5,-145"/>
<text text-anchor="start" x="141.5" y="-166" font-family="Helvetica,sans-Serif" font-size="10.00">src/calibration/modules</text>
<text text-anchor="middle" x="192" y="-153" font-family="Helvetica,sans-Serif" font-size="10.00">/Energy.cc</text>
</a>
</g>
<!-- Node7&#45;&gt;Node15 -->
<g id="edge30" class="edge"><title>Node7&#45;&gt;Node15</title>
<path fill="none" stroke="midnightblue" d="M568.141,-215.798C430.174,-199.076 392.468,-205.51 259,-180 256.279,-179.48 253.506,-178.908 250.713,-178.298"/>
<polygon fill="midnightblue" stroke="midnightblue" points="567.898,-219.294 578.251,-217.043 568.754,-212.347 567.898,-219.294"/>
</g>
<!-- Node16 -->
<g id="node32" class="node"><title>Node16</title>
<a xlink:href="_p_i_d___phi_angle_8cc.html" target="_top" xlink:title="src/calibration/modules\l/PID_PhiAngle.cc">
<polygon fill="white" stroke="black" points="267.5,-145 267.5,-179 384.5,-179 384.5,-145 267.5,-145"/>
<text text-anchor="start" x="275.5" y="-166" font-family="Helvetica,sans-Serif" font-size="10.00">src/calibration/modules</text>
<text text-anchor="middle" x="326" y="-153" font-family="Helvetica,sans-Serif" font-size="10.00">/PID_PhiAngle.cc</text>
</a>
</g>
<!-- Node7&#45;&gt;Node16 -->
<g id="edge32" class="edge"><title>Node7&#45;&gt;Node16</title>
<path fill="none" stroke="midnightblue" d="M575.326,-214.802C523.6,-206.153 453.926,-193.687 393,-180 390.297,-179.393 387.539,-178.749 384.758,-178.081"/>
<polygon fill="midnightblue" stroke="midnightblue" points="574.986,-218.294 585.424,-216.48 576.133,-211.388 574.986,-218.294"/>
</g>
<!-- Node7&#45;&gt;Node17 -->
<g id="edge34" class="edge"><title>Node7&#45;&gt;Node17</title>
<path fill="none" stroke="midnightblue" d="M699.849,-213.709C736.696,-203.473 787.814,-189.274 827.163,-178.344"/>
<polygon fill="midnightblue" stroke="midnightblue" points="698.555,-210.436 689.856,-216.484 700.428,-217.18 698.555,-210.436"/>
</g>
<!-- Node18 -->
<g id="node36" class="node"><title>Node18</title>
<a xlink:href="_setup_8h.html" target="_top" xlink:title="src/expconfig/setups\l/Setup.h">
<polygon fill="white" stroke="black" points="401.5,-145 401.5,-179 508.5,-179 508.5,-145 401.5,-145"/>
<text text-anchor="start" x="409.5" y="-166" font-family="Helvetica,sans-Serif" font-size="10.00">src/expconfig/setups</text>
<text text-anchor="middle" x="455" y="-153" font-family="Helvetica,sans-Serif" font-size="10.00">/Setup.h</text>
</a>
</g>
<!-- Node7&#45;&gt;Node18 -->
<g id="edge36" class="edge"><title>Node7&#45;&gt;Node18</title>
<path fill="none" stroke="midnightblue" d="M610.107,-213.177C579.903,-203.211 538.948,-189.698 506.706,-179.06"/>
<polygon fill="midnightblue" stroke="midnightblue" points="609.317,-216.602 619.91,-216.412 611.51,-209.955 609.317,-216.602"/>
</g>
<!-- Node7&#45;&gt;Node26 -->
<g id="edge52" class="edge"><title>Node7&#45;&gt;Node26</title>
<path fill="none" stroke="midnightblue" d="M735.915,-216.038C796.502,-207.604 880.134,-194.891 953,-180 955.866,-179.414 958.789,-178.789 961.738,-178.135"/>
<polygon fill="midnightblue" stroke="midnightblue" points="735.064,-212.623 725.638,-217.459 736.023,-219.557 735.064,-212.623"/>
</g>
<!-- Node9&#45;&gt;Node10 -->
<g id="edge18" class="edge"><title>Node9&#45;&gt;Node10</title>
<path fill="none" stroke="midnightblue" d="M801.27,-148.786C851.953,-134.91 930.644,-113.368 977.373,-100.575"/>
<polygon fill="midnightblue" stroke="midnightblue" points="800.245,-145.437 791.524,-151.453 802.093,-152.189 800.245,-145.437"/>
</g>
<!-- Node11 -->
<g id="node21" class="node"><title>Node11</title>
<a xlink:href="_a_c_e_canvas_8h.html" target="_top" xlink:title="src/calibration/gui\l/ACECanvas.h">
<polygon fill="white" stroke="black" points="706.5,-73 706.5,-107 799.5,-107 799.5,-73 706.5,-73"/>
<text text-anchor="start" x="714.5" y="-94" font-family="Helvetica,sans-Serif" font-size="10.00">src/calibration/gui</text>
<text text-anchor="middle" x="753" y="-81" font-family="Helvetica,sans-Serif" font-size="10.00">/ACECanvas.h</text>
</a>
</g>
<!-- Node9&#45;&gt;Node11 -->
<g id="edge20" class="edge"><title>Node9&#45;&gt;Node11</title>
<path fill="none" stroke="midnightblue" d="M753,-141.132C753,-130.326 753,-117.296 753,-107.094"/>
<polygon fill="midnightblue" stroke="midnightblue" points="749.5,-141.376 753,-151.376 756.5,-141.376 749.5,-141.376"/>
</g>
<!-- Node13 -->
<g id="node25" class="node"><title>Node13</title>
<a xlink:href="_a_c_e_canvas_8cc.html" target="_top" xlink:title="src/calibration/gui\l/ACECanvas.cc">
<polygon fill="white" stroke="black" points="828.5,-1 828.5,-35 921.5,-35 921.5,-1 828.5,-1"/>
<text text-anchor="start" x="836.5" y="-22" font-family="Helvetica,sans-Serif" font-size="10.00">src/calibration/gui</text>
<text text-anchor="middle" x="875" y="-9" font-family="Helvetica,sans-Serif" font-size="10.00">/ACECanvas.cc</text>
</a>
</g>
<!-- Node9&#45;&gt;Node13 -->
<g id="edge26" class="edge"><title>Node9&#45;&gt;Node13</title>
<path fill="none" stroke="midnightblue" d="M772.277,-144.474C783.176,-134.227 796.817,-120.822 808,-108 828.999,-83.925 850.59,-53.7601 863.396,-35.1883"/>
<polygon fill="midnightblue" stroke="midnightblue" points="769.846,-141.954 764.899,-151.323 774.609,-147.084 769.846,-141.954"/>
</g>
<!-- Node12 -->
<g id="node23" class="node"><title>Node12</title>
<a xlink:href="_ant-calib-editor_8cc.html" target="_top" xlink:title="progs/Ant&#45;calib&#45;editor.cc">
<polygon fill="white" stroke="black" points="689,-7.5 689,-28.5 811,-28.5 811,-7.5 689,-7.5"/>
<text text-anchor="middle" x="750" y="-15.5" font-family="Helvetica,sans-Serif" font-size="10.00">progs/Ant&#45;calib&#45;editor.cc</text>
</a>
</g>
<!-- Node11&#45;&gt;Node12 -->
<g id="edge22" class="edge"><title>Node11&#45;&gt;Node12</title>
<path fill="none" stroke="midnightblue" d="M751.861,-62.6667C751.371,-50.9127 750.827,-37.8483 750.454,-28.901"/>
<polygon fill="midnightblue" stroke="midnightblue" points="748.376,-63.0914 752.289,-72.937 755.37,-62.7999 748.376,-63.0914"/>
</g>
<!-- Node11&#45;&gt;Node13 -->
<g id="edge24" class="edge"><title>Node11&#45;&gt;Node13</title>
<path fill="none" stroke="midnightblue" d="M790.867,-67.6522C808.6,-57.1871 829.394,-44.9152 845.872,-35.19"/>
<polygon fill="midnightblue" stroke="midnightblue" points="788.745,-64.8402 781.912,-72.937 792.303,-70.8687 788.745,-64.8402"/>
</g>
<!-- Node19 -->
<g id="node38" class="node"><title>Node19</title>
<a xlink:href="_exp_config_8cc.html" target="_top" xlink:title="src/expconfig/ExpConfig.cc">
<polygon fill="white" stroke="black" points="386.5,-79.5 386.5,-100.5 523.5,-100.5 523.5,-79.5 386.5,-79.5"/>
<text text-anchor="middle" x="455" y="-87.5" font-family="Helvetica,sans-Serif" font-size="10.00">src/expconfig/ExpConfig.cc</text>
</a>
</g>
<!-- Node18&#45;&gt;Node19 -->
<g id="edge38" class="edge"><title>Node18&#45;&gt;Node19</title>
<path fill="none" stroke="midnightblue" d="M455,-134.667C455,-122.913 455,-109.848 455,-100.901"/>
<polygon fill="midnightblue" stroke="midnightblue" points="451.5,-134.937 455,-144.937 458.5,-134.937 451.5,-134.937"/>
</g>
<!-- Node20 -->
<g id="node40" class="node"><title>Node20</title>
<a xlink:href="_setup__2014___e_p_t_8h.html" target="_top" xlink:title="src/expconfig/setups\l/Setup_2014_EPT.h">
<polygon fill="white" stroke="black" points="540.5,-73 540.5,-107 647.5,-107 647.5,-73 540.5,-73"/>
<text text-anchor="start" x="548.5" y="-94" font-family="Helvetica,sans-Serif" font-size="10.00">src/expconfig/setups</text>
<text text-anchor="middle" x="594" y="-81" font-family="Helvetica,sans-Serif" font-size="10.00">/Setup_2014_EPT.h</text>
</a>
</g>
<!-- Node18&#45;&gt;Node20 -->
<g id="edge40" class="edge"><title>Node18&#45;&gt;Node20</title>
<path fill="none" stroke="midnightblue" d="M497.035,-140.226C517.476,-129.638 541.694,-117.094 560.814,-107.19"/>
<polygon fill="midnightblue" stroke="midnightblue" points="495.211,-137.23 487.941,-144.937 498.43,-143.445 495.211,-137.23"/>
</g>
<!-- Node24 -->
<g id="node48" class="node"><title>Node24</title>
<a xlink:href="_setup__2015__dummy_8cc.html" target="_top" xlink:title="src/expconfig/setups\l/Setup_2015_dummy.cc">
<polygon fill="white" stroke="black" points="123,-73 123,-107 245,-107 245,-73 123,-73"/>
<text text-anchor="start" x="131" y="-94" font-family="Helvetica,sans-Serif" font-size="10.00">src/expconfig/setups</text>
<text text-anchor="middle" x="184" y="-81" font-family="Helvetica,sans-Serif" font-size="10.00">/Setup_2015_dummy.cc</text>
</a>
</g>
<!-- Node18&#45;&gt;Node24 -->
<g id="edge48" class="edge"><title>Node18&#45;&gt;Node24</title>
<path fill="none" stroke="midnightblue" d="M391.403,-143.649C363.825,-136.354 296.113,-118.887 245.156,-105.754"/>
<polygon fill="midnightblue" stroke="midnightblue" points="390.694,-147.083 401.259,-146.292 392.507,-140.321 390.694,-147.083"/>
</g>
<!-- Node25 -->
<g id="node50" class="node"><title>Node25</title>
<a xlink:href="_setup_registry_8cc.html" target="_top" xlink:title="src/expconfig/setups\l/SetupRegistry.cc">
<polygon fill="white" stroke="black" points="262.5,-73 262.5,-107 369.5,-107 369.5,-73 262.5,-73"/>
<text text-anchor="start" x="270.5" y="-94" font-family="Helvetica,sans-Serif" font-size="10.00">src/expconfig/setups</text>
<text text-anchor="middle" x="316" y="-81" font-family="Helvetica,sans-Serif" font-size="10.00">/SetupRegistry.cc</text>
</a>
</g>
<!-- Node18&#45;&gt;Node25 -->
<g id="edge50" class="edge"><title>Node18&#45;&gt;Node25</title>
<path fill="none" stroke="midnightblue" d="M412.965,-140.226C392.524,-129.638 368.306,-117.094 349.186,-107.19"/>
<polygon fill="midnightblue" stroke="midnightblue" points="411.57,-143.445 422.059,-144.937 414.789,-137.23 411.57,-143.445"/>
</g>
<!-- Node21 -->
<g id="node42" class="node"><title>Node21</title>
<a xlink:href="_setup__2014__07___e_p_t___prod_8cc.html" target="_top" xlink:title="src/expconfig/setups\l/Setup_2014_07_EPT_Prod.cc">
<polygon fill="white" stroke="black" points="520.5,-1 520.5,-35 671.5,-35 671.5,-1 520.5,-1"/>
<text text-anchor="start" x="528.5" y="-22" font-family="Helvetica,sans-Serif" font-size="10.00">src/expconfig/setups</text>
<text text-anchor="middle" x="596" y="-9" font-family="Helvetica,sans-Serif" font-size="10.00">/Setup_2014_07_EPT_Prod.cc</text>
</a>
</g>
<!-- Node20&#45;&gt;Node21 -->
<g id="edge42" class="edge"><title>Node20&#45;&gt;Node21</title>
<path fill="none" stroke="midnightblue" d="M594.758,-62.7193C595.012,-53.572 595.288,-43.6255 595.516,-35.4407"/>
<polygon fill="midnightblue" stroke="midnightblue" points="591.253,-62.8436 594.474,-72.937 598.25,-63.0381 591.253,-62.8436"/>
</g>
<!-- Node22 -->
<g id="node44" class="node"><title>Node22</title>
<a xlink:href="_setup__2014__10___e_p_t___prod_8cc.html" target="_top" xlink:title="src/expconfig/setups\l/Setup_2014_10_EPT_Prod.cc">
<polygon fill="white" stroke="black" points="184.5,-1 184.5,-35 335.5,-35 335.5,-1 184.5,-1"/>
<text text-anchor="start" x="192.5" y="-22" font-family="Helvetica,sans-Serif" font-size="10.00">src/expconfig/setups</text>
<text text-anchor="middle" x="260" y="-9" font-family="Helvetica,sans-Serif" font-size="10.00">/Setup_2014_10_EPT_Prod.cc</text>
</a>
</g>
<!-- Node20&#45;&gt;Node22 -->
<g id="edge44" class="edge"><title>Node20&#45;&gt;Node22</title>
<path fill="none" stroke="midnightblue" d="M530.458,-71.7279C447.571,-52.1533 424.281,-52.2861 344,-36 341.223,-35.4366 338.395,-34.8577 335.54,-34.2687"/>
<polygon fill="midnightblue" stroke="midnightblue" points="529.774,-75.1629 540.313,-74.081 531.4,-68.3543 529.774,-75.1629"/>
</g>
<!-- Node23 -->
<g id="node46" class="node"><title>Node23</title>
<a xlink:href="_setup__2014__12___e_p_t___prod_8cc.html" target="_top" xlink:title="src/expconfig/setups\l/Setup_2014_12_EPT_Prod.cc">
<polygon fill="white" stroke="black" points="352.5,-1 352.5,-35 503.5,-35 503.5,-1 352.5,-1"/>
<text text-anchor="start" x="360.5" y="-22" font-family="Helvetica,sans-Serif" font-size="10.00">src/expconfig/setups</text>
<text text-anchor="middle" x="428" y="-9" font-family="Helvetica,sans-Serif" font-size="10.00">/Setup_2014_12_EPT_Prod.cc</text>
</a>
</g>
<!-- Node20&#45;&gt;Node23 -->
<g id="edge46" class="edge"><title>Node20&#45;&gt;Node23</title>
<path fill="none" stroke="midnightblue" d="M545.408,-68.9238C520.565,-58.1485 490.725,-45.2059 467.345,-35.0651"/>
<polygon fill="midnightblue" stroke="midnightblue" points="544.093,-72.1687 554.66,-72.937 546.879,-65.7468 544.093,-72.1687"/>
</g>
</g>
</svg>
