<?xml version="1.0" encoding="UTF-8" standalone="no"?>
<!DOCTYPE svg PUBLIC "-//W3C//DTD SVG 1.1//EN"
 "http://www.w3.org/Graphics/SVG/1.1/DTD/svg11.dtd">
<!-- Generated by graphviz version 2.26.3 (20100126.1600)
 -->
<!-- Title: src/analysis/plot/HistogramFactories.h Pages: 1 -->
<svg width="1473pt" height="392pt"
 viewBox="0.00 0.00 1473.00 392.00" xmlns="http://www.w3.org/2000/svg" xmlns:xlink="http://www.w3.org/1999/xlink">
<g id="graph1" class="graph" transform="scale(1 1) rotate(0) translate(4 388)">
<title>src/analysis/plot/HistogramFactories.h</title>
<polygon fill="white" stroke="white" points="-4,5 -4,-388 1470,-388 1470,5 -4,5"/>
<!-- Node1 -->
<g id="node1" class="node"><title>Node1</title>
<polygon fill="#bfbfbf" stroke="black" points="876,-349 876,-383 1012,-383 1012,-349 876,-349"/>
<text text-anchor="start" x="884" y="-370" font-family="Helvetica,sans-Serif" font-size="10.00">src/analysis/plot/Histogram</text>
<text text-anchor="middle" x="944" y="-357" font-family="Helvetica,sans-Serif" font-size="10.00">Factories.h</text>
</g>
<!-- Node2 -->
<g id="node3" class="node"><title>Node2</title>
<a xlink:href="_histogram_8h.html" target="_top" xlink:title="Histogram.h">
<polygon fill="white" stroke="black" points="789,-174.5 789,-195.5 859,-195.5 859,-174.5 789,-174.5"/>
<text text-anchor="middle" x="824" y="-182.5" font-family="Helvetica,sans-Serif" font-size="10.00">Histogram.h</text>
</a>
</g>
<!-- Node1&#45;&gt;Node2 -->
<g id="edge2" class="edge"><title>Node1&#45;&gt;Node2</title>
<path fill="none" stroke="midnightblue" d="M932.711,-348.972C910.323,-315.204 860.434,-239.955 836.839,-204.365"/>
<polygon fill="midnightblue" stroke="midnightblue" points="839.624,-202.232 831.181,-195.832 833.79,-206.1 839.624,-202.232"/>
</g>
<!-- Node5 -->
<g id="node9" class="node"><title>Node5</title>
<polygon fill="white" stroke="#bfbfbf" points="1060.5,-58.5 1060.5,-79.5 1101.5,-79.5 1101.5,-58.5 1060.5,-58.5"/>
<text text-anchor="middle" x="1081" y="-66.5" font-family="Helvetica,sans-Serif" font-size="10.00">string</text>
</g>
<!-- Node1&#45;&gt;Node5 -->
<g id="edge132" class="edge"><title>Node1&#45;&gt;Node5</title>
<path fill="none" stroke="midnightblue" d="M1012.11,-364.088C1153.33,-358.271 1465,-335.009 1465,-243 1465,-243 1465,-243 1465,-185 1465,-146.058 1444.71,-135.488 1411,-116 1360.37,-86.7318 1183.97,-74.3818 1111.97,-70.4799"/>
<polygon fill="midnightblue" stroke="midnightblue" points="1111.9,-66.9719 1101.74,-69.9446 1111.54,-73.9623 1111.9,-66.9719"/>
</g>
<!-- Node13 -->
<g id="node26" class="node"><title>Node13</title>
<a xlink:href="_smart_hist_8h.html" target="_top" xlink:title="SmartHist.h">
<polygon fill="white" stroke="black" points="1041.5,-232.5 1041.5,-253.5 1110.5,-253.5 1110.5,-232.5 1041.5,-232.5"/>
<text text-anchor="middle" x="1076" y="-240.5" font-family="Helvetica,sans-Serif" font-size="10.00">SmartHist.h</text>
</a>
</g>
<!-- Node1&#45;&gt;Node13 -->
<g id="edge26" class="edge"><title>Node1&#45;&gt;Node13</title>
<path fill="none" stroke="midnightblue" d="M962.354,-348.897C987.284,-325.668 1031.63,-284.342 1056.93,-260.771"/>
<polygon fill="midnightblue" stroke="midnightblue" points="1059.49,-263.165 1064.42,-253.787 1054.72,-258.044 1059.49,-263.165"/>
</g>
<!-- Node26 -->
<g id="node59" class="node"><title>Node26</title>
<a xlink:href="_particle_8h.html" target="_top" xlink:title="analysis/data/Particle.h">
<polygon fill="white" stroke="black" points="507.5,-290.5 507.5,-311.5 626.5,-311.5 626.5,-290.5 507.5,-290.5"/>
<text text-anchor="middle" x="567" y="-298.5" font-family="Helvetica,sans-Serif" font-size="10.00">analysis/data/Particle.h</text>
</a>
</g>
<!-- Node1&#45;&gt;Node26 -->
<g id="edge66" class="edge"><title>Node1&#45;&gt;Node26</title>
<path fill="none" stroke="midnightblue" d="M875.728,-354.229C808.116,-342.572 705.084,-324.808 636.907,-313.053"/>
<polygon fill="midnightblue" stroke="midnightblue" points="637.142,-309.542 626.693,-311.292 635.953,-316.44 637.142,-309.542"/>
</g>
<!-- Node3 -->
<g id="node5" class="node"><title>Node3</title>
<polygon fill="white" stroke="#bfbfbf" points="853,-116.5 853,-137.5 907,-137.5 907,-116.5 853,-116.5"/>
<text text-anchor="middle" x="880" y="-124.5" font-family="Helvetica,sans-Serif" font-size="10.00">TColor.h</text>
</g>
<!-- Node2&#45;&gt;Node3 -->
<g id="edge4" class="edge"><title>Node2&#45;&gt;Node3</title>
<path fill="none" stroke="midnightblue" d="M834.271,-174.362C842.244,-166.104 853.475,-154.472 862.811,-144.803"/>
<polygon fill="midnightblue" stroke="midnightblue" points="865.366,-147.196 869.794,-137.571 860.33,-142.334 865.366,-147.196"/>
</g>
<!-- Node4 -->
<g id="node7" class="node"><title>Node4</title>
<polygon fill="white" stroke="#bfbfbf" points="339,-0.5 339,-21.5 383,-21.5 383,-0.5 339,-0.5"/>
<text text-anchor="middle" x="361" y="-8.5" font-family="Helvetica,sans-Serif" font-size="10.00">vector</text>
</g>
<!-- Node2&#45;&gt;Node4 -->
<g id="edge6" class="edge"><title>Node2&#45;&gt;Node4</title>
<path fill="none" stroke="midnightblue" d="M825.138,-174.474C827.152,-149.85 828.307,-88.288 794,-58 738.202,-8.73912 534.992,-30.0692 461,-22 438.335,-19.5283 412.783,-16.7171 393.181,-14.5554"/>
<polygon fill="midnightblue" stroke="midnightblue" points="393.564,-11.0765 383.241,-13.4585 392.796,-18.0343 393.564,-11.0765"/>
</g>
<!-- Node2&#45;&gt;Node5 -->
<g id="edge8" class="edge"><title>Node2&#45;&gt;Node5</title>
<path fill="none" stroke="midnightblue" d="M859.042,-175.158C887.382,-166.704 928.018,-153.456 962,-138 962.6,-137.727 1019.07,-104.954 1054,-84.6791"/>
<polygon fill="midnightblue" stroke="midnightblue" points="1055.9,-87.6229 1062.79,-79.5751 1052.38,-81.5692 1055.9,-87.6229"/>
</g>
<!-- Node6 -->
<g id="node11" class="node"><title>Node6</title>
<a xlink:href="interval_8h.html" target="_top" xlink:title="base/interval.h">
<polygon fill="white" stroke="black" points="595,-116.5 595,-137.5 675,-137.5 675,-116.5 595,-116.5"/>
<text text-anchor="middle" x="635" y="-124.5" font-family="Helvetica,sans-Serif" font-size="10.00">base/interval.h</text>
</a>
</g>
<!-- Node2&#45;&gt;Node6 -->
<g id="edge10" class="edge"><title>Node2&#45;&gt;Node6</title>
<path fill="none" stroke="midnightblue" d="M789.774,-174.497C758.695,-164.959 712.688,-150.841 678.91,-140.475"/>
<polygon fill="midnightblue" stroke="midnightblue" points="679.877,-137.111 669.291,-137.523 677.824,-143.803 679.877,-137.111"/>
</g>
<!-- Node7 -->
<g id="node13" class="node"><title>Node7</title>
<polygon fill="white" stroke="#bfbfbf" points="648,-58.5 648,-79.5 704,-79.5 704,-58.5 648,-58.5"/>
<text text-anchor="middle" x="676" y="-66.5" font-family="Helvetica,sans-Serif" font-size="10.00">algorithm</text>
</g>
<!-- Node6&#45;&gt;Node7 -->
<g id="edge12" class="edge"><title>Node6&#45;&gt;Node7</title>
<path fill="none" stroke="midnightblue" d="M642.52,-116.362C648.126,-108.431 655.932,-97.3885 662.597,-87.9606"/>
<polygon fill="midnightblue" stroke="midnightblue" points="665.613,-89.7568 668.528,-79.5707 659.897,-85.7161 665.613,-89.7568"/>
</g>
<!-- Node8 -->
<g id="node15" class="node"><title>Node8</title>
<polygon fill="white" stroke="#bfbfbf" points="409.5,-58.5 409.5,-79.5 468.5,-79.5 468.5,-58.5 409.5,-58.5"/>
<text text-anchor="middle" x="439" y="-66.5" font-family="Helvetica,sans-Serif" font-size="10.00">stdexcept</text>
</g>
<!-- Node6&#45;&gt;Node8 -->
<g id="edge14" class="edge"><title>Node6&#45;&gt;Node8</title>
<path fill="none" stroke="midnightblue" d="M599.506,-116.497C565.469,-106.424 514.166,-91.2431 478.768,-80.7681"/>
<polygon fill="midnightblue" stroke="midnightblue" points="479.364,-77.2946 468.782,-77.8131 477.378,-84.0069 479.364,-77.2946"/>
</g>
<!-- Node9 -->
<g id="node17" class="node"><title>Node9</title>
<a xlink:href="printable_8h.html" target="_top" xlink:title="printable.h">
<polygon fill="white" stroke="black" points="330,-58.5 330,-79.5 392,-79.5 392,-58.5 330,-58.5"/>
<text text-anchor="middle" x="361" y="-66.5" font-family="Helvetica,sans-Serif" font-size="10.00">printable.h</text>
</a>
</g>
<!-- Node6&#45;&gt;Node9 -->
<g id="edge16" class="edge"><title>Node6&#45;&gt;Node9</title>
<path fill="none" stroke="midnightblue" d="M594.649,-119.785C549.874,-111.583 475.284,-97.3368 402.219,-80.1836"/>
<polygon fill="midnightblue" stroke="midnightblue" points="402.927,-76.7545 392.389,-77.8558 401.314,-83.5661 402.927,-76.7545"/>
</g>
<!-- Node11 -->
<g id="node22" class="node"><title>Node11</title>
<a xlink:href="types_8h.html" target="_top" xlink:title="types.h">
<polygon fill="white" stroke="black" points="523.5,-58.5 523.5,-79.5 572.5,-79.5 572.5,-58.5 523.5,-58.5"/>
<text text-anchor="middle" x="548" y="-66.5" font-family="Helvetica,sans-Serif" font-size="10.00">types.h</text>
</a>
</g>
<!-- Node6&#45;&gt;Node11 -->
<g id="edge22" class="edge"><title>Node6&#45;&gt;Node11</title>
<path fill="none" stroke="midnightblue" d="M619.043,-116.362C606.043,-107.696 587.469,-95.3126 572.573,-85.3819"/>
<polygon fill="midnightblue" stroke="midnightblue" points="574.118,-82.2055 563.856,-79.5707 570.235,-88.0299 574.118,-82.2055"/>
</g>
<!-- Node12 -->
<g id="node24" class="node"><title>Node12</title>
<polygon fill="white" stroke="#bfbfbf" points="590,-58.5 590,-79.5 630,-79.5 630,-58.5 590,-58.5"/>
<text text-anchor="middle" x="610" y="-66.5" font-family="Helvetica,sans-Serif" font-size="10.00">limits</text>
</g>
<!-- Node6&#45;&gt;Node12 -->
<g id="edge24" class="edge"><title>Node6&#45;&gt;Node12</title>
<path fill="none" stroke="midnightblue" d="M630.415,-116.362C627.102,-108.677 622.53,-98.0686 618.552,-88.8399"/>
<polygon fill="midnightblue" stroke="midnightblue" points="621.729,-87.3685 614.556,-79.5707 615.301,-90.1393 621.729,-87.3685"/>
</g>
<!-- Node9&#45;&gt;Node4 -->
<g id="edge18" class="edge"><title>Node9&#45;&gt;Node4</title>
<path fill="none" stroke="midnightblue" d="M361,-58.3619C361,-50.9219 361,-40.7427 361,-31.7276"/>
<polygon fill="midnightblue" stroke="midnightblue" points="364.5,-31.5706 361,-21.5707 357.5,-31.5707 364.5,-31.5706"/>
</g>
<!-- Node10 -->
<g id="node20" class="node"><title>Node10</title>
<polygon fill="white" stroke="#bfbfbf" points="470,-0.5 470,-21.5 522,-21.5 522,-0.5 470,-0.5"/>
<text text-anchor="middle" x="496" y="-8.5" font-family="Helvetica,sans-Serif" font-size="10.00">ostream</text>
</g>
<!-- Node9&#45;&gt;Node10 -->
<g id="edge20" class="edge"><title>Node9&#45;&gt;Node10</title>
<path fill="none" stroke="midnightblue" d="M385.447,-58.4966C406.818,-49.3154 438.069,-35.8889 461.897,-25.6516"/>
<polygon fill="midnightblue" stroke="midnightblue" points="463.472,-28.7845 471.278,-21.6212 460.709,-22.3529 463.472,-28.7845"/>
</g>
<!-- Node13&#45;&gt;Node2 -->
<g id="edge28" class="edge"><title>Node13&#45;&gt;Node2</title>
<path fill="none" stroke="midnightblue" d="M1041.35,-235.423C1001.96,-226.753 935.472,-211.954 868.871,-196.173"/>
<polygon fill="midnightblue" stroke="midnightblue" points="869.585,-192.745 859.047,-193.838 867.967,-199.556 869.585,-192.745"/>
</g>
<!-- Node13&#45;&gt;Node5 -->
<g id="edge60" class="edge"><title>Node13&#45;&gt;Node5</title>
<path fill="none" stroke="midnightblue" d="M1110.61,-240.637C1191.7,-234.749 1388.65,-218.279 1408,-196 1493.35,-97.716 1208.24,-75.0201 1111.77,-70.2051"/>
<polygon fill="midnightblue" stroke="midnightblue" points="1111.9,-66.7074 1101.75,-69.7359 1111.57,-73.6997 1111.9,-66.7074"/>
</g>
<!-- Node14 -->
<g id="node29" class="node"><title>Node14</title>
<a xlink:href="root__draw_8h.html" target="_top" xlink:title="root_draw.h">
<polygon fill="white" stroke="black" points="1119,-174.5 1119,-195.5 1187,-195.5 1187,-174.5 1119,-174.5"/>
<text text-anchor="middle" x="1153" y="-182.5" font-family="Helvetica,sans-Serif" font-size="10.00">root_draw.h</text>
</a>
</g>
<!-- Node13&#45;&gt;Node14 -->
<g id="edge30" class="edge"><title>Node13&#45;&gt;Node14</title>
<path fill="none" stroke="midnightblue" d="M1090.12,-232.362C1101.52,-223.777 1117.76,-211.546 1130.88,-201.664"/>
<polygon fill="midnightblue" stroke="midnightblue" points="1133.08,-204.383 1138.97,-195.571 1128.87,-198.792 1133.08,-204.383"/>
</g>
<!-- Node17 -->
<g id="node37" class="node"><title>Node17</title>
<polygon fill="white" stroke="#bfbfbf" points="1009,-116.5 1009,-137.5 1061,-137.5 1061,-116.5 1009,-116.5"/>
<text text-anchor="middle" x="1035" y="-124.5" font-family="Helvetica,sans-Serif" font-size="10.00">memory</text>
</g>
<!-- Node13&#45;&gt;Node17 -->
<g id="edge58" class="edge"><title>Node13&#45;&gt;Node17</title>
<path fill="none" stroke="midnightblue" d="M1065.78,-232.401C1057.84,-223.462 1047.3,-209.93 1042,-196 1036.12,-180.55 1034.53,-161.825 1034.33,-147.782"/>
<polygon fill="midnightblue" stroke="midnightblue" points="1037.83,-147.702 1034.4,-137.676 1030.83,-147.65 1037.83,-147.702"/>
</g>
<!-- Node20 -->
<g id="node43" class="node"><title>Node20</title>
<a xlink:href="memory_8h.html" target="_top" xlink:title="base/std_ext/memory.h">
<polygon fill="white" stroke="black" points="876.5,-174.5 876.5,-195.5 995.5,-195.5 995.5,-174.5 876.5,-174.5"/>
<text text-anchor="middle" x="936" y="-182.5" font-family="Helvetica,sans-Serif" font-size="10.00">base/std_ext/memory.h</text>
</a>
</g>
<!-- Node13&#45;&gt;Node20 -->
<g id="edge46" class="edge"><title>Node13&#45;&gt;Node20</title>
<path fill="none" stroke="midnightblue" d="M1050.65,-232.497C1028.39,-223.275 995.788,-209.769 971.037,-199.515"/>
<polygon fill="midnightblue" stroke="midnightblue" points="972.216,-196.215 961.637,-195.621 969.536,-202.682 972.216,-196.215"/>
</g>
<!-- Node21 -->
<g id="node47" class="node"><title>Node21</title>
<polygon fill="white" stroke="#bfbfbf" points="1050.5,-174.5 1050.5,-195.5 1101.5,-195.5 1101.5,-174.5 1050.5,-174.5"/>
<text text-anchor="middle" x="1076" y="-182.5" font-family="Helvetica,sans-Serif" font-size="10.00">TH1D.h</text>
</g>
<!-- Node13&#45;&gt;Node21 -->
<g id="edge52" class="edge"><title>Node13&#45;&gt;Node21</title>
<path fill="none" stroke="midnightblue" d="M1076,-232.362C1076,-224.922 1076,-214.743 1076,-205.728"/>
<polygon fill="midnightblue" stroke="midnightblue" points="1079.5,-205.571 1076,-195.571 1072.5,-205.571 1079.5,-205.571"/>
</g>
<!-- Node22 -->
<g id="node49" class="node"><title>Node22</title>
<polygon fill="white" stroke="#bfbfbf" points="1204.5,-174.5 1204.5,-195.5 1255.5,-195.5 1255.5,-174.5 1204.5,-174.5"/>
<text text-anchor="middle" x="1230" y="-182.5" font-family="Helvetica,sans-Serif" font-size="10.00">TH2D.h</text>
</g>
<!-- Node13&#45;&gt;Node22 -->
<g id="edge54" class="edge"><title>Node13&#45;&gt;Node22</title>
<path fill="none" stroke="midnightblue" d="M1103.89,-232.497C1129.36,-222.902 1167.15,-208.672 1194.71,-198.29"/>
<polygon fill="midnightblue" stroke="midnightblue" points="1196.24,-201.454 1204.37,-194.654 1193.77,-194.904 1196.24,-201.454"/>
</g>
<!-- Node23 -->
<g id="node51" class="node"><title>Node23</title>
<polygon fill="white" stroke="#bfbfbf" points="1272.5,-174.5 1272.5,-195.5 1323.5,-195.5 1323.5,-174.5 1272.5,-174.5"/>
<text text-anchor="middle" x="1298" y="-182.5" font-family="Helvetica,sans-Serif" font-size="10.00">TH3D.h</text>
</g>
<!-- Node13&#45;&gt;Node23 -->
<g id="edge56" class="edge"><title>Node13&#45;&gt;Node23</title>
<path fill="none" stroke="midnightblue" d="M1110.84,-235.039C1146.72,-226.674 1204.46,-212.758 1262.71,-196.256"/>
<polygon fill="midnightblue" stroke="midnightblue" points="1263.78,-199.588 1272.44,-193.476 1261.86,-192.858 1263.78,-199.588"/>
</g>
<!-- Node24 -->
<g id="node55" class="node"><title>Node24</title>
<polygon fill="white" stroke="#bfbfbf" points="717,-174.5 717,-195.5 771,-195.5 771,-174.5 717,-174.5"/>
<text text-anchor="middle" x="744" y="-182.5" font-family="Helvetica,sans-Serif" font-size="10.00">iostream</text>
</g>
<!-- Node13&#45;&gt;Node24 -->
<g id="edge62" class="edge"><title>Node13&#45;&gt;Node24</title>
<path fill="none" stroke="midnightblue" d="M1041.06,-239.051C987.181,-232.615 880.451,-218.496 780.933,-195.974"/>
<polygon fill="midnightblue" stroke="midnightblue" points="781.547,-192.524 771.018,-193.696 779.98,-199.347 781.547,-192.524"/>
</g>
<!-- Node25 -->
<g id="node57" class="node"><title>Node25</title>
<polygon fill="white" stroke="#bfbfbf" points="1340.5,-174.5 1340.5,-195.5 1399.5,-195.5 1399.5,-174.5 1340.5,-174.5"/>
<text text-anchor="middle" x="1370" y="-182.5" font-family="Helvetica,sans-Serif" font-size="10.00">exception</text>
</g>
<!-- Node13&#45;&gt;Node25 -->
<g id="edge64" class="edge"><title>Node13&#45;&gt;Node25</title>
<path fill="none" stroke="midnightblue" d="M1110.6,-237.778C1158.12,-230.357 1246.44,-215.692 1330.27,-196.261"/>
<polygon fill="midnightblue" stroke="midnightblue" points="1331.27,-199.623 1340.2,-193.931 1329.67,-192.808 1331.27,-199.623"/>
</g>
<!-- Node14&#45;&gt;Node4 -->
<g id="edge36" class="edge"><title>Node14&#45;&gt;Node4</title>
<path fill="none" stroke="midnightblue" d="M1153.1,-174.177C1152.69,-148.91 1147.73,-86.059 1110,-58 1052.05,-14.9035 532.976,-27.9506 461,-22 438.278,-20.1215 412.727,-17.2985 393.14,-14.9828"/>
<polygon fill="midnightblue" stroke="midnightblue" points="393.554,-11.5075 383.209,-13.7918 392.721,-18.4577 393.554,-11.5075"/>
</g>
<!-- Node14&#45;&gt;Node5 -->
<g id="edge32" class="edge"><title>Node14&#45;&gt;Node5</title>
<path fill="none" stroke="midnightblue" d="M1146.36,-174.295C1134.19,-154.7 1108.2,-112.82 1092.91,-88.1913"/>
<polygon fill="midnightblue" stroke="midnightblue" points="1095.88,-86.3298 1087.63,-79.6792 1089.93,-90.0214 1095.88,-86.3298"/>
</g>
<!-- Node15 -->
<g id="node32" class="node"><title>Node15</title>
<polygon fill="white" stroke="#bfbfbf" points="924.5,-116.5 924.5,-137.5 953.5,-137.5 953.5,-116.5 924.5,-116.5"/>
<text text-anchor="middle" x="939" y="-124.5" font-family="Helvetica,sans-Serif" font-size="10.00">list</text>
</g>
<!-- Node14&#45;&gt;Node15 -->
<g id="edge34" class="edge"><title>Node14&#45;&gt;Node15</title>
<path fill="none" stroke="midnightblue" d="M1118.62,-175.681C1075.2,-163.915 1001.59,-143.963 963.484,-133.636"/>
<polygon fill="midnightblue" stroke="midnightblue" points="964.3,-130.231 953.733,-130.993 962.469,-136.987 964.3,-130.231"/>
</g>
<!-- Node16 -->
<g id="node35" class="node"><title>Node16</title>
<polygon fill="white" stroke="#bfbfbf" points="936.5,-58.5 936.5,-79.5 971.5,-79.5 971.5,-58.5 936.5,-58.5"/>
<text text-anchor="middle" x="954" y="-66.5" font-family="Helvetica,sans-Serif" font-size="10.00">map</text>
</g>
<!-- Node14&#45;&gt;Node16 -->
<g id="edge38" class="edge"><title>Node14&#45;&gt;Node16</title>
<path fill="none" stroke="midnightblue" d="M1142.55,-174.457C1127.57,-159.796 1098.62,-133.128 1070,-116 1041.45,-98.9146 1005.55,-85.4527 981.31,-77.3924"/>
<polygon fill="midnightblue" stroke="midnightblue" points="982.282,-74.0283 971.69,-74.2739 980.124,-80.6871 982.282,-74.0283"/>
</g>
<!-- Node14&#45;&gt;Node17 -->
<g id="edge40" class="edge"><title>Node14&#45;&gt;Node17</title>
<path fill="none" stroke="midnightblue" d="M1131.63,-174.497C1113.2,-165.438 1086.36,-152.246 1065.64,-142.063"/>
<polygon fill="midnightblue" stroke="midnightblue" points="1067.13,-138.891 1056.61,-137.621 1064.04,-145.174 1067.13,-138.891"/>
</g>
<!-- Node18 -->
<g id="node39" class="node"><title>Node18</title>
<polygon fill="white" stroke="#bfbfbf" points="1266.5,-116.5 1266.5,-137.5 1325.5,-137.5 1325.5,-116.5 1266.5,-116.5"/>
<text text-anchor="middle" x="1296" y="-124.5" font-family="Helvetica,sans-Serif" font-size="10.00">functional</text>
</g>
<!-- Node14&#45;&gt;Node18 -->
<g id="edge42" class="edge"><title>Node14&#45;&gt;Node18</title>
<path fill="none" stroke="midnightblue" d="M1178.9,-174.497C1201.63,-165.275 1234.93,-151.769 1260.21,-141.515"/>
<polygon fill="midnightblue" stroke="midnightblue" points="1261.86,-144.623 1269.81,-137.621 1259.23,-138.136 1261.86,-144.623"/>
</g>
<!-- Node19 -->
<g id="node41" class="node"><title>Node19</title>
<polygon fill="white" stroke="#bfbfbf" points="1193,-116.5 1193,-137.5 1249,-137.5 1249,-116.5 1193,-116.5"/>
<text text-anchor="middle" x="1221" y="-124.5" font-family="Helvetica,sans-Serif" font-size="10.00">Rtypes.h</text>
</g>
<!-- Node14&#45;&gt;Node19 -->
<g id="edge44" class="edge"><title>Node14&#45;&gt;Node19</title>
<path fill="none" stroke="midnightblue" d="M1165.47,-174.362C1175.35,-165.941 1189.33,-154.011 1200.8,-144.231"/>
<polygon fill="midnightblue" stroke="midnightblue" points="1203.27,-146.723 1208.61,-137.571 1198.73,-141.397 1203.27,-146.723"/>
</g>
<!-- Node20&#45;&gt;Node15 -->
<g id="edge50" class="edge"><title>Node20&#45;&gt;Node15</title>
<path fill="none" stroke="midnightblue" d="M936.55,-174.362C936.935,-166.922 937.462,-156.743 937.928,-147.728"/>
<polygon fill="midnightblue" stroke="midnightblue" points="941.432,-147.738 938.453,-137.571 934.441,-147.376 941.432,-147.738"/>
</g>
<!-- Node20&#45;&gt;Node17 -->
<g id="edge48" class="edge"><title>Node20&#45;&gt;Node17</title>
<path fill="none" stroke="midnightblue" d="M954.158,-174.362C969.23,-165.532 990.887,-152.844 1007.99,-142.822"/>
<polygon fill="midnightblue" stroke="midnightblue" points="1010.1,-145.646 1016.96,-137.571 1006.56,-139.606 1010.1,-145.646"/>
</g>
<!-- Node26&#45;&gt;Node4 -->
<g id="edge126" class="edge"><title>Node26&#45;&gt;Node4</title>
<path fill="none" stroke="midnightblue" d="M507.393,-295.042C361.818,-279.69 0,-236.369 0,-185 0,-185 0,-185 0,-127 0,-91.5529 10.6527,-77.8803 40,-58 86.6829,-26.3763 256.7,-15.4692 328.572,-12.2176"/>
<polygon fill="midnightblue" stroke="midnightblue" points="328.995,-15.7027 338.835,-11.7756 328.694,-8.70921 328.995,-15.7027"/>
</g>
<!-- Node26&#45;&gt;Node9 -->
<g id="edge68" class="edge"><title>Node26&#45;&gt;Node9</title>
<path fill="none" stroke="midnightblue" d="M558.279,-290.104C547.236,-276.385 527.532,-252.171 510,-232 463.331,-178.305 406.036,-116.813 378.037,-87.0375"/>
<polygon fill="midnightblue" stroke="midnightblue" points="380.354,-84.3928 370.95,-79.513 375.258,-89.1923 380.354,-84.3928"/>
</g>
<!-- Node26&#45;&gt;Node11 -->
<g id="edge70" class="edge"><title>Node26&#45;&gt;Node11</title>
<path fill="none" stroke="midnightblue" d="M566.134,-290.429C563.204,-254.648 553.623,-137.663 549.699,-89.7481"/>
<polygon fill="midnightblue" stroke="midnightblue" points="553.175,-89.3144 548.871,-79.6335 546.199,-89.8859 553.175,-89.3144"/>
</g>
<!-- Node26&#45;&gt;Node15 -->
<g id="edge128" class="edge"><title>Node26&#45;&gt;Node15</title>
<path fill="none" stroke="midnightblue" d="M580.355,-290.435C592.052,-281.077 609.411,-266.932 624,-254 662.58,-219.801 661.946,-197.174 708,-174 788.942,-133.271 824.18,-164.227 914.363,-137.85"/>
<polygon fill="midnightblue" stroke="midnightblue" points="915.626,-141.123 924.148,-134.829 913.561,-134.435 915.626,-141.123"/>
</g>
<!-- Node26&#45;&gt;Node24 -->
<g id="edge130" class="edge"><title>Node26&#45;&gt;Node24</title>
<path fill="none" stroke="midnightblue" d="M623.872,-290.436C649.789,-283.437 679.606,-272.091 702,-254 717.866,-241.183 729.26,-220.659 736.143,-205.322"/>
<polygon fill="midnightblue" stroke="midnightblue" points="739.542,-206.266 740.186,-195.691 733.088,-203.556 739.542,-206.266"/>
</g>
<!-- Node27 -->
<g id="node63" class="node"><title>Node27</title>
<a xlink:href="_particle_type_8h.html" target="_top" xlink:title="base/ParticleType.h">
<polygon fill="white" stroke="black" points="693,-116.5 693,-137.5 797,-137.5 797,-116.5 693,-116.5"/>
<text text-anchor="middle" x="745" y="-124.5" font-family="Helvetica,sans-Serif" font-size="10.00">base/ParticleType.h</text>
</a>
</g>
<!-- Node26&#45;&gt;Node27 -->
<g id="edge72" class="edge"><title>Node26&#45;&gt;Node27</title>
<path fill="none" stroke="midnightblue" d="M574.424,-290.244C590.677,-267.178 631.374,-211.971 674,-174 687.094,-162.336 703.298,-151.39 716.919,-143.001"/>
<polygon fill="midnightblue" stroke="midnightblue" points="719.097,-145.775 725.865,-137.624 715.491,-139.775 719.097,-145.775"/>
</g>
<!-- Node29 -->
<g id="node72" class="node"><title>Node29</title>
<a xlink:href="_candidate_8h.html" target="_top" xlink:title="analysis/data/Candidate.h">
<polygon fill="white" stroke="black" points="261,-232.5 261,-253.5 391,-253.5 391,-232.5 261,-232.5"/>
<text text-anchor="middle" x="326" y="-240.5" font-family="Helvetica,sans-Serif" font-size="10.00">analysis/data/Candidate.h</text>
</a>
</g>
<!-- Node26&#45;&gt;Node29 -->
<g id="edge86" class="edge"><title>Node26&#45;&gt;Node29</title>
<path fill="none" stroke="midnightblue" d="M523.357,-290.497C482.962,-280.775 422.79,-266.294 379.513,-255.879"/>
<polygon fill="midnightblue" stroke="midnightblue" points="380.267,-252.46 369.725,-253.523 378.629,-259.266 380.267,-252.46"/>
</g>
<!-- Node36 -->
<g id="node98" class="node"><title>Node36</title>
<polygon fill="white" stroke="#bfbfbf" points="409,-232.5 409,-253.5 501,-253.5 501,-232.5 409,-232.5"/>
<text text-anchor="middle" x="455" y="-240.5" font-family="Helvetica,sans-Serif" font-size="10.00">TLorentzVector.h</text>
</g>
<!-- Node26&#45;&gt;Node36 -->
<g id="edge124" class="edge"><title>Node26&#45;&gt;Node36</title>
<path fill="none" stroke="midnightblue" d="M546.718,-290.497C529.382,-281.519 504.21,-268.484 484.62,-258.339"/>
<polygon fill="midnightblue" stroke="midnightblue" points="485.999,-255.112 475.51,-253.621 482.78,-261.328 485.999,-255.112"/>
</g>
<!-- Node27&#45;&gt;Node4 -->
<g id="edge84" class="edge"><title>Node27&#45;&gt;Node4</title>
<path fill="none" stroke="midnightblue" d="M756.958,-116.074C771.552,-101.445 792.483,-75.3313 777,-58 776.197,-57.101 490.651,-25.3721 393.169,-14.5638"/>
<polygon fill="midnightblue" stroke="midnightblue" points="393.348,-11.0623 383.024,-13.4392 392.577,-18.0197 393.348,-11.0623"/>
</g>
<!-- Node27&#45;&gt;Node5 -->
<g id="edge76" class="edge"><title>Node27&#45;&gt;Node5</title>
<path fill="none" stroke="midnightblue" d="M797.131,-118.001C868.104,-105.75 992.869,-84.2131 1050.38,-74.2852"/>
<polygon fill="midnightblue" stroke="midnightblue" points="1051.05,-77.7215 1060.31,-72.5714 1049.86,-70.8235 1051.05,-77.7215"/>
</g>
<!-- Node27&#45;&gt;Node10 -->
<g id="edge78" class="edge"><title>Node27&#45;&gt;Node10</title>
<path fill="none" stroke="midnightblue" d="M767.814,-116.283C793.195,-102.945 828.368,-79.3216 810,-58 792.068,-37.1845 611.617,-20.2844 532.663,-13.8262"/>
<polygon fill="midnightblue" stroke="midnightblue" points="532.472,-10.2996 522.223,-12.9849 531.909,-17.277 532.472,-10.2996"/>
</g>
<!-- Node27&#45;&gt;Node11 -->
<g id="edge74" class="edge"><title>Node27&#45;&gt;Node11</title>
<path fill="none" stroke="midnightblue" d="M706.424,-116.445C675.25,-107.804 630.019,-95.0167 582.647,-80.44"/>
<polygon fill="midnightblue" stroke="midnightblue" points="583.417,-77.0147 572.83,-77.4026 581.348,-83.7019 583.417,-77.0147"/>
</g>
<!-- Node27&#45;&gt;Node16 -->
<g id="edge80" class="edge"><title>Node27&#45;&gt;Node16</title>
<path fill="none" stroke="midnightblue" d="M782.848,-116.497C824.175,-105.028 889.371,-86.9353 926.222,-76.7089"/>
<polygon fill="midnightblue" stroke="midnightblue" points="927.556,-79.971 936.255,-73.9243 925.684,-73.2259 927.556,-79.971"/>
</g>
<!-- Node28 -->
<g id="node69" class="node"><title>Node28</title>
<polygon fill="white" stroke="#bfbfbf" points="721.5,-58.5 721.5,-79.5 768.5,-79.5 768.5,-58.5 721.5,-58.5"/>
<text text-anchor="middle" x="745" y="-66.5" font-family="Helvetica,sans-Serif" font-size="10.00">iterator</text>
</g>
<!-- Node27&#45;&gt;Node28 -->
<g id="edge82" class="edge"><title>Node27&#45;&gt;Node28</title>
<path fill="none" stroke="midnightblue" d="M745,-116.362C745,-108.922 745,-98.7427 745,-89.7276"/>
<polygon fill="midnightblue" stroke="midnightblue" points="748.5,-89.5706 745,-79.5707 741.5,-89.5707 748.5,-89.5706"/>
</g>
<!-- Node29&#45;&gt;Node4 -->
<g id="edge122" class="edge"><title>Node29&#45;&gt;Node4</title>
<path fill="none" stroke="midnightblue" d="M281.72,-232.489C187.879,-208.245 -16.5955,-143.848 57,-58 74.5585,-37.5183 253.792,-20.088 328.54,-13.6524"/>
<polygon fill="midnightblue" stroke="midnightblue" points="329.11,-17.1167 338.778,-12.7836 328.518,-10.1417 329.11,-17.1167"/>
</g>
<!-- Node29&#45;&gt;Node9 -->
<g id="edge88" class="edge"><title>Node29&#45;&gt;Node9</title>
<path fill="none" stroke="midnightblue" d="M328.137,-232.377C333.786,-204.293 349.198,-127.673 356.735,-90.2027"/>
<polygon fill="midnightblue" stroke="midnightblue" points="360.261,-90.4216 358.802,-79.9277 353.399,-89.0411 360.261,-90.4216"/>
</g>
<!-- Node29&#45;&gt;Node10 -->
<g id="edge118" class="edge"><title>Node29&#45;&gt;Node10</title>
<path fill="none" stroke="midnightblue" d="M339.571,-232.331C369.129,-208.363 439.662,-147.073 477,-80 485.297,-65.0947 490.16,-46.3305 492.885,-32.1338"/>
<polygon fill="midnightblue" stroke="midnightblue" points="496.401,-32.3356 494.637,-21.8887 489.501,-31.1555 496.401,-32.3356"/>
</g>
<!-- Node29&#45;&gt;Node11 -->
<g id="edge90" class="edge"><title>Node29&#45;&gt;Node11</title>
<path fill="none" stroke="midnightblue" d="M386.26,-232.45C413.04,-225.489 443.703,-214.17 467,-196 503.753,-167.335 528.592,-117.025 540.291,-89.1039"/>
<polygon fill="midnightblue" stroke="midnightblue" points="543.634,-90.174 544.13,-79.5908 537.142,-87.5549 543.634,-90.174"/>
</g>
<!-- Node29&#45;&gt;Node17 -->
<g id="edge120" class="edge"><title>Node29&#45;&gt;Node17</title>
<path fill="none" stroke="midnightblue" d="M380.607,-232.464C454.645,-218.333 591.066,-192.841 708,-174 820.565,-155.863 849.182,-154.495 962,-138 974.065,-136.236 987.243,-134.264 999.042,-132.482"/>
<polygon fill="midnightblue" stroke="midnightblue" points="999.63,-135.933 1008.99,-130.975 998.582,-129.012 999.63,-135.933"/>
</g>
<!-- Node30 -->
<g id="node76" class="node"><title>Node30</title>
<a xlink:href="_detector__t_8h.html" target="_top" xlink:title="base/Detector_t.h">
<polygon fill="white" stroke="black" points="241.5,-116.5 241.5,-137.5 336.5,-137.5 336.5,-116.5 241.5,-116.5"/>
<text text-anchor="middle" x="289" y="-124.5" font-family="Helvetica,sans-Serif" font-size="10.00">base/Detector_t.h</text>
</a>
</g>
<!-- Node29&#45;&gt;Node30 -->
<g id="edge92" class="edge"><title>Node29&#45;&gt;Node30</title>
<path fill="none" stroke="midnightblue" d="M323.359,-232.147C319.952,-218.473 313.666,-194.305 307,-174 304.087,-165.128 300.469,-155.472 297.242,-147.233"/>
<polygon fill="midnightblue" stroke="midnightblue" points="300.404,-145.711 293.447,-137.72 293.902,-148.305 300.404,-145.711"/>
</g>
<!-- Node34 -->
<g id="node88" class="node"><title>Node34</title>
<a xlink:href="_cluster_8h.html" target="_top" xlink:title="analysis/data/Cluster.h">
<polygon fill="white" stroke="black" points="181.5,-174.5 181.5,-195.5 298.5,-195.5 298.5,-174.5 181.5,-174.5"/>
<text text-anchor="middle" x="240" y="-182.5" font-family="Helvetica,sans-Serif" font-size="10.00">analysis/data/Cluster.h</text>
</a>
</g>
<!-- Node29&#45;&gt;Node34 -->
<g id="edge108" class="edge"><title>Node29&#45;&gt;Node34</title>
<path fill="none" stroke="midnightblue" d="M310.226,-232.362C297.376,-223.696 279.015,-211.313 264.29,-201.382"/>
<polygon fill="midnightblue" stroke="midnightblue" points="265.921,-198.26 255.674,-195.571 262.007,-204.064 265.921,-198.26"/>
</g>
<!-- Node30&#45;&gt;Node4 -->
<g id="edge106" class="edge"><title>Node30&#45;&gt;Node4</title>
<path fill="none" stroke="midnightblue" d="M241.458,-116.625C201.814,-105.73 155.076,-86.2281 177,-58 195.426,-34.2761 280.844,-20.5127 328.55,-14.5499"/>
<polygon fill="midnightblue" stroke="midnightblue" points="329.172,-18.0004 338.682,-13.3299 328.335,-11.0506 329.172,-18.0004"/>
</g>
<!-- Node30&#45;&gt;Node5 -->
<g id="edge102" class="edge"><title>Node30&#45;&gt;Node5</title>
<path fill="none" stroke="midnightblue" d="M336.804,-124.418C449.136,-118.205 738.653,-101.342 980,-80 1003.53,-77.9192 1030.08,-75.0049 1050.06,-72.6987"/>
<polygon fill="midnightblue" stroke="midnightblue" points="1050.61,-76.1585 1060.13,-71.5226 1049.79,-69.2057 1050.61,-76.1585"/>
</g>
<!-- Node30&#45;&gt;Node8 -->
<g id="edge100" class="edge"><title>Node30&#45;&gt;Node8</title>
<path fill="none" stroke="midnightblue" d="M316.164,-116.497C340.3,-107.164 375.781,-93.4447 402.412,-83.1475"/>
<polygon fill="midnightblue" stroke="midnightblue" points="403.72,-86.394 411.785,-79.5231 401.196,-79.8651 403.72,-86.394"/>
</g>
<!-- Node30&#45;&gt;Node9 -->
<g id="edge94" class="edge"><title>Node30&#45;&gt;Node9</title>
<path fill="none" stroke="midnightblue" d="M302.206,-116.362C312.761,-107.859 327.758,-95.7785 339.963,-85.9466"/>
<polygon fill="midnightblue" stroke="midnightblue" points="342.286,-88.5696 347.878,-79.5707 337.895,-83.1183 342.286,-88.5696"/>
</g>
<!-- Node31 -->
<g id="node79" class="node"><title>Node31</title>
<polygon fill="white" stroke="#bfbfbf" points="65.5,-58.5 65.5,-79.5 130.5,-79.5 130.5,-58.5 65.5,-58.5"/>
<text text-anchor="middle" x="98" y="-66.5" font-family="Helvetica,sans-Serif" font-size="10.00">TVector3.h</text>
</g>
<!-- Node30&#45;&gt;Node31 -->
<g id="edge96" class="edge"><title>Node30&#45;&gt;Node31</title>
<path fill="none" stroke="midnightblue" d="M254.411,-116.497C222.417,-106.781 174.767,-92.3114 140.474,-81.8978"/>
<polygon fill="midnightblue" stroke="midnightblue" points="141.322,-78.4976 130.737,-78.9409 139.288,-85.1956 141.322,-78.4976"/>
</g>
<!-- Node32 -->
<g id="node81" class="node"><title>Node32</title>
<polygon fill="white" stroke="#bfbfbf" points="266,-58.5 266,-79.5 312,-79.5 312,-58.5 266,-58.5"/>
<text text-anchor="middle" x="289" y="-66.5" font-family="Helvetica,sans-Serif" font-size="10.00">cstdint</text>
</g>
<!-- Node30&#45;&gt;Node32 -->
<g id="edge98" class="edge"><title>Node30&#45;&gt;Node32</title>
<path fill="none" stroke="midnightblue" d="M289,-116.362C289,-108.922 289,-98.7427 289,-89.7276"/>
<polygon fill="midnightblue" stroke="midnightblue" points="292.5,-89.5706 289,-79.5707 285.5,-89.5707 292.5,-89.5706"/>
</g>
<!-- Node33 -->
<g id="node85" class="node"><title>Node33</title>
<polygon fill="white" stroke="#bfbfbf" points="186,-58.5 186,-79.5 248,-79.5 248,-58.5 186,-58.5"/>
<text text-anchor="middle" x="217" y="-66.5" font-family="Helvetica,sans-Serif" font-size="10.00">type_traits</text>
</g>
<!-- Node30&#45;&gt;Node33 -->
<g id="edge104" class="edge"><title>Node30&#45;&gt;Node33</title>
<path fill="none" stroke="midnightblue" d="M275.794,-116.362C265.239,-107.859 250.242,-95.7785 238.037,-85.9466"/>
<polygon fill="midnightblue" stroke="midnightblue" points="240.105,-83.1183 230.122,-79.5707 235.714,-88.5696 240.105,-83.1183"/>
</g>
<!-- Node34&#45;&gt;Node15 -->
<g id="edge112" class="edge"><title>Node34&#45;&gt;Node15</title>
<path fill="none" stroke="midnightblue" d="M298.503,-183.744C436.873,-180.333 781.987,-169.14 914.315,-137.572"/>
<polygon fill="midnightblue" stroke="midnightblue" points="915.382,-140.912 924.216,-135.063 913.663,-134.126 915.382,-140.912"/>
</g>
<!-- Node34&#45;&gt;Node30 -->
<g id="edge110" class="edge"><title>Node34&#45;&gt;Node30</title>
<path fill="none" stroke="midnightblue" d="M248.987,-174.362C255.825,-166.268 265.402,-154.932 273.472,-145.38"/>
<polygon fill="midnightblue" stroke="midnightblue" points="276.29,-147.468 280.07,-137.571 270.942,-142.951 276.29,-147.468"/>
</g>
<!-- Node34&#45;&gt;Node31 -->
<g id="edge114" class="edge"><title>Node34&#45;&gt;Node31</title>
<path fill="none" stroke="midnightblue" d="M191.058,-174.468C168.471,-167.436 142.785,-156.054 125,-138 112.069,-124.874 105.156,-104.836 101.574,-89.7294"/>
<polygon fill="midnightblue" stroke="midnightblue" points="104.968,-88.8555 99.5169,-79.7705 98.1127,-90.2718 104.968,-88.8555"/>
</g>
<!-- Node35 -->
<g id="node93" class="node"><title>Node35</title>
<a xlink:href="enumfield_8h.html" target="_top" xlink:title="base/enumfield.h">
<polygon fill="white" stroke="black" points="133.5,-116.5 133.5,-137.5 224.5,-137.5 224.5,-116.5 133.5,-116.5"/>
<text text-anchor="middle" x="179" y="-124.5" font-family="Helvetica,sans-Serif" font-size="10.00">base/enumfield.h</text>
</a>
</g>
<!-- Node34&#45;&gt;Node35 -->
<g id="edge116" class="edge"><title>Node34&#45;&gt;Node35</title>
<path fill="none" stroke="midnightblue" d="M228.812,-174.362C220.041,-166.023 207.651,-154.242 197.422,-144.516"/>
<polygon fill="midnightblue" stroke="midnightblue" points="199.776,-141.925 190.117,-137.571 194.953,-146.998 199.776,-141.925"/>
</g>
</g>
</svg>
