<?xml version="1.0" encoding="UTF-8" standalone="no"?>
<!DOCTYPE svg PUBLIC "-//W3C//DTD SVG 1.1//EN"
 "http://www.w3.org/Graphics/SVG/1.1/DTD/svg11.dtd">
<!-- Generated by graphviz version 2.26.3 (20100126.1600)
 -->
<!-- Title: src/analysis/plot/HistogramFactories.cc Pages: 1 -->
<svg width="1526pt" height="450pt"
 viewBox="0.00 0.00 1525.80 450.00" xmlns="http://www.w3.org/2000/svg" xmlns:xlink="http://www.w3.org/1999/xlink">
<g id="graph1" class="graph" transform="scale(1 1) rotate(0) translate(4 446)">
<title>src/analysis/plot/HistogramFactories.cc</title>
<polygon fill="white" stroke="white" points="-4,5 -4,-446 1522.8,-446 1522.8,5 -4,5"/>
<!-- Node1 -->
<g id="node1" class="node"><title>Node1</title>
<polygon fill="#bfbfbf" stroke="black" points="269.947,-407 269.947,-441 405.947,-441 405.947,-407 269.947,-407"/>
<text text-anchor="start" x="277.947" y="-428" font-family="Helvetica,sans-Serif" font-size="10.00">src/analysis/plot/Histogram</text>
<text text-anchor="middle" x="337.947" y="-415" font-family="Helvetica,sans-Serif" font-size="10.00">Factories.cc</text>
</g>
<!-- Node2 -->
<g id="node3" class="node"><title>Node2</title>
<a xlink:href="_histogram_factories_8h.html" target="_top" xlink:title="plot/HistogramFactories.h">
<polygon fill="white" stroke="black" points="227.447,-348.5 227.447,-369.5 356.447,-369.5 356.447,-348.5 227.447,-348.5"/>
<text text-anchor="middle" x="291.947" y="-356.5" font-family="Helvetica,sans-Serif" font-size="10.00">plot/HistogramFactories.h</text>
</a>
</g>
<!-- Node1&#45;&gt;Node2 -->
<g id="edge2" class="edge"><title>Node1&#45;&gt;Node2</title>
<path fill="none" stroke="midnightblue" d="M325.861,-406.922C319.632,-398.12 312.013,-387.354 305.575,-378.258"/>
<polygon fill="midnightblue" stroke="midnightblue" points="308.26,-375.993 299.627,-369.852 302.546,-380.037 308.26,-375.993"/>
</g>
<!-- Node14 -->
<g id="node28" class="node"><title>Node14</title>
<a xlink:href="_smart_hist_8h.html" target="_top" xlink:title="SmartHist.h">
<polygon fill="white" stroke="black" points="257.447,-232.5 257.447,-253.5 326.447,-253.5 326.447,-232.5 257.447,-232.5"/>
<text text-anchor="middle" x="291.947" y="-240.5" font-family="Helvetica,sans-Serif" font-size="10.00">SmartHist.h</text>
</a>
</g>
<!-- Node1&#45;&gt;Node14 -->
<g id="edge136" class="edge"><title>Node1&#45;&gt;Node14</title>
<path fill="none" stroke="midnightblue" d="M269.799,-408.288C250.018,-400.225 230.621,-388.117 218.947,-370 194.268,-331.7 239.883,-284.807 269.492,-260.107"/>
<polygon fill="midnightblue" stroke="midnightblue" points="271.773,-262.764 277.347,-253.754 267.371,-257.321 271.773,-262.764"/>
</g>
<!-- Node22 -->
<g id="node49" class="node"><title>Node22</title>
<polygon fill="white" stroke="#bfbfbf" points="16.4467,-174.5 16.4467,-195.5 67.4467,-195.5 67.4467,-174.5 16.4467,-174.5"/>
<text text-anchor="middle" x="41.9467" y="-182.5" font-family="Helvetica,sans-Serif" font-size="10.00">TH1D.h</text>
</g>
<!-- Node1&#45;&gt;Node22 -->
<g id="edge144" class="edge"><title>Node1&#45;&gt;Node22</title>
<path fill="none" stroke="midnightblue" d="M282.02,-406.988C257.952,-398.142 230.278,-385.828 207.947,-370 139.79,-321.692 79.7852,-240.65 54.5804,-204.009"/>
<polygon fill="midnightblue" stroke="midnightblue" points="57.4505,-202.006 48.9384,-195.697 51.6587,-205.937 57.4505,-202.006"/>
</g>
<!-- Node27 -->
<g id="node61" class="node"><title>Node27</title>
<a xlink:href="_particle_8h.html" target="_top" xlink:title="analysis/data/Particle.h">
<polygon fill="white" stroke="black" points="789.447,-290.5 789.447,-311.5 908.447,-311.5 908.447,-290.5 789.447,-290.5"/>
<text text-anchor="middle" x="848.947" y="-298.5" font-family="Helvetica,sans-Serif" font-size="10.00">analysis/data/Particle.h</text>
</a>
</g>
<!-- Node1&#45;&gt;Node27 -->
<g id="edge138" class="edge"><title>Node1&#45;&gt;Node27</title>
<path fill="none" stroke="midnightblue" d="M347.333,-406.743C358.157,-388.716 377.745,-361.253 402.947,-348 466.534,-314.562 670.219,-304.909 778.968,-302.126"/>
<polygon fill="midnightblue" stroke="midnightblue" points="779.275,-305.619 789.187,-301.877 779.105,-298.621 779.275,-305.619"/>
</g>
<!-- Node38 -->
<g id="node108" class="node"><title>Node38</title>
<polygon fill="white" stroke="#bfbfbf" points="411.447,-348.5 411.447,-369.5 464.447,-369.5 464.447,-348.5 411.447,-348.5"/>
<text text-anchor="middle" x="437.947" y="-356.5" font-family="Helvetica,sans-Serif" font-size="10.00">TMath.h</text>
</g>
<!-- Node1&#45;&gt;Node38 -->
<g id="edge140" class="edge"><title>Node1&#45;&gt;Node38</title>
<path fill="none" stroke="midnightblue" d="M364.22,-406.922C379.268,-397.141 398.048,-384.934 412.887,-375.289"/>
<polygon fill="midnightblue" stroke="midnightblue" points="415.072,-378.043 421.549,-369.658 411.257,-372.174 415.072,-378.043"/>
</g>
<!-- Node39 -->
<g id="node110" class="node"><title>Node39</title>
<polygon fill="white" stroke="#bfbfbf" points="481.447,-348.5 481.447,-369.5 552.447,-369.5 552.447,-348.5 481.447,-348.5"/>
<text text-anchor="middle" x="516.947" y="-356.5" font-family="Helvetica,sans-Serif" font-size="10.00">TDirectory.h</text>
</g>
<!-- Node1&#45;&gt;Node39 -->
<g id="edge142" class="edge"><title>Node1&#45;&gt;Node39</title>
<path fill="none" stroke="midnightblue" d="M384.977,-406.922C414.037,-396.37 450.873,-382.993 478.239,-373.056"/>
<polygon fill="midnightblue" stroke="midnightblue" points="479.656,-376.265 487.861,-369.562 477.266,-369.685 479.656,-376.265"/>
</g>
<!-- Node3 -->
<g id="node5" class="node"><title>Node3</title>
<a xlink:href="_histogram_8h.html" target="_top" xlink:title="Histogram.h">
<polygon fill="white" stroke="black" points="594.947,-174.5 594.947,-195.5 664.947,-195.5 664.947,-174.5 594.947,-174.5"/>
<text text-anchor="middle" x="629.947" y="-182.5" font-family="Helvetica,sans-Serif" font-size="10.00">Histogram.h</text>
</a>
</g>
<!-- Node2&#45;&gt;Node3 -->
<g id="edge4" class="edge"><title>Node2&#45;&gt;Node3</title>
<path fill="none" stroke="midnightblue" d="M312.581,-348.377C370.095,-318.77 532.391,-235.221 599.903,-200.466"/>
<polygon fill="midnightblue" stroke="midnightblue" points="601.864,-203.394 609.153,-195.705 598.66,-197.17 601.864,-203.394"/>
</g>
<!-- Node6 -->
<g id="node11" class="node"><title>Node6</title>
<polygon fill="white" stroke="#bfbfbf" points="215.447,-58.5 215.447,-79.5 256.447,-79.5 256.447,-58.5 215.447,-58.5"/>
<text text-anchor="middle" x="235.947" y="-66.5" font-family="Helvetica,sans-Serif" font-size="10.00">string</text>
</g>
<!-- Node2&#45;&gt;Node6 -->
<g id="edge134" class="edge"><title>Node2&#45;&gt;Node6</title>
<path fill="none" stroke="midnightblue" d="M247.472,-348.459C181.464,-330.149 59.7942,-285.538 7.94665,-196 -38.1618,-116.373 132.354,-83.1596 204.829,-72.8299"/>
<polygon fill="midnightblue" stroke="midnightblue" points="205.739,-76.2382 215.173,-71.4168 204.791,-69.3027 205.739,-76.2382"/>
</g>
<!-- Node2&#45;&gt;Node14 -->
<g id="edge28" class="edge"><title>Node2&#45;&gt;Node14</title>
<path fill="none" stroke="midnightblue" d="M291.947,-348.295C291.947,-329.131 291.947,-288.654 291.947,-263.843"/>
<polygon fill="midnightblue" stroke="midnightblue" points="295.447,-263.679 291.947,-253.679 288.447,-263.679 295.447,-263.679"/>
</g>
<!-- Node2&#45;&gt;Node27 -->
<g id="edge68" class="edge"><title>Node2&#45;&gt;Node27</title>
<path fill="none" stroke="midnightblue" d="M356.615,-349.666C361.124,-349.081 365.601,-348.519 369.947,-348 515.093,-330.652 685.552,-315.066 778.945,-306.934"/>
<polygon fill="midnightblue" stroke="midnightblue" points="779.458,-310.403 789.118,-306.052 778.853,-303.429 779.458,-310.403"/>
</g>
<!-- Node4 -->
<g id="node7" class="node"><title>Node4</title>
<polygon fill="white" stroke="#bfbfbf" points="573.947,-116.5 573.947,-137.5 627.947,-137.5 627.947,-116.5 573.947,-116.5"/>
<text text-anchor="middle" x="600.947" y="-124.5" font-family="Helvetica,sans-Serif" font-size="10.00">TColor.h</text>
</g>
<!-- Node3&#45;&gt;Node4 -->
<g id="edge6" class="edge"><title>Node3&#45;&gt;Node4</title>
<path fill="none" stroke="midnightblue" d="M624.628,-174.362C620.744,-166.595 615.368,-155.843 610.72,-146.546"/>
<polygon fill="midnightblue" stroke="midnightblue" points="613.835,-144.95 606.232,-137.571 607.574,-148.08 613.835,-144.95"/>
</g>
<!-- Node5 -->
<g id="node9" class="node"><title>Node5</title>
<polygon fill="white" stroke="#bfbfbf" points="947.947,-0.5 947.947,-21.5 991.947,-21.5 991.947,-0.5 947.947,-0.5"/>
<text text-anchor="middle" x="969.947" y="-8.5" font-family="Helvetica,sans-Serif" font-size="10.00">vector</text>
</g>
<!-- Node3&#45;&gt;Node5 -->
<g id="edge8" class="edge"><title>Node3&#45;&gt;Node5</title>
<path fill="none" stroke="midnightblue" d="M631.861,-174.21C633.473,-164.708 635.708,-150.478 636.947,-138 637.825,-129.144 634.949,-64.5758 640.947,-58 660.767,-36.2682 857.745,-19.3371 937.086,-13.3467"/>
<polygon fill="midnightblue" stroke="midnightblue" points="937.757,-16.8065 947.47,-12.5746 937.238,-9.8258 937.757,-16.8065"/>
</g>
<!-- Node3&#45;&gt;Node6 -->
<g id="edge10" class="edge"><title>Node3&#45;&gt;Node6</title>
<path fill="none" stroke="midnightblue" d="M602.147,-174.344C579.431,-165.373 546.663,-151.824 518.947,-138 501.483,-129.29 499.23,-122.823 480.947,-116 406.975,-88.3959 314.116,-76.2724 266.78,-71.5798"/>
<polygon fill="midnightblue" stroke="midnightblue" points="266.863,-68.072 256.577,-70.6146 266.203,-75.0409 266.863,-68.072"/>
</g>
<!-- Node7 -->
<g id="node13" class="node"><title>Node7</title>
<a xlink:href="interval_8h.html" target="_top" xlink:title="base/interval.h">
<polygon fill="white" stroke="black" points="805.947,-116.5 805.947,-137.5 885.947,-137.5 885.947,-116.5 805.947,-116.5"/>
<text text-anchor="middle" x="845.947" y="-124.5" font-family="Helvetica,sans-Serif" font-size="10.00">base/interval.h</text>
</a>
</g>
<!-- Node3&#45;&gt;Node7 -->
<g id="edge12" class="edge"><title>Node3&#45;&gt;Node7</title>
<path fill="none" stroke="midnightblue" d="M665.132,-175.552C700.948,-165.935 756.763,-150.947 796.907,-140.168"/>
<polygon fill="midnightblue" stroke="midnightblue" points="798.003,-143.498 806.753,-137.524 796.188,-136.737 798.003,-143.498"/>
</g>
<!-- Node8 -->
<g id="node15" class="node"><title>Node8</title>
<polygon fill="white" stroke="#bfbfbf" points="819.947,-58.5 819.947,-79.5 875.947,-79.5 875.947,-58.5 819.947,-58.5"/>
<text text-anchor="middle" x="847.947" y="-66.5" font-family="Helvetica,sans-Serif" font-size="10.00">algorithm</text>
</g>
<!-- Node7&#45;&gt;Node8 -->
<g id="edge14" class="edge"><title>Node7&#45;&gt;Node8</title>
<path fill="none" stroke="midnightblue" d="M846.313,-116.362C846.57,-108.922 846.921,-98.7427 847.232,-89.7276"/>
<polygon fill="midnightblue" stroke="midnightblue" points="850.735,-89.6854 847.582,-79.5707 843.74,-89.4441 850.735,-89.6854"/>
</g>
<!-- Node9 -->
<g id="node17" class="node"><title>Node9</title>
<polygon fill="white" stroke="#bfbfbf" points="997.447,-58.5 997.447,-79.5 1056.45,-79.5 1056.45,-58.5 997.447,-58.5"/>
<text text-anchor="middle" x="1026.95" y="-66.5" font-family="Helvetica,sans-Serif" font-size="10.00">stdexcept</text>
</g>
<!-- Node7&#45;&gt;Node9 -->
<g id="edge16" class="edge"><title>Node7&#45;&gt;Node9</title>
<path fill="none" stroke="midnightblue" d="M878.724,-116.497C909.376,-106.675 955.188,-91.9945 987.758,-81.5577"/>
<polygon fill="midnightblue" stroke="midnightblue" points="988.954,-84.8497 997.409,-78.465 986.818,-78.1836 988.954,-84.8497"/>
</g>
<!-- Node10 -->
<g id="node19" class="node"><title>Node10</title>
<a xlink:href="printable_8h.html" target="_top" xlink:title="printable.h">
<polygon fill="white" stroke="black" points="1337.95,-58.5 1337.95,-79.5 1399.95,-79.5 1399.95,-58.5 1337.95,-58.5"/>
<text text-anchor="middle" x="1368.95" y="-66.5" font-family="Helvetica,sans-Serif" font-size="10.00">printable.h</text>
</a>
</g>
<!-- Node7&#45;&gt;Node10 -->
<g id="edge18" class="edge"><title>Node7&#45;&gt;Node10</title>
<path fill="none" stroke="midnightblue" d="M886.027,-125.423C967.577,-121.716 1158.7,-110.488 1327.56,-80.0052"/>
<polygon fill="midnightblue" stroke="midnightblue" points="1328.42,-83.4062 1337.62,-78.1605 1327.15,-76.5209 1328.42,-83.4062"/>
</g>
<!-- Node12 -->
<g id="node24" class="node"><title>Node12</title>
<a xlink:href="types_8h.html" target="_top" xlink:title="types.h">
<polygon fill="white" stroke="black" points="893.447,-58.5 893.447,-79.5 942.447,-79.5 942.447,-58.5 893.447,-58.5"/>
<text text-anchor="middle" x="917.947" y="-66.5" font-family="Helvetica,sans-Serif" font-size="10.00">types.h</text>
</a>
</g>
<!-- Node7&#45;&gt;Node12 -->
<g id="edge24" class="edge"><title>Node7&#45;&gt;Node12</title>
<path fill="none" stroke="midnightblue" d="M859.153,-116.362C869.708,-107.859 884.704,-95.7785 896.91,-85.9466"/>
<polygon fill="midnightblue" stroke="midnightblue" points="899.233,-88.5696 904.824,-79.5707 894.841,-83.1183 899.233,-88.5696"/>
</g>
<!-- Node13 -->
<g id="node26" class="node"><title>Node13</title>
<polygon fill="white" stroke="#bfbfbf" points="761.947,-58.5 761.947,-79.5 801.947,-79.5 801.947,-58.5 761.947,-58.5"/>
<text text-anchor="middle" x="781.947" y="-66.5" font-family="Helvetica,sans-Serif" font-size="10.00">limits</text>
</g>
<!-- Node7&#45;&gt;Node13 -->
<g id="edge26" class="edge"><title>Node7&#45;&gt;Node13</title>
<path fill="none" stroke="midnightblue" d="M834.208,-116.362C825.006,-108.023 812.007,-96.2418 801.275,-86.5162"/>
<polygon fill="midnightblue" stroke="midnightblue" points="803.371,-83.6924 793.611,-79.5707 798.67,-88.8793 803.371,-83.6924"/>
</g>
<!-- Node10&#45;&gt;Node5 -->
<g id="edge20" class="edge"><title>Node10&#45;&gt;Node5</title>
<path fill="none" stroke="midnightblue" d="M1337.6,-59.9397C1334.69,-59.2309 1331.77,-58.5703 1328.95,-58 1209.54,-33.8865 1065.2,-19.3478 1002.09,-13.7057"/>
<polygon fill="midnightblue" stroke="midnightblue" points="1002.24,-10.2056 991.975,-12.8156 1001.63,-17.1787 1002.24,-10.2056"/>
</g>
<!-- Node11 -->
<g id="node22" class="node"><title>Node11</title>
<polygon fill="white" stroke="#bfbfbf" points="1342.95,-0.5 1342.95,-21.5 1394.95,-21.5 1394.95,-0.5 1342.95,-0.5"/>
<text text-anchor="middle" x="1368.95" y="-8.5" font-family="Helvetica,sans-Serif" font-size="10.00">ostream</text>
</g>
<!-- Node10&#45;&gt;Node11 -->
<g id="edge22" class="edge"><title>Node10&#45;&gt;Node11</title>
<path fill="none" stroke="midnightblue" d="M1368.95,-58.3619C1368.95,-50.9219 1368.95,-40.7427 1368.95,-31.7276"/>
<polygon fill="midnightblue" stroke="midnightblue" points="1372.45,-31.5706 1368.95,-21.5707 1365.45,-31.5707 1372.45,-31.5706"/>
</g>
<!-- Node14&#45;&gt;Node3 -->
<g id="edge30" class="edge"><title>Node14&#45;&gt;Node3</title>
<path fill="none" stroke="midnightblue" d="M326.521,-238.461C379.875,-231.241 485.663,-216.077 585.04,-196.057"/>
<polygon fill="midnightblue" stroke="midnightblue" points="585.844,-199.465 594.945,-194.04 584.447,-192.606 585.844,-199.465"/>
</g>
<!-- Node14&#45;&gt;Node6 -->
<g id="edge62" class="edge"><title>Node14&#45;&gt;Node6</title>
<path fill="none" stroke="midnightblue" d="M281.424,-232.485C267.583,-218.754 242.384,-194.102 219.947,-174 201.383,-157.368 187.493,-160.583 176.947,-138 167.289,-117.318 187.439,-97.9546 206.763,-85.0362"/>
<polygon fill="midnightblue" stroke="midnightblue" points="208.862,-87.8514 215.474,-79.5728 205.142,-81.9214 208.862,-87.8514"/>
</g>
<!-- Node15 -->
<g id="node31" class="node"><title>Node15</title>
<a xlink:href="root__draw_8h.html" target="_top" xlink:title="root_draw.h">
<polygon fill="white" stroke="black" points="334.947,-174.5 334.947,-195.5 402.947,-195.5 402.947,-174.5 334.947,-174.5"/>
<text text-anchor="middle" x="368.947" y="-182.5" font-family="Helvetica,sans-Serif" font-size="10.00">root_draw.h</text>
</a>
</g>
<!-- Node14&#45;&gt;Node15 -->
<g id="edge32" class="edge"><title>Node14&#45;&gt;Node15</title>
<path fill="none" stroke="midnightblue" d="M306.07,-232.362C317.466,-223.777 333.705,-211.546 346.824,-201.664"/>
<polygon fill="midnightblue" stroke="midnightblue" points="349.031,-204.383 354.913,-195.571 344.82,-198.792 349.031,-204.383"/>
</g>
<!-- Node18 -->
<g id="node39" class="node"><title>Node18</title>
<polygon fill="white" stroke="#bfbfbf" points="419.947,-116.5 419.947,-137.5 471.947,-137.5 471.947,-116.5 419.947,-116.5"/>
<text text-anchor="middle" x="445.947" y="-124.5" font-family="Helvetica,sans-Serif" font-size="10.00">memory</text>
</g>
<!-- Node14&#45;&gt;Node18 -->
<g id="edge60" class="edge"><title>Node14&#45;&gt;Node18</title>
<path fill="none" stroke="midnightblue" d="M326.59,-236.535C352.732,-230.114 388.057,-217.951 411.947,-196 426.248,-182.859 435.274,-162.379 440.402,-147.14"/>
<polygon fill="midnightblue" stroke="midnightblue" points="443.747,-148.17 443.347,-137.582 437.057,-146.109 443.747,-148.17"/>
</g>
<!-- Node21 -->
<g id="node45" class="node"><title>Node21</title>
<a xlink:href="memory_8h.html" target="_top" xlink:title="base/std_ext/memory.h">
<polygon fill="white" stroke="black" points="458.447,-174.5 458.447,-195.5 577.447,-195.5 577.447,-174.5 458.447,-174.5"/>
<text text-anchor="middle" x="517.947" y="-182.5" font-family="Helvetica,sans-Serif" font-size="10.00">base/std_ext/memory.h</text>
</a>
</g>
<!-- Node14&#45;&gt;Node21 -->
<g id="edge48" class="edge"><title>Node14&#45;&gt;Node21</title>
<path fill="none" stroke="midnightblue" d="M326.764,-234.065C364.247,-224.445 424.243,-209.048 467.025,-198.069"/>
<polygon fill="midnightblue" stroke="midnightblue" points="468.145,-201.394 476.961,-195.518 466.405,-194.614 468.145,-201.394"/>
</g>
<!-- Node14&#45;&gt;Node22 -->
<g id="edge54" class="edge"><title>Node14&#45;&gt;Node22</title>
<path fill="none" stroke="midnightblue" d="M257.276,-236.551C216.323,-228.694 145.987,-214.452 77.1811,-196.168"/>
<polygon fill="midnightblue" stroke="midnightblue" points="78.0514,-192.777 67.4856,-193.561 76.234,-199.537 78.0514,-192.777"/>
</g>
<!-- Node23 -->
<g id="node51" class="node"><title>Node23</title>
<polygon fill="white" stroke="#bfbfbf" points="266.447,-174.5 266.447,-195.5 317.447,-195.5 317.447,-174.5 266.447,-174.5"/>
<text text-anchor="middle" x="291.947" y="-182.5" font-family="Helvetica,sans-Serif" font-size="10.00">TH2D.h</text>
</g>
<!-- Node14&#45;&gt;Node23 -->
<g id="edge56" class="edge"><title>Node14&#45;&gt;Node23</title>
<path fill="none" stroke="midnightblue" d="M291.947,-232.362C291.947,-224.922 291.947,-214.743 291.947,-205.728"/>
<polygon fill="midnightblue" stroke="midnightblue" points="295.447,-205.571 291.947,-195.571 288.447,-205.571 295.447,-205.571"/>
</g>
<!-- Node24 -->
<g id="node53" class="node"><title>Node24</title>
<polygon fill="white" stroke="#bfbfbf" points="84.4467,-174.5 84.4467,-195.5 135.447,-195.5 135.447,-174.5 84.4467,-174.5"/>
<text text-anchor="middle" x="109.947" y="-182.5" font-family="Helvetica,sans-Serif" font-size="10.00">TH3D.h</text>
</g>
<!-- Node14&#45;&gt;Node24 -->
<g id="edge58" class="edge"><title>Node14&#45;&gt;Node24</title>
<path fill="none" stroke="midnightblue" d="M258.426,-232.412C230.47,-223.568 189.333,-210.527 145.298,-196.424"/>
<polygon fill="midnightblue" stroke="midnightblue" points="146.153,-193.023 135.562,-193.304 144.016,-199.689 146.153,-193.023"/>
</g>
<!-- Node25 -->
<g id="node57" class="node"><title>Node25</title>
<polygon fill="white" stroke="#bfbfbf" points="692.947,-174.5 692.947,-195.5 746.947,-195.5 746.947,-174.5 692.947,-174.5"/>
<text text-anchor="middle" x="719.947" y="-182.5" font-family="Helvetica,sans-Serif" font-size="10.00">iostream</text>
</g>
<!-- Node14&#45;&gt;Node25 -->
<g id="edge64" class="edge"><title>Node14&#45;&gt;Node25</title>
<path fill="none" stroke="midnightblue" d="M326.645,-240.047C393.968,-234.027 546.871,-218.936 673.947,-196 676.825,-195.48 679.794,-194.892 682.771,-194.265"/>
<polygon fill="midnightblue" stroke="midnightblue" points="683.814,-197.619 692.811,-192.023 682.288,-190.787 683.814,-197.619"/>
</g>
<!-- Node26 -->
<g id="node59" class="node"><title>Node26</title>
<polygon fill="white" stroke="#bfbfbf" points="152.447,-174.5 152.447,-195.5 211.447,-195.5 211.447,-174.5 152.447,-174.5"/>
<text text-anchor="middle" x="181.947" y="-182.5" font-family="Helvetica,sans-Serif" font-size="10.00">exception</text>
</g>
<!-- Node14&#45;&gt;Node26 -->
<g id="edge66" class="edge"><title>Node14&#45;&gt;Node26</title>
<path fill="none" stroke="midnightblue" d="M272.026,-232.497C255.001,-223.519 230.277,-210.484 211.037,-200.339"/>
<polygon fill="midnightblue" stroke="midnightblue" points="212.568,-197.189 202.09,-195.621 209.304,-203.381 212.568,-197.189"/>
</g>
<!-- Node15&#45;&gt;Node5 -->
<g id="edge38" class="edge"><title>Node15&#45;&gt;Node5</title>
<path fill="none" stroke="midnightblue" d="M370.555,-174.033C373.013,-159.814 378.657,-134.635 389.947,-116 409,-84.5504 415.576,-73.4426 448.947,-58 493.271,-37.4886 830.97,-18.2624 937.713,-12.6442"/>
<polygon fill="midnightblue" stroke="midnightblue" points="938.068,-16.1305 947.872,-12.114 937.703,-9.13999 938.068,-16.1305"/>
</g>
<!-- Node15&#45;&gt;Node6 -->
<g id="edge34" class="edge"><title>Node15&#45;&gt;Node6</title>
<path fill="none" stroke="midnightblue" d="M334.679,-176.232C331.726,-175.477 328.784,-174.725 325.947,-174 263.284,-157.985 224.622,-189.078 184.947,-138 171.176,-120.272 191.291,-99.5048 210.169,-85.4204"/>
<polygon fill="midnightblue" stroke="midnightblue" points="212.206,-88.2665 218.355,-79.6381 208.167,-82.549 212.206,-88.2665"/>
</g>
<!-- Node16 -->
<g id="node34" class="node"><title>Node16</title>
<polygon fill="white" stroke="#bfbfbf" points="527.447,-116.5 527.447,-137.5 556.447,-137.5 556.447,-116.5 527.447,-116.5"/>
<text text-anchor="middle" x="541.947" y="-124.5" font-family="Helvetica,sans-Serif" font-size="10.00">list</text>
</g>
<!-- Node15&#45;&gt;Node16 -->
<g id="edge36" class="edge"><title>Node15&#45;&gt;Node16</title>
<path fill="none" stroke="midnightblue" d="M400.276,-174.497C434.044,-163.176 487.064,-145.4 517.763,-135.108"/>
<polygon fill="midnightblue" stroke="midnightblue" points="518.89,-138.422 527.259,-131.924 516.665,-131.785 518.89,-138.422"/>
</g>
<!-- Node17 -->
<g id="node37" class="node"><title>Node17</title>
<polygon fill="white" stroke="#bfbfbf" points="457.447,-58.5 457.447,-79.5 492.447,-79.5 492.447,-58.5 457.447,-58.5"/>
<text text-anchor="middle" x="474.947" y="-66.5" font-family="Helvetica,sans-Serif" font-size="10.00">map</text>
</g>
<!-- Node15&#45;&gt;Node17 -->
<g id="edge40" class="edge"><title>Node15&#45;&gt;Node17</title>
<path fill="none" stroke="midnightblue" d="M373.801,-174.326C380.67,-159.983 394.266,-134.192 410.947,-116 421.892,-104.063 436.27,-93.1833 448.625,-84.905"/>
<polygon fill="midnightblue" stroke="midnightblue" points="450.697,-87.7335 457.186,-79.3588 446.891,-81.8586 450.697,-87.7335"/>
</g>
<!-- Node15&#45;&gt;Node18 -->
<g id="edge42" class="edge"><title>Node15&#45;&gt;Node18</title>
<path fill="none" stroke="midnightblue" d="M383.07,-174.362C394.466,-165.777 410.705,-153.546 423.824,-143.664"/>
<polygon fill="midnightblue" stroke="midnightblue" points="426.031,-146.383 431.913,-137.571 421.82,-140.792 426.031,-146.383"/>
</g>
<!-- Node19 -->
<g id="node41" class="node"><title>Node19</title>
<polygon fill="white" stroke="#bfbfbf" points="267.447,-116.5 267.447,-137.5 326.447,-137.5 326.447,-116.5 267.447,-116.5"/>
<text text-anchor="middle" x="296.947" y="-124.5" font-family="Helvetica,sans-Serif" font-size="10.00">functional</text>
</g>
<!-- Node15&#45;&gt;Node19 -->
<g id="edge44" class="edge"><title>Node15&#45;&gt;Node19</title>
<path fill="none" stroke="midnightblue" d="M355.741,-174.362C345.185,-165.859 330.189,-153.779 317.984,-143.947"/>
<polygon fill="midnightblue" stroke="midnightblue" points="320.052,-141.118 310.069,-137.571 315.661,-146.57 320.052,-141.118"/>
</g>
<!-- Node20 -->
<g id="node43" class="node"><title>Node20</title>
<polygon fill="white" stroke="#bfbfbf" points="193.947,-116.5 193.947,-137.5 249.947,-137.5 249.947,-116.5 193.947,-116.5"/>
<text text-anchor="middle" x="221.947" y="-124.5" font-family="Helvetica,sans-Serif" font-size="10.00">Rtypes.h</text>
</g>
<!-- Node15&#45;&gt;Node20 -->
<g id="edge46" class="edge"><title>Node15&#45;&gt;Node20</title>
<path fill="none" stroke="midnightblue" d="M342.326,-174.497C318.849,-165.234 284.421,-151.65 258.391,-141.379"/>
<polygon fill="midnightblue" stroke="midnightblue" points="259.453,-138.036 248.866,-137.621 256.883,-144.547 259.453,-138.036"/>
</g>
<!-- Node21&#45;&gt;Node16 -->
<g id="edge52" class="edge"><title>Node21&#45;&gt;Node16</title>
<path fill="none" stroke="midnightblue" d="M522.349,-174.362C525.529,-166.677 529.918,-156.069 533.737,-146.84"/>
<polygon fill="midnightblue" stroke="midnightblue" points="536.983,-148.149 537.573,-137.571 530.515,-145.473 536.983,-148.149"/>
</g>
<!-- Node21&#45;&gt;Node18 -->
<g id="edge50" class="edge"><title>Node21&#45;&gt;Node18</title>
<path fill="none" stroke="midnightblue" d="M504.741,-174.362C494.185,-165.859 479.189,-153.779 466.984,-143.947"/>
<polygon fill="midnightblue" stroke="midnightblue" points="469.052,-141.118 459.069,-137.571 464.661,-146.57 469.052,-141.118"/>
</g>
<!-- Node27&#45;&gt;Node5 -->
<g id="edge128" class="edge"><title>Node27&#45;&gt;Node5</title>
<path fill="none" stroke="midnightblue" d="M908.612,-295.972C961.904,-290.125 1041.44,-278.02 1106.95,-254 1252.38,-200.672 1331.43,-214.118 1408.95,-80 1413.84,-71.5344 1415.48,-65.2726 1408.95,-58 1381.82,-27.8106 1099.06,-15.4032 1002.25,-12.0192"/>
<polygon fill="midnightblue" stroke="midnightblue" points="1002.28,-8.51842 992.168,-11.6762 1002.04,-15.5144 1002.28,-8.51842"/>
</g>
<!-- Node27&#45;&gt;Node10 -->
<g id="edge70" class="edge"><title>Node27&#45;&gt;Node10</title>
<path fill="none" stroke="midnightblue" d="M908.592,-298.895C1066.16,-293.047 1482.84,-275.6 1502.95,-254 1556.07,-196.919 1448.54,-118.386 1395.8,-85.0273"/>
<polygon fill="midnightblue" stroke="midnightblue" points="1397.58,-82.0122 1387.24,-79.7042 1393.88,-87.9568 1397.58,-82.0122"/>
</g>
<!-- Node27&#45;&gt;Node12 -->
<g id="edge72" class="edge"><title>Node27&#45;&gt;Node12</title>
<path fill="none" stroke="midnightblue" d="M852.091,-290.429C862.755,-254.573 897.672,-137.169 911.866,-89.4458"/>
<polygon fill="midnightblue" stroke="midnightblue" points="915.288,-90.2163 914.784,-79.6335 908.579,-88.2208 915.288,-90.2163"/>
</g>
<!-- Node27&#45;&gt;Node16 -->
<g id="edge130" class="edge"><title>Node27&#45;&gt;Node16</title>
<path fill="none" stroke="midnightblue" d="M842.659,-290.481C825.912,-262.81 779.873,-189.085 755.947,-174 685.514,-129.595 649.685,-162.301 566.382,-137.799"/>
<polygon fill="midnightblue" stroke="midnightblue" points="567.399,-134.449 556.81,-134.795 565.303,-141.128 567.399,-134.449"/>
</g>
<!-- Node27&#45;&gt;Node25 -->
<g id="edge132" class="edge"><title>Node27&#45;&gt;Node25</title>
<path fill="none" stroke="midnightblue" d="M823.346,-290.343C805.825,-282.183 782.804,-269.673 765.947,-254 750.724,-239.846 738.041,-219.711 729.874,-204.843"/>
<polygon fill="midnightblue" stroke="midnightblue" points="732.943,-203.158 725.179,-195.949 726.752,-206.426 732.943,-203.158"/>
</g>
<!-- Node28 -->
<g id="node65" class="node"><title>Node28</title>
<a xlink:href="_particle_type_8h.html" target="_top" xlink:title="base/ParticleType.h">
<polygon fill="white" stroke="black" points="683.947,-116.5 683.947,-137.5 787.947,-137.5 787.947,-116.5 683.947,-116.5"/>
<text text-anchor="middle" x="735.947" y="-124.5" font-family="Helvetica,sans-Serif" font-size="10.00">base/ParticleType.h</text>
</a>
</g>
<!-- Node27&#45;&gt;Node28 -->
<g id="edge74" class="edge"><title>Node27&#45;&gt;Node28</title>
<path fill="none" stroke="midnightblue" d="M846.186,-290.233C839.881,-267.143 822.709,-211.895 793.947,-174 785.043,-162.27 772.618,-151.693 761.55,-143.557"/>
<polygon fill="midnightblue" stroke="midnightblue" points="763.25,-140.474 753.058,-137.58 759.221,-146.198 763.25,-140.474"/>
</g>
<!-- Node30 -->
<g id="node74" class="node"><title>Node30</title>
<a xlink:href="_candidate_8h.html" target="_top" xlink:title="analysis/data/Candidate.h">
<polygon fill="white" stroke="black" points="967.947,-232.5 967.947,-253.5 1097.95,-253.5 1097.95,-232.5 967.947,-232.5"/>
<text text-anchor="middle" x="1032.95" y="-240.5" font-family="Helvetica,sans-Serif" font-size="10.00">analysis/data/Candidate.h</text>
</a>
</g>
<!-- Node27&#45;&gt;Node30 -->
<g id="edge88" class="edge"><title>Node27&#45;&gt;Node30</title>
<path fill="none" stroke="midnightblue" d="M882.268,-290.497C912.395,-281 956.929,-266.962 989.774,-256.609"/>
<polygon fill="midnightblue" stroke="midnightblue" points="991.078,-259.868 999.563,-253.523 988.974,-253.191 991.078,-259.868"/>
</g>
<!-- Node37 -->
<g id="node100" class="node"><title>Node37</title>
<polygon fill="white" stroke="#bfbfbf" points="1401.95,-232.5 1401.95,-253.5 1493.95,-253.5 1493.95,-232.5 1401.95,-232.5"/>
<text text-anchor="middle" x="1447.95" y="-240.5" font-family="Helvetica,sans-Serif" font-size="10.00">TLorentzVector.h</text>
</g>
<!-- Node27&#45;&gt;Node37 -->
<g id="edge126" class="edge"><title>Node27&#45;&gt;Node37</title>
<path fill="none" stroke="midnightblue" d="M908.569,-297.645C1008.17,-291.628 1214.57,-277.399 1387.95,-254 1389.22,-253.829 1390.5,-253.649 1391.79,-253.462"/>
<polygon fill="midnightblue" stroke="midnightblue" points="1392.48,-256.897 1401.83,-251.908 1391.41,-249.98 1392.48,-256.897"/>
</g>
<!-- Node28&#45;&gt;Node5 -->
<g id="edge86" class="edge"><title>Node28&#45;&gt;Node5</title>
<path fill="none" stroke="midnightblue" d="M704.748,-116.491C672.695,-104.068 630.202,-82.025 650.947,-58 669.553,-36.4512 860.029,-19.4707 937.471,-13.4057"/>
<polygon fill="midnightblue" stroke="midnightblue" points="937.918,-16.8817 947.619,-12.623 937.379,-9.90245 937.918,-16.8817"/>
</g>
<!-- Node28&#45;&gt;Node6 -->
<g id="edge78" class="edge"><title>Node28&#45;&gt;Node6</title>
<path fill="none" stroke="midnightblue" d="M683.853,-120.957C579.978,-108.908 349.926,-82.2216 266.729,-72.5708"/>
<polygon fill="midnightblue" stroke="midnightblue" points="266.995,-69.0782 256.659,-71.4026 266.189,-76.0316 266.995,-69.0782"/>
</g>
<!-- Node28&#45;&gt;Node11 -->
<g id="edge80" class="edge"><title>Node28&#45;&gt;Node11</title>
<path fill="none" stroke="midnightblue" d="M735.081,-116.419C734.464,-100.949 735.906,-72.4317 752.947,-58 775.187,-39.1643 1203.85,-18.4266 1332.65,-12.5996"/>
<polygon fill="midnightblue" stroke="midnightblue" points="1332.96,-16.0895 1342.79,-12.1438 1332.64,-9.09661 1332.96,-16.0895"/>
</g>
<!-- Node28&#45;&gt;Node12 -->
<g id="edge76" class="edge"><title>Node28&#45;&gt;Node12</title>
<path fill="none" stroke="midnightblue" d="M770.024,-116.423C798.19,-107.643 839.471,-94.6864 883.389,-80.4785"/>
<polygon fill="midnightblue" stroke="midnightblue" points="884.661,-83.7453 893.095,-77.3319 882.503,-77.0865 884.661,-83.7453"/>
</g>
<!-- Node28&#45;&gt;Node17 -->
<g id="edge82" class="edge"><title>Node28&#45;&gt;Node17</title>
<path fill="none" stroke="midnightblue" d="M688.682,-116.497C634.282,-104.408 546.766,-84.9598 502.494,-75.1216"/>
<polygon fill="midnightblue" stroke="midnightblue" points="503.241,-71.7022 492.719,-72.9495 501.722,-78.5355 503.241,-71.7022"/>
</g>
<!-- Node29 -->
<g id="node71" class="node"><title>Node29</title>
<polygon fill="white" stroke="#bfbfbf" points="659.447,-58.5 659.447,-79.5 706.447,-79.5 706.447,-58.5 659.447,-58.5"/>
<text text-anchor="middle" x="682.947" y="-66.5" font-family="Helvetica,sans-Serif" font-size="10.00">iterator</text>
</g>
<!-- Node28&#45;&gt;Node29 -->
<g id="edge84" class="edge"><title>Node28&#45;&gt;Node29</title>
<path fill="none" stroke="midnightblue" d="M726.226,-116.362C718.755,-108.186 708.261,-96.7025 699.478,-87.0907"/>
<polygon fill="midnightblue" stroke="midnightblue" points="701.936,-84.5918 692.606,-79.5707 696.768,-89.3138 701.936,-84.5918"/>
</g>
<!-- Node30&#45;&gt;Node5 -->
<g id="edge124" class="edge"><title>Node30&#45;&gt;Node5</title>
<path fill="none" stroke="midnightblue" d="M1026.37,-232.163C1020.98,-222.866 1013.53,-208.957 1008.95,-196 988.592,-138.449 977.229,-66.8804 972.535,-32.0344"/>
<polygon fill="midnightblue" stroke="midnightblue" points="975.952,-31.1654 971.196,-21.6981 969.01,-32.065 975.952,-31.1654"/>
</g>
<!-- Node30&#45;&gt;Node10 -->
<g id="edge90" class="edge"><title>Node30&#45;&gt;Node10</title>
<path fill="none" stroke="midnightblue" d="M1070.4,-232.463C1098.41,-224.034 1137.33,-211.143 1169.95,-196 1215.51,-174.847 1224.57,-164.972 1266.95,-138 1294.28,-120.6 1325.01,-99.616 1345.52,-85.3918"/>
<polygon fill="midnightblue" stroke="midnightblue" points="1347.7,-88.1377 1353.91,-79.5546 1343.71,-82.3908 1347.7,-88.1377"/>
</g>
<!-- Node30&#45;&gt;Node11 -->
<g id="edge120" class="edge"><title>Node30&#45;&gt;Node11</title>
<path fill="none" stroke="midnightblue" d="M1076.92,-232.409C1174.02,-208.003 1401.38,-144.899 1441.95,-80 1455.55,-58.2329 1429.38,-38.6855 1404.67,-26.0015"/>
<polygon fill="midnightblue" stroke="midnightblue" points="1405.88,-22.7003 1395.36,-21.486 1402.83,-28.9987 1405.88,-22.7003"/>
</g>
<!-- Node30&#45;&gt;Node12 -->
<g id="edge92" class="edge"><title>Node30&#45;&gt;Node12</title>
<path fill="none" stroke="midnightblue" d="M1016.48,-232.474C1004.06,-223.87 987.273,-210.751 975.947,-196 950.257,-162.544 932.692,-115.886 924.077,-89.4359"/>
<polygon fill="midnightblue" stroke="midnightblue" points="927.367,-88.2305 921.028,-79.7412 920.69,-90.3306 927.367,-88.2305"/>
</g>
<!-- Node30&#45;&gt;Node18 -->
<g id="edge122" class="edge"><title>Node30&#45;&gt;Node18</title>
<path fill="none" stroke="midnightblue" d="M995.116,-232.379C942.017,-217.747 842.209,-191.244 755.947,-174 752.594,-173.33 563.444,-144.745 482.289,-132.488"/>
<polygon fill="midnightblue" stroke="midnightblue" points="482.448,-128.972 472.038,-130.939 481.403,-135.893 482.448,-128.972"/>
</g>
<!-- Node31 -->
<g id="node78" class="node"><title>Node31</title>
<a xlink:href="_detector__t_8h.html" target="_top" xlink:title="base/Detector_t.h">
<polygon fill="white" stroke="black" points="1163.45,-116.5 1163.45,-137.5 1258.45,-137.5 1258.45,-116.5 1163.45,-116.5"/>
<text text-anchor="middle" x="1210.95" y="-124.5" font-family="Helvetica,sans-Serif" font-size="10.00">base/Detector_t.h</text>
</a>
</g>
<!-- Node30&#45;&gt;Node31 -->
<g id="edge94" class="edge"><title>Node30&#45;&gt;Node31</title>
<path fill="none" stroke="midnightblue" d="M1066.92,-232.362C1089.59,-224.357 1119.44,-212.024 1142.95,-196 1163.63,-181.906 1183.24,-160.885 1196.04,-145.751"/>
<polygon fill="midnightblue" stroke="midnightblue" points="1199.08,-147.56 1202.74,-137.618 1193.68,-143.107 1199.08,-147.56"/>
</g>
<!-- Node35 -->
<g id="node90" class="node"><title>Node35</title>
<a xlink:href="_cluster_8h.html" target="_top" xlink:title="analysis/data/Cluster.h">
<polygon fill="white" stroke="black" points="1017.45,-174.5 1017.45,-195.5 1134.45,-195.5 1134.45,-174.5 1017.45,-174.5"/>
<text text-anchor="middle" x="1075.95" y="-182.5" font-family="Helvetica,sans-Serif" font-size="10.00">analysis/data/Cluster.h</text>
</a>
</g>
<!-- Node30&#45;&gt;Node35 -->
<g id="edge110" class="edge"><title>Node30&#45;&gt;Node35</title>
<path fill="none" stroke="midnightblue" d="M1040.83,-232.362C1046.77,-224.35 1055.07,-213.161 1062.11,-203.67"/>
<polygon fill="midnightblue" stroke="midnightblue" points="1064.97,-205.688 1068.11,-195.571 1059.34,-201.519 1064.97,-205.688"/>
</g>
<!-- Node31&#45;&gt;Node5 -->
<g id="edge108" class="edge"><title>Node31&#45;&gt;Node5</title>
<path fill="none" stroke="midnightblue" d="M1204.04,-116.373C1193.55,-101.109 1172.15,-73.1525 1146.95,-58 1101.31,-30.5672 1039.64,-18.9127 1002.44,-14.1327"/>
<polygon fill="midnightblue" stroke="midnightblue" points="1002.52,-10.6178 992.176,-12.9095 1001.69,-17.5686 1002.52,-10.6178"/>
</g>
<!-- Node31&#45;&gt;Node6 -->
<g id="edge104" class="edge"><title>Node31&#45;&gt;Node6</title>
<path fill="none" stroke="midnightblue" d="M1163.36,-117.172C1160.52,-116.735 1157.7,-116.339 1154.95,-116 843.114,-77.623 762.719,-96.102 448.947,-80 384.109,-76.6727 308.172,-72.7433 266.753,-70.5972"/>
<polygon fill="midnightblue" stroke="midnightblue" points="266.676,-67.0886 256.508,-70.0663 266.314,-74.0793 266.676,-67.0886"/>
</g>
<!-- Node31&#45;&gt;Node9 -->
<g id="edge102" class="edge"><title>Node31&#45;&gt;Node9</title>
<path fill="none" stroke="midnightblue" d="M1177.63,-116.497C1146.37,-106.645 1099.61,-91.906 1066.49,-81.4635"/>
<polygon fill="midnightblue" stroke="midnightblue" points="1067.26,-78.0391 1056.67,-78.3708 1065.16,-84.7153 1067.26,-78.0391"/>
</g>
<!-- Node31&#45;&gt;Node10 -->
<g id="edge96" class="edge"><title>Node31&#45;&gt;Node10</title>
<path fill="none" stroke="midnightblue" d="M1239.56,-116.497C1265.09,-107.123 1302.68,-93.3242 1330.78,-83.0122"/>
<polygon fill="midnightblue" stroke="midnightblue" points="1332.1,-86.2548 1340.28,-79.5231 1329.69,-79.6835 1332.1,-86.2548"/>
</g>
<!-- Node32 -->
<g id="node81" class="node"><title>Node32</title>
<polygon fill="white" stroke="#bfbfbf" points="1073.45,-58.5 1073.45,-79.5 1138.45,-79.5 1138.45,-58.5 1073.45,-58.5"/>
<text text-anchor="middle" x="1105.95" y="-66.5" font-family="Helvetica,sans-Serif" font-size="10.00">TVector3.h</text>
</g>
<!-- Node31&#45;&gt;Node32 -->
<g id="edge98" class="edge"><title>Node31&#45;&gt;Node32</title>
<path fill="none" stroke="midnightblue" d="M1191.69,-116.362C1175.48,-107.409 1152.09,-94.4908 1133.84,-84.4064"/>
<polygon fill="midnightblue" stroke="midnightblue" points="1135.53,-81.3422 1125.08,-79.5707 1132.14,-87.4696 1135.53,-81.3422"/>
</g>
<!-- Node33 -->
<g id="node83" class="node"><title>Node33</title>
<polygon fill="white" stroke="#bfbfbf" points="1193.95,-58.5 1193.95,-79.5 1239.95,-79.5 1239.95,-58.5 1193.95,-58.5"/>
<text text-anchor="middle" x="1216.95" y="-66.5" font-family="Helvetica,sans-Serif" font-size="10.00">cstdint</text>
</g>
<!-- Node31&#45;&gt;Node33 -->
<g id="edge100" class="edge"><title>Node31&#45;&gt;Node33</title>
<path fill="none" stroke="midnightblue" d="M1212.05,-116.362C1212.82,-108.922 1213.87,-98.7427 1214.8,-89.7276"/>
<polygon fill="midnightblue" stroke="midnightblue" points="1218.31,-89.8777 1215.85,-79.5707 1211.34,-89.1574 1218.31,-89.8777"/>
</g>
<!-- Node34 -->
<g id="node87" class="node"><title>Node34</title>
<polygon fill="white" stroke="#bfbfbf" points="1257.95,-58.5 1257.95,-79.5 1319.95,-79.5 1319.95,-58.5 1257.95,-58.5"/>
<text text-anchor="middle" x="1288.95" y="-66.5" font-family="Helvetica,sans-Serif" font-size="10.00">type_traits</text>
</g>
<!-- Node31&#45;&gt;Node34 -->
<g id="edge106" class="edge"><title>Node31&#45;&gt;Node34</title>
<path fill="none" stroke="midnightblue" d="M1225.25,-116.362C1236.8,-107.777 1253.25,-95.5459 1266.54,-85.6636"/>
<polygon fill="midnightblue" stroke="midnightblue" points="1268.79,-88.3463 1274.73,-79.5707 1264.62,-82.7291 1268.79,-88.3463"/>
</g>
<!-- Node35&#45;&gt;Node16 -->
<g id="edge114" class="edge"><title>Node35&#45;&gt;Node16</title>
<path fill="none" stroke="midnightblue" d="M1017.34,-180.167C896.844,-170.159 627.988,-147.441 566.888,-137.128"/>
<polygon fill="midnightblue" stroke="midnightblue" points="567.248,-133.627 556.744,-135.011 565.819,-140.48 567.248,-133.627"/>
</g>
<!-- Node35&#45;&gt;Node31 -->
<g id="edge112" class="edge"><title>Node35&#45;&gt;Node31</title>
<path fill="none" stroke="midnightblue" d="M1100.39,-174.497C1121.76,-165.315 1153.02,-151.889 1176.84,-141.652"/>
<polygon fill="midnightblue" stroke="midnightblue" points="1178.42,-144.784 1186.22,-137.621 1175.66,-138.353 1178.42,-144.784"/>
</g>
<!-- Node35&#45;&gt;Node32 -->
<g id="edge116" class="edge"><title>Node35&#45;&gt;Node32</title>
<path fill="none" stroke="midnightblue" d="M1065.49,-174.092C1053.67,-160.361 1037.24,-136.134 1046.95,-116 1053.15,-103.121 1064.8,-92.6785 1076.11,-84.9373"/>
<polygon fill="midnightblue" stroke="midnightblue" points="1078.03,-87.8617 1084.6,-79.5484 1074.28,-81.9513 1078.03,-87.8617"/>
</g>
<!-- Node36 -->
<g id="node95" class="node"><title>Node36</title>
<a xlink:href="enumfield_8h.html" target="_top" xlink:title="base/enumfield.h">
<polygon fill="white" stroke="black" points="1055.45,-116.5 1055.45,-137.5 1146.45,-137.5 1146.45,-116.5 1055.45,-116.5"/>
<text text-anchor="middle" x="1100.95" y="-124.5" font-family="Helvetica,sans-Serif" font-size="10.00">base/enumfield.h</text>
</a>
</g>
<!-- Node35&#45;&gt;Node36 -->
<g id="edge118" class="edge"><title>Node35&#45;&gt;Node36</title>
<path fill="none" stroke="midnightblue" d="M1080.53,-174.362C1083.84,-166.677 1088.42,-156.069 1092.39,-146.84"/>
<polygon fill="midnightblue" stroke="midnightblue" points="1095.65,-148.139 1096.39,-137.571 1089.22,-145.368 1095.65,-148.139"/>
</g>
</g>
</svg>
