<?xml version="1.0" encoding="UTF-8" standalone="no"?>
<!DOCTYPE svg PUBLIC "-//W3C//DTD SVG 1.1//EN"
 "http://www.w3.org/Graphics/SVG/1.1/DTD/svg11.dtd">
<!-- Generated by graphviz version 2.26.3 (20100126.1600)
 -->
<!-- Title: src/analysis/plot/Histogram.cc Pages: 1 -->
<svg width="491pt" height="262pt"
 viewBox="0.00 0.00 491.00 262.00" xmlns="http://www.w3.org/2000/svg" xmlns:xlink="http://www.w3.org/1999/xlink">
<g id="graph1" class="graph" transform="scale(1 1) rotate(0) translate(4 258)">
<title>src/analysis/plot/Histogram.cc</title>
<polygon fill="white" stroke="white" points="-4,5 -4,-258 488,-258 488,5 -4,5"/>
<!-- Node1 -->
<g id="node1" class="node"><title>Node1</title>
<polygon fill="#bfbfbf" stroke="black" points="211.5,-232.5 211.5,-253.5 360.5,-253.5 360.5,-232.5 211.5,-232.5"/>
<text text-anchor="middle" x="286" y="-240.5" font-family="Helvetica,sans-Serif" font-size="10.00">src/analysis/plot/Histogram.cc</text>
</g>
<!-- Node2 -->
<g id="node3" class="node"><title>Node2</title>
<a xlink:href="_histogram_8h.html" target="_top" xlink:title="Histogram.h">
<polygon fill="white" stroke="black" points="71,-174.5 71,-195.5 141,-195.5 141,-174.5 71,-174.5"/>
<text text-anchor="middle" x="106" y="-182.5" font-family="Helvetica,sans-Serif" font-size="10.00">Histogram.h</text>
</a>
</g>
<!-- Node1&#45;&gt;Node2 -->
<g id="edge2" class="edge"><title>Node1&#45;&gt;Node2</title>
<path fill="none" stroke="midnightblue" d="M253.403,-232.497C223.931,-223 180.365,-208.962 148.234,-198.609"/>
<polygon fill="midnightblue" stroke="midnightblue" points="149.249,-195.259 138.658,-195.523 147.102,-201.921 149.249,-195.259"/>
</g>
<!-- Node13 -->
<g id="node26" class="node"><title>Node13</title>
<polygon fill="white" stroke="#bfbfbf" points="158.5,-174.5 158.5,-195.5 209.5,-195.5 209.5,-174.5 158.5,-174.5"/>
<text text-anchor="middle" x="184" y="-182.5" font-family="Helvetica,sans-Serif" font-size="10.00">TH1D.h</text>
</g>
<!-- Node1&#45;&gt;Node13 -->
<g id="edge26" class="edge"><title>Node1&#45;&gt;Node13</title>
<path fill="none" stroke="midnightblue" d="M267.292,-232.362C251.619,-223.45 229.036,-210.609 211.337,-200.545"/>
<polygon fill="midnightblue" stroke="midnightblue" points="213.013,-197.471 202.59,-195.571 209.553,-203.556 213.013,-197.471"/>
</g>
<!-- Node14 -->
<g id="node28" class="node"><title>Node14</title>
<polygon fill="white" stroke="#bfbfbf" points="226.5,-174.5 226.5,-195.5 277.5,-195.5 277.5,-174.5 226.5,-174.5"/>
<text text-anchor="middle" x="252" y="-182.5" font-family="Helvetica,sans-Serif" font-size="10.00">TH2D.h</text>
</g>
<!-- Node1&#45;&gt;Node14 -->
<g id="edge28" class="edge"><title>Node1&#45;&gt;Node14</title>
<path fill="none" stroke="midnightblue" d="M279.764,-232.362C275.163,-224.513 268.775,-213.616 263.286,-204.253"/>
<polygon fill="midnightblue" stroke="midnightblue" points="266.273,-202.428 258.197,-195.571 260.234,-205.968 266.273,-202.428"/>
</g>
<!-- Node15 -->
<g id="node30" class="node"><title>Node15</title>
<polygon fill="white" stroke="#bfbfbf" points="294.5,-174.5 294.5,-195.5 345.5,-195.5 345.5,-174.5 294.5,-174.5"/>
<text text-anchor="middle" x="320" y="-182.5" font-family="Helvetica,sans-Serif" font-size="10.00">TH3D.h</text>
</g>
<!-- Node1&#45;&gt;Node15 -->
<g id="edge30" class="edge"><title>Node1&#45;&gt;Node15</title>
<path fill="none" stroke="midnightblue" d="M292.236,-232.362C296.837,-224.513 303.225,-213.616 308.714,-204.253"/>
<polygon fill="midnightblue" stroke="midnightblue" points="311.766,-205.968 313.803,-195.571 305.727,-202.428 311.766,-205.968"/>
</g>
<!-- Node16 -->
<g id="node32" class="node"><title>Node16</title>
<polygon fill="white" stroke="#bfbfbf" points="363,-174.5 363,-195.5 415,-195.5 415,-174.5 363,-174.5"/>
<text text-anchor="middle" x="389" y="-182.5" font-family="Helvetica,sans-Serif" font-size="10.00">sstream</text>
</g>
<!-- Node1&#45;&gt;Node16 -->
<g id="edge32" class="edge"><title>Node1&#45;&gt;Node16</title>
<path fill="none" stroke="midnightblue" d="M304.892,-232.362C320.718,-223.45 343.523,-210.609 361.395,-200.545"/>
<polygon fill="midnightblue" stroke="midnightblue" points="363.232,-203.527 370.228,-195.571 359.797,-197.428 363.232,-203.527"/>
</g>
<!-- Node17 -->
<g id="node34" class="node"><title>Node17</title>
<polygon fill="white" stroke="#bfbfbf" points="433,-174.5 433,-195.5 483,-195.5 483,-174.5 433,-174.5"/>
<text text-anchor="middle" x="458" y="-182.5" font-family="Helvetica,sans-Serif" font-size="10.00">iomanip</text>
</g>
<!-- Node1&#45;&gt;Node17 -->
<g id="edge34" class="edge"><title>Node1&#45;&gt;Node17</title>
<path fill="none" stroke="midnightblue" d="M317.148,-232.497C347.11,-222.393 392.318,-207.148 423.391,-196.67"/>
<polygon fill="midnightblue" stroke="midnightblue" points="424.588,-199.96 432.946,-193.448 422.352,-193.327 424.588,-199.96"/>
</g>
<!-- Node3 -->
<g id="node5" class="node"><title>Node3</title>
<polygon fill="white" stroke="#bfbfbf" points="0,-116.5 0,-137.5 54,-137.5 54,-116.5 0,-116.5"/>
<text text-anchor="middle" x="27" y="-124.5" font-family="Helvetica,sans-Serif" font-size="10.00">TColor.h</text>
</g>
<!-- Node2&#45;&gt;Node3 -->
<g id="edge4" class="edge"><title>Node2&#45;&gt;Node3</title>
<path fill="none" stroke="midnightblue" d="M91.5102,-174.362C79.8173,-165.777 63.1573,-153.546 49.6969,-143.664"/>
<polygon fill="midnightblue" stroke="midnightblue" points="51.5301,-140.667 41.398,-137.571 47.3874,-146.31 51.5301,-140.667"/>
</g>
<!-- Node4 -->
<g id="node7" class="node"><title>Node4</title>
<polygon fill="white" stroke="#bfbfbf" points="132,-0.5 132,-21.5 176,-21.5 176,-0.5 132,-0.5"/>
<text text-anchor="middle" x="154" y="-8.5" font-family="Helvetica,sans-Serif" font-size="10.00">vector</text>
</g>
<!-- Node2&#45;&gt;Node4 -->
<g id="edge6" class="edge"><title>Node2&#45;&gt;Node4</title>
<path fill="none" stroke="midnightblue" d="M102.484,-174.189C95.742,-151.48 83.1693,-97.6441 101,-58 106.518,-45.7325 116.995,-35.3682 127.187,-27.52"/>
<polygon fill="midnightblue" stroke="midnightblue" points="129.464,-30.1944 135.566,-21.5328 125.395,-24.499 129.464,-30.1944"/>
</g>
<!-- Node5 -->
<g id="node9" class="node"><title>Node5</title>
<polygon fill="white" stroke="#bfbfbf" points="109.5,-116.5 109.5,-137.5 150.5,-137.5 150.5,-116.5 109.5,-116.5"/>
<text text-anchor="middle" x="130" y="-124.5" font-family="Helvetica,sans-Serif" font-size="10.00">string</text>
</g>
<!-- Node2&#45;&gt;Node5 -->
<g id="edge8" class="edge"><title>Node2&#45;&gt;Node5</title>
<path fill="none" stroke="midnightblue" d="M110.402,-174.362C113.582,-166.677 117.972,-156.069 121.79,-146.84"/>
<polygon fill="midnightblue" stroke="midnightblue" points="125.036,-148.149 125.626,-137.571 118.568,-145.473 125.036,-148.149"/>
</g>
<!-- Node6 -->
<g id="node11" class="node"><title>Node6</title>
<a xlink:href="interval_8h.html" target="_top" xlink:title="base/interval.h">
<polygon fill="white" stroke="black" points="212,-116.5 212,-137.5 292,-137.5 292,-116.5 212,-116.5"/>
<text text-anchor="middle" x="252" y="-124.5" font-family="Helvetica,sans-Serif" font-size="10.00">base/interval.h</text>
</a>
</g>
<!-- Node2&#45;&gt;Node6 -->
<g id="edge10" class="edge"><title>Node2&#45;&gt;Node6</title>
<path fill="none" stroke="midnightblue" d="M132.439,-174.497C155.756,-165.234 189.95,-151.65 215.804,-141.379"/>
<polygon fill="midnightblue" stroke="midnightblue" points="217.263,-144.566 225.264,-137.621 214.678,-138.06 217.263,-144.566"/>
</g>
<!-- Node7 -->
<g id="node13" class="node"><title>Node7</title>
<polygon fill="white" stroke="#bfbfbf" points="110,-58.5 110,-79.5 166,-79.5 166,-58.5 110,-58.5"/>
<text text-anchor="middle" x="138" y="-66.5" font-family="Helvetica,sans-Serif" font-size="10.00">algorithm</text>
</g>
<!-- Node6&#45;&gt;Node7 -->
<g id="edge12" class="edge"><title>Node6&#45;&gt;Node7</title>
<path fill="none" stroke="midnightblue" d="M231.355,-116.497C213.63,-107.479 187.855,-94.3649 167.877,-84.2006"/>
<polygon fill="midnightblue" stroke="midnightblue" points="169.376,-81.0364 158.876,-79.6212 166.202,-87.2753 169.376,-81.0364"/>
</g>
<!-- Node8 -->
<g id="node15" class="node"><title>Node8</title>
<polygon fill="white" stroke="#bfbfbf" points="183.5,-58.5 183.5,-79.5 242.5,-79.5 242.5,-58.5 183.5,-58.5"/>
<text text-anchor="middle" x="213" y="-66.5" font-family="Helvetica,sans-Serif" font-size="10.00">stdexcept</text>
</g>
<!-- Node6&#45;&gt;Node8 -->
<g id="edge14" class="edge"><title>Node6&#45;&gt;Node8</title>
<path fill="none" stroke="midnightblue" d="M244.847,-116.362C239.514,-108.431 232.089,-97.3885 225.749,-87.9606"/>
<polygon fill="midnightblue" stroke="midnightblue" points="228.592,-85.9161 220.108,-79.5707 222.783,-89.8221 228.592,-85.9161"/>
</g>
<!-- Node9 -->
<g id="node17" class="node"><title>Node9</title>
<a xlink:href="printable_8h.html" target="_top" xlink:title="printable.h">
<polygon fill="white" stroke="black" points="260,-58.5 260,-79.5 322,-79.5 322,-58.5 260,-58.5"/>
<text text-anchor="middle" x="291" y="-66.5" font-family="Helvetica,sans-Serif" font-size="10.00">printable.h</text>
</a>
</g>
<!-- Node6&#45;&gt;Node9 -->
<g id="edge16" class="edge"><title>Node6&#45;&gt;Node9</title>
<path fill="none" stroke="midnightblue" d="M259.153,-116.362C264.486,-108.431 271.911,-97.3885 278.251,-87.9606"/>
<polygon fill="midnightblue" stroke="midnightblue" points="281.217,-89.8221 283.892,-79.5707 275.408,-85.9161 281.217,-89.8221"/>
</g>
<!-- Node11 -->
<g id="node22" class="node"><title>Node11</title>
<a xlink:href="types_8h.html" target="_top" xlink:title="types.h">
<polygon fill="white" stroke="black" points="339.5,-58.5 339.5,-79.5 388.5,-79.5 388.5,-58.5 339.5,-58.5"/>
<text text-anchor="middle" x="364" y="-66.5" font-family="Helvetica,sans-Serif" font-size="10.00">types.h</text>
</a>
</g>
<!-- Node6&#45;&gt;Node11 -->
<g id="edge22" class="edge"><title>Node6&#45;&gt;Node11</title>
<path fill="none" stroke="midnightblue" d="M272.282,-116.497C289.618,-107.519 314.79,-94.4835 334.38,-84.3387"/>
<polygon fill="midnightblue" stroke="midnightblue" points="336.22,-87.3278 343.49,-79.6212 333.001,-81.1118 336.22,-87.3278"/>
</g>
<!-- Node12 -->
<g id="node24" class="node"><title>Node12</title>
<polygon fill="white" stroke="#bfbfbf" points="406,-58.5 406,-79.5 446,-79.5 446,-58.5 406,-58.5"/>
<text text-anchor="middle" x="426" y="-66.5" font-family="Helvetica,sans-Serif" font-size="10.00">limits</text>
</g>
<!-- Node6&#45;&gt;Node12 -->
<g id="edge24" class="edge"><title>Node6&#45;&gt;Node12</title>
<path fill="none" stroke="midnightblue" d="M286.144,-116.453C313.612,-107.853 353.397,-95.1384 396.279,-80.1545"/>
<polygon fill="midnightblue" stroke="midnightblue" points="397.492,-83.4384 405.765,-76.8203 395.17,-76.8345 397.492,-83.4384"/>
</g>
<!-- Node9&#45;&gt;Node4 -->
<g id="edge18" class="edge"><title>Node9&#45;&gt;Node4</title>
<path fill="none" stroke="midnightblue" d="M266.19,-58.4966C243.59,-48.9287 210.1,-34.7506 185.595,-24.3758"/>
<polygon fill="midnightblue" stroke="midnightblue" points="186.93,-21.1406 176.357,-20.465 184.201,-27.5867 186.93,-21.1406"/>
</g>
<!-- Node10 -->
<g id="node20" class="node"><title>Node10</title>
<polygon fill="white" stroke="#bfbfbf" points="265,-0.5 265,-21.5 317,-21.5 317,-0.5 265,-0.5"/>
<text text-anchor="middle" x="291" y="-8.5" font-family="Helvetica,sans-Serif" font-size="10.00">ostream</text>
</g>
<!-- Node9&#45;&gt;Node10 -->
<g id="edge20" class="edge"><title>Node9&#45;&gt;Node10</title>
<path fill="none" stroke="midnightblue" d="M291,-58.3619C291,-50.9219 291,-40.7427 291,-31.7276"/>
<polygon fill="midnightblue" stroke="midnightblue" points="294.5,-31.5706 291,-21.5707 287.5,-31.5707 294.5,-31.5706"/>
</g>
</g>
</svg>
