<?xml version="1.0" encoding="UTF-8" standalone="no"?>
<!DOCTYPE svg PUBLIC "-//W3C//DTD SVG 1.1//EN"
 "http://www.w3.org/Graphics/SVG/1.1/DTD/svg11.dtd">
<!-- Generated by graphviz version 2.26.3 (20100126.1600)
 -->
<!-- Title: src/calibration/gui/Indicator_traits.h Pages: 1 -->
<svg width="1822pt" height="476pt"
 viewBox="0.00 0.00 1822.00 476.00" xmlns="http://www.w3.org/2000/svg" xmlns:xlink="http://www.w3.org/1999/xlink">
<g id="graph1" class="graph" transform="scale(1 1) rotate(0) translate(4 472)">
<title>src/calibration/gui/Indicator_traits.h</title>
<polygon fill="white" stroke="white" points="-4,5 -4,-472 1819,-472 1819,5 -4,5"/>
<!-- Node1 -->
<g id="node1" class="node"><title>Node1</title>
<polygon fill="#bfbfbf" stroke="black" points="1209.5,-433 1209.5,-467 1302.5,-467 1302.5,-433 1209.5,-433"/>
<text text-anchor="start" x="1217.5" y="-454" font-family="Helvetica,sans-Serif" font-size="10.00">src/calibration/gui</text>
<text text-anchor="middle" x="1256" y="-441" font-family="Helvetica,sans-Serif" font-size="10.00">/Indicator_traits.h</text>
</g>
<!-- Node2 -->
<g id="node3" class="node"><title>Node2</title>
<a xlink:href="_knobs_t_f1_8h.html" target="_top" xlink:title="src/calibration/fitfunctions\l/KnobsTF1.h">
<polygon fill="white" stroke="black" points="1146,-361 1146,-395 1274,-395 1274,-361 1146,-361"/>
<text text-anchor="start" x="1154" y="-382" font-family="Helvetica,sans-Serif" font-size="10.00">src/calibration/fitfunctions</text>
<text text-anchor="middle" x="1210" y="-369" font-family="Helvetica,sans-Serif" font-size="10.00">/KnobsTF1.h</text>
</a>
</g>
<!-- Node1&#45;&gt;Node2 -->
<g id="edge2" class="edge"><title>Node1&#45;&gt;Node2</title>
<path fill="none" stroke="midnightblue" d="M1239.71,-424.498C1233.56,-414.877 1226.71,-404.159 1221.14,-395.441"/>
<polygon fill="midnightblue" stroke="midnightblue" points="1236.77,-426.394 1245.1,-432.937 1242.66,-422.626 1236.77,-426.394"/>
</g>
<!-- Node3 -->
<g id="node5" class="node"><title>Node3</title>
<a xlink:href="_fit_function_8h.html" target="_top" xlink:title="src/calibration/fitfunctions\l/FitFunction.h">
<polygon fill="white" stroke="black" points="1000,-289 1000,-323 1128,-323 1128,-289 1000,-289"/>
<text text-anchor="start" x="1008" y="-310" font-family="Helvetica,sans-Serif" font-size="10.00">src/calibration/fitfunctions</text>
<text text-anchor="middle" x="1064" y="-297" font-family="Helvetica,sans-Serif" font-size="10.00">/FitFunction.h</text>
</a>
</g>
<!-- Node1&#45;&gt;Node3 -->
<g id="edge76" class="edge"><title>Node1&#45;&gt;Node3</title>
<path fill="none" stroke="midnightblue" d="M1200.01,-430.873C1179.04,-422.15 1155.76,-410.491 1137,-396 1110.25,-375.34 1087.17,-343.036 1074.46,-323.269"/>
<polygon fill="midnightblue" stroke="midnightblue" points="1198.88,-434.19 1209.46,-434.675 1201.49,-427.696 1198.88,-434.19"/>
</g>
<!-- Node25 -->
<g id="node51" class="node"><title>Node25</title>
<a xlink:href="_cal_canvas_8h.html" target="_top" xlink:title="src/calibration/gui\l/CalCanvas.h">
<polygon fill="white" stroke="black" points="1255.5,-217 1255.5,-251 1348.5,-251 1348.5,-217 1255.5,-217"/>
<text text-anchor="start" x="1263.5" y="-238" font-family="Helvetica,sans-Serif" font-size="10.00">src/calibration/gui</text>
<text text-anchor="middle" x="1302" y="-225" font-family="Helvetica,sans-Serif" font-size="10.00">/CalCanvas.h</text>
</a>
</g>
<!-- Node1&#45;&gt;Node25 -->
<g id="edge78" class="edge"><title>Node1&#45;&gt;Node25</title>
<path fill="none" stroke="midnightblue" d="M1271.37,-423.837C1275.79,-415.229 1280.18,-405.441 1283,-396 1298.23,-344.989 1301.34,-281.533 1301.91,-251.421"/>
<polygon fill="midnightblue" stroke="midnightblue" points="1268.28,-422.178 1266.62,-432.642 1274.45,-425.499 1268.28,-422.178"/>
</g>
<!-- Node31 -->
<g id="node71" class="node"><title>Node31</title>
<a xlink:href="_indicator_8h.html" target="_top" xlink:title="src/calibration/gui\l/Indicator.h">
<polygon fill="white" stroke="black" points="1621.5,-361 1621.5,-395 1714.5,-395 1714.5,-361 1621.5,-361"/>
<text text-anchor="start" x="1629.5" y="-382" font-family="Helvetica,sans-Serif" font-size="10.00">src/calibration/gui</text>
<text text-anchor="middle" x="1668" y="-369" font-family="Helvetica,sans-Serif" font-size="10.00">/Indicator.h</text>
</a>
</g>
<!-- Node1&#45;&gt;Node31 -->
<g id="edge80" class="edge"><title>Node1&#45;&gt;Node31</title>
<path fill="none" stroke="midnightblue" d="M1312.78,-440.078C1394.96,-425.716 1545.51,-399.407 1621.5,-386.126"/>
<polygon fill="midnightblue" stroke="midnightblue" points="1312.11,-436.641 1302.86,-441.811 1313.31,-443.537 1312.11,-436.641"/>
</g>
<!-- Node2&#45;&gt;Node3 -->
<g id="edge4" class="edge"><title>Node2&#45;&gt;Node3</title>
<path fill="none" stroke="midnightblue" d="M1166.39,-356.495C1144.72,-345.807 1118.9,-333.072 1098.6,-323.065"/>
<polygon fill="midnightblue" stroke="midnightblue" points="1164.88,-359.653 1175.4,-360.937 1167.98,-353.375 1164.88,-359.653"/>
</g>
<!-- Node30 -->
<g id="node67" class="node"><title>Node30</title>
<a xlink:href="_knobs_t_f1_8cc.html" target="_top" xlink:title="src/calibration/fitfunctions\l/KnobsTF1.cc">
<polygon fill="white" stroke="black" points="1146,-289 1146,-323 1274,-323 1274,-289 1146,-289"/>
<text text-anchor="start" x="1154" y="-310" font-family="Helvetica,sans-Serif" font-size="10.00">src/calibration/fitfunctions</text>
<text text-anchor="middle" x="1210" y="-297" font-family="Helvetica,sans-Serif" font-size="10.00">/KnobsTF1.cc</text>
</a>
</g>
<!-- Node2&#45;&gt;Node30 -->
<g id="edge74" class="edge"><title>Node2&#45;&gt;Node30</title>
<path fill="none" stroke="midnightblue" d="M1210,-350.719C1210,-341.572 1210,-331.625 1210,-323.441"/>
<polygon fill="midnightblue" stroke="midnightblue" points="1206.5,-350.937 1210,-360.937 1213.5,-350.937 1206.5,-350.937"/>
</g>
<!-- Node4 -->
<g id="node7" class="node"><title>Node4</title>
<a xlink:href="_fit_function_8cc.html" target="_top" xlink:title="src/calibration/fitfunctions\l/FitFunction.cc">
<polygon fill="white" stroke="black" points="964,-217 964,-251 1092,-251 1092,-217 964,-217"/>
<text text-anchor="start" x="972" y="-238" font-family="Helvetica,sans-Serif" font-size="10.00">src/calibration/fitfunctions</text>
<text text-anchor="middle" x="1028" y="-225" font-family="Helvetica,sans-Serif" font-size="10.00">/FitFunction.cc</text>
</a>
</g>
<!-- Node3&#45;&gt;Node4 -->
<g id="edge6" class="edge"><title>Node3&#45;&gt;Node4</title>
<path fill="none" stroke="midnightblue" d="M1050.95,-279.908C1046.22,-270.44 1040.99,-259.981 1036.72,-251.441"/>
<polygon fill="midnightblue" stroke="midnightblue" points="1047.87,-281.558 1055.47,-288.937 1054.13,-278.427 1047.87,-281.558"/>
</g>
<!-- Node5 -->
<g id="node9" class="node"><title>Node5</title>
<a xlink:href="_fit_gaus_8h.html" target="_top" xlink:title="src/calibration/fitfunctions\l/FitGaus.h">
<polygon fill="white" stroke="black" points="806,-217 806,-251 934,-251 934,-217 806,-217"/>
<text text-anchor="start" x="814" y="-238" font-family="Helvetica,sans-Serif" font-size="10.00">src/calibration/fitfunctions</text>
<text text-anchor="middle" x="870" y="-225" font-family="Helvetica,sans-Serif" font-size="10.00">/FitGaus.h</text>
</a>
</g>
<!-- Node3&#45;&gt;Node5 -->
<g id="edge8" class="edge"><title>Node3&#45;&gt;Node5</title>
<path fill="none" stroke="midnightblue" d="M1008.36,-285.35C979.101,-274.491 943.666,-261.34 915.981,-251.065"/>
<polygon fill="midnightblue" stroke="midnightblue" points="1007.43,-288.739 1018.02,-288.937 1009.87,-282.176 1007.43,-288.739"/>
</g>
<!-- Node16 -->
<g id="node31" class="node"><title>Node16</title>
<a xlink:href="_fit_gaus_pol0_8h.html" target="_top" xlink:title="src/calibration/fitfunctions\l/FitGausPol0.h">
<polygon fill="white" stroke="black" points="315,-217 315,-251 443,-251 443,-217 315,-217"/>
<text text-anchor="start" x="323" y="-238" font-family="Helvetica,sans-Serif" font-size="10.00">src/calibration/fitfunctions</text>
<text text-anchor="middle" x="379" y="-225" font-family="Helvetica,sans-Serif" font-size="10.00">/FitGausPol0.h</text>
</a>
</g>
<!-- Node3&#45;&gt;Node16 -->
<g id="edge30" class="edge"><title>Node3&#45;&gt;Node16</title>
<path fill="none" stroke="midnightblue" d="M989.707,-299.174C885.383,-289.455 689.576,-270.721 523,-252 496.836,-249.059 468.038,-245.52 443.116,-242.361"/>
<polygon fill="midnightblue" stroke="midnightblue" points="989.539,-302.673 999.82,-300.115 990.187,-295.703 989.539,-302.673"/>
</g>
<!-- Node19 -->
<g id="node38" class="node"><title>Node19</title>
<a xlink:href="_fit_gaus_pol3_8h.html" target="_top" xlink:title="src/calibration/fitfunctions\l/FitGausPol3.h">
<polygon fill="white" stroke="black" points="532,-217 532,-251 660,-251 660,-217 532,-217"/>
<text text-anchor="start" x="540" y="-238" font-family="Helvetica,sans-Serif" font-size="10.00">src/calibration/fitfunctions</text>
<text text-anchor="middle" x="596" y="-225" font-family="Helvetica,sans-Serif" font-size="10.00">/FitGausPol3.h</text>
</a>
</g>
<!-- Node3&#45;&gt;Node19 -->
<g id="edge38" class="edge"><title>Node3&#45;&gt;Node19</title>
<path fill="none" stroke="midnightblue" d="M989.946,-294.607C898.988,-280.614 746.196,-257.107 660.067,-243.857"/>
<polygon fill="midnightblue" stroke="midnightblue" points="989.492,-298.078 999.908,-296.14 990.556,-291.16 989.492,-298.078"/>
</g>
<!-- Node22 -->
<g id="node45" class="node"><title>Node22</title>
<a xlink:href="_fit_timewalk_8h.html" target="_top" xlink:title="src/calibration/fitfunctions\l/FitTimewalk.h">
<polygon fill="white" stroke="black" points="1110,-217 1110,-251 1238,-251 1238,-217 1110,-217"/>
<text text-anchor="start" x="1118" y="-238" font-family="Helvetica,sans-Serif" font-size="10.00">src/calibration/fitfunctions</text>
<text text-anchor="middle" x="1174" y="-225" font-family="Helvetica,sans-Serif" font-size="10.00">/FitTimewalk.h</text>
</a>
</g>
<!-- Node3&#45;&gt;Node22 -->
<g id="edge46" class="edge"><title>Node3&#45;&gt;Node22</title>
<path fill="none" stroke="midnightblue" d="M1098.58,-283.364C1114.47,-272.962 1133.02,-260.826 1147.74,-251.19"/>
<polygon fill="midnightblue" stroke="midnightblue" points="1096.52,-280.532 1090.07,-288.937 1100.35,-286.389 1096.52,-280.532"/>
</g>
<!-- Node3&#45;&gt;Node25 -->
<g id="edge52" class="edge"><title>Node3&#45;&gt;Node25</title>
<path fill="none" stroke="midnightblue" d="M1133.39,-286.046C1167.65,-276.059 1209.58,-263.643 1247,-252 1249.69,-251.164 1252.44,-250.296 1255.22,-249.413"/>
<polygon fill="midnightblue" stroke="midnightblue" points="1132.1,-282.776 1123.47,-288.929 1134.05,-289.497 1132.1,-282.776"/>
</g>
<!-- Node26 -->
<g id="node53" class="node"><title>Node26</title>
<a xlink:href="_cal_canvas_8cc.html" target="_top" xlink:title="src/calibration/gui\l/CalCanvas.cc">
<polygon fill="white" stroke="black" points="1721.5,-145 1721.5,-179 1814.5,-179 1814.5,-145 1721.5,-145"/>
<text text-anchor="start" x="1729.5" y="-166" font-family="Helvetica,sans-Serif" font-size="10.00">src/calibration/gui</text>
<text text-anchor="middle" x="1768" y="-153" font-family="Helvetica,sans-Serif" font-size="10.00">/CalCanvas.cc</text>
</a>
</g>
<!-- Node3&#45;&gt;Node26 -->
<g id="edge70" class="edge"><title>Node3&#45;&gt;Node26</title>
<path fill="none" stroke="midnightblue" d="M1138.42,-287.863C1269.58,-264.634 1306.53,-276.064 1434,-252 1559.84,-228.243 1590.08,-215.934 1713,-180 1715.7,-179.211 1718.47,-178.379 1721.26,-177.523"/>
<polygon fill="midnightblue" stroke="midnightblue" points="1137.61,-284.452 1128.4,-289.673 1138.86,-291.341 1137.61,-284.452"/>
</g>
<!-- Node29 -->
<g id="node63" class="node"><title>Node29</title>
<a xlink:href="_time_8cc.html" target="_top" xlink:title="src/calibration/modules\l/Time.cc">
<polygon fill="white" stroke="black" points="1587.5,-145 1587.5,-179 1704.5,-179 1704.5,-145 1587.5,-145"/>
<text text-anchor="start" x="1595.5" y="-166" font-family="Helvetica,sans-Serif" font-size="10.00">src/calibration/modules</text>
<text text-anchor="middle" x="1646" y="-153" font-family="Helvetica,sans-Serif" font-size="10.00">/Time.cc</text>
</a>
</g>
<!-- Node3&#45;&gt;Node29 -->
<g id="edge72" class="edge"><title>Node3&#45;&gt;Node29</title>
<path fill="none" stroke="midnightblue" d="M1138.04,-287.887C1235.85,-268.523 1263.68,-274.051 1357,-252 1443.43,-231.576 1541.69,-198.896 1598.5,-179.042"/>
<polygon fill="midnightblue" stroke="midnightblue" points="1137.14,-284.498 1128.03,-289.906 1138.52,-291.36 1137.14,-284.498"/>
</g>
<!-- Node6 -->
<g id="node11" class="node"><title>Node6</title>
<a xlink:href="_fit_gaus_8cc.html" target="_top" xlink:title="src/calibration/fitfunctions\l/FitGaus.cc">
<polygon fill="white" stroke="black" points="794,-145 794,-179 922,-179 922,-145 794,-145"/>
<text text-anchor="start" x="802" y="-166" font-family="Helvetica,sans-Serif" font-size="10.00">src/calibration/fitfunctions</text>
<text text-anchor="middle" x="858" y="-153" font-family="Helvetica,sans-Serif" font-size="10.00">/FitGaus.cc</text>
</a>
</g>
<!-- Node5&#45;&gt;Node6 -->
<g id="edge10" class="edge"><title>Node5&#45;&gt;Node6</title>
<path fill="none" stroke="midnightblue" d="M865.503,-207.017C863.965,-197.788 862.286,-187.714 860.907,-179.441"/>
<polygon fill="midnightblue" stroke="midnightblue" points="862.06,-207.648 867.156,-216.937 868.964,-206.498 862.06,-207.648"/>
</g>
<!-- Node7 -->
<g id="node13" class="node"><title>Node7</title>
<a xlink:href="_p_i_d___phi_angle_8cc.html" target="_top" xlink:title="src/calibration/modules\l/PID_PhiAngle.cc">
<polygon fill="white" stroke="black" points="939.5,-145 939.5,-179 1056.5,-179 1056.5,-145 939.5,-145"/>
<text text-anchor="start" x="947.5" y="-166" font-family="Helvetica,sans-Serif" font-size="10.00">src/calibration/modules</text>
<text text-anchor="middle" x="998" y="-153" font-family="Helvetica,sans-Serif" font-size="10.00">/PID_PhiAngle.cc</text>
</a>
</g>
<!-- Node5&#45;&gt;Node7 -->
<g id="edge12" class="edge"><title>Node5&#45;&gt;Node7</title>
<path fill="none" stroke="midnightblue" d="M909.218,-211.94C927.933,-201.413 949.992,-189.004 967.44,-179.19"/>
<polygon fill="midnightblue" stroke="midnightblue" points="907.334,-208.984 900.334,-216.937 910.766,-215.085 907.334,-208.984"/>
</g>
<!-- Node8 -->
<g id="node15" class="node"><title>Node8</title>
<a xlink:href="_setup_8h.html" target="_top" xlink:title="src/expconfig/setups\l/Setup.h">
<polygon fill="white" stroke="black" points="255.5,-145 255.5,-179 362.5,-179 362.5,-145 255.5,-145"/>
<text text-anchor="start" x="263.5" y="-166" font-family="Helvetica,sans-Serif" font-size="10.00">src/expconfig/setups</text>
<text text-anchor="middle" x="309" y="-153" font-family="Helvetica,sans-Serif" font-size="10.00">/Setup.h</text>
</a>
</g>
<!-- Node5&#45;&gt;Node8 -->
<g id="edge14" class="edge"><title>Node5&#45;&gt;Node8</title>
<path fill="none" stroke="midnightblue" d="M795.525,-227.551C676.895,-217.007 450.325,-195.682 371,-180 368.251,-179.457 365.448,-178.848 362.627,-178.191"/>
<polygon fill="midnightblue" stroke="midnightblue" points="795.346,-231.049 805.616,-228.445 795.964,-224.076 795.346,-231.049"/>
</g>
<!-- Node9 -->
<g id="node17" class="node"><title>Node9</title>
<a xlink:href="_exp_config_8cc.html" target="_top" xlink:title="src/expconfig/ExpConfig.cc">
<polygon fill="white" stroke="black" points="35.5,-79.5 35.5,-100.5 172.5,-100.5 172.5,-79.5 35.5,-79.5"/>
<text text-anchor="middle" x="104" y="-87.5" font-family="Helvetica,sans-Serif" font-size="10.00">src/expconfig/ExpConfig.cc</text>
</a>
</g>
<!-- Node8&#45;&gt;Node9 -->
<g id="edge16" class="edge"><title>Node8&#45;&gt;Node9</title>
<path fill="none" stroke="midnightblue" d="M250.98,-141.622C212.933,-128.259 164.741,-111.333 134.13,-100.582"/>
<polygon fill="midnightblue" stroke="midnightblue" points="249.823,-144.925 260.418,-144.937 252.143,-138.321 249.823,-144.925"/>
</g>
<!-- Node10 -->
<g id="node19" class="node"><title>Node10</title>
<a xlink:href="_setup__2014___e_p_t_8h.html" target="_top" xlink:title="src/expconfig/setups\l/Setup_2014_EPT.h">
<polygon fill="white" stroke="black" points="189.5,-73 189.5,-107 296.5,-107 296.5,-73 189.5,-73"/>
<text text-anchor="start" x="197.5" y="-94" font-family="Helvetica,sans-Serif" font-size="10.00">src/expconfig/setups</text>
<text text-anchor="middle" x="243" y="-81" font-family="Helvetica,sans-Serif" font-size="10.00">/Setup_2014_EPT.h</text>
</a>
</g>
<!-- Node8&#45;&gt;Node10 -->
<g id="edge18" class="edge"><title>Node8&#45;&gt;Node10</title>
<path fill="none" stroke="midnightblue" d="M286.43,-137.379C277.407,-127.535 267.224,-116.426 258.987,-107.441"/>
<polygon fill="midnightblue" stroke="midnightblue" points="284.022,-139.93 293.359,-144.937 289.182,-135.2 284.022,-139.93"/>
</g>
<!-- Node14 -->
<g id="node27" class="node"><title>Node14</title>
<a xlink:href="_setup__2015__dummy_8cc.html" target="_top" xlink:title="src/expconfig/setups\l/Setup_2015_dummy.cc">
<polygon fill="white" stroke="black" points="314,-73 314,-107 436,-107 436,-73 314,-73"/>
<text text-anchor="start" x="322" y="-94" font-family="Helvetica,sans-Serif" font-size="10.00">src/expconfig/setups</text>
<text text-anchor="middle" x="375" y="-81" font-family="Helvetica,sans-Serif" font-size="10.00">/Setup_2015_dummy.cc</text>
</a>
</g>
<!-- Node8&#45;&gt;Node14 -->
<g id="edge26" class="edge"><title>Node8&#45;&gt;Node14</title>
<path fill="none" stroke="midnightblue" d="M331.57,-137.379C340.593,-127.535 350.776,-116.426 359.013,-107.441"/>
<polygon fill="midnightblue" stroke="midnightblue" points="328.818,-135.2 324.641,-144.937 333.978,-139.93 328.818,-135.2"/>
</g>
<!-- Node15 -->
<g id="node29" class="node"><title>Node15</title>
<a xlink:href="_setup_registry_8cc.html" target="_top" xlink:title="src/expconfig/setups\l/SetupRegistry.cc">
<polygon fill="white" stroke="black" points="453.5,-73 453.5,-107 560.5,-107 560.5,-73 453.5,-73"/>
<text text-anchor="start" x="461.5" y="-94" font-family="Helvetica,sans-Serif" font-size="10.00">src/expconfig/setups</text>
<text text-anchor="middle" x="507" y="-81" font-family="Helvetica,sans-Serif" font-size="10.00">/SetupRegistry.cc</text>
</a>
</g>
<!-- Node8&#45;&gt;Node15 -->
<g id="edge28" class="edge"><title>Node8&#45;&gt;Node15</title>
<path fill="none" stroke="midnightblue" d="M365.399,-141.491C395.335,-130.606 431.692,-117.385 460.071,-107.065"/>
<polygon fill="midnightblue" stroke="midnightblue" points="364.125,-138.23 355.923,-144.937 366.517,-144.809 364.125,-138.23"/>
</g>
<!-- Node11 -->
<g id="node21" class="node"><title>Node11</title>
<a xlink:href="_setup__2014__07___e_p_t___prod_8cc.html" target="_top" xlink:title="src/expconfig/setups\l/Setup_2014_07_EPT_Prod.cc">
<polygon fill="white" stroke="black" points="-0.5,-1 -0.5,-35 150.5,-35 150.5,-1 -0.5,-1"/>
<text text-anchor="start" x="7.5" y="-22" font-family="Helvetica,sans-Serif" font-size="10.00">src/expconfig/setups</text>
<text text-anchor="middle" x="75" y="-9" font-family="Helvetica,sans-Serif" font-size="10.00">/Setup_2014_07_EPT_Prod.cc</text>
</a>
</g>
<!-- Node10&#45;&gt;Node11 -->
<g id="edge20" class="edge"><title>Node10&#45;&gt;Node11</title>
<path fill="none" stroke="midnightblue" d="M193.822,-68.9238C168.68,-58.1485 138.48,-45.2059 114.819,-35.0651"/>
<polygon fill="midnightblue" stroke="midnightblue" points="192.616,-72.2148 203.186,-72.937 195.374,-65.7807 192.616,-72.2148"/>
</g>
<!-- Node12 -->
<g id="node23" class="node"><title>Node12</title>
<a xlink:href="_setup__2014__10___e_p_t___prod_8cc.html" target="_top" xlink:title="src/expconfig/setups\l/Setup_2014_10_EPT_Prod.cc">
<polygon fill="white" stroke="black" points="167.5,-1 167.5,-35 318.5,-35 318.5,-1 167.5,-1"/>
<text text-anchor="start" x="175.5" y="-22" font-family="Helvetica,sans-Serif" font-size="10.00">src/expconfig/setups</text>
<text text-anchor="middle" x="243" y="-9" font-family="Helvetica,sans-Serif" font-size="10.00">/Setup_2014_10_EPT_Prod.cc</text>
</a>
</g>
<!-- Node10&#45;&gt;Node12 -->
<g id="edge22" class="edge"><title>Node10&#45;&gt;Node12</title>
<path fill="none" stroke="midnightblue" d="M243,-62.7193C243,-53.572 243,-43.6255 243,-35.4407"/>
<polygon fill="midnightblue" stroke="midnightblue" points="239.5,-62.937 243,-72.937 246.5,-62.937 239.5,-62.937"/>
</g>
<!-- Node13 -->
<g id="node25" class="node"><title>Node13</title>
<a xlink:href="_setup__2014__12___e_p_t___prod_8cc.html" target="_top" xlink:title="src/expconfig/setups\l/Setup_2014_12_EPT_Prod.cc">
<polygon fill="white" stroke="black" points="335.5,-1 335.5,-35 486.5,-35 486.5,-1 335.5,-1"/>
<text text-anchor="start" x="343.5" y="-22" font-family="Helvetica,sans-Serif" font-size="10.00">src/expconfig/setups</text>
<text text-anchor="middle" x="411" y="-9" font-family="Helvetica,sans-Serif" font-size="10.00">/Setup_2014_12_EPT_Prod.cc</text>
</a>
</g>
<!-- Node10&#45;&gt;Node13 -->
<g id="edge24" class="edge"><title>Node10&#45;&gt;Node13</title>
<path fill="none" stroke="midnightblue" d="M292.178,-68.9238C317.32,-58.1485 347.52,-45.2059 371.181,-35.0651"/>
<polygon fill="midnightblue" stroke="midnightblue" points="290.626,-65.7807 282.814,-72.937 293.384,-72.2148 290.626,-65.7807"/>
</g>
<!-- Node16&#45;&gt;Node8 -->
<g id="edge36" class="edge"><title>Node16&#45;&gt;Node8</title>
<path fill="none" stroke="midnightblue" d="M355.346,-209.671C345.706,-199.755 334.779,-188.515 325.956,-179.441"/>
<polygon fill="midnightblue" stroke="midnightblue" points="352.931,-212.207 362.411,-216.937 357.95,-207.327 352.931,-212.207"/>
</g>
<!-- Node17 -->
<g id="node33" class="node"><title>Node17</title>
<a xlink:href="_fit_gaus_pol0_8cc.html" target="_top" xlink:title="src/calibration/fitfunctions\l/FitGausPol0.cc">
<polygon fill="white" stroke="black" points="110,-145 110,-179 238,-179 238,-145 110,-145"/>
<text text-anchor="start" x="118" y="-166" font-family="Helvetica,sans-Serif" font-size="10.00">src/calibration/fitfunctions</text>
<text text-anchor="middle" x="174" y="-153" font-family="Helvetica,sans-Serif" font-size="10.00">/FitGausPol0.cc</text>
</a>
</g>
<!-- Node16&#45;&gt;Node17 -->
<g id="edge32" class="edge"><title>Node16&#45;&gt;Node17</title>
<path fill="none" stroke="midnightblue" d="M320.607,-213.491C289.613,-202.606 251.97,-189.385 222.588,-179.065"/>
<polygon fill="midnightblue" stroke="midnightblue" points="319.823,-216.925 330.418,-216.937 322.143,-210.321 319.823,-216.925"/>
</g>
<!-- Node18 -->
<g id="node35" class="node"><title>Node18</title>
<a xlink:href="_p_i_d___energy_8cc.html" target="_top" xlink:title="src/calibration/modules\l/PID_Energy.cc">
<polygon fill="white" stroke="black" points="525.5,-145 525.5,-179 642.5,-179 642.5,-145 525.5,-145"/>
<text text-anchor="start" x="533.5" y="-166" font-family="Helvetica,sans-Serif" font-size="10.00">src/calibration/modules</text>
<text text-anchor="middle" x="584" y="-153" font-family="Helvetica,sans-Serif" font-size="10.00">/PID_Energy.cc</text>
</a>
</g>
<!-- Node16&#45;&gt;Node18 -->
<g id="edge34" class="edge"><title>Node16&#45;&gt;Node18</title>
<path fill="none" stroke="midnightblue" d="M437.393,-213.491C468.387,-202.606 506.03,-189.385 535.412,-179.065"/>
<polygon fill="midnightblue" stroke="midnightblue" points="435.857,-210.321 427.582,-216.937 438.177,-216.925 435.857,-210.321"/>
</g>
<!-- Node19&#45;&gt;Node8 -->
<g id="edge44" class="edge"><title>Node19&#45;&gt;Node8</title>
<path fill="none" stroke="midnightblue" d="M522.035,-217.171C478.033,-206.931 421.18,-193.298 371,-180 368.291,-179.282 365.521,-178.533 362.725,-177.765"/>
<polygon fill="midnightblue" stroke="midnightblue" points="521.257,-220.584 531.789,-219.435 522.839,-213.765 521.257,-220.584"/>
</g>
<!-- Node20 -->
<g id="node40" class="node"><title>Node20</title>
<a xlink:href="_fit_gaus_pol3_8cc.html" target="_top" xlink:title="src/calibration/fitfunctions\l/FitGausPol3.cc">
<polygon fill="white" stroke="black" points="380,-145 380,-179 508,-179 508,-145 380,-145"/>
<text text-anchor="start" x="388" y="-166" font-family="Helvetica,sans-Serif" font-size="10.00">src/calibration/fitfunctions</text>
<text text-anchor="middle" x="444" y="-153" font-family="Helvetica,sans-Serif" font-size="10.00">/FitGausPol3.cc</text>
</a>
</g>
<!-- Node19&#45;&gt;Node20 -->
<g id="edge40" class="edge"><title>Node19&#45;&gt;Node20</title>
<path fill="none" stroke="midnightblue" d="M550.903,-212.638C528.277,-201.921 501.246,-189.117 480.026,-179.065"/>
<polygon fill="midnightblue" stroke="midnightblue" points="549.442,-215.819 559.978,-216.937 552.439,-209.493 549.442,-215.819"/>
</g>
<!-- Node21 -->
<g id="node42" class="node"><title>Node21</title>
<a xlink:href="_c_b___energy_8cc.html" target="_top" xlink:title="src/calibration/modules\l/CB_Energy.cc">
<polygon fill="white" stroke="black" points="659.5,-145 659.5,-179 776.5,-179 776.5,-145 659.5,-145"/>
<text text-anchor="start" x="667.5" y="-166" font-family="Helvetica,sans-Serif" font-size="10.00">src/calibration/modules</text>
<text text-anchor="middle" x="718" y="-153" font-family="Helvetica,sans-Serif" font-size="10.00">/CB_Energy.cc</text>
</a>
</g>
<!-- Node19&#45;&gt;Node21 -->
<g id="edge42" class="edge"><title>Node19&#45;&gt;Node21</title>
<path fill="none" stroke="midnightblue" d="M633.867,-211.652C651.6,-201.187 672.394,-188.915 688.872,-179.19"/>
<polygon fill="midnightblue" stroke="midnightblue" points="631.745,-208.84 624.912,-216.937 635.303,-214.869 631.745,-208.84"/>
</g>
<!-- Node23 -->
<g id="node47" class="node"><title>Node23</title>
<a xlink:href="_fit_timewalk_8cc.html" target="_top" xlink:title="src/calibration/fitfunctions\l/FitTimewalk.cc">
<polygon fill="white" stroke="black" points="1074,-145 1074,-179 1202,-179 1202,-145 1074,-145"/>
<text text-anchor="start" x="1082" y="-166" font-family="Helvetica,sans-Serif" font-size="10.00">src/calibration/fitfunctions</text>
<text text-anchor="middle" x="1138" y="-153" font-family="Helvetica,sans-Serif" font-size="10.00">/FitTimewalk.cc</text>
</a>
</g>
<!-- Node22&#45;&gt;Node23 -->
<g id="edge48" class="edge"><title>Node22&#45;&gt;Node23</title>
<path fill="none" stroke="midnightblue" d="M1160.95,-207.908C1156.22,-198.44 1150.99,-187.981 1146.72,-179.441"/>
<polygon fill="midnightblue" stroke="midnightblue" points="1157.87,-209.558 1165.47,-216.937 1164.13,-206.427 1157.87,-209.558"/>
</g>
<!-- Node24 -->
<g id="node49" class="node"><title>Node24</title>
<a xlink:href="_c_b___time_walk_8cc.html" target="_top" xlink:title="src/calibration/modules\l/CB_TimeWalk.cc">
<polygon fill="white" stroke="black" points="1219.5,-145 1219.5,-179 1336.5,-179 1336.5,-145 1219.5,-145"/>
<text text-anchor="start" x="1227.5" y="-166" font-family="Helvetica,sans-Serif" font-size="10.00">src/calibration/modules</text>
<text text-anchor="middle" x="1278" y="-153" font-family="Helvetica,sans-Serif" font-size="10.00">/CB_TimeWalk.cc</text>
</a>
</g>
<!-- Node22&#45;&gt;Node24 -->
<g id="edge50" class="edge"><title>Node22&#45;&gt;Node24</title>
<path fill="none" stroke="midnightblue" d="M1207.11,-211.074C1222.05,-200.738 1239.38,-188.737 1253.17,-179.19"/>
<polygon fill="midnightblue" stroke="midnightblue" points="1204.88,-208.367 1198.65,-216.937 1208.86,-214.123 1204.88,-208.367"/>
</g>
<!-- Node25&#45;&gt;Node7 -->
<g id="edge66" class="edge"><title>Node25&#45;&gt;Node7</title>
<path fill="none" stroke="midnightblue" d="M1245.28,-215.699C1165.42,-195.383 1142.17,-197.977 1065,-180 1062.3,-179.372 1059.55,-178.711 1056.77,-178.028"/>
<polygon fill="midnightblue" stroke="midnightblue" points="1244.75,-219.176 1255.31,-218.293 1246.5,-212.399 1244.75,-219.176"/>
</g>
<!-- Node25&#45;&gt;Node18 -->
<g id="edge64" class="edge"><title>Node25&#45;&gt;Node18</title>
<path fill="none" stroke="midnightblue" d="M1245.25,-215.941C984.425,-167.737 909.598,-222.102 651,-180 648.266,-179.555 645.482,-179.044 642.68,-178.484"/>
<polygon fill="midnightblue" stroke="midnightblue" points="1244.93,-219.442 1255.41,-217.852 1246.23,-212.563 1244.93,-219.442"/>
</g>
<!-- Node25&#45;&gt;Node21 -->
<g id="edge60" class="edge"><title>Node25&#45;&gt;Node21</title>
<path fill="none" stroke="midnightblue" d="M1245.34,-215.931C1043.15,-176.927 984.712,-214.305 785,-180 782.27,-179.531 779.489,-179.001 776.69,-178.425"/>
<polygon fill="midnightblue" stroke="midnightblue" points="1244.91,-219.412 1255.39,-217.909 1246.26,-212.544 1244.91,-219.412"/>
</g>
<!-- Node25&#45;&gt;Node24 -->
<g id="edge62" class="edge"><title>Node25&#45;&gt;Node24</title>
<path fill="none" stroke="midnightblue" d="M1293.1,-207.315C1290,-198.005 1286.6,-187.803 1283.81,-179.441"/>
<polygon fill="midnightblue" stroke="midnightblue" points="1289.83,-208.557 1296.31,-216.937 1296.47,-206.343 1289.83,-208.557"/>
</g>
<!-- Node25&#45;&gt;Node26 -->
<g id="edge54" class="edge"><title>Node25&#45;&gt;Node26</title>
<path fill="none" stroke="midnightblue" d="M1359.06,-229.87C1438.97,-223.326 1588.41,-208.313 1713,-180 1715.74,-179.377 1718.54,-178.674 1721.36,-177.918"/>
<polygon fill="midnightblue" stroke="midnightblue" points="1358.41,-226.411 1348.72,-230.701 1358.97,-233.388 1358.41,-226.411"/>
</g>
<!-- Node27 -->
<g id="node55" class="node"><title>Node27</title>
<a xlink:href="_manager_8cc.html" target="_top" xlink:title="src/calibration/gui\l/Manager.cc">
<polygon fill="white" stroke="black" points="1477.5,-145 1477.5,-179 1570.5,-179 1570.5,-145 1477.5,-145"/>
<text text-anchor="start" x="1485.5" y="-166" font-family="Helvetica,sans-Serif" font-size="10.00">src/calibration/gui</text>
<text text-anchor="middle" x="1524" y="-153" font-family="Helvetica,sans-Serif" font-size="10.00">/Manager.cc</text>
</a>
</g>
<!-- Node25&#45;&gt;Node27 -->
<g id="edge56" class="edge"><title>Node25&#45;&gt;Node27</title>
<path fill="none" stroke="midnightblue" d="M1358.54,-215.772C1390.89,-205.329 1432.24,-191.96 1469,-180 1471.77,-179.099 1474.62,-178.171 1477.49,-177.233"/>
<polygon fill="midnightblue" stroke="midnightblue" points="1357.25,-212.512 1348.8,-218.915 1359.4,-219.174 1357.25,-212.512"/>
</g>
<!-- Node28 -->
<g id="node57" class="node"><title>Node28</title>
<a xlink:href="_manager_window_8cc.html" target="_top" xlink:title="src/calibration/gui\l/ManagerWindow.cc">
<polygon fill="white" stroke="black" points="1354,-145 1354,-179 1460,-179 1460,-145 1354,-145"/>
<text text-anchor="start" x="1362" y="-166" font-family="Helvetica,sans-Serif" font-size="10.00">src/calibration/gui</text>
<text text-anchor="middle" x="1407" y="-153" font-family="Helvetica,sans-Serif" font-size="10.00">/ManagerWindow.cc</text>
</a>
</g>
<!-- Node25&#45;&gt;Node28 -->
<g id="edge58" class="edge"><title>Node25&#45;&gt;Node28</title>
<path fill="none" stroke="midnightblue" d="M1335.43,-211.074C1350.51,-200.738 1368.01,-188.737 1381.93,-179.19"/>
<polygon fill="midnightblue" stroke="midnightblue" points="1333.15,-208.395 1326.88,-216.937 1337.11,-214.168 1333.15,-208.395"/>
</g>
<!-- Node25&#45;&gt;Node29 -->
<g id="edge68" class="edge"><title>Node25&#45;&gt;Node29</title>
<path fill="none" stroke="midnightblue" d="M1358.88,-224.114C1415.05,-214.068 1503.28,-197.529 1579,-180 1581.7,-179.375 1584.45,-178.717 1587.23,-178.038"/>
<polygon fill="midnightblue" stroke="midnightblue" points="1358,-220.714 1348.77,-225.913 1359.23,-227.606 1358,-220.714"/>
</g>
<!-- Node31&#45;&gt;Node26 -->
<g id="edge82" class="edge"><title>Node31&#45;&gt;Node26</title>
<path fill="none" stroke="midnightblue" d="M1697.92,-354.079C1707.09,-345.446 1716.47,-335.077 1723,-324 1751.17,-276.226 1762.31,-210.13 1766.19,-179.225"/>
<polygon fill="midnightblue" stroke="midnightblue" points="1695.44,-351.61 1690.34,-360.899 1700.12,-356.815 1695.44,-351.61"/>
</g>
<!-- Node32 -->
<g id="node74" class="node"><title>Node32</title>
<a xlink:href="_indicator_8cc.html" target="_top" xlink:title="src/calibration/gui\l/Indicator.cc">
<polygon fill="white" stroke="black" points="1621.5,-289 1621.5,-323 1714.5,-323 1714.5,-289 1621.5,-289"/>
<text text-anchor="start" x="1629.5" y="-310" font-family="Helvetica,sans-Serif" font-size="10.00">src/calibration/gui</text>
<text text-anchor="middle" x="1668" y="-297" font-family="Helvetica,sans-Serif" font-size="10.00">/Indicator.cc</text>
</a>
</g>
<!-- Node31&#45;&gt;Node32 -->
<g id="edge84" class="edge"><title>Node31&#45;&gt;Node32</title>
<path fill="none" stroke="midnightblue" d="M1668,-350.719C1668,-341.572 1668,-331.625 1668,-323.441"/>
<polygon fill="midnightblue" stroke="midnightblue" points="1664.5,-350.937 1668,-360.937 1671.5,-350.937 1664.5,-350.937"/>
</g>
</g>
</svg>
