<?xml version="1.0" encoding="UTF-8" standalone="no"?>
<!DOCTYPE svg PUBLIC "-//W3C//DTD SVG 1.1//EN"
 "http://www.w3.org/Graphics/SVG/1.1/DTD/svg11.dtd">
<!-- Generated by graphviz version 2.26.3 (20100126.1600)
 -->
<!-- Title: src/analysis/input/goat/detail/InputModule.h Pages: 1 -->
<svg width="1058pt" height="260pt"
 viewBox="0.00 0.00 1058.00 260.00" xmlns="http://www.w3.org/2000/svg" xmlns:xlink="http://www.w3.org/1999/xlink">
<g id="graph1" class="graph" transform="scale(1 1) rotate(0) translate(4 256)">
<title>src/analysis/input/goat/detail/InputModule.h</title>
<polygon fill="white" stroke="white" points="-4,5 -4,-256 1055,-256 1055,5 -4,5"/>
<!-- Node1 -->
<g id="node1" class="node"><title>Node1</title>
<polygon fill="#bfbfbf" stroke="black" points="457.5,-217 457.5,-251 586.5,-251 586.5,-217 457.5,-217"/>
<text text-anchor="start" x="465.5" y="-238" font-family="Helvetica,sans-Serif" font-size="10.00">src/analysis/input</text>
<text text-anchor="middle" x="522" y="-225" font-family="Helvetica,sans-Serif" font-size="10.00">/goat/detail/InputModule.h</text>
</g>
<!-- Node2 -->
<g id="node3" class="node"><title>Node2</title>
<a xlink:href="_detector_hit_input_8h.html" target="_top" xlink:title="src/analysis/input\l/goat/detail/DetectorHitInput.h">
<polygon fill="white" stroke="black" points="108,-145 108,-179 256,-179 256,-145 108,-145"/>
<text text-anchor="start" x="116" y="-166" font-family="Helvetica,sans-Serif" font-size="10.00">src/analysis/input</text>
<text text-anchor="middle" x="182" y="-153" font-family="Helvetica,sans-Serif" font-size="10.00">/goat/detail/DetectorHitInput.h</text>
</a>
</g>
<!-- Node1&#45;&gt;Node2 -->
<g id="edge2" class="edge"><title>Node1&#45;&gt;Node2</title>
<path fill="none" stroke="midnightblue" d="M447.264,-218.174C390.53,-206.159 312.89,-189.718 256.271,-177.728"/>
<polygon fill="midnightblue" stroke="midnightblue" points="446.74,-221.64 457.248,-220.288 448.19,-214.792 446.74,-221.64"/>
</g>
<!-- Node4 -->
<g id="node7" class="node"><title>Node4</title>
<a xlink:href="_goat_reader_8h.html" target="_top" xlink:title="src/analysis/input\l/goat/GoatReader.h">
<polygon fill="white" stroke="black" points="320,-73 320,-107 422,-107 422,-73 320,-73"/>
<text text-anchor="start" x="328" y="-94" font-family="Helvetica,sans-Serif" font-size="10.00">src/analysis/input</text>
<text text-anchor="middle" x="371" y="-81" font-family="Helvetica,sans-Serif" font-size="10.00">/goat/GoatReader.h</text>
</a>
</g>
<!-- Node1&#45;&gt;Node4 -->
<g id="edge52" class="edge"><title>Node1&#45;&gt;Node4</title>
<path fill="none" stroke="midnightblue" d="M447.35,-225.435C391.152,-217.271 320.855,-202.792 303,-180 293.133,-167.405 296.043,-158.408 303,-144 310.473,-128.524 324.774,-116.123 338.342,-107.127"/>
<polygon fill="midnightblue" stroke="midnightblue" points="446.916,-228.909 457.306,-226.838 447.892,-221.977 446.916,-228.909"/>
</g>
<!-- Node10 -->
<g id="node19" class="node"><title>Node10</title>
<a xlink:href="_input_module_8cc.html" target="_top" xlink:title="src/analysis/input\l/goat/detail/InputModule.cc">
<polygon fill="white" stroke="black" points="892,-145 892,-179 1026,-179 1026,-145 892,-145"/>
<text text-anchor="start" x="900" y="-166" font-family="Helvetica,sans-Serif" font-size="10.00">src/analysis/input</text>
<text text-anchor="middle" x="959" y="-153" font-family="Helvetica,sans-Serif" font-size="10.00">/goat/detail/InputModule.cc</text>
</a>
</g>
<!-- Node1&#45;&gt;Node10 -->
<g id="edge18" class="edge"><title>Node1&#45;&gt;Node10</title>
<path fill="none" stroke="midnightblue" d="M596.56,-224.709C669.775,-215.149 784.496,-198.997 883,-180 885.929,-179.435 888.916,-178.834 891.929,-178.208"/>
<polygon fill="midnightblue" stroke="midnightblue" points="595.976,-221.256 586.51,-226.014 596.878,-228.197 595.976,-221.256"/>
</g>
<!-- Node11 -->
<g id="node21" class="node"><title>Node11</title>
<a xlink:href="_particle_input_8h.html" target="_top" xlink:title="src/analysis/input\l/goat/detail/ParticleInput.h">
<polygon fill="white" stroke="black" points="743.5,-145 743.5,-179 874.5,-179 874.5,-145 743.5,-145"/>
<text text-anchor="start" x="751.5" y="-166" font-family="Helvetica,sans-Serif" font-size="10.00">src/analysis/input</text>
<text text-anchor="middle" x="809" y="-153" font-family="Helvetica,sans-Serif" font-size="10.00">/goat/detail/ParticleInput.h</text>
</a>
</g>
<!-- Node1&#45;&gt;Node11 -->
<g id="edge20" class="edge"><title>Node1&#45;&gt;Node11</title>
<path fill="none" stroke="midnightblue" d="M596.578,-215.291C642.087,-203.874 699.725,-189.414 743.476,-178.438"/>
<polygon fill="midnightblue" stroke="midnightblue" points="595.614,-211.924 586.766,-217.752 597.317,-218.713 595.614,-211.924"/>
</g>
<!-- Node13 -->
<g id="node27" class="node"><title>Node13</title>
<a xlink:href="_tagger_input_8h.html" target="_top" xlink:title="src/analysis/input\l/goat/detail/TaggerInput.h">
<polygon fill="white" stroke="black" points="312,-145 312,-179 440,-179 440,-145 312,-145"/>
<text text-anchor="start" x="320" y="-166" font-family="Helvetica,sans-Serif" font-size="10.00">src/analysis/input</text>
<text text-anchor="middle" x="376" y="-153" font-family="Helvetica,sans-Serif" font-size="10.00">/goat/detail/TaggerInput.h</text>
</a>
</g>
<!-- Node1&#45;&gt;Node13 -->
<g id="edge28" class="edge"><title>Node1&#45;&gt;Node13</title>
<path fill="none" stroke="midnightblue" d="M478.394,-212.495C456.72,-201.807 430.896,-189.072 410.604,-179.065"/>
<polygon fill="midnightblue" stroke="midnightblue" points="476.883,-215.653 487.4,-216.937 479.979,-209.375 476.883,-215.653"/>
</g>
<!-- Node15 -->
<g id="node33" class="node"><title>Node15</title>
<a xlink:href="_track_input_8h.html" target="_top" xlink:title="src/analysis/input\l/goat/detail/TrackInput.h">
<polygon fill="white" stroke="black" points="604,-145 604,-179 726,-179 726,-145 604,-145"/>
<text text-anchor="start" x="612" y="-166" font-family="Helvetica,sans-Serif" font-size="10.00">src/analysis/input</text>
<text text-anchor="middle" x="665" y="-153" font-family="Helvetica,sans-Serif" font-size="10.00">/goat/detail/TrackInput.h</text>
</a>
</g>
<!-- Node1&#45;&gt;Node15 -->
<g id="edge36" class="edge"><title>Node1&#45;&gt;Node15</title>
<path fill="none" stroke="midnightblue" d="M564.961,-212.369C586.049,-201.751 611.1,-189.138 630.859,-179.19"/>
<polygon fill="midnightblue" stroke="midnightblue" points="563.247,-209.314 555.889,-216.937 566.395,-215.566 563.247,-209.314"/>
</g>
<!-- Node17 -->
<g id="node39" class="node"><title>Node17</title>
<a xlink:href="_trigger_input_8h.html" target="_top" xlink:title="src/analysis/input\l/goat/detail/TriggerInput.h">
<polygon fill="white" stroke="black" points="458,-145 458,-179 586,-179 586,-145 458,-145"/>
<text text-anchor="start" x="466" y="-166" font-family="Helvetica,sans-Serif" font-size="10.00">src/analysis/input</text>
<text text-anchor="middle" x="522" y="-153" font-family="Helvetica,sans-Serif" font-size="10.00">/goat/detail/TriggerInput.h</text>
</a>
</g>
<!-- Node1&#45;&gt;Node17 -->
<g id="edge44" class="edge"><title>Node1&#45;&gt;Node17</title>
<path fill="none" stroke="midnightblue" d="M522,-206.719C522,-197.572 522,-187.625 522,-179.441"/>
<polygon fill="midnightblue" stroke="midnightblue" points="518.5,-206.937 522,-216.937 525.5,-206.937 518.5,-206.937"/>
</g>
<!-- Node3 -->
<g id="node5" class="node"><title>Node3</title>
<a xlink:href="_detector_hit_input_8cc.html" target="_top" xlink:title="src/analysis/input\l/goat/detail/DetectorHitInput.cc">
<polygon fill="white" stroke="black" points="-0.5,-73 -0.5,-107 152.5,-107 152.5,-73 -0.5,-73"/>
<text text-anchor="start" x="7.5" y="-94" font-family="Helvetica,sans-Serif" font-size="10.00">src/analysis/input</text>
<text text-anchor="middle" x="76" y="-81" font-family="Helvetica,sans-Serif" font-size="10.00">/goat/detail/DetectorHitInput.cc</text>
</a>
</g>
<!-- Node2&#45;&gt;Node3 -->
<g id="edge4" class="edge"><title>Node2&#45;&gt;Node3</title>
<path fill="none" stroke="midnightblue" d="M148.248,-139.074C133.03,-128.738 115.362,-116.737 101.308,-107.19"/>
<polygon fill="midnightblue" stroke="midnightblue" points="146.641,-142.213 156.879,-144.937 150.574,-136.423 146.641,-142.213"/>
</g>
<!-- Node2&#45;&gt;Node4 -->
<g id="edge6" class="edge"><title>Node2&#45;&gt;Node4</title>
<path fill="none" stroke="midnightblue" d="M236.207,-141.35C264.711,-130.491 299.233,-117.34 326.204,-107.065"/>
<polygon fill="midnightblue" stroke="midnightblue" points="234.889,-138.106 226.79,-144.937 237.381,-144.648 234.889,-138.106"/>
</g>
<!-- Node9 -->
<g id="node17" class="node"><title>Node9</title>
<a xlink:href="_test_input_module_8cc.html" target="_top" xlink:title="test/analysis/TestInputModule.cc">
<polygon fill="white" stroke="black" points="589.5,-79.5 589.5,-100.5 750.5,-100.5 750.5,-79.5 589.5,-79.5"/>
<text text-anchor="middle" x="670" y="-87.5" font-family="Helvetica,sans-Serif" font-size="10.00">test/analysis/TestInputModule.cc</text>
</a>
</g>
<!-- Node2&#45;&gt;Node9 -->
<g id="edge16" class="edge"><title>Node2&#45;&gt;Node9</title>
<path fill="none" stroke="midnightblue" d="M266.43,-149.232C278.693,-147.438 291.168,-145.646 303,-144 426.399,-126.833 458.088,-128.361 581,-108 594.064,-105.836 608.137,-103.154 621.15,-100.527"/>
<polygon fill="midnightblue" stroke="midnightblue" points="265.582,-145.819 256.197,-150.736 266.6,-152.744 265.582,-145.819"/>
</g>
<!-- Node5 -->
<g id="node9" class="node"><title>Node5</title>
<a xlink:href="_ant_8cc.html" target="_top" xlink:title="progs/Ant.cc">
<polygon fill="white" stroke="black" points="152,-7.5 152,-28.5 224,-28.5 224,-7.5 152,-7.5"/>
<text text-anchor="middle" x="188" y="-15.5" font-family="Helvetica,sans-Serif" font-size="10.00">progs/Ant.cc</text>
</a>
</g>
<!-- Node4&#45;&gt;Node5 -->
<g id="edge8" class="edge"><title>Node4&#45;&gt;Node5</title>
<path fill="none" stroke="midnightblue" d="M317.622,-69.2206C292.009,-59.2222 260.895,-47.0365 233,-36 226.897,-33.5854 220.336,-30.9712 214.162,-28.5032"/>
<polygon fill="midnightblue" stroke="midnightblue" points="316.562,-72.5642 327.151,-72.9385 319.107,-66.043 316.562,-72.5642"/>
</g>
<!-- Node6 -->
<g id="node11" class="node"><title>Node6</title>
<a xlink:href="_goat_reader_8cc.html" target="_top" xlink:title="src/analysis/input\l/goat/GoatReader.cc">
<polygon fill="white" stroke="black" points="241.5,-1 241.5,-35 348.5,-35 348.5,-1 241.5,-1"/>
<text text-anchor="start" x="249.5" y="-22" font-family="Helvetica,sans-Serif" font-size="10.00">src/analysis/input</text>
<text text-anchor="middle" x="295" y="-9" font-family="Helvetica,sans-Serif" font-size="10.00">/goat/GoatReader.cc</text>
</a>
</g>
<!-- Node4&#45;&gt;Node6 -->
<g id="edge10" class="edge"><title>Node4&#45;&gt;Node6</title>
<path fill="none" stroke="midnightblue" d="M345.57,-65.9083C334.946,-55.8438 322.845,-44.3799 313.145,-35.19"/>
<polygon fill="midnightblue" stroke="midnightblue" points="343.322,-68.6004 352.989,-72.937 348.137,-63.5187 343.322,-68.6004"/>
</g>
<!-- Node7 -->
<g id="node13" class="node"><title>Node7</title>
<a xlink:href="_test_goat_reader_8cc.html" target="_top" xlink:title="test/analysis/TestGoatReader.cc">
<polygon fill="white" stroke="black" points="365.5,-7.5 365.5,-28.5 526.5,-28.5 526.5,-7.5 365.5,-7.5"/>
<text text-anchor="middle" x="446" y="-15.5" font-family="Helvetica,sans-Serif" font-size="10.00">test/analysis/TestGoatReader.cc</text>
</a>
</g>
<!-- Node4&#45;&gt;Node7 -->
<g id="edge12" class="edge"><title>Node4&#45;&gt;Node7</title>
<path fill="none" stroke="midnightblue" d="M396.138,-65.8677C409.18,-53.3471 424.469,-38.67 434.645,-28.901"/>
<polygon fill="midnightblue" stroke="midnightblue" points="393.564,-63.4868 388.774,-72.937 398.412,-68.5365 393.564,-63.4868"/>
</g>
<!-- Node8 -->
<g id="node15" class="node"><title>Node8</title>
<a xlink:href="_test_physics_manager_8cc.html" target="_top" xlink:title="test/analysis/TestPhysics\lManager.cc">
<polygon fill="white" stroke="black" points="544,-1 544,-35 674,-35 674,-1 544,-1"/>
<text text-anchor="start" x="552" y="-22" font-family="Helvetica,sans-Serif" font-size="10.00">test/analysis/TestPhysics</text>
<text text-anchor="middle" x="609" y="-9" font-family="Helvetica,sans-Serif" font-size="10.00">Manager.cc</text>
</a>
</g>
<!-- Node4&#45;&gt;Node8 -->
<g id="edge14" class="edge"><title>Node4&#45;&gt;Node8</title>
<path fill="none" stroke="midnightblue" d="M431.774,-71.6147C468.974,-60.3608 516.249,-46.0592 552.615,-35.0576"/>
<polygon fill="midnightblue" stroke="midnightblue" points="430.615,-68.3085 422.057,-74.5542 432.642,-75.0086 430.615,-68.3085"/>
</g>
<!-- Node11&#45;&gt;Node4 -->
<g id="edge24" class="edge"><title>Node11&#45;&gt;Node4</title>
<path fill="none" stroke="midnightblue" d="M733.089,-143.778C599.242,-120.622 560.963,-134.977 431,-108 428.125,-107.403 425.189,-106.732 422.237,-106.009"/>
<polygon fill="midnightblue" stroke="midnightblue" points="732.863,-147.292 743.32,-145.588 734.083,-140.399 732.863,-147.292"/>
</g>
<!-- Node11&#45;&gt;Node9 -->
<g id="edge26" class="edge"><title>Node11&#45;&gt;Node9</title>
<path fill="none" stroke="midnightblue" d="M767.041,-140.266C741.769,-127.175 710.701,-111.082 690.634,-100.688"/>
<polygon fill="midnightblue" stroke="midnightblue" points="765.57,-143.445 776.059,-144.937 768.789,-137.23 765.57,-143.445"/>
</g>
<!-- Node12 -->
<g id="node23" class="node"><title>Node12</title>
<a xlink:href="_particle_input_8cc.html" target="_top" xlink:title="src/analysis/input\l/goat/detail/ParticleInput.cc">
<polygon fill="white" stroke="black" points="914,-73 914,-107 1050,-107 1050,-73 914,-73"/>
<text text-anchor="start" x="922" y="-94" font-family="Helvetica,sans-Serif" font-size="10.00">src/analysis/input</text>
<text text-anchor="middle" x="982" y="-81" font-family="Helvetica,sans-Serif" font-size="10.00">/goat/detail/ParticleInput.cc</text>
</a>
</g>
<!-- Node11&#45;&gt;Node12 -->
<g id="edge22" class="edge"><title>Node11&#45;&gt;Node12</title>
<path fill="none" stroke="midnightblue" d="M859.3,-141.066C885.258,-130.263 916.523,-117.251 940.996,-107.065"/>
<polygon fill="midnightblue" stroke="midnightblue" points="857.886,-137.863 849.999,-144.937 860.576,-144.326 857.886,-137.863"/>
</g>
<!-- Node13&#45;&gt;Node4 -->
<g id="edge32" class="edge"><title>Node13&#45;&gt;Node4</title>
<path fill="none" stroke="midnightblue" d="M374.106,-134.719C373.47,-125.572 372.78,-115.625 372.211,-107.441"/>
<polygon fill="midnightblue" stroke="midnightblue" points="370.631,-135.204 374.815,-144.937 377.614,-134.719 370.631,-135.204"/>
</g>
<!-- Node13&#45;&gt;Node9 -->
<g id="edge34" class="edge"><title>Node13&#45;&gt;Node9</title>
<path fill="none" stroke="midnightblue" d="M450.032,-143.749C517.4,-127.22 584.334,-110.882 626.799,-100.527"/>
<polygon fill="midnightblue" stroke="midnightblue" points="448.97,-140.406 440.092,-146.188 450.638,-147.204 448.97,-140.406"/>
</g>
<!-- Node14 -->
<g id="node29" class="node"><title>Node14</title>
<a xlink:href="_tagger_input_8cc.html" target="_top" xlink:title="src/analysis/input\l/goat/detail/TaggerInput.cc">
<polygon fill="white" stroke="black" points="169.5,-73 169.5,-107 302.5,-107 302.5,-73 169.5,-73"/>
<text text-anchor="start" x="177.5" y="-94" font-family="Helvetica,sans-Serif" font-size="10.00">src/analysis/input</text>
<text text-anchor="middle" x="236" y="-81" font-family="Helvetica,sans-Serif" font-size="10.00">/goat/detail/TaggerInput.cc</text>
</a>
</g>
<!-- Node13&#45;&gt;Node14 -->
<g id="edge30" class="edge"><title>Node13&#45;&gt;Node14</title>
<path fill="none" stroke="midnightblue" d="M333.662,-140.226C313.075,-129.638 288.682,-117.094 269.425,-107.19"/>
<polygon fill="midnightblue" stroke="midnightblue" points="332.328,-143.476 342.822,-144.937 335.53,-137.251 332.328,-143.476"/>
</g>
<!-- Node15&#45;&gt;Node4 -->
<g id="edge40" class="edge"><title>Node15&#45;&gt;Node4</title>
<path fill="none" stroke="midnightblue" d="M593.774,-143.761C520.662,-126.673 500.13,-125.93 431,-108 428.158,-107.263 425.248,-106.481 422.315,-105.672"/>
<polygon fill="midnightblue" stroke="midnightblue" points="593.412,-147.272 603.948,-146.165 595.021,-140.459 593.412,-147.272"/>
</g>
<!-- Node15&#45;&gt;Node9 -->
<g id="edge42" class="edge"><title>Node15&#45;&gt;Node9</title>
<path fill="none" stroke="midnightblue" d="M666.898,-134.667C667.714,-122.913 668.622,-109.848 669.243,-100.901"/>
<polygon fill="midnightblue" stroke="midnightblue" points="663.386,-134.719 666.185,-144.937 670.369,-135.204 663.386,-134.719"/>
</g>
<!-- Node16 -->
<g id="node35" class="node"><title>Node16</title>
<a xlink:href="_track_input_8cc.html" target="_top" xlink:title="src/analysis/input\l/goat/detail/TrackInput.cc">
<polygon fill="white" stroke="black" points="768,-73 768,-107 896,-107 896,-73 768,-73"/>
<text text-anchor="start" x="776" y="-94" font-family="Helvetica,sans-Serif" font-size="10.00">src/analysis/input</text>
<text text-anchor="middle" x="832" y="-81" font-family="Helvetica,sans-Serif" font-size="10.00">/goat/detail/TrackInput.cc</text>
</a>
</g>
<!-- Node15&#45;&gt;Node16 -->
<g id="edge38" class="edge"><title>Node15&#45;&gt;Node16</title>
<path fill="none" stroke="midnightblue" d="M713.885,-140.924C738.878,-130.149 768.898,-117.206 792.418,-107.065"/>
<polygon fill="midnightblue" stroke="midnightblue" points="712.374,-137.764 704.577,-144.937 715.145,-144.192 712.374,-137.764"/>
</g>
<!-- Node17&#45;&gt;Node4 -->
<g id="edge48" class="edge"><title>Node17&#45;&gt;Node4</title>
<path fill="none" stroke="midnightblue" d="M476.9,-140.495C454.484,-129.807 427.776,-117.072 406.789,-107.065"/>
<polygon fill="midnightblue" stroke="midnightblue" points="475.682,-143.792 486.215,-144.937 478.695,-137.474 475.682,-143.792"/>
</g>
<!-- Node17&#45;&gt;Node9 -->
<g id="edge50" class="edge"><title>Node17&#45;&gt;Node9</title>
<path fill="none" stroke="midnightblue" d="M566.322,-140.438C593.293,-127.317 626.57,-111.128 648.03,-100.688"/>
<polygon fill="midnightblue" stroke="midnightblue" points="564.535,-137.415 557.074,-144.937 567.597,-143.71 564.535,-137.415"/>
</g>
<!-- Node18 -->
<g id="node41" class="node"><title>Node18</title>
<a xlink:href="_trigger_input_8cc.html" target="_top" xlink:title="src/analysis/input\l/goat/detail/TriggerInput.cc">
<polygon fill="white" stroke="black" points="439.5,-73 439.5,-107 572.5,-107 572.5,-73 439.5,-73"/>
<text text-anchor="start" x="447.5" y="-94" font-family="Helvetica,sans-Serif" font-size="10.00">src/analysis/input</text>
<text text-anchor="middle" x="506" y="-81" font-family="Helvetica,sans-Serif" font-size="10.00">/goat/detail/TriggerInput.cc</text>
</a>
</g>
<!-- Node17&#45;&gt;Node18 -->
<g id="edge46" class="edge"><title>Node17&#45;&gt;Node18</title>
<path fill="none" stroke="midnightblue" d="M516.004,-135.017C513.953,-125.788 511.714,-115.714 509.876,-107.441"/>
<polygon fill="midnightblue" stroke="midnightblue" points="512.622,-135.934 518.208,-144.937 519.455,-134.416 512.622,-135.934"/>
</g>
</g>
</svg>
