<?xml version="1.0" encoding="UTF-8" standalone="no"?>
<!DOCTYPE svg PUBLIC "-//W3C//DTD SVG 1.1//EN"
 "http://www.w3.org/Graphics/SVG/1.1/DTD/svg11.dtd">
<!-- Generated by graphviz version 2.26.3 (20100126.1600)
 -->
<!-- Title: src/calibration/fitfunctions/KnobsTF1.cc Pages: 1 -->
<svg width="215pt" height="232pt"
 viewBox="0.00 0.00 215.00 232.00" xmlns="http://www.w3.org/2000/svg" xmlns:xlink="http://www.w3.org/1999/xlink">
<g id="graph1" class="graph" transform="scale(1 1) rotate(0) translate(4 228)">
<title>src/calibration/fitfunctions/KnobsTF1.cc</title>
<polygon fill="white" stroke="white" points="-4,5 -4,-228 212,-228 212,5 -4,5"/>
<!-- Node1 -->
<g id="node1" class="node"><title>Node1</title>
<polygon fill="#bfbfbf" stroke="black" points="79,-189 79,-223 207,-223 207,-189 79,-189"/>
<text text-anchor="start" x="87" y="-210" font-family="Helvetica,sans-Serif" font-size="10.00">src/calibration/fitfunctions</text>
<text text-anchor="middle" x="143" y="-197" font-family="Helvetica,sans-Serif" font-size="10.00">/KnobsTF1.cc</text>
</g>
<!-- Node2 -->
<g id="node3" class="node"><title>Node2</title>
<a xlink:href="_knobs_t_f1_8h.html" target="_top" xlink:title="KnobsTF1.h">
<polygon fill="white" stroke="black" points="71,-130.5 71,-151.5 141,-151.5 141,-130.5 71,-130.5"/>
<text text-anchor="middle" x="106" y="-138.5" font-family="Helvetica,sans-Serif" font-size="10.00">KnobsTF1.h</text>
</a>
</g>
<!-- Node1&#45;&gt;Node2 -->
<g id="edge2" class="edge"><title>Node1&#45;&gt;Node2</title>
<path fill="none" stroke="midnightblue" d="M133.279,-188.922C128.373,-180.304 122.395,-169.802 117.287,-160.828"/>
<polygon fill="midnightblue" stroke="midnightblue" points="120.166,-158.811 112.177,-151.852 114.083,-162.274 120.166,-158.811"/>
</g>
<!-- Node6 -->
<g id="node11" class="node"><title>Node6</title>
<polygon fill="white" stroke="#bfbfbf" points="159,-130.5 159,-151.5 201,-151.5 201,-130.5 159,-130.5"/>
<text text-anchor="middle" x="180" y="-138.5" font-family="Helvetica,sans-Serif" font-size="10.00">TF1.h</text>
</g>
<!-- Node1&#45;&gt;Node6 -->
<g id="edge10" class="edge"><title>Node1&#45;&gt;Node6</title>
<path fill="none" stroke="midnightblue" d="M152.721,-188.922C157.627,-180.304 163.605,-169.802 168.713,-160.828"/>
<polygon fill="midnightblue" stroke="midnightblue" points="171.917,-162.274 173.823,-151.852 165.834,-158.811 171.917,-162.274"/>
</g>
<!-- Node3 -->
<g id="node5" class="node"><title>Node3</title>
<a xlink:href="_indicator__traits_8h.html" target="_top" xlink:title="calibration/gui/Indicator\l_traits.h">
<polygon fill="white" stroke="black" points="-0.5,-59 -0.5,-93 116.5,-93 116.5,-59 -0.5,-59"/>
<text text-anchor="start" x="7.5" y="-80" font-family="Helvetica,sans-Serif" font-size="10.00">calibration/gui/Indicator</text>
<text text-anchor="middle" x="58" y="-67" font-family="Helvetica,sans-Serif" font-size="10.00">_traits.h</text>
</a>
</g>
<!-- Node2&#45;&gt;Node3 -->
<g id="edge4" class="edge"><title>Node2&#45;&gt;Node3</title>
<path fill="none" stroke="midnightblue" d="M98.0738,-130.267C92.249,-122.379 84.0864,-111.325 76.6469,-101.251"/>
<polygon fill="midnightblue" stroke="midnightblue" points="79.391,-99.075 70.635,-93.1099 73.7599,-103.233 79.391,-99.075"/>
</g>
<!-- Node5 -->
<g id="node9" class="node"><title>Node5</title>
<polygon fill="white" stroke="#bfbfbf" points="133.5,-65.5 133.5,-86.5 174.5,-86.5 174.5,-65.5 133.5,-65.5"/>
<text text-anchor="middle" x="154" y="-73.5" font-family="Helvetica,sans-Serif" font-size="10.00">string</text>
</g>
<!-- Node2&#45;&gt;Node5 -->
<g id="edge8" class="edge"><title>Node2&#45;&gt;Node5</title>
<path fill="none" stroke="midnightblue" d="M113.926,-130.267C121.056,-120.612 131.688,-106.215 140.209,-94.675"/>
<polygon fill="midnightblue" stroke="midnightblue" points="143.096,-96.6572 146.221,-86.5337 137.465,-92.4989 143.096,-96.6572"/>
</g>
<!-- Node4 -->
<g id="node7" class="node"><title>Node4</title>
<polygon fill="white" stroke="#bfbfbf" points="30,-0.5 30,-21.5 86,-21.5 86,-0.5 30,-0.5"/>
<text text-anchor="middle" x="58" y="-8.5" font-family="Helvetica,sans-Serif" font-size="10.00">Rtypes.h</text>
</g>
<!-- Node3&#45;&gt;Node4 -->
<g id="edge6" class="edge"><title>Node3&#45;&gt;Node4</title>
<path fill="none" stroke="midnightblue" d="M58,-58.922C58,-50.6704 58,-40.6922 58,-31.9818"/>
<polygon fill="midnightblue" stroke="midnightblue" points="61.5001,-31.8521 58,-21.8521 54.5001,-31.8521 61.5001,-31.8521"/>
</g>
</g>
</svg>
