<?xml version="1.0" encoding="UTF-8" standalone="no"?>
<!DOCTYPE svg PUBLIC "-//W3C//DTD SVG 1.1//EN"
 "http://www.w3.org/Graphics/SVG/1.1/DTD/svg11.dtd">
<!-- Generated by graphviz version 2.26.3 (20100126.1600)
 -->
<!-- Title: src/calibration/fitfunctions/KnobsTF1.h Pages: 1 -->
<svg width="1822pt" height="404pt"
 viewBox="0.00 0.00 1822.00 404.00" xmlns="http://www.w3.org/2000/svg" xmlns:xlink="http://www.w3.org/1999/xlink">
<g id="graph1" class="graph" transform="scale(1 1) rotate(0) translate(4 400)">
<title>src/calibration/fitfunctions/KnobsTF1.h</title>
<polygon fill="white" stroke="white" points="-4,5 -4,-400 1819,-400 1819,5 -4,5"/>
<!-- Node1 -->
<g id="node1" class="node"><title>Node1</title>
<polygon fill="#bfbfbf" stroke="black" points="809,-361 809,-395 937,-395 937,-361 809,-361"/>
<text text-anchor="start" x="817" y="-382" font-family="Helvetica,sans-Serif" font-size="10.00">src/calibration/fitfunctions</text>
<text text-anchor="middle" x="873" y="-369" font-family="Helvetica,sans-Serif" font-size="10.00">/KnobsTF1.h</text>
</g>
<!-- Node2 -->
<g id="node3" class="node"><title>Node2</title>
<a xlink:href="_fit_function_8h.html" target="_top" xlink:title="src/calibration/fitfunctions\l/FitFunction.h">
<polygon fill="white" stroke="black" points="736,-289 736,-323 864,-323 864,-289 736,-289"/>
<text text-anchor="start" x="744" y="-310" font-family="Helvetica,sans-Serif" font-size="10.00">src/calibration/fitfunctions</text>
<text text-anchor="middle" x="800" y="-297" font-family="Helvetica,sans-Serif" font-size="10.00">/FitFunction.h</text>
</a>
</g>
<!-- Node1&#45;&gt;Node2 -->
<g id="edge2" class="edge"><title>Node1&#45;&gt;Node2</title>
<path fill="none" stroke="midnightblue" d="M848.574,-353.908C838.369,-343.844 826.746,-332.38 817.429,-323.19"/>
<polygon fill="midnightblue" stroke="midnightblue" points="846.123,-356.407 855.7,-360.937 851.038,-351.423 846.123,-356.407"/>
</g>
<!-- Node29 -->
<g id="node65" class="node"><title>Node29</title>
<a xlink:href="_knobs_t_f1_8cc.html" target="_top" xlink:title="src/calibration/fitfunctions\l/KnobsTF1.cc">
<polygon fill="white" stroke="black" points="882,-289 882,-323 1010,-323 1010,-289 882,-289"/>
<text text-anchor="start" x="890" y="-310" font-family="Helvetica,sans-Serif" font-size="10.00">src/calibration/fitfunctions</text>
<text text-anchor="middle" x="946" y="-297" font-family="Helvetica,sans-Serif" font-size="10.00">/KnobsTF1.cc</text>
</a>
</g>
<!-- Node1&#45;&gt;Node29 -->
<g id="edge72" class="edge"><title>Node1&#45;&gt;Node29</title>
<path fill="none" stroke="midnightblue" d="M897.426,-353.908C907.631,-343.844 919.254,-332.38 928.571,-323.19"/>
<polygon fill="midnightblue" stroke="midnightblue" points="894.962,-351.423 890.3,-360.937 899.877,-356.407 894.962,-351.423"/>
</g>
<!-- Node3 -->
<g id="node5" class="node"><title>Node3</title>
<a xlink:href="_fit_function_8cc.html" target="_top" xlink:title="src/calibration/fitfunctions\l/FitFunction.cc">
<polygon fill="white" stroke="black" points="225,-217 225,-251 353,-251 353,-217 225,-217"/>
<text text-anchor="start" x="233" y="-238" font-family="Helvetica,sans-Serif" font-size="10.00">src/calibration/fitfunctions</text>
<text text-anchor="middle" x="289" y="-225" font-family="Helvetica,sans-Serif" font-size="10.00">/FitFunction.cc</text>
</a>
</g>
<!-- Node2&#45;&gt;Node3 -->
<g id="edge4" class="edge"><title>Node2&#45;&gt;Node3</title>
<path fill="none" stroke="midnightblue" d="M725.711,-299.562C638.254,-291.355 488.839,-275.371 362,-252 359.047,-251.456 356.036,-250.864 353.001,-250.238"/>
<polygon fill="midnightblue" stroke="midnightblue" points="725.522,-303.059 735.803,-300.5 726.17,-296.089 725.522,-303.059"/>
</g>
<!-- Node4 -->
<g id="node7" class="node"><title>Node4</title>
<a xlink:href="_fit_gaus_8h.html" target="_top" xlink:title="src/calibration/fitfunctions\l/FitGaus.h">
<polygon fill="white" stroke="black" points="371,-217 371,-251 499,-251 499,-217 371,-217"/>
<text text-anchor="start" x="379" y="-238" font-family="Helvetica,sans-Serif" font-size="10.00">src/calibration/fitfunctions</text>
<text text-anchor="middle" x="435" y="-225" font-family="Helvetica,sans-Serif" font-size="10.00">/FitGaus.h</text>
</a>
</g>
<!-- Node2&#45;&gt;Node4 -->
<g id="edge6" class="edge"><title>Node2&#45;&gt;Node4</title>
<path fill="none" stroke="midnightblue" d="M725.984,-293.553C666.814,-283.304 581.843,-267.917 508,-252 505.065,-251.367 502.068,-250.703 499.045,-250.018"/>
<polygon fill="midnightblue" stroke="midnightblue" points="725.537,-297.027 735.987,-295.279 726.728,-290.129 725.537,-297.027"/>
</g>
<!-- Node15 -->
<g id="node29" class="node"><title>Node15</title>
<a xlink:href="_fit_gaus_pol0_8h.html" target="_top" xlink:title="src/calibration/fitfunctions\l/FitGausPol0.h">
<polygon fill="white" stroke="black" points="517,-217 517,-251 645,-251 645,-217 517,-217"/>
<text text-anchor="start" x="525" y="-238" font-family="Helvetica,sans-Serif" font-size="10.00">src/calibration/fitfunctions</text>
<text text-anchor="middle" x="581" y="-225" font-family="Helvetica,sans-Serif" font-size="10.00">/FitGausPol0.h</text>
</a>
</g>
<!-- Node2&#45;&gt;Node15 -->
<g id="edge28" class="edge"><title>Node2&#45;&gt;Node15</title>
<path fill="none" stroke="midnightblue" d="M738.478,-285.774C705.206,-274.835 664.566,-261.474 632.906,-251.065"/>
<polygon fill="midnightblue" stroke="midnightblue" points="737.507,-289.139 748.1,-288.937 739.693,-282.489 737.507,-289.139"/>
</g>
<!-- Node18 -->
<g id="node36" class="node"><title>Node18</title>
<a xlink:href="_fit_gaus_pol3_8h.html" target="_top" xlink:title="src/calibration/fitfunctions\l/FitGausPol3.h">
<polygon fill="white" stroke="black" points="663,-217 663,-251 791,-251 791,-217 663,-217"/>
<text text-anchor="start" x="671" y="-238" font-family="Helvetica,sans-Serif" font-size="10.00">src/calibration/fitfunctions</text>
<text text-anchor="middle" x="727" y="-225" font-family="Helvetica,sans-Serif" font-size="10.00">/FitGausPol3.h</text>
</a>
</g>
<!-- Node2&#45;&gt;Node18 -->
<g id="edge36" class="edge"><title>Node2&#45;&gt;Node18</title>
<path fill="none" stroke="midnightblue" d="M775.574,-281.908C765.369,-271.844 753.746,-260.38 744.429,-251.19"/>
<polygon fill="midnightblue" stroke="midnightblue" points="773.123,-284.407 782.7,-288.937 778.038,-279.423 773.123,-284.407"/>
</g>
<!-- Node21 -->
<g id="node43" class="node"><title>Node21</title>
<a xlink:href="_fit_timewalk_8h.html" target="_top" xlink:title="src/calibration/fitfunctions\l/FitTimewalk.h">
<polygon fill="white" stroke="black" points="809,-217 809,-251 937,-251 937,-217 809,-217"/>
<text text-anchor="start" x="817" y="-238" font-family="Helvetica,sans-Serif" font-size="10.00">src/calibration/fitfunctions</text>
<text text-anchor="middle" x="873" y="-225" font-family="Helvetica,sans-Serif" font-size="10.00">/FitTimewalk.h</text>
</a>
</g>
<!-- Node2&#45;&gt;Node21 -->
<g id="edge44" class="edge"><title>Node2&#45;&gt;Node21</title>
<path fill="none" stroke="midnightblue" d="M824.426,-281.908C834.631,-271.844 846.254,-260.38 855.571,-251.19"/>
<polygon fill="midnightblue" stroke="midnightblue" points="821.962,-279.423 817.3,-288.937 826.877,-284.407 821.962,-279.423"/>
</g>
<!-- Node24 -->
<g id="node49" class="node"><title>Node24</title>
<a xlink:href="_cal_canvas_8h.html" target="_top" xlink:title="src/calibration/gui\l/CalCanvas.h">
<polygon fill="white" stroke="black" points="1231.5,-217 1231.5,-251 1324.5,-251 1324.5,-217 1231.5,-217"/>
<text text-anchor="start" x="1239.5" y="-238" font-family="Helvetica,sans-Serif" font-size="10.00">src/calibration/gui</text>
<text text-anchor="middle" x="1278" y="-225" font-family="Helvetica,sans-Serif" font-size="10.00">/CalCanvas.h</text>
</a>
</g>
<!-- Node2&#45;&gt;Node24 -->
<g id="edge50" class="edge"><title>Node2&#45;&gt;Node24</title>
<path fill="none" stroke="midnightblue" d="M874.124,-287.896C1009.23,-262.777 1157.45,-246.113 1231.27,-238.554"/>
<polygon fill="midnightblue" stroke="midnightblue" points="873.189,-284.511 864.007,-289.798 874.482,-291.39 873.189,-284.511"/>
</g>
<!-- Node25 -->
<g id="node51" class="node"><title>Node25</title>
<a xlink:href="_cal_canvas_8cc.html" target="_top" xlink:title="src/calibration/gui\l/CalCanvas.cc">
<polygon fill="white" stroke="black" points="1587.5,-145 1587.5,-179 1680.5,-179 1680.5,-145 1587.5,-145"/>
<text text-anchor="start" x="1595.5" y="-166" font-family="Helvetica,sans-Serif" font-size="10.00">src/calibration/gui</text>
<text text-anchor="middle" x="1634" y="-153" font-family="Helvetica,sans-Serif" font-size="10.00">/CalCanvas.cc</text>
</a>
</g>
<!-- Node2&#45;&gt;Node25 -->
<g id="edge68" class="edge"><title>Node2&#45;&gt;Node25</title>
<path fill="none" stroke="midnightblue" d="M874.453,-287.922C1077.29,-256.41 1134.55,-288.403 1333,-252 1425.54,-235.025 1530.04,-200.062 1588.36,-179.061"/>
<polygon fill="midnightblue" stroke="midnightblue" points="873.697,-284.498 864.369,-289.522 874.794,-291.412 873.697,-284.498"/>
</g>
<!-- Node28 -->
<g id="node61" class="node"><title>Node28</title>
<a xlink:href="_time_8cc.html" target="_top" xlink:title="src/calibration/modules\l/Time.cc">
<polygon fill="white" stroke="black" points="1697.5,-145 1697.5,-179 1814.5,-179 1814.5,-145 1697.5,-145"/>
<text text-anchor="start" x="1705.5" y="-166" font-family="Helvetica,sans-Serif" font-size="10.00">src/calibration/modules</text>
<text text-anchor="middle" x="1756" y="-153" font-family="Helvetica,sans-Serif" font-size="10.00">/Time.cc</text>
</a>
</g>
<!-- Node2&#45;&gt;Node28 -->
<g id="edge70" class="edge"><title>Node2&#45;&gt;Node28</title>
<path fill="none" stroke="midnightblue" d="M874.436,-287.939C1114.26,-251.94 1181.15,-290.648 1417,-252 1520.66,-235.014 1638.54,-200.055 1704.41,-179.057"/>
<polygon fill="midnightblue" stroke="midnightblue" points="873.718,-284.508 864.362,-289.479 874.777,-291.428 873.718,-284.508"/>
</g>
<!-- Node5 -->
<g id="node9" class="node"><title>Node5</title>
<a xlink:href="_fit_gaus_8cc.html" target="_top" xlink:title="src/calibration/fitfunctions\l/FitGaus.cc">
<polygon fill="white" stroke="black" points="110,-145 110,-179 238,-179 238,-145 110,-145"/>
<text text-anchor="start" x="118" y="-166" font-family="Helvetica,sans-Serif" font-size="10.00">src/calibration/fitfunctions</text>
<text text-anchor="middle" x="174" y="-153" font-family="Helvetica,sans-Serif" font-size="10.00">/FitGaus.cc</text>
</a>
</g>
<!-- Node4&#45;&gt;Node5 -->
<g id="edge8" class="edge"><title>Node4&#45;&gt;Node5</title>
<path fill="none" stroke="midnightblue" d="M363.46,-214.265C323.483,-203.237 274.16,-189.63 235.861,-179.065"/>
<polygon fill="midnightblue" stroke="midnightblue" points="362.576,-217.652 373.147,-216.937 364.437,-210.904 362.576,-217.652"/>
</g>
<!-- Node6 -->
<g id="node11" class="node"><title>Node6</title>
<a xlink:href="_p_i_d___phi_angle_8cc.html" target="_top" xlink:title="src/calibration/modules\l/PID_PhiAngle.cc">
<polygon fill="white" stroke="black" points="379.5,-145 379.5,-179 496.5,-179 496.5,-145 379.5,-145"/>
<text text-anchor="start" x="387.5" y="-166" font-family="Helvetica,sans-Serif" font-size="10.00">src/calibration/modules</text>
<text text-anchor="middle" x="438" y="-153" font-family="Helvetica,sans-Serif" font-size="10.00">/PID_PhiAngle.cc</text>
</a>
</g>
<!-- Node4&#45;&gt;Node6 -->
<g id="edge10" class="edge"><title>Node4&#45;&gt;Node6</title>
<path fill="none" stroke="midnightblue" d="M436.137,-206.719C436.518,-197.572 436.932,-187.625 437.273,-179.441"/>
<polygon fill="midnightblue" stroke="midnightblue" points="432.63,-206.8 435.711,-216.937 439.624,-207.091 432.63,-206.8"/>
</g>
<!-- Node7 -->
<g id="node13" class="node"><title>Node7</title>
<a xlink:href="_setup_8h.html" target="_top" xlink:title="src/expconfig/setups\l/Setup.h">
<polygon fill="white" stroke="black" points="255.5,-145 255.5,-179 362.5,-179 362.5,-145 255.5,-145"/>
<text text-anchor="start" x="263.5" y="-166" font-family="Helvetica,sans-Serif" font-size="10.00">src/expconfig/setups</text>
<text text-anchor="middle" x="309" y="-153" font-family="Helvetica,sans-Serif" font-size="10.00">/Setup.h</text>
</a>
</g>
<!-- Node4&#45;&gt;Node7 -->
<g id="edge12" class="edge"><title>Node4&#45;&gt;Node7</title>
<path fill="none" stroke="midnightblue" d="M396.395,-211.94C377.972,-201.413 356.258,-189.004 339.083,-179.19"/>
<polygon fill="midnightblue" stroke="midnightblue" points="394.721,-215.014 405.14,-216.937 398.194,-208.937 394.721,-215.014"/>
</g>
<!-- Node8 -->
<g id="node15" class="node"><title>Node8</title>
<a xlink:href="_exp_config_8cc.html" target="_top" xlink:title="src/expconfig/ExpConfig.cc">
<polygon fill="white" stroke="black" points="35.5,-79.5 35.5,-100.5 172.5,-100.5 172.5,-79.5 35.5,-79.5"/>
<text text-anchor="middle" x="104" y="-87.5" font-family="Helvetica,sans-Serif" font-size="10.00">src/expconfig/ExpConfig.cc</text>
</a>
</g>
<!-- Node7&#45;&gt;Node8 -->
<g id="edge14" class="edge"><title>Node7&#45;&gt;Node8</title>
<path fill="none" stroke="midnightblue" d="M250.98,-141.622C212.933,-128.259 164.741,-111.333 134.13,-100.582"/>
<polygon fill="midnightblue" stroke="midnightblue" points="249.823,-144.925 260.418,-144.937 252.143,-138.321 249.823,-144.925"/>
</g>
<!-- Node9 -->
<g id="node17" class="node"><title>Node9</title>
<a xlink:href="_setup__2014___e_p_t_8h.html" target="_top" xlink:title="src/expconfig/setups\l/Setup_2014_EPT.h">
<polygon fill="white" stroke="black" points="189.5,-73 189.5,-107 296.5,-107 296.5,-73 189.5,-73"/>
<text text-anchor="start" x="197.5" y="-94" font-family="Helvetica,sans-Serif" font-size="10.00">src/expconfig/setups</text>
<text text-anchor="middle" x="243" y="-81" font-family="Helvetica,sans-Serif" font-size="10.00">/Setup_2014_EPT.h</text>
</a>
</g>
<!-- Node7&#45;&gt;Node9 -->
<g id="edge16" class="edge"><title>Node7&#45;&gt;Node9</title>
<path fill="none" stroke="midnightblue" d="M286.43,-137.379C277.407,-127.535 267.224,-116.426 258.987,-107.441"/>
<polygon fill="midnightblue" stroke="midnightblue" points="284.022,-139.93 293.359,-144.937 289.182,-135.2 284.022,-139.93"/>
</g>
<!-- Node13 -->
<g id="node25" class="node"><title>Node13</title>
<a xlink:href="_setup__2015__dummy_8cc.html" target="_top" xlink:title="src/expconfig/setups\l/Setup_2015_dummy.cc">
<polygon fill="white" stroke="black" points="314,-73 314,-107 436,-107 436,-73 314,-73"/>
<text text-anchor="start" x="322" y="-94" font-family="Helvetica,sans-Serif" font-size="10.00">src/expconfig/setups</text>
<text text-anchor="middle" x="375" y="-81" font-family="Helvetica,sans-Serif" font-size="10.00">/Setup_2015_dummy.cc</text>
</a>
</g>
<!-- Node7&#45;&gt;Node13 -->
<g id="edge24" class="edge"><title>Node7&#45;&gt;Node13</title>
<path fill="none" stroke="midnightblue" d="M331.57,-137.379C340.593,-127.535 350.776,-116.426 359.013,-107.441"/>
<polygon fill="midnightblue" stroke="midnightblue" points="328.818,-135.2 324.641,-144.937 333.978,-139.93 328.818,-135.2"/>
</g>
<!-- Node14 -->
<g id="node27" class="node"><title>Node14</title>
<a xlink:href="_setup_registry_8cc.html" target="_top" xlink:title="src/expconfig/setups\l/SetupRegistry.cc">
<polygon fill="white" stroke="black" points="453.5,-73 453.5,-107 560.5,-107 560.5,-73 453.5,-73"/>
<text text-anchor="start" x="461.5" y="-94" font-family="Helvetica,sans-Serif" font-size="10.00">src/expconfig/setups</text>
<text text-anchor="middle" x="507" y="-81" font-family="Helvetica,sans-Serif" font-size="10.00">/SetupRegistry.cc</text>
</a>
</g>
<!-- Node7&#45;&gt;Node14 -->
<g id="edge26" class="edge"><title>Node7&#45;&gt;Node14</title>
<path fill="none" stroke="midnightblue" d="M365.399,-141.491C395.335,-130.606 431.692,-117.385 460.071,-107.065"/>
<polygon fill="midnightblue" stroke="midnightblue" points="364.125,-138.23 355.923,-144.937 366.517,-144.809 364.125,-138.23"/>
</g>
<!-- Node10 -->
<g id="node19" class="node"><title>Node10</title>
<a xlink:href="_setup__2014__07___e_p_t___prod_8cc.html" target="_top" xlink:title="src/expconfig/setups\l/Setup_2014_07_EPT_Prod.cc">
<polygon fill="white" stroke="black" points="-0.5,-1 -0.5,-35 150.5,-35 150.5,-1 -0.5,-1"/>
<text text-anchor="start" x="7.5" y="-22" font-family="Helvetica,sans-Serif" font-size="10.00">src/expconfig/setups</text>
<text text-anchor="middle" x="75" y="-9" font-family="Helvetica,sans-Serif" font-size="10.00">/Setup_2014_07_EPT_Prod.cc</text>
</a>
</g>
<!-- Node9&#45;&gt;Node10 -->
<g id="edge18" class="edge"><title>Node9&#45;&gt;Node10</title>
<path fill="none" stroke="midnightblue" d="M193.822,-68.9238C168.68,-58.1485 138.48,-45.2059 114.819,-35.0651"/>
<polygon fill="midnightblue" stroke="midnightblue" points="192.616,-72.2148 203.186,-72.937 195.374,-65.7807 192.616,-72.2148"/>
</g>
<!-- Node11 -->
<g id="node21" class="node"><title>Node11</title>
<a xlink:href="_setup__2014__10___e_p_t___prod_8cc.html" target="_top" xlink:title="src/expconfig/setups\l/Setup_2014_10_EPT_Prod.cc">
<polygon fill="white" stroke="black" points="167.5,-1 167.5,-35 318.5,-35 318.5,-1 167.5,-1"/>
<text text-anchor="start" x="175.5" y="-22" font-family="Helvetica,sans-Serif" font-size="10.00">src/expconfig/setups</text>
<text text-anchor="middle" x="243" y="-9" font-family="Helvetica,sans-Serif" font-size="10.00">/Setup_2014_10_EPT_Prod.cc</text>
</a>
</g>
<!-- Node9&#45;&gt;Node11 -->
<g id="edge20" class="edge"><title>Node9&#45;&gt;Node11</title>
<path fill="none" stroke="midnightblue" d="M243,-62.7193C243,-53.572 243,-43.6255 243,-35.4407"/>
<polygon fill="midnightblue" stroke="midnightblue" points="239.5,-62.937 243,-72.937 246.5,-62.937 239.5,-62.937"/>
</g>
<!-- Node12 -->
<g id="node23" class="node"><title>Node12</title>
<a xlink:href="_setup__2014__12___e_p_t___prod_8cc.html" target="_top" xlink:title="src/expconfig/setups\l/Setup_2014_12_EPT_Prod.cc">
<polygon fill="white" stroke="black" points="335.5,-1 335.5,-35 486.5,-35 486.5,-1 335.5,-1"/>
<text text-anchor="start" x="343.5" y="-22" font-family="Helvetica,sans-Serif" font-size="10.00">src/expconfig/setups</text>
<text text-anchor="middle" x="411" y="-9" font-family="Helvetica,sans-Serif" font-size="10.00">/Setup_2014_12_EPT_Prod.cc</text>
</a>
</g>
<!-- Node9&#45;&gt;Node12 -->
<g id="edge22" class="edge"><title>Node9&#45;&gt;Node12</title>
<path fill="none" stroke="midnightblue" d="M292.178,-68.9238C317.32,-58.1485 347.52,-45.2059 371.181,-35.0651"/>
<polygon fill="midnightblue" stroke="midnightblue" points="290.626,-65.7807 282.814,-72.937 293.384,-72.2148 290.626,-65.7807"/>
</g>
<!-- Node15&#45;&gt;Node7 -->
<g id="edge34" class="edge"><title>Node15&#45;&gt;Node7</title>
<path fill="none" stroke="midnightblue" d="M507.239,-215.625C466.909,-205.429 416.116,-192.347 371,-180 368.297,-179.26 365.531,-178.494 362.74,-177.712"/>
<polygon fill="midnightblue" stroke="midnightblue" points="506.44,-219.033 516.993,-218.086 508.153,-212.246 506.44,-219.033"/>
</g>
<!-- Node16 -->
<g id="node31" class="node"><title>Node16</title>
<a xlink:href="_fit_gaus_pol0_8cc.html" target="_top" xlink:title="src/calibration/fitfunctions\l/FitGausPol0.cc">
<polygon fill="white" stroke="black" points="514,-145 514,-179 642,-179 642,-145 514,-145"/>
<text text-anchor="start" x="522" y="-166" font-family="Helvetica,sans-Serif" font-size="10.00">src/calibration/fitfunctions</text>
<text text-anchor="middle" x="578" y="-153" font-family="Helvetica,sans-Serif" font-size="10.00">/FitGausPol0.cc</text>
</a>
</g>
<!-- Node15&#45;&gt;Node16 -->
<g id="edge30" class="edge"><title>Node15&#45;&gt;Node16</title>
<path fill="none" stroke="midnightblue" d="M579.863,-206.719C579.482,-197.572 579.068,-187.625 578.727,-179.441"/>
<polygon fill="midnightblue" stroke="midnightblue" points="576.376,-207.091 580.289,-216.937 583.37,-206.8 576.376,-207.091"/>
</g>
<!-- Node17 -->
<g id="node33" class="node"><title>Node17</title>
<a xlink:href="_p_i_d___energy_8cc.html" target="_top" xlink:title="src/calibration/modules\l/PID_Energy.cc">
<polygon fill="white" stroke="black" points="951.5,-145 951.5,-179 1068.5,-179 1068.5,-145 951.5,-145"/>
<text text-anchor="start" x="959.5" y="-166" font-family="Helvetica,sans-Serif" font-size="10.00">src/calibration/modules</text>
<text text-anchor="middle" x="1010" y="-153" font-family="Helvetica,sans-Serif" font-size="10.00">/PID_Energy.cc</text>
</a>
</g>
<!-- Node15&#45;&gt;Node17 -->
<g id="edge32" class="edge"><title>Node15&#45;&gt;Node17</title>
<path fill="none" stroke="midnightblue" d="M655.189,-215.911C783.101,-193.07 819.196,-204.22 943,-180 945.719,-179.468 948.49,-178.887 951.282,-178.268"/>
<polygon fill="midnightblue" stroke="midnightblue" points="654.212,-212.531 645.001,-217.766 655.467,-219.418 654.212,-212.531"/>
</g>
<!-- Node18&#45;&gt;Node7 -->
<g id="edge42" class="edge"><title>Node18&#45;&gt;Node7</title>
<path fill="none" stroke="midnightblue" d="M653.006,-215.944C527.557,-193.418 491.996,-205.1 371,-180 368.256,-179.431 365.457,-178.801 362.64,-178.128"/>
<polygon fill="midnightblue" stroke="midnightblue" points="652.53,-219.415 662.997,-217.776 653.792,-212.53 652.53,-219.415"/>
</g>
<!-- Node19 -->
<g id="node38" class="node"><title>Node19</title>
<a xlink:href="_fit_gaus_pol3_8cc.html" target="_top" xlink:title="src/calibration/fitfunctions\l/FitGausPol3.cc">
<polygon fill="white" stroke="black" points="660,-145 660,-179 788,-179 788,-145 660,-145"/>
<text text-anchor="start" x="668" y="-166" font-family="Helvetica,sans-Serif" font-size="10.00">src/calibration/fitfunctions</text>
<text text-anchor="middle" x="724" y="-153" font-family="Helvetica,sans-Serif" font-size="10.00">/FitGausPol3.cc</text>
</a>
</g>
<!-- Node18&#45;&gt;Node19 -->
<g id="edge38" class="edge"><title>Node18&#45;&gt;Node19</title>
<path fill="none" stroke="midnightblue" d="M725.863,-206.719C725.482,-197.572 725.068,-187.625 724.727,-179.441"/>
<polygon fill="midnightblue" stroke="midnightblue" points="722.376,-207.091 726.289,-216.937 729.37,-206.8 722.376,-207.091"/>
</g>
<!-- Node20 -->
<g id="node40" class="node"><title>Node20</title>
<a xlink:href="_c_b___energy_8cc.html" target="_top" xlink:title="src/calibration/modules\l/CB_Energy.cc">
<polygon fill="white" stroke="black" points="1085.5,-145 1085.5,-179 1202.5,-179 1202.5,-145 1085.5,-145"/>
<text text-anchor="start" x="1093.5" y="-166" font-family="Helvetica,sans-Serif" font-size="10.00">src/calibration/modules</text>
<text text-anchor="middle" x="1144" y="-153" font-family="Helvetica,sans-Serif" font-size="10.00">/CB_Energy.cc</text>
</a>
</g>
<!-- Node18&#45;&gt;Node20 -->
<g id="edge40" class="edge"><title>Node18&#45;&gt;Node20</title>
<path fill="none" stroke="midnightblue" d="M801.168,-215.907C923.83,-193.662 958.438,-203.522 1077,-180 1079.72,-179.461 1082.49,-178.873 1085.28,-178.251"/>
<polygon fill="midnightblue" stroke="midnightblue" points="800.202,-212.526 791.005,-217.786 801.475,-219.409 800.202,-212.526"/>
</g>
<!-- Node22 -->
<g id="node45" class="node"><title>Node22</title>
<a xlink:href="_fit_timewalk_8cc.html" target="_top" xlink:title="src/calibration/fitfunctions\l/FitTimewalk.cc">
<polygon fill="white" stroke="black" points="806,-145 806,-179 934,-179 934,-145 806,-145"/>
<text text-anchor="start" x="814" y="-166" font-family="Helvetica,sans-Serif" font-size="10.00">src/calibration/fitfunctions</text>
<text text-anchor="middle" x="870" y="-153" font-family="Helvetica,sans-Serif" font-size="10.00">/FitTimewalk.cc</text>
</a>
</g>
<!-- Node21&#45;&gt;Node22 -->
<g id="edge46" class="edge"><title>Node21&#45;&gt;Node22</title>
<path fill="none" stroke="midnightblue" d="M871.863,-206.719C871.482,-197.572 871.068,-187.625 870.727,-179.441"/>
<polygon fill="midnightblue" stroke="midnightblue" points="868.376,-207.091 872.289,-216.937 875.37,-206.8 868.376,-207.091"/>
</g>
<!-- Node23 -->
<g id="node47" class="node"><title>Node23</title>
<a xlink:href="_c_b___time_walk_8cc.html" target="_top" xlink:title="src/calibration/modules\l/CB_TimeWalk.cc">
<polygon fill="white" stroke="black" points="1219.5,-145 1219.5,-179 1336.5,-179 1336.5,-145 1219.5,-145"/>
<text text-anchor="start" x="1227.5" y="-166" font-family="Helvetica,sans-Serif" font-size="10.00">src/calibration/modules</text>
<text text-anchor="middle" x="1278" y="-153" font-family="Helvetica,sans-Serif" font-size="10.00">/CB_TimeWalk.cc</text>
</a>
</g>
<!-- Node21&#45;&gt;Node23 -->
<g id="edge48" class="edge"><title>Node21&#45;&gt;Node23</title>
<path fill="none" stroke="midnightblue" d="M947.52,-224.365C1016.28,-214.938 1121.04,-199.216 1211,-180 1213.71,-179.421 1216.47,-178.801 1219.26,-178.152"/>
<polygon fill="midnightblue" stroke="midnightblue" points="946.658,-220.95 937.222,-225.767 947.602,-227.886 946.658,-220.95"/>
</g>
<!-- Node24&#45;&gt;Node6 -->
<g id="edge64" class="edge"><title>Node24&#45;&gt;Node6</title>
<path fill="none" stroke="midnightblue" d="M1221.42,-230.68C1055.1,-220.831 575.014,-191.738 505,-180 502.268,-179.542 499.486,-179.021 496.685,-178.452"/>
<polygon fill="midnightblue" stroke="midnightblue" points="1221.26,-234.176 1231.45,-231.273 1221.67,-227.189 1221.26,-234.176"/>
</g>
<!-- Node24&#45;&gt;Node17 -->
<g id="edge62" class="edge"><title>Node24&#45;&gt;Node17</title>
<path fill="none" stroke="midnightblue" d="M1221.46,-218.811C1176.63,-206.767 1114.19,-189.991 1068.78,-177.792"/>
<polygon fill="midnightblue" stroke="midnightblue" points="1220.75,-222.244 1231.32,-221.459 1222.57,-215.484 1220.75,-222.244"/>
</g>
<!-- Node24&#45;&gt;Node20 -->
<g id="edge58" class="edge"><title>Node24&#45;&gt;Node20</title>
<path fill="none" stroke="midnightblue" d="M1237.21,-212.083C1217.56,-201.525 1194.34,-189.049 1175.99,-179.19"/>
<polygon fill="midnightblue" stroke="midnightblue" points="1235.78,-215.287 1246.24,-216.937 1239.09,-209.121 1235.78,-215.287"/>
</g>
<!-- Node24&#45;&gt;Node23 -->
<g id="edge60" class="edge"><title>Node24&#45;&gt;Node23</title>
<path fill="none" stroke="midnightblue" d="M1278,-206.719C1278,-197.572 1278,-187.625 1278,-179.441"/>
<polygon fill="midnightblue" stroke="midnightblue" points="1274.5,-206.937 1278,-216.937 1281.5,-206.937 1274.5,-206.937"/>
</g>
<!-- Node24&#45;&gt;Node25 -->
<g id="edge52" class="edge"><title>Node24&#45;&gt;Node25</title>
<path fill="none" stroke="midnightblue" d="M1334.75,-226.222C1395.63,-217.319 1494.93,-201.189 1579,-180 1581.73,-179.312 1584.52,-178.56 1587.32,-177.765"/>
<polygon fill="midnightblue" stroke="midnightblue" points="1333.97,-222.797 1324.58,-227.694 1334.97,-229.725 1333.97,-222.797"/>
</g>
<!-- Node26 -->
<g id="node53" class="node"><title>Node26</title>
<a xlink:href="_manager_8cc.html" target="_top" xlink:title="src/calibration/gui\l/Manager.cc">
<polygon fill="white" stroke="black" points="1477.5,-145 1477.5,-179 1570.5,-179 1570.5,-145 1477.5,-145"/>
<text text-anchor="start" x="1485.5" y="-166" font-family="Helvetica,sans-Serif" font-size="10.00">src/calibration/gui</text>
<text text-anchor="middle" x="1524" y="-153" font-family="Helvetica,sans-Serif" font-size="10.00">/Manager.cc</text>
</a>
</g>
<!-- Node24&#45;&gt;Node26 -->
<g id="edge54" class="edge"><title>Node24&#45;&gt;Node26</title>
<path fill="none" stroke="midnightblue" d="M1334.74,-218.61C1372.83,-208.12 1424.07,-193.698 1469,-180 1471.69,-179.18 1474.45,-178.323 1477.23,-177.449"/>
<polygon fill="midnightblue" stroke="midnightblue" points="1333.58,-215.301 1324.86,-221.325 1335.43,-222.051 1333.58,-215.301"/>
</g>
<!-- Node27 -->
<g id="node55" class="node"><title>Node27</title>
<a xlink:href="_manager_window_8cc.html" target="_top" xlink:title="src/calibration/gui\l/ManagerWindow.cc">
<polygon fill="white" stroke="black" points="1354,-145 1354,-179 1460,-179 1460,-145 1354,-145"/>
<text text-anchor="start" x="1362" y="-166" font-family="Helvetica,sans-Serif" font-size="10.00">src/calibration/gui</text>
<text text-anchor="middle" x="1407" y="-153" font-family="Helvetica,sans-Serif" font-size="10.00">/ManagerWindow.cc</text>
</a>
</g>
<!-- Node24&#45;&gt;Node27 -->
<g id="edge56" class="edge"><title>Node24&#45;&gt;Node27</title>
<path fill="none" stroke="midnightblue" d="M1317.52,-211.94C1336.39,-201.413 1358.62,-189.004 1376.2,-179.19"/>
<polygon fill="midnightblue" stroke="midnightblue" points="1315.6,-209.007 1308.57,-216.937 1319.01,-215.119 1315.6,-209.007"/>
</g>
<!-- Node24&#45;&gt;Node28 -->
<g id="edge66" class="edge"><title>Node24&#45;&gt;Node28</title>
<path fill="none" stroke="midnightblue" d="M1334.95,-227.459C1431.32,-216.235 1622.52,-193.238 1689,-180 1691.72,-179.459 1694.49,-178.87 1697.28,-178.246"/>
<polygon fill="midnightblue" stroke="midnightblue" points="1334.34,-224.007 1324.81,-228.638 1335.15,-230.961 1334.34,-224.007"/>
</g>
</g>
</svg>
