<?xml version="1.0" encoding="UTF-8" standalone="no"?>
<!DOCTYPE svg PUBLIC "-//W3C//DTD SVG 1.1//EN"
 "http://www.w3.org/Graphics/SVG/1.1/DTD/svg11.dtd">
<!-- Generated by graphviz version 2.26.3 (20100126.1600)
 -->
<!-- Title: src/base/Logger.h Pages: 1 -->
<svg width="6296pt" height="258pt"
 viewBox="0.00 0.00 6296.00 258.00" xmlns="http://www.w3.org/2000/svg" xmlns:xlink="http://www.w3.org/1999/xlink">
<g id="graph1" class="graph" transform="scale(1 1) rotate(0) translate(4 254)">
<title>src/base/Logger.h</title>
<polygon fill="white" stroke="white" points="-4,5 -4,-254 6293,-254 6293,5 -4,5"/>
<!-- Node1 -->
<g id="node1" class="node"><title>Node1</title>
<polygon fill="#bfbfbf" stroke="black" points="3015.5,-228.5 3015.5,-249.5 3110.5,-249.5 3110.5,-228.5 3015.5,-228.5"/>
<text text-anchor="middle" x="3063" y="-236.5" font-family="Helvetica,sans-Serif" font-size="10.00">src/base/Logger.h</text>
</g>
<!-- Node2 -->
<g id="node3" class="node"><title>Node2</title>
<a xlink:href="_ant-calib_8cc.html" target="_top" xlink:title="progs/Ant&#45;calib.cc">
<polygon fill="white" stroke="black" points="-0.5,-157.5 -0.5,-178.5 94.5,-178.5 94.5,-157.5 -0.5,-157.5"/>
<text text-anchor="middle" x="47" y="-165.5" font-family="Helvetica,sans-Serif" font-size="10.00">progs/Ant&#45;calib.cc</text>
</a>
</g>
<!-- Node1&#45;&gt;Node2 -->
<g id="edge2" class="edge"><title>Node1&#45;&gt;Node2</title>
<path fill="none" stroke="midnightblue" d="M3005.01,-238.717C2603.62,-236.678 250.087,-223.41 103,-192 90.2766,-189.283 76.852,-183.636 66.3372,-178.503"/>
<polygon fill="midnightblue" stroke="midnightblue" points="3005.21,-242.218 3015.22,-238.768 3005.24,-235.218 3005.21,-242.218"/>
</g>
<!-- Node3 -->
<g id="node5" class="node"><title>Node3</title>
<a xlink:href="_ant_8cc.html" target="_top" xlink:title="progs/Ant.cc">
<polygon fill="white" stroke="black" points="112,-157.5 112,-178.5 184,-178.5 184,-157.5 112,-157.5"/>
<text text-anchor="middle" x="148" y="-165.5" font-family="Helvetica,sans-Serif" font-size="10.00">progs/Ant.cc</text>
</a>
</g>
<!-- Node1&#45;&gt;Node3 -->
<g id="edge4" class="edge"><title>Node1&#45;&gt;Node3</title>
<path fill="none" stroke="midnightblue" d="M3005.19,-238.824C2611.31,-237.529 333.996,-228.478 193,-192 182.542,-189.294 171.832,-183.717 163.485,-178.619"/>
<polygon fill="midnightblue" stroke="midnightblue" points="3005.2,-242.324 3015.22,-238.857 3005.23,-235.324 3005.2,-242.324"/>
</g>
<!-- Node4 -->
<g id="node7" class="node"><title>Node4</title>
<a xlink:href="omega__histograms_8cc.html" target="_top" xlink:title="progs/omega_histograms.cc">
<polygon fill="white" stroke="black" points="202,-157.5 202,-178.5 342,-178.5 342,-157.5 202,-157.5"/>
<text text-anchor="middle" x="272" y="-165.5" font-family="Helvetica,sans-Serif" font-size="10.00">progs/omega_histograms.cc</text>
</a>
</g>
<!-- Node1&#45;&gt;Node4 -->
<g id="edge6" class="edge"><title>Node1&#45;&gt;Node4</title>
<path fill="none" stroke="midnightblue" d="M3005.25,-238.96C2636.77,-238.58 621.329,-234.554 351,-192 333.725,-189.281 314.973,-183.703 300.076,-178.608"/>
<polygon fill="midnightblue" stroke="midnightblue" points="3005.41,-242.46 3015.41,-238.97 3005.42,-235.46 3005.41,-242.46"/>
</g>
<!-- Node5 -->
<g id="node9" class="node"><title>Node5</title>
<a xlink:href="_ant_reader_8cc.html" target="_top" xlink:title="src/analysis/input\l/ant/AntReader.cc">
<polygon fill="white" stroke="black" points="360,-151 360,-185 456,-185 456,-151 360,-151"/>
<text text-anchor="start" x="368" y="-172" font-family="Helvetica,sans-Serif" font-size="10.00">src/analysis/input</text>
<text text-anchor="middle" x="408" y="-159" font-family="Helvetica,sans-Serif" font-size="10.00">/ant/AntReader.cc</text>
</a>
</g>
<!-- Node1&#45;&gt;Node5 -->
<g id="edge8" class="edge"><title>Node1&#45;&gt;Node5</title>
<path fill="none" stroke="midnightblue" d="M3005.25,-238.575C2633.9,-235.765 593.348,-219.129 465,-192 457.541,-190.423 449.836,-187.875 442.593,-185.016"/>
<polygon fill="midnightblue" stroke="midnightblue" points="3005.47,-242.077 3015.49,-238.652 3005.52,-235.077 3005.47,-242.077"/>
</g>
<!-- Node6 -->
<g id="node11" class="node"><title>Node6</title>
<a xlink:href="_goat_reader_8cc.html" target="_top" xlink:title="src/analysis/input\l/goat/GoatReader.cc">
<polygon fill="white" stroke="black" points="473.5,-151 473.5,-185 580.5,-185 580.5,-151 473.5,-151"/>
<text text-anchor="start" x="481.5" y="-172" font-family="Helvetica,sans-Serif" font-size="10.00">src/analysis/input</text>
<text text-anchor="middle" x="527" y="-159" font-family="Helvetica,sans-Serif" font-size="10.00">/goat/GoatReader.cc</text>
</a>
</g>
<!-- Node1&#45;&gt;Node6 -->
<g id="edge10" class="edge"><title>Node1&#45;&gt;Node6</title>
<path fill="none" stroke="midnightblue" d="M3005.18,-238.473C2644.19,-235.112 711.253,-216.04 589,-192 580.959,-190.419 572.609,-187.869 564.741,-185.009"/>
<polygon fill="midnightblue" stroke="midnightblue" points="3005.37,-241.975 3015.4,-238.568 3005.43,-234.975 3005.37,-241.975"/>
</g>
<!-- Node7 -->
<g id="node13" class="node"><title>Node7</title>
<a xlink:href="_pluto_reader_8cc.html" target="_top" xlink:title="src/analysis/input\l/pluto/PlutoReader.cc">
<polygon fill="white" stroke="black" points="597.5,-151 597.5,-185 708.5,-185 708.5,-151 597.5,-151"/>
<text text-anchor="start" x="605.5" y="-172" font-family="Helvetica,sans-Serif" font-size="10.00">src/analysis/input</text>
<text text-anchor="middle" x="653" y="-159" font-family="Helvetica,sans-Serif" font-size="10.00">/pluto/PlutoReader.cc</text>
</a>
</g>
<!-- Node1&#45;&gt;Node7 -->
<g id="edge12" class="edge"><title>Node1&#45;&gt;Node7</title>
<path fill="none" stroke="midnightblue" d="M3005.15,-238.393C2655.22,-234.656 832.7,-214.18 717,-192 708.725,-190.414 700.118,-187.861 691.998,-185.001"/>
<polygon fill="midnightblue" stroke="midnightblue" points="3005.27,-241.895 3015.31,-238.502 3005.34,-234.895 3005.27,-241.895"/>
</g>
<!-- Node8 -->
<g id="node15" class="node"><title>Node8</title>
<a xlink:href="_debug_physics_8cc.html" target="_top" xlink:title="src/analysis/physics\l/common/DebugPhysics.cc">
<polygon fill="white" stroke="black" points="725.5,-151 725.5,-185 862.5,-185 862.5,-151 725.5,-151"/>
<text text-anchor="start" x="733.5" y="-172" font-family="Helvetica,sans-Serif" font-size="10.00">src/analysis/physics</text>
<text text-anchor="middle" x="794" y="-159" font-family="Helvetica,sans-Serif" font-size="10.00">/common/DebugPhysics.cc</text>
</a>
</g>
<!-- Node1&#45;&gt;Node8 -->
<g id="edge14" class="edge"><title>Node1&#45;&gt;Node8</title>
<path fill="none" stroke="midnightblue" d="M3004.89,-238.727C2679.12,-237.068 1086.67,-227.201 871,-192 861.326,-190.421 851.186,-187.911 841.557,-185.098"/>
<polygon fill="midnightblue" stroke="midnightblue" points="3005.03,-242.228 3015.05,-238.778 3005.07,-235.228 3005.03,-242.228"/>
</g>
<!-- Node9 -->
<g id="node17" class="node"><title>Node9</title>
<a xlink:href="_delta_tree_generator_8cc.html" target="_top" xlink:title="src/analysis/physics\l/DeltaTreeGenerator/DeltaTree\lGenerator.cc">
<polygon fill="white" stroke="black" points="879.5,-144.5 879.5,-191.5 1030.5,-191.5 1030.5,-144.5 879.5,-144.5"/>
<text text-anchor="start" x="887.5" y="-178.5" font-family="Helvetica,sans-Serif" font-size="10.00">src/analysis/physics</text>
<text text-anchor="start" x="887.5" y="-165.5" font-family="Helvetica,sans-Serif" font-size="10.00">/DeltaTreeGenerator/DeltaTree</text>
<text text-anchor="middle" x="955" y="-152.5" font-family="Helvetica,sans-Serif" font-size="10.00">Generator.cc</text>
</a>
</g>
<!-- Node1&#45;&gt;Node9 -->
<g id="edge16" class="edge"><title>Node1&#45;&gt;Node9</title>
<path fill="none" stroke="midnightblue" d="M3004.94,-238.534C2694.53,-235.927 1237.53,-222.159 1039,-192 1036.3,-191.59 1033.57,-191.119 1030.81,-190.598"/>
<polygon fill="midnightblue" stroke="midnightblue" points="3005.04,-242.035 3015.07,-238.619 3005.1,-235.036 3005.04,-242.035"/>
</g>
<!-- Node10 -->
<g id="node19" class="node"><title>Node10</title>
<a xlink:href="omega_8cc.html" target="_top" xlink:title="src/analysis/physics\l/omega/omega.cc">
<polygon fill="white" stroke="black" points="1048,-151 1048,-185 1154,-185 1154,-151 1048,-151"/>
<text text-anchor="start" x="1056" y="-172" font-family="Helvetica,sans-Serif" font-size="10.00">src/analysis/physics</text>
<text text-anchor="middle" x="1101" y="-159" font-family="Helvetica,sans-Serif" font-size="10.00">/omega/omega.cc</text>
</a>
</g>
<!-- Node1&#45;&gt;Node10 -->
<g id="edge18" class="edge"><title>Node1&#45;&gt;Node10</title>
<path fill="none" stroke="midnightblue" d="M3005.13,-238.751C2706.57,-237.311 1347.18,-228.766 1163,-192 1155.08,-190.418 1146.85,-187.907 1139.08,-185.093"/>
<polygon fill="midnightblue" stroke="midnightblue" points="3005.28,-242.252 3015.3,-238.8 3005.32,-235.252 3005.28,-242.252"/>
</g>
<!-- Node11 -->
<g id="node21" class="node"><title>Node11</title>
<a xlink:href="_physics_8cc.html" target="_top" xlink:title="src/analysis/physics\l/Physics.cc">
<polygon fill="white" stroke="black" points="1172,-151 1172,-185 1278,-185 1278,-151 1172,-151"/>
<text text-anchor="start" x="1180" y="-172" font-family="Helvetica,sans-Serif" font-size="10.00">src/analysis/physics</text>
<text text-anchor="middle" x="1225" y="-159" font-family="Helvetica,sans-Serif" font-size="10.00">/Physics.cc</text>
</a>
</g>
<!-- Node1&#45;&gt;Node11 -->
<g id="edge20" class="edge"><title>Node1&#45;&gt;Node11</title>
<path fill="none" stroke="midnightblue" d="M3005.26,-238.644C2718.94,-236.724 1458.4,-226.368 1287,-192 1279.08,-190.412 1270.85,-187.897 1263.08,-185.082"/>
<polygon fill="midnightblue" stroke="midnightblue" points="3005.4,-242.145 3015.43,-238.712 3005.45,-235.146 3005.4,-242.145"/>
</g>
<!-- Node12 -->
<g id="node23" class="node"><title>Node12</title>
<a xlink:href="_physics_manager_8cc.html" target="_top" xlink:title="src/analysis/physics\l/PhysicsManager.cc">
<polygon fill="white" stroke="black" points="1296,-151 1296,-185 1402,-185 1402,-151 1296,-151"/>
<text text-anchor="start" x="1304" y="-172" font-family="Helvetica,sans-Serif" font-size="10.00">src/analysis/physics</text>
<text text-anchor="middle" x="1349" y="-159" font-family="Helvetica,sans-Serif" font-size="10.00">/PhysicsManager.cc</text>
</a>
</g>
<!-- Node1&#45;&gt;Node12 -->
<g id="edge22" class="edge"><title>Node1&#45;&gt;Node12</title>
<path fill="none" stroke="midnightblue" d="M3005.35,-238.522C2731.61,-236.094 1569.63,-223.973 1411,-192 1403.08,-190.404 1394.86,-187.886 1387.09,-185.07"/>
<polygon fill="midnightblue" stroke="midnightblue" points="3005.44,-242.022 3015.47,-238.611 3005.5,-235.023 3005.44,-242.022"/>
</g>
<!-- Node13 -->
<g id="node25" class="node"><title>Node13</title>
<a xlink:href="_logger_8cc.html" target="_top" xlink:title="src/base/Logger.cc">
<polygon fill="white" stroke="black" points="1420,-157.5 1420,-178.5 1520,-178.5 1520,-157.5 1420,-157.5"/>
<text text-anchor="middle" x="1470" y="-165.5" font-family="Helvetica,sans-Serif" font-size="10.00">src/base/Logger.cc</text>
</a>
</g>
<!-- Node1&#45;&gt;Node13 -->
<g id="edge24" class="edge"><title>Node1&#45;&gt;Node13</title>
<path fill="none" stroke="midnightblue" d="M3005.26,-238.442C2743.55,-235.748 1675.22,-222.935 1529,-192 1515.8,-189.208 1501.78,-183.626 1490.72,-178.548"/>
<polygon fill="midnightblue" stroke="midnightblue" points="3005.27,-241.942 3015.31,-238.544 3005.34,-234.942 3005.27,-241.942"/>
</g>
<!-- Node14 -->
<g id="node27" class="node"><title>Node14</title>
<a xlink:href="_wrap_t_file_8cc.html" target="_top" xlink:title="src/base/WrapTFile.cc">
<polygon fill="white" stroke="black" points="1538,-157.5 1538,-178.5 1654,-178.5 1654,-157.5 1538,-157.5"/>
<text text-anchor="middle" x="1596" y="-165.5" font-family="Helvetica,sans-Serif" font-size="10.00">src/base/WrapTFile.cc</text>
</a>
</g>
<!-- Node1&#45;&gt;Node14 -->
<g id="edge26" class="edge"><title>Node1&#45;&gt;Node14</title>
<path fill="none" stroke="midnightblue" d="M3005.18,-238.116C2757.93,-234.193 1796.05,-217.418 1663,-192 1648.19,-189.171 1632.28,-183.588 1619.68,-178.518"/>
<polygon fill="midnightblue" stroke="midnightblue" points="3005.33,-241.619 3015.39,-238.277 3005.44,-234.62 3005.33,-241.619"/>
</g>
<!-- Node15 -->
<g id="node29" class="node"><title>Node15</title>
<a xlink:href="_data_base_8cc.html" target="_top" xlink:title="src/calibration/DataBase.cc">
<polygon fill="white" stroke="black" points="1671.5,-157.5 1671.5,-178.5 1808.5,-178.5 1808.5,-157.5 1671.5,-157.5"/>
<text text-anchor="middle" x="1740" y="-165.5" font-family="Helvetica,sans-Serif" font-size="10.00">src/calibration/DataBase.cc</text>
</a>
</g>
<!-- Node1&#45;&gt;Node15 -->
<g id="edge28" class="edge"><title>Node1&#45;&gt;Node15</title>
<path fill="none" stroke="midnightblue" d="M3005.4,-238.843C2792.46,-237.952 2050.01,-231.979 1817,-192 1800.3,-189.135 1782.19,-183.616 1767.72,-178.593"/>
<polygon fill="midnightblue" stroke="midnightblue" points="3005.42,-242.343 3015.43,-238.883 3005.45,-235.344 3005.42,-242.343"/>
</g>
<!-- Node16 -->
<g id="node31" class="node"><title>Node16</title>
<a xlink:href="_data_manager_8cc.html" target="_top" xlink:title="src/calibration/DataManager.cc">
<polygon fill="white" stroke="black" points="1826,-157.5 1826,-178.5 1978,-178.5 1978,-157.5 1826,-157.5"/>
<text text-anchor="middle" x="1902" y="-165.5" font-family="Helvetica,sans-Serif" font-size="10.00">src/calibration/DataManager.cc</text>
</a>
</g>
<!-- Node1&#45;&gt;Node16 -->
<g id="edge30" class="edge"><title>Node1&#45;&gt;Node16</title>
<path fill="none" stroke="midnightblue" d="M3005.1,-238.236C2811.19,-235.403 2185.73,-223.952 1987,-192 1968.68,-189.055 1948.69,-183.532 1932.7,-178.526"/>
<polygon fill="midnightblue" stroke="midnightblue" points="3005.31,-241.74 3015.36,-238.384 3005.41,-234.74 3005.31,-241.74"/>
</g>
<!-- Node17 -->
<g id="node33" class="node"><title>Node17</title>
<a xlink:href="_fit_function_8cc.html" target="_top" xlink:title="src/calibration/fitfunctions\l/FitFunction.cc">
<polygon fill="white" stroke="black" points="1996,-151 1996,-185 2124,-185 2124,-151 1996,-151"/>
<text text-anchor="start" x="2004" y="-172" font-family="Helvetica,sans-Serif" font-size="10.00">src/calibration/fitfunctions</text>
<text text-anchor="middle" x="2060" y="-159" font-family="Helvetica,sans-Serif" font-size="10.00">/FitFunction.cc</text>
</a>
</g>
<!-- Node1&#45;&gt;Node17 -->
<g id="edge32" class="edge"><title>Node1&#45;&gt;Node17</title>
<path fill="none" stroke="midnightblue" d="M3005.33,-238.098C2829.44,-235.03 2301.59,-223.386 2133,-192 2123.95,-190.315 2114.48,-187.795 2105.46,-185.012"/>
<polygon fill="midnightblue" stroke="midnightblue" points="3005.35,-241.599 3015.41,-238.271 3005.47,-234.6 3005.35,-241.599"/>
</g>
<!-- Node18 -->
<g id="node35" class="node"><title>Node18</title>
<a xlink:href="_fit_gaus_8cc.html" target="_top" xlink:title="src/calibration/fitfunctions\l/FitGaus.cc">
<polygon fill="white" stroke="black" points="2142,-151 2142,-185 2270,-185 2270,-151 2142,-151"/>
<text text-anchor="start" x="2150" y="-172" font-family="Helvetica,sans-Serif" font-size="10.00">src/calibration/fitfunctions</text>
<text text-anchor="middle" x="2206" y="-159" font-family="Helvetica,sans-Serif" font-size="10.00">/FitGaus.cc</text>
</a>
</g>
<!-- Node1&#45;&gt;Node18 -->
<g id="edge34" class="edge"><title>Node1&#45;&gt;Node18</title>
<path fill="none" stroke="midnightblue" d="M3005,-237.459C2848.17,-232.985 2418.19,-218.59 2279,-192 2270.09,-190.298 2260.76,-187.807 2251.87,-185.065"/>
<polygon fill="midnightblue" stroke="midnightblue" points="3005.27,-240.968 3015.37,-237.752 3005.47,-233.971 3005.27,-240.968"/>
</g>
<!-- Node19 -->
<g id="node37" class="node"><title>Node19</title>
<a xlink:href="_fit_gaus_pol0_8cc.html" target="_top" xlink:title="src/calibration/fitfunctions\l/FitGausPol0.cc">
<polygon fill="white" stroke="black" points="2288,-151 2288,-185 2416,-185 2416,-151 2288,-151"/>
<text text-anchor="start" x="2296" y="-172" font-family="Helvetica,sans-Serif" font-size="10.00">src/calibration/fitfunctions</text>
<text text-anchor="middle" x="2352" y="-159" font-family="Helvetica,sans-Serif" font-size="10.00">/FitGausPol0.cc</text>
</a>
</g>
<!-- Node1&#45;&gt;Node19 -->
<g id="edge36" class="edge"><title>Node1&#45;&gt;Node19</title>
<path fill="none" stroke="midnightblue" d="M3004.97,-236.539C2869.42,-230.498 2535.16,-213.825 2425,-192 2416.23,-190.263 2407.05,-187.791 2398.28,-185.088"/>
<polygon fill="midnightblue" stroke="midnightblue" points="3005,-240.044 3015.15,-236.99 3005.31,-233.051 3005,-240.044"/>
</g>
<!-- Node20 -->
<g id="node39" class="node"><title>Node20</title>
<a xlink:href="_fit_gaus_pol3_8cc.html" target="_top" xlink:title="src/calibration/fitfunctions\l/FitGausPol3.cc">
<polygon fill="white" stroke="black" points="2434,-151 2434,-185 2562,-185 2562,-151 2434,-151"/>
<text text-anchor="start" x="2442" y="-172" font-family="Helvetica,sans-Serif" font-size="10.00">src/calibration/fitfunctions</text>
<text text-anchor="middle" x="2498" y="-159" font-family="Helvetica,sans-Serif" font-size="10.00">/FitGausPol3.cc</text>
</a>
</g>
<!-- Node1&#45;&gt;Node20 -->
<g id="edge38" class="edge"><title>Node1&#45;&gt;Node20</title>
<path fill="none" stroke="midnightblue" d="M3005.32,-237.635C2912.78,-234.521 2725.82,-224.422 2571,-192 2562.38,-190.195 2553.36,-187.726 2544.7,-185.054"/>
<polygon fill="midnightblue" stroke="midnightblue" points="3005.22,-241.133 3015.32,-237.956 3005.44,-234.137 3005.22,-241.133"/>
</g>
<!-- Node21 -->
<g id="node41" class="node"><title>Node21</title>
<a xlink:href="_fit_timewalk_8cc.html" target="_top" xlink:title="src/calibration/fitfunctions\l/FitTimewalk.cc">
<polygon fill="white" stroke="black" points="2580,-151 2580,-185 2708,-185 2708,-151 2580,-151"/>
<text text-anchor="start" x="2588" y="-172" font-family="Helvetica,sans-Serif" font-size="10.00">src/calibration/fitfunctions</text>
<text text-anchor="middle" x="2644" y="-159" font-family="Helvetica,sans-Serif" font-size="10.00">/FitTimewalk.cc</text>
</a>
</g>
<!-- Node1&#45;&gt;Node21 -->
<g id="edge40" class="edge"><title>Node1&#45;&gt;Node21</title>
<path fill="none" stroke="midnightblue" d="M3005.25,-234.404C2936.08,-228.156 2817.02,-215.031 2717,-192 2708.68,-190.084 2699.96,-187.626 2691.55,-185.017"/>
<polygon fill="midnightblue" stroke="midnightblue" points="3005.23,-237.916 3015.5,-235.313 3005.85,-230.944 3005.23,-237.916"/>
</g>
<!-- Node22 -->
<g id="node43" class="node"><title>Node22</title>
<a xlink:href="_cal_canvas_8cc.html" target="_top" xlink:title="src/calibration/gui\l/CalCanvas.cc">
<polygon fill="white" stroke="black" points="2725.5,-151 2725.5,-185 2818.5,-185 2818.5,-151 2725.5,-151"/>
<text text-anchor="start" x="2733.5" y="-172" font-family="Helvetica,sans-Serif" font-size="10.00">src/calibration/gui</text>
<text text-anchor="middle" x="2772" y="-159" font-family="Helvetica,sans-Serif" font-size="10.00">/CalCanvas.cc</text>
</a>
</g>
<!-- Node1&#45;&gt;Node22 -->
<g id="edge42" class="edge"><title>Node1&#45;&gt;Node22</title>
<path fill="none" stroke="midnightblue" d="M3005.27,-231.054C2956.95,-223.563 2886.54,-210.681 2827,-192 2820.74,-190.035 2814.23,-187.584 2807.97,-185.005"/>
<polygon fill="midnightblue" stroke="midnightblue" points="3004.82,-234.526 3015.23,-232.571 3005.87,-227.606 3004.82,-234.526"/>
</g>
<!-- Node23 -->
<g id="node45" class="node"><title>Node23</title>
<a xlink:href="_manager_8cc.html" target="_top" xlink:title="src/calibration/gui\l/Manager.cc">
<polygon fill="white" stroke="black" points="2835.5,-151 2835.5,-185 2928.5,-185 2928.5,-151 2835.5,-151"/>
<text text-anchor="start" x="2843.5" y="-172" font-family="Helvetica,sans-Serif" font-size="10.00">src/calibration/gui</text>
<text text-anchor="middle" x="2882" y="-159" font-family="Helvetica,sans-Serif" font-size="10.00">/Manager.cc</text>
</a>
</g>
<!-- Node1&#45;&gt;Node23 -->
<g id="edge44" class="edge"><title>Node1&#45;&gt;Node23</title>
<path fill="none" stroke="midnightblue" d="M3023.8,-225C2998.82,-215.927 2965.85,-203.667 2937,-192 2931.59,-189.813 2925.92,-187.434 2920.35,-185.053"/>
<polygon fill="midnightblue" stroke="midnightblue" points="3022.7,-228.324 3033.29,-228.435 3025.08,-221.742 3022.7,-228.324"/>
</g>
<!-- Node24 -->
<g id="node47" class="node"><title>Node24</title>
<a xlink:href="_manager_window_8cc.html" target="_top" xlink:title="src/calibration/gui\l/ManagerWindow.cc">
<polygon fill="white" stroke="black" points="2946,-151 2946,-185 3052,-185 3052,-151 2946,-151"/>
<text text-anchor="start" x="2954" y="-172" font-family="Helvetica,sans-Serif" font-size="10.00">src/calibration/gui</text>
<text text-anchor="middle" x="2999" y="-159" font-family="Helvetica,sans-Serif" font-size="10.00">/ManagerWindow.cc</text>
</a>
</g>
<!-- Node1&#45;&gt;Node24 -->
<g id="edge46" class="edge"><title>Node1&#45;&gt;Node24</title>
<path fill="none" stroke="midnightblue" d="M3046.35,-220.527C3036.53,-209.63 3024.17,-195.928 3014.55,-185.251"/>
<polygon fill="midnightblue" stroke="midnightblue" points="3043.98,-223.132 3053.28,-228.217 3049.18,-218.445 3043.98,-223.132"/>
</g>
<!-- Node25 -->
<g id="node49" class="node"><title>Node25</title>
<a xlink:href="_c_b___energy_8cc.html" target="_top" xlink:title="src/calibration/modules\l/CB_Energy.cc">
<polygon fill="white" stroke="black" points="3069.5,-151 3069.5,-185 3186.5,-185 3186.5,-151 3069.5,-151"/>
<text text-anchor="start" x="3077.5" y="-172" font-family="Helvetica,sans-Serif" font-size="10.00">src/calibration/modules</text>
<text text-anchor="middle" x="3128" y="-159" font-family="Helvetica,sans-Serif" font-size="10.00">/CB_Energy.cc</text>
</a>
</g>
<!-- Node1&#45;&gt;Node25 -->
<g id="edge48" class="edge"><title>Node1&#45;&gt;Node25</title>
<path fill="none" stroke="midnightblue" d="M3079.91,-220.527C3089.89,-209.63 3102.43,-195.928 3112.21,-185.251"/>
<polygon fill="midnightblue" stroke="midnightblue" points="3077.04,-218.477 3072.87,-228.217 3082.21,-223.204 3077.04,-218.477"/>
</g>
<!-- Node26 -->
<g id="node51" class="node"><title>Node26</title>
<a xlink:href="_c_b___time_walk_8cc.html" target="_top" xlink:title="src/calibration/modules\l/CB_TimeWalk.cc">
<polygon fill="white" stroke="black" points="3203.5,-151 3203.5,-185 3320.5,-185 3320.5,-151 3203.5,-151"/>
<text text-anchor="start" x="3211.5" y="-172" font-family="Helvetica,sans-Serif" font-size="10.00">src/calibration/modules</text>
<text text-anchor="middle" x="3262" y="-159" font-family="Helvetica,sans-Serif" font-size="10.00">/CB_TimeWalk.cc</text>
</a>
</g>
<!-- Node1&#45;&gt;Node26 -->
<g id="edge50" class="edge"><title>Node1&#45;&gt;Node26</title>
<path fill="none" stroke="midnightblue" d="M3102.22,-225.058C3128.48,-215.717 3163.82,-203.136 3195,-192 3201.28,-189.756 3207.9,-187.391 3214.42,-185.055"/>
<polygon fill="midnightblue" stroke="midnightblue" points="3100.88,-221.821 3092.63,-228.47 3103.22,-228.416 3100.88,-221.821"/>
</g>
<!-- Node27 -->
<g id="node53" class="node"><title>Node27</title>
<a xlink:href="_energy_8cc.html" target="_top" xlink:title="src/calibration/modules\l/Energy.cc">
<polygon fill="white" stroke="black" points="3337.5,-151 3337.5,-185 3454.5,-185 3454.5,-151 3337.5,-151"/>
<text text-anchor="start" x="3345.5" y="-172" font-family="Helvetica,sans-Serif" font-size="10.00">src/calibration/modules</text>
<text text-anchor="middle" x="3396" y="-159" font-family="Helvetica,sans-Serif" font-size="10.00">/Energy.cc</text>
</a>
</g>
<!-- Node1&#45;&gt;Node27 -->
<g id="edge52" class="edge"><title>Node1&#45;&gt;Node27</title>
<path fill="none" stroke="midnightblue" d="M3120.74,-231.671C3175.04,-224.106 3258.31,-210.761 3329,-192 3336.4,-190.035 3344.15,-187.614 3351.64,-185.073"/>
<polygon fill="midnightblue" stroke="midnightblue" points="3120.05,-228.234 3110.61,-233.062 3121,-235.169 3120.05,-228.234"/>
</g>
<!-- Node28 -->
<g id="node55" class="node"><title>Node28</title>
<a xlink:href="_p_i_d___energy_8cc.html" target="_top" xlink:title="src/calibration/modules\l/PID_Energy.cc">
<polygon fill="white" stroke="black" points="3471.5,-151 3471.5,-185 3588.5,-185 3588.5,-151 3471.5,-151"/>
<text text-anchor="start" x="3479.5" y="-172" font-family="Helvetica,sans-Serif" font-size="10.00">src/calibration/modules</text>
<text text-anchor="middle" x="3530" y="-159" font-family="Helvetica,sans-Serif" font-size="10.00">/PID_Energy.cc</text>
</a>
</g>
<!-- Node1&#45;&gt;Node28 -->
<g id="edge54" class="edge"><title>Node1&#45;&gt;Node28</title>
<path fill="none" stroke="midnightblue" d="M3120.87,-236.324C3199.3,-231.765 3343.29,-220.088 3463,-192 3470.82,-190.165 3478.99,-187.715 3486.82,-185.08"/>
<polygon fill="midnightblue" stroke="midnightblue" points="3120.5,-232.839 3110.71,-236.895 3120.89,-239.828 3120.5,-232.839"/>
</g>
<!-- Node29 -->
<g id="node57" class="node"><title>Node29</title>
<a xlink:href="_p_i_d___phi_angle_8cc.html" target="_top" xlink:title="src/calibration/modules\l/PID_PhiAngle.cc">
<polygon fill="white" stroke="black" points="3605.5,-151 3605.5,-185 3722.5,-185 3722.5,-151 3605.5,-151"/>
<text text-anchor="start" x="3613.5" y="-172" font-family="Helvetica,sans-Serif" font-size="10.00">src/calibration/modules</text>
<text text-anchor="middle" x="3664" y="-159" font-family="Helvetica,sans-Serif" font-size="10.00">/PID_PhiAngle.cc</text>
</a>
</g>
<!-- Node1&#45;&gt;Node29 -->
<g id="edge56" class="edge"><title>Node1&#45;&gt;Node29</title>
<path fill="none" stroke="midnightblue" d="M3120.73,-235.791C3239.48,-228.885 3507.45,-211.637 3597,-192 3605.09,-190.227 3613.53,-187.738 3621.59,-185.029"/>
<polygon fill="midnightblue" stroke="midnightblue" points="3120.52,-232.298 3110.74,-236.369 3120.93,-239.286 3120.52,-232.298"/>
</g>
<!-- Node30 -->
<g id="node59" class="node"><title>Node30</title>
<a xlink:href="_scaler_8cc.html" target="_top" xlink:title="src/calibration/modules\l/Scaler.cc">
<polygon fill="white" stroke="black" points="3739.5,-151 3739.5,-185 3856.5,-185 3856.5,-151 3739.5,-151"/>
<text text-anchor="start" x="3747.5" y="-172" font-family="Helvetica,sans-Serif" font-size="10.00">src/calibration/modules</text>
<text text-anchor="middle" x="3798" y="-159" font-family="Helvetica,sans-Serif" font-size="10.00">/Scaler.cc</text>
</a>
</g>
<!-- Node1&#45;&gt;Node30 -->
<g id="edge58" class="edge"><title>Node1&#45;&gt;Node30</title>
<path fill="none" stroke="midnightblue" d="M3120.84,-236.962C3260.87,-231.699 3615.15,-216.343 3731,-192 3739.22,-190.272 3747.8,-187.769 3755.97,-185.024"/>
<polygon fill="midnightblue" stroke="midnightblue" points="3120.59,-233.468 3110.73,-237.338 3120.86,-240.463 3120.59,-233.468"/>
</g>
<!-- Node31 -->
<g id="node61" class="node"><title>Node31</title>
<a xlink:href="_time_8cc.html" target="_top" xlink:title="src/calibration/modules\l/Time.cc">
<polygon fill="white" stroke="black" points="3873.5,-151 3873.5,-185 3990.5,-185 3990.5,-151 3873.5,-151"/>
<text text-anchor="start" x="3881.5" y="-172" font-family="Helvetica,sans-Serif" font-size="10.00">src/calibration/modules</text>
<text text-anchor="middle" x="3932" y="-159" font-family="Helvetica,sans-Serif" font-size="10.00">/Time.cc</text>
</a>
</g>
<!-- Node1&#45;&gt;Node31 -->
<g id="edge60" class="edge"><title>Node1&#45;&gt;Node31</title>
<path fill="none" stroke="midnightblue" d="M3120.77,-237.751C3279.94,-233.968 3722.5,-221.072 3865,-192 3873.23,-190.32 3881.82,-187.84 3889.99,-185.102"/>
<polygon fill="midnightblue" stroke="midnightblue" points="3120.61,-234.253 3110.7,-237.987 3120.78,-241.251 3120.61,-234.253"/>
</g>
<!-- Node32 -->
<g id="node63" class="node"><title>Node32</title>
<a xlink:href="_setup_8h.html" target="_top" xlink:title="src/expconfig/setups\l/Setup.h">
<polygon fill="white" stroke="black" points="4045.5,-151 4045.5,-185 4152.5,-185 4152.5,-151 4045.5,-151"/>
<text text-anchor="start" x="4053.5" y="-172" font-family="Helvetica,sans-Serif" font-size="10.00">src/expconfig/setups</text>
<text text-anchor="middle" x="4099" y="-159" font-family="Helvetica,sans-Serif" font-size="10.00">/Setup.h</text>
</a>
</g>
<!-- Node1&#45;&gt;Node32 -->
<g id="edge62" class="edge"><title>Node1&#45;&gt;Node32</title>
<path fill="none" stroke="midnightblue" d="M3120.65,-238.431C3301.49,-236.295 3855.97,-226.99 4032,-192 4040.36,-190.338 4049.08,-187.828 4057.36,-185.049"/>
<polygon fill="midnightblue" stroke="midnightblue" points="3120.51,-234.932 3110.55,-238.547 3120.59,-241.932 3120.51,-234.932"/>
</g>
<!-- Node33 -->
<g id="node65" class="node"><title>Node33</title>
<a xlink:href="_exp_config_8cc.html" target="_top" xlink:title="src/expconfig/ExpConfig.cc">
<polygon fill="white" stroke="black" points="3825.5,-79.5 3825.5,-100.5 3962.5,-100.5 3962.5,-79.5 3825.5,-79.5"/>
<text text-anchor="middle" x="3894" y="-87.5" font-family="Helvetica,sans-Serif" font-size="10.00">src/expconfig/ExpConfig.cc</text>
</a>
</g>
<!-- Node1&#45;&gt;Node33 -->
<g id="edge78" class="edge"><title>Node1&#45;&gt;Node33</title>
<path fill="none" stroke="midnightblue" d="M3120.8,-238.267C3320.19,-235.461 3968.66,-223.907 3999,-192 4013.7,-176.541 4010.11,-162.211 3999,-144 3985.55,-121.952 3959.9,-108.526 3937.32,-100.576"/>
<polygon fill="midnightblue" stroke="midnightblue" points="3120.49,-234.771 3110.54,-238.41 3120.59,-241.771 3120.49,-234.771"/>
</g>
<!-- Node39 -->
<g id="node77" class="node"><title>Node39</title>
<a xlink:href="_setup_registry_8cc.html" target="_top" xlink:title="src/expconfig/setups\l/SetupRegistry.cc">
<polygon fill="white" stroke="black" points="4243.5,-73 4243.5,-107 4350.5,-107 4350.5,-73 4243.5,-73"/>
<text text-anchor="start" x="4251.5" y="-94" font-family="Helvetica,sans-Serif" font-size="10.00">src/expconfig/setups</text>
<text text-anchor="middle" x="4297" y="-81" font-family="Helvetica,sans-Serif" font-size="10.00">/SetupRegistry.cc</text>
</a>
</g>
<!-- Node1&#45;&gt;Node39 -->
<g id="edge80" class="edge"><title>Node1&#45;&gt;Node39</title>
<path fill="none" stroke="midnightblue" d="M3120.71,-237.859C3340.37,-233.343 4114.37,-215.802 4161,-192 4185.23,-179.63 4178.23,-161.578 4199,-144 4216.64,-129.066 4239.06,-116.347 4258,-107.012"/>
<polygon fill="midnightblue" stroke="midnightblue" points="3120.6,-234.36 3110.67,-238.064 3120.74,-241.359 3120.6,-234.36"/>
</g>
<!-- Node40 -->
<g id="node81" class="node"><title>Node40</title>
<a xlink:href="_candidate_builder_8cc.html" target="_top" xlink:title="src/reconstruct/Candidate\lBuilder.cc">
<polygon fill="white" stroke="black" points="4207.5,-151 4207.5,-185 4336.5,-185 4336.5,-151 4207.5,-151"/>
<text text-anchor="start" x="4215.5" y="-172" font-family="Helvetica,sans-Serif" font-size="10.00">src/reconstruct/Candidate</text>
<text text-anchor="middle" x="4272" y="-159" font-family="Helvetica,sans-Serif" font-size="10.00">Builder.cc</text>
</a>
</g>
<!-- Node1&#45;&gt;Node40 -->
<g id="edge82" class="edge"><title>Node1&#45;&gt;Node40</title>
<path fill="none" stroke="midnightblue" d="M3120.53,-238.559C3320.48,-236.722 3984.34,-227.992 4194,-192 4203.64,-190.346 4213.74,-187.84 4223.37,-185.061"/>
<polygon fill="midnightblue" stroke="midnightblue" points="3120.5,-235.059 3110.53,-238.649 3120.56,-242.059 3120.5,-235.059"/>
</g>
<!-- Node41 -->
<g id="node83" class="node"><title>Node41</title>
<a xlink:href="_clustering_8cc.html" target="_top" xlink:title="src/reconstruct/Clustering.cc">
<polygon fill="white" stroke="black" points="4353.5,-157.5 4353.5,-178.5 4496.5,-178.5 4496.5,-157.5 4353.5,-157.5"/>
<text text-anchor="middle" x="4425" y="-165.5" font-family="Helvetica,sans-Serif" font-size="10.00">src/reconstruct/Clustering.cc</text>
</a>
</g>
<!-- Node1&#45;&gt;Node41 -->
<g id="edge84" class="edge"><title>Node1&#45;&gt;Node41</title>
<path fill="none" stroke="midnightblue" d="M3120.77,-238.833C3337.85,-237.904 4104.49,-231.814 4345,-192 4362.31,-189.135 4381.13,-183.616 4396.16,-178.593"/>
<polygon fill="midnightblue" stroke="midnightblue" points="3120.54,-235.334 3110.56,-238.875 3120.57,-242.334 3120.54,-235.334"/>
</g>
<!-- Node42 -->
<g id="node85" class="node"><title>Node42</title>
<a xlink:href="_reconstruct_8cc.html" target="_top" xlink:title="src/reconstruct/Reconstruct.cc">
<polygon fill="white" stroke="black" points="4514,-157.5 4514,-178.5 4666,-178.5 4666,-157.5 4514,-157.5"/>
<text text-anchor="middle" x="4590" y="-165.5" font-family="Helvetica,sans-Serif" font-size="10.00">src/reconstruct/Reconstruct.cc</text>
</a>
</g>
<!-- Node1&#45;&gt;Node42 -->
<g id="edge86" class="edge"><title>Node1&#45;&gt;Node42</title>
<path fill="none" stroke="midnightblue" d="M3120.88,-237.943C3372.74,-233.232 4366.83,-213.431 4505,-192 4523.33,-189.156 4543.33,-183.639 4559.31,-178.611"/>
<polygon fill="midnightblue" stroke="midnightblue" points="3120.77,-234.445 3110.84,-238.13 3120.9,-241.443 3120.77,-234.445"/>
</g>
<!-- Node43 -->
<g id="node87" class="node"><title>Node43</title>
<a xlink:href="_updateable_manager_8cc.html" target="_top" xlink:title="src/reconstruct/Updateable\lManager.cc">
<polygon fill="white" stroke="black" points="4684,-151 4684,-185 4818,-185 4818,-151 4684,-151"/>
<text text-anchor="start" x="4692" y="-172" font-family="Helvetica,sans-Serif" font-size="10.00">src/reconstruct/Updateable</text>
<text text-anchor="middle" x="4751" y="-159" font-family="Helvetica,sans-Serif" font-size="10.00">Manager.cc</text>
</a>
</g>
<!-- Node1&#45;&gt;Node43 -->
<g id="edge88" class="edge"><title>Node1&#45;&gt;Node43</title>
<path fill="none" stroke="midnightblue" d="M3120.93,-238.26C3390.98,-234.683 4519.63,-218.272 4675,-192 4684.55,-190.385 4694.56,-187.859 4704.06,-185.041"/>
<polygon fill="midnightblue" stroke="midnightblue" points="3120.53,-234.765 3110.57,-238.397 3120.62,-241.764 3120.53,-234.765"/>
</g>
<!-- Node44 -->
<g id="node89" class="node"><title>Node44</title>
<a xlink:href="_unpacker_reader_8cc.html" target="_top" xlink:title="src/tree/UnpackerReader.cc">
<polygon fill="white" stroke="black" points="4836,-157.5 4836,-178.5 4976,-178.5 4976,-157.5 4836,-157.5"/>
<text text-anchor="middle" x="4906" y="-165.5" font-family="Helvetica,sans-Serif" font-size="10.00">src/tree/UnpackerReader.cc</text>
</a>
</g>
<!-- Node1&#45;&gt;Node44 -->
<g id="edge90" class="edge"><title>Node1&#45;&gt;Node44</title>
<path fill="none" stroke="midnightblue" d="M3120.77,-238.381C3405.83,-235.203 4655.71,-219.782 4827,-192 4844.26,-189.2 4863.01,-183.618 4877.91,-178.542"/>
<polygon fill="midnightblue" stroke="midnightblue" points="3120.61,-234.883 3110.65,-238.493 3120.68,-241.882 3120.61,-234.883"/>
</g>
<!-- Node45 -->
<g id="node91" class="node"><title>Node45</title>
<a xlink:href="_unpacker_writer_8cc.html" target="_top" xlink:title="src/tree/UnpackerWriter.cc">
<polygon fill="white" stroke="black" points="4994,-157.5 4994,-178.5 5128,-178.5 5128,-157.5 4994,-157.5"/>
<text text-anchor="middle" x="5061" y="-165.5" font-family="Helvetica,sans-Serif" font-size="10.00">src/tree/UnpackerWriter.cc</text>
</a>
</g>
<!-- Node1&#45;&gt;Node45 -->
<g id="edge92" class="edge"><title>Node1&#45;&gt;Node45</title>
<path fill="none" stroke="midnightblue" d="M3121.01,-238.552C3421.82,-236.101 4797.5,-223.253 4985,-192 5001.65,-189.225 5019.69,-183.644 5034.02,-178.562"/>
<polygon fill="midnightblue" stroke="midnightblue" points="3120.74,-235.054 3110.76,-238.635 3120.79,-242.054 3120.74,-235.054"/>
</g>
<!-- Node46 -->
<g id="node93" class="node"><title>Node46</title>
<a xlink:href="_unpacker_acqu__detail_8cc.html" target="_top" xlink:title="src/unpacker/detail\l/UnpackerAcqu_detail.cc">
<polygon fill="white" stroke="black" points="5146,-151 5146,-185 5272,-185 5272,-151 5146,-151"/>
<text text-anchor="start" x="5154" y="-172" font-family="Helvetica,sans-Serif" font-size="10.00">src/unpacker/detail</text>
<text text-anchor="middle" x="5209" y="-159" font-family="Helvetica,sans-Serif" font-size="10.00">/UnpackerAcqu_detail.cc</text>
</a>
</g>
<!-- Node1&#45;&gt;Node46 -->
<g id="edge94" class="edge"><title>Node1&#45;&gt;Node46</title>
<path fill="none" stroke="midnightblue" d="M3120.98,-238.719C3435.87,-237.053 4933.95,-227.317 5137,-192 5146.09,-190.42 5155.59,-187.909 5164.6,-185.095"/>
<polygon fill="midnightblue" stroke="midnightblue" points="3120.69,-235.22 3110.71,-238.772 3120.73,-242.22 3120.69,-235.22"/>
</g>
<!-- Node47 -->
<g id="node95" class="node"><title>Node47</title>
<a xlink:href="_unpacker_acqu___file_format_mk2_8cc.html" target="_top" xlink:title="src/unpacker/detail\l/UnpackerAcqu_FileFormatMk2.cc">
<polygon fill="white" stroke="black" points="5290,-151 5290,-185 5458,-185 5458,-151 5290,-151"/>
<text text-anchor="start" x="5298" y="-172" font-family="Helvetica,sans-Serif" font-size="10.00">src/unpacker/detail</text>
<text text-anchor="middle" x="5374" y="-159" font-family="Helvetica,sans-Serif" font-size="10.00">/UnpackerAcqu_FileFormatMk2.cc</text>
</a>
</g>
<!-- Node1&#45;&gt;Node47 -->
<g id="edge96" class="edge"><title>Node1&#45;&gt;Node47</title>
<path fill="none" stroke="midnightblue" d="M3120.72,-238.575C3447.79,-236.061 5061.72,-222.202 5281,-192 5292.56,-190.407 5304.76,-187.891 5316.37,-185.076"/>
<polygon fill="midnightblue" stroke="midnightblue" points="3120.49,-235.077 3110.52,-238.653 3120.55,-242.076 3120.49,-235.077"/>
</g>
<!-- Node48 -->
<g id="node97" class="node"><title>Node48</title>
<a xlink:href="_raw_file_reader_8cc.html" target="_top" xlink:title="src/unpacker/RawFileReader.cc">
<polygon fill="white" stroke="black" points="5475.5,-157.5 5475.5,-178.5 5632.5,-178.5 5632.5,-157.5 5475.5,-157.5"/>
<text text-anchor="middle" x="5554" y="-165.5" font-family="Helvetica,sans-Serif" font-size="10.00">src/unpacker/RawFileReader.cc</text>
</a>
</g>
<!-- Node1&#45;&gt;Node48 -->
<g id="edge98" class="edge"><title>Node1&#45;&gt;Node48</title>
<path fill="none" stroke="midnightblue" d="M3120.83,-238.733C3464.23,-237.035 5228.52,-226.668 5467,-192 5485.92,-189.25 5506.56,-183.671 5522.99,-178.583"/>
<polygon fill="midnightblue" stroke="midnightblue" points="3120.6,-235.234 3110.62,-238.783 3120.64,-242.234 3120.6,-235.234"/>
</g>
<!-- Node49 -->
<g id="node99" class="node"><title>Node49</title>
<a xlink:href="_unpacker_8cc.html" target="_top" xlink:title="src/unpacker/Unpacker.cc">
<polygon fill="white" stroke="black" points="5649.5,-157.5 5649.5,-178.5 5780.5,-178.5 5780.5,-157.5 5649.5,-157.5"/>
<text text-anchor="middle" x="5715" y="-165.5" font-family="Helvetica,sans-Serif" font-size="10.00">src/unpacker/Unpacker.cc</text>
</a>
</g>
<!-- Node1&#45;&gt;Node49 -->
<g id="edge100" class="edge"><title>Node1&#45;&gt;Node49</title>
<path fill="none" stroke="midnightblue" d="M3120.87,-238.428C3490.77,-234.715 5512.68,-213.489 5641,-192 5657.25,-189.279 5674.82,-183.7 5688.76,-178.606"/>
<polygon fill="midnightblue" stroke="midnightblue" points="3120.63,-234.931 3110.66,-238.531 3120.7,-241.93 3120.63,-234.931"/>
</g>
<!-- Node50 -->
<g id="node101" class="node"><title>Node50</title>
<a xlink:href="_unpacker_a2_geant_8cc.html" target="_top" xlink:title="src/unpacker/UnpackerA2Geant.cc">
<polygon fill="white" stroke="black" points="5798,-157.5 5798,-178.5 5968,-178.5 5968,-157.5 5798,-157.5"/>
<text text-anchor="middle" x="5883" y="-165.5" font-family="Helvetica,sans-Serif" font-size="10.00">src/unpacker/UnpackerA2Geant.cc</text>
</a>
</g>
<!-- Node1&#45;&gt;Node50 -->
<g id="edge102" class="edge"><title>Node1&#45;&gt;Node50</title>
<path fill="none" stroke="midnightblue" d="M3120.73,-238.811C3490.19,-237.497 5516.31,-228.652 5789,-192 5809.37,-189.263 5831.67,-183.684 5849.44,-178.593"/>
<polygon fill="midnightblue" stroke="midnightblue" points="3120.53,-235.312 3110.54,-238.847 3120.55,-242.312 3120.53,-235.312"/>
</g>
<!-- Node51 -->
<g id="node103" class="node"><title>Node51</title>
<a xlink:href="_unpacker_acqu_8cc.html" target="_top" xlink:title="src/unpacker/UnpackerAcqu.cc">
<polygon fill="white" stroke="black" points="5986,-157.5 5986,-178.5 6140,-178.5 6140,-157.5 5986,-157.5"/>
<text text-anchor="middle" x="6063" y="-165.5" font-family="Helvetica,sans-Serif" font-size="10.00">src/unpacker/UnpackerAcqu.cc</text>
</a>
</g>
<!-- Node1&#45;&gt;Node51 -->
<g id="edge104" class="edge"><title>Node1&#45;&gt;Node51</title>
<path fill="none" stroke="midnightblue" d="M3120.73,-238.957C3504.87,-238.552 5684.94,-234.39 5977,-192 5995.72,-189.284 6016.12,-183.706 6032.36,-178.61"/>
<polygon fill="midnightblue" stroke="midnightblue" points="3120.67,-235.457 3110.68,-238.967 3120.68,-242.457 3120.67,-235.457"/>
</g>
<!-- Node52 -->
<g id="node105" class="node"><title>Node52</title>
<a xlink:href="_test_physics_manager_8cc.html" target="_top" xlink:title="test/analysis/TestPhysics\lManager.cc">
<polygon fill="white" stroke="black" points="6158,-151 6158,-185 6288,-185 6288,-151 6158,-151"/>
<text text-anchor="start" x="6166" y="-172" font-family="Helvetica,sans-Serif" font-size="10.00">test/analysis/TestPhysics</text>
<text text-anchor="middle" x="6223" y="-159" font-family="Helvetica,sans-Serif" font-size="10.00">Manager.cc</text>
</a>
</g>
<!-- Node1&#45;&gt;Node52 -->
<g id="edge106" class="edge"><title>Node1&#45;&gt;Node52</title>
<path fill="none" stroke="midnightblue" d="M3120.82,-238.609C3531.4,-235.771 5993.99,-217.72 6149,-192 6158.46,-190.43 6168.36,-187.885 6177.74,-185.027"/>
<polygon fill="midnightblue" stroke="midnightblue" points="3120.64,-235.11 3110.67,-238.679 3120.69,-242.11 3120.64,-235.11"/>
</g>
<!-- Node32&#45;&gt;Node33 -->
<g id="edge64" class="edge"><title>Node32&#45;&gt;Node33</title>
<path fill="none" stroke="midnightblue" d="M4044.74,-147.355C4005.13,-132.284 3953.07,-112.476 3921.65,-100.52"/>
<polygon fill="midnightblue" stroke="midnightblue" points="4043.67,-150.694 4054.27,-150.979 4046.16,-144.152 4043.67,-150.694"/>
</g>
<!-- Node34 -->
<g id="node67" class="node"><title>Node34</title>
<a xlink:href="_setup__2014___e_p_t_8h.html" target="_top" xlink:title="src/expconfig/setups\l/Setup_2014_EPT.h">
<polygon fill="white" stroke="black" points="3979.5,-73 3979.5,-107 4086.5,-107 4086.5,-73 3979.5,-73"/>
<text text-anchor="start" x="3987.5" y="-94" font-family="Helvetica,sans-Serif" font-size="10.00">src/expconfig/setups</text>
<text text-anchor="middle" x="4033" y="-81" font-family="Helvetica,sans-Serif" font-size="10.00">/Setup_2014_EPT.h</text>
</a>
</g>
<!-- Node32&#45;&gt;Node34 -->
<g id="edge66" class="edge"><title>Node32&#45;&gt;Node34</title>
<path fill="none" stroke="midnightblue" d="M4077.84,-142.988C4067.97,-131.333 4056.49,-117.755 4047.61,-107.262"/>
<polygon fill="midnightblue" stroke="midnightblue" points="4075.22,-145.316 4084.35,-150.689 4080.56,-140.795 4075.22,-145.316"/>
</g>
<!-- Node38 -->
<g id="node75" class="node"><title>Node38</title>
<a xlink:href="_setup__2015__dummy_8cc.html" target="_top" xlink:title="src/expconfig/setups\l/Setup_2015_dummy.cc">
<polygon fill="white" stroke="black" points="4104,-73 4104,-107 4226,-107 4226,-73 4104,-73"/>
<text text-anchor="start" x="4112" y="-94" font-family="Helvetica,sans-Serif" font-size="10.00">src/expconfig/setups</text>
<text text-anchor="middle" x="4165" y="-81" font-family="Helvetica,sans-Serif" font-size="10.00">/Setup_2015_dummy.cc</text>
</a>
</g>
<!-- Node32&#45;&gt;Node38 -->
<g id="edge74" class="edge"><title>Node32&#45;&gt;Node38</title>
<path fill="none" stroke="midnightblue" d="M4120.16,-142.988C4130.03,-131.333 4141.51,-117.755 4150.39,-107.262"/>
<polygon fill="midnightblue" stroke="midnightblue" points="4117.44,-140.795 4113.65,-150.689 4122.78,-145.316 4117.44,-140.795"/>
</g>
<!-- Node32&#45;&gt;Node39 -->
<g id="edge76" class="edge"><title>Node32&#45;&gt;Node39</title>
<path fill="none" stroke="midnightblue" d="M4152.04,-147.106C4183.83,-134.581 4223.75,-118.854 4253.65,-107.078"/>
<polygon fill="midnightblue" stroke="midnightblue" points="4150.47,-143.961 4142.45,-150.883 4153.04,-150.474 4150.47,-143.961"/>
</g>
<!-- Node35 -->
<g id="node69" class="node"><title>Node35</title>
<a xlink:href="_setup__2014__07___e_p_t___prod_8cc.html" target="_top" xlink:title="src/expconfig/setups\l/Setup_2014_07_EPT_Prod.cc">
<polygon fill="white" stroke="black" points="3789.5,-1 3789.5,-35 3940.5,-35 3940.5,-1 3789.5,-1"/>
<text text-anchor="start" x="3797.5" y="-22" font-family="Helvetica,sans-Serif" font-size="10.00">src/expconfig/setups</text>
<text text-anchor="middle" x="3865" y="-9" font-family="Helvetica,sans-Serif" font-size="10.00">/Setup_2014_07_EPT_Prod.cc</text>
</a>
</g>
<!-- Node34&#45;&gt;Node35 -->
<g id="edge68" class="edge"><title>Node34&#45;&gt;Node35</title>
<path fill="none" stroke="midnightblue" d="M3983.82,-68.9238C3958.68,-58.1485 3928.48,-45.2059 3904.82,-35.0651"/>
<polygon fill="midnightblue" stroke="midnightblue" points="3982.62,-72.2148 3993.19,-72.937 3985.37,-65.7807 3982.62,-72.2148"/>
</g>
<!-- Node36 -->
<g id="node71" class="node"><title>Node36</title>
<a xlink:href="_setup__2014__10___e_p_t___prod_8cc.html" target="_top" xlink:title="src/expconfig/setups\l/Setup_2014_10_EPT_Prod.cc">
<polygon fill="white" stroke="black" points="3957.5,-1 3957.5,-35 4108.5,-35 4108.5,-1 3957.5,-1"/>
<text text-anchor="start" x="3965.5" y="-22" font-family="Helvetica,sans-Serif" font-size="10.00">src/expconfig/setups</text>
<text text-anchor="middle" x="4033" y="-9" font-family="Helvetica,sans-Serif" font-size="10.00">/Setup_2014_10_EPT_Prod.cc</text>
</a>
</g>
<!-- Node34&#45;&gt;Node36 -->
<g id="edge70" class="edge"><title>Node34&#45;&gt;Node36</title>
<path fill="none" stroke="midnightblue" d="M4033,-62.7193C4033,-53.572 4033,-43.6255 4033,-35.4407"/>
<polygon fill="midnightblue" stroke="midnightblue" points="4029.5,-62.937 4033,-72.937 4036.5,-62.937 4029.5,-62.937"/>
</g>
<!-- Node37 -->
<g id="node73" class="node"><title>Node37</title>
<a xlink:href="_setup__2014__12___e_p_t___prod_8cc.html" target="_top" xlink:title="src/expconfig/setups\l/Setup_2014_12_EPT_Prod.cc">
<polygon fill="white" stroke="black" points="4125.5,-1 4125.5,-35 4276.5,-35 4276.5,-1 4125.5,-1"/>
<text text-anchor="start" x="4133.5" y="-22" font-family="Helvetica,sans-Serif" font-size="10.00">src/expconfig/setups</text>
<text text-anchor="middle" x="4201" y="-9" font-family="Helvetica,sans-Serif" font-size="10.00">/Setup_2014_12_EPT_Prod.cc</text>
</a>
</g>
<!-- Node34&#45;&gt;Node37 -->
<g id="edge72" class="edge"><title>Node34&#45;&gt;Node37</title>
<path fill="none" stroke="midnightblue" d="M4082.18,-68.9238C4107.32,-58.1485 4137.52,-45.2059 4161.18,-35.0651"/>
<polygon fill="midnightblue" stroke="midnightblue" points="4080.63,-65.7807 4072.81,-72.937 4083.38,-72.2148 4080.63,-65.7807"/>
</g>
</g>
</svg>
