<?xml version="1.0" encoding="UTF-8" standalone="no"?>
<!DOCTYPE svg PUBLIC "-//W3C//DTD SVG 1.1//EN"
 "http://www.w3.org/Graphics/SVG/1.1/DTD/svg11.dtd">
<!-- Generated by graphviz version 2.26.3 (20100126.1600)
 -->
<!-- Title: src/analysis/physics/misc/MCSingleParticles.h Pages: 1 -->
<svg width="484pt" height="276pt"
 viewBox="0.00 0.00 484.00 276.00" xmlns="http://www.w3.org/2000/svg" xmlns:xlink="http://www.w3.org/1999/xlink">
<g id="graph1" class="graph" transform="scale(1 1) rotate(0) translate(4 272)">
<title>src/analysis/physics/misc/MCSingleParticles.h</title>
<polygon fill="white" stroke="white" points="-4,5 -4,-272 481,-272 481,5 -4,5"/>
<!-- Node1 -->
<g id="node1" class="node"><title>Node1</title>
<polygon fill="#bfbfbf" stroke="black" points="19.5,-233 19.5,-267 152.5,-267 152.5,-233 19.5,-233"/>
<text text-anchor="start" x="27.5" y="-254" font-family="Helvetica,sans-Serif" font-size="10.00">src/analysis/physics</text>
<text text-anchor="middle" x="86" y="-241" font-family="Helvetica,sans-Serif" font-size="10.00">/misc/MCSingleParticles.h</text>
</g>
<!-- Node2 -->
<g id="node3" class="node"><title>Node2</title>
<polygon fill="white" stroke="#bfbfbf" points="-0.5,-174.5 -0.5,-195.5 74.5,-195.5 74.5,-174.5 -0.5,-174.5"/>
<text text-anchor="middle" x="37" y="-182.5" font-family="Helvetica,sans-Serif" font-size="10.00">AntPhysics.h</text>
</g>
<!-- Node1&#45;&gt;Node2 -->
<g id="edge2" class="edge"><title>Node1&#45;&gt;Node2</title>
<path fill="none" stroke="midnightblue" d="M73.1258,-232.922C66.4216,-224.029 58.2054,-213.13 51.3033,-203.974"/>
<polygon fill="midnightblue" stroke="midnightblue" points="53.9953,-201.73 45.1808,-195.852 48.4056,-205.944 53.9953,-201.73"/>
</g>
<!-- Node3 -->
<g id="node5" class="node"><title>Node3</title>
<a xlink:href="_histogram_8h.html" target="_top" xlink:title="plot/Histogram.h">
<polygon fill="white" stroke="black" points="91.5,-174.5 91.5,-195.5 180.5,-195.5 180.5,-174.5 91.5,-174.5"/>
<text text-anchor="middle" x="136" y="-182.5" font-family="Helvetica,sans-Serif" font-size="10.00">plot/Histogram.h</text>
</a>
</g>
<!-- Node1&#45;&gt;Node3 -->
<g id="edge4" class="edge"><title>Node1&#45;&gt;Node3</title>
<path fill="none" stroke="midnightblue" d="M99.1369,-232.922C105.978,-224.029 114.362,-213.13 121.405,-203.974"/>
<polygon fill="midnightblue" stroke="midnightblue" points="124.329,-205.912 127.652,-195.852 118.781,-201.644 124.329,-205.912"/>
</g>
<!-- Node4 -->
<g id="node7" class="node"><title>Node4</title>
<polygon fill="white" stroke="#bfbfbf" points="30,-116.5 30,-137.5 84,-137.5 84,-116.5 30,-116.5"/>
<text text-anchor="middle" x="57" y="-124.5" font-family="Helvetica,sans-Serif" font-size="10.00">TColor.h</text>
</g>
<!-- Node3&#45;&gt;Node4 -->
<g id="edge6" class="edge"><title>Node3&#45;&gt;Node4</title>
<path fill="none" stroke="midnightblue" d="M121.51,-174.362C109.817,-165.777 93.1573,-153.546 79.6969,-143.664"/>
<polygon fill="midnightblue" stroke="midnightblue" points="81.5301,-140.667 71.398,-137.571 77.3874,-146.31 81.5301,-140.667"/>
</g>
<!-- Node5 -->
<g id="node9" class="node"><title>Node5</title>
<polygon fill="white" stroke="#bfbfbf" points="162,-0.5 162,-21.5 206,-21.5 206,-0.5 162,-0.5"/>
<text text-anchor="middle" x="184" y="-8.5" font-family="Helvetica,sans-Serif" font-size="10.00">vector</text>
</g>
<!-- Node3&#45;&gt;Node5 -->
<g id="edge8" class="edge"><title>Node3&#45;&gt;Node5</title>
<path fill="none" stroke="midnightblue" d="M132.484,-174.189C125.742,-151.48 113.169,-97.6441 131,-58 136.518,-45.7325 146.995,-35.3682 157.187,-27.52"/>
<polygon fill="midnightblue" stroke="midnightblue" points="159.464,-30.1944 165.566,-21.5328 155.395,-24.499 159.464,-30.1944"/>
</g>
<!-- Node6 -->
<g id="node11" class="node"><title>Node6</title>
<polygon fill="white" stroke="#bfbfbf" points="139.5,-116.5 139.5,-137.5 180.5,-137.5 180.5,-116.5 139.5,-116.5"/>
<text text-anchor="middle" x="160" y="-124.5" font-family="Helvetica,sans-Serif" font-size="10.00">string</text>
</g>
<!-- Node3&#45;&gt;Node6 -->
<g id="edge10" class="edge"><title>Node3&#45;&gt;Node6</title>
<path fill="none" stroke="midnightblue" d="M140.402,-174.362C143.582,-166.677 147.972,-156.069 151.79,-146.84"/>
<polygon fill="midnightblue" stroke="midnightblue" points="155.036,-148.149 155.626,-137.571 148.568,-145.473 155.036,-148.149"/>
</g>
<!-- Node7 -->
<g id="node13" class="node"><title>Node7</title>
<a xlink:href="interval_8h.html" target="_top" xlink:title="base/interval.h">
<polygon fill="white" stroke="black" points="242,-116.5 242,-137.5 322,-137.5 322,-116.5 242,-116.5"/>
<text text-anchor="middle" x="282" y="-124.5" font-family="Helvetica,sans-Serif" font-size="10.00">base/interval.h</text>
</a>
</g>
<!-- Node3&#45;&gt;Node7 -->
<g id="edge12" class="edge"><title>Node3&#45;&gt;Node7</title>
<path fill="none" stroke="midnightblue" d="M162.439,-174.497C185.756,-165.234 219.95,-151.65 245.804,-141.379"/>
<polygon fill="midnightblue" stroke="midnightblue" points="247.263,-144.566 255.264,-137.621 244.678,-138.06 247.263,-144.566"/>
</g>
<!-- Node8 -->
<g id="node15" class="node"><title>Node8</title>
<polygon fill="white" stroke="#bfbfbf" points="140,-58.5 140,-79.5 196,-79.5 196,-58.5 140,-58.5"/>
<text text-anchor="middle" x="168" y="-66.5" font-family="Helvetica,sans-Serif" font-size="10.00">algorithm</text>
</g>
<!-- Node7&#45;&gt;Node8 -->
<g id="edge14" class="edge"><title>Node7&#45;&gt;Node8</title>
<path fill="none" stroke="midnightblue" d="M261.355,-116.497C243.63,-107.479 217.855,-94.3649 197.877,-84.2006"/>
<polygon fill="midnightblue" stroke="midnightblue" points="199.376,-81.0364 188.876,-79.6212 196.202,-87.2753 199.376,-81.0364"/>
</g>
<!-- Node9 -->
<g id="node17" class="node"><title>Node9</title>
<polygon fill="white" stroke="#bfbfbf" points="213.5,-58.5 213.5,-79.5 272.5,-79.5 272.5,-58.5 213.5,-58.5"/>
<text text-anchor="middle" x="243" y="-66.5" font-family="Helvetica,sans-Serif" font-size="10.00">stdexcept</text>
</g>
<!-- Node7&#45;&gt;Node9 -->
<g id="edge16" class="edge"><title>Node7&#45;&gt;Node9</title>
<path fill="none" stroke="midnightblue" d="M274.847,-116.362C269.514,-108.431 262.089,-97.3885 255.749,-87.9606"/>
<polygon fill="midnightblue" stroke="midnightblue" points="258.592,-85.9161 250.108,-79.5707 252.783,-89.8221 258.592,-85.9161"/>
</g>
<!-- Node10 -->
<g id="node19" class="node"><title>Node10</title>
<a xlink:href="printable_8h.html" target="_top" xlink:title="printable.h">
<polygon fill="white" stroke="black" points="290,-58.5 290,-79.5 352,-79.5 352,-58.5 290,-58.5"/>
<text text-anchor="middle" x="321" y="-66.5" font-family="Helvetica,sans-Serif" font-size="10.00">printable.h</text>
</a>
</g>
<!-- Node7&#45;&gt;Node10 -->
<g id="edge18" class="edge"><title>Node7&#45;&gt;Node10</title>
<path fill="none" stroke="midnightblue" d="M289.153,-116.362C294.486,-108.431 301.911,-97.3885 308.251,-87.9606"/>
<polygon fill="midnightblue" stroke="midnightblue" points="311.217,-89.8221 313.892,-79.5707 305.408,-85.9161 311.217,-89.8221"/>
</g>
<!-- Node12 -->
<g id="node24" class="node"><title>Node12</title>
<a xlink:href="types_8h.html" target="_top" xlink:title="types.h">
<polygon fill="white" stroke="black" points="369.5,-58.5 369.5,-79.5 418.5,-79.5 418.5,-58.5 369.5,-58.5"/>
<text text-anchor="middle" x="394" y="-66.5" font-family="Helvetica,sans-Serif" font-size="10.00">types.h</text>
</a>
</g>
<!-- Node7&#45;&gt;Node12 -->
<g id="edge24" class="edge"><title>Node7&#45;&gt;Node12</title>
<path fill="none" stroke="midnightblue" d="M302.282,-116.497C319.618,-107.519 344.79,-94.4835 364.38,-84.3387"/>
<polygon fill="midnightblue" stroke="midnightblue" points="366.22,-87.3278 373.49,-79.6212 363.001,-81.1118 366.22,-87.3278"/>
</g>
<!-- Node13 -->
<g id="node26" class="node"><title>Node13</title>
<polygon fill="white" stroke="#bfbfbf" points="436,-58.5 436,-79.5 476,-79.5 476,-58.5 436,-58.5"/>
<text text-anchor="middle" x="456" y="-66.5" font-family="Helvetica,sans-Serif" font-size="10.00">limits</text>
</g>
<!-- Node7&#45;&gt;Node13 -->
<g id="edge26" class="edge"><title>Node7&#45;&gt;Node13</title>
<path fill="none" stroke="midnightblue" d="M316.144,-116.453C343.612,-107.853 383.397,-95.1384 426.279,-80.1545"/>
<polygon fill="midnightblue" stroke="midnightblue" points="427.492,-83.4384 435.765,-76.8203 425.17,-76.8345 427.492,-83.4384"/>
</g>
<!-- Node10&#45;&gt;Node5 -->
<g id="edge20" class="edge"><title>Node10&#45;&gt;Node5</title>
<path fill="none" stroke="midnightblue" d="M296.19,-58.4966C273.59,-48.9287 240.1,-34.7506 215.595,-24.3758"/>
<polygon fill="midnightblue" stroke="midnightblue" points="216.93,-21.1406 206.357,-20.465 214.201,-27.5867 216.93,-21.1406"/>
</g>
<!-- Node11 -->
<g id="node22" class="node"><title>Node11</title>
<polygon fill="white" stroke="#bfbfbf" points="295,-0.5 295,-21.5 347,-21.5 347,-0.5 295,-0.5"/>
<text text-anchor="middle" x="321" y="-8.5" font-family="Helvetica,sans-Serif" font-size="10.00">ostream</text>
</g>
<!-- Node10&#45;&gt;Node11 -->
<g id="edge22" class="edge"><title>Node10&#45;&gt;Node11</title>
<path fill="none" stroke="midnightblue" d="M321,-58.3619C321,-50.9219 321,-40.7427 321,-31.7276"/>
<polygon fill="midnightblue" stroke="midnightblue" points="324.5,-31.5706 321,-21.5707 317.5,-31.5707 324.5,-31.5706"/>
</g>
</g>
</svg>
