<?xml version="1.0" encoding="UTF-8" standalone="no"?>
<!DOCTYPE svg PUBLIC "-//W3C//DTD SVG 1.1//EN"
 "http://www.w3.org/Graphics/SVG/1.1/DTD/svg11.dtd">
<!-- Generated by graphviz version 2.26.3 (20100126.1600)
 -->
<!-- Title: src/calibration/gui/Manager_traits.h Pages: 1 -->
<svg width="905pt" height="392pt"
 viewBox="0.00 0.00 904.81 392.00" xmlns="http://www.w3.org/2000/svg" xmlns:xlink="http://www.w3.org/1999/xlink">
<g id="graph1" class="graph" transform="scale(1 1) rotate(0) translate(4 388)">
<title>src/calibration/gui/Manager_traits.h</title>
<polygon fill="white" stroke="white" points="-4,5 -4,-388 901.811,-388 901.811,5 -4,5"/>
<!-- Node1 -->
<g id="node1" class="node"><title>Node1</title>
<polygon fill="#bfbfbf" stroke="black" points="728.311,-349 728.311,-383 821.311,-383 821.311,-349 728.311,-349"/>
<text text-anchor="start" x="736.311" y="-370" font-family="Helvetica,sans-Serif" font-size="10.00">src/calibration/gui</text>
<text text-anchor="middle" x="774.811" y="-357" font-family="Helvetica,sans-Serif" font-size="10.00">/Manager_traits.h</text>
</g>
<!-- Node2 -->
<g id="node3" class="node"><title>Node2</title>
<a xlink:href="interval_8h.html" target="_top" xlink:title="base/interval.h">
<polygon fill="white" stroke="black" points="93.8105,-174.5 93.8105,-195.5 173.811,-195.5 173.811,-174.5 93.8105,-174.5"/>
<text text-anchor="middle" x="133.811" y="-182.5" font-family="Helvetica,sans-Serif" font-size="10.00">base/interval.h</text>
</a>
</g>
<!-- Node1&#45;&gt;Node2 -->
<g id="edge2" class="edge"><title>Node1&#45;&gt;Node2</title>
<path fill="none" stroke="midnightblue" d="M728.195,-352.837C610.062,-319.48 299.909,-231.901 181.075,-198.346"/>
<polygon fill="midnightblue" stroke="midnightblue" points="181.757,-194.902 171.182,-195.553 179.854,-201.638 181.757,-194.902"/>
</g>
<!-- Node10 -->
<g id="node19" class="node"><title>Node10</title>
<a xlink:href="_t_header_info_8h.html" target="_top" xlink:title="tree/THeaderInfo.h">
<polygon fill="white" stroke="black" points="660.811,-290.5 660.811,-311.5 758.811,-311.5 758.811,-290.5 660.811,-290.5"/>
<text text-anchor="middle" x="709.811" y="-298.5" font-family="Helvetica,sans-Serif" font-size="10.00">tree/THeaderInfo.h</text>
</a>
</g>
<!-- Node1&#45;&gt;Node10 -->
<g id="edge18" class="edge"><title>Node1&#45;&gt;Node10</title>
<path fill="none" stroke="midnightblue" d="M757.733,-348.922C748.564,-339.754 737.264,-328.454 727.94,-319.129"/>
<polygon fill="midnightblue" stroke="midnightblue" points="730.209,-316.448 720.663,-311.852 725.259,-321.398 730.209,-316.448"/>
</g>
<!-- Node16 -->
<g id="node32" class="node"><title>Node16</title>
<polygon fill="white" stroke="#bfbfbf" points="627.311,-0.5 627.311,-21.5 668.311,-21.5 668.311,-0.5 627.311,-0.5"/>
<text text-anchor="middle" x="647.811" y="-8.5" font-family="Helvetica,sans-Serif" font-size="10.00">string</text>
</g>
<!-- Node1&#45;&gt;Node16 -->
<g id="edge62" class="edge"><title>Node1&#45;&gt;Node16</title>
<path fill="none" stroke="midnightblue" d="M791.125,-348.817C810.67,-326.357 840.811,-284.925 840.811,-243 840.811,-243 840.811,-243 840.811,-127 840.811,-52.234 733.095,-24.4377 678.605,-15.1597"/>
<polygon fill="midnightblue" stroke="midnightblue" points="678.891,-11.6612 668.465,-13.5426 677.789,-18.5738 678.891,-11.6612"/>
</g>
<!-- Node24 -->
<g id="node56" class="node"><title>Node24</title>
<polygon fill="white" stroke="#bfbfbf" points="868.311,-290.5 868.311,-311.5 897.311,-311.5 897.311,-290.5 868.311,-290.5"/>
<text text-anchor="middle" x="882.811" y="-298.5" font-family="Helvetica,sans-Serif" font-size="10.00">list</text>
</g>
<!-- Node1&#45;&gt;Node24 -->
<g id="edge64" class="edge"><title>Node1&#45;&gt;Node24</title>
<path fill="none" stroke="midnightblue" d="M803.186,-348.922C820.636,-338.42 842.732,-325.121 859.218,-315.199"/>
<polygon fill="midnightblue" stroke="midnightblue" points="861.436,-317.949 868.2,-309.794 857.827,-311.952 861.436,-317.949"/>
</g>
<!-- Node3 -->
<g id="node5" class="node"><title>Node3</title>
<polygon fill="white" stroke="#bfbfbf" points="123.811,-0.5 123.811,-21.5 179.811,-21.5 179.811,-0.5 123.811,-0.5"/>
<text text-anchor="middle" x="151.811" y="-8.5" font-family="Helvetica,sans-Serif" font-size="10.00">algorithm</text>
</g>
<!-- Node2&#45;&gt;Node3 -->
<g id="edge4" class="edge"><title>Node2&#45;&gt;Node3</title>
<path fill="none" stroke="midnightblue" d="M93.6993,-180.069C48.4962,-172.564 -16.2448,-154.818 3.81051,-116 26.8095,-71.4839 78.3568,-41.753 114.102,-25.6185"/>
<polygon fill="midnightblue" stroke="midnightblue" points="115.957,-28.6284 123.729,-21.4273 113.163,-22.2103 115.957,-28.6284"/>
</g>
<!-- Node4 -->
<g id="node7" class="node"><title>Node4</title>
<polygon fill="white" stroke="#bfbfbf" points="216.311,-116.5 216.311,-137.5 275.311,-137.5 275.311,-116.5 216.311,-116.5"/>
<text text-anchor="middle" x="245.811" y="-124.5" font-family="Helvetica,sans-Serif" font-size="10.00">stdexcept</text>
</g>
<!-- Node2&#45;&gt;Node4 -->
<g id="edge6" class="edge"><title>Node2&#45;&gt;Node4</title>
<path fill="none" stroke="midnightblue" d="M154.093,-174.497C171.428,-165.519 196.601,-152.484 216.191,-142.339"/>
<polygon fill="midnightblue" stroke="midnightblue" points="218.03,-145.328 225.301,-137.621 214.811,-139.112 218.03,-145.328"/>
</g>
<!-- Node5 -->
<g id="node9" class="node"><title>Node5</title>
<a xlink:href="printable_8h.html" target="_top" xlink:title="printable.h">
<polygon fill="white" stroke="black" points="136.811,-116.5 136.811,-137.5 198.811,-137.5 198.811,-116.5 136.811,-116.5"/>
<text text-anchor="middle" x="167.811" y="-124.5" font-family="Helvetica,sans-Serif" font-size="10.00">printable.h</text>
</a>
</g>
<!-- Node2&#45;&gt;Node5 -->
<g id="edge8" class="edge"><title>Node2&#45;&gt;Node5</title>
<path fill="none" stroke="midnightblue" d="M140.047,-174.362C144.648,-166.513 151.036,-155.616 156.524,-146.253"/>
<polygon fill="midnightblue" stroke="midnightblue" points="159.576,-147.968 161.614,-137.571 153.537,-144.428 159.576,-147.968"/>
</g>
<!-- Node8 -->
<g id="node15" class="node"><title>Node8</title>
<a xlink:href="types_8h.html" target="_top" xlink:title="types.h">
<polygon fill="white" stroke="black" points="12.3105,-116.5 12.3105,-137.5 61.3105,-137.5 61.3105,-116.5 12.3105,-116.5"/>
<text text-anchor="middle" x="36.8105" y="-124.5" font-family="Helvetica,sans-Serif" font-size="10.00">types.h</text>
</a>
</g>
<!-- Node2&#45;&gt;Node8 -->
<g id="edge14" class="edge"><title>Node2&#45;&gt;Node8</title>
<path fill="none" stroke="midnightblue" d="M116.019,-174.362C101.252,-165.532 80.0323,-152.844 63.2721,-142.822"/>
<polygon fill="midnightblue" stroke="midnightblue" points="64.868,-139.699 54.489,-137.571 61.2756,-145.707 64.868,-139.699"/>
</g>
<!-- Node9 -->
<g id="node17" class="node"><title>Node9</title>
<polygon fill="white" stroke="#bfbfbf" points="78.8105,-116.5 78.8105,-137.5 118.811,-137.5 118.811,-116.5 78.8105,-116.5"/>
<text text-anchor="middle" x="98.8105" y="-124.5" font-family="Helvetica,sans-Serif" font-size="10.00">limits</text>
</g>
<!-- Node2&#45;&gt;Node9 -->
<g id="edge16" class="edge"><title>Node2&#45;&gt;Node9</title>
<path fill="none" stroke="midnightblue" d="M127.391,-174.362C122.655,-166.513 116.079,-155.616 110.429,-146.253"/>
<polygon fill="midnightblue" stroke="midnightblue" points="113.353,-144.324 105.189,-137.571 107.359,-147.941 113.353,-144.324"/>
</g>
<!-- Node6 -->
<g id="node11" class="node"><title>Node6</title>
<polygon fill="white" stroke="#bfbfbf" points="177.811,-58.5 177.811,-79.5 221.811,-79.5 221.811,-58.5 177.811,-58.5"/>
<text text-anchor="middle" x="199.811" y="-66.5" font-family="Helvetica,sans-Serif" font-size="10.00">vector</text>
</g>
<!-- Node5&#45;&gt;Node6 -->
<g id="edge10" class="edge"><title>Node5&#45;&gt;Node6</title>
<path fill="none" stroke="midnightblue" d="M173.68,-116.362C177.965,-108.595 183.897,-97.8426 189.027,-88.5458"/>
<polygon fill="midnightblue" stroke="midnightblue" points="192.212,-90.0172 193.978,-79.5707 186.083,-86.6357 192.212,-90.0172"/>
</g>
<!-- Node7 -->
<g id="node13" class="node"><title>Node7</title>
<polygon fill="white" stroke="#bfbfbf" points="107.811,-58.5 107.811,-79.5 159.811,-79.5 159.811,-58.5 107.811,-58.5"/>
<text text-anchor="middle" x="133.811" y="-66.5" font-family="Helvetica,sans-Serif" font-size="10.00">ostream</text>
</g>
<!-- Node5&#45;&gt;Node7 -->
<g id="edge12" class="edge"><title>Node5&#45;&gt;Node7</title>
<path fill="none" stroke="midnightblue" d="M161.574,-116.362C156.973,-108.513 150.585,-97.6159 145.097,-88.2527"/>
<polygon fill="midnightblue" stroke="midnightblue" points="148.084,-86.4276 140.007,-79.5707 142.045,-89.9677 148.084,-86.4276"/>
</g>
<!-- Node11 -->
<g id="node21" class="node"><title>Node11</title>
<a xlink:href="_t_data_record_8h.html" target="_top" xlink:title="TDataRecord.h">
<polygon fill="white" stroke="black" points="668.311,-232.5 668.311,-253.5 751.311,-253.5 751.311,-232.5 668.311,-232.5"/>
<text text-anchor="middle" x="709.811" y="-240.5" font-family="Helvetica,sans-Serif" font-size="10.00">TDataRecord.h</text>
</a>
</g>
<!-- Node10&#45;&gt;Node11 -->
<g id="edge20" class="edge"><title>Node10&#45;&gt;Node11</title>
<path fill="none" stroke="midnightblue" d="M709.811,-290.362C709.811,-282.922 709.811,-272.743 709.811,-263.728"/>
<polygon fill="midnightblue" stroke="midnightblue" points="713.311,-263.571 709.811,-253.571 706.311,-263.571 713.311,-263.571"/>
</g>
<!-- Node14 -->
<g id="node28" class="node"><title>Node14</title>
<a xlink:href="time_8h.html" target="_top" xlink:title="base/std_ext/time.h">
<polygon fill="white" stroke="black" points="292.311,-116.5 292.311,-137.5 395.311,-137.5 395.311,-116.5 292.311,-116.5"/>
<text text-anchor="middle" x="343.811" y="-124.5" font-family="Helvetica,sans-Serif" font-size="10.00">base/std_ext/time.h</text>
</a>
</g>
<!-- Node10&#45;&gt;Node14 -->
<g id="edge60" class="edge"><title>Node10&#45;&gt;Node14</title>
<path fill="none" stroke="midnightblue" d="M687.467,-290.377C624.934,-260.649 448.005,-176.535 375.449,-142.041"/>
<polygon fill="midnightblue" stroke="midnightblue" points="376.861,-138.837 366.327,-137.705 373.856,-145.159 376.861,-138.837"/>
</g>
<!-- Node12 -->
<g id="node23" class="node"><title>Node12</title>
<a xlink:href="_t_i_d_8h.html" target="_top" xlink:title="TID.h">
<polygon fill="white" stroke="black" points="521.311,-174.5 521.311,-195.5 562.311,-195.5 562.311,-174.5 521.311,-174.5"/>
<text text-anchor="middle" x="541.811" y="-182.5" font-family="Helvetica,sans-Serif" font-size="10.00">TID.h</text>
</a>
</g>
<!-- Node11&#45;&gt;Node12 -->
<g id="edge22" class="edge"><title>Node11&#45;&gt;Node12</title>
<path fill="none" stroke="midnightblue" d="M679.387,-232.497C648.974,-221.997 602.479,-205.945 572.109,-195.46"/>
<polygon fill="midnightblue" stroke="midnightblue" points="573.07,-192.089 562.475,-192.134 570.785,-198.706 573.07,-192.089"/>
</g>
<!-- Node13 -->
<g id="node25" class="node"><title>Node13</title>
<polygon fill="white" stroke="#bfbfbf" points="650.811,-116.5 650.811,-137.5 706.811,-137.5 706.811,-116.5 650.811,-116.5"/>
<text text-anchor="middle" x="678.811" y="-124.5" font-family="Helvetica,sans-Serif" font-size="10.00">Rtypes.h</text>
</g>
<!-- Node11&#45;&gt;Node13 -->
<g id="edge54" class="edge"><title>Node11&#45;&gt;Node13</title>
<path fill="none" stroke="midnightblue" d="M706.95,-232.295C701.805,-213.045 690.914,-172.289 684.291,-147.509"/>
<polygon fill="midnightblue" stroke="midnightblue" points="687.628,-146.437 681.664,-137.679 680.865,-148.244 687.628,-146.437"/>
</g>
<!-- Node19 -->
<g id="node39" class="node"><title>Node19</title>
<polygon fill="white" stroke="#bfbfbf" points="602.311,-58.5 602.311,-79.5 643.311,-79.5 643.311,-58.5 602.311,-58.5"/>
<text text-anchor="middle" x="622.811" y="-66.5" font-family="Helvetica,sans-Serif" font-size="10.00">ctime</text>
</g>
<!-- Node11&#45;&gt;Node19 -->
<g id="edge58" class="edge"><title>Node11&#45;&gt;Node19</title>
<path fill="none" stroke="midnightblue" d="M724.596,-232.281C753.89,-209.746 813.969,-156.221 783.811,-116 768.19,-95.1678 695.818,-80.5042 653.612,-73.5575"/>
<polygon fill="midnightblue" stroke="midnightblue" points="654.011,-70.077 643.585,-71.9586 652.909,-76.9897 654.011,-70.077"/>
</g>
<!-- Node23 -->
<g id="node48" class="node"><title>Node23</title>
<polygon fill="white" stroke="#bfbfbf" points="724.811,-116.5 724.811,-137.5 774.811,-137.5 774.811,-116.5 724.811,-116.5"/>
<text text-anchor="middle" x="749.811" y="-124.5" font-family="Helvetica,sans-Serif" font-size="10.00">iomanip</text>
</g>
<!-- Node11&#45;&gt;Node23 -->
<g id="edge56" class="edge"><title>Node11&#45;&gt;Node23</title>
<path fill="none" stroke="midnightblue" d="M713.502,-232.295C720.17,-212.959 734.32,-171.923 742.853,-147.177"/>
<polygon fill="midnightblue" stroke="midnightblue" points="746.177,-148.274 746.128,-137.679 739.559,-145.992 746.177,-148.274"/>
</g>
<!-- Node12&#45;&gt;Node4 -->
<g id="edge48" class="edge"><title>Node12&#45;&gt;Node4</title>
<path fill="none" stroke="midnightblue" d="M521.263,-181.984C478.874,-175.608 378.518,-159.722 285.456,-138.237"/>
<polygon fill="midnightblue" stroke="midnightblue" points="286.14,-134.803 275.606,-135.935 284.547,-141.619 286.14,-134.803"/>
</g>
<!-- Node12&#45;&gt;Node5 -->
<g id="edge26" class="edge"><title>Node12&#45;&gt;Node5</title>
<path fill="none" stroke="midnightblue" d="M520.935,-183.006C469.518,-177.895 332.556,-163.079 209.155,-138.084"/>
<polygon fill="midnightblue" stroke="midnightblue" points="209.661,-134.615 199.161,-136.031 208.252,-141.472 209.661,-134.615"/>
</g>
<!-- Node12&#45;&gt;Node13 -->
<g id="edge24" class="edge"><title>Node12&#45;&gt;Node13</title>
<path fill="none" stroke="midnightblue" d="M562.321,-176.317C584.031,-167.126 618.666,-152.463 644.535,-141.511"/>
<polygon fill="midnightblue" stroke="midnightblue" points="646.132,-144.636 653.976,-137.514 643.403,-138.189 646.132,-144.636"/>
</g>
<!-- Node12&#45;&gt;Node14 -->
<g id="edge28" class="edge"><title>Node12&#45;&gt;Node14</title>
<path fill="none" stroke="midnightblue" d="M520.995,-178.903C489.992,-169.821 430.902,-152.512 389.516,-140.388"/>
<polygon fill="midnightblue" stroke="midnightblue" points="390.246,-136.955 379.665,-137.503 388.278,-143.673 390.246,-136.955"/>
</g>
<!-- Node12&#45;&gt;Node19 -->
<g id="edge52" class="edge"><title>Node12&#45;&gt;Node19</title>
<path fill="none" stroke="midnightblue" d="M561.931,-174.438C575.656,-166.244 593.205,-153.656 603.811,-138 613.584,-123.573 618.351,-104.244 620.664,-89.7141"/>
<polygon fill="midnightblue" stroke="midnightblue" points="624.147,-90.0736 621.997,-79.6993 617.209,-89.1503 624.147,-90.0736"/>
</g>
<!-- Node20 -->
<g id="node41" class="node"><title>Node20</title>
<polygon fill="white" stroke="#bfbfbf" points="476.811,-116.5 476.811,-137.5 538.811,-137.5 538.811,-116.5 476.811,-116.5"/>
<text text-anchor="middle" x="507.811" y="-124.5" font-family="Helvetica,sans-Serif" font-size="10.00">type_traits</text>
</g>
<!-- Node12&#45;&gt;Node20 -->
<g id="edge42" class="edge"><title>Node12&#45;&gt;Node20</title>
<path fill="none" stroke="midnightblue" d="M535.574,-174.362C530.973,-166.513 524.585,-155.616 519.097,-146.253"/>
<polygon fill="midnightblue" stroke="midnightblue" points="522.084,-144.428 514.007,-137.571 516.045,-147.968 522.084,-144.428"/>
</g>
<!-- Node21 -->
<g id="node43" class="node"><title>Node21</title>
<polygon fill="white" stroke="#bfbfbf" points="556.811,-116.5 556.811,-137.5 594.811,-137.5 594.811,-116.5 556.811,-116.5"/>
<text text-anchor="middle" x="575.811" y="-124.5" font-family="Helvetica,sans-Serif" font-size="10.00">tuple</text>
</g>
<!-- Node12&#45;&gt;Node21 -->
<g id="edge44" class="edge"><title>Node12&#45;&gt;Node21</title>
<path fill="none" stroke="midnightblue" d="M548.047,-174.362C552.648,-166.513 559.036,-155.616 564.524,-146.253"/>
<polygon fill="midnightblue" stroke="midnightblue" points="567.576,-147.968 569.614,-137.571 561.537,-144.428 567.576,-147.968"/>
</g>
<!-- Node22 -->
<g id="node45" class="node"><title>Node22</title>
<polygon fill="white" stroke="#bfbfbf" points="412.811,-116.5 412.811,-137.5 458.811,-137.5 458.811,-116.5 412.811,-116.5"/>
<text text-anchor="middle" x="435.811" y="-124.5" font-family="Helvetica,sans-Serif" font-size="10.00">cstdint</text>
</g>
<!-- Node12&#45;&gt;Node22 -->
<g id="edge46" class="edge"><title>Node12&#45;&gt;Node22</title>
<path fill="none" stroke="midnightblue" d="M522.368,-174.362C506.007,-165.409 482.397,-152.491 463.967,-142.406"/>
<polygon fill="midnightblue" stroke="midnightblue" points="465.582,-139.3 455.129,-137.571 462.222,-145.441 465.582,-139.3"/>
</g>
<!-- Node12&#45;&gt;Node23 -->
<g id="edge50" class="edge"><title>Node12&#45;&gt;Node23</title>
<path fill="none" stroke="midnightblue" d="M562.527,-179.755C593.569,-171.822 654.191,-156.04 714.868,-138.189"/>
<polygon fill="midnightblue" stroke="midnightblue" points="716.007,-141.502 724.602,-135.308 714.02,-134.79 716.007,-141.502"/>
</g>
<!-- Node15 -->
<g id="node30" class="node"><title>Node15</title>
<a xlink:href="string_8h.html" target="_top" xlink:title="base/std_ext/string.h">
<polygon fill="white" stroke="black" points="336.811,-58.5 336.811,-79.5 444.811,-79.5 444.811,-58.5 336.811,-58.5"/>
<text text-anchor="middle" x="390.811" y="-66.5" font-family="Helvetica,sans-Serif" font-size="10.00">base/std_ext/string.h</text>
</a>
</g>
<!-- Node14&#45;&gt;Node15 -->
<g id="edge30" class="edge"><title>Node14&#45;&gt;Node15</title>
<path fill="none" stroke="midnightblue" d="M352.431,-116.362C358.99,-108.268 368.176,-96.9318 375.917,-87.3796"/>
<polygon fill="midnightblue" stroke="midnightblue" points="378.668,-89.5436 382.245,-79.5707 373.229,-85.1364 378.668,-89.5436"/>
</g>
<!-- Node18 -->
<g id="node37" class="node"><title>Node18</title>
<polygon fill="white" stroke="#bfbfbf" points="272.811,-58.5 272.811,-79.5 318.811,-79.5 318.811,-58.5 272.811,-58.5"/>
<text text-anchor="middle" x="295.811" y="-66.5" font-family="Helvetica,sans-Serif" font-size="10.00">cstring</text>
</g>
<!-- Node14&#45;&gt;Node18 -->
<g id="edge38" class="edge"><title>Node14&#45;&gt;Node18</title>
<path fill="none" stroke="midnightblue" d="M335.007,-116.362C328.308,-108.268 318.927,-96.9318 311.021,-87.3796"/>
<polygon fill="midnightblue" stroke="midnightblue" points="313.631,-85.0431 304.559,-79.5707 308.238,-89.5061 313.631,-85.0431"/>
</g>
<!-- Node14&#45;&gt;Node19 -->
<g id="edge40" class="edge"><title>Node14&#45;&gt;Node19</title>
<path fill="none" stroke="midnightblue" d="M394.335,-116.497C452.001,-104.509 544.482,-85.2834 592.171,-75.3696"/>
<polygon fill="midnightblue" stroke="midnightblue" points="593.11,-78.7493 602.188,-73.2871 591.685,-71.8958 593.11,-78.7493"/>
</g>
<!-- Node15&#45;&gt;Node3 -->
<g id="edge36" class="edge"><title>Node15&#45;&gt;Node3</title>
<path fill="none" stroke="midnightblue" d="M347.529,-58.4966C302.448,-47.5564 232.529,-30.5885 189.602,-20.1711"/>
<polygon fill="midnightblue" stroke="midnightblue" points="190.368,-16.7556 179.825,-17.7985 188.717,-23.5581 190.368,-16.7556"/>
</g>
<!-- Node15&#45;&gt;Node16 -->
<g id="edge32" class="edge"><title>Node15&#45;&gt;Node16</title>
<path fill="none" stroke="midnightblue" d="M437.351,-58.4966C489.578,-46.7102 572.804,-27.9276 617.337,-17.8772"/>
<polygon fill="midnightblue" stroke="midnightblue" points="618.282,-21.2522 627.266,-15.6365 616.741,-14.4239 618.282,-21.2522"/>
</g>
<!-- Node17 -->
<g id="node34" class="node"><title>Node17</title>
<polygon fill="white" stroke="#bfbfbf" points="364.811,-0.5 364.811,-21.5 416.811,-21.5 416.811,-0.5 364.811,-0.5"/>
<text text-anchor="middle" x="390.811" y="-8.5" font-family="Helvetica,sans-Serif" font-size="10.00">sstream</text>
</g>
<!-- Node15&#45;&gt;Node17 -->
<g id="edge34" class="edge"><title>Node15&#45;&gt;Node17</title>
<path fill="none" stroke="midnightblue" d="M390.811,-58.3619C390.811,-50.9219 390.811,-40.7427 390.811,-31.7276"/>
<polygon fill="midnightblue" stroke="midnightblue" points="394.311,-31.5706 390.811,-21.5707 387.311,-31.5707 394.311,-31.5706"/>
</g>
</g>
</svg>
