<?xml version="1.0" encoding="UTF-8" standalone="no"?>
<!DOCTYPE svg PUBLIC "-//W3C//DTD SVG 1.1//EN"
 "http://www.w3.org/Graphics/SVG/1.1/DTD/svg11.dtd">
<!-- Generated by graphviz version 2.26.3 (20100126.1600)
 -->
<!-- Title: src/calibration/gui/ManagerWindow.h Pages: 1 -->
<svg width="1236pt" height="450pt"
 viewBox="0.00 0.00 1236.00 450.00" xmlns="http://www.w3.org/2000/svg" xmlns:xlink="http://www.w3.org/1999/xlink">
<g id="graph1" class="graph" transform="scale(1 1) rotate(0) translate(4 446)">
<title>src/calibration/gui/ManagerWindow.h</title>
<polygon fill="white" stroke="white" points="-4,5 -4,-446 1233,-446 1233,5 -4,5"/>
<!-- Node1 -->
<g id="node1" class="node"><title>Node1</title>
<polygon fill="#bfbfbf" stroke="black" points="963.5,-407 963.5,-441 1064.5,-441 1064.5,-407 963.5,-407"/>
<text text-anchor="start" x="971.5" y="-428" font-family="Helvetica,sans-Serif" font-size="10.00">src/calibration/gui</text>
<text text-anchor="middle" x="1014" y="-415" font-family="Helvetica,sans-Serif" font-size="10.00">/ManagerWindow.h</text>
</g>
<!-- Node2 -->
<g id="node3" class="node"><title>Node2</title>
<a xlink:href="_manager__traits_8h.html" target="_top" xlink:title="Manager_traits.h">
<polygon fill="white" stroke="black" points="791.5,-348.5 791.5,-369.5 880.5,-369.5 880.5,-348.5 791.5,-348.5"/>
<text text-anchor="middle" x="836" y="-356.5" font-family="Helvetica,sans-Serif" font-size="10.00">Manager_traits.h</text>
</a>
</g>
<!-- Node1&#45;&gt;Node2 -->
<g id="edge2" class="edge"><title>Node1&#45;&gt;Node2</title>
<path fill="none" stroke="midnightblue" d="M967.233,-406.922C938.335,-396.37 901.704,-382.993 874.492,-373.056"/>
<polygon fill="midnightblue" stroke="midnightblue" points="875.517,-369.705 864.924,-369.562 873.116,-376.28 875.517,-369.705"/>
</g>
<!-- Node25 -->
<g id="node58" class="node"><title>Node25</title>
<polygon fill="white" stroke="#bfbfbf" points="893.5,-290.5 893.5,-311.5 922.5,-311.5 922.5,-290.5 893.5,-290.5"/>
<text text-anchor="middle" x="908" y="-298.5" font-family="Helvetica,sans-Serif" font-size="10.00">list</text>
</g>
<!-- Node1&#45;&gt;Node25 -->
<g id="edge74" class="edge"><title>Node1&#45;&gt;Node25</title>
<path fill="none" stroke="midnightblue" d="M973.257,-406.863C956.742,-398.055 938.816,-385.804 927,-370 916.565,-356.043 911.861,-336.669 909.741,-322.003"/>
<polygon fill="midnightblue" stroke="midnightblue" points="913.195,-321.405 908.57,-311.872 906.241,-322.208 913.195,-321.405"/>
</g>
<!-- Node26 -->
<g id="node60" class="node"><title>Node26</title>
<polygon fill="white" stroke="#bfbfbf" points="936,-348.5 936,-369.5 1002,-369.5 1002,-348.5 936,-348.5"/>
<text text-anchor="middle" x="969" y="-356.5" font-family="Helvetica,sans-Serif" font-size="10.00">TGFrame.h</text>
</g>
<!-- Node1&#45;&gt;Node26 -->
<g id="edge68" class="edge"><title>Node1&#45;&gt;Node26</title>
<path fill="none" stroke="midnightblue" d="M1002.18,-406.922C996.083,-398.12 988.63,-387.354 982.332,-378.258"/>
<polygon fill="midnightblue" stroke="midnightblue" points="985.083,-376.082 976.513,-369.852 979.327,-380.066 985.083,-376.082"/>
</g>
<!-- Node27 -->
<g id="node62" class="node"><title>Node27</title>
<polygon fill="white" stroke="#bfbfbf" points="1020,-348.5 1020,-369.5 1100,-369.5 1100,-348.5 1020,-348.5"/>
<text text-anchor="middle" x="1060" y="-356.5" font-family="Helvetica,sans-Serif" font-size="10.00">KeySymbols.h</text>
</g>
<!-- Node1&#45;&gt;Node27 -->
<g id="edge70" class="edge"><title>Node1&#45;&gt;Node27</title>
<path fill="none" stroke="midnightblue" d="M1026.09,-406.922C1032.31,-398.12 1039.93,-387.354 1046.37,-378.258"/>
<polygon fill="midnightblue" stroke="midnightblue" points="1049.4,-380.037 1052.32,-369.852 1043.69,-375.993 1049.4,-380.037"/>
</g>
<!-- Node28 -->
<g id="node64" class="node"><title>Node28</title>
<polygon fill="white" stroke="#bfbfbf" points="1117.5,-348.5 1117.5,-369.5 1176.5,-369.5 1176.5,-348.5 1117.5,-348.5"/>
<text text-anchor="middle" x="1147" y="-356.5" font-family="Helvetica,sans-Serif" font-size="10.00">functional</text>
</g>
<!-- Node1&#45;&gt;Node28 -->
<g id="edge72" class="edge"><title>Node1&#45;&gt;Node28</title>
<path fill="none" stroke="midnightblue" d="M1048.94,-406.922C1069.81,-396.726 1096.06,-383.894 1116.16,-374.074"/>
<polygon fill="midnightblue" stroke="midnightblue" points="1117.74,-377.194 1125.19,-369.658 1114.67,-370.905 1117.74,-377.194"/>
</g>
<!-- Node29 -->
<g id="node67" class="node"><title>Node29</title>
<polygon fill="white" stroke="#bfbfbf" points="1193.5,-348.5 1193.5,-369.5 1228.5,-369.5 1228.5,-348.5 1193.5,-348.5"/>
<text text-anchor="middle" x="1211" y="-356.5" font-family="Helvetica,sans-Serif" font-size="10.00">map</text>
</g>
<!-- Node1&#45;&gt;Node29 -->
<g id="edge76" class="edge"><title>Node1&#45;&gt;Node29</title>
<path fill="none" stroke="midnightblue" d="M1064.55,-409.403C1096.54,-399.855 1138.9,-386.645 1183.84,-370.233"/>
<polygon fill="midnightblue" stroke="midnightblue" points="1185.3,-373.427 1193.47,-366.682 1182.87,-366.859 1185.3,-373.427"/>
</g>
<!-- Node3 -->
<g id="node5" class="node"><title>Node3</title>
<a xlink:href="interval_8h.html" target="_top" xlink:title="base/interval.h">
<polygon fill="white" stroke="black" points="116,-174.5 116,-195.5 196,-195.5 196,-174.5 116,-174.5"/>
<text text-anchor="middle" x="156" y="-182.5" font-family="Helvetica,sans-Serif" font-size="10.00">base/interval.h</text>
</a>
</g>
<!-- Node2&#45;&gt;Node3 -->
<g id="edge4" class="edge"><title>Node2&#45;&gt;Node3</title>
<path fill="none" stroke="midnightblue" d="M791.469,-351.761C742.165,-343.443 660.468,-328.764 591,-312 445.165,-276.806 275.232,-223.578 198.017,-198.709"/>
<polygon fill="midnightblue" stroke="midnightblue" points="198.779,-195.277 188.187,-195.535 196.628,-201.938 198.779,-195.277"/>
</g>
<!-- Node11 -->
<g id="node21" class="node"><title>Node11</title>
<a xlink:href="_t_header_info_8h.html" target="_top" xlink:title="tree/THeaderInfo.h">
<polygon fill="white" stroke="black" points="600,-290.5 600,-311.5 698,-311.5 698,-290.5 600,-290.5"/>
<text text-anchor="middle" x="649" y="-298.5" font-family="Helvetica,sans-Serif" font-size="10.00">tree/THeaderInfo.h</text>
</a>
</g>
<!-- Node2&#45;&gt;Node11 -->
<g id="edge20" class="edge"><title>Node2&#45;&gt;Node11</title>
<path fill="none" stroke="midnightblue" d="M802.136,-348.497C771.518,-339 726.257,-324.962 692.876,-314.609"/>
<polygon fill="midnightblue" stroke="midnightblue" points="693.516,-311.143 682.928,-311.523 691.442,-317.828 693.516,-311.143"/>
</g>
<!-- Node17 -->
<g id="node34" class="node"><title>Node17</title>
<polygon fill="white" stroke="#bfbfbf" points="675.5,-0.5 675.5,-21.5 716.5,-21.5 716.5,-0.5 675.5,-0.5"/>
<text text-anchor="middle" x="696" y="-8.5" font-family="Helvetica,sans-Serif" font-size="10.00">string</text>
</g>
<!-- Node2&#45;&gt;Node17 -->
<g id="edge64" class="edge"><title>Node2&#45;&gt;Node17</title>
<path fill="none" stroke="midnightblue" d="M840.688,-348.364C849.125,-328.219 866,-282.939 866,-243 866,-243 866,-243 866,-127 866,-60.2582 775.49,-29.1551 726.554,-17.2161"/>
<polygon fill="midnightblue" stroke="midnightblue" points="727.038,-13.7355 716.506,-14.891 725.46,-20.5553 727.038,-13.7355"/>
</g>
<!-- Node2&#45;&gt;Node25 -->
<g id="edge66" class="edge"><title>Node2&#45;&gt;Node25</title>
<path fill="none" stroke="midnightblue" d="M849.206,-348.362C859.761,-339.859 874.758,-327.779 886.963,-317.947"/>
<polygon fill="midnightblue" stroke="midnightblue" points="889.286,-320.57 894.878,-311.571 884.895,-315.118 889.286,-320.57"/>
</g>
<!-- Node4 -->
<g id="node7" class="node"><title>Node4</title>
<polygon fill="white" stroke="#bfbfbf" points="202,-0.5 202,-21.5 258,-21.5 258,-0.5 202,-0.5"/>
<text text-anchor="middle" x="230" y="-8.5" font-family="Helvetica,sans-Serif" font-size="10.00">algorithm</text>
</g>
<!-- Node3&#45;&gt;Node4 -->
<g id="edge6" class="edge"><title>Node3&#45;&gt;Node4</title>
<path fill="none" stroke="midnightblue" d="M131.256,-174.496C106.687,-162.393 74.3724,-140.938 87,-116 109.193,-72.171 159.244,-42.1967 193.824,-25.8271"/>
<polygon fill="midnightblue" stroke="midnightblue" points="195.492,-28.9128 203.13,-21.5706 192.581,-22.547 195.492,-28.9128"/>
</g>
<!-- Node5 -->
<g id="node9" class="node"><title>Node5</title>
<polygon fill="white" stroke="#bfbfbf" points="161.5,-116.5 161.5,-137.5 220.5,-137.5 220.5,-116.5 161.5,-116.5"/>
<text text-anchor="middle" x="191" y="-124.5" font-family="Helvetica,sans-Serif" font-size="10.00">stdexcept</text>
</g>
<!-- Node3&#45;&gt;Node5 -->
<g id="edge8" class="edge"><title>Node3&#45;&gt;Node5</title>
<path fill="none" stroke="midnightblue" d="M162.42,-174.362C167.156,-166.513 173.732,-155.616 179.382,-146.253"/>
<polygon fill="midnightblue" stroke="midnightblue" points="182.451,-147.941 184.621,-137.571 176.458,-144.324 182.451,-147.941"/>
</g>
<!-- Node6 -->
<g id="node11" class="node"><title>Node6</title>
<a xlink:href="printable_8h.html" target="_top" xlink:title="printable.h">
<polygon fill="white" stroke="black" points="238,-116.5 238,-137.5 300,-137.5 300,-116.5 238,-116.5"/>
<text text-anchor="middle" x="269" y="-124.5" font-family="Helvetica,sans-Serif" font-size="10.00">printable.h</text>
</a>
</g>
<!-- Node3&#45;&gt;Node6 -->
<g id="edge10" class="edge"><title>Node3&#45;&gt;Node6</title>
<path fill="none" stroke="midnightblue" d="M176.463,-174.497C194.033,-165.479 219.582,-152.365 239.385,-142.201"/>
<polygon fill="midnightblue" stroke="midnightblue" points="241.009,-145.301 248.307,-137.621 237.812,-139.074 241.009,-145.301"/>
</g>
<!-- Node9 -->
<g id="node17" class="node"><title>Node9</title>
<a xlink:href="types_8h.html" target="_top" xlink:title="types.h">
<polygon fill="white" stroke="black" points="95.5,-116.5 95.5,-137.5 144.5,-137.5 144.5,-116.5 95.5,-116.5"/>
<text text-anchor="middle" x="120" y="-124.5" font-family="Helvetica,sans-Serif" font-size="10.00">types.h</text>
</a>
</g>
<!-- Node3&#45;&gt;Node9 -->
<g id="edge16" class="edge"><title>Node3&#45;&gt;Node9</title>
<path fill="none" stroke="midnightblue" d="M149.397,-174.362C144.525,-166.513 137.762,-155.616 131.95,-146.253"/>
<polygon fill="midnightblue" stroke="midnightblue" points="134.809,-144.221 126.561,-137.571 128.861,-147.913 134.809,-144.221"/>
</g>
<!-- Node10 -->
<g id="node19" class="node"><title>Node10</title>
<polygon fill="white" stroke="#bfbfbf" points="0,-116.5 0,-137.5 40,-137.5 40,-116.5 0,-116.5"/>
<text text-anchor="middle" x="20" y="-124.5" font-family="Helvetica,sans-Serif" font-size="10.00">limits</text>
</g>
<!-- Node3&#45;&gt;Node10 -->
<g id="edge18" class="edge"><title>Node3&#45;&gt;Node10</title>
<path fill="none" stroke="midnightblue" d="M131.371,-174.497C108.363,-164.684 73.9842,-150.023 49.5162,-139.588"/>
<polygon fill="midnightblue" stroke="midnightblue" points="50.5942,-136.243 40.0227,-135.539 47.8481,-142.681 50.5942,-136.243"/>
</g>
<!-- Node7 -->
<g id="node13" class="node"><title>Node7</title>
<polygon fill="white" stroke="#bfbfbf" points="256,-58.5 256,-79.5 300,-79.5 300,-58.5 256,-58.5"/>
<text text-anchor="middle" x="278" y="-66.5" font-family="Helvetica,sans-Serif" font-size="10.00">vector</text>
</g>
<!-- Node6&#45;&gt;Node7 -->
<g id="edge12" class="edge"><title>Node6&#45;&gt;Node7</title>
<path fill="none" stroke="midnightblue" d="M270.651,-116.362C271.805,-108.922 273.385,-98.7427 274.784,-89.7276"/>
<polygon fill="midnightblue" stroke="midnightblue" points="278.285,-89.9891 276.36,-79.5707 271.368,-88.9157 278.285,-89.9891"/>
</g>
<!-- Node8 -->
<g id="node15" class="node"><title>Node8</title>
<polygon fill="white" stroke="#bfbfbf" points="186,-58.5 186,-79.5 238,-79.5 238,-58.5 186,-58.5"/>
<text text-anchor="middle" x="212" y="-66.5" font-family="Helvetica,sans-Serif" font-size="10.00">ostream</text>
</g>
<!-- Node6&#45;&gt;Node8 -->
<g id="edge14" class="edge"><title>Node6&#45;&gt;Node8</title>
<path fill="none" stroke="midnightblue" d="M258.545,-116.362C250.43,-108.104 238.999,-96.4725 229.496,-86.8029"/>
<polygon fill="midnightblue" stroke="midnightblue" points="231.894,-84.2497 222.388,-79.5707 226.901,-89.1562 231.894,-84.2497"/>
</g>
<!-- Node12 -->
<g id="node23" class="node"><title>Node12</title>
<a xlink:href="_t_data_record_8h.html" target="_top" xlink:title="TDataRecord.h">
<polygon fill="white" stroke="black" points="607.5,-232.5 607.5,-253.5 690.5,-253.5 690.5,-232.5 607.5,-232.5"/>
<text text-anchor="middle" x="649" y="-240.5" font-family="Helvetica,sans-Serif" font-size="10.00">TDataRecord.h</text>
</a>
</g>
<!-- Node11&#45;&gt;Node12 -->
<g id="edge22" class="edge"><title>Node11&#45;&gt;Node12</title>
<path fill="none" stroke="midnightblue" d="M649,-290.362C649,-282.922 649,-272.743 649,-263.728"/>
<polygon fill="midnightblue" stroke="midnightblue" points="652.5,-263.571 649,-253.571 645.5,-263.571 652.5,-263.571"/>
</g>
<!-- Node15 -->
<g id="node30" class="node"><title>Node15</title>
<a xlink:href="time_8h.html" target="_top" xlink:title="base/std_ext/time.h">
<polygon fill="white" stroke="black" points="317.5,-116.5 317.5,-137.5 420.5,-137.5 420.5,-116.5 317.5,-116.5"/>
<text text-anchor="middle" x="369" y="-124.5" font-family="Helvetica,sans-Serif" font-size="10.00">base/std_ext/time.h</text>
</a>
</g>
<!-- Node11&#45;&gt;Node15 -->
<g id="edge62" class="edge"><title>Node11&#45;&gt;Node15</title>
<path fill="none" stroke="midnightblue" d="M631.906,-290.377C584.555,-260.952 451.465,-178.246 394.928,-143.113"/>
<polygon fill="midnightblue" stroke="midnightblue" points="396.567,-140.01 386.226,-137.705 392.872,-145.956 396.567,-140.01"/>
</g>
<!-- Node13 -->
<g id="node25" class="node"><title>Node13</title>
<a xlink:href="_t_i_d_8h.html" target="_top" xlink:title="TID.h">
<polygon fill="white" stroke="black" points="568.5,-174.5 568.5,-195.5 609.5,-195.5 609.5,-174.5 568.5,-174.5"/>
<text text-anchor="middle" x="589" y="-182.5" font-family="Helvetica,sans-Serif" font-size="10.00">TID.h</text>
</a>
</g>
<!-- Node12&#45;&gt;Node13 -->
<g id="edge24" class="edge"><title>Node12&#45;&gt;Node13</title>
<path fill="none" stroke="midnightblue" d="M637.995,-232.362C629.453,-224.104 617.42,-212.472 607.417,-202.803"/>
<polygon fill="midnightblue" stroke="midnightblue" points="609.558,-200.004 599.935,-195.571 604.692,-205.037 609.558,-200.004"/>
</g>
<!-- Node14 -->
<g id="node27" class="node"><title>Node14</title>
<polygon fill="white" stroke="#bfbfbf" points="438,-116.5 438,-137.5 494,-137.5 494,-116.5 438,-116.5"/>
<text text-anchor="middle" x="466" y="-124.5" font-family="Helvetica,sans-Serif" font-size="10.00">Rtypes.h</text>
</g>
<!-- Node12&#45;&gt;Node14 -->
<g id="edge56" class="edge"><title>Node12&#45;&gt;Node14</title>
<path fill="none" stroke="midnightblue" d="M626.917,-232.474C608.595,-223.474 582.065,-209.82 560,-196 534.08,-179.766 506.017,-158.663 487.366,-144.091"/>
<polygon fill="midnightblue" stroke="midnightblue" points="489.28,-141.143 479.259,-137.704 484.948,-146.642 489.28,-141.143"/>
</g>
<!-- Node20 -->
<g id="node41" class="node"><title>Node20</title>
<polygon fill="white" stroke="#bfbfbf" points="701.5,-58.5 701.5,-79.5 742.5,-79.5 742.5,-58.5 701.5,-58.5"/>
<text text-anchor="middle" x="722" y="-66.5" font-family="Helvetica,sans-Serif" font-size="10.00">ctime</text>
</g>
<!-- Node12&#45;&gt;Node20 -->
<g id="edge60" class="edge"><title>Node12&#45;&gt;Node20</title>
<path fill="none" stroke="midnightblue" d="M681.859,-232.497C720.539,-218.131 782.819,-188.236 809,-138 823.793,-109.616 782.803,-89.0261 752.165,-78.0595"/>
<polygon fill="midnightblue" stroke="midnightblue" points="753.259,-74.7349 742.665,-74.8393 751.012,-81.3644 753.259,-74.7349"/>
</g>
<!-- Node24 -->
<g id="node50" class="node"><title>Node24</title>
<polygon fill="white" stroke="#bfbfbf" points="750,-116.5 750,-137.5 800,-137.5 800,-116.5 750,-116.5"/>
<text text-anchor="middle" x="775" y="-124.5" font-family="Helvetica,sans-Serif" font-size="10.00">iomanip</text>
</g>
<!-- Node12&#45;&gt;Node24 -->
<g id="edge58" class="edge"><title>Node12&#45;&gt;Node24</title>
<path fill="none" stroke="midnightblue" d="M660.628,-232.295C682.381,-212.268 729.418,-168.964 755.894,-144.589"/>
<polygon fill="midnightblue" stroke="midnightblue" points="758.414,-147.027 763.4,-137.679 753.673,-141.877 758.414,-147.027"/>
</g>
<!-- Node13&#45;&gt;Node5 -->
<g id="edge50" class="edge"><title>Node13&#45;&gt;Node5</title>
<path fill="none" stroke="midnightblue" d="M568.117,-183.391C513.871,-178.978 363.974,-165.288 230.733,-138.143"/>
<polygon fill="midnightblue" stroke="midnightblue" points="231.265,-134.679 220.763,-136.079 229.846,-141.533 231.265,-134.679"/>
</g>
<!-- Node13&#45;&gt;Node6 -->
<g id="edge28" class="edge"><title>Node13&#45;&gt;Node6</title>
<path fill="none" stroke="midnightblue" d="M568.486,-182.288C523.466,-176.184 412.492,-160.293 310.234,-138.117"/>
<polygon fill="midnightblue" stroke="midnightblue" points="310.885,-134.677 300.367,-135.952 309.384,-141.514 310.885,-134.677"/>
</g>
<!-- Node13&#45;&gt;Node14 -->
<g id="edge26" class="edge"><title>Node13&#45;&gt;Node14</title>
<path fill="none" stroke="midnightblue" d="M568.413,-175.292C549.024,-166.15 519.708,-152.326 497.402,-141.807"/>
<polygon fill="midnightblue" stroke="midnightblue" points="498.859,-138.625 488.321,-137.525 495.873,-144.956 498.859,-138.625"/>
</g>
<!-- Node13&#45;&gt;Node15 -->
<g id="edge30" class="edge"><title>Node13&#45;&gt;Node15</title>
<path fill="none" stroke="midnightblue" d="M568.303,-179.544C534.35,-170.592 465.893,-152.545 418.765,-140.12"/>
<polygon fill="midnightblue" stroke="midnightblue" points="419.614,-136.724 409.052,-137.559 417.829,-143.493 419.614,-136.724"/>
</g>
<!-- Node13&#45;&gt;Node20 -->
<g id="edge54" class="edge"><title>Node13&#45;&gt;Node20</title>
<path fill="none" stroke="midnightblue" d="M609.887,-182.048C635.529,-177.316 678.604,-165.58 703,-138 714.677,-124.799 719.247,-105.044 721.001,-90.0501"/>
<polygon fill="midnightblue" stroke="midnightblue" points="724.521,-89.9561 721.864,-79.6998 717.545,-89.3742 724.521,-89.9561"/>
</g>
<!-- Node21 -->
<g id="node43" class="node"><title>Node21</title>
<polygon fill="white" stroke="#bfbfbf" points="576,-116.5 576,-137.5 638,-137.5 638,-116.5 576,-116.5"/>
<text text-anchor="middle" x="607" y="-124.5" font-family="Helvetica,sans-Serif" font-size="10.00">type_traits</text>
</g>
<!-- Node13&#45;&gt;Node21 -->
<g id="edge44" class="edge"><title>Node13&#45;&gt;Node21</title>
<path fill="none" stroke="midnightblue" d="M592.301,-174.362C594.661,-166.758 597.909,-156.294 600.751,-147.135"/>
<polygon fill="midnightblue" stroke="midnightblue" points="604.098,-148.159 603.719,-137.571 597.413,-146.084 604.098,-148.159"/>
</g>
<!-- Node22 -->
<g id="node45" class="node"><title>Node22</title>
<polygon fill="white" stroke="#bfbfbf" points="656,-116.5 656,-137.5 694,-137.5 694,-116.5 656,-116.5"/>
<text text-anchor="middle" x="675" y="-124.5" font-family="Helvetica,sans-Serif" font-size="10.00">tuple</text>
</g>
<!-- Node13&#45;&gt;Node22 -->
<g id="edge46" class="edge"><title>Node13&#45;&gt;Node22</title>
<path fill="none" stroke="midnightblue" d="M604.774,-174.362C617.624,-165.696 635.985,-153.313 650.71,-143.382"/>
<polygon fill="midnightblue" stroke="midnightblue" points="652.993,-146.064 659.326,-137.571 649.079,-140.26 652.993,-146.064"/>
</g>
<!-- Node23 -->
<g id="node47" class="node"><title>Node23</title>
<polygon fill="white" stroke="#bfbfbf" points="512,-116.5 512,-137.5 558,-137.5 558,-116.5 512,-116.5"/>
<text text-anchor="middle" x="535" y="-124.5" font-family="Helvetica,sans-Serif" font-size="10.00">cstdint</text>
</g>
<!-- Node13&#45;&gt;Node23 -->
<g id="edge48" class="edge"><title>Node13&#45;&gt;Node23</title>
<path fill="none" stroke="midnightblue" d="M579.096,-174.362C571.484,-166.186 560.792,-154.702 551.843,-145.091"/>
<polygon fill="midnightblue" stroke="midnightblue" points="554.217,-142.505 544.842,-137.571 549.094,-147.275 554.217,-142.505"/>
</g>
<!-- Node13&#45;&gt;Node24 -->
<g id="edge52" class="edge"><title>Node13&#45;&gt;Node24</title>
<path fill="none" stroke="midnightblue" d="M609.616,-178.571C641.134,-168.743 701.679,-149.864 740.117,-137.877"/>
<polygon fill="midnightblue" stroke="midnightblue" points="741.352,-141.159 749.856,-134.841 739.268,-134.476 741.352,-141.159"/>
</g>
<!-- Node16 -->
<g id="node32" class="node"><title>Node16</title>
<a xlink:href="string_8h.html" target="_top" xlink:title="base/std_ext/string.h">
<polygon fill="white" stroke="black" points="400,-58.5 400,-79.5 508,-79.5 508,-58.5 400,-58.5"/>
<text text-anchor="middle" x="454" y="-66.5" font-family="Helvetica,sans-Serif" font-size="10.00">base/std_ext/string.h</text>
</a>
</g>
<!-- Node15&#45;&gt;Node16 -->
<g id="edge32" class="edge"><title>Node15&#45;&gt;Node16</title>
<path fill="none" stroke="midnightblue" d="M384.59,-116.362C397.291,-107.696 415.438,-95.3126 429.992,-85.3819"/>
<polygon fill="midnightblue" stroke="midnightblue" points="432.221,-88.0982 438.509,-79.5707 428.276,-82.316 432.221,-88.0982"/>
</g>
<!-- Node19 -->
<g id="node39" class="node"><title>Node19</title>
<polygon fill="white" stroke="#bfbfbf" points="336,-58.5 336,-79.5 382,-79.5 382,-58.5 336,-58.5"/>
<text text-anchor="middle" x="359" y="-66.5" font-family="Helvetica,sans-Serif" font-size="10.00">cstring</text>
</g>
<!-- Node15&#45;&gt;Node19 -->
<g id="edge40" class="edge"><title>Node15&#45;&gt;Node19</title>
<path fill="none" stroke="midnightblue" d="M367.166,-116.362C365.869,-108.84 364.089,-98.5187 362.523,-89.4308"/>
<polygon fill="midnightblue" stroke="midnightblue" points="365.971,-88.8306 360.823,-79.5707 359.073,-90.02 365.971,-88.8306"/>
</g>
<!-- Node15&#45;&gt;Node20 -->
<g id="edge42" class="edge"><title>Node15&#45;&gt;Node20</title>
<path fill="none" stroke="midnightblue" d="M420.698,-117.447C423.505,-116.951 426.286,-116.466 429,-116 524.478,-99.5921 637.782,-81.9296 691.207,-73.7087"/>
<polygon fill="midnightblue" stroke="midnightblue" points="692.018,-77.1252 701.37,-72.1475 690.955,-70.2063 692.018,-77.1252"/>
</g>
<!-- Node16&#45;&gt;Node4 -->
<g id="edge38" class="edge"><title>Node16&#45;&gt;Node4</title>
<path fill="none" stroke="midnightblue" d="M413.435,-58.4966C372.059,-47.7831 308.358,-31.2892 267.953,-20.8271"/>
<polygon fill="midnightblue" stroke="midnightblue" points="268.768,-17.4229 258.21,-18.3044 267.014,-24.1994 268.768,-17.4229"/>
</g>
<!-- Node16&#45;&gt;Node17 -->
<g id="edge34" class="edge"><title>Node16&#45;&gt;Node17</title>
<path fill="none" stroke="midnightblue" d="M497.824,-58.4966C546.293,-46.8803 623.115,-28.4683 665.467,-18.3178"/>
<polygon fill="midnightblue" stroke="midnightblue" points="666.545,-21.6587 675.454,-15.9243 664.913,-14.8515 666.545,-21.6587"/>
</g>
<!-- Node18 -->
<g id="node36" class="node"><title>Node18</title>
<polygon fill="white" stroke="#bfbfbf" points="428,-0.5 428,-21.5 480,-21.5 480,-0.5 428,-0.5"/>
<text text-anchor="middle" x="454" y="-8.5" font-family="Helvetica,sans-Serif" font-size="10.00">sstream</text>
</g>
<!-- Node16&#45;&gt;Node18 -->
<g id="edge36" class="edge"><title>Node16&#45;&gt;Node18</title>
<path fill="none" stroke="midnightblue" d="M454,-58.3619C454,-50.9219 454,-40.7427 454,-31.7276"/>
<polygon fill="midnightblue" stroke="midnightblue" points="457.5,-31.5706 454,-21.5707 450.5,-31.5707 457.5,-31.5706"/>
</g>
</g>
</svg>
