<?xml version="1.0" encoding="UTF-8" standalone="no"?>
<!DOCTYPE svg PUBLIC "-//W3C//DTD SVG 1.1//EN"
 "http://www.w3.org/Graphics/SVG/1.1/DTD/svg11.dtd">
<!-- Generated by graphviz version 2.26.3 (20100126.1600)
 -->
<!-- Title: src/calibration/converters/MultiHit16bit.h Pages: 1 -->
<svg width="568pt" height="332pt"
 viewBox="0.00 0.00 568.00 332.00" xmlns="http://www.w3.org/2000/svg" xmlns:xlink="http://www.w3.org/1999/xlink">
<g id="graph1" class="graph" transform="scale(1 1) rotate(0) translate(4 328)">
<title>src/calibration/converters/MultiHit16bit.h</title>
<polygon fill="white" stroke="white" points="-4,5 -4,-328 565,-328 565,5 -4,5"/>
<!-- Node1 -->
<g id="node1" class="node"><title>Node1</title>
<polygon fill="#bfbfbf" stroke="black" points="200,-289 200,-323 326,-323 326,-289 200,-289"/>
<text text-anchor="start" x="208" y="-310" font-family="Helvetica,sans-Serif" font-size="10.00">src/calibration/converters</text>
<text text-anchor="middle" x="263" y="-297" font-family="Helvetica,sans-Serif" font-size="10.00">/MultiHit16bit.h</text>
</g>
<!-- Node2 -->
<g id="node3" class="node"><title>Node2</title>
<a xlink:href="_c_a_t_c_h___t_d_c_8h.html" target="_top" xlink:title="src/calibration/converters\l/CATCH_TDC.h">
<polygon fill="white" stroke="black" points="155,-217 155,-251 281,-251 281,-217 155,-217"/>
<text text-anchor="start" x="163" y="-238" font-family="Helvetica,sans-Serif" font-size="10.00">src/calibration/converters</text>
<text text-anchor="middle" x="218" y="-225" font-family="Helvetica,sans-Serif" font-size="10.00">/CATCH_TDC.h</text>
</a>
</g>
<!-- Node1&#45;&gt;Node2 -->
<g id="edge2" class="edge"><title>Node1&#45;&gt;Node2</title>
<path fill="none" stroke="midnightblue" d="M246.877,-280.203C240.911,-270.658 234.294,-260.07 228.9,-251.441"/>
<polygon fill="midnightblue" stroke="midnightblue" points="244.068,-282.312 252.336,-288.937 250.004,-278.602 244.068,-282.312"/>
</g>
<!-- Node4 -->
<g id="node7" class="node"><title>Node4</title>
<a xlink:href="_setup_8h.html" target="_top" xlink:title="src/expconfig/setups\l/Setup.h">
<polygon fill="white" stroke="black" points="255.5,-145 255.5,-179 362.5,-179 362.5,-145 255.5,-145"/>
<text text-anchor="start" x="263.5" y="-166" font-family="Helvetica,sans-Serif" font-size="10.00">src/expconfig/setups</text>
<text text-anchor="middle" x="309" y="-153" font-family="Helvetica,sans-Serif" font-size="10.00">/Setup.h</text>
</a>
</g>
<!-- Node1&#45;&gt;Node4 -->
<g id="edge22" class="edge"><title>Node1&#45;&gt;Node4</title>
<path fill="none" stroke="midnightblue" d="M277.645,-280.074C282.109,-271.359 286.702,-261.448 290,-252 298.579,-227.424 303.936,-197.657 306.696,-179.273"/>
<polygon fill="midnightblue" stroke="midnightblue" points="274.514,-278.508 272.92,-288.982 280.698,-281.788 274.514,-278.508"/>
</g>
<!-- Node3 -->
<g id="node5" class="node"><title>Node3</title>
<a xlink:href="_c_a_t_c_h___t_d_c_8cc.html" target="_top" xlink:title="src/calibration/converters\l/CATCH_TDC.cc">
<polygon fill="white" stroke="black" points="112,-145 112,-179 238,-179 238,-145 112,-145"/>
<text text-anchor="start" x="120" y="-166" font-family="Helvetica,sans-Serif" font-size="10.00">src/calibration/converters</text>
<text text-anchor="middle" x="175" y="-153" font-family="Helvetica,sans-Serif" font-size="10.00">/CATCH_TDC.cc</text>
</a>
</g>
<!-- Node2&#45;&gt;Node3 -->
<g id="edge4" class="edge"><title>Node2&#45;&gt;Node3</title>
<path fill="none" stroke="midnightblue" d="M202.594,-208.203C196.893,-198.658 190.57,-188.07 185.416,-179.441"/>
<polygon fill="midnightblue" stroke="midnightblue" points="199.677,-210.146 207.81,-216.937 205.687,-206.557 199.677,-210.146"/>
</g>
<!-- Node2&#45;&gt;Node4 -->
<g id="edge6" class="edge"><title>Node2&#45;&gt;Node4</title>
<path fill="none" stroke="midnightblue" d="M247.71,-210.493C260.606,-200.29 275.433,-188.558 287.274,-179.19"/>
<polygon fill="midnightblue" stroke="midnightblue" points="245.236,-207.987 239.566,-216.937 249.58,-213.477 245.236,-207.987"/>
</g>
<!-- Node5 -->
<g id="node9" class="node"><title>Node5</title>
<a xlink:href="_exp_config_8cc.html" target="_top" xlink:title="src/expconfig/ExpConfig.cc">
<polygon fill="white" stroke="black" points="35.5,-79.5 35.5,-100.5 172.5,-100.5 172.5,-79.5 35.5,-79.5"/>
<text text-anchor="middle" x="104" y="-87.5" font-family="Helvetica,sans-Serif" font-size="10.00">src/expconfig/ExpConfig.cc</text>
</a>
</g>
<!-- Node4&#45;&gt;Node5 -->
<g id="edge8" class="edge"><title>Node4&#45;&gt;Node5</title>
<path fill="none" stroke="midnightblue" d="M250.98,-141.622C212.933,-128.259 164.741,-111.333 134.13,-100.582"/>
<polygon fill="midnightblue" stroke="midnightblue" points="249.823,-144.925 260.418,-144.937 252.143,-138.321 249.823,-144.925"/>
</g>
<!-- Node6 -->
<g id="node11" class="node"><title>Node6</title>
<a xlink:href="_setup__2014___e_p_t_8h.html" target="_top" xlink:title="src/expconfig/setups\l/Setup_2014_EPT.h">
<polygon fill="white" stroke="black" points="189.5,-73 189.5,-107 296.5,-107 296.5,-73 189.5,-73"/>
<text text-anchor="start" x="197.5" y="-94" font-family="Helvetica,sans-Serif" font-size="10.00">src/expconfig/setups</text>
<text text-anchor="middle" x="243" y="-81" font-family="Helvetica,sans-Serif" font-size="10.00">/Setup_2014_EPT.h</text>
</a>
</g>
<!-- Node4&#45;&gt;Node6 -->
<g id="edge10" class="edge"><title>Node4&#45;&gt;Node6</title>
<path fill="none" stroke="midnightblue" d="M286.43,-137.379C277.407,-127.535 267.224,-116.426 258.987,-107.441"/>
<polygon fill="midnightblue" stroke="midnightblue" points="284.022,-139.93 293.359,-144.937 289.182,-135.2 284.022,-139.93"/>
</g>
<!-- Node10 -->
<g id="node19" class="node"><title>Node10</title>
<a xlink:href="_setup__2015__dummy_8cc.html" target="_top" xlink:title="src/expconfig/setups\l/Setup_2015_dummy.cc">
<polygon fill="white" stroke="black" points="314,-73 314,-107 436,-107 436,-73 314,-73"/>
<text text-anchor="start" x="322" y="-94" font-family="Helvetica,sans-Serif" font-size="10.00">src/expconfig/setups</text>
<text text-anchor="middle" x="375" y="-81" font-family="Helvetica,sans-Serif" font-size="10.00">/Setup_2015_dummy.cc</text>
</a>
</g>
<!-- Node4&#45;&gt;Node10 -->
<g id="edge18" class="edge"><title>Node4&#45;&gt;Node10</title>
<path fill="none" stroke="midnightblue" d="M331.57,-137.379C340.593,-127.535 350.776,-116.426 359.013,-107.441"/>
<polygon fill="midnightblue" stroke="midnightblue" points="328.818,-135.2 324.641,-144.937 333.978,-139.93 328.818,-135.2"/>
</g>
<!-- Node11 -->
<g id="node21" class="node"><title>Node11</title>
<a xlink:href="_setup_registry_8cc.html" target="_top" xlink:title="src/expconfig/setups\l/SetupRegistry.cc">
<polygon fill="white" stroke="black" points="453.5,-73 453.5,-107 560.5,-107 560.5,-73 453.5,-73"/>
<text text-anchor="start" x="461.5" y="-94" font-family="Helvetica,sans-Serif" font-size="10.00">src/expconfig/setups</text>
<text text-anchor="middle" x="507" y="-81" font-family="Helvetica,sans-Serif" font-size="10.00">/SetupRegistry.cc</text>
</a>
</g>
<!-- Node4&#45;&gt;Node11 -->
<g id="edge20" class="edge"><title>Node4&#45;&gt;Node11</title>
<path fill="none" stroke="midnightblue" d="M365.399,-141.491C395.335,-130.606 431.692,-117.385 460.071,-107.065"/>
<polygon fill="midnightblue" stroke="midnightblue" points="364.125,-138.23 355.923,-144.937 366.517,-144.809 364.125,-138.23"/>
</g>
<!-- Node7 -->
<g id="node13" class="node"><title>Node7</title>
<a xlink:href="_setup__2014__07___e_p_t___prod_8cc.html" target="_top" xlink:title="src/expconfig/setups\l/Setup_2014_07_EPT_Prod.cc">
<polygon fill="white" stroke="black" points="-0.5,-1 -0.5,-35 150.5,-35 150.5,-1 -0.5,-1"/>
<text text-anchor="start" x="7.5" y="-22" font-family="Helvetica,sans-Serif" font-size="10.00">src/expconfig/setups</text>
<text text-anchor="middle" x="75" y="-9" font-family="Helvetica,sans-Serif" font-size="10.00">/Setup_2014_07_EPT_Prod.cc</text>
</a>
</g>
<!-- Node6&#45;&gt;Node7 -->
<g id="edge12" class="edge"><title>Node6&#45;&gt;Node7</title>
<path fill="none" stroke="midnightblue" d="M193.822,-68.9238C168.68,-58.1485 138.48,-45.2059 114.819,-35.0651"/>
<polygon fill="midnightblue" stroke="midnightblue" points="192.616,-72.2148 203.186,-72.937 195.374,-65.7807 192.616,-72.2148"/>
</g>
<!-- Node8 -->
<g id="node15" class="node"><title>Node8</title>
<a xlink:href="_setup__2014__10___e_p_t___prod_8cc.html" target="_top" xlink:title="src/expconfig/setups\l/Setup_2014_10_EPT_Prod.cc">
<polygon fill="white" stroke="black" points="167.5,-1 167.5,-35 318.5,-35 318.5,-1 167.5,-1"/>
<text text-anchor="start" x="175.5" y="-22" font-family="Helvetica,sans-Serif" font-size="10.00">src/expconfig/setups</text>
<text text-anchor="middle" x="243" y="-9" font-family="Helvetica,sans-Serif" font-size="10.00">/Setup_2014_10_EPT_Prod.cc</text>
</a>
</g>
<!-- Node6&#45;&gt;Node8 -->
<g id="edge14" class="edge"><title>Node6&#45;&gt;Node8</title>
<path fill="none" stroke="midnightblue" d="M243,-62.7193C243,-53.572 243,-43.6255 243,-35.4407"/>
<polygon fill="midnightblue" stroke="midnightblue" points="239.5,-62.937 243,-72.937 246.5,-62.937 239.5,-62.937"/>
</g>
<!-- Node9 -->
<g id="node17" class="node"><title>Node9</title>
<a xlink:href="_setup__2014__12___e_p_t___prod_8cc.html" target="_top" xlink:title="src/expconfig/setups\l/Setup_2014_12_EPT_Prod.cc">
<polygon fill="white" stroke="black" points="335.5,-1 335.5,-35 486.5,-35 486.5,-1 335.5,-1"/>
<text text-anchor="start" x="343.5" y="-22" font-family="Helvetica,sans-Serif" font-size="10.00">src/expconfig/setups</text>
<text text-anchor="middle" x="411" y="-9" font-family="Helvetica,sans-Serif" font-size="10.00">/Setup_2014_12_EPT_Prod.cc</text>
</a>
</g>
<!-- Node6&#45;&gt;Node9 -->
<g id="edge16" class="edge"><title>Node6&#45;&gt;Node9</title>
<path fill="none" stroke="midnightblue" d="M292.178,-68.9238C317.32,-58.1485 347.52,-45.2059 371.181,-35.0651"/>
<polygon fill="midnightblue" stroke="midnightblue" points="290.626,-65.7807 282.814,-72.937 293.384,-72.2148 290.626,-65.7807"/>
</g>
</g>
</svg>
