<?xml version="1.0" encoding="UTF-8" standalone="no"?>
<!DOCTYPE svg PUBLIC "-//W3C//DTD SVG 1.1//EN"
 "http://www.w3.org/Graphics/SVG/1.1/DTD/svg11.dtd">
<!-- Generated by graphviz version 2.26.3 (20100126.1600)
 -->
<!-- Title: src/expconfig/detectors/PID.h Pages: 1 -->
<svg width="1466pt" height="260pt"
 viewBox="0.00 0.00 1466.00 260.00" xmlns="http://www.w3.org/2000/svg" xmlns:xlink="http://www.w3.org/1999/xlink">
<g id="graph1" class="graph" transform="scale(1 1) rotate(0) translate(4 256)">
<title>src/expconfig/detectors/PID.h</title>
<polygon fill="white" stroke="white" points="-4,5 -4,-256 1463,-256 1463,5 -4,5"/>
<!-- Node1 -->
<g id="node1" class="node"><title>Node1</title>
<polygon fill="#bfbfbf" stroke="black" points="573.5,-217 573.5,-251 692.5,-251 692.5,-217 573.5,-217"/>
<text text-anchor="start" x="581.5" y="-238" font-family="Helvetica,sans-Serif" font-size="10.00">src/expconfig/detectors</text>
<text text-anchor="middle" x="633" y="-225" font-family="Helvetica,sans-Serif" font-size="10.00">/PID.h</text>
</g>
<!-- Node2 -->
<g id="node3" class="node"><title>Node2</title>
<a xlink:href="_p_i_d___energy_8cc.html" target="_top" xlink:title="src/calibration/modules\l/PID_Energy.cc">
<polygon fill="white" stroke="black" points="-0.5,-145 -0.5,-179 116.5,-179 116.5,-145 -0.5,-145"/>
<text text-anchor="start" x="7.5" y="-166" font-family="Helvetica,sans-Serif" font-size="10.00">src/calibration/modules</text>
<text text-anchor="middle" x="58" y="-153" font-family="Helvetica,sans-Serif" font-size="10.00">/PID_Energy.cc</text>
</a>
</g>
<!-- Node1&#45;&gt;Node2 -->
<g id="edge2" class="edge"><title>Node1&#45;&gt;Node2</title>
<path fill="none" stroke="midnightblue" d="M563.003,-230.037C464.572,-223.677 279.948,-208.866 125,-180 122.277,-179.493 119.502,-178.931 116.707,-178.329"/>
<polygon fill="midnightblue" stroke="midnightblue" points="562.922,-233.539 573.124,-230.681 563.366,-226.553 562.922,-233.539"/>
</g>
<!-- Node3 -->
<g id="node5" class="node"><title>Node3</title>
<a xlink:href="_p_i_d___phi_angle_8cc.html" target="_top" xlink:title="src/calibration/modules\l/PID_PhiAngle.cc">
<polygon fill="white" stroke="black" points="133.5,-145 133.5,-179 250.5,-179 250.5,-145 133.5,-145"/>
<text text-anchor="start" x="141.5" y="-166" font-family="Helvetica,sans-Serif" font-size="10.00">src/calibration/modules</text>
<text text-anchor="middle" x="192" y="-153" font-family="Helvetica,sans-Serif" font-size="10.00">/PID_PhiAngle.cc</text>
</a>
</g>
<!-- Node1&#45;&gt;Node3 -->
<g id="edge4" class="edge"><title>Node1&#45;&gt;Node3</title>
<path fill="none" stroke="midnightblue" d="M563.029,-226.421C487.565,-217.66 364.098,-201.625 259,-180 256.287,-179.442 253.52,-178.838 250.732,-178.203"/>
<polygon fill="midnightblue" stroke="midnightblue" points="563.018,-229.942 573.352,-227.608 563.818,-222.988 563.018,-229.942"/>
</g>
<!-- Node4 -->
<g id="node7" class="node"><title>Node4</title>
<a xlink:href="_p_i_d__2004__elements_8h.html" target="_top" xlink:title="src/expconfig/detectors\l/detail/PID_2004_elements.h">
<polygon fill="white" stroke="black" points="267.5,-145 267.5,-179 410.5,-179 410.5,-145 267.5,-145"/>
<text text-anchor="start" x="275.5" y="-166" font-family="Helvetica,sans-Serif" font-size="10.00">src/expconfig/detectors</text>
<text text-anchor="middle" x="339" y="-153" font-family="Helvetica,sans-Serif" font-size="10.00">/detail/PID_2004_elements.h</text>
</a>
</g>
<!-- Node1&#45;&gt;Node4 -->
<g id="edge6" class="edge"><title>Node1&#45;&gt;Node4</title>
<path fill="none" stroke="midnightblue" d="M563.408,-216.957C516.667,-205.51 455.316,-190.486 408.578,-179.039"/>
<polygon fill="midnightblue" stroke="midnightblue" points="562.605,-220.364 573.15,-219.343 564.27,-213.565 562.605,-220.364"/>
</g>
<!-- Node5 -->
<g id="node9" class="node"><title>Node5</title>
<a xlink:href="_p_i_d_8cc.html" target="_top" xlink:title="src/expconfig/detectors\l/PID.cc">
<polygon fill="white" stroke="black" points="573.5,-73 573.5,-107 692.5,-107 692.5,-73 573.5,-73"/>
<text text-anchor="start" x="581.5" y="-94" font-family="Helvetica,sans-Serif" font-size="10.00">src/expconfig/detectors</text>
<text text-anchor="middle" x="633" y="-81" font-family="Helvetica,sans-Serif" font-size="10.00">/PID.cc</text>
</a>
</g>
<!-- Node1&#45;&gt;Node5 -->
<g id="edge26" class="edge"><title>Node1&#45;&gt;Node5</title>
<path fill="none" stroke="midnightblue" d="M563.476,-224.139C501.216,-212.256 424.372,-188.14 457,-144 471.106,-124.916 528.07,-109.802 573.422,-100.474"/>
<polygon fill="midnightblue" stroke="midnightblue" points="562.858,-227.584 573.325,-225.942 564.119,-220.699 562.858,-227.584"/>
</g>
<!-- Node6 -->
<g id="node11" class="node"><title>Node6</title>
<a xlink:href="_p_i_d__2009__05__elements_8h.html" target="_top" xlink:title="src/expconfig/detectors\l/detail/PID_2009_05_elements.h">
<polygon fill="white" stroke="black" points="466,-145 466,-179 624,-179 624,-145 466,-145"/>
<text text-anchor="start" x="474" y="-166" font-family="Helvetica,sans-Serif" font-size="10.00">src/expconfig/detectors</text>
<text text-anchor="middle" x="545" y="-153" font-family="Helvetica,sans-Serif" font-size="10.00">/detail/PID_2009_05_elements.h</text>
</a>
</g>
<!-- Node1&#45;&gt;Node6 -->
<g id="edge10" class="edge"><title>Node1&#45;&gt;Node6</title>
<path fill="none" stroke="midnightblue" d="M604.269,-210.493C591.799,-200.29 577.46,-188.558 566.01,-179.19"/>
<polygon fill="midnightblue" stroke="midnightblue" points="602.189,-213.313 612.145,-216.937 606.622,-207.896 602.189,-213.313"/>
</g>
<!-- Node7 -->
<g id="node14" class="node"><title>Node7</title>
<a xlink:href="_p_i_d__2009__06__elements_8h.html" target="_top" xlink:title="src/expconfig/detectors\l/detail/PID_2009_06_elements.h">
<polygon fill="white" stroke="black" points="642,-145 642,-179 800,-179 800,-145 642,-145"/>
<text text-anchor="start" x="650" y="-166" font-family="Helvetica,sans-Serif" font-size="10.00">src/expconfig/detectors</text>
<text text-anchor="middle" x="721" y="-153" font-family="Helvetica,sans-Serif" font-size="10.00">/detail/PID_2009_06_elements.h</text>
</a>
</g>
<!-- Node1&#45;&gt;Node7 -->
<g id="edge14" class="edge"><title>Node1&#45;&gt;Node7</title>
<path fill="none" stroke="midnightblue" d="M661.731,-210.493C674.201,-200.29 688.54,-188.558 699.99,-179.19"/>
<polygon fill="midnightblue" stroke="midnightblue" points="659.378,-207.896 653.855,-216.937 663.811,-213.313 659.378,-207.896"/>
</g>
<!-- Node8 -->
<g id="node17" class="node"><title>Node8</title>
<a xlink:href="_p_i_d__2009__07__elements_8h.html" target="_top" xlink:title="src/expconfig/detectors\l/detail/PID_2009_07_elements.h">
<polygon fill="white" stroke="black" points="818,-145 818,-179 976,-179 976,-145 818,-145"/>
<text text-anchor="start" x="826" y="-166" font-family="Helvetica,sans-Serif" font-size="10.00">src/expconfig/detectors</text>
<text text-anchor="middle" x="897" y="-153" font-family="Helvetica,sans-Serif" font-size="10.00">/detail/PID_2009_07_elements.h</text>
</a>
</g>
<!-- Node1&#45;&gt;Node8 -->
<g id="edge18" class="edge"><title>Node1&#45;&gt;Node8</title>
<path fill="none" stroke="midnightblue" d="M702.475,-215.052C743.402,-203.89 794.758,-189.884 834.424,-179.066"/>
<polygon fill="midnightblue" stroke="midnightblue" points="701.303,-211.744 692.576,-217.752 703.145,-218.497 701.303,-211.744"/>
</g>
<!-- Node9 -->
<g id="node20" class="node"><title>Node9</title>
<a xlink:href="_p_i_d__2014__elements_8h.html" target="_top" xlink:title="src/expconfig/detectors\l/detail/PID_2014_elements.h">
<polygon fill="white" stroke="black" points="993.5,-145 993.5,-179 1136.5,-179 1136.5,-145 993.5,-145"/>
<text text-anchor="start" x="1001.5" y="-166" font-family="Helvetica,sans-Serif" font-size="10.00">src/expconfig/detectors</text>
<text text-anchor="middle" x="1065" y="-153" font-family="Helvetica,sans-Serif" font-size="10.00">/detail/PID_2014_elements.h</text>
</a>
</g>
<!-- Node1&#45;&gt;Node9 -->
<g id="edge22" class="edge"><title>Node1&#45;&gt;Node9</title>
<path fill="none" stroke="midnightblue" d="M702.884,-224.73C774.085,-214.945 887.578,-198.41 985,-180 987.658,-179.498 990.362,-178.971 993.09,-178.426"/>
<polygon fill="midnightblue" stroke="midnightblue" points="702.126,-221.301 692.692,-226.124 703.074,-228.236 702.126,-221.301"/>
</g>
<!-- Node10 -->
<g id="node24" class="node"><title>Node10</title>
<a xlink:href="_setup_8h.html" target="_top" xlink:title="src/expconfig/setups\l/Setup.h">
<polygon fill="white" stroke="black" points="1153.5,-145 1153.5,-179 1260.5,-179 1260.5,-145 1153.5,-145"/>
<text text-anchor="start" x="1161.5" y="-166" font-family="Helvetica,sans-Serif" font-size="10.00">src/expconfig/setups</text>
<text text-anchor="middle" x="1207" y="-153" font-family="Helvetica,sans-Serif" font-size="10.00">/Setup.h</text>
</a>
</g>
<!-- Node1&#45;&gt;Node10 -->
<g id="edge28" class="edge"><title>Node1&#45;&gt;Node10</title>
<path fill="none" stroke="midnightblue" d="M702.825,-230.569C801.926,-224.811 988.709,-210.677 1145,-180 1147.75,-179.46 1150.55,-178.854 1153.37,-178.2"/>
<polygon fill="midnightblue" stroke="midnightblue" points="702.424,-227.086 692.639,-231.149 702.822,-234.075 702.424,-227.086"/>
</g>
<!-- Node18 -->
<g id="node40" class="node"><title>Node18</title>
<a xlink:href="_candidate_builder_8cc.html" target="_top" xlink:title="src/reconstruct/Candidate\lBuilder.cc">
<polygon fill="white" stroke="black" points="1277.5,-145 1277.5,-179 1406.5,-179 1406.5,-145 1277.5,-145"/>
<text text-anchor="start" x="1285.5" y="-166" font-family="Helvetica,sans-Serif" font-size="10.00">src/reconstruct/Candidate</text>
<text text-anchor="middle" x="1342" y="-153" font-family="Helvetica,sans-Serif" font-size="10.00">Builder.cc</text>
</a>
</g>
<!-- Node1&#45;&gt;Node18 -->
<g id="edge44" class="edge"><title>Node1&#45;&gt;Node18</title>
<path fill="none" stroke="midnightblue" d="M702.863,-231.656C820.421,-226.912 1064.95,-213.606 1269,-180 1271.7,-179.555 1274.46,-179.061 1277.23,-178.53"/>
<polygon fill="midnightblue" stroke="midnightblue" points="702.425,-228.17 692.57,-232.062 702.701,-235.165 702.425,-228.17"/>
</g>
<!-- Node4&#45;&gt;Node5 -->
<g id="edge8" class="edge"><title>Node4&#45;&gt;Node5</title>
<path fill="none" stroke="midnightblue" d="M418.559,-142.516C467.302,-130.579 528.677,-115.548 573.264,-104.629"/>
<polygon fill="midnightblue" stroke="midnightblue" points="417.554,-139.159 408.674,-144.937 419.219,-145.958 417.554,-139.159"/>
</g>
<!-- Node6&#45;&gt;Node5 -->
<g id="edge12" class="edge"><title>Node6&#45;&gt;Node5</title>
<path fill="none" stroke="midnightblue" d="M573.731,-138.493C586.201,-128.29 600.54,-116.558 611.99,-107.19"/>
<polygon fill="midnightblue" stroke="midnightblue" points="571.378,-135.896 565.855,-144.937 575.811,-141.313 571.378,-135.896"/>
</g>
<!-- Node7&#45;&gt;Node5 -->
<g id="edge16" class="edge"><title>Node7&#45;&gt;Node5</title>
<path fill="none" stroke="midnightblue" d="M692.269,-138.493C679.799,-128.29 665.46,-116.558 654.01,-107.19"/>
<polygon fill="midnightblue" stroke="midnightblue" points="690.189,-141.313 700.145,-144.937 694.622,-135.896 690.189,-141.313"/>
</g>
<!-- Node8&#45;&gt;Node5 -->
<g id="edge20" class="edge"><title>Node8&#45;&gt;Node5</title>
<path fill="none" stroke="midnightblue" d="M824.682,-142.277C783.283,-130.986 731.963,-116.99 692.846,-106.322"/>
<polygon fill="midnightblue" stroke="midnightblue" points="823.867,-145.682 834.436,-144.937 825.709,-138.929 823.867,-145.682"/>
</g>
<!-- Node9&#45;&gt;Node5 -->
<g id="edge24" class="edge"><title>Node9&#45;&gt;Node5</title>
<path fill="none" stroke="midnightblue" d="M983.048,-143.687C875.572,-123.647 760.758,-107.144 692.692,-97.8761"/>
<polygon fill="midnightblue" stroke="midnightblue" points="982.616,-147.167 993.09,-145.574 983.909,-140.287 982.616,-147.167"/>
</g>
<!-- Node11 -->
<g id="node26" class="node"><title>Node11</title>
<a xlink:href="_exp_config_8cc.html" target="_top" xlink:title="src/expconfig/ExpConfig.cc">
<polygon fill="white" stroke="black" points="933.5,-79.5 933.5,-100.5 1070.5,-100.5 1070.5,-79.5 933.5,-79.5"/>
<text text-anchor="middle" x="1002" y="-87.5" font-family="Helvetica,sans-Serif" font-size="10.00">src/expconfig/ExpConfig.cc</text>
</a>
</g>
<!-- Node10&#45;&gt;Node11 -->
<g id="edge30" class="edge"><title>Node10&#45;&gt;Node11</title>
<path fill="none" stroke="midnightblue" d="M1148.98,-141.622C1110.93,-128.259 1062.74,-111.333 1032.13,-100.582"/>
<polygon fill="midnightblue" stroke="midnightblue" points="1147.82,-144.925 1158.42,-144.937 1150.14,-138.321 1147.82,-144.925"/>
</g>
<!-- Node12 -->
<g id="node28" class="node"><title>Node12</title>
<a xlink:href="_setup__2014___e_p_t_8h.html" target="_top" xlink:title="src/expconfig/setups\l/Setup_2014_EPT.h">
<polygon fill="white" stroke="black" points="1087.5,-73 1087.5,-107 1194.5,-107 1194.5,-73 1087.5,-73"/>
<text text-anchor="start" x="1095.5" y="-94" font-family="Helvetica,sans-Serif" font-size="10.00">src/expconfig/setups</text>
<text text-anchor="middle" x="1141" y="-81" font-family="Helvetica,sans-Serif" font-size="10.00">/Setup_2014_EPT.h</text>
</a>
</g>
<!-- Node10&#45;&gt;Node12 -->
<g id="edge32" class="edge"><title>Node10&#45;&gt;Node12</title>
<path fill="none" stroke="midnightblue" d="M1184.43,-137.379C1175.41,-127.535 1165.22,-116.426 1156.99,-107.441"/>
<polygon fill="midnightblue" stroke="midnightblue" points="1182.02,-139.93 1191.36,-144.937 1187.18,-135.2 1182.02,-139.93"/>
</g>
<!-- Node16 -->
<g id="node36" class="node"><title>Node16</title>
<a xlink:href="_setup__2015__dummy_8cc.html" target="_top" xlink:title="src/expconfig/setups\l/Setup_2015_dummy.cc">
<polygon fill="white" stroke="black" points="1212,-73 1212,-107 1334,-107 1334,-73 1212,-73"/>
<text text-anchor="start" x="1220" y="-94" font-family="Helvetica,sans-Serif" font-size="10.00">src/expconfig/setups</text>
<text text-anchor="middle" x="1273" y="-81" font-family="Helvetica,sans-Serif" font-size="10.00">/Setup_2015_dummy.cc</text>
</a>
</g>
<!-- Node10&#45;&gt;Node16 -->
<g id="edge40" class="edge"><title>Node10&#45;&gt;Node16</title>
<path fill="none" stroke="midnightblue" d="M1229.57,-137.379C1238.59,-127.535 1248.78,-116.426 1257.01,-107.441"/>
<polygon fill="midnightblue" stroke="midnightblue" points="1226.82,-135.2 1222.64,-144.937 1231.98,-139.93 1226.82,-135.2"/>
</g>
<!-- Node17 -->
<g id="node38" class="node"><title>Node17</title>
<a xlink:href="_setup_registry_8cc.html" target="_top" xlink:title="src/expconfig/setups\l/SetupRegistry.cc">
<polygon fill="white" stroke="black" points="1351.5,-73 1351.5,-107 1458.5,-107 1458.5,-73 1351.5,-73"/>
<text text-anchor="start" x="1359.5" y="-94" font-family="Helvetica,sans-Serif" font-size="10.00">src/expconfig/setups</text>
<text text-anchor="middle" x="1405" y="-81" font-family="Helvetica,sans-Serif" font-size="10.00">/SetupRegistry.cc</text>
</a>
</g>
<!-- Node10&#45;&gt;Node17 -->
<g id="edge42" class="edge"><title>Node10&#45;&gt;Node17</title>
<path fill="none" stroke="midnightblue" d="M1263.4,-141.491C1293.33,-130.606 1329.69,-117.385 1358.07,-107.065"/>
<polygon fill="midnightblue" stroke="midnightblue" points="1262.13,-138.23 1253.92,-144.937 1264.52,-144.809 1262.13,-138.23"/>
</g>
<!-- Node13 -->
<g id="node30" class="node"><title>Node13</title>
<a xlink:href="_setup__2014__07___e_p_t___prod_8cc.html" target="_top" xlink:title="src/expconfig/setups\l/Setup_2014_07_EPT_Prod.cc">
<polygon fill="white" stroke="black" points="897.5,-1 897.5,-35 1048.5,-35 1048.5,-1 897.5,-1"/>
<text text-anchor="start" x="905.5" y="-22" font-family="Helvetica,sans-Serif" font-size="10.00">src/expconfig/setups</text>
<text text-anchor="middle" x="973" y="-9" font-family="Helvetica,sans-Serif" font-size="10.00">/Setup_2014_07_EPT_Prod.cc</text>
</a>
</g>
<!-- Node12&#45;&gt;Node13 -->
<g id="edge34" class="edge"><title>Node12&#45;&gt;Node13</title>
<path fill="none" stroke="midnightblue" d="M1091.82,-68.9238C1066.68,-58.1485 1036.48,-45.2059 1012.82,-35.0651"/>
<polygon fill="midnightblue" stroke="midnightblue" points="1090.62,-72.2148 1101.19,-72.937 1093.37,-65.7807 1090.62,-72.2148"/>
</g>
<!-- Node14 -->
<g id="node32" class="node"><title>Node14</title>
<a xlink:href="_setup__2014__10___e_p_t___prod_8cc.html" target="_top" xlink:title="src/expconfig/setups\l/Setup_2014_10_EPT_Prod.cc">
<polygon fill="white" stroke="black" points="1065.5,-1 1065.5,-35 1216.5,-35 1216.5,-1 1065.5,-1"/>
<text text-anchor="start" x="1073.5" y="-22" font-family="Helvetica,sans-Serif" font-size="10.00">src/expconfig/setups</text>
<text text-anchor="middle" x="1141" y="-9" font-family="Helvetica,sans-Serif" font-size="10.00">/Setup_2014_10_EPT_Prod.cc</text>
</a>
</g>
<!-- Node12&#45;&gt;Node14 -->
<g id="edge36" class="edge"><title>Node12&#45;&gt;Node14</title>
<path fill="none" stroke="midnightblue" d="M1141,-62.7193C1141,-53.572 1141,-43.6255 1141,-35.4407"/>
<polygon fill="midnightblue" stroke="midnightblue" points="1137.5,-62.937 1141,-72.937 1144.5,-62.937 1137.5,-62.937"/>
</g>
<!-- Node15 -->
<g id="node34" class="node"><title>Node15</title>
<a xlink:href="_setup__2014__12___e_p_t___prod_8cc.html" target="_top" xlink:title="src/expconfig/setups\l/Setup_2014_12_EPT_Prod.cc">
<polygon fill="white" stroke="black" points="1233.5,-1 1233.5,-35 1384.5,-35 1384.5,-1 1233.5,-1"/>
<text text-anchor="start" x="1241.5" y="-22" font-family="Helvetica,sans-Serif" font-size="10.00">src/expconfig/setups</text>
<text text-anchor="middle" x="1309" y="-9" font-family="Helvetica,sans-Serif" font-size="10.00">/Setup_2014_12_EPT_Prod.cc</text>
</a>
</g>
<!-- Node12&#45;&gt;Node15 -->
<g id="edge38" class="edge"><title>Node12&#45;&gt;Node15</title>
<path fill="none" stroke="midnightblue" d="M1190.18,-68.9238C1215.32,-58.1485 1245.52,-45.2059 1269.18,-35.0651"/>
<polygon fill="midnightblue" stroke="midnightblue" points="1188.63,-65.7807 1180.81,-72.937 1191.38,-72.2148 1188.63,-65.7807"/>
</g>
</g>
</svg>
