<?xml version="1.0" encoding="UTF-8" standalone="no"?>
<!DOCTYPE svg PUBLIC "-//W3C//DTD SVG 1.1//EN"
 "http://www.w3.org/Graphics/SVG/1.1/DTD/svg11.dtd">
<!-- Generated by graphviz version 2.26.3 (20100126.1600)
 -->
<!-- Title: src/analysis/utils/ParticleID.h Pages: 1 -->
<svg width="386pt" height="160pt"
 viewBox="0.00 0.00 386.00 160.00" xmlns="http://www.w3.org/2000/svg" xmlns:xlink="http://www.w3.org/1999/xlink">
<g id="graph1" class="graph" transform="scale(1 1) rotate(0) translate(4 156)">
<title>src/analysis/utils/ParticleID.h</title>
<polygon fill="white" stroke="white" points="-4,5 -4,-156 383,-156 383,5 -4,5"/>
<!-- Node1 -->
<g id="node1" class="node"><title>Node1</title>
<polygon fill="#bfbfbf" stroke="black" points="207,-117 207,-151 297,-151 297,-117 207,-117"/>
<text text-anchor="start" x="215" y="-138" font-family="Helvetica,sans-Serif" font-size="10.00">src/analysis/utils</text>
<text text-anchor="middle" x="252" y="-125" font-family="Helvetica,sans-Serif" font-size="10.00">/ParticleID.h</text>
</g>
<!-- Node2 -->
<g id="node3" class="node"><title>Node2</title>
<a xlink:href="_particle_type_8h.html" target="_top" xlink:title="base/ParticleType.h">
<polygon fill="white" stroke="black" points="152,-58.5 152,-79.5 256,-79.5 256,-58.5 152,-58.5"/>
<text text-anchor="middle" x="204" y="-66.5" font-family="Helvetica,sans-Serif" font-size="10.00">base/ParticleType.h</text>
</a>
</g>
<!-- Node1&#45;&gt;Node2 -->
<g id="edge2" class="edge"><title>Node1&#45;&gt;Node2</title>
<path fill="none" stroke="midnightblue" d="M239.389,-116.922C232.821,-108.029 224.773,-97.1296 218.011,-87.9738"/>
<polygon fill="midnightblue" stroke="midnightblue" points="220.77,-85.8173 212.014,-79.8521 215.139,-89.9756 220.77,-85.8173"/>
</g>
<!-- Node9 -->
<g id="node17" class="node"><title>Node9</title>
<polygon fill="white" stroke="#bfbfbf" points="274,-58.5 274,-79.5 326,-79.5 326,-58.5 274,-58.5"/>
<text text-anchor="middle" x="300" y="-66.5" font-family="Helvetica,sans-Serif" font-size="10.00">memory</text>
</g>
<!-- Node1&#45;&gt;Node9 -->
<g id="edge16" class="edge"><title>Node1&#45;&gt;Node9</title>
<path fill="none" stroke="midnightblue" d="M264.611,-116.922C271.179,-108.029 279.227,-97.1296 285.989,-87.9738"/>
<polygon fill="midnightblue" stroke="midnightblue" points="288.861,-89.9756 291.986,-79.8521 283.23,-85.8173 288.861,-89.9756"/>
</g>
<!-- Node3 -->
<g id="node5" class="node"><title>Node3</title>
<a xlink:href="types_8h.html" target="_top" xlink:title="base/types.h">
<polygon fill="white" stroke="black" points="-0.5,-0.5 -0.5,-21.5 72.5,-21.5 72.5,-0.5 -0.5,-0.5"/>
<text text-anchor="middle" x="36" y="-8.5" font-family="Helvetica,sans-Serif" font-size="10.00">base/types.h</text>
</a>
</g>
<!-- Node2&#45;&gt;Node3 -->
<g id="edge4" class="edge"><title>Node2&#45;&gt;Node3</title>
<path fill="none" stroke="midnightblue" d="M173.576,-58.4966C146.306,-49.082 106.107,-35.2036 76.1963,-24.8773"/>
<polygon fill="midnightblue" stroke="midnightblue" points="77.0753,-21.4781 66.4806,-21.5231 74.7909,-28.0949 77.0753,-21.4781"/>
</g>
<!-- Node4 -->
<g id="node7" class="node"><title>Node4</title>
<polygon fill="white" stroke="#bfbfbf" points="89.5,-0.5 89.5,-21.5 130.5,-21.5 130.5,-0.5 89.5,-0.5"/>
<text text-anchor="middle" x="110" y="-8.5" font-family="Helvetica,sans-Serif" font-size="10.00">string</text>
</g>
<!-- Node2&#45;&gt;Node4 -->
<g id="edge6" class="edge"><title>Node2&#45;&gt;Node4</title>
<path fill="none" stroke="midnightblue" d="M186.759,-58.3619C172.448,-49.532 151.885,-36.844 135.643,-26.8224"/>
<polygon fill="midnightblue" stroke="midnightblue" points="137.48,-23.8431 127.132,-21.5707 133.804,-29.8004 137.48,-23.8431"/>
</g>
<!-- Node5 -->
<g id="node9" class="node"><title>Node5</title>
<polygon fill="white" stroke="#bfbfbf" points="148,-0.5 148,-21.5 200,-21.5 200,-0.5 148,-0.5"/>
<text text-anchor="middle" x="174" y="-8.5" font-family="Helvetica,sans-Serif" font-size="10.00">ostream</text>
</g>
<!-- Node2&#45;&gt;Node5 -->
<g id="edge8" class="edge"><title>Node2&#45;&gt;Node5</title>
<path fill="none" stroke="midnightblue" d="M198.498,-58.3619C194.48,-50.5949 188.919,-39.8426 184.11,-30.5458"/>
<polygon fill="midnightblue" stroke="midnightblue" points="187.171,-28.8448 179.468,-21.5707 180.953,-32.0608 187.171,-28.8448"/>
</g>
<!-- Node6 -->
<g id="node11" class="node"><title>Node6</title>
<polygon fill="white" stroke="#bfbfbf" points="217.5,-0.5 217.5,-21.5 252.5,-21.5 252.5,-0.5 217.5,-0.5"/>
<text text-anchor="middle" x="235" y="-8.5" font-family="Helvetica,sans-Serif" font-size="10.00">map</text>
</g>
<!-- Node2&#45;&gt;Node6 -->
<g id="edge10" class="edge"><title>Node2&#45;&gt;Node6</title>
<path fill="none" stroke="midnightblue" d="M209.686,-58.3619C213.837,-50.5949 219.584,-39.8426 224.553,-30.5458"/>
<polygon fill="midnightblue" stroke="midnightblue" points="227.723,-32.0398 229.35,-21.5707 221.55,-28.7401 227.723,-32.0398"/>
</g>
<!-- Node7 -->
<g id="node13" class="node"><title>Node7</title>
<polygon fill="white" stroke="#bfbfbf" points="269.5,-0.5 269.5,-21.5 316.5,-21.5 316.5,-0.5 269.5,-0.5"/>
<text text-anchor="middle" x="293" y="-8.5" font-family="Helvetica,sans-Serif" font-size="10.00">iterator</text>
</g>
<!-- Node2&#45;&gt;Node7 -->
<g id="edge12" class="edge"><title>Node2&#45;&gt;Node7</title>
<path fill="none" stroke="midnightblue" d="M220.324,-58.3619C233.748,-49.6138 252.983,-37.0786 268.293,-27.1015"/>
<polygon fill="midnightblue" stroke="midnightblue" points="270.312,-29.9628 276.78,-21.5707 266.491,-24.0982 270.312,-29.9628"/>
</g>
<!-- Node8 -->
<g id="node15" class="node"><title>Node8</title>
<polygon fill="white" stroke="#bfbfbf" points="334,-0.5 334,-21.5 378,-21.5 378,-0.5 334,-0.5"/>
<text text-anchor="middle" x="356" y="-8.5" font-family="Helvetica,sans-Serif" font-size="10.00">vector</text>
</g>
<!-- Node2&#45;&gt;Node8 -->
<g id="edge14" class="edge"><title>Node2&#45;&gt;Node8</title>
<path fill="none" stroke="midnightblue" d="M231.526,-58.4966C257.584,-48.5533 296.692,-33.6309 324.099,-23.1727"/>
<polygon fill="midnightblue" stroke="midnightblue" points="325.527,-26.3743 333.622,-19.5391 323.031,-19.8342 325.527,-26.3743"/>
</g>
</g>
</svg>
