<?xml version="1.0" encoding="UTF-8" standalone="no"?>
<!DOCTYPE svg PUBLIC "-//W3C//DTD SVG 1.1//EN"
 "http://www.w3.org/Graphics/SVG/1.1/DTD/svg11.dtd">
<!-- Generated by graphviz version 2.26.3 (20100126.1600)
 -->
<!-- Title: src/analysis/data/Particle.h Pages: 1 -->
<svg width="944pt" height="320pt"
 viewBox="0.00 0.00 944.00 320.00" xmlns="http://www.w3.org/2000/svg" xmlns:xlink="http://www.w3.org/1999/xlink">
<g id="graph1" class="graph" transform="scale(1 1) rotate(0) translate(4 316)">
<title>src/analysis/data/Particle.h</title>
<polygon fill="white" stroke="white" points="-4,5 -4,-316 941,-316 941,5 -4,5"/>
<!-- Node1 -->
<g id="node1" class="node"><title>Node1</title>
<polygon fill="#bfbfbf" stroke="black" points="535.5,-290.5 535.5,-311.5 670.5,-311.5 670.5,-290.5 535.5,-290.5"/>
<text text-anchor="middle" x="603" y="-298.5" font-family="Helvetica,sans-Serif" font-size="10.00">src/analysis/data/Particle.h</text>
</g>
<!-- Node2 -->
<g id="node3" class="node"><title>Node2</title>
<a xlink:href="printable_8h.html" target="_top" xlink:title="base/printable.h">
<polygon fill="white" stroke="black" points="423,-58.5 423,-79.5 509,-79.5 509,-58.5 423,-58.5"/>
<text text-anchor="middle" x="466" y="-66.5" font-family="Helvetica,sans-Serif" font-size="10.00">base/printable.h</text>
</a>
</g>
<!-- Node1&#45;&gt;Node2 -->
<g id="edge2" class="edge"><title>Node1&#45;&gt;Node2</title>
<path fill="none" stroke="midnightblue" d="M591.901,-290.289C573.745,-272.268 537.475,-234.106 515,-196 494.305,-160.911 479.263,-115.496 471.645,-89.5691"/>
<polygon fill="midnightblue" stroke="midnightblue" points="474.949,-88.3935 468.84,-79.7377 468.218,-90.3143 474.949,-88.3935"/>
</g>
<!-- Node3 -->
<g id="node5" class="node"><title>Node3</title>
<polygon fill="white" stroke="#bfbfbf" points="291,-0.5 291,-21.5 335,-21.5 335,-0.5 291,-0.5"/>
<text text-anchor="middle" x="313" y="-8.5" font-family="Helvetica,sans-Serif" font-size="10.00">vector</text>
</g>
<!-- Node1&#45;&gt;Node3 -->
<g id="edge64" class="edge"><title>Node1&#45;&gt;Node3</title>
<path fill="none" stroke="midnightblue" d="M535.292,-295.018C377.766,-280.19 0,-239.003 0,-185 0,-185 0,-185 0,-127 0,-86.9383 23.3745,-78.1499 58,-58 95.4383,-36.2133 220.693,-20.6222 280.576,-14.2236"/>
<polygon fill="midnightblue" stroke="midnightblue" points="281.042,-17.6941 290.623,-13.1712 280.313,-10.7322 281.042,-17.6941"/>
</g>
<!-- Node5 -->
<g id="node9" class="node"><title>Node5</title>
<a xlink:href="types_8h.html" target="_top" xlink:title="base/types.h">
<polygon fill="white" stroke="black" points="523.5,-174.5 523.5,-195.5 596.5,-195.5 596.5,-174.5 523.5,-174.5"/>
<text text-anchor="middle" x="560" y="-182.5" font-family="Helvetica,sans-Serif" font-size="10.00">base/types.h</text>
</a>
</g>
<!-- Node1&#45;&gt;Node5 -->
<g id="edge8" class="edge"><title>Node1&#45;&gt;Node5</title>
<path fill="none" stroke="midnightblue" d="M599.032,-290.295C591.864,-270.959 576.652,-229.923 567.479,-205.177"/>
<polygon fill="midnightblue" stroke="midnightblue" points="570.716,-203.839 563.959,-195.679 564.153,-206.272 570.716,-203.839"/>
</g>
<!-- Node6 -->
<g id="node11" class="node"><title>Node6</title>
<a xlink:href="_particle_type_8h.html" target="_top" xlink:title="base/ParticleType.h">
<polygon fill="white" stroke="black" points="650,-232.5 650,-253.5 754,-253.5 754,-232.5 650,-232.5"/>
<text text-anchor="middle" x="702" y="-240.5" font-family="Helvetica,sans-Serif" font-size="10.00">base/ParticleType.h</text>
</a>
</g>
<!-- Node1&#45;&gt;Node6 -->
<g id="edge10" class="edge"><title>Node1&#45;&gt;Node6</title>
<path fill="none" stroke="midnightblue" d="M621.158,-290.362C636.23,-281.532 657.887,-268.844 674.993,-258.822"/>
<polygon fill="midnightblue" stroke="midnightblue" points="677.098,-261.646 683.957,-253.571 673.559,-255.606 677.098,-261.646"/>
</g>
<!-- Node10 -->
<g id="node22" class="node"><title>Node10</title>
<a xlink:href="_candidate_8h.html" target="_top" xlink:title="analysis/data/Candidate.h">
<polygon fill="white" stroke="black" points="264,-232.5 264,-253.5 394,-253.5 394,-232.5 264,-232.5"/>
<text text-anchor="middle" x="329" y="-240.5" font-family="Helvetica,sans-Serif" font-size="10.00">analysis/data/Candidate.h</text>
</a>
</g>
<!-- Node1&#45;&gt;Node10 -->
<g id="edge24" class="edge"><title>Node1&#45;&gt;Node10</title>
<path fill="none" stroke="midnightblue" d="M553.381,-290.497C507.068,-280.693 437.889,-266.05 388.602,-255.616"/>
<polygon fill="midnightblue" stroke="midnightblue" points="389.22,-252.17 378.712,-253.523 387.771,-259.018 389.22,-252.17"/>
</g>
<!-- Node17 -->
<g id="node42" class="node"><title>Node17</title>
<polygon fill="white" stroke="#bfbfbf" points="594.5,-116.5 594.5,-137.5 623.5,-137.5 623.5,-116.5 594.5,-116.5"/>
<text text-anchor="middle" x="609" y="-124.5" font-family="Helvetica,sans-Serif" font-size="10.00">list</text>
</g>
<!-- Node1&#45;&gt;Node17 -->
<g id="edge66" class="edge"><title>Node1&#45;&gt;Node17</title>
<path fill="none" stroke="midnightblue" d="M603.366,-290.377C604.335,-262.293 606.977,-185.673 608.269,-148.203"/>
<polygon fill="midnightblue" stroke="midnightblue" points="611.776,-148.042 608.623,-137.928 604.781,-147.801 611.776,-148.042"/>
</g>
<!-- Node20 -->
<g id="node51" class="node"><title>Node20</title>
<polygon fill="white" stroke="#bfbfbf" points="772,-232.5 772,-253.5 864,-253.5 864,-232.5 772,-232.5"/>
<text text-anchor="middle" x="818" y="-240.5" font-family="Helvetica,sans-Serif" font-size="10.00">TLorentzVector.h</text>
</g>
<!-- Node1&#45;&gt;Node20 -->
<g id="edge62" class="edge"><title>Node1&#45;&gt;Node20</title>
<path fill="none" stroke="midnightblue" d="M641.935,-290.497C677.593,-280.877 730.524,-266.598 769.036,-256.209"/>
<polygon fill="midnightblue" stroke="midnightblue" points="770.249,-259.507 778.992,-253.523 768.426,-252.748 770.249,-259.507"/>
</g>
<!-- Node21 -->
<g id="node55" class="node"><title>Node21</title>
<polygon fill="white" stroke="#bfbfbf" points="882,-232.5 882,-253.5 936,-253.5 936,-232.5 882,-232.5"/>
<text text-anchor="middle" x="909" y="-240.5" font-family="Helvetica,sans-Serif" font-size="10.00">iostream</text>
</g>
<!-- Node1&#45;&gt;Node21 -->
<g id="edge68" class="edge"><title>Node1&#45;&gt;Node21</title>
<path fill="none" stroke="midnightblue" d="M670.604,-291.614C723.147,-283.774 797.975,-271.422 872.007,-254.026"/>
<polygon fill="midnightblue" stroke="midnightblue" points="873.055,-257.374 881.972,-251.652 871.433,-250.565 873.055,-257.374"/>
</g>
<!-- Node2&#45;&gt;Node3 -->
<g id="edge4" class="edge"><title>Node2&#45;&gt;Node3</title>
<path fill="none" stroke="midnightblue" d="M438.293,-58.4966C411.91,-48.4952 372.238,-33.4562 344.628,-22.9896"/>
<polygon fill="midnightblue" stroke="midnightblue" points="345.64,-19.6303 335.048,-19.3582 343.158,-26.1757 345.64,-19.6303"/>
</g>
<!-- Node4 -->
<g id="node7" class="node"><title>Node4</title>
<polygon fill="white" stroke="#bfbfbf" points="569,-0.5 569,-21.5 621,-21.5 621,-0.5 569,-0.5"/>
<text text-anchor="middle" x="595" y="-8.5" font-family="Helvetica,sans-Serif" font-size="10.00">ostream</text>
</g>
<!-- Node2&#45;&gt;Node4 -->
<g id="edge6" class="edge"><title>Node2&#45;&gt;Node4</title>
<path fill="none" stroke="midnightblue" d="M489.361,-58.4966C509.691,-49.3562 539.378,-36.0082 562.109,-25.7883"/>
<polygon fill="midnightblue" stroke="midnightblue" points="563.692,-28.9142 571.377,-21.6212 560.821,-22.5298 563.692,-28.9142"/>
</g>
<!-- Node6&#45;&gt;Node3 -->
<g id="edge22" class="edge"><title>Node6&#45;&gt;Node3</title>
<path fill="none" stroke="midnightblue" d="M700.443,-232.462C698.212,-218.708 693.525,-194.03 686,-174 661.014,-107.488 641.3,-85.9995 576,-58 497.597,-24.3821 396.103,-14.8098 345.163,-12.0845"/>
<polygon fill="midnightblue" stroke="midnightblue" points="345.244,-8.58439 335.087,-11.6007 344.908,-15.5763 345.244,-8.58439"/>
</g>
<!-- Node6&#45;&gt;Node4 -->
<g id="edge16" class="edge"><title>Node6&#45;&gt;Node4</title>
<path fill="none" stroke="midnightblue" d="M749.197,-232.42C783.156,-223.74 824.713,-210.546 835,-196 840.646,-188.017 838.837,-182.994 835,-174 798.269,-87.9033 688.388,-40.9092 630.92,-21.6176"/>
<polygon fill="midnightblue" stroke="midnightblue" points="631.755,-18.2087 621.163,-18.4399 629.588,-24.8646 631.755,-18.2087"/>
</g>
<!-- Node6&#45;&gt;Node5 -->
<g id="edge12" class="edge"><title>Node6&#45;&gt;Node5</title>
<path fill="none" stroke="midnightblue" d="M676.285,-232.497C653.707,-223.275 620.642,-209.769 595.537,-199.515"/>
<polygon fill="midnightblue" stroke="midnightblue" points="596.585,-196.162 586.004,-195.621 593.938,-202.643 596.585,-196.162"/>
</g>
<!-- Node7 -->
<g id="node14" class="node"><title>Node7</title>
<polygon fill="white" stroke="#bfbfbf" points="526.5,-58.5 526.5,-79.5 567.5,-79.5 567.5,-58.5 526.5,-58.5"/>
<text text-anchor="middle" x="547" y="-66.5" font-family="Helvetica,sans-Serif" font-size="10.00">string</text>
</g>
<!-- Node6&#45;&gt;Node7 -->
<g id="edge14" class="edge"><title>Node6&#45;&gt;Node7</title>
<path fill="none" stroke="midnightblue" d="M698.4,-232.188C690.064,-208.528 667.402,-151.45 632,-116 616.417,-100.396 594.572,-88.4684 576.93,-80.5339"/>
<polygon fill="midnightblue" stroke="midnightblue" points="578.197,-77.2692 567.628,-76.5386 575.435,-83.701 578.197,-77.2692"/>
</g>
<!-- Node8 -->
<g id="node17" class="node"><title>Node8</title>
<polygon fill="white" stroke="#bfbfbf" points="727.5,-174.5 727.5,-195.5 762.5,-195.5 762.5,-174.5 727.5,-174.5"/>
<text text-anchor="middle" x="745" y="-182.5" font-family="Helvetica,sans-Serif" font-size="10.00">map</text>
</g>
<!-- Node6&#45;&gt;Node8 -->
<g id="edge18" class="edge"><title>Node6&#45;&gt;Node8</title>
<path fill="none" stroke="midnightblue" d="M709.887,-232.362C715.827,-224.35 724.122,-213.161 731.159,-203.67"/>
<polygon fill="midnightblue" stroke="midnightblue" points="734.019,-205.688 737.163,-195.571 728.396,-201.519 734.019,-205.688"/>
</g>
<!-- Node9 -->
<g id="node19" class="node"><title>Node9</title>
<polygon fill="white" stroke="#bfbfbf" points="779.5,-174.5 779.5,-195.5 826.5,-195.5 826.5,-174.5 779.5,-174.5"/>
<text text-anchor="middle" x="803" y="-182.5" font-family="Helvetica,sans-Serif" font-size="10.00">iterator</text>
</g>
<!-- Node6&#45;&gt;Node9 -->
<g id="edge20" class="edge"><title>Node6&#45;&gt;Node9</title>
<path fill="none" stroke="midnightblue" d="M720.525,-232.362C735.901,-223.532 757.996,-210.844 775.447,-200.822"/>
<polygon fill="midnightblue" stroke="midnightblue" points="777.664,-203.586 784.592,-195.571 774.178,-197.515 777.664,-203.586"/>
</g>
<!-- Node10&#45;&gt;Node2 -->
<g id="edge26" class="edge"><title>Node10&#45;&gt;Node2</title>
<path fill="none" stroke="midnightblue" d="M321.716,-232.372C315.901,-223.201 308.214,-209.362 305,-196 296.575,-160.977 293.66,-142.555 318,-116 324.921,-108.449 375.78,-93.3007 415.972,-82.2355"/>
<polygon fill="midnightblue" stroke="midnightblue" points="416.941,-85.5992 425.665,-79.5883 415.097,-78.8464 416.941,-85.5992"/>
</g>
<!-- Node10&#45;&gt;Node3 -->
<g id="edge60" class="edge"><title>Node10&#45;&gt;Node3</title>
<path fill="none" stroke="midnightblue" d="M287.757,-232.443C199.239,-207.876 4.5126,-142.483 74,-58 99.7944,-26.639 221.391,-15.8806 280.535,-12.4625"/>
<polygon fill="midnightblue" stroke="midnightblue" points="281.018,-15.9416 290.814,-11.9064 280.64,-8.95179 281.018,-15.9416"/>
</g>
<!-- Node10&#45;&gt;Node4 -->
<g id="edge56" class="edge"><title>Node10&#45;&gt;Node4</title>
<path fill="none" stroke="midnightblue" d="M359.308,-232.488C412.845,-212.205 523.449,-162.266 576,-80 585.381,-65.3145 590.186,-46.0102 592.613,-31.5556"/>
<polygon fill="midnightblue" stroke="midnightblue" points="596.085,-32.0003 594.042,-21.6043 589.156,-31.0052 596.085,-32.0003"/>
</g>
<!-- Node10&#45;&gt;Node5 -->
<g id="edge28" class="edge"><title>Node10&#45;&gt;Node5</title>
<path fill="none" stroke="midnightblue" d="M370.832,-232.497C411.07,-222.394 471.78,-207.151 513.511,-196.673"/>
<polygon fill="midnightblue" stroke="midnightblue" points="514.578,-200.013 523.424,-194.184 512.873,-193.224 514.578,-200.013"/>
</g>
<!-- Node11 -->
<g id="node26" class="node"><title>Node11</title>
<a xlink:href="_detector__t_8h.html" target="_top" xlink:title="base/Detector_t.h">
<polygon fill="white" stroke="black" points="176.5,-116.5 176.5,-137.5 271.5,-137.5 271.5,-116.5 176.5,-116.5"/>
<text text-anchor="middle" x="224" y="-124.5" font-family="Helvetica,sans-Serif" font-size="10.00">base/Detector_t.h</text>
</a>
</g>
<!-- Node10&#45;&gt;Node11 -->
<g id="edge30" class="edge"><title>Node10&#45;&gt;Node11</title>
<path fill="none" stroke="midnightblue" d="M313.993,-232.417C301.904,-223.487 284.863,-209.96 272,-196 257.886,-180.682 244.589,-160.996 235.585,-146.574"/>
<polygon fill="midnightblue" stroke="midnightblue" points="238.522,-144.666 230.324,-137.955 232.547,-148.314 238.522,-144.666"/>
</g>
<!-- Node16 -->
<g id="node39" class="node"><title>Node16</title>
<a xlink:href="_cluster_8h.html" target="_top" xlink:title="analysis/data/Cluster.h">
<polygon fill="white" stroke="black" points="313.5,-174.5 313.5,-195.5 430.5,-195.5 430.5,-174.5 313.5,-174.5"/>
<text text-anchor="middle" x="372" y="-182.5" font-family="Helvetica,sans-Serif" font-size="10.00">analysis/data/Cluster.h</text>
</a>
</g>
<!-- Node10&#45;&gt;Node16 -->
<g id="edge46" class="edge"><title>Node10&#45;&gt;Node16</title>
<path fill="none" stroke="midnightblue" d="M336.887,-232.362C342.827,-224.35 351.122,-213.161 358.159,-203.67"/>
<polygon fill="midnightblue" stroke="midnightblue" points="361.019,-205.688 364.163,-195.571 355.396,-201.519 361.019,-205.688"/>
</g>
<!-- Node19 -->
<g id="node48" class="node"><title>Node19</title>
<polygon fill="white" stroke="#bfbfbf" points="28,-174.5 28,-195.5 80,-195.5 80,-174.5 28,-174.5"/>
<text text-anchor="middle" x="54" y="-182.5" font-family="Helvetica,sans-Serif" font-size="10.00">memory</text>
</g>
<!-- Node10&#45;&gt;Node19 -->
<g id="edge58" class="edge"><title>Node10&#45;&gt;Node19</title>
<path fill="none" stroke="midnightblue" d="M270.322,-232.461C222.63,-223.608 153.713,-210.163 94,-196 92.7386,-195.701 91.4568,-195.389 90.1638,-195.069"/>
<polygon fill="midnightblue" stroke="midnightblue" points="90.7395,-191.602 80.1815,-192.486 88.9861,-198.379 90.7395,-191.602"/>
</g>
<!-- Node11&#45;&gt;Node2 -->
<g id="edge32" class="edge"><title>Node11&#45;&gt;Node2</title>
<path fill="none" stroke="midnightblue" d="M267.824,-116.497C308.64,-106.714 369.562,-92.1131 413.075,-81.6845"/>
<polygon fill="midnightblue" stroke="midnightblue" points="414,-85.0621 422.909,-79.3277 412.368,-78.2549 414,-85.0621"/>
</g>
<!-- Node11&#45;&gt;Node3 -->
<g id="edge44" class="edge"><title>Node11&#45;&gt;Node3</title>
<path fill="none" stroke="midnightblue" d="M248.054,-116.349C263.338,-108.41 282.367,-96.1548 294,-80 304.183,-65.8589 308.911,-46.5025 311.105,-31.8896"/>
<polygon fill="midnightblue" stroke="midnightblue" points="314.599,-32.1551 312.337,-21.8045 307.65,-31.3063 314.599,-32.1551"/>
</g>
<!-- Node11&#45;&gt;Node7 -->
<g id="edge40" class="edge"><title>Node11&#45;&gt;Node7</title>
<path fill="none" stroke="midnightblue" d="M271.518,-120.606C338.4,-111.415 457.887,-94.241 516.402,-79.9831"/>
<polygon fill="midnightblue" stroke="midnightblue" points="517.444,-83.3289 526.258,-77.4487 515.701,-76.5494 517.444,-83.3289"/>
</g>
<!-- Node12 -->
<g id="node29" class="node"><title>Node12</title>
<polygon fill="white" stroke="#bfbfbf" points="340.5,-58.5 340.5,-79.5 405.5,-79.5 405.5,-58.5 340.5,-58.5"/>
<text text-anchor="middle" x="373" y="-66.5" font-family="Helvetica,sans-Serif" font-size="10.00">TVector3.h</text>
</g>
<!-- Node11&#45;&gt;Node12 -->
<g id="edge34" class="edge"><title>Node11&#45;&gt;Node12</title>
<path fill="none" stroke="midnightblue" d="M250.983,-116.497C274.853,-107.205 309.894,-93.5649 336.307,-83.2832"/>
<polygon fill="midnightblue" stroke="midnightblue" points="337.917,-86.4122 345.967,-79.5231 335.378,-79.889 337.917,-86.4122"/>
</g>
<!-- Node13 -->
<g id="node31" class="node"><title>Node13</title>
<polygon fill="white" stroke="#bfbfbf" points="83,-58.5 83,-79.5 129,-79.5 129,-58.5 83,-58.5"/>
<text text-anchor="middle" x="106" y="-66.5" font-family="Helvetica,sans-Serif" font-size="10.00">cstdint</text>
</g>
<!-- Node11&#45;&gt;Node13 -->
<g id="edge36" class="edge"><title>Node11&#45;&gt;Node13</title>
<path fill="none" stroke="midnightblue" d="M202.631,-116.497C184.201,-107.438 157.363,-94.2462 136.645,-84.0628"/>
<polygon fill="midnightblue" stroke="midnightblue" points="138.127,-80.8914 127.609,-79.6212 135.039,-87.1735 138.127,-80.8914"/>
</g>
<!-- Node14 -->
<g id="node33" class="node"><title>Node14</title>
<polygon fill="white" stroke="#bfbfbf" points="146.5,-58.5 146.5,-79.5 205.5,-79.5 205.5,-58.5 146.5,-58.5"/>
<text text-anchor="middle" x="176" y="-66.5" font-family="Helvetica,sans-Serif" font-size="10.00">stdexcept</text>
</g>
<!-- Node11&#45;&gt;Node14 -->
<g id="edge38" class="edge"><title>Node11&#45;&gt;Node14</title>
<path fill="none" stroke="midnightblue" d="M215.196,-116.362C208.498,-108.268 199.116,-96.9318 191.211,-87.3796"/>
<polygon fill="midnightblue" stroke="midnightblue" points="193.82,-85.0431 184.748,-79.5707 188.427,-89.5061 193.82,-85.0431"/>
</g>
<!-- Node15 -->
<g id="node36" class="node"><title>Node15</title>
<polygon fill="white" stroke="#bfbfbf" points="223,-58.5 223,-79.5 285,-79.5 285,-58.5 223,-58.5"/>
<text text-anchor="middle" x="254" y="-66.5" font-family="Helvetica,sans-Serif" font-size="10.00">type_traits</text>
</g>
<!-- Node11&#45;&gt;Node15 -->
<g id="edge42" class="edge"><title>Node11&#45;&gt;Node15</title>
<path fill="none" stroke="midnightblue" d="M229.502,-116.362C233.52,-108.595 239.081,-97.8426 243.89,-88.5458"/>
<polygon fill="midnightblue" stroke="midnightblue" points="247.047,-90.0608 248.532,-79.5707 240.829,-86.8448 247.047,-90.0608"/>
</g>
<!-- Node16&#45;&gt;Node11 -->
<g id="edge48" class="edge"><title>Node16&#45;&gt;Node11</title>
<path fill="none" stroke="midnightblue" d="M345.198,-174.497C321.562,-165.234 286.9,-151.65 260.692,-141.379"/>
<polygon fill="midnightblue" stroke="midnightblue" points="261.69,-138.011 251.102,-137.621 259.136,-144.529 261.69,-138.011"/>
</g>
<!-- Node16&#45;&gt;Node12 -->
<g id="edge52" class="edge"><title>Node16&#45;&gt;Node12</title>
<path fill="none" stroke="midnightblue" d="M391.042,-174.374C403.536,-166.228 418.841,-153.723 426,-138 435.038,-118.153 417.024,-98.7459 399.597,-85.5953"/>
<polygon fill="midnightblue" stroke="midnightblue" points="401.397,-82.5811 391.21,-79.6675 397.357,-88.2975 401.397,-82.5811"/>
</g>
<!-- Node16&#45;&gt;Node17 -->
<g id="edge50" class="edge"><title>Node16&#45;&gt;Node17</title>
<path fill="none" stroke="midnightblue" d="M414.919,-174.497C464.528,-162.356 544.468,-142.793 584.501,-132.995"/>
<polygon fill="midnightblue" stroke="midnightblue" points="585.571,-136.337 594.452,-130.56 583.907,-129.538 585.571,-136.337"/>
</g>
<!-- Node18 -->
<g id="node45" class="node"><title>Node18</title>
<a xlink:href="enumfield_8h.html" target="_top" xlink:title="base/enumfield.h">
<polygon fill="white" stroke="black" points="326.5,-116.5 326.5,-137.5 417.5,-137.5 417.5,-116.5 326.5,-116.5"/>
<text text-anchor="middle" x="372" y="-124.5" font-family="Helvetica,sans-Serif" font-size="10.00">base/enumfield.h</text>
</a>
</g>
<!-- Node16&#45;&gt;Node18 -->
<g id="edge54" class="edge"><title>Node16&#45;&gt;Node18</title>
<path fill="none" stroke="midnightblue" d="M372,-174.362C372,-166.922 372,-156.743 372,-147.728"/>
<polygon fill="midnightblue" stroke="midnightblue" points="375.5,-147.571 372,-137.571 368.5,-147.571 375.5,-147.571"/>
</g>
</g>
</svg>
