<?xml version="1.0" encoding="UTF-8" standalone="no"?>
<!DOCTYPE svg PUBLIC "-//W3C//DTD SVG 1.1//EN"
 "http://www.w3.org/Graphics/SVG/1.1/DTD/svg11.dtd">
<!-- Generated by graphviz version 2.26.3 (20100126.1600)
 -->
<!-- Title: src/analysis/utils/ParticleID.cc Pages: 1 -->
<svg width="1879pt" height="508pt"
 viewBox="0.00 0.00 1879.00 508.00" xmlns="http://www.w3.org/2000/svg" xmlns:xlink="http://www.w3.org/1999/xlink">
<g id="graph1" class="graph" transform="scale(1 1) rotate(0) translate(4 504)">
<title>src/analysis/utils/ParticleID.cc</title>
<polygon fill="white" stroke="white" points="-4,5 -4,-504 1876,-504 1876,5 -4,5"/>
<!-- Node1 -->
<g id="node1" class="node"><title>Node1</title>
<polygon fill="#bfbfbf" stroke="black" points="599,-465 599,-499 689,-499 689,-465 599,-465"/>
<text text-anchor="start" x="607" y="-486" font-family="Helvetica,sans-Serif" font-size="10.00">src/analysis/utils</text>
<text text-anchor="middle" x="644" y="-473" font-family="Helvetica,sans-Serif" font-size="10.00">/ParticleID.cc</text>
</g>
<!-- Node2 -->
<g id="node3" class="node"><title>Node2</title>
<a xlink:href="_particle_i_d_8h.html" target="_top" xlink:title="ParticleID.h">
<polygon fill="white" stroke="black" points="97,-348.5 97,-369.5 165,-369.5 165,-348.5 97,-348.5"/>
<text text-anchor="middle" x="131" y="-356.5" font-family="Helvetica,sans-Serif" font-size="10.00">ParticleID.h</text>
</a>
</g>
<!-- Node1&#45;&gt;Node2 -->
<g id="edge2" class="edge"><title>Node1&#45;&gt;Node2</title>
<path fill="none" stroke="midnightblue" d="M598.924,-471.192C501.281,-447.781 271.269,-392.632 174.795,-369.501"/>
<polygon fill="midnightblue" stroke="midnightblue" points="175.607,-366.096 165.066,-367.168 173.975,-372.903 175.607,-366.096"/>
</g>
<!-- Node11 -->
<g id="node21" class="node"><title>Node11</title>
<a xlink:href="_event_8h.html" target="_top" xlink:title="data/Event.h">
<polygon fill="white" stroke="black" points="488,-406.5 488,-427.5 560,-427.5 560,-406.5 488,-406.5"/>
<text text-anchor="middle" x="524" y="-414.5" font-family="Helvetica,sans-Serif" font-size="10.00">data/Event.h</text>
</a>
</g>
<!-- Node1&#45;&gt;Node11 -->
<g id="edge20" class="edge"><title>Node1&#45;&gt;Node11</title>
<path fill="none" stroke="midnightblue" d="M612.471,-464.922C593.903,-454.864 570.6,-442.242 552.571,-432.476"/>
<polygon fill="midnightblue" stroke="midnightblue" points="554.137,-429.344 543.677,-427.658 550.803,-435.499 554.137,-429.344"/>
</g>
<!-- Node12 -->
<g id="node23" class="node"><title>Node12</title>
<a xlink:href="_particle_8h.html" target="_top" xlink:title="Particle.h">
<polygon fill="white" stroke="black" points="466,-348.5 466,-369.5 524,-369.5 524,-348.5 466,-348.5"/>
<text text-anchor="middle" x="495" y="-356.5" font-family="Helvetica,sans-Serif" font-size="10.00">Particle.h</text>
</a>
</g>
<!-- Node1&#45;&gt;Node12 -->
<g id="edge156" class="edge"><title>Node1&#45;&gt;Node12</title>
<path fill="none" stroke="midnightblue" d="M629.188,-464.893C614.727,-448.72 591.65,-424.276 569,-406 554.717,-394.475 537.471,-383.379 523.222,-374.866"/>
<polygon fill="midnightblue" stroke="midnightblue" points="524.75,-371.704 514.353,-369.665 521.209,-377.742 524.75,-371.704"/>
</g>
<!-- Node14 -->
<g id="node31" class="node"><title>Node14</title>
<a xlink:href="_candidate_8h.html" target="_top" xlink:title="analysis/data/Candidate.h">
<polygon fill="white" stroke="black" points="459,-290.5 459,-311.5 589,-311.5 589,-290.5 459,-290.5"/>
<text text-anchor="middle" x="524" y="-298.5" font-family="Helvetica,sans-Serif" font-size="10.00">analysis/data/Candidate.h</text>
</a>
</g>
<!-- Node1&#45;&gt;Node14 -->
<g id="edge154" class="edge"><title>Node1&#45;&gt;Node14</title>
<path fill="none" stroke="midnightblue" d="M633.014,-464.725C623.153,-449.276 608.236,-426.044 595,-406 575.036,-375.768 551.385,-340.994 537.046,-320.023"/>
<polygon fill="midnightblue" stroke="midnightblue" points="539.872,-317.955 531.335,-311.68 534.096,-321.909 539.872,-317.955"/>
</g>
<!-- Node38 -->
<g id="node117" class="node"><title>Node38</title>
<polygon fill="white" stroke="#bfbfbf" points="859,-406.5 859,-427.5 913,-427.5 913,-406.5 859,-406.5"/>
<text text-anchor="middle" x="886" y="-414.5" font-family="Helvetica,sans-Serif" font-size="10.00">TCutG.h</text>
</g>
<!-- Node1&#45;&gt;Node38 -->
<g id="edge158" class="edge"><title>Node1&#45;&gt;Node38</title>
<path fill="none" stroke="midnightblue" d="M689.234,-469.85C735.335,-457.468 805.989,-438.491 848.904,-426.964"/>
<polygon fill="midnightblue" stroke="midnightblue" points="849.914,-430.317 858.664,-424.342 848.099,-423.556 849.914,-430.317"/>
</g>
<!-- Node39 -->
<g id="node119" class="node"><title>Node39</title>
<a xlink:href="_wrap_t_file_8h.html" target="_top" xlink:title="base/WrapTFile.h">
<polygon fill="white" stroke="black" points="1421,-290.5 1421,-311.5 1515,-311.5 1515,-290.5 1421,-290.5"/>
<text text-anchor="middle" x="1468" y="-298.5" font-family="Helvetica,sans-Serif" font-size="10.00">base/WrapTFile.h</text>
</a>
</g>
<!-- Node1&#45;&gt;Node39 -->
<g id="edge160" class="edge"><title>Node1&#45;&gt;Node39</title>
<path fill="none" stroke="midnightblue" d="M689.366,-473.717C744.487,-463.53 840.257,-445.44 922,-428 1103.56,-389.266 1317.69,-337.744 1415.05,-313.997"/>
<polygon fill="midnightblue" stroke="midnightblue" points="1416.06,-317.354 1424.94,-311.582 1414.4,-310.554 1416.06,-317.354"/>
</g>
<!-- Node3 -->
<g id="node5" class="node"><title>Node3</title>
<a xlink:href="_particle_type_8h.html" target="_top" xlink:title="base/ParticleType.h">
<polygon fill="white" stroke="black" points="23,-290.5 23,-311.5 127,-311.5 127,-290.5 23,-290.5"/>
<text text-anchor="middle" x="75" y="-298.5" font-family="Helvetica,sans-Serif" font-size="10.00">base/ParticleType.h</text>
</a>
</g>
<!-- Node2&#45;&gt;Node3 -->
<g id="edge4" class="edge"><title>Node2&#45;&gt;Node3</title>
<path fill="none" stroke="midnightblue" d="M120.729,-348.362C112.756,-340.104 101.525,-328.472 92.189,-318.803"/>
<polygon fill="midnightblue" stroke="midnightblue" points="94.67,-316.334 85.2061,-311.571 89.6342,-321.196 94.67,-316.334"/>
</g>
<!-- Node10 -->
<g id="node19" class="node"><title>Node10</title>
<polygon fill="white" stroke="#bfbfbf" points="710,-232.5 710,-253.5 762,-253.5 762,-232.5 710,-232.5"/>
<text text-anchor="middle" x="736" y="-240.5" font-family="Helvetica,sans-Serif" font-size="10.00">memory</text>
</g>
<!-- Node2&#45;&gt;Node10 -->
<g id="edge18" class="edge"><title>Node2&#45;&gt;Node10</title>
<path fill="none" stroke="midnightblue" d="M150.254,-348.424C179.918,-332.687 239.029,-303.513 293,-290 466.397,-246.586 520.506,-287.947 699.762,-253.867"/>
<polygon fill="midnightblue" stroke="midnightblue" points="700.642,-257.262 709.785,-251.909 699.3,-250.392 700.642,-257.262"/>
</g>
<!-- Node4 -->
<g id="node7" class="node"><title>Node4</title>
<a xlink:href="types_8h.html" target="_top" xlink:title="base/types.h">
<polygon fill="white" stroke="black" points="257.5,-232.5 257.5,-253.5 330.5,-253.5 330.5,-232.5 257.5,-232.5"/>
<text text-anchor="middle" x="294" y="-240.5" font-family="Helvetica,sans-Serif" font-size="10.00">base/types.h</text>
</a>
</g>
<!-- Node3&#45;&gt;Node4 -->
<g id="edge6" class="edge"><title>Node3&#45;&gt;Node4</title>
<path fill="none" stroke="midnightblue" d="M114.659,-290.497C151.965,-280.617 207.832,-265.821 247.281,-255.373"/>
<polygon fill="midnightblue" stroke="midnightblue" points="248.416,-258.693 257.187,-252.75 246.624,-251.926 248.416,-258.693"/>
</g>
<!-- Node5 -->
<g id="node9" class="node"><title>Node5</title>
<polygon fill="white" stroke="#bfbfbf" points="971.5,-0.5 971.5,-21.5 1012.5,-21.5 1012.5,-0.5 971.5,-0.5"/>
<text text-anchor="middle" x="992" y="-8.5" font-family="Helvetica,sans-Serif" font-size="10.00">string</text>
</g>
<!-- Node3&#45;&gt;Node5 -->
<g id="edge8" class="edge"><title>Node3&#45;&gt;Node5</title>
<path fill="none" stroke="midnightblue" d="M61.936,-290.338C40.448,-271.511 0,-230.085 0,-185 0,-185 0,-185 0,-127 0,-27.7428 793.595,-13.2423 961.164,-11.2868"/>
<polygon fill="midnightblue" stroke="midnightblue" points="961.32,-14.7854 971.281,-11.1754 961.243,-7.78586 961.32,-14.7854"/>
</g>
<!-- Node6 -->
<g id="node11" class="node"><title>Node6</title>
<polygon fill="white" stroke="#bfbfbf" points="373,-58.5 373,-79.5 425,-79.5 425,-58.5 373,-58.5"/>
<text text-anchor="middle" x="399" y="-66.5" font-family="Helvetica,sans-Serif" font-size="10.00">ostream</text>
</g>
<!-- Node3&#45;&gt;Node6 -->
<g id="edge10" class="edge"><title>Node3&#45;&gt;Node6</title>
<path fill="none" stroke="midnightblue" d="M68.6346,-290.22C61.421,-276.622 51.3551,-252.532 57,-232 72.9023,-174.159 76.5701,-149.987 126,-116 163.821,-89.9951 297.01,-76.6405 362.328,-71.5287"/>
<polygon fill="midnightblue" stroke="midnightblue" points="362.871,-74.9976 372.578,-70.7508 362.342,-68.0177 362.871,-74.9976"/>
</g>
<!-- Node7 -->
<g id="node13" class="node"><title>Node7</title>
<polygon fill="white" stroke="#bfbfbf" points="167.5,-232.5 167.5,-253.5 202.5,-253.5 202.5,-232.5 167.5,-232.5"/>
<text text-anchor="middle" x="185" y="-240.5" font-family="Helvetica,sans-Serif" font-size="10.00">map</text>
</g>
<!-- Node3&#45;&gt;Node7 -->
<g id="edge12" class="edge"><title>Node3&#45;&gt;Node7</title>
<path fill="none" stroke="midnightblue" d="M94.9202,-290.497C112.691,-281.127 138.847,-267.335 158.402,-257.024"/>
<polygon fill="midnightblue" stroke="midnightblue" points="160.192,-260.037 167.406,-252.277 156.928,-253.845 160.192,-260.037"/>
</g>
<!-- Node8 -->
<g id="node15" class="node"><title>Node8</title>
<polygon fill="white" stroke="#bfbfbf" points="65.5,-232.5 65.5,-253.5 112.5,-253.5 112.5,-232.5 65.5,-232.5"/>
<text text-anchor="middle" x="89" y="-240.5" font-family="Helvetica,sans-Serif" font-size="10.00">iterator</text>
</g>
<!-- Node3&#45;&gt;Node8 -->
<g id="edge14" class="edge"><title>Node3&#45;&gt;Node8</title>
<path fill="none" stroke="midnightblue" d="M77.5678,-290.362C79.3834,-282.84 81.8748,-272.519 84.0684,-263.431"/>
<polygon fill="midnightblue" stroke="midnightblue" points="87.5043,-264.113 86.4485,-253.571 80.6997,-262.47 87.5043,-264.113"/>
</g>
<!-- Node9 -->
<g id="node17" class="node"><title>Node9</title>
<polygon fill="white" stroke="#bfbfbf" points="443,-58.5 443,-79.5 487,-79.5 487,-58.5 443,-58.5"/>
<text text-anchor="middle" x="465" y="-66.5" font-family="Helvetica,sans-Serif" font-size="10.00">vector</text>
</g>
<!-- Node3&#45;&gt;Node9 -->
<g id="edge16" class="edge"><title>Node3&#45;&gt;Node9</title>
<path fill="none" stroke="midnightblue" d="M86.5299,-290.3C96.1928,-281.086 110.115,-267.222 121,-254 168.327,-196.514 153.142,-155.917 216,-116 296.227,-65.0536 336.285,-101.961 432.947,-79.8238"/>
<polygon fill="midnightblue" stroke="midnightblue" points="433.916,-83.19 442.796,-77.4105 432.25,-76.3912 433.916,-83.19"/>
</g>
<!-- Node11&#45;&gt;Node4 -->
<g id="edge144" class="edge"><title>Node11&#45;&gt;Node4</title>
<path fill="none" stroke="midnightblue" d="M502.494,-406.32C485.312,-397.438 460.898,-384.023 441,-370 391.532,-335.139 339.19,-286.753 312.307,-260.929"/>
<polygon fill="midnightblue" stroke="midnightblue" points="314.433,-258.117 304.812,-253.679 309.566,-263.148 314.433,-258.117"/>
</g>
<!-- Node11&#45;&gt;Node7 -->
<g id="edge152" class="edge"><title>Node11&#45;&gt;Node7</title>
<path fill="none" stroke="midnightblue" d="M487.907,-414.537C423.453,-409.522 291.848,-396.307 255,-370 218.299,-343.798 198.687,-292.089 190.218,-263.394"/>
<polygon fill="midnightblue" stroke="midnightblue" points="193.553,-262.323 187.505,-253.624 186.808,-264.196 193.553,-262.323"/>
</g>
<!-- Node11&#45;&gt;Node9 -->
<g id="edge148" class="edge"><title>Node11&#45;&gt;Node9</title>
<path fill="none" stroke="midnightblue" d="M487.941,-408.122C425.87,-390.665 300.542,-345.358 249,-254 224.547,-210.656 372.54,-120.861 436.558,-84.6468"/>
<polygon fill="midnightblue" stroke="midnightblue" points="438.356,-87.6511 445.363,-79.7043 434.93,-81.5469 438.356,-87.6511"/>
</g>
<!-- Node11&#45;&gt;Node10 -->
<g id="edge150" class="edge"><title>Node11&#45;&gt;Node10</title>
<path fill="none" stroke="midnightblue" d="M499.85,-406.455C484.948,-398.627 466.855,-386.456 457,-370 438.662,-339.38 426.622,-316.97 450,-290 485.106,-249.5 630.803,-264.773 699.764,-253.679"/>
<polygon fill="midnightblue" stroke="midnightblue" points="700.596,-257.083 709.752,-251.751 699.27,-250.21 700.596,-257.083"/>
</g>
<!-- Node11&#45;&gt;Node12 -->
<g id="edge22" class="edge"><title>Node11&#45;&gt;Node12</title>
<path fill="none" stroke="midnightblue" d="M518.681,-406.362C514.797,-398.595 509.421,-387.843 504.773,-378.546"/>
<polygon fill="midnightblue" stroke="midnightblue" points="507.888,-376.95 500.285,-369.571 501.627,-380.08 507.888,-376.95"/>
</g>
<!-- Node13 -->
<g id="node25" class="node"><title>Node13</title>
<a xlink:href="printable_8h.html" target="_top" xlink:title="base/printable.h">
<polygon fill="white" stroke="black" points="531,-116.5 531,-137.5 617,-137.5 617,-116.5 531,-116.5"/>
<text text-anchor="middle" x="574" y="-124.5" font-family="Helvetica,sans-Serif" font-size="10.00">base/printable.h</text>
</a>
</g>
<!-- Node11&#45;&gt;Node13 -->
<g id="edge146" class="edge"><title>Node11&#45;&gt;Node13</title>
<path fill="none" stroke="midnightblue" d="M555.746,-406.465C631.986,-381.13 820.073,-318.412 833,-312 843.325,-306.879 913.589,-264.176 919,-254 948.687,-198.172 851.446,-181.147 834,-174 797.385,-159 692.041,-142.872 627.23,-133.949"/>
<polygon fill="midnightblue" stroke="midnightblue" points="627.575,-130.463 617.194,-132.58 626.629,-137.399 627.575,-130.463"/>
</g>
<!-- Node11&#45;&gt;Node14 -->
<g id="edge80" class="edge"><title>Node11&#45;&gt;Node14</title>
<path fill="none" stroke="midnightblue" d="M526.659,-406.256C528.858,-396.784 531.807,-382.572 533,-370 533.924,-360.266 533.924,-357.734 533,-348 532.171,-339.259 530.492,-329.724 528.807,-321.542"/>
<polygon fill="midnightblue" stroke="midnightblue" points="532.219,-320.762 526.659,-311.744 525.382,-322.261 532.219,-320.762"/>
</g>
<!-- Node25 -->
<g id="node66" class="node"><title>Node25</title>
<a xlink:href="_tagger_hit_8h.html" target="_top" xlink:title="TaggerHit.h">
<polygon fill="white" stroke="black" points="880,-290.5 880,-311.5 948,-311.5 948,-290.5 880,-290.5"/>
<text text-anchor="middle" x="914" y="-298.5" font-family="Helvetica,sans-Serif" font-size="10.00">TaggerHit.h</text>
</a>
</g>
<!-- Node11&#45;&gt;Node25 -->
<g id="edge82" class="edge"><title>Node11&#45;&gt;Node25</title>
<path fill="none" stroke="midnightblue" d="M560.15,-411.131C601.959,-403.81 672.534,-389.799 731,-370 753.227,-362.473 757.228,-356.757 779,-348 809.421,-335.765 844.399,-323.64 871.129,-314.771"/>
<polygon fill="midnightblue" stroke="midnightblue" points="872.54,-317.991 880.942,-311.537 870.349,-311.342 872.54,-317.991"/>
</g>
<!-- Node26 -->
<g id="node73" class="node"><title>Node26</title>
<a xlink:href="_trigger_info_8h.html" target="_top" xlink:title="TriggerInfo.h">
<polygon fill="white" stroke="black" points="991.5,-290.5 991.5,-311.5 1062.5,-311.5 1062.5,-290.5 991.5,-290.5"/>
<text text-anchor="middle" x="1027" y="-298.5" font-family="Helvetica,sans-Serif" font-size="10.00">TriggerInfo.h</text>
</a>
</g>
<!-- Node11&#45;&gt;Node26 -->
<g id="edge94" class="edge"><title>Node11&#45;&gt;Node26</title>
<path fill="none" stroke="midnightblue" d="M560.285,-410.879C608.261,-402.594 695.336,-386.893 769,-370 843.992,-352.802 930.165,-328.909 981.516,-314.226"/>
<polygon fill="midnightblue" stroke="midnightblue" points="982.661,-317.538 991.308,-311.416 980.731,-310.81 982.661,-317.538"/>
</g>
<!-- Node12&#45;&gt;Node3 -->
<g id="edge32" class="edge"><title>Node12&#45;&gt;Node3</title>
<path fill="none" stroke="midnightblue" d="M465.8,-354.968C398.112,-345.62 229.26,-322.303 137.216,-309.592"/>
<polygon fill="midnightblue" stroke="midnightblue" points="137.583,-306.109 127.198,-308.208 136.625,-313.043 137.583,-306.109"/>
</g>
<!-- Node12&#45;&gt;Node4 -->
<g id="edge30" class="edge"><title>Node12&#45;&gt;Node4</title>
<path fill="none" stroke="midnightblue" d="M465.784,-351.591C439.273,-344.079 399.745,-330.866 369,-312 346.352,-298.102 324.464,-276.762 310.239,-261.496"/>
<polygon fill="midnightblue" stroke="midnightblue" points="312.488,-258.767 303.169,-253.726 307.31,-263.478 312.488,-258.767"/>
</g>
<!-- Node12&#45;&gt;Node9 -->
<g id="edge74" class="edge"><title>Node12&#45;&gt;Node9</title>
<path fill="none" stroke="midnightblue" d="M476.905,-348.386C464.818,-340.167 449.915,-327.57 443,-312 409.01,-235.462 440.639,-132.216 456.808,-89.16"/>
<polygon fill="midnightblue" stroke="midnightblue" points="460.091,-90.3749 460.447,-79.786 453.565,-87.8417 460.091,-90.3749"/>
</g>
<!-- Node12&#45;&gt;Node13 -->
<g id="edge24" class="edge"><title>Node12&#45;&gt;Node13</title>
<path fill="none" stroke="midnightblue" d="M479.733,-348.196C469.169,-339.719 455.977,-326.886 450,-312 446.357,-302.926 446.876,-299.265 450,-290 470.662,-228.713 524.565,-172.226 554.04,-144.66"/>
<polygon fill="midnightblue" stroke="midnightblue" points="556.654,-147.011 561.657,-137.672 551.922,-141.853 556.654,-147.011"/>
</g>
<!-- Node12&#45;&gt;Node14 -->
<g id="edge34" class="edge"><title>Node12&#45;&gt;Node14</title>
<path fill="none" stroke="midnightblue" d="M500.319,-348.362C504.203,-340.595 509.579,-329.843 514.227,-320.546"/>
<polygon fill="midnightblue" stroke="midnightblue" points="517.373,-322.08 518.715,-311.571 511.112,-318.95 517.373,-322.08"/>
</g>
<!-- Node21 -->
<g id="node51" class="node"><title>Node21</title>
<polygon fill="white" stroke="#bfbfbf" points="957.5,-174.5 957.5,-195.5 986.5,-195.5 986.5,-174.5 957.5,-174.5"/>
<text text-anchor="middle" x="972" y="-182.5" font-family="Helvetica,sans-Serif" font-size="10.00">list</text>
</g>
<!-- Node12&#45;&gt;Node21 -->
<g id="edge76" class="edge"><title>Node12&#45;&gt;Node21</title>
<path fill="none" stroke="midnightblue" d="M524.246,-349.611C575.342,-332.827 683.738,-295.526 771,-254 788.622,-245.614 791.046,-239.649 809,-232 856.226,-211.879 914.703,-197.37 947.22,-190.158"/>
<polygon fill="midnightblue" stroke="midnightblue" points="948.167,-193.534 957.198,-187.994 946.684,-186.693 948.167,-193.534"/>
</g>
<!-- Node23 -->
<g id="node59" class="node"><title>Node23</title>
<polygon fill="white" stroke="#bfbfbf" points="818,-232.5 818,-253.5 910,-253.5 910,-232.5 818,-232.5"/>
<text text-anchor="middle" x="864" y="-240.5" font-family="Helvetica,sans-Serif" font-size="10.00">TLorentzVector.h</text>
</g>
<!-- Node12&#45;&gt;Node23 -->
<g id="edge72" class="edge"><title>Node12&#45;&gt;Node23</title>
<path fill="none" stroke="midnightblue" d="M524.182,-355.367C567.43,-349.426 650.679,-335.838 718,-312 738.236,-304.835 741.675,-299.347 761,-290 784.219,-278.77 810.696,-266.704 830.991,-257.609"/>
<polygon fill="midnightblue" stroke="midnightblue" points="832.428,-260.801 840.131,-253.527 829.573,-254.41 832.428,-260.801"/>
</g>
<!-- Node24 -->
<g id="node63" class="node"><title>Node24</title>
<polygon fill="white" stroke="#bfbfbf" points="770,-290.5 770,-311.5 824,-311.5 824,-290.5 770,-290.5"/>
<text text-anchor="middle" x="797" y="-298.5" font-family="Helvetica,sans-Serif" font-size="10.00">iostream</text>
</g>
<!-- Node12&#45;&gt;Node24 -->
<g id="edge78" class="edge"><title>Node12&#45;&gt;Node24</title>
<path fill="none" stroke="midnightblue" d="M524.126,-354.574C572.518,-347.038 672.43,-330.7 756,-312 757.254,-311.719 758.528,-311.426 759.812,-311.123"/>
<polygon fill="midnightblue" stroke="midnightblue" points="760.871,-314.466 769.732,-308.658 759.183,-307.673 760.871,-314.466"/>
</g>
<!-- Node13&#45;&gt;Node6 -->
<g id="edge28" class="edge"><title>Node13&#45;&gt;Node6</title>
<path fill="none" stroke="midnightblue" d="M542.309,-116.497C512.002,-106.452 466.363,-91.3261 434.767,-80.8542"/>
<polygon fill="midnightblue" stroke="midnightblue" points="435.632,-77.4539 425.039,-77.6301 433.43,-84.0984 435.632,-77.4539"/>
</g>
<!-- Node13&#45;&gt;Node9 -->
<g id="edge26" class="edge"><title>Node13&#45;&gt;Node9</title>
<path fill="none" stroke="midnightblue" d="M554.261,-116.497C537.39,-107.519 512.891,-94.4835 493.826,-84.3387"/>
<polygon fill="midnightblue" stroke="midnightblue" points="495.433,-81.2289 484.961,-79.6212 492.144,-87.4086 495.433,-81.2289"/>
</g>
<!-- Node14&#45;&gt;Node4 -->
<g id="edge38" class="edge"><title>Node14&#45;&gt;Node4</title>
<path fill="none" stroke="midnightblue" d="M482.349,-290.497C442.405,-280.424 382.199,-265.242 340.66,-254.767"/>
<polygon fill="midnightblue" stroke="midnightblue" points="341.34,-251.328 330.788,-252.277 339.629,-258.116 341.34,-251.328"/>
</g>
<!-- Node14&#45;&gt;Node6 -->
<g id="edge66" class="edge"><title>Node14&#45;&gt;Node6</title>
<path fill="none" stroke="midnightblue" d="M518.304,-290.429C498.863,-254.346 434.928,-135.683 409.533,-88.5499"/>
<polygon fill="midnightblue" stroke="midnightblue" points="412.554,-86.7769 404.729,-79.6335 406.391,-90.0972 412.554,-86.7769"/>
</g>
<!-- Node14&#45;&gt;Node9 -->
<g id="edge70" class="edge"><title>Node14&#45;&gt;Node9</title>
<path fill="none" stroke="midnightblue" d="M521.312,-290.429C512.193,-254.573 482.336,-137.169 470.2,-89.4458"/>
<polygon fill="midnightblue" stroke="midnightblue" points="473.561,-88.4624 467.704,-79.6335 466.777,-90.1877 473.561,-88.4624"/>
</g>
<!-- Node14&#45;&gt;Node10 -->
<g id="edge68" class="edge"><title>Node14&#45;&gt;Node10</title>
<path fill="none" stroke="midnightblue" d="M565.989,-290.417C599.768,-281.777 648.674,-268.983 699.763,-254.282"/>
<polygon fill="midnightblue" stroke="midnightblue" points="701.032,-257.558 709.665,-251.416 699.086,-250.834 701.032,-257.558"/>
</g>
<!-- Node14&#45;&gt;Node13 -->
<g id="edge36" class="edge"><title>Node14&#45;&gt;Node13</title>
<path fill="none" stroke="midnightblue" d="M527.052,-290.377C535.157,-262.172 557.33,-185.012 568.046,-147.72"/>
<polygon fill="midnightblue" stroke="midnightblue" points="571.462,-148.505 570.86,-137.928 564.734,-146.572 571.462,-148.505"/>
</g>
<!-- Node15 -->
<g id="node35" class="node"><title>Node15</title>
<a xlink:href="_detector__t_8h.html" target="_top" xlink:title="base/Detector_t.h">
<polygon fill="white" stroke="black" points="584.5,-174.5 584.5,-195.5 679.5,-195.5 679.5,-174.5 584.5,-174.5"/>
<text text-anchor="middle" x="632" y="-182.5" font-family="Helvetica,sans-Serif" font-size="10.00">base/Detector_t.h</text>
</a>
</g>
<!-- Node14&#45;&gt;Node15 -->
<g id="edge40" class="edge"><title>Node14&#45;&gt;Node15</title>
<path fill="none" stroke="midnightblue" d="M529.007,-290.317C536.081,-275.963 550.048,-250.159 567,-232 578.088,-220.122 592.571,-209.308 605.052,-201.056"/>
<polygon fill="midnightblue" stroke="midnightblue" points="607.169,-203.857 613.708,-195.521 603.398,-197.959 607.169,-203.857"/>
</g>
<!-- Node20 -->
<g id="node48" class="node"><title>Node20</title>
<a xlink:href="_cluster_8h.html" target="_top" xlink:title="analysis/data/Cluster.h">
<polygon fill="white" stroke="black" points="575.5,-232.5 575.5,-253.5 692.5,-253.5 692.5,-232.5 575.5,-232.5"/>
<text text-anchor="middle" x="634" y="-240.5" font-family="Helvetica,sans-Serif" font-size="10.00">analysis/data/Cluster.h</text>
</a>
</g>
<!-- Node14&#45;&gt;Node20 -->
<g id="edge56" class="edge"><title>Node14&#45;&gt;Node20</title>
<path fill="none" stroke="midnightblue" d="M543.92,-290.497C560.946,-281.519 585.669,-268.484 604.909,-258.339"/>
<polygon fill="midnightblue" stroke="midnightblue" points="606.643,-261.381 613.856,-253.621 603.378,-255.189 606.643,-261.381"/>
</g>
<!-- Node15&#45;&gt;Node5 -->
<g id="edge50" class="edge"><title>Node15&#45;&gt;Node5</title>
<path fill="none" stroke="midnightblue" d="M634.134,-174.273C637.695,-159.144 646.28,-131.642 664,-116 751.926,-38.3861 897.677,-18.0661 961.019,-12.8071"/>
<polygon fill="midnightblue" stroke="midnightblue" points="961.452,-16.2844 971.158,-12.0374 960.922,-9.3045 961.452,-16.2844"/>
</g>
<!-- Node15&#45;&gt;Node9 -->
<g id="edge54" class="edge"><title>Node15&#45;&gt;Node9</title>
<path fill="none" stroke="midnightblue" d="M595.795,-174.419C573.163,-166.671 544.203,-154.603 522,-138 503.657,-124.284 487.54,-103.486 477.166,-88.3099"/>
<polygon fill="midnightblue" stroke="midnightblue" points="479.912,-86.1167 471.481,-79.7005 474.071,-89.974 479.912,-86.1167"/>
</g>
<!-- Node15&#45;&gt;Node13 -->
<g id="edge42" class="edge"><title>Node15&#45;&gt;Node13</title>
<path fill="none" stroke="midnightblue" d="M621.362,-174.362C613.104,-166.104 601.472,-154.472 591.803,-144.803"/>
<polygon fill="midnightblue" stroke="midnightblue" points="594.117,-142.167 584.571,-137.571 589.167,-147.117 594.117,-142.167"/>
</g>
<!-- Node16 -->
<g id="node38" class="node"><title>Node16</title>
<polygon fill="white" stroke="#bfbfbf" points="672.5,-116.5 672.5,-137.5 737.5,-137.5 737.5,-116.5 672.5,-116.5"/>
<text text-anchor="middle" x="705" y="-124.5" font-family="Helvetica,sans-Serif" font-size="10.00">TVector3.h</text>
</g>
<!-- Node15&#45;&gt;Node16 -->
<g id="edge44" class="edge"><title>Node15&#45;&gt;Node16</title>
<path fill="none" stroke="midnightblue" d="M645.389,-174.362C656.091,-165.859 671.296,-153.779 683.671,-143.947"/>
<polygon fill="midnightblue" stroke="midnightblue" points="686.043,-146.532 691.696,-137.571 681.689,-141.051 686.043,-146.532"/>
</g>
<!-- Node17 -->
<g id="node40" class="node"><title>Node17</title>
<polygon fill="white" stroke="#bfbfbf" points="755,-116.5 755,-137.5 801,-137.5 801,-116.5 755,-116.5"/>
<text text-anchor="middle" x="778" y="-124.5" font-family="Helvetica,sans-Serif" font-size="10.00">cstdint</text>
</g>
<!-- Node15&#45;&gt;Node17 -->
<g id="edge46" class="edge"><title>Node15&#45;&gt;Node17</title>
<path fill="none" stroke="midnightblue" d="M658.439,-174.497C682.777,-164.828 718.963,-150.453 745.147,-140.051"/>
<polygon fill="midnightblue" stroke="midnightblue" points="746.646,-143.222 754.648,-136.277 744.062,-136.716 746.646,-143.222"/>
</g>
<!-- Node18 -->
<g id="node42" class="node"><title>Node18</title>
<polygon fill="white" stroke="#bfbfbf" points="818.5,-116.5 818.5,-137.5 877.5,-137.5 877.5,-116.5 818.5,-116.5"/>
<text text-anchor="middle" x="848" y="-124.5" font-family="Helvetica,sans-Serif" font-size="10.00">stdexcept</text>
</g>
<!-- Node15&#45;&gt;Node18 -->
<g id="edge48" class="edge"><title>Node15&#45;&gt;Node18</title>
<path fill="none" stroke="midnightblue" d="M673.079,-174.447C707.088,-165.644 756.914,-152.597 808.499,-138.381"/>
<polygon fill="midnightblue" stroke="midnightblue" points="809.442,-141.751 818.148,-135.713 807.577,-135.004 809.442,-141.751"/>
</g>
<!-- Node19 -->
<g id="node45" class="node"><title>Node19</title>
<polygon fill="white" stroke="#bfbfbf" points="895,-116.5 895,-137.5 957,-137.5 957,-116.5 895,-116.5"/>
<text text-anchor="middle" x="926" y="-124.5" font-family="Helvetica,sans-Serif" font-size="10.00">type_traits</text>
</g>
<!-- Node15&#45;&gt;Node19 -->
<g id="edge52" class="edge"><title>Node15&#45;&gt;Node19</title>
<path fill="none" stroke="midnightblue" d="M679.53,-177.452C728.648,-169.373 807.718,-155.596 884.751,-138.159"/>
<polygon fill="midnightblue" stroke="midnightblue" points="885.653,-141.543 894.621,-135.902 884.093,-134.719 885.653,-141.543"/>
</g>
<!-- Node20&#45;&gt;Node15 -->
<g id="edge58" class="edge"><title>Node20&#45;&gt;Node15</title>
<path fill="none" stroke="midnightblue" d="M633.633,-232.362C633.377,-224.922 633.026,-214.743 632.715,-205.728"/>
<polygon fill="midnightblue" stroke="midnightblue" points="636.207,-205.444 632.365,-195.571 629.211,-205.685 636.207,-205.444"/>
</g>
<!-- Node20&#45;&gt;Node16 -->
<g id="edge62" class="edge"><title>Node20&#45;&gt;Node16</title>
<path fill="none" stroke="midnightblue" d="M650.863,-232.479C662.975,-224.057 678.739,-211.17 688,-196 696.927,-181.376 701.172,-162.313 703.187,-147.93"/>
<polygon fill="midnightblue" stroke="midnightblue" points="706.712,-147.907 704.372,-137.574 699.758,-147.111 706.712,-147.907"/>
</g>
<!-- Node20&#45;&gt;Node21 -->
<g id="edge60" class="edge"><title>Node20&#45;&gt;Node21</title>
<path fill="none" stroke="midnightblue" d="M692.875,-232.897C767.901,-220.023 894.216,-198.348 947.314,-189.236"/>
<polygon fill="midnightblue" stroke="midnightblue" points="947.941,-192.68 957.205,-187.539 946.757,-185.781 947.941,-192.68"/>
</g>
<!-- Node22 -->
<g id="node54" class="node"><title>Node22</title>
<a xlink:href="enumfield_8h.html" target="_top" xlink:title="base/enumfield.h">
<polygon fill="white" stroke="black" points="734.5,-174.5 734.5,-195.5 825.5,-195.5 825.5,-174.5 734.5,-174.5"/>
<text text-anchor="middle" x="780" y="-182.5" font-family="Helvetica,sans-Serif" font-size="10.00">base/enumfield.h</text>
</a>
</g>
<!-- Node20&#45;&gt;Node22 -->
<g id="edge64" class="edge"><title>Node20&#45;&gt;Node22</title>
<path fill="none" stroke="midnightblue" d="M660.439,-232.497C683.756,-223.234 717.95,-209.65 743.804,-199.379"/>
<polygon fill="midnightblue" stroke="midnightblue" points="745.263,-202.566 753.264,-195.621 742.678,-196.06 745.263,-202.566"/>
</g>
<!-- Node25&#45;&gt;Node4 -->
<g id="edge88" class="edge"><title>Node25&#45;&gt;Node4</title>
<path fill="none" stroke="midnightblue" d="M879.756,-295.979C865.34,-293.962 848.374,-291.713 833,-290 651.239,-269.745 434.177,-253.114 340.648,-246.31"/>
<polygon fill="midnightblue" stroke="midnightblue" points="340.885,-242.818 330.659,-245.586 340.38,-249.8 340.885,-242.818"/>
</g>
<!-- Node25&#45;&gt;Node10 -->
<g id="edge86" class="edge"><title>Node25&#45;&gt;Node10</title>
<path fill="none" stroke="midnightblue" d="M881.766,-290.497C850.848,-280.422 804.246,-265.237 772.098,-254.762"/>
<polygon fill="midnightblue" stroke="midnightblue" points="772.799,-251.309 762.206,-251.539 770.63,-257.965 772.799,-251.309"/>
</g>
<!-- Node25&#45;&gt;Node13 -->
<g id="edge90" class="edge"><title>Node25&#45;&gt;Node13</title>
<path fill="none" stroke="midnightblue" d="M929.914,-290.332C962.213,-267.437 1029.58,-212.542 995,-174 945.591,-118.926 737.501,-146.488 664,-138 652.028,-136.617 639.167,-135.078 627.019,-133.599"/>
<polygon fill="midnightblue" stroke="midnightblue" points="627.369,-130.116 617.018,-132.376 626.519,-137.064 627.369,-130.116"/>
</g>
<!-- Node25&#45;&gt;Node21 -->
<g id="edge84" class="edge"><title>Node25&#45;&gt;Node21</title>
<path fill="none" stroke="midnightblue" d="M924.747,-290.314C933.237,-281.325 944.815,-267.768 952,-254 959.923,-238.819 965.1,-220.075 968.198,-205.956"/>
<polygon fill="midnightblue" stroke="midnightblue" points="971.704,-206.276 970.249,-195.781 964.842,-204.892 971.704,-206.276"/>
</g>
<!-- Node25&#45;&gt;Node23 -->
<g id="edge92" class="edge"><title>Node25&#45;&gt;Node23</title>
<path fill="none" stroke="midnightblue" d="M904.829,-290.362C897.852,-282.268 888.079,-270.932 879.844,-261.38"/>
<polygon fill="midnightblue" stroke="midnightblue" points="882.293,-258.859 873.113,-253.571 876.991,-263.43 882.293,-258.859"/>
</g>
<!-- Node26&#45;&gt;Node4 -->
<g id="edge96" class="edge"><title>Node26&#45;&gt;Node4</title>
<path fill="none" stroke="midnightblue" d="M991.469,-294.817C980.448,-293.06 968.245,-291.28 957,-290 726.762,-263.797 449.774,-249.782 341.05,-244.958"/>
<polygon fill="midnightblue" stroke="midnightblue" points="340.9,-241.448 330.756,-244.506 340.593,-248.441 340.9,-241.448"/>
</g>
<!-- Node26&#45;&gt;Node10 -->
<g id="edge142" class="edge"><title>Node26&#45;&gt;Node10</title>
<path fill="none" stroke="midnightblue" d="M991.318,-293.888C935.453,-282.754 827.952,-261.327 771.933,-250.162"/>
<polygon fill="midnightblue" stroke="midnightblue" points="772.588,-246.724 762.096,-248.201 771.219,-253.589 772.588,-246.724"/>
</g>
<!-- Node26&#45;&gt;Node13 -->
<g id="edge98" class="edge"><title>Node26&#45;&gt;Node13</title>
<path fill="none" stroke="midnightblue" d="M1029.72,-290.283C1035.22,-265.791 1044.64,-205.417 1013,-174 957.676,-119.062 741.477,-146.73 664,-138 652.024,-136.651 639.161,-135.124 627.014,-133.648"/>
<polygon fill="midnightblue" stroke="midnightblue" points="627.364,-130.165 617.013,-132.424 626.514,-137.113 627.364,-130.165"/>
</g>
<!-- Node26&#45;&gt;Node21 -->
<g id="edge140" class="edge"><title>Node26&#45;&gt;Node21</title>
<path fill="none" stroke="midnightblue" d="M1021.92,-290.295C1012.72,-270.872 993.126,-229.556 981.41,-204.846"/>
<polygon fill="midnightblue" stroke="midnightblue" points="984.51,-203.216 977.063,-195.679 978.185,-206.214 984.51,-203.216"/>
</g>
<!-- Node27 -->
<g id="node77" class="node"><title>Node27</title>
<a xlink:href="_t_data_record_8h.html" target="_top" xlink:title="tree/TDataRecord.h">
<polygon fill="white" stroke="black" points="1165.5,-232.5 1165.5,-253.5 1268.5,-253.5 1268.5,-232.5 1165.5,-232.5"/>
<text text-anchor="middle" x="1217" y="-240.5" font-family="Helvetica,sans-Serif" font-size="10.00">tree/TDataRecord.h</text>
</a>
</g>
<!-- Node26&#45;&gt;Node27 -->
<g id="edge100" class="edge"><title>Node26&#45;&gt;Node27</title>
<path fill="none" stroke="midnightblue" d="M1061.41,-290.497C1092.65,-280.959 1138.9,-266.841 1172.86,-256.475"/>
<polygon fill="midnightblue" stroke="midnightblue" points="1173.99,-259.79 1182.53,-253.523 1171.94,-253.095 1173.99,-259.79"/>
</g>
<!-- Node28 -->
<g id="node79" class="node"><title>Node28</title>
<a xlink:href="_t_i_d_8h.html" target="_top" xlink:title="TID.h">
<polygon fill="white" stroke="black" points="1117.5,-174.5 1117.5,-195.5 1158.5,-195.5 1158.5,-174.5 1117.5,-174.5"/>
<text text-anchor="middle" x="1138" y="-182.5" font-family="Helvetica,sans-Serif" font-size="10.00">TID.h</text>
</a>
</g>
<!-- Node27&#45;&gt;Node28 -->
<g id="edge102" class="edge"><title>Node27&#45;&gt;Node28</title>
<path fill="none" stroke="midnightblue" d="M1202.51,-232.362C1190.82,-223.777 1174.16,-211.546 1160.7,-201.664"/>
<polygon fill="midnightblue" stroke="midnightblue" points="1162.53,-198.667 1152.4,-195.571 1158.39,-204.31 1162.53,-198.667"/>
</g>
<!-- Node29 -->
<g id="node81" class="node"><title>Node29</title>
<polygon fill="white" stroke="#bfbfbf" points="1189,-116.5 1189,-137.5 1245,-137.5 1245,-116.5 1189,-116.5"/>
<text text-anchor="middle" x="1217" y="-124.5" font-family="Helvetica,sans-Serif" font-size="10.00">Rtypes.h</text>
</g>
<!-- Node27&#45;&gt;Node29 -->
<g id="edge134" class="edge"><title>Node27&#45;&gt;Node29</title>
<path fill="none" stroke="midnightblue" d="M1217,-232.295C1217,-213.131 1217,-172.654 1217,-147.843"/>
<polygon fill="midnightblue" stroke="midnightblue" points="1220.5,-147.679 1217,-137.679 1213.5,-147.679 1220.5,-147.679"/>
</g>
<!-- Node35 -->
<g id="node95" class="node"><title>Node35</title>
<polygon fill="white" stroke="#bfbfbf" points="1084.5,-58.5 1084.5,-79.5 1125.5,-79.5 1125.5,-58.5 1084.5,-58.5"/>
<text text-anchor="middle" x="1105" y="-66.5" font-family="Helvetica,sans-Serif" font-size="10.00">ctime</text>
</g>
<!-- Node27&#45;&gt;Node35 -->
<g id="edge138" class="edge"><title>Node27&#45;&gt;Node35</title>
<path fill="none" stroke="midnightblue" d="M1237.7,-232.367C1277.36,-210.642 1357.11,-159.533 1322,-116 1298.91,-87.3795 1189.72,-75.3143 1135.58,-71.0244"/>
<polygon fill="midnightblue" stroke="midnightblue" points="1135.76,-67.5283 1125.53,-70.2675 1135.24,-74.5086 1135.76,-67.5283"/>
</g>
<!-- Node37 -->
<g id="node102" class="node"><title>Node37</title>
<polygon fill="white" stroke="#bfbfbf" points="1263,-116.5 1263,-137.5 1313,-137.5 1313,-116.5 1263,-116.5"/>
<text text-anchor="middle" x="1288" y="-124.5" font-family="Helvetica,sans-Serif" font-size="10.00">iomanip</text>
</g>
<!-- Node27&#45;&gt;Node37 -->
<g id="edge136" class="edge"><title>Node27&#45;&gt;Node37</title>
<path fill="none" stroke="midnightblue" d="M1223.55,-232.295C1235.49,-212.786 1260.95,-171.188 1276.05,-146.518"/>
<polygon fill="midnightblue" stroke="midnightblue" points="1279.23,-148.036 1281.46,-137.679 1273.26,-144.381 1279.23,-148.036"/>
</g>
<!-- Node28&#45;&gt;Node13 -->
<g id="edge106" class="edge"><title>Node28&#45;&gt;Node13</title>
<path fill="none" stroke="midnightblue" d="M1117.34,-177.478C1112.99,-176.129 1108.38,-174.875 1104,-174 911.596,-135.545 859.197,-157.906 664,-138 652.251,-136.802 639.659,-135.361 627.727,-133.923"/>
<polygon fill="midnightblue" stroke="midnightblue" points="627.8,-130.406 617.449,-132.666 626.95,-137.354 627.8,-130.406"/>
</g>
<!-- Node28&#45;&gt;Node17 -->
<g id="edge126" class="edge"><title>Node28&#45;&gt;Node17</title>
<path fill="none" stroke="midnightblue" d="M1117.32,-177.614C1112.96,-176.255 1108.36,-174.963 1104,-174 978.594,-146.303 940.151,-166.517 811.115,-137.868"/>
<polygon fill="midnightblue" stroke="midnightblue" points="811.782,-134.43 801.255,-135.624 810.228,-141.256 811.782,-134.43"/>
</g>
<!-- Node28&#45;&gt;Node18 -->
<g id="edge128" class="edge"><title>Node28&#45;&gt;Node18</title>
<path fill="none" stroke="midnightblue" d="M1117.28,-177.755C1112.93,-176.386 1108.34,-175.054 1104,-174 1011.65,-151.568 983.574,-159.152 887.602,-138.175"/>
<polygon fill="midnightblue" stroke="midnightblue" points="888.307,-134.746 877.784,-135.982 886.781,-141.578 888.307,-134.746"/>
</g>
<!-- Node28&#45;&gt;Node19 -->
<g id="edge122" class="edge"><title>Node28&#45;&gt;Node19</title>
<path fill="none" stroke="midnightblue" d="M1117.2,-178.061C1112.85,-176.67 1108.29,-175.252 1104,-174 1046.12,-157.104 1028.89,-154.621 967.282,-138.311"/>
<polygon fill="midnightblue" stroke="midnightblue" points="967.996,-134.879 957.432,-135.686 966.194,-141.643 967.996,-134.879"/>
</g>
<!-- Node28&#45;&gt;Node29 -->
<g id="edge104" class="edge"><title>Node28&#45;&gt;Node29</title>
<path fill="none" stroke="midnightblue" d="M1152.49,-174.362C1164.18,-165.777 1180.84,-153.546 1194.3,-143.664"/>
<polygon fill="midnightblue" stroke="midnightblue" points="1196.61,-146.31 1202.6,-137.571 1192.47,-140.667 1196.61,-146.31"/>
</g>
<!-- Node30 -->
<g id="node84" class="node"><title>Node30</title>
<a xlink:href="time_8h.html" target="_top" xlink:title="base/std_ext/time.h">
<polygon fill="white" stroke="black" points="974.5,-116.5 974.5,-137.5 1077.5,-137.5 1077.5,-116.5 974.5,-116.5"/>
<text text-anchor="middle" x="1026" y="-124.5" font-family="Helvetica,sans-Serif" font-size="10.00">base/std_ext/time.h</text>
</a>
</g>
<!-- Node28&#45;&gt;Node30 -->
<g id="edge108" class="edge"><title>Node28&#45;&gt;Node30</title>
<path fill="none" stroke="midnightblue" d="M1117.72,-174.497C1100.38,-165.519 1075.21,-152.484 1055.62,-142.339"/>
<polygon fill="midnightblue" stroke="midnightblue" points="1057,-139.112 1046.51,-137.621 1053.78,-145.328 1057,-139.112"/>
</g>
<!-- Node28&#45;&gt;Node35 -->
<g id="edge132" class="edge"><title>Node28&#45;&gt;Node35</title>
<path fill="none" stroke="midnightblue" d="M1134.71,-174.191C1131.83,-164.677 1127.57,-150.441 1124,-138 1119.35,-121.789 1114.29,-103.374 1110.57,-89.6473"/>
<polygon fill="midnightblue" stroke="midnightblue" points="1113.88,-88.514 1107.89,-79.7759 1107.13,-90.3431 1113.88,-88.514"/>
</g>
<!-- Node36 -->
<g id="node98" class="node"><title>Node36</title>
<polygon fill="white" stroke="#bfbfbf" points="1133,-116.5 1133,-137.5 1171,-137.5 1171,-116.5 1133,-116.5"/>
<text text-anchor="middle" x="1152" y="-124.5" font-family="Helvetica,sans-Serif" font-size="10.00">tuple</text>
</g>
<!-- Node28&#45;&gt;Node36 -->
<g id="edge124" class="edge"><title>Node28&#45;&gt;Node36</title>
<path fill="none" stroke="midnightblue" d="M1140.57,-174.362C1142.38,-166.84 1144.87,-156.519 1147.07,-147.431"/>
<polygon fill="midnightblue" stroke="midnightblue" points="1150.5,-148.113 1149.45,-137.571 1143.7,-146.47 1150.5,-148.113"/>
</g>
<!-- Node28&#45;&gt;Node37 -->
<g id="edge130" class="edge"><title>Node28&#45;&gt;Node37</title>
<path fill="none" stroke="midnightblue" d="M1158.54,-177.057C1182.98,-167.608 1224.15,-151.687 1253.5,-140.338"/>
<polygon fill="midnightblue" stroke="midnightblue" points="1254.9,-143.552 1262.96,-136.681 1252.37,-137.023 1254.9,-143.552"/>
</g>
<!-- Node31 -->
<g id="node86" class="node"><title>Node31</title>
<a xlink:href="string_8h.html" target="_top" xlink:title="base/std_ext/string.h">
<polygon fill="white" stroke="black" points="1385,-58.5 1385,-79.5 1493,-79.5 1493,-58.5 1385,-58.5"/>
<text text-anchor="middle" x="1439" y="-66.5" font-family="Helvetica,sans-Serif" font-size="10.00">base/std_ext/string.h</text>
</a>
</g>
<!-- Node30&#45;&gt;Node31 -->
<g id="edge110" class="edge"><title>Node30&#45;&gt;Node31</title>
<path fill="none" stroke="midnightblue" d="M1077.89,-119.713C1153.28,-109.126 1293,-89.5036 1374.78,-78.0186"/>
<polygon fill="midnightblue" stroke="midnightblue" points="1375.29,-81.4821 1384.7,-76.6253 1374.31,-74.5501 1375.29,-81.4821"/>
</g>
<!-- Node34 -->
<g id="node93" class="node"><title>Node34</title>
<polygon fill="white" stroke="#bfbfbf" points="1003,-58.5 1003,-79.5 1049,-79.5 1049,-58.5 1003,-58.5"/>
<text text-anchor="middle" x="1026" y="-66.5" font-family="Helvetica,sans-Serif" font-size="10.00">cstring</text>
</g>
<!-- Node30&#45;&gt;Node34 -->
<g id="edge118" class="edge"><title>Node30&#45;&gt;Node34</title>
<path fill="none" stroke="midnightblue" d="M1026,-116.362C1026,-108.922 1026,-98.7427 1026,-89.7276"/>
<polygon fill="midnightblue" stroke="midnightblue" points="1029.5,-89.5706 1026,-79.5707 1022.5,-89.5707 1029.5,-89.5706"/>
</g>
<!-- Node30&#45;&gt;Node35 -->
<g id="edge120" class="edge"><title>Node30&#45;&gt;Node35</title>
<path fill="none" stroke="midnightblue" d="M1040.49,-116.362C1052.18,-107.777 1068.84,-95.5459 1082.3,-85.6636"/>
<polygon fill="midnightblue" stroke="midnightblue" points="1084.61,-88.31 1090.6,-79.5707 1080.47,-82.6675 1084.61,-88.31"/>
</g>
<!-- Node31&#45;&gt;Node5 -->
<g id="edge112" class="edge"><title>Node31&#45;&gt;Node5</title>
<path fill="none" stroke="midnightblue" d="M1384.84,-60.0531C1380.16,-59.3368 1375.5,-58.6426 1371,-58 1241.94,-39.5657 1087.55,-21.7224 1022.88,-14.4371"/>
<polygon fill="midnightblue" stroke="midnightblue" points="1022.91,-10.9182 1012.58,-13.2807 1022.12,-17.8745 1022.91,-10.9182"/>
</g>
<!-- Node32 -->
<g id="node89" class="node"><title>Node32</title>
<polygon fill="white" stroke="#bfbfbf" points="1377,-0.5 1377,-21.5 1429,-21.5 1429,-0.5 1377,-0.5"/>
<text text-anchor="middle" x="1403" y="-8.5" font-family="Helvetica,sans-Serif" font-size="10.00">sstream</text>
</g>
<!-- Node31&#45;&gt;Node32 -->
<g id="edge114" class="edge"><title>Node31&#45;&gt;Node32</title>
<path fill="none" stroke="midnightblue" d="M1432.4,-58.3619C1427.53,-50.5131 1420.76,-39.6159 1414.95,-30.2527"/>
<polygon fill="midnightblue" stroke="midnightblue" points="1417.81,-28.2213 1409.56,-21.5707 1411.86,-31.9129 1417.81,-28.2213"/>
</g>
<!-- Node33 -->
<g id="node91" class="node"><title>Node33</title>
<polygon fill="white" stroke="#bfbfbf" points="1447,-0.5 1447,-21.5 1503,-21.5 1503,-0.5 1447,-0.5"/>
<text text-anchor="middle" x="1475" y="-8.5" font-family="Helvetica,sans-Serif" font-size="10.00">algorithm</text>
</g>
<!-- Node31&#45;&gt;Node33 -->
<g id="edge116" class="edge"><title>Node31&#45;&gt;Node33</title>
<path fill="none" stroke="midnightblue" d="M1445.6,-58.3619C1450.47,-50.5131 1457.24,-39.6159 1463.05,-30.2527"/>
<polygon fill="midnightblue" stroke="midnightblue" points="1466.14,-31.9129 1468.44,-21.5707 1460.19,-28.2213 1466.14,-31.9129"/>
</g>
<!-- Node39&#45;&gt;Node5 -->
<g id="edge164" class="edge"><title>Node39&#45;&gt;Node5</title>
<path fill="none" stroke="midnightblue" d="M1457.42,-290.254C1448.57,-281.013 1435.85,-267.134 1426,-254 1382.65,-196.176 1397.39,-159.924 1340,-116 1241.02,-40.2461 1087.63,-18.8831 1022.7,-13.0756"/>
<polygon fill="midnightblue" stroke="midnightblue" points="1022.96,-9.58511 1012.7,-12.2436 1022.38,-16.561 1022.96,-9.58511"/>
</g>
<!-- Node39&#45;&gt;Node10 -->
<g id="edge162" class="edge"><title>Node39&#45;&gt;Node10</title>
<path fill="none" stroke="midnightblue" d="M1420.74,-298.903C1312.34,-293.814 1037.57,-279.333 809,-254 796.98,-252.668 783.903,-250.823 772.181,-249.025"/>
<polygon fill="midnightblue" stroke="midnightblue" points="772.712,-245.566 762.29,-247.471 771.626,-252.481 772.712,-245.566"/>
</g>
<!-- Node39&#45;&gt;Node21 -->
<g id="edge166" class="edge"><title>Node39&#45;&gt;Node21</title>
<path fill="none" stroke="midnightblue" d="M1420.76,-296.931C1359.28,-290.94 1248.85,-277.794 1157,-254 1097.5,-238.586 1030.6,-210.916 995.846,-195.719"/>
<polygon fill="midnightblue" stroke="midnightblue" points="997.095,-192.444 986.533,-191.607 994.267,-198.848 997.095,-192.444"/>
</g>
<!-- Node39&#45;&gt;Node31 -->
<g id="edge168" class="edge"><title>Node39&#45;&gt;Node31</title>
<path fill="none" stroke="midnightblue" d="M1458.02,-290.418C1450.32,-281.489 1440.3,-267.962 1436,-254 1418.33,-196.66 1428.04,-124.508 1434.59,-89.6833"/>
<polygon fill="midnightblue" stroke="midnightblue" points="1438.04,-90.245 1436.56,-79.7544 1431.18,-88.8798 1438.04,-90.245"/>
</g>
<!-- Node40 -->
<g id="node125" class="node"><title>Node40</title>
<polygon fill="white" stroke="#bfbfbf" points="1444.5,-232.5 1444.5,-253.5 1491.5,-253.5 1491.5,-232.5 1444.5,-232.5"/>
<text text-anchor="middle" x="1468" y="-240.5" font-family="Helvetica,sans-Serif" font-size="10.00">TFile.h</text>
</g>
<!-- Node39&#45;&gt;Node40 -->
<g id="edge170" class="edge"><title>Node39&#45;&gt;Node40</title>
<path fill="none" stroke="midnightblue" d="M1468,-290.362C1468,-282.922 1468,-272.743 1468,-263.728"/>
<polygon fill="midnightblue" stroke="midnightblue" points="1471.5,-263.571 1468,-253.571 1464.5,-263.571 1471.5,-263.571"/>
</g>
<!-- Node41 -->
<g id="node127" class="node"><title>Node41</title>
<polygon fill="white" stroke="#bfbfbf" points="1508.5,-232.5 1508.5,-253.5 1579.5,-253.5 1579.5,-232.5 1508.5,-232.5"/>
<text text-anchor="middle" x="1544" y="-240.5" font-family="Helvetica,sans-Serif" font-size="10.00">TDirectory.h</text>
</g>
<!-- Node39&#45;&gt;Node41 -->
<g id="edge172" class="edge"><title>Node39&#45;&gt;Node41</title>
<path fill="none" stroke="midnightblue" d="M1481.94,-290.362C1493.19,-281.777 1509.22,-269.546 1522.16,-259.664"/>
<polygon fill="midnightblue" stroke="midnightblue" points="1524.32,-262.42 1530.15,-253.571 1520.08,-256.855 1524.32,-262.42"/>
</g>
<!-- Node42 -->
<g id="node129" class="node"><title>Node42</title>
<polygon fill="white" stroke="#bfbfbf" points="1597,-232.5 1597,-253.5 1649,-253.5 1649,-232.5 1597,-232.5"/>
<text text-anchor="middle" x="1623" y="-240.5" font-family="Helvetica,sans-Serif" font-size="10.00">TError.h</text>
</g>
<!-- Node39&#45;&gt;Node42 -->
<g id="edge174" class="edge"><title>Node39&#45;&gt;Node42</title>
<path fill="none" stroke="midnightblue" d="M1496.07,-290.497C1521.63,-280.931 1559.51,-266.758 1587.23,-256.384"/>
<polygon fill="midnightblue" stroke="midnightblue" points="1588.81,-259.532 1596.95,-252.75 1586.35,-252.976 1588.81,-259.532"/>
</g>
<!-- Node43 -->
<g id="node131" class="node"><title>Node43</title>
<polygon fill="white" stroke="#bfbfbf" points="1666.5,-232.5 1666.5,-253.5 1713.5,-253.5 1713.5,-232.5 1666.5,-232.5"/>
<text text-anchor="middle" x="1690" y="-240.5" font-family="Helvetica,sans-Serif" font-size="10.00">TList.h</text>
</g>
<!-- Node39&#45;&gt;Node43 -->
<g id="edge176" class="edge"><title>Node39&#45;&gt;Node43</title>
<path fill="none" stroke="midnightblue" d="M1515.16,-290.559C1551.61,-282.213 1603.48,-269.739 1656.71,-254.231"/>
<polygon fill="midnightblue" stroke="midnightblue" points="1657.71,-257.587 1666.31,-251.405 1655.73,-250.872 1657.71,-257.587"/>
</g>
<!-- Node44 -->
<g id="node133" class="node"><title>Node44</title>
<polygon fill="white" stroke="#bfbfbf" points="1731,-232.5 1731,-253.5 1805,-253.5 1805,-232.5 1731,-232.5"/>
<text text-anchor="middle" x="1768" y="-240.5" font-family="Helvetica,sans-Serif" font-size="10.00">TCollection.h</text>
</g>
<!-- Node39&#45;&gt;Node44 -->
<g id="edge178" class="edge"><title>Node39&#45;&gt;Node44</title>
<path fill="none" stroke="midnightblue" d="M1515.43,-292.98C1564.46,-284.519 1643.46,-270.419 1720.95,-254.15"/>
<polygon fill="midnightblue" stroke="midnightblue" points="1721.82,-257.543 1730.88,-252.051 1720.37,-250.694 1721.82,-257.543"/>
</g>
<!-- Node45 -->
<g id="node135" class="node"><title>Node45</title>
<polygon fill="white" stroke="#bfbfbf" points="1823,-232.5 1823,-253.5 1871,-253.5 1871,-232.5 1823,-232.5"/>
<text text-anchor="middle" x="1847" y="-240.5" font-family="Helvetica,sans-Serif" font-size="10.00">TKey.h</text>
</g>
<!-- Node39&#45;&gt;Node45 -->
<g id="edge180" class="edge"><title>Node39&#45;&gt;Node45</title>
<path fill="none" stroke="midnightblue" d="M1515.23,-297.397C1580.36,-291.815 1701.39,-279.23 1812.93,-253.905"/>
<polygon fill="midnightblue" stroke="midnightblue" points="1814.04,-257.239 1823,-251.577 1812.47,-250.419 1814.04,-257.239"/>
</g>
</g>
</svg>
