<?xml version="1.0" encoding="UTF-8" standalone="no"?>
<!DOCTYPE svg PUBLIC "-//W3C//DTD SVG 1.1//EN"
 "http://www.w3.org/Graphics/SVG/1.1/DTD/svg11.dtd">
<!-- Generated by graphviz version 2.26.3 (20100126.1600)
 -->
<!-- Title: src/analysis/utils/ParticleID.h Pages: 1 -->
<svg width="458pt" height="116pt"
 viewBox="0.00 0.00 458.00 116.00" xmlns="http://www.w3.org/2000/svg" xmlns:xlink="http://www.w3.org/1999/xlink">
<g id="graph1" class="graph" transform="scale(1 1) rotate(0) translate(4 112)">
<title>src/analysis/utils/ParticleID.h</title>
<polygon fill="white" stroke="white" points="-4,5 -4,-112 455,-112 455,5 -4,5"/>
<!-- Node1 -->
<g id="node1" class="node"><title>Node1</title>
<polygon fill="#bfbfbf" stroke="black" points="156,-73 156,-107 246,-107 246,-73 156,-73"/>
<text text-anchor="start" x="164" y="-94" font-family="Helvetica,sans-Serif" font-size="10.00">src/analysis/utils</text>
<text text-anchor="middle" x="201" y="-81" font-family="Helvetica,sans-Serif" font-size="10.00">/ParticleID.h</text>
</g>
<!-- Node2 -->
<g id="node3" class="node"><title>Node2</title>
<a xlink:href="_ant_8cc.html" target="_top" xlink:title="progs/Ant.cc">
<polygon fill="white" stroke="black" points="0,-7.5 0,-28.5 72,-28.5 72,-7.5 0,-7.5"/>
<text text-anchor="middle" x="36" y="-15.5" font-family="Helvetica,sans-Serif" font-size="10.00">progs/Ant.cc</text>
</a>
</g>
<!-- Node1&#45;&gt;Node2 -->
<g id="edge2" class="edge"><title>Node1&#45;&gt;Node2</title>
<path fill="none" stroke="midnightblue" d="M152.374,-68.7812C122.166,-55.5999 84.6272,-39.2192 60.4934,-28.688"/>
<polygon fill="midnightblue" stroke="midnightblue" points="151.332,-72.1454 161.897,-72.937 154.132,-65.7296 151.332,-72.1454"/>
</g>
<!-- Node3 -->
<g id="node5" class="node"><title>Node3</title>
<a xlink:href="_physics_manager_8cc.html" target="_top" xlink:title="src/analysis/physics\l/PhysicsManager.cc">
<polygon fill="white" stroke="black" points="90,-1 90,-35 196,-35 196,-1 90,-1"/>
<text text-anchor="start" x="98" y="-22" font-family="Helvetica,sans-Serif" font-size="10.00">src/analysis/physics</text>
<text text-anchor="middle" x="143" y="-9" font-family="Helvetica,sans-Serif" font-size="10.00">/PhysicsManager.cc</text>
</a>
</g>
<!-- Node1&#45;&gt;Node3 -->
<g id="edge4" class="edge"><title>Node1&#45;&gt;Node3</title>
<path fill="none" stroke="midnightblue" d="M180.93,-65.0858C173.059,-55.3151 164.216,-44.3372 157.049,-35.4407"/>
<polygon fill="midnightblue" stroke="midnightblue" points="178.256,-67.3451 187.255,-72.937 183.707,-62.9538 178.256,-67.3451"/>
</g>
<!-- Node4 -->
<g id="node7" class="node"><title>Node4</title>
<a xlink:href="_particle_i_d_8cc.html" target="_top" xlink:title="src/analysis/utils\l/ParticleID.cc">
<polygon fill="white" stroke="black" points="214,-1 214,-35 304,-35 304,-1 214,-1"/>
<text text-anchor="start" x="222" y="-22" font-family="Helvetica,sans-Serif" font-size="10.00">src/analysis/utils</text>
<text text-anchor="middle" x="259" y="-9" font-family="Helvetica,sans-Serif" font-size="10.00">/ParticleID.cc</text>
</a>
</g>
<!-- Node1&#45;&gt;Node4 -->
<g id="edge6" class="edge"><title>Node1&#45;&gt;Node4</title>
<path fill="none" stroke="midnightblue" d="M221.07,-65.0858C228.941,-55.3151 237.784,-44.3372 244.951,-35.4407"/>
<polygon fill="midnightblue" stroke="midnightblue" points="218.293,-62.9538 214.745,-72.937 223.744,-67.3451 218.293,-62.9538"/>
</g>
<!-- Node5 -->
<g id="node9" class="node"><title>Node5</title>
<a xlink:href="_test_particle_i_d_8cc.html" target="_top" xlink:title="test/analysis/TestParticle\lID.cc">
<polygon fill="white" stroke="black" points="322,-1 322,-35 450,-35 450,-1 322,-1"/>
<text text-anchor="start" x="330" y="-22" font-family="Helvetica,sans-Serif" font-size="10.00">test/analysis/TestParticle</text>
<text text-anchor="middle" x="386" y="-9" font-family="Helvetica,sans-Serif" font-size="10.00">ID.cc</text>
</a>
</g>
<!-- Node1&#45;&gt;Node5 -->
<g id="edge8" class="edge"><title>Node1&#45;&gt;Node5</title>
<path fill="none" stroke="midnightblue" d="M254.424,-69.2081C282.254,-58.3768 315.866,-45.2952 342.152,-35.0651"/>
<polygon fill="midnightblue" stroke="midnightblue" points="252.892,-66.0484 244.842,-72.937 255.431,-72.5717 252.892,-66.0484"/>
</g>
</g>
</svg>
