<?xml version="1.0" encoding="UTF-8" standalone="no"?>
<!DOCTYPE svg PUBLIC "-//W3C//DTD SVG 1.1//EN"
 "http://www.w3.org/Graphics/SVG/1.1/DTD/svg11.dtd">
<!-- Generated by graphviz version 2.26.3 (20100126.1600)
 -->
<!-- Title: src/analysis/input/pluto/PlutoReader.h Pages: 1 -->
<svg width="1411pt" height="508pt"
 viewBox="0.00 0.00 1410.98 508.00" xmlns="http://www.w3.org/2000/svg" xmlns:xlink="http://www.w3.org/1999/xlink">
<g id="graph1" class="graph" transform="scale(1 1) rotate(0) translate(4 504)">
<title>src/analysis/input/pluto/PlutoReader.h</title>
<polygon fill="white" stroke="white" points="-4,5 -4,-504 1407.98,-504 1407.98,5 -4,5"/>
<!-- Node1 -->
<g id="node1" class="node"><title>Node1</title>
<polygon fill="#bfbfbf" stroke="black" points="279,-465 279,-499 385,-499 385,-465 279,-465"/>
<text text-anchor="start" x="287" y="-486" font-family="Helvetica,sans-Serif" font-size="10.00">src/analysis/input</text>
<text text-anchor="middle" x="332" y="-473" font-family="Helvetica,sans-Serif" font-size="10.00">/pluto/PlutoReader.h</text>
</g>
<!-- Node2 -->
<g id="node3" class="node"><title>Node2</title>
<a xlink:href="_data_reader_8h.html" target="_top" xlink:title="analysis/input/DataReader.h">
<polygon fill="white" stroke="black" points="123,-348.5 123,-369.5 263,-369.5 263,-348.5 123,-348.5"/>
<text text-anchor="middle" x="193" y="-356.5" font-family="Helvetica,sans-Serif" font-size="10.00">analysis/input/DataReader.h</text>
</a>
</g>
<!-- Node1&#45;&gt;Node2 -->
<g id="edge2" class="edge"><title>Node1&#45;&gt;Node2</title>
<path fill="none" stroke="midnightblue" d="M312.673,-464.897C286.307,-441.567 239.315,-399.984 212.738,-376.466"/>
<polygon fill="midnightblue" stroke="midnightblue" points="214.999,-373.793 205.191,-369.787 210.36,-379.036 214.999,-373.793"/>
</g>
<!-- Node12 -->
<g id="node23" class="node"><title>Node12</title>
<polygon fill="white" stroke="#bfbfbf" points="643.5,-0.5 643.5,-21.5 684.5,-21.5 684.5,-0.5 643.5,-0.5"/>
<text text-anchor="middle" x="664" y="-8.5" font-family="Helvetica,sans-Serif" font-size="10.00">string</text>
</g>
<!-- Node1&#45;&gt;Node12 -->
<g id="edge162" class="edge"><title>Node1&#45;&gt;Node12</title>
<path fill="none" stroke="midnightblue" d="M322.284,-464.681C310.159,-441.405 291,-398.391 291,-359 291,-359 291,-359 291,-301 291,-269.192 290.953,-257.475 310,-232 328.167,-207.701 345.009,-215.797 368,-196 403.361,-165.551 398.821,-144.201 436,-116 499.106,-68.1321 587.532,-35.3074 633.515,-20.2939"/>
<polygon fill="midnightblue" stroke="midnightblue" points="634.735,-23.5783 643.19,-17.1942 632.599,-16.912 634.735,-23.5783"/>
</g>
<!-- Node22 -->
<g id="node49" class="node"><title>Node22</title>
<polygon fill="white" stroke="#bfbfbf" points="319,-232.5 319,-253.5 371,-253.5 371,-232.5 319,-232.5"/>
<text text-anchor="middle" x="345" y="-240.5" font-family="Helvetica,sans-Serif" font-size="10.00">memory</text>
</g>
<!-- Node1&#45;&gt;Node22 -->
<g id="edge160" class="edge"><title>Node1&#45;&gt;Node22</title>
<path fill="none" stroke="midnightblue" d="M332.935,-464.812C335.269,-421.898 341.346,-310.174 343.873,-263.724"/>
<polygon fill="midnightblue" stroke="midnightblue" points="347.373,-263.816 344.421,-253.641 340.383,-263.436 347.373,-263.816"/>
</g>
<!-- Node23 -->
<g id="node51" class="node"><title>Node23</title>
<a xlink:href="_event_8h.html" target="_top" xlink:title="analysis/data/Event.h">
<polygon fill="white" stroke="black" points="578.5,-406.5 578.5,-427.5 689.5,-427.5 689.5,-406.5 578.5,-406.5"/>
<text text-anchor="middle" x="634" y="-414.5" font-family="Helvetica,sans-Serif" font-size="10.00">analysis/data/Event.h</text>
</a>
</g>
<!-- Node1&#45;&gt;Node23 -->
<g id="edge56" class="edge"><title>Node1&#45;&gt;Node23</title>
<path fill="none" stroke="midnightblue" d="M385.296,-470.529C438.38,-459.104 519.696,-441.602 574.771,-429.748"/>
<polygon fill="midnightblue" stroke="midnightblue" points="575.697,-433.129 584.737,-427.603 574.224,-426.286 575.697,-433.129"/>
</g>
<!-- Node33 -->
<g id="node85" class="node"><title>Node33</title>
<polygon fill="white" stroke="#bfbfbf" points="760.5,-174.5 760.5,-195.5 789.5,-195.5 789.5,-174.5 760.5,-174.5"/>
<text text-anchor="middle" x="775" y="-182.5" font-family="Helvetica,sans-Serif" font-size="10.00">list</text>
</g>
<!-- Node1&#45;&gt;Node33 -->
<g id="edge164" class="edge"><title>Node1&#45;&gt;Node33</title>
<path fill="none" stroke="midnightblue" d="M385.222,-476.83C456.899,-469.259 588.142,-453.25 698,-428 781.565,-408.793 809.714,-416.118 882,-370 917.956,-347.06 955.438,-327.435 935,-290 920.822,-264.03 903.773,-270.179 879,-254 851.187,-235.835 819.387,-214.68 798.351,-200.631"/>
<polygon fill="midnightblue" stroke="midnightblue" points="800.026,-197.541 789.767,-194.894 796.136,-203.361 800.026,-197.541"/>
</g>
<!-- Node3 -->
<g id="node5" class="node"><title>Node3</title>
<a xlink:href="_t_slow_control_8h.html" target="_top" xlink:title="tree/TSlowControl.h">
<polygon fill="white" stroke="black" points="106,-290.5 106,-311.5 210,-311.5 210,-290.5 106,-290.5"/>
<text text-anchor="middle" x="158" y="-298.5" font-family="Helvetica,sans-Serif" font-size="10.00">tree/TSlowControl.h</text>
</a>
</g>
<!-- Node2&#45;&gt;Node3 -->
<g id="edge4" class="edge"><title>Node2&#45;&gt;Node3</title>
<path fill="none" stroke="midnightblue" d="M186.58,-348.362C181.844,-340.513 175.268,-329.616 169.618,-320.253"/>
<polygon fill="midnightblue" stroke="midnightblue" points="172.542,-318.324 164.379,-311.571 166.549,-321.941 172.542,-318.324"/>
</g>
<!-- Node2&#45;&gt;Node22 -->
<g id="edge54" class="edge"><title>Node2&#45;&gt;Node22</title>
<path fill="none" stroke="midnightblue" d="M207.027,-348.295C233.496,-328.096 290.993,-284.216 322.772,-259.963"/>
<polygon fill="midnightblue" stroke="midnightblue" points="325.18,-262.528 331.007,-253.679 320.934,-256.964 325.18,-262.528"/>
</g>
<!-- Node4 -->
<g id="node7" class="node"><title>Node4</title>
<a xlink:href="_t_data_record_8h.html" target="_top" xlink:title="TDataRecord.h">
<polygon fill="white" stroke="black" points="180.5,-232.5 180.5,-253.5 263.5,-253.5 263.5,-232.5 180.5,-232.5"/>
<text text-anchor="middle" x="222" y="-240.5" font-family="Helvetica,sans-Serif" font-size="10.00">TDataRecord.h</text>
</a>
</g>
<!-- Node3&#45;&gt;Node4 -->
<g id="edge6" class="edge"><title>Node3&#45;&gt;Node4</title>
<path fill="none" stroke="midnightblue" d="M169.739,-290.362C178.941,-282.023 191.94,-270.242 202.672,-260.516"/>
<polygon fill="midnightblue" stroke="midnightblue" points="205.276,-262.879 210.336,-253.571 200.576,-257.692 205.276,-262.879"/>
</g>
<!-- Node10 -->
<g id="node19" class="node"><title>Node10</title>
<a xlink:href="time_8h.html" target="_top" xlink:title="base/std_ext/time.h">
<polygon fill="white" stroke="black" points="12.5,-116.5 12.5,-137.5 115.5,-137.5 115.5,-116.5 12.5,-116.5"/>
<text text-anchor="middle" x="64" y="-124.5" font-family="Helvetica,sans-Serif" font-size="10.00">base/std_ext/time.h</text>
</a>
</g>
<!-- Node3&#45;&gt;Node10 -->
<g id="edge50" class="edge"><title>Node3&#45;&gt;Node10</title>
<path fill="none" stroke="midnightblue" d="M152.261,-290.377C136.893,-261.93 94.6223,-183.684 74.6797,-146.769"/>
<polygon fill="midnightblue" stroke="midnightblue" points="77.736,-145.062 69.9035,-137.928 71.5772,-148.39 77.736,-145.062"/>
</g>
<!-- Node18 -->
<g id="node35" class="node"><title>Node18</title>
<polygon fill="white" stroke="#bfbfbf" points="133,-116.5 133,-137.5 171,-137.5 171,-116.5 133,-116.5"/>
<text text-anchor="middle" x="152" y="-124.5" font-family="Helvetica,sans-Serif" font-size="10.00">tuple</text>
</g>
<!-- Node3&#45;&gt;Node18 -->
<g id="edge52" class="edge"><title>Node3&#45;&gt;Node18</title>
<path fill="none" stroke="midnightblue" d="M157.634,-290.377C156.665,-262.293 154.023,-185.673 152.731,-148.203"/>
<polygon fill="midnightblue" stroke="midnightblue" points="156.219,-147.801 152.377,-137.928 149.224,-148.042 156.219,-147.801"/>
</g>
<!-- Node5 -->
<g id="node9" class="node"><title>Node5</title>
<a xlink:href="_t_i_d_8h.html" target="_top" xlink:title="TID.h">
<polygon fill="white" stroke="black" points="300.5,-174.5 300.5,-195.5 341.5,-195.5 341.5,-174.5 300.5,-174.5"/>
<text text-anchor="middle" x="321" y="-182.5" font-family="Helvetica,sans-Serif" font-size="10.00">TID.h</text>
</a>
</g>
<!-- Node4&#45;&gt;Node5 -->
<g id="edge8" class="edge"><title>Node4&#45;&gt;Node5</title>
<path fill="none" stroke="midnightblue" d="M240.158,-232.362C255.23,-223.532 276.887,-210.844 293.993,-200.822"/>
<polygon fill="midnightblue" stroke="midnightblue" points="296.098,-203.646 302.957,-195.571 292.559,-197.606 296.098,-203.646"/>
</g>
<!-- Node6 -->
<g id="node11" class="node"><title>Node6</title>
<polygon fill="white" stroke="#bfbfbf" points="257,-116.5 257,-137.5 313,-137.5 313,-116.5 257,-116.5"/>
<text text-anchor="middle" x="285" y="-124.5" font-family="Helvetica,sans-Serif" font-size="10.00">Rtypes.h</text>
</g>
<!-- Node4&#45;&gt;Node6 -->
<g id="edge44" class="edge"><title>Node4&#45;&gt;Node6</title>
<path fill="none" stroke="midnightblue" d="M227.814,-232.295C238.409,-212.786 261.001,-171.188 274.4,-146.518"/>
<polygon fill="midnightblue" stroke="midnightblue" points="277.503,-148.137 279.2,-137.679 271.352,-144.796 277.503,-148.137"/>
</g>
<!-- Node16 -->
<g id="node31" class="node"><title>Node16</title>
<polygon fill="white" stroke="#bfbfbf" points="320.5,-58.5 320.5,-79.5 361.5,-79.5 361.5,-58.5 320.5,-58.5"/>
<text text-anchor="middle" x="341" y="-66.5" font-family="Helvetica,sans-Serif" font-size="10.00">ctime</text>
</g>
<!-- Node4&#45;&gt;Node16 -->
<g id="edge48" class="edge"><title>Node4&#45;&gt;Node16</title>
<path fill="none" stroke="midnightblue" d="M263.772,-233.162C297.074,-224.374 339.769,-210.655 350,-196 372.228,-164.159 359.71,-116.211 349.666,-89.2574"/>
<polygon fill="midnightblue" stroke="midnightblue" points="352.824,-87.7261 345.885,-79.7204 346.317,-90.3064 352.824,-87.7261"/>
</g>
<!-- Node21 -->
<g id="node41" class="node"><title>Node21</title>
<polygon fill="white" stroke="#bfbfbf" points="189,-116.5 189,-137.5 239,-137.5 239,-116.5 189,-116.5"/>
<text text-anchor="middle" x="214" y="-124.5" font-family="Helvetica,sans-Serif" font-size="10.00">iomanip</text>
</g>
<!-- Node4&#45;&gt;Node21 -->
<g id="edge46" class="edge"><title>Node4&#45;&gt;Node21</title>
<path fill="none" stroke="midnightblue" d="M221.262,-232.295C219.94,-213.131 217.149,-172.654 215.437,-147.843"/>
<polygon fill="midnightblue" stroke="midnightblue" points="218.916,-147.415 214.736,-137.679 211.933,-147.896 218.916,-147.415"/>
</g>
<!-- Node5&#45;&gt;Node6 -->
<g id="edge10" class="edge"><title>Node5&#45;&gt;Node6</title>
<path fill="none" stroke="midnightblue" d="M314.397,-174.362C309.525,-166.513 302.762,-155.616 296.95,-146.253"/>
<polygon fill="midnightblue" stroke="midnightblue" points="299.809,-144.221 291.561,-137.571 293.861,-147.913 299.809,-144.221"/>
</g>
<!-- Node7 -->
<g id="node13" class="node"><title>Node7</title>
<a xlink:href="printable_8h.html" target="_top" xlink:title="base/printable.h">
<polygon fill="white" stroke="black" points="703,-116.5 703,-137.5 789,-137.5 789,-116.5 703,-116.5"/>
<text text-anchor="middle" x="746" y="-124.5" font-family="Helvetica,sans-Serif" font-size="10.00">base/printable.h</text>
</a>
</g>
<!-- Node5&#45;&gt;Node7 -->
<g id="edge12" class="edge"><title>Node5&#45;&gt;Node7</title>
<path fill="none" stroke="midnightblue" d="M341.71,-183.001C397.013,-177.535 552.908,-161.286 692.874,-138.083"/>
<polygon fill="midnightblue" stroke="midnightblue" points="693.638,-141.504 702.922,-136.401 692.482,-134.6 693.638,-141.504"/>
</g>
<!-- Node5&#45;&gt;Node10 -->
<g id="edge18" class="edge"><title>Node5&#45;&gt;Node10</title>
<path fill="none" stroke="midnightblue" d="M300.403,-180.352C261.862,-171.654 177.617,-152.641 120.829,-139.825"/>
<polygon fill="midnightblue" stroke="midnightblue" points="121.438,-136.375 110.912,-137.587 119.897,-143.203 121.438,-136.375"/>
</g>
<!-- Node5&#45;&gt;Node16 -->
<g id="edge42" class="edge"><title>Node5&#45;&gt;Node16</title>
<path fill="none" stroke="midnightblue" d="M322.846,-174.295C326.15,-155.131 333.129,-114.654 337.406,-89.8434"/>
<polygon fill="midnightblue" stroke="midnightblue" points="340.909,-90.1285 339.159,-79.6792 334.01,-88.9391 340.909,-90.1285"/>
</g>
<!-- Node17 -->
<g id="node33" class="node"><title>Node17</title>
<polygon fill="white" stroke="#bfbfbf" points="547,-116.5 547,-137.5 609,-137.5 609,-116.5 547,-116.5"/>
<text text-anchor="middle" x="578" y="-124.5" font-family="Helvetica,sans-Serif" font-size="10.00">type_traits</text>
</g>
<!-- Node5&#45;&gt;Node17 -->
<g id="edge32" class="edge"><title>Node5&#45;&gt;Node17</title>
<path fill="none" stroke="midnightblue" d="M341.597,-180.352C383.871,-170.811 481.13,-148.862 536.832,-136.291"/>
<polygon fill="midnightblue" stroke="midnightblue" points="537.743,-139.673 546.727,-134.058 536.201,-132.845 537.743,-139.673"/>
</g>
<!-- Node5&#45;&gt;Node18 -->
<g id="edge34" class="edge"><title>Node5&#45;&gt;Node18</title>
<path fill="none" stroke="midnightblue" d="M300.334,-178.487C274.475,-170.258 228.647,-155.41 180.817,-138.184"/>
<polygon fill="midnightblue" stroke="midnightblue" points="181.823,-134.826 171.229,-134.708 179.438,-141.407 181.823,-134.826"/>
</g>
<!-- Node19 -->
<g id="node37" class="node"><title>Node19</title>
<polygon fill="white" stroke="#bfbfbf" points="445,-116.5 445,-137.5 491,-137.5 491,-116.5 445,-116.5"/>
<text text-anchor="middle" x="468" y="-124.5" font-family="Helvetica,sans-Serif" font-size="10.00">cstdint</text>
</g>
<!-- Node5&#45;&gt;Node19 -->
<g id="edge36" class="edge"><title>Node5&#45;&gt;Node19</title>
<path fill="none" stroke="midnightblue" d="M341.75,-176.813C366.103,-167.204 406.787,-151.152 435.375,-139.873"/>
<polygon fill="midnightblue" stroke="midnightblue" points="436.918,-143.026 444.935,-136.1 434.349,-136.515 436.918,-143.026"/>
</g>
<!-- Node20 -->
<g id="node39" class="node"><title>Node20</title>
<polygon fill="white" stroke="#bfbfbf" points="626.5,-116.5 626.5,-137.5 685.5,-137.5 685.5,-116.5 626.5,-116.5"/>
<text text-anchor="middle" x="656" y="-124.5" font-family="Helvetica,sans-Serif" font-size="10.00">stdexcept</text>
</g>
<!-- Node5&#45;&gt;Node20 -->
<g id="edge38" class="edge"><title>Node5&#45;&gt;Node20</title>
<path fill="none" stroke="midnightblue" d="M341.691,-182.629C388.858,-177.034 508.068,-161.817 616.44,-138.166"/>
<polygon fill="midnightblue" stroke="midnightblue" points="617.213,-141.58 626.22,-136.001 615.7,-134.745 617.213,-141.58"/>
</g>
<!-- Node5&#45;&gt;Node21 -->
<g id="edge40" class="edge"><title>Node5&#45;&gt;Node21</title>
<path fill="none" stroke="midnightblue" d="M301.375,-174.362C284.859,-165.409 261.026,-152.491 242.422,-142.406"/>
<polygon fill="midnightblue" stroke="midnightblue" points="243.96,-139.259 233.501,-137.571 240.625,-145.413 243.96,-139.259"/>
</g>
<!-- Node8 -->
<g id="node15" class="node"><title>Node8</title>
<polygon fill="white" stroke="#bfbfbf" points="1180,-58.5 1180,-79.5 1224,-79.5 1224,-58.5 1180,-58.5"/>
<text text-anchor="middle" x="1202" y="-66.5" font-family="Helvetica,sans-Serif" font-size="10.00">vector</text>
</g>
<!-- Node7&#45;&gt;Node8 -->
<g id="edge14" class="edge"><title>Node7&#45;&gt;Node8</title>
<path fill="none" stroke="midnightblue" d="M789.31,-121.491C880.266,-109.922 1089.38,-83.325 1169.73,-73.1043"/>
<polygon fill="midnightblue" stroke="midnightblue" points="1170.28,-76.5634 1179.75,-71.8295 1169.39,-69.6194 1170.28,-76.5634"/>
</g>
<!-- Node9 -->
<g id="node17" class="node"><title>Node9</title>
<polygon fill="white" stroke="#bfbfbf" points="720,-58.5 720,-79.5 772,-79.5 772,-58.5 720,-58.5"/>
<text text-anchor="middle" x="746" y="-66.5" font-family="Helvetica,sans-Serif" font-size="10.00">ostream</text>
</g>
<!-- Node7&#45;&gt;Node9 -->
<g id="edge16" class="edge"><title>Node7&#45;&gt;Node9</title>
<path fill="none" stroke="midnightblue" d="M746,-116.362C746,-108.922 746,-98.7427 746,-89.7276"/>
<polygon fill="midnightblue" stroke="midnightblue" points="749.5,-89.5706 746,-79.5707 742.5,-89.5707 749.5,-89.5706"/>
</g>
<!-- Node11 -->
<g id="node21" class="node"><title>Node11</title>
<a xlink:href="string_8h.html" target="_top" xlink:title="base/std_ext/string.h">
<polygon fill="white" stroke="black" points="10,-58.5 10,-79.5 118,-79.5 118,-58.5 10,-58.5"/>
<text text-anchor="middle" x="64" y="-66.5" font-family="Helvetica,sans-Serif" font-size="10.00">base/std_ext/string.h</text>
</a>
</g>
<!-- Node10&#45;&gt;Node11 -->
<g id="edge20" class="edge"><title>Node10&#45;&gt;Node11</title>
<path fill="none" stroke="midnightblue" d="M64,-116.362C64,-108.922 64,-98.7427 64,-89.7276"/>
<polygon fill="midnightblue" stroke="midnightblue" points="67.5001,-89.5706 64,-79.5707 60.5001,-89.5707 67.5001,-89.5706"/>
</g>
<!-- Node15 -->
<g id="node29" class="node"><title>Node15</title>
<polygon fill="white" stroke="#bfbfbf" points="136,-58.5 136,-79.5 182,-79.5 182,-58.5 136,-58.5"/>
<text text-anchor="middle" x="159" y="-66.5" font-family="Helvetica,sans-Serif" font-size="10.00">cstring</text>
</g>
<!-- Node10&#45;&gt;Node15 -->
<g id="edge28" class="edge"><title>Node10&#45;&gt;Node15</title>
<path fill="none" stroke="midnightblue" d="M81.4245,-116.362C95.8872,-107.532 116.669,-94.844 133.084,-84.8224"/>
<polygon fill="midnightblue" stroke="midnightblue" points="134.975,-87.7688 141.686,-79.5707 131.327,-81.7943 134.975,-87.7688"/>
</g>
<!-- Node10&#45;&gt;Node16 -->
<g id="edge30" class="edge"><title>Node10&#45;&gt;Node16</title>
<path fill="none" stroke="midnightblue" d="M114.163,-116.497C171.27,-104.539 262.768,-85.3807 310.219,-75.445"/>
<polygon fill="midnightblue" stroke="midnightblue" points="311.126,-78.8313 320.196,-73.3561 309.691,-71.9799 311.126,-78.8313"/>
</g>
<!-- Node11&#45;&gt;Node12 -->
<g id="edge22" class="edge"><title>Node11&#45;&gt;Node12</title>
<path fill="none" stroke="midnightblue" d="M118.251,-59.2241C121.207,-58.7863 124.138,-58.3745 127,-58 318.824,-32.9056 551.004,-17.6922 633.287,-12.7648"/>
<polygon fill="midnightblue" stroke="midnightblue" points="633.671,-16.2483 643.446,-12.1633 633.257,-9.26051 633.671,-16.2483"/>
</g>
<!-- Node13 -->
<g id="node25" class="node"><title>Node13</title>
<polygon fill="white" stroke="#bfbfbf" points="74,-0.5 74,-21.5 126,-21.5 126,-0.5 74,-0.5"/>
<text text-anchor="middle" x="100" y="-8.5" font-family="Helvetica,sans-Serif" font-size="10.00">sstream</text>
</g>
<!-- Node11&#45;&gt;Node13 -->
<g id="edge24" class="edge"><title>Node11&#45;&gt;Node13</title>
<path fill="none" stroke="midnightblue" d="M70.603,-58.3619C75.4746,-50.5131 82.2384,-39.6159 88.05,-30.2527"/>
<polygon fill="midnightblue" stroke="midnightblue" points="91.139,-31.9129 93.4389,-21.5707 85.1915,-28.2213 91.139,-31.9129"/>
</g>
<!-- Node14 -->
<g id="node27" class="node"><title>Node14</title>
<polygon fill="white" stroke="#bfbfbf" points="0,-0.5 0,-21.5 56,-21.5 56,-0.5 0,-0.5"/>
<text text-anchor="middle" x="28" y="-8.5" font-family="Helvetica,sans-Serif" font-size="10.00">algorithm</text>
</g>
<!-- Node11&#45;&gt;Node14 -->
<g id="edge26" class="edge"><title>Node11&#45;&gt;Node14</title>
<path fill="none" stroke="midnightblue" d="M57.397,-58.3619C52.5254,-50.5131 45.7616,-39.6159 39.95,-30.2527"/>
<polygon fill="midnightblue" stroke="midnightblue" points="42.8085,-28.2213 34.5611,-21.5707 36.861,-31.9129 42.8085,-28.2213"/>
</g>
<!-- Node23&#45;&gt;Node7 -->
<g id="edge152" class="edge"><title>Node23&#45;&gt;Node7</title>
<path fill="none" stroke="midnightblue" d="M689.606,-415.062C849.709,-408.024 1304.04,-377.293 1362,-254 1411.16,-149.431 958.035,-130.96 799.513,-127.699"/>
<polygon fill="midnightblue" stroke="midnightblue" points="799.128,-124.191 789.062,-127.497 798.993,-131.19 799.128,-124.191"/>
</g>
<!-- Node23&#45;&gt;Node8 -->
<g id="edge154" class="edge"><title>Node23&#45;&gt;Node8</title>
<path fill="none" stroke="midnightblue" d="M689.623,-413.979C807.455,-407.275 1078.8,-390.144 1169,-370 1242.01,-353.696 1265.5,-354.581 1327,-312 1400.02,-261.441 1434.32,-172.75 1366,-116 1345.94,-99.339 1275.89,-83.3625 1234.11,-75.0108"/>
<polygon fill="midnightblue" stroke="midnightblue" points="1234.63,-71.5462 1224.14,-73.056 1233.28,-78.4154 1234.63,-71.5462"/>
</g>
<!-- Node23&#45;&gt;Node22 -->
<g id="edge156" class="edge"><title>Node23&#45;&gt;Node22</title>
<path fill="none" stroke="midnightblue" d="M586.635,-406.438C533.303,-392.517 446.589,-363.536 389,-312 373.688,-298.298 361.634,-278.055 354.044,-263.036"/>
<polygon fill="midnightblue" stroke="midnightblue" points="357.003,-261.113 349.517,-253.617 350.694,-264.146 357.003,-261.113"/>
</g>
<!-- Node24 -->
<g id="node53" class="node"><title>Node24</title>
<a xlink:href="_particle_8h.html" target="_top" xlink:title="Particle.h">
<polygon fill="white" stroke="black" points="815,-348.5 815,-369.5 873,-369.5 873,-348.5 815,-348.5"/>
<text text-anchor="middle" x="844" y="-356.5" font-family="Helvetica,sans-Serif" font-size="10.00">Particle.h</text>
</a>
</g>
<!-- Node23&#45;&gt;Node24 -->
<g id="edge58" class="edge"><title>Node23&#45;&gt;Node24</title>
<path fill="none" stroke="midnightblue" d="M672.029,-406.497C709.679,-396.098 767.044,-380.254 805.021,-369.766"/>
<polygon fill="midnightblue" stroke="midnightblue" points="806.002,-373.126 814.71,-367.09 804.139,-366.378 806.002,-373.126"/>
</g>
<!-- Node25 -->
<g id="node56" class="node"><title>Node25</title>
<a xlink:href="types_8h.html" target="_top" xlink:title="base/types.h">
<polygon fill="white" stroke="black" points="650.5,-232.5 650.5,-253.5 723.5,-253.5 723.5,-232.5 650.5,-232.5"/>
<text text-anchor="middle" x="687" y="-240.5" font-family="Helvetica,sans-Serif" font-size="10.00">base/types.h</text>
</a>
</g>
<!-- Node23&#45;&gt;Node25 -->
<g id="edge150" class="edge"><title>Node23&#45;&gt;Node25</title>
<path fill="none" stroke="midnightblue" d="M636.045,-406.281C640.403,-384.184 651.411,-332.11 666,-290 669.162,-280.874 673.396,-271.078 677.234,-262.804"/>
<polygon fill="midnightblue" stroke="midnightblue" points="680.472,-264.145 681.62,-253.613 674.155,-261.13 680.472,-264.145"/>
</g>
<!-- Node27 -->
<g id="node63" class="node"><title>Node27</title>
<polygon fill="white" stroke="#bfbfbf" points="1318.5,-232.5 1318.5,-253.5 1353.5,-253.5 1353.5,-232.5 1318.5,-232.5"/>
<text text-anchor="middle" x="1336" y="-240.5" font-family="Helvetica,sans-Serif" font-size="10.00">map</text>
</g>
<!-- Node23&#45;&gt;Node27 -->
<g id="edge158" class="edge"><title>Node23&#45;&gt;Node27</title>
<path fill="none" stroke="midnightblue" d="M689.784,-411.89C824.16,-398.916 1162.13,-362.144 1263,-312 1286.85,-300.145 1308.22,-277.879 1321.59,-261.842"/>
<polygon fill="midnightblue" stroke="midnightblue" points="1324.61,-263.665 1328.15,-253.679 1319.16,-259.278 1324.61,-263.665"/>
</g>
<!-- Node29 -->
<g id="node68" class="node"><title>Node29</title>
<a xlink:href="_candidate_8h.html" target="_top" xlink:title="analysis/data/Candidate.h">
<polygon fill="white" stroke="black" points="686,-290.5 686,-311.5 816,-311.5 816,-290.5 686,-290.5"/>
<text text-anchor="middle" x="751" y="-298.5" font-family="Helvetica,sans-Serif" font-size="10.00">analysis/data/Candidate.h</text>
</a>
</g>
<!-- Node23&#45;&gt;Node29 -->
<g id="edge124" class="edge"><title>Node23&#45;&gt;Node29</title>
<path fill="none" stroke="midnightblue" d="M644.797,-406.295C664.91,-386.355 708.298,-343.337 732.94,-318.906"/>
<polygon fill="midnightblue" stroke="midnightblue" points="735.592,-321.205 740.229,-311.679 730.663,-316.234 735.592,-321.205"/>
</g>
<!-- Node37 -->
<g id="node100" class="node"><title>Node37</title>
<a xlink:href="_tagger_hit_8h.html" target="_top" xlink:title="TaggerHit.h">
<polygon fill="white" stroke="black" points="486,-290.5 486,-311.5 554,-311.5 554,-290.5 486,-290.5"/>
<text text-anchor="middle" x="520" y="-298.5" font-family="Helvetica,sans-Serif" font-size="10.00">TaggerHit.h</text>
</a>
</g>
<!-- Node23&#45;&gt;Node37 -->
<g id="edge126" class="edge"><title>Node23&#45;&gt;Node37</title>
<path fill="none" stroke="midnightblue" d="M615.625,-406.333C601.612,-397.654 582.343,-384.502 568,-370 553.185,-355.021 539.813,-334.991 530.969,-320.372"/>
<polygon fill="midnightblue" stroke="midnightblue" points="533.928,-318.499 525.842,-311.654 527.895,-322.048 533.928,-318.499"/>
</g>
<!-- Node38 -->
<g id="node107" class="node"><title>Node38</title>
<a xlink:href="_trigger_info_8h.html" target="_top" xlink:title="TriggerInfo.h">
<polygon fill="white" stroke="black" points="397.5,-290.5 397.5,-311.5 468.5,-311.5 468.5,-290.5 397.5,-290.5"/>
<text text-anchor="middle" x="433" y="-298.5" font-family="Helvetica,sans-Serif" font-size="10.00">TriggerInfo.h</text>
</a>
</g>
<!-- Node23&#45;&gt;Node38 -->
<g id="edge138" class="edge"><title>Node23&#45;&gt;Node38</title>
<path fill="none" stroke="midnightblue" d="M613.19,-406.317C595.242,-397 568.705,-382.981 546,-370 515.483,-352.553 481.101,-331.327 458.362,-317.064"/>
<polygon fill="midnightblue" stroke="midnightblue" points="459.995,-313.956 449.667,-311.593 456.267,-319.881 459.995,-313.956"/>
</g>
<!-- Node24&#45;&gt;Node7 -->
<g id="edge60" class="edge"><title>Node24&#45;&gt;Node7</title>
<path fill="none" stroke="midnightblue" d="M873.146,-355.503C923.93,-347.664 1027.46,-323.544 1072,-254 1085.11,-233.523 1067.93,-184.593 1056,-174 1018.94,-141.099 877.784,-131.223 799.35,-128.264"/>
<polygon fill="midnightblue" stroke="midnightblue" points="799.297,-124.76 789.18,-127.905 799.051,-131.755 799.297,-124.76"/>
</g>
<!-- Node24&#45;&gt;Node8 -->
<g id="edge118" class="edge"><title>Node24&#45;&gt;Node8</title>
<path fill="none" stroke="midnightblue" d="M873.247,-357.302C955.953,-352.25 1190.23,-336.15 1263,-312 1320.66,-292.865 1381,-303.752 1381,-243 1381,-243 1381,-243 1381,-185 1381,-115.884 1285.85,-85.89 1234.3,-74.7106"/>
<polygon fill="midnightblue" stroke="midnightblue" points="1234.81,-71.2423 1224.31,-72.6613 1233.4,-78.0995 1234.81,-71.2423"/>
</g>
<!-- Node24&#45;&gt;Node25 -->
<g id="edge62" class="edge"><title>Node24&#45;&gt;Node25</title>
<path fill="none" stroke="midnightblue" d="M814.71,-355.02C771.4,-348.467 693.594,-333.909 677,-312 666.43,-298.045 670.995,-277.836 676.967,-262.892"/>
<polygon fill="midnightblue" stroke="midnightblue" points="680.267,-264.087 681.158,-253.53 673.878,-261.227 680.267,-264.087"/>
</g>
<!-- Node26 -->
<g id="node58" class="node"><title>Node26</title>
<a xlink:href="_particle_type_8h.html" target="_top" xlink:title="base/ParticleType.h">
<polygon fill="white" stroke="black" points="1150,-290.5 1150,-311.5 1254,-311.5 1254,-290.5 1150,-290.5"/>
<text text-anchor="middle" x="1202" y="-298.5" font-family="Helvetica,sans-Serif" font-size="10.00">base/ParticleType.h</text>
</a>
</g>
<!-- Node24&#45;&gt;Node26 -->
<g id="edge64" class="edge"><title>Node24&#45;&gt;Node26</title>
<path fill="none" stroke="midnightblue" d="M873.297,-354.254C931.231,-344.868 1061.57,-323.751 1139.59,-311.111"/>
<polygon fill="midnightblue" stroke="midnightblue" points="1140.46,-314.515 1149.77,-309.461 1139.34,-307.605 1140.46,-314.515"/>
</g>
<!-- Node24&#45;&gt;Node29 -->
<g id="edge78" class="edge"><title>Node24&#45;&gt;Node29</title>
<path fill="none" stroke="midnightblue" d="M826.942,-348.362C812.915,-339.614 792.816,-327.079 776.818,-317.101"/>
<polygon fill="midnightblue" stroke="midnightblue" points="778.287,-313.893 767.949,-311.571 774.582,-319.832 778.287,-313.893"/>
</g>
<!-- Node24&#45;&gt;Node33 -->
<g id="edge120" class="edge"><title>Node24&#45;&gt;Node33</title>
<path fill="none" stroke="midnightblue" d="M841.615,-348.057C838.472,-334.29 832.46,-310.027 825,-290 813.614,-259.432 796.685,-225.626 785.744,-204.845"/>
<polygon fill="midnightblue" stroke="midnightblue" points="788.696,-202.941 780.905,-195.76 782.517,-206.232 788.696,-202.941"/>
</g>
<!-- Node35 -->
<g id="node93" class="node"><title>Node35</title>
<polygon fill="white" stroke="#bfbfbf" points="541,-232.5 541,-253.5 633,-253.5 633,-232.5 541,-232.5"/>
<text text-anchor="middle" x="587" y="-240.5" font-family="Helvetica,sans-Serif" font-size="10.00">TLorentzVector.h</text>
</g>
<!-- Node24&#45;&gt;Node35 -->
<g id="edge116" class="edge"><title>Node24&#45;&gt;Node35</title>
<path fill="none" stroke="midnightblue" d="M814.767,-355.466C778.217,-350.133 714.556,-337.777 666,-312 641.346,-298.912 617.893,-276.76 603.042,-261.09"/>
<polygon fill="midnightblue" stroke="midnightblue" points="605.454,-258.543 596.099,-253.569 600.31,-263.291 605.454,-258.543"/>
</g>
<!-- Node36 -->
<g id="node97" class="node"><title>Node36</title>
<polygon fill="white" stroke="#bfbfbf" points="872,-290.5 872,-311.5 926,-311.5 926,-290.5 872,-290.5"/>
<text text-anchor="middle" x="899" y="-298.5" font-family="Helvetica,sans-Serif" font-size="10.00">iostream</text>
</g>
<!-- Node24&#45;&gt;Node36 -->
<g id="edge122" class="edge"><title>Node24&#45;&gt;Node36</title>
<path fill="none" stroke="midnightblue" d="M854.088,-348.362C861.841,-340.186 872.73,-328.702 881.845,-319.091"/>
<polygon fill="midnightblue" stroke="midnightblue" points="884.635,-321.235 888.976,-311.571 879.555,-316.419 884.635,-321.235"/>
</g>
<!-- Node26&#45;&gt;Node8 -->
<g id="edge76" class="edge"><title>Node26&#45;&gt;Node8</title>
<path fill="none" stroke="midnightblue" d="M1211.98,-290.418C1219.68,-281.489 1229.7,-267.962 1234,-254 1252,-195.565 1226.44,-123.43 1211.49,-89.0516"/>
<polygon fill="midnightblue" stroke="midnightblue" points="1214.55,-87.3291 1207.25,-79.6516 1208.17,-90.2064 1214.55,-87.3291"/>
</g>
<!-- Node26&#45;&gt;Node9 -->
<g id="edge70" class="edge"><title>Node26&#45;&gt;Node9</title>
<path fill="none" stroke="midnightblue" d="M1149.91,-298.854C1092.3,-294.995 997.648,-284.2 922,-254 900.592,-245.454 851.033,-213.474 836,-196 810.329,-166.16 821.496,-147.581 798,-116 789.715,-104.864 778.489,-94.3209 768.589,-86.0532"/>
<polygon fill="midnightblue" stroke="midnightblue" points="770.661,-83.2279 760.678,-79.6803 766.27,-88.6793 770.661,-83.2279"/>
</g>
<!-- Node26&#45;&gt;Node12 -->
<g id="edge68" class="edge"><title>Node26&#45;&gt;Node12</title>
<path fill="none" stroke="midnightblue" d="M1218.1,-290.356C1229.28,-281.958 1243.32,-269.154 1250,-254 1285.27,-173.991 1297.25,-117.308 1233,-58 1193.22,-21.2821 807,-13.0051 694.562,-11.367"/>
<polygon fill="midnightblue" stroke="midnightblue" points="694.605,-7.86732 684.557,-11.2284 694.508,-14.8666 694.605,-7.86732"/>
</g>
<!-- Node26&#45;&gt;Node25 -->
<g id="edge66" class="edge"><title>Node26&#45;&gt;Node25</title>
<path fill="none" stroke="midnightblue" d="M1149.78,-295.119C1049.12,-283.782 829.676,-259.068 733.61,-248.249"/>
<polygon fill="midnightblue" stroke="midnightblue" points="733.941,-244.764 723.612,-247.123 733.157,-251.721 733.941,-244.764"/>
</g>
<!-- Node26&#45;&gt;Node27 -->
<g id="edge72" class="edge"><title>Node26&#45;&gt;Node27</title>
<path fill="none" stroke="midnightblue" d="M1226.27,-290.497C1249.6,-280.397 1284.8,-265.161 1309.01,-254.683"/>
<polygon fill="midnightblue" stroke="midnightblue" points="1310.54,-257.834 1318.33,-250.65 1307.76,-251.41 1310.54,-257.834"/>
</g>
<!-- Node28 -->
<g id="node65" class="node"><title>Node28</title>
<polygon fill="white" stroke="#bfbfbf" points="1178.5,-232.5 1178.5,-253.5 1225.5,-253.5 1225.5,-232.5 1178.5,-232.5"/>
<text text-anchor="middle" x="1202" y="-240.5" font-family="Helvetica,sans-Serif" font-size="10.00">iterator</text>
</g>
<!-- Node26&#45;&gt;Node28 -->
<g id="edge74" class="edge"><title>Node26&#45;&gt;Node28</title>
<path fill="none" stroke="midnightblue" d="M1202,-290.362C1202,-282.922 1202,-272.743 1202,-263.728"/>
<polygon fill="midnightblue" stroke="midnightblue" points="1205.5,-263.571 1202,-253.571 1198.5,-263.571 1205.5,-263.571"/>
</g>
<!-- Node29&#45;&gt;Node7 -->
<g id="edge80" class="edge"><title>Node29&#45;&gt;Node7</title>
<path fill="none" stroke="midnightblue" d="M755.13,-290.372C758.548,-280.974 763.133,-266.806 765,-254 766.41,-244.324 766.686,-241.631 765,-232 762.067,-215.243 755.657,-212.614 752,-196 748.527,-180.22 747.047,-161.995 746.424,-148.239"/>
<polygon fill="midnightblue" stroke="midnightblue" points="749.91,-147.765 746.078,-137.888 742.914,-147.999 749.91,-147.765"/>
</g>
<!-- Node29&#45;&gt;Node8 -->
<g id="edge114" class="edge"><title>Node29&#45;&gt;Node8</title>
<path fill="none" stroke="midnightblue" d="M816.296,-294.229C903.803,-284.729 1050.66,-267.139 1072,-254 1136.92,-214.037 1178.15,-128.248 1194.28,-89.1542"/>
<polygon fill="midnightblue" stroke="midnightblue" points="1197.62,-90.2349 1198.08,-79.6502 1191.12,-87.6352 1197.62,-90.2349"/>
</g>
<!-- Node29&#45;&gt;Node9 -->
<g id="edge110" class="edge"><title>Node29&#45;&gt;Node9</title>
<path fill="none" stroke="midnightblue" d="M750.724,-290.421C749.808,-275.717 746.149,-248.999 732,-232 667.732,-154.787 475.279,-194.475 538,-116 559.073,-89.6335 655.654,-76.9826 709.486,-71.8854"/>
<polygon fill="midnightblue" stroke="midnightblue" points="710.003,-75.3529 719.647,-70.9648 709.372,-68.3814 710.003,-75.3529"/>
</g>
<!-- Node29&#45;&gt;Node22 -->
<g id="edge112" class="edge"><title>Node29&#45;&gt;Node22</title>
<path fill="none" stroke="midnightblue" d="M685.769,-291.681C599.384,-279.341 449.978,-257.997 381.364,-248.195"/>
<polygon fill="midnightblue" stroke="midnightblue" points="381.463,-244.673 371.068,-246.724 380.473,-251.603 381.463,-244.673"/>
</g>
<!-- Node29&#45;&gt;Node25 -->
<g id="edge82" class="edge"><title>Node29&#45;&gt;Node25</title>
<path fill="none" stroke="midnightblue" d="M739.261,-290.362C730.059,-282.023 717.06,-270.242 706.328,-260.516"/>
<polygon fill="midnightblue" stroke="midnightblue" points="708.424,-257.692 698.664,-253.571 703.724,-262.879 708.424,-257.692"/>
</g>
<!-- Node30 -->
<g id="node72" class="node"><title>Node30</title>
<a xlink:href="_detector__t_8h.html" target="_top" xlink:title="base/Detector_t.h">
<polygon fill="white" stroke="black" points="952.5,-174.5 952.5,-195.5 1047.5,-195.5 1047.5,-174.5 952.5,-174.5"/>
<text text-anchor="middle" x="1000" y="-182.5" font-family="Helvetica,sans-Serif" font-size="10.00">base/Detector_t.h</text>
</a>
</g>
<!-- Node29&#45;&gt;Node30 -->
<g id="edge84" class="edge"><title>Node29&#45;&gt;Node30</title>
<path fill="none" stroke="midnightblue" d="M816.161,-293.135C903.41,-282.29 1048.23,-263.061 1056,-254 1071.27,-236.194 1048.65,-215.198 1027.76,-201.083"/>
<polygon fill="midnightblue" stroke="midnightblue" points="1029.63,-198.126 1019.32,-195.667 1025.85,-204.016 1029.63,-198.126"/>
</g>
<!-- Node32 -->
<g id="node82" class="node"><title>Node32</title>
<a xlink:href="_cluster_8h.html" target="_top" xlink:title="analysis/data/Cluster.h">
<polygon fill="white" stroke="black" points="930.5,-232.5 930.5,-253.5 1047.5,-253.5 1047.5,-232.5 930.5,-232.5"/>
<text text-anchor="middle" x="989" y="-240.5" font-family="Helvetica,sans-Serif" font-size="10.00">analysis/data/Cluster.h</text>
</a>
</g>
<!-- Node29&#45;&gt;Node32 -->
<g id="edge100" class="edge"><title>Node29&#45;&gt;Node32</title>
<path fill="none" stroke="midnightblue" d="M794.1,-290.497C833.908,-280.795 893.165,-266.355 935.883,-255.945"/>
<polygon fill="midnightblue" stroke="midnightblue" points="936.932,-259.291 945.819,-253.523 935.275,-252.49 936.932,-259.291"/>
</g>
<!-- Node30&#45;&gt;Node7 -->
<g id="edge86" class="edge"><title>Node30&#45;&gt;Node7</title>
<path fill="none" stroke="midnightblue" d="M954.003,-174.497C910.317,-164.521 844.685,-149.534 798.864,-139.071"/>
<polygon fill="midnightblue" stroke="midnightblue" points="799.643,-135.659 789.115,-136.845 798.084,-142.483 799.643,-135.659"/>
</g>
<!-- Node30&#45;&gt;Node8 -->
<g id="edge98" class="edge"><title>Node30&#45;&gt;Node8</title>
<path fill="none" stroke="midnightblue" d="M1001.16,-174.45C1003.41,-159.282 1009.75,-131.443 1027,-116 1048,-97.2075 1125.3,-81.7012 1169.82,-74.0841"/>
<polygon fill="midnightblue" stroke="midnightblue" points="1170.57,-77.5082 1179.86,-72.4066 1169.42,-70.604 1170.57,-77.5082"/>
</g>
<!-- Node30&#45;&gt;Node12 -->
<g id="edge94" class="edge"><title>Node30&#45;&gt;Node12</title>
<path fill="none" stroke="midnightblue" d="M983.686,-174.445C947.895,-151.535 859.415,-96.242 781,-58 752.25,-43.9789 718.201,-30.6511 694.269,-21.7934"/>
<polygon fill="midnightblue" stroke="midnightblue" points="695.271,-18.433 684.677,-18.2819 692.864,-25.0064 695.271,-18.433"/>
</g>
<!-- Node30&#45;&gt;Node17 -->
<g id="edge96" class="edge"><title>Node30&#45;&gt;Node17</title>
<path fill="none" stroke="midnightblue" d="M952.389,-175.365C949.555,-174.88 946.742,-174.42 944,-174 803.147,-152.428 762.963,-164.824 619.395,-138.031"/>
<polygon fill="midnightblue" stroke="midnightblue" points="619.81,-134.547 609.332,-136.121 618.504,-141.425 619.81,-134.547"/>
</g>
<!-- Node30&#45;&gt;Node19 -->
<g id="edge90" class="edge"><title>Node30&#45;&gt;Node19</title>
<path fill="none" stroke="midnightblue" d="M952.399,-175.295C949.562,-174.827 946.747,-174.39 944,-174 764.65,-148.506 717.803,-160.073 538,-138 526.034,-136.531 512.971,-134.575 501.405,-132.719"/>
<polygon fill="midnightblue" stroke="midnightblue" points="501.712,-129.223 491.278,-131.061 500.581,-136.131 501.712,-129.223"/>
</g>
<!-- Node30&#45;&gt;Node20 -->
<g id="edge92" class="edge"><title>Node30&#45;&gt;Node20</title>
<path fill="none" stroke="midnightblue" d="M952.371,-175.473C949.542,-174.96 946.735,-174.465 944,-174 836.467,-155.708 805.476,-161.317 695.585,-138.142"/>
<polygon fill="midnightblue" stroke="midnightblue" points="696.282,-134.712 685.771,-136.041 694.817,-141.557 696.282,-134.712"/>
</g>
<!-- Node31 -->
<g id="node75" class="node"><title>Node31</title>
<polygon fill="white" stroke="#bfbfbf" points="1035.5,-116.5 1035.5,-137.5 1100.5,-137.5 1100.5,-116.5 1035.5,-116.5"/>
<text text-anchor="middle" x="1068" y="-124.5" font-family="Helvetica,sans-Serif" font-size="10.00">TVector3.h</text>
</g>
<!-- Node30&#45;&gt;Node31 -->
<g id="edge88" class="edge"><title>Node30&#45;&gt;Node31</title>
<path fill="none" stroke="midnightblue" d="M1012.47,-174.362C1022.35,-165.941 1036.33,-154.011 1047.8,-144.231"/>
<polygon fill="midnightblue" stroke="midnightblue" points="1050.27,-146.723 1055.61,-137.571 1045.73,-141.397 1050.27,-146.723"/>
</g>
<!-- Node32&#45;&gt;Node30 -->
<g id="edge102" class="edge"><title>Node32&#45;&gt;Node30</title>
<path fill="none" stroke="midnightblue" d="M991.018,-232.362C992.444,-224.84 994.402,-214.519 996.125,-205.431"/>
<polygon fill="midnightblue" stroke="midnightblue" points="999.571,-206.048 997.995,-195.571 992.693,-204.743 999.571,-206.048"/>
</g>
<!-- Node32&#45;&gt;Node31 -->
<g id="edge106" class="edge"><title>Node32&#45;&gt;Node31</title>
<path fill="none" stroke="midnightblue" d="M1012.54,-232.454C1027.38,-224.559 1045.64,-212.314 1056,-196 1065.14,-181.603 1067.87,-162.271 1068.46,-147.733"/>
<polygon fill="midnightblue" stroke="midnightblue" points="1071.96,-147.749 1068.58,-137.71 1064.96,-147.67 1071.96,-147.749"/>
</g>
<!-- Node32&#45;&gt;Node33 -->
<g id="edge104" class="edge"><title>Node32&#45;&gt;Node33</title>
<path fill="none" stroke="midnightblue" d="M950.246,-232.497C906.396,-220.612 836.3,-201.614 799.455,-191.628"/>
<polygon fill="midnightblue" stroke="midnightblue" points="800.14,-188.187 789.572,-188.95 798.309,-194.944 800.14,-188.187"/>
</g>
<!-- Node34 -->
<g id="node88" class="node"><title>Node34</title>
<a xlink:href="enumfield_8h.html" target="_top" xlink:title="base/enumfield.h">
<polygon fill="white" stroke="black" points="844.5,-174.5 844.5,-195.5 935.5,-195.5 935.5,-174.5 844.5,-174.5"/>
<text text-anchor="middle" x="890" y="-182.5" font-family="Helvetica,sans-Serif" font-size="10.00">base/enumfield.h</text>
</a>
</g>
<!-- Node32&#45;&gt;Node34 -->
<g id="edge108" class="edge"><title>Node32&#45;&gt;Node34</title>
<path fill="none" stroke="midnightblue" d="M970.842,-232.362C955.77,-223.532 934.113,-210.844 917.007,-200.822"/>
<polygon fill="midnightblue" stroke="midnightblue" points="918.441,-197.606 908.043,-195.571 914.902,-203.646 918.441,-197.606"/>
</g>
<!-- Node37&#45;&gt;Node7 -->
<g id="edge134" class="edge"><title>Node37&#45;&gt;Node7</title>
<path fill="none" stroke="midnightblue" d="M515.727,-290.201C510.754,-275.717 504.581,-249.765 516,-232 527.208,-214.563 647.1,-165.691 709.184,-141.268"/>
<polygon fill="midnightblue" stroke="midnightblue" points="710.594,-144.474 718.626,-137.566 708.039,-137.957 710.594,-144.474"/>
</g>
<!-- Node37&#45;&gt;Node22 -->
<g id="edge130" class="edge"><title>Node37&#45;&gt;Node22</title>
<path fill="none" stroke="midnightblue" d="M488.309,-290.497C458.002,-280.452 412.363,-265.326 380.767,-254.854"/>
<polygon fill="midnightblue" stroke="midnightblue" points="381.632,-251.454 371.039,-251.63 379.43,-258.098 381.632,-251.454"/>
</g>
<!-- Node37&#45;&gt;Node25 -->
<g id="edge132" class="edge"><title>Node37&#45;&gt;Node25</title>
<path fill="none" stroke="midnightblue" d="M550.242,-290.497C577.35,-281.082 617.31,-267.204 647.043,-256.877"/>
<polygon fill="midnightblue" stroke="midnightblue" points="648.403,-260.11 656.701,-253.523 646.106,-253.498 648.403,-260.11"/>
</g>
<!-- Node37&#45;&gt;Node33 -->
<g id="edge128" class="edge"><title>Node37&#45;&gt;Node33</title>
<path fill="none" stroke="midnightblue" d="M518.492,-290.497C516.966,-275.388 516.671,-247.621 532,-232 562.261,-201.163 694.922,-189.771 750.436,-186.303"/>
<polygon fill="midnightblue" stroke="midnightblue" points="750.681,-189.795 760.457,-185.712 750.269,-182.807 750.681,-189.795"/>
</g>
<!-- Node37&#45;&gt;Node35 -->
<g id="edge136" class="edge"><title>Node37&#45;&gt;Node35</title>
<path fill="none" stroke="midnightblue" d="M532.289,-290.362C542.017,-281.941 555.798,-270.011 567.095,-260.231"/>
<polygon fill="midnightblue" stroke="midnightblue" points="569.519,-262.762 574.789,-253.571 564.938,-257.469 569.519,-262.762"/>
</g>
<!-- Node38&#45;&gt;Node4 -->
<g id="edge144" class="edge"><title>Node38&#45;&gt;Node4</title>
<path fill="none" stroke="midnightblue" d="M397.207,-291.161C362.345,-281.578 309.102,-266.943 270.459,-256.32"/>
<polygon fill="midnightblue" stroke="midnightblue" points="271.043,-252.851 260.473,-253.575 269.187,-259.601 271.043,-252.851"/>
</g>
<!-- Node38&#45;&gt;Node7 -->
<g id="edge142" class="edge"><title>Node38&#45;&gt;Node7</title>
<path fill="none" stroke="midnightblue" d="M438.292,-290.115C445.788,-275.533 460.648,-249.472 479,-232 515.379,-197.365 529.82,-193.76 576,-174 597.046,-164.995 651.495,-150.477 693.152,-139.957"/>
<polygon fill="midnightblue" stroke="midnightblue" points="694.054,-143.339 702.9,-137.509 692.349,-136.55 694.054,-143.339"/>
</g>
<!-- Node38&#45;&gt;Node22 -->
<g id="edge148" class="edge"><title>Node38&#45;&gt;Node22</title>
<path fill="none" stroke="midnightblue" d="M416.859,-290.362C403.586,-281.614 384.568,-269.079 369.43,-259.101"/>
<polygon fill="midnightblue" stroke="midnightblue" points="371.314,-256.151 361.038,-253.571 367.462,-261.996 371.314,-256.151"/>
</g>
<!-- Node38&#45;&gt;Node25 -->
<g id="edge140" class="edge"><title>Node38&#45;&gt;Node25</title>
<path fill="none" stroke="midnightblue" d="M468.519,-292.023C471.386,-291.328 474.24,-290.646 477,-290 546.943,-273.631 567.157,-271.111 640.037,-254.416"/>
<polygon fill="midnightblue" stroke="midnightblue" points="641.222,-257.735 650.181,-252.079 639.65,-250.914 641.222,-257.735"/>
</g>
<!-- Node38&#45;&gt;Node33 -->
<g id="edge146" class="edge"><title>Node38&#45;&gt;Node33</title>
<path fill="none" stroke="midnightblue" d="M442.283,-290.396C456.499,-274.895 485.264,-246.34 516,-232 557.641,-212.573 693.677,-194.665 750.115,-187.878"/>
<polygon fill="midnightblue" stroke="midnightblue" points="750.771,-191.324 760.289,-186.671 749.947,-184.373 750.771,-191.324"/>
</g>
</g>
</svg>
