<?xml version="1.0" encoding="UTF-8" standalone="no"?>
<!DOCTYPE svg PUBLIC "-//W3C//DTD SVG 1.1//EN"
 "http://www.w3.org/Graphics/SVG/1.1/DTD/svg11.dtd">
<!-- Generated by graphviz version 2.26.3 (20100126.1600)
 -->
<!-- Title: src/unpacker/RawFileReader.cc Pages: 1 -->
<svg width="834pt" height="146pt"
 viewBox="0.00 0.00 834.00 146.00" xmlns="http://www.w3.org/2000/svg" xmlns:xlink="http://www.w3.org/1999/xlink">
<g id="graph1" class="graph" transform="scale(1 1) rotate(0) translate(4 142)">
<title>src/unpacker/RawFileReader.cc</title>
<polygon fill="white" stroke="white" points="-4,5 -4,-142 831,-142 831,5 -4,5"/>
<!-- Node1 -->
<g id="node1" class="node"><title>Node1</title>
<polygon fill="#bfbfbf" stroke="black" points="503.5,-116.5 503.5,-137.5 660.5,-137.5 660.5,-116.5 503.5,-116.5"/>
<text text-anchor="middle" x="582" y="-124.5" font-family="Helvetica,sans-Serif" font-size="10.00">src/unpacker/RawFileReader.cc</text>
</g>
<!-- Node2 -->
<g id="node3" class="node"><title>Node2</title>
<a xlink:href="_raw_file_reader_8h.html" target="_top" xlink:title="RawFileReader.h">
<polygon fill="white" stroke="black" points="168,-58.5 168,-79.5 260,-79.5 260,-58.5 168,-58.5"/>
<text text-anchor="middle" x="214" y="-66.5" font-family="Helvetica,sans-Serif" font-size="10.00">RawFileReader.h</text>
</a>
</g>
<!-- Node1&#45;&gt;Node2 -->
<g id="edge2" class="edge"><title>Node1&#45;&gt;Node2</title>
<path fill="none" stroke="midnightblue" d="M515.358,-116.497C445.268,-105.45 336.185,-88.2575 270.27,-77.8687"/>
<polygon fill="midnightblue" stroke="midnightblue" points="270.497,-74.3613 260.074,-76.2617 269.407,-81.276 270.497,-74.3613"/>
</g>
<!-- Node9 -->
<g id="node17" class="node"><title>Node9</title>
<a xlink:href="_logger_8h.html" target="_top" xlink:title="base/Logger.h">
<polygon fill="white" stroke="black" points="434,-58.5 434,-79.5 512,-79.5 512,-58.5 434,-58.5"/>
<text text-anchor="middle" x="473" y="-66.5" font-family="Helvetica,sans-Serif" font-size="10.00">base/Logger.h</text>
</a>
</g>
<!-- Node1&#45;&gt;Node9 -->
<g id="edge16" class="edge"><title>Node1&#45;&gt;Node9</title>
<path fill="none" stroke="midnightblue" d="M562.261,-116.497C545.39,-107.519 520.891,-94.4835 501.826,-84.3387"/>
<polygon fill="midnightblue" stroke="midnightblue" points="503.433,-81.2289 492.961,-79.6212 500.144,-87.4086 503.433,-81.2289"/>
</g>
<!-- Node11 -->
<g id="node21" class="node"><title>Node11</title>
<a xlink:href="memory_8h.html" target="_top" xlink:title="base/std_ext/memory.h">
<polygon fill="white" stroke="black" points="297.5,-58.5 297.5,-79.5 416.5,-79.5 416.5,-58.5 297.5,-58.5"/>
<text text-anchor="middle" x="357" y="-66.5" font-family="Helvetica,sans-Serif" font-size="10.00">base/std_ext/memory.h</text>
</a>
</g>
<!-- Node1&#45;&gt;Node11 -->
<g id="edge20" class="edge"><title>Node1&#45;&gt;Node11</title>
<path fill="none" stroke="midnightblue" d="M541.254,-116.497C503.779,-106.836 448.073,-92.4765 407.728,-82.0765"/>
<polygon fill="midnightblue" stroke="midnightblue" points="408.379,-78.6301 397.822,-79.5231 406.632,-85.4085 408.379,-78.6301"/>
</g>
<!-- Node13 -->
<g id="node26" class="node"><title>Node13</title>
<polygon fill="white" stroke="#bfbfbf" points="529.5,-58.5 529.5,-79.5 572.5,-79.5 572.5,-58.5 529.5,-58.5"/>
<text text-anchor="middle" x="551" y="-66.5" font-family="Helvetica,sans-Serif" font-size="10.00">cstdio</text>
</g>
<!-- Node1&#45;&gt;Node13 -->
<g id="edge26" class="edge"><title>Node1&#45;&gt;Node13</title>
<path fill="none" stroke="midnightblue" d="M576.314,-116.362C572.163,-108.595 566.416,-97.8426 561.447,-88.5458"/>
<polygon fill="midnightblue" stroke="midnightblue" points="564.45,-86.7401 556.65,-79.5707 558.277,-90.0398 564.45,-86.7401"/>
</g>
<!-- Node14 -->
<g id="node28" class="node"><title>Node14</title>
<polygon fill="white" stroke="#bfbfbf" points="590,-58.5 590,-79.5 636,-79.5 636,-58.5 590,-58.5"/>
<text text-anchor="middle" x="613" y="-66.5" font-family="Helvetica,sans-Serif" font-size="10.00">cstring</text>
</g>
<!-- Node1&#45;&gt;Node14 -->
<g id="edge28" class="edge"><title>Node1&#45;&gt;Node14</title>
<path fill="none" stroke="midnightblue" d="M587.686,-116.362C591.837,-108.595 597.584,-97.8426 602.553,-88.5458"/>
<polygon fill="midnightblue" stroke="midnightblue" points="605.723,-90.0398 607.35,-79.5707 599.55,-86.7401 605.723,-90.0398"/>
</g>
<!-- Node15 -->
<g id="node30" class="node"><title>Node15</title>
<polygon fill="white" stroke="#bfbfbf" points="654,-58.5 654,-79.5 694,-79.5 694,-58.5 654,-58.5"/>
<text text-anchor="middle" x="674" y="-66.5" font-family="Helvetica,sans-Serif" font-size="10.00">limits</text>
</g>
<!-- Node1&#45;&gt;Node15 -->
<g id="edge30" class="edge"><title>Node1&#45;&gt;Node15</title>
<path fill="none" stroke="midnightblue" d="M598.874,-116.362C612.751,-107.614 632.634,-95.0786 648.46,-85.1015"/>
<polygon fill="midnightblue" stroke="midnightblue" points="650.64,-87.8645 657.233,-79.5707 646.907,-81.943 650.64,-87.8645"/>
</g>
<!-- Node16 -->
<g id="node32" class="node"><title>Node16</title>
<polygon fill="white" stroke="#bfbfbf" points="712,-58.5 712,-79.5 762,-79.5 762,-58.5 712,-58.5"/>
<text text-anchor="middle" x="737" y="-66.5" font-family="Helvetica,sans-Serif" font-size="10.00">iomanip</text>
</g>
<!-- Node1&#45;&gt;Node16 -->
<g id="edge32" class="edge"><title>Node1&#45;&gt;Node16</title>
<path fill="none" stroke="midnightblue" d="M610.069,-116.497C635.943,-106.815 674.431,-92.4128 702.239,-82.0074"/>
<polygon fill="midnightblue" stroke="midnightblue" points="703.818,-85.1535 711.957,-78.3708 701.365,-78.5975 703.818,-85.1535"/>
</g>
<!-- Node17 -->
<g id="node34" class="node"><title>Node17</title>
<polygon fill="white" stroke="#bfbfbf" points="780,-58.5 780,-79.5 826,-79.5 826,-58.5 780,-58.5"/>
<text text-anchor="middle" x="803" y="-66.5" font-family="Helvetica,sans-Serif" font-size="10.00">lzma.h</text>
</g>
<!-- Node1&#45;&gt;Node17 -->
<g id="edge34" class="edge"><title>Node1&#45;&gt;Node17</title>
<path fill="none" stroke="midnightblue" d="M629.299,-116.447C665.465,-108.106 716.733,-95.6979 769.742,-80.2142"/>
<polygon fill="midnightblue" stroke="midnightblue" points="771.057,-83.4754 779.657,-77.2876 769.075,-76.7618 771.057,-83.4754"/>
</g>
<!-- Node3 -->
<g id="node5" class="node"><title>Node3</title>
<polygon fill="white" stroke="#bfbfbf" points="126,-0.5 126,-21.5 176,-21.5 176,-0.5 126,-0.5"/>
<text text-anchor="middle" x="151" y="-8.5" font-family="Helvetica,sans-Serif" font-size="10.00">fstream</text>
</g>
<!-- Node2&#45;&gt;Node3 -->
<g id="edge4" class="edge"><title>Node2&#45;&gt;Node3</title>
<path fill="none" stroke="midnightblue" d="M202.445,-58.3619C193.387,-50.0226 180.59,-38.2418 170.026,-28.5162"/>
<polygon fill="midnightblue" stroke="midnightblue" points="172.21,-25.7688 162.482,-21.5707 167.468,-30.9187 172.21,-25.7688"/>
</g>
<!-- Node4 -->
<g id="node7" class="node"><title>Node4</title>
<polygon fill="white" stroke="#bfbfbf" points="193.5,-0.5 193.5,-21.5 234.5,-21.5 234.5,-0.5 193.5,-0.5"/>
<text text-anchor="middle" x="214" y="-8.5" font-family="Helvetica,sans-Serif" font-size="10.00">string</text>
</g>
<!-- Node2&#45;&gt;Node4 -->
<g id="edge6" class="edge"><title>Node2&#45;&gt;Node4</title>
<path fill="none" stroke="midnightblue" d="M214,-58.3619C214,-50.9219 214,-40.7427 214,-31.7276"/>
<polygon fill="midnightblue" stroke="midnightblue" points="217.5,-31.5706 214,-21.5707 210.5,-31.5707 217.5,-31.5706"/>
</g>
<!-- Node5 -->
<g id="node9" class="node"><title>Node5</title>
<polygon fill="white" stroke="#bfbfbf" points="316,-0.5 316,-21.5 368,-21.5 368,-0.5 316,-0.5"/>
<text text-anchor="middle" x="342" y="-8.5" font-family="Helvetica,sans-Serif" font-size="10.00">memory</text>
</g>
<!-- Node2&#45;&gt;Node5 -->
<g id="edge8" class="edge"><title>Node2&#45;&gt;Node5</title>
<path fill="none" stroke="midnightblue" d="M237.18,-58.4966C257.352,-49.3562 286.81,-36.0082 309.364,-25.7883"/>
<polygon fill="midnightblue" stroke="midnightblue" points="310.896,-28.9366 318.56,-21.6212 308.007,-22.5606 310.896,-28.9366"/>
</g>
<!-- Node6 -->
<g id="node11" class="node"><title>Node6</title>
<polygon fill="white" stroke="#bfbfbf" points="252,-0.5 252,-21.5 298,-21.5 298,-0.5 252,-0.5"/>
<text text-anchor="middle" x="275" y="-8.5" font-family="Helvetica,sans-Serif" font-size="10.00">cstdint</text>
</g>
<!-- Node2&#45;&gt;Node6 -->
<g id="edge10" class="edge"><title>Node2&#45;&gt;Node6</title>
<path fill="none" stroke="midnightblue" d="M225.188,-58.3619C233.959,-50.0226 246.349,-38.2418 256.578,-28.5162"/>
<polygon fill="midnightblue" stroke="midnightblue" points="259.047,-30.9978 263.883,-21.5707 254.224,-25.9248 259.047,-30.9978"/>
</g>
<!-- Node7 -->
<g id="node13" class="node"><title>Node7</title>
<polygon fill="white" stroke="#bfbfbf" points="0,-0.5 0,-21.5 44,-21.5 44,-0.5 0,-0.5"/>
<text text-anchor="middle" x="22" y="-8.5" font-family="Helvetica,sans-Serif" font-size="10.00">vector</text>
</g>
<!-- Node2&#45;&gt;Node7 -->
<g id="edge12" class="edge"><title>Node2&#45;&gt;Node7</title>
<path fill="none" stroke="midnightblue" d="M175.753,-58.497C145.124,-49.9383 100.863,-37.242 54.0152,-22.2207"/>
<polygon fill="midnightblue" stroke="midnightblue" points="54.891,-18.8256 44.2993,-19.0836 52.7401,-25.487 54.891,-18.8256"/>
</g>
<!-- Node8 -->
<g id="node15" class="node"><title>Node8</title>
<polygon fill="white" stroke="#bfbfbf" points="62,-0.5 62,-21.5 108,-21.5 108,-0.5 62,-0.5"/>
<text text-anchor="middle" x="85" y="-8.5" font-family="Helvetica,sans-Serif" font-size="10.00">chrono</text>
</g>
<!-- Node2&#45;&gt;Node8 -->
<g id="edge14" class="edge"><title>Node2&#45;&gt;Node8</title>
<path fill="none" stroke="midnightblue" d="M190.639,-58.4966C170.182,-49.299 140.25,-35.8411 117.466,-25.597"/>
<polygon fill="midnightblue" stroke="midnightblue" points="118.743,-22.3338 108.187,-21.4252 115.872,-28.7182 118.743,-22.3338"/>
</g>
<!-- Node10 -->
<g id="node19" class="node"><title>Node10</title>
<polygon fill="white" stroke="#bfbfbf" points="431.5,-0.5 431.5,-21.5 546.5,-21.5 546.5,-0.5 431.5,-0.5"/>
<text text-anchor="middle" x="489" y="-8.5" font-family="Helvetica,sans-Serif" font-size="10.00">detail/easylogging++.h</text>
</g>
<!-- Node9&#45;&gt;Node10 -->
<g id="edge18" class="edge"><title>Node9&#45;&gt;Node10</title>
<path fill="none" stroke="midnightblue" d="M475.935,-58.3619C478.01,-50.8401 480.857,-40.5187 483.364,-31.4308"/>
<polygon fill="midnightblue" stroke="midnightblue" points="486.799,-32.1414 486.084,-21.5707 480.051,-30.2798 486.799,-32.1414"/>
</g>
<!-- Node11&#45;&gt;Node5 -->
<g id="edge22" class="edge"><title>Node11&#45;&gt;Node5</title>
<path fill="none" stroke="midnightblue" d="M354.249,-58.3619C352.303,-50.8401 349.634,-40.5187 347.284,-31.4308"/>
<polygon fill="midnightblue" stroke="midnightblue" points="350.626,-30.3758 344.734,-21.5707 343.849,-32.1285 350.626,-30.3758"/>
</g>
<!-- Node12 -->
<g id="node24" class="node"><title>Node12</title>
<polygon fill="white" stroke="#bfbfbf" points="385.5,-0.5 385.5,-21.5 414.5,-21.5 414.5,-0.5 385.5,-0.5"/>
<text text-anchor="middle" x="400" y="-8.5" font-family="Helvetica,sans-Serif" font-size="10.00">list</text>
</g>
<!-- Node11&#45;&gt;Node12 -->
<g id="edge24" class="edge"><title>Node11&#45;&gt;Node12</title>
<path fill="none" stroke="midnightblue" d="M364.887,-58.3619C370.827,-50.3496 379.122,-39.1605 386.159,-29.6696"/>
<polygon fill="midnightblue" stroke="midnightblue" points="389.019,-31.6883 392.163,-21.5707 383.396,-27.5193 389.019,-31.6883"/>
</g>
</g>
</svg>
