<?xml version="1.0" encoding="UTF-8" standalone="no"?>
<!DOCTYPE svg PUBLIC "-//W3C//DTD SVG 1.1//EN"
 "http://www.w3.org/Graphics/SVG/1.1/DTD/svg11.dtd">
<!-- Generated by graphviz version 2.26.3 (20100126.1600)
 -->
<!-- Title: src/unpacker/RawFileReader.h Pages: 1 -->
<svg width="736pt" height="102pt"
 viewBox="0.00 0.00 736.00 102.00" xmlns="http://www.w3.org/2000/svg" xmlns:xlink="http://www.w3.org/1999/xlink">
<g id="graph1" class="graph" transform="scale(1 1) rotate(0) translate(4 98)">
<title>src/unpacker/RawFileReader.h</title>
<polygon fill="white" stroke="white" points="-4,5 -4,-98 733,-98 733,5 -4,5"/>
<!-- Node1 -->
<g id="node1" class="node"><title>Node1</title>
<polygon fill="#bfbfbf" stroke="black" points="242,-72.5 242,-93.5 394,-93.5 394,-72.5 242,-72.5"/>
<text text-anchor="middle" x="318" y="-80.5" font-family="Helvetica,sans-Serif" font-size="10.00">src/unpacker/RawFileReader.h</text>
</g>
<!-- Node2 -->
<g id="node3" class="node"><title>Node2</title>
<a xlink:href="_ant_8cc.html" target="_top" xlink:title="progs/Ant.cc">
<polygon fill="white" stroke="black" points="0,-7.5 0,-28.5 72,-28.5 72,-7.5 0,-7.5"/>
<text text-anchor="middle" x="36" y="-15.5" font-family="Helvetica,sans-Serif" font-size="10.00">progs/Ant.cc</text>
</a>
</g>
<!-- Node1&#45;&gt;Node2 -->
<g id="edge2" class="edge"><title>Node1&#45;&gt;Node2</title>
<path fill="none" stroke="midnightblue" d="M237.204,-70.7882C190.96,-62.855 132.145,-51.1586 81,-36 74.062,-33.9437 66.707,-31.2376 59.9983,-28.5503"/>
<polygon fill="midnightblue" stroke="midnightblue" points="236.729,-74.2575 247.173,-72.4736 237.896,-67.3554 236.729,-74.2575"/>
</g>
<!-- Node3 -->
<g id="node5" class="node"><title>Node3</title>
<a xlink:href="_unpacker_acqu__detail_8cc.html" target="_top" xlink:title="src/unpacker/detail\l/UnpackerAcqu_detail.cc">
<polygon fill="white" stroke="black" points="90,-1 90,-35 216,-35 216,-1 90,-1"/>
<text text-anchor="start" x="98" y="-22" font-family="Helvetica,sans-Serif" font-size="10.00">src/unpacker/detail</text>
<text text-anchor="middle" x="153" y="-9" font-family="Helvetica,sans-Serif" font-size="10.00">/UnpackerAcqu_detail.cc</text>
</a>
</g>
<!-- Node1&#45;&gt;Node3 -->
<g id="edge4" class="edge"><title>Node1&#45;&gt;Node3</title>
<path fill="none" stroke="midnightblue" d="M281.584,-68.6543C256.423,-58.7423 222.842,-45.5134 196.307,-35.0604"/>
<polygon fill="midnightblue" stroke="midnightblue" points="280.536,-72.0031 291.123,-72.412 283.101,-65.4902 280.536,-72.0031"/>
</g>
<!-- Node4 -->
<g id="node7" class="node"><title>Node4</title>
<a xlink:href="_unpacker_acqu___file_format_mk2_8cc.html" target="_top" xlink:title="src/unpacker/detail\l/UnpackerAcqu_FileFormatMk2.cc">
<polygon fill="white" stroke="black" points="234,-1 234,-35 402,-35 402,-1 234,-1"/>
<text text-anchor="start" x="242" y="-22" font-family="Helvetica,sans-Serif" font-size="10.00">src/unpacker/detail</text>
<text text-anchor="middle" x="318" y="-9" font-family="Helvetica,sans-Serif" font-size="10.00">/UnpackerAcqu_FileFormatMk2.cc</text>
</a>
</g>
<!-- Node1&#45;&gt;Node4 -->
<g id="edge6" class="edge"><title>Node1&#45;&gt;Node4</title>
<path fill="none" stroke="midnightblue" d="M318,-62.1306C318,-53.4049 318,-43.3908 318,-35.1099"/>
<polygon fill="midnightblue" stroke="midnightblue" points="314.5,-62.2665 318,-72.2666 321.5,-62.2666 314.5,-62.2665"/>
</g>
<!-- Node5 -->
<g id="node9" class="node"><title>Node5</title>
<a xlink:href="_raw_file_reader_8cc.html" target="_top" xlink:title="src/unpacker/RawFileReader.cc">
<polygon fill="white" stroke="black" points="419.5,-7.5 419.5,-28.5 576.5,-28.5 576.5,-7.5 419.5,-7.5"/>
<text text-anchor="middle" x="498" y="-15.5" font-family="Helvetica,sans-Serif" font-size="10.00">src/unpacker/RawFileReader.cc</text>
</a>
</g>
<!-- Node1&#45;&gt;Node5 -->
<g id="edge8" class="edge"><title>Node1&#45;&gt;Node5</title>
<path fill="none" stroke="midnightblue" d="M356.82,-68.9818C390.404,-56.854 438.232,-39.583 468.692,-28.5835"/>
<polygon fill="midnightblue" stroke="midnightblue" points="355.537,-65.7235 347.321,-72.412 357.915,-72.3074 355.537,-65.7235"/>
</g>
<!-- Node6 -->
<g id="node11" class="node"><title>Node6</title>
<a xlink:href="_test_raw_file_reader_8cc.html" target="_top" xlink:title="test/unpacker/TestRawFile\lReader.cc">
<polygon fill="white" stroke="black" points="594,-1 594,-35 728,-35 728,-1 594,-1"/>
<text text-anchor="start" x="602" y="-22" font-family="Helvetica,sans-Serif" font-size="10.00">test/unpacker/TestRawFile</text>
<text text-anchor="middle" x="661" y="-9" font-family="Helvetica,sans-Serif" font-size="10.00">Reader.cc</text>
</a>
</g>
<!-- Node1&#45;&gt;Node6 -->
<g id="edge10" class="edge"><title>Node1&#45;&gt;Node6</title>
<path fill="none" stroke="midnightblue" d="M394.137,-70.8106C447.675,-61.9433 520.908,-49.2192 585,-36 587.922,-35.3974 590.902,-34.7655 593.91,-34.1136"/>
<polygon fill="midnightblue" stroke="midnightblue" points="393.336,-67.3954 384.039,-72.4761 394.475,-74.3021 393.336,-67.3954"/>
</g>
</g>
</svg>
