<?xml version="1.0" encoding="UTF-8" standalone="no"?>
<!DOCTYPE svg PUBLIC "-//W3C//DTD SVG 1.1//EN"
 "http://www.w3.org/Graphics/SVG/1.1/DTD/svg11.dtd">
<!-- Generated by graphviz version 2.26.3 (20100126.1600)
 -->
<!-- Title: src/unpacker/RawFileReader.h Pages: 1 -->
<svg width="376pt" height="88pt"
 viewBox="0.00 0.00 376.00 88.00" xmlns="http://www.w3.org/2000/svg" xmlns:xlink="http://www.w3.org/1999/xlink">
<g id="graph1" class="graph" transform="scale(1 1) rotate(0) translate(4 84)">
<title>src/unpacker/RawFileReader.h</title>
<polygon fill="white" stroke="white" points="-4,5 -4,-84 373,-84 373,5 -4,5"/>
<!-- Node1 -->
<g id="node1" class="node"><title>Node1</title>
<polygon fill="#bfbfbf" stroke="black" points="109,-58.5 109,-79.5 261,-79.5 261,-58.5 109,-58.5"/>
<text text-anchor="middle" x="185" y="-66.5" font-family="Helvetica,sans-Serif" font-size="10.00">src/unpacker/RawFileReader.h</text>
</g>
<!-- Node2 -->
<g id="node3" class="node"><title>Node2</title>
<polygon fill="white" stroke="#bfbfbf" points="0,-0.5 0,-21.5 50,-21.5 50,-0.5 0,-0.5"/>
<text text-anchor="middle" x="25" y="-8.5" font-family="Helvetica,sans-Serif" font-size="10.00">fstream</text>
</g>
<!-- Node1&#45;&gt;Node2 -->
<g id="edge2" class="edge"><title>Node1&#45;&gt;Node2</title>
<path fill="none" stroke="midnightblue" d="M156.025,-58.4966C128.958,-48.6849 88.5172,-34.025 59.7316,-23.5902"/>
<polygon fill="midnightblue" stroke="midnightblue" points="60.6711,-20.208 50.0769,-20.0904 58.2855,-26.7889 60.6711,-20.208"/>
</g>
<!-- Node3 -->
<g id="node5" class="node"><title>Node3</title>
<polygon fill="white" stroke="#bfbfbf" points="67.5,-0.5 67.5,-21.5 108.5,-21.5 108.5,-0.5 67.5,-0.5"/>
<text text-anchor="middle" x="88" y="-8.5" font-family="Helvetica,sans-Serif" font-size="10.00">string</text>
</g>
<!-- Node1&#45;&gt;Node3 -->
<g id="edge4" class="edge"><title>Node1&#45;&gt;Node3</title>
<path fill="none" stroke="midnightblue" d="M167.209,-58.3619C152.441,-49.532 131.222,-36.844 114.462,-26.8224"/>
<polygon fill="midnightblue" stroke="midnightblue" points="116.057,-23.6987 105.679,-21.5707 112.465,-29.7066 116.057,-23.6987"/>
</g>
<!-- Node4 -->
<g id="node7" class="node"><title>Node4</title>
<polygon fill="white" stroke="#bfbfbf" points="126,-0.5 126,-21.5 178,-21.5 178,-0.5 126,-0.5"/>
<text text-anchor="middle" x="152" y="-8.5" font-family="Helvetica,sans-Serif" font-size="10.00">memory</text>
</g>
<!-- Node1&#45;&gt;Node4 -->
<g id="edge6" class="edge"><title>Node1&#45;&gt;Node4</title>
<path fill="none" stroke="midnightblue" d="M178.947,-58.3619C174.528,-50.5949 168.41,-39.8426 163.121,-30.5458"/>
<polygon fill="midnightblue" stroke="midnightblue" points="166.002,-28.5315 158.014,-21.5707 159.918,-31.9932 166.002,-28.5315"/>
</g>
<!-- Node5 -->
<g id="node9" class="node"><title>Node5</title>
<polygon fill="white" stroke="#bfbfbf" points="196,-0.5 196,-21.5 242,-21.5 242,-0.5 196,-0.5"/>
<text text-anchor="middle" x="219" y="-8.5" font-family="Helvetica,sans-Serif" font-size="10.00">cstdint</text>
</g>
<!-- Node1&#45;&gt;Node5 -->
<g id="edge8" class="edge"><title>Node1&#45;&gt;Node5</title>
<path fill="none" stroke="midnightblue" d="M191.236,-58.3619C195.837,-50.5131 202.225,-39.6159 207.714,-30.2527"/>
<polygon fill="midnightblue" stroke="midnightblue" points="210.766,-31.9677 212.803,-21.5707 204.727,-28.4276 210.766,-31.9677"/>
</g>
<!-- Node6 -->
<g id="node11" class="node"><title>Node6</title>
<polygon fill="white" stroke="#bfbfbf" points="260,-0.5 260,-21.5 304,-21.5 304,-0.5 260,-0.5"/>
<text text-anchor="middle" x="282" y="-8.5" font-family="Helvetica,sans-Serif" font-size="10.00">vector</text>
</g>
<!-- Node1&#45;&gt;Node6 -->
<g id="edge10" class="edge"><title>Node1&#45;&gt;Node6</title>
<path fill="none" stroke="midnightblue" d="M202.791,-58.3619C217.559,-49.532 238.778,-36.844 255.538,-26.8224"/>
<polygon fill="midnightblue" stroke="midnightblue" points="257.535,-29.7066 264.321,-21.5707 253.943,-23.6987 257.535,-29.7066"/>
</g>
<!-- Node7 -->
<g id="node13" class="node"><title>Node7</title>
<polygon fill="white" stroke="#bfbfbf" points="322,-0.5 322,-21.5 368,-21.5 368,-0.5 322,-0.5"/>
<text text-anchor="middle" x="345" y="-8.5" font-family="Helvetica,sans-Serif" font-size="10.00">chrono</text>
</g>
<!-- Node1&#45;&gt;Node7 -->
<g id="edge12" class="edge"><title>Node1&#45;&gt;Node7</title>
<path fill="none" stroke="midnightblue" d="M213.975,-58.4966C241.686,-48.4513 283.416,-33.3241 312.304,-22.8522"/>
<polygon fill="midnightblue" stroke="midnightblue" points="313.734,-26.0568 321.943,-19.3582 311.349,-19.4758 313.734,-26.0568"/>
</g>
</g>
</svg>
