<?xml version="1.0" encoding="UTF-8" standalone="no"?>
<!DOCTYPE svg PUBLIC "-//W3C//DTD SVG 1.1//EN"
 "http://www.w3.org/Graphics/SVG/1.1/DTD/svg11.dtd">
<!-- Generated by graphviz version 2.26.3 (20100126.1600)
 -->
<!-- Title: src/reconstruct/Reconstruct_traits.h Pages: 1 -->
<svg width="848pt" height="218pt"
 viewBox="0.00 0.00 847.99 218.00" xmlns="http://www.w3.org/2000/svg" xmlns:xlink="http://www.w3.org/1999/xlink">
<g id="graph1" class="graph" transform="scale(1 1) rotate(0) translate(4 214)">
<title>src/reconstruct/Reconstruct_traits.h</title>
<polygon fill="white" stroke="white" points="-4,5 -4,-214 844.988,-214 844.988,5 -4,5"/>
<!-- Node1 -->
<g id="node1" class="node"><title>Node1</title>
<polygon fill="#bfbfbf" stroke="black" points="226.988,-175 226.988,-209 364.988,-209 364.988,-175 226.988,-175"/>
<text text-anchor="start" x="234.988" y="-196" font-family="Helvetica,sans-Serif" font-size="10.00">src/reconstruct/Reconstruct</text>
<text text-anchor="middle" x="295.988" y="-183" font-family="Helvetica,sans-Serif" font-size="10.00">_traits.h</text>
</g>
<!-- Node2 -->
<g id="node3" class="node"><title>Node2</title>
<a xlink:href="_detector__t_8h.html" target="_top" xlink:title="base/Detector_t.h">
<polygon fill="white" stroke="black" points="469.488,-116.5 469.488,-137.5 564.488,-137.5 564.488,-116.5 469.488,-116.5"/>
<text text-anchor="middle" x="516.988" y="-124.5" font-family="Helvetica,sans-Serif" font-size="10.00">base/Detector_t.h</text>
</a>
</g>
<!-- Node1&#45;&gt;Node2 -->
<g id="edge2" class="edge"><title>Node1&#45;&gt;Node2</title>
<path fill="none" stroke="midnightblue" d="M354.053,-174.922C390.719,-164.138 437.411,-150.405 471.404,-140.407"/>
<polygon fill="midnightblue" stroke="midnightblue" points="472.471,-143.742 481.077,-137.562 470.496,-137.026 472.471,-143.742"/>
</g>
<!-- Node11 -->
<g id="node22" class="node"><title>Node11</title>
<a xlink:href="_memory_pool_8h.html" target="_top" xlink:title="tree/MemoryPool.h">
<polygon fill="white" stroke="black" points="60.4882,-116.5 60.4882,-137.5 159.488,-137.5 159.488,-116.5 60.4882,-116.5"/>
<text text-anchor="middle" x="109.988" y="-124.5" font-family="Helvetica,sans-Serif" font-size="10.00">tree/MemoryPool.h</text>
</a>
</g>
<!-- Node1&#45;&gt;Node11 -->
<g id="edge22" class="edge"><title>Node1&#45;&gt;Node11</title>
<path fill="none" stroke="midnightblue" d="M247.119,-174.922C216.79,-164.323 178.31,-150.876 149.836,-140.925"/>
<polygon fill="midnightblue" stroke="midnightblue" points="150.807,-137.557 140.212,-137.562 148.497,-144.165 150.807,-137.557"/>
</g>
<!-- Node13 -->
<g id="node26" class="node"><title>Node13</title>
<polygon fill="white" stroke="#bfbfbf" points="45.9882,-0.5 45.9882,-21.5 97.9882,-21.5 97.9882,-0.5 45.9882,-0.5"/>
<text text-anchor="middle" x="71.9882" y="-8.5" font-family="Helvetica,sans-Serif" font-size="10.00">memory</text>
</g>
<!-- Node1&#45;&gt;Node13 -->
<g id="edge42" class="edge"><title>Node1&#45;&gt;Node13</title>
<path fill="none" stroke="midnightblue" d="M226.809,-181.982C165.279,-172.126 80.7235,-155.977 51.9882,-138 17.2177,-116.247 -12.8054,-94.4551 5.98818,-58 12.8866,-44.6187 25.5522,-34.2114 37.9573,-26.6302"/>
<polygon fill="midnightblue" stroke="midnightblue" points="39.8691,-29.5702 46.8579,-21.6072 36.4288,-23.4739 39.8691,-29.5702"/>
</g>
<!-- Node14 -->
<g id="node28" class="node"><title>Node14</title>
<polygon fill="white" stroke="#bfbfbf" points="193.488,-0.5 193.488,-21.5 222.488,-21.5 222.488,-0.5 193.488,-0.5"/>
<text text-anchor="middle" x="207.988" y="-8.5" font-family="Helvetica,sans-Serif" font-size="10.00">list</text>
</g>
<!-- Node1&#45;&gt;Node14 -->
<g id="edge46" class="edge"><title>Node1&#45;&gt;Node14</title>
<path fill="none" stroke="midnightblue" d="M287.992,-174.716C273.639,-143.74 243.979,-79.9524 232.988,-58 228.468,-48.9712 223.253,-39.0889 218.759,-30.7259"/>
<polygon fill="midnightblue" stroke="midnightblue" points="221.738,-28.8769 213.9,-21.7485 215.582,-32.209 221.738,-28.8769"/>
</g>
<!-- Node16 -->
<g id="node33" class="node"><title>Node16</title>
<a xlink:href="mapped__vectors_8h.html" target="_top" xlink:title="base/mapped_vectors.h">
<polygon fill="white" stroke="black" points="279.488,-116.5 279.488,-137.5 400.488,-137.5 400.488,-116.5 279.488,-116.5"/>
<text text-anchor="middle" x="339.988" y="-124.5" font-family="Helvetica,sans-Serif" font-size="10.00">base/mapped_vectors.h</text>
</a>
</g>
<!-- Node1&#45;&gt;Node16 -->
<g id="edge34" class="edge"><title>Node1&#45;&gt;Node16</title>
<path fill="none" stroke="midnightblue" d="M307.549,-174.922C313.507,-166.12 320.795,-155.354 326.952,-146.258"/>
<polygon fill="midnightblue" stroke="midnightblue" points="329.935,-148.095 332.642,-137.852 324.138,-144.171 329.935,-148.095"/>
</g>
<!-- Node17 -->
<g id="node39" class="node"><title>Node17</title>
<polygon fill="white" stroke="#bfbfbf" points="581.488,-116.5 581.488,-137.5 616.488,-137.5 616.488,-116.5 581.488,-116.5"/>
<text text-anchor="middle" x="598.988" y="-124.5" font-family="Helvetica,sans-Serif" font-size="10.00">map</text>
</g>
<!-- Node1&#45;&gt;Node17 -->
<g id="edge44" class="edge"><title>Node1&#45;&gt;Node17</title>
<path fill="none" stroke="midnightblue" d="M365.262,-182.585C419.569,-174.273 496.973,-160.378 571.696,-137.991"/>
<polygon fill="midnightblue" stroke="midnightblue" points="572.723,-141.337 581.266,-135.072 570.68,-134.642 572.723,-141.337"/>
</g>
<!-- Node3 -->
<g id="node5" class="node"><title>Node3</title>
<a xlink:href="printable_8h.html" target="_top" xlink:title="base/printable.h">
<polygon fill="white" stroke="black" points="473.988,-58.5 473.988,-79.5 559.988,-79.5 559.988,-58.5 473.988,-58.5"/>
<text text-anchor="middle" x="516.988" y="-66.5" font-family="Helvetica,sans-Serif" font-size="10.00">base/printable.h</text>
</a>
</g>
<!-- Node2&#45;&gt;Node3 -->
<g id="edge4" class="edge"><title>Node2&#45;&gt;Node3</title>
<path fill="none" stroke="midnightblue" d="M516.988,-116.362C516.988,-108.922 516.988,-98.7427 516.988,-89.7276"/>
<polygon fill="midnightblue" stroke="midnightblue" points="520.488,-89.5706 516.988,-79.5707 513.488,-89.5707 520.488,-89.5706"/>
</g>
<!-- Node4 -->
<g id="node7" class="node"><title>Node4</title>
<polygon fill="white" stroke="#bfbfbf" points="423.988,-0.5 423.988,-21.5 467.988,-21.5 467.988,-0.5 423.988,-0.5"/>
<text text-anchor="middle" x="445.988" y="-8.5" font-family="Helvetica,sans-Serif" font-size="10.00">vector</text>
</g>
<!-- Node2&#45;&gt;Node4 -->
<g id="edge20" class="edge"><title>Node2&#45;&gt;Node4</title>
<path fill="none" stroke="midnightblue" d="M501.117,-116.45C489.485,-107.924 474.181,-94.918 464.988,-80 455.846,-65.1646 451.018,-45.8747 448.521,-31.4637"/>
<polygon fill="midnightblue" stroke="midnightblue" points="451.979,-30.9191 447.034,-21.5492 445.057,-31.9579 451.979,-30.9191"/>
</g>
<!-- Node6 -->
<g id="node11" class="node"><title>Node6</title>
<polygon fill="white" stroke="#bfbfbf" points="577.488,-58.5 577.488,-79.5 642.488,-79.5 642.488,-58.5 577.488,-58.5"/>
<text text-anchor="middle" x="609.988" y="-66.5" font-family="Helvetica,sans-Serif" font-size="10.00">TVector3.h</text>
</g>
<!-- Node2&#45;&gt;Node6 -->
<g id="edge10" class="edge"><title>Node2&#45;&gt;Node6</title>
<path fill="none" stroke="midnightblue" d="M534.046,-116.362C548.073,-107.614 568.173,-95.0786 584.17,-85.1015"/>
<polygon fill="midnightblue" stroke="midnightblue" points="586.406,-87.8323 593.039,-79.5707 582.701,-81.8927 586.406,-87.8323"/>
</g>
<!-- Node7 -->
<g id="node13" class="node"><title>Node7</title>
<polygon fill="white" stroke="#bfbfbf" points="659.988,-58.5 659.988,-79.5 705.988,-79.5 705.988,-58.5 659.988,-58.5"/>
<text text-anchor="middle" x="682.988" y="-66.5" font-family="Helvetica,sans-Serif" font-size="10.00">cstdint</text>
</g>
<!-- Node2&#45;&gt;Node7 -->
<g id="edge12" class="edge"><title>Node2&#45;&gt;Node7</title>
<path fill="none" stroke="midnightblue" d="M547.05,-116.497C576.177,-106.319 620.234,-90.9261 650.24,-80.4423"/>
<polygon fill="midnightblue" stroke="midnightblue" points="651.549,-83.6923 659.835,-77.0897 649.24,-77.0841 651.549,-83.6923"/>
</g>
<!-- Node8 -->
<g id="node15" class="node"><title>Node8</title>
<polygon fill="white" stroke="#bfbfbf" points="723.488,-58.5 723.488,-79.5 782.488,-79.5 782.488,-58.5 723.488,-58.5"/>
<text text-anchor="middle" x="752.988" y="-66.5" font-family="Helvetica,sans-Serif" font-size="10.00">stdexcept</text>
</g>
<!-- Node2&#45;&gt;Node8 -->
<g id="edge14" class="edge"><title>Node2&#45;&gt;Node8</title>
<path fill="none" stroke="midnightblue" d="M564.356,-116.438C602.37,-107.808 657.324,-94.9889 713.413,-80.3441"/>
<polygon fill="midnightblue" stroke="midnightblue" points="714.373,-83.7106 723.156,-77.7845 712.594,-76.9404 714.373,-83.7106"/>
</g>
<!-- Node9 -->
<g id="node17" class="node"><title>Node9</title>
<polygon fill="white" stroke="#bfbfbf" points="799.488,-58.5 799.488,-79.5 840.488,-79.5 840.488,-58.5 799.488,-58.5"/>
<text text-anchor="middle" x="819.988" y="-66.5" font-family="Helvetica,sans-Serif" font-size="10.00">string</text>
</g>
<!-- Node2&#45;&gt;Node9 -->
<g id="edge16" class="edge"><title>Node2&#45;&gt;Node9</title>
<path fill="none" stroke="midnightblue" d="M564.629,-117.54C567.455,-117.011 570.258,-116.493 572.988,-116 666.509,-99.097 694.383,-105.114 789.511,-80.0452"/>
<polygon fill="midnightblue" stroke="midnightblue" points="790.49,-83.4063 799.242,-77.4355 788.677,-76.6451 790.49,-83.4063"/>
</g>
<!-- Node10 -->
<g id="node19" class="node"><title>Node10</title>
<polygon fill="white" stroke="#bfbfbf" points="355.988,-58.5 355.988,-79.5 417.988,-79.5 417.988,-58.5 355.988,-58.5"/>
<text text-anchor="middle" x="386.988" y="-66.5" font-family="Helvetica,sans-Serif" font-size="10.00">type_traits</text>
</g>
<!-- Node2&#45;&gt;Node10 -->
<g id="edge18" class="edge"><title>Node2&#45;&gt;Node10</title>
<path fill="none" stroke="midnightblue" d="M493.446,-116.497C472.959,-107.356 443.041,-94.0082 420.134,-83.7883"/>
<polygon fill="midnightblue" stroke="midnightblue" points="421.353,-80.4994 410.794,-79.6212 418.501,-86.892 421.353,-80.4994"/>
</g>
<!-- Node3&#45;&gt;Node4 -->
<g id="edge6" class="edge"><title>Node3&#45;&gt;Node4</title>
<path fill="none" stroke="midnightblue" d="M503.966,-58.3619C493.557,-49.859 478.769,-37.7785 466.733,-27.9466"/>
<polygon fill="midnightblue" stroke="midnightblue" points="468.887,-25.1866 458.928,-21.5707 464.458,-30.6077 468.887,-25.1866"/>
</g>
<!-- Node5 -->
<g id="node9" class="node"><title>Node5</title>
<polygon fill="white" stroke="#bfbfbf" points="490.988,-0.5 490.988,-21.5 542.988,-21.5 542.988,-0.5 490.988,-0.5"/>
<text text-anchor="middle" x="516.988" y="-8.5" font-family="Helvetica,sans-Serif" font-size="10.00">ostream</text>
</g>
<!-- Node3&#45;&gt;Node5 -->
<g id="edge8" class="edge"><title>Node3&#45;&gt;Node5</title>
<path fill="none" stroke="midnightblue" d="M516.988,-58.3619C516.988,-50.9219 516.988,-40.7427 516.988,-31.7276"/>
<polygon fill="midnightblue" stroke="midnightblue" points="520.488,-31.5706 516.988,-21.5707 513.488,-31.5707 520.488,-31.5706"/>
</g>
<!-- Node12 -->
<g id="node24" class="node"><title>Node12</title>
<a xlink:href="memory_8h.html" target="_top" xlink:title="base/std_ext/memory.h">
<polygon fill="white" stroke="black" points="105.488,-58.5 105.488,-79.5 224.488,-79.5 224.488,-58.5 105.488,-58.5"/>
<text text-anchor="middle" x="164.988" y="-66.5" font-family="Helvetica,sans-Serif" font-size="10.00">base/std_ext/memory.h</text>
</a>
</g>
<!-- Node11&#45;&gt;Node12 -->
<g id="edge24" class="edge"><title>Node11&#45;&gt;Node12</title>
<path fill="none" stroke="midnightblue" d="M120.076,-116.362C127.829,-108.186 138.719,-96.7025 147.833,-87.0907"/>
<polygon fill="midnightblue" stroke="midnightblue" points="150.623,-89.2352 154.964,-79.5707 145.544,-84.4186 150.623,-89.2352"/>
</g>
<!-- Node11&#45;&gt;Node13 -->
<g id="edge30" class="edge"><title>Node11&#45;&gt;Node13</title>
<path fill="none" stroke="midnightblue" d="M64.272,-116.437C44.9704,-109.473 24.3659,-98.1559 12.9882,-80 0.611752,-60.2504 22.2197,-40.2942 42.6803,-26.9598"/>
<polygon fill="midnightblue" stroke="midnightblue" points="44.5939,-29.8919 51.2765,-21.6703 40.9254,-23.9301 44.5939,-29.8919"/>
</g>
<!-- Node15 -->
<g id="node31" class="node"><title>Node15</title>
<polygon fill="white" stroke="#bfbfbf" points="21.4882,-58.5 21.4882,-79.5 88.4882,-79.5 88.4882,-58.5 21.4882,-58.5"/>
<text text-anchor="middle" x="54.9882" y="-66.5" font-family="Helvetica,sans-Serif" font-size="10.00">forward_list</text>
</g>
<!-- Node11&#45;&gt;Node15 -->
<g id="edge32" class="edge"><title>Node11&#45;&gt;Node15</title>
<path fill="none" stroke="midnightblue" d="M99.9003,-116.362C92.1474,-108.186 81.2578,-96.7025 72.1431,-87.0907"/>
<polygon fill="midnightblue" stroke="midnightblue" points="74.4327,-84.4186 65.0121,-79.5707 69.3533,-89.2352 74.4327,-84.4186"/>
</g>
<!-- Node12&#45;&gt;Node13 -->
<g id="edge26" class="edge"><title>Node12&#45;&gt;Node13</title>
<path fill="none" stroke="midnightblue" d="M147.931,-58.3619C133.903,-49.6138 113.804,-37.0786 97.806,-27.1015"/>
<polygon fill="midnightblue" stroke="midnightblue" points="99.2749,-23.8927 88.9377,-21.5707 95.5707,-29.8323 99.2749,-23.8927"/>
</g>
<!-- Node12&#45;&gt;Node14 -->
<g id="edge28" class="edge"><title>Node12&#45;&gt;Node14</title>
<path fill="none" stroke="midnightblue" d="M172.875,-58.3619C178.815,-50.3496 187.111,-39.1605 194.147,-29.6696"/>
<polygon fill="midnightblue" stroke="midnightblue" points="197.007,-31.6883 200.151,-21.5707 191.384,-27.5193 197.007,-31.6883"/>
</g>
<!-- Node16&#45;&gt;Node4 -->
<g id="edge36" class="edge"><title>Node16&#45;&gt;Node4</title>
<path fill="none" stroke="midnightblue" d="M338.033,-116.07C336.045,-101.436 334.773,-75.3169 346.988,-58 362.585,-35.8888 391.407,-23.8395 413.945,-17.4966"/>
<polygon fill="midnightblue" stroke="midnightblue" points="414.974,-20.8461 423.789,-14.9682 413.233,-14.0662 414.974,-20.8461"/>
</g>
<!-- Node16&#45;&gt;Node10 -->
<g id="edge40" class="edge"><title>Node16&#45;&gt;Node10</title>
<path fill="none" stroke="midnightblue" d="M348.609,-116.362C355.168,-108.268 364.354,-96.9318 372.094,-87.3796"/>
<polygon fill="midnightblue" stroke="midnightblue" points="374.846,-89.5436 378.422,-79.5707 369.407,-85.1364 374.846,-89.5436"/>
</g>
<!-- Node16&#45;&gt;Node13 -->
<g id="edge38" class="edge"><title>Node16&#45;&gt;Node13</title>
<path fill="none" stroke="midnightblue" d="M326.539,-116.489C306.952,-101.622 268.979,-74.4361 232.988,-58 191.822,-39.2003 141.298,-25.9041 107.952,-18.3582"/>
<polygon fill="midnightblue" stroke="midnightblue" points="108.704,-14.9399 98.1845,-16.2013 107.195,-21.7753 108.704,-14.9399"/>
</g>
</g>
</svg>
