<?xml version="1.0" encoding="UTF-8" standalone="no"?>
<!DOCTYPE svg PUBLIC "-//W3C//DTD SVG 1.1//EN"
 "http://www.w3.org/Graphics/SVG/1.1/DTD/svg11.dtd">
<!-- Generated by graphviz version 2.26.3 (20100126.1600)
 -->
<!-- Title: src/analysis/physics/misc/RecoCheck.h Pages: 1 -->
<svg width="344pt" height="218pt"
 viewBox="0.00 0.00 344.00 218.00" xmlns="http://www.w3.org/2000/svg" xmlns:xlink="http://www.w3.org/1999/xlink">
<g id="graph1" class="graph" transform="scale(1 1) rotate(0) translate(4 214)">
<title>src/analysis/physics/misc/RecoCheck.h</title>
<polygon fill="white" stroke="white" points="-4,5 -4,-214 341,-214 341,5 -4,5"/>
<!-- Node1 -->
<g id="node1" class="node"><title>Node1</title>
<polygon fill="#bfbfbf" stroke="black" points="80,-175 80,-209 186,-209 186,-175 80,-175"/>
<text text-anchor="start" x="88" y="-196" font-family="Helvetica,sans-Serif" font-size="10.00">src/analysis/physics</text>
<text text-anchor="middle" x="133" y="-183" font-family="Helvetica,sans-Serif" font-size="10.00">/misc/RecoCheck.h</text>
</g>
<!-- Node2 -->
<g id="node3" class="node"><title>Node2</title>
<polygon fill="white" stroke="#bfbfbf" points="48.5,-116.5 48.5,-137.5 123.5,-137.5 123.5,-116.5 48.5,-116.5"/>
<text text-anchor="middle" x="86" y="-124.5" font-family="Helvetica,sans-Serif" font-size="10.00">AntPhysics.h</text>
</g>
<!-- Node1&#45;&gt;Node2 -->
<g id="edge2" class="edge"><title>Node1&#45;&gt;Node2</title>
<path fill="none" stroke="midnightblue" d="M120.651,-174.922C114.221,-166.029 106.34,-155.13 99.7195,-145.974"/>
<polygon fill="midnightblue" stroke="midnightblue" points="102.543,-143.905 93.8469,-137.852 96.8702,-148.006 102.543,-143.905"/>
</g>
<!-- Node3 -->
<g id="node5" class="node"><title>Node3</title>
<a xlink:href="interval_8h.html" target="_top" xlink:title="base/interval.h">
<polygon fill="white" stroke="black" points="141,-116.5 141,-137.5 221,-137.5 221,-116.5 141,-116.5"/>
<text text-anchor="middle" x="181" y="-124.5" font-family="Helvetica,sans-Serif" font-size="10.00">base/interval.h</text>
</a>
</g>
<!-- Node1&#45;&gt;Node3 -->
<g id="edge4" class="edge"><title>Node1&#45;&gt;Node3</title>
<path fill="none" stroke="midnightblue" d="M145.611,-174.922C152.179,-166.029 160.227,-155.13 166.989,-145.974"/>
<polygon fill="midnightblue" stroke="midnightblue" points="169.861,-147.976 172.986,-137.852 164.23,-143.817 169.861,-147.976"/>
</g>
<!-- Node4 -->
<g id="node7" class="node"><title>Node4</title>
<polygon fill="white" stroke="#bfbfbf" points="0,-58.5 0,-79.5 56,-79.5 56,-58.5 0,-58.5"/>
<text text-anchor="middle" x="28" y="-66.5" font-family="Helvetica,sans-Serif" font-size="10.00">algorithm</text>
</g>
<!-- Node3&#45;&gt;Node4 -->
<g id="edge6" class="edge"><title>Node3&#45;&gt;Node4</title>
<path fill="none" stroke="midnightblue" d="M153.293,-116.497C128.674,-107.164 92.4833,-93.4447 65.3201,-83.1475"/>
<polygon fill="midnightblue" stroke="midnightblue" points="66.3505,-79.7951 55.7591,-79.5231 63.8691,-86.3406 66.3505,-79.7951"/>
</g>
<!-- Node5 -->
<g id="node9" class="node"><title>Node5</title>
<polygon fill="white" stroke="#bfbfbf" points="73.5,-58.5 73.5,-79.5 132.5,-79.5 132.5,-58.5 73.5,-58.5"/>
<text text-anchor="middle" x="103" y="-66.5" font-family="Helvetica,sans-Serif" font-size="10.00">stdexcept</text>
</g>
<!-- Node3&#45;&gt;Node5 -->
<g id="edge8" class="edge"><title>Node3&#45;&gt;Node5</title>
<path fill="none" stroke="midnightblue" d="M166.694,-116.362C155.149,-107.777 138.7,-95.5459 125.41,-85.6636"/>
<polygon fill="midnightblue" stroke="midnightblue" points="127.329,-82.7291 117.216,-79.5707 123.152,-88.3463 127.329,-82.7291"/>
</g>
<!-- Node6 -->
<g id="node11" class="node"><title>Node6</title>
<a xlink:href="printable_8h.html" target="_top" xlink:title="printable.h">
<polygon fill="white" stroke="black" points="150,-58.5 150,-79.5 212,-79.5 212,-58.5 150,-58.5"/>
<text text-anchor="middle" x="181" y="-66.5" font-family="Helvetica,sans-Serif" font-size="10.00">printable.h</text>
</a>
</g>
<!-- Node3&#45;&gt;Node6 -->
<g id="edge10" class="edge"><title>Node3&#45;&gt;Node6</title>
<path fill="none" stroke="midnightblue" d="M181,-116.362C181,-108.922 181,-98.7427 181,-89.7276"/>
<polygon fill="midnightblue" stroke="midnightblue" points="184.5,-89.5706 181,-79.5707 177.5,-89.5707 184.5,-89.5706"/>
</g>
<!-- Node9 -->
<g id="node17" class="node"><title>Node9</title>
<a xlink:href="types_8h.html" target="_top" xlink:title="types.h">
<polygon fill="white" stroke="black" points="229.5,-58.5 229.5,-79.5 278.5,-79.5 278.5,-58.5 229.5,-58.5"/>
<text text-anchor="middle" x="254" y="-66.5" font-family="Helvetica,sans-Serif" font-size="10.00">types.h</text>
</a>
</g>
<!-- Node3&#45;&gt;Node9 -->
<g id="edge16" class="edge"><title>Node3&#45;&gt;Node9</title>
<path fill="none" stroke="midnightblue" d="M194.389,-116.362C205.091,-107.859 220.296,-95.7785 232.671,-85.9466"/>
<polygon fill="midnightblue" stroke="midnightblue" points="235.043,-88.5318 240.696,-79.5707 230.689,-83.0511 235.043,-88.5318"/>
</g>
<!-- Node10 -->
<g id="node19" class="node"><title>Node10</title>
<polygon fill="white" stroke="#bfbfbf" points="296,-58.5 296,-79.5 336,-79.5 336,-58.5 296,-58.5"/>
<text text-anchor="middle" x="316" y="-66.5" font-family="Helvetica,sans-Serif" font-size="10.00">limits</text>
</g>
<!-- Node3&#45;&gt;Node10 -->
<g id="edge18" class="edge"><title>Node3&#45;&gt;Node10</title>
<path fill="none" stroke="midnightblue" d="M205.447,-116.497C228.153,-106.742 262.014,-92.194 286.274,-81.7713"/>
<polygon fill="midnightblue" stroke="midnightblue" points="287.894,-84.8847 295.7,-77.7214 285.131,-78.4531 287.894,-84.8847"/>
</g>
<!-- Node7 -->
<g id="node13" class="node"><title>Node7</title>
<polygon fill="white" stroke="#bfbfbf" points="126,-0.5 126,-21.5 170,-21.5 170,-0.5 126,-0.5"/>
<text text-anchor="middle" x="148" y="-8.5" font-family="Helvetica,sans-Serif" font-size="10.00">vector</text>
</g>
<!-- Node6&#45;&gt;Node7 -->
<g id="edge12" class="edge"><title>Node6&#45;&gt;Node7</title>
<path fill="none" stroke="midnightblue" d="M174.947,-58.3619C170.528,-50.5949 164.41,-39.8426 159.121,-30.5458"/>
<polygon fill="midnightblue" stroke="midnightblue" points="162.002,-28.5315 154.014,-21.5707 155.918,-31.9932 162.002,-28.5315"/>
</g>
<!-- Node8 -->
<g id="node15" class="node"><title>Node8</title>
<polygon fill="white" stroke="#bfbfbf" points="188,-0.5 188,-21.5 240,-21.5 240,-0.5 188,-0.5"/>
<text text-anchor="middle" x="214" y="-8.5" font-family="Helvetica,sans-Serif" font-size="10.00">ostream</text>
</g>
<!-- Node6&#45;&gt;Node8 -->
<g id="edge14" class="edge"><title>Node6&#45;&gt;Node8</title>
<path fill="none" stroke="midnightblue" d="M187.053,-58.3619C191.472,-50.5949 197.59,-39.8426 202.879,-30.5458"/>
<polygon fill="midnightblue" stroke="midnightblue" points="206.082,-31.9932 207.986,-21.5707 199.998,-28.5315 206.082,-31.9932"/>
</g>
</g>
</svg>
