<?xml version="1.0" encoding="UTF-8" standalone="no"?>
<!DOCTYPE svg PUBLIC "-//W3C//DTD SVG 1.1//EN"
 "http://www.w3.org/Graphics/SVG/1.1/DTD/svg11.dtd">
<!-- Generated by graphviz version 2.26.3 (20100126.1600)
 -->
<!-- Title: src/reconstruct/Reconstruct.h Pages: 1 -->
<svg width="1003pt" height="262pt"
 viewBox="0.00 0.00 1003.00 262.00" xmlns="http://www.w3.org/2000/svg" xmlns:xlink="http://www.w3.org/1999/xlink">
<g id="graph1" class="graph" transform="scale(1 1) rotate(0) translate(4 258)">
<title>src/reconstruct/Reconstruct.h</title>
<polygon fill="white" stroke="white" points="-4,5 -4,-258 1000,-258 1000,5 -4,5"/>
<!-- Node1 -->
<g id="node1" class="node"><title>Node1</title>
<polygon fill="#bfbfbf" stroke="black" points="849,-232.5 849,-253.5 995,-253.5 995,-232.5 849,-232.5"/>
<text text-anchor="middle" x="922" y="-240.5" font-family="Helvetica,sans-Serif" font-size="10.00">src/reconstruct/Reconstruct.h</text>
</g>
<!-- Node2 -->
<g id="node3" class="node"><title>Node2</title>
<polygon fill="white" stroke="#bfbfbf" points="600,-0.5 600,-21.5 652,-21.5 652,-0.5 600,-0.5"/>
<text text-anchor="middle" x="626" y="-8.5" font-family="Helvetica,sans-Serif" font-size="10.00">memory</text>
</g>
<!-- Node1&#45;&gt;Node2 -->
<g id="edge2" class="edge"><title>Node1&#45;&gt;Node2</title>
<path fill="none" stroke="midnightblue" d="M922.22,-232.259C922.249,-200.359 917.698,-105.45 865,-58 835.577,-31.5066 721.321,-18.6242 662.081,-13.6159"/>
<polygon fill="midnightblue" stroke="midnightblue" points="662.286,-10.1212 652.035,-12.7977 661.718,-17.0981 662.286,-10.1212"/>
</g>
<!-- Node3 -->
<g id="node5" class="node"><title>Node3</title>
<polygon fill="white" stroke="#bfbfbf" points="869.5,-0.5 869.5,-21.5 898.5,-21.5 898.5,-0.5 869.5,-0.5"/>
<text text-anchor="middle" x="884" y="-8.5" font-family="Helvetica,sans-Serif" font-size="10.00">list</text>
</g>
<!-- Node1&#45;&gt;Node3 -->
<g id="edge4" class="edge"><title>Node1&#45;&gt;Node3</title>
<path fill="none" stroke="midnightblue" d="M926.16,-232.385C936.955,-203.09 963.192,-119.23 936,-58 929.998,-44.4856 917.978,-33.2113 907.005,-25.0955"/>
<polygon fill="midnightblue" stroke="midnightblue" points="908.785,-22.0718 898.565,-19.2814 904.815,-27.8365 908.785,-22.0718"/>
</g>
<!-- Node4 -->
<g id="node7" class="node"><title>Node4</title>
<a xlink:href="_reconstruct__traits_8h.html" target="_top" xlink:title="Reconstruct_traits.h">
<polygon fill="white" stroke="black" points="535.5,-174.5 535.5,-195.5 640.5,-195.5 640.5,-174.5 535.5,-174.5"/>
<text text-anchor="middle" x="588" y="-182.5" font-family="Helvetica,sans-Serif" font-size="10.00">Reconstruct_traits.h</text>
</a>
</g>
<!-- Node1&#45;&gt;Node4 -->
<g id="edge6" class="edge"><title>Node1&#45;&gt;Node4</title>
<path fill="none" stroke="midnightblue" d="M861.515,-232.497C801.894,-222.143 711.188,-206.392 650.783,-195.902"/>
<polygon fill="midnightblue" stroke="midnightblue" points="651.067,-192.4 640.616,-194.137 649.87,-199.296 651.067,-192.4"/>
</g>
<!-- Node4&#45;&gt;Node2 -->
<g id="edge48" class="edge"><title>Node4&#45;&gt;Node2</title>
<path fill="none" stroke="midnightblue" d="M590.32,-174.377C596.48,-146.172 613.331,-69.0121 621.475,-31.7203"/>
<polygon fill="midnightblue" stroke="midnightblue" points="624.899,-32.4442 623.613,-21.9277 618.06,-30.9507 624.899,-32.4442"/>
</g>
<!-- Node4&#45;&gt;Node3 -->
<g id="edge52" class="edge"><title>Node4&#45;&gt;Node3</title>
<path fill="none" stroke="midnightblue" d="M640.622,-179.953C703.585,-171.015 807.669,-146.519 865,-80 876.506,-66.65 881.095,-46.9108 882.899,-31.961"/>
<polygon fill="midnightblue" stroke="midnightblue" points="886.416,-31.9154 883.805,-21.6476 879.443,-31.3031 886.416,-31.9154"/>
</g>
<!-- Node5 -->
<g id="node9" class="node"><title>Node5</title>
<a xlink:href="_detector__t_8h.html" target="_top" xlink:title="base/Detector_t.h">
<polygon fill="white" stroke="black" points="230.5,-116.5 230.5,-137.5 325.5,-137.5 325.5,-116.5 230.5,-116.5"/>
<text text-anchor="middle" x="278" y="-124.5" font-family="Helvetica,sans-Serif" font-size="10.00">base/Detector_t.h</text>
</a>
</g>
<!-- Node4&#45;&gt;Node5 -->
<g id="edge8" class="edge"><title>Node4&#45;&gt;Node5</title>
<path fill="none" stroke="midnightblue" d="M535.413,-175.161C480.007,-164.795 393,-148.516 335.729,-137.801"/>
<polygon fill="midnightblue" stroke="midnightblue" points="336.221,-134.332 325.748,-135.933 334.933,-141.213 336.221,-134.332"/>
</g>
<!-- Node14 -->
<g id="node28" class="node"><title>Node14</title>
<a xlink:href="_memory_pool_8h.html" target="_top" xlink:title="tree/MemoryPool.h">
<polygon fill="white" stroke="black" points="626.5,-116.5 626.5,-137.5 725.5,-137.5 725.5,-116.5 626.5,-116.5"/>
<text text-anchor="middle" x="676" y="-124.5" font-family="Helvetica,sans-Serif" font-size="10.00">tree/MemoryPool.h</text>
</a>
</g>
<!-- Node4&#45;&gt;Node14 -->
<g id="edge28" class="edge"><title>Node4&#45;&gt;Node14</title>
<path fill="none" stroke="midnightblue" d="M604.141,-174.362C617.414,-165.614 636.432,-153.079 651.57,-143.101"/>
<polygon fill="midnightblue" stroke="midnightblue" points="653.538,-145.996 659.962,-137.571 649.686,-140.151 653.538,-145.996"/>
</g>
<!-- Node17 -->
<g id="node37" class="node"><title>Node17</title>
<a xlink:href="mapped__vectors_8h.html" target="_top" xlink:title="base/mapped_vectors.h">
<polygon fill="white" stroke="black" points="439.5,-116.5 439.5,-137.5 560.5,-137.5 560.5,-116.5 439.5,-116.5"/>
<text text-anchor="middle" x="500" y="-124.5" font-family="Helvetica,sans-Serif" font-size="10.00">base/mapped_vectors.h</text>
</a>
</g>
<!-- Node4&#45;&gt;Node17 -->
<g id="edge40" class="edge"><title>Node4&#45;&gt;Node17</title>
<path fill="none" stroke="midnightblue" d="M571.859,-174.362C558.586,-165.614 539.568,-153.079 524.43,-143.101"/>
<polygon fill="midnightblue" stroke="midnightblue" points="526.314,-140.151 516.038,-137.571 522.462,-145.996 526.314,-140.151"/>
</g>
<!-- Node18 -->
<g id="node43" class="node"><title>Node18</title>
<polygon fill="white" stroke="#bfbfbf" points="387.5,-116.5 387.5,-137.5 422.5,-137.5 422.5,-116.5 387.5,-116.5"/>
<text text-anchor="middle" x="405" y="-124.5" font-family="Helvetica,sans-Serif" font-size="10.00">map</text>
</g>
<!-- Node4&#45;&gt;Node18 -->
<g id="edge50" class="edge"><title>Node4&#45;&gt;Node18</title>
<path fill="none" stroke="midnightblue" d="M548.578,-174.489C518.715,-166.239 476.547,-153.979 432.047,-138.151"/>
<polygon fill="midnightblue" stroke="midnightblue" points="433.113,-134.815 422.519,-134.719 430.741,-141.401 433.113,-134.815"/>
</g>
<!-- Node6 -->
<g id="node11" class="node"><title>Node6</title>
<a xlink:href="printable_8h.html" target="_top" xlink:title="base/printable.h">
<polygon fill="white" stroke="black" points="0,-58.5 0,-79.5 86,-79.5 86,-58.5 0,-58.5"/>
<text text-anchor="middle" x="43" y="-66.5" font-family="Helvetica,sans-Serif" font-size="10.00">base/printable.h</text>
</a>
</g>
<!-- Node5&#45;&gt;Node6 -->
<g id="edge10" class="edge"><title>Node5&#45;&gt;Node6</title>
<path fill="none" stroke="midnightblue" d="M235.443,-116.497C196.137,-106.795 137.627,-92.3547 95.4477,-81.9445"/>
<polygon fill="midnightblue" stroke="midnightblue" points="96.1839,-78.5213 85.6365,-79.5231 94.5065,-85.3174 96.1839,-78.5213"/>
</g>
<!-- Node7 -->
<g id="node13" class="node"><title>Node7</title>
<polygon fill="white" stroke="#bfbfbf" points="232,-0.5 232,-21.5 276,-21.5 276,-0.5 232,-0.5"/>
<text text-anchor="middle" x="254" y="-8.5" font-family="Helvetica,sans-Serif" font-size="10.00">vector</text>
</g>
<!-- Node5&#45;&gt;Node7 -->
<g id="edge26" class="edge"><title>Node5&#45;&gt;Node7</title>
<path fill="none" stroke="midnightblue" d="M275.785,-116.295C271.802,-97.0451 263.37,-56.2889 258.243,-31.5091"/>
<polygon fill="midnightblue" stroke="midnightblue" points="261.663,-30.7627 256.209,-21.6792 254.808,-32.181 261.663,-30.7627"/>
</g>
<!-- Node9 -->
<g id="node17" class="node"><title>Node9</title>
<polygon fill="white" stroke="#bfbfbf" points="339.5,-58.5 339.5,-79.5 404.5,-79.5 404.5,-58.5 339.5,-58.5"/>
<text text-anchor="middle" x="372" y="-66.5" font-family="Helvetica,sans-Serif" font-size="10.00">TVector3.h</text>
</g>
<!-- Node5&#45;&gt;Node9 -->
<g id="edge16" class="edge"><title>Node5&#45;&gt;Node9</title>
<path fill="none" stroke="midnightblue" d="M295.241,-116.362C309.552,-107.532 330.115,-94.844 346.357,-84.8224"/>
<polygon fill="midnightblue" stroke="midnightblue" points="348.196,-87.8004 354.868,-79.5707 344.52,-81.8431 348.196,-87.8004"/>
</g>
<!-- Node10 -->
<g id="node19" class="node"><title>Node10</title>
<polygon fill="white" stroke="#bfbfbf" points="104,-58.5 104,-79.5 150,-79.5 150,-58.5 104,-58.5"/>
<text text-anchor="middle" x="127" y="-66.5" font-family="Helvetica,sans-Serif" font-size="10.00">cstdint</text>
</g>
<!-- Node5&#45;&gt;Node10 -->
<g id="edge18" class="edge"><title>Node5&#45;&gt;Node10</title>
<path fill="none" stroke="midnightblue" d="M250.655,-116.497C225.071,-106.67 186.825,-91.9792 159.651,-81.5414"/>
<polygon fill="midnightblue" stroke="midnightblue" points="160.774,-78.2236 150.184,-77.9052 158.264,-84.7582 160.774,-78.2236"/>
</g>
<!-- Node11 -->
<g id="node21" class="node"><title>Node11</title>
<polygon fill="white" stroke="#bfbfbf" points="167.5,-58.5 167.5,-79.5 226.5,-79.5 226.5,-58.5 167.5,-58.5"/>
<text text-anchor="middle" x="197" y="-66.5" font-family="Helvetica,sans-Serif" font-size="10.00">stdexcept</text>
</g>
<!-- Node5&#45;&gt;Node11 -->
<g id="edge20" class="edge"><title>Node5&#45;&gt;Node11</title>
<path fill="none" stroke="midnightblue" d="M263.143,-116.362C251.154,-107.777 234.073,-95.5459 220.272,-85.6636"/>
<polygon fill="midnightblue" stroke="midnightblue" points="221.931,-82.5469 211.762,-79.5707 217.855,-88.2383 221.931,-82.5469"/>
</g>
<!-- Node12 -->
<g id="node23" class="node"><title>Node12</title>
<polygon fill="white" stroke="#bfbfbf" points="281.5,-58.5 281.5,-79.5 322.5,-79.5 322.5,-58.5 281.5,-58.5"/>
<text text-anchor="middle" x="302" y="-66.5" font-family="Helvetica,sans-Serif" font-size="10.00">string</text>
</g>
<!-- Node5&#45;&gt;Node12 -->
<g id="edge22" class="edge"><title>Node5&#45;&gt;Node12</title>
<path fill="none" stroke="midnightblue" d="M282.402,-116.362C285.582,-108.677 289.972,-98.0686 293.79,-88.8399"/>
<polygon fill="midnightblue" stroke="midnightblue" points="297.036,-90.1491 297.626,-79.5707 290.568,-87.4726 297.036,-90.1491"/>
</g>
<!-- Node13 -->
<g id="node25" class="node"><title>Node13</title>
<polygon fill="white" stroke="#bfbfbf" points="422,-58.5 422,-79.5 484,-79.5 484,-58.5 422,-58.5"/>
<text text-anchor="middle" x="453" y="-66.5" font-family="Helvetica,sans-Serif" font-size="10.00">type_traits</text>
</g>
<!-- Node5&#45;&gt;Node13 -->
<g id="edge24" class="edge"><title>Node5&#45;&gt;Node13</title>
<path fill="none" stroke="midnightblue" d="M309.691,-116.497C338.399,-106.982 380.861,-92.9088 412.117,-82.55"/>
<polygon fill="midnightblue" stroke="midnightblue" points="413.448,-85.7961 421.839,-79.3277 411.245,-79.1515 413.448,-85.7961"/>
</g>
<!-- Node6&#45;&gt;Node7 -->
<g id="edge12" class="edge"><title>Node6&#45;&gt;Node7</title>
<path fill="none" stroke="midnightblue" d="M81.2105,-58.4966C121.484,-47.4263 184.209,-30.1842 221.978,-19.8024"/>
<polygon fill="midnightblue" stroke="midnightblue" points="223.214,-23.0923 231.929,-17.0669 221.359,-16.3427 223.214,-23.0923"/>
</g>
<!-- Node8 -->
<g id="node15" class="node"><title>Node8</title>
<polygon fill="white" stroke="#bfbfbf" points="17,-0.5 17,-21.5 69,-21.5 69,-0.5 17,-0.5"/>
<text text-anchor="middle" x="43" y="-8.5" font-family="Helvetica,sans-Serif" font-size="10.00">ostream</text>
</g>
<!-- Node6&#45;&gt;Node8 -->
<g id="edge14" class="edge"><title>Node6&#45;&gt;Node8</title>
<path fill="none" stroke="midnightblue" d="M43,-58.3619C43,-50.9219 43,-40.7427 43,-31.7276"/>
<polygon fill="midnightblue" stroke="midnightblue" points="46.5001,-31.5706 43,-21.5707 39.5001,-31.5707 46.5001,-31.5706"/>
</g>
<!-- Node14&#45;&gt;Node2 -->
<g id="edge36" class="edge"><title>Node14&#45;&gt;Node2</title>
<path fill="none" stroke="midnightblue" d="M667.572,-116.367C660.659,-107.194 651.057,-93.3524 645,-80 637.952,-64.4647 632.999,-45.7463 629.921,-31.7275"/>
<polygon fill="midnightblue" stroke="midnightblue" points="633.29,-30.7345 627.85,-21.6429 626.433,-32.1426 633.29,-30.7345"/>
</g>
<!-- Node15 -->
<g id="node30" class="node"><title>Node15</title>
<a xlink:href="memory_8h.html" target="_top" xlink:title="base/std_ext/memory.h">
<polygon fill="white" stroke="black" points="737.5,-58.5 737.5,-79.5 856.5,-79.5 856.5,-58.5 737.5,-58.5"/>
<text text-anchor="middle" x="797" y="-66.5" font-family="Helvetica,sans-Serif" font-size="10.00">base/std_ext/memory.h</text>
</a>
</g>
<!-- Node14&#45;&gt;Node15 -->
<g id="edge30" class="edge"><title>Node14&#45;&gt;Node15</title>
<path fill="none" stroke="midnightblue" d="M697.912,-116.497C716.811,-107.438 744.331,-94.2462 765.576,-84.0628"/>
<polygon fill="midnightblue" stroke="midnightblue" points="767.337,-87.0999 774.842,-79.6212 764.311,-80.7876 767.337,-87.0999"/>
</g>
<!-- Node16 -->
<g id="node35" class="node"><title>Node16</title>
<polygon fill="white" stroke="#bfbfbf" points="653.5,-58.5 653.5,-79.5 720.5,-79.5 720.5,-58.5 653.5,-58.5"/>
<text text-anchor="middle" x="687" y="-66.5" font-family="Helvetica,sans-Serif" font-size="10.00">forward_list</text>
</g>
<!-- Node14&#45;&gt;Node16 -->
<g id="edge38" class="edge"><title>Node14&#45;&gt;Node16</title>
<path fill="none" stroke="midnightblue" d="M678.018,-116.362C679.444,-108.84 681.402,-98.5187 683.125,-89.4308"/>
<polygon fill="midnightblue" stroke="midnightblue" points="686.571,-90.0477 684.995,-79.5707 679.693,-88.7433 686.571,-90.0477"/>
</g>
<!-- Node15&#45;&gt;Node2 -->
<g id="edge32" class="edge"><title>Node15&#45;&gt;Node2</title>
<path fill="none" stroke="midnightblue" d="M766.033,-58.4966C736.679,-48.5403 692.607,-33.5918 661.767,-23.1316"/>
<polygon fill="midnightblue" stroke="midnightblue" points="662.849,-19.8028 652.255,-19.9052 660.601,-26.4319 662.849,-19.8028"/>
</g>
<!-- Node15&#45;&gt;Node3 -->
<g id="edge34" class="edge"><title>Node15&#45;&gt;Node3</title>
<path fill="none" stroke="midnightblue" d="M812.957,-58.3619C826.407,-49.3951 845.826,-36.4495 860.963,-26.3581"/>
<polygon fill="midnightblue" stroke="midnightblue" points="862.924,-29.2571 869.303,-20.7979 859.041,-23.4328 862.924,-29.2571"/>
</g>
<!-- Node17&#45;&gt;Node2 -->
<g id="edge44" class="edge"><title>Node17&#45;&gt;Node2</title>
<path fill="none" stroke="midnightblue" d="M511.233,-116.425C525.69,-102.837 551.614,-78.551 574,-58 584.645,-48.2275 596.603,-37.4081 606.366,-28.6159"/>
<polygon fill="midnightblue" stroke="midnightblue" points="608.878,-31.064 613.973,-21.7747 604.197,-25.8591 608.878,-31.064"/>
</g>
<!-- Node17&#45;&gt;Node7 -->
<g id="edge42" class="edge"><title>Node17&#45;&gt;Node7</title>
<path fill="none" stroke="midnightblue" d="M502.42,-116.352C505.154,-101.319 507.515,-73.9326 493,-58 465.721,-28.0561 345.426,-16.608 286.607,-12.7424"/>
<polygon fill="midnightblue" stroke="midnightblue" points="286.574,-9.23366 276.376,-12.1061 286.14,-16.2202 286.574,-9.23366"/>
</g>
<!-- Node17&#45;&gt;Node13 -->
<g id="edge46" class="edge"><title>Node17&#45;&gt;Node13</title>
<path fill="none" stroke="midnightblue" d="M491.379,-116.362C484.82,-108.268 475.634,-96.9318 467.894,-87.3796"/>
<polygon fill="midnightblue" stroke="midnightblue" points="470.581,-85.1364 461.566,-79.5707 465.142,-89.5436 470.581,-85.1364"/>
</g>
</g>
</svg>
