<?xml version="1.0" encoding="UTF-8" standalone="no"?>
<!DOCTYPE svg PUBLIC "-//W3C//DTD SVG 1.1//EN"
 "http://www.w3.org/Graphics/SVG/1.1/DTD/svg11.dtd">
<!-- Generated by graphviz version 2.26.3 (20100126.1600)
 -->
<!-- Title: src/reconstruct/Reconstruct.h Pages: 1 -->
<svg width="784pt" height="102pt"
 viewBox="0.00 0.00 784.00 102.00" xmlns="http://www.w3.org/2000/svg" xmlns:xlink="http://www.w3.org/1999/xlink">
<g id="graph1" class="graph" transform="scale(1 1) rotate(0) translate(4 98)">
<title>src/reconstruct/Reconstruct.h</title>
<polygon fill="white" stroke="white" points="-4,5 -4,-98 781,-98 781,5 -4,5"/>
<!-- Node1 -->
<g id="node1" class="node"><title>Node1</title>
<polygon fill="#bfbfbf" stroke="black" points="264,-72.5 264,-93.5 410,-93.5 410,-72.5 264,-72.5"/>
<text text-anchor="middle" x="337" y="-80.5" font-family="Helvetica,sans-Serif" font-size="10.00">src/reconstruct/Reconstruct.h</text>
</g>
<!-- Node2 -->
<g id="node3" class="node"><title>Node2</title>
<a xlink:href="_ant_8cc.html" target="_top" xlink:title="progs/Ant.cc">
<polygon fill="white" stroke="black" points="0,-7.5 0,-28.5 72,-28.5 72,-7.5 0,-7.5"/>
<text text-anchor="middle" x="36" y="-15.5" font-family="Helvetica,sans-Serif" font-size="10.00">progs/Ant.cc</text>
</a>
</g>
<!-- Node1&#45;&gt;Node2 -->
<g id="edge2" class="edge"><title>Node1&#45;&gt;Node2</title>
<path fill="none" stroke="midnightblue" d="M253.924,-72.0304C203.356,-64.3007 137.778,-52.3907 81,-36 74.0476,-33.993 66.6879,-31.3031 59.9792,-28.6155"/>
<polygon fill="midnightblue" stroke="midnightblue" points="253.421,-75.494 263.831,-73.5207 254.463,-68.5719 253.421,-75.494"/>
</g>
<!-- Node3 -->
<g id="node5" class="node"><title>Node3</title>
<a xlink:href="_reconstruct_8cc.html" target="_top" xlink:title="src/reconstruct/Reconstruct.cc">
<polygon fill="white" stroke="black" points="90,-7.5 90,-28.5 242,-28.5 242,-7.5 90,-7.5"/>
<text text-anchor="middle" x="166" y="-15.5" font-family="Helvetica,sans-Serif" font-size="10.00">src/reconstruct/Reconstruct.cc</text>
</a>
</g>
<!-- Node1&#45;&gt;Node3 -->
<g id="edge4" class="edge"><title>Node1&#45;&gt;Node3</title>
<path fill="none" stroke="midnightblue" d="M299.71,-68.8254C267.826,-56.7058 222.656,-39.5358 193.843,-28.5835"/>
<polygon fill="midnightblue" stroke="midnightblue" points="298.554,-72.1304 309.145,-72.412 301.041,-65.5871 298.554,-72.1304"/>
</g>
<!-- Node4 -->
<g id="node7" class="node"><title>Node4</title>
<a xlink:href="_test_ant_reader_8cc.html" target="_top" xlink:title="test/analysis/TestAntReader.cc">
<polygon fill="white" stroke="black" points="259.5,-7.5 259.5,-28.5 414.5,-28.5 414.5,-7.5 259.5,-7.5"/>
<text text-anchor="middle" x="337" y="-15.5" font-family="Helvetica,sans-Serif" font-size="10.00">test/analysis/TestAntReader.cc</text>
</a>
</g>
<!-- Node1&#45;&gt;Node4 -->
<g id="edge6" class="edge"><title>Node1&#45;&gt;Node4</title>
<path fill="none" stroke="midnightblue" d="M337,-62.0142C337,-50.8307 337,-37.5583 337,-28.5337"/>
<polygon fill="midnightblue" stroke="midnightblue" points="333.5,-62.2665 337,-72.2666 340.5,-62.2666 333.5,-62.2665"/>
</g>
<!-- Node5 -->
<g id="node9" class="node"><title>Node5</title>
<a xlink:href="_test_candidate_builder_8cc.html" target="_top" xlink:title="test/reconstruct/TestCandidate\lBuilder.cc">
<polygon fill="white" stroke="black" points="432,-1 432,-35 584,-35 584,-1 432,-1"/>
<text text-anchor="start" x="440" y="-22" font-family="Helvetica,sans-Serif" font-size="10.00">test/reconstruct/TestCandidate</text>
<text text-anchor="middle" x="508" y="-9" font-family="Helvetica,sans-Serif" font-size="10.00">Builder.cc</text>
</a>
</g>
<!-- Node1&#45;&gt;Node5 -->
<g id="edge8" class="edge"><title>Node1&#45;&gt;Node5</title>
<path fill="none" stroke="midnightblue" d="M374.395,-68.7857C400.508,-58.8595 435.497,-45.5597 463.118,-35.0604"/>
<polygon fill="midnightblue" stroke="midnightblue" points="372.959,-65.5871 364.855,-72.412 375.446,-72.1304 372.959,-65.5871"/>
</g>
<!-- Node6 -->
<g id="node11" class="node"><title>Node6</title>
<a xlink:href="_test_reconstruct_8cc.html" target="_top" xlink:title="test/reconstruct/TestReconstruct.cc">
<polygon fill="white" stroke="black" points="602,-7.5 602,-28.5 776,-28.5 776,-7.5 602,-7.5"/>
<text text-anchor="middle" x="689" y="-15.5" font-family="Helvetica,sans-Serif" font-size="10.00">test/reconstruct/TestReconstruct.cc</text>
</a>
</g>
<!-- Node1&#45;&gt;Node6 -->
<g id="edge10" class="edge"><title>Node1&#45;&gt;Node6</title>
<path fill="none" stroke="midnightblue" d="M404.741,-70.6351C456.352,-61.1971 529.168,-47.8438 593,-36 606.005,-33.587 619.997,-30.9735 633.167,-28.5055"/>
<polygon fill="midnightblue" stroke="midnightblue" points="403.918,-67.2275 394.711,-72.469 405.177,-74.1134 403.918,-67.2275"/>
</g>
</g>
</svg>
