<?xml version="1.0" encoding="UTF-8" standalone="no"?>
<!DOCTYPE svg PUBLIC "-//W3C//DTD SVG 1.1//EN"
 "http://www.w3.org/Graphics/SVG/1.1/DTD/svg11.dtd">
<!-- Generated by graphviz version 2.26.3 (20100126.1600)
 -->
<!-- Title: src/analysis/physics/misc/RecoCheck.cc Pages: 1 -->
<svg width="1494pt" height="392pt"
 viewBox="0.00 0.00 1494.00 392.00" xmlns="http://www.w3.org/2000/svg" xmlns:xlink="http://www.w3.org/1999/xlink">
<g id="graph1" class="graph" transform="scale(1 1) rotate(0) translate(4 388)">
<title>src/analysis/physics/misc/RecoCheck.cc</title>
<polygon fill="white" stroke="white" points="-4,5 -4,-388 1491,-388 1491,5 -4,5"/>
<!-- Node1 -->
<g id="node1" class="node"><title>Node1</title>
<polygon fill="#bfbfbf" stroke="black" points="261.5,-349 261.5,-383 370.5,-383 370.5,-349 261.5,-349"/>
<text text-anchor="start" x="269.5" y="-370" font-family="Helvetica,sans-Serif" font-size="10.00">src/analysis/physics</text>
<text text-anchor="middle" x="316" y="-357" font-family="Helvetica,sans-Serif" font-size="10.00">/misc/RecoCheck.cc</text>
</g>
<!-- Node2 -->
<g id="node3" class="node"><title>Node2</title>
<a xlink:href="_reco_check_8h.html" target="_top" xlink:title="RecoCheck.h">
<polygon fill="white" stroke="black" points="-0.5,-174.5 -0.5,-195.5 76.5,-195.5 76.5,-174.5 -0.5,-174.5"/>
<text text-anchor="middle" x="38" y="-182.5" font-family="Helvetica,sans-Serif" font-size="10.00">RecoCheck.h</text>
</a>
</g>
<!-- Node1&#45;&gt;Node2 -->
<g id="edge2" class="edge"><title>Node1&#45;&gt;Node2</title>
<path fill="none" stroke="midnightblue" d="M261.137,-354.876C228.494,-346.547 187.287,-332.923 155,-312 109.568,-282.559 70.0122,-231.458 50.65,-203.905"/>
<polygon fill="midnightblue" stroke="midnightblue" points="53.4347,-201.778 44.8785,-195.53 47.6706,-205.75 53.4347,-201.778"/>
</g>
<!-- Node12 -->
<g id="node23" class="node"><title>Node12</title>
<polygon fill="white" stroke="#bfbfbf" points="163.5,-290.5 163.5,-311.5 214.5,-311.5 214.5,-290.5 163.5,-290.5"/>
<text text-anchor="middle" x="189" y="-298.5" font-family="Helvetica,sans-Serif" font-size="10.00">TH1D.h</text>
</g>
<!-- Node1&#45;&gt;Node12 -->
<g id="edge22" class="edge"><title>Node1&#45;&gt;Node12</title>
<path fill="none" stroke="midnightblue" d="M282.632,-348.922C262.891,-338.818 238.092,-326.126 218.975,-316.342"/>
<polygon fill="midnightblue" stroke="midnightblue" points="220.321,-313.099 209.825,-311.658 217.132,-319.33 220.321,-313.099"/>
</g>
<!-- Node13 -->
<g id="node25" class="node"><title>Node13</title>
<a xlink:href="matcher_8h.html" target="_top" xlink:title="utils/matcher.h">
<polygon fill="white" stroke="black" points="201.5,-174.5 201.5,-195.5 282.5,-195.5 282.5,-174.5 201.5,-174.5"/>
<text text-anchor="middle" x="242" y="-182.5" font-family="Helvetica,sans-Serif" font-size="10.00">utils/matcher.h</text>
</a>
</g>
<!-- Node1&#45;&gt;Node13 -->
<g id="edge24" class="edge"><title>Node1&#45;&gt;Node13</title>
<path fill="none" stroke="midnightblue" d="M306.39,-348.99C294.501,-327.42 274.216,-288.837 261,-254 255.019,-238.233 250.039,-219.791 246.68,-205.941"/>
<polygon fill="midnightblue" stroke="midnightblue" points="250.031,-204.898 244.346,-195.958 243.215,-206.492 250.031,-204.898"/>
</g>
<!-- Node15 -->
<g id="node33" class="node"><title>Node15</title>
<polygon fill="white" stroke="#bfbfbf" points="270,-232.5 270,-253.5 362,-253.5 362,-232.5 270,-232.5"/>
<text text-anchor="middle" x="316" y="-240.5" font-family="Helvetica,sans-Serif" font-size="10.00">TLorentzVector.h</text>
</g>
<!-- Node1&#45;&gt;Node15 -->
<g id="edge36" class="edge"><title>Node1&#45;&gt;Node15</title>
<path fill="none" stroke="midnightblue" d="M316,-348.897C316,-326.673 316,-287.886 316,-263.929"/>
<polygon fill="midnightblue" stroke="midnightblue" points="319.5,-263.787 316,-253.787 312.5,-263.787 319.5,-263.787"/>
</g>
<!-- Node16 -->
<g id="node35" class="node"><title>Node16</title>
<a xlink:href="_particle_8h.html" target="_top" xlink:title="Particle.h">
<polygon fill="white" stroke="black" points="632,-290.5 632,-311.5 690,-311.5 690,-290.5 632,-290.5"/>
<text text-anchor="middle" x="661" y="-298.5" font-family="Helvetica,sans-Serif" font-size="10.00">Particle.h</text>
</a>
</g>
<!-- Node1&#45;&gt;Node16 -->
<g id="edge38" class="edge"><title>Node1&#45;&gt;Node16</title>
<path fill="none" stroke="midnightblue" d="M370.666,-355.701C440.535,-342.537 559.806,-320.066 621.476,-308.447"/>
<polygon fill="midnightblue" stroke="midnightblue" points="622.401,-311.834 631.58,-306.543 621.105,-304.955 622.401,-311.834"/>
</g>
<!-- Node30 -->
<g id="node82" class="node"><title>Node30</title>
<a xlink:href="root__draw_8h.html" target="_top" xlink:title="plot/root_draw.h">
<polygon fill="white" stroke="black" points="1087,-174.5 1087,-195.5 1173,-195.5 1173,-174.5 1087,-174.5"/>
<text text-anchor="middle" x="1130" y="-182.5" font-family="Helvetica,sans-Serif" font-size="10.00">plot/root_draw.h</text>
</a>
</g>
<!-- Node1&#45;&gt;Node30 -->
<g id="edge104" class="edge"><title>Node1&#45;&gt;Node30</title>
<path fill="none" stroke="midnightblue" d="M370.862,-360.639C481.399,-348.88 738.005,-316.733 945,-254 998.454,-237.8 1058.81,-214.269 1095.62,-199.303"/>
<polygon fill="midnightblue" stroke="midnightblue" points="1096.98,-202.531 1104.91,-195.507 1094.33,-196.052 1096.98,-202.531"/>
</g>
<!-- Node33 -->
<g id="node93" class="node"><title>Node33</title>
<a xlink:href="_histogram_8h.html" target="_top" xlink:title="plot/Histogram.h">
<polygon fill="white" stroke="black" points="1245.5,-174.5 1245.5,-195.5 1334.5,-195.5 1334.5,-174.5 1245.5,-174.5"/>
<text text-anchor="middle" x="1290" y="-182.5" font-family="Helvetica,sans-Serif" font-size="10.00">plot/Histogram.h</text>
</a>
</g>
<!-- Node1&#45;&gt;Node33 -->
<g id="edge120" class="edge"><title>Node1&#45;&gt;Node33</title>
<path fill="none" stroke="midnightblue" d="M370.828,-361.639C456.487,-354.341 627.064,-337.857 770,-312 946.947,-279.99 1153.48,-223.814 1243.79,-198.291"/>
<polygon fill="midnightblue" stroke="midnightblue" points="1244.78,-201.648 1253.44,-195.552 1242.87,-194.913 1244.78,-201.648"/>
</g>
<!-- Node3 -->
<g id="node5" class="node"><title>Node3</title>
<polygon fill="white" stroke="#bfbfbf" points="0.5,-116.5 0.5,-137.5 75.5,-137.5 75.5,-116.5 0.5,-116.5"/>
<text text-anchor="middle" x="38" y="-124.5" font-family="Helvetica,sans-Serif" font-size="10.00">AntPhysics.h</text>
</g>
<!-- Node2&#45;&gt;Node3 -->
<g id="edge4" class="edge"><title>Node2&#45;&gt;Node3</title>
<path fill="none" stroke="midnightblue" d="M38,-174.362C38,-166.922 38,-156.743 38,-147.728"/>
<polygon fill="midnightblue" stroke="midnightblue" points="41.5001,-147.571 38,-137.571 34.5001,-147.571 41.5001,-147.571"/>
</g>
<!-- Node4 -->
<g id="node7" class="node"><title>Node4</title>
<a xlink:href="interval_8h.html" target="_top" xlink:title="base/interval.h">
<polygon fill="white" stroke="black" points="270,-116.5 270,-137.5 350,-137.5 350,-116.5 270,-116.5"/>
<text text-anchor="middle" x="310" y="-124.5" font-family="Helvetica,sans-Serif" font-size="10.00">base/interval.h</text>
</a>
</g>
<!-- Node2&#45;&gt;Node4 -->
<g id="edge6" class="edge"><title>Node2&#45;&gt;Node4</title>
<path fill="none" stroke="midnightblue" d="M76.6821,-176.752C124.77,-166.498 206.947,-148.974 259.835,-137.697"/>
<polygon fill="midnightblue" stroke="midnightblue" points="260.628,-141.107 269.678,-135.598 259.168,-134.26 260.628,-141.107"/>
</g>
<!-- Node5 -->
<g id="node9" class="node"><title>Node5</title>
<polygon fill="white" stroke="#bfbfbf" points="170,-58.5 170,-79.5 226,-79.5 226,-58.5 170,-58.5"/>
<text text-anchor="middle" x="198" y="-66.5" font-family="Helvetica,sans-Serif" font-size="10.00">algorithm</text>
</g>
<!-- Node4&#45;&gt;Node5 -->
<g id="edge8" class="edge"><title>Node4&#45;&gt;Node5</title>
<path fill="none" stroke="midnightblue" d="M289.718,-116.497C272.382,-107.519 247.21,-94.4835 227.62,-84.3387"/>
<polygon fill="midnightblue" stroke="midnightblue" points="228.999,-81.1118 218.51,-79.6212 225.78,-87.3278 228.999,-81.1118"/>
</g>
<!-- Node6 -->
<g id="node11" class="node"><title>Node6</title>
<polygon fill="white" stroke="#bfbfbf" points="301.5,-58.5 301.5,-79.5 360.5,-79.5 360.5,-58.5 301.5,-58.5"/>
<text text-anchor="middle" x="331" y="-66.5" font-family="Helvetica,sans-Serif" font-size="10.00">stdexcept</text>
</g>
<!-- Node4&#45;&gt;Node6 -->
<g id="edge10" class="edge"><title>Node4&#45;&gt;Node6</title>
<path fill="none" stroke="midnightblue" d="M313.852,-116.362C316.605,-108.758 320.394,-98.294 323.71,-89.1349"/>
<polygon fill="midnightblue" stroke="midnightblue" points="327.059,-90.1649 327.173,-79.5707 320.477,-87.7818 327.059,-90.1649"/>
</g>
<!-- Node7 -->
<g id="node13" class="node"><title>Node7</title>
<a xlink:href="printable_8h.html" target="_top" xlink:title="printable.h">
<polygon fill="white" stroke="black" points="378,-58.5 378,-79.5 440,-79.5 440,-58.5 378,-58.5"/>
<text text-anchor="middle" x="409" y="-66.5" font-family="Helvetica,sans-Serif" font-size="10.00">printable.h</text>
</a>
</g>
<!-- Node4&#45;&gt;Node7 -->
<g id="edge12" class="edge"><title>Node4&#45;&gt;Node7</title>
<path fill="none" stroke="midnightblue" d="M328.158,-116.362C343.23,-107.532 364.887,-94.844 381.993,-84.8224"/>
<polygon fill="midnightblue" stroke="midnightblue" points="384.098,-87.6456 390.957,-79.5707 380.559,-81.6058 384.098,-87.6456"/>
</g>
<!-- Node10 -->
<g id="node19" class="node"><title>Node10</title>
<a xlink:href="types_8h.html" target="_top" xlink:title="types.h">
<polygon fill="white" stroke="black" points="721.5,-58.5 721.5,-79.5 770.5,-79.5 770.5,-58.5 721.5,-58.5"/>
<text text-anchor="middle" x="746" y="-66.5" font-family="Helvetica,sans-Serif" font-size="10.00">types.h</text>
</a>
</g>
<!-- Node4&#45;&gt;Node10 -->
<g id="edge18" class="edge"><title>Node4&#45;&gt;Node10</title>
<path fill="none" stroke="midnightblue" d="M350.013,-122.188C417.224,-114.029 557.023,-96.732 675,-80 686.819,-78.3237 699.724,-76.3635 711.251,-74.5658"/>
<polygon fill="midnightblue" stroke="midnightblue" points="712.044,-77.9842 721.379,-72.9734 710.957,-71.0691 712.044,-77.9842"/>
</g>
<!-- Node11 -->
<g id="node21" class="node"><title>Node11</title>
<polygon fill="white" stroke="#bfbfbf" points="244,-58.5 244,-79.5 284,-79.5 284,-58.5 244,-58.5"/>
<text text-anchor="middle" x="264" y="-66.5" font-family="Helvetica,sans-Serif" font-size="10.00">limits</text>
</g>
<!-- Node4&#45;&gt;Node11 -->
<g id="edge20" class="edge"><title>Node4&#45;&gt;Node11</title>
<path fill="none" stroke="midnightblue" d="M301.563,-116.362C295.208,-108.35 286.334,-97.1605 278.807,-87.6696"/>
<polygon fill="midnightblue" stroke="midnightblue" points="281.34,-85.2308 272.384,-79.5707 275.855,-89.5805 281.34,-85.2308"/>
</g>
<!-- Node8 -->
<g id="node15" class="node"><title>Node8</title>
<polygon fill="white" stroke="#bfbfbf" points="814,-0.5 814,-21.5 858,-21.5 858,-0.5 814,-0.5"/>
<text text-anchor="middle" x="836" y="-8.5" font-family="Helvetica,sans-Serif" font-size="10.00">vector</text>
</g>
<!-- Node7&#45;&gt;Node8 -->
<g id="edge14" class="edge"><title>Node7&#45;&gt;Node8</title>
<path fill="none" stroke="midnightblue" d="M440.339,-59.9116C443.254,-59.2087 446.173,-58.5571 449,-58 578.892,-32.3975 736.234,-18.4798 803.238,-13.3382"/>
<polygon fill="midnightblue" stroke="midnightblue" points="803.859,-16.8014 813.568,-12.5606 803.334,-9.82119 803.859,-16.8014"/>
</g>
<!-- Node9 -->
<g id="node17" class="node"><title>Node9</title>
<polygon fill="white" stroke="#bfbfbf" points="383,-0.5 383,-21.5 435,-21.5 435,-0.5 383,-0.5"/>
<text text-anchor="middle" x="409" y="-8.5" font-family="Helvetica,sans-Serif" font-size="10.00">ostream</text>
</g>
<!-- Node7&#45;&gt;Node9 -->
<g id="edge16" class="edge"><title>Node7&#45;&gt;Node9</title>
<path fill="none" stroke="midnightblue" d="M409,-58.3619C409,-50.9219 409,-40.7427 409,-31.7276"/>
<polygon fill="midnightblue" stroke="midnightblue" points="412.5,-31.5706 409,-21.5707 405.5,-31.5707 412.5,-31.5706"/>
</g>
<!-- Node13&#45;&gt;Node4 -->
<g id="edge32" class="edge"><title>Node13&#45;&gt;Node4</title>
<path fill="none" stroke="midnightblue" d="M254.472,-174.362C264.345,-165.941 278.333,-154.011 289.798,-144.231"/>
<polygon fill="midnightblue" stroke="midnightblue" points="292.27,-146.723 297.607,-137.571 287.727,-141.397 292.27,-146.723"/>
</g>
<!-- Node13&#45;&gt;Node5 -->
<g id="edge30" class="edge"><title>Node13&#45;&gt;Node5</title>
<path fill="none" stroke="midnightblue" d="M237.939,-174.295C230.605,-154.959 215.04,-113.923 205.653,-89.1767"/>
<polygon fill="midnightblue" stroke="midnightblue" points="208.87,-87.7879 202.051,-79.6792 202.325,-90.2705 208.87,-87.7879"/>
</g>
<!-- Node13&#45;&gt;Node8 -->
<g id="edge28" class="edge"><title>Node13&#45;&gt;Node8</title>
<path fill="none" stroke="midnightblue" d="M225.972,-174.228C193.451,-151.129 125.681,-95.8641 161,-58 183.188,-34.2137 672.404,-16.4003 803.775,-12.0335"/>
<polygon fill="midnightblue" stroke="midnightblue" points="804.109,-15.5246 813.988,-11.6973 803.878,-8.52834 804.109,-15.5246"/>
</g>
<!-- Node13&#45;&gt;Node11 -->
<g id="edge34" class="edge"><title>Node13&#45;&gt;Node11</title>
<path fill="none" stroke="midnightblue" d="M244.03,-174.295C247.681,-155.045 255.411,-114.289 260.11,-89.5091"/>
<polygon fill="midnightblue" stroke="midnightblue" points="263.55,-90.1563 261.975,-79.6792 256.673,-88.8519 263.55,-90.1563"/>
</g>
<!-- Node14 -->
<g id="node27" class="node"><title>Node14</title>
<polygon fill="white" stroke="#bfbfbf" points="739.5,-116.5 739.5,-137.5 768.5,-137.5 768.5,-116.5 739.5,-116.5"/>
<text text-anchor="middle" x="754" y="-124.5" font-family="Helvetica,sans-Serif" font-size="10.00">list</text>
</g>
<!-- Node13&#45;&gt;Node14 -->
<g id="edge26" class="edge"><title>Node13&#45;&gt;Node14</title>
<path fill="none" stroke="midnightblue" d="M282.552,-181.795C361.694,-175.314 542.186,-159.426 693,-138 704.949,-136.302 718.137,-133.981 729.184,-131.908"/>
<polygon fill="midnightblue" stroke="midnightblue" points="729.847,-135.345 739.009,-130.025 728.529,-128.47 729.847,-135.345"/>
</g>
<!-- Node16&#45;&gt;Node7 -->
<g id="edge40" class="edge"><title>Node16&#45;&gt;Node7</title>
<path fill="none" stroke="midnightblue" d="M631.937,-297.178C600.575,-291.869 550.379,-279.827 515,-254 463.798,-216.622 460.79,-194.479 432,-138 424.049,-122.401 417.963,-103.458 414.055,-89.3695"/>
<polygon fill="midnightblue" stroke="midnightblue" points="417.433,-88.4529 411.496,-79.6778 410.665,-90.24 417.433,-88.4529"/>
</g>
<!-- Node16&#45;&gt;Node8 -->
<g id="edge98" class="edge"><title>Node16&#45;&gt;Node8</title>
<path fill="none" stroke="midnightblue" d="M690.336,-295.184C715.357,-288.87 750.854,-276.523 774,-254 836.554,-193.128 839.157,-78.5782 837.344,-31.7477"/>
<polygon fill="midnightblue" stroke="midnightblue" points="840.832,-31.4254 836.836,-21.6131 833.841,-31.7756 840.832,-31.4254"/>
</g>
<!-- Node16&#45;&gt;Node10 -->
<g id="edge42" class="edge"><title>Node16&#45;&gt;Node10</title>
<path fill="none" stroke="midnightblue" d="M690.344,-292.936C710.737,-285.87 737.023,-273.603 753,-254 792.33,-205.743 794.893,-175.627 777,-116 773.946,-105.824 767.898,-95.8172 761.948,-87.6697"/>
<polygon fill="midnightblue" stroke="midnightblue" points="764.59,-85.3662 755.677,-79.6387 759.073,-89.6745 764.59,-85.3662"/>
</g>
<!-- Node16&#45;&gt;Node14 -->
<g id="edge100" class="edge"><title>Node16&#45;&gt;Node14</title>
<path fill="none" stroke="midnightblue" d="M688.556,-290.454C704.713,-282.81 724.045,-270.84 735,-254 756.167,-221.459 757.33,-174.43 755.908,-147.677"/>
<polygon fill="midnightblue" stroke="midnightblue" points="759.389,-147.281 755.192,-137.554 752.407,-147.776 759.389,-147.281"/>
</g>
<!-- Node16&#45;&gt;Node15 -->
<g id="edge96" class="edge"><title>Node16&#45;&gt;Node15</title>
<path fill="none" stroke="midnightblue" d="M631.841,-296.368C580.217,-288.127 469.374,-270.257 376,-254 374.738,-253.78 373.462,-253.557 372.175,-253.33"/>
<polygon fill="midnightblue" stroke="midnightblue" points="372.631,-249.857 362.173,-251.551 371.405,-256.749 372.631,-249.857"/>
</g>
<!-- Node17 -->
<g id="node39" class="node"><title>Node17</title>
<a xlink:href="_particle_type_8h.html" target="_top" xlink:title="base/ParticleType.h">
<polygon fill="white" stroke="black" points="900,-116.5 900,-137.5 1004,-137.5 1004,-116.5 900,-116.5"/>
<text text-anchor="middle" x="952" y="-124.5" font-family="Helvetica,sans-Serif" font-size="10.00">base/ParticleType.h</text>
</a>
</g>
<!-- Node16&#45;&gt;Node17 -->
<g id="edge44" class="edge"><title>Node16&#45;&gt;Node17</title>
<path fill="none" stroke="midnightblue" d="M690.283,-299.754C751.667,-296.53 890.885,-285.811 924,-254 952.893,-226.245 955.184,-175.949 953.87,-147.696"/>
<polygon fill="midnightblue" stroke="midnightblue" points="957.362,-147.461 953.21,-137.714 950.378,-147.923 957.362,-147.461"/>
</g>
<!-- Node21 -->
<g id="node50" class="node"><title>Node21</title>
<a xlink:href="_candidate_8h.html" target="_top" xlink:title="analysis/data/Candidate.h">
<polygon fill="white" stroke="black" points="596,-232.5 596,-253.5 726,-253.5 726,-232.5 596,-232.5"/>
<text text-anchor="middle" x="661" y="-240.5" font-family="Helvetica,sans-Serif" font-size="10.00">analysis/data/Candidate.h</text>
</a>
</g>
<!-- Node16&#45;&gt;Node21 -->
<g id="edge58" class="edge"><title>Node16&#45;&gt;Node21</title>
<path fill="none" stroke="midnightblue" d="M661,-290.362C661,-282.922 661,-272.743 661,-263.728"/>
<polygon fill="midnightblue" stroke="midnightblue" points="664.5,-263.571 661,-253.571 657.5,-263.571 664.5,-263.571"/>
</g>
<!-- Node29 -->
<g id="node80" class="node"><title>Node29</title>
<polygon fill="white" stroke="#bfbfbf" points="524,-232.5 524,-253.5 578,-253.5 578,-232.5 524,-232.5"/>
<text text-anchor="middle" x="551" y="-240.5" font-family="Helvetica,sans-Serif" font-size="10.00">iostream</text>
</g>
<!-- Node16&#45;&gt;Node29 -->
<g id="edge102" class="edge"><title>Node16&#45;&gt;Node29</title>
<path fill="none" stroke="midnightblue" d="M641.08,-290.497C624.054,-281.519 599.331,-268.484 580.091,-258.339"/>
<polygon fill="midnightblue" stroke="midnightblue" points="581.622,-255.189 571.144,-253.621 578.357,-261.381 581.622,-255.189"/>
</g>
<!-- Node17&#45;&gt;Node8 -->
<g id="edge56" class="edge"><title>Node17&#45;&gt;Node8</title>
<path fill="none" stroke="midnightblue" d="M956.657,-116.107C962.098,-101.516 968.938,-75.4446 957,-58 946.606,-42.8126 900.225,-27.8737 868.005,-19.0479"/>
<polygon fill="midnightblue" stroke="midnightblue" points="868.67,-15.6028 858.105,-16.4046 866.864,-22.3659 868.67,-15.6028"/>
</g>
<!-- Node17&#45;&gt;Node9 -->
<g id="edge50" class="edge"><title>Node17&#45;&gt;Node9</title>
<path fill="none" stroke="midnightblue" d="M930.745,-116.474C898.684,-101.074 835.665,-72.646 779,-58 659.388,-27.0844 512.55,-16.1445 445.506,-12.5772"/>
<polygon fill="midnightblue" stroke="midnightblue" points="445.612,-9.07821 435.448,-12.0661 445.257,-16.0692 445.612,-9.07821"/>
</g>
<!-- Node17&#45;&gt;Node10 -->
<g id="edge46" class="edge"><title>Node17&#45;&gt;Node10</title>
<path fill="none" stroke="midnightblue" d="M914.695,-116.497C876.542,-105.755 817.749,-89.2012 780.606,-78.7436"/>
<polygon fill="midnightblue" stroke="midnightblue" points="781.314,-75.3067 770.74,-75.9655 779.417,-82.0448 781.314,-75.3067"/>
</g>
<!-- Node18 -->
<g id="node42" class="node"><title>Node18</title>
<polygon fill="white" stroke="#bfbfbf" points="1043.5,-58.5 1043.5,-79.5 1084.5,-79.5 1084.5,-58.5 1043.5,-58.5"/>
<text text-anchor="middle" x="1064" y="-66.5" font-family="Helvetica,sans-Serif" font-size="10.00">string</text>
</g>
<!-- Node17&#45;&gt;Node18 -->
<g id="edge48" class="edge"><title>Node17&#45;&gt;Node18</title>
<path fill="none" stroke="midnightblue" d="M972.282,-116.497C989.618,-107.519 1014.79,-94.4835 1034.38,-84.3387"/>
<polygon fill="midnightblue" stroke="midnightblue" points="1036.22,-87.3278 1043.49,-79.6212 1033,-81.1118 1036.22,-87.3278"/>
</g>
<!-- Node19 -->
<g id="node45" class="node"><title>Node19</title>
<polygon fill="white" stroke="#bfbfbf" points="1202.5,-58.5 1202.5,-79.5 1237.5,-79.5 1237.5,-58.5 1202.5,-58.5"/>
<text text-anchor="middle" x="1220" y="-66.5" font-family="Helvetica,sans-Serif" font-size="10.00">map</text>
</g>
<!-- Node17&#45;&gt;Node19 -->
<g id="edge52" class="edge"><title>Node17&#45;&gt;Node19</title>
<path fill="none" stroke="midnightblue" d="M1000.53,-116.497C1056.67,-104.348 1147.15,-84.7651 1192.39,-74.9748"/>
<polygon fill="midnightblue" stroke="midnightblue" points="1193.33,-78.3539 1202.36,-72.8178 1191.85,-71.5123 1193.33,-78.3539"/>
</g>
<!-- Node20 -->
<g id="node47" class="node"><title>Node20</title>
<polygon fill="white" stroke="#bfbfbf" points="901.5,-58.5 901.5,-79.5 948.5,-79.5 948.5,-58.5 901.5,-58.5"/>
<text text-anchor="middle" x="925" y="-66.5" font-family="Helvetica,sans-Serif" font-size="10.00">iterator</text>
</g>
<!-- Node17&#45;&gt;Node20 -->
<g id="edge54" class="edge"><title>Node17&#45;&gt;Node20</title>
<path fill="none" stroke="midnightblue" d="M947.048,-116.362C943.47,-108.677 938.532,-98.0686 934.236,-88.8399"/>
<polygon fill="midnightblue" stroke="midnightblue" points="937.314,-87.1594 929.921,-79.5707 930.968,-90.1136 937.314,-87.1594"/>
</g>
<!-- Node21&#45;&gt;Node7 -->
<g id="edge60" class="edge"><title>Node21&#45;&gt;Node7</title>
<path fill="none" stroke="midnightblue" d="M596.833,-232.434C567.861,-225.458 534.314,-214.132 508,-196 466.609,-167.479 434.524,-116.373 419.091,-88.4767"/>
<polygon fill="midnightblue" stroke="midnightblue" points="422.161,-86.797 414.338,-79.6522 415.998,-90.1162 422.161,-86.797"/>
</g>
<!-- Node21&#45;&gt;Node8 -->
<g id="edge94" class="edge"><title>Node21&#45;&gt;Node8</title>
<path fill="none" stroke="midnightblue" d="M676.33,-232.304C700.397,-214.877 747.351,-178.238 777,-138 802.097,-103.939 820.337,-57.4995 829.445,-31.2501"/>
<polygon fill="midnightblue" stroke="midnightblue" points="832.808,-32.2294 832.684,-21.6353 826.175,-29.9948 832.808,-32.2294"/>
</g>
<!-- Node21&#45;&gt;Node9 -->
<g id="edge90" class="edge"><title>Node21&#45;&gt;Node9</title>
<path fill="none" stroke="midnightblue" d="M595.657,-233.082C592.733,-232.703 589.837,-232.34 587,-232 499.705,-221.532 266.596,-244.1 193,-196 138.998,-160.707 106.622,-107.494 148,-58 176.183,-24.2884 307.435,-14.7193 372.392,-12.0324"/>
<polygon fill="midnightblue" stroke="midnightblue" points="372.735,-15.522 382.594,-11.6446 372.469,-8.52701 372.735,-15.522"/>
</g>
<!-- Node21&#45;&gt;Node10 -->
<g id="edge62" class="edge"><title>Node21&#45;&gt;Node10</title>
<path fill="none" stroke="midnightblue" d="M666.189,-232.377C680.027,-204.051 717.985,-126.349 736.111,-89.2424"/>
<polygon fill="midnightblue" stroke="midnightblue" points="739.417,-90.4492 740.662,-79.9277 733.128,-87.3766 739.417,-90.4492"/>
</g>
<!-- Node22 -->
<g id="node54" class="node"><title>Node22</title>
<a xlink:href="_detector__t_8h.html" target="_top" xlink:title="base/Detector_t.h">
<polygon fill="white" stroke="black" points="589.5,-116.5 589.5,-137.5 684.5,-137.5 684.5,-116.5 589.5,-116.5"/>
<text text-anchor="middle" x="637" y="-124.5" font-family="Helvetica,sans-Serif" font-size="10.00">base/Detector_t.h</text>
</a>
</g>
<!-- Node21&#45;&gt;Node22 -->
<g id="edge64" class="edge"><title>Node21&#45;&gt;Node22</title>
<path fill="none" stroke="midnightblue" d="M658.785,-232.295C654.802,-213.045 646.37,-172.289 641.243,-147.509"/>
<polygon fill="midnightblue" stroke="midnightblue" points="644.663,-146.763 639.209,-137.679 637.808,-148.181 644.663,-146.763"/>
</g>
<!-- Node26 -->
<g id="node66" class="node"><title>Node26</title>
<a xlink:href="_cluster_8h.html" target="_top" xlink:title="analysis/data/Cluster.h">
<polygon fill="white" stroke="black" points="516.5,-174.5 516.5,-195.5 633.5,-195.5 633.5,-174.5 516.5,-174.5"/>
<text text-anchor="middle" x="575" y="-182.5" font-family="Helvetica,sans-Serif" font-size="10.00">analysis/data/Cluster.h</text>
</a>
</g>
<!-- Node21&#45;&gt;Node26 -->
<g id="edge80" class="edge"><title>Node21&#45;&gt;Node26</title>
<path fill="none" stroke="midnightblue" d="M645.226,-232.362C632.376,-223.696 614.015,-211.313 599.29,-201.382"/>
<polygon fill="midnightblue" stroke="midnightblue" points="600.921,-198.26 590.674,-195.571 597.007,-204.064 600.921,-198.26"/>
</g>
<!-- Node28 -->
<g id="node74" class="node"><title>Node28</title>
<polygon fill="white" stroke="#bfbfbf" points="1022,-116.5 1022,-137.5 1074,-137.5 1074,-116.5 1022,-116.5"/>
<text text-anchor="middle" x="1048" y="-124.5" font-family="Helvetica,sans-Serif" font-size="10.00">memory</text>
</g>
<!-- Node21&#45;&gt;Node28 -->
<g id="edge92" class="edge"><title>Node21&#45;&gt;Node28</title>
<path fill="none" stroke="midnightblue" d="M697.03,-232.441C759.134,-214.201 890.584,-175.412 1011.81,-138.338"/>
<polygon fill="midnightblue" stroke="midnightblue" points="1013.1,-141.604 1021.64,-135.33 1011.05,-134.911 1013.1,-141.604"/>
</g>
<!-- Node22&#45;&gt;Node6 -->
<g id="edge72" class="edge"><title>Node22&#45;&gt;Node6</title>
<path fill="none" stroke="midnightblue" d="M589.357,-117.555C586.531,-117.022 583.729,-116.5 581,-116 490.113,-99.3596 463.887,-101.175 370.637,-80.2114"/>
<polygon fill="midnightblue" stroke="midnightblue" points="371.315,-76.7762 360.787,-77.9693 369.761,-83.6016 371.315,-76.7762"/>
</g>
<!-- Node22&#45;&gt;Node7 -->
<g id="edge66" class="edge"><title>Node22&#45;&gt;Node7</title>
<path fill="none" stroke="midnightblue" d="M593.618,-116.46C557.627,-107.646 504.86,-94.5679 450.273,-80.2987"/>
<polygon fill="midnightblue" stroke="midnightblue" points="450.985,-76.8671 440.424,-77.7163 449.209,-83.6382 450.985,-76.8671"/>
</g>
<!-- Node22&#45;&gt;Node8 -->
<g id="edge78" class="edge"><title>Node22&#45;&gt;Node8</title>
<path fill="none" stroke="midnightblue" d="M646.34,-116.312C659.788,-101.48 685.974,-74.6096 713,-58 741.885,-40.2476 778.585,-27.2896 804.35,-19.5292"/>
<polygon fill="midnightblue" stroke="midnightblue" points="805.371,-22.8774 813.989,-16.7145 803.408,-16.1581 805.371,-22.8774"/>
</g>
<!-- Node22&#45;&gt;Node18 -->
<g id="edge74" class="edge"><title>Node22&#45;&gt;Node18</title>
<path fill="none" stroke="midnightblue" d="M684.739,-120.515C773.102,-108.513 959.832,-83.1493 1033.34,-73.1644"/>
<polygon fill="midnightblue" stroke="midnightblue" points="1033.9,-76.6204 1043.34,-71.8062 1032.96,-69.6841 1033.9,-76.6204"/>
</g>
<!-- Node23 -->
<g id="node57" class="node"><title>Node23</title>
<polygon fill="white" stroke="#bfbfbf" points="457.5,-58.5 457.5,-79.5 522.5,-79.5 522.5,-58.5 457.5,-58.5"/>
<text text-anchor="middle" x="490" y="-66.5" font-family="Helvetica,sans-Serif" font-size="10.00">TVector3.h</text>
</g>
<!-- Node22&#45;&gt;Node23 -->
<g id="edge68" class="edge"><title>Node22&#45;&gt;Node23</title>
<path fill="none" stroke="midnightblue" d="M610.379,-116.497C586.903,-107.234 552.475,-93.6499 526.444,-83.3793"/>
<polygon fill="midnightblue" stroke="midnightblue" points="527.506,-80.0358 516.919,-79.6212 524.937,-86.5473 527.506,-80.0358"/>
</g>
<!-- Node24 -->
<g id="node59" class="node"><title>Node24</title>
<polygon fill="white" stroke="#bfbfbf" points="620,-58.5 620,-79.5 666,-79.5 666,-58.5 620,-58.5"/>
<text text-anchor="middle" x="643" y="-66.5" font-family="Helvetica,sans-Serif" font-size="10.00">cstdint</text>
</g>
<!-- Node22&#45;&gt;Node24 -->
<g id="edge70" class="edge"><title>Node22&#45;&gt;Node24</title>
<path fill="none" stroke="midnightblue" d="M638.1,-116.362C638.87,-108.922 639.923,-98.7427 640.856,-89.7276"/>
<polygon fill="midnightblue" stroke="midnightblue" points="644.359,-89.8777 641.906,-79.5707 637.396,-89.1574 644.359,-89.8777"/>
</g>
<!-- Node25 -->
<g id="node63" class="node"><title>Node25</title>
<polygon fill="white" stroke="#bfbfbf" points="540,-58.5 540,-79.5 602,-79.5 602,-58.5 540,-58.5"/>
<text text-anchor="middle" x="571" y="-66.5" font-family="Helvetica,sans-Serif" font-size="10.00">type_traits</text>
</g>
<!-- Node22&#45;&gt;Node25 -->
<g id="edge76" class="edge"><title>Node22&#45;&gt;Node25</title>
<path fill="none" stroke="midnightblue" d="M624.895,-116.362C615.312,-107.941 601.736,-96.0105 590.607,-86.2308"/>
<polygon fill="midnightblue" stroke="midnightblue" points="592.851,-83.5427 583.029,-79.5707 588.23,-88.8009 592.851,-83.5427"/>
</g>
<!-- Node26&#45;&gt;Node14 -->
<g id="edge84" class="edge"><title>Node26&#45;&gt;Node14</title>
<path fill="none" stroke="midnightblue" d="M607.416,-174.497C642.536,-163.117 697.783,-145.216 729.47,-134.948"/>
<polygon fill="midnightblue" stroke="midnightblue" points="730.815,-138.192 739.249,-131.78 728.657,-131.532 730.815,-138.192"/>
</g>
<!-- Node26&#45;&gt;Node22 -->
<g id="edge82" class="edge"><title>Node26&#45;&gt;Node22</title>
<path fill="none" stroke="midnightblue" d="M586.372,-174.362C595.286,-166.023 607.879,-154.242 618.276,-144.516"/>
<polygon fill="midnightblue" stroke="midnightblue" points="620.789,-146.958 625.7,-137.571 616.007,-141.846 620.789,-146.958"/>
</g>
<!-- Node26&#45;&gt;Node23 -->
<g id="edge86" class="edge"><title>Node26&#45;&gt;Node23</title>
<path fill="none" stroke="midnightblue" d="M525.398,-174.481C505.583,-167.585 484.723,-156.309 473,-138 463.395,-122.999 470.031,-102.972 477.644,-88.3596"/>
<polygon fill="midnightblue" stroke="midnightblue" points="480.701,-90.0643 482.627,-79.646 474.624,-86.5893 480.701,-90.0643"/>
</g>
<!-- Node27 -->
<g id="node71" class="node"><title>Node27</title>
<a xlink:href="enumfield_8h.html" target="_top" xlink:title="base/enumfield.h">
<polygon fill="white" stroke="black" points="481.5,-116.5 481.5,-137.5 572.5,-137.5 572.5,-116.5 481.5,-116.5"/>
<text text-anchor="middle" x="527" y="-124.5" font-family="Helvetica,sans-Serif" font-size="10.00">base/enumfield.h</text>
</a>
</g>
<!-- Node26&#45;&gt;Node27 -->
<g id="edge88" class="edge"><title>Node26&#45;&gt;Node27</title>
<path fill="none" stroke="midnightblue" d="M566.196,-174.362C559.498,-166.268 550.116,-154.932 542.211,-145.38"/>
<polygon fill="midnightblue" stroke="midnightblue" points="544.82,-143.043 535.748,-137.571 539.427,-147.506 544.82,-143.043"/>
</g>
<!-- Node30&#45;&gt;Node8 -->
<g id="edge110" class="edge"><title>Node30&#45;&gt;Node8</title>
<path fill="none" stroke="midnightblue" d="M1173.16,-177.976C1214.75,-170.225 1273.32,-156.372 1287,-138 1310.53,-106.396 1261.65,-67.2719 1246,-58 1182.16,-20.1804 953.198,-12.7922 868.127,-11.3497"/>
<polygon fill="midnightblue" stroke="midnightblue" points="868.078,-7.84865 858.025,-11.1953 867.971,-14.8478 868.078,-7.84865"/>
</g>
<!-- Node30&#45;&gt;Node14 -->
<g id="edge108" class="edge"><title>Node30&#45;&gt;Node14</title>
<path fill="none" stroke="midnightblue" d="M1086.87,-178.347C1007.71,-166.136 841.612,-140.515 778.786,-130.823"/>
<polygon fill="midnightblue" stroke="midnightblue" points="779.045,-127.322 768.628,-129.256 777.977,-134.24 779.045,-127.322"/>
</g>
<!-- Node30&#45;&gt;Node18 -->
<g id="edge106" class="edge"><title>Node30&#45;&gt;Node18</title>
<path fill="none" stroke="midnightblue" d="M1123.91,-174.295C1112.81,-154.786 1089.14,-113.188 1075.1,-88.5177"/>
<polygon fill="midnightblue" stroke="midnightblue" points="1078.06,-86.64 1070.08,-79.6792 1071.98,-90.1017 1078.06,-86.64"/>
</g>
<!-- Node30&#45;&gt;Node19 -->
<g id="edge112" class="edge"><title>Node30&#45;&gt;Node19</title>
<path fill="none" stroke="midnightblue" d="M1173.06,-176.401C1210.08,-168.031 1259.31,-154.223 1271,-138 1283.99,-119.975 1264.53,-99.531 1246.02,-85.6054"/>
<polygon fill="midnightblue" stroke="midnightblue" points="1247.89,-82.6359 1237.71,-79.698 1243.83,-88.3426 1247.89,-82.6359"/>
</g>
<!-- Node30&#45;&gt;Node28 -->
<g id="edge114" class="edge"><title>Node30&#45;&gt;Node28</title>
<path fill="none" stroke="midnightblue" d="M1114.96,-174.362C1102.71,-165.696 1085.2,-153.313 1071.16,-143.382"/>
<polygon fill="midnightblue" stroke="midnightblue" points="1073.13,-140.488 1062.94,-137.571 1069.09,-146.203 1073.13,-140.488"/>
</g>
<!-- Node31 -->
<g id="node89" class="node"><title>Node31</title>
<polygon fill="white" stroke="#bfbfbf" points="1129.5,-116.5 1129.5,-137.5 1188.5,-137.5 1188.5,-116.5 1129.5,-116.5"/>
<text text-anchor="middle" x="1159" y="-124.5" font-family="Helvetica,sans-Serif" font-size="10.00">functional</text>
</g>
<!-- Node30&#45;&gt;Node31 -->
<g id="edge116" class="edge"><title>Node30&#45;&gt;Node31</title>
<path fill="none" stroke="midnightblue" d="M1135.32,-174.362C1139.2,-166.595 1144.58,-155.843 1149.23,-146.546"/>
<polygon fill="midnightblue" stroke="midnightblue" points="1152.37,-148.08 1153.71,-137.571 1146.11,-144.95 1152.37,-148.08"/>
</g>
<!-- Node32 -->
<g id="node91" class="node"><title>Node32</title>
<polygon fill="white" stroke="#bfbfbf" points="1206,-116.5 1206,-137.5 1262,-137.5 1262,-116.5 1206,-116.5"/>
<text text-anchor="middle" x="1234" y="-124.5" font-family="Helvetica,sans-Serif" font-size="10.00">Rtypes.h</text>
</g>
<!-- Node30&#45;&gt;Node32 -->
<g id="edge118" class="edge"><title>Node30&#45;&gt;Node32</title>
<path fill="none" stroke="midnightblue" d="M1149.08,-174.362C1165.05,-165.45 1188.08,-152.609 1206.13,-142.545"/>
<polygon fill="midnightblue" stroke="midnightblue" points="1208.02,-145.498 1215.05,-137.571 1204.61,-139.385 1208.02,-145.498"/>
</g>
<!-- Node33&#45;&gt;Node4 -->
<g id="edge128" class="edge"><title>Node33&#45;&gt;Node4</title>
<path fill="none" stroke="midnightblue" d="M1245.38,-179.942C1225.93,-177.87 1202.86,-175.591 1182,-174 867.397,-150.007 787.967,-156.623 473,-138 435.188,-135.764 392.468,-132.868 360.251,-130.608"/>
<polygon fill="midnightblue" stroke="midnightblue" points="360.401,-127.11 350.18,-129.899 359.909,-134.093 360.401,-127.11"/>
</g>
<!-- Node33&#45;&gt;Node8 -->
<g id="edge124" class="edge"><title>Node33&#45;&gt;Node8</title>
<path fill="none" stroke="midnightblue" d="M1294.13,-174.372C1297.55,-164.974 1302.13,-150.806 1304,-138 1309.5,-100.267 1304.61,-79.3271 1273,-58 1239.58,-35.4497 963.474,-18.0984 868.188,-12.7323"/>
<polygon fill="midnightblue" stroke="midnightblue" points="868.18,-9.2265 858.001,-12.1656 867.791,-16.2157 868.18,-9.2265"/>
</g>
<!-- Node33&#45;&gt;Node18 -->
<g id="edge126" class="edge"><title>Node33&#45;&gt;Node18</title>
<path fill="none" stroke="midnightblue" d="M1290.25,-174.452C1289.99,-159.287 1287.17,-131.451 1271,-116 1245.94,-92.0526 1145.93,-77.9207 1094.66,-72.11"/>
<polygon fill="midnightblue" stroke="midnightblue" points="1094.82,-68.6072 1084.5,-70.9958 1094.06,-75.5654 1094.82,-68.6072"/>
</g>
<!-- Node34 -->
<g id="node95" class="node"><title>Node34</title>
<polygon fill="white" stroke="#bfbfbf" points="1432,-116.5 1432,-137.5 1486,-137.5 1486,-116.5 1432,-116.5"/>
<text text-anchor="middle" x="1459" y="-124.5" font-family="Helvetica,sans-Serif" font-size="10.00">TColor.h</text>
</g>
<!-- Node33&#45;&gt;Node34 -->
<g id="edge122" class="edge"><title>Node33&#45;&gt;Node34</title>
<path fill="none" stroke="midnightblue" d="M1320.6,-174.497C1349.15,-164.701 1391.77,-150.072 1422.17,-139.641"/>
<polygon fill="midnightblue" stroke="midnightblue" points="1423.65,-142.834 1431.97,-136.277 1421.37,-136.213 1423.65,-142.834"/>
</g>
</g>
</svg>
