<?xml version="1.0" encoding="UTF-8" standalone="no"?>
<!DOCTYPE svg PUBLIC "-//W3C//DTD SVG 1.1//EN"
 "http://www.w3.org/Graphics/SVG/1.1/DTD/svg11.dtd">
<!-- Generated by graphviz version 2.26.3 (20100126.1600)
 -->
<!-- Title: src/expconfig/setups/SetupRegistry.h Pages: 1 -->
<svg width="182pt" height="102pt"
 viewBox="0.00 0.00 182.00 102.00" xmlns="http://www.w3.org/2000/svg" xmlns:xlink="http://www.w3.org/1999/xlink">
<g id="graph1" class="graph" transform="scale(1 1) rotate(0) translate(4 98)">
<title>src/expconfig/setups/SetupRegistry.h</title>
<polygon fill="white" stroke="white" points="-4,5 -4,-98 179,-98 179,5 -4,5"/>
<!-- Node1 -->
<g id="node1" class="node"><title>Node1</title>
<polygon fill="#bfbfbf" stroke="black" points="18.5,-59 18.5,-93 125.5,-93 125.5,-59 18.5,-59"/>
<text text-anchor="start" x="26.5" y="-80" font-family="Helvetica,sans-Serif" font-size="10.00">src/expconfig/setups</text>
<text text-anchor="middle" x="72" y="-67" font-family="Helvetica,sans-Serif" font-size="10.00">/SetupRegistry.h</text>
</g>
<!-- Node2 -->
<g id="node3" class="node"><title>Node2</title>
<polygon fill="white" stroke="#bfbfbf" points="-0.5,-0.5 -0.5,-21.5 28.5,-21.5 28.5,-0.5 -0.5,-0.5"/>
<text text-anchor="middle" x="14" y="-8.5" font-family="Helvetica,sans-Serif" font-size="10.00">list</text>
</g>
<!-- Node1&#45;&gt;Node2 -->
<g id="edge2" class="edge"><title>Node1&#45;&gt;Node2</title>
<path fill="none" stroke="midnightblue" d="M56.7612,-58.922C48.6619,-49.8453 38.6985,-38.6793 30.4271,-29.4097"/>
<polygon fill="midnightblue" stroke="midnightblue" points="32.9528,-26.9833 23.6834,-21.8521 27.7298,-31.6438 32.9528,-26.9833"/>
</g>
<!-- Node3 -->
<g id="node5" class="node"><title>Node3</title>
<polygon fill="white" stroke="#bfbfbf" points="46,-0.5 46,-21.5 98,-21.5 98,-0.5 46,-0.5"/>
<text text-anchor="middle" x="72" y="-8.5" font-family="Helvetica,sans-Serif" font-size="10.00">memory</text>
</g>
<!-- Node1&#45;&gt;Node3 -->
<g id="edge4" class="edge"><title>Node1&#45;&gt;Node3</title>
<path fill="none" stroke="midnightblue" d="M72,-58.922C72,-50.6704 72,-40.6922 72,-31.9818"/>
<polygon fill="midnightblue" stroke="midnightblue" points="75.5001,-31.8521 72,-21.8521 68.5001,-31.8521 75.5001,-31.8521"/>
</g>
<!-- Node4 -->
<g id="node7" class="node"><title>Node4</title>
<polygon fill="white" stroke="#bfbfbf" points="115.5,-0.5 115.5,-21.5 174.5,-21.5 174.5,-0.5 115.5,-0.5"/>
<text text-anchor="middle" x="145" y="-8.5" font-family="Helvetica,sans-Serif" font-size="10.00">functional</text>
</g>
<!-- Node1&#45;&gt;Node4 -->
<g id="edge6" class="edge"><title>Node1&#45;&gt;Node4</title>
<path fill="none" stroke="midnightblue" d="M91.1799,-58.922C101.683,-49.5702 114.676,-38.0007 125.265,-28.5724"/>
<polygon fill="midnightblue" stroke="midnightblue" points="127.671,-31.1161 132.812,-21.8521 123.016,-25.8881 127.671,-31.1161"/>
</g>
</g>
</svg>
