<?xml version="1.0" encoding="UTF-8" standalone="no"?>
<!DOCTYPE svg PUBLIC "-//W3C//DTD SVG 1.1//EN"
 "http://www.w3.org/Graphics/SVG/1.1/DTD/svg11.dtd">
<!-- Generated by graphviz version 2.26.3 (20100126.1600)
 -->
<!-- Title: src/analysis/input/detail/SlowcontrolCreator.h Pages: 1 -->
<svg width="274pt" height="116pt"
 viewBox="0.00 0.00 274.00 116.00" xmlns="http://www.w3.org/2000/svg" xmlns:xlink="http://www.w3.org/1999/xlink">
<g id="graph1" class="graph" transform="scale(1 1) rotate(0) translate(4 112)">
<title>src/analysis/input/detail/SlowcontrolCreator.h</title>
<polygon fill="white" stroke="white" points="-4,5 -4,-112 271,-112 271,5 -4,5"/>
<!-- Node1 -->
<g id="node1" class="node"><title>Node1</title>
<polygon fill="#bfbfbf" stroke="black" points="73.5,-73 73.5,-107 210.5,-107 210.5,-73 73.5,-73"/>
<text text-anchor="start" x="81.5" y="-94" font-family="Helvetica,sans-Serif" font-size="10.00">src/analysis/input</text>
<text text-anchor="middle" x="142" y="-81" font-family="Helvetica,sans-Serif" font-size="10.00">/detail/SlowcontrolCreator.h</text>
</g>
<!-- Node2 -->
<g id="node3" class="node"><title>Node2</title>
<a xlink:href="_slowcontrol_creator_8cc.html" target="_top" xlink:title="src/analysis/input\l/detail/SlowcontrolCreator.cc">
<polygon fill="white" stroke="black" points="-0.5,-1 -0.5,-35 142.5,-35 142.5,-1 -0.5,-1"/>
<text text-anchor="start" x="7.5" y="-22" font-family="Helvetica,sans-Serif" font-size="10.00">src/analysis/input</text>
<text text-anchor="middle" x="71" y="-9" font-family="Helvetica,sans-Serif" font-size="10.00">/detail/SlowcontrolCreator.cc</text>
</a>
</g>
<!-- Node1&#45;&gt;Node2 -->
<g id="edge2" class="edge"><title>Node1&#45;&gt;Node2</title>
<path fill="none" stroke="midnightblue" d="M118.008,-65.6706C108.231,-55.7551 97.1469,-44.5151 88.1984,-35.4407"/>
<polygon fill="midnightblue" stroke="midnightblue" points="115.66,-68.2742 125.174,-72.937 120.645,-63.3591 115.66,-68.2742"/>
</g>
<!-- Node3 -->
<g id="node5" class="node"><title>Node3</title>
<a xlink:href="_physics_manager_8cc.html" target="_top" xlink:title="src/analysis/physics\l/PhysicsManager.cc">
<polygon fill="white" stroke="black" points="160,-1 160,-35 266,-35 266,-1 160,-1"/>
<text text-anchor="start" x="168" y="-22" font-family="Helvetica,sans-Serif" font-size="10.00">src/analysis/physics</text>
<text text-anchor="middle" x="213" y="-9" font-family="Helvetica,sans-Serif" font-size="10.00">/PhysicsManager.cc</text>
</a>
</g>
<!-- Node1&#45;&gt;Node3 -->
<g id="edge4" class="edge"><title>Node1&#45;&gt;Node3</title>
<path fill="none" stroke="midnightblue" d="M165.992,-65.6706C175.769,-55.7551 186.853,-44.5151 195.802,-35.4407"/>
<polygon fill="midnightblue" stroke="midnightblue" points="163.355,-63.3591 158.826,-72.937 168.34,-68.2742 163.355,-63.3591"/>
</g>
</g>
</svg>
