<?xml version="1.0" encoding="UTF-8" standalone="no"?>
<!DOCTYPE svg PUBLIC "-//W3C//DTD SVG 1.1//EN"
 "http://www.w3.org/Graphics/SVG/1.1/DTD/svg11.dtd">
<!-- Generated by graphviz version 2.26.3 (20100126.1600)
 -->
<!-- Title: src/analysis/data/Slowcontrol.cc Pages: 1 -->
<svg width="834pt" height="378pt"
 viewBox="0.00 0.00 834.00 378.00" xmlns="http://www.w3.org/2000/svg" xmlns:xlink="http://www.w3.org/1999/xlink">
<g id="graph1" class="graph" transform="scale(1 1) rotate(0) translate(4 374)">
<title>src/analysis/data/Slowcontrol.cc</title>
<polygon fill="white" stroke="white" points="-4,5 -4,-374 831,-374 831,5 -4,5"/>
<!-- Node1 -->
<g id="node1" class="node"><title>Node1</title>
<polygon fill="#bfbfbf" stroke="black" points="549,-348.5 549,-369.5 707,-369.5 707,-348.5 549,-348.5"/>
<text text-anchor="middle" x="628" y="-356.5" font-family="Helvetica,sans-Serif" font-size="10.00">src/analysis/data/Slowcontrol.cc</text>
</g>
<!-- Node2 -->
<g id="node3" class="node"><title>Node2</title>
<a xlink:href="_slowcontrol_8h.html" target="_top" xlink:title="Slowcontrol.h">
<polygon fill="white" stroke="black" points="0,-174.5 0,-195.5 76,-195.5 76,-174.5 0,-174.5"/>
<text text-anchor="middle" x="38" y="-182.5" font-family="Helvetica,sans-Serif" font-size="10.00">Slowcontrol.h</text>
</a>
</g>
<!-- Node1&#45;&gt;Node2 -->
<g id="edge2" class="edge"><title>Node1&#45;&gt;Node2</title>
<path fill="none" stroke="midnightblue" d="M584.899,-348.497C512.554,-330.629 362.306,-292.495 237,-254 180.448,-236.627 115.894,-213.654 76.0396,-199.098"/>
<polygon fill="midnightblue" stroke="midnightblue" points="77.053,-195.742 66.4592,-195.587 74.6444,-202.314 77.053,-195.742"/>
</g>
<!-- Node4 -->
<g id="node7" class="node"><title>Node4</title>
<a xlink:href="memory_8h.html" target="_top" xlink:title="base/std_ext/memory.h">
<polygon fill="white" stroke="black" points="655.5,-290.5 655.5,-311.5 774.5,-311.5 774.5,-290.5 655.5,-290.5"/>
<text text-anchor="middle" x="715" y="-298.5" font-family="Helvetica,sans-Serif" font-size="10.00">base/std_ext/memory.h</text>
</a>
</g>
<!-- Node1&#45;&gt;Node4 -->
<g id="edge6" class="edge"><title>Node1&#45;&gt;Node4</title>
<path fill="none" stroke="midnightblue" d="M643.957,-348.362C656.957,-339.696 675.531,-327.313 690.427,-317.382"/>
<polygon fill="midnightblue" stroke="midnightblue" points="692.765,-320.03 699.144,-311.571 688.882,-314.206 692.765,-320.03"/>
</g>
<!-- Node7 -->
<g id="node13" class="node"><title>Node7</title>
<a xlink:href="_t_slow_control_8h.html" target="_top" xlink:title="tree/TSlowControl.h">
<polygon fill="white" stroke="black" points="496,-290.5 496,-311.5 600,-311.5 600,-290.5 496,-290.5"/>
<text text-anchor="middle" x="548" y="-298.5" font-family="Helvetica,sans-Serif" font-size="10.00">tree/TSlowControl.h</text>
</a>
</g>
<!-- Node1&#45;&gt;Node7 -->
<g id="edge12" class="edge"><title>Node1&#45;&gt;Node7</title>
<path fill="none" stroke="midnightblue" d="M613.327,-348.362C601.486,-339.777 584.615,-327.546 570.984,-317.664"/>
<polygon fill="midnightblue" stroke="midnightblue" points="572.731,-314.607 562.58,-311.571 568.622,-320.274 572.731,-314.607"/>
</g>
<!-- Node23 -->
<g id="node46" class="node"><title>Node23</title>
<polygon fill="white" stroke="#bfbfbf" points="672.5,-116.5 672.5,-137.5 731.5,-137.5 731.5,-116.5 672.5,-116.5"/>
<text text-anchor="middle" x="702" y="-124.5" font-family="Helvetica,sans-Serif" font-size="10.00">stdexcept</text>
</g>
<!-- Node1&#45;&gt;Node23 -->
<g id="edge64" class="edge"><title>Node1&#45;&gt;Node23</title>
<path fill="none" stroke="midnightblue" d="M630.774,-348.189C634.318,-334.558 640.744,-310.435 647,-290 662.875,-238.142 683.902,-177.839 694.785,-147.164"/>
<polygon fill="midnightblue" stroke="midnightblue" points="698.129,-148.207 698.186,-137.612 691.534,-145.859 698.129,-148.207"/>
</g>
<!-- Node25 -->
<g id="node56" class="node"><title>Node25</title>
<polygon fill="white" stroke="#bfbfbf" points="791.5,-290.5 791.5,-311.5 826.5,-311.5 826.5,-290.5 791.5,-290.5"/>
<text text-anchor="middle" x="809" y="-298.5" font-family="Helvetica,sans-Serif" font-size="10.00">map</text>
</g>
<!-- Node1&#45;&gt;Node25 -->
<g id="edge62" class="edge"><title>Node1&#45;&gt;Node25</title>
<path fill="none" stroke="midnightblue" d="M666.91,-348.437C696.389,-340.159 738.017,-327.884 782.049,-312.126"/>
<polygon fill="midnightblue" stroke="midnightblue" points="783.268,-315.407 791.478,-308.71 780.884,-308.825 783.268,-315.407"/>
</g>
<!-- Node3 -->
<g id="node5" class="node"><title>Node3</title>
<polygon fill="white" stroke="#bfbfbf" points="55,-58.5 55,-79.5 99,-79.5 99,-58.5 55,-58.5"/>
<text text-anchor="middle" x="77" y="-66.5" font-family="Helvetica,sans-Serif" font-size="10.00">vector</text>
</g>
<!-- Node2&#45;&gt;Node3 -->
<g id="edge4" class="edge"><title>Node2&#45;&gt;Node3</title>
<path fill="none" stroke="midnightblue" d="M31.3704,-174.278C23.6546,-160.325 13.0446,-135.433 22,-116 27.7657,-103.489 38.6866,-93.0708 49.2871,-85.249"/>
<polygon fill="midnightblue" stroke="midnightblue" points="51.3444,-88.0822 57.615,-79.5423 47.3875,-82.3078 51.3444,-88.0822"/>
</g>
<!-- Node5 -->
<g id="node9" class="node"><title>Node5</title>
<polygon fill="white" stroke="#bfbfbf" points="724,-232.5 724,-253.5 776,-253.5 776,-232.5 724,-232.5"/>
<text text-anchor="middle" x="750" y="-240.5" font-family="Helvetica,sans-Serif" font-size="10.00">memory</text>
</g>
<!-- Node4&#45;&gt;Node5 -->
<g id="edge8" class="edge"><title>Node4&#45;&gt;Node5</title>
<path fill="none" stroke="midnightblue" d="M721.42,-290.362C726.156,-282.513 732.732,-271.616 738.382,-262.253"/>
<polygon fill="midnightblue" stroke="midnightblue" points="741.451,-263.941 743.621,-253.571 735.458,-260.324 741.451,-263.941"/>
</g>
<!-- Node6 -->
<g id="node11" class="node"><title>Node6</title>
<polygon fill="white" stroke="#bfbfbf" points="677.5,-232.5 677.5,-253.5 706.5,-253.5 706.5,-232.5 677.5,-232.5"/>
<text text-anchor="middle" x="692" y="-240.5" font-family="Helvetica,sans-Serif" font-size="10.00">list</text>
</g>
<!-- Node4&#45;&gt;Node6 -->
<g id="edge10" class="edge"><title>Node4&#45;&gt;Node6</title>
<path fill="none" stroke="midnightblue" d="M710.781,-290.362C707.766,-282.758 703.617,-272.294 699.985,-263.135"/>
<polygon fill="midnightblue" stroke="midnightblue" points="703.132,-261.576 696.192,-253.571 696.625,-264.157 703.132,-261.576"/>
</g>
<!-- Node8 -->
<g id="node15" class="node"><title>Node8</title>
<a xlink:href="_t_data_record_8h.html" target="_top" xlink:title="TDataRecord.h">
<polygon fill="white" stroke="black" points="245.5,-232.5 245.5,-253.5 328.5,-253.5 328.5,-232.5 245.5,-232.5"/>
<text text-anchor="middle" x="287" y="-240.5" font-family="Helvetica,sans-Serif" font-size="10.00">TDataRecord.h</text>
</a>
</g>
<!-- Node7&#45;&gt;Node8 -->
<g id="edge14" class="edge"><title>Node7&#45;&gt;Node8</title>
<path fill="none" stroke="midnightblue" d="M500.735,-290.497C455.024,-280.339 385.93,-264.984 338.758,-254.502"/>
<polygon fill="midnightblue" stroke="midnightblue" points="339.268,-251.03 328.746,-252.277 337.749,-257.863 339.268,-251.03"/>
</g>
<!-- Node13 -->
<g id="node26" class="node"><title>Node13</title>
<a xlink:href="time_8h.html" target="_top" xlink:title="base/std_ext/time.h">
<polygon fill="white" stroke="black" points="496.5,-116.5 496.5,-137.5 599.5,-137.5 599.5,-116.5 496.5,-116.5"/>
<text text-anchor="middle" x="548" y="-124.5" font-family="Helvetica,sans-Serif" font-size="10.00">base/std_ext/time.h</text>
</a>
</g>
<!-- Node7&#45;&gt;Node13 -->
<g id="edge58" class="edge"><title>Node7&#45;&gt;Node13</title>
<path fill="none" stroke="midnightblue" d="M548,-290.377C548,-262.293 548,-185.673 548,-148.203"/>
<polygon fill="midnightblue" stroke="midnightblue" points="551.5,-147.928 548,-137.928 544.5,-147.928 551.5,-147.928"/>
</g>
<!-- Node21 -->
<g id="node42" class="node"><title>Node21</title>
<polygon fill="white" stroke="#bfbfbf" points="617,-116.5 617,-137.5 655,-137.5 655,-116.5 617,-116.5"/>
<text text-anchor="middle" x="636" y="-124.5" font-family="Helvetica,sans-Serif" font-size="10.00">tuple</text>
</g>
<!-- Node7&#45;&gt;Node21 -->
<g id="edge60" class="edge"><title>Node7&#45;&gt;Node21</title>
<path fill="none" stroke="midnightblue" d="M553.372,-290.377C567.698,-262.051 606.996,-184.349 625.762,-147.242"/>
<polygon fill="midnightblue" stroke="midnightblue" points="629.083,-148.431 630.473,-137.928 622.837,-145.272 629.083,-148.431"/>
</g>
<!-- Node9 -->
<g id="node17" class="node"><title>Node9</title>
<a xlink:href="_t_i_d_8h.html" target="_top" xlink:title="TID.h">
<polygon fill="white" stroke="black" points="342.5,-174.5 342.5,-195.5 383.5,-195.5 383.5,-174.5 342.5,-174.5"/>
<text text-anchor="middle" x="363" y="-182.5" font-family="Helvetica,sans-Serif" font-size="10.00">TID.h</text>
</a>
</g>
<!-- Node8&#45;&gt;Node9 -->
<g id="edge16" class="edge"><title>Node8&#45;&gt;Node9</title>
<path fill="none" stroke="midnightblue" d="M300.94,-232.362C312.188,-223.777 328.216,-211.546 341.165,-201.664"/>
<polygon fill="midnightblue" stroke="midnightblue" points="343.323,-204.42 349.149,-195.571 339.076,-198.855 343.323,-204.42"/>
</g>
<!-- Node10 -->
<g id="node19" class="node"><title>Node10</title>
<polygon fill="white" stroke="#bfbfbf" points="99,-116.5 99,-137.5 155,-137.5 155,-116.5 99,-116.5"/>
<text text-anchor="middle" x="127" y="-124.5" font-family="Helvetica,sans-Serif" font-size="10.00">Rtypes.h</text>
</g>
<!-- Node8&#45;&gt;Node10 -->
<g id="edge52" class="edge"><title>Node8&#45;&gt;Node10</title>
<path fill="none" stroke="midnightblue" d="M272.234,-232.295C244.254,-212.009 183.331,-167.84 149.97,-143.653"/>
<polygon fill="midnightblue" stroke="midnightblue" points="151.88,-140.715 141.73,-137.679 147.772,-146.383 151.88,-140.715"/>
</g>
<!-- Node19 -->
<g id="node38" class="node"><title>Node19</title>
<polygon fill="white" stroke="#bfbfbf" points="368.5,-58.5 368.5,-79.5 409.5,-79.5 409.5,-58.5 368.5,-58.5"/>
<text text-anchor="middle" x="389" y="-66.5" font-family="Helvetica,sans-Serif" font-size="10.00">ctime</text>
</g>
<!-- Node8&#45;&gt;Node19 -->
<g id="edge56" class="edge"><title>Node8&#45;&gt;Node19</title>
<path fill="none" stroke="midnightblue" d="M285.67,-232.354C283.331,-209.024 280.875,-152.565 306,-116 318.56,-97.7209 340.695,-85.7039 358.949,-78.3997"/>
<polygon fill="midnightblue" stroke="midnightblue" points="360.184,-81.6748 368.337,-74.9091 357.744,-75.1137 360.184,-81.6748"/>
</g>
<!-- Node24 -->
<g id="node48" class="node"><title>Node24</title>
<polygon fill="white" stroke="#bfbfbf" points="31,-116.5 31,-137.5 81,-137.5 81,-116.5 31,-116.5"/>
<text text-anchor="middle" x="56" y="-124.5" font-family="Helvetica,sans-Serif" font-size="10.00">iomanip</text>
</g>
<!-- Node8&#45;&gt;Node24 -->
<g id="edge54" class="edge"><title>Node8&#45;&gt;Node24</title>
<path fill="none" stroke="midnightblue" d="M264.326,-232.373C244.4,-222.975 214.663,-208.807 189,-196 152.98,-178.025 111.907,-156.567 85.0524,-142.406"/>
<polygon fill="midnightblue" stroke="midnightblue" points="86.6553,-139.295 76.1783,-137.719 83.3861,-145.484 86.6553,-139.295"/>
</g>
<!-- Node9&#45;&gt;Node10 -->
<g id="edge18" class="edge"><title>Node9&#45;&gt;Node10</title>
<path fill="none" stroke="midnightblue" d="M342.277,-180.514C307.621,-172.927 235.524,-156.771 165.149,-138.209"/>
<polygon fill="midnightblue" stroke="midnightblue" points="165.798,-134.76 155.235,-135.575 164.001,-141.525 165.798,-134.76"/>
</g>
<!-- Node11 -->
<g id="node21" class="node"><title>Node11</title>
<a xlink:href="printable_8h.html" target="_top" xlink:title="base/printable.h">
<polygon fill="white" stroke="black" points="173,-116.5 173,-137.5 259,-137.5 259,-116.5 173,-116.5"/>
<text text-anchor="middle" x="216" y="-124.5" font-family="Helvetica,sans-Serif" font-size="10.00">base/printable.h</text>
</a>
</g>
<!-- Node9&#45;&gt;Node11 -->
<g id="edge20" class="edge"><title>Node9&#45;&gt;Node11</title>
<path fill="none" stroke="midnightblue" d="M342.25,-176.813C318.888,-167.595 280.498,-152.448 252.174,-141.273"/>
<polygon fill="midnightblue" stroke="midnightblue" points="253.203,-137.916 242.617,-137.502 250.634,-144.428 253.203,-137.916"/>
</g>
<!-- Node9&#45;&gt;Node13 -->
<g id="edge26" class="edge"><title>Node9&#45;&gt;Node13</title>
<path fill="none" stroke="midnightblue" d="M383.505,-178.571C412.522,-169.474 466.274,-152.622 504.43,-140.66"/>
<polygon fill="midnightblue" stroke="midnightblue" points="505.761,-143.91 514.256,-137.579 503.667,-137.231 505.761,-143.91"/>
</g>
<!-- Node9&#45;&gt;Node19 -->
<g id="edge50" class="edge"><title>Node9&#45;&gt;Node19</title>
<path fill="none" stroke="midnightblue" d="M365.399,-174.295C369.714,-155.045 378.849,-114.289 384.403,-89.5091"/>
<polygon fill="midnightblue" stroke="midnightblue" points="387.834,-90.2026 386.606,-79.6792 381.004,-88.6716 387.834,-90.2026"/>
</g>
<!-- Node20 -->
<g id="node40" class="node"><title>Node20</title>
<polygon fill="white" stroke="#bfbfbf" points="417,-116.5 417,-137.5 479,-137.5 479,-116.5 417,-116.5"/>
<text text-anchor="middle" x="448" y="-124.5" font-family="Helvetica,sans-Serif" font-size="10.00">type_traits</text>
</g>
<!-- Node9&#45;&gt;Node20 -->
<g id="edge40" class="edge"><title>Node9&#45;&gt;Node20</title>
<path fill="none" stroke="midnightblue" d="M378.59,-174.362C391.291,-165.696 409.438,-153.313 423.992,-143.382"/>
<polygon fill="midnightblue" stroke="midnightblue" points="426.221,-146.098 432.509,-137.571 422.276,-140.316 426.221,-146.098"/>
</g>
<!-- Node9&#45;&gt;Node21 -->
<g id="edge42" class="edge"><title>Node9&#45;&gt;Node21</title>
<path fill="none" stroke="midnightblue" d="M383.629,-182.357C424.628,-176.828 519.291,-162.689 607.045,-137.884"/>
<polygon fill="midnightblue" stroke="midnightblue" points="608.242,-141.182 616.882,-135.049 606.304,-134.455 608.242,-141.182"/>
</g>
<!-- Node22 -->
<g id="node44" class="node"><title>Node22</title>
<polygon fill="white" stroke="#bfbfbf" points="315,-116.5 315,-137.5 361,-137.5 361,-116.5 315,-116.5"/>
<text text-anchor="middle" x="338" y="-124.5" font-family="Helvetica,sans-Serif" font-size="10.00">cstdint</text>
</g>
<!-- Node9&#45;&gt;Node22 -->
<g id="edge44" class="edge"><title>Node9&#45;&gt;Node22</title>
<path fill="none" stroke="midnightblue" d="M358.415,-174.362C355.102,-166.677 350.53,-156.069 346.552,-146.84"/>
<polygon fill="midnightblue" stroke="midnightblue" points="349.729,-145.368 342.556,-137.571 343.301,-148.139 349.729,-145.368"/>
</g>
<!-- Node9&#45;&gt;Node23 -->
<g id="edge46" class="edge"><title>Node9&#45;&gt;Node23</title>
<path fill="none" stroke="midnightblue" d="M383.606,-182.698C431.154,-177.192 552.317,-162.063 662.296,-138.193"/>
<polygon fill="midnightblue" stroke="midnightblue" points="663.208,-141.576 672.221,-136.007 661.703,-134.74 663.208,-141.576"/>
</g>
<!-- Node9&#45;&gt;Node24 -->
<g id="edge48" class="edge"><title>Node9&#45;&gt;Node24</title>
<path fill="none" stroke="midnightblue" d="M342.245,-182.454C297.823,-176.79 190.164,-161.908 91.0104,-137.992"/>
<polygon fill="midnightblue" stroke="midnightblue" points="91.6817,-134.553 81.136,-135.573 90.0159,-141.352 91.6817,-134.553"/>
</g>
<!-- Node11&#45;&gt;Node3 -->
<g id="edge22" class="edge"><title>Node11&#45;&gt;Node3</title>
<path fill="none" stroke="midnightblue" d="M190.828,-116.497C167.76,-106.871 133.51,-92.5796 108.607,-82.1887"/>
<polygon fill="midnightblue" stroke="midnightblue" points="109.809,-78.8978 99.2328,-78.277 107.114,-85.358 109.809,-78.8978"/>
</g>
<!-- Node12 -->
<g id="node24" class="node"><title>Node12</title>
<polygon fill="white" stroke="#bfbfbf" points="190,-58.5 190,-79.5 242,-79.5 242,-58.5 190,-58.5"/>
<text text-anchor="middle" x="216" y="-66.5" font-family="Helvetica,sans-Serif" font-size="10.00">ostream</text>
</g>
<!-- Node11&#45;&gt;Node12 -->
<g id="edge24" class="edge"><title>Node11&#45;&gt;Node12</title>
<path fill="none" stroke="midnightblue" d="M216,-116.362C216,-108.922 216,-98.7427 216,-89.7276"/>
<polygon fill="midnightblue" stroke="midnightblue" points="219.5,-89.5706 216,-79.5707 212.5,-89.5707 219.5,-89.5706"/>
</g>
<!-- Node14 -->
<g id="node28" class="node"><title>Node14</title>
<a xlink:href="string_8h.html" target="_top" xlink:title="base/std_ext/string.h">
<polygon fill="white" stroke="black" points="460,-58.5 460,-79.5 568,-79.5 568,-58.5 460,-58.5"/>
<text text-anchor="middle" x="514" y="-66.5" font-family="Helvetica,sans-Serif" font-size="10.00">base/std_ext/string.h</text>
</a>
</g>
<!-- Node13&#45;&gt;Node14 -->
<g id="edge28" class="edge"><title>Node13&#45;&gt;Node14</title>
<path fill="none" stroke="midnightblue" d="M541.764,-116.362C537.163,-108.513 530.775,-97.6159 525.286,-88.2527"/>
<polygon fill="midnightblue" stroke="midnightblue" points="528.273,-86.4276 520.197,-79.5707 522.234,-89.9677 528.273,-86.4276"/>
</g>
<!-- Node18 -->
<g id="node36" class="node"><title>Node18</title>
<polygon fill="white" stroke="#bfbfbf" points="586,-58.5 586,-79.5 632,-79.5 632,-58.5 586,-58.5"/>
<text text-anchor="middle" x="609" y="-66.5" font-family="Helvetica,sans-Serif" font-size="10.00">cstring</text>
</g>
<!-- Node13&#45;&gt;Node18 -->
<g id="edge36" class="edge"><title>Node13&#45;&gt;Node18</title>
<path fill="none" stroke="midnightblue" d="M559.188,-116.362C567.959,-108.023 580.349,-96.2418 590.578,-86.5162"/>
<polygon fill="midnightblue" stroke="midnightblue" points="593.047,-88.9978 597.883,-79.5707 588.224,-83.9248 593.047,-88.9978"/>
</g>
<!-- Node13&#45;&gt;Node19 -->
<g id="edge38" class="edge"><title>Node13&#45;&gt;Node19</title>
<path fill="none" stroke="midnightblue" d="M519.206,-116.497C491.028,-106.218 448.263,-90.6178 419.51,-80.1293"/>
<polygon fill="midnightblue" stroke="midnightblue" points="420.564,-76.7885 409.97,-76.6496 418.165,-83.3646 420.564,-76.7885"/>
</g>
<!-- Node15 -->
<g id="node30" class="node"><title>Node15</title>
<polygon fill="white" stroke="#bfbfbf" points="429.5,-0.5 429.5,-21.5 470.5,-21.5 470.5,-0.5 429.5,-0.5"/>
<text text-anchor="middle" x="450" y="-8.5" font-family="Helvetica,sans-Serif" font-size="10.00">string</text>
</g>
<!-- Node14&#45;&gt;Node15 -->
<g id="edge30" class="edge"><title>Node14&#45;&gt;Node15</title>
<path fill="none" stroke="midnightblue" d="M502.261,-58.3619C493.059,-50.0226 480.06,-38.2418 469.328,-28.5162"/>
<polygon fill="midnightblue" stroke="midnightblue" points="471.424,-25.6924 461.664,-21.5707 466.724,-30.8793 471.424,-25.6924"/>
</g>
<!-- Node16 -->
<g id="node32" class="node"><title>Node16</title>
<polygon fill="white" stroke="#bfbfbf" points="488,-0.5 488,-21.5 540,-21.5 540,-0.5 488,-0.5"/>
<text text-anchor="middle" x="514" y="-8.5" font-family="Helvetica,sans-Serif" font-size="10.00">sstream</text>
</g>
<!-- Node14&#45;&gt;Node16 -->
<g id="edge32" class="edge"><title>Node14&#45;&gt;Node16</title>
<path fill="none" stroke="midnightblue" d="M514,-58.3619C514,-50.9219 514,-40.7427 514,-31.7276"/>
<polygon fill="midnightblue" stroke="midnightblue" points="517.5,-31.5706 514,-21.5707 510.5,-31.5707 517.5,-31.5706"/>
</g>
<!-- Node17 -->
<g id="node34" class="node"><title>Node17</title>
<polygon fill="white" stroke="#bfbfbf" points="558,-0.5 558,-21.5 614,-21.5 614,-0.5 558,-0.5"/>
<text text-anchor="middle" x="586" y="-8.5" font-family="Helvetica,sans-Serif" font-size="10.00">algorithm</text>
</g>
<!-- Node14&#45;&gt;Node17 -->
<g id="edge34" class="edge"><title>Node14&#45;&gt;Node17</title>
<path fill="none" stroke="midnightblue" d="M527.206,-58.3619C537.761,-49.859 552.758,-37.7785 564.963,-27.9466"/>
<polygon fill="midnightblue" stroke="midnightblue" points="567.286,-30.5696 572.878,-21.5707 562.895,-25.1183 567.286,-30.5696"/>
</g>
</g>
</svg>
