<?xml version="1.0" encoding="UTF-8" standalone="no"?>
<!DOCTYPE svg PUBLIC "-//W3C//DTD SVG 1.1//EN"
 "http://www.w3.org/Graphics/SVG/1.1/DTD/svg11.dtd">
<!-- Generated by graphviz version 2.26.3 (20100126.1600)
 -->
<!-- Title: src/analysis/input/detail/SlowcontrolCreator.h Pages: 1 -->
<svg width="855pt" height="392pt"
 viewBox="0.00 0.00 854.86 392.00" xmlns="http://www.w3.org/2000/svg" xmlns:xlink="http://www.w3.org/1999/xlink">
<g id="graph1" class="graph" transform="scale(1 1) rotate(0) translate(4 388)">
<title>src/analysis/input/detail/SlowcontrolCreator.h</title>
<polygon fill="white" stroke="white" points="-4,5 -4,-388 851.86,-388 851.86,5 -4,5"/>
<!-- Node1 -->
<g id="node1" class="node"><title>Node1</title>
<polygon fill="#bfbfbf" stroke="black" points="318.36,-349 318.36,-383 455.36,-383 455.36,-349 318.36,-349"/>
<text text-anchor="start" x="326.36" y="-370" font-family="Helvetica,sans-Serif" font-size="10.00">src/analysis/input</text>
<text text-anchor="middle" x="386.86" y="-357" font-family="Helvetica,sans-Serif" font-size="10.00">/detail/SlowcontrolCreator.h</text>
</g>
<!-- Node2 -->
<g id="node3" class="node"><title>Node2</title>
<a xlink:href="_slowcontrol_8h.html" target="_top" xlink:title="data/Slowcontrol.h">
<polygon fill="white" stroke="black" points="55.8596,-232.5 55.8596,-253.5 153.86,-253.5 153.86,-232.5 55.8596,-232.5"/>
<text text-anchor="middle" x="104.86" y="-240.5" font-family="Helvetica,sans-Serif" font-size="10.00">data/Slowcontrol.h</text>
</a>
</g>
<!-- Node1&#45;&gt;Node2 -->
<g id="edge2" class="edge"><title>Node1&#45;&gt;Node2</title>
<path fill="none" stroke="midnightblue" d="M347.649,-348.897C291.942,-324.6 190.847,-280.505 138.417,-257.637"/>
<polygon fill="midnightblue" stroke="midnightblue" points="139.781,-254.413 129.216,-253.623 136.982,-260.83 139.781,-254.413"/>
</g>
<!-- Node4 -->
<g id="node7" class="node"><title>Node4</title>
<a xlink:href="_t_slow_control_8h.html" target="_top" xlink:title="tree/TSlowControl.h">
<polygon fill="white" stroke="black" points="334.86,-290.5 334.86,-311.5 438.86,-311.5 438.86,-290.5 334.86,-290.5"/>
<text text-anchor="middle" x="386.86" y="-298.5" font-family="Helvetica,sans-Serif" font-size="10.00">tree/TSlowControl.h</text>
</a>
</g>
<!-- Node1&#45;&gt;Node4 -->
<g id="edge6" class="edge"><title>Node1&#45;&gt;Node4</title>
<path fill="none" stroke="midnightblue" d="M386.86,-348.922C386.86,-340.67 386.86,-330.692 386.86,-321.982"/>
<polygon fill="midnightblue" stroke="midnightblue" points="390.36,-321.852 386.86,-311.852 383.36,-321.852 390.36,-321.852"/>
</g>
<!-- Node22 -->
<g id="node50" class="node"><title>Node22</title>
<polygon fill="white" stroke="#bfbfbf" points="456.36,-290.5 456.36,-311.5 485.36,-311.5 485.36,-290.5 456.36,-290.5"/>
<text text-anchor="middle" x="470.86" y="-298.5" font-family="Helvetica,sans-Serif" font-size="10.00">list</text>
</g>
<!-- Node1&#45;&gt;Node22 -->
<g id="edge56" class="edge"><title>Node1&#45;&gt;Node22</title>
<path fill="none" stroke="midnightblue" d="M408.93,-348.922C421.252,-339.387 436.554,-327.546 448.864,-318.02"/>
<polygon fill="midnightblue" stroke="midnightblue" points="451.069,-320.74 456.835,-311.852 446.785,-315.204 451.069,-320.74"/>
</g>
<!-- Node3 -->
<g id="node5" class="node"><title>Node3</title>
<polygon fill="white" stroke="#bfbfbf" points="30.8596,-58.5 30.8596,-79.5 74.8596,-79.5 74.8596,-58.5 30.8596,-58.5"/>
<text text-anchor="middle" x="52.8596" y="-66.5" font-family="Helvetica,sans-Serif" font-size="10.00">vector</text>
</g>
<!-- Node2&#45;&gt;Node3 -->
<g id="edge4" class="edge"><title>Node2&#45;&gt;Node3</title>
<path fill="none" stroke="midnightblue" d="M88.5776,-232.496C64.4676,-215.849 20.2501,-180.86 2.85955,-138 -0.816686,-128.94 -1.02143,-124.975 2.85955,-116 7.97988,-104.16 17.714,-93.9269 27.2429,-86.0602"/>
<polygon fill="midnightblue" stroke="midnightblue" points="29.6351,-88.6365 35.4427,-79.7752 25.3767,-83.0807 29.6351,-88.6365"/>
</g>
<!-- Node5 -->
<g id="node9" class="node"><title>Node5</title>
<a xlink:href="_t_data_record_8h.html" target="_top" xlink:title="TDataRecord.h">
<polygon fill="white" stroke="black" points="413.36,-232.5 413.36,-253.5 496.36,-253.5 496.36,-232.5 413.36,-232.5"/>
<text text-anchor="middle" x="454.86" y="-240.5" font-family="Helvetica,sans-Serif" font-size="10.00">TDataRecord.h</text>
</a>
</g>
<!-- Node4&#45;&gt;Node5 -->
<g id="edge8" class="edge"><title>Node4&#45;&gt;Node5</title>
<path fill="none" stroke="midnightblue" d="M399.332,-290.362C409.205,-281.941 423.192,-270.011 434.658,-260.231"/>
<polygon fill="midnightblue" stroke="midnightblue" points="437.129,-262.723 442.466,-253.571 432.587,-257.397 437.129,-262.723"/>
</g>
<!-- Node10 -->
<g id="node20" class="node"><title>Node10</title>
<a xlink:href="time_8h.html" target="_top" xlink:title="base/std_ext/time.h">
<polygon fill="white" stroke="black" points="609.36,-116.5 609.36,-137.5 712.36,-137.5 712.36,-116.5 609.36,-116.5"/>
<text text-anchor="middle" x="660.86" y="-124.5" font-family="Helvetica,sans-Serif" font-size="10.00">base/std_ext/time.h</text>
</a>
</g>
<!-- Node4&#45;&gt;Node10 -->
<g id="edge52" class="edge"><title>Node4&#45;&gt;Node10</title>
<path fill="none" stroke="midnightblue" d="M421.191,-290.427C445.446,-282.228 478.241,-269.638 504.86,-254 559.398,-221.96 614.852,-171.685 642.626,-145.016"/>
<polygon fill="midnightblue" stroke="midnightblue" points="645.274,-147.324 650.014,-137.849 640.4,-142.3 645.274,-147.324"/>
</g>
<!-- Node18 -->
<g id="node36" class="node"><title>Node18</title>
<polygon fill="white" stroke="#bfbfbf" points="11.8596,-116.5 11.8596,-137.5 49.8596,-137.5 49.8596,-116.5 11.8596,-116.5"/>
<text text-anchor="middle" x="30.8596" y="-124.5" font-family="Helvetica,sans-Serif" font-size="10.00">tuple</text>
</g>
<!-- Node4&#45;&gt;Node18 -->
<g id="edge54" class="edge"><title>Node4&#45;&gt;Node18</title>
<path fill="none" stroke="midnightblue" d="M365.126,-290.377C303.561,-260.287 127.998,-174.478 59.1,-140.803"/>
<polygon fill="midnightblue" stroke="midnightblue" points="60.6303,-137.655 50.1091,-136.408 57.5565,-143.944 60.6303,-137.655"/>
</g>
<!-- Node6 -->
<g id="node11" class="node"><title>Node6</title>
<a xlink:href="_t_i_d_8h.html" target="_top" xlink:title="TID.h">
<polygon fill="white" stroke="black" points="355.36,-174.5 355.36,-195.5 396.36,-195.5 396.36,-174.5 355.36,-174.5"/>
<text text-anchor="middle" x="375.86" y="-182.5" font-family="Helvetica,sans-Serif" font-size="10.00">TID.h</text>
</a>
</g>
<!-- Node5&#45;&gt;Node6 -->
<g id="edge10" class="edge"><title>Node5&#45;&gt;Node6</title>
<path fill="none" stroke="midnightblue" d="M440.37,-232.362C428.677,-223.777 412.017,-211.546 398.556,-201.664"/>
<polygon fill="midnightblue" stroke="midnightblue" points="400.39,-198.667 390.258,-195.571 396.247,-204.31 400.39,-198.667"/>
</g>
<!-- Node7 -->
<g id="node13" class="node"><title>Node7</title>
<polygon fill="white" stroke="#bfbfbf" points="497.86,-116.5 497.86,-137.5 553.86,-137.5 553.86,-116.5 497.86,-116.5"/>
<text text-anchor="middle" x="525.86" y="-124.5" font-family="Helvetica,sans-Serif" font-size="10.00">Rtypes.h</text>
</g>
<!-- Node5&#45;&gt;Node7 -->
<g id="edge46" class="edge"><title>Node5&#45;&gt;Node7</title>
<path fill="none" stroke="midnightblue" d="M461.412,-232.295C473.353,-212.786 498.813,-171.188 513.913,-146.518"/>
<polygon fill="midnightblue" stroke="midnightblue" points="517.088,-148.036 519.323,-137.679 511.117,-144.381 517.088,-148.036"/>
</g>
<!-- Node16 -->
<g id="node32" class="node"><title>Node16</title>
<polygon fill="white" stroke="#bfbfbf" points="561.36,-58.5 561.36,-79.5 602.36,-79.5 602.36,-58.5 561.36,-58.5"/>
<text text-anchor="middle" x="581.86" y="-66.5" font-family="Helvetica,sans-Serif" font-size="10.00">ctime</text>
</g>
<!-- Node5&#45;&gt;Node16 -->
<g id="edge50" class="edge"><title>Node5&#45;&gt;Node16</title>
<path fill="none" stroke="midnightblue" d="M470.282,-232.32C493.843,-215.185 538.612,-179.258 562.86,-138 571.589,-123.147 576.436,-104.142 579.045,-89.8395"/>
<polygon fill="midnightblue" stroke="midnightblue" points="582.501,-90.3945 580.632,-79.9659 575.59,-89.2839 582.501,-90.3945"/>
</g>
<!-- Node21 -->
<g id="node42" class="node"><title>Node21</title>
<polygon fill="white" stroke="#bfbfbf" points="429.86,-116.5 429.86,-137.5 479.86,-137.5 479.86,-116.5 429.86,-116.5"/>
<text text-anchor="middle" x="454.86" y="-124.5" font-family="Helvetica,sans-Serif" font-size="10.00">iomanip</text>
</g>
<!-- Node5&#45;&gt;Node21 -->
<g id="edge48" class="edge"><title>Node5&#45;&gt;Node21</title>
<path fill="none" stroke="midnightblue" d="M454.86,-232.295C454.86,-213.131 454.86,-172.654 454.86,-147.843"/>
<polygon fill="midnightblue" stroke="midnightblue" points="458.36,-147.679 454.86,-137.679 451.36,-147.679 458.36,-147.679"/>
</g>
<!-- Node6&#45;&gt;Node7 -->
<g id="edge12" class="edge"><title>Node6&#45;&gt;Node7</title>
<path fill="none" stroke="midnightblue" d="M396.402,-177.057C420.191,-167.859 459.839,-152.528 489.002,-141.252"/>
<polygon fill="midnightblue" stroke="midnightblue" points="490.387,-144.468 498.452,-137.598 487.863,-137.94 490.387,-144.468"/>
</g>
<!-- Node8 -->
<g id="node15" class="node"><title>Node8</title>
<a xlink:href="printable_8h.html" target="_top" xlink:title="base/printable.h">
<polygon fill="white" stroke="black" points="143.86,-116.5 143.86,-137.5 229.86,-137.5 229.86,-116.5 143.86,-116.5"/>
<text text-anchor="middle" x="186.86" y="-124.5" font-family="Helvetica,sans-Serif" font-size="10.00">base/printable.h</text>
</a>
</g>
<!-- Node6&#45;&gt;Node8 -->
<g id="edge14" class="edge"><title>Node6&#45;&gt;Node8</title>
<path fill="none" stroke="midnightblue" d="M355.273,-178.683C325.55,-169.561 269.891,-152.481 230.714,-140.458"/>
<polygon fill="midnightblue" stroke="midnightblue" points="231.722,-137.106 221.135,-137.518 229.668,-143.798 231.722,-137.106"/>
</g>
<!-- Node6&#45;&gt;Node10 -->
<g id="edge20" class="edge"><title>Node6&#45;&gt;Node10</title>
<path fill="none" stroke="midnightblue" d="M396.816,-180.735C438.975,-172.156 535.459,-152.52 599.376,-139.512"/>
<polygon fill="midnightblue" stroke="midnightblue" points="600.241,-142.908 609.342,-137.484 598.845,-136.049 600.241,-142.908"/>
</g>
<!-- Node6&#45;&gt;Node16 -->
<g id="edge44" class="edge"><title>Node6&#45;&gt;Node16</title>
<path fill="none" stroke="midnightblue" d="M379.937,-174.423C386.338,-159.222 400.188,-131.342 420.86,-116 459.955,-86.9848 516.662,-75.8218 551.297,-71.5686"/>
<polygon fill="midnightblue" stroke="midnightblue" points="551.741,-75.0409 561.293,-70.4584 550.968,-68.0837 551.741,-75.0409"/>
</g>
<!-- Node17 -->
<g id="node34" class="node"><title>Node17</title>
<polygon fill="white" stroke="#bfbfbf" points="247.86,-116.5 247.86,-137.5 309.86,-137.5 309.86,-116.5 247.86,-116.5"/>
<text text-anchor="middle" x="278.86" y="-124.5" font-family="Helvetica,sans-Serif" font-size="10.00">type_traits</text>
</g>
<!-- Node6&#45;&gt;Node17 -->
<g id="edge34" class="edge"><title>Node6&#45;&gt;Node17</title>
<path fill="none" stroke="midnightblue" d="M358.068,-174.362C343.301,-165.532 322.081,-152.844 305.321,-142.822"/>
<polygon fill="midnightblue" stroke="midnightblue" points="306.917,-139.699 296.538,-137.571 303.325,-145.707 306.917,-139.699"/>
</g>
<!-- Node6&#45;&gt;Node18 -->
<g id="edge36" class="edge"><title>Node6&#45;&gt;Node18</title>
<path fill="none" stroke="midnightblue" d="M355.134,-183.564C305.437,-179.778 175.615,-167.866 59.6884,-137.744"/>
<polygon fill="midnightblue" stroke="midnightblue" points="60.5097,-134.341 49.9465,-135.16 58.7151,-141.107 60.5097,-134.341"/>
</g>
<!-- Node19 -->
<g id="node38" class="node"><title>Node19</title>
<polygon fill="white" stroke="#bfbfbf" points="327.86,-116.5 327.86,-137.5 373.86,-137.5 373.86,-116.5 327.86,-116.5"/>
<text text-anchor="middle" x="350.86" y="-124.5" font-family="Helvetica,sans-Serif" font-size="10.00">cstdint</text>
</g>
<!-- Node6&#45;&gt;Node19 -->
<g id="edge38" class="edge"><title>Node6&#45;&gt;Node19</title>
<path fill="none" stroke="midnightblue" d="M371.274,-174.362C367.962,-166.677 363.389,-156.069 359.411,-146.84"/>
<polygon fill="midnightblue" stroke="midnightblue" points="362.588,-145.368 355.416,-137.571 356.16,-148.139 362.588,-145.368"/>
</g>
<!-- Node20 -->
<g id="node40" class="node"><title>Node20</title>
<polygon fill="white" stroke="#bfbfbf" points="67.3596,-116.5 67.3596,-137.5 126.36,-137.5 126.36,-116.5 67.3596,-116.5"/>
<text text-anchor="middle" x="96.8596" y="-124.5" font-family="Helvetica,sans-Serif" font-size="10.00">stdexcept</text>
</g>
<!-- Node6&#45;&gt;Node20 -->
<g id="edge40" class="edge"><title>Node6&#45;&gt;Node20</title>
<path fill="none" stroke="midnightblue" d="M355.093,-181.593C314.752,-174.839 222.82,-158.783 136.603,-138.289"/>
<polygon fill="midnightblue" stroke="midnightblue" points="137.204,-134.834 126.663,-135.9 135.568,-141.64 137.204,-134.834"/>
</g>
<!-- Node6&#45;&gt;Node21 -->
<g id="edge42" class="edge"><title>Node6&#45;&gt;Node21</title>
<path fill="none" stroke="midnightblue" d="M390.349,-174.362C402.042,-165.777 418.702,-153.546 432.163,-143.664"/>
<polygon fill="midnightblue" stroke="midnightblue" points="434.472,-146.31 440.462,-137.571 430.329,-140.667 434.472,-146.31"/>
</g>
<!-- Node8&#45;&gt;Node3 -->
<g id="edge16" class="edge"><title>Node8&#45;&gt;Node3</title>
<path fill="none" stroke="midnightblue" d="M162.593,-116.497C140.718,-107.028 108.413,-93.0456 84.5145,-82.7014"/>
<polygon fill="midnightblue" stroke="midnightblue" points="85.7319,-79.4146 75.1644,-78.6543 82.9513,-85.8387 85.7319,-79.4146"/>
</g>
<!-- Node9 -->
<g id="node18" class="node"><title>Node9</title>
<polygon fill="white" stroke="#bfbfbf" points="160.86,-58.5 160.86,-79.5 212.86,-79.5 212.86,-58.5 160.86,-58.5"/>
<text text-anchor="middle" x="186.86" y="-66.5" font-family="Helvetica,sans-Serif" font-size="10.00">ostream</text>
</g>
<!-- Node8&#45;&gt;Node9 -->
<g id="edge18" class="edge"><title>Node8&#45;&gt;Node9</title>
<path fill="none" stroke="midnightblue" d="M186.86,-116.362C186.86,-108.922 186.86,-98.7427 186.86,-89.7276"/>
<polygon fill="midnightblue" stroke="midnightblue" points="190.36,-89.5706 186.86,-79.5707 183.36,-89.5707 190.36,-89.5706"/>
</g>
<!-- Node11 -->
<g id="node22" class="node"><title>Node11</title>
<a xlink:href="string_8h.html" target="_top" xlink:title="base/std_ext/string.h">
<polygon fill="white" stroke="black" points="692.86,-58.5 692.86,-79.5 800.86,-79.5 800.86,-58.5 692.86,-58.5"/>
<text text-anchor="middle" x="746.86" y="-66.5" font-family="Helvetica,sans-Serif" font-size="10.00">base/std_ext/string.h</text>
</a>
</g>
<!-- Node10&#45;&gt;Node11 -->
<g id="edge22" class="edge"><title>Node10&#45;&gt;Node11</title>
<path fill="none" stroke="midnightblue" d="M676.633,-116.362C689.483,-107.696 707.844,-95.3126 722.569,-85.3819"/>
<polygon fill="midnightblue" stroke="midnightblue" points="724.852,-88.0639 731.186,-79.5707 720.938,-82.2604 724.852,-88.0639"/>
</g>
<!-- Node15 -->
<g id="node30" class="node"><title>Node15</title>
<polygon fill="white" stroke="#bfbfbf" points="628.86,-58.5 628.86,-79.5 674.86,-79.5 674.86,-58.5 628.86,-58.5"/>
<text text-anchor="middle" x="651.86" y="-66.5" font-family="Helvetica,sans-Serif" font-size="10.00">cstring</text>
</g>
<!-- Node10&#45;&gt;Node15 -->
<g id="edge30" class="edge"><title>Node10&#45;&gt;Node15</title>
<path fill="none" stroke="midnightblue" d="M659.209,-116.362C658.054,-108.922 656.475,-98.7427 655.076,-89.7276"/>
<polygon fill="midnightblue" stroke="midnightblue" points="658.492,-88.9157 653.5,-79.5707 651.575,-89.9891 658.492,-88.9157"/>
</g>
<!-- Node10&#45;&gt;Node16 -->
<g id="edge32" class="edge"><title>Node10&#45;&gt;Node16</title>
<path fill="none" stroke="midnightblue" d="M646.37,-116.362C634.677,-107.777 618.017,-95.5459 604.556,-85.6636"/>
<polygon fill="midnightblue" stroke="midnightblue" points="606.39,-82.6675 596.258,-79.5707 602.247,-88.31 606.39,-82.6675"/>
</g>
<!-- Node12 -->
<g id="node24" class="node"><title>Node12</title>
<polygon fill="white" stroke="#bfbfbf" points="662.36,-0.5 662.36,-21.5 703.36,-21.5 703.36,-0.5 662.36,-0.5"/>
<text text-anchor="middle" x="682.86" y="-8.5" font-family="Helvetica,sans-Serif" font-size="10.00">string</text>
</g>
<!-- Node11&#45;&gt;Node12 -->
<g id="edge24" class="edge"><title>Node11&#45;&gt;Node12</title>
<path fill="none" stroke="midnightblue" d="M735.121,-58.3619C725.919,-50.0226 712.92,-38.2418 702.188,-28.5162"/>
<polygon fill="midnightblue" stroke="midnightblue" points="704.284,-25.6924 694.524,-21.5707 699.583,-30.8793 704.284,-25.6924"/>
</g>
<!-- Node13 -->
<g id="node26" class="node"><title>Node13</title>
<polygon fill="white" stroke="#bfbfbf" points="720.86,-0.5 720.86,-21.5 772.86,-21.5 772.86,-0.5 720.86,-0.5"/>
<text text-anchor="middle" x="746.86" y="-8.5" font-family="Helvetica,sans-Serif" font-size="10.00">sstream</text>
</g>
<!-- Node11&#45;&gt;Node13 -->
<g id="edge26" class="edge"><title>Node11&#45;&gt;Node13</title>
<path fill="none" stroke="midnightblue" d="M746.86,-58.3619C746.86,-50.9219 746.86,-40.7427 746.86,-31.7276"/>
<polygon fill="midnightblue" stroke="midnightblue" points="750.36,-31.5706 746.86,-21.5707 743.36,-31.5707 750.36,-31.5706"/>
</g>
<!-- Node14 -->
<g id="node28" class="node"><title>Node14</title>
<polygon fill="white" stroke="#bfbfbf" points="790.86,-0.5 790.86,-21.5 846.86,-21.5 846.86,-0.5 790.86,-0.5"/>
<text text-anchor="middle" x="818.86" y="-8.5" font-family="Helvetica,sans-Serif" font-size="10.00">algorithm</text>
</g>
<!-- Node11&#45;&gt;Node14 -->
<g id="edge28" class="edge"><title>Node11&#45;&gt;Node14</title>
<path fill="none" stroke="midnightblue" d="M760.065,-58.3619C770.621,-49.859 785.617,-37.7785 797.822,-27.9466"/>
<polygon fill="midnightblue" stroke="midnightblue" points="800.145,-30.5696 805.737,-21.5707 795.754,-25.1183 800.145,-30.5696"/>
</g>
</g>
</svg>
