<?xml version="1.0" encoding="UTF-8" standalone="no"?>
<!DOCTYPE svg PUBLIC "-//W3C//DTD SVG 1.1//EN"
 "http://www.w3.org/Graphics/SVG/1.1/DTD/svg11.dtd">
<!-- Generated by graphviz version 2.26.3 (20100126.1600)
 -->
<!-- Title: src/analysis/plot/SmartHist.cc Pages: 1 -->
<svg width="900pt" height="320pt"
 viewBox="0.00 0.00 900.43 320.00" xmlns="http://www.w3.org/2000/svg" xmlns:xlink="http://www.w3.org/1999/xlink">
<g id="graph1" class="graph" transform="scale(1 1) rotate(0) translate(4 316)">
<title>src/analysis/plot/SmartHist.cc</title>
<polygon fill="white" stroke="white" points="-4,5 -4,-316 897.434,-316 897.434,5 -4,5"/>
<!-- Node1 -->
<g id="node1" class="node"><title>Node1</title>
<polygon fill="#bfbfbf" stroke="black" points="410.934,-290.5 410.934,-311.5 559.934,-311.5 559.934,-290.5 410.934,-290.5"/>
<text text-anchor="middle" x="485.434" y="-298.5" font-family="Helvetica,sans-Serif" font-size="10.00">src/analysis/plot/SmartHist.cc</text>
</g>
<!-- Node2 -->
<g id="node3" class="node"><title>Node2</title>
<a xlink:href="_smart_hist_8h.html" target="_top" xlink:title="plot/SmartHist.h">
<polygon fill="white" stroke="black" points="355.434,-232.5 355.434,-253.5 443.434,-253.5 443.434,-232.5 355.434,-232.5"/>
<text text-anchor="middle" x="399.434" y="-240.5" font-family="Helvetica,sans-Serif" font-size="10.00">plot/SmartHist.h</text>
</a>
</g>
<!-- Node1&#45;&gt;Node2 -->
<g id="edge2" class="edge"><title>Node1&#45;&gt;Node2</title>
<path fill="none" stroke="midnightblue" d="M469.66,-290.362C456.81,-281.696 438.449,-269.313 423.724,-259.382"/>
<polygon fill="midnightblue" stroke="midnightblue" points="425.355,-256.26 415.107,-253.571 421.441,-262.064 425.355,-256.26"/>
</g>
<!-- Node21 -->
<g id="node46" class="node"><title>Node21</title>
<polygon fill="white" stroke="#bfbfbf" points="645.934,-174.5 645.934,-195.5 696.934,-195.5 696.934,-174.5 645.934,-174.5"/>
<text text-anchor="middle" x="671.434" y="-182.5" font-family="Helvetica,sans-Serif" font-size="10.00">TH1D.h</text>
</g>
<!-- Node1&#45;&gt;Node21 -->
<g id="edge64" class="edge"><title>Node1&#45;&gt;Node21</title>
<path fill="none" stroke="midnightblue" d="M502.599,-290.295C535.486,-269.785 607.521,-224.859 646.007,-200.857"/>
<polygon fill="midnightblue" stroke="midnightblue" points="647.946,-203.773 654.579,-195.512 644.242,-197.834 647.946,-203.773"/>
</g>
<!-- Node3 -->
<g id="node5" class="node"><title>Node3</title>
<a xlink:href="_histogram_8h.html" target="_top" xlink:title="Histogram.h">
<polygon fill="white" stroke="black" points="558.434,-174.5 558.434,-195.5 628.434,-195.5 628.434,-174.5 558.434,-174.5"/>
<text text-anchor="middle" x="593.434" y="-182.5" font-family="Helvetica,sans-Serif" font-size="10.00">Histogram.h</text>
</a>
</g>
<!-- Node2&#45;&gt;Node3 -->
<g id="edge4" class="edge"><title>Node2&#45;&gt;Node3</title>
<path fill="none" stroke="midnightblue" d="M434.566,-232.497C466.467,-222.959 513.69,-208.841 548.362,-198.475"/>
<polygon fill="midnightblue" stroke="midnightblue" points="549.658,-201.741 558.236,-195.523 547.652,-195.034 549.658,-201.741"/>
</g>
<!-- Node6 -->
<g id="node11" class="node"><title>Node6</title>
<polygon fill="white" stroke="#bfbfbf" points="459.934,-116.5 459.934,-137.5 500.934,-137.5 500.934,-116.5 459.934,-116.5"/>
<text text-anchor="middle" x="480.434" y="-124.5" font-family="Helvetica,sans-Serif" font-size="10.00">string</text>
</g>
<!-- Node2&#45;&gt;Node6 -->
<g id="edge58" class="edge"><title>Node2&#45;&gt;Node6</title>
<path fill="none" stroke="midnightblue" d="M443.658,-236.501C468.052,-230.41 496.373,-218.653 511.434,-196 522.009,-180.093 510.56,-159.987 498.699,-145.589"/>
<polygon fill="midnightblue" stroke="midnightblue" points="501.086,-143.005 491.832,-137.846 495.849,-147.65 501.086,-143.005"/>
</g>
<!-- Node14 -->
<g id="node28" class="node"><title>Node14</title>
<a xlink:href="root__draw_8h.html" target="_top" xlink:title="root_draw.h">
<polygon fill="white" stroke="black" points="150.434,-174.5 150.434,-195.5 218.434,-195.5 218.434,-174.5 150.434,-174.5"/>
<text text-anchor="middle" x="184.434" y="-182.5" font-family="Helvetica,sans-Serif" font-size="10.00">root_draw.h</text>
</a>
</g>
<!-- Node2&#45;&gt;Node14 -->
<g id="edge28" class="edge"><title>Node2&#45;&gt;Node14</title>
<path fill="none" stroke="midnightblue" d="M360.499,-232.497C323.286,-222.458 267.26,-207.344 228.444,-196.873"/>
<polygon fill="midnightblue" stroke="midnightblue" points="229.043,-193.409 218.476,-194.184 227.219,-200.167 229.043,-193.409"/>
</g>
<!-- Node17 -->
<g id="node36" class="node"><title>Node17</title>
<polygon fill="white" stroke="#bfbfbf" points="18.4338,-116.5 18.4338,-137.5 70.4338,-137.5 70.4338,-116.5 18.4338,-116.5"/>
<text text-anchor="middle" x="44.4338" y="-124.5" font-family="Helvetica,sans-Serif" font-size="10.00">memory</text>
</g>
<!-- Node2&#45;&gt;Node17 -->
<g id="edge56" class="edge"><title>Node2&#45;&gt;Node17</title>
<path fill="none" stroke="midnightblue" d="M355.141,-240.972C257.056,-236.026 28.3585,-221.822 5.43377,-196 -8.25815,-180.578 7.44906,-159.564 22.8249,-144.791"/>
<polygon fill="midnightblue" stroke="midnightblue" points="25.6031,-146.998 30.6778,-137.698 20.9109,-141.803 25.6031,-146.998"/>
</g>
<!-- Node20 -->
<g id="node42" class="node"><title>Node20</title>
<a xlink:href="memory_8h.html" target="_top" xlink:title="base/std_ext/memory.h">
<polygon fill="white" stroke="black" points="13.9338,-174.5 13.9338,-195.5 132.934,-195.5 132.934,-174.5 13.9338,-174.5"/>
<text text-anchor="middle" x="73.4338" y="-182.5" font-family="Helvetica,sans-Serif" font-size="10.00">base/std_ext/memory.h</text>
</a>
</g>
<!-- Node2&#45;&gt;Node20 -->
<g id="edge44" class="edge"><title>Node2&#45;&gt;Node20</title>
<path fill="none" stroke="midnightblue" d="M355.129,-235.118C300.431,-225.386 206.786,-208.725 142.591,-197.304"/>
<polygon fill="midnightblue" stroke="midnightblue" points="143.01,-193.824 132.552,-195.518 141.784,-200.716 143.01,-193.824"/>
</g>
<!-- Node2&#45;&gt;Node21 -->
<g id="edge50" class="edge"><title>Node2&#45;&gt;Node21</title>
<path fill="none" stroke="midnightblue" d="M443.65,-235.876C489.64,-228.109 563.855,-214.579 636.181,-196.13"/>
<polygon fill="midnightblue" stroke="midnightblue" points="637.103,-199.506 645.909,-193.615 635.351,-192.729 637.103,-199.506"/>
</g>
<!-- Node22 -->
<g id="node48" class="node"><title>Node22</title>
<polygon fill="white" stroke="#bfbfbf" points="235.934,-174.5 235.934,-195.5 286.934,-195.5 286.934,-174.5 235.934,-174.5"/>
<text text-anchor="middle" x="261.434" y="-182.5" font-family="Helvetica,sans-Serif" font-size="10.00">TH2D.h</text>
</g>
<!-- Node2&#45;&gt;Node22 -->
<g id="edge52" class="edge"><title>Node2&#45;&gt;Node22</title>
<path fill="none" stroke="midnightblue" d="M374.443,-232.497C352.501,-223.275 320.368,-209.769 295.97,-199.515"/>
<polygon fill="midnightblue" stroke="midnightblue" points="297.28,-196.269 286.705,-195.621 294.568,-202.722 297.28,-196.269"/>
</g>
<!-- Node23 -->
<g id="node50" class="node"><title>Node23</title>
<polygon fill="white" stroke="#bfbfbf" points="303.934,-174.5 303.934,-195.5 354.934,-195.5 354.934,-174.5 303.934,-174.5"/>
<text text-anchor="middle" x="329.434" y="-182.5" font-family="Helvetica,sans-Serif" font-size="10.00">TH3D.h</text>
</g>
<!-- Node2&#45;&gt;Node23 -->
<g id="edge54" class="edge"><title>Node2&#45;&gt;Node23</title>
<path fill="none" stroke="midnightblue" d="M386.595,-232.362C376.431,-223.941 362.033,-212.011 350.23,-202.231"/>
<polygon fill="midnightblue" stroke="midnightblue" points="352.125,-199.256 342.191,-195.571 347.659,-204.646 352.125,-199.256"/>
</g>
<!-- Node24 -->
<g id="node54" class="node"><title>Node24</title>
<polygon fill="white" stroke="#bfbfbf" points="372.434,-174.5 372.434,-195.5 426.434,-195.5 426.434,-174.5 372.434,-174.5"/>
<text text-anchor="middle" x="399.434" y="-182.5" font-family="Helvetica,sans-Serif" font-size="10.00">iostream</text>
</g>
<!-- Node2&#45;&gt;Node24 -->
<g id="edge60" class="edge"><title>Node2&#45;&gt;Node24</title>
<path fill="none" stroke="midnightblue" d="M399.434,-232.362C399.434,-224.922 399.434,-214.743 399.434,-205.728"/>
<polygon fill="midnightblue" stroke="midnightblue" points="402.934,-205.571 399.434,-195.571 395.934,-205.571 402.934,-205.571"/>
</g>
<!-- Node25 -->
<g id="node56" class="node"><title>Node25</title>
<polygon fill="white" stroke="#bfbfbf" points="443.934,-174.5 443.934,-195.5 502.934,-195.5 502.934,-174.5 443.934,-174.5"/>
<text text-anchor="middle" x="473.434" y="-182.5" font-family="Helvetica,sans-Serif" font-size="10.00">exception</text>
</g>
<!-- Node2&#45;&gt;Node25 -->
<g id="edge62" class="edge"><title>Node2&#45;&gt;Node25</title>
<path fill="none" stroke="midnightblue" d="M413.007,-232.362C423.855,-223.859 439.268,-211.779 451.812,-201.947"/>
<polygon fill="midnightblue" stroke="midnightblue" points="454.236,-204.494 459.947,-195.571 449.917,-198.985 454.236,-204.494"/>
</g>
<!-- Node4 -->
<g id="node7" class="node"><title>Node4</title>
<polygon fill="white" stroke="#bfbfbf" points="566.434,-116.5 566.434,-137.5 620.434,-137.5 620.434,-116.5 566.434,-116.5"/>
<text text-anchor="middle" x="593.434" y="-124.5" font-family="Helvetica,sans-Serif" font-size="10.00">TColor.h</text>
</g>
<!-- Node3&#45;&gt;Node4 -->
<g id="edge6" class="edge"><title>Node3&#45;&gt;Node4</title>
<path fill="none" stroke="midnightblue" d="M593.434,-174.362C593.434,-166.922 593.434,-156.743 593.434,-147.728"/>
<polygon fill="midnightblue" stroke="midnightblue" points="596.934,-147.571 593.434,-137.571 589.934,-147.571 596.934,-147.571"/>
</g>
<!-- Node5 -->
<g id="node9" class="node"><title>Node5</title>
<polygon fill="white" stroke="#bfbfbf" points="506.434,-0.5 506.434,-21.5 550.434,-21.5 550.434,-0.5 506.434,-0.5"/>
<text text-anchor="middle" x="528.434" y="-8.5" font-family="Helvetica,sans-Serif" font-size="10.00">vector</text>
</g>
<!-- Node3&#45;&gt;Node5 -->
<g id="edge8" class="edge"><title>Node3&#45;&gt;Node5</title>
<path fill="none" stroke="midnightblue" d="M583.071,-174.315C574.922,-165.326 563.9,-151.769 557.434,-138 540.936,-102.871 533.525,-57.771 530.432,-31.8531"/>
<polygon fill="midnightblue" stroke="midnightblue" points="533.888,-31.2642 529.327,-21.7016 526.93,-32.0217 533.888,-31.2642"/>
</g>
<!-- Node3&#45;&gt;Node6 -->
<g id="edge10" class="edge"><title>Node3&#45;&gt;Node6</title>
<path fill="none" stroke="midnightblue" d="M572.97,-174.497C555.401,-165.479 529.852,-152.365 510.049,-142.201"/>
<polygon fill="midnightblue" stroke="midnightblue" points="511.622,-139.074 501.127,-137.621 508.425,-145.301 511.622,-139.074"/>
</g>
<!-- Node7 -->
<g id="node13" class="node"><title>Node7</title>
<a xlink:href="interval_8h.html" target="_top" xlink:title="base/interval.h">
<polygon fill="white" stroke="black" points="658.434,-116.5 658.434,-137.5 738.434,-137.5 738.434,-116.5 658.434,-116.5"/>
<text text-anchor="middle" x="698.434" y="-124.5" font-family="Helvetica,sans-Serif" font-size="10.00">base/interval.h</text>
</a>
</g>
<!-- Node3&#45;&gt;Node7 -->
<g id="edge12" class="edge"><title>Node3&#45;&gt;Node7</title>
<path fill="none" stroke="midnightblue" d="M612.692,-174.362C628.9,-165.409 652.287,-152.491 670.543,-142.406"/>
<polygon fill="midnightblue" stroke="midnightblue" points="672.236,-145.47 679.297,-137.571 668.852,-139.342 672.236,-145.47"/>
</g>
<!-- Node8 -->
<g id="node15" class="node"><title>Node8</title>
<polygon fill="white" stroke="#bfbfbf" points="680.434,-58.5 680.434,-79.5 736.434,-79.5 736.434,-58.5 680.434,-58.5"/>
<text text-anchor="middle" x="708.434" y="-66.5" font-family="Helvetica,sans-Serif" font-size="10.00">algorithm</text>
</g>
<!-- Node7&#45;&gt;Node8 -->
<g id="edge14" class="edge"><title>Node7&#45;&gt;Node8</title>
<path fill="none" stroke="midnightblue" d="M700.268,-116.362C701.565,-108.84 703.344,-98.5187 704.911,-89.4308"/>
<polygon fill="midnightblue" stroke="midnightblue" points="708.361,-90.02 706.611,-79.5707 701.463,-88.8306 708.361,-90.02"/>
</g>
<!-- Node9 -->
<g id="node17" class="node"><title>Node9</title>
<polygon fill="white" stroke="#bfbfbf" points="753.934,-58.5 753.934,-79.5 812.934,-79.5 812.934,-58.5 753.934,-58.5"/>
<text text-anchor="middle" x="783.434" y="-66.5" font-family="Helvetica,sans-Serif" font-size="10.00">stdexcept</text>
</g>
<!-- Node7&#45;&gt;Node9 -->
<g id="edge16" class="edge"><title>Node7&#45;&gt;Node9</title>
<path fill="none" stroke="midnightblue" d="M714.024,-116.362C726.725,-107.696 744.872,-95.3126 759.426,-85.3819"/>
<polygon fill="midnightblue" stroke="midnightblue" points="761.655,-88.0982 767.942,-79.5707 757.709,-82.316 761.655,-88.0982"/>
</g>
<!-- Node10 -->
<g id="node19" class="node"><title>Node10</title>
<a xlink:href="printable_8h.html" target="_top" xlink:title="printable.h">
<polygon fill="white" stroke="black" points="830.434,-58.5 830.434,-79.5 892.434,-79.5 892.434,-58.5 830.434,-58.5"/>
<text text-anchor="middle" x="861.434" y="-66.5" font-family="Helvetica,sans-Serif" font-size="10.00">printable.h</text>
</a>
</g>
<!-- Node7&#45;&gt;Node10 -->
<g id="edge18" class="edge"><title>Node7&#45;&gt;Node10</title>
<path fill="none" stroke="midnightblue" d="M727.952,-116.497C754.41,-107.082 793.413,-93.2036 822.434,-82.8773"/>
<polygon fill="midnightblue" stroke="midnightblue" points="823.612,-86.173 831.86,-79.5231 821.266,-79.578 823.612,-86.173"/>
</g>
<!-- Node12 -->
<g id="node24" class="node"><title>Node12</title>
<a xlink:href="types_8h.html" target="_top" xlink:title="types.h">
<polygon fill="white" stroke="black" points="555.934,-58.5 555.934,-79.5 604.934,-79.5 604.934,-58.5 555.934,-58.5"/>
<text text-anchor="middle" x="580.434" y="-66.5" font-family="Helvetica,sans-Serif" font-size="10.00">types.h</text>
</a>
</g>
<!-- Node7&#45;&gt;Node12 -->
<g id="edge24" class="edge"><title>Node7&#45;&gt;Node12</title>
<path fill="none" stroke="midnightblue" d="M677.065,-116.497C658.635,-107.438 631.797,-94.2462 611.079,-84.0628"/>
<polygon fill="midnightblue" stroke="midnightblue" points="612.561,-80.8914 602.042,-79.6212 609.473,-87.1735 612.561,-80.8914"/>
</g>
<!-- Node13 -->
<g id="node26" class="node"><title>Node13</title>
<polygon fill="white" stroke="#bfbfbf" points="622.434,-58.5 622.434,-79.5 662.434,-79.5 662.434,-58.5 622.434,-58.5"/>
<text text-anchor="middle" x="642.434" y="-66.5" font-family="Helvetica,sans-Serif" font-size="10.00">limits</text>
</g>
<!-- Node7&#45;&gt;Node13 -->
<g id="edge26" class="edge"><title>Node7&#45;&gt;Node13</title>
<path fill="none" stroke="midnightblue" d="M688.163,-116.362C680.19,-108.104 668.959,-96.4725 659.623,-86.8029"/>
<polygon fill="midnightblue" stroke="midnightblue" points="662.104,-84.3336 652.64,-79.5707 657.068,-89.1958 662.104,-84.3336"/>
</g>
<!-- Node10&#45;&gt;Node5 -->
<g id="edge20" class="edge"><title>Node10&#45;&gt;Node5</title>
<path fill="none" stroke="midnightblue" d="M830.071,-60.0267C827.161,-59.2996 824.249,-58.611 821.434,-58 727.506,-37.6155 614.87,-21.9805 560.678,-14.9986"/>
<polygon fill="midnightblue" stroke="midnightblue" points="561.004,-11.5119 550.642,-13.7187 560.118,-18.4557 561.004,-11.5119"/>
</g>
<!-- Node11 -->
<g id="node22" class="node"><title>Node11</title>
<polygon fill="white" stroke="#bfbfbf" points="835.434,-0.5 835.434,-21.5 887.434,-21.5 887.434,-0.5 835.434,-0.5"/>
<text text-anchor="middle" x="861.434" y="-8.5" font-family="Helvetica,sans-Serif" font-size="10.00">ostream</text>
</g>
<!-- Node10&#45;&gt;Node11 -->
<g id="edge22" class="edge"><title>Node10&#45;&gt;Node11</title>
<path fill="none" stroke="midnightblue" d="M861.434,-58.3619C861.434,-50.9219 861.434,-40.7427 861.434,-31.7276"/>
<polygon fill="midnightblue" stroke="midnightblue" points="864.934,-31.5706 861.434,-21.5707 857.934,-31.5707 864.934,-31.5706"/>
</g>
<!-- Node14&#45;&gt;Node5 -->
<g id="edge34" class="edge"><title>Node14&#45;&gt;Node5</title>
<path fill="none" stroke="midnightblue" d="M218.563,-176.338C248.115,-168.243 291.622,-154.882 327.434,-138 396.274,-105.547 470.215,-53.9643 506.202,-27.6404"/>
<polygon fill="midnightblue" stroke="midnightblue" points="508.534,-30.2696 514.507,-21.5191 504.381,-24.6348 508.534,-30.2696"/>
</g>
<!-- Node14&#45;&gt;Node6 -->
<g id="edge30" class="edge"><title>Node14&#45;&gt;Node6</title>
<path fill="none" stroke="midnightblue" d="M218.652,-176.027C221.616,-175.316 224.574,-174.631 227.434,-174 307.133,-156.424 401.921,-139.998 449.677,-132.032"/>
<polygon fill="midnightblue" stroke="midnightblue" points="450.386,-135.462 459.679,-130.373 449.241,-128.557 450.386,-135.462"/>
</g>
<!-- Node15 -->
<g id="node31" class="node"><title>Node15</title>
<polygon fill="white" stroke="#bfbfbf" points="87.9338,-116.5 87.9338,-137.5 116.934,-137.5 116.934,-116.5 87.9338,-116.5"/>
<text text-anchor="middle" x="102.434" y="-124.5" font-family="Helvetica,sans-Serif" font-size="10.00">list</text>
</g>
<!-- Node14&#45;&gt;Node15 -->
<g id="edge32" class="edge"><title>Node14&#45;&gt;Node15</title>
<path fill="none" stroke="midnightblue" d="M169.394,-174.362C157.065,-165.641 139.415,-153.158 125.331,-143.196"/>
<polygon fill="midnightblue" stroke="midnightblue" points="127.288,-140.293 117.103,-137.376 123.246,-146.008 127.288,-140.293"/>
</g>
<!-- Node16 -->
<g id="node34" class="node"><title>Node16</title>
<polygon fill="white" stroke="#bfbfbf" points="133.934,-116.5 133.934,-137.5 168.934,-137.5 168.934,-116.5 133.934,-116.5"/>
<text text-anchor="middle" x="151.434" y="-124.5" font-family="Helvetica,sans-Serif" font-size="10.00">map</text>
</g>
<!-- Node14&#45;&gt;Node16 -->
<g id="edge36" class="edge"><title>Node14&#45;&gt;Node16</title>
<path fill="none" stroke="midnightblue" d="M178.381,-174.362C173.962,-166.595 167.844,-155.843 162.555,-146.546"/>
<polygon fill="midnightblue" stroke="midnightblue" points="165.435,-144.531 157.448,-137.571 159.351,-147.993 165.435,-144.531"/>
</g>
<!-- Node14&#45;&gt;Node17 -->
<g id="edge38" class="edge"><title>Node14&#45;&gt;Node17</title>
<path fill="none" stroke="midnightblue" d="M159.081,-174.497C136.821,-165.275 104.222,-151.769 79.4706,-141.515"/>
<polygon fill="midnightblue" stroke="midnightblue" points="80.6494,-138.215 70.0712,-137.621 77.9701,-144.682 80.6494,-138.215"/>
</g>
<!-- Node18 -->
<g id="node38" class="node"><title>Node18</title>
<polygon fill="white" stroke="#bfbfbf" points="185.934,-116.5 185.934,-137.5 244.934,-137.5 244.934,-116.5 185.934,-116.5"/>
<text text-anchor="middle" x="215.434" y="-124.5" font-family="Helvetica,sans-Serif" font-size="10.00">functional</text>
</g>
<!-- Node14&#45;&gt;Node18 -->
<g id="edge40" class="edge"><title>Node14&#45;&gt;Node18</title>
<path fill="none" stroke="midnightblue" d="M190.12,-174.362C194.271,-166.595 200.018,-155.843 204.987,-146.546"/>
<polygon fill="midnightblue" stroke="midnightblue" points="208.157,-148.04 209.784,-137.571 201.983,-144.74 208.157,-148.04"/>
</g>
<!-- Node19 -->
<g id="node40" class="node"><title>Node19</title>
<polygon fill="white" stroke="#bfbfbf" points="262.434,-116.5 262.434,-137.5 318.434,-137.5 318.434,-116.5 262.434,-116.5"/>
<text text-anchor="middle" x="290.434" y="-124.5" font-family="Helvetica,sans-Serif" font-size="10.00">Rtypes.h</text>
</g>
<!-- Node14&#45;&gt;Node19 -->
<g id="edge42" class="edge"><title>Node14&#45;&gt;Node19</title>
<path fill="none" stroke="midnightblue" d="M203.876,-174.362C220.237,-165.409 243.847,-152.491 262.277,-142.406"/>
<polygon fill="midnightblue" stroke="midnightblue" points="264.022,-145.441 271.115,-137.571 260.662,-139.3 264.022,-145.441"/>
</g>
<!-- Node20&#45;&gt;Node15 -->
<g id="edge48" class="edge"><title>Node20&#45;&gt;Node15</title>
<path fill="none" stroke="midnightblue" d="M78.7528,-174.362C82.6363,-166.595 88.0125,-155.843 92.6609,-146.546"/>
<polygon fill="midnightblue" stroke="midnightblue" points="95.8067,-148.08 97.1484,-137.571 89.5458,-144.95 95.8067,-148.08"/>
</g>
<!-- Node20&#45;&gt;Node17 -->
<g id="edge46" class="edge"><title>Node20&#45;&gt;Node17</title>
<path fill="none" stroke="midnightblue" d="M68.1147,-174.362C64.2312,-166.595 58.8551,-155.843 54.2067,-146.546"/>
<polygon fill="midnightblue" stroke="midnightblue" points="57.3218,-144.95 49.7191,-137.571 51.0608,-148.08 57.3218,-144.95"/>
</g>
</g>
</svg>
