<?xml version="1.0" encoding="UTF-8" standalone="no"?>
<!DOCTYPE svg PUBLIC "-//W3C//DTD SVG 1.1//EN"
 "http://www.w3.org/Graphics/SVG/1.1/DTD/svg11.dtd">
<!-- Generated by graphviz version 2.26.3 (20100126.1600)
 -->
<!-- Title: src/analysis/plot/SmartHist.h Pages: 1 -->
<svg width="1134pt" height="262pt"
 viewBox="0.00 0.00 1134.00 262.00" xmlns="http://www.w3.org/2000/svg" xmlns:xlink="http://www.w3.org/1999/xlink">
<g id="graph1" class="graph" transform="scale(1 1) rotate(0) translate(4 258)">
<title>src/analysis/plot/SmartHist.h</title>
<polygon fill="white" stroke="white" points="-4,5 -4,-258 1131,-258 1131,5 -4,5"/>
<!-- Node1 -->
<g id="node1" class="node"><title>Node1</title>
<polygon fill="#bfbfbf" stroke="black" points="718.5,-232.5 718.5,-253.5 861.5,-253.5 861.5,-232.5 718.5,-232.5"/>
<text text-anchor="middle" x="790" y="-240.5" font-family="Helvetica,sans-Serif" font-size="10.00">src/analysis/plot/SmartHist.h</text>
</g>
<!-- Node2 -->
<g id="node3" class="node"><title>Node2</title>
<a xlink:href="_histogram_8h.html" target="_top" xlink:title="Histogram.h">
<polygon fill="white" stroke="black" points="329,-174.5 329,-195.5 399,-195.5 399,-174.5 329,-174.5"/>
<text text-anchor="middle" x="364" y="-182.5" font-family="Helvetica,sans-Serif" font-size="10.00">Histogram.h</text>
</a>
</g>
<!-- Node1&#45;&gt;Node2 -->
<g id="edge2" class="edge"><title>Node1&#45;&gt;Node2</title>
<path fill="none" stroke="midnightblue" d="M718.217,-233.227C630.006,-221.217 482.986,-201.2 409.181,-191.151"/>
<polygon fill="midnightblue" stroke="midnightblue" points="409.648,-187.683 399.267,-189.802 408.703,-194.619 409.648,-187.683"/>
</g>
<!-- Node5 -->
<g id="node9" class="node"><title>Node5</title>
<polygon fill="white" stroke="#bfbfbf" points="391.5,-116.5 391.5,-137.5 432.5,-137.5 432.5,-116.5 391.5,-116.5"/>
<text text-anchor="middle" x="412" y="-124.5" font-family="Helvetica,sans-Serif" font-size="10.00">string</text>
</g>
<!-- Node1&#45;&gt;Node5 -->
<g id="edge56" class="edge"><title>Node1&#45;&gt;Node5</title>
<path fill="none" stroke="midnightblue" d="M718.324,-237.842C663.406,-232.133 586.526,-220.29 523,-196 489.284,-183.108 454.608,-159.594 433.185,-143.637"/>
<polygon fill="midnightblue" stroke="midnightblue" points="435.204,-140.776 425.121,-137.52 430.973,-146.353 435.204,-140.776"/>
</g>
<!-- Node13 -->
<g id="node26" class="node"><title>Node13</title>
<a xlink:href="root__draw_8h.html" target="_top" xlink:title="root_draw.h">
<polygon fill="white" stroke="black" points="532,-174.5 532,-195.5 600,-195.5 600,-174.5 532,-174.5"/>
<text text-anchor="middle" x="566" y="-182.5" font-family="Helvetica,sans-Serif" font-size="10.00">root_draw.h</text>
</a>
</g>
<!-- Node1&#45;&gt;Node13 -->
<g id="edge26" class="edge"><title>Node1&#45;&gt;Node13</title>
<path fill="none" stroke="midnightblue" d="M749.435,-232.497C710.035,-222.295 650.391,-206.851 609.896,-196.366"/>
<polygon fill="midnightblue" stroke="midnightblue" points="610.595,-192.932 600.037,-193.813 608.84,-199.708 610.595,-192.932"/>
</g>
<!-- Node16 -->
<g id="node34" class="node"><title>Node16</title>
<polygon fill="white" stroke="#bfbfbf" points="736,-116.5 736,-137.5 788,-137.5 788,-116.5 736,-116.5"/>
<text text-anchor="middle" x="762" y="-124.5" font-family="Helvetica,sans-Serif" font-size="10.00">memory</text>
</g>
<!-- Node1&#45;&gt;Node16 -->
<g id="edge54" class="edge"><title>Node1&#45;&gt;Node16</title>
<path fill="none" stroke="midnightblue" d="M787.416,-232.295C782.77,-213.045 772.932,-172.289 766.95,-147.509"/>
<polygon fill="midnightblue" stroke="midnightblue" points="770.327,-146.579 764.578,-137.679 763.522,-148.221 770.327,-146.579"/>
</g>
<!-- Node19 -->
<g id="node40" class="node"><title>Node19</title>
<a xlink:href="memory_8h.html" target="_top" xlink:title="base/std_ext/memory.h">
<polygon fill="white" stroke="black" points="617.5,-174.5 617.5,-195.5 736.5,-195.5 736.5,-174.5 617.5,-174.5"/>
<text text-anchor="middle" x="677" y="-182.5" font-family="Helvetica,sans-Serif" font-size="10.00">base/std_ext/memory.h</text>
</a>
</g>
<!-- Node1&#45;&gt;Node19 -->
<g id="edge42" class="edge"><title>Node1&#45;&gt;Node19</title>
<path fill="none" stroke="midnightblue" d="M769.537,-232.497C751.967,-223.479 726.418,-210.365 706.615,-200.201"/>
<polygon fill="midnightblue" stroke="midnightblue" points="708.188,-197.074 697.693,-195.621 704.991,-203.301 708.188,-197.074"/>
</g>
<!-- Node20 -->
<g id="node44" class="node"><title>Node20</title>
<polygon fill="white" stroke="#bfbfbf" points="791.5,-174.5 791.5,-195.5 842.5,-195.5 842.5,-174.5 791.5,-174.5"/>
<text text-anchor="middle" x="817" y="-182.5" font-family="Helvetica,sans-Serif" font-size="10.00">TH1D.h</text>
</g>
<!-- Node1&#45;&gt;Node20 -->
<g id="edge48" class="edge"><title>Node1&#45;&gt;Node20</title>
<path fill="none" stroke="midnightblue" d="M794.952,-232.362C798.53,-224.677 803.468,-214.069 807.764,-204.84"/>
<polygon fill="midnightblue" stroke="midnightblue" points="811.032,-206.114 812.079,-195.571 804.686,-203.159 811.032,-206.114"/>
</g>
<!-- Node21 -->
<g id="node46" class="node"><title>Node21</title>
<polygon fill="white" stroke="#bfbfbf" points="859.5,-174.5 859.5,-195.5 910.5,-195.5 910.5,-174.5 859.5,-174.5"/>
<text text-anchor="middle" x="885" y="-182.5" font-family="Helvetica,sans-Serif" font-size="10.00">TH2D.h</text>
</g>
<!-- Node1&#45;&gt;Node21 -->
<g id="edge50" class="edge"><title>Node1&#45;&gt;Node21</title>
<path fill="none" stroke="midnightblue" d="M807.424,-232.362C821.887,-223.532 842.669,-210.844 859.084,-200.822"/>
<polygon fill="midnightblue" stroke="midnightblue" points="860.975,-203.769 867.686,-195.571 857.327,-197.794 860.975,-203.769"/>
</g>
<!-- Node22 -->
<g id="node48" class="node"><title>Node22</title>
<polygon fill="white" stroke="#bfbfbf" points="927.5,-174.5 927.5,-195.5 978.5,-195.5 978.5,-174.5 927.5,-174.5"/>
<text text-anchor="middle" x="953" y="-182.5" font-family="Helvetica,sans-Serif" font-size="10.00">TH3D.h</text>
</g>
<!-- Node1&#45;&gt;Node22 -->
<g id="edge52" class="edge"><title>Node1&#45;&gt;Node22</title>
<path fill="none" stroke="midnightblue" d="M819.518,-232.497C847.213,-222.642 888.652,-207.897 918.001,-197.454"/>
<polygon fill="midnightblue" stroke="midnightblue" points="919.205,-200.74 927.453,-194.09 916.858,-194.145 919.205,-200.74"/>
</g>
<!-- Node23 -->
<g id="node52" class="node"><title>Node23</title>
<polygon fill="white" stroke="#bfbfbf" points="996,-174.5 996,-195.5 1050,-195.5 1050,-174.5 996,-174.5"/>
<text text-anchor="middle" x="1023" y="-182.5" font-family="Helvetica,sans-Serif" font-size="10.00">iostream</text>
</g>
<!-- Node1&#45;&gt;Node23 -->
<g id="edge58" class="edge"><title>Node1&#45;&gt;Node23</title>
<path fill="none" stroke="midnightblue" d="M837.981,-232.433C875.814,-223.901 930.107,-211.221 986.179,-196.116"/>
<polygon fill="midnightblue" stroke="midnightblue" points="987.192,-199.468 995.926,-193.47 985.358,-192.712 987.192,-199.468"/>
</g>
<!-- Node24 -->
<g id="node54" class="node"><title>Node24</title>
<polygon fill="white" stroke="#bfbfbf" points="1067.5,-174.5 1067.5,-195.5 1126.5,-195.5 1126.5,-174.5 1067.5,-174.5"/>
<text text-anchor="middle" x="1097" y="-182.5" font-family="Helvetica,sans-Serif" font-size="10.00">exception</text>
</g>
<!-- Node1&#45;&gt;Node24 -->
<g id="edge60" class="edge"><title>Node1&#45;&gt;Node24</title>
<path fill="none" stroke="midnightblue" d="M861.504,-232.676C913.51,-224.668 985.762,-212.515 1057.15,-196.274"/>
<polygon fill="midnightblue" stroke="midnightblue" points="1058.25,-199.611 1067.21,-193.956 1056.68,-192.79 1058.25,-199.611"/>
</g>
<!-- Node3 -->
<g id="node5" class="node"><title>Node3</title>
<polygon fill="white" stroke="#bfbfbf" points="282,-116.5 282,-137.5 336,-137.5 336,-116.5 282,-116.5"/>
<text text-anchor="middle" x="309" y="-124.5" font-family="Helvetica,sans-Serif" font-size="10.00">TColor.h</text>
</g>
<!-- Node2&#45;&gt;Node3 -->
<g id="edge4" class="edge"><title>Node2&#45;&gt;Node3</title>
<path fill="none" stroke="midnightblue" d="M353.912,-174.362C346.159,-166.186 335.27,-154.702 326.155,-145.091"/>
<polygon fill="midnightblue" stroke="midnightblue" points="328.445,-142.419 319.024,-137.571 323.365,-147.235 328.445,-142.419"/>
</g>
<!-- Node4 -->
<g id="node7" class="node"><title>Node4</title>
<polygon fill="white" stroke="#bfbfbf" points="342,-0.5 342,-21.5 386,-21.5 386,-0.5 342,-0.5"/>
<text text-anchor="middle" x="364" y="-8.5" font-family="Helvetica,sans-Serif" font-size="10.00">vector</text>
</g>
<!-- Node2&#45;&gt;Node4 -->
<g id="edge6" class="edge"><title>Node2&#45;&gt;Node4</title>
<path fill="none" stroke="midnightblue" d="M364,-174.377C364,-146.293 364,-69.6735 364,-32.2027"/>
<polygon fill="midnightblue" stroke="midnightblue" points="367.5,-31.9277 364,-21.9277 360.5,-31.9278 367.5,-31.9277"/>
</g>
<!-- Node2&#45;&gt;Node5 -->
<g id="edge8" class="edge"><title>Node2&#45;&gt;Node5</title>
<path fill="none" stroke="midnightblue" d="M372.804,-174.362C379.502,-166.268 388.884,-154.932 396.789,-145.38"/>
<polygon fill="midnightblue" stroke="midnightblue" points="399.573,-147.506 403.252,-137.571 394.18,-143.043 399.573,-147.506"/>
</g>
<!-- Node6 -->
<g id="node11" class="node"><title>Node6</title>
<a xlink:href="interval_8h.html" target="_top" xlink:title="base/interval.h">
<polygon fill="white" stroke="black" points="162,-116.5 162,-137.5 242,-137.5 242,-116.5 162,-116.5"/>
<text text-anchor="middle" x="202" y="-124.5" font-family="Helvetica,sans-Serif" font-size="10.00">base/interval.h</text>
</a>
</g>
<!-- Node2&#45;&gt;Node6 -->
<g id="edge10" class="edge"><title>Node2&#45;&gt;Node6</title>
<path fill="none" stroke="midnightblue" d="M334.663,-174.497C308.481,-165.123 269.94,-151.324 241.137,-141.012"/>
<polygon fill="midnightblue" stroke="midnightblue" points="241.987,-137.599 231.392,-137.523 239.627,-144.189 241.987,-137.599"/>
</g>
<!-- Node7 -->
<g id="node13" class="node"><title>Node7</title>
<polygon fill="white" stroke="#bfbfbf" points="280,-58.5 280,-79.5 336,-79.5 336,-58.5 280,-58.5"/>
<text text-anchor="middle" x="308" y="-66.5" font-family="Helvetica,sans-Serif" font-size="10.00">algorithm</text>
</g>
<!-- Node6&#45;&gt;Node7 -->
<g id="edge12" class="edge"><title>Node6&#45;&gt;Node7</title>
<path fill="none" stroke="midnightblue" d="M221.442,-116.362C237.804,-107.409 261.413,-94.4908 279.843,-84.4064"/>
<polygon fill="midnightblue" stroke="midnightblue" points="281.589,-87.4412 288.681,-79.5707 278.229,-81.3004 281.589,-87.4412"/>
</g>
<!-- Node8 -->
<g id="node15" class="node"><title>Node8</title>
<polygon fill="white" stroke="#bfbfbf" points="-0.5,-58.5 -0.5,-79.5 58.5,-79.5 58.5,-58.5 -0.5,-58.5"/>
<text text-anchor="middle" x="29" y="-66.5" font-family="Helvetica,sans-Serif" font-size="10.00">stdexcept</text>
</g>
<!-- Node6&#45;&gt;Node8 -->
<g id="edge14" class="edge"><title>Node6&#45;&gt;Node8</title>
<path fill="none" stroke="midnightblue" d="M170.671,-116.497C141.94,-106.864 99.2723,-92.5595 68.2735,-82.1668"/>
<polygon fill="midnightblue" stroke="midnightblue" points="69.2453,-78.8012 58.6514,-78.9409 67.0202,-85.4382 69.2453,-78.8012"/>
</g>
<!-- Node9 -->
<g id="node17" class="node"><title>Node9</title>
<a xlink:href="printable_8h.html" target="_top" xlink:title="printable.h">
<polygon fill="white" stroke="black" points="76,-58.5 76,-79.5 138,-79.5 138,-58.5 76,-58.5"/>
<text text-anchor="middle" x="107" y="-66.5" font-family="Helvetica,sans-Serif" font-size="10.00">printable.h</text>
</a>
</g>
<!-- Node6&#45;&gt;Node9 -->
<g id="edge16" class="edge"><title>Node6&#45;&gt;Node9</title>
<path fill="none" stroke="midnightblue" d="M184.576,-116.362C170.113,-107.532 149.331,-94.844 132.916,-84.8224"/>
<polygon fill="midnightblue" stroke="midnightblue" points="134.673,-81.7943 124.314,-79.5707 131.025,-87.7688 134.673,-81.7943"/>
</g>
<!-- Node11 -->
<g id="node22" class="node"><title>Node11</title>
<a xlink:href="types_8h.html" target="_top" xlink:title="types.h">
<polygon fill="white" stroke="black" points="155.5,-58.5 155.5,-79.5 204.5,-79.5 204.5,-58.5 155.5,-58.5"/>
<text text-anchor="middle" x="180" y="-66.5" font-family="Helvetica,sans-Serif" font-size="10.00">types.h</text>
</a>
</g>
<!-- Node6&#45;&gt;Node11 -->
<g id="edge22" class="edge"><title>Node6&#45;&gt;Node11</title>
<path fill="none" stroke="midnightblue" d="M197.965,-116.362C195.081,-108.758 191.112,-98.294 187.637,-89.1349"/>
<polygon fill="midnightblue" stroke="midnightblue" points="190.829,-87.6793 184.01,-79.5707 184.284,-90.1619 190.829,-87.6793"/>
</g>
<!-- Node12 -->
<g id="node24" class="node"><title>Node12</title>
<polygon fill="white" stroke="#bfbfbf" points="222,-58.5 222,-79.5 262,-79.5 262,-58.5 222,-58.5"/>
<text text-anchor="middle" x="242" y="-66.5" font-family="Helvetica,sans-Serif" font-size="10.00">limits</text>
</g>
<!-- Node6&#45;&gt;Node12 -->
<g id="edge24" class="edge"><title>Node6&#45;&gt;Node12</title>
<path fill="none" stroke="midnightblue" d="M209.337,-116.362C214.806,-108.431 222.422,-97.3885 228.924,-87.9606"/>
<polygon fill="midnightblue" stroke="midnightblue" points="231.914,-89.7899 234.71,-79.5707 226.151,-85.8157 231.914,-89.7899"/>
</g>
<!-- Node9&#45;&gt;Node4 -->
<g id="edge18" class="edge"><title>Node9&#45;&gt;Node4</title>
<path fill="none" stroke="midnightblue" d="M138.4,-60.1893C141.302,-59.4281 144.202,-58.6871 147,-58 212.224,-41.9811 289.184,-25.9959 331.691,-17.4188"/>
<polygon fill="midnightblue" stroke="midnightblue" points="332.613,-20.8035 341.728,-15.4022 331.234,-13.9407 332.613,-20.8035"/>
</g>
<!-- Node10 -->
<g id="node20" class="node"><title>Node10</title>
<polygon fill="white" stroke="#bfbfbf" points="81,-0.5 81,-21.5 133,-21.5 133,-0.5 81,-0.5"/>
<text text-anchor="middle" x="107" y="-8.5" font-family="Helvetica,sans-Serif" font-size="10.00">ostream</text>
</g>
<!-- Node9&#45;&gt;Node10 -->
<g id="edge20" class="edge"><title>Node9&#45;&gt;Node10</title>
<path fill="none" stroke="midnightblue" d="M107,-58.3619C107,-50.9219 107,-40.7427 107,-31.7276"/>
<polygon fill="midnightblue" stroke="midnightblue" points="110.5,-31.5706 107,-21.5707 103.5,-31.5707 110.5,-31.5706"/>
</g>
<!-- Node13&#45;&gt;Node4 -->
<g id="edge32" class="edge"><title>Node13&#45;&gt;Node4</title>
<path fill="none" stroke="midnightblue" d="M541.402,-174.468C523.199,-166.041 498.316,-153.151 479,-138 437.156,-105.179 397.667,-56.2572 377.654,-29.7325"/>
<polygon fill="midnightblue" stroke="midnightblue" points="380.417,-27.5829 371.638,-21.6515 374.802,-31.7629 380.417,-27.5829"/>
</g>
<!-- Node13&#45;&gt;Node5 -->
<g id="edge28" class="edge"><title>Node13&#45;&gt;Node5</title>
<path fill="none" stroke="midnightblue" d="M538.112,-174.497C511.093,-164.321 470.228,-148.93 442.392,-138.446"/>
<polygon fill="midnightblue" stroke="midnightblue" points="443.367,-135.074 432.775,-134.824 440.9,-141.625 443.367,-135.074"/>
</g>
<!-- Node14 -->
<g id="node29" class="node"><title>Node14</title>
<polygon fill="white" stroke="#bfbfbf" points="689.5,-116.5 689.5,-137.5 718.5,-137.5 718.5,-116.5 689.5,-116.5"/>
<text text-anchor="middle" x="704" y="-124.5" font-family="Helvetica,sans-Serif" font-size="10.00">list</text>
</g>
<!-- Node13&#45;&gt;Node14 -->
<g id="edge30" class="edge"><title>Node13&#45;&gt;Node14</title>
<path fill="none" stroke="midnightblue" d="M593.141,-174.424C614.642,-165.932 645.612,-153.454 680.126,-138.251"/>
<polygon fill="midnightblue" stroke="midnightblue" points="681.737,-141.366 689.459,-134.111 678.898,-134.967 681.737,-141.366"/>
</g>
<!-- Node15 -->
<g id="node32" class="node"><title>Node15</title>
<polygon fill="white" stroke="#bfbfbf" points="487.5,-116.5 487.5,-137.5 522.5,-137.5 522.5,-116.5 487.5,-116.5"/>
<text text-anchor="middle" x="505" y="-124.5" font-family="Helvetica,sans-Serif" font-size="10.00">map</text>
</g>
<!-- Node13&#45;&gt;Node15 -->
<g id="edge34" class="edge"><title>Node13&#45;&gt;Node15</title>
<path fill="none" stroke="midnightblue" d="M554.812,-174.362C546.041,-166.023 533.651,-154.242 523.422,-144.516"/>
<polygon fill="midnightblue" stroke="midnightblue" points="525.776,-141.925 516.117,-137.571 520.953,-146.998 525.776,-141.925"/>
</g>
<!-- Node13&#45;&gt;Node16 -->
<g id="edge36" class="edge"><title>Node13&#45;&gt;Node16</title>
<path fill="none" stroke="midnightblue" d="M600.294,-175.209C630.89,-166.425 677.151,-153.024 725.872,-138.307"/>
<polygon fill="midnightblue" stroke="midnightblue" points="727.089,-141.595 735.645,-135.347 725.059,-134.896 727.089,-141.595"/>
</g>
<!-- Node17 -->
<g id="node36" class="node"><title>Node17</title>
<polygon fill="white" stroke="#bfbfbf" points="539.5,-116.5 539.5,-137.5 598.5,-137.5 598.5,-116.5 539.5,-116.5"/>
<text text-anchor="middle" x="569" y="-124.5" font-family="Helvetica,sans-Serif" font-size="10.00">functional</text>
</g>
<!-- Node13&#45;&gt;Node17 -->
<g id="edge38" class="edge"><title>Node13&#45;&gt;Node17</title>
<path fill="none" stroke="midnightblue" d="M566.55,-174.362C566.935,-166.922 567.462,-156.743 567.928,-147.728"/>
<polygon fill="midnightblue" stroke="midnightblue" points="571.432,-147.738 568.453,-137.571 564.441,-147.376 571.432,-147.738"/>
</g>
<!-- Node18 -->
<g id="node38" class="node"><title>Node18</title>
<polygon fill="white" stroke="#bfbfbf" points="616,-116.5 616,-137.5 672,-137.5 672,-116.5 616,-116.5"/>
<text text-anchor="middle" x="644" y="-124.5" font-family="Helvetica,sans-Serif" font-size="10.00">Rtypes.h</text>
</g>
<!-- Node13&#45;&gt;Node18 -->
<g id="edge40" class="edge"><title>Node13&#45;&gt;Node18</title>
<path fill="none" stroke="midnightblue" d="M580.306,-174.362C591.851,-165.777 608.3,-153.546 621.59,-143.664"/>
<polygon fill="midnightblue" stroke="midnightblue" points="623.848,-146.346 629.784,-137.571 619.671,-140.729 623.848,-146.346"/>
</g>
<!-- Node19&#45;&gt;Node14 -->
<g id="edge46" class="edge"><title>Node19&#45;&gt;Node14</title>
<path fill="none" stroke="midnightblue" d="M681.952,-174.362C685.53,-166.677 690.468,-156.069 694.764,-146.84"/>
<polygon fill="midnightblue" stroke="midnightblue" points="698.032,-148.114 699.079,-137.571 691.686,-145.159 698.032,-148.114"/>
</g>
<!-- Node19&#45;&gt;Node16 -->
<g id="edge44" class="edge"><title>Node19&#45;&gt;Node16</title>
<path fill="none" stroke="midnightblue" d="M692.59,-174.362C705.291,-165.696 723.438,-153.313 737.992,-143.382"/>
<polygon fill="midnightblue" stroke="midnightblue" points="740.221,-146.098 746.509,-137.571 736.276,-140.316 740.221,-146.098"/>
</g>
</g>
</svg>
