<?xml version="1.0" encoding="UTF-8" standalone="no"?>
<!DOCTYPE svg PUBLIC "-//W3C//DTD SVG 1.1//EN"
 "http://www.w3.org/Graphics/SVG/1.1/DTD/svg11.dtd">
<!-- Generated by graphviz version 2.26.3 (20100126.1600)
 -->
<!-- Title: src/analysis/physics/misc/SplitCheck.cc Pages: 1 -->
<svg width="1018pt" height="276pt"
 viewBox="0.00 0.00 1018.00 276.00" xmlns="http://www.w3.org/2000/svg" xmlns:xlink="http://www.w3.org/1999/xlink">
<g id="graph1" class="graph" transform="scale(1 1) rotate(0) translate(4 272)">
<title>src/analysis/physics/misc/SplitCheck.cc</title>
<polygon fill="white" stroke="white" points="-4,5 -4,-272 1015,-272 1015,5 -4,5"/>
<!-- Node1 -->
<g id="node1" class="node"><title>Node1</title>
<polygon fill="#bfbfbf" stroke="black" points="492,-233 492,-267 598,-267 598,-233 492,-233"/>
<text text-anchor="start" x="500" y="-254" font-family="Helvetica,sans-Serif" font-size="10.00">src/analysis/physics</text>
<text text-anchor="middle" x="545" y="-241" font-family="Helvetica,sans-Serif" font-size="10.00">/misc/SplitCheck.cc</text>
</g>
<!-- Node2 -->
<g id="node3" class="node"><title>Node2</title>
<a xlink:href="_split_check_8h.html" target="_top" xlink:title="SplitCheck.h">
<polygon fill="white" stroke="black" points="182.5,-174.5 182.5,-195.5 255.5,-195.5 255.5,-174.5 182.5,-174.5"/>
<text text-anchor="middle" x="219" y="-182.5" font-family="Helvetica,sans-Serif" font-size="10.00">SplitCheck.h</text>
</a>
</g>
<!-- Node1&#45;&gt;Node2 -->
<g id="edge2" class="edge"><title>Node1&#45;&gt;Node2</title>
<path fill="none" stroke="midnightblue" d="M491.897,-239.412C429.133,-226.898 325.677,-206.27 265.799,-194.331"/>
<polygon fill="midnightblue" stroke="midnightblue" points="266.353,-190.873 255.861,-192.35 264.984,-197.738 266.353,-190.873"/>
</g>
<!-- Node5 -->
<g id="node9" class="node"><title>Node5</title>
<polygon fill="white" stroke="#bfbfbf" points="430,-58.5 430,-79.5 486,-79.5 486,-58.5 430,-58.5"/>
<text text-anchor="middle" x="458" y="-66.5" font-family="Helvetica,sans-Serif" font-size="10.00">algorithm</text>
</g>
<!-- Node1&#45;&gt;Node5 -->
<g id="edge36" class="edge"><title>Node1&#45;&gt;Node5</title>
<path fill="none" stroke="midnightblue" d="M514.084,-232.798C500.533,-223.647 485.751,-211.14 477,-196 457.672,-162.56 455.803,-116.215 456.614,-89.7482"/>
<polygon fill="midnightblue" stroke="midnightblue" points="460.112,-89.8703 457.082,-79.7178 453.119,-89.5436 460.112,-89.8703"/>
</g>
<!-- Node13 -->
<g id="node26" class="node"><title>Node13</title>
<a xlink:href="_histogram_8h.html" target="_top" xlink:title="plot/Histogram.h">
<polygon fill="white" stroke="black" points="317.5,-174.5 317.5,-195.5 406.5,-195.5 406.5,-174.5 317.5,-174.5"/>
<text text-anchor="middle" x="362" y="-182.5" font-family="Helvetica,sans-Serif" font-size="10.00">plot/Histogram.h</text>
</a>
</g>
<!-- Node1&#45;&gt;Node13 -->
<g id="edge26" class="edge"><title>Node1&#45;&gt;Node13</title>
<path fill="none" stroke="midnightblue" d="M496.919,-232.922C467.079,-222.323 429.22,-208.876 401.205,-198.925"/>
<polygon fill="midnightblue" stroke="midnightblue" points="402.331,-195.611 391.736,-195.562 399.988,-202.207 402.331,-195.611"/>
</g>
<!-- Node16 -->
<g id="node35" class="node"><title>Node16</title>
<polygon fill="white" stroke="#bfbfbf" points="485.5,-174.5 485.5,-195.5 536.5,-195.5 536.5,-174.5 485.5,-174.5"/>
<text text-anchor="middle" x="511" y="-182.5" font-family="Helvetica,sans-Serif" font-size="10.00">TH1D.h</text>
</g>
<!-- Node1&#45;&gt;Node16 -->
<g id="edge38" class="edge"><title>Node1&#45;&gt;Node16</title>
<path fill="none" stroke="midnightblue" d="M536.067,-232.922C531.559,-224.304 526.066,-213.802 521.372,-204.828"/>
<polygon fill="midnightblue" stroke="midnightblue" points="524.413,-203.091 516.676,-195.852 518.21,-206.335 524.413,-203.091"/>
</g>
<!-- Node17 -->
<g id="node37" class="node"><title>Node17</title>
<polygon fill="white" stroke="#bfbfbf" points="553.5,-174.5 553.5,-195.5 604.5,-195.5 604.5,-174.5 553.5,-174.5"/>
<text text-anchor="middle" x="579" y="-182.5" font-family="Helvetica,sans-Serif" font-size="10.00">TH2D.h</text>
</g>
<!-- Node1&#45;&gt;Node17 -->
<g id="edge40" class="edge"><title>Node1&#45;&gt;Node17</title>
<path fill="none" stroke="midnightblue" d="M553.933,-232.922C558.441,-224.304 563.934,-213.802 568.628,-204.828"/>
<polygon fill="midnightblue" stroke="midnightblue" points="571.79,-206.335 573.324,-195.852 565.587,-203.091 571.79,-206.335"/>
</g>
<!-- Node18 -->
<g id="node39" class="node"><title>Node18</title>
<a xlink:href="root__draw_8h.html" target="_top" xlink:title="plot/root_draw.h">
<polygon fill="white" stroke="black" points="622,-174.5 622,-195.5 708,-195.5 708,-174.5 622,-174.5"/>
<text text-anchor="middle" x="665" y="-182.5" font-family="Helvetica,sans-Serif" font-size="10.00">plot/root_draw.h</text>
</a>
</g>
<!-- Node1&#45;&gt;Node18 -->
<g id="edge42" class="edge"><title>Node1&#45;&gt;Node18</title>
<path fill="none" stroke="midnightblue" d="M576.529,-232.922C595.097,-222.864 618.4,-210.242 636.429,-200.476"/>
<polygon fill="midnightblue" stroke="midnightblue" points="638.197,-203.499 645.323,-195.658 634.863,-197.344 638.197,-203.499"/>
</g>
<!-- Node23 -->
<g id="node52" class="node"><title>Node23</title>
<a xlink:href="matcher_8h.html" target="_top" xlink:title="utils/matcher.h">
<polygon fill="white" stroke="black" points="742.5,-174.5 742.5,-195.5 823.5,-195.5 823.5,-174.5 742.5,-174.5"/>
<text text-anchor="middle" x="783" y="-182.5" font-family="Helvetica,sans-Serif" font-size="10.00">utils/matcher.h</text>
</a>
</g>
<!-- Node1&#45;&gt;Node23 -->
<g id="edge58" class="edge"><title>Node1&#45;&gt;Node23</title>
<path fill="none" stroke="midnightblue" d="M598.116,-235.494C639.036,-224.318 695.133,-208.997 734.774,-198.171"/>
<polygon fill="midnightblue" stroke="midnightblue" points="735.753,-201.532 744.478,-195.521 733.909,-194.779 735.753,-201.532"/>
</g>
<!-- Node24 -->
<g id="node59" class="node"><title>Node24</title>
<a xlink:href="combinatorics_8h.html" target="_top" xlink:title="utils/combinatorics.h">
<polygon fill="white" stroke="black" points="903.5,-58.5 903.5,-79.5 1010.5,-79.5 1010.5,-58.5 903.5,-58.5"/>
<text text-anchor="middle" x="957" y="-66.5" font-family="Helvetica,sans-Serif" font-size="10.00">utils/combinatorics.h</text>
</a>
</g>
<!-- Node1&#45;&gt;Node24 -->
<g id="edge70" class="edge"><title>Node1&#45;&gt;Node24</title>
<path fill="none" stroke="midnightblue" d="M598.207,-243.851C669.672,-234.939 792.291,-217.163 832,-196 881.764,-169.479 924.032,-116.341 944.251,-87.9342"/>
<polygon fill="midnightblue" stroke="midnightblue" points="947.181,-89.8518 950.022,-79.6452 941.436,-85.852 947.181,-89.8518"/>
</g>
<!-- Node3 -->
<g id="node5" class="node"><title>Node3</title>
<polygon fill="white" stroke="#bfbfbf" points="-0.5,-116.5 -0.5,-137.5 74.5,-137.5 74.5,-116.5 -0.5,-116.5"/>
<text text-anchor="middle" x="37" y="-124.5" font-family="Helvetica,sans-Serif" font-size="10.00">AntPhysics.h</text>
</g>
<!-- Node2&#45;&gt;Node3 -->
<g id="edge4" class="edge"><title>Node2&#45;&gt;Node3</title>
<path fill="none" stroke="midnightblue" d="M186.041,-174.497C156.242,-165 112.191,-150.962 79.7032,-140.609"/>
<polygon fill="midnightblue" stroke="midnightblue" points="80.6113,-137.225 70.0206,-137.523 78.4858,-143.894 80.6113,-137.225"/>
</g>
<!-- Node4 -->
<g id="node7" class="node"><title>Node4</title>
<a xlink:href="interval_8h.html" target="_top" xlink:title="base/interval.h">
<polygon fill="white" stroke="black" points="254,-116.5 254,-137.5 334,-137.5 334,-116.5 254,-116.5"/>
<text text-anchor="middle" x="294" y="-124.5" font-family="Helvetica,sans-Serif" font-size="10.00">base/interval.h</text>
</a>
</g>
<!-- Node2&#45;&gt;Node4 -->
<g id="edge6" class="edge"><title>Node2&#45;&gt;Node4</title>
<path fill="none" stroke="midnightblue" d="M232.756,-174.362C243.751,-165.859 259.373,-153.779 272.086,-143.947"/>
<polygon fill="midnightblue" stroke="midnightblue" points="274.562,-146.457 280.331,-137.571 270.279,-140.919 274.562,-146.457"/>
</g>
<!-- Node8 -->
<g id="node15" class="node"><title>Node8</title>
<polygon fill="white" stroke="#bfbfbf" points="517,-0.5 517,-21.5 561,-21.5 561,-0.5 517,-0.5"/>
<text text-anchor="middle" x="539" y="-8.5" font-family="Helvetica,sans-Serif" font-size="10.00">vector</text>
</g>
<!-- Node2&#45;&gt;Node8 -->
<g id="edge24" class="edge"><title>Node2&#45;&gt;Node8</title>
<path fill="none" stroke="midnightblue" d="M182.128,-177.585C160.298,-171.095 134.369,-159.239 121,-138 90.1096,-88.9259 169.346,-68.8548 195,-58 250.952,-34.3252 432.09,-18.7923 506.565,-13.2588"/>
<polygon fill="midnightblue" stroke="midnightblue" points="507.033,-16.734 516.752,-12.5151 506.524,-9.75258 507.033,-16.734"/>
</g>
<!-- Node12 -->
<g id="node23" class="node"><title>Node12</title>
<polygon fill="white" stroke="#bfbfbf" points="201.5,-116.5 201.5,-137.5 236.5,-137.5 236.5,-116.5 201.5,-116.5"/>
<text text-anchor="middle" x="219" y="-124.5" font-family="Helvetica,sans-Serif" font-size="10.00">map</text>
</g>
<!-- Node2&#45;&gt;Node12 -->
<g id="edge22" class="edge"><title>Node2&#45;&gt;Node12</title>
<path fill="none" stroke="midnightblue" d="M219,-174.362C219,-166.922 219,-156.743 219,-147.728"/>
<polygon fill="midnightblue" stroke="midnightblue" points="222.5,-147.571 219,-137.571 215.5,-147.571 222.5,-147.571"/>
</g>
<!-- Node4&#45;&gt;Node5 -->
<g id="edge8" class="edge"><title>Node4&#45;&gt;Node5</title>
<path fill="none" stroke="midnightblue" d="M323.699,-116.497C350.817,-106.906 391.034,-92.6833 420.387,-82.302"/>
<polygon fill="midnightblue" stroke="midnightblue" points="421.63,-85.5749 429.891,-78.9409 419.296,-78.9755 421.63,-85.5749"/>
</g>
<!-- Node6 -->
<g id="node11" class="node"><title>Node6</title>
<polygon fill="white" stroke="#bfbfbf" points="269.5,-58.5 269.5,-79.5 328.5,-79.5 328.5,-58.5 269.5,-58.5"/>
<text text-anchor="middle" x="299" y="-66.5" font-family="Helvetica,sans-Serif" font-size="10.00">stdexcept</text>
</g>
<!-- Node4&#45;&gt;Node6 -->
<g id="edge10" class="edge"><title>Node4&#45;&gt;Node6</title>
<path fill="none" stroke="midnightblue" d="M294.917,-116.362C295.558,-108.922 296.436,-98.7427 297.213,-89.7276"/>
<polygon fill="midnightblue" stroke="midnightblue" points="300.717,-89.8343 298.089,-79.5707 293.743,-89.2331 300.717,-89.8343"/>
</g>
<!-- Node7 -->
<g id="node13" class="node"><title>Node7</title>
<a xlink:href="printable_8h.html" target="_top" xlink:title="printable.h">
<polygon fill="white" stroke="black" points="12,-58.5 12,-79.5 74,-79.5 74,-58.5 12,-58.5"/>
<text text-anchor="middle" x="43" y="-66.5" font-family="Helvetica,sans-Serif" font-size="10.00">printable.h</text>
</a>
</g>
<!-- Node4&#45;&gt;Node7 -->
<g id="edge12" class="edge"><title>Node4&#45;&gt;Node7</title>
<path fill="none" stroke="midnightblue" d="M253.951,-117.746C207.402,-106.989 130.984,-89.3309 84.0226,-78.4793"/>
<polygon fill="midnightblue" stroke="midnightblue" points="84.7158,-75.0474 74.1846,-76.206 83.1398,-81.8676 84.7158,-75.0474"/>
</g>
<!-- Node10 -->
<g id="node19" class="node"><title>Node10</title>
<a xlink:href="types_8h.html" target="_top" xlink:title="types.h">
<polygon fill="white" stroke="black" points="203.5,-58.5 203.5,-79.5 252.5,-79.5 252.5,-58.5 203.5,-58.5"/>
<text text-anchor="middle" x="228" y="-66.5" font-family="Helvetica,sans-Serif" font-size="10.00">types.h</text>
</a>
</g>
<!-- Node4&#45;&gt;Node10 -->
<g id="edge18" class="edge"><title>Node4&#45;&gt;Node10</title>
<path fill="none" stroke="midnightblue" d="M281.895,-116.362C272.312,-107.941 258.736,-96.0105 247.607,-86.2308"/>
<polygon fill="midnightblue" stroke="midnightblue" points="249.851,-83.5427 240.029,-79.5707 245.23,-88.8009 249.851,-83.5427"/>
</g>
<!-- Node11 -->
<g id="node21" class="node"><title>Node11</title>
<polygon fill="white" stroke="#bfbfbf" points="776,-58.5 776,-79.5 816,-79.5 816,-58.5 776,-58.5"/>
<text text-anchor="middle" x="796" y="-66.5" font-family="Helvetica,sans-Serif" font-size="10.00">limits</text>
</g>
<!-- Node4&#45;&gt;Node11 -->
<g id="edge20" class="edge"><title>Node4&#45;&gt;Node11</title>
<path fill="none" stroke="midnightblue" d="M334.269,-121.798C348.97,-119.928 365.733,-117.83 381,-116 524.852,-98.7608 696.964,-79.8002 765.588,-72.3073"/>
<polygon fill="midnightblue" stroke="midnightblue" points="766.132,-75.7689 775.693,-71.2052 765.373,-68.8101 766.132,-75.7689"/>
</g>
<!-- Node7&#45;&gt;Node8 -->
<g id="edge14" class="edge"><title>Node7&#45;&gt;Node8</title>
<path fill="none" stroke="midnightblue" d="M74.3568,-60.7586C78.9131,-59.7294 83.5625,-58.7699 88,-58 243.619,-31.0001 432.327,-17.4527 506.675,-12.8556"/>
<polygon fill="midnightblue" stroke="midnightblue" points="507.027,-16.3408 516.797,-12.2418 506.603,-9.35362 507.027,-16.3408"/>
</g>
<!-- Node9 -->
<g id="node17" class="node"><title>Node9</title>
<polygon fill="white" stroke="#bfbfbf" points="17,-0.5 17,-21.5 69,-21.5 69,-0.5 17,-0.5"/>
<text text-anchor="middle" x="43" y="-8.5" font-family="Helvetica,sans-Serif" font-size="10.00">ostream</text>
</g>
<!-- Node7&#45;&gt;Node9 -->
<g id="edge16" class="edge"><title>Node7&#45;&gt;Node9</title>
<path fill="none" stroke="midnightblue" d="M43,-58.3619C43,-50.9219 43,-40.7427 43,-31.7276"/>
<polygon fill="midnightblue" stroke="midnightblue" points="46.5001,-31.5706 43,-21.5707 39.5001,-31.5707 46.5001,-31.5706"/>
</g>
<!-- Node13&#45;&gt;Node4 -->
<g id="edge34" class="edge"><title>Node13&#45;&gt;Node4</title>
<path fill="none" stroke="midnightblue" d="M349.528,-174.362C339.655,-165.941 325.667,-154.011 314.202,-144.231"/>
<polygon fill="midnightblue" stroke="midnightblue" points="316.273,-141.397 306.393,-137.571 311.73,-146.723 316.273,-141.397"/>
</g>
<!-- Node13&#45;&gt;Node8 -->
<g id="edge30" class="edge"><title>Node13&#45;&gt;Node8</title>
<path fill="none" stroke="midnightblue" d="M363.709,-174.151C368.21,-149.381 382.79,-88.462 421,-58 446.308,-37.8238 481.386,-25.3333 506.71,-18.3479"/>
<polygon fill="midnightblue" stroke="midnightblue" points="507.783,-21.6852 516.571,-15.7684 506.011,-14.9131 507.783,-21.6852"/>
</g>
<!-- Node14 -->
<g id="node28" class="node"><title>Node14</title>
<polygon fill="white" stroke="#bfbfbf" points="130,-116.5 130,-137.5 184,-137.5 184,-116.5 130,-116.5"/>
<text text-anchor="middle" x="157" y="-124.5" font-family="Helvetica,sans-Serif" font-size="10.00">TColor.h</text>
</g>
<!-- Node13&#45;&gt;Node14 -->
<g id="edge28" class="edge"><title>Node13&#45;&gt;Node14</title>
<path fill="none" stroke="midnightblue" d="M322.989,-174.452C290.761,-165.67 243.58,-152.66 193.766,-138.18"/>
<polygon fill="midnightblue" stroke="midnightblue" points="194.685,-134.802 184.105,-135.362 192.725,-141.522 194.685,-134.802"/>
</g>
<!-- Node15 -->
<g id="node31" class="node"><title>Node15</title>
<polygon fill="white" stroke="#bfbfbf" points="389.5,-116.5 389.5,-137.5 430.5,-137.5 430.5,-116.5 389.5,-116.5"/>
<text text-anchor="middle" x="410" y="-124.5" font-family="Helvetica,sans-Serif" font-size="10.00">string</text>
</g>
<!-- Node13&#45;&gt;Node15 -->
<g id="edge32" class="edge"><title>Node13&#45;&gt;Node15</title>
<path fill="none" stroke="midnightblue" d="M370.804,-174.362C377.502,-166.268 386.884,-154.932 394.789,-145.38"/>
<polygon fill="midnightblue" stroke="midnightblue" points="397.573,-147.506 401.252,-137.571 392.18,-143.043 397.573,-147.506"/>
</g>
<!-- Node18&#45;&gt;Node8 -->
<g id="edge48" class="edge"><title>Node18&#45;&gt;Node8</title>
<path fill="none" stroke="midnightblue" d="M676.541,-174.054C689.597,-160.284 707.732,-136.017 697,-116 670.358,-66.3056 608.687,-36.1185 570.754,-21.5724"/>
<polygon fill="midnightblue" stroke="midnightblue" points="571.789,-18.2236 561.195,-18.0448 569.365,-24.7907 571.789,-18.2236"/>
</g>
<!-- Node18&#45;&gt;Node12 -->
<g id="edge50" class="edge"><title>Node18&#45;&gt;Node12</title>
<path fill="none" stroke="midnightblue" d="M621.937,-175.506C618.92,-174.959 615.918,-174.45 613,-174 453.914,-149.47 406.221,-177.291 246.818,-137.871"/>
<polygon fill="midnightblue" stroke="midnightblue" points="247.209,-134.36 236.657,-135.305 245.495,-141.147 247.209,-134.36"/>
</g>
<!-- Node18&#45;&gt;Node15 -->
<g id="edge44" class="edge"><title>Node18&#45;&gt;Node15</title>
<path fill="none" stroke="midnightblue" d="M621.743,-175.161C570.199,-163.437 485.407,-144.151 440.35,-133.903"/>
<polygon fill="midnightblue" stroke="midnightblue" points="441.107,-130.486 430.579,-131.681 439.554,-137.312 441.107,-130.486"/>
</g>
<!-- Node19 -->
<g id="node42" class="node"><title>Node19</title>
<polygon fill="white" stroke="#bfbfbf" points="743.5,-116.5 743.5,-137.5 772.5,-137.5 772.5,-116.5 743.5,-116.5"/>
<text text-anchor="middle" x="758" y="-124.5" font-family="Helvetica,sans-Serif" font-size="10.00">list</text>
</g>
<!-- Node18&#45;&gt;Node19 -->
<g id="edge46" class="edge"><title>Node18&#45;&gt;Node19</title>
<path fill="none" stroke="midnightblue" d="M682.058,-174.362C696.924,-165.091 718.61,-151.565 735.007,-141.34"/>
<polygon fill="midnightblue" stroke="midnightblue" points="736.861,-144.308 743.494,-136.047 733.157,-138.369 736.861,-144.308"/>
</g>
<!-- Node20 -->
<g id="node46" class="node"><title>Node20</title>
<polygon fill="white" stroke="#bfbfbf" points="560,-116.5 560,-137.5 612,-137.5 612,-116.5 560,-116.5"/>
<text text-anchor="middle" x="586" y="-124.5" font-family="Helvetica,sans-Serif" font-size="10.00">memory</text>
</g>
<!-- Node18&#45;&gt;Node20 -->
<g id="edge52" class="edge"><title>Node18&#45;&gt;Node20</title>
<path fill="none" stroke="midnightblue" d="M650.51,-174.362C638.817,-165.777 622.157,-153.546 608.697,-143.664"/>
<polygon fill="midnightblue" stroke="midnightblue" points="610.53,-140.667 600.398,-137.571 606.387,-146.31 610.53,-140.667"/>
</g>
<!-- Node21 -->
<g id="node48" class="node"><title>Node21</title>
<polygon fill="white" stroke="#bfbfbf" points="629.5,-116.5 629.5,-137.5 688.5,-137.5 688.5,-116.5 629.5,-116.5"/>
<text text-anchor="middle" x="659" y="-124.5" font-family="Helvetica,sans-Serif" font-size="10.00">functional</text>
</g>
<!-- Node18&#45;&gt;Node21 -->
<g id="edge54" class="edge"><title>Node18&#45;&gt;Node21</title>
<path fill="none" stroke="midnightblue" d="M663.9,-174.362C663.13,-166.922 662.077,-156.743 661.144,-147.728"/>
<polygon fill="midnightblue" stroke="midnightblue" points="664.604,-147.157 660.094,-137.571 657.641,-147.878 664.604,-147.157"/>
</g>
<!-- Node22 -->
<g id="node50" class="node"><title>Node22</title>
<polygon fill="white" stroke="#bfbfbf" points="486,-116.5 486,-137.5 542,-137.5 542,-116.5 486,-116.5"/>
<text text-anchor="middle" x="514" y="-124.5" font-family="Helvetica,sans-Serif" font-size="10.00">Rtypes.h</text>
</g>
<!-- Node18&#45;&gt;Node22 -->
<g id="edge56" class="edge"><title>Node18&#45;&gt;Node22</title>
<path fill="none" stroke="midnightblue" d="M637.655,-174.497C613.358,-165.164 577.64,-151.445 550.832,-141.147"/>
<polygon fill="midnightblue" stroke="midnightblue" points="551.986,-137.842 541.396,-137.523 549.476,-144.376 551.986,-137.842"/>
</g>
<!-- Node23&#45;&gt;Node4 -->
<g id="edge66" class="edge"><title>Node23&#45;&gt;Node4</title>
<path fill="none" stroke="midnightblue" d="M742.216,-177.82C733.887,-176.462 725.172,-175.118 717,-174 568.198,-153.646 530.174,-155.42 381,-138 369.187,-136.621 356.483,-135.059 344.531,-133.554"/>
<polygon fill="midnightblue" stroke="midnightblue" points="344.623,-130.038 334.263,-132.253 343.743,-136.982 344.623,-130.038"/>
</g>
<!-- Node23&#45;&gt;Node5 -->
<g id="edge64" class="edge"><title>Node23&#45;&gt;Node5</title>
<path fill="none" stroke="midnightblue" d="M786.438,-174.376C790.561,-159.371 795.268,-132.019 781,-116 762.266,-94.9666 577.801,-78.2546 496.336,-71.8386"/>
<polygon fill="midnightblue" stroke="midnightblue" points="496.252,-68.3216 486.011,-71.0373 495.71,-75.3006 496.252,-68.3216"/>
</g>
<!-- Node23&#45;&gt;Node8 -->
<g id="edge62" class="edge"><title>Node23&#45;&gt;Node8</title>
<path fill="none" stroke="midnightblue" d="M798.267,-174.196C808.831,-165.719 822.023,-152.886 828,-138 834.668,-121.394 838.098,-72.6416 825,-58 808.207,-39.2277 642.734,-21.0695 571.424,-14.0479"/>
<polygon fill="midnightblue" stroke="midnightblue" points="571.511,-10.5399 561.219,-13.056 570.834,-17.5071 571.511,-10.5399"/>
</g>
<!-- Node23&#45;&gt;Node11 -->
<g id="edge68" class="edge"><title>Node23&#45;&gt;Node11</title>
<path fill="none" stroke="midnightblue" d="M792.677,-174.361C800.131,-165.4 809.842,-151.856 814,-138 818.925,-121.588 813.263,-102.754 807.022,-88.9133"/>
<polygon fill="midnightblue" stroke="midnightblue" points="810.095,-87.2306 802.519,-79.824 803.823,-90.3384 810.095,-87.2306"/>
</g>
<!-- Node23&#45;&gt;Node19 -->
<g id="edge60" class="edge"><title>Node23&#45;&gt;Node19</title>
<path fill="none" stroke="midnightblue" d="M778.415,-174.362C775.102,-166.677 770.53,-156.069 766.552,-146.84"/>
<polygon fill="midnightblue" stroke="midnightblue" points="769.729,-145.368 762.556,-137.571 763.301,-148.139 769.729,-145.368"/>
</g>
<!-- Node24&#45;&gt;Node8 -->
<g id="edge72" class="edge"><title>Node24&#45;&gt;Node8</title>
<path fill="none" stroke="midnightblue" d="M903.265,-60.0342C898.78,-59.3296 894.314,-58.6428 890,-58 772.732,-40.5261 632.962,-22.7079 571.136,-14.9797"/>
<polygon fill="midnightblue" stroke="midnightblue" points="571.564,-11.5061 561.208,-13.7418 570.698,-18.4523 571.564,-11.5061"/>
</g>
</g>
</svg>
