<?xml version="1.0" encoding="UTF-8" standalone="no"?>
<!DOCTYPE svg PUBLIC "-//W3C//DTD SVG 1.1//EN"
 "http://www.w3.org/Graphics/SVG/1.1/DTD/svg11.dtd">
<!-- Generated by graphviz version 2.26.3 (20100126.1600)
 -->
<!-- Title: src/analysis/physics/misc/SplitCheck.h Pages: 1 -->
<svg width="434pt" height="218pt"
 viewBox="0.00 0.00 434.00 218.00" xmlns="http://www.w3.org/2000/svg" xmlns:xlink="http://www.w3.org/1999/xlink">
<g id="graph1" class="graph" transform="scale(1 1) rotate(0) translate(4 214)">
<title>src/analysis/physics/misc/SplitCheck.h</title>
<polygon fill="white" stroke="white" points="-4,5 -4,-214 431,-214 431,5 -4,5"/>
<!-- Node1 -->
<g id="node1" class="node"><title>Node1</title>
<polygon fill="#bfbfbf" stroke="black" points="256,-175 256,-209 362,-209 362,-175 256,-175"/>
<text text-anchor="start" x="264" y="-196" font-family="Helvetica,sans-Serif" font-size="10.00">src/analysis/physics</text>
<text text-anchor="middle" x="309" y="-183" font-family="Helvetica,sans-Serif" font-size="10.00">/misc/SplitCheck.h</text>
</g>
<!-- Node2 -->
<g id="node3" class="node"><title>Node2</title>
<polygon fill="white" stroke="#bfbfbf" points="121.5,-116.5 121.5,-137.5 196.5,-137.5 196.5,-116.5 121.5,-116.5"/>
<text text-anchor="middle" x="159" y="-124.5" font-family="Helvetica,sans-Serif" font-size="10.00">AntPhysics.h</text>
</g>
<!-- Node1&#45;&gt;Node2 -->
<g id="edge2" class="edge"><title>Node1&#45;&gt;Node2</title>
<path fill="none" stroke="midnightblue" d="M269.589,-174.922C245.741,-164.588 215.642,-151.545 192.868,-141.676"/>
<polygon fill="midnightblue" stroke="midnightblue" points="194.163,-138.423 183.596,-137.658 191.38,-144.846 194.163,-138.423"/>
</g>
<!-- Node3 -->
<g id="node5" class="node"><title>Node3</title>
<a xlink:href="interval_8h.html" target="_top" xlink:title="base/interval.h">
<polygon fill="white" stroke="black" points="214,-116.5 214,-137.5 294,-137.5 294,-116.5 214,-116.5"/>
<text text-anchor="middle" x="254" y="-124.5" font-family="Helvetica,sans-Serif" font-size="10.00">base/interval.h</text>
</a>
</g>
<!-- Node1&#45;&gt;Node3 -->
<g id="edge4" class="edge"><title>Node1&#45;&gt;Node3</title>
<path fill="none" stroke="midnightblue" d="M294.549,-174.922C286.947,-165.937 277.612,-154.905 269.816,-145.691"/>
<polygon fill="midnightblue" stroke="midnightblue" points="272.314,-143.225 263.183,-137.852 266.97,-147.747 272.314,-143.225"/>
</g>
<!-- Node7 -->
<g id="node13" class="node"><title>Node7</title>
<polygon fill="white" stroke="#bfbfbf" points="283,-0.5 283,-21.5 327,-21.5 327,-0.5 283,-0.5"/>
<text text-anchor="middle" x="305" y="-8.5" font-family="Helvetica,sans-Serif" font-size="10.00">vector</text>
</g>
<!-- Node1&#45;&gt;Node7 -->
<g id="edge22" class="edge"><title>Node1&#45;&gt;Node7</title>
<path fill="none" stroke="midnightblue" d="M320.336,-174.771C335.825,-148.962 360.055,-98.919 345,-58 341.004,-47.1398 333.261,-37.0779 325.643,-29.0736"/>
<polygon fill="midnightblue" stroke="midnightblue" points="327.806,-26.2934 318.21,-21.8019 322.911,-31.297 327.806,-26.2934"/>
</g>
<!-- Node11 -->
<g id="node21" class="node"><title>Node11</title>
<polygon fill="white" stroke="#bfbfbf" points="391.5,-116.5 391.5,-137.5 426.5,-137.5 426.5,-116.5 391.5,-116.5"/>
<text text-anchor="middle" x="409" y="-124.5" font-family="Helvetica,sans-Serif" font-size="10.00">map</text>
</g>
<!-- Node1&#45;&gt;Node11 -->
<g id="edge20" class="edge"><title>Node1&#45;&gt;Node11</title>
<path fill="none" stroke="midnightblue" d="M335.274,-174.922C350.321,-165.141 369.101,-152.934 383.941,-143.289"/>
<polygon fill="midnightblue" stroke="midnightblue" points="386.126,-146.043 392.603,-137.658 382.311,-140.174 386.126,-146.043"/>
</g>
<!-- Node4 -->
<g id="node7" class="node"><title>Node4</title>
<polygon fill="white" stroke="#bfbfbf" points="0,-58.5 0,-79.5 56,-79.5 56,-58.5 0,-58.5"/>
<text text-anchor="middle" x="28" y="-66.5" font-family="Helvetica,sans-Serif" font-size="10.00">algorithm</text>
</g>
<!-- Node3&#45;&gt;Node4 -->
<g id="edge6" class="edge"><title>Node3&#45;&gt;Node4</title>
<path fill="none" stroke="midnightblue" d="M213.676,-117.531C177.414,-108.892 122.469,-95.4943 66.0478,-80.2109"/>
<polygon fill="midnightblue" stroke="midnightblue" points="66.8125,-76.7918 56.2441,-77.5401 64.9725,-83.5456 66.8125,-76.7918"/>
</g>
<!-- Node5 -->
<g id="node9" class="node"><title>Node5</title>
<polygon fill="white" stroke="#bfbfbf" points="73.5,-58.5 73.5,-79.5 132.5,-79.5 132.5,-58.5 73.5,-58.5"/>
<text text-anchor="middle" x="103" y="-66.5" font-family="Helvetica,sans-Serif" font-size="10.00">stdexcept</text>
</g>
<!-- Node3&#45;&gt;Node5 -->
<g id="edge8" class="edge"><title>Node3&#45;&gt;Node5</title>
<path fill="none" stroke="midnightblue" d="M226.655,-116.497C202.358,-107.164 166.64,-93.4447 139.832,-83.1475"/>
<polygon fill="midnightblue" stroke="midnightblue" points="140.986,-79.8415 130.396,-79.5231 138.476,-86.376 140.986,-79.8415"/>
</g>
<!-- Node6 -->
<g id="node11" class="node"><title>Node6</title>
<a xlink:href="printable_8h.html" target="_top" xlink:title="printable.h">
<polygon fill="white" stroke="black" points="150,-58.5 150,-79.5 212,-79.5 212,-58.5 150,-58.5"/>
<text text-anchor="middle" x="181" y="-66.5" font-family="Helvetica,sans-Serif" font-size="10.00">printable.h</text>
</a>
</g>
<!-- Node3&#45;&gt;Node6 -->
<g id="edge10" class="edge"><title>Node3&#45;&gt;Node6</title>
<path fill="none" stroke="midnightblue" d="M240.611,-116.362C229.909,-107.859 214.704,-95.7785 202.329,-85.9466"/>
<polygon fill="midnightblue" stroke="midnightblue" points="204.311,-83.0511 194.304,-79.5707 199.957,-88.5318 204.311,-83.0511"/>
</g>
<!-- Node9 -->
<g id="node17" class="node"><title>Node9</title>
<a xlink:href="types_8h.html" target="_top" xlink:title="types.h">
<polygon fill="white" stroke="black" points="229.5,-58.5 229.5,-79.5 278.5,-79.5 278.5,-58.5 229.5,-58.5"/>
<text text-anchor="middle" x="254" y="-66.5" font-family="Helvetica,sans-Serif" font-size="10.00">types.h</text>
</a>
</g>
<!-- Node3&#45;&gt;Node9 -->
<g id="edge16" class="edge"><title>Node3&#45;&gt;Node9</title>
<path fill="none" stroke="midnightblue" d="M254,-116.362C254,-108.922 254,-98.7427 254,-89.7276"/>
<polygon fill="midnightblue" stroke="midnightblue" points="257.5,-89.5706 254,-79.5707 250.5,-89.5707 257.5,-89.5706"/>
</g>
<!-- Node10 -->
<g id="node19" class="node"><title>Node10</title>
<polygon fill="white" stroke="#bfbfbf" points="296,-58.5 296,-79.5 336,-79.5 336,-58.5 296,-58.5"/>
<text text-anchor="middle" x="316" y="-66.5" font-family="Helvetica,sans-Serif" font-size="10.00">limits</text>
</g>
<!-- Node3&#45;&gt;Node10 -->
<g id="edge18" class="edge"><title>Node3&#45;&gt;Node10</title>
<path fill="none" stroke="midnightblue" d="M265.372,-116.362C274.286,-108.023 286.879,-96.2418 297.276,-86.5162"/>
<polygon fill="midnightblue" stroke="midnightblue" points="299.789,-88.9582 304.7,-79.5707 295.007,-83.8463 299.789,-88.9582"/>
</g>
<!-- Node6&#45;&gt;Node7 -->
<g id="edge12" class="edge"><title>Node6&#45;&gt;Node7</title>
<path fill="none" stroke="midnightblue" d="M203.455,-58.4966C223.032,-49.3401 251.635,-35.9612 273.499,-25.7344"/>
<polygon fill="midnightblue" stroke="midnightblue" points="275.136,-28.8325 282.712,-21.4252 272.171,-22.4918 275.136,-28.8325"/>
</g>
<!-- Node8 -->
<g id="node15" class="node"><title>Node8</title>
<polygon fill="white" stroke="#bfbfbf" points="155,-0.5 155,-21.5 207,-21.5 207,-0.5 155,-0.5"/>
<text text-anchor="middle" x="181" y="-8.5" font-family="Helvetica,sans-Serif" font-size="10.00">ostream</text>
</g>
<!-- Node6&#45;&gt;Node8 -->
<g id="edge14" class="edge"><title>Node6&#45;&gt;Node8</title>
<path fill="none" stroke="midnightblue" d="M181,-58.3619C181,-50.9219 181,-40.7427 181,-31.7276"/>
<polygon fill="midnightblue" stroke="midnightblue" points="184.5,-31.5706 181,-21.5707 177.5,-31.5707 184.5,-31.5706"/>
</g>
</g>
</svg>
