<?xml version="1.0" encoding="UTF-8" standalone="no"?>
<!DOCTYPE svg PUBLIC "-//W3C//DTD SVG 1.1//EN"
 "http://www.w3.org/Graphics/SVG/1.1/DTD/svg11.dtd">
<!-- Generated by graphviz version 2.26.3 (20100126.1600)
 -->
<!-- Title: src/expconfig/detectors/TAPS.h Pages: 1 -->
<svg width="3456pt" height="696pt"
 viewBox="0.00 0.00 3456.00 696.00" xmlns="http://www.w3.org/2000/svg" xmlns:xlink="http://www.w3.org/1999/xlink">
<g id="graph1" class="graph" transform="scale(1 1) rotate(0) translate(4 692)">
<title>src/expconfig/detectors/TAPS.h</title>
<polygon fill="white" stroke="white" points="-4,5 -4,-692 3453,-692 3453,5 -4,5"/>
<!-- Node1 -->
<g id="node1" class="node"><title>Node1</title>
<polygon fill="#bfbfbf" stroke="black" points="3211.5,-653 3211.5,-687 3330.5,-687 3330.5,-653 3211.5,-653"/>
<text text-anchor="start" x="3219.5" y="-674" font-family="Helvetica,sans-Serif" font-size="10.00">src/expconfig/detectors</text>
<text text-anchor="middle" x="3271" y="-661" font-family="Helvetica,sans-Serif" font-size="10.00">/TAPS.h</text>
</g>
<!-- Node2 -->
<g id="node3" class="node"><title>Node2</title>
<a xlink:href="_detector__t_8h.html" target="_top" xlink:title="base/Detector_t.h">
<polygon fill="white" stroke="black" points="461.5,-116.5 461.5,-137.5 556.5,-137.5 556.5,-116.5 461.5,-116.5"/>
<text text-anchor="middle" x="509" y="-124.5" font-family="Helvetica,sans-Serif" font-size="10.00">base/Detector_t.h</text>
</a>
</g>
<!-- Node1&#45;&gt;Node2 -->
<g id="edge2" class="edge"><title>Node1&#45;&gt;Node2</title>
<path fill="none" stroke="midnightblue" d="M3211.26,-669.217C2887.78,-664.893 1342.9,-643.136 866,-616 703.318,-606.743 136,-709.945 136,-547 136,-547 136,-547 136,-301 136,-218.623 197.74,-211.668 271,-174 301.805,-158.161 391.278,-143.273 451.311,-134.652"/>
<polygon fill="midnightblue" stroke="midnightblue" points="452.007,-138.089 461.417,-133.22 451.025,-131.158 452.007,-138.089"/>
</g>
<!-- Node11 -->
<g id="node22" class="node"><title>Node11</title>
<a xlink:href="_unpacker_acqu_8h.html" target="_top" xlink:title="unpacker/UnpackerAcqu.h">
<polygon fill="white" stroke="black" points="875,-594.5 875,-615.5 1007,-615.5 1007,-594.5 875,-594.5"/>
<text text-anchor="middle" x="941" y="-602.5" font-family="Helvetica,sans-Serif" font-size="10.00">unpacker/UnpackerAcqu.h</text>
</a>
</g>
<!-- Node1&#45;&gt;Node11 -->
<g id="edge22" class="edge"><title>Node1&#45;&gt;Node11</title>
<path fill="none" stroke="midnightblue" d="M3211.36,-668.336C2890.99,-659.399 1375.6,-617.124 1017.14,-607.124"/>
<polygon fill="midnightblue" stroke="midnightblue" points="1017.22,-603.625 1007.12,-606.845 1017.02,-610.622 1017.22,-603.625"/>
</g>
<!-- Node30 -->
<g id="node74" class="node"><title>Node30</title>
<polygon fill="white" stroke="#bfbfbf" points="3242,-116.5 3242,-137.5 3282,-137.5 3282,-116.5 3242,-116.5"/>
<text text-anchor="middle" x="3262" y="-124.5" font-family="Helvetica,sans-Serif" font-size="10.00">limits</text>
</g>
<!-- Node1&#45;&gt;Node30 -->
<g id="edge314" class="edge"><title>Node1&#45;&gt;Node30</title>
<path fill="none" stroke="midnightblue" d="M3275.41,-652.614C3281.02,-628.905 3290,-585.029 3290,-547 3290,-547 3290,-547 3290,-243 3290,-208.661 3278.26,-170.161 3269.99,-147.282"/>
<polygon fill="midnightblue" stroke="midnightblue" points="3273.17,-145.798 3266.38,-137.667 3266.61,-148.259 3273.17,-145.798"/>
</g>
<!-- Node38 -->
<g id="node99" class="node"><title>Node38</title>
<polygon fill="white" stroke="#bfbfbf" points="2714,-232.5 2714,-253.5 2768,-253.5 2768,-232.5 2714,-232.5"/>
<text text-anchor="middle" x="2741" y="-240.5" font-family="Helvetica,sans-Serif" font-size="10.00">iostream</text>
</g>
<!-- Node1&#45;&gt;Node38 -->
<g id="edge318" class="edge"><title>Node1&#45;&gt;Node38</title>
<path fill="none" stroke="midnightblue" d="M3240.7,-652.93C3169.48,-612.019 2987.71,-502.894 2858,-384 2815.47,-345.017 2774.48,-290.497 2754.19,-262.023"/>
<polygon fill="midnightblue" stroke="midnightblue" points="2756.98,-259.903 2748.35,-253.746 2751.26,-263.936 2756.98,-259.903"/>
</g>
<!-- Node62 -->
<g id="node218" class="node"><title>Node62</title>
<polygon fill="white" stroke="#bfbfbf" points="3317.5,-594.5 3317.5,-615.5 3382.5,-615.5 3382.5,-594.5 3317.5,-594.5"/>
<text text-anchor="middle" x="3350" y="-602.5" font-family="Helvetica,sans-Serif" font-size="10.00">TVector2.h</text>
</g>
<!-- Node1&#45;&gt;Node62 -->
<g id="edge312" class="edge"><title>Node1&#45;&gt;Node62</title>
<path fill="none" stroke="midnightblue" d="M3291.76,-652.922C3303.23,-643.479 3317.46,-631.774 3328.98,-622.296"/>
<polygon fill="midnightblue" stroke="midnightblue" points="3331.31,-624.909 3336.81,-615.852 3326.86,-619.503 3331.31,-624.909"/>
</g>
<!-- Node63 -->
<g id="node221" class="node"><title>Node63</title>
<polygon fill="white" stroke="#bfbfbf" points="3399.5,-594.5 3399.5,-615.5 3448.5,-615.5 3448.5,-594.5 3399.5,-594.5"/>
<text text-anchor="middle" x="3424" y="-602.5" font-family="Helvetica,sans-Serif" font-size="10.00">cassert</text>
</g>
<!-- Node1&#45;&gt;Node63 -->
<g id="edge316" class="edge"><title>Node1&#45;&gt;Node63</title>
<path fill="none" stroke="midnightblue" d="M3311.2,-652.922C3335.68,-642.522 3366.62,-629.378 3389.9,-619.488"/>
<polygon fill="midnightblue" stroke="midnightblue" points="3391.53,-622.597 3399.36,-615.466 3388.79,-616.155 3391.53,-622.597"/>
</g>
<!-- Node3 -->
<g id="node5" class="node"><title>Node3</title>
<a xlink:href="printable_8h.html" target="_top" xlink:title="base/printable.h">
<polygon fill="white" stroke="black" points="2203,-58.5 2203,-79.5 2289,-79.5 2289,-58.5 2203,-58.5"/>
<text text-anchor="middle" x="2246" y="-66.5" font-family="Helvetica,sans-Serif" font-size="10.00">base/printable.h</text>
</a>
</g>
<!-- Node2&#45;&gt;Node3 -->
<g id="edge4" class="edge"><title>Node2&#45;&gt;Node3</title>
<path fill="none" stroke="midnightblue" d="M556.613,-122.409C581.697,-120.148 612.989,-117.576 641,-116 1250.03,-81.7313 1990.56,-71.7067 2192.81,-69.5177"/>
<polygon fill="midnightblue" stroke="midnightblue" points="2192.91,-73.0169 2202.87,-69.4105 2192.83,-66.0173 2192.91,-73.0169"/>
</g>
<!-- Node4 -->
<g id="node7" class="node"><title>Node4</title>
<polygon fill="white" stroke="#bfbfbf" points="2541,-0.5 2541,-21.5 2585,-21.5 2585,-0.5 2541,-0.5"/>
<text text-anchor="middle" x="2563" y="-8.5" font-family="Helvetica,sans-Serif" font-size="10.00">vector</text>
</g>
<!-- Node2&#45;&gt;Node4 -->
<g id="edge20" class="edge"><title>Node2&#45;&gt;Node4</title>
<path fill="none" stroke="midnightblue" d="M510.894,-116.297C514.343,-100.395 523.301,-71.0073 544,-58 584.862,-32.322 2232.76,-23.4406 2281,-22 2371.49,-19.2977 2478.26,-14.7659 2530.67,-12.4533"/>
<polygon fill="midnightblue" stroke="midnightblue" points="2530.87,-15.9479 2540.71,-12.0082 2530.56,-8.9548 2530.87,-15.9479"/>
</g>
<!-- Node6 -->
<g id="node11" class="node"><title>Node6</title>
<polygon fill="white" stroke="#bfbfbf" points="722.5,-58.5 722.5,-79.5 787.5,-79.5 787.5,-58.5 722.5,-58.5"/>
<text text-anchor="middle" x="755" y="-66.5" font-family="Helvetica,sans-Serif" font-size="10.00">TVector3.h</text>
</g>
<!-- Node2&#45;&gt;Node6 -->
<g id="edge10" class="edge"><title>Node2&#45;&gt;Node6</title>
<path fill="none" stroke="midnightblue" d="M556.754,-116.573C596.182,-107.846 653.841,-94.8147 712.544,-80.3101"/>
<polygon fill="midnightblue" stroke="midnightblue" points="713.492,-83.6809 722.354,-77.8745 711.806,-76.8872 713.492,-83.6809"/>
</g>
<!-- Node7 -->
<g id="node13" class="node"><title>Node7</title>
<polygon fill="white" stroke="#bfbfbf" points="0,-58.5 0,-79.5 46,-79.5 46,-58.5 0,-58.5"/>
<text text-anchor="middle" x="23" y="-66.5" font-family="Helvetica,sans-Serif" font-size="10.00">cstdint</text>
</g>
<!-- Node2&#45;&gt;Node7 -->
<g id="edge12" class="edge"><title>Node2&#45;&gt;Node7</title>
<path fill="none" stroke="midnightblue" d="M461.197,-121.248C446.395,-119.51 430.028,-117.631 415,-116 258.419,-99.0105 213.898,-113.735 56.291,-79.8769"/>
<polygon fill="midnightblue" stroke="midnightblue" points="56.7567,-76.3963 46.2406,-77.6856 55.2655,-83.2356 56.7567,-76.3963"/>
</g>
<!-- Node8 -->
<g id="node15" class="node"><title>Node8</title>
<polygon fill="white" stroke="#bfbfbf" points="804.5,-58.5 804.5,-79.5 863.5,-79.5 863.5,-58.5 804.5,-58.5"/>
<text text-anchor="middle" x="834" y="-66.5" font-family="Helvetica,sans-Serif" font-size="10.00">stdexcept</text>
</g>
<!-- Node2&#45;&gt;Node8 -->
<g id="edge14" class="edge"><title>Node2&#45;&gt;Node8</title>
<path fill="none" stroke="midnightblue" d="M556.565,-120.984C611.702,-113.617 705.438,-99.8856 794.252,-80.2225"/>
<polygon fill="midnightblue" stroke="midnightblue" points="795.226,-83.591 804.217,-77.9861 793.693,-76.7608 795.226,-83.591"/>
</g>
<!-- Node9 -->
<g id="node17" class="node"><title>Node9</title>
<polygon fill="white" stroke="#bfbfbf" points="434.5,-0.5 434.5,-21.5 475.5,-21.5 475.5,-0.5 434.5,-0.5"/>
<text text-anchor="middle" x="455" y="-8.5" font-family="Helvetica,sans-Serif" font-size="10.00">string</text>
</g>
<!-- Node2&#45;&gt;Node9 -->
<g id="edge16" class="edge"><title>Node2&#45;&gt;Node9</title>
<path fill="none" stroke="midnightblue" d="M504.017,-116.295C494.975,-96.8724 475.742,-55.5561 464.239,-30.8462"/>
<polygon fill="midnightblue" stroke="midnightblue" points="467.365,-29.2679 459.971,-21.6792 461.019,-32.2222 467.365,-29.2679"/>
</g>
<!-- Node10 -->
<g id="node19" class="node"><title>Node10</title>
<polygon fill="white" stroke="#bfbfbf" points="553,-58.5 553,-79.5 615,-79.5 615,-58.5 553,-58.5"/>
<text text-anchor="middle" x="584" y="-66.5" font-family="Helvetica,sans-Serif" font-size="10.00">type_traits</text>
</g>
<!-- Node2&#45;&gt;Node10 -->
<g id="edge18" class="edge"><title>Node2&#45;&gt;Node10</title>
<path fill="none" stroke="midnightblue" d="M522.756,-116.362C533.751,-107.859 549.373,-95.7785 562.086,-85.9466"/>
<polygon fill="midnightblue" stroke="midnightblue" points="564.562,-88.4569 570.331,-79.5707 560.279,-82.9195 564.562,-88.4569"/>
</g>
<!-- Node3&#45;&gt;Node4 -->
<g id="edge6" class="edge"><title>Node3&#45;&gt;Node4</title>
<path fill="none" stroke="midnightblue" d="M2289.08,-61.1175C2353.47,-49.3375 2473.34,-27.404 2530.74,-16.9018"/>
<polygon fill="midnightblue" stroke="midnightblue" points="2531.5,-20.3215 2540.71,-15.0788 2530.24,-13.4358 2531.5,-20.3215"/>
</g>
<!-- Node5 -->
<g id="node9" class="node"><title>Node5</title>
<polygon fill="white" stroke="#bfbfbf" points="2220,-0.5 2220,-21.5 2272,-21.5 2272,-0.5 2220,-0.5"/>
<text text-anchor="middle" x="2246" y="-8.5" font-family="Helvetica,sans-Serif" font-size="10.00">ostream</text>
</g>
<!-- Node3&#45;&gt;Node5 -->
<g id="edge8" class="edge"><title>Node3&#45;&gt;Node5</title>
<path fill="none" stroke="midnightblue" d="M2246,-58.3619C2246,-50.9219 2246,-40.7427 2246,-31.7276"/>
<polygon fill="midnightblue" stroke="midnightblue" points="2249.5,-31.5706 2246,-21.5707 2242.5,-31.5707 2249.5,-31.5706"/>
</g>
<!-- Node11&#45;&gt;Node2 -->
<g id="edge298" class="edge"><title>Node11&#45;&gt;Node2</title>
<path fill="none" stroke="midnightblue" d="M874.567,-602.069C746.452,-595.987 469.705,-580.648 377,-558 299.784,-539.136 212,-568.487 212,-489 212,-489 212,-489 212,-301 212,-269.192 209.571,-255.507 231,-232 288.616,-168.796 388.184,-143.419 451.212,-133.382"/>
<polygon fill="midnightblue" stroke="midnightblue" points="452.021,-136.799 461.386,-131.844 450.975,-129.878 452.021,-136.799"/>
</g>
<!-- Node11&#45;&gt;Node4 -->
<g id="edge306" class="edge"><title>Node11&#45;&gt;Node4</title>
<path fill="none" stroke="midnightblue" d="M1007.05,-604.725C1225.1,-603.459 1941.83,-596.442 2533,-558 2789.75,-541.304 2902.88,-653.994 3109,-500 3207.85,-426.151 3214,-366.388 3214,-243 3214,-243 3214,-243 3214,-127 3214,-75.8889 3169.77,-76.1816 3122,-58 3024.64,-20.9426 2699.63,-12.9986 2595.44,-11.3884"/>
<polygon fill="midnightblue" stroke="midnightblue" points="2595.28,-7.88573 2585.23,-11.2402 2595.18,-14.885 2595.28,-7.88573"/>
</g>
<!-- Node11&#45;&gt;Node7 -->
<g id="edge308" class="edge"><title>Node11&#45;&gt;Node7</title>
<path fill="none" stroke="midnightblue" d="M874.847,-604.043C722.704,-601.289 351.829,-591.274 232,-558 167.455,-540.077 98,-555.987 98,-489 98,-489 98,-489 98,-185 98,-144.846 65.9161,-107.594 43.7175,-86.6261"/>
<polygon fill="midnightblue" stroke="midnightblue" points="45.816,-83.8036 36.064,-79.6624 41.1051,-88.9812 45.816,-83.8036"/>
</g>
<!-- Node12 -->
<g id="node24" class="node"><title>Node12</title>
<a xlink:href="_unpacker_8h.html" target="_top" xlink:title="Unpacker.h">
<polygon fill="white" stroke="black" points="239.5,-232.5 239.5,-253.5 306.5,-253.5 306.5,-232.5 239.5,-232.5"/>
<text text-anchor="middle" x="273" y="-240.5" font-family="Helvetica,sans-Serif" font-size="10.00">Unpacker.h</text>
</a>
</g>
<!-- Node11&#45;&gt;Node12 -->
<g id="edge24" class="edge"><title>Node11&#45;&gt;Node12</title>
<path fill="none" stroke="midnightblue" d="M874.793,-600.199C708.229,-587.238 285,-548.454 285,-489 285,-489 285,-489 285,-366 285,-329.904 279.818,-288.131 276.264,-263.73"/>
<polygon fill="midnightblue" stroke="midnightblue" points="279.723,-263.191 274.771,-253.825 272.801,-264.235 279.723,-263.191"/>
</g>
<!-- Node13 -->
<g id="node27" class="node"><title>Node13</title>
<polygon fill="white" stroke="#bfbfbf" points="990,-174.5 990,-195.5 1042,-195.5 1042,-174.5 990,-174.5"/>
<text text-anchor="middle" x="1016" y="-182.5" font-family="Helvetica,sans-Serif" font-size="10.00">memory</text>
</g>
<!-- Node11&#45;&gt;Node13 -->
<g id="edge300" class="edge"><title>Node11&#45;&gt;Node13</title>
<path fill="none" stroke="midnightblue" d="M896.757,-594.44C823.984,-575.768 687,-534.57 687,-489 687,-489 687,-489 687,-431 687,-335.171 695.62,-292.422 770,-232 801.678,-206.267 919.183,-193 979.603,-187.755"/>
<polygon fill="midnightblue" stroke="midnightblue" points="980.166,-191.22 989.838,-186.896 979.58,-184.244 980.166,-191.22"/>
</g>
<!-- Node14 -->
<g id="node29" class="node"><title>Node14</title>
<a xlink:href="_exp_config_8h.html" target="_top" xlink:title="expconfig/ExpConfig.h">
<polygon fill="white" stroke="black" points="1136,-536.5 1136,-557.5 1252,-557.5 1252,-536.5 1136,-536.5"/>
<text text-anchor="middle" x="1194" y="-544.5" font-family="Helvetica,sans-Serif" font-size="10.00">expconfig/ExpConfig.h</text>
</a>
</g>
<!-- Node11&#45;&gt;Node14 -->
<g id="edge30" class="edge"><title>Node11&#45;&gt;Node14</title>
<path fill="none" stroke="midnightblue" d="M986.816,-594.497C1029.31,-584.755 1092.66,-570.233 1138.11,-559.813"/>
<polygon fill="midnightblue" stroke="midnightblue" points="1139.13,-563.169 1148.1,-557.523 1137.57,-556.346 1139.13,-563.169"/>
</g>
<!-- Node18 -->
<g id="node40" class="node"><title>Node18</title>
<polygon fill="white" stroke="#bfbfbf" points="1131.5,-116.5 1131.5,-137.5 1160.5,-137.5 1160.5,-116.5 1131.5,-116.5"/>
<text text-anchor="middle" x="1146" y="-124.5" font-family="Helvetica,sans-Serif" font-size="10.00">list</text>
</g>
<!-- Node11&#45;&gt;Node18 -->
<g id="edge302" class="edge"><title>Node11&#45;&gt;Node18</title>
<path fill="none" stroke="midnightblue" d="M874.905,-600.71C755.249,-591.117 515,-562.681 515,-489 515,-489 515,-489 515,-431 515,-393.157 516.125,-381.355 534,-348 567.56,-285.375 583.407,-269.103 644,-232 692.213,-202.478 714.19,-218.622 766,-196 783.533,-188.344 784.94,-180.314 803,-174 862.121,-153.332 1052.29,-135.168 1120.96,-129.127"/>
<polygon fill="midnightblue" stroke="midnightblue" points="1121.6,-132.585 1131.26,-128.233 1121,-125.611 1121.6,-132.585"/>
</g>
<!-- Node21 -->
<g id="node51" class="node"><title>Node21</title>
<polygon fill="white" stroke="#bfbfbf" points="2753.5,-174.5 2753.5,-195.5 2788.5,-195.5 2788.5,-174.5 2753.5,-174.5"/>
<text text-anchor="middle" x="2771" y="-182.5" font-family="Helvetica,sans-Serif" font-size="10.00">map</text>
</g>
<!-- Node11&#45;&gt;Node21 -->
<g id="edge304" class="edge"><title>Node11&#45;&gt;Node21</title>
<path fill="none" stroke="midnightblue" d="M1007.01,-603.232C1370.01,-593.301 3107,-542.957 3107,-489 3107,-489 3107,-489 3107,-431 3107,-313.514 3039.4,-281.814 2933,-232 2888.01,-210.936 2831.51,-197.15 2798.51,-190.246"/>
<polygon fill="midnightblue" stroke="midnightblue" points="2799.16,-186.807 2788.66,-188.246 2797.77,-193.667 2799.16,-186.807"/>
</g>
<!-- Node11&#45;&gt;Node30 -->
<g id="edge310" class="edge"><title>Node11&#45;&gt;Node30</title>
<path fill="none" stroke="midnightblue" d="M1007.25,-604.77C1374.71,-603.355 3147.64,-594.635 3190,-558 3252.89,-503.604 3260.87,-226.321 3261.86,-147.766"/>
<polygon fill="midnightblue" stroke="midnightblue" points="3265.36,-147.703 3261.96,-137.668 3258.36,-147.632 3265.36,-147.703"/>
</g>
<!-- Node12&#45;&gt;Node9 -->
<g id="edge26" class="edge"><title>Node12&#45;&gt;Node9</title>
<path fill="none" stroke="midnightblue" d="M268.019,-232.373C254.4,-201.582 220.256,-111.13 262,-58 281.85,-32.7364 375.048,-19.3502 424.306,-13.9351"/>
<polygon fill="midnightblue" stroke="midnightblue" points="424.816,-17.4008 434.393,-12.8703 424.081,-10.4395 424.816,-17.4008"/>
</g>
<!-- Node12&#45;&gt;Node13 -->
<g id="edge28" class="edge"><title>Node12&#45;&gt;Node13</title>
<path fill="none" stroke="midnightblue" d="M306.856,-240.357C429.886,-230.753 852.7,-197.748 979.666,-187.836"/>
<polygon fill="midnightblue" stroke="midnightblue" points="980.301,-191.297 989.999,-187.03 979.757,-184.319 980.301,-191.297"/>
</g>
<!-- Node14&#45;&gt;Node2 -->
<g id="edge32" class="edge"><title>Node14&#45;&gt;Node2</title>
<path fill="none" stroke="midnightblue" d="M1135.9,-545.292C942.708,-538.851 334,-512.12 334,-431 334,-431 334,-431 334,-301 334,-222.311 424.075,-166.971 474.978,-141.979"/>
<polygon fill="midnightblue" stroke="midnightblue" points="476.783,-144.995 484.298,-137.527 473.766,-138.679 476.783,-144.995"/>
</g>
<!-- Node14&#45;&gt;Node3 -->
<g id="edge290" class="edge"><title>Node14&#45;&gt;Node3</title>
<path fill="none" stroke="midnightblue" d="M1252.05,-545.823C1474.43,-541.176 2272.3,-523.226 2525,-500 2756.05,-478.764 2871.62,-549.735 3034,-384 3261.76,-151.531 2509.76,-85.711 2299.24,-72.0312"/>
<polygon fill="midnightblue" stroke="midnightblue" points="2299.25,-68.5248 2289.04,-71.3824 2298.8,-75.5107 2299.25,-68.5248"/>
</g>
<!-- Node14&#45;&gt;Node13 -->
<g id="edge292" class="edge"><title>Node14&#45;&gt;Node13</title>
<path fill="none" stroke="midnightblue" d="M1157.64,-536.402C1068.92,-508.186 843.761,-421.699 777,-254 773.383,-244.916 770.789,-239.552 777,-232 802.214,-201.344 918.971,-190.375 979.452,-186.704"/>
<polygon fill="midnightblue" stroke="midnightblue" points="979.921,-190.183 989.706,-186.119 979.523,-183.195 979.921,-190.183"/>
</g>
<!-- Node15 -->
<g id="node32" class="node"><title>Node15</title>
<a xlink:href="_reconstruct__traits_8h.html" target="_top" xlink:title="reconstruct/Reconstruct\l_traits.h">
<polygon fill="white" stroke="black" points="909,-349 909,-383 1031,-383 1031,-349 909,-349"/>
<text text-anchor="start" x="917" y="-370" font-family="Helvetica,sans-Serif" font-size="10.00">reconstruct/Reconstruct</text>
<text text-anchor="middle" x="970" y="-357" font-family="Helvetica,sans-Serif" font-size="10.00">_traits.h</text>
</a>
</g>
<!-- Node14&#45;&gt;Node15 -->
<g id="edge34" class="edge"><title>Node14&#45;&gt;Node15</title>
<path fill="none" stroke="midnightblue" d="M1180.99,-536.486C1145.86,-508.1 1048.43,-429.373 999.228,-389.617"/>
<polygon fill="midnightblue" stroke="midnightblue" points="1001.17,-386.689 991.195,-383.126 996.773,-392.133 1001.17,-386.689"/>
</g>
<!-- Node14&#45;&gt;Node18 -->
<g id="edge294" class="edge"><title>Node14&#45;&gt;Node18</title>
<path fill="none" stroke="midnightblue" d="M1252.2,-536.506C1307.41,-522.801 1382,-492.843 1382,-431 1382,-431 1382,-431 1382,-301 1382,-269.192 1386.58,-253.343 1363,-232 1292.46,-168.167 1216.45,-265.978 1152,-196 1140.27,-183.26 1139.84,-163.012 1141.71,-147.739"/>
<polygon fill="midnightblue" stroke="midnightblue" points="1145.19,-148.107 1143.34,-137.675 1138.28,-146.983 1145.19,-148.107"/>
</g>
<!-- Node14&#45;&gt;Node21 -->
<g id="edge296" class="edge"><title>Node14&#45;&gt;Node21</title>
<path fill="none" stroke="midnightblue" d="M1252.06,-546.335C1549.18,-542.343 2890.38,-517.012 3012,-384 3089.09,-299.687 2876.36,-219.452 2798.39,-193.619"/>
<polygon fill="midnightblue" stroke="midnightblue" points="2799.33,-190.245 2788.74,-190.473 2797.16,-196.9 2799.33,-190.245"/>
</g>
<!-- Node22 -->
<g id="node54" class="node"><title>Node22</title>
<a xlink:href="_calibration_8h.html" target="_top" xlink:title="calibration/Calibration.h">
<polygon fill="white" stroke="black" points="1409.5,-478.5 1409.5,-499.5 1528.5,-499.5 1528.5,-478.5 1409.5,-478.5"/>
<text text-anchor="middle" x="1469" y="-486.5" font-family="Helvetica,sans-Serif" font-size="10.00">calibration/Calibration.h</text>
</a>
</g>
<!-- Node14&#45;&gt;Node22 -->
<g id="edge64" class="edge"><title>Node14&#45;&gt;Node22</title>
<path fill="none" stroke="midnightblue" d="M1243.8,-536.497C1290.28,-526.693 1359.71,-512.05 1409.18,-501.616"/>
<polygon fill="midnightblue" stroke="midnightblue" points="1410.04,-505.011 1419.11,-499.523 1408.6,-498.162 1410.04,-505.011"/>
</g>
<!-- Node15&#45;&gt;Node2 -->
<g id="edge36" class="edge"><title>Node15&#45;&gt;Node2</title>
<path fill="none" stroke="midnightblue" d="M908.992,-356.754C781.172,-336.776 494.738,-288.594 467,-254 440.914,-221.466 472.087,-172.088 493.027,-145.503"/>
<polygon fill="midnightblue" stroke="midnightblue" points="495.767,-147.682 499.381,-137.722 490.345,-143.254 495.767,-147.682"/>
</g>
<!-- Node15&#45;&gt;Node13 -->
<g id="edge58" class="edge"><title>Node15&#45;&gt;Node13</title>
<path fill="none" stroke="midnightblue" d="M962.777,-348.98C957.174,-333.5 951.115,-310.076 956,-290 964.042,-256.947 985.939,-223.673 1000.93,-203.698"/>
<polygon fill="midnightblue" stroke="midnightblue" points="1003.73,-205.803 1007.07,-195.747 998.186,-201.526 1003.73,-205.803"/>
</g>
<!-- Node16 -->
<g id="node35" class="node"><title>Node16</title>
<a xlink:href="_memory_pool_8h.html" target="_top" xlink:title="tree/MemoryPool.h">
<polygon fill="white" stroke="black" points="964.5,-290.5 964.5,-311.5 1063.5,-311.5 1063.5,-290.5 964.5,-290.5"/>
<text text-anchor="middle" x="1014" y="-298.5" font-family="Helvetica,sans-Serif" font-size="10.00">tree/MemoryPool.h</text>
</a>
</g>
<!-- Node15&#45;&gt;Node16 -->
<g id="edge38" class="edge"><title>Node15&#45;&gt;Node16</title>
<path fill="none" stroke="midnightblue" d="M981.56,-348.922C987.519,-340.12 994.806,-329.354 1000.96,-320.258"/>
<polygon fill="midnightblue" stroke="midnightblue" points="1003.95,-322.095 1006.65,-311.852 998.15,-318.171 1003.95,-322.095"/>
</g>
<!-- Node15&#45;&gt;Node18 -->
<g id="edge62" class="edge"><title>Node15&#45;&gt;Node18</title>
<path fill="none" stroke="midnightblue" d="M908.881,-350.636C837.564,-329.712 734.474,-288.316 777,-232 798.468,-203.571 1041.76,-149.328 1121.13,-132.27"/>
<polygon fill="midnightblue" stroke="midnightblue" points="1122.15,-135.63 1131.2,-130.116 1120.69,-128.785 1122.15,-135.63"/>
</g>
<!-- Node20 -->
<g id="node45" class="node"><title>Node20</title>
<a xlink:href="mapped__vectors_8h.html" target="_top" xlink:title="base/mapped_vectors.h">
<polygon fill="white" stroke="black" points="785.5,-232.5 785.5,-253.5 906.5,-253.5 906.5,-232.5 785.5,-232.5"/>
<text text-anchor="middle" x="846" y="-240.5" font-family="Helvetica,sans-Serif" font-size="10.00">base/mapped_vectors.h</text>
</a>
</g>
<!-- Node15&#45;&gt;Node20 -->
<g id="edge50" class="edge"><title>Node15&#45;&gt;Node20</title>
<path fill="none" stroke="midnightblue" d="M952.758,-348.897C929.441,-325.768 888.039,-284.7 864.225,-261.078"/>
<polygon fill="midnightblue" stroke="midnightblue" points="866.44,-258.345 856.875,-253.787 861.51,-263.315 866.44,-258.345"/>
</g>
<!-- Node15&#45;&gt;Node21 -->
<g id="edge60" class="edge"><title>Node15&#45;&gt;Node21</title>
<path fill="none" stroke="midnightblue" d="M1031.2,-365.099C1195.31,-362.211 1658.7,-350.958 2042,-312 2211.09,-294.813 2255.28,-295.918 2420,-254 2447.93,-246.892 2453.02,-238.91 2481,-232 2593.83,-204.135 2627.1,-223.574 2740,-196 2741.25,-195.695 2742.52,-195.359 2743.79,-194.999"/>
<polygon fill="midnightblue" stroke="midnightblue" points="2745.02,-198.282 2753.48,-191.912 2742.89,-191.612 2745.02,-198.282"/>
</g>
<!-- Node16&#45;&gt;Node13 -->
<g id="edge46" class="edge"><title>Node16&#45;&gt;Node13</title>
<path fill="none" stroke="midnightblue" d="M1006.5,-290.395C997.933,-276.977 985.744,-253.073 991,-232 993.411,-222.332 998.226,-212.471 1002.99,-204.295"/>
<polygon fill="midnightblue" stroke="midnightblue" points="1006.1,-205.921 1008.42,-195.582 1000.16,-202.221 1006.1,-205.921"/>
</g>
<!-- Node17 -->
<g id="node37" class="node"><title>Node17</title>
<a xlink:href="memory_8h.html" target="_top" xlink:title="base/std_ext/memory.h">
<polygon fill="white" stroke="black" points="1235.5,-232.5 1235.5,-253.5 1354.5,-253.5 1354.5,-232.5 1235.5,-232.5"/>
<text text-anchor="middle" x="1295" y="-240.5" font-family="Helvetica,sans-Serif" font-size="10.00">base/std_ext/memory.h</text>
</a>
</g>
<!-- Node16&#45;&gt;Node17 -->
<g id="edge40" class="edge"><title>Node16&#45;&gt;Node17</title>
<path fill="none" stroke="midnightblue" d="M1063.59,-290.764C1111.15,-280.947 1183.07,-266.102 1234.1,-255.571"/>
<polygon fill="midnightblue" stroke="midnightblue" points="1234.92,-258.974 1244.01,-253.525 1233.51,-252.119 1234.92,-258.974"/>
</g>
<!-- Node19 -->
<g id="node43" class="node"><title>Node19</title>
<polygon fill="white" stroke="#bfbfbf" points="999.5,-232.5 999.5,-253.5 1066.5,-253.5 1066.5,-232.5 999.5,-232.5"/>
<text text-anchor="middle" x="1033" y="-240.5" font-family="Helvetica,sans-Serif" font-size="10.00">forward_list</text>
</g>
<!-- Node16&#45;&gt;Node19 -->
<g id="edge48" class="edge"><title>Node16&#45;&gt;Node19</title>
<path fill="none" stroke="midnightblue" d="M1017.48,-290.362C1019.98,-282.758 1023.4,-272.294 1026.4,-263.135"/>
<polygon fill="midnightblue" stroke="midnightblue" points="1029.75,-264.163 1029.54,-253.571 1023.1,-261.984 1029.75,-264.163"/>
</g>
<!-- Node17&#45;&gt;Node13 -->
<g id="edge42" class="edge"><title>Node17&#45;&gt;Node13</title>
<path fill="none" stroke="midnightblue" d="M1235.31,-232.533C1186.81,-223.722 1116.71,-210.297 1056,-196 1054.74,-195.703 1053.46,-195.393 1052.16,-195.074"/>
<polygon fill="midnightblue" stroke="midnightblue" points="1052.74,-191.607 1042.18,-192.498 1050.99,-198.385 1052.74,-191.607"/>
</g>
<!-- Node17&#45;&gt;Node18 -->
<g id="edge44" class="edge"><title>Node17&#45;&gt;Node18</title>
<path fill="none" stroke="midnightblue" d="M1235.42,-232.914C1179.44,-222.831 1102.92,-207.249 1094,-196 1079.22,-177.368 1102.69,-155.35 1122.7,-141.286"/>
<polygon fill="midnightblue" stroke="midnightblue" points="1124.85,-144.062 1131.22,-135.602 1120.96,-138.239 1124.85,-144.062"/>
</g>
<!-- Node20&#45;&gt;Node4 -->
<g id="edge52" class="edge"><title>Node20&#45;&gt;Node4</title>
<path fill="none" stroke="midnightblue" d="M906.66,-238.226C932.629,-236.227 963.296,-233.926 991,-232 1244.23,-214.399 1309.61,-231.135 1561,-196 1846.17,-156.144 1910.24,-106.905 2194,-58 2317.63,-36.6925 2466.11,-20.6587 2530.54,-14.1644"/>
<polygon fill="midnightblue" stroke="midnightblue" points="2531.25,-17.6106 2540.86,-13.1339 2530.56,-10.6453 2531.25,-17.6106"/>
</g>
<!-- Node20&#45;&gt;Node10 -->
<g id="edge56" class="edge"><title>Node20&#45;&gt;Node10</title>
<path fill="none" stroke="midnightblue" d="M785.344,-239.601C720.231,-234.604 622.778,-222.777 598,-196 571.267,-167.11 574.867,-117.253 579.594,-89.3751"/>
<polygon fill="midnightblue" stroke="midnightblue" points="583.035,-90.014 581.468,-79.5358 576.159,-88.7045 583.035,-90.014"/>
</g>
<!-- Node20&#45;&gt;Node13 -->
<g id="edge54" class="edge"><title>Node20&#45;&gt;Node13</title>
<path fill="none" stroke="midnightblue" d="M876.786,-232.497C905.842,-222.583 949.404,-207.721 980.043,-197.268"/>
<polygon fill="midnightblue" stroke="midnightblue" points="981.564,-200.447 989.899,-193.905 979.304,-193.822 981.564,-200.447"/>
</g>
<!-- Node22&#45;&gt;Node4 -->
<g id="edge288" class="edge"><title>Node22&#45;&gt;Node4</title>
<path fill="none" stroke="midnightblue" d="M1528.78,-487.162C1795.86,-478.649 2872.87,-441.032 3012,-384 3100.94,-347.54 3176,-339.124 3176,-243 3176,-243 3176,-243 3176,-127 3176,-71.159 3123.7,-76.4547 3071,-58 2982.47,-27 2692.68,-15.1233 2595.27,-11.9468"/>
<polygon fill="midnightblue" stroke="midnightblue" points="2595.25,-8.44456 2585.15,-11.6257 2595.03,-15.441 2595.25,-8.44456"/>
</g>
<!-- Node22&#45;&gt;Node15 -->
<g id="edge272" class="edge"><title>Node22&#45;&gt;Node15</title>
<path fill="none" stroke="midnightblue" d="M1426.02,-478.407C1340.03,-457.209 1146.04,-409.392 1040.92,-383.48"/>
<polygon fill="midnightblue" stroke="midnightblue" points="1041.57,-380.038 1031.03,-381.043 1039.9,-386.834 1041.57,-380.038"/>
</g>
<!-- Node23 -->
<g id="node56" class="node"><title>Node23</title>
<a xlink:href="_physics_8h.html" target="_top" xlink:title="analysis/physics/Physics.h">
<polygon fill="white" stroke="black" points="1781,-420.5 1781,-441.5 1917,-441.5 1917,-420.5 1781,-420.5"/>
<text text-anchor="middle" x="1849" y="-428.5" font-family="Helvetica,sans-Serif" font-size="10.00">analysis/physics/Physics.h</text>
</a>
</g>
<!-- Node22&#45;&gt;Node23 -->
<g id="edge66" class="edge"><title>Node22&#45;&gt;Node23</title>
<path fill="none" stroke="midnightblue" d="M1528.79,-479.874C1594.17,-469.895 1699.17,-453.868 1770.99,-442.907"/>
<polygon fill="midnightblue" stroke="midnightblue" points="1771.54,-446.364 1780.89,-441.395 1770.48,-439.444 1771.54,-446.364"/>
</g>
<!-- Node60 -->
<g id="node197" class="node"><title>Node60</title>
<a xlink:href="_manager__traits_8h.html" target="_top" xlink:title="calibration/gui/Manager\l_traits.h">
<polygon fill="white" stroke="black" points="542.5,-349 542.5,-383 659.5,-383 659.5,-349 542.5,-349"/>
<text text-anchor="start" x="550.5" y="-370" font-family="Helvetica,sans-Serif" font-size="10.00">calibration/gui/Manager</text>
<text text-anchor="middle" x="601" y="-357" font-family="Helvetica,sans-Serif" font-size="10.00">_traits.h</text>
</a>
</g>
<!-- Node22&#45;&gt;Node60 -->
<g id="edge274" class="edge"><title>Node22&#45;&gt;Node60</title>
<path fill="none" stroke="midnightblue" d="M1409.34,-480.546C1253.55,-458.47 835.157,-399.181 669.701,-375.735"/>
<polygon fill="midnightblue" stroke="midnightblue" points="670.038,-372.248 659.645,-374.31 669.055,-379.179 670.038,-372.248"/>
</g>
<!-- Node23&#45;&gt;Node9 -->
<g id="edge264" class="edge"><title>Node23&#45;&gt;Node9</title>
<path fill="none" stroke="midnightblue" d="M1780.92,-429.892C1528.77,-425.609 656.309,-409.105 534,-384 377.149,-351.805 288.519,-386.08 198,-254 161.576,-200.851 13.755,-279.364 246,-58 271.322,-33.8646 372.287,-19.821 424.05,-14.0703"/>
<polygon fill="midnightblue" stroke="midnightblue" points="424.735,-17.5169 434.304,-12.9684 423.987,-10.557 424.735,-17.5169"/>
</g>
<!-- Node23&#45;&gt;Node13 -->
<g id="edge268" class="edge"><title>Node23&#45;&gt;Node13</title>
<path fill="none" stroke="midnightblue" d="M1780.77,-426.318C1674.63,-418.601 1474.98,-402.24 1406,-384 1266.3,-347.058 1232.86,-326.728 1108,-254 1093.77,-245.713 1059.69,-219.465 1037.24,-201.838"/>
<polygon fill="midnightblue" stroke="midnightblue" points="1039.3,-198.999 1029.28,-195.559 1034.96,-204.498 1039.3,-198.999"/>
</g>
<!-- Node23&#45;&gt;Node18 -->
<g id="edge262" class="edge"><title>Node23&#45;&gt;Node18</title>
<path fill="none" stroke="midnightblue" d="M1800.86,-420.449C1730.81,-403.866 1598.02,-367.728 1496,-312 1446.05,-284.716 1448.05,-255.037 1396,-232 1303.39,-191.011 1249.05,-260.535 1171,-196 1156.7,-184.174 1150.58,-163.47 1147.96,-147.818"/>
<polygon fill="midnightblue" stroke="midnightblue" points="1151.38,-146.971 1146.6,-137.513 1144.44,-147.884 1151.38,-146.971"/>
</g>
<!-- Node23&#45;&gt;Node21 -->
<g id="edge266" class="edge"><title>Node23&#45;&gt;Node21</title>
<path fill="none" stroke="midnightblue" d="M1917.14,-429.002C2075.38,-423.989 2463.96,-409.424 2592,-384 2725.39,-357.514 2812.94,-377.902 2869,-254 2884.04,-220.756 2832.49,-200.68 2798.52,-191.33"/>
<polygon fill="midnightblue" stroke="midnightblue" points="2799.2,-187.889 2788.64,-188.771 2797.44,-194.666 2799.2,-187.889"/>
</g>
<!-- Node24 -->
<g id="node58" class="node"><title>Node24</title>
<a xlink:href="_histogram_factories_8h.html" target="_top" xlink:title="analysis/plot/HistogramFactories.h">
<polygon fill="white" stroke="black" points="1922,-355.5 1922,-376.5 2090,-376.5 2090,-355.5 1922,-355.5"/>
<text text-anchor="middle" x="2006" y="-363.5" font-family="Helvetica,sans-Serif" font-size="10.00">analysis/plot/HistogramFactories.h</text>
</a>
</g>
<!-- Node23&#45;&gt;Node24 -->
<g id="edge68" class="edge"><title>Node23&#45;&gt;Node24</title>
<path fill="none" stroke="midnightblue" d="M1874.57,-420.412C1900.8,-409.552 1941.79,-392.583 1971.02,-380.484"/>
<polygon fill="midnightblue" stroke="midnightblue" points="1972.54,-383.643 1980.44,-376.584 1969.86,-377.175 1972.54,-383.643"/>
</g>
<!-- Node33 -->
<g id="node86" class="node"><title>Node33</title>
<polygon fill="white" stroke="#bfbfbf" points="2461.5,-174.5 2461.5,-195.5 2520.5,-195.5 2520.5,-174.5 2461.5,-174.5"/>
<text text-anchor="middle" x="2491" y="-182.5" font-family="Helvetica,sans-Serif" font-size="10.00">functional</text>
</g>
<!-- Node23&#45;&gt;Node33 -->
<g id="edge270" class="edge"><title>Node23&#45;&gt;Node33</title>
<path fill="none" stroke="midnightblue" d="M1917.35,-430.06C2124.01,-425.611 2735.31,-400.112 2853,-254 2859.13,-246.385 2859.52,-239.286 2853,-232 2806.62,-180.182 2616.19,-207.691 2530.86,-195.832"/>
<polygon fill="midnightblue" stroke="midnightblue" points="2531.19,-192.339 2520.75,-194.134 2530.03,-199.242 2531.19,-192.339"/>
</g>
<!-- Node47 -->
<g id="node137" class="node"><title>Node47</title>
<a xlink:href="_event_8h.html" target="_top" xlink:title="analysis/data/Event.h">
<polygon fill="white" stroke="black" points="1793.5,-355.5 1793.5,-376.5 1904.5,-376.5 1904.5,-355.5 1793.5,-355.5"/>
<text text-anchor="middle" x="1849" y="-363.5" font-family="Helvetica,sans-Serif" font-size="10.00">analysis/data/Event.h</text>
</a>
</g>
<!-- Node23&#45;&gt;Node47 -->
<g id="edge180" class="edge"><title>Node23&#45;&gt;Node47</title>
<path fill="none" stroke="midnightblue" d="M1849,-420.267C1849,-411.18 1849,-397.892 1849,-386.74"/>
<polygon fill="midnightblue" stroke="midnightblue" points="1852.5,-386.534 1849,-376.534 1845.5,-386.534 1852.5,-386.534"/>
</g>
<!-- Node59 -->
<g id="node188" class="node"><title>Node59</title>
<a xlink:href="_slowcontrol_8h.html" target="_top" xlink:title="analysis/data/Slowcontrol.h">
<polygon fill="white" stroke="black" points="2866.5,-355.5 2866.5,-376.5 3003.5,-376.5 3003.5,-355.5 2866.5,-355.5"/>
<text text-anchor="middle" x="2935" y="-363.5" font-family="Helvetica,sans-Serif" font-size="10.00">analysis/data/Slowcontrol.h</text>
</a>
</g>
<!-- Node23&#45;&gt;Node59 -->
<g id="edge258" class="edge"><title>Node23&#45;&gt;Node59</title>
<path fill="none" stroke="midnightblue" d="M1917.01,-429.319C2112.12,-424.256 2671.36,-408.012 2853,-384 2862.97,-382.682 2873.52,-380.767 2883.62,-378.672"/>
<polygon fill="midnightblue" stroke="midnightblue" points="2884.49,-382.065 2893.53,-376.533 2883.01,-375.223 2884.49,-382.065"/>
</g>
<!-- Node24&#45;&gt;Node9 -->
<g id="edge178" class="edge"><title>Node24&#45;&gt;Node9</title>
<path fill="none" stroke="midnightblue" d="M1985.11,-355.437C1946.54,-335.858 1861.61,-292.424 1791,-254 1681.91,-194.633 1666.43,-153.43 1548,-116 1341.65,-50.7796 641.552,-18.6541 485.854,-12.2224"/>
<polygon fill="midnightblue" stroke="midnightblue" points="485.733,-8.71464 475.598,-11.8036 485.447,-15.7088 485.733,-8.71464"/>
</g>
<!-- Node25 -->
<g id="node60" class="node"><title>Node25</title>
<a xlink:href="_histogram_8h.html" target="_top" xlink:title="Histogram.h">
<polygon fill="white" stroke="black" points="2072,-232.5 2072,-253.5 2142,-253.5 2142,-232.5 2072,-232.5"/>
<text text-anchor="middle" x="2107" y="-240.5" font-family="Helvetica,sans-Serif" font-size="10.00">Histogram.h</text>
</a>
</g>
<!-- Node24&#45;&gt;Node25 -->
<g id="edge70" class="edge"><title>Node24&#45;&gt;Node25</title>
<path fill="none" stroke="midnightblue" d="M2014.96,-355.085C2032.23,-334.061 2070.27,-287.733 2091.64,-261.7"/>
<polygon fill="midnightblue" stroke="midnightblue" points="2094.56,-263.665 2098.2,-253.715 2089.15,-259.223 2094.56,-263.665"/>
</g>
<!-- Node31 -->
<g id="node76" class="node"><title>Node31</title>
<a xlink:href="_smart_hist_8h.html" target="_top" xlink:title="SmartHist.h">
<polygon fill="white" stroke="black" points="2509.5,-290.5 2509.5,-311.5 2578.5,-311.5 2578.5,-290.5 2509.5,-290.5"/>
<text text-anchor="middle" x="2544" y="-298.5" font-family="Helvetica,sans-Serif" font-size="10.00">SmartHist.h</text>
</a>
</g>
<!-- Node24&#45;&gt;Node31 -->
<g id="edge90" class="edge"><title>Node24&#45;&gt;Node31</title>
<path fill="none" stroke="midnightblue" d="M2090.08,-359.707C2188,-351.691 2354.44,-335.938 2496,-312 2497.1,-311.815 2498.2,-311.62 2499.32,-311.417"/>
<polygon fill="midnightblue" stroke="midnightblue" points="2500.35,-314.781 2509.49,-309.411 2499,-307.913 2500.35,-314.781"/>
</g>
<!-- Node40 -->
<g id="node103" class="node"><title>Node40</title>
<a xlink:href="_particle_8h.html" target="_top" xlink:title="analysis/data/Particle.h">
<polygon fill="white" stroke="black" points="1914.5,-290.5 1914.5,-311.5 2033.5,-311.5 2033.5,-290.5 1914.5,-290.5"/>
<text text-anchor="middle" x="1974" y="-298.5" font-family="Helvetica,sans-Serif" font-size="10.00">analysis/data/Particle.h</text>
</a>
</g>
<!-- Node24&#45;&gt;Node40 -->
<g id="edge126" class="edge"><title>Node24&#45;&gt;Node40</title>
<path fill="none" stroke="midnightblue" d="M2000.72,-355.267C1996.1,-345.896 1989.29,-332.057 1983.7,-320.7"/>
<polygon fill="midnightblue" stroke="midnightblue" points="1986.74,-318.96 1979.19,-311.534 1980.46,-322.051 1986.74,-318.96"/>
</g>
<!-- Node25&#45;&gt;Node4 -->
<g id="edge74" class="edge"><title>Node25&#45;&gt;Node4</title>
<path fill="none" stroke="midnightblue" d="M2142.27,-238.004C2198.24,-229.717 2304.6,-212.411 2339,-196 2428.3,-153.401 2512.27,-67.4612 2546.64,-29.6142"/>
<polygon fill="midnightblue" stroke="midnightblue" points="2549.5,-31.6724 2553.57,-21.8919 2544.29,-26.9974 2549.5,-31.6724"/>
</g>
<!-- Node25&#45;&gt;Node9 -->
<g id="edge76" class="edge"><title>Node25&#45;&gt;Node9</title>
<path fill="none" stroke="midnightblue" d="M2096.31,-232.377C2080.98,-217.621 2051.34,-190.841 2022,-174 1872.16,-88.0037 1821.82,-83.8558 1651,-58 1416.51,-22.5066 649.365,-12.9421 485.836,-11.2858"/>
<polygon fill="midnightblue" stroke="midnightblue" points="485.568,-7.78307 475.534,-11.1839 485.498,-14.7827 485.568,-7.78307"/>
</g>
<!-- Node26 -->
<g id="node62" class="node"><title>Node26</title>
<polygon fill="white" stroke="#bfbfbf" points="2276,-174.5 2276,-195.5 2330,-195.5 2330,-174.5 2276,-174.5"/>
<text text-anchor="middle" x="2303" y="-182.5" font-family="Helvetica,sans-Serif" font-size="10.00">TColor.h</text>
</g>
<!-- Node25&#45;&gt;Node26 -->
<g id="edge72" class="edge"><title>Node25&#45;&gt;Node26</title>
<path fill="none" stroke="midnightblue" d="M2142.04,-232.631C2176.92,-222.31 2230.24,-206.531 2265.84,-195.996"/>
<polygon fill="midnightblue" stroke="midnightblue" points="2267.23,-199.234 2275.83,-193.04 2265.25,-192.521 2267.23,-199.234"/>
</g>
<!-- Node27 -->
<g id="node66" class="node"><title>Node27</title>
<a xlink:href="interval_8h.html" target="_top" xlink:title="base/interval.h">
<polygon fill="white" stroke="black" points="1912,-174.5 1912,-195.5 1992,-195.5 1992,-174.5 1912,-174.5"/>
<text text-anchor="middle" x="1952" y="-182.5" font-family="Helvetica,sans-Serif" font-size="10.00">base/interval.h</text>
</a>
</g>
<!-- Node25&#45;&gt;Node27 -->
<g id="edge78" class="edge"><title>Node25&#45;&gt;Node27</title>
<path fill="none" stroke="midnightblue" d="M2078.93,-232.497C2053.99,-223.164 2017.33,-209.445 1989.81,-199.147"/>
<polygon fill="midnightblue" stroke="midnightblue" points="1990.71,-195.75 1980.12,-195.523 1988.26,-202.306 1990.71,-195.75"/>
</g>
<!-- Node27&#45;&gt;Node3 -->
<g id="edge84" class="edge"><title>Node27&#45;&gt;Node3</title>
<path fill="none" stroke="midnightblue" d="M1962.9,-174.38C1979.18,-159.125 2011.43,-131.179 2044,-116 2091.79,-93.7317 2151,-81.5609 2192.92,-75.2218"/>
<polygon fill="midnightblue" stroke="midnightblue" points="2193.53,-78.6701 2202.93,-73.7703 2192.53,-71.7427 2193.53,-78.6701"/>
</g>
<!-- Node27&#45;&gt;Node8 -->
<g id="edge82" class="edge"><title>Node27&#45;&gt;Node8</title>
<path fill="none" stroke="midnightblue" d="M1911.74,-177.775C1872.92,-170.162 1812.87,-156.676 1763,-138 1742.9,-130.471 1740.73,-121.58 1720,-116 1637.76,-93.8617 1036.32,-74.8953 874.176,-70.144"/>
<polygon fill="midnightblue" stroke="midnightblue" points="873.804,-66.6318 863.707,-69.8391 873.6,-73.6288 873.804,-66.6318"/>
</g>
<!-- Node28 -->
<g id="node68" class="node"><title>Node28</title>
<polygon fill="white" stroke="#bfbfbf" points="251,-0.5 251,-21.5 307,-21.5 307,-0.5 251,-0.5"/>
<text text-anchor="middle" x="279" y="-8.5" font-family="Helvetica,sans-Serif" font-size="10.00">algorithm</text>
</g>
<!-- Node27&#45;&gt;Node28 -->
<g id="edge80" class="edge"><title>Node27&#45;&gt;Node28</title>
<path fill="none" stroke="midnightblue" d="M1928.45,-174.38C1892.23,-158.584 1820.29,-129.335 1756,-116 1175.77,4.3557 1017.02,-64.9987 426,-22 389.173,-19.3207 347.163,-16.1674 317.511,-13.9255"/>
<polygon fill="midnightblue" stroke="midnightblue" points="317.414,-10.4082 307.178,-13.1433 316.886,-17.3882 317.414,-10.4082"/>
</g>
<!-- Node29 -->
<g id="node72" class="node"><title>Node29</title>
<a xlink:href="types_8h.html" target="_top" xlink:title="types.h">
<polygon fill="white" stroke="black" points="1662.5,-116.5 1662.5,-137.5 1711.5,-137.5 1711.5,-116.5 1662.5,-116.5"/>
<text text-anchor="middle" x="1687" y="-124.5" font-family="Helvetica,sans-Serif" font-size="10.00">types.h</text>
</a>
</g>
<!-- Node27&#45;&gt;Node29 -->
<g id="edge86" class="edge"><title>Node27&#45;&gt;Node29</title>
<path fill="none" stroke="midnightblue" d="M1911.9,-176.781C1849.18,-163.914 1734.06,-140.245 1725,-138 1723.93,-137.736 1722.85,-137.461 1721.76,-137.179"/>
<polygon fill="midnightblue" stroke="midnightblue" points="1722.43,-133.735 1711.86,-134.497 1720.6,-140.491 1722.43,-133.735"/>
</g>
<!-- Node27&#45;&gt;Node30 -->
<g id="edge88" class="edge"><title>Node27&#45;&gt;Node30</title>
<path fill="none" stroke="midnightblue" d="M1992.28,-183.217C2190.29,-174.45 3057.89,-136.037 3231.64,-128.344"/>
<polygon fill="midnightblue" stroke="midnightblue" points="3232.02,-131.831 3241.85,-127.892 3231.71,-124.838 3232.02,-131.831"/>
</g>
<!-- Node31&#45;&gt;Node9 -->
<g id="edge120" class="edge"><title>Node31&#45;&gt;Node9</title>
<path fill="none" stroke="midnightblue" d="M2509.22,-298.961C2423.96,-293.61 2209.95,-277.904 2189,-254 2139.2,-197.176 2387.14,-232.232 2339,-174 2215.64,-24.7876 720.102,-12.1604 485.795,-11.0972"/>
<polygon fill="midnightblue" stroke="midnightblue" points="485.615,-7.59655 475.601,-11.0548 485.586,-14.5965 485.615,-7.59655"/>
</g>
<!-- Node31&#45;&gt;Node13 -->
<g id="edge118" class="edge"><title>Node31&#45;&gt;Node13</title>
<path fill="none" stroke="midnightblue" d="M2509.3,-300.188C2307.41,-295.407 1290.8,-270.583 1227,-254 1206.22,-248.6 1203.99,-239.82 1184,-232 1139.78,-214.703 1086.71,-200.964 1052.22,-192.913"/>
<polygon fill="midnightblue" stroke="midnightblue" points="1052.67,-189.426 1042.14,-190.599 1051.1,-196.248 1052.67,-189.426"/>
</g>
<!-- Node31&#45;&gt;Node17 -->
<g id="edge110" class="edge"><title>Node31&#45;&gt;Node17</title>
<path fill="none" stroke="midnightblue" d="M2509.45,-299.684C2376.21,-294.564 1882.99,-275.209 1477,-254 1440.04,-252.069 1398.89,-249.608 1365.07,-247.503"/>
<polygon fill="midnightblue" stroke="midnightblue" points="1365.02,-243.994 1354.83,-246.863 1364.59,-250.98 1365.02,-243.994"/>
</g>
<!-- Node31&#45;&gt;Node25 -->
<g id="edge92" class="edge"><title>Node31&#45;&gt;Node25</title>
<path fill="none" stroke="midnightblue" d="M2509.31,-297.976C2441.25,-291.782 2285.56,-276.331 2156,-254 2154.74,-253.783 2153.47,-253.556 2152.19,-253.319"/>
<polygon fill="midnightblue" stroke="midnightblue" points="2152.73,-249.859 2142.24,-251.356 2151.38,-256.727 2152.73,-249.859"/>
</g>
<!-- Node32 -->
<g id="node79" class="node"><title>Node32</title>
<a xlink:href="root__draw_8h.html" target="_top" xlink:title="root_draw.h">
<polygon fill="white" stroke="black" points="1986,-232.5 1986,-253.5 2054,-253.5 2054,-232.5 1986,-232.5"/>
<text text-anchor="middle" x="2020" y="-240.5" font-family="Helvetica,sans-Serif" font-size="10.00">root_draw.h</text>
</a>
</g>
<!-- Node31&#45;&gt;Node32 -->
<g id="edge94" class="edge"><title>Node31&#45;&gt;Node32</title>
<path fill="none" stroke="midnightblue" d="M2509.34,-299.436C2431.4,-295.529 2236.31,-283.579 2064.16,-253.986"/>
<polygon fill="midnightblue" stroke="midnightblue" points="2064.62,-250.512 2054.16,-252.243 2063.42,-257.408 2064.62,-250.512"/>
</g>
<!-- Node35 -->
<g id="node91" class="node"><title>Node35</title>
<polygon fill="white" stroke="#bfbfbf" points="2509.5,-232.5 2509.5,-253.5 2560.5,-253.5 2560.5,-232.5 2509.5,-232.5"/>
<text text-anchor="middle" x="2535" y="-240.5" font-family="Helvetica,sans-Serif" font-size="10.00">TH1D.h</text>
</g>
<!-- Node31&#45;&gt;Node35 -->
<g id="edge112" class="edge"><title>Node31&#45;&gt;Node35</title>
<path fill="none" stroke="midnightblue" d="M2542.35,-290.362C2541.19,-282.922 2539.62,-272.743 2538.22,-263.728"/>
<polygon fill="midnightblue" stroke="midnightblue" points="2541.63,-262.916 2536.64,-253.571 2534.72,-263.989 2541.63,-262.916"/>
</g>
<!-- Node36 -->
<g id="node93" class="node"><title>Node36</title>
<polygon fill="white" stroke="#bfbfbf" points="2577.5,-232.5 2577.5,-253.5 2628.5,-253.5 2628.5,-232.5 2577.5,-232.5"/>
<text text-anchor="middle" x="2603" y="-240.5" font-family="Helvetica,sans-Serif" font-size="10.00">TH2D.h</text>
</g>
<!-- Node31&#45;&gt;Node36 -->
<g id="edge114" class="edge"><title>Node31&#45;&gt;Node36</title>
<path fill="none" stroke="midnightblue" d="M2554.82,-290.362C2563.22,-282.104 2575.05,-270.472 2584.89,-260.803"/>
<polygon fill="midnightblue" stroke="midnightblue" points="2587.57,-263.077 2592.25,-253.571 2582.66,-258.085 2587.57,-263.077"/>
</g>
<!-- Node37 -->
<g id="node95" class="node"><title>Node37</title>
<polygon fill="white" stroke="#bfbfbf" points="2645.5,-232.5 2645.5,-253.5 2696.5,-253.5 2696.5,-232.5 2645.5,-232.5"/>
<text text-anchor="middle" x="2671" y="-240.5" font-family="Helvetica,sans-Serif" font-size="10.00">TH3D.h</text>
</g>
<!-- Node31&#45;&gt;Node37 -->
<g id="edge116" class="edge"><title>Node31&#45;&gt;Node37</title>
<path fill="none" stroke="midnightblue" d="M2567,-290.497C2587.01,-281.356 2616.24,-268.008 2638.62,-257.788"/>
<polygon fill="midnightblue" stroke="midnightblue" points="2640.1,-260.959 2647.74,-253.621 2637.19,-254.592 2640.1,-260.959"/>
</g>
<!-- Node31&#45;&gt;Node38 -->
<g id="edge122" class="edge"><title>Node31&#45;&gt;Node38</title>
<path fill="none" stroke="midnightblue" d="M2578.58,-291.04C2609.17,-282.2 2655.26,-268.808 2704.09,-254.251"/>
<polygon fill="midnightblue" stroke="midnightblue" points="2705.3,-257.54 2713.88,-251.325 2703.3,-250.833 2705.3,-257.54"/>
</g>
<!-- Node39 -->
<g id="node101" class="node"><title>Node39</title>
<polygon fill="white" stroke="#bfbfbf" points="2785.5,-232.5 2785.5,-253.5 2844.5,-253.5 2844.5,-232.5 2785.5,-232.5"/>
<text text-anchor="middle" x="2815" y="-240.5" font-family="Helvetica,sans-Serif" font-size="10.00">exception</text>
</g>
<!-- Node31&#45;&gt;Node39 -->
<g id="edge124" class="edge"><title>Node31&#45;&gt;Node39</title>
<path fill="none" stroke="midnightblue" d="M2578.54,-294.956C2622.25,-287.107 2700.01,-272.473 2775.1,-254.344"/>
<polygon fill="midnightblue" stroke="midnightblue" points="2776.31,-257.652 2785.19,-251.881 2774.65,-250.851 2776.31,-257.652"/>
</g>
<!-- Node32&#45;&gt;Node4 -->
<g id="edge100" class="edge"><title>Node32&#45;&gt;Node4</title>
<path fill="none" stroke="midnightblue" d="M2054.29,-234.243C2088.04,-225.4 2140.94,-210.944 2186,-196 2254.63,-173.24 2272.56,-168.746 2338,-138 2412.92,-102.802 2496.75,-52.3542 2537.71,-26.9338"/>
<polygon fill="midnightblue" stroke="midnightblue" points="2539.61,-29.8733 2546.24,-21.613 2535.9,-23.933 2539.61,-29.8733"/>
</g>
<!-- Node32&#45;&gt;Node9 -->
<g id="edge96" class="edge"><title>Node32&#45;&gt;Node9</title>
<path fill="none" stroke="midnightblue" d="M2020.09,-232.352C2019.63,-217.318 2016.52,-189.931 2001,-174 1984.77,-157.345 1594.04,-58.0064 1594,-58 1371.44,-23.9571 644.798,-13.3011 485.886,-11.3516"/>
<polygon fill="midnightblue" stroke="midnightblue" points="485.886,-7.85146 475.844,-11.2309 485.801,-14.851 485.886,-7.85146"/>
</g>
<!-- Node32&#45;&gt;Node13 -->
<g id="edge104" class="edge"><title>Node32&#45;&gt;Node13</title>
<path fill="none" stroke="midnightblue" d="M1985.78,-237.704C1971.37,-235.643 1954.4,-233.435 1939,-232 1916.54,-229.907 1221.02,-195.209 1052.5,-186.817"/>
<polygon fill="midnightblue" stroke="midnightblue" points="1052.56,-183.315 1042.4,-186.314 1052.21,-190.307 1052.56,-183.315"/>
</g>
<!-- Node32&#45;&gt;Node18 -->
<g id="edge98" class="edge"><title>Node32&#45;&gt;Node18</title>
<path fill="none" stroke="midnightblue" d="M1985.8,-237.423C1909.63,-225.097 1720.19,-194.972 1561,-174 1413.19,-154.527 1235.11,-136.016 1170.73,-129.483"/>
<polygon fill="midnightblue" stroke="midnightblue" points="1171.03,-125.995 1160.73,-128.472 1170.32,-132.96 1171.03,-125.995"/>
</g>
<!-- Node32&#45;&gt;Node21 -->
<g id="edge102" class="edge"><title>Node32&#45;&gt;Node21</title>
<path fill="none" stroke="midnightblue" d="M2054.15,-233.66C2057.13,-233.029 2060.11,-232.462 2063,-232 2080.1,-229.269 2613.79,-195.049 2743.02,-186.787"/>
<polygon fill="midnightblue" stroke="midnightblue" points="2743.51,-190.263 2753.27,-186.132 2743.07,-183.277 2743.51,-190.263"/>
</g>
<!-- Node32&#45;&gt;Node33 -->
<g id="edge106" class="edge"><title>Node32&#45;&gt;Node33</title>
<path fill="none" stroke="midnightblue" d="M2054.17,-233.795C2057.15,-233.135 2060.12,-232.524 2063,-232 2204.71,-206.226 2375.57,-192.624 2451.42,-187.473"/>
<polygon fill="midnightblue" stroke="midnightblue" points="2451.73,-190.96 2461.47,-186.802 2451.26,-183.975 2451.73,-190.96"/>
</g>
<!-- Node34 -->
<g id="node88" class="node"><title>Node34</title>
<polygon fill="white" stroke="#bfbfbf" points="888,-116.5 888,-137.5 944,-137.5 944,-116.5 888,-116.5"/>
<text text-anchor="middle" x="916" y="-124.5" font-family="Helvetica,sans-Serif" font-size="10.00">Rtypes.h</text>
</g>
<!-- Node32&#45;&gt;Node34 -->
<g id="edge108" class="edge"><title>Node32&#45;&gt;Node34</title>
<path fill="none" stroke="midnightblue" d="M1985.77,-237.851C1971.36,-235.813 1954.39,-233.584 1939,-232 1712.08,-208.639 1651.59,-235.938 1427,-196 1392.38,-189.843 1385.5,-180.803 1351,-174 1206.15,-145.437 1030.51,-133.154 954.323,-128.895"/>
<polygon fill="midnightblue" stroke="midnightblue" points="954.421,-125.395 944.246,-128.346 954.041,-132.384 954.421,-125.395"/>
</g>
<!-- Node40&#45;&gt;Node3 -->
<g id="edge128" class="edge"><title>Node40&#45;&gt;Node3</title>
<path fill="none" stroke="midnightblue" d="M2033.6,-290.649C2035.08,-290.427 2036.55,-290.21 2038,-290 2173.53,-270.395 2212.15,-290.979 2344,-254 2366.6,-247.663 2369.52,-238.738 2392,-232 2442.4,-216.895 2591.74,-235.931 2626,-196 2632.37,-188.579 2632.38,-181.409 2626,-174 2590.81,-133.135 2437.47,-154.113 2386,-138 2344.13,-124.892 2299.22,-100.764 2271.87,-84.7989"/>
<polygon fill="midnightblue" stroke="midnightblue" points="2273.34,-81.6065 2262.96,-79.5237 2269.78,-87.63 2273.34,-81.6065"/>
</g>
<!-- Node40&#45;&gt;Node4 -->
<g id="edge172" class="edge"><title>Node40&#45;&gt;Node4</title>
<path fill="none" stroke="midnightblue" d="M2033.6,-290.624C2035.08,-290.409 2036.55,-290.201 2038,-290 2190.28,-268.969 2235.82,-301.558 2382,-254 2400.56,-247.963 2401.62,-238.553 2420,-232 2467.28,-215.145 2610.46,-234.219 2643,-196 2687.08,-144.233 2618.16,-64.4728 2582.38,-29.0355"/>
<polygon fill="midnightblue" stroke="midnightblue" points="2584.51,-26.2286 2574.89,-21.7869 2579.64,-31.2576 2584.51,-26.2286"/>
</g>
<!-- Node40&#45;&gt;Node18 -->
<g id="edge174" class="edge"><title>Node40&#45;&gt;Node18</title>
<path fill="none" stroke="midnightblue" d="M1927.86,-290.467C1864.98,-276.283 1748.79,-250.672 1649,-232 1550.75,-213.615 1524.52,-217.937 1427,-196 1392.69,-188.283 1385.19,-182.238 1351,-174 1272.34,-155.044 1245.92,-166.52 1170.19,-139.613"/>
<polygon fill="midnightblue" stroke="midnightblue" points="1171.3,-136.291 1160.7,-136.137 1168.89,-142.864 1171.3,-136.291"/>
</g>
<!-- Node40&#45;&gt;Node29 -->
<g id="edge130" class="edge"><title>Node40&#45;&gt;Node29</title>
<path fill="none" stroke="midnightblue" d="M1971.38,-290.25C1967.14,-275.092 1957.33,-247.556 1939,-232 1898.49,-197.624 1873.22,-218.319 1825,-196 1808.33,-188.282 1806.17,-182.722 1790,-174 1767.45,-161.837 1741.16,-149.874 1720.78,-141.062"/>
<polygon fill="midnightblue" stroke="midnightblue" points="1722.16,-137.843 1711.58,-137.124 1719.4,-144.277 1722.16,-137.843"/>
</g>
<!-- Node40&#45;&gt;Node38 -->
<g id="edge176" class="edge"><title>Node40&#45;&gt;Node38</title>
<path fill="none" stroke="midnightblue" d="M2033.66,-298.951C2180.67,-293.623 2558.35,-278.161 2703.59,-253.842"/>
<polygon fill="midnightblue" stroke="midnightblue" points="2704.4,-257.254 2713.64,-252.076 2703.19,-250.359 2704.4,-257.254"/>
</g>
<!-- Node41 -->
<g id="node107" class="node"><title>Node41</title>
<a xlink:href="_particle_type_8h.html" target="_top" xlink:title="base/ParticleType.h">
<polygon fill="white" stroke="black" points="2198,-232.5 2198,-253.5 2302,-253.5 2302,-232.5 2198,-232.5"/>
<text text-anchor="middle" x="2250" y="-240.5" font-family="Helvetica,sans-Serif" font-size="10.00">base/ParticleType.h</text>
</a>
</g>
<!-- Node40&#45;&gt;Node41 -->
<g id="edge132" class="edge"><title>Node40&#45;&gt;Node41</title>
<path fill="none" stroke="midnightblue" d="M2023.98,-290.497C2070.63,-280.693 2140.32,-266.05 2189.96,-255.616"/>
<polygon fill="midnightblue" stroke="midnightblue" points="2190.86,-259.005 2199.92,-253.523 2189.42,-252.154 2190.86,-259.005"/>
</g>
<!-- Node43 -->
<g id="node116" class="node"><title>Node43</title>
<a xlink:href="_candidate_8h.html" target="_top" xlink:title="analysis/data/Candidate.h">
<polygon fill="white" stroke="black" points="1800,-232.5 1800,-253.5 1930,-253.5 1930,-232.5 1800,-232.5"/>
<text text-anchor="middle" x="1865" y="-240.5" font-family="Helvetica,sans-Serif" font-size="10.00">analysis/data/Candidate.h</text>
</a>
</g>
<!-- Node40&#45;&gt;Node43 -->
<g id="edge146" class="edge"><title>Node40&#45;&gt;Node43</title>
<path fill="none" stroke="midnightblue" d="M1954.26,-290.497C1937.39,-281.519 1912.89,-268.484 1893.83,-258.339"/>
<polygon fill="midnightblue" stroke="midnightblue" points="1895.43,-255.229 1884.96,-253.621 1892.14,-261.409 1895.43,-255.229"/>
</g>
<!-- Node46 -->
<g id="node131" class="node"><title>Node46</title>
<polygon fill="white" stroke="#bfbfbf" points="1250,-174.5 1250,-195.5 1342,-195.5 1342,-174.5 1250,-174.5"/>
<text text-anchor="middle" x="1296" y="-182.5" font-family="Helvetica,sans-Serif" font-size="10.00">TLorentzVector.h</text>
</g>
<!-- Node40&#45;&gt;Node46 -->
<g id="edge170" class="edge"><title>Node40&#45;&gt;Node46</title>
<path fill="none" stroke="midnightblue" d="M1914.3,-291.122C1803.96,-272.807 1560.7,-232.151 1356,-196 1354.74,-195.777 1353.46,-195.551 1352.18,-195.322"/>
<polygon fill="midnightblue" stroke="midnightblue" points="1352.64,-191.849 1342.18,-193.528 1351.4,-198.739 1352.64,-191.849"/>
</g>
<!-- Node41&#45;&gt;Node4 -->
<g id="edge144" class="edge"><title>Node41&#45;&gt;Node4</title>
<path fill="none" stroke="midnightblue" d="M2302.18,-237.656C2395.81,-227.818 2583.53,-206.856 2593,-196 2634.23,-148.733 2596.36,-67.7494 2575.13,-30.6303"/>
<polygon fill="midnightblue" stroke="midnightblue" points="2578.01,-28.6167 2569.91,-21.7854 2571.98,-32.1759 2578.01,-28.6167"/>
</g>
<!-- Node41&#45;&gt;Node5 -->
<g id="edge138" class="edge"><title>Node41&#45;&gt;Node5</title>
<path fill="none" stroke="midnightblue" d="M2291.43,-232.448C2322.94,-223.485 2362.46,-209.895 2372,-196 2377.53,-187.939 2374.74,-183.386 2372,-174 2354.87,-115.296 2337.48,-104.699 2298,-58 2288.92,-47.2553 2277.43,-36.6286 2267.56,-28.2053"/>
<polygon fill="midnightblue" stroke="midnightblue" points="2269.67,-25.4047 2259.75,-21.6937 2265.19,-30.7832 2269.67,-25.4047"/>
</g>
<!-- Node41&#45;&gt;Node9 -->
<g id="edge136" class="edge"><title>Node41&#45;&gt;Node9</title>
<path fill="none" stroke="midnightblue" d="M2197.93,-236.349C2182.81,-234.654 2166.27,-233.023 2151,-232 1806.57,-208.917 936.196,-265.204 598,-196 530,-182.085 491.913,-195.475 453,-138 431.377,-106.063 440.234,-58.4845 448.015,-31.545"/>
<polygon fill="midnightblue" stroke="midnightblue" points="451.456,-32.2687 451.088,-21.6803 444.772,-30.1871 451.456,-32.2687"/>
</g>
<!-- Node41&#45;&gt;Node21 -->
<g id="edge140" class="edge"><title>Node41&#45;&gt;Node21</title>
<path fill="none" stroke="midnightblue" d="M2302.34,-237.173C2411.36,-225.037 2659.57,-197.405 2743.03,-188.114"/>
<polygon fill="midnightblue" stroke="midnightblue" points="2743.48,-191.586 2753.03,-187.001 2742.7,-184.629 2743.48,-191.586"/>
</g>
<!-- Node41&#45;&gt;Node29 -->
<g id="edge134" class="edge"><title>Node41&#45;&gt;Node29</title>
<path fill="none" stroke="midnightblue" d="M2197.73,-237.055C2115.07,-227.462 1957.93,-208.394 1903,-196 1867.9,-188.08 1772.78,-156.285 1721.26,-138.752"/>
<polygon fill="midnightblue" stroke="midnightblue" points="1722.16,-135.362 1711.57,-135.447 1719.91,-141.988 1722.16,-135.362"/>
</g>
<!-- Node42 -->
<g id="node113" class="node"><title>Node42</title>
<polygon fill="white" stroke="#bfbfbf" points="2537.5,-174.5 2537.5,-195.5 2584.5,-195.5 2584.5,-174.5 2537.5,-174.5"/>
<text text-anchor="middle" x="2561" y="-182.5" font-family="Helvetica,sans-Serif" font-size="10.00">iterator</text>
</g>
<!-- Node41&#45;&gt;Node42 -->
<g id="edge142" class="edge"><title>Node41&#45;&gt;Node42</title>
<path fill="none" stroke="midnightblue" d="M2302.17,-234.267C2372.16,-222.543 2491.23,-202.573 2527.35,-195.693"/>
<polygon fill="midnightblue" stroke="midnightblue" points="2528.29,-199.073 2537.37,-193.609 2526.86,-192.22 2528.29,-199.073"/>
</g>
<!-- Node43&#45;&gt;Node2 -->
<g id="edge152" class="edge"><title>Node43&#45;&gt;Node2</title>
<path fill="none" stroke="midnightblue" d="M1799.65,-240.609C1540.59,-231.126 599.784,-196.648 598,-196 569.099,-185.506 542.119,-161.866 525.607,-145.191"/>
<polygon fill="midnightblue" stroke="midnightblue" points="527.827,-142.449 518.38,-137.653 522.774,-147.294 527.827,-142.449"/>
</g>
<!-- Node43&#45;&gt;Node3 -->
<g id="edge148" class="edge"><title>Node43&#45;&gt;Node3</title>
<path fill="none" stroke="midnightblue" d="M1930.04,-233.97C1991.4,-224.833 2078.52,-210.084 2110,-196 2164.25,-171.728 2210.76,-116.755 2232.64,-87.7409"/>
<polygon fill="midnightblue" stroke="midnightblue" points="2235.5,-89.7578 2238.62,-79.6326 2229.87,-85.6025 2235.5,-89.7578"/>
</g>
<!-- Node43&#45;&gt;Node4 -->
<g id="edge168" class="edge"><title>Node43&#45;&gt;Node4</title>
<path fill="none" stroke="midnightblue" d="M1930.12,-237.656C1987.34,-231.637 2072.26,-219.457 2143,-196 2163.38,-189.243 2166.64,-183.265 2186,-174 2300.14,-119.386 2329.49,-107.37 2446,-58 2474.75,-45.8186 2507.78,-32.622 2531.4,-23.3224"/>
<polygon fill="midnightblue" stroke="midnightblue" points="2532.87,-26.5025 2540.9,-19.5897 2530.32,-19.9868 2532.87,-26.5025"/>
</g>
<!-- Node43&#45;&gt;Node5 -->
<g id="edge164" class="edge"><title>Node43&#45;&gt;Node5</title>
<path fill="none" stroke="midnightblue" d="M1905.96,-232.498C1933.7,-224.518 1970.69,-212.158 2001,-196 2093.21,-146.845 2187.88,-64.4755 2227.16,-28.5952"/>
<polygon fill="midnightblue" stroke="midnightblue" points="2229.69,-31.0207 2234.68,-21.673 2224.95,-25.8704 2229.69,-31.0207"/>
</g>
<!-- Node43&#45;&gt;Node13 -->
<g id="edge166" class="edge"><title>Node43&#45;&gt;Node13</title>
<path fill="none" stroke="midnightblue" d="M1799.79,-238.545C1630.97,-227.012 1183.68,-196.455 1052.59,-187.5"/>
<polygon fill="midnightblue" stroke="midnightblue" points="1052.51,-183.986 1042.3,-186.797 1052.04,-190.97 1052.51,-183.986"/>
</g>
<!-- Node43&#45;&gt;Node29 -->
<g id="edge150" class="edge"><title>Node43&#45;&gt;Node29</title>
<path fill="none" stroke="midnightblue" d="M1848.57,-232.295C1817.23,-211.871 1748.74,-167.238 1711.8,-143.162"/>
<polygon fill="midnightblue" stroke="midnightblue" points="1713.42,-140.039 1703.13,-137.512 1709.6,-145.904 1713.42,-140.039"/>
</g>
<!-- Node44 -->
<g id="node121" class="node"><title>Node44</title>
<a xlink:href="_cluster_8h.html" target="_top" xlink:title="analysis/data/Cluster.h">
<polygon fill="white" stroke="black" points="1435.5,-174.5 1435.5,-195.5 1552.5,-195.5 1552.5,-174.5 1435.5,-174.5"/>
<text text-anchor="middle" x="1494" y="-182.5" font-family="Helvetica,sans-Serif" font-size="10.00">analysis/data/Cluster.h</text>
</a>
</g>
<!-- Node43&#45;&gt;Node44 -->
<g id="edge154" class="edge"><title>Node43&#45;&gt;Node44</title>
<path fill="none" stroke="midnightblue" d="M1799.95,-232.831C1733.44,-222.432 1630.52,-206.343 1562.71,-195.741"/>
<polygon fill="midnightblue" stroke="midnightblue" points="1562.97,-192.24 1552.55,-194.153 1561.89,-199.156 1562.97,-192.24"/>
</g>
<!-- Node44&#45;&gt;Node2 -->
<g id="edge156" class="edge"><title>Node44&#45;&gt;Node2</title>
<path fill="none" stroke="midnightblue" d="M1435.23,-180.132C1409.41,-178.082 1378.71,-175.768 1351,-174 1035.68,-153.882 956.254,-159.122 641,-138 616.616,-136.366 589.729,-134.193 566.619,-132.21"/>
<polygon fill="midnightblue" stroke="midnightblue" points="566.893,-128.721 556.629,-131.345 566.289,-135.695 566.893,-128.721"/>
</g>
<!-- Node44&#45;&gt;Node6 -->
<g id="edge160" class="edge"><title>Node44&#45;&gt;Node6</title>
<path fill="none" stroke="midnightblue" d="M1451.95,-174.48C1390.27,-159.413 1271.48,-131.772 1169,-116 1007.61,-91.1601 961.666,-108.955 797.516,-80.0432"/>
<polygon fill="midnightblue" stroke="midnightblue" points="798.024,-76.5786 787.563,-78.2591 796.789,-83.4688 798.024,-76.5786"/>
</g>
<!-- Node44&#45;&gt;Node18 -->
<g id="edge158" class="edge"><title>Node44&#45;&gt;Node18</title>
<path fill="none" stroke="midnightblue" d="M1435.36,-175.227C1358.16,-162.36 1225.82,-140.303 1170.96,-131.159"/>
<polygon fill="midnightblue" stroke="midnightblue" points="1171.2,-127.652 1160.76,-129.461 1170.05,-134.557 1171.2,-127.652"/>
</g>
<!-- Node45 -->
<g id="node126" class="node"><title>Node45</title>
<a xlink:href="enumfield_8h.html" target="_top" xlink:title="base/enumfield.h">
<polygon fill="white" stroke="black" points="1448.5,-116.5 1448.5,-137.5 1539.5,-137.5 1539.5,-116.5 1448.5,-116.5"/>
<text text-anchor="middle" x="1494" y="-124.5" font-family="Helvetica,sans-Serif" font-size="10.00">base/enumfield.h</text>
</a>
</g>
<!-- Node44&#45;&gt;Node45 -->
<g id="edge162" class="edge"><title>Node44&#45;&gt;Node45</title>
<path fill="none" stroke="midnightblue" d="M1494,-174.362C1494,-166.922 1494,-156.743 1494,-147.728"/>
<polygon fill="midnightblue" stroke="midnightblue" points="1497.5,-147.571 1494,-137.571 1490.5,-147.571 1497.5,-147.571"/>
</g>
<!-- Node47&#45;&gt;Node3 -->
<g id="edge250" class="edge"><title>Node47&#45;&gt;Node3</title>
<path fill="none" stroke="midnightblue" d="M1881.25,-355.435C1891.31,-352.543 1902.52,-349.731 1913,-348 2208.97,-299.093 2289.71,-352.084 2587,-312 2706.91,-295.832 2777.1,-348.234 2853,-254 2883.39,-216.269 2826.91,-190.171 2797,-174 2710.85,-127.424 2419.93,-89.2189 2299.2,-74.9828"/>
<polygon fill="midnightblue" stroke="midnightblue" points="2299.43,-71.4854 2289.09,-73.7995 2298.61,-78.438 2299.43,-71.4854"/>
</g>
<!-- Node47&#45;&gt;Node4 -->
<g id="edge252" class="edge"><title>Node47&#45;&gt;Node4</title>
<path fill="none" stroke="midnightblue" d="M1880.91,-355.474C1891.06,-352.547 1902.4,-349.705 1913,-348 2265.27,-291.326 2365.34,-383.028 2715,-312 2860.51,-282.442 3024,-333.48 3024,-185 3024,-185 3024,-185 3024,-127 3024,-38.4338 2699.96,-16.8374 2595.23,-12.1703"/>
<polygon fill="midnightblue" stroke="midnightblue" points="2595.37,-8.67341 2585.23,-11.7473 2595.08,-15.6671 2595.37,-8.67341"/>
</g>
<!-- Node47&#45;&gt;Node13 -->
<g id="edge254" class="edge"><title>Node47&#45;&gt;Node13</title>
<path fill="none" stroke="midnightblue" d="M1793.48,-364.127C1672.39,-358.557 1376.91,-336.854 1146,-254 1127.63,-247.409 1125.14,-241.331 1108,-232 1087.8,-221.001 1064.75,-209.227 1046.77,-200.214"/>
<polygon fill="midnightblue" stroke="midnightblue" points="1047.87,-196.85 1037.36,-195.514 1044.74,-203.113 1047.87,-196.85"/>
</g>
<!-- Node47&#45;&gt;Node21 -->
<g id="edge256" class="edge"><title>Node47&#45;&gt;Node21</title>
<path fill="none" stroke="midnightblue" d="M1881.59,-355.422C1891.57,-352.566 1902.65,-349.778 1913,-348 2032.62,-327.458 2355.93,-377.68 2458,-312 2491.95,-290.157 2468,-255.242 2501,-232 2588.83,-170.15 2635.79,-222.081 2740,-196 2741.25,-195.688 2742.51,-195.346 2743.79,-194.981"/>
<polygon fill="midnightblue" stroke="midnightblue" points="2745.02,-198.262 2753.47,-191.876 2742.88,-191.596 2745.02,-198.262"/>
</g>
<!-- Node47&#45;&gt;Node29 -->
<g id="edge248" class="edge"><title>Node47&#45;&gt;Node29</title>
<path fill="none" stroke="midnightblue" d="M1841.83,-355.422C1816.74,-318.411 1732.67,-194.378 1700.07,-146.285"/>
<polygon fill="midnightblue" stroke="midnightblue" points="1702.78,-144.041 1694.27,-137.727 1696.98,-147.968 1702.78,-144.041"/>
</g>
<!-- Node47&#45;&gt;Node40 -->
<g id="edge182" class="edge"><title>Node47&#45;&gt;Node40</title>
<path fill="none" stroke="midnightblue" d="M1869.36,-355.412C1889.79,-344.788 1921.46,-328.318 1944.62,-316.28"/>
<polygon fill="midnightblue" stroke="midnightblue" points="1946.39,-319.302 1953.65,-311.584 1943.16,-313.092 1946.39,-319.302"/>
</g>
<!-- Node47&#45;&gt;Node43 -->
<g id="edge184" class="edge"><title>Node47&#45;&gt;Node43</title>
<path fill="none" stroke="midnightblue" d="M1850.42,-355.085C1853.08,-334.609 1858.87,-290.133 1862.3,-263.778"/>
<polygon fill="midnightblue" stroke="midnightblue" points="1865.79,-264.083 1863.61,-253.715 1858.85,-263.18 1865.79,-264.083"/>
</g>
<!-- Node48 -->
<g id="node141" class="node"><title>Node48</title>
<a xlink:href="_tagger_hit_8h.html" target="_top" xlink:title="TaggerHit.h">
<polygon fill="white" stroke="black" points="1486,-232.5 1486,-253.5 1554,-253.5 1554,-232.5 1486,-232.5"/>
<text text-anchor="middle" x="1520" y="-240.5" font-family="Helvetica,sans-Serif" font-size="10.00">TaggerHit.h</text>
</a>
</g>
<!-- Node47&#45;&gt;Node48 -->
<g id="edge186" class="edge"><title>Node47&#45;&gt;Node48</title>
<path fill="none" stroke="midnightblue" d="M1813.17,-355.435C1779.13,-345.16 1726.67,-328.696 1682,-312 1636.46,-294.977 1584.97,-272.473 1552.51,-257.869"/>
<polygon fill="midnightblue" stroke="midnightblue" points="1553.63,-254.533 1543.07,-253.605 1550.75,-260.913 1553.63,-254.533"/>
</g>
<!-- Node49 -->
<g id="node148" class="node"><title>Node49</title>
<a xlink:href="_trigger_info_8h.html" target="_top" xlink:title="TriggerInfo.h">
<polygon fill="white" stroke="black" points="1504.5,-290.5 1504.5,-311.5 1575.5,-311.5 1575.5,-290.5 1504.5,-290.5"/>
<text text-anchor="middle" x="1540" y="-298.5" font-family="Helvetica,sans-Serif" font-size="10.00">TriggerInfo.h</text>
</a>
</g>
<!-- Node47&#45;&gt;Node49 -->
<g id="edge198" class="edge"><title>Node47&#45;&gt;Node49</title>
<path fill="none" stroke="midnightblue" d="M1799.01,-355.484C1740.04,-343.079 1642.81,-322.628 1585.75,-310.624"/>
<polygon fill="midnightblue" stroke="midnightblue" points="1586.43,-307.19 1575.92,-308.556 1584.99,-314.04 1586.43,-307.19"/>
</g>
<!-- Node48&#45;&gt;Node3 -->
<g id="edge194" class="edge"><title>Node48&#45;&gt;Node3</title>
<path fill="none" stroke="midnightblue" d="M1554.18,-241.346C1649.53,-236.465 1916.93,-220.889 2001,-196 2087.88,-170.28 2180.11,-113.249 2222.36,-85.2072"/>
<polygon fill="midnightblue" stroke="midnightblue" points="2224.48,-88.0025 2230.84,-79.5265 2220.58,-82.1883 2224.48,-88.0025"/>
</g>
<!-- Node48&#45;&gt;Node13 -->
<g id="edge190" class="edge"><title>Node48&#45;&gt;Node13</title>
<path fill="none" stroke="midnightblue" d="M1485.75,-239.059C1394.45,-228.551 1145.78,-199.935 1052.23,-189.17"/>
<polygon fill="midnightblue" stroke="midnightblue" points="1052.46,-185.673 1042.13,-188.007 1051.66,-192.627 1052.46,-185.673"/>
</g>
<!-- Node48&#45;&gt;Node18 -->
<g id="edge188" class="edge"><title>Node48&#45;&gt;Node18</title>
<path fill="none" stroke="midnightblue" d="M1485.97,-234.89C1481.29,-233.865 1476.53,-232.872 1472,-232 1369.96,-212.383 1337.05,-235.637 1241,-196 1211.42,-183.795 1182.4,-160.617 1164.37,-144.511"/>
<polygon fill="midnightblue" stroke="midnightblue" points="1166.64,-141.842 1156.9,-137.673 1161.92,-147.006 1166.64,-141.842"/>
</g>
<!-- Node48&#45;&gt;Node29 -->
<g id="edge192" class="edge"><title>Node48&#45;&gt;Node29</title>
<path fill="none" stroke="midnightblue" d="M1535.41,-232.295C1564.62,-212.009 1628.2,-167.84 1663.02,-143.653"/>
<polygon fill="midnightblue" stroke="midnightblue" points="1665.41,-146.259 1671.63,-137.679 1661.42,-140.51 1665.41,-146.259"/>
</g>
<!-- Node48&#45;&gt;Node46 -->
<g id="edge196" class="edge"><title>Node48&#45;&gt;Node46</title>
<path fill="none" stroke="midnightblue" d="M1485.98,-234.191C1448.93,-224.597 1389.27,-209.151 1346.7,-198.128"/>
<polygon fill="midnightblue" stroke="midnightblue" points="1347.37,-194.685 1336.81,-195.567 1345.61,-201.462 1347.37,-194.685"/>
</g>
<!-- Node49&#45;&gt;Node3 -->
<g id="edge202" class="edge"><title>Node49&#45;&gt;Node3</title>
<path fill="none" stroke="midnightblue" d="M1575.84,-299.914C1718.39,-295.445 2240.85,-277.592 2311,-254 2327.71,-248.381 2327.54,-238.305 2344,-232 2396.21,-212.002 2556.4,-238.267 2593,-196 2599.4,-188.608 2599.43,-181.366 2593,-174 2554.06,-129.394 2383.19,-161.848 2329,-138 2302.42,-126.303 2277.6,-103.479 2262.15,-87.288"/>
<polygon fill="midnightblue" stroke="midnightblue" points="2264.33,-84.4859 2254.97,-79.5199 2259.19,-89.2383 2264.33,-84.4859"/>
</g>
<!-- Node49&#45;&gt;Node13 -->
<g id="edge246" class="edge"><title>Node49&#45;&gt;Node13</title>
<path fill="none" stroke="midnightblue" d="M1504.39,-295.022C1493.96,-293.33 1482.53,-291.533 1472,-290 1348.71,-272.05 1313.76,-288.343 1194,-254 1171.44,-247.531 1167.72,-240.886 1146,-232 1114.49,-219.107 1077.97,-206.069 1051.68,-197.007"/>
<polygon fill="midnightblue" stroke="midnightblue" points="1052.73,-193.667 1042.14,-193.737 1050.47,-200.289 1052.73,-193.667"/>
</g>
<!-- Node49&#45;&gt;Node18 -->
<g id="edge244" class="edge"><title>Node49&#45;&gt;Node18</title>
<path fill="none" stroke="midnightblue" d="M1525.23,-290.258C1500.9,-272.76 1453.18,-239.313 1434,-232 1334.86,-194.206 1289.1,-250.385 1198,-196 1178.69,-184.476 1164.17,-162.792 1155.45,-146.796"/>
<polygon fill="midnightblue" stroke="midnightblue" points="1158.46,-145.004 1150.77,-137.713 1152.23,-148.207 1158.46,-145.004"/>
</g>
<!-- Node49&#45;&gt;Node29 -->
<g id="edge200" class="edge"><title>Node49&#45;&gt;Node29</title>
<path fill="none" stroke="midnightblue" d="M1548.97,-290.377C1573.21,-261.688 1640.24,-182.348 1671.09,-145.835"/>
<polygon fill="midnightblue" stroke="midnightblue" points="1673.99,-147.825 1677.77,-137.928 1668.64,-143.308 1673.99,-147.825"/>
</g>
<!-- Node50 -->
<g id="node152" class="node"><title>Node50</title>
<a xlink:href="_t_data_record_8h.html" target="_top" xlink:title="tree/TDataRecord.h">
<polygon fill="white" stroke="black" points="475.5,-232.5 475.5,-253.5 578.5,-253.5 578.5,-232.5 475.5,-232.5"/>
<text text-anchor="middle" x="527" y="-240.5" font-family="Helvetica,sans-Serif" font-size="10.00">tree/TDataRecord.h</text>
</a>
</g>
<!-- Node49&#45;&gt;Node50 -->
<g id="edge204" class="edge"><title>Node49&#45;&gt;Node50</title>
<path fill="none" stroke="midnightblue" d="M1504.24,-298.953C1354.87,-290.4 779.672,-257.467 588.888,-246.543"/>
<polygon fill="midnightblue" stroke="midnightblue" points="588.937,-243.041 578.753,-245.963 588.536,-250.029 588.937,-243.041"/>
</g>
<!-- Node50&#45;&gt;Node34 -->
<g id="edge238" class="edge"><title>Node50&#45;&gt;Node34</title>
<path fill="none" stroke="midnightblue" d="M572.171,-232.436C605.733,-224.036 652.369,-211.194 692,-196 712.787,-188.03 716.099,-181.665 737,-174 795.261,-152.634 814.436,-154.991 878.036,-138.155"/>
<polygon fill="midnightblue" stroke="midnightblue" points="879.013,-141.517 887.752,-135.527 877.185,-134.76 879.013,-141.517"/>
</g>
<!-- Node51 -->
<g id="node154" class="node"><title>Node51</title>
<a xlink:href="_t_i_d_8h.html" target="_top" xlink:title="TID.h">
<polygon fill="white" stroke="black" points="606.5,-174.5 606.5,-195.5 647.5,-195.5 647.5,-174.5 606.5,-174.5"/>
<text text-anchor="middle" x="627" y="-182.5" font-family="Helvetica,sans-Serif" font-size="10.00">TID.h</text>
</a>
</g>
<!-- Node50&#45;&gt;Node51 -->
<g id="edge206" class="edge"><title>Node50&#45;&gt;Node51</title>
<path fill="none" stroke="midnightblue" d="M545.342,-232.362C560.566,-223.532 582.441,-210.844 599.72,-200.822"/>
<polygon fill="midnightblue" stroke="midnightblue" points="601.88,-203.615 608.775,-195.571 598.368,-197.56 601.88,-203.615"/>
</g>
<!-- Node56 -->
<g id="node168" class="node"><title>Node56</title>
<polygon fill="white" stroke="#bfbfbf" points="664.5,-58.5 664.5,-79.5 705.5,-79.5 705.5,-58.5 664.5,-58.5"/>
<text text-anchor="middle" x="685" y="-66.5" font-family="Helvetica,sans-Serif" font-size="10.00">ctime</text>
</g>
<!-- Node50&#45;&gt;Node56 -->
<g id="edge242" class="edge"><title>Node50&#45;&gt;Node56</title>
<path fill="none" stroke="midnightblue" d="M578.513,-234.222C619.863,-226.416 679.054,-213.519 729,-196 750.385,-188.499 753.508,-181.19 775,-174 851.543,-148.394 901.896,-200.474 953,-138 959.191,-130.432 959.378,-123.411 953,-116 919.743,-77.3581 781.096,-91.8939 715.594,-79.675"/>
<polygon fill="midnightblue" stroke="midnightblue" points="716.259,-76.2374 705.736,-77.472 714.732,-83.0689 716.259,-76.2374"/>
</g>
<!-- Node58 -->
<g id="node175" class="node"><title>Node58</title>
<polygon fill="white" stroke="#bfbfbf" points="820,-116.5 820,-137.5 870,-137.5 870,-116.5 820,-116.5"/>
<text text-anchor="middle" x="845" y="-124.5" font-family="Helvetica,sans-Serif" font-size="10.00">iomanip</text>
</g>
<!-- Node50&#45;&gt;Node58 -->
<g id="edge240" class="edge"><title>Node50&#45;&gt;Node58</title>
<path fill="none" stroke="midnightblue" d="M559.24,-232.491C585.6,-223.605 623.663,-210.099 656,-196 675.678,-187.42 679.163,-182.205 699,-174 719.243,-165.628 773.773,-148.603 810.156,-137.506"/>
<polygon fill="midnightblue" stroke="midnightblue" points="811.343,-140.803 819.893,-134.546 809.307,-134.106 811.343,-140.803"/>
</g>
<!-- Node51&#45;&gt;Node3 -->
<g id="edge210" class="edge"><title>Node51&#45;&gt;Node3</title>
<path fill="none" stroke="midnightblue" d="M647.692,-175.772C649.145,-175.162 650.592,-174.566 652,-174 660.724,-170.494 801.769,-117.787 811,-116 948.44,-89.3878 1949.7,-73.2888 2192.89,-69.7447"/>
<polygon fill="midnightblue" stroke="midnightblue" points="2192.94,-73.2443 2202.89,-69.5998 2192.84,-66.2451 2192.94,-73.2443"/>
</g>
<!-- Node51&#45;&gt;Node7 -->
<g id="edge230" class="edge"><title>Node51&#45;&gt;Node7</title>
<path fill="none" stroke="midnightblue" d="M606.294,-182.773C553.904,-176.985 411.93,-160.352 295,-138 190.372,-118 161.982,-111.16 56.137,-80.1779"/>
<polygon fill="midnightblue" stroke="midnightblue" points="56.9183,-76.7598 46.3375,-77.3057 54.9494,-83.4772 56.9183,-76.7598"/>
</g>
<!-- Node51&#45;&gt;Node8 -->
<g id="edge232" class="edge"><title>Node51&#45;&gt;Node8</title>
<path fill="none" stroke="midnightblue" d="M647.124,-174.323C664.811,-164.893 691.208,-150.706 714,-138 746.2,-120.049 782.898,-98.8355 807.142,-84.715"/>
<polygon fill="midnightblue" stroke="midnightblue" points="808.914,-87.7336 815.789,-79.6721 805.387,-81.6869 808.914,-87.7336"/>
</g>
<!-- Node51&#45;&gt;Node10 -->
<g id="edge226" class="edge"><title>Node51&#45;&gt;Node10</title>
<path fill="none" stroke="midnightblue" d="M623.032,-174.295C615.864,-154.959 600.652,-113.923 591.479,-89.1767"/>
<polygon fill="midnightblue" stroke="midnightblue" points="594.716,-87.8392 587.959,-79.6792 588.153,-90.2723 594.716,-87.8392"/>
</g>
<!-- Node51&#45;&gt;Node34 -->
<g id="edge208" class="edge"><title>Node51&#45;&gt;Node34</title>
<path fill="none" stroke="midnightblue" d="M647.734,-181.887C689.488,-175.457 786.82,-159.668 877.875,-138.095"/>
<polygon fill="midnightblue" stroke="midnightblue" points="878.893,-141.451 887.801,-135.714 877.26,-134.644 878.893,-141.451"/>
</g>
<!-- Node52 -->
<g id="node158" class="node"><title>Node52</title>
<a xlink:href="time_8h.html" target="_top" xlink:title="base/std_ext/time.h">
<polygon fill="white" stroke="black" points="303.5,-116.5 303.5,-137.5 406.5,-137.5 406.5,-116.5 303.5,-116.5"/>
<text text-anchor="middle" x="355" y="-124.5" font-family="Helvetica,sans-Serif" font-size="10.00">base/std_ext/time.h</text>
</a>
</g>
<!-- Node51&#45;&gt;Node52 -->
<g id="edge212" class="edge"><title>Node51&#45;&gt;Node52</title>
<path fill="none" stroke="midnightblue" d="M606.108,-180.545C565.513,-171.889 474.656,-152.515 414.099,-139.602"/>
<polygon fill="midnightblue" stroke="midnightblue" points="414.791,-136.171 404.281,-137.508 413.331,-143.017 414.791,-136.171"/>
</g>
<!-- Node51&#45;&gt;Node56 -->
<g id="edge236" class="edge"><title>Node51&#45;&gt;Node56</title>
<path fill="none" stroke="midnightblue" d="M647.753,-177.465C664.414,-170.182 686.671,-157.376 697,-138 705.008,-122.977 700.667,-103.746 695.089,-89.4051"/>
<polygon fill="midnightblue" stroke="midnightblue" points="698.174,-87.7233 690.968,-79.9565 691.758,-90.5218 698.174,-87.7233"/>
</g>
<!-- Node57 -->
<g id="node171" class="node"><title>Node57</title>
<polygon fill="white" stroke="#bfbfbf" points="650,-116.5 650,-137.5 688,-137.5 688,-116.5 650,-116.5"/>
<text text-anchor="middle" x="669" y="-124.5" font-family="Helvetica,sans-Serif" font-size="10.00">tuple</text>
</g>
<!-- Node51&#45;&gt;Node57 -->
<g id="edge228" class="edge"><title>Node51&#45;&gt;Node57</title>
<path fill="none" stroke="midnightblue" d="M634.703,-174.362C640.446,-166.431 648.443,-155.389 655.27,-145.961"/>
<polygon fill="midnightblue" stroke="midnightblue" points="658.315,-147.723 661.345,-137.571 652.645,-143.617 658.315,-147.723"/>
</g>
<!-- Node51&#45;&gt;Node58 -->
<g id="edge234" class="edge"><title>Node51&#45;&gt;Node58</title>
<path fill="none" stroke="midnightblue" d="M647.788,-178.022C652.136,-176.633 656.705,-175.226 661,-174 724.849,-155.769 741.816,-155.015 806,-138 807.262,-137.665 808.547,-137.321 809.843,-136.971"/>
<polygon fill="midnightblue" stroke="midnightblue" points="811.143,-140.244 819.857,-134.217 809.287,-133.494 811.143,-140.244"/>
</g>
<!-- Node53 -->
<g id="node160" class="node"><title>Node53</title>
<a xlink:href="string_8h.html" target="_top" xlink:title="base/std_ext/string.h">
<polygon fill="white" stroke="black" points="64,-58.5 64,-79.5 172,-79.5 172,-58.5 64,-58.5"/>
<text text-anchor="middle" x="118" y="-66.5" font-family="Helvetica,sans-Serif" font-size="10.00">base/std_ext/string.h</text>
</a>
</g>
<!-- Node52&#45;&gt;Node53 -->
<g id="edge214" class="edge"><title>Node52&#45;&gt;Node53</title>
<path fill="none" stroke="midnightblue" d="M312.081,-116.497C272.44,-106.795 213.432,-92.3547 170.894,-81.9445"/>
<polygon fill="midnightblue" stroke="midnightblue" points="171.545,-78.5006 160.999,-79.5231 169.881,-85.2999 171.545,-78.5006"/>
</g>
<!-- Node55 -->
<g id="node166" class="node"><title>Node55</title>
<polygon fill="white" stroke="#bfbfbf" points="332,-58.5 332,-79.5 378,-79.5 378,-58.5 332,-58.5"/>
<text text-anchor="middle" x="355" y="-66.5" font-family="Helvetica,sans-Serif" font-size="10.00">cstring</text>
</g>
<!-- Node52&#45;&gt;Node55 -->
<g id="edge222" class="edge"><title>Node52&#45;&gt;Node55</title>
<path fill="none" stroke="midnightblue" d="M355,-116.362C355,-108.922 355,-98.7427 355,-89.7276"/>
<polygon fill="midnightblue" stroke="midnightblue" points="358.5,-89.5706 355,-79.5707 351.5,-89.5707 358.5,-89.5706"/>
</g>
<!-- Node52&#45;&gt;Node56 -->
<g id="edge224" class="edge"><title>Node52&#45;&gt;Node56</title>
<path fill="none" stroke="midnightblue" d="M406.584,-118.073C460.745,-108.68 548.38,-93.4243 624,-80 633.882,-78.2457 644.66,-76.3097 654.369,-74.5571"/>
<polygon fill="midnightblue" stroke="midnightblue" points="655.175,-77.9683 664.393,-72.7448 653.93,-71.08 655.175,-77.9683"/>
</g>
<!-- Node53&#45;&gt;Node9 -->
<g id="edge216" class="edge"><title>Node53&#45;&gt;Node9</title>
<path fill="none" stroke="midnightblue" d="M172.145,-59.6813C243.609,-47.3819 367.034,-26.1395 424.242,-16.2937"/>
<polygon fill="midnightblue" stroke="midnightblue" points="424.864,-19.7381 434.126,-14.5926 423.677,-12.8395 424.864,-19.7381"/>
</g>
<!-- Node53&#45;&gt;Node28 -->
<g id="edge220" class="edge"><title>Node53&#45;&gt;Node28</title>
<path fill="none" stroke="midnightblue" d="M147.156,-58.4966C173.5,-49.0061 212.436,-34.9797 241.17,-24.6283"/>
<polygon fill="midnightblue" stroke="midnightblue" points="242.648,-27.8158 250.87,-21.1337 240.276,-21.2301 242.648,-27.8158"/>
</g>
<!-- Node54 -->
<g id="node163" class="node"><title>Node54</title>
<polygon fill="white" stroke="#bfbfbf" points="92,-0.5 92,-21.5 144,-21.5 144,-0.5 92,-0.5"/>
<text text-anchor="middle" x="118" y="-8.5" font-family="Helvetica,sans-Serif" font-size="10.00">sstream</text>
</g>
<!-- Node53&#45;&gt;Node54 -->
<g id="edge218" class="edge"><title>Node53&#45;&gt;Node54</title>
<path fill="none" stroke="midnightblue" d="M118,-58.3619C118,-50.9219 118,-40.7427 118,-31.7276"/>
<polygon fill="midnightblue" stroke="midnightblue" points="121.5,-31.5706 118,-21.5707 114.5,-31.5707 121.5,-31.5706"/>
</g>
<!-- Node59&#45;&gt;Node4 -->
<g id="edge260" class="edge"><title>Node59&#45;&gt;Node4</title>
<path fill="none" stroke="midnightblue" d="M2956.23,-355.482C3000.8,-331.739 3100,-269.404 3100,-185 3100,-185 3100,-185 3100,-127 3100,-85.7719 3074.78,-76.624 3038,-58 2998.63,-38.0674 2695.97,-18.7685 2595.39,-12.8463"/>
<polygon fill="midnightblue" stroke="midnightblue" points="2595.4,-9.34157 2585.22,-12.2529 2595,-16.3297 2595.4,-9.34157"/>
</g>
<!-- Node60&#45;&gt;Node9 -->
<g id="edge284" class="edge"><title>Node60&#45;&gt;Node9</title>
<path fill="none" stroke="midnightblue" d="M542.37,-356.019C508.226,-348.139 465.618,-334.586 433,-312 351.853,-255.81 327.475,-231.207 295,-138 282.606,-102.427 294.968,-83.1648 323,-58 351.536,-32.3828 394.981,-20.493 424.153,-15.1382"/>
<polygon fill="midnightblue" stroke="midnightblue" points="424.92,-18.5584 434.201,-13.4477 423.759,-11.6554 424.92,-18.5584"/>
</g>
<!-- Node60&#45;&gt;Node18 -->
<g id="edge286" class="edge"><title>Node60&#45;&gt;Node18</title>
<path fill="none" stroke="midnightblue" d="M604.762,-348.741C611.927,-320.066 630.299,-262.73 668,-232 716.133,-192.767 744.006,-215.384 803,-196 828.404,-187.653 833.216,-181.089 859,-174 954.047,-147.866 1071.04,-134.258 1121.23,-129.27"/>
<polygon fill="midnightblue" stroke="midnightblue" points="1121.82,-132.73 1131.43,-128.284 1121.14,-125.762 1121.82,-132.73"/>
</g>
<!-- Node60&#45;&gt;Node27 -->
<g id="edge276" class="edge"><title>Node60&#45;&gt;Node27</title>
<path fill="none" stroke="midnightblue" d="M659.713,-362.334C719.997,-358.601 816.537,-352.709 900,-348 1203.94,-330.853 1286.31,-375.664 1584,-312 1680.45,-291.373 1697.58,-263.626 1791,-232 1827.96,-219.489 1870.34,-207.198 1902.34,-198.325"/>
<polygon fill="midnightblue" stroke="midnightblue" points="1903.63,-201.599 1912.34,-195.568 1901.77,-194.851 1903.63,-201.599"/>
</g>
<!-- Node61 -->
<g id="node200" class="node"><title>Node61</title>
<a xlink:href="_t_header_info_8h.html" target="_top" xlink:title="tree/THeaderInfo.h">
<polygon fill="white" stroke="black" points="442,-290.5 442,-311.5 540,-311.5 540,-290.5 442,-290.5"/>
<text text-anchor="middle" x="491" y="-298.5" font-family="Helvetica,sans-Serif" font-size="10.00">tree/THeaderInfo.h</text>
</a>
</g>
<!-- Node60&#45;&gt;Node61 -->
<g id="edge278" class="edge"><title>Node60&#45;&gt;Node61</title>
<path fill="none" stroke="midnightblue" d="M572.099,-348.922C555.39,-339.049 534.499,-326.704 518.105,-317.016"/>
<polygon fill="midnightblue" stroke="midnightblue" points="519.427,-313.732 509.037,-311.658 515.866,-319.759 519.427,-313.732"/>
</g>
<!-- Node61&#45;&gt;Node50 -->
<g id="edge280" class="edge"><title>Node61&#45;&gt;Node50</title>
<path fill="none" stroke="midnightblue" d="M497.603,-290.362C502.475,-282.513 509.238,-271.616 515.05,-262.253"/>
<polygon fill="midnightblue" stroke="midnightblue" points="518.139,-263.913 520.439,-253.571 512.191,-260.221 518.139,-263.913"/>
</g>
<!-- Node61&#45;&gt;Node52 -->
<g id="edge282" class="edge"><title>Node61&#45;&gt;Node52</title>
<path fill="none" stroke="midnightblue" d="M475.303,-290.23C463.137,-281.398 446.332,-268.092 434,-254 404.11,-219.843 378.207,-173.121 364.781,-146.918"/>
<polygon fill="midnightblue" stroke="midnightblue" points="367.736,-145.004 360.114,-137.645 361.484,-148.151 367.736,-145.004"/>
</g>
</g>
</svg>
