<?xml version="1.0" encoding="UTF-8" standalone="no"?>
<!DOCTYPE svg PUBLIC "-//W3C//DTD SVG 1.1//EN"
 "http://www.w3.org/Graphics/SVG/1.1/DTD/svg11.dtd">
<!-- Generated by graphviz version 2.26.3 (20100126.1600)
 -->
<!-- Title: src/tree/TAntHeader.h Pages: 1 -->
<svg width="788pt" height="262pt"
 viewBox="0.00 0.00 788.00 262.00" xmlns="http://www.w3.org/2000/svg" xmlns:xlink="http://www.w3.org/1999/xlink">
<g id="graph1" class="graph" transform="scale(1 1) rotate(0) translate(4 258)">
<title>src/tree/TAntHeader.h</title>
<polygon fill="white" stroke="white" points="-4,5 -4,-258 785,-258 785,5 -4,5"/>
<!-- Node1 -->
<g id="node1" class="node"><title>Node1</title>
<polygon fill="#bfbfbf" stroke="black" points="633.5,-232.5 633.5,-253.5 746.5,-253.5 746.5,-232.5 633.5,-232.5"/>
<text text-anchor="middle" x="690" y="-240.5" font-family="Helvetica,sans-Serif" font-size="10.00">src/tree/TAntHeader.h</text>
</g>
<!-- Node2 -->
<g id="node3" class="node"><title>Node2</title>
<a xlink:href="_t_i_d_8h.html" target="_top" xlink:title="TID.h">
<polygon fill="white" stroke="black" points="380.5,-174.5 380.5,-195.5 421.5,-195.5 421.5,-174.5 380.5,-174.5"/>
<text text-anchor="middle" x="401" y="-182.5" font-family="Helvetica,sans-Serif" font-size="10.00">TID.h</text>
</a>
</g>
<!-- Node1&#45;&gt;Node2 -->
<g id="edge2" class="edge"><title>Node1&#45;&gt;Node2</title>
<path fill="none" stroke="midnightblue" d="M637.664,-232.497C577.503,-220.423 480.76,-201.007 431.682,-191.158"/>
<polygon fill="midnightblue" stroke="midnightblue" points="432.175,-187.687 421.682,-189.151 430.798,-194.55 432.175,-187.687"/>
</g>
<!-- Node9 -->
<g id="node17" class="node"><title>Node9</title>
<polygon fill="white" stroke="#bfbfbf" points="500.5,-0.5 500.5,-21.5 541.5,-21.5 541.5,-0.5 500.5,-0.5"/>
<text text-anchor="middle" x="521" y="-8.5" font-family="Helvetica,sans-Serif" font-size="10.00">string</text>
</g>
<!-- Node1&#45;&gt;Node9 -->
<g id="edge40" class="edge"><title>Node1&#45;&gt;Node9</title>
<path fill="none" stroke="midnightblue" d="M691.094,-232.177C692.894,-208.979 694.234,-153.533 671,-116 642.554,-70.0474 585.733,-38.8199 550.771,-23.0268"/>
<polygon fill="midnightblue" stroke="midnightblue" points="552.096,-19.7861 541.532,-18.9822 549.289,-26.1986 552.096,-19.7861"/>
</g>
<!-- Node19 -->
<g id="node38" class="node"><title>Node19</title>
<polygon fill="white" stroke="#bfbfbf" points="718,-174.5 718,-195.5 780,-195.5 780,-174.5 718,-174.5"/>
<text text-anchor="middle" x="749" y="-182.5" font-family="Helvetica,sans-Serif" font-size="10.00">TNamed.h</text>
</g>
<!-- Node1&#45;&gt;Node19 -->
<g id="edge38" class="edge"><title>Node1&#45;&gt;Node19</title>
<path fill="none" stroke="midnightblue" d="M700.822,-232.362C709.221,-224.104 721.054,-212.472 730.89,-202.803"/>
<polygon fill="midnightblue" stroke="midnightblue" points="733.569,-205.077 738.247,-195.571 728.662,-200.085 733.569,-205.077"/>
</g>
<!-- Node3 -->
<g id="node5" class="node"><title>Node3</title>
<polygon fill="white" stroke="#bfbfbf" points="0,-116.5 0,-137.5 56,-137.5 56,-116.5 0,-116.5"/>
<text text-anchor="middle" x="28" y="-124.5" font-family="Helvetica,sans-Serif" font-size="10.00">Rtypes.h</text>
</g>
<!-- Node2&#45;&gt;Node3 -->
<g id="edge4" class="edge"><title>Node2&#45;&gt;Node3</title>
<path fill="none" stroke="midnightblue" d="M380.356,-183.2C328.868,-178.483 190.549,-164.41 66.2354,-138.02"/>
<polygon fill="midnightblue" stroke="midnightblue" points="66.6817,-134.536 56.1685,-135.849 65.2059,-141.378 66.6817,-134.536"/>
</g>
<!-- Node4 -->
<g id="node7" class="node"><title>Node4</title>
<a xlink:href="printable_8h.html" target="_top" xlink:title="base/printable.h">
<polygon fill="white" stroke="black" points="74,-116.5 74,-137.5 160,-137.5 160,-116.5 74,-116.5"/>
<text text-anchor="middle" x="117" y="-124.5" font-family="Helvetica,sans-Serif" font-size="10.00">base/printable.h</text>
</a>
</g>
<!-- Node2&#45;&gt;Node4 -->
<g id="edge6" class="edge"><title>Node2&#45;&gt;Node4</title>
<path fill="none" stroke="midnightblue" d="M380.191,-180.847C341.116,-173.034 253.855,-155.525 170.058,-138.208"/>
<polygon fill="midnightblue" stroke="midnightblue" points="170.626,-134.751 160.124,-136.152 169.208,-141.606 170.626,-134.751"/>
</g>
<!-- Node7 -->
<g id="node13" class="node"><title>Node7</title>
<a xlink:href="time_8h.html" target="_top" xlink:title="base/std_ext/time.h">
<polygon fill="white" stroke="black" points="177.5,-116.5 177.5,-137.5 280.5,-137.5 280.5,-116.5 177.5,-116.5"/>
<text text-anchor="middle" x="229" y="-124.5" font-family="Helvetica,sans-Serif" font-size="10.00">base/std_ext/time.h</text>
</a>
</g>
<!-- Node2&#45;&gt;Node7 -->
<g id="edge12" class="edge"><title>Node2&#45;&gt;Node7</title>
<path fill="none" stroke="midnightblue" d="M380.253,-178.004C353.091,-168.845 304.864,-152.582 270.16,-140.88"/>
<polygon fill="midnightblue" stroke="midnightblue" points="270.906,-137.437 260.312,-137.559 268.669,-144.07 270.906,-137.437"/>
</g>
<!-- Node13 -->
<g id="node25" class="node"><title>Node13</title>
<polygon fill="white" stroke="#bfbfbf" points="350.5,-58.5 350.5,-79.5 391.5,-79.5 391.5,-58.5 350.5,-58.5"/>
<text text-anchor="middle" x="371" y="-66.5" font-family="Helvetica,sans-Serif" font-size="10.00">ctime</text>
</g>
<!-- Node2&#45;&gt;Node13 -->
<g id="edge36" class="edge"><title>Node2&#45;&gt;Node13</title>
<path fill="none" stroke="midnightblue" d="M380.494,-178.344C362.774,-171.377 338.288,-158.541 327,-138 317.037,-119.869 332.644,-100.039 347.956,-86.3095"/>
<polygon fill="midnightblue" stroke="midnightblue" points="350.389,-88.8368 355.799,-79.7273 345.889,-83.4748 350.389,-88.8368"/>
</g>
<!-- Node14 -->
<g id="node27" class="node"><title>Node14</title>
<polygon fill="white" stroke="#bfbfbf" points="336,-116.5 336,-137.5 398,-137.5 398,-116.5 336,-116.5"/>
<text text-anchor="middle" x="367" y="-124.5" font-family="Helvetica,sans-Serif" font-size="10.00">type_traits</text>
</g>
<!-- Node2&#45;&gt;Node14 -->
<g id="edge26" class="edge"><title>Node2&#45;&gt;Node14</title>
<path fill="none" stroke="midnightblue" d="M394.764,-174.362C390.163,-166.513 383.775,-155.616 378.286,-146.253"/>
<polygon fill="midnightblue" stroke="midnightblue" points="381.273,-144.428 373.197,-137.571 375.234,-147.968 381.273,-144.428"/>
</g>
<!-- Node15 -->
<g id="node29" class="node"><title>Node15</title>
<polygon fill="white" stroke="#bfbfbf" points="416,-116.5 416,-137.5 454,-137.5 454,-116.5 416,-116.5"/>
<text text-anchor="middle" x="435" y="-124.5" font-family="Helvetica,sans-Serif" font-size="10.00">tuple</text>
</g>
<!-- Node2&#45;&gt;Node15 -->
<g id="edge28" class="edge"><title>Node2&#45;&gt;Node15</title>
<path fill="none" stroke="midnightblue" d="M407.236,-174.362C411.837,-166.513 418.225,-155.616 423.714,-146.253"/>
<polygon fill="midnightblue" stroke="midnightblue" points="426.766,-147.968 428.803,-137.571 420.727,-144.428 426.766,-147.968"/>
</g>
<!-- Node16 -->
<g id="node31" class="node"><title>Node16</title>
<polygon fill="white" stroke="#bfbfbf" points="472,-116.5 472,-137.5 518,-137.5 518,-116.5 472,-116.5"/>
<text text-anchor="middle" x="495" y="-124.5" font-family="Helvetica,sans-Serif" font-size="10.00">cstdint</text>
</g>
<!-- Node2&#45;&gt;Node16 -->
<g id="edge30" class="edge"><title>Node2&#45;&gt;Node16</title>
<path fill="none" stroke="midnightblue" d="M418.241,-174.362C432.552,-165.532 453.115,-152.844 469.357,-142.822"/>
<polygon fill="midnightblue" stroke="midnightblue" points="471.196,-145.8 477.868,-137.571 467.52,-139.843 471.196,-145.8"/>
</g>
<!-- Node17 -->
<g id="node33" class="node"><title>Node17</title>
<polygon fill="white" stroke="#bfbfbf" points="535.5,-116.5 535.5,-137.5 594.5,-137.5 594.5,-116.5 535.5,-116.5"/>
<text text-anchor="middle" x="565" y="-124.5" font-family="Helvetica,sans-Serif" font-size="10.00">stdexcept</text>
</g>
<!-- Node2&#45;&gt;Node17 -->
<g id="edge32" class="edge"><title>Node2&#45;&gt;Node17</title>
<path fill="none" stroke="midnightblue" d="M421.771,-177.654C447.782,-168.455 492.89,-152.502 525.546,-140.953"/>
<polygon fill="midnightblue" stroke="midnightblue" points="526.985,-144.157 535.246,-137.523 524.651,-137.557 526.985,-144.157"/>
</g>
<!-- Node18 -->
<g id="node35" class="node"><title>Node18</title>
<polygon fill="white" stroke="#bfbfbf" points="612,-116.5 612,-137.5 662,-137.5 662,-116.5 612,-116.5"/>
<text text-anchor="middle" x="637" y="-124.5" font-family="Helvetica,sans-Serif" font-size="10.00">iomanip</text>
</g>
<!-- Node2&#45;&gt;Node18 -->
<g id="edge34" class="edge"><title>Node2&#45;&gt;Node18</title>
<path fill="none" stroke="midnightblue" d="M421.501,-180.828C456.511,-173.576 530.233,-157.756 601.748,-138.192"/>
<polygon fill="midnightblue" stroke="midnightblue" points="603.115,-141.446 611.821,-135.407 601.249,-134.699 603.115,-141.446"/>
</g>
<!-- Node5 -->
<g id="node9" class="node"><title>Node5</title>
<polygon fill="white" stroke="#bfbfbf" points="29,-58.5 29,-79.5 73,-79.5 73,-58.5 29,-58.5"/>
<text text-anchor="middle" x="51" y="-66.5" font-family="Helvetica,sans-Serif" font-size="10.00">vector</text>
</g>
<!-- Node4&#45;&gt;Node5 -->
<g id="edge8" class="edge"><title>Node4&#45;&gt;Node5</title>
<path fill="none" stroke="midnightblue" d="M104.895,-116.362C95.3119,-107.941 81.7361,-96.0105 70.6074,-86.2308"/>
<polygon fill="midnightblue" stroke="midnightblue" points="72.8508,-83.5427 63.0287,-79.5707 68.2299,-88.8009 72.8508,-83.5427"/>
</g>
<!-- Node6 -->
<g id="node11" class="node"><title>Node6</title>
<polygon fill="white" stroke="#bfbfbf" points="91,-58.5 91,-79.5 143,-79.5 143,-58.5 91,-58.5"/>
<text text-anchor="middle" x="117" y="-66.5" font-family="Helvetica,sans-Serif" font-size="10.00">ostream</text>
</g>
<!-- Node4&#45;&gt;Node6 -->
<g id="edge10" class="edge"><title>Node4&#45;&gt;Node6</title>
<path fill="none" stroke="midnightblue" d="M117,-116.362C117,-108.922 117,-98.7427 117,-89.7276"/>
<polygon fill="midnightblue" stroke="midnightblue" points="120.5,-89.5706 117,-79.5707 113.5,-89.5707 120.5,-89.5706"/>
</g>
<!-- Node8 -->
<g id="node15" class="node"><title>Node8</title>
<a xlink:href="string_8h.html" target="_top" xlink:title="base/std_ext/string.h">
<polygon fill="white" stroke="black" points="161,-58.5 161,-79.5 269,-79.5 269,-58.5 161,-58.5"/>
<text text-anchor="middle" x="215" y="-66.5" font-family="Helvetica,sans-Serif" font-size="10.00">base/std_ext/string.h</text>
</a>
</g>
<!-- Node7&#45;&gt;Node8 -->
<g id="edge14" class="edge"><title>Node7&#45;&gt;Node8</title>
<path fill="none" stroke="midnightblue" d="M226.432,-116.362C224.617,-108.84 222.125,-98.5187 219.932,-89.4308"/>
<polygon fill="midnightblue" stroke="midnightblue" points="223.3,-88.4702 217.552,-79.5707 216.496,-90.1127 223.3,-88.4702"/>
</g>
<!-- Node12 -->
<g id="node23" class="node"><title>Node12</title>
<polygon fill="white" stroke="#bfbfbf" points="287,-58.5 287,-79.5 333,-79.5 333,-58.5 287,-58.5"/>
<text text-anchor="middle" x="310" y="-66.5" font-family="Helvetica,sans-Serif" font-size="10.00">cstring</text>
</g>
<!-- Node7&#45;&gt;Node12 -->
<g id="edge22" class="edge"><title>Node7&#45;&gt;Node12</title>
<path fill="none" stroke="midnightblue" d="M243.857,-116.362C255.846,-107.777 272.927,-95.5459 286.728,-85.6636"/>
<polygon fill="midnightblue" stroke="midnightblue" points="289.145,-88.2383 295.238,-79.5707 285.069,-82.5469 289.145,-88.2383"/>
</g>
<!-- Node7&#45;&gt;Node13 -->
<g id="edge24" class="edge"><title>Node7&#45;&gt;Node13</title>
<path fill="none" stroke="midnightblue" d="M254.715,-116.497C278.846,-106.641 314.953,-91.8923 340.522,-81.4489"/>
<polygon fill="midnightblue" stroke="midnightblue" points="342.16,-84.5606 350.094,-77.5391 339.513,-78.0803 342.16,-84.5606"/>
</g>
<!-- Node8&#45;&gt;Node9 -->
<g id="edge16" class="edge"><title>Node8&#45;&gt;Node9</title>
<path fill="none" stroke="midnightblue" d="M269.002,-58.7643C333.369,-46.564 438.703,-26.5987 490.412,-16.7978"/>
<polygon fill="midnightblue" stroke="midnightblue" points="491.131,-20.2238 500.304,-14.9227 489.828,-13.3463 491.131,-20.2238"/>
</g>
<!-- Node10 -->
<g id="node19" class="node"><title>Node10</title>
<polygon fill="white" stroke="#bfbfbf" points="153,-0.5 153,-21.5 205,-21.5 205,-0.5 153,-0.5"/>
<text text-anchor="middle" x="179" y="-8.5" font-family="Helvetica,sans-Serif" font-size="10.00">sstream</text>
</g>
<!-- Node8&#45;&gt;Node10 -->
<g id="edge18" class="edge"><title>Node8&#45;&gt;Node10</title>
<path fill="none" stroke="midnightblue" d="M208.397,-58.3619C203.525,-50.5131 196.762,-39.6159 190.95,-30.2527"/>
<polygon fill="midnightblue" stroke="midnightblue" points="193.809,-28.2213 185.561,-21.5707 187.861,-31.9129 193.809,-28.2213"/>
</g>
<!-- Node11 -->
<g id="node21" class="node"><title>Node11</title>
<polygon fill="white" stroke="#bfbfbf" points="223,-0.5 223,-21.5 279,-21.5 279,-0.5 223,-0.5"/>
<text text-anchor="middle" x="251" y="-8.5" font-family="Helvetica,sans-Serif" font-size="10.00">algorithm</text>
</g>
<!-- Node8&#45;&gt;Node11 -->
<g id="edge20" class="edge"><title>Node8&#45;&gt;Node11</title>
<path fill="none" stroke="midnightblue" d="M221.603,-58.3619C226.475,-50.5131 233.238,-39.6159 239.05,-30.2527"/>
<polygon fill="midnightblue" stroke="midnightblue" points="242.139,-31.9129 244.439,-21.5707 236.191,-28.2213 242.139,-31.9129"/>
</g>
</g>
</svg>
