<?xml version="1.0" encoding="UTF-8" standalone="no"?>
<!DOCTYPE svg PUBLIC "-//W3C//DTD SVG 1.1//EN"
 "http://www.w3.org/Graphics/SVG/1.1/DTD/svg11.dtd">
<!-- Generated by graphviz version 2.26.3 (20100126.1600)
 -->
<!-- Title: src/tree/TAntHeader.h Pages: 1 -->
<svg width="450pt" height="102pt"
 viewBox="0.00 0.00 450.00 102.00" xmlns="http://www.w3.org/2000/svg" xmlns:xlink="http://www.w3.org/1999/xlink">
<g id="graph1" class="graph" transform="scale(1 1) rotate(0) translate(4 98)">
<title>src/tree/TAntHeader.h</title>
<polygon fill="white" stroke="white" points="-4,5 -4,-98 447,-98 447,5 -4,5"/>
<!-- Node1 -->
<g id="node1" class="node"><title>Node1</title>
<polygon fill="#bfbfbf" stroke="black" points="144.5,-72.5 144.5,-93.5 257.5,-93.5 257.5,-72.5 144.5,-72.5"/>
<text text-anchor="middle" x="201" y="-80.5" font-family="Helvetica,sans-Serif" font-size="10.00">src/tree/TAntHeader.h</text>
</g>
<!-- Node2 -->
<g id="node3" class="node"><title>Node2</title>
<a xlink:href="_ant_8cc.html" target="_top" xlink:title="progs/Ant.cc">
<polygon fill="white" stroke="black" points="0,-7.5 0,-28.5 72,-28.5 72,-7.5 0,-7.5"/>
<text text-anchor="middle" x="36" y="-15.5" font-family="Helvetica,sans-Serif" font-size="10.00">progs/Ant.cc</text>
</a>
</g>
<!-- Node1&#45;&gt;Node2 -->
<g id="edge2" class="edge"><title>Node1&#45;&gt;Node2</title>
<path fill="none" stroke="midnightblue" d="M164.46,-68.7674C140.672,-59.4819 108.975,-47.0734 81,-36 74.8975,-33.5845 68.3362,-30.9699 62.1621,-28.5018"/>
<polygon fill="midnightblue" stroke="midnightblue" points="163.224,-72.042 173.812,-72.4159 165.768,-65.5207 163.224,-72.042"/>
</g>
<!-- Node3 -->
<g id="node5" class="node"><title>Node3</title>
<a xlink:href="_physics_manager_8cc.html" target="_top" xlink:title="src/analysis/physics\l/PhysicsManager.cc">
<polygon fill="white" stroke="black" points="90,-1 90,-35 196,-35 196,-1 90,-1"/>
<text text-anchor="start" x="98" y="-22" font-family="Helvetica,sans-Serif" font-size="10.00">src/analysis/physics</text>
<text text-anchor="middle" x="143" y="-9" font-family="Helvetica,sans-Serif" font-size="10.00">/PhysicsManager.cc</text>
</a>
</g>
<!-- Node1&#45;&gt;Node3 -->
<g id="edge4" class="edge"><title>Node1&#45;&gt;Node3</title>
<path fill="none" stroke="midnightblue" d="M184.677,-64.7066C176.395,-55.4251 166.395,-44.2189 158.267,-35.1099"/>
<polygon fill="midnightblue" stroke="midnightblue" points="182.153,-67.1354 191.422,-72.2666 187.376,-62.4749 182.153,-67.1354"/>
</g>
<!-- Node4 -->
<g id="node7" class="node"><title>Node4</title>
<a xlink:href="_manager_8cc.html" target="_top" xlink:title="src/calibration/gui\l/Manager.cc">
<polygon fill="white" stroke="black" points="213.5,-1 213.5,-35 306.5,-35 306.5,-1 213.5,-1"/>
<text text-anchor="start" x="221.5" y="-22" font-family="Helvetica,sans-Serif" font-size="10.00">src/calibration/gui</text>
<text text-anchor="middle" x="260" y="-9" font-family="Helvetica,sans-Serif" font-size="10.00">/Manager.cc</text>
</a>
</g>
<!-- Node1&#45;&gt;Node4 -->
<g id="edge6" class="edge"><title>Node1&#45;&gt;Node4</title>
<path fill="none" stroke="midnightblue" d="M217.605,-64.7066C226.03,-55.4251 236.201,-44.2189 244.47,-35.1099"/>
<polygon fill="midnightblue" stroke="midnightblue" points="214.872,-62.5096 210.743,-72.2666 220.055,-67.2144 214.872,-62.5096"/>
</g>
<!-- Node5 -->
<g id="node9" class="node"><title>Node5</title>
<a xlink:href="_t_ant_header_8cc.html" target="_top" xlink:title="src/tree/TAntHeader.cc">
<polygon fill="white" stroke="black" points="323.5,-7.5 323.5,-28.5 442.5,-28.5 442.5,-7.5 323.5,-7.5"/>
<text text-anchor="middle" x="383" y="-15.5" font-family="Helvetica,sans-Serif" font-size="10.00">src/tree/TAntHeader.cc</text>
</a>
</g>
<!-- Node1&#45;&gt;Node5 -->
<g id="edge8" class="edge"><title>Node1&#45;&gt;Node5</title>
<path fill="none" stroke="midnightblue" d="M240.251,-68.9818C274.209,-56.854 322.568,-39.583 353.366,-28.5835"/>
<polygon fill="midnightblue" stroke="midnightblue" points="238.887,-65.7524 230.647,-72.412 241.241,-72.3446 238.887,-65.7524"/>
</g>
</g>
</svg>
