<?xml version="1.0" encoding="UTF-8" standalone="no"?>
<!DOCTYPE svg PUBLIC "-//W3C//DTD SVG 1.1//EN"
 "http://www.w3.org/Graphics/SVG/1.1/DTD/svg11.dtd">
<!-- Generated by graphviz version 2.26.3 (20100126.1600)
 -->
<!-- Title: src/expconfig/detectors/TAPS.h Pages: 1 -->
<svg width="850pt" height="272pt"
 viewBox="0.00 0.00 850.00 272.00" xmlns="http://www.w3.org/2000/svg" xmlns:xlink="http://www.w3.org/1999/xlink">
<g id="graph1" class="graph" transform="scale(1 1) rotate(0) translate(4 268)">
<title>src/expconfig/detectors/TAPS.h</title>
<polygon fill="white" stroke="white" points="-4,5 -4,-268 847,-268 847,5 -4,5"/>
<!-- Node1 -->
<g id="node1" class="node"><title>Node1</title>
<polygon fill="#bfbfbf" stroke="black" points="276.5,-229 276.5,-263 395.5,-263 395.5,-229 276.5,-229"/>
<text text-anchor="start" x="284.5" y="-250" font-family="Helvetica,sans-Serif" font-size="10.00">src/expconfig/detectors</text>
<text text-anchor="middle" x="336" y="-237" font-family="Helvetica,sans-Serif" font-size="10.00">/TAPS.h</text>
</g>
<!-- Node2 -->
<g id="node3" class="node"><title>Node2</title>
<a xlink:href="_t_a_p_s___energy_8cc.html" target="_top" xlink:title="src/calibration/modules\l/TAPS_Energy.cc">
<polygon fill="white" stroke="black" points="-0.5,-151 -0.5,-185 116.5,-185 116.5,-151 -0.5,-151"/>
<text text-anchor="start" x="7.5" y="-172" font-family="Helvetica,sans-Serif" font-size="10.00">src/calibration/modules</text>
<text text-anchor="middle" x="58" y="-159" font-family="Helvetica,sans-Serif" font-size="10.00">/TAPS_Energy.cc</text>
</a>
</g>
<!-- Node1&#45;&gt;Node2 -->
<g id="edge2" class="edge"><title>Node1&#45;&gt;Node2</title>
<path fill="none" stroke="midnightblue" d="M266.494,-229.943C225.129,-219.958 171.76,-206.324 125,-192 118.148,-189.901 110.962,-187.521 103.944,-185.096"/>
<polygon fill="midnightblue" stroke="midnightblue" points="265.93,-233.407 276.47,-232.337 267.563,-226.6 265.93,-233.407"/>
</g>
<!-- Node3 -->
<g id="node5" class="node"><title>Node3</title>
<a xlink:href="_t_a_p_s__2013___ba_f2__elements_8h.html" target="_top" xlink:title="src/expconfig/detectors\l/detail/TAPS_2013_BaF2\l_elements.h">
<polygon fill="white" stroke="black" points="133.5,-144.5 133.5,-191.5 260.5,-191.5 260.5,-144.5 133.5,-144.5"/>
<text text-anchor="start" x="141.5" y="-178.5" font-family="Helvetica,sans-Serif" font-size="10.00">src/expconfig/detectors</text>
<text text-anchor="start" x="141.5" y="-165.5" font-family="Helvetica,sans-Serif" font-size="10.00">/detail/TAPS_2013_BaF2</text>
<text text-anchor="middle" x="197" y="-152.5" font-family="Helvetica,sans-Serif" font-size="10.00">_elements.h</text>
</a>
</g>
<!-- Node1&#45;&gt;Node3 -->
<g id="edge4" class="edge"><title>Node1&#45;&gt;Node3</title>
<path fill="none" stroke="midnightblue" d="M296.446,-223.804C278.501,-213.734 257.264,-201.817 239.032,-191.586"/>
<polygon fill="midnightblue" stroke="midnightblue" points="295.062,-227.041 305.496,-228.883 298.488,-220.937 295.062,-227.041"/>
</g>
<!-- Node4 -->
<g id="node7" class="node"><title>Node4</title>
<a xlink:href="_t_a_p_s_8cc.html" target="_top" xlink:title="src/expconfig/detectors\l/TAPS.cc">
<polygon fill="white" stroke="black" points="181.5,-73 181.5,-107 300.5,-107 300.5,-73 181.5,-73"/>
<text text-anchor="start" x="189.5" y="-94" font-family="Helvetica,sans-Serif" font-size="10.00">src/expconfig/detectors</text>
<text text-anchor="middle" x="241" y="-81" font-family="Helvetica,sans-Serif" font-size="10.00">/TAPS.cc</text>
</a>
</g>
<!-- Node1&#45;&gt;Node4 -->
<g id="edge12" class="edge"><title>Node1&#45;&gt;Node4</title>
<path fill="none" stroke="midnightblue" d="M320.114,-219.914C300.654,-187.958 268.227,-134.71 251.577,-107.368"/>
<polygon fill="midnightblue" stroke="midnightblue" points="317.28,-221.989 325.47,-228.709 323.258,-218.348 317.28,-221.989"/>
</g>
<!-- Node5 -->
<g id="node9" class="node"><title>Node5</title>
<a xlink:href="_t_a_p_s__2013___pb_w_o4__elements_8h.html" target="_top" xlink:title="src/expconfig/detectors\l/detail/TAPS_2013_PbWO4\l_elements.h">
<polygon fill="white" stroke="black" points="316,-144.5 316,-191.5 454,-191.5 454,-144.5 316,-144.5"/>
<text text-anchor="start" x="324" y="-178.5" font-family="Helvetica,sans-Serif" font-size="10.00">src/expconfig/detectors</text>
<text text-anchor="start" x="324" y="-165.5" font-family="Helvetica,sans-Serif" font-size="10.00">/detail/TAPS_2013_PbWO4</text>
<text text-anchor="middle" x="385" y="-152.5" font-family="Helvetica,sans-Serif" font-size="10.00">_elements.h</text>
</a>
</g>
<!-- Node1&#45;&gt;Node5 -->
<g id="edge8" class="edge"><title>Node1&#45;&gt;Node5</title>
<path fill="none" stroke="midnightblue" d="M352.325,-220.013C358.055,-210.892 364.458,-200.699 370.068,-191.77"/>
<polygon fill="midnightblue" stroke="midnightblue" points="349.231,-218.36 346.875,-228.689 355.158,-222.083 349.231,-218.36"/>
</g>
<!-- Node6 -->
<g id="node13" class="node"><title>Node6</title>
<a xlink:href="_setup_8h.html" target="_top" xlink:title="src/expconfig/setups\l/Setup.h">
<polygon fill="white" stroke="black" points="471.5,-151 471.5,-185 578.5,-185 578.5,-151 471.5,-151"/>
<text text-anchor="start" x="479.5" y="-172" font-family="Helvetica,sans-Serif" font-size="10.00">src/expconfig/setups</text>
<text text-anchor="middle" x="525" y="-159" font-family="Helvetica,sans-Serif" font-size="10.00">/Setup.h</text>
</a>
</g>
<!-- Node1&#45;&gt;Node6 -->
<g id="edge14" class="edge"><title>Node1&#45;&gt;Node6</title>
<path fill="none" stroke="midnightblue" d="M387.02,-224.944C417.304,-212.446 455.207,-196.804 483.62,-185.078"/>
<polygon fill="midnightblue" stroke="midnightblue" points="385.385,-221.832 377.477,-228.883 388.056,-228.303 385.385,-221.832"/>
</g>
<!-- Node14 -->
<g id="node29" class="node"><title>Node14</title>
<a xlink:href="_candidate_builder_8cc.html" target="_top" xlink:title="src/reconstruct/Candidate\lBuilder.cc">
<polygon fill="white" stroke="black" points="595.5,-151 595.5,-185 724.5,-185 724.5,-151 595.5,-151"/>
<text text-anchor="start" x="603.5" y="-172" font-family="Helvetica,sans-Serif" font-size="10.00">src/reconstruct/Candidate</text>
<text text-anchor="middle" x="660" y="-159" font-family="Helvetica,sans-Serif" font-size="10.00">Builder.cc</text>
</a>
</g>
<!-- Node1&#45;&gt;Node14 -->
<g id="edge30" class="edge"><title>Node1&#45;&gt;Node14</title>
<path fill="none" stroke="midnightblue" d="M405.371,-233.125C456.033,-223.226 526.2,-208.485 587,-192 594.597,-189.94 602.57,-187.555 610.341,-185.104"/>
<polygon fill="midnightblue" stroke="midnightblue" points="404.658,-229.698 395.508,-235.039 405.991,-236.57 404.658,-229.698"/>
</g>
<!-- Node3&#45;&gt;Node4 -->
<g id="edge6" class="edge"><title>Node3&#45;&gt;Node4</title>
<path fill="none" stroke="midnightblue" d="M215.373,-135.43C220.884,-125.66 226.708,-115.336 231.409,-107.003"/>
<polygon fill="midnightblue" stroke="midnightblue" points="212.305,-133.744 210.441,-144.174 218.402,-137.183 212.305,-133.744"/>
</g>
<!-- Node5&#45;&gt;Node4 -->
<g id="edge10" class="edge"><title>Node5&#45;&gt;Node4</title>
<path fill="none" stroke="midnightblue" d="M332.363,-139.488C312.299,-128.621 290.069,-116.579 272.56,-107.095"/>
<polygon fill="midnightblue" stroke="midnightblue" points="330.945,-142.7 341.404,-144.386 334.279,-136.545 330.945,-142.7"/>
</g>
<!-- Node7 -->
<g id="node15" class="node"><title>Node7</title>
<a xlink:href="_exp_config_8cc.html" target="_top" xlink:title="src/expconfig/ExpConfig.cc">
<polygon fill="white" stroke="black" points="317.5,-79.5 317.5,-100.5 454.5,-100.5 454.5,-79.5 317.5,-79.5"/>
<text text-anchor="middle" x="386" y="-87.5" font-family="Helvetica,sans-Serif" font-size="10.00">src/expconfig/ExpConfig.cc</text>
</a>
</g>
<!-- Node6&#45;&gt;Node7 -->
<g id="edge16" class="edge"><title>Node6&#45;&gt;Node7</title>
<path fill="none" stroke="midnightblue" d="M485.484,-145.826C459.07,-131.003 425.508,-112.17 404.901,-100.606"/>
<polygon fill="midnightblue" stroke="midnightblue" points="484.062,-149.041 494.496,-150.883 487.488,-142.937 484.062,-149.041"/>
</g>
<!-- Node8 -->
<g id="node17" class="node"><title>Node8</title>
<a xlink:href="_setup__2014___e_p_t_8h.html" target="_top" xlink:title="src/expconfig/setups\l/Setup_2014_EPT.h">
<polygon fill="white" stroke="black" points="471.5,-73 471.5,-107 578.5,-107 578.5,-73 471.5,-73"/>
<text text-anchor="start" x="479.5" y="-94" font-family="Helvetica,sans-Serif" font-size="10.00">src/expconfig/setups</text>
<text text-anchor="middle" x="525" y="-81" font-family="Helvetica,sans-Serif" font-size="10.00">/Setup_2014_EPT.h</text>
</a>
</g>
<!-- Node6&#45;&gt;Node8 -->
<g id="edge18" class="edge"><title>Node6&#45;&gt;Node8</title>
<path fill="none" stroke="midnightblue" d="M525,-140.61C525,-129.519 525,-117.049 525,-107.262"/>
<polygon fill="midnightblue" stroke="midnightblue" points="521.5,-140.689 525,-150.689 528.5,-140.689 521.5,-140.689"/>
</g>
<!-- Node12 -->
<g id="node25" class="node"><title>Node12</title>
<a xlink:href="_setup__2015__dummy_8cc.html" target="_top" xlink:title="src/expconfig/setups\l/Setup_2015_dummy.cc">
<polygon fill="white" stroke="black" points="596,-73 596,-107 718,-107 718,-73 596,-73"/>
<text text-anchor="start" x="604" y="-94" font-family="Helvetica,sans-Serif" font-size="10.00">src/expconfig/setups</text>
<text text-anchor="middle" x="657" y="-81" font-family="Helvetica,sans-Serif" font-size="10.00">/Setup_2015_dummy.cc</text>
</a>
</g>
<!-- Node6&#45;&gt;Node12 -->
<g id="edge26" class="edge"><title>Node6&#45;&gt;Node12</title>
<path fill="none" stroke="midnightblue" d="M562.849,-145.635C583.609,-133.367 608.943,-118.398 628.1,-107.078"/>
<polygon fill="midnightblue" stroke="midnightblue" points="560.797,-142.782 553.968,-150.883 564.358,-148.808 560.797,-142.782"/>
</g>
<!-- Node13 -->
<g id="node27" class="node"><title>Node13</title>
<a xlink:href="_setup_registry_8cc.html" target="_top" xlink:title="src/expconfig/setups\l/SetupRegistry.cc">
<polygon fill="white" stroke="black" points="735.5,-73 735.5,-107 842.5,-107 842.5,-73 735.5,-73"/>
<text text-anchor="start" x="743.5" y="-94" font-family="Helvetica,sans-Serif" font-size="10.00">src/expconfig/setups</text>
<text text-anchor="middle" x="789" y="-81" font-family="Helvetica,sans-Serif" font-size="10.00">/SetupRegistry.cc</text>
</a>
</g>
<!-- Node6&#45;&gt;Node13 -->
<g id="edge28" class="edge"><title>Node6&#45;&gt;Node13</title>
<path fill="none" stroke="midnightblue" d="M576.793,-147.435C580.232,-146.23 583.657,-145.073 587,-144 648.174,-124.37 665.032,-124.958 727,-108 729.703,-107.26 732.469,-106.494 735.26,-105.712"/>
<polygon fill="midnightblue" stroke="midnightblue" points="575.333,-144.242 567.119,-150.933 577.713,-150.824 575.333,-144.242"/>
</g>
<!-- Node9 -->
<g id="node19" class="node"><title>Node9</title>
<a xlink:href="_setup__2014__07___e_p_t___prod_8cc.html" target="_top" xlink:title="src/expconfig/setups\l/Setup_2014_07_EPT_Prod.cc">
<polygon fill="white" stroke="black" points="281.5,-1 281.5,-35 432.5,-35 432.5,-1 281.5,-1"/>
<text text-anchor="start" x="289.5" y="-22" font-family="Helvetica,sans-Serif" font-size="10.00">src/expconfig/setups</text>
<text text-anchor="middle" x="357" y="-9" font-family="Helvetica,sans-Serif" font-size="10.00">/Setup_2014_07_EPT_Prod.cc</text>
</a>
</g>
<!-- Node8&#45;&gt;Node9 -->
<g id="edge20" class="edge"><title>Node8&#45;&gt;Node9</title>
<path fill="none" stroke="midnightblue" d="M475.822,-68.9238C450.68,-58.1485 420.48,-45.2059 396.819,-35.0651"/>
<polygon fill="midnightblue" stroke="midnightblue" points="474.616,-72.2148 485.186,-72.937 477.374,-65.7807 474.616,-72.2148"/>
</g>
<!-- Node10 -->
<g id="node21" class="node"><title>Node10</title>
<a xlink:href="_setup__2014__10___e_p_t___prod_8cc.html" target="_top" xlink:title="src/expconfig/setups\l/Setup_2014_10_EPT_Prod.cc">
<polygon fill="white" stroke="black" points="449.5,-1 449.5,-35 600.5,-35 600.5,-1 449.5,-1"/>
<text text-anchor="start" x="457.5" y="-22" font-family="Helvetica,sans-Serif" font-size="10.00">src/expconfig/setups</text>
<text text-anchor="middle" x="525" y="-9" font-family="Helvetica,sans-Serif" font-size="10.00">/Setup_2014_10_EPT_Prod.cc</text>
</a>
</g>
<!-- Node8&#45;&gt;Node10 -->
<g id="edge22" class="edge"><title>Node8&#45;&gt;Node10</title>
<path fill="none" stroke="midnightblue" d="M525,-62.7193C525,-53.572 525,-43.6255 525,-35.4407"/>
<polygon fill="midnightblue" stroke="midnightblue" points="521.5,-62.937 525,-72.937 528.5,-62.937 521.5,-62.937"/>
</g>
<!-- Node11 -->
<g id="node23" class="node"><title>Node11</title>
<a xlink:href="_setup__2014__12___e_p_t___prod_8cc.html" target="_top" xlink:title="src/expconfig/setups\l/Setup_2014_12_EPT_Prod.cc">
<polygon fill="white" stroke="black" points="617.5,-1 617.5,-35 768.5,-35 768.5,-1 617.5,-1"/>
<text text-anchor="start" x="625.5" y="-22" font-family="Helvetica,sans-Serif" font-size="10.00">src/expconfig/setups</text>
<text text-anchor="middle" x="693" y="-9" font-family="Helvetica,sans-Serif" font-size="10.00">/Setup_2014_12_EPT_Prod.cc</text>
</a>
</g>
<!-- Node8&#45;&gt;Node11 -->
<g id="edge24" class="edge"><title>Node8&#45;&gt;Node11</title>
<path fill="none" stroke="midnightblue" d="M574.178,-68.9238C599.32,-58.1485 629.52,-45.2059 653.181,-35.0651"/>
<polygon fill="midnightblue" stroke="midnightblue" points="572.626,-65.7807 564.814,-72.937 575.384,-72.2148 572.626,-65.7807"/>
</g>
</g>
</svg>
