<?xml version="1.0" encoding="UTF-8" standalone="no"?>
<!DOCTYPE svg PUBLIC "-//W3C//DTD SVG 1.1//EN"
 "http://www.w3.org/Graphics/SVG/1.1/DTD/svg11.dtd">
<!-- Generated by graphviz version 2.26.3 (20100126.1600)
 -->
<!-- Title: src/calibration/modules/TAPS_Energy.cc Pages: 1 -->
<svg width="3622pt" height="768pt"
 viewBox="0.00 0.00 3622.00 768.00" xmlns="http://www.w3.org/2000/svg" xmlns:xlink="http://www.w3.org/1999/xlink">
<g id="graph1" class="graph" transform="scale(1 1) rotate(0) translate(4 764)">
<title>src/calibration/modules/TAPS_Energy.cc</title>
<polygon fill="white" stroke="white" points="-4,5 -4,-764 3619,-764 3619,5 -4,5"/>
<!-- Node1 -->
<g id="node1" class="node"><title>Node1</title>
<polygon fill="#bfbfbf" stroke="black" points="2472.5,-725 2472.5,-759 2589.5,-759 2589.5,-725 2472.5,-725"/>
<text text-anchor="start" x="2480.5" y="-746" font-family="Helvetica,sans-Serif" font-size="10.00">src/calibration/modules</text>
<text text-anchor="middle" x="2531" y="-733" font-family="Helvetica,sans-Serif" font-size="10.00">/TAPS_Energy.cc</text>
</g>
<!-- Node2 -->
<g id="node3" class="node"><title>Node2</title>
<a xlink:href="_t_a_p_s___energy_8h.html" target="_top" xlink:title="TAPS_Energy.h">
<polygon fill="white" stroke="black" points="2112.5,-594.5 2112.5,-615.5 2199.5,-615.5 2199.5,-594.5 2112.5,-594.5"/>
<text text-anchor="middle" x="2156" y="-602.5" font-family="Helvetica,sans-Serif" font-size="10.00">TAPS_Energy.h</text>
</a>
</g>
<!-- Node1&#45;&gt;Node2 -->
<g id="edge2" class="edge"><title>Node1&#45;&gt;Node2</title>
<path fill="none" stroke="midnightblue" d="M2484.26,-724.926C2409.41,-697.579 2264.02,-644.463 2194.64,-619.118"/>
<polygon fill="midnightblue" stroke="midnightblue" points="2195.57,-615.731 2184.98,-615.586 2193.17,-622.306 2195.57,-615.731"/>
</g>
<!-- Node5 -->
<g id="node9" class="node"><title>Node5</title>
<a xlink:href="_histogram_factories_8h.html" target="_top" xlink:title="analysis/plot/HistogramFactories.h">
<polygon fill="white" stroke="black" points="530,-355.5 530,-376.5 698,-376.5 698,-355.5 530,-355.5"/>
<text text-anchor="middle" x="614" y="-363.5" font-family="Helvetica,sans-Serif" font-size="10.00">analysis/plot/HistogramFactories.h</text>
</a>
</g>
<!-- Node1&#45;&gt;Node5 -->
<g id="edge336" class="edge"><title>Node1&#45;&gt;Node5</title>
<path fill="none" stroke="midnightblue" d="M2472.28,-740.987C2241.58,-736.811 1396.99,-719.652 1131,-688 945.086,-665.877 718,-792.226 718,-605 718,-605 718,-605 718,-489 718,-441.405 672.031,-402.729 641.217,-382.149"/>
<polygon fill="midnightblue" stroke="midnightblue" points="642.895,-379.067 632.593,-376.593 639.104,-384.952 642.895,-379.067"/>
</g>
<!-- Node19 -->
<g id="node40" class="node"><title>Node19</title>
<polygon fill="white" stroke="#bfbfbf" points="2466.5,-116.5 2466.5,-137.5 2495.5,-137.5 2495.5,-116.5 2466.5,-116.5"/>
<text text-anchor="middle" x="2481" y="-124.5" font-family="Helvetica,sans-Serif" font-size="10.00">list</text>
</g>
<!-- Node1&#45;&gt;Node19 -->
<g id="edge346" class="edge"><title>Node1&#45;&gt;Node19</title>
<path fill="none" stroke="midnightblue" d="M2589.5,-738.99C2784.79,-728.175 3402,-687.469 3402,-605 3402,-605 3402,-605 3402,-431 3402,-290.026 3282.83,-291.434 3155,-232 3035.34,-176.365 2613.22,-138.02 2505.94,-129.026"/>
<polygon fill="midnightblue" stroke="midnightblue" points="2506.02,-125.52 2495.76,-128.182 2505.44,-132.496 2506.02,-125.52"/>
</g>
<!-- Node41 -->
<g id="node112" class="node"><title>Node41</title>
<a xlink:href="_event_8h.html" target="_top" xlink:title="analysis/data/Event.h">
<polygon fill="white" stroke="black" points="1555.5,-355.5 1555.5,-376.5 1666.5,-376.5 1666.5,-355.5 1555.5,-355.5"/>
<text text-anchor="middle" x="1611" y="-363.5" font-family="Helvetica,sans-Serif" font-size="10.00">analysis/data/Event.h</text>
</a>
</g>
<!-- Node1&#45;&gt;Node41 -->
<g id="edge338" class="edge"><title>Node1&#45;&gt;Node41</title>
<path fill="none" stroke="midnightblue" d="M2472.34,-739.972C2188.8,-729.792 974,-681.701 974,-605 974,-605 974,-605 974,-489 974,-431.31 1381.99,-387.18 1544.94,-371.855"/>
<polygon fill="midnightblue" stroke="midnightblue" points="1545.68,-375.301 1555.31,-370.887 1545.03,-368.331 1545.68,-375.301"/>
</g>
<!-- Node44 -->
<g id="node127" class="node"><title>Node44</title>
<a xlink:href="_t_data_record_8h.html" target="_top" xlink:title="tree/TDataRecord.h">
<polygon fill="white" stroke="black" points="199.5,-232.5 199.5,-253.5 302.5,-253.5 302.5,-232.5 199.5,-232.5"/>
<text text-anchor="middle" x="251" y="-240.5" font-family="Helvetica,sans-Serif" font-size="10.00">tree/TDataRecord.h</text>
</a>
</g>
<!-- Node1&#45;&gt;Node44 -->
<g id="edge344" class="edge"><title>Node1&#45;&gt;Node44</title>
<path fill="none" stroke="midnightblue" d="M2472.32,-741.695C2201.51,-740.067 1070.88,-730.785 720,-688 546.676,-666.865 336,-779.608 336,-605 336,-605 336,-605 336,-366 336,-321.924 298.603,-282.203 273.42,-260.452"/>
<polygon fill="midnightblue" stroke="midnightblue" points="275.342,-257.498 265.419,-253.784 270.86,-262.875 275.342,-257.498"/>
</g>
<!-- Node61 -->
<g id="node204" class="node"><title>Node61</title>
<a xlink:href="_t_a_p_s_8h.html" target="_top" xlink:title="expconfig/detectors\l/TAPS.h">
<polygon fill="white" stroke="black" points="2630,-653 2630,-687 2732,-687 2732,-653 2630,-653"/>
<text text-anchor="start" x="2638" y="-674" font-family="Helvetica,sans-Serif" font-size="10.00">expconfig/detectors</text>
<text text-anchor="middle" x="2681" y="-661" font-family="Helvetica,sans-Serif" font-size="10.00">/TAPS.h</text>
</a>
</g>
<!-- Node1&#45;&gt;Node61 -->
<g id="edge286" class="edge"><title>Node1&#45;&gt;Node61</title>
<path fill="none" stroke="midnightblue" d="M2566.55,-724.937C2587.39,-714.931 2613.93,-702.196 2636.19,-691.507"/>
<polygon fill="midnightblue" stroke="midnightblue" points="2637.95,-694.548 2645.45,-687.065 2634.92,-688.237 2637.95,-694.548"/>
</g>
<!-- Node67 -->
<g id="node237" class="node"><title>Node67</title>
<a xlink:href="combinatorics_8h.html" target="_top" xlink:title="analysis/utils/combinatorics.h">
<polygon fill="white" stroke="black" points="3468,-478.5 3468,-499.5 3614,-499.5 3614,-478.5 3468,-478.5"/>
<text text-anchor="middle" x="3541" y="-486.5" font-family="Helvetica,sans-Serif" font-size="10.00">analysis/utils/combinatorics.h</text>
</a>
</g>
<!-- Node1&#45;&gt;Node67 -->
<g id="edge340" class="edge"><title>Node1&#45;&gt;Node67</title>
<path fill="none" stroke="midnightblue" d="M2589.58,-741.502C2775.66,-739.5 3345.26,-729.969 3416,-688 3485.08,-647.02 3521.83,-551.387 3535.13,-509.391"/>
<polygon fill="midnightblue" stroke="midnightblue" points="3538.51,-510.3 3538.07,-499.714 3531.81,-508.262 3538.51,-510.3"/>
</g>
<!-- Node68 -->
<g id="node242" class="node"><title>Node68</title>
<polygon fill="white" stroke="#bfbfbf" points="3506,-659.5 3506,-680.5 3550,-680.5 3550,-659.5 3506,-659.5"/>
<text text-anchor="middle" x="3528" y="-667.5" font-family="Helvetica,sans-Serif" font-size="10.00">cmath</text>
</g>
<!-- Node1&#45;&gt;Node68 -->
<g id="edge348" class="edge"><title>Node1&#45;&gt;Node68</title>
<path fill="none" stroke="midnightblue" d="M2589.69,-740.087C2784.93,-733.533 3405.1,-711.108 3492,-688 3495.01,-687.2 3498.06,-686.133 3501.05,-684.916"/>
<polygon fill="midnightblue" stroke="midnightblue" points="3502.65,-688.035 3510.26,-680.663 3499.71,-681.68 3502.65,-688.035"/>
</g>
<!-- Node3 -->
<g id="node5" class="node"><title>Node3</title>
<a xlink:href="_calibration_8h.html" target="_top" xlink:title="calibration/Calibration.h">
<polygon fill="white" stroke="black" points="2096.5,-478.5 2096.5,-499.5 2215.5,-499.5 2215.5,-478.5 2096.5,-478.5"/>
<text text-anchor="middle" x="2156" y="-486.5" font-family="Helvetica,sans-Serif" font-size="10.00">calibration/Calibration.h</text>
</a>
</g>
<!-- Node2&#45;&gt;Node3 -->
<g id="edge4" class="edge"><title>Node2&#45;&gt;Node3</title>
<path fill="none" stroke="midnightblue" d="M2156,-594.295C2156,-575.131 2156,-534.654 2156,-509.843"/>
<polygon fill="midnightblue" stroke="midnightblue" points="2159.5,-509.679 2156,-499.679 2152.5,-509.679 2159.5,-509.679"/>
</g>
<!-- Node60 -->
<g id="node198" class="node"><title>Node60</title>
<a xlink:href="_energy_8h.html" target="_top" xlink:title="Energy.h">
<polygon fill="white" stroke="black" points="2028,-536.5 2028,-557.5 2084,-557.5 2084,-536.5 2028,-536.5"/>
<text text-anchor="middle" x="2056" y="-544.5" font-family="Helvetica,sans-Serif" font-size="10.00">Energy.h</text>
</a>
</g>
<!-- Node2&#45;&gt;Node60 -->
<g id="edge276" class="edge"><title>Node2&#45;&gt;Node60</title>
<path fill="none" stroke="midnightblue" d="M2137.66,-594.362C2122.43,-585.532 2100.56,-572.844 2083.28,-562.822"/>
<polygon fill="midnightblue" stroke="midnightblue" points="2084.63,-559.56 2074.23,-557.571 2081.12,-565.615 2084.63,-559.56"/>
</g>
<!-- Node4 -->
<g id="node7" class="node"><title>Node4</title>
<a xlink:href="_physics_8h.html" target="_top" xlink:title="analysis/physics/Physics.h">
<polygon fill="white" stroke="black" points="2084,-420.5 2084,-441.5 2220,-441.5 2220,-420.5 2084,-420.5"/>
<text text-anchor="middle" x="2152" y="-428.5" font-family="Helvetica,sans-Serif" font-size="10.00">analysis/physics/Physics.h</text>
</a>
</g>
<!-- Node3&#45;&gt;Node4 -->
<g id="edge6" class="edge"><title>Node3&#45;&gt;Node4</title>
<path fill="none" stroke="midnightblue" d="M2155.27,-478.362C2154.75,-470.922 2154.05,-460.743 2153.43,-451.728"/>
<polygon fill="midnightblue" stroke="midnightblue" points="2156.91,-451.306 2152.73,-441.571 2149.93,-451.788 2156.91,-451.306"/>
</g>
<!-- Node8 -->
<g id="node15" class="node"><title>Node8</title>
<polygon fill="white" stroke="#bfbfbf" points="2016,-0.5 2016,-21.5 2060,-21.5 2060,-0.5 2016,-0.5"/>
<text text-anchor="middle" x="2038" y="-8.5" font-family="Helvetica,sans-Serif" font-size="10.00">vector</text>
</g>
<!-- Node3&#45;&gt;Node8 -->
<g id="edge274" class="edge"><title>Node3&#45;&gt;Node8</title>
<path fill="none" stroke="midnightblue" d="M2215.73,-484.607C2395.12,-471.052 2927.13,-428.127 3095,-384 3211.33,-353.421 3326,-363.281 3326,-243 3326,-243 3326,-243 3326,-127 3326,-61.9299 2269.46,-19.5739 2070.2,-12.1641"/>
<polygon fill="midnightblue" stroke="midnightblue" points="2070.21,-8.66208 2060.08,-11.7907 2069.95,-15.6573 2070.21,-8.66208"/>
</g>
<!-- Node54 -->
<g id="node171" class="node"><title>Node54</title>
<a xlink:href="_reconstruct__traits_8h.html" target="_top" xlink:title="reconstruct/Reconstruct\l_traits.h">
<polygon fill="white" stroke="black" points="2620,-349 2620,-383 2742,-383 2742,-349 2620,-349"/>
<text text-anchor="start" x="2628" y="-370" font-family="Helvetica,sans-Serif" font-size="10.00">reconstruct/Reconstruct</text>
<text text-anchor="middle" x="2681" y="-357" font-family="Helvetica,sans-Serif" font-size="10.00">_traits.h</text>
</a>
</g>
<!-- Node3&#45;&gt;Node54 -->
<g id="edge234" class="edge"><title>Node3&#45;&gt;Node54</title>
<path fill="none" stroke="midnightblue" d="M2201.22,-478.407C2292.63,-456.99 2500.02,-408.4 2609.79,-382.684"/>
<polygon fill="midnightblue" stroke="midnightblue" points="2610.84,-386.032 2619.78,-380.344 2609.24,-379.217 2610.84,-386.032"/>
</g>
<!-- Node58 -->
<g id="node188" class="node"><title>Node58</title>
<a xlink:href="_manager__traits_8h.html" target="_top" xlink:title="calibration/gui/Manager\l_traits.h">
<polygon fill="white" stroke="black" points="715.5,-349 715.5,-383 832.5,-383 832.5,-349 715.5,-349"/>
<text text-anchor="start" x="723.5" y="-370" font-family="Helvetica,sans-Serif" font-size="10.00">calibration/gui/Manager</text>
<text text-anchor="middle" x="774" y="-357" font-family="Helvetica,sans-Serif" font-size="10.00">_traits.h</text>
</a>
</g>
<!-- Node3&#45;&gt;Node58 -->
<g id="edge260" class="edge"><title>Node3&#45;&gt;Node58</title>
<path fill="none" stroke="midnightblue" d="M2096.17,-483.675C1871.94,-463.718 1081.98,-393.411 843.002,-372.141"/>
<polygon fill="midnightblue" stroke="midnightblue" points="842.984,-368.626 832.713,-371.226 842.363,-375.598 842.984,-368.626"/>
</g>
<!-- Node4&#45;&gt;Node5 -->
<g id="edge8" class="edge"><title>Node4&#45;&gt;Node5</title>
<path fill="none" stroke="midnightblue" d="M2083.91,-430.219C1835.57,-427.148 978.881,-414.537 707,-384 695.126,-382.666 682.501,-380.64 670.507,-378.421"/>
<polygon fill="midnightblue" stroke="midnightblue" points="671.092,-374.97 660.612,-376.523 669.773,-381.844 671.092,-374.97"/>
</g>
<!-- Node9 -->
<g id="node17" class="node"><title>Node9</title>
<polygon fill="white" stroke="#bfbfbf" points="256.5,-0.5 256.5,-21.5 297.5,-21.5 297.5,-0.5 256.5,-0.5"/>
<text text-anchor="middle" x="277" y="-8.5" font-family="Helvetica,sans-Serif" font-size="10.00">string</text>
</g>
<!-- Node4&#45;&gt;Node9 -->
<g id="edge226" class="edge"><title>Node4&#45;&gt;Node9</title>
<path fill="none" stroke="midnightblue" d="M2083.8,-428.941C1913.94,-423.516 1475.24,-407.603 1331,-384 1211.4,-364.429 1183.24,-349.522 1068,-312 998.851,-289.485 980.713,-285.149 915,-254 757.389,-179.29 739.455,-116.115 575,-58 481.25,-24.8704 362.664,-15.0301 307.635,-12.1566"/>
<polygon fill="midnightblue" stroke="midnightblue" points="307.659,-8.65385 297.503,-11.67 307.323,-15.6458 307.659,-8.65385"/>
</g>
<!-- Node4&#45;&gt;Node19 -->
<g id="edge224" class="edge"><title>Node4&#45;&gt;Node19</title>
<path fill="none" stroke="midnightblue" d="M2220.02,-430.078C2368.43,-427.442 2711.26,-417.733 2751,-384 2822.36,-323.422 2836.61,-236.579 2767,-174 2728.61,-139.488 2568.04,-130.106 2505.8,-127.741"/>
<polygon fill="midnightblue" stroke="midnightblue" points="2505.82,-124.24 2495.7,-127.387 2505.57,-131.235 2505.82,-124.24"/>
</g>
<!-- Node20 -->
<g id="node43" class="node"><title>Node20</title>
<polygon fill="white" stroke="#bfbfbf" points="2600.5,-174.5 2600.5,-195.5 2635.5,-195.5 2635.5,-174.5 2600.5,-174.5"/>
<text text-anchor="middle" x="2618" y="-182.5" font-family="Helvetica,sans-Serif" font-size="10.00">map</text>
</g>
<!-- Node4&#45;&gt;Node20 -->
<g id="edge228" class="edge"><title>Node4&#45;&gt;Node20</title>
<path fill="none" stroke="midnightblue" d="M2220.06,-421.642C2302.54,-407.896 2443.34,-376.54 2547,-312 2576.9,-293.385 2584.25,-284.982 2601,-254 2609.06,-239.099 2613.36,-220.335 2615.62,-206.137"/>
<polygon fill="midnightblue" stroke="midnightblue" points="2619.13,-206.274 2617.03,-195.891 2612.2,-205.322 2619.13,-206.274"/>
</g>
<!-- Node21 -->
<g id="node45" class="node"><title>Node21</title>
<polygon fill="white" stroke="#bfbfbf" points="2208,-174.5 2208,-195.5 2260,-195.5 2260,-174.5 2208,-174.5"/>
<text text-anchor="middle" x="2234" y="-182.5" font-family="Helvetica,sans-Serif" font-size="10.00">memory</text>
</g>
<!-- Node4&#45;&gt;Node21 -->
<g id="edge230" class="edge"><title>Node4&#45;&gt;Node21</title>
<path fill="none" stroke="midnightblue" d="M2145.39,-420.4C2126.57,-388.75 2076.68,-293.331 2118,-232 2127.35,-218.117 2167.47,-203.92 2197.93,-194.815"/>
<polygon fill="midnightblue" stroke="midnightblue" points="2199.21,-198.088 2207.83,-191.931 2197.25,-191.368 2199.21,-198.088"/>
</g>
<!-- Node22 -->
<g id="node47" class="node"><title>Node22</title>
<polygon fill="white" stroke="#bfbfbf" points="1241.5,-174.5 1241.5,-195.5 1300.5,-195.5 1300.5,-174.5 1241.5,-174.5"/>
<text text-anchor="middle" x="1271" y="-182.5" font-family="Helvetica,sans-Serif" font-size="10.00">functional</text>
</g>
<!-- Node4&#45;&gt;Node22 -->
<g id="edge232" class="edge"><title>Node4&#45;&gt;Node22</title>
<path fill="none" stroke="midnightblue" d="M2083.99,-429.25C1971.59,-425.569 1740.27,-414.655 1547,-384 1412.43,-362.655 1371.24,-372.196 1249,-312 1206.09,-290.867 1151.85,-272.691 1177,-232 1188.95,-212.66 1211.54,-201.012 1231.58,-194.15"/>
<polygon fill="midnightblue" stroke="midnightblue" points="1232.66,-197.48 1241.15,-191.153 1230.56,-190.8 1232.66,-197.48"/>
</g>
<!-- Node4&#45;&gt;Node41 -->
<g id="edge142" class="edge"><title>Node4&#45;&gt;Node41</title>
<path fill="none" stroke="midnightblue" d="M2083.76,-422.801C1979.02,-410.216 1779.95,-386.299 1676.74,-373.898"/>
<polygon fill="midnightblue" stroke="midnightblue" points="1677.1,-370.417 1666.75,-372.699 1676.26,-377.367 1677.1,-370.417"/>
</g>
<!-- Node53 -->
<g id="node163" class="node"><title>Node53</title>
<a xlink:href="_slowcontrol_8h.html" target="_top" xlink:title="analysis/data/Slowcontrol.h">
<polygon fill="white" stroke="black" points="2949.5,-355.5 2949.5,-376.5 3086.5,-376.5 3086.5,-355.5 2949.5,-355.5"/>
<text text-anchor="middle" x="3018" y="-363.5" font-family="Helvetica,sans-Serif" font-size="10.00">analysis/data/Slowcontrol.h</text>
</a>
</g>
<!-- Node4&#45;&gt;Node53 -->
<g id="edge220" class="edge"><title>Node4&#45;&gt;Node53</title>
<path fill="none" stroke="midnightblue" d="M2220.28,-425.98C2336.18,-417.444 2578.84,-399.519 2784,-384 2835.75,-380.086 2893.93,-375.611 2939.33,-372.102"/>
<polygon fill="midnightblue" stroke="midnightblue" points="2939.7,-375.583 2949.4,-371.323 2939.16,-368.604 2939.7,-375.583"/>
</g>
<!-- Node6 -->
<g id="node11" class="node"><title>Node6</title>
<a xlink:href="_histogram_8h.html" target="_top" xlink:title="Histogram.h">
<polygon fill="white" stroke="black" points="358,-232.5 358,-253.5 428,-253.5 428,-232.5 358,-232.5"/>
<text text-anchor="middle" x="393" y="-240.5" font-family="Helvetica,sans-Serif" font-size="10.00">Histogram.h</text>
</a>
</g>
<!-- Node5&#45;&gt;Node6 -->
<g id="edge10" class="edge"><title>Node5&#45;&gt;Node6</title>
<path fill="none" stroke="midnightblue" d="M614.267,-355.482C614.079,-339.063 611.187,-307.425 593,-290 543.828,-242.889 509.26,-268.21 437.891,-253.988"/>
<polygon fill="midnightblue" stroke="midnightblue" points="438.569,-250.554 428.05,-251.824 437.065,-257.39 438.569,-250.554"/>
</g>
<!-- Node5&#45;&gt;Node9 -->
<g id="edge140" class="edge"><title>Node5&#45;&gt;Node9</title>
<path fill="none" stroke="midnightblue" d="M529.913,-357.81C361.754,-340.294 0,-296.406 0,-243 0,-243 0,-243 0,-127 0,-84.2547 29.6972,-78.8726 67,-58 124.858,-25.6257 203.414,-15.5504 246.168,-12.4155"/>
<polygon fill="midnightblue" stroke="midnightblue" points="246.482,-15.9025 256.232,-11.7586 246.026,-8.9174 246.482,-15.9025"/>
</g>
<!-- Node17 -->
<g id="node34" class="node"><title>Node17</title>
<a xlink:href="_smart_hist_8h.html" target="_top" xlink:title="SmartHist.h">
<polygon fill="white" stroke="black" points="639.5,-290.5 639.5,-311.5 708.5,-311.5 708.5,-290.5 639.5,-290.5"/>
<text text-anchor="middle" x="674" y="-298.5" font-family="Helvetica,sans-Serif" font-size="10.00">SmartHist.h</text>
</a>
</g>
<!-- Node5&#45;&gt;Node17 -->
<g id="edge34" class="edge"><title>Node5&#45;&gt;Node17</title>
<path fill="none" stroke="midnightblue" d="M623.908,-355.267C632.994,-345.423 646.633,-330.648 657.385,-319"/>
<polygon fill="midnightblue" stroke="midnightblue" points="660.066,-321.256 664.277,-311.534 654.922,-316.508 660.066,-321.256"/>
</g>
<!-- Node30 -->
<g id="node67" class="node"><title>Node30</title>
<a xlink:href="_particle_8h.html" target="_top" xlink:title="analysis/data/Particle.h">
<polygon fill="white" stroke="black" points="1257.5,-290.5 1257.5,-311.5 1376.5,-311.5 1376.5,-290.5 1257.5,-290.5"/>
<text text-anchor="middle" x="1317" y="-298.5" font-family="Helvetica,sans-Serif" font-size="10.00">analysis/data/Particle.h</text>
</a>
</g>
<!-- Node5&#45;&gt;Node30 -->
<g id="edge74" class="edge"><title>Node5&#45;&gt;Node30</title>
<path fill="none" stroke="midnightblue" d="M663.057,-355.417C677.187,-352.665 692.658,-349.934 707,-348 901.712,-321.743 1133.52,-308.892 1247.16,-303.783"/>
<polygon fill="midnightblue" stroke="midnightblue" points="1247.61,-307.266 1257.45,-303.326 1247.3,-300.273 1247.61,-307.266"/>
</g>
<!-- Node7 -->
<g id="node13" class="node"><title>Node7</title>
<polygon fill="white" stroke="#bfbfbf" points="218,-174.5 218,-195.5 272,-195.5 272,-174.5 218,-174.5"/>
<text text-anchor="middle" x="245" y="-182.5" font-family="Helvetica,sans-Serif" font-size="10.00">TColor.h</text>
</g>
<!-- Node6&#45;&gt;Node7 -->
<g id="edge12" class="edge"><title>Node6&#45;&gt;Node7</title>
<path fill="none" stroke="midnightblue" d="M366.198,-232.497C342.562,-223.234 307.9,-209.65 281.692,-199.379"/>
<polygon fill="midnightblue" stroke="midnightblue" points="282.69,-196.011 272.102,-195.621 280.136,-202.529 282.69,-196.011"/>
</g>
<!-- Node6&#45;&gt;Node8 -->
<g id="edge14" class="edge"><title>Node6&#45;&gt;Node8</title>
<path fill="none" stroke="midnightblue" d="M419.994,-232.488C506.044,-199.536 782.245,-98.0829 1021,-58 1217.19,-25.0638 1854.65,-13.7105 2005.7,-11.4494"/>
<polygon fill="midnightblue" stroke="midnightblue" points="2005.77,-14.9488 2015.72,-11.3022 2005.67,-7.94959 2005.77,-14.9488"/>
</g>
<!-- Node6&#45;&gt;Node9 -->
<g id="edge16" class="edge"><title>Node6&#45;&gt;Node9</title>
<path fill="none" stroke="midnightblue" d="M357.84,-238.647C319.584,-232.879 257.416,-220.443 209,-196 172.626,-177.637 155.463,-174.814 138,-138 122.762,-105.875 117.273,-86.8889 138,-58 150.773,-40.1979 209.141,-25.0987 246.062,-17.108"/>
<polygon fill="midnightblue" stroke="midnightblue" points="247.239,-20.4371 256.304,-14.9537 245.798,-13.587 247.239,-20.4371"/>
</g>
<!-- Node10 -->
<g id="node19" class="node"><title>Node10</title>
<a xlink:href="interval_8h.html" target="_top" xlink:title="base/interval.h">
<polygon fill="white" stroke="black" points="992,-174.5 992,-195.5 1072,-195.5 1072,-174.5 992,-174.5"/>
<text text-anchor="middle" x="1032" y="-182.5" font-family="Helvetica,sans-Serif" font-size="10.00">base/interval.h</text>
</a>
</g>
<!-- Node6&#45;&gt;Node10 -->
<g id="edge18" class="edge"><title>Node6&#45;&gt;Node10</title>
<path fill="none" stroke="midnightblue" d="M428.435,-233.596C431.321,-232.997 434.202,-232.454 437,-232 643.801,-198.475 698.205,-213.183 907,-196 931.571,-193.978 958.845,-191.594 981.632,-189.563"/>
<polygon fill="midnightblue" stroke="midnightblue" points="982.111,-193.035 991.759,-188.658 981.487,-186.062 982.111,-193.035"/>
</g>
<!-- Node11 -->
<g id="node21" class="node"><title>Node11</title>
<polygon fill="white" stroke="#bfbfbf" points="855,-0.5 855,-21.5 911,-21.5 911,-0.5 855,-0.5"/>
<text text-anchor="middle" x="883" y="-8.5" font-family="Helvetica,sans-Serif" font-size="10.00">algorithm</text>
</g>
<!-- Node10&#45;&gt;Node11 -->
<g id="edge20" class="edge"><title>Node10&#45;&gt;Node11</title>
<path fill="none" stroke="midnightblue" d="M1022.9,-174.377C998.336,-145.688 930.396,-66.3484 899.129,-29.8354"/>
<polygon fill="midnightblue" stroke="midnightblue" points="901.52,-27.2469 892.358,-21.9277 896.204,-31.7999 901.52,-27.2469"/>
</g>
<!-- Node12 -->
<g id="node23" class="node"><title>Node12</title>
<polygon fill="white" stroke="#bfbfbf" points="1029.5,-58.5 1029.5,-79.5 1088.5,-79.5 1088.5,-58.5 1029.5,-58.5"/>
<text text-anchor="middle" x="1059" y="-66.5" font-family="Helvetica,sans-Serif" font-size="10.00">stdexcept</text>
</g>
<!-- Node10&#45;&gt;Node12 -->
<g id="edge22" class="edge"><title>Node10&#45;&gt;Node12</title>
<path fill="none" stroke="midnightblue" d="M1034.49,-174.295C1038.97,-155.045 1048.46,-114.289 1054.23,-89.5091"/>
<polygon fill="midnightblue" stroke="midnightblue" points="1057.66,-90.2123 1056.51,-79.6792 1050.84,-88.6254 1057.66,-90.2123"/>
</g>
<!-- Node13 -->
<g id="node25" class="node"><title>Node13</title>
<a xlink:href="printable_8h.html" target="_top" xlink:title="printable.h">
<polygon fill="white" stroke="black" points="1106,-58.5 1106,-79.5 1168,-79.5 1168,-58.5 1106,-58.5"/>
<text text-anchor="middle" x="1137" y="-66.5" font-family="Helvetica,sans-Serif" font-size="10.00">printable.h</text>
</a>
</g>
<!-- Node10&#45;&gt;Node13 -->
<g id="edge24" class="edge"><title>Node10&#45;&gt;Node13</title>
<path fill="none" stroke="midnightblue" d="M1041.69,-174.295C1059.66,-154.441 1098.34,-111.709 1120.5,-87.2239"/>
<polygon fill="midnightblue" stroke="midnightblue" points="1123.22,-89.4419 1127.33,-79.6792 1118.03,-84.7443 1123.22,-89.4419"/>
</g>
<!-- Node15 -->
<g id="node30" class="node"><title>Node15</title>
<a xlink:href="types_8h.html" target="_top" xlink:title="types.h">
<polygon fill="white" stroke="black" points="1379.5,-116.5 1379.5,-137.5 1428.5,-137.5 1428.5,-116.5 1379.5,-116.5"/>
<text text-anchor="middle" x="1404" y="-124.5" font-family="Helvetica,sans-Serif" font-size="10.00">types.h</text>
</a>
</g>
<!-- Node10&#45;&gt;Node15 -->
<g id="edge30" class="edge"><title>Node10&#45;&gt;Node15</title>
<path fill="none" stroke="midnightblue" d="M1072.16,-178.738C1145.61,-167.287 1300.36,-143.16 1369.43,-132.39"/>
<polygon fill="midnightblue" stroke="midnightblue" points="1370.03,-135.839 1379.37,-130.84 1368.95,-128.923 1370.03,-135.839"/>
</g>
<!-- Node16 -->
<g id="node32" class="node"><title>Node16</title>
<polygon fill="white" stroke="#bfbfbf" points="3354,-116.5 3354,-137.5 3394,-137.5 3394,-116.5 3354,-116.5"/>
<text text-anchor="middle" x="3374" y="-124.5" font-family="Helvetica,sans-Serif" font-size="10.00">limits</text>
</g>
<!-- Node10&#45;&gt;Node16 -->
<g id="edge32" class="edge"><title>Node10&#45;&gt;Node16</title>
<path fill="none" stroke="midnightblue" d="M1072.03,-182.423C1112.58,-179.903 1177.12,-176.142 1233,-174 2094.91,-140.964 3152.96,-129.205 3343.79,-127.291"/>
<polygon fill="midnightblue" stroke="midnightblue" points="3343.95,-130.789 3353.92,-127.19 3343.88,-123.79 3343.95,-130.789"/>
</g>
<!-- Node13&#45;&gt;Node8 -->
<g id="edge26" class="edge"><title>Node13&#45;&gt;Node8</title>
<path fill="none" stroke="midnightblue" d="M1168.32,-60.5591C1172.89,-59.5592 1177.54,-58.661 1182,-58 1345.59,-33.7281 1870.23,-16.1782 2005.79,-11.9706"/>
<polygon fill="midnightblue" stroke="midnightblue" points="2006.04,-15.4645 2015.93,-11.6583 2005.83,-8.46785 2006.04,-15.4645"/>
</g>
<!-- Node14 -->
<g id="node28" class="node"><title>Node14</title>
<polygon fill="white" stroke="#bfbfbf" points="976,-0.5 976,-21.5 1028,-21.5 1028,-0.5 976,-0.5"/>
<text text-anchor="middle" x="1002" y="-8.5" font-family="Helvetica,sans-Serif" font-size="10.00">ostream</text>
</g>
<!-- Node13&#45;&gt;Node14 -->
<g id="edge28" class="edge"><title>Node13&#45;&gt;Node14</title>
<path fill="none" stroke="midnightblue" d="M1112.55,-58.4966C1091.18,-49.3154 1059.93,-35.8889 1036.1,-25.6516"/>
<polygon fill="midnightblue" stroke="midnightblue" points="1037.29,-22.3529 1026.72,-21.6212 1034.53,-28.7845 1037.29,-22.3529"/>
</g>
<!-- Node17&#45;&gt;Node6 -->
<g id="edge36" class="edge"><title>Node17&#45;&gt;Node6</title>
<path fill="none" stroke="midnightblue" d="M639.426,-292.916C634.915,-291.908 630.351,-290.913 626,-290 545.416,-273.098 522.215,-272.406 438.034,-254.138"/>
<polygon fill="midnightblue" stroke="midnightblue" points="438.539,-250.666 428.022,-251.946 437.042,-257.504 438.539,-250.666"/>
</g>
<!-- Node17&#45;&gt;Node9 -->
<g id="edge68" class="edge"><title>Node17&#45;&gt;Node9</title>
<path fill="none" stroke="midnightblue" d="M639.357,-295.941C625.027,-293.941 608.231,-291.715 593,-290 468.267,-275.953 38,-310.521 38,-185 38,-185 38,-185 38,-127 38,-78.342 80.0456,-80.8587 123,-58 163.018,-36.704 214.133,-23.5284 246.228,-16.7309"/>
<polygon fill="midnightblue" stroke="midnightblue" points="247.241,-20.0964 256.339,-14.6676 245.841,-13.2377 247.241,-20.0964"/>
</g>
<!-- Node18 -->
<g id="node37" class="node"><title>Node18</title>
<a xlink:href="root__draw_8h.html" target="_top" xlink:title="root_draw.h">
<polygon fill="white" stroke="black" points="1186,-232.5 1186,-253.5 1254,-253.5 1254,-232.5 1186,-232.5"/>
<text text-anchor="middle" x="1220" y="-240.5" font-family="Helvetica,sans-Serif" font-size="10.00">root_draw.h</text>
</a>
</g>
<!-- Node17&#45;&gt;Node18 -->
<g id="edge38" class="edge"><title>Node17&#45;&gt;Node18</title>
<path fill="none" stroke="midnightblue" d="M708.752,-297.898C786.129,-290.9 978.449,-273.01 1139,-254 1150.88,-252.593 1163.72,-250.92 1175.6,-249.309"/>
<polygon fill="midnightblue" stroke="midnightblue" points="1176.31,-252.744 1185.74,-247.916 1175.36,-245.809 1176.31,-252.744"/>
</g>
<!-- Node17&#45;&gt;Node21 -->
<g id="edge66" class="edge"><title>Node17&#45;&gt;Node21</title>
<path fill="none" stroke="midnightblue" d="M708.541,-300.305C874.156,-296.861 1588,-280.709 1809,-254 1858.06,-248.07 1869.32,-240.527 1918,-232 2019.02,-214.306 2138.96,-197.653 2197.79,-189.768"/>
<polygon fill="midnightblue" stroke="midnightblue" points="2198.26,-193.236 2207.71,-188.444 2197.33,-186.298 2198.26,-193.236"/>
</g>
<!-- Node24 -->
<g id="node51" class="node"><title>Node24</title>
<a xlink:href="memory_8h.html" target="_top" xlink:title="base/std_ext/memory.h">
<polygon fill="white" stroke="black" points="2273.5,-232.5 2273.5,-253.5 2392.5,-253.5 2392.5,-232.5 2273.5,-232.5"/>
<text text-anchor="middle" x="2333" y="-240.5" font-family="Helvetica,sans-Serif" font-size="10.00">base/std_ext/memory.h</text>
</a>
</g>
<!-- Node17&#45;&gt;Node24 -->
<g id="edge54" class="edge"><title>Node17&#45;&gt;Node24</title>
<path fill="none" stroke="midnightblue" d="M708.651,-299.789C914.679,-292.586 1979.18,-255.37 2263.25,-245.438"/>
<polygon fill="midnightblue" stroke="midnightblue" points="2263.55,-248.93 2273.42,-245.083 2263.31,-241.934 2263.55,-248.93"/>
</g>
<!-- Node25 -->
<g id="node55" class="node"><title>Node25</title>
<polygon fill="white" stroke="#bfbfbf" points="445.5,-232.5 445.5,-253.5 496.5,-253.5 496.5,-232.5 445.5,-232.5"/>
<text text-anchor="middle" x="471" y="-240.5" font-family="Helvetica,sans-Serif" font-size="10.00">TH1D.h</text>
</g>
<!-- Node17&#45;&gt;Node25 -->
<g id="edge60" class="edge"><title>Node17&#45;&gt;Node25</title>
<path fill="none" stroke="midnightblue" d="M639.246,-291.789C607.001,-283.142 557.459,-269.603 506.176,-254.284"/>
<polygon fill="midnightblue" stroke="midnightblue" points="507.168,-250.927 496.584,-251.403 505.155,-257.631 507.168,-250.927"/>
</g>
<!-- Node26 -->
<g id="node57" class="node"><title>Node26</title>
<polygon fill="white" stroke="#bfbfbf" points="513.5,-232.5 513.5,-253.5 564.5,-253.5 564.5,-232.5 513.5,-232.5"/>
<text text-anchor="middle" x="539" y="-240.5" font-family="Helvetica,sans-Serif" font-size="10.00">TH2D.h</text>
</g>
<!-- Node17&#45;&gt;Node26 -->
<g id="edge62" class="edge"><title>Node17&#45;&gt;Node26</title>
<path fill="none" stroke="midnightblue" d="M649.553,-290.497C628.182,-281.315 596.931,-267.889 573.103,-257.652"/>
<polygon fill="midnightblue" stroke="midnightblue" points="574.291,-254.353 563.722,-253.621 571.528,-260.784 574.291,-254.353"/>
</g>
<!-- Node27 -->
<g id="node59" class="node"><title>Node27</title>
<polygon fill="white" stroke="#bfbfbf" points="581.5,-232.5 581.5,-253.5 632.5,-253.5 632.5,-232.5 581.5,-232.5"/>
<text text-anchor="middle" x="607" y="-240.5" font-family="Helvetica,sans-Serif" font-size="10.00">TH3D.h</text>
</g>
<!-- Node17&#45;&gt;Node27 -->
<g id="edge64" class="edge"><title>Node17&#45;&gt;Node27</title>
<path fill="none" stroke="midnightblue" d="M661.711,-290.362C651.983,-281.941 638.202,-270.011 626.905,-260.231"/>
<polygon fill="midnightblue" stroke="midnightblue" points="629.062,-257.469 619.211,-253.571 624.481,-262.762 629.062,-257.469"/>
</g>
<!-- Node28 -->
<g id="node63" class="node"><title>Node28</title>
<polygon fill="white" stroke="#bfbfbf" points="802,-232.5 802,-253.5 856,-253.5 856,-232.5 802,-232.5"/>
<text text-anchor="middle" x="829" y="-240.5" font-family="Helvetica,sans-Serif" font-size="10.00">iostream</text>
</g>
<!-- Node17&#45;&gt;Node28 -->
<g id="edge70" class="edge"><title>Node17&#45;&gt;Node28</title>
<path fill="none" stroke="midnightblue" d="M702.069,-290.497C727.321,-281.048 764.589,-267.102 792.217,-256.764"/>
<polygon fill="midnightblue" stroke="midnightblue" points="793.78,-259.916 801.919,-253.134 791.326,-253.36 793.78,-259.916"/>
</g>
<!-- Node29 -->
<g id="node65" class="node"><title>Node29</title>
<polygon fill="white" stroke="#bfbfbf" points="649.5,-232.5 649.5,-253.5 708.5,-253.5 708.5,-232.5 649.5,-232.5"/>
<text text-anchor="middle" x="679" y="-240.5" font-family="Helvetica,sans-Serif" font-size="10.00">exception</text>
</g>
<!-- Node17&#45;&gt;Node29 -->
<g id="edge72" class="edge"><title>Node17&#45;&gt;Node29</title>
<path fill="none" stroke="midnightblue" d="M674.917,-290.362C675.558,-282.922 676.436,-272.743 677.213,-263.728"/>
<polygon fill="midnightblue" stroke="midnightblue" points="680.717,-263.834 678.089,-253.571 673.743,-263.233 680.717,-263.834"/>
</g>
<!-- Node18&#45;&gt;Node8 -->
<g id="edge44" class="edge"><title>Node18&#45;&gt;Node8</title>
<path fill="none" stroke="midnightblue" d="M1246.72,-232.487C1265.41,-224.316 1290.27,-211.735 1309,-196 1343.44,-167.066 1332.39,-139.081 1371,-116 1480.65,-50.4556 1887.04,-20.4099 2005.44,-12.9257"/>
<polygon fill="midnightblue" stroke="midnightblue" points="2005.9,-16.4037 2015.66,-12.2903 2005.47,-9.41714 2005.9,-16.4037"/>
</g>
<!-- Node18&#45;&gt;Node9 -->
<g id="edge40" class="edge"><title>Node18&#45;&gt;Node9</title>
<path fill="none" stroke="midnightblue" d="M1185.79,-237.685C1171.37,-235.62 1154.4,-233.416 1139,-232 974.168,-216.849 551.171,-250.862 395,-196 384.641,-192.361 321.353,-146.954 315,-138 291.81,-105.318 282.586,-58.3396 279.058,-31.6332"/>
<polygon fill="midnightblue" stroke="midnightblue" points="282.514,-31.0526 277.871,-21.5295 275.562,-31.8697 282.514,-31.0526"/>
</g>
<!-- Node18&#45;&gt;Node19 -->
<g id="edge42" class="edge"><title>Node18&#45;&gt;Node19</title>
<path fill="none" stroke="midnightblue" d="M1254.14,-233.63C1257.12,-233.006 1260.11,-232.448 1263,-232 1541.03,-188.935 1615.2,-225.424 1895,-196 1958.95,-189.275 1974.23,-182.283 2038,-174 2197.11,-153.332 2389.26,-135.297 2456.41,-129.2"/>
<polygon fill="midnightblue" stroke="midnightblue" points="2456.79,-132.68 2466.44,-128.294 2456.16,-125.708 2456.79,-132.68"/>
</g>
<!-- Node18&#45;&gt;Node20 -->
<g id="edge46" class="edge"><title>Node18&#45;&gt;Node20</title>
<path fill="none" stroke="midnightblue" d="M1254.13,-233.56C1257.12,-232.951 1260.1,-232.416 1263,-232 1297.07,-227.11 2400.58,-191.903 2590.35,-185.877"/>
<polygon fill="midnightblue" stroke="midnightblue" points="2590.47,-189.375 2600.36,-185.559 2590.25,-182.378 2590.47,-189.375"/>
</g>
<!-- Node18&#45;&gt;Node21 -->
<g id="edge48" class="edge"><title>Node18&#45;&gt;Node21</title>
<path fill="none" stroke="midnightblue" d="M1254.14,-233.603C1257.12,-232.985 1260.1,-232.436 1263,-232 1265.95,-231.556 2022.14,-195.185 2197.83,-186.738"/>
<polygon fill="midnightblue" stroke="midnightblue" points="2198.04,-190.232 2207.86,-186.256 2197.71,-183.241 2198.04,-190.232"/>
</g>
<!-- Node18&#45;&gt;Node22 -->
<g id="edge50" class="edge"><title>Node18&#45;&gt;Node22</title>
<path fill="none" stroke="midnightblue" d="M1229.35,-232.362C1236.54,-224.186 1246.64,-212.702 1255.09,-203.091"/>
<polygon fill="midnightblue" stroke="midnightblue" points="1257.73,-205.392 1261.71,-195.571 1252.47,-200.769 1257.73,-205.392"/>
</g>
<!-- Node23 -->
<g id="node49" class="node"><title>Node23</title>
<polygon fill="white" stroke="#bfbfbf" points="324,-116.5 324,-137.5 380,-137.5 380,-116.5 324,-116.5"/>
<text text-anchor="middle" x="352" y="-124.5" font-family="Helvetica,sans-Serif" font-size="10.00">Rtypes.h</text>
</g>
<!-- Node18&#45;&gt;Node23 -->
<g id="edge52" class="edge"><title>Node18&#45;&gt;Node23</title>
<path fill="none" stroke="midnightblue" d="M1185.78,-237.705C1171.37,-235.643 1154.4,-233.436 1139,-232 982.586,-217.417 578.988,-254.015 433,-196 406.247,-185.369 382.05,-162.112 367.21,-145.541"/>
<polygon fill="midnightblue" stroke="midnightblue" points="369.525,-142.866 360.339,-137.587 364.228,-147.442 369.525,-142.866"/>
</g>
<!-- Node24&#45;&gt;Node19 -->
<g id="edge58" class="edge"><title>Node24&#45;&gt;Node19</title>
<path fill="none" stroke="midnightblue" d="M2342.82,-232.499C2356.32,-218.352 2381.73,-192.782 2406,-174 2422.4,-161.307 2442.36,-148.932 2457.56,-140.069"/>
<polygon fill="midnightblue" stroke="midnightblue" points="2459.41,-143.046 2466.34,-135.033 2455.93,-136.974 2459.41,-143.046"/>
</g>
<!-- Node24&#45;&gt;Node21 -->
<g id="edge56" class="edge"><title>Node24&#45;&gt;Node21</title>
<path fill="none" stroke="midnightblue" d="M2314.84,-232.362C2299.77,-223.532 2278.11,-210.844 2261.01,-200.822"/>
<polygon fill="midnightblue" stroke="midnightblue" points="2262.44,-197.606 2252.04,-195.571 2258.9,-203.646 2262.44,-197.606"/>
</g>
<!-- Node30&#45;&gt;Node8 -->
<g id="edge134" class="edge"><title>Node30&#45;&gt;Node8</title>
<path fill="none" stroke="midnightblue" d="M1376.82,-296.255C1466.01,-288.691 1629.32,-272.817 1685,-254 1703.49,-247.752 1704.62,-238.546 1723,-232 1817.99,-198.176 1857.83,-243.067 1947,-196 2001.73,-167.116 2006.82,-139.447 2024,-80 2028.61,-64.0631 2032.26,-45.6309 2034.68,-31.8285"/>
<polygon fill="midnightblue" stroke="midnightblue" points="2038.15,-32.3296 2036.35,-21.8879 2031.24,-31.17 2038.15,-32.3296"/>
</g>
<!-- Node30&#45;&gt;Node13 -->
<g id="edge76" class="edge"><title>Node30&#45;&gt;Node13</title>
<path fill="none" stroke="midnightblue" d="M1257.23,-294.606C1196.26,-287.393 1099.22,-273.996 1017,-254 977.396,-244.368 866.832,-229.065 843,-196 837.283,-188.068 837.368,-181.993 843,-174 858.127,-152.535 1018.84,-103.395 1096.04,-80.7825"/>
<polygon fill="midnightblue" stroke="midnightblue" points="1097.3,-84.0627 1105.92,-77.9021 1095.34,-77.3428 1097.3,-84.0627"/>
</g>
<!-- Node30&#45;&gt;Node15 -->
<g id="edge78" class="edge"><title>Node30&#45;&gt;Node15</title>
<path fill="none" stroke="midnightblue" d="M1324.37,-290.443C1330.74,-281.09 1340.01,-266.948 1347,-254 1366.78,-217.365 1385.75,-172.527 1396.04,-147.115"/>
<polygon fill="midnightblue" stroke="midnightblue" points="1399.31,-148.374 1399.78,-137.79 1392.81,-145.768 1399.31,-148.374"/>
</g>
<!-- Node30&#45;&gt;Node19 -->
<g id="edge136" class="edge"><title>Node30&#45;&gt;Node19</title>
<path fill="none" stroke="midnightblue" d="M1376.71,-297.448C1469.56,-291.44 1653.97,-277.571 1809,-254 1856.14,-246.833 1867.18,-241.033 1914,-232 2004.4,-214.558 2028.15,-216.086 2118,-196 2154.41,-187.861 2162.56,-181.965 2199,-174 2293.22,-153.408 2406.87,-136.999 2456.18,-130.286"/>
<polygon fill="midnightblue" stroke="midnightblue" points="2456.78,-133.736 2466.22,-128.931 2455.84,-126.799 2456.78,-133.736"/>
</g>
<!-- Node30&#45;&gt;Node28 -->
<g id="edge138" class="edge"><title>Node30&#45;&gt;Node28</title>
<path fill="none" stroke="midnightblue" d="M1257.16,-293.888C1155.14,-281.762 950.42,-257.431 866.347,-247.439"/>
<polygon fill="midnightblue" stroke="midnightblue" points="866.582,-243.942 856.239,-246.237 865.756,-250.893 866.582,-243.942"/>
</g>
<!-- Node31 -->
<g id="node71" class="node"><title>Node31</title>
<a xlink:href="_particle_type_8h.html" target="_top" xlink:title="base/ParticleType.h">
<polygon fill="white" stroke="black" points="1026,-232.5 1026,-253.5 1130,-253.5 1130,-232.5 1026,-232.5"/>
<text text-anchor="middle" x="1078" y="-240.5" font-family="Helvetica,sans-Serif" font-size="10.00">base/ParticleType.h</text>
</a>
</g>
<!-- Node30&#45;&gt;Node31 -->
<g id="edge80" class="edge"><title>Node30&#45;&gt;Node31</title>
<path fill="none" stroke="midnightblue" d="M1273.72,-290.497C1233.74,-280.795 1174.24,-266.355 1131.34,-255.945"/>
<polygon fill="midnightblue" stroke="midnightblue" points="1131.91,-252.48 1121.36,-253.523 1130.25,-259.283 1131.91,-252.48"/>
</g>
<!-- Node33 -->
<g id="node80" class="node"><title>Node33</title>
<a xlink:href="_candidate_8h.html" target="_top" xlink:title="analysis/data/Candidate.h">
<polygon fill="white" stroke="black" points="1546,-232.5 1546,-253.5 1676,-253.5 1676,-232.5 1546,-232.5"/>
<text text-anchor="middle" x="1611" y="-240.5" font-family="Helvetica,sans-Serif" font-size="10.00">analysis/data/Candidate.h</text>
</a>
</g>
<!-- Node30&#45;&gt;Node33 -->
<g id="edge94" class="edge"><title>Node30&#45;&gt;Node33</title>
<path fill="none" stroke="midnightblue" d="M1370.24,-290.497C1420.14,-280.652 1494.78,-265.927 1547.71,-255.486"/>
<polygon fill="midnightblue" stroke="midnightblue" points="1548.53,-258.892 1557.66,-253.523 1547.17,-252.025 1548.53,-258.892"/>
</g>
<!-- Node40 -->
<g id="node106" class="node"><title>Node40</title>
<polygon fill="white" stroke="#bfbfbf" points="1470,-174.5 1470,-195.5 1562,-195.5 1562,-174.5 1470,-174.5"/>
<text text-anchor="middle" x="1516" y="-182.5" font-family="Helvetica,sans-Serif" font-size="10.00">TLorentzVector.h</text>
</g>
<!-- Node30&#45;&gt;Node40 -->
<g id="edge132" class="edge"><title>Node30&#45;&gt;Node40</title>
<path fill="none" stroke="midnightblue" d="M1335.36,-290.295C1370.7,-269.698 1448.27,-224.48 1489.32,-200.555"/>
<polygon fill="midnightblue" stroke="midnightblue" points="1491.09,-203.572 1497.97,-195.512 1487.57,-197.524 1491.09,-203.572"/>
</g>
<!-- Node31&#45;&gt;Node8 -->
<g id="edge92" class="edge"><title>Node31&#45;&gt;Node8</title>
<path fill="none" stroke="midnightblue" d="M1094.73,-232.243C1121.08,-215.373 1171.19,-183.626 1190,-174 1309.54,-112.812 1338.5,-89.6891 1469,-58 1572.15,-32.9527 1900.95,-16.9192 2005.65,-12.3482"/>
<polygon fill="midnightblue" stroke="midnightblue" points="2006.07,-15.8337 2015.91,-11.9061 2005.76,-8.84024 2006.07,-15.8337"/>
</g>
<!-- Node31&#45;&gt;Node9 -->
<g id="edge84" class="edge"><title>Node31&#45;&gt;Node9</title>
<path fill="none" stroke="midnightblue" d="M1025.98,-240.378C866.479,-232.232 393.142,-207.242 362,-196 341.346,-188.544 292.362,-157.36 282,-138 263.961,-104.295 268.048,-58.0441 272.575,-31.6653"/>
<polygon fill="midnightblue" stroke="midnightblue" points="276.046,-32.1496 274.479,-21.6713 269.169,-30.8396 276.046,-32.1496"/>
</g>
<!-- Node31&#45;&gt;Node14 -->
<g id="edge86" class="edge"><title>Node31&#45;&gt;Node14</title>
<path fill="none" stroke="midnightblue" d="M1025.77,-236.09C960.119,-226.871 854.54,-210.077 843,-196 790.498,-131.958 910.966,-57.8157 970.797,-26.3665"/>
<polygon fill="midnightblue" stroke="midnightblue" points="972.565,-29.3928 979.843,-21.6938 969.352,-23.1735 972.565,-29.3928"/>
</g>
<!-- Node31&#45;&gt;Node15 -->
<g id="edge82" class="edge"><title>Node31&#45;&gt;Node15</title>
<path fill="none" stroke="midnightblue" d="M1104.95,-232.357C1127.79,-223.177 1161.32,-209.333 1190,-196 1209.47,-186.951 1212.99,-181.774 1233,-174 1278.9,-156.165 1334.2,-142.269 1369.24,-134.352"/>
<polygon fill="midnightblue" stroke="midnightblue" points="1370.42,-137.674 1379.42,-132.089 1368.9,-130.84 1370.42,-137.674"/>
</g>
<!-- Node31&#45;&gt;Node20 -->
<g id="edge88" class="edge"><title>Node31&#45;&gt;Node20</title>
<path fill="none" stroke="midnightblue" d="M1130.08,-236.442C1145.19,-234.748 1161.73,-233.095 1177,-232 1213.6,-229.374 2392.93,-192.101 2590.16,-185.878"/>
<polygon fill="midnightblue" stroke="midnightblue" points="2590.39,-189.373 2600.27,-185.559 2590.17,-182.376 2590.39,-189.373"/>
</g>
<!-- Node32 -->
<g id="node77" class="node"><title>Node32</title>
<polygon fill="white" stroke="#bfbfbf" points="851.5,-174.5 851.5,-195.5 898.5,-195.5 898.5,-174.5 851.5,-174.5"/>
<text text-anchor="middle" x="875" y="-182.5" font-family="Helvetica,sans-Serif" font-size="10.00">iterator</text>
</g>
<!-- Node31&#45;&gt;Node32 -->
<g id="edge90" class="edge"><title>Node31&#45;&gt;Node32</title>
<path fill="none" stroke="midnightblue" d="M1040.38,-232.5C1006.71,-223.066 956.011,-208.772 912,-196 910.938,-195.692 909.859,-195.378 908.77,-195.06"/>
<polygon fill="midnightblue" stroke="midnightblue" points="909.452,-191.612 898.871,-192.147 907.476,-198.327 909.452,-191.612"/>
</g>
<!-- Node33&#45;&gt;Node8 -->
<g id="edge130" class="edge"><title>Node33&#45;&gt;Node8</title>
<path fill="none" stroke="midnightblue" d="M1676.29,-233.449C1764.54,-220.472 1911.58,-198.581 1917,-196 1984.75,-163.744 2019.6,-72.8397 2032.28,-31.6925"/>
<polygon fill="midnightblue" stroke="midnightblue" points="2035.68,-32.5125 2035.15,-21.9309 2028.97,-30.534 2035.68,-32.5125"/>
</g>
<!-- Node33&#45;&gt;Node13 -->
<g id="edge96" class="edge"><title>Node33&#45;&gt;Node13</title>
<path fill="none" stroke="midnightblue" d="M1620.68,-232.361C1628.13,-223.4 1637.84,-209.856 1642,-196 1652.22,-161.945 1665.95,-142.281 1642,-116 1610.98,-81.9583 1293.37,-72.1665 1178.32,-69.7246"/>
<polygon fill="midnightblue" stroke="midnightblue" points="1178.22,-66.2219 1168.15,-69.5168 1178.08,-73.2205 1178.22,-66.2219"/>
</g>
<!-- Node33&#45;&gt;Node14 -->
<g id="edge126" class="edge"><title>Node33&#45;&gt;Node14</title>
<path fill="none" stroke="midnightblue" d="M1545.85,-240.488C1389.02,-234.126 1001.95,-216.424 983,-196 940.643,-150.354 972.893,-68.4817 991.375,-30.8762"/>
<polygon fill="midnightblue" stroke="midnightblue" points="994.726,-32.0091 996.15,-21.5103 988.49,-28.8299 994.726,-32.0091"/>
</g>
<!-- Node33&#45;&gt;Node15 -->
<g id="edge98" class="edge"><title>Node33&#45;&gt;Node15</title>
<path fill="none" stroke="midnightblue" d="M1607.72,-232.407C1602.47,-217.184 1590.69,-189.279 1571,-174 1550.39,-158.009 1481.21,-142.14 1438.63,-133.549"/>
<polygon fill="midnightblue" stroke="midnightblue" points="1439.17,-130.088 1428.68,-131.576 1437.81,-136.954 1439.17,-130.088"/>
</g>
<!-- Node33&#45;&gt;Node21 -->
<g id="edge128" class="edge"><title>Node33&#45;&gt;Node21</title>
<path fill="none" stroke="midnightblue" d="M1676.14,-236.534C1691.51,-235.027 1707.83,-233.443 1723,-232 1901.18,-215.056 2114.42,-195.76 2197.94,-188.239"/>
<polygon fill="midnightblue" stroke="midnightblue" points="2198.29,-191.722 2207.94,-187.34 2197.66,-184.75 2198.29,-191.722"/>
</g>
<!-- Node34 -->
<g id="node84" class="node"><title>Node34</title>
<a xlink:href="_detector__t_8h.html" target="_top" xlink:title="base/Detector_t.h">
<polygon fill="white" stroke="black" points="1877.5,-116.5 1877.5,-137.5 1972.5,-137.5 1972.5,-116.5 1877.5,-116.5"/>
<text text-anchor="middle" x="1925" y="-124.5" font-family="Helvetica,sans-Serif" font-size="10.00">base/Detector_t.h</text>
</a>
</g>
<!-- Node33&#45;&gt;Node34 -->
<g id="edge100" class="edge"><title>Node33&#45;&gt;Node34</title>
<path fill="none" stroke="midnightblue" d="M1676.06,-233.831C1757.2,-222.162 1886.39,-202.713 1895,-196 1910.15,-184.187 1917.79,-163.175 1921.56,-147.433"/>
<polygon fill="midnightblue" stroke="midnightblue" points="1925,-148.053 1923.58,-137.553 1918.14,-146.644 1925,-148.053"/>
</g>
<!-- Node38 -->
<g id="node96" class="node"><title>Node38</title>
<a xlink:href="_cluster_8h.html" target="_top" xlink:title="analysis/data/Cluster.h">
<polygon fill="white" stroke="black" points="1769.5,-174.5 1769.5,-195.5 1886.5,-195.5 1886.5,-174.5 1769.5,-174.5"/>
<text text-anchor="middle" x="1828" y="-182.5" font-family="Helvetica,sans-Serif" font-size="10.00">analysis/data/Cluster.h</text>
</a>
</g>
<!-- Node33&#45;&gt;Node38 -->
<g id="edge116" class="edge"><title>Node33&#45;&gt;Node38</title>
<path fill="none" stroke="midnightblue" d="M1650.3,-232.497C1686.29,-222.877 1739.71,-208.598 1778.58,-198.209"/>
<polygon fill="midnightblue" stroke="midnightblue" points="1779.87,-201.487 1788.63,-195.523 1778.06,-194.724 1779.87,-201.487"/>
</g>
<!-- Node34&#45;&gt;Node8 -->
<g id="edge114" class="edge"><title>Node34&#45;&gt;Node8</title>
<path fill="none" stroke="midnightblue" d="M1933.74,-116.385C1945.29,-102.548 1966.44,-77.7805 1986,-58 1996.03,-47.8611 2007.77,-37.1559 2017.56,-28.5274"/>
<polygon fill="midnightblue" stroke="midnightblue" points="2020.01,-31.0378 2025.24,-21.826 2015.4,-25.7633 2020.01,-31.0378"/>
</g>
<!-- Node34&#45;&gt;Node9 -->
<g id="edge110" class="edge"><title>Node34&#45;&gt;Node9</title>
<path fill="none" stroke="midnightblue" d="M1877.25,-120.631C1862.45,-118.868 1846.07,-117.129 1831,-116 1589.77,-97.9259 977.21,-140.55 743,-80 722.216,-74.6267 720.56,-64.1752 700,-58 626.273,-35.8559 392.332,-18.6225 307.827,-12.9761"/>
<polygon fill="midnightblue" stroke="midnightblue" points="307.811,-9.46749 297.602,-12.3009 307.35,-16.4523 307.811,-9.46749"/>
</g>
<!-- Node34&#45;&gt;Node12 -->
<g id="edge108" class="edge"><title>Node34&#45;&gt;Node12</title>
<path fill="none" stroke="midnightblue" d="M1877.24,-120.779C1862.44,-119.021 1846.06,-117.249 1831,-116 1508.84,-89.2806 1420.95,-132.862 1098.81,-79.9869"/>
<polygon fill="midnightblue" stroke="midnightblue" points="1099.16,-76.4972 1088.72,-78.3123 1098.01,-83.4027 1099.16,-76.4972"/>
</g>
<!-- Node34&#45;&gt;Node13 -->
<g id="edge102" class="edge"><title>Node34&#45;&gt;Node13</title>
<path fill="none" stroke="midnightblue" d="M1877.23,-120.952C1862.43,-119.201 1846.05,-117.39 1831,-116 1583.7,-93.1703 1285.86,-76.6893 1178.28,-71.0896"/>
<polygon fill="midnightblue" stroke="midnightblue" points="1178.34,-67.5882 1168.17,-70.5666 1177.98,-74.5789 1178.34,-67.5882"/>
</g>
<!-- Node35 -->
<g id="node87" class="node"><title>Node35</title>
<polygon fill="white" stroke="#bfbfbf" points="1725.5,-58.5 1725.5,-79.5 1790.5,-79.5 1790.5,-58.5 1725.5,-58.5"/>
<text text-anchor="middle" x="1758" y="-66.5" font-family="Helvetica,sans-Serif" font-size="10.00">TVector3.h</text>
</g>
<!-- Node34&#45;&gt;Node35 -->
<g id="edge104" class="edge"><title>Node34&#45;&gt;Node35</title>
<path fill="none" stroke="midnightblue" d="M1894.76,-116.497C1867.65,-107.082 1827.69,-93.2036 1797.96,-82.8773"/>
<polygon fill="midnightblue" stroke="midnightblue" points="1798.89,-79.4977 1788.3,-79.5231 1796.6,-86.1102 1798.89,-79.4977"/>
</g>
<!-- Node36 -->
<g id="node89" class="node"><title>Node36</title>
<polygon fill="white" stroke="#bfbfbf" points="1888,-58.5 1888,-79.5 1934,-79.5 1934,-58.5 1888,-58.5"/>
<text text-anchor="middle" x="1911" y="-66.5" font-family="Helvetica,sans-Serif" font-size="10.00">cstdint</text>
</g>
<!-- Node34&#45;&gt;Node36 -->
<g id="edge106" class="edge"><title>Node34&#45;&gt;Node36</title>
<path fill="none" stroke="midnightblue" d="M1922.43,-116.362C1920.62,-108.84 1918.13,-98.5187 1915.93,-89.4308"/>
<polygon fill="midnightblue" stroke="midnightblue" points="1919.3,-88.4702 1913.55,-79.5707 1912.5,-90.1127 1919.3,-88.4702"/>
</g>
<!-- Node37 -->
<g id="node93" class="node"><title>Node37</title>
<polygon fill="white" stroke="#bfbfbf" points="1808,-58.5 1808,-79.5 1870,-79.5 1870,-58.5 1808,-58.5"/>
<text text-anchor="middle" x="1839" y="-66.5" font-family="Helvetica,sans-Serif" font-size="10.00">type_traits</text>
</g>
<!-- Node34&#45;&gt;Node37 -->
<g id="edge112" class="edge"><title>Node34&#45;&gt;Node37</title>
<path fill="none" stroke="midnightblue" d="M1909.23,-116.362C1896.38,-107.696 1878.02,-95.3126 1863.29,-85.3819"/>
<polygon fill="midnightblue" stroke="midnightblue" points="1864.92,-82.2604 1854.67,-79.5707 1861.01,-88.0639 1864.92,-82.2604"/>
</g>
<!-- Node38&#45;&gt;Node19 -->
<g id="edge120" class="edge"><title>Node38&#45;&gt;Node19</title>
<path fill="none" stroke="midnightblue" d="M1886.52,-179.802C2023.84,-167.606 2362.19,-137.553 2456.34,-129.191"/>
<polygon fill="midnightblue" stroke="midnightblue" points="2456.69,-132.673 2466.34,-128.302 2456.07,-125.7 2456.69,-132.673"/>
</g>
<!-- Node38&#45;&gt;Node34 -->
<g id="edge118" class="edge"><title>Node38&#45;&gt;Node34</title>
<path fill="none" stroke="midnightblue" d="M1845.79,-174.362C1860.56,-165.532 1881.78,-152.844 1898.54,-142.822"/>
<polygon fill="midnightblue" stroke="midnightblue" points="1900.53,-145.707 1907.32,-137.571 1896.94,-139.699 1900.53,-145.707"/>
</g>
<!-- Node38&#45;&gt;Node35 -->
<g id="edge122" class="edge"><title>Node38&#45;&gt;Node35</title>
<path fill="none" stroke="midnightblue" d="M1831.66,-174.424C1835.9,-160.192 1841.11,-134.526 1831,-116 1823.43,-102.131 1809.83,-91.7398 1796.39,-84.3038"/>
<polygon fill="midnightblue" stroke="midnightblue" points="1797.7,-81.0399 1787.2,-79.6215 1794.52,-87.2779 1797.7,-81.0399"/>
</g>
<!-- Node39 -->
<g id="node101" class="node"><title>Node39</title>
<a xlink:href="enumfield_8h.html" target="_top" xlink:title="base/enumfield.h">
<polygon fill="white" stroke="black" points="1731.5,-116.5 1731.5,-137.5 1822.5,-137.5 1822.5,-116.5 1731.5,-116.5"/>
<text text-anchor="middle" x="1777" y="-124.5" font-family="Helvetica,sans-Serif" font-size="10.00">base/enumfield.h</text>
</a>
</g>
<!-- Node38&#45;&gt;Node39 -->
<g id="edge124" class="edge"><title>Node38&#45;&gt;Node39</title>
<path fill="none" stroke="midnightblue" d="M1818.65,-174.362C1811.46,-166.186 1801.36,-154.702 1792.91,-145.091"/>
<polygon fill="midnightblue" stroke="midnightblue" points="1795.53,-142.769 1786.29,-137.571 1790.27,-147.392 1795.53,-142.769"/>
</g>
<!-- Node41&#45;&gt;Node8 -->
<g id="edge214" class="edge"><title>Node41&#45;&gt;Node8</title>
<path fill="none" stroke="midnightblue" d="M1666.64,-364.092C1937.12,-354.553 3103.87,-310.24 3155,-254 3309.77,-83.7643 2267.92,-22.5625 2070.05,-12.5336"/>
<polygon fill="midnightblue" stroke="midnightblue" points="2070.16,-9.03488 2060,-12.0317 2069.82,-16.0262 2070.16,-9.03488"/>
</g>
<!-- Node41&#45;&gt;Node13 -->
<g id="edge212" class="edge"><title>Node41&#45;&gt;Node13</title>
<path fill="none" stroke="midnightblue" d="M1555.09,-364.439C1420.13,-359.345 1082.79,-338.267 1017,-254 976.302,-201.875 1061.1,-253.671 1114,-196 1140.63,-166.974 1141.53,-117.931 1139.48,-90.0454"/>
<polygon fill="midnightblue" stroke="midnightblue" points="1142.94,-89.4627 1138.53,-79.8318 1135.97,-90.1142 1142.94,-89.4627"/>
</g>
<!-- Node41&#45;&gt;Node15 -->
<g id="edge210" class="edge"><title>Node41&#45;&gt;Node15</title>
<path fill="none" stroke="midnightblue" d="M1568.51,-355.431C1542.82,-347.205 1510.91,-333.495 1489,-312 1440.78,-264.685 1417.18,-184.897 1408.32,-147.501"/>
<polygon fill="midnightblue" stroke="midnightblue" points="1411.73,-146.722 1406.12,-137.738 1404.9,-148.263 1411.73,-146.722"/>
</g>
<!-- Node41&#45;&gt;Node20 -->
<g id="edge218" class="edge"><title>Node41&#45;&gt;Node20</title>
<path fill="none" stroke="midnightblue" d="M1666.59,-365.324C1852.13,-362.708 2442.73,-351.344 2518,-312 2563.16,-288.394 2594.57,-234.376 2609.01,-204.969"/>
<polygon fill="midnightblue" stroke="midnightblue" points="2612.29,-206.219 2613.41,-195.683 2605.97,-203.224 2612.29,-206.219"/>
</g>
<!-- Node41&#45;&gt;Node21 -->
<g id="edge216" class="edge"><title>Node41&#45;&gt;Node21</title>
<path fill="none" stroke="midnightblue" d="M1645.95,-355.484C1710.89,-335.893 1854.49,-292.32 1975,-254 2004.87,-244.502 2011.83,-240.508 2042,-232 2108.82,-213.154 2126.74,-213.207 2194,-196 2195.26,-195.679 2196.53,-195.348 2197.82,-195.011"/>
<polygon fill="midnightblue" stroke="midnightblue" points="2199.03,-198.313 2207.79,-192.353 2197.22,-191.549 2199.03,-198.313"/>
</g>
<!-- Node41&#45;&gt;Node30 -->
<g id="edge144" class="edge"><title>Node41&#45;&gt;Node30</title>
<path fill="none" stroke="midnightblue" d="M1563.44,-355.484C1511.88,-344.085 1429.6,-325.894 1374.46,-313.704"/>
<polygon fill="midnightblue" stroke="midnightblue" points="1375.01,-310.242 1364.49,-311.501 1373.5,-317.077 1375.01,-310.242"/>
</g>
<!-- Node41&#45;&gt;Node33 -->
<g id="edge146" class="edge"><title>Node41&#45;&gt;Node33</title>
<path fill="none" stroke="midnightblue" d="M1611,-355.085C1611,-334.609 1611,-290.133 1611,-263.778"/>
<polygon fill="midnightblue" stroke="midnightblue" points="1614.5,-263.715 1611,-253.715 1607.5,-263.715 1614.5,-263.715"/>
</g>
<!-- Node42 -->
<g id="node116" class="node"><title>Node42</title>
<a xlink:href="_tagger_hit_8h.html" target="_top" xlink:title="TaggerHit.h">
<polygon fill="white" stroke="black" points="1732,-232.5 1732,-253.5 1800,-253.5 1800,-232.5 1732,-232.5"/>
<text text-anchor="middle" x="1766" y="-240.5" font-family="Helvetica,sans-Serif" font-size="10.00">TaggerHit.h</text>
</a>
</g>
<!-- Node41&#45;&gt;Node42 -->
<g id="edge148" class="edge"><title>Node41&#45;&gt;Node42</title>
<path fill="none" stroke="midnightblue" d="M1624.48,-355.3C1651.39,-333.946 1711.96,-285.885 1744.44,-260.106"/>
<polygon fill="midnightblue" stroke="midnightblue" points="1746.78,-262.721 1752.44,-253.763 1742.43,-257.238 1746.78,-262.721"/>
</g>
<!-- Node43 -->
<g id="node123" class="node"><title>Node43</title>
<a xlink:href="_trigger_info_8h.html" target="_top" xlink:title="TriggerInfo.h">
<polygon fill="white" stroke="black" points="1497.5,-290.5 1497.5,-311.5 1568.5,-311.5 1568.5,-290.5 1497.5,-290.5"/>
<text text-anchor="middle" x="1533" y="-298.5" font-family="Helvetica,sans-Serif" font-size="10.00">TriggerInfo.h</text>
</a>
</g>
<!-- Node41&#45;&gt;Node43 -->
<g id="edge160" class="edge"><title>Node41&#45;&gt;Node43</title>
<path fill="none" stroke="midnightblue" d="M1598.12,-355.267C1585.97,-345.139 1567.55,-329.792 1553.4,-318"/>
<polygon fill="midnightblue" stroke="midnightblue" points="1555.56,-315.247 1545.64,-311.534 1551.08,-320.624 1555.56,-315.247"/>
</g>
<!-- Node42&#45;&gt;Node13 -->
<g id="edge156" class="edge"><title>Node42&#45;&gt;Node13</title>
<path fill="none" stroke="midnightblue" d="M1761.05,-232.404C1748.56,-207.067 1713.13,-143.071 1662,-116 1619.65,-93.5763 1295.13,-76.3823 1178.54,-70.8719"/>
<polygon fill="midnightblue" stroke="midnightblue" points="1178.4,-67.3614 1168.25,-70.3902 1178.07,-74.3538 1178.4,-67.3614"/>
</g>
<!-- Node42&#45;&gt;Node15 -->
<g id="edge154" class="edge"><title>Node42&#45;&gt;Node15</title>
<path fill="none" stroke="midnightblue" d="M1742.73,-232.46C1710.02,-217.923 1648.35,-191.531 1594,-174 1540.64,-156.79 1477.14,-142.241 1438.74,-134.072"/>
<polygon fill="midnightblue" stroke="midnightblue" points="1439.1,-130.573 1428.6,-131.94 1437.66,-137.423 1439.1,-130.573"/>
</g>
<!-- Node42&#45;&gt;Node19 -->
<g id="edge150" class="edge"><title>Node42&#45;&gt;Node19</title>
<path fill="none" stroke="midnightblue" d="M1800.01,-237.287C1852.11,-228.515 1954.84,-211.152 2042,-196 2097.14,-186.413 2110.76,-183.02 2166,-174 2273.75,-156.406 2402.68,-137.992 2456.02,-130.49"/>
<polygon fill="midnightblue" stroke="midnightblue" points="2456.8,-133.914 2466.22,-129.058 2455.83,-126.982 2456.8,-133.914"/>
</g>
<!-- Node42&#45;&gt;Node21 -->
<g id="edge152" class="edge"><title>Node42&#45;&gt;Node21</title>
<path fill="none" stroke="midnightblue" d="M1800.2,-239.113C1868.08,-231.347 2024.64,-213.176 2156,-196 2169.59,-194.223 2184.49,-192.152 2197.6,-190.289"/>
<polygon fill="midnightblue" stroke="midnightblue" points="2198.26,-193.73 2207.66,-188.849 2197.27,-186.8 2198.26,-193.73"/>
</g>
<!-- Node42&#45;&gt;Node40 -->
<g id="edge158" class="edge"><title>Node42&#45;&gt;Node40</title>
<path fill="none" stroke="midnightblue" d="M1731.76,-235.057C1690.48,-225.479 1620.53,-209.251 1571.5,-197.876"/>
<polygon fill="midnightblue" stroke="midnightblue" points="1572.21,-194.448 1561.68,-195.598 1570.63,-201.267 1572.21,-194.448"/>
</g>
<!-- Node43&#45;&gt;Node13 -->
<g id="edge164" class="edge"><title>Node43&#45;&gt;Node13</title>
<path fill="none" stroke="midnightblue" d="M1531.42,-290.198C1529.85,-276.157 1528.73,-251.17 1537,-232 1545.72,-211.793 1562.87,-216.451 1571,-196 1574.61,-186.914 1576.37,-182.173 1571,-174 1527.58,-107.9 1277.7,-80.4669 1178.03,-72.0526"/>
<polygon fill="midnightblue" stroke="midnightblue" points="1178.28,-68.5616 1168.03,-71.2298 1177.71,-75.538 1178.28,-68.5616"/>
</g>
<!-- Node43&#45;&gt;Node15 -->
<g id="edge162" class="edge"><title>Node43&#45;&gt;Node15</title>
<path fill="none" stroke="midnightblue" d="M1525.12,-290.377C1503.94,-261.809 1445.53,-183.017 1418.31,-146.3"/>
<polygon fill="midnightblue" stroke="midnightblue" points="1420.87,-143.876 1412.1,-137.928 1415.25,-148.045 1420.87,-143.876"/>
</g>
<!-- Node43&#45;&gt;Node19 -->
<g id="edge206" class="edge"><title>Node43&#45;&gt;Node19</title>
<path fill="none" stroke="midnightblue" d="M1568.59,-299.984C1727.33,-295.337 2364.57,-275.412 2401,-254 2441.62,-230.127 2464.76,-176.63 2474.86,-147.259"/>
<polygon fill="midnightblue" stroke="midnightblue" points="2478.23,-148.222 2478,-137.63 2471.57,-146.054 2478.23,-148.222"/>
</g>
<!-- Node43&#45;&gt;Node21 -->
<g id="edge208" class="edge"><title>Node43&#45;&gt;Node21</title>
<path fill="none" stroke="midnightblue" d="M1568.53,-298.205C1636.71,-292.502 1790.45,-277.997 1918,-254 1956.77,-246.706 1965.49,-240.565 2004,-232 2087.9,-213.34 2110.27,-215.411 2194,-196 2195.26,-195.707 2196.55,-195.401 2197.84,-195.085"/>
<polygon fill="midnightblue" stroke="midnightblue" points="2199.01,-198.399 2207.83,-192.525 2197.27,-191.618 2199.01,-198.399"/>
</g>
<!-- Node43&#45;&gt;Node44 -->
<g id="edge166" class="edge"><title>Node43&#45;&gt;Node44</title>
<path fill="none" stroke="midnightblue" d="M1497.44,-297.961C1467.48,-295.496 1423.46,-292.097 1385,-290 924.961,-264.921 808.487,-287.721 349,-254 337.194,-253.134 324.617,-251.933 312.546,-250.641"/>
<polygon fill="midnightblue" stroke="midnightblue" points="312.877,-247.157 302.554,-249.541 312.111,-254.115 312.877,-247.157"/>
</g>
<!-- Node44&#45;&gt;Node23 -->
<g id="edge200" class="edge"><title>Node44&#45;&gt;Node23</title>
<path fill="none" stroke="midnightblue" d="M236.429,-232.381C219.236,-218.539 194.691,-193.766 209,-174 221.432,-156.828 275.544,-142.544 313.512,-134.385"/>
<polygon fill="midnightblue" stroke="midnightblue" points="314.671,-137.718 323.745,-132.248 313.24,-130.866 314.671,-137.718"/>
</g>
<!-- Node45 -->
<g id="node129" class="node"><title>Node45</title>
<a xlink:href="_t_i_d_8h.html" target="_top" xlink:title="TID.h">
<polygon fill="white" stroke="black" points="441.5,-174.5 441.5,-195.5 482.5,-195.5 482.5,-174.5 441.5,-174.5"/>
<text text-anchor="middle" x="462" y="-182.5" font-family="Helvetica,sans-Serif" font-size="10.00">TID.h</text>
</a>
</g>
<!-- Node44&#45;&gt;Node45 -->
<g id="edge168" class="edge"><title>Node44&#45;&gt;Node45</title>
<path fill="none" stroke="midnightblue" d="M289.211,-232.497C330.026,-221.277 393.904,-203.718 431.491,-193.386"/>
<polygon fill="midnightblue" stroke="midnightblue" points="432.639,-196.701 441.354,-190.675 430.784,-189.951 432.639,-196.701"/>
</g>
<!-- Node50 -->
<g id="node143" class="node"><title>Node50</title>
<polygon fill="white" stroke="#bfbfbf" points="387.5,-58.5 387.5,-79.5 428.5,-79.5 428.5,-58.5 387.5,-58.5"/>
<text text-anchor="middle" x="408" y="-66.5" font-family="Helvetica,sans-Serif" font-size="10.00">ctime</text>
</g>
<!-- Node44&#45;&gt;Node50 -->
<g id="edge204" class="edge"><title>Node44&#45;&gt;Node50</title>
<path fill="none" stroke="midnightblue" d="M216.215,-232.441C198.759,-225.182 179.201,-213.605 169,-196 160.92,-182.056 152.689,-137.531 171,-116 197.286,-85.0908 319.19,-74.0569 377.183,-70.5105"/>
<polygon fill="midnightblue" stroke="midnightblue" points="377.448,-74.0011 387.231,-69.9323 377.046,-67.0127 377.448,-74.0011"/>
</g>
<!-- Node52 -->
<g id="node150" class="node"><title>Node52</title>
<polygon fill="white" stroke="#bfbfbf" points="180,-116.5 180,-137.5 230,-137.5 230,-116.5 180,-116.5"/>
<text text-anchor="middle" x="205" y="-124.5" font-family="Helvetica,sans-Serif" font-size="10.00">iomanip</text>
</g>
<!-- Node44&#45;&gt;Node52 -->
<g id="edge202" class="edge"><title>Node44&#45;&gt;Node52</title>
<path fill="none" stroke="midnightblue" d="M220.643,-232.407C204.275,-224.959 185.525,-213.209 176,-196 166.933,-179.618 177.261,-159.817 188.023,-145.636"/>
<polygon fill="midnightblue" stroke="midnightblue" points="190.969,-147.564 194.61,-137.614 185.559,-143.121 190.969,-147.564"/>
</g>
<!-- Node45&#45;&gt;Node12 -->
<g id="edge194" class="edge"><title>Node45&#45;&gt;Node12</title>
<path fill="none" stroke="midnightblue" d="M482.694,-178.592C526.463,-165.243 631.814,-134.187 722,-116 828.471,-94.5294 955.84,-79.6557 1019.17,-72.9781"/>
<polygon fill="midnightblue" stroke="midnightblue" points="1019.91,-76.4192 1029.5,-71.9018 1019.19,-69.4569 1019.91,-76.4192"/>
</g>
<!-- Node45&#45;&gt;Node13 -->
<g id="edge172" class="edge"><title>Node45&#45;&gt;Node13</title>
<path fill="none" stroke="midnightblue" d="M482.598,-181.476C522.777,-174.444 614.303,-157.644 690,-138 721.566,-129.809 728.075,-122.654 760,-116 904.293,-85.9282 947.173,-107.107 1095.73,-79.9891"/>
<polygon fill="midnightblue" stroke="midnightblue" points="1096.48,-83.4091 1105.67,-78.132 1095.2,-76.5281 1096.48,-83.4091"/>
</g>
<!-- Node45&#45;&gt;Node23 -->
<g id="edge170" class="edge"><title>Node45&#45;&gt;Node23</title>
<path fill="none" stroke="midnightblue" d="M442.08,-174.497C425.054,-165.519 400.331,-152.484 381.091,-142.339"/>
<polygon fill="midnightblue" stroke="midnightblue" points="382.622,-139.189 372.144,-137.621 379.357,-145.381 382.622,-139.189"/>
</g>
<!-- Node45&#45;&gt;Node36 -->
<g id="edge192" class="edge"><title>Node45&#45;&gt;Node36</title>
<path fill="none" stroke="midnightblue" d="M482.806,-183.382C581.845,-175.688 1015.46,-142.092 1371,-116 1593.43,-99.6766 1655.4,-124.427 1877.75,-79.8029"/>
<polygon fill="midnightblue" stroke="midnightblue" points="1878.67,-83.1873 1887.78,-77.7663 1877.28,-76.3275 1878.67,-83.1873"/>
</g>
<!-- Node45&#45;&gt;Node37 -->
<g id="edge188" class="edge"><title>Node45&#45;&gt;Node37</title>
<path fill="none" stroke="midnightblue" d="M482.717,-181.494C564.908,-167.588 864.046,-117.023 874,-116 1279.97,-74.2757 1390.65,-141.855 1797.73,-79.8727"/>
<polygon fill="midnightblue" stroke="midnightblue" points="1798.35,-83.3175 1807.7,-78.3367 1797.29,-76.399 1798.35,-83.3175"/>
</g>
<!-- Node46 -->
<g id="node133" class="node"><title>Node46</title>
<a xlink:href="time_8h.html" target="_top" xlink:title="base/std_ext/time.h">
<polygon fill="white" stroke="black" points="491.5,-116.5 491.5,-137.5 594.5,-137.5 594.5,-116.5 491.5,-116.5"/>
<text text-anchor="middle" x="543" y="-124.5" font-family="Helvetica,sans-Serif" font-size="10.00">base/std_ext/time.h</text>
</a>
</g>
<!-- Node45&#45;&gt;Node46 -->
<g id="edge174" class="edge"><title>Node45&#45;&gt;Node46</title>
<path fill="none" stroke="midnightblue" d="M476.857,-174.362C488.846,-165.777 505.927,-153.546 519.728,-143.664"/>
<polygon fill="midnightblue" stroke="midnightblue" points="522.145,-146.238 528.238,-137.571 518.069,-140.547 522.145,-146.238"/>
</g>
<!-- Node45&#45;&gt;Node50 -->
<g id="edge198" class="edge"><title>Node45&#45;&gt;Node50</title>
<path fill="none" stroke="midnightblue" d="M452.097,-174.187C444.274,-165.124 433.609,-151.529 427,-138 419.512,-122.672 414.591,-103.938 411.637,-89.8611"/>
<polygon fill="midnightblue" stroke="midnightblue" points="415.012,-88.8782 409.679,-79.7237 408.139,-90.2061 415.012,-88.8782"/>
</g>
<!-- Node51 -->
<g id="node146" class="node"><title>Node51</title>
<polygon fill="white" stroke="#bfbfbf" points="436,-116.5 436,-137.5 474,-137.5 474,-116.5 436,-116.5"/>
<text text-anchor="middle" x="455" y="-124.5" font-family="Helvetica,sans-Serif" font-size="10.00">tuple</text>
</g>
<!-- Node45&#45;&gt;Node51 -->
<g id="edge190" class="edge"><title>Node45&#45;&gt;Node51</title>
<path fill="none" stroke="midnightblue" d="M460.716,-174.362C459.818,-166.922 458.59,-156.743 457.502,-147.728"/>
<polygon fill="midnightblue" stroke="midnightblue" points="460.949,-147.079 456.276,-137.571 453.999,-147.918 460.949,-147.079"/>
</g>
<!-- Node45&#45;&gt;Node52 -->
<g id="edge196" class="edge"><title>Node45&#45;&gt;Node52</title>
<path fill="none" stroke="midnightblue" d="M441.403,-180.352C397.538,-170.452 294.472,-147.192 240.061,-134.913"/>
<polygon fill="midnightblue" stroke="midnightblue" points="240.701,-131.469 230.176,-132.682 239.16,-138.297 240.701,-131.469"/>
</g>
<!-- Node47 -->
<g id="node135" class="node"><title>Node47</title>
<a xlink:href="string_8h.html" target="_top" xlink:title="base/std_ext/string.h">
<polygon fill="white" stroke="black" points="752,-58.5 752,-79.5 860,-79.5 860,-58.5 752,-58.5"/>
<text text-anchor="middle" x="806" y="-66.5" font-family="Helvetica,sans-Serif" font-size="10.00">base/std_ext/string.h</text>
</a>
</g>
<!-- Node46&#45;&gt;Node47 -->
<g id="edge176" class="edge"><title>Node46&#45;&gt;Node47</title>
<path fill="none" stroke="midnightblue" d="M590.627,-116.497C634.988,-106.714 701.205,-92.1107 748.494,-81.6819"/>
<polygon fill="midnightblue" stroke="midnightblue" points="749.272,-85.0946 758.283,-79.5231 747.764,-78.2588 749.272,-85.0946"/>
</g>
<!-- Node49 -->
<g id="node141" class="node"><title>Node49</title>
<polygon fill="white" stroke="#bfbfbf" points="520,-58.5 520,-79.5 566,-79.5 566,-58.5 520,-58.5"/>
<text text-anchor="middle" x="543" y="-66.5" font-family="Helvetica,sans-Serif" font-size="10.00">cstring</text>
</g>
<!-- Node46&#45;&gt;Node49 -->
<g id="edge184" class="edge"><title>Node46&#45;&gt;Node49</title>
<path fill="none" stroke="midnightblue" d="M543,-116.362C543,-108.922 543,-98.7427 543,-89.7276"/>
<polygon fill="midnightblue" stroke="midnightblue" points="546.5,-89.5706 543,-79.5707 539.5,-89.5707 546.5,-89.5706"/>
</g>
<!-- Node46&#45;&gt;Node50 -->
<g id="edge186" class="edge"><title>Node46&#45;&gt;Node50</title>
<path fill="none" stroke="midnightblue" d="M518.553,-116.497C495.98,-106.799 462.384,-92.365 438.155,-81.9556"/>
<polygon fill="midnightblue" stroke="midnightblue" points="439.297,-78.6369 428.728,-77.9052 436.534,-85.0684 439.297,-78.6369"/>
</g>
<!-- Node47&#45;&gt;Node9 -->
<g id="edge178" class="edge"><title>Node47&#45;&gt;Node9</title>
<path fill="none" stroke="midnightblue" d="M751.852,-59.9464C747.172,-59.2533 742.505,-58.5936 738,-58 576.454,-36.7175 381.966,-19.6916 307.781,-13.5086"/>
<polygon fill="midnightblue" stroke="midnightblue" points="307.982,-10.0133 297.727,-12.6758 307.404,-16.9894 307.982,-10.0133"/>
</g>
<!-- Node47&#45;&gt;Node11 -->
<g id="edge182" class="edge"><title>Node47&#45;&gt;Node11</title>
<path fill="none" stroke="midnightblue" d="M820.123,-58.3619C831.52,-49.7773 847.758,-37.5459 860.878,-27.6636"/>
<polygon fill="midnightblue" stroke="midnightblue" points="863.085,-30.3829 868.967,-21.5707 858.873,-24.7916 863.085,-30.3829"/>
</g>
<!-- Node48 -->
<g id="node138" class="node"><title>Node48</title>
<polygon fill="white" stroke="#bfbfbf" points="780,-0.5 780,-21.5 832,-21.5 832,-0.5 780,-0.5"/>
<text text-anchor="middle" x="806" y="-8.5" font-family="Helvetica,sans-Serif" font-size="10.00">sstream</text>
</g>
<!-- Node47&#45;&gt;Node48 -->
<g id="edge180" class="edge"><title>Node47&#45;&gt;Node48</title>
<path fill="none" stroke="midnightblue" d="M806,-58.3619C806,-50.9219 806,-40.7427 806,-31.7276"/>
<polygon fill="midnightblue" stroke="midnightblue" points="809.5,-31.5706 806,-21.5707 802.5,-31.5707 809.5,-31.5706"/>
</g>
<!-- Node53&#45;&gt;Node8 -->
<g id="edge222" class="edge"><title>Node53&#45;&gt;Node8</title>
<path fill="none" stroke="midnightblue" d="M3046.51,-355.372C3083.93,-339.68 3148.02,-306.389 3175,-254 3184.91,-234.748 3174.12,-184.516 3164,-174 3085.62,-92.5185 2246.77,-26.4041 2070.42,-13.3448"/>
<polygon fill="midnightblue" stroke="midnightblue" points="2070.46,-9.83819 2060.23,-12.5947 2069.94,-16.8193 2070.46,-9.83819"/>
</g>
<!-- Node54&#45;&gt;Node19 -->
<g id="edge258" class="edge"><title>Node54&#45;&gt;Node19</title>
<path fill="none" stroke="midnightblue" d="M2711.91,-348.801C2724.99,-339.722 2738.83,-327.273 2746,-312 2772.06,-256.477 2785.4,-221.004 2746,-174 2715.41,-137.509 2565.56,-129.331 2505.73,-127.514"/>
<polygon fill="midnightblue" stroke="midnightblue" points="2505.75,-124.013 2495.66,-127.243 2505.56,-131.011 2505.75,-124.013"/>
</g>
<!-- Node54&#45;&gt;Node20 -->
<g id="edge256" class="edge"><title>Node54&#45;&gt;Node20</title>
<path fill="none" stroke="midnightblue" d="M2675.07,-348.972C2663.42,-315.492 2637.57,-241.232 2625.06,-205.282"/>
<polygon fill="midnightblue" stroke="midnightblue" points="2628.36,-204.125 2621.77,-195.832 2621.75,-206.427 2628.36,-204.125"/>
</g>
<!-- Node54&#45;&gt;Node21 -->
<g id="edge254" class="edge"><title>Node54&#45;&gt;Node21</title>
<path fill="none" stroke="midnightblue" d="M2619.72,-350.715C2615.09,-349.738 2610.48,-348.819 2606,-348 2480.84,-325.119 2439.88,-359.881 2322,-312 2282.31,-295.876 2267.09,-290.712 2245,-254 2236.31,-239.565 2233.82,-220.486 2233.35,-206.049"/>
<polygon fill="midnightblue" stroke="midnightblue" points="2236.85,-205.637 2233.33,-195.644 2229.85,-205.651 2236.85,-205.637"/>
</g>
<!-- Node54&#45;&gt;Node34 -->
<g id="edge236" class="edge"><title>Node54&#45;&gt;Node34</title>
<path fill="none" stroke="midnightblue" d="M2691.25,-348.936C2712.14,-311.734 2753.93,-222.765 2708,-174 2683.18,-147.649 2159.38,-132.647 1982.64,-128.32"/>
<polygon fill="midnightblue" stroke="midnightblue" points="1982.59,-124.818 1972.5,-128.075 1982.42,-131.816 1982.59,-124.818"/>
</g>
<!-- Node55 -->
<g id="node174" class="node"><title>Node55</title>
<a xlink:href="_memory_pool_8h.html" target="_top" xlink:title="tree/MemoryPool.h">
<polygon fill="white" stroke="black" points="2330.5,-290.5 2330.5,-311.5 2429.5,-311.5 2429.5,-290.5 2330.5,-290.5"/>
<text text-anchor="middle" x="2380" y="-298.5" font-family="Helvetica,sans-Serif" font-size="10.00">tree/MemoryPool.h</text>
</a>
</g>
<!-- Node54&#45;&gt;Node55 -->
<g id="edge238" class="edge"><title>Node54&#45;&gt;Node55</title>
<path fill="none" stroke="midnightblue" d="M2619.64,-351.113C2615.03,-350.043 2610.44,-348.995 2606,-348 2549.83,-335.422 2485.54,-322.162 2439.93,-312.945"/>
<polygon fill="midnightblue" stroke="midnightblue" points="2440.41,-309.471 2429.92,-310.926 2439.03,-316.333 2440.41,-309.471"/>
</g>
<!-- Node57 -->
<g id="node180" class="node"><title>Node57</title>
<a xlink:href="mapped__vectors_8h.html" target="_top" xlink:title="base/mapped_vectors.h">
<polygon fill="white" stroke="black" points="3025.5,-232.5 3025.5,-253.5 3146.5,-253.5 3146.5,-232.5 3025.5,-232.5"/>
<text text-anchor="middle" x="3086" y="-240.5" font-family="Helvetica,sans-Serif" font-size="10.00">base/mapped_vectors.h</text>
</a>
</g>
<!-- Node54&#45;&gt;Node57 -->
<g id="edge246" class="edge"><title>Node54&#45;&gt;Node57</title>
<path fill="none" stroke="midnightblue" d="M2737.31,-348.897C2818.58,-324.215 2967.12,-279.105 3041.33,-256.568"/>
<polygon fill="midnightblue" stroke="midnightblue" points="3042.74,-259.797 3051.29,-253.542 3040.7,-253.099 3042.74,-259.797"/>
</g>
<!-- Node55&#45;&gt;Node21 -->
<g id="edge242" class="edge"><title>Node55&#45;&gt;Node21</title>
<path fill="none" stroke="midnightblue" d="M2332.59,-290.438C2309.82,-283.341 2283.53,-271.91 2265,-254 2251.47,-240.929 2243.38,-220.884 2238.87,-205.761"/>
<polygon fill="midnightblue" stroke="midnightblue" points="2242.17,-204.542 2236.2,-195.789 2235.41,-206.355 2242.17,-204.542"/>
</g>
<!-- Node55&#45;&gt;Node24 -->
<g id="edge240" class="edge"><title>Node55&#45;&gt;Node24</title>
<path fill="none" stroke="midnightblue" d="M2371.38,-290.362C2364.82,-282.268 2355.63,-270.932 2347.89,-261.38"/>
<polygon fill="midnightblue" stroke="midnightblue" points="2350.58,-259.136 2341.57,-253.571 2345.14,-263.544 2350.58,-259.136"/>
</g>
<!-- Node56 -->
<g id="node178" class="node"><title>Node56</title>
<polygon fill="white" stroke="#bfbfbf" points="2447.5,-232.5 2447.5,-253.5 2514.5,-253.5 2514.5,-232.5 2447.5,-232.5"/>
<text text-anchor="middle" x="2481" y="-240.5" font-family="Helvetica,sans-Serif" font-size="10.00">forward_list</text>
</g>
<!-- Node55&#45;&gt;Node56 -->
<g id="edge244" class="edge"><title>Node55&#45;&gt;Node56</title>
<path fill="none" stroke="midnightblue" d="M2398.52,-290.362C2413.9,-281.532 2436,-268.844 2453.45,-258.822"/>
<polygon fill="midnightblue" stroke="midnightblue" points="2455.66,-261.586 2462.59,-253.571 2452.18,-255.515 2455.66,-261.586"/>
</g>
<!-- Node57&#45;&gt;Node8 -->
<g id="edge248" class="edge"><title>Node57&#45;&gt;Node8</title>
<path fill="none" stroke="midnightblue" d="M3082.13,-232.359C3076.01,-217.078 3062.64,-189.099 3042,-174 2961.08,-114.805 2922.33,-135.566 2824,-116 2534.2,-58.3352 2177.85,-23.5571 2070.24,-13.8224"/>
<polygon fill="midnightblue" stroke="midnightblue" points="2070.32,-10.3155 2060.05,-12.9081 2069.7,-17.2875 2070.32,-10.3155"/>
</g>
<!-- Node57&#45;&gt;Node21 -->
<g id="edge250" class="edge"><title>Node57&#45;&gt;Node21</title>
<path fill="none" stroke="midnightblue" d="M3025.41,-238.875C2859.58,-227.587 2401.91,-196.431 2270.01,-187.451"/>
<polygon fill="midnightblue" stroke="midnightblue" points="2270.24,-183.959 2260.02,-186.771 2269.76,-190.943 2270.24,-183.959"/>
</g>
<!-- Node57&#45;&gt;Node37 -->
<g id="edge252" class="edge"><title>Node57&#45;&gt;Node37</title>
<path fill="none" stroke="midnightblue" d="M3078.3,-232.393C3066.19,-216.614 3041.03,-187.387 3012,-174 2785.49,-69.5499 2144.84,-119.672 1880.32,-79.8609"/>
<polygon fill="midnightblue" stroke="midnightblue" points="1880.73,-76.382 1870.3,-78.2801 1879.64,-83.2964 1880.73,-76.382"/>
</g>
<!-- Node58&#45;&gt;Node9 -->
<g id="edge270" class="edge"><title>Node58&#45;&gt;Node9</title>
<path fill="none" stroke="midnightblue" d="M769.078,-348.768C759.336,-315.946 736.824,-246.436 717,-232 645.212,-179.723 403.64,-222.879 319,-196 300.4,-190.093 298.815,-181.967 281,-174 234.042,-152.999 201.192,-179.648 171,-138 140.442,-95.8459 206.322,-49.7062 247.377,-26.3656"/>
<polygon fill="midnightblue" stroke="midnightblue" points="249.161,-29.3788 256.214,-21.4727 245.77,-23.2549 249.161,-29.3788"/>
</g>
<!-- Node58&#45;&gt;Node10 -->
<g id="edge262" class="edge"><title>Node58&#45;&gt;Node10</title>
<path fill="none" stroke="midnightblue" d="M770.808,-348.993C766.566,-320.689 762.77,-263.886 793,-232 818.286,-205.328 919.422,-193.208 981.746,-188.175"/>
<polygon fill="midnightblue" stroke="midnightblue" points="982.074,-191.66 991.774,-187.399 981.534,-184.681 982.074,-191.66"/>
</g>
<!-- Node58&#45;&gt;Node19 -->
<g id="edge272" class="edge"><title>Node58&#45;&gt;Node19</title>
<path fill="none" stroke="midnightblue" d="M832.681,-364.544C1123.63,-357.271 2399.06,-324.715 2438,-312 2481.48,-297.804 2501.64,-294.439 2523,-254 2542.12,-217.815 2515.01,-171.268 2496.26,-145.771"/>
<polygon fill="midnightblue" stroke="midnightblue" points="2498.93,-143.494 2490.07,-137.682 2493.37,-147.75 2498.93,-143.494"/>
</g>
<!-- Node59 -->
<g id="node191" class="node"><title>Node59</title>
<a xlink:href="_t_header_info_8h.html" target="_top" xlink:title="tree/THeaderInfo.h">
<polygon fill="white" stroke="black" points="486,-290.5 486,-311.5 584,-311.5 584,-290.5 486,-290.5"/>
<text text-anchor="middle" x="535" y="-298.5" font-family="Helvetica,sans-Serif" font-size="10.00">tree/THeaderInfo.h</text>
</a>
</g>
<!-- Node58&#45;&gt;Node59 -->
<g id="edge264" class="edge"><title>Node58&#45;&gt;Node59</title>
<path fill="none" stroke="midnightblue" d="M715.228,-350.016C674.754,-339.009 621.623,-324.558 583.552,-314.204"/>
<polygon fill="midnightblue" stroke="midnightblue" points="584.294,-310.779 573.726,-311.532 582.457,-317.534 584.294,-310.779"/>
</g>
<!-- Node59&#45;&gt;Node44 -->
<g id="edge266" class="edge"><title>Node59&#45;&gt;Node44</title>
<path fill="none" stroke="midnightblue" d="M485.855,-290.963C437.781,-281.145 364.422,-266.164 312.502,-255.56"/>
<polygon fill="midnightblue" stroke="midnightblue" points="312.916,-252.073 302.418,-253.501 311.515,-258.931 312.916,-252.073"/>
</g>
<!-- Node59&#45;&gt;Node46 -->
<g id="edge268" class="edge"><title>Node59&#45;&gt;Node46</title>
<path fill="none" stroke="midnightblue" d="M485.817,-291.794C433.636,-281.53 357.518,-264.938 349,-254 342.992,-246.286 342.995,-239.717 349,-232 388.983,-180.615 436.778,-232.041 491,-196 509.621,-183.623 524.187,-162.265 533.107,-146.582"/>
<polygon fill="midnightblue" stroke="midnightblue" points="536.242,-148.143 537.918,-137.681 530.084,-144.815 536.242,-148.143"/>
</g>
<!-- Node60&#45;&gt;Node3 -->
<g id="edge278" class="edge"><title>Node60&#45;&gt;Node3</title>
<path fill="none" stroke="midnightblue" d="M2074.34,-536.362C2089.57,-527.532 2111.44,-514.844 2128.72,-504.822"/>
<polygon fill="midnightblue" stroke="midnightblue" points="2130.88,-507.615 2137.77,-499.571 2127.37,-501.56 2130.88,-507.615"/>
</g>
<!-- Node60&#45;&gt;Node21 -->
<g id="edge284" class="edge"><title>Node60&#45;&gt;Node21</title>
<path fill="none" stroke="midnightblue" d="M2056,-536.444C2056,-516.062 2056,-469.868 2056,-431 2056,-431 2056,-431 2056,-301 2056,-233.914 2145.84,-203.601 2197.87,-191.671"/>
<polygon fill="midnightblue" stroke="midnightblue" points="2198.71,-195.071 2207.74,-189.524 2197.22,-188.231 2198.71,-195.071"/>
</g>
<!-- Node60&#45;&gt;Node34 -->
<g id="edge280" class="edge"><title>Node60&#45;&gt;Node34</title>
<path fill="none" stroke="midnightblue" d="M2032.93,-536.408C1999.62,-519.34 1942,-482.39 1942,-431 1942,-431 1942,-431 1942,-301 1942,-217.647 2129.66,-240.947 2080,-174 2068.12,-157.984 2021.83,-145.289 1982.9,-137.15"/>
<polygon fill="midnightblue" stroke="midnightblue" points="1983.17,-133.633 1972.67,-135.078 1981.78,-140.494 1983.17,-133.633"/>
</g>
<!-- Node60&#45;&gt;Node44 -->
<g id="edge282" class="edge"><title>Node60&#45;&gt;Node44</title>
<path fill="none" stroke="midnightblue" d="M2027.73,-546.143C1890.85,-541.909 1296.05,-522.525 1112,-500 846.304,-467.483 772.613,-475.338 521,-384 439.479,-354.407 427.207,-329.503 350,-290 328.121,-278.805 303.115,-266.941 283.708,-257.934"/>
<polygon fill="midnightblue" stroke="midnightblue" points="284.94,-254.647 274.394,-253.63 282.004,-261.002 284.94,-254.647"/>
</g>
<!-- Node61&#45;&gt;Node16 -->
<g id="edge330" class="edge"><title>Node61&#45;&gt;Node16</title>
<path fill="none" stroke="midnightblue" d="M2732.28,-668.793C2902.78,-663.412 3440,-634.88 3440,-489 3440,-489 3440,-489 3440,-301 3440,-241.563 3405.92,-177.694 3386.74,-146.458"/>
<polygon fill="midnightblue" stroke="midnightblue" points="3389.61,-144.449 3381.32,-137.852 3383.68,-148.179 3389.61,-144.449"/>
</g>
<!-- Node61&#45;&gt;Node28 -->
<g id="edge334" class="edge"><title>Node61&#45;&gt;Node28</title>
<path fill="none" stroke="midnightblue" d="M2629.75,-669.238C2363.56,-665.157 1148.04,-644.992 1074,-616 956.931,-570.159 860,-556.724 860,-431 860,-431 860,-431 860,-366 860,-328.785 846.491,-287.104 837.309,-263.07"/>
<polygon fill="midnightblue" stroke="midnightblue" points="840.508,-261.642 833.574,-253.631 833.999,-264.218 840.508,-261.642"/>
</g>
<!-- Node61&#45;&gt;Node34 -->
<g id="edge288" class="edge"><title>Node61&#45;&gt;Node34</title>
<path fill="none" stroke="midnightblue" d="M2629.85,-668.484C2507.35,-664.331 2200.19,-650.68 2104,-616 2060.98,-600.488 2054.69,-586.595 2019,-558 1989.55,-534.408 1977.29,-531.816 1957,-500 1942.42,-477.128 1944.54,-468.324 1938,-442 1911.12,-333.852 1918.77,-198.481 1923.03,-147.596"/>
<polygon fill="midnightblue" stroke="midnightblue" points="1926.53,-147.819 1923.92,-137.548 1919.55,-147.2 1926.53,-147.819"/>
</g>
<!-- Node62 -->
<g id="node207" class="node"><title>Node62</title>
<a xlink:href="_unpacker_acqu_8h.html" target="_top" xlink:title="unpacker/UnpackerAcqu.h">
<polygon fill="white" stroke="black" points="2615,-594.5 2615,-615.5 2747,-615.5 2747,-594.5 2615,-594.5"/>
<text text-anchor="middle" x="2681" y="-602.5" font-family="Helvetica,sans-Serif" font-size="10.00">unpacker/UnpackerAcqu.h</text>
</a>
</g>
<!-- Node61&#45;&gt;Node62 -->
<g id="edge290" class="edge"><title>Node61&#45;&gt;Node62</title>
<path fill="none" stroke="midnightblue" d="M2681,-652.922C2681,-644.67 2681,-634.692 2681,-625.982"/>
<polygon fill="midnightblue" stroke="midnightblue" points="2684.5,-625.852 2681,-615.852 2677.5,-625.852 2684.5,-625.852"/>
</g>
<!-- Node65 -->
<g id="node229" class="node"><title>Node65</title>
<polygon fill="white" stroke="#bfbfbf" points="2764.5,-594.5 2764.5,-615.5 2829.5,-615.5 2829.5,-594.5 2764.5,-594.5"/>
<text text-anchor="middle" x="2797" y="-602.5" font-family="Helvetica,sans-Serif" font-size="10.00">TVector2.h</text>
</g>
<!-- Node61&#45;&gt;Node65 -->
<g id="edge328" class="edge"><title>Node61&#45;&gt;Node65</title>
<path fill="none" stroke="midnightblue" d="M2711.48,-652.922C2729.26,-642.957 2751.54,-630.473 2768.9,-620.745"/>
<polygon fill="midnightblue" stroke="midnightblue" points="2770.97,-623.6 2777.98,-615.658 2767.54,-617.493 2770.97,-623.6"/>
</g>
<!-- Node66 -->
<g id="node232" class="node"><title>Node66</title>
<polygon fill="white" stroke="#bfbfbf" points="2846.5,-594.5 2846.5,-615.5 2895.5,-615.5 2895.5,-594.5 2846.5,-594.5"/>
<text text-anchor="middle" x="2871" y="-602.5" font-family="Helvetica,sans-Serif" font-size="10.00">cassert</text>
</g>
<!-- Node61&#45;&gt;Node66 -->
<g id="edge332" class="edge"><title>Node61&#45;&gt;Node66</title>
<path fill="none" stroke="midnightblue" d="M2730.92,-652.922C2764.16,-641.549 2806.99,-626.897 2836.5,-616.804"/>
<polygon fill="midnightblue" stroke="midnightblue" points="2838.01,-619.986 2846.34,-613.437 2835.74,-613.363 2838.01,-619.986"/>
</g>
<!-- Node62&#45;&gt;Node8 -->
<g id="edge322" class="edge"><title>Node62&#45;&gt;Node8</title>
<path fill="none" stroke="midnightblue" d="M2747.22,-594.998C2750.18,-594.641 2753.12,-594.306 2756,-594 2892.34,-579.488 3364,-626.111 3364,-489 3364,-489 3364,-489 3364,-431 3364,-289.931 3494.52,-223.352 3403,-116 3297.29,7.99593 3203.08,-74.7286 3041,-58 2660.63,-18.7414 2195.69,-12.2532 2070.39,-11.2002"/>
<polygon fill="midnightblue" stroke="midnightblue" points="2070.33,-7.69973 2060.31,-11.1213 2070.28,-14.6995 2070.33,-7.69973"/>
</g>
<!-- Node62&#45;&gt;Node16 -->
<g id="edge326" class="edge"><title>Node62&#45;&gt;Node16</title>
<path fill="none" stroke="midnightblue" d="M2747.22,-595.013C2750.18,-594.653 2753.12,-594.313 2756,-594 2868.51,-581.78 3162.33,-607.711 3264,-558 3301.04,-539.891 3326,-530.228 3326,-489 3326,-489 3326,-489 3326,-431 3326,-323.184 3355.82,-196.463 3368.45,-147.623"/>
<polygon fill="midnightblue" stroke="midnightblue" points="3371.91,-148.235 3371.07,-137.674 3365.14,-146.455 3371.91,-148.235"/>
</g>
<!-- Node62&#45;&gt;Node19 -->
<g id="edge318" class="edge"><title>Node62&#45;&gt;Node19</title>
<path fill="none" stroke="midnightblue" d="M2745.36,-594.446C2865.98,-573.778 3114,-526.696 3114,-489 3114,-489 3114,-489 3114,-431 3114,-393.157 3117.03,-378.767 3095,-348 3009.25,-228.267 2951.51,-224.047 2813,-174 2756.08,-153.433 2572.61,-135.271 2505.71,-129.174"/>
<polygon fill="midnightblue" stroke="midnightblue" points="2505.93,-125.68 2495.66,-128.27 2505.3,-132.652 2505.93,-125.68"/>
</g>
<!-- Node62&#45;&gt;Node20 -->
<g id="edge320" class="edge"><title>Node62&#45;&gt;Node20</title>
<path fill="none" stroke="midnightblue" d="M2716.17,-594.424C2757.53,-580.061 2824.98,-550.245 2860,-500 2894.6,-450.366 2884,-426.503 2884,-366 2884,-366 2884,-366 2884,-301 2884,-249.471 2714.16,-206.227 2645.91,-190.928"/>
<polygon fill="midnightblue" stroke="midnightblue" points="2646.38,-187.449 2635.87,-188.715 2644.88,-194.285 2646.38,-187.449"/>
</g>
<!-- Node62&#45;&gt;Node21 -->
<g id="edge316" class="edge"><title>Node62&#45;&gt;Node21</title>
<path fill="none" stroke="midnightblue" d="M2614.72,-594.591C2521.53,-578.051 2363,-542.11 2363,-489 2363,-489 2363,-489 2363,-431 2363,-355.889 2282.46,-375.913 2243,-312 2223.8,-280.904 2220.18,-268.344 2224,-232 2224.92,-223.232 2226.79,-213.692 2228.66,-205.514"/>
<polygon fill="midnightblue" stroke="midnightblue" points="2232.08,-206.269 2231.05,-195.724 2225.28,-204.611 2232.08,-206.269"/>
</g>
<!-- Node62&#45;&gt;Node34 -->
<g id="edge314" class="edge"><title>Node62&#45;&gt;Node34</title>
<path fill="none" stroke="midnightblue" d="M2653.76,-594.475C2616.44,-578.066 2554,-542.602 2554,-489 2554,-489 2554,-489 2554,-431 2554,-309.976 2726.74,-262.324 2644,-174 2621.49,-149.968 2149.46,-133.669 1982.72,-128.643"/>
<polygon fill="midnightblue" stroke="midnightblue" points="1982.75,-125.143 1972.65,-128.343 1982.54,-132.14 1982.75,-125.143"/>
</g>
<!-- Node62&#45;&gt;Node36 -->
<g id="edge324" class="edge"><title>Node62&#45;&gt;Node36</title>
<path fill="none" stroke="midnightblue" d="M2747.08,-595.205C2834.81,-582.173 2980.12,-560.478 2992,-558 3108.2,-533.761 3250,-607.697 3250,-489 3250,-489 3250,-489 3250,-366 3250,-240.192 3160.79,-215.437 3042,-174 2947.33,-140.978 2923.05,-131.551 2824,-116 2649.41,-88.5886 2087.66,-73.301 1944.47,-69.7875"/>
<polygon fill="midnightblue" stroke="midnightblue" points="1944.22,-66.2807 1934.14,-69.5369 1944.05,-73.2786 1944.22,-66.2807"/>
</g>
<!-- Node63 -->
<g id="node209" class="node"><title>Node63</title>
<a xlink:href="_unpacker_8h.html" target="_top" xlink:title="Unpacker.h">
<polygon fill="white" stroke="black" points="1271.5,-232.5 1271.5,-253.5 1338.5,-253.5 1338.5,-232.5 1271.5,-232.5"/>
<text text-anchor="middle" x="1305" y="-240.5" font-family="Helvetica,sans-Serif" font-size="10.00">Unpacker.h</text>
</a>
</g>
<!-- Node62&#45;&gt;Node63 -->
<g id="edge292" class="edge"><title>Node62&#45;&gt;Node63</title>
<path fill="none" stroke="midnightblue" d="M2614.99,-602.315C2470.85,-596.127 2131.86,-579.712 2019,-558 1666.21,-490.131 1460.88,-602.129 1249,-312 1235.39,-293.358 1256.82,-272.937 1276.98,-259.184"/>
<polygon fill="midnightblue" stroke="midnightblue" points="1278.93,-262.088 1285.43,-253.723 1275.13,-256.208 1278.93,-262.088"/>
</g>
<!-- Node64 -->
<g id="node213" class="node"><title>Node64</title>
<a xlink:href="_exp_config_8h.html" target="_top" xlink:title="expconfig/ExpConfig.h">
<polygon fill="white" stroke="black" points="2623,-536.5 2623,-557.5 2739,-557.5 2739,-536.5 2623,-536.5"/>
<text text-anchor="middle" x="2681" y="-544.5" font-family="Helvetica,sans-Serif" font-size="10.00">expconfig/ExpConfig.h</text>
</a>
</g>
<!-- Node62&#45;&gt;Node64 -->
<g id="edge298" class="edge"><title>Node62&#45;&gt;Node64</title>
<path fill="none" stroke="midnightblue" d="M2681,-594.362C2681,-586.922 2681,-576.743 2681,-567.728"/>
<polygon fill="midnightblue" stroke="midnightblue" points="2684.5,-567.571 2681,-557.571 2677.5,-567.571 2684.5,-567.571"/>
</g>
<!-- Node63&#45;&gt;Node9 -->
<g id="edge294" class="edge"><title>Node63&#45;&gt;Node9</title>
<path fill="none" stroke="midnightblue" d="M1271.16,-233.716C1268.41,-233.09 1265.67,-232.508 1263,-232 1131.95,-207.042 1093.7,-231.123 965,-196 933.992,-187.538 728.676,-94.5194 700,-80 682.589,-71.1845 680.505,-64.1969 662,-58 596.291,-35.9957 387.381,-18.9933 308.005,-13.1733"/>
<polygon fill="midnightblue" stroke="midnightblue" points="307.92,-9.658 297.693,-12.4269 307.414,-16.6397 307.92,-9.658"/>
</g>
<!-- Node63&#45;&gt;Node21 -->
<g id="edge296" class="edge"><title>Node63&#45;&gt;Node21</title>
<path fill="none" stroke="midnightblue" d="M1338.61,-240.901C1482.83,-231.897 2048.68,-196.57 2197.81,-187.259"/>
<polygon fill="midnightblue" stroke="midnightblue" points="2198.06,-190.751 2207.82,-186.635 2197.62,-183.765 2198.06,-190.751"/>
</g>
<!-- Node64&#45;&gt;Node3 -->
<g id="edge304" class="edge"><title>Node64&#45;&gt;Node3</title>
<path fill="none" stroke="midnightblue" d="M2622.81,-540.571C2525.53,-529.825 2330.3,-508.255 2225.79,-496.71"/>
<polygon fill="midnightblue" stroke="midnightblue" points="2225.98,-493.21 2215.66,-495.591 2225.21,-500.168 2225.98,-493.21"/>
</g>
<!-- Node64&#45;&gt;Node13 -->
<g id="edge306" class="edge"><title>Node64&#45;&gt;Node13</title>
<path fill="none" stroke="midnightblue" d="M2622.78,-543.8C2516.37,-537.635 2283.42,-522.687 2088,-500 1596.41,-442.931 1280.31,-663.223 1002,-254 968.153,-204.233 1061.67,-215.573 1081,-196 1110.77,-165.865 1126.06,-117.236 1132.72,-89.7186"/>
<polygon fill="midnightblue" stroke="midnightblue" points="1136.2,-90.1764 1135,-79.6507 1129.38,-88.6324 1136.2,-90.1764"/>
</g>
<!-- Node64&#45;&gt;Node19 -->
<g id="edge310" class="edge"><title>Node64&#45;&gt;Node19</title>
<path fill="none" stroke="midnightblue" d="M2739.16,-539.46C2785.57,-532.109 2845.18,-519.208 2860,-500 2933.44,-404.791 2871.26,-342.13 2823,-232 2811.1,-204.836 2814.44,-190.801 2790,-174 2743.82,-142.254 2571,-131.139 2505.96,-128.03"/>
<polygon fill="midnightblue" stroke="midnightblue" points="2505.95,-124.526 2495.8,-127.568 2505.63,-131.519 2505.95,-124.526"/>
</g>
<!-- Node64&#45;&gt;Node20 -->
<g id="edge312" class="edge"><title>Node64&#45;&gt;Node20</title>
<path fill="none" stroke="midnightblue" d="M2708.24,-536.475C2745.56,-520.066 2808,-484.602 2808,-431 2808,-431 2808,-431 2808,-366 2808,-276.977 2697.3,-218.4 2644.89,-195.658"/>
<polygon fill="midnightblue" stroke="midnightblue" points="2646.11,-192.372 2635.53,-191.709 2643.39,-198.821 2646.11,-192.372"/>
</g>
<!-- Node64&#45;&gt;Node21 -->
<g id="edge308" class="edge"><title>Node64&#45;&gt;Node21</title>
<path fill="none" stroke="midnightblue" d="M2667.51,-536.35C2626.19,-504.15 2496.93,-406.451 2377,-348 2332.28,-326.202 2310.51,-342.234 2271,-312 2246.33,-293.124 2241.06,-283.713 2232,-254 2227.2,-238.262 2228.12,-219.558 2230.01,-205.596"/>
<polygon fill="midnightblue" stroke="midnightblue" points="2233.49,-205.996 2231.64,-195.564 2226.58,-204.873 2233.49,-205.996"/>
</g>
<!-- Node64&#45;&gt;Node34 -->
<g id="edge300" class="edge"><title>Node64&#45;&gt;Node34</title>
<path fill="none" stroke="midnightblue" d="M2725.22,-536.418C2774.09,-521.776 2846,-490.178 2846,-431 2846,-431 2846,-431 2846,-366 2846,-345.186 2753.73,-189.312 2728,-174 2664.46,-136.181 2156.42,-128.769 1982.87,-127.337"/>
<polygon fill="midnightblue" stroke="midnightblue" points="1982.69,-123.836 1972.66,-127.257 1982.63,-130.836 1982.69,-123.836"/>
</g>
<!-- Node64&#45;&gt;Node54 -->
<g id="edge302" class="edge"><title>Node64&#45;&gt;Node54</title>
<path fill="none" stroke="midnightblue" d="M2681,-536.486C2681,-508.921 2681,-433.885 2681,-393.163"/>
<polygon fill="midnightblue" stroke="midnightblue" points="2684.5,-393.126 2681,-383.126 2677.5,-393.126 2684.5,-393.126"/>
</g>
<!-- Node67&#45;&gt;Node8 -->
<g id="edge342" class="edge"><title>Node67&#45;&gt;Node8</title>
<path fill="none" stroke="midnightblue" d="M3536.28,-478.383C3527.38,-457.371 3509,-408.806 3509,-366 3509,-366 3509,-366 3509,-127 3509,-87.783 3489.04,-75.6034 3454,-58 3390.16,-25.9342 2275.82,-13.3588 2070.41,-11.3084"/>
<polygon fill="midnightblue" stroke="midnightblue" points="2070.3,-7.80729 2060.26,-11.2084 2070.23,-14.8069 2070.3,-7.80729"/>
</g>
</g>
</svg>
