<?xml version="1.0" encoding="UTF-8" standalone="no"?>
<!DOCTYPE svg PUBLIC "-//W3C//DTD SVG 1.1//EN"
 "http://www.w3.org/Graphics/SVG/1.1/DTD/svg11.dtd">
<!-- Generated by graphviz version 2.26.3 (20100126.1600)
 -->
<!-- Title: src/expconfig/detectors/TAPSVeto.h Pages: 1 -->
<svg width="806pt" height="272pt"
 viewBox="0.00 0.00 806.00 272.00" xmlns="http://www.w3.org/2000/svg" xmlns:xlink="http://www.w3.org/1999/xlink">
<g id="graph1" class="graph" transform="scale(1 1) rotate(0) translate(4 268)">
<title>src/expconfig/detectors/TAPSVeto.h</title>
<polygon fill="white" stroke="white" points="-4,5 -4,-268 803,-268 803,5 -4,5"/>
<!-- Node1 -->
<g id="node1" class="node"><title>Node1</title>
<polygon fill="#bfbfbf" stroke="black" points="241.5,-229 241.5,-263 360.5,-263 360.5,-229 241.5,-229"/>
<text text-anchor="start" x="249.5" y="-250" font-family="Helvetica,sans-Serif" font-size="10.00">src/expconfig/detectors</text>
<text text-anchor="middle" x="301" y="-237" font-family="Helvetica,sans-Serif" font-size="10.00">/TAPSVeto.h</text>
</g>
<!-- Node2 -->
<g id="node3" class="node"><title>Node2</title>
<a xlink:href="_t_a_p_s_veto__2013___ba_f2__elements_8h.html" target="_top" xlink:title="src/expconfig/detectors\l/detail/TAPSVeto_2013\l_BaF2_elements.h">
<polygon fill="white" stroke="black" points="-0.5,-144.5 -0.5,-191.5 118.5,-191.5 118.5,-144.5 -0.5,-144.5"/>
<text text-anchor="start" x="7.5" y="-178.5" font-family="Helvetica,sans-Serif" font-size="10.00">src/expconfig/detectors</text>
<text text-anchor="start" x="7.5" y="-165.5" font-family="Helvetica,sans-Serif" font-size="10.00">/detail/TAPSVeto_2013</text>
<text text-anchor="middle" x="59" y="-152.5" font-family="Helvetica,sans-Serif" font-size="10.00">_BaF2_elements.h</text>
</a>
</g>
<!-- Node1&#45;&gt;Node2 -->
<g id="edge2" class="edge"><title>Node1&#45;&gt;Node2</title>
<path fill="none" stroke="midnightblue" d="M237.698,-225.911C205.95,-215.801 166.918,-203.318 132,-192 127.685,-190.601 123.229,-189.151 118.744,-187.687"/>
<polygon fill="midnightblue" stroke="midnightblue" points="236.714,-229.271 247.304,-228.969 238.837,-222.601 236.714,-229.271"/>
</g>
<!-- Node3 -->
<g id="node5" class="node"><title>Node3</title>
<a xlink:href="_t_a_p_s_veto_8cc.html" target="_top" xlink:title="src/expconfig/detectors\l/TAPSVeto.cc">
<polygon fill="white" stroke="black" points="103.5,-73 103.5,-107 222.5,-107 222.5,-73 103.5,-73"/>
<text text-anchor="start" x="111.5" y="-94" font-family="Helvetica,sans-Serif" font-size="10.00">src/expconfig/detectors</text>
<text text-anchor="middle" x="163" y="-81" font-family="Helvetica,sans-Serif" font-size="10.00">/TAPSVeto.cc</text>
</a>
</g>
<!-- Node1&#45;&gt;Node3 -->
<g id="edge14" class="edge"><title>Node1&#45;&gt;Node3</title>
<path fill="none" stroke="midnightblue" d="M231.4,-234.887C206.266,-227.176 180.334,-214.117 165,-192 147.542,-166.819 152.766,-129.09 157.989,-107.272"/>
<polygon fill="midnightblue" stroke="midnightblue" points="230.765,-238.345 241.339,-237.684 232.661,-231.606 230.765,-238.345"/>
</g>
<!-- Node4 -->
<g id="node7" class="node"><title>Node4</title>
<a xlink:href="_t_a_p_s_veto__2013___pb_w_o4__elements_8h.html" target="_top" xlink:title="src/expconfig/detectors\l/detail/TAPSVeto_2013\l_PbWO4_elements.h">
<polygon fill="white" stroke="black" points="173.5,-144.5 173.5,-191.5 292.5,-191.5 292.5,-144.5 173.5,-144.5"/>
<text text-anchor="start" x="181.5" y="-178.5" font-family="Helvetica,sans-Serif" font-size="10.00">src/expconfig/detectors</text>
<text text-anchor="start" x="181.5" y="-165.5" font-family="Helvetica,sans-Serif" font-size="10.00">/detail/TAPSVeto_2013</text>
<text text-anchor="middle" x="233" y="-152.5" font-family="Helvetica,sans-Serif" font-size="10.00">_PbWO4_elements.h</text>
</a>
</g>
<!-- Node1&#45;&gt;Node4 -->
<g id="edge6" class="edge"><title>Node1&#45;&gt;Node4</title>
<path fill="none" stroke="midnightblue" d="M279.333,-221.147C271.136,-211.744 261.831,-201.071 253.723,-191.77"/>
<polygon fill="midnightblue" stroke="midnightblue" points="276.699,-223.452 285.909,-228.689 281.975,-218.852 276.699,-223.452"/>
</g>
<!-- Node5 -->
<g id="node10" class="node"><title>Node5</title>
<a xlink:href="_t_a_p_s_veto__2014___ba_f2__elements_8h.html" target="_top" xlink:title="src/expconfig/detectors\l/detail/TAPSVeto_2014\l_BaF2_elements.h">
<polygon fill="white" stroke="black" points="309.5,-144.5 309.5,-191.5 428.5,-191.5 428.5,-144.5 309.5,-144.5"/>
<text text-anchor="start" x="317.5" y="-178.5" font-family="Helvetica,sans-Serif" font-size="10.00">src/expconfig/detectors</text>
<text text-anchor="start" x="317.5" y="-165.5" font-family="Helvetica,sans-Serif" font-size="10.00">/detail/TAPSVeto_2014</text>
<text text-anchor="middle" x="369" y="-152.5" font-family="Helvetica,sans-Serif" font-size="10.00">_BaF2_elements.h</text>
</a>
</g>
<!-- Node1&#45;&gt;Node5 -->
<g id="edge10" class="edge"><title>Node1&#45;&gt;Node5</title>
<path fill="none" stroke="midnightblue" d="M322.667,-221.147C330.864,-211.744 340.169,-201.071 348.277,-191.77"/>
<polygon fill="midnightblue" stroke="midnightblue" points="320.025,-218.852 316.091,-228.689 325.301,-223.452 320.025,-218.852"/>
</g>
<!-- Node6 -->
<g id="node14" class="node"><title>Node6</title>
<a xlink:href="_setup_8h.html" target="_top" xlink:title="src/expconfig/setups\l/Setup.h">
<polygon fill="white" stroke="black" points="445.5,-151 445.5,-185 552.5,-185 552.5,-151 445.5,-151"/>
<text text-anchor="start" x="453.5" y="-172" font-family="Helvetica,sans-Serif" font-size="10.00">src/expconfig/setups</text>
<text text-anchor="middle" x="499" y="-159" font-family="Helvetica,sans-Serif" font-size="10.00">/Setup.h</text>
</a>
</g>
<!-- Node1&#45;&gt;Node6 -->
<g id="edge16" class="edge"><title>Node1&#45;&gt;Node6</title>
<path fill="none" stroke="midnightblue" d="M354.038,-225.106C385.832,-212.581 425.754,-196.854 455.649,-185.078"/>
<polygon fill="midnightblue" stroke="midnightblue" points="352.473,-221.961 344.452,-228.883 355.039,-228.474 352.473,-221.961"/>
</g>
<!-- Node14 -->
<g id="node30" class="node"><title>Node14</title>
<a xlink:href="_candidate_builder_8cc.html" target="_top" xlink:title="src/reconstruct/Candidate\lBuilder.cc">
<polygon fill="white" stroke="black" points="569.5,-151 569.5,-185 698.5,-185 698.5,-151 569.5,-151"/>
<text text-anchor="start" x="577.5" y="-172" font-family="Helvetica,sans-Serif" font-size="10.00">src/reconstruct/Candidate</text>
<text text-anchor="middle" x="634" y="-159" font-family="Helvetica,sans-Serif" font-size="10.00">Builder.cc</text>
</a>
</g>
<!-- Node1&#45;&gt;Node14 -->
<g id="edge32" class="edge"><title>Node1&#45;&gt;Node14</title>
<path fill="none" stroke="midnightblue" d="M370.472,-233.779C423.13,-223.984 497.087,-209.085 561,-192 568.733,-189.933 576.851,-187.516 584.749,-185.028"/>
<polygon fill="midnightblue" stroke="midnightblue" points="369.763,-230.351 360.565,-235.608 371.034,-237.234 369.763,-230.351"/>
</g>
<!-- Node2&#45;&gt;Node3 -->
<g id="edge4" class="edge"><title>Node2&#45;&gt;Node3</title>
<path fill="none" stroke="midnightblue" d="M98.5879,-138.309C112.659,-127.756 128.017,-116.237 140.207,-107.095"/>
<polygon fill="midnightblue" stroke="midnightblue" points="96.3857,-135.586 90.4857,-144.386 100.586,-141.186 96.3857,-135.586"/>
</g>
<!-- Node4&#45;&gt;Node3 -->
<g id="edge8" class="edge"><title>Node4&#45;&gt;Node3</title>
<path fill="none" stroke="midnightblue" d="M204.841,-136.623C195.761,-126.506 186.043,-115.676 178.259,-107.003"/>
<polygon fill="midnightblue" stroke="midnightblue" points="202.333,-139.069 211.617,-144.174 207.543,-134.393 202.333,-139.069"/>
</g>
<!-- Node5&#45;&gt;Node3 -->
<g id="edge12" class="edge"><title>Node5&#45;&gt;Node3</title>
<path fill="none" stroke="midnightblue" d="M299.763,-141.784C269.51,-130.329 234.888,-117.22 208.048,-107.057"/>
<polygon fill="midnightblue" stroke="midnightblue" points="298.825,-145.171 309.416,-145.439 301.304,-138.625 298.825,-145.171"/>
</g>
<!-- Node7 -->
<g id="node16" class="node"><title>Node7</title>
<a xlink:href="_exp_config_8cc.html" target="_top" xlink:title="src/expconfig/ExpConfig.cc">
<polygon fill="white" stroke="black" points="273.5,-79.5 273.5,-100.5 410.5,-100.5 410.5,-79.5 273.5,-79.5"/>
<text text-anchor="middle" x="342" y="-87.5" font-family="Helvetica,sans-Serif" font-size="10.00">src/expconfig/ExpConfig.cc</text>
</a>
</g>
<!-- Node6&#45;&gt;Node7 -->
<g id="edge18" class="edge"><title>Node6&#45;&gt;Node7</title>
<path fill="none" stroke="midnightblue" d="M455.535,-146.406C425.528,-131.498 386.929,-112.321 363.349,-100.606"/>
<polygon fill="midnightblue" stroke="midnightblue" points="454.033,-149.568 464.546,-150.883 457.147,-143.299 454.033,-149.568"/>
</g>
<!-- Node8 -->
<g id="node18" class="node"><title>Node8</title>
<a xlink:href="_setup__2014___e_p_t_8h.html" target="_top" xlink:title="src/expconfig/setups\l/Setup_2014_EPT.h">
<polygon fill="white" stroke="black" points="427.5,-73 427.5,-107 534.5,-107 534.5,-73 427.5,-73"/>
<text text-anchor="start" x="435.5" y="-94" font-family="Helvetica,sans-Serif" font-size="10.00">src/expconfig/setups</text>
<text text-anchor="middle" x="481" y="-81" font-family="Helvetica,sans-Serif" font-size="10.00">/Setup_2014_EPT.h</text>
</a>
</g>
<!-- Node6&#45;&gt;Node8 -->
<g id="edge20" class="edge"><title>Node6&#45;&gt;Node8</title>
<path fill="none" stroke="midnightblue" d="M492.679,-140.61C490.12,-129.519 487.242,-117.049 484.984,-107.262"/>
<polygon fill="midnightblue" stroke="midnightblue" points="489.346,-141.732 495.005,-150.689 496.167,-140.158 489.346,-141.732"/>
</g>
<!-- Node12 -->
<g id="node26" class="node"><title>Node12</title>
<a xlink:href="_setup__2015__dummy_8cc.html" target="_top" xlink:title="src/expconfig/setups\l/Setup_2015_dummy.cc">
<polygon fill="white" stroke="black" points="552,-73 552,-107 674,-107 674,-73 552,-73"/>
<text text-anchor="start" x="560" y="-94" font-family="Helvetica,sans-Serif" font-size="10.00">src/expconfig/setups</text>
<text text-anchor="middle" x="613" y="-81" font-family="Helvetica,sans-Serif" font-size="10.00">/Setup_2015_dummy.cc</text>
</a>
</g>
<!-- Node6&#45;&gt;Node12 -->
<g id="edge28" class="edge"><title>Node6&#45;&gt;Node12</title>
<path fill="none" stroke="midnightblue" d="M532.414,-145.138C550.205,-132.965 571.719,-118.245 588.041,-107.078"/>
<polygon fill="midnightblue" stroke="midnightblue" points="530.294,-142.347 524.018,-150.883 534.247,-148.124 530.294,-142.347"/>
</g>
<!-- Node13 -->
<g id="node28" class="node"><title>Node13</title>
<a xlink:href="_setup_registry_8cc.html" target="_top" xlink:title="src/expconfig/setups\l/SetupRegistry.cc">
<polygon fill="white" stroke="black" points="691.5,-73 691.5,-107 798.5,-107 798.5,-73 691.5,-73"/>
<text text-anchor="start" x="699.5" y="-94" font-family="Helvetica,sans-Serif" font-size="10.00">src/expconfig/setups</text>
<text text-anchor="middle" x="745" y="-81" font-family="Helvetica,sans-Serif" font-size="10.00">/SetupRegistry.cc</text>
</a>
</g>
<!-- Node6&#45;&gt;Node13 -->
<g id="edge30" class="edge"><title>Node6&#45;&gt;Node13</title>
<path fill="none" stroke="midnightblue" d="M551.486,-147.332C554.696,-146.178 557.885,-145.058 561,-144 567.383,-141.832 639.371,-120.784 691.376,-105.618"/>
<polygon fill="midnightblue" stroke="midnightblue" points="550.032,-144.138 541.855,-150.875 552.448,-150.708 550.032,-144.138"/>
</g>
<!-- Node9 -->
<g id="node20" class="node"><title>Node9</title>
<a xlink:href="_setup__2014__07___e_p_t___prod_8cc.html" target="_top" xlink:title="src/expconfig/setups\l/Setup_2014_07_EPT_Prod.cc">
<polygon fill="white" stroke="black" points="237.5,-1 237.5,-35 388.5,-35 388.5,-1 237.5,-1"/>
<text text-anchor="start" x="245.5" y="-22" font-family="Helvetica,sans-Serif" font-size="10.00">src/expconfig/setups</text>
<text text-anchor="middle" x="313" y="-9" font-family="Helvetica,sans-Serif" font-size="10.00">/Setup_2014_07_EPT_Prod.cc</text>
</a>
</g>
<!-- Node8&#45;&gt;Node9 -->
<g id="edge22" class="edge"><title>Node8&#45;&gt;Node9</title>
<path fill="none" stroke="midnightblue" d="M431.822,-68.9238C406.68,-58.1485 376.48,-45.2059 352.819,-35.0651"/>
<polygon fill="midnightblue" stroke="midnightblue" points="430.616,-72.2148 441.186,-72.937 433.374,-65.7807 430.616,-72.2148"/>
</g>
<!-- Node10 -->
<g id="node22" class="node"><title>Node10</title>
<a xlink:href="_setup__2014__10___e_p_t___prod_8cc.html" target="_top" xlink:title="src/expconfig/setups\l/Setup_2014_10_EPT_Prod.cc">
<polygon fill="white" stroke="black" points="405.5,-1 405.5,-35 556.5,-35 556.5,-1 405.5,-1"/>
<text text-anchor="start" x="413.5" y="-22" font-family="Helvetica,sans-Serif" font-size="10.00">src/expconfig/setups</text>
<text text-anchor="middle" x="481" y="-9" font-family="Helvetica,sans-Serif" font-size="10.00">/Setup_2014_10_EPT_Prod.cc</text>
</a>
</g>
<!-- Node8&#45;&gt;Node10 -->
<g id="edge24" class="edge"><title>Node8&#45;&gt;Node10</title>
<path fill="none" stroke="midnightblue" d="M481,-62.7193C481,-53.572 481,-43.6255 481,-35.4407"/>
<polygon fill="midnightblue" stroke="midnightblue" points="477.5,-62.937 481,-72.937 484.5,-62.937 477.5,-62.937"/>
</g>
<!-- Node11 -->
<g id="node24" class="node"><title>Node11</title>
<a xlink:href="_setup__2014__12___e_p_t___prod_8cc.html" target="_top" xlink:title="src/expconfig/setups\l/Setup_2014_12_EPT_Prod.cc">
<polygon fill="white" stroke="black" points="573.5,-1 573.5,-35 724.5,-35 724.5,-1 573.5,-1"/>
<text text-anchor="start" x="581.5" y="-22" font-family="Helvetica,sans-Serif" font-size="10.00">src/expconfig/setups</text>
<text text-anchor="middle" x="649" y="-9" font-family="Helvetica,sans-Serif" font-size="10.00">/Setup_2014_12_EPT_Prod.cc</text>
</a>
</g>
<!-- Node8&#45;&gt;Node11 -->
<g id="edge26" class="edge"><title>Node8&#45;&gt;Node11</title>
<path fill="none" stroke="midnightblue" d="M530.178,-68.9238C555.32,-58.1485 585.52,-45.2059 609.181,-35.0651"/>
<polygon fill="midnightblue" stroke="midnightblue" points="528.626,-65.7807 520.814,-72.937 531.384,-72.2148 528.626,-65.7807"/>
</g>
</g>
</svg>
