<?xml version="1.0" encoding="UTF-8" standalone="no"?>
<!DOCTYPE svg PUBLIC "-//W3C//DTD SVG 1.1//EN"
 "http://www.w3.org/Graphics/SVG/1.1/DTD/svg11.dtd">
<!-- Generated by graphviz version 2.26.3 (20100126.1600)
 -->
<!-- Title: src/tree/TCluster.h Pages: 1 -->
<svg width="1013pt" height="320pt"
 viewBox="0.00 0.00 1013.00 320.00" xmlns="http://www.w3.org/2000/svg" xmlns:xlink="http://www.w3.org/1999/xlink">
<g id="graph1" class="graph" transform="scale(1 1) rotate(0) translate(4 316)">
<title>src/tree/TCluster.h</title>
<polygon fill="white" stroke="white" points="-4,5 -4,-316 1010,-316 1010,5 -4,5"/>
<!-- Node1 -->
<g id="node1" class="node"><title>Node1</title>
<polygon fill="#bfbfbf" stroke="black" points="691,-290.5 691,-311.5 789,-311.5 789,-290.5 691,-290.5"/>
<text text-anchor="middle" x="740" y="-298.5" font-family="Helvetica,sans-Serif" font-size="10.00">src/tree/TCluster.h</text>
</g>
<!-- Node2 -->
<g id="node3" class="node"><title>Node2</title>
<a xlink:href="_t_data_record_8h.html" target="_top" xlink:title="TDataRecord.h">
<polygon fill="white" stroke="black" points="123.5,-232.5 123.5,-253.5 206.5,-253.5 206.5,-232.5 123.5,-232.5"/>
<text text-anchor="middle" x="165" y="-240.5" font-family="Helvetica,sans-Serif" font-size="10.00">TDataRecord.h</text>
</a>
</g>
<!-- Node1&#45;&gt;Node2 -->
<g id="edge2" class="edge"><title>Node1&#45;&gt;Node2</title>
<path fill="none" stroke="midnightblue" d="M690.735,-297.312C600.682,-290.364 403.524,-274.203 238,-254 231.162,-253.165 223.977,-252.196 216.893,-251.186"/>
<polygon fill="midnightblue" stroke="midnightblue" points="217.038,-247.67 206.637,-249.687 216.026,-254.597 217.038,-247.67"/>
</g>
<!-- Node6 -->
<g id="node11" class="node"><title>Node6</title>
<polygon fill="white" stroke="#bfbfbf" points="772,-58.5 772,-79.5 816,-79.5 816,-58.5 772,-58.5"/>
<text text-anchor="middle" x="794" y="-66.5" font-family="Helvetica,sans-Serif" font-size="10.00">vector</text>
</g>
<!-- Node1&#45;&gt;Node6 -->
<g id="edge48" class="edge"><title>Node1&#45;&gt;Node6</title>
<path fill="none" stroke="midnightblue" d="M744.914,-290.237C756.332,-264.567 784.409,-197.45 794,-138 796.564,-122.108 796.436,-103.889 795.736,-90.1637"/>
<polygon fill="midnightblue" stroke="midnightblue" points="799.206,-89.5913 795.06,-79.8415 792.221,-90.0489 799.206,-89.5913"/>
</g>
<!-- Node11 -->
<g id="node21" class="node"><title>Node11</title>
<polygon fill="white" stroke="#bfbfbf" points="144,-0.5 144,-21.5 196,-21.5 196,-0.5 144,-0.5"/>
<text text-anchor="middle" x="170" y="-8.5" font-family="Helvetica,sans-Serif" font-size="10.00">sstream</text>
</g>
<!-- Node1&#45;&gt;Node11 -->
<g id="edge54" class="edge"><title>Node1&#45;&gt;Node11</title>
<path fill="none" stroke="midnightblue" d="M690.944,-300.225C563.075,-297.742 222.072,-288.031 115,-254 58.1949,-235.945 7.10543e-15,-244.605 0,-185 0,-185 0,-185 0,-127 0,-62.6526 84.1321,-31.4326 134.025,-18.5758"/>
<polygon fill="midnightblue" stroke="midnightblue" points="134.932,-21.957 143.81,-16.1751 133.264,-15.1586 134.932,-21.957"/>
</g>
<!-- Node19 -->
<g id="node37" class="node"><title>Node19</title>
<polygon fill="white" stroke="#bfbfbf" points="140,-116.5 140,-137.5 190,-137.5 190,-116.5 140,-116.5"/>
<text text-anchor="middle" x="165" y="-124.5" font-family="Helvetica,sans-Serif" font-size="10.00">iomanip</text>
</g>
<!-- Node1&#45;&gt;Node19 -->
<g id="edge52" class="edge"><title>Node1&#45;&gt;Node19</title>
<path fill="none" stroke="midnightblue" d="M690.952,-294.176C606.665,-281.449 429.817,-250.337 289,-196 252.518,-181.923 213.608,-158.777 189.304,-143.22"/>
<polygon fill="midnightblue" stroke="midnightblue" points="191.034,-140.17 180.74,-137.663 187.224,-146.042 191.034,-140.17"/>
</g>
<!-- Node20 -->
<g id="node43" class="node"><title>Node20</title>
<polygon fill="white" stroke="#bfbfbf" points="859.5,-116.5 859.5,-137.5 924.5,-137.5 924.5,-116.5 859.5,-116.5"/>
<text text-anchor="middle" x="892" y="-124.5" font-family="Helvetica,sans-Serif" font-size="10.00">TVector3.h</text>
</g>
<!-- Node1&#45;&gt;Node20 -->
<g id="edge46" class="edge"><title>Node1&#45;&gt;Node20</title>
<path fill="none" stroke="midnightblue" d="M789.065,-290.422C810.978,-283.42 835.519,-272.075 852,-254 879.378,-223.974 888.017,-175.304 890.743,-147.751"/>
<polygon fill="midnightblue" stroke="midnightblue" points="894.241,-147.92 891.567,-137.668 887.264,-147.35 894.241,-147.92"/>
</g>
<!-- Node21 -->
<g id="node46" class="node"><title>Node21</title>
<polygon fill="white" stroke="#bfbfbf" points="799,-232.5 799,-253.5 843,-253.5 843,-232.5 799,-232.5"/>
<text text-anchor="middle" x="821" y="-240.5" font-family="Helvetica,sans-Serif" font-size="10.00">cmath</text>
</g>
<!-- Node1&#45;&gt;Node21 -->
<g id="edge50" class="edge"><title>Node1&#45;&gt;Node21</title>
<path fill="none" stroke="midnightblue" d="M754.857,-290.362C766.846,-281.777 783.927,-269.546 797.728,-259.664"/>
<polygon fill="midnightblue" stroke="midnightblue" points="800.145,-262.238 806.238,-253.571 796.069,-256.547 800.145,-262.238"/>
</g>
<!-- Node22 -->
<g id="node50" class="node"><title>Node22</title>
<a xlink:href="root__printable_8h.html" target="_top" xlink:title="base/root_printable.h">
<polygon fill="white" stroke="black" points="898.5,-174.5 898.5,-195.5 1005.5,-195.5 1005.5,-174.5 898.5,-174.5"/>
<text text-anchor="middle" x="952" y="-182.5" font-family="Helvetica,sans-Serif" font-size="10.00">base/root_printable.h</text>
</a>
</g>
<!-- Node1&#45;&gt;Node22 -->
<g id="edge56" class="edge"><title>Node1&#45;&gt;Node22</title>
<path fill="none" stroke="midnightblue" d="M789.238,-291.346C818.574,-284.107 855.682,-272.25 885,-254 906.211,-240.797 925.516,-219.455 937.897,-203.999"/>
<polygon fill="midnightblue" stroke="midnightblue" points="940.983,-205.731 944.349,-195.685 935.453,-201.44 940.983,-205.731"/>
</g>
<!-- Node23 -->
<g id="node54" class="node"><title>Node23</title>
<a xlink:href="_detector__t_8h.html" target="_top" xlink:title="base/Detector_t.h">
<polygon fill="white" stroke="black" points="639.5,-174.5 639.5,-195.5 734.5,-195.5 734.5,-174.5 639.5,-174.5"/>
<text text-anchor="middle" x="687" y="-182.5" font-family="Helvetica,sans-Serif" font-size="10.00">base/Detector_t.h</text>
</a>
</g>
<!-- Node1&#45;&gt;Node23 -->
<g id="edge62" class="edge"><title>Node1&#45;&gt;Node23</title>
<path fill="none" stroke="midnightblue" d="M735.109,-290.295C726.235,-270.872 707.358,-229.556 696.068,-204.846"/>
<polygon fill="midnightblue" stroke="midnightblue" points="699.219,-203.32 691.879,-195.679 692.852,-206.229 699.219,-203.32"/>
</g>
<!-- Node3 -->
<g id="node5" class="node"><title>Node3</title>
<a xlink:href="_t_i_d_8h.html" target="_top" xlink:title="TID.h">
<polygon fill="white" stroke="black" points="297.5,-174.5 297.5,-195.5 338.5,-195.5 338.5,-174.5 297.5,-174.5"/>
<text text-anchor="middle" x="318" y="-182.5" font-family="Helvetica,sans-Serif" font-size="10.00">TID.h</text>
</a>
</g>
<!-- Node2&#45;&gt;Node3 -->
<g id="edge4" class="edge"><title>Node2&#45;&gt;Node3</title>
<path fill="none" stroke="midnightblue" d="M192.707,-232.497C219.551,-222.321 260.15,-206.93 287.806,-196.446"/>
<polygon fill="midnightblue" stroke="midnightblue" points="289.25,-199.642 297.36,-192.824 286.768,-193.097 289.25,-199.642"/>
</g>
<!-- Node4 -->
<g id="node7" class="node"><title>Node4</title>
<polygon fill="white" stroke="#bfbfbf" points="66,-116.5 66,-137.5 122,-137.5 122,-116.5 66,-116.5"/>
<text text-anchor="middle" x="94" y="-124.5" font-family="Helvetica,sans-Serif" font-size="10.00">Rtypes.h</text>
</g>
<!-- Node2&#45;&gt;Node4 -->
<g id="edge40" class="edge"><title>Node2&#45;&gt;Node4</title>
<path fill="none" stroke="midnightblue" d="M158.448,-232.295C146.507,-212.786 121.046,-171.188 105.946,-146.518"/>
<polygon fill="midnightblue" stroke="midnightblue" points="108.742,-144.381 100.536,-137.679 102.772,-148.036 108.742,-144.381"/>
</g>
<!-- Node14 -->
<g id="node27" class="node"><title>Node14</title>
<polygon fill="white" stroke="#bfbfbf" points="197.5,-58.5 197.5,-79.5 238.5,-79.5 238.5,-58.5 197.5,-58.5"/>
<text text-anchor="middle" x="218" y="-66.5" font-family="Helvetica,sans-Serif" font-size="10.00">ctime</text>
</g>
<!-- Node2&#45;&gt;Node14 -->
<g id="edge44" class="edge"><title>Node2&#45;&gt;Node14</title>
<path fill="none" stroke="midnightblue" d="M143.759,-232.495C103.528,-211.207 23.1419,-161.155 57,-116 72.6203,-95.1678 144.992,-80.5042 187.198,-73.5575"/>
<polygon fill="midnightblue" stroke="midnightblue" points="187.901,-76.9897 197.225,-71.9586 186.799,-70.077 187.901,-76.9897"/>
</g>
<!-- Node2&#45;&gt;Node19 -->
<g id="edge42" class="edge"><title>Node2&#45;&gt;Node19</title>
<path fill="none" stroke="midnightblue" d="M165,-232.295C165,-213.131 165,-172.654 165,-147.843"/>
<polygon fill="midnightblue" stroke="midnightblue" points="168.5,-147.679 165,-137.679 161.5,-147.679 168.5,-147.679"/>
</g>
<!-- Node3&#45;&gt;Node4 -->
<g id="edge6" class="edge"><title>Node3&#45;&gt;Node4</title>
<path fill="none" stroke="midnightblue" d="M297.449,-180.139C264.557,-172.294 197.852,-156.119 131.958,-138.19"/>
<polygon fill="midnightblue" stroke="midnightblue" points="132.815,-134.796 122.246,-135.533 130.968,-141.548 132.815,-134.796"/>
</g>
<!-- Node5 -->
<g id="node9" class="node"><title>Node5</title>
<a xlink:href="printable_8h.html" target="_top" xlink:title="base/printable.h">
<polygon fill="white" stroke="black" points="680,-116.5 680,-137.5 766,-137.5 766,-116.5 680,-116.5"/>
<text text-anchor="middle" x="723" y="-124.5" font-family="Helvetica,sans-Serif" font-size="10.00">base/printable.h</text>
</a>
</g>
<!-- Node3&#45;&gt;Node5 -->
<g id="edge8" class="edge"><title>Node3&#45;&gt;Node5</title>
<path fill="none" stroke="midnightblue" d="M338.641,-182.044C399.484,-173.331 579.511,-147.549 669.927,-134.601"/>
<polygon fill="midnightblue" stroke="midnightblue" points="670.567,-138.045 679.97,-133.162 669.574,-131.115 670.567,-138.045"/>
</g>
<!-- Node8 -->
<g id="node15" class="node"><title>Node8</title>
<a xlink:href="time_8h.html" target="_top" xlink:title="base/std_ext/time.h">
<polygon fill="white" stroke="black" points="301.5,-116.5 301.5,-137.5 404.5,-137.5 404.5,-116.5 301.5,-116.5"/>
<text text-anchor="middle" x="353" y="-124.5" font-family="Helvetica,sans-Serif" font-size="10.00">base/std_ext/time.h</text>
</a>
</g>
<!-- Node3&#45;&gt;Node8 -->
<g id="edge14" class="edge"><title>Node3&#45;&gt;Node8</title>
<path fill="none" stroke="midnightblue" d="M324.42,-174.362C329.156,-166.513 335.732,-155.616 341.382,-146.253"/>
<polygon fill="midnightblue" stroke="midnightblue" points="344.451,-147.941 346.621,-137.571 338.458,-144.324 344.451,-147.941"/>
</g>
<!-- Node3&#45;&gt;Node14 -->
<g id="edge38" class="edge"><title>Node3&#45;&gt;Node14</title>
<path fill="none" stroke="midnightblue" d="M297.31,-178.144C278.836,-170.977 252.388,-157.957 237,-138 226.359,-124.2 221.675,-104.811 219.614,-90.0988"/>
<polygon fill="midnightblue" stroke="midnightblue" points="223.068,-89.4868 218.495,-79.9299 216.11,-90.2529 223.068,-89.4868"/>
</g>
<!-- Node15 -->
<g id="node29" class="node"><title>Node15</title>
<polygon fill="white" stroke="#bfbfbf" points="562,-116.5 562,-137.5 624,-137.5 624,-116.5 562,-116.5"/>
<text text-anchor="middle" x="593" y="-124.5" font-family="Helvetica,sans-Serif" font-size="10.00">type_traits</text>
</g>
<!-- Node3&#45;&gt;Node15 -->
<g id="edge28" class="edge"><title>Node3&#45;&gt;Node15</title>
<path fill="none" stroke="midnightblue" d="M338.538,-181.399C377.995,-174.374 467.302,-157.955 551.859,-138.162"/>
<polygon fill="midnightblue" stroke="midnightblue" points="552.684,-141.563 561.611,-135.858 551.075,-134.751 552.684,-141.563"/>
</g>
<!-- Node16 -->
<g id="node31" class="node"><title>Node16</title>
<polygon fill="white" stroke="#bfbfbf" points="246,-116.5 246,-137.5 284,-137.5 284,-116.5 246,-116.5"/>
<text text-anchor="middle" x="265" y="-124.5" font-family="Helvetica,sans-Serif" font-size="10.00">tuple</text>
</g>
<!-- Node3&#45;&gt;Node16 -->
<g id="edge30" class="edge"><title>Node3&#45;&gt;Node16</title>
<path fill="none" stroke="midnightblue" d="M308.279,-174.362C300.808,-166.186 290.314,-154.702 281.531,-145.091"/>
<polygon fill="midnightblue" stroke="midnightblue" points="283.989,-142.592 274.659,-137.571 278.821,-147.314 283.989,-142.592"/>
</g>
<!-- Node17 -->
<g id="node33" class="node"><title>Node17</title>
<polygon fill="white" stroke="#bfbfbf" points="422,-116.5 422,-137.5 468,-137.5 468,-116.5 422,-116.5"/>
<text text-anchor="middle" x="445" y="-124.5" font-family="Helvetica,sans-Serif" font-size="10.00">cstdint</text>
</g>
<!-- Node3&#45;&gt;Node17 -->
<g id="edge32" class="edge"><title>Node3&#45;&gt;Node17</title>
<path fill="none" stroke="midnightblue" d="M338.687,-175.552C358.703,-166.411 389.34,-152.419 412.593,-141.8"/>
<polygon fill="midnightblue" stroke="midnightblue" points="414.094,-144.962 421.736,-137.624 411.186,-138.595 414.094,-144.962"/>
</g>
<!-- Node18 -->
<g id="node35" class="node"><title>Node18</title>
<polygon fill="white" stroke="#bfbfbf" points="485.5,-116.5 485.5,-137.5 544.5,-137.5 544.5,-116.5 485.5,-116.5"/>
<text text-anchor="middle" x="515" y="-124.5" font-family="Helvetica,sans-Serif" font-size="10.00">stdexcept</text>
</g>
<!-- Node3&#45;&gt;Node18 -->
<g id="edge34" class="edge"><title>Node3&#45;&gt;Node18</title>
<path fill="none" stroke="midnightblue" d="M338.71,-178.903C371.108,-169.364 434.333,-150.75 475.599,-138.6"/>
<polygon fill="midnightblue" stroke="midnightblue" points="476.725,-141.917 485.33,-135.735 474.748,-135.202 476.725,-141.917"/>
</g>
<!-- Node3&#45;&gt;Node19 -->
<g id="edge36" class="edge"><title>Node3&#45;&gt;Node19</title>
<path fill="none" stroke="midnightblue" d="M297.366,-177.178C272.376,-167.705 229.899,-151.602 199.81,-140.196"/>
<polygon fill="midnightblue" stroke="midnightblue" points="200.716,-136.796 190.124,-136.524 198.234,-143.342 200.716,-136.796"/>
</g>
<!-- Node5&#45;&gt;Node6 -->
<g id="edge10" class="edge"><title>Node5&#45;&gt;Node6</title>
<path fill="none" stroke="midnightblue" d="M736.022,-116.362C746.431,-107.859 761.219,-95.7785 773.255,-85.9466"/>
<polygon fill="midnightblue" stroke="midnightblue" points="775.53,-88.6077 781.06,-79.5707 771.101,-83.1866 775.53,-88.6077"/>
</g>
<!-- Node7 -->
<g id="node13" class="node"><title>Node7</title>
<polygon fill="white" stroke="#bfbfbf" points="880,-58.5 880,-79.5 932,-79.5 932,-58.5 880,-58.5"/>
<text text-anchor="middle" x="906" y="-66.5" font-family="Helvetica,sans-Serif" font-size="10.00">ostream</text>
</g>
<!-- Node5&#45;&gt;Node7 -->
<g id="edge12" class="edge"><title>Node5&#45;&gt;Node7</title>
<path fill="none" stroke="midnightblue" d="M756.14,-116.497C788.343,-106.29 837.099,-90.8374 870.183,-80.3517"/>
<polygon fill="midnightblue" stroke="midnightblue" points="871.437,-83.6261 879.912,-77.2683 869.322,-76.9533 871.437,-83.6261"/>
</g>
<!-- Node9 -->
<g id="node17" class="node"><title>Node9</title>
<a xlink:href="string_8h.html" target="_top" xlink:title="base/std_ext/string.h">
<polygon fill="white" stroke="black" points="357,-58.5 357,-79.5 465,-79.5 465,-58.5 357,-58.5"/>
<text text-anchor="middle" x="411" y="-66.5" font-family="Helvetica,sans-Serif" font-size="10.00">base/std_ext/string.h</text>
</a>
</g>
<!-- Node8&#45;&gt;Node9 -->
<g id="edge16" class="edge"><title>Node8&#45;&gt;Node9</title>
<path fill="none" stroke="midnightblue" d="M363.638,-116.362C371.896,-108.104 383.528,-96.4725 393.197,-86.8029"/>
<polygon fill="midnightblue" stroke="midnightblue" points="395.833,-89.1166 400.429,-79.5707 390.883,-84.1669 395.833,-89.1166"/>
</g>
<!-- Node13 -->
<g id="node25" class="node"><title>Node13</title>
<polygon fill="white" stroke="#bfbfbf" points="293,-58.5 293,-79.5 339,-79.5 339,-58.5 293,-58.5"/>
<text text-anchor="middle" x="316" y="-66.5" font-family="Helvetica,sans-Serif" font-size="10.00">cstring</text>
</g>
<!-- Node8&#45;&gt;Node13 -->
<g id="edge24" class="edge"><title>Node8&#45;&gt;Node13</title>
<path fill="none" stroke="midnightblue" d="M346.214,-116.362C341.207,-108.513 334.255,-97.6159 328.282,-88.2527"/>
<polygon fill="midnightblue" stroke="midnightblue" points="331.072,-86.1189 322.743,-79.5707 325.171,-89.8837 331.072,-86.1189"/>
</g>
<!-- Node8&#45;&gt;Node14 -->
<g id="edge26" class="edge"><title>Node8&#45;&gt;Node14</title>
<path fill="none" stroke="midnightblue" d="M328.553,-116.497C305.98,-106.799 272.384,-92.365 248.155,-81.9556"/>
<polygon fill="midnightblue" stroke="midnightblue" points="249.297,-78.6369 238.728,-77.9052 246.534,-85.0684 249.297,-78.6369"/>
</g>
<!-- Node10 -->
<g id="node19" class="node"><title>Node10</title>
<polygon fill="white" stroke="#bfbfbf" points="543.5,-0.5 543.5,-21.5 584.5,-21.5 584.5,-0.5 543.5,-0.5"/>
<text text-anchor="middle" x="564" y="-8.5" font-family="Helvetica,sans-Serif" font-size="10.00">string</text>
</g>
<!-- Node9&#45;&gt;Node10 -->
<g id="edge18" class="edge"><title>Node9&#45;&gt;Node10</title>
<path fill="none" stroke="midnightblue" d="M438.707,-58.4966C465.551,-48.3207 506.15,-32.93 533.806,-22.4462"/>
<polygon fill="midnightblue" stroke="midnightblue" points="535.25,-25.642 543.36,-18.8245 532.768,-19.0965 535.25,-25.642"/>
</g>
<!-- Node9&#45;&gt;Node11 -->
<g id="edge20" class="edge"><title>Node9&#45;&gt;Node11</title>
<path fill="none" stroke="midnightblue" d="M367.357,-58.4966C321.145,-47.375 249.05,-30.0244 205.978,-19.6586"/>
<polygon fill="midnightblue" stroke="midnightblue" points="206.748,-16.2441 196.207,-17.307 205.11,-23.0498 206.748,-16.2441"/>
</g>
<!-- Node12 -->
<g id="node23" class="node"><title>Node12</title>
<polygon fill="white" stroke="#bfbfbf" points="383,-0.5 383,-21.5 439,-21.5 439,-0.5 383,-0.5"/>
<text text-anchor="middle" x="411" y="-8.5" font-family="Helvetica,sans-Serif" font-size="10.00">algorithm</text>
</g>
<!-- Node9&#45;&gt;Node12 -->
<g id="edge22" class="edge"><title>Node9&#45;&gt;Node12</title>
<path fill="none" stroke="midnightblue" d="M411,-58.3619C411,-50.9219 411,-40.7427 411,-31.7276"/>
<polygon fill="midnightblue" stroke="midnightblue" points="414.5,-31.5706 411,-21.5707 407.5,-31.5707 414.5,-31.5706"/>
</g>
<!-- Node22&#45;&gt;Node7 -->
<g id="edge58" class="edge"><title>Node22&#45;&gt;Node7</title>
<path fill="none" stroke="midnightblue" d="M949.962,-174.439C947.108,-160.659 941.321,-135.954 933,-116 929.053,-106.534 923.573,-96.6098 918.581,-88.3329"/>
<polygon fill="midnightblue" stroke="midnightblue" points="921.521,-86.4332 913.26,-79.8001 915.581,-90.1374 921.521,-86.4332"/>
</g>
<!-- Node22&#45;&gt;Node20 -->
<g id="edge60" class="edge"><title>Node22&#45;&gt;Node20</title>
<path fill="none" stroke="midnightblue" d="M940.995,-174.362C932.453,-166.104 920.42,-154.472 910.417,-144.803"/>
<polygon fill="midnightblue" stroke="midnightblue" points="912.558,-142.004 902.935,-137.571 907.692,-147.037 912.558,-142.004"/>
</g>
<!-- Node23&#45;&gt;Node5 -->
<g id="edge64" class="edge"><title>Node23&#45;&gt;Node5</title>
<path fill="none" stroke="midnightblue" d="M693.603,-174.362C698.475,-166.513 705.238,-155.616 711.05,-146.253"/>
<polygon fill="midnightblue" stroke="midnightblue" points="714.139,-147.913 716.439,-137.571 708.191,-144.221 714.139,-147.913"/>
</g>
<!-- Node23&#45;&gt;Node6 -->
<g id="edge76" class="edge"><title>Node23&#45;&gt;Node6</title>
<path fill="none" stroke="midnightblue" d="M720.616,-174.487C739.155,-167.065 761.155,-155.315 775,-138 786.006,-124.235 790.649,-104.541 792.601,-89.7134"/>
<polygon fill="midnightblue" stroke="midnightblue" points="796.109,-89.8031 793.63,-79.5025 789.145,-89.1011 796.109,-89.8031"/>
</g>
<!-- Node23&#45;&gt;Node10 -->
<g id="edge72" class="edge"><title>Node23&#45;&gt;Node10</title>
<path fill="none" stroke="midnightblue" d="M679.491,-174.377C659.296,-145.809 603.598,-67.017 577.643,-30.2999"/>
<polygon fill="midnightblue" stroke="midnightblue" points="580.355,-28.0732 571.725,-21.9277 574.639,-32.1138 580.355,-28.0732"/>
</g>
<!-- Node23&#45;&gt;Node15 -->
<g id="edge74" class="edge"><title>Node23&#45;&gt;Node15</title>
<path fill="none" stroke="midnightblue" d="M669.759,-174.362C655.448,-165.532 634.885,-152.844 618.643,-142.822"/>
<polygon fill="midnightblue" stroke="midnightblue" points="620.48,-139.843 610.132,-137.571 616.804,-145.8 620.48,-139.843"/>
</g>
<!-- Node23&#45;&gt;Node17 -->
<g id="edge68" class="edge"><title>Node23&#45;&gt;Node17</title>
<path fill="none" stroke="midnightblue" d="M639.083,-175.852C598.445,-167.741 538.475,-154.94 478.027,-138.091"/>
<polygon fill="midnightblue" stroke="midnightblue" points="478.899,-134.7 468.324,-135.352 476.997,-141.437 478.899,-134.7"/>
</g>
<!-- Node23&#45;&gt;Node18 -->
<g id="edge70" class="edge"><title>Node23&#45;&gt;Node18</title>
<path fill="none" stroke="midnightblue" d="M655.852,-174.497C627.375,-164.894 585.125,-150.647 554.33,-140.262"/>
<polygon fill="midnightblue" stroke="midnightblue" points="555.359,-136.916 544.765,-137.037 553.123,-143.549 555.359,-136.916"/>
</g>
<!-- Node23&#45;&gt;Node20 -->
<g id="edge66" class="edge"><title>Node23&#45;&gt;Node20</title>
<path fill="none" stroke="midnightblue" d="M724.124,-174.497C759.35,-164.53 812.255,-149.562 849.232,-139.1"/>
<polygon fill="midnightblue" stroke="midnightblue" points="850.541,-142.367 859.211,-136.277 848.635,-135.632 850.541,-142.367"/>
</g>
</g>
</svg>
