<?xml version="1.0" encoding="UTF-8" standalone="no"?>
<!DOCTYPE svg PUBLIC "-//W3C//DTD SVG 1.1//EN"
 "http://www.w3.org/Graphics/SVG/1.1/DTD/svg11.dtd">
<!-- Generated by graphviz version 2.26.3 (20100126.1600)
 -->
<!-- Title: src/tree/TCluster.h Pages: 1 -->
<svg width="2074pt" height="318pt"
 viewBox="0.00 0.00 2074.00 318.00" xmlns="http://www.w3.org/2000/svg" xmlns:xlink="http://www.w3.org/1999/xlink">
<g id="graph1" class="graph" transform="scale(1 1) rotate(0) translate(4 314)">
<title>src/tree/TCluster.h</title>
<polygon fill="white" stroke="white" points="-4,5 -4,-314 2071,-314 2071,5 -4,5"/>
<!-- Node1 -->
<g id="node1" class="node"><title>Node1</title>
<polygon fill="#bfbfbf" stroke="black" points="482,-288.5 482,-309.5 580,-309.5 580,-288.5 482,-288.5"/>
<text text-anchor="middle" x="531" y="-296.5" font-family="Helvetica,sans-Serif" font-size="10.00">src/tree/TCluster.h</text>
</g>
<!-- Node2 -->
<g id="node3" class="node"><title>Node2</title>
<a xlink:href="_convert_8cc.html" target="_top" xlink:title="src/analysis/input\l/ant/detail/Convert.cc">
<polygon fill="white" stroke="black" points="144,-73 144,-107 254,-107 254,-73 144,-73"/>
<text text-anchor="start" x="152" y="-94" font-family="Helvetica,sans-Serif" font-size="10.00">src/analysis/input</text>
<text text-anchor="middle" x="199" y="-81" font-family="Helvetica,sans-Serif" font-size="10.00">/ant/detail/Convert.cc</text>
</a>
</g>
<!-- Node1&#45;&gt;Node2 -->
<g id="edge2" class="edge"><title>Node1&#45;&gt;Node2</title>
<path fill="none" stroke="midnightblue" d="M471.656,-291.041C436.506,-284.42 392.121,-272.618 357,-252 291.273,-213.414 234.427,-140.276 210.748,-107.114"/>
<polygon fill="midnightblue" stroke="midnightblue" points="471.318,-294.536 481.778,-292.853 472.552,-287.645 471.318,-294.536"/>
</g>
<!-- Node3 -->
<g id="node5" class="node"><title>Node3</title>
<a xlink:href="_c_b___time_walk_8cc.html" target="_top" xlink:title="src/calibration/modules\l/CB_TimeWalk.cc">
<polygon fill="white" stroke="black" points="558.5,-217 558.5,-251 675.5,-251 675.5,-217 558.5,-217"/>
<text text-anchor="start" x="566.5" y="-238" font-family="Helvetica,sans-Serif" font-size="10.00">src/calibration/modules</text>
<text text-anchor="middle" x="617" y="-225" font-family="Helvetica,sans-Serif" font-size="10.00">/CB_TimeWalk.cc</text>
</a>
</g>
<!-- Node1&#45;&gt;Node3 -->
<g id="edge4" class="edge"><title>Node1&#45;&gt;Node3</title>
<path fill="none" stroke="midnightblue" d="M553.363,-282.098C565.979,-272.562 581.702,-260.679 594.362,-251.11"/>
<polygon fill="midnightblue" stroke="midnightblue" points="551.068,-279.445 545.201,-288.267 555.289,-285.029 551.068,-279.445"/>
</g>
<!-- Node4 -->
<g id="node7" class="node"><title>Node4</title>
<a xlink:href="_t_a_p_s___shower_correction_8h.html" target="_top" xlink:title="src/calibration/modules\l/TAPS_ShowerCorrection.h">
<polygon fill="white" stroke="black" points="692.5,-217 692.5,-251 829.5,-251 829.5,-217 692.5,-217"/>
<text text-anchor="start" x="700.5" y="-238" font-family="Helvetica,sans-Serif" font-size="10.00">src/calibration/modules</text>
<text text-anchor="middle" x="761" y="-225" font-family="Helvetica,sans-Serif" font-size="10.00">/TAPS_ShowerCorrection.h</text>
</a>
</g>
<!-- Node1&#45;&gt;Node4 -->
<g id="edge6" class="edge"><title>Node1&#45;&gt;Node4</title>
<path fill="none" stroke="midnightblue" d="M578.272,-285.64C613.641,-275.645 662.289,-261.897 700.497,-251.099"/>
<polygon fill="midnightblue" stroke="midnightblue" points="576.88,-282.397 568.209,-288.484 578.784,-289.133 576.88,-282.397"/>
</g>
<!-- Node13 -->
<g id="node25" class="node"><title>Node13</title>
<a xlink:href="_candidate_builder_8h.html" target="_top" xlink:title="src/reconstruct/Candidate\lBuilder.h">
<polygon fill="white" stroke="black" points="271.5,-73 271.5,-107 400.5,-107 400.5,-73 271.5,-73"/>
<text text-anchor="start" x="279.5" y="-94" font-family="Helvetica,sans-Serif" font-size="10.00">src/reconstruct/Candidate</text>
<text text-anchor="middle" x="336" y="-81" font-family="Helvetica,sans-Serif" font-size="10.00">Builder.h</text>
</a>
</g>
<!-- Node1&#45;&gt;Node13 -->
<g id="edge24" class="edge"><title>Node1&#45;&gt;Node13</title>
<path fill="none" stroke="midnightblue" d="M472.222,-286.143C437.006,-277.34 396.677,-264.952 384,-252 344.399,-211.542 337.227,-140.01 336.095,-107.254"/>
<polygon fill="midnightblue" stroke="midnightblue" points="471.447,-289.556 481.992,-288.528 473.107,-282.756 471.447,-289.556"/>
</g>
<!-- Node14 -->
<g id="node27" class="node"><title>Node14</title>
<a xlink:href="_candidate_builder_8cc.html" target="_top" xlink:title="src/reconstruct/Candidate\lBuilder.cc">
<polygon fill="white" stroke="black" points="-0.5,-1 -0.5,-35 128.5,-35 128.5,-1 -0.5,-1"/>
<text text-anchor="start" x="7.5" y="-22" font-family="Helvetica,sans-Serif" font-size="10.00">src/reconstruct/Candidate</text>
<text text-anchor="middle" x="64" y="-9" font-family="Helvetica,sans-Serif" font-size="10.00">Builder.cc</text>
</a>
</g>
<!-- Node1&#45;&gt;Node14 -->
<g id="edge34" class="edge"><title>Node1&#45;&gt;Node14</title>
<path fill="none" stroke="midnightblue" d="M471.633,-294.487C424.948,-289.102 359.286,-277.381 307,-252 198.463,-199.313 107.255,-79.899 75.767,-35.2628"/>
<polygon fill="midnightblue" stroke="midnightblue" points="471.27,-297.968 481.591,-295.572 472.029,-291.009 471.27,-297.968"/>
</g>
<!-- Node18 -->
<g id="node36" class="node"><title>Node18</title>
<a xlink:href="_clustering_8cc.html" target="_top" xlink:title="src/reconstruct/Clustering.cc">
<polygon fill="white" stroke="black" points="846.5,-223.5 846.5,-244.5 989.5,-244.5 989.5,-223.5 846.5,-223.5"/>
<text text-anchor="middle" x="918" y="-231.5" font-family="Helvetica,sans-Serif" font-size="10.00">src/reconstruct/Clustering.cc</text>
</a>
</g>
<!-- Node1&#45;&gt;Node18 -->
<g id="edge36" class="edge"><title>Node1&#45;&gt;Node18</title>
<path fill="none" stroke="midnightblue" d="M590.081,-291.195C652.049,-282.72 752.176,-268.205 838,-252 849.611,-249.808 862.102,-247.145 873.683,-244.547"/>
<polygon fill="midnightblue" stroke="midnightblue" points="589.532,-287.738 580.095,-292.554 590.476,-294.674 589.532,-287.738"/>
</g>
<!-- Node19 -->
<g id="node38" class="node"><title>Node19</title>
<a xlink:href="_t_candidate_8h.html" target="_top" xlink:title="src/tree/TCandidate.h">
<polygon fill="white" stroke="black" points="392.5,-223.5 392.5,-244.5 503.5,-244.5 503.5,-223.5 392.5,-223.5"/>
<text text-anchor="middle" x="448" y="-231.5" font-family="Helvetica,sans-Serif" font-size="10.00">src/tree/TCandidate.h</text>
</a>
</g>
<!-- Node1&#45;&gt;Node19 -->
<g id="edge38" class="edge"><title>Node1&#45;&gt;Node19</title>
<path fill="none" stroke="midnightblue" d="M509.417,-282.098C494.244,-270.215 474.415,-254.686 461.451,-244.534"/>
<polygon fill="midnightblue" stroke="midnightblue" points="507.263,-284.856 517.294,-288.267 511.579,-279.345 507.263,-284.856"/>
</g>
<!-- Node20 -->
<g id="node41" class="node"><title>Node20</title>
<a xlink:href="_t_event_8h.html" target="_top" xlink:title="src/tree/TEvent.h">
<polygon fill="white" stroke="black" points="520,-151.5 520,-172.5 612,-172.5 612,-151.5 520,-151.5"/>
<text text-anchor="middle" x="566" y="-159.5" font-family="Helvetica,sans-Serif" font-size="10.00">src/tree/TEvent.h</text>
</a>
</g>
<!-- Node1&#45;&gt;Node20 -->
<g id="edge64" class="edge"><title>Node1&#45;&gt;Node20</title>
<path fill="none" stroke="midnightblue" d="M535.292,-278.609C538.93,-261.754 544.431,-237.23 550,-216 553.97,-200.867 559.227,-183.557 562.612,-172.702"/>
<polygon fill="midnightblue" stroke="midnightblue" points="531.853,-277.956 533.189,-288.466 538.699,-279.417 531.853,-277.956"/>
</g>
<!-- Node27 -->
<g id="node60" class="node"><title>Node27</title>
<a xlink:href="_test_t_cluster_8cc.html" target="_top" xlink:title="test/tree/TestTCluster.cc">
<polygon fill="white" stroke="black" points="1007,-223.5 1007,-244.5 1133,-244.5 1133,-223.5 1007,-223.5"/>
<text text-anchor="middle" x="1070" y="-231.5" font-family="Helvetica,sans-Serif" font-size="10.00">test/tree/TestTCluster.cc</text>
</a>
</g>
<!-- Node1&#45;&gt;Node27 -->
<g id="edge66" class="edge"><title>Node1&#45;&gt;Node27</title>
<path fill="none" stroke="midnightblue" d="M590.231,-295.793C679.261,-290.352 852.638,-277.348 998,-252 1009.17,-250.052 1021.17,-247.317 1032.11,-244.565"/>
<polygon fill="midnightblue" stroke="midnightblue" points="589.832,-292.31 580.06,-296.404 590.252,-299.298 589.832,-292.31"/>
</g>
<!-- Node5 -->
<g id="node9" class="node"><title>Node5</title>
<a xlink:href="_setup_8h.html" target="_top" xlink:title="src/expconfig/setups\l/Setup.h">
<polygon fill="white" stroke="black" points="1491.5,-145 1491.5,-179 1598.5,-179 1598.5,-145 1491.5,-145"/>
<text text-anchor="start" x="1499.5" y="-166" font-family="Helvetica,sans-Serif" font-size="10.00">src/expconfig/setups</text>
<text text-anchor="middle" x="1545" y="-153" font-family="Helvetica,sans-Serif" font-size="10.00">/Setup.h</text>
</a>
</g>
<!-- Node4&#45;&gt;Node5 -->
<g id="edge8" class="edge"><title>Node4&#45;&gt;Node5</title>
<path fill="none" stroke="midnightblue" d="M839.669,-215.862C1087.8,-178.368 1374.59,-166.705 1491.47,-163.289"/>
<polygon fill="midnightblue" stroke="midnightblue" points="839.101,-212.408 829.745,-217.379 840.159,-219.328 839.101,-212.408"/>
</g>
<!-- Node6 -->
<g id="node11" class="node"><title>Node6</title>
<a xlink:href="_exp_config_8cc.html" target="_top" xlink:title="src/expconfig/ExpConfig.cc">
<polygon fill="white" stroke="black" points="1615.5,-79.5 1615.5,-100.5 1752.5,-100.5 1752.5,-79.5 1615.5,-79.5"/>
<text text-anchor="middle" x="1684" y="-87.5" font-family="Helvetica,sans-Serif" font-size="10.00">src/expconfig/ExpConfig.cc</text>
</a>
</g>
<!-- Node5&#45;&gt;Node6 -->
<g id="edge10" class="edge"><title>Node5&#45;&gt;Node6</title>
<path fill="none" stroke="midnightblue" d="M1586.96,-140.266C1612.23,-127.175 1643.3,-111.082 1663.37,-100.688"/>
<polygon fill="midnightblue" stroke="midnightblue" points="1585.21,-137.23 1577.94,-144.937 1588.43,-143.445 1585.21,-137.23"/>
</g>
<!-- Node7 -->
<g id="node13" class="node"><title>Node7</title>
<a xlink:href="_setup__2014___e_p_t_8h.html" target="_top" xlink:title="src/expconfig/setups\l/Setup_2014_EPT.h">
<polygon fill="white" stroke="black" points="1769.5,-73 1769.5,-107 1876.5,-107 1876.5,-73 1769.5,-73"/>
<text text-anchor="start" x="1777.5" y="-94" font-family="Helvetica,sans-Serif" font-size="10.00">src/expconfig/setups</text>
<text text-anchor="middle" x="1823" y="-81" font-family="Helvetica,sans-Serif" font-size="10.00">/Setup_2014_EPT.h</text>
</a>
</g>
<!-- Node5&#45;&gt;Node7 -->
<g id="edge12" class="edge"><title>Node5&#45;&gt;Node7</title>
<path fill="none" stroke="midnightblue" d="M1608.64,-146.756C1651.74,-136.267 1709.93,-121.791 1761,-108 1763.71,-107.269 1766.47,-106.51 1769.27,-105.734"/>
<polygon fill="midnightblue" stroke="midnightblue" points="1607.74,-143.372 1598.85,-149.133 1609.39,-150.175 1607.74,-143.372"/>
</g>
<!-- Node11 -->
<g id="node21" class="node"><title>Node11</title>
<a xlink:href="_setup__2015__dummy_8cc.html" target="_top" xlink:title="src/expconfig/setups\l/Setup_2015_dummy.cc">
<polygon fill="white" stroke="black" points="1352,-73 1352,-107 1474,-107 1474,-73 1352,-73"/>
<text text-anchor="start" x="1360" y="-94" font-family="Helvetica,sans-Serif" font-size="10.00">src/expconfig/setups</text>
<text text-anchor="middle" x="1413" y="-81" font-family="Helvetica,sans-Serif" font-size="10.00">/Setup_2015_dummy.cc</text>
</a>
</g>
<!-- Node5&#45;&gt;Node11 -->
<g id="edge20" class="edge"><title>Node5&#45;&gt;Node11</title>
<path fill="none" stroke="midnightblue" d="M1504.82,-140.083C1485.46,-129.525 1462.59,-117.049 1444.52,-107.19"/>
<polygon fill="midnightblue" stroke="midnightblue" points="1503.26,-143.221 1513.72,-144.937 1506.61,-137.076 1503.26,-143.221"/>
</g>
<!-- Node12 -->
<g id="node23" class="node"><title>Node12</title>
<a xlink:href="_setup_registry_8cc.html" target="_top" xlink:title="src/expconfig/setups\l/SetupRegistry.cc">
<polygon fill="white" stroke="black" points="1491.5,-73 1491.5,-107 1598.5,-107 1598.5,-73 1491.5,-73"/>
<text text-anchor="start" x="1499.5" y="-94" font-family="Helvetica,sans-Serif" font-size="10.00">src/expconfig/setups</text>
<text text-anchor="middle" x="1545" y="-81" font-family="Helvetica,sans-Serif" font-size="10.00">/SetupRegistry.cc</text>
</a>
</g>
<!-- Node5&#45;&gt;Node12 -->
<g id="edge22" class="edge"><title>Node5&#45;&gt;Node12</title>
<path fill="none" stroke="midnightblue" d="M1545,-134.719C1545,-125.572 1545,-115.625 1545,-107.441"/>
<polygon fill="midnightblue" stroke="midnightblue" points="1541.5,-134.937 1545,-144.937 1548.5,-134.937 1541.5,-134.937"/>
</g>
<!-- Node8 -->
<g id="node15" class="node"><title>Node8</title>
<a xlink:href="_setup__2014__07___e_p_t___prod_8cc.html" target="_top" xlink:title="src/expconfig/setups\l/Setup_2014_07_EPT_Prod.cc">
<polygon fill="white" stroke="black" points="1579.5,-1 1579.5,-35 1730.5,-35 1730.5,-1 1579.5,-1"/>
<text text-anchor="start" x="1587.5" y="-22" font-family="Helvetica,sans-Serif" font-size="10.00">src/expconfig/setups</text>
<text text-anchor="middle" x="1655" y="-9" font-family="Helvetica,sans-Serif" font-size="10.00">/Setup_2014_07_EPT_Prod.cc</text>
</a>
</g>
<!-- Node7&#45;&gt;Node8 -->
<g id="edge14" class="edge"><title>Node7&#45;&gt;Node8</title>
<path fill="none" stroke="midnightblue" d="M1773.82,-68.9238C1748.68,-58.1485 1718.48,-45.2059 1694.82,-35.0651"/>
<polygon fill="midnightblue" stroke="midnightblue" points="1772.62,-72.2148 1783.19,-72.937 1775.37,-65.7807 1772.62,-72.2148"/>
</g>
<!-- Node9 -->
<g id="node17" class="node"><title>Node9</title>
<a xlink:href="_setup__2014__10___e_p_t___prod_8cc.html" target="_top" xlink:title="src/expconfig/setups\l/Setup_2014_10_EPT_Prod.cc">
<polygon fill="white" stroke="black" points="1747.5,-1 1747.5,-35 1898.5,-35 1898.5,-1 1747.5,-1"/>
<text text-anchor="start" x="1755.5" y="-22" font-family="Helvetica,sans-Serif" font-size="10.00">src/expconfig/setups</text>
<text text-anchor="middle" x="1823" y="-9" font-family="Helvetica,sans-Serif" font-size="10.00">/Setup_2014_10_EPT_Prod.cc</text>
</a>
</g>
<!-- Node7&#45;&gt;Node9 -->
<g id="edge16" class="edge"><title>Node7&#45;&gt;Node9</title>
<path fill="none" stroke="midnightblue" d="M1823,-62.7193C1823,-53.572 1823,-43.6255 1823,-35.4407"/>
<polygon fill="midnightblue" stroke="midnightblue" points="1819.5,-62.937 1823,-72.937 1826.5,-62.937 1819.5,-62.937"/>
</g>
<!-- Node10 -->
<g id="node19" class="node"><title>Node10</title>
<a xlink:href="_setup__2014__12___e_p_t___prod_8cc.html" target="_top" xlink:title="src/expconfig/setups\l/Setup_2014_12_EPT_Prod.cc">
<polygon fill="white" stroke="black" points="1915.5,-1 1915.5,-35 2066.5,-35 2066.5,-1 1915.5,-1"/>
<text text-anchor="start" x="1923.5" y="-22" font-family="Helvetica,sans-Serif" font-size="10.00">src/expconfig/setups</text>
<text text-anchor="middle" x="1991" y="-9" font-family="Helvetica,sans-Serif" font-size="10.00">/Setup_2014_12_EPT_Prod.cc</text>
</a>
</g>
<!-- Node7&#45;&gt;Node10 -->
<g id="edge18" class="edge"><title>Node7&#45;&gt;Node10</title>
<path fill="none" stroke="midnightblue" d="M1872.18,-68.9238C1897.32,-58.1485 1927.52,-45.2059 1951.18,-35.0651"/>
<polygon fill="midnightblue" stroke="midnightblue" points="1870.63,-65.7807 1862.81,-72.937 1873.38,-72.2148 1870.63,-65.7807"/>
</g>
<!-- Node13&#45;&gt;Node14 -->
<g id="edge26" class="edge"><title>Node13&#45;&gt;Node14</title>
<path fill="none" stroke="midnightblue" d="M261.709,-70.3348C220.001,-59.2943 168.465,-45.6526 128.468,-35.0651"/>
<polygon fill="midnightblue" stroke="midnightblue" points="260.977,-73.7615 271.54,-72.937 262.768,-66.9945 260.977,-73.7615"/>
</g>
<!-- Node15 -->
<g id="node29" class="node"><title>Node15</title>
<a xlink:href="_reconstruct_8cc.html" target="_top" xlink:title="src/reconstruct/Reconstruct.cc">
<polygon fill="white" stroke="black" points="508,-7.5 508,-28.5 660,-28.5 660,-7.5 508,-7.5"/>
<text text-anchor="middle" x="584" y="-15.5" font-family="Helvetica,sans-Serif" font-size="10.00">src/reconstruct/Reconstruct.cc</text>
</a>
</g>
<!-- Node13&#45;&gt;Node15 -->
<g id="edge28" class="edge"><title>Node13&#45;&gt;Node15</title>
<path fill="none" stroke="midnightblue" d="M404.44,-70.1302C450.732,-56.6906 510.047,-39.4701 547.55,-28.5821"/>
<polygon fill="midnightblue" stroke="midnightblue" points="403.4,-66.7876 394.773,-72.937 405.352,-73.51 403.4,-66.7876"/>
</g>
<!-- Node16 -->
<g id="node31" class="node"><title>Node16</title>
<a xlink:href="_test_candidate_builder_8cc.html" target="_top" xlink:title="test/reconstruct/TestCandidate\lBuilder.cc">
<polygon fill="white" stroke="black" points="338,-1 338,-35 490,-35 490,-1 338,-1"/>
<text text-anchor="start" x="346" y="-22" font-family="Helvetica,sans-Serif" font-size="10.00">test/reconstruct/TestCandidate</text>
<text text-anchor="middle" x="414" y="-9" font-family="Helvetica,sans-Serif" font-size="10.00">Builder.cc</text>
</a>
</g>
<!-- Node13&#45;&gt;Node16 -->
<g id="edge30" class="edge"><title>Node13&#45;&gt;Node16</title>
<path fill="none" stroke="midnightblue" d="M362.099,-65.9083C373.003,-55.8438 385.422,-44.3799 395.377,-35.19"/>
<polygon fill="midnightblue" stroke="midnightblue" points="359.459,-63.5824 354.485,-72.937 364.207,-68.726 359.459,-63.5824"/>
</g>
<!-- Node17 -->
<g id="node33" class="node"><title>Node17</title>
<a xlink:href="_test_reconstruct_8cc.html" target="_top" xlink:title="test/reconstruct/TestReconstruct.cc">
<polygon fill="white" stroke="black" points="146,-7.5 146,-28.5 320,-28.5 320,-7.5 146,-7.5"/>
<text text-anchor="middle" x="233" y="-15.5" font-family="Helvetica,sans-Serif" font-size="10.00">test/reconstruct/TestReconstruct.cc</text>
</a>
</g>
<!-- Node13&#45;&gt;Node17 -->
<g id="edge32" class="edge"><title>Node13&#45;&gt;Node17</title>
<path fill="none" stroke="midnightblue" d="M302.922,-66.8774C284.576,-54.0531 262.638,-38.7177 248.29,-28.688"/>
<polygon fill="midnightblue" stroke="midnightblue" points="301.389,-70.0763 311.59,-72.937 305.4,-64.3391 301.389,-70.0763"/>
</g>
<!-- Node19&#45;&gt;Node2 -->
<g id="edge40" class="edge"><title>Node19&#45;&gt;Node2</title>
<path fill="none" stroke="midnightblue" d="M420.97,-218.368C373.924,-191.161 277.359,-135.316 228.584,-107.109"/>
<polygon fill="midnightblue" stroke="midnightblue" points="419.282,-221.435 429.69,-223.411 422.786,-215.375 419.282,-221.435"/>
</g>
<!-- Node19&#45;&gt;Node20 -->
<g id="edge42" class="edge"><title>Node19&#45;&gt;Node20</title>
<path fill="none" stroke="midnightblue" d="M474.169,-218.033C496.798,-204.225 528.879,-184.65 548.517,-172.667"/>
<polygon fill="midnightblue" stroke="midnightblue" points="472.125,-215.18 465.411,-223.376 475.771,-221.155 472.125,-215.18"/>
</g>
<!-- Node26 -->
<g id="node56" class="node"><title>Node26</title>
<a xlink:href="_test_t_event_8cc.html" target="_top" xlink:title="test/tree/TestTEvent.cc">
<polygon fill="white" stroke="black" points="418,-79.5 418,-100.5 538,-100.5 538,-79.5 418,-79.5"/>
<text text-anchor="middle" x="478" y="-87.5" font-family="Helvetica,sans-Serif" font-size="10.00">test/tree/TestTEvent.cc</text>
</a>
</g>
<!-- Node19&#45;&gt;Node26 -->
<g id="edge62" class="edge"><title>Node19&#45;&gt;Node26</title>
<path fill="none" stroke="midnightblue" d="M452.297,-213.375C458.787,-182.224 470.856,-124.293 475.8,-100.558"/>
<polygon fill="midnightblue" stroke="midnightblue" points="448.868,-212.673 450.255,-223.177 455.721,-214.101 448.868,-212.673"/>
</g>
<!-- Node20&#45;&gt;Node2 -->
<g id="edge46" class="edge"><title>Node20&#45;&gt;Node2</title>
<path fill="none" stroke="midnightblue" d="M509.572,-153.635C448.469,-144.185 348.299,-127.547 263,-108 260.075,-107.33 257.084,-106.61 254.07,-105.857"/>
<polygon fill="midnightblue" stroke="midnightblue" points="509.359,-157.143 519.774,-155.202 510.422,-150.225 509.359,-157.143"/>
</g>
<!-- Node20&#45;&gt;Node13 -->
<g id="edge48" class="edge"><title>Node20&#45;&gt;Node13</title>
<path fill="none" stroke="midnightblue" d="M522.455,-148.368C485.041,-136.656 430.914,-119.712 390.607,-107.094"/>
<polygon fill="midnightblue" stroke="midnightblue" points="521.474,-151.729 532.063,-151.376 523.565,-145.048 521.474,-151.729"/>
</g>
<!-- Node20&#45;&gt;Node15 -->
<g id="edge50" class="edge"><title>Node20&#45;&gt;Node15</title>
<path fill="none" stroke="midnightblue" d="M568.629,-140.965C572.535,-109.718 579.726,-52.1898 582.68,-28.5577"/>
<polygon fill="midnightblue" stroke="midnightblue" points="565.12,-140.82 567.353,-151.177 572.066,-141.688 565.12,-140.82"/>
</g>
<!-- Node21 -->
<g id="node43" class="node"><title>Node21</title>
<a xlink:href="_ant_reader_8cc.html" target="_top" xlink:title="src/analysis/input\l/ant/AntReader.cc">
<polygon fill="white" stroke="black" points="594,-73 594,-107 690,-107 690,-73 594,-73"/>
<text text-anchor="start" x="602" y="-94" font-family="Helvetica,sans-Serif" font-size="10.00">src/analysis/input</text>
<text text-anchor="middle" x="642" y="-81" font-family="Helvetica,sans-Serif" font-size="10.00">/ant/AntReader.cc</text>
</a>
</g>
<!-- Node20&#45;&gt;Node21 -->
<g id="edge44" class="edge"><title>Node20&#45;&gt;Node21</title>
<path fill="none" stroke="midnightblue" d="M584.51,-144.464C596.505,-133.1 612.054,-118.37 623.956,-107.094"/>
<polygon fill="midnightblue" stroke="midnightblue" points="582.066,-141.958 577.214,-151.376 586.881,-147.04 582.066,-141.958"/>
</g>
<!-- Node22 -->
<g id="node48" class="node"><title>Node22</title>
<a xlink:href="_unpacker_reader_8cc.html" target="_top" xlink:title="src/tree/UnpackerReader.cc">
<polygon fill="white" stroke="black" points="708,-79.5 708,-100.5 848,-100.5 848,-79.5 708,-79.5"/>
<text text-anchor="middle" x="778" y="-87.5" font-family="Helvetica,sans-Serif" font-size="10.00">src/tree/UnpackerReader.cc</text>
</a>
</g>
<!-- Node20&#45;&gt;Node22 -->
<g id="edge52" class="edge"><title>Node20&#45;&gt;Node22</title>
<path fill="none" stroke="midnightblue" d="M606.949,-148.093C647.876,-134.193 709.898,-113.129 746.936,-100.55"/>
<polygon fill="midnightblue" stroke="midnightblue" points="605.625,-144.846 597.281,-151.376 607.876,-151.474 605.625,-144.846"/>
</g>
<!-- Node23 -->
<g id="node50" class="node"><title>Node23</title>
<a xlink:href="_unpacker_writer_8cc.html" target="_top" xlink:title="src/tree/UnpackerWriter.cc">
<polygon fill="white" stroke="black" points="866,-79.5 866,-100.5 1000,-100.5 1000,-79.5 866,-79.5"/>
<text text-anchor="middle" x="933" y="-87.5" font-family="Helvetica,sans-Serif" font-size="10.00">src/tree/UnpackerWriter.cc</text>
</a>
</g>
<!-- Node20&#45;&gt;Node23 -->
<g id="edge54" class="edge"><title>Node20&#45;&gt;Node23</title>
<path fill="none" stroke="midnightblue" d="M622.18,-152.418C680.907,-142.204 775.661,-125.168 857,-108 867.746,-105.732 879.301,-103.097 890.076,-100.554"/>
<polygon fill="midnightblue" stroke="midnightblue" points="621.257,-149.025 612.002,-154.182 622.453,-155.923 621.257,-149.025"/>
</g>
<!-- Node24 -->
<g id="node52" class="node"><title>Node24</title>
<a xlink:href="_test_ant_input_8cc.html" target="_top" xlink:title="test/analysis/TestAntInput.cc">
<polygon fill="white" stroke="black" points="1017.5,-79.5 1017.5,-100.5 1162.5,-100.5 1162.5,-79.5 1017.5,-79.5"/>
<text text-anchor="middle" x="1090" y="-87.5" font-family="Helvetica,sans-Serif" font-size="10.00">test/analysis/TestAntInput.cc</text>
</a>
</g>
<!-- Node20&#45;&gt;Node24 -->
<g id="edge56" class="edge"><title>Node20&#45;&gt;Node24</title>
<path fill="none" stroke="midnightblue" d="M622.267,-156.913C706.647,-148.886 870.82,-131.717 1009,-108 1021.07,-105.929 1034.05,-103.248 1046.01,-100.592"/>
<polygon fill="midnightblue" stroke="midnightblue" points="621.759,-153.446 612.132,-157.87 622.417,-160.415 621.759,-153.446"/>
</g>
<!-- Node25 -->
<g id="node54" class="node"><title>Node25</title>
<a xlink:href="_test_ant_reader_8cc.html" target="_top" xlink:title="test/analysis/TestAntReader.cc">
<polygon fill="white" stroke="black" points="1179.5,-79.5 1179.5,-100.5 1334.5,-100.5 1334.5,-79.5 1179.5,-79.5"/>
<text text-anchor="middle" x="1257" y="-87.5" font-family="Helvetica,sans-Serif" font-size="10.00">test/analysis/TestAntReader.cc</text>
</a>
</g>
<!-- Node20&#45;&gt;Node25 -->
<g id="edge58" class="edge"><title>Node20&#45;&gt;Node25</title>
<path fill="none" stroke="midnightblue" d="M622.403,-159.18C729.692,-153.326 970.375,-137.844 1171,-108 1184.28,-106.025 1198.59,-103.281 1211.65,-100.53"/>
<polygon fill="midnightblue" stroke="midnightblue" points="621.932,-155.7 612.135,-159.733 622.309,-162.69 621.932,-155.7"/>
</g>
<!-- Node20&#45;&gt;Node26 -->
<g id="edge60" class="edge"><title>Node20&#45;&gt;Node26</title>
<path fill="none" stroke="midnightblue" d="M544.889,-144.728C528.129,-131.015 505.228,-112.277 491.038,-100.667"/>
<polygon fill="midnightblue" stroke="midnightblue" points="543.059,-147.753 553.015,-151.376 547.492,-142.335 543.059,-147.753"/>
</g>
</g>
</svg>
