<?xml version="1.0" encoding="UTF-8" standalone="no"?>
<!DOCTYPE svg PUBLIC "-//W3C//DTD SVG 1.1//EN"
 "http://www.w3.org/Graphics/SVG/1.1/DTD/svg11.dtd">
<!-- Generated by graphviz version 2.26.3 (20100126.1600)
 -->
<!-- Title: src/tree/TCalibrationData.h Pages: 1 -->
<svg width="840pt" height="262pt"
 viewBox="0.00 0.00 840.45 262.00" xmlns="http://www.w3.org/2000/svg" xmlns:xlink="http://www.w3.org/1999/xlink">
<g id="graph1" class="graph" transform="scale(1 1) rotate(0) translate(4 258)">
<title>src/tree/TCalibrationData.h</title>
<polygon fill="white" stroke="white" points="-4,5 -4,-258 837.448,-258 837.448,5 -4,5"/>
<!-- Node1 -->
<g id="node1" class="node"><title>Node1</title>
<polygon fill="#bfbfbf" stroke="black" points="672,-232.5 672,-253.5 806,-253.5 806,-232.5 672,-232.5"/>
<text text-anchor="middle" x="739" y="-240.5" font-family="Helvetica,sans-Serif" font-size="10.00">src/tree/TCalibrationData.h</text>
</g>
<!-- Node2 -->
<g id="node3" class="node"><title>Node2</title>
<a xlink:href="_t_i_d_8h.html" target="_top" xlink:title="TID.h">
<polygon fill="white" stroke="black" points="364.5,-174.5 364.5,-195.5 405.5,-195.5 405.5,-174.5 364.5,-174.5"/>
<text text-anchor="middle" x="385" y="-182.5" font-family="Helvetica,sans-Serif" font-size="10.00">TID.h</text>
</a>
</g>
<!-- Node1&#45;&gt;Node2 -->
<g id="edge2" class="edge"><title>Node1&#45;&gt;Node2</title>
<path fill="none" stroke="midnightblue" d="M674.893,-232.497C598.177,-219.927 472.9,-199.402 415.486,-189.995"/>
<polygon fill="midnightblue" stroke="midnightblue" points="416.016,-186.535 405.582,-188.372 414.884,-193.443 416.016,-186.535"/>
</g>
<!-- Node9 -->
<g id="node17" class="node"><title>Node9</title>
<polygon fill="white" stroke="#bfbfbf" points="752.5,-0.5 752.5,-21.5 793.5,-21.5 793.5,-0.5 752.5,-0.5"/>
<text text-anchor="middle" x="773" y="-8.5" font-family="Helvetica,sans-Serif" font-size="10.00">string</text>
</g>
<!-- Node1&#45;&gt;Node9 -->
<g id="edge38" class="edge"><title>Node1&#45;&gt;Node9</title>
<path fill="none" stroke="midnightblue" d="M773.785,-232.441C791.241,-225.182 810.799,-213.605 821,-196 852.764,-141.182 810.444,-65.222 786.881,-30.1523"/>
<polygon fill="midnightblue" stroke="midnightblue" points="789.65,-28.0033 781.079,-21.7745 783.895,-31.9884 789.65,-28.0033"/>
</g>
<!-- Node13 -->
<g id="node25" class="node"><title>Node13</title>
<polygon fill="white" stroke="#bfbfbf" points="673.5,-58.5 673.5,-79.5 714.5,-79.5 714.5,-58.5 673.5,-58.5"/>
<text text-anchor="middle" x="694" y="-66.5" font-family="Helvetica,sans-Serif" font-size="10.00">ctime</text>
</g>
<!-- Node1&#45;&gt;Node13 -->
<g id="edge40" class="edge"><title>Node1&#45;&gt;Node13</title>
<path fill="none" stroke="midnightblue" d="M735.621,-232.217C732.684,-222.719 728.383,-208.491 725,-196 714.871,-158.597 704.464,-114.595 698.655,-89.4334"/>
<polygon fill="midnightblue" stroke="midnightblue" points="702.043,-88.5464 696.394,-79.5829 695.22,-90.1125 702.043,-88.5464"/>
</g>
<!-- Node19 -->
<g id="node40" class="node"><title>Node19</title>
<a xlink:href="_git_info_8h.html" target="_top" xlink:title="base/GitInfo.h">
<polygon fill="white" stroke="black" points="734,-174.5 734,-195.5 812,-195.5 812,-174.5 734,-174.5"/>
<text text-anchor="middle" x="773" y="-182.5" font-family="Helvetica,sans-Serif" font-size="10.00">base/GitInfo.h</text>
</a>
</g>
<!-- Node1&#45;&gt;Node19 -->
<g id="edge42" class="edge"><title>Node1&#45;&gt;Node19</title>
<path fill="none" stroke="midnightblue" d="M745.236,-232.362C749.837,-224.513 756.225,-213.616 761.714,-204.253"/>
<polygon fill="midnightblue" stroke="midnightblue" points="764.766,-205.968 766.803,-195.571 758.727,-202.428 764.766,-205.968"/>
</g>
<!-- Node3 -->
<g id="node5" class="node"><title>Node3</title>
<polygon fill="white" stroke="#bfbfbf" points="464,-116.5 464,-137.5 520,-137.5 520,-116.5 464,-116.5"/>
<text text-anchor="middle" x="492" y="-124.5" font-family="Helvetica,sans-Serif" font-size="10.00">Rtypes.h</text>
</g>
<!-- Node2&#45;&gt;Node3 -->
<g id="edge4" class="edge"><title>Node2&#45;&gt;Node3</title>
<path fill="none" stroke="midnightblue" d="M404.625,-174.362C421.141,-165.409 444.974,-152.491 463.578,-142.406"/>
<polygon fill="midnightblue" stroke="midnightblue" points="465.375,-145.413 472.499,-137.571 462.04,-139.259 465.375,-145.413"/>
</g>
<!-- Node4 -->
<g id="node7" class="node"><title>Node4</title>
<a xlink:href="printable_8h.html" target="_top" xlink:title="base/printable.h">
<polygon fill="white" stroke="black" points="16,-116.5 16,-137.5 102,-137.5 102,-116.5 16,-116.5"/>
<text text-anchor="middle" x="59" y="-124.5" font-family="Helvetica,sans-Serif" font-size="10.00">base/printable.h</text>
</a>
</g>
<!-- Node2&#45;&gt;Node4 -->
<g id="edge6" class="edge"><title>Node2&#45;&gt;Node4</title>
<path fill="none" stroke="midnightblue" d="M364.328,-181.734C320.05,-174.678 212.561,-157.234 112.113,-138.162"/>
<polygon fill="midnightblue" stroke="midnightblue" points="112.583,-134.689 102.104,-136.252 111.271,-141.565 112.583,-134.689"/>
</g>
<!-- Node7 -->
<g id="node13" class="node"><title>Node7</title>
<a xlink:href="time_8h.html" target="_top" xlink:title="base/std_ext/time.h">
<polygon fill="white" stroke="black" points="537.5,-116.5 537.5,-137.5 640.5,-137.5 640.5,-116.5 537.5,-116.5"/>
<text text-anchor="middle" x="589" y="-124.5" font-family="Helvetica,sans-Serif" font-size="10.00">base/std_ext/time.h</text>
</a>
</g>
<!-- Node2&#45;&gt;Node7 -->
<g id="edge12" class="edge"><title>Node2&#45;&gt;Node7</title>
<path fill="none" stroke="midnightblue" d="M405.683,-179.119C437.447,-170.089 499.064,-152.57 542.053,-140.348"/>
<polygon fill="midnightblue" stroke="midnightblue" points="543.076,-143.696 551.737,-137.594 541.161,-136.963 543.076,-143.696"/>
</g>
<!-- Node2&#45;&gt;Node13 -->
<g id="edge36" class="edge"><title>Node2&#45;&gt;Node13</title>
<path fill="none" stroke="midnightblue" d="M405.897,-183.416C461.008,-178.908 608.817,-164.588 649,-138 666.709,-126.282 679.013,-104.946 686.225,-89.0907"/>
<polygon fill="midnightblue" stroke="midnightblue" points="689.56,-90.1921 690.235,-79.6188 683.113,-87.4633 689.56,-90.1921"/>
</g>
<!-- Node14 -->
<g id="node27" class="node"><title>Node14</title>
<polygon fill="white" stroke="#bfbfbf" points="120,-116.5 120,-137.5 182,-137.5 182,-116.5 120,-116.5"/>
<text text-anchor="middle" x="151" y="-124.5" font-family="Helvetica,sans-Serif" font-size="10.00">type_traits</text>
</g>
<!-- Node2&#45;&gt;Node14 -->
<g id="edge26" class="edge"><title>Node2&#45;&gt;Node14</title>
<path fill="none" stroke="midnightblue" d="M364.276,-180.199C330.402,-172.306 260.838,-155.901 192.489,-138.337"/>
<polygon fill="midnightblue" stroke="midnightblue" points="192.976,-134.848 182.419,-135.738 191.227,-141.626 192.976,-134.848"/>
</g>
<!-- Node15 -->
<g id="node29" class="node"><title>Node15</title>
<polygon fill="white" stroke="#bfbfbf" points="200,-116.5 200,-137.5 238,-137.5 238,-116.5 200,-116.5"/>
<text text-anchor="middle" x="219" y="-124.5" font-family="Helvetica,sans-Serif" font-size="10.00">tuple</text>
</g>
<!-- Node2&#45;&gt;Node15 -->
<g id="edge28" class="edge"><title>Node2&#45;&gt;Node15</title>
<path fill="none" stroke="midnightblue" d="M364.321,-178.287C338.987,-169.993 294.561,-155.221 247.905,-138.233"/>
<polygon fill="midnightblue" stroke="midnightblue" points="248.829,-134.844 238.235,-134.691 246.422,-141.417 248.829,-134.844"/>
</g>
<!-- Node16 -->
<g id="node31" class="node"><title>Node16</title>
<polygon fill="white" stroke="#bfbfbf" points="256,-116.5 256,-137.5 302,-137.5 302,-116.5 256,-116.5"/>
<text text-anchor="middle" x="279" y="-124.5" font-family="Helvetica,sans-Serif" font-size="10.00">cstdint</text>
</g>
<!-- Node2&#45;&gt;Node16 -->
<g id="edge30" class="edge"><title>Node2&#45;&gt;Node16</title>
<path fill="none" stroke="midnightblue" d="M365.558,-174.362C349.196,-165.409 325.587,-152.491 307.157,-142.406"/>
<polygon fill="midnightblue" stroke="midnightblue" points="308.771,-139.3 298.319,-137.571 305.411,-145.441 308.771,-139.3"/>
</g>
<!-- Node17 -->
<g id="node33" class="node"><title>Node17</title>
<polygon fill="white" stroke="#bfbfbf" points="319.5,-116.5 319.5,-137.5 378.5,-137.5 378.5,-116.5 319.5,-116.5"/>
<text text-anchor="middle" x="349" y="-124.5" font-family="Helvetica,sans-Serif" font-size="10.00">stdexcept</text>
</g>
<!-- Node2&#45;&gt;Node17 -->
<g id="edge32" class="edge"><title>Node2&#45;&gt;Node17</title>
<path fill="none" stroke="midnightblue" d="M378.397,-174.362C373.525,-166.513 366.762,-155.616 360.95,-146.253"/>
<polygon fill="midnightblue" stroke="midnightblue" points="363.809,-144.221 355.561,-137.571 357.861,-147.913 363.809,-144.221"/>
</g>
<!-- Node18 -->
<g id="node35" class="node"><title>Node18</title>
<polygon fill="white" stroke="#bfbfbf" points="396,-116.5 396,-137.5 446,-137.5 446,-116.5 396,-116.5"/>
<text text-anchor="middle" x="421" y="-124.5" font-family="Helvetica,sans-Serif" font-size="10.00">iomanip</text>
</g>
<!-- Node2&#45;&gt;Node18 -->
<g id="edge34" class="edge"><title>Node2&#45;&gt;Node18</title>
<path fill="none" stroke="midnightblue" d="M391.603,-174.362C396.475,-166.513 403.238,-155.616 409.05,-146.253"/>
<polygon fill="midnightblue" stroke="midnightblue" points="412.139,-147.913 414.439,-137.571 406.191,-144.221 412.139,-147.913"/>
</g>
<!-- Node5 -->
<g id="node9" class="node"><title>Node5</title>
<polygon fill="white" stroke="#bfbfbf" points="70,-58.5 70,-79.5 114,-79.5 114,-58.5 70,-58.5"/>
<text text-anchor="middle" x="92" y="-66.5" font-family="Helvetica,sans-Serif" font-size="10.00">vector</text>
</g>
<!-- Node4&#45;&gt;Node5 -->
<g id="edge8" class="edge"><title>Node4&#45;&gt;Node5</title>
<path fill="none" stroke="midnightblue" d="M65.0527,-116.362C69.4719,-108.595 75.5896,-97.8426 80.8791,-88.5458"/>
<polygon fill="midnightblue" stroke="midnightblue" points="84.0824,-89.9932 85.9857,-79.5707 77.9983,-86.5315 84.0824,-89.9932"/>
</g>
<!-- Node6 -->
<g id="node11" class="node"><title>Node6</title>
<polygon fill="white" stroke="#bfbfbf" points="0,-58.5 0,-79.5 52,-79.5 52,-58.5 0,-58.5"/>
<text text-anchor="middle" x="26" y="-66.5" font-family="Helvetica,sans-Serif" font-size="10.00">ostream</text>
</g>
<!-- Node4&#45;&gt;Node6 -->
<g id="edge10" class="edge"><title>Node4&#45;&gt;Node6</title>
<path fill="none" stroke="midnightblue" d="M52.9473,-116.362C48.5281,-108.595 42.4104,-97.8426 37.1209,-88.5458"/>
<polygon fill="midnightblue" stroke="midnightblue" points="40.0017,-86.5315 32.0143,-79.5707 33.9176,-89.9932 40.0017,-86.5315"/>
</g>
<!-- Node8 -->
<g id="node15" class="node"><title>Node8</title>
<a xlink:href="string_8h.html" target="_top" xlink:title="base/std_ext/string.h">
<polygon fill="white" stroke="black" points="548,-58.5 548,-79.5 656,-79.5 656,-58.5 548,-58.5"/>
<text text-anchor="middle" x="602" y="-66.5" font-family="Helvetica,sans-Serif" font-size="10.00">base/std_ext/string.h</text>
</a>
</g>
<!-- Node7&#45;&gt;Node8 -->
<g id="edge14" class="edge"><title>Node7&#45;&gt;Node8</title>
<path fill="none" stroke="midnightblue" d="M591.384,-116.362C593.07,-108.84 595.384,-98.5187 597.421,-89.4308"/>
<polygon fill="midnightblue" stroke="midnightblue" points="600.859,-90.0941 599.631,-79.5707 594.028,-88.563 600.859,-90.0941"/>
</g>
<!-- Node12 -->
<g id="node23" class="node"><title>Node12</title>
<polygon fill="white" stroke="#bfbfbf" points="484,-58.5 484,-79.5 530,-79.5 530,-58.5 484,-58.5"/>
<text text-anchor="middle" x="507" y="-66.5" font-family="Helvetica,sans-Serif" font-size="10.00">cstring</text>
</g>
<!-- Node7&#45;&gt;Node12 -->
<g id="edge22" class="edge"><title>Node7&#45;&gt;Node12</title>
<path fill="none" stroke="midnightblue" d="M573.96,-116.362C561.707,-107.696 544.201,-95.3126 530.161,-85.3819"/>
<polygon fill="midnightblue" stroke="midnightblue" points="532.13,-82.4879 521.945,-79.5707 528.088,-88.2028 532.13,-82.4879"/>
</g>
<!-- Node7&#45;&gt;Node13 -->
<g id="edge24" class="edge"><title>Node7&#45;&gt;Node13</title>
<path fill="none" stroke="midnightblue" d="M608.259,-116.362C624.466,-107.409 647.853,-94.4908 666.109,-84.4064"/>
<polygon fill="midnightblue" stroke="midnightblue" points="667.802,-87.4696 674.863,-79.5707 664.418,-81.3422 667.802,-87.4696"/>
</g>
<!-- Node8&#45;&gt;Node9 -->
<g id="edge16" class="edge"><title>Node8&#45;&gt;Node9</title>
<path fill="none" stroke="midnightblue" d="M632.967,-58.4966C664.096,-47.9382 711.778,-31.7654 742.677,-21.2851"/>
<polygon fill="midnightblue" stroke="midnightblue" points="744.118,-24.4922 752.464,-17.9655 741.869,-17.8631 744.118,-24.4922"/>
</g>
<!-- Node10 -->
<g id="node19" class="node"><title>Node10</title>
<polygon fill="white" stroke="#bfbfbf" points="612,-0.5 612,-21.5 664,-21.5 664,-0.5 612,-0.5"/>
<text text-anchor="middle" x="638" y="-8.5" font-family="Helvetica,sans-Serif" font-size="10.00">sstream</text>
</g>
<!-- Node8&#45;&gt;Node10 -->
<g id="edge18" class="edge"><title>Node8&#45;&gt;Node10</title>
<path fill="none" stroke="midnightblue" d="M608.603,-58.3619C613.475,-50.5131 620.238,-39.6159 626.05,-30.2527"/>
<polygon fill="midnightblue" stroke="midnightblue" points="629.139,-31.9129 631.439,-21.5707 623.191,-28.2213 629.139,-31.9129"/>
</g>
<!-- Node11 -->
<g id="node21" class="node"><title>Node11</title>
<polygon fill="white" stroke="#bfbfbf" points="538,-0.5 538,-21.5 594,-21.5 594,-0.5 538,-0.5"/>
<text text-anchor="middle" x="566" y="-8.5" font-family="Helvetica,sans-Serif" font-size="10.00">algorithm</text>
</g>
<!-- Node8&#45;&gt;Node11 -->
<g id="edge20" class="edge"><title>Node8&#45;&gt;Node11</title>
<path fill="none" stroke="midnightblue" d="M595.397,-58.3619C590.525,-50.5131 583.762,-39.6159 577.95,-30.2527"/>
<polygon fill="midnightblue" stroke="midnightblue" points="580.809,-28.2213 572.561,-21.5707 574.861,-31.9129 580.809,-28.2213"/>
</g>
<!-- Node19&#45;&gt;Node9 -->
<g id="edge44" class="edge"><title>Node19&#45;&gt;Node9</title>
<path fill="none" stroke="midnightblue" d="M773,-174.377C773,-146.293 773,-69.6735 773,-32.2027"/>
<polygon fill="midnightblue" stroke="midnightblue" points="776.5,-31.9277 773,-21.9277 769.5,-31.9278 776.5,-31.9277"/>
</g>
</g>
</svg>
