<?xml version="1.0" encoding="UTF-8" standalone="no"?>
<!DOCTYPE svg PUBLIC "-//W3C//DTD SVG 1.1//EN"
 "http://www.w3.org/Graphics/SVG/1.1/DTD/svg11.dtd">
<!-- Generated by graphviz version 2.26.3 (20100126.1600)
 -->
<!-- Title: src/tree/TDetectorRead.h Pages: 1 -->
<svg width="851pt" height="320pt"
 viewBox="0.00 0.00 851.07 320.00" xmlns="http://www.w3.org/2000/svg" xmlns:xlink="http://www.w3.org/1999/xlink">
<g id="graph1" class="graph" transform="scale(1 1) rotate(0) translate(4 316)">
<title>src/tree/TDetectorRead.h</title>
<polygon fill="white" stroke="white" points="-4,5 -4,-316 848.069,-316 848.069,5 -4,5"/>
<!-- Node1 -->
<g id="node1" class="node"><title>Node1</title>
<polygon fill="#bfbfbf" stroke="black" points="703.069,-290.5 703.069,-311.5 831.069,-311.5 831.069,-290.5 703.069,-290.5"/>
<text text-anchor="middle" x="767.069" y="-298.5" font-family="Helvetica,sans-Serif" font-size="10.00">src/tree/TDetectorRead.h</text>
</g>
<!-- Node2 -->
<g id="node3" class="node"><title>Node2</title>
<a xlink:href="_t_data_record_8h.html" target="_top" xlink:title="TDataRecord.h">
<polygon fill="white" stroke="black" points="687.569,-232.5 687.569,-253.5 770.569,-253.5 770.569,-232.5 687.569,-232.5"/>
<text text-anchor="middle" x="729.069" y="-240.5" font-family="Helvetica,sans-Serif" font-size="10.00">TDataRecord.h</text>
</a>
</g>
<!-- Node1&#45;&gt;Node2 -->
<g id="edge2" class="edge"><title>Node1&#45;&gt;Node2</title>
<path fill="none" stroke="midnightblue" d="M760.099,-290.362C754.903,-282.431 747.668,-271.389 741.492,-261.961"/>
<polygon fill="midnightblue" stroke="midnightblue" points="744.403,-260.017 735.995,-253.571 738.547,-263.853 744.403,-260.017"/>
</g>
<!-- Node11 -->
<g id="node21" class="node"><title>Node11</title>
<polygon fill="white" stroke="#bfbfbf" points="699.069,-0.5 699.069,-21.5 751.069,-21.5 751.069,-0.5 699.069,-0.5"/>
<text text-anchor="middle" x="725.069" y="-8.5" font-family="Helvetica,sans-Serif" font-size="10.00">sstream</text>
</g>
<!-- Node1&#45;&gt;Node11 -->
<g id="edge64" class="edge"><title>Node1&#45;&gt;Node11</title>
<path fill="none" stroke="midnightblue" d="M780.307,-290.375C802.082,-271.606 843.069,-230.263 843.069,-185 843.069,-185 843.069,-185 843.069,-127 843.069,-79.1371 793.087,-44.4404 758.183,-26.0456"/>
<polygon fill="midnightblue" stroke="midnightblue" points="759.735,-22.9084 749.233,-21.507 756.569,-29.1515 759.735,-22.9084"/>
</g>
<!-- Node19 -->
<g id="node37" class="node"><title>Node19</title>
<polygon fill="white" stroke="#bfbfbf" points="716.069,-116.5 716.069,-137.5 766.069,-137.5 766.069,-116.5 716.069,-116.5"/>
<text text-anchor="middle" x="741.069" y="-124.5" font-family="Helvetica,sans-Serif" font-size="10.00">iomanip</text>
</g>
<!-- Node1&#45;&gt;Node19 -->
<g id="edge62" class="edge"><title>Node1&#45;&gt;Node19</title>
<path fill="none" stroke="midnightblue" d="M770.611,-290.32C773.542,-280.889 777.473,-266.701 779.069,-254 783.986,-214.864 765.288,-171.208 752.39,-146.625"/>
<polygon fill="midnightblue" stroke="midnightblue" points="755.332,-144.709 747.466,-137.611 749.189,-148.065 755.332,-144.709"/>
</g>
<!-- Node20 -->
<g id="node43" class="node"><title>Node20</title>
<a xlink:href="_detector__t_8h.html" target="_top" xlink:title="base/Detector_t.h">
<polygon fill="white" stroke="black" points="123.569,-174.5 123.569,-195.5 218.569,-195.5 218.569,-174.5 123.569,-174.5"/>
<text text-anchor="middle" x="171.069" y="-182.5" font-family="Helvetica,sans-Serif" font-size="10.00">base/Detector_t.h</text>
</a>
</g>
<!-- Node1&#45;&gt;Node20 -->
<g id="edge46" class="edge"><title>Node1&#45;&gt;Node20</title>
<path fill="none" stroke="midnightblue" d="M712.863,-290.45C600.747,-268.629 344.243,-218.705 229.005,-196.276"/>
<polygon fill="midnightblue" stroke="midnightblue" points="229.449,-192.797 218.964,-194.322 228.111,-199.668 229.449,-192.797"/>
</g>
<!-- Node3 -->
<g id="node5" class="node"><title>Node3</title>
<a xlink:href="_t_i_d_8h.html" target="_top" xlink:title="TID.h">
<polygon fill="white" stroke="black" points="470.569,-174.5 470.569,-195.5 511.569,-195.5 511.569,-174.5 470.569,-174.5"/>
<text text-anchor="middle" x="491.069" y="-182.5" font-family="Helvetica,sans-Serif" font-size="10.00">TID.h</text>
</a>
</g>
<!-- Node2&#45;&gt;Node3 -->
<g id="edge4" class="edge"><title>Node2&#45;&gt;Node3</title>
<path fill="none" stroke="midnightblue" d="M687.34,-232.831C640.024,-221.3 563.992,-202.771 521.794,-192.488"/>
<polygon fill="midnightblue" stroke="midnightblue" points="522.377,-189.027 511.832,-190.06 520.719,-195.828 522.377,-189.027"/>
</g>
<!-- Node4 -->
<g id="node7" class="node"><title>Node4</title>
<polygon fill="white" stroke="#bfbfbf" points="642.069,-116.5 642.069,-137.5 698.069,-137.5 698.069,-116.5 642.069,-116.5"/>
<text text-anchor="middle" x="670.069" y="-124.5" font-family="Helvetica,sans-Serif" font-size="10.00">Rtypes.h</text>
</g>
<!-- Node2&#45;&gt;Node4 -->
<g id="edge40" class="edge"><title>Node2&#45;&gt;Node4</title>
<path fill="none" stroke="midnightblue" d="M723.624,-232.295C713.746,-212.872 692.731,-171.556 680.163,-146.846"/>
<polygon fill="midnightblue" stroke="midnightblue" points="683.154,-145.006 675.501,-137.679 676.915,-148.179 683.154,-145.006"/>
</g>
<!-- Node14 -->
<g id="node27" class="node"><title>Node14</title>
<polygon fill="white" stroke="#bfbfbf" points="606.569,-58.5 606.569,-79.5 647.569,-79.5 647.569,-58.5 606.569,-58.5"/>
<text text-anchor="middle" x="627.069" y="-66.5" font-family="Helvetica,sans-Serif" font-size="10.00">ctime</text>
</g>
<!-- Node2&#45;&gt;Node14 -->
<g id="edge44" class="edge"><title>Node2&#45;&gt;Node14</title>
<path fill="none" stroke="midnightblue" d="M739.305,-232.167C759.975,-208.952 802.486,-153.473 775.069,-116 761.107,-96.917 696.789,-81.9183 657.68,-74.3666"/>
<polygon fill="midnightblue" stroke="midnightblue" points="658.091,-70.8827 647.617,-72.4799 656.801,-77.7628 658.091,-70.8827"/>
</g>
<!-- Node2&#45;&gt;Node19 -->
<g id="edge42" class="edge"><title>Node2&#45;&gt;Node19</title>
<path fill="none" stroke="midnightblue" d="M730.176,-232.295C732.159,-213.131 736.346,-172.654 738.913,-147.843"/>
<polygon fill="midnightblue" stroke="midnightblue" points="742.417,-147.986 739.964,-137.679 735.454,-147.266 742.417,-147.986"/>
</g>
<!-- Node3&#45;&gt;Node4 -->
<g id="edge6" class="edge"><title>Node3&#45;&gt;Node4</title>
<path fill="none" stroke="midnightblue" d="M511.603,-178.347C540.897,-168.854 595.205,-151.258 631.984,-139.34"/>
<polygon fill="midnightblue" stroke="midnightblue" points="633.423,-142.553 641.857,-136.141 631.265,-135.894 633.423,-142.553"/>
</g>
<!-- Node5 -->
<g id="node9" class="node"><title>Node5</title>
<a xlink:href="printable_8h.html" target="_top" xlink:title="base/printable.h">
<polygon fill="white" stroke="black" points="248.069,-116.5 248.069,-137.5 334.069,-137.5 334.069,-116.5 248.069,-116.5"/>
<text text-anchor="middle" x="291.069" y="-124.5" font-family="Helvetica,sans-Serif" font-size="10.00">base/printable.h</text>
</a>
</g>
<!-- Node3&#45;&gt;Node5 -->
<g id="edge8" class="edge"><title>Node3&#45;&gt;Node5</title>
<path fill="none" stroke="midnightblue" d="M470.419,-179.011C439.189,-169.955 379.142,-152.541 337.166,-140.368"/>
<polygon fill="midnightblue" stroke="midnightblue" points="338.023,-136.972 327.443,-137.549 336.073,-143.695 338.023,-136.972"/>
</g>
<!-- Node8 -->
<g id="node15" class="node"><title>Node8</title>
<a xlink:href="time_8h.html" target="_top" xlink:title="base/std_ext/time.h">
<polygon fill="white" stroke="black" points="483.569,-116.5 483.569,-137.5 586.569,-137.5 586.569,-116.5 483.569,-116.5"/>
<text text-anchor="middle" x="535.069" y="-124.5" font-family="Helvetica,sans-Serif" font-size="10.00">base/std_ext/time.h</text>
</a>
</g>
<!-- Node3&#45;&gt;Node8 -->
<g id="edge14" class="edge"><title>Node3&#45;&gt;Node8</title>
<path fill="none" stroke="midnightblue" d="M499.139,-174.362C505.218,-166.35 513.706,-155.161 520.906,-145.67"/>
<polygon fill="midnightblue" stroke="midnightblue" points="523.794,-147.653 527.05,-137.571 518.218,-143.422 523.794,-147.653"/>
</g>
<!-- Node3&#45;&gt;Node14 -->
<g id="edge38" class="edge"><title>Node3&#45;&gt;Node14</title>
<path fill="none" stroke="midnightblue" d="M511.927,-180.239C534.907,-174.035 571.698,-161.143 595.069,-138 608.508,-124.692 616.926,-104.675 621.735,-89.6231"/>
<polygon fill="midnightblue" stroke="midnightblue" points="625.187,-90.2869 624.619,-79.7073 618.465,-88.3322 625.187,-90.2869"/>
</g>
<!-- Node15 -->
<g id="node29" class="node"><title>Node15</title>
<polygon fill="white" stroke="#bfbfbf" points="104.069,-116.5 104.069,-137.5 166.069,-137.5 166.069,-116.5 104.069,-116.5"/>
<text text-anchor="middle" x="135.069" y="-124.5" font-family="Helvetica,sans-Serif" font-size="10.00">type_traits</text>
</g>
<!-- Node3&#45;&gt;Node15 -->
<g id="edge28" class="edge"><title>Node3&#45;&gt;Node15</title>
<path fill="none" stroke="midnightblue" d="M470.21,-182.78C420.825,-177.34 292.767,-162.146 176.553,-138.13"/>
<polygon fill="midnightblue" stroke="midnightblue" points="176.93,-134.633 166.424,-136.008 175.494,-141.484 176.93,-134.633"/>
</g>
<!-- Node16 -->
<g id="node31" class="node"><title>Node16</title>
<polygon fill="white" stroke="#bfbfbf" points="428.069,-116.5 428.069,-137.5 466.069,-137.5 466.069,-116.5 428.069,-116.5"/>
<text text-anchor="middle" x="447.069" y="-124.5" font-family="Helvetica,sans-Serif" font-size="10.00">tuple</text>
</g>
<!-- Node3&#45;&gt;Node16 -->
<g id="edge30" class="edge"><title>Node3&#45;&gt;Node16</title>
<path fill="none" stroke="midnightblue" d="M482.999,-174.362C476.92,-166.35 468.432,-155.161 461.232,-145.67"/>
<polygon fill="midnightblue" stroke="midnightblue" points="463.92,-143.422 455.088,-137.571 458.344,-147.653 463.92,-143.422"/>
</g>
<!-- Node17 -->
<g id="node33" class="node"><title>Node17</title>
<polygon fill="white" stroke="#bfbfbf" points="184.069,-116.5 184.069,-137.5 230.069,-137.5 230.069,-116.5 184.069,-116.5"/>
<text text-anchor="middle" x="207.069" y="-124.5" font-family="Helvetica,sans-Serif" font-size="10.00">cstdint</text>
</g>
<!-- Node3&#45;&gt;Node17 -->
<g id="edge32" class="edge"><title>Node3&#45;&gt;Node17</title>
<path fill="none" stroke="midnightblue" d="M470.262,-182.176C428.376,-176.268 330.815,-161.388 240.237,-138.037"/>
<polygon fill="midnightblue" stroke="midnightblue" points="240.927,-134.6 230.366,-135.451 239.153,-141.371 240.927,-134.6"/>
</g>
<!-- Node18 -->
<g id="node35" class="node"><title>Node18</title>
<polygon fill="white" stroke="#bfbfbf" points="351.569,-116.5 351.569,-137.5 410.569,-137.5 410.569,-116.5 351.569,-116.5"/>
<text text-anchor="middle" x="381.069" y="-124.5" font-family="Helvetica,sans-Serif" font-size="10.00">stdexcept</text>
</g>
<!-- Node3&#45;&gt;Node18 -->
<g id="edge34" class="edge"><title>Node3&#45;&gt;Node18</title>
<path fill="none" stroke="midnightblue" d="M471.149,-174.497C454.123,-165.519 429.4,-152.484 410.16,-142.339"/>
<polygon fill="midnightblue" stroke="midnightblue" points="411.691,-139.189 401.213,-137.621 408.426,-145.381 411.691,-139.189"/>
</g>
<!-- Node3&#45;&gt;Node19 -->
<g id="edge36" class="edge"><title>Node3&#45;&gt;Node19</title>
<path fill="none" stroke="midnightblue" d="M511.782,-181.199C548.861,-174.246 629.166,-158.51 706.057,-138.093"/>
<polygon fill="midnightblue" stroke="midnightblue" points="707.152,-141.423 715.901,-135.448 705.335,-134.663 707.152,-141.423"/>
</g>
<!-- Node6 -->
<g id="node11" class="node"><title>Node6</title>
<polygon fill="white" stroke="#bfbfbf" points="94.0691,-58.5 94.0691,-79.5 138.069,-79.5 138.069,-58.5 94.0691,-58.5"/>
<text text-anchor="middle" x="116.069" y="-66.5" font-family="Helvetica,sans-Serif" font-size="10.00">vector</text>
</g>
<!-- Node5&#45;&gt;Node6 -->
<g id="edge10" class="edge"><title>Node5&#45;&gt;Node6</title>
<path fill="none" stroke="midnightblue" d="M259.378,-116.497C227.737,-106.01 179.387,-89.9855 147.75,-79.5001"/>
<polygon fill="midnightblue" stroke="midnightblue" points="148.702,-76.1282 138.108,-76.3044 146.499,-82.7728 148.702,-76.1282"/>
</g>
<!-- Node7 -->
<g id="node13" class="node"><title>Node7</title>
<polygon fill="white" stroke="#bfbfbf" points="265.069,-58.5 265.069,-79.5 317.069,-79.5 317.069,-58.5 265.069,-58.5"/>
<text text-anchor="middle" x="291.069" y="-66.5" font-family="Helvetica,sans-Serif" font-size="10.00">ostream</text>
</g>
<!-- Node5&#45;&gt;Node7 -->
<g id="edge12" class="edge"><title>Node5&#45;&gt;Node7</title>
<path fill="none" stroke="midnightblue" d="M291.069,-116.362C291.069,-108.922 291.069,-98.7427 291.069,-89.7276"/>
<polygon fill="midnightblue" stroke="midnightblue" points="294.569,-89.5706 291.069,-79.5707 287.569,-89.5707 294.569,-89.5706"/>
</g>
<!-- Node9 -->
<g id="node17" class="node"><title>Node9</title>
<a xlink:href="string_8h.html" target="_top" xlink:title="base/std_ext/string.h">
<polygon fill="white" stroke="black" points="481.069,-58.5 481.069,-79.5 589.069,-79.5 589.069,-58.5 481.069,-58.5"/>
<text text-anchor="middle" x="535.069" y="-66.5" font-family="Helvetica,sans-Serif" font-size="10.00">base/std_ext/string.h</text>
</a>
</g>
<!-- Node8&#45;&gt;Node9 -->
<g id="edge16" class="edge"><title>Node8&#45;&gt;Node9</title>
<path fill="none" stroke="midnightblue" d="M535.069,-116.362C535.069,-108.922 535.069,-98.7427 535.069,-89.7276"/>
<polygon fill="midnightblue" stroke="midnightblue" points="538.569,-89.5706 535.069,-79.5707 531.569,-89.5707 538.569,-89.5706"/>
</g>
<!-- Node13 -->
<g id="node25" class="node"><title>Node13</title>
<polygon fill="white" stroke="#bfbfbf" points="417.069,-58.5 417.069,-79.5 463.069,-79.5 463.069,-58.5 417.069,-58.5"/>
<text text-anchor="middle" x="440.069" y="-66.5" font-family="Helvetica,sans-Serif" font-size="10.00">cstring</text>
</g>
<!-- Node8&#45;&gt;Node13 -->
<g id="edge24" class="edge"><title>Node8&#45;&gt;Node13</title>
<path fill="none" stroke="midnightblue" d="M517.645,-116.362C503.182,-107.532 482.4,-94.844 465.985,-84.8224"/>
<polygon fill="midnightblue" stroke="midnightblue" points="467.742,-81.7943 457.383,-79.5707 464.094,-87.7688 467.742,-81.7943"/>
</g>
<!-- Node8&#45;&gt;Node14 -->
<g id="edge26" class="edge"><title>Node8&#45;&gt;Node14</title>
<path fill="none" stroke="midnightblue" d="M551.943,-116.362C565.82,-107.614 585.703,-95.0786 601.529,-85.1015"/>
<polygon fill="midnightblue" stroke="midnightblue" points="603.709,-87.8645 610.302,-79.5707 599.976,-81.943 603.709,-87.8645"/>
</g>
<!-- Node10 -->
<g id="node19" class="node"><title>Node10</title>
<polygon fill="white" stroke="#bfbfbf" points="192.569,-0.5 192.569,-21.5 233.569,-21.5 233.569,-0.5 192.569,-0.5"/>
<text text-anchor="middle" x="213.069" y="-8.5" font-family="Helvetica,sans-Serif" font-size="10.00">string</text>
</g>
<!-- Node9&#45;&gt;Node10 -->
<g id="edge18" class="edge"><title>Node9&#45;&gt;Node10</title>
<path fill="none" stroke="midnightblue" d="M480.81,-59.2267C412.758,-46.9687 298.397,-26.3696 243.835,-16.5416"/>
<polygon fill="midnightblue" stroke="midnightblue" points="244.213,-13.0535 233.751,-14.7253 242.972,-19.9427 244.213,-13.0535"/>
</g>
<!-- Node9&#45;&gt;Node11 -->
<g id="edge20" class="edge"><title>Node9&#45;&gt;Node11</title>
<path fill="none" stroke="midnightblue" d="M569.477,-58.4966C603.348,-48.157 654.856,-32.4334 689.218,-21.944"/>
<polygon fill="midnightblue" stroke="midnightblue" points="690.317,-25.2681 698.859,-19.0009 688.273,-18.5731 690.317,-25.2681"/>
</g>
<!-- Node12 -->
<g id="node23" class="node"><title>Node12</title>
<polygon fill="white" stroke="#bfbfbf" points="507.069,-0.5 507.069,-21.5 563.069,-21.5 563.069,-0.5 507.069,-0.5"/>
<text text-anchor="middle" x="535.069" y="-8.5" font-family="Helvetica,sans-Serif" font-size="10.00">algorithm</text>
</g>
<!-- Node9&#45;&gt;Node12 -->
<g id="edge22" class="edge"><title>Node9&#45;&gt;Node12</title>
<path fill="none" stroke="midnightblue" d="M535.069,-58.3619C535.069,-50.9219 535.069,-40.7427 535.069,-31.7276"/>
<polygon fill="midnightblue" stroke="midnightblue" points="538.569,-31.5706 535.069,-21.5707 531.569,-31.5707 538.569,-31.5706"/>
</g>
<!-- Node20&#45;&gt;Node5 -->
<g id="edge48" class="edge"><title>Node20&#45;&gt;Node5</title>
<path fill="none" stroke="midnightblue" d="M192.8,-174.497C211.543,-165.438 238.836,-152.246 259.905,-142.063"/>
<polygon fill="midnightblue" stroke="midnightblue" points="261.614,-145.124 269.094,-137.621 258.568,-138.822 261.614,-145.124"/>
</g>
<!-- Node20&#45;&gt;Node6 -->
<g id="edge60" class="edge"><title>Node20&#45;&gt;Node6</title>
<path fill="none" stroke="midnightblue" d="M123.287,-177.203C81.8098,-169.345 26.372,-155.836 13.0691,-138 -9.31573,-107.987 46.2798,-86.9026 84.2144,-76.4707"/>
<polygon fill="midnightblue" stroke="midnightblue" points="85.1089,-79.8545 93.8928,-73.9305 83.3318,-73.0838 85.1089,-79.8545"/>
</g>
<!-- Node20&#45;&gt;Node10 -->
<g id="edge56" class="edge"><title>Node20&#45;&gt;Node10</title>
<path fill="none" stroke="midnightblue" d="M123.537,-178.092C79.4465,-170.596 18.5264,-157.088 4.06905,-138 -1.83452,-130.206 -0.400007,-124.697 4.06905,-116 38.5645,-48.8725 133.137,-23.8707 182.369,-15.2097"/>
<polygon fill="midnightblue" stroke="midnightblue" points="183.132,-18.6314 192.432,-13.5569 181.997,-11.724 183.132,-18.6314"/>
</g>
<!-- Node20&#45;&gt;Node15 -->
<g id="edge58" class="edge"><title>Node20&#45;&gt;Node15</title>
<path fill="none" stroke="midnightblue" d="M164.466,-174.362C159.594,-166.513 152.831,-155.616 147.019,-146.253"/>
<polygon fill="midnightblue" stroke="midnightblue" points="149.878,-144.221 141.63,-137.571 143.93,-147.913 149.878,-144.221"/>
</g>
<!-- Node20&#45;&gt;Node17 -->
<g id="edge52" class="edge"><title>Node20&#45;&gt;Node17</title>
<path fill="none" stroke="midnightblue" d="M177.672,-174.362C182.544,-166.513 189.307,-155.616 195.119,-146.253"/>
<polygon fill="midnightblue" stroke="midnightblue" points="198.208,-147.913 200.508,-137.571 192.261,-144.221 198.208,-147.913"/>
</g>
<!-- Node20&#45;&gt;Node18 -->
<g id="edge54" class="edge"><title>Node20&#45;&gt;Node18</title>
<path fill="none" stroke="midnightblue" d="M210.395,-174.434C243.175,-165.587 291.352,-152.491 341.495,-138.421"/>
<polygon fill="midnightblue" stroke="midnightblue" points="342.531,-141.765 351.21,-135.689 340.636,-135.027 342.531,-141.765"/>
</g>
<!-- Node21 -->
<g id="node46" class="node"><title>Node21</title>
<polygon fill="white" stroke="#bfbfbf" points="21.5691,-116.5 21.5691,-137.5 86.5691,-137.5 86.5691,-116.5 21.5691,-116.5"/>
<text text-anchor="middle" x="54.0691" y="-124.5" font-family="Helvetica,sans-Serif" font-size="10.00">TVector3.h</text>
</g>
<!-- Node20&#45;&gt;Node21 -->
<g id="edge50" class="edge"><title>Node20&#45;&gt;Node21</title>
<path fill="none" stroke="midnightblue" d="M149.881,-174.497C131.607,-165.438 104.997,-152.246 84.4543,-142.063"/>
<polygon fill="midnightblue" stroke="midnightblue" points="86.0087,-138.927 75.4946,-137.621 82.8996,-145.199 86.0087,-138.927"/>
</g>
</g>
</svg>
