<?xml version="1.0" encoding="UTF-8" standalone="no"?>
<!DOCTYPE svg PUBLIC "-//W3C//DTD SVG 1.1//EN"
 "http://www.w3.org/Graphics/SVG/1.1/DTD/svg11.dtd">
<!-- Generated by graphviz version 2.26.3 (20100126.1600)
 -->
<!-- Title: src/tree/TDetectorRead.h Pages: 1 -->
<svg width="2834pt" height="102pt"
 viewBox="0.00 0.00 2834.00 102.00" xmlns="http://www.w3.org/2000/svg" xmlns:xlink="http://www.w3.org/1999/xlink">
<g id="graph1" class="graph" transform="scale(1 1) rotate(0) translate(4 98)">
<title>src/tree/TDetectorRead.h</title>
<polygon fill="white" stroke="white" points="-4,5 -4,-98 2831,-98 2831,5 -4,5"/>
<!-- Node1 -->
<g id="node1" class="node"><title>Node1</title>
<polygon fill="#bfbfbf" stroke="black" points="1217,-72.5 1217,-93.5 1345,-93.5 1345,-72.5 1217,-72.5"/>
<text text-anchor="middle" x="1281" y="-80.5" font-family="Helvetica,sans-Serif" font-size="10.00">src/tree/TDetectorRead.h</text>
</g>
<!-- Node2 -->
<g id="node3" class="node"><title>Node2</title>
<a xlink:href="_ant_reader_8cc.html" target="_top" xlink:title="src/analysis/input\l/ant/AntReader.cc">
<polygon fill="white" stroke="black" points="0,-1 0,-35 96,-35 96,-1 0,-1"/>
<text text-anchor="start" x="8" y="-22" font-family="Helvetica,sans-Serif" font-size="10.00">src/analysis/input</text>
<text text-anchor="middle" x="48" y="-9" font-family="Helvetica,sans-Serif" font-size="10.00">/ant/AntReader.cc</text>
</a>
</g>
<!-- Node1&#45;&gt;Node2 -->
<g id="edge2" class="edge"><title>Node1&#45;&gt;Node2</title>
<path fill="none" stroke="midnightblue" d="M1206.49,-82.6064C982.574,-81.0154 317.998,-73.2014 105,-36 102.138,-35.5001 99.2195,-34.8942 96.2921,-34.2115"/>
<polygon fill="midnightblue" stroke="midnightblue" points="1206.8,-86.1085 1216.82,-82.6776 1206.84,-79.1087 1206.8,-86.1085"/>
</g>
<!-- Node3 -->
<g id="node5" class="node"><title>Node3</title>
<a xlink:href="_c_a_t_c_h___t_d_c_8cc.html" target="_top" xlink:title="src/calibration/converters\l/CATCH_TDC.cc">
<polygon fill="white" stroke="black" points="114,-1 114,-35 240,-35 240,-1 114,-1"/>
<text text-anchor="start" x="122" y="-22" font-family="Helvetica,sans-Serif" font-size="10.00">src/calibration/converters</text>
<text text-anchor="middle" x="177" y="-9" font-family="Helvetica,sans-Serif" font-size="10.00">/CATCH_TDC.cc</text>
</a>
</g>
<!-- Node1&#45;&gt;Node3 -->
<g id="edge4" class="edge"><title>Node1&#45;&gt;Node3</title>
<path fill="none" stroke="midnightblue" d="M1206.65,-81.54C1002.11,-77.2165 433.989,-63.0592 249,-36 246.068,-35.5711 243.081,-35.0739 240.074,-34.5243"/>
<polygon fill="midnightblue" stroke="midnightblue" points="1206.62,-85.0401 1216.69,-81.7505 1206.77,-78.0416 1206.62,-85.0401"/>
</g>
<!-- Node4 -->
<g id="node7" class="node"><title>Node4</title>
<a xlink:href="_scaler_frequency_8cc.html" target="_top" xlink:title="src/calibration/converters\l/ScalerFrequency.cc">
<polygon fill="white" stroke="black" points="258,-1 258,-35 384,-35 384,-1 258,-1"/>
<text text-anchor="start" x="266" y="-22" font-family="Helvetica,sans-Serif" font-size="10.00">src/calibration/converters</text>
<text text-anchor="middle" x="321" y="-9" font-family="Helvetica,sans-Serif" font-size="10.00">/ScalerFrequency.cc</text>
</a>
</g>
<!-- Node1&#45;&gt;Node4 -->
<g id="edge6" class="edge"><title>Node1&#45;&gt;Node4</title>
<path fill="none" stroke="midnightblue" d="M1206.62,-80.9034C1022.51,-75.4172 549.115,-59.4235 393,-36 390.069,-35.5603 387.084,-35.0543 384.078,-34.4975"/>
<polygon fill="midnightblue" stroke="midnightblue" points="1206.65,-84.4057 1216.75,-81.2033 1206.86,-77.4088 1206.65,-84.4057"/>
</g>
<!-- Node5 -->
<g id="node9" class="node"><title>Node5</title>
<a xlink:href="_energy_8cc.html" target="_top" xlink:title="src/calibration/modules\l/Energy.cc">
<polygon fill="white" stroke="black" points="401.5,-1 401.5,-35 518.5,-35 518.5,-1 401.5,-1"/>
<text text-anchor="start" x="409.5" y="-22" font-family="Helvetica,sans-Serif" font-size="10.00">src/calibration/modules</text>
<text text-anchor="middle" x="460" y="-9" font-family="Helvetica,sans-Serif" font-size="10.00">/Energy.cc</text>
</a>
</g>
<!-- Node1&#45;&gt;Node5 -->
<g id="edge8" class="edge"><title>Node1&#45;&gt;Node5</title>
<path fill="none" stroke="midnightblue" d="M1206.49,-80.2556C1042.82,-73.9182 656.263,-57.1731 527,-36 524.266,-35.5522 521.483,-35.0396 518.681,-34.4774"/>
<polygon fill="midnightblue" stroke="midnightblue" points="1206.81,-83.7706 1216.94,-80.6579 1207.08,-76.7758 1206.81,-83.7706"/>
</g>
<!-- Node6 -->
<g id="node11" class="node"><title>Node6</title>
<a xlink:href="_scaler_8cc.html" target="_top" xlink:title="src/calibration/modules\l/Scaler.cc">
<polygon fill="white" stroke="black" points="535.5,-1 535.5,-35 652.5,-35 652.5,-1 535.5,-1"/>
<text text-anchor="start" x="543.5" y="-22" font-family="Helvetica,sans-Serif" font-size="10.00">src/calibration/modules</text>
<text text-anchor="middle" x="594" y="-9" font-family="Helvetica,sans-Serif" font-size="10.00">/Scaler.cc</text>
</a>
</g>
<!-- Node1&#45;&gt;Node6 -->
<g id="edge10" class="edge"><title>Node1&#45;&gt;Node6</title>
<path fill="none" stroke="midnightblue" d="M1206.43,-81.8327C1089.44,-78.9966 855.962,-69.2781 661,-36 658.269,-35.5339 655.488,-35.0062 652.688,-34.4319"/>
<polygon fill="midnightblue" stroke="midnightblue" points="1206.62,-85.3381 1216.7,-82.0712 1206.79,-78.3399 1206.62,-85.3381"/>
</g>
<!-- Node7 -->
<g id="node13" class="node"><title>Node7</title>
<a xlink:href="_time_8cc.html" target="_top" xlink:title="src/calibration/modules\l/Time.cc">
<polygon fill="white" stroke="black" points="669.5,-1 669.5,-35 786.5,-35 786.5,-1 669.5,-1"/>
<text text-anchor="start" x="677.5" y="-22" font-family="Helvetica,sans-Serif" font-size="10.00">src/calibration/modules</text>
<text text-anchor="middle" x="728" y="-9" font-family="Helvetica,sans-Serif" font-size="10.00">/Time.cc</text>
</a>
</g>
<!-- Node1&#45;&gt;Node7 -->
<g id="edge12" class="edge"><title>Node1&#45;&gt;Node7</title>
<path fill="none" stroke="midnightblue" d="M1206.68,-79.6528C1110.89,-74.4623 939.453,-62.2016 795,-36 792.274,-35.5056 789.497,-34.9547 786.701,-34.3615"/>
<polygon fill="midnightblue" stroke="midnightblue" points="1206.68,-83.1573 1216.85,-80.1924 1207.05,-76.1672 1206.68,-83.1573"/>
</g>
<!-- Node8 -->
<g id="node15" class="node"><title>Node8</title>
<a xlink:href="_clustering_8cc.html" target="_top" xlink:title="src/reconstruct/Clustering.cc">
<polygon fill="white" stroke="black" points="803.5,-7.5 803.5,-28.5 946.5,-28.5 946.5,-7.5 803.5,-7.5"/>
<text text-anchor="middle" x="875" y="-15.5" font-family="Helvetica,sans-Serif" font-size="10.00">src/reconstruct/Clustering.cc</text>
</a>
</g>
<!-- Node1&#45;&gt;Node8 -->
<g id="edge14" class="edge"><title>Node1&#45;&gt;Node8</title>
<path fill="none" stroke="midnightblue" d="M1206.8,-73.9815C1140.55,-65.5301 1040.98,-51.8465 955,-36 943.24,-33.8326 930.584,-31.1496 918.886,-28.5227"/>
<polygon fill="midnightblue" stroke="midnightblue" points="1206.37,-77.4552 1216.74,-75.2413 1207.26,-70.5108 1206.37,-77.4552"/>
</g>
<!-- Node9 -->
<g id="node17" class="node"><title>Node9</title>
<a xlink:href="_reconstruct_8cc.html" target="_top" xlink:title="src/reconstruct/Reconstruct.cc">
<polygon fill="white" stroke="black" points="964,-7.5 964,-28.5 1116,-28.5 1116,-7.5 964,-7.5"/>
<text text-anchor="middle" x="1040" y="-15.5" font-family="Helvetica,sans-Serif" font-size="10.00">src/reconstruct/Reconstruct.cc</text>
</a>
</g>
<!-- Node1&#45;&gt;Node9 -->
<g id="edge16" class="edge"><title>Node1&#45;&gt;Node9</title>
<path fill="none" stroke="midnightblue" d="M1232.14,-69.8219C1186.95,-57.6331 1120.65,-39.7518 1078.93,-28.5005"/>
<polygon fill="midnightblue" stroke="midnightblue" points="1231.44,-73.2595 1242.01,-72.4844 1233.27,-66.501 1231.44,-73.2595"/>
</g>
<!-- Node10 -->
<g id="node19" class="node"><title>Node10</title>
<a xlink:href="_unpacker_reader_8cc.html" target="_top" xlink:title="src/tree/UnpackerReader.cc">
<polygon fill="white" stroke="black" points="1134,-7.5 1134,-28.5 1274,-28.5 1274,-7.5 1134,-7.5"/>
<text text-anchor="middle" x="1204" y="-15.5" font-family="Helvetica,sans-Serif" font-size="10.00">src/tree/UnpackerReader.cc</text>
</a>
</g>
<!-- Node1&#45;&gt;Node10 -->
<g id="edge18" class="edge"><title>Node1&#45;&gt;Node10</title>
<path fill="none" stroke="midnightblue" d="M1260.59,-65.7667C1246.56,-53.9281 1228.39,-38.5923 1216.48,-28.5337"/>
<polygon fill="midnightblue" stroke="midnightblue" points="1258.39,-68.4905 1268.29,-72.2666 1262.9,-63.1415 1258.39,-68.4905"/>
</g>
<!-- Node11 -->
<g id="node21" class="node"><title>Node11</title>
<a xlink:href="_unpacker_writer_8cc.html" target="_top" xlink:title="src/tree/UnpackerWriter.cc">
<polygon fill="white" stroke="black" points="1292,-7.5 1292,-28.5 1426,-28.5 1426,-7.5 1292,-7.5"/>
<text text-anchor="middle" x="1359" y="-15.5" font-family="Helvetica,sans-Serif" font-size="10.00">src/tree/UnpackerWriter.cc</text>
</a>
</g>
<!-- Node1&#45;&gt;Node11 -->
<g id="edge20" class="edge"><title>Node1&#45;&gt;Node11</title>
<path fill="none" stroke="midnightblue" d="M1301.68,-65.7667C1315.89,-53.9281 1334.29,-38.5923 1346.36,-28.5337"/>
<polygon fill="midnightblue" stroke="midnightblue" points="1299.32,-63.1759 1293.88,-72.2666 1303.8,-68.5535 1299.32,-63.1759"/>
</g>
<!-- Node12 -->
<g id="node23" class="node"><title>Node12</title>
<a xlink:href="_unpacker_acqu___file_format_mk2_8cc.html" target="_top" xlink:title="src/unpacker/detail\l/UnpackerAcqu_FileFormatMk2.cc">
<polygon fill="white" stroke="black" points="1444,-1 1444,-35 1612,-35 1612,-1 1444,-1"/>
<text text-anchor="start" x="1452" y="-22" font-family="Helvetica,sans-Serif" font-size="10.00">src/unpacker/detail</text>
<text text-anchor="middle" x="1528" y="-9" font-family="Helvetica,sans-Serif" font-size="10.00">/UnpackerAcqu_FileFormatMk2.cc</text>
</a>
</g>
<!-- Node1&#45;&gt;Node12 -->
<g id="edge22" class="edge"><title>Node1&#45;&gt;Node12</title>
<path fill="none" stroke="midnightblue" d="M1330.79,-69.897C1368.85,-59.8812 1421.64,-45.9893 1463.02,-35.0987"/>
<polygon fill="midnightblue" stroke="midnightblue" points="1329.74,-66.5546 1320.96,-72.4844 1331.52,-73.3241 1329.74,-66.5546"/>
</g>
<!-- Node13 -->
<g id="node25" class="node"><title>Node13</title>
<a xlink:href="_unpacker_a2_geant_8cc.html" target="_top" xlink:title="src/unpacker/UnpackerA2Geant.cc">
<polygon fill="white" stroke="black" points="1630,-7.5 1630,-28.5 1800,-28.5 1800,-7.5 1630,-7.5"/>
<text text-anchor="middle" x="1715" y="-15.5" font-family="Helvetica,sans-Serif" font-size="10.00">src/unpacker/UnpackerA2Geant.cc</text>
</a>
</g>
<!-- Node1&#45;&gt;Node13 -->
<g id="edge24" class="edge"><title>Node1&#45;&gt;Node13</title>
<path fill="none" stroke="midnightblue" d="M1355.4,-73.8434C1424.39,-65.0845 1529.84,-51.0183 1621,-36 1634.44,-33.7851 1648.92,-31.1424 1662.39,-28.5731"/>
<polygon fill="midnightblue" stroke="midnightblue" points="1354.55,-70.4227 1345.07,-75.1497 1355.43,-77.3674 1354.55,-70.4227"/>
</g>
<!-- Node14 -->
<g id="node27" class="node"><title>Node14</title>
<a xlink:href="_test_ant_reader_8cc.html" target="_top" xlink:title="test/analysis/TestAntReader.cc">
<polygon fill="white" stroke="black" points="1817.5,-7.5 1817.5,-28.5 1972.5,-28.5 1972.5,-7.5 1817.5,-7.5"/>
<text text-anchor="middle" x="1895" y="-15.5" font-family="Helvetica,sans-Serif" font-size="10.00">test/analysis/TestAntReader.cc</text>
</a>
</g>
<!-- Node1&#45;&gt;Node14 -->
<g id="edge26" class="edge"><title>Node1&#45;&gt;Node14</title>
<path fill="none" stroke="midnightblue" d="M1355.33,-79.1447C1457.84,-73.2006 1648.17,-59.9049 1809,-36 1822.28,-34.0265 1836.59,-31.2828 1849.65,-28.5317"/>
<polygon fill="midnightblue" stroke="midnightblue" points="1354.87,-75.6653 1345.09,-79.7312 1355.27,-82.6538 1354.87,-75.6653"/>
</g>
<!-- Node15 -->
<g id="node29" class="node"><title>Node15</title>
<a xlink:href="_test_candidate_builder_8cc.html" target="_top" xlink:title="test/reconstruct/TestCandidate\lBuilder.cc">
<polygon fill="white" stroke="black" points="1990,-1 1990,-35 2142,-35 2142,-1 1990,-1"/>
<text text-anchor="start" x="1998" y="-22" font-family="Helvetica,sans-Serif" font-size="10.00">test/reconstruct/TestCandidate</text>
<text text-anchor="middle" x="2066" y="-9" font-family="Helvetica,sans-Serif" font-size="10.00">Builder.cc</text>
</a>
</g>
<!-- Node1&#45;&gt;Node15 -->
<g id="edge28" class="edge"><title>Node1&#45;&gt;Node15</title>
<path fill="none" stroke="midnightblue" d="M1355.1,-81.4694C1483.25,-78.0551 1754.29,-67.4538 1981,-36 1983.84,-35.6061 1986.72,-35.1716 1989.63,-34.7046"/>
<polygon fill="midnightblue" stroke="midnightblue" points="1354.92,-77.9729 1345.01,-81.7312 1355.1,-84.9706 1354.92,-77.9729"/>
</g>
<!-- Node16 -->
<g id="node31" class="node"><title>Node16</title>
<a xlink:href="_test_reconstruct_8cc.html" target="_top" xlink:title="test/reconstruct/TestReconstruct.cc">
<polygon fill="white" stroke="black" points="2160,-7.5 2160,-28.5 2334,-28.5 2334,-7.5 2160,-7.5"/>
<text text-anchor="middle" x="2247" y="-15.5" font-family="Helvetica,sans-Serif" font-size="10.00">test/reconstruct/TestReconstruct.cc</text>
</a>
</g>
<!-- Node1&#45;&gt;Node16 -->
<g id="edge30" class="edge"><title>Node1&#45;&gt;Node16</title>
<path fill="none" stroke="midnightblue" d="M1355.16,-82.2725C1505.7,-80.074 1857.75,-71.2582 2151,-36 2166.15,-34.1782 2182.52,-31.4126 2197.37,-28.592"/>
<polygon fill="midnightblue" stroke="midnightblue" points="1355.05,-78.7736 1345.1,-82.4138 1355.15,-85.7729 1355.05,-78.7736"/>
</g>
<!-- Node17 -->
<g id="node33" class="node"><title>Node17</title>
<a xlink:href="_test_tree_writer_8cc.html" target="_top" xlink:title="test/unpacker/TestTreeWriter.cc">
<polygon fill="white" stroke="black" points="2352,-7.5 2352,-28.5 2510,-28.5 2510,-7.5 2352,-7.5"/>
<text text-anchor="middle" x="2431" y="-15.5" font-family="Helvetica,sans-Serif" font-size="10.00">test/unpacker/TestTreeWriter.cc</text>
</a>
</g>
<!-- Node1&#45;&gt;Node17 -->
<g id="edge32" class="edge"><title>Node1&#45;&gt;Node17</title>
<path fill="none" stroke="midnightblue" d="M1355.24,-81.2379C1563.65,-76.0486 2151.4,-59.6858 2343,-36 2357.24,-34.2399 2372.61,-31.4202 2386.46,-28.5297"/>
<polygon fill="midnightblue" stroke="midnightblue" points="1354.92,-77.7446 1345.01,-81.4912 1355.09,-84.7425 1354.92,-77.7446"/>
</g>
<!-- Node18 -->
<g id="node35" class="node"><title>Node18</title>
<a xlink:href="_test_unpacker_acqu_scaler_8cc.html" target="_top" xlink:title="test/unpacker/TestUnpacker\lAcquScaler.cc">
<polygon fill="white" stroke="black" points="2528,-1 2528,-35 2668,-35 2668,-1 2528,-1"/>
<text text-anchor="start" x="2536" y="-22" font-family="Helvetica,sans-Serif" font-size="10.00">test/unpacker/TestUnpacker</text>
<text text-anchor="middle" x="2598" y="-9" font-family="Helvetica,sans-Serif" font-size="10.00">AcquScaler.cc</text>
</a>
</g>
<!-- Node1&#45;&gt;Node18 -->
<g id="edge34" class="edge"><title>Node1&#45;&gt;Node18</title>
<path fill="none" stroke="midnightblue" d="M1355.36,-81.9918C1586.76,-78.5682 2292.07,-65.8954 2519,-36 2521.93,-35.6142 2524.91,-35.1705 2527.91,-34.6811"/>
<polygon fill="midnightblue" stroke="midnightblue" points="1355.31,-78.4921 1345.36,-82.1384 1355.41,-85.4914 1355.31,-78.4921"/>
</g>
<!-- Node19 -->
<g id="node37" class="node"><title>Node19</title>
<a xlink:href="_test_unpacker_acqu_t_i_d_8cc.html" target="_top" xlink:title="test/unpacker/TestUnpacker\lAcquTID.cc">
<polygon fill="white" stroke="black" points="2686,-1 2686,-35 2826,-35 2826,-1 2686,-1"/>
<text text-anchor="start" x="2694" y="-22" font-family="Helvetica,sans-Serif" font-size="10.00">test/unpacker/TestUnpacker</text>
<text text-anchor="middle" x="2756" y="-9" font-family="Helvetica,sans-Serif" font-size="10.00">AcquTID.cc</text>
</a>
</g>
<!-- Node1&#45;&gt;Node19 -->
<g id="edge36" class="edge"><title>Node1&#45;&gt;Node19</title>
<path fill="none" stroke="midnightblue" d="M1355.26,-82.3644C1605.68,-79.9287 2417.86,-69.5736 2677,-36 2679.93,-35.6205 2682.91,-35.1821 2685.91,-34.697"/>
<polygon fill="midnightblue" stroke="midnightblue" points="1355.14,-78.8653 1345.18,-82.4611 1355.21,-85.8649 1355.14,-78.8653"/>
</g>
</g>
</svg>
