<?xml version="1.0" encoding="UTF-8" standalone="no"?>
<!DOCTYPE svg PUBLIC "-//W3C//DTD SVG 1.1//EN"
 "http://www.w3.org/Graphics/SVG/1.1/DTD/svg11.dtd">
<!-- Generated by graphviz version 2.26.3 (20100126.1600)
 -->
<!-- Title: src/base/cbtaps_display/TH2DrawTool.cc Pages: 1 -->
<svg width="490pt" height="276pt"
 viewBox="0.00 0.00 490.00 276.00" xmlns="http://www.w3.org/2000/svg" xmlns:xlink="http://www.w3.org/1999/xlink">
<g id="graph1" class="graph" transform="scale(1 1) rotate(0) translate(4 272)">
<title>src/base/cbtaps_display/TH2DrawTool.cc</title>
<polygon fill="white" stroke="white" points="-4,5 -4,-272 487,-272 487,5 -4,5"/>
<!-- Node1 -->
<g id="node1" class="node"><title>Node1</title>
<polygon fill="#bfbfbf" stroke="black" points="344,-233 344,-267 466,-267 466,-233 344,-233"/>
<text text-anchor="start" x="352" y="-254" font-family="Helvetica,sans-Serif" font-size="10.00">src/base/cbtaps_display</text>
<text text-anchor="middle" x="405" y="-241" font-family="Helvetica,sans-Serif" font-size="10.00">/TH2DrawTool.cc</text>
</g>
<!-- Node2 -->
<g id="node3" class="node"><title>Node2</title>
<a xlink:href="_t_h2_draw_tool_8h.html" target="_top" xlink:title="TH2DrawTool.h">
<polygon fill="white" stroke="black" points="316,-174.5 316,-195.5 402,-195.5 402,-174.5 316,-174.5"/>
<text text-anchor="middle" x="359" y="-182.5" font-family="Helvetica,sans-Serif" font-size="10.00">TH2DrawTool.h</text>
</a>
</g>
<!-- Node1&#45;&gt;Node2 -->
<g id="edge2" class="edge"><title>Node1&#45;&gt;Node2</title>
<path fill="none" stroke="midnightblue" d="M392.914,-232.922C386.685,-224.12 379.066,-213.354 372.628,-204.258"/>
<polygon fill="midnightblue" stroke="midnightblue" points="375.314,-201.993 366.68,-195.852 369.6,-206.037 375.314,-201.993"/>
</g>
<!-- Node11 -->
<g id="node22" class="node"><title>Node11</title>
<polygon fill="white" stroke="#bfbfbf" points="419.5,-174.5 419.5,-195.5 482.5,-195.5 482.5,-174.5 419.5,-174.5"/>
<text text-anchor="middle" x="451" y="-182.5" font-family="Helvetica,sans-Serif" font-size="10.00">TH2Poly.h</text>
</g>
<!-- Node1&#45;&gt;Node11 -->
<g id="edge22" class="edge"><title>Node1&#45;&gt;Node11</title>
<path fill="none" stroke="midnightblue" d="M417.086,-232.922C423.315,-224.12 430.934,-213.354 437.372,-204.258"/>
<polygon fill="midnightblue" stroke="midnightblue" points="440.4,-206.037 443.32,-195.852 434.686,-201.993 440.4,-206.037"/>
</g>
<!-- Node3 -->
<g id="node5" class="node"><title>Node3</title>
<a xlink:href="matrixstack_8h.html" target="_top" xlink:title="base/matrixstack.h">
<polygon fill="white" stroke="black" points="209,-116.5 209,-137.5 309,-137.5 309,-116.5 209,-116.5"/>
<text text-anchor="middle" x="259" y="-124.5" font-family="Helvetica,sans-Serif" font-size="10.00">base/matrixstack.h</text>
</a>
</g>
<!-- Node2&#45;&gt;Node3 -->
<g id="edge4" class="edge"><title>Node2&#45;&gt;Node3</title>
<path fill="none" stroke="midnightblue" d="M340.658,-174.362C325.434,-165.532 303.559,-152.844 286.28,-142.822"/>
<polygon fill="midnightblue" stroke="midnightblue" points="287.632,-139.56 277.225,-137.571 284.12,-145.615 287.632,-139.56"/>
</g>
<!-- Node5 -->
<g id="node9" class="node"><title>Node5</title>
<polygon fill="white" stroke="#bfbfbf" points="241,-0.5 241,-21.5 285,-21.5 285,-0.5 241,-0.5"/>
<text text-anchor="middle" x="263" y="-8.5" font-family="Helvetica,sans-Serif" font-size="10.00">vector</text>
</g>
<!-- Node2&#45;&gt;Node5 -->
<g id="edge20" class="edge"><title>Node2&#45;&gt;Node5</title>
<path fill="none" stroke="midnightblue" d="M368.036,-174.488C386.716,-151.425 425.692,-95.4656 399,-58 386.764,-40.8247 331.514,-25.8612 295.308,-17.6625"/>
<polygon fill="midnightblue" stroke="midnightblue" points="295.722,-14.1697 285.203,-15.4367 294.216,-21.0059 295.722,-14.1697"/>
</g>
<!-- Node4 -->
<g id="node7" class="node"><title>Node4</title>
<a xlink:href="printable_8h.html" target="_top" xlink:title="base/printable.h">
<polygon fill="white" stroke="black" points="0,-58.5 0,-79.5 86,-79.5 86,-58.5 0,-58.5"/>
<text text-anchor="middle" x="43" y="-66.5" font-family="Helvetica,sans-Serif" font-size="10.00">base/printable.h</text>
</a>
</g>
<!-- Node3&#45;&gt;Node4 -->
<g id="edge6" class="edge"><title>Node3&#45;&gt;Node4</title>
<path fill="none" stroke="midnightblue" d="M219.884,-116.497C184.06,-106.877 130.883,-92.5981 92.192,-82.209"/>
<polygon fill="midnightblue" stroke="midnightblue" points="92.7549,-78.7362 82.1893,-79.5231 90.9395,-85.4967 92.7549,-78.7362"/>
</g>
<!-- Node7 -->
<g id="node13" class="node"><title>Node7</title>
<polygon fill="white" stroke="#bfbfbf" points="103.5,-58.5 103.5,-79.5 168.5,-79.5 168.5,-58.5 103.5,-58.5"/>
<text text-anchor="middle" x="136" y="-66.5" font-family="Helvetica,sans-Serif" font-size="10.00">TVectorT.h</text>
</g>
<!-- Node3&#45;&gt;Node7 -->
<g id="edge12" class="edge"><title>Node3&#45;&gt;Node7</title>
<path fill="none" stroke="midnightblue" d="M236.726,-116.497C217.428,-107.397 189.287,-94.1273 167.652,-83.9253"/>
<polygon fill="midnightblue" stroke="midnightblue" points="169.062,-80.7206 158.524,-79.6212 166.076,-87.052 169.062,-80.7206"/>
</g>
<!-- Node8 -->
<g id="node15" class="node"><title>Node8</title>
<polygon fill="white" stroke="#bfbfbf" points="186,-58.5 186,-79.5 250,-79.5 250,-58.5 186,-58.5"/>
<text text-anchor="middle" x="218" y="-66.5" font-family="Helvetica,sans-Serif" font-size="10.00">TMatrixT.h</text>
</g>
<!-- Node3&#45;&gt;Node8 -->
<g id="edge14" class="edge"><title>Node3&#45;&gt;Node8</title>
<path fill="none" stroke="midnightblue" d="M251.48,-116.362C245.874,-108.431 238.068,-97.3885 231.403,-87.9606"/>
<polygon fill="midnightblue" stroke="midnightblue" points="234.103,-85.7161 225.472,-79.5707 228.387,-89.7568 234.103,-85.7161"/>
</g>
<!-- Node9 -->
<g id="node17" class="node"><title>Node9</title>
<polygon fill="white" stroke="#bfbfbf" points="267.5,-58.5 267.5,-79.5 332.5,-79.5 332.5,-58.5 267.5,-58.5"/>
<text text-anchor="middle" x="300" y="-66.5" font-family="Helvetica,sans-Serif" font-size="10.00">TVector2.h</text>
</g>
<!-- Node3&#45;&gt;Node9 -->
<g id="edge16" class="edge"><title>Node3&#45;&gt;Node9</title>
<path fill="none" stroke="midnightblue" d="M266.52,-116.362C272.126,-108.431 279.932,-97.3885 286.597,-87.9606"/>
<polygon fill="midnightblue" stroke="midnightblue" points="289.613,-89.7568 292.528,-79.5707 283.897,-85.7161 289.613,-89.7568"/>
</g>
<!-- Node10 -->
<g id="node19" class="node"><title>Node10</title>
<polygon fill="white" stroke="#bfbfbf" points="349.5,-58.5 349.5,-79.5 390.5,-79.5 390.5,-58.5 349.5,-58.5"/>
<text text-anchor="middle" x="370" y="-66.5" font-family="Helvetica,sans-Serif" font-size="10.00">stack</text>
</g>
<!-- Node3&#45;&gt;Node10 -->
<g id="edge18" class="edge"><title>Node3&#45;&gt;Node10</title>
<path fill="none" stroke="midnightblue" d="M279.101,-116.497C296.282,-107.519 321.23,-94.4835 340.645,-84.3387"/>
<polygon fill="midnightblue" stroke="midnightblue" points="342.431,-87.3544 349.673,-79.6212 339.189,-81.1503 342.431,-87.3544"/>
</g>
<!-- Node4&#45;&gt;Node5 -->
<g id="edge8" class="edge"><title>Node4&#45;&gt;Node5</title>
<path fill="none" stroke="midnightblue" d="M82.8403,-58.4966C125.352,-47.2891 191.857,-29.7558 231.064,-19.4195"/>
<polygon fill="midnightblue" stroke="midnightblue" points="232.107,-22.7643 240.884,-16.8306 230.322,-15.9956 232.107,-22.7643"/>
</g>
<!-- Node6 -->
<g id="node11" class="node"><title>Node6</title>
<polygon fill="white" stroke="#bfbfbf" points="17,-0.5 17,-21.5 69,-21.5 69,-0.5 17,-0.5"/>
<text text-anchor="middle" x="43" y="-8.5" font-family="Helvetica,sans-Serif" font-size="10.00">ostream</text>
</g>
<!-- Node4&#45;&gt;Node6 -->
<g id="edge10" class="edge"><title>Node4&#45;&gt;Node6</title>
<path fill="none" stroke="midnightblue" d="M43,-58.3619C43,-50.9219 43,-40.7427 43,-31.7276"/>
<polygon fill="midnightblue" stroke="midnightblue" points="46.5001,-31.5706 43,-21.5707 39.5001,-31.5707 46.5001,-31.5706"/>
</g>
</g>
</svg>
