<?xml version="1.0" encoding="UTF-8" standalone="no"?>
<!DOCTYPE svg PUBLIC "-//W3C//DTD SVG 1.1//EN"
 "http://www.w3.org/Graphics/SVG/1.1/DTD/svg11.dtd">
<!-- Generated by graphviz version 2.26.3 (20100126.1600)
 -->
<!-- Title: src/base/cbtaps_display/TH2TAPS.h Pages: 1 -->
<svg width="411pt" height="276pt"
 viewBox="0.00 0.00 411.18 276.00" xmlns="http://www.w3.org/2000/svg" xmlns:xlink="http://www.w3.org/1999/xlink">
<g id="graph1" class="graph" transform="scale(1 1) rotate(0) translate(4 272)">
<title>src/base/cbtaps_display/TH2TAPS.h</title>
<polygon fill="white" stroke="white" points="-4,5 -4,-272 408.184,-272 408.184,5 -4,5"/>
<!-- Node1 -->
<g id="node1" class="node"><title>Node1</title>
<polygon fill="#bfbfbf" stroke="black" points="155.184,-233 155.184,-267 277.184,-267 277.184,-233 155.184,-233"/>
<text text-anchor="start" x="163.184" y="-254" font-family="Helvetica,sans-Serif" font-size="10.00">src/base/cbtaps_display</text>
<text text-anchor="middle" x="216.184" y="-241" font-family="Helvetica,sans-Serif" font-size="10.00">/TH2TAPS.h</text>
</g>
<!-- Node2 -->
<g id="node3" class="node"><title>Node2</title>
<a xlink:href="_t_h2_draw_tool_8h.html" target="_top" xlink:title="TH2DrawTool.h">
<polygon fill="white" stroke="black" points="123.184,-174.5 123.184,-195.5 209.184,-195.5 209.184,-174.5 123.184,-174.5"/>
<text text-anchor="middle" x="166.184" y="-182.5" font-family="Helvetica,sans-Serif" font-size="10.00">TH2DrawTool.h</text>
</a>
</g>
<!-- Node1&#45;&gt;Node2 -->
<g id="edge2" class="edge"><title>Node1&#45;&gt;Node2</title>
<path fill="none" stroke="midnightblue" d="M203.047,-232.922C196.206,-224.029 187.822,-213.13 180.779,-203.974"/>
<polygon fill="midnightblue" stroke="midnightblue" points="183.403,-201.644 174.532,-195.852 177.855,-205.912 183.403,-201.644"/>
</g>
<!-- Node11 -->
<g id="node22" class="node"><title>Node11</title>
<a xlink:href="_t_h2_crystals_8h.html" target="_top" xlink:title="TH2Crystals.h">
<polygon fill="white" stroke="black" points="227.184,-174.5 227.184,-195.5 307.184,-195.5 307.184,-174.5 227.184,-174.5"/>
<text text-anchor="middle" x="267.184" y="-182.5" font-family="Helvetica,sans-Serif" font-size="10.00">TH2Crystals.h</text>
</a>
</g>
<!-- Node1&#45;&gt;Node11 -->
<g id="edge22" class="edge"><title>Node1&#45;&gt;Node11</title>
<path fill="none" stroke="midnightblue" d="M229.583,-232.922C236.561,-224.029 245.113,-213.13 252.297,-203.974"/>
<polygon fill="midnightblue" stroke="midnightblue" points="255.25,-205.88 258.669,-195.852 249.743,-201.559 255.25,-205.88"/>
</g>
<!-- Node3 -->
<g id="node5" class="node"><title>Node3</title>
<a xlink:href="matrixstack_8h.html" target="_top" xlink:title="base/matrixstack.h">
<polygon fill="white" stroke="black" points="118.184,-116.5 118.184,-137.5 218.184,-137.5 218.184,-116.5 118.184,-116.5"/>
<text text-anchor="middle" x="168.184" y="-124.5" font-family="Helvetica,sans-Serif" font-size="10.00">base/matrixstack.h</text>
</a>
</g>
<!-- Node2&#45;&gt;Node3 -->
<g id="edge4" class="edge"><title>Node2&#45;&gt;Node3</title>
<path fill="none" stroke="midnightblue" d="M166.551,-174.362C166.807,-166.922 167.158,-156.743 167.469,-147.728"/>
<polygon fill="midnightblue" stroke="midnightblue" points="170.972,-147.685 167.819,-137.571 163.977,-147.444 170.972,-147.685"/>
</g>
<!-- Node5 -->
<g id="node9" class="node"><title>Node5</title>
<polygon fill="white" stroke="#bfbfbf" points="118.184,-0.5 118.184,-21.5 162.184,-21.5 162.184,-0.5 118.184,-0.5"/>
<text text-anchor="middle" x="140.184" y="-8.5" font-family="Helvetica,sans-Serif" font-size="10.00">vector</text>
</g>
<!-- Node2&#45;&gt;Node5 -->
<g id="edge20" class="edge"><title>Node2&#45;&gt;Node5</title>
<path fill="none" stroke="midnightblue" d="M133.175,-174.488C94.2717,-160.113 31.4731,-130.208 4.1838,-80 -18.9728,-37.3959 60.6132,-20.4354 107.785,-14.2326"/>
<polygon fill="midnightblue" stroke="midnightblue" points="108.37,-17.6873 117.873,-13.0033 107.523,-10.7386 108.37,-17.6873"/>
</g>
<!-- Node4 -->
<g id="node7" class="node"><title>Node4</title>
<a xlink:href="printable_8h.html" target="_top" xlink:title="base/printable.h">
<polygon fill="white" stroke="black" points="317.184,-58.5 317.184,-79.5 403.184,-79.5 403.184,-58.5 317.184,-58.5"/>
<text text-anchor="middle" x="360.184" y="-66.5" font-family="Helvetica,sans-Serif" font-size="10.00">base/printable.h</text>
</a>
</g>
<!-- Node3&#45;&gt;Node4 -->
<g id="edge6" class="edge"><title>Node3&#45;&gt;Node4</title>
<path fill="none" stroke="midnightblue" d="M202.954,-116.497C234.526,-106.959 281.262,-92.8408 315.577,-82.475"/>
<polygon fill="midnightblue" stroke="midnightblue" points="316.788,-85.7654 325.349,-79.5231 314.764,-79.0644 316.788,-85.7654"/>
</g>
<!-- Node7 -->
<g id="node13" class="node"><title>Node7</title>
<polygon fill="white" stroke="#bfbfbf" points="12.6838,-58.5 12.6838,-79.5 77.6838,-79.5 77.6838,-58.5 12.6838,-58.5"/>
<text text-anchor="middle" x="45.1838" y="-66.5" font-family="Helvetica,sans-Serif" font-size="10.00">TVectorT.h</text>
</g>
<!-- Node3&#45;&gt;Node7 -->
<g id="edge12" class="edge"><title>Node3&#45;&gt;Node7</title>
<path fill="none" stroke="midnightblue" d="M145.909,-116.497C126.612,-107.397 98.4709,-94.1273 76.8358,-83.9253"/>
<polygon fill="midnightblue" stroke="midnightblue" points="78.2458,-80.7206 67.7081,-79.6212 75.2602,-87.052 78.2458,-80.7206"/>
</g>
<!-- Node8 -->
<g id="node15" class="node"><title>Node8</title>
<polygon fill="white" stroke="#bfbfbf" points="95.1838,-58.5 95.1838,-79.5 159.184,-79.5 159.184,-58.5 95.1838,-58.5"/>
<text text-anchor="middle" x="127.184" y="-66.5" font-family="Helvetica,sans-Serif" font-size="10.00">TMatrixT.h</text>
</g>
<!-- Node3&#45;&gt;Node8 -->
<g id="edge14" class="edge"><title>Node3&#45;&gt;Node8</title>
<path fill="none" stroke="midnightblue" d="M160.664,-116.362C155.058,-108.431 147.252,-97.3885 140.587,-87.9606"/>
<polygon fill="midnightblue" stroke="midnightblue" points="143.287,-85.7161 134.656,-79.5707 137.571,-89.7568 143.287,-85.7161"/>
</g>
<!-- Node9 -->
<g id="node17" class="node"><title>Node9</title>
<polygon fill="white" stroke="#bfbfbf" points="176.684,-58.5 176.684,-79.5 241.684,-79.5 241.684,-58.5 176.684,-58.5"/>
<text text-anchor="middle" x="209.184" y="-66.5" font-family="Helvetica,sans-Serif" font-size="10.00">TVector2.h</text>
</g>
<!-- Node3&#45;&gt;Node9 -->
<g id="edge16" class="edge"><title>Node3&#45;&gt;Node9</title>
<path fill="none" stroke="midnightblue" d="M175.704,-116.362C181.31,-108.431 189.116,-97.3885 195.781,-87.9606"/>
<polygon fill="midnightblue" stroke="midnightblue" points="198.797,-89.7568 201.711,-79.5707 193.081,-85.7161 198.797,-89.7568"/>
</g>
<!-- Node10 -->
<g id="node19" class="node"><title>Node10</title>
<polygon fill="white" stroke="#bfbfbf" points="258.684,-58.5 258.684,-79.5 299.684,-79.5 299.684,-58.5 258.684,-58.5"/>
<text text-anchor="middle" x="279.184" y="-66.5" font-family="Helvetica,sans-Serif" font-size="10.00">stack</text>
</g>
<!-- Node3&#45;&gt;Node10 -->
<g id="edge18" class="edge"><title>Node3&#45;&gt;Node10</title>
<path fill="none" stroke="midnightblue" d="M188.285,-116.497C205.466,-107.519 230.414,-94.4835 249.829,-84.3387"/>
<polygon fill="midnightblue" stroke="midnightblue" points="251.615,-87.3544 258.857,-79.6212 248.373,-81.1503 251.615,-87.3544"/>
</g>
<!-- Node4&#45;&gt;Node5 -->
<g id="edge8" class="edge"><title>Node4&#45;&gt;Node5</title>
<path fill="none" stroke="midnightblue" d="M320.343,-58.4966C277.832,-47.2891 211.327,-29.7558 172.12,-19.4195"/>
<polygon fill="midnightblue" stroke="midnightblue" points="172.862,-15.9956 162.3,-16.8306 171.077,-22.7643 172.862,-15.9956"/>
</g>
<!-- Node6 -->
<g id="node11" class="node"><title>Node6</title>
<polygon fill="white" stroke="#bfbfbf" points="334.184,-0.5 334.184,-21.5 386.184,-21.5 386.184,-0.5 334.184,-0.5"/>
<text text-anchor="middle" x="360.184" y="-8.5" font-family="Helvetica,sans-Serif" font-size="10.00">ostream</text>
</g>
<!-- Node4&#45;&gt;Node6 -->
<g id="edge10" class="edge"><title>Node4&#45;&gt;Node6</title>
<path fill="none" stroke="midnightblue" d="M360.184,-58.3619C360.184,-50.9219 360.184,-40.7427 360.184,-31.7276"/>
<polygon fill="midnightblue" stroke="midnightblue" points="363.684,-31.5706 360.184,-21.5707 356.684,-31.5707 363.684,-31.5706"/>
</g>
<!-- Node11&#45;&gt;Node3 -->
<g id="edge24" class="edge"><title>Node11&#45;&gt;Node3</title>
<path fill="none" stroke="midnightblue" d="M249.026,-174.362C233.954,-165.532 212.297,-152.844 195.191,-142.822"/>
<polygon fill="midnightblue" stroke="midnightblue" points="196.624,-139.606 186.227,-137.571 193.086,-145.646 196.624,-139.606"/>
</g>
<!-- Node12 -->
<g id="node25" class="node"><title>Node12</title>
<polygon fill="white" stroke="#bfbfbf" points="235.684,-116.5 235.684,-137.5 298.684,-137.5 298.684,-116.5 235.684,-116.5"/>
<text text-anchor="middle" x="267.184" y="-124.5" font-family="Helvetica,sans-Serif" font-size="10.00">TH2Poly.h</text>
</g>
<!-- Node11&#45;&gt;Node12 -->
<g id="edge26" class="edge"><title>Node11&#45;&gt;Node12</title>
<path fill="none" stroke="midnightblue" d="M267.184,-174.362C267.184,-166.922 267.184,-156.743 267.184,-147.728"/>
<polygon fill="midnightblue" stroke="midnightblue" points="270.684,-147.571 267.184,-137.571 263.684,-147.571 270.684,-147.571"/>
</g>
<!-- Node13 -->
<g id="node27" class="node"><title>Node13</title>
<polygon fill="white" stroke="#bfbfbf" points="315.684,-116.5 315.684,-137.5 356.684,-137.5 356.684,-116.5 315.684,-116.5"/>
<text text-anchor="middle" x="336.184" y="-124.5" font-family="Helvetica,sans-Serif" font-size="10.00">string</text>
</g>
<!-- Node11&#45;&gt;Node13 -->
<g id="edge28" class="edge"><title>Node11&#45;&gt;Node13</title>
<path fill="none" stroke="midnightblue" d="M279.839,-174.362C289.858,-165.941 304.051,-154.011 315.685,-144.231"/>
<polygon fill="midnightblue" stroke="midnightblue" points="318.206,-146.684 323.608,-137.571 313.701,-141.326 318.206,-146.684"/>
</g>
</g>
</svg>
