<?xml version="1.0" encoding="UTF-8" standalone="no"?>
<!DOCTYPE svg PUBLIC "-//W3C//DTD SVG 1.1//EN"
 "http://www.w3.org/Graphics/SVG/1.1/DTD/svg11.dtd">
<!-- Generated by graphviz version 2.26.3 (20100126.1600)
 -->
<!-- Title: src/base/cbtaps_display/TH2CB.h Pages: 1 -->
<svg width="264pt" height="116pt"
 viewBox="0.00 0.00 264.00 116.00" xmlns="http://www.w3.org/2000/svg" xmlns:xlink="http://www.w3.org/1999/xlink">
<g id="graph1" class="graph" transform="scale(1 1) rotate(0) translate(4 112)">
<title>src/base/cbtaps_display/TH2CB.h</title>
<polygon fill="white" stroke="white" points="-4,5 -4,-112 261,-112 261,5 -4,5"/>
<!-- Node1 -->
<g id="node1" class="node"><title>Node1</title>
<polygon fill="#bfbfbf" stroke="black" points="68,-73 68,-107 190,-107 190,-73 68,-73"/>
<text text-anchor="start" x="76" y="-94" font-family="Helvetica,sans-Serif" font-size="10.00">src/base/cbtaps_display</text>
<text text-anchor="middle" x="129" y="-81" font-family="Helvetica,sans-Serif" font-size="10.00">/TH2CB.h</text>
</g>
<!-- Node2 -->
<g id="node3" class="node"><title>Node2</title>
<a xlink:href="_t_h2_c_b_8cc.html" target="_top" xlink:title="src/base/cbtaps_display\l/TH2CB.cc">
<polygon fill="white" stroke="black" points="0,-1 0,-35 122,-35 122,-1 0,-1"/>
<text text-anchor="start" x="8" y="-22" font-family="Helvetica,sans-Serif" font-size="10.00">src/base/cbtaps_display</text>
<text text-anchor="middle" x="61" y="-9" font-family="Helvetica,sans-Serif" font-size="10.00">/TH2CB.cc</text>
</a>
</g>
<!-- Node1&#45;&gt;Node2 -->
<g id="edge2" class="edge"><title>Node1&#45;&gt;Node2</title>
<path fill="none" stroke="midnightblue" d="M105.746,-65.3785C96.4496,-55.5349 85.958,-44.4262 77.4717,-35.4407"/>
<polygon fill="midnightblue" stroke="midnightblue" points="103.474,-68.07 112.885,-72.937 108.563,-63.2637 103.474,-68.07"/>
</g>
<!-- Node3 -->
<g id="node5" class="node"><title>Node3</title>
<a xlink:href="_c_b___energy_8cc.html" target="_top" xlink:title="src/calibration/modules\l/CB_Energy.cc">
<polygon fill="white" stroke="black" points="139.5,-1 139.5,-35 256.5,-35 256.5,-1 139.5,-1"/>
<text text-anchor="start" x="147.5" y="-22" font-family="Helvetica,sans-Serif" font-size="10.00">src/calibration/modules</text>
<text text-anchor="middle" x="198" y="-9" font-family="Helvetica,sans-Serif" font-size="10.00">/CB_Energy.cc</text>
</a>
</g>
<!-- Node1&#45;&gt;Node3 -->
<g id="edge4" class="edge"><title>Node1&#45;&gt;Node3</title>
<path fill="none" stroke="midnightblue" d="M152.316,-65.6706C161.818,-55.7551 172.59,-44.5151 181.286,-35.4407"/>
<polygon fill="midnightblue" stroke="midnightblue" points="149.744,-63.2954 145.352,-72.937 154.798,-68.1388 149.744,-63.2954"/>
</g>
</g>
</svg>
