<?xml version="1.0" encoding="UTF-8" standalone="no"?>
<!DOCTYPE svg PUBLIC "-//W3C//DTD SVG 1.1//EN"
 "http://www.w3.org/Graphics/SVG/1.1/DTD/svg11.dtd">
<!-- Generated by graphviz version 2.26.3 (20100126.1600)
 -->
<!-- Title: src/base/cbtaps_display/TH2DrawTool.h Pages: 1 -->
<svg width="478pt" height="188pt"
 viewBox="0.00 0.00 478.00 188.00" xmlns="http://www.w3.org/2000/svg" xmlns:xlink="http://www.w3.org/1999/xlink">
<g id="graph1" class="graph" transform="scale(1 1) rotate(0) translate(4 184)">
<title>src/base/cbtaps_display/TH2DrawTool.h</title>
<polygon fill="white" stroke="white" points="-4,5 -4,-184 475,-184 475,5 -4,5"/>
<!-- Node1 -->
<g id="node1" class="node"><title>Node1</title>
<polygon fill="#bfbfbf" stroke="black" points="208,-145 208,-179 330,-179 330,-145 208,-145"/>
<text text-anchor="start" x="216" y="-166" font-family="Helvetica,sans-Serif" font-size="10.00">src/base/cbtaps_display</text>
<text text-anchor="middle" x="269" y="-153" font-family="Helvetica,sans-Serif" font-size="10.00">/TH2DrawTool.h</text>
</g>
<!-- Node2 -->
<g id="node3" class="node"><title>Node2</title>
<a xlink:href="_t_h2_c_b_8h.html" target="_top" xlink:title="src/base/cbtaps_display\l/TH2CB.h">
<polygon fill="white" stroke="black" points="68,-73 68,-107 190,-107 190,-73 68,-73"/>
<text text-anchor="start" x="76" y="-94" font-family="Helvetica,sans-Serif" font-size="10.00">src/base/cbtaps_display</text>
<text text-anchor="middle" x="129" y="-81" font-family="Helvetica,sans-Serif" font-size="10.00">/TH2CB.h</text>
</a>
</g>
<!-- Node1&#45;&gt;Node2 -->
<g id="edge2" class="edge"><title>Node1&#45;&gt;Node2</title>
<path fill="none" stroke="midnightblue" d="M226.662,-140.226C206.075,-129.638 181.682,-117.094 162.425,-107.19"/>
<polygon fill="midnightblue" stroke="midnightblue" points="225.328,-143.476 235.822,-144.937 228.53,-137.251 225.328,-143.476"/>
</g>
<!-- Node5 -->
<g id="node9" class="node"><title>Node5</title>
<a xlink:href="_t_h2_draw_tool_8cc.html" target="_top" xlink:title="src/base/cbtaps_display\l/TH2DrawTool.cc">
<polygon fill="white" stroke="black" points="208,-73 208,-107 330,-107 330,-73 208,-73"/>
<text text-anchor="start" x="216" y="-94" font-family="Helvetica,sans-Serif" font-size="10.00">src/base/cbtaps_display</text>
<text text-anchor="middle" x="269" y="-81" font-family="Helvetica,sans-Serif" font-size="10.00">/TH2DrawTool.cc</text>
</a>
</g>
<!-- Node1&#45;&gt;Node5 -->
<g id="edge8" class="edge"><title>Node1&#45;&gt;Node5</title>
<path fill="none" stroke="midnightblue" d="M269,-134.719C269,-125.572 269,-115.625 269,-107.441"/>
<polygon fill="midnightblue" stroke="midnightblue" points="265.5,-134.937 269,-144.937 272.5,-134.937 265.5,-134.937"/>
</g>
<!-- Node6 -->
<g id="node11" class="node"><title>Node6</title>
<a xlink:href="_t_h2_t_a_p_s_8h.html" target="_top" xlink:title="src/base/cbtaps_display\l/TH2TAPS.h">
<polygon fill="white" stroke="black" points="348,-73 348,-107 470,-107 470,-73 348,-73"/>
<text text-anchor="start" x="356" y="-94" font-family="Helvetica,sans-Serif" font-size="10.00">src/base/cbtaps_display</text>
<text text-anchor="middle" x="409" y="-81" font-family="Helvetica,sans-Serif" font-size="10.00">/TH2TAPS.h</text>
</a>
</g>
<!-- Node1&#45;&gt;Node6 -->
<g id="edge10" class="edge"><title>Node1&#45;&gt;Node6</title>
<path fill="none" stroke="midnightblue" d="M311.338,-140.226C331.925,-129.638 356.318,-117.094 375.575,-107.19"/>
<polygon fill="midnightblue" stroke="midnightblue" points="309.47,-137.251 302.178,-144.937 312.672,-143.476 309.47,-137.251"/>
</g>
<!-- Node3 -->
<g id="node5" class="node"><title>Node3</title>
<a xlink:href="_t_h2_c_b_8cc.html" target="_top" xlink:title="src/base/cbtaps_display\l/TH2CB.cc">
<polygon fill="white" stroke="black" points="0,-1 0,-35 122,-35 122,-1 0,-1"/>
<text text-anchor="start" x="8" y="-22" font-family="Helvetica,sans-Serif" font-size="10.00">src/base/cbtaps_display</text>
<text text-anchor="middle" x="61" y="-9" font-family="Helvetica,sans-Serif" font-size="10.00">/TH2CB.cc</text>
</a>
</g>
<!-- Node2&#45;&gt;Node3 -->
<g id="edge4" class="edge"><title>Node2&#45;&gt;Node3</title>
<path fill="none" stroke="midnightblue" d="M105.746,-65.3785C96.4496,-55.5349 85.958,-44.4262 77.4717,-35.4407"/>
<polygon fill="midnightblue" stroke="midnightblue" points="103.474,-68.07 112.885,-72.937 108.563,-63.2637 103.474,-68.07"/>
</g>
<!-- Node4 -->
<g id="node7" class="node"><title>Node4</title>
<a xlink:href="_c_b___energy_8cc.html" target="_top" xlink:title="src/calibration/modules\l/CB_Energy.cc">
<polygon fill="white" stroke="black" points="139.5,-1 139.5,-35 256.5,-35 256.5,-1 139.5,-1"/>
<text text-anchor="start" x="147.5" y="-22" font-family="Helvetica,sans-Serif" font-size="10.00">src/calibration/modules</text>
<text text-anchor="middle" x="198" y="-9" font-family="Helvetica,sans-Serif" font-size="10.00">/CB_Energy.cc</text>
</a>
</g>
<!-- Node2&#45;&gt;Node4 -->
<g id="edge6" class="edge"><title>Node2&#45;&gt;Node4</title>
<path fill="none" stroke="midnightblue" d="M152.316,-65.6706C161.818,-55.7551 172.59,-44.5151 181.286,-35.4407"/>
<polygon fill="midnightblue" stroke="midnightblue" points="149.744,-63.2954 145.352,-72.937 154.798,-68.1388 149.744,-63.2954"/>
</g>
<!-- Node7 -->
<g id="node13" class="node"><title>Node7</title>
<a xlink:href="_t_h2_t_a_p_s_8cc.html" target="_top" xlink:title="src/base/cbtaps_display\l/TH2TAPS.cc">
<polygon fill="white" stroke="black" points="348,-1 348,-35 470,-35 470,-1 348,-1"/>
<text text-anchor="start" x="356" y="-22" font-family="Helvetica,sans-Serif" font-size="10.00">src/base/cbtaps_display</text>
<text text-anchor="middle" x="409" y="-9" font-family="Helvetica,sans-Serif" font-size="10.00">/TH2TAPS.cc</text>
</a>
</g>
<!-- Node6&#45;&gt;Node7 -->
<g id="edge12" class="edge"><title>Node6&#45;&gt;Node7</title>
<path fill="none" stroke="midnightblue" d="M409,-62.7193C409,-53.572 409,-43.6255 409,-35.4407"/>
<polygon fill="midnightblue" stroke="midnightblue" points="405.5,-62.937 409,-72.937 412.5,-62.937 405.5,-62.937"/>
</g>
</g>
</svg>
