<?xml version="1.0" encoding="UTF-8" standalone="no"?>
<!DOCTYPE svg PUBLIC "-//W3C//DTD SVG 1.1//EN"
 "http://www.w3.org/Graphics/SVG/1.1/DTD/svg11.dtd">
<!-- Generated by graphviz version 2.26.3 (20100126.1600)
 -->
<!-- Title: src/base/cbtaps_display/TH2CB.cc Pages: 1 -->
<svg width="690pt" height="334pt"
 viewBox="0.00 0.00 690.24 334.00" xmlns="http://www.w3.org/2000/svg" xmlns:xlink="http://www.w3.org/1999/xlink">
<g id="graph1" class="graph" transform="scale(1 1) rotate(0) translate(4 330)">
<title>src/base/cbtaps_display/TH2CB.cc</title>
<polygon fill="white" stroke="white" points="-4,5 -4,-330 687.241,-330 687.241,5 -4,5"/>
<!-- Node1 -->
<g id="node1" class="node"><title>Node1</title>
<polygon fill="#bfbfbf" stroke="black" points="407.241,-291 407.241,-325 529.241,-325 529.241,-291 407.241,-291"/>
<text text-anchor="start" x="415.241" y="-312" font-family="Helvetica,sans-Serif" font-size="10.00">src/base/cbtaps_display</text>
<text text-anchor="middle" x="468.241" y="-299" font-family="Helvetica,sans-Serif" font-size="10.00">/TH2CB.cc</text>
</g>
<!-- Node2 -->
<g id="node3" class="node"><title>Node2</title>
<a xlink:href="_t_h2_c_b_8h.html" target="_top" xlink:title="TH2CB.h">
<polygon fill="white" stroke="black" points="254.241,-232.5 254.241,-253.5 312.241,-253.5 312.241,-232.5 254.241,-232.5"/>
<text text-anchor="middle" x="283.241" y="-240.5" font-family="Helvetica,sans-Serif" font-size="10.00">TH2CB.h</text>
</a>
</g>
<!-- Node1&#45;&gt;Node2 -->
<g id="edge2" class="edge"><title>Node1&#45;&gt;Node2</title>
<path fill="none" stroke="midnightblue" d="M419.634,-290.922C389.181,-280.222 350.465,-266.619 322.068,-256.642"/>
<polygon fill="midnightblue" stroke="midnightblue" points="323.079,-253.288 312.485,-253.275 320.759,-259.892 323.079,-253.288"/>
</g>
<!-- Node16 -->
<g id="node37" class="node"><title>Node16</title>
<polygon fill="white" stroke="#bfbfbf" points="397.241,-174.5 397.241,-195.5 453.241,-195.5 453.241,-174.5 397.241,-174.5"/>
<text text-anchor="middle" x="425.241" y="-182.5" font-family="Helvetica,sans-Serif" font-size="10.00">Rtypes.h</text>
</g>
<!-- Node1&#45;&gt;Node16 -->
<g id="edge46" class="edge"><title>Node1&#45;&gt;Node16</title>
<path fill="none" stroke="midnightblue" d="M416.782,-290.921C399.864,-282.578 382.925,-270.644 373.241,-254 362.22,-235.059 380.713,-215.265 398.623,-201.76"/>
<polygon fill="midnightblue" stroke="midnightblue" points="401.094,-204.299 407.237,-195.667 397.052,-198.584 401.094,-204.299"/>
</g>
<!-- Node17 -->
<g id="node39" class="node"><title>Node17</title>
<polygon fill="white" stroke="#bfbfbf" points="486.241,-232.5 486.241,-253.5 536.241,-253.5 536.241,-232.5 486.241,-232.5"/>
<text text-anchor="middle" x="511.241" y="-240.5" font-family="Helvetica,sans-Serif" font-size="10.00">TText.h</text>
</g>
<!-- Node1&#45;&gt;Node17 -->
<g id="edge44" class="edge"><title>Node1&#45;&gt;Node17</title>
<path fill="none" stroke="midnightblue" d="M479.539,-290.922C485.361,-282.12 492.484,-271.354 498.501,-262.258"/>
<polygon fill="midnightblue" stroke="midnightblue" points="501.464,-264.123 504.062,-253.852 495.625,-260.261 501.464,-264.123"/>
</g>
<!-- Node18 -->
<g id="node42" class="node"><title>Node18</title>
<polygon fill="white" stroke="#bfbfbf" points="553.741,-232.5 553.741,-253.5 610.741,-253.5 610.741,-232.5 553.741,-232.5"/>
<text text-anchor="middle" x="582.241" y="-240.5" font-family="Helvetica,sans-Serif" font-size="10.00">TGraph.h</text>
</g>
<!-- Node1&#45;&gt;Node18 -->
<g id="edge48" class="edge"><title>Node1&#45;&gt;Node18</title>
<path fill="none" stroke="midnightblue" d="M498.193,-290.922C515.671,-280.957 537.565,-268.473 554.626,-258.745"/>
<polygon fill="midnightblue" stroke="midnightblue" points="556.594,-261.652 563.548,-253.658 553.127,-255.571 556.594,-261.652"/>
</g>
<!-- Node19 -->
<g id="node44" class="node"><title>Node19</title>
<a xlink:href="cb__numbering_8h.html" target="_top" xlink:title="cb_numbering.h">
<polygon fill="white" stroke="black" points="382.241,-232.5 382.241,-253.5 468.241,-253.5 468.241,-232.5 382.241,-232.5"/>
<text text-anchor="middle" x="425.241" y="-240.5" font-family="Helvetica,sans-Serif" font-size="10.00">cb_numbering.h</text>
</a>
</g>
<!-- Node1&#45;&gt;Node19 -->
<g id="edge50" class="edge"><title>Node1&#45;&gt;Node19</title>
<path fill="none" stroke="midnightblue" d="M456.943,-290.922C451.121,-282.12 443.998,-271.354 437.981,-262.258"/>
<polygon fill="midnightblue" stroke="midnightblue" points="440.857,-260.261 432.42,-253.852 435.018,-264.123 440.857,-260.261"/>
</g>
<!-- Node20 -->
<g id="node47" class="node"><title>Node20</title>
<polygon fill="white" stroke="#bfbfbf" points="628.241,-232.5 628.241,-253.5 682.241,-253.5 682.241,-232.5 628.241,-232.5"/>
<text text-anchor="middle" x="655.241" y="-240.5" font-family="Helvetica,sans-Serif" font-size="10.00">iostream</text>
</g>
<!-- Node1&#45;&gt;Node20 -->
<g id="edge54" class="edge"><title>Node1&#45;&gt;Node20</title>
<path fill="none" stroke="midnightblue" d="M517.373,-290.922C549.027,-279.919 589.512,-265.847 618.406,-255.804"/>
<polygon fill="midnightblue" stroke="midnightblue" points="619.812,-259.02 628.109,-252.431 617.514,-252.408 619.812,-259.02"/>
</g>
<!-- Node3 -->
<g id="node5" class="node"><title>Node3</title>
<polygon fill="white" stroke="#bfbfbf" points="349.241,-174.5 349.241,-195.5 379.241,-195.5 379.241,-174.5 349.241,-174.5"/>
<text text-anchor="middle" x="364.241" y="-182.5" font-family="Helvetica,sans-Serif" font-size="10.00">set</text>
</g>
<!-- Node2&#45;&gt;Node3 -->
<g id="edge4" class="edge"><title>Node2&#45;&gt;Node3</title>
<path fill="none" stroke="midnightblue" d="M298.098,-232.362C310.087,-223.777 327.168,-211.546 340.969,-201.664"/>
<polygon fill="midnightblue" stroke="midnightblue" points="343.386,-204.238 349.479,-195.571 339.31,-198.547 343.386,-204.238"/>
</g>
<!-- Node4 -->
<g id="node7" class="node"><title>Node4</title>
<polygon fill="white" stroke="#bfbfbf" points="0.241032,-0.5 0.241032,-21.5 44.241,-21.5 44.241,-0.5 0.241032,-0.5"/>
<text text-anchor="middle" x="22.241" y="-8.5" font-family="Helvetica,sans-Serif" font-size="10.00">vector</text>
</g>
<!-- Node2&#45;&gt;Node4 -->
<g id="edge6" class="edge"><title>Node2&#45;&gt;Node4</title>
<path fill="none" stroke="midnightblue" d="M253.875,-242.18C192.4,-239.782 53.4233,-230.573 24.241,-196 -15.3577,-149.086 3.05852,-69.1008 14.9339,-31.5781"/>
<polygon fill="midnightblue" stroke="midnightblue" points="18.3578,-32.3739 18.1973,-21.7802 11.7165,-30.1618 18.3578,-32.3739"/>
</g>
<!-- Node5 -->
<g id="node9" class="node"><title>Node5</title>
<polygon fill="white" stroke="#bfbfbf" points="231.741,-116.5 231.741,-137.5 272.741,-137.5 272.741,-116.5 231.741,-116.5"/>
<text text-anchor="middle" x="252.241" y="-124.5" font-family="Helvetica,sans-Serif" font-size="10.00">string</text>
</g>
<!-- Node2&#45;&gt;Node5 -->
<g id="edge8" class="edge"><title>Node2&#45;&gt;Node5</title>
<path fill="none" stroke="midnightblue" d="M280.38,-232.295C275.236,-213.045 264.344,-172.289 257.722,-147.509"/>
<polygon fill="midnightblue" stroke="midnightblue" points="261.058,-146.437 255.095,-137.679 254.296,-148.244 261.058,-146.437"/>
</g>
<!-- Node6 -->
<g id="node11" class="node"><title>Node6</title>
<a xlink:href="matrixstack_8h.html" target="_top" xlink:title="base/matrixstack.h">
<polygon fill="white" stroke="black" points="114.241,-116.5 114.241,-137.5 214.241,-137.5 214.241,-116.5 114.241,-116.5"/>
<text text-anchor="middle" x="164.241" y="-124.5" font-family="Helvetica,sans-Serif" font-size="10.00">base/matrixstack.h</text>
</a>
</g>
<!-- Node2&#45;&gt;Node6 -->
<g id="edge10" class="edge"><title>Node2&#45;&gt;Node6</title>
<path fill="none" stroke="midnightblue" d="M254.152,-240.167C226.461,-235.766 186.148,-224.55 166.241,-196 156.628,-182.213 156.947,-162.823 159.202,-148.107"/>
<polygon fill="midnightblue" stroke="midnightblue" points="162.707,-148.418 161.171,-137.935 155.834,-147.087 162.707,-148.418"/>
</g>
<!-- Node13 -->
<g id="node26" class="node"><title>Node13</title>
<a xlink:href="_t_h2_crystals_8h.html" target="_top" xlink:title="TH2Crystals.h">
<polygon fill="white" stroke="black" points="175.241,-174.5 175.241,-195.5 255.241,-195.5 255.241,-174.5 175.241,-174.5"/>
<text text-anchor="middle" x="215.241" y="-182.5" font-family="Helvetica,sans-Serif" font-size="10.00">TH2Crystals.h</text>
</a>
</g>
<!-- Node2&#45;&gt;Node13 -->
<g id="edge26" class="edge"><title>Node2&#45;&gt;Node13</title>
<path fill="none" stroke="midnightblue" d="M270.769,-232.362C260.896,-223.941 246.909,-212.011 235.443,-202.231"/>
<polygon fill="midnightblue" stroke="midnightblue" points="237.514,-199.397 227.634,-195.571 232.971,-204.723 237.514,-199.397"/>
</g>
<!-- Node14 -->
<g id="node29" class="node"><title>Node14</title>
<polygon fill="white" stroke="#bfbfbf" points="289.741,-116.5 289.741,-137.5 352.741,-137.5 352.741,-116.5 289.741,-116.5"/>
<text text-anchor="middle" x="321.241" y="-124.5" font-family="Helvetica,sans-Serif" font-size="10.00">TH2Poly.h</text>
</g>
<!-- Node2&#45;&gt;Node14 -->
<g id="edge40" class="edge"><title>Node2&#45;&gt;Node14</title>
<path fill="none" stroke="midnightblue" d="M286.748,-232.295C293.054,-213.045 306.405,-172.289 314.523,-147.509"/>
<polygon fill="midnightblue" stroke="midnightblue" points="317.956,-148.272 317.743,-137.679 311.303,-146.093 317.956,-148.272"/>
</g>
<!-- Node15 -->
<g id="node32" class="node"><title>Node15</title>
<a xlink:href="_t_h2_draw_tool_8h.html" target="_top" xlink:title="TH2DrawTool.h">
<polygon fill="white" stroke="black" points="33.241,-174.5 33.241,-195.5 119.241,-195.5 119.241,-174.5 33.241,-174.5"/>
<text text-anchor="middle" x="76.241" y="-182.5" font-family="Helvetica,sans-Serif" font-size="10.00">TH2DrawTool.h</text>
</a>
</g>
<!-- Node2&#45;&gt;Node15 -->
<g id="edge34" class="edge"><title>Node2&#45;&gt;Node15</title>
<path fill="none" stroke="midnightblue" d="M254.022,-234.813C220.118,-225.313 163.739,-209.516 123.563,-198.259"/>
<polygon fill="midnightblue" stroke="midnightblue" points="124.295,-194.83 113.722,-195.502 122.406,-201.57 124.295,-194.83"/>
</g>
<!-- Node2&#45;&gt;Node16 -->
<g id="edge42" class="edge"><title>Node2&#45;&gt;Node16</title>
<path fill="none" stroke="midnightblue" d="M308.956,-232.497C331.534,-223.275 364.599,-209.769 389.704,-199.515"/>
<polygon fill="midnightblue" stroke="midnightblue" points="391.303,-202.643 399.237,-195.621 388.656,-196.162 391.303,-202.643"/>
</g>
<!-- Node7 -->
<g id="node13" class="node"><title>Node7</title>
<a xlink:href="printable_8h.html" target="_top" xlink:title="base/printable.h">
<polygon fill="white" stroke="black" points="272.241,-58.5 272.241,-79.5 358.241,-79.5 358.241,-58.5 272.241,-58.5"/>
<text text-anchor="middle" x="315.241" y="-66.5" font-family="Helvetica,sans-Serif" font-size="10.00">base/printable.h</text>
</a>
</g>
<!-- Node6&#45;&gt;Node7 -->
<g id="edge12" class="edge"><title>Node6&#45;&gt;Node7</title>
<path fill="none" stroke="midnightblue" d="M191.586,-116.497C215.883,-107.164 251.601,-93.4447 278.409,-83.1475"/>
<polygon fill="midnightblue" stroke="midnightblue" points="279.765,-86.376 287.845,-79.5231 277.255,-79.8415 279.765,-86.376"/>
</g>
<!-- Node9 -->
<g id="node18" class="node"><title>Node9</title>
<polygon fill="white" stroke="#bfbfbf" points="375.741,-58.5 375.741,-79.5 440.741,-79.5 440.741,-58.5 375.741,-58.5"/>
<text text-anchor="middle" x="408.241" y="-66.5" font-family="Helvetica,sans-Serif" font-size="10.00">TVectorT.h</text>
</g>
<!-- Node6&#45;&gt;Node9 -->
<g id="edge18" class="edge"><title>Node6&#45;&gt;Node9</title>
<path fill="none" stroke="midnightblue" d="M211.932,-116.448C250.887,-107.718 307.621,-94.7541 365.534,-80.377"/>
<polygon fill="midnightblue" stroke="midnightblue" points="366.738,-83.6841 375.594,-77.8681 365.044,-76.8921 366.738,-83.6841"/>
</g>
<!-- Node10 -->
<g id="node20" class="node"><title>Node10</title>
<polygon fill="white" stroke="#bfbfbf" points="50.241,-58.5 50.241,-79.5 114.241,-79.5 114.241,-58.5 50.241,-58.5"/>
<text text-anchor="middle" x="82.241" y="-66.5" font-family="Helvetica,sans-Serif" font-size="10.00">TMatrixT.h</text>
</g>
<!-- Node6&#45;&gt;Node10 -->
<g id="edge20" class="edge"><title>Node6&#45;&gt;Node10</title>
<path fill="none" stroke="midnightblue" d="M149.201,-116.362C136.948,-107.696 119.442,-95.3126 105.402,-85.3819"/>
<polygon fill="midnightblue" stroke="midnightblue" points="107.371,-82.4879 97.1857,-79.5707 103.329,-88.2028 107.371,-82.4879"/>
</g>
<!-- Node11 -->
<g id="node22" class="node"><title>Node11</title>
<polygon fill="white" stroke="#bfbfbf" points="131.741,-58.5 131.741,-79.5 196.741,-79.5 196.741,-58.5 131.741,-58.5"/>
<text text-anchor="middle" x="164.241" y="-66.5" font-family="Helvetica,sans-Serif" font-size="10.00">TVector2.h</text>
</g>
<!-- Node6&#45;&gt;Node11 -->
<g id="edge22" class="edge"><title>Node6&#45;&gt;Node11</title>
<path fill="none" stroke="midnightblue" d="M164.241,-116.362C164.241,-108.922 164.241,-98.7427 164.241,-89.7276"/>
<polygon fill="midnightblue" stroke="midnightblue" points="167.741,-89.5706 164.241,-79.5707 160.741,-89.5707 167.741,-89.5706"/>
</g>
<!-- Node12 -->
<g id="node24" class="node"><title>Node12</title>
<polygon fill="white" stroke="#bfbfbf" points="213.741,-58.5 213.741,-79.5 254.741,-79.5 254.741,-58.5 213.741,-58.5"/>
<text text-anchor="middle" x="234.241" y="-66.5" font-family="Helvetica,sans-Serif" font-size="10.00">stack</text>
</g>
<!-- Node6&#45;&gt;Node12 -->
<g id="edge24" class="edge"><title>Node6&#45;&gt;Node12</title>
<path fill="none" stroke="midnightblue" d="M177.08,-116.362C187.244,-107.941 201.642,-96.0105 213.445,-86.2308"/>
<polygon fill="midnightblue" stroke="midnightblue" points="216.016,-88.6459 221.483,-79.5707 211.55,-83.2558 216.016,-88.6459"/>
</g>
<!-- Node7&#45;&gt;Node4 -->
<g id="edge14" class="edge"><title>Node7&#45;&gt;Node4</title>
<path fill="none" stroke="midnightblue" d="M272.122,-59.8236C269.117,-59.2012 266.135,-58.5882 263.241,-58 188.637,-42.8355 100.836,-25.9557 54.5586,-17.1339"/>
<polygon fill="midnightblue" stroke="midnightblue" points="55.0041,-13.6559 44.5259,-15.2236 53.6948,-20.5323 55.0041,-13.6559"/>
</g>
<!-- Node8 -->
<g id="node16" class="node"><title>Node8</title>
<polygon fill="white" stroke="#bfbfbf" points="289.241,-0.5 289.241,-21.5 341.241,-21.5 341.241,-0.5 289.241,-0.5"/>
<text text-anchor="middle" x="315.241" y="-8.5" font-family="Helvetica,sans-Serif" font-size="10.00">ostream</text>
</g>
<!-- Node7&#45;&gt;Node8 -->
<g id="edge16" class="edge"><title>Node7&#45;&gt;Node8</title>
<path fill="none" stroke="midnightblue" d="M315.241,-58.3619C315.241,-50.9219 315.241,-40.7427 315.241,-31.7276"/>
<polygon fill="midnightblue" stroke="midnightblue" points="318.741,-31.5706 315.241,-21.5707 311.741,-31.5707 318.741,-31.5706"/>
</g>
<!-- Node13&#45;&gt;Node5 -->
<g id="edge32" class="edge"><title>Node13&#45;&gt;Node5</title>
<path fill="none" stroke="midnightblue" d="M222.027,-174.362C227.034,-166.513 233.986,-155.616 239.959,-146.253"/>
<polygon fill="midnightblue" stroke="midnightblue" points="243.07,-147.884 245.498,-137.571 237.169,-144.119 243.07,-147.884"/>
</g>
<!-- Node13&#45;&gt;Node6 -->
<g id="edge28" class="edge"><title>Node13&#45;&gt;Node6</title>
<path fill="none" stroke="midnightblue" d="M205.887,-174.362C198.698,-166.186 188.6,-154.702 180.148,-145.091"/>
<polygon fill="midnightblue" stroke="midnightblue" points="182.768,-142.769 173.536,-137.571 177.511,-147.392 182.768,-142.769"/>
</g>
<!-- Node13&#45;&gt;Node14 -->
<g id="edge30" class="edge"><title>Node13&#45;&gt;Node14</title>
<path fill="none" stroke="midnightblue" d="M234.683,-174.362C251.045,-165.409 274.654,-152.491 293.085,-142.406"/>
<polygon fill="midnightblue" stroke="midnightblue" points="294.83,-145.441 301.922,-137.571 291.47,-139.3 294.83,-145.441"/>
</g>
<!-- Node15&#45;&gt;Node4 -->
<g id="edge38" class="edge"><title>Node15&#45;&gt;Node4</title>
<path fill="none" stroke="midnightblue" d="M72.4751,-174.328C65.8491,-155.418 51.8076,-114.746 41.241,-80 36.3346,-63.8665 31.2903,-45.4462 27.6334,-31.6983"/>
<polygon fill="midnightblue" stroke="midnightblue" points="30.9597,-30.5855 25.0271,-21.8074 24.1907,-32.3692 30.9597,-30.5855"/>
</g>
<!-- Node15&#45;&gt;Node6 -->
<g id="edge36" class="edge"><title>Node15&#45;&gt;Node6</title>
<path fill="none" stroke="midnightblue" d="M92.3816,-174.362C105.655,-165.614 124.674,-153.079 139.811,-143.101"/>
<polygon fill="midnightblue" stroke="midnightblue" points="141.779,-145.996 148.203,-137.571 137.927,-140.151 141.779,-145.996"/>
</g>
<!-- Node19&#45;&gt;Node16 -->
<g id="edge52" class="edge"><title>Node19&#45;&gt;Node16</title>
<path fill="none" stroke="midnightblue" d="M425.241,-232.362C425.241,-224.922 425.241,-214.743 425.241,-205.728"/>
<polygon fill="midnightblue" stroke="midnightblue" points="428.741,-205.571 425.241,-195.571 421.741,-205.571 428.741,-205.571"/>
</g>
</g>
</svg>
