<?xml version="1.0" encoding="UTF-8" standalone="no"?>
<!DOCTYPE svg PUBLIC "-//W3C//DTD SVG 1.1//EN"
 "http://www.w3.org/Graphics/SVG/1.1/DTD/svg11.dtd">
<!-- Generated by graphviz version 2.26.3 (20100126.1600)
 -->
<!-- Title: src/base/cbtaps_display/TH2TAPS.cc Pages: 1 -->
<svg width="616pt" height="334pt"
 viewBox="0.00 0.00 616.00 334.00" xmlns="http://www.w3.org/2000/svg" xmlns:xlink="http://www.w3.org/1999/xlink">
<g id="graph1" class="graph" transform="scale(1 1) rotate(0) translate(4 330)">
<title>src/base/cbtaps_display/TH2TAPS.cc</title>
<polygon fill="white" stroke="white" points="-4,5 -4,-330 613,-330 613,5 -4,5"/>
<!-- Node1 -->
<g id="node1" class="node"><title>Node1</title>
<polygon fill="#bfbfbf" stroke="black" points="373,-291 373,-325 495,-325 495,-291 373,-291"/>
<text text-anchor="start" x="381" y="-312" font-family="Helvetica,sans-Serif" font-size="10.00">src/base/cbtaps_display</text>
<text text-anchor="middle" x="434" y="-299" font-family="Helvetica,sans-Serif" font-size="10.00">/TH2TAPS.cc</text>
</g>
<!-- Node2 -->
<g id="node3" class="node"><title>Node2</title>
<a xlink:href="_t_h2_t_a_p_s_8h.html" target="_top" xlink:title="TH2TAPS.h">
<polygon fill="white" stroke="black" points="277,-232.5 277,-253.5 347,-253.5 347,-232.5 277,-232.5"/>
<text text-anchor="middle" x="312" y="-240.5" font-family="Helvetica,sans-Serif" font-size="10.00">TH2TAPS.h</text>
</a>
</g>
<!-- Node1&#45;&gt;Node2 -->
<g id="edge2" class="edge"><title>Node1&#45;&gt;Node2</title>
<path fill="none" stroke="midnightblue" d="M401.946,-290.922C383.069,-280.864 359.376,-268.242 341.047,-258.476"/>
<polygon fill="midnightblue" stroke="midnightblue" points="342.476,-255.272 332.005,-253.658 339.185,-261.449 342.476,-255.272"/>
</g>
<!-- Node13 -->
<g id="node27" class="node"><title>Node13</title>
<polygon fill="white" stroke="#bfbfbf" points="349.5,-116.5 349.5,-137.5 412.5,-137.5 412.5,-116.5 349.5,-116.5"/>
<text text-anchor="middle" x="381" y="-124.5" font-family="Helvetica,sans-Serif" font-size="10.00">TH2Poly.h</text>
</g>
<!-- Node1&#45;&gt;Node13 -->
<g id="edge34" class="edge"><title>Node1&#45;&gt;Node13</title>
<path fill="none" stroke="midnightblue" d="M419.905,-290.567C412.487,-280.472 403.932,-267.185 399,-254 385.612,-218.207 382.085,-173.334 381.214,-147.637"/>
<polygon fill="midnightblue" stroke="midnightblue" points="384.712,-147.496 380.978,-137.58 377.714,-147.659 384.712,-147.496"/>
</g>
<!-- Node15 -->
<g id="node31" class="node"><title>Node15</title>
<polygon fill="white" stroke="#bfbfbf" points="407.5,-232.5 407.5,-253.5 460.5,-253.5 460.5,-232.5 407.5,-232.5"/>
<text text-anchor="middle" x="434" y="-240.5" font-family="Helvetica,sans-Serif" font-size="10.00">TMath.h</text>
</g>
<!-- Node1&#45;&gt;Node15 -->
<g id="edge32" class="edge"><title>Node1&#45;&gt;Node15</title>
<path fill="none" stroke="midnightblue" d="M434,-290.922C434,-282.67 434,-272.692 434,-263.982"/>
<polygon fill="midnightblue" stroke="midnightblue" points="437.5,-263.852 434,-253.852 430.5,-263.852 437.5,-263.852"/>
</g>
<!-- Node16 -->
<g id="node34" class="node"><title>Node16</title>
<polygon fill="white" stroke="#bfbfbf" points="477.5,-232.5 477.5,-253.5 534.5,-253.5 534.5,-232.5 477.5,-232.5"/>
<text text-anchor="middle" x="506" y="-240.5" font-family="Helvetica,sans-Serif" font-size="10.00">TGraph.h</text>
</g>
<!-- Node1&#45;&gt;Node16 -->
<g id="edge36" class="edge"><title>Node1&#45;&gt;Node16</title>
<path fill="none" stroke="midnightblue" d="M452.917,-290.922C463.276,-281.57 476.092,-270.001 486.535,-260.572"/>
<polygon fill="midnightblue" stroke="midnightblue" points="488.902,-263.151 493.979,-253.852 484.211,-257.955 488.902,-263.151"/>
</g>
<!-- Node17 -->
<g id="node36" class="node"><title>Node17</title>
<polygon fill="white" stroke="#bfbfbf" points="552,-232.5 552,-253.5 608,-253.5 608,-232.5 552,-232.5"/>
<text text-anchor="middle" x="580" y="-240.5" font-family="Helvetica,sans-Serif" font-size="10.00">TString.h</text>
</g>
<!-- Node1&#45;&gt;Node17 -->
<g id="edge38" class="edge"><title>Node1&#45;&gt;Node17</title>
<path fill="none" stroke="midnightblue" d="M472.36,-290.922C495.469,-280.634 524.607,-267.661 546.738,-257.809"/>
<polygon fill="midnightblue" stroke="midnightblue" points="548.348,-260.923 556.06,-253.658 545.501,-254.528 548.348,-260.923"/>
</g>
<!-- Node3 -->
<g id="node5" class="node"><title>Node3</title>
<a xlink:href="_t_h2_draw_tool_8h.html" target="_top" xlink:title="TH2DrawTool.h">
<polygon fill="white" stroke="black" points="168,-174.5 168,-195.5 254,-195.5 254,-174.5 168,-174.5"/>
<text text-anchor="middle" x="211" y="-182.5" font-family="Helvetica,sans-Serif" font-size="10.00">TH2DrawTool.h</text>
</a>
</g>
<!-- Node2&#45;&gt;Node3 -->
<g id="edge4" class="edge"><title>Node2&#45;&gt;Node3</title>
<path fill="none" stroke="midnightblue" d="M293.475,-232.362C278.099,-223.532 256.004,-210.844 238.553,-200.822"/>
<polygon fill="midnightblue" stroke="midnightblue" points="239.822,-197.515 229.408,-195.571 236.336,-203.586 239.822,-197.515"/>
</g>
<!-- Node12 -->
<g id="node24" class="node"><title>Node12</title>
<a xlink:href="_t_h2_crystals_8h.html" target="_top" xlink:title="TH2Crystals.h">
<polygon fill="white" stroke="black" points="272,-174.5 272,-195.5 352,-195.5 352,-174.5 272,-174.5"/>
<text text-anchor="middle" x="312" y="-182.5" font-family="Helvetica,sans-Serif" font-size="10.00">TH2Crystals.h</text>
</a>
</g>
<!-- Node2&#45;&gt;Node12 -->
<g id="edge24" class="edge"><title>Node2&#45;&gt;Node12</title>
<path fill="none" stroke="midnightblue" d="M312,-232.362C312,-224.922 312,-214.743 312,-205.728"/>
<polygon fill="midnightblue" stroke="midnightblue" points="315.5,-205.571 312,-195.571 308.5,-205.571 315.5,-205.571"/>
</g>
<!-- Node4 -->
<g id="node7" class="node"><title>Node4</title>
<a xlink:href="matrixstack_8h.html" target="_top" xlink:title="base/matrixstack.h">
<polygon fill="white" stroke="black" points="174,-116.5 174,-137.5 274,-137.5 274,-116.5 174,-116.5"/>
<text text-anchor="middle" x="224" y="-124.5" font-family="Helvetica,sans-Serif" font-size="10.00">base/matrixstack.h</text>
</a>
</g>
<!-- Node3&#45;&gt;Node4 -->
<g id="edge6" class="edge"><title>Node3&#45;&gt;Node4</title>
<path fill="none" stroke="midnightblue" d="M213.384,-174.362C215.07,-166.84 217.384,-156.519 219.421,-147.431"/>
<polygon fill="midnightblue" stroke="midnightblue" points="222.859,-148.094 221.631,-137.571 216.028,-146.563 222.859,-148.094"/>
</g>
<!-- Node6 -->
<g id="node11" class="node"><title>Node6</title>
<polygon fill="white" stroke="#bfbfbf" points="0,-0.5 0,-21.5 44,-21.5 44,-0.5 0,-0.5"/>
<text text-anchor="middle" x="22" y="-8.5" font-family="Helvetica,sans-Serif" font-size="10.00">vector</text>
</g>
<!-- Node3&#45;&gt;Node6 -->
<g id="edge22" class="edge"><title>Node3&#45;&gt;Node6</title>
<path fill="none" stroke="midnightblue" d="M179.133,-174.444C139.732,-159.7 73.5377,-129.093 38,-80 27.8871,-66.0296 24.0527,-46.6568 22.6527,-31.9942"/>
<polygon fill="midnightblue" stroke="midnightblue" points="26.1357,-31.6185 21.993,-21.8672 19.1505,-32.0736 26.1357,-31.6185"/>
</g>
<!-- Node5 -->
<g id="node9" class="node"><title>Node5</title>
<a xlink:href="printable_8h.html" target="_top" xlink:title="base/printable.h">
<polygon fill="white" stroke="black" points="47,-58.5 47,-79.5 133,-79.5 133,-58.5 47,-58.5"/>
<text text-anchor="middle" x="90" y="-66.5" font-family="Helvetica,sans-Serif" font-size="10.00">base/printable.h</text>
</a>
</g>
<!-- Node4&#45;&gt;Node5 -->
<g id="edge8" class="edge"><title>Node4&#45;&gt;Node5</title>
<path fill="none" stroke="midnightblue" d="M199.734,-116.497C178.522,-107.315 147.502,-93.8889 123.85,-83.6516"/>
<polygon fill="midnightblue" stroke="midnightblue" points="125.106,-80.3815 114.539,-79.6212 122.326,-86.8055 125.106,-80.3815"/>
</g>
<!-- Node8 -->
<g id="node15" class="node"><title>Node8</title>
<polygon fill="white" stroke="#bfbfbf" points="150.5,-58.5 150.5,-79.5 215.5,-79.5 215.5,-58.5 150.5,-58.5"/>
<text text-anchor="middle" x="183" y="-66.5" font-family="Helvetica,sans-Serif" font-size="10.00">TVectorT.h</text>
</g>
<!-- Node4&#45;&gt;Node8 -->
<g id="edge14" class="edge"><title>Node4&#45;&gt;Node8</title>
<path fill="none" stroke="midnightblue" d="M216.48,-116.362C210.874,-108.431 203.068,-97.3885 196.403,-87.9606"/>
<polygon fill="midnightblue" stroke="midnightblue" points="199.103,-85.7161 190.472,-79.5707 193.387,-89.7568 199.103,-85.7161"/>
</g>
<!-- Node9 -->
<g id="node17" class="node"><title>Node9</title>
<polygon fill="white" stroke="#bfbfbf" points="233,-58.5 233,-79.5 297,-79.5 297,-58.5 233,-58.5"/>
<text text-anchor="middle" x="265" y="-66.5" font-family="Helvetica,sans-Serif" font-size="10.00">TMatrixT.h</text>
</g>
<!-- Node4&#45;&gt;Node9 -->
<g id="edge16" class="edge"><title>Node4&#45;&gt;Node9</title>
<path fill="none" stroke="midnightblue" d="M231.52,-116.362C237.126,-108.431 244.932,-97.3885 251.597,-87.9606"/>
<polygon fill="midnightblue" stroke="midnightblue" points="254.613,-89.7568 257.528,-79.5707 248.897,-85.7161 254.613,-89.7568"/>
</g>
<!-- Node10 -->
<g id="node19" class="node"><title>Node10</title>
<polygon fill="white" stroke="#bfbfbf" points="314.5,-58.5 314.5,-79.5 379.5,-79.5 379.5,-58.5 314.5,-58.5"/>
<text text-anchor="middle" x="347" y="-66.5" font-family="Helvetica,sans-Serif" font-size="10.00">TVector2.h</text>
</g>
<!-- Node4&#45;&gt;Node10 -->
<g id="edge18" class="edge"><title>Node4&#45;&gt;Node10</title>
<path fill="none" stroke="midnightblue" d="M246.274,-116.497C265.572,-107.397 293.713,-94.1273 315.348,-83.9253"/>
<polygon fill="midnightblue" stroke="midnightblue" points="316.924,-87.052 324.476,-79.6212 313.938,-80.7206 316.924,-87.052"/>
</g>
<!-- Node11 -->
<g id="node21" class="node"><title>Node11</title>
<polygon fill="white" stroke="#bfbfbf" points="396.5,-58.5 396.5,-79.5 437.5,-79.5 437.5,-58.5 396.5,-58.5"/>
<text text-anchor="middle" x="417" y="-66.5" font-family="Helvetica,sans-Serif" font-size="10.00">stack</text>
</g>
<!-- Node4&#45;&gt;Node11 -->
<g id="edge20" class="edge"><title>Node4&#45;&gt;Node11</title>
<path fill="none" stroke="midnightblue" d="M264.389,-116.435C295.61,-108.042 340.072,-95.6032 386.795,-80.2416"/>
<polygon fill="midnightblue" stroke="midnightblue" points="388.093,-83.4986 396.481,-77.0254 385.887,-76.8553 388.093,-83.4986"/>
</g>
<!-- Node5&#45;&gt;Node6 -->
<g id="edge10" class="edge"><title>Node5&#45;&gt;Node6</title>
<path fill="none" stroke="midnightblue" d="M77.5278,-58.3619C67.6547,-49.9408 53.6675,-38.0105 42.2016,-28.2308"/>
<polygon fill="midnightblue" stroke="midnightblue" points="44.2729,-25.3972 34.3932,-21.5707 39.7302,-30.7231 44.2729,-25.3972"/>
</g>
<!-- Node7 -->
<g id="node13" class="node"><title>Node7</title>
<polygon fill="white" stroke="#bfbfbf" points="64,-0.5 64,-21.5 116,-21.5 116,-0.5 64,-0.5"/>
<text text-anchor="middle" x="90" y="-8.5" font-family="Helvetica,sans-Serif" font-size="10.00">ostream</text>
</g>
<!-- Node5&#45;&gt;Node7 -->
<g id="edge12" class="edge"><title>Node5&#45;&gt;Node7</title>
<path fill="none" stroke="midnightblue" d="M90,-58.3619C90,-50.9219 90,-40.7427 90,-31.7276"/>
<polygon fill="midnightblue" stroke="midnightblue" points="93.5001,-31.5706 90,-21.5707 86.5001,-31.5707 93.5001,-31.5706"/>
</g>
<!-- Node12&#45;&gt;Node4 -->
<g id="edge26" class="edge"><title>Node12&#45;&gt;Node4</title>
<path fill="none" stroke="midnightblue" d="M295.859,-174.362C282.586,-165.614 263.568,-153.079 248.43,-143.101"/>
<polygon fill="midnightblue" stroke="midnightblue" points="250.314,-140.151 240.038,-137.571 246.462,-145.996 250.314,-140.151"/>
</g>
<!-- Node12&#45;&gt;Node13 -->
<g id="edge28" class="edge"><title>Node12&#45;&gt;Node13</title>
<path fill="none" stroke="midnightblue" d="M324.656,-174.362C334.674,-165.941 348.867,-154.011 360.501,-144.231"/>
<polygon fill="midnightblue" stroke="midnightblue" points="363.022,-146.684 368.425,-137.571 358.518,-141.326 363.022,-146.684"/>
</g>
<!-- Node14 -->
<g id="node29" class="node"><title>Node14</title>
<polygon fill="white" stroke="#bfbfbf" points="291.5,-116.5 291.5,-137.5 332.5,-137.5 332.5,-116.5 291.5,-116.5"/>
<text text-anchor="middle" x="312" y="-124.5" font-family="Helvetica,sans-Serif" font-size="10.00">string</text>
</g>
<!-- Node12&#45;&gt;Node14 -->
<g id="edge30" class="edge"><title>Node12&#45;&gt;Node14</title>
<path fill="none" stroke="midnightblue" d="M312,-174.362C312,-166.922 312,-156.743 312,-147.728"/>
<polygon fill="midnightblue" stroke="midnightblue" points="315.5,-147.571 312,-137.571 308.5,-147.571 315.5,-147.571"/>
</g>
</g>
</svg>
