<?xml version="1.0" encoding="UTF-8" standalone="no"?>
<!DOCTYPE svg PUBLIC "-//W3C//DTD SVG 1.1//EN"
 "http://www.w3.org/Graphics/SVG/1.1/DTD/svg11.dtd">
<!-- Generated by graphviz version 2.26.3 (20100126.1600)
 -->
<!-- Title: src/tree/THeaderInfo.h Pages: 1 -->
<svg width="827pt" height="320pt"
 viewBox="0.00 0.00 827.00 320.00" xmlns="http://www.w3.org/2000/svg" xmlns:xlink="http://www.w3.org/1999/xlink">
<g id="graph1" class="graph" transform="scale(1 1) rotate(0) translate(4 316)">
<title>src/tree/THeaderInfo.h</title>
<polygon fill="white" stroke="white" points="-4,5 -4,-316 824,-316 824,5 -4,5"/>
<!-- Node1 -->
<g id="node1" class="node"><title>Node1</title>
<polygon fill="#bfbfbf" stroke="black" points="274.5,-290.5 274.5,-311.5 389.5,-311.5 389.5,-290.5 274.5,-290.5"/>
<text text-anchor="middle" x="332" y="-298.5" font-family="Helvetica,sans-Serif" font-size="10.00">src/tree/THeaderInfo.h</text>
</g>
<!-- Node2 -->
<g id="node3" class="node"><title>Node2</title>
<a xlink:href="_t_data_record_8h.html" target="_top" xlink:title="TDataRecord.h">
<polygon fill="white" stroke="black" points="432.5,-232.5 432.5,-253.5 515.5,-253.5 515.5,-232.5 432.5,-232.5"/>
<text text-anchor="middle" x="474" y="-240.5" font-family="Helvetica,sans-Serif" font-size="10.00">TDataRecord.h</text>
</a>
</g>
<!-- Node1&#45;&gt;Node2 -->
<g id="edge2" class="edge"><title>Node1&#45;&gt;Node2</title>
<path fill="none" stroke="midnightblue" d="M357.715,-290.497C380.293,-281.275 413.358,-267.769 438.463,-257.515"/>
<polygon fill="midnightblue" stroke="midnightblue" points="440.062,-260.643 447.996,-253.621 437.415,-254.162 440.062,-260.643"/>
</g>
<!-- Node8 -->
<g id="node15" class="node"><title>Node8</title>
<a xlink:href="time_8h.html" target="_top" xlink:title="base/std_ext/time.h">
<polygon fill="white" stroke="black" points="118.5,-116.5 118.5,-137.5 221.5,-137.5 221.5,-116.5 118.5,-116.5"/>
<text text-anchor="middle" x="170" y="-124.5" font-family="Helvetica,sans-Serif" font-size="10.00">base/std_ext/time.h</text>
</a>
</g>
<!-- Node1&#45;&gt;Node8 -->
<g id="edge46" class="edge"><title>Node1&#45;&gt;Node8</title>
<path fill="none" stroke="midnightblue" d="M322.11,-290.377C295.286,-261.567 220.907,-181.678 187.108,-145.376"/>
<polygon fill="midnightblue" stroke="midnightblue" points="189.55,-142.862 180.174,-137.928 184.427,-147.632 189.55,-142.862"/>
</g>
<!-- Node3 -->
<g id="node5" class="node"><title>Node3</title>
<a xlink:href="_t_i_d_8h.html" target="_top" xlink:title="TID.h">
<polygon fill="white" stroke="black" points="453.5,-174.5 453.5,-195.5 494.5,-195.5 494.5,-174.5 453.5,-174.5"/>
<text text-anchor="middle" x="474" y="-182.5" font-family="Helvetica,sans-Serif" font-size="10.00">TID.h</text>
</a>
</g>
<!-- Node2&#45;&gt;Node3 -->
<g id="edge4" class="edge"><title>Node2&#45;&gt;Node3</title>
<path fill="none" stroke="midnightblue" d="M474,-232.362C474,-224.922 474,-214.743 474,-205.728"/>
<polygon fill="midnightblue" stroke="midnightblue" points="477.5,-205.571 474,-195.571 470.5,-205.571 477.5,-205.571"/>
</g>
<!-- Node4 -->
<g id="node7" class="node"><title>Node4</title>
<polygon fill="white" stroke="#bfbfbf" points="763,-116.5 763,-137.5 819,-137.5 819,-116.5 763,-116.5"/>
<text text-anchor="middle" x="791" y="-124.5" font-family="Helvetica,sans-Serif" font-size="10.00">Rtypes.h</text>
</g>
<!-- Node2&#45;&gt;Node4 -->
<g id="edge40" class="edge"><title>Node2&#45;&gt;Node4</title>
<path fill="none" stroke="midnightblue" d="M505.672,-232.49C533.512,-223.167 575.074,-209.044 611,-196 661.033,-177.834 718.375,-155.608 754.632,-141.378"/>
<polygon fill="midnightblue" stroke="midnightblue" points="756.249,-144.502 764.275,-137.586 753.688,-137.988 756.249,-144.502"/>
</g>
<!-- Node14 -->
<g id="node27" class="node"><title>Node14</title>
<polygon fill="white" stroke="#bfbfbf" points="228.5,-58.5 228.5,-79.5 269.5,-79.5 269.5,-58.5 228.5,-58.5"/>
<text text-anchor="middle" x="249" y="-66.5" font-family="Helvetica,sans-Serif" font-size="10.00">ctime</text>
</g>
<!-- Node2&#45;&gt;Node14 -->
<g id="edge44" class="edge"><title>Node2&#45;&gt;Node14</title>
<path fill="none" stroke="midnightblue" d="M439.996,-232.486C397.248,-217.702 324.024,-186.965 279,-138 266.336,-124.227 258.452,-104.266 253.963,-89.3529"/>
<polygon fill="midnightblue" stroke="midnightblue" points="257.294,-88.2655 251.275,-79.5466 250.543,-90.1162 257.294,-88.2655"/>
</g>
<!-- Node19 -->
<g id="node37" class="node"><title>Node19</title>
<polygon fill="white" stroke="#bfbfbf" points="695,-116.5 695,-137.5 745,-137.5 745,-116.5 695,-116.5"/>
<text text-anchor="middle" x="720" y="-124.5" font-family="Helvetica,sans-Serif" font-size="10.00">iomanip</text>
</g>
<!-- Node2&#45;&gt;Node19 -->
<g id="edge42" class="edge"><title>Node2&#45;&gt;Node19</title>
<path fill="none" stroke="midnightblue" d="M496.702,-232.295C540.84,-211.482 638.296,-165.527 688.597,-141.808"/>
<polygon fill="midnightblue" stroke="midnightblue" points="690.156,-144.942 697.708,-137.512 687.17,-138.611 690.156,-144.942"/>
</g>
<!-- Node3&#45;&gt;Node4 -->
<g id="edge6" class="edge"><title>Node3&#45;&gt;Node4</title>
<path fill="none" stroke="midnightblue" d="M494.547,-182.431C539.63,-176.608 650.725,-161.249 752.951,-138.038"/>
<polygon fill="midnightblue" stroke="midnightblue" points="753.853,-141.422 762.813,-135.768 752.283,-134.601 753.853,-141.422"/>
</g>
<!-- Node5 -->
<g id="node9" class="node"><title>Node5</title>
<a xlink:href="printable_8h.html" target="_top" xlink:title="base/printable.h">
<polygon fill="white" stroke="black" points="591,-116.5 591,-137.5 677,-137.5 677,-116.5 591,-116.5"/>
<text text-anchor="middle" x="634" y="-124.5" font-family="Helvetica,sans-Serif" font-size="10.00">base/printable.h</text>
</a>
</g>
<!-- Node3&#45;&gt;Node5 -->
<g id="edge8" class="edge"><title>Node3&#45;&gt;Node5</title>
<path fill="none" stroke="midnightblue" d="M494.59,-177.536C519.984,-168.331 563.675,-152.493 595.389,-140.996"/>
<polygon fill="midnightblue" stroke="midnightblue" points="596.605,-144.279 604.813,-137.58 594.219,-137.698 596.605,-144.279"/>
</g>
<!-- Node3&#45;&gt;Node8 -->
<g id="edge14" class="edge"><title>Node3&#45;&gt;Node8</title>
<path fill="none" stroke="midnightblue" d="M453.105,-181.013C408.035,-172.415 300.209,-151.843 231.396,-138.714"/>
<polygon fill="midnightblue" stroke="midnightblue" points="232.017,-135.269 221.539,-136.833 230.705,-142.145 232.017,-135.269"/>
</g>
<!-- Node3&#45;&gt;Node14 -->
<g id="edge38" class="edge"><title>Node3&#45;&gt;Node14</title>
<path fill="none" stroke="midnightblue" d="M453.24,-183.208C419.79,-179.488 352.972,-168.545 306,-138 286.583,-125.374 270.453,-104.057 260.365,-88.4517"/>
<polygon fill="midnightblue" stroke="midnightblue" points="263.127,-86.264 254.889,-79.6018 257.174,-89.9472 263.127,-86.264"/>
</g>
<!-- Node15 -->
<g id="node29" class="node"><title>Node15</title>
<polygon fill="white" stroke="#bfbfbf" points="315,-116.5 315,-137.5 377,-137.5 377,-116.5 315,-116.5"/>
<text text-anchor="middle" x="346" y="-124.5" font-family="Helvetica,sans-Serif" font-size="10.00">type_traits</text>
</g>
<!-- Node3&#45;&gt;Node15 -->
<g id="edge28" class="edge"><title>Node3&#45;&gt;Node15</title>
<path fill="none" stroke="midnightblue" d="M453.435,-175.681C433.31,-166.563 402.338,-152.528 378.81,-141.867"/>
<polygon fill="midnightblue" stroke="midnightblue" points="380.109,-138.613 369.556,-137.674 377.22,-144.989 380.109,-138.613"/>
</g>
<!-- Node16 -->
<g id="node31" class="node"><title>Node16</title>
<polygon fill="white" stroke="#bfbfbf" points="395,-116.5 395,-137.5 433,-137.5 433,-116.5 395,-116.5"/>
<text text-anchor="middle" x="414" y="-124.5" font-family="Helvetica,sans-Serif" font-size="10.00">tuple</text>
</g>
<!-- Node3&#45;&gt;Node16 -->
<g id="edge30" class="edge"><title>Node3&#45;&gt;Node16</title>
<path fill="none" stroke="midnightblue" d="M462.995,-174.362C454.453,-166.104 442.42,-154.472 432.417,-144.803"/>
<polygon fill="midnightblue" stroke="midnightblue" points="434.558,-142.004 424.935,-137.571 429.692,-147.037 434.558,-142.004"/>
</g>
<!-- Node17 -->
<g id="node33" class="node"><title>Node17</title>
<polygon fill="white" stroke="#bfbfbf" points="451,-116.5 451,-137.5 497,-137.5 497,-116.5 451,-116.5"/>
<text text-anchor="middle" x="474" y="-124.5" font-family="Helvetica,sans-Serif" font-size="10.00">cstdint</text>
</g>
<!-- Node3&#45;&gt;Node17 -->
<g id="edge32" class="edge"><title>Node3&#45;&gt;Node17</title>
<path fill="none" stroke="midnightblue" d="M474,-174.362C474,-166.922 474,-156.743 474,-147.728"/>
<polygon fill="midnightblue" stroke="midnightblue" points="477.5,-147.571 474,-137.571 470.5,-147.571 477.5,-147.571"/>
</g>
<!-- Node18 -->
<g id="node35" class="node"><title>Node18</title>
<polygon fill="white" stroke="#bfbfbf" points="514.5,-116.5 514.5,-137.5 573.5,-137.5 573.5,-116.5 514.5,-116.5"/>
<text text-anchor="middle" x="544" y="-124.5" font-family="Helvetica,sans-Serif" font-size="10.00">stdexcept</text>
</g>
<!-- Node3&#45;&gt;Node18 -->
<g id="edge34" class="edge"><title>Node3&#45;&gt;Node18</title>
<path fill="none" stroke="midnightblue" d="M486.839,-174.362C497.002,-165.941 511.401,-154.011 523.204,-144.231"/>
<polygon fill="midnightblue" stroke="midnightblue" points="525.775,-146.646 531.242,-137.571 521.309,-141.256 525.775,-146.646"/>
</g>
<!-- Node3&#45;&gt;Node19 -->
<g id="edge36" class="edge"><title>Node3&#45;&gt;Node19</title>
<path fill="none" stroke="midnightblue" d="M494.623,-181.103C531.143,-174.06 609.72,-158.263 685.169,-138.054"/>
<polygon fill="midnightblue" stroke="midnightblue" points="686.092,-141.43 694.829,-135.437 684.261,-134.674 686.092,-141.43"/>
</g>
<!-- Node6 -->
<g id="node11" class="node"><title>Node6</title>
<polygon fill="white" stroke="#bfbfbf" points="579,-58.5 579,-79.5 623,-79.5 623,-58.5 579,-58.5"/>
<text text-anchor="middle" x="601" y="-66.5" font-family="Helvetica,sans-Serif" font-size="10.00">vector</text>
</g>
<!-- Node5&#45;&gt;Node6 -->
<g id="edge10" class="edge"><title>Node5&#45;&gt;Node6</title>
<path fill="none" stroke="midnightblue" d="M627.947,-116.362C623.528,-108.595 617.41,-97.8426 612.121,-88.5458"/>
<polygon fill="midnightblue" stroke="midnightblue" points="615.002,-86.5315 607.014,-79.5707 608.918,-89.9932 615.002,-86.5315"/>
</g>
<!-- Node7 -->
<g id="node13" class="node"><title>Node7</title>
<polygon fill="white" stroke="#bfbfbf" points="641,-58.5 641,-79.5 693,-79.5 693,-58.5 641,-58.5"/>
<text text-anchor="middle" x="667" y="-66.5" font-family="Helvetica,sans-Serif" font-size="10.00">ostream</text>
</g>
<!-- Node5&#45;&gt;Node7 -->
<g id="edge12" class="edge"><title>Node5&#45;&gt;Node7</title>
<path fill="none" stroke="midnightblue" d="M640.053,-116.362C644.472,-108.595 650.59,-97.8426 655.879,-88.5458"/>
<polygon fill="midnightblue" stroke="midnightblue" points="659.082,-89.9932 660.986,-79.5707 652.998,-86.5315 659.082,-89.9932"/>
</g>
<!-- Node9 -->
<g id="node17" class="node"><title>Node9</title>
<a xlink:href="string_8h.html" target="_top" xlink:title="base/std_ext/string.h">
<polygon fill="white" stroke="black" points="30,-58.5 30,-79.5 138,-79.5 138,-58.5 30,-58.5"/>
<text text-anchor="middle" x="84" y="-66.5" font-family="Helvetica,sans-Serif" font-size="10.00">base/std_ext/string.h</text>
</a>
</g>
<!-- Node8&#45;&gt;Node9 -->
<g id="edge16" class="edge"><title>Node8&#45;&gt;Node9</title>
<path fill="none" stroke="midnightblue" d="M154.226,-116.362C141.376,-107.696 123.015,-95.3126 108.29,-85.3819"/>
<polygon fill="midnightblue" stroke="midnightblue" points="109.921,-82.2604 99.6737,-79.5707 106.007,-88.0639 109.921,-82.2604"/>
</g>
<!-- Node13 -->
<g id="node25" class="node"><title>Node13</title>
<polygon fill="white" stroke="#bfbfbf" points="156,-58.5 156,-79.5 202,-79.5 202,-58.5 156,-58.5"/>
<text text-anchor="middle" x="179" y="-66.5" font-family="Helvetica,sans-Serif" font-size="10.00">cstring</text>
</g>
<!-- Node8&#45;&gt;Node13 -->
<g id="edge24" class="edge"><title>Node8&#45;&gt;Node13</title>
<path fill="none" stroke="midnightblue" d="M171.651,-116.362C172.805,-108.922 174.385,-98.7427 175.784,-89.7276"/>
<polygon fill="midnightblue" stroke="midnightblue" points="179.285,-89.9891 177.36,-79.5707 172.368,-88.9157 179.285,-89.9891"/>
</g>
<!-- Node8&#45;&gt;Node14 -->
<g id="edge26" class="edge"><title>Node8&#45;&gt;Node14</title>
<path fill="none" stroke="midnightblue" d="M184.49,-116.362C196.183,-107.777 212.843,-95.5459 226.303,-85.6636"/>
<polygon fill="midnightblue" stroke="midnightblue" points="228.613,-88.31 234.602,-79.5707 224.47,-82.6675 228.613,-88.31"/>
</g>
<!-- Node10 -->
<g id="node19" class="node"><title>Node10</title>
<polygon fill="white" stroke="#bfbfbf" points="-0.5,-0.5 -0.5,-21.5 40.5,-21.5 40.5,-0.5 -0.5,-0.5"/>
<text text-anchor="middle" x="20" y="-8.5" font-family="Helvetica,sans-Serif" font-size="10.00">string</text>
</g>
<!-- Node9&#45;&gt;Node10 -->
<g id="edge18" class="edge"><title>Node9&#45;&gt;Node10</title>
<path fill="none" stroke="midnightblue" d="M72.2614,-58.3619C63.0594,-50.0226 50.0599,-38.2418 39.3283,-28.5162"/>
<polygon fill="midnightblue" stroke="midnightblue" points="41.4244,-25.6924 31.6642,-21.5707 36.7237,-30.8793 41.4244,-25.6924"/>
</g>
<!-- Node11 -->
<g id="node21" class="node"><title>Node11</title>
<polygon fill="white" stroke="#bfbfbf" points="58,-0.5 58,-21.5 110,-21.5 110,-0.5 58,-0.5"/>
<text text-anchor="middle" x="84" y="-8.5" font-family="Helvetica,sans-Serif" font-size="10.00">sstream</text>
</g>
<!-- Node9&#45;&gt;Node11 -->
<g id="edge20" class="edge"><title>Node9&#45;&gt;Node11</title>
<path fill="none" stroke="midnightblue" d="M84,-58.3619C84,-50.9219 84,-40.7427 84,-31.7276"/>
<polygon fill="midnightblue" stroke="midnightblue" points="87.5001,-31.5706 84,-21.5707 80.5001,-31.5707 87.5001,-31.5706"/>
</g>
<!-- Node12 -->
<g id="node23" class="node"><title>Node12</title>
<polygon fill="white" stroke="#bfbfbf" points="128,-0.5 128,-21.5 184,-21.5 184,-0.5 128,-0.5"/>
<text text-anchor="middle" x="156" y="-8.5" font-family="Helvetica,sans-Serif" font-size="10.00">algorithm</text>
</g>
<!-- Node9&#45;&gt;Node12 -->
<g id="edge22" class="edge"><title>Node9&#45;&gt;Node12</title>
<path fill="none" stroke="midnightblue" d="M97.2059,-58.3619C107.761,-49.859 122.758,-37.7785 134.963,-27.9466"/>
<polygon fill="midnightblue" stroke="midnightblue" points="137.286,-30.5696 142.878,-21.5707 132.895,-25.1183 137.286,-30.5696"/>
</g>
</g>
</svg>
