<?xml version="1.0" encoding="UTF-8" standalone="no"?>
<!DOCTYPE svg PUBLIC "-//W3C//DTD SVG 1.1//EN"
 "http://www.w3.org/Graphics/SVG/1.1/DTD/svg11.dtd">
<!-- Generated by graphviz version 2.26.3 (20100126.1600)
 -->
<!-- Title: src/base/cbtaps_display/TH2CB.h Pages: 1 -->
<svg width="522pt" height="276pt"
 viewBox="0.00 0.00 522.00 276.00" xmlns="http://www.w3.org/2000/svg" xmlns:xlink="http://www.w3.org/1999/xlink">
<g id="graph1" class="graph" transform="scale(1 1) rotate(0) translate(4 272)">
<title>src/base/cbtaps_display/TH2CB.h</title>
<polygon fill="white" stroke="white" points="-4,5 -4,-272 519,-272 519,5 -4,5"/>
<!-- Node1 -->
<g id="node1" class="node"><title>Node1</title>
<polygon fill="#bfbfbf" stroke="black" points="178,-233 178,-267 300,-267 300,-233 178,-233"/>
<text text-anchor="start" x="186" y="-254" font-family="Helvetica,sans-Serif" font-size="10.00">src/base/cbtaps_display</text>
<text text-anchor="middle" x="239" y="-241" font-family="Helvetica,sans-Serif" font-size="10.00">/TH2CB.h</text>
</g>
<!-- Node2 -->
<g id="node3" class="node"><title>Node2</title>
<polygon fill="white" stroke="#bfbfbf" points="0,-174.5 0,-195.5 30,-195.5 30,-174.5 0,-174.5"/>
<text text-anchor="middle" x="15" y="-182.5" font-family="Helvetica,sans-Serif" font-size="10.00">set</text>
</g>
<!-- Node1&#45;&gt;Node2 -->
<g id="edge2" class="edge"><title>Node1&#45;&gt;Node2</title>
<path fill="none" stroke="midnightblue" d="M177.961,-234.647C139.301,-224.542 88.4022,-210.535 44,-196 42.5927,-195.539 41.1531,-195.051 39.7043,-194.545"/>
<polygon fill="midnightblue" stroke="midnightblue" points="40.851,-191.238 30.2572,-191.09 38.4462,-197.812 40.851,-191.238"/>
</g>
<!-- Node3 -->
<g id="node5" class="node"><title>Node3</title>
<polygon fill="white" stroke="#bfbfbf" points="74,-0.5 74,-21.5 118,-21.5 118,-0.5 74,-0.5"/>
<text text-anchor="middle" x="96" y="-8.5" font-family="Helvetica,sans-Serif" font-size="10.00">vector</text>
</g>
<!-- Node1&#45;&gt;Node3 -->
<g id="edge4" class="edge"><title>Node1&#45;&gt;Node3</title>
<path fill="none" stroke="midnightblue" d="M177.886,-236.69C138.922,-226.826 93.6359,-212.307 82,-196 46.4116,-146.125 71.4415,-68.225 86.6536,-31.4862"/>
<polygon fill="midnightblue" stroke="midnightblue" points="90.0521,-32.4444 90.8037,-21.8763 83.6258,-29.6691 90.0521,-32.4444"/>
</g>
<!-- Node4 -->
<g id="node7" class="node"><title>Node4</title>
<polygon fill="white" stroke="#bfbfbf" points="299.5,-116.5 299.5,-137.5 340.5,-137.5 340.5,-116.5 299.5,-116.5"/>
<text text-anchor="middle" x="320" y="-124.5" font-family="Helvetica,sans-Serif" font-size="10.00">string</text>
</g>
<!-- Node1&#45;&gt;Node4 -->
<g id="edge6" class="edge"><title>Node1&#45;&gt;Node4</title>
<path fill="none" stroke="midnightblue" d="M281.708,-232.847C297.291,-224.255 313.23,-212.169 322,-196 330.014,-181.226 328.647,-161.93 325.772,-147.501"/>
<polygon fill="midnightblue" stroke="midnightblue" points="329.129,-146.49 323.41,-137.572 322.319,-148.11 329.129,-146.49"/>
</g>
<!-- Node5 -->
<g id="node9" class="node"><title>Node5</title>
<a xlink:href="matrixstack_8h.html" target="_top" xlink:title="base/matrixstack.h">
<polygon fill="white" stroke="black" points="182,-116.5 182,-137.5 282,-137.5 282,-116.5 182,-116.5"/>
<text text-anchor="middle" x="232" y="-124.5" font-family="Helvetica,sans-Serif" font-size="10.00">base/matrixstack.h</text>
</a>
</g>
<!-- Node1&#45;&gt;Node5 -->
<g id="edge8" class="edge"><title>Node1&#45;&gt;Node5</title>
<path fill="none" stroke="midnightblue" d="M232.917,-232.741C229.55,-222.262 225.708,-208.533 224,-196 222.679,-186.312 223.177,-183.743 224,-174 224.728,-165.381 226.195,-155.967 227.676,-147.843"/>
<polygon fill="midnightblue" stroke="midnightblue" points="231.163,-148.245 229.636,-137.761 224.292,-146.909 231.163,-148.245"/>
</g>
<!-- Node12 -->
<g id="node24" class="node"><title>Node12</title>
<a xlink:href="_t_h2_crystals_8h.html" target="_top" xlink:title="TH2Crystals.h">
<polygon fill="white" stroke="black" points="233,-174.5 233,-195.5 313,-195.5 313,-174.5 233,-174.5"/>
<text text-anchor="middle" x="273" y="-182.5" font-family="Helvetica,sans-Serif" font-size="10.00">TH2Crystals.h</text>
</a>
</g>
<!-- Node1&#45;&gt;Node12 -->
<g id="edge24" class="edge"><title>Node1&#45;&gt;Node12</title>
<path fill="none" stroke="midnightblue" d="M247.933,-232.922C252.441,-224.304 257.934,-213.802 262.628,-204.828"/>
<polygon fill="midnightblue" stroke="midnightblue" points="265.79,-206.335 267.324,-195.852 259.587,-203.091 265.79,-206.335"/>
</g>
<!-- Node13 -->
<g id="node27" class="node"><title>Node13</title>
<polygon fill="white" stroke="#bfbfbf" points="357.5,-116.5 357.5,-137.5 420.5,-137.5 420.5,-116.5 357.5,-116.5"/>
<text text-anchor="middle" x="389" y="-124.5" font-family="Helvetica,sans-Serif" font-size="10.00">TH2Poly.h</text>
</g>
<!-- Node1&#45;&gt;Node13 -->
<g id="edge38" class="edge"><title>Node1&#45;&gt;Node13</title>
<path fill="none" stroke="midnightblue" d="M279.592,-232.838C298.568,-223.622 320.731,-211.049 338,-196 354.214,-181.871 368.36,-161.732 377.615,-146.857"/>
<polygon fill="midnightblue" stroke="midnightblue" points="380.812,-148.332 382.962,-137.957 374.811,-144.726 380.812,-148.332"/>
</g>
<!-- Node14 -->
<g id="node30" class="node"><title>Node14</title>
<a xlink:href="_t_h2_draw_tool_8h.html" target="_top" xlink:title="TH2DrawTool.h">
<polygon fill="white" stroke="black" points="91,-174.5 91,-195.5 177,-195.5 177,-174.5 91,-174.5"/>
<text text-anchor="middle" x="134" y="-182.5" font-family="Helvetica,sans-Serif" font-size="10.00">TH2DrawTool.h</text>
</a>
</g>
<!-- Node1&#45;&gt;Node14 -->
<g id="edge32" class="edge"><title>Node1&#45;&gt;Node14</title>
<path fill="none" stroke="midnightblue" d="M211.412,-232.922C195.464,-223.049 175.522,-210.704 159.873,-201.016"/>
<polygon fill="midnightblue" stroke="midnightblue" points="161.562,-197.946 151.217,-195.658 157.878,-203.898 161.562,-197.946"/>
</g>
<!-- Node15 -->
<g id="node35" class="node"><title>Node15</title>
<polygon fill="white" stroke="#bfbfbf" points="407,-174.5 407,-195.5 463,-195.5 463,-174.5 407,-174.5"/>
<text text-anchor="middle" x="435" y="-182.5" font-family="Helvetica,sans-Serif" font-size="10.00">Rtypes.h</text>
</g>
<!-- Node1&#45;&gt;Node15 -->
<g id="edge40" class="edge"><title>Node1&#45;&gt;Node15</title>
<path fill="none" stroke="midnightblue" d="M290.497,-232.922C323.92,-221.838 366.739,-207.638 397.066,-197.58"/>
<polygon fill="midnightblue" stroke="midnightblue" points="398.45,-200.809 406.84,-194.339 396.246,-194.165 398.45,-200.809"/>
</g>
<!-- Node6 -->
<g id="node11" class="node"><title>Node6</title>
<a xlink:href="printable_8h.html" target="_top" xlink:title="base/printable.h">
<polygon fill="white" stroke="black" points="428,-58.5 428,-79.5 514,-79.5 514,-58.5 428,-58.5"/>
<text text-anchor="middle" x="471" y="-66.5" font-family="Helvetica,sans-Serif" font-size="10.00">base/printable.h</text>
</a>
</g>
<!-- Node5&#45;&gt;Node6 -->
<g id="edge10" class="edge"><title>Node5&#45;&gt;Node6</title>
<path fill="none" stroke="midnightblue" d="M275.281,-116.497C315.257,-106.795 374.762,-92.3547 417.66,-81.9445"/>
<polygon fill="midnightblue" stroke="midnightblue" points="418.745,-85.2827 427.638,-79.5231 417.094,-78.4802 418.745,-85.2827"/>
</g>
<!-- Node8 -->
<g id="node16" class="node"><title>Node8</title>
<polygon fill="white" stroke="#bfbfbf" points="123.5,-58.5 123.5,-79.5 188.5,-79.5 188.5,-58.5 123.5,-58.5"/>
<text text-anchor="middle" x="156" y="-66.5" font-family="Helvetica,sans-Serif" font-size="10.00">TVectorT.h</text>
</g>
<!-- Node5&#45;&gt;Node8 -->
<g id="edge16" class="edge"><title>Node5&#45;&gt;Node8</title>
<path fill="none" stroke="midnightblue" d="M218.06,-116.362C206.812,-107.777 190.784,-95.5459 177.835,-85.6636"/>
<polygon fill="midnightblue" stroke="midnightblue" points="179.924,-82.8551 169.851,-79.5707 175.677,-88.4198 179.924,-82.8551"/>
</g>
<!-- Node9 -->
<g id="node18" class="node"><title>Node9</title>
<polygon fill="white" stroke="#bfbfbf" points="206,-58.5 206,-79.5 270,-79.5 270,-58.5 206,-58.5"/>
<text text-anchor="middle" x="238" y="-66.5" font-family="Helvetica,sans-Serif" font-size="10.00">TMatrixT.h</text>
</g>
<!-- Node5&#45;&gt;Node9 -->
<g id="edge18" class="edge"><title>Node5&#45;&gt;Node9</title>
<path fill="none" stroke="midnightblue" d="M233.1,-116.362C233.87,-108.922 234.923,-98.7427 235.856,-89.7276"/>
<polygon fill="midnightblue" stroke="midnightblue" points="239.359,-89.8777 236.906,-79.5707 232.396,-89.1574 239.359,-89.8777"/>
</g>
<!-- Node10 -->
<g id="node20" class="node"><title>Node10</title>
<polygon fill="white" stroke="#bfbfbf" points="287.5,-58.5 287.5,-79.5 352.5,-79.5 352.5,-58.5 287.5,-58.5"/>
<text text-anchor="middle" x="320" y="-66.5" font-family="Helvetica,sans-Serif" font-size="10.00">TVector2.h</text>
</g>
<!-- Node5&#45;&gt;Node10 -->
<g id="edge20" class="edge"><title>Node5&#45;&gt;Node10</title>
<path fill="none" stroke="midnightblue" d="M248.141,-116.362C261.414,-107.614 280.432,-95.0786 295.57,-85.1015"/>
<polygon fill="midnightblue" stroke="midnightblue" points="297.538,-87.9962 303.962,-79.5707 293.686,-82.1515 297.538,-87.9962"/>
</g>
<!-- Node11 -->
<g id="node22" class="node"><title>Node11</title>
<polygon fill="white" stroke="#bfbfbf" points="369.5,-58.5 369.5,-79.5 410.5,-79.5 410.5,-58.5 369.5,-58.5"/>
<text text-anchor="middle" x="390" y="-66.5" font-family="Helvetica,sans-Serif" font-size="10.00">stack</text>
</g>
<!-- Node5&#45;&gt;Node11 -->
<g id="edge22" class="edge"><title>Node5&#45;&gt;Node11</title>
<path fill="none" stroke="midnightblue" d="M261.243,-116.469C285.473,-107.717 321.041,-94.8062 359.989,-80.3505"/>
<polygon fill="midnightblue" stroke="midnightblue" points="361.264,-83.6107 369.417,-76.8454 358.825,-77.0495 361.264,-83.6107"/>
</g>
<!-- Node6&#45;&gt;Node3 -->
<g id="edge12" class="edge"><title>Node6&#45;&gt;Node3</title>
<path fill="none" stroke="midnightblue" d="M427.911,-59.6634C424.9,-59.0791 421.907,-58.5184 419,-58 312.914,-39.0809 186.206,-22.3348 128.051,-14.9728"/>
<polygon fill="midnightblue" stroke="midnightblue" points="128.369,-11.4853 118.01,-13.7089 127.495,-18.4305 128.369,-11.4853"/>
</g>
<!-- Node7 -->
<g id="node14" class="node"><title>Node7</title>
<polygon fill="white" stroke="#bfbfbf" points="445,-0.5 445,-21.5 497,-21.5 497,-0.5 445,-0.5"/>
<text text-anchor="middle" x="471" y="-8.5" font-family="Helvetica,sans-Serif" font-size="10.00">ostream</text>
</g>
<!-- Node6&#45;&gt;Node7 -->
<g id="edge14" class="edge"><title>Node6&#45;&gt;Node7</title>
<path fill="none" stroke="midnightblue" d="M471,-58.3619C471,-50.9219 471,-40.7427 471,-31.7276"/>
<polygon fill="midnightblue" stroke="midnightblue" points="474.5,-31.5706 471,-21.5707 467.5,-31.5707 474.5,-31.5706"/>
</g>
<!-- Node12&#45;&gt;Node4 -->
<g id="edge30" class="edge"><title>Node12&#45;&gt;Node4</title>
<path fill="none" stroke="midnightblue" d="M281.621,-174.362C288.18,-166.268 297.366,-154.932 305.106,-145.38"/>
<polygon fill="midnightblue" stroke="midnightblue" points="307.858,-147.544 311.434,-137.571 302.419,-143.136 307.858,-147.544"/>
</g>
<!-- Node12&#45;&gt;Node5 -->
<g id="edge26" class="edge"><title>Node12&#45;&gt;Node5</title>
<path fill="none" stroke="midnightblue" d="M265.48,-174.362C259.874,-166.431 252.068,-155.389 245.403,-145.961"/>
<polygon fill="midnightblue" stroke="midnightblue" points="248.103,-143.716 239.472,-137.571 242.387,-147.757 248.103,-143.716"/>
</g>
<!-- Node12&#45;&gt;Node13 -->
<g id="edge28" class="edge"><title>Node12&#45;&gt;Node13</title>
<path fill="none" stroke="midnightblue" d="M294.007,-174.497C312.043,-165.479 338.27,-152.365 358.599,-142.201"/>
<polygon fill="midnightblue" stroke="midnightblue" points="360.379,-145.224 367.758,-137.621 357.248,-138.963 360.379,-145.224"/>
</g>
<!-- Node14&#45;&gt;Node3 -->
<g id="edge36" class="edge"><title>Node14&#45;&gt;Node3</title>
<path fill="none" stroke="midnightblue" d="M131.68,-174.377C125.52,-146.172 108.669,-69.0121 100.525,-31.7203"/>
<polygon fill="midnightblue" stroke="midnightblue" points="103.94,-30.9507 98.3865,-21.9277 97.1008,-32.4442 103.94,-30.9507"/>
</g>
<!-- Node14&#45;&gt;Node5 -->
<g id="edge34" class="edge"><title>Node14&#45;&gt;Node5</title>
<path fill="none" stroke="midnightblue" d="M151.975,-174.362C166.894,-165.532 188.333,-152.844 205.266,-142.822"/>
<polygon fill="midnightblue" stroke="midnightblue" points="207.316,-145.676 214.139,-137.571 203.751,-139.652 207.316,-145.676"/>
</g>
</g>
</svg>
