<?xml version="1.0" encoding="UTF-8" standalone="no"?>
<!DOCTYPE svg PUBLIC "-//W3C//DTD SVG 1.1//EN"
 "http://www.w3.org/Graphics/SVG/1.1/DTD/svg11.dtd">
<!-- Generated by graphviz version 2.26.3 (20100126.1600)
 -->
<!-- Title: src/tree/TSlowControl.h Pages: 1 -->
<svg width="2080pt" height="246pt"
 viewBox="0.00 0.00 2080.00 246.00" xmlns="http://www.w3.org/2000/svg" xmlns:xlink="http://www.w3.org/1999/xlink">
<g id="graph1" class="graph" transform="scale(1 1) rotate(0) translate(4 242)">
<title>src/tree/TSlowControl.h</title>
<polygon fill="white" stroke="white" points="-4,5 -4,-242 2077,-242 2077,5 -4,5"/>
<!-- Node1 -->
<g id="node1" class="node"><title>Node1</title>
<polygon fill="#bfbfbf" stroke="black" points="968,-216.5 968,-237.5 1088,-237.5 1088,-216.5 968,-216.5"/>
<text text-anchor="middle" x="1028" y="-224.5" font-family="Helvetica,sans-Serif" font-size="10.00">src/tree/TSlowControl.h</text>
</g>
<!-- Node2 -->
<g id="node3" class="node"><title>Node2</title>
<a xlink:href="_slowcontrol_8cc.html" target="_top" xlink:title="src/analysis/data/Slowcontrol.cc">
<polygon fill="white" stroke="black" points="89,-151.5 89,-172.5 247,-172.5 247,-151.5 89,-151.5"/>
<text text-anchor="middle" x="168" y="-159.5" font-family="Helvetica,sans-Serif" font-size="10.00">src/analysis/data/Slowcontrol.cc</text>
</a>
</g>
<!-- Node1&#45;&gt;Node2 -->
<g id="edge2" class="edge"><title>Node1&#45;&gt;Node2</title>
<path fill="none" stroke="midnightblue" d="M957.347,-225.736C821.804,-222.635 516.074,-212.36 261,-180 246.317,-178.137 230.463,-175.359 216.077,-172.54"/>
<polygon fill="midnightblue" stroke="midnightblue" points="957.515,-229.241 967.59,-225.964 957.671,-222.243 957.515,-229.241"/>
</g>
<!-- Node3 -->
<g id="node5" class="node"><title>Node3</title>
<a xlink:href="_ant_reader_8cc.html" target="_top" xlink:title="src/analysis/input\l/ant/AntReader.cc">
<polygon fill="white" stroke="black" points="0,-1 0,-35 96,-35 96,-1 0,-1"/>
<text text-anchor="start" x="8" y="-22" font-family="Helvetica,sans-Serif" font-size="10.00">src/analysis/input</text>
<text text-anchor="middle" x="48" y="-9" font-family="Helvetica,sans-Serif" font-size="10.00">/ant/AntReader.cc</text>
</a>
</g>
<!-- Node1&#45;&gt;Node3 -->
<g id="edge4" class="edge"><title>Node1&#45;&gt;Node3</title>
<path fill="none" stroke="midnightblue" d="M957.891,-222.786C835.91,-215.105 589.569,-197.958 505,-180 408.074,-159.419 387.422,-141.024 294,-108 223.897,-83.2187 142.995,-53.3805 93.6844,-35.0531"/>
<polygon fill="midnightblue" stroke="midnightblue" points="957.678,-226.279 967.877,-223.411 958.115,-219.293 957.678,-226.279"/>
</g>
<!-- Node4 -->
<g id="node7" class="node"><title>Node4</title>
<a xlink:href="_data_reader_8h.html" target="_top" xlink:title="src/analysis/input\l/DataReader.h">
<polygon fill="white" stroke="black" points="513.5,-145 513.5,-179 606.5,-179 606.5,-145 513.5,-145"/>
<text text-anchor="start" x="521.5" y="-166" font-family="Helvetica,sans-Serif" font-size="10.00">src/analysis/input</text>
<text text-anchor="middle" x="560" y="-153" font-family="Helvetica,sans-Serif" font-size="10.00">/DataReader.h</text>
</a>
</g>
<!-- Node1&#45;&gt;Node4 -->
<g id="edge6" class="edge"><title>Node1&#45;&gt;Node4</title>
<path fill="none" stroke="midnightblue" d="M957.678,-220.808C879.33,-213.38 749.06,-199.449 638,-180 627.87,-178.226 617.079,-175.974 606.855,-173.667"/>
<polygon fill="midnightblue" stroke="midnightblue" points="957.627,-224.319 967.911,-221.769 958.282,-217.349 957.627,-224.319"/>
</g>
<!-- Node14 -->
<g id="node31" class="node"><title>Node14</title>
<a xlink:href="_physics_manager_8cc.html" target="_top" xlink:title="src/analysis/physics\l/PhysicsManager.cc">
<polygon fill="white" stroke="black" points="695,-73 695,-107 801,-107 801,-73 695,-73"/>
<text text-anchor="start" x="703" y="-94" font-family="Helvetica,sans-Serif" font-size="10.00">src/analysis/physics</text>
<text text-anchor="middle" x="748" y="-81" font-family="Helvetica,sans-Serif" font-size="10.00">/PhysicsManager.cc</text>
</a>
</g>
<!-- Node1&#45;&gt;Node14 -->
<g id="edge50" class="edge"><title>Node1&#45;&gt;Node14</title>
<path fill="none" stroke="midnightblue" d="M957.796,-222.666C859.198,-215.854 689.586,-201.193 671,-180 660.45,-167.971 663.617,-158.195 671,-144 679.287,-128.066 694.669,-115.855 709.519,-107.11"/>
<polygon fill="midnightblue" stroke="midnightblue" points="957.773,-226.173 967.988,-223.36 958.249,-219.189 957.773,-226.173"/>
</g>
<!-- Node15 -->
<g id="node33" class="node"><title>Node15</title>
<a xlink:href="_slowcontrol_creator_8h.html" target="_top" xlink:title="src/analysis/input\l/detail/SlowcontrolCreator.h">
<polygon fill="white" stroke="black" points="679.5,-145 679.5,-179 816.5,-179 816.5,-145 679.5,-145"/>
<text text-anchor="start" x="687.5" y="-166" font-family="Helvetica,sans-Serif" font-size="10.00">src/analysis/input</text>
<text text-anchor="middle" x="748" y="-153" font-family="Helvetica,sans-Serif" font-size="10.00">/detail/SlowcontrolCreator.h</text>
</a>
</g>
<!-- Node1&#45;&gt;Node15 -->
<g id="edge36" class="edge"><title>Node1&#45;&gt;Node15</title>
<path fill="none" stroke="midnightblue" d="M972.685,-214.226C931.865,-204.792 874.965,-191.624 825,-180 822.326,-179.378 819.599,-178.743 816.845,-178.101"/>
<polygon fill="midnightblue" stroke="midnightblue" points="971.91,-217.64 982.441,-216.481 973.486,-210.819 971.91,-217.64"/>
</g>
<!-- Node17 -->
<g id="node38" class="node"><title>Node17</title>
<a xlink:href="_physics_manager_8h.html" target="_top" xlink:title="src/analysis/physics\l/PhysicsManager.h">
<polygon fill="white" stroke="black" points="834,-145 834,-179 940,-179 940,-145 834,-145"/>
<text text-anchor="start" x="842" y="-166" font-family="Helvetica,sans-Serif" font-size="10.00">src/analysis/physics</text>
<text text-anchor="middle" x="887" y="-153" font-family="Helvetica,sans-Serif" font-size="10.00">/PhysicsManager.h</text>
</a>
</g>
<!-- Node1&#45;&gt;Node17 -->
<g id="edge42" class="edge"><title>Node1&#45;&gt;Node17</title>
<path fill="none" stroke="midnightblue" d="M995.733,-212.125C974.366,-202.275 946.282,-189.328 924.008,-179.06"/>
<polygon fill="midnightblue" stroke="midnightblue" points="994.485,-215.404 1005.03,-216.412 997.416,-209.047 994.485,-215.404"/>
</g>
<!-- Node18 -->
<g id="node44" class="node"><title>Node18</title>
<a xlink:href="_unpacker_reader_8cc.html" target="_top" xlink:title="src/tree/UnpackerReader.cc">
<polygon fill="white" stroke="black" points="958,-151.5 958,-172.5 1098,-172.5 1098,-151.5 958,-151.5"/>
<text text-anchor="middle" x="1028" y="-159.5" font-family="Helvetica,sans-Serif" font-size="10.00">src/tree/UnpackerReader.cc</text>
</a>
</g>
<!-- Node1&#45;&gt;Node18 -->
<g id="edge52" class="edge"><title>Node1&#45;&gt;Node18</title>
<path fill="none" stroke="midnightblue" d="M1028,-206.014C1028,-194.831 1028,-181.558 1028,-172.534"/>
<polygon fill="midnightblue" stroke="midnightblue" points="1024.5,-206.267 1028,-216.267 1031.5,-206.267 1024.5,-206.267"/>
</g>
<!-- Node19 -->
<g id="node46" class="node"><title>Node19</title>
<a xlink:href="_unpacker_writer_8cc.html" target="_top" xlink:title="src/tree/UnpackerWriter.cc">
<polygon fill="white" stroke="black" points="1116,-151.5 1116,-172.5 1250,-172.5 1250,-151.5 1116,-151.5"/>
<text text-anchor="middle" x="1183" y="-159.5" font-family="Helvetica,sans-Serif" font-size="10.00">src/tree/UnpackerWriter.cc</text>
</a>
</g>
<!-- Node1&#45;&gt;Node19 -->
<g id="edge54" class="edge"><title>Node1&#45;&gt;Node19</title>
<path fill="none" stroke="midnightblue" d="M1062.55,-212.511C1091.41,-200.41 1131.87,-183.441 1157.76,-172.584"/>
<polygon fill="midnightblue" stroke="midnightblue" points="1061.12,-209.317 1053.25,-216.412 1063.82,-215.772 1061.12,-209.317"/>
</g>
<!-- Node20 -->
<g id="node48" class="node"><title>Node20</title>
<a xlink:href="_unpacker_acqu__detail_8cc.html" target="_top" xlink:title="src/unpacker/detail\l/UnpackerAcqu_detail.cc">
<polygon fill="white" stroke="black" points="1268,-145 1268,-179 1394,-179 1394,-145 1268,-145"/>
<text text-anchor="start" x="1276" y="-166" font-family="Helvetica,sans-Serif" font-size="10.00">src/unpacker/detail</text>
<text text-anchor="middle" x="1331" y="-153" font-family="Helvetica,sans-Serif" font-size="10.00">/UnpackerAcqu_detail.cc</text>
</a>
</g>
<!-- Node1&#45;&gt;Node20 -->
<g id="edge56" class="edge"><title>Node1&#45;&gt;Node20</title>
<path fill="none" stroke="midnightblue" d="M1093.14,-214.546C1139.51,-205.486 1203.22,-192.64 1259,-180 1261.89,-179.345 1264.84,-178.662 1267.82,-177.963"/>
<polygon fill="midnightblue" stroke="midnightblue" points="1092.37,-211.13 1083.22,-216.477 1093.71,-218.001 1092.37,-211.13"/>
</g>
<!-- Node21 -->
<g id="node50" class="node"><title>Node21</title>
<a xlink:href="_unpacker_acqu___file_format_mk2_8cc.html" target="_top" xlink:title="src/unpacker/detail\l/UnpackerAcqu_FileFormatMk2.cc">
<polygon fill="white" stroke="black" points="1412,-145 1412,-179 1580,-179 1580,-145 1412,-145"/>
<text text-anchor="start" x="1420" y="-166" font-family="Helvetica,sans-Serif" font-size="10.00">src/unpacker/detail</text>
<text text-anchor="middle" x="1496" y="-153" font-family="Helvetica,sans-Serif" font-size="10.00">/UnpackerAcqu_FileFormatMk2.cc</text>
</a>
</g>
<!-- Node1&#45;&gt;Node21 -->
<g id="edge58" class="edge"><title>Node1&#45;&gt;Node21</title>
<path fill="none" stroke="midnightblue" d="M1098.59,-219.57C1174.11,-211.29 1297.33,-196.829 1403,-180 1405.92,-179.534 1408.9,-179.045 1411.89,-178.538"/>
<polygon fill="midnightblue" stroke="midnightblue" points="1097.81,-216.134 1088.25,-220.697 1098.57,-223.092 1097.81,-216.134"/>
</g>
<!-- Node22 -->
<g id="node52" class="node"><title>Node22</title>
<a xlink:href="_test_tree_writer_8cc.html" target="_top" xlink:title="test/unpacker/TestTreeWriter.cc">
<polygon fill="white" stroke="black" points="1598,-151.5 1598,-172.5 1756,-172.5 1756,-151.5 1598,-151.5"/>
<text text-anchor="middle" x="1677" y="-159.5" font-family="Helvetica,sans-Serif" font-size="10.00">test/unpacker/TestTreeWriter.cc</text>
</a>
</g>
<!-- Node1&#45;&gt;Node22 -->
<g id="edge60" class="edge"><title>Node1&#45;&gt;Node22</title>
<path fill="none" stroke="midnightblue" d="M1098.34,-223.78C1204.91,-218.3 1413.45,-205.217 1589,-180 1602.58,-178.049 1617.23,-175.312 1630.6,-172.56"/>
<polygon fill="midnightblue" stroke="midnightblue" points="1097.85,-220.3 1088.04,-224.302 1098.21,-227.291 1097.85,-220.3"/>
</g>
<!-- Node23 -->
<g id="node54" class="node"><title>Node23</title>
<a xlink:href="_test_unpacker_acqu_scaler_8cc.html" target="_top" xlink:title="test/unpacker/TestUnpacker\lAcquScaler.cc">
<polygon fill="white" stroke="black" points="1774,-145 1774,-179 1914,-179 1914,-145 1774,-145"/>
<text text-anchor="start" x="1782" y="-166" font-family="Helvetica,sans-Serif" font-size="10.00">test/unpacker/TestUnpacker</text>
<text text-anchor="middle" x="1844" y="-153" font-family="Helvetica,sans-Serif" font-size="10.00">AcquScaler.cc</text>
</a>
</g>
<!-- Node1&#45;&gt;Node23 -->
<g id="edge62" class="edge"><title>Node1&#45;&gt;Node23</title>
<path fill="none" stroke="midnightblue" d="M1098.16,-223.965C1256.47,-216.882 1637.58,-198.457 1765,-180 1767.92,-179.577 1770.9,-179.101 1773.9,-178.586"/>
<polygon fill="midnightblue" stroke="midnightblue" points="1097.89,-220.473 1088.06,-224.415 1098.2,-227.466 1097.89,-220.473"/>
</g>
<!-- Node24 -->
<g id="node56" class="node"><title>Node24</title>
<a xlink:href="_test_unpacker_acqu_t_i_d_8cc.html" target="_top" xlink:title="test/unpacker/TestUnpacker\lAcquTID.cc">
<polygon fill="white" stroke="black" points="1932,-145 1932,-179 2072,-179 2072,-145 1932,-145"/>
<text text-anchor="start" x="1940" y="-166" font-family="Helvetica,sans-Serif" font-size="10.00">test/unpacker/TestUnpacker</text>
<text text-anchor="middle" x="2002" y="-153" font-family="Helvetica,sans-Serif" font-size="10.00">AcquTID.cc</text>
</a>
</g>
<!-- Node1&#45;&gt;Node24 -->
<g id="edge64" class="edge"><title>Node1&#45;&gt;Node24</title>
<path fill="none" stroke="midnightblue" d="M1098.27,-224.87C1280.31,-219.101 1764.08,-202.112 1923,-180 1925.93,-179.593 1928.9,-179.132 1931.9,-178.627"/>
<polygon fill="midnightblue" stroke="midnightblue" points="1097.9,-221.38 1088.01,-225.193 1098.12,-228.376 1097.9,-221.38"/>
</g>
<!-- Node5 -->
<g id="node9" class="node"><title>Node5</title>
<a xlink:href="_ant_8cc.html" target="_top" xlink:title="progs/Ant.cc">
<polygon fill="white" stroke="black" points="588,-7.5 588,-28.5 660,-28.5 660,-7.5 588,-7.5"/>
<text text-anchor="middle" x="624" y="-15.5" font-family="Helvetica,sans-Serif" font-size="10.00">progs/Ant.cc</text>
</a>
</g>
<!-- Node4&#45;&gt;Node5 -->
<g id="edge8" class="edge"><title>Node4&#45;&gt;Node5</title>
<path fill="none" stroke="midnightblue" d="M555.046,-134.682C552.982,-116.132 552.853,-91.5197 562,-72 570.965,-52.8706 590.286,-37.8112 604.993,-28.5095"/>
<polygon fill="midnightblue" stroke="midnightblue" points="551.61,-135.385 556.43,-144.82 558.545,-134.438 551.61,-135.385"/>
</g>
<!-- Node6 -->
<g id="node11" class="node"><title>Node6</title>
<a xlink:href="_ant_reader_8h.html" target="_top" xlink:title="src/analysis/input\l/ant/AntReader.h">
<polygon fill="white" stroke="black" points="302.5,-73 302.5,-107 395.5,-107 395.5,-73 302.5,-73"/>
<text text-anchor="start" x="310.5" y="-94" font-family="Helvetica,sans-Serif" font-size="10.00">src/analysis/input</text>
<text text-anchor="middle" x="349" y="-81" font-family="Helvetica,sans-Serif" font-size="10.00">/ant/AntReader.h</text>
</a>
</g>
<!-- Node4&#45;&gt;Node6 -->
<g id="edge10" class="edge"><title>Node4&#45;&gt;Node6</title>
<path fill="none" stroke="midnightblue" d="M503.724,-142.797C470.02,-131.296 427.677,-116.847 395.811,-105.974"/>
<polygon fill="midnightblue" stroke="midnightblue" points="502.839,-146.193 513.434,-146.11 505.1,-139.568 502.839,-146.193"/>
</g>
<!-- Node8 -->
<g id="node17" class="node"><title>Node8</title>
<a xlink:href="_goat_reader_8h.html" target="_top" xlink:title="src/analysis/input\l/goat/GoatReader.h">
<polygon fill="white" stroke="black" points="413,-73 413,-107 515,-107 515,-73 413,-73"/>
<text text-anchor="start" x="421" y="-94" font-family="Helvetica,sans-Serif" font-size="10.00">src/analysis/input</text>
<text text-anchor="middle" x="464" y="-81" font-family="Helvetica,sans-Serif" font-size="10.00">/goat/GoatReader.h</text>
</a>
</g>
<!-- Node4&#45;&gt;Node8 -->
<g id="edge18" class="edge"><title>Node4&#45;&gt;Node8</title>
<path fill="none" stroke="midnightblue" d="M529.045,-138.784C515.351,-128.514 499.53,-116.648 486.92,-107.19"/>
<polygon fill="midnightblue" stroke="midnightblue" points="527.149,-141.737 537.249,-144.937 531.349,-136.137 527.149,-141.737"/>
</g>
<!-- Node12 -->
<g id="node26" class="node"><title>Node12</title>
<a xlink:href="_pluto_reader_8h.html" target="_top" xlink:title="src/analysis/input\l/pluto/PlutoReader.h">
<polygon fill="white" stroke="black" points="571,-73 571,-107 677,-107 677,-73 571,-73"/>
<text text-anchor="start" x="579" y="-94" font-family="Helvetica,sans-Serif" font-size="10.00">src/analysis/input</text>
<text text-anchor="middle" x="624" y="-81" font-family="Helvetica,sans-Serif" font-size="10.00">/pluto/PlutoReader.h</text>
</a>
</g>
<!-- Node4&#45;&gt;Node12 -->
<g id="edge28" class="edge"><title>Node4&#45;&gt;Node12</title>
<path fill="none" stroke="midnightblue" d="M581.886,-137.379C590.636,-127.535 600.51,-116.426 608.497,-107.441"/>
<polygon fill="midnightblue" stroke="midnightblue" points="579.195,-135.138 575.167,-144.937 584.427,-139.788 579.195,-135.138"/>
</g>
<!-- Node4&#45;&gt;Node14 -->
<g id="edge34" class="edge"><title>Node4&#45;&gt;Node14</title>
<path fill="none" stroke="midnightblue" d="M613.92,-141.35C642.273,-130.491 676.613,-117.34 703.441,-107.065"/>
<polygon fill="midnightblue" stroke="midnightblue" points="612.64,-138.092 604.553,-144.937 615.144,-144.629 612.64,-138.092"/>
</g>
<!-- Node6&#45;&gt;Node3 -->
<g id="edge14" class="edge"><title>Node6&#45;&gt;Node3</title>
<path fill="none" stroke="midnightblue" d="M292.273,-72.8238C291.174,-72.5424 290.082,-72.2675 289,-72 208.107,-52.0038 185.747,-56.579 105,-36 102.084,-35.2568 99.0967,-34.4509 96.0924,-33.6062"/>
<polygon fill="midnightblue" stroke="midnightblue" points="291.719,-76.2986 302.283,-75.5013 293.527,-69.5363 291.719,-76.2986"/>
</g>
<!-- Node6&#45;&gt;Node5 -->
<g id="edge12" class="edge"><title>Node6&#45;&gt;Node5</title>
<path fill="none" stroke="midnightblue" d="M405.386,-71.7905C482.563,-52.136 505.919,-57.9434 579,-36 585.931,-33.919 593.283,-31.2048 599.992,-28.5177"/>
<polygon fill="midnightblue" stroke="midnightblue" points="404.493,-68.4062 395.7,-74.3172 406.26,-75.1795 404.493,-68.4062"/>
</g>
<!-- Node7 -->
<g id="node15" class="node"><title>Node7</title>
<a xlink:href="_test_ant_reader_8cc.html" target="_top" xlink:title="test/analysis/TestAntReader.cc">
<polygon fill="white" stroke="black" points="113.5,-7.5 113.5,-28.5 268.5,-28.5 268.5,-7.5 113.5,-7.5"/>
<text text-anchor="middle" x="191" y="-15.5" font-family="Helvetica,sans-Serif" font-size="10.00">test/analysis/TestAntReader.cc</text>
</a>
</g>
<!-- Node6&#45;&gt;Node7 -->
<g id="edge16" class="edge"><title>Node6&#45;&gt;Node7</title>
<path fill="none" stroke="midnightblue" d="M302.437,-68.7812C273.511,-55.5999 237.564,-39.2192 214.454,-28.688"/>
<polygon fill="midnightblue" stroke="midnightblue" points="301.005,-71.9751 311.556,-72.937 303.908,-65.6053 301.005,-71.9751"/>
</g>
<!-- Node8&#45;&gt;Node5 -->
<g id="edge20" class="edge"><title>Node8&#45;&gt;Node5</title>
<path fill="none" stroke="midnightblue" d="M511.153,-68.7812C540.445,-55.5999 576.846,-39.2192 600.249,-28.688"/>
<polygon fill="midnightblue" stroke="midnightblue" points="509.601,-65.6416 501.918,-72.937 512.473,-72.025 509.601,-65.6416"/>
</g>
<!-- Node9 -->
<g id="node20" class="node"><title>Node9</title>
<a xlink:href="_goat_reader_8cc.html" target="_top" xlink:title="src/analysis/input\l/goat/GoatReader.cc">
<polygon fill="white" stroke="black" points="463.5,-1 463.5,-35 570.5,-35 570.5,-1 463.5,-1"/>
<text text-anchor="start" x="471.5" y="-22" font-family="Helvetica,sans-Serif" font-size="10.00">src/analysis/input</text>
<text text-anchor="middle" x="517" y="-9" font-family="Helvetica,sans-Serif" font-size="10.00">/goat/GoatReader.cc</text>
</a>
</g>
<!-- Node8&#45;&gt;Node9 -->
<g id="edge22" class="edge"><title>Node8&#45;&gt;Node9</title>
<path fill="none" stroke="midnightblue" d="M482.556,-64.7923C489.693,-55.0958 497.678,-44.2482 504.162,-35.4407"/>
<polygon fill="midnightblue" stroke="midnightblue" points="479.67,-62.8087 476.56,-72.937 485.307,-66.9585 479.67,-62.8087"/>
</g>
<!-- Node10 -->
<g id="node22" class="node"><title>Node10</title>
<a xlink:href="_test_goat_reader_8cc.html" target="_top" xlink:title="test/analysis/TestGoatReader.cc">
<polygon fill="white" stroke="black" points="285.5,-7.5 285.5,-28.5 446.5,-28.5 446.5,-7.5 285.5,-7.5"/>
<text text-anchor="middle" x="366" y="-15.5" font-family="Helvetica,sans-Serif" font-size="10.00">test/analysis/TestGoatReader.cc</text>
</a>
</g>
<!-- Node8&#45;&gt;Node10 -->
<g id="edge24" class="edge"><title>Node8&#45;&gt;Node10</title>
<path fill="none" stroke="midnightblue" d="M432.528,-66.8774C415.072,-54.0531 394.199,-38.7177 380.548,-28.688"/>
<polygon fill="midnightblue" stroke="midnightblue" points="430.644,-69.8368 440.775,-72.937 434.789,-64.1956 430.644,-69.8368"/>
</g>
<!-- Node11 -->
<g id="node24" class="node"><title>Node11</title>
<a xlink:href="_test_physics_manager_8cc.html" target="_top" xlink:title="test/analysis/TestPhysics\lManager.cc">
<polygon fill="white" stroke="black" points="884,-1 884,-35 1014,-35 1014,-1 884,-1"/>
<text text-anchor="start" x="892" y="-22" font-family="Helvetica,sans-Serif" font-size="10.00">test/analysis/TestPhysics</text>
<text text-anchor="middle" x="949" y="-9" font-family="Helvetica,sans-Serif" font-size="10.00">Manager.cc</text>
</a>
</g>
<!-- Node8&#45;&gt;Node11 -->
<g id="edge26" class="edge"><title>Node8&#45;&gt;Node11</title>
<path fill="none" stroke="midnightblue" d="M525.135,-78.352C537.331,-76.1467 550.059,-73.9287 562,-72 674.845,-53.7724 806.801,-36.1452 883.822,-26.2249"/>
<polygon fill="midnightblue" stroke="midnightblue" points="524.253,-74.955 515.045,-80.1949 525.511,-81.8411 524.253,-74.955"/>
</g>
<!-- Node12&#45;&gt;Node5 -->
<g id="edge30" class="edge"><title>Node12&#45;&gt;Node5</title>
<path fill="none" stroke="midnightblue" d="M624,-62.6667C624,-50.9127 624,-37.8483 624,-28.901"/>
<polygon fill="midnightblue" stroke="midnightblue" points="620.5,-62.937 624,-72.937 627.5,-62.937 620.5,-62.937"/>
</g>
<!-- Node13 -->
<g id="node29" class="node"><title>Node13</title>
<a xlink:href="_pluto_reader_8cc.html" target="_top" xlink:title="src/analysis/input\l/pluto/PlutoReader.cc">
<polygon fill="white" stroke="black" points="677.5,-1 677.5,-35 788.5,-35 788.5,-1 677.5,-1"/>
<text text-anchor="start" x="685.5" y="-22" font-family="Helvetica,sans-Serif" font-size="10.00">src/analysis/input</text>
<text text-anchor="middle" x="733" y="-9" font-family="Helvetica,sans-Serif" font-size="10.00">/pluto/PlutoReader.cc</text>
</a>
</g>
<!-- Node12&#45;&gt;Node13 -->
<g id="edge32" class="edge"><title>Node12&#45;&gt;Node13</title>
<path fill="none" stroke="midnightblue" d="M658.269,-67.3637C674.016,-56.9622 692.388,-44.826 706.976,-35.19"/>
<polygon fill="midnightblue" stroke="midnightblue" points="656.246,-64.5049 649.831,-72.937 660.105,-70.3457 656.246,-64.5049"/>
</g>
<!-- Node15&#45;&gt;Node14 -->
<g id="edge40" class="edge"><title>Node15&#45;&gt;Node14</title>
<path fill="none" stroke="midnightblue" d="M748,-134.719C748,-125.572 748,-115.625 748,-107.441"/>
<polygon fill="midnightblue" stroke="midnightblue" points="744.5,-134.937 748,-144.937 751.5,-134.937 744.5,-134.937"/>
</g>
<!-- Node16 -->
<g id="node35" class="node"><title>Node16</title>
<a xlink:href="_slowcontrol_creator_8cc.html" target="_top" xlink:title="src/analysis/input\l/detail/SlowcontrolCreator.cc">
<polygon fill="white" stroke="black" points="818.5,-73 818.5,-107 961.5,-107 961.5,-73 818.5,-73"/>
<text text-anchor="start" x="826.5" y="-94" font-family="Helvetica,sans-Serif" font-size="10.00">src/analysis/input</text>
<text text-anchor="middle" x="890" y="-81" font-family="Helvetica,sans-Serif" font-size="10.00">/detail/SlowcontrolCreator.cc</text>
</a>
</g>
<!-- Node15&#45;&gt;Node16 -->
<g id="edge38" class="edge"><title>Node15&#45;&gt;Node16</title>
<path fill="none" stroke="midnightblue" d="M790.66,-140.369C811.601,-129.751 836.477,-117.138 856.097,-107.19"/>
<polygon fill="midnightblue" stroke="midnightblue" points="788.988,-137.293 781.652,-144.937 792.154,-143.536 788.988,-137.293"/>
</g>
<!-- Node17&#45;&gt;Node5 -->
<g id="edge44" class="edge"><title>Node17&#45;&gt;Node5</title>
<path fill="none" stroke="midnightblue" d="M938.461,-139.642C951.016,-131.579 962.874,-121.137 970,-108 977.629,-93.9357 980.621,-83.9666 970,-72 925.283,-21.6162 734.275,-52.6516 669,-36 661.662,-34.1281 653.922,-31.3477 646.969,-28.5289"/>
<polygon fill="midnightblue" stroke="midnightblue" points="936.514,-136.728 929.708,-144.847 940.092,-142.744 936.514,-136.728"/>
</g>
<!-- Node17&#45;&gt;Node11 -->
<g id="edge48" class="edge"><title>Node17&#45;&gt;Node11</title>
<path fill="none" stroke="midnightblue" d="M946.25,-141.232C971.164,-131.189 996.011,-118.962 1003,-108 1011.6,-94.5085 1009.12,-86.7821 1003,-72 996.912,-57.3012 984.666,-44.5173 973.373,-35.0828"/>
<polygon fill="midnightblue" stroke="midnightblue" points="944.764,-138.055 936.735,-144.967 947.322,-144.571 944.764,-138.055"/>
</g>
<!-- Node17&#45;&gt;Node14 -->
<g id="edge46" class="edge"><title>Node17&#45;&gt;Node14</title>
<path fill="none" stroke="midnightblue" d="M844.965,-140.226C824.524,-129.638 800.306,-117.094 781.186,-107.19"/>
<polygon fill="midnightblue" stroke="midnightblue" points="843.57,-143.445 854.059,-144.937 846.789,-137.23 843.57,-143.445"/>
</g>
</g>
</svg>
