<?xml version="1.0" encoding="UTF-8" standalone="no"?>
<!DOCTYPE svg PUBLIC "-//W3C//DTD SVG 1.1//EN"
 "http://www.w3.org/Graphics/SVG/1.1/DTD/svg11.dtd">
<!-- Generated by graphviz version 2.26.3 (20100126.1600)
 -->
<!-- Title: src/tree/TTagger.h Pages: 1 -->
<svg width="1198pt" height="232pt"
 viewBox="0.00 0.00 1198.00 232.00" xmlns="http://www.w3.org/2000/svg" xmlns:xlink="http://www.w3.org/1999/xlink">
<g id="graph1" class="graph" transform="scale(1 1) rotate(0) translate(4 228)">
<title>src/tree/TTagger.h</title>
<polygon fill="white" stroke="white" points="-4,5 -4,-228 1195,-228 1195,5 -4,5"/>
<!-- Node1 -->
<g id="node1" class="node"><title>Node1</title>
<polygon fill="#bfbfbf" stroke="black" points="447.5,-202.5 447.5,-223.5 544.5,-223.5 544.5,-202.5 447.5,-202.5"/>
<text text-anchor="middle" x="496" y="-210.5" font-family="Helvetica,sans-Serif" font-size="10.00">src/tree/TTagger.h</text>
</g>
<!-- Node2 -->
<g id="node3" class="node"><title>Node2</title>
<a xlink:href="_t_event_8h.html" target="_top" xlink:title="src/tree/TEvent.h">
<polygon fill="white" stroke="black" points="450,-144.5 450,-165.5 542,-165.5 542,-144.5 450,-144.5"/>
<text text-anchor="middle" x="496" y="-152.5" font-family="Helvetica,sans-Serif" font-size="10.00">src/tree/TEvent.h</text>
</a>
</g>
<!-- Node1&#45;&gt;Node2 -->
<g id="edge2" class="edge"><title>Node1&#45;&gt;Node2</title>
<path fill="none" stroke="midnightblue" d="M496,-192.191C496,-183.168 496,-172.994 496,-165.571"/>
<polygon fill="midnightblue" stroke="midnightblue" points="492.5,-192.362 496,-202.362 499.5,-192.362 492.5,-192.362"/>
</g>
<!-- Node3 -->
<g id="node5" class="node"><title>Node3</title>
<a xlink:href="_ant_reader_8cc.html" target="_top" xlink:title="src/analysis/input\l/ant/AntReader.cc">
<polygon fill="white" stroke="black" points="0,-73 0,-107 96,-107 96,-73 0,-73"/>
<text text-anchor="start" x="8" y="-94" font-family="Helvetica,sans-Serif" font-size="10.00">src/analysis/input</text>
<text text-anchor="middle" x="48" y="-81" font-family="Helvetica,sans-Serif" font-size="10.00">/ant/AntReader.cc</text>
</a>
</g>
<!-- Node2&#45;&gt;Node3 -->
<g id="edge4" class="edge"><title>Node2&#45;&gt;Node3</title>
<path fill="none" stroke="midnightblue" d="M439.426,-151.518C362.896,-146.057 222.442,-133.37 105,-108 102.058,-107.365 99.0517,-106.642 96.0326,-105.86"/>
<polygon fill="midnightblue" stroke="midnightblue" points="439.572,-155.037 449.792,-152.242 440.059,-148.054 439.572,-155.037"/>
</g>
<!-- Node4 -->
<g id="node7" class="node"><title>Node4</title>
<a xlink:href="_convert_8cc.html" target="_top" xlink:title="src/analysis/input\l/ant/detail/Convert.cc">
<polygon fill="white" stroke="black" points="114,-73 114,-107 224,-107 224,-73 114,-73"/>
<text text-anchor="start" x="122" y="-94" font-family="Helvetica,sans-Serif" font-size="10.00">src/analysis/input</text>
<text text-anchor="middle" x="169" y="-81" font-family="Helvetica,sans-Serif" font-size="10.00">/ant/detail/Convert.cc</text>
</a>
</g>
<!-- Node2&#45;&gt;Node4 -->
<g id="edge6" class="edge"><title>Node2&#45;&gt;Node4</title>
<path fill="none" stroke="midnightblue" d="M439.545,-145.969C387.112,-137.284 306.974,-123.257 238,-108 233.527,-107.011 228.906,-105.931 224.273,-104.809"/>
<polygon fill="midnightblue" stroke="midnightblue" points="439.215,-149.461 449.651,-147.633 440.353,-142.554 439.215,-149.461"/>
</g>
<!-- Node5 -->
<g id="node9" class="node"><title>Node5</title>
<a xlink:href="_candidate_builder_8h.html" target="_top" xlink:title="src/reconstruct/Candidate\lBuilder.h">
<polygon fill="white" stroke="black" points="279.5,-73 279.5,-107 408.5,-107 408.5,-73 279.5,-73"/>
<text text-anchor="start" x="287.5" y="-94" font-family="Helvetica,sans-Serif" font-size="10.00">src/reconstruct/Candidate</text>
<text text-anchor="middle" x="344" y="-81" font-family="Helvetica,sans-Serif" font-size="10.00">Builder.h</text>
</a>
</g>
<!-- Node2&#45;&gt;Node5 -->
<g id="edge8" class="edge"><title>Node2&#45;&gt;Node5</title>
<path fill="none" stroke="midnightblue" d="M461.836,-140.39C438.727,-130.508 408.123,-117.421 383.895,-107.06"/>
<polygon fill="midnightblue" stroke="midnightblue" points="460.67,-143.698 471.24,-144.412 463.422,-137.262 460.67,-143.698"/>
</g>
<!-- Node7 -->
<g id="node13" class="node"><title>Node7</title>
<a xlink:href="_reconstruct_8cc.html" target="_top" xlink:title="src/reconstruct/Reconstruct.cc">
<polygon fill="white" stroke="black" points="110,-7.5 110,-28.5 262,-28.5 262,-7.5 110,-7.5"/>
<text text-anchor="middle" x="186" y="-15.5" font-family="Helvetica,sans-Serif" font-size="10.00">src/reconstruct/Reconstruct.cc</text>
</a>
</g>
<!-- Node2&#45;&gt;Node7 -->
<g id="edge18" class="edge"><title>Node2&#45;&gt;Node7</title>
<path fill="none" stroke="midnightblue" d="M439.941,-147.216C383.047,-138.625 299.42,-123.895 271,-108 261.668,-102.781 215.482,-51.2921 195.377,-28.6223"/>
<polygon fill="midnightblue" stroke="midnightblue" points="439.476,-150.685 449.883,-148.696 440.507,-143.761 439.476,-150.685"/>
</g>
<!-- Node10 -->
<g id="node20" class="node"><title>Node10</title>
<a xlink:href="_unpacker_reader_8cc.html" target="_top" xlink:title="src/tree/UnpackerReader.cc">
<polygon fill="white" stroke="black" points="426,-79.5 426,-100.5 566,-100.5 566,-79.5 426,-79.5"/>
<text text-anchor="middle" x="496" y="-87.5" font-family="Helvetica,sans-Serif" font-size="10.00">src/tree/UnpackerReader.cc</text>
</a>
</g>
<!-- Node2&#45;&gt;Node10 -->
<g id="edge20" class="edge"><title>Node2&#45;&gt;Node10</title>
<path fill="none" stroke="midnightblue" d="M496,-134.014C496,-122.831 496,-109.558 496,-100.534"/>
<polygon fill="midnightblue" stroke="midnightblue" points="492.5,-134.267 496,-144.267 499.5,-134.267 492.5,-134.267"/>
</g>
<!-- Node11 -->
<g id="node22" class="node"><title>Node11</title>
<a xlink:href="_unpacker_writer_8cc.html" target="_top" xlink:title="src/tree/UnpackerWriter.cc">
<polygon fill="white" stroke="black" points="584,-79.5 584,-100.5 718,-100.5 718,-79.5 584,-79.5"/>
<text text-anchor="middle" x="651" y="-87.5" font-family="Helvetica,sans-Serif" font-size="10.00">src/tree/UnpackerWriter.cc</text>
</a>
</g>
<!-- Node2&#45;&gt;Node11 -->
<g id="edge22" class="edge"><title>Node2&#45;&gt;Node11</title>
<path fill="none" stroke="midnightblue" d="M530.551,-140.511C559.406,-128.41 599.871,-111.441 625.762,-100.584"/>
<polygon fill="midnightblue" stroke="midnightblue" points="529.117,-137.317 521.248,-144.412 531.824,-143.772 529.117,-137.317"/>
</g>
<!-- Node12 -->
<g id="node24" class="node"><title>Node12</title>
<a xlink:href="_test_ant_input_8cc.html" target="_top" xlink:title="test/analysis/TestAntInput.cc">
<polygon fill="white" stroke="black" points="735.5,-79.5 735.5,-100.5 880.5,-100.5 880.5,-79.5 735.5,-79.5"/>
<text text-anchor="middle" x="808" y="-87.5" font-family="Helvetica,sans-Serif" font-size="10.00">test/analysis/TestAntInput.cc</text>
</a>
</g>
<!-- Node2&#45;&gt;Node12 -->
<g id="edge24" class="edge"><title>Node2&#45;&gt;Node12</title>
<path fill="none" stroke="midnightblue" d="M552.013,-143.896C598.83,-134.544 667.331,-120.699 727,-108 738.131,-105.631 750.106,-103.01 761.344,-100.518"/>
<polygon fill="midnightblue" stroke="midnightblue" points="551.192,-140.491 542.07,-145.879 552.562,-147.355 551.192,-140.491"/>
</g>
<!-- Node13 -->
<g id="node26" class="node"><title>Node13</title>
<a xlink:href="_test_ant_reader_8cc.html" target="_top" xlink:title="test/analysis/TestAntReader.cc">
<polygon fill="white" stroke="black" points="897.5,-79.5 897.5,-100.5 1052.5,-100.5 1052.5,-79.5 897.5,-79.5"/>
<text text-anchor="middle" x="975" y="-87.5" font-family="Helvetica,sans-Serif" font-size="10.00">test/analysis/TestAntReader.cc</text>
</a>
</g>
<!-- Node2&#45;&gt;Node13 -->
<g id="edge26" class="edge"><title>Node2&#45;&gt;Node13</title>
<path fill="none" stroke="midnightblue" d="M552.533,-149.804C629.083,-142.412 769.838,-127.558 889,-108 901.795,-105.9 915.574,-103.21 928.274,-100.554"/>
<polygon fill="midnightblue" stroke="midnightblue" points="551.787,-146.359 542.167,-150.797 552.455,-153.328 551.787,-146.359"/>
</g>
<!-- Node14 -->
<g id="node28" class="node"><title>Node14</title>
<a xlink:href="_test_t_event_8cc.html" target="_top" xlink:title="test/tree/TestTEvent.cc">
<polygon fill="white" stroke="black" points="1070,-79.5 1070,-100.5 1190,-100.5 1190,-79.5 1070,-79.5"/>
<text text-anchor="middle" x="1130" y="-87.5" font-family="Helvetica,sans-Serif" font-size="10.00">test/tree/TestTEvent.cc</text>
</a>
</g>
<!-- Node2&#45;&gt;Node14 -->
<g id="edge28" class="edge"><title>Node2&#45;&gt;Node14</title>
<path fill="none" stroke="midnightblue" d="M552.189,-153.526C654.212,-150.141 876.441,-139.508 1061,-108 1071.98,-106.125 1083.77,-103.344 1094.44,-100.525"/>
<polygon fill="midnightblue" stroke="midnightblue" points="551.992,-150.03 542.109,-153.85 552.216,-157.027 551.992,-150.03"/>
</g>
<!-- Node6 -->
<g id="node11" class="node"><title>Node6</title>
<a xlink:href="_candidate_builder_8cc.html" target="_top" xlink:title="src/reconstruct/Candidate\lBuilder.cc">
<polygon fill="white" stroke="black" points="279.5,-1 279.5,-35 408.5,-35 408.5,-1 279.5,-1"/>
<text text-anchor="start" x="287.5" y="-22" font-family="Helvetica,sans-Serif" font-size="10.00">src/reconstruct/Candidate</text>
<text text-anchor="middle" x="344" y="-9" font-family="Helvetica,sans-Serif" font-size="10.00">Builder.cc</text>
</a>
</g>
<!-- Node5&#45;&gt;Node6 -->
<g id="edge10" class="edge"><title>Node5&#45;&gt;Node6</title>
<path fill="none" stroke="midnightblue" d="M344,-62.7193C344,-53.572 344,-43.6255 344,-35.4407"/>
<polygon fill="midnightblue" stroke="midnightblue" points="340.5,-62.937 344,-72.937 347.5,-62.937 340.5,-62.937"/>
</g>
<!-- Node5&#45;&gt;Node7 -->
<g id="edge12" class="edge"><title>Node5&#45;&gt;Node7</title>
<path fill="none" stroke="midnightblue" d="M297.437,-68.7812C268.511,-55.5999 232.564,-39.2192 209.454,-28.688"/>
<polygon fill="midnightblue" stroke="midnightblue" points="296.005,-71.9751 306.556,-72.937 298.908,-65.6053 296.005,-71.9751"/>
</g>
<!-- Node8 -->
<g id="node15" class="node"><title>Node8</title>
<a xlink:href="_test_candidate_builder_8cc.html" target="_top" xlink:title="test/reconstruct/TestCandidate\lBuilder.cc">
<polygon fill="white" stroke="black" points="426,-1 426,-35 578,-35 578,-1 426,-1"/>
<text text-anchor="start" x="434" y="-22" font-family="Helvetica,sans-Serif" font-size="10.00">test/reconstruct/TestCandidate</text>
<text text-anchor="middle" x="502" y="-9" font-family="Helvetica,sans-Serif" font-size="10.00">Builder.cc</text>
</a>
</g>
<!-- Node5&#45;&gt;Node8 -->
<g id="edge14" class="edge"><title>Node5&#45;&gt;Node8</title>
<path fill="none" stroke="midnightblue" d="M390.563,-68.7812C414.146,-58.0346 442.396,-45.1612 464.552,-35.0651"/>
<polygon fill="midnightblue" stroke="midnightblue" points="389.092,-65.6053 381.444,-72.937 391.995,-71.9751 389.092,-65.6053"/>
</g>
<!-- Node9 -->
<g id="node17" class="node"><title>Node9</title>
<a xlink:href="_test_reconstruct_8cc.html" target="_top" xlink:title="test/reconstruct/TestReconstruct.cc">
<polygon fill="white" stroke="black" points="596,-7.5 596,-28.5 770,-28.5 770,-7.5 596,-7.5"/>
<text text-anchor="middle" x="683" y="-15.5" font-family="Helvetica,sans-Serif" font-size="10.00">test/reconstruct/TestReconstruct.cc</text>
</a>
</g>
<!-- Node5&#45;&gt;Node9 -->
<g id="edge16" class="edge"><title>Node5&#45;&gt;Node9</title>
<path fill="none" stroke="midnightblue" d="M418.803,-71.6327C496.507,-54.315 576.152,-38.506 627.838,-28.5059"/>
<polygon fill="midnightblue" stroke="midnightblue" points="417.839,-68.2618 408.846,-73.8627 419.369,-75.0925 417.839,-68.2618"/>
</g>
</g>
</svg>
