<?xml version="1.0" encoding="UTF-8" standalone="no"?>
<!DOCTYPE svg PUBLIC "-//W3C//DTD SVG 1.1//EN"
 "http://www.w3.org/Graphics/SVG/1.1/DTD/svg11.dtd">
<!-- Generated by graphviz version 2.26.3 (20100126.1600)
 -->
<!-- Title: src/tree/TTagger.h Pages: 1 -->
<svg width="750pt" height="378pt"
 viewBox="0.00 0.00 750.31 378.00" xmlns="http://www.w3.org/2000/svg" xmlns:xlink="http://www.w3.org/1999/xlink">
<g id="graph1" class="graph" transform="scale(1 1) rotate(0) translate(4 374)">
<title>src/tree/TTagger.h</title>
<polygon fill="white" stroke="white" points="-4,5 -4,-374 747.31,-374 747.31,5 -4,5"/>
<!-- Node1 -->
<g id="node1" class="node"><title>Node1</title>
<polygon fill="#bfbfbf" stroke="black" points="539.81,-348.5 539.81,-369.5 636.81,-369.5 636.81,-348.5 539.81,-348.5"/>
<text text-anchor="middle" x="588.31" y="-356.5" font-family="Helvetica,sans-Serif" font-size="10.00">src/tree/TTagger.h</text>
</g>
<!-- Node2 -->
<g id="node3" class="node"><title>Node2</title>
<a xlink:href="_t_data_record_8h.html" target="_top" xlink:title="TDataRecord.h">
<polygon fill="white" stroke="black" points="424.81,-232.5 424.81,-253.5 507.81,-253.5 507.81,-232.5 424.81,-232.5"/>
<text text-anchor="middle" x="466.31" y="-240.5" font-family="Helvetica,sans-Serif" font-size="10.00">TDataRecord.h</text>
</a>
</g>
<!-- Node1&#45;&gt;Node2 -->
<g id="edge2" class="edge"><title>Node1&#45;&gt;Node2</title>
<path fill="none" stroke="midnightblue" d="M577.051,-348.295C555.989,-328.268 510.445,-284.964 484.809,-260.589"/>
<polygon fill="midnightblue" stroke="midnightblue" points="487.201,-258.033 477.542,-253.679 482.377,-263.106 487.201,-258.033"/>
</g>
<!-- Node20 -->
<g id="node43" class="node"><title>Node20</title>
<a xlink:href="_t_tagger_hit_8h.html" target="_top" xlink:title="TTaggerHit.h">
<polygon fill="white" stroke="black" points="614.31,-290.5 614.31,-311.5 688.31,-311.5 688.31,-290.5 614.31,-290.5"/>
<text text-anchor="middle" x="651.31" y="-298.5" font-family="Helvetica,sans-Serif" font-size="10.00">TTaggerHit.h</text>
</a>
</g>
<!-- Node1&#45;&gt;Node20 -->
<g id="edge46" class="edge"><title>Node1&#45;&gt;Node20</title>
<path fill="none" stroke="midnightblue" d="M599.865,-348.362C608.924,-340.023 621.72,-328.242 632.284,-318.516"/>
<polygon fill="midnightblue" stroke="midnightblue" points="634.842,-320.919 639.828,-311.571 630.101,-315.769 634.842,-320.919"/>
</g>
<!-- Node3 -->
<g id="node5" class="node"><title>Node3</title>
<a xlink:href="_t_i_d_8h.html" target="_top" xlink:title="TID.h">
<polygon fill="white" stroke="black" points="352.81,-174.5 352.81,-195.5 393.81,-195.5 393.81,-174.5 352.81,-174.5"/>
<text text-anchor="middle" x="373.31" y="-182.5" font-family="Helvetica,sans-Serif" font-size="10.00">TID.h</text>
</a>
</g>
<!-- Node2&#45;&gt;Node3 -->
<g id="edge4" class="edge"><title>Node2&#45;&gt;Node3</title>
<path fill="none" stroke="midnightblue" d="M449.253,-232.362C435.225,-223.614 415.126,-211.079 399.128,-201.101"/>
<polygon fill="midnightblue" stroke="midnightblue" points="400.597,-197.893 390.26,-195.571 396.893,-203.832 400.597,-197.893"/>
</g>
<!-- Node4 -->
<g id="node7" class="node"><title>Node4</title>
<polygon fill="white" stroke="#bfbfbf" points="14.3103,-116.5 14.3103,-137.5 70.3103,-137.5 70.3103,-116.5 14.3103,-116.5"/>
<text text-anchor="middle" x="42.3103" y="-124.5" font-family="Helvetica,sans-Serif" font-size="10.00">Rtypes.h</text>
</g>
<!-- Node2&#45;&gt;Node4 -->
<g id="edge40" class="edge"><title>Node2&#45;&gt;Node4</title>
<path fill="none" stroke="midnightblue" d="M427.559,-232.398C346.592,-210.247 160.361,-159.297 80.1716,-137.358"/>
<polygon fill="midnightblue" stroke="midnightblue" points="81.0502,-133.97 70.481,-134.707 79.2029,-140.722 81.0502,-133.97"/>
</g>
<!-- Node14 -->
<g id="node27" class="node"><title>Node14</title>
<polygon fill="white" stroke="#bfbfbf" points="77.8103,-58.5 77.8103,-79.5 118.81,-79.5 118.81,-58.5 77.8103,-58.5"/>
<text text-anchor="middle" x="98.3103" y="-66.5" font-family="Helvetica,sans-Serif" font-size="10.00">ctime</text>
</g>
<!-- Node2&#45;&gt;Node14 -->
<g id="edge44" class="edge"><title>Node2&#45;&gt;Node14</title>
<path fill="none" stroke="midnightblue" d="M424.77,-240.137C321.199,-232.03 56.1903,-205.009 5.31029,-138 -15.5482,-110.53 33.3203,-88.8889 67.8256,-77.6019"/>
<polygon fill="midnightblue" stroke="midnightblue" points="69.0416,-80.889 77.5432,-74.5665 66.9544,-74.2073 69.0416,-80.889"/>
</g>
<!-- Node19 -->
<g id="node37" class="node"><title>Node19</title>
<polygon fill="white" stroke="#bfbfbf" points="626.31,-116.5 626.31,-137.5 676.31,-137.5 676.31,-116.5 626.31,-116.5"/>
<text text-anchor="middle" x="651.31" y="-124.5" font-family="Helvetica,sans-Serif" font-size="10.00">iomanip</text>
</g>
<!-- Node2&#45;&gt;Node19 -->
<g id="edge42" class="edge"><title>Node2&#45;&gt;Node19</title>
<path fill="none" stroke="midnightblue" d="M483.383,-232.295C516.093,-211.785 587.741,-166.859 626.02,-142.857"/>
<polygon fill="midnightblue" stroke="midnightblue" points="627.933,-145.789 634.546,-137.512 624.214,-139.859 627.933,-145.789"/>
</g>
<!-- Node3&#45;&gt;Node4 -->
<g id="edge6" class="edge"><title>Node3&#45;&gt;Node4</title>
<path fill="none" stroke="midnightblue" d="M352.509,-182.308C304.818,-175.985 184.019,-159.115 84.3103,-138 83.0659,-137.736 81.8031,-137.46 80.5297,-137.173"/>
<polygon fill="midnightblue" stroke="midnightblue" points="81.2293,-133.742 70.6898,-134.823 79.603,-140.55 81.2293,-133.742"/>
</g>
<!-- Node5 -->
<g id="node9" class="node"><title>Node5</title>
<a xlink:href="printable_8h.html" target="_top" xlink:title="base/printable.h">
<polygon fill="white" stroke="black" points="386.31,-116.5 386.31,-137.5 472.31,-137.5 472.31,-116.5 386.31,-116.5"/>
<text text-anchor="middle" x="429.31" y="-124.5" font-family="Helvetica,sans-Serif" font-size="10.00">base/printable.h</text>
</a>
</g>
<!-- Node3&#45;&gt;Node5 -->
<g id="edge8" class="edge"><title>Node3&#45;&gt;Node5</title>
<path fill="none" stroke="midnightblue" d="M383.582,-174.362C391.554,-166.104 402.785,-154.472 412.121,-144.803"/>
<polygon fill="midnightblue" stroke="midnightblue" points="414.676,-147.196 419.104,-137.571 409.64,-142.334 414.676,-147.196"/>
</g>
<!-- Node8 -->
<g id="node15" class="node"><title>Node8</title>
<a xlink:href="time_8h.html" target="_top" xlink:title="base/std_ext/time.h">
<polygon fill="white" stroke="black" points="265.81,-116.5 265.81,-137.5 368.81,-137.5 368.81,-116.5 265.81,-116.5"/>
<text text-anchor="middle" x="317.31" y="-124.5" font-family="Helvetica,sans-Serif" font-size="10.00">base/std_ext/time.h</text>
</a>
</g>
<!-- Node3&#45;&gt;Node8 -->
<g id="edge14" class="edge"><title>Node3&#45;&gt;Node8</title>
<path fill="none" stroke="midnightblue" d="M363.039,-174.362C355.066,-166.104 343.835,-154.472 334.499,-144.803"/>
<polygon fill="midnightblue" stroke="midnightblue" points="336.98,-142.334 327.516,-137.571 331.944,-147.196 336.98,-142.334"/>
</g>
<!-- Node3&#45;&gt;Node14 -->
<g id="edge38" class="edge"><title>Node3&#45;&gt;Node14</title>
<path fill="none" stroke="midnightblue" d="M352.554,-183.966C297.888,-180.826 151.79,-169.599 117.31,-138 104.042,-125.841 99.706,-105.352 98.4416,-89.8521"/>
<polygon fill="midnightblue" stroke="midnightblue" points="101.928,-89.4696 97.9801,-79.6378 94.9351,-89.7856 101.928,-89.4696"/>
</g>
<!-- Node15 -->
<g id="node29" class="node"><title>Node15</title>
<polygon fill="white" stroke="#bfbfbf" points="490.31,-116.5 490.31,-137.5 552.31,-137.5 552.31,-116.5 490.31,-116.5"/>
<text text-anchor="middle" x="521.31" y="-124.5" font-family="Helvetica,sans-Serif" font-size="10.00">type_traits</text>
</g>
<!-- Node3&#45;&gt;Node15 -->
<g id="edge28" class="edge"><title>Node3&#45;&gt;Node15</title>
<path fill="none" stroke="midnightblue" d="M393.889,-176.935C417.335,-167.747 456.102,-152.555 484.729,-141.336"/>
<polygon fill="midnightblue" stroke="midnightblue" points="486.357,-144.457 494.391,-137.55 483.803,-137.94 486.357,-144.457"/>
</g>
<!-- Node16 -->
<g id="node31" class="node"><title>Node16</title>
<polygon fill="white" stroke="#bfbfbf" points="570.31,-116.5 570.31,-137.5 608.31,-137.5 608.31,-116.5 570.31,-116.5"/>
<text text-anchor="middle" x="589.31" y="-124.5" font-family="Helvetica,sans-Serif" font-size="10.00">tuple</text>
</g>
<!-- Node3&#45;&gt;Node16 -->
<g id="edge30" class="edge"><title>Node3&#45;&gt;Node16</title>
<path fill="none" stroke="midnightblue" d="M393.862,-180.776C427.062,-173.758 494.657,-158.675 560.458,-137.997"/>
<polygon fill="midnightblue" stroke="midnightblue" points="561.685,-141.279 570.149,-134.905 559.558,-134.61 561.685,-141.279"/>
</g>
<!-- Node17 -->
<g id="node33" class="node"><title>Node17</title>
<polygon fill="white" stroke="#bfbfbf" points="126.31,-116.5 126.31,-137.5 172.31,-137.5 172.31,-116.5 126.31,-116.5"/>
<text text-anchor="middle" x="149.31" y="-124.5" font-family="Helvetica,sans-Serif" font-size="10.00">cstdint</text>
</g>
<!-- Node3&#45;&gt;Node17 -->
<g id="edge32" class="edge"><title>Node3&#45;&gt;Node17</title>
<path fill="none" stroke="midnightblue" d="M352.688,-180.599C319.004,-173.274 249.929,-157.681 182.571,-138.2"/>
<polygon fill="midnightblue" stroke="midnightblue" points="183.231,-134.746 172.65,-135.298 181.265,-141.464 183.231,-134.746"/>
</g>
<!-- Node18 -->
<g id="node35" class="node"><title>Node18</title>
<polygon fill="white" stroke="#bfbfbf" points="189.81,-116.5 189.81,-137.5 248.81,-137.5 248.81,-116.5 189.81,-116.5"/>
<text text-anchor="middle" x="219.31" y="-124.5" font-family="Helvetica,sans-Serif" font-size="10.00">stdexcept</text>
</g>
<!-- Node3&#45;&gt;Node18 -->
<g id="edge34" class="edge"><title>Node3&#45;&gt;Node18</title>
<path fill="none" stroke="midnightblue" d="M352.541,-177.178C328.126,-167.983 287.126,-152.541 257.044,-141.211"/>
<polygon fill="midnightblue" stroke="midnightblue" points="257.892,-137.791 247.3,-137.542 255.425,-144.342 257.892,-137.791"/>
</g>
<!-- Node3&#45;&gt;Node19 -->
<g id="edge36" class="edge"><title>Node3&#45;&gt;Node19</title>
<path fill="none" stroke="midnightblue" d="M394.066,-181.884C434.873,-175.571 528.531,-160.164 616.315,-138.034"/>
<polygon fill="midnightblue" stroke="midnightblue" points="617.339,-141.385 626.16,-135.517 615.605,-134.603 617.339,-141.385"/>
</g>
<!-- Node6 -->
<g id="node11" class="node"><title>Node6</title>
<polygon fill="white" stroke="#bfbfbf" points="572.31,-58.5 572.31,-79.5 616.31,-79.5 616.31,-58.5 572.31,-58.5"/>
<text text-anchor="middle" x="594.31" y="-66.5" font-family="Helvetica,sans-Serif" font-size="10.00">vector</text>
</g>
<!-- Node5&#45;&gt;Node6 -->
<g id="edge10" class="edge"><title>Node5&#45;&gt;Node6</title>
<path fill="none" stroke="midnightblue" d="M459.191,-116.497C488.477,-106.202 532.946,-90.5706 562.785,-80.0817"/>
<polygon fill="midnightblue" stroke="midnightblue" points="564.027,-83.3551 572.3,-76.7369 561.705,-76.7512 564.027,-83.3551"/>
</g>
<!-- Node7 -->
<g id="node13" class="node"><title>Node7</title>
<polygon fill="white" stroke="#bfbfbf" points="428.31,-58.5 428.31,-79.5 480.31,-79.5 480.31,-58.5 428.31,-58.5"/>
<text text-anchor="middle" x="454.31" y="-66.5" font-family="Helvetica,sans-Serif" font-size="10.00">ostream</text>
</g>
<!-- Node5&#45;&gt;Node7 -->
<g id="edge12" class="edge"><title>Node5&#45;&gt;Node7</title>
<path fill="none" stroke="midnightblue" d="M433.896,-116.362C437.208,-108.677 441.781,-98.0686 445.759,-88.8399"/>
<polygon fill="midnightblue" stroke="midnightblue" points="449.01,-90.1393 449.754,-79.5707 442.581,-87.3685 449.01,-90.1393"/>
</g>
<!-- Node9 -->
<g id="node17" class="node"><title>Node9</title>
<a xlink:href="string_8h.html" target="_top" xlink:title="base/std_ext/string.h">
<polygon fill="white" stroke="black" points="238.31,-58.5 238.31,-79.5 346.31,-79.5 346.31,-58.5 238.31,-58.5"/>
<text text-anchor="middle" x="292.31" y="-66.5" font-family="Helvetica,sans-Serif" font-size="10.00">base/std_ext/string.h</text>
</a>
</g>
<!-- Node8&#45;&gt;Node9 -->
<g id="edge16" class="edge"><title>Node8&#45;&gt;Node9</title>
<path fill="none" stroke="midnightblue" d="M312.725,-116.362C309.412,-108.677 304.84,-98.0686 300.862,-88.8399"/>
<polygon fill="midnightblue" stroke="midnightblue" points="304.039,-87.3685 296.867,-79.5707 297.611,-90.1393 304.039,-87.3685"/>
</g>
<!-- Node13 -->
<g id="node25" class="node"><title>Node13</title>
<polygon fill="white" stroke="#bfbfbf" points="364.31,-58.5 364.31,-79.5 410.31,-79.5 410.31,-58.5 364.31,-58.5"/>
<text text-anchor="middle" x="387.31" y="-66.5" font-family="Helvetica,sans-Serif" font-size="10.00">cstring</text>
</g>
<!-- Node8&#45;&gt;Node13 -->
<g id="edge24" class="edge"><title>Node8&#45;&gt;Node13</title>
<path fill="none" stroke="midnightblue" d="M330.149,-116.362C340.313,-107.941 354.711,-96.0105 366.515,-86.2308"/>
<polygon fill="midnightblue" stroke="midnightblue" points="369.085,-88.6459 374.553,-79.5707 364.619,-83.2558 369.085,-88.6459"/>
</g>
<!-- Node8&#45;&gt;Node14 -->
<g id="edge26" class="edge"><title>Node8&#45;&gt;Node14</title>
<path fill="none" stroke="midnightblue" d="M277.651,-116.497C234.767,-105.139 167.355,-87.2859 128.551,-77.0089"/>
<polygon fill="midnightblue" stroke="midnightblue" points="129.434,-73.6221 118.871,-74.4453 127.642,-80.3889 129.434,-73.6221"/>
</g>
<!-- Node10 -->
<g id="node19" class="node"><title>Node10</title>
<polygon fill="white" stroke="#bfbfbf" points="304.81,-0.5 304.81,-21.5 345.81,-21.5 345.81,-0.5 304.81,-0.5"/>
<text text-anchor="middle" x="325.31" y="-8.5" font-family="Helvetica,sans-Serif" font-size="10.00">string</text>
</g>
<!-- Node9&#45;&gt;Node10 -->
<g id="edge18" class="edge"><title>Node9&#45;&gt;Node10</title>
<path fill="none" stroke="midnightblue" d="M298.363,-58.3619C302.782,-50.5949 308.9,-39.8426 314.189,-30.5458"/>
<polygon fill="midnightblue" stroke="midnightblue" points="317.393,-31.9932 319.296,-21.5707 311.309,-28.5315 317.393,-31.9932"/>
</g>
<!-- Node11 -->
<g id="node21" class="node"><title>Node11</title>
<polygon fill="white" stroke="#bfbfbf" points="539.31,-0.5 539.31,-21.5 591.31,-21.5 591.31,-0.5 539.31,-0.5"/>
<text text-anchor="middle" x="565.31" y="-8.5" font-family="Helvetica,sans-Serif" font-size="10.00">sstream</text>
</g>
<!-- Node9&#45;&gt;Node11 -->
<g id="edge20" class="edge"><title>Node9&#45;&gt;Node11</title>
<path fill="none" stroke="midnightblue" d="M341.749,-58.4966C395.716,-47.0309 480.846,-28.9447 528.988,-18.7169"/>
<polygon fill="midnightblue" stroke="midnightblue" points="529.906,-22.0999 538.961,-16.5981 528.451,-15.2528 529.906,-22.0999"/>
</g>
<!-- Node12 -->
<g id="node23" class="node"><title>Node12</title>
<polygon fill="white" stroke="#bfbfbf" points="231.31,-0.5 231.31,-21.5 287.31,-21.5 287.31,-0.5 231.31,-0.5"/>
<text text-anchor="middle" x="259.31" y="-8.5" font-family="Helvetica,sans-Serif" font-size="10.00">algorithm</text>
</g>
<!-- Node9&#45;&gt;Node12 -->
<g id="edge22" class="edge"><title>Node9&#45;&gt;Node12</title>
<path fill="none" stroke="midnightblue" d="M286.258,-58.3619C281.838,-50.5949 275.721,-39.8426 270.431,-30.5458"/>
<polygon fill="midnightblue" stroke="midnightblue" points="273.312,-28.5315 265.325,-21.5707 267.228,-31.9932 273.312,-28.5315"/>
</g>
<!-- Node20&#45;&gt;Node2 -->
<g id="edge48" class="edge"><title>Node20&#45;&gt;Node2</title>
<path fill="none" stroke="midnightblue" d="M617.808,-290.497C587.518,-281 542.741,-266.962 509.717,-256.609"/>
<polygon fill="midnightblue" stroke="midnightblue" points="510.464,-253.175 499.875,-253.523 508.37,-259.854 510.464,-253.175"/>
</g>
<!-- Node20&#45;&gt;Node6 -->
<g id="edge50" class="edge"><title>Node20&#45;&gt;Node6</title>
<path fill="none" stroke="midnightblue" d="M657.917,-290.477C675.684,-260.71 720.811,-174.292 685.31,-116 672.513,-94.9879 646.968,-82.9595 626.192,-76.3419"/>
<polygon fill="midnightblue" stroke="midnightblue" points="627.032,-72.9413 616.453,-73.5122 625.079,-79.6634 627.032,-72.9413"/>
</g>
<!-- Node20&#45;&gt;Node11 -->
<g id="edge54" class="edge"><title>Node20&#45;&gt;Node11</title>
<path fill="none" stroke="midnightblue" d="M668.001,-290.403C694.272,-272.272 742.31,-232.609 742.31,-185 742.31,-185 742.31,-185 742.31,-127 742.31,-60.1784 652.972,-29.7539 601.235,-17.7373"/>
<polygon fill="midnightblue" stroke="midnightblue" points="601.946,-14.3101 591.427,-15.5741 600.439,-21.1458 601.946,-14.3101"/>
</g>
<!-- Node20&#45;&gt;Node19 -->
<g id="edge52" class="edge"><title>Node20&#45;&gt;Node19</title>
<path fill="none" stroke="midnightblue" d="M651.31,-290.377C651.31,-262.293 651.31,-185.673 651.31,-148.203"/>
<polygon fill="midnightblue" stroke="midnightblue" points="654.81,-147.928 651.31,-137.928 647.81,-147.928 654.81,-147.928"/>
</g>
</g>
</svg>
