<?xml version="1.0" encoding="UTF-8" standalone="no"?>
<!DOCTYPE svg PUBLIC "-//W3C//DTD SVG 1.1//EN"
 "http://www.w3.org/Graphics/SVG/1.1/DTD/svg11.dtd">
<!-- Generated by graphviz version 2.26.3 (20100126.1600)
 -->
<!-- Title: src/tree/TTaggerHit.h Pages: 1 -->
<svg width="1198pt" height="290pt"
 viewBox="0.00 0.00 1198.00 290.00" xmlns="http://www.w3.org/2000/svg" xmlns:xlink="http://www.w3.org/1999/xlink">
<g id="graph1" class="graph" transform="scale(1 1) rotate(0) translate(4 286)">
<title>src/tree/TTaggerHit.h</title>
<polygon fill="white" stroke="white" points="-4,5 -4,-286 1195,-286 1195,5 -4,5"/>
<!-- Node1 -->
<g id="node1" class="node"><title>Node1</title>
<polygon fill="#bfbfbf" stroke="black" points="144,-260.5 144,-281.5 254,-281.5 254,-260.5 144,-260.5"/>
<text text-anchor="middle" x="199" y="-268.5" font-family="Helvetica,sans-Serif" font-size="10.00">src/tree/TTaggerHit.h</text>
</g>
<!-- Node2 -->
<g id="node3" class="node"><title>Node2</title>
<a xlink:href="_convert_8cc.html" target="_top" xlink:title="src/analysis/input\l/ant/detail/Convert.cc">
<polygon fill="white" stroke="black" points="0,-73 0,-107 110,-107 110,-73 0,-73"/>
<text text-anchor="start" x="8" y="-94" font-family="Helvetica,sans-Serif" font-size="10.00">src/analysis/input</text>
<text text-anchor="middle" x="55" y="-81" font-family="Helvetica,sans-Serif" font-size="10.00">/ant/detail/Convert.cc</text>
</a>
</g>
<!-- Node1&#45;&gt;Node2 -->
<g id="edge2" class="edge"><title>Node1&#45;&gt;Node2</title>
<path fill="none" stroke="midnightblue" d="M184.256,-252.467C156.25,-217.265 95.7395,-141.207 68.6252,-107.126"/>
<polygon fill="midnightblue" stroke="midnightblue" points="181.671,-254.84 190.636,-260.486 187.149,-250.482 181.671,-254.84"/>
</g>
<!-- Node3 -->
<g id="node5" class="node"><title>Node3</title>
<a xlink:href="_t_tagger_8h.html" target="_top" xlink:title="src/tree/TTagger.h">
<polygon fill="white" stroke="black" points="241.5,-202.5 241.5,-223.5 338.5,-223.5 338.5,-202.5 241.5,-202.5"/>
<text text-anchor="middle" x="290" y="-210.5" font-family="Helvetica,sans-Serif" font-size="10.00">src/tree/TTagger.h</text>
</a>
</g>
<!-- Node1&#45;&gt;Node3 -->
<g id="edge4" class="edge"><title>Node1&#45;&gt;Node3</title>
<path fill="none" stroke="midnightblue" d="M224.384,-254.821C240.058,-244.831 259.72,-232.299 273.415,-223.571"/>
<polygon fill="midnightblue" stroke="midnightblue" points="222.242,-252.036 215.691,-260.362 226.005,-257.939 222.242,-252.036"/>
</g>
<!-- Node4 -->
<g id="node7" class="node"><title>Node4</title>
<a xlink:href="_t_event_8h.html" target="_top" xlink:title="src/tree/TEvent.h">
<polygon fill="white" stroke="black" points="374,-144.5 374,-165.5 466,-165.5 466,-144.5 374,-144.5"/>
<text text-anchor="middle" x="420" y="-152.5" font-family="Helvetica,sans-Serif" font-size="10.00">src/tree/TEvent.h</text>
</a>
</g>
<!-- Node3&#45;&gt;Node4 -->
<g id="edge6" class="edge"><title>Node3&#45;&gt;Node4</title>
<path fill="none" stroke="midnightblue" d="M322.852,-198.343C345.698,-188.15 375.626,-174.798 396.194,-165.621"/>
<polygon fill="midnightblue" stroke="midnightblue" points="321.248,-195.226 313.542,-202.497 324.1,-201.618 321.248,-195.226"/>
</g>
<!-- Node4&#45;&gt;Node2 -->
<g id="edge10" class="edge"><title>Node4&#45;&gt;Node2</title>
<path fill="none" stroke="midnightblue" d="M363.642,-148.242C302.885,-140.482 203.513,-126.414 119,-108 116.068,-107.361 113.071,-106.666 110.053,-105.934"/>
<polygon fill="midnightblue" stroke="midnightblue" points="363.429,-151.743 373.789,-149.525 364.307,-144.798 363.429,-151.743"/>
</g>
<!-- Node5 -->
<g id="node9" class="node"><title>Node5</title>
<a xlink:href="_ant_reader_8cc.html" target="_top" xlink:title="src/analysis/input\l/ant/AntReader.cc">
<polygon fill="white" stroke="black" points="128,-73 128,-107 224,-107 224,-73 128,-73"/>
<text text-anchor="start" x="136" y="-94" font-family="Helvetica,sans-Serif" font-size="10.00">src/analysis/input</text>
<text text-anchor="middle" x="176" y="-81" font-family="Helvetica,sans-Serif" font-size="10.00">/ant/AntReader.cc</text>
</a>
</g>
<!-- Node4&#45;&gt;Node5 -->
<g id="edge8" class="edge"><title>Node4&#45;&gt;Node5</title>
<path fill="none" stroke="midnightblue" d="M367.705,-141.935C331.27,-132.725 281.583,-119.951 238,-108 233.46,-106.755 228.741,-105.434 224.024,-104.096"/>
<polygon fill="midnightblue" stroke="midnightblue" points="367.061,-145.383 377.614,-144.435 368.774,-138.595 367.061,-145.383"/>
</g>
<!-- Node6 -->
<g id="node12" class="node"><title>Node6</title>
<a xlink:href="_candidate_builder_8h.html" target="_top" xlink:title="src/reconstruct/Candidate\lBuilder.h">
<polygon fill="white" stroke="black" points="279.5,-73 279.5,-107 408.5,-107 408.5,-73 279.5,-73"/>
<text text-anchor="start" x="287.5" y="-94" font-family="Helvetica,sans-Serif" font-size="10.00">src/reconstruct/Candidate</text>
<text text-anchor="middle" x="344" y="-81" font-family="Helvetica,sans-Serif" font-size="10.00">Builder.h</text>
</a>
</g>
<!-- Node4&#45;&gt;Node6 -->
<g id="edge12" class="edge"><title>Node4&#45;&gt;Node6</title>
<path fill="none" stroke="midnightblue" d="M399.591,-137.545C388.555,-128.106 374.979,-116.495 364.005,-107.11"/>
<polygon fill="midnightblue" stroke="midnightblue" points="397.576,-140.427 407.45,-144.267 402.125,-135.107 397.576,-140.427"/>
</g>
<!-- Node8 -->
<g id="node16" class="node"><title>Node8</title>
<a xlink:href="_reconstruct_8cc.html" target="_top" xlink:title="src/reconstruct/Reconstruct.cc">
<polygon fill="white" stroke="black" points="110,-7.5 110,-28.5 262,-28.5 262,-7.5 110,-7.5"/>
<text text-anchor="middle" x="186" y="-15.5" font-family="Helvetica,sans-Serif" font-size="10.00">src/reconstruct/Reconstruct.cc</text>
</a>
</g>
<!-- Node4&#45;&gt;Node8 -->
<g id="edge22" class="edge"><title>Node4&#45;&gt;Node8</title>
<path fill="none" stroke="midnightblue" d="M363.709,-144.389C334.513,-137.173 299.168,-125.651 271,-108 261.94,-102.323 215.603,-51.0881 195.418,-28.5542"/>
<polygon fill="midnightblue" stroke="midnightblue" points="363.22,-147.87 373.757,-146.765 364.831,-141.058 363.22,-147.87"/>
</g>
<!-- Node11 -->
<g id="node23" class="node"><title>Node11</title>
<a xlink:href="_unpacker_reader_8cc.html" target="_top" xlink:title="src/tree/UnpackerReader.cc">
<polygon fill="white" stroke="black" points="426,-79.5 426,-100.5 566,-100.5 566,-79.5 426,-79.5"/>
<text text-anchor="middle" x="496" y="-87.5" font-family="Helvetica,sans-Serif" font-size="10.00">src/tree/UnpackerReader.cc</text>
</a>
</g>
<!-- Node4&#45;&gt;Node11 -->
<g id="edge24" class="edge"><title>Node4&#45;&gt;Node11</title>
<path fill="none" stroke="midnightblue" d="M440.15,-137.767C453.992,-125.928 471.923,-110.592 483.684,-100.534"/>
<polygon fill="midnightblue" stroke="midnightblue" points="437.875,-135.107 432.55,-144.267 442.424,-140.427 437.875,-135.107"/>
</g>
<!-- Node12 -->
<g id="node25" class="node"><title>Node12</title>
<a xlink:href="_unpacker_writer_8cc.html" target="_top" xlink:title="src/tree/UnpackerWriter.cc">
<polygon fill="white" stroke="black" points="584,-79.5 584,-100.5 718,-100.5 718,-79.5 584,-79.5"/>
<text text-anchor="middle" x="651" y="-87.5" font-family="Helvetica,sans-Serif" font-size="10.00">src/tree/UnpackerWriter.cc</text>
</a>
</g>
<!-- Node4&#45;&gt;Node12 -->
<g id="edge26" class="edge"><title>Node4&#45;&gt;Node12</title>
<path fill="none" stroke="midnightblue" d="M467.106,-141.745C510.417,-129.558 573.782,-111.728 613.683,-100.501"/>
<polygon fill="midnightblue" stroke="midnightblue" points="466.049,-138.406 457.371,-144.484 467.945,-145.145 466.049,-138.406"/>
</g>
<!-- Node13 -->
<g id="node27" class="node"><title>Node13</title>
<a xlink:href="_test_ant_input_8cc.html" target="_top" xlink:title="test/analysis/TestAntInput.cc">
<polygon fill="white" stroke="black" points="735.5,-79.5 735.5,-100.5 880.5,-100.5 880.5,-79.5 735.5,-79.5"/>
<text text-anchor="middle" x="808" y="-87.5" font-family="Helvetica,sans-Serif" font-size="10.00">test/analysis/TestAntInput.cc</text>
</a>
</g>
<!-- Node4&#45;&gt;Node13 -->
<g id="edge28" class="edge"><title>Node4&#45;&gt;Node13</title>
<path fill="none" stroke="midnightblue" d="M476.112,-147.556C537.81,-139.104 639.774,-124.35 727,-108 738.752,-105.797 751.398,-103.131 763.123,-100.533"/>
<polygon fill="midnightblue" stroke="midnightblue" points="475.628,-144.089 466.192,-148.908 476.573,-151.025 475.628,-144.089"/>
</g>
<!-- Node14 -->
<g id="node29" class="node"><title>Node14</title>
<a xlink:href="_test_ant_reader_8cc.html" target="_top" xlink:title="test/analysis/TestAntReader.cc">
<polygon fill="white" stroke="black" points="897.5,-79.5 897.5,-100.5 1052.5,-100.5 1052.5,-79.5 897.5,-79.5"/>
<text text-anchor="middle" x="975" y="-87.5" font-family="Helvetica,sans-Serif" font-size="10.00">test/analysis/TestAntReader.cc</text>
</a>
</g>
<!-- Node4&#45;&gt;Node14 -->
<g id="edge30" class="edge"><title>Node4&#45;&gt;Node14</title>
<path fill="none" stroke="midnightblue" d="M476.202,-151.31C564.463,-145.08 740.802,-130.868 889,-108 902.116,-105.976 916.249,-103.249 929.194,-100.53"/>
<polygon fill="midnightblue" stroke="midnightblue" points="475.871,-147.825 466.14,-152.013 476.359,-154.808 475.871,-147.825"/>
</g>
<!-- Node15 -->
<g id="node31" class="node"><title>Node15</title>
<a xlink:href="_test_t_event_8cc.html" target="_top" xlink:title="test/tree/TestTEvent.cc">
<polygon fill="white" stroke="black" points="1070,-79.5 1070,-100.5 1190,-100.5 1190,-79.5 1070,-79.5"/>
<text text-anchor="middle" x="1130" y="-87.5" font-family="Helvetica,sans-Serif" font-size="10.00">test/tree/TestTEvent.cc</text>
</a>
</g>
<!-- Node4&#45;&gt;Node15 -->
<g id="edge32" class="edge"><title>Node4&#45;&gt;Node15</title>
<path fill="none" stroke="midnightblue" d="M476.257,-154.305C588.299,-152.168 846.966,-143.461 1061,-108 1071.99,-106.179 1083.78,-103.413 1094.45,-100.593"/>
<polygon fill="midnightblue" stroke="midnightblue" points="476.133,-150.807 466.198,-154.487 476.26,-157.806 476.133,-150.807"/>
</g>
<!-- Node7 -->
<g id="node14" class="node"><title>Node7</title>
<a xlink:href="_candidate_builder_8cc.html" target="_top" xlink:title="src/reconstruct/Candidate\lBuilder.cc">
<polygon fill="white" stroke="black" points="279.5,-1 279.5,-35 408.5,-35 408.5,-1 279.5,-1"/>
<text text-anchor="start" x="287.5" y="-22" font-family="Helvetica,sans-Serif" font-size="10.00">src/reconstruct/Candidate</text>
<text text-anchor="middle" x="344" y="-9" font-family="Helvetica,sans-Serif" font-size="10.00">Builder.cc</text>
</a>
</g>
<!-- Node6&#45;&gt;Node7 -->
<g id="edge14" class="edge"><title>Node6&#45;&gt;Node7</title>
<path fill="none" stroke="midnightblue" d="M344,-62.7193C344,-53.572 344,-43.6255 344,-35.4407"/>
<polygon fill="midnightblue" stroke="midnightblue" points="340.5,-62.937 344,-72.937 347.5,-62.937 340.5,-62.937"/>
</g>
<!-- Node6&#45;&gt;Node8 -->
<g id="edge16" class="edge"><title>Node6&#45;&gt;Node8</title>
<path fill="none" stroke="midnightblue" d="M297.437,-68.7812C268.511,-55.5999 232.564,-39.2192 209.454,-28.688"/>
<polygon fill="midnightblue" stroke="midnightblue" points="296.005,-71.9751 306.556,-72.937 298.908,-65.6053 296.005,-71.9751"/>
</g>
<!-- Node9 -->
<g id="node18" class="node"><title>Node9</title>
<a xlink:href="_test_candidate_builder_8cc.html" target="_top" xlink:title="test/reconstruct/TestCandidate\lBuilder.cc">
<polygon fill="white" stroke="black" points="426,-1 426,-35 578,-35 578,-1 426,-1"/>
<text text-anchor="start" x="434" y="-22" font-family="Helvetica,sans-Serif" font-size="10.00">test/reconstruct/TestCandidate</text>
<text text-anchor="middle" x="502" y="-9" font-family="Helvetica,sans-Serif" font-size="10.00">Builder.cc</text>
</a>
</g>
<!-- Node6&#45;&gt;Node9 -->
<g id="edge18" class="edge"><title>Node6&#45;&gt;Node9</title>
<path fill="none" stroke="midnightblue" d="M390.563,-68.7812C414.146,-58.0346 442.396,-45.1612 464.552,-35.0651"/>
<polygon fill="midnightblue" stroke="midnightblue" points="389.092,-65.6053 381.444,-72.937 391.995,-71.9751 389.092,-65.6053"/>
</g>
<!-- Node10 -->
<g id="node20" class="node"><title>Node10</title>
<a xlink:href="_test_reconstruct_8cc.html" target="_top" xlink:title="test/reconstruct/TestReconstruct.cc">
<polygon fill="white" stroke="black" points="596,-7.5 596,-28.5 770,-28.5 770,-7.5 596,-7.5"/>
<text text-anchor="middle" x="683" y="-15.5" font-family="Helvetica,sans-Serif" font-size="10.00">test/reconstruct/TestReconstruct.cc</text>
</a>
</g>
<!-- Node6&#45;&gt;Node10 -->
<g id="edge20" class="edge"><title>Node6&#45;&gt;Node10</title>
<path fill="none" stroke="midnightblue" d="M418.803,-71.6327C496.507,-54.315 576.152,-38.506 627.838,-28.5059"/>
<polygon fill="midnightblue" stroke="midnightblue" points="417.839,-68.2618 408.846,-73.8627 419.369,-75.0925 417.839,-68.2618"/>
</g>
</g>
</svg>
