<?xml version="1.0" encoding="UTF-8" standalone="no"?>
<!DOCTYPE svg PUBLIC "-//W3C//DTD SVG 1.1//EN"
 "http://www.w3.org/Graphics/SVG/1.1/DTD/svg11.dtd">
<!-- Generated by graphviz version 2.26.3 (20100126.1600)
 -->
<!-- Title: src/tree/TTaggerHit.h Pages: 1 -->
<svg width="750pt" height="320pt"
 viewBox="0.00 0.00 749.71 320.00" xmlns="http://www.w3.org/2000/svg" xmlns:xlink="http://www.w3.org/1999/xlink">
<g id="graph1" class="graph" transform="scale(1 1) rotate(0) translate(4 316)">
<title>src/tree/TTaggerHit.h</title>
<polygon fill="white" stroke="white" points="-4,5 -4,-316 746.714,-316 746.714,5 -4,5"/>
<!-- Node1 -->
<g id="node1" class="node"><title>Node1</title>
<polygon fill="#bfbfbf" stroke="black" points="625.714,-290.5 625.714,-311.5 735.714,-311.5 735.714,-290.5 625.714,-290.5"/>
<text text-anchor="middle" x="680.714" y="-298.5" font-family="Helvetica,sans-Serif" font-size="10.00">src/tree/TTaggerHit.h</text>
</g>
<!-- Node2 -->
<g id="node3" class="node"><title>Node2</title>
<a xlink:href="_t_data_record_8h.html" target="_top" xlink:title="TDataRecord.h">
<polygon fill="white" stroke="black" points="275.214,-232.5 275.214,-253.5 358.214,-253.5 358.214,-232.5 275.214,-232.5"/>
<text text-anchor="middle" x="316.714" y="-240.5" font-family="Helvetica,sans-Serif" font-size="10.00">TDataRecord.h</text>
</a>
</g>
<!-- Node1&#45;&gt;Node2 -->
<g id="edge2" class="edge"><title>Node1&#45;&gt;Node2</title>
<path fill="none" stroke="midnightblue" d="M625.431,-292.191C555.626,-281.068 436.451,-262.079 368.397,-251.235"/>
<polygon fill="midnightblue" stroke="midnightblue" points="368.76,-247.749 358.334,-249.632 367.659,-254.662 368.76,-247.749"/>
</g>
<!-- Node6 -->
<g id="node11" class="node"><title>Node6</title>
<polygon fill="white" stroke="#bfbfbf" points="571.714,-58.5 571.714,-79.5 615.714,-79.5 615.714,-58.5 571.714,-58.5"/>
<text text-anchor="middle" x="593.714" y="-66.5" font-family="Helvetica,sans-Serif" font-size="10.00">vector</text>
</g>
<!-- Node1&#45;&gt;Node6 -->
<g id="edge46" class="edge"><title>Node1&#45;&gt;Node6</title>
<path fill="none" stroke="midnightblue" d="M684.601,-290.381C694.872,-260.362 719.638,-173.345 684.714,-116 671.917,-94.9879 646.372,-82.9595 625.596,-76.3419"/>
<polygon fill="midnightblue" stroke="midnightblue" points="626.436,-72.9413 615.857,-73.5122 624.483,-79.6634 626.436,-72.9413"/>
</g>
<!-- Node11 -->
<g id="node21" class="node"><title>Node11</title>
<polygon fill="white" stroke="#bfbfbf" points="538.714,-0.5 538.714,-21.5 590.714,-21.5 590.714,-0.5 538.714,-0.5"/>
<text text-anchor="middle" x="564.714" y="-8.5" font-family="Helvetica,sans-Serif" font-size="10.00">sstream</text>
</g>
<!-- Node1&#45;&gt;Node11 -->
<g id="edge50" class="edge"><title>Node1&#45;&gt;Node11</title>
<path fill="none" stroke="midnightblue" d="M690.787,-290.465C708.113,-271.189 741.714,-228.232 741.714,-185 741.714,-185 741.714,-185 741.714,-127 741.714,-60.1784 652.376,-29.7539 600.639,-17.7373"/>
<polygon fill="midnightblue" stroke="midnightblue" points="601.35,-14.3101 590.831,-15.5741 599.843,-21.1458 601.35,-14.3101"/>
</g>
<!-- Node19 -->
<g id="node37" class="node"><title>Node19</title>
<polygon fill="white" stroke="#bfbfbf" points="625.714,-116.5 625.714,-137.5 675.714,-137.5 675.714,-116.5 625.714,-116.5"/>
<text text-anchor="middle" x="650.714" y="-124.5" font-family="Helvetica,sans-Serif" font-size="10.00">iomanip</text>
</g>
<!-- Node1&#45;&gt;Node19 -->
<g id="edge48" class="edge"><title>Node1&#45;&gt;Node19</title>
<path fill="none" stroke="midnightblue" d="M678.883,-290.377C674.041,-262.293 660.83,-185.673 654.37,-148.203"/>
<polygon fill="midnightblue" stroke="midnightblue" points="657.747,-147.188 652.598,-137.928 650.848,-148.377 657.747,-147.188"/>
</g>
<!-- Node3 -->
<g id="node5" class="node"><title>Node3</title>
<a xlink:href="_t_i_d_8h.html" target="_top" xlink:title="TID.h">
<polygon fill="white" stroke="black" points="296.214,-174.5 296.214,-195.5 337.214,-195.5 337.214,-174.5 296.214,-174.5"/>
<text text-anchor="middle" x="316.714" y="-182.5" font-family="Helvetica,sans-Serif" font-size="10.00">TID.h</text>
</a>
</g>
<!-- Node2&#45;&gt;Node3 -->
<g id="edge4" class="edge"><title>Node2&#45;&gt;Node3</title>
<path fill="none" stroke="midnightblue" d="M316.714,-232.362C316.714,-224.922 316.714,-214.743 316.714,-205.728"/>
<polygon fill="midnightblue" stroke="midnightblue" points="320.214,-205.571 316.714,-195.571 313.214,-205.571 320.214,-205.571"/>
</g>
<!-- Node4 -->
<g id="node7" class="node"><title>Node4</title>
<polygon fill="white" stroke="#bfbfbf" points="13.7143,-116.5 13.7143,-137.5 69.7143,-137.5 69.7143,-116.5 13.7143,-116.5"/>
<text text-anchor="middle" x="41.7143" y="-124.5" font-family="Helvetica,sans-Serif" font-size="10.00">Rtypes.h</text>
</g>
<!-- Node2&#45;&gt;Node4 -->
<g id="edge40" class="edge"><title>Node2&#45;&gt;Node4</title>
<path fill="none" stroke="midnightblue" d="M291.336,-232.295C241.789,-211.395 132.143,-165.145 76.1207,-141.513"/>
<polygon fill="midnightblue" stroke="midnightblue" points="77.2083,-138.173 66.6342,-137.512 74.4877,-144.623 77.2083,-138.173"/>
</g>
<!-- Node14 -->
<g id="node27" class="node"><title>Node14</title>
<polygon fill="white" stroke="#bfbfbf" points="77.2143,-58.5 77.2143,-79.5 118.214,-79.5 118.214,-58.5 77.2143,-58.5"/>
<text text-anchor="middle" x="97.7143" y="-66.5" font-family="Helvetica,sans-Serif" font-size="10.00">ctime</text>
</g>
<!-- Node2&#45;&gt;Node14 -->
<g id="edge44" class="edge"><title>Node2&#45;&gt;Node14</title>
<path fill="none" stroke="midnightblue" d="M274.956,-235.344C197.292,-220.139 35.6878,-183.633 4.71429,-138 -14.6053,-109.537 33.4494,-88.297 67.4441,-77.3405"/>
<polygon fill="midnightblue" stroke="midnightblue" points="68.4899,-80.6807 77.0219,-74.3994 66.435,-73.9891 68.4899,-80.6807"/>
</g>
<!-- Node2&#45;&gt;Node19 -->
<g id="edge42" class="edge"><title>Node2&#45;&gt;Node19</title>
<path fill="none" stroke="midnightblue" d="M347.24,-232.398C409.429,-210.8 550.45,-161.822 616.006,-139.054"/>
<polygon fill="midnightblue" stroke="midnightblue" points="617.187,-142.349 625.485,-135.762 614.89,-135.737 617.187,-142.349"/>
</g>
<!-- Node3&#45;&gt;Node4 -->
<g id="edge6" class="edge"><title>Node3&#45;&gt;Node4</title>
<path fill="none" stroke="midnightblue" d="M296.058,-181.244C255.299,-173.741 161.706,-156.064 83.7143,-138 82.4751,-137.713 81.2168,-137.416 79.9473,-137.112"/>
<polygon fill="midnightblue" stroke="midnightblue" points="80.6748,-133.686 70.1263,-134.676 78.9898,-140.48 80.6748,-133.686"/>
</g>
<!-- Node5 -->
<g id="node9" class="node"><title>Node5</title>
<a xlink:href="printable_8h.html" target="_top" xlink:title="base/printable.h">
<polygon fill="white" stroke="black" points="385.714,-116.5 385.714,-137.5 471.714,-137.5 471.714,-116.5 385.714,-116.5"/>
<text text-anchor="middle" x="428.714" y="-124.5" font-family="Helvetica,sans-Serif" font-size="10.00">base/printable.h</text>
</a>
</g>
<!-- Node3&#45;&gt;Node5 -->
<g id="edge8" class="edge"><title>Node3&#45;&gt;Node5</title>
<path fill="none" stroke="midnightblue" d="M336.997,-174.497C354.332,-165.519 379.505,-152.484 399.095,-142.339"/>
<polygon fill="midnightblue" stroke="midnightblue" points="400.934,-145.328 408.204,-137.621 397.715,-139.112 400.934,-145.328"/>
</g>
<!-- Node8 -->
<g id="node15" class="node"><title>Node8</title>
<a xlink:href="time_8h.html" target="_top" xlink:title="base/std_ext/time.h">
<polygon fill="white" stroke="black" points="265.214,-116.5 265.214,-137.5 368.214,-137.5 368.214,-116.5 265.214,-116.5"/>
<text text-anchor="middle" x="316.714" y="-124.5" font-family="Helvetica,sans-Serif" font-size="10.00">base/std_ext/time.h</text>
</a>
</g>
<!-- Node3&#45;&gt;Node8 -->
<g id="edge14" class="edge"><title>Node3&#45;&gt;Node8</title>
<path fill="none" stroke="midnightblue" d="M316.714,-174.362C316.714,-166.922 316.714,-156.743 316.714,-147.728"/>
<polygon fill="midnightblue" stroke="midnightblue" points="320.214,-147.571 316.714,-137.571 313.214,-147.571 320.214,-147.571"/>
</g>
<!-- Node3&#45;&gt;Node14 -->
<g id="edge38" class="edge"><title>Node3&#45;&gt;Node14</title>
<path fill="none" stroke="midnightblue" d="M295.879,-182.788C250.026,-177.51 142.409,-162.739 116.714,-138 103.75,-125.518 99.3734,-105.072 98.0172,-89.6694"/>
<polygon fill="midnightblue" stroke="midnightblue" points="101.504,-89.3339 97.4838,-79.5317 94.5142,-89.7018 101.504,-89.3339"/>
</g>
<!-- Node15 -->
<g id="node29" class="node"><title>Node15</title>
<polygon fill="white" stroke="#bfbfbf" points="489.714,-116.5 489.714,-137.5 551.714,-137.5 551.714,-116.5 489.714,-116.5"/>
<text text-anchor="middle" x="520.714" y="-124.5" font-family="Helvetica,sans-Serif" font-size="10.00">type_traits</text>
</g>
<!-- Node3&#45;&gt;Node15 -->
<g id="edge28" class="edge"><title>Node3&#45;&gt;Node15</title>
<path fill="none" stroke="midnightblue" d="M337.398,-179.119C370.664,-169.661 436.679,-150.892 479.742,-138.649"/>
<polygon fill="midnightblue" stroke="midnightblue" points="480.7,-142.016 489.361,-135.914 478.785,-135.282 480.7,-142.016"/>
</g>
<!-- Node16 -->
<g id="node31" class="node"><title>Node16</title>
<polygon fill="white" stroke="#bfbfbf" points="569.714,-116.5 569.714,-137.5 607.714,-137.5 607.714,-116.5 569.714,-116.5"/>
<text text-anchor="middle" x="588.714" y="-124.5" font-family="Helvetica,sans-Serif" font-size="10.00">tuple</text>
</g>
<!-- Node3&#45;&gt;Node16 -->
<g id="edge30" class="edge"><title>Node3&#45;&gt;Node16</title>
<path fill="none" stroke="midnightblue" d="M337.259,-182.347C378.09,-176.8 472.364,-162.629 559.795,-137.876"/>
<polygon fill="midnightblue" stroke="midnightblue" points="560.959,-141.183 569.596,-135.048 559.017,-134.458 560.959,-141.183"/>
</g>
<!-- Node17 -->
<g id="node33" class="node"><title>Node17</title>
<polygon fill="white" stroke="#bfbfbf" points="125.714,-116.5 125.714,-137.5 171.714,-137.5 171.714,-116.5 125.714,-116.5"/>
<text text-anchor="middle" x="148.714" y="-124.5" font-family="Helvetica,sans-Serif" font-size="10.00">cstdint</text>
</g>
<!-- Node3&#45;&gt;Node17 -->
<g id="edge32" class="edge"><title>Node3&#45;&gt;Node17</title>
<path fill="none" stroke="midnightblue" d="M296.114,-177.888C267.485,-168.004 215.365,-150.011 181.397,-138.283"/>
<polygon fill="midnightblue" stroke="midnightblue" points="182.503,-134.963 171.909,-135.008 180.219,-141.579 182.503,-134.963"/>
</g>
<!-- Node18 -->
<g id="node35" class="node"><title>Node18</title>
<polygon fill="white" stroke="#bfbfbf" points="189.214,-116.5 189.214,-137.5 248.214,-137.5 248.214,-116.5 189.214,-116.5"/>
<text text-anchor="middle" x="218.714" y="-124.5" font-family="Helvetica,sans-Serif" font-size="10.00">stdexcept</text>
</g>
<!-- Node3&#45;&gt;Node18 -->
<g id="edge34" class="edge"><title>Node3&#45;&gt;Node18</title>
<path fill="none" stroke="midnightblue" d="M298.74,-174.362C283.82,-165.532 262.382,-152.844 245.449,-142.822"/>
<polygon fill="midnightblue" stroke="midnightblue" points="246.963,-139.652 236.575,-137.571 243.398,-145.676 246.963,-139.652"/>
</g>
<!-- Node3&#45;&gt;Node19 -->
<g id="edge36" class="edge"><title>Node3&#45;&gt;Node19</title>
<path fill="none" stroke="midnightblue" d="M337.301,-182.907C384.795,-177.84 505.76,-163.577 615.67,-137.966"/>
<polygon fill="midnightblue" stroke="midnightblue" points="616.665,-141.328 625.589,-135.616 615.051,-134.516 616.665,-141.328"/>
</g>
<!-- Node5&#45;&gt;Node6 -->
<g id="edge10" class="edge"><title>Node5&#45;&gt;Node6</title>
<path fill="none" stroke="midnightblue" d="M458.595,-116.497C487.881,-106.202 532.35,-90.5706 562.189,-80.0817"/>
<polygon fill="midnightblue" stroke="midnightblue" points="563.431,-83.3551 571.704,-76.7369 561.109,-76.7512 563.431,-83.3551"/>
</g>
<!-- Node7 -->
<g id="node13" class="node"><title>Node7</title>
<polygon fill="white" stroke="#bfbfbf" points="427.714,-58.5 427.714,-79.5 479.714,-79.5 479.714,-58.5 427.714,-58.5"/>
<text text-anchor="middle" x="453.714" y="-66.5" font-family="Helvetica,sans-Serif" font-size="10.00">ostream</text>
</g>
<!-- Node5&#45;&gt;Node7 -->
<g id="edge12" class="edge"><title>Node5&#45;&gt;Node7</title>
<path fill="none" stroke="midnightblue" d="M433.3,-116.362C436.612,-108.677 441.185,-98.0686 445.163,-88.8399"/>
<polygon fill="midnightblue" stroke="midnightblue" points="448.414,-90.1393 449.158,-79.5707 441.985,-87.3685 448.414,-90.1393"/>
</g>
<!-- Node9 -->
<g id="node17" class="node"><title>Node9</title>
<a xlink:href="string_8h.html" target="_top" xlink:title="base/std_ext/string.h">
<polygon fill="white" stroke="black" points="237.714,-58.5 237.714,-79.5 345.714,-79.5 345.714,-58.5 237.714,-58.5"/>
<text text-anchor="middle" x="291.714" y="-66.5" font-family="Helvetica,sans-Serif" font-size="10.00">base/std_ext/string.h</text>
</a>
</g>
<!-- Node8&#45;&gt;Node9 -->
<g id="edge16" class="edge"><title>Node8&#45;&gt;Node9</title>
<path fill="none" stroke="midnightblue" d="M312.129,-116.362C308.816,-108.677 304.244,-98.0686 300.266,-88.8399"/>
<polygon fill="midnightblue" stroke="midnightblue" points="303.443,-87.3685 296.271,-79.5707 297.015,-90.1393 303.443,-87.3685"/>
</g>
<!-- Node13 -->
<g id="node25" class="node"><title>Node13</title>
<polygon fill="white" stroke="#bfbfbf" points="363.714,-58.5 363.714,-79.5 409.714,-79.5 409.714,-58.5 363.714,-58.5"/>
<text text-anchor="middle" x="386.714" y="-66.5" font-family="Helvetica,sans-Serif" font-size="10.00">cstring</text>
</g>
<!-- Node8&#45;&gt;Node13 -->
<g id="edge24" class="edge"><title>Node8&#45;&gt;Node13</title>
<path fill="none" stroke="midnightblue" d="M329.553,-116.362C339.717,-107.941 354.115,-96.0105 365.919,-86.2308"/>
<polygon fill="midnightblue" stroke="midnightblue" points="368.489,-88.6459 373.957,-79.5707 364.023,-83.2558 368.489,-88.6459"/>
</g>
<!-- Node8&#45;&gt;Node14 -->
<g id="edge26" class="edge"><title>Node8&#45;&gt;Node14</title>
<path fill="none" stroke="midnightblue" d="M277.055,-116.497C234.171,-105.139 166.759,-87.2859 127.955,-77.0089"/>
<polygon fill="midnightblue" stroke="midnightblue" points="128.838,-73.6221 118.275,-74.4453 127.046,-80.3889 128.838,-73.6221"/>
</g>
<!-- Node10 -->
<g id="node19" class="node"><title>Node10</title>
<polygon fill="white" stroke="#bfbfbf" points="304.214,-0.5 304.214,-21.5 345.214,-21.5 345.214,-0.5 304.214,-0.5"/>
<text text-anchor="middle" x="324.714" y="-8.5" font-family="Helvetica,sans-Serif" font-size="10.00">string</text>
</g>
<!-- Node9&#45;&gt;Node10 -->
<g id="edge18" class="edge"><title>Node9&#45;&gt;Node10</title>
<path fill="none" stroke="midnightblue" d="M297.767,-58.3619C302.186,-50.5949 308.304,-39.8426 313.593,-30.5458"/>
<polygon fill="midnightblue" stroke="midnightblue" points="316.797,-31.9932 318.7,-21.5707 310.713,-28.5315 316.797,-31.9932"/>
</g>
<!-- Node9&#45;&gt;Node11 -->
<g id="edge20" class="edge"><title>Node9&#45;&gt;Node11</title>
<path fill="none" stroke="midnightblue" d="M341.153,-58.4966C395.12,-47.0309 480.25,-28.9447 528.392,-18.7169"/>
<polygon fill="midnightblue" stroke="midnightblue" points="529.31,-22.0999 538.365,-16.5981 527.855,-15.2528 529.31,-22.0999"/>
</g>
<!-- Node12 -->
<g id="node23" class="node"><title>Node12</title>
<polygon fill="white" stroke="#bfbfbf" points="230.714,-0.5 230.714,-21.5 286.714,-21.5 286.714,-0.5 230.714,-0.5"/>
<text text-anchor="middle" x="258.714" y="-8.5" font-family="Helvetica,sans-Serif" font-size="10.00">algorithm</text>
</g>
<!-- Node9&#45;&gt;Node12 -->
<g id="edge22" class="edge"><title>Node9&#45;&gt;Node12</title>
<path fill="none" stroke="midnightblue" d="M285.662,-58.3619C281.242,-50.5949 275.125,-39.8426 269.835,-30.5458"/>
<polygon fill="midnightblue" stroke="midnightblue" points="272.716,-28.5315 264.729,-21.5707 266.632,-31.9932 272.716,-28.5315"/>
</g>
</g>
</svg>
