<?xml version="1.0" encoding="UTF-8" standalone="no"?>
<!DOCTYPE svg PUBLIC "-//W3C//DTD SVG 1.1//EN"
 "http://www.w3.org/Graphics/SVG/1.1/DTD/svg11.dtd">
<!-- Generated by graphviz version 2.26.3 (20100126.1600)
 -->
<!-- Title: src/tree/TUnpackerMessage.h Pages: 1 -->
<svg width="1088pt" height="320pt"
 viewBox="0.00 0.00 1087.51 320.00" xmlns="http://www.w3.org/2000/svg" xmlns:xlink="http://www.w3.org/1999/xlink">
<g id="graph1" class="graph" transform="scale(1 1) rotate(0) translate(4 316)">
<title>src/tree/TUnpackerMessage.h</title>
<polygon fill="white" stroke="white" points="-4,5 -4,-316 1084.51,-316 1084.51,5 -4,5"/>
<!-- Node1 -->
<g id="node1" class="node"><title>Node1</title>
<polygon fill="#bfbfbf" stroke="black" points="400.302,-290.5 400.302,-311.5 549.302,-311.5 549.302,-290.5 400.302,-290.5"/>
<text text-anchor="middle" x="474.802" y="-298.5" font-family="Helvetica,sans-Serif" font-size="10.00">src/tree/TUnpackerMessage.h</text>
</g>
<!-- Node2 -->
<g id="node3" class="node"><title>Node2</title>
<a xlink:href="_t_data_record_8h.html" target="_top" xlink:title="TDataRecord.h">
<polygon fill="white" stroke="black" points="495.302,-232.5 495.302,-253.5 578.302,-253.5 578.302,-232.5 495.302,-232.5"/>
<text text-anchor="middle" x="536.802" y="-240.5" font-family="Helvetica,sans-Serif" font-size="10.00">TDataRecord.h</text>
</a>
</g>
<!-- Node1&#45;&gt;Node2 -->
<g id="edge2" class="edge"><title>Node1&#45;&gt;Node2</title>
<path fill="none" stroke="midnightblue" d="M486.174,-290.362C495.088,-282.023 507.682,-270.242 518.078,-260.516"/>
<polygon fill="midnightblue" stroke="midnightblue" points="520.591,-262.958 525.502,-253.571 515.809,-257.846 520.591,-262.958"/>
</g>
<!-- Node20 -->
<g id="node43" class="node"><title>Node20</title>
<a xlink:href="_format_8h.html" target="_top" xlink:title="base/Format.h">
<polygon fill="white" stroke="black" points="339.802,-116.5 339.802,-137.5 419.802,-137.5 419.802,-116.5 339.802,-116.5"/>
<text text-anchor="middle" x="379.802" y="-124.5" font-family="Helvetica,sans-Serif" font-size="10.00">base/Format.h</text>
</a>
</g>
<!-- Node1&#45;&gt;Node20 -->
<g id="edge46" class="edge"><title>Node1&#45;&gt;Node20</title>
<path fill="none" stroke="midnightblue" d="M469.002,-290.377C453.471,-261.93 410.75,-183.684 390.595,-146.769"/>
<polygon fill="midnightblue" stroke="midnightblue" points="393.632,-145.028 385.768,-137.928 387.489,-148.382 393.632,-145.028"/>
</g>
<!-- Node3 -->
<g id="node5" class="node"><title>Node3</title>
<a xlink:href="_t_i_d_8h.html" target="_top" xlink:title="TID.h">
<polygon fill="white" stroke="black" points="665.302,-174.5 665.302,-195.5 706.302,-195.5 706.302,-174.5 665.302,-174.5"/>
<text text-anchor="middle" x="685.802" y="-182.5" font-family="Helvetica,sans-Serif" font-size="10.00">TID.h</text>
</a>
</g>
<!-- Node2&#45;&gt;Node3 -->
<g id="edge4" class="edge"><title>Node2&#45;&gt;Node3</title>
<path fill="none" stroke="midnightblue" d="M563.785,-232.497C589.663,-222.423 628.669,-207.24 655.579,-196.765"/>
<polygon fill="midnightblue" stroke="midnightblue" points="657.199,-199.89 665.248,-193.001 654.66,-193.367 657.199,-199.89"/>
</g>
<!-- Node4 -->
<g id="node7" class="node"><title>Node4</title>
<polygon fill="white" stroke="#bfbfbf" points="508.802,-116.5 508.802,-137.5 564.802,-137.5 564.802,-116.5 508.802,-116.5"/>
<text text-anchor="middle" x="536.802" y="-124.5" font-family="Helvetica,sans-Serif" font-size="10.00">Rtypes.h</text>
</g>
<!-- Node2&#45;&gt;Node4 -->
<g id="edge40" class="edge"><title>Node2&#45;&gt;Node4</title>
<path fill="none" stroke="midnightblue" d="M536.802,-232.295C536.802,-213.131 536.802,-172.654 536.802,-147.843"/>
<polygon fill="midnightblue" stroke="midnightblue" points="540.302,-147.679 536.802,-137.679 533.302,-147.679 540.302,-147.679"/>
</g>
<!-- Node14 -->
<g id="node27" class="node"><title>Node14</title>
<polygon fill="white" stroke="#bfbfbf" points="961.302,-58.5 961.302,-79.5 1002.3,-79.5 1002.3,-58.5 961.302,-58.5"/>
<text text-anchor="middle" x="981.802" y="-66.5" font-family="Helvetica,sans-Serif" font-size="10.00">ctime</text>
</g>
<!-- Node2&#45;&gt;Node14 -->
<g id="edge44" class="edge"><title>Node2&#45;&gt;Node14</title>
<path fill="none" stroke="midnightblue" d="M578.489,-241.412C693.472,-236.072 1010.78,-214.542 1073.8,-138 1095.63,-111.487 1046.59,-89.4502 1012.06,-77.845"/>
<polygon fill="midnightblue" stroke="midnightblue" points="1012.93,-74.4491 1002.34,-74.719 1010.79,-81.1129 1012.93,-74.4491"/>
</g>
<!-- Node19 -->
<g id="node37" class="node"><title>Node19</title>
<polygon fill="white" stroke="#bfbfbf" points="440.802,-116.5 440.802,-137.5 490.802,-137.5 490.802,-116.5 440.802,-116.5"/>
<text text-anchor="middle" x="465.802" y="-124.5" font-family="Helvetica,sans-Serif" font-size="10.00">iomanip</text>
</g>
<!-- Node2&#45;&gt;Node19 -->
<g id="edge42" class="edge"><title>Node2&#45;&gt;Node19</title>
<path fill="none" stroke="midnightblue" d="M530.25,-232.295C518.309,-212.786 492.848,-171.188 477.748,-146.518"/>
<polygon fill="midnightblue" stroke="midnightblue" points="480.544,-144.381 472.339,-137.679 474.574,-148.036 480.544,-144.381"/>
</g>
<!-- Node3&#45;&gt;Node4 -->
<g id="edge6" class="edge"><title>Node3&#45;&gt;Node4</title>
<path fill="none" stroke="midnightblue" d="M665.084,-176.935C641.376,-167.707 602.11,-152.422 573.253,-141.189"/>
<polygon fill="midnightblue" stroke="midnightblue" points="574.492,-137.916 563.904,-137.55 571.953,-144.439 574.492,-137.916"/>
</g>
<!-- Node5 -->
<g id="node9" class="node"><title>Node5</title>
<a xlink:href="printable_8h.html" target="_top" xlink:title="base/printable.h">
<polygon fill="white" stroke="black" points="684.802,-116.5 684.802,-137.5 770.802,-137.5 770.802,-116.5 684.802,-116.5"/>
<text text-anchor="middle" x="727.802" y="-124.5" font-family="Helvetica,sans-Serif" font-size="10.00">base/printable.h</text>
</a>
</g>
<!-- Node3&#45;&gt;Node5 -->
<g id="edge8" class="edge"><title>Node3&#45;&gt;Node5</title>
<path fill="none" stroke="midnightblue" d="M693.506,-174.362C699.248,-166.431 707.245,-155.389 714.072,-145.961"/>
<polygon fill="midnightblue" stroke="midnightblue" points="717.117,-147.723 720.147,-137.571 711.448,-143.617 717.117,-147.723"/>
</g>
<!-- Node8 -->
<g id="node15" class="node"><title>Node8</title>
<a xlink:href="time_8h.html" target="_top" xlink:title="base/std_ext/time.h">
<polygon fill="white" stroke="black" points="788.302,-116.5 788.302,-137.5 891.302,-137.5 891.302,-116.5 788.302,-116.5"/>
<text text-anchor="middle" x="839.802" y="-124.5" font-family="Helvetica,sans-Serif" font-size="10.00">base/std_ext/time.h</text>
</a>
</g>
<!-- Node3&#45;&gt;Node8 -->
<g id="edge14" class="edge"><title>Node3&#45;&gt;Node8</title>
<path fill="none" stroke="midnightblue" d="M706.571,-177.178C730.986,-167.983 771.986,-152.541 802.068,-141.211"/>
<polygon fill="midnightblue" stroke="midnightblue" points="803.687,-144.342 811.812,-137.542 801.22,-137.791 803.687,-144.342"/>
</g>
<!-- Node3&#45;&gt;Node14 -->
<g id="edge38" class="edge"><title>Node3&#45;&gt;Node14</title>
<path fill="none" stroke="midnightblue" d="M706.34,-183.758C745.758,-180.685 833.95,-170.451 899.802,-138 925.384,-125.394 949.729,-103.147 965.147,-87.3231"/>
<polygon fill="midnightblue" stroke="midnightblue" points="968.015,-89.3844 972.355,-79.719 962.935,-84.5687 968.015,-89.3844"/>
</g>
<!-- Node15 -->
<g id="node29" class="node"><title>Node15</title>
<polygon fill="white" stroke="#bfbfbf" points="946.802,-116.5 946.802,-137.5 1008.8,-137.5 1008.8,-116.5 946.802,-116.5"/>
<text text-anchor="middle" x="977.802" y="-124.5" font-family="Helvetica,sans-Serif" font-size="10.00">type_traits</text>
</g>
<!-- Node3&#45;&gt;Node15 -->
<g id="edge28" class="edge"><title>Node3&#45;&gt;Node15</title>
<path fill="none" stroke="midnightblue" d="M706.368,-181.458C748.824,-174.063 849.195,-156.16 932.802,-138 934.04,-137.731 935.296,-137.454 936.563,-137.17"/>
<polygon fill="midnightblue" stroke="midnightblue" points="937.424,-140.563 946.379,-134.901 935.847,-133.743 937.424,-140.563"/>
</g>
<!-- Node16 -->
<g id="node31" class="node"><title>Node16</title>
<polygon fill="white" stroke="#bfbfbf" points="1026.8,-116.5 1026.8,-137.5 1064.8,-137.5 1064.8,-116.5 1026.8,-116.5"/>
<text text-anchor="middle" x="1045.8" y="-124.5" font-family="Helvetica,sans-Serif" font-size="10.00">tuple</text>
</g>
<!-- Node3&#45;&gt;Node16 -->
<g id="edge30" class="edge"><title>Node3&#45;&gt;Node16</title>
<path fill="none" stroke="midnightblue" d="M706.341,-183.765C757.539,-180.34 894.896,-169.009 1016.85,-137.76"/>
<polygon fill="midnightblue" stroke="midnightblue" points="1017.93,-141.095 1026.72,-135.178 1016.16,-134.323 1017.93,-141.095"/>
</g>
<!-- Node17 -->
<g id="node33" class="node"><title>Node17</title>
<polygon fill="white" stroke="#bfbfbf" points="620.802,-116.5 620.802,-137.5 666.802,-137.5 666.802,-116.5 620.802,-116.5"/>
<text text-anchor="middle" x="643.802" y="-124.5" font-family="Helvetica,sans-Serif" font-size="10.00">cstdint</text>
</g>
<!-- Node3&#45;&gt;Node17 -->
<g id="edge32" class="edge"><title>Node3&#45;&gt;Node17</title>
<path fill="none" stroke="midnightblue" d="M678.099,-174.362C672.356,-166.431 664.359,-155.389 657.532,-145.961"/>
<polygon fill="midnightblue" stroke="midnightblue" points="660.157,-143.617 651.457,-137.571 654.487,-147.723 660.157,-143.617"/>
</g>
<!-- Node18 -->
<g id="node35" class="node"><title>Node18</title>
<polygon fill="white" stroke="#bfbfbf" points="563.302,-58.5 563.302,-79.5 622.302,-79.5 622.302,-58.5 563.302,-58.5"/>
<text text-anchor="middle" x="592.802" y="-66.5" font-family="Helvetica,sans-Serif" font-size="10.00">stdexcept</text>
</g>
<!-- Node3&#45;&gt;Node18 -->
<g id="edge34" class="edge"><title>Node3&#45;&gt;Node18</title>
<path fill="none" stroke="midnightblue" d="M665.23,-176.939C648.45,-169.336 625.377,-156.354 611.802,-138 601.44,-123.99 596.729,-104.621 594.587,-89.9697"/>
<polygon fill="midnightblue" stroke="midnightblue" points="598.042,-89.3761 593.399,-79.8525 591.089,-90.1925 598.042,-89.3761"/>
</g>
<!-- Node3&#45;&gt;Node19 -->
<g id="edge36" class="edge"><title>Node3&#45;&gt;Node19</title>
<path fill="none" stroke="midnightblue" d="M665.041,-180.222C632.165,-172.557 565.932,-156.711 500.622,-138.117"/>
<polygon fill="midnightblue" stroke="midnightblue" points="501.574,-134.749 490.997,-135.354 499.643,-141.477 501.574,-134.749"/>
</g>
<!-- Node6 -->
<g id="node11" class="node"><title>Node6</title>
<polygon fill="white" stroke="#bfbfbf" points="639.802,-58.5 639.802,-79.5 683.802,-79.5 683.802,-58.5 639.802,-58.5"/>
<text text-anchor="middle" x="661.802" y="-66.5" font-family="Helvetica,sans-Serif" font-size="10.00">vector</text>
</g>
<!-- Node5&#45;&gt;Node6 -->
<g id="edge10" class="edge"><title>Node5&#45;&gt;Node6</title>
<path fill="none" stroke="midnightblue" d="M715.697,-116.362C706.114,-107.941 692.538,-96.0105 681.41,-86.2308"/>
<polygon fill="midnightblue" stroke="midnightblue" points="683.653,-83.5427 673.831,-79.5707 679.032,-88.8009 683.653,-83.5427"/>
</g>
<!-- Node7 -->
<g id="node13" class="node"><title>Node7</title>
<polygon fill="white" stroke="#bfbfbf" points="701.802,-58.5 701.802,-79.5 753.802,-79.5 753.802,-58.5 701.802,-58.5"/>
<text text-anchor="middle" x="727.802" y="-66.5" font-family="Helvetica,sans-Serif" font-size="10.00">ostream</text>
</g>
<!-- Node5&#45;&gt;Node7 -->
<g id="edge12" class="edge"><title>Node5&#45;&gt;Node7</title>
<path fill="none" stroke="midnightblue" d="M727.802,-116.362C727.802,-108.922 727.802,-98.7427 727.802,-89.7276"/>
<polygon fill="midnightblue" stroke="midnightblue" points="731.302,-89.5706 727.802,-79.5707 724.302,-89.5707 731.302,-89.5706"/>
</g>
<!-- Node9 -->
<g id="node17" class="node"><title>Node9</title>
<a xlink:href="string_8h.html" target="_top" xlink:title="base/std_ext/string.h">
<polygon fill="white" stroke="black" points="771.802,-58.5 771.802,-79.5 879.802,-79.5 879.802,-58.5 771.802,-58.5"/>
<text text-anchor="middle" x="825.802" y="-66.5" font-family="Helvetica,sans-Serif" font-size="10.00">base/std_ext/string.h</text>
</a>
</g>
<!-- Node8&#45;&gt;Node9 -->
<g id="edge16" class="edge"><title>Node8&#45;&gt;Node9</title>
<path fill="none" stroke="midnightblue" d="M837.234,-116.362C835.419,-108.84 832.927,-98.5187 830.734,-89.4308"/>
<polygon fill="midnightblue" stroke="midnightblue" points="834.102,-88.4702 828.354,-79.5707 827.298,-90.1127 834.102,-88.4702"/>
</g>
<!-- Node13 -->
<g id="node25" class="node"><title>Node13</title>
<polygon fill="white" stroke="#bfbfbf" points="897.802,-58.5 897.802,-79.5 943.802,-79.5 943.802,-58.5 897.802,-58.5"/>
<text text-anchor="middle" x="920.802" y="-66.5" font-family="Helvetica,sans-Serif" font-size="10.00">cstring</text>
</g>
<!-- Node8&#45;&gt;Node13 -->
<g id="edge24" class="edge"><title>Node8&#45;&gt;Node13</title>
<path fill="none" stroke="midnightblue" d="M854.659,-116.362C866.648,-107.777 883.729,-95.5459 897.531,-85.6636"/>
<polygon fill="midnightblue" stroke="midnightblue" points="899.947,-88.2383 906.04,-79.5707 895.871,-82.5469 899.947,-88.2383"/>
</g>
<!-- Node8&#45;&gt;Node14 -->
<g id="edge26" class="edge"><title>Node8&#45;&gt;Node14</title>
<path fill="none" stroke="midnightblue" d="M865.517,-116.497C889.648,-106.641 925.756,-91.8923 951.324,-81.4489"/>
<polygon fill="midnightblue" stroke="midnightblue" points="952.962,-84.5606 960.896,-77.5391 950.315,-78.0803 952.962,-84.5606"/>
</g>
<!-- Node10 -->
<g id="node19" class="node"><title>Node10</title>
<polygon fill="white" stroke="#bfbfbf" points="244.302,-0.5 244.302,-21.5 285.302,-21.5 285.302,-0.5 244.302,-0.5"/>
<text text-anchor="middle" x="264.802" y="-8.5" font-family="Helvetica,sans-Serif" font-size="10.00">string</text>
</g>
<!-- Node9&#45;&gt;Node10 -->
<g id="edge18" class="edge"><title>Node9&#45;&gt;Node10</title>
<path fill="none" stroke="midnightblue" d="M771.548,-59.2477C768.593,-58.8038 765.663,-58.3842 762.802,-58 586.886,-34.3784 374.433,-18.5164 295.916,-13.0805"/>
<polygon fill="midnightblue" stroke="midnightblue" points="295.96,-9.57538 285.744,-12.383 295.481,-16.559 295.96,-9.57538"/>
</g>
<!-- Node11 -->
<g id="node21" class="node"><title>Node11</title>
<polygon fill="white" stroke="#bfbfbf" points="467.802,-0.5 467.802,-21.5 519.802,-21.5 519.802,-0.5 467.802,-0.5"/>
<text text-anchor="middle" x="493.802" y="-8.5" font-family="Helvetica,sans-Serif" font-size="10.00">sstream</text>
</g>
<!-- Node9&#45;&gt;Node11 -->
<g id="edge20" class="edge"><title>Node9&#45;&gt;Node11</title>
<path fill="none" stroke="midnightblue" d="M771.722,-59.5522C703.601,-47.6516 588.413,-27.5284 530.038,-17.3304"/>
<polygon fill="midnightblue" stroke="midnightblue" points="530.614,-13.878 520.16,-15.6048 529.409,-20.7736 530.614,-13.878"/>
</g>
<!-- Node12 -->
<g id="node23" class="node"><title>Node12</title>
<polygon fill="white" stroke="#bfbfbf" points="652.802,-0.5 652.802,-21.5 708.802,-21.5 708.802,-0.5 652.802,-0.5"/>
<text text-anchor="middle" x="680.802" y="-8.5" font-family="Helvetica,sans-Serif" font-size="10.00">algorithm</text>
</g>
<!-- Node9&#45;&gt;Node12 -->
<g id="edge22" class="edge"><title>Node9&#45;&gt;Node12</title>
<path fill="none" stroke="midnightblue" d="M799.544,-58.4966C776.386,-49.2337 742.427,-35.6499 716.75,-25.3793"/>
<polygon fill="midnightblue" stroke="midnightblue" points="717.94,-22.0855 707.355,-21.6212 715.34,-28.5849 717.94,-22.0855"/>
</g>
<!-- Node20&#45;&gt;Node6 -->
<g id="edge70" class="edge"><title>Node20&#45;&gt;Node6</title>
<path fill="none" stroke="midnightblue" d="M419.807,-118.413C423.856,-117.581 427.908,-116.764 431.802,-116 516.9,-99.3057 542.18,-102.821 629.759,-79.9734"/>
<polygon fill="midnightblue" stroke="midnightblue" points="630.817,-83.3139 639.587,-77.3686 629.024,-76.5475 630.817,-83.3139"/>
</g>
<!-- Node20&#45;&gt;Node10 -->
<g id="edge66" class="edge"><title>Node20&#45;&gt;Node10</title>
<path fill="none" stroke="midnightblue" d="M339.711,-124.925C247.534,-119.744 26.7267,-104.844 4.8021,-80 -1.66765,-72.6688 -1.4668,-65.5037 4.8021,-58 33.7151,-23.3918 171.595,-14.2199 233.997,-11.827"/>
<polygon fill="midnightblue" stroke="midnightblue" points="234.162,-15.3235 244.034,-11.4762 233.918,-8.32774 234.162,-15.3235"/>
</g>
<!-- Node20&#45;&gt;Node11 -->
<g id="edge68" class="edge"><title>Node20&#45;&gt;Node11</title>
<path fill="none" stroke="midnightblue" d="M380.098,-116.437C381.037,-101.753 384.723,-75.0568 398.802,-58 413.902,-39.7064 437.882,-27.919 457.971,-20.7238"/>
<polygon fill="midnightblue" stroke="midnightblue" points="459.089,-24.0406 467.465,-17.5522 456.871,-17.4013 459.089,-24.0406"/>
</g>
<!-- Node20&#45;&gt;Node12 -->
<g id="edge60" class="edge"><title>Node20&#45;&gt;Node12</title>
<path fill="none" stroke="midnightblue" d="M416.898,-116.418C444.897,-107.921 483.968,-94.9648 516.802,-80 534.56,-71.9066 537.153,-66.3284 554.802,-58 583.694,-44.3659 617.699,-31.8789 643.096,-23.208"/>
<polygon fill="midnightblue" stroke="midnightblue" points="644.364,-26.4739 652.723,-19.963 642.128,-19.8406 644.364,-26.4739"/>
</g>
<!-- Node20&#45;&gt;Node18 -->
<g id="edge64" class="edge"><title>Node20&#45;&gt;Node18</title>
<path fill="none" stroke="midnightblue" d="M418.375,-116.497C456.562,-106.098 514.747,-90.2544 553.266,-79.7656"/>
<polygon fill="midnightblue" stroke="midnightblue" points="554.364,-83.0941 563.093,-77.0897 552.525,-76.3401 554.364,-83.0941"/>
</g>
<!-- Node21 -->
<g id="node45" class="node"><title>Node21</title>
<polygon fill="white" stroke="#bfbfbf" points="13.3021,-58.5 13.3021,-79.5 92.3021,-79.5 92.3021,-58.5 13.3021,-58.5"/>
<text text-anchor="middle" x="52.8021" y="-66.5" font-family="Helvetica,sans-Serif" font-size="10.00">detail/format.h</text>
</g>
<!-- Node20&#45;&gt;Node21 -->
<g id="edge48" class="edge"><title>Node20&#45;&gt;Node21</title>
<path fill="none" stroke="midnightblue" d="M339.471,-120.963C287.013,-112.944 192.313,-97.901 102.151,-80.1935"/>
<polygon fill="midnightblue" stroke="midnightblue" points="102.805,-76.7551 92.3156,-78.2475 101.446,-83.622 102.805,-76.7551"/>
</g>
<!-- Node22 -->
<g id="node47" class="node"><title>Node22</title>
<polygon fill="white" stroke="#bfbfbf" points="109.302,-58.5 109.302,-79.5 158.302,-79.5 158.302,-58.5 109.302,-58.5"/>
<text text-anchor="middle" x="133.802" y="-66.5" font-family="Helvetica,sans-Serif" font-size="10.00">stdint.h</text>
</g>
<!-- Node20&#45;&gt;Node22 -->
<g id="edge50" class="edge"><title>Node20&#45;&gt;Node22</title>
<path fill="none" stroke="midnightblue" d="M339.452,-119.404C298.487,-111.404 233.08,-97.8397 168.516,-80.3014"/>
<polygon fill="midnightblue" stroke="midnightblue" points="169.153,-76.8467 158.583,-77.5692 167.297,-83.596 169.153,-76.8467"/>
</g>
<!-- Node23 -->
<g id="node49" class="node"><title>Node23</title>
<polygon fill="white" stroke="#bfbfbf" points="175.302,-58.5 175.302,-79.5 224.302,-79.5 224.302,-58.5 175.302,-58.5"/>
<text text-anchor="middle" x="199.802" y="-66.5" font-family="Helvetica,sans-Serif" font-size="10.00">cassert</text>
</g>
<!-- Node20&#45;&gt;Node23 -->
<g id="edge52" class="edge"><title>Node20&#45;&gt;Node23</title>
<path fill="none" stroke="midnightblue" d="M346.487,-116.477C318.706,-107.673 277.839,-94.657 234.284,-80.4636"/>
<polygon fill="midnightblue" stroke="midnightblue" points="235.25,-77.0971 224.658,-77.3215 233.078,-83.7516 235.25,-77.0971"/>
</g>
<!-- Node24 -->
<g id="node51" class="node"><title>Node24</title>
<polygon fill="white" stroke="#bfbfbf" points="241.802,-58.5 241.802,-79.5 285.802,-79.5 285.802,-58.5 241.802,-58.5"/>
<text text-anchor="middle" x="263.802" y="-66.5" font-family="Helvetica,sans-Serif" font-size="10.00">cmath</text>
</g>
<!-- Node20&#45;&gt;Node24 -->
<g id="edge54" class="edge"><title>Node20&#45;&gt;Node24</title>
<path fill="none" stroke="midnightblue" d="M358.795,-116.497C340.759,-107.479 314.532,-94.3649 294.203,-84.2006"/>
<polygon fill="midnightblue" stroke="midnightblue" points="295.554,-80.9629 285.045,-79.6212 292.424,-87.2239 295.554,-80.9629"/>
</g>
<!-- Node25 -->
<g id="node53" class="node"><title>Node25</title>
<polygon fill="white" stroke="#bfbfbf" points="303.302,-58.5 303.302,-79.5 352.302,-79.5 352.302,-58.5 303.302,-58.5"/>
<text text-anchor="middle" x="327.802" y="-66.5" font-family="Helvetica,sans-Serif" font-size="10.00">cstddef</text>
</g>
<!-- Node20&#45;&gt;Node25 -->
<g id="edge56" class="edge"><title>Node20&#45;&gt;Node25</title>
<path fill="none" stroke="midnightblue" d="M370.265,-116.362C362.934,-108.186 352.639,-96.7025 344.021,-87.0907"/>
<polygon fill="midnightblue" stroke="midnightblue" points="346.561,-84.68 337.279,-79.5707 341.349,-89.3528 346.561,-84.68"/>
</g>
<!-- Node26 -->
<g id="node55" class="node"><title>Node26</title>
<polygon fill="white" stroke="#bfbfbf" points="407.302,-58.5 407.302,-79.5 450.302,-79.5 450.302,-58.5 407.302,-58.5"/>
<text text-anchor="middle" x="428.802" y="-66.5" font-family="Helvetica,sans-Serif" font-size="10.00">cstdio</text>
</g>
<!-- Node20&#45;&gt;Node26 -->
<g id="edge58" class="edge"><title>Node20&#45;&gt;Node26</title>
<path fill="none" stroke="midnightblue" d="M388.789,-116.362C395.628,-108.268 405.205,-96.9318 413.275,-87.3796"/>
<polygon fill="midnightblue" stroke="midnightblue" points="416.092,-89.4683 419.872,-79.5707 410.745,-84.9508 416.092,-89.4683"/>
</g>
<!-- Node27 -->
<g id="node58" class="node"><title>Node27</title>
<polygon fill="white" stroke="#bfbfbf" points="467.802,-58.5 467.802,-79.5 507.802,-79.5 507.802,-58.5 467.802,-58.5"/>
<text text-anchor="middle" x="487.802" y="-66.5" font-family="Helvetica,sans-Serif" font-size="10.00">limits</text>
</g>
<!-- Node20&#45;&gt;Node27 -->
<g id="edge62" class="edge"><title>Node20&#45;&gt;Node27</title>
<path fill="none" stroke="midnightblue" d="M399.36,-116.497C416,-107.56 440.129,-94.602 458.982,-84.4772"/>
<polygon fill="midnightblue" stroke="midnightblue" points="460.871,-87.436 468.025,-79.6212 457.559,-81.2691 460.871,-87.436"/>
</g>
</g>
</svg>
