<?xml version="1.0" encoding="UTF-8" standalone="no"?>
<!DOCTYPE svg PUBLIC "-//W3C//DTD SVG 1.1//EN"
 "http://www.w3.org/Graphics/SVG/1.1/DTD/svg11.dtd">
<!-- Generated by graphviz version 2.26.3 (20100126.1600)
 -->
<!-- Title: src/analysis/data/TaggerHit.h Pages: 1 -->
<svg width="410pt" height="160pt"
 viewBox="0.00 0.00 410.00 160.00" xmlns="http://www.w3.org/2000/svg" xmlns:xlink="http://www.w3.org/1999/xlink">
<g id="graph1" class="graph" transform="scale(1 1) rotate(0) translate(4 156)">
<title>src/analysis/data/TaggerHit.h</title>
<polygon fill="white" stroke="white" points="-4,5 -4,-156 407,-156 407,5 -4,5"/>
<!-- Node1 -->
<g id="node1" class="node"><title>Node1</title>
<polygon fill="#bfbfbf" stroke="black" points="90,-117 90,-151 214,-151 214,-117 90,-117"/>
<text text-anchor="start" x="98" y="-138" font-family="Helvetica,sans-Serif" font-size="10.00">src/analysis/data/Tagger</text>
<text text-anchor="middle" x="152" y="-125" font-family="Helvetica,sans-Serif" font-size="10.00">Hit.h</text>
</g>
<!-- Node2 -->
<g id="node3" class="node"><title>Node2</title>
<polygon fill="white" stroke="#bfbfbf" points="-0.5,-58.5 -0.5,-79.5 28.5,-79.5 28.5,-58.5 -0.5,-58.5"/>
<text text-anchor="middle" x="14" y="-66.5" font-family="Helvetica,sans-Serif" font-size="10.00">list</text>
</g>
<!-- Node1&#45;&gt;Node2 -->
<g id="edge2" class="edge"><title>Node1&#45;&gt;Node2</title>
<path fill="none" stroke="midnightblue" d="M115.455,-116.921C94.8695,-107.281 68.4774,-94.8937 37.8013,-80.3635"/>
<polygon fill="midnightblue" stroke="midnightblue" points="39.1286,-77.1194 28.5932,-75.9985 36.1301,-83.4447 39.1286,-77.1194"/>
</g>
<!-- Node3 -->
<g id="node5" class="node"><title>Node3</title>
<polygon fill="white" stroke="#bfbfbf" points="46,-58.5 46,-79.5 98,-79.5 98,-58.5 46,-58.5"/>
<text text-anchor="middle" x="72" y="-66.5" font-family="Helvetica,sans-Serif" font-size="10.00">memory</text>
</g>
<!-- Node1&#45;&gt;Node3 -->
<g id="edge4" class="edge"><title>Node1&#45;&gt;Node3</title>
<path fill="none" stroke="midnightblue" d="M130.981,-116.922C119.358,-107.479 104.952,-95.7736 93.287,-86.2957"/>
<polygon fill="midnightblue" stroke="midnightblue" points="95.3247,-83.4416 85.3564,-79.8521 90.9105,-88.8745 95.3247,-83.4416"/>
</g>
<!-- Node4 -->
<g id="node7" class="node"><title>Node4</title>
<a xlink:href="types_8h.html" target="_top" xlink:title="base/types.h">
<polygon fill="white" stroke="black" points="115.5,-58.5 115.5,-79.5 188.5,-79.5 188.5,-58.5 115.5,-58.5"/>
<text text-anchor="middle" x="152" y="-66.5" font-family="Helvetica,sans-Serif" font-size="10.00">base/types.h</text>
</a>
</g>
<!-- Node1&#45;&gt;Node4 -->
<g id="edge6" class="edge"><title>Node1&#45;&gt;Node4</title>
<path fill="none" stroke="midnightblue" d="M152,-116.922C152,-108.67 152,-98.6922 152,-89.9818"/>
<polygon fill="midnightblue" stroke="midnightblue" points="155.5,-89.8521 152,-79.8521 148.5,-89.8521 155.5,-89.8521"/>
</g>
<!-- Node5 -->
<g id="node9" class="node"><title>Node5</title>
<a xlink:href="printable_8h.html" target="_top" xlink:title="base/printable.h">
<polygon fill="white" stroke="black" points="206,-58.5 206,-79.5 292,-79.5 292,-58.5 206,-58.5"/>
<text text-anchor="middle" x="249" y="-66.5" font-family="Helvetica,sans-Serif" font-size="10.00">base/printable.h</text>
</a>
</g>
<!-- Node1&#45;&gt;Node5 -->
<g id="edge8" class="edge"><title>Node1&#45;&gt;Node5</title>
<path fill="none" stroke="midnightblue" d="M177.486,-116.922C192.082,-107.141 210.298,-94.9344 224.692,-85.2887"/>
<polygon fill="midnightblue" stroke="midnightblue" points="226.735,-88.1327 233.094,-79.6584 222.839,-82.3176 226.735,-88.1327"/>
</g>
<!-- Node8 -->
<g id="node15" class="node"><title>Node8</title>
<polygon fill="white" stroke="#bfbfbf" points="310,-58.5 310,-79.5 402,-79.5 402,-58.5 310,-58.5"/>
<text text-anchor="middle" x="356" y="-66.5" font-family="Helvetica,sans-Serif" font-size="10.00">TLorentzVector.h</text>
</g>
<!-- Node1&#45;&gt;Node8 -->
<g id="edge14" class="edge"><title>Node1&#45;&gt;Node8</title>
<path fill="none" stroke="midnightblue" d="M205.599,-116.922C239.153,-106.231 281.805,-92.6407 313.112,-82.6654"/>
<polygon fill="midnightblue" stroke="midnightblue" points="314.386,-85.9328 322.852,-79.562 312.261,-79.2631 314.386,-85.9328"/>
</g>
<!-- Node6 -->
<g id="node11" class="node"><title>Node6</title>
<polygon fill="white" stroke="#bfbfbf" points="194,-0.5 194,-21.5 238,-21.5 238,-0.5 194,-0.5"/>
<text text-anchor="middle" x="216" y="-8.5" font-family="Helvetica,sans-Serif" font-size="10.00">vector</text>
</g>
<!-- Node5&#45;&gt;Node6 -->
<g id="edge10" class="edge"><title>Node5&#45;&gt;Node6</title>
<path fill="none" stroke="midnightblue" d="M242.947,-58.3619C238.528,-50.5949 232.41,-39.8426 227.121,-30.5458"/>
<polygon fill="midnightblue" stroke="midnightblue" points="230.002,-28.5315 222.014,-21.5707 223.918,-31.9932 230.002,-28.5315"/>
</g>
<!-- Node7 -->
<g id="node13" class="node"><title>Node7</title>
<polygon fill="white" stroke="#bfbfbf" points="256,-0.5 256,-21.5 308,-21.5 308,-0.5 256,-0.5"/>
<text text-anchor="middle" x="282" y="-8.5" font-family="Helvetica,sans-Serif" font-size="10.00">ostream</text>
</g>
<!-- Node5&#45;&gt;Node7 -->
<g id="edge12" class="edge"><title>Node5&#45;&gt;Node7</title>
<path fill="none" stroke="midnightblue" d="M255.053,-58.3619C259.472,-50.5949 265.59,-39.8426 270.879,-30.5458"/>
<polygon fill="midnightblue" stroke="midnightblue" points="274.082,-31.9932 275.986,-21.5707 267.998,-28.5315 274.082,-31.9932"/>
</g>
</g>
</svg>
