<?xml version="1.0" encoding="UTF-8" standalone="no"?>
<!DOCTYPE svg PUBLIC "-//W3C//DTD SVG 1.1//EN"
 "http://www.w3.org/Graphics/SVG/1.1/DTD/svg11.dtd">
<!-- Generated by graphviz version 2.26.3 (20100126.1600)
 -->
<!-- Title: src/analysis/data/TaggerHit.cc Pages: 1 -->
<svg width="410pt" height="218pt"
 viewBox="0.00 0.00 410.00 218.00" xmlns="http://www.w3.org/2000/svg" xmlns:xlink="http://www.w3.org/1999/xlink">
<g id="graph1" class="graph" transform="scale(1 1) rotate(0) translate(4 214)">
<title>src/analysis/data/TaggerHit.cc</title>
<polygon fill="white" stroke="white" points="-4,5 -4,-214 407,-214 407,5 -4,5"/>
<!-- Node1 -->
<g id="node1" class="node"><title>Node1</title>
<polygon fill="#bfbfbf" stroke="black" points="90,-175 90,-209 214,-209 214,-175 90,-175"/>
<text text-anchor="start" x="98" y="-196" font-family="Helvetica,sans-Serif" font-size="10.00">src/analysis/data/Tagger</text>
<text text-anchor="middle" x="152" y="-183" font-family="Helvetica,sans-Serif" font-size="10.00">Hit.cc</text>
</g>
<!-- Node2 -->
<g id="node3" class="node"><title>Node2</title>
<a xlink:href="_tagger_hit_8h.html" target="_top" xlink:title="TaggerHit.h">
<polygon fill="white" stroke="black" points="118,-116.5 118,-137.5 186,-137.5 186,-116.5 118,-116.5"/>
<text text-anchor="middle" x="152" y="-124.5" font-family="Helvetica,sans-Serif" font-size="10.00">TaggerHit.h</text>
</a>
</g>
<!-- Node1&#45;&gt;Node2 -->
<g id="edge2" class="edge"><title>Node1&#45;&gt;Node2</title>
<path fill="none" stroke="midnightblue" d="M152,-174.922C152,-166.67 152,-156.692 152,-147.982"/>
<polygon fill="midnightblue" stroke="midnightblue" points="155.5,-147.852 152,-137.852 148.5,-147.852 155.5,-147.852"/>
</g>
<!-- Node3 -->
<g id="node5" class="node"><title>Node3</title>
<polygon fill="white" stroke="#bfbfbf" points="-0.5,-58.5 -0.5,-79.5 28.5,-79.5 28.5,-58.5 -0.5,-58.5"/>
<text text-anchor="middle" x="14" y="-66.5" font-family="Helvetica,sans-Serif" font-size="10.00">list</text>
</g>
<!-- Node2&#45;&gt;Node3 -->
<g id="edge4" class="edge"><title>Node2&#45;&gt;Node3</title>
<path fill="none" stroke="midnightblue" d="M124.859,-116.424C103.358,-107.932 72.3876,-95.454 37.8745,-80.2514"/>
<polygon fill="midnightblue" stroke="midnightblue" points="39.1017,-76.9669 28.5414,-76.1114 36.2633,-83.3657 39.1017,-76.9669"/>
</g>
<!-- Node4 -->
<g id="node7" class="node"><title>Node4</title>
<polygon fill="white" stroke="#bfbfbf" points="46,-58.5 46,-79.5 98,-79.5 98,-58.5 46,-58.5"/>
<text text-anchor="middle" x="72" y="-66.5" font-family="Helvetica,sans-Serif" font-size="10.00">memory</text>
</g>
<!-- Node2&#45;&gt;Node4 -->
<g id="edge6" class="edge"><title>Node2&#45;&gt;Node4</title>
<path fill="none" stroke="midnightblue" d="M137.327,-116.362C125.486,-107.777 108.615,-95.5459 94.9842,-85.6636"/>
<polygon fill="midnightblue" stroke="midnightblue" points="96.7307,-82.6067 86.5802,-79.5707 92.6219,-88.274 96.7307,-82.6067"/>
</g>
<!-- Node5 -->
<g id="node9" class="node"><title>Node5</title>
<a xlink:href="types_8h.html" target="_top" xlink:title="base/types.h">
<polygon fill="white" stroke="black" points="115.5,-58.5 115.5,-79.5 188.5,-79.5 188.5,-58.5 115.5,-58.5"/>
<text text-anchor="middle" x="152" y="-66.5" font-family="Helvetica,sans-Serif" font-size="10.00">base/types.h</text>
</a>
</g>
<!-- Node2&#45;&gt;Node5 -->
<g id="edge8" class="edge"><title>Node2&#45;&gt;Node5</title>
<path fill="none" stroke="midnightblue" d="M152,-116.362C152,-108.922 152,-98.7427 152,-89.7276"/>
<polygon fill="midnightblue" stroke="midnightblue" points="155.5,-89.5706 152,-79.5707 148.5,-89.5707 155.5,-89.5706"/>
</g>
<!-- Node6 -->
<g id="node11" class="node"><title>Node6</title>
<a xlink:href="printable_8h.html" target="_top" xlink:title="base/printable.h">
<polygon fill="white" stroke="black" points="206,-58.5 206,-79.5 292,-79.5 292,-58.5 206,-58.5"/>
<text text-anchor="middle" x="249" y="-66.5" font-family="Helvetica,sans-Serif" font-size="10.00">base/printable.h</text>
</a>
</g>
<!-- Node2&#45;&gt;Node6 -->
<g id="edge10" class="edge"><title>Node2&#45;&gt;Node6</title>
<path fill="none" stroke="midnightblue" d="M169.791,-116.362C184.559,-107.532 205.778,-94.844 222.538,-84.8224"/>
<polygon fill="midnightblue" stroke="midnightblue" points="224.535,-87.7066 231.321,-79.5707 220.943,-81.6987 224.535,-87.7066"/>
</g>
<!-- Node9 -->
<g id="node17" class="node"><title>Node9</title>
<polygon fill="white" stroke="#bfbfbf" points="310,-58.5 310,-79.5 402,-79.5 402,-58.5 310,-58.5"/>
<text text-anchor="middle" x="356" y="-66.5" font-family="Helvetica,sans-Serif" font-size="10.00">TLorentzVector.h</text>
</g>
<!-- Node2&#45;&gt;Node9 -->
<g id="edge16" class="edge"><title>Node2&#45;&gt;Node9</title>
<path fill="none" stroke="midnightblue" d="M186.145,-117.292C219.88,-107.701 271.739,-92.9566 309.281,-82.2828"/>
<polygon fill="midnightblue" stroke="midnightblue" points="310.318,-85.6268 318.98,-79.5254 308.404,-78.8937 310.318,-85.6268"/>
</g>
<!-- Node7 -->
<g id="node13" class="node"><title>Node7</title>
<polygon fill="white" stroke="#bfbfbf" points="194,-0.5 194,-21.5 238,-21.5 238,-0.5 194,-0.5"/>
<text text-anchor="middle" x="216" y="-8.5" font-family="Helvetica,sans-Serif" font-size="10.00">vector</text>
</g>
<!-- Node6&#45;&gt;Node7 -->
<g id="edge12" class="edge"><title>Node6&#45;&gt;Node7</title>
<path fill="none" stroke="midnightblue" d="M242.947,-58.3619C238.528,-50.5949 232.41,-39.8426 227.121,-30.5458"/>
<polygon fill="midnightblue" stroke="midnightblue" points="230.002,-28.5315 222.014,-21.5707 223.918,-31.9932 230.002,-28.5315"/>
</g>
<!-- Node8 -->
<g id="node15" class="node"><title>Node8</title>
<polygon fill="white" stroke="#bfbfbf" points="256,-0.5 256,-21.5 308,-21.5 308,-0.5 256,-0.5"/>
<text text-anchor="middle" x="282" y="-8.5" font-family="Helvetica,sans-Serif" font-size="10.00">ostream</text>
</g>
<!-- Node6&#45;&gt;Node8 -->
<g id="edge14" class="edge"><title>Node6&#45;&gt;Node8</title>
<path fill="none" stroke="midnightblue" d="M255.053,-58.3619C259.472,-50.5949 265.59,-39.8426 270.879,-30.5458"/>
<polygon fill="midnightblue" stroke="midnightblue" points="274.082,-31.9932 275.986,-21.5707 267.998,-28.5315 274.082,-31.9932"/>
</g>
</g>
</svg>
