<?xml version="1.0" encoding="UTF-8" standalone="no"?>
<!DOCTYPE svg PUBLIC "-//W3C//DTD SVG 1.1//EN"
 "http://www.w3.org/Graphics/SVG/1.1/DTD/svg11.dtd">
<!-- Generated by graphviz version 2.26.3 (20100126.1600)
 -->
<!-- Title: src/analysis/input/goat/detail/TrackInput.h Pages: 1 -->
<svg width="530pt" height="188pt"
 viewBox="0.00 0.00 530.00 188.00" xmlns="http://www.w3.org/2000/svg" xmlns:xlink="http://www.w3.org/1999/xlink">
<g id="graph1" class="graph" transform="scale(1 1) rotate(0) translate(4 184)">
<title>src/analysis/input/goat/detail/TrackInput.h</title>
<polygon fill="white" stroke="white" points="-4,5 -4,-184 527,-184 527,5 -4,5"/>
<!-- Node1 -->
<g id="node1" class="node"><title>Node1</title>
<polygon fill="#bfbfbf" stroke="black" points="157,-145 157,-179 279,-179 279,-145 157,-145"/>
<text text-anchor="start" x="165" y="-166" font-family="Helvetica,sans-Serif" font-size="10.00">src/analysis/input</text>
<text text-anchor="middle" x="218" y="-153" font-family="Helvetica,sans-Serif" font-size="10.00">/goat/detail/TrackInput.h</text>
</g>
<!-- Node2 -->
<g id="node3" class="node"><title>Node2</title>
<a xlink:href="_track_input_8cc.html" target="_top" xlink:title="src/analysis/input\l/goat/detail/TrackInput.cc">
<polygon fill="white" stroke="black" points="21,-73 21,-107 149,-107 149,-73 21,-73"/>
<text text-anchor="start" x="29" y="-94" font-family="Helvetica,sans-Serif" font-size="10.00">src/analysis/input</text>
<text text-anchor="middle" x="85" y="-81" font-family="Helvetica,sans-Serif" font-size="10.00">/goat/detail/TrackInput.cc</text>
</a>
</g>
<!-- Node1&#45;&gt;Node2 -->
<g id="edge2" class="edge"><title>Node1&#45;&gt;Node2</title>
<path fill="none" stroke="midnightblue" d="M177.515,-140.083C158.012,-129.525 134.966,-117.049 116.754,-107.19"/>
<polygon fill="midnightblue" stroke="midnightblue" points="176.021,-143.254 186.481,-144.937 179.353,-137.098 176.021,-143.254"/>
</g>
<!-- Node3 -->
<g id="node5" class="node"><title>Node3</title>
<a xlink:href="_goat_reader_8h.html" target="_top" xlink:title="src/analysis/input\l/goat/GoatReader.h">
<polygon fill="white" stroke="black" points="167,-73 167,-107 269,-107 269,-73 167,-73"/>
<text text-anchor="start" x="175" y="-94" font-family="Helvetica,sans-Serif" font-size="10.00">src/analysis/input</text>
<text text-anchor="middle" x="218" y="-81" font-family="Helvetica,sans-Serif" font-size="10.00">/goat/GoatReader.h</text>
</a>
</g>
<!-- Node1&#45;&gt;Node3 -->
<g id="edge4" class="edge"><title>Node1&#45;&gt;Node3</title>
<path fill="none" stroke="midnightblue" d="M218,-134.719C218,-125.572 218,-115.625 218,-107.441"/>
<polygon fill="midnightblue" stroke="midnightblue" points="214.5,-134.937 218,-144.937 221.5,-134.937 214.5,-134.937"/>
</g>
<!-- Node8 -->
<g id="node15" class="node"><title>Node8</title>
<a xlink:href="_test_input_module_8cc.html" target="_top" xlink:title="test/analysis/TestInputModule.cc">
<polygon fill="white" stroke="black" points="286.5,-79.5 286.5,-100.5 447.5,-100.5 447.5,-79.5 286.5,-79.5"/>
<text text-anchor="middle" x="367" y="-87.5" font-family="Helvetica,sans-Serif" font-size="10.00">test/analysis/TestInputModule.cc</text>
</a>
</g>
<!-- Node1&#45;&gt;Node8 -->
<g id="edge14" class="edge"><title>Node1&#45;&gt;Node8</title>
<path fill="none" stroke="midnightblue" d="M262.621,-140.438C289.775,-127.317 323.277,-111.128 344.882,-100.688"/>
<polygon fill="midnightblue" stroke="midnightblue" points="260.792,-137.435 253.311,-144.937 263.838,-143.737 260.792,-137.435"/>
</g>
<!-- Node4 -->
<g id="node7" class="node"><title>Node4</title>
<a xlink:href="_ant_8cc.html" target="_top" xlink:title="progs/Ant.cc">
<polygon fill="white" stroke="black" points="0,-7.5 0,-28.5 72,-28.5 72,-7.5 0,-7.5"/>
<text text-anchor="middle" x="36" y="-15.5" font-family="Helvetica,sans-Serif" font-size="10.00">progs/Ant.cc</text>
</a>
</g>
<!-- Node3&#45;&gt;Node4 -->
<g id="edge6" class="edge"><title>Node3&#45;&gt;Node4</title>
<path fill="none" stroke="midnightblue" d="M165.02,-69.1894C139.596,-59.1841 108.706,-47.0015 81,-36 75.0565,-33.64 68.6759,-31.0948 62.6416,-28.6824"/>
<polygon fill="midnightblue" stroke="midnightblue" points="163.892,-72.5065 174.479,-72.9104 166.455,-65.9925 163.892,-72.5065"/>
</g>
<!-- Node5 -->
<g id="node9" class="node"><title>Node5</title>
<a xlink:href="_goat_reader_8cc.html" target="_top" xlink:title="src/analysis/input\l/goat/GoatReader.cc">
<polygon fill="white" stroke="black" points="89.5,-1 89.5,-35 196.5,-35 196.5,-1 89.5,-1"/>
<text text-anchor="start" x="97.5" y="-22" font-family="Helvetica,sans-Serif" font-size="10.00">src/analysis/input</text>
<text text-anchor="middle" x="143" y="-9" font-family="Helvetica,sans-Serif" font-size="10.00">/goat/GoatReader.cc</text>
</a>
</g>
<!-- Node3&#45;&gt;Node5 -->
<g id="edge8" class="edge"><title>Node3&#45;&gt;Node5</title>
<path fill="none" stroke="midnightblue" d="M192.905,-65.9083C182.421,-55.8438 170.479,-44.3799 160.906,-35.19"/>
<polygon fill="midnightblue" stroke="midnightblue" points="190.588,-68.5365 200.226,-72.937 195.436,-63.4868 190.588,-68.5365"/>
</g>
<!-- Node6 -->
<g id="node11" class="node"><title>Node6</title>
<a xlink:href="_test_goat_reader_8cc.html" target="_top" xlink:title="test/analysis/TestGoatReader.cc">
<polygon fill="white" stroke="black" points="213.5,-7.5 213.5,-28.5 374.5,-28.5 374.5,-7.5 213.5,-7.5"/>
<text text-anchor="middle" x="294" y="-15.5" font-family="Helvetica,sans-Serif" font-size="10.00">test/analysis/TestGoatReader.cc</text>
</a>
</g>
<!-- Node3&#45;&gt;Node6 -->
<g id="edge10" class="edge"><title>Node3&#45;&gt;Node6</title>
<path fill="none" stroke="midnightblue" d="M243.473,-65.8677C256.689,-53.3471 272.182,-38.67 282.493,-28.901"/>
<polygon fill="midnightblue" stroke="midnightblue" points="240.863,-63.5187 236.011,-72.937 245.678,-68.6004 240.863,-63.5187"/>
</g>
<!-- Node7 -->
<g id="node13" class="node"><title>Node7</title>
<a xlink:href="_test_physics_manager_8cc.html" target="_top" xlink:title="test/analysis/TestPhysics\lManager.cc">
<polygon fill="white" stroke="black" points="392,-1 392,-35 522,-35 522,-1 392,-1"/>
<text text-anchor="start" x="400" y="-22" font-family="Helvetica,sans-Serif" font-size="10.00">test/analysis/TestPhysics</text>
<text text-anchor="middle" x="457" y="-9" font-family="Helvetica,sans-Serif" font-size="10.00">Manager.cc</text>
</a>
</g>
<!-- Node3&#45;&gt;Node7 -->
<g id="edge12" class="edge"><title>Node3&#45;&gt;Node7</title>
<path fill="none" stroke="midnightblue" d="M279.029,-71.6147C316.386,-60.3608 363.859,-46.0592 400.378,-35.0576"/>
<polygon fill="midnightblue" stroke="midnightblue" points="277.837,-68.3184 269.271,-74.5542 279.856,-75.0209 277.837,-68.3184"/>
</g>
</g>
</svg>
