<?xml version="1.0" encoding="UTF-8" standalone="no"?>
<!DOCTYPE svg PUBLIC "-//W3C//DTD SVG 1.1//EN"
 "http://www.w3.org/Graphics/SVG/1.1/DTD/svg11.dtd">
<!-- Generated by graphviz version 2.26.3 (20100126.1600)
 -->
<!-- Title: src/base/Tree.h Pages: 1 -->
<svg width="106pt" height="88pt"
 viewBox="0.00 0.00 106.00 88.00" xmlns="http://www.w3.org/2000/svg" xmlns:xlink="http://www.w3.org/1999/xlink">
<g id="graph1" class="graph" transform="scale(1 1) rotate(0) translate(4 84)">
<title>src/base/Tree.h</title>
<polygon fill="white" stroke="white" points="-4,5 -4,-84 103,-84 103,5 -4,5"/>
<!-- Node1 -->
<g id="node1" class="node"><title>Node1</title>
<polygon fill="#bfbfbf" stroke="black" points="12.5,-58.5 12.5,-79.5 97.5,-79.5 97.5,-58.5 12.5,-58.5"/>
<text text-anchor="middle" x="55" y="-66.5" font-family="Helvetica,sans-Serif" font-size="10.00">src/base/Tree.h</text>
</g>
<!-- Node2 -->
<g id="node3" class="node"><title>Node2</title>
<polygon fill="white" stroke="#bfbfbf" points="0,-0.5 0,-21.5 52,-21.5 52,-0.5 0,-0.5"/>
<text text-anchor="middle" x="26" y="-8.5" font-family="Helvetica,sans-Serif" font-size="10.00">memory</text>
</g>
<!-- Node1&#45;&gt;Node2 -->
<g id="edge2" class="edge"><title>Node1&#45;&gt;Node2</title>
<path fill="none" stroke="midnightblue" d="M49.681,-58.3619C45.7974,-50.5949 40.4213,-39.8426 35.7729,-30.5458"/>
<polygon fill="midnightblue" stroke="midnightblue" points="38.888,-28.9497 31.2853,-21.5707 32.627,-32.0802 38.888,-28.9497"/>
</g>
<!-- Node3 -->
<g id="node5" class="node"><title>Node3</title>
<polygon fill="white" stroke="#bfbfbf" points="69.5,-0.5 69.5,-21.5 98.5,-21.5 98.5,-0.5 69.5,-0.5"/>
<text text-anchor="middle" x="84" y="-8.5" font-family="Helvetica,sans-Serif" font-size="10.00">list</text>
</g>
<!-- Node1&#45;&gt;Node3 -->
<g id="edge4" class="edge"><title>Node1&#45;&gt;Node3</title>
<path fill="none" stroke="midnightblue" d="M60.319,-58.3619C64.2026,-50.5949 69.5787,-39.8426 74.2271,-30.5458"/>
<polygon fill="midnightblue" stroke="midnightblue" points="77.373,-32.0802 78.7147,-21.5707 71.112,-28.9497 77.373,-32.0802"/>
</g>
</g>
</svg>
