<?xml version="1.0" encoding="UTF-8" standalone="no"?>
<!DOCTYPE svg PUBLIC "-//W3C//DTD SVG 1.1//EN"
 "http://www.w3.org/Graphics/SVG/1.1/DTD/svg11.dtd">
<!-- Generated by graphviz version 2.26.3 (20100126.1600)
 -->
<!-- Title: src/analysis/input/goat/detail/TreeManager.h Pages: 1 -->
<svg width="448pt" height="116pt"
 viewBox="0.00 0.00 448.00 116.00" xmlns="http://www.w3.org/2000/svg" xmlns:xlink="http://www.w3.org/1999/xlink">
<g id="graph1" class="graph" transform="scale(1 1) rotate(0) translate(4 112)">
<title>src/analysis/input/goat/detail/TreeManager.h</title>
<polygon fill="white" stroke="white" points="-4,5 -4,-112 445,-112 445,5 -4,5"/>
<!-- Node1 -->
<g id="node1" class="node"><title>Node1</title>
<polygon fill="#bfbfbf" stroke="black" points="142.5,-73 142.5,-107 275.5,-107 275.5,-73 142.5,-73"/>
<text text-anchor="start" x="150.5" y="-94" font-family="Helvetica,sans-Serif" font-size="10.00">src/analysis/input</text>
<text text-anchor="middle" x="209" y="-81" font-family="Helvetica,sans-Serif" font-size="10.00">/goat/detail/TreeManager.h</text>
</g>
<!-- Node2 -->
<g id="node3" class="node"><title>Node2</title>
<a xlink:href="_tree_manager_8cc.html" target="_top" xlink:title="src/analysis/input\l/goat/detail/TreeManager.cc">
<polygon fill="white" stroke="black" points="0,-1 0,-35 138,-35 138,-1 0,-1"/>
<text text-anchor="start" x="8" y="-22" font-family="Helvetica,sans-Serif" font-size="10.00">src/analysis/input</text>
<text text-anchor="middle" x="69" y="-9" font-family="Helvetica,sans-Serif" font-size="10.00">/goat/detail/TreeManager.cc</text>
</a>
</g>
<!-- Node1&#45;&gt;Node2 -->
<g id="edge2" class="edge"><title>Node1&#45;&gt;Node2</title>
<path fill="none" stroke="midnightblue" d="M166.662,-68.2264C146.075,-57.6383 121.682,-45.0936 102.425,-35.19"/>
<polygon fill="midnightblue" stroke="midnightblue" points="165.328,-71.476 175.822,-72.937 168.53,-65.251 165.328,-71.476"/>
</g>
<!-- Node3 -->
<g id="node5" class="node"><title>Node3</title>
<a xlink:href="_goat_reader_8cc.html" target="_top" xlink:title="src/analysis/input\l/goat/GoatReader.cc">
<polygon fill="white" stroke="black" points="155.5,-1 155.5,-35 262.5,-35 262.5,-1 155.5,-1"/>
<text text-anchor="start" x="163.5" y="-22" font-family="Helvetica,sans-Serif" font-size="10.00">src/analysis/input</text>
<text text-anchor="middle" x="209" y="-9" font-family="Helvetica,sans-Serif" font-size="10.00">/goat/GoatReader.cc</text>
</a>
</g>
<!-- Node1&#45;&gt;Node3 -->
<g id="edge4" class="edge"><title>Node1&#45;&gt;Node3</title>
<path fill="none" stroke="midnightblue" d="M209,-62.7193C209,-53.572 209,-43.6255 209,-35.4407"/>
<polygon fill="midnightblue" stroke="midnightblue" points="205.5,-62.937 209,-72.937 212.5,-62.937 205.5,-62.937"/>
</g>
<!-- Node4 -->
<g id="node7" class="node"><title>Node4</title>
<a xlink:href="_test_input_module_8cc.html" target="_top" xlink:title="test/analysis/TestInputModule.cc">
<polygon fill="white" stroke="black" points="279.5,-7.5 279.5,-28.5 440.5,-28.5 440.5,-7.5 279.5,-7.5"/>
<text text-anchor="middle" x="360" y="-15.5" font-family="Helvetica,sans-Serif" font-size="10.00">test/analysis/TestInputModule.cc</text>
</a>
</g>
<!-- Node1&#45;&gt;Node4 -->
<g id="edge6" class="edge"><title>Node1&#45;&gt;Node4</title>
<path fill="none" stroke="midnightblue" d="M253.86,-68.6099C281.442,-55.4582 315.594,-39.1736 337.585,-28.688"/>
<polygon fill="midnightblue" stroke="midnightblue" points="252.305,-65.4737 244.785,-72.937 255.318,-71.7922 252.305,-65.4737"/>
</g>
</g>
</svg>
