<?xml version="1.0" encoding="UTF-8" standalone="no"?>
<!DOCTYPE svg PUBLIC "-//W3C//DTD SVG 1.1//EN"
 "http://www.w3.org/Graphics/SVG/1.1/DTD/svg11.dtd">
<!-- Generated by graphviz version 2.26.3 (20100126.1600)
 -->
<!-- Title: src/expconfig/detectors/Trigger.h Pages: 1 -->
<svg width="568pt" height="260pt"
 viewBox="0.00 0.00 568.00 260.00" xmlns="http://www.w3.org/2000/svg" xmlns:xlink="http://www.w3.org/1999/xlink">
<g id="graph1" class="graph" transform="scale(1 1) rotate(0) translate(4 256)">
<title>src/expconfig/detectors/Trigger.h</title>
<polygon fill="white" stroke="white" points="-4,5 -4,-256 565,-256 565,5 -4,5"/>
<!-- Node1 -->
<g id="node1" class="node"><title>Node1</title>
<polygon fill="#bfbfbf" stroke="black" points="184.5,-217 184.5,-251 303.5,-251 303.5,-217 184.5,-217"/>
<text text-anchor="start" x="192.5" y="-238" font-family="Helvetica,sans-Serif" font-size="10.00">src/expconfig/detectors</text>
<text text-anchor="middle" x="244" y="-225" font-family="Helvetica,sans-Serif" font-size="10.00">/Trigger.h</text>
</g>
<!-- Node2 -->
<g id="node3" class="node"><title>Node2</title>
<a xlink:href="_trigger_8cc.html" target="_top" xlink:title="src/expconfig/detectors\l/Trigger.cc">
<polygon fill="white" stroke="black" points="119.5,-145 119.5,-179 238.5,-179 238.5,-145 119.5,-145"/>
<text text-anchor="start" x="127.5" y="-166" font-family="Helvetica,sans-Serif" font-size="10.00">src/expconfig/detectors</text>
<text text-anchor="middle" x="179" y="-153" font-family="Helvetica,sans-Serif" font-size="10.00">/Trigger.cc</text>
</a>
</g>
<!-- Node1&#45;&gt;Node2 -->
<g id="edge2" class="edge"><title>Node1&#45;&gt;Node2</title>
<path fill="none" stroke="midnightblue" d="M221.772,-209.379C212.886,-199.535 202.857,-188.426 194.745,-179.441"/>
<polygon fill="midnightblue" stroke="midnightblue" points="219.297,-211.86 228.596,-216.937 224.493,-207.169 219.297,-211.86"/>
</g>
<!-- Node3 -->
<g id="node5" class="node"><title>Node3</title>
<a xlink:href="_setup_8h.html" target="_top" xlink:title="src/expconfig/setups\l/Setup.h">
<polygon fill="white" stroke="black" points="255.5,-145 255.5,-179 362.5,-179 362.5,-145 255.5,-145"/>
<text text-anchor="start" x="263.5" y="-166" font-family="Helvetica,sans-Serif" font-size="10.00">src/expconfig/setups</text>
<text text-anchor="middle" x="309" y="-153" font-family="Helvetica,sans-Serif" font-size="10.00">/Setup.h</text>
</a>
</g>
<!-- Node1&#45;&gt;Node3 -->
<g id="edge4" class="edge"><title>Node1&#45;&gt;Node3</title>
<path fill="none" stroke="midnightblue" d="M266.228,-209.379C275.114,-199.535 285.143,-188.426 293.255,-179.441"/>
<polygon fill="midnightblue" stroke="midnightblue" points="263.507,-207.169 259.404,-216.937 268.703,-211.86 263.507,-207.169"/>
</g>
<!-- Node4 -->
<g id="node7" class="node"><title>Node4</title>
<a xlink:href="_exp_config_8cc.html" target="_top" xlink:title="src/expconfig/ExpConfig.cc">
<polygon fill="white" stroke="black" points="35.5,-79.5 35.5,-100.5 172.5,-100.5 172.5,-79.5 35.5,-79.5"/>
<text text-anchor="middle" x="104" y="-87.5" font-family="Helvetica,sans-Serif" font-size="10.00">src/expconfig/ExpConfig.cc</text>
</a>
</g>
<!-- Node3&#45;&gt;Node4 -->
<g id="edge6" class="edge"><title>Node3&#45;&gt;Node4</title>
<path fill="none" stroke="midnightblue" d="M250.98,-141.622C212.933,-128.259 164.741,-111.333 134.13,-100.582"/>
<polygon fill="midnightblue" stroke="midnightblue" points="249.823,-144.925 260.418,-144.937 252.143,-138.321 249.823,-144.925"/>
</g>
<!-- Node5 -->
<g id="node9" class="node"><title>Node5</title>
<a xlink:href="_setup__2014___e_p_t_8h.html" target="_top" xlink:title="src/expconfig/setups\l/Setup_2014_EPT.h">
<polygon fill="white" stroke="black" points="189.5,-73 189.5,-107 296.5,-107 296.5,-73 189.5,-73"/>
<text text-anchor="start" x="197.5" y="-94" font-family="Helvetica,sans-Serif" font-size="10.00">src/expconfig/setups</text>
<text text-anchor="middle" x="243" y="-81" font-family="Helvetica,sans-Serif" font-size="10.00">/Setup_2014_EPT.h</text>
</a>
</g>
<!-- Node3&#45;&gt;Node5 -->
<g id="edge8" class="edge"><title>Node3&#45;&gt;Node5</title>
<path fill="none" stroke="midnightblue" d="M286.43,-137.379C277.407,-127.535 267.224,-116.426 258.987,-107.441"/>
<polygon fill="midnightblue" stroke="midnightblue" points="284.022,-139.93 293.359,-144.937 289.182,-135.2 284.022,-139.93"/>
</g>
<!-- Node9 -->
<g id="node17" class="node"><title>Node9</title>
<a xlink:href="_setup__2015__dummy_8cc.html" target="_top" xlink:title="src/expconfig/setups\l/Setup_2015_dummy.cc">
<polygon fill="white" stroke="black" points="314,-73 314,-107 436,-107 436,-73 314,-73"/>
<text text-anchor="start" x="322" y="-94" font-family="Helvetica,sans-Serif" font-size="10.00">src/expconfig/setups</text>
<text text-anchor="middle" x="375" y="-81" font-family="Helvetica,sans-Serif" font-size="10.00">/Setup_2015_dummy.cc</text>
</a>
</g>
<!-- Node3&#45;&gt;Node9 -->
<g id="edge16" class="edge"><title>Node3&#45;&gt;Node9</title>
<path fill="none" stroke="midnightblue" d="M331.57,-137.379C340.593,-127.535 350.776,-116.426 359.013,-107.441"/>
<polygon fill="midnightblue" stroke="midnightblue" points="328.818,-135.2 324.641,-144.937 333.978,-139.93 328.818,-135.2"/>
</g>
<!-- Node10 -->
<g id="node19" class="node"><title>Node10</title>
<a xlink:href="_setup_registry_8cc.html" target="_top" xlink:title="src/expconfig/setups\l/SetupRegistry.cc">
<polygon fill="white" stroke="black" points="453.5,-73 453.5,-107 560.5,-107 560.5,-73 453.5,-73"/>
<text text-anchor="start" x="461.5" y="-94" font-family="Helvetica,sans-Serif" font-size="10.00">src/expconfig/setups</text>
<text text-anchor="middle" x="507" y="-81" font-family="Helvetica,sans-Serif" font-size="10.00">/SetupRegistry.cc</text>
</a>
</g>
<!-- Node3&#45;&gt;Node10 -->
<g id="edge18" class="edge"><title>Node3&#45;&gt;Node10</title>
<path fill="none" stroke="midnightblue" d="M365.399,-141.491C395.335,-130.606 431.692,-117.385 460.071,-107.065"/>
<polygon fill="midnightblue" stroke="midnightblue" points="364.125,-138.23 355.923,-144.937 366.517,-144.809 364.125,-138.23"/>
</g>
<!-- Node6 -->
<g id="node11" class="node"><title>Node6</title>
<a xlink:href="_setup__2014__07___e_p_t___prod_8cc.html" target="_top" xlink:title="src/expconfig/setups\l/Setup_2014_07_EPT_Prod.cc">
<polygon fill="white" stroke="black" points="-0.5,-1 -0.5,-35 150.5,-35 150.5,-1 -0.5,-1"/>
<text text-anchor="start" x="7.5" y="-22" font-family="Helvetica,sans-Serif" font-size="10.00">src/expconfig/setups</text>
<text text-anchor="middle" x="75" y="-9" font-family="Helvetica,sans-Serif" font-size="10.00">/Setup_2014_07_EPT_Prod.cc</text>
</a>
</g>
<!-- Node5&#45;&gt;Node6 -->
<g id="edge10" class="edge"><title>Node5&#45;&gt;Node6</title>
<path fill="none" stroke="midnightblue" d="M193.822,-68.9238C168.68,-58.1485 138.48,-45.2059 114.819,-35.0651"/>
<polygon fill="midnightblue" stroke="midnightblue" points="192.616,-72.2148 203.186,-72.937 195.374,-65.7807 192.616,-72.2148"/>
</g>
<!-- Node7 -->
<g id="node13" class="node"><title>Node7</title>
<a xlink:href="_setup__2014__10___e_p_t___prod_8cc.html" target="_top" xlink:title="src/expconfig/setups\l/Setup_2014_10_EPT_Prod.cc">
<polygon fill="white" stroke="black" points="167.5,-1 167.5,-35 318.5,-35 318.5,-1 167.5,-1"/>
<text text-anchor="start" x="175.5" y="-22" font-family="Helvetica,sans-Serif" font-size="10.00">src/expconfig/setups</text>
<text text-anchor="middle" x="243" y="-9" font-family="Helvetica,sans-Serif" font-size="10.00">/Setup_2014_10_EPT_Prod.cc</text>
</a>
</g>
<!-- Node5&#45;&gt;Node7 -->
<g id="edge12" class="edge"><title>Node5&#45;&gt;Node7</title>
<path fill="none" stroke="midnightblue" d="M243,-62.7193C243,-53.572 243,-43.6255 243,-35.4407"/>
<polygon fill="midnightblue" stroke="midnightblue" points="239.5,-62.937 243,-72.937 246.5,-62.937 239.5,-62.937"/>
</g>
<!-- Node8 -->
<g id="node15" class="node"><title>Node8</title>
<a xlink:href="_setup__2014__12___e_p_t___prod_8cc.html" target="_top" xlink:title="src/expconfig/setups\l/Setup_2014_12_EPT_Prod.cc">
<polygon fill="white" stroke="black" points="335.5,-1 335.5,-35 486.5,-35 486.5,-1 335.5,-1"/>
<text text-anchor="start" x="343.5" y="-22" font-family="Helvetica,sans-Serif" font-size="10.00">src/expconfig/setups</text>
<text text-anchor="middle" x="411" y="-9" font-family="Helvetica,sans-Serif" font-size="10.00">/Setup_2014_12_EPT_Prod.cc</text>
</a>
</g>
<!-- Node5&#45;&gt;Node8 -->
<g id="edge14" class="edge"><title>Node5&#45;&gt;Node8</title>
<path fill="none" stroke="midnightblue" d="M292.178,-68.9238C317.32,-58.1485 347.52,-45.2059 371.181,-35.0651"/>
<polygon fill="midnightblue" stroke="midnightblue" points="290.626,-65.7807 282.814,-72.937 293.384,-72.2148 290.626,-65.7807"/>
</g>
</g>
</svg>
