<?xml version="1.0" encoding="UTF-8" standalone="no"?>
<!DOCTYPE svg PUBLIC "-//W3C//DTD SVG 1.1//EN"
 "http://www.w3.org/Graphics/SVG/1.1/DTD/svg11.dtd">
<!-- Generated by graphviz version 2.26.3 (20100126.1600)
 -->
<!-- Title: src/analysis/data/TriggerInfo.h Pages: 1 -->
<svg width="699pt" height="334pt"
 viewBox="0.00 0.00 699.45 334.00" xmlns="http://www.w3.org/2000/svg" xmlns:xlink="http://www.w3.org/1999/xlink">
<g id="graph1" class="graph" transform="scale(1 1) rotate(0) translate(4 330)">
<title>src/analysis/data/TriggerInfo.h</title>
<polygon fill="white" stroke="white" points="-4,5 -4,-330 696.45,-330 696.45,5 -4,5"/>
<!-- Node1 -->
<g id="node1" class="node"><title>Node1</title>
<polygon fill="#bfbfbf" stroke="black" points="341,-291 341,-325 465,-325 465,-291 341,-291"/>
<text text-anchor="start" x="349" y="-312" font-family="Helvetica,sans-Serif" font-size="10.00">src/analysis/data/Trigger</text>
<text text-anchor="middle" x="403" y="-299" font-family="Helvetica,sans-Serif" font-size="10.00">Info.h</text>
</g>
<!-- Node2 -->
<g id="node3" class="node"><title>Node2</title>
<a xlink:href="types_8h.html" target="_top" xlink:title="base/types.h">
<polygon fill="white" stroke="black" points="220.5,-232.5 220.5,-253.5 293.5,-253.5 293.5,-232.5 220.5,-232.5"/>
<text text-anchor="middle" x="257" y="-240.5" font-family="Helvetica,sans-Serif" font-size="10.00">base/types.h</text>
</a>
</g>
<!-- Node1&#45;&gt;Node2 -->
<g id="edge2" class="edge"><title>Node1&#45;&gt;Node2</title>
<path fill="none" stroke="midnightblue" d="M364.64,-290.922C341.531,-280.634 312.393,-267.661 290.262,-257.809"/>
<polygon fill="midnightblue" stroke="midnightblue" points="291.499,-254.528 280.94,-253.658 288.652,-260.923 291.499,-254.528"/>
</g>
<!-- Node3 -->
<g id="node5" class="node"><title>Node3</title>
<a xlink:href="printable_8h.html" target="_top" xlink:title="base/printable.h">
<polygon fill="white" stroke="black" points="16,-116.5 16,-137.5 102,-137.5 102,-116.5 16,-116.5"/>
<text text-anchor="middle" x="59" y="-124.5" font-family="Helvetica,sans-Serif" font-size="10.00">base/printable.h</text>
</a>
</g>
<!-- Node1&#45;&gt;Node3 -->
<g id="edge4" class="edge"><title>Node1&#45;&gt;Node3</title>
<path fill="none" stroke="midnightblue" d="M383.108,-290.774C363.424,-274.289 331.977,-249.422 302,-232 234.159,-192.571 148.721,-159.031 99.3344,-141.062"/>
<polygon fill="midnightblue" stroke="midnightblue" points="100.252,-137.673 89.6581,-137.574 97.8782,-144.258 100.252,-137.673"/>
</g>
<!-- Node6 -->
<g id="node11" class="node"><title>Node6</title>
<a xlink:href="_t_data_record_8h.html" target="_top" xlink:title="tree/TDataRecord.h">
<polygon fill="white" stroke="black" points="351.5,-232.5 351.5,-253.5 454.5,-253.5 454.5,-232.5 351.5,-232.5"/>
<text text-anchor="middle" x="403" y="-240.5" font-family="Helvetica,sans-Serif" font-size="10.00">tree/TDataRecord.h</text>
</a>
</g>
<!-- Node1&#45;&gt;Node6 -->
<g id="edge10" class="edge"><title>Node1&#45;&gt;Node6</title>
<path fill="none" stroke="midnightblue" d="M403,-290.922C403,-282.67 403,-272.692 403,-263.982"/>
<polygon fill="midnightblue" stroke="midnightblue" points="406.5,-263.852 403,-253.852 399.5,-263.852 406.5,-263.852"/>
</g>
<!-- Node21 -->
<g id="node46" class="node"><title>Node21</title>
<polygon fill="white" stroke="#bfbfbf" points="471.5,-232.5 471.5,-253.5 500.5,-253.5 500.5,-232.5 471.5,-232.5"/>
<text text-anchor="middle" x="486" y="-240.5" font-family="Helvetica,sans-Serif" font-size="10.00">list</text>
</g>
<!-- Node1&#45;&gt;Node21 -->
<g id="edge50" class="edge"><title>Node1&#45;&gt;Node21</title>
<path fill="none" stroke="midnightblue" d="M424.807,-290.922C436.983,-281.387 452.103,-269.546 464.266,-260.02"/>
<polygon fill="midnightblue" stroke="midnightblue" points="466.428,-262.773 472.143,-253.852 462.112,-257.262 466.428,-262.773"/>
</g>
<!-- Node22 -->
<g id="node48" class="node"><title>Node22</title>
<polygon fill="white" stroke="#bfbfbf" points="518,-232.5 518,-253.5 570,-253.5 570,-232.5 518,-232.5"/>
<text text-anchor="middle" x="544" y="-240.5" font-family="Helvetica,sans-Serif" font-size="10.00">memory</text>
</g>
<!-- Node1&#45;&gt;Node22 -->
<g id="edge52" class="edge"><title>Node1&#45;&gt;Node22</title>
<path fill="none" stroke="midnightblue" d="M440.046,-290.922C462.264,-280.68 490.252,-267.777 511.589,-257.941"/>
<polygon fill="midnightblue" stroke="midnightblue" points="513.263,-261.023 520.88,-253.658 510.333,-254.666 513.263,-261.023"/>
</g>
<!-- Node4 -->
<g id="node7" class="node"><title>Node4</title>
<polygon fill="white" stroke="#bfbfbf" points="70,-58.5 70,-79.5 114,-79.5 114,-58.5 70,-58.5"/>
<text text-anchor="middle" x="92" y="-66.5" font-family="Helvetica,sans-Serif" font-size="10.00">vector</text>
</g>
<!-- Node3&#45;&gt;Node4 -->
<g id="edge6" class="edge"><title>Node3&#45;&gt;Node4</title>
<path fill="none" stroke="midnightblue" d="M65.0527,-116.362C69.4719,-108.595 75.5896,-97.8426 80.8791,-88.5458"/>
<polygon fill="midnightblue" stroke="midnightblue" points="84.0824,-89.9932 85.9857,-79.5707 77.9983,-86.5315 84.0824,-89.9932"/>
</g>
<!-- Node5 -->
<g id="node9" class="node"><title>Node5</title>
<polygon fill="white" stroke="#bfbfbf" points="0,-58.5 0,-79.5 52,-79.5 52,-58.5 0,-58.5"/>
<text text-anchor="middle" x="26" y="-66.5" font-family="Helvetica,sans-Serif" font-size="10.00">ostream</text>
</g>
<!-- Node3&#45;&gt;Node5 -->
<g id="edge8" class="edge"><title>Node3&#45;&gt;Node5</title>
<path fill="none" stroke="midnightblue" d="M52.9473,-116.362C48.5281,-108.595 42.4104,-97.8426 37.1209,-88.5458"/>
<polygon fill="midnightblue" stroke="midnightblue" points="40.0017,-86.5315 32.0143,-79.5707 33.9176,-89.9932 40.0017,-86.5315"/>
</g>
<!-- Node7 -->
<g id="node13" class="node"><title>Node7</title>
<a xlink:href="_t_i_d_8h.html" target="_top" xlink:title="TID.h">
<polygon fill="white" stroke="black" points="386.5,-174.5 386.5,-195.5 427.5,-195.5 427.5,-174.5 386.5,-174.5"/>
<text text-anchor="middle" x="407" y="-182.5" font-family="Helvetica,sans-Serif" font-size="10.00">TID.h</text>
</a>
</g>
<!-- Node6&#45;&gt;Node7 -->
<g id="edge12" class="edge"><title>Node6&#45;&gt;Node7</title>
<path fill="none" stroke="midnightblue" d="M403.734,-232.362C404.247,-224.922 404.949,-214.743 405.571,-205.728"/>
<polygon fill="midnightblue" stroke="midnightblue" points="409.075,-205.788 406.271,-195.571 402.091,-205.306 409.075,-205.788"/>
</g>
<!-- Node8 -->
<g id="node15" class="node"><title>Node8</title>
<polygon fill="white" stroke="#bfbfbf" points="120,-116.5 120,-137.5 176,-137.5 176,-116.5 120,-116.5"/>
<text text-anchor="middle" x="148" y="-124.5" font-family="Helvetica,sans-Serif" font-size="10.00">Rtypes.h</text>
</g>
<!-- Node6&#45;&gt;Node8 -->
<g id="edge44" class="edge"><title>Node6&#45;&gt;Node8</title>
<path fill="none" stroke="midnightblue" d="M395.549,-232.303C384.27,-216.952 361.36,-188.888 335,-174 277.985,-141.799 253.451,-154.483 186.042,-138.079"/>
<polygon fill="midnightblue" stroke="midnightblue" points="186.794,-134.659 176.238,-135.564 185.054,-141.439 186.794,-134.659"/>
</g>
<!-- Node15 -->
<g id="node30" class="node"><title>Node15</title>
<polygon fill="white" stroke="#bfbfbf" points="443.5,-58.5 443.5,-79.5 484.5,-79.5 484.5,-58.5 443.5,-58.5"/>
<text text-anchor="middle" x="464" y="-66.5" font-family="Helvetica,sans-Serif" font-size="10.00">ctime</text>
</g>
<!-- Node6&#45;&gt;Node15 -->
<g id="edge48" class="edge"><title>Node6&#45;&gt;Node15</title>
<path fill="none" stroke="midnightblue" d="M450.426,-232.471C523.933,-215.069 659.776,-178.21 687,-138 692.482,-129.903 693.16,-123.593 687,-116 663.165,-86.6173 550.483,-74.9051 495.007,-70.8601"/>
<polygon fill="midnightblue" stroke="midnightblue" points="494.935,-67.3469 484.718,-70.1504 494.453,-74.3303 494.935,-67.3469"/>
</g>
<!-- Node20 -->
<g id="node40" class="node"><title>Node20</title>
<polygon fill="white" stroke="#bfbfbf" points="628,-116.5 628,-137.5 678,-137.5 678,-116.5 628,-116.5"/>
<text text-anchor="middle" x="653" y="-124.5" font-family="Helvetica,sans-Serif" font-size="10.00">iomanip</text>
</g>
<!-- Node6&#45;&gt;Node20 -->
<g id="edge46" class="edge"><title>Node6&#45;&gt;Node20</title>
<path fill="none" stroke="midnightblue" d="M426.071,-232.295C470.927,-211.482 569.967,-165.527 621.086,-141.808"/>
<polygon fill="midnightblue" stroke="midnightblue" points="622.748,-144.896 630.346,-137.512 619.801,-138.546 622.748,-144.896"/>
</g>
<!-- Node7&#45;&gt;Node3 -->
<g id="edge16" class="edge"><title>Node7&#45;&gt;Node3</title>
<path fill="none" stroke="midnightblue" d="M386.139,-181.829C330.878,-173.41 180.796,-150.397 112.353,-138.161"/>
<polygon fill="midnightblue" stroke="midnightblue" points="112.562,-134.641 102.097,-136.293 111.308,-141.528 112.562,-134.641"/>
</g>
<!-- Node7&#45;&gt;Node8 -->
<g id="edge14" class="edge"><title>Node7&#45;&gt;Node8</title>
<path fill="none" stroke="midnightblue" d="M386.261,-177.841C381.909,-176.465 377.327,-175.11 373,-174 293.651,-153.65 269.438,-157.791 186.107,-138.087"/>
<polygon fill="midnightblue" stroke="midnightblue" points="186.744,-134.641 176.203,-135.7 185.104,-141.446 186.744,-134.641"/>
</g>
<!-- Node9 -->
<g id="node18" class="node"><title>Node9</title>
<a xlink:href="time_8h.html" target="_top" xlink:title="base/std_ext/time.h">
<polygon fill="white" stroke="black" points="193.5,-116.5 193.5,-137.5 296.5,-137.5 296.5,-116.5 193.5,-116.5"/>
<text text-anchor="middle" x="245" y="-124.5" font-family="Helvetica,sans-Serif" font-size="10.00">base/std_ext/time.h</text>
</a>
</g>
<!-- Node7&#45;&gt;Node9 -->
<g id="edge18" class="edge"><title>Node7&#45;&gt;Node9</title>
<path fill="none" stroke="midnightblue" d="M386.483,-177.654C360.789,-168.455 316.231,-152.502 283.973,-140.953"/>
<polygon fill="midnightblue" stroke="midnightblue" points="284.986,-137.598 274.391,-137.523 282.626,-144.189 284.986,-137.598"/>
</g>
<!-- Node7&#45;&gt;Node15 -->
<g id="edge42" class="edge"><title>Node7&#45;&gt;Node15</title>
<path fill="none" stroke="midnightblue" d="M417.796,-174.34C426.315,-165.365 437.907,-151.815 445,-138 452.791,-122.824 457.69,-104.079 460.559,-89.9593"/>
<polygon fill="midnightblue" stroke="midnightblue" points="464.064,-90.2527 462.44,-79.7831 457.18,-88.9802 464.064,-90.2527"/>
</g>
<!-- Node16 -->
<g id="node32" class="node"><title>Node16</title>
<polygon fill="white" stroke="#bfbfbf" points="492,-116.5 492,-137.5 554,-137.5 554,-116.5 492,-116.5"/>
<text text-anchor="middle" x="523" y="-124.5" font-family="Helvetica,sans-Serif" font-size="10.00">type_traits</text>
</g>
<!-- Node7&#45;&gt;Node16 -->
<g id="edge32" class="edge"><title>Node7&#45;&gt;Node16</title>
<path fill="none" stroke="midnightblue" d="M427.738,-174.631C445.741,-165.63 472.049,-152.475 492.459,-142.27"/>
<polygon fill="midnightblue" stroke="midnightblue" points="494.277,-145.275 501.656,-137.672 491.147,-139.014 494.277,-145.275"/>
</g>
<!-- Node17 -->
<g id="node34" class="node"><title>Node17</title>
<polygon fill="white" stroke="#bfbfbf" points="572,-116.5 572,-137.5 610,-137.5 610,-116.5 572,-116.5"/>
<text text-anchor="middle" x="591" y="-124.5" font-family="Helvetica,sans-Serif" font-size="10.00">tuple</text>
</g>
<!-- Node7&#45;&gt;Node17 -->
<g id="edge34" class="edge"><title>Node7&#45;&gt;Node17</title>
<path fill="none" stroke="midnightblue" d="M427.613,-179.37C455.931,-171.512 508.61,-156.454 562.149,-138.12"/>
<polygon fill="midnightblue" stroke="midnightblue" points="563.491,-141.359 571.797,-134.782 561.203,-134.744 563.491,-141.359"/>
</g>
<!-- Node18 -->
<g id="node36" class="node"><title>Node18</title>
<polygon fill="white" stroke="#bfbfbf" points="314,-116.5 314,-137.5 360,-137.5 360,-116.5 314,-116.5"/>
<text text-anchor="middle" x="337" y="-124.5" font-family="Helvetica,sans-Serif" font-size="10.00">cstdint</text>
</g>
<!-- Node7&#45;&gt;Node18 -->
<g id="edge36" class="edge"><title>Node7&#45;&gt;Node18</title>
<path fill="none" stroke="midnightblue" d="M394.161,-174.362C383.998,-165.941 369.599,-154.011 357.796,-144.231"/>
<polygon fill="midnightblue" stroke="midnightblue" points="359.691,-141.256 349.758,-137.571 355.225,-146.646 359.691,-141.256"/>
</g>
<!-- Node19 -->
<g id="node38" class="node"><title>Node19</title>
<polygon fill="white" stroke="#bfbfbf" points="377.5,-116.5 377.5,-137.5 436.5,-137.5 436.5,-116.5 377.5,-116.5"/>
<text text-anchor="middle" x="407" y="-124.5" font-family="Helvetica,sans-Serif" font-size="10.00">stdexcept</text>
</g>
<!-- Node7&#45;&gt;Node19 -->
<g id="edge38" class="edge"><title>Node7&#45;&gt;Node19</title>
<path fill="none" stroke="midnightblue" d="M407,-174.362C407,-166.922 407,-156.743 407,-147.728"/>
<polygon fill="midnightblue" stroke="midnightblue" points="410.5,-147.571 407,-137.571 403.5,-147.571 410.5,-147.571"/>
</g>
<!-- Node7&#45;&gt;Node20 -->
<g id="edge40" class="edge"><title>Node7&#45;&gt;Node20</title>
<path fill="none" stroke="midnightblue" d="M427.623,-181.103C464.143,-174.06 542.72,-158.263 618.169,-138.054"/>
<polygon fill="midnightblue" stroke="midnightblue" points="619.092,-141.43 627.829,-135.437 617.261,-134.674 619.092,-141.43"/>
</g>
<!-- Node10 -->
<g id="node20" class="node"><title>Node10</title>
<a xlink:href="string_8h.html" target="_top" xlink:title="base/std_ext/string.h">
<polygon fill="white" stroke="black" points="241,-58.5 241,-79.5 349,-79.5 349,-58.5 241,-58.5"/>
<text text-anchor="middle" x="295" y="-66.5" font-family="Helvetica,sans-Serif" font-size="10.00">base/std_ext/string.h</text>
</a>
</g>
<!-- Node9&#45;&gt;Node10 -->
<g id="edge20" class="edge"><title>Node9&#45;&gt;Node10</title>
<path fill="none" stroke="midnightblue" d="M254.171,-116.362C261.148,-108.268 270.921,-96.9318 279.156,-87.3796"/>
<polygon fill="midnightblue" stroke="midnightblue" points="282.009,-89.4301 285.887,-79.5707 276.707,-84.8595 282.009,-89.4301"/>
</g>
<!-- Node14 -->
<g id="node28" class="node"><title>Node14</title>
<polygon fill="white" stroke="#bfbfbf" points="177,-58.5 177,-79.5 223,-79.5 223,-58.5 177,-58.5"/>
<text text-anchor="middle" x="200" y="-66.5" font-family="Helvetica,sans-Serif" font-size="10.00">cstring</text>
</g>
<!-- Node9&#45;&gt;Node14 -->
<g id="edge28" class="edge"><title>Node9&#45;&gt;Node14</title>
<path fill="none" stroke="midnightblue" d="M236.746,-116.362C230.53,-108.35 221.849,-97.1605 214.485,-87.6696"/>
<polygon fill="midnightblue" stroke="midnightblue" points="217.097,-85.326 208.201,-79.5707 211.566,-89.617 217.097,-85.326"/>
</g>
<!-- Node9&#45;&gt;Node15 -->
<g id="edge30" class="edge"><title>Node9&#45;&gt;Node15</title>
<path fill="none" stroke="midnightblue" d="M284.659,-116.497C327.543,-105.139 394.955,-87.2859 433.76,-77.0089"/>
<polygon fill="midnightblue" stroke="midnightblue" points="434.669,-80.3889 443.439,-74.4453 432.877,-73.6221 434.669,-80.3889"/>
</g>
<!-- Node11 -->
<g id="node22" class="node"><title>Node11</title>
<polygon fill="white" stroke="#bfbfbf" points="210.5,-0.5 210.5,-21.5 251.5,-21.5 251.5,-0.5 210.5,-0.5"/>
<text text-anchor="middle" x="231" y="-8.5" font-family="Helvetica,sans-Serif" font-size="10.00">string</text>
</g>
<!-- Node10&#45;&gt;Node11 -->
<g id="edge22" class="edge"><title>Node10&#45;&gt;Node11</title>
<path fill="none" stroke="midnightblue" d="M283.261,-58.3619C274.059,-50.0226 261.06,-38.2418 250.328,-28.5162"/>
<polygon fill="midnightblue" stroke="midnightblue" points="252.424,-25.6924 242.664,-21.5707 247.724,-30.8793 252.424,-25.6924"/>
</g>
<!-- Node12 -->
<g id="node24" class="node"><title>Node12</title>
<polygon fill="white" stroke="#bfbfbf" points="269,-0.5 269,-21.5 321,-21.5 321,-0.5 269,-0.5"/>
<text text-anchor="middle" x="295" y="-8.5" font-family="Helvetica,sans-Serif" font-size="10.00">sstream</text>
</g>
<!-- Node10&#45;&gt;Node12 -->
<g id="edge24" class="edge"><title>Node10&#45;&gt;Node12</title>
<path fill="none" stroke="midnightblue" d="M295,-58.3619C295,-50.9219 295,-40.7427 295,-31.7276"/>
<polygon fill="midnightblue" stroke="midnightblue" points="298.5,-31.5706 295,-21.5707 291.5,-31.5707 298.5,-31.5706"/>
</g>
<!-- Node13 -->
<g id="node26" class="node"><title>Node13</title>
<polygon fill="white" stroke="#bfbfbf" points="339,-0.5 339,-21.5 395,-21.5 395,-0.5 339,-0.5"/>
<text text-anchor="middle" x="367" y="-8.5" font-family="Helvetica,sans-Serif" font-size="10.00">algorithm</text>
</g>
<!-- Node10&#45;&gt;Node13 -->
<g id="edge26" class="edge"><title>Node10&#45;&gt;Node13</title>
<path fill="none" stroke="midnightblue" d="M308.206,-58.3619C318.761,-49.859 333.758,-37.7785 345.963,-27.9466"/>
<polygon fill="midnightblue" stroke="midnightblue" points="348.286,-30.5696 353.878,-21.5707 343.895,-25.1183 348.286,-30.5696"/>
</g>
</g>
</svg>
