<?xml version="1.0" encoding="UTF-8" standalone="no"?>
<!DOCTYPE svg PUBLIC "-//W3C//DTD SVG 1.1//EN"
 "http://www.w3.org/Graphics/SVG/1.1/DTD/svg11.dtd">
<!-- Generated by graphviz version 2.26.3 (20100126.1600)
 -->
<!-- Title: src/tree/UnpackerReader.h Pages: 1 -->
<svg width="762pt" height="204pt"
 viewBox="0.00 0.00 761.52 204.00" xmlns="http://www.w3.org/2000/svg" xmlns:xlink="http://www.w3.org/1999/xlink">
<g id="graph1" class="graph" transform="scale(1 1) rotate(0) translate(4 200)">
<title>src/tree/UnpackerReader.h</title>
<polygon fill="white" stroke="white" points="-4,5 -4,-200 758.521,-200 758.521,5 -4,5"/>
<!-- Node1 -->
<g id="node1" class="node"><title>Node1</title>
<polygon fill="#bfbfbf" stroke="black" points="174.521,-174.5 174.521,-195.5 308.521,-195.5 308.521,-174.5 174.521,-174.5"/>
<text text-anchor="middle" x="241.521" y="-182.5" font-family="Helvetica,sans-Serif" font-size="10.00">src/tree/UnpackerReader.h</text>
</g>
<!-- Node2 -->
<g id="node3" class="node"><title>Node2</title>
<a xlink:href="_unpacker_8h.html" target="_top" xlink:title="unpacker/Unpacker.h">
<polygon fill="white" stroke="black" points="18.5206,-116.5 18.5206,-137.5 128.521,-137.5 128.521,-116.5 18.5206,-116.5"/>
<text text-anchor="middle" x="73.5206" y="-124.5" font-family="Helvetica,sans-Serif" font-size="10.00">unpacker/Unpacker.h</text>
</a>
</g>
<!-- Node1&#45;&gt;Node2 -->
<g id="edge2" class="edge"><title>Node1&#45;&gt;Node2</title>
<path fill="none" stroke="midnightblue" d="M211.097,-174.497C183.827,-165.082 143.628,-151.204 113.717,-140.877"/>
<polygon fill="midnightblue" stroke="midnightblue" points="114.596,-137.478 104.001,-137.523 112.312,-144.095 114.596,-137.478"/>
</g>
<!-- Node3 -->
<g id="node5" class="node"><title>Node3</title>
<polygon fill="white" stroke="#bfbfbf" points="44.0206,-0.5 44.0206,-21.5 85.0206,-21.5 85.0206,-0.5 44.0206,-0.5"/>
<text text-anchor="middle" x="64.5206" y="-8.5" font-family="Helvetica,sans-Serif" font-size="10.00">string</text>
</g>
<!-- Node1&#45;&gt;Node3 -->
<g id="edge42" class="edge"><title>Node1&#45;&gt;Node3</title>
<path fill="none" stroke="midnightblue" d="M174.301,-180.633C113.365,-175.107 30.0399,-163.093 9.52061,-138 -17.9097,-104.455 20.6026,-55.1461 45.7617,-28.9309"/>
<polygon fill="midnightblue" stroke="midnightblue" points="48.496,-31.1442 53.0532,-21.5795 43.526,-26.2147 48.496,-31.1442"/>
</g>
<!-- Node4 -->
<g id="node7" class="node"><title>Node4</title>
<polygon fill="white" stroke="#bfbfbf" points="47.5206,-58.5 47.5206,-79.5 99.5206,-79.5 99.5206,-58.5 47.5206,-58.5"/>
<text text-anchor="middle" x="73.5206" y="-66.5" font-family="Helvetica,sans-Serif" font-size="10.00">memory</text>
</g>
<!-- Node1&#45;&gt;Node4 -->
<g id="edge40" class="edge"><title>Node1&#45;&gt;Node4</title>
<path fill="none" stroke="midnightblue" d="M226.017,-174.295C196.637,-154.009 132.669,-109.84 97.6393,-85.6534"/>
<polygon fill="midnightblue" stroke="midnightblue" points="99.2047,-82.481 88.987,-79.6792 95.2274,-88.2413 99.2047,-82.481"/>
</g>
<!-- Node5 -->
<g id="node9" class="node"><title>Node5</title>
<a xlink:href="_wrap_t_file_8h.html" target="_top" xlink:title="base/WrapTFile.h">
<polygon fill="white" stroke="black" points="248.521,-116.5 248.521,-137.5 342.521,-137.5 342.521,-116.5 248.521,-116.5"/>
<text text-anchor="middle" x="295.521" y="-124.5" font-family="Helvetica,sans-Serif" font-size="10.00">base/WrapTFile.h</text>
</a>
</g>
<!-- Node1&#45;&gt;Node5 -->
<g id="edge8" class="edge"><title>Node1&#45;&gt;Node5</title>
<path fill="none" stroke="midnightblue" d="M251.425,-174.362C259.037,-166.186 269.729,-154.702 278.678,-145.091"/>
<polygon fill="midnightblue" stroke="midnightblue" points="281.426,-147.275 285.679,-137.571 276.303,-142.505 281.426,-147.275"/>
</g>
<!-- Node16 -->
<g id="node34" class="node"><title>Node16</title>
<polygon fill="white" stroke="#bfbfbf" points="360.521,-116.5 360.521,-137.5 410.521,-137.5 410.521,-116.5 360.521,-116.5"/>
<text text-anchor="middle" x="385.521" y="-124.5" font-family="Helvetica,sans-Serif" font-size="10.00">TTree.h</text>
</g>
<!-- Node1&#45;&gt;Node16 -->
<g id="edge36" class="edge"><title>Node1&#45;&gt;Node16</title>
<path fill="none" stroke="midnightblue" d="M267.598,-174.497C290.883,-165.118 325.166,-151.31 350.772,-140.996"/>
<polygon fill="midnightblue" stroke="midnightblue" points="352.152,-144.213 360.121,-137.231 349.537,-137.72 352.152,-144.213"/>
</g>
<!-- Node17 -->
<g id="node36" class="node"><title>Node17</title>
<polygon fill="white" stroke="#bfbfbf" points="428.521,-116.5 428.521,-137.5 472.521,-137.5 472.521,-116.5 428.521,-116.5"/>
<text text-anchor="middle" x="450.521" y="-124.5" font-family="Helvetica,sans-Serif" font-size="10.00">vector</text>
</g>
<!-- Node1&#45;&gt;Node17 -->
<g id="edge38" class="edge"><title>Node1&#45;&gt;Node17</title>
<path fill="none" stroke="midnightblue" d="M285.699,-174.416C319.702,-166.028 368.034,-153.581 418.469,-138.17"/>
<polygon fill="midnightblue" stroke="midnightblue" points="419.72,-141.447 428.243,-135.153 417.656,-134.758 419.72,-141.447"/>
</g>
<!-- Node2&#45;&gt;Node3 -->
<g id="edge4" class="edge"><title>Node2&#45;&gt;Node3</title>
<path fill="none" stroke="midnightblue" d="M62.2761,-116.234C53.9205,-107.404 43.1937,-94.0993 38.5206,-80 32.8923,-63.0185 41.1571,-44.015 49.8238,-30.2577"/>
<polygon fill="midnightblue" stroke="midnightblue" points="52.9507,-31.8868 55.7223,-21.6608 47.1786,-27.9264 52.9507,-31.8868"/>
</g>
<!-- Node2&#45;&gt;Node4 -->
<g id="edge6" class="edge"><title>Node2&#45;&gt;Node4</title>
<path fill="none" stroke="midnightblue" d="M73.5206,-116.362C73.5206,-108.922 73.5206,-98.7427 73.5206,-89.7276"/>
<polygon fill="midnightblue" stroke="midnightblue" points="77.0207,-89.5706 73.5206,-79.5707 70.0207,-89.5707 77.0207,-89.5706"/>
</g>
<!-- Node5&#45;&gt;Node3 -->
<g id="edge12" class="edge"><title>Node5&#45;&gt;Node3</title>
<path fill="none" stroke="midnightblue" d="M248.296,-117.163C217.998,-109.653 178.492,-97.5718 146.521,-80 121.667,-66.3402 97.3383,-44.4843 81.7213,-29.0356"/>
<polygon fill="midnightblue" stroke="midnightblue" points="83.9104,-26.2715 74.392,-21.6183 78.9311,-31.1916 83.9104,-26.2715"/>
</g>
<!-- Node5&#45;&gt;Node4 -->
<g id="edge10" class="edge"><title>Node5&#45;&gt;Node4</title>
<path fill="none" stroke="midnightblue" d="M253.909,-116.451C216.988,-107.045 161.608,-92.8201 113.521,-80 112.268,-79.666 110.994,-79.3247 109.707,-78.9786"/>
<polygon fill="midnightblue" stroke="midnightblue" points="110.322,-75.519 99.7547,-76.2775 108.489,-82.2746 110.322,-75.519"/>
</g>
<!-- Node6 -->
<g id="node13" class="node"><title>Node6</title>
<polygon fill="white" stroke="#bfbfbf" points="281.021,-58.5 281.021,-79.5 310.021,-79.5 310.021,-58.5 281.021,-58.5"/>
<text text-anchor="middle" x="295.521" y="-66.5" font-family="Helvetica,sans-Serif" font-size="10.00">list</text>
</g>
<!-- Node5&#45;&gt;Node6 -->
<g id="edge14" class="edge"><title>Node5&#45;&gt;Node6</title>
<path fill="none" stroke="midnightblue" d="M295.521,-116.362C295.521,-108.922 295.521,-98.7427 295.521,-89.7276"/>
<polygon fill="midnightblue" stroke="midnightblue" points="299.021,-89.5706 295.521,-79.5707 292.021,-89.5707 299.021,-89.5706"/>
</g>
<!-- Node7 -->
<g id="node15" class="node"><title>Node7</title>
<a xlink:href="string_8h.html" target="_top" xlink:title="base/std_ext/string.h">
<polygon fill="white" stroke="black" points="155.521,-58.5 155.521,-79.5 263.521,-79.5 263.521,-58.5 155.521,-58.5"/>
<text text-anchor="middle" x="209.521" y="-66.5" font-family="Helvetica,sans-Serif" font-size="10.00">base/std_ext/string.h</text>
</a>
</g>
<!-- Node5&#45;&gt;Node7 -->
<g id="edge16" class="edge"><title>Node5&#45;&gt;Node7</title>
<path fill="none" stroke="midnightblue" d="M279.747,-116.362C266.897,-107.696 248.536,-95.3126 233.811,-85.3819"/>
<polygon fill="midnightblue" stroke="midnightblue" points="235.442,-82.2604 225.194,-79.5707 231.528,-88.0639 235.442,-82.2604"/>
</g>
<!-- Node10 -->
<g id="node22" class="node"><title>Node10</title>
<polygon fill="white" stroke="#bfbfbf" points="327.021,-58.5 327.021,-79.5 374.021,-79.5 374.021,-58.5 327.021,-58.5"/>
<text text-anchor="middle" x="350.521" y="-66.5" font-family="Helvetica,sans-Serif" font-size="10.00">TFile.h</text>
</g>
<!-- Node5&#45;&gt;Node10 -->
<g id="edge24" class="edge"><title>Node5&#45;&gt;Node10</title>
<path fill="none" stroke="midnightblue" d="M305.608,-116.362C313.361,-108.186 324.251,-96.7025 333.366,-87.0907"/>
<polygon fill="midnightblue" stroke="midnightblue" points="336.155,-89.2352 340.497,-79.5707 331.076,-84.4186 336.155,-89.2352"/>
</g>
<!-- Node11 -->
<g id="node24" class="node"><title>Node11</title>
<polygon fill="white" stroke="#bfbfbf" points="391.021,-58.5 391.021,-79.5 462.021,-79.5 462.021,-58.5 391.021,-58.5"/>
<text text-anchor="middle" x="426.521" y="-66.5" font-family="Helvetica,sans-Serif" font-size="10.00">TDirectory.h</text>
</g>
<!-- Node5&#45;&gt;Node11 -->
<g id="edge26" class="edge"><title>Node5&#45;&gt;Node11</title>
<path fill="none" stroke="midnightblue" d="M319.244,-116.497C339.889,-107.356 370.037,-94.0082 393.12,-83.7883"/>
<polygon fill="midnightblue" stroke="midnightblue" points="394.804,-86.8701 402.531,-79.6212 391.97,-80.4694 394.804,-86.8701"/>
</g>
<!-- Node12 -->
<g id="node26" class="node"><title>Node12</title>
<polygon fill="white" stroke="#bfbfbf" points="479.521,-58.5 479.521,-79.5 531.521,-79.5 531.521,-58.5 479.521,-58.5"/>
<text text-anchor="middle" x="505.521" y="-66.5" font-family="Helvetica,sans-Serif" font-size="10.00">TError.h</text>
</g>
<!-- Node5&#45;&gt;Node12 -->
<g id="edge28" class="edge"><title>Node5&#45;&gt;Node12</title>
<path fill="none" stroke="midnightblue" d="M336.673,-116.47C370.071,-107.808 418.596,-94.9585 469.347,-80.2702"/>
<polygon fill="midnightblue" stroke="midnightblue" points="470.56,-83.5625 479.183,-77.408 468.604,-76.8413 470.56,-83.5625"/>
</g>
<!-- Node13 -->
<g id="node28" class="node"><title>Node13</title>
<polygon fill="white" stroke="#bfbfbf" points="549.021,-58.5 549.021,-79.5 596.021,-79.5 596.021,-58.5 549.021,-58.5"/>
<text text-anchor="middle" x="572.521" y="-66.5" font-family="Helvetica,sans-Serif" font-size="10.00">TList.h</text>
</g>
<!-- Node5&#45;&gt;Node13 -->
<g id="edge30" class="edge"><title>Node5&#45;&gt;Node13</title>
<path fill="none" stroke="midnightblue" d="M342.571,-117.738C345.599,-117.148 348.602,-116.565 351.521,-116 432.359,-100.362 456.129,-101.817 539.018,-80.1603"/>
<polygon fill="midnightblue" stroke="midnightblue" points="540.1,-83.4943 548.871,-77.551 538.308,-76.7275 540.1,-83.4943"/>
</g>
<!-- Node14 -->
<g id="node30" class="node"><title>Node14</title>
<polygon fill="white" stroke="#bfbfbf" points="613.521,-58.5 613.521,-79.5 687.521,-79.5 687.521,-58.5 613.521,-58.5"/>
<text text-anchor="middle" x="650.521" y="-66.5" font-family="Helvetica,sans-Serif" font-size="10.00">TCollection.h</text>
</g>
<!-- Node5&#45;&gt;Node14 -->
<g id="edge32" class="edge"><title>Node5&#45;&gt;Node14</title>
<path fill="none" stroke="midnightblue" d="M342.541,-117.577C345.577,-117.027 348.59,-116.496 351.521,-116 460.334,-97.5845 491.212,-101.012 603.407,-80.078"/>
<polygon fill="midnightblue" stroke="midnightblue" points="604.252,-83.4804 613.428,-78.1843 602.952,-76.6021 604.252,-83.4804"/>
</g>
<!-- Node15 -->
<g id="node32" class="node"><title>Node15</title>
<polygon fill="white" stroke="#bfbfbf" points="705.521,-58.5 705.521,-79.5 753.521,-79.5 753.521,-58.5 705.521,-58.5"/>
<text text-anchor="middle" x="729.521" y="-66.5" font-family="Helvetica,sans-Serif" font-size="10.00">TKey.h</text>
</g>
<!-- Node5&#45;&gt;Node15 -->
<g id="edge34" class="edge"><title>Node5&#45;&gt;Node15</title>
<path fill="none" stroke="midnightblue" d="M342.521,-117.449C345.562,-116.93 348.581,-116.441 351.521,-116 500.704,-93.611 543.985,-111.752 695.068,-79.9406"/>
<polygon fill="midnightblue" stroke="midnightblue" points="696.134,-83.2916 705.177,-77.7721 694.666,-76.4473 696.134,-83.2916"/>
</g>
<!-- Node7&#45;&gt;Node3 -->
<g id="edge18" class="edge"><title>Node7&#45;&gt;Node3</title>
<path fill="none" stroke="midnightblue" d="M183.262,-58.4966C158.368,-48.539 120.991,-33.588 94.8397,-23.1276"/>
<polygon fill="midnightblue" stroke="midnightblue" points="96.0008,-19.8225 85.4162,-19.3582 93.4011,-26.3219 96.0008,-19.8225"/>
</g>
<!-- Node8 -->
<g id="node18" class="node"><title>Node8</title>
<polygon fill="white" stroke="#bfbfbf" points="147.521,-0.5 147.521,-21.5 199.521,-21.5 199.521,-0.5 147.521,-0.5"/>
<text text-anchor="middle" x="173.521" y="-8.5" font-family="Helvetica,sans-Serif" font-size="10.00">sstream</text>
</g>
<!-- Node7&#45;&gt;Node8 -->
<g id="edge20" class="edge"><title>Node7&#45;&gt;Node8</title>
<path fill="none" stroke="midnightblue" d="M202.918,-58.3619C198.046,-50.5131 191.282,-39.6159 185.471,-30.2527"/>
<polygon fill="midnightblue" stroke="midnightblue" points="188.329,-28.2213 180.082,-21.5707 182.382,-31.9129 188.329,-28.2213"/>
</g>
<!-- Node9 -->
<g id="node20" class="node"><title>Node9</title>
<polygon fill="white" stroke="#bfbfbf" points="217.521,-0.5 217.521,-21.5 273.521,-21.5 273.521,-0.5 217.521,-0.5"/>
<text text-anchor="middle" x="245.521" y="-8.5" font-family="Helvetica,sans-Serif" font-size="10.00">algorithm</text>
</g>
<!-- Node7&#45;&gt;Node9 -->
<g id="edge22" class="edge"><title>Node7&#45;&gt;Node9</title>
<path fill="none" stroke="midnightblue" d="M216.124,-58.3619C220.995,-50.5131 227.759,-39.6159 233.571,-30.2527"/>
<polygon fill="midnightblue" stroke="midnightblue" points="236.66,-31.9129 238.96,-21.5707 230.712,-28.2213 236.66,-31.9129"/>
</g>
</g>
</svg>
