<?xml version="1.0" encoding="UTF-8" standalone="no"?>
<!DOCTYPE svg PUBLIC "-//W3C//DTD SVG 1.1//EN"
 "http://www.w3.org/Graphics/SVG/1.1/DTD/svg11.dtd">
<!-- Generated by graphviz version 2.26.3 (20100126.1600)
 -->
<!-- Title: src/unpacker/UnpackerAcqu.cc Pages: 1 -->
<svg width="4054pt" height="754pt"
 viewBox="0.00 0.00 4053.70 754.00" xmlns="http://www.w3.org/2000/svg" xmlns:xlink="http://www.w3.org/1999/xlink">
<g id="graph1" class="graph" transform="scale(1 1) rotate(0) translate(4 750)">
<title>src/unpacker/UnpackerAcqu.cc</title>
<polygon fill="white" stroke="white" points="-4,5 -4,-750 4050.7,-750 4050.7,5 -4,5"/>
<!-- Node1 -->
<g id="node1" class="node"><title>Node1</title>
<polygon fill="#bfbfbf" stroke="black" points="3154.05,-724.5 3154.05,-745.5 3308.05,-745.5 3308.05,-724.5 3154.05,-724.5"/>
<text text-anchor="middle" x="3231.05" y="-732.5" font-family="Helvetica,sans-Serif" font-size="10.00">src/unpacker/UnpackerAcqu.cc</text>
</g>
<!-- Node2 -->
<g id="node3" class="node"><title>Node2</title>
<a xlink:href="_unpacker_acqu_8h.html" target="_top" xlink:title="UnpackerAcqu.h">
<polygon fill="white" stroke="black" points="2747.55,-594.5 2747.55,-615.5 2836.55,-615.5 2836.55,-594.5 2747.55,-594.5"/>
<text text-anchor="middle" x="2792.05" y="-602.5" font-family="Helvetica,sans-Serif" font-size="10.00">UnpackerAcqu.h</text>
</a>
</g>
<!-- Node1&#45;&gt;Node2 -->
<g id="edge2" class="edge"><title>Node1&#45;&gt;Node2</title>
<path fill="none" stroke="midnightblue" d="M3173.56,-724.498C3130.39,-716.087 3070.02,-703.203 3018.05,-688 2949.05,-667.817 2870.75,-637.29 2826.79,-619.428"/>
<polygon fill="midnightblue" stroke="midnightblue" points="2828.01,-616.143 2817.43,-615.602 2825.36,-622.624 2828.01,-616.143"/>
</g>
<!-- Node13 -->
<g id="node25" class="node"><title>Node13</title>
<polygon fill="white" stroke="#bfbfbf" points="3198.55,-58.5 3198.55,-79.5 3257.55,-79.5 3257.55,-58.5 3198.55,-58.5"/>
<text text-anchor="middle" x="3228.05" y="-66.5" font-family="Helvetica,sans-Serif" font-size="10.00">stdexcept</text>
</g>
<!-- Node1&#45;&gt;Node13 -->
<g id="edge364" class="edge"><title>Node1&#45;&gt;Node13</title>
<path fill="none" stroke="midnightblue" d="M3231.05,-724.214C3231.05,-701.939 3231.05,-649.236 3231.05,-605 3231.05,-605 3231.05,-605 3231.05,-243 3231.05,-196.314 3228.71,-184.681 3228.05,-138 3227.82,-121.905 3227.83,-103.695 3227.89,-90.0257"/>
<polygon fill="midnightblue" stroke="midnightblue" points="3231.39,-89.7777 3227.95,-79.7572 3224.39,-89.7363 3231.39,-89.7777"/>
</g>
<!-- Node50 -->
<g id="node151" class="node"><title>Node50</title>
<a xlink:href="_t_data_record_8h.html" target="_top" xlink:title="tree/TDataRecord.h">
<polygon fill="white" stroke="black" points="3463.55,-232.5 3463.55,-253.5 3566.55,-253.5 3566.55,-232.5 3463.55,-232.5"/>
<text text-anchor="middle" x="3515.05" y="-240.5" font-family="Helvetica,sans-Serif" font-size="10.00">tree/TDataRecord.h</text>
</a>
</g>
<!-- Node1&#45;&gt;Node50 -->
<g id="edge358" class="edge"><title>Node1&#45;&gt;Node50</title>
<path fill="none" stroke="midnightblue" d="M3308.1,-731.34C3450.85,-722.442 3742.05,-693.452 3742.05,-605 3742.05,-605 3742.05,-605 3742.05,-366 3742.05,-290.537 3643.87,-261.132 3576.65,-249.844"/>
<polygon fill="midnightblue" stroke="midnightblue" points="3576.98,-246.353 3566.56,-248.245 3575.88,-253.267 3576.98,-246.353"/>
</g>
<!-- Node62 -->
<g id="node217" class="node"><title>Node62</title>
<a xlink:href="_unpacker_acqu__detail_8h.html" target="_top" xlink:title="detail/UnpackerAcqu\l_detail.h">
<polygon fill="white" stroke="black" points="3026.55,-653 3026.55,-687 3133.55,-687 3133.55,-653 3026.55,-653"/>
<text text-anchor="start" x="3034.55" y="-674" font-family="Helvetica,sans-Serif" font-size="10.00">detail/UnpackerAcqu</text>
<text text-anchor="middle" x="3080.05" y="-661" font-family="Helvetica,sans-Serif" font-size="10.00">_detail.h</text>
</a>
</g>
<!-- Node1&#45;&gt;Node62 -->
<g id="edge310" class="edge"><title>Node1&#45;&gt;Node62</title>
<path fill="none" stroke="midnightblue" d="M3206.45,-724.412C3185.53,-715.409 3154.86,-702.207 3128.97,-691.062"/>
<polygon fill="midnightblue" stroke="midnightblue" points="3130.25,-687.8 3119.68,-687.06 3127.48,-694.229 3130.25,-687.8"/>
</g>
<!-- Node71 -->
<g id="node251" class="node"><title>Node71</title>
<a xlink:href="_logger_8h.html" target="_top" xlink:title="base/Logger.h">
<polygon fill="white" stroke="black" points="3779.05,-659.5 3779.05,-680.5 3857.05,-680.5 3857.05,-659.5 3779.05,-659.5"/>
<text text-anchor="middle" x="3818.05" y="-667.5" font-family="Helvetica,sans-Serif" font-size="10.00">base/Logger.h</text>
</a>
</g>
<!-- Node1&#45;&gt;Node71 -->
<g id="edge360" class="edge"><title>Node1&#45;&gt;Node71</title>
<path fill="none" stroke="midnightblue" d="M3308.19,-732.752C3411.12,-728.696 3598.66,-717.603 3756.05,-688 3762.71,-686.747 3769.68,-685.082 3776.45,-683.269"/>
<polygon fill="midnightblue" stroke="midnightblue" points="3777.47,-686.616 3786.15,-680.538 3775.58,-679.878 3777.47,-686.616"/>
</g>
<!-- Node3 -->
<g id="node5" class="node"><title>Node3</title>
<a xlink:href="_unpacker_8h.html" target="_top" xlink:title="Unpacker.h">
<polygon fill="white" stroke="black" points="2720.55,-232.5 2720.55,-253.5 2787.55,-253.5 2787.55,-232.5 2720.55,-232.5"/>
<text text-anchor="middle" x="2754.05" y="-240.5" font-family="Helvetica,sans-Serif" font-size="10.00">Unpacker.h</text>
</a>
</g>
<!-- Node2&#45;&gt;Node3 -->
<g id="edge4" class="edge"><title>Node2&#45;&gt;Node3</title>
<path fill="none" stroke="midnightblue" d="M2785.94,-594.191C2775.2,-574.127 2754.05,-529.477 2754.05,-489 2754.05,-489 2754.05,-489 2754.05,-366 2754.05,-330.052 2754.05,-288.195 2754.05,-263.745"/>
<polygon fill="midnightblue" stroke="midnightblue" points="2757.55,-263.53 2754.05,-253.53 2750.55,-263.53 2757.55,-263.53"/>
</g>
<!-- Node5 -->
<g id="node9" class="node"><title>Node5</title>
<polygon fill="white" stroke="#bfbfbf" points="674.046,-174.5 674.046,-195.5 726.046,-195.5 726.046,-174.5 674.046,-174.5"/>
<text text-anchor="middle" x="700.046" y="-182.5" font-family="Helvetica,sans-Serif" font-size="10.00">memory</text>
</g>
<!-- Node2&#45;&gt;Node5 -->
<g id="edge298" class="edge"><title>Node2&#45;&gt;Node5</title>
<path fill="none" stroke="midnightblue" d="M2747.48,-604.241C2401.75,-598.209 161.046,-556.511 161.046,-489 161.046,-489 161.046,-489 161.046,-301 161.046,-251.649 202.345,-250.629 248.046,-232 323.317,-201.317 570.261,-189.578 663.745,-186.165"/>
<polygon fill="midnightblue" stroke="midnightblue" points="663.982,-189.659 673.851,-185.807 663.734,-182.663 663.982,-189.659"/>
</g>
<!-- Node6 -->
<g id="node11" class="node"><title>Node6</title>
<a xlink:href="_exp_config_8h.html" target="_top" xlink:title="expconfig/ExpConfig.h">
<polygon fill="white" stroke="black" points="1644.05,-536.5 1644.05,-557.5 1760.05,-557.5 1760.05,-536.5 1644.05,-536.5"/>
<text text-anchor="middle" x="1702.05" y="-544.5" font-family="Helvetica,sans-Serif" font-size="10.00">expconfig/ExpConfig.h</text>
</a>
</g>
<!-- Node2&#45;&gt;Node6 -->
<g id="edge10" class="edge"><title>Node2&#45;&gt;Node6</title>
<path fill="none" stroke="midnightblue" d="M2747.28,-602.618C2577.79,-593.599 1974.63,-561.504 1770.3,-550.632"/>
<polygon fill="midnightblue" stroke="midnightblue" points="1770.47,-547.136 1760.3,-550.1 1770.1,-554.126 1770.47,-547.136"/>
</g>
<!-- Node7 -->
<g id="node13" class="node"><title>Node7</title>
<a xlink:href="_detector__t_8h.html" target="_top" xlink:title="base/Detector_t.h">
<polygon fill="white" stroke="black" points="2329.55,-116.5 2329.55,-137.5 2424.55,-137.5 2424.55,-116.5 2329.55,-116.5"/>
<text text-anchor="middle" x="2377.05" y="-124.5" font-family="Helvetica,sans-Serif" font-size="10.00">base/Detector_t.h</text>
</a>
</g>
<!-- Node2&#45;&gt;Node7 -->
<g id="edge296" class="edge"><title>Node2&#45;&gt;Node7</title>
<path fill="none" stroke="midnightblue" d="M2796.34,-594.383C2814.95,-546.433 2883.92,-347.421 2796.05,-232 2773.99,-203.033 2544.31,-157.595 2434.68,-137.342"/>
<polygon fill="midnightblue" stroke="midnightblue" points="2435.24,-133.887 2424.77,-135.52 2433.97,-140.771 2435.24,-133.887"/>
</g>
<!-- Node9 -->
<g id="node17" class="node"><title>Node9</title>
<polygon fill="white" stroke="#bfbfbf" points="2184.05,-0.5 2184.05,-21.5 2228.05,-21.5 2228.05,-0.5 2184.05,-0.5"/>
<text text-anchor="middle" x="2206.05" y="-8.5" font-family="Helvetica,sans-Serif" font-size="10.00">vector</text>
</g>
<!-- Node2&#45;&gt;Node9 -->
<g id="edge304" class="edge"><title>Node2&#45;&gt;Node9</title>
<path fill="none" stroke="midnightblue" d="M2793.5,-594.485C2801.34,-537.152 2837.47,-263.681 2818.05,-232 2795.76,-195.654 2516.5,-71.4721 2476.05,-58 2393.02,-30.3489 2289.93,-18.1699 2238.46,-13.5036"/>
<polygon fill="midnightblue" stroke="midnightblue" points="2238.55,-9.99848 2228.29,-12.6191 2237.95,-16.9722 2238.55,-9.99848"/>
</g>
<!-- Node12 -->
<g id="node23" class="node"><title>Node12</title>
<polygon fill="white" stroke="#bfbfbf" points="2979.05,-58.5 2979.05,-79.5 3025.05,-79.5 3025.05,-58.5 2979.05,-58.5"/>
<text text-anchor="middle" x="3002.05" y="-66.5" font-family="Helvetica,sans-Serif" font-size="10.00">cstdint</text>
</g>
<!-- Node2&#45;&gt;Node12 -->
<g id="edge306" class="edge"><title>Node2&#45;&gt;Node12</title>
<path fill="none" stroke="midnightblue" d="M2836.63,-599.592C2870.28,-593.75 2916.26,-581.85 2950.05,-558 3028.26,-502.784 3047.36,-475.023 3077.05,-384 3112.83,-274.269 3042.98,-137.937 3013.91,-88.2515"/>
<polygon fill="midnightblue" stroke="midnightblue" points="3016.82,-86.2933 3008.68,-79.5033 3010.81,-89.8831 3016.82,-86.2933"/>
</g>
<!-- Node18 -->
<g id="node39" class="node"><title>Node18</title>
<polygon fill="white" stroke="#bfbfbf" points="487.546,-116.5 487.546,-137.5 516.546,-137.5 516.546,-116.5 487.546,-116.5"/>
<text text-anchor="middle" x="502.046" y="-124.5" font-family="Helvetica,sans-Serif" font-size="10.00">list</text>
</g>
<!-- Node2&#45;&gt;Node18 -->
<g id="edge300" class="edge"><title>Node2&#45;&gt;Node18</title>
<path fill="none" stroke="midnightblue" d="M2747.2,-604.556C2449.7,-601.544 765.757,-583.464 539.046,-558 290.075,-530.036 9.04562,-616.536 9.04562,-366 9.04562,-366 9.04562,-366 9.04562,-243 9.04562,-194.374 377.146,-143.171 477.202,-130.151"/>
<polygon fill="midnightblue" stroke="midnightblue" points="477.821,-133.6 487.291,-128.85 476.926,-126.658 477.821,-133.6"/>
</g>
<!-- Node21 -->
<g id="node50" class="node"><title>Node21</title>
<polygon fill="white" stroke="#bfbfbf" points="1849.55,-174.5 1849.55,-195.5 1884.55,-195.5 1884.55,-174.5 1849.55,-174.5"/>
<text text-anchor="middle" x="1867.05" y="-182.5" font-family="Helvetica,sans-Serif" font-size="10.00">map</text>
</g>
<!-- Node2&#45;&gt;Node21 -->
<g id="edge302" class="edge"><title>Node2&#45;&gt;Node21</title>
<path fill="none" stroke="midnightblue" d="M2779.06,-594.411C2731.55,-556.124 2561.59,-423.177 2402.05,-348 2273.35,-287.356 2226.45,-310.896 2096.05,-254 2078.16,-246.196 2076.15,-239.294 2058.05,-232 2002.26,-209.523 1932.84,-195.728 1894.94,-189.307"/>
<polygon fill="midnightblue" stroke="midnightblue" points="1895.12,-185.79 1884.68,-187.62 1893.98,-192.697 1895.12,-185.79"/>
</g>
<!-- Node30 -->
<g id="node73" class="node"><title>Node30</title>
<polygon fill="white" stroke="#bfbfbf" points="3065.05,-58.5 3065.05,-79.5 3105.05,-79.5 3105.05,-58.5 3065.05,-58.5"/>
<text text-anchor="middle" x="3085.05" y="-66.5" font-family="Helvetica,sans-Serif" font-size="10.00">limits</text>
</g>
<!-- Node2&#45;&gt;Node30 -->
<g id="edge308" class="edge"><title>Node2&#45;&gt;Node30</title>
<path fill="none" stroke="midnightblue" d="M2812.1,-594.313C2861.32,-566.885 2988.16,-488.733 3044.05,-384 3097.26,-284.274 3091.54,-142.318 3087.15,-89.6781"/>
<polygon fill="midnightblue" stroke="midnightblue" points="3090.62,-89.2255 3086.23,-79.5853 3083.65,-89.8622 3090.62,-89.2255"/>
</g>
<!-- Node4 -->
<g id="node7" class="node"><title>Node4</title>
<polygon fill="white" stroke="#bfbfbf" points="2751.55,-0.5 2751.55,-21.5 2792.55,-21.5 2792.55,-0.5 2751.55,-0.5"/>
<text text-anchor="middle" x="2772.05" y="-8.5" font-family="Helvetica,sans-Serif" font-size="10.00">string</text>
</g>
<!-- Node3&#45;&gt;Node4 -->
<g id="edge6" class="edge"><title>Node3&#45;&gt;Node4</title>
<path fill="none" stroke="midnightblue" d="M2787.63,-234.66C2807.49,-227.812 2831.05,-215.904 2843.05,-196 2874.71,-143.472 2872.07,-112.029 2843.05,-58 2834.3,-41.7165 2817.15,-30.1267 2801.91,-22.5305"/>
<polygon fill="midnightblue" stroke="midnightblue" points="2803.3,-19.317 2792.75,-18.3105 2800.37,-25.6744 2803.3,-19.317"/>
</g>
<!-- Node3&#45;&gt;Node5 -->
<g id="edge8" class="edge"><title>Node3&#45;&gt;Node5</title>
<path fill="none" stroke="midnightblue" d="M2720.29,-240.152C2688.72,-237.598 2640.22,-233.961 2598.05,-232 1888.85,-199.022 1710.69,-216.965 1001.05,-196 905.538,-193.178 793.023,-188.781 736.436,-186.494"/>
<polygon fill="midnightblue" stroke="midnightblue" points="736.346,-182.988 726.212,-186.08 736.062,-189.982 736.346,-182.988"/>
</g>
<!-- Node6&#45;&gt;Node5 -->
<g id="edge290" class="edge"><title>Node6&#45;&gt;Node5</title>
<path fill="none" stroke="midnightblue" d="M1643.97,-545.549C1393.7,-537.873 412.837,-492.713 256.046,-254 250.678,-245.827 249.506,-239.269 256.046,-232 283.179,-201.843 562.839,-189.578 663.879,-186.109"/>
<polygon fill="midnightblue" stroke="midnightblue" points="664.038,-189.606 673.916,-185.774 663.804,-182.61 664.038,-189.606"/>
</g>
<!-- Node6&#45;&gt;Node7 -->
<g id="edge12" class="edge"><title>Node6&#45;&gt;Node7</title>
<path fill="none" stroke="midnightblue" d="M1760.06,-545.776C1934.08,-541.242 2448.56,-521.29 2593.05,-442 2631.26,-421.028 2655.05,-409.592 2655.05,-366 2655.05,-366 2655.05,-366 2655.05,-301 2655.05,-235.895 2634.37,-212.736 2582.05,-174 2559,-156.943 2487.1,-143.127 2434.94,-134.994"/>
<polygon fill="midnightblue" stroke="midnightblue" points="2435.21,-131.494 2424.79,-133.444 2434.15,-138.414 2435.21,-131.494"/>
</g>
<!-- Node8 -->
<g id="node15" class="node"><title>Node8</title>
<a xlink:href="printable_8h.html" target="_top" xlink:title="base/printable.h">
<polygon fill="white" stroke="black" points="1321.05,-58.5 1321.05,-79.5 1407.05,-79.5 1407.05,-58.5 1321.05,-58.5"/>
<text text-anchor="middle" x="1364.05" y="-66.5" font-family="Helvetica,sans-Serif" font-size="10.00">base/printable.h</text>
</a>
</g>
<!-- Node6&#45;&gt;Node8 -->
<g id="edge288" class="edge"><title>Node6&#45;&gt;Node8</title>
<path fill="none" stroke="midnightblue" d="M1643.86,-545.342C1461.94,-539.979 905.35,-522.152 726.046,-500 465.579,-467.82 313.4,-586.989 147.046,-384 46.2587,-261.018 231.16,-159.686 384.046,-116 473.2,-90.5246 1119.68,-74.3836 1310.9,-70.1284"/>
<polygon fill="midnightblue" stroke="midnightblue" points="1311.07,-73.6256 1320.99,-69.9056 1310.92,-66.6273 1311.07,-73.6256"/>
</g>
<!-- Node15 -->
<g id="node31" class="node"><title>Node15</title>
<a xlink:href="_reconstruct__traits_8h.html" target="_top" xlink:title="reconstruct/Reconstruct\l_traits.h">
<polygon fill="white" stroke="black" points="586.046,-349 586.046,-383 708.046,-383 708.046,-349 586.046,-349"/>
<text text-anchor="start" x="594.046" y="-370" font-family="Helvetica,sans-Serif" font-size="10.00">reconstruct/Reconstruct</text>
<text text-anchor="middle" x="647.046" y="-357" font-family="Helvetica,sans-Serif" font-size="10.00">_traits.h</text>
</a>
</g>
<!-- Node6&#45;&gt;Node15 -->
<g id="edge32" class="edge"><title>Node6&#45;&gt;Node15</title>
<path fill="none" stroke="midnightblue" d="M1643.79,-538.781C1491.61,-516.992 1069.83,-454.565 722.046,-384 720.791,-383.745 719.525,-383.485 718.251,-383.219"/>
<polygon fill="midnightblue" stroke="midnightblue" points="718.875,-379.773 708.362,-381.089 717.401,-386.616 718.875,-379.773"/>
</g>
<!-- Node6&#45;&gt;Node18 -->
<g id="edge292" class="edge"><title>Node6&#45;&gt;Node18</title>
<path fill="none" stroke="midnightblue" d="M1643.8,-546.462C1507.79,-544.608 1158.92,-536.382 870.046,-500 737.472,-483.303 704.915,-473.441 575.046,-442 484.678,-420.122 458.469,-422.958 374.046,-384 274.799,-338.202 170.495,-252.991 246.046,-174 277.662,-140.944 419.377,-130.777 477.279,-127.97"/>
<polygon fill="midnightblue" stroke="midnightblue" points="477.546,-131.462 487.378,-127.515 477.231,-124.469 477.546,-131.462"/>
</g>
<!-- Node6&#45;&gt;Node21 -->
<g id="edge294" class="edge"><title>Node6&#45;&gt;Node21</title>
<path fill="none" stroke="midnightblue" d="M1705.01,-536.222C1710.36,-515.841 1721.05,-470.182 1721.05,-431 1721.05,-431 1721.05,-431 1721.05,-301 1721.05,-241.035 1797.48,-207.117 1839.74,-192.946"/>
<polygon fill="midnightblue" stroke="midnightblue" points="1840.98,-196.224 1849.43,-189.84 1838.84,-189.558 1840.98,-196.224"/>
</g>
<!-- Node22 -->
<g id="node53" class="node"><title>Node22</title>
<a xlink:href="_calibration_8h.html" target="_top" xlink:title="calibration/Calibration.h">
<polygon fill="white" stroke="black" points="1864.55,-478.5 1864.55,-499.5 1983.55,-499.5 1983.55,-478.5 1864.55,-478.5"/>
<text text-anchor="middle" x="1924.05" y="-486.5" font-family="Helvetica,sans-Serif" font-size="10.00">calibration/Calibration.h</text>
</a>
</g>
<!-- Node6&#45;&gt;Node22 -->
<g id="edge62" class="edge"><title>Node6&#45;&gt;Node22</title>
<path fill="none" stroke="midnightblue" d="M1742.25,-536.497C1779.22,-526.836 1834.19,-512.477 1873.99,-502.077"/>
<polygon fill="midnightblue" stroke="midnightblue" points="1874.98,-505.437 1883.77,-499.523 1873.21,-498.665 1874.98,-505.437"/>
</g>
<!-- Node7&#45;&gt;Node4 -->
<g id="edge26" class="edge"><title>Node7&#45;&gt;Node4</title>
<path fill="none" stroke="midnightblue" d="M2376.6,-116.492C2376.58,-101.114 2379.04,-72.7142 2396.05,-58 2422.05,-35.5042 2656.33,-18.4062 2741.38,-12.8922"/>
<polygon fill="midnightblue" stroke="midnightblue" points="2741.69,-16.3797 2751.44,-12.2487 2741.24,-9.39392 2741.69,-16.3797"/>
</g>
<!-- Node7&#45;&gt;Node8 -->
<g id="edge14" class="edge"><title>Node7&#45;&gt;Node8</title>
<path fill="none" stroke="midnightblue" d="M2329.55,-124.28C2161.28,-114.646 1594.19,-82.1771 1417.24,-72.0458"/>
<polygon fill="midnightblue" stroke="midnightblue" points="1417.32,-68.5447 1407.14,-71.4673 1416.92,-75.5333 1417.32,-68.5447"/>
</g>
<!-- Node7&#45;&gt;Node9 -->
<g id="edge30" class="edge"><title>Node7&#45;&gt;Node9</title>
<path fill="none" stroke="midnightblue" d="M2369.77,-116.345C2359.21,-101.55 2338.33,-74.7248 2315.05,-58 2291.43,-41.0332 2260.73,-28.4903 2237.93,-20.6496"/>
<polygon fill="midnightblue" stroke="midnightblue" points="2238.97,-17.3071 2228.37,-17.4786 2236.76,-23.9507 2238.97,-17.3071"/>
</g>
<!-- Node11 -->
<g id="node21" class="node"><title>Node11</title>
<polygon fill="white" stroke="#bfbfbf" points="1896.55,-58.5 1896.55,-79.5 1961.55,-79.5 1961.55,-58.5 1896.55,-58.5"/>
<text text-anchor="middle" x="1929.05" y="-66.5" font-family="Helvetica,sans-Serif" font-size="10.00">TVector3.h</text>
</g>
<!-- Node7&#45;&gt;Node11 -->
<g id="edge20" class="edge"><title>Node7&#45;&gt;Node11</title>
<path fill="none" stroke="midnightblue" d="M2329.53,-120.848C2241.76,-109.485 2055.55,-85.378 1971.63,-74.5132"/>
<polygon fill="midnightblue" stroke="midnightblue" points="1972.04,-71.0377 1961.68,-73.2247 1971.15,-77.9798 1972.04,-71.0377"/>
</g>
<!-- Node7&#45;&gt;Node12 -->
<g id="edge22" class="edge"><title>Node7&#45;&gt;Node12</title>
<path fill="none" stroke="midnightblue" d="M2424.79,-122.569C2546.2,-111.303 2864.42,-81.772 2968.54,-72.1094"/>
<polygon fill="midnightblue" stroke="midnightblue" points="2969.14,-75.569 2978.77,-71.1598 2968.49,-68.5989 2969.14,-75.569"/>
</g>
<!-- Node7&#45;&gt;Node13 -->
<g id="edge24" class="edge"><title>Node7&#45;&gt;Node13</title>
<path fill="none" stroke="midnightblue" d="M2424.94,-124.486C2542.43,-118.202 2854.29,-100.809 3114.05,-80 3138.74,-78.0215 3166.41,-75.3628 3188.3,-73.1549"/>
<polygon fill="midnightblue" stroke="midnightblue" points="3188.95,-76.6069 3198.54,-72.1122 3188.24,-69.6429 3188.95,-76.6069"/>
</g>
<!-- Node14 -->
<g id="node28" class="node"><title>Node14</title>
<polygon fill="white" stroke="#bfbfbf" points="2405.05,-58.5 2405.05,-79.5 2467.05,-79.5 2467.05,-58.5 2405.05,-58.5"/>
<text text-anchor="middle" x="2436.05" y="-66.5" font-family="Helvetica,sans-Serif" font-size="10.00">type_traits</text>
</g>
<!-- Node7&#45;&gt;Node14 -->
<g id="edge28" class="edge"><title>Node7&#45;&gt;Node14</title>
<path fill="none" stroke="midnightblue" d="M2387.87,-116.362C2396.27,-108.104 2408.1,-96.4725 2417.94,-86.8029"/>
<polygon fill="midnightblue" stroke="midnightblue" points="2420.62,-89.077 2425.29,-79.5707 2415.71,-84.0851 2420.62,-89.077"/>
</g>
<!-- Node8&#45;&gt;Node9 -->
<g id="edge16" class="edge"><title>Node8&#45;&gt;Node9</title>
<path fill="none" stroke="midnightblue" d="M1407.21,-60.0546C1411.87,-59.2736 1416.55,-58.5664 1421.05,-58 1711.45,-21.4438 2066,-13.1534 2173.58,-11.4241"/>
<polygon fill="midnightblue" stroke="midnightblue" points="2173.84,-14.9208 2183.78,-11.2683 2173.73,-7.92158 2173.84,-14.9208"/>
</g>
<!-- Node10 -->
<g id="node19" class="node"><title>Node10</title>
<polygon fill="white" stroke="#bfbfbf" points="1267.05,-0.5 1267.05,-21.5 1319.05,-21.5 1319.05,-0.5 1267.05,-0.5"/>
<text text-anchor="middle" x="1293.05" y="-8.5" font-family="Helvetica,sans-Serif" font-size="10.00">ostream</text>
</g>
<!-- Node8&#45;&gt;Node10 -->
<g id="edge18" class="edge"><title>Node8&#45;&gt;Node10</title>
<path fill="none" stroke="midnightblue" d="M1351.02,-58.3619C1340.61,-49.859 1325.83,-37.7785 1313.79,-27.9466"/>
<polygon fill="midnightblue" stroke="midnightblue" points="1315.94,-25.1866 1305.99,-21.5707 1311.52,-30.6077 1315.94,-25.1866"/>
</g>
<!-- Node15&#45;&gt;Node5 -->
<g id="edge56" class="edge"><title>Node15&#45;&gt;Node5</title>
<path fill="none" stroke="midnightblue" d="M648.053,-348.955C650.038,-322.957 655.69,-272.18 671.046,-232 674.776,-222.239 680.586,-212.271 686.029,-204.041"/>
<polygon fill="midnightblue" stroke="midnightblue" points="689.066,-205.803 691.888,-195.591 683.313,-201.815 689.066,-205.803"/>
</g>
<!-- Node15&#45;&gt;Node7 -->
<g id="edge34" class="edge"><title>Node15&#45;&gt;Node7</title>
<path fill="none" stroke="midnightblue" d="M708.09,-363.459C793.677,-359.912 954.213,-353.313 1091.05,-348 1522.13,-331.262 1631.98,-356.9 2061.05,-312 2098.62,-308.068 2371.72,-282.9 2396.05,-254 2421.62,-223.619 2402.41,-174.031 2388.35,-146.673"/>
<polygon fill="midnightblue" stroke="midnightblue" points="2391.33,-144.816 2383.5,-137.676 2385.16,-148.139 2391.33,-144.816"/>
</g>
<!-- Node16 -->
<g id="node34" class="node"><title>Node16</title>
<a xlink:href="_memory_pool_8h.html" target="_top" xlink:title="tree/MemoryPool.h">
<polygon fill="white" stroke="black" points="398.546,-290.5 398.546,-311.5 497.546,-311.5 497.546,-290.5 398.546,-290.5"/>
<text text-anchor="middle" x="448.046" y="-298.5" font-family="Helvetica,sans-Serif" font-size="10.00">tree/MemoryPool.h</text>
</a>
</g>
<!-- Node15&#45;&gt;Node16 -->
<g id="edge36" class="edge"><title>Node15&#45;&gt;Node16</title>
<path fill="none" stroke="midnightblue" d="M594.761,-348.922C562.17,-338.277 520.783,-324.758 490.28,-314.795"/>
<polygon fill="midnightblue" stroke="midnightblue" points="490.974,-311.34 480.382,-311.562 488.801,-317.994 490.974,-311.34"/>
</g>
<!-- Node15&#45;&gt;Node18 -->
<g id="edge60" class="edge"><title>Node15&#45;&gt;Node18</title>
<path fill="none" stroke="midnightblue" d="M585.849,-358.119C485.243,-343.692 292.388,-309.331 256.046,-254 200.202,-168.979 404.816,-137.736 477.411,-129.46"/>
<polygon fill="midnightblue" stroke="midnightblue" points="477.932,-132.924 487.494,-128.363 477.174,-125.965 477.932,-132.924"/>
</g>
<!-- Node20 -->
<g id="node44" class="node"><title>Node20</title>
<a xlink:href="mapped__vectors_8h.html" target="_top" xlink:title="base/mapped_vectors.h">
<polygon fill="white" stroke="black" points="2266.55,-232.5 2266.55,-253.5 2387.55,-253.5 2387.55,-232.5 2266.55,-232.5"/>
<text text-anchor="middle" x="2327.05" y="-240.5" font-family="Helvetica,sans-Serif" font-size="10.00">base/mapped_vectors.h</text>
</a>
</g>
<!-- Node15&#45;&gt;Node20 -->
<g id="edge48" class="edge"><title>Node15&#45;&gt;Node20</title>
<path fill="none" stroke="midnightblue" d="M708.179,-363.522C969.451,-352.93 1979.05,-312 1979.05,-312 2085.22,-299.399 2207.41,-272.161 2275.08,-255.93"/>
<polygon fill="midnightblue" stroke="midnightblue" points="2276.16,-259.27 2285.06,-253.521 2274.52,-252.465 2276.16,-259.27"/>
</g>
<!-- Node15&#45;&gt;Node21 -->
<g id="edge58" class="edge"><title>Node15&#45;&gt;Node21</title>
<path fill="none" stroke="midnightblue" d="M708.165,-363.264C857.002,-356.295 1235.11,-336.67 1359.05,-312 1389.78,-305.881 1396.11,-299.292 1426.05,-290 1480.44,-273.113 1496.69,-276.431 1549.05,-254 1566.98,-246.315 1568.68,-238.61 1587.05,-232 1592.99,-229.861 1769.02,-201 1838.87,-189.593"/>
<polygon fill="midnightblue" stroke="midnightblue" points="1839.83,-192.984 1849.13,-187.919 1838.7,-186.075 1839.83,-192.984"/>
</g>
<!-- Node16&#45;&gt;Node5 -->
<g id="edge44" class="edge"><title>Node16&#45;&gt;Node5</title>
<path fill="none" stroke="midnightblue" d="M470.401,-290.354C499.165,-276.691 550.71,-252.326 595.046,-232 619.025,-221.006 646.211,-208.846 666.912,-199.649"/>
<polygon fill="midnightblue" stroke="midnightblue" points="668.5,-202.773 676.221,-195.518 665.661,-196.375 668.5,-202.773"/>
</g>
<!-- Node17 -->
<g id="node36" class="node"><title>Node17</title>
<a xlink:href="memory_8h.html" target="_top" xlink:title="base/std_ext/memory.h">
<polygon fill="white" stroke="black" points="386.546,-232.5 386.546,-253.5 505.546,-253.5 505.546,-232.5 386.546,-232.5"/>
<text text-anchor="middle" x="446.046" y="-240.5" font-family="Helvetica,sans-Serif" font-size="10.00">base/std_ext/memory.h</text>
</a>
</g>
<!-- Node16&#45;&gt;Node17 -->
<g id="edge38" class="edge"><title>Node16&#45;&gt;Node17</title>
<path fill="none" stroke="midnightblue" d="M447.679,-290.362C447.422,-282.922 447.071,-272.743 446.76,-263.728"/>
<polygon fill="midnightblue" stroke="midnightblue" points="450.253,-263.444 446.41,-253.571 443.257,-263.685 450.253,-263.444"/>
</g>
<!-- Node19 -->
<g id="node42" class="node"><title>Node19</title>
<polygon fill="white" stroke="#bfbfbf" points="264.546,-232.5 264.546,-253.5 331.546,-253.5 331.546,-232.5 264.546,-232.5"/>
<text text-anchor="middle" x="298.046" y="-240.5" font-family="Helvetica,sans-Serif" font-size="10.00">forward_list</text>
</g>
<!-- Node16&#45;&gt;Node19 -->
<g id="edge46" class="edge"><title>Node16&#45;&gt;Node19</title>
<path fill="none" stroke="midnightblue" d="M420.882,-290.497C396.745,-281.164 361.265,-267.445 334.634,-257.147"/>
<polygon fill="midnightblue" stroke="midnightblue" points="335.85,-253.865 325.26,-253.523 333.325,-260.394 335.85,-253.865"/>
</g>
<!-- Node17&#45;&gt;Node5 -->
<g id="edge40" class="edge"><title>Node17&#45;&gt;Node5</title>
<path fill="none" stroke="midnightblue" d="M492.043,-232.497C541.381,-221.23 618.712,-203.572 663.882,-193.258"/>
<polygon fill="midnightblue" stroke="midnightblue" points="664.854,-196.626 673.824,-190.988 663.295,-189.802 664.854,-196.626"/>
</g>
<!-- Node17&#45;&gt;Node18 -->
<g id="edge42" class="edge"><title>Node17&#45;&gt;Node18</title>
<path fill="none" stroke="midnightblue" d="M451.214,-232.295C460.59,-212.872 480.536,-171.556 492.465,-146.846"/>
<polygon fill="midnightblue" stroke="midnightblue" points="495.695,-148.206 496.89,-137.679 489.391,-145.163 495.695,-148.206"/>
</g>
<!-- Node20&#45;&gt;Node5 -->
<g id="edge52" class="edge"><title>Node20&#45;&gt;Node5</title>
<path fill="none" stroke="midnightblue" d="M2266.41,-237.786C2240.45,-235.712 2209.78,-233.474 2182.05,-232 1657.65,-204.131 1525.88,-213.589 1001.05,-196 905.55,-192.8 793.03,-188.564 736.439,-186.401"/>
<polygon fill="midnightblue" stroke="midnightblue" points="736.341,-182.895 726.214,-186.01 736.073,-189.89 736.341,-182.895"/>
</g>
<!-- Node20&#45;&gt;Node9 -->
<g id="edge50" class="edge"><title>Node20&#45;&gt;Node9</title>
<path fill="none" stroke="midnightblue" d="M2317.4,-232.426C2301.29,-214.302 2268.76,-175.613 2249.05,-138 2230.42,-102.459 2217.38,-57.2001 2210.85,-31.4242"/>
<polygon fill="midnightblue" stroke="midnightblue" points="2214.24,-30.5326 2208.45,-21.6553 2207.44,-32.2014 2214.24,-30.5326"/>
</g>
<!-- Node20&#45;&gt;Node14 -->
<g id="edge54" class="edge"><title>Node20&#45;&gt;Node14</title>
<path fill="none" stroke="midnightblue" d="M2344.12,-232.283C2368.94,-215.608 2414.07,-180.871 2433.05,-138 2439.71,-122.947 2440.09,-104.193 2439.01,-90.0385"/>
<polygon fill="midnightblue" stroke="midnightblue" points="2442.46,-89.4035 2437.92,-79.831 2435.5,-90.1457 2442.46,-89.4035"/>
</g>
<!-- Node22&#45;&gt;Node9 -->
<g id="edge286" class="edge"><title>Node22&#45;&gt;Node9</title>
<path fill="none" stroke="midnightblue" d="M1983.69,-484.952C2099.96,-475.688 2350.13,-448.556 2402.05,-384 2417.25,-365.094 2436.27,-321.796 2396.05,-232 2383.9,-204.897 2320.55,-160.397 2301.05,-138 2269.32,-101.567 2236.46,-55.4191 2218.92,-29.9859"/>
<polygon fill="midnightblue" stroke="midnightblue" points="2221.72,-27.8817 2213.18,-21.6094 2215.94,-31.8375 2221.72,-27.8817"/>
</g>
<!-- Node22&#45;&gt;Node15 -->
<g id="edge270" class="edge"><title>Node22&#45;&gt;Node15</title>
<path fill="none" stroke="midnightblue" d="M1864.2,-483.176C1737.74,-470.931 1434,-441.848 1179.05,-420 976.049,-402.605 923.278,-415.872 722.046,-384 720.781,-383.8 719.506,-383.589 718.224,-383.37"/>
<polygon fill="midnightblue" stroke="midnightblue" points="718.754,-379.908 708.283,-381.525 717.477,-386.791 718.754,-379.908"/>
</g>
<!-- Node23 -->
<g id="node55" class="node"><title>Node23</title>
<a xlink:href="_physics_8h.html" target="_top" xlink:title="analysis/physics/Physics.h">
<polygon fill="white" stroke="black" points="1856.05,-420.5 1856.05,-441.5 1992.05,-441.5 1992.05,-420.5 1856.05,-420.5"/>
<text text-anchor="middle" x="1924.05" y="-428.5" font-family="Helvetica,sans-Serif" font-size="10.00">analysis/physics/Physics.h</text>
</a>
</g>
<!-- Node22&#45;&gt;Node23 -->
<g id="edge64" class="edge"><title>Node22&#45;&gt;Node23</title>
<path fill="none" stroke="midnightblue" d="M1924.05,-478.362C1924.05,-470.922 1924.05,-460.743 1924.05,-451.728"/>
<polygon fill="midnightblue" stroke="midnightblue" points="1927.55,-451.571 1924.05,-441.571 1920.55,-451.571 1927.55,-451.571"/>
</g>
<!-- Node60 -->
<g id="node196" class="node"><title>Node60</title>
<a xlink:href="_manager__traits_8h.html" target="_top" xlink:title="calibration/gui/Manager\l_traits.h">
<polygon fill="white" stroke="black" points="2918.55,-349 2918.55,-383 3035.55,-383 3035.55,-349 2918.55,-349"/>
<text text-anchor="start" x="2926.55" y="-370" font-family="Helvetica,sans-Serif" font-size="10.00">calibration/gui/Manager</text>
<text text-anchor="middle" x="2977.05" y="-357" font-family="Helvetica,sans-Serif" font-size="10.00">_traits.h</text>
</a>
</g>
<!-- Node22&#45;&gt;Node60 -->
<g id="edge272" class="edge"><title>Node22&#45;&gt;Node60</title>
<path fill="none" stroke="midnightblue" d="M1983.82,-487.312C2101.1,-483.444 2369.44,-471.862 2593.05,-442 2704.25,-427.148 2831.72,-399.846 2908.23,-382.327"/>
<polygon fill="midnightblue" stroke="midnightblue" points="2909.26,-385.682 2918.22,-380.029 2907.69,-378.86 2909.26,-385.682"/>
</g>
<!-- Node23&#45;&gt;Node4 -->
<g id="edge262" class="edge"><title>Node23&#45;&gt;Node4</title>
<path fill="none" stroke="midnightblue" d="M1992.42,-427.859C2105.81,-422.052 2327.64,-407.992 2402.05,-384 2574.8,-328.295 2623.33,-286.258 2728.05,-138 2745.97,-112.628 2756.92,-109.366 2767.05,-80 2772.42,-64.4112 2773.47,-45.6966 2773.29,-31.693"/>
<polygon fill="midnightblue" stroke="midnightblue" points="2776.78,-31.4932 2772.93,-21.622 2769.79,-31.7385 2776.78,-31.4932"/>
</g>
<!-- Node23&#45;&gt;Node5 -->
<g id="edge266" class="edge"><title>Node23&#45;&gt;Node5</title>
<path fill="none" stroke="midnightblue" d="M1855.83,-428.804C1684.24,-423.015 1237.93,-406.239 1091.05,-384 960.167,-364.184 921.532,-368.964 802.046,-312 763.371,-293.562 750.509,-288.457 725.046,-254 714.425,-239.629 707.938,-220.294 704.243,-205.748"/>
<polygon fill="midnightblue" stroke="midnightblue" points="707.59,-204.682 701.939,-195.72 700.767,-206.25 707.59,-204.682"/>
</g>
<!-- Node23&#45;&gt;Node18 -->
<g id="edge260" class="edge"><title>Node23&#45;&gt;Node18</title>
<path fill="none" stroke="midnightblue" d="M1855.63,-430.619C1617.78,-428.981 827.655,-420.831 577.046,-384 452.472,-365.692 412.507,-374.225 303.046,-312 271.079,-293.828 258.262,-287.911 244.046,-254 234.473,-231.165 255.426,-177.402 259.046,-174 290.455,-144.481 421.878,-132.363 477.264,-128.502"/>
<polygon fill="midnightblue" stroke="midnightblue" points="477.529,-131.993 487.275,-127.838 477.065,-125.008 477.529,-131.993"/>
</g>
<!-- Node23&#45;&gt;Node21 -->
<g id="edge264" class="edge"><title>Node23&#45;&gt;Node21</title>
<path fill="none" stroke="midnightblue" d="M1897.7,-420.496C1880.42,-412.551 1858.3,-400.232 1843.05,-384 1798.81,-336.926 1792.89,-316.869 1778.05,-254 1775.8,-244.484 1773,-240.374 1778.05,-232 1791.3,-210.008 1818.67,-197.777 1839.57,-191.348"/>
<polygon fill="midnightblue" stroke="midnightblue" points="1840.54,-194.711 1849.23,-188.64 1838.65,-187.971 1840.54,-194.711"/>
</g>
<!-- Node24 -->
<g id="node57" class="node"><title>Node24</title>
<a xlink:href="_histogram_factories_8h.html" target="_top" xlink:title="analysis/plot/HistogramFactories.h">
<polygon fill="white" stroke="black" points="1852.05,-355.5 1852.05,-376.5 2020.05,-376.5 2020.05,-355.5 1852.05,-355.5"/>
<text text-anchor="middle" x="1936.05" y="-363.5" font-family="Helvetica,sans-Serif" font-size="10.00">analysis/plot/HistogramFactories.h</text>
</a>
</g>
<!-- Node23&#45;&gt;Node24 -->
<g id="edge66" class="edge"><title>Node23&#45;&gt;Node24</title>
<path fill="none" stroke="midnightblue" d="M1926.03,-420.267C1927.72,-411.085 1930.21,-397.615 1932.28,-386.392"/>
<polygon fill="midnightblue" stroke="midnightblue" points="1935.73,-387.003 1934.1,-376.534 1928.84,-385.732 1935.73,-387.003"/>
</g>
<!-- Node33 -->
<g id="node85" class="node"><title>Node33</title>
<polygon fill="white" stroke="#bfbfbf" points="2100.55,-174.5 2100.55,-195.5 2159.55,-195.5 2159.55,-174.5 2100.55,-174.5"/>
<text text-anchor="middle" x="2130.05" y="-182.5" font-family="Helvetica,sans-Serif" font-size="10.00">functional</text>
</g>
<!-- Node23&#45;&gt;Node33 -->
<g id="edge268" class="edge"><title>Node23&#45;&gt;Node33</title>
<path fill="none" stroke="midnightblue" d="M1958.01,-420.45C2017.59,-399.798 2138.72,-347.671 2182.05,-254 2191.19,-234.228 2173.22,-214.682 2155.96,-201.469"/>
<polygon fill="midnightblue" stroke="midnightblue" points="2157.83,-198.504 2147.67,-195.519 2153.75,-204.192 2157.83,-198.504"/>
</g>
<!-- Node47 -->
<g id="node136" class="node"><title>Node47</title>
<a xlink:href="_event_8h.html" target="_top" xlink:title="analysis/data/Event.h">
<polygon fill="white" stroke="black" points="1099.55,-355.5 1099.55,-376.5 1210.55,-376.5 1210.55,-355.5 1099.55,-355.5"/>
<text text-anchor="middle" x="1155.05" y="-363.5" font-family="Helvetica,sans-Serif" font-size="10.00">analysis/data/Event.h</text>
</a>
</g>
<!-- Node23&#45;&gt;Node47 -->
<g id="edge178" class="edge"><title>Node23&#45;&gt;Node47</title>
<path fill="none" stroke="midnightblue" d="M1856.01,-423.639C1843.71,-422.375 1831,-421.112 1819.05,-420 1600,-399.622 1339.9,-379.715 1220.67,-370.829"/>
<polygon fill="midnightblue" stroke="midnightblue" points="1220.84,-367.332 1210.61,-370.08 1220.32,-374.313 1220.84,-367.332"/>
</g>
<!-- Node59 -->
<g id="node187" class="node"><title>Node59</title>
<a xlink:href="_slowcontrol_8h.html" target="_top" xlink:title="analysis/data/Slowcontrol.h">
<polygon fill="white" stroke="black" points="2256.55,-355.5 2256.55,-376.5 2393.55,-376.5 2393.55,-355.5 2256.55,-355.5"/>
<text text-anchor="middle" x="2325.05" y="-363.5" font-family="Helvetica,sans-Serif" font-size="10.00">analysis/data/Slowcontrol.h</text>
</a>
</g>
<!-- Node23&#45;&gt;Node59 -->
<g id="edge256" class="edge"><title>Node23&#45;&gt;Node59</title>
<path fill="none" stroke="midnightblue" d="M1989.35,-420.492C2048.33,-410.992 2137.51,-396.605 2215.05,-384 2226.61,-382.12 2238.86,-380.122 2250.82,-378.168"/>
<polygon fill="midnightblue" stroke="midnightblue" points="2251.47,-381.607 2260.78,-376.54 2250.34,-374.699 2251.47,-381.607"/>
</g>
<!-- Node24&#45;&gt;Node4 -->
<g id="edge176" class="edge"><title>Node24&#45;&gt;Node4</title>
<path fill="none" stroke="midnightblue" d="M2020.21,-360.298C2176.6,-348.336 2504.64,-316.418 2598.05,-254 2685.28,-195.703 2743.26,-77.8936 2763.78,-30.9571"/>
<polygon fill="midnightblue" stroke="midnightblue" points="2767.08,-32.1511 2767.79,-21.5802 2760.64,-29.3995 2767.08,-32.1511"/>
</g>
<!-- Node25 -->
<g id="node59" class="node"><title>Node25</title>
<a xlink:href="_histogram_8h.html" target="_top" xlink:title="Histogram.h">
<polygon fill="white" stroke="black" points="2519.05,-232.5 2519.05,-253.5 2589.05,-253.5 2589.05,-232.5 2519.05,-232.5"/>
<text text-anchor="middle" x="2554.05" y="-240.5" font-family="Helvetica,sans-Serif" font-size="10.00">Histogram.h</text>
</a>
</g>
<!-- Node24&#45;&gt;Node25 -->
<g id="edge68" class="edge"><title>Node24&#45;&gt;Node25</title>
<path fill="none" stroke="midnightblue" d="M2020.05,-355.766C2092.27,-346.363 2199.01,-331.017 2291.05,-312 2368.41,-296.015 2457.01,-271.444 2509.1,-256.343"/>
<polygon fill="midnightblue" stroke="midnightblue" points="2510.39,-259.611 2519.02,-253.454 2508.44,-252.891 2510.39,-259.611"/>
</g>
<!-- Node31 -->
<g id="node75" class="node"><title>Node31</title>
<a xlink:href="_smart_hist_8h.html" target="_top" xlink:title="SmartHist.h">
<polygon fill="white" stroke="black" points="1901.55,-290.5 1901.55,-311.5 1970.55,-311.5 1970.55,-290.5 1901.55,-290.5"/>
<text text-anchor="middle" x="1936.05" y="-298.5" font-family="Helvetica,sans-Serif" font-size="10.00">SmartHist.h</text>
</a>
</g>
<!-- Node24&#45;&gt;Node31 -->
<g id="edge88" class="edge"><title>Node24&#45;&gt;Node31</title>
<path fill="none" stroke="midnightblue" d="M1936.05,-355.267C1936.05,-346.18 1936.05,-332.892 1936.05,-321.74"/>
<polygon fill="midnightblue" stroke="midnightblue" points="1939.55,-321.534 1936.05,-311.534 1932.55,-321.534 1939.55,-321.534"/>
</g>
<!-- Node40 -->
<g id="node102" class="node"><title>Node40</title>
<a xlink:href="_particle_8h.html" target="_top" xlink:title="analysis/data/Particle.h">
<polygon fill="white" stroke="black" points="1231.55,-290.5 1231.55,-311.5 1350.55,-311.5 1350.55,-290.5 1231.55,-290.5"/>
<text text-anchor="middle" x="1291.05" y="-298.5" font-family="Helvetica,sans-Serif" font-size="10.00">analysis/data/Particle.h</text>
</a>
</g>
<!-- Node24&#45;&gt;Node40 -->
<g id="edge124" class="edge"><title>Node24&#45;&gt;Node40</title>
<path fill="none" stroke="midnightblue" d="M1851.72,-357.502C1723.15,-344.545 1480.46,-320.088 1361.03,-308.053"/>
<polygon fill="midnightblue" stroke="midnightblue" points="1361.21,-304.553 1350.91,-307.033 1360.51,-311.518 1361.21,-304.553"/>
</g>
<!-- Node25&#45;&gt;Node4 -->
<g id="edge74" class="edge"><title>Node25&#45;&gt;Node4</title>
<path fill="none" stroke="midnightblue" d="M2560.7,-232.442C2579.86,-202.582 2637.85,-115.942 2701.05,-58 2713.88,-46.2305 2729.94,-35.3397 2743.54,-27.0115"/>
<polygon fill="midnightblue" stroke="midnightblue" points="2745.69,-29.803 2752.49,-21.6759 2742.11,-23.7904 2745.69,-29.803"/>
</g>
<!-- Node25&#45;&gt;Node9 -->
<g id="edge72" class="edge"><title>Node25&#45;&gt;Node9</title>
<path fill="none" stroke="midnightblue" d="M2518.91,-234.731C2469.55,-221.583 2379.23,-191.734 2321.05,-138 2291.24,-110.469 2304.54,-87.844 2277.05,-58 2265.57,-45.5448 2250.15,-34.8248 2236.61,-26.7813"/>
<polygon fill="midnightblue" stroke="midnightblue" points="2238.03,-23.5621 2227.61,-21.6519 2234.56,-29.6439 2238.03,-23.5621"/>
</g>
<!-- Node26 -->
<g id="node61" class="node"><title>Node26</title>
<polygon fill="white" stroke="#bfbfbf" points="2519.05,-174.5 2519.05,-195.5 2573.05,-195.5 2573.05,-174.5 2519.05,-174.5"/>
<text text-anchor="middle" x="2546.05" y="-182.5" font-family="Helvetica,sans-Serif" font-size="10.00">TColor.h</text>
</g>
<!-- Node25&#45;&gt;Node26 -->
<g id="edge70" class="edge"><title>Node25&#45;&gt;Node26</title>
<path fill="none" stroke="midnightblue" d="M2552.58,-232.362C2551.55,-224.922 2550.15,-214.743 2548.9,-205.728"/>
<polygon fill="midnightblue" stroke="midnightblue" points="2552.34,-204.999 2547.5,-195.571 2545.4,-205.955 2552.34,-204.999"/>
</g>
<!-- Node27 -->
<g id="node65" class="node"><title>Node27</title>
<a xlink:href="interval_8h.html" target="_top" xlink:title="base/interval.h">
<polygon fill="white" stroke="black" points="2933.05,-174.5 2933.05,-195.5 3013.05,-195.5 3013.05,-174.5 2933.05,-174.5"/>
<text text-anchor="middle" x="2973.05" y="-182.5" font-family="Helvetica,sans-Serif" font-size="10.00">base/interval.h</text>
</a>
</g>
<!-- Node25&#45;&gt;Node27 -->
<g id="edge76" class="edge"><title>Node25&#45;&gt;Node27</title>
<path fill="none" stroke="midnightblue" d="M2589.05,-238.155C2663.33,-227.873 2836.94,-203.84 2922.94,-191.935"/>
<polygon fill="midnightblue" stroke="midnightblue" points="2923.56,-195.384 2932.98,-190.545 2922.6,-188.45 2923.56,-195.384"/>
</g>
<!-- Node27&#45;&gt;Node8 -->
<g id="edge82" class="edge"><title>Node27&#45;&gt;Node8</title>
<path fill="none" stroke="midnightblue" d="M2932.66,-184.035C2797.35,-180.603 2347.62,-167.568 1977.05,-138 1769.38,-121.43 1523.37,-90.2027 1417.19,-76.1598"/>
<polygon fill="midnightblue" stroke="midnightblue" points="1417.43,-72.6608 1407.06,-74.8153 1416.51,-79.6 1417.43,-72.6608"/>
</g>
<!-- Node27&#45;&gt;Node13 -->
<g id="edge80" class="edge"><title>Node27&#45;&gt;Node13</title>
<path fill="none" stroke="midnightblue" d="M2996.58,-174.295C3042.43,-153.438 3143.77,-107.336 3195.82,-83.6603"/>
<polygon fill="midnightblue" stroke="midnightblue" points="3197.28,-86.8383 3204.94,-79.5117 3194.39,-80.4666 3197.28,-86.8383"/>
</g>
<!-- Node28 -->
<g id="node67" class="node"><title>Node28</title>
<polygon fill="white" stroke="#bfbfbf" points="3501.05,-0.5 3501.05,-21.5 3557.05,-21.5 3557.05,-0.5 3501.05,-0.5"/>
<text text-anchor="middle" x="3529.05" y="-8.5" font-family="Helvetica,sans-Serif" font-size="10.00">algorithm</text>
</g>
<!-- Node27&#45;&gt;Node28 -->
<g id="edge78" class="edge"><title>Node27&#45;&gt;Node28</title>
<path fill="none" stroke="midnightblue" d="M2986.82,-174.286C3019.79,-149.255 3106.73,-86.8758 3190.05,-58 3245,-38.9516 3414.19,-21.5481 3490.73,-14.4155"/>
<polygon fill="midnightblue" stroke="midnightblue" points="3491.26,-17.8818 3500.89,-13.4781 3490.62,-10.9114 3491.26,-17.8818"/>
</g>
<!-- Node29 -->
<g id="node71" class="node"><title>Node29</title>
<a xlink:href="types_8h.html" target="_top" xlink:title="types.h">
<polygon fill="white" stroke="black" points="1233.55,-116.5 1233.55,-137.5 1282.55,-137.5 1282.55,-116.5 1233.55,-116.5"/>
<text text-anchor="middle" x="1258.05" y="-124.5" font-family="Helvetica,sans-Serif" font-size="10.00">types.h</text>
</a>
</g>
<!-- Node27&#45;&gt;Node29 -->
<g id="edge84" class="edge"><title>Node27&#45;&gt;Node29</title>
<path fill="none" stroke="midnightblue" d="M2932.84,-183.837C2706.29,-177.277 1593.73,-144.929 1441.05,-138 1389.39,-135.656 1329.6,-131.857 1292.8,-129.394"/>
<polygon fill="midnightblue" stroke="midnightblue" points="1292.81,-125.887 1282.6,-128.706 1292.34,-132.871 1292.81,-125.887"/>
</g>
<!-- Node27&#45;&gt;Node30 -->
<g id="edge86" class="edge"><title>Node27&#45;&gt;Node30</title>
<path fill="none" stroke="midnightblue" d="M2975.89,-174.039C2980.16,-159.37 2989.43,-133.21 3005.05,-116 3018.98,-100.643 3039.13,-88.8463 3055.72,-80.9121"/>
<polygon fill="midnightblue" stroke="midnightblue" points="3057.35,-84.0159 3065.01,-76.6893 3054.45,-77.6442 3057.35,-84.0159"/>
</g>
<!-- Node31&#45;&gt;Node4 -->
<g id="edge118" class="edge"><title>Node31&#45;&gt;Node4</title>
<path fill="none" stroke="midnightblue" d="M1970.58,-299.725C2063.65,-295.934 2317.91,-283.13 2396.05,-254 2454.04,-232.377 2459.29,-209.434 2510.05,-174 2584.14,-122.266 2599.22,-103.94 2677.05,-58 2698.1,-45.5736 2722.88,-33.3877 2741.86,-24.5389"/>
<polygon fill="midnightblue" stroke="midnightblue" points="2743.58,-27.5971 2751.2,-20.2321 2740.65,-21.2401 2743.58,-27.5971"/>
</g>
<!-- Node31&#45;&gt;Node5 -->
<g id="edge116" class="edge"><title>Node31&#45;&gt;Node5</title>
<path fill="none" stroke="midnightblue" d="M1901.42,-300.504C1747.51,-298.125 1124.52,-286.629 932.046,-254 860.981,-241.953 780.994,-215.073 735.944,-198.645"/>
<polygon fill="midnightblue" stroke="midnightblue" points="736.934,-195.28 726.341,-195.108 734.515,-201.849 736.934,-195.28"/>
</g>
<!-- Node31&#45;&gt;Node17 -->
<g id="edge108" class="edge"><title>Node31&#45;&gt;Node17</title>
<path fill="none" stroke="midnightblue" d="M1901.41,-299.652C1709.85,-292.195 779.345,-255.974 515.758,-245.714"/>
<polygon fill="midnightblue" stroke="midnightblue" points="515.682,-242.208 505.554,-245.316 515.41,-249.203 515.682,-242.208"/>
</g>
<!-- Node31&#45;&gt;Node25 -->
<g id="edge90" class="edge"><title>Node31&#45;&gt;Node25</title>
<path fill="none" stroke="midnightblue" d="M1970.55,-299.814C2059.55,-296.396 2303.93,-284.729 2505.05,-254 2506.31,-253.807 2507.58,-253.601 2508.87,-253.383"/>
<polygon fill="midnightblue" stroke="midnightblue" points="2509.64,-256.799 2518.83,-251.518 2508.35,-249.918 2509.64,-256.799"/>
</g>
<!-- Node32 -->
<g id="node78" class="node"><title>Node32</title>
<a xlink:href="root__draw_8h.html" target="_top" xlink:title="root_draw.h">
<polygon fill="white" stroke="black" points="2105.05,-232.5 2105.05,-253.5 2173.05,-253.5 2173.05,-232.5 2105.05,-232.5"/>
<text text-anchor="middle" x="2139.05" y="-240.5" font-family="Helvetica,sans-Serif" font-size="10.00">root_draw.h</text>
</a>
</g>
<!-- Node31&#45;&gt;Node32 -->
<g id="edge92" class="edge"><title>Node31&#45;&gt;Node32</title>
<path fill="none" stroke="midnightblue" d="M1970.94,-291.029C2005.24,-281.23 2057.7,-266.24 2094.89,-255.617"/>
<polygon fill="midnightblue" stroke="midnightblue" points="2096.29,-258.857 2104.94,-252.744 2094.37,-252.126 2096.29,-258.857"/>
</g>
<!-- Node35 -->
<g id="node90" class="node"><title>Node35</title>
<polygon fill="white" stroke="#bfbfbf" points="1786.55,-232.5 1786.55,-253.5 1837.55,-253.5 1837.55,-232.5 1786.55,-232.5"/>
<text text-anchor="middle" x="1812.05" y="-240.5" font-family="Helvetica,sans-Serif" font-size="10.00">TH1D.h</text>
</g>
<!-- Node31&#45;&gt;Node35 -->
<g id="edge110" class="edge"><title>Node31&#45;&gt;Node35</title>
<path fill="none" stroke="midnightblue" d="M1913.59,-290.497C1894.14,-281.397 1865.77,-268.127 1843.95,-257.925"/>
<polygon fill="midnightblue" stroke="midnightblue" points="1845.29,-254.688 1834.75,-253.621 1842.33,-261.028 1845.29,-254.688"/>
</g>
<!-- Node36 -->
<g id="node92" class="node"><title>Node36</title>
<polygon fill="white" stroke="#bfbfbf" points="1854.55,-232.5 1854.55,-253.5 1905.55,-253.5 1905.55,-232.5 1854.55,-232.5"/>
<text text-anchor="middle" x="1880.05" y="-240.5" font-family="Helvetica,sans-Serif" font-size="10.00">TH2D.h</text>
</g>
<!-- Node31&#45;&gt;Node36 -->
<g id="edge112" class="edge"><title>Node31&#45;&gt;Node36</title>
<path fill="none" stroke="midnightblue" d="M1925.77,-290.362C1917.8,-282.104 1906.57,-270.472 1897.23,-260.803"/>
<polygon fill="midnightblue" stroke="midnightblue" points="1899.72,-258.334 1890.25,-253.571 1894.68,-263.196 1899.72,-258.334"/>
</g>
<!-- Node37 -->
<g id="node94" class="node"><title>Node37</title>
<polygon fill="white" stroke="#bfbfbf" points="1922.55,-232.5 1922.55,-253.5 1973.55,-253.5 1973.55,-232.5 1922.55,-232.5"/>
<text text-anchor="middle" x="1948.05" y="-240.5" font-family="Helvetica,sans-Serif" font-size="10.00">TH3D.h</text>
</g>
<!-- Node31&#45;&gt;Node37 -->
<g id="edge114" class="edge"><title>Node31&#45;&gt;Node37</title>
<path fill="none" stroke="midnightblue" d="M1938.25,-290.362C1939.8,-282.84 1941.94,-272.519 1943.82,-263.431"/>
<polygon fill="midnightblue" stroke="midnightblue" points="1947.26,-264.072 1945.86,-253.571 1940.41,-262.654 1947.26,-264.072"/>
</g>
<!-- Node38 -->
<g id="node98" class="node"><title>Node38</title>
<polygon fill="white" stroke="#bfbfbf" points="1639.05,-232.5 1639.05,-253.5 1693.05,-253.5 1693.05,-232.5 1639.05,-232.5"/>
<text text-anchor="middle" x="1666.05" y="-240.5" font-family="Helvetica,sans-Serif" font-size="10.00">iostream</text>
</g>
<!-- Node31&#45;&gt;Node38 -->
<g id="edge120" class="edge"><title>Node31&#45;&gt;Node38</title>
<path fill="none" stroke="midnightblue" d="M1901.3,-293.536C1850.29,-282.579 1755.54,-262.226 1703.2,-250.981"/>
<polygon fill="midnightblue" stroke="midnightblue" points="1703.83,-247.537 1693.32,-248.859 1702.36,-254.381 1703.83,-247.537"/>
</g>
<!-- Node39 -->
<g id="node100" class="node"><title>Node39</title>
<polygon fill="white" stroke="#bfbfbf" points="1990.55,-232.5 1990.55,-253.5 2049.55,-253.5 2049.55,-232.5 1990.55,-232.5"/>
<text text-anchor="middle" x="2020.05" y="-240.5" font-family="Helvetica,sans-Serif" font-size="10.00">exception</text>
</g>
<!-- Node31&#45;&gt;Node39 -->
<g id="edge122" class="edge"><title>Node31&#45;&gt;Node39</title>
<path fill="none" stroke="midnightblue" d="M1951.45,-290.362C1964,-281.696 1981.94,-269.313 1996.32,-259.382"/>
<polygon fill="midnightblue" stroke="midnightblue" points="1998.5,-262.133 2004.74,-253.571 1994.52,-256.372 1998.5,-262.133"/>
</g>
<!-- Node32&#45;&gt;Node4 -->
<g id="edge94" class="edge"><title>Node32&#45;&gt;Node4</title>
<path fill="none" stroke="midnightblue" d="M2173.27,-238.575C2240.76,-228.733 2394.28,-200.764 2507.05,-138 2553.23,-112.294 2548.63,-83.2799 2595.05,-58 2642.44,-32.1886 2704.8,-19.9427 2741.45,-14.6208"/>
<polygon fill="midnightblue" stroke="midnightblue" points="2742.07,-18.0674 2751.51,-13.2408 2741.12,-11.1323 2742.07,-18.0674"/>
</g>
<!-- Node32&#45;&gt;Node5 -->
<g id="edge102" class="edge"><title>Node32&#45;&gt;Node5</title>
<path fill="none" stroke="midnightblue" d="M2104.84,-237.576C2090.43,-235.494 2073.46,-233.306 2058.05,-232 1589.67,-192.323 1470.8,-212.583 1001.05,-196 905.556,-192.629 793.033,-188.466 736.441,-186.359"/>
<polygon fill="midnightblue" stroke="midnightblue" points="736.339,-182.853 726.215,-185.978 736.078,-189.848 736.339,-182.853"/>
</g>
<!-- Node32&#45;&gt;Node9 -->
<g id="edge98" class="edge"><title>Node32&#45;&gt;Node9</title>
<path fill="none" stroke="midnightblue" d="M2123.12,-232.346C2112.09,-223.944 2098.32,-211.139 2092.05,-196 2088.3,-186.967 2089.11,-183.327 2092.05,-174 2110.91,-114.036 2160.59,-56.9345 2187.72,-28.9425"/>
<polygon fill="midnightblue" stroke="midnightblue" points="2190.5,-31.1027 2195.04,-21.5292 2185.52,-26.1829 2190.5,-31.1027"/>
</g>
<!-- Node32&#45;&gt;Node18 -->
<g id="edge96" class="edge"><title>Node32&#45;&gt;Node18</title>
<path fill="none" stroke="midnightblue" d="M2104.82,-237.769C2090.41,-235.718 2073.44,-233.501 2058.05,-232 1789.95,-205.858 1721.82,-213.747 1453.05,-196 1084.52,-171.668 636.038,-137.34 526.863,-128.92"/>
<polygon fill="midnightblue" stroke="midnightblue" points="526.806,-125.405 516.566,-128.125 526.267,-132.384 526.806,-125.405"/>
</g>
<!-- Node32&#45;&gt;Node21 -->
<g id="edge100" class="edge"><title>Node32&#45;&gt;Node21</title>
<path fill="none" stroke="midnightblue" d="M2104.97,-235.11C2100.3,-234.051 2095.55,-232.99 2091.05,-232 2020.38,-216.491 1936.93,-199.269 1894.62,-190.615"/>
<polygon fill="midnightblue" stroke="midnightblue" points="1895.28,-187.178 1884.78,-188.606 1893.88,-194.036 1895.28,-187.178"/>
</g>
<!-- Node32&#45;&gt;Node33 -->
<g id="edge104" class="edge"><title>Node32&#45;&gt;Node33</title>
<path fill="none" stroke="midnightblue" d="M2137.39,-232.362C2136.24,-224.922 2134.66,-214.743 2133.26,-205.728"/>
<polygon fill="midnightblue" stroke="midnightblue" points="2136.68,-204.916 2131.69,-195.571 2129.76,-205.989 2136.68,-204.916"/>
</g>
<!-- Node34 -->
<g id="node87" class="node"><title>Node34</title>
<polygon fill="white" stroke="#bfbfbf" points="3237.05,-116.5 3237.05,-137.5 3293.05,-137.5 3293.05,-116.5 3237.05,-116.5"/>
<text text-anchor="middle" x="3265.05" y="-124.5" font-family="Helvetica,sans-Serif" font-size="10.00">Rtypes.h</text>
</g>
<!-- Node32&#45;&gt;Node34 -->
<g id="edge106" class="edge"><title>Node32&#45;&gt;Node34</title>
<path fill="none" stroke="midnightblue" d="M2173.12,-239.439C2196.9,-237.055 2229.38,-233.999 2258.05,-232 2597.15,-208.35 2686.56,-250.787 3022.05,-196 3096.19,-183.891 3179.92,-157.089 3227.21,-140.681"/>
<polygon fill="midnightblue" stroke="midnightblue" points="3228.45,-143.956 3236.73,-137.347 3226.13,-137.349 3228.45,-143.956"/>
</g>
<!-- Node40&#45;&gt;Node8 -->
<g id="edge126" class="edge"><title>Node40&#45;&gt;Node8</title>
<path fill="none" stroke="midnightblue" d="M1298.45,-290.291C1309.9,-274.658 1333.48,-245.935 1361.05,-232 1451.82,-186.11 1521.02,-273.371 1587.05,-196 1611.29,-167.593 1569.42,-130.539 1549.05,-116 1528.06,-101.026 1464.25,-86.8929 1417.42,-78.1095"/>
<polygon fill="midnightblue" stroke="midnightblue" points="1417.88,-74.635 1407.41,-76.2642 1416.61,-81.5191 1417.88,-74.635"/>
</g>
<!-- Node40&#45;&gt;Node9 -->
<g id="edge170" class="edge"><title>Node40&#45;&gt;Node9</title>
<path fill="none" stroke="midnightblue" d="M1347.05,-290.454C1408.52,-278.696 1500.59,-260.48 1516.05,-254 1532.3,-247.185 1532.7,-238.588 1549.05,-232 1632.82,-198.244 1668.93,-237.702 1749.05,-196 1826.26,-155.805 1810.21,-96.9793 1888.05,-58 1937.88,-33.0429 2103.55,-18.418 2173.95,-13.1957"/>
<polygon fill="midnightblue" stroke="midnightblue" points="2174.29,-16.6804 2184.01,-12.4657 2173.78,-9.69873 2174.29,-16.6804"/>
</g>
<!-- Node40&#45;&gt;Node18 -->
<g id="edge172" class="edge"><title>Node40&#45;&gt;Node18</title>
<path fill="none" stroke="midnightblue" d="M1231.41,-295.548C1144.3,-287.183 986.675,-270.422 932.046,-254 854.38,-230.653 845.17,-199.077 768.046,-174 681.986,-146.018 574.528,-133.516 526.83,-129.056"/>
<polygon fill="midnightblue" stroke="midnightblue" points="527.083,-125.564 516.81,-128.156 526.457,-132.536 527.083,-125.564"/>
</g>
<!-- Node40&#45;&gt;Node29 -->
<g id="edge128" class="edge"><title>Node40&#45;&gt;Node29</title>
<path fill="none" stroke="midnightblue" d="M1289.49,-290.216C1287.49,-276.613 1283.83,-252.519 1280.05,-232 1274.61,-202.521 1267.31,-168.607 1262.64,-147.486"/>
<polygon fill="midnightblue" stroke="midnightblue" points="1266.06,-146.699 1260.47,-137.698 1259.22,-148.22 1266.06,-146.699"/>
</g>
<!-- Node40&#45;&gt;Node38 -->
<g id="edge174" class="edge"><title>Node40&#45;&gt;Node38</title>
<path fill="none" stroke="midnightblue" d="M1350.88,-291.746C1429.04,-279.658 1563.55,-258.853 1628.62,-248.788"/>
<polygon fill="midnightblue" stroke="midnightblue" points="1629.48,-252.198 1638.82,-247.21 1628.41,-245.28 1629.48,-252.198"/>
</g>
<!-- Node41 -->
<g id="node106" class="node"><title>Node41</title>
<a xlink:href="_particle_type_8h.html" target="_top" xlink:title="base/ParticleType.h">
<polygon fill="white" stroke="black" points="1403.05,-232.5 1403.05,-253.5 1507.05,-253.5 1507.05,-232.5 1403.05,-232.5"/>
<text text-anchor="middle" x="1455.05" y="-240.5" font-family="Helvetica,sans-Serif" font-size="10.00">base/ParticleType.h</text>
</a>
</g>
<!-- Node40&#45;&gt;Node41 -->
<g id="edge130" class="edge"><title>Node40&#45;&gt;Node41</title>
<path fill="none" stroke="midnightblue" d="M1320.74,-290.497C1347.37,-281.082 1386.61,-267.204 1415.81,-256.877"/>
<polygon fill="midnightblue" stroke="midnightblue" points="1417.03,-260.157 1425.29,-253.523 1414.7,-253.558 1417.03,-260.157"/>
</g>
<!-- Node43 -->
<g id="node115" class="node"><title>Node43</title>
<a xlink:href="_candidate_8h.html" target="_top" xlink:title="analysis/data/Candidate.h">
<polygon fill="white" stroke="black" points="1141.05,-232.5 1141.05,-253.5 1271.05,-253.5 1271.05,-232.5 1141.05,-232.5"/>
<text text-anchor="middle" x="1206.05" y="-240.5" font-family="Helvetica,sans-Serif" font-size="10.00">analysis/data/Candidate.h</text>
</a>
</g>
<!-- Node40&#45;&gt;Node43 -->
<g id="edge144" class="edge"><title>Node40&#45;&gt;Node43</title>
<path fill="none" stroke="midnightblue" d="M1275.46,-290.362C1262.75,-281.696 1244.61,-269.313 1230.05,-259.382"/>
<polygon fill="midnightblue" stroke="midnightblue" points="1231.77,-256.316 1221.54,-253.571 1227.82,-262.098 1231.77,-256.316"/>
</g>
<!-- Node46 -->
<g id="node130" class="node"><title>Node46</title>
<polygon fill="white" stroke="#bfbfbf" points="1010.05,-174.5 1010.05,-195.5 1102.05,-195.5 1102.05,-174.5 1010.05,-174.5"/>
<text text-anchor="middle" x="1056.05" y="-182.5" font-family="Helvetica,sans-Serif" font-size="10.00">TLorentzVector.h</text>
</g>
<!-- Node40&#45;&gt;Node46 -->
<g id="edge168" class="edge"><title>Node40&#45;&gt;Node46</title>
<path fill="none" stroke="midnightblue" d="M1233.01,-290.442C1201.74,-283.163 1163.28,-271.566 1132.05,-254 1108.37,-240.685 1085.94,-218.763 1071.67,-203.205"/>
<polygon fill="midnightblue" stroke="midnightblue" points="1074.26,-200.852 1064.99,-195.728 1069.04,-205.517 1074.26,-200.852"/>
</g>
<!-- Node41&#45;&gt;Node4 -->
<g id="edge134" class="edge"><title>Node41&#45;&gt;Node4</title>
<path fill="none" stroke="midnightblue" d="M1507.25,-239.663C1668.96,-229.315 2151.69,-198.315 2168.05,-196 2287.42,-179.099 2321.32,-183.312 2433.05,-138 2495.56,-112.645 2499.59,-83.5017 2562.05,-58 2622.98,-33.1211 2699.49,-20.2262 2741.29,-14.6031"/>
<polygon fill="midnightblue" stroke="midnightblue" points="2741.92,-18.0515 2751.38,-13.2969 2741.02,-11.1094 2741.92,-18.0515"/>
</g>
<!-- Node41&#45;&gt;Node9 -->
<g id="edge142" class="edge"><title>Node41&#45;&gt;Node9</title>
<path fill="none" stroke="midnightblue" d="M1507.24,-234.153C1585.95,-220.791 1726.01,-196.908 1727.05,-196 1775.35,-153.644 1720.42,-98.7961 1770.05,-58 1801.12,-32.4539 2078.07,-17.0535 2173.72,-12.4589"/>
<polygon fill="midnightblue" stroke="midnightblue" points="2174.13,-15.9439 2183.95,-11.9759 2173.8,-8.95166 2174.13,-15.9439"/>
</g>
<!-- Node41&#45;&gt;Node10 -->
<g id="edge136" class="edge"><title>Node41&#45;&gt;Node10</title>
<path fill="none" stroke="midnightblue" d="M1442.22,-232.163C1414.29,-207.86 1347.59,-145.943 1312.05,-80 1303.95,-64.9837 1299.07,-46.2276 1296.29,-32.0623"/>
<polygon fill="midnightblue" stroke="midnightblue" points="1299.67,-31.0845 1294.49,-21.8454 1292.78,-32.3016 1299.67,-31.0845"/>
</g>
<!-- Node41&#45;&gt;Node21 -->
<g id="edge138" class="edge"><title>Node41&#45;&gt;Node21</title>
<path fill="none" stroke="midnightblue" d="M1507.23,-237.204C1604.09,-226.351 1804.75,-203.389 1836.05,-196 1837.3,-195.705 1838.57,-195.376 1839.84,-195.023"/>
<polygon fill="midnightblue" stroke="midnightblue" points="1841.06,-198.31 1849.54,-191.96 1838.95,-191.635 1841.06,-198.31"/>
</g>
<!-- Node41&#45;&gt;Node29 -->
<g id="edge132" class="edge"><title>Node41&#45;&gt;Node29</title>
<path fill="none" stroke="midnightblue" d="M1436.87,-232.295C1401.96,-211.741 1325.42,-166.67 1284.72,-142.706"/>
<polygon fill="midnightblue" stroke="midnightblue" points="1286.29,-139.57 1275.9,-137.512 1282.74,-145.602 1286.29,-139.57"/>
</g>
<!-- Node42 -->
<g id="node112" class="node"><title>Node42</title>
<polygon fill="white" stroke="#bfbfbf" points="1671.55,-174.5 1671.55,-195.5 1718.55,-195.5 1718.55,-174.5 1671.55,-174.5"/>
<text text-anchor="middle" x="1695.05" y="-182.5" font-family="Helvetica,sans-Serif" font-size="10.00">iterator</text>
</g>
<!-- Node41&#45;&gt;Node42 -->
<g id="edge140" class="edge"><title>Node41&#45;&gt;Node42</title>
<path fill="none" stroke="midnightblue" d="M1504.48,-232.446C1545.71,-223.429 1605.93,-209.766 1658.05,-196 1659.11,-195.718 1660.2,-195.426 1661.29,-195.127"/>
<polygon fill="midnightblue" stroke="midnightblue" points="1662.55,-198.408 1671.22,-192.317 1660.65,-191.673 1662.55,-198.408"/>
</g>
<!-- Node43&#45;&gt;Node5 -->
<g id="edge164" class="edge"><title>Node43&#45;&gt;Node5</title>
<path fill="none" stroke="midnightblue" d="M1140.93,-235.536C1033.17,-223.184 821.215,-198.889 736.395,-189.167"/>
<polygon fill="midnightblue" stroke="midnightblue" points="736.561,-185.663 726.228,-188.001 735.764,-192.617 736.561,-185.663"/>
</g>
<!-- Node43&#45;&gt;Node7 -->
<g id="edge150" class="edge"><title>Node43&#45;&gt;Node7</title>
<path fill="none" stroke="midnightblue" d="M1271.27,-239.232C1370.16,-233.041 1563.83,-219.051 1727.05,-196 1778.14,-188.784 1789.94,-181.152 1841.05,-174 2014.38,-149.741 2221.12,-135.815 2319.51,-130.092"/>
<polygon fill="midnightblue" stroke="midnightblue" points="2319.75,-133.584 2329.54,-129.515 2319.35,-126.595 2319.75,-133.584"/>
</g>
<!-- Node43&#45;&gt;Node8 -->
<g id="edge146" class="edge"><title>Node43&#45;&gt;Node8</title>
<path fill="none" stroke="midnightblue" d="M1204.27,-232.337C1200.93,-208.477 1196.44,-150.2 1225.05,-116 1236.43,-102.396 1276.55,-89.6847 1310.79,-80.9207"/>
<polygon fill="midnightblue" stroke="midnightblue" points="1311.86,-84.2596 1320.72,-78.4437 1310.17,-77.4676 1311.86,-84.2596"/>
</g>
<!-- Node43&#45;&gt;Node9 -->
<g id="edge166" class="edge"><title>Node43&#45;&gt;Node9</title>
<path fill="none" stroke="midnightblue" d="M1222.86,-232.395C1260.66,-208.903 1355.71,-151.739 1441.05,-116 1522.09,-82.0579 1543.75,-74.5586 1630.05,-58 1735.67,-37.732 2068.35,-18.4487 2173.71,-12.7152"/>
<polygon fill="midnightblue" stroke="midnightblue" points="2173.94,-16.2077 2183.74,-12.173 2173.57,-9.21788 2173.94,-16.2077"/>
</g>
<!-- Node43&#45;&gt;Node10 -->
<g id="edge162" class="edge"><title>Node43&#45;&gt;Node10</title>
<path fill="none" stroke="midnightblue" d="M1203.68,-232.239C1201.73,-222.755 1199.1,-208.536 1198.05,-196 1195.02,-160.237 1194.05,-148.607 1209.05,-116 1224.98,-81.3614 1254.77,-48.184 1274.25,-28.7015"/>
<polygon fill="midnightblue" stroke="midnightblue" points="1276.71,-31.1918 1281.41,-21.6955 1271.82,-26.1894 1276.71,-31.1918"/>
</g>
<!-- Node43&#45;&gt;Node29 -->
<g id="edge148" class="edge"><title>Node43&#45;&gt;Node29</title>
<path fill="none" stroke="midnightblue" d="M1210.84,-232.295C1219.55,-212.872 1238.07,-171.556 1249.15,-146.846"/>
<polygon fill="midnightblue" stroke="midnightblue" points="1252.36,-148.236 1253.26,-137.679 1245.97,-145.373 1252.36,-148.236"/>
</g>
<!-- Node44 -->
<g id="node120" class="node"><title>Node44</title>
<a xlink:href="_cluster_8h.html" target="_top" xlink:title="analysis/data/Cluster.h">
<polygon fill="white" stroke="black" points="1461.55,-174.5 1461.55,-195.5 1578.55,-195.5 1578.55,-174.5 1461.55,-174.5"/>
<text text-anchor="middle" x="1520.05" y="-182.5" font-family="Helvetica,sans-Serif" font-size="10.00">analysis/data/Cluster.h</text>
</a>
</g>
<!-- Node43&#45;&gt;Node44 -->
<g id="edge152" class="edge"><title>Node43&#45;&gt;Node44</title>
<path fill="none" stroke="midnightblue" d="M1262.91,-232.497C1316.43,-222.611 1396.59,-207.805 1453.15,-197.356"/>
<polygon fill="midnightblue" stroke="midnightblue" points="1453.88,-200.781 1463.08,-195.523 1452.61,-193.898 1453.88,-200.781"/>
</g>
<!-- Node44&#45;&gt;Node7 -->
<g id="edge154" class="edge"><title>Node44&#45;&gt;Node7</title>
<path fill="none" stroke="midnightblue" d="M1578.82,-180.332C1604.66,-178.318 1635.35,-175.977 1663.05,-174 1906.86,-156.598 2197.68,-138.181 2319.22,-130.59"/>
<polygon fill="midnightblue" stroke="midnightblue" points="2319.64,-134.07 2329.41,-129.954 2319.21,-127.083 2319.64,-134.07"/>
</g>
<!-- Node44&#45;&gt;Node11 -->
<g id="edge158" class="edge"><title>Node44&#45;&gt;Node11</title>
<path fill="none" stroke="midnightblue" d="M1557.43,-174.398C1633.64,-152.783 1806.53,-103.747 1886.73,-81.0021"/>
<polygon fill="midnightblue" stroke="midnightblue" points="1887.83,-84.328 1896.49,-78.2321 1885.92,-77.5936 1887.83,-84.328"/>
</g>
<!-- Node44&#45;&gt;Node18 -->
<g id="edge156" class="edge"><title>Node44&#45;&gt;Node18</title>
<path fill="none" stroke="midnightblue" d="M1461.17,-175.505C1456.73,-174.943 1452.32,-174.432 1448.05,-174 1083.06,-137.149 635.801,-128.833 526.834,-127.303"/>
<polygon fill="midnightblue" stroke="midnightblue" points="526.867,-123.804 516.821,-127.169 526.773,-130.803 526.867,-123.804"/>
</g>
<!-- Node45 -->
<g id="node125" class="node"><title>Node45</title>
<a xlink:href="enumfield_8h.html" target="_top" xlink:title="base/enumfield.h">
<polygon fill="white" stroke="black" points="1449.55,-116.5 1449.55,-137.5 1540.55,-137.5 1540.55,-116.5 1449.55,-116.5"/>
<text text-anchor="middle" x="1495.05" y="-124.5" font-family="Helvetica,sans-Serif" font-size="10.00">base/enumfield.h</text>
</a>
</g>
<!-- Node44&#45;&gt;Node45 -->
<g id="edge160" class="edge"><title>Node44&#45;&gt;Node45</title>
<path fill="none" stroke="midnightblue" d="M1515.46,-174.362C1512.15,-166.677 1507.58,-156.069 1503.6,-146.84"/>
<polygon fill="midnightblue" stroke="midnightblue" points="1506.77,-145.368 1499.6,-137.571 1500.35,-148.139 1506.77,-145.368"/>
</g>
<!-- Node47&#45;&gt;Node5 -->
<g id="edge252" class="edge"><title>Node47&#45;&gt;Node5</title>
<path fill="none" stroke="midnightblue" d="M1099.39,-359.394C1041.96,-351.635 950.279,-336.6 874.046,-312 815.76,-293.192 796.129,-293.167 749.046,-254 732.553,-240.28 718.933,-219.764 710.275,-204.667"/>
<polygon fill="midnightblue" stroke="midnightblue" points="713.205,-202.733 705.321,-195.655 707.071,-206.105 713.205,-202.733"/>
</g>
<!-- Node47&#45;&gt;Node8 -->
<g id="edge248" class="edge"><title>Node47&#45;&gt;Node8</title>
<path fill="none" stroke="midnightblue" d="M1099.46,-364.505C947.028,-360.02 524.805,-344.904 390.046,-312 322.663,-295.548 220.054,-291.293 256.046,-232 314.017,-136.5 371.267,-145.407 479.046,-116 559.046,-94.1726 1131.91,-75.7773 1310.81,-70.5126"/>
<polygon fill="midnightblue" stroke="midnightblue" points="1311.13,-74.0048 1321.02,-70.2137 1310.93,-67.0078 1311.13,-74.0048"/>
</g>
<!-- Node47&#45;&gt;Node9 -->
<g id="edge250" class="edge"><title>Node47&#45;&gt;Node9</title>
<path fill="none" stroke="midnightblue" d="M1210.7,-356.871C1263.13,-347.297 1336.86,-331.013 1359.05,-312 1388.51,-286.745 1363.47,-255.908 1394.05,-232 1468.98,-173.396 1520.08,-238.792 1605.05,-196 1684.22,-156.127 1668.59,-95.2192 1749.05,-58 1824.87,-22.9234 2082.61,-13.7813 2173.77,-11.6171"/>
<polygon fill="midnightblue" stroke="midnightblue" points="2174.12,-15.1102 2184.04,-11.3865 2173.97,-8.11197 2174.12,-15.1102"/>
</g>
<!-- Node47&#45;&gt;Node21 -->
<g id="edge254" class="edge"><title>Node47&#45;&gt;Node21</title>
<path fill="none" stroke="midnightblue" d="M1210.7,-357.755C1266.69,-348.836 1355.22,-333.023 1430.05,-312 1501.66,-291.88 1518.92,-283.883 1587.05,-254 1606.7,-245.376 1609.77,-239.044 1630.05,-232 1668.6,-218.607 1785.48,-198.418 1839.33,-189.504"/>
<polygon fill="midnightblue" stroke="midnightblue" points="1840.22,-192.905 1849.52,-187.828 1839.08,-185.998 1840.22,-192.905"/>
</g>
<!-- Node47&#45;&gt;Node29 -->
<g id="edge246" class="edge"><title>Node47&#45;&gt;Node29</title>
<path fill="none" stroke="midnightblue" d="M1149.17,-355.355C1137.07,-331.914 1112.12,-274.537 1132.05,-232 1151.53,-190.403 1196.49,-159.538 1227.08,-142.396"/>
<polygon fill="midnightblue" stroke="midnightblue" points="1228.95,-145.364 1236.07,-137.52 1225.61,-139.211 1228.95,-145.364"/>
</g>
<!-- Node47&#45;&gt;Node40 -->
<g id="edge180" class="edge"><title>Node47&#45;&gt;Node40</title>
<path fill="none" stroke="midnightblue" d="M1177.2,-355.412C1199.62,-344.694 1234.5,-328.025 1259.74,-315.96"/>
<polygon fill="midnightblue" stroke="midnightblue" points="1261.39,-319.054 1268.9,-311.584 1258.37,-312.738 1261.39,-319.054"/>
</g>
<!-- Node47&#45;&gt;Node43 -->
<g id="edge182" class="edge"><title>Node47&#45;&gt;Node43</title>
<path fill="none" stroke="midnightblue" d="M1159.57,-355.085C1168.14,-334.427 1186.83,-289.337 1197.72,-263.076"/>
<polygon fill="midnightblue" stroke="midnightblue" points="1201.01,-264.293 1201.6,-253.715 1194.54,-261.612 1201.01,-264.293"/>
</g>
<!-- Node48 -->
<g id="node140" class="node"><title>Node48</title>
<a xlink:href="_tagger_hit_8h.html" target="_top" xlink:title="TaggerHit.h">
<polygon fill="white" stroke="black" points="941.046,-232.5 941.046,-253.5 1009.05,-253.5 1009.05,-232.5 941.046,-232.5"/>
<text text-anchor="middle" x="975.046" y="-240.5" font-family="Helvetica,sans-Serif" font-size="10.00">TaggerHit.h</text>
</a>
</g>
<!-- Node47&#45;&gt;Node48 -->
<g id="edge184" class="edge"><title>Node47&#45;&gt;Node48</title>
<path fill="none" stroke="midnightblue" d="M1139.39,-355.3C1107.79,-333.71 1036.25,-284.82 998.84,-259.26"/>
<polygon fill="midnightblue" stroke="midnightblue" points="1000.77,-256.34 990.54,-253.588 996.822,-262.12 1000.77,-256.34"/>
</g>
<!-- Node49 -->
<g id="node147" class="node"><title>Node49</title>
<a xlink:href="_trigger_info_8h.html" target="_top" xlink:title="TriggerInfo.h">
<polygon fill="white" stroke="black" points="882.546,-290.5 882.546,-311.5 953.546,-311.5 953.546,-290.5 882.546,-290.5"/>
<text text-anchor="middle" x="918.046" y="-298.5" font-family="Helvetica,sans-Serif" font-size="10.00">TriggerInfo.h</text>
</a>
</g>
<!-- Node47&#45;&gt;Node49 -->
<g id="edge196" class="edge"><title>Node47&#45;&gt;Node49</title>
<path fill="none" stroke="midnightblue" d="M1116.7,-355.484C1074.81,-343.993 1007.74,-325.6 963.294,-313.41"/>
<polygon fill="midnightblue" stroke="midnightblue" points="964.189,-310.026 953.619,-310.756 962.337,-316.777 964.189,-310.026"/>
</g>
<!-- Node48&#45;&gt;Node5 -->
<g id="edge188" class="edge"><title>Node48&#45;&gt;Node5</title>
<path fill="none" stroke="midnightblue" d="M940.773,-235.772C888.534,-224.754 789.451,-203.857 736.145,-192.614"/>
<polygon fill="midnightblue" stroke="midnightblue" points="736.628,-189.139 726.121,-190.5 735.184,-195.988 736.628,-189.139"/>
</g>
<!-- Node48&#45;&gt;Node8 -->
<g id="edge192" class="edge"><title>Node48&#45;&gt;Node8</title>
<path fill="none" stroke="midnightblue" d="M966.961,-232.043C957.213,-217.378 943.701,-191.224 957.046,-174 1000.26,-118.216 1210.48,-86.7902 1310.7,-74.7574"/>
<polygon fill="midnightblue" stroke="midnightblue" points="1311.39,-78.2 1320.91,-73.5525 1310.57,-71.2482 1311.39,-78.2"/>
</g>
<!-- Node48&#45;&gt;Node18 -->
<g id="edge186" class="edge"><title>Node48&#45;&gt;Node18</title>
<path fill="none" stroke="midnightblue" d="M956.613,-232.265C926.281,-214.778 866.929,-181.347 844.046,-174 729.561,-137.241 584.471,-129.232 527.059,-127.486"/>
<polygon fill="midnightblue" stroke="midnightblue" points="526.87,-123.98 516.781,-127.214 526.684,-130.978 526.87,-123.98"/>
</g>
<!-- Node48&#45;&gt;Node29 -->
<g id="edge190" class="edge"><title>Node48&#45;&gt;Node29</title>
<path fill="none" stroke="midnightblue" d="M969.624,-232.232C962.966,-217.305 954.156,-190.322 968.046,-174 984.428,-154.748 1149.36,-137.127 1222.93,-130.157"/>
<polygon fill="midnightblue" stroke="midnightblue" points="1223.46,-133.623 1233.1,-129.207 1222.81,-126.653 1223.46,-133.623"/>
</g>
<!-- Node48&#45;&gt;Node46 -->
<g id="edge194" class="edge"><title>Node48&#45;&gt;Node46</title>
<path fill="none" stroke="midnightblue" d="M989.902,-232.362C1001.89,-223.777 1018.97,-211.546 1032.77,-201.664"/>
<polygon fill="midnightblue" stroke="midnightblue" points="1035.19,-204.238 1041.28,-195.571 1031.11,-198.547 1035.19,-204.238"/>
</g>
<!-- Node49&#45;&gt;Node5 -->
<g id="edge244" class="edge"><title>Node49&#45;&gt;Node5</title>
<path fill="none" stroke="midnightblue" d="M882.473,-292.026C854.844,-284.22 816.13,-271.419 785.046,-254 759.682,-239.787 734.28,-217.923 717.943,-202.626"/>
<polygon fill="midnightblue" stroke="midnightblue" points="720.341,-200.078 710.69,-195.707 715.509,-205.142 720.341,-200.078"/>
</g>
<!-- Node49&#45;&gt;Node8 -->
<g id="edge200" class="edge"><title>Node49&#45;&gt;Node8</title>
<path fill="none" stroke="midnightblue" d="M919.999,-290.193C922.518,-276.567 927.157,-252.448 932.046,-232 938.264,-205.992 934.026,-196.771 948.046,-174 968.171,-141.311 977.225,-132.159 1012.05,-116 1063.99,-91.8955 1225.88,-78.0263 1310.81,-72.2297"/>
<polygon fill="midnightblue" stroke="midnightblue" points="1311.28,-75.7063 1321.02,-71.5464 1310.81,-68.7219 1311.28,-75.7063"/>
</g>
<!-- Node49&#45;&gt;Node18 -->
<g id="edge242" class="edge"><title>Node49&#45;&gt;Node18</title>
<path fill="none" stroke="midnightblue" d="M882.361,-300.622C767.385,-299.039 412.107,-291.155 378.046,-254 337.208,-209.454 431.707,-158.629 478.156,-137.286"/>
<polygon fill="midnightblue" stroke="midnightblue" points="479.842,-140.366 487.533,-133.078 476.976,-133.979 479.842,-140.366"/>
</g>
<!-- Node49&#45;&gt;Node29 -->
<g id="edge198" class="edge"><title>Node49&#45;&gt;Node29</title>
<path fill="none" stroke="midnightblue" d="M953.649,-294.356C976.31,-288.087 1003.96,-276.186 1018.05,-254 1037.53,-223.314 977.769,-201.919 1001.05,-174 1028.91,-140.573 1159.41,-130.85 1223.02,-128.077"/>
<polygon fill="midnightblue" stroke="midnightblue" points="1223.5,-131.561 1233.35,-127.662 1223.22,-124.566 1223.5,-131.561"/>
</g>
<!-- Node49&#45;&gt;Node50 -->
<g id="edge202" class="edge"><title>Node49&#45;&gt;Node50</title>
<path fill="none" stroke="midnightblue" d="M953.726,-299.533C1010.66,-297.233 1125.59,-292.756 1223.05,-290 2108.35,-264.96 3186.37,-247.939 3453.14,-243.916"/>
<polygon fill="midnightblue" stroke="midnightblue" points="3453.45,-247.412 3463.4,-243.762 3453.35,-240.413 3453.45,-247.412"/>
</g>
<!-- Node50&#45;&gt;Node34 -->
<g id="edge236" class="edge"><title>Node50&#45;&gt;Node34</title>
<path fill="none" stroke="midnightblue" d="M3463.53,-235.672C3427.57,-229.02 3379.34,-216.946 3341.05,-196 3317.08,-182.892 3294.57,-160.744 3280.36,-145.081"/>
<polygon fill="midnightblue" stroke="midnightblue" points="3282.96,-142.744 3273.72,-137.563 3277.72,-147.376 3282.96,-142.744"/>
</g>
<!-- Node51 -->
<g id="node153" class="node"><title>Node51</title>
<a xlink:href="_t_i_d_8h.html" target="_top" xlink:title="TID.h">
<polygon fill="white" stroke="black" points="3349.55,-174.5 3349.55,-195.5 3390.55,-195.5 3390.55,-174.5 3349.55,-174.5"/>
<text text-anchor="middle" x="3370.05" y="-182.5" font-family="Helvetica,sans-Serif" font-size="10.00">TID.h</text>
</a>
</g>
<!-- Node50&#45;&gt;Node51 -->
<g id="edge204" class="edge"><title>Node50&#45;&gt;Node51</title>
<path fill="none" stroke="midnightblue" d="M3488.79,-232.497C3463.89,-222.539 3426.52,-207.588 3400.36,-197.128"/>
<polygon fill="midnightblue" stroke="midnightblue" points="3401.53,-193.823 3390.94,-193.358 3398.93,-200.322 3401.53,-193.823"/>
</g>
<!-- Node56 -->
<g id="node167" class="node"><title>Node56</title>
<polygon fill="white" stroke="#bfbfbf" points="3340.55,-58.5 3340.55,-79.5 3381.55,-79.5 3381.55,-58.5 3340.55,-58.5"/>
<text text-anchor="middle" x="3361.05" y="-66.5" font-family="Helvetica,sans-Serif" font-size="10.00">ctime</text>
</g>
<!-- Node50&#45;&gt;Node56 -->
<g id="edge240" class="edge"><title>Node50&#45;&gt;Node56</title>
<path fill="none" stroke="midnightblue" d="M3545.23,-232.373C3599.13,-211.834 3702.53,-164.427 3660.05,-116 3621.53,-72.0874 3461.9,-94.0991 3391.69,-80.9119"/>
<polygon fill="midnightblue" stroke="midnightblue" points="3392.15,-77.4248 3381.61,-78.5891 3390.57,-84.246 3392.15,-77.4248"/>
</g>
<!-- Node58 -->
<g id="node174" class="node"><title>Node58</title>
<polygon fill="white" stroke="#bfbfbf" points="3601.05,-116.5 3601.05,-137.5 3651.05,-137.5 3651.05,-116.5 3601.05,-116.5"/>
<text text-anchor="middle" x="3626.05" y="-124.5" font-family="Helvetica,sans-Serif" font-size="10.00">iomanip</text>
</g>
<!-- Node50&#45;&gt;Node58 -->
<g id="edge238" class="edge"><title>Node50&#45;&gt;Node58</title>
<path fill="none" stroke="midnightblue" d="M3525.29,-232.295C3544.37,-212.355 3585.53,-169.337 3608.91,-144.906"/>
<polygon fill="midnightblue" stroke="midnightblue" points="3611.44,-147.324 3615.83,-137.679 3606.38,-142.485 3611.44,-147.324"/>
</g>
<!-- Node51&#45;&gt;Node8 -->
<g id="edge208" class="edge"><title>Node51&#45;&gt;Node8</title>
<path fill="none" stroke="midnightblue" d="M3349.33,-184.282C3241.67,-180.505 2735.07,-162.196 2321.05,-138 1976.36,-117.856 1562.46,-85.098 1417.39,-73.358"/>
<polygon fill="midnightblue" stroke="midnightblue" points="1417.67,-69.8689 1407.42,-72.5495 1417.1,-76.846 1417.67,-69.8689"/>
</g>
<!-- Node51&#45;&gt;Node12 -->
<g id="edge228" class="edge"><title>Node51&#45;&gt;Node12</title>
<path fill="none" stroke="midnightblue" d="M3362.95,-174.246C3351.95,-158.555 3329.2,-129.76 3302.05,-116 3203.48,-66.0552 3164.89,-99.0353 3056.05,-80 3049.21,-78.804 3041.91,-77.4023 3034.96,-76.0075"/>
<polygon fill="midnightblue" stroke="midnightblue" points="3035.62,-72.57 3025.12,-73.9938 3034.21,-79.4278 3035.62,-72.57"/>
</g>
<!-- Node51&#45;&gt;Node13 -->
<g id="edge230" class="edge"><title>Node51&#45;&gt;Node13</title>
<path fill="none" stroke="midnightblue" d="M3367.12,-174.263C3362.55,-159.371 3352.41,-132.43 3335.05,-116 3324.69,-106.202 3293.45,-92.9962 3267.39,-83.0776"/>
<polygon fill="midnightblue" stroke="midnightblue" points="3268.29,-79.6808 3257.7,-79.4511 3265.84,-86.2361 3268.29,-79.6808"/>
</g>
<!-- Node51&#45;&gt;Node14 -->
<g id="edge224" class="edge"><title>Node51&#45;&gt;Node14</title>
<path fill="none" stroke="midnightblue" d="M3349.23,-182.415C3230.58,-167.678 2639.31,-94.2448 2477.21,-74.112"/>
<polygon fill="midnightblue" stroke="midnightblue" points="2477.51,-70.6234 2467.16,-72.8641 2476.65,-77.57 2477.51,-70.6234"/>
</g>
<!-- Node51&#45;&gt;Node34 -->
<g id="edge206" class="edge"><title>Node51&#45;&gt;Node34</title>
<path fill="none" stroke="midnightblue" d="M3350.79,-174.362C3334.58,-165.409 3311.19,-152.491 3292.94,-142.406"/>
<polygon fill="midnightblue" stroke="midnightblue" points="3294.63,-139.342 3284.18,-137.571 3291.24,-145.47 3294.63,-139.342"/>
</g>
<!-- Node52 -->
<g id="node157" class="node"><title>Node52</title>
<a xlink:href="time_8h.html" target="_top" xlink:title="base/std_ext/time.h">
<polygon fill="white" stroke="black" points="3480.55,-116.5 3480.55,-137.5 3583.55,-137.5 3583.55,-116.5 3480.55,-116.5"/>
<text text-anchor="middle" x="3532.05" y="-124.5" font-family="Helvetica,sans-Serif" font-size="10.00">base/std_ext/time.h</text>
</a>
</g>
<!-- Node51&#45;&gt;Node52 -->
<g id="edge210" class="edge"><title>Node51&#45;&gt;Node52</title>
<path fill="none" stroke="midnightblue" d="M3390.56,-177.654C3416.26,-168.455 3460.81,-152.502 3493.07,-140.953"/>
<polygon fill="midnightblue" stroke="midnightblue" points="3494.42,-144.189 3502.65,-137.523 3492.06,-137.598 3494.42,-144.189"/>
</g>
<!-- Node51&#45;&gt;Node56 -->
<g id="edge234" class="edge"><title>Node51&#45;&gt;Node56</title>
<path fill="none" stroke="midnightblue" d="M3390.95,-175.343C3414.37,-163.074 3447.43,-140.527 3434.05,-116 3424.9,-99.2341 3406.93,-87.5511 3391.1,-80.0266"/>
<polygon fill="midnightblue" stroke="midnightblue" points="3392.19,-76.6817 3381.62,-75.8707 3389.38,-83.0923 3392.19,-76.6817"/>
</g>
<!-- Node57 -->
<g id="node170" class="node"><title>Node57</title>
<polygon fill="white" stroke="#bfbfbf" points="3387.05,-116.5 3387.05,-137.5 3425.05,-137.5 3425.05,-116.5 3387.05,-116.5"/>
<text text-anchor="middle" x="3406.05" y="-124.5" font-family="Helvetica,sans-Serif" font-size="10.00">tuple</text>
</g>
<!-- Node51&#45;&gt;Node57 -->
<g id="edge226" class="edge"><title>Node51&#45;&gt;Node57</title>
<path fill="none" stroke="midnightblue" d="M3376.65,-174.362C3381.52,-166.513 3388.28,-155.616 3394.1,-146.253"/>
<polygon fill="midnightblue" stroke="midnightblue" points="3397.18,-147.913 3399.48,-137.571 3391.24,-144.221 3397.18,-147.913"/>
</g>
<!-- Node51&#45;&gt;Node58 -->
<g id="edge232" class="edge"><title>Node51&#45;&gt;Node58</title>
<path fill="none" stroke="midnightblue" d="M3390.72,-181.368C3428.55,-174.566 3511.59,-158.908 3590.75,-138.155"/>
<polygon fill="midnightblue" stroke="midnightblue" points="3592.11,-141.414 3600.88,-135.464 3590.32,-134.648 3592.11,-141.414"/>
</g>
<!-- Node53 -->
<g id="node159" class="node"><title>Node53</title>
<a xlink:href="string_8h.html" target="_top" xlink:title="base/std_ext/string.h">
<polygon fill="white" stroke="black" points="3475.05,-58.5 3475.05,-79.5 3583.05,-79.5 3583.05,-58.5 3475.05,-58.5"/>
<text text-anchor="middle" x="3529.05" y="-66.5" font-family="Helvetica,sans-Serif" font-size="10.00">base/std_ext/string.h</text>
</a>
</g>
<!-- Node52&#45;&gt;Node53 -->
<g id="edge212" class="edge"><title>Node52&#45;&gt;Node53</title>
<path fill="none" stroke="midnightblue" d="M3531.5,-116.362C3531.11,-108.922 3530.58,-98.7427 3530.12,-89.7276"/>
<polygon fill="midnightblue" stroke="midnightblue" points="3533.6,-89.3765 3529.59,-79.5707 3526.61,-89.7381 3533.6,-89.3765"/>
</g>
<!-- Node55 -->
<g id="node165" class="node"><title>Node55</title>
<polygon fill="white" stroke="#bfbfbf" points="3277.05,-58.5 3277.05,-79.5 3323.05,-79.5 3323.05,-58.5 3277.05,-58.5"/>
<text text-anchor="middle" x="3300.05" y="-66.5" font-family="Helvetica,sans-Serif" font-size="10.00">cstring</text>
</g>
<!-- Node52&#45;&gt;Node55 -->
<g id="edge220" class="edge"><title>Node52&#45;&gt;Node55</title>
<path fill="none" stroke="midnightblue" d="M3480.71,-116.422C3442.32,-108.173 3388.37,-95.8755 3333,-80.0963"/>
<polygon fill="midnightblue" stroke="midnightblue" points="3333.96,-76.7296 3323.38,-77.323 3332.02,-83.4558 3333.96,-76.7296"/>
</g>
<!-- Node52&#45;&gt;Node56 -->
<g id="edge222" class="edge"><title>Node52&#45;&gt;Node56</title>
<path fill="none" stroke="midnightblue" d="M3501.08,-116.497C3469.95,-105.938 3422.27,-89.7654 3391.37,-79.2851"/>
<polygon fill="midnightblue" stroke="midnightblue" points="3392.18,-75.8631 3381.58,-75.9655 3389.93,-82.4922 3392.18,-75.8631"/>
</g>
<!-- Node53&#45;&gt;Node4 -->
<g id="edge214" class="edge"><title>Node53&#45;&gt;Node4</title>
<path fill="none" stroke="midnightblue" d="M3474.92,-59.7821C3470.23,-59.1247 3465.56,-58.518 3461.05,-58 3207.86,-28.9488 2900.12,-15.7382 2802.96,-12.0912"/>
<polygon fill="midnightblue" stroke="midnightblue" points="2802.8,-8.58315 2792.68,-11.7118 2802.55,-15.5784 2802.8,-8.58315"/>
</g>
<!-- Node53&#45;&gt;Node28 -->
<g id="edge218" class="edge"><title>Node53&#45;&gt;Node28</title>
<path fill="none" stroke="midnightblue" d="M3529.05,-58.3619C3529.05,-50.9219 3529.05,-40.7427 3529.05,-31.7276"/>
<polygon fill="midnightblue" stroke="midnightblue" points="3532.55,-31.5706 3529.05,-21.5707 3525.55,-31.5707 3532.55,-31.5706"/>
</g>
<!-- Node54 -->
<g id="node162" class="node"><title>Node54</title>
<polygon fill="white" stroke="#bfbfbf" points="3807.05,-0.5 3807.05,-21.5 3859.05,-21.5 3859.05,-0.5 3807.05,-0.5"/>
<text text-anchor="middle" x="3833.05" y="-8.5" font-family="Helvetica,sans-Serif" font-size="10.00">sstream</text>
</g>
<!-- Node53&#45;&gt;Node54 -->
<g id="edge216" class="edge"><title>Node53&#45;&gt;Node54</title>
<path fill="none" stroke="midnightblue" d="M3583.39,-58.6308C3645.04,-46.8701 3743.84,-28.0202 3796.77,-17.9209"/>
<polygon fill="midnightblue" stroke="midnightblue" points="3797.55,-21.3346 3806.72,-16.0224 3796.24,-14.4586 3797.55,-21.3346"/>
</g>
<!-- Node59&#45;&gt;Node9 -->
<g id="edge258" class="edge"><title>Node59&#45;&gt;Node9</title>
<path fill="none" stroke="midnightblue" d="M2317.25,-355.443C2303.41,-336.219 2274.44,-293.806 2258.05,-254 2227.71,-180.343 2229.78,-158.286 2215.05,-80 2212.04,-64.0466 2209.71,-45.8301 2208.18,-32.1218"/>
<polygon fill="midnightblue" stroke="midnightblue" points="2211.62,-31.3873 2207.08,-21.8159 2204.66,-32.1312 2211.62,-31.3873"/>
</g>
<!-- Node60&#45;&gt;Node4 -->
<g id="edge282" class="edge"><title>Node60&#45;&gt;Node4</title>
<path fill="none" stroke="midnightblue" d="M2971.48,-348.772C2951.51,-287.31 2883.59,-81.2209 2863.05,-58 2846.92,-39.7711 2822.02,-27.5991 2802.35,-20.2183"/>
<polygon fill="midnightblue" stroke="midnightblue" points="2803.48,-16.9075 2792.89,-16.8815 2801.15,-23.5088 2803.48,-16.9075"/>
</g>
<!-- Node60&#45;&gt;Node18 -->
<g id="edge284" class="edge"><title>Node60&#45;&gt;Node18</title>
<path fill="none" stroke="midnightblue" d="M2918.28,-364.145C2814.21,-360.865 2590.72,-353.834 2402.05,-348 2062.45,-337.5 1197.55,-363.846 876.046,-254 824.488,-236.385 814.765,-224.032 768.046,-196 752.93,-186.931 751.325,-180.759 735.046,-174 663.02,-144.096 570.358,-132.73 526.78,-128.828"/>
<polygon fill="midnightblue" stroke="midnightblue" points="527.058,-125.34 516.801,-127.991 526.473,-132.315 527.058,-125.34"/>
</g>
<!-- Node60&#45;&gt;Node27 -->
<g id="edge274" class="edge"><title>Node60&#45;&gt;Node27</title>
<path fill="none" stroke="midnightblue" d="M2976.67,-348.972C2975.94,-315.779 2974.32,-242.504 2973.51,-206.216"/>
<polygon fill="midnightblue" stroke="midnightblue" points="2977.01,-205.752 2973.28,-195.832 2970.01,-205.907 2977.01,-205.752"/>
</g>
<!-- Node61 -->
<g id="node199" class="node"><title>Node61</title>
<a xlink:href="_t_header_info_8h.html" target="_top" xlink:title="tree/THeaderInfo.h">
<polygon fill="white" stroke="black" points="3360.05,-290.5 3360.05,-311.5 3458.05,-311.5 3458.05,-290.5 3360.05,-290.5"/>
<text text-anchor="middle" x="3409.05" y="-298.5" font-family="Helvetica,sans-Serif" font-size="10.00">tree/THeaderInfo.h</text>
</a>
</g>
<!-- Node60&#45;&gt;Node61 -->
<g id="edge276" class="edge"><title>Node60&#45;&gt;Node61</title>
<path fill="none" stroke="midnightblue" d="M3035.76,-357.166C3118.14,-344.771 3267.2,-322.343 3349.84,-309.908"/>
<polygon fill="midnightblue" stroke="midnightblue" points="3350.46,-313.354 3359.83,-308.405 3349.42,-306.432 3350.46,-313.354"/>
</g>
<!-- Node61&#45;&gt;Node50 -->
<g id="edge278" class="edge"><title>Node61&#45;&gt;Node50</title>
<path fill="none" stroke="midnightblue" d="M3428.49,-290.362C3444.85,-281.409 3468.46,-268.491 3486.89,-258.406"/>
<polygon fill="midnightblue" stroke="midnightblue" points="3488.63,-261.441 3495.73,-253.571 3485.27,-255.3 3488.63,-261.441"/>
</g>
<!-- Node61&#45;&gt;Node52 -->
<g id="edge280" class="edge"><title>Node61&#45;&gt;Node52</title>
<path fill="none" stroke="midnightblue" d="M3416.07,-290.143C3424.97,-276.464 3440.85,-252.292 3455.05,-232 3476.47,-201.366 3502.35,-166.494 3517.98,-145.642"/>
<polygon fill="midnightblue" stroke="midnightblue" points="3520.81,-147.714 3524.02,-137.618 3515.21,-143.509 3520.81,-147.714"/>
</g>
<!-- Node62&#45;&gt;Node2 -->
<g id="edge342" class="edge"><title>Node62&#45;&gt;Node2</title>
<path fill="none" stroke="midnightblue" d="M3026.21,-657.85C2974.93,-646.276 2898.11,-628.939 2846.59,-617.311"/>
<polygon fill="midnightblue" stroke="midnightblue" points="2847.17,-613.852 2836.64,-615.065 2845.62,-620.681 2847.17,-613.852"/>
</g>
<!-- Node62&#45;&gt;Node4 -->
<g id="edge354" class="edge"><title>Node62&#45;&gt;Node4</title>
<path fill="none" stroke="midnightblue" d="M3094.33,-652.91C3111.79,-630.223 3139.05,-588.21 3139.05,-547 3139.05,-547 3139.05,-547 3139.05,-301 3139.05,-192.43 3189.5,-136.067 3114.05,-58 3092.56,-35.7744 2883.61,-18.8484 2803.29,-13.1137"/>
<polygon fill="midnightblue" stroke="midnightblue" points="2803.06,-9.58917 2792.84,-12.3794 2802.57,-16.5719 2803.06,-9.58917"/>
</g>
<!-- Node62&#45;&gt;Node5 -->
<g id="edge352" class="edge"><title>Node62&#45;&gt;Node5</title>
<path fill="none" stroke="midnightblue" d="M3026.41,-669.55C2624.43,-666.115 98.004,-643.447 71.0456,-616 -139.887,-401.248 156.698,-497.368 506.046,-312 571.281,-277.385 642.645,-227.162 677.853,-201.477"/>
<polygon fill="midnightblue" stroke="midnightblue" points="680.008,-204.238 686,-195.5 675.867,-198.594 680.008,-204.238"/>
</g>
<!-- Node62&#45;&gt;Node9 -->
<g id="edge356" class="edge"><title>Node62&#45;&gt;Node9</title>
<path fill="none" stroke="midnightblue" d="M3073.09,-652.806C3064.23,-629.315 3050.05,-585.685 3050.05,-547 3050.05,-547 3050.05,-547 3050.05,-489 3050.05,-411.222 2959.72,-443.845 2910.05,-384 2861.93,-326.037 2881.95,-290.948 2835.05,-232 2734.98,-106.236 2672.3,-103.123 2518.05,-58 2418.77,-28.9592 2296.2,-17.1887 2238.71,-13.0112"/>
<polygon fill="midnightblue" stroke="midnightblue" points="2238.65,-9.49855 2228.43,-12.2955 2238.16,-16.4817 2238.65,-9.49855"/>
</g>
<!-- Node62&#45;&gt;Node12 -->
<g id="edge346" class="edge"><title>Node62&#45;&gt;Node12</title>
<path fill="none" stroke="midnightblue" d="M3111.2,-652.904C3125.65,-643.627 3142.02,-630.983 3153.05,-616 3172.29,-589.847 3177.05,-579.469 3177.05,-547 3177.05,-547 3177.05,-547 3177.05,-301 3177.05,-202.447 3075.15,-119.214 3026.86,-85.3039"/>
<polygon fill="midnightblue" stroke="midnightblue" points="3028.73,-82.3396 3018.51,-79.5536 3024.76,-88.106 3028.73,-82.3396"/>
</g>
<!-- Node62&#45;&gt;Node18 -->
<g id="edge350" class="edge"><title>Node62&#45;&gt;Node18</title>
<path fill="none" stroke="midnightblue" d="M3026.44,-667.245C2836.32,-657.177 2176.62,-619.7 1635.05,-558 1463.12,-538.412 1420.9,-527.398 1250.05,-500 1098.25,-475.659 1060.54,-468.117 909.046,-442 761.433,-416.553 688.675,-483.88 577.046,-384 541.075,-351.816 514.105,-202.696 505.207,-147.563"/>
<polygon fill="midnightblue" stroke="midnightblue" points="508.647,-146.906 503.628,-137.575 501.733,-147.999 508.647,-146.906"/>
</g>
<!-- Node62&#45;&gt;Node20 -->
<g id="edge344" class="edge"><title>Node62&#45;&gt;Node20</title>
<path fill="none" stroke="midnightblue" d="M3057.78,-652.806C2990.57,-601.472 2782.74,-446.775 2593.05,-348 2517.18,-308.497 2422.96,-274.61 2369.45,-256.67"/>
<polygon fill="midnightblue" stroke="midnightblue" points="2370.53,-253.344 2359.94,-253.508 2368.32,-259.986 2370.53,-253.344"/>
</g>
<!-- Node62&#45;&gt;Node56 -->
<g id="edge348" class="edge"><title>Node62&#45;&gt;Node56</title>
<path fill="none" stroke="midnightblue" d="M3133.79,-665.076C3285.15,-650.492 3704.05,-604.9 3704.05,-547 3704.05,-547 3704.05,-547 3704.05,-366 3704.05,-254.29 3756.28,-195.74 3678.05,-116 3634.31,-71.4276 3465.26,-94.9834 3391.38,-80.8569"/>
<polygon fill="midnightblue" stroke="midnightblue" points="3392.14,-77.4405 3381.61,-78.6025 3390.57,-84.2613 3392.14,-77.4405"/>
</g>
<!-- Node63 -->
<g id="node219" class="node"><title>Node63</title>
<a xlink:href="_t_unpacker_message_8h.html" target="_top" xlink:title="tree/TUnpackerMessage.h">
<polygon fill="white" stroke="black" points="3476.05,-290.5 3476.05,-311.5 3608.05,-311.5 3608.05,-290.5 3476.05,-290.5"/>
<text text-anchor="middle" x="3542.05" y="-298.5" font-family="Helvetica,sans-Serif" font-size="10.00">tree/TUnpackerMessage.h</text>
</a>
</g>
<!-- Node62&#45;&gt;Node63 -->
<g id="edge312" class="edge"><title>Node62&#45;&gt;Node63</title>
<path fill="none" stroke="midnightblue" d="M3133.83,-659.233C3219.42,-640.538 3377.05,-599.042 3377.05,-547 3377.05,-547 3377.05,-547 3377.05,-431 3377.05,-369.972 3447.55,-333.181 3496.39,-315.017"/>
<polygon fill="midnightblue" stroke="midnightblue" points="3497.6,-318.299 3505.84,-311.631 3495.24,-311.709 3497.6,-318.299"/>
</g>
<!-- Node63&#45;&gt;Node50 -->
<g id="edge314" class="edge"><title>Node63&#45;&gt;Node50</title>
<path fill="none" stroke="midnightblue" d="M3537.09,-290.362C3533.52,-282.677 3528.58,-272.069 3524.28,-262.84"/>
<polygon fill="midnightblue" stroke="midnightblue" points="3527.36,-261.159 3519.97,-253.571 3521.01,-264.114 3527.36,-261.159"/>
</g>
<!-- Node64 -->
<g id="node222" class="node"><title>Node64</title>
<a xlink:href="_format_8h.html" target="_top" xlink:title="base/Format.h">
<polygon fill="white" stroke="black" points="3745.05,-116.5 3745.05,-137.5 3825.05,-137.5 3825.05,-116.5 3745.05,-116.5"/>
<text text-anchor="middle" x="3785.05" y="-124.5" font-family="Helvetica,sans-Serif" font-size="10.00">base/Format.h</text>
</a>
</g>
<!-- Node63&#45;&gt;Node64 -->
<g id="edge316" class="edge"><title>Node63&#45;&gt;Node64</title>
<path fill="none" stroke="midnightblue" d="M3556.88,-290.377C3597.81,-261.073 3712.53,-178.927 3761.93,-143.55"/>
<polygon fill="midnightblue" stroke="midnightblue" points="3764,-146.372 3770.1,-137.705 3759.93,-140.681 3764,-146.372"/>
</g>
<!-- Node64&#45;&gt;Node4 -->
<g id="edge336" class="edge"><title>Node64&#45;&gt;Node4</title>
<path fill="none" stroke="midnightblue" d="M3745,-118.536C3740.3,-117.634 3735.57,-116.768 3731.05,-116 3613.86,-96.1267 3579.46,-115.575 3466.05,-80 3445.56,-73.5748 3443.72,-63.7774 3423.05,-58 3304.09,-24.7603 2915.68,-14.05 2802.97,-11.6023"/>
<polygon fill="midnightblue" stroke="midnightblue" points="2802.72,-8.09637 2792.65,-11.3848 2802.57,-15.0948 2802.72,-8.09637"/>
</g>
<!-- Node64&#45;&gt;Node9 -->
<g id="edge340" class="edge"><title>Node64&#45;&gt;Node9</title>
<path fill="none" stroke="midnightblue" d="M3745.01,-118.452C3740.31,-117.566 3735.58,-116.726 3731.05,-116 3594.96,-94.2257 3552.41,-127.54 3423.05,-80 3406.5,-73.9196 3406.81,-63.4417 3390.05,-58 3333.78,-39.7382 2422.57,-16.3447 2238.36,-11.7884"/>
<polygon fill="midnightblue" stroke="midnightblue" points="2238.31,-8.28627 2228.23,-11.5387 2238.14,-15.2841 2238.31,-8.28627"/>
</g>
<!-- Node64&#45;&gt;Node13 -->
<g id="edge334" class="edge"><title>Node64&#45;&gt;Node13</title>
<path fill="none" stroke="midnightblue" d="M3744.67,-123.426C3625,-112.82 3279.77,-82.1272 3268.05,-80 3267.83,-79.9614 3267.62,-79.9222 3267.41,-79.8825"/>
<polygon fill="midnightblue" stroke="midnightblue" points="3268.13,-76.4585 3257.62,-77.7624 3266.65,-83.2999 3268.13,-76.4585"/>
</g>
<!-- Node64&#45;&gt;Node28 -->
<g id="edge330" class="edge"><title>Node64&#45;&gt;Node28</title>
<path fill="none" stroke="midnightblue" d="M3825.44,-124.422C3883.35,-119.789 3985.49,-107.808 4008.05,-80 4014.21,-72.4065 4014.61,-65.2437 4008.05,-58 3978.61,-25.5374 3675.81,-14.718 3567.39,-11.8688"/>
<polygon fill="midnightblue" stroke="midnightblue" points="3567.31,-8.3657 3557.23,-11.6102 3567.14,-15.3634 3567.31,-8.3657"/>
</g>
<!-- Node64&#45;&gt;Node30 -->
<g id="edge332" class="edge"><title>Node64&#45;&gt;Node30</title>
<path fill="none" stroke="midnightblue" d="M3744.8,-123.342C3720.31,-121.145 3688.38,-118.332 3660.05,-116 3451.25,-98.8172 3398.69,-98.916 3190.05,-80 3164.86,-77.717 3136.33,-74.7002 3115.37,-72.4034"/>
<polygon fill="midnightblue" stroke="midnightblue" points="3115.48,-68.8946 3105.16,-71.2757 3114.71,-75.8523 3115.48,-68.8946"/>
</g>
<!-- Node64&#45;&gt;Node54 -->
<g id="edge338" class="edge"><title>Node64&#45;&gt;Node54</title>
<path fill="none" stroke="midnightblue" d="M3825.18,-125.659C3890.2,-122.55 4014.04,-112.417 4041.05,-80 4047.3,-72.4877 4047.15,-65.638 4041.05,-58 4019.97,-31.6335 3923.39,-18.9826 3869.56,-13.8854"/>
<polygon fill="midnightblue" stroke="midnightblue" points="3869.67,-10.3814 3859.4,-12.9648 3869.04,-17.3529 3869.67,-10.3814"/>
</g>
<!-- Node65 -->
<g id="node224" class="node"><title>Node65</title>
<polygon fill="white" stroke="#bfbfbf" points="3600.55,-58.5 3600.55,-79.5 3679.55,-79.5 3679.55,-58.5 3600.55,-58.5"/>
<text text-anchor="middle" x="3640.05" y="-66.5" font-family="Helvetica,sans-Serif" font-size="10.00">detail/format.h</text>
</g>
<!-- Node64&#45;&gt;Node65 -->
<g id="edge318" class="edge"><title>Node64&#45;&gt;Node65</title>
<path fill="none" stroke="midnightblue" d="M3758.79,-116.497C3735.63,-107.234 3701.67,-93.6499 3675.99,-83.3793"/>
<polygon fill="midnightblue" stroke="midnightblue" points="3677.18,-80.0855 3666.6,-79.6212 3674.58,-86.5849 3677.18,-80.0855"/>
</g>
<!-- Node66 -->
<g id="node226" class="node"><title>Node66</title>
<polygon fill="white" stroke="#bfbfbf" points="3696.55,-58.5 3696.55,-79.5 3745.55,-79.5 3745.55,-58.5 3696.55,-58.5"/>
<text text-anchor="middle" x="3721.05" y="-66.5" font-family="Helvetica,sans-Serif" font-size="10.00">stdint.h</text>
</g>
<!-- Node64&#45;&gt;Node66 -->
<g id="edge320" class="edge"><title>Node64&#45;&gt;Node66</title>
<path fill="none" stroke="midnightblue" d="M3773.31,-116.362C3764.1,-108.023 3751.11,-96.2418 3740.37,-86.5162"/>
<polygon fill="midnightblue" stroke="midnightblue" points="3742.47,-83.6924 3732.71,-79.5707 3737.77,-88.8793 3742.47,-83.6924"/>
</g>
<!-- Node67 -->
<g id="node228" class="node"><title>Node67</title>
<polygon fill="white" stroke="#bfbfbf" points="3762.55,-58.5 3762.55,-79.5 3811.55,-79.5 3811.55,-58.5 3762.55,-58.5"/>
<text text-anchor="middle" x="3787.05" y="-66.5" font-family="Helvetica,sans-Serif" font-size="10.00">cassert</text>
</g>
<!-- Node64&#45;&gt;Node67 -->
<g id="edge322" class="edge"><title>Node64&#45;&gt;Node67</title>
<path fill="none" stroke="midnightblue" d="M3785.41,-116.362C3785.67,-108.922 3786.02,-98.7427 3786.33,-89.7276"/>
<polygon fill="midnightblue" stroke="midnightblue" points="3789.83,-89.6854 3786.68,-79.5707 3782.84,-89.4441 3789.83,-89.6854"/>
</g>
<!-- Node68 -->
<g id="node230" class="node"><title>Node68</title>
<polygon fill="white" stroke="#bfbfbf" points="3829.05,-58.5 3829.05,-79.5 3873.05,-79.5 3873.05,-58.5 3829.05,-58.5"/>
<text text-anchor="middle" x="3851.05" y="-66.5" font-family="Helvetica,sans-Serif" font-size="10.00">cmath</text>
</g>
<!-- Node64&#45;&gt;Node68 -->
<g id="edge324" class="edge"><title>Node64&#45;&gt;Node68</title>
<path fill="none" stroke="midnightblue" d="M3797.15,-116.362C3806.73,-107.941 3820.31,-96.0105 3831.44,-86.2308"/>
<polygon fill="midnightblue" stroke="midnightblue" points="3833.82,-88.8009 3839.02,-79.5707 3829.19,-83.5427 3833.82,-88.8009"/>
</g>
<!-- Node69 -->
<g id="node232" class="node"><title>Node69</title>
<polygon fill="white" stroke="#bfbfbf" points="3890.55,-58.5 3890.55,-79.5 3939.55,-79.5 3939.55,-58.5 3890.55,-58.5"/>
<text text-anchor="middle" x="3915.05" y="-66.5" font-family="Helvetica,sans-Serif" font-size="10.00">cstddef</text>
</g>
<!-- Node64&#45;&gt;Node69 -->
<g id="edge326" class="edge"><title>Node64&#45;&gt;Node69</title>
<path fill="none" stroke="midnightblue" d="M3808.59,-116.497C3829.07,-107.356 3858.99,-94.0082 3881.9,-83.7883"/>
<polygon fill="midnightblue" stroke="midnightblue" points="3883.53,-86.892 3891.24,-79.6212 3880.68,-80.4994 3883.53,-86.892"/>
</g>
<!-- Node70 -->
<g id="node234" class="node"><title>Node70</title>
<polygon fill="white" stroke="#bfbfbf" points="3956.55,-58.5 3956.55,-79.5 3999.55,-79.5 3999.55,-58.5 3956.55,-58.5"/>
<text text-anchor="middle" x="3978.05" y="-66.5" font-family="Helvetica,sans-Serif" font-size="10.00">cstdio</text>
</g>
<!-- Node64&#45;&gt;Node70 -->
<g id="edge328" class="edge"><title>Node64&#45;&gt;Node70</title>
<path fill="none" stroke="midnightblue" d="M3824.48,-116.471C3855.5,-108 3900,-95.4372 3946.78,-80.283"/>
<polygon fill="midnightblue" stroke="midnightblue" points="3948.06,-83.5473 3956.48,-77.1146 3945.89,-76.8935 3948.06,-83.5473"/>
</g>
<!-- Node72 -->
<g id="node253" class="node"><title>Node72</title>
<polygon fill="white" stroke="#bfbfbf" points="3769.55,-594.5 3769.55,-615.5 3884.55,-615.5 3884.55,-594.5 3769.55,-594.5"/>
<text text-anchor="middle" x="3827.05" y="-602.5" font-family="Helvetica,sans-Serif" font-size="10.00">detail/easylogging++.h</text>
</g>
<!-- Node71&#45;&gt;Node72 -->
<g id="edge362" class="edge"><title>Node71&#45;&gt;Node72</title>
<path fill="none" stroke="midnightblue" d="M3819.53,-659.267C3820.79,-650.18 3822.63,-636.892 3824.17,-625.74"/>
<polygon fill="midnightblue" stroke="midnightblue" points="3827.68,-625.919 3825.59,-615.534 3820.75,-624.959 3827.68,-625.919"/>
</g>
</g>
</svg>
