<?xml version="1.0" encoding="UTF-8" standalone="no"?>
<!DOCTYPE svg PUBLIC "-//W3C//DTD SVG 1.1//EN"
 "http://www.w3.org/Graphics/SVG/1.1/DTD/svg11.dtd">
<!-- Generated by graphviz version 2.26.3 (20100126.1600)
 -->
<!-- Title: src/unpacker/UnpackerAcqu.h Pages: 1 -->
<svg width="3771pt" height="624pt"
 viewBox="0.00 0.00 3771.00 624.00" xmlns="http://www.w3.org/2000/svg" xmlns:xlink="http://www.w3.org/1999/xlink">
<g id="graph1" class="graph" transform="scale(1 1) rotate(0) translate(4 620)">
<title>src/unpacker/UnpackerAcqu.h</title>
<polygon fill="white" stroke="white" points="-4,5 -4,-620 3768,-620 3768,5 -4,5"/>
<!-- Node1 -->
<g id="node1" class="node"><title>Node1</title>
<polygon fill="#bfbfbf" stroke="black" points="1665.5,-594.5 1665.5,-615.5 1814.5,-615.5 1814.5,-594.5 1665.5,-594.5"/>
<text text-anchor="middle" x="1740" y="-602.5" font-family="Helvetica,sans-Serif" font-size="10.00">src/unpacker/UnpackerAcqu.h</text>
</g>
<!-- Node2 -->
<g id="node3" class="node"><title>Node2</title>
<a xlink:href="_unpacker_8h.html" target="_top" xlink:title="Unpacker.h">
<polygon fill="white" stroke="black" points="65.5,-232.5 65.5,-253.5 132.5,-253.5 132.5,-232.5 65.5,-232.5"/>
<text text-anchor="middle" x="99" y="-240.5" font-family="Helvetica,sans-Serif" font-size="10.00">Unpacker.h</text>
</a>
</g>
<!-- Node1&#45;&gt;Node2 -->
<g id="edge2" class="edge"><title>Node1&#45;&gt;Node2</title>
<path fill="none" stroke="midnightblue" d="M1665.36,-603.831C1354.65,-598.834 178.453,-578.593 146,-558 116.965,-539.577 111,-523.386 111,-489 111,-489 111,-489 111,-366 111,-329.904 105.818,-288.131 102.264,-263.73"/>
<polygon fill="midnightblue" stroke="midnightblue" points="105.723,-263.191 100.771,-253.825 98.8008,-264.235 105.723,-263.191"/>
</g>
<!-- Node4 -->
<g id="node7" class="node"><title>Node4</title>
<polygon fill="white" stroke="#bfbfbf" points="788,-174.5 788,-195.5 840,-195.5 840,-174.5 788,-174.5"/>
<text text-anchor="middle" x="814" y="-182.5" font-family="Helvetica,sans-Serif" font-size="10.00">memory</text>
</g>
<!-- Node1&#45;&gt;Node4 -->
<g id="edge296" class="edge"><title>Node1&#45;&gt;Node4</title>
<path fill="none" stroke="midnightblue" d="M1665.37,-603.341C1356.95,-596.004 198,-563.478 198,-489 198,-489 198,-489 198,-366 198,-291.422 233.838,-268.274 299,-232 340.612,-208.835 667.041,-191.782 777.562,-186.623"/>
<polygon fill="midnightblue" stroke="midnightblue" points="778.038,-190.105 787.866,-186.148 777.715,-183.113 778.038,-190.105"/>
</g>
<!-- Node5 -->
<g id="node9" class="node"><title>Node5</title>
<a xlink:href="_exp_config_8h.html" target="_top" xlink:title="expconfig/ExpConfig.h">
<polygon fill="white" stroke="black" points="1682,-536.5 1682,-557.5 1798,-557.5 1798,-536.5 1682,-536.5"/>
<text text-anchor="middle" x="1740" y="-544.5" font-family="Helvetica,sans-Serif" font-size="10.00">expconfig/ExpConfig.h</text>
</a>
</g>
<!-- Node1&#45;&gt;Node5 -->
<g id="edge8" class="edge"><title>Node1&#45;&gt;Node5</title>
<path fill="none" stroke="midnightblue" d="M1740,-594.362C1740,-586.922 1740,-576.743 1740,-567.728"/>
<polygon fill="midnightblue" stroke="midnightblue" points="1743.5,-567.571 1740,-557.571 1736.5,-567.571 1743.5,-567.571"/>
</g>
<!-- Node6 -->
<g id="node11" class="node"><title>Node6</title>
<a xlink:href="_detector__t_8h.html" target="_top" xlink:title="base/Detector_t.h">
<polygon fill="white" stroke="black" points="2354.5,-116.5 2354.5,-137.5 2449.5,-137.5 2449.5,-116.5 2354.5,-116.5"/>
<text text-anchor="middle" x="2402" y="-124.5" font-family="Helvetica,sans-Serif" font-size="10.00">base/Detector_t.h</text>
</a>
</g>
<!-- Node1&#45;&gt;Node6 -->
<g id="edge294" class="edge"><title>Node1&#45;&gt;Node6</title>
<path fill="none" stroke="midnightblue" d="M1814.78,-604.457C2052.29,-601.752 2774,-585.586 2774,-489 2774,-489 2774,-489 2774,-366 2774,-218.534 2564.53,-157.804 2459.96,-136.675"/>
<polygon fill="midnightblue" stroke="midnightblue" points="2460.36,-133.187 2449.87,-134.694 2459.01,-140.056 2460.36,-133.187"/>
</g>
<!-- Node8 -->
<g id="node15" class="node"><title>Node8</title>
<polygon fill="white" stroke="#bfbfbf" points="1419,-0.5 1419,-21.5 1463,-21.5 1463,-0.5 1419,-0.5"/>
<text text-anchor="middle" x="1441" y="-8.5" font-family="Helvetica,sans-Serif" font-size="10.00">vector</text>
</g>
<!-- Node1&#45;&gt;Node8 -->
<g id="edge302" class="edge"><title>Node1&#45;&gt;Node8</title>
<path fill="none" stroke="midnightblue" d="M1665.44,-603.539C1400.3,-598.186 512.107,-578.873 386,-558 282.388,-540.85 160,-594.022 160,-489 160,-489 160,-489 160,-301 160,-247.002 211.41,-255.554 260,-232 496.436,-117.39 566.853,-106.964 825,-58 938.708,-36.4322 1298.48,-17.8264 1408.63,-12.5165"/>
<polygon fill="midnightblue" stroke="midnightblue" points="1408.97,-16.0046 1418.79,-12.0307 1408.63,-9.01262 1408.97,-16.0046"/>
</g>
<!-- Node11 -->
<g id="node21" class="node"><title>Node11</title>
<polygon fill="white" stroke="#bfbfbf" points="3425,-58.5 3425,-79.5 3471,-79.5 3471,-58.5 3425,-58.5"/>
<text text-anchor="middle" x="3448" y="-66.5" font-family="Helvetica,sans-Serif" font-size="10.00">cstdint</text>
</g>
<!-- Node1&#45;&gt;Node11 -->
<g id="edge304" class="edge"><title>Node1&#45;&gt;Node11</title>
<path fill="none" stroke="midnightblue" d="M1814.67,-604.393C2165.15,-601.065 3630,-581.613 3630,-489 3630,-489 3630,-489 3630,-185 3630,-115.096 3533.34,-85.4719 3480.91,-74.5444"/>
<polygon fill="midnightblue" stroke="midnightblue" points="3481.54,-71.1018 3471.05,-72.6017 3480.18,-77.9696 3481.54,-71.1018"/>
</g>
<!-- Node17 -->
<g id="node37" class="node"><title>Node17</title>
<polygon fill="white" stroke="#bfbfbf" points="1801.5,-116.5 1801.5,-137.5 1830.5,-137.5 1830.5,-116.5 1801.5,-116.5"/>
<text text-anchor="middle" x="1816" y="-124.5" font-family="Helvetica,sans-Serif" font-size="10.00">list</text>
</g>
<!-- Node1&#45;&gt;Node17 -->
<g id="edge298" class="edge"><title>Node1&#45;&gt;Node17</title>
<path fill="none" stroke="midnightblue" d="M1814.97,-599.384C1934.28,-588.358 2154,-558.605 2154,-489 2154,-489 2154,-489 2154,-301 2154,-165.593 1982.23,-268.708 1868,-196 1849.03,-183.927 1834.45,-162.337 1825.62,-146.514"/>
<polygon fill="midnightblue" stroke="midnightblue" points="1828.64,-144.748 1820.88,-137.543 1822.46,-148.019 1828.64,-144.748"/>
</g>
<!-- Node20 -->
<g id="node48" class="node"><title>Node20</title>
<polygon fill="white" stroke="#bfbfbf" points="1385.5,-174.5 1385.5,-195.5 1420.5,-195.5 1420.5,-174.5 1385.5,-174.5"/>
<text text-anchor="middle" x="1403" y="-182.5" font-family="Helvetica,sans-Serif" font-size="10.00">map</text>
</g>
<!-- Node1&#45;&gt;Node20 -->
<g id="edge300" class="edge"><title>Node1&#45;&gt;Node20</title>
<path fill="none" stroke="midnightblue" d="M1665.1,-601.554C1406.06,-589.15 564,-544.553 564,-489 564,-489 564,-489 564,-301 564,-261.223 585.539,-250.021 621,-232 655.275,-214.581 1239.22,-191.261 1374.97,-186.058"/>
<polygon fill="midnightblue" stroke="midnightblue" points="1375.47,-189.541 1385.33,-185.663 1375.21,-182.547 1375.47,-189.541"/>
</g>
<!-- Node29 -->
<g id="node71" class="node"><title>Node29</title>
<polygon fill="white" stroke="#bfbfbf" points="3098,-116.5 3098,-137.5 3138,-137.5 3138,-116.5 3098,-116.5"/>
<text text-anchor="middle" x="3118" y="-124.5" font-family="Helvetica,sans-Serif" font-size="10.00">limits</text>
</g>
<!-- Node1&#45;&gt;Node29 -->
<g id="edge306" class="edge"><title>Node1&#45;&gt;Node29</title>
<path fill="none" stroke="midnightblue" d="M1814.6,-602.79C2105.27,-593.697 3146,-556.431 3146,-489 3146,-489 3146,-489 3146,-243 3146,-208.661 3134.26,-170.161 3125.99,-147.282"/>
<polygon fill="midnightblue" stroke="midnightblue" points="3129.17,-145.798 3122.38,-137.667 3122.61,-148.259 3129.17,-145.798"/>
</g>
<!-- Node3 -->
<g id="node5" class="node"><title>Node3</title>
<polygon fill="white" stroke="#bfbfbf" points="425.5,-0.5 425.5,-21.5 466.5,-21.5 466.5,-0.5 425.5,-0.5"/>
<text text-anchor="middle" x="446" y="-8.5" font-family="Helvetica,sans-Serif" font-size="10.00">string</text>
</g>
<!-- Node2&#45;&gt;Node3 -->
<g id="edge4" class="edge"><title>Node2&#45;&gt;Node3</title>
<path fill="none" stroke="midnightblue" d="M100.489,-232.093C105.524,-199.728 125.028,-103.656 184,-58 219.764,-30.3118 354.019,-17.487 415.234,-12.9838"/>
<polygon fill="midnightblue" stroke="midnightblue" points="415.706,-16.4592 425.434,-12.2612 415.212,-9.47674 415.706,-16.4592"/>
</g>
<!-- Node2&#45;&gt;Node4 -->
<g id="edge6" class="edge"><title>Node2&#45;&gt;Node4</title>
<path fill="none" stroke="midnightblue" d="M132.665,-239.898C157.381,-237.643 191.771,-234.552 222,-232 432.459,-214.235 685.177,-194.806 777.755,-187.751"/>
<polygon fill="midnightblue" stroke="midnightblue" points="778.028,-191.241 787.734,-186.991 777.497,-184.261 778.028,-191.241"/>
</g>
<!-- Node5&#45;&gt;Node4 -->
<g id="edge288" class="edge"><title>Node5&#45;&gt;Node4</title>
<path fill="none" stroke="midnightblue" d="M1681.63,-545.493C1408.97,-538.076 274,-502.886 274,-431 274,-431 274,-431 274,-301 274,-251.649 315.298,-250.624 361,-232 436.44,-201.258 683.929,-189.555 777.619,-186.158"/>
<polygon fill="midnightblue" stroke="midnightblue" points="777.877,-189.652 787.748,-185.802 777.631,-182.656 777.877,-189.652"/>
</g>
<!-- Node5&#45;&gt;Node6 -->
<g id="edge10" class="edge"><title>Node5&#45;&gt;Node6</title>
<path fill="none" stroke="midnightblue" d="M1798.22,-545.759C1999.54,-540.708 2654,-517.625 2654,-431 2654,-431 2654,-431 2654,-301 2654,-206.997 2533.79,-159.842 2459.42,-139.663"/>
<polygon fill="midnightblue" stroke="midnightblue" points="2460.26,-136.264 2449.7,-137.107 2458.48,-143.034 2460.26,-136.264"/>
</g>
<!-- Node7 -->
<g id="node13" class="node"><title>Node7</title>
<a xlink:href="printable_8h.html" target="_top" xlink:title="base/printable.h">
<polygon fill="white" stroke="black" points="2856,-58.5 2856,-79.5 2942,-79.5 2942,-58.5 2856,-58.5"/>
<text text-anchor="middle" x="2899" y="-66.5" font-family="Helvetica,sans-Serif" font-size="10.00">base/printable.h</text>
</a>
</g>
<!-- Node5&#45;&gt;Node7 -->
<g id="edge286" class="edge"><title>Node5&#45;&gt;Node7</title>
<path fill="none" stroke="midnightblue" d="M1798.23,-546.38C1957.92,-544.238 2400.2,-535.204 2541,-500 2757.43,-445.888 3097.85,-227.307 3147,-138 3151.71,-129.434 3153.24,-123.53 3147,-116 3122.75,-86.7282 3017.49,-75.5458 2952.15,-71.378"/>
<polygon fill="midnightblue" stroke="midnightblue" points="2952.21,-67.8757 2942.02,-70.7676 2951.79,-74.863 2952.21,-67.8757"/>
</g>
<!-- Node14 -->
<g id="node29" class="node"><title>Node14</title>
<a xlink:href="_reconstruct__traits_8h.html" target="_top" xlink:title="reconstruct/Reconstruct\l_traits.h">
<polygon fill="white" stroke="black" points="1128,-349 1128,-383 1250,-383 1250,-349 1128,-349"/>
<text text-anchor="start" x="1136" y="-370" font-family="Helvetica,sans-Serif" font-size="10.00">reconstruct/Reconstruct</text>
<text text-anchor="middle" x="1189" y="-357" font-family="Helvetica,sans-Serif" font-size="10.00">_traits.h</text>
</a>
</g>
<!-- Node5&#45;&gt;Node14 -->
<g id="edge30" class="edge"><title>Node5&#45;&gt;Node14</title>
<path fill="none" stroke="midnightblue" d="M1706.63,-536.423C1647.55,-517.661 1520.72,-477.209 1414,-442 1357.82,-423.467 1293.94,-401.836 1248.64,-386.401"/>
<polygon fill="midnightblue" stroke="midnightblue" points="1249.57,-383.021 1238.98,-383.107 1247.31,-389.646 1249.57,-383.021"/>
</g>
<!-- Node5&#45;&gt;Node17 -->
<g id="edge290" class="edge"><title>Node5&#45;&gt;Node17</title>
<path fill="none" stroke="midnightblue" d="M1766.21,-536.409C1781.4,-528.748 1799.2,-516.776 1808,-500 1842.77,-433.698 2143.93,-712.314 1785,-232 1759.21,-197.49 1719.15,-231.674 1695,-196 1689.52,-187.903 1689.48,-182.069 1695,-174 1706.21,-157.625 1759.25,-141.539 1791.27,-133.093"/>
<polygon fill="midnightblue" stroke="midnightblue" points="1792.42,-136.411 1801.23,-130.532 1790.67,-129.632 1792.42,-136.411"/>
</g>
<!-- Node5&#45;&gt;Node20 -->
<g id="edge292" class="edge"><title>Node5&#45;&gt;Node20</title>
<path fill="none" stroke="midnightblue" d="M1687.9,-536.492C1644.44,-527.502 1580.96,-513.853 1526,-500 1273.01,-436.23 1090.96,-495.815 993,-254 989.329,-244.938 986.492,-239.297 993,-232 1018.49,-203.417 1287.45,-189.792 1375.37,-186.079"/>
<polygon fill="midnightblue" stroke="midnightblue" points="1375.54,-189.575 1385.39,-185.666 1375.26,-182.581 1375.54,-189.575"/>
</g>
<!-- Node21 -->
<g id="node51" class="node"><title>Node21</title>
<a xlink:href="_calibration_8h.html" target="_top" xlink:title="calibration/Calibration.h">
<polygon fill="white" stroke="black" points="1680.5,-478.5 1680.5,-499.5 1799.5,-499.5 1799.5,-478.5 1680.5,-478.5"/>
<text text-anchor="middle" x="1740" y="-486.5" font-family="Helvetica,sans-Serif" font-size="10.00">calibration/Calibration.h</text>
</a>
</g>
<!-- Node5&#45;&gt;Node21 -->
<g id="edge60" class="edge"><title>Node5&#45;&gt;Node21</title>
<path fill="none" stroke="midnightblue" d="M1740,-536.362C1740,-528.922 1740,-518.743 1740,-509.728"/>
<polygon fill="midnightblue" stroke="midnightblue" points="1743.5,-509.571 1740,-499.571 1736.5,-509.571 1743.5,-509.571"/>
</g>
<!-- Node6&#45;&gt;Node3 -->
<g id="edge24" class="edge"><title>Node6&#45;&gt;Node3</title>
<path fill="none" stroke="midnightblue" d="M2396.98,-116.401C2388.71,-100.35 2370.57,-70.4332 2345,-58 2301.18,-36.697 719.382,-14.665 477.02,-11.411"/>
<polygon fill="midnightblue" stroke="midnightblue" points="476.851,-7.90853 466.805,-11.2744 476.758,-14.9079 476.851,-7.90853"/>
</g>
<!-- Node6&#45;&gt;Node7 -->
<g id="edge12" class="edge"><title>Node6&#45;&gt;Node7</title>
<path fill="none" stroke="midnightblue" d="M2449.52,-120.365C2460.51,-118.881 2472.16,-117.349 2483,-116 2613.12,-99.8168 2766.43,-83.1023 2845.63,-74.6416"/>
<polygon fill="midnightblue" stroke="midnightblue" points="2846.27,-78.0934 2855.84,-73.5527 2845.53,-71.1329 2846.27,-78.0934"/>
</g>
<!-- Node6&#45;&gt;Node8 -->
<g id="edge28" class="edge"><title>Node6&#45;&gt;Node8</title>
<path fill="none" stroke="midnightblue" d="M2401.76,-116.248C2400.76,-100.559 2396.37,-71.7663 2378,-58 2341.05,-30.311 1634.2,-14.795 1473.37,-11.6146"/>
<polygon fill="midnightblue" stroke="midnightblue" points="1473.23,-8.11132 1463.17,-11.4149 1473.09,-15.11 1473.23,-8.11132"/>
</g>
<!-- Node10 -->
<g id="node19" class="node"><title>Node10</title>
<polygon fill="white" stroke="#bfbfbf" points="2125.5,-58.5 2125.5,-79.5 2190.5,-79.5 2190.5,-58.5 2125.5,-58.5"/>
<text text-anchor="middle" x="2158" y="-66.5" font-family="Helvetica,sans-Serif" font-size="10.00">TVector3.h</text>
</g>
<!-- Node6&#45;&gt;Node10 -->
<g id="edge18" class="edge"><title>Node6&#45;&gt;Node10</title>
<path fill="none" stroke="midnightblue" d="M2357.81,-116.497C2313.09,-105.866 2244.43,-89.5454 2200.37,-79.0723"/>
<polygon fill="midnightblue" stroke="midnightblue" points="2201.09,-75.6444 2190.55,-76.7369 2199.47,-82.4547 2201.09,-75.6444"/>
</g>
<!-- Node6&#45;&gt;Node11 -->
<g id="edge20" class="edge"><title>Node6&#45;&gt;Node11</title>
<path fill="none" stroke="midnightblue" d="M2449.89,-119.8C2460.76,-118.36 2472.26,-116.989 2483,-116 2846.99,-82.4837 3290.56,-71.9713 3414.46,-69.5856"/>
<polygon fill="midnightblue" stroke="midnightblue" points="3414.86,-73.0788 3424.8,-69.3914 3414.73,-66.08 3414.86,-73.0788"/>
</g>
<!-- Node12 -->
<g id="node23" class="node"><title>Node12</title>
<polygon fill="white" stroke="#bfbfbf" points="2657.5,-58.5 2657.5,-79.5 2716.5,-79.5 2716.5,-58.5 2657.5,-58.5"/>
<text text-anchor="middle" x="2687" y="-66.5" font-family="Helvetica,sans-Serif" font-size="10.00">stdexcept</text>
</g>
<!-- Node6&#45;&gt;Node12 -->
<g id="edge22" class="edge"><title>Node6&#45;&gt;Node12</title>
<path fill="none" stroke="midnightblue" d="M2449.7,-117.292C2505.15,-106.009 2595.63,-87.5938 2647.37,-77.0642"/>
<polygon fill="midnightblue" stroke="midnightblue" points="2648.39,-80.4291 2657.49,-75.0051 2647,-73.5697 2648.39,-80.4291"/>
</g>
<!-- Node13 -->
<g id="node26" class="node"><title>Node13</title>
<polygon fill="white" stroke="#bfbfbf" points="2274,-58.5 2274,-79.5 2336,-79.5 2336,-58.5 2274,-58.5"/>
<text text-anchor="middle" x="2305" y="-66.5" font-family="Helvetica,sans-Serif" font-size="10.00">type_traits</text>
</g>
<!-- Node6&#45;&gt;Node13 -->
<g id="edge26" class="edge"><title>Node6&#45;&gt;Node13</title>
<path fill="none" stroke="midnightblue" d="M2384.21,-116.362C2369.44,-107.532 2348.22,-94.844 2331.46,-84.8224"/>
<polygon fill="midnightblue" stroke="midnightblue" points="2333.06,-81.6987 2322.68,-79.5707 2329.47,-87.7066 2333.06,-81.6987"/>
</g>
<!-- Node7&#45;&gt;Node8 -->
<g id="edge14" class="edge"><title>Node7&#45;&gt;Node8</title>
<path fill="none" stroke="midnightblue" d="M2855.76,-65.9462C2820.56,-63.5379 2769.59,-60.2252 2725,-58 2226.73,-33.1349 1619.06,-15.8433 1473.45,-11.8706"/>
<polygon fill="midnightblue" stroke="midnightblue" points="1473.49,-8.37037 1463.4,-11.5974 1473.3,-15.3678 1473.49,-8.37037"/>
</g>
<!-- Node9 -->
<g id="node17" class="node"><title>Node9</title>
<polygon fill="white" stroke="#bfbfbf" points="2873,-0.5 2873,-21.5 2925,-21.5 2925,-0.5 2873,-0.5"/>
<text text-anchor="middle" x="2899" y="-8.5" font-family="Helvetica,sans-Serif" font-size="10.00">ostream</text>
</g>
<!-- Node7&#45;&gt;Node9 -->
<g id="edge16" class="edge"><title>Node7&#45;&gt;Node9</title>
<path fill="none" stroke="midnightblue" d="M2899,-58.3619C2899,-50.9219 2899,-40.7427 2899,-31.7276"/>
<polygon fill="midnightblue" stroke="midnightblue" points="2902.5,-31.5706 2899,-21.5707 2895.5,-31.5707 2902.5,-31.5706"/>
</g>
<!-- Node14&#45;&gt;Node4 -->
<g id="edge54" class="edge"><title>Node14&#45;&gt;Node4</title>
<path fill="none" stroke="midnightblue" d="M1127.91,-365.068C982.425,-362.218 624.877,-351.25 589,-312 570.047,-291.265 592.519,-248.609 612,-232 668.127,-184.149 702.42,-213.784 774,-196 775.258,-195.687 776.537,-195.364 777.828,-195.034"/>
<polygon fill="midnightblue" stroke="midnightblue" points="779.021,-198.339 787.799,-192.406 777.237,-191.57 779.021,-198.339"/>
</g>
<!-- Node14&#45;&gt;Node6 -->
<g id="edge32" class="edge"><title>Node14&#45;&gt;Node6</title>
<path fill="none" stroke="midnightblue" d="M1250.36,-349.767C1253.28,-349.14 1256.17,-348.546 1259,-348 1577.61,-286.592 1666.61,-325.99 1983,-254 2063.31,-235.727 2081.53,-223.957 2159,-196 2184.15,-186.923 2189.54,-182.165 2215,-174 2257.69,-160.313 2306.88,-148.085 2344.1,-139.534"/>
<polygon fill="midnightblue" stroke="midnightblue" points="2345.29,-142.853 2354.26,-137.222 2343.73,-136.028 2345.29,-142.853"/>
</g>
<!-- Node15 -->
<g id="node32" class="node"><title>Node15</title>
<a xlink:href="_memory_pool_8h.html" target="_top" xlink:title="tree/MemoryPool.h">
<polygon fill="white" stroke="black" points="597.5,-290.5 597.5,-311.5 696.5,-311.5 696.5,-290.5 597.5,-290.5"/>
<text text-anchor="middle" x="647" y="-298.5" font-family="Helvetica,sans-Serif" font-size="10.00">tree/MemoryPool.h</text>
</a>
</g>
<!-- Node14&#45;&gt;Node15 -->
<g id="edge34" class="edge"><title>Node14&#45;&gt;Node15</title>
<path fill="none" stroke="midnightblue" d="M1127.98,-360.316C1036.81,-351.554 859.729,-333.491 710,-312 708.928,-311.846 707.847,-311.688 706.758,-311.526"/>
<polygon fill="midnightblue" stroke="midnightblue" points="707.238,-308.059 696.82,-309.986 706.166,-314.976 707.238,-308.059"/>
</g>
<!-- Node14&#45;&gt;Node17 -->
<g id="edge58" class="edge"><title>Node14&#45;&gt;Node17</title>
<path fill="none" stroke="midnightblue" d="M1250.05,-350.138C1253.07,-349.404 1256.07,-348.687 1259,-348 1334.19,-330.379 1356.18,-337.731 1429,-312 1482.6,-293.06 1493.99,-282.8 1543,-254 1597.95,-221.714 1604.45,-201.378 1662,-174 1705.58,-153.268 1760.42,-139.123 1791.51,-132.11"/>
<polygon fill="midnightblue" stroke="midnightblue" points="1792.44,-135.489 1801.46,-129.927 1790.94,-128.651 1792.44,-135.489"/>
</g>
<!-- Node19 -->
<g id="node42" class="node"><title>Node19</title>
<a xlink:href="mapped__vectors_8h.html" target="_top" xlink:title="base/mapped_vectors.h">
<polygon fill="white" stroke="black" points="377.5,-232.5 377.5,-253.5 498.5,-253.5 498.5,-232.5 377.5,-232.5"/>
<text text-anchor="middle" x="438" y="-240.5" font-family="Helvetica,sans-Serif" font-size="10.00">base/mapped_vectors.h</text>
</a>
</g>
<!-- Node14&#45;&gt;Node19 -->
<g id="edge46" class="edge"><title>Node14&#45;&gt;Node19</title>
<path fill="none" stroke="midnightblue" d="M1127.97,-363.427C972.079,-356.53 567.568,-336.484 512,-312 487.087,-301.023 465.217,-278.047 451.836,-261.624"/>
<polygon fill="midnightblue" stroke="midnightblue" points="454.569,-259.437 445.641,-253.732 449.062,-263.759 454.569,-259.437"/>
</g>
<!-- Node14&#45;&gt;Node20 -->
<g id="edge56" class="edge"><title>Node14&#45;&gt;Node20</title>
<path fill="none" stroke="midnightblue" d="M1250.25,-349.619C1342.11,-324.446 1506.62,-276.776 1523,-254 1562.61,-198.947 1492.53,-216.579 1430.12,-196.021"/>
<polygon fill="midnightblue" stroke="midnightblue" points="1431.18,-192.682 1420.59,-192.538 1428.78,-199.257 1431.18,-192.682"/>
</g>
<!-- Node15&#45;&gt;Node4 -->
<g id="edge42" class="edge"><title>Node15&#45;&gt;Node4</title>
<path fill="none" stroke="midnightblue" d="M636.872,-290.171C624.546,-275.652 607.012,-249.662 621,-232 664.372,-177.238 706.31,-213.265 774,-196 775.256,-195.68 776.533,-195.35 777.823,-195.014"/>
<polygon fill="midnightblue" stroke="midnightblue" points="779.025,-198.315 787.787,-192.359 777.223,-191.551 779.025,-198.315"/>
</g>
<!-- Node16 -->
<g id="node34" class="node"><title>Node16</title>
<a xlink:href="memory_8h.html" target="_top" xlink:title="base/std_ext/memory.h">
<polygon fill="white" stroke="black" points="751.5,-232.5 751.5,-253.5 870.5,-253.5 870.5,-232.5 751.5,-232.5"/>
<text text-anchor="middle" x="811" y="-240.5" font-family="Helvetica,sans-Serif" font-size="10.00">base/std_ext/memory.h</text>
</a>
</g>
<!-- Node15&#45;&gt;Node16 -->
<g id="edge36" class="edge"><title>Node15&#45;&gt;Node16</title>
<path fill="none" stroke="midnightblue" d="M676.699,-290.497C703.32,-281.082 742.562,-267.204 771.761,-256.877"/>
<polygon fill="midnightblue" stroke="midnightblue" points="772.984,-260.157 781.245,-253.523 770.65,-253.558 772.984,-260.157"/>
</g>
<!-- Node18 -->
<g id="node40" class="node"><title>Node18</title>
<polygon fill="white" stroke="#bfbfbf" points="629.5,-232.5 629.5,-253.5 696.5,-253.5 696.5,-232.5 629.5,-232.5"/>
<text text-anchor="middle" x="663" y="-240.5" font-family="Helvetica,sans-Serif" font-size="10.00">forward_list</text>
</g>
<!-- Node15&#45;&gt;Node18 -->
<g id="edge44" class="edge"><title>Node15&#45;&gt;Node18</title>
<path fill="none" stroke="midnightblue" d="M649.935,-290.362C652.01,-282.84 654.857,-272.519 657.364,-263.431"/>
<polygon fill="midnightblue" stroke="midnightblue" points="660.799,-264.141 660.084,-253.571 654.051,-262.28 660.799,-264.141"/>
</g>
<!-- Node16&#45;&gt;Node4 -->
<g id="edge38" class="edge"><title>Node16&#45;&gt;Node4</title>
<path fill="none" stroke="midnightblue" d="M811.55,-232.362C811.935,-224.922 812.462,-214.743 812.928,-205.728"/>
<polygon fill="midnightblue" stroke="midnightblue" points="816.432,-205.738 813.453,-195.571 809.441,-205.376 816.432,-205.738"/>
</g>
<!-- Node16&#45;&gt;Node17 -->
<g id="edge40" class="edge"><title>Node16&#45;&gt;Node17</title>
<path fill="none" stroke="midnightblue" d="M833.479,-232.395C868.418,-216.48 938.268,-186.911 1001,-174 1157.67,-141.756 1671.66,-129.833 1791.06,-127.464"/>
<polygon fill="midnightblue" stroke="midnightblue" points="1791.43,-130.957 1801.36,-127.264 1791.3,-123.959 1791.43,-130.957"/>
</g>
<!-- Node19&#45;&gt;Node4 -->
<g id="edge50" class="edge"><title>Node19&#45;&gt;Node4</title>
<path fill="none" stroke="midnightblue" d="M498.568,-233.941C503.113,-233.278 507.628,-232.625 512,-232 628.355,-215.359 658.862,-219.634 774,-196 775.27,-195.739 776.559,-195.461 777.858,-195.169"/>
<polygon fill="midnightblue" stroke="midnightblue" points="778.989,-198.495 787.87,-192.717 777.324,-191.696 778.989,-198.495"/>
</g>
<!-- Node19&#45;&gt;Node8 -->
<g id="edge48" class="edge"><title>Node19&#45;&gt;Node8</title>
<path fill="none" stroke="midnightblue" d="M458.061,-232.477C521.164,-199.933 722.048,-100.557 901,-58 998.497,-34.8139 1307.55,-17.6753 1408.65,-12.5708"/>
<polygon fill="midnightblue" stroke="midnightblue" points="1409.04,-16.0558 1418.85,-12.0611 1408.69,-9.06454 1409.04,-16.0558"/>
</g>
<!-- Node19&#45;&gt;Node13 -->
<g id="edge52" class="edge"><title>Node19&#45;&gt;Node13</title>
<path fill="none" stroke="midnightblue" d="M498.671,-239.071C559.829,-233.812 656.314,-221.936 736,-196 756.413,-189.356 758.308,-179.716 779,-174 1388.66,-5.59697 1568.78,-133.541 2199,-80 2220.41,-78.1812 2244.21,-75.749 2263.82,-73.6341"/>
<polygon fill="midnightblue" stroke="midnightblue" points="2264.39,-77.0928 2273.95,-72.53 2263.63,-70.134 2264.39,-77.0928"/>
</g>
<!-- Node21&#45;&gt;Node8 -->
<g id="edge284" class="edge"><title>Node21&#45;&gt;Node8</title>
<path fill="none" stroke="midnightblue" d="M1767.82,-478.498C1806.51,-464.122 1878.94,-438.044 1942,-420 2009.99,-400.545 2030.22,-407.271 2097,-384 2132.29,-371.702 2136.98,-357.986 2173,-348 2251.33,-326.282 2470.05,-358.088 2537,-312 2608.89,-262.515 2603.66,-184.039 2549,-116 2504.5,-60.5994 2469.5,-72.8201 2400,-58 2217.29,-19.04 1619.37,-12.2732 1473.37,-11.1924"/>
<polygon fill="midnightblue" stroke="midnightblue" points="1473.3,-7.69188 1463.27,-11.1215 1473.25,-14.6917 1473.3,-7.69188"/>
</g>
<!-- Node21&#45;&gt;Node14 -->
<g id="edge268" class="edge"><title>Node21&#45;&gt;Node14</title>
<path fill="none" stroke="midnightblue" d="M1688.6,-478.428C1602.28,-460.53 1422.49,-422.647 1260.22,-384.252"/>
<polygon fill="midnightblue" stroke="midnightblue" points="1260.59,-380.742 1250.05,-381.84 1258.97,-387.553 1260.59,-380.742"/>
</g>
<!-- Node22 -->
<g id="node53" class="node"><title>Node22</title>
<a xlink:href="_physics_8h.html" target="_top" xlink:title="analysis/physics/Physics.h">
<polygon fill="white" stroke="black" points="1550,-420.5 1550,-441.5 1686,-441.5 1686,-420.5 1550,-420.5"/>
<text text-anchor="middle" x="1618" y="-428.5" font-family="Helvetica,sans-Serif" font-size="10.00">analysis/physics/Physics.h</text>
</a>
</g>
<!-- Node21&#45;&gt;Node22 -->
<g id="edge62" class="edge"><title>Node21&#45;&gt;Node22</title>
<path fill="none" stroke="midnightblue" d="M1717.91,-478.497C1698.77,-469.397 1670.85,-456.127 1649.39,-445.925"/>
<polygon fill="midnightblue" stroke="midnightblue" points="1650.88,-442.754 1640.34,-441.621 1647.87,-449.076 1650.88,-442.754"/>
</g>
<!-- Node59 -->
<g id="node194" class="node"><title>Node59</title>
<a xlink:href="_manager__traits_8h.html" target="_top" xlink:title="calibration/gui/Manager\l_traits.h">
<polygon fill="white" stroke="black" points="2181.5,-349 2181.5,-383 2298.5,-383 2298.5,-349 2181.5,-349"/>
<text text-anchor="start" x="2189.5" y="-370" font-family="Helvetica,sans-Serif" font-size="10.00">calibration/gui/Manager</text>
<text text-anchor="middle" x="2240" y="-357" font-family="Helvetica,sans-Serif" font-size="10.00">_traits.h</text>
</a>
</g>
<!-- Node21&#45;&gt;Node59 -->
<g id="edge270" class="edge"><title>Node21&#45;&gt;Node59</title>
<path fill="none" stroke="midnightblue" d="M1783.06,-478.407C1869.92,-457.04 2066.72,-408.626 2171.45,-382.863"/>
<polygon fill="midnightblue" stroke="midnightblue" points="2172.42,-386.23 2181.29,-380.443 2170.74,-379.433 2172.42,-386.23"/>
</g>
<!-- Node22&#45;&gt;Node3 -->
<g id="edge260" class="edge"><title>Node22&#45;&gt;Node3</title>
<path fill="none" stroke="midnightblue" d="M1549.81,-428.884C1364.03,-422.908 851.647,-404.969 684,-384 393.397,-347.652 274.127,-427.248 38,-254 9.77303,-233.29 0,-220.01 0,-185 0,-185 0,-185 0,-127 0,-81.0478 35.2057,-77.1007 77,-58 137.306,-30.4394 338.278,-16.853 415.455,-12.5552"/>
<polygon fill="midnightblue" stroke="midnightblue" points="415.7,-16.0472 425.496,-12.01 415.321,-9.05746 415.7,-16.0472"/>
</g>
<!-- Node22&#45;&gt;Node4 -->
<g id="edge264" class="edge"><title>Node22&#45;&gt;Node4</title>
<path fill="none" stroke="midnightblue" d="M1549.76,-424.956C1453.62,-416.353 1272.85,-399.858 1119,-384 975.976,-369.258 613.184,-355.056 476,-312 424.389,-295.802 396.673,-300.478 369,-254 363.998,-245.599 362.459,-239.268 369,-232 396.198,-201.779 676.485,-189.555 777.752,-186.103"/>
<polygon fill="midnightblue" stroke="midnightblue" points="777.933,-189.599 787.812,-185.769 777.701,-182.603 777.933,-189.599"/>
</g>
<!-- Node22&#45;&gt;Node17 -->
<g id="edge258" class="edge"><title>Node22&#45;&gt;Node17</title>
<path fill="none" stroke="midnightblue" d="M1684.48,-420.497C1770.61,-402.932 1917.48,-358.593 1983,-254 1988.19,-245.714 1989.11,-239.631 1983,-232 1937.16,-174.775 1870.28,-251.183 1822,-196 1810.6,-182.965 1810.13,-162.754 1811.89,-147.57"/>
<polygon fill="midnightblue" stroke="midnightblue" points="1815.37,-147.996 1813.46,-137.575 1808.45,-146.916 1815.37,-147.996"/>
</g>
<!-- Node22&#45;&gt;Node20 -->
<g id="edge262" class="edge"><title>Node22&#45;&gt;Node20</title>
<path fill="none" stroke="midnightblue" d="M1617.4,-420.399C1614.9,-387.053 1602.46,-283.467 1543,-232 1505.1,-199.197 1481.62,-212.596 1430.12,-196.011"/>
<polygon fill="midnightblue" stroke="midnightblue" points="1431.13,-192.655 1420.53,-192.682 1428.83,-199.268 1431.13,-192.655"/>
</g>
<!-- Node23 -->
<g id="node55" class="node"><title>Node23</title>
<a xlink:href="_histogram_factories_8h.html" target="_top" xlink:title="analysis/plot/HistogramFactories.h">
<polygon fill="white" stroke="black" points="1422,-355.5 1422,-376.5 1590,-376.5 1590,-355.5 1422,-355.5"/>
<text text-anchor="middle" x="1506" y="-363.5" font-family="Helvetica,sans-Serif" font-size="10.00">analysis/plot/HistogramFactories.h</text>
</a>
</g>
<!-- Node22&#45;&gt;Node23 -->
<g id="edge64" class="edge"><title>Node22&#45;&gt;Node23</title>
<path fill="none" stroke="midnightblue" d="M1599.51,-420.267C1581.4,-409.76 1553.62,-393.637 1533.04,-381.692"/>
<polygon fill="midnightblue" stroke="midnightblue" points="1534.56,-378.526 1524.15,-376.534 1531.04,-384.58 1534.56,-378.526"/>
</g>
<!-- Node32 -->
<g id="node83" class="node"><title>Node32</title>
<polygon fill="white" stroke="#bfbfbf" points="1437.5,-174.5 1437.5,-195.5 1496.5,-195.5 1496.5,-174.5 1437.5,-174.5"/>
<text text-anchor="middle" x="1467" y="-182.5" font-family="Helvetica,sans-Serif" font-size="10.00">functional</text>
</g>
<!-- Node22&#45;&gt;Node32 -->
<g id="edge266" class="edge"><title>Node22&#45;&gt;Node32</title>
<path fill="none" stroke="midnightblue" d="M1622.13,-420.372C1625.55,-410.974 1630.13,-396.806 1632,-384 1638.03,-342.659 1643.95,-330.033 1632,-290 1623.19,-260.469 1618.11,-251.201 1594,-232 1580.1,-220.931 1538.35,-206.549 1506.47,-196.625"/>
<polygon fill="midnightblue" stroke="midnightblue" points="1507.1,-193.158 1496.52,-193.569 1505.05,-199.85 1507.1,-193.158"/>
</g>
<!-- Node46 -->
<g id="node134" class="node"><title>Node46</title>
<a xlink:href="_event_8h.html" target="_top" xlink:title="analysis/data/Event.h">
<polygon fill="white" stroke="black" points="1977.5,-355.5 1977.5,-376.5 2088.5,-376.5 2088.5,-355.5 1977.5,-355.5"/>
<text text-anchor="middle" x="2033" y="-363.5" font-family="Helvetica,sans-Serif" font-size="10.00">analysis/data/Event.h</text>
</a>
</g>
<!-- Node22&#45;&gt;Node46 -->
<g id="edge176" class="edge"><title>Node22&#45;&gt;Node46</title>
<path fill="none" stroke="midnightblue" d="M1686.25,-420.89C1748.69,-411.568 1843.62,-397.214 1926,-384 1939.47,-381.839 1953.88,-379.461 1967.63,-377.16"/>
<polygon fill="midnightblue" stroke="midnightblue" points="1968.21,-380.611 1977.49,-375.503 1967.05,-373.708 1968.21,-380.611"/>
</g>
<!-- Node58 -->
<g id="node185" class="node"><title>Node58</title>
<a xlink:href="_slowcontrol_8h.html" target="_top" xlink:title="analysis/data/Slowcontrol.h">
<polygon fill="white" stroke="black" points="1267.5,-355.5 1267.5,-376.5 1404.5,-376.5 1404.5,-355.5 1267.5,-355.5"/>
<text text-anchor="middle" x="1336" y="-363.5" font-family="Helvetica,sans-Serif" font-size="10.00">analysis/data/Slowcontrol.h</text>
</a>
</g>
<!-- Node22&#45;&gt;Node58 -->
<g id="edge254" class="edge"><title>Node22&#45;&gt;Node58</title>
<path fill="none" stroke="midnightblue" d="M1571.58,-420.417C1530.02,-410.928 1467.43,-396.601 1413,-384 1405.75,-382.321 1398.11,-380.545 1390.58,-378.789"/>
<polygon fill="midnightblue" stroke="midnightblue" points="1391.31,-375.367 1380.78,-376.502 1389.72,-382.184 1391.31,-375.367"/>
</g>
<!-- Node23&#45;&gt;Node3 -->
<g id="edge174" class="edge"><title>Node23&#45;&gt;Node3</title>
<path fill="none" stroke="midnightblue" d="M1459.39,-355.496C1444.63,-352.57 1428.2,-349.723 1413,-348 953.887,-295.94 833.373,-361.713 374,-312 371.775,-311.759 58.6503,-255.512 57,-254 33.5436,-232.516 38,-216.808 38,-185 38,-185 38,-185 38,-127 38,-48.5582 320.554,-20.3389 415.387,-13.0767"/>
<polygon fill="midnightblue" stroke="midnightblue" points="415.773,-16.5577 425.488,-12.3288 415.256,-9.57683 415.773,-16.5577"/>
</g>
<!-- Node24 -->
<g id="node57" class="node"><title>Node24</title>
<a xlink:href="_histogram_8h.html" target="_top" xlink:title="Histogram.h">
<polygon fill="white" stroke="black" points="1002,-232.5 1002,-253.5 1072,-253.5 1072,-232.5 1002,-232.5"/>
<text text-anchor="middle" x="1037" y="-240.5" font-family="Helvetica,sans-Serif" font-size="10.00">Histogram.h</text>
</a>
</g>
<!-- Node23&#45;&gt;Node24 -->
<g id="edge66" class="edge"><title>Node23&#45;&gt;Node24</title>
<path fill="none" stroke="midnightblue" d="M1455.45,-355.439C1441.72,-352.783 1426.82,-350.095 1413,-348 1340.72,-337.045 1149.02,-349.05 1086,-312 1066.91,-300.777 1053.31,-278.852 1045.36,-262.717"/>
<polygon fill="midnightblue" stroke="midnightblue" points="1048.51,-261.18 1041.14,-253.566 1042.15,-264.113 1048.51,-261.18"/>
</g>
<!-- Node30 -->
<g id="node73" class="node"><title>Node30</title>
<a xlink:href="_smart_hist_8h.html" target="_top" xlink:title="SmartHist.h">
<polygon fill="white" stroke="black" points="1186.5,-290.5 1186.5,-311.5 1255.5,-311.5 1255.5,-290.5 1186.5,-290.5"/>
<text text-anchor="middle" x="1221" y="-298.5" font-family="Helvetica,sans-Serif" font-size="10.00">SmartHist.h</text>
</a>
</g>
<!-- Node23&#45;&gt;Node30 -->
<g id="edge86" class="edge"><title>Node23&#45;&gt;Node30</title>
<path fill="none" stroke="midnightblue" d="M1459.89,-355.484C1406.32,-343.265 1318.52,-323.24 1265.59,-311.17"/>
<polygon fill="midnightblue" stroke="midnightblue" points="1266.34,-307.751 1255.81,-308.94 1264.79,-314.576 1266.34,-307.751"/>
</g>
<!-- Node39 -->
<g id="node100" class="node"><title>Node39</title>
<a xlink:href="_particle_8h.html" target="_top" xlink:title="analysis/data/Particle.h">
<polygon fill="white" stroke="black" points="1977.5,-290.5 1977.5,-311.5 2096.5,-311.5 2096.5,-290.5 1977.5,-290.5"/>
<text text-anchor="middle" x="2037" y="-298.5" font-family="Helvetica,sans-Serif" font-size="10.00">analysis/data/Particle.h</text>
</a>
</g>
<!-- Node23&#45;&gt;Node39 -->
<g id="edge122" class="edge"><title>Node23&#45;&gt;Node39</title>
<path fill="none" stroke="midnightblue" d="M1590.14,-355.701C1694.36,-342.943 1870,-321.443 1967.14,-309.552"/>
<polygon fill="midnightblue" stroke="midnightblue" points="1967.65,-313.015 1977.15,-308.326 1966.8,-306.067 1967.65,-313.015"/>
</g>
<!-- Node24&#45;&gt;Node3 -->
<g id="edge72" class="edge"><title>Node24&#45;&gt;Node3</title>
<path fill="none" stroke="midnightblue" d="M1010.07,-232.429C912.603,-194.167 578.593,-63.0502 476.13,-22.8279"/>
<polygon fill="midnightblue" stroke="midnightblue" points="477.27,-19.515 466.682,-19.1189 474.712,-26.031 477.27,-19.515"/>
</g>
<!-- Node24&#45;&gt;Node8 -->
<g id="edge70" class="edge"><title>Node24&#45;&gt;Node8</title>
<path fill="none" stroke="midnightblue" d="M1024.58,-232.062C1011,-218.698 992.256,-195.24 1001,-174 1028.64,-106.869 1051.17,-90.6627 1116,-58 1166.97,-32.3215 1337.02,-18.06 1408.7,-13.0643"/>
<polygon fill="midnightblue" stroke="midnightblue" points="1409.19,-16.539 1418.93,-12.3679 1408.71,-9.55511 1409.19,-16.539"/>
</g>
<!-- Node25 -->
<g id="node59" class="node"><title>Node25</title>
<polygon fill="white" stroke="#bfbfbf" points="1010,-174.5 1010,-195.5 1064,-195.5 1064,-174.5 1010,-174.5"/>
<text text-anchor="middle" x="1037" y="-182.5" font-family="Helvetica,sans-Serif" font-size="10.00">TColor.h</text>
</g>
<!-- Node24&#45;&gt;Node25 -->
<g id="edge68" class="edge"><title>Node24&#45;&gt;Node25</title>
<path fill="none" stroke="midnightblue" d="M1037,-232.362C1037,-224.922 1037,-214.743 1037,-205.728"/>
<polygon fill="midnightblue" stroke="midnightblue" points="1040.5,-205.571 1037,-195.571 1033.5,-205.571 1040.5,-205.571"/>
</g>
<!-- Node26 -->
<g id="node63" class="node"><title>Node26</title>
<a xlink:href="interval_8h.html" target="_top" xlink:title="base/interval.h">
<polygon fill="white" stroke="black" points="2772,-174.5 2772,-195.5 2852,-195.5 2852,-174.5 2772,-174.5"/>
<text text-anchor="middle" x="2812" y="-182.5" font-family="Helvetica,sans-Serif" font-size="10.00">base/interval.h</text>
</a>
</g>
<!-- Node24&#45;&gt;Node26 -->
<g id="edge74" class="edge"><title>Node24&#45;&gt;Node26</title>
<path fill="none" stroke="midnightblue" d="M1072.03,-237.473C1086.53,-235.401 1103.54,-233.248 1119,-232 1160.98,-228.611 2484.62,-193.623 2761.52,-186.328"/>
<polygon fill="midnightblue" stroke="midnightblue" points="2761.78,-189.823 2771.68,-186.061 2761.59,-182.825 2761.78,-189.823"/>
</g>
<!-- Node26&#45;&gt;Node7 -->
<g id="edge80" class="edge"><title>Node26&#45;&gt;Node7</title>
<path fill="none" stroke="midnightblue" d="M2820.03,-174.295C2834.79,-154.613 2866.41,-112.45 2884.85,-87.8668"/>
<polygon fill="midnightblue" stroke="midnightblue" points="2887.79,-89.7792 2890.99,-79.6792 2882.19,-85.5792 2887.79,-89.7792"/>
</g>
<!-- Node26&#45;&gt;Node12 -->
<g id="edge78" class="edge"><title>Node26&#45;&gt;Node12</title>
<path fill="none" stroke="midnightblue" d="M2800.46,-174.295C2778.88,-154.268 2732.22,-110.964 2705.95,-86.5893"/>
<polygon fill="midnightblue" stroke="midnightblue" points="2708.22,-83.916 2698.51,-79.6792 2703.46,-89.047 2708.22,-83.916"/>
</g>
<!-- Node27 -->
<g id="node65" class="node"><title>Node27</title>
<polygon fill="white" stroke="#bfbfbf" points="3325,-0.5 3325,-21.5 3381,-21.5 3381,-0.5 3325,-0.5"/>
<text text-anchor="middle" x="3353" y="-8.5" font-family="Helvetica,sans-Serif" font-size="10.00">algorithm</text>
</g>
<!-- Node26&#45;&gt;Node27 -->
<g id="edge76" class="edge"><title>Node26&#45;&gt;Node27</title>
<path fill="none" stroke="midnightblue" d="M2845.03,-174.377C2940.07,-143.81 3213.87,-55.7478 3314.93,-23.2437"/>
<polygon fill="midnightblue" stroke="midnightblue" points="3316.27,-26.4898 3324.72,-20.096 3314.13,-19.8259 3316.27,-26.4898"/>
</g>
<!-- Node28 -->
<g id="node69" class="node"><title>Node28</title>
<a xlink:href="types_8h.html" target="_top" xlink:title="types.h">
<polygon fill="white" stroke="black" points="2491.5,-116.5 2491.5,-137.5 2540.5,-137.5 2540.5,-116.5 2491.5,-116.5"/>
<text text-anchor="middle" x="2516" y="-124.5" font-family="Helvetica,sans-Serif" font-size="10.00">types.h</text>
</a>
</g>
<!-- Node26&#45;&gt;Node28 -->
<g id="edge82" class="edge"><title>Node26&#45;&gt;Node28</title>
<path fill="none" stroke="midnightblue" d="M2771.77,-177.118C2713.26,-165.653 2605.67,-144.571 2550.55,-133.77"/>
<polygon fill="midnightblue" stroke="midnightblue" points="2551.06,-130.303 2540.57,-131.814 2549.71,-137.172 2551.06,-130.303"/>
</g>
<!-- Node26&#45;&gt;Node29 -->
<g id="edge84" class="edge"><title>Node26&#45;&gt;Node29</title>
<path fill="none" stroke="midnightblue" d="M2852.01,-179.898C2905.37,-172.681 3002.58,-158.098 3084,-138 3085.43,-137.647 3086.89,-137.265 3088.36,-136.862"/>
<polygon fill="midnightblue" stroke="midnightblue" points="3089.41,-140.199 3098,-133.991 3087.42,-133.489 3089.41,-140.199"/>
</g>
<!-- Node30&#45;&gt;Node3 -->
<g id="edge116" class="edge"><title>Node30&#45;&gt;Node3</title>
<path fill="none" stroke="midnightblue" d="M1186.43,-300.213C1030.79,-296.53 401.326,-280.066 369,-254 344.239,-234.034 350,-216.808 350,-185 350,-185 350,-185 350,-127 350,-83.173 391.175,-46.9984 419.593,-27.2506"/>
<polygon fill="midnightblue" stroke="midnightblue" points="421.581,-30.1313 427.943,-21.659 417.687,-24.3149 421.581,-30.1313"/>
</g>
<!-- Node30&#45;&gt;Node4 -->
<g id="edge114" class="edge"><title>Node30&#45;&gt;Node4</title>
<path fill="none" stroke="midnightblue" d="M1186.19,-295.658C1141.09,-288.322 1060.28,-273.756 993,-254 940.86,-238.69 882.471,-214.867 846.978,-199.602"/>
<polygon fill="midnightblue" stroke="midnightblue" points="848.166,-196.302 837.599,-195.537 845.383,-202.725 848.166,-196.302"/>
</g>
<!-- Node30&#45;&gt;Node16 -->
<g id="edge106" class="edge"><title>Node30&#45;&gt;Node16</title>
<path fill="none" stroke="midnightblue" d="M1186.4,-296.105C1119.1,-286.585 969.447,-265.414 880.761,-252.869"/>
<polygon fill="midnightblue" stroke="midnightblue" points="881.179,-249.393 870.787,-251.458 880.198,-256.324 881.179,-249.393"/>
</g>
<!-- Node30&#45;&gt;Node24 -->
<g id="edge88" class="edge"><title>Node30&#45;&gt;Node24</title>
<path fill="none" stroke="midnightblue" d="M1187.68,-290.497C1157.55,-281 1113.02,-266.962 1080.17,-256.609"/>
<polygon fill="midnightblue" stroke="midnightblue" points="1080.97,-253.191 1070.38,-253.523 1078.87,-259.868 1080.97,-253.191"/>
</g>
<!-- Node31 -->
<g id="node76" class="node"><title>Node31</title>
<a xlink:href="root__draw_8h.html" target="_top" xlink:title="root_draw.h">
<polygon fill="white" stroke="black" points="1446,-232.5 1446,-253.5 1514,-253.5 1514,-232.5 1446,-232.5"/>
<text text-anchor="middle" x="1480" y="-240.5" font-family="Helvetica,sans-Serif" font-size="10.00">root_draw.h</text>
</a>
</g>
<!-- Node30&#45;&gt;Node31 -->
<g id="edge90" class="edge"><title>Node30&#45;&gt;Node31</title>
<path fill="none" stroke="midnightblue" d="M1255.66,-293.238C1302.21,-282.813 1384.97,-264.282 1435.9,-252.875"/>
<polygon fill="midnightblue" stroke="midnightblue" points="1436.96,-256.225 1445.96,-250.624 1435.43,-249.394 1436.96,-256.225"/>
</g>
<!-- Node34 -->
<g id="node88" class="node"><title>Node34</title>
<polygon fill="white" stroke="#bfbfbf" points="1127.5,-232.5 1127.5,-253.5 1178.5,-253.5 1178.5,-232.5 1127.5,-232.5"/>
<text text-anchor="middle" x="1153" y="-240.5" font-family="Helvetica,sans-Serif" font-size="10.00">TH1D.h</text>
</g>
<!-- Node30&#45;&gt;Node34 -->
<g id="edge108" class="edge"><title>Node30&#45;&gt;Node34</title>
<path fill="none" stroke="midnightblue" d="M1208.53,-290.362C1198.65,-281.941 1184.67,-270.011 1173.2,-260.231"/>
<polygon fill="midnightblue" stroke="midnightblue" points="1175.27,-257.397 1165.39,-253.571 1170.73,-262.723 1175.27,-257.397"/>
</g>
<!-- Node35 -->
<g id="node90" class="node"><title>Node35</title>
<polygon fill="white" stroke="#bfbfbf" points="1195.5,-232.5 1195.5,-253.5 1246.5,-253.5 1246.5,-232.5 1195.5,-232.5"/>
<text text-anchor="middle" x="1221" y="-240.5" font-family="Helvetica,sans-Serif" font-size="10.00">TH2D.h</text>
</g>
<!-- Node30&#45;&gt;Node35 -->
<g id="edge110" class="edge"><title>Node30&#45;&gt;Node35</title>
<path fill="none" stroke="midnightblue" d="M1221,-290.362C1221,-282.922 1221,-272.743 1221,-263.728"/>
<polygon fill="midnightblue" stroke="midnightblue" points="1224.5,-263.571 1221,-253.571 1217.5,-263.571 1224.5,-263.571"/>
</g>
<!-- Node36 -->
<g id="node92" class="node"><title>Node36</title>
<polygon fill="white" stroke="#bfbfbf" points="1263.5,-232.5 1263.5,-253.5 1314.5,-253.5 1314.5,-232.5 1263.5,-232.5"/>
<text text-anchor="middle" x="1289" y="-240.5" font-family="Helvetica,sans-Serif" font-size="10.00">TH3D.h</text>
</g>
<!-- Node30&#45;&gt;Node36 -->
<g id="edge112" class="edge"><title>Node30&#45;&gt;Node36</title>
<path fill="none" stroke="midnightblue" d="M1233.47,-290.362C1243.35,-281.941 1257.33,-270.011 1268.8,-260.231"/>
<polygon fill="midnightblue" stroke="midnightblue" points="1271.27,-262.723 1276.61,-253.571 1266.73,-257.397 1271.27,-262.723"/>
</g>
<!-- Node37 -->
<g id="node96" class="node"><title>Node37</title>
<polygon fill="white" stroke="#bfbfbf" points="1722,-232.5 1722,-253.5 1776,-253.5 1776,-232.5 1722,-232.5"/>
<text text-anchor="middle" x="1749" y="-240.5" font-family="Helvetica,sans-Serif" font-size="10.00">iostream</text>
</g>
<!-- Node30&#45;&gt;Node37 -->
<g id="edge118" class="edge"><title>Node30&#45;&gt;Node37</title>
<path fill="none" stroke="midnightblue" d="M1255.64,-297.194C1350.5,-286.775 1613.85,-257.846 1711.73,-247.094"/>
<polygon fill="midnightblue" stroke="midnightblue" points="1712.2,-250.563 1721.76,-245.992 1711.44,-243.605 1712.2,-250.563"/>
</g>
<!-- Node38 -->
<g id="node98" class="node"><title>Node38</title>
<polygon fill="white" stroke="#bfbfbf" points="1331.5,-232.5 1331.5,-253.5 1390.5,-253.5 1390.5,-232.5 1331.5,-232.5"/>
<text text-anchor="middle" x="1361" y="-240.5" font-family="Helvetica,sans-Serif" font-size="10.00">exception</text>
</g>
<!-- Node30&#45;&gt;Node38 -->
<g id="edge120" class="edge"><title>Node30&#45;&gt;Node38</title>
<path fill="none" stroke="midnightblue" d="M1246.35,-290.497C1268.61,-281.275 1301.21,-267.769 1325.96,-257.515"/>
<polygon fill="midnightblue" stroke="midnightblue" points="1327.46,-260.682 1335.36,-253.621 1324.78,-254.215 1327.46,-260.682"/>
</g>
<!-- Node31&#45;&gt;Node3 -->
<g id="edge92" class="edge"><title>Node31&#45;&gt;Node3</title>
<path fill="none" stroke="midnightblue" d="M1445.95,-235.019C1441.27,-233.974 1436.52,-232.941 1432,-232 1209.77,-185.75 1151.48,-187.726 930,-138 757.162,-99.1941 552.591,-41.6331 476.495,-19.8148"/>
<polygon fill="midnightblue" stroke="midnightblue" points="477.204,-16.3772 466.627,-16.9791 475.271,-23.1049 477.204,-16.3772"/>
</g>
<!-- Node31&#45;&gt;Node4 -->
<g id="edge100" class="edge"><title>Node31&#45;&gt;Node4</title>
<path fill="none" stroke="midnightblue" d="M1445.77,-234.502C1441.16,-233.55 1436.48,-232.68 1432,-232 1318.52,-214.781 964.986,-193.62 850.311,-187.046"/>
<polygon fill="midnightblue" stroke="midnightblue" points="850.467,-183.549 840.284,-186.473 850.068,-190.538 850.467,-183.549"/>
</g>
<!-- Node31&#45;&gt;Node8 -->
<g id="edge96" class="edge"><title>Node31&#45;&gt;Node8</title>
<path fill="none" stroke="midnightblue" d="M1445.95,-233.399C1416.15,-224.224 1376.2,-209.787 1367,-196 1330.03,-140.587 1390.55,-63.8641 1422.81,-29.2423"/>
<polygon fill="midnightblue" stroke="midnightblue" points="1425.58,-31.4079 1429.96,-21.7599 1420.52,-26.572 1425.58,-31.4079"/>
</g>
<!-- Node31&#45;&gt;Node17 -->
<g id="edge94" class="edge"><title>Node31&#45;&gt;Node17</title>
<path fill="none" stroke="midnightblue" d="M1445.68,-234.384C1406.94,-223.092 1352.33,-201.456 1377,-174 1404.88,-142.973 1702.78,-130.728 1791.32,-127.758"/>
<polygon fill="midnightblue" stroke="midnightblue" points="1791.61,-131.251 1801.5,-127.427 1791.39,-124.254 1791.61,-131.251"/>
</g>
<!-- Node31&#45;&gt;Node20 -->
<g id="edge98" class="edge"><title>Node31&#45;&gt;Node20</title>
<path fill="none" stroke="midnightblue" d="M1465.88,-232.362C1454.48,-223.777 1438.24,-211.546 1425.12,-201.664"/>
<polygon fill="midnightblue" stroke="midnightblue" points="1427.13,-198.792 1417.03,-195.571 1422.92,-204.383 1427.13,-198.792"/>
</g>
<!-- Node31&#45;&gt;Node32 -->
<g id="edge102" class="edge"><title>Node31&#45;&gt;Node32</title>
<path fill="none" stroke="midnightblue" d="M1477.62,-232.362C1475.93,-224.84 1473.62,-214.519 1471.58,-205.431"/>
<polygon fill="midnightblue" stroke="midnightblue" points="1474.97,-204.563 1469.37,-195.571 1468.14,-206.094 1474.97,-204.563"/>
</g>
<!-- Node33 -->
<g id="node85" class="node"><title>Node33</title>
<polygon fill="white" stroke="#bfbfbf" points="3194,-116.5 3194,-137.5 3250,-137.5 3250,-116.5 3194,-116.5"/>
<text text-anchor="middle" x="3222" y="-124.5" font-family="Helvetica,sans-Serif" font-size="10.00">Rtypes.h</text>
</g>
<!-- Node31&#45;&gt;Node33 -->
<g id="edge104" class="edge"><title>Node31&#45;&gt;Node33</title>
<path fill="none" stroke="midnightblue" d="M1514.34,-241.209C1559.78,-238.877 1642.39,-234.774 1713,-232 2223.08,-211.963 2353.62,-252.091 2861,-196 2979.9,-182.856 3118.25,-151.96 3183.8,-136.361"/>
<polygon fill="midnightblue" stroke="midnightblue" points="3184.78,-139.727 3193.68,-133.993 3183.14,-132.919 3184.78,-139.727"/>
</g>
<!-- Node39&#45;&gt;Node7 -->
<g id="edge124" class="edge"><title>Node39&#45;&gt;Node7</title>
<path fill="none" stroke="midnightblue" d="M2096.7,-297.871C2207.94,-291.6 2442.72,-276.17 2521,-254 2662.8,-213.843 2815.82,-122.114 2874.34,-85.014"/>
<polygon fill="midnightblue" stroke="midnightblue" points="2876.36,-87.8765 2882.91,-79.5449 2872.59,-81.9766 2876.36,-87.8765"/>
</g>
<!-- Node39&#45;&gt;Node8 -->
<g id="edge168" class="edge"><title>Node39&#45;&gt;Node8</title>
<path fill="none" stroke="midnightblue" d="M1996.38,-290.448C1960.66,-281.099 1907.29,-266.959 1861,-254 1858.24,-253.228 1665.53,-197.348 1663,-196 1576.16,-149.696 1492.05,-65.7293 1457.48,-29.007"/>
<polygon fill="midnightblue" stroke="midnightblue" points="1459.89,-26.4528 1450.51,-21.5225 1454.76,-31.2248 1459.89,-26.4528"/>
</g>
<!-- Node39&#45;&gt;Node17 -->
<g id="edge170" class="edge"><title>Node39&#45;&gt;Node17</title>
<path fill="none" stroke="midnightblue" d="M2036.95,-290.379C2036.28,-275.122 2032.67,-247.174 2016,-232 1956.96,-178.249 1900.08,-248.581 1840,-196 1826.18,-183.902 1820.31,-163.405 1817.83,-147.887"/>
<polygon fill="midnightblue" stroke="midnightblue" points="1821.26,-147.146 1816.55,-137.658 1814.31,-148.015 1821.26,-147.146"/>
</g>
<!-- Node39&#45;&gt;Node28 -->
<g id="edge126" class="edge"><title>Node39&#45;&gt;Node28</title>
<path fill="none" stroke="midnightblue" d="M2053.64,-290.481C2075.94,-276.534 2116.88,-251.422 2153,-232 2205.17,-203.943 2216.78,-192.67 2273,-174 2277.95,-172.357 2415.11,-146.182 2481.13,-133.624"/>
<polygon fill="midnightblue" stroke="midnightblue" points="2481.92,-137.037 2491.09,-131.731 2480.61,-130.161 2481.92,-137.037"/>
</g>
<!-- Node39&#45;&gt;Node37 -->
<g id="edge172" class="edge"><title>Node39&#45;&gt;Node37</title>
<path fill="none" stroke="midnightblue" d="M1977.35,-290.927C1927.16,-282.147 1853.61,-268.565 1790,-254 1788.75,-253.713 1787.48,-253.414 1786.19,-253.107"/>
<polygon fill="midnightblue" stroke="midnightblue" points="1786.83,-249.658 1776.28,-250.62 1785.12,-256.448 1786.83,-249.658"/>
</g>
<!-- Node40 -->
<g id="node104" class="node"><title>Node40</title>
<a xlink:href="_particle_type_8h.html" target="_top" xlink:title="base/ParticleType.h">
<polygon fill="white" stroke="black" points="1870,-232.5 1870,-253.5 1974,-253.5 1974,-232.5 1870,-232.5"/>
<text text-anchor="middle" x="1922" y="-240.5" font-family="Helvetica,sans-Serif" font-size="10.00">base/ParticleType.h</text>
</a>
</g>
<!-- Node39&#45;&gt;Node40 -->
<g id="edge128" class="edge"><title>Node39&#45;&gt;Node40</title>
<path fill="none" stroke="midnightblue" d="M2016.17,-290.497C1998.29,-281.479 1972.29,-268.365 1952.14,-258.201"/>
<polygon fill="midnightblue" stroke="midnightblue" points="1953.56,-254.999 1943.06,-253.621 1950.41,-261.249 1953.56,-254.999"/>
</g>
<!-- Node42 -->
<g id="node113" class="node"><title>Node42</title>
<a xlink:href="_candidate_8h.html" target="_top" xlink:title="analysis/data/Candidate.h">
<polygon fill="white" stroke="black" points="2382,-232.5 2382,-253.5 2512,-253.5 2512,-232.5 2382,-232.5"/>
<text text-anchor="middle" x="2447" y="-240.5" font-family="Helvetica,sans-Serif" font-size="10.00">analysis/data/Candidate.h</text>
</a>
</g>
<!-- Node39&#45;&gt;Node42 -->
<g id="edge142" class="edge"><title>Node39&#45;&gt;Node42</title>
<path fill="none" stroke="midnightblue" d="M2096.5,-292.834C2161.58,-283.868 2269.24,-268.931 2371.73,-254.175"/>
<polygon fill="midnightblue" stroke="midnightblue" points="2372.24,-257.639 2381.63,-252.748 2371.24,-250.71 2372.24,-257.639"/>
</g>
<!-- Node45 -->
<g id="node128" class="node"><title>Node45</title>
<polygon fill="white" stroke="#bfbfbf" points="2282,-174.5 2282,-195.5 2374,-195.5 2374,-174.5 2282,-174.5"/>
<text text-anchor="middle" x="2328" y="-182.5" font-family="Helvetica,sans-Serif" font-size="10.00">TLorentzVector.h</text>
</g>
<!-- Node39&#45;&gt;Node45 -->
<g id="edge166" class="edge"><title>Node39&#45;&gt;Node45</title>
<path fill="none" stroke="midnightblue" d="M2063.6,-290.398C2116.09,-269.471 2233.07,-222.841 2292.25,-199.252"/>
<polygon fill="midnightblue" stroke="midnightblue" points="2293.58,-202.489 2301.57,-195.535 2290.99,-195.987 2293.58,-202.489"/>
</g>
<!-- Node40&#45;&gt;Node3 -->
<g id="edge132" class="edge"><title>Node40&#45;&gt;Node3</title>
<path fill="none" stroke="midnightblue" d="M1869.7,-234.151C1790.73,-220.836 1636.34,-194.973 1505,-174 1098.49,-109.085 603.429,-34.5955 476.69,-15.5945"/>
<polygon fill="midnightblue" stroke="midnightblue" points="476.966,-12.0969 466.558,-14.0761 475.929,-19.0196 476.966,-12.0969"/>
</g>
<!-- Node40&#45;&gt;Node8 -->
<g id="edge140" class="edge"><title>Node40&#45;&gt;Node8</title>
<path fill="none" stroke="midnightblue" d="M1869.79,-236.159C1812.27,-227.936 1724.05,-213.088 1695,-196 1625.19,-154.941 1642.97,-103.536 1576,-58 1544.38,-36.5005 1501.92,-23.8552 1473.12,-17.1941"/>
<polygon fill="midnightblue" stroke="midnightblue" points="1473.69,-13.7364 1463.17,-15.0054 1472.19,-20.5728 1473.69,-13.7364"/>
</g>
<!-- Node40&#45;&gt;Node9 -->
<g id="edge134" class="edge"><title>Node40&#45;&gt;Node9</title>
<path fill="none" stroke="midnightblue" d="M1974.11,-241.504C2060.16,-238.186 2236.98,-227.78 2383,-196 2539.83,-161.866 2574.35,-135.379 2725,-80 2773.65,-62.116 2829.22,-39.7314 2864.21,-25.3973"/>
<polygon fill="midnightblue" stroke="midnightblue" points="2865.59,-28.6151 2873.51,-21.5782 2862.93,-22.14 2865.59,-28.6151"/>
</g>
<!-- Node40&#45;&gt;Node20 -->
<g id="edge136" class="edge"><title>Node40&#45;&gt;Node20</title>
<path fill="none" stroke="midnightblue" d="M1869.62,-238.439C1755.64,-228.458 1491.01,-204.971 1430.68,-195.265"/>
<polygon fill="midnightblue" stroke="midnightblue" points="1431.14,-191.788 1420.65,-193.311 1429.8,-198.659 1431.14,-191.788"/>
</g>
<!-- Node40&#45;&gt;Node28 -->
<g id="edge130" class="edge"><title>Node40&#45;&gt;Node28</title>
<path fill="none" stroke="midnightblue" d="M1974,-233.761C2022.17,-224.95 2095.7,-210.854 2159,-196 2195.32,-187.478 2203.55,-181.938 2240,-174 2335.95,-153.103 2361.31,-155.15 2458,-138 2465.65,-136.643 2473.85,-135.126 2481.61,-133.662"/>
<polygon fill="midnightblue" stroke="midnightblue" points="2482.3,-137.093 2491.47,-131.786 2480.99,-130.217 2482.3,-137.093"/>
</g>
<!-- Node41 -->
<g id="node110" class="node"><title>Node41</title>
<polygon fill="white" stroke="#bfbfbf" points="1703.5,-174.5 1703.5,-195.5 1750.5,-195.5 1750.5,-174.5 1703.5,-174.5"/>
<text text-anchor="middle" x="1727" y="-182.5" font-family="Helvetica,sans-Serif" font-size="10.00">iterator</text>
</g>
<!-- Node40&#45;&gt;Node41 -->
<g id="edge138" class="edge"><title>Node40&#45;&gt;Node41</title>
<path fill="none" stroke="midnightblue" d="M1886.69,-232.497C1850.83,-221.83 1795.7,-205.434 1760.5,-194.965"/>
<polygon fill="midnightblue" stroke="midnightblue" points="1761.28,-191.546 1750.7,-192.05 1759.29,-198.255 1761.28,-191.546"/>
</g>
<!-- Node42&#45;&gt;Node4 -->
<g id="edge162" class="edge"><title>Node42&#45;&gt;Node4</title>
<path fill="none" stroke="midnightblue" d="M2381.68,-232.851C2378.75,-232.535 2375.85,-232.248 2373,-232 1765.31,-179.058 1610.44,-221.913 1001,-196 948.656,-193.774 888.138,-189.994 850.463,-187.497"/>
<polygon fill="midnightblue" stroke="midnightblue" points="850.214,-183.972 840.003,-186.797 849.747,-190.957 850.214,-183.972"/>
</g>
<!-- Node42&#45;&gt;Node6 -->
<g id="edge148" class="edge"><title>Node42&#45;&gt;Node6</title>
<path fill="none" stroke="midnightblue" d="M2441.9,-232.284C2437.47,-222.83 2431.01,-208.628 2426,-196 2419.59,-179.84 2413.17,-161.205 2408.58,-147.378"/>
<polygon fill="midnightblue" stroke="midnightblue" points="2411.9,-146.274 2405.46,-137.861 2405.25,-148.454 2411.9,-146.274"/>
</g>
<!-- Node42&#45;&gt;Node7 -->
<g id="edge144" class="edge"><title>Node42&#45;&gt;Node7</title>
<path fill="none" stroke="midnightblue" d="M2512.04,-240.782C2629.76,-236.106 2868.4,-223.337 2894,-196 2920.77,-167.423 2912.83,-117.445 2905.44,-89.4635"/>
<polygon fill="midnightblue" stroke="midnightblue" points="2908.73,-88.233 2902.61,-79.5848 2902,-90.1622 2908.73,-88.233"/>
</g>
<!-- Node42&#45;&gt;Node8 -->
<g id="edge164" class="edge"><title>Node42&#45;&gt;Node8</title>
<path fill="none" stroke="midnightblue" d="M2381.65,-233.125C2378.73,-232.734 2375.84,-232.357 2373,-232 2218.73,-212.564 2174.09,-240.164 2025,-196 2004.42,-189.903 2001.52,-182.932 1982,-174 1919.63,-145.465 1904.07,-137.68 1839,-116 1705.47,-71.5062 1541.81,-33.3229 1473.43,-18.0781"/>
<polygon fill="midnightblue" stroke="midnightblue" points="1473.82,-14.5781 1463.29,-15.8309 1472.3,-21.4122 1473.82,-14.5781"/>
</g>
<!-- Node42&#45;&gt;Node9 -->
<g id="edge160" class="edge"><title>Node42&#45;&gt;Node9</title>
<path fill="none" stroke="midnightblue" d="M2512.38,-240.36C2633.54,-234.899 2883.46,-220.758 2914,-196 2963.33,-156.014 2976.77,-116.034 2951,-58 2945.6,-45.8358 2935.32,-35.4865 2925.32,-27.6217"/>
<polygon fill="midnightblue" stroke="midnightblue" points="2927.23,-24.6872 2917.1,-21.6143 2923.11,-30.3395 2927.23,-24.6872"/>
</g>
<!-- Node42&#45;&gt;Node28 -->
<g id="edge146" class="edge"><title>Node42&#45;&gt;Node28</title>
<path fill="none" stroke="midnightblue" d="M2460.02,-232.216C2469.96,-223.377 2483.39,-210.068 2492,-196 2501.18,-181 2507.46,-162.007 2511.28,-147.747"/>
<polygon fill="midnightblue" stroke="midnightblue" points="2514.71,-148.459 2513.74,-137.909 2507.92,-146.764 2514.71,-148.459"/>
</g>
<!-- Node43 -->
<g id="node118" class="node"><title>Node43</title>
<a xlink:href="_cluster_8h.html" target="_top" xlink:title="analysis/data/Cluster.h">
<polygon fill="white" stroke="black" points="2033.5,-174.5 2033.5,-195.5 2150.5,-195.5 2150.5,-174.5 2033.5,-174.5"/>
<text text-anchor="middle" x="2092" y="-182.5" font-family="Helvetica,sans-Serif" font-size="10.00">analysis/data/Cluster.h</text>
</a>
</g>
<!-- Node42&#45;&gt;Node43 -->
<g id="edge150" class="edge"><title>Node42&#45;&gt;Node43</title>
<path fill="none" stroke="midnightblue" d="M2382.71,-232.497C2319.93,-222.24 2224.73,-206.686 2160.54,-196.198"/>
<polygon fill="midnightblue" stroke="midnightblue" points="2160.94,-192.718 2150.51,-194.559 2159.82,-199.626 2160.94,-192.718"/>
</g>
<!-- Node43&#45;&gt;Node6 -->
<g id="edge152" class="edge"><title>Node43&#45;&gt;Node6</title>
<path fill="none" stroke="midnightblue" d="M2148.14,-174.497C2203.66,-164.109 2288.22,-148.288 2344.28,-137.799"/>
<polygon fill="midnightblue" stroke="midnightblue" points="2345.22,-141.185 2354.4,-135.905 2343.93,-134.304 2345.22,-141.185"/>
</g>
<!-- Node43&#45;&gt;Node10 -->
<g id="edge156" class="edge"><title>Node43&#45;&gt;Node10</title>
<path fill="none" stroke="midnightblue" d="M2093.25,-174.048C2095.26,-159.847 2100.13,-134.686 2111,-116 2117.55,-104.738 2127.47,-94.2661 2136.51,-86.0791"/>
<polygon fill="midnightblue" stroke="midnightblue" points="2138.84,-88.6942 2144.12,-79.5101 2134.26,-83.3955 2138.84,-88.6942"/>
</g>
<!-- Node43&#45;&gt;Node17 -->
<g id="edge154" class="edge"><title>Node43&#45;&gt;Node17</title>
<path fill="none" stroke="midnightblue" d="M2042.02,-174.497C1982.61,-162.011 1885.83,-141.675 1840.67,-132.185"/>
<polygon fill="midnightblue" stroke="midnightblue" points="1841.11,-128.7 1830.6,-130.069 1839.67,-135.551 1841.11,-128.7"/>
</g>
<!-- Node44 -->
<g id="node123" class="node"><title>Node44</title>
<a xlink:href="enumfield_8h.html" target="_top" xlink:title="base/enumfield.h">
<polygon fill="white" stroke="black" points="2119.5,-116.5 2119.5,-137.5 2210.5,-137.5 2210.5,-116.5 2119.5,-116.5"/>
<text text-anchor="middle" x="2165" y="-124.5" font-family="Helvetica,sans-Serif" font-size="10.00">base/enumfield.h</text>
</a>
</g>
<!-- Node43&#45;&gt;Node44 -->
<g id="edge158" class="edge"><title>Node43&#45;&gt;Node44</title>
<path fill="none" stroke="midnightblue" d="M2105.39,-174.362C2116.09,-165.859 2131.3,-153.779 2143.67,-143.947"/>
<polygon fill="midnightblue" stroke="midnightblue" points="2146.04,-146.532 2151.7,-137.571 2141.69,-141.051 2146.04,-146.532"/>
</g>
<!-- Node46&#45;&gt;Node4 -->
<g id="edge250" class="edge"><title>Node46&#45;&gt;Node4</title>
<path fill="none" stroke="midnightblue" d="M1977.19,-363.631C1801.4,-356.039 1260.48,-331.666 1086,-312 932.364,-294.684 842.796,-372.087 743,-254 726.202,-234.123 754.109,-213.622 779.717,-200.188"/>
<polygon fill="midnightblue" stroke="midnightblue" points="781.577,-203.172 788.96,-195.573 778.45,-196.909 781.577,-203.172"/>
</g>
<!-- Node46&#45;&gt;Node7 -->
<g id="edge246" class="edge"><title>Node46&#45;&gt;Node7</title>
<path fill="none" stroke="midnightblue" d="M2088.82,-358.443C2114.44,-355.071 2145.24,-351.156 2173,-348 2464.77,-314.822 2550.66,-353.345 2827,-254 2878.27,-235.568 2904.66,-241.257 2935,-196 2954.85,-166.383 2953.72,-149.311 2941,-116 2936.79,-104.959 2928.65,-94.8684 2920.66,-86.8919"/>
<polygon fill="midnightblue" stroke="midnightblue" points="2922.57,-83.8937 2912.86,-79.6631 2917.81,-89.0277 2922.57,-83.8937"/>
</g>
<!-- Node46&#45;&gt;Node8 -->
<g id="edge248" class="edge"><title>Node46&#45;&gt;Node8</title>
<path fill="none" stroke="midnightblue" d="M1977.36,-363.557C1793.43,-355.34 1214.52,-328.307 1178,-312 1137.66,-293.987 1098.42,-271.091 1119,-232 1181.65,-113.019 1340.47,-45.7535 1408.87,-21.4818"/>
<polygon fill="midnightblue" stroke="midnightblue" points="1410.36,-24.6684 1418.66,-18.0825 1408.06,-18.0555 1410.36,-24.6684"/>
</g>
<!-- Node46&#45;&gt;Node20 -->
<g id="edge252" class="edge"><title>Node46&#45;&gt;Node20</title>
<path fill="none" stroke="midnightblue" d="M2001.57,-355.442C1929.86,-331.559 1748.39,-272.334 1594,-232 1524.5,-213.843 1502.42,-218.277 1430.71,-196.161"/>
<polygon fill="midnightblue" stroke="midnightblue" points="1431.33,-192.687 1420.74,-193.018 1429.22,-199.363 1431.33,-192.687"/>
</g>
<!-- Node46&#45;&gt;Node28 -->
<g id="edge244" class="edge"><title>Node46&#45;&gt;Node28</title>
<path fill="none" stroke="midnightblue" d="M2068.92,-355.413C2079.5,-352.627 2091.14,-349.879 2102,-348 2192.12,-332.402 2437.48,-365.029 2512,-312 2563.14,-275.609 2557.69,-234.773 2542,-174 2539.46,-164.16 2534.37,-154.18 2529.36,-145.962"/>
<polygon fill="midnightblue" stroke="midnightblue" points="2532.27,-144.011 2523.88,-137.535 2526.4,-147.827 2532.27,-144.011"/>
</g>
<!-- Node46&#45;&gt;Node39 -->
<g id="edge178" class="edge"><title>Node46&#45;&gt;Node39</title>
<path fill="none" stroke="midnightblue" d="M2033.66,-355.267C2034.22,-346.18 2035.04,-332.892 2035.72,-321.74"/>
<polygon fill="midnightblue" stroke="midnightblue" points="2039.23,-321.73 2036.35,-311.534 2032.24,-321.3 2039.23,-321.73"/>
</g>
<!-- Node46&#45;&gt;Node42 -->
<g id="edge180" class="edge"><title>Node46&#45;&gt;Node42</title>
<path fill="none" stroke="midnightblue" d="M2068.66,-355.407C2143.95,-333.036 2319.04,-281.018 2401.94,-256.388"/>
<polygon fill="midnightblue" stroke="midnightblue" points="2402.99,-259.727 2411.58,-253.524 2400.99,-253.017 2402.99,-259.727"/>
</g>
<!-- Node47 -->
<g id="node138" class="node"><title>Node47</title>
<a xlink:href="_tagger_hit_8h.html" target="_top" xlink:title="TaggerHit.h">
<polygon fill="white" stroke="black" points="2296,-232.5 2296,-253.5 2364,-253.5 2364,-232.5 2296,-232.5"/>
<text text-anchor="middle" x="2330" y="-240.5" font-family="Helvetica,sans-Serif" font-size="10.00">TaggerHit.h</text>
</a>
</g>
<!-- Node46&#45;&gt;Node47 -->
<g id="edge182" class="edge"><title>Node46&#45;&gt;Node47</title>
<path fill="none" stroke="midnightblue" d="M2058.58,-355.407C2111.76,-333.382 2234.33,-282.62 2294.87,-257.55"/>
<polygon fill="midnightblue" stroke="midnightblue" points="2296.48,-260.671 2304.38,-253.612 2293.8,-254.204 2296.48,-260.671"/>
</g>
<!-- Node48 -->
<g id="node145" class="node"><title>Node48</title>
<a xlink:href="_trigger_info_8h.html" target="_top" xlink:title="TriggerInfo.h">
<polygon fill="white" stroke="black" points="2432.5,-290.5 2432.5,-311.5 2503.5,-311.5 2503.5,-290.5 2432.5,-290.5"/>
<text text-anchor="middle" x="2468" y="-298.5" font-family="Helvetica,sans-Serif" font-size="10.00">TriggerInfo.h</text>
</a>
</g>
<!-- Node46&#45;&gt;Node48 -->
<g id="edge194" class="edge"><title>Node46&#45;&gt;Node48</title>
<path fill="none" stroke="midnightblue" d="M2070.04,-355.409C2080.33,-352.722 2091.55,-350.026 2102,-348 2132.85,-342.021 2331.37,-317.603 2422.45,-306.519"/>
<polygon fill="midnightblue" stroke="midnightblue" points="2422.98,-309.98 2432.49,-305.298 2422.14,-303.031 2422.98,-309.98"/>
</g>
<!-- Node47&#45;&gt;Node4 -->
<g id="edge186" class="edge"><title>Node47&#45;&gt;Node4</title>
<path fill="none" stroke="midnightblue" d="M2295.82,-241.9C2114.55,-236.05 1264.19,-208.393 1001,-196 948.667,-193.536 888.146,-189.817 850.467,-187.398"/>
<polygon fill="midnightblue" stroke="midnightblue" points="850.211,-183.875 840.006,-186.723 849.76,-190.86 850.211,-183.875"/>
</g>
<!-- Node47&#45;&gt;Node7 -->
<g id="edge190" class="edge"><title>Node47&#45;&gt;Node7</title>
<path fill="none" stroke="midnightblue" d="M2364.15,-233.683C2367.13,-233.047 2370.11,-232.472 2373,-232 2426.66,-223.228 2818.62,-230.054 2861,-196 2892.99,-170.294 2898.85,-118.776 2899.46,-89.8797"/>
<polygon fill="midnightblue" stroke="midnightblue" points="2902.96,-89.6867 2899.48,-79.6817 2895.96,-89.6767 2902.96,-89.6867"/>
</g>
<!-- Node47&#45;&gt;Node17 -->
<g id="edge184" class="edge"><title>Node47&#45;&gt;Node17</title>
<path fill="none" stroke="midnightblue" d="M2296,-234.758C2291.31,-233.754 2286.55,-232.801 2282,-232 2154.09,-209.465 2116.94,-231.472 1992,-196 1969.42,-189.591 1965.7,-182.94 1944,-174 1908.41,-159.336 1866.39,-144.339 1840.47,-135.348"/>
<polygon fill="midnightblue" stroke="midnightblue" points="1841.33,-131.941 1830.73,-131.99 1839.04,-138.559 1841.33,-131.941"/>
</g>
<!-- Node47&#45;&gt;Node28 -->
<g id="edge188" class="edge"><title>Node47&#45;&gt;Node28</title>
<path fill="none" stroke="midnightblue" d="M2347.17,-232.295C2380.05,-211.785 2452.09,-166.859 2490.57,-142.857"/>
<polygon fill="midnightblue" stroke="midnightblue" points="2492.51,-145.773 2499.15,-137.512 2488.81,-139.834 2492.51,-145.773"/>
</g>
<!-- Node47&#45;&gt;Node45 -->
<g id="edge192" class="edge"><title>Node47&#45;&gt;Node45</title>
<path fill="none" stroke="midnightblue" d="M2329.63,-232.362C2329.38,-224.922 2329.03,-214.743 2328.71,-205.728"/>
<polygon fill="midnightblue" stroke="midnightblue" points="2332.21,-205.444 2328.36,-195.571 2325.21,-205.685 2332.21,-205.444"/>
</g>
<!-- Node48&#45;&gt;Node4 -->
<g id="edge242" class="edge"><title>Node48&#45;&gt;Node4</title>
<path fill="none" stroke="midnightblue" d="M2432.31,-299.85C2256.15,-294.11 1485.71,-268.28 1437,-254 1418.27,-248.51 1417.63,-237.813 1399,-232 1372.71,-223.797 973.59,-195.928 850.119,-187.46"/>
<polygon fill="midnightblue" stroke="midnightblue" points="850.257,-183.962 840.041,-186.77 849.779,-190.945 850.257,-183.962"/>
</g>
<!-- Node48&#45;&gt;Node7 -->
<g id="edge198" class="edge"><title>Node48&#45;&gt;Node7</title>
<path fill="none" stroke="midnightblue" d="M2503.81,-297.542C2599.36,-287.574 2856.93,-255.621 2914,-196 2938.82,-170.072 2933.97,-150.751 2925,-116 2922.46,-106.16 2917.37,-96.1798 2912.36,-87.9624"/>
<polygon fill="midnightblue" stroke="midnightblue" points="2915.27,-86.0111 2906.88,-79.5351 2909.4,-89.8267 2915.27,-86.0111"/>
</g>
<!-- Node48&#45;&gt;Node17 -->
<g id="edge240" class="edge"><title>Node48&#45;&gt;Node17</title>
<path fill="none" stroke="midnightblue" d="M2432.25,-291.843C2395.72,-282.455 2337.36,-267.377 2287,-254 2250.95,-244.423 2242.55,-239.443 2206,-232 2090.82,-208.548 2055.17,-234.162 1944,-196 1925.54,-189.664 1923.1,-183.408 1906,-174 1883.75,-161.754 1858.03,-148.403 1839.8,-139.07"/>
<polygon fill="midnightblue" stroke="midnightblue" points="1841.26,-135.885 1830.76,-134.458 1838.07,-142.12 1841.26,-135.885"/>
</g>
<!-- Node48&#45;&gt;Node28 -->
<g id="edge196" class="edge"><title>Node48&#45;&gt;Node28</title>
<path fill="none" stroke="midnightblue" d="M2486.43,-290.467C2498.75,-282.287 2513.94,-269.702 2521,-254 2536.6,-219.311 2528.93,-173.757 2522.25,-147.697"/>
<polygon fill="midnightblue" stroke="midnightblue" points="2525.55,-146.518 2519.52,-137.811 2518.8,-148.382 2525.55,-146.518"/>
</g>
<!-- Node49 -->
<g id="node149" class="node"><title>Node49</title>
<a xlink:href="_t_data_record_8h.html" target="_top" xlink:title="tree/TDataRecord.h">
<polygon fill="white" stroke="black" points="3349.5,-232.5 3349.5,-253.5 3452.5,-253.5 3452.5,-232.5 3349.5,-232.5"/>
<text text-anchor="middle" x="3401" y="-240.5" font-family="Helvetica,sans-Serif" font-size="10.00">tree/TDataRecord.h</text>
</a>
</g>
<!-- Node48&#45;&gt;Node49 -->
<g id="edge200" class="edge"><title>Node48&#45;&gt;Node49</title>
<path fill="none" stroke="midnightblue" d="M2503.72,-298.78C2644.31,-290.04 3160.54,-257.948 3339.46,-246.826"/>
<polygon fill="midnightblue" stroke="midnightblue" points="3339.73,-250.316 3349.49,-246.202 3339.29,-243.329 3339.73,-250.316"/>
</g>
<!-- Node49&#45;&gt;Node33 -->
<g id="edge234" class="edge"><title>Node49&#45;&gt;Node33</title>
<path fill="none" stroke="midnightblue" d="M3384.48,-232.295C3352.97,-211.871 3284.09,-167.238 3246.94,-143.162"/>
<polygon fill="midnightblue" stroke="midnightblue" points="3248.52,-140.013 3238.22,-137.512 3244.71,-145.887 3248.52,-140.013"/>
</g>
<!-- Node50 -->
<g id="node151" class="node"><title>Node50</title>
<a xlink:href="_t_i_d_8h.html" target="_top" xlink:title="TID.h">
<polygon fill="white" stroke="black" points="3380.5,-174.5 3380.5,-195.5 3421.5,-195.5 3421.5,-174.5 3380.5,-174.5"/>
<text text-anchor="middle" x="3401" y="-182.5" font-family="Helvetica,sans-Serif" font-size="10.00">TID.h</text>
</a>
</g>
<!-- Node49&#45;&gt;Node50 -->
<g id="edge202" class="edge"><title>Node49&#45;&gt;Node50</title>
<path fill="none" stroke="midnightblue" d="M3401,-232.362C3401,-224.922 3401,-214.743 3401,-205.728"/>
<polygon fill="midnightblue" stroke="midnightblue" points="3404.5,-205.571 3401,-195.571 3397.5,-205.571 3404.5,-205.571"/>
</g>
<!-- Node55 -->
<g id="node165" class="node"><title>Node55</title>
<polygon fill="white" stroke="#bfbfbf" points="3532.5,-58.5 3532.5,-79.5 3573.5,-79.5 3573.5,-58.5 3532.5,-58.5"/>
<text text-anchor="middle" x="3553" y="-66.5" font-family="Helvetica,sans-Serif" font-size="10.00">ctime</text>
</g>
<!-- Node49&#45;&gt;Node55 -->
<g id="edge238" class="edge"><title>Node49&#45;&gt;Node55</title>
<path fill="none" stroke="midnightblue" d="M3438.82,-232.377C3480.45,-218.4 3545.16,-189.368 3573,-138 3581.48,-122.348 3574.29,-102.7 3566.26,-88.3775"/>
<polygon fill="midnightblue" stroke="midnightblue" points="3569.23,-86.5276 3561.02,-79.8301 3563.27,-90.1853 3569.23,-86.5276"/>
</g>
<!-- Node57 -->
<g id="node172" class="node"><title>Node57</title>
<polygon fill="white" stroke="#bfbfbf" points="3514,-116.5 3514,-137.5 3564,-137.5 3564,-116.5 3514,-116.5"/>
<text text-anchor="middle" x="3539" y="-124.5" font-family="Helvetica,sans-Serif" font-size="10.00">iomanip</text>
</g>
<!-- Node49&#45;&gt;Node57 -->
<g id="edge236" class="edge"><title>Node49&#45;&gt;Node57</title>
<path fill="none" stroke="midnightblue" d="M3413.74,-232.295C3437.66,-212.182 3489.52,-168.59 3518.45,-144.275"/>
<polygon fill="midnightblue" stroke="midnightblue" points="3520.89,-146.793 3526.3,-137.679 3516.39,-141.435 3520.89,-146.793"/>
</g>
<!-- Node50&#45;&gt;Node7 -->
<g id="edge206" class="edge"><title>Node50&#45;&gt;Node7</title>
<path fill="none" stroke="midnightblue" d="M3393.73,-174.376C3382.25,-158.576 3358.3,-129.321 3330,-116 3264.22,-85.0441 3052.32,-74.0445 2952.26,-70.5098"/>
<polygon fill="midnightblue" stroke="midnightblue" points="2952.19,-67.0052 2942.07,-70.162 2951.95,-74.0011 2952.19,-67.0052"/>
</g>
<!-- Node50&#45;&gt;Node11 -->
<g id="edge226" class="edge"><title>Node50&#45;&gt;Node11</title>
<path fill="none" stroke="midnightblue" d="M3408.55,-174.24C3414.76,-164.989 3423.41,-151.106 3429,-138 3435.69,-122.307 3440.67,-103.6 3443.85,-89.6261"/>
<polygon fill="midnightblue" stroke="midnightblue" points="3447.33,-90.0942 3446.01,-79.5816 3440.48,-88.6212 3447.33,-90.0942"/>
</g>
<!-- Node50&#45;&gt;Node12 -->
<g id="edge228" class="edge"><title>Node50&#45;&gt;Node12</title>
<path fill="none" stroke="midnightblue" d="M3385.01,-174.275C3357.25,-155.739 3302.1,-119.356 3292,-116 3278.54,-111.526 2859.35,-81.302 2726.78,-71.8317"/>
<polygon fill="midnightblue" stroke="midnightblue" points="2726.88,-68.3299 2716.65,-71.1089 2726.38,-75.3121 2726.88,-68.3299"/>
</g>
<!-- Node50&#45;&gt;Node13 -->
<g id="edge222" class="edge"><title>Node50&#45;&gt;Node13</title>
<path fill="none" stroke="midnightblue" d="M3380.39,-177.402C3358.08,-168.883 3321.7,-154.13 3292,-138 3276.51,-129.587 3275.74,-121.522 3259,-116 3215.11,-101.524 2524.12,-76.6153 2346.41,-70.4243"/>
<polygon fill="midnightblue" stroke="midnightblue" points="2346.29,-66.918 2336.17,-70.0686 2346.05,-73.9138 2346.29,-66.918"/>
</g>
<!-- Node50&#45;&gt;Node33 -->
<g id="edge204" class="edge"><title>Node50&#45;&gt;Node33</title>
<path fill="none" stroke="midnightblue" d="M3380.47,-178.347C3351.17,-168.854 3296.86,-151.258 3260.09,-139.34"/>
<polygon fill="midnightblue" stroke="midnightblue" points="3260.8,-135.894 3250.21,-136.141 3258.65,-142.553 3260.8,-135.894"/>
</g>
<!-- Node51 -->
<g id="node155" class="node"><title>Node51</title>
<a xlink:href="time_8h.html" target="_top" xlink:title="base/std_ext/time.h">
<polygon fill="white" stroke="black" points="3657.5,-116.5 3657.5,-137.5 3760.5,-137.5 3760.5,-116.5 3657.5,-116.5"/>
<text text-anchor="middle" x="3709" y="-124.5" font-family="Helvetica,sans-Serif" font-size="10.00">base/std_ext/time.h</text>
</a>
</g>
<!-- Node50&#45;&gt;Node51 -->
<g id="edge208" class="edge"><title>Node50&#45;&gt;Node51</title>
<path fill="none" stroke="midnightblue" d="M3421.69,-181.104C3467.2,-172.535 3577.5,-151.763 3647.43,-138.594"/>
<polygon fill="midnightblue" stroke="midnightblue" points="3648.27,-141.999 3657.45,-136.708 3646.97,-135.12 3648.27,-141.999"/>
</g>
<!-- Node50&#45;&gt;Node55 -->
<g id="edge232" class="edge"><title>Node50&#45;&gt;Node55</title>
<path fill="none" stroke="midnightblue" d="M3415.03,-174.295C3441.5,-154.096 3498.99,-110.216 3530.77,-85.9632"/>
<polygon fill="midnightblue" stroke="midnightblue" points="3533.18,-88.5283 3539.01,-79.6792 3528.93,-82.9636 3533.18,-88.5283"/>
</g>
<!-- Node56 -->
<g id="node168" class="node"><title>Node56</title>
<polygon fill="white" stroke="#bfbfbf" points="3382,-116.5 3382,-137.5 3420,-137.5 3420,-116.5 3382,-116.5"/>
<text text-anchor="middle" x="3401" y="-124.5" font-family="Helvetica,sans-Serif" font-size="10.00">tuple</text>
</g>
<!-- Node50&#45;&gt;Node56 -->
<g id="edge224" class="edge"><title>Node50&#45;&gt;Node56</title>
<path fill="none" stroke="midnightblue" d="M3401,-174.362C3401,-166.922 3401,-156.743 3401,-147.728"/>
<polygon fill="midnightblue" stroke="midnightblue" points="3404.5,-147.571 3401,-137.571 3397.5,-147.571 3404.5,-147.571"/>
</g>
<!-- Node50&#45;&gt;Node57 -->
<g id="edge230" class="edge"><title>Node50&#45;&gt;Node57</title>
<path fill="none" stroke="midnightblue" d="M3421.66,-176.317C3443.53,-167.126 3478.42,-152.463 3504.47,-141.511"/>
<polygon fill="midnightblue" stroke="midnightblue" points="3506.12,-144.615 3513.98,-137.514 3503.41,-138.162 3506.12,-144.615"/>
</g>
<!-- Node52 -->
<g id="node157" class="node"><title>Node52</title>
<a xlink:href="string_8h.html" target="_top" xlink:title="base/std_ext/string.h">
<polygon fill="white" stroke="black" points="3655,-58.5 3655,-79.5 3763,-79.5 3763,-58.5 3655,-58.5"/>
<text text-anchor="middle" x="3709" y="-66.5" font-family="Helvetica,sans-Serif" font-size="10.00">base/std_ext/string.h</text>
</a>
</g>
<!-- Node51&#45;&gt;Node52 -->
<g id="edge210" class="edge"><title>Node51&#45;&gt;Node52</title>
<path fill="none" stroke="midnightblue" d="M3709,-116.362C3709,-108.922 3709,-98.7427 3709,-89.7276"/>
<polygon fill="midnightblue" stroke="midnightblue" points="3712.5,-89.5706 3709,-79.5707 3705.5,-89.5707 3712.5,-89.5706"/>
</g>
<!-- Node54 -->
<g id="node163" class="node"><title>Node54</title>
<polygon fill="white" stroke="#bfbfbf" points="3591,-58.5 3591,-79.5 3637,-79.5 3637,-58.5 3591,-58.5"/>
<text text-anchor="middle" x="3614" y="-66.5" font-family="Helvetica,sans-Serif" font-size="10.00">cstring</text>
</g>
<!-- Node51&#45;&gt;Node54 -->
<g id="edge218" class="edge"><title>Node51&#45;&gt;Node54</title>
<path fill="none" stroke="midnightblue" d="M3691.58,-116.362C3677.11,-107.532 3656.33,-94.844 3639.92,-84.8224"/>
<polygon fill="midnightblue" stroke="midnightblue" points="3641.67,-81.7943 3631.31,-79.5707 3638.03,-87.7688 3641.67,-81.7943"/>
</g>
<!-- Node51&#45;&gt;Node55 -->
<g id="edge220" class="edge"><title>Node51&#45;&gt;Node55</title>
<path fill="none" stroke="midnightblue" d="M3680.23,-116.426C3656.48,-107.685 3621.66,-94.8292 3583.39,-80.5044"/>
<polygon fill="midnightblue" stroke="midnightblue" points="3584.18,-77.0634 3573.59,-76.8325 3581.72,-83.6184 3584.18,-77.0634"/>
</g>
<!-- Node52&#45;&gt;Node3 -->
<g id="edge212" class="edge"><title>Node52&#45;&gt;Node3</title>
<path fill="none" stroke="midnightblue" d="M3654.78,-58.9719C3651.81,-58.5992 3648.87,-58.2703 3646,-58 3562.67,-50.1632 799.961,-15.4245 476.763,-11.3838"/>
<polygon fill="midnightblue" stroke="midnightblue" points="476.745,-7.88343 466.702,-11.2581 476.657,-14.8829 476.745,-7.88343"/>
</g>
<!-- Node52&#45;&gt;Node27 -->
<g id="edge216" class="edge"><title>Node52&#45;&gt;Node27</title>
<path fill="none" stroke="midnightblue" d="M3654.71,-59.4722C3651.77,-58.9704 3648.85,-58.4769 3646,-58 3554.83,-42.7288 3447.52,-25.7748 3391.48,-16.9996"/>
<polygon fill="midnightblue" stroke="midnightblue" points="3391.73,-13.4953 3381.31,-15.4075 3390.64,-20.4111 3391.73,-13.4953"/>
</g>
<!-- Node53 -->
<g id="node160" class="node"><title>Node53</title>
<polygon fill="white" stroke="#bfbfbf" points="3683,-0.5 3683,-21.5 3735,-21.5 3735,-0.5 3683,-0.5"/>
<text text-anchor="middle" x="3709" y="-8.5" font-family="Helvetica,sans-Serif" font-size="10.00">sstream</text>
</g>
<!-- Node52&#45;&gt;Node53 -->
<g id="edge214" class="edge"><title>Node52&#45;&gt;Node53</title>
<path fill="none" stroke="midnightblue" d="M3709,-58.3619C3709,-50.9219 3709,-40.7427 3709,-31.7276"/>
<polygon fill="midnightblue" stroke="midnightblue" points="3712.5,-31.5706 3709,-21.5707 3705.5,-31.5707 3712.5,-31.5706"/>
</g>
<!-- Node58&#45;&gt;Node8 -->
<g id="edge256" class="edge"><title>Node58&#45;&gt;Node8</title>
<path fill="none" stroke="midnightblue" d="M1292.51,-355.422C1281.6,-352.88 1269.89,-350.251 1259,-348 1170.55,-329.714 1140.34,-351.247 1059,-312 1023.83,-295.031 1009.1,-289.578 993,-254 989.286,-245.791 988.205,-210.66 995,-174 1006.28,-113.156 1016.56,-85.4932 1072,-58 1130.99,-28.7463 1330.12,-16.276 1408.71,-12.4124"/>
<polygon fill="midnightblue" stroke="midnightblue" points="1409.15,-15.8954 1418.97,-11.9235 1408.82,-8.90336 1409.15,-15.8954"/>
</g>
<!-- Node59&#45;&gt;Node3 -->
<g id="edge280" class="edge"><title>Node59&#45;&gt;Node3</title>
<path fill="none" stroke="midnightblue" d="M2181.34,-357.255C2155.54,-353.76 2124.82,-350.078 2097,-348 1762.72,-323.036 921.357,-355.618 589,-312 498.419,-300.112 198,-276.357 198,-185 198,-185 198,-185 198,-127 198,-79.5123 349.081,-35.4872 415.402,-18.4487"/>
<polygon fill="midnightblue" stroke="midnightblue" points="416.446,-21.795 425.282,-15.9495 414.729,-15.0087 416.446,-21.795"/>
</g>
<!-- Node59&#45;&gt;Node17 -->
<g id="edge282" class="edge"><title>Node59&#45;&gt;Node17</title>
<path fill="none" stroke="midnightblue" d="M2236.09,-348.655C2228.49,-319.316 2208.78,-260.327 2168,-232 2071.47,-164.941 2014.47,-241.264 1906,-196 1877.58,-184.141 1850.29,-161.017 1833.36,-144.819"/>
<polygon fill="midnightblue" stroke="midnightblue" points="1835.51,-142.02 1825.92,-137.504 1830.6,-147.011 1835.51,-142.02"/>
</g>
<!-- Node59&#45;&gt;Node26 -->
<g id="edge272" class="edge"><title>Node59&#45;&gt;Node26</title>
<path fill="none" stroke="midnightblue" d="M2298.81,-363.926C2376.33,-359.832 2516.2,-347.718 2630,-312 2684.24,-294.977 2698.12,-287.568 2744,-254 2763.97,-239.388 2783.45,-218.782 2796.4,-203.897"/>
<polygon fill="midnightblue" stroke="midnightblue" points="2799.41,-205.764 2803.23,-195.883 2794.08,-201.225 2799.41,-205.764"/>
</g>
<!-- Node60 -->
<g id="node197" class="node"><title>Node60</title>
<a xlink:href="_t_header_info_8h.html" target="_top" xlink:title="tree/THeaderInfo.h">
<polygon fill="white" stroke="black" points="3352,-290.5 3352,-311.5 3450,-311.5 3450,-290.5 3352,-290.5"/>
<text text-anchor="middle" x="3401" y="-298.5" font-family="Helvetica,sans-Serif" font-size="10.00">tree/THeaderInfo.h</text>
</a>
</g>
<!-- Node59&#45;&gt;Node60 -->
<g id="edge274" class="edge"><title>Node59&#45;&gt;Node60</title>
<path fill="none" stroke="midnightblue" d="M2298.77,-362.71C2497.35,-351.592 3142.07,-315.496 3341.6,-304.326"/>
<polygon fill="midnightblue" stroke="midnightblue" points="3342.09,-307.804 3351.87,-303.75 3341.69,-300.815 3342.09,-307.804"/>
</g>
<!-- Node60&#45;&gt;Node49 -->
<g id="edge276" class="edge"><title>Node60&#45;&gt;Node49</title>
<path fill="none" stroke="midnightblue" d="M3401,-290.362C3401,-282.922 3401,-272.743 3401,-263.728"/>
<polygon fill="midnightblue" stroke="midnightblue" points="3404.5,-263.571 3401,-253.571 3397.5,-263.571 3404.5,-263.571"/>
</g>
<!-- Node60&#45;&gt;Node51 -->
<g id="edge278" class="edge"><title>Node60&#45;&gt;Node51</title>
<path fill="none" stroke="midnightblue" d="M3419.8,-290.377C3472.1,-260.831 3619.5,-177.563 3681.24,-142.68"/>
<polygon fill="midnightblue" stroke="midnightblue" points="3683.07,-145.671 3690.05,-137.705 3679.62,-139.576 3683.07,-145.671"/>
</g>
</g>
</svg>
