<?xml version="1.0" encoding="UTF-8" standalone="no"?>
<!DOCTYPE svg PUBLIC "-//W3C//DTD SVG 1.1//EN"
 "http://www.w3.org/Graphics/SVG/1.1/DTD/svg11.dtd">
<!-- Generated by graphviz version 2.26.3 (20100126.1600)
 -->
<!-- Title: src/unpacker/detail/UnpackerAcqu_FileFormatMk2.h Pages: 1 -->
<svg width="3865pt" height="754pt"
 viewBox="0.00 0.00 3864.60 754.00" xmlns="http://www.w3.org/2000/svg" xmlns:xlink="http://www.w3.org/1999/xlink">
<g id="graph1" class="graph" transform="scale(1 1) rotate(0) translate(4 750)">
<title>src/unpacker/detail/UnpackerAcqu_FileFormatMk2.h</title>
<polygon fill="white" stroke="white" points="-4,5 -4,-750 3861.6,-750 3861.6,5 -4,5"/>
<!-- Node1 -->
<g id="node1" class="node"><title>Node1</title>
<polygon fill="#bfbfbf" stroke="black" points="3061.5,-711 3061.5,-745 3224.5,-745 3224.5,-711 3061.5,-711"/>
<text text-anchor="start" x="3069.5" y="-732" font-family="Helvetica,sans-Serif" font-size="10.00">src/unpacker/detail</text>
<text text-anchor="middle" x="3143" y="-719" font-family="Helvetica,sans-Serif" font-size="10.00">/UnpackerAcqu_FileFormatMk2.h</text>
</g>
<!-- Node2 -->
<g id="node3" class="node"><title>Node2</title>
<a xlink:href="_unpacker_acqu__detail_8h.html" target="_top" xlink:title="UnpackerAcqu_detail.h">
<polygon fill="white" stroke="black" points="3084,-652.5 3084,-673.5 3202,-673.5 3202,-652.5 3084,-652.5"/>
<text text-anchor="middle" x="3143" y="-660.5" font-family="Helvetica,sans-Serif" font-size="10.00">UnpackerAcqu_detail.h</text>
</a>
</g>
<!-- Node1&#45;&gt;Node2 -->
<g id="edge2" class="edge"><title>Node1&#45;&gt;Node2</title>
<path fill="none" stroke="midnightblue" d="M3143,-710.922C3143,-702.67 3143,-692.692 3143,-683.982"/>
<polygon fill="midnightblue" stroke="midnightblue" points="3146.5,-683.852 3143,-673.852 3139.5,-683.852 3146.5,-683.852"/>
</g>
<!-- Node3 -->
<g id="node5" class="node"><title>Node3</title>
<a xlink:href="_t_unpacker_message_8h.html" target="_top" xlink:title="tree/TUnpackerMessage.h">
<polygon fill="white" stroke="black" points="305,-290.5 305,-311.5 437,-311.5 437,-290.5 305,-290.5"/>
<text text-anchor="middle" x="371" y="-298.5" font-family="Helvetica,sans-Serif" font-size="10.00">tree/TUnpackerMessage.h</text>
</a>
</g>
<!-- Node2&#45;&gt;Node3 -->
<g id="edge4" class="edge"><title>Node2&#45;&gt;Node3</title>
<path fill="none" stroke="midnightblue" d="M3083.84,-662.729C2707.1,-660.902 654.671,-649.442 527,-616 464.481,-599.624 399,-611.628 399,-547 399,-547 399,-547 399,-431 399,-391.406 386.434,-346.518 378.138,-321.199"/>
<polygon fill="midnightblue" stroke="midnightblue" points="381.416,-319.968 374.893,-311.619 374.786,-322.213 381.416,-319.968"/>
</g>
<!-- Node8 -->
<g id="node15" class="node"><title>Node8</title>
<polygon fill="white" stroke="#bfbfbf" points="2757,-0.5 2757,-21.5 2801,-21.5 2801,-0.5 2757,-0.5"/>
<text text-anchor="middle" x="2779" y="-8.5" font-family="Helvetica,sans-Serif" font-size="10.00">vector</text>
</g>
<!-- Node2&#45;&gt;Node8 -->
<g id="edge354" class="edge"><title>Node2&#45;&gt;Node8</title>
<path fill="none" stroke="midnightblue" d="M3202.24,-660.999C3347.23,-655.746 3711.67,-640.276 3761,-616 3797.99,-597.795 3823,-588.228 3823,-547 3823,-547 3823,-547 3823,-127 3823,-115.081 3962.19,-128.966 3671,-58 3503.05,-17.0699 2951.12,-11.7839 2811.38,-11.1012"/>
<polygon fill="midnightblue" stroke="midnightblue" points="2811.33,-7.60107 2801.31,-11.0567 2811.3,-14.601 2811.33,-7.60107"/>
</g>
<!-- Node12 -->
<g id="node23" class="node"><title>Node12</title>
<polygon fill="white" stroke="#bfbfbf" points="2380.5,-0.5 2380.5,-21.5 2421.5,-21.5 2421.5,-0.5 2380.5,-0.5"/>
<text text-anchor="middle" x="2401" y="-8.5" font-family="Helvetica,sans-Serif" font-size="10.00">string</text>
</g>
<!-- Node2&#45;&gt;Node12 -->
<g id="edge352" class="edge"><title>Node2&#45;&gt;Node12</title>
<path fill="none" stroke="midnightblue" d="M3202.01,-657.849C3354,-643.795 3747,-602.124 3747,-547 3747,-547 3747,-547 3747,-301 3747,-168.091 3495.26,-179.429 3471,-174 3064.76,-83.0668 2560.3,-27.4471 2431.86,-14.1219"/>
<polygon fill="midnightblue" stroke="midnightblue" points="2431.9,-10.6081 2421.6,-13.0647 2431.18,-17.5713 2431.9,-10.6081"/>
</g>
<!-- Node16 -->
<g id="node31" class="node"><title>Node16</title>
<polygon fill="white" stroke="#bfbfbf" points="689.5,-58.5 689.5,-79.5 730.5,-79.5 730.5,-58.5 689.5,-58.5"/>
<text text-anchor="middle" x="710" y="-66.5" font-family="Helvetica,sans-Serif" font-size="10.00">ctime</text>
</g>
<!-- Node2&#45;&gt;Node16 -->
<g id="edge346" class="edge"><title>Node2&#45;&gt;Node16</title>
<path fill="none" stroke="midnightblue" d="M3083.84,-662.25C2798.78,-658.533 1564.97,-641.253 1181,-616 1038.26,-606.612 541,-690.046 541,-547 541,-547 541,-547 541,-366 541,-254.817 481.018,-203.196 550,-116 585.56,-71.0506 619.924,-95.8725 679.678,-79.972"/>
<polygon fill="midnightblue" stroke="midnightblue" points="680.903,-83.2593 689.49,-77.0536 678.907,-76.5498 680.903,-83.2593"/>
</g>
<!-- Node19 -->
<g id="node37" class="node"><title>Node19</title>
<polygon fill="white" stroke="#bfbfbf" points="626,-58.5 626,-79.5 672,-79.5 672,-58.5 626,-58.5"/>
<text text-anchor="middle" x="649" y="-66.5" font-family="Helvetica,sans-Serif" font-size="10.00">cstdint</text>
</g>
<!-- Node2&#45;&gt;Node19 -->
<g id="edge344" class="edge"><title>Node2&#45;&gt;Node19</title>
<path fill="none" stroke="midnightblue" d="M3083.99,-662.69C2698.95,-660.581 555.924,-647.458 422,-616 352.522,-599.68 277,-618.369 277,-547 277,-547 277,-547 277,-366 277,-232.131 329.802,-184.192 445,-116 509.452,-77.8474 539.219,-98.8317 615.621,-80.0289"/>
<polygon fill="midnightblue" stroke="midnightblue" points="616.901,-83.3117 625.686,-77.3902 615.126,-76.5405 616.901,-83.3117"/>
</g>
<!-- Node30 -->
<g id="node68" class="node"><title>Node30</title>
<a xlink:href="_unpacker_acqu_8h.html" target="_top" xlink:title="UnpackerAcqu.h">
<polygon fill="white" stroke="black" points="3098.5,-594.5 3098.5,-615.5 3187.5,-615.5 3187.5,-594.5 3098.5,-594.5"/>
<text text-anchor="middle" x="3143" y="-602.5" font-family="Helvetica,sans-Serif" font-size="10.00">UnpackerAcqu.h</text>
</a>
</g>
<!-- Node2&#45;&gt;Node30 -->
<g id="edge76" class="edge"><title>Node2&#45;&gt;Node30</title>
<path fill="none" stroke="midnightblue" d="M3143,-652.362C3143,-644.922 3143,-634.743 3143,-625.728"/>
<polygon fill="midnightblue" stroke="midnightblue" points="3146.5,-625.571 3143,-615.571 3139.5,-625.571 3146.5,-625.571"/>
</g>
<!-- Node32 -->
<g id="node73" class="node"><title>Node32</title>
<polygon fill="white" stroke="#bfbfbf" points="2910,-174.5 2910,-195.5 2962,-195.5 2962,-174.5 2910,-174.5"/>
<text text-anchor="middle" x="2936" y="-182.5" font-family="Helvetica,sans-Serif" font-size="10.00">memory</text>
</g>
<!-- Node2&#45;&gt;Node32 -->
<g id="edge350" class="edge"><title>Node2&#45;&gt;Node32</title>
<path fill="none" stroke="midnightblue" d="M3192.56,-652.497C3268.58,-635.269 3408.24,-598.814 3437,-558 3457.48,-528.936 3443.49,-512.958 3437,-478 3409.9,-332.027 3349.1,-286.519 3211,-232 3129.7,-199.902 3026.36,-189.702 2972.46,-186.477"/>
<polygon fill="midnightblue" stroke="midnightblue" points="2972.54,-182.976 2962.36,-185.921 2972.15,-189.966 2972.54,-182.976"/>
</g>
<!-- Node39 -->
<g id="node95" class="node"><title>Node39</title>
<polygon fill="white" stroke="#bfbfbf" points="1192.5,-116.5 1192.5,-137.5 1221.5,-137.5 1221.5,-116.5 1192.5,-116.5"/>
<text text-anchor="middle" x="1207" y="-124.5" font-family="Helvetica,sans-Serif" font-size="10.00">list</text>
</g>
<!-- Node2&#45;&gt;Node39 -->
<g id="edge348" class="edge"><title>Node2&#45;&gt;Node39</title>
<path fill="none" stroke="midnightblue" d="M3083.98,-661.675C2719.55,-653.308 791,-606.232 791,-547 791,-547 791,-547 791,-243 791,-161.308 1092.42,-134.641 1182.11,-128.514"/>
<polygon fill="midnightblue" stroke="midnightblue" points="1182.45,-132 1192.19,-127.852 1181.99,-125.015 1182.45,-132"/>
</g>
<!-- Node41 -->
<g id="node100" class="node"><title>Node41</title>
<a xlink:href="mapped__vectors_8h.html" target="_top" xlink:title="base/mapped_vectors.h">
<polygon fill="white" stroke="black" points="3476.5,-232.5 3476.5,-253.5 3597.5,-253.5 3597.5,-232.5 3476.5,-232.5"/>
<text text-anchor="middle" x="3537" y="-240.5" font-family="Helvetica,sans-Serif" font-size="10.00">base/mapped_vectors.h</text>
</a>
</g>
<!-- Node2&#45;&gt;Node41 -->
<g id="edge342" class="edge"><title>Node2&#45;&gt;Node41</title>
<path fill="none" stroke="midnightblue" d="M3202.41,-657.927C3312.48,-646.879 3537,-615.899 3537,-547 3537,-547 3537,-547 3537,-366 3537,-330.052 3537,-288.195 3537,-263.745"/>
<polygon fill="midnightblue" stroke="midnightblue" points="3540.5,-263.53 3537,-253.53 3533.5,-263.53 3540.5,-263.53"/>
</g>
<!-- Node4 -->
<g id="node7" class="node"><title>Node4</title>
<a xlink:href="_t_data_record_8h.html" target="_top" xlink:title="TDataRecord.h">
<polygon fill="white" stroke="black" points="625.5,-232.5 625.5,-253.5 708.5,-253.5 708.5,-232.5 625.5,-232.5"/>
<text text-anchor="middle" x="667" y="-240.5" font-family="Helvetica,sans-Serif" font-size="10.00">TDataRecord.h</text>
</a>
</g>
<!-- Node3&#45;&gt;Node4 -->
<g id="edge6" class="edge"><title>Node3&#45;&gt;Node4</title>
<path fill="none" stroke="midnightblue" d="M424.603,-290.497C478.757,-279.886 561.849,-263.604 615.308,-253.129"/>
<polygon fill="midnightblue" stroke="midnightblue" points="616.119,-256.536 625.26,-251.179 614.773,-249.667 616.119,-256.536"/>
</g>
<!-- Node22 -->
<g id="node47" class="node"><title>Node22</title>
<a xlink:href="_format_8h.html" target="_top" xlink:title="base/Format.h">
<polygon fill="white" stroke="black" points="245,-116.5 245,-137.5 325,-137.5 325,-116.5 245,-116.5"/>
<text text-anchor="middle" x="285" y="-124.5" font-family="Helvetica,sans-Serif" font-size="10.00">base/Format.h</text>
</a>
</g>
<!-- Node3&#45;&gt;Node22 -->
<g id="edge50" class="edge"><title>Node3&#45;&gt;Node22</title>
<path fill="none" stroke="midnightblue" d="M365.75,-290.377C351.749,-262.051 313.345,-184.349 295.005,-147.242"/>
<polygon fill="midnightblue" stroke="midnightblue" points="297.97,-145.342 290.401,-137.928 291.694,-148.443 297.97,-145.342"/>
</g>
<!-- Node5 -->
<g id="node9" class="node"><title>Node5</title>
<a xlink:href="_t_i_d_8h.html" target="_top" xlink:title="TID.h">
<polygon fill="white" stroke="black" points="646.5,-174.5 646.5,-195.5 687.5,-195.5 687.5,-174.5 646.5,-174.5"/>
<text text-anchor="middle" x="667" y="-182.5" font-family="Helvetica,sans-Serif" font-size="10.00">TID.h</text>
</a>
</g>
<!-- Node4&#45;&gt;Node5 -->
<g id="edge8" class="edge"><title>Node4&#45;&gt;Node5</title>
<path fill="none" stroke="midnightblue" d="M667,-232.362C667,-224.922 667,-214.743 667,-205.728"/>
<polygon fill="midnightblue" stroke="midnightblue" points="670.5,-205.571 667,-195.571 663.5,-205.571 670.5,-205.571"/>
</g>
<!-- Node6 -->
<g id="node11" class="node"><title>Node6</title>
<polygon fill="white" stroke="#bfbfbf" points="1005,-116.5 1005,-137.5 1061,-137.5 1061,-116.5 1005,-116.5"/>
<text text-anchor="middle" x="1033" y="-124.5" font-family="Helvetica,sans-Serif" font-size="10.00">Rtypes.h</text>
</g>
<!-- Node4&#45;&gt;Node6 -->
<g id="edge44" class="edge"><title>Node4&#45;&gt;Node6</title>
<path fill="none" stroke="midnightblue" d="M679.972,-232.438C699.665,-216.992 738.862,-188.506 777,-174 867.147,-139.713 896.7,-158.238 991,-138 992.244,-137.733 993.506,-137.454 994.779,-137.164"/>
<polygon fill="midnightblue" stroke="midnightblue" points="995.71,-140.54 1004.62,-134.802 994.075,-133.734 995.71,-140.54"/>
</g>
<!-- Node4&#45;&gt;Node16 -->
<g id="edge48" class="edge"><title>Node4&#45;&gt;Node16</title>
<path fill="none" stroke="midnightblue" d="M646.293,-232.434C607.077,-211.035 528.751,-160.796 562,-116 593.132,-74.0568 625.002,-95.1566 679.735,-80.0012"/>
<polygon fill="midnightblue" stroke="midnightblue" points="680.951,-83.2888 689.468,-76.9877 678.88,-76.602 680.951,-83.2888"/>
</g>
<!-- Node21 -->
<g id="node41" class="node"><title>Node21</title>
<polygon fill="white" stroke="#bfbfbf" points="571,-116.5 571,-137.5 621,-137.5 621,-116.5 571,-116.5"/>
<text text-anchor="middle" x="596" y="-124.5" font-family="Helvetica,sans-Serif" font-size="10.00">iomanip</text>
</g>
<!-- Node4&#45;&gt;Node21 -->
<g id="edge46" class="edge"><title>Node4&#45;&gt;Node21</title>
<path fill="none" stroke="midnightblue" d="M660.301,-232.184C654.411,-222.665 645.615,-208.426 638,-196 627.759,-179.29 616.183,-160.262 607.781,-146.426"/>
<polygon fill="midnightblue" stroke="midnightblue" points="610.708,-144.502 602.527,-137.769 604.724,-148.133 610.708,-144.502"/>
</g>
<!-- Node5&#45;&gt;Node6 -->
<g id="edge10" class="edge"><title>Node5&#45;&gt;Node6</title>
<path fill="none" stroke="midnightblue" d="M687.686,-177.62C692.042,-176.26 696.639,-174.967 701,-174 827.799,-145.884 863.455,-162.507 991,-138 992.249,-137.76 993.516,-137.504 994.793,-137.235"/>
<polygon fill="midnightblue" stroke="midnightblue" points="995.688,-140.62 1004.65,-134.97 994.12,-133.798 995.688,-140.62"/>
</g>
<!-- Node7 -->
<g id="node13" class="node"><title>Node7</title>
<a xlink:href="printable_8h.html" target="_top" xlink:title="base/printable.h">
<polygon fill="white" stroke="black" points="1512,-58.5 1512,-79.5 1598,-79.5 1598,-58.5 1512,-58.5"/>
<text text-anchor="middle" x="1555" y="-66.5" font-family="Helvetica,sans-Serif" font-size="10.00">base/printable.h</text>
</a>
</g>
<!-- Node5&#45;&gt;Node7 -->
<g id="edge12" class="edge"><title>Node5&#45;&gt;Node7</title>
<path fill="none" stroke="midnightblue" d="M687.769,-181.415C743.775,-171.703 895.172,-145.136 917,-138 938.54,-130.958 941.115,-121.884 963,-116 1014.25,-102.221 1365.97,-80.2053 1501.72,-72.114"/>
<polygon fill="midnightblue" stroke="midnightblue" points="1502.1,-75.5973 1511.88,-71.5103 1501.69,-68.6097 1502.1,-75.5973"/>
</g>
<!-- Node10 -->
<g id="node19" class="node"><title>Node10</title>
<a xlink:href="time_8h.html" target="_top" xlink:title="base/std_ext/time.h">
<polygon fill="white" stroke="black" points="770.5,-116.5 770.5,-137.5 873.5,-137.5 873.5,-116.5 770.5,-116.5"/>
<text text-anchor="middle" x="822" y="-124.5" font-family="Helvetica,sans-Serif" font-size="10.00">base/std_ext/time.h</text>
</a>
</g>
<!-- Node5&#45;&gt;Node10 -->
<g id="edge18" class="edge"><title>Node5&#45;&gt;Node10</title>
<path fill="none" stroke="midnightblue" d="M687.583,-177.298C712.179,-168.094 753.82,-152.512 784.251,-141.126"/>
<polygon fill="midnightblue" stroke="midnightblue" points="785.562,-144.372 793.701,-137.589 783.108,-137.816 785.562,-144.372"/>
</g>
<!-- Node5&#45;&gt;Node16 -->
<g id="edge42" class="edge"><title>Node5&#45;&gt;Node16</title>
<path fill="none" stroke="midnightblue" d="M670.968,-174.295C678.136,-154.959 693.348,-113.923 702.521,-89.1767"/>
<polygon fill="midnightblue" stroke="midnightblue" points="705.847,-90.2723 706.041,-79.6792 699.284,-87.8392 705.847,-90.2723"/>
</g>
<!-- Node17 -->
<g id="node33" class="node"><title>Node17</title>
<polygon fill="white" stroke="#bfbfbf" points="1955,-58.5 1955,-79.5 2017,-79.5 2017,-58.5 1955,-58.5"/>
<text text-anchor="middle" x="1986" y="-66.5" font-family="Helvetica,sans-Serif" font-size="10.00">type_traits</text>
</g>
<!-- Node5&#45;&gt;Node17 -->
<g id="edge32" class="edge"><title>Node5&#45;&gt;Node17</title>
<path fill="none" stroke="midnightblue" d="M687.744,-181.38C700.265,-179.208 716.543,-176.409 731,-174 830.029,-157.497 858.743,-169.703 954,-138 973.994,-131.346 975.637,-121.421 996,-116 1197.06,-62.4714 1721.03,-110.716 1944.61,-79.821"/>
<polygon fill="midnightblue" stroke="midnightblue" points="1945.32,-83.2547 1954.71,-78.3398 1944.3,-76.3289 1945.32,-83.2547"/>
</g>
<!-- Node18 -->
<g id="node35" class="node"><title>Node18</title>
<polygon fill="white" stroke="#bfbfbf" points="715,-116.5 715,-137.5 753,-137.5 753,-116.5 715,-116.5"/>
<text text-anchor="middle" x="734" y="-124.5" font-family="Helvetica,sans-Serif" font-size="10.00">tuple</text>
</g>
<!-- Node5&#45;&gt;Node18 -->
<g id="edge34" class="edge"><title>Node5&#45;&gt;Node18</title>
<path fill="none" stroke="midnightblue" d="M679.289,-174.362C689.017,-165.941 702.798,-154.011 714.095,-144.231"/>
<polygon fill="midnightblue" stroke="midnightblue" points="716.519,-146.762 721.789,-137.571 711.938,-141.469 716.519,-146.762"/>
</g>
<!-- Node5&#45;&gt;Node19 -->
<g id="edge36" class="edge"><title>Node5&#45;&gt;Node19</title>
<path fill="none" stroke="midnightblue" d="M665.339,-174.295C662.365,-155.131 656.084,-114.654 652.234,-89.8434"/>
<polygon fill="midnightblue" stroke="midnightblue" points="655.649,-89.0242 650.657,-79.6792 648.732,-90.0977 655.649,-89.0242"/>
</g>
<!-- Node20 -->
<g id="node39" class="node"><title>Node20</title>
<polygon fill="white" stroke="#bfbfbf" points="1276.5,-58.5 1276.5,-79.5 1335.5,-79.5 1335.5,-58.5 1276.5,-58.5"/>
<text text-anchor="middle" x="1306" y="-66.5" font-family="Helvetica,sans-Serif" font-size="10.00">stdexcept</text>
</g>
<!-- Node5&#45;&gt;Node20 -->
<g id="edge38" class="edge"><title>Node5&#45;&gt;Node20</title>
<path fill="none" stroke="midnightblue" d="M687.502,-181.217C733.926,-172.54 845.852,-150.953 882,-138 902.209,-130.759 904.478,-122.299 925,-116 988.162,-96.6122 1182.03,-79.0634 1266.25,-72.1346"/>
<polygon fill="midnightblue" stroke="midnightblue" points="1266.75,-75.6052 1276.43,-71.3045 1266.18,-68.6284 1266.75,-75.6052"/>
</g>
<!-- Node5&#45;&gt;Node21 -->
<g id="edge40" class="edge"><title>Node5&#45;&gt;Node21</title>
<path fill="none" stroke="midnightblue" d="M653.978,-174.362C643.569,-165.859 628.781,-153.779 616.745,-143.947"/>
<polygon fill="midnightblue" stroke="midnightblue" points="618.899,-141.187 608.94,-137.571 614.47,-146.608 618.899,-141.187"/>
</g>
<!-- Node7&#45;&gt;Node8 -->
<g id="edge14" class="edge"><title>Node7&#45;&gt;Node8</title>
<path fill="none" stroke="midnightblue" d="M1598.2,-66.9528C1791.86,-57.776 2577.91,-20.5286 2746.9,-12.5211"/>
<polygon fill="midnightblue" stroke="midnightblue" points="2747.09,-16.0163 2756.91,-12.0468 2746.75,-9.02414 2747.09,-16.0163"/>
</g>
<!-- Node9 -->
<g id="node17" class="node"><title>Node9</title>
<polygon fill="white" stroke="#bfbfbf" points="1695,-0.5 1695,-21.5 1747,-21.5 1747,-0.5 1695,-0.5"/>
<text text-anchor="middle" x="1721" y="-8.5" font-family="Helvetica,sans-Serif" font-size="10.00">ostream</text>
</g>
<!-- Node7&#45;&gt;Node9 -->
<g id="edge16" class="edge"><title>Node7&#45;&gt;Node9</title>
<path fill="none" stroke="midnightblue" d="M1585.06,-58.4966C1613.27,-48.6421 1655.47,-33.8969 1685.36,-23.4538"/>
<polygon fill="midnightblue" stroke="midnightblue" points="1686.7,-26.693 1694.98,-20.0904 1684.39,-20.0848 1686.7,-26.693"/>
</g>
<!-- Node11 -->
<g id="node21" class="node"><title>Node11</title>
<a xlink:href="string_8h.html" target="_top" xlink:title="base/std_ext/string.h">
<polygon fill="white" stroke="black" points="758,-58.5 758,-79.5 866,-79.5 866,-58.5 758,-58.5"/>
<text text-anchor="middle" x="812" y="-66.5" font-family="Helvetica,sans-Serif" font-size="10.00">base/std_ext/string.h</text>
</a>
</g>
<!-- Node10&#45;&gt;Node11 -->
<g id="edge20" class="edge"><title>Node10&#45;&gt;Node11</title>
<path fill="none" stroke="midnightblue" d="M820.166,-116.362C818.869,-108.84 817.089,-98.5187 815.523,-89.4308"/>
<polygon fill="midnightblue" stroke="midnightblue" points="818.971,-88.8306 813.823,-79.5707 812.073,-90.02 818.971,-88.8306"/>
</g>
<!-- Node15 -->
<g id="node29" class="node"><title>Node15</title>
<polygon fill="white" stroke="#bfbfbf" points="884,-58.5 884,-79.5 930,-79.5 930,-58.5 884,-58.5"/>
<text text-anchor="middle" x="907" y="-66.5" font-family="Helvetica,sans-Serif" font-size="10.00">cstring</text>
</g>
<!-- Node10&#45;&gt;Node15 -->
<g id="edge28" class="edge"><title>Node10&#45;&gt;Node15</title>
<path fill="none" stroke="midnightblue" d="M837.59,-116.362C850.291,-107.696 868.438,-95.3126 882.992,-85.3819"/>
<polygon fill="midnightblue" stroke="midnightblue" points="885.221,-88.0982 891.509,-79.5707 881.276,-82.316 885.221,-88.0982"/>
</g>
<!-- Node10&#45;&gt;Node16 -->
<g id="edge30" class="edge"><title>Node10&#45;&gt;Node16</title>
<path fill="none" stroke="midnightblue" d="M801.718,-116.497C784.382,-107.519 759.21,-94.4835 739.62,-84.3387"/>
<polygon fill="midnightblue" stroke="midnightblue" points="740.999,-81.1118 730.51,-79.6212 737.78,-87.3278 740.999,-81.1118"/>
</g>
<!-- Node11&#45;&gt;Node12 -->
<g id="edge22" class="edge"><title>Node11&#45;&gt;Node12</title>
<path fill="none" stroke="midnightblue" d="M866.228,-59.0279C869.19,-58.6407 872.128,-58.2934 875,-58 1028.65,-42.3 2167.56,-16.2265 2370.21,-11.6849"/>
<polygon fill="midnightblue" stroke="midnightblue" points="2370.51,-15.179 2380.43,-11.4562 2370.35,-8.1808 2370.51,-15.179"/>
</g>
<!-- Node13 -->
<g id="node25" class="node"><title>Node13</title>
<polygon fill="white" stroke="#bfbfbf" points="412,-0.5 412,-21.5 464,-21.5 464,-0.5 412,-0.5"/>
<text text-anchor="middle" x="438" y="-8.5" font-family="Helvetica,sans-Serif" font-size="10.00">sstream</text>
</g>
<!-- Node11&#45;&gt;Node13 -->
<g id="edge24" class="edge"><title>Node11&#45;&gt;Node13</title>
<path fill="none" stroke="midnightblue" d="M757.617,-60.5663C680.118,-48.5477 540.008,-26.8195 474.107,-16.5995"/>
<polygon fill="midnightblue" stroke="midnightblue" points="474.607,-13.1352 464.189,-15.0613 473.534,-20.0526 474.607,-13.1352"/>
</g>
<!-- Node14 -->
<g id="node27" class="node"><title>Node14</title>
<polygon fill="white" stroke="#bfbfbf" points="784,-0.5 784,-21.5 840,-21.5 840,-0.5 784,-0.5"/>
<text text-anchor="middle" x="812" y="-8.5" font-family="Helvetica,sans-Serif" font-size="10.00">algorithm</text>
</g>
<!-- Node11&#45;&gt;Node14 -->
<g id="edge26" class="edge"><title>Node11&#45;&gt;Node14</title>
<path fill="none" stroke="midnightblue" d="M812,-58.3619C812,-50.9219 812,-40.7427 812,-31.7276"/>
<polygon fill="midnightblue" stroke="midnightblue" points="815.5,-31.5706 812,-21.5707 808.5,-31.5707 815.5,-31.5706"/>
</g>
<!-- Node22&#45;&gt;Node8 -->
<g id="edge74" class="edge"><title>Node22&#45;&gt;Node8</title>
<path fill="none" stroke="midnightblue" d="M325.102,-118.819C329.787,-117.867 334.499,-116.911 339,-116 418.536,-99.9012 441.646,-107.481 518,-80 537.458,-72.9969 538.993,-63.2336 559,-58 659.579,-31.6889 2326.07,-24.6376 2430,-22 2546.62,-19.0402 2685.13,-14.3142 2746.71,-12.15"/>
<polygon fill="midnightblue" stroke="midnightblue" points="2747.08,-15.6393 2756.95,-11.7888 2746.84,-8.64362 2747.08,-15.6393"/>
</g>
<!-- Node22&#45;&gt;Node12 -->
<g id="edge70" class="edge"><title>Node22&#45;&gt;Node12</title>
<path fill="none" stroke="midnightblue" d="M325.327,-118.623C374.446,-108.212 454.406,-90.5342 483,-80 503.144,-72.5788 505.195,-63.2899 526,-58 572.621,-46.1462 2131.59,-16.1143 2370.43,-11.5777"/>
<polygon fill="midnightblue" stroke="midnightblue" points="2370.57,-15.0759 2380.5,-11.3868 2370.43,-8.07716 2370.57,-15.0759"/>
</g>
<!-- Node22&#45;&gt;Node13 -->
<g id="edge72" class="edge"><title>Node22&#45;&gt;Node13</title>
<path fill="none" stroke="midnightblue" d="M244.971,-120.19C198.75,-110.634 132.399,-90.6586 160,-58 175.471,-39.6934 330.006,-21.8866 401.751,-14.5312"/>
<polygon fill="midnightblue" stroke="midnightblue" points="402.112,-18.0126 411.709,-13.523 401.407,-11.0482 402.112,-18.0126"/>
</g>
<!-- Node22&#45;&gt;Node14 -->
<g id="edge64" class="edge"><title>Node22&#45;&gt;Node14</title>
<path fill="none" stroke="midnightblue" d="M250.528,-116.424C215.842,-104.103 170.469,-82.3062 193,-58 212.818,-36.6206 641.4,-17.8032 773.552,-12.4919"/>
<polygon fill="midnightblue" stroke="midnightblue" points="773.77,-15.9861 783.622,-12.0903 773.491,-8.99166 773.77,-15.9861"/>
</g>
<!-- Node22&#45;&gt;Node20 -->
<g id="edge68" class="edge"><title>Node22&#45;&gt;Node20</title>
<path fill="none" stroke="midnightblue" d="M325.024,-124.726C488.271,-115.453 1102.82,-80.5421 1266.01,-71.2719"/>
<polygon fill="midnightblue" stroke="midnightblue" points="1266.31,-74.7605 1276.09,-70.6989 1265.91,-67.7717 1266.31,-74.7605"/>
</g>
<!-- Node23 -->
<g id="node49" class="node"><title>Node23</title>
<polygon fill="white" stroke="#bfbfbf" points="201.5,-58.5 201.5,-79.5 280.5,-79.5 280.5,-58.5 201.5,-58.5"/>
<text text-anchor="middle" x="241" y="-66.5" font-family="Helvetica,sans-Serif" font-size="10.00">detail/format.h</text>
</g>
<!-- Node22&#45;&gt;Node23 -->
<g id="edge52" class="edge"><title>Node22&#45;&gt;Node23</title>
<path fill="none" stroke="midnightblue" d="M276.93,-116.362C270.851,-108.35 262.363,-97.1605 255.163,-87.6696"/>
<polygon fill="midnightblue" stroke="midnightblue" points="257.851,-85.4222 249.019,-79.5707 252.275,-89.653 257.851,-85.4222"/>
</g>
<!-- Node24 -->
<g id="node51" class="node"><title>Node24</title>
<polygon fill="white" stroke="#bfbfbf" points="297.5,-58.5 297.5,-79.5 346.5,-79.5 346.5,-58.5 297.5,-58.5"/>
<text text-anchor="middle" x="322" y="-66.5" font-family="Helvetica,sans-Serif" font-size="10.00">stdint.h</text>
</g>
<!-- Node22&#45;&gt;Node24 -->
<g id="edge54" class="edge"><title>Node22&#45;&gt;Node24</title>
<path fill="none" stroke="midnightblue" d="M291.786,-116.362C296.793,-108.513 303.745,-97.6159 309.718,-88.2527"/>
<polygon fill="midnightblue" stroke="midnightblue" points="312.829,-89.8837 315.257,-79.5707 306.928,-86.1189 312.829,-89.8837"/>
</g>
<!-- Node25 -->
<g id="node53" class="node"><title>Node25</title>
<polygon fill="white" stroke="#bfbfbf" points="363.5,-58.5 363.5,-79.5 412.5,-79.5 412.5,-58.5 363.5,-58.5"/>
<text text-anchor="middle" x="388" y="-66.5" font-family="Helvetica,sans-Serif" font-size="10.00">cassert</text>
</g>
<!-- Node22&#45;&gt;Node25 -->
<g id="edge56" class="edge"><title>Node22&#45;&gt;Node25</title>
<path fill="none" stroke="midnightblue" d="M303.892,-116.362C319.718,-107.45 342.523,-94.6087 360.395,-84.5447"/>
<polygon fill="midnightblue" stroke="midnightblue" points="362.232,-87.5271 369.228,-79.5707 358.797,-81.4276 362.232,-87.5271"/>
</g>
<!-- Node26 -->
<g id="node55" class="node"><title>Node26</title>
<polygon fill="white" stroke="#bfbfbf" points="430,-58.5 430,-79.5 474,-79.5 474,-58.5 430,-58.5"/>
<text text-anchor="middle" x="452" y="-66.5" font-family="Helvetica,sans-Serif" font-size="10.00">cmath</text>
</g>
<!-- Node22&#45;&gt;Node26 -->
<g id="edge58" class="edge"><title>Node22&#45;&gt;Node26</title>
<path fill="none" stroke="midnightblue" d="M315.813,-116.432C341.455,-107.62 379.155,-94.623 420.542,-80.1438"/>
<polygon fill="midnightblue" stroke="midnightblue" points="421.711,-83.4429 429.992,-76.8343 419.398,-76.8363 421.711,-83.4429"/>
</g>
<!-- Node27 -->
<g id="node57" class="node"><title>Node27</title>
<polygon fill="white" stroke="#bfbfbf" points="-0.5,-58.5 -0.5,-79.5 48.5,-79.5 48.5,-58.5 -0.5,-58.5"/>
<text text-anchor="middle" x="24" y="-66.5" font-family="Helvetica,sans-Serif" font-size="10.00">cstddef</text>
</g>
<!-- Node22&#45;&gt;Node27 -->
<g id="edge60" class="edge"><title>Node22&#45;&gt;Node27</title>
<path fill="none" stroke="midnightblue" d="M244.712,-120.186C200.944,-112.456 128.833,-98.7645 58.6567,-80.251"/>
<polygon fill="midnightblue" stroke="midnightblue" points="59.3354,-76.8096 48.7706,-77.6068 57.5266,-83.5718 59.3354,-76.8096"/>
</g>
<!-- Node28 -->
<g id="node59" class="node"><title>Node28</title>
<polygon fill="white" stroke="#bfbfbf" points="65.5,-58.5 65.5,-79.5 108.5,-79.5 108.5,-58.5 65.5,-58.5"/>
<text text-anchor="middle" x="87" y="-66.5" font-family="Helvetica,sans-Serif" font-size="10.00">cstdio</text>
</g>
<!-- Node22&#45;&gt;Node28 -->
<g id="edge62" class="edge"><title>Node22&#45;&gt;Node28</title>
<path fill="none" stroke="midnightblue" d="M247.376,-116.426C214.29,-107.061 164.863,-92.9134 122,-80 120.933,-79.6785 119.848,-79.3495 118.753,-79.0156"/>
<polygon fill="midnightblue" stroke="midnightblue" points="119.407,-75.5546 108.82,-75.9456 117.34,-82.2425 119.407,-75.5546"/>
</g>
<!-- Node29 -->
<g id="node62" class="node"><title>Node29</title>
<polygon fill="white" stroke="#bfbfbf" points="568,-58.5 568,-79.5 608,-79.5 608,-58.5 568,-58.5"/>
<text text-anchor="middle" x="588" y="-66.5" font-family="Helvetica,sans-Serif" font-size="10.00">limits</text>
</g>
<!-- Node22&#45;&gt;Node29 -->
<g id="edge66" class="edge"><title>Node22&#45;&gt;Node29</title>
<path fill="none" stroke="midnightblue" d="M325.074,-118.674C329.764,-117.748 334.485,-116.838 339,-116 434.26,-98.3279 459.877,-102.974 554,-80 555.254,-79.6938 556.53,-79.3647 557.814,-79.0185"/>
<polygon fill="midnightblue" stroke="midnightblue" points="559.039,-82.3062 567.643,-76.1233 557.062,-75.5914 559.039,-82.3062"/>
</g>
<!-- Node30&#45;&gt;Node8 -->
<g id="edge336" class="edge"><title>Node30&#45;&gt;Node8</title>
<path fill="none" stroke="midnightblue" d="M3187.72,-601.745C3264.26,-595.635 3416.8,-580.958 3465,-558 3604.68,-491.468 3785,-367.777 3785,-185 3785,-185 3785,-185 3785,-127 3785,-26.6333 2984.56,-13.0237 2811.67,-11.2548"/>
<polygon fill="midnightblue" stroke="midnightblue" points="2811.46,-7.7527 2801.42,-11.1566 2811.39,-14.7524 2811.46,-7.7527"/>
</g>
<!-- Node30&#45;&gt;Node19 -->
<g id="edge338" class="edge"><title>Node30&#45;&gt;Node19</title>
<path fill="none" stroke="midnightblue" d="M3098.37,-604.513C2852.79,-601.733 1663.93,-586.973 1298,-558 1103.56,-542.606 1048.06,-561.602 863,-500 632.358,-423.225 491.316,-378.046 453,-138 451.459,-128.344 446.872,-123.619 453,-116 497.851,-60.2353 541.426,-96.8608 615.945,-79.8516"/>
<polygon fill="midnightblue" stroke="midnightblue" points="616.857,-83.231 625.679,-77.3634 615.124,-76.4491 616.857,-83.231"/>
</g>
<!-- Node30&#45;&gt;Node29 -->
<g id="edge340" class="edge"><title>Node30&#45;&gt;Node29</title>
<path fill="none" stroke="midnightblue" d="M3098.33,-604.729C2809.2,-602.88 1207.69,-591.196 993,-558 781.907,-525.36 699.758,-531.227 545,-384 452.89,-296.373 370.448,-218.979 445,-116 446.725,-113.617 516.835,-91.3137 558.23,-78.3061"/>
<polygon fill="midnightblue" stroke="midnightblue" points="559.336,-81.6275 567.83,-75.2945 557.241,-74.9484 559.336,-81.6275"/>
</g>
<!-- Node31 -->
<g id="node70" class="node"><title>Node31</title>
<a xlink:href="_unpacker_8h.html" target="_top" xlink:title="Unpacker.h">
<polygon fill="white" stroke="black" points="3614.5,-232.5 3614.5,-253.5 3681.5,-253.5 3681.5,-232.5 3614.5,-232.5"/>
<text text-anchor="middle" x="3648" y="-240.5" font-family="Helvetica,sans-Serif" font-size="10.00">Unpacker.h</text>
</a>
</g>
<!-- Node30&#45;&gt;Node31 -->
<g id="edge78" class="edge"><title>Node30&#45;&gt;Node31</title>
<path fill="none" stroke="midnightblue" d="M3187.55,-602.215C3259.29,-597.023 3396.46,-583.958 3437,-558 3552.87,-483.804 3620.19,-320.762 3641,-263.429"/>
<polygon fill="midnightblue" stroke="midnightblue" points="3644.4,-264.308 3644.44,-253.713 3637.8,-261.97 3644.4,-264.308"/>
</g>
<!-- Node30&#45;&gt;Node32 -->
<g id="edge330" class="edge"><title>Node30&#45;&gt;Node32</title>
<path fill="none" stroke="midnightblue" d="M3187.62,-602.133C3254.5,-595.148 3373,-571.176 3373,-489 3373,-489 3373,-489 3373,-366 3373,-361.232 3374.92,-365.243 3264,-290 3225.85,-264.118 3220.6,-249.638 3178,-232 3108.56,-203.245 3020.51,-191.824 2972.06,-187.486"/>
<polygon fill="midnightblue" stroke="midnightblue" points="2972.31,-183.996 2962.05,-186.642 2971.73,-190.971 2972.31,-183.996"/>
</g>
<!-- Node33 -->
<g id="node75" class="node"><title>Node33</title>
<a xlink:href="_exp_config_8h.html" target="_top" xlink:title="expconfig/ExpConfig.h">
<polygon fill="white" stroke="black" points="2033,-536.5 2033,-557.5 2149,-557.5 2149,-536.5 2033,-536.5"/>
<text text-anchor="middle" x="2091" y="-544.5" font-family="Helvetica,sans-Serif" font-size="10.00">expconfig/ExpConfig.h</text>
</a>
</g>
<!-- Node30&#45;&gt;Node33 -->
<g id="edge84" class="edge"><title>Node30&#45;&gt;Node33</title>
<path fill="none" stroke="midnightblue" d="M3098.47,-602.545C2933.76,-593.464 2358.29,-561.736 2159.31,-550.766"/>
<polygon fill="midnightblue" stroke="midnightblue" points="2159.45,-547.269 2149.28,-550.213 2159.07,-554.258 2159.45,-547.269"/>
</g>
<!-- Node34 -->
<g id="node77" class="node"><title>Node34</title>
<a xlink:href="_detector__t_8h.html" target="_top" xlink:title="base/Detector_t.h">
<polygon fill="white" stroke="black" points="1932.5,-116.5 1932.5,-137.5 2027.5,-137.5 2027.5,-116.5 1932.5,-116.5"/>
<text text-anchor="middle" x="1980" y="-124.5" font-family="Helvetica,sans-Serif" font-size="10.00">base/Detector_t.h</text>
</a>
</g>
<!-- Node30&#45;&gt;Node34 -->
<g id="edge328" class="edge"><title>Node30&#45;&gt;Node34</title>
<path fill="none" stroke="midnightblue" d="M3187.79,-598.316C3241.68,-589.732 3328.48,-574.024 3357,-558 3394,-537.213 3423,-531.437 3423,-489 3423,-489 3423,-489 3423,-431 3423,-373.354 3331.81,-197.593 3294,-174 3266.99,-157.145 2288.49,-133.959 2037.96,-128.289"/>
<polygon fill="midnightblue" stroke="midnightblue" points="2037.69,-124.782 2027.62,-128.056 2037.54,-131.781 2037.69,-124.782"/>
</g>
<!-- Node30&#45;&gt;Node39 -->
<g id="edge332" class="edge"><title>Node30&#45;&gt;Node39</title>
<path fill="none" stroke="midnightblue" d="M3098.3,-603.929C2779.81,-596.152 867,-547.034 867,-489 867,-489 867,-489 867,-243 867,-176.421 1103.48,-140.212 1182,-130.025"/>
<polygon fill="midnightblue" stroke="midnightblue" points="1182.91,-133.438 1192.39,-128.71 1182.03,-126.493 1182.91,-133.438"/>
</g>
<!-- Node42 -->
<g id="node106" class="node"><title>Node42</title>
<polygon fill="white" stroke="#bfbfbf" points="2288.5,-174.5 2288.5,-195.5 2323.5,-195.5 2323.5,-174.5 2288.5,-174.5"/>
<text text-anchor="middle" x="2306" y="-182.5" font-family="Helvetica,sans-Serif" font-size="10.00">map</text>
</g>
<!-- Node30&#45;&gt;Node42 -->
<g id="edge334" class="edge"><title>Node30&#45;&gt;Node42</title>
<path fill="none" stroke="midnightblue" d="M3143,-594.444C3143,-574.062 3143,-527.868 3143,-489 3143,-489 3143,-489 3143,-431 3143,-342.233 3189.94,-293.575 3126,-232 3095.71,-202.833 2411.8,-200.57 2370,-196 2358.02,-194.691 2344.9,-192.558 2333.66,-190.517"/>
<polygon fill="midnightblue" stroke="midnightblue" points="2334.05,-187.029 2323.58,-188.619 2332.76,-193.908 2334.05,-187.029"/>
</g>
<!-- Node31&#45;&gt;Node12 -->
<g id="edge80" class="edge"><title>Node31&#45;&gt;Node12</title>
<path fill="none" stroke="midnightblue" d="M3617.59,-232.453C3573.6,-217.542 3489.43,-190.303 3416,-174 3139.2,-112.543 3064.79,-125.967 2785,-80 2653.31,-58.3641 2496.86,-29.1592 2431.78,-16.8527"/>
<polygon fill="midnightblue" stroke="midnightblue" points="2432.25,-13.3807 2421.77,-14.9587 2430.95,-20.2585 2432.25,-13.3807"/>
</g>
<!-- Node31&#45;&gt;Node32 -->
<g id="edge82" class="edge"><title>Node31&#45;&gt;Node32</title>
<path fill="none" stroke="midnightblue" d="M3614.19,-233.568C3611.43,-232.975 3608.68,-232.441 3606,-232 3482.31,-211.646 3093.77,-192.328 2972.52,-186.663"/>
<polygon fill="midnightblue" stroke="midnightblue" points="2972.43,-183.156 2962.28,-186.188 2972.11,-190.148 2972.43,-183.156"/>
</g>
<!-- Node33&#45;&gt;Node7 -->
<g id="edge320" class="edge"><title>Node33&#45;&gt;Node7</title>
<path fill="none" stroke="midnightblue" d="M2032.76,-545.732C1906.12,-542.455 1596.4,-531.625 1339,-500 960.871,-453.541 645.65,-509.676 562,-138 559.853,-128.461 555.247,-123.071 562,-116 592.037,-84.5484 1300.56,-82.1321 1344,-80 1397.65,-77.3668 1458.96,-74.1471 1501.61,-71.8733"/>
<polygon fill="midnightblue" stroke="midnightblue" points="1501.97,-75.3594 1511.76,-71.331 1501.59,-68.3693 1501.97,-75.3594"/>
</g>
<!-- Node33&#45;&gt;Node32 -->
<g id="edge322" class="edge"><title>Node33&#45;&gt;Node32</title>
<path fill="none" stroke="midnightblue" d="M2149.33,-544.66C2395.28,-534.416 3335,-491.328 3335,-431 3335,-431 3335,-431 3335,-366 3335,-351.638 3336.32,-358.494 3235,-290 3195.27,-263.14 3188.27,-250.448 3144,-232 3086.51,-208.041 3014.75,-195.274 2972.3,-189.336"/>
<polygon fill="midnightblue" stroke="midnightblue" points="2972.55,-185.838 2962.17,-187.971 2971.61,-192.775 2972.55,-185.838"/>
</g>
<!-- Node33&#45;&gt;Node34 -->
<g id="edge86" class="edge"><title>Node33&#45;&gt;Node34</title>
<path fill="none" stroke="midnightblue" d="M2032.98,-542.015C1881.01,-528.182 1483,-486.644 1483,-431 1483,-431 1483,-431 1483,-301 1483,-269.192 1477.66,-252.474 1502,-232 1565.56,-178.541 1795.76,-223.872 1874,-196 1890.6,-190.084 1892.26,-183.66 1907,-174 1922.82,-163.632 1940.68,-152.133 1954.77,-143.105"/>
<polygon fill="midnightblue" stroke="midnightblue" points="1956.89,-145.903 1963.43,-137.565 1953.12,-140.007 1956.89,-145.903"/>
</g>
<!-- Node36 -->
<g id="node87" class="node"><title>Node36</title>
<a xlink:href="_reconstruct__traits_8h.html" target="_top" xlink:title="reconstruct/Reconstruct\l_traits.h">
<polygon fill="white" stroke="black" points="2979,-349 2979,-383 3101,-383 3101,-349 2979,-349"/>
<text text-anchor="start" x="2987" y="-370" font-family="Helvetica,sans-Serif" font-size="10.00">reconstruct/Reconstruct</text>
<text text-anchor="middle" x="3040" y="-357" font-family="Helvetica,sans-Serif" font-size="10.00">_traits.h</text>
</a>
</g>
<!-- Node33&#45;&gt;Node36 -->
<g id="edge102" class="edge"><title>Node33&#45;&gt;Node36</title>
<path fill="none" stroke="midnightblue" d="M2146.12,-536.486C2308.9,-505.441 2787.36,-414.185 2968.98,-379.546"/>
<polygon fill="midnightblue" stroke="midnightblue" points="2969.79,-382.955 2978.95,-377.643 2968.48,-376.079 2969.79,-382.955"/>
</g>
<!-- Node33&#45;&gt;Node39 -->
<g id="edge324" class="edge"><title>Node33&#45;&gt;Node39</title>
<path fill="none" stroke="midnightblue" d="M2032.98,-543.21C1810.18,-528.066 1018.49,-468.603 948,-384 897.787,-323.732 866.903,-307.722 1024,-174 1047.88,-153.67 1138.2,-137.487 1182.37,-130.599"/>
<polygon fill="midnightblue" stroke="midnightblue" points="1182.94,-134.054 1192.29,-129.088 1181.88,-127.134 1182.94,-134.054"/>
</g>
<!-- Node33&#45;&gt;Node42 -->
<g id="edge326" class="edge"><title>Node33&#45;&gt;Node42</title>
<path fill="none" stroke="midnightblue" d="M2077.76,-536.375C2055.99,-517.606 2015,-476.263 2015,-431 2015,-431 2015,-431 2015,-366 2015,-296.409 2039.07,-272.025 2096,-232 2162.38,-185.328 2196.79,-217.623 2275,-196 2276.24,-195.658 2277.5,-195.29 2278.77,-194.905"/>
<polygon fill="midnightblue" stroke="midnightblue" points="2280.03,-198.175 2288.43,-191.723 2277.84,-191.526 2280.03,-198.175"/>
</g>
<!-- Node43 -->
<g id="node109" class="node"><title>Node43</title>
<a xlink:href="_calibration_8h.html" target="_top" xlink:title="calibration/Calibration.h">
<polygon fill="white" stroke="black" points="2088.5,-478.5 2088.5,-499.5 2207.5,-499.5 2207.5,-478.5 2088.5,-478.5"/>
<text text-anchor="middle" x="2148" y="-486.5" font-family="Helvetica,sans-Serif" font-size="10.00">calibration/Calibration.h</text>
</a>
</g>
<!-- Node33&#45;&gt;Node43 -->
<g id="edge132" class="edge"><title>Node33&#45;&gt;Node43</title>
<path fill="none" stroke="midnightblue" d="M2101.45,-536.362C2109.57,-528.104 2121,-516.472 2130.5,-506.803"/>
<polygon fill="midnightblue" stroke="midnightblue" points="2133.1,-509.156 2137.61,-499.571 2128.11,-504.25 2133.1,-509.156"/>
</g>
<!-- Node34&#45;&gt;Node7 -->
<g id="edge88" class="edge"><title>Node34&#45;&gt;Node7</title>
<path fill="none" stroke="midnightblue" d="M1932.48,-120.515C1852.53,-109.605 1691.68,-87.6522 1608.11,-76.2486"/>
<polygon fill="midnightblue" stroke="midnightblue" points="1608.46,-72.7627 1598.07,-74.8783 1607.51,-79.6984 1608.46,-72.7627"/>
</g>
<!-- Node34&#45;&gt;Node8 -->
<g id="edge100" class="edge"><title>Node34&#45;&gt;Node8</title>
<path fill="none" stroke="midnightblue" d="M2027.59,-120.091C2175.14,-98.6692 2622.47,-33.7256 2746.69,-15.6902"/>
<polygon fill="midnightblue" stroke="midnightblue" points="2747.32,-19.1355 2756.72,-14.235 2746.32,-12.2082 2747.32,-19.1355"/>
</g>
<!-- Node34&#45;&gt;Node12 -->
<g id="edge96" class="edge"><title>Node34&#45;&gt;Node12</title>
<path fill="none" stroke="midnightblue" d="M2002.73,-116.446C2035.67,-101.527 2098.85,-74.2775 2155,-58 2230.94,-35.985 2323.11,-21.5318 2370.14,-15.0053"/>
<polygon fill="midnightblue" stroke="midnightblue" points="2370.85,-18.4418 2380.28,-13.6246 2369.9,-11.5058 2370.85,-18.4418"/>
</g>
<!-- Node34&#45;&gt;Node17 -->
<g id="edge98" class="edge"><title>Node34&#45;&gt;Node17</title>
<path fill="none" stroke="midnightblue" d="M1981.1,-116.362C1981.87,-108.922 1982.92,-98.7427 1983.86,-89.7276"/>
<polygon fill="midnightblue" stroke="midnightblue" points="1987.36,-89.8777 1984.91,-79.5707 1980.4,-89.1574 1987.36,-89.8777"/>
</g>
<!-- Node34&#45;&gt;Node19 -->
<g id="edge92" class="edge"><title>Node34&#45;&gt;Node19</title>
<path fill="none" stroke="midnightblue" d="M1932.39,-122.427C1907.3,-120.171 1876.01,-117.598 1848,-116 1592.25,-101.409 952.73,-126.057 682.444,-79.7017"/>
<polygon fill="midnightblue" stroke="midnightblue" points="682.661,-76.1854 672.202,-77.8781 681.434,-83.077 682.661,-76.1854"/>
</g>
<!-- Node34&#45;&gt;Node20 -->
<g id="edge94" class="edge"><title>Node34&#45;&gt;Node20</title>
<path fill="none" stroke="midnightblue" d="M1932.34,-122.898C1805.85,-112.014 1463.37,-82.5422 1346.06,-72.4471"/>
<polygon fill="midnightblue" stroke="midnightblue" points="1346.01,-68.9297 1335.74,-71.5594 1345.41,-75.904 1346.01,-68.9297"/>
</g>
<!-- Node35 -->
<g id="node80" class="node"><title>Node35</title>
<polygon fill="white" stroke="#bfbfbf" points="1872.5,-58.5 1872.5,-79.5 1937.5,-79.5 1937.5,-58.5 1872.5,-58.5"/>
<text text-anchor="middle" x="1905" y="-66.5" font-family="Helvetica,sans-Serif" font-size="10.00">TVector3.h</text>
</g>
<!-- Node34&#45;&gt;Node35 -->
<g id="edge90" class="edge"><title>Node34&#45;&gt;Node35</title>
<path fill="none" stroke="midnightblue" d="M1966.24,-116.362C1955.25,-107.859 1939.63,-95.7785 1926.91,-85.9466"/>
<polygon fill="midnightblue" stroke="midnightblue" points="1928.72,-82.9195 1918.67,-79.5707 1924.44,-88.4569 1928.72,-82.9195"/>
</g>
<!-- Node36&#45;&gt;Node32 -->
<g id="edge126" class="edge"><title>Node36&#45;&gt;Node32</title>
<path fill="none" stroke="midnightblue" d="M3065.18,-348.814C3100.46,-322.631 3157.01,-271.616 3126,-232 3107.28,-208.081 3022.04,-194.648 2972.32,-188.72"/>
<polygon fill="midnightblue" stroke="midnightblue" points="2972.62,-185.232 2962.29,-187.568 2971.82,-192.186 2972.62,-185.232"/>
</g>
<!-- Node36&#45;&gt;Node34 -->
<g id="edge104" class="edge"><title>Node36&#45;&gt;Node34</title>
<path fill="none" stroke="midnightblue" d="M3101.06,-355.656C3156.88,-342.585 3236.16,-314.07 3273,-254 3291.59,-223.689 3297.68,-199.594 3273,-174 3251.28,-151.472 2286.93,-132.539 2038.09,-128.023"/>
<polygon fill="midnightblue" stroke="midnightblue" points="2037.88,-124.519 2027.82,-127.837 2037.75,-131.517 2037.88,-124.519"/>
</g>
<!-- Node37 -->
<g id="node90" class="node"><title>Node37</title>
<a xlink:href="_memory_pool_8h.html" target="_top" xlink:title="tree/MemoryPool.h">
<polygon fill="white" stroke="black" points="2977.5,-290.5 2977.5,-311.5 3076.5,-311.5 3076.5,-290.5 2977.5,-290.5"/>
<text text-anchor="middle" x="3027" y="-298.5" font-family="Helvetica,sans-Serif" font-size="10.00">tree/MemoryPool.h</text>
</a>
</g>
<!-- Node36&#45;&gt;Node37 -->
<g id="edge106" class="edge"><title>Node36&#45;&gt;Node37</title>
<path fill="none" stroke="midnightblue" d="M3036.58,-348.922C3034.92,-340.579 3032.89,-330.47 3031.14,-321.692"/>
<polygon fill="midnightblue" stroke="midnightblue" points="3034.56,-320.971 3029.17,-311.852 3027.7,-322.344 3034.56,-320.971"/>
</g>
<!-- Node36&#45;&gt;Node39 -->
<g id="edge130" class="edge"><title>Node36&#45;&gt;Node39</title>
<path fill="none" stroke="midnightblue" d="M3082.25,-348.91C3099.04,-340.169 3117.14,-327.955 3129,-312 3150.58,-282.968 3165.13,-261.365 3144,-232 3045.51,-95.0966 3253.96,-204.961 1427,-138 1356.11,-135.402 1272.45,-130.794 1231.74,-128.452"/>
<polygon fill="midnightblue" stroke="midnightblue" points="1231.86,-124.953 1221.67,-127.869 1231.45,-131.942 1231.86,-124.953"/>
</g>
<!-- Node36&#45;&gt;Node41 -->
<g id="edge118" class="edge"><title>Node36&#45;&gt;Node41</title>
<path fill="none" stroke="midnightblue" d="M3101.19,-350.856C3199.82,-326.446 3392.24,-278.826 3484.8,-255.918"/>
<polygon fill="midnightblue" stroke="midnightblue" points="3485.65,-259.314 3494.51,-253.515 3483.97,-252.519 3485.65,-259.314"/>
</g>
<!-- Node36&#45;&gt;Node42 -->
<g id="edge128" class="edge"><title>Node36&#45;&gt;Node42</title>
<path fill="none" stroke="midnightblue" d="M2978.81,-349.664C2910.37,-330.467 2796.92,-295.862 2704,-254 2686.21,-245.984 2684.51,-238.193 2666,-232 2540.32,-189.946 2501.12,-215.23 2370,-196 2358.08,-194.252 2344.96,-192.047 2333.72,-190.071"/>
<polygon fill="midnightblue" stroke="midnightblue" points="2334.08,-186.579 2323.62,-188.269 2332.85,-193.471 2334.08,-186.579"/>
</g>
<!-- Node37&#45;&gt;Node32 -->
<g id="edge114" class="edge"><title>Node37&#45;&gt;Node32</title>
<path fill="none" stroke="midnightblue" d="M3025.57,-290.204C3023.21,-275.722 3017.34,-249.774 3004,-232 2994.34,-219.131 2980.1,-208.519 2967.14,-200.655"/>
<polygon fill="midnightblue" stroke="midnightblue" points="2968.86,-197.607 2958.45,-195.656 2965.37,-203.675 2968.86,-197.607"/>
</g>
<!-- Node38 -->
<g id="node92" class="node"><title>Node38</title>
<a xlink:href="memory_8h.html" target="_top" xlink:title="base/std_ext/memory.h">
<polygon fill="white" stroke="black" points="2876.5,-232.5 2876.5,-253.5 2995.5,-253.5 2995.5,-232.5 2876.5,-232.5"/>
<text text-anchor="middle" x="2936" y="-240.5" font-family="Helvetica,sans-Serif" font-size="10.00">base/std_ext/memory.h</text>
</a>
</g>
<!-- Node37&#45;&gt;Node38 -->
<g id="edge108" class="edge"><title>Node37&#45;&gt;Node38</title>
<path fill="none" stroke="midnightblue" d="M3010.31,-290.362C2996.58,-281.614 2976.92,-269.079 2961.26,-259.101"/>
<polygon fill="midnightblue" stroke="midnightblue" points="2962.9,-255.994 2952.58,-253.571 2959.14,-261.897 2962.9,-255.994"/>
</g>
<!-- Node40 -->
<g id="node98" class="node"><title>Node40</title>
<polygon fill="white" stroke="#bfbfbf" points="3050.5,-232.5 3050.5,-253.5 3117.5,-253.5 3117.5,-232.5 3050.5,-232.5"/>
<text text-anchor="middle" x="3084" y="-240.5" font-family="Helvetica,sans-Serif" font-size="10.00">forward_list</text>
</g>
<!-- Node37&#45;&gt;Node40 -->
<g id="edge116" class="edge"><title>Node37&#45;&gt;Node40</title>
<path fill="none" stroke="midnightblue" d="M3037.45,-290.362C3045.57,-282.104 3057,-270.472 3066.5,-260.803"/>
<polygon fill="midnightblue" stroke="midnightblue" points="3069.1,-263.156 3073.61,-253.571 3064.11,-258.25 3069.1,-263.156"/>
</g>
<!-- Node38&#45;&gt;Node32 -->
<g id="edge110" class="edge"><title>Node38&#45;&gt;Node32</title>
<path fill="none" stroke="midnightblue" d="M2936,-232.362C2936,-224.922 2936,-214.743 2936,-205.728"/>
<polygon fill="midnightblue" stroke="midnightblue" points="2939.5,-205.571 2936,-195.571 2932.5,-205.571 2939.5,-205.571"/>
</g>
<!-- Node38&#45;&gt;Node39 -->
<g id="edge112" class="edge"><title>Node38&#45;&gt;Node39</title>
<path fill="none" stroke="midnightblue" d="M2918.08,-232.272C2889.87,-216.05 2832.87,-185.907 2780,-174 2633.29,-140.958 1577.28,-143.755 1427,-138 1356.12,-135.285 1272.45,-130.729 1231.74,-128.426"/>
<polygon fill="midnightblue" stroke="midnightblue" points="1231.85,-124.927 1221.67,-127.852 1231.45,-131.915 1231.85,-124.927"/>
</g>
<!-- Node41&#45;&gt;Node8 -->
<g id="edge120" class="edge"><title>Node41&#45;&gt;Node8</title>
<path fill="none" stroke="midnightblue" d="M3533.16,-232.123C3520.8,-198.991 3478.62,-99.0742 3406,-58 3354,-28.5918 2932.52,-15.1123 2811.42,-11.8225"/>
<polygon fill="midnightblue" stroke="midnightblue" points="2811.39,-8.32045 2801.3,-11.5524 2811.2,-15.318 2811.39,-8.32045"/>
</g>
<!-- Node41&#45;&gt;Node17 -->
<g id="edge124" class="edge"><title>Node41&#45;&gt;Node17</title>
<path fill="none" stroke="midnightblue" d="M3517.15,-232.389C3486.26,-216.465 3424.38,-186.884 3368,-174 3114.92,-116.169 3043.9,-157.169 2785,-138 2494.54,-116.494 2145.27,-84.0625 2027.24,-72.9207"/>
<polygon fill="midnightblue" stroke="midnightblue" points="2027.48,-69.4277 2017.2,-71.9709 2026.82,-76.3966 2027.48,-69.4277"/>
</g>
<!-- Node41&#45;&gt;Node32 -->
<g id="edge122" class="edge"><title>Node41&#45;&gt;Node32</title>
<path fill="none" stroke="midnightblue" d="M3476.34,-237.146C3352.12,-225.158 3072.05,-198.129 2972.2,-188.494"/>
<polygon fill="midnightblue" stroke="midnightblue" points="2972.31,-184.988 2962.02,-187.511 2971.64,-191.956 2972.31,-184.988"/>
</g>
<!-- Node43&#45;&gt;Node8 -->
<g id="edge318" class="edge"><title>Node43&#45;&gt;Node8</title>
<path fill="none" stroke="midnightblue" d="M2207.81,-485.565C2414.94,-473.365 3100.67,-430.367 3316,-384 3488.03,-346.956 3569.73,-382.462 3690,-254 3711.74,-230.78 3709,-216.808 3709,-185 3709,-185 3709,-185 3709,-127 3709,-34.5494 2975.98,-14.8241 2811.49,-11.5617"/>
<polygon fill="midnightblue" stroke="midnightblue" points="2811.14,-8.05428 2801.07,-11.3622 2811,-15.053 2811.14,-8.05428"/>
</g>
<!-- Node43&#45;&gt;Node36 -->
<g id="edge302" class="edge"><title>Node43&#45;&gt;Node36</title>
<path fill="none" stroke="midnightblue" d="M2207.56,-480.787C2366.02,-458.936 2797.49,-399.441 2968.65,-375.838"/>
<polygon fill="midnightblue" stroke="midnightblue" points="2969.38,-379.271 2978.81,-374.437 2968.43,-372.336 2969.38,-379.271"/>
</g>
<!-- Node44 -->
<g id="node111" class="node"><title>Node44</title>
<a xlink:href="_physics_8h.html" target="_top" xlink:title="analysis/physics/Physics.h">
<polygon fill="white" stroke="black" points="2080,-420.5 2080,-441.5 2216,-441.5 2216,-420.5 2080,-420.5"/>
<text text-anchor="middle" x="2148" y="-428.5" font-family="Helvetica,sans-Serif" font-size="10.00">analysis/physics/Physics.h</text>
</a>
</g>
<!-- Node43&#45;&gt;Node44 -->
<g id="edge134" class="edge"><title>Node43&#45;&gt;Node44</title>
<path fill="none" stroke="midnightblue" d="M2148,-478.362C2148,-470.922 2148,-460.743 2148,-451.728"/>
<polygon fill="midnightblue" stroke="midnightblue" points="2151.5,-451.571 2148,-441.571 2144.5,-451.571 2151.5,-451.571"/>
</g>
<!-- Node69 -->
<g id="node221" class="node"><title>Node69</title>
<a xlink:href="_manager__traits_8h.html" target="_top" xlink:title="calibration/gui/Manager\l_traits.h">
<polygon fill="white" stroke="black" points="956.5,-349 956.5,-383 1073.5,-383 1073.5,-349 956.5,-349"/>
<text text-anchor="start" x="964.5" y="-370" font-family="Helvetica,sans-Serif" font-size="10.00">calibration/gui/Manager</text>
<text text-anchor="middle" x="1015" y="-357" font-family="Helvetica,sans-Serif" font-size="10.00">_traits.h</text>
</a>
</g>
<!-- Node43&#45;&gt;Node69 -->
<g id="edge304" class="edge"><title>Node43&#45;&gt;Node69</title>
<path fill="none" stroke="midnightblue" d="M2088.28,-482.517C1895.29,-461.565 1288.98,-395.744 1083.72,-373.46"/>
<polygon fill="midnightblue" stroke="midnightblue" points="1083.99,-369.969 1073.67,-372.369 1083.23,-376.928 1083.99,-369.969"/>
</g>
<!-- Node44&#45;&gt;Node12 -->
<g id="edge294" class="edge"><title>Node44&#45;&gt;Node12</title>
<path fill="none" stroke="midnightblue" d="M2145.11,-420.428C2136.71,-387.168 2116.17,-283.812 2169,-232 2221.97,-180.053 2276.01,-244.673 2332,-196 2381.68,-152.811 2395.65,-70.3109 2399.53,-31.7842"/>
<polygon fill="midnightblue" stroke="midnightblue" points="2403.03,-32.0076 2400.41,-21.7406 2396.06,-31.3975 2403.03,-32.0076"/>
</g>
<!-- Node44&#45;&gt;Node32 -->
<g id="edge298" class="edge"><title>Node44&#45;&gt;Node32</title>
<path fill="none" stroke="midnightblue" d="M2154.69,-420.227C2177,-385.439 2252.78,-275.823 2348,-232 2360.6,-226.202 2773.13,-196.547 2899.55,-187.575"/>
<polygon fill="midnightblue" stroke="midnightblue" points="2900.13,-191.043 2909.85,-186.844 2899.63,-184.06 2900.13,-191.043"/>
</g>
<!-- Node44&#45;&gt;Node39 -->
<g id="edge292" class="edge"><title>Node44&#45;&gt;Node39</title>
<path fill="none" stroke="midnightblue" d="M2079.72,-427.233C1864.54,-414.78 1210.45,-372.27 1138,-312 1089.75,-271.858 1074.46,-227.052 1108,-174 1110.19,-170.529 1154.45,-150.364 1183.05,-137.6"/>
<polygon fill="midnightblue" stroke="midnightblue" points="1184.7,-140.696 1192.41,-133.433 1181.85,-134.301 1184.7,-140.696"/>
</g>
<!-- Node44&#45;&gt;Node42 -->
<g id="edge296" class="edge"><title>Node44&#45;&gt;Node42</title>
<path fill="none" stroke="midnightblue" d="M2137.71,-420.475C2129.78,-411.58 2119.45,-398.07 2115,-384 2094.64,-319.584 2072.8,-284.752 2115,-232 2160.53,-175.083 2204.97,-216.224 2275,-196 2276.23,-195.643 2277.49,-195.265 2278.76,-194.87"/>
<polygon fill="midnightblue" stroke="midnightblue" points="2280.03,-198.134 2288.41,-191.651 2277.82,-191.493 2280.03,-198.134"/>
</g>
<!-- Node45 -->
<g id="node113" class="node"><title>Node45</title>
<a xlink:href="_histogram_factories_8h.html" target="_top" xlink:title="analysis/plot/HistogramFactories.h">
<polygon fill="white" stroke="black" points="2454,-355.5 2454,-376.5 2622,-376.5 2622,-355.5 2454,-355.5"/>
<text text-anchor="middle" x="2538" y="-363.5" font-family="Helvetica,sans-Serif" font-size="10.00">analysis/plot/HistogramFactories.h</text>
</a>
</g>
<!-- Node44&#45;&gt;Node45 -->
<g id="edge136" class="edge"><title>Node44&#45;&gt;Node45</title>
<path fill="none" stroke="midnightblue" d="M2211.09,-420.484C2280.48,-408.92 2391.82,-390.364 2464.94,-378.177"/>
<polygon fill="midnightblue" stroke="midnightblue" points="2465.71,-381.597 2475,-376.501 2464.56,-374.692 2465.71,-381.597"/>
</g>
<!-- Node52 -->
<g id="node139" class="node"><title>Node52</title>
<polygon fill="white" stroke="#bfbfbf" points="2378.5,-174.5 2378.5,-195.5 2437.5,-195.5 2437.5,-174.5 2378.5,-174.5"/>
<text text-anchor="middle" x="2408" y="-182.5" font-family="Helvetica,sans-Serif" font-size="10.00">functional</text>
</g>
<!-- Node44&#45;&gt;Node52 -->
<g id="edge300" class="edge"><title>Node44&#45;&gt;Node52</title>
<path fill="none" stroke="midnightblue" d="M2148.51,-420.44C2150.51,-383.248 2159.15,-259.117 2186,-232 2243.1,-174.339 2285.89,-214.062 2365,-196 2366.09,-195.751 2367.19,-195.496 2368.31,-195.234"/>
<polygon fill="midnightblue" stroke="midnightblue" points="2369.55,-198.535 2378.44,-192.777 2367.9,-191.732 2369.55,-198.535"/>
</g>
<!-- Node65 -->
<g id="node189" class="node"><title>Node65</title>
<a xlink:href="_event_8h.html" target="_top" xlink:title="analysis/data/Event.h">
<polygon fill="white" stroke="black" points="1580.5,-355.5 1580.5,-376.5 1691.5,-376.5 1691.5,-355.5 1580.5,-355.5"/>
<text text-anchor="middle" x="1636" y="-363.5" font-family="Helvetica,sans-Serif" font-size="10.00">analysis/data/Event.h</text>
</a>
</g>
<!-- Node44&#45;&gt;Node65 -->
<g id="edge248" class="edge"><title>Node44&#45;&gt;Node65</title>
<path fill="none" stroke="midnightblue" d="M2079.75,-422.335C1980.88,-409.783 1799.02,-386.696 1701.64,-374.333"/>
<polygon fill="midnightblue" stroke="midnightblue" points="1701.99,-370.849 1691.63,-373.062 1701.11,-377.794 1701.99,-370.849"/>
</g>
<!-- Node68 -->
<g id="node212" class="node"><title>Node68</title>
<a xlink:href="_slowcontrol_8h.html" target="_top" xlink:title="analysis/data/Slowcontrol.h">
<polygon fill="white" stroke="black" points="3170.5,-355.5 3170.5,-376.5 3307.5,-376.5 3307.5,-355.5 3170.5,-355.5"/>
<text text-anchor="middle" x="3239" y="-363.5" font-family="Helvetica,sans-Serif" font-size="10.00">analysis/data/Slowcontrol.h</text>
</a>
</g>
<!-- Node44&#45;&gt;Node68 -->
<g id="edge288" class="edge"><title>Node44&#45;&gt;Node68</title>
<path fill="none" stroke="midnightblue" d="M2216.09,-429.774C2373.67,-426.477 2775.59,-415.436 3110,-384 3126.84,-382.417 3144.86,-380.221 3161.93,-377.907"/>
<polygon fill="midnightblue" stroke="midnightblue" points="3162.42,-381.372 3171.85,-376.534 3161.46,-374.438 3162.42,-381.372"/>
</g>
<!-- Node45&#45;&gt;Node12 -->
<g id="edge246" class="edge"><title>Node45&#45;&gt;Node12</title>
<path fill="none" stroke="midnightblue" d="M2612.27,-355.443C2672.1,-342.601 2752.52,-314.558 2792,-254 2803.37,-236.566 2792.62,-189.997 2780,-174 2733.95,-115.621 2513.31,-44.7219 2431.56,-20.0092"/>
<polygon fill="midnightblue" stroke="midnightblue" points="2432.44,-16.6196 2421.86,-17.0964 2430.43,-23.324 2432.44,-16.6196"/>
</g>
<!-- Node46 -->
<g id="node115" class="node"><title>Node46</title>
<a xlink:href="_histogram_8h.html" target="_top" xlink:title="Histogram.h">
<polygon fill="white" stroke="black" points="2713,-232.5 2713,-253.5 2783,-253.5 2783,-232.5 2713,-232.5"/>
<text text-anchor="middle" x="2748" y="-240.5" font-family="Helvetica,sans-Serif" font-size="10.00">Histogram.h</text>
</a>
</g>
<!-- Node45&#45;&gt;Node46 -->
<g id="edge138" class="edge"><title>Node45&#45;&gt;Node46</title>
<path fill="none" stroke="midnightblue" d="M2556.27,-355.3C2593.36,-333.573 2677.66,-284.2 2721.06,-258.777"/>
<polygon fill="midnightblue" stroke="midnightblue" points="2723.06,-261.662 2729.92,-253.588 2719.53,-255.622 2723.06,-261.662"/>
</g>
<!-- Node50 -->
<g id="node129" class="node"><title>Node50</title>
<a xlink:href="_smart_hist_8h.html" target="_top" xlink:title="SmartHist.h">
<polygon fill="white" stroke="black" points="2503.5,-290.5 2503.5,-311.5 2572.5,-311.5 2572.5,-290.5 2503.5,-290.5"/>
<text text-anchor="middle" x="2538" y="-298.5" font-family="Helvetica,sans-Serif" font-size="10.00">SmartHist.h</text>
</a>
</g>
<!-- Node45&#45;&gt;Node50 -->
<g id="edge158" class="edge"><title>Node45&#45;&gt;Node50</title>
<path fill="none" stroke="midnightblue" d="M2538,-355.267C2538,-346.18 2538,-332.892 2538,-321.74"/>
<polygon fill="midnightblue" stroke="midnightblue" points="2541.5,-321.534 2538,-311.534 2534.5,-321.534 2541.5,-321.534"/>
</g>
<!-- Node58 -->
<g id="node155" class="node"><title>Node58</title>
<a xlink:href="_particle_8h.html" target="_top" xlink:title="analysis/data/Particle.h">
<polygon fill="white" stroke="black" points="1608.5,-290.5 1608.5,-311.5 1727.5,-311.5 1727.5,-290.5 1608.5,-290.5"/>
<text text-anchor="middle" x="1668" y="-298.5" font-family="Helvetica,sans-Serif" font-size="10.00">analysis/data/Particle.h</text>
</a>
</g>
<!-- Node45&#45;&gt;Node58 -->
<g id="edge194" class="edge"><title>Node45&#45;&gt;Node58</title>
<path fill="none" stroke="midnightblue" d="M2453.79,-359.708C2282.5,-346.911 1896.33,-318.059 1737.87,-306.22"/>
<polygon fill="midnightblue" stroke="midnightblue" points="1737.99,-302.72 1727.76,-305.465 1737.47,-309.7 1737.99,-302.72"/>
</g>
<!-- Node46&#45;&gt;Node8 -->
<g id="edge142" class="edge"><title>Node46&#45;&gt;Node8</title>
<path fill="none" stroke="midnightblue" d="M2758.02,-232.264C2780.19,-207.68 2832.84,-144.441 2851,-80 2853.65,-70.5886 2855.66,-66.5984 2851,-58 2842.29,-41.9112 2825.42,-30.4549 2810.19,-22.883"/>
<polygon fill="midnightblue" stroke="midnightblue" points="2811.56,-19.6608 2801.01,-18.6637 2808.64,-26.0209 2811.56,-19.6608"/>
</g>
<!-- Node46&#45;&gt;Node12 -->
<g id="edge144" class="edge"><title>Node46&#45;&gt;Node12</title>
<path fill="none" stroke="midnightblue" d="M2735.99,-232.343C2701.66,-202.225 2599.39,-114.971 2504,-58 2480.55,-43.9916 2452.2,-31.3402 2431.18,-22.7015"/>
<polygon fill="midnightblue" stroke="midnightblue" points="2432.38,-19.4112 2421.8,-18.9096 2429.76,-25.9014 2432.38,-19.4112"/>
</g>
<!-- Node47 -->
<g id="node117" class="node"><title>Node47</title>
<polygon fill="white" stroke="#bfbfbf" points="2717,-174.5 2717,-195.5 2771,-195.5 2771,-174.5 2717,-174.5"/>
<text text-anchor="middle" x="2744" y="-182.5" font-family="Helvetica,sans-Serif" font-size="10.00">TColor.h</text>
</g>
<!-- Node46&#45;&gt;Node47 -->
<g id="edge140" class="edge"><title>Node46&#45;&gt;Node47</title>
<path fill="none" stroke="midnightblue" d="M2747.27,-232.362C2746.75,-224.922 2746.05,-214.743 2745.43,-205.728"/>
<polygon fill="midnightblue" stroke="midnightblue" points="2748.91,-205.306 2744.73,-195.571 2741.93,-205.788 2748.91,-205.306"/>
</g>
<!-- Node48 -->
<g id="node121" class="node"><title>Node48</title>
<a xlink:href="interval_8h.html" target="_top" xlink:title="base/interval.h">
<polygon fill="white" stroke="black" points="1575,-174.5 1575,-195.5 1655,-195.5 1655,-174.5 1575,-174.5"/>
<text text-anchor="middle" x="1615" y="-182.5" font-family="Helvetica,sans-Serif" font-size="10.00">base/interval.h</text>
</a>
</g>
<!-- Node46&#45;&gt;Node48 -->
<g id="edge146" class="edge"><title>Node46&#45;&gt;Node48</title>
<path fill="none" stroke="midnightblue" d="M2712.97,-237.559C2698.46,-235.5 2681.46,-233.334 2666,-232 2255.66,-196.581 2151.04,-222.06 1740,-196 1715.4,-194.44 1688.12,-192.11 1665.34,-189.995"/>
<polygon fill="midnightblue" stroke="midnightblue" points="1665.5,-186.495 1655.21,-189.042 1664.84,-193.464 1665.5,-186.495"/>
</g>
<!-- Node48&#45;&gt;Node7 -->
<g id="edge152" class="edge"><title>Node48&#45;&gt;Node7</title>
<path fill="none" stroke="midnightblue" d="M1609.46,-174.295C1599.42,-154.872 1578.05,-113.556 1565.27,-88.8462"/>
<polygon fill="midnightblue" stroke="midnightblue" points="1568.23,-86.9534 1560.52,-79.6792 1562.01,-90.1694 1568.23,-86.9534"/>
</g>
<!-- Node48&#45;&gt;Node14 -->
<g id="edge148" class="edge"><title>Node48&#45;&gt;Node14</title>
<path fill="none" stroke="midnightblue" d="M1618.41,-174.272C1625.45,-149.758 1638.46,-89.3388 1607,-58 1579.92,-31.021 1006.13,-15.5756 850.595,-11.8741"/>
<polygon fill="midnightblue" stroke="midnightblue" points="850.212,-8.36426 840.133,-11.6279 850.047,-15.3623 850.212,-8.36426"/>
</g>
<!-- Node48&#45;&gt;Node20 -->
<g id="edge150" class="edge"><title>Node48&#45;&gt;Node20</title>
<path fill="none" stroke="midnightblue" d="M1604.56,-174.288C1588.95,-158.918 1557.91,-130.83 1526,-116 1466.85,-88.5164 1391.26,-76.8896 1345.84,-72.1269"/>
<polygon fill="midnightblue" stroke="midnightblue" points="1346.1,-68.6351 1335.8,-71.1347 1345.41,-75.6011 1346.1,-68.6351"/>
</g>
<!-- Node48&#45;&gt;Node29 -->
<g id="edge156" class="edge"><title>Node48&#45;&gt;Node29</title>
<path fill="none" stroke="midnightblue" d="M1593.44,-174.395C1575.21,-165.239 1548.52,-151.407 1526,-138 1510.85,-128.984 1509.76,-121.453 1493,-116 1310.71,-56.695 823.904,-117.043 617.926,-79.4702"/>
<polygon fill="midnightblue" stroke="midnightblue" points="618.519,-76.0201 608.035,-77.5445 617.181,-82.8911 618.519,-76.0201"/>
</g>
<!-- Node49 -->
<g id="node126" class="node"><title>Node49</title>
<a xlink:href="types_8h.html" target="_top" xlink:title="types.h">
<polygon fill="white" stroke="black" points="1435.5,-116.5 1435.5,-137.5 1484.5,-137.5 1484.5,-116.5 1435.5,-116.5"/>
<text text-anchor="middle" x="1460" y="-124.5" font-family="Helvetica,sans-Serif" font-size="10.00">types.h</text>
</a>
</g>
<!-- Node48&#45;&gt;Node49 -->
<g id="edge154" class="edge"><title>Node48&#45;&gt;Node49</title>
<path fill="none" stroke="midnightblue" d="M1586.93,-174.497C1560.9,-164.757 1522.11,-150.24 1494.26,-139.82"/>
<polygon fill="midnightblue" stroke="midnightblue" points="1495.13,-136.41 1484.54,-136.184 1492.68,-142.966 1495.13,-136.41"/>
</g>
<!-- Node50&#45;&gt;Node12 -->
<g id="edge188" class="edge"><title>Node50&#45;&gt;Node12</title>
<path fill="none" stroke="midnightblue" d="M2545.25,-290.364C2553.52,-276.915 2565.25,-252.978 2560,-232 2538.33,-145.478 2520.08,-123.924 2460,-58 2449.67,-46.6618 2436.44,-35.859 2425.12,-27.4757"/>
<polygon fill="midnightblue" stroke="midnightblue" points="2427.09,-24.5754 2416.93,-21.5677 2422.99,-30.2541 2427.09,-24.5754"/>
</g>
<!-- Node50&#45;&gt;Node32 -->
<g id="edge186" class="edge"><title>Node50&#45;&gt;Node32</title>
<path fill="none" stroke="midnightblue" d="M2572.81,-297.503C2622.43,-291.862 2715.89,-278.794 2792,-254 2834.63,-240.114 2880.86,-216.237 2909.14,-200.533"/>
<polygon fill="midnightblue" stroke="midnightblue" points="2911,-203.498 2918.01,-195.547 2907.57,-197.397 2911,-203.498"/>
</g>
<!-- Node50&#45;&gt;Node38 -->
<g id="edge178" class="edge"><title>Node50&#45;&gt;Node38</title>
<path fill="none" stroke="midnightblue" d="M2572.64,-296.059C2632.06,-287.568 2757.25,-269.614 2863,-254 2864.08,-253.841 2865.16,-253.68 2866.26,-253.518"/>
<polygon fill="midnightblue" stroke="midnightblue" points="2866.87,-256.966 2876.25,-252.033 2865.84,-250.042 2866.87,-256.966"/>
</g>
<!-- Node50&#45;&gt;Node46 -->
<g id="edge160" class="edge"><title>Node50&#45;&gt;Node46</title>
<path fill="none" stroke="midnightblue" d="M2572.68,-291.422C2608.29,-281.587 2663.87,-266.235 2702.89,-255.46"/>
<polygon fill="midnightblue" stroke="midnightblue" points="2704.21,-258.724 2712.92,-252.689 2702.35,-251.977 2704.21,-258.724"/>
</g>
<!-- Node51 -->
<g id="node132" class="node"><title>Node51</title>
<a xlink:href="root__draw_8h.html" target="_top" xlink:title="root_draw.h">
<polygon fill="white" stroke="black" points="2195,-232.5 2195,-253.5 2263,-253.5 2263,-232.5 2195,-232.5"/>
<text text-anchor="middle" x="2229" y="-240.5" font-family="Helvetica,sans-Serif" font-size="10.00">root_draw.h</text>
</a>
</g>
<!-- Node50&#45;&gt;Node51 -->
<g id="edge162" class="edge"><title>Node50&#45;&gt;Node51</title>
<path fill="none" stroke="midnightblue" d="M2503.45,-294.515C2447.06,-283.931 2335.31,-262.955 2273.22,-251.299"/>
<polygon fill="midnightblue" stroke="midnightblue" points="2273.8,-247.848 2263.32,-249.443 2272.51,-254.728 2273.8,-247.848"/>
</g>
<!-- Node53 -->
<g id="node143" class="node"><title>Node53</title>
<polygon fill="white" stroke="#bfbfbf" points="2606.5,-232.5 2606.5,-253.5 2657.5,-253.5 2657.5,-232.5 2606.5,-232.5"/>
<text text-anchor="middle" x="2632" y="-240.5" font-family="Helvetica,sans-Serif" font-size="10.00">TH1D.h</text>
</g>
<!-- Node50&#45;&gt;Node53 -->
<g id="edge180" class="edge"><title>Node50&#45;&gt;Node53</title>
<path fill="none" stroke="midnightblue" d="M2555.24,-290.362C2569.55,-281.532 2590.11,-268.844 2606.36,-258.822"/>
<polygon fill="midnightblue" stroke="midnightblue" points="2608.2,-261.8 2614.87,-253.571 2604.52,-255.843 2608.2,-261.8"/>
</g>
<!-- Node54 -->
<g id="node145" class="node"><title>Node54</title>
<polygon fill="white" stroke="#bfbfbf" points="2356.5,-232.5 2356.5,-253.5 2407.5,-253.5 2407.5,-232.5 2356.5,-232.5"/>
<text text-anchor="middle" x="2382" y="-240.5" font-family="Helvetica,sans-Serif" font-size="10.00">TH2D.h</text>
</g>
<!-- Node50&#45;&gt;Node54 -->
<g id="edge182" class="edge"><title>Node50&#45;&gt;Node54</title>
<path fill="none" stroke="midnightblue" d="M2509.75,-290.497C2483.75,-280.831 2445.1,-266.46 2417.12,-256.059"/>
<polygon fill="midnightblue" stroke="midnightblue" points="2418.3,-252.764 2407.71,-252.559 2415.87,-259.325 2418.3,-252.764"/>
</g>
<!-- Node55 -->
<g id="node147" class="node"><title>Node55</title>
<polygon fill="white" stroke="#bfbfbf" points="2424.5,-232.5 2424.5,-253.5 2475.5,-253.5 2475.5,-232.5 2424.5,-232.5"/>
<text text-anchor="middle" x="2450" y="-240.5" font-family="Helvetica,sans-Serif" font-size="10.00">TH3D.h</text>
</g>
<!-- Node50&#45;&gt;Node55 -->
<g id="edge184" class="edge"><title>Node50&#45;&gt;Node55</title>
<path fill="none" stroke="midnightblue" d="M2521.86,-290.362C2508.59,-281.614 2489.57,-269.079 2474.43,-259.101"/>
<polygon fill="midnightblue" stroke="midnightblue" points="2476.31,-256.151 2466.04,-253.571 2472.46,-261.996 2476.31,-256.151"/>
</g>
<!-- Node56 -->
<g id="node151" class="node"><title>Node56</title>
<polygon fill="white" stroke="#bfbfbf" points="1971,-232.5 1971,-253.5 2025,-253.5 2025,-232.5 1971,-232.5"/>
<text text-anchor="middle" x="1998" y="-240.5" font-family="Helvetica,sans-Serif" font-size="10.00">iostream</text>
</g>
<!-- Node50&#45;&gt;Node56 -->
<g id="edge190" class="edge"><title>Node50&#45;&gt;Node56</title>
<path fill="none" stroke="midnightblue" d="M2503.4,-297.284C2406.82,-286.911 2134.91,-257.705 2035.23,-246.999"/>
<polygon fill="midnightblue" stroke="midnightblue" points="2035.35,-243.492 2025.04,-245.904 2034.6,-250.452 2035.35,-243.492"/>
</g>
<!-- Node57 -->
<g id="node153" class="node"><title>Node57</title>
<polygon fill="white" stroke="#bfbfbf" points="2492.5,-232.5 2492.5,-253.5 2551.5,-253.5 2551.5,-232.5 2492.5,-232.5"/>
<text text-anchor="middle" x="2522" y="-240.5" font-family="Helvetica,sans-Serif" font-size="10.00">exception</text>
</g>
<!-- Node50&#45;&gt;Node57 -->
<g id="edge192" class="edge"><title>Node50&#45;&gt;Node57</title>
<path fill="none" stroke="midnightblue" d="M2535.07,-290.362C2532.99,-282.84 2530.14,-272.519 2527.64,-263.431"/>
<polygon fill="midnightblue" stroke="midnightblue" points="2530.95,-262.28 2524.92,-253.571 2524.2,-264.141 2530.95,-262.28"/>
</g>
<!-- Node51&#45;&gt;Node6 -->
<g id="edge176" class="edge"><title>Node51&#45;&gt;Node6</title>
<path fill="none" stroke="midnightblue" d="M2263.07,-235.123C2267.75,-234.062 2272.49,-232.997 2277,-232 2354.54,-214.858 2501.35,-230.947 2446,-174 2421.56,-148.851 1219.02,-139.774 1184,-138 1145.61,-136.055 1101.8,-132.742 1071.29,-130.259"/>
<polygon fill="midnightblue" stroke="midnightblue" points="1071.34,-126.751 1061.09,-129.419 1070.76,-133.728 1071.34,-126.751"/>
</g>
<!-- Node51&#45;&gt;Node8 -->
<g id="edge168" class="edge"><title>Node51&#45;&gt;Node8</title>
<path fill="none" stroke="midnightblue" d="M2263.39,-233.038C2264.94,-232.671 2266.49,-232.322 2268,-232 2376.5,-208.893 2408.04,-225.456 2515,-196 2579.93,-178.117 2596.52,-171.417 2655,-138 2692.2,-116.742 2702.43,-111.008 2732,-80 2746.44,-64.8551 2759.54,-44.8467 2768.22,-30.2774"/>
<polygon fill="midnightblue" stroke="midnightblue" points="2771.27,-32.0011 2773.26,-21.5945 2765.21,-28.4896 2771.27,-32.0011"/>
</g>
<!-- Node51&#45;&gt;Node12 -->
<g id="edge164" class="edge"><title>Node51&#45;&gt;Node12</title>
<path fill="none" stroke="midnightblue" d="M2263.4,-233.056C2264.95,-232.684 2266.49,-232.33 2268,-232 2318.76,-220.928 2465.21,-235.463 2499,-196 2522.61,-168.421 2449.68,-71.2116 2416.52,-29.8521"/>
<polygon fill="midnightblue" stroke="midnightblue" points="2419.1,-27.4875 2410.09,-21.9193 2413.66,-31.8932 2419.1,-27.4875"/>
</g>
<!-- Node51&#45;&gt;Node32 -->
<g id="edge172" class="edge"><title>Node51&#45;&gt;Node32</title>
<path fill="none" stroke="midnightblue" d="M2263.23,-234.482C2267.84,-233.533 2272.52,-232.669 2277,-232 2280.89,-231.419 2762.72,-197.272 2899.93,-187.554"/>
<polygon fill="midnightblue" stroke="midnightblue" points="2900.2,-191.043 2909.93,-186.846 2899.71,-184.061 2900.2,-191.043"/>
</g>
<!-- Node51&#45;&gt;Node39 -->
<g id="edge166" class="edge"><title>Node51&#45;&gt;Node39</title>
<path fill="none" stroke="midnightblue" d="M2263.04,-234.982C2267.73,-233.943 2272.48,-232.921 2277,-232 2368.53,-213.368 2543.91,-241.167 2479,-174 2438.36,-131.948 1485.43,-140.46 1427,-138 1356.13,-135.016 1272.46,-130.581 1231.74,-128.364"/>
<polygon fill="midnightblue" stroke="midnightblue" points="1231.85,-124.865 1221.67,-127.814 1231.47,-131.855 1231.85,-124.865"/>
</g>
<!-- Node51&#45;&gt;Node42 -->
<g id="edge170" class="edge"><title>Node51&#45;&gt;Node42</title>
<path fill="none" stroke="midnightblue" d="M2243.12,-232.362C2254.52,-223.777 2270.76,-211.546 2283.88,-201.664"/>
<polygon fill="midnightblue" stroke="midnightblue" points="2286.08,-204.383 2291.97,-195.571 2281.87,-198.792 2286.08,-204.383"/>
</g>
<!-- Node51&#45;&gt;Node52 -->
<g id="edge174" class="edge"><title>Node51&#45;&gt;Node52</title>
<path fill="none" stroke="midnightblue" d="M2261.42,-232.497C2291.64,-222.704 2336.76,-208.083 2368.95,-197.652"/>
<polygon fill="midnightblue" stroke="midnightblue" points="2370.06,-200.972 2378.5,-194.559 2367.91,-194.312 2370.06,-200.972"/>
</g>
<!-- Node58&#45;&gt;Node7 -->
<g id="edge196" class="edge"><title>Node58&#45;&gt;Node7</title>
<path fill="none" stroke="midnightblue" d="M1667.86,-290.369C1668.27,-275.1 1671.42,-247.137 1688,-232 1751.95,-173.616 1892.11,-258.677 1874,-174 1868.09,-146.375 1870.42,-133.191 1848,-116 1811.35,-87.8915 1682.29,-76.1005 1608.25,-71.5588"/>
<polygon fill="midnightblue" stroke="midnightblue" points="1608.38,-68.0601 1598.19,-70.9651 1607.97,-75.0479 1608.38,-68.0601"/>
</g>
<!-- Node58&#45;&gt;Node8 -->
<g id="edge240" class="edge"><title>Node58&#45;&gt;Node8</title>
<path fill="none" stroke="midnightblue" d="M1705.05,-290.441C1734.04,-281.772 1775.14,-268.584 1810,-254 1829.8,-245.714 1832.42,-238.097 1853,-232 2002.09,-187.836 2051.33,-238.163 2201,-196 2222.81,-189.855 2225.67,-181.649 2247,-174 2267.47,-166.659 2606.46,-87.1358 2627,-80 2670.97,-64.7266 2719.6,-41.4571 2749.73,-26.2375"/>
<polygon fill="midnightblue" stroke="midnightblue" points="2751.52,-29.2574 2758.84,-21.5993 2748.34,-23.0201 2751.52,-29.2574"/>
</g>
<!-- Node58&#45;&gt;Node39 -->
<g id="edge242" class="edge"><title>Node58&#45;&gt;Node39</title>
<path fill="none" stroke="midnightblue" d="M1608.39,-297.815C1511.69,-292.025 1325.28,-278.09 1264,-254 1223.46,-238.064 1204.68,-234.859 1185,-196 1176.89,-179.989 1184.66,-160.382 1193.13,-146.167"/>
<polygon fill="midnightblue" stroke="midnightblue" points="1196.12,-147.988 1198.63,-137.695 1190.25,-144.175 1196.12,-147.988"/>
</g>
<!-- Node58&#45;&gt;Node49 -->
<g id="edge198" class="edge"><title>Node58&#45;&gt;Node49</title>
<path fill="none" stroke="midnightblue" d="M1609.43,-290.447C1568.15,-281.921 1517.58,-268.914 1502,-254 1472.37,-225.628 1463.63,-175.935 1461.06,-147.859"/>
<polygon fill="midnightblue" stroke="midnightblue" points="1464.53,-147.316 1460.31,-137.597 1457.55,-147.825 1464.53,-147.316"/>
</g>
<!-- Node58&#45;&gt;Node56 -->
<g id="edge244" class="edge"><title>Node58&#45;&gt;Node56</title>
<path fill="none" stroke="midnightblue" d="M1727.55,-293.106C1786.21,-284.91 1878.23,-270.927 1957,-254 1958.26,-253.73 1959.53,-253.446 1960.82,-253.15"/>
<polygon fill="midnightblue" stroke="midnightblue" points="1961.86,-256.498 1970.75,-250.723 1960.2,-249.698 1961.86,-256.498"/>
</g>
<!-- Node59 -->
<g id="node159" class="node"><title>Node59</title>
<a xlink:href="_particle_type_8h.html" target="_top" xlink:title="base/ParticleType.h">
<polygon fill="white" stroke="black" points="1697,-232.5 1697,-253.5 1801,-253.5 1801,-232.5 1697,-232.5"/>
<text text-anchor="middle" x="1749" y="-240.5" font-family="Helvetica,sans-Serif" font-size="10.00">base/ParticleType.h</text>
</a>
</g>
<!-- Node58&#45;&gt;Node59 -->
<g id="edge200" class="edge"><title>Node58&#45;&gt;Node59</title>
<path fill="none" stroke="midnightblue" d="M1682.86,-290.362C1694.85,-281.777 1711.93,-269.546 1725.73,-259.664"/>
<polygon fill="midnightblue" stroke="midnightblue" points="1728.14,-262.238 1734.24,-253.571 1724.07,-256.547 1728.14,-262.238"/>
</g>
<!-- Node61 -->
<g id="node168" class="node"><title>Node61</title>
<a xlink:href="_candidate_8h.html" target="_top" xlink:title="analysis/data/Candidate.h">
<polygon fill="white" stroke="black" points="1511,-232.5 1511,-253.5 1641,-253.5 1641,-232.5 1511,-232.5"/>
<text text-anchor="middle" x="1576" y="-240.5" font-family="Helvetica,sans-Serif" font-size="10.00">analysis/data/Candidate.h</text>
</a>
</g>
<!-- Node58&#45;&gt;Node61 -->
<g id="edge214" class="edge"><title>Node58&#45;&gt;Node61</title>
<path fill="none" stroke="midnightblue" d="M1651.13,-290.362C1637.25,-281.614 1617.37,-269.079 1601.54,-259.101"/>
<polygon fill="midnightblue" stroke="midnightblue" points="1603.09,-255.943 1592.77,-253.571 1599.36,-261.864 1603.09,-255.943"/>
</g>
<!-- Node64 -->
<g id="node183" class="node"><title>Node64</title>
<polygon fill="white" stroke="#bfbfbf" points="1351,-174.5 1351,-195.5 1443,-195.5 1443,-174.5 1351,-174.5"/>
<text text-anchor="middle" x="1397" y="-182.5" font-family="Helvetica,sans-Serif" font-size="10.00">TLorentzVector.h</text>
</g>
<!-- Node58&#45;&gt;Node64 -->
<g id="edge238" class="edge"><title>Node58&#45;&gt;Node64</title>
<path fill="none" stroke="midnightblue" d="M1608.24,-294.871C1531.57,-286.396 1406.74,-270.29 1393,-254 1381.81,-240.735 1384.54,-220.436 1389.03,-205.284"/>
<polygon fill="midnightblue" stroke="midnightblue" points="1392.36,-206.361 1392.28,-195.767 1385.74,-204.103 1392.36,-206.361"/>
</g>
<!-- Node59&#45;&gt;Node8 -->
<g id="edge212" class="edge"><title>Node59&#45;&gt;Node8</title>
<path fill="none" stroke="midnightblue" d="M1801.19,-233.99C1805.86,-233.279 1810.51,-232.604 1815,-232 1970.42,-211.099 2015.62,-240.475 2166,-196 2186.59,-189.912 2188.91,-181.573 2209,-174 2368.16,-113.995 2417.05,-128.796 2580,-80 2639.78,-62.0998 2708.28,-37.4045 2747.32,-22.9268"/>
<polygon fill="midnightblue" stroke="midnightblue" points="2748.67,-26.1592 2756.82,-19.3895 2746.23,-19.5992 2748.67,-26.1592"/>
</g>
<!-- Node59&#45;&gt;Node9 -->
<g id="edge206" class="edge"><title>Node59&#45;&gt;Node9</title>
<path fill="none" stroke="midnightblue" d="M1801.09,-234.305C1865.14,-223.34 1967.33,-204.854 1983,-196 2013.4,-178.822 2023.37,-170.554 2036,-138 2039.54,-128.885 2036.83,-125.742 2036,-116 2033.77,-89.9371 2044.66,-76.3309 2026,-58 2007.02,-39.3537 1833.83,-21.3442 1757.2,-14.2115"/>
<polygon fill="midnightblue" stroke="midnightblue" points="1757.33,-10.709 1747.05,-13.2783 1756.69,-17.6795 1757.33,-10.709"/>
</g>
<!-- Node59&#45;&gt;Node12 -->
<g id="edge204" class="edge"><title>Node59&#45;&gt;Node12</title>
<path fill="none" stroke="midnightblue" d="M1801.23,-234.034C1875.02,-221.312 2002.02,-199.201 2012,-196 2154.92,-150.16 2312.83,-62.491 2374.39,-26.7526"/>
<polygon fill="midnightblue" stroke="midnightblue" points="2376.22,-29.7361 2383.09,-21.672 2372.69,-23.6907 2376.22,-29.7361"/>
</g>
<!-- Node59&#45;&gt;Node42 -->
<g id="edge208" class="edge"><title>Node59&#45;&gt;Node42</title>
<path fill="none" stroke="midnightblue" d="M1801.15,-237.57C1916.42,-225.567 2189.63,-197.117 2277.94,-187.921"/>
<polygon fill="midnightblue" stroke="midnightblue" points="2278.42,-191.391 2288,-186.874 2277.7,-184.428 2278.42,-191.391"/>
</g>
<!-- Node59&#45;&gt;Node49 -->
<g id="edge202" class="edge"><title>Node59&#45;&gt;Node49</title>
<path fill="none" stroke="midnightblue" d="M1696.62,-234.259C1659.19,-226.894 1608.19,-214.549 1566,-196 1564.9,-195.517 1515.91,-163.542 1484.92,-143.294"/>
<polygon fill="midnightblue" stroke="midnightblue" points="1486.62,-140.223 1476.34,-137.682 1482.79,-146.082 1486.62,-140.223"/>
</g>
<!-- Node60 -->
<g id="node165" class="node"><title>Node60</title>
<polygon fill="white" stroke="#bfbfbf" points="2110.5,-174.5 2110.5,-195.5 2157.5,-195.5 2157.5,-174.5 2110.5,-174.5"/>
<text text-anchor="middle" x="2134" y="-182.5" font-family="Helvetica,sans-Serif" font-size="10.00">iterator</text>
</g>
<!-- Node59&#45;&gt;Node60 -->
<g id="edge210" class="edge"><title>Node59&#45;&gt;Node60</title>
<path fill="none" stroke="midnightblue" d="M1801.21,-234.109C1805.87,-233.373 1810.52,-232.659 1815,-232 1940.01,-213.611 1973.37,-222.089 2097,-196 2098.08,-195.772 2099.18,-195.527 2100.28,-195.269"/>
<polygon fill="midnightblue" stroke="midnightblue" points="2101.46,-198.578 2110.26,-192.674 2099.7,-191.804 2101.46,-198.578"/>
</g>
<!-- Node61&#45;&gt;Node7 -->
<g id="edge216" class="edge"><title>Node61&#45;&gt;Node7</title>
<path fill="none" stroke="midnightblue" d="M1615.07,-232.392C1633.31,-225.267 1653.31,-213.826 1664,-196 1669.03,-187.614 1667.83,-182.998 1664,-174 1647.37,-134.896 1608.25,-103.295 1581.7,-85.3232"/>
<polygon fill="midnightblue" stroke="midnightblue" points="1583.5,-82.322 1573.22,-79.7597 1579.66,-88.1736 1583.5,-82.322"/>
</g>
<!-- Node61&#45;&gt;Node8 -->
<g id="edge236" class="edge"><title>Node61&#45;&gt;Node8</title>
<path fill="none" stroke="midnightblue" d="M1641.29,-236.189C1713.61,-228.247 1833.55,-213.895 1936,-196 2099.83,-167.384 2613.41,-49.2883 2746.99,-18.4134"/>
<polygon fill="midnightblue" stroke="midnightblue" points="2748.04,-21.7637 2756.99,-16.1005 2746.46,-14.9437 2748.04,-21.7637"/>
</g>
<!-- Node61&#45;&gt;Node9 -->
<g id="edge232" class="edge"><title>Node61&#45;&gt;Node9</title>
<path fill="none" stroke="midnightblue" d="M1620.76,-232.436C1641.34,-225.383 1664.36,-213.991 1679,-196 1718.56,-147.379 1722.51,-68.8072 1721.94,-31.6866"/>
<polygon fill="midnightblue" stroke="midnightblue" points="1725.43,-31.4719 1721.65,-21.5762 1718.43,-31.6724 1725.43,-31.4719"/>
</g>
<!-- Node61&#45;&gt;Node32 -->
<g id="edge234" class="edge"><title>Node61&#45;&gt;Node32</title>
<path fill="none" stroke="midnightblue" d="M1641.09,-235.886C1656.46,-234.407 1672.79,-232.996 1688,-232 2172.56,-200.251 2295.05,-221.082 2780,-196 2821.05,-193.877 2868.1,-190.418 2899.7,-187.946"/>
<polygon fill="midnightblue" stroke="midnightblue" points="2900.1,-191.425 2909.8,-187.149 2899.55,-184.447 2900.1,-191.425"/>
</g>
<!-- Node61&#45;&gt;Node34 -->
<g id="edge220" class="edge"><title>Node61&#45;&gt;Node34</title>
<path fill="none" stroke="midnightblue" d="M1641.1,-235.905C1730.67,-225.814 1883.57,-207.293 1907,-196 1931.12,-184.372 1952.57,-161.867 1965.88,-145.717"/>
<polygon fill="midnightblue" stroke="midnightblue" points="1968.92,-147.517 1972.39,-137.509 1963.43,-143.164 1968.92,-147.517"/>
</g>
<!-- Node61&#45;&gt;Node49 -->
<g id="edge218" class="edge"><title>Node61&#45;&gt;Node49</title>
<path fill="none" stroke="midnightblue" d="M1565.29,-232.295C1545.35,-212.355 1502.34,-169.337 1477.91,-144.906"/>
<polygon fill="midnightblue" stroke="midnightblue" points="1480.23,-142.275 1470.68,-137.679 1475.28,-147.225 1480.23,-142.275"/>
</g>
<!-- Node62 -->
<g id="node173" class="node"><title>Node62</title>
<a xlink:href="_cluster_8h.html" target="_top" xlink:title="analysis/data/Cluster.h">
<polygon fill="white" stroke="black" points="1748.5,-174.5 1748.5,-195.5 1865.5,-195.5 1865.5,-174.5 1748.5,-174.5"/>
<text text-anchor="middle" x="1807" y="-182.5" font-family="Helvetica,sans-Serif" font-size="10.00">analysis/data/Cluster.h</text>
</a>
</g>
<!-- Node61&#45;&gt;Node62 -->
<g id="edge222" class="edge"><title>Node61&#45;&gt;Node62</title>
<path fill="none" stroke="midnightblue" d="M1617.83,-232.497C1656.39,-222.816 1713.74,-208.416 1755.18,-198.01"/>
<polygon fill="midnightblue" stroke="midnightblue" points="1756.24,-201.353 1765.09,-195.523 1754.54,-194.564 1756.24,-201.353"/>
</g>
<!-- Node62&#45;&gt;Node34 -->
<g id="edge224" class="edge"><title>Node62&#45;&gt;Node34</title>
<path fill="none" stroke="midnightblue" d="M1838.33,-174.497C1866.53,-165.041 1908.17,-151.083 1939.01,-140.743"/>
<polygon fill="midnightblue" stroke="midnightblue" points="1940.24,-144.02 1948.61,-137.523 1938.02,-137.383 1940.24,-144.02"/>
</g>
<!-- Node62&#45;&gt;Node35 -->
<g id="edge228" class="edge"><title>Node62&#45;&gt;Node35</title>
<path fill="none" stroke="midnightblue" d="M1816.53,-174.244C1824.89,-164.764 1837.35,-150.547 1848,-138 1862.32,-121.128 1878.35,-101.67 1889.76,-87.7274"/>
<polygon fill="midnightblue" stroke="midnightblue" points="1892.59,-89.791 1896.2,-79.831 1887.17,-85.3644 1892.59,-89.791"/>
</g>
<!-- Node62&#45;&gt;Node39 -->
<g id="edge226" class="edge"><title>Node62&#45;&gt;Node39</title>
<path fill="none" stroke="midnightblue" d="M1748.38,-179.333C1620.28,-166.95 1319.81,-137.905 1231.7,-129.388"/>
<polygon fill="midnightblue" stroke="midnightblue" points="1231.88,-125.889 1221.59,-128.41 1231.21,-132.856 1231.88,-125.889"/>
</g>
<!-- Node63 -->
<g id="node178" class="node"><title>Node63</title>
<a xlink:href="enumfield_8h.html" target="_top" xlink:title="base/enumfield.h">
<polygon fill="white" stroke="black" points="1748.5,-116.5 1748.5,-137.5 1839.5,-137.5 1839.5,-116.5 1748.5,-116.5"/>
<text text-anchor="middle" x="1794" y="-124.5" font-family="Helvetica,sans-Serif" font-size="10.00">base/enumfield.h</text>
</a>
</g>
<!-- Node62&#45;&gt;Node63 -->
<g id="edge230" class="edge"><title>Node62&#45;&gt;Node63</title>
<path fill="none" stroke="midnightblue" d="M1804.62,-174.362C1802.93,-166.84 1800.62,-156.519 1798.58,-147.431"/>
<polygon fill="midnightblue" stroke="midnightblue" points="1801.97,-146.563 1796.37,-137.571 1795.14,-148.094 1801.97,-146.563"/>
</g>
<!-- Node65&#45;&gt;Node7 -->
<g id="edge280" class="edge"><title>Node65&#45;&gt;Node7</title>
<path fill="none" stroke="midnightblue" d="M1580.3,-363.258C1457.63,-356.753 1172.24,-338.889 1138,-312 1096.12,-279.111 1112.09,-249.094 1108,-196 1107.25,-186.251 1103.66,-182.764 1108,-174 1110.36,-169.24 1179.09,-118.014 1184,-116 1240.34,-92.9098 1413.3,-78.4239 1501.73,-72.3296"/>
<polygon fill="midnightblue" stroke="midnightblue" points="1502.08,-75.8138 1511.82,-71.6452 1501.61,-68.8298 1502.08,-75.8138"/>
</g>
<!-- Node65&#45;&gt;Node8 -->
<g id="edge282" class="edge"><title>Node65&#45;&gt;Node8</title>
<path fill="none" stroke="midnightblue" d="M1656.72,-355.493C1713.8,-326.71 1872.84,-247.692 1929,-232 2062.16,-194.793 2105.88,-236.76 2238,-196 2258.14,-189.788 2260.17,-181.138 2280,-174 2352.66,-147.837 2374.88,-155.934 2450,-138 2547.52,-114.718 2575.97,-119.789 2668,-80 2700.77,-65.8328 2735.18,-43.0193 2756.84,-27.5371"/>
<polygon fill="midnightblue" stroke="midnightblue" points="2758.99,-30.3016 2765.03,-21.5971 2754.88,-24.6351 2758.99,-30.3016"/>
</g>
<!-- Node65&#45;&gt;Node32 -->
<g id="edge284" class="edge"><title>Node65&#45;&gt;Node32</title>
<path fill="none" stroke="midnightblue" d="M1691.82,-361.795C1804.2,-352.115 2064.72,-323.521 2272,-254 2292.35,-247.174 2294.33,-237.813 2315,-232 2329.17,-228.013 2769.03,-196.769 2899.73,-187.551"/>
<polygon fill="midnightblue" stroke="midnightblue" points="2900.27,-191.022 2910,-186.827 2899.78,-184.039 2900.27,-191.022"/>
</g>
<!-- Node65&#45;&gt;Node42 -->
<g id="edge286" class="edge"><title>Node65&#45;&gt;Node42</title>
<path fill="none" stroke="midnightblue" d="M1691.62,-362.577C1743.39,-357.412 1821.31,-344.46 1881,-312 1925.45,-287.828 1916.37,-253.865 1962,-232 2088.28,-171.49 2138.59,-227.616 2275,-196 2276.08,-195.749 2277.18,-195.472 2278.29,-195.174"/>
<polygon fill="midnightblue" stroke="midnightblue" points="2279.66,-198.412 2288.17,-192.1 2277.59,-191.728 2279.66,-198.412"/>
</g>
<!-- Node65&#45;&gt;Node49 -->
<g id="edge278" class="edge"><title>Node65&#45;&gt;Node49</title>
<path fill="none" stroke="midnightblue" d="M1590.01,-355.444C1494.84,-333.14 1283.5,-281.05 1264,-254 1217.43,-189.392 1357.7,-149.163 1425.52,-133.937"/>
<polygon fill="midnightblue" stroke="midnightblue" points="1426.34,-137.342 1435.36,-131.79 1424.84,-130.503 1426.34,-137.342"/>
</g>
<!-- Node65&#45;&gt;Node58 -->
<g id="edge250" class="edge"><title>Node65&#45;&gt;Node58</title>
<path fill="none" stroke="midnightblue" d="M1641.28,-355.267C1645.9,-345.896 1652.71,-332.057 1658.3,-320.7"/>
<polygon fill="midnightblue" stroke="midnightblue" points="1661.54,-322.051 1662.81,-311.534 1655.26,-318.96 1661.54,-322.051"/>
</g>
<!-- Node65&#45;&gt;Node61 -->
<g id="edge252" class="edge"><title>Node65&#45;&gt;Node61</title>
<path fill="none" stroke="midnightblue" d="M1627.7,-355.327C1619.78,-344.775 1607.93,-327.941 1600,-312 1592.17,-296.253 1585.78,-277.322 1581.57,-263.276"/>
<polygon fill="midnightblue" stroke="midnightblue" points="1584.92,-262.259 1578.79,-253.62 1578.19,-264.199 1584.92,-262.259"/>
</g>
<!-- Node66 -->
<g id="node193" class="node"><title>Node66</title>
<a xlink:href="_tagger_hit_8h.html" target="_top" xlink:title="TaggerHit.h">
<polygon fill="white" stroke="black" points="1273,-232.5 1273,-253.5 1341,-253.5 1341,-232.5 1273,-232.5"/>
<text text-anchor="middle" x="1307" y="-240.5" font-family="Helvetica,sans-Serif" font-size="10.00">TaggerHit.h</text>
</a>
</g>
<!-- Node65&#45;&gt;Node66 -->
<g id="edge254" class="edge"><title>Node65&#45;&gt;Node66</title>
<path fill="none" stroke="midnightblue" d="M1607.66,-355.407C1548.51,-333.291 1411.85,-282.201 1345.09,-257.241"/>
<polygon fill="midnightblue" stroke="midnightblue" points="1345.98,-253.835 1335.38,-253.612 1343.52,-260.392 1345.98,-253.835"/>
</g>
<!-- Node67 -->
<g id="node200" class="node"><title>Node67</title>
<a xlink:href="_trigger_info_8h.html" target="_top" xlink:title="TriggerInfo.h">
<polygon fill="white" stroke="black" points="1146.5,-290.5 1146.5,-311.5 1217.5,-311.5 1217.5,-290.5 1146.5,-290.5"/>
<text text-anchor="middle" x="1182" y="-298.5" font-family="Helvetica,sans-Serif" font-size="10.00">TriggerInfo.h</text>
</a>
</g>
<!-- Node65&#45;&gt;Node67 -->
<g id="edge266" class="edge"><title>Node65&#45;&gt;Node67</title>
<path fill="none" stroke="midnightblue" d="M1580.27,-355.465C1565.57,-352.853 1549.71,-350.18 1535,-348 1400.41,-328.056 1365.11,-334.931 1231,-312 1229.9,-311.813 1228.8,-311.617 1227.68,-311.413"/>
<polygon fill="midnightblue" stroke="midnightblue" points="1228,-307.909 1217.51,-309.423 1226.65,-314.778 1228,-307.909"/>
</g>
<!-- Node66&#45;&gt;Node7 -->
<g id="edge262" class="edge"><title>Node66&#45;&gt;Node7</title>
<path fill="none" stroke="midnightblue" d="M1306.51,-232.07C1306.41,-217.437 1308.24,-191.317 1321,-174 1364.03,-115.624 1447.01,-89.0269 1501.7,-77.401"/>
<polygon fill="midnightblue" stroke="midnightblue" points="1502.47,-80.8179 1511.57,-75.4001 1501.07,-73.9575 1502.47,-80.8179"/>
</g>
<!-- Node66&#45;&gt;Node32 -->
<g id="edge258" class="edge"><title>Node66&#45;&gt;Node32</title>
<path fill="none" stroke="midnightblue" d="M1341.15,-240.781C1380.07,-238.321 1445.59,-234.385 1502,-232 2069.72,-207.996 2212.46,-223.99 2780,-196 2821.05,-193.975 2868.11,-190.499 2899.71,-187.995"/>
<polygon fill="midnightblue" stroke="midnightblue" points="2900.11,-191.474 2909.8,-187.187 2899.55,-184.496 2900.11,-191.474"/>
</g>
<!-- Node66&#45;&gt;Node39 -->
<g id="edge256" class="edge"><title>Node66&#45;&gt;Node39</title>
<path fill="none" stroke="midnightblue" d="M1272.98,-238.787C1246.78,-233.558 1212.22,-221.902 1195,-196 1185.37,-181.521 1190.25,-161.688 1196.42,-147"/>
<polygon fill="midnightblue" stroke="midnightblue" points="1199.67,-148.322 1200.75,-137.783 1193.33,-145.35 1199.67,-148.322"/>
</g>
<!-- Node66&#45;&gt;Node49 -->
<g id="edge260" class="edge"><title>Node66&#45;&gt;Node49</title>
<path fill="none" stroke="midnightblue" d="M1309.78,-232.429C1314.21,-217.489 1324.25,-190.216 1342,-174 1365.32,-152.694 1399.5,-140.515 1425.07,-133.921"/>
<polygon fill="midnightblue" stroke="midnightblue" points="1426.2,-137.249 1435.1,-131.504 1424.56,-130.444 1426.2,-137.249"/>
</g>
<!-- Node66&#45;&gt;Node64 -->
<g id="edge264" class="edge"><title>Node66&#45;&gt;Node64</title>
<path fill="none" stroke="midnightblue" d="M1323.51,-232.362C1337.08,-223.614 1356.53,-211.079 1372.01,-201.101"/>
<polygon fill="midnightblue" stroke="midnightblue" points="1374.09,-203.93 1380.6,-195.571 1370.3,-198.046 1374.09,-203.93"/>
</g>
<!-- Node67&#45;&gt;Node4 -->
<g id="edge272" class="edge"><title>Node67&#45;&gt;Node4</title>
<path fill="none" stroke="midnightblue" d="M1146.2,-296.968C1056.68,-286.886 822.87,-260.554 718.549,-248.806"/>
<polygon fill="midnightblue" stroke="midnightblue" points="718.898,-245.323 708.569,-247.682 718.114,-252.279 718.898,-245.323"/>
</g>
<!-- Node67&#45;&gt;Node7 -->
<g id="edge270" class="edge"><title>Node67&#45;&gt;Node7</title>
<path fill="none" stroke="midnightblue" d="M1159.06,-290.348C1144.62,-282.408 1126.89,-270.152 1117,-254 1084.02,-200.127 1096.32,-147.623 1151,-116 1180.73,-98.8049 1398.64,-80.598 1501.51,-72.85"/>
<polygon fill="midnightblue" stroke="midnightblue" points="1501.98,-76.3249 1511.69,-72.0892 1501.45,-69.3443 1501.98,-76.3249"/>
</g>
<!-- Node67&#45;&gt;Node32 -->
<g id="edge276" class="edge"><title>Node67&#45;&gt;Node32</title>
<path fill="none" stroke="midnightblue" d="M1217.84,-299.187C1313.93,-294.136 1585.3,-278.64 1810,-254 1877.85,-246.56 1894.04,-238.397 1962,-232 2324.31,-197.894 2416.69,-216.8 2780,-196 2821.04,-193.651 2868.09,-190.233 2899.7,-187.832"/>
<polygon fill="midnightblue" stroke="midnightblue" points="2900.09,-191.313 2909.79,-187.06 2899.55,-184.333 2900.09,-191.313"/>
</g>
<!-- Node67&#45;&gt;Node39 -->
<g id="edge274" class="edge"><title>Node67&#45;&gt;Node39</title>
<path fill="none" stroke="midnightblue" d="M1169.53,-290.499C1144.81,-268.374 1094.07,-215.584 1119,-174 1126.21,-161.977 1159.49,-146.367 1182.98,-136.513"/>
<polygon fill="midnightblue" stroke="midnightblue" points="1184.43,-139.704 1192.35,-132.67 1181.77,-133.228 1184.43,-139.704"/>
</g>
<!-- Node67&#45;&gt;Node49 -->
<g id="edge268" class="edge"><title>Node67&#45;&gt;Node49</title>
<path fill="none" stroke="midnightblue" d="M1186.38,-290.174C1196.96,-265.453 1226.39,-204.63 1271,-174 1295.88,-156.92 1377.95,-140.808 1425.36,-132.618"/>
<polygon fill="midnightblue" stroke="midnightblue" points="1426.21,-136.024 1435.49,-130.899 1425.04,-129.123 1426.21,-136.024"/>
</g>
<!-- Node68&#45;&gt;Node8 -->
<g id="edge290" class="edge"><title>Node68&#45;&gt;Node8</title>
<path fill="none" stroke="midnightblue" d="M3247.86,-355.32C3272.45,-324.311 3337.02,-232.745 3294,-174 3234.73,-93.0709 2914.88,-33.5727 2811.35,-16.2026"/>
<polygon fill="midnightblue" stroke="midnightblue" points="2811.63,-12.7014 2801.2,-14.5177 2810.49,-19.6071 2811.63,-12.7014"/>
</g>
<!-- Node69&#45;&gt;Node12 -->
<g id="edge314" class="edge"><title>Node69&#45;&gt;Node12</title>
<path fill="none" stroke="midnightblue" d="M980.989,-348.766C918.907,-315.126 798.427,-238.372 853,-174 884.61,-136.714 1023.2,-152.128 1070,-138 1092.85,-131.1 1096.98,-125.222 1119,-116 1184.55,-88.549 1198.44,-72.559 1268,-58 1378.48,-34.8753 2200.26,-15.4643 2370.27,-11.671"/>
<polygon fill="midnightblue" stroke="midnightblue" points="2370.38,-15.1696 2380.3,-11.4486 2370.22,-8.17135 2370.38,-15.1696"/>
</g>
<!-- Node69&#45;&gt;Node39 -->
<g id="edge316" class="edge"><title>Node69&#45;&gt;Node39</title>
<path fill="none" stroke="midnightblue" d="M1011.94,-348.912C1006.4,-312.053 998.997,-224.348 1043,-174 1061.34,-153.016 1141.34,-137.486 1182.43,-130.73"/>
<polygon fill="midnightblue" stroke="midnightblue" points="1183.12,-134.164 1192.45,-129.131 1182.02,-127.251 1183.12,-134.164"/>
</g>
<!-- Node69&#45;&gt;Node48 -->
<g id="edge306" class="edge"><title>Node69&#45;&gt;Node48</title>
<path fill="none" stroke="midnightblue" d="M1073.5,-352.152C1116.01,-341.817 1174.82,-326.954 1226,-312 1335.14,-280.109 1360.88,-267.199 1469,-232 1503.65,-220.718 1542.98,-208.066 1572.09,-198.733"/>
<polygon fill="midnightblue" stroke="midnightblue" points="1573.47,-201.963 1581.93,-195.578 1571.34,-195.297 1573.47,-201.963"/>
</g>
<!-- Node70 -->
<g id="node224" class="node"><title>Node70</title>
<a xlink:href="_t_header_info_8h.html" target="_top" xlink:title="tree/THeaderInfo.h">
<polygon fill="white" stroke="black" points="665,-290.5 665,-311.5 763,-311.5 763,-290.5 665,-290.5"/>
<text text-anchor="middle" x="714" y="-298.5" font-family="Helvetica,sans-Serif" font-size="10.00">tree/THeaderInfo.h</text>
</a>
</g>
<!-- Node69&#45;&gt;Node70 -->
<g id="edge308" class="edge"><title>Node69&#45;&gt;Node70</title>
<path fill="none" stroke="midnightblue" d="M956.25,-353.313C903.209,-341.859 825.584,-325.096 772.592,-313.653"/>
<polygon fill="midnightblue" stroke="midnightblue" points="773.18,-310.199 762.667,-311.509 771.702,-317.041 773.18,-310.199"/>
</g>
<!-- Node70&#45;&gt;Node4 -->
<g id="edge310" class="edge"><title>Node70&#45;&gt;Node4</title>
<path fill="none" stroke="midnightblue" d="M705.379,-290.362C698.82,-282.268 689.634,-270.932 681.894,-261.38"/>
<polygon fill="midnightblue" stroke="midnightblue" points="684.581,-259.136 675.566,-253.571 679.142,-263.544 684.581,-259.136"/>
</g>
<!-- Node70&#45;&gt;Node10 -->
<g id="edge312" class="edge"><title>Node70&#45;&gt;Node10</title>
<path fill="none" stroke="midnightblue" d="M718.057,-290.196C726.852,-267.498 749.141,-213.684 777,-174 784.355,-163.523 794.015,-153.113 802.499,-144.763"/>
<polygon fill="midnightblue" stroke="midnightblue" points="805.047,-147.169 809.86,-137.731 800.211,-142.108 805.047,-147.169"/>
</g>
</g>
</svg>
