<?xml version="1.0" encoding="UTF-8" standalone="no"?>
<!DOCTYPE svg PUBLIC "-//W3C//DTD SVG 1.1//EN"
 "http://www.w3.org/Graphics/SVG/1.1/DTD/svg11.dtd">
<!-- Generated by graphviz version 2.26.3 (20100126.1600)
 -->
<!-- Title: src/tree/UnpackerWriter.h Pages: 1 -->
<svg width="411pt" height="174pt"
 viewBox="0.00 0.00 411.00 174.00" xmlns="http://www.w3.org/2000/svg" xmlns:xlink="http://www.w3.org/1999/xlink">
<g id="graph1" class="graph" transform="scale(1 1) rotate(0) translate(4 170)">
<title>src/tree/UnpackerWriter.h</title>
<polygon fill="white" stroke="white" points="-4,5 -4,-170 408,-170 408,5 -4,5"/>
<!-- Node1 -->
<g id="node1" class="node"><title>Node1</title>
<polygon fill="#bfbfbf" stroke="black" points="139.5,-144.5 139.5,-165.5 268.5,-165.5 268.5,-144.5 139.5,-144.5"/>
<text text-anchor="middle" x="204" y="-152.5" font-family="Helvetica,sans-Serif" font-size="10.00">src/tree/UnpackerWriter.h</text>
</g>
<!-- Node2 -->
<g id="node3" class="node"><title>Node2</title>
<a xlink:href="_ant_8cc.html" target="_top" xlink:title="progs/Ant.cc">
<polygon fill="white" stroke="black" points="0,-7.5 0,-28.5 72,-28.5 72,-7.5 0,-7.5"/>
<text text-anchor="middle" x="36" y="-15.5" font-family="Helvetica,sans-Serif" font-size="10.00">progs/Ant.cc</text>
</a>
</g>
<!-- Node1&#45;&gt;Node2 -->
<g id="edge2" class="edge"><title>Node1&#45;&gt;Node2</title>
<path fill="none" stroke="midnightblue" d="M167.128,-140.248C149.463,-132.195 128.594,-121.172 112,-108 81.8861,-84.0969 55.0147,-46.7639 42.864,-28.6172"/>
<polygon fill="midnightblue" stroke="midnightblue" points="166.002,-143.577 176.564,-144.411 168.828,-137.172 166.002,-143.577"/>
</g>
<!-- Node3 -->
<g id="node5" class="node"><title>Node3</title>
<a xlink:href="_ant_reader_8h.html" target="_top" xlink:title="src/analysis/input\l/ant/AntReader.h">
<polygon fill="white" stroke="black" points="120.5,-73 120.5,-107 213.5,-107 213.5,-73 120.5,-73"/>
<text text-anchor="start" x="128.5" y="-94" font-family="Helvetica,sans-Serif" font-size="10.00">src/analysis/input</text>
<text text-anchor="middle" x="167" y="-81" font-family="Helvetica,sans-Serif" font-size="10.00">/ant/AntReader.h</text>
</a>
</g>
<!-- Node1&#45;&gt;Node3 -->
<g id="edge4" class="edge"><title>Node1&#45;&gt;Node3</title>
<path fill="none" stroke="midnightblue" d="M192.941,-135.572C187.79,-126.523 181.715,-115.851 176.739,-107.11"/>
<polygon fill="midnightblue" stroke="midnightblue" points="189.901,-137.307 197.89,-144.267 195.985,-133.844 189.901,-137.307"/>
</g>
<!-- Node4 -->
<g id="node8" class="node"><title>Node4</title>
<a xlink:href="_ant_reader_8cc.html" target="_top" xlink:title="src/analysis/input\l/ant/AntReader.cc">
<polygon fill="white" stroke="black" points="262,-1 262,-35 358,-35 358,-1 262,-1"/>
<text text-anchor="start" x="270" y="-22" font-family="Helvetica,sans-Serif" font-size="10.00">src/analysis/input</text>
<text text-anchor="middle" x="310" y="-9" font-family="Helvetica,sans-Serif" font-size="10.00">/ant/AntReader.cc</text>
</a>
</g>
<!-- Node1&#45;&gt;Node4 -->
<g id="edge12" class="edge"><title>Node1&#45;&gt;Node4</title>
<path fill="none" stroke="midnightblue" d="M215.759,-135.815C226.58,-118.607 243.419,-92.9188 260,-72 270.159,-59.1838 282.659,-45.6838 292.619,-35.3879"/>
<polygon fill="midnightblue" stroke="midnightblue" points="212.717,-134.079 210.406,-144.419 218.661,-137.777 212.717,-134.079"/>
</g>
<!-- Node6 -->
<g id="node13" class="node"><title>Node6</title>
<a xlink:href="_unpacker_writer_8cc.html" target="_top" xlink:title="src/tree/UnpackerWriter.cc">
<polygon fill="white" stroke="black" points="269,-79.5 269,-100.5 403,-100.5 403,-79.5 269,-79.5"/>
<text text-anchor="middle" x="336" y="-87.5" font-family="Helvetica,sans-Serif" font-size="10.00">src/tree/UnpackerWriter.cc</text>
</a>
</g>
<!-- Node1&#45;&gt;Node6 -->
<g id="edge14" class="edge"><title>Node1&#45;&gt;Node6</title>
<path fill="none" stroke="midnightblue" d="M234.715,-139.875C259.192,-127.822 292.841,-111.253 314.507,-100.584"/>
<polygon fill="midnightblue" stroke="midnightblue" points="232.927,-136.854 225.502,-144.412 236.019,-143.134 232.927,-136.854"/>
</g>
<!-- Node3&#45;&gt;Node2 -->
<g id="edge6" class="edge"><title>Node3&#45;&gt;Node2</title>
<path fill="none" stroke="midnightblue" d="M127.143,-68.0937C103.382,-55.0344 74.2753,-39.0368 55.4463,-28.688"/>
<polygon fill="midnightblue" stroke="midnightblue" points="125.505,-71.1876 135.955,-72.937 128.877,-65.0531 125.505,-71.1876"/>
</g>
<!-- Node3&#45;&gt;Node4 -->
<g id="edge8" class="edge"><title>Node3&#45;&gt;Node4</title>
<path fill="none" stroke="midnightblue" d="M209.961,-68.3694C231.049,-57.7514 256.1,-45.1383 275.859,-35.19"/>
<polygon fill="midnightblue" stroke="midnightblue" points="208.247,-65.3137 200.889,-72.937 211.395,-71.566 208.247,-65.3137"/>
</g>
<!-- Node5 -->
<g id="node10" class="node"><title>Node5</title>
<a xlink:href="_test_ant_reader_8cc.html" target="_top" xlink:title="test/analysis/TestAntReader.cc">
<polygon fill="white" stroke="black" points="89.5,-7.5 89.5,-28.5 244.5,-28.5 244.5,-7.5 89.5,-7.5"/>
<text text-anchor="middle" x="167" y="-15.5" font-family="Helvetica,sans-Serif" font-size="10.00">test/analysis/TestAntReader.cc</text>
</a>
</g>
<!-- Node3&#45;&gt;Node5 -->
<g id="edge10" class="edge"><title>Node3&#45;&gt;Node5</title>
<path fill="none" stroke="midnightblue" d="M167,-62.6667C167,-50.9127 167,-37.8483 167,-28.901"/>
<polygon fill="midnightblue" stroke="midnightblue" points="163.5,-62.937 167,-72.937 170.5,-62.937 163.5,-62.937"/>
</g>
</g>
</svg>
