<?xml version="1.0" encoding="UTF-8" standalone="no"?>
<!DOCTYPE svg PUBLIC "-//W3C//DTD SVG 1.1//EN"
 "http://www.w3.org/Graphics/SVG/1.1/DTD/svg11.dtd">
<!-- Generated by graphviz version 2.26.3 (20100126.1600)
 -->
<!-- Title: src/tree/UnpackerWriter.h Pages: 1 -->
<svg width="1217pt" height="320pt"
 viewBox="0.00 0.00 1217.00 320.00" xmlns="http://www.w3.org/2000/svg" xmlns:xlink="http://www.w3.org/1999/xlink">
<g id="graph1" class="graph" transform="scale(1 1) rotate(0) translate(4 316)">
<title>src/tree/UnpackerWriter.h</title>
<polygon fill="white" stroke="white" points="-4,5 -4,-316 1214,-316 1214,5 -4,5"/>
<!-- Node1 -->
<g id="node1" class="node"><title>Node1</title>
<polygon fill="#bfbfbf" stroke="black" points="359.5,-290.5 359.5,-311.5 488.5,-311.5 488.5,-290.5 359.5,-290.5"/>
<text text-anchor="middle" x="424" y="-298.5" font-family="Helvetica,sans-Serif" font-size="10.00">src/tree/UnpackerWriter.h</text>
</g>
<!-- Node2 -->
<g id="node3" class="node"><title>Node2</title>
<a xlink:href="_unpacker_8h.html" target="_top" xlink:title="unpacker/Unpacker.h">
<polygon fill="white" stroke="black" points="28,-174.5 28,-195.5 138,-195.5 138,-174.5 28,-174.5"/>
<text text-anchor="middle" x="83" y="-182.5" font-family="Helvetica,sans-Serif" font-size="10.00">unpacker/Unpacker.h</text>
</a>
</g>
<!-- Node1&#45;&gt;Node2 -->
<g id="edge2" class="edge"><title>Node1&#45;&gt;Node2</title>
<path fill="none" stroke="midnightblue" d="M363.477,-290.453C323.274,-282.557 269.684,-270.312 224,-254 182.724,-239.262 137.663,-215.811 109.862,-200.41"/>
<polygon fill="midnightblue" stroke="midnightblue" points="111.561,-197.35 101.126,-195.52 108.142,-203.458 111.561,-197.35"/>
</g>
<!-- Node3 -->
<g id="node5" class="node"><title>Node3</title>
<polygon fill="white" stroke="#bfbfbf" points="62.5,-0.5 62.5,-21.5 103.5,-21.5 103.5,-0.5 62.5,-0.5"/>
<text text-anchor="middle" x="83" y="-8.5" font-family="Helvetica,sans-Serif" font-size="10.00">string</text>
</g>
<!-- Node1&#45;&gt;Node3 -->
<g id="edge70" class="edge"><title>Node1&#45;&gt;Node3</title>
<path fill="none" stroke="midnightblue" d="M359.142,-296.725C240.367,-287.105 0,-258.55 0,-185 0,-185 0,-185 0,-127 0,-85.3959 35.7484,-48.4381 60.3233,-27.947"/>
<polygon fill="midnightblue" stroke="midnightblue" points="62.5602,-30.6395 68.1613,-21.6462 58.1744,-25.1838 62.5602,-30.6395"/>
</g>
<!-- Node4 -->
<g id="node7" class="node"><title>Node4</title>
<polygon fill="white" stroke="#bfbfbf" points="196,-116.5 196,-137.5 248,-137.5 248,-116.5 196,-116.5"/>
<text text-anchor="middle" x="222" y="-124.5" font-family="Helvetica,sans-Serif" font-size="10.00">memory</text>
</g>
<!-- Node1&#45;&gt;Node4 -->
<g id="edge68" class="edge"><title>Node1&#45;&gt;Node4</title>
<path fill="none" stroke="midnightblue" d="M425.958,-290.18C429.663,-265.999 434.865,-207.108 405,-174 385.595,-152.488 305.842,-138.286 258.26,-131.548"/>
<polygon fill="midnightblue" stroke="midnightblue" points="258.44,-128.04 248.057,-130.147 257.488,-134.975 258.44,-128.04"/>
</g>
<!-- Node5 -->
<g id="node9" class="node"><title>Node5</title>
<a xlink:href="_memory_pool_8h.html" target="_top" xlink:title="tree/MemoryPool.h">
<polygon fill="white" stroke="black" points="232.5,-232.5 232.5,-253.5 331.5,-253.5 331.5,-232.5 232.5,-232.5"/>
<text text-anchor="middle" x="282" y="-240.5" font-family="Helvetica,sans-Serif" font-size="10.00">tree/MemoryPool.h</text>
</a>
</g>
<!-- Node1&#45;&gt;Node5 -->
<g id="edge8" class="edge"><title>Node1&#45;&gt;Node5</title>
<path fill="none" stroke="midnightblue" d="M398.285,-290.497C375.707,-281.275 342.642,-267.769 317.537,-257.515"/>
<polygon fill="midnightblue" stroke="midnightblue" points="318.585,-254.162 308.004,-253.621 315.938,-260.643 318.585,-254.162"/>
</g>
<!-- Node9 -->
<g id="node19" class="node"><title>Node9</title>
<a xlink:href="_t_data_record_8h.html" target="_top" xlink:title="tree/TDataRecord.h">
<polygon fill="white" stroke="black" points="451.5,-232.5 451.5,-253.5 554.5,-253.5 554.5,-232.5 451.5,-232.5"/>
<text text-anchor="middle" x="503" y="-240.5" font-family="Helvetica,sans-Serif" font-size="10.00">tree/TDataRecord.h</text>
</a>
</g>
<!-- Node1&#45;&gt;Node9 -->
<g id="edge20" class="edge"><title>Node1&#45;&gt;Node9</title>
<path fill="none" stroke="midnightblue" d="M438.49,-290.362C450.183,-281.777 466.843,-269.546 480.303,-259.664"/>
<polygon fill="midnightblue" stroke="midnightblue" points="482.613,-262.31 488.602,-253.571 478.47,-256.667 482.613,-262.31"/>
</g>
<!-- Node13 -->
<g id="node27" class="node"><title>Node13</title>
<polygon fill="white" stroke="#bfbfbf" points="1072,-58.5 1072,-79.5 1116,-79.5 1116,-58.5 1072,-58.5"/>
<text text-anchor="middle" x="1094" y="-66.5" font-family="Helvetica,sans-Serif" font-size="10.00">vector</text>
</g>
<!-- Node1&#45;&gt;Node13 -->
<g id="edge66" class="edge"><title>Node1&#45;&gt;Node13</title>
<path fill="none" stroke="midnightblue" d="M488.588,-295.66C644.521,-281.294 1034.43,-236.09 1112,-138 1123.09,-123.98 1115.94,-103.828 1107.61,-88.919"/>
<polygon fill="midnightblue" stroke="midnightblue" points="1110.35,-86.6914 1102.13,-79.9963 1104.38,-90.3508 1110.35,-86.6914"/>
</g>
<!-- Node26 -->
<g id="node58" class="node"><title>Node26</title>
<polygon fill="white" stroke="#bfbfbf" points="1159,-232.5 1159,-253.5 1209,-253.5 1209,-232.5 1159,-232.5"/>
<text text-anchor="middle" x="1184" y="-240.5" font-family="Helvetica,sans-Serif" font-size="10.00">TTree.h</text>
</g>
<!-- Node1&#45;&gt;Node26 -->
<g id="edge64" class="edge"><title>Node1&#45;&gt;Node26</title>
<path fill="none" stroke="midnightblue" d="M488.623,-298.527C641.079,-292.41 1019.75,-275.501 1145,-254 1146.25,-253.786 1147.51,-253.547 1148.79,-253.289"/>
<polygon fill="midnightblue" stroke="midnightblue" points="1149.64,-256.683 1158.58,-250.996 1148.05,-249.868 1149.64,-256.683"/>
</g>
<!-- Node2&#45;&gt;Node3 -->
<g id="edge4" class="edge"><title>Node2&#45;&gt;Node3</title>
<path fill="none" stroke="midnightblue" d="M83,-174.377C83,-146.293 83,-69.6735 83,-32.2027"/>
<polygon fill="midnightblue" stroke="midnightblue" points="86.5001,-31.9277 83,-21.9277 79.5001,-31.9278 86.5001,-31.9277"/>
</g>
<!-- Node2&#45;&gt;Node4 -->
<g id="edge6" class="edge"><title>Node2&#45;&gt;Node4</title>
<path fill="none" stroke="midnightblue" d="M108.172,-174.497C130.273,-165.275 162.639,-151.769 187.213,-141.515"/>
<polygon fill="midnightblue" stroke="midnightblue" points="188.665,-144.702 196.546,-137.621 185.969,-138.242 188.665,-144.702"/>
</g>
<!-- Node5&#45;&gt;Node4 -->
<g id="edge16" class="edge"><title>Node5&#45;&gt;Node4</title>
<path fill="none" stroke="midnightblue" d="M236.284,-232.437C216.982,-225.473 196.378,-214.156 185,-196 174.403,-179.09 188.129,-158.882 201.766,-144.721"/>
<polygon fill="midnightblue" stroke="midnightblue" points="204.435,-147.008 209.178,-137.534 199.562,-141.983 204.435,-147.008"/>
</g>
<!-- Node6 -->
<g id="node11" class="node"><title>Node6</title>
<a xlink:href="memory_8h.html" target="_top" xlink:title="base/std_ext/memory.h">
<polygon fill="white" stroke="black" points="277.5,-174.5 277.5,-195.5 396.5,-195.5 396.5,-174.5 277.5,-174.5"/>
<text text-anchor="middle" x="337" y="-182.5" font-family="Helvetica,sans-Serif" font-size="10.00">base/std_ext/memory.h</text>
</a>
</g>
<!-- Node5&#45;&gt;Node6 -->
<g id="edge10" class="edge"><title>Node5&#45;&gt;Node6</title>
<path fill="none" stroke="midnightblue" d="M292.088,-232.362C299.841,-224.186 310.73,-212.702 319.845,-203.091"/>
<polygon fill="midnightblue" stroke="midnightblue" points="322.635,-205.235 326.976,-195.571 317.555,-200.419 322.635,-205.235"/>
</g>
<!-- Node8 -->
<g id="node17" class="node"><title>Node8</title>
<polygon fill="white" stroke="#bfbfbf" points="193.5,-174.5 193.5,-195.5 260.5,-195.5 260.5,-174.5 193.5,-174.5"/>
<text text-anchor="middle" x="227" y="-182.5" font-family="Helvetica,sans-Serif" font-size="10.00">forward_list</text>
</g>
<!-- Node5&#45;&gt;Node8 -->
<g id="edge18" class="edge"><title>Node5&#45;&gt;Node8</title>
<path fill="none" stroke="midnightblue" d="M271.912,-232.362C264.159,-224.186 253.27,-212.702 244.155,-203.091"/>
<polygon fill="midnightblue" stroke="midnightblue" points="246.445,-200.419 237.024,-195.571 241.365,-205.235 246.445,-200.419"/>
</g>
<!-- Node6&#45;&gt;Node4 -->
<g id="edge12" class="edge"><title>Node6&#45;&gt;Node4</title>
<path fill="none" stroke="midnightblue" d="M316.174,-174.497C298.294,-165.479 272.293,-152.365 252.139,-142.201"/>
<polygon fill="midnightblue" stroke="midnightblue" points="253.564,-138.999 243.059,-137.621 250.412,-145.249 253.564,-138.999"/>
</g>
<!-- Node7 -->
<g id="node14" class="node"><title>Node7</title>
<polygon fill="white" stroke="#bfbfbf" points="322.5,-116.5 322.5,-137.5 351.5,-137.5 351.5,-116.5 322.5,-116.5"/>
<text text-anchor="middle" x="337" y="-124.5" font-family="Helvetica,sans-Serif" font-size="10.00">list</text>
</g>
<!-- Node6&#45;&gt;Node7 -->
<g id="edge14" class="edge"><title>Node6&#45;&gt;Node7</title>
<path fill="none" stroke="midnightblue" d="M337,-174.362C337,-166.922 337,-156.743 337,-147.728"/>
<polygon fill="midnightblue" stroke="midnightblue" points="340.5,-147.571 337,-137.571 333.5,-147.571 340.5,-147.571"/>
</g>
<!-- Node10 -->
<g id="node21" class="node"><title>Node10</title>
<a xlink:href="_t_i_d_8h.html" target="_top" xlink:title="TID.h">
<polygon fill="white" stroke="black" points="717.5,-174.5 717.5,-195.5 758.5,-195.5 758.5,-174.5 717.5,-174.5"/>
<text text-anchor="middle" x="738" y="-182.5" font-family="Helvetica,sans-Serif" font-size="10.00">TID.h</text>
</a>
</g>
<!-- Node9&#45;&gt;Node10 -->
<g id="edge22" class="edge"><title>Node9&#45;&gt;Node10</title>
<path fill="none" stroke="midnightblue" d="M545.557,-232.497C592.379,-220.94 666.451,-202.659 707.708,-192.476"/>
<polygon fill="midnightblue" stroke="midnightblue" points="708.584,-195.865 717.454,-190.071 706.907,-189.069 708.584,-195.865"/>
</g>
<!-- Node11 -->
<g id="node23" class="node"><title>Node11</title>
<polygon fill="white" stroke="#bfbfbf" points="441,-116.5 441,-137.5 497,-137.5 497,-116.5 441,-116.5"/>
<text text-anchor="middle" x="469" y="-124.5" font-family="Helvetica,sans-Serif" font-size="10.00">Rtypes.h</text>
</g>
<!-- Node9&#45;&gt;Node11 -->
<g id="edge58" class="edge"><title>Node9&#45;&gt;Node11</title>
<path fill="none" stroke="midnightblue" d="M499.862,-232.295C494.22,-213.045 482.274,-172.289 475.011,-147.509"/>
<polygon fill="midnightblue" stroke="midnightblue" points="478.302,-146.291 472.13,-137.679 471.584,-148.26 478.302,-146.291"/>
</g>
<!-- Node20 -->
<g id="node42" class="node"><title>Node20</title>
<polygon fill="white" stroke="#bfbfbf" points="443.5,-58.5 443.5,-79.5 484.5,-79.5 484.5,-58.5 443.5,-58.5"/>
<text text-anchor="middle" x="464" y="-66.5" font-family="Helvetica,sans-Serif" font-size="10.00">ctime</text>
</g>
<!-- Node9&#45;&gt;Node20 -->
<g id="edge62" class="edge"><title>Node9&#45;&gt;Node20</title>
<path fill="none" stroke="midnightblue" d="M492.397,-232.232C475.693,-214.425 443.925,-176.924 432,-138 429.136,-128.651 429.121,-125.344 432,-116 435.159,-105.747 441.404,-95.7278 447.545,-87.5925"/>
<polygon fill="midnightblue" stroke="midnightblue" points="450.454,-89.5603 454.016,-79.5822 445.009,-85.1612 450.454,-89.5603"/>
</g>
<!-- Node25 -->
<g id="node52" class="node"><title>Node25</title>
<polygon fill="white" stroke="#bfbfbf" points="1053,-116.5 1053,-137.5 1103,-137.5 1103,-116.5 1053,-116.5"/>
<text text-anchor="middle" x="1078" y="-124.5" font-family="Helvetica,sans-Serif" font-size="10.00">iomanip</text>
</g>
<!-- Node9&#45;&gt;Node25 -->
<g id="edge60" class="edge"><title>Node9&#45;&gt;Node25</title>
<path fill="none" stroke="midnightblue" d="M554.621,-235.379C649.776,-220.813 859.161,-186.342 1043,-138.075"/>
<polygon fill="midnightblue" stroke="midnightblue" points="1044.07,-141.412 1052.84,-135.471 1042.28,-134.645 1044.07,-141.412"/>
</g>
<!-- Node10&#45;&gt;Node11 -->
<g id="edge24" class="edge"><title>Node10&#45;&gt;Node11</title>
<path fill="none" stroke="midnightblue" d="M717.264,-181.081C677.243,-173.435 586.626,-155.72 511,-138 509.762,-137.71 508.504,-137.41 507.235,-137.103"/>
<polygon fill="midnightblue" stroke="midnightblue" points="507.966,-133.679 497.417,-134.656 506.273,-140.471 507.966,-133.679"/>
</g>
<!-- Node12 -->
<g id="node25" class="node"><title>Node12</title>
<a xlink:href="printable_8h.html" target="_top" xlink:title="base/printable.h">
<polygon fill="white" stroke="black" points="949,-116.5 949,-137.5 1035,-137.5 1035,-116.5 949,-116.5"/>
<text text-anchor="middle" x="992" y="-124.5" font-family="Helvetica,sans-Serif" font-size="10.00">base/printable.h</text>
</a>
</g>
<!-- Node10&#45;&gt;Node12 -->
<g id="edge26" class="edge"><title>Node10&#45;&gt;Node12</title>
<path fill="none" stroke="midnightblue" d="M758.786,-180.254C797.713,-171.365 882.714,-151.955 938.628,-139.187"/>
<polygon fill="midnightblue" stroke="midnightblue" points="939.742,-142.523 948.712,-136.885 938.184,-135.699 939.742,-142.523"/>
</g>
<!-- Node15 -->
<g id="node31" class="node"><title>Node15</title>
<a xlink:href="time_8h.html" target="_top" xlink:title="base/std_ext/time.h">
<polygon fill="white" stroke="black" points="552.5,-116.5 552.5,-137.5 655.5,-137.5 655.5,-116.5 552.5,-116.5"/>
<text text-anchor="middle" x="604" y="-124.5" font-family="Helvetica,sans-Serif" font-size="10.00">base/std_ext/time.h</text>
</a>
</g>
<!-- Node10&#45;&gt;Node15 -->
<g id="edge32" class="edge"><title>Node10&#45;&gt;Node15</title>
<path fill="none" stroke="midnightblue" d="M717.356,-176.065C696.228,-166.919 663.036,-152.553 638.018,-141.724"/>
<polygon fill="midnightblue" stroke="midnightblue" points="639.103,-138.38 628.535,-137.62 636.322,-144.804 639.103,-138.38"/>
</g>
<!-- Node10&#45;&gt;Node20 -->
<g id="edge56" class="edge"><title>Node10&#45;&gt;Node20</title>
<path fill="none" stroke="midnightblue" d="M717.353,-183.21C680.647,-179.348 602.41,-168.016 544,-138 518.995,-125.15 495.253,-102.951 480.226,-87.2054"/>
<polygon fill="midnightblue" stroke="midnightblue" points="482.572,-84.5882 473.202,-79.6433 477.443,-89.3522 482.572,-84.5882"/>
</g>
<!-- Node21 -->
<g id="node44" class="node"><title>Node21</title>
<polygon fill="white" stroke="#bfbfbf" points="673,-116.5 673,-137.5 735,-137.5 735,-116.5 673,-116.5"/>
<text text-anchor="middle" x="704" y="-124.5" font-family="Helvetica,sans-Serif" font-size="10.00">type_traits</text>
</g>
<!-- Node10&#45;&gt;Node21 -->
<g id="edge46" class="edge"><title>Node10&#45;&gt;Node21</title>
<path fill="none" stroke="midnightblue" d="M731.764,-174.362C727.163,-166.513 720.775,-155.616 715.286,-146.253"/>
<polygon fill="midnightblue" stroke="midnightblue" points="718.273,-144.428 710.197,-137.571 712.234,-147.968 718.273,-144.428"/>
</g>
<!-- Node22 -->
<g id="node46" class="node"><title>Node22</title>
<polygon fill="white" stroke="#bfbfbf" points="753,-116.5 753,-137.5 791,-137.5 791,-116.5 753,-116.5"/>
<text text-anchor="middle" x="772" y="-124.5" font-family="Helvetica,sans-Serif" font-size="10.00">tuple</text>
</g>
<!-- Node10&#45;&gt;Node22 -->
<g id="edge48" class="edge"><title>Node10&#45;&gt;Node22</title>
<path fill="none" stroke="midnightblue" d="M744.236,-174.362C748.837,-166.513 755.225,-155.616 760.714,-146.253"/>
<polygon fill="midnightblue" stroke="midnightblue" points="763.766,-147.968 765.803,-137.571 757.727,-144.428 763.766,-147.968"/>
</g>
<!-- Node23 -->
<g id="node48" class="node"><title>Node23</title>
<polygon fill="white" stroke="#bfbfbf" points="809,-116.5 809,-137.5 855,-137.5 855,-116.5 809,-116.5"/>
<text text-anchor="middle" x="832" y="-124.5" font-family="Helvetica,sans-Serif" font-size="10.00">cstdint</text>
</g>
<!-- Node10&#45;&gt;Node23 -->
<g id="edge50" class="edge"><title>Node10&#45;&gt;Node23</title>
<path fill="none" stroke="midnightblue" d="M755.241,-174.362C769.552,-165.532 790.115,-152.844 806.357,-142.822"/>
<polygon fill="midnightblue" stroke="midnightblue" points="808.196,-145.8 814.868,-137.571 804.52,-139.843 808.196,-145.8"/>
</g>
<!-- Node24 -->
<g id="node50" class="node"><title>Node24</title>
<polygon fill="white" stroke="#bfbfbf" points="872.5,-116.5 872.5,-137.5 931.5,-137.5 931.5,-116.5 872.5,-116.5"/>
<text text-anchor="middle" x="902" y="-124.5" font-family="Helvetica,sans-Serif" font-size="10.00">stdexcept</text>
</g>
<!-- Node10&#45;&gt;Node24 -->
<g id="edge52" class="edge"><title>Node10&#45;&gt;Node24</title>
<path fill="none" stroke="midnightblue" d="M758.771,-177.654C784.782,-168.455 829.89,-152.502 862.546,-140.953"/>
<polygon fill="midnightblue" stroke="midnightblue" points="863.985,-144.157 872.246,-137.523 861.651,-137.557 863.985,-144.157"/>
</g>
<!-- Node10&#45;&gt;Node25 -->
<g id="edge54" class="edge"><title>Node10&#45;&gt;Node25</title>
<path fill="none" stroke="midnightblue" d="M758.631,-182.988C806.862,-178.041 930.804,-163.925 1043.09,-137.928"/>
<polygon fill="midnightblue" stroke="midnightblue" points="1043.94,-141.323 1052.88,-135.625 1042.34,-134.509 1043.94,-141.323"/>
</g>
<!-- Node12&#45;&gt;Node13 -->
<g id="edge28" class="edge"><title>Node12&#45;&gt;Node13</title>
<path fill="none" stroke="midnightblue" d="M1010.71,-116.362C1026.38,-107.45 1048.96,-94.6087 1066.66,-84.5447"/>
<polygon fill="midnightblue" stroke="midnightblue" points="1068.45,-87.5562 1075.41,-79.5707 1064.99,-81.4712 1068.45,-87.5562"/>
</g>
<!-- Node14 -->
<g id="node29" class="node"><title>Node14</title>
<polygon fill="white" stroke="#bfbfbf" points="966,-58.5 966,-79.5 1018,-79.5 1018,-58.5 966,-58.5"/>
<text text-anchor="middle" x="992" y="-66.5" font-family="Helvetica,sans-Serif" font-size="10.00">ostream</text>
</g>
<!-- Node12&#45;&gt;Node14 -->
<g id="edge30" class="edge"><title>Node12&#45;&gt;Node14</title>
<path fill="none" stroke="midnightblue" d="M992,-116.362C992,-108.922 992,-98.7427 992,-89.7276"/>
<polygon fill="midnightblue" stroke="midnightblue" points="995.5,-89.5706 992,-79.5707 988.5,-89.5707 995.5,-89.5706"/>
</g>
<!-- Node16 -->
<g id="node33" class="node"><title>Node16</title>
<a xlink:href="string_8h.html" target="_top" xlink:title="base/std_ext/string.h">
<polygon fill="white" stroke="black" points="502,-58.5 502,-79.5 610,-79.5 610,-58.5 502,-58.5"/>
<text text-anchor="middle" x="556" y="-66.5" font-family="Helvetica,sans-Serif" font-size="10.00">base/std_ext/string.h</text>
</a>
</g>
<!-- Node15&#45;&gt;Node16 -->
<g id="edge34" class="edge"><title>Node15&#45;&gt;Node16</title>
<path fill="none" stroke="midnightblue" d="M595.196,-116.362C588.498,-108.268 579.116,-96.9318 571.211,-87.3796"/>
<polygon fill="midnightblue" stroke="midnightblue" points="573.82,-85.0431 564.748,-79.5707 568.427,-89.5061 573.82,-85.0431"/>
</g>
<!-- Node19 -->
<g id="node40" class="node"><title>Node19</title>
<polygon fill="white" stroke="#bfbfbf" points="628,-58.5 628,-79.5 674,-79.5 674,-58.5 628,-58.5"/>
<text text-anchor="middle" x="651" y="-66.5" font-family="Helvetica,sans-Serif" font-size="10.00">cstring</text>
</g>
<!-- Node15&#45;&gt;Node19 -->
<g id="edge42" class="edge"><title>Node15&#45;&gt;Node19</title>
<path fill="none" stroke="midnightblue" d="M612.621,-116.362C619.18,-108.268 628.366,-96.9318 636.106,-87.3796"/>
<polygon fill="midnightblue" stroke="midnightblue" points="638.858,-89.5436 642.434,-79.5707 633.419,-85.1364 638.858,-89.5436"/>
</g>
<!-- Node15&#45;&gt;Node20 -->
<g id="edge44" class="edge"><title>Node15&#45;&gt;Node20</title>
<path fill="none" stroke="midnightblue" d="M578.647,-116.497C554.856,-106.641 519.257,-91.8923 494.049,-81.4489"/>
<polygon fill="midnightblue" stroke="midnightblue" points="495.19,-78.1331 484.612,-77.5391 492.511,-84.6001 495.19,-78.1331"/>
</g>
<!-- Node16&#45;&gt;Node3 -->
<g id="edge36" class="edge"><title>Node16&#45;&gt;Node3</title>
<path fill="none" stroke="midnightblue" d="M501.736,-59.317C498.784,-58.8553 495.857,-58.4128 493,-58 351.65,-37.5762 181.841,-20.4623 113.594,-13.8868"/>
<polygon fill="midnightblue" stroke="midnightblue" points="113.821,-10.3926 103.532,-12.923 113.153,-17.3607 113.821,-10.3926"/>
</g>
<!-- Node17 -->
<g id="node36" class="node"><title>Node17</title>
<polygon fill="white" stroke="#bfbfbf" points="566,-0.5 566,-21.5 618,-21.5 618,-0.5 566,-0.5"/>
<text text-anchor="middle" x="592" y="-8.5" font-family="Helvetica,sans-Serif" font-size="10.00">sstream</text>
</g>
<!-- Node16&#45;&gt;Node17 -->
<g id="edge38" class="edge"><title>Node16&#45;&gt;Node17</title>
<path fill="none" stroke="midnightblue" d="M562.603,-58.3619C567.475,-50.5131 574.238,-39.6159 580.05,-30.2527"/>
<polygon fill="midnightblue" stroke="midnightblue" points="583.139,-31.9129 585.439,-21.5707 577.191,-28.2213 583.139,-31.9129"/>
</g>
<!-- Node18 -->
<g id="node38" class="node"><title>Node18</title>
<polygon fill="white" stroke="#bfbfbf" points="492,-0.5 492,-21.5 548,-21.5 548,-0.5 492,-0.5"/>
<text text-anchor="middle" x="520" y="-8.5" font-family="Helvetica,sans-Serif" font-size="10.00">algorithm</text>
</g>
<!-- Node16&#45;&gt;Node18 -->
<g id="edge40" class="edge"><title>Node16&#45;&gt;Node18</title>
<path fill="none" stroke="midnightblue" d="M549.397,-58.3619C544.525,-50.5131 537.762,-39.6159 531.95,-30.2527"/>
<polygon fill="midnightblue" stroke="midnightblue" points="534.809,-28.2213 526.561,-21.5707 528.861,-31.9129 534.809,-28.2213"/>
</g>
</g>
</svg>
