<?xml version="1.0" encoding="UTF-8" standalone="no"?>
<!DOCTYPE svg PUBLIC "-//W3C//DTD SVG 1.1//EN"
 "http://www.w3.org/Graphics/SVG/1.1/DTD/svg11.dtd">
<!-- Generated by graphviz version 2.26.3 (20100126.1600)
 -->
<!-- Title: src/unpacker/detail/UnpackerAcqu_legacy.h Pages: 1 -->
<svg width="506pt" height="188pt"
 viewBox="0.00 0.00 506.00 188.00" xmlns="http://www.w3.org/2000/svg" xmlns:xlink="http://www.w3.org/1999/xlink">
<g id="graph1" class="graph" transform="scale(1 1) rotate(0) translate(4 184)">
<title>src/unpacker/detail/UnpackerAcqu_legacy.h</title>
<polygon fill="white" stroke="white" points="-4,5 -4,-184 503,-184 503,5 -4,5"/>
<!-- Node1 -->
<g id="node1" class="node"><title>Node1</title>
<polygon fill="#bfbfbf" stroke="black" points="191,-145 191,-179 317,-179 317,-145 191,-145"/>
<text text-anchor="start" x="199" y="-166" font-family="Helvetica,sans-Serif" font-size="10.00">src/unpacker/detail</text>
<text text-anchor="middle" x="254" y="-153" font-family="Helvetica,sans-Serif" font-size="10.00">/UnpackerAcqu_legacy.h</text>
</g>
<!-- Node2 -->
<g id="node3" class="node"><title>Node2</title>
<a xlink:href="_unpacker_acqu__detail_8cc.html" target="_top" xlink:title="src/unpacker/detail\l/UnpackerAcqu_detail.cc">
<polygon fill="white" stroke="black" points="0,-1 0,-35 126,-35 126,-1 0,-1"/>
<text text-anchor="start" x="8" y="-22" font-family="Helvetica,sans-Serif" font-size="10.00">src/unpacker/detail</text>
<text text-anchor="middle" x="63" y="-9" font-family="Helvetica,sans-Serif" font-size="10.00">/UnpackerAcqu_detail.cc</text>
</a>
</g>
<!-- Node1&#45;&gt;Node2 -->
<g id="edge2" class="edge"><title>Node1&#45;&gt;Node2</title>
<path fill="none" stroke="midnightblue" d="M185.207,-141.18C164.817,-132.931 143.328,-122.003 126,-108 100.929,-87.741 81.504,-55.0077 71.1963,-35.099"/>
<polygon fill="midnightblue" stroke="midnightblue" points="184.202,-144.544 194.791,-144.899 186.734,-138.019 184.202,-144.544"/>
</g>
<!-- Node3 -->
<g id="node5" class="node"><title>Node3</title>
<a xlink:href="_unpacker_acqu__templates_8h.html" target="_top" xlink:title="src/unpacker/detail\l/UnpackerAcqu_templates.h">
<polygon fill="white" stroke="black" points="135,-73 135,-107 275,-107 275,-73 135,-73"/>
<text text-anchor="start" x="143" y="-94" font-family="Helvetica,sans-Serif" font-size="10.00">src/unpacker/detail</text>
<text text-anchor="middle" x="205" y="-81" font-family="Helvetica,sans-Serif" font-size="10.00">/UnpackerAcqu_templates.h</text>
</a>
</g>
<!-- Node1&#45;&gt;Node3 -->
<g id="edge4" class="edge"><title>Node1&#45;&gt;Node3</title>
<path fill="none" stroke="midnightblue" d="M236.645,-136.498C230.097,-126.877 222.803,-116.159 216.869,-107.441"/>
<polygon fill="midnightblue" stroke="midnightblue" points="233.868,-138.639 242.388,-144.937 239.655,-134.701 233.868,-138.639"/>
</g>
<!-- Node4 -->
<g id="node8" class="node"><title>Node4</title>
<a xlink:href="_unpacker_acqu___file_format_mk1_8cc.html" target="_top" xlink:title="src/unpacker/detail\l/UnpackerAcqu_FileFormatMk1.cc">
<polygon fill="white" stroke="black" points="144,-1 144,-35 312,-35 312,-1 144,-1"/>
<text text-anchor="start" x="152" y="-22" font-family="Helvetica,sans-Serif" font-size="10.00">src/unpacker/detail</text>
<text text-anchor="middle" x="228" y="-9" font-family="Helvetica,sans-Serif" font-size="10.00">/UnpackerAcqu_FileFormatMk1.cc</text>
</a>
</g>
<!-- Node1&#45;&gt;Node4 -->
<g id="edge12" class="edge"><title>Node1&#45;&gt;Node4</title>
<path fill="none" stroke="midnightblue" d="M272.726,-135.913C283.366,-117.724 292.94,-93.0408 284,-72 277.715,-57.2078 265.172,-44.4994 253.548,-35.1338"/>
<polygon fill="midnightblue" stroke="midnightblue" points="269.512,-134.45 267.158,-144.78 275.44,-138.173 269.512,-134.45"/>
</g>
<!-- Node5 -->
<g id="node10" class="node"><title>Node5</title>
<a xlink:href="_unpacker_acqu___file_format_mk2_8cc.html" target="_top" xlink:title="src/unpacker/detail\l/UnpackerAcqu_FileFormatMk2.cc">
<polygon fill="white" stroke="black" points="330,-1 330,-35 498,-35 498,-1 330,-1"/>
<text text-anchor="start" x="338" y="-22" font-family="Helvetica,sans-Serif" font-size="10.00">src/unpacker/detail</text>
<text text-anchor="middle" x="414" y="-9" font-family="Helvetica,sans-Serif" font-size="10.00">/UnpackerAcqu_FileFormatMk2.cc</text>
</a>
</g>
<!-- Node1&#45;&gt;Node5 -->
<g id="edge14" class="edge"><title>Node1&#45;&gt;Node5</title>
<path fill="none" stroke="midnightblue" d="M280.715,-137.956C313.046,-108.859 366.669,-60.5977 395.042,-35.0619"/>
<polygon fill="midnightblue" stroke="midnightblue" points="278.074,-135.625 272.982,-144.916 282.757,-140.828 278.074,-135.625"/>
</g>
<!-- Node3&#45;&gt;Node2 -->
<g id="edge6" class="edge"><title>Node3&#45;&gt;Node2</title>
<path fill="none" stroke="midnightblue" d="M162.34,-68.3694C141.399,-57.7514 116.523,-45.1383 96.9026,-35.19"/>
<polygon fill="midnightblue" stroke="midnightblue" points="160.846,-71.5363 171.348,-72.937 164.012,-65.293 160.846,-71.5363"/>
</g>
<!-- Node3&#45;&gt;Node4 -->
<g id="edge8" class="edge"><title>Node3&#45;&gt;Node4</title>
<path fill="none" stroke="midnightblue" d="M213.524,-63.3147C216.498,-54.0053 219.757,-43.8034 222.429,-35.4407"/>
<polygon fill="midnightblue" stroke="midnightblue" points="210.16,-62.3462 210.451,-72.937 216.828,-64.4763 210.16,-62.3462"/>
</g>
<!-- Node3&#45;&gt;Node5 -->
<g id="edge10" class="edge"><title>Node3&#45;&gt;Node5</title>
<path fill="none" stroke="midnightblue" d="M264.122,-69.6326C295.799,-58.7201 334.379,-45.4292 364.464,-35.0651"/>
<polygon fill="midnightblue" stroke="midnightblue" points="262.845,-66.3707 254.53,-72.937 265.125,-72.989 262.845,-66.3707"/>
</g>
</g>
</svg>
