<?xml version="1.0" encoding="UTF-8" standalone="no"?>
<!DOCTYPE svg PUBLIC "-//W3C//DTD SVG 1.1//EN"
 "http://www.w3.org/Graphics/SVG/1.1/DTD/svg11.dtd">
<!-- Generated by graphviz version 2.26.3 (20100126.1600)
 -->
<!-- Title: src/unpacker/detail/UnpackerAcqu_templates.h Pages: 1 -->
<svg width="4466pt" height="754pt"
 viewBox="0.00 0.00 4466.00 754.00" xmlns="http://www.w3.org/2000/svg" xmlns:xlink="http://www.w3.org/1999/xlink">
<g id="graph1" class="graph" transform="scale(1 1) rotate(0) translate(4 750)">
<title>src/unpacker/detail/UnpackerAcqu_templates.h</title>
<polygon fill="white" stroke="white" points="-4,5 -4,-750 4463,-750 4463,5 -4,5"/>
<!-- Node1 -->
<g id="node1" class="node"><title>Node1</title>
<polygon fill="#bfbfbf" stroke="black" points="2618,-711 2618,-745 2758,-745 2758,-711 2618,-711"/>
<text text-anchor="start" x="2626" y="-732" font-family="Helvetica,sans-Serif" font-size="10.00">src/unpacker/detail</text>
<text text-anchor="middle" x="2688" y="-719" font-family="Helvetica,sans-Serif" font-size="10.00">/UnpackerAcqu_templates.h</text>
</g>
<!-- Node2 -->
<g id="node3" class="node"><title>Node2</title>
<a xlink:href="_unpacker_acqu__detail_8h.html" target="_top" xlink:title="UnpackerAcqu_detail.h">
<polygon fill="white" stroke="black" points="2629,-652.5 2629,-673.5 2747,-673.5 2747,-652.5 2629,-652.5"/>
<text text-anchor="middle" x="2688" y="-660.5" font-family="Helvetica,sans-Serif" font-size="10.00">UnpackerAcqu_detail.h</text>
</a>
</g>
<!-- Node1&#45;&gt;Node2 -->
<g id="edge2" class="edge"><title>Node1&#45;&gt;Node2</title>
<path fill="none" stroke="midnightblue" d="M2688,-710.922C2688,-702.67 2688,-692.692 2688,-683.982"/>
<polygon fill="midnightblue" stroke="midnightblue" points="2691.5,-683.852 2688,-673.852 2684.5,-683.852 2691.5,-683.852"/>
</g>
<!-- Node8 -->
<g id="node15" class="node"><title>Node8</title>
<polygon fill="white" stroke="#bfbfbf" points="2476,-0.5 2476,-21.5 2520,-21.5 2520,-0.5 2476,-0.5"/>
<text text-anchor="middle" x="2498" y="-8.5" font-family="Helvetica,sans-Serif" font-size="10.00">vector</text>
</g>
<!-- Node1&#45;&gt;Node8 -->
<g id="edge366" class="edge"><title>Node1&#45;&gt;Node8</title>
<path fill="none" stroke="midnightblue" d="M2758.2,-726.861C3086.92,-721.078 4458,-691.755 4458,-605 4458,-605 4458,-605 4458,-127 4458,6.77058 3993.47,-67.0359 3860,-58 3329.74,-22.1006 2681.4,-13.0148 2530.46,-11.3271"/>
<polygon fill="midnightblue" stroke="midnightblue" points="2530.11,-7.82319 2520.07,-11.214 2530.03,-14.8228 2530.11,-7.82319"/>
</g>
<!-- Node17 -->
<g id="node33" class="node"><title>Node17</title>
<polygon fill="white" stroke="#bfbfbf" points="1713,-58.5 1713,-79.5 1775,-79.5 1775,-58.5 1713,-58.5"/>
<text text-anchor="middle" x="1744" y="-66.5" font-family="Helvetica,sans-Serif" font-size="10.00">type_traits</text>
</g>
<!-- Node1&#45;&gt;Node17 -->
<g id="edge368" class="edge"><title>Node1&#45;&gt;Node17</title>
<path fill="none" stroke="midnightblue" d="M2617.67,-721.435C2401.11,-700.605 1746.96,-632.947 1548,-558 1503.47,-541.225 1484.26,-539.686 1458,-500 1392.21,-400.566 1409.52,-334.751 1470,-232 1487.12,-202.918 1492.2,-194.502 1519,-174 1576.7,-129.867 1655.93,-98.3392 1703.34,-81.9444"/>
<polygon fill="midnightblue" stroke="midnightblue" points="1704.62,-85.2082 1712.96,-78.6765 1702.36,-78.5804 1704.62,-85.2082"/>
</g>
<!-- Node32 -->
<g id="node73" class="node"><title>Node32</title>
<polygon fill="white" stroke="#bfbfbf" points="3548,-174.5 3548,-195.5 3600,-195.5 3600,-174.5 3548,-174.5"/>
<text text-anchor="middle" x="3574" y="-182.5" font-family="Helvetica,sans-Serif" font-size="10.00">memory</text>
</g>
<!-- Node1&#45;&gt;Node32 -->
<g id="edge364" class="edge"><title>Node1&#45;&gt;Node32</title>
<path fill="none" stroke="midnightblue" d="M2758,-725.716C3058.87,-715.569 4229.27,-672.565 4282,-616 4419.39,-468.613 4219.74,-325.014 4041,-232 4003.08,-212.268 3713.6,-193.308 3610.4,-187.11"/>
<polygon fill="midnightblue" stroke="midnightblue" points="3610.35,-183.601 3600.16,-186.5 3609.94,-190.589 3610.35,-183.601"/>
</g>
<!-- Node71 -->
<g id="node249" class="node"><title>Node71</title>
<a xlink:href="_unpacker_acqu__legacy_8h.html" target="_top" xlink:title="UnpackerAcqu_legacy.h">
<polygon fill="white" stroke="black" points="749.5,-232.5 749.5,-253.5 872.5,-253.5 872.5,-232.5 749.5,-232.5"/>
<text text-anchor="middle" x="811" y="-240.5" font-family="Helvetica,sans-Serif" font-size="10.00">UnpackerAcqu_legacy.h</text>
</a>
</g>
<!-- Node1&#45;&gt;Node71 -->
<g id="edge356" class="edge"><title>Node1&#45;&gt;Node71</title>
<path fill="none" stroke="midnightblue" d="M2617.93,-727.466C2302.61,-724.858 1023.04,-712.003 848,-674 770.723,-657.222 684,-684.077 684,-605 684,-605 684,-605 684,-366 684,-314.218 739.153,-277.268 776.768,-258.09"/>
<polygon fill="midnightblue" stroke="midnightblue" points="778.477,-261.15 785.909,-253.598 775.39,-254.867 778.477,-261.15"/>
</g>
<!-- Node3 -->
<g id="node5" class="node"><title>Node3</title>
<a xlink:href="_t_unpacker_message_8h.html" target="_top" xlink:title="tree/TUnpackerMessage.h">
<polygon fill="white" stroke="black" points="778,-290.5 778,-311.5 910,-311.5 910,-290.5 778,-290.5"/>
<text text-anchor="middle" x="844" y="-298.5" font-family="Helvetica,sans-Serif" font-size="10.00">tree/TUnpackerMessage.h</text>
</a>
</g>
<!-- Node2&#45;&gt;Node3 -->
<g id="edge4" class="edge"><title>Node2&#45;&gt;Node3</title>
<path fill="none" stroke="midnightblue" d="M2628.88,-662.306C2329.81,-658.683 996.361,-641.14 962,-616 935.796,-596.828 938,-579.469 938,-547 938,-547 938,-547 938,-431 938,-382.791 895.026,-340.342 867.191,-317.904"/>
<polygon fill="midnightblue" stroke="midnightblue" points="869.141,-314.986 859.103,-311.598 864.837,-320.507 869.141,-314.986"/>
</g>
<!-- Node2&#45;&gt;Node8 -->
<g id="edge354" class="edge"><title>Node2&#45;&gt;Node8</title>
<path fill="none" stroke="midnightblue" d="M2747.05,-661.816C3033.89,-655.685 4268,-624.786 4268,-547 4268,-547 4268,-547 4268,-489 4268,-337.941 4420,-336.059 4420,-185 4420,-185 4420,-185 4420,-127 4420,-77.6428 2783.28,-20.5978 2530.59,-12.0847"/>
<polygon fill="midnightblue" stroke="midnightblue" points="2530.36,-8.57505 2520.25,-11.7374 2530.13,-15.5711 2530.36,-8.57505"/>
</g>
<!-- Node12 -->
<g id="node23" class="node"><title>Node12</title>
<polygon fill="white" stroke="#bfbfbf" points="1626.5,-0.5 1626.5,-21.5 1667.5,-21.5 1667.5,-0.5 1626.5,-0.5"/>
<text text-anchor="middle" x="1647" y="-8.5" font-family="Helvetica,sans-Serif" font-size="10.00">string</text>
</g>
<!-- Node2&#45;&gt;Node12 -->
<g id="edge352" class="edge"><title>Node2&#45;&gt;Node12</title>
<path fill="none" stroke="midnightblue" d="M2628.68,-662.161C2328.38,-657.823 986.544,-637.314 901,-616 778.145,-585.39 646,-615.611 646,-489 646,-489 646,-489 646,-301 646,-185.04 646.959,-125.845 741,-58 777.252,-31.8462 1461.88,-15.1137 1616.25,-11.6638"/>
<polygon fill="midnightblue" stroke="midnightblue" points="1616.52,-15.1589 1626.44,-11.4384 1616.36,-8.16066 1616.52,-15.1589"/>
</g>
<!-- Node16 -->
<g id="node31" class="node"><title>Node16</title>
<polygon fill="white" stroke="#bfbfbf" points="1082.5,-58.5 1082.5,-79.5 1123.5,-79.5 1123.5,-58.5 1082.5,-58.5"/>
<text text-anchor="middle" x="1103" y="-66.5" font-family="Helvetica,sans-Serif" font-size="10.00">ctime</text>
</g>
<!-- Node2&#45;&gt;Node16 -->
<g id="edge346" class="edge"><title>Node2&#45;&gt;Node16</title>
<path fill="none" stroke="midnightblue" d="M2628.57,-662.149C2326.55,-657.444 976,-631.67 976,-547 976,-547 976,-547 976,-301 976,-218.767 925.761,-183.311 973,-116 978.954,-107.516 1036.07,-89.0785 1072.59,-77.9853"/>
<polygon fill="midnightblue" stroke="midnightblue" points="1073.72,-81.3009 1082.29,-75.0656 1071.7,-74.5983 1073.72,-81.3009"/>
</g>
<!-- Node19 -->
<g id="node37" class="node"><title>Node19</title>
<polygon fill="white" stroke="#bfbfbf" points="846,-58.5 846,-79.5 892,-79.5 892,-58.5 846,-58.5"/>
<text text-anchor="middle" x="869" y="-66.5" font-family="Helvetica,sans-Serif" font-size="10.00">cstdint</text>
</g>
<!-- Node2&#45;&gt;Node19 -->
<g id="edge344" class="edge"><title>Node2&#45;&gt;Node19</title>
<path fill="none" stroke="midnightblue" d="M2628.64,-662.209C2326.78,-658.085 974.931,-638.396 938,-616 805.82,-535.842 807.797,-461.638 769,-312 766.546,-302.535 763.24,-297.901 769,-290 799.8,-247.748 850.2,-296.252 881,-254 917.065,-204.526 892.908,-126.431 878.113,-89.5656"/>
<polygon fill="midnightblue" stroke="midnightblue" points="881.164,-87.7916 874.072,-79.9208 874.708,-90.4965 881.164,-87.7916"/>
</g>
<!-- Node30 -->
<g id="node68" class="node"><title>Node30</title>
<a xlink:href="_unpacker_acqu_8h.html" target="_top" xlink:title="UnpackerAcqu.h">
<polygon fill="white" stroke="black" points="2643.5,-594.5 2643.5,-615.5 2732.5,-615.5 2732.5,-594.5 2643.5,-594.5"/>
<text text-anchor="middle" x="2688" y="-602.5" font-family="Helvetica,sans-Serif" font-size="10.00">UnpackerAcqu.h</text>
</a>
</g>
<!-- Node2&#45;&gt;Node30 -->
<g id="edge76" class="edge"><title>Node2&#45;&gt;Node30</title>
<path fill="none" stroke="midnightblue" d="M2688,-652.362C2688,-644.922 2688,-634.743 2688,-625.728"/>
<polygon fill="midnightblue" stroke="midnightblue" points="2691.5,-625.571 2688,-615.571 2684.5,-625.571 2691.5,-625.571"/>
</g>
<!-- Node2&#45;&gt;Node32 -->
<g id="edge350" class="edge"><title>Node2&#45;&gt;Node32</title>
<path fill="none" stroke="midnightblue" d="M2747.19,-657.912C2998.42,-635.732 3967.57,-544.014 4054,-442 4115.53,-369.379 4094.34,-279.745 4012,-232 3977.53,-212.012 3708.9,-193.419 3610.21,-187.197"/>
<polygon fill="midnightblue" stroke="midnightblue" points="3610.32,-183.697 3600.12,-186.567 3609.88,-190.683 3610.32,-183.697"/>
</g>
<!-- Node39 -->
<g id="node95" class="node"><title>Node39</title>
<polygon fill="white" stroke="#bfbfbf" points="3577.5,-116.5 3577.5,-137.5 3606.5,-137.5 3606.5,-116.5 3577.5,-116.5"/>
<text text-anchor="middle" x="3592" y="-124.5" font-family="Helvetica,sans-Serif" font-size="10.00">list</text>
</g>
<!-- Node2&#45;&gt;Node39 -->
<g id="edge348" class="edge"><title>Node2&#45;&gt;Node39</title>
<path fill="none" stroke="midnightblue" d="M2747.25,-662.175C3032.34,-658.092 4250.6,-639.305 4282,-616 4351.64,-564.321 4344,-517.717 4344,-431 4344,-431 4344,-431 4344,-301 4344,-136.773 4156.78,-211.95 3997,-174 3855.7,-140.438 3680.73,-130.483 3616.84,-127.853"/>
<polygon fill="midnightblue" stroke="midnightblue" points="3616.69,-124.345 3606.56,-127.455 3616.42,-131.34 3616.69,-124.345"/>
</g>
<!-- Node41 -->
<g id="node100" class="node"><title>Node41</title>
<a xlink:href="mapped__vectors_8h.html" target="_top" xlink:title="base/mapped_vectors.h">
<polygon fill="white" stroke="black" points="2829.5,-232.5 2829.5,-253.5 2950.5,-253.5 2950.5,-232.5 2829.5,-232.5"/>
<text text-anchor="middle" x="2890" y="-240.5" font-family="Helvetica,sans-Serif" font-size="10.00">base/mapped_vectors.h</text>
</a>
</g>
<!-- Node2&#45;&gt;Node41 -->
<g id="edge342" class="edge"><title>Node2&#45;&gt;Node41</title>
<path fill="none" stroke="midnightblue" d="M2747.15,-656.083C2847.22,-643.031 3043.07,-611.2 3084,-558 3125.99,-503.428 2961.55,-319.296 2907.02,-260.915"/>
<polygon fill="midnightblue" stroke="midnightblue" points="2909.48,-258.429 2900.09,-253.539 2904.38,-263.223 2909.48,-258.429"/>
</g>
<!-- Node4 -->
<g id="node7" class="node"><title>Node4</title>
<a xlink:href="_t_data_record_8h.html" target="_top" xlink:title="TDataRecord.h">
<polygon fill="white" stroke="black" points="1222.5,-232.5 1222.5,-253.5 1305.5,-253.5 1305.5,-232.5 1222.5,-232.5"/>
<text text-anchor="middle" x="1264" y="-240.5" font-family="Helvetica,sans-Serif" font-size="10.00">TDataRecord.h</text>
</a>
</g>
<!-- Node3&#45;&gt;Node4 -->
<g id="edge6" class="edge"><title>Node3&#45;&gt;Node4</title>
<path fill="none" stroke="midnightblue" d="M910.087,-291.874C993.707,-280.326 1135.99,-260.678 1212.19,-250.155"/>
<polygon fill="midnightblue" stroke="midnightblue" points="1213.06,-253.568 1222.49,-248.733 1212.1,-246.634 1213.06,-253.568"/>
</g>
<!-- Node22 -->
<g id="node47" class="node"><title>Node22</title>
<a xlink:href="_format_8h.html" target="_top" xlink:title="base/Format.h">
<polygon fill="white" stroke="black" points="368,-116.5 368,-137.5 448,-137.5 448,-116.5 368,-116.5"/>
<text text-anchor="middle" x="408" y="-124.5" font-family="Helvetica,sans-Serif" font-size="10.00">base/Format.h</text>
</a>
</g>
<!-- Node3&#45;&gt;Node22 -->
<g id="edge50" class="edge"><title>Node3&#45;&gt;Node22</title>
<path fill="none" stroke="midnightblue" d="M811.628,-290.499C783.933,-281.351 743.099,-267.476 708,-254 609.627,-216.229 495.541,-166.168 440.719,-141.712"/>
<polygon fill="midnightblue" stroke="midnightblue" points="442.059,-138.478 431.501,-137.592 439.203,-144.868 442.059,-138.478"/>
</g>
<!-- Node5 -->
<g id="node9" class="node"><title>Node5</title>
<a xlink:href="_t_i_d_8h.html" target="_top" xlink:title="TID.h">
<polygon fill="white" stroke="black" points="1219.5,-174.5 1219.5,-195.5 1260.5,-195.5 1260.5,-174.5 1219.5,-174.5"/>
<text text-anchor="middle" x="1240" y="-182.5" font-family="Helvetica,sans-Serif" font-size="10.00">TID.h</text>
</a>
</g>
<!-- Node4&#45;&gt;Node5 -->
<g id="edge8" class="edge"><title>Node4&#45;&gt;Node5</title>
<path fill="none" stroke="midnightblue" d="M1259.6,-232.362C1256.42,-224.677 1252.03,-214.069 1248.21,-204.84"/>
<polygon fill="midnightblue" stroke="midnightblue" points="1251.43,-203.473 1244.37,-195.571 1244.96,-206.149 1251.43,-203.473"/>
</g>
<!-- Node6 -->
<g id="node11" class="node"><title>Node6</title>
<polygon fill="white" stroke="#bfbfbf" points="1416,-116.5 1416,-137.5 1472,-137.5 1472,-116.5 1416,-116.5"/>
<text text-anchor="middle" x="1444" y="-124.5" font-family="Helvetica,sans-Serif" font-size="10.00">Rtypes.h</text>
</g>
<!-- Node4&#45;&gt;Node6 -->
<g id="edge44" class="edge"><title>Node4&#45;&gt;Node6</title>
<path fill="none" stroke="midnightblue" d="M1275.64,-232.322C1291.62,-217.974 1321.63,-192.178 1350,-174 1369.1,-161.761 1391.82,-150.324 1410.14,-141.797"/>
<polygon fill="midnightblue" stroke="midnightblue" points="1411.64,-144.96 1419.27,-137.615 1408.72,-138.595 1411.64,-144.96"/>
</g>
<!-- Node4&#45;&gt;Node16 -->
<g id="edge48" class="edge"><title>Node4&#45;&gt;Node16</title>
<path fill="none" stroke="midnightblue" d="M1250.9,-232.277C1239.89,-223.05 1223.91,-209.179 1211,-196 1175.31,-159.562 1137.58,-113.111 1117.53,-87.6975"/>
<polygon fill="midnightblue" stroke="midnightblue" points="1120.13,-85.3453 1111.21,-79.6369 1114.63,-89.6654 1120.13,-85.3453"/>
</g>
<!-- Node21 -->
<g id="node41" class="node"><title>Node21</title>
<polygon fill="white" stroke="#bfbfbf" points="1348,-116.5 1348,-137.5 1398,-137.5 1398,-116.5 1348,-116.5"/>
<text text-anchor="middle" x="1373" y="-124.5" font-family="Helvetica,sans-Serif" font-size="10.00">iomanip</text>
</g>
<!-- Node4&#45;&gt;Node21 -->
<g id="edge46" class="edge"><title>Node4&#45;&gt;Node21</title>
<path fill="none" stroke="midnightblue" d="M1269.94,-232.445C1278.24,-218.237 1294.29,-192.597 1312,-174 1322.8,-162.66 1336.49,-151.857 1348.16,-143.474"/>
<polygon fill="midnightblue" stroke="midnightblue" points="1350.42,-146.164 1356.61,-137.566 1346.41,-140.427 1350.42,-146.164"/>
</g>
<!-- Node5&#45;&gt;Node6 -->
<g id="edge10" class="edge"><title>Node5&#45;&gt;Node6</title>
<path fill="none" stroke="midnightblue" d="M1260.6,-179.308C1290.49,-171.025 1347.87,-155.04 1406.02,-138.259"/>
<polygon fill="midnightblue" stroke="midnightblue" points="1407.1,-141.591 1415.73,-135.451 1405.15,-134.866 1407.1,-141.591"/>
</g>
<!-- Node7 -->
<g id="node13" class="node"><title>Node7</title>
<a xlink:href="printable_8h.html" target="_top" xlink:title="base/printable.h">
<polygon fill="white" stroke="black" points="3085,-58.5 3085,-79.5 3171,-79.5 3171,-58.5 3085,-58.5"/>
<text text-anchor="middle" x="3128" y="-66.5" font-family="Helvetica,sans-Serif" font-size="10.00">base/printable.h</text>
</a>
</g>
<!-- Node5&#45;&gt;Node7 -->
<g id="edge12" class="edge"><title>Node5&#45;&gt;Node7</title>
<path fill="none" stroke="midnightblue" d="M1260.84,-183.389C1288.68,-181.238 1339.55,-177.314 1383,-174 1594.55,-157.864 1647.5,-154.777 1859,-138 1976.81,-128.655 2006.07,-123.653 2124,-116 2487.05,-92.4397 2924.7,-76.0807 3074.62,-70.8207"/>
<polygon fill="midnightblue" stroke="midnightblue" points="3075.04,-74.3083 3084.91,-70.4612 3074.8,-67.3125 3075.04,-74.3083"/>
</g>
<!-- Node10 -->
<g id="node19" class="node"><title>Node10</title>
<a xlink:href="time_8h.html" target="_top" xlink:title="base/std_ext/time.h">
<polygon fill="white" stroke="black" points="981.5,-116.5 981.5,-137.5 1084.5,-137.5 1084.5,-116.5 981.5,-116.5"/>
<text text-anchor="middle" x="1033" y="-124.5" font-family="Helvetica,sans-Serif" font-size="10.00">base/std_ext/time.h</text>
</a>
</g>
<!-- Node5&#45;&gt;Node10 -->
<g id="edge18" class="edge"><title>Node5&#45;&gt;Node10</title>
<path fill="none" stroke="midnightblue" d="M1219.4,-179.227C1187.23,-170.215 1124.25,-152.569 1080.45,-140.295"/>
<polygon fill="midnightblue" stroke="midnightblue" points="1081.16,-136.86 1070.59,-137.532 1079.27,-143.6 1081.16,-136.86"/>
</g>
<!-- Node5&#45;&gt;Node16 -->
<g id="edge42" class="edge"><title>Node5&#45;&gt;Node16</title>
<path fill="none" stroke="midnightblue" d="M1240.63,-174.301C1240.9,-159.455 1239.2,-132.569 1225,-116 1201.95,-89.1035 1161.66,-77.5334 1133.72,-72.5988"/>
<polygon fill="midnightblue" stroke="midnightblue" points="1134.1,-69.1157 1123.68,-71.0144 1133.01,-76.0302 1134.1,-69.1157"/>
</g>
<!-- Node5&#45;&gt;Node17 -->
<g id="edge32" class="edge"><title>Node5&#45;&gt;Node17</title>
<path fill="none" stroke="midnightblue" d="M1255,-174.257C1281.52,-155.309 1334.32,-117.772 1339,-116 1404.98,-91.0054 1613.8,-76.4369 1702.98,-71.2137"/>
<polygon fill="midnightblue" stroke="midnightblue" points="1703.21,-74.7063 1713,-70.6372 1702.81,-67.7179 1703.21,-74.7063"/>
</g>
<!-- Node18 -->
<g id="node35" class="node"><title>Node18</title>
<polygon fill="white" stroke="#bfbfbf" points="1178,-116.5 1178,-137.5 1216,-137.5 1216,-116.5 1178,-116.5"/>
<text text-anchor="middle" x="1197" y="-124.5" font-family="Helvetica,sans-Serif" font-size="10.00">tuple</text>
</g>
<!-- Node5&#45;&gt;Node18 -->
<g id="edge34" class="edge"><title>Node5&#45;&gt;Node18</title>
<path fill="none" stroke="midnightblue" d="M1232.11,-174.362C1226.17,-166.35 1217.88,-155.161 1210.84,-145.67"/>
<polygon fill="midnightblue" stroke="midnightblue" points="1213.6,-143.519 1204.84,-137.571 1207.98,-147.688 1213.6,-143.519"/>
</g>
<!-- Node5&#45;&gt;Node19 -->
<g id="edge36" class="edge"><title>Node5&#45;&gt;Node19</title>
<path fill="none" stroke="midnightblue" d="M1221.09,-174.373C1193.66,-159.366 1140.86,-132.01 1093,-116 1026.89,-93.8835 946.193,-80.0071 901.949,-73.4635"/>
<polygon fill="midnightblue" stroke="midnightblue" points="902.435,-69.9975 892.037,-72.0307 901.433,-76.9255 902.435,-69.9975"/>
</g>
<!-- Node20 -->
<g id="node39" class="node"><title>Node20</title>
<polygon fill="white" stroke="#bfbfbf" points="1371.5,-58.5 1371.5,-79.5 1430.5,-79.5 1430.5,-58.5 1371.5,-58.5"/>
<text text-anchor="middle" x="1401" y="-66.5" font-family="Helvetica,sans-Serif" font-size="10.00">stdexcept</text>
</g>
<!-- Node5&#45;&gt;Node20 -->
<g id="edge38" class="edge"><title>Node5&#45;&gt;Node20</title>
<path fill="none" stroke="midnightblue" d="M1248.42,-174.057C1260.11,-159.408 1282.49,-133.271 1306,-116 1323.81,-102.92 1345.81,-91.7709 1364.15,-83.6182"/>
<polygon fill="midnightblue" stroke="midnightblue" points="1365.58,-86.8142 1373.37,-79.6337 1362.8,-80.3888 1365.58,-86.8142"/>
</g>
<!-- Node5&#45;&gt;Node21 -->
<g id="edge40" class="edge"><title>Node5&#45;&gt;Node21</title>
<path fill="none" stroke="midnightblue" d="M1260.78,-175.938C1281.81,-166.768 1314.65,-152.445 1339.39,-141.659"/>
<polygon fill="midnightblue" stroke="midnightblue" points="1340.99,-144.776 1348.76,-137.571 1338.19,-138.36 1340.99,-144.776"/>
</g>
<!-- Node7&#45;&gt;Node8 -->
<g id="edge14" class="edge"><title>Node7&#45;&gt;Node8</title>
<path fill="none" stroke="midnightblue" d="M3084.7,-65.0134C2965.62,-54.0507 2635.15,-23.6265 2530.34,-13.9769"/>
<polygon fill="midnightblue" stroke="midnightblue" points="2530.35,-10.4638 2520.07,-13.0322 2529.71,-17.4343 2530.35,-10.4638"/>
</g>
<!-- Node9 -->
<g id="node17" class="node"><title>Node9</title>
<polygon fill="white" stroke="#bfbfbf" points="3102,-0.5 3102,-21.5 3154,-21.5 3154,-0.5 3102,-0.5"/>
<text text-anchor="middle" x="3128" y="-8.5" font-family="Helvetica,sans-Serif" font-size="10.00">ostream</text>
</g>
<!-- Node7&#45;&gt;Node9 -->
<g id="edge16" class="edge"><title>Node7&#45;&gt;Node9</title>
<path fill="none" stroke="midnightblue" d="M3128,-58.3619C3128,-50.9219 3128,-40.7427 3128,-31.7276"/>
<polygon fill="midnightblue" stroke="midnightblue" points="3131.5,-31.5706 3128,-21.5707 3124.5,-31.5707 3131.5,-31.5706"/>
</g>
<!-- Node11 -->
<g id="node21" class="node"><title>Node11</title>
<a xlink:href="string_8h.html" target="_top" xlink:title="base/std_ext/string.h">
<polygon fill="white" stroke="black" points="510,-58.5 510,-79.5 618,-79.5 618,-58.5 510,-58.5"/>
<text text-anchor="middle" x="564" y="-66.5" font-family="Helvetica,sans-Serif" font-size="10.00">base/std_ext/string.h</text>
</a>
</g>
<!-- Node10&#45;&gt;Node11 -->
<g id="edge20" class="edge"><title>Node10&#45;&gt;Node11</title>
<path fill="none" stroke="midnightblue" d="M981.467,-120.627C895.256,-109.966 722.02,-88.5419 628.087,-76.9254"/>
<polygon fill="midnightblue" stroke="midnightblue" points="628.496,-73.4495 618.142,-75.6956 627.637,-80.3966 628.496,-73.4495"/>
</g>
<!-- Node15 -->
<g id="node29" class="node"><title>Node15</title>
<polygon fill="white" stroke="#bfbfbf" points="1010,-58.5 1010,-79.5 1056,-79.5 1056,-58.5 1010,-58.5"/>
<text text-anchor="middle" x="1033" y="-66.5" font-family="Helvetica,sans-Serif" font-size="10.00">cstring</text>
</g>
<!-- Node10&#45;&gt;Node15 -->
<g id="edge28" class="edge"><title>Node10&#45;&gt;Node15</title>
<path fill="none" stroke="midnightblue" d="M1033,-116.362C1033,-108.922 1033,-98.7427 1033,-89.7276"/>
<polygon fill="midnightblue" stroke="midnightblue" points="1036.5,-89.5706 1033,-79.5707 1029.5,-89.5707 1036.5,-89.5706"/>
</g>
<!-- Node10&#45;&gt;Node16 -->
<g id="edge30" class="edge"><title>Node10&#45;&gt;Node16</title>
<path fill="none" stroke="midnightblue" d="M1045.84,-116.362C1056,-107.941 1070.4,-96.0105 1082.2,-86.2308"/>
<polygon fill="midnightblue" stroke="midnightblue" points="1084.78,-88.6459 1090.24,-79.5707 1080.31,-83.2558 1084.78,-88.6459"/>
</g>
<!-- Node11&#45;&gt;Node12 -->
<g id="edge22" class="edge"><title>Node11&#45;&gt;Node12</title>
<path fill="none" stroke="midnightblue" d="M618.116,-59.6748C622.803,-59.0406 627.48,-58.4687 632,-58 1018.63,-17.9088 1491.67,-12.0128 1615.92,-11.1481"/>
<polygon fill="midnightblue" stroke="midnightblue" points="1616.23,-14.6463 1626.21,-11.0827 1616.19,-7.64644 1616.23,-14.6463"/>
</g>
<!-- Node13 -->
<g id="node25" class="node"><title>Node13</title>
<polygon fill="white" stroke="#bfbfbf" points="306,-0.5 306,-21.5 358,-21.5 358,-0.5 306,-0.5"/>
<text text-anchor="middle" x="332" y="-8.5" font-family="Helvetica,sans-Serif" font-size="10.00">sstream</text>
</g>
<!-- Node11&#45;&gt;Node13 -->
<g id="edge24" class="edge"><title>Node11&#45;&gt;Node13</title>
<path fill="none" stroke="midnightblue" d="M521.987,-58.4966C477.956,-47.489 409.517,-30.3792 367.917,-19.9794"/>
<polygon fill="midnightblue" stroke="midnightblue" points="368.754,-16.5808 358.204,-17.5509 367.056,-23.3718 368.754,-16.5808"/>
</g>
<!-- Node14 -->
<g id="node27" class="node"><title>Node14</title>
<polygon fill="white" stroke="#bfbfbf" points="0,-0.5 0,-21.5 56,-21.5 56,-0.5 0,-0.5"/>
<text text-anchor="middle" x="28" y="-8.5" font-family="Helvetica,sans-Serif" font-size="10.00">algorithm</text>
</g>
<!-- Node11&#45;&gt;Node14 -->
<g id="edge26" class="edge"><title>Node11&#45;&gt;Node14</title>
<path fill="none" stroke="midnightblue" d="M509.744,-59.2648C506.789,-58.8165 503.86,-58.3913 501,-58 340.005,-35.9768 146.835,-20.0263 66.2364,-13.8362"/>
<polygon fill="midnightblue" stroke="midnightblue" points="66.3112,-10.3319 56.0741,-13.0618 65.7792,-17.3116 66.3112,-10.3319"/>
</g>
<!-- Node22&#45;&gt;Node8 -->
<g id="edge74" class="edge"><title>Node22&#45;&gt;Node8</title>
<path fill="none" stroke="midnightblue" d="M448.429,-120.736C498.917,-112.643 587.805,-97.4945 663,-80 698.082,-71.8379 705.39,-63.4121 741,-58 917.607,-31.1591 2241.19,-14.0969 2465.69,-11.3816"/>
<polygon fill="midnightblue" stroke="midnightblue" points="2465.87,-14.8798 2475.82,-11.2598 2465.78,-7.88035 2465.87,-14.8798"/>
</g>
<!-- Node22&#45;&gt;Node12 -->
<g id="edge70" class="edge"><title>Node22&#45;&gt;Node12</title>
<path fill="none" stroke="midnightblue" d="M448.026,-121.627C492.606,-114.91 566.373,-101.593 627,-80 647.223,-72.7974 649.257,-63.5289 670,-58 763.139,-33.1743 1459.59,-15.414 1615.92,-11.7147"/>
<polygon fill="midnightblue" stroke="midnightblue" points="1616.31,-15.2066 1626.22,-11.4728 1616.14,-8.20855 1616.31,-15.2066"/>
</g>
<!-- Node22&#45;&gt;Node13 -->
<g id="edge72" class="edge"><title>Node22&#45;&gt;Node13</title>
<path fill="none" stroke="midnightblue" d="M367.976,-124.074C285.612,-117.645 103.305,-101.161 85,-80 78.6032,-72.605 78.7657,-65.5325 85,-58 111.31,-26.2114 233.478,-15.7415 295.566,-12.4396"/>
<polygon fill="midnightblue" stroke="midnightblue" points="295.894,-15.9277 305.708,-11.9357 295.547,-8.93628 295.894,-15.9277"/>
</g>
<!-- Node22&#45;&gt;Node14 -->
<g id="edge64" class="edge"><title>Node22&#45;&gt;Node14</title>
<path fill="none" stroke="midnightblue" d="M367.918,-125.235C290.802,-121.21 125.142,-109.329 77,-80 58.1927,-68.5422 44.6108,-46.847 36.5829,-30.8306"/>
<polygon fill="midnightblue" stroke="midnightblue" points="39.728,-29.2939 32.305,-21.7342 33.3936,-32.273 39.728,-29.2939"/>
</g>
<!-- Node22&#45;&gt;Node20 -->
<g id="edge68" class="edge"><title>Node22&#45;&gt;Node20</title>
<path fill="none" stroke="midnightblue" d="M448.157,-124.654C608.3,-115.301 1200.4,-80.7169 1360.74,-71.3518"/>
<polygon fill="midnightblue" stroke="midnightblue" points="1361.31,-74.824 1371.09,-70.7468 1360.91,-67.8359 1361.31,-74.824"/>
</g>
<!-- Node23 -->
<g id="node49" class="node"><title>Node23</title>
<polygon fill="white" stroke="#bfbfbf" points="93.5,-58.5 93.5,-79.5 172.5,-79.5 172.5,-58.5 93.5,-58.5"/>
<text text-anchor="middle" x="133" y="-66.5" font-family="Helvetica,sans-Serif" font-size="10.00">detail/format.h</text>
</g>
<!-- Node22&#45;&gt;Node23 -->
<g id="edge52" class="edge"><title>Node22&#45;&gt;Node23</title>
<path fill="none" stroke="midnightblue" d="M367.761,-118.936C324.383,-110.183 253.046,-95.618 182.486,-80.2967"/>
<polygon fill="midnightblue" stroke="midnightblue" points="183.054,-76.8384 172.538,-78.1303 181.564,-83.6781 183.054,-76.8384"/>
</g>
<!-- Node24 -->
<g id="node51" class="node"><title>Node24</title>
<polygon fill="white" stroke="#bfbfbf" points="189.5,-58.5 189.5,-79.5 238.5,-79.5 238.5,-58.5 189.5,-58.5"/>
<text text-anchor="middle" x="214" y="-66.5" font-family="Helvetica,sans-Serif" font-size="10.00">stdint.h</text>
</g>
<!-- Node22&#45;&gt;Node24 -->
<g id="edge54" class="edge"><title>Node22&#45;&gt;Node24</title>
<path fill="none" stroke="midnightblue" d="M370.468,-116.477C339.869,-107.801 295.311,-94.949 248.53,-80.4162"/>
<polygon fill="midnightblue" stroke="midnightblue" points="249.422,-77.0281 238.834,-77.3894 247.337,-83.7102 249.422,-77.0281"/>
</g>
<!-- Node25 -->
<g id="node53" class="node"><title>Node25</title>
<polygon fill="white" stroke="#bfbfbf" points="255.5,-58.5 255.5,-79.5 304.5,-79.5 304.5,-58.5 255.5,-58.5"/>
<text text-anchor="middle" x="280" y="-66.5" font-family="Helvetica,sans-Serif" font-size="10.00">cassert</text>
</g>
<!-- Node22&#45;&gt;Node25 -->
<g id="edge56" class="edge"><title>Node22&#45;&gt;Node25</title>
<path fill="none" stroke="midnightblue" d="M384.82,-116.497C364.648,-107.356 335.19,-94.0082 312.636,-83.7883"/>
<polygon fill="midnightblue" stroke="midnightblue" points="313.993,-80.5606 303.44,-79.6212 311.104,-86.9366 313.993,-80.5606"/>
</g>
<!-- Node26 -->
<g id="node55" class="node"><title>Node26</title>
<polygon fill="white" stroke="#bfbfbf" points="322,-58.5 322,-79.5 366,-79.5 366,-58.5 322,-58.5"/>
<text text-anchor="middle" x="344" y="-66.5" font-family="Helvetica,sans-Serif" font-size="10.00">cmath</text>
</g>
<!-- Node22&#45;&gt;Node26 -->
<g id="edge58" class="edge"><title>Node22&#45;&gt;Node26</title>
<path fill="none" stroke="midnightblue" d="M396.261,-116.362C387.059,-108.023 374.06,-96.2418 363.328,-86.5162"/>
<polygon fill="midnightblue" stroke="midnightblue" points="365.424,-83.6924 355.664,-79.5707 360.724,-88.8793 365.424,-83.6924"/>
</g>
<!-- Node27 -->
<g id="node57" class="node"><title>Node27</title>
<polygon fill="white" stroke="#bfbfbf" points="383.5,-58.5 383.5,-79.5 432.5,-79.5 432.5,-58.5 383.5,-58.5"/>
<text text-anchor="middle" x="408" y="-66.5" font-family="Helvetica,sans-Serif" font-size="10.00">cstddef</text>
</g>
<!-- Node22&#45;&gt;Node27 -->
<g id="edge60" class="edge"><title>Node22&#45;&gt;Node27</title>
<path fill="none" stroke="midnightblue" d="M408,-116.362C408,-108.922 408,-98.7427 408,-89.7276"/>
<polygon fill="midnightblue" stroke="midnightblue" points="411.5,-89.5706 408,-79.5707 404.5,-89.5707 411.5,-89.5706"/>
</g>
<!-- Node28 -->
<g id="node59" class="node"><title>Node28</title>
<polygon fill="white" stroke="#bfbfbf" points="449.5,-58.5 449.5,-79.5 492.5,-79.5 492.5,-58.5 449.5,-58.5"/>
<text text-anchor="middle" x="471" y="-66.5" font-family="Helvetica,sans-Serif" font-size="10.00">cstdio</text>
</g>
<!-- Node22&#45;&gt;Node28 -->
<g id="edge62" class="edge"><title>Node22&#45;&gt;Node28</title>
<path fill="none" stroke="midnightblue" d="M419.555,-116.362C428.613,-108.023 441.41,-96.2418 451.974,-86.5162"/>
<polygon fill="midnightblue" stroke="midnightblue" points="454.532,-88.9187 459.518,-79.5707 449.79,-83.7688 454.532,-88.9187"/>
</g>
<!-- Node29 -->
<g id="node62" class="node"><title>Node29</title>
<polygon fill="white" stroke="#bfbfbf" points="750,-58.5 750,-79.5 790,-79.5 790,-58.5 750,-58.5"/>
<text text-anchor="middle" x="770" y="-66.5" font-family="Helvetica,sans-Serif" font-size="10.00">limits</text>
</g>
<!-- Node22&#45;&gt;Node29 -->
<g id="edge66" class="edge"><title>Node22&#45;&gt;Node29</title>
<path fill="none" stroke="midnightblue" d="M448.039,-123.485C510.239,-117.527 633.583,-103.723 736,-80 737.258,-79.7086 738.536,-79.3919 739.823,-79.056"/>
<polygon fill="midnightblue" stroke="midnightblue" points="741.032,-82.3495 749.662,-76.2032 739.083,-75.6263 741.032,-82.3495"/>
</g>
<!-- Node30&#45;&gt;Node8 -->
<g id="edge336" class="edge"><title>Node30&#45;&gt;Node8</title>
<path fill="none" stroke="midnightblue" d="M2694.11,-594.191C2704.85,-574.127 2726,-529.477 2726,-489 2726,-489 2726,-489 2726,-366 2726,-252.6 2841.54,-209.244 2777,-116 2747.85,-73.8888 2597.02,-34.1336 2530.07,-18.2604"/>
<polygon fill="midnightblue" stroke="midnightblue" points="2530.61,-14.7926 2520.08,-15.9212 2529.02,-21.6084 2530.61,-14.7926"/>
</g>
<!-- Node30&#45;&gt;Node19 -->
<g id="edge338" class="edge"><title>Node30&#45;&gt;Node19</title>
<path fill="none" stroke="midnightblue" d="M2643.49,-604.32C2472.28,-601.491 1856.1,-589.314 1663,-558 1569.53,-542.842 1544.63,-538.218 1458,-500 1231.41,-400.039 1175.77,-360.91 991,-196 950.628,-159.967 907.765,-113.053 885.152,-87.5269"/>
<polygon fill="midnightblue" stroke="midnightblue" points="887.528,-84.9292 878.293,-79.737 882.275,-89.5552 887.528,-84.9292"/>
</g>
<!-- Node30&#45;&gt;Node29 -->
<g id="edge340" class="edge"><title>Node30&#45;&gt;Node29</title>
<path fill="none" stroke="midnightblue" d="M2643.22,-604.304C2377.01,-599.88 1014,-573.119 1014,-489 1014,-489 1014,-489 1014,-431 1014,-355.437 981.842,-331.961 919,-290 851.875,-245.18 792.104,-316.474 741,-254 701.32,-205.491 737.844,-125.136 758.306,-88.403"/>
<polygon fill="midnightblue" stroke="midnightblue" points="761.386,-90.0674 763.34,-79.6544 755.319,-86.5758 761.386,-90.0674"/>
</g>
<!-- Node31 -->
<g id="node70" class="node"><title>Node31</title>
<a xlink:href="_unpacker_8h.html" target="_top" xlink:title="Unpacker.h">
<polygon fill="white" stroke="black" points="2669.5,-232.5 2669.5,-253.5 2736.5,-253.5 2736.5,-232.5 2669.5,-232.5"/>
<text text-anchor="middle" x="2703" y="-240.5" font-family="Helvetica,sans-Serif" font-size="10.00">Unpacker.h</text>
</a>
</g>
<!-- Node30&#45;&gt;Node31 -->
<g id="edge78" class="edge"><title>Node30&#45;&gt;Node31</title>
<path fill="none" stroke="midnightblue" d="M2688,-594.444C2688,-574.062 2688,-527.868 2688,-489 2688,-489 2688,-489 2688,-366 2688,-329.809 2694.48,-288.065 2698.92,-263.697"/>
<polygon fill="midnightblue" stroke="midnightblue" points="2702.37,-264.281 2700.79,-253.805 2695.49,-262.983 2702.37,-264.281"/>
</g>
<!-- Node30&#45;&gt;Node32 -->
<g id="edge330" class="edge"><title>Node30&#45;&gt;Node32</title>
<path fill="none" stroke="midnightblue" d="M2732.6,-602.368C2966.4,-588.428 4040,-522.589 4040,-489 4040,-489 4040,-489 4040,-301 4040,-260.068 4015.28,-250.945 3979,-232 3915.23,-198.702 3697.38,-188.651 3610.35,-185.923"/>
<polygon fill="midnightblue" stroke="midnightblue" points="3610.26,-182.418 3600.16,-185.618 3610.05,-189.415 3610.26,-182.418"/>
</g>
<!-- Node33 -->
<g id="node75" class="node"><title>Node33</title>
<a xlink:href="_exp_config_8h.html" target="_top" xlink:title="expconfig/ExpConfig.h">
<polygon fill="white" stroke="black" points="2959,-536.5 2959,-557.5 3075,-557.5 3075,-536.5 2959,-536.5"/>
<text text-anchor="middle" x="3017" y="-544.5" font-family="Helvetica,sans-Serif" font-size="10.00">expconfig/ExpConfig.h</text>
</a>
</g>
<!-- Node30&#45;&gt;Node33 -->
<g id="edge84" class="edge"><title>Node30&#45;&gt;Node33</title>
<path fill="none" stroke="midnightblue" d="M2732.71,-597.118C2788.33,-587.312 2883.85,-570.473 2948.67,-559.046"/>
<polygon fill="midnightblue" stroke="midnightblue" points="2949.56,-562.444 2958.8,-557.261 2948.34,-555.55 2949.56,-562.444"/>
</g>
<!-- Node34 -->
<g id="node77" class="node"><title>Node34</title>
<a xlink:href="_detector__t_8h.html" target="_top" xlink:title="base/Detector_t.h">
<polygon fill="white" stroke="black" points="1755.5,-116.5 1755.5,-137.5 1850.5,-137.5 1850.5,-116.5 1755.5,-116.5"/>
<text text-anchor="middle" x="1803" y="-124.5" font-family="Helvetica,sans-Serif" font-size="10.00">base/Detector_t.h</text>
</a>
</g>
<!-- Node30&#45;&gt;Node34 -->
<g id="edge328" class="edge"><title>Node30&#45;&gt;Node34</title>
<path fill="none" stroke="midnightblue" d="M2643.28,-603.161C2422.78,-593.805 1462,-549.565 1462,-489 1462,-489 1462,-489 1462,-301 1462,-175.345 1647.98,-140.386 1745.25,-130.695"/>
<polygon fill="midnightblue" stroke="midnightblue" points="1745.6,-134.177 1755.23,-129.758 1744.94,-127.208 1745.6,-134.177"/>
</g>
<!-- Node30&#45;&gt;Node39 -->
<g id="edge332" class="edge"><title>Node30&#45;&gt;Node39</title>
<path fill="none" stroke="midnightblue" d="M2732.69,-603.053C2888.69,-596.189 3408.62,-572.743 3575,-558 3782.89,-539.578 3886.46,-640.277 4041,-500 4151.08,-400.074 4097.7,-242.978 3966,-174 3904.79,-141.944 3690.1,-130.793 3616.77,-127.87"/>
<polygon fill="midnightblue" stroke="midnightblue" points="3616.76,-124.367 3606.63,-127.484 3616.49,-131.362 3616.76,-124.367"/>
</g>
<!-- Node42 -->
<g id="node106" class="node"><title>Node42</title>
<polygon fill="white" stroke="#bfbfbf" points="2119.5,-174.5 2119.5,-195.5 2154.5,-195.5 2154.5,-174.5 2119.5,-174.5"/>
<text text-anchor="middle" x="2137" y="-182.5" font-family="Helvetica,sans-Serif" font-size="10.00">map</text>
</g>
<!-- Node30&#45;&gt;Node42 -->
<g id="edge334" class="edge"><title>Node30&#45;&gt;Node42</title>
<path fill="none" stroke="midnightblue" d="M2643.5,-601.224C2479.9,-586.282 1916.48,-525.081 1823,-384 1758.37,-286.453 1859.87,-295.768 1989,-232 2029,-212.245 2079.13,-198.391 2109.58,-191.063"/>
<polygon fill="midnightblue" stroke="midnightblue" points="2110.54,-194.433 2119.48,-188.744 2108.95,-187.617 2110.54,-194.433"/>
</g>
<!-- Node31&#45;&gt;Node12 -->
<g id="edge80" class="edge"><title>Node31&#45;&gt;Node12</title>
<path fill="none" stroke="midnightblue" d="M2669.33,-235.326C2629.54,-226.202 2561.35,-210.394 2503,-196 2265,-137.291 2209.3,-106.44 1969,-58 1863.12,-36.6571 1735.8,-20.9798 1678.11,-14.4089"/>
<polygon fill="midnightblue" stroke="midnightblue" points="1678.18,-10.8944 1667.85,-13.2529 1677.4,-17.8504 1678.18,-10.8944"/>
</g>
<!-- Node31&#45;&gt;Node32 -->
<g id="edge82" class="edge"><title>Node31&#45;&gt;Node32</title>
<path fill="none" stroke="midnightblue" d="M2736.55,-239.597C2760.15,-237.271 2792.49,-234.218 2821,-232 3096.51,-210.565 3429.33,-192.539 3537.88,-186.861"/>
<polygon fill="midnightblue" stroke="midnightblue" points="3538.17,-190.351 3547.97,-186.335 3537.8,-183.361 3538.17,-190.351"/>
</g>
<!-- Node33&#45;&gt;Node7 -->
<g id="edge320" class="edge"><title>Node33&#45;&gt;Node7</title>
<path fill="none" stroke="midnightblue" d="M3075.02,-543.507C3165.69,-537.559 3346.3,-523.745 3498,-500 3696.53,-468.924 3762.77,-487.526 3935,-384 3975.16,-359.862 3991.16,-353.961 4012,-312 4023.53,-288.79 4016.66,-279.881 4018,-254 4018.5,-244.235 4022.42,-240.723 4018,-232 3998.32,-193.141 3977.08,-195.146 3939,-174 3878.32,-140.304 3861.65,-131.518 3794,-116 3677.83,-89.3538 3318.54,-75.1889 3181.69,-70.6472"/>
<polygon fill="midnightblue" stroke="midnightblue" points="3181.56,-67.1413 3171.45,-70.3118 3181.33,-74.1376 3181.56,-67.1413"/>
</g>
<!-- Node33&#45;&gt;Node32 -->
<g id="edge322" class="edge"><title>Node33&#45;&gt;Node32</title>
<path fill="none" stroke="midnightblue" d="M3075.18,-538.844C3265.91,-510.721 3865.58,-410.819 3963,-254 3968.16,-245.694 3969.49,-239.317 3963,-232 3939.78,-205.803 3702.38,-191.347 3610.26,-186.688"/>
<polygon fill="midnightblue" stroke="midnightblue" points="3610.19,-183.18 3600.03,-186.181 3609.84,-190.172 3610.19,-183.18"/>
</g>
<!-- Node33&#45;&gt;Node34 -->
<g id="edge86" class="edge"><title>Node33&#45;&gt;Node34</title>
<path fill="none" stroke="midnightblue" d="M2958.57,-545.532C2684.3,-538.267 1538,-503.559 1538,-431 1538,-431 1538,-431 1538,-301 1538,-268.531 1539.93,-255.816 1562,-232 1610.91,-179.212 1691.01,-151.617 1745.31,-138.207"/>
<polygon fill="midnightblue" stroke="midnightblue" points="1746.22,-141.588 1755.14,-135.866 1744.6,-134.779 1746.22,-141.588"/>
</g>
<!-- Node36 -->
<g id="node87" class="node"><title>Node36</title>
<a xlink:href="_reconstruct__traits_8h.html" target="_top" xlink:title="reconstruct/Reconstruct\l_traits.h">
<polygon fill="white" stroke="black" points="3569,-349 3569,-383 3691,-383 3691,-349 3569,-349"/>
<text text-anchor="start" x="3577" y="-370" font-family="Helvetica,sans-Serif" font-size="10.00">reconstruct/Reconstruct</text>
<text text-anchor="middle" x="3630" y="-357" font-family="Helvetica,sans-Serif" font-size="10.00">_traits.h</text>
</a>
</g>
<!-- Node33&#45;&gt;Node36 -->
<g id="edge102" class="edge"><title>Node33&#45;&gt;Node36</title>
<path fill="none" stroke="midnightblue" d="M3052.61,-536.486C3151.72,-507.22 3432.06,-424.445 3562.14,-386.036"/>
<polygon fill="midnightblue" stroke="midnightblue" points="3563.4,-389.315 3572,-383.126 3561.42,-382.601 3563.4,-389.315"/>
</g>
<!-- Node33&#45;&gt;Node39 -->
<g id="edge324" class="edge"><title>Node33&#45;&gt;Node39</title>
<path fill="none" stroke="midnightblue" d="M3075.1,-542.16C3267.19,-524.844 3876.14,-459.011 3992,-312 4014.12,-283.935 4014.97,-264.446 4000,-232 3983.36,-195.932 3968.24,-190.262 3932,-174 3875.35,-148.581 3685.62,-133.401 3617.02,-128.634"/>
<polygon fill="midnightblue" stroke="midnightblue" points="3616.95,-125.121 3606.73,-127.935 3616.47,-132.105 3616.95,-125.121"/>
</g>
<!-- Node33&#45;&gt;Node42 -->
<g id="edge326" class="edge"><title>Node33&#45;&gt;Node42</title>
<path fill="none" stroke="midnightblue" d="M2990.27,-536.423C2901.49,-500.935 2609.27,-381.172 2382,-254 2366.62,-245.392 2365.28,-238.763 2349,-232 2274.46,-201.032 2249.08,-216.455 2171,-196 2168.81,-195.425 2166.54,-194.79 2164.28,-194.124"/>
<polygon fill="midnightblue" stroke="midnightblue" points="2165.12,-190.72 2154.53,-191.092 2163.04,-197.405 2165.12,-190.72"/>
</g>
<!-- Node43 -->
<g id="node109" class="node"><title>Node43</title>
<a xlink:href="_calibration_8h.html" target="_top" xlink:title="calibration/Calibration.h">
<polygon fill="white" stroke="black" points="2105.5,-478.5 2105.5,-499.5 2224.5,-499.5 2224.5,-478.5 2105.5,-478.5"/>
<text text-anchor="middle" x="2165" y="-486.5" font-family="Helvetica,sans-Serif" font-size="10.00">calibration/Calibration.h</text>
</a>
</g>
<!-- Node33&#45;&gt;Node43 -->
<g id="edge132" class="edge"><title>Node33&#45;&gt;Node43</title>
<path fill="none" stroke="midnightblue" d="M2958.77,-543.036C2806.94,-532.7 2399.36,-504.954 2235.07,-493.77"/>
<polygon fill="midnightblue" stroke="midnightblue" points="2234.82,-490.245 2224.6,-493.057 2234.34,-497.229 2234.82,-490.245"/>
</g>
<!-- Node34&#45;&gt;Node7 -->
<g id="edge88" class="edge"><title>Node34&#45;&gt;Node7</title>
<path fill="none" stroke="midnightblue" d="M1850.52,-121.014C1866.82,-119.149 1885.19,-117.255 1902,-116 2354.78,-82.2109 2903.56,-72.1052 3074.54,-69.6693"/>
<polygon fill="midnightblue" stroke="midnightblue" points="3074.82,-73.1657 3084.77,-69.5263 3074.73,-66.1664 3074.82,-73.1657"/>
</g>
<!-- Node34&#45;&gt;Node8 -->
<g id="edge100" class="edge"><title>Node34&#45;&gt;Node8</title>
<path fill="none" stroke="midnightblue" d="M1819.03,-116.34C1843.79,-100.492 1893.36,-71.1753 1940,-58 2040.07,-29.7324 2362.56,-15.8876 2465.85,-12.1005"/>
<polygon fill="midnightblue" stroke="midnightblue" points="2466.11,-15.5937 2475.97,-11.7361 2465.85,-8.59823 2466.11,-15.5937"/>
</g>
<!-- Node34&#45;&gt;Node12 -->
<g id="edge96" class="edge"><title>Node34&#45;&gt;Node12</title>
<path fill="none" stroke="midnightblue" d="M1803.01,-116.426C1802.45,-101.483 1799.23,-74.2048 1784,-58 1756.27,-28.5 1709.22,-17.5159 1678.13,-13.4261"/>
<polygon fill="midnightblue" stroke="midnightblue" points="1678.19,-9.90998 1667.86,-12.2479 1677.39,-16.8644 1678.19,-9.90998"/>
</g>
<!-- Node34&#45;&gt;Node17 -->
<g id="edge98" class="edge"><title>Node34&#45;&gt;Node17</title>
<path fill="none" stroke="midnightblue" d="M1792.18,-116.362C1783.78,-108.104 1771.95,-96.4725 1762.11,-86.8029"/>
<polygon fill="midnightblue" stroke="midnightblue" points="1764.34,-84.0851 1754.75,-79.5707 1759.43,-89.077 1764.34,-84.0851"/>
</g>
<!-- Node34&#45;&gt;Node19 -->
<g id="edge92" class="edge"><title>Node34&#45;&gt;Node19</title>
<path fill="none" stroke="midnightblue" d="M1755.06,-124.603C1630.59,-118.29 1286.9,-100.287 1001,-80 967.384,-77.6147 928.999,-74.3557 902.321,-72.0049"/>
<polygon fill="midnightblue" stroke="midnightblue" points="902.624,-68.5181 892.354,-71.1209 902.006,-75.4908 902.624,-68.5181"/>
</g>
<!-- Node34&#45;&gt;Node20 -->
<g id="edge94" class="edge"><title>Node34&#45;&gt;Node20</title>
<path fill="none" stroke="midnightblue" d="M1755.31,-120.119C1675.16,-108.555 1514.94,-85.4385 1440.59,-74.7116"/>
<polygon fill="midnightblue" stroke="midnightblue" points="1441.08,-71.2467 1430.68,-73.2827 1440.08,-78.1749 1441.08,-71.2467"/>
</g>
<!-- Node35 -->
<g id="node80" class="node"><title>Node35</title>
<polygon fill="white" stroke="#bfbfbf" points="2367.5,-58.5 2367.5,-79.5 2432.5,-79.5 2432.5,-58.5 2367.5,-58.5"/>
<text text-anchor="middle" x="2400" y="-66.5" font-family="Helvetica,sans-Serif" font-size="10.00">TVector3.h</text>
</g>
<!-- Node34&#45;&gt;Node35 -->
<g id="edge90" class="edge"><title>Node34&#45;&gt;Node35</title>
<path fill="none" stroke="midnightblue" d="M1850.57,-121.553C1866.87,-119.729 1885.23,-117.723 1902,-116 2070.35,-98.7046 2270.96,-80.506 2357.17,-72.8012"/>
<polygon fill="midnightblue" stroke="midnightblue" points="2357.7,-76.2679 2367.35,-71.8927 2357.08,-69.2956 2357.7,-76.2679"/>
</g>
<!-- Node36&#45;&gt;Node32 -->
<g id="edge126" class="edge"><title>Node36&#45;&gt;Node32</title>
<path fill="none" stroke="midnightblue" d="M3629.22,-348.866C3627.53,-322.752 3622.25,-271.825 3606,-232 3601.95,-222.066 3595.57,-212.096 3589.57,-203.91"/>
<polygon fill="midnightblue" stroke="midnightblue" points="3592.21,-201.603 3583.33,-195.815 3586.66,-205.873 3592.21,-201.603"/>
</g>
<!-- Node36&#45;&gt;Node34 -->
<g id="edge104" class="edge"><title>Node36&#45;&gt;Node34</title>
<path fill="none" stroke="midnightblue" d="M3568.7,-362.57C3496.89,-358.639 3374.34,-352.199 3269,-348 2733.63,-326.658 2596.53,-371.043 2064,-312 2030.26,-308.259 1785.61,-280.186 1764,-254 1734.23,-217.919 1811.55,-209.775 1819,-196 1827.27,-180.707 1821.52,-161.262 1814.72,-146.914"/>
<polygon fill="midnightblue" stroke="midnightblue" points="1817.75,-145.143 1810.01,-137.909 1811.55,-148.392 1817.75,-145.143"/>
</g>
<!-- Node37 -->
<g id="node90" class="node"><title>Node37</title>
<a xlink:href="_memory_pool_8h.html" target="_top" xlink:title="tree/MemoryPool.h">
<polygon fill="white" stroke="black" points="3733.5,-290.5 3733.5,-311.5 3832.5,-311.5 3832.5,-290.5 3733.5,-290.5"/>
<text text-anchor="middle" x="3783" y="-298.5" font-family="Helvetica,sans-Serif" font-size="10.00">tree/MemoryPool.h</text>
</a>
</g>
<!-- Node36&#45;&gt;Node37 -->
<g id="edge106" class="edge"><title>Node36&#45;&gt;Node37</title>
<path fill="none" stroke="midnightblue" d="M3670.2,-348.922C3694.52,-338.588 3725.23,-325.545 3748.45,-315.676"/>
<polygon fill="midnightblue" stroke="midnightblue" points="3750.08,-318.79 3757.91,-311.658 3747.34,-312.347 3750.08,-318.79"/>
</g>
<!-- Node36&#45;&gt;Node39 -->
<g id="edge130" class="edge"><title>Node36&#45;&gt;Node39</title>
<path fill="none" stroke="midnightblue" d="M3691.08,-363.253C3805.91,-355.8 4036.11,-328.675 3963,-232 3920.09,-175.26 3692.69,-140.358 3616.73,-130.144"/>
<polygon fill="midnightblue" stroke="midnightblue" points="3617.03,-126.654 3606.66,-128.817 3616.12,-133.594 3617.03,-126.654"/>
</g>
<!-- Node36&#45;&gt;Node41 -->
<g id="edge118" class="edge"><title>Node36&#45;&gt;Node41</title>
<path fill="none" stroke="midnightblue" d="M3568.99,-363.961C3434.2,-358.926 3114.86,-343.924 3012,-312 2974.49,-300.36 2935.79,-275.974 2912.31,-259.539"/>
<polygon fill="midnightblue" stroke="midnightblue" points="2914.26,-256.632 2904.09,-253.673 2910.19,-262.33 2914.26,-256.632"/>
</g>
<!-- Node36&#45;&gt;Node42 -->
<g id="edge128" class="edge"><title>Node36&#45;&gt;Node42</title>
<path fill="none" stroke="midnightblue" d="M3568.76,-362.027C3450.54,-354.147 3182.69,-335.274 2958,-312 2856.17,-301.453 2601.42,-273.909 2501,-254 2464.41,-246.745 2456.45,-239.955 2420,-232 2395.28,-226.605 2231.52,-200.166 2165.01,-189.487"/>
<polygon fill="midnightblue" stroke="midnightblue" points="2165.27,-185.984 2154.84,-187.856 2164.16,-192.896 2165.27,-185.984"/>
</g>
<!-- Node37&#45;&gt;Node32 -->
<g id="edge114" class="edge"><title>Node37&#45;&gt;Node32</title>
<path fill="none" stroke="midnightblue" d="M3832.53,-296.641C3892.19,-289.541 3980.27,-272.02 3945,-232 3923.06,-207.105 3699.56,-191.998 3610.42,-186.922"/>
<polygon fill="midnightblue" stroke="midnightblue" points="3610.41,-183.417 3600.23,-186.353 3610.02,-190.406 3610.41,-183.417"/>
</g>
<!-- Node38 -->
<g id="node92" class="node"><title>Node38</title>
<a xlink:href="memory_8h.html" target="_top" xlink:title="base/std_ext/memory.h">
<polygon fill="white" stroke="black" points="3657.5,-232.5 3657.5,-253.5 3776.5,-253.5 3776.5,-232.5 3657.5,-232.5"/>
<text text-anchor="middle" x="3717" y="-240.5" font-family="Helvetica,sans-Serif" font-size="10.00">base/std_ext/memory.h</text>
</a>
</g>
<!-- Node37&#45;&gt;Node38 -->
<g id="edge108" class="edge"><title>Node37&#45;&gt;Node38</title>
<path fill="none" stroke="midnightblue" d="M3770.89,-290.362C3761.31,-281.941 3747.74,-270.011 3736.61,-260.231"/>
<polygon fill="midnightblue" stroke="midnightblue" points="3738.85,-257.543 3729.03,-253.571 3734.23,-262.801 3738.85,-257.543"/>
</g>
<!-- Node40 -->
<g id="node98" class="node"><title>Node40</title>
<polygon fill="white" stroke="#bfbfbf" points="3869.5,-232.5 3869.5,-253.5 3936.5,-253.5 3936.5,-232.5 3869.5,-232.5"/>
<text text-anchor="middle" x="3903" y="-240.5" font-family="Helvetica,sans-Serif" font-size="10.00">forward_list</text>
</g>
<!-- Node37&#45;&gt;Node40 -->
<g id="edge116" class="edge"><title>Node37&#45;&gt;Node40</title>
<path fill="none" stroke="midnightblue" d="M3804.73,-290.497C3823.47,-281.438 3850.77,-268.246 3871.84,-258.063"/>
<polygon fill="midnightblue" stroke="midnightblue" points="3873.54,-261.124 3881.03,-253.621 3870.5,-254.822 3873.54,-261.124"/>
</g>
<!-- Node38&#45;&gt;Node32 -->
<g id="edge110" class="edge"><title>Node38&#45;&gt;Node32</title>
<path fill="none" stroke="midnightblue" d="M3691.1,-232.497C3668.37,-223.275 3635.07,-209.769 3609.79,-199.515"/>
<polygon fill="midnightblue" stroke="midnightblue" points="3610.77,-196.136 3600.19,-195.621 3608.14,-202.623 3610.77,-196.136"/>
</g>
<!-- Node38&#45;&gt;Node39 -->
<g id="edge112" class="edge"><title>Node38&#45;&gt;Node39</title>
<path fill="none" stroke="midnightblue" d="M3705.46,-232.295C3683.88,-212.268 3637.22,-168.964 3610.95,-144.589"/>
<polygon fill="midnightblue" stroke="midnightblue" points="3613.22,-141.916 3603.51,-137.679 3608.46,-147.047 3613.22,-141.916"/>
</g>
<!-- Node41&#45;&gt;Node8 -->
<g id="edge120" class="edge"><title>Node41&#45;&gt;Node8</title>
<path fill="none" stroke="midnightblue" d="M2829.32,-233.917C2745.16,-221.222 2602.71,-199.344 2598,-196 2568.3,-174.915 2524.16,-74.3363 2506.12,-30.9715"/>
<polygon fill="midnightblue" stroke="midnightblue" points="2509.35,-29.628 2502.31,-21.7156 2502.88,-32.2949 2509.35,-29.628"/>
</g>
<!-- Node41&#45;&gt;Node17 -->
<g id="edge124" class="edge"><title>Node41&#45;&gt;Node17</title>
<path fill="none" stroke="midnightblue" d="M2829.3,-238.249C2687.88,-227.127 2347.54,-200.034 2336,-196 2319.36,-190.183 2319.7,-179.651 2303,-174 2244.36,-154.154 1790.31,-182.237 1747,-138 1734.85,-125.59 1735.49,-105.134 1738.33,-89.7102"/>
<polygon fill="midnightblue" stroke="midnightblue" points="1741.84,-90.0827 1740.64,-79.5554 1735.01,-88.5298 1741.84,-90.0827"/>
</g>
<!-- Node41&#45;&gt;Node32 -->
<g id="edge122" class="edge"><title>Node41&#45;&gt;Node32</title>
<path fill="none" stroke="midnightblue" d="M2950.7,-237.853C3089.43,-226.089 3426.3,-197.524 3537.62,-188.085"/>
<polygon fill="midnightblue" stroke="midnightblue" points="3538.01,-191.565 3547.68,-187.232 3537.42,-184.59 3538.01,-191.565"/>
</g>
<!-- Node43&#45;&gt;Node8 -->
<g id="edge318" class="edge"><title>Node43&#45;&gt;Node8</title>
<path fill="none" stroke="midnightblue" d="M2105.3,-484.57C1944.41,-470.134 1521.2,-414.317 1633,-232 1662.72,-183.539 1694.44,-195.656 1747,-174 1795.34,-154.082 1809.65,-155.274 1859,-138 1953.66,-104.866 1972.49,-81.4389 2070,-58 2214.83,-23.1873 2393.52,-14.0934 2465.6,-11.7725"/>
<polygon fill="midnightblue" stroke="midnightblue" points="2465.95,-15.2638 2475.84,-11.4661 2465.74,-8.26689 2465.95,-15.2638"/>
</g>
<!-- Node43&#45;&gt;Node36 -->
<g id="edge302" class="edge"><title>Node43&#45;&gt;Node36</title>
<path fill="none" stroke="midnightblue" d="M2224.6,-485.064C2473.39,-468.558 3422.23,-404.81 3555,-384 3556.27,-383.802 3557.54,-383.593 3558.82,-383.375"/>
<polygon fill="midnightblue" stroke="midnightblue" points="3559.57,-386.797 3568.76,-381.541 3558.3,-379.914 3559.57,-386.797"/>
</g>
<!-- Node44 -->
<g id="node111" class="node"><title>Node44</title>
<a xlink:href="_physics_8h.html" target="_top" xlink:title="analysis/physics/Physics.h">
<polygon fill="white" stroke="black" points="2097,-420.5 2097,-441.5 2233,-441.5 2233,-420.5 2097,-420.5"/>
<text text-anchor="middle" x="2165" y="-428.5" font-family="Helvetica,sans-Serif" font-size="10.00">analysis/physics/Physics.h</text>
</a>
</g>
<!-- Node43&#45;&gt;Node44 -->
<g id="edge134" class="edge"><title>Node43&#45;&gt;Node44</title>
<path fill="none" stroke="midnightblue" d="M2165,-478.362C2165,-470.922 2165,-460.743 2165,-451.728"/>
<polygon fill="midnightblue" stroke="midnightblue" points="2168.5,-451.571 2165,-441.571 2161.5,-451.571 2168.5,-451.571"/>
</g>
<!-- Node69 -->
<g id="node221" class="node"><title>Node69</title>
<a xlink:href="_manager__traits_8h.html" target="_top" xlink:title="calibration/gui/Manager\l_traits.h">
<polygon fill="white" stroke="black" points="1279.5,-349 1279.5,-383 1396.5,-383 1396.5,-349 1279.5,-349"/>
<text text-anchor="start" x="1287.5" y="-370" font-family="Helvetica,sans-Serif" font-size="10.00">calibration/gui/Manager</text>
<text text-anchor="middle" x="1338" y="-357" font-family="Helvetica,sans-Serif" font-size="10.00">_traits.h</text>
</a>
</g>
<!-- Node43&#45;&gt;Node69 -->
<g id="edge304" class="edge"><title>Node43&#45;&gt;Node69</title>
<path fill="none" stroke="midnightblue" d="M2105.1,-487.928C2001.38,-485.204 1781.97,-475.613 1600,-442 1528.31,-428.758 1448.12,-403.966 1395.56,-386.299"/>
<polygon fill="midnightblue" stroke="midnightblue" points="1396.67,-382.98 1386.07,-383.087 1394.42,-389.61 1396.67,-382.98"/>
</g>
<!-- Node44&#45;&gt;Node12 -->
<g id="edge294" class="edge"><title>Node44&#45;&gt;Node12</title>
<path fill="none" stroke="midnightblue" d="M2096.92,-428.621C2022.43,-424.562 1900.14,-413.595 1799,-384 1669.25,-346.035 1596.34,-368.209 1524,-254 1472.92,-173.358 1578.89,-68.7877 1625.98,-28.1773"/>
<polygon fill="midnightblue" stroke="midnightblue" points="1628.41,-30.7067 1633.78,-21.5732 1623.89,-25.3648 1628.41,-30.7067"/>
</g>
<!-- Node44&#45;&gt;Node32 -->
<g id="edge298" class="edge"><title>Node44&#45;&gt;Node32</title>
<path fill="none" stroke="midnightblue" d="M2233.13,-430.347C2441.5,-427.995 3068.3,-418.191 3269,-384 3377.52,-365.512 3413.45,-371.613 3506,-312 3534.86,-293.412 3541.11,-284.424 3557,-254 3564.84,-238.986 3569.16,-220.23 3571.48,-206.064"/>
<polygon fill="midnightblue" stroke="midnightblue" points="3574.99,-206.241 3572.94,-195.846 3568.06,-205.25 3574.99,-206.241"/>
</g>
<!-- Node44&#45;&gt;Node39 -->
<g id="edge292" class="edge"><title>Node44&#45;&gt;Node39</title>
<path fill="none" stroke="midnightblue" d="M2233.16,-429.836C2511.48,-424.959 3553.92,-405.421 3700,-384 3822.88,-365.981 3884.7,-402.267 3970,-312 3994.69,-285.868 3999.52,-263.396 3982,-232 3958.08,-189.132 3934.03,-191.071 3888,-174 3792.1,-138.432 3668.95,-129.775 3616.94,-127.672"/>
<polygon fill="midnightblue" stroke="midnightblue" points="3616.8,-124.165 3606.68,-127.307 3616.55,-131.161 3616.8,-124.165"/>
</g>
<!-- Node44&#45;&gt;Node42 -->
<g id="edge296" class="edge"><title>Node44&#45;&gt;Node42</title>
<path fill="none" stroke="midnightblue" d="M2148.64,-420.412C2112.85,-396.145 2028.32,-332.504 1997,-254 1976.66,-203.032 2054.08,-213.781 2106,-196 2107.22,-195.584 2108.46,-195.156 2109.71,-194.721"/>
<polygon fill="midnightblue" stroke="midnightblue" points="2111.04,-197.963 2119.32,-191.35 2108.72,-191.358 2111.04,-197.963"/>
</g>
<!-- Node45 -->
<g id="node113" class="node"><title>Node45</title>
<a xlink:href="_histogram_factories_8h.html" target="_top" xlink:title="analysis/plot/HistogramFactories.h">
<polygon fill="white" stroke="black" points="1832,-355.5 1832,-376.5 2000,-376.5 2000,-355.5 1832,-355.5"/>
<text text-anchor="middle" x="1916" y="-363.5" font-family="Helvetica,sans-Serif" font-size="10.00">analysis/plot/HistogramFactories.h</text>
</a>
</g>
<!-- Node44&#45;&gt;Node45 -->
<g id="edge136" class="edge"><title>Node44&#45;&gt;Node45</title>
<path fill="none" stroke="midnightblue" d="M2124.72,-420.484C2081.5,-409.204 2012.8,-391.27 1966.13,-379.085"/>
<polygon fill="midnightblue" stroke="midnightblue" points="1966.78,-375.64 1956.23,-376.501 1965.02,-382.413 1966.78,-375.64"/>
</g>
<!-- Node52 -->
<g id="node139" class="node"><title>Node52</title>
<polygon fill="white" stroke="#bfbfbf" points="1943.5,-174.5 1943.5,-195.5 2002.5,-195.5 2002.5,-174.5 1943.5,-174.5"/>
<text text-anchor="middle" x="1973" y="-182.5" font-family="Helvetica,sans-Serif" font-size="10.00">functional</text>
</g>
<!-- Node44&#45;&gt;Node52 -->
<g id="edge300" class="edge"><title>Node44&#45;&gt;Node52</title>
<path fill="none" stroke="midnightblue" d="M2096.76,-426.378C2002.15,-419.264 1840.7,-404.299 1823,-384 1800.51,-358.211 1779.8,-301.272 1835,-232 1841.39,-223.982 1894.97,-207.287 1933.44,-196.11"/>
<polygon fill="midnightblue" stroke="midnightblue" points="1934.71,-199.387 1943.35,-193.256 1932.78,-192.66 1934.71,-199.387"/>
</g>
<!-- Node65 -->
<g id="node189" class="node"><title>Node65</title>
<a xlink:href="_event_8h.html" target="_top" xlink:title="analysis/data/Event.h">
<polygon fill="white" stroke="black" points="3149.5,-355.5 3149.5,-376.5 3260.5,-376.5 3260.5,-355.5 3149.5,-355.5"/>
<text text-anchor="middle" x="3205" y="-363.5" font-family="Helvetica,sans-Serif" font-size="10.00">analysis/data/Event.h</text>
</a>
</g>
<!-- Node44&#45;&gt;Node65 -->
<g id="edge248" class="edge"><title>Node44&#45;&gt;Node65</title>
<path fill="none" stroke="midnightblue" d="M2233.24,-426.735C2422.62,-414.899 2953.02,-381.749 3139.31,-370.106"/>
<polygon fill="midnightblue" stroke="midnightblue" points="3139.74,-373.586 3149.5,-369.469 3139.3,-366.6 3139.74,-373.586"/>
</g>
<!-- Node68 -->
<g id="node212" class="node"><title>Node68</title>
<a xlink:href="_slowcontrol_8h.html" target="_top" xlink:title="analysis/data/Slowcontrol.h">
<polygon fill="white" stroke="black" points="2234.5,-355.5 2234.5,-376.5 2371.5,-376.5 2371.5,-355.5 2234.5,-355.5"/>
<text text-anchor="middle" x="2303" y="-363.5" font-family="Helvetica,sans-Serif" font-size="10.00">analysis/data/Slowcontrol.h</text>
</a>
</g>
<!-- Node44&#45;&gt;Node68 -->
<g id="edge288" class="edge"><title>Node44&#45;&gt;Node68</title>
<path fill="none" stroke="midnightblue" d="M2187.48,-420.412C2210.23,-409.694 2245.62,-393.025 2271.24,-380.96"/>
<polygon fill="midnightblue" stroke="midnightblue" points="2272.98,-384.011 2280.53,-376.584 2269.99,-377.678 2272.98,-384.011"/>
</g>
<!-- Node45&#45;&gt;Node12 -->
<g id="edge246" class="edge"><title>Node45&#45;&gt;Node12</title>
<path fill="none" stroke="midnightblue" d="M1831.87,-357.726C1765.57,-346.281 1677.18,-319.005 1633,-254 1585.61,-184.276 1620.59,-75.6429 1638.33,-31.0924"/>
<polygon fill="midnightblue" stroke="midnightblue" points="1641.64,-32.2456 1642.22,-21.6663 1635.17,-29.5785 1641.64,-32.2456"/>
</g>
<!-- Node46 -->
<g id="node115" class="node"><title>Node46</title>
<a xlink:href="_histogram_8h.html" target="_top" xlink:title="Histogram.h">
<polygon fill="white" stroke="black" points="1642,-232.5 1642,-253.5 1712,-253.5 1712,-232.5 1642,-232.5"/>
<text text-anchor="middle" x="1677" y="-240.5" font-family="Helvetica,sans-Serif" font-size="10.00">Histogram.h</text>
</a>
</g>
<!-- Node45&#45;&gt;Node46 -->
<g id="edge138" class="edge"><title>Node45&#45;&gt;Node46</title>
<path fill="none" stroke="midnightblue" d="M1910.57,-355.367C1901.55,-338.792 1881.88,-306.942 1856,-290 1844.71,-282.612 1771.21,-264.692 1721.97,-253.237"/>
<polygon fill="midnightblue" stroke="midnightblue" points="1722.7,-249.813 1712.17,-250.967 1721.12,-256.633 1722.7,-249.813"/>
</g>
<!-- Node50 -->
<g id="node129" class="node"><title>Node50</title>
<a xlink:href="_smart_hist_8h.html" target="_top" xlink:title="SmartHist.h">
<polygon fill="white" stroke="black" points="2072.5,-290.5 2072.5,-311.5 2141.5,-311.5 2141.5,-290.5 2072.5,-290.5"/>
<text text-anchor="middle" x="2107" y="-298.5" font-family="Helvetica,sans-Serif" font-size="10.00">SmartHist.h</text>
</a>
</g>
<!-- Node45&#45;&gt;Node50 -->
<g id="edge158" class="edge"><title>Node45&#45;&gt;Node50</title>
<path fill="none" stroke="midnightblue" d="M1947.11,-355.412C1979.58,-344.364 2030.63,-326.991 2066.28,-314.857"/>
<polygon fill="midnightblue" stroke="midnightblue" points="2067.56,-318.119 2075.9,-311.584 2065.31,-311.492 2067.56,-318.119"/>
</g>
<!-- Node58 -->
<g id="node155" class="node"><title>Node58</title>
<a xlink:href="_particle_8h.html" target="_top" xlink:title="analysis/data/Particle.h">
<polygon fill="white" stroke="black" points="3020.5,-290.5 3020.5,-311.5 3139.5,-311.5 3139.5,-290.5 3020.5,-290.5"/>
<text text-anchor="middle" x="3080" y="-298.5" font-family="Helvetica,sans-Serif" font-size="10.00">analysis/data/Particle.h</text>
</a>
</g>
<!-- Node45&#45;&gt;Node58 -->
<g id="edge194" class="edge"><title>Node45&#45;&gt;Node58</title>
<path fill="none" stroke="midnightblue" d="M2000.2,-361.042C2062.55,-357.388 2149.57,-352.322 2226,-348 2517.36,-331.523 2864.69,-312.645 3010.33,-304.763"/>
<polygon fill="midnightblue" stroke="midnightblue" points="3010.67,-308.25 3020.46,-304.215 3010.29,-301.26 3010.67,-308.25"/>
</g>
<!-- Node46&#45;&gt;Node8 -->
<g id="edge142" class="edge"><title>Node46&#45;&gt;Node8</title>
<path fill="none" stroke="midnightblue" d="M1710.45,-232.467C1739.33,-223.243 1782.1,-209.277 1819,-196 1885.86,-171.938 1903,-166.729 1968,-138 2041.08,-105.697 2052.52,-81.1486 2129,-58 2191.87,-38.9694 2387.84,-20.5049 2465.66,-13.7242"/>
<polygon fill="midnightblue" stroke="midnightblue" points="2466.17,-17.1933 2475.84,-12.8461 2465.57,-10.2192 2466.17,-17.1933"/>
</g>
<!-- Node46&#45;&gt;Node12 -->
<g id="edge144" class="edge"><title>Node46&#45;&gt;Node12</title>
<path fill="none" stroke="midnightblue" d="M1676.84,-232.467C1676.23,-204.054 1673.46,-123.558 1661,-58 1659.32,-49.1601 1656.64,-39.6086 1654.07,-31.4396"/>
<polygon fill="midnightblue" stroke="midnightblue" points="1657.31,-30.0769 1650.86,-21.6734 1650.66,-32.2664 1657.31,-30.0769"/>
</g>
<!-- Node47 -->
<g id="node117" class="node"><title>Node47</title>
<polygon fill="white" stroke="#bfbfbf" points="1756,-174.5 1756,-195.5 1810,-195.5 1810,-174.5 1756,-174.5"/>
<text text-anchor="middle" x="1783" y="-182.5" font-family="Helvetica,sans-Serif" font-size="10.00">TColor.h</text>
</g>
<!-- Node46&#45;&gt;Node47 -->
<g id="edge140" class="edge"><title>Node46&#45;&gt;Node47</title>
<path fill="none" stroke="midnightblue" d="M1696.44,-232.362C1712.8,-223.409 1736.41,-210.491 1754.84,-200.406"/>
<polygon fill="midnightblue" stroke="midnightblue" points="1756.59,-203.441 1763.68,-195.571 1753.23,-197.3 1756.59,-203.441"/>
</g>
<!-- Node48 -->
<g id="node121" class="node"><title>Node48</title>
<a xlink:href="interval_8h.html" target="_top" xlink:title="base/interval.h">
<polygon fill="white" stroke="black" points="1392,-174.5 1392,-195.5 1472,-195.5 1472,-174.5 1392,-174.5"/>
<text text-anchor="middle" x="1432" y="-182.5" font-family="Helvetica,sans-Serif" font-size="10.00">base/interval.h</text>
</a>
</g>
<!-- Node46&#45;&gt;Node48 -->
<g id="edge146" class="edge"><title>Node46&#45;&gt;Node48</title>
<path fill="none" stroke="midnightblue" d="M1641.9,-234.69C1600.02,-224.777 1529.71,-208.132 1482.13,-196.867"/>
<polygon fill="midnightblue" stroke="midnightblue" points="1482.87,-193.446 1472.33,-194.549 1481.26,-200.258 1482.87,-193.446"/>
</g>
<!-- Node48&#45;&gt;Node7 -->
<g id="edge152" class="edge"><title>Node48&#45;&gt;Node7</title>
<path fill="none" stroke="midnightblue" d="M1472.25,-182.247C1698.98,-166.74 2815.74,-90.3575 3074.43,-72.664"/>
<polygon fill="midnightblue" stroke="midnightblue" points="3074.95,-76.1367 3084.69,-71.9624 3074.47,-69.153 3074.95,-76.1367"/>
</g>
<!-- Node48&#45;&gt;Node14 -->
<g id="edge148" class="edge"><title>Node48&#45;&gt;Node14</title>
<path fill="none" stroke="midnightblue" d="M1391.83,-181.976C1358.85,-179.569 1310.92,-176.243 1269,-174 864.817,-152.371 761.2,-183.456 359,-138 220.152,-122.308 154.696,-172.54 50,-80 36.3546,-67.9389 31.1075,-47.4375 29.1234,-31.9077"/>
<polygon fill="midnightblue" stroke="midnightblue" points="32.5831,-31.3076 28.182,-21.6701 25.6125,-31.9486 32.5831,-31.3076"/>
</g>
<!-- Node48&#45;&gt;Node20 -->
<g id="edge150" class="edge"><title>Node48&#45;&gt;Node20</title>
<path fill="none" stroke="midnightblue" d="M1462.99,-174.396C1492.75,-162.433 1530.88,-141.306 1514,-116 1497.71,-91.58 1466.09,-79.829 1440.43,-74.185"/>
<polygon fill="midnightblue" stroke="midnightblue" points="1441.07,-70.7429 1430.58,-72.2449 1439.71,-77.611 1441.07,-70.7429"/>
</g>
<!-- Node48&#45;&gt;Node29 -->
<g id="edge156" class="edge"><title>Node48&#45;&gt;Node29</title>
<path fill="none" stroke="midnightblue" d="M1448.92,-174.259C1469.28,-160.066 1498.67,-134.681 1481,-116 1431.76,-63.9286 908.24,-87.8166 837,-80 824.889,-78.6712 811.636,-76.6222 800.137,-74.6513"/>
<polygon fill="midnightblue" stroke="midnightblue" points="800.61,-71.1806 790.153,-72.886 799.391,-78.0737 800.61,-71.1806"/>
</g>
<!-- Node49 -->
<g id="node126" class="node"><title>Node49</title>
<a xlink:href="types_8h.html" target="_top" xlink:title="types.h">
<polygon fill="white" stroke="black" points="2963.5,-116.5 2963.5,-137.5 3012.5,-137.5 3012.5,-116.5 2963.5,-116.5"/>
<text text-anchor="middle" x="2988" y="-124.5" font-family="Helvetica,sans-Serif" font-size="10.00">types.h</text>
</a>
</g>
<!-- Node48&#45;&gt;Node49 -->
<g id="edge154" class="edge"><title>Node48&#45;&gt;Node49</title>
<path fill="none" stroke="midnightblue" d="M1472.12,-183.599C1695.18,-175.811 2772.81,-138.182 2777,-138 2839.03,-135.299 2911.28,-131.361 2953.11,-129.002"/>
<polygon fill="midnightblue" stroke="midnightblue" points="2953.53,-132.484 2963.32,-128.424 2953.14,-125.496 2953.53,-132.484"/>
</g>
<!-- Node50&#45;&gt;Node12 -->
<g id="edge188" class="edge"><title>Node50&#45;&gt;Node12</title>
<path fill="none" stroke="midnightblue" d="M2072.47,-297.51C2002.69,-290.108 1850.18,-272.031 1835,-254 1794.9,-206.379 1882.06,-173.826 1859,-116 1830.38,-44.2301 1729.35,-21.2401 1677.78,-14.0941"/>
<polygon fill="midnightblue" stroke="midnightblue" points="1677.93,-10.5853 1667.57,-12.7979 1677.05,-17.5296 1677.93,-10.5853"/>
</g>
<!-- Node50&#45;&gt;Node32 -->
<g id="edge186" class="edge"><title>Node50&#45;&gt;Node32</title>
<path fill="none" stroke="midnightblue" d="M2141.59,-300.561C2336.47,-297.978 3293.33,-283.854 3421,-254 3467.85,-243.044 3517.92,-217.513 3547.56,-200.769"/>
<polygon fill="midnightblue" stroke="midnightblue" points="3549.51,-203.686 3556.44,-195.67 3546.02,-197.616 3549.51,-203.686"/>
</g>
<!-- Node50&#45;&gt;Node38 -->
<g id="edge178" class="edge"><title>Node50&#45;&gt;Node38</title>
<path fill="none" stroke="midnightblue" d="M2141.61,-299.881C2295.32,-294.89 2931.69,-274.035 3454,-254 3519.5,-251.487 3594.17,-248.337 3647.17,-246.053"/>
<polygon fill="midnightblue" stroke="midnightblue" points="3647.63,-249.536 3657.47,-245.608 3647.33,-242.542 3647.63,-249.536"/>
</g>
<!-- Node50&#45;&gt;Node46 -->
<g id="edge160" class="edge"><title>Node50&#45;&gt;Node46</title>
<path fill="none" stroke="midnightblue" d="M2072.18,-296.303C1994.75,-285.859 1808.37,-260.72 1722.15,-249.09"/>
<polygon fill="midnightblue" stroke="midnightblue" points="1722.53,-245.609 1712.15,-247.741 1721.59,-252.547 1722.53,-245.609"/>
</g>
<!-- Node51 -->
<g id="node132" class="node"><title>Node51</title>
<a xlink:href="root__draw_8h.html" target="_top" xlink:title="root_draw.h">
<polygon fill="white" stroke="black" points="1844,-232.5 1844,-253.5 1912,-253.5 1912,-232.5 1844,-232.5"/>
<text text-anchor="middle" x="1878" y="-240.5" font-family="Helvetica,sans-Serif" font-size="10.00">root_draw.h</text>
</a>
</g>
<!-- Node50&#45;&gt;Node51 -->
<g id="edge162" class="edge"><title>Node50&#45;&gt;Node51</title>
<path fill="none" stroke="midnightblue" d="M2072.22,-292.191C2032.06,-282.019 1965.91,-265.266 1922.15,-254.183"/>
<polygon fill="midnightblue" stroke="midnightblue" points="1922.91,-250.764 1912.36,-251.702 1921.19,-257.55 1922.91,-250.764"/>
</g>
<!-- Node53 -->
<g id="node143" class="node"><title>Node53</title>
<polygon fill="white" stroke="#bfbfbf" points="2217.5,-232.5 2217.5,-253.5 2268.5,-253.5 2268.5,-232.5 2217.5,-232.5"/>
<text text-anchor="middle" x="2243" y="-240.5" font-family="Helvetica,sans-Serif" font-size="10.00">TH1D.h</text>
</g>
<!-- Node50&#45;&gt;Node53 -->
<g id="edge180" class="edge"><title>Node50&#45;&gt;Node53</title>
<path fill="none" stroke="midnightblue" d="M2131.63,-290.497C2153.16,-281.315 2184.64,-267.889 2208.64,-257.652"/>
<polygon fill="midnightblue" stroke="midnightblue" points="2210.27,-260.764 2218.1,-253.621 2207.52,-254.325 2210.27,-260.764"/>
</g>
<!-- Node54 -->
<g id="node145" class="node"><title>Node54</title>
<polygon fill="white" stroke="#bfbfbf" points="2081.5,-232.5 2081.5,-253.5 2132.5,-253.5 2132.5,-232.5 2081.5,-232.5"/>
<text text-anchor="middle" x="2107" y="-240.5" font-family="Helvetica,sans-Serif" font-size="10.00">TH2D.h</text>
</g>
<!-- Node50&#45;&gt;Node54 -->
<g id="edge182" class="edge"><title>Node50&#45;&gt;Node54</title>
<path fill="none" stroke="midnightblue" d="M2107,-290.362C2107,-282.922 2107,-272.743 2107,-263.728"/>
<polygon fill="midnightblue" stroke="midnightblue" points="2110.5,-263.571 2107,-253.571 2103.5,-263.571 2110.5,-263.571"/>
</g>
<!-- Node55 -->
<g id="node147" class="node"><title>Node55</title>
<polygon fill="white" stroke="#bfbfbf" points="2149.5,-232.5 2149.5,-253.5 2200.5,-253.5 2200.5,-232.5 2149.5,-232.5"/>
<text text-anchor="middle" x="2175" y="-240.5" font-family="Helvetica,sans-Serif" font-size="10.00">TH3D.h</text>
</g>
<!-- Node50&#45;&gt;Node55 -->
<g id="edge184" class="edge"><title>Node50&#45;&gt;Node55</title>
<path fill="none" stroke="midnightblue" d="M2119.47,-290.362C2129.35,-281.941 2143.33,-270.011 2154.8,-260.231"/>
<polygon fill="midnightblue" stroke="midnightblue" points="2157.27,-262.723 2162.61,-253.571 2152.73,-257.397 2157.27,-262.723"/>
</g>
<!-- Node56 -->
<g id="node151" class="node"><title>Node56</title>
<polygon fill="white" stroke="#bfbfbf" points="2286,-232.5 2286,-253.5 2340,-253.5 2340,-232.5 2286,-232.5"/>
<text text-anchor="middle" x="2313" y="-240.5" font-family="Helvetica,sans-Serif" font-size="10.00">iostream</text>
</g>
<!-- Node50&#45;&gt;Node56 -->
<g id="edge190" class="edge"><title>Node50&#45;&gt;Node56</title>
<path fill="none" stroke="midnightblue" d="M2141.59,-291.729C2173.98,-282.983 2223.96,-269.321 2276.13,-254.205"/>
<polygon fill="midnightblue" stroke="midnightblue" points="2277.27,-257.519 2285.9,-251.367 2275.32,-250.798 2277.27,-257.519"/>
</g>
<!-- Node57 -->
<g id="node153" class="node"><title>Node57</title>
<polygon fill="white" stroke="#bfbfbf" points="2005.5,-232.5 2005.5,-253.5 2064.5,-253.5 2064.5,-232.5 2005.5,-232.5"/>
<text text-anchor="middle" x="2035" y="-240.5" font-family="Helvetica,sans-Serif" font-size="10.00">exception</text>
</g>
<!-- Node50&#45;&gt;Node57 -->
<g id="edge192" class="edge"><title>Node50&#45;&gt;Node57</title>
<path fill="none" stroke="midnightblue" d="M2093.79,-290.362C2083.24,-281.859 2068.24,-269.779 2056.04,-259.947"/>
<polygon fill="midnightblue" stroke="midnightblue" points="2058.11,-257.118 2048.12,-253.571 2053.71,-262.57 2058.11,-257.118"/>
</g>
<!-- Node51&#45;&gt;Node6 -->
<g id="edge176" class="edge"><title>Node51&#45;&gt;Node6</title>
<path fill="none" stroke="midnightblue" d="M1843.81,-240.37C1733.04,-231.773 1390.79,-204.561 1383,-196 1366.57,-177.935 1391.45,-156.866 1414.21,-142.808"/>
<polygon fill="midnightblue" stroke="midnightblue" points="1416.21,-145.691 1423.05,-137.603 1412.66,-139.657 1416.21,-145.691"/>
</g>
<!-- Node51&#45;&gt;Node8 -->
<g id="edge168" class="edge"><title>Node51&#45;&gt;Node8</title>
<path fill="none" stroke="midnightblue" d="M1912.22,-234.1C1949.59,-224.039 2006.68,-207.56 2026,-196 2101.51,-150.806 2089,-96.7768 2168,-58 2220.01,-32.4729 2392.53,-18.126 2465.23,-13.0859"/>
<polygon fill="midnightblue" stroke="midnightblue" points="2465.87,-16.5508 2475.61,-12.383 2465.4,-9.56677 2465.87,-16.5508"/>
</g>
<!-- Node51&#45;&gt;Node12 -->
<g id="edge164" class="edge"><title>Node51&#45;&gt;Node12</title>
<path fill="none" stroke="midnightblue" d="M1912.24,-233.134C1949.64,-222.015 2005.06,-204.398 2011,-196 2016.65,-188.017 2014.78,-183.017 2011,-174 1982.57,-106.177 1958.14,-92.1437 1893,-58 1855.92,-38.5611 1735.4,-21.7702 1677.98,-14.6445"/>
<polygon fill="midnightblue" stroke="midnightblue" points="1678.05,-11.1275 1667.7,-13.3892 1677.2,-18.0758 1678.05,-11.1275"/>
</g>
<!-- Node51&#45;&gt;Node32 -->
<g id="edge172" class="edge"><title>Node51&#45;&gt;Node32</title>
<path fill="none" stroke="midnightblue" d="M1912.07,-239.257C1935.84,-236.79 1968.32,-233.711 1997,-232 2589.05,-196.685 2738.28,-217.411 3331,-196 3404.37,-193.35 3490.16,-189.226 3537.66,-186.852"/>
<polygon fill="midnightblue" stroke="midnightblue" points="3537.94,-190.342 3547.76,-186.345 3537.59,-183.351 3537.94,-190.342"/>
</g>
<!-- Node51&#45;&gt;Node39 -->
<g id="edge166" class="edge"><title>Node51&#45;&gt;Node39</title>
<path fill="none" stroke="midnightblue" d="M1912.08,-239.437C1935.85,-237.052 1968.33,-233.996 1997,-232 2337.88,-208.268 2424.01,-218.209 2765,-196 3082.34,-175.331 3467.25,-139.009 3567.3,-129.392"/>
<polygon fill="midnightblue" stroke="midnightblue" points="3567.71,-132.868 3577.33,-128.425 3567.04,-125.901 3567.71,-132.868"/>
</g>
<!-- Node51&#45;&gt;Node42 -->
<g id="edge170" class="edge"><title>Node51&#45;&gt;Node42</title>
<path fill="none" stroke="midnightblue" d="M1912.06,-235.071C1916.74,-234.018 1921.49,-232.968 1926,-232 2005.77,-214.886 2027.35,-217.697 2106,-196 2107.24,-195.658 2108.5,-195.292 2109.77,-194.907"/>
<polygon fill="midnightblue" stroke="midnightblue" points="2111.03,-198.176 2119.43,-191.726 2108.84,-191.527 2111.03,-198.176"/>
</g>
<!-- Node51&#45;&gt;Node52 -->
<g id="edge174" class="edge"><title>Node51&#45;&gt;Node52</title>
<path fill="none" stroke="midnightblue" d="M1895.42,-232.362C1909.89,-223.532 1930.67,-210.844 1947.08,-200.822"/>
<polygon fill="midnightblue" stroke="midnightblue" points="1948.97,-203.769 1955.69,-195.571 1945.33,-197.794 1948.97,-203.769"/>
</g>
<!-- Node58&#45;&gt;Node7 -->
<g id="edge196" class="edge"><title>Node58&#45;&gt;Node7</title>
<path fill="none" stroke="midnightblue" d="M3139.75,-299.214C3305.97,-293.959 3763.08,-277.43 3785,-254 3863.8,-169.772 4117.41,-297.971 3615,-116 3536.37,-87.5221 3290.6,-75.0472 3181.31,-70.805"/>
<polygon fill="midnightblue" stroke="midnightblue" points="3181.3,-67.302 3171.17,-70.4199 3181.03,-74.2969 3181.3,-67.302"/>
</g>
<!-- Node58&#45;&gt;Node8 -->
<g id="edge240" class="edge"><title>Node58&#45;&gt;Node8</title>
<path fill="none" stroke="midnightblue" d="M3062.2,-290.313C3031.29,-271.836 2969.93,-235.546 2959,-232 2819.51,-186.734 2756.89,-271.224 2631,-196 2567.08,-157.806 2580.55,-117.663 2536,-58 2528.84,-48.4153 2520.52,-38.0467 2513.5,-29.4931"/>
<polygon fill="midnightblue" stroke="midnightblue" points="2516.07,-27.1091 2506.99,-21.6407 2510.68,-31.5745 2516.07,-27.1091"/>
</g>
<!-- Node58&#45;&gt;Node39 -->
<g id="edge242" class="edge"><title>Node58&#45;&gt;Node39</title>
<path fill="none" stroke="midnightblue" d="M3118.8,-290.48C3139.93,-283.127 3165.28,-271.446 3183,-254 3211.05,-226.381 3189.12,-197.085 3221,-174 3249.07,-153.677 3488.36,-134.562 3567.04,-128.776"/>
<polygon fill="midnightblue" stroke="midnightblue" points="3567.72,-132.236 3577.44,-128.02 3567.21,-125.254 3567.72,-132.236"/>
</g>
<!-- Node58&#45;&gt;Node49 -->
<g id="edge198" class="edge"><title>Node58&#45;&gt;Node49</title>
<path fill="none" stroke="midnightblue" d="M3064.55,-290.295C3041.69,-273.387 2999.86,-238.062 2984,-196 2978.19,-180.585 2979.76,-161.858 2982.47,-147.805"/>
<polygon fill="midnightblue" stroke="midnightblue" points="2985.96,-148.217 2984.76,-137.69 2979.14,-146.667 2985.96,-148.217"/>
</g>
<!-- Node58&#45;&gt;Node56 -->
<g id="edge244" class="edge"><title>Node58&#45;&gt;Node56</title>
<path fill="none" stroke="midnightblue" d="M3020.45,-296.497C2869.29,-285.066 2473.93,-255.17 2350.43,-245.83"/>
<polygon fill="midnightblue" stroke="midnightblue" points="2350.57,-242.331 2340.33,-245.067 2350.04,-249.311 2350.57,-242.331"/>
</g>
<!-- Node59 -->
<g id="node159" class="node"><title>Node59</title>
<a xlink:href="_particle_type_8h.html" target="_top" xlink:title="base/ParticleType.h">
<polygon fill="white" stroke="black" points="2510,-232.5 2510,-253.5 2614,-253.5 2614,-232.5 2510,-232.5"/>
<text text-anchor="middle" x="2562" y="-240.5" font-family="Helvetica,sans-Serif" font-size="10.00">base/ParticleType.h</text>
</a>
</g>
<!-- Node58&#45;&gt;Node59 -->
<g id="edge200" class="edge"><title>Node58&#45;&gt;Node59</title>
<path fill="none" stroke="midnightblue" d="M3020.33,-294.318C2921.43,-283.245 2724.54,-261.2 2624.08,-249.951"/>
<polygon fill="midnightblue" stroke="midnightblue" points="2624.41,-246.466 2614.08,-248.831 2623.63,-253.423 2624.41,-246.466"/>
</g>
<!-- Node61 -->
<g id="node168" class="node"><title>Node61</title>
<a xlink:href="_candidate_8h.html" target="_top" xlink:title="analysis/data/Candidate.h">
<polygon fill="white" stroke="black" points="3044,-232.5 3044,-253.5 3174,-253.5 3174,-232.5 3044,-232.5"/>
<text text-anchor="middle" x="3109" y="-240.5" font-family="Helvetica,sans-Serif" font-size="10.00">analysis/data/Candidate.h</text>
</a>
</g>
<!-- Node58&#45;&gt;Node61 -->
<g id="edge214" class="edge"><title>Node58&#45;&gt;Node61</title>
<path fill="none" stroke="midnightblue" d="M3085.32,-290.362C3089.2,-282.595 3094.58,-271.843 3099.23,-262.546"/>
<polygon fill="midnightblue" stroke="midnightblue" points="3102.37,-264.08 3103.71,-253.571 3096.11,-260.95 3102.37,-264.08"/>
</g>
<!-- Node64 -->
<g id="node183" class="node"><title>Node64</title>
<polygon fill="white" stroke="#bfbfbf" points="3230,-174.5 3230,-195.5 3322,-195.5 3322,-174.5 3230,-174.5"/>
<text text-anchor="middle" x="3276" y="-182.5" font-family="Helvetica,sans-Serif" font-size="10.00">TLorentzVector.h</text>
</g>
<!-- Node58&#45;&gt;Node64 -->
<g id="edge238" class="edge"><title>Node58&#45;&gt;Node64</title>
<path fill="none" stroke="midnightblue" d="M3129.74,-290.489C3156.82,-283.182 3190.02,-271.544 3216,-254 3235.69,-240.708 3252.86,-219.381 3263.73,-203.953"/>
<polygon fill="midnightblue" stroke="midnightblue" points="3266.64,-205.893 3269.37,-195.656 3260.85,-201.956 3266.64,-205.893"/>
</g>
<!-- Node59&#45;&gt;Node8 -->
<g id="edge212" class="edge"><title>Node59&#45;&gt;Node8</title>
<path fill="none" stroke="midnightblue" d="M2543.63,-232.425C2530.6,-224.061 2513.61,-211.27 2503,-196 2487.52,-173.725 2488.28,-164.787 2484,-138 2478.4,-102.889 2478.87,-93.1837 2484,-58 2485.31,-48.9958 2487.97,-39.3181 2490.62,-31.0986"/>
<polygon fill="midnightblue" stroke="midnightblue" points="2493.93,-32.2223 2493.87,-21.6276 2487.31,-29.9496 2493.93,-32.2223"/>
</g>
<!-- Node59&#45;&gt;Node9 -->
<g id="edge206" class="edge"><title>Node59&#45;&gt;Node9</title>
<path fill="none" stroke="midnightblue" d="M2614.24,-233.924C2676.99,-222.918 2778.5,-204.755 2816,-196 2908.21,-174.474 2944.05,-193.18 3021,-138 3056.06,-112.855 3047.58,-90.4651 3076,-58 3085.27,-47.4133 3096.77,-36.8019 3106.6,-28.3478"/>
<polygon fill="midnightblue" stroke="midnightblue" points="3108.98,-30.9191 3114.38,-21.8017 3104.47,-25.5637 3108.98,-30.9191"/>
</g>
<!-- Node59&#45;&gt;Node12 -->
<g id="edge204" class="edge"><title>Node59&#45;&gt;Node12</title>
<path fill="none" stroke="midnightblue" d="M2509.8,-236.192C2425.07,-225.023 2264.46,-203.318 2239,-196 2092.88,-154.003 2071.64,-101.63 1926,-58 1838.14,-31.6792 1730.02,-18.7505 1677.94,-13.6805"/>
<polygon fill="midnightblue" stroke="midnightblue" points="1677.99,-10.1696 1667.7,-12.7159 1677.33,-17.1387 1677.99,-10.1696"/>
</g>
<!-- Node59&#45;&gt;Node42 -->
<g id="edge208" class="edge"><title>Node59&#45;&gt;Node42</title>
<path fill="none" stroke="midnightblue" d="M2509.76,-236.548C2440.31,-227.87 2313.8,-211.706 2206,-196 2192.31,-194.005 2177.12,-191.604 2164.49,-189.555"/>
<polygon fill="midnightblue" stroke="midnightblue" points="2165,-186.092 2154.56,-187.933 2163.87,-193.001 2165,-186.092"/>
</g>
<!-- Node59&#45;&gt;Node49 -->
<g id="edge202" class="edge"><title>Node59&#45;&gt;Node49</title>
<path fill="none" stroke="midnightblue" d="M2612.31,-232.417C2653.54,-223.488 2713.31,-209.96 2765,-196 2832.51,-177.766 2910.33,-152.763 2953.89,-138.401"/>
<polygon fill="midnightblue" stroke="midnightblue" points="2955.03,-141.711 2963.42,-135.247 2952.83,-135.065 2955.03,-141.711"/>
</g>
<!-- Node60 -->
<g id="node165" class="node"><title>Node60</title>
<polygon fill="white" stroke="#bfbfbf" points="2247.5,-174.5 2247.5,-195.5 2294.5,-195.5 2294.5,-174.5 2247.5,-174.5"/>
<text text-anchor="middle" x="2271" y="-182.5" font-family="Helvetica,sans-Serif" font-size="10.00">iterator</text>
</g>
<!-- Node59&#45;&gt;Node60 -->
<g id="edge210" class="edge"><title>Node59&#45;&gt;Node60</title>
<path fill="none" stroke="midnightblue" d="M2509.74,-234.005C2446.97,-223.081 2345.44,-205.004 2308,-196 2306.92,-195.741 2305.83,-195.471 2304.74,-195.19"/>
<polygon fill="midnightblue" stroke="midnightblue" points="2305.35,-191.73 2294.78,-192.475 2303.51,-198.484 2305.35,-191.73"/>
</g>
<!-- Node61&#45;&gt;Node7 -->
<g id="edge216" class="edge"><title>Node61&#45;&gt;Node7</title>
<path fill="none" stroke="midnightblue" d="M3110.16,-232.377C3113.23,-204.293 3121.59,-127.673 3125.68,-90.2027"/>
<polygon fill="midnightblue" stroke="midnightblue" points="3129.2,-90.2486 3126.81,-79.9277 3122.24,-89.4887 3129.2,-90.2486"/>
</g>
<!-- Node61&#45;&gt;Node8 -->
<g id="edge236" class="edge"><title>Node61&#45;&gt;Node8</title>
<path fill="none" stroke="midnightblue" d="M3072.11,-232.47C3046.49,-224.367 3012.05,-211.875 2984,-196 2898.1,-147.378 2900.52,-97.3456 2810,-58 2760.17,-36.3402 2600.2,-20.0253 2530.72,-13.7789"/>
<polygon fill="midnightblue" stroke="midnightblue" points="2530.65,-10.2588 2520.38,-12.8635 2530.03,-17.2315 2530.65,-10.2588"/>
</g>
<!-- Node61&#45;&gt;Node9 -->
<g id="edge232" class="edge"><title>Node61&#45;&gt;Node9</title>
<path fill="none" stroke="midnightblue" d="M3115.45,-232.45C3130.43,-207.238 3167.28,-141.04 3180,-80 3181.99,-70.4278 3183.97,-66.9362 3180,-58 3174.6,-45.8358 3164.32,-35.4865 3154.32,-27.6217"/>
<polygon fill="midnightblue" stroke="midnightblue" points="3156.23,-24.6872 3146.1,-21.6143 3152.11,-30.3395 3156.23,-24.6872"/>
</g>
<!-- Node61&#45;&gt;Node32 -->
<g id="edge234" class="edge"><title>Node61&#45;&gt;Node32</title>
<path fill="none" stroke="midnightblue" d="M3174.15,-234.874C3273.33,-222.502 3458.97,-199.348 3537.47,-189.557"/>
<polygon fill="midnightblue" stroke="midnightblue" points="3538.32,-192.978 3547.81,-188.267 3537.45,-186.031 3538.32,-192.978"/>
</g>
<!-- Node61&#45;&gt;Node34 -->
<g id="edge220" class="edge"><title>Node61&#45;&gt;Node34</title>
<path fill="none" stroke="midnightblue" d="M3043.85,-237.161C2910.82,-225.243 2598.38,-197.278 2336,-174 2163.07,-158.658 1958.57,-140.668 1860.76,-132.073"/>
<polygon fill="midnightblue" stroke="midnightblue" points="1861.05,-128.585 1850.78,-131.196 1860.43,-135.558 1861.05,-128.585"/>
</g>
<!-- Node61&#45;&gt;Node49 -->
<g id="edge218" class="edge"><title>Node61&#45;&gt;Node49</title>
<path fill="none" stroke="midnightblue" d="M3055.88,-232.454C3034.74,-225.569 3012.12,-214.309 2998,-196 2987.51,-182.406 2985.58,-162.693 2985.94,-147.815"/>
<polygon fill="midnightblue" stroke="midnightblue" points="2989.45,-147.755 2986.55,-137.562 2982.46,-147.333 2989.45,-147.755"/>
</g>
<!-- Node62 -->
<g id="node173" class="node"><title>Node62</title>
<a xlink:href="_cluster_8h.html" target="_top" xlink:title="analysis/data/Cluster.h">
<polygon fill="white" stroke="black" points="2639.5,-174.5 2639.5,-195.5 2756.5,-195.5 2756.5,-174.5 2639.5,-174.5"/>
<text text-anchor="middle" x="2698" y="-182.5" font-family="Helvetica,sans-Serif" font-size="10.00">analysis/data/Cluster.h</text>
</a>
</g>
<!-- Node61&#45;&gt;Node62 -->
<g id="edge222" class="edge"><title>Node61&#45;&gt;Node62</title>
<path fill="none" stroke="midnightblue" d="M3043.88,-233.81C2968.17,-223.126 2843.76,-205.57 2766.6,-194.681"/>
<polygon fill="midnightblue" stroke="midnightblue" points="2766.89,-191.187 2756.5,-193.255 2765.91,-198.119 2766.89,-191.187"/>
</g>
<!-- Node62&#45;&gt;Node34 -->
<g id="edge224" class="edge"><title>Node62&#45;&gt;Node34</title>
<path fill="none" stroke="midnightblue" d="M2639.28,-181.194C2476.79,-170.664 2022.57,-141.229 1860.98,-130.757"/>
<polygon fill="midnightblue" stroke="midnightblue" points="1860.97,-127.249 1850.76,-130.095 1860.52,-134.235 1860.97,-127.249"/>
</g>
<!-- Node62&#45;&gt;Node35 -->
<g id="edge228" class="edge"><title>Node62&#45;&gt;Node35</title>
<path fill="none" stroke="midnightblue" d="M2670.76,-174.398C2617,-153.471 2497.21,-106.841 2436.61,-83.2521"/>
<polygon fill="midnightblue" stroke="midnightblue" points="2437.65,-79.9011 2427.06,-79.5352 2435.11,-86.4243 2437.65,-79.9011"/>
</g>
<!-- Node62&#45;&gt;Node39 -->
<g id="edge226" class="edge"><title>Node62&#45;&gt;Node39</title>
<path fill="none" stroke="midnightblue" d="M2756.66,-181.194C2932.02,-169.817 3447.56,-136.371 3567.06,-128.618"/>
<polygon fill="midnightblue" stroke="midnightblue" points="3567.61,-132.09 3577.37,-127.949 3567.16,-125.104 3567.61,-132.09"/>
</g>
<!-- Node63 -->
<g id="node178" class="node"><title>Node63</title>
<a xlink:href="enumfield_8h.html" target="_top" xlink:title="base/enumfield.h">
<polygon fill="white" stroke="black" points="2677.5,-116.5 2677.5,-137.5 2768.5,-137.5 2768.5,-116.5 2677.5,-116.5"/>
<text text-anchor="middle" x="2723" y="-124.5" font-family="Helvetica,sans-Serif" font-size="10.00">base/enumfield.h</text>
</a>
</g>
<!-- Node62&#45;&gt;Node63 -->
<g id="edge230" class="edge"><title>Node62&#45;&gt;Node63</title>
<path fill="none" stroke="midnightblue" d="M2702.59,-174.362C2705.9,-166.677 2710.47,-156.069 2714.45,-146.84"/>
<polygon fill="midnightblue" stroke="midnightblue" points="2717.7,-148.139 2718.44,-137.571 2711.27,-145.368 2717.7,-148.139"/>
</g>
<!-- Node65&#45;&gt;Node7 -->
<g id="edge280" class="edge"><title>Node65&#45;&gt;Node7</title>
<path fill="none" stroke="midnightblue" d="M3260.54,-363.834C3394.47,-358.201 3732.16,-341.449 3841,-312 3903.59,-295.065 3996.94,-287.245 3963,-232 3903.27,-134.792 3843.86,-146.777 3734,-116 3630.72,-87.0667 3309.34,-74.4476 3181.37,-70.4775"/>
<polygon fill="midnightblue" stroke="midnightblue" points="3181.14,-66.9691 3171.04,-70.163 3180.93,-73.9659 3181.14,-66.9691"/>
</g>
<!-- Node65&#45;&gt;Node8 -->
<g id="edge282" class="edge"><title>Node65&#45;&gt;Node8</title>
<path fill="none" stroke="midnightblue" d="M3149.49,-356.235C3099.04,-346.803 3022.83,-331.152 2958,-312 2861.02,-283.349 2842.09,-260.275 2745,-232 2670.43,-210.284 2637.03,-241.382 2574,-196 2519.51,-156.768 2503.98,-71.2531 2499.64,-31.7576"/>
<polygon fill="midnightblue" stroke="midnightblue" points="2503.11,-31.3233 2498.67,-21.7047 2496.14,-31.9941 2503.11,-31.3233"/>
</g>
<!-- Node65&#45;&gt;Node32 -->
<g id="edge284" class="edge"><title>Node65&#45;&gt;Node32</title>
<path fill="none" stroke="midnightblue" d="M3260.64,-359.805C3329.87,-351.288 3443.35,-334.43 3479,-312 3520.93,-285.621 3550.84,-233.597 3564.92,-205"/>
<polygon fill="midnightblue" stroke="midnightblue" points="3568.25,-206.149 3569.39,-195.615 3561.93,-203.142 3568.25,-206.149"/>
</g>
<!-- Node65&#45;&gt;Node42 -->
<g id="edge286" class="edge"><title>Node65&#45;&gt;Node42</title>
<path fill="none" stroke="midnightblue" d="M3149.28,-359.356C3069.23,-349.683 2917.12,-330.816 2788,-312 2748.12,-306.19 2468.55,-265.723 2430,-254 2407.55,-247.173 2404.35,-239.151 2382,-232 2341.68,-219.101 2220.1,-198.499 2164.85,-189.477"/>
<polygon fill="midnightblue" stroke="midnightblue" points="2165.16,-185.982 2154.73,-187.833 2164.04,-192.891 2165.16,-185.982"/>
</g>
<!-- Node65&#45;&gt;Node49 -->
<g id="edge278" class="edge"><title>Node65&#45;&gt;Node49</title>
<path fill="none" stroke="midnightblue" d="M3206.2,-355.444C3208.39,-331.181 3210.53,-270.573 3183,-232 3143.94,-177.266 3067.25,-148.313 3022.57,-135.46"/>
<polygon fill="midnightblue" stroke="midnightblue" points="3023.31,-132.035 3012.74,-132.745 3021.45,-138.782 3023.31,-132.035"/>
</g>
<!-- Node65&#45;&gt;Node58 -->
<g id="edge250" class="edge"><title>Node65&#45;&gt;Node58</title>
<path fill="none" stroke="midnightblue" d="M3184.64,-355.412C3164.21,-344.788 3132.54,-328.318 3109.38,-316.28"/>
<polygon fill="midnightblue" stroke="midnightblue" points="3110.84,-313.092 3100.35,-311.584 3107.61,-319.302 3110.84,-313.092"/>
</g>
<!-- Node65&#45;&gt;Node61 -->
<g id="edge252" class="edge"><title>Node65&#45;&gt;Node61</title>
<path fill="none" stroke="midnightblue" d="M3197.05,-355.049C3186.18,-340.164 3165.98,-312.787 3148,-290 3140.51,-280.511 3131.96,-270.153 3124.77,-261.582"/>
<polygon fill="midnightblue" stroke="midnightblue" points="3127.26,-259.096 3118.14,-253.704 3121.9,-263.606 3127.26,-259.096"/>
</g>
<!-- Node66 -->
<g id="node193" class="node"><title>Node66</title>
<a xlink:href="_tagger_hit_8h.html" target="_top" xlink:title="TaggerHit.h">
<polygon fill="white" stroke="black" points="3344,-232.5 3344,-253.5 3412,-253.5 3412,-232.5 3344,-232.5"/>
<text text-anchor="middle" x="3378" y="-240.5" font-family="Helvetica,sans-Serif" font-size="10.00">TaggerHit.h</text>
</a>
</g>
<!-- Node65&#45;&gt;Node66 -->
<g id="edge254" class="edge"><title>Node65&#45;&gt;Node66</title>
<path fill="none" stroke="midnightblue" d="M3220.05,-355.3C3250.21,-333.855 3318.26,-285.476 3354.4,-259.778"/>
<polygon fill="midnightblue" stroke="midnightblue" points="3356.74,-262.41 3362.86,-253.763 3352.68,-256.705 3356.74,-262.41"/>
</g>
<!-- Node67 -->
<g id="node200" class="node"><title>Node67</title>
<a xlink:href="_trigger_info_8h.html" target="_top" xlink:title="TriggerInfo.h">
<polygon fill="white" stroke="black" points="3399.5,-290.5 3399.5,-311.5 3470.5,-311.5 3470.5,-290.5 3399.5,-290.5"/>
<text text-anchor="middle" x="3435" y="-298.5" font-family="Helvetica,sans-Serif" font-size="10.00">TriggerInfo.h</text>
</a>
</g>
<!-- Node65&#45;&gt;Node67 -->
<g id="edge266" class="edge"><title>Node65&#45;&gt;Node67</title>
<path fill="none" stroke="midnightblue" d="M3242.21,-355.484C3282.43,-344.118 3346.55,-325.996 3389.68,-313.807"/>
<polygon fill="midnightblue" stroke="midnightblue" points="3390.69,-317.161 3399.36,-311.073 3388.78,-310.424 3390.69,-317.161"/>
</g>
<!-- Node66&#45;&gt;Node7 -->
<g id="edge262" class="edge"><title>Node66&#45;&gt;Node7</title>
<path fill="none" stroke="midnightblue" d="M3382.85,-232.146C3388.53,-217.598 3395.79,-191.576 3384,-174 3338.85,-106.681 3242,-82.4885 3181.22,-73.8174"/>
<polygon fill="midnightblue" stroke="midnightblue" points="3181.42,-70.3139 3171.05,-72.463 3180.5,-77.2526 3181.42,-70.3139"/>
</g>
<!-- Node66&#45;&gt;Node32 -->
<g id="edge258" class="edge"><title>Node66&#45;&gt;Node32</title>
<path fill="none" stroke="midnightblue" d="M3412.14,-232.897C3447.43,-222.455 3502.29,-206.222 3538.18,-195.6"/>
<polygon fill="midnightblue" stroke="midnightblue" points="3539.17,-198.956 3547.77,-192.762 3537.19,-192.243 3539.17,-198.956"/>
</g>
<!-- Node66&#45;&gt;Node39 -->
<g id="edge256" class="edge"><title>Node66&#45;&gt;Node39</title>
<path fill="none" stroke="midnightblue" d="M3393.27,-232.491C3414.16,-218.335 3453.04,-192.755 3488,-174 3514.68,-159.689 3546.56,-145.717 3567.93,-136.779"/>
<polygon fill="midnightblue" stroke="midnightblue" points="3569.33,-139.988 3577.23,-132.929 3566.65,-133.52 3569.33,-139.988"/>
</g>
<!-- Node66&#45;&gt;Node49 -->
<g id="edge260" class="edge"><title>Node66&#45;&gt;Node49</title>
<path fill="none" stroke="midnightblue" d="M3379.3,-232.322C3380.5,-216.993 3380.14,-188.957 3364,-174 3339.17,-150.982 3111.09,-134.589 3022.74,-129.052"/>
<polygon fill="midnightblue" stroke="midnightblue" points="3022.87,-125.554 3012.68,-128.431 3022.44,-132.541 3022.87,-125.554"/>
</g>
<!-- Node66&#45;&gt;Node64 -->
<g id="edge264" class="edge"><title>Node66&#45;&gt;Node64</title>
<path fill="none" stroke="midnightblue" d="M3359.29,-232.362C3343.62,-223.45 3321.04,-210.609 3303.34,-200.545"/>
<polygon fill="midnightblue" stroke="midnightblue" points="3305.01,-197.471 3294.59,-195.571 3301.55,-203.556 3305.01,-197.471"/>
</g>
<!-- Node67&#45;&gt;Node4 -->
<g id="edge272" class="edge"><title>Node67&#45;&gt;Node4</title>
<path fill="none" stroke="midnightblue" d="M3399.21,-299.461C3344.91,-297.164 3238.46,-292.808 3148,-290 2474.8,-269.102 2306.28,-272.035 1633,-254 1519.72,-250.966 1386.91,-246.876 1315.57,-244.636"/>
<polygon fill="midnightblue" stroke="midnightblue" points="1315.61,-241.135 1305.5,-244.319 1315.39,-248.132 1315.61,-241.135"/>
</g>
<!-- Node67&#45;&gt;Node7 -->
<g id="edge270" class="edge"><title>Node67&#45;&gt;Node7</title>
<path fill="none" stroke="midnightblue" d="M3470.79,-298.862C3560.31,-293.194 3788.62,-276.654 3814,-254 3840.93,-229.965 3849.16,-203.246 3828,-174 3779.73,-107.268 3732.65,-132.677 3652,-116 3563.09,-97.6169 3296.29,-79.4426 3181.48,-72.238"/>
<polygon fill="midnightblue" stroke="midnightblue" points="3181.39,-68.7252 3171.19,-71.5957 3180.95,-75.7116 3181.39,-68.7252"/>
</g>
<!-- Node67&#45;&gt;Node32 -->
<g id="edge276" class="edge"><title>Node67&#45;&gt;Node32</title>
<path fill="none" stroke="midnightblue" d="M3448.16,-290.21C3459.73,-280.707 3477.02,-266.478 3492,-254 3513.06,-236.457 3537.04,-216.255 3553.6,-202.263"/>
<polygon fill="midnightblue" stroke="midnightblue" points="3556.15,-204.688 3561.53,-195.56 3551.63,-199.342 3556.15,-204.688"/>
</g>
<!-- Node67&#45;&gt;Node39 -->
<g id="edge274" class="edge"><title>Node67&#45;&gt;Node39</title>
<path fill="none" stroke="midnightblue" d="M3442.83,-290.321C3459.48,-267.861 3500.09,-214.471 3539,-174 3548.99,-163.611 3560.94,-152.885 3570.96,-144.307"/>
<polygon fill="midnightblue" stroke="midnightblue" points="3573.45,-146.784 3578.84,-137.661 3568.94,-141.432 3573.45,-146.784"/>
</g>
<!-- Node67&#45;&gt;Node49 -->
<g id="edge268" class="edge"><title>Node67&#45;&gt;Node49</title>
<path fill="none" stroke="midnightblue" d="M3399.26,-293.984C3376.84,-287.579 3349.53,-275.668 3335,-254 3315.17,-224.432 3355.06,-200.234 3331,-174 3310.35,-151.484 3106.11,-135.084 3022.95,-129.29"/>
<polygon fill="midnightblue" stroke="midnightblue" points="3022.96,-125.782 3012.74,-128.59 3022.48,-132.766 3022.96,-125.782"/>
</g>
<!-- Node68&#45;&gt;Node8 -->
<g id="edge290" class="edge"><title>Node68&#45;&gt;Node8</title>
<path fill="none" stroke="midnightblue" d="M2312.79,-355.287C2333.56,-331.212 2377.87,-271.829 2349,-232 2318.81,-190.352 2269.19,-237.648 2239,-196 2233.26,-188.084 2235.18,-183.001 2239,-174 2267.97,-105.711 2295.66,-96.5984 2359,-58 2392.52,-37.5764 2436.04,-24.7119 2465.38,-17.7057"/>
<polygon fill="midnightblue" stroke="midnightblue" points="2466.54,-21.0311 2475.51,-15.3864 2464.98,-14.2078 2466.54,-21.0311"/>
</g>
<!-- Node69&#45;&gt;Node12 -->
<g id="edge314" class="edge"><title>Node69&#45;&gt;Node12</title>
<path fill="none" stroke="midnightblue" d="M1288.03,-348.978C1262.74,-339.517 1231.97,-326.692 1206,-312 1079.74,-240.564 881.01,-139.533 1001,-58 1052.29,-23.1468 1494.85,-13.461 1616.29,-11.4484"/>
<polygon fill="midnightblue" stroke="midnightblue" points="1616.44,-14.9464 1626.39,-11.2867 1616.33,-7.94734 1616.44,-14.9464"/>
</g>
<!-- Node69&#45;&gt;Node39 -->
<g id="edge316" class="edge"><title>Node69&#45;&gt;Node39</title>
<path fill="none" stroke="midnightblue" d="M1396.68,-363.219C1530.48,-356.633 1868.33,-338.614 2150,-312 2360.86,-292.076 2422.18,-321.308 2623,-254 2641.5,-247.798 2642.47,-238.112 2661,-232 2749.64,-202.767 3427.78,-141.544 3567.05,-129.197"/>
<polygon fill="midnightblue" stroke="midnightblue" points="3567.5,-132.671 3577.15,-128.303 3566.89,-125.698 3567.5,-132.671"/>
</g>
<!-- Node69&#45;&gt;Node48 -->
<g id="edge306" class="edge"><title>Node69&#45;&gt;Node48</title>
<path fill="none" stroke="midnightblue" d="M1346.84,-348.972C1364.31,-315.348 1403.13,-240.594 1421.71,-204.821"/>
<polygon fill="midnightblue" stroke="midnightblue" points="1424.87,-206.319 1426.37,-195.832 1418.66,-203.093 1424.87,-206.319"/>
</g>
<!-- Node70 -->
<g id="node224" class="node"><title>Node70</title>
<a xlink:href="_t_header_info_8h.html" target="_top" xlink:title="tree/THeaderInfo.h">
<polygon fill="white" stroke="black" points="1215,-290.5 1215,-311.5 1313,-311.5 1313,-290.5 1215,-290.5"/>
<text text-anchor="middle" x="1264" y="-298.5" font-family="Helvetica,sans-Serif" font-size="10.00">tree/THeaderInfo.h</text>
</a>
</g>
<!-- Node69&#45;&gt;Node70 -->
<g id="edge308" class="edge"><title>Node69&#45;&gt;Node70</title>
<path fill="none" stroke="midnightblue" d="M1318.56,-348.922C1307.91,-339.57 1294.74,-328.001 1284.01,-318.572"/>
<polygon fill="midnightblue" stroke="midnightblue" points="1286.18,-315.822 1276.35,-311.852 1281.56,-321.081 1286.18,-315.822"/>
</g>
<!-- Node70&#45;&gt;Node4 -->
<g id="edge310" class="edge"><title>Node70&#45;&gt;Node4</title>
<path fill="none" stroke="midnightblue" d="M1264,-290.362C1264,-282.922 1264,-272.743 1264,-263.728"/>
<polygon fill="midnightblue" stroke="midnightblue" points="1267.5,-263.571 1264,-253.571 1260.5,-263.571 1267.5,-263.571"/>
</g>
<!-- Node70&#45;&gt;Node10 -->
<g id="edge312" class="edge"><title>Node70&#45;&gt;Node10</title>
<path fill="none" stroke="midnightblue" d="M1249.9,-290.377C1211.07,-261.134 1102.39,-179.267 1055.26,-143.77"/>
<polygon fill="midnightblue" stroke="midnightblue" points="1057.3,-140.926 1047.21,-137.705 1053.09,-146.517 1057.3,-140.926"/>
</g>
<!-- Node71&#45;&gt;Node12 -->
<g id="edge362" class="edge"><title>Node71&#45;&gt;Node12</title>
<path fill="none" stroke="midnightblue" d="M808.101,-232.052C800.01,-198.712 781.263,-98.2651 837,-58 869.133,-34.7864 1471.2,-16.0525 1615.92,-11.8726"/>
<polygon fill="midnightblue" stroke="midnightblue" points="1616.38,-15.3608 1626.28,-11.5757 1616.18,-8.36364 1616.38,-15.3608"/>
</g>
<!-- Node71&#45;&gt;Node19 -->
<g id="edge358" class="edge"><title>Node71&#45;&gt;Node19</title>
<path fill="none" stroke="midnightblue" d="M810.122,-232.209C808.726,-209.538 807.796,-155.769 826,-116 831.023,-105.026 839.577,-94.868 847.739,-86.8239"/>
<polygon fill="midnightblue" stroke="midnightblue" points="850.361,-89.1661 855.316,-79.8016 845.603,-84.0319 850.361,-89.1661"/>
</g>
<!-- Node71&#45;&gt;Node42 -->
<g id="edge360" class="edge"><title>Node71&#45;&gt;Node42</title>
<path fill="none" stroke="midnightblue" d="M872.538,-240.981C1084.86,-233.953 1786.02,-210.218 2011,-196 2044.94,-193.855 2083.93,-190.279 2109.44,-187.789"/>
<polygon fill="midnightblue" stroke="midnightblue" points="2109.88,-191.262 2119.49,-186.796 2109.19,-184.296 2109.88,-191.262"/>
</g>
</g>
</svg>
