<?xml version="1.0" encoding="UTF-8" standalone="no"?>
<!DOCTYPE svg PUBLIC "-//W3C//DTD SVG 1.1//EN"
 "http://www.w3.org/Graphics/SVG/1.1/DTD/svg11.dtd">
<!-- Generated by graphviz version 2.26.3 (20100126.1600)
 -->
<!-- Title: src/reconstruct/UpdateableManager.cc Pages: 1 -->
<svg width="1559pt" height="334pt"
 viewBox="0.00 0.00 1558.51 334.00" xmlns="http://www.w3.org/2000/svg" xmlns:xlink="http://www.w3.org/1999/xlink">
<g id="graph1" class="graph" transform="scale(1 1) rotate(0) translate(4 330)">
<title>src/reconstruct/UpdateableManager.cc</title>
<polygon fill="white" stroke="white" points="-4,5 -4,-330 1555.51,-330 1555.51,5 -4,5"/>
<!-- Node1 -->
<g id="node1" class="node"><title>Node1</title>
<polygon fill="#bfbfbf" stroke="black" points="433.511,-291 433.511,-325 567.511,-325 567.511,-291 433.511,-291"/>
<text text-anchor="start" x="441.511" y="-312" font-family="Helvetica,sans-Serif" font-size="10.00">src/reconstruct/Updateable</text>
<text text-anchor="middle" x="500.511" y="-299" font-family="Helvetica,sans-Serif" font-size="10.00">Manager.cc</text>
</g>
<!-- Node2 -->
<g id="node3" class="node"><title>Node2</title>
<a xlink:href="_updateable_manager_8h.html" target="_top" xlink:title="UpdateableManager.h">
<polygon fill="white" stroke="black" points="20.511,-116.5 20.511,-137.5 132.511,-137.5 132.511,-116.5 20.511,-116.5"/>
<text text-anchor="middle" x="76.511" y="-124.5" font-family="Helvetica,sans-Serif" font-size="10.00">UpdateableManager.h</text>
</a>
</g>
<!-- Node1&#45;&gt;Node2 -->
<g id="edge2" class="edge"><title>Node1&#45;&gt;Node2</title>
<path fill="none" stroke="midnightblue" d="M433.453,-304.764C344.016,-299.284 191.696,-285.528 146.511,-254 109.529,-228.196 90.0296,-176.328 81.6529,-147.502"/>
<polygon fill="midnightblue" stroke="midnightblue" points="84.983,-146.41 78.9738,-137.684 78.2299,-148.253 84.983,-146.41"/>
</g>
<!-- Node3 -->
<g id="node5" class="node"><title>Node3</title>
<polygon fill="white" stroke="#bfbfbf" points="20.011,-58.5 20.011,-79.5 49.011,-79.5 49.011,-58.5 20.011,-58.5"/>
<text text-anchor="middle" x="34.511" y="-66.5" font-family="Helvetica,sans-Serif" font-size="10.00">list</text>
</g>
<!-- Node1&#45;&gt;Node3 -->
<g id="edge100" class="edge"><title>Node1&#45;&gt;Node3</title>
<path fill="none" stroke="midnightblue" d="M433.355,-303.514C339.378,-296.385 174.126,-280.497 120.511,-254 54.5813,-221.417 30.9443,-205.823 2.51103,-138 -4.76085,-120.654 5.96583,-101.25 16.9136,-87.4476"/>
<polygon fill="midnightblue" stroke="midnightblue" points="19.7498,-89.5167 23.5998,-79.6461 14.4347,-84.9614 19.7498,-89.5167"/>
</g>
<!-- Node4 -->
<g id="node7" class="node"><title>Node4</title>
<polygon fill="white" stroke="#bfbfbf" points="307.511,-58.5 307.511,-79.5 359.511,-79.5 359.511,-58.5 307.511,-58.5"/>
<text text-anchor="middle" x="333.511" y="-66.5" font-family="Helvetica,sans-Serif" font-size="10.00">memory</text>
</g>
<!-- Node1&#45;&gt;Node4 -->
<g id="edge102" class="edge"><title>Node1&#45;&gt;Node4</title>
<path fill="none" stroke="midnightblue" d="M433.192,-293.991C356.402,-274.015 234.395,-229.172 179.511,-138 151.747,-91.8786 243.18,-76.4179 297.001,-71.3648"/>
<polygon fill="midnightblue" stroke="midnightblue" points="297.554,-74.8303 307.218,-70.4869 296.955,-67.856 297.554,-74.8303"/>
</g>
<!-- Node5 -->
<g id="node9" class="node"><title>Node5</title>
<a xlink:href="_reconstruct__traits_8h.html" target="_top" xlink:title="Reconstruct_traits.h">
<polygon fill="white" stroke="black" points="448.011,-232.5 448.011,-253.5 553.011,-253.5 553.011,-232.5 448.011,-232.5"/>
<text text-anchor="middle" x="500.511" y="-240.5" font-family="Helvetica,sans-Serif" font-size="10.00">Reconstruct_traits.h</text>
</a>
</g>
<!-- Node1&#45;&gt;Node5 -->
<g id="edge8" class="edge"><title>Node1&#45;&gt;Node5</title>
<path fill="none" stroke="midnightblue" d="M500.511,-290.922C500.511,-282.67 500.511,-272.692 500.511,-263.982"/>
<polygon fill="midnightblue" stroke="midnightblue" points="504.011,-263.852 500.511,-253.852 497.011,-263.852 504.011,-263.852"/>
</g>
<!-- Node19 -->
<g id="node45" class="node"><title>Node19</title>
<polygon fill="white" stroke="#bfbfbf" points="755.011,-174.5 755.011,-195.5 790.011,-195.5 790.011,-174.5 755.011,-174.5"/>
<text text-anchor="middle" x="772.511" y="-182.5" font-family="Helvetica,sans-Serif" font-size="10.00">map</text>
</g>
<!-- Node1&#45;&gt;Node19 -->
<g id="edge104" class="edge"><title>Node1&#45;&gt;Node19</title>
<path fill="none" stroke="midnightblue" d="M538.331,-290.897C594.05,-265.701 696.845,-219.216 745.557,-197.189"/>
<polygon fill="midnightblue" stroke="midnightblue" points="747.152,-200.309 754.822,-192.999 744.268,-193.931 747.152,-200.309"/>
</g>
<!-- Node20 -->
<g id="node48" class="node"><title>Node20</title>
<a xlink:href="_t_data_record_8h.html" target="_top" xlink:title="tree/TDataRecord.h">
<polygon fill="white" stroke="black" points="1233.01,-232.5 1233.01,-253.5 1336.01,-253.5 1336.01,-232.5 1233.01,-232.5"/>
<text text-anchor="middle" x="1284.51" y="-240.5" font-family="Helvetica,sans-Serif" font-size="10.00">tree/TDataRecord.h</text>
</a>
</g>
<!-- Node1&#45;&gt;Node20 -->
<g id="edge56" class="edge"><title>Node1&#45;&gt;Node20</title>
<path fill="none" stroke="midnightblue" d="M567.693,-302.43C717.632,-289.999 1077.74,-260.143 1222.6,-248.133"/>
<polygon fill="midnightblue" stroke="midnightblue" points="1222.98,-251.614 1232.65,-247.299 1222.4,-244.638 1222.98,-251.614"/>
</g>
<!-- Node31 -->
<g id="node79" class="node"><title>Node31</title>
<a xlink:href="_logger_8h.html" target="_top" xlink:title="base/Logger.h">
<polygon fill="white" stroke="black" points="1403.51,-232.5 1403.51,-253.5 1481.51,-253.5 1481.51,-232.5 1403.51,-232.5"/>
<text text-anchor="middle" x="1442.51" y="-240.5" font-family="Helvetica,sans-Serif" font-size="10.00">base/Logger.h</text>
</a>
</g>
<!-- Node1&#45;&gt;Node31 -->
<g id="edge96" class="edge"><title>Node1&#45;&gt;Node31</title>
<path fill="none" stroke="midnightblue" d="M567.606,-304.801C710.589,-297.743 1055.83,-279.422 1344.51,-254 1360.46,-252.596 1377.83,-250.749 1393.46,-248.971"/>
<polygon fill="midnightblue" stroke="midnightblue" points="1393.92,-252.442 1403.45,-247.818 1393.11,-245.489 1393.92,-252.442"/>
</g>
<!-- Node2&#45;&gt;Node3 -->
<g id="edge4" class="edge"><title>Node2&#45;&gt;Node3</title>
<path fill="none" stroke="midnightblue" d="M68.8076,-116.362C63.0648,-108.431 55.0682,-97.3885 48.2411,-87.9606"/>
<polygon fill="midnightblue" stroke="midnightblue" points="50.8656,-85.6173 42.1656,-79.5707 45.196,-89.7229 50.8656,-85.6173"/>
</g>
<!-- Node2&#45;&gt;Node4 -->
<g id="edge6" class="edge"><title>Node2&#45;&gt;Node4</title>
<path fill="none" stroke="midnightblue" d="M123.052,-116.497C173.107,-105.2 251.638,-87.4771 297.288,-77.1748"/>
<polygon fill="midnightblue" stroke="midnightblue" points="298.344,-80.5246 307.328,-74.9089 296.803,-73.6963 298.344,-80.5246"/>
</g>
<!-- Node5&#45;&gt;Node3 -->
<g id="edge54" class="edge"><title>Node5&#45;&gt;Node3</title>
<path fill="none" stroke="midnightblue" d="M447.954,-239.789C333.18,-231.569 66.0173,-205.452 11.511,-138 -0.0561973,-123.685 9.00315,-103.304 18.9516,-88.4049"/>
<polygon fill="midnightblue" stroke="midnightblue" points="22.0521,-90.0909 25.0844,-79.9393 16.3833,-85.9842 22.0521,-90.0909"/>
</g>
<!-- Node5&#45;&gt;Node4 -->
<g id="edge50" class="edge"><title>Node5&#45;&gt;Node4</title>
<path fill="none" stroke="midnightblue" d="M494.337,-232.492C478.356,-205.517 435.493,-134.642 415.511,-116 401.601,-103.023 383.472,-92.1598 367.798,-84.1581"/>
<polygon fill="midnightblue" stroke="midnightblue" points="368.935,-80.8172 358.416,-79.5523 365.85,-87.1009 368.935,-80.8172"/>
</g>
<!-- Node6 -->
<g id="node11" class="node"><title>Node6</title>
<a xlink:href="_detector__t_8h.html" target="_top" xlink:title="base/Detector_t.h">
<polygon fill="white" stroke="black" points="643.011,-174.5 643.011,-195.5 738.011,-195.5 738.011,-174.5 643.011,-174.5"/>
<text text-anchor="middle" x="690.511" y="-182.5" font-family="Helvetica,sans-Serif" font-size="10.00">base/Detector_t.h</text>
</a>
</g>
<!-- Node5&#45;&gt;Node6 -->
<g id="edge10" class="edge"><title>Node5&#45;&gt;Node6</title>
<path fill="none" stroke="midnightblue" d="M534.919,-232.497C566.162,-222.959 612.412,-208.841 646.369,-198.475"/>
<polygon fill="midnightblue" stroke="midnightblue" points="647.497,-201.79 656.039,-195.523 645.453,-195.095 647.497,-201.79"/>
</g>
<!-- Node15 -->
<g id="node30" class="node"><title>Node15</title>
<a xlink:href="_memory_pool_8h.html" target="_top" xlink:title="tree/MemoryPool.h">
<polygon fill="white" stroke="black" points="319.011,-174.5 319.011,-195.5 418.011,-195.5 418.011,-174.5 319.011,-174.5"/>
<text text-anchor="middle" x="368.511" y="-182.5" font-family="Helvetica,sans-Serif" font-size="10.00">tree/MemoryPool.h</text>
</a>
</g>
<!-- Node5&#45;&gt;Node15 -->
<g id="edge30" class="edge"><title>Node5&#45;&gt;Node15</title>
<path fill="none" stroke="midnightblue" d="M476.607,-232.497C455.712,-223.315 425.155,-209.889 401.856,-199.652"/>
<polygon fill="midnightblue" stroke="midnightblue" points="403.247,-196.44 392.683,-195.621 400.431,-202.848 403.247,-196.44"/>
</g>
<!-- Node18 -->
<g id="node39" class="node"><title>Node18</title>
<a xlink:href="mapped__vectors_8h.html" target="_top" xlink:title="base/mapped_vectors.h">
<polygon fill="white" stroke="black" points="484.011,-174.5 484.011,-195.5 605.011,-195.5 605.011,-174.5 484.011,-174.5"/>
<text text-anchor="middle" x="544.511" y="-182.5" font-family="Helvetica,sans-Serif" font-size="10.00">base/mapped_vectors.h</text>
</a>
</g>
<!-- Node5&#45;&gt;Node18 -->
<g id="edge42" class="edge"><title>Node5&#45;&gt;Node18</title>
<path fill="none" stroke="midnightblue" d="M508.581,-232.362C514.66,-224.35 523.148,-213.161 530.348,-203.67"/>
<polygon fill="midnightblue" stroke="midnightblue" points="533.236,-205.653 536.492,-195.571 527.66,-201.422 533.236,-205.653"/>
</g>
<!-- Node5&#45;&gt;Node19 -->
<g id="edge52" class="edge"><title>Node5&#45;&gt;Node19</title>
<path fill="none" stroke="midnightblue" d="M553.117,-236.24C601.2,-229.328 674.258,-216.988 744.85,-196.087"/>
<polygon fill="midnightblue" stroke="midnightblue" points="746.233,-199.326 754.792,-193.081 744.207,-192.625 746.233,-199.326"/>
</g>
<!-- Node7 -->
<g id="node13" class="node"><title>Node7</title>
<a xlink:href="printable_8h.html" target="_top" xlink:title="base/printable.h">
<polygon fill="white" stroke="black" points="862.511,-116.5 862.511,-137.5 948.511,-137.5 948.511,-116.5 862.511,-116.5"/>
<text text-anchor="middle" x="905.511" y="-124.5" font-family="Helvetica,sans-Serif" font-size="10.00">base/printable.h</text>
</a>
</g>
<!-- Node6&#45;&gt;Node7 -->
<g id="edge12" class="edge"><title>Node6&#45;&gt;Node7</title>
<path fill="none" stroke="midnightblue" d="M729.446,-174.497C765.104,-164.877 818.035,-150.598 856.547,-140.209"/>
<polygon fill="midnightblue" stroke="midnightblue" points="857.76,-143.507 866.503,-137.523 855.937,-136.748 857.76,-143.507"/>
</g>
<!-- Node8 -->
<g id="node15" class="node"><title>Node8</title>
<polygon fill="white" stroke="#bfbfbf" points="748.511,-58.5 748.511,-79.5 792.511,-79.5 792.511,-58.5 748.511,-58.5"/>
<text text-anchor="middle" x="770.511" y="-66.5" font-family="Helvetica,sans-Serif" font-size="10.00">vector</text>
</g>
<!-- Node6&#45;&gt;Node8 -->
<g id="edge28" class="edge"><title>Node6&#45;&gt;Node8</title>
<path fill="none" stroke="midnightblue" d="M710.306,-174.365C723.809,-166.137 741.074,-153.537 751.511,-138 761.228,-123.535 766.001,-104.209 768.33,-89.6906"/>
<polygon fill="midnightblue" stroke="midnightblue" points="771.812,-90.0627 769.677,-79.6852 764.874,-89.1291 771.812,-90.0627"/>
</g>
<!-- Node10 -->
<g id="node19" class="node"><title>Node10</title>
<polygon fill="white" stroke="#bfbfbf" points="678.011,-116.5 678.011,-137.5 743.011,-137.5 743.011,-116.5 678.011,-116.5"/>
<text text-anchor="middle" x="710.511" y="-124.5" font-family="Helvetica,sans-Serif" font-size="10.00">TVector3.h</text>
</g>
<!-- Node6&#45;&gt;Node10 -->
<g id="edge18" class="edge"><title>Node6&#45;&gt;Node10</title>
<path fill="none" stroke="midnightblue" d="M694.179,-174.362C696.801,-166.758 700.41,-156.294 703.568,-147.135"/>
<polygon fill="midnightblue" stroke="midnightblue" points="706.915,-148.165 706.866,-137.571 700.297,-145.883 706.915,-148.165"/>
</g>
<!-- Node11 -->
<g id="node21" class="node"><title>Node11</title>
<polygon fill="white" stroke="#bfbfbf" points="798.511,-116.5 798.511,-137.5 844.511,-137.5 844.511,-116.5 798.511,-116.5"/>
<text text-anchor="middle" x="821.511" y="-124.5" font-family="Helvetica,sans-Serif" font-size="10.00">cstdint</text>
</g>
<!-- Node6&#45;&gt;Node11 -->
<g id="edge20" class="edge"><title>Node6&#45;&gt;Node11</title>
<path fill="none" stroke="midnightblue" d="M714.234,-174.497C735.137,-165.242 765.782,-151.674 788.972,-141.407"/>
<polygon fill="midnightblue" stroke="midnightblue" points="790.677,-144.479 798.404,-137.231 787.843,-138.079 790.677,-144.479"/>
</g>
<!-- Node12 -->
<g id="node23" class="node"><title>Node12</title>
<polygon fill="white" stroke="#bfbfbf" points="966.011,-116.5 966.011,-137.5 1025.01,-137.5 1025.01,-116.5 966.011,-116.5"/>
<text text-anchor="middle" x="995.511" y="-124.5" font-family="Helvetica,sans-Serif" font-size="10.00">stdexcept</text>
</g>
<!-- Node6&#45;&gt;Node12 -->
<g id="edge22" class="edge"><title>Node6&#45;&gt;Node12</title>
<path fill="none" stroke="midnightblue" d="M738.155,-175.557C740.981,-175.023 743.782,-174.501 746.511,-174 836.975,-157.401 863.068,-159.12 955.916,-138.204"/>
<polygon fill="midnightblue" stroke="midnightblue" points="956.752,-141.603 965.723,-135.967 955.195,-134.778 956.752,-141.603"/>
</g>
<!-- Node13 -->
<g id="node25" class="node"><title>Node13</title>
<polygon fill="white" stroke="#bfbfbf" points="733.011,-0.5 733.011,-21.5 774.011,-21.5 774.011,-0.5 733.011,-0.5"/>
<text text-anchor="middle" x="753.511" y="-8.5" font-family="Helvetica,sans-Serif" font-size="10.00">string</text>
</g>
<!-- Node6&#45;&gt;Node13 -->
<g id="edge24" class="edge"><title>Node6&#45;&gt;Node13</title>
<path fill="none" stroke="midnightblue" d="M647.377,-174.426C613.294,-163.707 573.864,-144.597 589.511,-116 617.949,-64.0248 684.305,-34.0049 723.338,-20.2374"/>
<polygon fill="midnightblue" stroke="midnightblue" points="724.52,-23.5324 732.868,-17.0077 722.274,-16.9028 724.52,-23.5324"/>
</g>
<!-- Node14 -->
<g id="node27" class="node"><title>Node14</title>
<polygon fill="white" stroke="#bfbfbf" points="598.511,-116.5 598.511,-137.5 660.511,-137.5 660.511,-116.5 598.511,-116.5"/>
<text text-anchor="middle" x="629.511" y="-124.5" font-family="Helvetica,sans-Serif" font-size="10.00">type_traits</text>
</g>
<!-- Node6&#45;&gt;Node14 -->
<g id="edge26" class="edge"><title>Node6&#45;&gt;Node14</title>
<path fill="none" stroke="midnightblue" d="M679.323,-174.362C670.552,-166.023 658.162,-154.242 647.933,-144.516"/>
<polygon fill="midnightblue" stroke="midnightblue" points="650.287,-141.925 640.628,-137.571 645.464,-146.998 650.287,-141.925"/>
</g>
<!-- Node7&#45;&gt;Node8 -->
<g id="edge14" class="edge"><title>Node7&#45;&gt;Node8</title>
<path fill="none" stroke="midnightblue" d="M881.064,-116.497C858.892,-106.971 826.084,-92.8759 801.965,-82.5137"/>
<polygon fill="midnightblue" stroke="midnightblue" points="803.111,-79.1967 792.542,-78.465 800.348,-85.6282 803.111,-79.1967"/>
</g>
<!-- Node9 -->
<g id="node17" class="node"><title>Node9</title>
<polygon fill="white" stroke="#bfbfbf" points="876.511,-58.5 876.511,-79.5 928.511,-79.5 928.511,-58.5 876.511,-58.5"/>
<text text-anchor="middle" x="902.511" y="-66.5" font-family="Helvetica,sans-Serif" font-size="10.00">ostream</text>
</g>
<!-- Node7&#45;&gt;Node9 -->
<g id="edge16" class="edge"><title>Node7&#45;&gt;Node9</title>
<path fill="none" stroke="midnightblue" d="M904.961,-116.362C904.576,-108.922 904.049,-98.7427 903.583,-89.7276"/>
<polygon fill="midnightblue" stroke="midnightblue" points="907.07,-89.3765 903.058,-79.5707 900.079,-89.7381 907.07,-89.3765"/>
</g>
<!-- Node15&#45;&gt;Node4 -->
<g id="edge38" class="edge"><title>Node15&#45;&gt;Node4</title>
<path fill="none" stroke="midnightblue" d="M379.677,-174.073C392.31,-160.323 409.861,-136.077 399.511,-116 392.613,-102.619 379.947,-92.2114 367.542,-84.6302"/>
<polygon fill="midnightblue" stroke="midnightblue" points="369.07,-81.4739 358.641,-79.6072 365.63,-87.5702 369.07,-81.4739"/>
</g>
<!-- Node16 -->
<g id="node32" class="node"><title>Node16</title>
<a xlink:href="memory_8h.html" target="_top" xlink:title="base/std_ext/memory.h">
<polygon fill="white" stroke="black" points="188.011,-116.5 188.011,-137.5 307.011,-137.5 307.011,-116.5 188.011,-116.5"/>
<text text-anchor="middle" x="247.511" y="-124.5" font-family="Helvetica,sans-Serif" font-size="10.00">base/std_ext/memory.h</text>
</a>
</g>
<!-- Node15&#45;&gt;Node16 -->
<g id="edge32" class="edge"><title>Node15&#45;&gt;Node16</title>
<path fill="none" stroke="midnightblue" d="M346.599,-174.497C327.7,-165.438 300.18,-152.246 278.935,-142.063"/>
<polygon fill="midnightblue" stroke="midnightblue" points="280.2,-138.788 269.669,-137.621 277.174,-145.1 280.2,-138.788"/>
</g>
<!-- Node17 -->
<g id="node37" class="node"><title>Node17</title>
<polygon fill="white" stroke="#bfbfbf" points="324.011,-116.5 324.011,-137.5 391.011,-137.5 391.011,-116.5 324.011,-116.5"/>
<text text-anchor="middle" x="357.511" y="-124.5" font-family="Helvetica,sans-Serif" font-size="10.00">forward_list</text>
</g>
<!-- Node15&#45;&gt;Node17 -->
<g id="edge40" class="edge"><title>Node15&#45;&gt;Node17</title>
<path fill="none" stroke="midnightblue" d="M366.493,-174.362C365.067,-166.84 363.109,-156.519 361.386,-147.431"/>
<polygon fill="midnightblue" stroke="midnightblue" points="364.818,-146.743 359.516,-137.571 357.941,-148.048 364.818,-146.743"/>
</g>
<!-- Node16&#45;&gt;Node3 -->
<g id="edge36" class="edge"><title>Node16&#45;&gt;Node3</title>
<path fill="none" stroke="midnightblue" d="M208.938,-116.497C165.293,-104.612 95.5251,-85.6142 58.8513,-75.6279"/>
<polygon fill="midnightblue" stroke="midnightblue" points="59.5835,-72.1999 49.0153,-72.9495 57.7444,-78.954 59.5835,-72.1999"/>
</g>
<!-- Node16&#45;&gt;Node4 -->
<g id="edge34" class="edge"><title>Node16&#45;&gt;Node4</title>
<path fill="none" stroke="midnightblue" d="M263.285,-116.362C276.135,-107.696 294.496,-95.3126 309.221,-85.3819"/>
<polygon fill="midnightblue" stroke="midnightblue" points="311.504,-88.0639 317.837,-79.5707 307.59,-82.2604 311.504,-88.0639"/>
</g>
<!-- Node18&#45;&gt;Node4 -->
<g id="edge46" class="edge"><title>Node18&#45;&gt;Node4</title>
<path fill="none" stroke="midnightblue" d="M535.772,-174.419C522.909,-159.467 497.472,-132.178 470.511,-116 438.826,-96.9869 398.374,-84.3149 369.66,-76.9691"/>
<polygon fill="midnightblue" stroke="midnightblue" points="370.198,-73.4969 359.651,-74.5018 368.523,-80.2935 370.198,-73.4969"/>
</g>
<!-- Node18&#45;&gt;Node8 -->
<g id="edge44" class="edge"><title>Node18&#45;&gt;Node8</title>
<path fill="none" stroke="midnightblue" d="M548.528,-174.341C554.855,-159.037 568.612,-131.03 589.511,-116 613.23,-98.9419 693.062,-82.6381 738.383,-74.4594"/>
<polygon fill="midnightblue" stroke="midnightblue" points="739.068,-77.8927 748.303,-72.6996 737.845,-71.0003 739.068,-77.8927"/>
</g>
<!-- Node18&#45;&gt;Node14 -->
<g id="edge48" class="edge"><title>Node18&#45;&gt;Node14</title>
<path fill="none" stroke="midnightblue" d="M560.101,-174.362C572.802,-165.696 590.95,-153.313 605.503,-143.382"/>
<polygon fill="midnightblue" stroke="midnightblue" points="607.732,-146.098 614.02,-137.571 603.787,-140.316 607.732,-146.098"/>
</g>
<!-- Node21 -->
<g id="node50" class="node"><title>Node21</title>
<a xlink:href="_t_i_d_8h.html" target="_top" xlink:title="TID.h">
<polygon fill="white" stroke="black" points="1113.01,-174.5 1113.01,-195.5 1154.01,-195.5 1154.01,-174.5 1113.01,-174.5"/>
<text text-anchor="middle" x="1133.51" y="-182.5" font-family="Helvetica,sans-Serif" font-size="10.00">TID.h</text>
</a>
</g>
<!-- Node20&#45;&gt;Node21 -->
<g id="edge58" class="edge"><title>Node20&#45;&gt;Node21</title>
<path fill="none" stroke="midnightblue" d="M1257.17,-232.497C1230.82,-222.379 1191.06,-207.106 1163.78,-196.626"/>
<polygon fill="midnightblue" stroke="midnightblue" points="1164.93,-193.319 1154.34,-193.001 1162.42,-199.854 1164.93,-193.319"/>
</g>
<!-- Node22 -->
<g id="node52" class="node"><title>Node22</title>
<polygon fill="white" stroke="#bfbfbf" points="1256.51,-116.5 1256.51,-137.5 1312.51,-137.5 1312.51,-116.5 1256.51,-116.5"/>
<text text-anchor="middle" x="1284.51" y="-124.5" font-family="Helvetica,sans-Serif" font-size="10.00">Rtypes.h</text>
</g>
<!-- Node20&#45;&gt;Node22 -->
<g id="edge90" class="edge"><title>Node20&#45;&gt;Node22</title>
<path fill="none" stroke="midnightblue" d="M1284.51,-232.295C1284.51,-213.131 1284.51,-172.654 1284.51,-147.843"/>
<polygon fill="midnightblue" stroke="midnightblue" points="1288.01,-147.679 1284.51,-137.679 1281.01,-147.679 1288.01,-147.679"/>
</g>
<!-- Node28 -->
<g id="node66" class="node"><title>Node28</title>
<polygon fill="white" stroke="#bfbfbf" points="1152.01,-58.5 1152.01,-79.5 1193.01,-79.5 1193.01,-58.5 1152.01,-58.5"/>
<text text-anchor="middle" x="1172.51" y="-66.5" font-family="Helvetica,sans-Serif" font-size="10.00">ctime</text>
</g>
<!-- Node20&#45;&gt;Node28 -->
<g id="edge94" class="edge"><title>Node20&#45;&gt;Node28</title>
<path fill="none" stroke="midnightblue" d="M1305.22,-232.367C1344.87,-210.642 1424.62,-159.533 1389.51,-116 1366.43,-87.3795 1257.23,-75.3143 1203.09,-71.0244"/>
<polygon fill="midnightblue" stroke="midnightblue" points="1203.27,-67.5283 1193.04,-70.2675 1202.75,-74.5086 1203.27,-67.5283"/>
</g>
<!-- Node30 -->
<g id="node73" class="node"><title>Node30</title>
<polygon fill="white" stroke="#bfbfbf" points="1330.51,-116.5 1330.51,-137.5 1380.51,-137.5 1380.51,-116.5 1330.51,-116.5"/>
<text text-anchor="middle" x="1355.51" y="-124.5" font-family="Helvetica,sans-Serif" font-size="10.00">iomanip</text>
</g>
<!-- Node20&#45;&gt;Node30 -->
<g id="edge92" class="edge"><title>Node20&#45;&gt;Node30</title>
<path fill="none" stroke="midnightblue" d="M1291.06,-232.295C1303,-212.786 1328.46,-171.188 1343.56,-146.518"/>
<polygon fill="midnightblue" stroke="midnightblue" points="1346.74,-148.036 1348.97,-137.679 1340.77,-144.381 1346.74,-148.036"/>
</g>
<!-- Node21&#45;&gt;Node7 -->
<g id="edge62" class="edge"><title>Node21&#45;&gt;Node7</title>
<path fill="none" stroke="midnightblue" d="M1112.88,-179.751C1077.91,-170.855 1006.01,-152.565 956.776,-140.041"/>
<polygon fill="midnightblue" stroke="midnightblue" points="957.498,-136.613 946.944,-137.54 955.772,-143.397 957.498,-136.613"/>
</g>
<!-- Node21&#45;&gt;Node11 -->
<g id="edge82" class="edge"><title>Node21&#45;&gt;Node11</title>
<path fill="none" stroke="midnightblue" d="M1112.89,-182.72C1067.67,-177.472 956.313,-163.196 854.605,-137.976"/>
<polygon fill="midnightblue" stroke="midnightblue" points="855.348,-134.553 844.795,-135.501 853.635,-141.341 855.348,-134.553"/>
</g>
<!-- Node21&#45;&gt;Node12 -->
<g id="edge84" class="edge"><title>Node21&#45;&gt;Node12</title>
<path fill="none" stroke="midnightblue" d="M1112.85,-176.317C1090.98,-167.126 1056.1,-152.463 1030.04,-141.511"/>
<polygon fill="midnightblue" stroke="midnightblue" points="1031.1,-138.162 1020.53,-137.514 1028.39,-144.615 1031.1,-138.162"/>
</g>
<!-- Node21&#45;&gt;Node14 -->
<g id="edge78" class="edge"><title>Node21&#45;&gt;Node14</title>
<path fill="none" stroke="midnightblue" d="M1112.98,-184.148C1048.89,-181.23 846.733,-170.09 670.788,-137.992"/>
<polygon fill="midnightblue" stroke="midnightblue" points="671.309,-134.529 660.838,-136.149 670.033,-141.411 671.309,-134.529"/>
</g>
<!-- Node21&#45;&gt;Node22 -->
<g id="edge60" class="edge"><title>Node21&#45;&gt;Node22</title>
<path fill="none" stroke="midnightblue" d="M1154.19,-177.057C1178.14,-167.859 1218.05,-152.528 1247.41,-141.252"/>
<polygon fill="midnightblue" stroke="midnightblue" points="1248.84,-144.45 1256.92,-137.598 1246.33,-137.916 1248.84,-144.45"/>
</g>
<!-- Node23 -->
<g id="node55" class="node"><title>Node23</title>
<a xlink:href="time_8h.html" target="_top" xlink:title="base/std_ext/time.h">
<polygon fill="white" stroke="black" points="1042.01,-116.5 1042.01,-137.5 1145.01,-137.5 1145.01,-116.5 1042.01,-116.5"/>
<text text-anchor="middle" x="1093.51" y="-124.5" font-family="Helvetica,sans-Serif" font-size="10.00">base/std_ext/time.h</text>
</a>
</g>
<!-- Node21&#45;&gt;Node23 -->
<g id="edge64" class="edge"><title>Node21&#45;&gt;Node23</title>
<path fill="none" stroke="midnightblue" d="M1126.17,-174.362C1120.71,-166.431 1113.09,-155.389 1106.59,-145.961"/>
<polygon fill="midnightblue" stroke="midnightblue" points="1109.36,-143.816 1100.8,-137.571 1103.6,-147.79 1109.36,-143.816"/>
</g>
<!-- Node21&#45;&gt;Node28 -->
<g id="edge88" class="edge"><title>Node21&#45;&gt;Node28</title>
<path fill="none" stroke="midnightblue" d="M1138.53,-174.334C1142.85,-164.91 1149.07,-150.727 1153.51,-138 1159.06,-122.077 1164.07,-103.644 1167.55,-89.8378"/>
<polygon fill="midnightblue" stroke="midnightblue" points="1171,-90.44 1169.99,-79.8937 1164.2,-88.7699 1171,-90.44"/>
</g>
<!-- Node29 -->
<g id="node69" class="node"><title>Node29</title>
<polygon fill="white" stroke="#bfbfbf" points="1200.51,-116.5 1200.51,-137.5 1238.51,-137.5 1238.51,-116.5 1200.51,-116.5"/>
<text text-anchor="middle" x="1219.51" y="-124.5" font-family="Helvetica,sans-Serif" font-size="10.00">tuple</text>
</g>
<!-- Node21&#45;&gt;Node29 -->
<g id="edge80" class="edge"><title>Node21&#45;&gt;Node29</title>
<path fill="none" stroke="midnightblue" d="M1149.28,-174.362C1162.13,-165.696 1180.5,-153.313 1195.22,-143.382"/>
<polygon fill="midnightblue" stroke="midnightblue" points="1197.5,-146.064 1203.84,-137.571 1193.59,-140.26 1197.5,-146.064"/>
</g>
<!-- Node21&#45;&gt;Node30 -->
<g id="edge86" class="edge"><title>Node21&#45;&gt;Node30</title>
<path fill="none" stroke="midnightblue" d="M1154.22,-180.309C1187.35,-172.699 1254.5,-156.854 1320.58,-138.142"/>
<polygon fill="midnightblue" stroke="midnightblue" points="1321.66,-141.473 1330.32,-135.361 1319.74,-134.742 1321.66,-141.473"/>
</g>
<!-- Node24 -->
<g id="node57" class="node"><title>Node24</title>
<a xlink:href="string_8h.html" target="_top" xlink:title="base/std_ext/string.h">
<polygon fill="white" stroke="black" points="946.511,-58.5 946.511,-79.5 1054.51,-79.5 1054.51,-58.5 946.511,-58.5"/>
<text text-anchor="middle" x="1000.51" y="-66.5" font-family="Helvetica,sans-Serif" font-size="10.00">base/std_ext/string.h</text>
</a>
</g>
<!-- Node23&#45;&gt;Node24 -->
<g id="edge66" class="edge"><title>Node23&#45;&gt;Node24</title>
<path fill="none" stroke="midnightblue" d="M1076.45,-116.362C1062.43,-107.614 1042.33,-95.0786 1026.33,-85.1015"/>
<polygon fill="midnightblue" stroke="midnightblue" points="1027.8,-81.8927 1017.46,-79.5707 1024.09,-87.8323 1027.8,-81.8927"/>
</g>
<!-- Node27 -->
<g id="node64" class="node"><title>Node27</title>
<polygon fill="white" stroke="#bfbfbf" points="1072.51,-58.5 1072.51,-79.5 1118.51,-79.5 1118.51,-58.5 1072.51,-58.5"/>
<text text-anchor="middle" x="1095.51" y="-66.5" font-family="Helvetica,sans-Serif" font-size="10.00">cstring</text>
</g>
<!-- Node23&#45;&gt;Node27 -->
<g id="edge74" class="edge"><title>Node23&#45;&gt;Node27</title>
<path fill="none" stroke="midnightblue" d="M1093.88,-116.362C1094.13,-108.922 1094.49,-98.7427 1094.8,-89.7276"/>
<polygon fill="midnightblue" stroke="midnightblue" points="1098.3,-89.6854 1095.15,-79.5707 1091.3,-89.4441 1098.3,-89.6854"/>
</g>
<!-- Node23&#45;&gt;Node28 -->
<g id="edge76" class="edge"><title>Node23&#45;&gt;Node28</title>
<path fill="none" stroke="midnightblue" d="M1108,-116.362C1119.69,-107.777 1136.35,-95.5459 1149.81,-85.6636"/>
<polygon fill="midnightblue" stroke="midnightblue" points="1152.12,-88.31 1158.11,-79.5707 1147.98,-82.6675 1152.12,-88.31"/>
</g>
<!-- Node24&#45;&gt;Node13 -->
<g id="edge68" class="edge"><title>Node24&#45;&gt;Node13</title>
<path fill="none" stroke="midnightblue" d="M955.781,-58.4966C906.078,-46.8255 827.162,-28.2945 784.066,-18.1748"/>
<polygon fill="midnightblue" stroke="midnightblue" points="784.708,-14.7304 774.173,-15.8517 783.108,-21.5451 784.708,-14.7304"/>
</g>
<!-- Node25 -->
<g id="node60" class="node"><title>Node25</title>
<polygon fill="white" stroke="#bfbfbf" points="938.511,-0.5 938.511,-21.5 990.511,-21.5 990.511,-0.5 938.511,-0.5"/>
<text text-anchor="middle" x="964.511" y="-8.5" font-family="Helvetica,sans-Serif" font-size="10.00">sstream</text>
</g>
<!-- Node24&#45;&gt;Node25 -->
<g id="edge70" class="edge"><title>Node24&#45;&gt;Node25</title>
<path fill="none" stroke="midnightblue" d="M993.908,-58.3619C989.036,-50.5131 982.273,-39.6159 976.461,-30.2527"/>
<polygon fill="midnightblue" stroke="midnightblue" points="979.32,-28.2213 971.072,-21.5707 973.372,-31.9129 979.32,-28.2213"/>
</g>
<!-- Node26 -->
<g id="node62" class="node"><title>Node26</title>
<polygon fill="white" stroke="#bfbfbf" points="1008.51,-0.5 1008.51,-21.5 1064.51,-21.5 1064.51,-0.5 1008.51,-0.5"/>
<text text-anchor="middle" x="1036.51" y="-8.5" font-family="Helvetica,sans-Serif" font-size="10.00">algorithm</text>
</g>
<!-- Node24&#45;&gt;Node26 -->
<g id="edge72" class="edge"><title>Node24&#45;&gt;Node26</title>
<path fill="none" stroke="midnightblue" d="M1007.11,-58.3619C1011.99,-50.5131 1018.75,-39.6159 1024.56,-30.2527"/>
<polygon fill="midnightblue" stroke="midnightblue" points="1027.65,-31.9129 1029.95,-21.5707 1021.7,-28.2213 1027.65,-31.9129"/>
</g>
<!-- Node32 -->
<g id="node81" class="node"><title>Node32</title>
<polygon fill="white" stroke="#bfbfbf" points="1436.01,-174.5 1436.01,-195.5 1551.01,-195.5 1551.01,-174.5 1436.01,-174.5"/>
<text text-anchor="middle" x="1493.51" y="-182.5" font-family="Helvetica,sans-Serif" font-size="10.00">detail/easylogging++.h</text>
</g>
<!-- Node31&#45;&gt;Node32 -->
<g id="edge98" class="edge"><title>Node31&#45;&gt;Node32</title>
<path fill="none" stroke="midnightblue" d="M1451.87,-232.362C1459.05,-224.186 1469.15,-212.702 1477.6,-203.091"/>
<polygon fill="midnightblue" stroke="midnightblue" points="1480.24,-205.392 1484.22,-195.571 1474.98,-200.769 1480.24,-205.392"/>
</g>
</g>
</svg>
