<?xml version="1.0" encoding="UTF-8" standalone="no"?>
<!DOCTYPE svg PUBLIC "-//W3C//DTD SVG 1.1//EN"
 "http://www.w3.org/Graphics/SVG/1.1/DTD/svg11.dtd">
<!-- Generated by graphviz version 2.26.3 (20100126.1600)
 -->
<!-- Title: src/base/WrapTFile.h Pages: 1 -->
<svg width="714pt" height="146pt"
 viewBox="0.00 0.00 714.00 146.00" xmlns="http://www.w3.org/2000/svg" xmlns:xlink="http://www.w3.org/1999/xlink">
<g id="graph1" class="graph" transform="scale(1 1) rotate(0) translate(4 142)">
<title>src/base/WrapTFile.h</title>
<polygon fill="white" stroke="white" points="-4,5 -4,-142 711,-142 711,5 -4,5"/>
<!-- Node1 -->
<g id="node1" class="node"><title>Node1</title>
<polygon fill="#bfbfbf" stroke="black" points="286,-116.5 286,-137.5 396,-137.5 396,-116.5 286,-116.5"/>
<text text-anchor="middle" x="341" y="-124.5" font-family="Helvetica,sans-Serif" font-size="10.00">src/base/WrapTFile.h</text>
</g>
<!-- Node2 -->
<g id="node3" class="node"><title>Node2</title>
<polygon fill="white" stroke="#bfbfbf" points="0,-58.5 0,-79.5 52,-79.5 52,-58.5 0,-58.5"/>
<text text-anchor="middle" x="26" y="-66.5" font-family="Helvetica,sans-Serif" font-size="10.00">memory</text>
</g>
<!-- Node1&#45;&gt;Node2 -->
<g id="edge2" class="edge"><title>Node1&#45;&gt;Node2</title>
<path fill="none" stroke="midnightblue" d="M285.903,-119.226C230.158,-110.976 141.649,-96.8228 66,-80 64.7345,-79.7186 63.4492,-79.4224 62.1532,-79.1148"/>
<polygon fill="midnightblue" stroke="midnightblue" points="62.7095,-75.6455 52.1571,-76.5927 60.9969,-82.4328 62.7095,-75.6455"/>
</g>
<!-- Node3 -->
<g id="node5" class="node"><title>Node3</title>
<polygon fill="white" stroke="#bfbfbf" points="75.5,-0.5 75.5,-21.5 116.5,-21.5 116.5,-0.5 75.5,-0.5"/>
<text text-anchor="middle" x="96" y="-8.5" font-family="Helvetica,sans-Serif" font-size="10.00">string</text>
</g>
<!-- Node1&#45;&gt;Node3 -->
<g id="edge4" class="edge"><title>Node1&#45;&gt;Node3</title>
<path fill="none" stroke="midnightblue" d="M285.738,-124.003C221.963,-119.277 122.781,-107.6 99,-80 87.7263,-66.916 88.1893,-46.7116 90.7505,-31.5415"/>
<polygon fill="midnightblue" stroke="midnightblue" points="94.2169,-32.065 92.8485,-21.5589 87.3665,-30.6253 94.2169,-32.065"/>
</g>
<!-- Node4 -->
<g id="node7" class="node"><title>Node4</title>
<polygon fill="white" stroke="#bfbfbf" points="107.5,-58.5 107.5,-79.5 136.5,-79.5 136.5,-58.5 107.5,-58.5"/>
<text text-anchor="middle" x="122" y="-66.5" font-family="Helvetica,sans-Serif" font-size="10.00">list</text>
</g>
<!-- Node1&#45;&gt;Node4 -->
<g id="edge6" class="edge"><title>Node1&#45;&gt;Node4</title>
<path fill="none" stroke="midnightblue" d="M285.607,-116.964C248.18,-109.45 197.675,-97.8848 146.468,-80.0811"/>
<polygon fill="midnightblue" stroke="midnightblue" points="147.495,-76.7321 136.901,-76.6838 145.153,-83.3285 147.495,-76.7321"/>
</g>
<!-- Node5 -->
<g id="node9" class="node"><title>Node5</title>
<a xlink:href="string_8h.html" target="_top" xlink:title="base/std_ext/string.h">
<polygon fill="white" stroke="black" points="154,-58.5 154,-79.5 262,-79.5 262,-58.5 154,-58.5"/>
<text text-anchor="middle" x="208" y="-66.5" font-family="Helvetica,sans-Serif" font-size="10.00">base/std_ext/string.h</text>
</a>
</g>
<!-- Node1&#45;&gt;Node5 -->
<g id="edge8" class="edge"><title>Node1&#45;&gt;Node5</title>
<path fill="none" stroke="midnightblue" d="M316.915,-116.497C295.861,-107.315 265.073,-93.8889 241.598,-83.6516"/>
<polygon fill="midnightblue" stroke="midnightblue" points="242.921,-80.4104 232.356,-79.6212 240.123,-86.8268 242.921,-80.4104"/>
</g>
<!-- Node8 -->
<g id="node16" class="node"><title>Node8</title>
<polygon fill="white" stroke="#bfbfbf" points="279.5,-58.5 279.5,-79.5 326.5,-79.5 326.5,-58.5 279.5,-58.5"/>
<text text-anchor="middle" x="303" y="-66.5" font-family="Helvetica,sans-Serif" font-size="10.00">TFile.h</text>
</g>
<!-- Node1&#45;&gt;Node8 -->
<g id="edge16" class="edge"><title>Node1&#45;&gt;Node8</title>
<path fill="none" stroke="midnightblue" d="M334.03,-116.362C328.834,-108.431 321.599,-97.3885 315.422,-87.9606"/>
<polygon fill="midnightblue" stroke="midnightblue" points="318.334,-86.0172 309.926,-79.5707 312.478,-89.8534 318.334,-86.0172"/>
</g>
<!-- Node9 -->
<g id="node18" class="node"><title>Node9</title>
<polygon fill="white" stroke="#bfbfbf" points="343.5,-58.5 343.5,-79.5 414.5,-79.5 414.5,-58.5 343.5,-58.5"/>
<text text-anchor="middle" x="379" y="-66.5" font-family="Helvetica,sans-Serif" font-size="10.00">TDirectory.h</text>
</g>
<!-- Node1&#45;&gt;Node9 -->
<g id="edge18" class="edge"><title>Node1&#45;&gt;Node9</title>
<path fill="none" stroke="midnightblue" d="M347.97,-116.362C353.166,-108.431 360.401,-97.3885 366.578,-87.9606"/>
<polygon fill="midnightblue" stroke="midnightblue" points="369.522,-89.8534 372.074,-79.5707 363.666,-86.0172 369.522,-89.8534"/>
</g>
<!-- Node10 -->
<g id="node20" class="node"><title>Node10</title>
<polygon fill="white" stroke="#bfbfbf" points="432,-58.5 432,-79.5 484,-79.5 484,-58.5 432,-58.5"/>
<text text-anchor="middle" x="458" y="-66.5" font-family="Helvetica,sans-Serif" font-size="10.00">TError.h</text>
</g>
<!-- Node1&#45;&gt;Node10 -->
<g id="edge20" class="edge"><title>Node1&#45;&gt;Node10</title>
<path fill="none" stroke="midnightblue" d="M362.188,-116.497C380.462,-107.438 407.072,-94.2462 427.615,-84.0628"/>
<polygon fill="midnightblue" stroke="midnightblue" points="429.169,-87.1986 436.574,-79.6212 426.06,-80.9269 429.169,-87.1986"/>
</g>
<!-- Node11 -->
<g id="node22" class="node"><title>Node11</title>
<polygon fill="white" stroke="#bfbfbf" points="501.5,-58.5 501.5,-79.5 548.5,-79.5 548.5,-58.5 501.5,-58.5"/>
<text text-anchor="middle" x="525" y="-66.5" font-family="Helvetica,sans-Serif" font-size="10.00">TList.h</text>
</g>
<!-- Node1&#45;&gt;Node11 -->
<g id="edge22" class="edge"><title>Node1&#45;&gt;Node11</title>
<path fill="none" stroke="midnightblue" d="M376.114,-116.482C404.935,-107.773 447.032,-94.8822 491.696,-80.372"/>
<polygon fill="midnightblue" stroke="midnightblue" points="492.84,-83.6804 501.262,-77.2521 490.67,-77.0254 492.84,-83.6804"/>
</g>
<!-- Node12 -->
<g id="node24" class="node"><title>Node12</title>
<polygon fill="white" stroke="#bfbfbf" points="566,-58.5 566,-79.5 640,-79.5 640,-58.5 566,-58.5"/>
<text text-anchor="middle" x="603" y="-66.5" font-family="Helvetica,sans-Serif" font-size="10.00">TCollection.h</text>
</g>
<!-- Node1&#45;&gt;Node12 -->
<g id="edge24" class="edge"><title>Node1&#45;&gt;Node12</title>
<path fill="none" stroke="midnightblue" d="M390.824,-116.461C432.419,-107.594 493.535,-94.4087 555.85,-80.2336"/>
<polygon fill="midnightblue" stroke="midnightblue" points="556.887,-83.587 565.858,-77.9507 555.33,-76.7623 556.887,-83.587"/>
</g>
<!-- Node13 -->
<g id="node26" class="node"><title>Node13</title>
<polygon fill="white" stroke="#bfbfbf" points="658,-58.5 658,-79.5 706,-79.5 706,-58.5 658,-58.5"/>
<text text-anchor="middle" x="682" y="-66.5" font-family="Helvetica,sans-Serif" font-size="10.00">TKey.h</text>
</g>
<!-- Node1&#45;&gt;Node13 -->
<g id="edge26" class="edge"><title>Node1&#45;&gt;Node13</title>
<path fill="none" stroke="midnightblue" d="M396.07,-121.461C455.998,-114.796 554.677,-101.962 648.091,-79.9066"/>
<polygon fill="midnightblue" stroke="midnightblue" points="649.081,-83.2686 657.987,-77.5302 647.446,-76.4621 649.081,-83.2686"/>
</g>
<!-- Node5&#45;&gt;Node3 -->
<g id="edge10" class="edge"><title>Node5&#45;&gt;Node3</title>
<path fill="none" stroke="midnightblue" d="M187.718,-58.4966C170.382,-49.5194 145.21,-36.4835 125.62,-26.3387"/>
<polygon fill="midnightblue" stroke="midnightblue" points="126.999,-23.1118 116.51,-21.6212 123.78,-29.3278 126.999,-23.1118"/>
</g>
<!-- Node6 -->
<g id="node12" class="node"><title>Node6</title>
<polygon fill="white" stroke="#bfbfbf" points="166,-0.5 166,-21.5 218,-21.5 218,-0.5 166,-0.5"/>
<text text-anchor="middle" x="192" y="-8.5" font-family="Helvetica,sans-Serif" font-size="10.00">sstream</text>
</g>
<!-- Node5&#45;&gt;Node6 -->
<g id="edge12" class="edge"><title>Node5&#45;&gt;Node6</title>
<path fill="none" stroke="midnightblue" d="M205.065,-58.3619C202.99,-50.8401 200.143,-40.5187 197.636,-31.4308"/>
<polygon fill="midnightblue" stroke="midnightblue" points="200.949,-30.2798 194.916,-21.5707 194.201,-32.1414 200.949,-30.2798"/>
</g>
<!-- Node7 -->
<g id="node14" class="node"><title>Node7</title>
<polygon fill="white" stroke="#bfbfbf" points="236,-0.5 236,-21.5 292,-21.5 292,-0.5 236,-0.5"/>
<text text-anchor="middle" x="264" y="-8.5" font-family="Helvetica,sans-Serif" font-size="10.00">algorithm</text>
</g>
<!-- Node5&#45;&gt;Node7 -->
<g id="edge14" class="edge"><title>Node5&#45;&gt;Node7</title>
<path fill="none" stroke="midnightblue" d="M218.271,-58.3619C226.244,-50.1043 237.475,-38.4725 246.811,-28.8029"/>
<polygon fill="midnightblue" stroke="midnightblue" points="249.366,-31.1958 253.794,-21.5707 244.33,-26.3336 249.366,-31.1958"/>
</g>
</g>
</svg>
