<?xml version="1.0" encoding="UTF-8" standalone="no"?>
<!DOCTYPE svg PUBLIC "-//W3C//DTD SVG 1.1//EN"
 "http://www.w3.org/Graphics/SVG/1.1/DTD/svg11.dtd">
<!-- Generated by graphviz version 2.26.3 (20100126.1600)
 -->
<!-- Title: src/base/WrapTFile.h Pages: 1 -->
<svg width="2573pt" height="160pt"
 viewBox="0.00 0.00 2573.00 160.00" xmlns="http://www.w3.org/2000/svg" xmlns:xlink="http://www.w3.org/1999/xlink">
<g id="graph1" class="graph" transform="scale(1 1) rotate(0) translate(4 156)">
<title>src/base/WrapTFile.h</title>
<polygon fill="white" stroke="white" points="-4,5 -4,-156 2570,-156 2570,5 -4,5"/>
<!-- Node1 -->
<g id="node1" class="node"><title>Node1</title>
<polygon fill="#bfbfbf" stroke="black" points="1002,-130.5 1002,-151.5 1112,-151.5 1112,-130.5 1002,-130.5"/>
<text text-anchor="middle" x="1057" y="-138.5" font-family="Helvetica,sans-Serif" font-size="10.00">src/base/WrapTFile.h</text>
</g>
<!-- Node2 -->
<g id="node3" class="node"><title>Node2</title>
<a xlink:href="_ant_8cc.html" target="_top" xlink:title="progs/Ant.cc">
<polygon fill="white" stroke="black" points="0,-0.5 0,-21.5 72,-21.5 72,-0.5 0,-0.5"/>
<text text-anchor="middle" x="36" y="-8.5" font-family="Helvetica,sans-Serif" font-size="10.00">progs/Ant.cc</text>
</a>
</g>
<!-- Node1&#45;&gt;Node2 -->
<g id="edge2" class="edge"><title>Node1&#45;&gt;Node2</title>
<path fill="none" stroke="midnightblue" d="M991.526,-140.264C792.78,-137.672 205.156,-127.252 126,-94 88.7671,-78.3591 57.226,-40.2152 43.4374,-21.5869"/>
<polygon fill="midnightblue" stroke="midnightblue" points="991.772,-143.767 1001.82,-140.395 991.861,-136.767 991.772,-143.767"/>
</g>
<!-- Node3 -->
<g id="node5" class="node"><title>Node3</title>
<a xlink:href="omega__histograms_8cc.html" target="_top" xlink:title="progs/omega_histograms.cc">
<polygon fill="white" stroke="black" points="337,-65.5 337,-86.5 477,-86.5 477,-65.5 337,-65.5"/>
<text text-anchor="middle" x="407" y="-73.5" font-family="Helvetica,sans-Serif" font-size="10.00">progs/omega_histograms.cc</text>
</a>
</g>
<!-- Node1&#45;&gt;Node3 -->
<g id="edge4" class="edge"><title>Node1&#45;&gt;Node3</title>
<path fill="none" stroke="midnightblue" d="M991.715,-138.641C885.275,-134.12 667.948,-122.071 486,-94 473.627,-92.0911 460.309,-89.3339 448.198,-86.5489"/>
<polygon fill="midnightblue" stroke="midnightblue" points="991.837,-142.149 1001.97,-139.068 992.128,-135.155 991.837,-142.149"/>
</g>
<!-- Node4 -->
<g id="node7" class="node"><title>Node4</title>
<a xlink:href="_goat_reader_8cc.html" target="_top" xlink:title="src/analysis/input\l/goat/GoatReader.cc">
<polygon fill="white" stroke="black" points="494.5,-59 494.5,-93 601.5,-93 601.5,-59 494.5,-59"/>
<text text-anchor="start" x="502.5" y="-80" font-family="Helvetica,sans-Serif" font-size="10.00">src/analysis/input</text>
<text text-anchor="middle" x="548" y="-67" font-family="Helvetica,sans-Serif" font-size="10.00">/goat/GoatReader.cc</text>
</a>
</g>
<!-- Node1&#45;&gt;Node4 -->
<g id="edge6" class="edge"><title>Node1&#45;&gt;Node4</title>
<path fill="none" stroke="midnightblue" d="M991.777,-137.782C904.246,-132.637 744.24,-120.327 610,-94 607.25,-93.4607 604.446,-92.8551 601.625,-92.2013"/>
<polygon fill="midnightblue" stroke="midnightblue" points="991.643,-141.28 1001.83,-138.36 992.044,-134.291 991.643,-141.28"/>
</g>
<!-- Node5 -->
<g id="node9" class="node"><title>Node5</title>
<a xlink:href="_pluto_reader_8cc.html" target="_top" xlink:title="src/analysis/input\l/pluto/PlutoReader.cc">
<polygon fill="white" stroke="black" points="618.5,-59 618.5,-93 729.5,-93 729.5,-59 618.5,-59"/>
<text text-anchor="start" x="626.5" y="-80" font-family="Helvetica,sans-Serif" font-size="10.00">src/analysis/input</text>
<text text-anchor="middle" x="674" y="-67" font-family="Helvetica,sans-Serif" font-size="10.00">/pluto/PlutoReader.cc</text>
</a>
</g>
<!-- Node1&#45;&gt;Node5 -->
<g id="edge8" class="edge"><title>Node1&#45;&gt;Node5</title>
<path fill="none" stroke="midnightblue" d="M991.796,-133.869C927.015,-126.205 825.045,-112.574 738,-94 735.291,-93.4219 732.527,-92.794 729.743,-92.1308"/>
<polygon fill="midnightblue" stroke="midnightblue" points="991.526,-137.362 1001.87,-135.048 992.34,-130.409 991.526,-137.362"/>
</g>
<!-- Node6 -->
<g id="node11" class="node"><title>Node6</title>
<a xlink:href="_particle_i_d_8cc.html" target="_top" xlink:title="src/analysis/utils\l/ParticleID.cc">
<polygon fill="white" stroke="black" points="747,-59 747,-93 837,-93 837,-59 747,-59"/>
<text text-anchor="start" x="755" y="-80" font-family="Helvetica,sans-Serif" font-size="10.00">src/analysis/utils</text>
<text text-anchor="middle" x="792" y="-67" font-family="Helvetica,sans-Serif" font-size="10.00">/ParticleID.cc</text>
</a>
</g>
<!-- Node1&#45;&gt;Node6 -->
<g id="edge10" class="edge"><title>Node1&#45;&gt;Node6</title>
<path fill="none" stroke="midnightblue" d="M992.588,-128.441C950.583,-119.812 894.715,-107.507 846,-94 843.143,-93.2079 840.214,-92.3543 837.27,-91.4644"/>
<polygon fill="midnightblue" stroke="midnightblue" points="991.915,-131.875 1002.41,-130.444 993.314,-125.017 991.915,-131.875"/>
</g>
<!-- Node7 -->
<g id="node13" class="node"><title>Node7</title>
<a xlink:href="_wrap_t_file_8cc.html" target="_top" xlink:title="src/base/WrapTFile.cc">
<polygon fill="white" stroke="black" points="855,-65.5 855,-86.5 971,-86.5 971,-65.5 855,-65.5"/>
<text text-anchor="middle" x="913" y="-73.5" font-family="Helvetica,sans-Serif" font-size="10.00">src/base/WrapTFile.cc</text>
</a>
</g>
<!-- Node1&#45;&gt;Node7 -->
<g id="edge12" class="edge"><title>Node1&#45;&gt;Node7</title>
<path fill="none" stroke="midnightblue" d="M1024.2,-126.194C997.441,-114.116 960.292,-97.3469 936.447,-86.5835"/>
<polygon fill="midnightblue" stroke="midnightblue" points="1022.99,-129.488 1033.54,-130.412 1025.87,-123.108 1022.99,-129.488"/>
</g>
<!-- Node8 -->
<g id="node15" class="node"><title>Node8</title>
<a xlink:href="_data_base_8cc.html" target="_top" xlink:title="src/calibration/DataBase.cc">
<polygon fill="white" stroke="black" points="988.5,-65.5 988.5,-86.5 1125.5,-86.5 1125.5,-65.5 988.5,-65.5"/>
<text text-anchor="middle" x="1057" y="-73.5" font-family="Helvetica,sans-Serif" font-size="10.00">src/calibration/DataBase.cc</text>
</a>
</g>
<!-- Node1&#45;&gt;Node8 -->
<g id="edge14" class="edge"><title>Node1&#45;&gt;Node8</title>
<path fill="none" stroke="midnightblue" d="M1057,-120.014C1057,-108.831 1057,-95.5583 1057,-86.5337"/>
<polygon fill="midnightblue" stroke="midnightblue" points="1053.5,-120.267 1057,-130.267 1060.5,-120.267 1053.5,-120.267"/>
</g>
<!-- Node9 -->
<g id="node17" class="node"><title>Node9</title>
<a xlink:href="_data_manager_8cc.html" target="_top" xlink:title="src/calibration/DataManager.cc">
<polygon fill="white" stroke="black" points="1143,-65.5 1143,-86.5 1295,-86.5 1295,-65.5 1143,-65.5"/>
<text text-anchor="middle" x="1219" y="-73.5" font-family="Helvetica,sans-Serif" font-size="10.00">src/calibration/DataManager.cc</text>
</a>
</g>
<!-- Node1&#45;&gt;Node9 -->
<g id="edge16" class="edge"><title>Node1&#45;&gt;Node9</title>
<path fill="none" stroke="midnightblue" d="M1092.72,-126.668C1122.9,-114.558 1165.44,-97.4886 1192.62,-86.5835"/>
<polygon fill="midnightblue" stroke="midnightblue" points="1091.37,-123.44 1083.39,-130.412 1093.97,-129.936 1091.37,-123.44"/>
</g>
<!-- Node10 -->
<g id="node19" class="node"><title>Node10</title>
<a xlink:href="_manager_8cc.html" target="_top" xlink:title="src/calibration/gui\l/Manager.cc">
<polygon fill="white" stroke="black" points="1312.5,-59 1312.5,-93 1405.5,-93 1405.5,-59 1312.5,-59"/>
<text text-anchor="start" x="1320.5" y="-80" font-family="Helvetica,sans-Serif" font-size="10.00">src/calibration/gui</text>
<text text-anchor="middle" x="1359" y="-67" font-family="Helvetica,sans-Serif" font-size="10.00">/Manager.cc</text>
</a>
</g>
<!-- Node1&#45;&gt;Node10 -->
<g id="edge18" class="edge"><title>Node1&#45;&gt;Node10</title>
<path fill="none" stroke="midnightblue" d="M1122.43,-130.902C1172.51,-122.607 1243.1,-109.691 1304,-94 1306.72,-93.2981 1309.51,-92.5345 1312.31,-91.7309"/>
<polygon fill="midnightblue" stroke="midnightblue" points="1121.69,-127.477 1112.39,-132.549 1122.82,-134.385 1121.69,-127.477"/>
</g>
<!-- Node11 -->
<g id="node21" class="node"><title>Node11</title>
<a xlink:href="_unpacker_reader_8h.html" target="_top" xlink:title="src/tree/UnpackerReader.h">
<polygon fill="white" stroke="black" points="147,-65.5 147,-86.5 281,-86.5 281,-65.5 147,-65.5"/>
<text text-anchor="middle" x="214" y="-73.5" font-family="Helvetica,sans-Serif" font-size="10.00">src/tree/UnpackerReader.h</text>
</a>
</g>
<!-- Node1&#45;&gt;Node11 -->
<g id="edge20" class="edge"><title>Node1&#45;&gt;Node11</title>
<path fill="none" stroke="midnightblue" d="M991.785,-138.297C832.858,-131.498 428.802,-112.874 295,-94 282.019,-92.169 268.032,-89.3652 255.394,-86.5117"/>
<polygon fill="midnightblue" stroke="midnightblue" points="991.753,-141.799 1001.89,-138.728 992.051,-134.805 991.753,-141.799"/>
</g>
<!-- Node12 -->
<g id="node24" class="node"><title>Node12</title>
<a xlink:href="_unpacker_reader_8cc.html" target="_top" xlink:title="src/tree/UnpackerReader.cc">
<polygon fill="white" stroke="black" points="90,-0.5 90,-21.5 230,-21.5 230,-0.5 90,-0.5"/>
<text text-anchor="middle" x="160" y="-8.5" font-family="Helvetica,sans-Serif" font-size="10.00">src/tree/UnpackerReader.cc</text>
</a>
</g>
<!-- Node1&#45;&gt;Node12 -->
<g id="edge28" class="edge"><title>Node1&#45;&gt;Node12</title>
<path fill="none" stroke="midnightblue" d="M991.911,-140.1C787.061,-136.955 167.37,-124.911 138,-94 118.901,-73.8991 139.169,-39.1922 151.681,-21.7148"/>
<polygon fill="midnightblue" stroke="midnightblue" points="991.874,-143.6 1001.93,-140.252 991.98,-136.601 991.874,-143.6"/>
</g>
<!-- Node13 -->
<g id="node26" class="node"><title>Node13</title>
<a xlink:href="_test_ant_reader_8cc.html" target="_top" xlink:title="test/analysis/TestAntReader.cc">
<polygon fill="white" stroke="black" points="247.5,-0.5 247.5,-21.5 402.5,-21.5 402.5,-0.5 247.5,-0.5"/>
<text text-anchor="middle" x="325" y="-8.5" font-family="Helvetica,sans-Serif" font-size="10.00">test/analysis/TestAntReader.cc</text>
</a>
</g>
<!-- Node1&#45;&gt;Node13 -->
<g id="edge34" class="edge"><title>Node1&#45;&gt;Node13</title>
<path fill="none" stroke="midnightblue" d="M991.794,-139.146C817.242,-133.872 350.969,-117.628 328,-94 309.205,-74.6663 316.268,-39.2904 321.44,-21.6251"/>
<polygon fill="midnightblue" stroke="midnightblue" points="991.772,-142.646 1001.87,-139.448 991.982,-135.65 991.772,-142.646"/>
</g>
<!-- Node14 -->
<g id="node29" class="node"><title>Node14</title>
<a xlink:href="_unpacker_writer_8cc.html" target="_top" xlink:title="src/tree/UnpackerWriter.cc">
<polygon fill="white" stroke="black" points="1423,-65.5 1423,-86.5 1557,-86.5 1557,-65.5 1423,-65.5"/>
<text text-anchor="middle" x="1490" y="-73.5" font-family="Helvetica,sans-Serif" font-size="10.00">src/tree/UnpackerWriter.cc</text>
</a>
</g>
<!-- Node1&#45;&gt;Node14 -->
<g id="edge30" class="edge"><title>Node1&#45;&gt;Node14</title>
<path fill="none" stroke="midnightblue" d="M1122.26,-134.424C1194.07,-126.718 1312.76,-112.603 1414,-94 1425.34,-91.917 1437.52,-89.2328 1448.75,-86.5763"/>
<polygon fill="midnightblue" stroke="midnightblue" points="1121.58,-130.975 1112.01,-135.514 1122.32,-137.936 1121.58,-130.975"/>
</g>
<!-- Node15 -->
<g id="node31" class="node"><title>Node15</title>
<a xlink:href="_unpacker_a2_geant_8cc.html" target="_top" xlink:title="src/unpacker/UnpackerA2Geant.cc">
<polygon fill="white" stroke="black" points="1575,-65.5 1575,-86.5 1745,-86.5 1745,-65.5 1575,-65.5"/>
<text text-anchor="middle" x="1660" y="-73.5" font-family="Helvetica,sans-Serif" font-size="10.00">src/unpacker/UnpackerA2Geant.cc</text>
</a>
</g>
<!-- Node1&#45;&gt;Node15 -->
<g id="edge32" class="edge"><title>Node1&#45;&gt;Node15</title>
<path fill="none" stroke="midnightblue" d="M1122.44,-136.998C1219.56,-130.598 1407.46,-116.444 1566,-94 1580.31,-91.9737 1595.75,-89.2457 1609.9,-86.527"/>
<polygon fill="midnightblue" stroke="midnightblue" points="1121.94,-133.523 1112.19,-137.667 1122.4,-140.508 1121.94,-133.523"/>
</g>
<!-- Node16 -->
<g id="node34" class="node"><title>Node16</title>
<a xlink:href="_test_goat_reader_8cc.html" target="_top" xlink:title="test/analysis/TestGoatReader.cc">
<polygon fill="white" stroke="black" points="1762.5,-65.5 1762.5,-86.5 1923.5,-86.5 1923.5,-65.5 1762.5,-65.5"/>
<text text-anchor="middle" x="1843" y="-73.5" font-family="Helvetica,sans-Serif" font-size="10.00">test/analysis/TestGoatReader.cc</text>
</a>
</g>
<!-- Node1&#45;&gt;Node16 -->
<g id="edge36" class="edge"><title>Node1&#45;&gt;Node16</title>
<path fill="none" stroke="midnightblue" d="M1122.44,-139.471C1246.26,-135.94 1523.09,-124.998 1754,-94 1768.06,-92.1124 1783.24,-89.3272 1797,-86.509"/>
<polygon fill="midnightblue" stroke="midnightblue" points="1122.26,-135.974 1112.37,-139.751 1122.46,-142.972 1122.26,-135.974"/>
</g>
<!-- Node17 -->
<g id="node36" class="node"><title>Node17</title>
<a xlink:href="_test_input_module_8cc.html" target="_top" xlink:title="test/analysis/TestInputModule.cc">
<polygon fill="white" stroke="black" points="1940.5,-65.5 1940.5,-86.5 2101.5,-86.5 2101.5,-65.5 1940.5,-65.5"/>
<text text-anchor="middle" x="2021" y="-73.5" font-family="Helvetica,sans-Serif" font-size="10.00">test/analysis/TestInputModule.cc</text>
</a>
</g>
<!-- Node1&#45;&gt;Node17 -->
<g id="edge38" class="edge"><title>Node1&#45;&gt;Node17</title>
<path fill="none" stroke="midnightblue" d="M1122.17,-138.735C1297.29,-132.45 1775.34,-113.941 1932,-94 1946.23,-92.1886 1961.59,-89.3905 1975.48,-86.5362"/>
<polygon fill="midnightblue" stroke="midnightblue" points="1121.94,-135.241 1112.07,-139.096 1122.19,-142.236 1121.94,-135.241"/>
</g>
<!-- Node18 -->
<g id="node38" class="node"><title>Node18</title>
<a xlink:href="_test_physics_manager_8cc.html" target="_top" xlink:title="test/analysis/TestPhysics\lManager.cc">
<polygon fill="white" stroke="black" points="2119,-59 2119,-93 2249,-93 2249,-59 2119,-59"/>
<text text-anchor="start" x="2127" y="-80" font-family="Helvetica,sans-Serif" font-size="10.00">test/analysis/TestPhysics</text>
<text text-anchor="middle" x="2184" y="-67" font-family="Helvetica,sans-Serif" font-size="10.00">Manager.cc</text>
</a>
</g>
<!-- Node1&#45;&gt;Node18 -->
<g id="edge40" class="edge"><title>Node1&#45;&gt;Node18</title>
<path fill="none" stroke="midnightblue" d="M1122.09,-139.749C1320.81,-135.668 1917.8,-121.4 2110,-94 2112.88,-93.5895 2115.81,-93.1166 2118.76,-92.595"/>
<polygon fill="midnightblue" stroke="midnightblue" points="1122.01,-136.25 1112.09,-139.953 1122.16,-143.248 1122.01,-136.25"/>
</g>
<!-- Node19 -->
<g id="node40" class="node"><title>Node19</title>
<a xlink:href="_test_read_t_files_8cc.html" target="_top" xlink:title="test/base/TestReadTFiles.cc">
<polygon fill="white" stroke="black" points="2266.5,-65.5 2266.5,-86.5 2409.5,-86.5 2409.5,-65.5 2266.5,-65.5"/>
<text text-anchor="middle" x="2338" y="-73.5" font-family="Helvetica,sans-Serif" font-size="10.00">test/base/TestReadTFiles.cc</text>
</a>
</g>
<!-- Node1&#45;&gt;Node19 -->
<g id="edge42" class="edge"><title>Node1&#45;&gt;Node19</title>
<path fill="none" stroke="midnightblue" d="M1122.5,-140.01C1339.78,-136.478 2035.6,-123.124 2258,-94 2271.13,-92.2809 2285.27,-89.4353 2297.97,-86.5086"/>
<polygon fill="midnightblue" stroke="midnightblue" points="1122.15,-136.515 1112.21,-140.175 1122.27,-143.514 1122.15,-136.515"/>
</g>
<!-- Node20 -->
<g id="node42" class="node"><title>Node20</title>
<a xlink:href="_test_wrap_t_file_8cc.html" target="_top" xlink:title="test/base/TestWrapTFile.cc">
<polygon fill="white" stroke="black" points="2427,-65.5 2427,-86.5 2565,-86.5 2565,-65.5 2427,-65.5"/>
<text text-anchor="middle" x="2496" y="-73.5" font-family="Helvetica,sans-Serif" font-size="10.00">test/base/TestWrapTFile.cc</text>
</a>
</g>
<!-- Node1&#45;&gt;Node20 -->
<g id="edge44" class="edge"><title>Node1&#45;&gt;Node20</title>
<path fill="none" stroke="midnightblue" d="M1122.34,-140.408C1357.87,-138.016 2162.92,-127.52 2418,-94 2430.81,-92.3161 2444.61,-89.4801 2456.99,-86.5513"/>
<polygon fill="midnightblue" stroke="midnightblue" points="1122.18,-136.91 1112.21,-140.51 1122.25,-143.909 1122.18,-136.91"/>
</g>
<!-- Node11&#45;&gt;Node2 -->
<g id="edge22" class="edge"><title>Node11&#45;&gt;Node2</title>
<path fill="none" stroke="midnightblue" d="M175.612,-61.9818C142.4,-49.854 95.1042,-32.583 64.9825,-21.5835"/>
<polygon fill="midnightblue" stroke="midnightblue" points="174.411,-65.2694 185.005,-65.412 176.812,-58.6941 174.411,-65.2694"/>
</g>
<!-- Node11&#45;&gt;Node12 -->
<g id="edge24" class="edge"><title>Node11&#45;&gt;Node12</title>
<path fill="none" stroke="midnightblue" d="M198.568,-57.4248C188.902,-45.7889 176.795,-31.2163 168.751,-21.5337"/>
<polygon fill="midnightblue" stroke="midnightblue" points="196.001,-59.8112 205.083,-65.2666 201.385,-55.3381 196.001,-59.8112"/>
</g>
<!-- Node11&#45;&gt;Node13 -->
<g id="edge26" class="edge"><title>Node11&#45;&gt;Node13</title>
<path fill="none" stroke="midnightblue" d="M241.188,-60.0792C261.675,-48.0821 289.193,-31.9684 307.012,-21.5337"/>
<polygon fill="midnightblue" stroke="midnightblue" points="239.19,-57.1931 232.329,-65.2666 242.727,-63.2336 239.19,-57.1931"/>
</g>
</g>
</svg>
