<?xml version="1.0" encoding="UTF-8" standalone="no"?>
<!DOCTYPE svg PUBLIC "-//W3C//DTD SVG 1.1//EN"
 "http://www.w3.org/Graphics/SVG/1.1/DTD/svg11.dtd">
<!-- Generated by graphviz version 2.26.3 (20100126.1600)
 -->
<!-- Title: ant::analysis::data::Event::Data::PTypeLists Pages: 1 -->
<svg width="634pt" height="185pt"
 viewBox="0.00 0.00 634.00 185.00" xmlns="http://www.w3.org/2000/svg" xmlns:xlink="http://www.w3.org/1999/xlink">
<g id="graph1" class="graph" transform="scale(1 1) rotate(0) translate(4 181)">
<title>ant::analysis::data::Event::Data::PTypeLists</title>
<polygon fill="white" stroke="white" points="-4,5 -4,-181 631,-181 631,5 -4,5"/>
<!-- Node1 -->
<g id="node1" class="node"><title>Node1</title>
<polygon fill="#bfbfbf" stroke="black" points="494.5,-85 494.5,-119 625.5,-119 625.5,-85 494.5,-85"/>
<text text-anchor="start" x="502.5" y="-106" font-family="Helvetica,sans-Serif" font-size="10.00">ant::analysis::data</text>
<text text-anchor="middle" x="560" y="-93" font-family="Helvetica,sans-Serif" font-size="10.00">::Event::Data::PTypeLists</text>
</g>
<!-- Node2 -->
<g id="node2" class="node"><title>Node2</title>
<a xlink:href="classant_1_1printable__traits.html" target="_top" xlink:title="ant::printable_traits">
<polygon fill="white" stroke="black" points="298,-155.5 298,-176.5 398,-176.5 398,-155.5 298,-155.5"/>
<text text-anchor="middle" x="348" y="-163.5" font-family="Helvetica,sans-Serif" font-size="10.00">ant::printable_traits</text>
</a>
</g>
<!-- Node2&#45;&gt;Node1 -->
<g id="edge2" class="edge"><title>Node2&#45;&gt;Node1</title>
<path fill="none" stroke="midnightblue" d="M408.163,-155.29C429.79,-150.799 454.214,-144.982 476,-138 492.167,-132.819 509.494,-125.68 524.187,-119.125"/>
<polygon fill="midnightblue" stroke="midnightblue" points="407.227,-151.908 398.12,-157.323 408.616,-158.769 407.227,-151.908"/>
</g>
<!-- Node3 -->
<g id="node4" class="node"><title>Node3</title>
<polygon fill="white" stroke="#bfbfbf" points="278.5,-40.5 278.5,-87.5 417.5,-87.5 417.5,-40.5 278.5,-40.5"/>
<text text-anchor="start" x="286.5" y="-74.5" font-family="Helvetica,sans-Serif" font-size="10.00">std::map&lt; const ant</text>
<text text-anchor="start" x="286.5" y="-61.5" font-family="Helvetica,sans-Serif" font-size="10.00">::ant::ParticleTypeDatabase</text>
<text text-anchor="middle" x="348" y="-48.5" font-family="Helvetica,sans-Serif" font-size="10.00">::Type *, ParticleList &gt;</text>
</g>
<!-- Node3&#45;&gt;Node1 -->
<g id="edge4" class="edge"><title>Node3&#45;&gt;Node1</title>
<path fill="none" stroke="#9a32cd" stroke-dasharray="5,2" d="M427.662,-78.2791C449.6,-82.2113 473.145,-86.4316 494.204,-90.2064"/>
<polygon fill="#9a32cd" stroke="#9a32cd" points="428.171,-74.8146 417.71,-76.4953 426.936,-81.7048 428.171,-74.8146"/>
<text text-anchor="middle" x="456" y="-90" font-family="Helvetica,sans-Serif" font-size="10.00"> lists</text>
</g>
<!-- Node4 -->
<g id="node6" class="node"><title>Node4</title>
<a xlink:title="STL class. ">
<polygon fill="white" stroke="#bfbfbf" points="110.5,-91.5 110.5,-112.5 197.5,-112.5 197.5,-91.5 110.5,-91.5"/>
<text text-anchor="middle" x="154" y="-99.5" font-family="Helvetica,sans-Serif" font-size="10.00">std::vector&lt; T &gt;</text>
</a>
</g>
<!-- Node4&#45;&gt;Node1 -->
<g id="edge12" class="edge"><title>Node4&#45;&gt;Node1</title>
<path fill="none" stroke="#9a32cd" stroke-dasharray="5,2" d="M207.784,-105.682C210.562,-105.806 213.313,-105.913 216,-106 235.545,-106.63 240.445,-106.13 260,-106 340.735,-105.462 433.682,-104.109 494.457,-103.125"/>
<polygon fill="#9a32cd" stroke="#9a32cd" points="207.842,-102.181 197.678,-105.172 207.489,-109.172 207.842,-102.181"/>
<text text-anchor="middle" x="348" y="-109" font-family="Helvetica,sans-Serif" font-size="10.00"> empty</text>
</g>
<!-- Node4&#45;&gt;Node3 -->
<g id="edge6" class="edge"><title>Node4&#45;&gt;Node3</title>
<path fill="none" stroke="#9a32cd" stroke-dasharray="5,2" d="M207.623,-91.4965C229.488,-87.2136 255.057,-82.2054 278.337,-77.6453"/>
<polygon fill="#9a32cd" stroke="#9a32cd" points="206.678,-88.115 197.537,-93.4721 208.024,-94.9845 206.678,-88.115"/>
<text text-anchor="middle" x="238" y="-93" font-family="Helvetica,sans-Serif" font-size="10.00"> elements</text>
</g>
<!-- Node5 -->
<g id="node8" class="node"><title>Node5</title>
<polygon fill="white" stroke="#bfbfbf" points="0.5,-91.5 0.5,-112.5 29.5,-112.5 29.5,-91.5 0.5,-91.5"/>
<text text-anchor="middle" x="15" y="-99.5" font-family="Helvetica,sans-Serif" font-size="10.00">T</text>
</g>
<!-- Node5&#45;&gt;Node4 -->
<g id="edge8" class="edge"><title>Node5&#45;&gt;Node4</title>
<path fill="none" stroke="#9a32cd" stroke-dasharray="5,2" d="M39.827,-102C59.3999,-102 87.1765,-102 110.431,-102"/>
<polygon fill="#9a32cd" stroke="#9a32cd" points="39.6128,-98.5001 29.6127,-102 39.6127,-105.5 39.6128,-98.5001"/>
<text text-anchor="middle" x="70" y="-106" font-family="Helvetica,sans-Serif" font-size="10.00"> elements</text>
</g>
<!-- Node6 -->
<g id="node10" class="node"><title>Node6</title>
<polygon fill="white" stroke="#bfbfbf" points="284.5,-0.5 284.5,-21.5 411.5,-21.5 411.5,-0.5 284.5,-0.5"/>
<text text-anchor="middle" x="348" y="-8.5" font-family="Helvetica,sans-Serif" font-size="10.00">std::vector&lt; ParticlePtr &gt;</text>
</g>
<!-- Node6&#45;&gt;Node1 -->
<g id="edge10" class="edge"><title>Node6&#45;&gt;Node1</title>
<path fill="none" stroke="#9a32cd" stroke-dasharray="5,2" d="M399.638,-24.5738C405.882,-26.5608 412.125,-28.7147 418,-31 457.944,-46.5377 501.755,-69.3958 529.997,-84.9483"/>
<polygon fill="#9a32cd" stroke="#9a32cd" points="400.463,-21.1663 389.877,-21.5937 398.419,-27.8612 400.463,-21.1663"/>
<text text-anchor="middle" x="456" y="-60" font-family="Helvetica,sans-Serif" font-size="10.00"> particles</text>
</g>
</g>
</svg>
