<?xml version="1.0" encoding="UTF-8" standalone="no"?>
<!DOCTYPE svg PUBLIC "-//W3C//DTD SVG 1.1//EN"
 "http://www.w3.org/Graphics/SVG/1.1/DTD/svg11.dtd">
<!-- Generated by graphviz version 2.26.3 (20100126.1600)
 -->
<!-- Title: ant::Calibration::PhysicsModule Pages: 1 -->
<svg width="792pt" height="206pt"
 viewBox="0.00 0.00 792.00 206.00" xmlns="http://www.w3.org/2000/svg" xmlns:xlink="http://www.w3.org/1999/xlink">
<g id="graph1" class="graph" transform="scale(1 1) rotate(0) translate(4 202)">
<title>ant::Calibration::PhysicsModule</title>
<polygon fill="white" stroke="white" points="-4,5 -4,-202 789,-202 789,5 -4,5"/>
<!-- Node1 -->
<g id="node1" class="node"><title>Node1</title>
<polygon fill="#bfbfbf" stroke="black" points="180,-63 180,-97 304,-97 304,-63 180,-63"/>
<text text-anchor="start" x="188" y="-84" font-family="Helvetica,sans-Serif" font-size="10.00">ant::Calibration::Physics</text>
<text text-anchor="middle" x="242" y="-71" font-family="Helvetica,sans-Serif" font-size="10.00">Module</text>
</g>
<!-- Node3 -->
<g id="node5" class="node"><title>Node3</title>
<a xlink:href="classant_1_1_calibration_1_1_module.html" target="_top" xlink:title="The Module class is typically used for calibrations. ">
<polygon fill="white" stroke="black" points="340,-69.5 340,-90.5 460,-90.5 460,-69.5 340,-69.5"/>
<text text-anchor="middle" x="400" y="-77.5" font-family="Helvetica,sans-Serif" font-size="10.00">ant::Calibration::Module</text>
</a>
</g>
<!-- Node1&#45;&gt;Node3 -->
<g id="edge4" class="edge"><title>Node1&#45;&gt;Node3</title>
<path fill="none" stroke="midnightblue" d="M314.644,-80C323.065,-80 331.584,-80 339.813,-80"/>
<polygon fill="midnightblue" stroke="midnightblue" points="314.446,-76.5001 304.446,-80 314.446,-83.5001 314.446,-76.5001"/>
</g>
<!-- Node2 -->
<g id="node2" class="node"><title>Node2</title>
<a xlink:href="classant_1_1_calibration_1_1_base_module.html" target="_top" xlink:title="The BaseModule class provides a name for identification. ">
<polygon fill="white" stroke="black" points="0.5,-69.5 0.5,-90.5 143.5,-90.5 143.5,-69.5 0.5,-69.5"/>
<text text-anchor="middle" x="72" y="-77.5" font-family="Helvetica,sans-Serif" font-size="10.00">ant::Calibration::BaseModule</text>
</a>
</g>
<!-- Node2&#45;&gt;Node1 -->
<g id="edge2" class="edge"><title>Node2&#45;&gt;Node1</title>
<path fill="none" stroke="midnightblue" d="M153.851,-80C162.617,-80 171.429,-80 179.911,-80"/>
<polygon fill="midnightblue" stroke="midnightblue" points="153.603,-76.5001 143.603,-80 153.603,-83.5001 153.603,-76.5001"/>
</g>
<!-- Node4 -->
<g id="node7" class="node"><title>Node4</title>
<a xlink:href="classant_1_1calibration_1_1_c_b___time_walk.html" target="_top" xlink:title="ant::calibration::CB\l_TimeWalk">
<polygon fill="white" stroke="black" points="504.5,-132 504.5,-166 605.5,-166 605.5,-132 504.5,-132"/>
<text text-anchor="start" x="512.5" y="-153" font-family="Helvetica,sans-Serif" font-size="10.00">ant::calibration::CB</text>
<text text-anchor="middle" x="555" y="-140" font-family="Helvetica,sans-Serif" font-size="10.00">_TimeWalk</text>
</a>
</g>
<!-- Node3&#45;&gt;Node4 -->
<g id="edge6" class="edge"><title>Node3&#45;&gt;Node4</title>
<path fill="none" stroke="midnightblue" d="M432.843,-94.7699C451.376,-103.089 474.966,-113.655 496,-123 502.547,-125.909 509.508,-128.988 516.266,-131.971"/>
<polygon fill="midnightblue" stroke="midnightblue" points="434.21,-91.5469 423.653,-90.6425 431.342,-97.9324 434.21,-91.5469"/>
</g>
<!-- Node5 -->
<g id="node9" class="node"><title>Node5</title>
<a xlink:href="classant_1_1calibration_1_1_energy.html" target="_top" xlink:title="ant::calibration::Energy">
<polygon fill="white" stroke="black" points="496.5,-92.5 496.5,-113.5 613.5,-113.5 613.5,-92.5 496.5,-92.5"/>
<text text-anchor="middle" x="555" y="-100.5" font-family="Helvetica,sans-Serif" font-size="10.00">ant::calibration::Energy</text>
</a>
</g>
<!-- Node3&#45;&gt;Node5 -->
<g id="edge8" class="edge"><title>Node3&#45;&gt;Node5</title>
<path fill="none" stroke="midnightblue" d="M470.447,-90.4534C479.098,-91.7372 487.868,-93.0385 496.32,-94.2926"/>
<polygon fill="midnightblue" stroke="midnightblue" points="470.776,-86.964 460.371,-88.9583 469.749,-93.8882 470.776,-86.964"/>
</g>
<!-- Node10 -->
<g id="node19" class="node"><title>Node10</title>
<a xlink:href="classant_1_1calibration_1_1_p_i_d___phi_angle.html" target="_top" xlink:title="ant::calibration::PID\l_PhiAngle">
<polygon fill="white" stroke="black" points="503,-40 503,-74 607,-74 607,-40 503,-40"/>
<text text-anchor="start" x="511" y="-61" font-family="Helvetica,sans-Serif" font-size="10.00">ant::calibration::PID</text>
<text text-anchor="middle" x="555" y="-48" font-family="Helvetica,sans-Serif" font-size="10.00">_PhiAngle</text>
</a>
</g>
<!-- Node3&#45;&gt;Node10 -->
<g id="edge18" class="edge"><title>Node3&#45;&gt;Node10</title>
<path fill="none" stroke="midnightblue" d="M470.276,-69.5719C481.148,-67.9587 492.21,-66.3172 502.598,-64.7757"/>
<polygon fill="midnightblue" stroke="midnightblue" points="469.749,-66.1118 460.371,-71.0417 470.776,-73.0359 469.749,-66.1118"/>
</g>
<!-- Node11 -->
<g id="node21" class="node"><title>Node11</title>
<a xlink:href="classant_1_1calibration_1_1_time.html" target="_top" xlink:title="ant::calibration::Time">
<polygon fill="white" stroke="black" points="501,-0.5 501,-21.5 609,-21.5 609,-0.5 501,-0.5"/>
<text text-anchor="middle" x="555" y="-8.5" font-family="Helvetica,sans-Serif" font-size="10.00">ant::calibration::Time</text>
</a>
</g>
<!-- Node3&#45;&gt;Node11 -->
<g id="edge20" class="edge"><title>Node3&#45;&gt;Node11</title>
<path fill="none" stroke="midnightblue" d="M427.687,-64.5137C446.596,-54.2765 472.403,-40.9594 496,-31 503.972,-27.6355 512.723,-24.4206 520.987,-21.5905"/>
<polygon fill="midnightblue" stroke="midnightblue" points="425.833,-61.5387 418.738,-69.4076 429.191,-67.6803 425.833,-61.5387"/>
</g>
<!-- Node6 -->
<g id="node11" class="node"><title>Node6</title>
<a xlink:href="classant_1_1calibration_1_1_c_b___energy.html" target="_top" xlink:title="ant::calibration::CB\l_Energy">
<polygon fill="white" stroke="black" points="666.5,-164 666.5,-198 767.5,-198 767.5,-164 666.5,-164"/>
<text text-anchor="start" x="674.5" y="-185" font-family="Helvetica,sans-Serif" font-size="10.00">ant::calibration::CB</text>
<text text-anchor="middle" x="717" y="-172" font-family="Helvetica,sans-Serif" font-size="10.00">_Energy</text>
</a>
</g>
<!-- Node5&#45;&gt;Node6 -->
<g id="edge10" class="edge"><title>Node5&#45;&gt;Node6</title>
<path fill="none" stroke="midnightblue" d="M603.006,-117.425C606.811,-119.122 610.523,-120.978 614,-123 632.506,-133.762 631.732,-143.84 650,-155 655.324,-158.252 661.124,-161.226 667.011,-163.906"/>
<polygon fill="midnightblue" stroke="midnightblue" points="604.019,-114.058 593.437,-113.534 601.382,-120.543 604.019,-114.058"/>
</g>
<!-- Node7 -->
<g id="node13" class="node"><title>Node7</title>
<a xlink:href="classant_1_1calibration_1_1_p_i_d___energy.html" target="_top" xlink:title="ant::calibration::PID\l_Energy">
<polygon fill="white" stroke="black" points="665,-112 665,-146 769,-146 769,-112 665,-112"/>
<text text-anchor="start" x="673" y="-133" font-family="Helvetica,sans-Serif" font-size="10.00">ant::calibration::PID</text>
<text text-anchor="middle" x="717" y="-120" font-family="Helvetica,sans-Serif" font-size="10.00">_Energy</text>
</a>
</g>
<!-- Node5&#45;&gt;Node7 -->
<g id="edge12" class="edge"><title>Node5&#45;&gt;Node7</title>
<path fill="none" stroke="midnightblue" d="M623.828,-114.047C637.551,-116.249 651.75,-118.528 664.802,-120.622"/>
<polygon fill="midnightblue" stroke="midnightblue" points="624.372,-110.589 613.944,-112.46 623.263,-117.501 624.372,-110.589"/>
</g>
<!-- Node8 -->
<g id="node15" class="node"><title>Node8</title>
<a xlink:href="classant_1_1calibration_1_1_t_a_p_s___energy.html" target="_top" xlink:title="ant::calibration::TAPS\l_Energy">
<polygon fill="white" stroke="black" points="660.5,-60 660.5,-94 773.5,-94 773.5,-60 660.5,-60"/>
<text text-anchor="start" x="668.5" y="-81" font-family="Helvetica,sans-Serif" font-size="10.00">ant::calibration::TAPS</text>
<text text-anchor="middle" x="717" y="-68" font-family="Helvetica,sans-Serif" font-size="10.00">_Energy</text>
</a>
</g>
<!-- Node5&#45;&gt;Node8 -->
<g id="edge14" class="edge"><title>Node5&#45;&gt;Node8</title>
<path fill="none" stroke="midnightblue" d="M623.993,-91.927C636.088,-89.9858 648.549,-87.986 660.263,-86.1059"/>
<polygon fill="midnightblue" stroke="midnightblue" points="623.263,-88.4993 613.944,-93.5399 624.372,-95.4109 623.263,-88.4993"/>
</g>
<!-- Node9 -->
<g id="node17" class="node"><title>Node9</title>
<a xlink:href="classant_1_1calibration_1_1_t_a_p_s_veto___energy.html" target="_top" xlink:title="ant::calibration::TAPSVeto\l_Energy">
<polygon fill="white" stroke="black" points="650.5,-8 650.5,-42 783.5,-42 783.5,-8 650.5,-8"/>
<text text-anchor="start" x="658.5" y="-29" font-family="Helvetica,sans-Serif" font-size="10.00">ant::calibration::TAPSVeto</text>
<text text-anchor="middle" x="717" y="-16" font-family="Helvetica,sans-Serif" font-size="10.00">_Energy</text>
</a>
</g>
<!-- Node5&#45;&gt;Node9 -->
<g id="edge16" class="edge"><title>Node5&#45;&gt;Node9</title>
<path fill="none" stroke="midnightblue" d="M603.006,-88.575C606.811,-86.8785 610.523,-85.0219 614,-83 632.506,-72.2383 631.732,-62.1602 650,-51 655.324,-47.7477 661.124,-44.774 667.011,-42.0941"/>
<polygon fill="midnightblue" stroke="midnightblue" points="601.382,-85.457 593.437,-92.4656 604.019,-91.9416 601.382,-85.457"/>
</g>
</g>
</svg>
