<?xml version="1.0" encoding="UTF-8" standalone="no"?>
<!DOCTYPE svg PUBLIC "-//W3C//DTD SVG 1.1//EN"
 "http://www.w3.org/Graphics/SVG/1.1/DTD/svg11.dtd">
<!-- Generated by graphviz version 2.26.3 (20100126.1600)
 -->
<!-- Title: ant::UnpackerA2GeantConfig Pages: 1 -->
<svg width="950pt" height="146pt"
 viewBox="0.00 0.00 950.00 146.00" xmlns="http://www.w3.org/2000/svg" xmlns:xlink="http://www.w3.org/1999/xlink">
<g id="graph1" class="graph" transform="scale(1 1) rotate(0) translate(4 142)">
<title>ant::UnpackerA2GeantConfig</title>
<polygon fill="white" stroke="white" points="-4,5 -4,-142 947,-142 947,5 -4,5"/>
<!-- Node1 -->
<g id="node1" class="node"><title>Node1</title>
<polygon fill="#bfbfbf" stroke="black" points="326.5,-32.5 326.5,-53.5 471.5,-53.5 471.5,-32.5 326.5,-32.5"/>
<text text-anchor="middle" x="399" y="-40.5" font-family="Helvetica,sans-Serif" font-size="10.00">ant::UnpackerA2GeantConfig</text>
</g>
<!-- Node4 -->
<g id="node7" class="node"><title>Node4</title>
<a xlink:href="classant_1_1expconfig_1_1_setup.html" target="_top" xlink:title="The Setup class serves as a base class for all known beamtime setup configurations. ">
<polygon fill="white" stroke="black" points="508,-32.5 508,-53.5 618,-53.5 618,-32.5 508,-32.5"/>
<text text-anchor="middle" x="563" y="-40.5" font-family="Helvetica,sans-Serif" font-size="10.00">ant::expconfig::Setup</text>
</a>
</g>
<!-- Node1&#45;&gt;Node4 -->
<g id="edge6" class="edge"><title>Node1&#45;&gt;Node4</title>
<path fill="none" stroke="midnightblue" d="M482.032,-43C490.688,-43 499.328,-43 507.566,-43"/>
<polygon fill="midnightblue" stroke="midnightblue" points="481.888,-39.5001 471.888,-43 481.888,-46.5001 481.888,-39.5001"/>
</g>
<!-- Node2 -->
<g id="node2" class="node"><title>Node2</title>
<a xlink:href="classant_1_1_exp_config_1_1_unpacker.html" target="_top" xlink:title="ant::ExpConfig::Unpacker\l\&lt; UnpackerA2GeantConfig \&gt;">
<polygon fill="white" stroke="black" points="146.5,-26 146.5,-60 289.5,-60 289.5,-26 146.5,-26"/>
<text text-anchor="start" x="154.5" y="-47" font-family="Helvetica,sans-Serif" font-size="10.00">ant::ExpConfig::Unpacker</text>
<text text-anchor="middle" x="218" y="-34" font-family="Helvetica,sans-Serif" font-size="10.00">&lt; UnpackerA2GeantConfig &gt;</text>
</a>
</g>
<!-- Node2&#45;&gt;Node1 -->
<g id="edge2" class="edge"><title>Node2&#45;&gt;Node1</title>
<path fill="none" stroke="midnightblue" d="M299.799,-43C308.602,-43 317.516,-43 326.203,-43"/>
<polygon fill="midnightblue" stroke="midnightblue" points="299.536,-39.5001 289.536,-43 299.536,-46.5001 299.536,-39.5001"/>
</g>
<!-- Node3 -->
<g id="node4" class="node"><title>Node3</title>
<a xlink:href="classant_1_1_exp_config_1_1_base.html" target="_top" xlink:title="ant::ExpConfig::Base">
<polygon fill="white" stroke="black" points="0,-32.5 0,-53.5 110,-53.5 110,-32.5 0,-32.5"/>
<text text-anchor="middle" x="55" y="-40.5" font-family="Helvetica,sans-Serif" font-size="10.00">ant::ExpConfig::Base</text>
</a>
</g>
<!-- Node3&#45;&gt;Node2 -->
<g id="edge4" class="edge"><title>Node3&#45;&gt;Node2</title>
<path fill="none" stroke="midnightblue" d="M120.45,-43C128.988,-43 137.77,-43 146.402,-43"/>
<polygon fill="midnightblue" stroke="midnightblue" points="120.184,-39.5001 110.184,-43 120.184,-46.5001 120.184,-39.5001"/>
</g>
<!-- Node5 -->
<g id="node9" class="node"><title>Node5</title>
<a xlink:href="classant_1_1expconfig_1_1setup_1_1_setup__2014___e_p_t.html" target="_top" xlink:title="ant::expconfig::setup\l::Setup_2014_EPT">
<polygon fill="white" stroke="black" points="656,-52 656,-86 764,-86 764,-52 656,-52"/>
<text text-anchor="start" x="664" y="-73" font-family="Helvetica,sans-Serif" font-size="10.00">ant::expconfig::setup</text>
<text text-anchor="middle" x="710" y="-60" font-family="Helvetica,sans-Serif" font-size="10.00">::Setup_2014_EPT</text>
</a>
</g>
<!-- Node4&#45;&gt;Node5 -->
<g id="edge8" class="edge"><title>Node4&#45;&gt;Node5</title>
<path fill="none" stroke="midnightblue" d="M628.152,-54.5235C637.456,-56.1691 646.941,-57.8467 656,-59.4489"/>
<polygon fill="midnightblue" stroke="midnightblue" points="628.612,-51.0507 618.156,-52.7554 627.393,-57.9437 628.612,-51.0507"/>
</g>
<!-- Node9 -->
<g id="node17" class="node"><title>Node9</title>
<a xlink:href="classant_1_1expconfig_1_1setup_1_1_setup__2015__dummy.html" target="_top" xlink:title="ant::expconfig::setup\l::Setup_2015_dummy">
<polygon fill="white" stroke="black" points="654,-0 654,-34 766,-34 766,-0 654,-0"/>
<text text-anchor="start" x="662" y="-21" font-family="Helvetica,sans-Serif" font-size="10.00">ant::expconfig::setup</text>
<text text-anchor="middle" x="710" y="-8" font-family="Helvetica,sans-Serif" font-size="10.00">::Setup_2015_dummy</text>
</a>
</g>
<!-- Node4&#45;&gt;Node9 -->
<g id="edge16" class="edge"><title>Node4&#45;&gt;Node9</title>
<path fill="none" stroke="midnightblue" d="M628.042,-31.4959C636.548,-29.9915 645.207,-28.46 653.555,-26.9834"/>
<polygon fill="midnightblue" stroke="midnightblue" points="627.393,-28.0563 618.156,-33.2446 628.612,-34.9493 627.393,-28.0563"/>
</g>
<!-- Node6 -->
<g id="node11" class="node"><title>Node6</title>
<a xlink:href="classant_1_1expconfig_1_1setup_1_1_setup__2014__07___e_p_t___prod.html" target="_top" xlink:title="ant::expconfig::setup\l::Setup_2014_07_EPT_Prod">
<polygon fill="white" stroke="black" points="802,-104 802,-138 942,-138 942,-104 802,-104"/>
<text text-anchor="start" x="810" y="-125" font-family="Helvetica,sans-Serif" font-size="10.00">ant::expconfig::setup</text>
<text text-anchor="middle" x="872" y="-112" font-family="Helvetica,sans-Serif" font-size="10.00">::Setup_2014_07_EPT_Prod</text>
</a>
</g>
<!-- Node5&#45;&gt;Node6 -->
<g id="edge10" class="edge"><title>Node5&#45;&gt;Node6</title>
<path fill="none" stroke="midnightblue" d="M772.872,-89.1812C788.06,-94.0562 804.143,-99.2189 818.836,-103.935"/>
<polygon fill="midnightblue" stroke="midnightblue" points="773.636,-85.7506 763.045,-86.0267 771.497,-92.4156 773.636,-85.7506"/>
</g>
<!-- Node7 -->
<g id="node13" class="node"><title>Node7</title>
<a xlink:href="classant_1_1expconfig_1_1setup_1_1_setup__2014__10___e_p_t___prod.html" target="_top" xlink:title="ant::expconfig::setup\l::Setup_2014_10_EPT_Prod">
<polygon fill="white" stroke="black" points="802,-52 802,-86 942,-86 942,-52 802,-52"/>
<text text-anchor="start" x="810" y="-73" font-family="Helvetica,sans-Serif" font-size="10.00">ant::expconfig::setup</text>
<text text-anchor="middle" x="872" y="-60" font-family="Helvetica,sans-Serif" font-size="10.00">::Setup_2014_10_EPT_Prod</text>
</a>
</g>
<!-- Node5&#45;&gt;Node7 -->
<g id="edge12" class="edge"><title>Node5&#45;&gt;Node7</title>
<path fill="none" stroke="midnightblue" d="M774.445,-69C783.477,-69 792.796,-69 801.926,-69"/>
<polygon fill="midnightblue" stroke="midnightblue" points="774.394,-65.5001 764.394,-69 774.394,-72.5001 774.394,-65.5001"/>
</g>
<!-- Node8 -->
<g id="node15" class="node"><title>Node8</title>
<a xlink:href="classant_1_1expconfig_1_1setup_1_1_setup__2014__12___e_p_t___prod.html" target="_top" xlink:title="ant::expconfig::setup\l::Setup_2014_12_EPT_Prod">
<polygon fill="white" stroke="black" points="802,-0 802,-34 942,-34 942,-0 802,-0"/>
<text text-anchor="start" x="810" y="-21" font-family="Helvetica,sans-Serif" font-size="10.00">ant::expconfig::setup</text>
<text text-anchor="middle" x="872" y="-8" font-family="Helvetica,sans-Serif" font-size="10.00">::Setup_2014_12_EPT_Prod</text>
</a>
</g>
<!-- Node5&#45;&gt;Node8 -->
<g id="edge14" class="edge"><title>Node5&#45;&gt;Node8</title>
<path fill="none" stroke="midnightblue" d="M772.872,-48.8188C788.06,-43.9438 804.143,-38.7811 818.836,-34.065"/>
<polygon fill="midnightblue" stroke="midnightblue" points="771.497,-45.5844 763.045,-51.9733 773.636,-52.2494 771.497,-45.5844"/>
</g>
</g>
</svg>
