<?xml version="1.0" encoding="UTF-8" standalone="no"?>
<!DOCTYPE svg PUBLIC "-//W3C//DTD SVG 1.1//EN"
 "http://www.w3.org/Graphics/SVG/1.1/DTD/svg11.dtd">
<!-- Generated by graphviz version 2.26.3 (20100126.1600)
 -->
<!-- Title: ant::analysis::input::BaseInputModule Pages: 1 -->
<svg width="244pt" height="250pt"
 viewBox="0.00 0.00 244.00 250.00" xmlns="http://www.w3.org/2000/svg" xmlns:xlink="http://www.w3.org/1999/xlink">
<g id="graph1" class="graph" transform="scale(1 1) rotate(0) translate(4 246)">
<title>ant::analysis::input::BaseInputModule</title>
<polygon fill="white" stroke="white" points="-4,5 -4,-246 241,-246 241,5 -4,5"/>
<!-- Node1 -->
<g id="node1" class="node"><title>Node1</title>
<polygon fill="#bfbfbf" stroke="black" points="0.5,-104 0.5,-138 99.5,-138 99.5,-104 0.5,-104"/>
<text text-anchor="start" x="8.5" y="-125" font-family="Helvetica,sans-Serif" font-size="10.00">ant::analysis::input</text>
<text text-anchor="middle" x="50" y="-112" font-family="Helvetica,sans-Serif" font-size="10.00">::BaseInputModule</text>
</g>
<!-- Node2 -->
<g id="node3" class="node"><title>Node2</title>
<a xlink:href="classant_1_1analysis_1_1input_1_1_detector_hit_input.html" target="_top" xlink:title="ant::analysis::input\l::DetectorHitInput">
<polygon fill="white" stroke="black" points="136.5,-208 136.5,-242 235.5,-242 235.5,-208 136.5,-208"/>
<text text-anchor="start" x="144.5" y="-229" font-family="Helvetica,sans-Serif" font-size="10.00">ant::analysis::input</text>
<text text-anchor="middle" x="186" y="-216" font-family="Helvetica,sans-Serif" font-size="10.00">::DetectorHitInput</text>
</a>
</g>
<!-- Node1&#45;&gt;Node2 -->
<g id="edge2" class="edge"><title>Node1&#45;&gt;Node2</title>
<path fill="none" stroke="midnightblue" d="M73.4617,-145.352C90.0023,-161.721 113.189,-183.122 136,-199 140.497,-202.13 145.419,-205.135 150.365,-207.92"/>
<polygon fill="midnightblue" stroke="midnightblue" points="75.8937,-142.834 66.3548,-138.223 70.9363,-147.776 75.8937,-142.834"/>
</g>
<!-- Node3 -->
<g id="node5" class="node"><title>Node3</title>
<a xlink:href="classant_1_1analysis_1_1input_1_1_particle_input.html" target="_top" xlink:title="ant::analysis::input\l::ParticleInput">
<polygon fill="white" stroke="black" points="136.5,-156 136.5,-190 235.5,-190 235.5,-156 136.5,-156"/>
<text text-anchor="start" x="144.5" y="-177" font-family="Helvetica,sans-Serif" font-size="10.00">ant::analysis::input</text>
<text text-anchor="middle" x="186" y="-164" font-family="Helvetica,sans-Serif" font-size="10.00">::ParticleInput</text>
</a>
</g>
<!-- Node1&#45;&gt;Node3 -->
<g id="edge4" class="edge"><title>Node1&#45;&gt;Node3</title>
<path fill="none" stroke="midnightblue" d="M103.876,-141.6C116.302,-146.351 129.386,-151.354 141.368,-155.935"/>
<polygon fill="midnightblue" stroke="midnightblue" points="105.122,-138.329 94.5315,-138.027 102.622,-144.867 105.122,-138.329"/>
</g>
<!-- Node4 -->
<g id="node7" class="node"><title>Node4</title>
<a xlink:href="classant_1_1analysis_1_1input_1_1_tagger_input.html" target="_top" xlink:title="ant::analysis::input\l::TaggerInput">
<polygon fill="white" stroke="black" points="136.5,-104 136.5,-138 235.5,-138 235.5,-104 136.5,-104"/>
<text text-anchor="start" x="144.5" y="-125" font-family="Helvetica,sans-Serif" font-size="10.00">ant::analysis::input</text>
<text text-anchor="middle" x="186" y="-112" font-family="Helvetica,sans-Serif" font-size="10.00">::TaggerInput</text>
</a>
</g>
<!-- Node1&#45;&gt;Node4 -->
<g id="edge6" class="edge"><title>Node1&#45;&gt;Node4</title>
<path fill="none" stroke="midnightblue" d="M110,-121C118.729,-121 127.637,-121 136.137,-121"/>
<polygon fill="midnightblue" stroke="midnightblue" points="109.869,-117.5 99.8691,-121 109.869,-124.5 109.869,-117.5"/>
</g>
<!-- Node5 -->
<g id="node9" class="node"><title>Node5</title>
<a xlink:href="classant_1_1analysis_1_1input_1_1_track_input.html" target="_top" xlink:title="ant::analysis::input\l::TrackInput">
<polygon fill="white" stroke="black" points="136.5,-52 136.5,-86 235.5,-86 235.5,-52 136.5,-52"/>
<text text-anchor="start" x="144.5" y="-73" font-family="Helvetica,sans-Serif" font-size="10.00">ant::analysis::input</text>
<text text-anchor="middle" x="186" y="-60" font-family="Helvetica,sans-Serif" font-size="10.00">::TrackInput</text>
</a>
</g>
<!-- Node1&#45;&gt;Node5 -->
<g id="edge8" class="edge"><title>Node1&#45;&gt;Node5</title>
<path fill="none" stroke="midnightblue" d="M103.876,-100.4C116.302,-95.6492 129.386,-90.6464 141.368,-86.065"/>
<polygon fill="midnightblue" stroke="midnightblue" points="102.622,-97.1326 94.5315,-103.973 105.122,-103.671 102.622,-97.1326"/>
</g>
<!-- Node6 -->
<g id="node11" class="node"><title>Node6</title>
<a xlink:href="classant_1_1analysis_1_1input_1_1_trigger_input.html" target="_top" xlink:title="ant::analysis::input\l::TriggerInput">
<polygon fill="white" stroke="black" points="136.5,-0 136.5,-34 235.5,-34 235.5,-0 136.5,-0"/>
<text text-anchor="start" x="144.5" y="-21" font-family="Helvetica,sans-Serif" font-size="10.00">ant::analysis::input</text>
<text text-anchor="middle" x="186" y="-8" font-family="Helvetica,sans-Serif" font-size="10.00">::TriggerInput</text>
</a>
</g>
<!-- Node1&#45;&gt;Node6 -->
<g id="edge10" class="edge"><title>Node1&#45;&gt;Node6</title>
<path fill="none" stroke="midnightblue" d="M73.4617,-96.6484C90.0023,-80.2795 113.189,-58.878 136,-43 140.497,-39.8698 145.419,-36.865 150.365,-34.0804"/>
<polygon fill="midnightblue" stroke="midnightblue" points="70.9363,-94.2241 66.3548,-103.777 75.8937,-99.1662 70.9363,-94.2241"/>
</g>
</g>
</svg>
