<?xml version="1.0" encoding="UTF-8" standalone="no"?>
<!DOCTYPE svg PUBLIC "-//W3C//DTD SVG 1.1//EN"
 "http://www.w3.org/Graphics/SVG/1.1/DTD/svg11.dtd">
<!-- Generated by graphviz version 2.26.3 (20100126.1600)
 -->
<!-- Title: ant::analysis::physics::MCTrueAcceptance Pages: 1 -->
<svg width="776pt" height="205pt"
 viewBox="0.00 0.00 776.00 205.00" xmlns="http://www.w3.org/2000/svg" xmlns:xlink="http://www.w3.org/1999/xlink">
<g id="graph1" class="graph" transform="scale(1 1) rotate(0) translate(4 201)">
<title>ant::analysis::physics::MCTrueAcceptance</title>
<polygon fill="white" stroke="white" points="-4,5 -4,-201 773,-201 773,5 -4,5"/>
<!-- Node1 -->
<g id="node1" class="node"><title>Node1</title>
<polygon fill="#bfbfbf" stroke="black" points="656,-101 656,-135 768,-135 768,-101 656,-101"/>
<text text-anchor="start" x="664" y="-122" font-family="Helvetica,sans-Serif" font-size="10.00">ant::analysis::physics</text>
<text text-anchor="middle" x="712" y="-109" font-family="Helvetica,sans-Serif" font-size="10.00">::MCTrueAcceptance</text>
</g>
<!-- Node2 -->
<g id="node2" class="node"><title>Node2</title>
<a xlink:href="classant_1_1analysis_1_1_physics.html" target="_top" xlink:title="ant::analysis::Physics">
<polygon fill="white" stroke="black" points="467.5,-161.5 467.5,-182.5 580.5,-182.5 580.5,-161.5 467.5,-161.5"/>
<text text-anchor="middle" x="524" y="-169.5" font-family="Helvetica,sans-Serif" font-size="10.00">ant::analysis::Physics</text>
</a>
</g>
<!-- Node2&#45;&gt;Node1 -->
<g id="edge2" class="edge"><title>Node2&#45;&gt;Node1</title>
<path fill="none" stroke="midnightblue" d="M570.594,-158.617C596.374,-151.212 628.599,-141.956 655.772,-134.151"/>
<polygon fill="midnightblue" stroke="midnightblue" points="569.34,-155.335 560.695,-161.46 571.272,-162.063 569.34,-155.335"/>
</g>
<!-- Node3 -->
<g id="node4" class="node"><title>Node3</title>
<a xlink:href="classant_1_1analysis_1_1_smart_hist_factory.html" target="_top" xlink:title="ant::analysis::SmartHist\lFactory">
<polygon fill="white" stroke="black" points="218,-163 218,-197 340,-197 340,-163 218,-163"/>
<text text-anchor="start" x="226" y="-184" font-family="Helvetica,sans-Serif" font-size="10.00">ant::analysis::SmartHist</text>
<text text-anchor="middle" x="279" y="-171" font-family="Helvetica,sans-Serif" font-size="10.00">Factory</text>
</a>
</g>
<!-- Node3&#45;&gt;Node2 -->
<g id="edge4" class="edge"><title>Node3&#45;&gt;Node2</title>
<path fill="none" stroke="#9a32cd" stroke-dasharray="5,2" d="M350.473,-177.666C387.696,-176.451 432.573,-174.985 467.363,-173.849"/>
<polygon fill="#9a32cd" stroke="#9a32cd" points="350.072,-174.177 340.192,-178.002 350.301,-181.174 350.072,-174.177"/>
<text text-anchor="middle" x="407" y="-180" font-family="Helvetica,sans-Serif" font-size="10.00"> HistFac</text>
</g>
<!-- Node4 -->
<g id="node6" class="node"><title>Node4</title>
<a xlink:href="classant_1_1analysis_1_1utils_1_1_a2_simple_geometry.html" target="_top" xlink:title="ant::analysis::utils\l::A2SimpleGeometry">
<polygon fill="white" stroke="black" points="470.5,-101 470.5,-135 577.5,-135 577.5,-101 470.5,-101"/>
<text text-anchor="start" x="478.5" y="-122" font-family="Helvetica,sans-Serif" font-size="10.00">ant::analysis::utils</text>
<text text-anchor="middle" x="524" y="-109" font-family="Helvetica,sans-Serif" font-size="10.00">::A2SimpleGeometry</text>
</a>
</g>
<!-- Node4&#45;&gt;Node1 -->
<g id="edge6" class="edge"><title>Node4&#45;&gt;Node1</title>
<path fill="none" stroke="#9a32cd" stroke-dasharray="5,2" d="M587.867,-118C609.868,-118 634.331,-118 655.685,-118"/>
<polygon fill="#9a32cd" stroke="#9a32cd" points="587.622,-114.5 577.622,-118 587.622,-121.5 587.622,-114.5"/>
<text text-anchor="middle" x="622" y="-122" font-family="Helvetica,sans-Serif" font-size="10.00"> geo</text>
</g>
<!-- Node5 -->
<g id="node8" class="node"><title>Node5</title>
<a xlink:href="classant_1_1interval.html" target="_top" xlink:title="ant::interval\&lt; double \&gt;">
<polygon fill="white" stroke="black" points="222,-107.5 222,-128.5 336,-128.5 336,-107.5 222,-107.5"/>
<text text-anchor="middle" x="279" y="-115.5" font-family="Helvetica,sans-Serif" font-size="10.00">ant::interval&lt; double &gt;</text>
</a>
</g>
<!-- Node5&#45;&gt;Node4 -->
<g id="edge8" class="edge"><title>Node5&#45;&gt;Node4</title>
<path fill="none" stroke="#9a32cd" stroke-dasharray="5,2" d="M346.34,-118C385.316,-118 433.708,-118 470.14,-118"/>
<polygon fill="#9a32cd" stroke="#9a32cd" points="346.132,-114.5 336.132,-118 346.132,-121.5 346.132,-114.5"/>
<text text-anchor="middle" x="407" y="-148" font-family="Helvetica,sans-Serif" font-size="10.00"> cb_phi_hem1</text>
<text text-anchor="middle" x="407" y="-135" font-family="Helvetica,sans-Serif" font-size="10.00">cb_theta_region</text>
<text text-anchor="middle" x="407" y="-122" font-family="Helvetica,sans-Serif" font-size="10.00">taps_region</text>
</g>
<!-- Node6 -->
<g id="node10" class="node"><title>Node6</title>
<a xlink:href="classant_1_1printable__traits.html" target="_top" xlink:title="ant::printable_traits">
<polygon fill="white" stroke="black" points="26,-107.5 26,-128.5 126,-128.5 126,-107.5 26,-107.5"/>
<text text-anchor="middle" x="76" y="-115.5" font-family="Helvetica,sans-Serif" font-size="10.00">ant::printable_traits</text>
</a>
</g>
<!-- Node6&#45;&gt;Node5 -->
<g id="edge10" class="edge"><title>Node6&#45;&gt;Node5</title>
<path fill="none" stroke="midnightblue" d="M136.307,-118C163.386,-118 195.176,-118 221.869,-118"/>
<polygon fill="midnightblue" stroke="midnightblue" points="136.18,-114.5 126.18,-118 136.18,-121.5 136.18,-114.5"/>
</g>
<!-- Node7 -->
<g id="node12" class="node"><title>Node7</title>
<a xlink:href="classant_1_1analysis_1_1_smart_hist1.html" target="_top" xlink:title="ant::analysis::SmartHist1\l\&lt; std::string \&gt;">
<polygon fill="white" stroke="black" points="460,-49 460,-83 588,-83 588,-49 460,-49"/>
<text text-anchor="start" x="468" y="-70" font-family="Helvetica,sans-Serif" font-size="10.00">ant::analysis::SmartHist1</text>
<text text-anchor="middle" x="524" y="-57" font-family="Helvetica,sans-Serif" font-size="10.00">&lt; std::string &gt;</text>
</a>
</g>
<!-- Node7&#45;&gt;Node1 -->
<g id="edge12" class="edge"><title>Node7&#45;&gt;Node1</title>
<path fill="none" stroke="#9a32cd" stroke-dasharray="5,2" d="M595.243,-85.7054C615.244,-91.2378 636.709,-97.1748 655.709,-102.43"/>
<polygon fill="#9a32cd" stroke="#9a32cd" points="596.129,-82.3193 585.558,-83.0267 594.263,-89.066 596.129,-82.3193"/>
<text text-anchor="middle" x="622" y="-100" font-family="Helvetica,sans-Serif" font-size="10.00"> detect</text>
</g>
<!-- Node8 -->
<g id="node14" class="node"><title>Node8</title>
<a xlink:href="classant_1_1analysis_1_1_smart_hist1_base.html" target="_top" xlink:title="ant::analysis::SmartHist1Base">
<polygon fill="white" stroke="black" points="204,-57.5 204,-78.5 354,-78.5 354,-57.5 204,-57.5"/>
<text text-anchor="middle" x="279" y="-65.5" font-family="Helvetica,sans-Serif" font-size="10.00">ant::analysis::SmartHist1Base</text>
</a>
</g>
<!-- Node8&#45;&gt;Node7 -->
<g id="edge14" class="edge"><title>Node8&#45;&gt;Node7</title>
<path fill="none" stroke="midnightblue" d="M364.214,-67.3044C395.565,-67.0485 430.518,-66.7631 459.719,-66.5247"/>
<polygon fill="midnightblue" stroke="midnightblue" points="364.144,-63.8047 354.173,-67.3863 364.201,-70.8045 364.144,-63.8047"/>
</g>
<!-- Node9 -->
<g id="node16" class="node"><title>Node9</title>
<a xlink:href="classant_1_1root__drawable__traits.html" target="_top" xlink:title="ant::root_drawable\l_traits">
<polygon fill="white" stroke="black" points="27.5,-52 27.5,-86 124.5,-86 124.5,-52 27.5,-52"/>
<text text-anchor="start" x="35.5" y="-73" font-family="Helvetica,sans-Serif" font-size="10.00">ant::root_drawable</text>
<text text-anchor="middle" x="76" y="-60" font-family="Helvetica,sans-Serif" font-size="10.00">_traits</text>
</a>
</g>
<!-- Node9&#45;&gt;Node8 -->
<g id="edge16" class="edge"><title>Node9&#45;&gt;Node8</title>
<path fill="none" stroke="midnightblue" d="M134.914,-68.7098C156.431,-68.6038 181.066,-68.4824 203.809,-68.3704"/>
<polygon fill="midnightblue" stroke="midnightblue" points="134.606,-65.2112 124.624,-68.7605 134.641,-72.2111 134.606,-65.2112"/>
</g>
<!-- Node10 -->
<g id="node18" class="node"><title>Node10</title>
<polygon fill="white" stroke="#bfbfbf" points="216.5,-3 216.5,-37 341.5,-37 341.5,-3 216.5,-3"/>
<text text-anchor="start" x="224.5" y="-24" font-family="Helvetica,sans-Serif" font-size="10.00">std::unique_ptr&lt; BaseFill</text>
<text text-anchor="middle" x="279" y="-11" font-family="Helvetica,sans-Serif" font-size="10.00">Function&lt; std::string &gt; &gt;</text>
</g>
<!-- Node10&#45;&gt;Node7 -->
<g id="edge18" class="edge"><title>Node10&#45;&gt;Node7</title>
<path fill="none" stroke="#9a32cd" stroke-dasharray="5,2" d="M351.944,-32.5229C380.115,-37.4784 412.589,-43.3362 442,-49 447.711,-50.0997 453.639,-51.2708 459.577,-52.4641"/>
<polygon fill="#9a32cd" stroke="#9a32cd" points="352.228,-29.0193 341.773,-30.7401 351.019,-35.9142 352.228,-29.0193"/>
<text text-anchor="middle" x="407" y="-53" font-family="Helvetica,sans-Serif" font-size="10.00"> fillfunction</text>
</g>
<!-- Node11 -->
<g id="node20" class="node"><title>Node11</title>
<a xlink:href="classant_1_1analysis_1_1_base_fill_function.html" target="_top" xlink:title="ant::analysis::BaseFillFunction\l\&lt; std::string \&gt;">
<polygon fill="white" stroke="black" points="0.5,-0 0.5,-34 151.5,-34 151.5,-0 0.5,-0"/>
<text text-anchor="start" x="8.5" y="-21" font-family="Helvetica,sans-Serif" font-size="10.00">ant::analysis::BaseFillFunction</text>
<text text-anchor="middle" x="76" y="-8" font-family="Helvetica,sans-Serif" font-size="10.00">&lt; std::string &gt;</text>
</a>
</g>
<!-- Node11&#45;&gt;Node10 -->
<g id="edge20" class="edge"><title>Node11&#45;&gt;Node10</title>
<path fill="none" stroke="#9a32cd" stroke-dasharray="5,2" d="M161.68,-18.2662C180.002,-18.537 199.03,-18.8182 216.294,-19.0733"/>
<polygon fill="#9a32cd" stroke="#9a32cd" points="161.64,-14.7653 151.59,-18.1171 161.537,-21.7646 161.64,-14.7653"/>
<text text-anchor="middle" x="178" y="-22" font-family="Helvetica,sans-Serif" font-size="10.00"> ptr</text>
</g>
</g>
</svg>
