<?xml version="1.0" encoding="UTF-8" standalone="no"?>
<!DOCTYPE svg PUBLIC "-//W3C//DTD SVG 1.1//EN"
 "http://www.w3.org/Graphics/SVG/1.1/DTD/svg11.dtd">
<!-- Generated by graphviz version 2.26.3 (20100126.1600)
 -->
<!-- Title: ant::printable_traits Pages: 1 -->
<svg width="812pt" height="1386pt"
 viewBox="0.00 0.00 812.00 1386.00" xmlns="http://www.w3.org/2000/svg" xmlns:xlink="http://www.w3.org/1999/xlink">
<g id="graph1" class="graph" transform="scale(1 1) rotate(0) translate(4 1382)">
<title>ant::printable_traits</title>
<polygon fill="white" stroke="white" points="-4,5 -4,-1382 809,-1382 809,5 -4,5"/>
<!-- Node1 -->
<g id="node1" class="node"><title>Node1</title>
<polygon fill="#bfbfbf" stroke="black" points="0,-660.5 0,-681.5 100,-681.5 100,-660.5 0,-660.5"/>
<text text-anchor="middle" x="50" y="-668.5" font-family="Helvetica,sans-Serif" font-size="10.00">ant::printable_traits</text>
</g>
<!-- Node2 -->
<g id="node3" class="node"><title>Node2</title>
<a xlink:href="classant_1_1analysis_1_1data_1_1_candidate.html" target="_top" xlink:title="The Track class Representation of GoAT information, with emphasis on physical particle information...">
<polygon fill="white" stroke="black" points="162.5,-1344 162.5,-1378 259.5,-1378 259.5,-1344 162.5,-1344"/>
<text text-anchor="start" x="170.5" y="-1365" font-family="Helvetica,sans-Serif" font-size="10.00">ant::analysis::data</text>
<text text-anchor="middle" x="211" y="-1352" font-family="Helvetica,sans-Serif" font-size="10.00">::Candidate</text>
</a>
</g>
<!-- Node1&#45;&gt;Node2 -->
<g id="edge2" class="edge"><title>Node1&#45;&gt;Node2</title>
<path fill="none" stroke="midnightblue" d="M51.3893,-691.663C58.7295,-798.33 94.2407,-1283.67 136,-1335 142.784,-1343.34 152.396,-1349.01 162.484,-1352.86"/>
<polygon fill="midnightblue" stroke="midnightblue" points="54.8721,-691.29 50.7002,-681.551 47.8883,-691.766 54.8721,-691.29"/>
</g>
<!-- Node3 -->
<g id="node5" class="node"><title>Node3</title>
<a xlink:href="classant_1_1analysis_1_1data_1_1_d_a_q_error.html" target="_top" xlink:title="ant::analysis::data\l::DAQError">
<polygon fill="white" stroke="black" points="162.5,-1292 162.5,-1326 259.5,-1326 259.5,-1292 162.5,-1292"/>
<text text-anchor="start" x="170.5" y="-1313" font-family="Helvetica,sans-Serif" font-size="10.00">ant::analysis::data</text>
<text text-anchor="middle" x="211" y="-1300" font-family="Helvetica,sans-Serif" font-size="10.00">::DAQError</text>
</a>
</g>
<!-- Node1&#45;&gt;Node3 -->
<g id="edge4" class="edge"><title>Node1&#45;&gt;Node3</title>
<path fill="none" stroke="midnightblue" d="M51.6492,-691.936C59.8566,-793.969 97.442,-1236.12 136,-1283 142.741,-1291.2 152.212,-1296.81 162.161,-1300.66"/>
<polygon fill="midnightblue" stroke="midnightblue" points="55.1166,-691.386 50.8328,-681.696 48.1387,-691.943 55.1166,-691.386"/>
</g>
<!-- Node4 -->
<g id="node7" class="node"><title>Node4</title>
<a xlink:href="classant_1_1analysis_1_1data_1_1_event.html" target="_top" xlink:title="ant::analysis::data\l::Event">
<polygon fill="white" stroke="black" points="162.5,-1240 162.5,-1274 259.5,-1274 259.5,-1240 162.5,-1240"/>
<text text-anchor="start" x="170.5" y="-1261" font-family="Helvetica,sans-Serif" font-size="10.00">ant::analysis::data</text>
<text text-anchor="middle" x="211" y="-1248" font-family="Helvetica,sans-Serif" font-size="10.00">::Event</text>
</a>
</g>
<!-- Node1&#45;&gt;Node4 -->
<g id="edge6" class="edge"><title>Node1&#45;&gt;Node4</title>
<path fill="none" stroke="midnightblue" d="M50.4055,-691.771C52.5894,-782.906 65.6491,-1146.58 136,-1231 142.793,-1239.15 152.285,-1244.75 162.238,-1248.6"/>
<polygon fill="midnightblue" stroke="midnightblue" points="53.9013,-691.537 50.1814,-681.617 46.903,-691.692 53.9013,-691.537"/>
</g>
<!-- Node5 -->
<g id="node9" class="node"><title>Node5</title>
<a xlink:href="classant_1_1analysis_1_1data_1_1_event_1_1_data.html" target="_top" xlink:title="ant::analysis::data\l::Event::Data">
<polygon fill="white" stroke="black" points="162.5,-1188 162.5,-1222 259.5,-1222 259.5,-1188 162.5,-1188"/>
<text text-anchor="start" x="170.5" y="-1209" font-family="Helvetica,sans-Serif" font-size="10.00">ant::analysis::data</text>
<text text-anchor="middle" x="211" y="-1196" font-family="Helvetica,sans-Serif" font-size="10.00">::Event::Data</text>
</a>
</g>
<!-- Node1&#45;&gt;Node5 -->
<g id="edge8" class="edge"><title>Node1&#45;&gt;Node5</title>
<path fill="none" stroke="midnightblue" d="M50.7751,-692.01C54.3591,-778.16 71.9838,-1103.37 136,-1179 142.855,-1187.1 152.372,-1192.68 162.329,-1196.52"/>
<polygon fill="midnightblue" stroke="midnightblue" points="54.2676,-691.75 50.3743,-681.896 47.2731,-692.027 54.2676,-691.75"/>
</g>
<!-- Node6 -->
<g id="node11" class="node"><title>Node6</title>
<a xlink:href="classant_1_1analysis_1_1data_1_1_event_1_1_data_1_1_p_type_lists.html" target="_top" xlink:title="ant::analysis::data\l::Event::Data::PTypeLists">
<polygon fill="white" stroke="black" points="145.5,-1136 145.5,-1170 276.5,-1170 276.5,-1136 145.5,-1136"/>
<text text-anchor="start" x="153.5" y="-1157" font-family="Helvetica,sans-Serif" font-size="10.00">ant::analysis::data</text>
<text text-anchor="middle" x="211" y="-1144" font-family="Helvetica,sans-Serif" font-size="10.00">::Event::Data::PTypeLists</text>
</a>
</g>
<!-- Node1&#45;&gt;Node6 -->
<g id="edge10" class="edge"><title>Node1&#45;&gt;Node6</title>
<path fill="none" stroke="midnightblue" d="M51.2108,-691.868C56.2682,-772.158 78.1981,-1059.99 136,-1127 138.88,-1130.34 142.213,-1133.25 145.839,-1135.79"/>
<polygon fill="midnightblue" stroke="midnightblue" points="54.6857,-691.348 50.5847,-681.579 47.6986,-691.773 54.6857,-691.348"/>
</g>
<!-- Node7 -->
<g id="node13" class="node"><title>Node7</title>
<a xlink:href="classant_1_1analysis_1_1data_1_1_particle.html" target="_top" xlink:title="Base particle class. ">
<polygon fill="white" stroke="black" points="162.5,-1084 162.5,-1118 259.5,-1118 259.5,-1084 162.5,-1084"/>
<text text-anchor="start" x="170.5" y="-1105" font-family="Helvetica,sans-Serif" font-size="10.00">ant::analysis::data</text>
<text text-anchor="middle" x="211" y="-1092" font-family="Helvetica,sans-Serif" font-size="10.00">::Particle</text>
</a>
</g>
<!-- Node1&#45;&gt;Node7 -->
<g id="edge12" class="edge"><title>Node1&#45;&gt;Node7</title>
<path fill="none" stroke="midnightblue" d="M51.762,-691.859C58.4327,-766.159 84.4151,-1016.59 136,-1075 142.933,-1082.85 152.36,-1088.33 162.188,-1092.16"/>
<polygon fill="midnightblue" stroke="midnightblue" points="55.2454,-691.515 50.8865,-681.858 48.2721,-692.126 55.2454,-691.515"/>
</g>
<!-- Node8 -->
<g id="node15" class="node"><title>Node8</title>
<a xlink:href="classant_1_1analysis_1_1data_1_1_tagger_hit.html" target="_top" xlink:title="ant::analysis::data\l::TaggerHit">
<polygon fill="white" stroke="black" points="162.5,-1032 162.5,-1066 259.5,-1066 259.5,-1032 162.5,-1032"/>
<text text-anchor="start" x="170.5" y="-1053" font-family="Helvetica,sans-Serif" font-size="10.00">ant::analysis::data</text>
<text text-anchor="middle" x="211" y="-1040" font-family="Helvetica,sans-Serif" font-size="10.00">::TaggerHit</text>
</a>
</g>
<!-- Node1&#45;&gt;Node8 -->
<g id="edge14" class="edge"><title>Node1&#45;&gt;Node8</title>
<path fill="none" stroke="midnightblue" d="M52.513,-692.187C61.0065,-760.466 90.6699,-973.191 136,-1023 143.05,-1030.75 152.523,-1036.18 162.361,-1040"/>
<polygon fill="midnightblue" stroke="midnightblue" points="55.9369,-691.349 51.2525,-681.846 48.9883,-692.196 55.9369,-691.349"/>
</g>
<!-- Node9 -->
<g id="node17" class="node"><title>Node9</title>
<a xlink:href="classant_1_1analysis_1_1data_1_1_trigger_info.html" target="_top" xlink:title="ant::analysis::data\l::TriggerInfo">
<polygon fill="white" stroke="black" points="162.5,-980 162.5,-1014 259.5,-1014 259.5,-980 162.5,-980"/>
<text text-anchor="start" x="170.5" y="-1001" font-family="Helvetica,sans-Serif" font-size="10.00">ant::analysis::data</text>
<text text-anchor="middle" x="211" y="-988" font-family="Helvetica,sans-Serif" font-size="10.00">::TriggerInfo</text>
</a>
</g>
<!-- Node1&#45;&gt;Node9 -->
<g id="edge16" class="edge"><title>Node1&#45;&gt;Node9</title>
<path fill="none" stroke="midnightblue" d="M53.3438,-691.404C63.6519,-752.027 96.6334,-929.426 136,-971 143.107,-978.505 152.486,-983.844 162.198,-987.642"/>
<polygon fill="midnightblue" stroke="midnightblue" points="56.7893,-690.788 51.6864,-681.503 49.8854,-691.943 56.7893,-690.788"/>
</g>
<!-- Node10 -->
<g id="node19" class="node"><title>Node10</title>
<a xlink:href="structant_1_1_detector__t.html" target="_top" xlink:title="The Detector_t struct is the minimal base class for all detectors. ">
<polygon fill="white" stroke="black" points="170,-940.5 170,-961.5 252,-961.5 252,-940.5 170,-940.5"/>
<text text-anchor="middle" x="211" y="-948.5" font-family="Helvetica,sans-Serif" font-size="10.00">ant::Detector_t</text>
</a>
</g>
<!-- Node1&#45;&gt;Node10 -->
<g id="edge18" class="edge"><title>Node1&#45;&gt;Node10</title>
<path fill="none" stroke="midnightblue" d="M54.1938,-691.663C65.837,-747.086 100.077,-897.13 136,-931 145.217,-939.69 157.777,-944.695 169.983,-947.549"/>
<polygon fill="midnightblue" stroke="midnightblue" points="57.5703,-690.708 52.116,-681.625 50.7156,-692.126 57.5703,-690.708"/>
</g>
<!-- Node29 -->
<g id="node57" class="node"><title>Node29</title>
<a xlink:href="structant_1_1_detector__t_1_1_any__t.html" target="_top" xlink:title="ant::Detector_t::Any_t">
<polygon fill="white" stroke="black" points="154.5,-900.5 154.5,-921.5 267.5,-921.5 267.5,-900.5 154.5,-900.5"/>
<text text-anchor="middle" x="211" y="-908.5" font-family="Helvetica,sans-Serif" font-size="10.00">ant::Detector_t::Any_t</text>
</a>
</g>
<!-- Node1&#45;&gt;Node29 -->
<g id="edge56" class="edge"><title>Node1&#45;&gt;Node29</title>
<path fill="none" stroke="midnightblue" d="M51.9374,-691.571C57.1622,-735.099 75.526,-836.949 136,-891 141.325,-895.76 147.66,-899.406 154.358,-902.195"/>
<polygon fill="midnightblue" stroke="midnightblue" points="55.4137,-691.163 50.8526,-681.6 48.4548,-691.92 55.4137,-691.163"/>
</g>
<!-- Node30 -->
<g id="node59" class="node"><title>Node30</title>
<a xlink:href="classant_1_1interval.html" target="_top" xlink:title="Interval class template. ">
<polygon fill="white" stroke="black" points="165,-860.5 165,-881.5 257,-881.5 257,-860.5 165,-860.5"/>
<text text-anchor="middle" x="211" y="-868.5" font-family="Helvetica,sans-Serif" font-size="10.00">ant::interval&lt; T &gt;</text>
</a>
</g>
<!-- Node1&#45;&gt;Node30 -->
<g id="edge58" class="edge"><title>Node1&#45;&gt;Node30</title>
<path fill="none" stroke="midnightblue" d="M53.9561,-691.67C62.2492,-729.235 85.0665,-808.719 136,-851 144.191,-857.8 154.469,-862.308 164.766,-865.29"/>
<polygon fill="midnightblue" stroke="midnightblue" points="57.3759,-690.924 51.9117,-681.847 50.5228,-692.35 57.3759,-690.924"/>
</g>
<!-- Node31 -->
<g id="node61" class="node"><title>Node31</title>
<a xlink:href="classant_1_1_piecewise_interval.html" target="_top" xlink:title="ant::PiecewiseInterval\&lt; T \&gt;">
<polygon fill="white" stroke="black" points="142.5,-820.5 142.5,-841.5 279.5,-841.5 279.5,-820.5 142.5,-820.5"/>
<text text-anchor="middle" x="211" y="-828.5" font-family="Helvetica,sans-Serif" font-size="10.00">ant::PiecewiseInterval&lt; T &gt;</text>
</a>
</g>
<!-- Node1&#45;&gt;Node31 -->
<g id="edge60" class="edge"><title>Node1&#45;&gt;Node31</title>
<path fill="none" stroke="midnightblue" d="M56.8757,-691.312C68.326,-722.002 94.2562,-779.902 136,-811 141.187,-814.864 147.066,-817.983 153.195,-820.499"/>
<polygon fill="midnightblue" stroke="midnightblue" points="60.0932,-689.914 53.4273,-681.679 53.5028,-692.274 60.0932,-689.914"/>
</g>
<!-- Node32 -->
<g id="node63" class="node"><title>Node32</title>
<a xlink:href="structant_1_1_t_calibration_data.html" target="_top" xlink:title="The TCalibrationData struct contains one calibration iteration. ">
<polygon fill="white" stroke="black" points="156,-780.5 156,-801.5 266,-801.5 266,-780.5 156,-780.5"/>
<text text-anchor="middle" x="211" y="-788.5" font-family="Helvetica,sans-Serif" font-size="10.00">ant::TCalibrationData</text>
</a>
</g>
<!-- Node1&#45;&gt;Node32 -->
<g id="edge62" class="edge"><title>Node1&#45;&gt;Node32</title>
<path fill="none" stroke="midnightblue" d="M61.4973,-690.367C76.0042,-713.107 103.079,-750.334 136,-771 142.049,-774.797 148.808,-777.879 155.724,-780.38"/>
<polygon fill="midnightblue" stroke="midnightblue" points="64.3089,-688.26 56.0691,-681.599 58.3572,-691.944 64.3089,-688.26"/>
</g>
<!-- Node33 -->
<g id="node65" class="node"><title>Node33</title>
<a xlink:href="structant_1_1_t_candidate.html" target="_top" xlink:title="ant::TCandidate">
<polygon fill="white" stroke="black" points="168,-740.5 168,-761.5 254,-761.5 254,-740.5 168,-740.5"/>
<text text-anchor="middle" x="211" y="-748.5" font-family="Helvetica,sans-Serif" font-size="10.00">ant::TCandidate</text>
</a>
</g>
<!-- Node1&#45;&gt;Node33 -->
<g id="edge64" class="edge"><title>Node1&#45;&gt;Node33</title>
<path fill="none" stroke="midnightblue" d="M70.1871,-688.15C86.8676,-701.536 111.676,-719.701 136,-731 145.899,-735.599 157.043,-739.29 167.652,-742.187"/>
<polygon fill="midnightblue" stroke="midnightblue" points="72.2042,-685.278 62.2509,-681.647 67.7676,-690.692 72.2042,-685.278"/>
</g>
<!-- Node34 -->
<g id="node67" class="node"><title>Node34</title>
<a xlink:href="structant_1_1_t_cluster.html" target="_top" xlink:title="ant::TCluster">
<polygon fill="white" stroke="black" points="174,-700.5 174,-721.5 248,-721.5 248,-700.5 174,-700.5"/>
<text text-anchor="middle" x="211" y="-708.5" font-family="Helvetica,sans-Serif" font-size="10.00">ant::TCluster</text>
</a>
</g>
<!-- Node1&#45;&gt;Node34 -->
<g id="edge66" class="edge"><title>Node1&#45;&gt;Node34</title>
<path fill="none" stroke="midnightblue" d="M102.084,-683.94C125.503,-689.759 152.603,-696.491 173.912,-701.786"/>
<polygon fill="midnightblue" stroke="midnightblue" points="102.85,-680.524 92.3009,-681.51 101.162,-687.318 102.85,-680.524"/>
</g>
<!-- Node35 -->
<g id="node69" class="node"><title>Node35</title>
<a xlink:href="structant_1_1_t_cluster_hit.html" target="_top" xlink:title="ant::TClusterHit">
<polygon fill="white" stroke="black" points="168,-660.5 168,-681.5 254,-681.5 254,-660.5 168,-660.5"/>
<text text-anchor="middle" x="211" y="-668.5" font-family="Helvetica,sans-Serif" font-size="10.00">ant::TClusterHit</text>
</a>
</g>
<!-- Node1&#45;&gt;Node35 -->
<g id="edge68" class="edge"><title>Node1&#45;&gt;Node35</title>
<path fill="none" stroke="midnightblue" d="M110.186,-671C129.315,-671 150.081,-671 167.767,-671"/>
<polygon fill="midnightblue" stroke="midnightblue" points="110.059,-667.5 100.059,-671 110.059,-674.5 110.059,-667.5"/>
</g>
<!-- Node36 -->
<g id="node71" class="node"><title>Node36</title>
<a xlink:href="structant_1_1_t_data_record.html" target="_top" xlink:title="ant::TDataRecord">
<polygon fill="white" stroke="black" points="163.5,-620.5 163.5,-641.5 258.5,-641.5 258.5,-620.5 163.5,-620.5"/>
<text text-anchor="middle" x="211" y="-628.5" font-family="Helvetica,sans-Serif" font-size="10.00">ant::TDataRecord</text>
</a>
</g>
<!-- Node1&#45;&gt;Node36 -->
<g id="edge70" class="edge"><title>Node1&#45;&gt;Node36</title>
<path fill="none" stroke="midnightblue" d="M102.259,-658.016C123.766,-652.673 148.354,-646.564 168.702,-641.509"/>
<polygon fill="midnightblue" stroke="midnightblue" points="101.162,-654.682 92.3009,-660.49 102.85,-661.476 101.162,-654.682"/>
</g>
<!-- Node42 -->
<g id="node83" class="node"><title>Node42</title>
<a xlink:href="structant_1_1_t_detector_read_hit.html" target="_top" xlink:title="ant::TDetectorReadHit">
<polygon fill="white" stroke="black" points="153,-580.5 153,-601.5 269,-601.5 269,-580.5 153,-580.5"/>
<text text-anchor="middle" x="211" y="-588.5" font-family="Helvetica,sans-Serif" font-size="10.00">ant::TDetectorReadHit</text>
</a>
</g>
<!-- Node1&#45;&gt;Node42 -->
<g id="edge82" class="edge"><title>Node1&#45;&gt;Node42</title>
<path fill="none" stroke="midnightblue" d="M70.1871,-653.85C86.8676,-640.464 111.676,-622.299 136,-611 144.066,-607.253 152.958,-604.109 161.714,-601.505"/>
<polygon fill="midnightblue" stroke="midnightblue" points="67.7676,-651.308 62.2509,-660.353 72.2042,-656.722 67.7676,-651.308"/>
</g>
<!-- Node43 -->
<g id="node85" class="node"><title>Node43</title>
<a xlink:href="structant_1_1_t_i_d.html" target="_top" xlink:title="ant::TID">
<polygon fill="white" stroke="black" points="184.5,-540.5 184.5,-561.5 237.5,-561.5 237.5,-540.5 184.5,-540.5"/>
<text text-anchor="middle" x="211" y="-548.5" font-family="Helvetica,sans-Serif" font-size="10.00">ant::TID</text>
</a>
</g>
<!-- Node1&#45;&gt;Node43 -->
<g id="edge84" class="edge"><title>Node1&#45;&gt;Node43</title>
<path fill="none" stroke="midnightblue" d="M61.4973,-651.633C76.0042,-628.893 103.079,-591.666 136,-571 150.609,-561.829 169.359,-556.829 184.457,-554.122"/>
<polygon fill="midnightblue" stroke="midnightblue" points="58.3572,-650.056 56.0691,-660.401 64.3089,-653.74 58.3572,-650.056"/>
</g>
<!-- Node44 -->
<g id="node87" class="node"><title>Node44</title>
<a xlink:href="structant_1_1_t_key_value.html" target="_top" xlink:title="ant::TKeyValue\&lt; ValueType \&gt;">
<polygon fill="white" stroke="black" points="136.5,-500.5 136.5,-521.5 285.5,-521.5 285.5,-500.5 136.5,-500.5"/>
<text text-anchor="middle" x="211" y="-508.5" font-family="Helvetica,sans-Serif" font-size="10.00">ant::TKeyValue&lt; ValueType &gt;</text>
</a>
</g>
<!-- Node1&#45;&gt;Node44 -->
<g id="edge86" class="edge"><title>Node1&#45;&gt;Node44</title>
<path fill="none" stroke="midnightblue" d="M56.8757,-650.688C68.326,-619.998 94.2562,-562.098 136,-531 141.187,-527.136 147.066,-524.017 153.195,-521.501"/>
<polygon fill="midnightblue" stroke="midnightblue" points="53.5028,-649.726 53.4273,-660.321 60.0932,-652.086 53.5028,-649.726"/>
</g>
<!-- Node45 -->
<g id="node89" class="node"><title>Node45</title>
<a xlink:href="structant_1_1_t_slow_control_1_1_key.html" target="_top" xlink:title="ant::TSlowControl::Key">
<polygon fill="white" stroke="black" points="151.5,-460.5 151.5,-481.5 270.5,-481.5 270.5,-460.5 151.5,-460.5"/>
<text text-anchor="middle" x="211" y="-468.5" font-family="Helvetica,sans-Serif" font-size="10.00">ant::TSlowControl::Key</text>
</a>
</g>
<!-- Node1&#45;&gt;Node45 -->
<g id="edge88" class="edge"><title>Node1&#45;&gt;Node45</title>
<path fill="none" stroke="midnightblue" d="M53.9561,-650.33C62.2492,-612.765 85.0665,-533.281 136,-491 140.562,-487.213 145.772,-484.137 151.271,-481.639"/>
<polygon fill="midnightblue" stroke="midnightblue" points="50.5228,-649.65 51.9117,-660.153 57.3759,-651.076 50.5228,-649.65"/>
</g>
<!-- Node46 -->
<g id="node91" class="node"><title>Node46</title>
<a xlink:href="structant_1_1_t_tagger.html" target="_top" xlink:title="ant::TTagger">
<polygon fill="white" stroke="black" points="175,-420.5 175,-441.5 247,-441.5 247,-420.5 175,-420.5"/>
<text text-anchor="middle" x="211" y="-428.5" font-family="Helvetica,sans-Serif" font-size="10.00">ant::TTagger</text>
</a>
</g>
<!-- Node1&#45;&gt;Node46 -->
<g id="edge90" class="edge"><title>Node1&#45;&gt;Node46</title>
<path fill="none" stroke="midnightblue" d="M51.9374,-650.429C57.1622,-606.901 75.526,-505.051 136,-451 146.65,-441.481 161.339,-436.416 174.897,-433.748"/>
<polygon fill="midnightblue" stroke="midnightblue" points="48.4548,-650.08 50.8526,-660.4 55.4137,-650.837 48.4548,-650.08"/>
</g>
<!-- Node47 -->
<g id="node93" class="node"><title>Node47</title>
<a xlink:href="structant_1_1_t_tagger_hit.html" target="_top" xlink:title="ant::TTaggerHit">
<polygon fill="white" stroke="black" points="168.5,-380.5 168.5,-401.5 253.5,-401.5 253.5,-380.5 168.5,-380.5"/>
<text text-anchor="middle" x="211" y="-388.5" font-family="Helvetica,sans-Serif" font-size="10.00">ant::TTaggerHit</text>
</a>
</g>
<!-- Node1&#45;&gt;Node47 -->
<g id="edge92" class="edge"><title>Node1&#45;&gt;Node47</title>
<path fill="none" stroke="midnightblue" d="M54.1938,-650.337C65.837,-594.914 100.077,-444.87 136,-411 144.825,-402.68 156.714,-397.738 168.423,-394.827"/>
<polygon fill="midnightblue" stroke="midnightblue" points="50.7156,-649.874 52.116,-660.375 57.5703,-651.292 50.7156,-649.874"/>
</g>
<!-- Node48 -->
<g id="node95" class="node"><title>Node48</title>
<a xlink:href="classant_1_1interval.html" target="_top" xlink:title="ant::interval\&lt; ant\l::ant::TID \&gt;">
<polygon fill="white" stroke="black" points="166,-328 166,-362 256,-362 256,-328 166,-328"/>
<text text-anchor="start" x="174" y="-349" font-family="Helvetica,sans-Serif" font-size="10.00">ant::interval&lt; ant</text>
<text text-anchor="middle" x="211" y="-336" font-family="Helvetica,sans-Serif" font-size="10.00">::ant::TID &gt;</text>
</a>
</g>
<!-- Node1&#45;&gt;Node48 -->
<g id="edge94" class="edge"><title>Node1&#45;&gt;Node48</title>
<path fill="none" stroke="midnightblue" d="M53.3438,-650.596C63.6519,-589.973 96.6334,-412.574 136,-371 143.959,-362.594 154.77,-356.906 165.705,-353.056"/>
<polygon fill="midnightblue" stroke="midnightblue" points="49.8854,-650.057 51.6864,-660.497 56.7893,-651.212 49.8854,-650.057"/>
</g>
<!-- Node49 -->
<g id="node97" class="node"><title>Node49</title>
<a xlink:href="classant_1_1interval.html" target="_top" xlink:title="ant::interval\&lt; ant\l::TID \&gt;">
<polygon fill="white" stroke="black" points="166,-276 166,-310 256,-310 256,-276 166,-276"/>
<text text-anchor="start" x="174" y="-297" font-family="Helvetica,sans-Serif" font-size="10.00">ant::interval&lt; ant</text>
<text text-anchor="middle" x="211" y="-284" font-family="Helvetica,sans-Serif" font-size="10.00">::TID &gt;</text>
</a>
</g>
<!-- Node1&#45;&gt;Node49 -->
<g id="edge96" class="edge"><title>Node1&#45;&gt;Node49</title>
<path fill="none" stroke="midnightblue" d="M52.513,-649.813C61.0065,-581.534 90.6699,-368.809 136,-319 143.884,-310.337 154.801,-304.56 165.868,-300.708"/>
<polygon fill="midnightblue" stroke="midnightblue" points="48.9883,-649.804 51.2525,-660.154 55.9369,-650.651 48.9883,-649.804"/>
</g>
<!-- Node50 -->
<g id="node99" class="node"><title>Node50</title>
<a xlink:href="classant_1_1interval.html" target="_top" xlink:title="ant::interval\&lt; double \&gt;">
<polygon fill="white" stroke="black" points="154,-236.5 154,-257.5 268,-257.5 268,-236.5 154,-236.5"/>
<text text-anchor="middle" x="211" y="-244.5" font-family="Helvetica,sans-Serif" font-size="10.00">ant::interval&lt; double &gt;</text>
</a>
</g>
<!-- Node1&#45;&gt;Node50 -->
<g id="edge98" class="edge"><title>Node1&#45;&gt;Node50</title>
<path fill="none" stroke="midnightblue" d="M51.6159,-650.039C57.7921,-575.326 82.3081,-323.495 136,-267 141.013,-261.725 147.248,-257.786 153.967,-254.853"/>
<polygon fill="midnightblue" stroke="midnightblue" points="48.0915,-650.204 50.7805,-660.452 55.0691,-650.764 48.0915,-650.204"/>
</g>
<!-- Node52 -->
<g id="node103" class="node"><title>Node52</title>
<a xlink:href="classant_1_1interval.html" target="_top" xlink:title="ant::interval\&lt; radian_t \&gt;">
<polygon fill="white" stroke="black" points="151,-196.5 151,-217.5 271,-217.5 271,-196.5 151,-196.5"/>
<text text-anchor="middle" x="211" y="-204.5" font-family="Helvetica,sans-Serif" font-size="10.00">ant::interval&lt; radian_t &gt;</text>
</a>
</g>
<!-- Node1&#45;&gt;Node52 -->
<g id="edge102" class="edge"><title>Node1&#45;&gt;Node52</title>
<path fill="none" stroke="midnightblue" d="M51.1799,-650.034C56.0665,-570.662 77.2898,-289.925 136,-227 140.229,-222.468 145.36,-218.918 150.931,-216.145"/>
<polygon fill="midnightblue" stroke="midnightblue" points="47.6732,-650.044 50.5749,-660.234 54.661,-650.459 47.6732,-650.044"/>
</g>
<!-- Node53 -->
<g id="node105" class="node"><title>Node53</title>
<a xlink:href="classant_1_1interval.html" target="_top" xlink:title="ant::interval\&lt; std\l::uint32_t \&gt;">
<polygon fill="white" stroke="black" points="166,-144 166,-178 256,-178 256,-144 166,-144"/>
<text text-anchor="start" x="174" y="-165" font-family="Helvetica,sans-Serif" font-size="10.00">ant::interval&lt; std</text>
<text text-anchor="middle" x="211" y="-152" font-family="Helvetica,sans-Serif" font-size="10.00">::uint32_t &gt;</text>
</a>
</g>
<!-- Node1&#45;&gt;Node53 -->
<g id="edge104" class="edge"><title>Node1&#45;&gt;Node53</title>
<path fill="none" stroke="midnightblue" d="M50.9588,-650.185C55.1955,-566.895 74.8234,-258.685 136,-187 143.694,-177.985 154.682,-172.093 165.883,-168.242"/>
<polygon fill="midnightblue" stroke="midnightblue" points="47.4617,-650.04 50.4696,-660.199 54.4534,-650.382 47.4617,-650.04"/>
</g>
<!-- Node54 -->
<g id="node107" class="node"><title>Node54</title>
<a xlink:href="structant_1_1_t_key_value.html" target="_top" xlink:title="ant::TKeyValue\&lt; double \&gt;">
<polygon fill="white" stroke="black" points="145.5,-104.5 145.5,-125.5 276.5,-125.5 276.5,-104.5 145.5,-104.5"/>
<text text-anchor="middle" x="211" y="-112.5" font-family="Helvetica,sans-Serif" font-size="10.00">ant::TKeyValue&lt; double &gt;</text>
</a>
</g>
<!-- Node1&#45;&gt;Node54 -->
<g id="edge106" class="edge"><title>Node1&#45;&gt;Node54</title>
<path fill="none" stroke="midnightblue" d="M50.415,-650.149C52.6132,-561 65.643,-212.888 136,-135 139.433,-131.2 143.499,-128.087 147.935,-125.542"/>
<polygon fill="midnightblue" stroke="midnightblue" points="46.9117,-650.258 50.1844,-660.334 53.9099,-650.416 46.9117,-650.258"/>
</g>
<!-- Node55 -->
<g id="node109" class="node"><title>Node55</title>
<a xlink:href="structant_1_1_t_key_value.html" target="_top" xlink:title="ant::TKeyValue\&lt; std\l::int64_t \&gt;">
<polygon fill="white" stroke="black" points="157.5,-52 157.5,-86 264.5,-86 264.5,-52 157.5,-52"/>
<text text-anchor="start" x="165.5" y="-73" font-family="Helvetica,sans-Serif" font-size="10.00">ant::TKeyValue&lt; std</text>
<text text-anchor="middle" x="211" y="-60" font-family="Helvetica,sans-Serif" font-size="10.00">::int64_t &gt;</text>
</a>
</g>
<!-- Node1&#45;&gt;Node55 -->
<g id="edge108" class="edge"><title>Node1&#45;&gt;Node55</title>
<path fill="none" stroke="midnightblue" d="M50.3135,-649.925C52.112,-556.683 63.7924,-182.018 136,-95 141.632,-88.2126 149.136,-83.1939 157.223,-79.4838"/>
<polygon fill="midnightblue" stroke="midnightblue" points="46.8113,-650.023 50.1363,-660.082 53.8103,-650.145 46.8113,-650.023"/>
</g>
<!-- Node56 -->
<g id="node111" class="node"><title>Node56</title>
<a xlink:href="structant_1_1_t_key_value.html" target="_top" xlink:title="ant::TKeyValue\&lt; std\l::string \&gt;">
<polygon fill="white" stroke="black" points="157.5,-0 157.5,-34 264.5,-34 264.5,-0 157.5,-0"/>
<text text-anchor="start" x="165.5" y="-21" font-family="Helvetica,sans-Serif" font-size="10.00">ant::TKeyValue&lt; std</text>
<text text-anchor="middle" x="211" y="-8" font-family="Helvetica,sans-Serif" font-size="10.00">::string &gt;</text>
</a>
</g>
<!-- Node1&#45;&gt;Node56 -->
<g id="edge110" class="edge"><title>Node1&#45;&gt;Node56</title>
<path fill="none" stroke="midnightblue" d="M51.5629,-650.167C59.4932,-546.715 96.4557,-91.2467 136,-43 141.591,-36.1786 149.074,-31.143 157.154,-27.4264"/>
<polygon fill="midnightblue" stroke="midnightblue" points="48.0625,-650.041 50.7948,-660.278 55.0423,-650.572 48.0625,-650.041"/>
</g>
<!-- Node11 -->
<g id="node21" class="node"><title>Node11</title>
<a xlink:href="structant_1_1_cluster_detector__t.html" target="_top" xlink:title="ant::ClusterDetector_t">
<polygon fill="white" stroke="black" points="337.5,-1252.5 337.5,-1273.5 450.5,-1273.5 450.5,-1252.5 337.5,-1252.5"/>
<text text-anchor="middle" x="394" y="-1260.5" font-family="Helvetica,sans-Serif" font-size="10.00">ant::ClusterDetector_t</text>
</a>
</g>
<!-- Node10&#45;&gt;Node11 -->
<g id="edge20" class="edge"><title>Node10&#45;&gt;Node11</title>
<path fill="none" stroke="midnightblue" d="M262.004,-956.946C270.892,-959.983 279.391,-964.454 286,-971 328.595,-1013.19 301.77,-1044.56 322,-1101 342.979,-1159.52 375.679,-1226.55 388.541,-1252.23"/>
<polygon fill="midnightblue" stroke="midnightblue" points="262.854,-953.549 252.278,-954.181 260.94,-960.282 262.854,-953.549"/>
</g>
<!-- Node15 -->
<g id="node29" class="node"><title>Node15</title>
<a xlink:href="structant_1_1expconfig_1_1detector_1_1_p_i_d.html" target="_top" xlink:title="ant::expconfig::detector::PID">
<polygon fill="white" stroke="black" points="322.5,-1070.5 322.5,-1091.5 465.5,-1091.5 465.5,-1070.5 322.5,-1070.5"/>
<text text-anchor="middle" x="394" y="-1078.5" font-family="Helvetica,sans-Serif" font-size="10.00">ant::expconfig::detector::PID</text>
</a>
</g>
<!-- Node10&#45;&gt;Node15 -->
<g id="edge28" class="edge"><title>Node10&#45;&gt;Node15</title>
<path fill="none" stroke="midnightblue" d="M262.003,-960.643C270.332,-963.317 278.636,-966.709 286,-971 331.554,-997.544 370.953,-1048.37 386.694,-1070.39"/>
<polygon fill="midnightblue" stroke="midnightblue" points="262.847,-957.243 252.268,-957.821 260.898,-963.967 262.847,-957.243"/>
</g>
<!-- Node21 -->
<g id="node41" class="node"><title>Node21</title>
<a xlink:href="structant_1_1expconfig_1_1detector_1_1_t_a_p_s_veto.html" target="_top" xlink:title="ant::expconfig::detector\l::TAPSVeto">
<polygon fill="white" stroke="black" points="334.5,-934 334.5,-968 453.5,-968 453.5,-934 334.5,-934"/>
<text text-anchor="start" x="342.5" y="-955" font-family="Helvetica,sans-Serif" font-size="10.00">ant::expconfig::detector</text>
<text text-anchor="middle" x="394" y="-942" font-family="Helvetica,sans-Serif" font-size="10.00">::TAPSVeto</text>
</a>
</g>
<!-- Node10&#45;&gt;Node21 -->
<g id="edge40" class="edge"><title>Node10&#45;&gt;Node21</title>
<path fill="none" stroke="midnightblue" d="M262.367,-951C284.732,-951 311.088,-951 334.318,-951"/>
<polygon fill="midnightblue" stroke="midnightblue" points="262.069,-947.5 252.069,-951 262.069,-954.5 262.069,-947.5"/>
</g>
<!-- Node24 -->
<g id="node47" class="node"><title>Node24</title>
<a xlink:href="structant_1_1expconfig_1_1detector_1_1_trigger.html" target="_top" xlink:title="ant::expconfig::detector\l::Trigger">
<polygon fill="white" stroke="black" points="334.5,-882 334.5,-916 453.5,-916 453.5,-882 334.5,-882"/>
<text text-anchor="start" x="342.5" y="-903" font-family="Helvetica,sans-Serif" font-size="10.00">ant::expconfig::detector</text>
<text text-anchor="middle" x="394" y="-890" font-family="Helvetica,sans-Serif" font-size="10.00">::Trigger</text>
</a>
</g>
<!-- Node10&#45;&gt;Node24 -->
<g id="edge46" class="edge"><title>Node10&#45;&gt;Node24</title>
<path fill="none" stroke="midnightblue" d="M261.424,-937.757C269.648,-935.539 278.069,-933.232 286,-931 302.754,-926.285 320.912,-920.981 337.473,-916.067"/>
<polygon fill="midnightblue" stroke="midnightblue" points="260.289,-934.438 251.536,-940.408 262.101,-941.199 260.289,-934.438"/>
</g>
<!-- Node26 -->
<g id="node51" class="node"><title>Node26</title>
<a xlink:href="structant_1_1_tagger_detector__t.html" target="_top" xlink:title="ant::TaggerDetector_t">
<polygon fill="white" stroke="black" points="338,-842.5 338,-863.5 450,-863.5 450,-842.5 338,-842.5"/>
<text text-anchor="middle" x="394" y="-850.5" font-family="Helvetica,sans-Serif" font-size="10.00">ant::TaggerDetector_t</text>
</a>
</g>
<!-- Node10&#45;&gt;Node26 -->
<g id="edge50" class="edge"><title>Node10&#45;&gt;Node26</title>
<path fill="none" stroke="midnightblue" d="M261.763,-943.071C270.379,-940.206 278.843,-936.306 286,-931 310.372,-912.931 297.721,-891.195 322,-873 327.087,-869.188 332.864,-866.102 338.882,-863.605"/>
<polygon fill="midnightblue" stroke="midnightblue" points="260.663,-939.745 252.03,-945.887 262.609,-946.47 260.663,-939.745"/>
</g>
<!-- Node12 -->
<g id="node23" class="node"><title>Node12</title>
<a xlink:href="structant_1_1expconfig_1_1detector_1_1_c_b.html" target="_top" xlink:title="ant::expconfig::detector::CB">
<polygon fill="white" stroke="black" points="505,-1298.5 505,-1319.5 645,-1319.5 645,-1298.5 505,-1298.5"/>
<text text-anchor="middle" x="575" y="-1306.5" font-family="Helvetica,sans-Serif" font-size="10.00">ant::expconfig::detector::CB</text>
</a>
</g>
<!-- Node11&#45;&gt;Node12 -->
<g id="edge22" class="edge"><title>Node11&#45;&gt;Node12</title>
<path fill="none" stroke="midnightblue" d="M445.512,-1276.09C473.44,-1283.19 507.494,-1291.84 533.668,-1298.5"/>
<polygon fill="midnightblue" stroke="midnightblue" points="446.079,-1272.62 435.525,-1273.55 444.355,-1279.41 446.079,-1272.62"/>
</g>
<!-- Node13 -->
<g id="node25" class="node"><title>Node13</title>
<a xlink:href="structant_1_1expconfig_1_1detector_1_1_t_a_p_s.html" target="_top" xlink:title="ant::expconfig::detector\l::TAPS">
<polygon fill="white" stroke="black" points="515.5,-1246 515.5,-1280 634.5,-1280 634.5,-1246 515.5,-1246"/>
<text text-anchor="start" x="523.5" y="-1267" font-family="Helvetica,sans-Serif" font-size="10.00">ant::expconfig::detector</text>
<text text-anchor="middle" x="575" y="-1254" font-family="Helvetica,sans-Serif" font-size="10.00">::TAPS</text>
</a>
</g>
<!-- Node11&#45;&gt;Node13 -->
<g id="edge24" class="edge"><title>Node11&#45;&gt;Node13</title>
<path fill="none" stroke="midnightblue" d="M461.072,-1263C478.856,-1263 497.937,-1263 515.301,-1263"/>
<polygon fill="midnightblue" stroke="midnightblue" points="460.773,-1259.5 450.773,-1263 460.773,-1266.5 460.773,-1259.5"/>
</g>
<!-- Node14 -->
<g id="node27" class="node"><title>Node14</title>
<a xlink:href="structant_1_1expconfig_1_1detector_1_1_t_a_p_s__2013.html" target="_top" xlink:title="ant::expconfig::detector\l::TAPS_2013">
<polygon fill="white" stroke="black" points="684.5,-1246 684.5,-1280 803.5,-1280 803.5,-1246 684.5,-1246"/>
<text text-anchor="start" x="692.5" y="-1267" font-family="Helvetica,sans-Serif" font-size="10.00">ant::expconfig::detector</text>
<text text-anchor="middle" x="744" y="-1254" font-family="Helvetica,sans-Serif" font-size="10.00">::TAPS_2013</text>
</a>
</g>
<!-- Node13&#45;&gt;Node14 -->
<g id="edge26" class="edge"><title>Node13&#45;&gt;Node14</title>
<path fill="none" stroke="midnightblue" d="M644.959,-1263C658.058,-1263 671.636,-1263 684.385,-1263"/>
<polygon fill="midnightblue" stroke="midnightblue" points="644.583,-1259.5 634.583,-1263 644.583,-1266.5 644.583,-1259.5"/>
</g>
<!-- Node16 -->
<g id="node31" class="node"><title>Node16</title>
<a xlink:href="structant_1_1expconfig_1_1detector_1_1_p_i_d__2004.html" target="_top" xlink:title="ant::expconfig::detector\l::PID_2004">
<polygon fill="white" stroke="black" points="515.5,-1194 515.5,-1228 634.5,-1228 634.5,-1194 515.5,-1194"/>
<text text-anchor="start" x="523.5" y="-1215" font-family="Helvetica,sans-Serif" font-size="10.00">ant::expconfig::detector</text>
<text text-anchor="middle" x="575" y="-1202" font-family="Helvetica,sans-Serif" font-size="10.00">::PID_2004</text>
</a>
</g>
<!-- Node15&#45;&gt;Node16 -->
<g id="edge30" class="edge"><title>Node15&#45;&gt;Node16</title>
<path fill="none" stroke="midnightblue" d="M408.95,-1099.62C428.256,-1122.58 463.928,-1161.43 502,-1185 507.376,-1188.33 513.239,-1191.31 519.228,-1193.96"/>
<polygon fill="midnightblue" stroke="midnightblue" points="411.447,-1097.15 402.381,-1091.67 406.05,-1101.61 411.447,-1097.15"/>
</g>
<!-- Node17 -->
<g id="node33" class="node"><title>Node17</title>
<a xlink:href="structant_1_1expconfig_1_1detector_1_1_p_i_d__2009__05.html" target="_top" xlink:title="ant::expconfig::detector\l::PID_2009_05">
<polygon fill="white" stroke="black" points="515.5,-1142 515.5,-1176 634.5,-1176 634.5,-1142 515.5,-1142"/>
<text text-anchor="start" x="523.5" y="-1163" font-family="Helvetica,sans-Serif" font-size="10.00">ant::expconfig::detector</text>
<text text-anchor="middle" x="575" y="-1150" font-family="Helvetica,sans-Serif" font-size="10.00">::PID_2009_05</text>
</a>
</g>
<!-- Node15&#45;&gt;Node17 -->
<g id="edge32" class="edge"><title>Node15&#45;&gt;Node17</title>
<path fill="none" stroke="midnightblue" d="M423.355,-1096.18C444.859,-1107.05 474.9,-1121.69 502,-1133 509.325,-1136.06 517.151,-1139.09 524.858,-1141.94"/>
<polygon fill="midnightblue" stroke="midnightblue" points="424.907,-1093.05 414.407,-1091.63 421.733,-1099.28 424.907,-1093.05"/>
</g>
<!-- Node18 -->
<g id="node35" class="node"><title>Node18</title>
<a xlink:href="structant_1_1expconfig_1_1detector_1_1_p_i_d__2009__06.html" target="_top" xlink:title="ant::expconfig::detector\l::PID_2009_06">
<polygon fill="white" stroke="black" points="515.5,-1090 515.5,-1124 634.5,-1124 634.5,-1090 515.5,-1090"/>
<text text-anchor="start" x="523.5" y="-1111" font-family="Helvetica,sans-Serif" font-size="10.00">ant::expconfig::detector</text>
<text text-anchor="middle" x="575" y="-1098" font-family="Helvetica,sans-Serif" font-size="10.00">::PID_2009_06</text>
</a>
</g>
<!-- Node15&#45;&gt;Node18 -->
<g id="edge34" class="edge"><title>Node15&#45;&gt;Node18</title>
<path fill="none" stroke="midnightblue" d="M475.681,-1092.73C489.04,-1094.65 502.657,-1096.61 515.354,-1098.43"/>
<polygon fill="midnightblue" stroke="midnightblue" points="475.932,-1089.23 465.536,-1091.28 474.937,-1096.16 475.932,-1089.23"/>
</g>
<!-- Node19 -->
<g id="node37" class="node"><title>Node19</title>
<a xlink:href="structant_1_1expconfig_1_1detector_1_1_p_i_d__2009__07.html" target="_top" xlink:title="ant::expconfig::detector\l::PID_2009_07">
<polygon fill="white" stroke="black" points="515.5,-1038 515.5,-1072 634.5,-1072 634.5,-1038 515.5,-1038"/>
<text text-anchor="start" x="523.5" y="-1059" font-family="Helvetica,sans-Serif" font-size="10.00">ant::expconfig::detector</text>
<text text-anchor="middle" x="575" y="-1046" font-family="Helvetica,sans-Serif" font-size="10.00">::PID_2009_07</text>
</a>
</g>
<!-- Node15&#45;&gt;Node19 -->
<g id="edge36" class="edge"><title>Node15&#45;&gt;Node19</title>
<path fill="none" stroke="midnightblue" d="M475.681,-1069.27C489.04,-1067.35 502.657,-1065.39 515.354,-1063.57"/>
<polygon fill="midnightblue" stroke="midnightblue" points="474.937,-1065.84 465.536,-1070.72 475.932,-1072.77 474.937,-1065.84"/>
</g>
<!-- Node20 -->
<g id="node39" class="node"><title>Node20</title>
<a xlink:href="structant_1_1expconfig_1_1detector_1_1_p_i_d__2014.html" target="_top" xlink:title="ant::expconfig::detector\l::PID_2014">
<polygon fill="white" stroke="black" points="515.5,-986 515.5,-1020 634.5,-1020 634.5,-986 515.5,-986"/>
<text text-anchor="start" x="523.5" y="-1007" font-family="Helvetica,sans-Serif" font-size="10.00">ant::expconfig::detector</text>
<text text-anchor="middle" x="575" y="-994" font-family="Helvetica,sans-Serif" font-size="10.00">::PID_2014</text>
</a>
</g>
<!-- Node15&#45;&gt;Node20 -->
<g id="edge38" class="edge"><title>Node15&#45;&gt;Node20</title>
<path fill="none" stroke="midnightblue" d="M423.355,-1065.82C444.859,-1054.95 474.9,-1040.31 502,-1029 509.325,-1025.94 517.151,-1022.91 524.858,-1020.06"/>
<polygon fill="midnightblue" stroke="midnightblue" points="421.733,-1062.72 414.407,-1070.37 424.907,-1068.95 421.733,-1062.72"/>
</g>
<!-- Node22 -->
<g id="node43" class="node"><title>Node22</title>
<a xlink:href="structant_1_1expconfig_1_1detector_1_1_t_a_p_s_veto__2013.html" target="_top" xlink:title="ant::expconfig::detector\l::TAPSVeto_2013">
<polygon fill="white" stroke="black" points="515.5,-934 515.5,-968 634.5,-968 634.5,-934 515.5,-934"/>
<text text-anchor="start" x="523.5" y="-955" font-family="Helvetica,sans-Serif" font-size="10.00">ant::expconfig::detector</text>
<text text-anchor="middle" x="575" y="-942" font-family="Helvetica,sans-Serif" font-size="10.00">::TAPSVeto_2013</text>
</a>
</g>
<!-- Node21&#45;&gt;Node22 -->
<g id="edge42" class="edge"><title>Node21&#45;&gt;Node22</title>
<path fill="none" stroke="midnightblue" d="M463.949,-951C480.952,-951 498.977,-951 515.447,-951"/>
<polygon fill="midnightblue" stroke="midnightblue" points="463.517,-947.5 453.517,-951 463.517,-954.5 463.517,-947.5"/>
</g>
<!-- Node23 -->
<g id="node45" class="node"><title>Node23</title>
<a xlink:href="structant_1_1expconfig_1_1detector_1_1_t_a_p_s_veto__2014.html" target="_top" xlink:title="ant::expconfig::detector\l::TAPSVeto_2014">
<polygon fill="white" stroke="black" points="684.5,-934 684.5,-968 803.5,-968 803.5,-934 684.5,-934"/>
<text text-anchor="start" x="692.5" y="-955" font-family="Helvetica,sans-Serif" font-size="10.00">ant::expconfig::detector</text>
<text text-anchor="middle" x="744" y="-942" font-family="Helvetica,sans-Serif" font-size="10.00">::TAPSVeto_2014</text>
</a>
</g>
<!-- Node22&#45;&gt;Node23 -->
<g id="edge44" class="edge"><title>Node22&#45;&gt;Node23</title>
<path fill="none" stroke="midnightblue" d="M644.959,-951C658.058,-951 671.636,-951 684.385,-951"/>
<polygon fill="midnightblue" stroke="midnightblue" points="644.583,-947.5 634.583,-951 644.583,-954.5 644.583,-947.5"/>
</g>
<!-- Node25 -->
<g id="node49" class="node"><title>Node25</title>
<a xlink:href="structant_1_1expconfig_1_1detector_1_1_trigger__2014.html" target="_top" xlink:title="ant::expconfig::detector\l::Trigger_2014">
<polygon fill="white" stroke="black" points="515.5,-882 515.5,-916 634.5,-916 634.5,-882 515.5,-882"/>
<text text-anchor="start" x="523.5" y="-903" font-family="Helvetica,sans-Serif" font-size="10.00">ant::expconfig::detector</text>
<text text-anchor="middle" x="575" y="-890" font-family="Helvetica,sans-Serif" font-size="10.00">::Trigger_2014</text>
</a>
</g>
<!-- Node24&#45;&gt;Node25 -->
<g id="edge48" class="edge"><title>Node24&#45;&gt;Node25</title>
<path fill="none" stroke="midnightblue" d="M463.949,-899C480.952,-899 498.977,-899 515.447,-899"/>
<polygon fill="midnightblue" stroke="midnightblue" points="463.517,-895.5 453.517,-899 463.517,-902.5 463.517,-895.5"/>
</g>
<!-- Node27 -->
<g id="node53" class="node"><title>Node27</title>
<a xlink:href="structant_1_1expconfig_1_1detector_1_1_e_p_t.html" target="_top" xlink:title="ant::expconfig::detector::EPT">
<polygon fill="white" stroke="black" points="502.5,-842.5 502.5,-863.5 647.5,-863.5 647.5,-842.5 502.5,-842.5"/>
<text text-anchor="middle" x="575" y="-850.5" font-family="Helvetica,sans-Serif" font-size="10.00">ant::expconfig::detector::EPT</text>
</a>
</g>
<!-- Node26&#45;&gt;Node27 -->
<g id="edge52" class="edge"><title>Node26&#45;&gt;Node27</title>
<path fill="none" stroke="midnightblue" d="M460.53,-853C474.166,-853 488.585,-853 502.421,-853"/>
<polygon fill="midnightblue" stroke="midnightblue" points="460.277,-849.5 450.277,-853 460.277,-856.5 460.277,-849.5"/>
</g>
<!-- Node28 -->
<g id="node55" class="node"><title>Node28</title>
<a xlink:href="structant_1_1expconfig_1_1detector_1_1_e_p_t__2014.html" target="_top" xlink:title="ant::expconfig::detector\l::EPT_2014">
<polygon fill="white" stroke="black" points="684.5,-836 684.5,-870 803.5,-870 803.5,-836 684.5,-836"/>
<text text-anchor="start" x="692.5" y="-857" font-family="Helvetica,sans-Serif" font-size="10.00">ant::expconfig::detector</text>
<text text-anchor="middle" x="744" y="-844" font-family="Helvetica,sans-Serif" font-size="10.00">::EPT_2014</text>
</a>
</g>
<!-- Node27&#45;&gt;Node28 -->
<g id="edge54" class="edge"><title>Node27&#45;&gt;Node28</title>
<path fill="none" stroke="midnightblue" d="M657.76,-853C666.743,-853 675.751,-853 684.38,-853"/>
<polygon fill="midnightblue" stroke="midnightblue" points="657.652,-849.5 647.652,-853 657.652,-856.5 657.652,-849.5"/>
</g>
<!-- Node37 -->
<g id="node73" class="node"><title>Node37</title>
<a xlink:href="structant_1_1_t_detector_read.html" target="_top" xlink:title="ant::TDetectorRead">
<polygon fill="white" stroke="black" points="342.5,-700.5 342.5,-721.5 445.5,-721.5 445.5,-700.5 342.5,-700.5"/>
<text text-anchor="middle" x="394" y="-708.5" font-family="Helvetica,sans-Serif" font-size="10.00">ant::TDetectorRead</text>
</a>
</g>
<!-- Node36&#45;&gt;Node37 -->
<g id="edge72" class="edge"><title>Node36&#45;&gt;Node37</title>
<path fill="none" stroke="midnightblue" d="M268.445,-642.576C274.588,-644.897 280.569,-647.676 286,-651 306.399,-663.487 301.666,-678.408 322,-691 328.177,-694.825 335.096,-697.934 342.138,-700.456"/>
<polygon fill="midnightblue" stroke="midnightblue" points="269.308,-639.174 258.714,-639.293 267.07,-645.806 269.308,-639.174"/>
</g>
<!-- Node38 -->
<g id="node75" class="node"><title>Node38</title>
<a xlink:href="structant_1_1_t_event.html" target="_top" xlink:title="ant::TEvent">
<polygon fill="white" stroke="black" points="360,-660.5 360,-681.5 428,-681.5 428,-660.5 360,-660.5"/>
<text text-anchor="middle" x="394" y="-668.5" font-family="Helvetica,sans-Serif" font-size="10.00">ant::TEvent</text>
</a>
</g>
<!-- Node36&#45;&gt;Node38 -->
<g id="edge74" class="edge"><title>Node36&#45;&gt;Node38</title>
<path fill="none" stroke="midnightblue" d="M268.547,-643.579C298.578,-650.143 334.295,-657.95 359.924,-663.552"/>
<polygon fill="midnightblue" stroke="midnightblue" points="269.12,-640.121 258.603,-641.405 267.625,-646.96 269.12,-640.121"/>
</g>
<!-- Node39 -->
<g id="node77" class="node"><title>Node39</title>
<a xlink:href="structant_1_1_t_header_info.html" target="_top" xlink:title="ant::THeaderInfo">
<polygon fill="white" stroke="black" points="349,-620.5 349,-641.5 439,-641.5 439,-620.5 349,-620.5"/>
<text text-anchor="middle" x="394" y="-628.5" font-family="Helvetica,sans-Serif" font-size="10.00">ant::THeaderInfo</text>
</a>
</g>
<!-- Node36&#45;&gt;Node39 -->
<g id="edge76" class="edge"><title>Node36&#45;&gt;Node39</title>
<path fill="none" stroke="midnightblue" d="M268.665,-631C294.547,-631 324.633,-631 348.84,-631"/>
<polygon fill="midnightblue" stroke="midnightblue" points="268.603,-627.5 258.603,-631 268.603,-634.5 268.603,-627.5"/>
</g>
<!-- Node40 -->
<g id="node79" class="node"><title>Node40</title>
<a xlink:href="structant_1_1_t_slow_control.html" target="_top" xlink:title="ant::TSlowControl">
<polygon fill="white" stroke="black" points="346.5,-580.5 346.5,-601.5 441.5,-601.5 441.5,-580.5 346.5,-580.5"/>
<text text-anchor="middle" x="394" y="-588.5" font-family="Helvetica,sans-Serif" font-size="10.00">ant::TSlowControl</text>
</a>
</g>
<!-- Node36&#45;&gt;Node40 -->
<g id="edge78" class="edge"><title>Node36&#45;&gt;Node40</title>
<path fill="none" stroke="midnightblue" d="M268.684,-618.391C293.67,-612.93 322.571,-606.613 346.317,-601.422"/>
<polygon fill="midnightblue" stroke="midnightblue" points="267.625,-615.04 258.603,-620.595 269.12,-621.879 267.625,-615.04"/>
</g>
<!-- Node41 -->
<g id="node81" class="node"><title>Node41</title>
<a xlink:href="structant_1_1_t_unpacker_message.html" target="_top" xlink:title="ant::TUnpackerMessage">
<polygon fill="white" stroke="black" points="332,-540.5 332,-561.5 456,-561.5 456,-540.5 332,-540.5"/>
<text text-anchor="middle" x="394" y="-548.5" font-family="Helvetica,sans-Serif" font-size="10.00">ant::TUnpackerMessage</text>
</a>
</g>
<!-- Node36&#45;&gt;Node41 -->
<g id="edge80" class="edge"><title>Node36&#45;&gt;Node41</title>
<path fill="none" stroke="midnightblue" d="M268.445,-619.424C274.588,-617.103 280.569,-614.324 286,-611 306.399,-598.513 301.666,-583.592 322,-571 328.177,-567.175 335.096,-564.066 342.138,-561.544"/>
<polygon fill="midnightblue" stroke="midnightblue" points="267.07,-616.194 258.714,-622.707 269.308,-622.826 267.07,-616.194"/>
</g>
<!-- Node51 -->
<g id="node101" class="node"><title>Node51</title>
<a xlink:href="classant_1_1analysis_1_1_bin_settings.html" target="_top" xlink:title="ant::analysis::BinSettings">
<polygon fill="white" stroke="black" points="330,-236.5 330,-257.5 458,-257.5 458,-236.5 330,-236.5"/>
<text text-anchor="middle" x="394" y="-244.5" font-family="Helvetica,sans-Serif" font-size="10.00">ant::analysis::BinSettings</text>
</a>
</g>
<!-- Node50&#45;&gt;Node51 -->
<g id="edge100" class="edge"><title>Node50&#45;&gt;Node51</title>
<path fill="none" stroke="midnightblue" d="M278.457,-247C295.291,-247 313.293,-247 329.956,-247"/>
<polygon fill="midnightblue" stroke="midnightblue" points="278.15,-243.5 268.15,-247 278.15,-250.5 278.15,-243.5"/>
</g>
</g>
</svg>
