<?xml version="1.0" encoding="UTF-8" standalone="no"?>
<!DOCTYPE svg PUBLIC "-//W3C//DTD SVG 1.1//EN"
 "http://www.w3.org/Graphics/SVG/1.1/DTD/svg11.dtd">
<!-- Generated by graphviz version 2.26.3 (20100126.1600)
 -->
<!-- Title: ant::analysis::physics::ReconstructCheck Pages: 1 -->
<svg width="958pt" height="196pt"
 viewBox="0.00 0.00 958.00 196.00" xmlns="http://www.w3.org/2000/svg" xmlns:xlink="http://www.w3.org/1999/xlink">
<g id="graph1" class="graph" transform="scale(1 1) rotate(0) translate(4 192)">
<title>ant::analysis::physics::ReconstructCheck</title>
<polygon fill="white" stroke="white" points="-4,5 -4,-192 955,-192 955,5 -4,5"/>
<!-- Node1 -->
<g id="node1" class="node"><title>Node1</title>
<polygon fill="#bfbfbf" stroke="black" points="838,-73 838,-107 950,-107 950,-73 838,-73"/>
<text text-anchor="start" x="846" y="-94" font-family="Helvetica,sans-Serif" font-size="10.00">ant::analysis::physics</text>
<text text-anchor="middle" x="894" y="-81" font-family="Helvetica,sans-Serif" font-size="10.00">::ReconstructCheck</text>
</g>
<!-- Node2 -->
<g id="node2" class="node"><title>Node2</title>
<a xlink:href="classant_1_1analysis_1_1_physics.html" target="_top" xlink:title="ant::analysis::Physics">
<polygon fill="white" stroke="black" points="599.5,-152.5 599.5,-173.5 712.5,-173.5 712.5,-152.5 599.5,-152.5"/>
<text text-anchor="middle" x="656" y="-160.5" font-family="Helvetica,sans-Serif" font-size="10.00">ant::analysis::Physics</text>
</a>
</g>
<!-- Node2&#45;&gt;Node1 -->
<g id="edge2" class="edge"><title>Node2&#45;&gt;Node1</title>
<path fill="none" stroke="midnightblue" d="M700.366,-149.392C739.411,-137.416 796.431,-119.926 838.49,-107.026"/>
<polygon fill="midnightblue" stroke="midnightblue" points="698.887,-146.185 690.353,-152.463 700.94,-152.877 698.887,-146.185"/>
</g>
<!-- Node3 -->
<g id="node4" class="node"><title>Node3</title>
<a xlink:href="classant_1_1analysis_1_1_smart_hist_factory.html" target="_top" xlink:title="ant::analysis::SmartHist\lFactory">
<polygon fill="white" stroke="black" points="364,-154 364,-188 486,-188 486,-154 364,-154"/>
<text text-anchor="start" x="372" y="-175" font-family="Helvetica,sans-Serif" font-size="10.00">ant::analysis::SmartHist</text>
<text text-anchor="middle" x="425" y="-162" font-family="Helvetica,sans-Serif" font-size="10.00">Factory</text>
</a>
</g>
<!-- Node3&#45;&gt;Node2 -->
<g id="edge4" class="edge"><title>Node3&#45;&gt;Node2</title>
<path fill="none" stroke="#9a32cd" stroke-dasharray="5,2" d="M496.358,-168.529C529.413,-167.384 568.144,-166.043 599.179,-164.968"/>
<polygon fill="#9a32cd" stroke="#9a32cd" points="496.17,-165.033 486.297,-168.877 496.412,-172.029 496.17,-165.033"/>
<text text-anchor="middle" x="544" y="-171" font-family="Helvetica,sans-Serif" font-size="10.00"> HistFac</text>
</g>
<!-- Node4 -->
<g id="node6" class="node"><title>Node4</title>
<a xlink:href="structant_1_1analysis_1_1physics_1_1_reconstruct_check_1_1candidates_event__t.html" target="_top" xlink:title="ant::analysis::physics\l::ReconstructCheck::candidates\lEvent_t">
<polygon fill="white" stroke="black" points="346,-0.5 346,-47.5 504,-47.5 504,-0.5 346,-0.5"/>
<text text-anchor="start" x="354" y="-34.5" font-family="Helvetica,sans-Serif" font-size="10.00">ant::analysis::physics</text>
<text text-anchor="start" x="354" y="-21.5" font-family="Helvetica,sans-Serif" font-size="10.00">::ReconstructCheck::candidates</text>
<text text-anchor="middle" x="425" y="-8.5" font-family="Helvetica,sans-Serif" font-size="10.00">Event_t</text>
</a>
</g>
<!-- Node4&#45;&gt;Node1 -->
<g id="edge6" class="edge"><title>Node4&#45;&gt;Node1</title>
<path fill="none" stroke="#9a32cd" stroke-dasharray="5,2" d="M514.499,-18.6627C575.231,-16.8444 657.071,-17.9247 728,-31 773.72,-39.4282 823.669,-58.6477 856.707,-72.8726"/>
<polygon fill="#9a32cd" stroke="#9a32cd" points="514.055,-15.1754 504.177,-19.0056 514.288,-22.1716 514.055,-15.1754"/>
<text text-anchor="middle" x="656" y="-35" font-family="Helvetica,sans-Serif" font-size="10.00"> nPerEvent</text>
</g>
<!-- Node6 -->
<g id="node10" class="node"><title>Node6</title>
<polygon fill="white" stroke="#bfbfbf" points="584,-53.5 584,-126.5 728,-126.5 728,-53.5 584,-53.5"/>
<text text-anchor="start" x="592" y="-113.5" font-family="Helvetica,sans-Serif" font-size="10.00">std::map&lt; const ant</text>
<text text-anchor="start" x="592" y="-100.5" font-family="Helvetica,sans-Serif" font-size="10.00">::ParticleTypeDatabase</text>
<text text-anchor="start" x="592" y="-87.5" font-family="Helvetica,sans-Serif" font-size="10.00">::Type *, ant::analysis</text>
<text text-anchor="start" x="592" y="-74.5" font-family="Helvetica,sans-Serif" font-size="10.00">::physics::ReconstructCheck</text>
<text text-anchor="middle" x="656" y="-61.5" font-family="Helvetica,sans-Serif" font-size="10.00">::candidatesEvent_t &gt;</text>
</g>
<!-- Node4&#45;&gt;Node6 -->
<g id="edge12" class="edge"><title>Node4&#45;&gt;Node6</title>
<path fill="none" stroke="#9a32cd" stroke-dasharray="5,2" d="M513.986,-49.4247C537.124,-56.0354 561.762,-63.0749 583.909,-69.4024"/>
<polygon fill="#9a32cd" stroke="#9a32cd" points="514.751,-46.0031 504.174,-46.6211 512.828,-52.7337 514.751,-46.0031"/>
<text text-anchor="middle" x="544" y="-67" font-family="Helvetica,sans-Serif" font-size="10.00"> elements</text>
</g>
<!-- Node5 -->
<g id="node8" class="node"><title>Node5</title>
<a xlink:href="structant_1_1analysis_1_1physics_1_1_reconstruct_check_1_1list__of__hists__t.html" target="_top" xlink:title="ant::analysis::physics\l::ReconstructCheck::list\l_of_hists_t">
<polygon fill="white" stroke="black" points="134.5,-0.5 134.5,-47.5 257.5,-47.5 257.5,-0.5 134.5,-0.5"/>
<text text-anchor="start" x="142.5" y="-34.5" font-family="Helvetica,sans-Serif" font-size="10.00">ant::analysis::physics</text>
<text text-anchor="start" x="142.5" y="-21.5" font-family="Helvetica,sans-Serif" font-size="10.00">::ReconstructCheck::list</text>
<text text-anchor="middle" x="196" y="-8.5" font-family="Helvetica,sans-Serif" font-size="10.00">_of_hists_t</text>
</a>
</g>
<!-- Node5&#45;&gt;Node4 -->
<g id="edge8" class="edge"><title>Node5&#45;&gt;Node4</title>
<path fill="none" stroke="midnightblue" d="M267.743,-24C292.584,-24 320.56,-24 345.955,-24"/>
<polygon fill="midnightblue" stroke="midnightblue" points="267.669,-20.5001 257.669,-24 267.669,-27.5001 267.669,-20.5001"/>
</g>
<!-- Node6&#45;&gt;Node1 -->
<g id="edge10" class="edge"><title>Node6&#45;&gt;Node1</title>
<path fill="none" stroke="#9a32cd" stroke-dasharray="5,2" d="M738.102,-90C770.951,-90 807.963,-90 837.679,-90"/>
<polygon fill="#9a32cd" stroke="#9a32cd" points="738.054,-86.5001 728.054,-90 738.054,-93.5001 738.054,-86.5001"/>
<text text-anchor="middle" x="783" y="-94" font-family="Helvetica,sans-Serif" font-size="10.00"> nPerEvent_type</text>
</g>
<!-- Node7 -->
<g id="node13" class="node"><title>Node7</title>
<a xlink:href="classant_1_1_particle_type_database_1_1_type.html" target="_top" xlink:title="ant::ParticleTypeDatabase\l::Type">
<polygon fill="white" stroke="black" points="358.5,-71 358.5,-105 491.5,-105 491.5,-71 358.5,-71"/>
<text text-anchor="start" x="366.5" y="-92" font-family="Helvetica,sans-Serif" font-size="10.00">ant::ParticleTypeDatabase</text>
<text text-anchor="middle" x="425" y="-79" font-family="Helvetica,sans-Serif" font-size="10.00">::Type</text>
</a>
</g>
<!-- Node7&#45;&gt;Node6 -->
<g id="edge14" class="edge"><title>Node7&#45;&gt;Node6</title>
<path fill="none" stroke="#9a32cd" stroke-dasharray="5,2" d="M501.514,-88.6625C528.064,-88.8923 557.727,-89.1492 583.908,-89.3758"/>
<polygon fill="#9a32cd" stroke="#9a32cd" points="501.535,-85.1626 491.505,-88.5758 501.474,-92.1623 501.535,-85.1626"/>
<text text-anchor="middle" x="544" y="-93" font-family="Helvetica,sans-Serif" font-size="10.00"> keys</text>
</g>
<!-- Node7&#45;&gt;Node7 -->
<g id="edge20" class="edge"><title>Node7&#45;&gt;Node7</title>
<path fill="none" stroke="#9a32cd" stroke-dasharray="5,2" d="M404.45,-115.318C407.336,-119.864 414.186,-123 425,-123 442.746,-123 449.817,-114.556 446.212,-105.288"/>
<polygon fill="#9a32cd" stroke="#9a32cd" points="407.94,-115.035 403.788,-105.288 400.955,-115.497 407.94,-115.035"/>
<text text-anchor="middle" x="425" y="-127" font-family="Helvetica,sans-Serif" font-size="10.00"> sametype</text>
</g>
<!-- Node8 -->
<g id="node15" class="node"><title>Node8</title>
<a xlink:title="STL class. ">
<polygon fill="white" stroke="#bfbfbf" points="166,-77.5 166,-98.5 226,-98.5 226,-77.5 166,-77.5"/>
<text text-anchor="middle" x="196" y="-85.5" font-family="Helvetica,sans-Serif" font-size="10.00">std::string</text>
</a>
</g>
<!-- Node8&#45;&gt;Node7 -->
<g id="edge16" class="edge"><title>Node8&#45;&gt;Node7</title>
<path fill="none" stroke="#9a32cd" stroke-dasharray="5,2" d="M236.792,-88C270.465,-88 318.93,-88 358.246,-88"/>
<polygon fill="#9a32cd" stroke="#9a32cd" points="236.409,-84.5001 226.409,-88 236.409,-91.5001 236.409,-84.5001"/>
<text text-anchor="middle" x="302" y="-105" font-family="Helvetica,sans-Serif" font-size="10.00"> print_name</text>
<text text-anchor="middle" x="302" y="-92" font-family="Helvetica,sans-Serif" font-size="10.00">name</text>
</g>
<!-- Node9 -->
<g id="node17" class="node"><title>Node9</title>
<a xlink:title="STL class. ">
<polygon fill="white" stroke="#bfbfbf" points="0.5,-71 0.5,-105 95.5,-105 95.5,-71 0.5,-71"/>
<text text-anchor="start" x="8.5" y="-92" font-family="Helvetica,sans-Serif" font-size="10.00">std::basic_string&lt;</text>
<text text-anchor="middle" x="48" y="-79" font-family="Helvetica,sans-Serif" font-size="10.00"> char &gt;</text>
</a>
</g>
<!-- Node9&#45;&gt;Node8 -->
<g id="edge18" class="edge"><title>Node9&#45;&gt;Node8</title>
<path fill="none" stroke="midnightblue" d="M105.821,-88C126.259,-88 148.428,-88 165.67,-88"/>
<polygon fill="midnightblue" stroke="midnightblue" points="105.643,-84.5001 95.6428,-88 105.643,-91.5001 105.643,-84.5001"/>
</g>
</g>
</svg>
