<?xml version="1.0" encoding="UTF-8" standalone="no"?>
<!DOCTYPE svg PUBLIC "-//W3C//DTD SVG 1.1//EN"
 "http://www.w3.org/Graphics/SVG/1.1/DTD/svg11.dtd">
<!-- Generated by graphviz version 2.26.3 (20100126.1600)
 -->
<!-- Title: ant::TAntHeader Pages: 1 -->
<svg width="257pt" height="214pt"
 viewBox="0.00 0.00 257.00 214.00" xmlns="http://www.w3.org/2000/svg" xmlns:xlink="http://www.w3.org/1999/xlink">
<g id="graph1" class="graph" transform="scale(1 1) rotate(0) translate(4 210)">
<title>ant::TAntHeader</title>
<polygon fill="white" stroke="white" points="-4,5 -4,-210 254,-210 254,5 -4,5"/>
<!-- Node1 -->
<g id="node1" class="node"><title>Node1</title>
<polygon fill="#bfbfbf" stroke="black" points="53.5,-0.5 53.5,-21.5 142.5,-21.5 142.5,-0.5 53.5,-0.5"/>
<text text-anchor="middle" x="98" y="-8.5" font-family="Helvetica,sans-Serif" font-size="10.00">ant::TAntHeader</text>
</g>
<!-- Node2 -->
<g id="node2" class="node"><title>Node2</title>
<polygon fill="white" stroke="#bfbfbf" points="0,-110.5 0,-131.5 54,-131.5 54,-110.5 0,-110.5"/>
<text text-anchor="middle" x="27" y="-118.5" font-family="Helvetica,sans-Serif" font-size="10.00">TNamed</text>
</g>
<!-- Node2&#45;&gt;Node1 -->
<g id="edge2" class="edge"><title>Node2&#45;&gt;Node1</title>
<path fill="none" stroke="midnightblue" d="M39.3976,-101.792C54.4057,-78.5405 79.1514,-40.202 91.1085,-21.677"/>
<polygon fill="midnightblue" stroke="midnightblue" points="36.2902,-100.153 33.8078,-110.453 42.1715,-103.949 36.2902,-100.153"/>
</g>
<!-- Node3 -->
<g id="node4" class="node"><title>Node3</title>
<a xlink:href="structant_1_1_t_i_d.html" target="_top" xlink:title="ant::TID">
<polygon fill="white" stroke="black" points="71.5,-110.5 71.5,-131.5 124.5,-131.5 124.5,-110.5 71.5,-110.5"/>
<text text-anchor="middle" x="98" y="-118.5" font-family="Helvetica,sans-Serif" font-size="10.00">ant::TID</text>
</a>
</g>
<!-- Node3&#45;&gt;Node1 -->
<g id="edge4" class="edge"><title>Node3&#45;&gt;Node1</title>
<path fill="none" stroke="#9a32cd" stroke-dasharray="5,2" d="M98,-100.22C98,-76.8464 98,-39.7904 98,-21.677"/>
<polygon fill="#9a32cd" stroke="#9a32cd" points="94.5001,-100.453 98,-110.453 101.5,-100.453 94.5001,-100.453"/>
<text text-anchor="middle" x="114.5" y="-70" font-family="Helvetica,sans-Serif" font-size="10.00"> LastID</text>
<text text-anchor="middle" x="114.5" y="-57" font-family="Helvetica,sans-Serif" font-size="10.00">FirstID</text>
</g>
<!-- Node4 -->
<g id="node6" class="node"><title>Node4</title>
<a xlink:href="classant_1_1printable__traits.html" target="_top" xlink:title="ant::printable_traits">
<polygon fill="white" stroke="black" points="37,-177.5 37,-198.5 137,-198.5 137,-177.5 37,-177.5"/>
<text text-anchor="middle" x="87" y="-185.5" font-family="Helvetica,sans-Serif" font-size="10.00">ant::printable_traits</text>
</a>
</g>
<!-- Node4&#45;&gt;Node3 -->
<g id="edge6" class="edge"><title>Node4&#45;&gt;Node3</title>
<path fill="none" stroke="midnightblue" d="M90.4038,-167.268C92.3491,-155.419 94.7059,-141.064 96.2733,-131.517"/>
<polygon fill="midnightblue" stroke="midnightblue" points="86.9338,-166.8 88.7673,-177.235 93.8413,-167.934 86.9338,-166.8"/>
</g>
<!-- Node5 -->
<g id="node8" class="node"><title>Node5</title>
<a xlink:title="STL class. ">
<polygon fill="white" stroke="#bfbfbf" points="162,-110.5 162,-131.5 222,-131.5 222,-110.5 162,-110.5"/>
<text text-anchor="middle" x="192" y="-118.5" font-family="Helvetica,sans-Serif" font-size="10.00">std::string</text>
</a>
</g>
<!-- Node5&#45;&gt;Node1 -->
<g id="edge8" class="edge"><title>Node5&#45;&gt;Node1</title>
<path fill="none" stroke="#9a32cd" stroke-dasharray="5,2" d="M180.659,-101.668C170.063,-84.4688 153.184,-59.1468 135,-40 128.593,-33.2535 120.555,-26.7648 113.609,-21.6422"/>
<polygon fill="#9a32cd" stroke="#9a32cd" points="177.703,-103.545 185.868,-110.297 183.696,-99.9269 177.703,-103.545"/>
<text text-anchor="middle" x="199" y="-83" font-family="Helvetica,sans-Serif" font-size="10.00"> GitInfo</text>
<text text-anchor="middle" x="199" y="-70" font-family="Helvetica,sans-Serif" font-size="10.00">CmdLine</text>
<text text-anchor="middle" x="199" y="-57" font-family="Helvetica,sans-Serif" font-size="10.00">WorkingDir</text>
<text text-anchor="middle" x="199" y="-44" font-family="Helvetica,sans-Serif" font-size="10.00">SetupName</text>
</g>
<!-- Node6 -->
<g id="node10" class="node"><title>Node6</title>
<a xlink:title="STL class. ">
<polygon fill="white" stroke="#bfbfbf" points="154.5,-171 154.5,-205 249.5,-205 249.5,-171 154.5,-171"/>
<text text-anchor="start" x="162.5" y="-192" font-family="Helvetica,sans-Serif" font-size="10.00">std::basic_string&lt;</text>
<text text-anchor="middle" x="202" y="-179" font-family="Helvetica,sans-Serif" font-size="10.00"> char &gt;</text>
</a>
</g>
<!-- Node6&#45;&gt;Node5 -->
<g id="edge10" class="edge"><title>Node6&#45;&gt;Node5</title>
<path fill="none" stroke="midnightblue" d="M197.901,-160.534C196.374,-150.306 194.731,-139.301 193.568,-131.506"/>
<polygon fill="midnightblue" stroke="midnightblue" points="194.487,-161.372 199.425,-170.746 201.41,-160.339 194.487,-161.372"/>
</g>
</g>
</svg>
