<?xml version="1.0" encoding="UTF-8" standalone="no"?>
<!DOCTYPE svg PUBLIC "-//W3C//DTD SVG 1.1//EN"
 "http://www.w3.org/Graphics/SVG/1.1/DTD/svg11.dtd">
<!-- Generated by graphviz version 2.26.3 (20100126.1600)
 -->
<!-- Title: ant::analysis::utils::KofNvector&lt; T &gt;::const_iterator Pages: 1 -->
<svg width="134pt" height="128pt"
 viewBox="0.00 0.00 134.00 128.00" xmlns="http://www.w3.org/2000/svg" xmlns:xlink="http://www.w3.org/1999/xlink">
<g id="graph1" class="graph" transform="scale(1 1) rotate(0) translate(4 124)">
<title>ant::analysis::utils::KofNvector&lt; T &gt;::const_iterator</title>
<polygon fill="white" stroke="white" points="-4,5 -4,-124 131,-124 131,5 -4,5"/>
<!-- Node1 -->
<g id="node1" class="node"><title>Node1</title>
<polygon fill="#bfbfbf" stroke="black" points="0,-0.5 0,-47.5 126,-47.5 126,-0.5 0,-0.5"/>
<text text-anchor="start" x="8" y="-34.5" font-family="Helvetica,sans-Serif" font-size="10.00">ant::analysis::utils</text>
<text text-anchor="start" x="8" y="-21.5" font-family="Helvetica,sans-Serif" font-size="10.00">::KofNvector&lt; T &gt;::const</text>
<text text-anchor="middle" x="63" y="-8.5" font-family="Helvetica,sans-Serif" font-size="10.00">_iterator</text>
</g>
<!-- Node2 -->
<g id="node2" class="node"><title>Node2</title>
<polygon fill="white" stroke="#bfbfbf" points="3.5,-85 3.5,-119 122.5,-119 122.5,-85 3.5,-85"/>
<text text-anchor="start" x="11.5" y="-106" font-family="Helvetica,sans-Serif" font-size="10.00">std::iterator&lt; std</text>
<text text-anchor="middle" x="63" y="-93" font-family="Helvetica,sans-Serif" font-size="10.00">::input_iterator_tag, T &gt;</text>
</g>
<!-- Node2&#45;&gt;Node1 -->
<g id="edge2" class="edge"><title>Node2&#45;&gt;Node1</title>
<path fill="none" stroke="midnightblue" d="M63,-74.5793C63,-65.8339 63,-56.2342 63,-47.77"/>
<polygon fill="midnightblue" stroke="midnightblue" points="59.5001,-74.6892 63,-84.6893 66.5001,-74.6893 59.5001,-74.6892"/>
</g>
</g>
</svg>
