<?xml version="1.0" encoding="UTF-8" standalone="no"?>
<!DOCTYPE svg PUBLIC "-//W3C//DTD SVG 1.1//EN"
 "http://www.w3.org/Graphics/SVG/1.1/DTD/svg11.dtd">
<!-- Generated by graphviz version 2.26.3 (20100126.1600)
 -->
<!-- Title: ant::calibration::Scaler Pages: 1 -->
<svg width="280pt" height="174pt"
 viewBox="0.00 0.00 280.00 174.00" xmlns="http://www.w3.org/2000/svg" xmlns:xlink="http://www.w3.org/1999/xlink">
<g id="graph1" class="graph" transform="scale(1 1) rotate(0) translate(4 170)">
<title>ant::calibration::Scaler</title>
<polygon fill="white" stroke="white" points="-4,5 -4,-170 277,-170 277,5 -4,5"/>
<!-- Node1 -->
<g id="node1" class="node"><title>Node1</title>
<polygon fill="#bfbfbf" stroke="black" points="86,-0.5 86,-21.5 200,-21.5 200,-0.5 86,-0.5"/>
<text text-anchor="middle" x="143" y="-8.5" font-family="Helvetica,sans-Serif" font-size="10.00">ant::calibration::Scaler</text>
</g>
<!-- Node2 -->
<g id="node2" class="node"><title>Node2</title>
<a xlink:href="classant_1_1_calibration_1_1_base_module.html" target="_top" xlink:title="The BaseModule class provides a name for identification. ">
<polygon fill="white" stroke="black" points="-0.5,-65.5 -0.5,-86.5 142.5,-86.5 142.5,-65.5 -0.5,-65.5"/>
<text text-anchor="middle" x="71" y="-73.5" font-family="Helvetica,sans-Serif" font-size="10.00">ant::Calibration::BaseModule</text>
</a>
</g>
<!-- Node2&#45;&gt;Node1 -->
<g id="edge2" class="edge"><title>Node2&#45;&gt;Node1</title>
<path fill="none" stroke="midnightblue" d="M90.4579,-58.4338C103.52,-46.6419 120.294,-31.4983 131.332,-21.5337"/>
<polygon fill="midnightblue" stroke="midnightblue" points="87.9667,-55.9676 82.8893,-65.2666 92.6574,-61.1635 87.9667,-55.9676"/>
</g>
<!-- Node3 -->
<g id="node4" class="node"><title>Node3</title>
<a xlink:href="classant_1_1_reconstruct_hook_1_1_detector_read_hits.html" target="_top" xlink:title="The DetectorReadHits class instances are applied before hit matching. ">
<polygon fill="white" stroke="black" points="159.5,-59 159.5,-93 272.5,-93 272.5,-59 159.5,-59"/>
<text text-anchor="start" x="167.5" y="-80" font-family="Helvetica,sans-Serif" font-size="10.00">ant::ReconstructHook</text>
<text text-anchor="middle" x="216" y="-67" font-family="Helvetica,sans-Serif" font-size="10.00">::DetectorReadHits</text>
</a>
</g>
<!-- Node3&#45;&gt;Node1 -->
<g id="edge4" class="edge"><title>Node3&#45;&gt;Node1</title>
<path fill="none" stroke="midnightblue" d="M189.056,-52.0092C177.429,-41.656 164.41,-30.0634 155.188,-21.8521"/>
<polygon fill="midnightblue" stroke="midnightblue" points="187.024,-54.886 196.82,-58.922 191.679,-49.658 187.024,-54.886"/>
</g>
<!-- Node4 -->
<g id="node6" class="node"><title>Node4</title>
<a xlink:href="classant_1_1_reconstruct_hook_1_1_base.html" target="_top" xlink:title="The Base class just defines some useful types. ">
<polygon fill="white" stroke="black" points="159.5,-131 159.5,-165 272.5,-165 272.5,-131 159.5,-131"/>
<text text-anchor="start" x="167.5" y="-152" font-family="Helvetica,sans-Serif" font-size="10.00">ant::ReconstructHook</text>
<text text-anchor="middle" x="216" y="-139" font-family="Helvetica,sans-Serif" font-size="10.00">::Base</text>
</a>
</g>
<!-- Node4&#45;&gt;Node3 -->
<g id="edge6" class="edge"><title>Node4&#45;&gt;Node3</title>
<path fill="none" stroke="midnightblue" d="M216,-120.719C216,-111.572 216,-101.625 216,-93.4407"/>
<polygon fill="midnightblue" stroke="midnightblue" points="212.5,-120.937 216,-130.937 219.5,-120.937 212.5,-120.937"/>
</g>
</g>
</svg>
