<?xml version="1.0" encoding="UTF-8" standalone="no"?>
<!DOCTYPE svg PUBLIC "-//W3C//DTD SVG 1.1//EN"
 "http://www.w3.org/Graphics/SVG/1.1/DTD/svg11.dtd">
<!-- Generated by graphviz version 2.26.3 (20100126.1600)
 -->
<!-- Title: ant::analysis::physics::OmegaMCTruePlots Pages: 1 -->
<svg width="894pt" height="145pt"
 viewBox="0.00 0.00 894.00 145.00" xmlns="http://www.w3.org/2000/svg" xmlns:xlink="http://www.w3.org/1999/xlink">
<g id="graph1" class="graph" transform="scale(1 1) rotate(0) translate(4 141)">
<title>ant::analysis::physics::OmegaMCTruePlots</title>
<polygon fill="white" stroke="white" points="-4,5 -4,-141 891,-141 891,5 -4,5"/>
<!-- Node1 -->
<g id="node1" class="node"><title>Node1</title>
<polygon fill="#bfbfbf" stroke="black" points="774,-79 774,-113 886,-113 886,-79 774,-79"/>
<text text-anchor="start" x="782" y="-100" font-family="Helvetica,sans-Serif" font-size="10.00">ant::analysis::physics</text>
<text text-anchor="middle" x="830" y="-87" font-family="Helvetica,sans-Serif" font-size="10.00">::OmegaMCTruePlots</text>
</g>
<!-- Node2 -->
<g id="node2" class="node"><title>Node2</title>
<a xlink:href="classant_1_1analysis_1_1_physics.html" target="_top" xlink:title="ant::analysis::Physics">
<polygon fill="white" stroke="black" points="544.5,-109.5 544.5,-130.5 657.5,-130.5 657.5,-109.5 544.5,-109.5"/>
<text text-anchor="middle" x="601" y="-117.5" font-family="Helvetica,sans-Serif" font-size="10.00">ant::analysis::Physics</text>
</a>
</g>
<!-- Node2&#45;&gt;Node1 -->
<g id="edge2" class="edge"><title>Node2&#45;&gt;Node1</title>
<path fill="none" stroke="midnightblue" d="M667.8,-112.999C701.388,-109.479 741.643,-105.26 773.648,-101.906"/>
<polygon fill="midnightblue" stroke="midnightblue" points="667.187,-109.544 657.607,-114.067 667.917,-116.506 667.187,-109.544"/>
</g>
<!-- Node3 -->
<g id="node4" class="node"><title>Node3</title>
<a xlink:href="classant_1_1analysis_1_1_smart_hist_factory.html" target="_top" xlink:title="ant::analysis::SmartHist\lFactory">
<polygon fill="white" stroke="black" points="278,-103 278,-137 400,-137 400,-103 278,-103"/>
<text text-anchor="start" x="286" y="-124" font-family="Helvetica,sans-Serif" font-size="10.00">ant::analysis::SmartHist</text>
<text text-anchor="middle" x="339" y="-111" font-family="Helvetica,sans-Serif" font-size="10.00">Factory</text>
</a>
</g>
<!-- Node3&#45;&gt;Node2 -->
<g id="edge4" class="edge"><title>Node3&#45;&gt;Node2</title>
<path fill="none" stroke="#9a32cd" stroke-dasharray="5,2" d="M410.289,-120C452.409,-120 505.007,-120 544.291,-120"/>
<polygon fill="#9a32cd" stroke="#9a32cd" points="410.097,-116.5 400.097,-120 410.097,-123.5 410.097,-116.5"/>
<text text-anchor="middle" x="468" y="-124" font-family="Helvetica,sans-Serif" font-size="10.00"> HistFac</text>
</g>
<!-- Node4 -->
<g id="node6" class="node"><title>Node4</title>
<polygon fill="white" stroke="#bfbfbf" points="508,-43.5 508,-90.5 694,-90.5 694,-43.5 508,-43.5"/>
<text text-anchor="start" x="516" y="-77.5" font-family="Helvetica,sans-Serif" font-size="10.00">std::map&lt; std::string,</text>
<text text-anchor="start" x="516" y="-64.5" font-family="Helvetica,sans-Serif" font-size="10.00"> ant::analysis::physics</text>
<text text-anchor="middle" x="601" y="-51.5" font-family="Helvetica,sans-Serif" font-size="10.00">::OmegaMCTruePlots::PerChannel_t &gt;</text>
</g>
<!-- Node4&#45;&gt;Node1 -->
<g id="edge6" class="edge"><title>Node4&#45;&gt;Node1</title>
<path fill="none" stroke="#9a32cd" stroke-dasharray="5,2" d="M704.176,-79.467C721.483,-81.6099 739.254,-83.8423 756,-86 761.786,-86.7455 767.824,-87.538 773.848,-88.3378"/>
<polygon fill="#9a32cd" stroke="#9a32cd" points="704.405,-75.9687 694.051,-78.2168 703.547,-82.916 704.405,-75.9687"/>
<text text-anchor="middle" x="734" y="-90" font-family="Helvetica,sans-Serif" font-size="10.00"> channels</text>
</g>
<!-- Node5 -->
<g id="node8" class="node"><title>Node5</title>
<a xlink:title="STL class. ">
<polygon fill="white" stroke="#bfbfbf" points="134,-44.5 134,-65.5 194,-65.5 194,-44.5 134,-44.5"/>
<text text-anchor="middle" x="164" y="-52.5" font-family="Helvetica,sans-Serif" font-size="10.00">std::string</text>
</a>
</g>
<!-- Node5&#45;&gt;Node4 -->
<g id="edge8" class="edge"><title>Node5&#45;&gt;Node4</title>
<path fill="none" stroke="#9a32cd" stroke-dasharray="5,2" d="M204.403,-56.1095C272.973,-57.9924 413.826,-61.8602 507.862,-64.4424"/>
<polygon fill="#9a32cd" stroke="#9a32cd" points="204.129,-52.6007 194.037,-55.8248 203.937,-59.5981 204.129,-52.6007"/>
<text text-anchor="middle" x="339" y="-66" font-family="Helvetica,sans-Serif" font-size="10.00"> keys</text>
</g>
<!-- Node7 -->
<g id="node12" class="node"><title>Node7</title>
<a xlink:href="structant_1_1analysis_1_1physics_1_1_omega_m_c_true_plots_1_1_per_channel__t.html" target="_top" xlink:title="ant::analysis::physics\l::OmegaMCTruePlots::PerChannel_t">
<polygon fill="white" stroke="black" points="250.5,-0 250.5,-34 427.5,-34 427.5,-0 250.5,-0"/>
<text text-anchor="start" x="258.5" y="-21" font-family="Helvetica,sans-Serif" font-size="10.00">ant::analysis::physics</text>
<text text-anchor="middle" x="339" y="-8" font-family="Helvetica,sans-Serif" font-size="10.00">::OmegaMCTruePlots::PerChannel_t</text>
</a>
</g>
<!-- Node5&#45;&gt;Node7 -->
<g id="edge14" class="edge"><title>Node5&#45;&gt;Node7</title>
<path fill="none" stroke="#9a32cd" stroke-dasharray="5,2" d="M203.972,-44.8692C206.686,-44.2239 209.381,-43.5951 212,-43 225.278,-39.9827 239.372,-36.9394 253.157,-34.0509"/>
<polygon fill="#9a32cd" stroke="#9a32cd" points="203.06,-41.4889 194.167,-47.2478 204.71,-48.2916 203.06,-41.4889"/>
<text text-anchor="middle" x="222" y="-47" font-family="Helvetica,sans-Serif" font-size="10.00"> title</text>
</g>
<!-- Node6 -->
<g id="node10" class="node"><title>Node6</title>
<a xlink:title="STL class. ">
<polygon fill="white" stroke="#bfbfbf" points="0.5,-38 0.5,-72 95.5,-72 95.5,-38 0.5,-38"/>
<text text-anchor="start" x="8.5" y="-59" font-family="Helvetica,sans-Serif" font-size="10.00">std::basic_string&lt;</text>
<text text-anchor="middle" x="48" y="-46" font-family="Helvetica,sans-Serif" font-size="10.00"> char &gt;</text>
</a>
</g>
<!-- Node6&#45;&gt;Node5 -->
<g id="edge10" class="edge"><title>Node6&#45;&gt;Node5</title>
<path fill="none" stroke="midnightblue" d="M105.582,-55C115.29,-55 125.014,-55 133.666,-55"/>
<polygon fill="midnightblue" stroke="midnightblue" points="105.516,-51.5001 95.5163,-55 105.516,-58.5001 105.516,-51.5001"/>
</g>
<!-- Node7&#45;&gt;Node4 -->
<g id="edge12" class="edge"><title>Node7&#45;&gt;Node4</title>
<path fill="none" stroke="#9a32cd" stroke-dasharray="5,2" d="M437.906,-33.4107C455.289,-36.4716 473.191,-39.7373 490,-43 495.806,-44.1271 501.776,-45.3196 507.792,-46.5467"/>
<polygon fill="#9a32cd" stroke="#9a32cd" points="438.197,-29.9084 427.743,-31.6337 436.991,-36.8038 438.197,-29.9084"/>
<text text-anchor="middle" x="468" y="-47" font-family="Helvetica,sans-Serif" font-size="10.00"> elements</text>
</g>
</g>
</svg>
