<?xml version="1.0" encoding="UTF-8" standalone="no"?>
<!DOCTYPE svg PUBLIC "-//W3C//DTD SVG 1.1//EN"
 "http://www.w3.org/Graphics/SVG/1.1/DTD/svg11.dtd">
<!-- Generated by graphviz version 2.26.3 (20100126.1600)
 -->
<!-- Title: ant::canvas Pages: 1 -->
<svg width="393pt" height="188pt"
 viewBox="0.00 0.00 393.00 188.00" xmlns="http://www.w3.org/2000/svg" xmlns:xlink="http://www.w3.org/1999/xlink">
<g id="graph1" class="graph" transform="scale(1 1) rotate(0) translate(4 184)">
<title>ant::canvas</title>
<polygon fill="white" stroke="white" points="-4,5 -4,-184 390,-184 390,5 -4,5"/>
<!-- Node1 -->
<g id="node1" class="node"><title>Node1</title>
<polygon fill="#bfbfbf" stroke="black" points="166,-0.5 166,-21.5 234,-21.5 234,-0.5 166,-0.5"/>
<text text-anchor="middle" x="200" y="-8.5" font-family="Helvetica,sans-Serif" font-size="10.00">ant::canvas</text>
</g>
<!-- Node2 -->
<g id="node2" class="node"><title>Node2</title>
<polygon fill="white" stroke="#bfbfbf" points="0,-84.5 0,-105.5 124,-105.5 124,-84.5 0,-84.5"/>
<text text-anchor="middle" x="62" y="-92.5" font-family="Helvetica,sans-Serif" font-size="10.00">std::list&lt; ObjectOption &gt;</text>
</g>
<!-- Node2&#45;&gt;Node1 -->
<g id="edge2" class="edge"><title>Node2&#45;&gt;Node1</title>
<path fill="none" stroke="#9a32cd" stroke-dasharray="5,2" d="M88.2475,-79.0233C115.971,-62.1481 158.891,-36.0228 182.664,-21.5523"/>
<polygon fill="#9a32cd" stroke="#9a32cd" points="86.2,-76.1721 79.4778,-84.3613 89.8396,-82.1515 86.2,-76.1721"/>
<text text-anchor="middle" x="162" y="-50.5" font-family="Helvetica,sans-Serif" font-size="10.00"> objs</text>
</g>
<!-- Node3 -->
<g id="node4" class="node"><title>Node3</title>
<polygon fill="white" stroke="#bfbfbf" points="141.5,-84.5 141.5,-105.5 258.5,-105.5 258.5,-84.5 141.5,-84.5"/>
<text text-anchor="middle" x="200" y="-92.5" font-family="Helvetica,sans-Serif" font-size="10.00">std::list&lt; padoption_t &gt;</text>
</g>
<!-- Node3&#45;&gt;Node1 -->
<g id="edge4" class="edge"><title>Node3&#45;&gt;Node1</title>
<path fill="none" stroke="#9a32cd" stroke-dasharray="5,2" d="M200,-73.9452C200,-57.2568 200,-34.6387 200,-21.5523"/>
<polygon fill="#9a32cd" stroke="#9a32cd" points="196.5,-74.3613 200,-84.3613 203.5,-74.3614 196.5,-74.3613"/>
<text text-anchor="middle" x="243" y="-50.5" font-family="Helvetica,sans-Serif" font-size="10.00"> current_padoptions</text>
</g>
<!-- Node4 -->
<g id="node6" class="node"><title>Node4</title>
<a xlink:title="STL class. ">
<polygon fill="white" stroke="#bfbfbf" points="279,-84.5 279,-105.5 339,-105.5 339,-84.5 279,-84.5"/>
<text text-anchor="middle" x="309" y="-92.5" font-family="Helvetica,sans-Serif" font-size="10.00">std::string</text>
</a>
</g>
<!-- Node4&#45;&gt;Node1 -->
<g id="edge6" class="edge"><title>Node4&#45;&gt;Node1</title>
<path fill="none" stroke="#9a32cd" stroke-dasharray="5,2" d="M305.133,-74.0877C302.018,-62.6332 296.526,-48.9822 287,-40 272.636,-26.4562 251.775,-19.229 234.082,-15.3768"/>
<polygon fill="#9a32cd" stroke="#9a32cd" points="301.799,-75.2075 307.445,-84.1727 308.622,-73.6435 301.799,-75.2075"/>
<text text-anchor="middle" x="343.5" y="-57" font-family="Helvetica,sans-Serif" font-size="10.00"> name</text>
<text text-anchor="middle" x="343.5" y="-44" font-family="Helvetica,sans-Serif" font-size="10.00">current_drawoption</text>
</g>
<!-- Node5 -->
<g id="node8" class="node"><title>Node5</title>
<a xlink:title="STL class. ">
<polygon fill="white" stroke="#bfbfbf" points="261.5,-145 261.5,-179 356.5,-179 356.5,-145 261.5,-145"/>
<text text-anchor="start" x="269.5" y="-166" font-family="Helvetica,sans-Serif" font-size="10.00">std::basic_string&lt;</text>
<text text-anchor="middle" x="309" y="-153" font-family="Helvetica,sans-Serif" font-size="10.00"> char &gt;</text>
</a>
</g>
<!-- Node5&#45;&gt;Node4 -->
<g id="edge8" class="edge"><title>Node5&#45;&gt;Node4</title>
<path fill="none" stroke="midnightblue" d="M309,-134.534C309,-124.306 309,-113.301 309,-105.506"/>
<polygon fill="midnightblue" stroke="midnightblue" points="305.5,-134.746 309,-144.746 312.5,-134.746 305.5,-134.746"/>
</g>
</g>
</svg>
