<?xml version="1.0" encoding="UTF-8" standalone="no"?>
<!DOCTYPE svg PUBLIC "-//W3C//DTD SVG 1.1//EN"
 "http://www.w3.org/Graphics/SVG/1.1/DTD/svg11.dtd">
<!-- Generated by graphviz version 2.26.3 (20100126.1600)
 -->
<!-- Title: ant::hstack Pages: 1 -->
<svg width="199pt" height="216pt"
 viewBox="0.00 0.00 199.00 216.00" xmlns="http://www.w3.org/2000/svg" xmlns:xlink="http://www.w3.org/1999/xlink">
<g id="graph1" class="graph" transform="scale(1 1) rotate(0) translate(4 212)">
<title>ant::hstack</title>
<polygon fill="white" stroke="white" points="-4,5 -4,-212 196,-212 196,5 -4,5"/>
<!-- Node1 -->
<g id="node1" class="node"><title>Node1</title>
<polygon fill="#bfbfbf" stroke="black" points="47.5,-0.5 47.5,-21.5 112.5,-21.5 112.5,-0.5 47.5,-0.5"/>
<text text-anchor="middle" x="80" y="-8.5" font-family="Helvetica,sans-Serif" font-size="10.00">ant::hstack</text>
</g>
<!-- Node2 -->
<g id="node2" class="node"><title>Node2</title>
<a xlink:href="classant_1_1root__drawable__traits.html" target="_top" xlink:title="ant::root_drawable\l_traits">
<polygon fill="white" stroke="black" points="-0.5,-99 -0.5,-133 96.5,-133 96.5,-99 -0.5,-99"/>
<text text-anchor="start" x="7.5" y="-120" font-family="Helvetica,sans-Serif" font-size="10.00">ant::root_drawable</text>
<text text-anchor="middle" x="48" y="-107" font-family="Helvetica,sans-Serif" font-size="10.00">_traits</text>
</a>
</g>
<!-- Node2&#45;&gt;Node1 -->
<g id="edge2" class="edge"><title>Node2&#45;&gt;Node1</title>
<path fill="none" stroke="midnightblue" d="M56.2535,-88.9181C62.9354,-66.9934 71.9929,-37.2731 76.7593,-21.6336"/>
<polygon fill="midnightblue" stroke="midnightblue" points="52.8515,-88.0754 53.2841,-98.6614 59.5474,-90.1161 52.8515,-88.0754"/>
</g>
<!-- Node3 -->
<g id="node4" class="node"><title>Node3</title>
<a xlink:title="STL class. ">
<polygon fill="white" stroke="#bfbfbf" points="114,-105.5 114,-126.5 174,-126.5 174,-105.5 114,-105.5"/>
<text text-anchor="middle" x="144" y="-113.5" font-family="Helvetica,sans-Serif" font-size="10.00">std::string</text>
</a>
</g>
<!-- Node3&#45;&gt;Node1 -->
<g id="edge4" class="edge"><title>Node3&#45;&gt;Node1</title>
<path fill="none" stroke="#9a32cd" stroke-dasharray="5,2" d="M132.166,-96.5853C118.695,-74.484 97.1758,-39.179 86.4768,-21.626"/>
<polygon fill="#9a32cd" stroke="#9a32cd" points="129.199,-98.4414 137.392,-105.159 135.176,-94.7981 129.199,-98.4414"/>
<text text-anchor="middle" x="152" y="-70.5" font-family="Helvetica,sans-Serif" font-size="10.00"> ylabel</text>
<text text-anchor="middle" x="152" y="-57.5" font-family="Helvetica,sans-Serif" font-size="10.00">xlabel</text>
<text text-anchor="middle" x="152" y="-44.5" font-family="Helvetica,sans-Serif" font-size="10.00">current_option</text>
</g>
<!-- Node4 -->
<g id="node6" class="node"><title>Node4</title>
<a xlink:title="STL class. ">
<polygon fill="white" stroke="#bfbfbf" points="96.5,-173 96.5,-207 191.5,-207 191.5,-173 96.5,-173"/>
<text text-anchor="start" x="104.5" y="-194" font-family="Helvetica,sans-Serif" font-size="10.00">std::basic_string&lt;</text>
<text text-anchor="middle" x="144" y="-181" font-family="Helvetica,sans-Serif" font-size="10.00"> char &gt;</text>
</a>
</g>
<!-- Node4&#45;&gt;Node3 -->
<g id="edge6" class="edge"><title>Node4&#45;&gt;Node3</title>
<path fill="none" stroke="midnightblue" d="M144,-162.506C144,-150.13 144,-136.232 144,-126.879"/>
<polygon fill="midnightblue" stroke="midnightblue" points="140.5,-162.837 144,-172.837 147.5,-162.837 140.5,-162.837"/>
</g>
</g>
</svg>
