<?xml version="1.0" encoding="UTF-8" standalone="no"?>
<!DOCTYPE svg PUBLIC "-//W3C//DTD SVG 1.1//EN"
 "http://www.w3.org/Graphics/SVG/1.1/DTD/svg11.dtd">
<!-- Generated by graphviz version 2.26.3 (20100126.1600)
 -->
<!-- Title: ant::simulation::mc::ManagedPlutoReaction Pages: 1 -->
<svg width="238pt" height="116pt"
 viewBox="0.00 0.00 238.00 116.00" xmlns="http://www.w3.org/2000/svg" xmlns:xlink="http://www.w3.org/1999/xlink">
<g id="graph1" class="graph" transform="scale(1 1) rotate(0) translate(4 112)">
<title>ant::simulation::mc::ManagedPlutoReaction</title>
<polygon fill="white" stroke="white" points="-4,5 -4,-112 235,-112 235,5 -4,5"/>
<!-- Node1 -->
<g id="node1" class="node"><title>Node1</title>
<polygon fill="#bfbfbf" stroke="black" points="50,-73 50,-107 174,-107 174,-73 50,-73"/>
<text text-anchor="start" x="58" y="-94" font-family="Helvetica,sans-Serif" font-size="10.00">ant::simulation::mc</text>
<text text-anchor="middle" x="112" y="-81" font-family="Helvetica,sans-Serif" font-size="10.00">::ManagedPlutoReaction</text>
</g>
<!-- Node2 -->
<g id="node3" class="node"><title>Node2</title>
<a xlink:href="classant_1_1simulation_1_1mc_1_1_a2_cocktail.html" target="_top" xlink:title="The A2Cocktail. ">
<polygon fill="white" stroke="black" points="0,-1 0,-35 100,-35 100,-1 0,-1"/>
<text text-anchor="start" x="8" y="-22" font-family="Helvetica,sans-Serif" font-size="10.00">ant::simulation::mc</text>
<text text-anchor="middle" x="50" y="-9" font-family="Helvetica,sans-Serif" font-size="10.00">::A2Cocktail</text>
</a>
</g>
<!-- Node1&#45;&gt;Node2 -->
<g id="edge2" class="edge"><title>Node1&#45;&gt;Node2</title>
<path fill="none" stroke="midnightblue" d="M90.5461,-65.0858C82.1325,-55.3151 72.6793,-44.3372 65.0184,-35.4407"/>
<polygon fill="midnightblue" stroke="midnightblue" points="88.1294,-67.6431 97.3069,-72.937 93.4338,-63.0755 88.1294,-67.6431"/>
</g>
<!-- Node3 -->
<g id="node5" class="node"><title>Node3</title>
<a xlink:href="classant_1_1simulation_1_1mc_1_1_fixed_energy_cocktail.html" target="_top" xlink:title="The A2OldCocktail class generates MC events for a fixed energy, using the Pluto class PDecayManager...">
<polygon fill="white" stroke="black" points="117.5,-1 117.5,-35 230.5,-35 230.5,-1 117.5,-1"/>
<text text-anchor="start" x="125.5" y="-22" font-family="Helvetica,sans-Serif" font-size="10.00">ant::simulation::mc</text>
<text text-anchor="middle" x="174" y="-9" font-family="Helvetica,sans-Serif" font-size="10.00">::FixedEnergyCocktail</text>
</a>
</g>
<!-- Node1&#45;&gt;Node3 -->
<g id="edge4" class="edge"><title>Node1&#45;&gt;Node3</title>
<path fill="none" stroke="midnightblue" d="M133.454,-65.0858C141.868,-55.3151 151.321,-44.3372 158.982,-35.4407"/>
<polygon fill="midnightblue" stroke="midnightblue" points="130.566,-63.0755 126.693,-72.937 135.871,-67.6431 130.566,-63.0755"/>
</g>
</g>
</svg>
