<?xml version="1.0" encoding="UTF-8" standalone="no"?>
<!DOCTYPE svg PUBLIC "-//W3C//DTD SVG 1.1//EN"
 "http://www.w3.org/Graphics/SVG/1.1/DTD/svg11.dtd">
<!-- Generated by graphviz version 2.26.3 (20100126.1600)
 -->
<!-- Title: ant::calibration::gui::DialogHandler_traits Pages: 1 -->
<svg width="118pt" height="116pt"
 viewBox="0.00 0.00 118.00 116.00" xmlns="http://www.w3.org/2000/svg" xmlns:xlink="http://www.w3.org/1999/xlink">
<g id="graph1" class="graph" transform="scale(1 1) rotate(0) translate(4 112)">
<title>ant::calibration::gui::DialogHandler_traits</title>
<polygon fill="white" stroke="white" points="-4,5 -4,-112 115,-112 115,5 -4,5"/>
<!-- Node1 -->
<g id="node1" class="node"><title>Node1</title>
<polygon fill="#bfbfbf" stroke="black" points="-0.5,-73 -0.5,-107 110.5,-107 110.5,-73 -0.5,-73"/>
<text text-anchor="start" x="7.5" y="-94" font-family="Helvetica,sans-Serif" font-size="10.00">ant::calibration::gui</text>
<text text-anchor="middle" x="55" y="-81" font-family="Helvetica,sans-Serif" font-size="10.00">::DialogHandler_traits</text>
</g>
<!-- Node2 -->
<g id="node3" class="node"><title>Node2</title>
<a xlink:href="classant_1_1calibration_1_1gui_1_1_a_c_e_canvas.html" target="_top" xlink:title="ant::calibration::gui\l::ACECanvas">
<polygon fill="white" stroke="black" points="5.5,-1 5.5,-35 104.5,-35 104.5,-1 5.5,-1"/>
<text text-anchor="start" x="13.5" y="-22" font-family="Helvetica,sans-Serif" font-size="10.00">ant::calibration::gui</text>
<text text-anchor="middle" x="55" y="-9" font-family="Helvetica,sans-Serif" font-size="10.00">::ACECanvas</text>
</a>
</g>
<!-- Node1&#45;&gt;Node2 -->
<g id="edge2" class="edge"><title>Node1&#45;&gt;Node2</title>
<path fill="none" stroke="midnightblue" d="M55,-62.7193C55,-53.572 55,-43.6255 55,-35.4407"/>
<polygon fill="midnightblue" stroke="midnightblue" points="51.5001,-62.937 55,-72.937 58.5001,-62.937 51.5001,-62.937"/>
</g>
</g>
</svg>
