<?xml version="1.0" encoding="UTF-8" standalone="no"?>
<!DOCTYPE svg PUBLIC "-//W3C//DTD SVG 1.1//EN"
 "http://www.w3.org/Graphics/SVG/1.1/DTD/svg11.dtd">
<!-- Generated by graphviz version 2.26.3 (20100126.1600)
 -->
<!-- Title: ant::analysis::data::Cluster Pages: 1 -->
<svg width="870pt" height="217pt"
 viewBox="0.00 0.00 870.00 217.00" xmlns="http://www.w3.org/2000/svg" xmlns:xlink="http://www.w3.org/1999/xlink">
<g id="graph1" class="graph" transform="scale(1 1) rotate(0) translate(4 213)">
<title>ant::analysis::data::Cluster</title>
<polygon fill="white" stroke="white" points="-4,5 -4,-213 867,-213 867,5 -4,5"/>
<!-- Node1 -->
<g id="node1" class="node"><title>Node1</title>
<polygon fill="#bfbfbf" stroke="black" points="764.5,-123 764.5,-157 861.5,-157 861.5,-123 764.5,-123"/>
<text text-anchor="start" x="772.5" y="-144" font-family="Helvetica,sans-Serif" font-size="10.00">ant::analysis::data</text>
<text text-anchor="middle" x="813" y="-131" font-family="Helvetica,sans-Serif" font-size="10.00">::Cluster</text>
</g>
<!-- Node2 -->
<g id="node2" class="node"><title>Node2</title>
<a xlink:href="structant_1_1enumfield.html" target="_top" xlink:title="ant::enumfield\&lt; Flag,\l std::int32_t \&gt;">
<polygon fill="white" stroke="black" points="574.5,-175 574.5,-209 683.5,-209 683.5,-175 574.5,-175"/>
<text text-anchor="start" x="582.5" y="-196" font-family="Helvetica,sans-Serif" font-size="10.00">ant::enumfield&lt; Flag,</text>
<text text-anchor="middle" x="629" y="-183" font-family="Helvetica,sans-Serif" font-size="10.00"> std::int32_t &gt;</text>
</a>
</g>
<!-- Node2&#45;&gt;Node1 -->
<g id="edge2" class="edge"><title>Node2&#45;&gt;Node1</title>
<path fill="none" stroke="#9a32cd" stroke-dasharray="5,2" d="M693.52,-173.766C716.83,-167.178 742.732,-159.858 764.444,-153.722"/>
<polygon fill="#9a32cd" stroke="#9a32cd" points="692.379,-170.451 683.708,-176.539 694.283,-177.188 692.379,-170.451"/>
<text text-anchor="middle" x="725" y="-174" font-family="Helvetica,sans-Serif" font-size="10.00"> flags</text>
</g>
<!-- Node3 -->
<g id="node4" class="node"><title>Node3</title>
<polygon fill="white" stroke="#bfbfbf" points="572.5,-123 572.5,-157 685.5,-157 685.5,-123 572.5,-123"/>
<text text-anchor="start" x="580.5" y="-144" font-family="Helvetica,sans-Serif" font-size="10.00">std::list&lt; ant::analysis</text>
<text text-anchor="middle" x="629" y="-131" font-family="Helvetica,sans-Serif" font-size="10.00">::data::Cluster::Hit &gt;</text>
</g>
<!-- Node3&#45;&gt;Node1 -->
<g id="edge4" class="edge"><title>Node3&#45;&gt;Node1</title>
<path fill="none" stroke="#9a32cd" stroke-dasharray="5,2" d="M695.918,-140C718.523,-140 743.316,-140 764.244,-140"/>
<polygon fill="#9a32cd" stroke="#9a32cd" points="695.707,-136.5 685.707,-140 695.707,-143.5 695.707,-136.5"/>
<text text-anchor="middle" x="725" y="-144" font-family="Helvetica,sans-Serif" font-size="10.00"> Hits</text>
</g>
<!-- Node4 -->
<g id="node6" class="node"><title>Node4</title>
<a xlink:href="structant_1_1analysis_1_1data_1_1_cluster_1_1_hit.html" target="_top" xlink:title="ant::analysis::data\l::Cluster::Hit">
<polygon fill="white" stroke="black" points="393.5,-123 393.5,-157 490.5,-157 490.5,-123 393.5,-123"/>
<text text-anchor="start" x="401.5" y="-144" font-family="Helvetica,sans-Serif" font-size="10.00">ant::analysis::data</text>
<text text-anchor="middle" x="442" y="-131" font-family="Helvetica,sans-Serif" font-size="10.00">::Cluster::Hit</text>
</a>
</g>
<!-- Node4&#45;&gt;Node3 -->
<g id="edge6" class="edge"><title>Node4&#45;&gt;Node3</title>
<path fill="none" stroke="#9a32cd" stroke-dasharray="5,2" d="M500.877,-140C523.691,-140 549.708,-140 572.31,-140"/>
<polygon fill="#9a32cd" stroke="#9a32cd" points="500.644,-136.5 490.644,-140 500.644,-143.5 500.644,-136.5"/>
<text text-anchor="middle" x="532" y="-144" font-family="Helvetica,sans-Serif" font-size="10.00"> elements</text>
</g>
<!-- Node5 -->
<g id="node8" class="node"><title>Node5</title>
<polygon fill="white" stroke="#bfbfbf" points="188,-123 188,-157 330,-157 330,-123 188,-123"/>
<text text-anchor="start" x="196" y="-144" font-family="Helvetica,sans-Serif" font-size="10.00">std::list&lt; ant::analysis</text>
<text text-anchor="middle" x="259" y="-131" font-family="Helvetica,sans-Serif" font-size="10.00">::data::Cluster::Hit::Datum &gt;</text>
</g>
<!-- Node5&#45;&gt;Node4 -->
<g id="edge8" class="edge"><title>Node5&#45;&gt;Node4</title>
<path fill="none" stroke="#9a32cd" stroke-dasharray="5,2" d="M340.046,-140C358.24,-140 376.993,-140 393.376,-140"/>
<polygon fill="#9a32cd" stroke="#9a32cd" points="340.015,-136.5 330.015,-140 340.014,-143.5 340.015,-136.5"/>
<text text-anchor="middle" x="361" y="-144" font-family="Helvetica,sans-Serif" font-size="10.00"> Data</text>
</g>
<!-- Node6 -->
<g id="node10" class="node"><title>Node6</title>
<a xlink:href="structant_1_1analysis_1_1data_1_1_cluster_1_1_hit_1_1_datum.html" target="_top" xlink:title="ant::analysis::data\l::Cluster::Hit::Datum">
<polygon fill="white" stroke="black" points="0,-123 0,-157 108,-157 108,-123 0,-123"/>
<text text-anchor="start" x="8" y="-144" font-family="Helvetica,sans-Serif" font-size="10.00">ant::analysis::data</text>
<text text-anchor="middle" x="54" y="-131" font-family="Helvetica,sans-Serif" font-size="10.00">::Cluster::Hit::Datum</text>
</a>
</g>
<!-- Node6&#45;&gt;Node5 -->
<g id="edge10" class="edge"><title>Node6&#45;&gt;Node5</title>
<path fill="none" stroke="#9a32cd" stroke-dasharray="5,2" d="M118.399,-140C140.493,-140 165.34,-140 187.931,-140"/>
<polygon fill="#9a32cd" stroke="#9a32cd" points="118.13,-136.5 108.129,-140 118.129,-143.5 118.13,-136.5"/>
<text text-anchor="middle" x="148" y="-144" font-family="Helvetica,sans-Serif" font-size="10.00"> elements</text>
</g>
<!-- Node7 -->
<g id="node12" class="node"><title>Node7</title>
<a xlink:href="structant_1_1_detector__t_1_1_any__t.html" target="_top" xlink:title="ant::Detector_t::Any_t">
<polygon fill="white" stroke="black" points="572.5,-0.5 572.5,-21.5 685.5,-21.5 685.5,-0.5 572.5,-0.5"/>
<text text-anchor="middle" x="629" y="-8.5" font-family="Helvetica,sans-Serif" font-size="10.00">ant::Detector_t::Any_t</text>
</a>
</g>
<!-- Node7&#45;&gt;Node1 -->
<g id="edge12" class="edge"><title>Node7&#45;&gt;Node1</title>
<path fill="none" stroke="#9a32cd" stroke-dasharray="5,2" d="M652.684,-27.6047C687.731,-52.1752 753.07,-97.9842 788.551,-122.859"/>
<polygon fill="#9a32cd" stroke="#9a32cd" points="654.255,-24.4314 644.057,-21.5566 650.236,-30.1631 654.255,-24.4314"/>
<text text-anchor="middle" x="725" y="-94" font-family="Helvetica,sans-Serif" font-size="10.00"> Detector</text>
</g>
<!-- Node7&#45;&gt;Node7 -->
<g id="edge16" class="edge"><title>Node7&#45;&gt;Node7</title>
<path fill="none" stroke="#9a32cd" stroke-dasharray="5,2" d="M611.308,-31.4266C612.673,-36.3489 618.57,-40 629,-40 645.688,-40 650.772,-30.6531 644.253,-21.7079"/>
<polygon fill="#9a32cd" stroke="#9a32cd" points="614.708,-32.259 613.747,-21.7079 607.918,-30.5555 614.708,-32.259"/>
<text text-anchor="middle" x="629" y="-96" font-family="Helvetica,sans-Serif" font-size="10.00"> TAPS</text>
<text text-anchor="middle" x="629" y="-83" font-family="Helvetica,sans-Serif" font-size="10.00">None</text>
<text text-anchor="middle" x="629" y="-70" font-family="Helvetica,sans-Serif" font-size="10.00">Veto</text>
<text text-anchor="middle" x="629" y="-57" font-family="Helvetica,sans-Serif" font-size="10.00">MWPC</text>
<text text-anchor="middle" x="629" y="-44" font-family="Helvetica,sans-Serif" font-size="10.00">CB</text>
</g>
<!-- Node8 -->
<g id="node14" class="node"><title>Node8</title>
<a xlink:href="classant_1_1printable__traits.html" target="_top" xlink:title="ant::printable_traits">
<polygon fill="white" stroke="black" points="392,-0.5 392,-21.5 492,-21.5 492,-0.5 392,-0.5"/>
<text text-anchor="middle" x="442" y="-8.5" font-family="Helvetica,sans-Serif" font-size="10.00">ant::printable_traits</text>
</a>
</g>
<!-- Node8&#45;&gt;Node7 -->
<g id="edge14" class="edge"><title>Node8&#45;&gt;Node7</title>
<path fill="none" stroke="midnightblue" d="M502.238,-11C524.778,-11 550.283,-11 572.476,-11"/>
<polygon fill="midnightblue" stroke="midnightblue" points="502.113,-7.5001 492.113,-11 502.113,-14.5001 502.113,-7.5001"/>
</g>
</g>
</svg>
