<?xml version="1.0" encoding="UTF-8" standalone="no"?>
<!DOCTYPE svg PUBLIC "-//W3C//DTD SVG 1.1//EN"
 "http://www.w3.org/Graphics/SVG/1.1/DTD/svg11.dtd">
<!-- Generated by graphviz version 2.26.3 (20100126.1600)
 -->
<!-- Title: ant::calibration::CB_TimeWalk Pages: 1 -->
<svg width="670pt" height="186pt"
 viewBox="0.00 0.00 670.00 186.00" xmlns="http://www.w3.org/2000/svg" xmlns:xlink="http://www.w3.org/1999/xlink">
<g id="graph1" class="graph" transform="scale(1 1) rotate(0) translate(4 182)">
<title>ant::calibration::CB_TimeWalk</title>
<polygon fill="white" stroke="white" points="-4,5 -4,-182 667,-182 667,5 -4,5"/>
<!-- Node1 -->
<g id="node1" class="node"><title>Node1</title>
<polygon fill="#bfbfbf" stroke="black" points="560.5,-52 560.5,-86 661.5,-86 661.5,-52 560.5,-52"/>
<text text-anchor="start" x="568.5" y="-73" font-family="Helvetica,sans-Serif" font-size="10.00">ant::calibration::CB</text>
<text text-anchor="middle" x="611" y="-60" font-family="Helvetica,sans-Serif" font-size="10.00">_TimeWalk</text>
</g>
<!-- Node2 -->
<g id="node2" class="node"><title>Node2</title>
<a xlink:href="classant_1_1_calibration_1_1_module.html" target="_top" xlink:title="The Module class is typically used for calibrations. ">
<polygon fill="white" stroke="black" points="350,-104.5 350,-125.5 470,-125.5 470,-104.5 350,-104.5"/>
<text text-anchor="middle" x="410" y="-112.5" font-family="Helvetica,sans-Serif" font-size="10.00">ant::Calibration::Module</text>
</a>
</g>
<!-- Node2&#45;&gt;Node1 -->
<g id="edge2" class="edge"><title>Node2&#45;&gt;Node1</title>
<path fill="none" stroke="midnightblue" d="M465.865,-102.215C495.407,-95.4541 531.407,-87.2154 560.162,-80.6347"/>
<polygon fill="midnightblue" stroke="midnightblue" points="465.081,-98.8039 456.113,-104.447 466.642,-105.628 465.081,-98.8039"/>
</g>
<!-- Node3 -->
<g id="node4" class="node"><title>Node3</title>
<a xlink:href="classant_1_1_calibration_1_1_physics_module.html" target="_top" xlink:title="The PhysicsModule class gives the modules the ability to create histograms from events as well as fit...">
<polygon fill="white" stroke="black" points="182,-144 182,-178 306,-178 306,-144 182,-144"/>
<text text-anchor="start" x="190" y="-165" font-family="Helvetica,sans-Serif" font-size="10.00">ant::Calibration::Physics</text>
<text text-anchor="middle" x="244" y="-152" font-family="Helvetica,sans-Serif" font-size="10.00">Module</text>
</a>
</g>
<!-- Node3&#45;&gt;Node2 -->
<g id="edge4" class="edge"><title>Node3&#45;&gt;Node2</title>
<path fill="none" stroke="midnightblue" d="M315.519,-141.182C334.854,-135.824 355.036,-130.231 371.76,-125.597"/>
<polygon fill="midnightblue" stroke="midnightblue" points="314.514,-137.828 305.812,-143.871 316.384,-144.574 314.514,-137.828"/>
</g>
<!-- Node4 -->
<g id="node6" class="node"><title>Node4</title>
<a xlink:href="classant_1_1_calibration_1_1_base_module.html" target="_top" xlink:title="The BaseModule class provides a name for identification. ">
<polygon fill="white" stroke="black" points="0.5,-150.5 0.5,-171.5 143.5,-171.5 143.5,-150.5 0.5,-150.5"/>
<text text-anchor="middle" x="72" y="-158.5" font-family="Helvetica,sans-Serif" font-size="10.00">ant::Calibration::BaseModule</text>
</a>
</g>
<!-- Node4&#45;&gt;Node3 -->
<g id="edge6" class="edge"><title>Node4&#45;&gt;Node3</title>
<path fill="none" stroke="midnightblue" d="M154.063,-161C163.428,-161 172.856,-161 181.9,-161"/>
<polygon fill="midnightblue" stroke="midnightblue" points="153.947,-157.5 143.947,-161 153.947,-164.5 153.947,-157.5"/>
</g>
<!-- Node5 -->
<g id="node8" class="node"><title>Node5</title>
<a xlink:href="classant_1_1_updateable__traits.html" target="_top" xlink:title="The Updateable_traits class used by the UpdateableManager. ">
<polygon fill="white" stroke="black" points="187.5,-104.5 187.5,-125.5 300.5,-125.5 300.5,-104.5 187.5,-104.5"/>
<text text-anchor="middle" x="244" y="-112.5" font-family="Helvetica,sans-Serif" font-size="10.00">ant::Updateable_traits</text>
</a>
</g>
<!-- Node5&#45;&gt;Node2 -->
<g id="edge8" class="edge"><title>Node5&#45;&gt;Node2</title>
<path fill="none" stroke="midnightblue" d="M310.874,-115C323.783,-115 337.232,-115 349.908,-115"/>
<polygon fill="midnightblue" stroke="midnightblue" points="310.664,-111.5 300.663,-115 310.663,-118.5 310.664,-111.5"/>
</g>
<!-- Node6 -->
<g id="node10" class="node"><title>Node6</title>
<a xlink:href="classant_1_1_reconstruct_hook_1_1_cluster_hits.html" target="_top" xlink:title="The ClusterHits class instances are applied before clustering and after hit matching. ">
<polygon fill="white" stroke="black" points="353.5,-52 353.5,-86 466.5,-86 466.5,-52 353.5,-52"/>
<text text-anchor="start" x="361.5" y="-73" font-family="Helvetica,sans-Serif" font-size="10.00">ant::ReconstructHook</text>
<text text-anchor="middle" x="410" y="-60" font-family="Helvetica,sans-Serif" font-size="10.00">::ClusterHits</text>
</a>
</g>
<!-- Node6&#45;&gt;Node1 -->
<g id="edge10" class="edge"><title>Node6&#45;&gt;Node1</title>
<path fill="none" stroke="midnightblue" d="M476.77,-69C504.033,-69 535.042,-69 560.383,-69"/>
<polygon fill="midnightblue" stroke="midnightblue" points="476.525,-65.5001 466.525,-69 476.525,-72.5001 476.525,-65.5001"/>
</g>
<!-- Node7 -->
<g id="node12" class="node"><title>Node7</title>
<a xlink:href="classant_1_1_reconstruct_hook_1_1_base.html" target="_top" xlink:title="The Base class just defines some useful types. ">
<polygon fill="white" stroke="black" points="187.5,-52 187.5,-86 300.5,-86 300.5,-52 187.5,-52"/>
<text text-anchor="start" x="195.5" y="-73" font-family="Helvetica,sans-Serif" font-size="10.00">ant::ReconstructHook</text>
<text text-anchor="middle" x="244" y="-60" font-family="Helvetica,sans-Serif" font-size="10.00">::Base</text>
</a>
</g>
<!-- Node7&#45;&gt;Node6 -->
<g id="edge12" class="edge"><title>Node7&#45;&gt;Node6</title>
<path fill="none" stroke="midnightblue" d="M310.788,-69C324.884,-69 339.629,-69 353.31,-69"/>
<polygon fill="midnightblue" stroke="midnightblue" points="310.664,-65.5001 300.663,-69 310.663,-72.5001 310.664,-65.5001"/>
</g>
<!-- Node8 -->
<g id="node14" class="node"><title>Node8</title>
<polygon fill="white" stroke="#bfbfbf" points="344,-0 344,-34 476,-34 476,-0 344,-0"/>
<text text-anchor="start" x="352" y="-21" font-family="Helvetica,sans-Serif" font-size="10.00">std::vector&lt; std::shared</text>
<text text-anchor="middle" x="410" y="-8" font-family="Helvetica,sans-Serif" font-size="10.00">_ptr&lt; gui::FitTimewalk &gt; &gt;</text>
</g>
<!-- Node8&#45;&gt;Node1 -->
<g id="edge14" class="edge"><title>Node8&#45;&gt;Node1</title>
<path fill="none" stroke="#9a32cd" stroke-dasharray="5,2" d="M485.622,-36.5639C510.578,-43.0201 537.718,-50.0414 560.344,-55.895"/>
<polygon fill="#9a32cd" stroke="#9a32cd" points="486.373,-33.143 475.815,-34.0267 484.62,-39.9199 486.373,-33.143"/>
<text text-anchor="middle" x="518" y="-55" font-family="Helvetica,sans-Serif" font-size="10.00"> timewalks</text>
</g>
</g>
</svg>
