<?xml version="1.0" encoding="UTF-8" standalone="no"?>
<!DOCTYPE svg PUBLIC "-//W3C//DTD SVG 1.1//EN"
 "http://www.w3.org/Graphics/SVG/1.1/DTD/svg11.dtd">
<!-- Generated by graphviz version 2.26.3 (20100126.1600)
 -->
<!-- Title: ant::analysis::physics::DataOverview Pages: 1 -->
<svg width="1040pt" height="212pt"
 viewBox="0.00 0.00 1040.00 212.00" xmlns="http://www.w3.org/2000/svg" xmlns:xlink="http://www.w3.org/1999/xlink">
<g id="graph1" class="graph" transform="scale(1 1) rotate(0) translate(4 208)">
<title>ant::analysis::physics::DataOverview</title>
<polygon fill="white" stroke="white" points="-4,5 -4,-208 1037,-208 1037,5 -4,5"/>
<!-- Node1 -->
<g id="node1" class="node"><title>Node1</title>
<polygon fill="#bfbfbf" stroke="black" points="920,-121 920,-155 1032,-155 1032,-121 920,-121"/>
<text text-anchor="start" x="928" y="-142" font-family="Helvetica,sans-Serif" font-size="10.00">ant::analysis::physics</text>
<text text-anchor="middle" x="976" y="-129" font-family="Helvetica,sans-Serif" font-size="10.00">::DataOverview</text>
</g>
<!-- Node2 -->
<g id="node2" class="node"><title>Node2</title>
<a xlink:href="classant_1_1analysis_1_1_physics.html" target="_top" xlink:title="ant::analysis::Physics">
<polygon fill="white" stroke="black" points="689.5,-161.5 689.5,-182.5 802.5,-182.5 802.5,-161.5 689.5,-161.5"/>
<text text-anchor="middle" x="746" y="-169.5" font-family="Helvetica,sans-Serif" font-size="10.00">ant::analysis::Physics</text>
</a>
</g>
<!-- Node2&#45;&gt;Node1 -->
<g id="edge2" class="edge"><title>Node2&#45;&gt;Node1</title>
<path fill="none" stroke="midnightblue" d="M812.837,-162.12C846.712,-157.112 887.393,-151.098 919.66,-146.329"/>
<polygon fill="midnightblue" stroke="midnightblue" points="811.94,-158.714 802.559,-163.639 812.963,-165.639 811.94,-158.714"/>
</g>
<!-- Node3 -->
<g id="node4" class="node"><title>Node3</title>
<a xlink:href="classant_1_1analysis_1_1_smart_hist_factory.html" target="_top" xlink:title="ant::analysis::SmartHist\lFactory">
<polygon fill="white" stroke="black" points="441,-170 441,-204 563,-204 563,-170 441,-170"/>
<text text-anchor="start" x="449" y="-191" font-family="Helvetica,sans-Serif" font-size="10.00">ant::analysis::SmartHist</text>
<text text-anchor="middle" x="502" y="-178" font-family="Helvetica,sans-Serif" font-size="10.00">Factory</text>
</a>
</g>
<!-- Node3&#45;&gt;Node2 -->
<g id="edge4" class="edge"><title>Node3&#45;&gt;Node2</title>
<path fill="none" stroke="#9a32cd" stroke-dasharray="5,2" d="M573.457,-182.607C610.377,-180.337 654.799,-177.607 689.323,-175.484"/>
<polygon fill="#9a32cd" stroke="#9a32cd" points="573.023,-179.127 563.257,-183.234 573.453,-186.114 573.023,-179.127"/>
<text text-anchor="middle" x="619" y="-185" font-family="Helvetica,sans-Serif" font-size="10.00"> HistFac</text>
</g>
<!-- Node4 -->
<g id="node6" class="node"><title>Node4</title>
<a xlink:href="classant_1_1analysis_1_1physics_1_1_data_overview_1_1_overview_set.html" target="_top" xlink:title="ant::analysis::physics\l::DataOverview::OverviewSet">
<polygon fill="white" stroke="black" points="672.5,-81 672.5,-115 819.5,-115 819.5,-81 672.5,-81"/>
<text text-anchor="start" x="680.5" y="-102" font-family="Helvetica,sans-Serif" font-size="10.00">ant::analysis::physics</text>
<text text-anchor="middle" x="746" y="-89" font-family="Helvetica,sans-Serif" font-size="10.00">::DataOverview::OverviewSet</text>
</a>
</g>
<!-- Node4&#45;&gt;Node1 -->
<g id="edge6" class="edge"><title>Node4&#45;&gt;Node1</title>
<path fill="none" stroke="#9a32cd" stroke-dasharray="5,2" d="M829.679,-106.593C853.181,-109.585 878.682,-113.377 902,-118 907.744,-119.139 913.699,-120.477 919.624,-121.912"/>
<polygon fill="#9a32cd" stroke="#9a32cd" points="830.096,-103.118 819.742,-105.36 829.234,-110.065 830.096,-103.118"/>
<text text-anchor="middle" x="870" y="-135" font-family="Helvetica,sans-Serif" font-size="10.00"> reconstructed</text>
<text text-anchor="middle" x="870" y="-122" font-family="Helvetica,sans-Serif" font-size="10.00">mctrue</text>
</g>
<!-- Node5 -->
<g id="node8" class="node"><title>Node5</title>
<a xlink:href="classant_1_1analysis_1_1_smart_hist1.html" target="_top" xlink:title="ant::analysis::SmartHist1\l\&lt; double \&gt;">
<polygon fill="white" stroke="black" points="438,-118 438,-152 566,-152 566,-118 438,-118"/>
<text text-anchor="start" x="446" y="-139" font-family="Helvetica,sans-Serif" font-size="10.00">ant::analysis::SmartHist1</text>
<text text-anchor="middle" x="502" y="-126" font-family="Helvetica,sans-Serif" font-size="10.00">&lt; double &gt;</text>
</a>
</g>
<!-- Node5&#45;&gt;Node4 -->
<g id="edge8" class="edge"><title>Node5&#45;&gt;Node4</title>
<path fill="none" stroke="#9a32cd" stroke-dasharray="5,2" d="M576.255,-123.74C606.748,-119.116 641.967,-113.775 672.394,-109.162"/>
<polygon fill="#9a32cd" stroke="#9a32cd" points="575.47,-120.319 566.108,-125.279 576.52,-127.24 575.47,-120.319"/>
<text text-anchor="middle" x="619" y="-151" font-family="Helvetica,sans-Serif" font-size="10.00"> CBEnergySum</text>
<text text-anchor="middle" x="619" y="-138" font-family="Helvetica,sans-Serif" font-size="10.00">TaggedTime</text>
<text text-anchor="middle" x="619" y="-125" font-family="Helvetica,sans-Serif" font-size="10.00">PhotonEnergy</text>
</g>
<!-- Node6 -->
<g id="node10" class="node"><title>Node6</title>
<a xlink:href="classant_1_1analysis_1_1_smart_hist1_base.html" target="_top" xlink:title="ant::analysis::SmartHist1Base">
<polygon fill="white" stroke="black" points="204,-59.5 204,-80.5 354,-80.5 354,-59.5 204,-59.5"/>
<text text-anchor="middle" x="279" y="-67.5" font-family="Helvetica,sans-Serif" font-size="10.00">ant::analysis::SmartHist1Base</text>
</a>
</g>
<!-- Node6&#45;&gt;Node5 -->
<g id="edge10" class="edge"><title>Node6&#45;&gt;Node5</title>
<path fill="none" stroke="midnightblue" d="M328.272,-83.1462C355.405,-90.5064 389.64,-99.9914 420,-109 429.45,-111.804 439.477,-114.89 449.156,-117.927"/>
<polygon fill="midnightblue" stroke="midnightblue" points="329.184,-79.7672 318.618,-80.5354 327.357,-86.5245 329.184,-79.7672"/>
</g>
<!-- Node10 -->
<g id="node18" class="node"><title>Node10</title>
<a xlink:href="classant_1_1analysis_1_1_smart_hist1.html" target="_top" xlink:title="ant::analysis::SmartHist1\l\&lt; std::string \&gt;">
<polygon fill="white" stroke="black" points="438,-66 438,-100 566,-100 566,-66 438,-66"/>
<text text-anchor="start" x="446" y="-87" font-family="Helvetica,sans-Serif" font-size="10.00">ant::analysis::SmartHist1</text>
<text text-anchor="middle" x="502" y="-74" font-family="Helvetica,sans-Serif" font-size="10.00">&lt; std::string &gt;</text>
</a>
</g>
<!-- Node6&#45;&gt;Node10 -->
<g id="edge20" class="edge"><title>Node6&#45;&gt;Node10</title>
<path fill="none" stroke="midnightblue" d="M364.192,-74.9663C388.676,-76.3937 414.956,-77.9257 437.933,-79.2652"/>
<polygon fill="midnightblue" stroke="midnightblue" points="364.374,-71.4711 354.187,-74.3831 363.966,-78.4592 364.374,-71.4711"/>
</g>
<!-- Node13 -->
<g id="node25" class="node"><title>Node13</title>
<a xlink:href="classant_1_1analysis_1_1_smart_hist1.html" target="_top" xlink:title="ant::analysis::SmartHist1\l\&lt; int \&gt;">
<polygon fill="white" stroke="black" points="438,-14 438,-48 566,-48 566,-14 438,-14"/>
<text text-anchor="start" x="446" y="-35" font-family="Helvetica,sans-Serif" font-size="10.00">ant::analysis::SmartHist1</text>
<text text-anchor="middle" x="502" y="-22" font-family="Helvetica,sans-Serif" font-size="10.00">&lt; int &gt;</text>
</a>
</g>
<!-- Node6&#45;&gt;Node13 -->
<g id="edge28" class="edge"><title>Node6&#45;&gt;Node13</title>
<path fill="none" stroke="midnightblue" d="M348.933,-57.7696C377.403,-52.7905 410.093,-47.0735 437.933,-42.2045"/>
<polygon fill="midnightblue" stroke="midnightblue" points="348.301,-54.3269 339.053,-59.4974 349.507,-61.2223 348.301,-54.3269"/>
</g>
<!-- Node7 -->
<g id="node12" class="node"><title>Node7</title>
<a xlink:href="classant_1_1root__drawable__traits.html" target="_top" xlink:title="ant::root_drawable\l_traits">
<polygon fill="white" stroke="black" points="27.5,-53 27.5,-87 124.5,-87 124.5,-53 27.5,-53"/>
<text text-anchor="start" x="35.5" y="-74" font-family="Helvetica,sans-Serif" font-size="10.00">ant::root_drawable</text>
<text text-anchor="middle" x="76" y="-61" font-family="Helvetica,sans-Serif" font-size="10.00">_traits</text>
</a>
</g>
<!-- Node7&#45;&gt;Node6 -->
<g id="edge12" class="edge"><title>Node7&#45;&gt;Node6</title>
<path fill="none" stroke="midnightblue" d="M134.914,-70C156.431,-70 181.066,-70 203.809,-70"/>
<polygon fill="midnightblue" stroke="midnightblue" points="134.624,-66.5001 124.624,-70 134.624,-73.5001 134.624,-66.5001"/>
</g>
<!-- Node8 -->
<g id="node14" class="node"><title>Node8</title>
<polygon fill="white" stroke="#bfbfbf" points="216.5,-160 216.5,-194 341.5,-194 341.5,-160 216.5,-160"/>
<text text-anchor="start" x="224.5" y="-181" font-family="Helvetica,sans-Serif" font-size="10.00">std::unique_ptr&lt; BaseFill</text>
<text text-anchor="middle" x="279" y="-168" font-family="Helvetica,sans-Serif" font-size="10.00">Function&lt; double &gt; &gt;</text>
</g>
<!-- Node8&#45;&gt;Node5 -->
<g id="edge14" class="edge"><title>Node8&#45;&gt;Node5</title>
<path fill="none" stroke="#9a32cd" stroke-dasharray="5,2" d="M351.756,-163.297C379.511,-158.07 410.923,-152.154 437.823,-147.087"/>
<polygon fill="#9a32cd" stroke="#9a32cd" points="350.891,-159.898 341.711,-165.189 352.186,-166.777 350.891,-159.898"/>
<text text-anchor="middle" x="396" y="-162" font-family="Helvetica,sans-Serif" font-size="10.00"> fillfunction</text>
</g>
<!-- Node9 -->
<g id="node16" class="node"><title>Node9</title>
<a xlink:href="classant_1_1analysis_1_1_base_fill_function.html" target="_top" xlink:title="ant::analysis::BaseFillFunction\l\&lt; double \&gt;">
<polygon fill="white" stroke="black" points="0.5,-160 0.5,-194 151.5,-194 151.5,-160 0.5,-160"/>
<text text-anchor="start" x="8.5" y="-181" font-family="Helvetica,sans-Serif" font-size="10.00">ant::analysis::BaseFillFunction</text>
<text text-anchor="middle" x="76" y="-168" font-family="Helvetica,sans-Serif" font-size="10.00">&lt; double &gt;</text>
</a>
</g>
<!-- Node9&#45;&gt;Node8 -->
<g id="edge16" class="edge"><title>Node9&#45;&gt;Node8</title>
<path fill="none" stroke="#9a32cd" stroke-dasharray="5,2" d="M161.68,-177C180.002,-177 199.03,-177 216.294,-177"/>
<polygon fill="#9a32cd" stroke="#9a32cd" points="161.59,-173.5 151.59,-177 161.59,-180.5 161.59,-173.5"/>
<text text-anchor="middle" x="178" y="-181" font-family="Helvetica,sans-Serif" font-size="10.00"> ptr</text>
</g>
<!-- Node10&#45;&gt;Node4 -->
<g id="edge18" class="edge"><title>Node10&#45;&gt;Node4</title>
<path fill="none" stroke="#9a32cd" stroke-dasharray="5,2" d="M576.101,-83.5744C600.892,-84.1329 628.662,-85.1558 654,-87 659.936,-87.432 666.078,-87.969 672.243,-88.5715"/>
<polygon fill="#9a32cd" stroke="#9a32cd" points="576.107,-80.0739 566.038,-83.3691 575.964,-87.0724 576.107,-80.0739"/>
<text text-anchor="middle" x="619" y="-91" font-family="Helvetica,sans-Serif" font-size="10.00"> ParticleTypes</text>
</g>
<!-- Node11 -->
<g id="node21" class="node"><title>Node11</title>
<polygon fill="white" stroke="#bfbfbf" points="216.5,-108 216.5,-142 341.5,-142 341.5,-108 216.5,-108"/>
<text text-anchor="start" x="224.5" y="-129" font-family="Helvetica,sans-Serif" font-size="10.00">std::unique_ptr&lt; BaseFill</text>
<text text-anchor="middle" x="279" y="-116" font-family="Helvetica,sans-Serif" font-size="10.00">Function&lt; std::string &gt; &gt;</text>
</g>
<!-- Node11&#45;&gt;Node10 -->
<g id="edge22" class="edge"><title>Node11&#45;&gt;Node10</title>
<path fill="none" stroke="#9a32cd" stroke-dasharray="5,2" d="M351.756,-111.297C379.511,-106.07 410.923,-100.154 437.823,-95.0872"/>
<polygon fill="#9a32cd" stroke="#9a32cd" points="350.891,-107.898 341.711,-113.189 352.186,-114.777 350.891,-107.898"/>
<text text-anchor="middle" x="396" y="-110" font-family="Helvetica,sans-Serif" font-size="10.00"> fillfunction</text>
</g>
<!-- Node12 -->
<g id="node23" class="node"><title>Node12</title>
<a xlink:href="classant_1_1analysis_1_1_base_fill_function.html" target="_top" xlink:title="ant::analysis::BaseFillFunction\l\&lt; std::string \&gt;">
<polygon fill="white" stroke="black" points="0.5,-108 0.5,-142 151.5,-142 151.5,-108 0.5,-108"/>
<text text-anchor="start" x="8.5" y="-129" font-family="Helvetica,sans-Serif" font-size="10.00">ant::analysis::BaseFillFunction</text>
<text text-anchor="middle" x="76" y="-116" font-family="Helvetica,sans-Serif" font-size="10.00">&lt; std::string &gt;</text>
</a>
</g>
<!-- Node12&#45;&gt;Node11 -->
<g id="edge24" class="edge"><title>Node12&#45;&gt;Node11</title>
<path fill="none" stroke="#9a32cd" stroke-dasharray="5,2" d="M161.68,-125C180.002,-125 199.03,-125 216.294,-125"/>
<polygon fill="#9a32cd" stroke="#9a32cd" points="161.59,-121.5 151.59,-125 161.59,-128.5 161.59,-121.5"/>
<text text-anchor="middle" x="178" y="-129" font-family="Helvetica,sans-Serif" font-size="10.00"> ptr</text>
</g>
<!-- Node13&#45;&gt;Node4 -->
<g id="edge26" class="edge"><title>Node13&#45;&gt;Node4</title>
<path fill="none" stroke="#9a32cd" stroke-dasharray="5,2" d="M576.377,-37.0798C601.41,-40.3554 629.256,-45.364 654,-53 676.087,-59.816 699.466,-71.3138 717.13,-80.9808"/>
<polygon fill="#9a32cd" stroke="#9a32cd" points="576.559,-33.5758 566.205,-35.8222 575.7,-40.5229 576.559,-33.5758"/>
<text text-anchor="middle" x="619" y="-70" font-family="Helvetica,sans-Serif" font-size="10.00"> TaggerChannel</text>
<text text-anchor="middle" x="619" y="-57" font-family="Helvetica,sans-Serif" font-size="10.00">nParticles</text>
</g>
<!-- Node14 -->
<g id="node28" class="node"><title>Node14</title>
<polygon fill="white" stroke="#bfbfbf" points="216.5,-0 216.5,-34 341.5,-34 341.5,-0 216.5,-0"/>
<text text-anchor="start" x="224.5" y="-21" font-family="Helvetica,sans-Serif" font-size="10.00">std::unique_ptr&lt; BaseFill</text>
<text text-anchor="middle" x="279" y="-8" font-family="Helvetica,sans-Serif" font-size="10.00">Function&lt; int &gt; &gt;</text>
</g>
<!-- Node14&#45;&gt;Node13 -->
<g id="edge30" class="edge"><title>Node14&#45;&gt;Node13</title>
<path fill="none" stroke="#9a32cd" stroke-dasharray="5,2" d="M351.806,-15.4334C373.754,-15.5221 397.885,-16.179 420,-18 425.746,-18.4732 431.699,-19.1159 437.652,-19.8635"/>
<polygon fill="#9a32cd" stroke="#9a32cd" points="351.56,-11.9334 341.56,-15.4316 351.559,-18.9334 351.56,-11.9334"/>
<text text-anchor="middle" x="396" y="-22" font-family="Helvetica,sans-Serif" font-size="10.00"> fillfunction</text>
</g>
<!-- Node15 -->
<g id="node30" class="node"><title>Node15</title>
<a xlink:href="classant_1_1analysis_1_1_base_fill_function.html" target="_top" xlink:title="ant::analysis::BaseFillFunction\l\&lt; int \&gt;">
<polygon fill="white" stroke="black" points="0.5,-0 0.5,-34 151.5,-34 151.5,-0 0.5,-0"/>
<text text-anchor="start" x="8.5" y="-21" font-family="Helvetica,sans-Serif" font-size="10.00">ant::analysis::BaseFillFunction</text>
<text text-anchor="middle" x="76" y="-8" font-family="Helvetica,sans-Serif" font-size="10.00">&lt; int &gt;</text>
</a>
</g>
<!-- Node15&#45;&gt;Node14 -->
<g id="edge32" class="edge"><title>Node15&#45;&gt;Node14</title>
<path fill="none" stroke="#9a32cd" stroke-dasharray="5,2" d="M161.68,-17C180.002,-17 199.03,-17 216.294,-17"/>
<polygon fill="#9a32cd" stroke="#9a32cd" points="161.59,-13.5001 151.59,-17 161.59,-20.5001 161.59,-13.5001"/>
<text text-anchor="middle" x="178" y="-21" font-family="Helvetica,sans-Serif" font-size="10.00"> ptr</text>
</g>
</g>
</svg>
