<?xml version="1.0" encoding="UTF-8" standalone="no"?>
<!DOCTYPE svg PUBLIC "-//W3C//DTD SVG 1.1//EN"
 "http://www.w3.org/Graphics/SVG/1.1/DTD/svg11.dtd">
<!-- Generated by graphviz version 2.26.3 (20100126.1600)
 -->
<!-- Title: ant::calibration::TAPS_ShowerCorrection Pages: 1 -->
<svg width="280pt" height="188pt"
 viewBox="0.00 0.00 280.00 188.00" xmlns="http://www.w3.org/2000/svg" xmlns:xlink="http://www.w3.org/1999/xlink">
<g id="graph1" class="graph" transform="scale(1 1) rotate(0) translate(4 184)">
<title>ant::calibration::TAPS_ShowerCorrection</title>
<polygon fill="white" stroke="white" points="-4,5 -4,-184 277,-184 277,5 -4,5"/>
<!-- Node1 -->
<g id="node1" class="node"><title>Node1</title>
<polygon fill="#bfbfbf" stroke="black" points="86.5,-1 86.5,-35 199.5,-35 199.5,-1 86.5,-1"/>
<text text-anchor="start" x="94.5" y="-22" font-family="Helvetica,sans-Serif" font-size="10.00">ant::calibration::TAPS</text>
<text text-anchor="middle" x="143" y="-9" font-family="Helvetica,sans-Serif" font-size="10.00">_ShowerCorrection</text>
</g>
<!-- Node2 -->
<g id="node2" class="node"><title>Node2</title>
<a xlink:href="classant_1_1_calibration_1_1_base_module.html" target="_top" xlink:title="The BaseModule class provides a name for identification. ">
<polygon fill="white" stroke="black" points="-0.5,-79.5 -0.5,-100.5 142.5,-100.5 142.5,-79.5 -0.5,-79.5"/>
<text text-anchor="middle" x="71" y="-87.5" font-family="Helvetica,sans-Serif" font-size="10.00">ant::Calibration::BaseModule</text>
</a>
</g>
<!-- Node2&#45;&gt;Node1 -->
<g id="edge2" class="edge"><title>Node2&#45;&gt;Node1</title>
<path fill="none" stroke="midnightblue" d="M88.8612,-72.1388C100.18,-60.82 114.737,-46.2626 125.906,-35.0944"/>
<polygon fill="midnightblue" stroke="midnightblue" points="86.2201,-69.8302 81.6238,-79.3762 91.1698,-74.7799 86.2201,-69.8302"/>
</g>
<!-- Node3 -->
<g id="node4" class="node"><title>Node3</title>
<a xlink:href="classant_1_1_reconstruct_hook_1_1_clusters.html" target="_top" xlink:title="The Clusters class instances are applied before candidate matching and after clustering. ">
<polygon fill="white" stroke="black" points="159.5,-73 159.5,-107 272.5,-107 272.5,-73 159.5,-73"/>
<text text-anchor="start" x="167.5" y="-94" font-family="Helvetica,sans-Serif" font-size="10.00">ant::ReconstructHook</text>
<text text-anchor="middle" x="216" y="-81" font-family="Helvetica,sans-Serif" font-size="10.00">::Clusters</text>
</a>
</g>
<!-- Node3&#45;&gt;Node1 -->
<g id="edge4" class="edge"><title>Node3&#45;&gt;Node1</title>
<path fill="none" stroke="midnightblue" d="M191.574,-65.9083C181.369,-55.8438 169.746,-44.3799 160.429,-35.19"/>
<polygon fill="midnightblue" stroke="midnightblue" points="189.123,-68.4067 198.7,-72.937 194.038,-63.4229 189.123,-68.4067"/>
</g>
<!-- Node4 -->
<g id="node6" class="node"><title>Node4</title>
<a xlink:href="classant_1_1_reconstruct_hook_1_1_base.html" target="_top" xlink:title="The Base class just defines some useful types. ">
<polygon fill="white" stroke="black" points="159.5,-145 159.5,-179 272.5,-179 272.5,-145 159.5,-145"/>
<text text-anchor="start" x="167.5" y="-166" font-family="Helvetica,sans-Serif" font-size="10.00">ant::ReconstructHook</text>
<text text-anchor="middle" x="216" y="-153" font-family="Helvetica,sans-Serif" font-size="10.00">::Base</text>
</a>
</g>
<!-- Node4&#45;&gt;Node3 -->
<g id="edge6" class="edge"><title>Node4&#45;&gt;Node3</title>
<path fill="none" stroke="midnightblue" d="M216,-134.719C216,-125.572 216,-115.625 216,-107.441"/>
<polygon fill="midnightblue" stroke="midnightblue" points="212.5,-134.937 216,-144.937 219.5,-134.937 212.5,-134.937"/>
</g>
</g>
</svg>
