<?xml version="1.0" encoding="UTF-8" standalone="no"?>
<!DOCTYPE svg PUBLIC "-//W3C//DTD SVG 1.1//EN"
 "http://www.w3.org/Graphics/SVG/1.1/DTD/svg11.dtd">
<!-- Generated by graphviz version 2.26.3 (20100126.1600)
 -->
<!-- Title: ant::ReconstructHook::DetectorReadHits Pages: 1 -->
<svg width="606pt" height="218pt"
 viewBox="0.00 0.00 606.00 218.00" xmlns="http://www.w3.org/2000/svg" xmlns:xlink="http://www.w3.org/1999/xlink">
<g id="graph1" class="graph" transform="scale(1 1) rotate(0) translate(4 214)">
<title>ant::ReconstructHook::DetectorReadHits</title>
<polygon fill="white" stroke="white" points="-4,5 -4,-214 603,-214 603,5 -4,5"/>
<!-- Node1 -->
<g id="node1" class="node"><title>Node1</title>
<polygon fill="#bfbfbf" stroke="black" points="150.5,-78 150.5,-112 263.5,-112 263.5,-78 150.5,-78"/>
<text text-anchor="start" x="158.5" y="-99" font-family="Helvetica,sans-Serif" font-size="10.00">ant::ReconstructHook</text>
<text text-anchor="middle" x="207" y="-86" font-family="Helvetica,sans-Serif" font-size="10.00">::DetectorReadHits</text>
</g>
<!-- Node3 -->
<g id="node5" class="node"><title>Node3</title>
<a xlink:href="structant_1_1calibration_1_1converter_1_1_c_a_t_c_h___t_d_c.html" target="_top" xlink:title="ant::calibration::converter\l::CATCH_TDC">
<polygon fill="white" stroke="black" points="300.5,-176 300.5,-210 427.5,-210 427.5,-176 300.5,-176"/>
<text text-anchor="start" x="308.5" y="-197" font-family="Helvetica,sans-Serif" font-size="10.00">ant::calibration::converter</text>
<text text-anchor="middle" x="364" y="-184" font-family="Helvetica,sans-Serif" font-size="10.00">::CATCH_TDC</text>
</a>
</g>
<!-- Node1&#45;&gt;Node3 -->
<g id="edge4" class="edge"><title>Node1&#45;&gt;Node3</title>
<path fill="none" stroke="midnightblue" d="M233.566,-118.738C251.452,-133.896 276.06,-153.218 300,-167 305.509,-170.171 311.48,-173.144 317.485,-175.864"/>
<polygon fill="midnightblue" stroke="midnightblue" points="235.713,-115.967 225.848,-112.101 231.149,-121.275 235.713,-115.967"/>
</g>
<!-- Node4 -->
<g id="node7" class="node"><title>Node4</title>
<a xlink:href="structant_1_1calibration_1_1converter_1_1_scaler_frequency.html" target="_top" xlink:title="ant::calibration::converter\l::ScalerFrequency">
<polygon fill="white" stroke="black" points="300.5,-124 300.5,-158 427.5,-158 427.5,-124 300.5,-124"/>
<text text-anchor="start" x="308.5" y="-145" font-family="Helvetica,sans-Serif" font-size="10.00">ant::calibration::converter</text>
<text text-anchor="middle" x="364" y="-132" font-family="Helvetica,sans-Serif" font-size="10.00">::ScalerFrequency</text>
</a>
</g>
<!-- Node1&#45;&gt;Node4 -->
<g id="edge6" class="edge"><title>Node1&#45;&gt;Node4</title>
<path fill="none" stroke="midnightblue" d="M273.45,-114.469C284.208,-117.621 295.275,-120.864 305.818,-123.953"/>
<polygon fill="midnightblue" stroke="midnightblue" points="274.261,-111.06 263.681,-111.607 272.293,-117.778 274.261,-111.06"/>
</g>
<!-- Node5 -->
<g id="node9" class="node"><title>Node5</title>
<a xlink:href="classant_1_1calibration_1_1_energy.html" target="_top" xlink:title="ant::calibration::Energy">
<polygon fill="white" stroke="black" points="305.5,-84.5 305.5,-105.5 422.5,-105.5 422.5,-84.5 305.5,-84.5"/>
<text text-anchor="middle" x="364" y="-92.5" font-family="Helvetica,sans-Serif" font-size="10.00">ant::calibration::Energy</text>
</a>
</g>
<!-- Node1&#45;&gt;Node5 -->
<g id="edge8" class="edge"><title>Node1&#45;&gt;Node5</title>
<path fill="none" stroke="midnightblue" d="M273.973,-95C284.386,-95 295.076,-95 305.288,-95"/>
<polygon fill="midnightblue" stroke="midnightblue" points="273.681,-91.5001 263.681,-95 273.681,-98.5001 273.681,-91.5001"/>
</g>
<!-- Node10 -->
<g id="node19" class="node"><title>Node10</title>
<a xlink:href="classant_1_1calibration_1_1_scaler.html" target="_top" xlink:title="ant::calibration::Scaler">
<polygon fill="white" stroke="black" points="307,-44.5 307,-65.5 421,-65.5 421,-44.5 307,-44.5"/>
<text text-anchor="middle" x="364" y="-52.5" font-family="Helvetica,sans-Serif" font-size="10.00">ant::calibration::Scaler</text>
</a>
</g>
<!-- Node1&#45;&gt;Node10 -->
<g id="edge18" class="edge"><title>Node1&#45;&gt;Node10</title>
<path fill="none" stroke="midnightblue" d="M273.412,-78.0798C290.126,-73.8213 307.59,-69.372 322.673,-65.5291"/>
<polygon fill="midnightblue" stroke="midnightblue" points="272.507,-74.6985 263.681,-80.5591 274.235,-81.4818 272.507,-74.6985"/>
</g>
<!-- Node11 -->
<g id="node21" class="node"><title>Node11</title>
<a xlink:href="classant_1_1calibration_1_1_time.html" target="_top" xlink:title="ant::calibration::Time">
<polygon fill="white" stroke="black" points="310,-4.5 310,-25.5 418,-25.5 418,-4.5 310,-4.5"/>
<text text-anchor="middle" x="364" y="-12.5" font-family="Helvetica,sans-Serif" font-size="10.00">ant::calibration::Time</text>
</a>
</g>
<!-- Node1&#45;&gt;Node11 -->
<g id="edge20" class="edge"><title>Node1&#45;&gt;Node11</title>
<path fill="none" stroke="midnightblue" d="M237.85,-72.084C255.396,-59.8381 278.167,-45.2233 300,-35 307.696,-31.3964 316.207,-28.2216 324.442,-25.5242"/>
<polygon fill="midnightblue" stroke="midnightblue" points="235.816,-69.2358 229.684,-77.8757 239.866,-74.9456 235.816,-69.2358"/>
</g>
<!-- Node2 -->
<g id="node2" class="node"><title>Node2</title>
<a xlink:href="classant_1_1_reconstruct_hook_1_1_base.html" target="_top" xlink:title="The Base class just defines some useful types. ">
<polygon fill="white" stroke="black" points="0.5,-78 0.5,-112 113.5,-112 113.5,-78 0.5,-78"/>
<text text-anchor="start" x="8.5" y="-99" font-family="Helvetica,sans-Serif" font-size="10.00">ant::ReconstructHook</text>
<text text-anchor="middle" x="57" y="-86" font-family="Helvetica,sans-Serif" font-size="10.00">::Base</text>
</a>
</g>
<!-- Node2&#45;&gt;Node1 -->
<g id="edge2" class="edge"><title>Node2&#45;&gt;Node1</title>
<path fill="none" stroke="midnightblue" d="M123.916,-95C132.694,-95 141.622,-95 150.211,-95"/>
<polygon fill="midnightblue" stroke="midnightblue" points="123.709,-91.5001 113.709,-95 123.709,-98.5001 123.709,-91.5001"/>
</g>
<!-- Node6 -->
<g id="node11" class="node"><title>Node6</title>
<a xlink:href="classant_1_1calibration_1_1_c_b___energy.html" target="_top" xlink:title="ant::calibration::CB\l_Energy">
<polygon fill="white" stroke="black" points="480.5,-156 480.5,-190 581.5,-190 581.5,-156 480.5,-156"/>
<text text-anchor="start" x="488.5" y="-177" font-family="Helvetica,sans-Serif" font-size="10.00">ant::calibration::CB</text>
<text text-anchor="middle" x="531" y="-164" font-family="Helvetica,sans-Serif" font-size="10.00">_Energy</text>
</a>
</g>
<!-- Node5&#45;&gt;Node6 -->
<g id="edge10" class="edge"><title>Node5&#45;&gt;Node6</title>
<path fill="none" stroke="midnightblue" d="M416.29,-109.274C420.343,-111 424.295,-112.905 428,-115 446.633,-125.539 445.732,-135.84 464,-147 469.324,-150.252 475.124,-153.226 481.011,-155.906"/>
<polygon fill="midnightblue" stroke="midnightblue" points="417.308,-105.914 406.719,-105.566 414.779,-112.442 417.308,-105.914"/>
</g>
<!-- Node7 -->
<g id="node13" class="node"><title>Node7</title>
<a xlink:href="classant_1_1calibration_1_1_p_i_d___energy.html" target="_top" xlink:title="ant::calibration::PID\l_Energy">
<polygon fill="white" stroke="black" points="479,-104 479,-138 583,-138 583,-104 479,-104"/>
<text text-anchor="start" x="487" y="-125" font-family="Helvetica,sans-Serif" font-size="10.00">ant::calibration::PID</text>
<text text-anchor="middle" x="531" y="-112" font-family="Helvetica,sans-Serif" font-size="10.00">_Energy</text>
</a>
</g>
<!-- Node5&#45;&gt;Node7 -->
<g id="edge12" class="edge"><title>Node5&#45;&gt;Node7</title>
<path fill="none" stroke="midnightblue" d="M432.842,-105.718C448.189,-108.107 464.218,-110.603 478.767,-112.868"/>
<polygon fill="midnightblue" stroke="midnightblue" points="433.297,-102.247 422.878,-104.167 432.22,-109.163 433.297,-102.247"/>
</g>
<!-- Node8 -->
<g id="node15" class="node"><title>Node8</title>
<a xlink:href="classant_1_1calibration_1_1_t_a_p_s___energy.html" target="_top" xlink:title="ant::calibration::TAPS\l_Energy">
<polygon fill="white" stroke="black" points="474.5,-52 474.5,-86 587.5,-86 587.5,-52 474.5,-52"/>
<text text-anchor="start" x="482.5" y="-73" font-family="Helvetica,sans-Serif" font-size="10.00">ant::calibration::TAPS</text>
<text text-anchor="middle" x="531" y="-60" font-family="Helvetica,sans-Serif" font-size="10.00">_Energy</text>
</a>
</g>
<!-- Node5&#45;&gt;Node8 -->
<g id="edge14" class="edge"><title>Node5&#45;&gt;Node8</title>
<path fill="none" stroke="midnightblue" d="M432.815,-84.2863C446.627,-82.1359 460.993,-79.8993 474.336,-77.822"/>
<polygon fill="midnightblue" stroke="midnightblue" points="432.22,-80.8366 422.878,-85.8334 433.297,-87.7533 432.22,-80.8366"/>
</g>
<!-- Node9 -->
<g id="node17" class="node"><title>Node9</title>
<a xlink:href="classant_1_1calibration_1_1_t_a_p_s_veto___energy.html" target="_top" xlink:title="ant::calibration::TAPSVeto\l_Energy">
<polygon fill="white" stroke="black" points="464.5,-0 464.5,-34 597.5,-34 597.5,-0 464.5,-0"/>
<text text-anchor="start" x="472.5" y="-21" font-family="Helvetica,sans-Serif" font-size="10.00">ant::calibration::TAPSVeto</text>
<text text-anchor="middle" x="531" y="-8" font-family="Helvetica,sans-Serif" font-size="10.00">_Energy</text>
</a>
</g>
<!-- Node5&#45;&gt;Node9 -->
<g id="edge16" class="edge"><title>Node5&#45;&gt;Node9</title>
<path fill="none" stroke="midnightblue" d="M416.29,-80.7263C420.343,-79.0003 424.295,-77.0955 428,-75 446.633,-64.4606 445.732,-54.1602 464,-43 469.324,-39.7477 475.124,-36.774 481.011,-34.0941"/>
<polygon fill="midnightblue" stroke="midnightblue" points="414.779,-77.5583 406.719,-84.4345 417.308,-84.0856 414.779,-77.5583"/>
</g>
</g>
</svg>
