<?xml version="1.0" encoding="UTF-8" standalone="no"?>
<!DOCTYPE svg PUBLIC "-//W3C//DTD SVG 1.1//EN"
 "http://www.w3.org/Graphics/SVG/1.1/DTD/svg11.dtd">
<!-- Generated by graphviz version 2.26.3 (20100126.1600)
 -->
<!-- Title: ant::PiecewiseInterval&lt; T &gt; Pages: 1 -->
<svg width="234pt" height="102pt"
 viewBox="0.00 0.00 234.00 102.00" xmlns="http://www.w3.org/2000/svg" xmlns:xlink="http://www.w3.org/1999/xlink">
<g id="graph1" class="graph" transform="scale(1 1) rotate(0) translate(4 98)">
<title>ant::PiecewiseInterval&lt; T &gt;</title>
<polygon fill="white" stroke="white" points="-4,5 -4,-98 231,-98 231,5 -4,5"/>
<!-- Node1 -->
<g id="node1" class="node"><title>Node1</title>
<polygon fill="#bfbfbf" stroke="black" points="46.5,-0.5 46.5,-21.5 183.5,-21.5 183.5,-0.5 46.5,-0.5"/>
<text text-anchor="middle" x="115" y="-8.5" font-family="Helvetica,sans-Serif" font-size="10.00">ant::PiecewiseInterval&lt; T &gt;</text>
</g>
<!-- Node2 -->
<g id="node2" class="node"><title>Node2</title>
<a xlink:title="STL class. ">
<polygon fill="white" stroke="#bfbfbf" points="-0.5,-59 -0.5,-93 108.5,-93 108.5,-59 -0.5,-59"/>
<text text-anchor="start" x="7.5" y="-80" font-family="Helvetica,sans-Serif" font-size="10.00">std::list&lt; ant::interval</text>
<text text-anchor="middle" x="54" y="-67" font-family="Helvetica,sans-Serif" font-size="10.00">&lt; T &gt; &gt;</text>
</a>
</g>
<!-- Node2&#45;&gt;Node1 -->
<g id="edge2" class="edge"><title>Node2&#45;&gt;Node1</title>
<path fill="none" stroke="midnightblue" d="M77.0763,-51.4105C86.6478,-41.2113 97.2579,-29.9055 104.816,-21.8521"/>
<polygon fill="midnightblue" stroke="midnightblue" points="74.318,-49.235 70.027,-58.922 79.4224,-54.0252 74.318,-49.235"/>
</g>
<!-- Node3 -->
<g id="node4" class="node"><title>Node3</title>
<a xlink:href="classant_1_1printable__traits.html" target="_top" xlink:title="ant::printable_traits">
<polygon fill="white" stroke="black" points="126,-65.5 126,-86.5 226,-86.5 226,-65.5 126,-65.5"/>
<text text-anchor="middle" x="176" y="-73.5" font-family="Helvetica,sans-Serif" font-size="10.00">ant::printable_traits</text>
</a>
</g>
<!-- Node3&#45;&gt;Node1 -->
<g id="edge4" class="edge"><title>Node3&#45;&gt;Node1</title>
<path fill="none" stroke="midnightblue" d="M158.885,-57.7628C147.914,-46.0723 134.06,-31.3103 124.885,-21.5337"/>
<polygon fill="midnightblue" stroke="midnightblue" points="156.532,-60.3698 165.927,-65.2666 161.636,-55.5796 156.532,-60.3698"/>
</g>
</g>
</svg>
