<?xml version="1.0" encoding="UTF-8" standalone="no"?>
<!DOCTYPE svg PUBLIC "-//W3C//DTD SVG 1.1//EN"
 "http://www.w3.org/Graphics/SVG/1.1/DTD/svg11.dtd">
<!-- Generated by graphviz version 2.26.3 (20100126.1600)
 -->
<!-- Title: ant::analysis::SmartHist1&lt; T &gt; Pages: 1 -->
<svg width="300pt" height="190pt"
 viewBox="0.00 0.00 300.00 190.00" xmlns="http://www.w3.org/2000/svg" xmlns:xlink="http://www.w3.org/1999/xlink">
<g id="graph1" class="graph" transform="scale(1 1) rotate(0) translate(4 186)">
<title>ant::analysis::SmartHist1&lt; T &gt;</title>
<polygon fill="white" stroke="white" points="-4,5 -4,-186 297,-186 297,5 -4,5"/>
<!-- Node1 -->
<g id="node1" class="node"><title>Node1</title>
<polygon fill="#bfbfbf" stroke="black" points="115,-0.5 115,-21.5 267,-21.5 267,-0.5 115,-0.5"/>
<text text-anchor="middle" x="191" y="-8.5" font-family="Helvetica,sans-Serif" font-size="10.00">ant::analysis::SmartHist1&lt; T &gt;</text>
</g>
<!-- Node2 -->
<g id="node2" class="node"><title>Node2</title>
<a xlink:href="classant_1_1analysis_1_1_smart_hist1_base.html" target="_top" xlink:title="ant::analysis::SmartHist1Base">
<polygon fill="white" stroke="black" points="0,-79.5 0,-100.5 150,-100.5 150,-79.5 0,-79.5"/>
<text text-anchor="middle" x="75" y="-87.5" font-family="Helvetica,sans-Serif" font-size="10.00">ant::analysis::SmartHist1Base</text>
</a>
</g>
<!-- Node2&#45;&gt;Node1 -->
<g id="edge2" class="edge"><title>Node2&#45;&gt;Node1</title>
<path fill="none" stroke="midnightblue" d="M99.1154,-73.5766C121.968,-58.0132 155.629,-35.0886 175.233,-21.7378"/>
<polygon fill="midnightblue" stroke="midnightblue" points="96.9394,-70.8239 90.6443,-79.3457 100.88,-76.6096 96.9394,-70.8239"/>
</g>
<!-- Node3 -->
<g id="node4" class="node"><title>Node3</title>
<a xlink:href="classant_1_1root__drawable__traits.html" target="_top" xlink:title="ant::root_drawable\l_traits">
<polygon fill="white" stroke="black" points="26.5,-147 26.5,-181 123.5,-181 123.5,-147 26.5,-147"/>
<text text-anchor="start" x="34.5" y="-168" font-family="Helvetica,sans-Serif" font-size="10.00">ant::root_drawable</text>
<text text-anchor="middle" x="75" y="-155" font-family="Helvetica,sans-Serif" font-size="10.00">_traits</text>
</a>
</g>
<!-- Node3&#45;&gt;Node2 -->
<g id="edge4" class="edge"><title>Node3&#45;&gt;Node2</title>
<path fill="none" stroke="midnightblue" d="M75,-136.506C75,-124.13 75,-110.232 75,-100.879"/>
<polygon fill="midnightblue" stroke="midnightblue" points="71.5001,-136.837 75,-146.837 78.5001,-136.837 71.5001,-136.837"/>
</g>
<!-- Node4 -->
<g id="node6" class="node"><title>Node4</title>
<polygon fill="white" stroke="#bfbfbf" points="167.5,-73 167.5,-107 292.5,-107 292.5,-73 167.5,-73"/>
<text text-anchor="start" x="175.5" y="-94" font-family="Helvetica,sans-Serif" font-size="10.00">std::unique_ptr&lt; BaseFill</text>
<text text-anchor="middle" x="230" y="-81" font-family="Helvetica,sans-Serif" font-size="10.00">Function&lt; T &gt; &gt;</text>
</g>
<!-- Node4&#45;&gt;Node1 -->
<g id="edge6" class="edge"><title>Node4&#45;&gt;Node1</title>
<path fill="none" stroke="#9a32cd" stroke-dasharray="5,2" d="M217.098,-63.8652C209.979,-49.4455 201.531,-32.3319 196.217,-21.5672"/>
<polygon fill="#9a32cd" stroke="#9a32cd" points="213.972,-65.4407 221.538,-72.8582 220.249,-62.342 213.972,-65.4407"/>
<text text-anchor="middle" x="235" y="-44.5" font-family="Helvetica,sans-Serif" font-size="10.00"> fillfunction</text>
</g>
</g>
</svg>
