<?xml version="1.0" encoding="UTF-8" standalone="no"?>
<!DOCTYPE svg PUBLIC "-//W3C//DTD SVG 1.1//EN"
 "http://www.w3.org/Graphics/SVG/1.1/DTD/svg11.dtd">
<!-- Generated by graphviz version 2.26.3 (20100126.1600)
 -->
<!-- Title: ant::canvas::drawable_container&lt; T &gt; Pages: 1 -->
<svg width="152pt" height="130pt"
 viewBox="0.00 0.00 152.00 130.00" xmlns="http://www.w3.org/2000/svg" xmlns:xlink="http://www.w3.org/1999/xlink">
<g id="graph1" class="graph" transform="scale(1 1) rotate(0) translate(4 126)">
<title>ant::canvas::drawable_container&lt; T &gt;</title>
<polygon fill="white" stroke="white" points="-4,5 -4,-126 149,-126 149,5 -4,5"/>
<!-- Node1 -->
<g id="node1" class="node"><title>Node1</title>
<polygon fill="#bfbfbf" stroke="black" points="31.5,-1 31.5,-35 144.5,-35 144.5,-1 31.5,-1"/>
<text text-anchor="start" x="39.5" y="-22" font-family="Helvetica,sans-Serif" font-size="10.00">ant::canvas::drawable</text>
<text text-anchor="middle" x="88" y="-9" font-family="Helvetica,sans-Serif" font-size="10.00">_container&lt; T &gt;</text>
</g>
<!-- Node2 -->
<g id="node2" class="node"><title>Node2</title>
<a xlink:href="classant_1_1root__drawable__traits.html" target="_top" xlink:title="ant::root_drawable\l_traits">
<polygon fill="white" stroke="black" points="-0.5,-87 -0.5,-121 96.5,-121 96.5,-87 -0.5,-87"/>
<text text-anchor="start" x="7.5" y="-108" font-family="Helvetica,sans-Serif" font-size="10.00">ant::root_drawable</text>
<text text-anchor="middle" x="48" y="-95" font-family="Helvetica,sans-Serif" font-size="10.00">_traits</text>
</a>
</g>
<!-- Node2&#45;&gt;Node1 -->
<g id="edge2" class="edge"><title>Node2&#45;&gt;Node1</title>
<path fill="none" stroke="midnightblue" d="M60.4906,-77.1453C66.881,-63.4059 74.4679,-47.0939 80.054,-35.084"/>
<polygon fill="midnightblue" stroke="midnightblue" points="57.1384,-76.0533 56.0946,-86.5966 63.4855,-79.0055 57.1384,-76.0533"/>
</g>
<!-- Node3 -->
<g id="node4" class="node"><title>Node3</title>
<polygon fill="white" stroke="#bfbfbf" points="113.5,-93.5 113.5,-114.5 142.5,-114.5 142.5,-93.5 113.5,-93.5"/>
<text text-anchor="middle" x="128" y="-101.5" font-family="Helvetica,sans-Serif" font-size="10.00">T</text>
</g>
<!-- Node3&#45;&gt;Node1 -->
<g id="edge4" class="edge"><title>Node3&#45;&gt;Node1</title>
<path fill="none" stroke="#9a32cd" stroke-dasharray="5,2" d="M118.777,-84.1703C111.886,-69.3541 102.56,-49.305 95.9865,-35.1709"/>
<polygon fill="#9a32cd" stroke="#9a32cd" points="115.704,-85.8636 123.095,-93.4547 122.051,-82.9114 115.704,-85.8636"/>
<text text-anchor="middle" x="118" y="-58.5" font-family="Helvetica,sans-Serif" font-size="10.00"> obj</text>
</g>
</g>
</svg>
