<?xml version="1.0" encoding="UTF-8" standalone="no"?>
<!DOCTYPE svg PUBLIC "-//W3C//DTD SVG 1.1//EN"
 "http://www.w3.org/Graphics/SVG/1.1/DTD/svg11.dtd">
<!-- Generated by graphviz version 2.26.3 (20100126.1600)
 -->
<!-- Title: ant::calibration::gui::Manager Pages: 1 -->
<svg width="1096pt" height="379pt"
 viewBox="0.00 0.00 1096.00 379.00" xmlns="http://www.w3.org/2000/svg" xmlns:xlink="http://www.w3.org/1999/xlink">
<g id="graph1" class="graph" transform="scale(1 1) rotate(0) translate(4 375)">
<title>ant::calibration::gui::Manager</title>
<polygon fill="white" stroke="white" points="-4,5 -4,-375 1093,-375 1093,5 -4,5"/>
<!-- Node1 -->
<g id="node1" class="node"><title>Node1</title>
<polygon fill="#bfbfbf" stroke="black" points="988.5,-152 988.5,-186 1087.5,-186 1087.5,-152 988.5,-152"/>
<text text-anchor="start" x="996.5" y="-173" font-family="Helvetica,sans-Serif" font-size="10.00">ant::calibration::gui</text>
<text text-anchor="middle" x="1038" y="-160" font-family="Helvetica,sans-Serif" font-size="10.00">::Manager</text>
</g>
<!-- Node2 -->
<g id="node2" class="node"><title>Node2</title>
<a xlink:href="classant_1_1calibration_1_1gui_1_1_manager_window.html" target="_top" xlink:title="ant::calibration::gui\l::ManagerWindow">
<polygon fill="white" stroke="black" points="805.5,-271 805.5,-305 904.5,-305 904.5,-271 805.5,-271"/>
<text text-anchor="start" x="813.5" y="-292" font-family="Helvetica,sans-Serif" font-size="10.00">ant::calibration::gui</text>
<text text-anchor="middle" x="855" y="-279" font-family="Helvetica,sans-Serif" font-size="10.00">::ManagerWindow</text>
</a>
</g>
<!-- Node2&#45;&gt;Node1 -->
<g id="edge2" class="edge"><title>Node2&#45;&gt;Node1</title>
<path fill="none" stroke="#9a32cd" stroke-dasharray="5,2" d="M902.245,-266.465C923.604,-255.953 948.759,-242.463 970,-228 988.346,-215.509 1007.26,-198.722 1020.47,-186.248"/>
<polygon fill="#9a32cd" stroke="#9a32cd" points="900.509,-263.417 893.038,-270.93 903.563,-269.716 900.509,-263.417"/>
<text text-anchor="middle" x="951" y="-254" font-family="Helvetica,sans-Serif" font-size="10.00"> window</text>
</g>
<!-- Node3 -->
<g id="node4" class="node"><title>Node3</title>
<polygon fill="white" stroke="#bfbfbf" points="581.5,-349.5 581.5,-370.5 660.5,-370.5 660.5,-349.5 581.5,-349.5"/>
<text text-anchor="middle" x="621" y="-357.5" font-family="Helvetica,sans-Serif" font-size="10.00">TGMainFrame</text>
</g>
<!-- Node3&#45;&gt;Node2 -->
<g id="edge4" class="edge"><title>Node3&#45;&gt;Node2</title>
<path fill="none" stroke="midnightblue" d="M668.709,-346.695C676.5,-344.484 684.48,-342.196 692,-340 730.33,-328.808 739.968,-326.167 778,-314 786.87,-311.163 796.284,-308.06 805.372,-305.018"/>
<polygon fill="midnightblue" stroke="midnightblue" points="667.662,-343.354 658.991,-349.442 669.566,-350.09 667.662,-343.354"/>
</g>
<!-- Node4 -->
<g id="node6" class="node"><title>Node4</title>
<a xlink:href="classant_1_1calibration_1_1gui_1_1_manager_window__traits.html" target="_top" xlink:title="ant::calibration::gui\l::ManagerWindow_traits">
<polygon fill="white" stroke="black" points="560,-297 560,-331 682,-331 682,-297 560,-297"/>
<text text-anchor="start" x="568" y="-318" font-family="Helvetica,sans-Serif" font-size="10.00">ant::calibration::gui</text>
<text text-anchor="middle" x="621" y="-305" font-family="Helvetica,sans-Serif" font-size="10.00">::ManagerWindow_traits</text>
</a>
</g>
<!-- Node4&#45;&gt;Node2 -->
<g id="edge6" class="edge"><title>Node4&#45;&gt;Node2</title>
<path fill="none" stroke="midnightblue" d="M692.272,-306.081C728.783,-302.024 772.346,-297.184 805.206,-293.533"/>
<polygon fill="midnightblue" stroke="midnightblue" points="691.727,-302.62 682.175,-307.203 692.5,-309.577 691.727,-302.62"/>
</g>
<!-- Node5 -->
<g id="node8" class="node"><title>Node5</title>
<a xlink:href="structant_1_1calibration_1_1gui_1_1_manager_window_mode.html" target="_top" xlink:title="ant::calibration::gui\l::ManagerWindowMode">
<polygon fill="white" stroke="black" points="561.5,-245 561.5,-279 680.5,-279 680.5,-245 561.5,-245"/>
<text text-anchor="start" x="569.5" y="-266" font-family="Helvetica,sans-Serif" font-size="10.00">ant::calibration::gui</text>
<text text-anchor="middle" x="621" y="-253" font-family="Helvetica,sans-Serif" font-size="10.00">::ManagerWindowMode</text>
</a>
</g>
<!-- Node5&#45;&gt;Node2 -->
<g id="edge8" class="edge"><title>Node5&#45;&gt;Node2</title>
<path fill="none" stroke="#9a32cd" stroke-dasharray="5,2" d="M690.832,-269.759C727.68,-273.853 772.025,-278.781 805.333,-282.481"/>
<polygon fill="#9a32cd" stroke="#9a32cd" points="690.979,-266.254 680.654,-268.628 690.206,-273.211 690.979,-266.254"/>
<text text-anchor="middle" x="744" y="-282" font-family="Helvetica,sans-Serif" font-size="10.00"> Mode</text>
</g>
<!-- Node6 -->
<g id="node10" class="node"><title>Node6</title>
<a xlink:href="structant_1_1calibration_1_1gui_1_1_manager__traits_1_1_do_fit_options__t.html" target="_top" xlink:title="ant::calibration::gui\l::Manager_traits::DoFitOptions_t">
<polygon fill="white" stroke="black" points="304.5,-245 304.5,-279 463.5,-279 463.5,-245 304.5,-245"/>
<text text-anchor="start" x="312.5" y="-266" font-family="Helvetica,sans-Serif" font-size="10.00">ant::calibration::gui</text>
<text text-anchor="middle" x="384" y="-253" font-family="Helvetica,sans-Serif" font-size="10.00">::Manager_traits::DoFitOptions_t</text>
</a>
</g>
<!-- Node6&#45;&gt;Node5 -->
<g id="edge10" class="edge"><title>Node6&#45;&gt;Node5</title>
<path fill="none" stroke="#9a32cd" stroke-dasharray="5,2" d="M473.833,-262C503.158,-262 534.975,-262 561.498,-262"/>
<polygon fill="#9a32cd" stroke="#9a32cd" points="473.577,-258.5 463.577,-262 473.577,-265.5 473.577,-258.5"/>
<text text-anchor="middle" x="507" y="-266" font-family="Helvetica,sans-Serif" font-size="10.00"> FitOptions</text>
</g>
<!-- Node7 -->
<g id="node12" class="node"><title>Node7</title>
<a xlink:title="STL class. ">
<polygon fill="white" stroke="#bfbfbf" points="153,-171.5 153,-192.5 213,-192.5 213,-171.5 153,-171.5"/>
<text text-anchor="middle" x="183" y="-179.5" font-family="Helvetica,sans-Serif" font-size="10.00">std::string</text>
</a>
</g>
<!-- Node7&#45;&gt;Node1 -->
<g id="edge12" class="edge"><title>Node7&#45;&gt;Node1</title>
<path fill="none" stroke="#9a32cd" stroke-dasharray="5,2" d="M223.044,-192.194C263.399,-201.561 327.603,-214 384,-214 384,-214 384,-214 855,-214 903.749,-214 957.744,-198.756 994.364,-186.013"/>
<polygon fill="#9a32cd" stroke="#9a32cd" points="223.607,-188.731 213.069,-189.828 221.991,-195.542 223.607,-188.731"/>
<text text-anchor="middle" x="621" y="-218" font-family="Helvetica,sans-Serif" font-size="10.00"> SetupName</text>
</g>
<!-- Node11 -->
<g id="node20" class="node"><title>Node11</title>
<a xlink:href="structant_1_1calibration_1_1gui_1_1_manager_1_1input__file__t.html" target="_top" xlink:title="ant::calibration::gui\l::Manager::input_file_t">
<polygon fill="white" stroke="black" points="327.5,-149 327.5,-183 440.5,-183 440.5,-149 327.5,-149"/>
<text text-anchor="start" x="335.5" y="-170" font-family="Helvetica,sans-Serif" font-size="10.00">ant::calibration::gui</text>
<text text-anchor="middle" x="384" y="-157" font-family="Helvetica,sans-Serif" font-size="10.00">::Manager::input_file_t</text>
</a>
</g>
<!-- Node7&#45;&gt;Node11 -->
<g id="edge22" class="edge"><title>Node7&#45;&gt;Node11</title>
<path fill="none" stroke="#9a32cd" stroke-dasharray="5,2" d="M223.155,-178.804C253.027,-176.426 294.193,-173.149 327.401,-170.505"/>
<polygon fill="#9a32cd" stroke="#9a32cd" points="222.782,-175.322 213.092,-179.605 223.338,-182.3 222.782,-175.322"/>
<text text-anchor="middle" x="266" y="-180" font-family="Helvetica,sans-Serif" font-size="10.00"> filename</text>
</g>
<!-- Node8 -->
<g id="node14" class="node"><title>Node8</title>
<a xlink:title="STL class. ">
<polygon fill="white" stroke="#bfbfbf" points="2.5,-165 2.5,-199 97.5,-199 97.5,-165 2.5,-165"/>
<text text-anchor="start" x="10.5" y="-186" font-family="Helvetica,sans-Serif" font-size="10.00">std::basic_string&lt;</text>
<text text-anchor="middle" x="50" y="-173" font-family="Helvetica,sans-Serif" font-size="10.00"> char &gt;</text>
</a>
</g>
<!-- Node8&#45;&gt;Node7 -->
<g id="edge14" class="edge"><title>Node8&#45;&gt;Node7</title>
<path fill="none" stroke="midnightblue" d="M107.691,-182C123.181,-182 139.322,-182 152.668,-182"/>
<polygon fill="midnightblue" stroke="midnightblue" points="107.64,-178.5 97.6404,-182 107.64,-185.5 107.64,-178.5"/>
</g>
<!-- Node9 -->
<g id="node16" class="node"><title>Node9</title>
<a xlink:href="structant_1_1calibration_1_1gui_1_1_manager_1_1state__t.html" target="_top" xlink:title="ant::calibration::gui\l::Manager::state_t">
<polygon fill="white" stroke="black" points="805.5,-152 805.5,-186 904.5,-186 904.5,-152 805.5,-152"/>
<text text-anchor="start" x="813.5" y="-173" font-family="Helvetica,sans-Serif" font-size="10.00">ant::calibration::gui</text>
<text text-anchor="middle" x="855" y="-160" font-family="Helvetica,sans-Serif" font-size="10.00">::Manager::state_t</text>
</a>
</g>
<!-- Node9&#45;&gt;Node1 -->
<g id="edge16" class="edge"><title>Node9&#45;&gt;Node1</title>
<path fill="none" stroke="#9a32cd" stroke-dasharray="5,2" d="M914.536,-169C938.429,-169 965.648,-169 988.438,-169"/>
<polygon fill="#9a32cd" stroke="#9a32cd" points="914.522,-165.5 904.522,-169 914.522,-172.5 914.522,-165.5"/>
<text text-anchor="middle" x="951" y="-173" font-family="Helvetica,sans-Serif" font-size="10.00"> state</text>
</g>
<!-- Node10 -->
<g id="node18" class="node"><title>Node10</title>
<polygon fill="white" stroke="#bfbfbf" points="550.5,-144 550.5,-178 691.5,-178 691.5,-144 550.5,-144"/>
<text text-anchor="start" x="558.5" y="-165" font-family="Helvetica,sans-Serif" font-size="10.00">std::list&lt; ant::calibration</text>
<text text-anchor="middle" x="621" y="-152" font-family="Helvetica,sans-Serif" font-size="10.00">::gui::Manager::input_file_t &gt;</text>
</g>
<!-- Node10&#45;&gt;Node1 -->
<g id="edge46" class="edge"><title>Node10&#45;&gt;Node1</title>
<path fill="none" stroke="#9a32cd" stroke-dasharray="5,2" d="M698.754,-141.894C757.951,-129.978 841.352,-118.845 914,-130 941.659,-134.247 971.617,-143.53 995.156,-151.974"/>
<polygon fill="#9a32cd" stroke="#9a32cd" points="697.814,-138.514 688.73,-143.966 699.231,-145.369 697.814,-138.514"/>
<text text-anchor="middle" x="855" y="-134" font-family="Helvetica,sans-Serif" font-size="10.00"> input_files</text>
</g>
<!-- Node10&#45;&gt;Node9 -->
<g id="edge18" class="edge"><title>Node10&#45;&gt;Node9</title>
<path fill="none" stroke="#9a32cd" stroke-dasharray="5,2" d="M701.59,-163.755C736.087,-164.935 775.274,-166.274 805.408,-167.305"/>
<polygon fill="#9a32cd" stroke="#9a32cd" points="701.639,-160.255 691.525,-163.411 701.4,-167.251 701.639,-160.255"/>
<text text-anchor="middle" x="744" y="-170" font-family="Helvetica,sans-Serif" font-size="10.00"> it_file</text>
</g>
<!-- Node11&#45;&gt;Node10 -->
<g id="edge20" class="edge"><title>Node11&#45;&gt;Node10</title>
<path fill="none" stroke="#9a32cd" stroke-dasharray="5,2" d="M451.037,-164.586C482.026,-163.932 518.843,-163.155 550.273,-162.492"/>
<polygon fill="#9a32cd" stroke="#9a32cd" points="450.691,-161.092 440.767,-164.802 450.839,-168.091 450.691,-161.092"/>
<text text-anchor="middle" x="507" y="-167" font-family="Helvetica,sans-Serif" font-size="10.00"> elements</text>
</g>
<!-- Node12 -->
<g id="node23" class="node"><title>Node12</title>
<a xlink:href="classant_1_1interval.html" target="_top" xlink:title="ant::interval\&lt; ant\l::ant::TID \&gt;">
<polygon fill="white" stroke="black" points="138,-118 138,-152 228,-152 228,-118 138,-118"/>
<text text-anchor="start" x="146" y="-139" font-family="Helvetica,sans-Serif" font-size="10.00">ant::interval&lt; ant</text>
<text text-anchor="middle" x="183" y="-126" font-family="Helvetica,sans-Serif" font-size="10.00">::ant::TID &gt;</text>
</a>
</g>
<!-- Node12&#45;&gt;Node11 -->
<g id="edge24" class="edge"><title>Node12&#45;&gt;Node11</title>
<path fill="none" stroke="#9a32cd" stroke-dasharray="5,2" d="M238.023,-143.486C265.709,-147.756 299.23,-152.926 327.164,-157.234"/>
<polygon fill="#9a32cd" stroke="#9a32cd" points="238.525,-140.022 228.108,-141.957 237.458,-146.94 238.525,-140.022"/>
<text text-anchor="middle" x="266" y="-154" font-family="Helvetica,sans-Serif" font-size="10.00"> range</text>
</g>
<!-- Node13 -->
<g id="node25" class="node"><title>Node13</title>
<a xlink:href="classant_1_1printable__traits.html" target="_top" xlink:title="ant::printable_traits">
<polygon fill="white" stroke="black" points="0,-78.5 0,-99.5 100,-99.5 100,-78.5 0,-78.5"/>
<text text-anchor="middle" x="50" y="-86.5" font-family="Helvetica,sans-Serif" font-size="10.00">ant::printable_traits</text>
</a>
</g>
<!-- Node13&#45;&gt;Node12 -->
<g id="edge26" class="edge"><title>Node13&#45;&gt;Node12</title>
<path fill="none" stroke="midnightblue" d="M90.0857,-102.864C105.191,-108.089 122.468,-114.064 137.994,-119.434"/>
<polygon fill="midnightblue" stroke="midnightblue" points="91.1077,-99.5143 80.5129,-99.5533 88.8195,-106.13 91.1077,-99.5143"/>
</g>
<!-- Node18 -->
<g id="node35" class="node"><title>Node18</title>
<a xlink:href="classant_1_1interval.html" target="_top" xlink:title="ant::interval\&lt; ant\l::TID \&gt;">
<polygon fill="white" stroke="black" points="339,-31 339,-65 429,-65 429,-31 339,-31"/>
<text text-anchor="start" x="347" y="-52" font-family="Helvetica,sans-Serif" font-size="10.00">ant::interval&lt; ant</text>
<text text-anchor="middle" x="384" y="-39" font-family="Helvetica,sans-Serif" font-size="10.00">::TID &gt;</text>
</a>
</g>
<!-- Node13&#45;&gt;Node18 -->
<g id="edge38" class="edge"><title>Node13&#45;&gt;Node18</title>
<path fill="none" stroke="midnightblue" d="M110.264,-88.8925C158.182,-87.9754 226.772,-84.8043 286,-75 303.411,-72.1179 322.173,-67.3676 338.574,-62.6483"/>
<polygon fill="midnightblue" stroke="midnightblue" points="110.003,-85.3962 100.062,-89.0597 110.118,-92.3953 110.003,-85.3962"/>
</g>
<!-- Node19 -->
<g id="node38" class="node"><title>Node19</title>
<a xlink:href="structant_1_1_t_i_d.html" target="_top" xlink:title="ant::TID">
<polygon fill="white" stroke="black" points="156.5,-38.5 156.5,-59.5 209.5,-59.5 209.5,-38.5 156.5,-38.5"/>
<text text-anchor="middle" x="183" y="-46.5" font-family="Helvetica,sans-Serif" font-size="10.00">ant::TID</text>
</a>
</g>
<!-- Node13&#45;&gt;Node19 -->
<g id="edge42" class="edge"><title>Node13&#45;&gt;Node19</title>
<path fill="none" stroke="midnightblue" d="M94.6872,-75.5602C115.12,-69.4151 138.642,-62.3408 156.27,-57.039"/>
<polygon fill="midnightblue" stroke="midnightblue" points="93.5124,-72.2586 84.9442,-78.4905 95.5285,-78.962 93.5124,-72.2586"/>
</g>
<!-- Node14 -->
<g id="node27" class="node"><title>Node14</title>
<a xlink:href="classant_1_1calibration_1_1gui_1_1_avg_buffer.html" target="_top" xlink:title="ant::calibration::gui\l::AvgBuffer\&lt; TH1, ant\l::interval\&lt; ant::TID \&gt; \&gt;">
<polygon fill="white" stroke="black" points="796.5,-35.5 796.5,-82.5 913.5,-82.5 913.5,-35.5 796.5,-35.5"/>
<text text-anchor="start" x="804.5" y="-69.5" font-family="Helvetica,sans-Serif" font-size="10.00">ant::calibration::gui</text>
<text text-anchor="start" x="804.5" y="-56.5" font-family="Helvetica,sans-Serif" font-size="10.00">::AvgBuffer&lt; TH1, ant</text>
<text text-anchor="middle" x="855" y="-43.5" font-family="Helvetica,sans-Serif" font-size="10.00">::interval&lt; ant::TID &gt; &gt;</text>
</a>
</g>
<!-- Node14&#45;&gt;Node1 -->
<g id="edge28" class="edge"><title>Node14&#45;&gt;Node1</title>
<path fill="none" stroke="#9a32cd" stroke-dasharray="5,2" d="M923.632,-73.305C939.586,-78.3779 955.986,-85.1185 970,-94 993.901,-109.148 1014.63,-134.907 1026.73,-151.939"/>
<polygon fill="#9a32cd" stroke="#9a32cd" points="924.366,-69.8712 913.782,-70.3577 922.359,-76.5775 924.366,-69.8712"/>
<text text-anchor="middle" x="951" y="-98" font-family="Helvetica,sans-Serif" font-size="10.00"> buffer</text>
</g>
<!-- Node15 -->
<g id="node29" class="node"><title>Node15</title>
<polygon fill="white" stroke="#bfbfbf" points="561.5,-94.5 561.5,-115.5 680.5,-115.5 680.5,-94.5 561.5,-94.5"/>
<text text-anchor="middle" x="621" y="-102.5" font-family="Helvetica,sans-Serif" font-size="10.00">std::list&lt; buffer_entry &gt;</text>
</g>
<!-- Node15&#45;&gt;Node14 -->
<g id="edge30" class="edge"><title>Node15&#45;&gt;Node14</title>
<path fill="none" stroke="#9a32cd" stroke-dasharray="5,2" d="M684.733,-92.4713C719.508,-85.6352 762.264,-77.2301 796.232,-70.5528"/>
<polygon fill="#9a32cd" stroke="#9a32cd" points="683.821,-89.0834 674.684,-94.4467 685.172,-95.952 683.821,-89.0834"/>
<text text-anchor="middle" x="744" y="-92" font-family="Helvetica,sans-Serif" font-size="10.00"> m_buffer</text>
</g>
<!-- Node16 -->
<g id="node31" class="node"><title>Node16</title>
<a xlink:href="structant_1_1calibration_1_1gui_1_1_avg_buffer_1_1buffer__entry.html" target="_top" xlink:title="ant::calibration::gui\l::AvgBuffer\&lt; HistType,\l IDType \&gt;::buffer_entry">
<polygon fill="white" stroke="black" points="324.5,-83.5 324.5,-130.5 443.5,-130.5 443.5,-83.5 324.5,-83.5"/>
<text text-anchor="start" x="332.5" y="-117.5" font-family="Helvetica,sans-Serif" font-size="10.00">ant::calibration::gui</text>
<text text-anchor="start" x="332.5" y="-104.5" font-family="Helvetica,sans-Serif" font-size="10.00">::AvgBuffer&lt; HistType,</text>
<text text-anchor="middle" x="384" y="-91.5" font-family="Helvetica,sans-Serif" font-size="10.00"> IDType &gt;::buffer_entry</text>
</a>
</g>
<!-- Node16&#45;&gt;Node15 -->
<g id="edge32" class="edge"><title>Node16&#45;&gt;Node15</title>
<path fill="none" stroke="#9a32cd" stroke-dasharray="5,2" d="M454.148,-106.408C488.19,-106.121 528.658,-105.779 561.214,-105.505"/>
<polygon fill="#9a32cd" stroke="#9a32cd" points="453.775,-102.911 443.805,-106.495 453.834,-109.911 453.775,-102.911"/>
<text text-anchor="middle" x="507" y="-110" font-family="Helvetica,sans-Serif" font-size="10.00"> elements</text>
</g>
<!-- Node17 -->
<g id="node33" class="node"><title>Node17</title>
<polygon fill="white" stroke="#bfbfbf" points="560,-40 560,-74 682,-74 682,-40 560,-40"/>
<text text-anchor="start" x="568" y="-61" font-family="Helvetica,sans-Serif" font-size="10.00">std::queue&lt; ant::interval</text>
<text text-anchor="middle" x="621" y="-48" font-family="Helvetica,sans-Serif" font-size="10.00">&lt; ant::TID &gt; &gt;</text>
</g>
<!-- Node17&#45;&gt;Node14 -->
<g id="edge34" class="edge"><title>Node17&#45;&gt;Node14</title>
<path fill="none" stroke="#9a32cd" stroke-dasharray="5,2" d="M692.232,-57.3541C719.112,-57.5139 749.964,-57.7287 778,-58 783.882,-58.0569 790.017,-58.1238 796.144,-58.1956"/>
<polygon fill="#9a32cd" stroke="#9a32cd" points="692.159,-53.8537 682.139,-57.2956 692.119,-60.8536 692.159,-53.8537"/>
<text text-anchor="middle" x="744" y="-62" font-family="Helvetica,sans-Serif" font-size="10.00"> worklist</text>
</g>
<!-- Node18&#45;&gt;Node17 -->
<g id="edge36" class="edge"><title>Node18&#45;&gt;Node17</title>
<path fill="none" stroke="#9a32cd" stroke-dasharray="5,2" d="M439.489,-50.1072C475.604,-51.4786 522.731,-53.2683 559.914,-54.6803"/>
<polygon fill="#9a32cd" stroke="#9a32cd" points="439.261,-46.5961 429.136,-49.714 438.996,-53.5911 439.261,-46.5961"/>
<text text-anchor="middle" x="507" y="-58" font-family="Helvetica,sans-Serif" font-size="10.00"> elements</text>
</g>
<!-- Node19&#45;&gt;Node18 -->
<g id="edge40" class="edge"><title>Node19&#45;&gt;Node18</title>
<path fill="none" stroke="#9a32cd" stroke-dasharray="5,2" d="M219.962,-48.8161C253.438,-48.6496 302.859,-48.4037 338.7,-48.2254"/>
<polygon fill="#9a32cd" stroke="#9a32cd" points="219.674,-45.3174 209.691,-48.8672 219.709,-52.3173 219.674,-45.3174"/>
<text text-anchor="middle" x="266" y="-66" font-family="Helvetica,sans-Serif" font-size="10.00"> _start</text>
<text text-anchor="middle" x="266" y="-53" font-family="Helvetica,sans-Serif" font-size="10.00">_stop</text>
</g>
<!-- Node20 -->
<g id="node41" class="node"><title>Node20</title>
<polygon fill="white" stroke="#bfbfbf" points="562,-0.5 562,-21.5 680,-21.5 680,-0.5 562,-0.5"/>
<text text-anchor="middle" x="621" y="-8.5" font-family="Helvetica,sans-Serif" font-size="10.00">std::unique_ptr&lt; TH1 &gt;</text>
</g>
<!-- Node20&#45;&gt;Node14 -->
<g id="edge44" class="edge"><title>Node20&#45;&gt;Node14</title>
<path fill="none" stroke="#9a32cd" stroke-dasharray="5,2" d="M689.224,-23.4089C716.837,-28.5947 748.989,-34.84 778,-41 783.909,-42.2546 790.061,-43.6097 796.199,-44.9937"/>
<polygon fill="#9a32cd" stroke="#9a32cd" points="689.743,-19.9453 679.27,-21.5484 688.457,-26.8262 689.743,-19.9453"/>
<text text-anchor="middle" x="744" y="-45" font-family="Helvetica,sans-Serif" font-size="10.00"> m_movingsum</text>
</g>
</g>
</svg>
