<?xml version="1.0" encoding="UTF-8" standalone="no"?>
<!DOCTYPE svg PUBLIC "-//W3C//DTD SVG 1.1//EN"
 "http://www.w3.org/Graphics/SVG/1.1/DTD/svg11.dtd">
<!-- Generated by graphviz version 2.26.3 (20100126.1600)
 -->
<!-- Title: ant::analysis::OptionsList Pages: 1 -->
<svg width="136pt" height="274pt"
 viewBox="0.00 0.00 136.00 274.00" xmlns="http://www.w3.org/2000/svg" xmlns:xlink="http://www.w3.org/1999/xlink">
<g id="graph1" class="graph" transform="scale(1 1) rotate(0) translate(4 270)">
<title>ant::analysis::OptionsList</title>
<polygon fill="white" stroke="white" points="-4,5 -4,-270 133,-270 133,5 -4,5"/>
<!-- Node1 -->
<g id="node1" class="node"><title>Node1</title>
<polygon fill="#bfbfbf" stroke="black" points="0,-0.5 0,-21.5 128,-21.5 128,-0.5 0,-0.5"/>
<text text-anchor="middle" x="64" y="-8.5" font-family="Helvetica,sans-Serif" font-size="10.00">ant::analysis::OptionsList</text>
</g>
<!-- Node2 -->
<g id="node2" class="node"><title>Node2</title>
<polygon fill="white" stroke="#bfbfbf" points="9,-73 9,-107 119,-107 119,-73 9,-73"/>
<text text-anchor="start" x="17" y="-94" font-family="Helvetica,sans-Serif" font-size="10.00">std::map&lt; std::string,</text>
<text text-anchor="middle" x="64" y="-81" font-family="Helvetica,sans-Serif" font-size="10.00"> std::string &gt;</text>
</g>
<!-- Node2&#45;&gt;Node1 -->
<g id="edge2" class="edge"><title>Node2&#45;&gt;Node1</title>
<path fill="none" stroke="#9a32cd" stroke-dasharray="5,2" d="M64,-62.6228C64,-48.4727 64,-32.0243 64,-21.5672"/>
<polygon fill="#9a32cd" stroke="#9a32cd" points="60.5001,-62.8581 64,-72.8582 67.5001,-62.8582 60.5001,-62.8581"/>
<text text-anchor="middle" x="81.5" y="-44.5" font-family="Helvetica,sans-Serif" font-size="10.00"> options</text>
</g>
<!-- Node3 -->
<g id="node4" class="node"><title>Node3</title>
<a xlink:title="STL class. ">
<polygon fill="white" stroke="#bfbfbf" points="34,-170.5 34,-191.5 94,-191.5 94,-170.5 34,-170.5"/>
<text text-anchor="middle" x="64" y="-178.5" font-family="Helvetica,sans-Serif" font-size="10.00">std::string</text>
</a>
</g>
<!-- Node3&#45;&gt;Node2 -->
<g id="edge4" class="edge"><title>Node3&#45;&gt;Node2</title>
<path fill="none" stroke="#9a32cd" stroke-dasharray="5,2" d="M64,-159.755C64,-143.799 64,-122.221 64,-107.309"/>
<polygon fill="#9a32cd" stroke="#9a32cd" points="60.5001,-160.204 64,-170.204 67.5001,-160.204 60.5001,-160.204"/>
<text text-anchor="middle" x="84" y="-143" font-family="Helvetica,sans-Serif" font-size="10.00"> keys</text>
<text text-anchor="middle" x="84" y="-130" font-family="Helvetica,sans-Serif" font-size="10.00">elements</text>
</g>
<!-- Node4 -->
<g id="node6" class="node"><title>Node4</title>
<a xlink:title="STL class. ">
<polygon fill="white" stroke="#bfbfbf" points="16.5,-231 16.5,-265 111.5,-265 111.5,-231 16.5,-231"/>
<text text-anchor="start" x="24.5" y="-252" font-family="Helvetica,sans-Serif" font-size="10.00">std::basic_string&lt;</text>
<text text-anchor="middle" x="64" y="-239" font-family="Helvetica,sans-Serif" font-size="10.00"> char &gt;</text>
</a>
</g>
<!-- Node4&#45;&gt;Node3 -->
<g id="edge6" class="edge"><title>Node4&#45;&gt;Node3</title>
<path fill="none" stroke="midnightblue" d="M64,-220.534C64,-210.306 64,-199.301 64,-191.506"/>
<polygon fill="midnightblue" stroke="midnightblue" points="60.5001,-220.746 64,-230.746 67.5001,-220.746 60.5001,-220.746"/>
</g>
</g>
</svg>
