<?xml version="1.0" encoding="UTF-8" standalone="no"?>
<!DOCTYPE svg PUBLIC "-//W3C//DTD SVG 1.1//EN"
 "http://www.w3.org/Graphics/SVG/1.1/DTD/svg11.dtd">
<!-- Generated by graphviz version 2.26.3 (20100126.1600)
 -->
<!-- Title: ant::analysis::input::AntReader Pages: 1 -->
<svg width="1296pt" height="250pt"
 viewBox="0.00 0.00 1296.00 250.00" xmlns="http://www.w3.org/2000/svg" xmlns:xlink="http://www.w3.org/1999/xlink">
<g id="graph1" class="graph" transform="scale(1 1) rotate(0) translate(4 246)">
<title>ant::analysis::input::AntReader</title>
<polygon fill="white" stroke="white" points="-4,5 -4,-246 1293,-246 1293,5 -4,5"/>
<!-- Node1 -->
<g id="node1" class="node"><title>Node1</title>
<polygon fill="#bfbfbf" stroke="black" points="1188.5,-104 1188.5,-138 1287.5,-138 1287.5,-104 1188.5,-104"/>
<text text-anchor="start" x="1196.5" y="-125" font-family="Helvetica,sans-Serif" font-size="10.00">ant::analysis::input</text>
<text text-anchor="middle" x="1238" y="-112" font-family="Helvetica,sans-Serif" font-size="10.00">::AntReader</text>
</g>
<!-- Node2 -->
<g id="node2" class="node"><title>Node2</title>
<a xlink:href="classant_1_1analysis_1_1input_1_1_data_reader.html" target="_top" xlink:title="Abstract base class for data input modules. ">
<polygon fill="white" stroke="black" points="952.5,-208 952.5,-242 1051.5,-242 1051.5,-208 952.5,-208"/>
<text text-anchor="start" x="960.5" y="-229" font-family="Helvetica,sans-Serif" font-size="10.00">ant::analysis::input</text>
<text text-anchor="middle" x="1002" y="-216" font-family="Helvetica,sans-Serif" font-size="10.00">::DataReader</text>
</a>
</g>
<!-- Node2&#45;&gt;Node1 -->
<g id="edge2" class="edge"><title>Node2&#45;&gt;Node1</title>
<path fill="none" stroke="midnightblue" d="M1061.62,-212.574C1094.7,-204.305 1135.91,-191.676 1170,-174 1188.47,-164.422 1206.93,-149.62 1219.95,-138.091"/>
<polygon fill="midnightblue" stroke="midnightblue" points="1060.52,-209.239 1051.63,-215.001 1062.17,-216.041 1060.52,-209.239"/>
</g>
<!-- Node3 -->
<g id="node4" class="node"><title>Node3</title>
<polygon fill="white" stroke="#bfbfbf" points="946.5,-156 946.5,-190 1057.5,-190 1057.5,-156 946.5,-156"/>
<text text-anchor="start" x="954.5" y="-177" font-family="Helvetica,sans-Serif" font-size="10.00">std::unique_ptr&lt; ant</text>
<text text-anchor="middle" x="1002" y="-164" font-family="Helvetica,sans-Serif" font-size="10.00">::Unpacker::Reader &gt;</text>
</g>
<!-- Node3&#45;&gt;Node1 -->
<g id="edge4" class="edge"><title>Node3&#45;&gt;Node1</title>
<path fill="none" stroke="#9a32cd" stroke-dasharray="5,2" d="M1067.59,-159.962C1098.69,-153.62 1136.33,-145.714 1170,-138 1175.93,-136.641 1182.14,-135.165 1188.29,-133.669"/>
<polygon fill="#9a32cd" stroke="#9a32cd" points="1066.84,-156.543 1057.74,-161.964 1068.23,-163.403 1066.84,-156.543"/>
<text text-anchor="middle" x="1123" y="-161" font-family="Helvetica,sans-Serif" font-size="10.00"> reader</text>
</g>
<!-- Node4 -->
<g id="node6" class="node"><title>Node4</title>
<a xlink:href="classant_1_1_unpacker_1_1_reader.html" target="_top" xlink:title="The Reader interface returns the unpacked data as a stream. ">
<polygon fill="white" stroke="black" points="772,-162.5 772,-183.5 888,-183.5 888,-162.5 772,-162.5"/>
<text text-anchor="middle" x="830" y="-170.5" font-family="Helvetica,sans-Serif" font-size="10.00">ant::Unpacker::Reader</text>
</a>
</g>
<!-- Node4&#45;&gt;Node3 -->
<g id="edge6" class="edge"><title>Node4&#45;&gt;Node3</title>
<path fill="none" stroke="#9a32cd" stroke-dasharray="5,2" d="M898.539,-173C914.443,-173 931.18,-173 946.446,-173"/>
<polygon fill="#9a32cd" stroke="#9a32cd" points="898.231,-169.5 888.231,-173 898.231,-176.5 898.231,-169.5"/>
<text text-anchor="middle" x="920" y="-177" font-family="Helvetica,sans-Serif" font-size="10.00"> ptr</text>
</g>
<!-- Node5 -->
<g id="node8" class="node"><title>Node5</title>
<polygon fill="white" stroke="#bfbfbf" points="950,-104 950,-138 1054,-138 1054,-104 950,-104"/>
<text text-anchor="start" x="958" y="-125" font-family="Helvetica,sans-Serif" font-size="10.00">std::unique_ptr&lt; ant</text>
<text text-anchor="middle" x="1002" y="-112" font-family="Helvetica,sans-Serif" font-size="10.00">::TSlowControl &gt;</text>
</g>
<!-- Node5&#45;&gt;Node1 -->
<g id="edge8" class="edge"><title>Node5&#45;&gt;Node1</title>
<path fill="none" stroke="#9a32cd" stroke-dasharray="5,2" d="M1064.22,-121C1103.04,-121 1152.31,-121 1188.47,-121"/>
<polygon fill="#9a32cd" stroke="#9a32cd" points="1064.08,-117.5 1054.08,-121 1064.08,-124.5 1064.08,-117.5"/>
<text text-anchor="middle" x="1123" y="-125" font-family="Helvetica,sans-Serif" font-size="10.00"> buffered_slowcontrol</text>
</g>
<!-- Node6 -->
<g id="node10" class="node"><title>Node6</title>
<a xlink:href="structant_1_1_t_slow_control.html" target="_top" xlink:title="ant::TSlowControl">
<polygon fill="white" stroke="black" points="782.5,-110.5 782.5,-131.5 877.5,-131.5 877.5,-110.5 782.5,-110.5"/>
<text text-anchor="middle" x="830" y="-118.5" font-family="Helvetica,sans-Serif" font-size="10.00">ant::TSlowControl</text>
</a>
</g>
<!-- Node6&#45;&gt;Node5 -->
<g id="edge10" class="edge"><title>Node6&#45;&gt;Node5</title>
<path fill="none" stroke="#9a32cd" stroke-dasharray="5,2" d="M888.129,-121C908.111,-121 930.344,-121 949.823,-121"/>
<polygon fill="#9a32cd" stroke="#9a32cd" points="887.912,-117.5 877.912,-121 887.912,-124.5 887.912,-117.5"/>
<text text-anchor="middle" x="920" y="-125" font-family="Helvetica,sans-Serif" font-size="10.00"> ptr</text>
</g>
<!-- Node7 -->
<g id="node12" class="node"><title>Node7</title>
<a xlink:href="structant_1_1_t_data_record.html" target="_top" xlink:title="ant::TDataRecord">
<polygon fill="white" stroke="black" points="542.5,-208.5 542.5,-229.5 637.5,-229.5 637.5,-208.5 542.5,-208.5"/>
<text text-anchor="middle" x="590" y="-216.5" font-family="Helvetica,sans-Serif" font-size="10.00">ant::TDataRecord</text>
</a>
</g>
<!-- Node7&#45;&gt;Node6 -->
<g id="edge12" class="edge"><title>Node7&#45;&gt;Node6</title>
<path fill="none" stroke="midnightblue" d="M637.597,-205.678C645.108,-203.496 652.776,-201.221 660,-199 699.361,-186.897 712.628,-191.087 748,-170 757.452,-164.365 756.982,-159.306 766,-153 778.013,-144.6 792.549,-137.145 804.73,-131.548"/>
<polygon fill="midnightblue" stroke="midnightblue" points="636.504,-202.35 627.864,-208.481 638.442,-209.077 636.504,-202.35"/>
</g>
<!-- Node8 -->
<g id="node14" class="node"><title>Node8</title>
<a xlink:href="classant_1_1printable__traits.html" target="_top" xlink:title="ant::printable_traits">
<polygon fill="white" stroke="black" points="134,-157.5 134,-178.5 234,-178.5 234,-157.5 134,-157.5"/>
<text text-anchor="middle" x="184" y="-165.5" font-family="Helvetica,sans-Serif" font-size="10.00">ant::printable_traits</text>
</a>
</g>
<!-- Node8&#45;&gt;Node7 -->
<g id="edge14" class="edge"><title>Node8&#45;&gt;Node7</title>
<path fill="none" stroke="midnightblue" d="M206.94,-184.202C229.073,-198.8 264.117,-219.268 298,-228 381.861,-249.613 483.758,-238.391 542.322,-228.52"/>
<polygon fill="midnightblue" stroke="midnightblue" points="208.81,-181.242 198.564,-178.549 204.894,-187.044 208.81,-181.242"/>
</g>
<!-- Node9 -->
<g id="node16" class="node"><title>Node9</title>
<a xlink:href="structant_1_1_t_i_d.html" target="_top" xlink:title="ant::TID">
<polygon fill="white" stroke="black" points="337.5,-197.5 337.5,-218.5 390.5,-218.5 390.5,-197.5 337.5,-197.5"/>
<text text-anchor="middle" x="364" y="-205.5" font-family="Helvetica,sans-Serif" font-size="10.00">ant::TID</text>
</a>
</g>
<!-- Node8&#45;&gt;Node9 -->
<g id="edge18" class="edge"><title>Node8&#45;&gt;Node9</title>
<path fill="none" stroke="midnightblue" d="M241.068,-180.682C273.316,-187.848 312.106,-196.468 337.371,-202.082"/>
<polygon fill="midnightblue" stroke="midnightblue" points="241.814,-177.262 231.293,-178.51 240.295,-184.096 241.814,-177.262"/>
</g>
<!-- Node11 -->
<g id="node21" class="node"><title>Node11</title>
<a xlink:href="structant_1_1_t_key_value.html" target="_top" xlink:title="ant::TKeyValue\&lt; double \&gt;">
<polygon fill="white" stroke="black" points="298.5,-157.5 298.5,-178.5 429.5,-178.5 429.5,-157.5 298.5,-157.5"/>
<text text-anchor="middle" x="364" y="-165.5" font-family="Helvetica,sans-Serif" font-size="10.00">ant::TKeyValue&lt; double &gt;</text>
</a>
</g>
<!-- Node8&#45;&gt;Node11 -->
<g id="edge24" class="edge"><title>Node8&#45;&gt;Node11</title>
<path fill="none" stroke="midnightblue" d="M244.159,-168C261.542,-168 280.6,-168 298.302,-168"/>
<polygon fill="midnightblue" stroke="midnightblue" points="244.14,-164.5 234.14,-168 244.14,-171.5 244.14,-164.5"/>
</g>
<!-- Node13 -->
<g id="node26" class="node"><title>Node13</title>
<a xlink:href="structant_1_1_t_key_value.html" target="_top" xlink:title="ant::TKeyValue\&lt; std\l::int64_t \&gt;">
<polygon fill="white" stroke="black" points="310.5,-105 310.5,-139 417.5,-139 417.5,-105 310.5,-105"/>
<text text-anchor="start" x="318.5" y="-126" font-family="Helvetica,sans-Serif" font-size="10.00">ant::TKeyValue&lt; std</text>
<text text-anchor="middle" x="364" y="-113" font-family="Helvetica,sans-Serif" font-size="10.00">::int64_t &gt;</text>
</a>
</g>
<!-- Node8&#45;&gt;Node13 -->
<g id="edge30" class="edge"><title>Node8&#45;&gt;Node13</title>
<path fill="none" stroke="midnightblue" d="M235.071,-154.948C258.566,-148.944 286.444,-141.82 310.256,-135.735"/>
<polygon fill="midnightblue" stroke="midnightblue" points="234.118,-151.58 225.296,-157.447 235.851,-158.362 234.118,-151.58"/>
</g>
<!-- Node17 -->
<g id="node35" class="node"><title>Node17</title>
<a xlink:href="structant_1_1_t_key_value.html" target="_top" xlink:title="ant::TKeyValue\&lt; std\l::string \&gt;">
<polygon fill="white" stroke="black" points="310.5,-53 310.5,-87 417.5,-87 417.5,-53 310.5,-53"/>
<text text-anchor="start" x="318.5" y="-74" font-family="Helvetica,sans-Serif" font-size="10.00">ant::TKeyValue&lt; std</text>
<text text-anchor="middle" x="364" y="-61" font-family="Helvetica,sans-Serif" font-size="10.00">::string &gt;</text>
</a>
</g>
<!-- Node8&#45;&gt;Node17 -->
<g id="edge40" class="edge"><title>Node8&#45;&gt;Node17</title>
<path fill="none" stroke="midnightblue" d="M207.194,-151.524C229.708,-135.977 265.192,-112.636 298,-96 304.151,-92.881 310.769,-89.8824 317.356,-87.1008"/>
<polygon fill="midnightblue" stroke="midnightblue" points="205.153,-148.68 198.95,-157.269 209.156,-154.423 205.153,-148.68"/>
</g>
<!-- Node9&#45;&gt;Node7 -->
<g id="edge16" class="edge"><title>Node9&#45;&gt;Node7</title>
<path fill="none" stroke="#9a32cd" stroke-dasharray="5,2" d="M401.079,-209.805C439.66,-211.683 500.214,-214.63 542.328,-216.68"/>
<polygon fill="#9a32cd" stroke="#9a32cd" points="400.971,-206.295 390.813,-209.305 400.631,-213.287 400.971,-206.295"/>
<text text-anchor="middle" x="475" y="-218" font-family="Helvetica,sans-Serif" font-size="10.00"> ID</text>
</g>
<!-- Node10 -->
<g id="node19" class="node"><title>Node10</title>
<polygon fill="white" stroke="#bfbfbf" points="520,-156 520,-190 660,-190 660,-156 520,-156"/>
<text text-anchor="start" x="528" y="-177" font-family="Helvetica,sans-Serif" font-size="10.00">std::vector&lt; ant::TKeyValue</text>
<text text-anchor="middle" x="590" y="-164" font-family="Helvetica,sans-Serif" font-size="10.00">&lt; double &gt; &gt;</text>
</g>
<!-- Node10&#45;&gt;Node6 -->
<g id="edge20" class="edge"><title>Node10&#45;&gt;Node6</title>
<path fill="none" stroke="#9a32cd" stroke-dasharray="5,2" d="M669.897,-155.689C707.142,-147.619 750.212,-138.287 782.292,-131.337"/>
<polygon fill="#9a32cd" stroke="#9a32cd" points="669.095,-152.281 660.063,-157.82 670.578,-159.123 669.095,-152.281"/>
<text text-anchor="middle" x="713" y="-157" font-family="Helvetica,sans-Serif" font-size="10.00"> Payload_Float</text>
</g>
<!-- Node11&#45;&gt;Node10 -->
<g id="edge22" class="edge"><title>Node11&#45;&gt;Node10</title>
<path fill="none" stroke="#9a32cd" stroke-dasharray="5,2" d="M439.799,-169.677C465.653,-170.249 494.432,-170.886 519.825,-171.447"/>
<polygon fill="#9a32cd" stroke="#9a32cd" points="439.747,-166.175 429.672,-169.453 439.592,-173.173 439.747,-166.175"/>
<text text-anchor="middle" x="475" y="-174" font-family="Helvetica,sans-Serif" font-size="10.00"> elements</text>
</g>
<!-- Node12 -->
<g id="node24" class="node"><title>Node12</title>
<polygon fill="white" stroke="#bfbfbf" points="520,-104 520,-138 660,-138 660,-104 520,-104"/>
<text text-anchor="start" x="528" y="-125" font-family="Helvetica,sans-Serif" font-size="10.00">std::vector&lt; ant::TKeyValue</text>
<text text-anchor="middle" x="590" y="-112" font-family="Helvetica,sans-Serif" font-size="10.00">&lt; std::int64_t &gt; &gt;</text>
</g>
<!-- Node12&#45;&gt;Node6 -->
<g id="edge26" class="edge"><title>Node12&#45;&gt;Node6</title>
<path fill="none" stroke="#9a32cd" stroke-dasharray="5,2" d="M670.372,-121C707.508,-121 750.348,-121 782.292,-121"/>
<polygon fill="#9a32cd" stroke="#9a32cd" points="670.063,-117.5 660.063,-121 670.063,-124.5 670.063,-117.5"/>
<text text-anchor="middle" x="713" y="-125" font-family="Helvetica,sans-Serif" font-size="10.00"> Payload_Int</text>
</g>
<!-- Node13&#45;&gt;Node12 -->
<g id="edge28" class="edge"><title>Node13&#45;&gt;Node12</title>
<path fill="none" stroke="#9a32cd" stroke-dasharray="5,2" d="M427.854,-121.717C456.488,-121.591 490.352,-121.441 519.707,-121.311"/>
<polygon fill="#9a32cd" stroke="#9a32cd" points="427.543,-118.219 417.559,-121.763 427.574,-125.219 427.543,-118.219"/>
<text text-anchor="middle" x="475" y="-125" font-family="Helvetica,sans-Serif" font-size="10.00"> elements</text>
</g>
<!-- Node14 -->
<g id="node29" class="node"><title>Node14</title>
<a xlink:title="STL class. ">
<polygon fill="white" stroke="#bfbfbf" points="154,-30.5 154,-51.5 214,-51.5 214,-30.5 154,-30.5"/>
<text text-anchor="middle" x="184" y="-38.5" font-family="Helvetica,sans-Serif" font-size="10.00">std::string</text>
</a>
</g>
<!-- Node14&#45;&gt;Node6 -->
<g id="edge32" class="edge"><title>Node14&#45;&gt;Node6</title>
<path fill="none" stroke="#9a32cd" stroke-dasharray="5,2" d="M224.04,-35.2697C306.789,-24.7065 502.118,-6.40934 660,-43 675.421,-46.5741 765.986,-89.9601 808.27,-110.433"/>
<polygon fill="#9a32cd" stroke="#9a32cd" points="223.513,-31.8088 214.052,-36.5778 224.422,-38.7495 223.513,-31.8088"/>
<text text-anchor="middle" x="475" y="-40" font-family="Helvetica,sans-Serif" font-size="10.00"> Description</text>
<text text-anchor="middle" x="475" y="-27" font-family="Helvetica,sans-Serif" font-size="10.00">Name</text>
</g>
<!-- Node14&#45;&gt;Node17 -->
<g id="edge42" class="edge"><title>Node14&#45;&gt;Node17</title>
<path fill="none" stroke="#9a32cd" stroke-dasharray="5,2" d="M224.165,-47.471C249.6,-51.5689 282.791,-56.9163 310.453,-61.373"/>
<polygon fill="#9a32cd" stroke="#9a32cd" points="224.557,-43.9892 214.128,-45.8539 223.444,-50.9001 224.557,-43.9892"/>
<text text-anchor="middle" x="266" y="-60" font-family="Helvetica,sans-Serif" font-size="10.00"> Value</text>
</g>
<!-- Node15 -->
<g id="node31" class="node"><title>Node15</title>
<a xlink:title="STL class. ">
<polygon fill="white" stroke="#bfbfbf" points="0.5,-24 0.5,-58 95.5,-58 95.5,-24 0.5,-24"/>
<text text-anchor="start" x="8.5" y="-45" font-family="Helvetica,sans-Serif" font-size="10.00">std::basic_string&lt;</text>
<text text-anchor="middle" x="48" y="-32" font-family="Helvetica,sans-Serif" font-size="10.00"> char &gt;</text>
</a>
</g>
<!-- Node15&#45;&gt;Node14 -->
<g id="edge34" class="edge"><title>Node15&#45;&gt;Node14</title>
<path fill="none" stroke="midnightblue" d="M105.698,-41C122.2,-41 139.53,-41 153.68,-41"/>
<polygon fill="midnightblue" stroke="midnightblue" points="105.566,-37.5001 95.5662,-41 105.566,-44.5001 105.566,-37.5001"/>
</g>
<!-- Node16 -->
<g id="node33" class="node"><title>Node16</title>
<polygon fill="white" stroke="#bfbfbf" points="520,-52 520,-86 660,-86 660,-52 520,-52"/>
<text text-anchor="start" x="528" y="-73" font-family="Helvetica,sans-Serif" font-size="10.00">std::vector&lt; ant::TKeyValue</text>
<text text-anchor="middle" x="590" y="-60" font-family="Helvetica,sans-Serif" font-size="10.00">&lt; std::string &gt; &gt;</text>
</g>
<!-- Node16&#45;&gt;Node6 -->
<g id="edge36" class="edge"><title>Node16&#45;&gt;Node6</title>
<path fill="none" stroke="#9a32cd" stroke-dasharray="5,2" d="M669.897,-86.3109C707.142,-94.3808 750.212,-103.713 782.292,-110.663"/>
<polygon fill="#9a32cd" stroke="#9a32cd" points="670.578,-82.8773 660.063,-84.1803 669.095,-89.7186 670.578,-82.8773"/>
<text text-anchor="middle" x="713" y="-106" font-family="Helvetica,sans-Serif" font-size="10.00"> Payload_String</text>
</g>
<!-- Node17&#45;&gt;Node16 -->
<g id="edge38" class="edge"><title>Node17&#45;&gt;Node16</title>
<path fill="none" stroke="#9a32cd" stroke-dasharray="5,2" d="M427.854,-69.7175C456.488,-69.5908 490.352,-69.4409 519.707,-69.311"/>
<polygon fill="#9a32cd" stroke="#9a32cd" points="427.543,-66.2187 417.559,-69.763 427.574,-73.2186 427.543,-66.2187"/>
<text text-anchor="middle" x="475" y="-73" font-family="Helvetica,sans-Serif" font-size="10.00"> elements</text>
</g>
<!-- Node18 -->
<g id="node39" class="node"><title>Node18</title>
<polygon fill="white" stroke="#bfbfbf" points="946,-52 946,-86 1058,-86 1058,-52 946,-52"/>
<text text-anchor="start" x="954" y="-73" font-family="Helvetica,sans-Serif" font-size="10.00">std::unique_ptr&lt; ant</text>
<text text-anchor="middle" x="1002" y="-60" font-family="Helvetica,sans-Serif" font-size="10.00">::Reconstruct_traits &gt;</text>
</g>
<!-- Node18&#45;&gt;Node1 -->
<g id="edge44" class="edge"><title>Node18&#45;&gt;Node1</title>
<path fill="none" stroke="#9a32cd" stroke-dasharray="5,2" d="M1067.96,-82.1122C1098.98,-88.4417 1136.46,-96.3165 1170,-104 1175.93,-105.359 1182.14,-106.835 1188.29,-108.331"/>
<polygon fill="#9a32cd" stroke="#9a32cd" points="1068.62,-78.6752 1058.12,-80.1137 1067.22,-85.535 1068.62,-78.6752"/>
<text text-anchor="middle" x="1123" y="-108" font-family="Helvetica,sans-Serif" font-size="10.00"> reconstruct</text>
</g>
<!-- Node19 -->
<g id="node41" class="node"><title>Node19</title>
<a xlink:href="structant_1_1_reconstruct__traits.html" target="_top" xlink:title="ant::Reconstruct_traits">
<polygon fill="white" stroke="black" points="772,-58.5 772,-79.5 888,-79.5 888,-58.5 772,-58.5"/>
<text text-anchor="middle" x="830" y="-66.5" font-family="Helvetica,sans-Serif" font-size="10.00">ant::Reconstruct_traits</text>
</a>
</g>
<!-- Node19&#45;&gt;Node18 -->
<g id="edge46" class="edge"><title>Node19&#45;&gt;Node18</title>
<path fill="none" stroke="#9a32cd" stroke-dasharray="5,2" d="M898.431,-69C914.166,-69 930.722,-69 945.867,-69"/>
<polygon fill="#9a32cd" stroke="#9a32cd" points="898.231,-65.5001 888.231,-69 898.231,-72.5001 898.231,-65.5001"/>
<text text-anchor="middle" x="920" y="-73" font-family="Helvetica,sans-Serif" font-size="10.00"> ptr</text>
</g>
<!-- Node20 -->
<g id="node43" class="node"><title>Node20</title>
<polygon fill="white" stroke="#bfbfbf" points="948.5,-0 948.5,-34 1055.5,-34 1055.5,-0 948.5,-0"/>
<text text-anchor="start" x="956.5" y="-21" font-family="Helvetica,sans-Serif" font-size="10.00">std::unique_ptr&lt; tree</text>
<text text-anchor="middle" x="1002" y="-8" font-family="Helvetica,sans-Serif" font-size="10.00">::UnpackerWriter &gt;</text>
</g>
<!-- Node20&#45;&gt;Node1 -->
<g id="edge48" class="edge"><title>Node20&#45;&gt;Node1</title>
<path fill="none" stroke="#9a32cd" stroke-dasharray="5,2" d="M1065.65,-29.8607C1098.04,-37.8925 1137.35,-49.992 1170,-67 1188.72,-76.7499 1207.3,-91.9857 1220.3,-103.791"/>
<polygon fill="#9a32cd" stroke="#9a32cd" points="1066.38,-26.4362 1055.84,-27.4977 1064.74,-33.2417 1066.38,-26.4362"/>
<text text-anchor="middle" x="1123" y="-71" font-family="Helvetica,sans-Serif" font-size="10.00"> writer</text>
</g>
<!-- Node21 -->
<g id="node45" class="node"><title>Node21</title>
<a xlink:href="classant_1_1tree_1_1_unpacker_writer.html" target="_top" xlink:title="ant::tree::UnpackerWriter">
<polygon fill="white" stroke="black" points="766.5,-6.5 766.5,-27.5 893.5,-27.5 893.5,-6.5 766.5,-6.5"/>
<text text-anchor="middle" x="830" y="-14.5" font-family="Helvetica,sans-Serif" font-size="10.00">ant::tree::UnpackerWriter</text>
</a>
</g>
<!-- Node21&#45;&gt;Node20 -->
<g id="edge50" class="edge"><title>Node21&#45;&gt;Node20</title>
<path fill="none" stroke="#9a32cd" stroke-dasharray="5,2" d="M903.803,-17C918.751,-17 934.201,-17 948.297,-17"/>
<polygon fill="#9a32cd" stroke="#9a32cd" points="903.558,-13.5001 893.558,-17 903.558,-20.5001 903.558,-13.5001"/>
<text text-anchor="middle" x="920" y="-21" font-family="Helvetica,sans-Serif" font-size="10.00"> ptr</text>
</g>
</g>
</svg>
