<?xml version="1.0" encoding="UTF-8" standalone="no"?>
<!DOCTYPE svg PUBLIC "-//W3C//DTD SVG 1.1//EN"
 "http://www.w3.org/Graphics/SVG/1.1/DTD/svg11.dtd">
<!-- Generated by graphviz version 2.26.3 (20100126.1600)
 -->
<!-- Title: ant::calibration::Time Pages: 1 -->
<svg width="403pt" height="232pt"
 viewBox="0.00 0.00 403.00 232.00" xmlns="http://www.w3.org/2000/svg" xmlns:xlink="http://www.w3.org/1999/xlink">
<g id="graph1" class="graph" transform="scale(1 1) rotate(0) translate(4 228)">
<title>ant::calibration::Time</title>
<polygon fill="white" stroke="white" points="-4,5 -4,-228 400,-228 400,5 -4,5"/>
<!-- Node1 -->
<g id="node1" class="node"><title>Node1</title>
<polygon fill="#bfbfbf" stroke="black" points="218,-0.5 218,-21.5 326,-21.5 326,-0.5 218,-0.5"/>
<text text-anchor="middle" x="272" y="-8.5" font-family="Helvetica,sans-Serif" font-size="10.00">ant::calibration::Time</text>
</g>
<!-- Node2 -->
<g id="node2" class="node"><title>Node2</title>
<a xlink:href="classant_1_1_calibration_1_1_module.html" target="_top" xlink:title="The Module class is typically used for calibrations. ">
<polygon fill="white" stroke="black" points="145,-65.5 145,-86.5 265,-86.5 265,-65.5 145,-65.5"/>
<text text-anchor="middle" x="205" y="-73.5" font-family="Helvetica,sans-Serif" font-size="10.00">ant::Calibration::Module</text>
</a>
</g>
<!-- Node2&#45;&gt;Node1 -->
<g id="edge2" class="edge"><title>Node2&#45;&gt;Node1</title>
<path fill="none" stroke="midnightblue" d="M223.452,-58.0992C235.555,-46.3566 250.968,-31.4043 261.142,-21.5337"/>
<polygon fill="midnightblue" stroke="midnightblue" points="220.804,-55.7913 216.064,-65.2666 225.678,-60.8155 220.804,-55.7913"/>
</g>
<!-- Node3 -->
<g id="node4" class="node"><title>Node3</title>
<a xlink:href="classant_1_1_calibration_1_1_physics_module.html" target="_top" xlink:title="The PhysicsModule class gives the modules the ability to create histograms from events as well as fit...">
<polygon fill="white" stroke="black" points="9,-131 9,-165 133,-165 133,-131 9,-131"/>
<text text-anchor="start" x="17" y="-152" font-family="Helvetica,sans-Serif" font-size="10.00">ant::Calibration::Physics</text>
<text text-anchor="middle" x="71" y="-139" font-family="Helvetica,sans-Serif" font-size="10.00">Module</text>
</a>
</g>
<!-- Node3&#45;&gt;Node2 -->
<g id="edge4" class="edge"><title>Node3&#45;&gt;Node2</title>
<path fill="none" stroke="midnightblue" d="M111.77,-126.094C136.075,-113.034 165.848,-97.0368 185.108,-86.688"/>
<polygon fill="midnightblue" stroke="midnightblue" points="109.908,-123.121 102.756,-130.937 113.222,-129.287 109.908,-123.121"/>
</g>
<!-- Node4 -->
<g id="node6" class="node"><title>Node4</title>
<a xlink:href="classant_1_1_calibration_1_1_base_module.html" target="_top" xlink:title="The BaseModule class provides a name for identification. ">
<polygon fill="white" stroke="black" points="-0.5,-202.5 -0.5,-223.5 142.5,-223.5 142.5,-202.5 -0.5,-202.5"/>
<text text-anchor="middle" x="71" y="-210.5" font-family="Helvetica,sans-Serif" font-size="10.00">ant::Calibration::BaseModule</text>
</a>
</g>
<!-- Node4&#45;&gt;Node3 -->
<g id="edge6" class="edge"><title>Node4&#45;&gt;Node3</title>
<path fill="none" stroke="midnightblue" d="M71,-192.131C71,-183.405 71,-173.391 71,-165.11"/>
<polygon fill="midnightblue" stroke="midnightblue" points="67.5001,-192.267 71,-202.267 74.5001,-192.267 67.5001,-192.267"/>
</g>
<!-- Node5 -->
<g id="node8" class="node"><title>Node5</title>
<a xlink:href="classant_1_1_updateable__traits.html" target="_top" xlink:title="The Updateable_traits class used by the UpdateableManager. ">
<polygon fill="white" stroke="black" points="150.5,-137.5 150.5,-158.5 263.5,-158.5 263.5,-137.5 150.5,-137.5"/>
<text text-anchor="middle" x="207" y="-145.5" font-family="Helvetica,sans-Serif" font-size="10.00">ant::Updateable_traits</text>
</a>
</g>
<!-- Node5&#45;&gt;Node2 -->
<g id="edge8" class="edge"><title>Node5&#45;&gt;Node2</title>
<path fill="none" stroke="midnightblue" d="M206.423,-127.235C206.055,-113.969 205.592,-97.3188 205.296,-86.6674"/>
<polygon fill="midnightblue" stroke="midnightblue" points="202.928,-127.477 206.705,-137.376 209.926,-127.283 202.928,-127.477"/>
</g>
<!-- Node6 -->
<g id="node10" class="node"><title>Node6</title>
<a xlink:href="classant_1_1_reconstruct_hook_1_1_detector_read_hits.html" target="_top" xlink:title="The DetectorReadHits class instances are applied before hit matching. ">
<polygon fill="white" stroke="black" points="282.5,-59 282.5,-93 395.5,-93 395.5,-59 282.5,-59"/>
<text text-anchor="start" x="290.5" y="-80" font-family="Helvetica,sans-Serif" font-size="10.00">ant::ReconstructHook</text>
<text text-anchor="middle" x="339" y="-67" font-family="Helvetica,sans-Serif" font-size="10.00">::DetectorReadHits</text>
</a>
</g>
<!-- Node6&#45;&gt;Node1 -->
<g id="edge10" class="edge"><title>Node6&#45;&gt;Node1</title>
<path fill="none" stroke="midnightblue" d="M313.963,-51.7102C303.37,-41.4333 291.569,-29.9845 283.186,-21.8521"/>
<polygon fill="midnightblue" stroke="midnightblue" points="311.782,-54.4709 321.397,-58.922 316.656,-49.4468 311.782,-54.4709"/>
</g>
<!-- Node7 -->
<g id="node12" class="node"><title>Node7</title>
<a xlink:href="classant_1_1_reconstruct_hook_1_1_base.html" target="_top" xlink:title="The Base class just defines some useful types. ">
<polygon fill="white" stroke="black" points="282.5,-131 282.5,-165 395.5,-165 395.5,-131 282.5,-131"/>
<text text-anchor="start" x="290.5" y="-152" font-family="Helvetica,sans-Serif" font-size="10.00">ant::ReconstructHook</text>
<text text-anchor="middle" x="339" y="-139" font-family="Helvetica,sans-Serif" font-size="10.00">::Base</text>
</a>
</g>
<!-- Node7&#45;&gt;Node6 -->
<g id="edge12" class="edge"><title>Node7&#45;&gt;Node6</title>
<path fill="none" stroke="midnightblue" d="M339,-120.719C339,-111.572 339,-101.625 339,-93.4407"/>
<polygon fill="midnightblue" stroke="midnightblue" points="335.5,-120.937 339,-130.937 342.5,-120.937 335.5,-120.937"/>
</g>
</g>
</svg>
