<?xml version="1.0" encoding="UTF-8" standalone="no"?>
<!DOCTYPE svg PUBLIC "-//W3C//DTD SVG 1.1//EN"
 "http://www.w3.org/Graphics/SVG/1.1/DTD/svg11.dtd">
<!-- Generated by graphviz version 2.26.3 (20100126.1600)
 -->
<!-- Title: ant::analysis::Physics Pages: 1 -->
<svg width="444pt" height="1306pt"
 viewBox="0.00 0.00 444.00 1306.00" xmlns="http://www.w3.org/2000/svg" xmlns:xlink="http://www.w3.org/1999/xlink">
<g id="graph1" class="graph" transform="scale(1 1) rotate(0) translate(4 1302)">
<title>ant::analysis::Physics</title>
<polygon fill="white" stroke="white" points="-4,5 -4,-1302 441,-1302 441,5 -4,5"/>
<!-- Node1 -->
<g id="node1" class="node"><title>Node1</title>
<polygon fill="#bfbfbf" stroke="black" points="0.5,-632.5 0.5,-653.5 113.5,-653.5 113.5,-632.5 0.5,-632.5"/>
<text text-anchor="middle" x="57" y="-640.5" font-family="Helvetica,sans-Serif" font-size="10.00">ant::analysis::Physics</text>
</g>
<!-- Node2 -->
<g id="node3" class="node"><title>Node2</title>
<a xlink:href="classant_1_1analysis_1_1_basic.html" target="_top" xlink:title="ant::analysis::Basic">
<polygon fill="white" stroke="black" points="167.5,-1276.5 167.5,-1297.5 270.5,-1297.5 270.5,-1276.5 167.5,-1276.5"/>
<text text-anchor="middle" x="219" y="-1284.5" font-family="Helvetica,sans-Serif" font-size="10.00">ant::analysis::Basic</text>
</a>
</g>
<!-- Node1&#45;&gt;Node2 -->
<g id="edge2" class="edge"><title>Node1&#45;&gt;Node2</title>
<path fill="none" stroke="midnightblue" d="M57.192,-664.038C58.5118,-762.184 68.8748,-1174.19 150,-1267 154.679,-1272.35 160.695,-1276.31 167.22,-1279.24"/>
<polygon fill="midnightblue" stroke="midnightblue" points="60.6901,-663.854 57.0739,-653.895 53.6906,-663.935 60.6901,-663.854"/>
</g>
<!-- Node3 -->
<g id="node5" class="node"><title>Node3</title>
<a xlink:href="classant_1_1analysis_1_1physics_1_1_candidates_analysis.html" target="_top" xlink:title="ant::analysis::physics\l::CandidatesAnalysis">
<polygon fill="white" stroke="black" points="163,-1224 163,-1258 275,-1258 275,-1224 163,-1224"/>
<text text-anchor="start" x="171" y="-1245" font-family="Helvetica,sans-Serif" font-size="10.00">ant::analysis::physics</text>
<text text-anchor="middle" x="219" y="-1232" font-family="Helvetica,sans-Serif" font-size="10.00">::CandidatesAnalysis</text>
</a>
</g>
<!-- Node1&#45;&gt;Node3 -->
<g id="edge4" class="edge"><title>Node1&#45;&gt;Node3</title>
<path fill="none" stroke="midnightblue" d="M57.6657,-663.897C61.0085,-756.355 78.7431,-1127.92 150,-1215 153.567,-1219.36 157.946,-1222.99 162.753,-1226.01"/>
<polygon fill="midnightblue" stroke="midnightblue" points="61.161,-663.699 57.3197,-653.825 54.1652,-663.939 61.161,-663.699"/>
</g>
<!-- Node4 -->
<g id="node7" class="node"><title>Node4</title>
<a xlink:href="classant_1_1analysis_1_1physics_1_1_data_overview.html" target="_top" xlink:title="ant::analysis::physics\l::DataOverview">
<polygon fill="white" stroke="black" points="163,-1172 163,-1206 275,-1206 275,-1172 163,-1172"/>
<text text-anchor="start" x="171" y="-1193" font-family="Helvetica,sans-Serif" font-size="10.00">ant::analysis::physics</text>
<text text-anchor="middle" x="219" y="-1180" font-family="Helvetica,sans-Serif" font-size="10.00">::DataOverview</text>
</a>
</g>
<!-- Node1&#45;&gt;Node4 -->
<g id="edge6" class="edge"><title>Node1&#45;&gt;Node4</title>
<path fill="none" stroke="midnightblue" d="M58.0392,-663.902C62.7672,-751.068 84.9018,-1084.72 150,-1163 153.601,-1167.33 158.003,-1170.94 162.824,-1173.95"/>
<polygon fill="midnightblue" stroke="midnightblue" points="61.5231,-663.501 57.5054,-653.697 54.5327,-663.866 61.5231,-663.501"/>
</g>
<!-- Node5 -->
<g id="node9" class="node"><title>Node5</title>
<a xlink:href="classant_1_1analysis_1_1physics_1_1_debug_physics.html" target="_top" xlink:title="ant::analysis::physics\l::DebugPhysics">
<polygon fill="white" stroke="black" points="163,-1120 163,-1154 275,-1154 275,-1120 163,-1120"/>
<text text-anchor="start" x="171" y="-1141" font-family="Helvetica,sans-Serif" font-size="10.00">ant::analysis::physics</text>
<text text-anchor="middle" x="219" y="-1128" font-family="Helvetica,sans-Serif" font-size="10.00">::DebugPhysics</text>
</a>
</g>
<!-- Node1&#45;&gt;Node5 -->
<g id="edge8" class="edge"><title>Node1&#45;&gt;Node5</title>
<path fill="none" stroke="midnightblue" d="M58.4915,-663.877C64.7076,-745.432 91.0285,-1041.45 150,-1111 153.643,-1115.3 158.072,-1118.88 162.909,-1121.88"/>
<polygon fill="midnightblue" stroke="midnightblue" points="61.9771,-663.551 57.7465,-653.838 54.9963,-664.07 61.9771,-663.551"/>
</g>
<!-- Node6 -->
<g id="node11" class="node"><title>Node6</title>
<a xlink:href="classant_1_1analysis_1_1physics_1_1_debug_p_i_d_alignment.html" target="_top" xlink:title="ant::analysis::physics\l::DebugPIDAlignment">
<polygon fill="white" stroke="black" points="163,-1068 163,-1102 275,-1102 275,-1068 163,-1068"/>
<text text-anchor="start" x="171" y="-1089" font-family="Helvetica,sans-Serif" font-size="10.00">ant::analysis::physics</text>
<text text-anchor="middle" x="219" y="-1076" font-family="Helvetica,sans-Serif" font-size="10.00">::DebugPIDAlignment</text>
</a>
</g>
<!-- Node1&#45;&gt;Node6 -->
<g id="edge10" class="edge"><title>Node1&#45;&gt;Node6</title>
<path fill="none" stroke="midnightblue" d="M59.0621,-663.94C66.9068,-739.686 97.1469,-998.151 150,-1059 153.61,-1063.16 157.953,-1066.65 162.683,-1069.59"/>
<polygon fill="midnightblue" stroke="midnightblue" points="62.522,-663.367 58.031,-653.771 55.5577,-664.073 62.522,-663.367"/>
</g>
<!-- Node7 -->
<g id="node13" class="node"><title>Node7</title>
<a xlink:href="classant_1_1analysis_1_1physics_1_1_delta_plus_physics.html" target="_top" xlink:title="ant::analysis::physics\l::DeltaPlusPhysics">
<polygon fill="white" stroke="black" points="163,-1016 163,-1050 275,-1050 275,-1016 163,-1016"/>
<text text-anchor="start" x="171" y="-1037" font-family="Helvetica,sans-Serif" font-size="10.00">ant::analysis::physics</text>
<text text-anchor="middle" x="219" y="-1024" font-family="Helvetica,sans-Serif" font-size="10.00">::DeltaPlusPhysics</text>
</a>
</g>
<!-- Node1&#45;&gt;Node7 -->
<g id="edge12" class="edge"><title>Node1&#45;&gt;Node7</title>
<path fill="none" stroke="midnightblue" d="M59.7891,-663.971C69.4122,-733.465 103.22,-954.758 150,-1007 153.672,-1011.1 158.057,-1014.56 162.812,-1017.47"/>
<polygon fill="midnightblue" stroke="midnightblue" points="63.2258,-663.268 58.4087,-653.832 56.2897,-664.213 63.2258,-663.268"/>
</g>
<!-- Node8 -->
<g id="node15" class="node"><title>Node8</title>
<a xlink:href="classant_1_1analysis_1_1physics_1_1_delta_tree_generator.html" target="_top" xlink:title="ant::analysis::physics\l::DeltaTreeGenerator">
<polygon fill="white" stroke="black" points="163,-964 163,-998 275,-998 275,-964 163,-964"/>
<text text-anchor="start" x="171" y="-985" font-family="Helvetica,sans-Serif" font-size="10.00">ant::analysis::physics</text>
<text text-anchor="middle" x="219" y="-972" font-family="Helvetica,sans-Serif" font-size="10.00">::DeltaTreeGenerator</text>
</a>
</g>
<!-- Node1&#45;&gt;Node8 -->
<g id="edge14" class="edge"><title>Node1&#45;&gt;Node8</title>
<path fill="none" stroke="midnightblue" d="M60.708,-663.76C72.2461,-726.286 109.193,-911.203 150,-955 153.752,-959.027 158.191,-962.435 162.979,-965.318"/>
<polygon fill="midnightblue" stroke="midnightblue" points="64.0877,-662.782 58.854,-653.571 57.2008,-664.036 64.0877,-662.782"/>
</g>
<!-- Node9 -->
<g id="node17" class="node"><title>Node9</title>
<a xlink:href="classant_1_1analysis_1_1physics_1_1_geo_acceptance.html" target="_top" xlink:title="ant::analysis::physics\l::GeoAcceptance">
<polygon fill="white" stroke="black" points="163,-912 163,-946 275,-946 275,-912 163,-912"/>
<text text-anchor="start" x="171" y="-933" font-family="Helvetica,sans-Serif" font-size="10.00">ant::analysis::physics</text>
<text text-anchor="middle" x="219" y="-920" font-family="Helvetica,sans-Serif" font-size="10.00">::GeoAcceptance</text>
</a>
</g>
<!-- Node1&#45;&gt;Node9 -->
<g id="edge16" class="edge"><title>Node1&#45;&gt;Node9</title>
<path fill="none" stroke="midnightblue" d="M58.6183,-663.738C63.4861,-712.206 82.1648,-834.012 150,-903 153.77,-906.834 158.16,-910.109 162.865,-912.907"/>
<polygon fill="midnightblue" stroke="midnightblue" points="62.0843,-663.203 57.6956,-653.56 55.1128,-663.835 62.0843,-663.203"/>
</g>
<!-- Node10 -->
<g id="node19" class="node"><title>Node10</title>
<a xlink:href="classant_1_1analysis_1_1physics_1_1_m_c_true_acceptance.html" target="_top" xlink:title="ant::analysis::physics\l::MCTrueAcceptance">
<polygon fill="white" stroke="black" points="163,-860 163,-894 275,-894 275,-860 163,-860"/>
<text text-anchor="start" x="171" y="-881" font-family="Helvetica,sans-Serif" font-size="10.00">ant::analysis::physics</text>
<text text-anchor="middle" x="219" y="-868" font-family="Helvetica,sans-Serif" font-size="10.00">::MCTrueAcceptance</text>
</a>
</g>
<!-- Node1&#45;&gt;Node10 -->
<g id="edge18" class="edge"><title>Node1&#45;&gt;Node10</title>
<path fill="none" stroke="midnightblue" d="M60.7447,-663.723C69.2498,-705.009 93.8114,-798.091 150,-851 153.821,-854.598 158.188,-857.711 162.828,-860.401"/>
<polygon fill="midnightblue" stroke="midnightblue" points="64.1481,-662.89 58.7983,-653.745 57.2776,-664.23 64.1481,-662.89"/>
</g>
<!-- Node11 -->
<g id="node21" class="node"><title>Node11</title>
<a xlink:href="classant_1_1analysis_1_1physics_1_1_omega_base.html" target="_top" xlink:title="ant::analysis::physics\l::OmegaBase">
<polygon fill="white" stroke="black" points="163,-808 163,-842 275,-842 275,-808 163,-808"/>
<text text-anchor="start" x="171" y="-829" font-family="Helvetica,sans-Serif" font-size="10.00">ant::analysis::physics</text>
<text text-anchor="middle" x="219" y="-816" font-family="Helvetica,sans-Serif" font-size="10.00">::OmegaBase</text>
</a>
</g>
<!-- Node1&#45;&gt;Node11 -->
<g id="edge20" class="edge"><title>Node1&#45;&gt;Node11</title>
<path fill="none" stroke="midnightblue" d="M63.9924,-663.233C76.3452,-696.148 105.051,-761.386 150,-799 154.025,-802.368 158.531,-805.325 163.26,-807.914"/>
<polygon fill="midnightblue" stroke="midnightblue" points="67.2559,-661.966 60.5565,-653.758 60.6753,-664.352 67.2559,-661.966"/>
</g>
<!-- Node13 -->
<g id="node25" class="node"><title>Node13</title>
<a xlink:href="classant_1_1analysis_1_1physics_1_1_omega_m_c_true_plots.html" target="_top" xlink:title="ant::analysis::physics\l::OmegaMCTruePlots">
<polygon fill="white" stroke="black" points="163,-756 163,-790 275,-790 275,-756 163,-756"/>
<text text-anchor="start" x="171" y="-777" font-family="Helvetica,sans-Serif" font-size="10.00">ant::analysis::physics</text>
<text text-anchor="middle" x="219" y="-764" font-family="Helvetica,sans-Serif" font-size="10.00">::OmegaMCTruePlots</text>
</a>
</g>
<!-- Node1&#45;&gt;Node13 -->
<g id="edge24" class="edge"><title>Node1&#45;&gt;Node13</title>
<path fill="none" stroke="midnightblue" d="M69.5745,-661.932C85.723,-684.929 115.78,-723.55 150,-747 154.858,-750.329 160.197,-753.301 165.689,-755.937"/>
<polygon fill="midnightblue" stroke="midnightblue" points="72.448,-659.933 63.9017,-653.672 66.6776,-663.896 72.448,-659.933"/>
</g>
<!-- Node14 -->
<g id="node27" class="node"><title>Node14</title>
<a xlink:href="classant_1_1analysis_1_1physics_1_1_particle_combinatorics_test.html" target="_top" xlink:title="ant::analysis::physics\l::ParticleCombinatoricsTest">
<polygon fill="white" stroke="black" points="150,-704 150,-738 288,-738 288,-704 150,-704"/>
<text text-anchor="start" x="158" y="-725" font-family="Helvetica,sans-Serif" font-size="10.00">ant::analysis::physics</text>
<text text-anchor="middle" x="219" y="-712" font-family="Helvetica,sans-Serif" font-size="10.00">::ParticleCombinatoricsTest</text>
</a>
</g>
<!-- Node1&#45;&gt;Node14 -->
<g id="edge26" class="edge"><title>Node1&#45;&gt;Node14</title>
<path fill="none" stroke="midnightblue" d="M82.7347,-658.762C101.108,-669.672 126.609,-684.128 150,-695 156.617,-698.076 163.708,-701.071 170.734,-703.868"/>
<polygon fill="midnightblue" stroke="midnightblue" points="84.4536,-655.711 74.0774,-653.57 80.8535,-661.715 84.4536,-655.711"/>
</g>
<!-- Node15 -->
<g id="node29" class="node"><title>Node15</title>
<a xlink:href="classant_1_1analysis_1_1physics_1_1_particle_i_d_check.html" target="_top" xlink:title="ant::analysis::physics\l::ParticleIDCheck">
<polygon fill="white" stroke="black" points="163,-652 163,-686 275,-686 275,-652 163,-652"/>
<text text-anchor="start" x="171" y="-673" font-family="Helvetica,sans-Serif" font-size="10.00">ant::analysis::physics</text>
<text text-anchor="middle" x="219" y="-660" font-family="Helvetica,sans-Serif" font-size="10.00">::ParticleIDCheck</text>
</a>
</g>
<!-- Node1&#45;&gt;Node15 -->
<g id="edge28" class="edge"><title>Node1&#45;&gt;Node15</title>
<path fill="none" stroke="midnightblue" d="M123.538,-653.679C136.62,-655.779 150.222,-657.962 162.919,-659.999"/>
<polygon fill="midnightblue" stroke="midnightblue" points="124.088,-650.223 113.66,-652.094 122.979,-657.134 124.088,-650.223"/>
</g>
<!-- Node16 -->
<g id="node31" class="node"><title>Node16</title>
<a xlink:href="classant_1_1analysis_1_1physics_1_1_proton_check.html" target="_top" xlink:title="ant::analysis::physics\l::ProtonCheck">
<polygon fill="white" stroke="black" points="163,-600 163,-634 275,-634 275,-600 163,-600"/>
<text text-anchor="start" x="171" y="-621" font-family="Helvetica,sans-Serif" font-size="10.00">ant::analysis::physics</text>
<text text-anchor="middle" x="219" y="-608" font-family="Helvetica,sans-Serif" font-size="10.00">::ProtonCheck</text>
</a>
</g>
<!-- Node1&#45;&gt;Node16 -->
<g id="edge30" class="edge"><title>Node1&#45;&gt;Node16</title>
<path fill="none" stroke="midnightblue" d="M123.538,-632.321C136.62,-630.221 150.222,-628.038 162.919,-626.001"/>
<polygon fill="midnightblue" stroke="midnightblue" points="122.979,-628.866 113.66,-633.906 124.088,-635.777 122.979,-628.866"/>
</g>
<!-- Node17 -->
<g id="node33" class="node"><title>Node17</title>
<a xlink:href="classant_1_1analysis_1_1physics_1_1_reconstruct_check.html" target="_top" xlink:title="ant::analysis::physics\l::ReconstructCheck">
<polygon fill="white" stroke="black" points="163,-548 163,-582 275,-582 275,-548 163,-548"/>
<text text-anchor="start" x="171" y="-569" font-family="Helvetica,sans-Serif" font-size="10.00">ant::analysis::physics</text>
<text text-anchor="middle" x="219" y="-556" font-family="Helvetica,sans-Serif" font-size="10.00">::ReconstructCheck</text>
</a>
</g>
<!-- Node1&#45;&gt;Node17 -->
<g id="edge32" class="edge"><title>Node1&#45;&gt;Node17</title>
<path fill="none" stroke="midnightblue" d="M82.7347,-627.238C101.108,-616.328 126.609,-601.872 150,-591 156.617,-587.924 163.708,-584.929 170.734,-582.132"/>
<polygon fill="midnightblue" stroke="midnightblue" points="80.8535,-624.285 74.0774,-632.43 84.4536,-630.289 80.8535,-624.285"/>
</g>
<!-- Node18 -->
<g id="node35" class="node"><title>Node18</title>
<a xlink:href="classant_1_1analysis_1_1physics_1_1_test_a_p_l_c_o_n.html" target="_top" xlink:title="ant::analysis::physics\l::TestAPLCON">
<polygon fill="white" stroke="black" points="163,-496 163,-530 275,-530 275,-496 163,-496"/>
<text text-anchor="start" x="171" y="-517" font-family="Helvetica,sans-Serif" font-size="10.00">ant::analysis::physics</text>
<text text-anchor="middle" x="219" y="-504" font-family="Helvetica,sans-Serif" font-size="10.00">::TestAPLCON</text>
</a>
</g>
<!-- Node1&#45;&gt;Node18 -->
<g id="edge34" class="edge"><title>Node1&#45;&gt;Node18</title>
<path fill="none" stroke="midnightblue" d="M69.5745,-624.068C85.723,-601.071 115.78,-562.45 150,-539 154.858,-535.671 160.197,-532.699 165.689,-530.063"/>
<polygon fill="midnightblue" stroke="midnightblue" points="66.6776,-622.104 63.9017,-632.328 72.448,-626.067 66.6776,-622.104"/>
</g>
<!-- Node19 -->
<g id="node37" class="node"><title>Node19</title>
<a xlink:href="classant_1_1analysis_1_1physics_1_1_t_p_c___physics_stats.html" target="_top" xlink:title="Physics class to investigate angular distributions of charged particles. Intended for studies of cove...">
<polygon fill="white" stroke="black" points="163,-444 163,-478 275,-478 275,-444 163,-444"/>
<text text-anchor="start" x="171" y="-465" font-family="Helvetica,sans-Serif" font-size="10.00">ant::analysis::physics</text>
<text text-anchor="middle" x="219" y="-452" font-family="Helvetica,sans-Serif" font-size="10.00">::TPC_PhysicsStats</text>
</a>
</g>
<!-- Node1&#45;&gt;Node19 -->
<g id="edge36" class="edge"><title>Node1&#45;&gt;Node19</title>
<path fill="none" stroke="midnightblue" d="M63.9924,-622.767C76.3452,-589.852 105.051,-524.614 150,-487 154.025,-483.632 158.531,-480.675 163.26,-478.086"/>
<polygon fill="midnightblue" stroke="midnightblue" points="60.6753,-621.648 60.5565,-632.242 67.2559,-624.034 60.6753,-621.648"/>
</g>
<!-- Node20 -->
<g id="node39" class="node"><title>Node20</title>
<a xlink:href="classant_1_1analysis_1_1_reco_check.html" target="_top" xlink:title="ant::analysis::RecoCheck">
<polygon fill="white" stroke="black" points="154,-404.5 154,-425.5 284,-425.5 284,-404.5 154,-404.5"/>
<text text-anchor="middle" x="219" y="-412.5" font-family="Helvetica,sans-Serif" font-size="10.00">ant::analysis::RecoCheck</text>
</a>
</g>
<!-- Node1&#45;&gt;Node20 -->
<g id="edge38" class="edge"><title>Node1&#45;&gt;Node20</title>
<path fill="none" stroke="midnightblue" d="M60.3506,-622.164C68.186,-580.329 91.6612,-485.78 150,-435 154.422,-431.151 159.545,-428.042 164.964,-425.53"/>
<polygon fill="midnightblue" stroke="midnightblue" points="56.8975,-621.593 58.611,-632.048 63.7915,-622.806 56.8975,-621.593"/>
</g>
<!-- Node21 -->
<g id="node41" class="node"><title>Node21</title>
<a xlink:href="classant_1_1analysis_1_1_split_check.html" target="_top" xlink:title="ant::analysis::SplitCheck">
<polygon fill="white" stroke="black" points="156,-364.5 156,-385.5 282,-385.5 282,-364.5 156,-364.5"/>
<text text-anchor="middle" x="219" y="-372.5" font-family="Helvetica,sans-Serif" font-size="10.00">ant::analysis::SplitCheck</text>
</a>
</g>
<!-- Node1&#45;&gt;Node21 -->
<g id="edge40" class="edge"><title>Node1&#45;&gt;Node21</title>
<path fill="none" stroke="midnightblue" d="M58.6484,-622.226C63.543,-574.792 82.2113,-457.782 150,-395 154.118,-391.186 158.92,-388.095 164.039,-385.591"/>
<polygon fill="midnightblue" stroke="midnightblue" points="55.1367,-622.191 57.6987,-632.471 62.1069,-622.837 55.1367,-622.191"/>
</g>
<!-- Node22 -->
<g id="node43" class="node"><title>Node22</title>
<a xlink:href="structant_1_1calibration_1_1_c_b___energy_1_1_the_physics.html" target="_top" xlink:title="ant::calibration::CB\l_Energy::ThePhysics">
<polygon fill="white" stroke="black" points="164,-312 164,-346 274,-346 274,-312 164,-312"/>
<text text-anchor="start" x="172" y="-333" font-family="Helvetica,sans-Serif" font-size="10.00">ant::calibration::CB</text>
<text text-anchor="middle" x="219" y="-320" font-family="Helvetica,sans-Serif" font-size="10.00">_Energy::ThePhysics</text>
</a>
</g>
<!-- Node1&#45;&gt;Node22 -->
<g id="edge42" class="edge"><title>Node1&#45;&gt;Node22</title>
<path fill="none" stroke="midnightblue" d="M57.775,-622.19C60.823,-570.117 75.8564,-432.792 150,-355 153.974,-350.83 158.684,-347.323 163.746,-344.374"/>
<polygon fill="midnightblue" stroke="midnightblue" points="54.2645,-622.32 57.2688,-632.48 61.2561,-622.664 54.2645,-622.32"/>
</g>
<!-- Node23 -->
<g id="node45" class="node"><title>Node23</title>
<a xlink:href="classant_1_1calibration_1_1_c_b___time_walk_1_1_the_physics.html" target="_top" xlink:title="ant::calibration::CB\l_TimeWalk::ThePhysics">
<polygon fill="white" stroke="black" points="157,-260 157,-294 281,-294 281,-260 157,-260"/>
<text text-anchor="start" x="165" y="-281" font-family="Helvetica,sans-Serif" font-size="10.00">ant::calibration::CB</text>
<text text-anchor="middle" x="219" y="-268" font-family="Helvetica,sans-Serif" font-size="10.00">_TimeWalk::ThePhysics</text>
</a>
</g>
<!-- Node1&#45;&gt;Node23 -->
<g id="edge44" class="edge"><title>Node1&#45;&gt;Node23</title>
<path fill="none" stroke="midnightblue" d="M60.1808,-622.124C70.6641,-555.786 105.984,-351.33 150,-303 153.103,-299.593 156.698,-296.63 160.585,-294.053"/>
<polygon fill="midnightblue" stroke="midnightblue" points="56.6931,-621.774 58.6138,-632.193 63.6099,-622.85 56.6931,-621.774"/>
</g>
<!-- Node24 -->
<g id="node47" class="node"><title>Node24</title>
<a xlink:href="classant_1_1calibration_1_1_p_i_d___energy_1_1_the_physics.html" target="_top" xlink:title="ant::calibration::PID\l_Energy::ThePhysics">
<polygon fill="white" stroke="black" points="164,-208 164,-242 274,-242 274,-208 164,-208"/>
<text text-anchor="start" x="172" y="-229" font-family="Helvetica,sans-Serif" font-size="10.00">ant::calibration::PID</text>
<text text-anchor="middle" x="219" y="-216" font-family="Helvetica,sans-Serif" font-size="10.00">_Energy::ThePhysics</text>
</a>
</g>
<!-- Node1&#45;&gt;Node24 -->
<g id="edge46" class="edge"><title>Node1&#45;&gt;Node24</title>
<path fill="none" stroke="midnightblue" d="M59.339,-622.341C67.932,-549.787 99.887,-307.943 150,-251 153.89,-246.579 158.61,-242.908 163.736,-239.859"/>
<polygon fill="midnightblue" stroke="midnightblue" points="55.8389,-622.141 58.1613,-632.478 62.7921,-622.949 55.8389,-622.141"/>
</g>
<!-- Node25 -->
<g id="node49" class="node"><title>Node25</title>
<a xlink:href="classant_1_1calibration_1_1_p_i_d___phi_angle_1_1_the_physics.html" target="_top" xlink:title="ant::calibration::PID\l_PhiAngle::ThePhysics">
<polygon fill="white" stroke="black" points="159.5,-156 159.5,-190 278.5,-190 278.5,-156 159.5,-156"/>
<text text-anchor="start" x="167.5" y="-177" font-family="Helvetica,sans-Serif" font-size="10.00">ant::calibration::PID</text>
<text text-anchor="middle" x="219" y="-164" font-family="Helvetica,sans-Serif" font-size="10.00">_PhiAngle::ThePhysics</text>
</a>
</g>
<!-- Node1&#45;&gt;Node25 -->
<g id="edge48" class="edge"><title>Node1&#45;&gt;Node25</title>
<path fill="none" stroke="midnightblue" d="M58.7293,-622.197C65.664,-543.417 93.8322,-264.552 150,-199 152.915,-195.598 156.323,-192.64 160.034,-190.068"/>
<polygon fill="midnightblue" stroke="midnightblue" points="55.2286,-622.056 57.8594,-632.319 62.2029,-622.655 55.2286,-622.056"/>
</g>
<!-- Node26 -->
<g id="node51" class="node"><title>Node26</title>
<a xlink:href="classant_1_1calibration_1_1_t_a_p_s___energy_1_1_the_physics.html" target="_top" xlink:title="ant::calibration::TAPS\l_Energy::ThePhysics">
<polygon fill="white" stroke="black" points="162.5,-104 162.5,-138 275.5,-138 275.5,-104 162.5,-104"/>
<text text-anchor="start" x="170.5" y="-125" font-family="Helvetica,sans-Serif" font-size="10.00">ant::calibration::TAPS</text>
<text text-anchor="middle" x="219" y="-112" font-family="Helvetica,sans-Serif" font-size="10.00">_Energy::ThePhysics</text>
</a>
</g>
<!-- Node1&#45;&gt;Node26 -->
<g id="edge50" class="edge"><title>Node1&#45;&gt;Node26</title>
<path fill="none" stroke="midnightblue" d="M58.2272,-622.256C63.6093,-537.863 87.6969,-221.286 150,-147 153.455,-142.88 157.634,-139.413 162.205,-136.494"/>
<polygon fill="midnightblue" stroke="midnightblue" points="54.7254,-622.179 57.6017,-632.376 61.7121,-622.611 54.7254,-622.179"/>
</g>
<!-- Node27 -->
<g id="node53" class="node"><title>Node27</title>
<a xlink:href="classant_1_1calibration_1_1_t_a_p_s_veto___energy_1_1_the_physics.html" target="_top" xlink:title="ant::calibration::TAPSVeto\l_Energy::ThePhysics">
<polygon fill="white" stroke="black" points="152.5,-52 152.5,-86 285.5,-86 285.5,-52 152.5,-52"/>
<text text-anchor="start" x="160.5" y="-73" font-family="Helvetica,sans-Serif" font-size="10.00">ant::calibration::TAPSVeto</text>
<text text-anchor="middle" x="219" y="-60" font-family="Helvetica,sans-Serif" font-size="10.00">_Energy::ThePhysics</text>
</a>
</g>
<!-- Node1&#45;&gt;Node27 -->
<g id="edge52" class="edge"><title>Node1&#45;&gt;Node27</title>
<path fill="none" stroke="midnightblue" d="M57.8284,-622.125C61.7958,-532.117 81.5822,-178.02 150,-95 152.768,-91.6412 156.018,-88.7159 159.573,-86.1683"/>
<polygon fill="midnightblue" stroke="midnightblue" points="54.3288,-622.044 57.4036,-632.183 61.3226,-622.34 54.3288,-622.044"/>
</g>
<!-- Node28 -->
<g id="node55" class="node"><title>Node28</title>
<a xlink:href="classant_1_1calibration_1_1_time_1_1_the_physics.html" target="_top" xlink:title="ant::calibration::Time\l::ThePhysics">
<polygon fill="white" stroke="black" points="165,-0 165,-34 273,-34 273,-0 165,-0"/>
<text text-anchor="start" x="173" y="-21" font-family="Helvetica,sans-Serif" font-size="10.00">ant::calibration::Time</text>
<text text-anchor="middle" x="219" y="-8" font-family="Helvetica,sans-Serif" font-size="10.00">::ThePhysics</text>
</a>
</g>
<!-- Node1&#45;&gt;Node28 -->
<g id="edge54" class="edge"><title>Node1&#45;&gt;Node28</title>
<path fill="none" stroke="midnightblue" d="M57.4938,-622C60.1379,-526.608 75.4456,-134.798 150,-43 154.035,-38.0315 159.126,-34.012 164.707,-30.7603"/>
<polygon fill="midnightblue" stroke="midnightblue" points="53.9917,-622.036 57.2309,-632.124 60.9894,-622.218 53.9917,-622.036"/>
</g>
<!-- Node12 -->
<g id="node23" class="node"><title>Node12</title>
<a xlink:href="classant_1_1analysis_1_1physics_1_1_omega_eta_g.html" target="_top" xlink:title="ant::analysis::physics\l::OmegaEtaG">
<polygon fill="white" stroke="black" points="324,-808 324,-842 436,-842 436,-808 324,-808"/>
<text text-anchor="start" x="332" y="-829" font-family="Helvetica,sans-Serif" font-size="10.00">ant::analysis::physics</text>
<text text-anchor="middle" x="380" y="-816" font-family="Helvetica,sans-Serif" font-size="10.00">::OmegaEtaG</text>
</a>
</g>
<!-- Node11&#45;&gt;Node12 -->
<g id="edge22" class="edge"><title>Node11&#45;&gt;Node12</title>
<path fill="none" stroke="midnightblue" d="M285.451,-825C298.26,-825 311.558,-825 323.994,-825"/>
<polygon fill="midnightblue" stroke="midnightblue" points="285.31,-821.5 275.31,-825 285.31,-828.5 285.31,-821.5"/>
</g>
</g>
</svg>
