<?xml version="1.0" encoding="UTF-8" standalone="no"?>
<!DOCTYPE svg PUBLIC "-//W3C//DTD SVG 1.1//EN"
 "http://www.w3.org/Graphics/SVG/1.1/DTD/svg11.dtd">
<!-- Generated by graphviz version 2.26.3 (20100126.1600)
 -->
<!-- Title: ant::UnpackerA2GeantConfig Pages: 1 -->
<svg width="152pt" height="160pt"
 viewBox="0.00 0.00 152.00 160.00" xmlns="http://www.w3.org/2000/svg" xmlns:xlink="http://www.w3.org/1999/xlink">
<g id="graph1" class="graph" transform="scale(1 1) rotate(0) translate(4 156)">
<title>ant::UnpackerA2GeantConfig</title>
<polygon fill="white" stroke="white" points="-4,5 -4,-156 149,-156 149,5 -4,5"/>
<!-- Node1 -->
<g id="node1" class="node"><title>Node1</title>
<polygon fill="#bfbfbf" stroke="black" points="-0.5,-0.5 -0.5,-21.5 144.5,-21.5 144.5,-0.5 -0.5,-0.5"/>
<text text-anchor="middle" x="72" y="-8.5" font-family="Helvetica,sans-Serif" font-size="10.00">ant::UnpackerA2GeantConfig</text>
</g>
<!-- Node2 -->
<g id="node2" class="node"><title>Node2</title>
<a xlink:href="classant_1_1_exp_config_1_1_unpacker.html" target="_top" xlink:title="ant::ExpConfig::Unpacker\l\&lt; UnpackerA2GeantConfig \&gt;">
<polygon fill="white" stroke="black" points="0.5,-59 0.5,-93 143.5,-93 143.5,-59 0.5,-59"/>
<text text-anchor="start" x="8.5" y="-80" font-family="Helvetica,sans-Serif" font-size="10.00">ant::ExpConfig::Unpacker</text>
<text text-anchor="middle" x="72" y="-67" font-family="Helvetica,sans-Serif" font-size="10.00">&lt; UnpackerA2GeantConfig &gt;</text>
</a>
</g>
<!-- Node2&#45;&gt;Node1 -->
<g id="edge2" class="edge"><title>Node2&#45;&gt;Node1</title>
<path fill="none" stroke="midnightblue" d="M72,-48.6879C72,-39.2415 72,-29.1949 72,-21.8521"/>
<polygon fill="midnightblue" stroke="midnightblue" points="68.5001,-48.922 72,-58.922 75.5001,-48.922 68.5001,-48.922"/>
</g>
<!-- Node3 -->
<g id="node4" class="node"><title>Node3</title>
<a xlink:href="classant_1_1_exp_config_1_1_base.html" target="_top" xlink:title="ant::ExpConfig::Base">
<polygon fill="white" stroke="black" points="17,-130.5 17,-151.5 127,-151.5 127,-130.5 17,-130.5"/>
<text text-anchor="middle" x="72" y="-138.5" font-family="Helvetica,sans-Serif" font-size="10.00">ant::ExpConfig::Base</text>
</a>
</g>
<!-- Node3&#45;&gt;Node2 -->
<g id="edge4" class="edge"><title>Node3&#45;&gt;Node2</title>
<path fill="none" stroke="midnightblue" d="M72,-120.131C72,-111.405 72,-101.391 72,-93.1099"/>
<polygon fill="midnightblue" stroke="midnightblue" points="68.5001,-120.267 72,-130.267 75.5001,-120.267 68.5001,-120.267"/>
</g>
</g>
</svg>
