<?xml version="1.0" encoding="UTF-8" standalone="no"?>
<!DOCTYPE svg PUBLIC "-//W3C//DTD SVG 1.1//EN"
 "http://www.w3.org/Graphics/SVG/1.1/DTD/svg11.dtd">
<!-- Generated by graphviz version 2.26.3 (20100126.1600)
 -->
<!-- Title: ant::analysis::physics::DeltaPlusPhysics::Histogm Pages: 1 -->
<svg width="280pt" height="288pt"
 viewBox="0.00 0.00 280.10 288.00" xmlns="http://www.w3.org/2000/svg" xmlns:xlink="http://www.w3.org/1999/xlink">
<g id="graph1" class="graph" transform="scale(1 1) rotate(0) translate(4 284)">
<title>ant::analysis::physics::DeltaPlusPhysics::Histogm</title>
<polygon fill="white" stroke="white" points="-4,5 -4,-284 277.104,-284 277.104,5 -4,5"/>
<!-- Node1 -->
<g id="node1" class="node"><title>Node1</title>
<polygon fill="#bfbfbf" stroke="black" points="17.6037,-1 17.6037,-35 160.604,-35 160.604,-1 17.6037,-1"/>
<text text-anchor="start" x="25.6037" y="-22" font-family="Helvetica,sans-Serif" font-size="10.00">ant::analysis::physics</text>
<text text-anchor="middle" x="89.1037" y="-9" font-family="Helvetica,sans-Serif" font-size="10.00">::DeltaPlusPhysics::Histogm</text>
</g>
<!-- Node2 -->
<g id="node2" class="node"><title>Node2</title>
<polygon fill="white" stroke="#bfbfbf" points="34.1037,-87 34.1037,-121 144.104,-121 144.104,-87 34.1037,-87"/>
<text text-anchor="start" x="42.1037" y="-108" font-family="Helvetica,sans-Serif" font-size="10.00">std::map&lt; std::string,</text>
<text text-anchor="middle" x="89.1037" y="-95" font-family="Helvetica,sans-Serif" font-size="10.00"> std::string &gt;</text>
</g>
<!-- Node2&#45;&gt;Node1 -->
<g id="edge2" class="edge"><title>Node2&#45;&gt;Node1</title>
<path fill="none" stroke="#9a32cd" stroke-dasharray="5,2" d="M89.1037,-76.342C89.1037,-62.7741 89.1037,-46.8607 89.1037,-35.084"/>
<polygon fill="#9a32cd" stroke="#9a32cd" points="85.6038,-76.5966 89.1037,-86.5966 92.6038,-76.5967 85.6038,-76.5966"/>
<text text-anchor="middle" x="104.104" y="-58.5" font-family="Helvetica,sans-Serif" font-size="10.00"> h_title</text>
</g>
<!-- Node3 -->
<g id="node4" class="node"><title>Node3</title>
<a xlink:title="STL class. ">
<polygon fill="white" stroke="#bfbfbf" points="59.1037,-184.5 59.1037,-205.5 119.104,-205.5 119.104,-184.5 59.1037,-184.5"/>
<text text-anchor="middle" x="89.1037" y="-192.5" font-family="Helvetica,sans-Serif" font-size="10.00">std::string</text>
</a>
</g>
<!-- Node3&#45;&gt;Node1 -->
<g id="edge8" class="edge"><title>Node3&#45;&gt;Node1</title>
<path fill="none" stroke="#9a32cd" stroke-dasharray="5,2" d="M60.4668,-179.143C40.8587,-166.514 16.4308,-146.851 5.10368,-122 -1.53241,-107.441 -1.78564,-100.441 5.10368,-86 15.6063,-63.9852 37.1036,-46.7938 55.7207,-35.204"/>
<polygon fill="#9a32cd" stroke="#9a32cd" points="58.7223,-182.179 69.0724,-184.443 62.3935,-176.219 58.7223,-182.179"/>
<text text-anchor="middle" x="15.1037" y="-101.5" font-family="Helvetica,sans-Serif" font-size="10.00"> pref</text>
</g>
<!-- Node3&#45;&gt;Node2 -->
<g id="edge4" class="edge"><title>Node3&#45;&gt;Node2</title>
<path fill="none" stroke="#9a32cd" stroke-dasharray="5,2" d="M89.1037,-173.755C89.1037,-157.799 89.1037,-136.221 89.1037,-121.309"/>
<polygon fill="#9a32cd" stroke="#9a32cd" points="85.6038,-174.204 89.1037,-184.204 92.6038,-174.204 85.6038,-174.204"/>
<text text-anchor="middle" x="109.104" y="-157" font-family="Helvetica,sans-Serif" font-size="10.00"> keys</text>
<text text-anchor="middle" x="109.104" y="-144" font-family="Helvetica,sans-Serif" font-size="10.00">elements</text>
</g>
<!-- Node5 -->
<g id="node9" class="node"><title>Node5</title>
<polygon fill="white" stroke="#bfbfbf" points="162.104,-87 162.104,-121 272.104,-121 272.104,-87 162.104,-87"/>
<text text-anchor="start" x="170.104" y="-108" font-family="Helvetica,sans-Serif" font-size="10.00">std::map&lt; std::string,</text>
<text text-anchor="middle" x="217.104" y="-95" font-family="Helvetica,sans-Serif" font-size="10.00"> TH1 * &gt;</text>
</g>
<!-- Node3&#45;&gt;Node5 -->
<g id="edge12" class="edge"><title>Node3&#45;&gt;Node5</title>
<path fill="none" stroke="#9a32cd" stroke-dasharray="5,2" d="M114.243,-178.761C120.452,-174.66 127.055,-170.221 133.104,-166 154.21,-151.27 177.747,-133.805 194.523,-121.172"/>
<polygon fill="#9a32cd" stroke="#9a32cd" points="111.988,-176.054 105.541,-184.462 115.824,-181.91 111.988,-176.054"/>
<text text-anchor="middle" x="179.604" y="-150.5" font-family="Helvetica,sans-Serif" font-size="10.00"> keys</text>
</g>
<!-- Node4 -->
<g id="node6" class="node"><title>Node4</title>
<a xlink:title="STL class. ">
<polygon fill="white" stroke="#bfbfbf" points="41.6037,-245 41.6037,-279 136.604,-279 136.604,-245 41.6037,-245"/>
<text text-anchor="start" x="49.6037" y="-266" font-family="Helvetica,sans-Serif" font-size="10.00">std::basic_string&lt;</text>
<text text-anchor="middle" x="89.1037" y="-253" font-family="Helvetica,sans-Serif" font-size="10.00"> char &gt;</text>
</a>
</g>
<!-- Node4&#45;&gt;Node3 -->
<g id="edge6" class="edge"><title>Node4&#45;&gt;Node3</title>
<path fill="none" stroke="midnightblue" d="M89.1037,-234.534C89.1037,-224.306 89.1037,-213.301 89.1037,-205.506"/>
<polygon fill="midnightblue" stroke="midnightblue" points="85.6038,-234.746 89.1037,-244.746 92.6038,-234.746 85.6038,-234.746"/>
</g>
<!-- Node5&#45;&gt;Node1 -->
<g id="edge10" class="edge"><title>Node5&#45;&gt;Node1</title>
<path fill="none" stroke="#9a32cd" stroke-dasharray="5,2" d="M182.998,-81.0855C161.526,-66.659 134.264,-48.3422 114.654,-35.1669"/>
<polygon fill="#9a32cd" stroke="#9a32cd" points="181.256,-84.1316 191.509,-86.8033 185.16,-78.3212 181.256,-84.1316"/>
<text text-anchor="middle" x="164.604" y="-58.5" font-family="Helvetica,sans-Serif" font-size="10.00"> h</text>
</g>
</g>
</svg>
