<?xml version="1.0" encoding="UTF-8" standalone="no"?>
<!DOCTYPE svg PUBLIC "-//W3C//DTD SVG 1.1//EN"
 "http://www.w3.org/Graphics/SVG/1.1/DTD/svg11.dtd">
<!-- Generated by graphviz version 2.26.3 (20100126.1600)
 -->
<!-- Title: ant::analysis::data::Particle Pages: 1 -->
<svg width="208pt" height="102pt"
 viewBox="0.00 0.00 208.00 102.00" xmlns="http://www.w3.org/2000/svg" xmlns:xlink="http://www.w3.org/1999/xlink">
<g id="graph1" class="graph" transform="scale(1 1) rotate(0) translate(4 98)">
<title>ant::analysis::data::Particle</title>
<polygon fill="white" stroke="white" points="-4,5 -4,-98 205,-98 205,5 -4,5"/>
<!-- Node1 -->
<g id="node1" class="node"><title>Node1</title>
<polygon fill="#bfbfbf" stroke="black" points="46.5,-1 46.5,-35 143.5,-35 143.5,-1 46.5,-1"/>
<text text-anchor="start" x="54.5" y="-22" font-family="Helvetica,sans-Serif" font-size="10.00">ant::analysis::data</text>
<text text-anchor="middle" x="95" y="-9" font-family="Helvetica,sans-Serif" font-size="10.00">::Particle</text>
</g>
<!-- Node2 -->
<g id="node2" class="node"><title>Node2</title>
<polygon fill="white" stroke="#bfbfbf" points="-0.5,-72.5 -0.5,-93.5 82.5,-93.5 82.5,-72.5 -0.5,-72.5"/>
<text text-anchor="middle" x="41" y="-80.5" font-family="Helvetica,sans-Serif" font-size="10.00">TLorentzVector</text>
</g>
<!-- Node2&#45;&gt;Node1 -->
<g id="edge2" class="edge"><title>Node2&#45;&gt;Node1</title>
<path fill="none" stroke="midnightblue" d="M56.4317,-64.4248C64.0963,-55.1989 73.2946,-44.1269 80.7857,-35.1099"/>
<polygon fill="midnightblue" stroke="midnightblue" points="53.6151,-62.3381 49.917,-72.2666 58.9994,-66.8112 53.6151,-62.3381"/>
</g>
<!-- Node3 -->
<g id="node4" class="node"><title>Node3</title>
<a xlink:href="classant_1_1printable__traits.html" target="_top" xlink:title="ant::printable_traits">
<polygon fill="white" stroke="black" points="100,-72.5 100,-93.5 200,-93.5 200,-72.5 100,-72.5"/>
<text text-anchor="middle" x="150" y="-80.5" font-family="Helvetica,sans-Serif" font-size="10.00">ant::printable_traits</text>
</a>
</g>
<!-- Node3&#45;&gt;Node1 -->
<g id="edge4" class="edge"><title>Node3&#45;&gt;Node1</title>
<path fill="none" stroke="midnightblue" d="M134.282,-64.4248C126.476,-55.1989 117.107,-44.1269 109.478,-35.1099"/>
<polygon fill="midnightblue" stroke="midnightblue" points="131.787,-66.8935 140.918,-72.2666 137.13,-62.3719 131.787,-66.8935"/>
</g>
</g>
</svg>
