<?xml version="1.0" encoding="UTF-8" standalone="no"?>
<!DOCTYPE svg PUBLIC "-//W3C//DTD SVG 1.1//EN"
 "http://www.w3.org/Graphics/SVG/1.1/DTD/svg11.dtd">
<!-- Generated by graphviz version 2.26.3 (20100126.1600)
 -->
<!-- Title: ant::calibration::gui::PeakingFitFunction Pages: 1 -->
<svg width="576pt" height="146pt"
 viewBox="0.00 0.00 576.00 146.00" xmlns="http://www.w3.org/2000/svg" xmlns:xlink="http://www.w3.org/1999/xlink">
<g id="graph1" class="graph" transform="scale(1 1) rotate(0) translate(4 142)">
<title>ant::calibration::gui::PeakingFitFunction</title>
<polygon fill="white" stroke="white" points="-4,5 -4,-142 573,-142 573,5 -4,5"/>
<!-- Node1 -->
<g id="node1" class="node"><title>Node1</title>
<polygon fill="#bfbfbf" stroke="black" points="136.5,-52 136.5,-86 243.5,-86 243.5,-52 136.5,-52"/>
<text text-anchor="start" x="144.5" y="-73" font-family="Helvetica,sans-Serif" font-size="10.00">ant::calibration::gui</text>
<text text-anchor="middle" x="190" y="-60" font-family="Helvetica,sans-Serif" font-size="10.00">::PeakingFitFunction</text>
</g>
<!-- Node3 -->
<g id="node5" class="node"><title>Node3</title>
<a xlink:href="classant_1_1calibration_1_1gui_1_1_fit_gaus.html" target="_top" xlink:title="ant::calibration::gui\l::FitGaus">
<polygon fill="white" stroke="black" points="280.5,-104 280.5,-138 379.5,-138 379.5,-104 280.5,-104"/>
<text text-anchor="start" x="288.5" y="-125" font-family="Helvetica,sans-Serif" font-size="10.00">ant::calibration::gui</text>
<text text-anchor="middle" x="330" y="-112" font-family="Helvetica,sans-Serif" font-size="10.00">::FitGaus</text>
</a>
</g>
<!-- Node1&#45;&gt;Node3 -->
<g id="edge4" class="edge"><title>Node1&#45;&gt;Node3</title>
<path fill="none" stroke="midnightblue" d="M245.461,-89.5997C258.252,-94.3508 271.721,-99.3536 284.056,-103.935"/>
<polygon fill="midnightblue" stroke="midnightblue" points="246.434,-86.2277 235.841,-86.0267 243.997,-92.7897 246.434,-86.2277"/>
</g>
<!-- Node5 -->
<g id="node9" class="node"><title>Node5</title>
<a xlink:href="classant_1_1calibration_1_1gui_1_1_fit_gaus_pol0.html" target="_top" xlink:title="ant::calibration::gui\l::FitGausPol0">
<polygon fill="white" stroke="black" points="280.5,-52 280.5,-86 379.5,-86 379.5,-52 280.5,-52"/>
<text text-anchor="start" x="288.5" y="-73" font-family="Helvetica,sans-Serif" font-size="10.00">ant::calibration::gui</text>
<text text-anchor="middle" x="330" y="-60" font-family="Helvetica,sans-Serif" font-size="10.00">::FitGausPol0</text>
</a>
</g>
<!-- Node1&#45;&gt;Node5 -->
<g id="edge8" class="edge"><title>Node1&#45;&gt;Node5</title>
<path fill="none" stroke="midnightblue" d="M254.004,-69C262.837,-69 271.799,-69 280.321,-69"/>
<polygon fill="midnightblue" stroke="midnightblue" points="253.727,-65.5001 243.727,-69 253.727,-72.5001 253.727,-65.5001"/>
</g>
<!-- Node6 -->
<g id="node11" class="node"><title>Node6</title>
<a xlink:href="classant_1_1calibration_1_1gui_1_1_fit_gaus_pol3.html" target="_top" xlink:title="ant::calibration::gui\l::FitGausPol3">
<polygon fill="white" stroke="black" points="280.5,-0 280.5,-34 379.5,-34 379.5,-0 280.5,-0"/>
<text text-anchor="start" x="288.5" y="-21" font-family="Helvetica,sans-Serif" font-size="10.00">ant::calibration::gui</text>
<text text-anchor="middle" x="330" y="-8" font-family="Helvetica,sans-Serif" font-size="10.00">::FitGausPol3</text>
</a>
</g>
<!-- Node1&#45;&gt;Node6 -->
<g id="edge10" class="edge"><title>Node1&#45;&gt;Node6</title>
<path fill="none" stroke="midnightblue" d="M245.461,-48.4003C258.252,-43.6492 271.721,-38.6464 284.056,-34.065"/>
<polygon fill="midnightblue" stroke="midnightblue" points="243.997,-45.2103 235.841,-51.9733 246.434,-51.7723 243.997,-45.2103"/>
</g>
<!-- Node2 -->
<g id="node2" class="node"><title>Node2</title>
<a xlink:href="classant_1_1calibration_1_1gui_1_1_fit_function.html" target="_top" xlink:title="ant::calibration::gui\l::FitFunction">
<polygon fill="white" stroke="black" points="0.5,-52 0.5,-86 99.5,-86 99.5,-52 0.5,-52"/>
<text text-anchor="start" x="8.5" y="-73" font-family="Helvetica,sans-Serif" font-size="10.00">ant::calibration::gui</text>
<text text-anchor="middle" x="50" y="-60" font-family="Helvetica,sans-Serif" font-size="10.00">::FitFunction</text>
</a>
</g>
<!-- Node2&#45;&gt;Node1 -->
<g id="edge2" class="edge"><title>Node2&#45;&gt;Node1</title>
<path fill="none" stroke="midnightblue" d="M109.865,-69C118.592,-69 127.534,-69 136.132,-69"/>
<polygon fill="midnightblue" stroke="midnightblue" points="109.753,-65.5001 99.753,-69 109.753,-72.5001 109.753,-65.5001"/>
</g>
<!-- Node4 -->
<g id="node7" class="node"><title>Node4</title>
<a xlink:href="class_p_i_d___phi_angle_1_1_the_g_u_i_1_1___fit_gauss.html" target="_top" xlink:title="The PID_PhiAngle::TheGUI::_FitGauss: override the SetDefaults for PID phi angle fits. ">
<polygon fill="white" stroke="black" points="416,-104 416,-138 568,-138 568,-104 416,-104"/>
<text text-anchor="start" x="424" y="-125" font-family="Helvetica,sans-Serif" font-size="10.00">ant::calibration::PID</text>
<text text-anchor="middle" x="492" y="-112" font-family="Helvetica,sans-Serif" font-size="10.00">_PhiAngle::TheGUI::_FitGauss</text>
</a>
</g>
<!-- Node3&#45;&gt;Node4 -->
<g id="edge6" class="edge"><title>Node3&#45;&gt;Node4</title>
<path fill="none" stroke="midnightblue" d="M389.976,-121C398.368,-121 407.084,-121 415.727,-121"/>
<polygon fill="midnightblue" stroke="midnightblue" points="389.927,-117.5 379.927,-121 389.927,-124.5 389.927,-117.5"/>
</g>
</g>
</svg>
