<?xml version="1.0" encoding="UTF-8" standalone="no"?>
<!DOCTYPE svg PUBLIC "-//W3C//DTD SVG 1.1//EN"
 "http://www.w3.org/Graphics/SVG/1.1/DTD/svg11.dtd">
<!-- Generated by graphviz version 2.26.3 (20100126.1600)
 -->
<!-- Title: ant::Unpacker::Reader Pages: 1 -->
<svg width="329pt" height="146pt"
 viewBox="0.00 0.00 329.00 146.00" xmlns="http://www.w3.org/2000/svg" xmlns:xlink="http://www.w3.org/1999/xlink">
<g id="graph1" class="graph" transform="scale(1 1) rotate(0) translate(4 142)">
<title>ant::Unpacker::Reader</title>
<polygon fill="white" stroke="white" points="-4,5 -4,-142 326,-142 326,5 -4,5"/>
<!-- Node1 -->
<g id="node1" class="node"><title>Node1</title>
<polygon fill="#bfbfbf" stroke="black" points="79,-116.5 79,-137.5 195,-137.5 195,-116.5 79,-116.5"/>
<text text-anchor="middle" x="137" y="-124.5" font-family="Helvetica,sans-Serif" font-size="10.00">ant::Unpacker::Reader</text>
</g>
<!-- Node2 -->
<g id="node3" class="node"><title>Node2</title>
<a xlink:href="classant_1_1tree_1_1_unpacker_reader.html" target="_top" xlink:title="The UnpackerReader class reads synchronized data from. ">
<polygon fill="white" stroke="black" points="0,-58.5 0,-79.5 132,-79.5 132,-58.5 0,-58.5"/>
<text text-anchor="middle" x="66" y="-66.5" font-family="Helvetica,sans-Serif" font-size="10.00">ant::tree::UnpackerReader</text>
</a>
</g>
<!-- Node1&#45;&gt;Node2 -->
<g id="edge2" class="edge"><title>Node1&#45;&gt;Node2</title>
<path fill="none" stroke="midnightblue" d="M116.159,-109.975C104.109,-100.132 89.3254,-88.0545 78.9399,-79.5707"/>
<polygon fill="midnightblue" stroke="midnightblue" points="114.019,-112.746 123.978,-116.362 118.447,-107.325 114.019,-112.746"/>
</g>
<!-- Node3 -->
<g id="node5" class="node"><title>Node3</title>
<a xlink:href="classant_1_1_unpacker_1_1_module.html" target="_top" xlink:title="The Module interface is used by Unpacker::Get. ">
<polygon fill="white" stroke="black" points="150,-58.5 150,-79.5 266,-79.5 266,-58.5 150,-58.5"/>
<text text-anchor="middle" x="208" y="-66.5" font-family="Helvetica,sans-Serif" font-size="10.00">ant::Unpacker::Module</text>
</a>
</g>
<!-- Node1&#45;&gt;Node3 -->
<g id="edge4" class="edge"><title>Node1&#45;&gt;Node3</title>
<path fill="none" stroke="midnightblue" d="M157.841,-109.975C169.891,-100.132 184.675,-88.0545 195.06,-79.5707"/>
<polygon fill="midnightblue" stroke="midnightblue" points="155.553,-107.325 150.022,-116.362 159.981,-112.746 155.553,-107.325"/>
</g>
<!-- Node4 -->
<g id="node7" class="node"><title>Node4</title>
<a xlink:href="classant_1_1_unpacker_a2_geant.html" target="_top" xlink:title="ant::UnpackerA2Geant">
<polygon fill="white" stroke="black" points="87,-0.5 87,-21.5 203,-21.5 203,-0.5 87,-0.5"/>
<text text-anchor="middle" x="145" y="-8.5" font-family="Helvetica,sans-Serif" font-size="10.00">ant::UnpackerA2Geant</text>
</a>
</g>
<!-- Node3&#45;&gt;Node4 -->
<g id="edge6" class="edge"><title>Node3&#45;&gt;Node4</title>
<path fill="none" stroke="midnightblue" d="M188.888,-51.405C178.312,-41.6683 165.52,-29.8914 156.482,-21.5707"/>
<polygon fill="midnightblue" stroke="midnightblue" points="186.717,-54.1637 196.445,-58.3619 191.458,-49.0138 186.717,-54.1637"/>
</g>
<!-- Node5 -->
<g id="node9" class="node"><title>Node5</title>
<a xlink:href="classant_1_1_unpacker_acqu.html" target="_top" xlink:title="ant::UnpackerAcqu">
<polygon fill="white" stroke="black" points="220.5,-0.5 220.5,-21.5 321.5,-21.5 321.5,-0.5 220.5,-0.5"/>
<text text-anchor="middle" x="271" y="-8.5" font-family="Helvetica,sans-Serif" font-size="10.00">ant::UnpackerAcqu</text>
</a>
</g>
<!-- Node3&#45;&gt;Node5 -->
<g id="edge8" class="edge"><title>Node3&#45;&gt;Node5</title>
<path fill="none" stroke="midnightblue" d="M227.112,-51.405C237.688,-41.6683 250.48,-29.8914 259.518,-21.5707"/>
<polygon fill="midnightblue" stroke="midnightblue" points="224.542,-49.0138 219.555,-58.3619 229.283,-54.1637 224.542,-49.0138"/>
</g>
</g>
</svg>
