<?xml version="1.0" encoding="UTF-8" standalone="no"?>
<!DOCTYPE svg PUBLIC "-//W3C//DTD SVG 1.1//EN"
 "http://www.w3.org/Graphics/SVG/1.1/DTD/svg11.dtd">
<!-- Generated by graphviz version 2.26.3 (20100126.1600)
 -->
<!-- Title: ant::analysis::data::Slowcontrol Pages: 1 -->
<svg width="524pt" height="122pt"
 viewBox="0.00 0.00 524.00 122.00" xmlns="http://www.w3.org/2000/svg" xmlns:xlink="http://www.w3.org/1999/xlink">
<g id="graph1" class="graph" transform="scale(1 1) rotate(0) translate(4 118)">
<title>ant::analysis::data::Slowcontrol</title>
<polygon fill="white" stroke="white" points="-4,5 -4,-118 521,-118 521,5 -4,5"/>
<!-- Node1 -->
<g id="node1" class="node"><title>Node1</title>
<polygon fill="#bfbfbf" stroke="black" points="418.5,-43 418.5,-77 515.5,-77 515.5,-43 418.5,-43"/>
<text text-anchor="start" x="426.5" y="-64" font-family="Helvetica,sans-Serif" font-size="10.00">ant::analysis::data</text>
<text text-anchor="middle" x="467" y="-51" font-family="Helvetica,sans-Serif" font-size="10.00">::Slowcontrol</text>
</g>
<!-- Node2 -->
<g id="node2" class="node"><title>Node2</title>
<a xlink:href="classant_1_1analysis_1_1data_1_1_reqestable_variable.html" target="_top" xlink:title="ant::analysis::data\l::ReqestableVariable\l\&lt; std::vector\&lt; double \&gt; \&gt;">
<polygon fill="white" stroke="black" points="186,-0.5 186,-47.5 314,-47.5 314,-0.5 186,-0.5"/>
<text text-anchor="start" x="194" y="-34.5" font-family="Helvetica,sans-Serif" font-size="10.00">ant::analysis::data</text>
<text text-anchor="start" x="194" y="-21.5" font-family="Helvetica,sans-Serif" font-size="10.00">::ReqestableVariable</text>
<text text-anchor="middle" x="250" y="-8.5" font-family="Helvetica,sans-Serif" font-size="10.00">&lt; std::vector&lt; double &gt; &gt;</text>
</a>
</g>
<!-- Node2&#45;&gt;Node1 -->
<g id="edge2" class="edge"><title>Node2&#45;&gt;Node1</title>
<path fill="none" stroke="#9a32cd" stroke-dasharray="5,2" d="M324.18,-36.3064C355.34,-41.4758 390.71,-47.3436 418.456,-51.9465"/>
<polygon fill="#9a32cd" stroke="#9a32cd" points="324.664,-32.839 314.226,-34.6551 323.519,-39.7446 324.664,-32.839"/>
<text text-anchor="middle" x="366" y="-52" font-family="Helvetica,sans-Serif" font-size="10.00"> TaggerScalers</text>
</g>
<!-- Node3 -->
<g id="node4" class="node"><title>Node3</title>
<a xlink:href="classant_1_1analysis_1_1data_1_1_slowcontrol_requestable.html" target="_top" xlink:title="ant::analysis::data\l::SlowcontrolRequestable">
<polygon fill="white" stroke="black" points="0,-56 0,-90 128,-90 128,-56 0,-56"/>
<text text-anchor="start" x="8" y="-77" font-family="Helvetica,sans-Serif" font-size="10.00">ant::analysis::data</text>
<text text-anchor="middle" x="64" y="-64" font-family="Helvetica,sans-Serif" font-size="10.00">::SlowcontrolRequestable</text>
</a>
</g>
<!-- Node3&#45;&gt;Node2 -->
<g id="edge4" class="edge"><title>Node3&#45;&gt;Node2</title>
<path fill="none" stroke="midnightblue" d="M137.792,-53.5602C153.692,-49.3715 170.375,-44.9764 185.871,-40.8941"/>
<polygon fill="midnightblue" stroke="midnightblue" points="136.789,-50.2049 128.011,-56.137 138.572,-56.9739 136.789,-50.2049"/>
</g>
<!-- Node5 -->
<g id="node8" class="node"><title>Node5</title>
<a xlink:href="classant_1_1analysis_1_1data_1_1_reqestable_variable.html" target="_top" xlink:title="ant::analysis::data\l::ReqestableVariable\l\&lt; double \&gt;">
<polygon fill="white" stroke="black" points="196.5,-66.5 196.5,-113.5 303.5,-113.5 303.5,-66.5 196.5,-66.5"/>
<text text-anchor="start" x="204.5" y="-100.5" font-family="Helvetica,sans-Serif" font-size="10.00">ant::analysis::data</text>
<text text-anchor="start" x="204.5" y="-87.5" font-family="Helvetica,sans-Serif" font-size="10.00">::ReqestableVariable</text>
<text text-anchor="middle" x="250" y="-74.5" font-family="Helvetica,sans-Serif" font-size="10.00">&lt; double &gt;</text>
</a>
</g>
<!-- Node3&#45;&gt;Node5 -->
<g id="edge10" class="edge"><title>Node3&#45;&gt;Node5</title>
<path fill="none" stroke="midnightblue" d="M138.075,-79.7703C157.56,-81.5511 178.201,-83.4377 196.38,-85.0993"/>
<polygon fill="midnightblue" stroke="midnightblue" points="138.288,-76.2752 128.011,-78.8504 137.651,-83.2462 138.288,-76.2752"/>
</g>
<!-- Node4 -->
<g id="node6" class="node"><title>Node4</title>
<polygon fill="white" stroke="#bfbfbf" points="9,-13.5 9,-34.5 119,-34.5 119,-13.5 9,-13.5"/>
<text text-anchor="middle" x="64" y="-21.5" font-family="Helvetica,sans-Serif" font-size="10.00">std::vector&lt; double &gt;</text>
</g>
<!-- Node4&#45;&gt;Node2 -->
<g id="edge6" class="edge"><title>Node4&#45;&gt;Node2</title>
<path fill="none" stroke="#9a32cd" stroke-dasharray="5,2" d="M129.1,-24C147.525,-24 167.559,-24 185.922,-24"/>
<polygon fill="#9a32cd" stroke="#9a32cd" points="129.051,-20.5001 119.051,-24 129.051,-27.5001 129.051,-20.5001"/>
<text text-anchor="middle" x="157" y="-28" font-family="Helvetica,sans-Serif" font-size="10.00"> data</text>
</g>
<!-- Node5&#45;&gt;Node1 -->
<g id="edge8" class="edge"><title>Node5&#45;&gt;Node1</title>
<path fill="none" stroke="#9a32cd" stroke-dasharray="5,2" d="M313.781,-81.1824C347.224,-76.5588 387.539,-70.9854 418.419,-66.7162"/>
<polygon fill="#9a32cd" stroke="#9a32cd" points="313.067,-77.7477 303.64,-82.5843 314.026,-84.6817 313.067,-77.7477"/>
<text text-anchor="middle" x="366" y="-95" font-family="Helvetica,sans-Serif" font-size="10.00"> FaradayCup</text>
<text text-anchor="middle" x="366" y="-82" font-family="Helvetica,sans-Serif" font-size="10.00">TotalLivetime</text>
</g>
</g>
</svg>
