<?xml version="1.0" encoding="UTF-8" standalone="no"?>
<!DOCTYPE svg PUBLIC "-//W3C//DTD SVG 1.1//EN"
 "http://www.w3.org/Graphics/SVG/1.1/DTD/svg11.dtd">
<!-- Generated by graphviz version 2.26.3 (20100126.1600)
 -->
<!-- Title: ant::ExpConfig::Base Pages: 1 -->
<svg width="1004pt" height="614pt"
 viewBox="0.00 0.00 1004.00 614.00" xmlns="http://www.w3.org/2000/svg" xmlns:xlink="http://www.w3.org/1999/xlink">
<g id="graph1" class="graph" transform="scale(1 1) rotate(0) translate(4 610)">
<title>ant::ExpConfig::Base</title>
<polygon fill="white" stroke="white" points="-4,5 -4,-610 1001,-610 1001,5 -4,5"/>
<!-- Node1 -->
<g id="node1" class="node"><title>Node1</title>
<polygon fill="#bfbfbf" stroke="black" points="0,-427.5 0,-448.5 110,-448.5 110,-427.5 0,-427.5"/>
<text text-anchor="middle" x="55" y="-435.5" font-family="Helvetica,sans-Serif" font-size="10.00">ant::ExpConfig::Base</text>
</g>
<!-- Node2 -->
<g id="node3" class="node"><title>Node2</title>
<a xlink:href="classant_1_1_exp_config_1_1_reconstruct.html" target="_top" xlink:title="ant::ExpConfig::Reconstruct">
<polygon fill="white" stroke="black" points="338.5,-505.5 338.5,-526.5 479.5,-526.5 479.5,-505.5 338.5,-505.5"/>
<text text-anchor="middle" x="409" y="-513.5" font-family="Helvetica,sans-Serif" font-size="10.00">ant::ExpConfig::Reconstruct</text>
</a>
</g>
<!-- Node1&#45;&gt;Node2 -->
<g id="edge2" class="edge"><title>Node1&#45;&gt;Node2</title>
<path fill="none" stroke="midnightblue" d="M83.7843,-453.056C101.324,-461.617 124.442,-471.829 146,-478 209.756,-496.252 284.838,-505.988 338.422,-511.016"/>
<polygon fill="midnightblue" stroke="midnightblue" points="85.17,-449.836 74.6589,-448.507 82.0465,-456.101 85.17,-449.836"/>
</g>
<!-- Node9 -->
<g id="node17" class="node"><title>Node9</title>
<a xlink:href="classant_1_1_exp_config_1_1_setup.html" target="_top" xlink:title="ant::ExpConfig::Setup">
<polygon fill="white" stroke="black" points="352.5,-465.5 352.5,-486.5 465.5,-486.5 465.5,-465.5 352.5,-465.5"/>
<text text-anchor="middle" x="409" y="-473.5" font-family="Helvetica,sans-Serif" font-size="10.00">ant::ExpConfig::Setup</text>
</a>
</g>
<!-- Node1&#45;&gt;Node9 -->
<g id="edge16" class="edge"><title>Node1&#45;&gt;Node9</title>
<path fill="none" stroke="midnightblue" d="M106.876,-450.79C119.604,-453.543 133.239,-456.171 146,-458 216.674,-468.128 298.876,-472.597 352.312,-474.542"/>
<polygon fill="midnightblue" stroke="midnightblue" points="107.419,-447.325 96.8971,-448.568 105.898,-454.158 107.419,-447.325"/>
</g>
<!-- Node10 -->
<g id="node20" class="node"><title>Node10</title>
<a xlink:href="classant_1_1_exp_config_1_1_unpacker.html" target="_top" xlink:title="ant::ExpConfig::Unpacker\&lt; T \&gt;">
<polygon fill="white" stroke="black" points="146,-427.5 146,-448.5 300,-448.5 300,-427.5 146,-427.5"/>
<text text-anchor="middle" x="223" y="-435.5" font-family="Helvetica,sans-Serif" font-size="10.00">ant::ExpConfig::Unpacker&lt; T &gt;</text>
</a>
</g>
<!-- Node1&#45;&gt;Node10 -->
<g id="edge20" class="edge"><title>Node1&#45;&gt;Node10</title>
<path fill="none" stroke="midnightblue" d="M120.15,-438C128.592,-438 137.302,-438 145.914,-438"/>
<polygon fill="midnightblue" stroke="midnightblue" points="120.01,-434.5 110.009,-438 120.009,-441.5 120.01,-434.5"/>
</g>
<!-- Node11 -->
<g id="node22" class="node"><title>Node11</title>
<a xlink:href="classant_1_1_exp_config_1_1_unpacker.html" target="_top" xlink:title="ant::ExpConfig::Unpacker\l\&lt; UnpackerA2GeantConfig \&gt;">
<polygon fill="white" stroke="black" points="151.5,-375 151.5,-409 294.5,-409 294.5,-375 151.5,-375"/>
<text text-anchor="start" x="159.5" y="-396" font-family="Helvetica,sans-Serif" font-size="10.00">ant::ExpConfig::Unpacker</text>
<text text-anchor="middle" x="223" y="-383" font-family="Helvetica,sans-Serif" font-size="10.00">&lt; UnpackerA2GeantConfig &gt;</text>
</a>
</g>
<!-- Node1&#45;&gt;Node11 -->
<g id="edge22" class="edge"><title>Node1&#45;&gt;Node11</title>
<path fill="none" stroke="midnightblue" d="M103.677,-424.672C121.45,-419.805 141.802,-414.233 160.604,-409.085"/>
<polygon fill="midnightblue" stroke="midnightblue" points="102.263,-421.43 93.5426,-427.447 104.112,-428.181 102.263,-421.43"/>
</g>
<!-- Node13 -->
<g id="node27" class="node"><title>Node13</title>
<a xlink:href="classant_1_1_exp_config_1_1_unpacker.html" target="_top" xlink:title="ant::ExpConfig::Unpacker\l\&lt; UnpackerAcquConfig \&gt;">
<polygon fill="white" stroke="black" points="158,-305 158,-339 288,-339 288,-305 158,-305"/>
<text text-anchor="start" x="166" y="-326" font-family="Helvetica,sans-Serif" font-size="10.00">ant::ExpConfig::Unpacker</text>
<text text-anchor="middle" x="223" y="-313" font-family="Helvetica,sans-Serif" font-size="10.00">&lt; UnpackerAcquConfig &gt;</text>
</a>
</g>
<!-- Node1&#45;&gt;Node13 -->
<g id="edge28" class="edge"><title>Node1&#45;&gt;Node13</title>
<path fill="none" stroke="midnightblue" d="M75.2522,-420.528C93.265,-405.345 120.61,-383.157 146,-366 160.16,-356.431 176.517,-346.888 190.504,-339.148"/>
<polygon fill="midnightblue" stroke="midnightblue" points="72.5606,-418.222 67.2086,-427.366 77.0945,-423.555 72.5606,-418.222"/>
</g>
<!-- Node3 -->
<g id="node5" class="node"><title>Node3</title>
<a xlink:href="classant_1_1expconfig_1_1_setup.html" target="_top" xlink:title="The Setup class serves as a base class for all known beamtime setup configurations. ">
<polygon fill="white" stroke="black" points="536,-469.5 536,-490.5 646,-490.5 646,-469.5 536,-469.5"/>
<text text-anchor="middle" x="591" y="-477.5" font-family="Helvetica,sans-Serif" font-size="10.00">ant::expconfig::Setup</text>
</a>
</g>
<!-- Node2&#45;&gt;Node3 -->
<g id="edge4" class="edge"><title>Node2&#45;&gt;Node3</title>
<path fill="none" stroke="midnightblue" d="M472.115,-503.516C493.534,-499.279 517.235,-494.591 537.803,-490.523"/>
<polygon fill="midnightblue" stroke="midnightblue" points="471.262,-500.117 462.131,-505.491 472.62,-506.984 471.262,-500.117"/>
</g>
<!-- Node4 -->
<g id="node7" class="node"><title>Node4</title>
<a xlink:href="classant_1_1expconfig_1_1setup_1_1_setup__2014___e_p_t.html" target="_top" xlink:title="ant::expconfig::setup\l::Setup_2014_EPT">
<polygon fill="white" stroke="black" points="706,-520 706,-554 814,-554 814,-520 706,-520"/>
<text text-anchor="start" x="714" y="-541" font-family="Helvetica,sans-Serif" font-size="10.00">ant::expconfig::setup</text>
<text text-anchor="middle" x="760" y="-528" font-family="Helvetica,sans-Serif" font-size="10.00">::Setup_2014_EPT</text>
</a>
</g>
<!-- Node3&#45;&gt;Node4 -->
<g id="edge6" class="edge"><title>Node3&#45;&gt;Node4</title>
<path fill="none" stroke="midnightblue" d="M631.991,-493.825C655.333,-501.698 684.767,-511.626 709.523,-519.975"/>
<polygon fill="midnightblue" stroke="midnightblue" points="632.986,-490.467 622.392,-490.588 630.749,-497.1 632.986,-490.467"/>
</g>
<!-- Node8 -->
<g id="node15" class="node"><title>Node8</title>
<a xlink:href="classant_1_1expconfig_1_1setup_1_1_setup__2015__dummy.html" target="_top" xlink:title="ant::expconfig::setup\l::Setup_2015_dummy">
<polygon fill="white" stroke="black" points="704,-468 704,-502 816,-502 816,-468 704,-468"/>
<text text-anchor="start" x="712" y="-489" font-family="Helvetica,sans-Serif" font-size="10.00">ant::expconfig::setup</text>
<text text-anchor="middle" x="760" y="-476" font-family="Helvetica,sans-Serif" font-size="10.00">::Setup_2015_dummy</text>
</a>
</g>
<!-- Node3&#45;&gt;Node8 -->
<g id="edge14" class="edge"><title>Node3&#45;&gt;Node8</title>
<path fill="none" stroke="midnightblue" d="M656.482,-481.937C672.158,-482.401 688.755,-482.892 703.96,-483.342"/>
<polygon fill="midnightblue" stroke="midnightblue" points="656.436,-478.435 646.337,-481.637 656.229,-485.431 656.436,-478.435"/>
</g>
<!-- Node5 -->
<g id="node9" class="node"><title>Node5</title>
<a xlink:href="classant_1_1expconfig_1_1setup_1_1_setup__2014__07___e_p_t___prod.html" target="_top" xlink:title="ant::expconfig::setup\l::Setup_2014_07_EPT_Prod">
<polygon fill="white" stroke="black" points="856,-572 856,-606 996,-606 996,-572 856,-572"/>
<text text-anchor="start" x="864" y="-593" font-family="Helvetica,sans-Serif" font-size="10.00">ant::expconfig::setup</text>
<text text-anchor="middle" x="926" y="-580" font-family="Helvetica,sans-Serif" font-size="10.00">::Setup_2014_07_EPT_Prod</text>
</a>
</g>
<!-- Node4&#45;&gt;Node5 -->
<g id="edge8" class="edge"><title>Node4&#45;&gt;Node5</title>
<path fill="none" stroke="midnightblue" d="M823.98,-557.042C839.673,-561.958 856.324,-567.174 871.523,-571.935"/>
<polygon fill="midnightblue" stroke="midnightblue" points="824.944,-553.676 814.355,-554.027 822.851,-560.356 824.944,-553.676"/>
</g>
<!-- Node6 -->
<g id="node11" class="node"><title>Node6</title>
<a xlink:href="classant_1_1expconfig_1_1setup_1_1_setup__2014__10___e_p_t___prod.html" target="_top" xlink:title="ant::expconfig::setup\l::Setup_2014_10_EPT_Prod">
<polygon fill="white" stroke="black" points="856,-520 856,-554 996,-554 996,-520 856,-520"/>
<text text-anchor="start" x="864" y="-541" font-family="Helvetica,sans-Serif" font-size="10.00">ant::expconfig::setup</text>
<text text-anchor="middle" x="926" y="-528" font-family="Helvetica,sans-Serif" font-size="10.00">::Setup_2014_10_EPT_Prod</text>
</a>
</g>
<!-- Node4&#45;&gt;Node6 -->
<g id="edge10" class="edge"><title>Node4&#45;&gt;Node6</title>
<path fill="none" stroke="midnightblue" d="M824.466,-537C834.735,-537 845.403,-537 855.797,-537"/>
<polygon fill="midnightblue" stroke="midnightblue" points="824.355,-533.5 814.355,-537 824.355,-540.5 824.355,-533.5"/>
</g>
<!-- Node7 -->
<g id="node13" class="node"><title>Node7</title>
<a xlink:href="classant_1_1expconfig_1_1setup_1_1_setup__2014__12___e_p_t___prod.html" target="_top" xlink:title="ant::expconfig::setup\l::Setup_2014_12_EPT_Prod">
<polygon fill="white" stroke="black" points="856,-468 856,-502 996,-502 996,-468 856,-468"/>
<text text-anchor="start" x="864" y="-489" font-family="Helvetica,sans-Serif" font-size="10.00">ant::expconfig::setup</text>
<text text-anchor="middle" x="926" y="-476" font-family="Helvetica,sans-Serif" font-size="10.00">::Setup_2014_12_EPT_Prod</text>
</a>
</g>
<!-- Node4&#45;&gt;Node7 -->
<g id="edge12" class="edge"><title>Node4&#45;&gt;Node7</title>
<path fill="none" stroke="midnightblue" d="M823.98,-516.958C839.673,-512.042 856.324,-506.826 871.523,-502.065"/>
<polygon fill="midnightblue" stroke="midnightblue" points="822.851,-513.644 814.355,-519.973 824.944,-520.324 822.851,-513.644"/>
</g>
<!-- Node9&#45;&gt;Node3 -->
<g id="edge18" class="edge"><title>Node9&#45;&gt;Node3</title>
<path fill="none" stroke="midnightblue" d="M475.725,-477.466C495.437,-477.9 516.788,-478.369 535.695,-478.785"/>
<polygon fill="midnightblue" stroke="midnightblue" points="475.663,-473.964 465.588,-477.244 475.509,-480.963 475.663,-473.964"/>
</g>
<!-- Node12 -->
<g id="node24" class="node"><title>Node12</title>
<a xlink:href="classant_1_1_unpacker_a2_geant_config.html" target="_top" xlink:title="ant::UnpackerA2GeantConfig">
<polygon fill="white" stroke="black" points="336.5,-403.5 336.5,-424.5 481.5,-424.5 481.5,-403.5 336.5,-403.5"/>
<text text-anchor="middle" x="409" y="-411.5" font-family="Helvetica,sans-Serif" font-size="10.00">ant::UnpackerA2GeantConfig</text>
</a>
</g>
<!-- Node11&#45;&gt;Node12 -->
<g id="edge24" class="edge"><title>Node11&#45;&gt;Node12</title>
<path fill="none" stroke="midnightblue" d="M304.707,-401.664C315.282,-402.915 326.056,-404.189 336.469,-405.421"/>
<polygon fill="midnightblue" stroke="midnightblue" points="304.988,-398.173 294.646,-400.474 304.166,-405.125 304.988,-398.173"/>
</g>
<!-- Node12&#45;&gt;Node3 -->
<g id="edge26" class="edge"><title>Node12&#45;&gt;Node3</title>
<path fill="none" stroke="midnightblue" d="M447.89,-428.103C482.037,-440.486 530.948,-458.223 561.831,-469.422"/>
<polygon fill="midnightblue" stroke="midnightblue" points="448.836,-424.723 438.241,-424.604 446.449,-431.304 448.836,-424.723"/>
</g>
<!-- Node14 -->
<g id="node29" class="node"><title>Node14</title>
<a xlink:href="classant_1_1_unpacker_acqu_config.html" target="_top" xlink:title="ant::UnpackerAcquConfig">
<polygon fill="white" stroke="black" points="344.5,-275.5 344.5,-296.5 473.5,-296.5 473.5,-275.5 344.5,-275.5"/>
<text text-anchor="middle" x="409" y="-283.5" font-family="Helvetica,sans-Serif" font-size="10.00">ant::UnpackerAcquConfig</text>
</a>
</g>
<!-- Node13&#45;&gt;Node14 -->
<g id="edge30" class="edge"><title>Node13&#45;&gt;Node14</title>
<path fill="none" stroke="midnightblue" d="M298.101,-307.464C316.955,-303.815 336.828,-299.969 354.462,-296.556"/>
<polygon fill="midnightblue" stroke="midnightblue" points="297.206,-304.072 288.054,-309.409 298.537,-310.945 297.206,-304.072"/>
</g>
<!-- Node14&#45;&gt;Node3 -->
<g id="edge64" class="edge"><title>Node14&#45;&gt;Node3</title>
<path fill="none" stroke="midnightblue" d="M425.972,-304.092C463.144,-343.713 550.813,-437.163 580.762,-469.087"/>
<polygon fill="midnightblue" stroke="midnightblue" points="428.439,-301.605 419.044,-296.707 423.334,-306.394 428.439,-301.605"/>
</g>
<!-- Node15 -->
<g id="node31" class="node"><title>Node15</title>
<a xlink:href="structant_1_1expconfig_1_1detector_1_1_c_b.html" target="_top" xlink:title="ant::expconfig::detector::CB">
<polygon fill="white" stroke="black" points="521,-346.5 521,-367.5 661,-367.5 661,-346.5 521,-346.5"/>
<text text-anchor="middle" x="591" y="-354.5" font-family="Helvetica,sans-Serif" font-size="10.00">ant::expconfig::detector::CB</text>
</a>
</g>
<!-- Node14&#45;&gt;Node15 -->
<g id="edge32" class="edge"><title>Node14&#45;&gt;Node15</title>
<path fill="none" stroke="midnightblue" d="M438.036,-301.242C459.67,-312.188 490.159,-326.758 518,-337 527.496,-340.493 537.884,-343.695 547.768,-346.464"/>
<polygon fill="midnightblue" stroke="midnightblue" points="439.547,-298.084 429.05,-296.646 436.359,-304.316 439.547,-298.084"/>
</g>
<!-- Node16 -->
<g id="node33" class="node"><title>Node16</title>
<a xlink:href="structant_1_1expconfig_1_1detector_1_1_e_p_t.html" target="_top" xlink:title="ant::expconfig::detector::EPT">
<polygon fill="white" stroke="black" points="518.5,-306.5 518.5,-327.5 663.5,-327.5 663.5,-306.5 518.5,-306.5"/>
<text text-anchor="middle" x="591" y="-314.5" font-family="Helvetica,sans-Serif" font-size="10.00">ant::expconfig::detector::EPT</text>
</a>
</g>
<!-- Node14&#45;&gt;Node16 -->
<g id="edge34" class="edge"><title>Node14&#45;&gt;Node16</title>
<path fill="none" stroke="midnightblue" d="M480.741,-298.22C496.798,-300.955 513.693,-303.832 529.3,-306.491"/>
<polygon fill="midnightblue" stroke="midnightblue" points="481.317,-294.767 470.871,-296.538 480.141,-301.668 481.317,-294.767"/>
</g>
<!-- Node18 -->
<g id="node37" class="node"><title>Node18</title>
<a xlink:href="structant_1_1expconfig_1_1detector_1_1_p_i_d.html" target="_top" xlink:title="ant::expconfig::detector::PID">
<polygon fill="white" stroke="black" points="519.5,-266.5 519.5,-287.5 662.5,-287.5 662.5,-266.5 519.5,-266.5"/>
<text text-anchor="middle" x="591" y="-274.5" font-family="Helvetica,sans-Serif" font-size="10.00">ant::expconfig::detector::PID</text>
</a>
</g>
<!-- Node14&#45;&gt;Node18 -->
<g id="edge38" class="edge"><title>Node14&#45;&gt;Node18</title>
<path fill="none" stroke="midnightblue" d="M483.885,-282.297C495.63,-281.716 507.745,-281.117 519.414,-280.54"/>
<polygon fill="midnightblue" stroke="midnightblue" points="483.494,-278.812 473.679,-282.802 483.84,-285.803 483.494,-278.812"/>
</g>
<!-- Node24 -->
<g id="node49" class="node"><title>Node24</title>
<a xlink:href="structant_1_1expconfig_1_1detector_1_1_t_a_p_s.html" target="_top" xlink:title="ant::expconfig::detector\l::TAPS">
<polygon fill="white" stroke="black" points="531.5,-200 531.5,-234 650.5,-234 650.5,-200 531.5,-200"/>
<text text-anchor="start" x="539.5" y="-221" font-family="Helvetica,sans-Serif" font-size="10.00">ant::expconfig::detector</text>
<text text-anchor="middle" x="591" y="-208" font-family="Helvetica,sans-Serif" font-size="10.00">::TAPS</text>
</a>
</g>
<!-- Node14&#45;&gt;Node24 -->
<g id="edge50" class="edge"><title>Node14&#45;&gt;Node24</title>
<path fill="none" stroke="midnightblue" d="M446.745,-271.69C475.579,-260.758 515.419,-245.654 545.926,-234.088"/>
<polygon fill="midnightblue" stroke="midnightblue" points="445.148,-268.552 437.039,-275.37 447.63,-275.098 445.148,-268.552"/>
</g>
<!-- Node26 -->
<g id="node53" class="node"><title>Node26</title>
<a xlink:href="structant_1_1expconfig_1_1detector_1_1_t_a_p_s_veto.html" target="_top" xlink:title="ant::expconfig::detector\l::TAPSVeto">
<polygon fill="white" stroke="black" points="531.5,-121 531.5,-155 650.5,-155 650.5,-121 531.5,-121"/>
<text text-anchor="start" x="539.5" y="-142" font-family="Helvetica,sans-Serif" font-size="10.00">ant::expconfig::detector</text>
<text text-anchor="middle" x="591" y="-129" font-family="Helvetica,sans-Serif" font-size="10.00">::TAPSVeto</text>
</a>
</g>
<!-- Node14&#45;&gt;Node26 -->
<g id="edge54" class="edge"><title>Node14&#45;&gt;Node26</title>
<path fill="none" stroke="midnightblue" d="M427.927,-268.59C449.328,-249.124 485.437,-216.927 518,-191 533.683,-178.513 551.933,-165.263 566.262,-155.135"/>
<polygon fill="midnightblue" stroke="midnightblue" points="425.507,-266.06 420.484,-275.388 430.228,-271.229 425.507,-266.06"/>
</g>
<!-- Node29 -->
<g id="node59" class="node"><title>Node29</title>
<a xlink:href="structant_1_1expconfig_1_1detector_1_1_trigger.html" target="_top" xlink:title="ant::expconfig::detector\l::Trigger">
<polygon fill="white" stroke="black" points="531.5,-14 531.5,-48 650.5,-48 650.5,-14 531.5,-14"/>
<text text-anchor="start" x="539.5" y="-35" font-family="Helvetica,sans-Serif" font-size="10.00">ant::expconfig::detector</text>
<text text-anchor="middle" x="591" y="-22" font-family="Helvetica,sans-Serif" font-size="10.00">::Trigger</text>
</a>
</g>
<!-- Node14&#45;&gt;Node29 -->
<g id="edge60" class="edge"><title>Node14&#45;&gt;Node29</title>
<path fill="none" stroke="midnightblue" d="M419.828,-266.322C438.324,-233.296 477.909,-165.115 518,-112 535.563,-88.731 558.413,-64.1454 573.833,-48.2478"/>
<polygon fill="midnightblue" stroke="midnightblue" points="416.588,-264.947 414.787,-275.387 422.706,-268.348 416.588,-264.947"/>
</g>
<!-- Node17 -->
<g id="node35" class="node"><title>Node17</title>
<a xlink:href="structant_1_1expconfig_1_1detector_1_1_e_p_t__2014.html" target="_top" xlink:title="ant::expconfig::detector\l::EPT_2014">
<polygon fill="white" stroke="black" points="700.5,-416 700.5,-450 819.5,-450 819.5,-416 700.5,-416"/>
<text text-anchor="start" x="708.5" y="-437" font-family="Helvetica,sans-Serif" font-size="10.00">ant::expconfig::detector</text>
<text text-anchor="middle" x="760" y="-424" font-family="Helvetica,sans-Serif" font-size="10.00">::EPT_2014</text>
</a>
</g>
<!-- Node16&#45;&gt;Node17 -->
<g id="edge36" class="edge"><title>Node16&#45;&gt;Node17</title>
<path fill="none" stroke="midnightblue" d="M657.487,-332.405C659.764,-333.806 661.946,-335.334 664,-337 691.168,-359.041 674.458,-383.093 700,-407 703.564,-410.336 707.624,-413.285 711.912,-415.882"/>
<polygon fill="midnightblue" stroke="midnightblue" points="658.784,-329.134 648.3,-327.607 655.543,-335.339 658.784,-329.134"/>
</g>
<!-- Node19 -->
<g id="node39" class="node"><title>Node19</title>
<a xlink:href="structant_1_1expconfig_1_1detector_1_1_p_i_d__2004.html" target="_top" xlink:title="ant::expconfig::detector\l::PID_2004">
<polygon fill="white" stroke="black" points="700.5,-364 700.5,-398 819.5,-398 819.5,-364 700.5,-364"/>
<text text-anchor="start" x="708.5" y="-385" font-family="Helvetica,sans-Serif" font-size="10.00">ant::expconfig::detector</text>
<text text-anchor="middle" x="760" y="-372" font-family="Helvetica,sans-Serif" font-size="10.00">::PID_2004</text>
</a>
</g>
<!-- Node18&#45;&gt;Node19 -->
<g id="edge40" class="edge"><title>Node18&#45;&gt;Node19</title>
<path fill="none" stroke="midnightblue" d="M656.062,-291.908C658.838,-293.442 661.501,-295.134 664,-297 688.311,-315.152 677.033,-335.175 700,-355 703.867,-358.338 708.229,-361.306 712.791,-363.931"/>
<polygon fill="midnightblue" stroke="midnightblue" points="657.413,-288.675 646.88,-287.526 654.398,-294.992 657.413,-288.675"/>
</g>
<!-- Node20 -->
<g id="node41" class="node"><title>Node20</title>
<a xlink:href="structant_1_1expconfig_1_1detector_1_1_p_i_d__2009__05.html" target="_top" xlink:title="ant::expconfig::detector\l::PID_2009_05">
<polygon fill="white" stroke="black" points="700.5,-312 700.5,-346 819.5,-346 819.5,-312 700.5,-312"/>
<text text-anchor="start" x="708.5" y="-333" font-family="Helvetica,sans-Serif" font-size="10.00">ant::expconfig::detector</text>
<text text-anchor="middle" x="760" y="-320" font-family="Helvetica,sans-Serif" font-size="10.00">::PID_2009_05</text>
</a>
</g>
<!-- Node18&#45;&gt;Node20 -->
<g id="edge42" class="edge"><title>Node18&#45;&gt;Node20</title>
<path fill="none" stroke="midnightblue" d="M640.674,-290.219C648.5,-292.414 656.485,-294.72 664,-297 679.13,-301.591 695.487,-306.909 710.339,-311.875"/>
<polygon fill="midnightblue" stroke="midnightblue" points="641.465,-286.807 630.894,-287.509 639.596,-293.553 641.465,-286.807"/>
</g>
<!-- Node21 -->
<g id="node43" class="node"><title>Node21</title>
<a xlink:href="structant_1_1expconfig_1_1detector_1_1_p_i_d__2009__06.html" target="_top" xlink:title="ant::expconfig::detector\l::PID_2009_06">
<polygon fill="white" stroke="black" points="700.5,-260 700.5,-294 819.5,-294 819.5,-260 700.5,-260"/>
<text text-anchor="start" x="708.5" y="-281" font-family="Helvetica,sans-Serif" font-size="10.00">ant::expconfig::detector</text>
<text text-anchor="middle" x="760" y="-268" font-family="Helvetica,sans-Serif" font-size="10.00">::PID_2009_06</text>
</a>
</g>
<!-- Node18&#45;&gt;Node21 -->
<g id="edge44" class="edge"><title>Node18&#45;&gt;Node21</title>
<path fill="none" stroke="midnightblue" d="M672.768,-277C682.11,-277 691.496,-277 700.469,-277"/>
<polygon fill="midnightblue" stroke="midnightblue" points="672.671,-273.5 662.671,-277 672.671,-280.5 672.671,-273.5"/>
</g>
<!-- Node22 -->
<g id="node45" class="node"><title>Node22</title>
<a xlink:href="structant_1_1expconfig_1_1detector_1_1_p_i_d__2009__07.html" target="_top" xlink:title="ant::expconfig::detector\l::PID_2009_07">
<polygon fill="white" stroke="black" points="700.5,-208 700.5,-242 819.5,-242 819.5,-208 700.5,-208"/>
<text text-anchor="start" x="708.5" y="-229" font-family="Helvetica,sans-Serif" font-size="10.00">ant::expconfig::detector</text>
<text text-anchor="middle" x="760" y="-216" font-family="Helvetica,sans-Serif" font-size="10.00">::PID_2009_07</text>
</a>
</g>
<!-- Node18&#45;&gt;Node22 -->
<g id="edge46" class="edge"><title>Node18&#45;&gt;Node22</title>
<path fill="none" stroke="midnightblue" d="M634.935,-263.482C656.2,-256.938 681.96,-249.012 704.561,-242.058"/>
<polygon fill="midnightblue" stroke="midnightblue" points="633.728,-260.191 625.2,-266.477 635.787,-266.881 633.728,-260.191"/>
</g>
<!-- Node23 -->
<g id="node47" class="node"><title>Node23</title>
<a xlink:href="structant_1_1expconfig_1_1detector_1_1_p_i_d__2014.html" target="_top" xlink:title="ant::expconfig::detector\l::PID_2014">
<polygon fill="white" stroke="black" points="700.5,-156 700.5,-190 819.5,-190 819.5,-156 700.5,-156"/>
<text text-anchor="start" x="708.5" y="-177" font-family="Helvetica,sans-Serif" font-size="10.00">ant::expconfig::detector</text>
<text text-anchor="middle" x="760" y="-164" font-family="Helvetica,sans-Serif" font-size="10.00">::PID_2014</text>
</a>
</g>
<!-- Node18&#45;&gt;Node23 -->
<g id="edge48" class="edge"><title>Node18&#45;&gt;Node23</title>
<path fill="none" stroke="midnightblue" d="M630.801,-262.362C642.132,-257.191 654.081,-250.706 664,-243 683.953,-227.499 679.839,-214.231 700,-199 704.348,-195.715 709.175,-192.748 714.148,-190.095"/>
<polygon fill="midnightblue" stroke="midnightblue" points="629.272,-259.21 621.486,-266.396 632.054,-265.634 629.272,-259.21"/>
</g>
<!-- Node25 -->
<g id="node51" class="node"><title>Node25</title>
<a xlink:href="structant_1_1expconfig_1_1detector_1_1_t_a_p_s__2013.html" target="_top" xlink:title="ant::expconfig::detector\l::TAPS_2013">
<polygon fill="white" stroke="black" points="700.5,-104 700.5,-138 819.5,-138 819.5,-104 700.5,-104"/>
<text text-anchor="start" x="708.5" y="-125" font-family="Helvetica,sans-Serif" font-size="10.00">ant::expconfig::detector</text>
<text text-anchor="middle" x="760" y="-112" font-family="Helvetica,sans-Serif" font-size="10.00">::TAPS_2013</text>
</a>
</g>
<!-- Node24&#45;&gt;Node25 -->
<g id="edge52" class="edge"><title>Node24&#45;&gt;Node25</title>
<path fill="none" stroke="midnightblue" d="M623.328,-194.273C644.588,-179.825 673.314,-161.23 700,-147 705.81,-143.902 712.067,-140.873 718.271,-138.041"/>
<polygon fill="midnightblue" stroke="midnightblue" points="621.261,-191.446 614.991,-199.986 625.219,-197.221 621.261,-191.446"/>
</g>
<!-- Node27 -->
<g id="node55" class="node"><title>Node27</title>
<a xlink:href="structant_1_1expconfig_1_1detector_1_1_t_a_p_s_veto__2013.html" target="_top" xlink:title="ant::expconfig::detector\l::TAPSVeto_2013">
<polygon fill="white" stroke="black" points="700.5,-52 700.5,-86 819.5,-86 819.5,-52 700.5,-52"/>
<text text-anchor="start" x="708.5" y="-73" font-family="Helvetica,sans-Serif" font-size="10.00">ant::expconfig::detector</text>
<text text-anchor="middle" x="760" y="-60" font-family="Helvetica,sans-Serif" font-size="10.00">::TAPSVeto_2013</text>
</a>
</g>
<!-- Node26&#45;&gt;Node27 -->
<g id="edge56" class="edge"><title>Node26&#45;&gt;Node27</title>
<path fill="none" stroke="midnightblue" d="M642.194,-117.098C666.486,-107.18 695.149,-95.4777 718.12,-86.0991"/>
<polygon fill="midnightblue" stroke="midnightblue" points="640.71,-113.923 632.775,-120.944 643.356,-120.404 640.71,-113.923"/>
</g>
<!-- Node28 -->
<g id="node57" class="node"><title>Node28</title>
<a xlink:href="structant_1_1expconfig_1_1detector_1_1_t_a_p_s_veto__2014.html" target="_top" xlink:title="ant::expconfig::detector\l::TAPSVeto_2014">
<polygon fill="white" stroke="black" points="866.5,-52 866.5,-86 985.5,-86 985.5,-52 866.5,-52"/>
<text text-anchor="start" x="874.5" y="-73" font-family="Helvetica,sans-Serif" font-size="10.00">ant::expconfig::detector</text>
<text text-anchor="middle" x="926" y="-60" font-family="Helvetica,sans-Serif" font-size="10.00">::TAPSVeto_2014</text>
</a>
</g>
<!-- Node27&#45;&gt;Node28 -->
<g id="edge58" class="edge"><title>Node27&#45;&gt;Node28</title>
<path fill="none" stroke="midnightblue" d="M830,-69C842.123,-69 854.624,-69 866.437,-69"/>
<polygon fill="midnightblue" stroke="midnightblue" points="829.93,-65.5001 819.93,-69 829.93,-72.5001 829.93,-65.5001"/>
</g>
<!-- Node30 -->
<g id="node61" class="node"><title>Node30</title>
<a xlink:href="structant_1_1expconfig_1_1detector_1_1_trigger__2014.html" target="_top" xlink:title="ant::expconfig::detector\l::Trigger_2014">
<polygon fill="white" stroke="black" points="700.5,-0 700.5,-34 819.5,-34 819.5,-0 700.5,-0"/>
<text text-anchor="start" x="708.5" y="-21" font-family="Helvetica,sans-Serif" font-size="10.00">ant::expconfig::detector</text>
<text text-anchor="middle" x="760" y="-8" font-family="Helvetica,sans-Serif" font-size="10.00">::Trigger_2014</text>
</a>
</g>
<!-- Node29&#45;&gt;Node30 -->
<g id="edge62" class="edge"><title>Node29&#45;&gt;Node30</title>
<path fill="none" stroke="midnightblue" d="M660.571,-25.2368C673.789,-24.1418 687.51,-23.0051 700.385,-21.9385"/>
<polygon fill="midnightblue" stroke="midnightblue" points="660.26,-21.7504 650.583,-26.0641 660.838,-28.7265 660.26,-21.7504"/>
</g>
</g>
</svg>
