<?xml version="1.0" encoding="UTF-8" standalone="no"?>
<!DOCTYPE svg PUBLIC "-//W3C//DTD SVG 1.1//EN"
 "http://www.w3.org/Graphics/SVG/1.1/DTD/svg11.dtd">
<!-- Generated by graphviz version 2.26.3 (20100126.1600)
 -->
<!-- Title: ant::Updateable_traits Pages: 1 -->
<svg width="602pt" height="206pt"
 viewBox="0.00 0.00 602.00 206.00" xmlns="http://www.w3.org/2000/svg" xmlns:xlink="http://www.w3.org/1999/xlink">
<g id="graph1" class="graph" transform="scale(1 1) rotate(0) translate(4 202)">
<title>ant::Updateable_traits</title>
<polygon fill="white" stroke="white" points="-4,5 -4,-202 599,-202 599,5 -4,5"/>
<!-- Node1 -->
<g id="node1" class="node"><title>Node1</title>
<polygon fill="#bfbfbf" stroke="black" points="0.5,-49.5 0.5,-70.5 113.5,-70.5 113.5,-49.5 0.5,-49.5"/>
<text text-anchor="middle" x="57" y="-57.5" font-family="Helvetica,sans-Serif" font-size="10.00">ant::Updateable_traits</text>
</g>
<!-- Node2 -->
<g id="node3" class="node"><title>Node2</title>
<a xlink:href="classant_1_1_calibration_1_1_module.html" target="_top" xlink:title="The Module class is typically used for calibrations. ">
<polygon fill="white" stroke="black" points="150,-69.5 150,-90.5 270,-90.5 270,-69.5 150,-69.5"/>
<text text-anchor="middle" x="210" y="-77.5" font-family="Helvetica,sans-Serif" font-size="10.00">ant::Calibration::Module</text>
</a>
</g>
<!-- Node1&#45;&gt;Node2 -->
<g id="edge2" class="edge"><title>Node1&#45;&gt;Node2</title>
<path fill="none" stroke="midnightblue" d="M123.655,-68.7131C132.366,-69.8518 141.25,-71.0131 149.845,-72.1366"/>
<polygon fill="midnightblue" stroke="midnightblue" points="123.906,-65.2162 113.537,-67.3904 122.999,-72.1572 123.906,-65.2162"/>
</g>
<!-- Node11 -->
<g id="node21" class="node"><title>Node11</title>
<a xlink:href="struct_updateable_item.html" target="_top" xlink:title="UpdateableItem">
<polygon fill="white" stroke="black" points="167,-29.5 167,-50.5 253,-50.5 253,-29.5 167,-29.5"/>
<text text-anchor="middle" x="210" y="-37.5" font-family="Helvetica,sans-Serif" font-size="10.00">UpdateableItem</text>
</a>
</g>
<!-- Node1&#45;&gt;Node11 -->
<g id="edge20" class="edge"><title>Node1&#45;&gt;Node11</title>
<path fill="none" stroke="midnightblue" d="M123.533,-51.3029C138.123,-49.3956 153.206,-47.4241 166.609,-45.6721"/>
<polygon fill="midnightblue" stroke="midnightblue" points="122.999,-47.8428 113.537,-52.6096 123.906,-54.7838 122.999,-47.8428"/>
</g>
<!-- Node3 -->
<g id="node5" class="node"><title>Node3</title>
<a xlink:href="classant_1_1calibration_1_1_c_b___time_walk.html" target="_top" xlink:title="ant::calibration::CB\l_TimeWalk">
<polygon fill="white" stroke="black" points="314.5,-132 314.5,-166 415.5,-166 415.5,-132 314.5,-132"/>
<text text-anchor="start" x="322.5" y="-153" font-family="Helvetica,sans-Serif" font-size="10.00">ant::calibration::CB</text>
<text text-anchor="middle" x="365" y="-140" font-family="Helvetica,sans-Serif" font-size="10.00">_TimeWalk</text>
</a>
</g>
<!-- Node2&#45;&gt;Node3 -->
<g id="edge4" class="edge"><title>Node2&#45;&gt;Node3</title>
<path fill="none" stroke="midnightblue" d="M242.843,-94.7699C261.376,-103.089 284.966,-113.655 306,-123 312.547,-125.909 319.508,-128.988 326.266,-131.971"/>
<polygon fill="midnightblue" stroke="midnightblue" points="244.21,-91.5469 233.653,-90.6425 241.342,-97.9324 244.21,-91.5469"/>
</g>
<!-- Node4 -->
<g id="node7" class="node"><title>Node4</title>
<a xlink:href="classant_1_1calibration_1_1_energy.html" target="_top" xlink:title="ant::calibration::Energy">
<polygon fill="white" stroke="black" points="306.5,-92.5 306.5,-113.5 423.5,-113.5 423.5,-92.5 306.5,-92.5"/>
<text text-anchor="middle" x="365" y="-100.5" font-family="Helvetica,sans-Serif" font-size="10.00">ant::calibration::Energy</text>
</a>
</g>
<!-- Node2&#45;&gt;Node4 -->
<g id="edge6" class="edge"><title>Node2&#45;&gt;Node4</title>
<path fill="none" stroke="midnightblue" d="M280.447,-90.4534C289.098,-91.7372 297.868,-93.0385 306.32,-94.2926"/>
<polygon fill="midnightblue" stroke="midnightblue" points="280.776,-86.964 270.371,-88.9583 279.749,-93.8882 280.776,-86.964"/>
</g>
<!-- Node9 -->
<g id="node17" class="node"><title>Node9</title>
<a xlink:href="classant_1_1calibration_1_1_p_i_d___phi_angle.html" target="_top" xlink:title="ant::calibration::PID\l_PhiAngle">
<polygon fill="white" stroke="black" points="313,-40 313,-74 417,-74 417,-40 313,-40"/>
<text text-anchor="start" x="321" y="-61" font-family="Helvetica,sans-Serif" font-size="10.00">ant::calibration::PID</text>
<text text-anchor="middle" x="365" y="-48" font-family="Helvetica,sans-Serif" font-size="10.00">_PhiAngle</text>
</a>
</g>
<!-- Node2&#45;&gt;Node9 -->
<g id="edge16" class="edge"><title>Node2&#45;&gt;Node9</title>
<path fill="none" stroke="midnightblue" d="M280.276,-69.5719C291.148,-67.9587 302.21,-66.3172 312.598,-64.7757"/>
<polygon fill="midnightblue" stroke="midnightblue" points="279.749,-66.1118 270.371,-71.0417 280.776,-73.0359 279.749,-66.1118"/>
</g>
<!-- Node10 -->
<g id="node19" class="node"><title>Node10</title>
<a xlink:href="classant_1_1calibration_1_1_time.html" target="_top" xlink:title="ant::calibration::Time">
<polygon fill="white" stroke="black" points="311,-0.5 311,-21.5 419,-21.5 419,-0.5 311,-0.5"/>
<text text-anchor="middle" x="365" y="-8.5" font-family="Helvetica,sans-Serif" font-size="10.00">ant::calibration::Time</text>
</a>
</g>
<!-- Node2&#45;&gt;Node10 -->
<g id="edge18" class="edge"><title>Node2&#45;&gt;Node10</title>
<path fill="none" stroke="midnightblue" d="M258.205,-65.651C262.275,-63.9261 266.26,-62.0429 270,-60 288.031,-50.1511 287.994,-40.8947 306,-31 312.635,-27.3539 320.053,-24.2064 327.329,-21.5574"/>
<polygon fill="midnightblue" stroke="midnightblue" points="256.672,-62.492 248.63,-69.3893 259.218,-69.0127 256.672,-62.492"/>
</g>
<!-- Node5 -->
<g id="node9" class="node"><title>Node5</title>
<a xlink:href="classant_1_1calibration_1_1_c_b___energy.html" target="_top" xlink:title="ant::calibration::CB\l_Energy">
<polygon fill="white" stroke="black" points="476.5,-164 476.5,-198 577.5,-198 577.5,-164 476.5,-164"/>
<text text-anchor="start" x="484.5" y="-185" font-family="Helvetica,sans-Serif" font-size="10.00">ant::calibration::CB</text>
<text text-anchor="middle" x="527" y="-172" font-family="Helvetica,sans-Serif" font-size="10.00">_Energy</text>
</a>
</g>
<!-- Node4&#45;&gt;Node5 -->
<g id="edge8" class="edge"><title>Node4&#45;&gt;Node5</title>
<path fill="none" stroke="midnightblue" d="M413.006,-117.425C416.811,-119.122 420.523,-120.978 424,-123 442.506,-133.762 441.732,-143.84 460,-155 465.324,-158.252 471.124,-161.226 477.011,-163.906"/>
<polygon fill="midnightblue" stroke="midnightblue" points="414.019,-114.058 403.437,-113.534 411.382,-120.543 414.019,-114.058"/>
</g>
<!-- Node6 -->
<g id="node11" class="node"><title>Node6</title>
<a xlink:href="classant_1_1calibration_1_1_p_i_d___energy.html" target="_top" xlink:title="ant::calibration::PID\l_Energy">
<polygon fill="white" stroke="black" points="475,-112 475,-146 579,-146 579,-112 475,-112"/>
<text text-anchor="start" x="483" y="-133" font-family="Helvetica,sans-Serif" font-size="10.00">ant::calibration::PID</text>
<text text-anchor="middle" x="527" y="-120" font-family="Helvetica,sans-Serif" font-size="10.00">_Energy</text>
</a>
</g>
<!-- Node4&#45;&gt;Node6 -->
<g id="edge10" class="edge"><title>Node4&#45;&gt;Node6</title>
<path fill="none" stroke="midnightblue" d="M433.828,-114.047C447.551,-116.249 461.75,-118.528 474.802,-120.622"/>
<polygon fill="midnightblue" stroke="midnightblue" points="434.372,-110.589 423.944,-112.46 433.263,-117.501 434.372,-110.589"/>
</g>
<!-- Node7 -->
<g id="node13" class="node"><title>Node7</title>
<a xlink:href="classant_1_1calibration_1_1_t_a_p_s___energy.html" target="_top" xlink:title="ant::calibration::TAPS\l_Energy">
<polygon fill="white" stroke="black" points="470.5,-60 470.5,-94 583.5,-94 583.5,-60 470.5,-60"/>
<text text-anchor="start" x="478.5" y="-81" font-family="Helvetica,sans-Serif" font-size="10.00">ant::calibration::TAPS</text>
<text text-anchor="middle" x="527" y="-68" font-family="Helvetica,sans-Serif" font-size="10.00">_Energy</text>
</a>
</g>
<!-- Node4&#45;&gt;Node7 -->
<g id="edge12" class="edge"><title>Node4&#45;&gt;Node7</title>
<path fill="none" stroke="midnightblue" d="M433.993,-91.927C446.088,-89.9858 458.549,-87.986 470.263,-86.1059"/>
<polygon fill="midnightblue" stroke="midnightblue" points="433.263,-88.4993 423.944,-93.5399 434.372,-95.4109 433.263,-88.4993"/>
</g>
<!-- Node8 -->
<g id="node15" class="node"><title>Node8</title>
<a xlink:href="classant_1_1calibration_1_1_t_a_p_s_veto___energy.html" target="_top" xlink:title="ant::calibration::TAPSVeto\l_Energy">
<polygon fill="white" stroke="black" points="460.5,-8 460.5,-42 593.5,-42 593.5,-8 460.5,-8"/>
<text text-anchor="start" x="468.5" y="-29" font-family="Helvetica,sans-Serif" font-size="10.00">ant::calibration::TAPSVeto</text>
<text text-anchor="middle" x="527" y="-16" font-family="Helvetica,sans-Serif" font-size="10.00">_Energy</text>
</a>
</g>
<!-- Node4&#45;&gt;Node8 -->
<g id="edge14" class="edge"><title>Node4&#45;&gt;Node8</title>
<path fill="none" stroke="midnightblue" d="M413.006,-88.575C416.811,-86.8785 420.523,-85.0219 424,-83 442.506,-72.2383 441.732,-62.1602 460,-51 465.324,-47.7477 471.124,-44.774 477.011,-42.0941"/>
<polygon fill="midnightblue" stroke="midnightblue" points="411.382,-85.457 403.437,-92.4656 414.019,-91.9416 411.382,-85.457"/>
</g>
</g>
</svg>
