<?xml version="1.0" encoding="UTF-8" standalone="no"?>
<!DOCTYPE svg PUBLIC "-//W3C//DTD SVG 1.1//EN"
 "http://www.w3.org/Graphics/SVG/1.1/DTD/svg11.dtd">
<!-- Generated by graphviz version 2.26.3 (20100126.1600)
 -->
<!-- Title: ant::UnpackerAcquConfig Pages: 1 -->
<svg width="964pt" height="562pt"
 viewBox="0.00 0.00 964.00 562.00" xmlns="http://www.w3.org/2000/svg" xmlns:xlink="http://www.w3.org/1999/xlink">
<g id="graph1" class="graph" transform="scale(1 1) rotate(0) translate(4 558)">
<title>ant::UnpackerAcquConfig</title>
<polygon fill="white" stroke="white" points="-4,5 -4,-558 961,-558 961,5 -4,5"/>
<!-- Node1 -->
<g id="node1" class="node"><title>Node1</title>
<polygon fill="#bfbfbf" stroke="black" points="312.5,-214.5 312.5,-235.5 441.5,-235.5 441.5,-214.5 312.5,-214.5"/>
<text text-anchor="middle" x="377" y="-222.5" font-family="Helvetica,sans-Serif" font-size="10.00">ant::UnpackerAcquConfig</text>
</g>
<!-- Node4 -->
<g id="node7" class="node"><title>Node4</title>
<a xlink:href="structant_1_1expconfig_1_1detector_1_1_c_b.html" target="_top" xlink:title="ant::expconfig::detector::CB">
<polygon fill="white" stroke="black" points="481,-398.5 481,-419.5 621,-419.5 621,-398.5 481,-398.5"/>
<text text-anchor="middle" x="551" y="-406.5" font-family="Helvetica,sans-Serif" font-size="10.00">ant::expconfig::detector::CB</text>
</a>
</g>
<!-- Node1&#45;&gt;Node4 -->
<g id="edge6" class="edge"><title>Node1&#45;&gt;Node4</title>
<path fill="none" stroke="midnightblue" d="M383.842,-245.309C396.641,-280.15 427.56,-351.201 478,-389 483.153,-392.861 489.007,-395.977 495.106,-398.492"/>
<polygon fill="midnightblue" stroke="midnightblue" points="387.089,-243.993 380.451,-235.736 380.491,-246.331 387.089,-243.993"/>
</g>
<!-- Node5 -->
<g id="node9" class="node"><title>Node5</title>
<a xlink:href="structant_1_1expconfig_1_1detector_1_1_e_p_t.html" target="_top" xlink:title="ant::expconfig::detector::EPT">
<polygon fill="white" stroke="black" points="478.5,-358.5 478.5,-379.5 623.5,-379.5 623.5,-358.5 478.5,-358.5"/>
<text text-anchor="middle" x="551" y="-366.5" font-family="Helvetica,sans-Serif" font-size="10.00">ant::expconfig::detector::EPT</text>
</a>
</g>
<!-- Node1&#45;&gt;Node5 -->
<g id="edge8" class="edge"><title>Node1&#45;&gt;Node5</title>
<path fill="none" stroke="midnightblue" d="M387.638,-244.587C403.603,-272.11 436.377,-321.888 478,-349 483.836,-352.801 490.384,-355.886 497.1,-358.387"/>
<polygon fill="midnightblue" stroke="midnightblue" points="390.671,-242.84 382.705,-235.854 384.576,-246.282 390.671,-242.84"/>
</g>
<!-- Node7 -->
<g id="node13" class="node"><title>Node7</title>
<a xlink:href="structant_1_1expconfig_1_1detector_1_1_p_i_d.html" target="_top" xlink:title="ant::expconfig::detector::PID">
<polygon fill="white" stroke="black" points="479.5,-318.5 479.5,-339.5 622.5,-339.5 622.5,-318.5 479.5,-318.5"/>
<text text-anchor="middle" x="551" y="-326.5" font-family="Helvetica,sans-Serif" font-size="10.00">ant::expconfig::detector::PID</text>
</a>
</g>
<!-- Node1&#45;&gt;Node7 -->
<g id="edge12" class="edge"><title>Node1&#45;&gt;Node7</title>
<path fill="none" stroke="midnightblue" d="M403.585,-240.89C439.534,-262.376 502.665,-300.11 533.312,-318.428"/>
<polygon fill="midnightblue" stroke="midnightblue" points="405.021,-237.671 394.642,-235.544 401.43,-243.679 405.021,-237.671"/>
</g>
<!-- Node13 -->
<g id="node25" class="node"><title>Node13</title>
<a xlink:href="structant_1_1expconfig_1_1detector_1_1_t_a_p_s.html" target="_top" xlink:title="ant::expconfig::detector\l::TAPS">
<polygon fill="white" stroke="black" points="491.5,-208 491.5,-242 610.5,-242 610.5,-208 491.5,-208"/>
<text text-anchor="start" x="499.5" y="-229" font-family="Helvetica,sans-Serif" font-size="10.00">ant::expconfig::detector</text>
<text text-anchor="middle" x="551" y="-216" font-family="Helvetica,sans-Serif" font-size="10.00">::TAPS</text>
</a>
</g>
<!-- Node1&#45;&gt;Node13 -->
<g id="edge24" class="edge"><title>Node1&#45;&gt;Node13</title>
<path fill="none" stroke="midnightblue" d="M451.799,-225C465.011,-225 478.606,-225 491.332,-225"/>
<polygon fill="midnightblue" stroke="midnightblue" points="451.791,-221.5 441.791,-225 451.791,-228.5 451.791,-221.5"/>
</g>
<!-- Node15 -->
<g id="node29" class="node"><title>Node15</title>
<a xlink:href="structant_1_1expconfig_1_1detector_1_1_t_a_p_s_veto.html" target="_top" xlink:title="ant::expconfig::detector\l::TAPSVeto">
<polygon fill="white" stroke="black" points="491.5,-156 491.5,-190 610.5,-190 610.5,-156 491.5,-156"/>
<text text-anchor="start" x="499.5" y="-177" font-family="Helvetica,sans-Serif" font-size="10.00">ant::expconfig::detector</text>
<text text-anchor="middle" x="551" y="-164" font-family="Helvetica,sans-Serif" font-size="10.00">::TAPSVeto</text>
</a>
</g>
<!-- Node1&#45;&gt;Node15 -->
<g id="edge28" class="edge"><title>Node1&#45;&gt;Node15</title>
<path fill="none" stroke="midnightblue" d="M421.938,-211.57C443.889,-205.01 470.545,-197.044 493.92,-190.058"/>
<polygon fill="midnightblue" stroke="midnightblue" points="420.791,-208.26 412.211,-214.477 422.795,-214.967 420.791,-208.26"/>
</g>
<!-- Node18 -->
<g id="node35" class="node"><title>Node18</title>
<a xlink:href="structant_1_1expconfig_1_1detector_1_1_trigger.html" target="_top" xlink:title="ant::expconfig::detector\l::Trigger">
<polygon fill="white" stroke="black" points="491.5,-104 491.5,-138 610.5,-138 610.5,-104 491.5,-104"/>
<text text-anchor="start" x="499.5" y="-125" font-family="Helvetica,sans-Serif" font-size="10.00">ant::expconfig::detector</text>
<text text-anchor="middle" x="551" y="-112" font-family="Helvetica,sans-Serif" font-size="10.00">::Trigger</text>
</a>
</g>
<!-- Node1&#45;&gt;Node18 -->
<g id="edge34" class="edge"><title>Node1&#45;&gt;Node18</title>
<path fill="none" stroke="midnightblue" d="M395.787,-207.529C415.164,-190.253 446.865,-164.004 478,-147 483.904,-143.776 490.286,-140.819 496.735,-138.149"/>
<polygon fill="midnightblue" stroke="midnightblue" points="393.338,-205.024 388.274,-214.33 398.037,-210.213 393.338,-205.024"/>
</g>
<!-- Node20 -->
<g id="node39" class="node"><title>Node20</title>
<a xlink:href="classant_1_1expconfig_1_1_setup.html" target="_top" xlink:title="The Setup class serves as a base class for all known beamtime setup configurations. ">
<polygon fill="white" stroke="black" points="496,-58.5 496,-79.5 606,-79.5 606,-58.5 496,-58.5"/>
<text text-anchor="middle" x="551" y="-66.5" font-family="Helvetica,sans-Serif" font-size="10.00">ant::expconfig::Setup</text>
</a>
</g>
<!-- Node1&#45;&gt;Node20 -->
<g id="edge38" class="edge"><title>Node1&#45;&gt;Node20</title>
<path fill="none" stroke="midnightblue" d="M387.451,-205.309C403.391,-177.057 436.363,-125.118 478,-95 487.048,-88.4555 497.902,-83.4217 508.44,-79.6068"/>
<polygon fill="midnightblue" stroke="midnightblue" points="384.292,-203.79 382.537,-214.239 390.425,-207.165 384.292,-203.79"/>
</g>
<!-- Node2 -->
<g id="node2" class="node"><title>Node2</title>
<a xlink:href="classant_1_1_exp_config_1_1_unpacker.html" target="_top" xlink:title="ant::ExpConfig::Unpacker\l\&lt; UnpackerAcquConfig \&gt;">
<polygon fill="white" stroke="black" points="146,-208 146,-242 276,-242 276,-208 146,-208"/>
<text text-anchor="start" x="154" y="-229" font-family="Helvetica,sans-Serif" font-size="10.00">ant::ExpConfig::Unpacker</text>
<text text-anchor="middle" x="211" y="-216" font-family="Helvetica,sans-Serif" font-size="10.00">&lt; UnpackerAcquConfig &gt;</text>
</a>
</g>
<!-- Node2&#45;&gt;Node1 -->
<g id="edge2" class="edge"><title>Node2&#45;&gt;Node1</title>
<path fill="none" stroke="midnightblue" d="M286.27,-225C294.971,-225 303.786,-225 312.329,-225"/>
<polygon fill="midnightblue" stroke="midnightblue" points="286.131,-221.5 276.131,-225 286.131,-228.5 286.131,-221.5"/>
</g>
<!-- Node3 -->
<g id="node4" class="node"><title>Node3</title>
<a xlink:href="classant_1_1_exp_config_1_1_base.html" target="_top" xlink:title="ant::ExpConfig::Base">
<polygon fill="white" stroke="black" points="0,-214.5 0,-235.5 110,-235.5 110,-214.5 0,-214.5"/>
<text text-anchor="middle" x="55" y="-222.5" font-family="Helvetica,sans-Serif" font-size="10.00">ant::ExpConfig::Base</text>
</a>
</g>
<!-- Node3&#45;&gt;Node2 -->
<g id="edge4" class="edge"><title>Node3&#45;&gt;Node2</title>
<path fill="none" stroke="midnightblue" d="M120.539,-225C128.922,-225 137.502,-225 145.878,-225"/>
<polygon fill="midnightblue" stroke="midnightblue" points="120.439,-221.5 110.439,-225 120.439,-228.5 120.439,-221.5"/>
</g>
<!-- Node6 -->
<g id="node11" class="node"><title>Node6</title>
<a xlink:href="structant_1_1expconfig_1_1detector_1_1_e_p_t__2014.html" target="_top" xlink:title="ant::expconfig::detector\l::EPT_2014">
<polygon fill="white" stroke="black" points="660.5,-520 660.5,-554 779.5,-554 779.5,-520 660.5,-520"/>
<text text-anchor="start" x="668.5" y="-541" font-family="Helvetica,sans-Serif" font-size="10.00">ant::expconfig::detector</text>
<text text-anchor="middle" x="720" y="-528" font-family="Helvetica,sans-Serif" font-size="10.00">::EPT_2014</text>
</a>
</g>
<!-- Node5&#45;&gt;Node6 -->
<g id="edge10" class="edge"><title>Node5&#45;&gt;Node6</title>
<path fill="none" stroke="midnightblue" d="M619.418,-385.043C621.025,-386.269 622.557,-387.585 624,-389 664.364,-428.583 622.535,-468.663 660,-511 663.009,-514.401 666.543,-517.374 670.364,-519.969"/>
<polygon fill="midnightblue" stroke="midnightblue" points="621.17,-382.01 610.843,-379.643 617.44,-387.933 621.17,-382.01"/>
</g>
<!-- Node8 -->
<g id="node15" class="node"><title>Node8</title>
<a xlink:href="structant_1_1expconfig_1_1detector_1_1_p_i_d__2004.html" target="_top" xlink:title="ant::expconfig::detector\l::PID_2004">
<polygon fill="white" stroke="black" points="660.5,-468 660.5,-502 779.5,-502 779.5,-468 660.5,-468"/>
<text text-anchor="start" x="668.5" y="-489" font-family="Helvetica,sans-Serif" font-size="10.00">ant::expconfig::detector</text>
<text text-anchor="middle" x="720" y="-476" font-family="Helvetica,sans-Serif" font-size="10.00">::PID_2004</text>
</a>
</g>
<!-- Node7&#45;&gt;Node8 -->
<g id="edge14" class="edge"><title>Node7&#45;&gt;Node8</title>
<path fill="none" stroke="midnightblue" d="M619.245,-345.011C620.911,-346.245 622.501,-347.573 624,-349 661.252,-384.474 625.349,-420.981 660,-459 663.059,-462.356 666.627,-465.298 670.47,-467.874"/>
<polygon fill="midnightblue" stroke="midnightblue" points="620.728,-341.815 610.371,-339.583 617.075,-347.787 620.728,-341.815"/>
</g>
<!-- Node9 -->
<g id="node17" class="node"><title>Node9</title>
<a xlink:href="structant_1_1expconfig_1_1detector_1_1_p_i_d__2009__05.html" target="_top" xlink:title="ant::expconfig::detector\l::PID_2009_05">
<polygon fill="white" stroke="black" points="660.5,-416 660.5,-450 779.5,-450 779.5,-416 660.5,-416"/>
<text text-anchor="start" x="668.5" y="-437" font-family="Helvetica,sans-Serif" font-size="10.00">ant::expconfig::detector</text>
<text text-anchor="middle" x="720" y="-424" font-family="Helvetica,sans-Serif" font-size="10.00">::PID_2009_05</text>
</a>
</g>
<!-- Node7&#45;&gt;Node9 -->
<g id="edge16" class="edge"><title>Node7&#45;&gt;Node9</title>
<path fill="none" stroke="midnightblue" d="M616.062,-343.908C618.838,-345.442 621.501,-347.134 624,-349 648.311,-367.152 637.033,-387.175 660,-407 663.867,-410.338 668.229,-413.306 672.791,-415.931"/>
<polygon fill="midnightblue" stroke="midnightblue" points="617.413,-340.675 606.88,-339.526 614.398,-346.992 617.413,-340.675"/>
</g>
<!-- Node10 -->
<g id="node19" class="node"><title>Node10</title>
<a xlink:href="structant_1_1expconfig_1_1detector_1_1_p_i_d__2009__06.html" target="_top" xlink:title="ant::expconfig::detector\l::PID_2009_06">
<polygon fill="white" stroke="black" points="660.5,-364 660.5,-398 779.5,-398 779.5,-364 660.5,-364"/>
<text text-anchor="start" x="668.5" y="-385" font-family="Helvetica,sans-Serif" font-size="10.00">ant::expconfig::detector</text>
<text text-anchor="middle" x="720" y="-372" font-family="Helvetica,sans-Serif" font-size="10.00">::PID_2009_06</text>
</a>
</g>
<!-- Node7&#45;&gt;Node10 -->
<g id="edge18" class="edge"><title>Node7&#45;&gt;Node10</title>
<path fill="none" stroke="midnightblue" d="M600.674,-342.219C608.5,-344.414 616.485,-346.72 624,-349 639.13,-353.591 655.487,-358.909 670.339,-363.875"/>
<polygon fill="midnightblue" stroke="midnightblue" points="601.465,-338.807 590.894,-339.509 599.596,-345.553 601.465,-338.807"/>
</g>
<!-- Node11 -->
<g id="node21" class="node"><title>Node11</title>
<a xlink:href="structant_1_1expconfig_1_1detector_1_1_p_i_d__2009__07.html" target="_top" xlink:title="ant::expconfig::detector\l::PID_2009_07">
<polygon fill="white" stroke="black" points="660.5,-312 660.5,-346 779.5,-346 779.5,-312 660.5,-312"/>
<text text-anchor="start" x="668.5" y="-333" font-family="Helvetica,sans-Serif" font-size="10.00">ant::expconfig::detector</text>
<text text-anchor="middle" x="720" y="-320" font-family="Helvetica,sans-Serif" font-size="10.00">::PID_2009_07</text>
</a>
</g>
<!-- Node7&#45;&gt;Node11 -->
<g id="edge20" class="edge"><title>Node7&#45;&gt;Node11</title>
<path fill="none" stroke="midnightblue" d="M632.768,-329C642.11,-329 651.496,-329 660.469,-329"/>
<polygon fill="midnightblue" stroke="midnightblue" points="632.671,-325.5 622.671,-329 632.671,-332.5 632.671,-325.5"/>
</g>
<!-- Node12 -->
<g id="node23" class="node"><title>Node12</title>
<a xlink:href="structant_1_1expconfig_1_1detector_1_1_p_i_d__2014.html" target="_top" xlink:title="ant::expconfig::detector\l::PID_2014">
<polygon fill="white" stroke="black" points="660.5,-260 660.5,-294 779.5,-294 779.5,-260 660.5,-260"/>
<text text-anchor="start" x="668.5" y="-281" font-family="Helvetica,sans-Serif" font-size="10.00">ant::expconfig::detector</text>
<text text-anchor="middle" x="720" y="-268" font-family="Helvetica,sans-Serif" font-size="10.00">::PID_2014</text>
</a>
</g>
<!-- Node7&#45;&gt;Node12 -->
<g id="edge22" class="edge"><title>Node7&#45;&gt;Node12</title>
<path fill="none" stroke="midnightblue" d="M594.935,-315.482C616.2,-308.938 641.96,-301.012 664.561,-294.058"/>
<polygon fill="midnightblue" stroke="midnightblue" points="593.728,-312.191 585.2,-318.477 595.787,-318.881 593.728,-312.191"/>
</g>
<!-- Node14 -->
<g id="node27" class="node"><title>Node14</title>
<a xlink:href="structant_1_1expconfig_1_1detector_1_1_t_a_p_s__2013.html" target="_top" xlink:title="ant::expconfig::detector\l::TAPS_2013">
<polygon fill="white" stroke="black" points="660.5,-208 660.5,-242 779.5,-242 779.5,-208 660.5,-208"/>
<text text-anchor="start" x="668.5" y="-229" font-family="Helvetica,sans-Serif" font-size="10.00">ant::expconfig::detector</text>
<text text-anchor="middle" x="720" y="-216" font-family="Helvetica,sans-Serif" font-size="10.00">::TAPS_2013</text>
</a>
</g>
<!-- Node13&#45;&gt;Node14 -->
<g id="edge26" class="edge"><title>Node13&#45;&gt;Node14</title>
<path fill="none" stroke="midnightblue" d="M620.959,-225C634.058,-225 647.636,-225 660.385,-225"/>
<polygon fill="midnightblue" stroke="midnightblue" points="620.583,-221.5 610.583,-225 620.583,-228.5 620.583,-221.5"/>
</g>
<!-- Node16 -->
<g id="node31" class="node"><title>Node16</title>
<a xlink:href="structant_1_1expconfig_1_1detector_1_1_t_a_p_s_veto__2013.html" target="_top" xlink:title="ant::expconfig::detector\l::TAPSVeto_2013">
<polygon fill="white" stroke="black" points="660.5,-156 660.5,-190 779.5,-190 779.5,-156 660.5,-156"/>
<text text-anchor="start" x="668.5" y="-177" font-family="Helvetica,sans-Serif" font-size="10.00">ant::expconfig::detector</text>
<text text-anchor="middle" x="720" y="-164" font-family="Helvetica,sans-Serif" font-size="10.00">::TAPSVeto_2013</text>
</a>
</g>
<!-- Node15&#45;&gt;Node16 -->
<g id="edge30" class="edge"><title>Node15&#45;&gt;Node16</title>
<path fill="none" stroke="midnightblue" d="M620.959,-173C634.058,-173 647.636,-173 660.385,-173"/>
<polygon fill="midnightblue" stroke="midnightblue" points="620.583,-169.5 610.583,-173 620.583,-176.5 620.583,-169.5"/>
</g>
<!-- Node17 -->
<g id="node33" class="node"><title>Node17</title>
<a xlink:href="structant_1_1expconfig_1_1detector_1_1_t_a_p_s_veto__2014.html" target="_top" xlink:title="ant::expconfig::detector\l::TAPSVeto_2014">
<polygon fill="white" stroke="black" points="826.5,-156 826.5,-190 945.5,-190 945.5,-156 826.5,-156"/>
<text text-anchor="start" x="834.5" y="-177" font-family="Helvetica,sans-Serif" font-size="10.00">ant::expconfig::detector</text>
<text text-anchor="middle" x="886" y="-164" font-family="Helvetica,sans-Serif" font-size="10.00">::TAPSVeto_2014</text>
</a>
</g>
<!-- Node16&#45;&gt;Node17 -->
<g id="edge32" class="edge"><title>Node16&#45;&gt;Node17</title>
<path fill="none" stroke="midnightblue" d="M790,-173C802.123,-173 814.624,-173 826.437,-173"/>
<polygon fill="midnightblue" stroke="midnightblue" points="789.93,-169.5 779.93,-173 789.93,-176.5 789.93,-169.5"/>
</g>
<!-- Node19 -->
<g id="node37" class="node"><title>Node19</title>
<a xlink:href="structant_1_1expconfig_1_1detector_1_1_trigger__2014.html" target="_top" xlink:title="ant::expconfig::detector\l::Trigger_2014">
<polygon fill="white" stroke="black" points="660.5,-104 660.5,-138 779.5,-138 779.5,-104 660.5,-104"/>
<text text-anchor="start" x="668.5" y="-125" font-family="Helvetica,sans-Serif" font-size="10.00">ant::expconfig::detector</text>
<text text-anchor="middle" x="720" y="-112" font-family="Helvetica,sans-Serif" font-size="10.00">::Trigger_2014</text>
</a>
</g>
<!-- Node18&#45;&gt;Node19 -->
<g id="edge36" class="edge"><title>Node18&#45;&gt;Node19</title>
<path fill="none" stroke="midnightblue" d="M620.959,-121C634.058,-121 647.636,-121 660.385,-121"/>
<polygon fill="midnightblue" stroke="midnightblue" points="620.583,-117.5 610.583,-121 620.583,-124.5 620.583,-117.5"/>
</g>
<!-- Node21 -->
<g id="node41" class="node"><title>Node21</title>
<a xlink:href="classant_1_1expconfig_1_1setup_1_1_setup__2014___e_p_t.html" target="_top" xlink:title="ant::expconfig::setup\l::Setup_2014_EPT">
<polygon fill="white" stroke="black" points="666,-52 666,-86 774,-86 774,-52 666,-52"/>
<text text-anchor="start" x="674" y="-73" font-family="Helvetica,sans-Serif" font-size="10.00">ant::expconfig::setup</text>
<text text-anchor="middle" x="720" y="-60" font-family="Helvetica,sans-Serif" font-size="10.00">::Setup_2014_EPT</text>
</a>
</g>
<!-- Node20&#45;&gt;Node21 -->
<g id="edge40" class="edge"><title>Node20&#45;&gt;Node21</title>
<path fill="none" stroke="midnightblue" d="M616.393,-69C632.792,-69 650.204,-69 665.979,-69"/>
<polygon fill="midnightblue" stroke="midnightblue" points="616.337,-65.5001 606.337,-69 616.337,-72.5001 616.337,-65.5001"/>
</g>
<!-- Node25 -->
<g id="node49" class="node"><title>Node25</title>
<a xlink:href="classant_1_1expconfig_1_1setup_1_1_setup__2015__dummy.html" target="_top" xlink:title="ant::expconfig::setup\l::Setup_2015_dummy">
<polygon fill="white" stroke="black" points="664,-0 664,-34 776,-34 776,-0 664,-0"/>
<text text-anchor="start" x="672" y="-21" font-family="Helvetica,sans-Serif" font-size="10.00">ant::expconfig::setup</text>
<text text-anchor="middle" x="720" y="-8" font-family="Helvetica,sans-Serif" font-size="10.00">::Setup_2015_dummy</text>
</a>
</g>
<!-- Node20&#45;&gt;Node25 -->
<g id="edge48" class="edge"><title>Node20&#45;&gt;Node25</title>
<path fill="none" stroke="midnightblue" d="M594.935,-55.4816C616.2,-48.9384 641.96,-41.0124 664.561,-34.0582"/>
<polygon fill="midnightblue" stroke="midnightblue" points="593.728,-52.1909 585.2,-58.477 595.787,-58.8813 593.728,-52.1909"/>
</g>
<!-- Node22 -->
<g id="node43" class="node"><title>Node22</title>
<a xlink:href="classant_1_1expconfig_1_1setup_1_1_setup__2014__07___e_p_t___prod.html" target="_top" xlink:title="ant::expconfig::setup\l::Setup_2014_07_EPT_Prod">
<polygon fill="white" stroke="black" points="816,-104 816,-138 956,-138 956,-104 816,-104"/>
<text text-anchor="start" x="824" y="-125" font-family="Helvetica,sans-Serif" font-size="10.00">ant::expconfig::setup</text>
<text text-anchor="middle" x="886" y="-112" font-family="Helvetica,sans-Serif" font-size="10.00">::Setup_2014_07_EPT_Prod</text>
</a>
</g>
<!-- Node21&#45;&gt;Node22 -->
<g id="edge42" class="edge"><title>Node21&#45;&gt;Node22</title>
<path fill="none" stroke="midnightblue" d="M783.98,-89.042C799.673,-93.9578 816.324,-99.1739 831.523,-103.935"/>
<polygon fill="midnightblue" stroke="midnightblue" points="784.944,-85.6761 774.355,-86.0267 782.851,-92.3561 784.944,-85.6761"/>
</g>
<!-- Node23 -->
<g id="node45" class="node"><title>Node23</title>
<a xlink:href="classant_1_1expconfig_1_1setup_1_1_setup__2014__10___e_p_t___prod.html" target="_top" xlink:title="ant::expconfig::setup\l::Setup_2014_10_EPT_Prod">
<polygon fill="white" stroke="black" points="816,-52 816,-86 956,-86 956,-52 816,-52"/>
<text text-anchor="start" x="824" y="-73" font-family="Helvetica,sans-Serif" font-size="10.00">ant::expconfig::setup</text>
<text text-anchor="middle" x="886" y="-60" font-family="Helvetica,sans-Serif" font-size="10.00">::Setup_2014_10_EPT_Prod</text>
</a>
</g>
<!-- Node21&#45;&gt;Node23 -->
<g id="edge44" class="edge"><title>Node21&#45;&gt;Node23</title>
<path fill="none" stroke="midnightblue" d="M784.466,-69C794.735,-69 805.403,-69 815.797,-69"/>
<polygon fill="midnightblue" stroke="midnightblue" points="784.355,-65.5001 774.355,-69 784.355,-72.5001 784.355,-65.5001"/>
</g>
<!-- Node24 -->
<g id="node47" class="node"><title>Node24</title>
<a xlink:href="classant_1_1expconfig_1_1setup_1_1_setup__2014__12___e_p_t___prod.html" target="_top" xlink:title="ant::expconfig::setup\l::Setup_2014_12_EPT_Prod">
<polygon fill="white" stroke="black" points="816,-0 816,-34 956,-34 956,-0 816,-0"/>
<text text-anchor="start" x="824" y="-21" font-family="Helvetica,sans-Serif" font-size="10.00">ant::expconfig::setup</text>
<text text-anchor="middle" x="886" y="-8" font-family="Helvetica,sans-Serif" font-size="10.00">::Setup_2014_12_EPT_Prod</text>
</a>
</g>
<!-- Node21&#45;&gt;Node24 -->
<g id="edge46" class="edge"><title>Node21&#45;&gt;Node24</title>
<path fill="none" stroke="midnightblue" d="M783.98,-48.958C799.673,-44.0422 816.324,-38.8261 831.523,-34.065"/>
<polygon fill="midnightblue" stroke="midnightblue" points="782.851,-45.6439 774.355,-51.9733 784.944,-52.3239 782.851,-45.6439"/>
</g>
</g>
</svg>
