<?xml version="1.0" encoding="UTF-8" standalone="no"?>
<!DOCTYPE svg PUBLIC "-//W3C//DTD SVG 1.1//EN"
 "http://www.w3.org/Graphics/SVG/1.1/DTD/svg11.dtd">
<!-- Generated by graphviz version 2.26.3 (20100126.1600)
 -->
<!-- Title: ant::analysis::data::Particle Pages: 1 -->
<svg width="614pt" height="233pt"
 viewBox="0.00 0.00 614.00 233.00" xmlns="http://www.w3.org/2000/svg" xmlns:xlink="http://www.w3.org/1999/xlink">
<g id="graph1" class="graph" transform="scale(1 1) rotate(0) translate(4 229)">
<title>ant::analysis::data::Particle</title>
<polygon fill="white" stroke="white" points="-4,5 -4,-229 611,-229 611,5 -4,5"/>
<!-- Node1 -->
<g id="node1" class="node"><title>Node1</title>
<polygon fill="#bfbfbf" stroke="black" points="508.5,-116 508.5,-150 605.5,-150 605.5,-116 508.5,-116"/>
<text text-anchor="start" x="516.5" y="-137" font-family="Helvetica,sans-Serif" font-size="10.00">ant::analysis::data</text>
<text text-anchor="middle" x="557" y="-124" font-family="Helvetica,sans-Serif" font-size="10.00">::Particle</text>
</g>
<!-- Node2 -->
<g id="node2" class="node"><title>Node2</title>
<polygon fill="white" stroke="#bfbfbf" points="309.5,-203.5 309.5,-224.5 392.5,-224.5 392.5,-203.5 309.5,-203.5"/>
<text text-anchor="middle" x="351" y="-211.5" font-family="Helvetica,sans-Serif" font-size="10.00">TLorentzVector</text>
</g>
<!-- Node2&#45;&gt;Node1 -->
<g id="edge2" class="edge"><title>Node2&#45;&gt;Node1</title>
<path fill="none" stroke="midnightblue" d="M402.633,-204.973C429.433,-199.218 462.278,-190.461 490,-178 506.231,-170.704 522.847,-159.572 535.472,-150.206"/>
<polygon fill="midnightblue" stroke="midnightblue" points="401.764,-201.579 392.681,-207.033 403.183,-208.433 401.764,-201.579"/>
</g>
<!-- Node3 -->
<g id="node4" class="node"><title>Node3</title>
<a xlink:href="classant_1_1printable__traits.html" target="_top" xlink:title="ant::printable_traits">
<polygon fill="white" stroke="black" points="301,-163.5 301,-184.5 401,-184.5 401,-163.5 301,-163.5"/>
<text text-anchor="middle" x="351" y="-171.5" font-family="Helvetica,sans-Serif" font-size="10.00">ant::printable_traits</text>
</a>
</g>
<!-- Node3&#45;&gt;Node1 -->
<g id="edge4" class="edge"><title>Node3&#45;&gt;Node1</title>
<path fill="none" stroke="midnightblue" d="M411.413,-171.64C436.054,-169.718 464.656,-166.249 490,-160 499.985,-157.538 510.447,-153.883 520.057,-150.052"/>
<polygon fill="midnightblue" stroke="midnightblue" points="410.842,-168.172 401.116,-172.373 411.339,-175.154 410.842,-168.172"/>
</g>
<!-- Node4 -->
<g id="node6" class="node"><title>Node4</title>
<polygon fill="white" stroke="#bfbfbf" points="287.5,-123.5 287.5,-144.5 414.5,-144.5 414.5,-123.5 287.5,-123.5"/>
<text text-anchor="middle" x="351" y="-131.5" font-family="Helvetica,sans-Serif" font-size="10.00">std::vector&lt; ParticlePtr &gt;</text>
</g>
<!-- Node4&#45;&gt;Node1 -->
<g id="edge6" class="edge"><title>Node4&#45;&gt;Node1</title>
<path fill="none" stroke="#9a32cd" stroke-dasharray="5,2" d="M424.828,-133.642C452.555,-133.507 483.355,-133.357 508.244,-133.237"/>
<polygon fill="#9a32cd" stroke="#9a32cd" points="424.752,-130.142 414.769,-133.69 424.786,-137.142 424.752,-130.142"/>
<text text-anchor="middle" x="464" y="-150" font-family="Helvetica,sans-Serif" font-size="10.00"> parents</text>
<text text-anchor="middle" x="464" y="-137" font-family="Helvetica,sans-Serif" font-size="10.00">daughters</text>
</g>
<!-- Node5 -->
<g id="node8" class="node"><title>Node5</title>
<a xlink:href="classant_1_1_particle_type_database_1_1_type.html" target="_top" xlink:title="ant::ParticleTypeDatabase\l::Type">
<polygon fill="white" stroke="black" points="284.5,-40 284.5,-74 417.5,-74 417.5,-40 284.5,-40"/>
<text text-anchor="start" x="292.5" y="-61" font-family="Helvetica,sans-Serif" font-size="10.00">ant::ParticleTypeDatabase</text>
<text text-anchor="middle" x="351" y="-48" font-family="Helvetica,sans-Serif" font-size="10.00">::Type</text>
</a>
</g>
<!-- Node5&#45;&gt;Node1 -->
<g id="edge8" class="edge"><title>Node5&#45;&gt;Node1</title>
<path fill="none" stroke="#9a32cd" stroke-dasharray="5,2" d="M406.613,-77.5174C439.15,-89.5214 479.755,-104.502 510.568,-115.87"/>
<polygon fill="#9a32cd" stroke="#9a32cd" points="407.824,-74.2336 397.23,-74.0559 405.401,-80.8009 407.824,-74.2336"/>
<text text-anchor="middle" x="464" y="-110" font-family="Helvetica,sans-Serif" font-size="10.00"> type</text>
</g>
<!-- Node5&#45;&gt;Node5 -->
<g id="edge14" class="edge"><title>Node5&#45;&gt;Node5</title>
<path fill="none" stroke="#9a32cd" stroke-dasharray="5,2" d="M331.495,-84.3176C334.234,-88.8645 340.736,-92 351,-92 367.844,-92 374.555,-83.5562 371.134,-74.2878"/>
<polygon fill="#9a32cd" stroke="#9a32cd" points="334.985,-84.0491 330.866,-74.2878 327.999,-84.4873 334.985,-84.0491"/>
<text text-anchor="middle" x="351" y="-96" font-family="Helvetica,sans-Serif" font-size="10.00"> sametype</text>
</g>
<!-- Node6 -->
<g id="node10" class="node"><title>Node6</title>
<a xlink:title="STL class. ">
<polygon fill="white" stroke="#bfbfbf" points="134,-46.5 134,-67.5 194,-67.5 194,-46.5 134,-46.5"/>
<text text-anchor="middle" x="164" y="-54.5" font-family="Helvetica,sans-Serif" font-size="10.00">std::string</text>
</a>
</g>
<!-- Node6&#45;&gt;Node5 -->
<g id="edge10" class="edge"><title>Node6&#45;&gt;Node5</title>
<path fill="none" stroke="#9a32cd" stroke-dasharray="5,2" d="M204.248,-57C227.544,-57 257.457,-57 284.192,-57"/>
<polygon fill="#9a32cd" stroke="#9a32cd" points="204.045,-53.5001 194.045,-57 204.045,-60.5001 204.045,-53.5001"/>
<text text-anchor="middle" x="238" y="-74" font-family="Helvetica,sans-Serif" font-size="10.00"> print_name</text>
<text text-anchor="middle" x="238" y="-61" font-family="Helvetica,sans-Serif" font-size="10.00">name</text>
</g>
<!-- Node7 -->
<g id="node12" class="node"><title>Node7</title>
<a xlink:title="STL class. ">
<polygon fill="white" stroke="#bfbfbf" points="0.5,-40 0.5,-74 95.5,-74 95.5,-40 0.5,-40"/>
<text text-anchor="start" x="8.5" y="-61" font-family="Helvetica,sans-Serif" font-size="10.00">std::basic_string&lt;</text>
<text text-anchor="middle" x="48" y="-48" font-family="Helvetica,sans-Serif" font-size="10.00"> char &gt;</text>
</a>
</g>
<!-- Node7&#45;&gt;Node6 -->
<g id="edge12" class="edge"><title>Node7&#45;&gt;Node6</title>
<path fill="none" stroke="midnightblue" d="M105.582,-57C115.29,-57 125.014,-57 133.666,-57"/>
<polygon fill="midnightblue" stroke="midnightblue" points="105.516,-53.5001 95.5163,-57 105.516,-60.5001 105.516,-53.5001"/>
</g>
<!-- Node8 -->
<g id="node15" class="node"><title>Node8</title>
<polygon fill="white" stroke="#bfbfbf" points="282,-0.5 282,-21.5 420,-21.5 420,-0.5 282,-0.5"/>
<text text-anchor="middle" x="351" y="-8.5" font-family="Helvetica,sans-Serif" font-size="10.00">std::vector&lt; CandidatePtr &gt;</text>
</g>
<!-- Node8&#45;&gt;Node1 -->
<g id="edge16" class="edge"><title>Node8&#45;&gt;Node1</title>
<path fill="none" stroke="#9a32cd" stroke-dasharray="5,2" d="M403.869,-24.7905C409.388,-26.6834 414.856,-28.7563 420,-31 453.256,-45.5044 460.799,-51.4676 490,-73 507.971,-86.2516 526.771,-103.42 539.866,-115.995"/>
<polygon fill="#9a32cd" stroke="#9a32cd" points="404.531,-21.3263 393.939,-21.58 402.378,-27.9868 404.531,-21.3263"/>
<text text-anchor="middle" x="464" y="-77" font-family="Helvetica,sans-Serif" font-size="10.00"> candidates</text>
</g>
</g>
</svg>
