<?xml version="1.0" encoding="UTF-8" standalone="no"?>
<!DOCTYPE svg PUBLIC "-//W3C//DTD SVG 1.1//EN"
 "http://www.w3.org/Graphics/SVG/1.1/DTD/svg11.dtd">
<!-- Generated by graphviz version 2.26.3 (20100126.1600)
 -->
<!-- Title: ant::expconfig::setup::Setup_2015_dummy Pages: 1 -->
<svg width="774pt" height="172pt"
 viewBox="0.00 0.00 774.00 172.00" xmlns="http://www.w3.org/2000/svg" xmlns:xlink="http://www.w3.org/1999/xlink">
<g id="graph1" class="graph" transform="scale(1 1) rotate(0) translate(4 168)">
<title>ant::expconfig::setup::Setup_2015_dummy</title>
<polygon fill="white" stroke="white" points="-4,5 -4,-168 771,-168 771,5 -4,5"/>
<!-- Node1 -->
<g id="node1" class="node"><title>Node1</title>
<polygon fill="#bfbfbf" stroke="black" points="654,-74 654,-108 766,-108 766,-74 654,-74"/>
<text text-anchor="start" x="662" y="-95" font-family="Helvetica,sans-Serif" font-size="10.00">ant::expconfig::setup</text>
<text text-anchor="middle" x="710" y="-82" font-family="Helvetica,sans-Serif" font-size="10.00">::Setup_2015_dummy</text>
</g>
<!-- Node2 -->
<g id="node2" class="node"><title>Node2</title>
<a xlink:href="classant_1_1expconfig_1_1_setup.html" target="_top" xlink:title="The Setup class serves as a base class for all known beamtime setup configurations. ">
<polygon fill="white" stroke="black" points="508,-80.5 508,-101.5 618,-101.5 618,-80.5 508,-80.5"/>
<text text-anchor="middle" x="563" y="-88.5" font-family="Helvetica,sans-Serif" font-size="10.00">ant::expconfig::Setup</text>
</a>
</g>
<!-- Node2&#45;&gt;Node1 -->
<g id="edge2" class="edge"><title>Node2&#45;&gt;Node1</title>
<path fill="none" stroke="midnightblue" d="M628.32,-91C636.736,-91 645.298,-91 653.555,-91"/>
<polygon fill="midnightblue" stroke="midnightblue" points="628.156,-87.5001 618.156,-91 628.156,-94.5001 628.156,-87.5001"/>
</g>
<!-- Node3 -->
<g id="node4" class="node"><title>Node3</title>
<a xlink:href="classant_1_1_exp_config_1_1_setup.html" target="_top" xlink:title="ant::ExpConfig::Setup">
<polygon fill="white" stroke="black" points="342.5,-142.5 342.5,-163.5 455.5,-163.5 455.5,-142.5 342.5,-142.5"/>
<text text-anchor="middle" x="399" y="-150.5" font-family="Helvetica,sans-Serif" font-size="10.00">ant::ExpConfig::Setup</text>
</a>
</g>
<!-- Node3&#45;&gt;Node2 -->
<g id="edge4" class="edge"><title>Node3&#45;&gt;Node2</title>
<path fill="none" stroke="midnightblue" d="M437.321,-138.932C448.511,-134.796 460.755,-130.242 472,-126 493.539,-117.875 517.875,-108.505 535.958,-101.506"/>
<polygon fill="midnightblue" stroke="midnightblue" points="435.979,-135.696 427.809,-142.442 438.403,-142.264 435.979,-135.696"/>
</g>
<!-- Node4 -->
<g id="node6" class="node"><title>Node4</title>
<a xlink:href="classant_1_1_exp_config_1_1_base.html" target="_top" xlink:title="ant::ExpConfig::Base">
<polygon fill="white" stroke="black" points="0,-81.5 0,-102.5 110,-102.5 110,-81.5 0,-81.5"/>
<text text-anchor="middle" x="55" y="-89.5" font-family="Helvetica,sans-Serif" font-size="10.00">ant::ExpConfig::Base</text>
</a>
</g>
<!-- Node4&#45;&gt;Node3 -->
<g id="edge6" class="edge"><title>Node4&#45;&gt;Node3</title>
<path fill="none" stroke="midnightblue" d="M81.4776,-107.731C99.1224,-117.391 123.181,-129.022 146,-135 211.812,-152.242 290.338,-155.228 342.26,-154.886"/>
<polygon fill="midnightblue" stroke="midnightblue" points="82.8151,-104.468 72.3834,-102.616 79.3835,-110.569 82.8151,-104.468"/>
</g>
<!-- Node5 -->
<g id="node8" class="node"><title>Node5</title>
<a xlink:href="classant_1_1_exp_config_1_1_reconstruct.html" target="_top" xlink:title="ant::ExpConfig::Reconstruct">
<polygon fill="white" stroke="black" points="147.5,-104.5 147.5,-125.5 288.5,-125.5 288.5,-104.5 147.5,-104.5"/>
<text text-anchor="middle" x="218" y="-112.5" font-family="Helvetica,sans-Serif" font-size="10.00">ant::ExpConfig::Reconstruct</text>
</a>
</g>
<!-- Node4&#45;&gt;Node5 -->
<g id="edge10" class="edge"><title>Node4&#45;&gt;Node5</title>
<path fill="none" stroke="midnightblue" d="M120.122,-101.189C129.049,-102.449 138.248,-103.747 147.269,-105.02"/>
<polygon fill="midnightblue" stroke="midnightblue" points="120.575,-97.7184 110.184,-99.7868 119.597,-104.65 120.575,-97.7184"/>
</g>
<!-- Node7 -->
<g id="node13" class="node"><title>Node7</title>
<a xlink:href="classant_1_1_exp_config_1_1_unpacker.html" target="_top" xlink:title="ant::ExpConfig::Unpacker\l\&lt; UnpackerAcquConfig \&gt;">
<polygon fill="white" stroke="black" points="153,-52 153,-86 283,-86 283,-52 153,-52"/>
<text text-anchor="start" x="161" y="-73" font-family="Helvetica,sans-Serif" font-size="10.00">ant::ExpConfig::Unpacker</text>
<text text-anchor="middle" x="218" y="-60" font-family="Helvetica,sans-Serif" font-size="10.00">&lt; UnpackerAcquConfig &gt;</text>
</a>
</g>
<!-- Node4&#45;&gt;Node7 -->
<g id="edge16" class="edge"><title>Node4&#45;&gt;Node7</title>
<path fill="none" stroke="midnightblue" d="M120.285,-82.788C130.971,-81.2802 142.044,-79.7178 152.729,-78.21"/>
<polygon fill="midnightblue" stroke="midnightblue" points="119.597,-79.3503 110.184,-84.2132 120.575,-86.2816 119.597,-79.3503"/>
</g>
<!-- Node9 -->
<g id="node18" class="node"><title>Node9</title>
<a xlink:href="classant_1_1_exp_config_1_1_unpacker.html" target="_top" xlink:title="ant::ExpConfig::Unpacker\l\&lt; UnpackerA2GeantConfig \&gt;">
<polygon fill="white" stroke="black" points="146.5,-0 146.5,-34 289.5,-34 289.5,-0 146.5,-0"/>
<text text-anchor="start" x="154.5" y="-21" font-family="Helvetica,sans-Serif" font-size="10.00">ant::ExpConfig::Unpacker</text>
<text text-anchor="middle" x="218" y="-8" font-family="Helvetica,sans-Serif" font-size="10.00">&lt; UnpackerA2GeantConfig &gt;</text>
</a>
</g>
<!-- Node4&#45;&gt;Node9 -->
<g id="edge22" class="edge"><title>Node4&#45;&gt;Node9</title>
<path fill="none" stroke="midnightblue" d="M81.4551,-76.4128C99.3409,-66.2113 123.679,-52.9742 146,-43 152.916,-39.9094 160.322,-36.9061 167.656,-34.1045"/>
<polygon fill="midnightblue" stroke="midnightblue" points="79.6521,-73.4122 72.735,-81.4374 83.147,-79.4773 79.6521,-73.4122"/>
</g>
<!-- Node5&#45;&gt;Node2 -->
<g id="edge8" class="edge"><title>Node5&#45;&gt;Node2</title>
<path fill="none" stroke="midnightblue" d="M298.752,-109.382C363.042,-104.91 451.314,-98.7695 507.766,-94.8424"/>
<polygon fill="midnightblue" stroke="midnightblue" points="298.381,-105.9 288.648,-110.085 298.867,-112.883 298.381,-105.9"/>
</g>
<!-- Node6 -->
<g id="node11" class="node"><title>Node6</title>
<a xlink:href="classant_1_1_unpacker_acqu_config.html" target="_top" xlink:title="ant::UnpackerAcquConfig">
<polygon fill="white" stroke="black" points="334.5,-59.5 334.5,-80.5 463.5,-80.5 463.5,-59.5 334.5,-59.5"/>
<text text-anchor="middle" x="399" y="-67.5" font-family="Helvetica,sans-Serif" font-size="10.00">ant::UnpackerAcquConfig</text>
</a>
</g>
<!-- Node6&#45;&gt;Node2 -->
<g id="edge12" class="edge"><title>Node6&#45;&gt;Node2</title>
<path fill="none" stroke="midnightblue" d="M473.831,-79.582C485.307,-81.0515 496.971,-82.5451 507.916,-83.9466"/>
<polygon fill="midnightblue" stroke="midnightblue" points="474.181,-76.0983 463.817,-78.2998 473.292,-83.0416 474.181,-76.0983"/>
</g>
<!-- Node7&#45;&gt;Node6 -->
<g id="edge14" class="edge"><title>Node7&#45;&gt;Node6</title>
<path fill="none" stroke="midnightblue" d="M293.414,-69.4167C307.064,-69.4921 321.185,-69.5701 334.488,-69.6436"/>
<polygon fill="midnightblue" stroke="midnightblue" points="293.109,-65.915 283.089,-69.3596 293.07,-72.9149 293.109,-65.915"/>
</g>
<!-- Node8 -->
<g id="node16" class="node"><title>Node8</title>
<a xlink:href="classant_1_1_unpacker_a2_geant_config.html" target="_top" xlink:title="ant::UnpackerA2GeantConfig">
<polygon fill="white" stroke="black" points="326.5,-13.5 326.5,-34.5 471.5,-34.5 471.5,-13.5 326.5,-13.5"/>
<text text-anchor="middle" x="399" y="-21.5" font-family="Helvetica,sans-Serif" font-size="10.00">ant::UnpackerA2GeantConfig</text>
</a>
</g>
<!-- Node8&#45;&gt;Node2 -->
<g id="edge18" class="edge"><title>Node8&#45;&gt;Node2</title>
<path fill="none" stroke="midnightblue" d="M440.205,-38.0176C450.641,-41.7477 461.786,-45.8879 472,-50 495.79,-59.5775 522.488,-71.7844 540.78,-80.3794"/>
<polygon fill="midnightblue" stroke="midnightblue" points="441.065,-34.6095 430.47,-34.5813 438.735,-41.2103 441.065,-34.6095"/>
</g>
<!-- Node9&#45;&gt;Node8 -->
<g id="edge20" class="edge"><title>Node9&#45;&gt;Node8</title>
<path fill="none" stroke="midnightblue" d="M299.799,-20.1635C308.602,-20.5039 317.516,-20.8487 326.203,-21.1847"/>
<polygon fill="midnightblue" stroke="midnightblue" points="299.664,-16.6557 289.536,-19.7666 299.393,-23.6505 299.664,-16.6557"/>
</g>
</g>
</svg>
