<?xml version="1.0" encoding="UTF-8" standalone="no"?>
<!DOCTYPE svg PUBLIC "-//W3C//DTD SVG 1.1//EN"
 "http://www.w3.org/Graphics/SVG/1.1/DTD/svg11.dtd">
<!-- Generated by graphviz version 2.26.3 (20100126.1600)
 -->
<!-- Title: ant::Unpacker::Module Pages: 1 -->
<svg width="242pt" height="146pt"
 viewBox="0.00 0.00 242.00 146.00" xmlns="http://www.w3.org/2000/svg" xmlns:xlink="http://www.w3.org/1999/xlink">
<g id="graph1" class="graph" transform="scale(1 1) rotate(0) translate(4 142)">
<title>ant::Unpacker::Module</title>
<polygon fill="white" stroke="white" points="-4,5 -4,-142 239,-142 239,5 -4,5"/>
<!-- Node1 -->
<g id="node1" class="node"><title>Node1</title>
<polygon fill="#bfbfbf" stroke="black" points="63,-58.5 63,-79.5 179,-79.5 179,-58.5 63,-58.5"/>
<text text-anchor="middle" x="121" y="-66.5" font-family="Helvetica,sans-Serif" font-size="10.00">ant::Unpacker::Module</text>
</g>
<!-- Node3 -->
<g id="node5" class="node"><title>Node3</title>
<a xlink:href="classant_1_1_unpacker_a2_geant.html" target="_top" xlink:title="ant::UnpackerA2Geant">
<polygon fill="white" stroke="black" points="0,-0.5 0,-21.5 116,-21.5 116,-0.5 0,-0.5"/>
<text text-anchor="middle" x="58" y="-8.5" font-family="Helvetica,sans-Serif" font-size="10.00">ant::UnpackerA2Geant</text>
</a>
</g>
<!-- Node1&#45;&gt;Node3 -->
<g id="edge4" class="edge"><title>Node1&#45;&gt;Node3</title>
<path fill="none" stroke="midnightblue" d="M101.888,-51.405C91.3122,-41.6683 78.52,-29.8914 69.4819,-21.5707"/>
<polygon fill="midnightblue" stroke="midnightblue" points="99.7172,-54.1637 109.445,-58.3619 104.458,-49.0138 99.7172,-54.1637"/>
</g>
<!-- Node4 -->
<g id="node7" class="node"><title>Node4</title>
<a xlink:href="classant_1_1_unpacker_acqu.html" target="_top" xlink:title="ant::UnpackerAcqu">
<polygon fill="white" stroke="black" points="133.5,-0.5 133.5,-21.5 234.5,-21.5 234.5,-0.5 133.5,-0.5"/>
<text text-anchor="middle" x="184" y="-8.5" font-family="Helvetica,sans-Serif" font-size="10.00">ant::UnpackerAcqu</text>
</a>
</g>
<!-- Node1&#45;&gt;Node4 -->
<g id="edge6" class="edge"><title>Node1&#45;&gt;Node4</title>
<path fill="none" stroke="midnightblue" d="M140.112,-51.405C150.688,-41.6683 163.48,-29.8914 172.518,-21.5707"/>
<polygon fill="midnightblue" stroke="midnightblue" points="137.542,-49.0138 132.555,-58.3619 142.283,-54.1637 137.542,-49.0138"/>
</g>
<!-- Node2 -->
<g id="node2" class="node"><title>Node2</title>
<a xlink:href="classant_1_1_unpacker_1_1_reader.html" target="_top" xlink:title="The Reader interface returns the unpacked data as a stream. ">
<polygon fill="white" stroke="black" points="63,-116.5 63,-137.5 179,-137.5 179,-116.5 63,-116.5"/>
<text text-anchor="middle" x="121" y="-124.5" font-family="Helvetica,sans-Serif" font-size="10.00">ant::Unpacker::Reader</text>
</a>
</g>
<!-- Node2&#45;&gt;Node1 -->
<g id="edge2" class="edge"><title>Node2&#45;&gt;Node1</title>
<path fill="none" stroke="midnightblue" d="M121,-106.191C121,-97.1684 121,-86.9941 121,-79.5707"/>
<polygon fill="midnightblue" stroke="midnightblue" points="117.5,-106.362 121,-116.362 124.5,-106.362 117.5,-106.362"/>
</g>
</g>
</svg>
