<?xml version="1.0" encoding="UTF-8" standalone="no"?>
<!DOCTYPE svg PUBLIC "-//W3C//DTD SVG 1.1//EN"
 "http://www.w3.org/Graphics/SVG/1.1/DTD/svg11.dtd">
<!-- Generated by graphviz version 2.26.3 (20100126.1600)
 -->
<!-- Title: ant::analysis::input::GoatReader Pages: 1 -->
<svg width="768pt" height="406pt"
 viewBox="0.00 0.00 768.00 406.00" xmlns="http://www.w3.org/2000/svg" xmlns:xlink="http://www.w3.org/1999/xlink">
<g id="graph1" class="graph" transform="scale(1 1) rotate(0) translate(4 402)">
<title>ant::analysis::input::GoatReader</title>
<polygon fill="white" stroke="white" points="-4,5 -4,-402 765,-402 765,5 -4,5"/>
<!-- Node1 -->
<g id="node1" class="node"><title>Node1</title>
<polygon fill="#bfbfbf" stroke="black" points="660.5,-192 660.5,-226 759.5,-226 759.5,-192 660.5,-192"/>
<text text-anchor="start" x="668.5" y="-213" font-family="Helvetica,sans-Serif" font-size="10.00">ant::analysis::input</text>
<text text-anchor="middle" x="710" y="-200" font-family="Helvetica,sans-Serif" font-size="10.00">::GoatReader</text>
</g>
<!-- Node2 -->
<g id="node2" class="node"><title>Node2</title>
<a xlink:href="classant_1_1analysis_1_1input_1_1_data_reader.html" target="_top" xlink:title="Abstract base class for data input modules. ">
<polygon fill="white" stroke="black" points="423.5,-364 423.5,-398 522.5,-398 522.5,-364 423.5,-364"/>
<text text-anchor="start" x="431.5" y="-385" font-family="Helvetica,sans-Serif" font-size="10.00">ant::analysis::input</text>
<text text-anchor="middle" x="473" y="-372" font-family="Helvetica,sans-Serif" font-size="10.00">::DataReader</text>
</a>
</g>
<!-- Node2&#45;&gt;Node1 -->
<g id="edge2" class="edge"><title>Node2&#45;&gt;Node1</title>
<path fill="none" stroke="midnightblue" d="M532.782,-370.141C567.686,-361.36 610.845,-346.031 642,-320 673.044,-294.063 693.92,-250.128 703.67,-226.046"/>
<polygon fill="midnightblue" stroke="midnightblue" points="531.616,-366.821 522.706,-372.554 533.246,-373.629 531.616,-366.821"/>
</g>
<!-- Node3 -->
<g id="node4" class="node"><title>Node3</title>
<a xlink:href="classant_1_1analysis_1_1input_1_1_tagger_input.html" target="_top" xlink:title="ant::analysis::input\l::TaggerInput">
<polygon fill="white" stroke="black" points="423.5,-156 423.5,-190 522.5,-190 522.5,-156 423.5,-156"/>
<text text-anchor="start" x="431.5" y="-177" font-family="Helvetica,sans-Serif" font-size="10.00">ant::analysis::input</text>
<text text-anchor="middle" x="473" y="-164" font-family="Helvetica,sans-Serif" font-size="10.00">::TaggerInput</text>
</a>
</g>
<!-- Node3&#45;&gt;Node1 -->
<g id="edge4" class="edge"><title>Node3&#45;&gt;Node1</title>
<path fill="none" stroke="#9a32cd" stroke-dasharray="5,2" d="M532.812,-180.995C565.175,-185.447 605.821,-191.24 642,-197 647.919,-197.942 654.121,-198.974 660.268,-200.025"/>
<polygon fill="#9a32cd" stroke="#9a32cd" points="532.994,-177.488 522.612,-179.599 532.045,-184.423 532.994,-177.488"/>
<text text-anchor="middle" x="606" y="-201" font-family="Helvetica,sans-Serif" font-size="10.00"> tagger</text>
</g>
<!-- Node4 -->
<g id="node6" class="node"><title>Node4</title>
<a xlink:href="classant_1_1analysis_1_1input_1_1_base_input_module.html" target="_top" xlink:title="ant::analysis::input\l::BaseInputModule">
<polygon fill="white" stroke="black" points="205.5,-117 205.5,-151 304.5,-151 304.5,-117 205.5,-117"/>
<text text-anchor="start" x="213.5" y="-138" font-family="Helvetica,sans-Serif" font-size="10.00">ant::analysis::input</text>
<text text-anchor="middle" x="255" y="-125" font-family="Helvetica,sans-Serif" font-size="10.00">::BaseInputModule</text>
</a>
</g>
<!-- Node4&#45;&gt;Node3 -->
<g id="edge6" class="edge"><title>Node4&#45;&gt;Node3</title>
<path fill="none" stroke="midnightblue" d="M314.601,-144.663C348.769,-150.775 391.149,-158.357 423.473,-164.14"/>
<polygon fill="midnightblue" stroke="midnightblue" points="315.2,-141.214 304.74,-142.899 313.968,-148.105 315.2,-141.214"/>
</g>
<!-- Node5 -->
<g id="node8" class="node"><title>Node5</title>
<a xlink:href="classant_1_1analysis_1_1input_1_1_trigger_input.html" target="_top" xlink:title="ant::analysis::input\l::TriggerInput">
<polygon fill="white" stroke="black" points="423.5,-104 423.5,-138 522.5,-138 522.5,-104 423.5,-104"/>
<text text-anchor="start" x="431.5" y="-125" font-family="Helvetica,sans-Serif" font-size="10.00">ant::analysis::input</text>
<text text-anchor="middle" x="473" y="-112" font-family="Helvetica,sans-Serif" font-size="10.00">::TriggerInput</text>
</a>
</g>
<!-- Node4&#45;&gt;Node5 -->
<g id="edge10" class="edge"><title>Node4&#45;&gt;Node5</title>
<path fill="none" stroke="midnightblue" d="M315.041,-130.42C349.132,-128.387 391.288,-125.873 423.473,-123.953"/>
<polygon fill="midnightblue" stroke="midnightblue" points="314.514,-126.945 304.74,-131.034 314.931,-133.932 314.514,-126.945"/>
</g>
<!-- Node12 -->
<g id="node23" class="node"><title>Node12</title>
<a xlink:href="classant_1_1analysis_1_1input_1_1_detector_hit_input.html" target="_top" xlink:title="ant::analysis::input\l::DetectorHitInput">
<polygon fill="white" stroke="black" points="423.5,-208 423.5,-242 522.5,-242 522.5,-208 423.5,-208"/>
<text text-anchor="start" x="431.5" y="-229" font-family="Helvetica,sans-Serif" font-size="10.00">ant::analysis::input</text>
<text text-anchor="middle" x="473" y="-216" font-family="Helvetica,sans-Serif" font-size="10.00">::DetectorHitInput</text>
</a>
</g>
<!-- Node4&#45;&gt;Node12 -->
<g id="edge26" class="edge"><title>Node4&#45;&gt;Node12</title>
<path fill="none" stroke="midnightblue" d="M297.721,-155.597C324.923,-168.942 361.106,-185.95 394,-199 403.395,-202.727 413.559,-206.36 423.368,-209.672"/>
<polygon fill="midnightblue" stroke="midnightblue" points="299.01,-152.33 288.494,-151.042 295.911,-158.607 299.01,-152.33"/>
</g>
<!-- Node13 -->
<g id="node26" class="node"><title>Node13</title>
<a xlink:href="classant_1_1analysis_1_1input_1_1_particle_input.html" target="_top" xlink:title="ant::analysis::input\l::ParticleInput">
<polygon fill="white" stroke="black" points="423.5,-52 423.5,-86 522.5,-86 522.5,-52 423.5,-52"/>
<text text-anchor="start" x="431.5" y="-73" font-family="Helvetica,sans-Serif" font-size="10.00">ant::analysis::input</text>
<text text-anchor="middle" x="473" y="-60" font-family="Helvetica,sans-Serif" font-size="10.00">::ParticleInput</text>
</a>
</g>
<!-- Node4&#45;&gt;Node13 -->
<g id="edge30" class="edge"><title>Node4&#45;&gt;Node13</title>
<path fill="none" stroke="midnightblue" d="M314.601,-116.229C348.769,-106.041 391.149,-93.405 423.473,-83.7671"/>
<polygon fill="midnightblue" stroke="midnightblue" points="313.323,-112.958 304.74,-119.169 315.324,-119.666 313.323,-112.958"/>
</g>
<!-- Node16 -->
<g id="node33" class="node"><title>Node16</title>
<a xlink:href="classant_1_1analysis_1_1input_1_1_track_input.html" target="_top" xlink:title="ant::analysis::input\l::TrackInput">
<polygon fill="white" stroke="black" points="423.5,-0 423.5,-34 522.5,-34 522.5,-0 423.5,-0"/>
<text text-anchor="start" x="431.5" y="-21" font-family="Helvetica,sans-Serif" font-size="10.00">ant::analysis::input</text>
<text text-anchor="middle" x="473" y="-8" font-family="Helvetica,sans-Serif" font-size="10.00">::TrackInput</text>
</a>
</g>
<!-- Node4&#45;&gt;Node16 -->
<g id="edge38" class="edge"><title>Node4&#45;&gt;Node16</title>
<path fill="none" stroke="midnightblue" d="M308.532,-112.733C330.994,-102.11 356.393,-87.7113 376,-70 386.702,-60.3323 382.522,-51.7324 394,-43 402.619,-36.4431 412.968,-31.4965 423.294,-27.7795"/>
<polygon fill="midnightblue" stroke="midnightblue" points="307.066,-109.555 299.438,-116.907 309.987,-115.917 307.066,-109.555"/>
</g>
<!-- Node5&#45;&gt;Node1 -->
<g id="edge8" class="edge"><title>Node5&#45;&gt;Node1</title>
<path fill="none" stroke="#9a32cd" stroke-dasharray="5,2" d="M532.451,-134.535C565.394,-142.947 606.705,-155.017 642,-170 656.281,-176.063 671.328,-184.46 683.626,-191.91"/>
<polygon fill="#9a32cd" stroke="#9a32cd" points="533.063,-131.08 522.512,-132.043 531.361,-137.87 533.063,-131.08"/>
<text text-anchor="middle" x="606" y="-174" font-family="Helvetica,sans-Serif" font-size="10.00"> trigger</text>
</g>
<!-- Node6 -->
<g id="node11" class="node"><title>Node6</title>
<a xlink:href="classant_1_1analysis_1_1input_1_1_goat_reader_1_1_module_manager.html" target="_top" xlink:title="ant::analysis::input\l::GoatReader::ModuleManager">
<polygon fill="white" stroke="black" points="398,-312 398,-346 548,-346 548,-312 398,-312"/>
<text text-anchor="start" x="406" y="-333" font-family="Helvetica,sans-Serif" font-size="10.00">ant::analysis::input</text>
<text text-anchor="middle" x="473" y="-320" font-family="Helvetica,sans-Serif" font-size="10.00">::GoatReader::ModuleManager</text>
</a>
</g>
<!-- Node6&#45;&gt;Node1 -->
<g id="edge12" class="edge"><title>Node6&#45;&gt;Node1</title>
<path fill="none" stroke="#9a32cd" stroke-dasharray="5,2" d="M555.038,-309.064C583.724,-300.126 615.387,-287.934 642,-272 662.712,-259.599 682.498,-240.101 695.332,-226.081"/>
<polygon fill="#9a32cd" stroke="#9a32cd" points="553.992,-305.724 545.435,-311.972 556.021,-312.424 553.992,-305.724"/>
<text text-anchor="middle" x="606" y="-307" font-family="Helvetica,sans-Serif" font-size="10.00"> active_modules</text>
</g>
<!-- Node7 -->
<g id="node13" class="node"><title>Node7</title>
<a xlink:title="STL class. ">
<polygon fill="white" stroke="#bfbfbf" points="180.5,-318.5 180.5,-339.5 329.5,-339.5 329.5,-318.5 180.5,-318.5"/>
<text text-anchor="middle" x="255" y="-326.5" font-family="Helvetica,sans-Serif" font-size="10.00">std::list&lt; BaseInputModule * &gt;</text>
</a>
</g>
<!-- Node7&#45;&gt;Node6 -->
<g id="edge14" class="edge"><title>Node7&#45;&gt;Node6</title>
<path fill="none" stroke="midnightblue" d="M339.874,-329C358.924,-329 379.008,-329 397.639,-329"/>
<polygon fill="midnightblue" stroke="midnightblue" points="339.718,-325.5 329.718,-329 339.718,-332.5 339.718,-325.5"/>
</g>
<!-- Node8 -->
<g id="node15" class="node"><title>Node8</title>
<polygon fill="white" stroke="#bfbfbf" points="35.5,-318.5 35.5,-339.5 64.5,-339.5 64.5,-318.5 35.5,-318.5"/>
<text text-anchor="middle" x="50" y="-326.5" font-family="Helvetica,sans-Serif" font-size="10.00">T</text>
</g>
<!-- Node8&#45;&gt;Node7 -->
<g id="edge16" class="edge"><title>Node8&#45;&gt;Node7</title>
<path fill="none" stroke="#9a32cd" stroke-dasharray="5,2" d="M74.8817,-329C101.003,-329 143.348,-329 180.419,-329"/>
<polygon fill="#9a32cd" stroke="#9a32cd" points="74.7431,-325.5 64.7431,-329 74.7431,-332.5 74.7431,-325.5"/>
<text text-anchor="middle" x="140" y="-333" font-family="Helvetica,sans-Serif" font-size="10.00"> elements</text>
</g>
<!-- Node9 -->
<g id="node17" class="node"><title>Node9</title>
<polygon fill="white" stroke="#bfbfbf" points="394,-260 394,-294 552,-294 552,-260 394,-260"/>
<text text-anchor="start" x="402" y="-281" font-family="Helvetica,sans-Serif" font-size="10.00">std::unique_ptr&lt; ant</text>
<text text-anchor="middle" x="473" y="-268" font-family="Helvetica,sans-Serif" font-size="10.00">::analysis::input::TreeManager &gt;</text>
</g>
<!-- Node9&#45;&gt;Node1 -->
<g id="edge18" class="edge"><title>Node9&#45;&gt;Node1</title>
<path fill="none" stroke="#9a32cd" stroke-dasharray="5,2" d="M562.133,-257.844C588.093,-251.602 616.361,-244.156 642,-236 651.078,-233.112 660.674,-229.599 669.704,-226.075"/>
<polygon fill="#9a32cd" stroke="#9a32cd" points="561.229,-254.461 552.307,-260.176 562.845,-261.272 561.229,-254.461"/>
<text text-anchor="middle" x="606" y="-259" font-family="Helvetica,sans-Serif" font-size="10.00"> trees</text>
</g>
<!-- Node10 -->
<g id="node19" class="node"><title>Node10</title>
<a xlink:href="classant_1_1analysis_1_1input_1_1_tree_manager.html" target="_top" xlink:title="ant::analysis::input\l::TreeManager">
<polygon fill="white" stroke="black" points="205.5,-260 205.5,-294 304.5,-294 304.5,-260 205.5,-260"/>
<text text-anchor="start" x="213.5" y="-281" font-family="Helvetica,sans-Serif" font-size="10.00">ant::analysis::input</text>
<text text-anchor="middle" x="255" y="-268" font-family="Helvetica,sans-Serif" font-size="10.00">::TreeManager</text>
</a>
</g>
<!-- Node10&#45;&gt;Node9 -->
<g id="edge20" class="edge"><title>Node10&#45;&gt;Node9</title>
<path fill="none" stroke="#9a32cd" stroke-dasharray="5,2" d="M314.929,-277C339.341,-277 367.904,-277 393.983,-277"/>
<polygon fill="#9a32cd" stroke="#9a32cd" points="314.74,-273.5 304.74,-277 314.74,-280.5 314.74,-273.5"/>
<text text-anchor="middle" x="362" y="-281" font-family="Helvetica,sans-Serif" font-size="10.00"> ptr</text>
</g>
<!-- Node11 -->
<g id="node21" class="node"><title>Node11</title>
<polygon fill="white" stroke="#bfbfbf" points="0,-266.5 0,-287.5 100,-287.5 100,-266.5 0,-266.5"/>
<text text-anchor="middle" x="50" y="-274.5" font-family="Helvetica,sans-Serif" font-size="10.00">std::set&lt; TTree * &gt;</text>
</g>
<!-- Node11&#45;&gt;Node10 -->
<g id="edge22" class="edge"><title>Node11&#45;&gt;Node10</title>
<path fill="none" stroke="#9a32cd" stroke-dasharray="5,2" d="M110.168,-277C140.448,-277 176.706,-277 205.369,-277"/>
<polygon fill="#9a32cd" stroke="#9a32cd" points="110.149,-273.5 100.149,-277 110.149,-280.5 110.149,-273.5"/>
<text text-anchor="middle" x="140" y="-281" font-family="Helvetica,sans-Serif" font-size="10.00"> trees</text>
</g>
<!-- Node12&#45;&gt;Node1 -->
<g id="edge24" class="edge"><title>Node12&#45;&gt;Node1</title>
<path fill="none" stroke="#9a32cd" stroke-dasharray="5,2" d="M532.698,-220.97C572.127,-218.308 623.189,-214.861 660.382,-212.35"/>
<polygon fill="#9a32cd" stroke="#9a32cd" points="532.424,-217.48 522.683,-221.646 532.896,-224.464 532.424,-217.48"/>
<text text-anchor="middle" x="606" y="-223" font-family="Helvetica,sans-Serif" font-size="10.00"> detectorhits</text>
</g>
<!-- Node13&#45;&gt;Node1 -->
<g id="edge28" class="edge"><title>Node13&#45;&gt;Node1</title>
<path fill="none" stroke="#9a32cd" stroke-dasharray="5,2" d="M532.781,-57.846C567.3,-54.636 610.064,-56.4758 642,-77 682.771,-103.202 700.332,-162.108 706.785,-191.553"/>
<polygon fill="#9a32cd" stroke="#9a32cd" points="532.38,-54.3688 522.818,-58.9311 533.138,-61.3277 532.38,-54.3688"/>
<text text-anchor="middle" x="606" y="-133" font-family="Helvetica,sans-Serif" font-size="10.00"> protons</text>
<text text-anchor="middle" x="606" y="-120" font-family="Helvetica,sans-Serif" font-size="10.00">neutrons</text>
<text text-anchor="middle" x="606" y="-107" font-family="Helvetica,sans-Serif" font-size="10.00">pichagred</text>
<text text-anchor="middle" x="606" y="-94" font-family="Helvetica,sans-Serif" font-size="10.00">echarged</text>
<text text-anchor="middle" x="606" y="-81" font-family="Helvetica,sans-Serif" font-size="10.00">photons</text>
</g>
<!-- Node14 -->
<g id="node29" class="node"><title>Node14</title>
<a xlink:title="STL class. ">
<polygon fill="white" stroke="#bfbfbf" points="225,-45.5 225,-66.5 285,-66.5 285,-45.5 225,-45.5"/>
<text text-anchor="middle" x="255" y="-53.5" font-family="Helvetica,sans-Serif" font-size="10.00">std::string</text>
</a>
</g>
<!-- Node14&#45;&gt;Node13 -->
<g id="edge32" class="edge"><title>Node14&#45;&gt;Node13</title>
<path fill="none" stroke="#9a32cd" stroke-dasharray="5,2" d="M295.483,-58.4141C331.596,-60.5676 384.587,-63.7276 423.268,-66.0343"/>
<polygon fill="#9a32cd" stroke="#9a32cd" points="295.503,-54.9092 285.312,-57.8076 295.086,-61.8968 295.503,-54.9092"/>
<text text-anchor="middle" x="362" y="-67" font-family="Helvetica,sans-Serif" font-size="10.00"> name</text>
</g>
<!-- Node15 -->
<g id="node31" class="node"><title>Node15</title>
<a xlink:title="STL class. ">
<polygon fill="white" stroke="#bfbfbf" points="2.5,-39 2.5,-73 97.5,-73 97.5,-39 2.5,-39"/>
<text text-anchor="start" x="10.5" y="-60" font-family="Helvetica,sans-Serif" font-size="10.00">std::basic_string&lt;</text>
<text text-anchor="middle" x="50" y="-47" font-family="Helvetica,sans-Serif" font-size="10.00"> char &gt;</text>
</a>
</g>
<!-- Node15&#45;&gt;Node14 -->
<g id="edge34" class="edge"><title>Node15&#45;&gt;Node14</title>
<path fill="none" stroke="midnightblue" d="M107.986,-56C146.035,-56 194.241,-56 224.862,-56"/>
<polygon fill="midnightblue" stroke="midnightblue" points="107.546,-52.5001 97.5464,-56 107.546,-59.5001 107.546,-52.5001"/>
</g>
<!-- Node16&#45;&gt;Node1 -->
<g id="edge36" class="edge"><title>Node16&#45;&gt;Node1</title>
<path fill="none" stroke="#9a32cd" stroke-dasharray="5,2" d="M532.973,-11.4733C568.142,-11.3972 611.51,-17.1584 642,-41 690.583,-78.9888 704.634,-157.286 708.551,-191.901"/>
<polygon fill="#9a32cd" stroke="#9a32cd" points="532.754,-7.97654 522.818,-11.6547 532.879,-14.9754 532.754,-7.97654"/>
<text text-anchor="middle" x="606" y="-45" font-family="Helvetica,sans-Serif" font-size="10.00"> tracks</text>
</g>
</g>
</svg>
