<?xml version="1.0" encoding="UTF-8" standalone="no"?>
<!DOCTYPE svg PUBLIC "-//W3C//DTD SVG 1.1//EN"
 "http://www.w3.org/Graphics/SVG/1.1/DTD/svg11.dtd">
<!-- Generated by graphviz version 2.26.3 (20100126.1600)
 -->
<!-- Title: ant::calibration::Time Pages: 1 -->
<svg width="678pt" height="214pt"
 viewBox="0.00 0.00 678.00 214.00" xmlns="http://www.w3.org/2000/svg" xmlns:xlink="http://www.w3.org/1999/xlink">
<g id="graph1" class="graph" transform="scale(1 1) rotate(0) translate(4 210)">
<title>ant::calibration::Time</title>
<polygon fill="white" stroke="white" points="-4,5 -4,-210 675,-210 675,5 -4,5"/>
<!-- Node1 -->
<g id="node1" class="node"><title>Node1</title>
<polygon fill="#bfbfbf" stroke="black" points="562,-68.5 562,-89.5 670,-89.5 670,-68.5 562,-68.5"/>
<text text-anchor="middle" x="616" y="-76.5" font-family="Helvetica,sans-Serif" font-size="10.00">ant::calibration::Time</text>
</g>
<!-- Node2 -->
<g id="node2" class="node"><title>Node2</title>
<a xlink:href="classant_1_1_calibration_1_1_module.html" target="_top" xlink:title="The Module class is typically used for calibrations. ">
<polygon fill="white" stroke="black" points="344,-132.5 344,-153.5 464,-153.5 464,-132.5 344,-132.5"/>
<text text-anchor="middle" x="404" y="-140.5" font-family="Helvetica,sans-Serif" font-size="10.00">ant::Calibration::Module</text>
</a>
</g>
<!-- Node2&#45;&gt;Node1 -->
<g id="edge2" class="edge"><title>Node2&#45;&gt;Node1</title>
<path fill="none" stroke="midnightblue" d="M450.592,-129.663C477.865,-121.779 512.941,-111.507 544,-102 556.924,-98.0439 571.104,-93.548 583.436,-89.5871"/>
<polygon fill="midnightblue" stroke="midnightblue" points="449.557,-126.318 440.919,-132.453 451.497,-133.044 449.557,-126.318"/>
</g>
<!-- Node3 -->
<g id="node4" class="node"><title>Node3</title>
<a xlink:href="classant_1_1_calibration_1_1_physics_module.html" target="_top" xlink:title="The PhysicsModule class gives the modules the ability to create histograms from events as well as fit...">
<polygon fill="white" stroke="black" points="182,-172 182,-206 306,-206 306,-172 182,-172"/>
<text text-anchor="start" x="190" y="-193" font-family="Helvetica,sans-Serif" font-size="10.00">ant::Calibration::Physics</text>
<text text-anchor="middle" x="244" y="-180" font-family="Helvetica,sans-Serif" font-size="10.00">Module</text>
</a>
</g>
<!-- Node3&#45;&gt;Node2 -->
<g id="edge4" class="edge"><title>Node3&#45;&gt;Node2</title>
<path fill="none" stroke="midnightblue" d="M313.189,-169.108C331.748,-163.773 351.097,-158.21 367.142,-153.597"/>
<polygon fill="midnightblue" stroke="midnightblue" points="312.222,-165.744 303.578,-171.871 314.156,-172.472 312.222,-165.744"/>
</g>
<!-- Node4 -->
<g id="node6" class="node"><title>Node4</title>
<a xlink:href="classant_1_1_calibration_1_1_base_module.html" target="_top" xlink:title="The BaseModule class provides a name for identification. ">
<polygon fill="white" stroke="black" points="0.5,-178.5 0.5,-199.5 143.5,-199.5 143.5,-178.5 0.5,-178.5"/>
<text text-anchor="middle" x="72" y="-186.5" font-family="Helvetica,sans-Serif" font-size="10.00">ant::Calibration::BaseModule</text>
</a>
</g>
<!-- Node4&#45;&gt;Node3 -->
<g id="edge6" class="edge"><title>Node4&#45;&gt;Node3</title>
<path fill="none" stroke="midnightblue" d="M154.063,-189C163.428,-189 172.856,-189 181.9,-189"/>
<polygon fill="midnightblue" stroke="midnightblue" points="153.947,-185.5 143.947,-189 153.947,-192.5 153.947,-185.5"/>
</g>
<!-- Node5 -->
<g id="node8" class="node"><title>Node5</title>
<a xlink:href="classant_1_1_updateable__traits.html" target="_top" xlink:title="The Updateable_traits class used by the UpdateableManager. ">
<polygon fill="white" stroke="black" points="187.5,-132.5 187.5,-153.5 300.5,-153.5 300.5,-132.5 187.5,-132.5"/>
<text text-anchor="middle" x="244" y="-140.5" font-family="Helvetica,sans-Serif" font-size="10.00">ant::Updateable_traits</text>
</a>
</g>
<!-- Node5&#45;&gt;Node2 -->
<g id="edge8" class="edge"><title>Node5&#45;&gt;Node2</title>
<path fill="none" stroke="midnightblue" d="M311.129,-143C321.971,-143 333.136,-143 343.801,-143"/>
<polygon fill="midnightblue" stroke="midnightblue" points="310.861,-139.5 300.861,-143 310.86,-146.5 310.861,-139.5"/>
</g>
<!-- Node6 -->
<g id="node10" class="node"><title>Node6</title>
<a xlink:href="classant_1_1_reconstruct_hook_1_1_detector_read_hits.html" target="_top" xlink:title="The DetectorReadHits class instances are applied before hit matching. ">
<polygon fill="white" stroke="black" points="347.5,-80 347.5,-114 460.5,-114 460.5,-80 347.5,-80"/>
<text text-anchor="start" x="355.5" y="-101" font-family="Helvetica,sans-Serif" font-size="10.00">ant::ReconstructHook</text>
<text text-anchor="middle" x="404" y="-88" font-family="Helvetica,sans-Serif" font-size="10.00">::DetectorReadHits</text>
</a>
</g>
<!-- Node6&#45;&gt;Node1 -->
<g id="edge10" class="edge"><title>Node6&#45;&gt;Node1</title>
<path fill="none" stroke="midnightblue" d="M470.7,-91.3368C500.046,-88.8452 534.072,-85.9561 561.818,-83.6004"/>
<polygon fill="midnightblue" stroke="midnightblue" points="470.202,-87.8664 460.534,-92.2 470.794,-94.8413 470.202,-87.8664"/>
</g>
<!-- Node7 -->
<g id="node12" class="node"><title>Node7</title>
<a xlink:href="classant_1_1_reconstruct_hook_1_1_base.html" target="_top" xlink:title="The Base class just defines some useful types. ">
<polygon fill="white" stroke="black" points="187.5,-80 187.5,-114 300.5,-114 300.5,-80 187.5,-80"/>
<text text-anchor="start" x="195.5" y="-101" font-family="Helvetica,sans-Serif" font-size="10.00">ant::ReconstructHook</text>
<text text-anchor="middle" x="244" y="-88" font-family="Helvetica,sans-Serif" font-size="10.00">::Base</text>
</a>
</g>
<!-- Node7&#45;&gt;Node6 -->
<g id="edge12" class="edge"><title>Node7&#45;&gt;Node6</title>
<path fill="none" stroke="midnightblue" d="M310.911,-97C323.02,-97 335.541,-97 347.323,-97"/>
<polygon fill="midnightblue" stroke="midnightblue" points="310.861,-93.5001 300.861,-97 310.86,-100.5 310.861,-93.5001"/>
</g>
<!-- Node8 -->
<g id="node14" class="node"><title>Node8</title>
<a xlink:href="classant_1_1interval.html" target="_top" xlink:title="ant::interval\&lt; double \&gt;">
<polygon fill="white" stroke="black" points="347,-40.5 347,-61.5 461,-61.5 461,-40.5 347,-40.5"/>
<text text-anchor="middle" x="404" y="-48.5" font-family="Helvetica,sans-Serif" font-size="10.00">ant::interval&lt; double &gt;</text>
</a>
</g>
<!-- Node8&#45;&gt;Node1 -->
<g id="edge14" class="edge"><title>Node8&#45;&gt;Node1</title>
<path fill="none" stroke="#9a32cd" stroke-dasharray="5,2" d="M471.267,-59.5082C494.334,-62.4632 520.303,-65.831 544,-69 549.754,-69.7695 555.765,-70.5853 561.754,-71.4059"/>
<polygon fill="#9a32cd" stroke="#9a32cd" points="471.597,-56.022 461.234,-58.2255 470.709,-62.9655 471.597,-56.022"/>
<text text-anchor="middle" x="513" y="-73" font-family="Helvetica,sans-Serif" font-size="10.00"> TimeWindow</text>
</g>
<!-- Node9 -->
<g id="node16" class="node"><title>Node9</title>
<a xlink:href="classant_1_1printable__traits.html" target="_top" xlink:title="ant::printable_traits">
<polygon fill="white" stroke="black" points="194,-40.5 194,-61.5 294,-61.5 294,-40.5 194,-40.5"/>
<text text-anchor="middle" x="244" y="-48.5" font-family="Helvetica,sans-Serif" font-size="10.00">ant::printable_traits</text>
</a>
</g>
<!-- Node9&#45;&gt;Node8 -->
<g id="edge16" class="edge"><title>Node9&#45;&gt;Node8</title>
<path fill="none" stroke="midnightblue" d="M304.57,-51C318.398,-51 333.051,-51 346.736,-51"/>
<polygon fill="midnightblue" stroke="midnightblue" points="304.186,-47.5001 294.186,-51 304.186,-54.5001 304.186,-47.5001"/>
</g>
<!-- Node10 -->
<g id="node18" class="node"><title>Node10</title>
<polygon fill="white" stroke="#bfbfbf" points="349,-0.5 349,-21.5 459,-21.5 459,-0.5 349,-0.5"/>
<text text-anchor="middle" x="404" y="-8.5" font-family="Helvetica,sans-Serif" font-size="10.00">std::vector&lt; double &gt;</text>
</g>
<!-- Node10&#45;&gt;Node1 -->
<g id="edge18" class="edge"><title>Node10&#45;&gt;Node1</title>
<path fill="none" stroke="#9a32cd" stroke-dasharray="5,2" d="M469.373,-14.2711C493.43,-17.0347 520.52,-22.0291 544,-31 567.015,-39.7933 590.091,-57.0194 603.704,-68.265"/>
<polygon fill="#9a32cd" stroke="#9a32cd" points="469.577,-10.7734 459.268,-13.2182 468.851,-17.7358 469.577,-10.7734"/>
<text text-anchor="middle" x="513" y="-48" font-family="Helvetica,sans-Serif" font-size="10.00"> Offsets</text>
<text text-anchor="middle" x="513" y="-35" font-family="Helvetica,sans-Serif" font-size="10.00">Gains</text>
</g>
</g>
</svg>
