<?xml version="1.0" encoding="UTF-8" standalone="no"?>
<!DOCTYPE svg PUBLIC "-//W3C//DTD SVG 1.1//EN"
 "http://www.w3.org/Graphics/SVG/1.1/DTD/svg11.dtd">
<!-- Generated by graphviz version 2.26.3 (20100126.1600)
 -->
<!-- Title: ant::analysis::Basic Pages: 1 -->
<svg width="838pt" height="154pt"
 viewBox="0.00 0.00 838.00 154.00" xmlns="http://www.w3.org/2000/svg" xmlns:xlink="http://www.w3.org/1999/xlink">
<g id="graph1" class="graph" transform="scale(1 1) rotate(0) translate(4 150)">
<title>ant::analysis::Basic</title>
<polygon fill="white" stroke="white" points="-4,5 -4,-150 835,-150 835,5 -4,5"/>
<!-- Node1 -->
<g id="node1" class="node"><title>Node1</title>
<polygon fill="#bfbfbf" stroke="black" points="726.5,-72.5 726.5,-93.5 829.5,-93.5 829.5,-72.5 726.5,-72.5"/>
<text text-anchor="middle" x="778" y="-80.5" font-family="Helvetica,sans-Serif" font-size="10.00">ant::analysis::Basic</text>
</g>
<!-- Node2 -->
<g id="node2" class="node"><title>Node2</title>
<a xlink:href="classant_1_1analysis_1_1_physics.html" target="_top" xlink:title="ant::analysis::Physics">
<polygon fill="white" stroke="black" points="493.5,-118.5 493.5,-139.5 606.5,-139.5 606.5,-118.5 493.5,-118.5"/>
<text text-anchor="middle" x="550" y="-126.5" font-family="Helvetica,sans-Serif" font-size="10.00">ant::analysis::Physics</text>
</a>
</g>
<!-- Node2&#45;&gt;Node1 -->
<g id="edge2" class="edge"><title>Node2&#45;&gt;Node1</title>
<path fill="none" stroke="midnightblue" d="M616.972,-117.574C645.15,-112.543 678.241,-106.339 708,-100 717.174,-98.0458 726.98,-95.7775 736.262,-93.5469"/>
<polygon fill="midnightblue" stroke="midnightblue" points="616.063,-114.181 606.828,-119.373 617.286,-121.073 616.063,-114.181"/>
</g>
<!-- Node3 -->
<g id="node4" class="node"><title>Node3</title>
<a xlink:href="classant_1_1analysis_1_1_smart_hist_factory.html" target="_top" xlink:title="ant::analysis::SmartHist\lFactory">
<polygon fill="white" stroke="black" points="288,-112 288,-146 410,-146 410,-112 288,-112"/>
<text text-anchor="start" x="296" y="-133" font-family="Helvetica,sans-Serif" font-size="10.00">ant::analysis::SmartHist</text>
<text text-anchor="middle" x="349" y="-120" font-family="Helvetica,sans-Serif" font-size="10.00">Factory</text>
</a>
</g>
<!-- Node3&#45;&gt;Node2 -->
<g id="edge4" class="edge"><title>Node3&#45;&gt;Node2</title>
<path fill="none" stroke="#9a32cd" stroke-dasharray="5,2" d="M420.228,-129C444.192,-129 470.587,-129 493.281,-129"/>
<polygon fill="#9a32cd" stroke="#9a32cd" points="420.125,-125.5 410.125,-129 420.125,-132.5 420.125,-125.5"/>
<text text-anchor="middle" x="453" y="-133" font-family="Helvetica,sans-Serif" font-size="10.00"> HistFac</text>
</g>
<!-- Node4 -->
<g id="node6" class="node"><title>Node4</title>
<polygon fill="white" stroke="#bfbfbf" points="491,-66 491,-100 609,-100 609,-66 491,-66"/>
<text text-anchor="start" x="499" y="-87" font-family="Helvetica,sans-Serif" font-size="10.00">std::map&lt; int, std</text>
<text text-anchor="middle" x="550" y="-74" font-family="Helvetica,sans-Serif" font-size="10.00">::map&lt; int, TH1D * &gt; &gt;</text>
</g>
<!-- Node4&#45;&gt;Node1 -->
<g id="edge6" class="edge"><title>Node4&#45;&gt;Node1</title>
<path fill="none" stroke="#9a32cd" stroke-dasharray="5,2" d="M619.013,-83C653.483,-83 694.487,-83 726.219,-83"/>
<polygon fill="#9a32cd" stroke="#9a32cd" points="619.012,-79.5001 609.012,-83 619.012,-86.5001 619.012,-79.5001"/>
<text text-anchor="middle" x="668" y="-87" font-family="Helvetica,sans-Serif" font-size="10.00"> nGammaImEvent</text>
</g>
<!-- Node5 -->
<g id="node8" class="node"><title>Node5</title>
<polygon fill="white" stroke="#bfbfbf" points="490.5,-0.5 490.5,-47.5 609.5,-47.5 609.5,-0.5 490.5,-0.5"/>
<text text-anchor="start" x="498.5" y="-34.5" font-family="Helvetica,sans-Serif" font-size="10.00">std::map&lt; const ant</text>
<text text-anchor="start" x="498.5" y="-21.5" font-family="Helvetica,sans-Serif" font-size="10.00">::ParticleTypeDatabase</text>
<text text-anchor="middle" x="550" y="-8.5" font-family="Helvetica,sans-Serif" font-size="10.00">::Type *, TH1D * &gt;</text>
</g>
<!-- Node5&#45;&gt;Node1 -->
<g id="edge8" class="edge"><title>Node5&#45;&gt;Node1</title>
<path fill="none" stroke="#9a32cd" stroke-dasharray="5,2" d="M619.733,-42.0449C658.278,-52.0192 704.816,-64.062 737.415,-72.4978"/>
<polygon fill="#9a32cd" stroke="#9a32cd" points="620.164,-38.5414 609.607,-39.4245 618.411,-45.3182 620.164,-38.5414"/>
<text text-anchor="middle" x="668" y="-67" font-family="Helvetica,sans-Serif" font-size="10.00"> numParticleType</text>
</g>
<!-- Node6 -->
<g id="node10" class="node"><title>Node6</title>
<a xlink:href="classant_1_1_particle_type_database_1_1_type.html" target="_top" xlink:title="ant::ParticleTypeDatabase\l::Type">
<polygon fill="white" stroke="black" points="282.5,-7 282.5,-41 415.5,-41 415.5,-7 282.5,-7"/>
<text text-anchor="start" x="290.5" y="-28" font-family="Helvetica,sans-Serif" font-size="10.00">ant::ParticleTypeDatabase</text>
<text text-anchor="middle" x="349" y="-15" font-family="Helvetica,sans-Serif" font-size="10.00">::Type</text>
</a>
</g>
<!-- Node6&#45;&gt;Node5 -->
<g id="edge10" class="edge"><title>Node6&#45;&gt;Node5</title>
<path fill="none" stroke="#9a32cd" stroke-dasharray="5,2" d="M425.689,-24C447.094,-24 470.029,-24 490.296,-24"/>
<polygon fill="#9a32cd" stroke="#9a32cd" points="425.651,-20.5001 415.651,-24 425.651,-27.5001 425.651,-20.5001"/>
<text text-anchor="middle" x="453" y="-28" font-family="Helvetica,sans-Serif" font-size="10.00"> keys</text>
</g>
<!-- Node6&#45;&gt;Node6 -->
<g id="edge16" class="edge"><title>Node6&#45;&gt;Node6</title>
<path fill="none" stroke="#9a32cd" stroke-dasharray="5,2" d="M330.889,-51.3176C333.432,-55.8645 339.469,-59 349,-59 364.641,-59 370.872,-50.5562 367.695,-41.2878"/>
<polygon fill="#9a32cd" stroke="#9a32cd" points="334.38,-51.0674 330.305,-41.2878 327.392,-51.4744 334.38,-51.0674"/>
<text text-anchor="middle" x="349" y="-63" font-family="Helvetica,sans-Serif" font-size="10.00"> sametype</text>
</g>
<!-- Node7 -->
<g id="node12" class="node"><title>Node7</title>
<a xlink:title="STL class. ">
<polygon fill="white" stroke="#bfbfbf" points="134,-13.5 134,-34.5 194,-34.5 194,-13.5 134,-13.5"/>
<text text-anchor="middle" x="164" y="-21.5" font-family="Helvetica,sans-Serif" font-size="10.00">std::string</text>
</a>
</g>
<!-- Node7&#45;&gt;Node6 -->
<g id="edge12" class="edge"><title>Node7&#45;&gt;Node6</title>
<path fill="none" stroke="#9a32cd" stroke-dasharray="5,2" d="M204.155,-24C227.009,-24 256.218,-24 282.412,-24"/>
<polygon fill="#9a32cd" stroke="#9a32cd" points="204.135,-20.5001 194.135,-24 204.135,-27.5001 204.135,-20.5001"/>
<text text-anchor="middle" x="238" y="-41" font-family="Helvetica,sans-Serif" font-size="10.00"> print_name</text>
<text text-anchor="middle" x="238" y="-28" font-family="Helvetica,sans-Serif" font-size="10.00">name</text>
</g>
<!-- Node8 -->
<g id="node14" class="node"><title>Node8</title>
<a xlink:title="STL class. ">
<polygon fill="white" stroke="#bfbfbf" points="0.5,-7 0.5,-41 95.5,-41 95.5,-7 0.5,-7"/>
<text text-anchor="start" x="8.5" y="-28" font-family="Helvetica,sans-Serif" font-size="10.00">std::basic_string&lt;</text>
<text text-anchor="middle" x="48" y="-15" font-family="Helvetica,sans-Serif" font-size="10.00"> char &gt;</text>
</a>
</g>
<!-- Node8&#45;&gt;Node7 -->
<g id="edge14" class="edge"><title>Node8&#45;&gt;Node7</title>
<path fill="none" stroke="midnightblue" d="M105.582,-24C115.29,-24 125.014,-24 133.666,-24"/>
<polygon fill="midnightblue" stroke="midnightblue" points="105.516,-20.5001 95.5163,-24 105.516,-27.5001 105.516,-20.5001"/>
</g>
</g>
</svg>
