<?xml version="1.0" encoding="UTF-8" standalone="no"?>
<!DOCTYPE svg PUBLIC "-//W3C//DTD SVG 1.1//EN"
 "http://www.w3.org/Graphics/SVG/1.1/DTD/svg11.dtd">
<!-- Generated by graphviz version 2.26.3 (20100126.1600)
 -->
<!-- Title: ant::analysis::SplitCheck Pages: 1 -->
<svg width="262pt" height="202pt"
 viewBox="0.00 0.00 262.00 202.00" xmlns="http://www.w3.org/2000/svg" xmlns:xlink="http://www.w3.org/1999/xlink">
<g id="graph1" class="graph" transform="scale(1 1) rotate(0) translate(4 198)">
<title>ant::analysis::SplitCheck</title>
<polygon fill="white" stroke="white" points="-4,5 -4,-198 259,-198 259,5 -4,5"/>
<!-- Node1 -->
<g id="node1" class="node"><title>Node1</title>
<polygon fill="#bfbfbf" stroke="black" points="78,-0.5 78,-21.5 204,-21.5 204,-0.5 78,-0.5"/>
<text text-anchor="middle" x="141" y="-8.5" font-family="Helvetica,sans-Serif" font-size="10.00">ant::analysis::SplitCheck</text>
</g>
<!-- Node2 -->
<g id="node2" class="node"><title>Node2</title>
<a xlink:href="classant_1_1analysis_1_1_physics.html" target="_top" xlink:title="ant::analysis::Physics">
<polygon fill="white" stroke="black" points="6.5,-79.5 6.5,-100.5 119.5,-100.5 119.5,-79.5 6.5,-79.5"/>
<text text-anchor="middle" x="63" y="-87.5" font-family="Helvetica,sans-Serif" font-size="10.00">ant::analysis::Physics</text>
</a>
</g>
<!-- Node2&#45;&gt;Node1 -->
<g id="edge2" class="edge"><title>Node2&#45;&gt;Node1</title>
<path fill="none" stroke="midnightblue" d="M80.8739,-71.8969C96.1725,-56.4022 117.683,-34.616 130.398,-21.7378"/>
<polygon fill="midnightblue" stroke="midnightblue" points="78.0547,-69.7706 73.5194,-79.3457 83.0359,-74.6888 78.0547,-69.7706"/>
</g>
<!-- Node3 -->
<g id="node4" class="node"><title>Node3</title>
<a xlink:href="classant_1_1analysis_1_1_smart_hist_factory.html" target="_top" xlink:title="ant::analysis::SmartHist\lFactory">
<polygon fill="white" stroke="black" points="0,-159 0,-193 122,-193 122,-159 0,-159"/>
<text text-anchor="start" x="8" y="-180" font-family="Helvetica,sans-Serif" font-size="10.00">ant::analysis::SmartHist</text>
<text text-anchor="middle" x="61" y="-167" font-family="Helvetica,sans-Serif" font-size="10.00">Factory</text>
</a>
</g>
<!-- Node3&#45;&gt;Node2 -->
<g id="edge4" class="edge"><title>Node3&#45;&gt;Node2</title>
<path fill="none" stroke="#9a32cd" stroke-dasharray="5,2" d="M61.6381,-148.56C62.0148,-132.365 62.4706,-112.766 62.7477,-100.848"/>
<polygon fill="#9a32cd" stroke="#9a32cd" points="58.1383,-148.518 61.4047,-158.597 65.1364,-148.681 58.1383,-148.518"/>
<text text-anchor="middle" x="82" y="-130.5" font-family="Helvetica,sans-Serif" font-size="10.00"> HistFac</text>
</g>
<!-- Node4 -->
<g id="node6" class="node"><title>Node4</title>
<polygon fill="white" stroke="#bfbfbf" points="140,-73 140,-107 250,-107 250,-73 140,-73"/>
<text text-anchor="start" x="148" y="-94" font-family="Helvetica,sans-Serif" font-size="10.00">std::map&lt; int, std</text>
<text text-anchor="middle" x="195" y="-81" font-family="Helvetica,sans-Serif" font-size="10.00">::vector&lt; TH1D * &gt; &gt;</text>
</g>
<!-- Node4&#45;&gt;Node1 -->
<g id="edge6" class="edge"><title>Node4&#45;&gt;Node1</title>
<path fill="none" stroke="#9a32cd" stroke-dasharray="5,2" d="M177.417,-64.2764C167.502,-49.772 155.651,-32.4344 148.223,-21.5672"/>
<polygon fill="#9a32cd" stroke="#9a32cd" points="174.75,-66.5776 183.283,-72.8582 180.529,-62.6274 174.75,-66.5776"/>
<text text-anchor="middle" x="199" y="-44.5" font-family="Helvetica,sans-Serif" font-size="10.00"> gamma_rank</text>
</g>
<!-- Node5 -->
<g id="node8" class="node"><title>Node5</title>
<polygon fill="white" stroke="#bfbfbf" points="140,-165.5 140,-186.5 254,-186.5 254,-165.5 140,-165.5"/>
<text text-anchor="middle" x="197" y="-173.5" font-family="Helvetica,sans-Serif" font-size="10.00">std::vector&lt; TH1D * &gt;</text>
</g>
<!-- Node5&#45;&gt;Node4 -->
<g id="edge8" class="edge"><title>Node5&#45;&gt;Node4</title>
<path fill="none" stroke="#9a32cd" stroke-dasharray="5,2" d="M196.519,-155.31C196.176,-140.585 195.722,-121.033 195.399,-107.171"/>
<polygon fill="#9a32cd" stroke="#9a32cd" points="193.023,-155.539 196.755,-165.455 200.021,-155.376 193.023,-155.539"/>
<text text-anchor="middle" x="217.5" y="-130.5" font-family="Helvetica,sans-Serif" font-size="10.00"> elements</text>
</g>
</g>
</svg>
