<?xml version="1.0" encoding="UTF-8" standalone="no"?>
<!DOCTYPE svg PUBLIC "-//W3C//DTD SVG 1.1//EN"
 "http://www.w3.org/Graphics/SVG/1.1/DTD/svg11.dtd">
<!-- Generated by graphviz version 2.26.3 (20100126.1600)
 -->
<!-- Title: ant::padoption Pages: 1 -->
<svg width="199pt" height="174pt"
 viewBox="0.00 0.00 199.00 174.00" xmlns="http://www.w3.org/2000/svg" xmlns:xlink="http://www.w3.org/1999/xlink">
<g id="graph1" class="graph" transform="scale(1 1) rotate(0) translate(4 170)">
<title>ant::padoption</title>
<polygon fill="white" stroke="white" points="-4,5 -4,-170 196,-170 196,5 -4,5"/>
<!-- Node1 -->
<g id="node1" class="node"><title>Node1</title>
<polygon fill="#bfbfbf" stroke="black" points="29,-0.5 29,-21.5 107,-21.5 107,-0.5 29,-0.5"/>
<text text-anchor="middle" x="68" y="-8.5" font-family="Helvetica,sans-Serif" font-size="10.00">ant::padoption</text>
</g>
<!-- Node2 -->
<g id="node2" class="node"><title>Node2</title>
<a xlink:href="classant_1_1modifier.html" target="_top" xlink:title="ant::modifier">
<polygon fill="white" stroke="black" points="-0.5,-72.5 -0.5,-93.5 70.5,-93.5 70.5,-72.5 -0.5,-72.5"/>
<text text-anchor="middle" x="35" y="-80.5" font-family="Helvetica,sans-Serif" font-size="10.00">ant::modifier</text>
</a>
</g>
<!-- Node2&#45;&gt;Node1 -->
<g id="edge2" class="edge"><title>Node2&#45;&gt;Node1</title>
<path fill="none" stroke="midnightblue" d="M44.1545,-63.0266C50.2912,-49.6374 58.1312,-32.5318 63.1108,-21.6674"/>
<polygon fill="midnightblue" stroke="midnightblue" points="40.8541,-61.8272 39.8693,-72.3762 47.2176,-64.7438 40.8541,-61.8272"/>
</g>
<!-- Node3 -->
<g id="node4" class="node"><title>Node3</title>
<a xlink:title="STL class. ">
<polygon fill="white" stroke="#bfbfbf" points="88,-72.5 88,-93.5 180,-93.5 180,-72.5 88,-72.5"/>
<text text-anchor="middle" x="134" y="-80.5" font-family="Helvetica,sans-Serif" font-size="10.00">std::map&lt; K, T &gt;</text>
</a>
</g>
<!-- Node3&#45;&gt;Node1 -->
<g id="edge4" class="edge"><title>Node3&#45;&gt;Node1</title>
<path fill="none" stroke="#9a32cd" stroke-dasharray="5,2" d="M117.47,-64.9677C104.969,-51.3294 88.2257,-33.0644 77.7785,-21.6674"/>
<polygon fill="#9a32cd" stroke="#9a32cd" points="114.924,-67.3696 124.261,-72.3762 120.084,-62.6395 114.924,-67.3696"/>
<text text-anchor="middle" x="135.5" y="-44.5" font-family="Helvetica,sans-Serif" font-size="10.00"> map_options</text>
</g>
<!-- Node4 -->
<g id="node6" class="node"><title>Node4</title>
<polygon fill="white" stroke="#bfbfbf" points="95.5,-144.5 95.5,-165.5 124.5,-165.5 124.5,-144.5 95.5,-144.5"/>
<text text-anchor="middle" x="110" y="-152.5" font-family="Helvetica,sans-Serif" font-size="10.00">K</text>
</g>
<!-- Node4&#45;&gt;Node3 -->
<g id="edge6" class="edge"><title>Node4&#45;&gt;Node3</title>
<path fill="none" stroke="#9a32cd" stroke-dasharray="5,2" d="M107.832,-134.296C107.759,-127.057 108.471,-118.995 111,-112 113.49,-105.111 118.324,-98.6064 122.92,-93.5104"/>
<polygon fill="#9a32cd" stroke="#9a32cd" points="104.345,-134.624 108.414,-144.406 111.334,-134.222 104.345,-134.624"/>
<text text-anchor="middle" x="123.5" y="-116.5" font-family="Helvetica,sans-Serif" font-size="10.00"> keys</text>
</g>
<!-- Node5 -->
<g id="node8" class="node"><title>Node5</title>
<polygon fill="white" stroke="#bfbfbf" points="143.5,-144.5 143.5,-165.5 172.5,-165.5 172.5,-144.5 143.5,-144.5"/>
<text text-anchor="middle" x="158" y="-152.5" font-family="Helvetica,sans-Serif" font-size="10.00">T</text>
</g>
<!-- Node5&#45;&gt;Node3 -->
<g id="edge8" class="edge"><title>Node5&#45;&gt;Node3</title>
<path fill="none" stroke="#9a32cd" stroke-dasharray="5,2" d="M151.211,-134.632C146.768,-121.303 141.142,-104.425 137.556,-93.6674"/>
<polygon fill="#9a32cd" stroke="#9a32cd" points="147.976,-135.996 154.459,-144.376 154.617,-133.782 147.976,-135.996"/>
<text text-anchor="middle" x="169.5" y="-116.5" font-family="Helvetica,sans-Serif" font-size="10.00"> elements</text>
</g>
</g>
</svg>
