<?xml version="1.0" encoding="UTF-8" standalone="no"?>
<!DOCTYPE svg PUBLIC "-//W3C//DTD SVG 1.1//EN"
 "http://www.w3.org/Graphics/SVG/1.1/DTD/svg11.dtd">
<!-- Generated by graphviz version 2.26.3 (20100126.1600)
 -->
<!-- Title: ant::calibration::gui::AvgBuffer&lt; HistType, IDType &gt; Pages: 1 -->
<svg width="412pt" height="226pt"
 viewBox="0.00 0.00 412.00 226.00" xmlns="http://www.w3.org/2000/svg" xmlns:xlink="http://www.w3.org/1999/xlink">
<g id="graph1" class="graph" transform="scale(1 1) rotate(0) translate(4 222)">
<title>ant::calibration::gui::AvgBuffer&lt; HistType, IDType &gt;</title>
<polygon fill="white" stroke="white" points="-4,5 -4,-222 409,-222 409,5 -4,5"/>
<!-- Node1 -->
<g id="node1" class="node"><title>Node1</title>
<polygon fill="#bfbfbf" stroke="black" points="130,-0.5 130,-47.5 248,-47.5 248,-0.5 130,-0.5"/>
<text text-anchor="start" x="138" y="-34.5" font-family="Helvetica,sans-Serif" font-size="10.00">ant::calibration::gui</text>
<text text-anchor="start" x="138" y="-21.5" font-family="Helvetica,sans-Serif" font-size="10.00">::AvgBuffer&lt; HistType,</text>
<text text-anchor="middle" x="189" y="-8.5" font-family="Helvetica,sans-Serif" font-size="10.00"> IDType &gt;</text>
</g>
<!-- Node2 -->
<g id="node2" class="node"><title>Node2</title>
<polygon fill="white" stroke="#bfbfbf" points="-0.5,-98.5 -0.5,-119.5 112.5,-119.5 112.5,-98.5 -0.5,-98.5"/>
<text text-anchor="middle" x="56" y="-106.5" font-family="Helvetica,sans-Serif" font-size="10.00">std::queue&lt; IDType &gt;</text>
</g>
<!-- Node2&#45;&gt;Node1 -->
<g id="edge2" class="edge"><title>Node2&#45;&gt;Node1</title>
<path fill="none" stroke="#9a32cd" stroke-dasharray="5,2" d="M81.1395,-92.9334C101.158,-80.1395 129.471,-62.0451 152.065,-47.6049"/>
<polygon fill="#9a32cd" stroke="#9a32cd" points="79.117,-90.0722 72.5756,-98.4066 82.8866,-95.9705 79.117,-90.0722"/>
<text text-anchor="middle" x="141.5" y="-70.5" font-family="Helvetica,sans-Serif" font-size="10.00"> worklist</text>
</g>
<!-- Node3 -->
<g id="node4" class="node"><title>Node3</title>
<polygon fill="white" stroke="#bfbfbf" points="129.5,-98.5 129.5,-119.5 248.5,-119.5 248.5,-98.5 129.5,-98.5"/>
<text text-anchor="middle" x="189" y="-106.5" font-family="Helvetica,sans-Serif" font-size="10.00">std::list&lt; buffer_entry &gt;</text>
</g>
<!-- Node3&#45;&gt;Node1 -->
<g id="edge4" class="edge"><title>Node3&#45;&gt;Node1</title>
<path fill="none" stroke="#9a32cd" stroke-dasharray="5,2" d="M189,-88.0451C189,-75.7588 189,-60.2066 189,-47.5045"/>
<polygon fill="#9a32cd" stroke="#9a32cd" points="185.5,-88.2347 189,-98.2347 192.5,-88.2347 185.5,-88.2347"/>
<text text-anchor="middle" x="210" y="-70.5" font-family="Helvetica,sans-Serif" font-size="10.00"> m_buffer</text>
</g>
<!-- Node4 -->
<g id="node6" class="node"><title>Node4</title>
<a xlink:href="structant_1_1calibration_1_1gui_1_1_avg_buffer_1_1buffer__entry.html" target="_top" xlink:title="ant::calibration::gui\l::AvgBuffer\&lt; HistType,\l IDType \&gt;::buffer_entry">
<polygon fill="white" stroke="black" points="129.5,-170.5 129.5,-217.5 248.5,-217.5 248.5,-170.5 129.5,-170.5"/>
<text text-anchor="start" x="137.5" y="-204.5" font-family="Helvetica,sans-Serif" font-size="10.00">ant::calibration::gui</text>
<text text-anchor="start" x="137.5" y="-191.5" font-family="Helvetica,sans-Serif" font-size="10.00">::AvgBuffer&lt; HistType,</text>
<text text-anchor="middle" x="189" y="-178.5" font-family="Helvetica,sans-Serif" font-size="10.00"> IDType &gt;::buffer_entry</text>
</a>
</g>
<!-- Node4&#45;&gt;Node3 -->
<g id="edge6" class="edge"><title>Node4&#45;&gt;Node3</title>
<path fill="none" stroke="#9a32cd" stroke-dasharray="5,2" d="M189,-160.208C189,-145.844 189,-130.093 189,-119.906"/>
<polygon fill="#9a32cd" stroke="#9a32cd" points="185.5,-160.323 189,-170.323 192.5,-160.323 185.5,-160.323"/>
<text text-anchor="middle" x="210.5" y="-142.5" font-family="Helvetica,sans-Serif" font-size="10.00"> elements</text>
</g>
<!-- Node5 -->
<g id="node8" class="node"><title>Node5</title>
<polygon fill="white" stroke="#bfbfbf" points="265.5,-98.5 265.5,-119.5 404.5,-119.5 404.5,-98.5 265.5,-98.5"/>
<text text-anchor="middle" x="335" y="-106.5" font-family="Helvetica,sans-Serif" font-size="10.00">std::unique_ptr&lt; HistType &gt;</text>
</g>
<!-- Node5&#45;&gt;Node1 -->
<g id="edge8" class="edge"><title>Node5&#45;&gt;Node1</title>
<path fill="none" stroke="#9a32cd" stroke-dasharray="5,2" d="M307.995,-93.2779C285.988,-80.4658 254.572,-62.1752 229.545,-47.6049"/>
<polygon fill="#9a32cd" stroke="#9a32cd" points="306.401,-96.3999 316.804,-98.4066 309.923,-90.3504 306.401,-96.3999"/>
<text text-anchor="middle" x="317.5" y="-70.5" font-family="Helvetica,sans-Serif" font-size="10.00"> m_movingsum</text>
</g>
</g>
</svg>
