<?xml version="1.0" encoding="UTF-8" standalone="no"?>
<!DOCTYPE svg PUBLIC "-//W3C//DTD SVG 1.1//EN"
 "http://www.w3.org/Graphics/SVG/1.1/DTD/svg11.dtd">
<!-- Generated by graphviz version 2.26.3 (20100126.1600)
 -->
<!-- Title: ant::calibration::gui::ManagerWindow Pages: 1 -->
<svg width="540pt" height="134pt"
 viewBox="0.00 0.00 540.00 134.00" xmlns="http://www.w3.org/2000/svg" xmlns:xlink="http://www.w3.org/1999/xlink">
<g id="graph1" class="graph" transform="scale(1 1) rotate(0) translate(4 130)">
<title>ant::calibration::gui::ManagerWindow</title>
<polygon fill="white" stroke="white" points="-4,5 -4,-130 537,-130 537,5 -4,5"/>
<!-- Node1 -->
<g id="node1" class="node"><title>Node1</title>
<polygon fill="#bfbfbf" stroke="black" points="432.5,-52 432.5,-86 531.5,-86 531.5,-52 432.5,-52"/>
<text text-anchor="start" x="440.5" y="-73" font-family="Helvetica,sans-Serif" font-size="10.00">ant::calibration::gui</text>
<text text-anchor="middle" x="482" y="-60" font-family="Helvetica,sans-Serif" font-size="10.00">::ManagerWindow</text>
</g>
<!-- Node2 -->
<g id="node2" class="node"><title>Node2</title>
<polygon fill="white" stroke="#bfbfbf" points="267.5,-104.5 267.5,-125.5 346.5,-125.5 346.5,-104.5 267.5,-104.5"/>
<text text-anchor="middle" x="307" y="-112.5" font-family="Helvetica,sans-Serif" font-size="10.00">TGMainFrame</text>
</g>
<!-- Node2&#45;&gt;Node1 -->
<g id="edge2" class="edge"><title>Node2&#45;&gt;Node1</title>
<path fill="none" stroke="midnightblue" d="M356.577,-101.968C380.321,-95.7269 408.686,-88.2712 432.43,-82.0299"/>
<polygon fill="midnightblue" stroke="midnightblue" points="355.492,-98.6346 346.71,-104.562 357.271,-105.405 355.492,-98.6346"/>
</g>
<!-- Node3 -->
<g id="node4" class="node"><title>Node3</title>
<a xlink:href="classant_1_1calibration_1_1gui_1_1_manager_window__traits.html" target="_top" xlink:title="ant::calibration::gui\l::ManagerWindow_traits">
<polygon fill="white" stroke="black" points="246,-52 246,-86 368,-86 368,-52 246,-52"/>
<text text-anchor="start" x="254" y="-73" font-family="Helvetica,sans-Serif" font-size="10.00">ant::calibration::gui</text>
<text text-anchor="middle" x="307" y="-60" font-family="Helvetica,sans-Serif" font-size="10.00">::ManagerWindow_traits</text>
</a>
</g>
<!-- Node3&#45;&gt;Node1 -->
<g id="edge4" class="edge"><title>Node3&#45;&gt;Node1</title>
<path fill="none" stroke="midnightblue" d="M378.442,-69C396.555,-69 415.618,-69 432.382,-69"/>
<polygon fill="midnightblue" stroke="midnightblue" points="378.207,-65.5001 368.207,-69 378.206,-72.5001 378.207,-65.5001"/>
</g>
<!-- Node4 -->
<g id="node6" class="node"><title>Node4</title>
<a xlink:href="structant_1_1calibration_1_1gui_1_1_manager_window_mode.html" target="_top" xlink:title="ant::calibration::gui\l::ManagerWindowMode">
<polygon fill="white" stroke="black" points="247.5,-0 247.5,-34 366.5,-34 366.5,-0 247.5,-0"/>
<text text-anchor="start" x="255.5" y="-21" font-family="Helvetica,sans-Serif" font-size="10.00">ant::calibration::gui</text>
<text text-anchor="middle" x="307" y="-8" font-family="Helvetica,sans-Serif" font-size="10.00">::ManagerWindowMode</text>
</a>
</g>
<!-- Node4&#45;&gt;Node1 -->
<g id="edge6" class="edge"><title>Node4&#45;&gt;Node1</title>
<path fill="none" stroke="#9a32cd" stroke-dasharray="5,2" d="M373.971,-36.9001C393.329,-42.6519 414.106,-48.8259 432.218,-54.2076"/>
<polygon fill="#9a32cd" stroke="#9a32cd" points="374.884,-33.5201 364.302,-34.0267 372.89,-40.2302 374.884,-33.5201"/>
<text text-anchor="middle" x="400" y="-51" font-family="Helvetica,sans-Serif" font-size="10.00"> Mode</text>
</g>
<!-- Node5 -->
<g id="node8" class="node"><title>Node5</title>
<a xlink:href="structant_1_1calibration_1_1gui_1_1_manager__traits_1_1_do_fit_options__t.html" target="_top" xlink:title="ant::calibration::gui\l::Manager_traits::DoFitOptions_t">
<polygon fill="white" stroke="black" points="0.5,-0 0.5,-34 159.5,-34 159.5,-0 0.5,-0"/>
<text text-anchor="start" x="8.5" y="-21" font-family="Helvetica,sans-Serif" font-size="10.00">ant::calibration::gui</text>
<text text-anchor="middle" x="80" y="-8" font-family="Helvetica,sans-Serif" font-size="10.00">::Manager_traits::DoFitOptions_t</text>
</a>
</g>
<!-- Node5&#45;&gt;Node4 -->
<g id="edge8" class="edge"><title>Node5&#45;&gt;Node4</title>
<path fill="none" stroke="#9a32cd" stroke-dasharray="5,2" d="M169.981,-17C196.031,-17 223.809,-17 247.496,-17"/>
<polygon fill="#9a32cd" stroke="#9a32cd" points="169.713,-13.5001 159.713,-17 169.712,-20.5001 169.713,-13.5001"/>
<text text-anchor="middle" x="203" y="-21" font-family="Helvetica,sans-Serif" font-size="10.00"> FitOptions</text>
</g>
</g>
</svg>
