<?xml version="1.0" encoding="UTF-8" standalone="no"?>
<!DOCTYPE svg PUBLIC "-//W3C//DTD SVG 1.1//EN"
 "http://www.w3.org/Graphics/SVG/1.1/DTD/svg11.dtd">
<!-- Generated by graphviz version 2.26.3 (20100126.1600)
 -->
<!-- Title: ant::analysis::utils::ParticleID Pages: 1 -->
<svg width="252pt" height="116pt"
 viewBox="0.00 0.00 252.00 116.00" xmlns="http://www.w3.org/2000/svg" xmlns:xlink="http://www.w3.org/1999/xlink">
<g id="graph1" class="graph" transform="scale(1 1) rotate(0) translate(4 112)">
<title>ant::analysis::utils::ParticleID</title>
<polygon fill="white" stroke="white" points="-4,5 -4,-112 249,-112 249,5 -4,5"/>
<!-- Node1 -->
<g id="node1" class="node"><title>Node1</title>
<polygon fill="#bfbfbf" stroke="black" points="65,-73 65,-107 161,-107 161,-73 65,-73"/>
<text text-anchor="start" x="73" y="-94" font-family="Helvetica,sans-Serif" font-size="10.00">ant::analysis::utils</text>
<text text-anchor="middle" x="113" y="-81" font-family="Helvetica,sans-Serif" font-size="10.00">::ParticleID</text>
</g>
<!-- Node2 -->
<g id="node3" class="node"><title>Node2</title>
<a xlink:href="classant_1_1analysis_1_1utils_1_1_basic_particle_i_d.html" target="_top" xlink:title="ant::analysis::utils\l::BasicParticleID">
<polygon fill="white" stroke="black" points="0,-1 0,-35 96,-35 96,-1 0,-1"/>
<text text-anchor="start" x="8" y="-22" font-family="Helvetica,sans-Serif" font-size="10.00">ant::analysis::utils</text>
<text text-anchor="middle" x="48" y="-9" font-family="Helvetica,sans-Serif" font-size="10.00">::BasicParticleID</text>
</a>
</g>
<!-- Node1&#45;&gt;Node2 -->
<g id="edge2" class="edge"><title>Node1&#45;&gt;Node2</title>
<path fill="none" stroke="midnightblue" d="M90.7723,-65.3785C81.8857,-55.5349 71.8569,-44.4262 63.7451,-35.4407"/>
<polygon fill="midnightblue" stroke="midnightblue" points="88.2969,-67.8597 97.5959,-72.937 93.4928,-63.1689 88.2969,-67.8597"/>
</g>
<!-- Node3 -->
<g id="node5" class="node"><title>Node3</title>
<a xlink:href="classant_1_1analysis_1_1utils_1_1_c_b_t_a_p_s_basic_particle_i_d.html" target="_top" xlink:title="ant::analysis::utils\l::CBTAPSBasicParticleID">
<polygon fill="white" stroke="black" points="113.5,-1 113.5,-35 244.5,-35 244.5,-1 113.5,-1"/>
<text text-anchor="start" x="121.5" y="-22" font-family="Helvetica,sans-Serif" font-size="10.00">ant::analysis::utils</text>
<text text-anchor="middle" x="179" y="-9" font-family="Helvetica,sans-Serif" font-size="10.00">::CBTAPSBasicParticleID</text>
</a>
</g>
<!-- Node1&#45;&gt;Node3 -->
<g id="edge4" class="edge"><title>Node1&#45;&gt;Node3</title>
<path fill="none" stroke="midnightblue" d="M135.57,-65.3785C144.593,-55.5349 154.776,-44.4262 163.013,-35.4407"/>
<polygon fill="midnightblue" stroke="midnightblue" points="132.818,-63.2004 128.641,-72.937 137.978,-67.9305 132.818,-63.2004"/>
</g>
</g>
</svg>
