<?xml version="1.0" encoding="UTF-8" standalone="no"?>
<!DOCTYPE svg PUBLIC "-//W3C//DTD SVG 1.1//EN"
 "http://www.w3.org/Graphics/SVG/1.1/DTD/svg11.dtd">
<!-- Generated by graphviz version 2.26.3 (20100126.1600)
 -->
<!-- Title: ant::calibration::Energy Pages: 1 -->
<svg width="792pt" height="198pt"
 viewBox="0.00 0.00 792.00 198.00" xmlns="http://www.w3.org/2000/svg" xmlns:xlink="http://www.w3.org/1999/xlink">
<g id="graph1" class="graph" transform="scale(1 1) rotate(0) translate(4 194)">
<title>ant::calibration::Energy</title>
<polygon fill="white" stroke="white" points="-4,5 -4,-194 789,-194 789,5 -4,5"/>
<!-- Node1 -->
<g id="node1" class="node"><title>Node1</title>
<polygon fill="#bfbfbf" stroke="black" points="496.5,-84.5 496.5,-105.5 613.5,-105.5 613.5,-84.5 496.5,-84.5"/>
<text text-anchor="middle" x="555" y="-92.5" font-family="Helvetica,sans-Serif" font-size="10.00">ant::calibration::Energy</text>
</g>
<!-- Node8 -->
<g id="node15" class="node"><title>Node8</title>
<a xlink:href="classant_1_1calibration_1_1_c_b___energy.html" target="_top" xlink:title="ant::calibration::CB\l_Energy">
<polygon fill="white" stroke="black" points="666.5,-156 666.5,-190 767.5,-190 767.5,-156 666.5,-156"/>
<text text-anchor="start" x="674.5" y="-177" font-family="Helvetica,sans-Serif" font-size="10.00">ant::calibration::CB</text>
<text text-anchor="middle" x="717" y="-164" font-family="Helvetica,sans-Serif" font-size="10.00">_Energy</text>
</a>
</g>
<!-- Node1&#45;&gt;Node8 -->
<g id="edge14" class="edge"><title>Node1&#45;&gt;Node8</title>
<path fill="none" stroke="midnightblue" d="M581.712,-110.845C600.488,-121.677 626.375,-136.008 650,-147 656.561,-150.053 663.589,-153.057 670.534,-155.878"/>
<polygon fill="midnightblue" stroke="midnightblue" points="583.252,-107.692 572.849,-105.687 579.731,-113.742 583.252,-107.692"/>
</g>
<!-- Node9 -->
<g id="node17" class="node"><title>Node9</title>
<a xlink:href="classant_1_1calibration_1_1_p_i_d___energy.html" target="_top" xlink:title="ant::calibration::PID\l_Energy">
<polygon fill="white" stroke="black" points="665,-104 665,-138 769,-138 769,-104 665,-104"/>
<text text-anchor="start" x="673" y="-125" font-family="Helvetica,sans-Serif" font-size="10.00">ant::calibration::PID</text>
<text text-anchor="middle" x="717" y="-112" font-family="Helvetica,sans-Serif" font-size="10.00">_Energy</text>
</a>
</g>
<!-- Node1&#45;&gt;Node9 -->
<g id="edge16" class="edge"><title>Node1&#45;&gt;Node9</title>
<path fill="none" stroke="midnightblue" d="M623.828,-106.047C637.551,-108.249 651.75,-110.528 664.802,-112.622"/>
<polygon fill="midnightblue" stroke="midnightblue" points="624.372,-102.589 613.944,-104.46 623.263,-109.501 624.372,-102.589"/>
</g>
<!-- Node10 -->
<g id="node19" class="node"><title>Node10</title>
<a xlink:href="classant_1_1calibration_1_1_t_a_p_s___energy.html" target="_top" xlink:title="ant::calibration::TAPS\l_Energy">
<polygon fill="white" stroke="black" points="660.5,-52 660.5,-86 773.5,-86 773.5,-52 660.5,-52"/>
<text text-anchor="start" x="668.5" y="-73" font-family="Helvetica,sans-Serif" font-size="10.00">ant::calibration::TAPS</text>
<text text-anchor="middle" x="717" y="-60" font-family="Helvetica,sans-Serif" font-size="10.00">_Energy</text>
</a>
</g>
<!-- Node1&#45;&gt;Node10 -->
<g id="edge18" class="edge"><title>Node1&#45;&gt;Node10</title>
<path fill="none" stroke="midnightblue" d="M623.993,-83.927C636.088,-81.9858 648.549,-79.986 660.263,-78.1059"/>
<polygon fill="midnightblue" stroke="midnightblue" points="623.263,-80.4993 613.944,-85.5399 624.372,-87.4109 623.263,-80.4993"/>
</g>
<!-- Node11 -->
<g id="node21" class="node"><title>Node11</title>
<a xlink:href="classant_1_1calibration_1_1_t_a_p_s_veto___energy.html" target="_top" xlink:title="ant::calibration::TAPSVeto\l_Energy">
<polygon fill="white" stroke="black" points="650.5,-0 650.5,-34 783.5,-34 783.5,-0 650.5,-0"/>
<text text-anchor="start" x="658.5" y="-21" font-family="Helvetica,sans-Serif" font-size="10.00">ant::calibration::TAPSVeto</text>
<text text-anchor="middle" x="717" y="-8" font-family="Helvetica,sans-Serif" font-size="10.00">_Energy</text>
</a>
</g>
<!-- Node1&#45;&gt;Node11 -->
<g id="edge20" class="edge"><title>Node1&#45;&gt;Node11</title>
<path fill="none" stroke="midnightblue" d="M581.712,-79.1551C600.488,-68.3226 626.375,-53.9925 650,-43 656.561,-39.9471 663.589,-36.943 670.534,-34.1222"/>
<polygon fill="midnightblue" stroke="midnightblue" points="579.731,-76.258 572.849,-84.3132 583.252,-82.308 579.731,-76.258"/>
</g>
<!-- Node2 -->
<g id="node2" class="node"><title>Node2</title>
<a xlink:href="classant_1_1_calibration_1_1_module.html" target="_top" xlink:title="The Module class is typically used for calibrations. ">
<polygon fill="white" stroke="black" points="340,-107.5 340,-128.5 460,-128.5 460,-107.5 340,-107.5"/>
<text text-anchor="middle" x="400" y="-115.5" font-family="Helvetica,sans-Serif" font-size="10.00">ant::Calibration::Module</text>
</a>
</g>
<!-- Node2&#45;&gt;Node1 -->
<g id="edge2" class="edge"><title>Node2&#45;&gt;Node1</title>
<path fill="none" stroke="midnightblue" d="M470.447,-107.547C479.098,-106.263 487.868,-104.962 496.32,-103.707"/>
<polygon fill="midnightblue" stroke="midnightblue" points="469.749,-104.112 460.371,-109.042 470.776,-111.036 469.749,-104.112"/>
</g>
<!-- Node3 -->
<g id="node4" class="node"><title>Node3</title>
<a xlink:href="classant_1_1_calibration_1_1_physics_module.html" target="_top" xlink:title="The PhysicsModule class gives the modules the ability to create histograms from events as well as fit...">
<polygon fill="white" stroke="black" points="180,-147 180,-181 304,-181 304,-147 180,-147"/>
<text text-anchor="start" x="188" y="-168" font-family="Helvetica,sans-Serif" font-size="10.00">ant::Calibration::Physics</text>
<text text-anchor="middle" x="242" y="-155" font-family="Helvetica,sans-Serif" font-size="10.00">Module</text>
</a>
</g>
<!-- Node3&#45;&gt;Node2 -->
<g id="edge4" class="edge"><title>Node3&#45;&gt;Node2</title>
<path fill="none" stroke="midnightblue" d="M310.577,-144.035C328.826,-138.722 347.831,-133.189 363.603,-128.597"/>
<polygon fill="midnightblue" stroke="midnightblue" points="309.456,-140.715 300.833,-146.871 311.413,-147.436 309.456,-140.715"/>
</g>
<!-- Node4 -->
<g id="node6" class="node"><title>Node4</title>
<a xlink:href="classant_1_1_calibration_1_1_base_module.html" target="_top" xlink:title="The BaseModule class provides a name for identification. ">
<polygon fill="white" stroke="black" points="0.5,-153.5 0.5,-174.5 143.5,-174.5 143.5,-153.5 0.5,-153.5"/>
<text text-anchor="middle" x="72" y="-161.5" font-family="Helvetica,sans-Serif" font-size="10.00">ant::Calibration::BaseModule</text>
</a>
</g>
<!-- Node4&#45;&gt;Node3 -->
<g id="edge6" class="edge"><title>Node4&#45;&gt;Node3</title>
<path fill="none" stroke="midnightblue" d="M153.851,-164C162.617,-164 171.429,-164 179.911,-164"/>
<polygon fill="midnightblue" stroke="midnightblue" points="153.603,-160.5 143.603,-164 153.603,-167.5 153.603,-160.5"/>
</g>
<!-- Node5 -->
<g id="node8" class="node"><title>Node5</title>
<a xlink:href="classant_1_1_updateable__traits.html" target="_top" xlink:title="The Updateable_traits class used by the UpdateableManager. ">
<polygon fill="white" stroke="black" points="185.5,-107.5 185.5,-128.5 298.5,-128.5 298.5,-107.5 185.5,-107.5"/>
<text text-anchor="middle" x="242" y="-115.5" font-family="Helvetica,sans-Serif" font-size="10.00">ant::Updateable_traits</text>
</a>
</g>
<!-- Node5&#45;&gt;Node2 -->
<g id="edge8" class="edge"><title>Node5&#45;&gt;Node2</title>
<path fill="none" stroke="midnightblue" d="M308.772,-118C319.069,-118 329.651,-118 339.794,-118"/>
<polygon fill="midnightblue" stroke="midnightblue" points="308.595,-114.5 298.595,-118 308.595,-121.5 308.595,-114.5"/>
</g>
<!-- Node6 -->
<g id="node10" class="node"><title>Node6</title>
<a xlink:href="classant_1_1_reconstruct_hook_1_1_detector_read_hits.html" target="_top" xlink:title="The DetectorReadHits class instances are applied before hit matching. ">
<polygon fill="white" stroke="black" points="343.5,-55 343.5,-89 456.5,-89 456.5,-55 343.5,-55"/>
<text text-anchor="start" x="351.5" y="-76" font-family="Helvetica,sans-Serif" font-size="10.00">ant::ReconstructHook</text>
<text text-anchor="middle" x="400" y="-63" font-family="Helvetica,sans-Serif" font-size="10.00">::DetectorReadHits</text>
</a>
</g>
<!-- Node6&#45;&gt;Node1 -->
<g id="edge10" class="edge"><title>Node6&#45;&gt;Node1</title>
<path fill="none" stroke="midnightblue" d="M466.93,-81.9315C476.721,-83.3844 486.742,-84.8714 496.351,-86.2973"/>
<polygon fill="midnightblue" stroke="midnightblue" points="467.242,-78.4395 456.836,-80.4338 466.214,-85.3637 467.242,-78.4395"/>
</g>
<!-- Node7 -->
<g id="node12" class="node"><title>Node7</title>
<a xlink:href="classant_1_1_reconstruct_hook_1_1_base.html" target="_top" xlink:title="The Base class just defines some useful types. ">
<polygon fill="white" stroke="black" points="185.5,-55 185.5,-89 298.5,-89 298.5,-55 185.5,-55"/>
<text text-anchor="start" x="193.5" y="-76" font-family="Helvetica,sans-Serif" font-size="10.00">ant::ReconstructHook</text>
<text text-anchor="middle" x="242" y="-63" font-family="Helvetica,sans-Serif" font-size="10.00">::Base</text>
</a>
</g>
<!-- Node7&#45;&gt;Node6 -->
<g id="edge12" class="edge"><title>Node7&#45;&gt;Node6</title>
<path fill="none" stroke="midnightblue" d="M308.61,-72C320.14,-72 332.032,-72 343.269,-72"/>
<polygon fill="midnightblue" stroke="midnightblue" points="308.595,-68.5001 298.595,-72 308.595,-75.5001 308.595,-68.5001"/>
</g>
</g>
</svg>
