<?xml version="1.0" encoding="UTF-8" standalone="no"?>
<!DOCTYPE svg PUBLIC "-//W3C//DTD SVG 1.1//EN"
 "http://www.w3.org/Graphics/SVG/1.1/DTD/svg11.dtd">
<!-- Generated by graphviz version 2.26.3 (20100126.1600)
 -->
<!-- Title: ant::Calibration::BaseModule Pages: 1 -->
<svg width="792pt" height="235pt"
 viewBox="0.00 0.00 792.00 235.00" xmlns="http://www.w3.org/2000/svg" xmlns:xlink="http://www.w3.org/1999/xlink">
<g id="graph1" class="graph" transform="scale(1 1) rotate(0) translate(4 231)">
<title>ant::Calibration::BaseModule</title>
<polygon fill="white" stroke="white" points="-4,5 -4,-231 789,-231 789,5 -4,5"/>
<!-- Node1 -->
<g id="node1" class="node"><title>Node1</title>
<polygon fill="#bfbfbf" stroke="black" points="0.5,-52.5 0.5,-73.5 143.5,-73.5 143.5,-52.5 0.5,-52.5"/>
<text text-anchor="middle" x="72" y="-60.5" font-family="Helvetica,sans-Serif" font-size="10.00">ant::Calibration::BaseModule</text>
</g>
<!-- Node2 -->
<g id="node3" class="node"><title>Node2</title>
<a xlink:href="classant_1_1_calibration_1_1_physics_module.html" target="_top" xlink:title="The PhysicsModule class gives the modules the ability to create histograms from events as well as fit...">
<polygon fill="white" stroke="black" points="180,-92 180,-126 304,-126 304,-92 180,-92"/>
<text text-anchor="start" x="188" y="-113" font-family="Helvetica,sans-Serif" font-size="10.00">ant::Calibration::Physics</text>
<text text-anchor="middle" x="242" y="-100" font-family="Helvetica,sans-Serif" font-size="10.00">Module</text>
</a>
</g>
<!-- Node1&#45;&gt;Node2 -->
<g id="edge2" class="edge"><title>Node1&#45;&gt;Node2</title>
<path fill="none" stroke="midnightblue" d="M120.901,-76.2319C139.283,-81.206 160.432,-86.9286 179.859,-92.1855"/>
<polygon fill="midnightblue" stroke="midnightblue" points="121.569,-72.7868 111.001,-73.5533 119.74,-79.5439 121.569,-72.7868"/>
</g>
<!-- Node12 -->
<g id="node23" class="node"><title>Node12</title>
<a xlink:href="classant_1_1calibration_1_1_scaler.html" target="_top" xlink:title="ant::calibration::Scaler">
<polygon fill="white" stroke="black" points="185,-52.5 185,-73.5 299,-73.5 299,-52.5 185,-52.5"/>
<text text-anchor="middle" x="242" y="-60.5" font-family="Helvetica,sans-Serif" font-size="10.00">ant::calibration::Scaler</text>
</a>
</g>
<!-- Node1&#45;&gt;Node12 -->
<g id="edge22" class="edge"><title>Node1&#45;&gt;Node12</title>
<path fill="none" stroke="midnightblue" d="M153.688,-63C164.25,-63 174.881,-63 184.927,-63"/>
<polygon fill="midnightblue" stroke="midnightblue" points="153.603,-59.5001 143.603,-63 153.603,-66.5001 153.603,-59.5001"/>
</g>
<!-- Node13 -->
<g id="node25" class="node"><title>Node13</title>
<a xlink:href="classant_1_1calibration_1_1_t_a_p_s___shower_correction.html" target="_top" xlink:title="ant::calibration::TAPS\l_ShowerCorrection">
<polygon fill="white" stroke="black" points="185.5,-0 185.5,-34 298.5,-34 298.5,-0 185.5,-0"/>
<text text-anchor="start" x="193.5" y="-21" font-family="Helvetica,sans-Serif" font-size="10.00">ant::calibration::TAPS</text>
<text text-anchor="middle" x="242" y="-8" font-family="Helvetica,sans-Serif" font-size="10.00">_ShowerCorrection</text>
</a>
</g>
<!-- Node1&#45;&gt;Node13 -->
<g id="edge24" class="edge"><title>Node1&#45;&gt;Node13</title>
<path fill="none" stroke="midnightblue" d="M120.907,-49.7664C141.068,-44.3109 164.557,-37.9552 185.452,-32.3011"/>
<polygon fill="midnightblue" stroke="midnightblue" points="119.74,-46.4561 111.001,-52.4467 121.569,-53.2132 119.74,-46.4561"/>
</g>
<!-- Node3 -->
<g id="node5" class="node"><title>Node3</title>
<a xlink:href="classant_1_1_calibration_1_1_module.html" target="_top" xlink:title="The Module class is typically used for calibrations. ">
<polygon fill="white" stroke="black" points="340,-98.5 340,-119.5 460,-119.5 460,-98.5 340,-98.5"/>
<text text-anchor="middle" x="400" y="-106.5" font-family="Helvetica,sans-Serif" font-size="10.00">ant::Calibration::Module</text>
</a>
</g>
<!-- Node2&#45;&gt;Node3 -->
<g id="edge4" class="edge"><title>Node2&#45;&gt;Node3</title>
<path fill="none" stroke="midnightblue" d="M314.644,-109C323.065,-109 331.584,-109 339.813,-109"/>
<polygon fill="midnightblue" stroke="midnightblue" points="314.446,-105.5 304.446,-109 314.446,-112.5 314.446,-105.5"/>
</g>
<!-- Node4 -->
<g id="node7" class="node"><title>Node4</title>
<a xlink:href="classant_1_1calibration_1_1_c_b___time_walk.html" target="_top" xlink:title="ant::calibration::CB\l_TimeWalk">
<polygon fill="white" stroke="black" points="504.5,-161 504.5,-195 605.5,-195 605.5,-161 504.5,-161"/>
<text text-anchor="start" x="512.5" y="-182" font-family="Helvetica,sans-Serif" font-size="10.00">ant::calibration::CB</text>
<text text-anchor="middle" x="555" y="-169" font-family="Helvetica,sans-Serif" font-size="10.00">_TimeWalk</text>
</a>
</g>
<!-- Node3&#45;&gt;Node4 -->
<g id="edge6" class="edge"><title>Node3&#45;&gt;Node4</title>
<path fill="none" stroke="midnightblue" d="M432.843,-123.77C451.376,-132.089 474.966,-142.655 496,-152 502.547,-154.909 509.508,-157.988 516.266,-160.971"/>
<polygon fill="midnightblue" stroke="midnightblue" points="434.21,-120.547 423.653,-119.643 431.342,-126.932 434.21,-120.547"/>
</g>
<!-- Node5 -->
<g id="node9" class="node"><title>Node5</title>
<a xlink:href="classant_1_1calibration_1_1_energy.html" target="_top" xlink:title="ant::calibration::Energy">
<polygon fill="white" stroke="black" points="496.5,-121.5 496.5,-142.5 613.5,-142.5 613.5,-121.5 496.5,-121.5"/>
<text text-anchor="middle" x="555" y="-129.5" font-family="Helvetica,sans-Serif" font-size="10.00">ant::calibration::Energy</text>
</a>
</g>
<!-- Node3&#45;&gt;Node5 -->
<g id="edge8" class="edge"><title>Node3&#45;&gt;Node5</title>
<path fill="none" stroke="midnightblue" d="M470.447,-119.453C479.098,-120.737 487.868,-122.038 496.32,-123.293"/>
<polygon fill="midnightblue" stroke="midnightblue" points="470.776,-115.964 460.371,-117.958 469.749,-122.888 470.776,-115.964"/>
</g>
<!-- Node10 -->
<g id="node19" class="node"><title>Node10</title>
<a xlink:href="classant_1_1calibration_1_1_p_i_d___phi_angle.html" target="_top" xlink:title="ant::calibration::PID\l_PhiAngle">
<polygon fill="white" stroke="black" points="503,-69 503,-103 607,-103 607,-69 503,-69"/>
<text text-anchor="start" x="511" y="-90" font-family="Helvetica,sans-Serif" font-size="10.00">ant::calibration::PID</text>
<text text-anchor="middle" x="555" y="-77" font-family="Helvetica,sans-Serif" font-size="10.00">_PhiAngle</text>
</a>
</g>
<!-- Node3&#45;&gt;Node10 -->
<g id="edge18" class="edge"><title>Node3&#45;&gt;Node10</title>
<path fill="none" stroke="midnightblue" d="M470.276,-98.5719C481.148,-96.9587 492.21,-95.3172 502.598,-93.7757"/>
<polygon fill="midnightblue" stroke="midnightblue" points="469.749,-95.1118 460.371,-100.042 470.776,-102.036 469.749,-95.1118"/>
</g>
<!-- Node11 -->
<g id="node21" class="node"><title>Node11</title>
<a xlink:href="classant_1_1calibration_1_1_time.html" target="_top" xlink:title="ant::calibration::Time">
<polygon fill="white" stroke="black" points="501,-29.5 501,-50.5 609,-50.5 609,-29.5 501,-29.5"/>
<text text-anchor="middle" x="555" y="-37.5" font-family="Helvetica,sans-Serif" font-size="10.00">ant::calibration::Time</text>
</a>
</g>
<!-- Node3&#45;&gt;Node11 -->
<g id="edge20" class="edge"><title>Node3&#45;&gt;Node11</title>
<path fill="none" stroke="midnightblue" d="M427.687,-93.5137C446.596,-83.2765 472.403,-69.9594 496,-60 503.972,-56.6355 512.723,-53.4206 520.987,-50.5905"/>
<polygon fill="midnightblue" stroke="midnightblue" points="425.833,-90.5387 418.738,-98.4076 429.191,-96.6803 425.833,-90.5387"/>
</g>
<!-- Node6 -->
<g id="node11" class="node"><title>Node6</title>
<a xlink:href="classant_1_1calibration_1_1_c_b___energy.html" target="_top" xlink:title="ant::calibration::CB\l_Energy">
<polygon fill="white" stroke="black" points="666.5,-193 666.5,-227 767.5,-227 767.5,-193 666.5,-193"/>
<text text-anchor="start" x="674.5" y="-214" font-family="Helvetica,sans-Serif" font-size="10.00">ant::calibration::CB</text>
<text text-anchor="middle" x="717" y="-201" font-family="Helvetica,sans-Serif" font-size="10.00">_Energy</text>
</a>
</g>
<!-- Node5&#45;&gt;Node6 -->
<g id="edge10" class="edge"><title>Node5&#45;&gt;Node6</title>
<path fill="none" stroke="midnightblue" d="M603.006,-146.425C606.811,-148.122 610.523,-149.978 614,-152 632.506,-162.762 631.732,-172.84 650,-184 655.324,-187.252 661.124,-190.226 667.011,-192.906"/>
<polygon fill="midnightblue" stroke="midnightblue" points="604.019,-143.058 593.437,-142.534 601.382,-149.543 604.019,-143.058"/>
</g>
<!-- Node7 -->
<g id="node13" class="node"><title>Node7</title>
<a xlink:href="classant_1_1calibration_1_1_p_i_d___energy.html" target="_top" xlink:title="ant::calibration::PID\l_Energy">
<polygon fill="white" stroke="black" points="665,-141 665,-175 769,-175 769,-141 665,-141"/>
<text text-anchor="start" x="673" y="-162" font-family="Helvetica,sans-Serif" font-size="10.00">ant::calibration::PID</text>
<text text-anchor="middle" x="717" y="-149" font-family="Helvetica,sans-Serif" font-size="10.00">_Energy</text>
</a>
</g>
<!-- Node5&#45;&gt;Node7 -->
<g id="edge12" class="edge"><title>Node5&#45;&gt;Node7</title>
<path fill="none" stroke="midnightblue" d="M623.828,-143.047C637.551,-145.249 651.75,-147.528 664.802,-149.622"/>
<polygon fill="midnightblue" stroke="midnightblue" points="624.372,-139.589 613.944,-141.46 623.263,-146.501 624.372,-139.589"/>
</g>
<!-- Node8 -->
<g id="node15" class="node"><title>Node8</title>
<a xlink:href="classant_1_1calibration_1_1_t_a_p_s___energy.html" target="_top" xlink:title="ant::calibration::TAPS\l_Energy">
<polygon fill="white" stroke="black" points="660.5,-89 660.5,-123 773.5,-123 773.5,-89 660.5,-89"/>
<text text-anchor="start" x="668.5" y="-110" font-family="Helvetica,sans-Serif" font-size="10.00">ant::calibration::TAPS</text>
<text text-anchor="middle" x="717" y="-97" font-family="Helvetica,sans-Serif" font-size="10.00">_Energy</text>
</a>
</g>
<!-- Node5&#45;&gt;Node8 -->
<g id="edge14" class="edge"><title>Node5&#45;&gt;Node8</title>
<path fill="none" stroke="midnightblue" d="M623.993,-120.927C636.088,-118.986 648.549,-116.986 660.263,-115.106"/>
<polygon fill="midnightblue" stroke="midnightblue" points="623.263,-117.499 613.944,-122.54 624.372,-124.411 623.263,-117.499"/>
</g>
<!-- Node9 -->
<g id="node17" class="node"><title>Node9</title>
<a xlink:href="classant_1_1calibration_1_1_t_a_p_s_veto___energy.html" target="_top" xlink:title="ant::calibration::TAPSVeto\l_Energy">
<polygon fill="white" stroke="black" points="650.5,-37 650.5,-71 783.5,-71 783.5,-37 650.5,-37"/>
<text text-anchor="start" x="658.5" y="-58" font-family="Helvetica,sans-Serif" font-size="10.00">ant::calibration::TAPSVeto</text>
<text text-anchor="middle" x="717" y="-45" font-family="Helvetica,sans-Serif" font-size="10.00">_Energy</text>
</a>
</g>
<!-- Node5&#45;&gt;Node9 -->
<g id="edge16" class="edge"><title>Node5&#45;&gt;Node9</title>
<path fill="none" stroke="midnightblue" d="M603.006,-117.575C606.811,-115.878 610.523,-114.022 614,-112 632.506,-101.238 631.732,-91.1602 650,-80 655.324,-76.7477 661.124,-73.774 667.011,-71.0941"/>
<polygon fill="midnightblue" stroke="midnightblue" points="601.382,-114.457 593.437,-121.466 604.019,-120.942 601.382,-114.457"/>
</g>
</g>
</svg>
