<?xml version="1.0" encoding="UTF-8" standalone="no"?>
<!DOCTYPE svg PUBLIC "-//W3C//DTD SVG 1.1//EN"
 "http://www.w3.org/Graphics/SVG/1.1/DTD/svg11.dtd">
<!-- Generated by graphviz version 2.26.3 (20100126.1600)
 -->
<!-- Title: ant::analysis::data::SlowcontrolRequestable Pages: 1 -->
<svg width="304pt" height="174pt"
 viewBox="0.00 0.00 304.00 174.00" xmlns="http://www.w3.org/2000/svg" xmlns:xlink="http://www.w3.org/1999/xlink">
<g id="graph1" class="graph" transform="scale(1 1) rotate(0) translate(4 170)">
<title>ant::analysis::data::SlowcontrolRequestable</title>
<polygon fill="white" stroke="white" points="-4,5 -4,-170 301,-170 301,5 -4,5"/>
<!-- Node1 -->
<g id="node1" class="node"><title>Node1</title>
<polygon fill="#bfbfbf" stroke="black" points="0,-73 0,-107 128,-107 128,-73 0,-73"/>
<text text-anchor="start" x="8" y="-94" font-family="Helvetica,sans-Serif" font-size="10.00">ant::analysis::data</text>
<text text-anchor="middle" x="64" y="-81" font-family="Helvetica,sans-Serif" font-size="10.00">::SlowcontrolRequestable</text>
</g>
<!-- Node2 -->
<g id="node3" class="node"><title>Node2</title>
<a xlink:href="classant_1_1analysis_1_1data_1_1_reqestable_variable.html" target="_top" xlink:title="ant::analysis::data\l::ReqestableVariable\&lt; T \&gt;">
<polygon fill="white" stroke="black" points="164.5,-132 164.5,-166 295.5,-166 295.5,-132 164.5,-132"/>
<text text-anchor="start" x="172.5" y="-153" font-family="Helvetica,sans-Serif" font-size="10.00">ant::analysis::data</text>
<text text-anchor="middle" x="230" y="-140" font-family="Helvetica,sans-Serif" font-size="10.00">::ReqestableVariable&lt; T &gt;</text>
</a>
</g>
<!-- Node1&#45;&gt;Node2 -->
<g id="edge2" class="edge"><title>Node1&#45;&gt;Node2</title>
<path fill="none" stroke="midnightblue" d="M121.521,-110.444C141.283,-117.468 163.179,-125.25 182.094,-131.973"/>
<polygon fill="midnightblue" stroke="midnightblue" points="122.609,-107.116 112.014,-107.065 120.264,-113.712 122.609,-107.116"/>
</g>
<!-- Node3 -->
<g id="node5" class="node"><title>Node3</title>
<a xlink:href="classant_1_1analysis_1_1data_1_1_reqestable_variable.html" target="_top" xlink:title="ant::analysis::data\l::ReqestableVariable\l\&lt; double \&gt;">
<polygon fill="white" stroke="black" points="176.5,-66.5 176.5,-113.5 283.5,-113.5 283.5,-66.5 176.5,-66.5"/>
<text text-anchor="start" x="184.5" y="-100.5" font-family="Helvetica,sans-Serif" font-size="10.00">ant::analysis::data</text>
<text text-anchor="start" x="184.5" y="-87.5" font-family="Helvetica,sans-Serif" font-size="10.00">::ReqestableVariable</text>
<text text-anchor="middle" x="230" y="-74.5" font-family="Helvetica,sans-Serif" font-size="10.00">&lt; double &gt;</text>
</a>
</g>
<!-- Node1&#45;&gt;Node3 -->
<g id="edge4" class="edge"><title>Node1&#45;&gt;Node3</title>
<path fill="none" stroke="midnightblue" d="M138.391,-90C151.226,-90 164.34,-90 176.485,-90"/>
<polygon fill="midnightblue" stroke="midnightblue" points="138.18,-86.5001 128.18,-90 138.18,-93.5001 138.18,-86.5001"/>
</g>
<!-- Node4 -->
<g id="node7" class="node"><title>Node4</title>
<a xlink:href="classant_1_1analysis_1_1data_1_1_reqestable_variable.html" target="_top" xlink:title="ant::analysis::data\l::ReqestableVariable\l\&lt; std::vector\&lt; double \&gt; \&gt;">
<polygon fill="white" stroke="black" points="166,-0.5 166,-47.5 294,-47.5 294,-0.5 166,-0.5"/>
<text text-anchor="start" x="174" y="-34.5" font-family="Helvetica,sans-Serif" font-size="10.00">ant::analysis::data</text>
<text text-anchor="start" x="174" y="-21.5" font-family="Helvetica,sans-Serif" font-size="10.00">::ReqestableVariable</text>
<text text-anchor="middle" x="230" y="-8.5" font-family="Helvetica,sans-Serif" font-size="10.00">&lt; std::vector&lt; double &gt; &gt;</text>
</a>
</g>
<!-- Node1&#45;&gt;Node4 -->
<g id="edge6" class="edge"><title>Node1&#45;&gt;Node4</title>
<path fill="none" stroke="midnightblue" d="M116.533,-69.1134C133.785,-62.254 153.077,-54.5839 170.79,-47.5415"/>
<polygon fill="midnightblue" stroke="midnightblue" points="115.181,-65.8845 107.181,-72.8316 117.767,-72.3893 115.181,-65.8845"/>
</g>
</g>
</svg>
