<?xml version="1.0" encoding="UTF-8" standalone="no"?>
<!DOCTYPE svg PUBLIC "-//W3C//DTD SVG 1.1//EN"
 "http://www.w3.org/Graphics/SVG/1.1/DTD/svg11.dtd">
<!-- Generated by graphviz version 2.26.3 (20100126.1600)
 -->
<!-- Title: ant::modifier Pages: 1 -->
<svg width="286pt" height="88pt"
 viewBox="0.00 0.00 286.00 88.00" xmlns="http://www.w3.org/2000/svg" xmlns:xlink="http://www.w3.org/1999/xlink">
<g id="graph1" class="graph" transform="scale(1 1) rotate(0) translate(4 84)">
<title>ant::modifier</title>
<polygon fill="white" stroke="white" points="-4,5 -4,-84 283,-84 283,5 -4,5"/>
<!-- Node1 -->
<g id="node1" class="node"><title>Node1</title>
<polygon fill="#bfbfbf" stroke="black" points="105.5,-58.5 105.5,-79.5 176.5,-79.5 176.5,-58.5 105.5,-58.5"/>
<text text-anchor="middle" x="141" y="-66.5" font-family="Helvetica,sans-Serif" font-size="10.00">ant::modifier</text>
</g>
<!-- Node2 -->
<g id="node3" class="node"><title>Node2</title>
<a xlink:href="classant_1_1drawoption.html" target="_top" xlink:title="ant::drawoption">
<polygon fill="white" stroke="black" points="-0.5,-0.5 -0.5,-21.5 82.5,-21.5 82.5,-0.5 -0.5,-0.5"/>
<text text-anchor="middle" x="41" y="-8.5" font-family="Helvetica,sans-Serif" font-size="10.00">ant::drawoption</text>
</a>
</g>
<!-- Node1&#45;&gt;Node2 -->
<g id="edge2" class="edge"><title>Node1&#45;&gt;Node2</title>
<path fill="none" stroke="midnightblue" d="M113.588,-53.1009C96.2859,-43.0658 74.4152,-30.3808 59.2253,-21.5707"/>
<polygon fill="midnightblue" stroke="midnightblue" points="112.252,-56.3723 122.658,-58.3619 115.764,-50.3171 112.252,-56.3723"/>
</g>
<!-- Node3 -->
<g id="node5" class="node"><title>Node3</title>
<a xlink:href="classant_1_1endcanvas.html" target="_top" xlink:title="ant::endcanvas">
<polygon fill="white" stroke="black" points="99.5,-0.5 99.5,-21.5 182.5,-21.5 182.5,-0.5 99.5,-0.5"/>
<text text-anchor="middle" x="141" y="-8.5" font-family="Helvetica,sans-Serif" font-size="10.00">ant::endcanvas</text>
</a>
</g>
<!-- Node1&#45;&gt;Node3 -->
<g id="edge4" class="edge"><title>Node1&#45;&gt;Node3</title>
<path fill="none" stroke="midnightblue" d="M141,-48.1906C141,-39.1684 141,-28.9941 141,-21.5707"/>
<polygon fill="midnightblue" stroke="midnightblue" points="137.5,-48.3619 141,-58.3619 144.5,-48.3619 137.5,-48.3619"/>
</g>
<!-- Node4 -->
<g id="node7" class="node"><title>Node4</title>
<a xlink:href="classant_1_1padoption.html" target="_top" xlink:title="ant::padoption">
<polygon fill="white" stroke="black" points="200,-0.5 200,-21.5 278,-21.5 278,-0.5 200,-0.5"/>
<text text-anchor="middle" x="239" y="-8.5" font-family="Helvetica,sans-Serif" font-size="10.00">ant::padoption</text>
</a>
</g>
<!-- Node1&#45;&gt;Node4 -->
<g id="edge6" class="edge"><title>Node1&#45;&gt;Node4</title>
<path fill="none" stroke="midnightblue" d="M167.864,-53.1009C184.82,-43.0658 206.253,-30.3808 221.139,-21.5707"/>
<polygon fill="midnightblue" stroke="midnightblue" points="165.798,-50.2566 158.975,-58.3619 169.363,-56.2807 165.798,-50.2566"/>
</g>
</g>
</svg>
