<?xml version="1.0" encoding="UTF-8" standalone="no"?>
<!DOCTYPE svg PUBLIC "-//W3C//DTD SVG 1.1//EN"
 "http://www.w3.org/Graphics/SVG/1.1/DTD/svg11.dtd">
<!-- Generated by graphviz version 2.26.3 (20100126.1600)
 -->
<!-- Title: ant::calibration::TAPSVeto_Energy Pages: 1 -->
<svg width="1090pt" height="274pt"
 viewBox="0.00 0.00 1090.00 274.00" xmlns="http://www.w3.org/2000/svg" xmlns:xlink="http://www.w3.org/1999/xlink">
<g id="graph1" class="graph" transform="scale(1 1) rotate(0) translate(4 270)">
<title>ant::calibration::TAPSVeto_Energy</title>
<polygon fill="white" stroke="white" points="-4,5 -4,-270 1087,-270 1087,5 -4,5"/>
<!-- Node1 -->
<g id="node1" class="node"><title>Node1</title>
<polygon fill="#bfbfbf" stroke="black" points="948.5,-81 948.5,-115 1081.5,-115 1081.5,-81 948.5,-81"/>
<text text-anchor="start" x="956.5" y="-102" font-family="Helvetica,sans-Serif" font-size="10.00">ant::calibration::TAPSVeto</text>
<text text-anchor="middle" x="1015" y="-89" font-family="Helvetica,sans-Serif" font-size="10.00">_Energy</text>
</g>
<!-- Node2 -->
<g id="node2" class="node"><title>Node2</title>
<a xlink:href="classant_1_1calibration_1_1_energy.html" target="_top" xlink:title="ant::calibration::Energy">
<polygon fill="white" stroke="black" points="792.5,-87.5 792.5,-108.5 909.5,-108.5 909.5,-87.5 792.5,-87.5"/>
<text text-anchor="middle" x="851" y="-95.5" font-family="Helvetica,sans-Serif" font-size="10.00">ant::calibration::Energy</text>
</a>
</g>
<!-- Node2&#45;&gt;Node1 -->
<g id="edge2" class="edge"><title>Node2&#45;&gt;Node1</title>
<path fill="none" stroke="midnightblue" d="M919.847,-98C929.266,-98 938.923,-98 948.302,-98"/>
<polygon fill="midnightblue" stroke="midnightblue" points="919.745,-94.5001 909.745,-98 919.745,-101.5 919.745,-94.5001"/>
</g>
<!-- Node3 -->
<g id="node4" class="node"><title>Node3</title>
<a xlink:href="classant_1_1_calibration_1_1_module.html" target="_top" xlink:title="The Module class is typically used for calibrations. ">
<polygon fill="white" stroke="black" points="560,-192.5 560,-213.5 680,-213.5 680,-192.5 560,-192.5"/>
<text text-anchor="middle" x="620" y="-200.5" font-family="Helvetica,sans-Serif" font-size="10.00">ant::Calibration::Module</text>
</a>
</g>
<!-- Node3&#45;&gt;Node2 -->
<g id="edge4" class="edge"><title>Node3&#45;&gt;Node2</title>
<path fill="none" stroke="midnightblue" d="M669.915,-189.43C676.062,-187.434 682.214,-185.277 688,-183 743.24,-161.266 804.256,-126.243 833.494,-108.715"/>
<polygon fill="midnightblue" stroke="midnightblue" points="668.815,-186.107 660.312,-192.428 670.901,-192.789 668.815,-186.107"/>
</g>
<!-- Node4 -->
<g id="node6" class="node"><title>Node4</title>
<a xlink:href="classant_1_1_calibration_1_1_physics_module.html" target="_top" xlink:title="The PhysicsModule class gives the modules the ability to create histograms from events as well as fit...">
<polygon fill="white" stroke="black" points="348,-232 348,-266 472,-266 472,-232 348,-232"/>
<text text-anchor="start" x="356" y="-253" font-family="Helvetica,sans-Serif" font-size="10.00">ant::Calibration::Physics</text>
<text text-anchor="middle" x="410" y="-240" font-family="Helvetica,sans-Serif" font-size="10.00">Module</text>
</a>
</g>
<!-- Node4&#45;&gt;Node3 -->
<g id="edge6" class="edge"><title>Node4&#45;&gt;Node3</title>
<path fill="none" stroke="midnightblue" d="M482.065,-233.214C511.776,-226.706 545.402,-219.34 572.015,-213.511"/>
<polygon fill="midnightblue" stroke="midnightblue" points="481.174,-229.826 472.155,-235.385 482.672,-236.664 481.174,-229.826"/>
</g>
<!-- Node5 -->
<g id="node8" class="node"><title>Node5</title>
<a xlink:href="classant_1_1_calibration_1_1_base_module.html" target="_top" xlink:title="The BaseModule class provides a name for identification. ">
<polygon fill="white" stroke="black" points="134.5,-238.5 134.5,-259.5 277.5,-259.5 277.5,-238.5 134.5,-238.5"/>
<text text-anchor="middle" x="206" y="-246.5" font-family="Helvetica,sans-Serif" font-size="10.00">ant::Calibration::BaseModule</text>
</a>
</g>
<!-- Node5&#45;&gt;Node4 -->
<g id="edge8" class="edge"><title>Node5&#45;&gt;Node4</title>
<path fill="none" stroke="midnightblue" d="M287.666,-249C307.671,-249 328.763,-249 347.694,-249"/>
<polygon fill="midnightblue" stroke="midnightblue" points="287.636,-245.5 277.636,-249 287.636,-252.5 287.636,-245.5"/>
</g>
<!-- Node6 -->
<g id="node10" class="node"><title>Node6</title>
<a xlink:href="classant_1_1_updateable__traits.html" target="_top" xlink:title="The Updateable_traits class used by the UpdateableManager. ">
<polygon fill="white" stroke="black" points="353.5,-192.5 353.5,-213.5 466.5,-213.5 466.5,-192.5 353.5,-192.5"/>
<text text-anchor="middle" x="410" y="-200.5" font-family="Helvetica,sans-Serif" font-size="10.00">ant::Updateable_traits</text>
</a>
</g>
<!-- Node6&#45;&gt;Node3 -->
<g id="edge10" class="edge"><title>Node6&#45;&gt;Node3</title>
<path fill="none" stroke="midnightblue" d="M476.559,-203C503.204,-203 533.68,-203 559.668,-203"/>
<polygon fill="midnightblue" stroke="midnightblue" points="476.552,-199.5 466.552,-203 476.552,-206.5 476.552,-199.5"/>
</g>
<!-- Node7 -->
<g id="node12" class="node"><title>Node7</title>
<a xlink:href="classant_1_1_reconstruct_hook_1_1_detector_read_hits.html" target="_top" xlink:title="The DetectorReadHits class instances are applied before hit matching. ">
<polygon fill="white" stroke="black" points="563.5,-140 563.5,-174 676.5,-174 676.5,-140 563.5,-140"/>
<text text-anchor="start" x="571.5" y="-161" font-family="Helvetica,sans-Serif" font-size="10.00">ant::ReconstructHook</text>
<text text-anchor="middle" x="620" y="-148" font-family="Helvetica,sans-Serif" font-size="10.00">::DetectorReadHits</text>
</a>
</g>
<!-- Node7&#45;&gt;Node2 -->
<g id="edge12" class="edge"><title>Node7&#45;&gt;Node2</title>
<path fill="none" stroke="midnightblue" d="M686.386,-140.044C726.101,-129.901 775.337,-117.325 809.564,-108.583"/>
<polygon fill="midnightblue" stroke="midnightblue" points="685.332,-136.701 676.509,-142.567 687.064,-143.483 685.332,-136.701"/>
</g>
<!-- Node8 -->
<g id="node14" class="node"><title>Node8</title>
<a xlink:href="classant_1_1_reconstruct_hook_1_1_base.html" target="_top" xlink:title="The Base class just defines some useful types. ">
<polygon fill="white" stroke="black" points="353.5,-140 353.5,-174 466.5,-174 466.5,-140 353.5,-140"/>
<text text-anchor="start" x="361.5" y="-161" font-family="Helvetica,sans-Serif" font-size="10.00">ant::ReconstructHook</text>
<text text-anchor="middle" x="410" y="-148" font-family="Helvetica,sans-Serif" font-size="10.00">::Base</text>
</a>
</g>
<!-- Node8&#45;&gt;Node7 -->
<g id="edge14" class="edge"><title>Node8&#45;&gt;Node7</title>
<path fill="none" stroke="midnightblue" d="M476.623,-157C504.521,-157 536.609,-157 563.347,-157"/>
<polygon fill="midnightblue" stroke="midnightblue" points="476.552,-153.5 466.552,-157 476.552,-160.5 476.552,-153.5"/>
</g>
<!-- Node9 -->
<g id="node16" class="node"><title>Node9</title>
<a xlink:href="structant_1_1calibration_1_1_energy_1_1_calib_type.html" target="_top" xlink:title="The CalibType struct stores the data for the Updateable interface and for the GUI. ">
<polygon fill="white" stroke="black" points="351.5,-27 351.5,-61 468.5,-61 468.5,-27 351.5,-27"/>
<text text-anchor="start" x="359.5" y="-48" font-family="Helvetica,sans-Serif" font-size="10.00">ant::calibration::Energy</text>
<text text-anchor="middle" x="410" y="-35" font-family="Helvetica,sans-Serif" font-size="10.00">::CalibType</text>
</a>
</g>
<!-- Node9&#45;&gt;Node2 -->
<g id="edge16" class="edge"><title>Node9&#45;&gt;Node2</title>
<path fill="none" stroke="#9a32cd" stroke-dasharray="5,2" d="M478.498,-52.3875C564.599,-62.9304 710.932,-80.8488 792.196,-90.7996"/>
<polygon fill="#9a32cd" stroke="#9a32cd" points="478.913,-48.9122 468.561,-51.1708 478.062,-55.8603 478.913,-48.9122"/>
<text text-anchor="middle" x="620" y="-120" font-family="Helvetica,sans-Serif" font-size="10.00"> RelativeGains</text>
<text text-anchor="middle" x="620" y="-107" font-family="Helvetica,sans-Serif" font-size="10.00">Pedestals</text>
<text text-anchor="middle" x="620" y="-94" font-family="Helvetica,sans-Serif" font-size="10.00">Thresholds</text>
<text text-anchor="middle" x="620" y="-81" font-family="Helvetica,sans-Serif" font-size="10.00">Gains</text>
</g>
<!-- Node13 -->
<g id="node24" class="node"><title>Node13</title>
<polygon fill="white" stroke="#bfbfbf" points="552,-0 552,-34 688,-34 688,-0 552,-0"/>
<text text-anchor="start" x="560" y="-21" font-family="Helvetica,sans-Serif" font-size="10.00">std::vector&lt; ant::calibration</text>
<text text-anchor="middle" x="620" y="-8" font-family="Helvetica,sans-Serif" font-size="10.00">::Energy::CalibType * &gt;</text>
</g>
<!-- Node9&#45;&gt;Node13 -->
<g id="edge26" class="edge"><title>Node9&#45;&gt;Node13</title>
<path fill="none" stroke="#9a32cd" stroke-dasharray="5,2" d="M478.986,-35.1304C502.427,-32.1166 528.592,-28.7524 551.959,-25.7481"/>
<polygon fill="#9a32cd" stroke="#9a32cd" points="478.248,-31.6964 468.776,-36.4431 479.141,-38.6392 478.248,-31.6964"/>
<text text-anchor="middle" x="512" y="-38" font-family="Helvetica,sans-Serif" font-size="10.00"> elements</text>
</g>
<!-- Node10 -->
<g id="node18" class="node"><title>Node10</title>
<a xlink:title="STL class. ">
<polygon fill="white" stroke="#bfbfbf" points="176,-54.5 176,-75.5 236,-75.5 236,-54.5 176,-54.5"/>
<text text-anchor="middle" x="206" y="-62.5" font-family="Helvetica,sans-Serif" font-size="10.00">std::string</text>
</a>
</g>
<!-- Node10&#45;&gt;Node9 -->
<g id="edge18" class="edge"><title>Node10&#45;&gt;Node9</title>
<path fill="none" stroke="#9a32cd" stroke-dasharray="5,2" d="M246.216,-60.8601C276.255,-57.7679 317.764,-53.4949 351.478,-50.0243"/>
<polygon fill="#9a32cd" stroke="#9a32cd" points="245.69,-57.3957 236.101,-61.9014 246.407,-64.3589 245.69,-57.3957"/>
<text text-anchor="middle" x="313" y="-60" font-family="Helvetica,sans-Serif" font-size="10.00"> Name</text>
</g>
<!-- Node11 -->
<g id="node20" class="node"><title>Node11</title>
<a xlink:title="STL class. ">
<polygon fill="white" stroke="#bfbfbf" points="0.5,-48 0.5,-82 95.5,-82 95.5,-48 0.5,-48"/>
<text text-anchor="start" x="8.5" y="-69" font-family="Helvetica,sans-Serif" font-size="10.00">std::basic_string&lt;</text>
<text text-anchor="middle" x="48" y="-56" font-family="Helvetica,sans-Serif" font-size="10.00"> char &gt;</text>
</a>
</g>
<!-- Node11&#45;&gt;Node10 -->
<g id="edge20" class="edge"><title>Node11&#45;&gt;Node10</title>
<path fill="none" stroke="midnightblue" d="M106.116,-65C129.743,-65 156.054,-65 175.739,-65"/>
<polygon fill="midnightblue" stroke="midnightblue" points="105.834,-61.5001 95.834,-65 105.834,-68.5001 105.834,-61.5001"/>
</g>
<!-- Node12 -->
<g id="node22" class="node"><title>Node12</title>
<polygon fill="white" stroke="#bfbfbf" points="151,-14.5 151,-35.5 261,-35.5 261,-14.5 151,-14.5"/>
<text text-anchor="middle" x="206" y="-22.5" font-family="Helvetica,sans-Serif" font-size="10.00">std::vector&lt; double &gt;</text>
</g>
<!-- Node12&#45;&gt;Node9 -->
<g id="edge22" class="edge"><title>Node12&#45;&gt;Node9</title>
<path fill="none" stroke="#9a32cd" stroke-dasharray="5,2" d="M271.139,-24.459C290.159,-24.8726 310.951,-25.8809 330,-28 336.898,-28.7674 344.086,-29.8272 351.201,-31.0393"/>
<polygon fill="#9a32cd" stroke="#9a32cd" points="271.133,-20.9585 261.076,-24.2906 271.016,-27.9575 271.133,-20.9585"/>
<text text-anchor="middle" x="313" y="-32" font-family="Helvetica,sans-Serif" font-size="10.00"> Values</text>
</g>
<!-- Node13&#45;&gt;Node2 -->
<g id="edge24" class="edge"><title>Node13&#45;&gt;Node2</title>
<path fill="none" stroke="#9a32cd" stroke-dasharray="5,2" d="M698.3,-23.252C723.17,-27.0561 750.342,-33.1713 774,-43 799.791,-53.7146 825.283,-74.4527 839.501,-87.177"/>
<polygon fill="#9a32cd" stroke="#9a32cd" points="698.561,-19.7539 688.167,-21.8076 697.573,-26.6838 698.561,-19.7539"/>
<text text-anchor="middle" x="740" y="-47" font-family="Helvetica,sans-Serif" font-size="10.00"> AllCalibrations</text>
</g>
</g>
</svg>
