<?xml version="1.0" encoding="UTF-8" standalone="no"?>
<!DOCTYPE svg PUBLIC "-//W3C//DTD SVG 1.1//EN"
 "http://www.w3.org/Graphics/SVG/1.1/DTD/svg11.dtd">
<!-- Generated by graphviz version 2.26.3 (20100126.1600)
 -->
<!-- Title: ant::calibration::gui::ACECanvas Pages: 1 -->
<svg width="192pt" height="116pt"
 viewBox="0.00 0.00 192.00 116.00" xmlns="http://www.w3.org/2000/svg" xmlns:xlink="http://www.w3.org/1999/xlink">
<g id="graph1" class="graph" transform="scale(1 1) rotate(0) translate(4 112)">
<title>ant::calibration::gui::ACECanvas</title>
<polygon fill="white" stroke="white" points="-4,5 -4,-112 189,-112 189,5 -4,5"/>
<!-- Node1 -->
<g id="node1" class="node"><title>Node1</title>
<polygon fill="#bfbfbf" stroke="black" points="28.5,-1 28.5,-35 127.5,-35 127.5,-1 28.5,-1"/>
<text text-anchor="start" x="36.5" y="-22" font-family="Helvetica,sans-Serif" font-size="10.00">ant::calibration::gui</text>
<text text-anchor="middle" x="78" y="-9" font-family="Helvetica,sans-Serif" font-size="10.00">::ACECanvas</text>
</g>
<!-- Node2 -->
<g id="node2" class="node"><title>Node2</title>
<polygon fill="white" stroke="#bfbfbf" points="0,-79.5 0,-100.5 56,-100.5 56,-79.5 0,-79.5"/>
<text text-anchor="middle" x="28" y="-87.5" font-family="Helvetica,sans-Serif" font-size="10.00">TCanvas</text>
</g>
<!-- Node2&#45;&gt;Node1 -->
<g id="edge2" class="edge"><title>Node2&#45;&gt;Node1</title>
<path fill="none" stroke="midnightblue" d="M41.0893,-71.1514C48.8452,-59.9829 58.5969,-45.9404 66.1289,-35.0944"/>
<polygon fill="midnightblue" stroke="midnightblue" points="38.2069,-69.166 35.3777,-79.3762 43.9565,-73.1588 38.2069,-69.166"/>
</g>
<!-- Node3 -->
<g id="node4" class="node"><title>Node3</title>
<a xlink:href="classant_1_1calibration_1_1gui_1_1_dialog_handler__traits.html" target="_top" xlink:title="ant::calibration::gui\l::DialogHandler_traits">
<polygon fill="white" stroke="black" points="73.5,-73 73.5,-107 184.5,-107 184.5,-73 73.5,-73"/>
<text text-anchor="start" x="81.5" y="-94" font-family="Helvetica,sans-Serif" font-size="10.00">ant::calibration::gui</text>
<text text-anchor="middle" x="129" y="-81" font-family="Helvetica,sans-Serif" font-size="10.00">::DialogHandler_traits</text>
</a>
</g>
<!-- Node3&#45;&gt;Node1 -->
<g id="edge4" class="edge"><title>Node3&#45;&gt;Node1</title>
<path fill="none" stroke="midnightblue" d="M110.936,-64.4981C104.121,-54.8768 96.5295,-44.1593 90.3538,-35.4407"/>
<polygon fill="midnightblue" stroke="midnightblue" points="108.277,-66.7998 116.914,-72.937 113.99,-62.7537 108.277,-66.7998"/>
</g>
</g>
</svg>
