<?xml version="1.0" encoding="UTF-8" standalone="no"?>
<!DOCTYPE svg PUBLIC "-//W3C//DTD SVG 1.1//EN"
 "http://www.w3.org/Graphics/SVG/1.1/DTD/svg11.dtd">
<!-- Generated by graphviz version 2.26.3 (20100126.1600)
 -->
<!-- Title: ant::analysis::SmartHist1Base Pages: 1 -->
<svg width="480pt" height="238pt"
 viewBox="0.00 0.00 480.00 238.00" xmlns="http://www.w3.org/2000/svg" xmlns:xlink="http://www.w3.org/1999/xlink">
<g id="graph1" class="graph" transform="scale(1 1) rotate(0) translate(4 234)">
<title>ant::analysis::SmartHist1Base</title>
<polygon fill="white" stroke="white" points="-4,5 -4,-234 477,-234 477,5 -4,5"/>
<!-- Node1 -->
<g id="node1" class="node"><title>Node1</title>
<polygon fill="#bfbfbf" stroke="black" points="134,-110.5 134,-131.5 284,-131.5 284,-110.5 134,-110.5"/>
<text text-anchor="middle" x="209" y="-118.5" font-family="Helvetica,sans-Serif" font-size="10.00">ant::analysis::SmartHist1Base</text>
</g>
<!-- Node3 -->
<g id="node5" class="node"><title>Node3</title>
<a xlink:href="classant_1_1analysis_1_1_smart_hist1.html" target="_top" xlink:title="ant::analysis::SmartHist1\&lt; T \&gt;">
<polygon fill="white" stroke="black" points="320,-208.5 320,-229.5 472,-229.5 472,-208.5 320,-208.5"/>
<text text-anchor="middle" x="396" y="-216.5" font-family="Helvetica,sans-Serif" font-size="10.00">ant::analysis::SmartHist1&lt; T &gt;</text>
</a>
</g>
<!-- Node1&#45;&gt;Node3 -->
<g id="edge4" class="edge"><title>Node1&#45;&gt;Node3</title>
<path fill="none" stroke="midnightblue" d="M228.739,-138.181C249.948,-155.813 285.303,-182.88 320,-199 328.043,-202.737 336.901,-205.865 345.642,-208.453"/>
<polygon fill="midnightblue" stroke="midnightblue" points="230.973,-135.486 221.075,-131.706 226.455,-140.833 230.973,-135.486"/>
</g>
<!-- Node4 -->
<g id="node7" class="node"><title>Node4</title>
<a xlink:href="classant_1_1analysis_1_1_smart_hist1.html" target="_top" xlink:title="ant::analysis::SmartHist1\l\&lt; const data::ParticlePtr &amp; \&gt;">
<polygon fill="white" stroke="black" points="325,-156 325,-190 467,-190 467,-156 325,-156"/>
<text text-anchor="start" x="333" y="-177" font-family="Helvetica,sans-Serif" font-size="10.00">ant::analysis::SmartHist1</text>
<text text-anchor="middle" x="396" y="-164" font-family="Helvetica,sans-Serif" font-size="10.00">&lt; const data::ParticlePtr &amp; &gt;</text>
</a>
</g>
<!-- Node1&#45;&gt;Node4 -->
<g id="edge6" class="edge"><title>Node1&#45;&gt;Node4</title>
<path fill="none" stroke="midnightblue" d="M256.659,-134.253C280.37,-140.846 309.308,-148.893 334.656,-155.942"/>
<polygon fill="midnightblue" stroke="midnightblue" points="257.414,-130.83 246.842,-131.523 255.539,-137.574 257.414,-130.83"/>
</g>
<!-- Node5 -->
<g id="node9" class="node"><title>Node5</title>
<a xlink:href="classant_1_1analysis_1_1_smart_hist1.html" target="_top" xlink:title="ant::analysis::SmartHist1\l\&lt; double \&gt;">
<polygon fill="white" stroke="black" points="332,-104 332,-138 460,-138 460,-104 332,-104"/>
<text text-anchor="start" x="340" y="-125" font-family="Helvetica,sans-Serif" font-size="10.00">ant::analysis::SmartHist1</text>
<text text-anchor="middle" x="396" y="-112" font-family="Helvetica,sans-Serif" font-size="10.00">&lt; double &gt;</text>
</a>
</g>
<!-- Node1&#45;&gt;Node5 -->
<g id="edge8" class="edge"><title>Node1&#45;&gt;Node5</title>
<path fill="none" stroke="midnightblue" d="M294.284,-121C306.87,-121 319.655,-121 331.719,-121"/>
<polygon fill="midnightblue" stroke="midnightblue" points="294.252,-117.5 284.252,-121 294.252,-124.5 294.252,-117.5"/>
</g>
<!-- Node6 -->
<g id="node11" class="node"><title>Node6</title>
<a xlink:href="classant_1_1analysis_1_1_smart_hist1.html" target="_top" xlink:title="ant::analysis::SmartHist1\l\&lt; int \&gt;">
<polygon fill="white" stroke="black" points="332,-52 332,-86 460,-86 460,-52 332,-52"/>
<text text-anchor="start" x="340" y="-73" font-family="Helvetica,sans-Serif" font-size="10.00">ant::analysis::SmartHist1</text>
<text text-anchor="middle" x="396" y="-60" font-family="Helvetica,sans-Serif" font-size="10.00">&lt; int &gt;</text>
</a>
</g>
<!-- Node1&#45;&gt;Node6 -->
<g id="edge10" class="edge"><title>Node1&#45;&gt;Node6</title>
<path fill="none" stroke="midnightblue" d="M256.659,-107.747C280.37,-101.154 309.308,-93.1068 334.656,-86.0582"/>
<polygon fill="midnightblue" stroke="midnightblue" points="255.539,-104.426 246.842,-110.477 257.414,-111.17 255.539,-104.426"/>
</g>
<!-- Node7 -->
<g id="node13" class="node"><title>Node7</title>
<a xlink:href="classant_1_1analysis_1_1_smart_hist1.html" target="_top" xlink:title="ant::analysis::SmartHist1\l\&lt; std::string \&gt;">
<polygon fill="white" stroke="black" points="332,-0 332,-34 460,-34 460,-0 332,-0"/>
<text text-anchor="start" x="340" y="-21" font-family="Helvetica,sans-Serif" font-size="10.00">ant::analysis::SmartHist1</text>
<text text-anchor="middle" x="396" y="-8" font-family="Helvetica,sans-Serif" font-size="10.00">&lt; std::string &gt;</text>
</a>
</g>
<!-- Node1&#45;&gt;Node7 -->
<g id="edge12" class="edge"><title>Node1&#45;&gt;Node7</title>
<path fill="none" stroke="midnightblue" d="M229.332,-104.036C250.776,-86.806 286.094,-60.2694 320,-43 326.337,-39.7722 333.166,-36.7986 340.039,-34.106"/>
<polygon fill="midnightblue" stroke="midnightblue" points="227.106,-101.334 221.561,-110.362 231.526,-106.763 227.106,-101.334"/>
</g>
<!-- Node2 -->
<g id="node2" class="node"><title>Node2</title>
<a xlink:href="classant_1_1root__drawable__traits.html" target="_top" xlink:title="ant::root_drawable\l_traits">
<polygon fill="white" stroke="black" points="0.5,-104 0.5,-138 97.5,-138 97.5,-104 0.5,-104"/>
<text text-anchor="start" x="8.5" y="-125" font-family="Helvetica,sans-Serif" font-size="10.00">ant::root_drawable</text>
<text text-anchor="middle" x="49" y="-112" font-family="Helvetica,sans-Serif" font-size="10.00">_traits</text>
</a>
</g>
<!-- Node2&#45;&gt;Node1 -->
<g id="edge2" class="edge"><title>Node2&#45;&gt;Node1</title>
<path fill="none" stroke="midnightblue" d="M107.979,-121C116.423,-121 125.202,-121 133.904,-121"/>
<polygon fill="midnightblue" stroke="midnightblue" points="107.875,-117.5 97.8747,-121 107.875,-124.5 107.875,-117.5"/>
</g>
</g>
</svg>
