<?xml version="1.0" encoding="UTF-8" standalone="no"?>
<!DOCTYPE svg PUBLIC "-//W3C//DTD SVG 1.1//EN"
 "http://www.w3.org/Graphics/SVG/1.1/DTD/svg11.dtd">
<!-- Generated by graphviz version 2.26.3 (20100126.1600)
 -->
<!-- Title: ant::analysis::physics::ParticleIDCheck Pages: 1 -->
<svg width="299pt" height="228pt"
 viewBox="0.00 0.00 299.00 228.00" xmlns="http://www.w3.org/2000/svg" xmlns:xlink="http://www.w3.org/1999/xlink">
<g id="graph1" class="graph" transform="scale(1 1) rotate(0) translate(4 224)">
<title>ant::analysis::physics::ParticleIDCheck</title>
<polygon fill="white" stroke="white" points="-4,5 -4,-224 296,-224 296,5 -4,5"/>
<!-- Node1 -->
<g id="node1" class="node"><title>Node1</title>
<polygon fill="#bfbfbf" stroke="black" points="119,-1 119,-35 231,-35 231,-1 119,-1"/>
<text text-anchor="start" x="127" y="-22" font-family="Helvetica,sans-Serif" font-size="10.00">ant::analysis::physics</text>
<text text-anchor="middle" x="175" y="-9" font-family="Helvetica,sans-Serif" font-size="10.00">::ParticleIDCheck</text>
</g>
<!-- Node2 -->
<g id="node2" class="node"><title>Node2</title>
<a xlink:href="classant_1_1analysis_1_1_physics.html" target="_top" xlink:title="ant::analysis::Physics">
<polygon fill="white" stroke="black" points="4.5,-105.5 4.5,-126.5 117.5,-126.5 117.5,-105.5 4.5,-105.5"/>
<text text-anchor="middle" x="61" y="-113.5" font-family="Helvetica,sans-Serif" font-size="10.00">ant::analysis::Physics</text>
</a>
</g>
<!-- Node2&#45;&gt;Node1 -->
<g id="edge2" class="edge"><title>Node2&#45;&gt;Node1</title>
<path fill="none" stroke="midnightblue" d="M81.2744,-98.5711C102.104,-80.6653 134.328,-52.9641 155.041,-35.1579"/>
<polygon fill="midnightblue" stroke="midnightblue" points="78.9371,-95.9648 73.6356,-105.138 83.5004,-101.273 78.9371,-95.9648"/>
</g>
<!-- Node3 -->
<g id="node4" class="node"><title>Node3</title>
<a xlink:href="classant_1_1analysis_1_1_smart_hist_factory.html" target="_top" xlink:title="ant::analysis::SmartHist\lFactory">
<polygon fill="white" stroke="black" points="0,-185 0,-219 122,-219 122,-185 0,-185"/>
<text text-anchor="start" x="8" y="-206" font-family="Helvetica,sans-Serif" font-size="10.00">ant::analysis::SmartHist</text>
<text text-anchor="middle" x="61" y="-193" font-family="Helvetica,sans-Serif" font-size="10.00">Factory</text>
</a>
</g>
<!-- Node3&#45;&gt;Node2 -->
<g id="edge4" class="edge"><title>Node3&#45;&gt;Node2</title>
<path fill="none" stroke="#9a32cd" stroke-dasharray="5,2" d="M61,-174.56C61,-158.365 61,-138.766 61,-126.848"/>
<polygon fill="#9a32cd" stroke="#9a32cd" points="57.5001,-174.597 61,-184.597 64.5001,-174.597 57.5001,-174.597"/>
<text text-anchor="middle" x="80" y="-156.5" font-family="Helvetica,sans-Serif" font-size="10.00"> HistFac</text>
</g>
<!-- Node4 -->
<g id="node6" class="node"><title>Node4</title>
<a xlink:href="structant_1_1analysis_1_1physics_1_1_particle_i_d_check_1_1branch__hists.html" target="_top" xlink:title="ant::analysis::physics\l::ParticleIDCheck::branch_hists">
<polygon fill="white" stroke="black" points="135,-99 135,-133 291,-133 291,-99 135,-99"/>
<text text-anchor="start" x="143" y="-120" font-family="Helvetica,sans-Serif" font-size="10.00">ant::analysis::physics</text>
<text text-anchor="middle" x="213" y="-107" font-family="Helvetica,sans-Serif" font-size="10.00">::ParticleIDCheck::branch_hists</text>
</a>
</g>
<!-- Node4&#45;&gt;Node1 -->
<g id="edge6" class="edge"><title>Node4&#45;&gt;Node1</title>
<path fill="none" stroke="#9a32cd" stroke-dasharray="5,2" d="M202.689,-89.408C196.001,-72.1594 187.482,-50.1896 181.671,-35.2035"/>
<polygon fill="#9a32cd" stroke="#9a32cd" points="199.502,-90.8715 206.381,-98.9297 206.029,-88.3407 199.502,-90.8715"/>
<text text-anchor="middle" x="215" y="-71" font-family="Helvetica,sans-Serif" font-size="10.00"> mctrue</text>
<text text-anchor="middle" x="215" y="-58" font-family="Helvetica,sans-Serif" font-size="10.00">rec</text>
</g>
</g>
</svg>
