<?xml version="1.0" encoding="UTF-8" standalone="no"?>
<!DOCTYPE svg PUBLIC "-//W3C//DTD SVG 1.1//EN"
 "http://www.w3.org/Graphics/SVG/1.1/DTD/svg11.dtd">
<!-- Generated by graphviz version 2.26.3 (20100126.1600)
 -->
<!-- Title: ant::analysis::RecoCheck Pages: 1 -->
<svg width="263pt" height="188pt"
 viewBox="0.00 0.00 263.00 188.00" xmlns="http://www.w3.org/2000/svg" xmlns:xlink="http://www.w3.org/1999/xlink">
<g id="graph1" class="graph" transform="scale(1 1) rotate(0) translate(4 184)">
<title>ant::analysis::RecoCheck</title>
<polygon fill="white" stroke="white" points="-4,5 -4,-184 260,-184 260,5 -4,5"/>
<!-- Node1 -->
<g id="node1" class="node"><title>Node1</title>
<polygon fill="#bfbfbf" stroke="black" points="75,-0.5 75,-21.5 205,-21.5 205,-0.5 75,-0.5"/>
<text text-anchor="middle" x="140" y="-8.5" font-family="Helvetica,sans-Serif" font-size="10.00">ant::analysis::RecoCheck</text>
</g>
<!-- Node2 -->
<g id="node2" class="node"><title>Node2</title>
<a xlink:href="classant_1_1analysis_1_1_physics.html" target="_top" xlink:title="ant::analysis::Physics">
<polygon fill="white" stroke="black" points="4.5,-72.5 4.5,-93.5 117.5,-93.5 117.5,-72.5 4.5,-72.5"/>
<text text-anchor="middle" x="61" y="-80.5" font-family="Helvetica,sans-Serif" font-size="10.00">ant::analysis::Physics</text>
</a>
</g>
<!-- Node2&#45;&gt;Node1 -->
<g id="edge2" class="edge"><title>Node2&#45;&gt;Node1</title>
<path fill="none" stroke="midnightblue" d="M80.3673,-65.3488C95.3744,-51.6714 115.674,-33.1709 128.295,-21.6674"/>
<polygon fill="midnightblue" stroke="midnightblue" points="77.6901,-63.0533 72.6567,-72.3762 82.4053,-68.2269 77.6901,-63.0533"/>
</g>
<!-- Node3 -->
<g id="node4" class="node"><title>Node3</title>
<a xlink:href="classant_1_1analysis_1_1_smart_hist_factory.html" target="_top" xlink:title="ant::analysis::SmartHist\lFactory">
<polygon fill="white" stroke="black" points="0,-145 0,-179 122,-179 122,-145 0,-145"/>
<text text-anchor="start" x="8" y="-166" font-family="Helvetica,sans-Serif" font-size="10.00">ant::analysis::SmartHist</text>
<text text-anchor="middle" x="61" y="-153" font-family="Helvetica,sans-Serif" font-size="10.00">Factory</text>
</a>
</g>
<!-- Node3&#45;&gt;Node2 -->
<g id="edge4" class="edge"><title>Node3&#45;&gt;Node2</title>
<path fill="none" stroke="#9a32cd" stroke-dasharray="5,2" d="M61,-134.623C61,-120.473 61,-104.024 61,-93.5672"/>
<polygon fill="#9a32cd" stroke="#9a32cd" points="57.5001,-134.858 61,-144.858 64.5001,-134.858 57.5001,-134.858"/>
<text text-anchor="middle" x="80" y="-116.5" font-family="Helvetica,sans-Serif" font-size="10.00"> HistFac</text>
</g>
<!-- Node4 -->
<g id="node6" class="node"><title>Node4</title>
<a xlink:href="classant_1_1interval.html" target="_top" xlink:title="ant::interval\&lt; radian_t \&gt;">
<polygon fill="white" stroke="black" points="135,-72.5 135,-93.5 255,-93.5 255,-72.5 135,-72.5"/>
<text text-anchor="middle" x="195" y="-80.5" font-family="Helvetica,sans-Serif" font-size="10.00">ant::interval&lt; radian_t &gt;</text>
</a>
</g>
<!-- Node4&#45;&gt;Node1 -->
<g id="edge6" class="edge"><title>Node4&#45;&gt;Node1</title>
<path fill="none" stroke="#9a32cd" stroke-dasharray="5,2" d="M180.637,-64.1981C170.287,-50.649 156.692,-32.8514 148.149,-21.6674"/>
<polygon fill="#9a32cd" stroke="#9a32cd" points="178.033,-66.5541 186.885,-72.3762 183.595,-62.3048 178.033,-66.5541"/>
<text text-anchor="middle" x="193.5" y="-44.5" font-family="Helvetica,sans-Serif" font-size="10.00"> cb_angle</text>
</g>
<!-- Node5 -->
<g id="node8" class="node"><title>Node5</title>
<a xlink:href="classant_1_1printable__traits.html" target="_top" xlink:title="ant::printable_traits">
<polygon fill="white" stroke="black" points="145,-151.5 145,-172.5 245,-172.5 245,-151.5 145,-151.5"/>
<text text-anchor="middle" x="195" y="-159.5" font-family="Helvetica,sans-Serif" font-size="10.00">ant::printable_traits</text>
</a>
</g>
<!-- Node5&#45;&gt;Node4 -->
<g id="edge8" class="edge"><title>Node5&#45;&gt;Node4</title>
<path fill="none" stroke="midnightblue" d="M195,-141.284C195,-126.031 195,-105.907 195,-93.7378"/>
<polygon fill="midnightblue" stroke="midnightblue" points="191.5,-141.346 195,-151.346 198.5,-141.346 191.5,-141.346"/>
</g>
</g>
</svg>
