<?xml version="1.0" encoding="UTF-8" standalone="no"?>
<!DOCTYPE svg PUBLIC "-//W3C//DTD SVG 1.1//EN"
 "http://www.w3.org/Graphics/SVG/1.1/DTD/svg11.dtd">
<!-- Generated by graphviz version 2.26.3 (20100126.1600)
 -->
<!-- Title: ant::ReconstructHook::Base Pages: 1 -->
<svg width="606pt" height="322pt"
 viewBox="0.00 0.00 606.00 322.00" xmlns="http://www.w3.org/2000/svg" xmlns:xlink="http://www.w3.org/1999/xlink">
<g id="graph1" class="graph" transform="scale(1 1) rotate(0) translate(4 318)">
<title>ant::ReconstructHook::Base</title>
<polygon fill="white" stroke="white" points="-4,5 -4,-318 603,-318 603,5 -4,5"/>
<!-- Node1 -->
<g id="node1" class="node"><title>Node1</title>
<polygon fill="#bfbfbf" stroke="black" points="0.5,-228 0.5,-262 113.5,-262 113.5,-228 0.5,-228"/>
<text text-anchor="start" x="8.5" y="-249" font-family="Helvetica,sans-Serif" font-size="10.00">ant::ReconstructHook</text>
<text text-anchor="middle" x="57" y="-236" font-family="Helvetica,sans-Serif" font-size="10.00">::Base</text>
</g>
<!-- Node2 -->
<g id="node3" class="node"><title>Node2</title>
<a xlink:href="classant_1_1_reconstruct_hook_1_1_cluster_hits.html" target="_top" xlink:title="The ClusterHits class instances are applied before clustering and after hit matching. ">
<polygon fill="white" stroke="black" points="150.5,-280 150.5,-314 263.5,-314 263.5,-280 150.5,-280"/>
<text text-anchor="start" x="158.5" y="-301" font-family="Helvetica,sans-Serif" font-size="10.00">ant::ReconstructHook</text>
<text text-anchor="middle" x="207" y="-288" font-family="Helvetica,sans-Serif" font-size="10.00">::ClusterHits</text>
</a>
</g>
<!-- Node1&#45;&gt;Node2 -->
<g id="edge2" class="edge"><title>Node1&#45;&gt;Node2</title>
<path fill="none" stroke="midnightblue" d="M115.617,-265.321C129.561,-270.154 144.299,-275.264 157.774,-279.935"/>
<polygon fill="midnightblue" stroke="midnightblue" points="116.71,-261.995 106.116,-262.027 114.418,-268.609 116.71,-261.995"/>
</g>
<!-- Node4 -->
<g id="node7" class="node"><title>Node4</title>
<a xlink:href="classant_1_1_reconstruct_hook_1_1_clusters.html" target="_top" xlink:title="The Clusters class instances are applied before candidate matching and after clustering. ">
<polygon fill="white" stroke="black" points="150.5,-228 150.5,-262 263.5,-262 263.5,-228 150.5,-228"/>
<text text-anchor="start" x="158.5" y="-249" font-family="Helvetica,sans-Serif" font-size="10.00">ant::ReconstructHook</text>
<text text-anchor="middle" x="207" y="-236" font-family="Helvetica,sans-Serif" font-size="10.00">::Clusters</text>
</a>
</g>
<!-- Node1&#45;&gt;Node4 -->
<g id="edge6" class="edge"><title>Node1&#45;&gt;Node4</title>
<path fill="none" stroke="midnightblue" d="M123.916,-245C132.694,-245 141.622,-245 150.211,-245"/>
<polygon fill="midnightblue" stroke="midnightblue" points="123.709,-241.5 113.709,-245 123.709,-248.5 123.709,-241.5"/>
</g>
<!-- Node6 -->
<g id="node11" class="node"><title>Node6</title>
<a xlink:href="classant_1_1_reconstruct_hook_1_1_detector_read_hits.html" target="_top" xlink:title="The DetectorReadHits class instances are applied before hit matching. ">
<polygon fill="white" stroke="black" points="150.5,-101 150.5,-135 263.5,-135 263.5,-101 150.5,-101"/>
<text text-anchor="start" x="158.5" y="-122" font-family="Helvetica,sans-Serif" font-size="10.00">ant::ReconstructHook</text>
<text text-anchor="middle" x="207" y="-109" font-family="Helvetica,sans-Serif" font-size="10.00">::DetectorReadHits</text>
</a>
</g>
<!-- Node1&#45;&gt;Node6 -->
<g id="edge10" class="edge"><title>Node1&#45;&gt;Node6</title>
<path fill="none" stroke="midnightblue" d="M85.0995,-221.209C114.63,-196.206 160.365,-157.484 186.612,-135.262"/>
<polygon fill="midnightblue" stroke="midnightblue" points="82.6,-218.739 77.2297,-227.872 87.1232,-224.082 82.6,-218.739"/>
</g>
<!-- Node3 -->
<g id="node5" class="node"><title>Node3</title>
<a xlink:href="classant_1_1calibration_1_1_c_b___time_walk.html" target="_top" xlink:title="ant::calibration::CB\l_TimeWalk">
<polygon fill="white" stroke="black" points="313.5,-280 313.5,-314 414.5,-314 414.5,-280 313.5,-280"/>
<text text-anchor="start" x="321.5" y="-301" font-family="Helvetica,sans-Serif" font-size="10.00">ant::calibration::CB</text>
<text text-anchor="middle" x="364" y="-288" font-family="Helvetica,sans-Serif" font-size="10.00">_TimeWalk</text>
</a>
</g>
<!-- Node2&#45;&gt;Node3 -->
<g id="edge4" class="edge"><title>Node2&#45;&gt;Node3</title>
<path fill="none" stroke="midnightblue" d="M273.724,-297C287.009,-297 300.755,-297 313.392,-297"/>
<polygon fill="midnightblue" stroke="midnightblue" points="273.681,-293.5 263.681,-297 273.681,-300.5 273.681,-293.5"/>
</g>
<!-- Node5 -->
<g id="node9" class="node"><title>Node5</title>
<a xlink:href="classant_1_1calibration_1_1_t_a_p_s___shower_correction.html" target="_top" xlink:title="ant::calibration::TAPS\l_ShowerCorrection">
<polygon fill="white" stroke="black" points="307.5,-228 307.5,-262 420.5,-262 420.5,-228 307.5,-228"/>
<text text-anchor="start" x="315.5" y="-249" font-family="Helvetica,sans-Serif" font-size="10.00">ant::calibration::TAPS</text>
<text text-anchor="middle" x="364" y="-236" font-family="Helvetica,sans-Serif" font-size="10.00">_ShowerCorrection</text>
</a>
</g>
<!-- Node4&#45;&gt;Node5 -->
<g id="edge8" class="edge"><title>Node4&#45;&gt;Node5</title>
<path fill="none" stroke="midnightblue" d="M273.83,-245C285.009,-245 296.512,-245 307.403,-245"/>
<polygon fill="midnightblue" stroke="midnightblue" points="273.681,-241.5 263.681,-245 273.681,-248.5 273.681,-241.5"/>
</g>
<!-- Node7 -->
<g id="node13" class="node"><title>Node7</title>
<a xlink:href="structant_1_1calibration_1_1converter_1_1_c_a_t_c_h___t_d_c.html" target="_top" xlink:title="ant::calibration::converter\l::CATCH_TDC">
<polygon fill="white" stroke="black" points="300.5,-176 300.5,-210 427.5,-210 427.5,-176 300.5,-176"/>
<text text-anchor="start" x="308.5" y="-197" font-family="Helvetica,sans-Serif" font-size="10.00">ant::calibration::converter</text>
<text text-anchor="middle" x="364" y="-184" font-family="Helvetica,sans-Serif" font-size="10.00">::CATCH_TDC</text>
</a>
</g>
<!-- Node6&#45;&gt;Node7 -->
<g id="edge12" class="edge"><title>Node6&#45;&gt;Node7</title>
<path fill="none" stroke="midnightblue" d="M246.847,-140.105C263.143,-148.852 282.295,-158.764 300,-167 306.524,-170.035 313.506,-173.076 320.372,-175.952"/>
<polygon fill="midnightblue" stroke="midnightblue" points="248.076,-136.79 237.615,-135.111 244.745,-142.947 248.076,-136.79"/>
</g>
<!-- Node8 -->
<g id="node15" class="node"><title>Node8</title>
<a xlink:href="structant_1_1calibration_1_1converter_1_1_scaler_frequency.html" target="_top" xlink:title="ant::calibration::converter\l::ScalerFrequency">
<polygon fill="white" stroke="black" points="300.5,-124 300.5,-158 427.5,-158 427.5,-124 300.5,-124"/>
<text text-anchor="start" x="308.5" y="-145" font-family="Helvetica,sans-Serif" font-size="10.00">ant::calibration::converter</text>
<text text-anchor="middle" x="364" y="-132" font-family="Helvetica,sans-Serif" font-size="10.00">::ScalerFrequency</text>
</a>
</g>
<!-- Node6&#45;&gt;Node8 -->
<g id="edge14" class="edge"><title>Node6&#45;&gt;Node8</title>
<path fill="none" stroke="midnightblue" d="M273.619,-127.759C282.522,-129.064 291.633,-130.399 300.482,-131.695"/>
<polygon fill="midnightblue" stroke="midnightblue" points="274.082,-124.29 263.681,-126.304 273.068,-131.216 274.082,-124.29"/>
</g>
<!-- Node9 -->
<g id="node17" class="node"><title>Node9</title>
<a xlink:href="classant_1_1calibration_1_1_energy.html" target="_top" xlink:title="ant::calibration::Energy">
<polygon fill="white" stroke="black" points="305.5,-84.5 305.5,-105.5 422.5,-105.5 422.5,-84.5 305.5,-84.5"/>
<text text-anchor="middle" x="364" y="-92.5" font-family="Helvetica,sans-Serif" font-size="10.00">ant::calibration::Energy</text>
</a>
</g>
<!-- Node6&#45;&gt;Node9 -->
<g id="edge16" class="edge"><title>Node6&#45;&gt;Node9</title>
<path fill="none" stroke="midnightblue" d="M273.648,-108.236C284.164,-106.696 294.97,-105.113 305.288,-103.601"/>
<polygon fill="midnightblue" stroke="midnightblue" points="273.068,-104.784 263.681,-109.696 274.082,-111.71 273.068,-104.784"/>
</g>
<!-- Node14 -->
<g id="node27" class="node"><title>Node14</title>
<a xlink:href="classant_1_1calibration_1_1_scaler.html" target="_top" xlink:title="ant::calibration::Scaler">
<polygon fill="white" stroke="black" points="307,-44.5 307,-65.5 421,-65.5 421,-44.5 307,-44.5"/>
<text text-anchor="middle" x="364" y="-52.5" font-family="Helvetica,sans-Serif" font-size="10.00">ant::calibration::Scaler</text>
</a>
</g>
<!-- Node6&#45;&gt;Node14 -->
<g id="edge26" class="edge"><title>Node6&#45;&gt;Node14</title>
<path fill="none" stroke="midnightblue" d="M250.317,-96.5491C265.804,-89.2607 283.506,-81.3591 300,-75 308.798,-71.608 318.436,-68.3602 327.501,-65.505"/>
<polygon fill="midnightblue" stroke="midnightblue" points="248.515,-93.5302 240.991,-100.989 251.524,-99.8506 248.515,-93.5302"/>
</g>
<!-- Node15 -->
<g id="node29" class="node"><title>Node15</title>
<a xlink:href="classant_1_1calibration_1_1_time.html" target="_top" xlink:title="ant::calibration::Time">
<polygon fill="white" stroke="black" points="310,-4.5 310,-25.5 418,-25.5 418,-4.5 310,-4.5"/>
<text text-anchor="middle" x="364" y="-12.5" font-family="Helvetica,sans-Serif" font-size="10.00">ant::calibration::Time</text>
</a>
</g>
<!-- Node6&#45;&gt;Node15 -->
<g id="edge28" class="edge"><title>Node6&#45;&gt;Node15</title>
<path fill="none" stroke="midnightblue" d="M229.123,-93.2095C246.718,-74.8369 272.82,-50.4095 300,-35 306.582,-31.2681 313.948,-28.142 321.275,-25.5546"/>
<polygon fill="midnightblue" stroke="midnightblue" points="226.414,-90.9812 222.124,-100.669 231.519,-95.7707 226.414,-90.9812"/>
</g>
<!-- Node10 -->
<g id="node19" class="node"><title>Node10</title>
<a xlink:href="classant_1_1calibration_1_1_c_b___energy.html" target="_top" xlink:title="ant::calibration::CB\l_Energy">
<polygon fill="white" stroke="black" points="480.5,-156 480.5,-190 581.5,-190 581.5,-156 480.5,-156"/>
<text text-anchor="start" x="488.5" y="-177" font-family="Helvetica,sans-Serif" font-size="10.00">ant::calibration::CB</text>
<text text-anchor="middle" x="531" y="-164" font-family="Helvetica,sans-Serif" font-size="10.00">_Energy</text>
</a>
</g>
<!-- Node9&#45;&gt;Node10 -->
<g id="edge18" class="edge"><title>Node9&#45;&gt;Node10</title>
<path fill="none" stroke="midnightblue" d="M416.29,-109.274C420.343,-111 424.295,-112.905 428,-115 446.633,-125.539 445.732,-135.84 464,-147 469.324,-150.252 475.124,-153.226 481.011,-155.906"/>
<polygon fill="midnightblue" stroke="midnightblue" points="417.308,-105.914 406.719,-105.566 414.779,-112.442 417.308,-105.914"/>
</g>
<!-- Node11 -->
<g id="node21" class="node"><title>Node11</title>
<a xlink:href="classant_1_1calibration_1_1_p_i_d___energy.html" target="_top" xlink:title="ant::calibration::PID\l_Energy">
<polygon fill="white" stroke="black" points="479,-104 479,-138 583,-138 583,-104 479,-104"/>
<text text-anchor="start" x="487" y="-125" font-family="Helvetica,sans-Serif" font-size="10.00">ant::calibration::PID</text>
<text text-anchor="middle" x="531" y="-112" font-family="Helvetica,sans-Serif" font-size="10.00">_Energy</text>
</a>
</g>
<!-- Node9&#45;&gt;Node11 -->
<g id="edge20" class="edge"><title>Node9&#45;&gt;Node11</title>
<path fill="none" stroke="midnightblue" d="M432.842,-105.718C448.189,-108.107 464.218,-110.603 478.767,-112.868"/>
<polygon fill="midnightblue" stroke="midnightblue" points="433.297,-102.247 422.878,-104.167 432.22,-109.163 433.297,-102.247"/>
</g>
<!-- Node12 -->
<g id="node23" class="node"><title>Node12</title>
<a xlink:href="classant_1_1calibration_1_1_t_a_p_s___energy.html" target="_top" xlink:title="ant::calibration::TAPS\l_Energy">
<polygon fill="white" stroke="black" points="474.5,-52 474.5,-86 587.5,-86 587.5,-52 474.5,-52"/>
<text text-anchor="start" x="482.5" y="-73" font-family="Helvetica,sans-Serif" font-size="10.00">ant::calibration::TAPS</text>
<text text-anchor="middle" x="531" y="-60" font-family="Helvetica,sans-Serif" font-size="10.00">_Energy</text>
</a>
</g>
<!-- Node9&#45;&gt;Node12 -->
<g id="edge22" class="edge"><title>Node9&#45;&gt;Node12</title>
<path fill="none" stroke="midnightblue" d="M432.815,-84.2863C446.627,-82.1359 460.993,-79.8993 474.336,-77.822"/>
<polygon fill="midnightblue" stroke="midnightblue" points="432.22,-80.8366 422.878,-85.8334 433.297,-87.7533 432.22,-80.8366"/>
</g>
<!-- Node13 -->
<g id="node25" class="node"><title>Node13</title>
<a xlink:href="classant_1_1calibration_1_1_t_a_p_s_veto___energy.html" target="_top" xlink:title="ant::calibration::TAPSVeto\l_Energy">
<polygon fill="white" stroke="black" points="464.5,-0 464.5,-34 597.5,-34 597.5,-0 464.5,-0"/>
<text text-anchor="start" x="472.5" y="-21" font-family="Helvetica,sans-Serif" font-size="10.00">ant::calibration::TAPSVeto</text>
<text text-anchor="middle" x="531" y="-8" font-family="Helvetica,sans-Serif" font-size="10.00">_Energy</text>
</a>
</g>
<!-- Node9&#45;&gt;Node13 -->
<g id="edge24" class="edge"><title>Node9&#45;&gt;Node13</title>
<path fill="none" stroke="midnightblue" d="M416.29,-80.7263C420.343,-79.0003 424.295,-77.0955 428,-75 446.633,-64.4606 445.732,-54.1602 464,-43 469.324,-39.7477 475.124,-36.774 481.011,-34.0941"/>
<polygon fill="midnightblue" stroke="midnightblue" points="414.779,-77.5583 406.719,-84.4345 417.308,-84.0856 414.779,-77.5583"/>
</g>
</g>
</svg>
