<?xml version="1.0" encoding="UTF-8" standalone="no"?>
<!DOCTYPE svg PUBLIC "-//W3C//DTD SVG 1.1//EN"
 "http://www.w3.org/Graphics/SVG/1.1/DTD/svg11.dtd">
<!-- Generated by graphviz version 2.26.3 (20100126.1600)
 -->
<!-- Title: ant::ExpConfig::Setup Pages: 1 -->
<svg width="738pt" height="146pt"
 viewBox="0.00 0.00 738.00 146.00" xmlns="http://www.w3.org/2000/svg" xmlns:xlink="http://www.w3.org/1999/xlink">
<g id="graph1" class="graph" transform="scale(1 1) rotate(0) translate(4 142)">
<title>ant::ExpConfig::Setup</title>
<polygon fill="white" stroke="white" points="-4,5 -4,-142 735,-142 735,5 -4,5"/>
<!-- Node1 -->
<g id="node1" class="node"><title>Node1</title>
<polygon fill="#bfbfbf" stroke="black" points="146.5,-32.5 146.5,-53.5 259.5,-53.5 259.5,-32.5 146.5,-32.5"/>
<text text-anchor="middle" x="203" y="-40.5" font-family="Helvetica,sans-Serif" font-size="10.00">ant::ExpConfig::Setup</text>
</g>
<!-- Node3 -->
<g id="node5" class="node"><title>Node3</title>
<a xlink:href="classant_1_1expconfig_1_1_setup.html" target="_top" xlink:title="The Setup class serves as a base class for all known beamtime setup configurations. ">
<polygon fill="white" stroke="black" points="296,-32.5 296,-53.5 406,-53.5 406,-32.5 296,-32.5"/>
<text text-anchor="middle" x="351" y="-40.5" font-family="Helvetica,sans-Serif" font-size="10.00">ant::expconfig::Setup</text>
</a>
</g>
<!-- Node1&#45;&gt;Node3 -->
<g id="edge4" class="edge"><title>Node1&#45;&gt;Node3</title>
<path fill="none" stroke="midnightblue" d="M269.819,-43C278.43,-43 287.173,-43 295.575,-43"/>
<polygon fill="midnightblue" stroke="midnightblue" points="269.797,-39.5001 259.797,-43 269.797,-46.5001 269.797,-39.5001"/>
</g>
<!-- Node2 -->
<g id="node2" class="node"><title>Node2</title>
<a xlink:href="classant_1_1_exp_config_1_1_base.html" target="_top" xlink:title="ant::ExpConfig::Base">
<polygon fill="white" stroke="black" points="0,-32.5 0,-53.5 110,-53.5 110,-32.5 0,-32.5"/>
<text text-anchor="middle" x="55" y="-40.5" font-family="Helvetica,sans-Serif" font-size="10.00">ant::ExpConfig::Base</text>
</a>
</g>
<!-- Node2&#45;&gt;Node1 -->
<g id="edge2" class="edge"><title>Node2&#45;&gt;Node1</title>
<path fill="none" stroke="midnightblue" d="M120.23,-43C128.94,-43 137.814,-43 146.361,-43"/>
<polygon fill="midnightblue" stroke="midnightblue" points="120.11,-39.5001 110.11,-43 120.11,-46.5001 120.11,-39.5001"/>
</g>
<!-- Node4 -->
<g id="node7" class="node"><title>Node4</title>
<a xlink:href="classant_1_1expconfig_1_1setup_1_1_setup__2014___e_p_t.html" target="_top" xlink:title="ant::expconfig::setup\l::Setup_2014_EPT">
<polygon fill="white" stroke="black" points="444,-52 444,-86 552,-86 552,-52 444,-52"/>
<text text-anchor="start" x="452" y="-73" font-family="Helvetica,sans-Serif" font-size="10.00">ant::expconfig::setup</text>
<text text-anchor="middle" x="498" y="-60" font-family="Helvetica,sans-Serif" font-size="10.00">::Setup_2014_EPT</text>
</a>
</g>
<!-- Node3&#45;&gt;Node4 -->
<g id="edge6" class="edge"><title>Node3&#45;&gt;Node4</title>
<path fill="none" stroke="midnightblue" d="M416.152,-54.5235C425.456,-56.1691 434.941,-57.8467 444,-59.4489"/>
<polygon fill="midnightblue" stroke="midnightblue" points="416.612,-51.0507 406.156,-52.7554 415.393,-57.9437 416.612,-51.0507"/>
</g>
<!-- Node8 -->
<g id="node15" class="node"><title>Node8</title>
<a xlink:href="classant_1_1expconfig_1_1setup_1_1_setup__2015__dummy.html" target="_top" xlink:title="ant::expconfig::setup\l::Setup_2015_dummy">
<polygon fill="white" stroke="black" points="442,-0 442,-34 554,-34 554,-0 442,-0"/>
<text text-anchor="start" x="450" y="-21" font-family="Helvetica,sans-Serif" font-size="10.00">ant::expconfig::setup</text>
<text text-anchor="middle" x="498" y="-8" font-family="Helvetica,sans-Serif" font-size="10.00">::Setup_2015_dummy</text>
</a>
</g>
<!-- Node3&#45;&gt;Node8 -->
<g id="edge14" class="edge"><title>Node3&#45;&gt;Node8</title>
<path fill="none" stroke="midnightblue" d="M416.042,-31.4959C424.548,-29.9915 433.207,-28.46 441.555,-26.9834"/>
<polygon fill="midnightblue" stroke="midnightblue" points="415.393,-28.0563 406.156,-33.2446 416.612,-34.9493 415.393,-28.0563"/>
</g>
<!-- Node5 -->
<g id="node9" class="node"><title>Node5</title>
<a xlink:href="classant_1_1expconfig_1_1setup_1_1_setup__2014__07___e_p_t___prod.html" target="_top" xlink:title="ant::expconfig::setup\l::Setup_2014_07_EPT_Prod">
<polygon fill="white" stroke="black" points="590,-104 590,-138 730,-138 730,-104 590,-104"/>
<text text-anchor="start" x="598" y="-125" font-family="Helvetica,sans-Serif" font-size="10.00">ant::expconfig::setup</text>
<text text-anchor="middle" x="660" y="-112" font-family="Helvetica,sans-Serif" font-size="10.00">::Setup_2014_07_EPT_Prod</text>
</a>
</g>
<!-- Node4&#45;&gt;Node5 -->
<g id="edge8" class="edge"><title>Node4&#45;&gt;Node5</title>
<path fill="none" stroke="midnightblue" d="M560.872,-89.1812C576.06,-94.0562 592.143,-99.2189 606.836,-103.935"/>
<polygon fill="midnightblue" stroke="midnightblue" points="561.636,-85.7506 551.045,-86.0267 559.497,-92.4156 561.636,-85.7506"/>
</g>
<!-- Node6 -->
<g id="node11" class="node"><title>Node6</title>
<a xlink:href="classant_1_1expconfig_1_1setup_1_1_setup__2014__10___e_p_t___prod.html" target="_top" xlink:title="ant::expconfig::setup\l::Setup_2014_10_EPT_Prod">
<polygon fill="white" stroke="black" points="590,-52 590,-86 730,-86 730,-52 590,-52"/>
<text text-anchor="start" x="598" y="-73" font-family="Helvetica,sans-Serif" font-size="10.00">ant::expconfig::setup</text>
<text text-anchor="middle" x="660" y="-60" font-family="Helvetica,sans-Serif" font-size="10.00">::Setup_2014_10_EPT_Prod</text>
</a>
</g>
<!-- Node4&#45;&gt;Node6 -->
<g id="edge10" class="edge"><title>Node4&#45;&gt;Node6</title>
<path fill="none" stroke="midnightblue" d="M562.445,-69C571.477,-69 580.796,-69 589.926,-69"/>
<polygon fill="midnightblue" stroke="midnightblue" points="562.394,-65.5001 552.394,-69 562.394,-72.5001 562.394,-65.5001"/>
</g>
<!-- Node7 -->
<g id="node13" class="node"><title>Node7</title>
<a xlink:href="classant_1_1expconfig_1_1setup_1_1_setup__2014__12___e_p_t___prod.html" target="_top" xlink:title="ant::expconfig::setup\l::Setup_2014_12_EPT_Prod">
<polygon fill="white" stroke="black" points="590,-0 590,-34 730,-34 730,-0 590,-0"/>
<text text-anchor="start" x="598" y="-21" font-family="Helvetica,sans-Serif" font-size="10.00">ant::expconfig::setup</text>
<text text-anchor="middle" x="660" y="-8" font-family="Helvetica,sans-Serif" font-size="10.00">::Setup_2014_12_EPT_Prod</text>
</a>
</g>
<!-- Node4&#45;&gt;Node7 -->
<g id="edge12" class="edge"><title>Node4&#45;&gt;Node7</title>
<path fill="none" stroke="midnightblue" d="M560.872,-48.8188C576.06,-43.9438 592.143,-38.7811 606.836,-34.065"/>
<polygon fill="midnightblue" stroke="midnightblue" points="559.497,-45.5844 551.045,-51.9733 561.636,-52.2494 559.497,-45.5844"/>
</g>
</g>
</svg>
