<?xml version="1.0" encoding="UTF-8" standalone="no"?>
<!DOCTYPE svg PUBLIC "-//W3C//DTD SVG 1.1//EN"
 "http://www.w3.org/Graphics/SVG/1.1/DTD/svg11.dtd">
<!-- Generated by graphviz version 2.26.3 (20100126.1600)
 -->
<!-- Title: ant::TH2TAPS Pages: 1 -->
<svg width="209pt" height="186pt"
 viewBox="0.00 0.00 209.00 186.00" xmlns="http://www.w3.org/2000/svg" xmlns:xlink="http://www.w3.org/1999/xlink">
<g id="graph1" class="graph" transform="scale(1 1) rotate(0) translate(4 182)">
<title>ant::TH2TAPS</title>
<polygon fill="white" stroke="white" points="-4,5 -4,-182 206,-182 206,5 -4,5"/>
<!-- Node1 -->
<g id="node1" class="node"><title>Node1</title>
<polygon fill="#bfbfbf" stroke="black" points="67.5,-0.5 67.5,-21.5 148.5,-21.5 148.5,-0.5 67.5,-0.5"/>
<text text-anchor="middle" x="108" y="-8.5" font-family="Helvetica,sans-Serif" font-size="10.00">ant::TH2TAPS</text>
</g>
<!-- Node2 -->
<g id="node2" class="node"><title>Node2</title>
<a xlink:href="classant_1_1_t_h2_crystals.html" target="_top" xlink:title="Base class for A2 Calorimeter display calsses. ">
<polygon fill="white" stroke="black" points="0,-84.5 0,-105.5 92,-105.5 92,-84.5 0,-84.5"/>
<text text-anchor="middle" x="46" y="-92.5" font-family="Helvetica,sans-Serif" font-size="10.00">ant::TH2Crystals</text>
</a>
</g>
<!-- Node2&#45;&gt;Node1 -->
<g id="edge2" class="edge"><title>Node2&#45;&gt;Node1</title>
<path fill="none" stroke="midnightblue" d="M59.7955,-76.3094C72.2366,-59.4537 90.088,-35.2678 100.211,-21.5523"/>
<polygon fill="midnightblue" stroke="midnightblue" points="56.9749,-74.2371 53.8523,-84.3613 62.6069,-78.3941 56.9749,-74.2371"/>
</g>
<!-- Node3 -->
<g id="node4" class="node"><title>Node3</title>
<polygon fill="white" stroke="#bfbfbf" points="18.5,-156.5 18.5,-177.5 73.5,-177.5 73.5,-156.5 18.5,-156.5"/>
<text text-anchor="middle" x="46" y="-164.5" font-family="Helvetica,sans-Serif" font-size="10.00">TH2Poly</text>
</g>
<!-- Node3&#45;&gt;Node2 -->
<g id="edge4" class="edge"><title>Node3&#45;&gt;Node2</title>
<path fill="none" stroke="midnightblue" d="M46,-146.235C46,-132.969 46,-116.319 46,-105.667"/>
<polygon fill="midnightblue" stroke="midnightblue" points="42.5001,-146.376 46,-156.376 49.5001,-146.376 42.5001,-146.376"/>
</g>
<!-- Node4 -->
<g id="node6" class="node"><title>Node4</title>
<a xlink:title="STL class. ">
<polygon fill="white" stroke="#bfbfbf" points="109.5,-84.5 109.5,-105.5 196.5,-105.5 196.5,-84.5 109.5,-84.5"/>
<text text-anchor="middle" x="153" y="-92.5" font-family="Helvetica,sans-Serif" font-size="10.00">std::vector&lt; T &gt;</text>
</a>
</g>
<!-- Node4&#45;&gt;Node1 -->
<g id="edge6" class="edge"><title>Node4&#45;&gt;Node1</title>
<path fill="none" stroke="#9a32cd" stroke-dasharray="5,2" d="M142.486,-75.3742C133.484,-58.5696 120.866,-35.0162 113.653,-21.5523"/>
<polygon fill="#9a32cd" stroke="#9a32cd" points="139.493,-77.1993 147.301,-84.3613 145.664,-73.8937 139.493,-77.1993"/>
<text text-anchor="middle" x="169" y="-57" font-family="Helvetica,sans-Serif" font-size="10.00"> pbwo4_shape</text>
<text text-anchor="middle" x="169" y="-44" font-family="Helvetica,sans-Serif" font-size="10.00">baf2_shape</text>
</g>
<!-- Node5 -->
<g id="node8" class="node"><title>Node5</title>
<polygon fill="white" stroke="#bfbfbf" points="138.5,-156.5 138.5,-177.5 167.5,-177.5 167.5,-156.5 138.5,-156.5"/>
<text text-anchor="middle" x="153" y="-164.5" font-family="Helvetica,sans-Serif" font-size="10.00">T</text>
</g>
<!-- Node5&#45;&gt;Node4 -->
<g id="edge8" class="edge"><title>Node5&#45;&gt;Node4</title>
<path fill="none" stroke="#9a32cd" stroke-dasharray="5,2" d="M153,-146.235C153,-132.969 153,-116.319 153,-105.667"/>
<polygon fill="#9a32cd" stroke="#9a32cd" points="149.5,-146.376 153,-156.376 156.5,-146.376 149.5,-146.376"/>
<text text-anchor="middle" x="174.5" y="-128.5" font-family="Helvetica,sans-Serif" font-size="10.00"> elements</text>
</g>
</g>
</svg>
