<?xml version="1.0" encoding="UTF-8" standalone="no"?>
<!DOCTYPE svg PUBLIC "-//W3C//DTD SVG 1.1//EN"
 "http://www.w3.org/Graphics/SVG/1.1/DTD/svg11.dtd">
<!-- Generated by graphviz version 2.26.3 (20100126.1600)
 -->
<!-- Title: ant::analysis::physics::OmegaEtaG Pages: 1 -->
<svg width="1056pt" height="265pt"
 viewBox="0.00 0.00 1056.00 265.00" xmlns="http://www.w3.org/2000/svg" xmlns:xlink="http://www.w3.org/1999/xlink">
<g id="graph1" class="graph" transform="scale(1 1) rotate(0) translate(4 261)">
<title>ant::analysis::physics::OmegaEtaG</title>
<polygon fill="white" stroke="white" points="-4,5 -4,-261 1053,-261 1053,5 -4,5"/>
<!-- Node1 -->
<g id="node1" class="node"><title>Node1</title>
<polygon fill="#bfbfbf" stroke="black" points="936,-109 936,-143 1048,-143 1048,-109 936,-109"/>
<text text-anchor="start" x="944" y="-130" font-family="Helvetica,sans-Serif" font-size="10.00">ant::analysis::physics</text>
<text text-anchor="middle" x="992" y="-117" font-family="Helvetica,sans-Serif" font-size="10.00">::OmegaEtaG</text>
</g>
<!-- Node2 -->
<g id="node2" class="node"><title>Node2</title>
<a xlink:href="classant_1_1analysis_1_1physics_1_1_omega_base.html" target="_top" xlink:title="ant::analysis::physics\l::OmegaBase">
<polygon fill="white" stroke="black" points="710,-193 710,-227 822,-227 822,-193 710,-193"/>
<text text-anchor="start" x="718" y="-214" font-family="Helvetica,sans-Serif" font-size="10.00">ant::analysis::physics</text>
<text text-anchor="middle" x="766" y="-201" font-family="Helvetica,sans-Serif" font-size="10.00">::OmegaBase</text>
</a>
</g>
<!-- Node2&#45;&gt;Node1 -->
<g id="edge2" class="edge"><title>Node2&#45;&gt;Node1</title>
<path fill="none" stroke="midnightblue" d="M832.085,-192.129C859.074,-184.172 890.376,-174.09 918,-163 932.396,-157.221 947.816,-149.732 960.833,-143.006"/>
<polygon fill="midnightblue" stroke="midnightblue" points="830.975,-188.807 822.352,-194.962 832.932,-195.528 830.975,-188.807"/>
</g>
<!-- Node3 -->
<g id="node4" class="node"><title>Node3</title>
<a xlink:href="classant_1_1analysis_1_1_physics.html" target="_top" xlink:title="ant::analysis::Physics">
<polygon fill="white" stroke="black" points="386.5,-228.5 386.5,-249.5 499.5,-249.5 499.5,-228.5 386.5,-228.5"/>
<text text-anchor="middle" x="443" y="-236.5" font-family="Helvetica,sans-Serif" font-size="10.00">ant::analysis::Physics</text>
</a>
</g>
<!-- Node3&#45;&gt;Node2 -->
<g id="edge4" class="edge"><title>Node3&#45;&gt;Node2</title>
<path fill="none" stroke="midnightblue" d="M509.915,-233.556C554.217,-229.889 613.595,-224.853 666,-220 680.246,-218.681 695.626,-217.181 709.951,-215.751"/>
<polygon fill="midnightblue" stroke="midnightblue" points="509.525,-230.077 499.847,-234.388 510.102,-237.053 509.525,-230.077"/>
</g>
<!-- Node4 -->
<g id="node6" class="node"><title>Node4</title>
<a xlink:href="classant_1_1analysis_1_1_smart_hist_factory.html" target="_top" xlink:title="ant::analysis::SmartHist\lFactory">
<polygon fill="white" stroke="black" points="138,-223 138,-257 260,-257 260,-223 138,-223"/>
<text text-anchor="start" x="146" y="-244" font-family="Helvetica,sans-Serif" font-size="10.00">ant::analysis::SmartHist</text>
<text text-anchor="middle" x="199" y="-231" font-family="Helvetica,sans-Serif" font-size="10.00">Factory</text>
</a>
</g>
<!-- Node4&#45;&gt;Node3 -->
<g id="edge6" class="edge"><title>Node4&#45;&gt;Node3</title>
<path fill="none" stroke="#9a32cd" stroke-dasharray="5,2" d="M270.457,-239.707C307.377,-239.556 351.799,-239.374 386.323,-239.232"/>
<polygon fill="#9a32cd" stroke="#9a32cd" points="270.242,-236.208 260.257,-239.749 270.271,-243.208 270.242,-236.208"/>
<text text-anchor="middle" x="313" y="-243" font-family="Helvetica,sans-Serif" font-size="10.00"> HistFac</text>
</g>
<!-- Node5 -->
<g id="node8" class="node"><title>Node5</title>
<a xlink:href="classant_1_1analysis_1_1utils_1_1_a2_simple_geometry.html" target="_top" xlink:title="ant::analysis::utils\l::A2SimpleGeometry">
<polygon fill="white" stroke="black" points="389.5,-175 389.5,-209 496.5,-209 496.5,-175 389.5,-175"/>
<text text-anchor="start" x="397.5" y="-196" font-family="Helvetica,sans-Serif" font-size="10.00">ant::analysis::utils</text>
<text text-anchor="middle" x="443" y="-183" font-family="Helvetica,sans-Serif" font-size="10.00">::A2SimpleGeometry</text>
</a>
</g>
<!-- Node5&#45;&gt;Node2 -->
<g id="edge8" class="edge"><title>Node5&#45;&gt;Node2</title>
<path fill="none" stroke="#9a32cd" stroke-dasharray="5,2" d="M507.039,-195.569C566.186,-198.865 653.192,-203.713 709.729,-206.864"/>
<polygon fill="#9a32cd" stroke="#9a32cd" points="506.879,-192.054 496.699,-194.993 506.489,-199.044 506.879,-192.054"/>
<text text-anchor="middle" x="602" y="-208" font-family="Helvetica,sans-Serif" font-size="10.00"> geo</text>
</g>
<!-- Node6 -->
<g id="node10" class="node"><title>Node6</title>
<a xlink:href="classant_1_1interval.html" target="_top" xlink:title="ant::interval\&lt; double \&gt;">
<polygon fill="white" stroke="black" points="142,-134.5 142,-155.5 256,-155.5 256,-134.5 142,-134.5"/>
<text text-anchor="middle" x="199" y="-142.5" font-family="Helvetica,sans-Serif" font-size="10.00">ant::interval&lt; double &gt;</text>
</a>
</g>
<!-- Node6&#45;&gt;Node1 -->
<g id="edge14" class="edge"><title>Node6&#45;&gt;Node1</title>
<path fill="none" stroke="#9a32cd" stroke-dasharray="5,2" d="M266.366,-137.015C334.685,-129.347 443.518,-118.311 538,-114 594.83,-111.407 609.121,-112.953 666,-114 760.707,-115.742 870.812,-120.33 935.771,-123.302"/>
<polygon fill="#9a32cd" stroke="#9a32cd" points="265.716,-133.566 256.173,-138.168 266.503,-140.521 265.716,-133.566"/>
<text text-anchor="middle" x="602" y="-118" font-family="Helvetica,sans-Serif" font-size="10.00"> omega_range</text>
</g>
<!-- Node6&#45;&gt;Node5 -->
<g id="edge10" class="edge"><title>Node6&#45;&gt;Node5</title>
<path fill="none" stroke="#9a32cd" stroke-dasharray="5,2" d="M263.741,-157.471C302.91,-165.015 352.264,-174.522 389.264,-181.649"/>
<polygon fill="#9a32cd" stroke="#9a32cd" points="264.24,-154.002 253.758,-155.548 262.916,-160.876 264.24,-154.002"/>
<text text-anchor="middle" x="313" y="-202" font-family="Helvetica,sans-Serif" font-size="10.00"> cb_phi_hem1</text>
<text text-anchor="middle" x="313" y="-189" font-family="Helvetica,sans-Serif" font-size="10.00">cb_theta_region</text>
<text text-anchor="middle" x="313" y="-176" font-family="Helvetica,sans-Serif" font-size="10.00">taps_region</text>
</g>
<!-- Node8 -->
<g id="node15" class="node"><title>Node8</title>
<a xlink:href="classant_1_1analysis_1_1_bin_settings.html" target="_top" xlink:title="ant::analysis::BinSettings">
<polygon fill="white" stroke="black" points="538,-136.5 538,-157.5 666,-157.5 666,-136.5 538,-136.5"/>
<text text-anchor="middle" x="602" y="-144.5" font-family="Helvetica,sans-Serif" font-size="10.00">ant::analysis::BinSettings</text>
</a>
</g>
<!-- Node6&#45;&gt;Node8 -->
<g id="edge18" class="edge"><title>Node6&#45;&gt;Node8</title>
<path fill="none" stroke="midnightblue" d="M266.666,-145.336C342.274,-145.711 463.769,-146.314 537.897,-146.682"/>
<polygon fill="midnightblue" stroke="midnightblue" points="266.329,-141.834 256.312,-145.284 266.295,-148.834 266.329,-141.834"/>
</g>
<!-- Node7 -->
<g id="node12" class="node"><title>Node7</title>
<a xlink:href="classant_1_1printable__traits.html" target="_top" xlink:title="ant::printable_traits">
<polygon fill="white" stroke="black" points="0,-134.5 0,-155.5 100,-155.5 100,-134.5 0,-134.5"/>
<text text-anchor="middle" x="50" y="-142.5" font-family="Helvetica,sans-Serif" font-size="10.00">ant::printable_traits</text>
</a>
</g>
<!-- Node7&#45;&gt;Node6 -->
<g id="edge12" class="edge"><title>Node7&#45;&gt;Node6</title>
<path fill="none" stroke="midnightblue" d="M110.303,-145C120.738,-145 131.558,-145 141.905,-145"/>
<polygon fill="midnightblue" stroke="midnightblue" points="110.029,-141.5 100.029,-145 110.029,-148.5 110.029,-141.5"/>
</g>
<!-- Node8&#45;&gt;Node1 -->
<g id="edge16" class="edge"><title>Node8&#45;&gt;Node1</title>
<path fill="none" stroke="#9a32cd" stroke-dasharray="5,2" d="M676.798,-142.972C752.409,-138.901 867.55,-132.701 935.74,-129.029"/>
<polygon fill="#9a32cd" stroke="#9a32cd" points="676.198,-139.5 666.401,-143.532 676.574,-146.489 676.198,-139.5"/>
<text text-anchor="middle" x="766" y="-159" font-family="Helvetica,sans-Serif" font-size="10.00"> mmbinning</text>
<text text-anchor="middle" x="766" y="-146" font-family="Helvetica,sans-Serif" font-size="10.00">imbinning</text>
</g>
<!-- Node9 -->
<g id="node18" class="node"><title>Node9</title>
<polygon fill="white" stroke="#bfbfbf" points="684.5,-27.5 684.5,-74.5 847.5,-74.5 847.5,-27.5 684.5,-27.5"/>
<text text-anchor="start" x="692.5" y="-61.5" font-family="Helvetica,sans-Serif" font-size="10.00">std::map&lt; std::string,</text>
<text text-anchor="start" x="692.5" y="-48.5" font-family="Helvetica,sans-Serif" font-size="10.00"> ant::analysis::physics</text>
<text text-anchor="middle" x="766" y="-35.5" font-family="Helvetica,sans-Serif" font-size="10.00">::OmegaEtaG::perDecayhists_t &gt;</text>
</g>
<!-- Node9&#45;&gt;Node1 -->
<g id="edge20" class="edge"><title>Node9&#45;&gt;Node1</title>
<path fill="none" stroke="#9a32cd" stroke-dasharray="5,2" d="M857.711,-59.5476C878.015,-63.2242 899.101,-68.4818 918,-76 937.881,-83.909 957.832,-97.8205 971.999,-108.965"/>
<polygon fill="#9a32cd" stroke="#9a32cd" points="858.264,-56.0915 847.819,-57.8667 857.091,-62.9925 858.264,-56.0915"/>
<text text-anchor="middle" x="892" y="-80" font-family="Helvetica,sans-Serif" font-size="10.00"> gg_decays</text>
</g>
<!-- Node10 -->
<g id="node20" class="node"><title>Node10</title>
<a xlink:title="STL class. ">
<polygon fill="white" stroke="#bfbfbf" points="413,-52.5 413,-73.5 473,-73.5 473,-52.5 413,-52.5"/>
<text text-anchor="middle" x="443" y="-60.5" font-family="Helvetica,sans-Serif" font-size="10.00">std::string</text>
</a>
</g>
<!-- Node10&#45;&gt;Node9 -->
<g id="edge22" class="edge"><title>Node10&#45;&gt;Node9</title>
<path fill="none" stroke="#9a32cd" stroke-dasharray="5,2" d="M483.196,-61.5066C533.231,-59.6478 619.92,-56.4271 684.167,-54.0402"/>
<polygon fill="#9a32cd" stroke="#9a32cd" points="482.96,-58.0129 473.097,-61.8818 483.22,-65.0081 482.96,-58.0129"/>
<text text-anchor="middle" x="602" y="-64" font-family="Helvetica,sans-Serif" font-size="10.00"> keys</text>
</g>
<!-- Node11 -->
<g id="node22" class="node"><title>Node11</title>
<a xlink:title="STL class. ">
<polygon fill="white" stroke="#bfbfbf" points="151.5,-46 151.5,-80 246.5,-80 246.5,-46 151.5,-46"/>
<text text-anchor="start" x="159.5" y="-67" font-family="Helvetica,sans-Serif" font-size="10.00">std::basic_string&lt;</text>
<text text-anchor="middle" x="199" y="-54" font-family="Helvetica,sans-Serif" font-size="10.00"> char &gt;</text>
</a>
</g>
<!-- Node11&#45;&gt;Node10 -->
<g id="edge24" class="edge"><title>Node11&#45;&gt;Node10</title>
<path fill="none" stroke="midnightblue" d="M256.761,-63C305.72,-63 373.988,-63 412.818,-63"/>
<polygon fill="midnightblue" stroke="midnightblue" points="256.625,-59.5001 246.625,-63 256.625,-66.5001 256.625,-59.5001"/>
</g>
<!-- Node12 -->
<g id="node24" class="node"><title>Node12</title>
<a xlink:href="structant_1_1analysis_1_1physics_1_1_omega_eta_g_1_1per_decayhists__t.html" target="_top" xlink:title="ant::analysis::physics\l::OmegaEtaG::perDecayhists_t">
<polygon fill="white" stroke="black" points="366,-0 366,-34 520,-34 520,-0 366,-0"/>
<text text-anchor="start" x="374" y="-21" font-family="Helvetica,sans-Serif" font-size="10.00">ant::analysis::physics</text>
<text text-anchor="middle" x="443" y="-8" font-family="Helvetica,sans-Serif" font-size="10.00">::OmegaEtaG::perDecayhists_t</text>
</a>
</g>
<!-- Node12&#45;&gt;Node9 -->
<g id="edge26" class="edge"><title>Node12&#45;&gt;Node9</title>
<path fill="none" stroke="#9a32cd" stroke-dasharray="5,2" d="M530.224,-24.4936C571.433,-28.2183 621.284,-32.9896 666,-38 672.002,-38.6726 678.203,-39.4 684.44,-40.1552"/>
<polygon fill="#9a32cd" stroke="#9a32cd" points="530.487,-21.0033 520.214,-23.5941 529.861,-27.9752 530.487,-21.0033"/>
<text text-anchor="middle" x="602" y="-42" font-family="Helvetica,sans-Serif" font-size="10.00"> elements</text>
</g>
</g>
</svg>
