<?xml version="1.0" encoding="UTF-8" standalone="no"?>
<!DOCTYPE svg PUBLIC "-//W3C//DTD SVG 1.1//EN"
 "http://www.w3.org/Graphics/SVG/1.1/DTD/svg11.dtd">
<!-- Generated by graphviz version 2.26.3 (20100126.1600)
 -->
<!-- Title: StringColorManager Pages: 1 -->
<svg width="248pt" height="262pt"
 viewBox="0.00 0.00 248.00 262.00" xmlns="http://www.w3.org/2000/svg" xmlns:xlink="http://www.w3.org/1999/xlink">
<g id="graph1" class="graph" transform="scale(1 1) rotate(0) translate(4 258)">
<title>StringColorManager</title>
<polygon fill="white" stroke="white" points="-4,5 -4,-258 245,-258 245,5 -4,5"/>
<!-- Node1 -->
<g id="node1" class="node"><title>Node1</title>
<polygon fill="#bfbfbf" stroke="black" points="99.5,-0.5 99.5,-21.5 202.5,-21.5 202.5,-0.5 99.5,-0.5"/>
<text text-anchor="middle" x="151" y="-8.5" font-family="Helvetica,sans-Serif" font-size="10.00">StringColorManager</text>
</g>
<!-- Node2 -->
<g id="node2" class="node"><title>Node2</title>
<polygon fill="white" stroke="#bfbfbf" points="0,-73 0,-107 110,-107 110,-73 0,-73"/>
<text text-anchor="start" x="8" y="-94" font-family="Helvetica,sans-Serif" font-size="10.00">std::map&lt; std::string,</text>
<text text-anchor="middle" x="55" y="-81" font-family="Helvetica,sans-Serif" font-size="10.00"> Color_t &gt;</text>
</g>
<!-- Node2&#45;&gt;Node1 -->
<g id="edge2" class="edge"><title>Node2&#45;&gt;Node1</title>
<path fill="none" stroke="#9a32cd" stroke-dasharray="5,2" d="M83.789,-66.3091C101.88,-51.422 124.33,-32.947 138.159,-21.5672"/>
<polygon fill="#9a32cd" stroke="#9a32cd" points="81.3282,-63.8013 75.8306,-72.8582 85.7762,-69.2065 81.3282,-63.8013"/>
<text text-anchor="middle" x="127.5" y="-44.5" font-family="Helvetica,sans-Serif" font-size="10.00"> used</text>
</g>
<!-- Node3 -->
<g id="node4" class="node"><title>Node3</title>
<a xlink:title="STL class. ">
<polygon fill="white" stroke="#bfbfbf" points="25,-158.5 25,-179.5 85,-179.5 85,-158.5 25,-158.5"/>
<text text-anchor="middle" x="55" y="-166.5" font-family="Helvetica,sans-Serif" font-size="10.00">std::string</text>
</a>
</g>
<!-- Node3&#45;&gt;Node2 -->
<g id="edge4" class="edge"><title>Node3&#45;&gt;Node2</title>
<path fill="none" stroke="#9a32cd" stroke-dasharray="5,2" d="M55,-148.162C55,-135.363 55,-119.171 55,-107.124"/>
<polygon fill="#9a32cd" stroke="#9a32cd" points="51.5001,-148.346 55,-158.346 58.5001,-148.346 51.5001,-148.346"/>
<text text-anchor="middle" x="67.5" y="-130.5" font-family="Helvetica,sans-Serif" font-size="10.00"> keys</text>
</g>
<!-- Node4 -->
<g id="node6" class="node"><title>Node4</title>
<a xlink:title="STL class. ">
<polygon fill="white" stroke="#bfbfbf" points="7.5,-219 7.5,-253 102.5,-253 102.5,-219 7.5,-219"/>
<text text-anchor="start" x="15.5" y="-240" font-family="Helvetica,sans-Serif" font-size="10.00">std::basic_string&lt;</text>
<text text-anchor="middle" x="55" y="-227" font-family="Helvetica,sans-Serif" font-size="10.00"> char &gt;</text>
</a>
</g>
<!-- Node4&#45;&gt;Node3 -->
<g id="edge6" class="edge"><title>Node4&#45;&gt;Node3</title>
<path fill="none" stroke="midnightblue" d="M55,-208.534C55,-198.306 55,-187.301 55,-179.506"/>
<polygon fill="midnightblue" stroke="midnightblue" points="51.5001,-208.746 55,-218.746 58.5001,-208.746 51.5001,-208.746"/>
</g>
<!-- Node5 -->
<g id="node8" class="node"><title>Node5</title>
<polygon fill="white" stroke="#bfbfbf" points="127.5,-79.5 127.5,-100.5 240.5,-100.5 240.5,-79.5 127.5,-79.5"/>
<text text-anchor="middle" x="184" y="-87.5" font-family="Helvetica,sans-Serif" font-size="10.00">std::vector&lt; Color_t &gt;</text>
</g>
<!-- Node5&#45;&gt;Node1 -->
<g id="edge8" class="edge"><title>Node5&#45;&gt;Node1</title>
<path fill="none" stroke="#9a32cd" stroke-dasharray="5,2" d="M175.531,-69.7264C169.138,-54.4222 160.618,-34.0253 155.485,-21.7378"/>
<polygon fill="#9a32cd" stroke="#9a32cd" points="172.465,-71.4675 179.549,-79.3457 178.925,-68.7693 172.465,-71.4675"/>
<text text-anchor="middle" x="179" y="-44.5" font-family="Helvetica,sans-Serif" font-size="10.00"> cols</text>
</g>
</g>
</svg>
