<?xml version="1.0" encoding="UTF-8" standalone="no"?>
<!DOCTYPE svg PUBLIC "-//W3C//DTD SVG 1.1//EN"
 "http://www.w3.org/Graphics/SVG/1.1/DTD/svg11.dtd">
<!-- Generated by graphviz version 2.26.3 (20100126.1600)
 -->
<!-- Title: src/analysis/utils/combinatorics.h Pages: 1 -->
<svg width="1726pt" height="116pt"
 viewBox="0.00 0.00 1726.00 116.00" xmlns="http://www.w3.org/2000/svg" xmlns:xlink="http://www.w3.org/1999/xlink">
<g id="graph1" class="graph" transform="scale(1 1) rotate(0) translate(4 112)">
<title>src/analysis/utils/combinatorics.h</title>
<polygon fill="white" stroke="white" points="-4,5 -4,-112 1723,-112 1723,5 -4,5"/>
<!-- Node1 -->
<g id="node1" class="node"><title>Node1</title>
<polygon fill="#bfbfbf" stroke="black" points="823,-73 823,-107 913,-107 913,-73 823,-73"/>
<text text-anchor="start" x="831" y="-94" font-family="Helvetica,sans-Serif" font-size="10.00">src/analysis/utils</text>
<text text-anchor="middle" x="868" y="-81" font-family="Helvetica,sans-Serif" font-size="10.00">/combinatorics.h</text>
</g>
<!-- Node2 -->
<g id="node3" class="node"><title>Node2</title>
<a xlink:href="_basic_8cc.html" target="_top" xlink:title="src/analysis/physics\l/misc/Basic.cc">
<polygon fill="white" stroke="black" points="0,-1 0,-35 106,-35 106,-1 0,-1"/>
<text text-anchor="start" x="8" y="-22" font-family="Helvetica,sans-Serif" font-size="10.00">src/analysis/physics</text>
<text text-anchor="middle" x="53" y="-9" font-family="Helvetica,sans-Serif" font-size="10.00">/misc/Basic.cc</text>
</a>
</g>
<!-- Node1&#45;&gt;Node2 -->
<g id="edge2" class="edge"><title>Node1&#45;&gt;Node2</title>
<path fill="none" stroke="midnightblue" d="M812.148,-87.5254C661.475,-80.6054 249.024,-59.9831 115,-36 112.131,-35.4867 109.206,-34.8919 106.265,-34.2376"/>
<polygon fill="midnightblue" stroke="midnightblue" points="812.387,-91.0399 822.536,-87.9998 812.706,-84.0472 812.387,-91.0399"/>
</g>
<!-- Node3 -->
<g id="node5" class="node"><title>Node3</title>
<a xlink:href="_m_c_overview_8cc.html" target="_top" xlink:title="src/analysis/physics\l/misc/MCOverview.cc">
<polygon fill="white" stroke="black" points="124,-1 124,-35 238,-35 238,-1 124,-1"/>
<text text-anchor="start" x="132" y="-22" font-family="Helvetica,sans-Serif" font-size="10.00">src/analysis/physics</text>
<text text-anchor="middle" x="181" y="-9" font-family="Helvetica,sans-Serif" font-size="10.00">/misc/MCOverview.cc</text>
</a>
</g>
<!-- Node1&#45;&gt;Node3 -->
<g id="edge4" class="edge"><title>Node1&#45;&gt;Node3</title>
<path fill="none" stroke="midnightblue" d="M812.725,-88.5181C703.72,-84.8653 453.676,-72.8608 247,-36 244.077,-35.4787 241.095,-34.8875 238.095,-34.2451"/>
<polygon fill="midnightblue" stroke="midnightblue" points="812.719,-92.0197 822.828,-88.8461 812.946,-85.0234 812.719,-92.0197"/>
</g>
<!-- Node4 -->
<g id="node7" class="node"><title>Node4</title>
<a xlink:href="_m_c_single_particles_8cc.html" target="_top" xlink:title="src/analysis/physics\l/misc/MCSingleParticles.cc">
<polygon fill="white" stroke="black" points="256,-1 256,-35 394,-35 394,-1 256,-1"/>
<text text-anchor="start" x="264" y="-22" font-family="Helvetica,sans-Serif" font-size="10.00">src/analysis/physics</text>
<text text-anchor="middle" x="325" y="-9" font-family="Helvetica,sans-Serif" font-size="10.00">/misc/MCSingleParticles.cc</text>
</a>
</g>
<!-- Node1&#45;&gt;Node4 -->
<g id="edge6" class="edge"><title>Node1&#45;&gt;Node4</title>
<path fill="none" stroke="midnightblue" d="M812.654,-85.5783C725.226,-78.1434 549.985,-61.4133 403,-36 400.124,-35.5028 397.195,-34.966 394.241,-34.3995"/>
<polygon fill="midnightblue" stroke="midnightblue" points="812.614,-89.0872 822.873,-86.4388 813.202,-82.1119 812.614,-89.0872"/>
</g>
<!-- Node5 -->
<g id="node9" class="node"><title>Node5</title>
<a xlink:href="_split_check_8cc.html" target="_top" xlink:title="src/analysis/physics\l/misc/SplitCheck.cc">
<polygon fill="white" stroke="black" points="412,-1 412,-35 518,-35 518,-1 412,-1"/>
<text text-anchor="start" x="420" y="-22" font-family="Helvetica,sans-Serif" font-size="10.00">src/analysis/physics</text>
<text text-anchor="middle" x="465" y="-9" font-family="Helvetica,sans-Serif" font-size="10.00">/misc/SplitCheck.cc</text>
</a>
</g>
<!-- Node1&#45;&gt;Node5 -->
<g id="edge8" class="edge"><title>Node1&#45;&gt;Node5</title>
<path fill="none" stroke="midnightblue" d="M812.953,-83.4452C745.207,-74.883 626.875,-58.3135 527,-36 524.156,-35.3646 521.25,-34.6726 518.324,-33.942"/>
<polygon fill="midnightblue" stroke="midnightblue" points="812.619,-86.9306 822.976,-84.7002 813.489,-79.9849 812.619,-86.9306"/>
</g>
<!-- Node6 -->
<g id="node11" class="node"><title>Node6</title>
<a xlink:href="_geo_acceptance_8cc.html" target="_top" xlink:title="src/analysis/physics\l/omega/GeoAcceptance.cc">
<polygon fill="white" stroke="black" points="535.5,-1 535.5,-35 670.5,-35 670.5,-1 535.5,-1"/>
<text text-anchor="start" x="543.5" y="-22" font-family="Helvetica,sans-Serif" font-size="10.00">src/analysis/physics</text>
<text text-anchor="middle" x="603" y="-9" font-family="Helvetica,sans-Serif" font-size="10.00">/omega/GeoAcceptance.cc</text>
</a>
</g>
<!-- Node1&#45;&gt;Node6 -->
<g id="edge10" class="edge"><title>Node1&#45;&gt;Node6</title>
<path fill="none" stroke="midnightblue" d="M813.054,-75.0714C770.217,-63.4327 710.691,-47.2595 665.94,-35.1008"/>
<polygon fill="midnightblue" stroke="midnightblue" points="812.178,-78.4601 822.746,-77.7046 814.014,-71.705 812.178,-78.4601"/>
</g>
<!-- Node7 -->
<g id="node13" class="node"><title>Node7</title>
<a xlink:href="omega_8cc.html" target="_top" xlink:title="src/analysis/physics\l/omega/omega.cc">
<polygon fill="white" stroke="black" points="688,-1 688,-35 794,-35 794,-1 688,-1"/>
<text text-anchor="start" x="696" y="-22" font-family="Helvetica,sans-Serif" font-size="10.00">src/analysis/physics</text>
<text text-anchor="middle" x="741" y="-9" font-family="Helvetica,sans-Serif" font-size="10.00">/omega/omega.cc</text>
</a>
</g>
<!-- Node1&#45;&gt;Node7 -->
<g id="edge12" class="edge"><title>Node1&#45;&gt;Node7</title>
<path fill="none" stroke="midnightblue" d="M829.088,-67.9398C810.519,-57.4125 788.633,-45.0044 771.321,-35.19"/>
<polygon fill="midnightblue" stroke="midnightblue" points="827.477,-71.0498 837.903,-72.937 830.93,-64.9604 827.477,-71.0498"/>
</g>
<!-- Node8 -->
<g id="node15" class="node"><title>Node8</title>
<a xlink:href="_test_a_p_l_c_o_n_8cc.html" target="_top" xlink:title="src/analysis/physics\l/test/TestAPLCON.cc">
<polygon fill="white" stroke="black" points="811.5,-1 811.5,-35 924.5,-35 924.5,-1 811.5,-1"/>
<text text-anchor="start" x="819.5" y="-22" font-family="Helvetica,sans-Serif" font-size="10.00">src/analysis/physics</text>
<text text-anchor="middle" x="868" y="-9" font-family="Helvetica,sans-Serif" font-size="10.00">/test/TestAPLCON.cc</text>
</a>
</g>
<!-- Node1&#45;&gt;Node8 -->
<g id="edge14" class="edge"><title>Node1&#45;&gt;Node8</title>
<path fill="none" stroke="midnightblue" d="M868,-62.7193C868,-53.572 868,-43.6255 868,-35.4407"/>
<polygon fill="midnightblue" stroke="midnightblue" points="864.5,-62.937 868,-72.937 871.5,-62.937 864.5,-62.937"/>
</g>
<!-- Node9 -->
<g id="node17" class="node"><title>Node9</title>
<a xlink:href="_test_physics_8cc.html" target="_top" xlink:title="src/analysis/physics\l/test/TestPhysics.cc">
<polygon fill="white" stroke="black" points="941.5,-1 941.5,-35 1048.5,-35 1048.5,-1 941.5,-1"/>
<text text-anchor="start" x="949.5" y="-22" font-family="Helvetica,sans-Serif" font-size="10.00">src/analysis/physics</text>
<text text-anchor="middle" x="995" y="-9" font-family="Helvetica,sans-Serif" font-size="10.00">/test/TestPhysics.cc</text>
</a>
</g>
<!-- Node1&#45;&gt;Node9 -->
<g id="edge16" class="edge"><title>Node1&#45;&gt;Node9</title>
<path fill="none" stroke="midnightblue" d="M906.912,-67.9398C925.481,-57.4125 947.367,-45.0044 964.679,-35.19"/>
<polygon fill="midnightblue" stroke="midnightblue" points="905.07,-64.9604 898.097,-72.937 908.523,-71.0498 905.07,-64.9604"/>
</g>
<!-- Node10 -->
<g id="node19" class="node"><title>Node10</title>
<a xlink:href="_c_b___energy_8cc.html" target="_top" xlink:title="src/calibration/modules\l/CB_Energy.cc">
<polygon fill="white" stroke="black" points="1065.5,-1 1065.5,-35 1182.5,-35 1182.5,-1 1065.5,-1"/>
<text text-anchor="start" x="1073.5" y="-22" font-family="Helvetica,sans-Serif" font-size="10.00">src/calibration/modules</text>
<text text-anchor="middle" x="1124" y="-9" font-family="Helvetica,sans-Serif" font-size="10.00">/CB_Energy.cc</text>
</a>
</g>
<!-- Node1&#45;&gt;Node10 -->
<g id="edge18" class="edge"><title>Node1&#45;&gt;Node10</title>
<path fill="none" stroke="midnightblue" d="M922.941,-74.5478C964.859,-62.7585 1022.49,-46.5492 1065.31,-34.5066"/>
<polygon fill="midnightblue" stroke="midnightblue" points="921.857,-71.2168 913.178,-77.2936 923.753,-77.9553 921.857,-71.2168"/>
</g>
<!-- Node11 -->
<g id="node21" class="node"><title>Node11</title>
<a xlink:href="_energy_8cc.html" target="_top" xlink:title="src/calibration/modules\l/Energy.cc">
<polygon fill="white" stroke="black" points="1199.5,-1 1199.5,-35 1316.5,-35 1316.5,-1 1199.5,-1"/>
<text text-anchor="start" x="1207.5" y="-22" font-family="Helvetica,sans-Serif" font-size="10.00">src/calibration/modules</text>
<text text-anchor="middle" x="1258" y="-9" font-family="Helvetica,sans-Serif" font-size="10.00">/Energy.cc</text>
</a>
</g>
<!-- Node1&#45;&gt;Node11 -->
<g id="edge20" class="edge"><title>Node1&#45;&gt;Node11</title>
<path fill="none" stroke="midnightblue" d="M923.161,-82.4388C987.712,-73.2075 1097.66,-56.2913 1191,-36 1193.71,-35.4115 1196.47,-34.7835 1199.25,-34.1278"/>
<polygon fill="midnightblue" stroke="midnightblue" points="922.608,-78.982 913.2,-83.8537 923.593,-85.9125 922.608,-78.982"/>
</g>
<!-- Node12 -->
<g id="node23" class="node"><title>Node12</title>
<a xlink:href="_t_a_p_s___energy_8cc.html" target="_top" xlink:title="src/calibration/modules\l/TAPS_Energy.cc">
<polygon fill="white" stroke="black" points="1333.5,-1 1333.5,-35 1450.5,-35 1450.5,-1 1333.5,-1"/>
<text text-anchor="start" x="1341.5" y="-22" font-family="Helvetica,sans-Serif" font-size="10.00">src/calibration/modules</text>
<text text-anchor="middle" x="1392" y="-9" font-family="Helvetica,sans-Serif" font-size="10.00">/TAPS_Energy.cc</text>
</a>
</g>
<!-- Node1&#45;&gt;Node12 -->
<g id="edge22" class="edge"><title>Node1&#45;&gt;Node12</title>
<path fill="none" stroke="midnightblue" d="M923.183,-86.0748C1009.48,-79.3546 1181.38,-63.626 1325,-36 1327.72,-35.4767 1330.49,-34.9022 1333.29,-34.2898"/>
<polygon fill="midnightblue" stroke="midnightblue" points="922.793,-82.5943 913.09,-86.8499 923.329,-89.5738 922.793,-82.5943"/>
</g>
<!-- Node13 -->
<g id="node25" class="node"><title>Node13</title>
<a xlink:href="_t_a_p_s_veto___energy_8cc.html" target="_top" xlink:title="src/calibration/modules\l/TAPSVeto_Energy.cc">
<polygon fill="white" stroke="black" points="1467.5,-1 1467.5,-35 1584.5,-35 1584.5,-1 1467.5,-1"/>
<text text-anchor="start" x="1475.5" y="-22" font-family="Helvetica,sans-Serif" font-size="10.00">src/calibration/modules</text>
<text text-anchor="middle" x="1526" y="-9" font-family="Helvetica,sans-Serif" font-size="10.00">/TAPSVeto_Energy.cc</text>
</a>
</g>
<!-- Node1&#45;&gt;Node13 -->
<g id="edge24" class="edge"><title>Node1&#45;&gt;Node13</title>
<path fill="none" stroke="midnightblue" d="M923.264,-88.1089C1028.35,-83.8168 1263.91,-70.853 1459,-36 1461.73,-35.5128 1464.5,-34.9679 1467.3,-34.3795"/>
<polygon fill="midnightblue" stroke="midnightblue" points="923.059,-84.6142 913.206,-88.5093 923.338,-91.6086 923.059,-84.6142"/>
</g>
<!-- Node14 -->
<g id="node27" class="node"><title>Node14</title>
<a xlink:href="_time_8cc.html" target="_top" xlink:title="src/calibration/modules\l/Time.cc">
<polygon fill="white" stroke="black" points="1601.5,-1 1601.5,-35 1718.5,-35 1718.5,-1 1601.5,-1"/>
<text text-anchor="start" x="1609.5" y="-22" font-family="Helvetica,sans-Serif" font-size="10.00">src/calibration/modules</text>
<text text-anchor="middle" x="1660" y="-9" font-family="Helvetica,sans-Serif" font-size="10.00">/Time.cc</text>
</a>
</g>
<!-- Node1&#45;&gt;Node14 -->
<g id="edge26" class="edge"><title>Node1&#45;&gt;Node14</title>
<path fill="none" stroke="midnightblue" d="M923.295,-87.2322C1069.56,-79.6949 1464.19,-57.8986 1593,-36 1595.73,-35.5357 1598.51,-35.0095 1601.31,-34.4363"/>
<polygon fill="midnightblue" stroke="midnightblue" points="923.008,-83.7422 913.2,-87.75 923.367,-90.733 923.008,-83.7422"/>
</g>
</g>
</svg>
