<?xml version="1.0" encoding="UTF-8" standalone="no"?>
<!DOCTYPE svg PUBLIC "-//W3C//DTD SVG 1.1//EN"
 "http://www.w3.org/Graphics/SVG/1.1/DTD/svg11.dtd">
<!-- Generated by graphviz version 2.26.3 (20100126.1600)
 -->
<!-- Title: src/reconstruct Pages: 1 -->
<svg width="204pt" height="233pt"
 viewBox="0.00 0.00 204.00 233.00" xmlns="http://www.w3.org/2000/svg" xmlns:xlink="http://www.w3.org/1999/xlink">
<g id="graph1" class="graph" transform="scale(1 1) rotate(0) translate(4 229)">
<title>src/reconstruct</title>
<polygon fill="white" stroke="white" points="-4,5 -4,-229 201,-229 201,5 -4,5"/>
<g id="graph2" class="cluster"><title>clusterdir_68267d1309a1af8e8297ef4c3efbcdba</title>
<a xlink:href="dir_68267d1309a1af8e8297ef4c3efbcdba.html" target="_top" xlink:title="src">
<polygon fill="#ddddee" stroke="black" points="8,-56 8,-217 104,-217 104,-56 8,-56"/>
<text text-anchor="middle" x="56" y="-204" font-family="Helvetica,sans-Serif" font-size="10.00">src</text>
</a>
</g>
<g id="graph3" class="cluster"><title>clusterdir_5eb03804bf445589bf35c6aa84fb9a34</title>
<a xlink:href="dir_5eb03804bf445589bf35c6aa84fb9a34.html" target="_top">
<polygon fill="#eeeeff" stroke="black" points="16,-64 16,-188 96,-188 96,-64 16,-64"/>
</a>
</g>
<!-- dir_5eb03804bf445589bf35c6aa84fb9a34 -->
<g id="node3" class="node"><title>dir_5eb03804bf445589bf35c6aa84fb9a34</title>
<text text-anchor="middle" x="56" y="-159.5" font-family="Helvetica,sans-Serif" font-size="10.00">reconstruct</text>
</g>
<!-- dir_db013cc40b3425694a26a249f1fa7e93 -->
<g id="node4" class="node"><title>dir_db013cc40b3425694a26a249f1fa7e93</title>
<a xlink:href="dir_db013cc40b3425694a26a249f1fa7e93.html" target="_top" xlink:title="detail">
<polygon fill="white" stroke="black" points="85,-108 31,-108 31,-72 85,-72 85,-108"/>
<text text-anchor="middle" x="58" y="-87.5" font-family="Helvetica,sans-Serif" font-size="10.00">detail</text>
</a>
</g>
<!-- dir_5eb03804bf445589bf35c6aa84fb9a34&#45;&gt;dir_db013cc40b3425694a26a249f1fa7e93 -->
<g id="edge14" class="edge"><title>dir_5eb03804bf445589bf35c6aa84fb9a34&#45;&gt;dir_db013cc40b3425694a26a249f1fa7e93</title>
<path fill="none" stroke="black" d="M56.5047,-143.831C56.7186,-136.131 56.9729,-126.974 57.2106,-118.417"/>
<polygon fill="black" stroke="black" points="60.7094,-118.507 57.4885,-108.413 53.7121,-118.312 60.7094,-118.507"/>
<a xlink:href="dir_000034_000035.html" target="_top" xlink:title="1">
<text text-anchor="middle" x="63.4479" y="-119.679" font-family="Helvetica,sans-Serif" font-size="10.00">1</text>
</a>
</g>
<!-- dir_c44c95bf3b41c3321c6014770d618ac8 -->
<g id="node6" class="node"><title>dir_c44c95bf3b41c3321c6014770d618ac8</title>
<a xlink:href="dir_c44c95bf3b41c3321c6014770d618ac8.html" target="_top" xlink:title="tree">
<polygon fill="none" stroke="black" points="166,-108 112,-108 112,-72 166,-72 166,-108"/>
<text text-anchor="middle" x="139" y="-87.5" font-family="Helvetica,sans-Serif" font-size="10.00">tree</text>
</a>
</g>
<!-- dir_5eb03804bf445589bf35c6aa84fb9a34&#45;&gt;dir_c44c95bf3b41c3321c6014770d618ac8 -->
<g id="edge16" class="edge"><title>dir_5eb03804bf445589bf35c6aa84fb9a34&#45;&gt;dir_c44c95bf3b41c3321c6014770d618ac8</title>
<path fill="none" stroke="black" d="M76.9444,-143.831C87.0691,-135.048 99.3777,-124.371 110.355,-114.849"/>
<polygon fill="black" stroke="black" points="112.802,-117.359 118.062,-108.163 108.215,-112.072 112.802,-117.359"/>
<a xlink:href="dir_000034_000038.html" target="_top" xlink:title="11">
<text text-anchor="middle" x="111.947" y="-119.36" font-family="Helvetica,sans-Serif" font-size="10.00">11</text>
</a>
</g>
<!-- dir_c4f4646ab0f4a2967be5b6215a500c22 -->
<g id="node7" class="node"><title>dir_c4f4646ab0f4a2967be5b6215a500c22</title>
<a xlink:href="dir_c4f4646ab0f4a2967be5b6215a500c22.html" target="_top" xlink:title="expconfig">
<polygon fill="white" stroke="red" points="196,-180 138,-180 138,-144 196,-144 196,-180"/>
<text text-anchor="middle" x="167" y="-159.5" font-family="Helvetica,sans-Serif" font-size="10.00">expconfig</text>
</a>
</g>
<!-- dir_5eb03804bf445589bf35c6aa84fb9a34&#45;&gt;dir_c4f4646ab0f4a2967be5b6215a500c22 -->
<g id="edge18" class="edge"><title>dir_5eb03804bf445589bf35c6aa84fb9a34&#45;&gt;dir_c4f4646ab0f4a2967be5b6215a500c22</title>
<path fill="none" stroke="black" d="M88.0859,-162C101.269,-162 114.452,-162 127.634,-162"/>
<polygon fill="black" stroke="black" points="127.716,-165.5 137.715,-162 127.715,-158.5 127.716,-165.5"/>
<a xlink:href="dir_000034_000030.html" target="_top" xlink:title="6">
<text text-anchor="middle" x="124.121" y="-165.839" font-family="Helvetica,sans-Serif" font-size="10.00">6</text>
</a>
</g>
<!-- dir_0af1587c8378955de40f48b4bd1869f0 -->
<g id="node5" class="node"><title>dir_0af1587c8378955de40f48b4bd1869f0</title>
<a xlink:href="dir_0af1587c8378955de40f48b4bd1869f0.html" target="_top" xlink:title="base">
<polygon fill="white" stroke="red" points="166,-36 112,-36 112,-1.77636e-14 166,-3.55271e-15 166,-36"/>
<text text-anchor="middle" x="139" y="-15.5" font-family="Helvetica,sans-Serif" font-size="10.00">base</text>
</a>
</g>
<!-- dir_db013cc40b3425694a26a249f1fa7e93&#45;&gt;dir_0af1587c8378955de40f48b4bd1869f0 -->
<g id="edge4" class="edge"><title>dir_db013cc40b3425694a26a249f1fa7e93&#45;&gt;dir_0af1587c8378955de40f48b4bd1869f0</title>
<path fill="none" stroke="black" d="M73.507,-71.7716C78.2878,-66.4938 83.6944,-60.8513 89,-56 94.0818,-51.3534 99.6994,-46.6866 105.279,-42.2925"/>
<polygon fill="black" stroke="black" points="107.563,-44.9518 113.36,-36.0838 103.298,-39.401 107.563,-44.9518"/>
<a xlink:href="dir_000035_000022.html" target="_top" xlink:title="1">
<text text-anchor="middle" x="106.442" y="-46.8933" font-family="Helvetica,sans-Serif" font-size="10.00">1</text>
</a>
</g>
<!-- dir_c44c95bf3b41c3321c6014770d618ac8&#45;&gt;dir_0af1587c8378955de40f48b4bd1869f0 -->
<g id="edge6" class="edge"><title>dir_c44c95bf3b41c3321c6014770d618ac8&#45;&gt;dir_0af1587c8378955de40f48b4bd1869f0</title>
<path fill="none" stroke="black" d="M139,-71.8314C139,-64.131 139,-54.9743 139,-46.4166"/>
<polygon fill="black" stroke="black" points="142.5,-46.4132 139,-36.4133 135.5,-46.4133 142.5,-46.4132"/>
<a xlink:href="dir_000038_000022.html" target="_top" xlink:title="15">
<text text-anchor="middle" x="145.339" y="-47.5079" font-family="Helvetica,sans-Serif" font-size="10.00">15</text>
</a>
</g>
<!-- dir_c4f4646ab0f4a2967be5b6215a500c22&#45;&gt;dir_5eb03804bf445589bf35c6aa84fb9a34 -->
<g id="edge12" class="edge"><title>dir_c4f4646ab0f4a2967be5b6215a500c22&#45;&gt;dir_5eb03804bf445589bf35c6aa84fb9a34</title>
<path fill="none" stroke="black" d="M137.715,-162C124.533,-162 111.35,-162 98.1669,-162"/>
<polygon fill="black" stroke="black" points="98.086,-158.5 88.0859,-162 98.0859,-165.5 98.086,-158.5"/>
<a xlink:href="dir_000030_000034.html" target="_top" xlink:title="1">
<text text-anchor="middle" x="101.681" y="-153.161" font-family="Helvetica,sans-Serif" font-size="10.00">1</text>
</a>
</g>
<!-- dir_c4f4646ab0f4a2967be5b6215a500c22&#45;&gt;dir_0af1587c8378955de40f48b4bd1869f0 -->
<g id="edge8" class="edge"><title>dir_c4f4646ab0f4a2967be5b6215a500c22&#45;&gt;dir_0af1587c8378955de40f48b4bd1869f0</title>
<path fill="none" stroke="black" d="M173.144,-143.633C179.361,-121.888 186.545,-84.9736 175,-56 173.289,-51.7051 170.836,-47.6164 168.003,-43.8217"/>
<polygon fill="black" stroke="black" points="170.494,-41.3489 161.338,-36.018 165.171,-45.8951 170.494,-41.3489"/>
<a xlink:href="dir_000030_000022.html" target="_top" xlink:title="16">
<text text-anchor="middle" x="174.988" y="-39.7382" font-family="Helvetica,sans-Serif" font-size="10.00">16</text>
</a>
</g>
<!-- dir_c4f4646ab0f4a2967be5b6215a500c22&#45;&gt;dir_c44c95bf3b41c3321c6014770d618ac8 -->
<g id="edge10" class="edge"><title>dir_c4f4646ab0f4a2967be5b6215a500c22&#45;&gt;dir_c44c95bf3b41c3321c6014770d618ac8</title>
<path fill="none" stroke="black" d="M159.934,-143.831C156.874,-135.962 153.222,-126.571 149.832,-117.853"/>
<polygon fill="black" stroke="black" points="153.047,-116.465 146.161,-108.413 146.523,-119.002 153.047,-116.465"/>
<a xlink:href="dir_000030_000038.html" target="_top" xlink:title="7">
<text text-anchor="middle" x="156.996" y="-116.286" font-family="Helvetica,sans-Serif" font-size="10.00">7</text>
</a>
</g>
</g>
</svg>
