<?xml version="1.0" encoding="UTF-8" standalone="no"?>
<!DOCTYPE svg PUBLIC "-//W3C//DTD SVG 1.1//EN"
 "http://www.w3.org/Graphics/SVG/1.1/DTD/svg11.dtd">
<!-- Generated by graphviz version 2.26.3 (20100126.1600)
 -->
<!-- Title: src/expconfig/detectors Pages: 1 -->
<svg width="236pt" height="305pt"
 viewBox="0.00 0.00 236.00 305.00" xmlns="http://www.w3.org/2000/svg" xmlns:xlink="http://www.w3.org/1999/xlink">
<g id="graph1" class="graph" transform="scale(1 1) rotate(0) translate(4 301)">
<title>src/expconfig/detectors</title>
<polygon fill="white" stroke="white" points="-4,5 -4,-301 233,-301 233,5 -4,5"/>
<g id="graph2" class="cluster"><title>clusterdir_c4f4646ab0f4a2967be5b6215a500c22</title>
<a xlink:href="dir_c4f4646ab0f4a2967be5b6215a500c22.html" target="_top" xlink:title="expconfig">
<polygon fill="#ddddee" stroke="black" points="8,-128 8,-289 96,-289 96,-128 8,-128"/>
<text text-anchor="middle" x="52" y="-276" font-family="Helvetica,sans-Serif" font-size="10.00">expconfig</text>
</a>
</g>
<g id="graph3" class="cluster"><title>clusterdir_f0b5461fe6d76f238177302312df4359</title>
<a xlink:href="dir_f0b5461fe6d76f238177302312df4359.html" target="_top">
<polygon fill="#eeeeff" stroke="black" points="16,-136 16,-260 88,-260 88,-136 16,-136"/>
</a>
</g>
<!-- dir_f0b5461fe6d76f238177302312df4359 -->
<g id="node3" class="node"><title>dir_f0b5461fe6d76f238177302312df4359</title>
<text text-anchor="middle" x="52" y="-231.5" font-family="Helvetica,sans-Serif" font-size="10.00">detectors</text>
</g>
<!-- dir_acf476544cbdcf3c3983a909a511b60e -->
<g id="node4" class="node"><title>dir_acf476544cbdcf3c3983a909a511b60e</title>
<a xlink:href="dir_acf476544cbdcf3c3983a909a511b60e.html" target="_top" xlink:title="detail">
<polygon fill="white" stroke="black" points="78,-180 24,-180 24,-144 78,-144 78,-180"/>
<text text-anchor="middle" x="51" y="-159.5" font-family="Helvetica,sans-Serif" font-size="10.00">detail</text>
</a>
</g>
<!-- dir_f0b5461fe6d76f238177302312df4359&#45;&gt;dir_acf476544cbdcf3c3983a909a511b60e -->
<g id="edge8" class="edge"><title>dir_f0b5461fe6d76f238177302312df4359&#45;&gt;dir_acf476544cbdcf3c3983a909a511b60e</title>
<path fill="none" stroke="black" d="M51.7477,-215.831C51.6407,-208.131 51.5135,-198.974 51.3947,-190.417"/>
<polygon fill="black" stroke="black" points="54.8944,-190.364 51.2557,-180.413 47.8951,-190.461 54.8944,-190.364"/>
<a xlink:href="dir_000031_000032.html" target="_top" xlink:title="12">
<text text-anchor="middle" x="57.7832" y="-191.419" font-family="Helvetica,sans-Serif" font-size="10.00">12</text>
</a>
</g>
<!-- dir_0af1587c8378955de40f48b4bd1869f0 -->
<g id="node5" class="node"><title>dir_0af1587c8378955de40f48b4bd1869f0</title>
<a xlink:href="dir_0af1587c8378955de40f48b4bd1869f0.html" target="_top" xlink:title="base">
<polygon fill="white" stroke="red" points="171,-36 117,-36 117,-1.77636e-14 171,-3.55271e-15 171,-36"/>
<text text-anchor="middle" x="144" y="-15.5" font-family="Helvetica,sans-Serif" font-size="10.00">base</text>
</a>
</g>
<!-- dir_f0b5461fe6d76f238177302312df4359&#45;&gt;dir_0af1587c8378955de40f48b4bd1869f0 -->
<g id="edge4" class="edge"><title>dir_f0b5461fe6d76f238177302312df4359&#45;&gt;dir_0af1587c8378955de40f48b4bd1869f0</title>
<path fill="none" stroke="black" d="M65.4474,-215.652C72.4883,-205.491 80.8909,-192.433 87,-180 109.186,-134.846 126.889,-78.8353 136.38,-45.897"/>
<polygon fill="black" stroke="black" points="139.809,-46.6319 139.168,-36.0565 133.074,-44.7236 139.809,-46.6319"/>
<a xlink:href="dir_000031_000022.html" target="_top" xlink:title="10">
<text text-anchor="middle" x="141.561" y="-48.3644" font-family="Helvetica,sans-Serif" font-size="10.00">10</text>
</a>
</g>
<!-- dir_c44c95bf3b41c3321c6014770d618ac8 -->
<g id="node6" class="node"><title>dir_c44c95bf3b41c3321c6014770d618ac8</title>
<a xlink:href="dir_c44c95bf3b41c3321c6014770d618ac8.html" target="_top" xlink:title="tree">
<polygon fill="none" stroke="black" points="188,-180 134,-180 134,-144 188,-144 188,-180"/>
<text text-anchor="middle" x="161" y="-159.5" font-family="Helvetica,sans-Serif" font-size="10.00">tree</text>
</a>
</g>
<!-- dir_f0b5461fe6d76f238177302312df4359&#45;&gt;dir_c44c95bf3b41c3321c6014770d618ac8 -->
<g id="edge6" class="edge"><title>dir_f0b5461fe6d76f238177302312df4359&#45;&gt;dir_c44c95bf3b41c3321c6014770d618ac8</title>
<path fill="none" stroke="black" d="M79.5053,-215.831C93.4234,-206.638 110.484,-195.368 125.392,-185.521"/>
<polygon fill="black" stroke="black" points="127.466,-188.345 133.881,-179.913 123.608,-182.505 127.466,-188.345"/>
<a xlink:href="dir_000031_000038.html" target="_top" xlink:title="5">
<text text-anchor="middle" x="126.032" y="-190.196" font-family="Helvetica,sans-Serif" font-size="10.00">5</text>
</a>
</g>
<!-- dir_da9e88029a658bab9ad39bb8696ef9bc -->
<g id="node7" class="node"><title>dir_da9e88029a658bab9ad39bb8696ef9bc</title>
<a xlink:href="dir_da9e88029a658bab9ad39bb8696ef9bc.html" target="_top" xlink:title="unpacker">
<polygon fill="white" stroke="red" points="228,-108 172,-108 172,-72 228,-72 228,-108"/>
<text text-anchor="middle" x="200" y="-87.5" font-family="Helvetica,sans-Serif" font-size="10.00">unpacker</text>
</a>
</g>
<!-- dir_f0b5461fe6d76f238177302312df4359&#45;&gt;dir_da9e88029a658bab9ad39bb8696ef9bc -->
<g id="edge10" class="edge"><title>dir_f0b5461fe6d76f238177302312df4359&#45;&gt;dir_da9e88029a658bab9ad39bb8696ef9bc</title>
<path fill="none" stroke="black" d="M80.2908,-227.42C118.388,-217.932 183.035,-199.405 197,-180 209.714,-162.334 209.487,-137.266 206.634,-118.07"/>
<polygon fill="black" stroke="black" points="210.055,-117.32 204.844,-108.095 203.165,-118.556 210.055,-117.32"/>
<a xlink:href="dir_000031_000039.html" target="_top" xlink:title="6">
<text text-anchor="middle" x="213.484" y="-117.857" font-family="Helvetica,sans-Serif" font-size="10.00">6</text>
</a>
</g>
<!-- dir_c44c95bf3b41c3321c6014770d618ac8&#45;&gt;dir_0af1587c8378955de40f48b4bd1869f0 -->
<g id="edge12" class="edge"><title>dir_c44c95bf3b41c3321c6014770d618ac8&#45;&gt;dir_0af1587c8378955de40f48b4bd1869f0</title>
<path fill="none" stroke="black" d="M158.847,-143.762C155.947,-119.201 150.758,-75.2474 147.347,-46.3541"/>
<polygon fill="black" stroke="black" points="150.784,-45.6103 146.136,-36.0896 143.832,-46.431 150.784,-45.6103"/>
<a xlink:href="dir_000038_000022.html" target="_top" xlink:title="15">
<text text-anchor="middle" x="154.025" y="-46.3473" font-family="Helvetica,sans-Serif" font-size="10.00">15</text>
</a>
</g>
<!-- dir_c44c95bf3b41c3321c6014770d618ac8&#45;&gt;dir_da9e88029a658bab9ad39bb8696ef9bc -->
<g id="edge14" class="edge"><title>dir_c44c95bf3b41c3321c6014770d618ac8&#45;&gt;dir_da9e88029a658bab9ad39bb8696ef9bc</title>
<path fill="none" stroke="black" d="M164.889,-143.831C168.498,-135.708 173.573,-125.964 178.809,-117.012"/>
<polygon fill="black" stroke="black" points="181.834,-118.774 184.05,-108.413 175.857,-115.131 181.834,-118.774"/>
<a xlink:href="dir_000038_000039.html" target="_top" xlink:title="2">
<text text-anchor="middle" x="182.388" y="-120.821" font-family="Helvetica,sans-Serif" font-size="10.00">2</text>
</a>
</g>
<!-- dir_da9e88029a658bab9ad39bb8696ef9bc&#45;&gt;dir_0af1587c8378955de40f48b4bd1869f0 -->
<g id="edge16" class="edge"><title>dir_da9e88029a658bab9ad39bb8696ef9bc&#45;&gt;dir_0af1587c8378955de40f48b4bd1869f0</title>
<path fill="none" stroke="black" d="M185.869,-71.8314C179.419,-63.5386 171.655,-53.557 164.575,-44.4533"/>
<polygon fill="black" stroke="black" points="167.224,-42.158 158.321,-36.4133 161.698,-46.4556 167.224,-42.158"/>
<a xlink:href="dir_000039_000022.html" target="_top" xlink:title="12">
<text text-anchor="middle" x="171.672" y="-40.7523" font-family="Helvetica,sans-Serif" font-size="10.00">12</text>
</a>
</g>
<!-- dir_da9e88029a658bab9ad39bb8696ef9bc&#45;&gt;dir_c44c95bf3b41c3321c6014770d618ac8 -->
<g id="edge18" class="edge"><title>dir_da9e88029a658bab9ad39bb8696ef9bc&#45;&gt;dir_c44c95bf3b41c3321c6014770d618ac8</title>
<path fill="none" stroke="black" d="M196.002,-108.413C192.364,-116.569 187.272,-126.321 182.033,-135.257"/>
<polygon fill="black" stroke="black" points="179.022,-133.473 176.794,-143.831 184.995,-137.123 179.022,-133.473"/>
<a xlink:href="dir_000039_000038.html" target="_top" xlink:title="11">
<text text-anchor="middle" x="178.473" y="-126.426" font-family="Helvetica,sans-Serif" font-size="10.00">11</text>
</a>
</g>
</g>
</svg>
