<?xml version="1.0" encoding="UTF-8" standalone="no"?>
<!DOCTYPE svg PUBLIC "-//W3C//DTD SVG 1.1//EN"
 "http://www.w3.org/Graphics/SVG/1.1/DTD/svg11.dtd">
<!-- Generated by graphviz version 2.26.3 (20100126.1600)
 -->
<!-- Title: src/analysis Pages: 1 -->
<svg width="426pt" height="593pt"
 viewBox="0.00 0.00 426.00 593.00" xmlns="http://www.w3.org/2000/svg" xmlns:xlink="http://www.w3.org/1999/xlink">
<g id="graph1" class="graph" transform="scale(1 1) rotate(0) translate(4 589)">
<title>src/analysis</title>
<polygon fill="white" stroke="white" points="-4,5 -4,-589 423,-589 423,5 -4,5"/>
<g id="graph2" class="cluster"><title>clusterdir_68267d1309a1af8e8297ef4c3efbcdba</title>
<a xlink:href="dir_68267d1309a1af8e8297ef4c3efbcdba.html" target="_top" xlink:title="src">
<polygon fill="#ddddee" stroke="black" points="8,-344 8,-577 258,-577 258,-344 8,-344"/>
<text text-anchor="middle" x="133" y="-564" font-family="Helvetica,sans-Serif" font-size="10.00">src</text>
</a>
</g>
<g id="graph3" class="cluster"><title>clusterdir_2eec376824a17f48dc36b4bd0c810e01</title>
<a xlink:href="dir_2eec376824a17f48dc36b4bd0c810e01.html" target="_top">
<polygon fill="#eeeeff" stroke="black" points="16,-352 16,-548 250,-548 250,-352 16,-352"/>
</a>
</g>
<!-- dir_2eec376824a17f48dc36b4bd0c810e01 -->
<g id="node3" class="node"><title>dir_2eec376824a17f48dc36b4bd0c810e01</title>
<text text-anchor="middle" x="215" y="-519.5" font-family="Helvetica,sans-Serif" font-size="10.00">analysis</text>
</g>
<!-- dir_86afe70f6685ce518ba6965fc87e41ba -->
<g id="node4" class="node"><title>dir_86afe70f6685ce518ba6965fc87e41ba</title>
<a xlink:href="dir_86afe70f6685ce518ba6965fc87e41ba.html" target="_top" xlink:title="data">
<polygon fill="white" stroke="black" points="196,-396 142,-396 142,-360 196,-360 196,-396"/>
<text text-anchor="middle" x="169" y="-375.5" font-family="Helvetica,sans-Serif" font-size="10.00">data</text>
</a>
</g>
<!-- dir_0af1587c8378955de40f48b4bd1869f0 -->
<g id="node9" class="node"><title>dir_0af1587c8378955de40f48b4bd1869f0</title>
<a xlink:href="dir_0af1587c8378955de40f48b4bd1869f0.html" target="_top" xlink:title="base">
<polygon fill="white" stroke="red" points="179,-36 125,-36 125,-1.77636e-14 179,-3.55271e-15 179,-36"/>
<text text-anchor="middle" x="152" y="-15.5" font-family="Helvetica,sans-Serif" font-size="10.00">base</text>
</a>
</g>
<!-- dir_86afe70f6685ce518ba6965fc87e41ba&#45;&gt;dir_0af1587c8378955de40f48b4bd1869f0 -->
<g id="edge18" class="edge"><title>dir_86afe70f6685ce518ba6965fc87e41ba&#45;&gt;dir_0af1587c8378955de40f48b4bd1869f0</title>
<path fill="none" stroke="black" d="M166.338,-359.761C161.373,-324.919 150.773,-246.446 146,-180 143.706,-148.07 144.444,-140.009 144,-108 143.778,-92.0015 142.824,-87.9568 144,-72 144.617,-63.6264 145.765,-54.5812 147.003,-46.3322"/>
<polygon fill="black" stroke="black" points="150.465,-46.8463 148.585,-36.4196 143.552,-45.7428 150.465,-46.8463"/>
<a xlink:href="dir_000003_000022.html" target="_top" xlink:title="15">
<text text-anchor="middle" x="152.702" y="-48.3436" font-family="Helvetica,sans-Serif" font-size="10.00">15</text>
</a>
</g>
<!-- dir_c44c95bf3b41c3321c6014770d618ac8 -->
<g id="node10" class="node"><title>dir_c44c95bf3b41c3321c6014770d618ac8</title>
<a xlink:href="dir_c44c95bf3b41c3321c6014770d618ac8.html" target="_top" xlink:title="tree">
<polygon fill="none" stroke="black" points="243,-324 189,-324 189,-288 243,-288 243,-324"/>
<text text-anchor="middle" x="216" y="-303.5" font-family="Helvetica,sans-Serif" font-size="10.00">tree</text>
</a>
</g>
<!-- dir_86afe70f6685ce518ba6965fc87e41ba&#45;&gt;dir_c44c95bf3b41c3321c6014770d618ac8 -->
<g id="edge20" class="edge"><title>dir_86afe70f6685ce518ba6965fc87e41ba&#45;&gt;dir_c44c95bf3b41c3321c6014770d618ac8</title>
<path fill="none" stroke="black" d="M180.86,-359.831C186.163,-351.708 192.524,-341.964 198.367,-333.012"/>
<polygon fill="black" stroke="black" points="201.445,-334.7 203.98,-324.413 195.583,-330.874 201.445,-334.7"/>
<a xlink:href="dir_000003_000038.html" target="_top" xlink:title="2">
<text text-anchor="middle" x="201.857" y="-336.762" font-family="Helvetica,sans-Serif" font-size="10.00">2</text>
</a>
</g>
<!-- dir_4d4314fec0337faafb4fd99dc7917bfa -->
<g id="node5" class="node"><title>dir_4d4314fec0337faafb4fd99dc7917bfa</title>
<a xlink:href="dir_4d4314fec0337faafb4fd99dc7917bfa.html" target="_top" xlink:title="input">
<polygon fill="white" stroke="red" points="242,-468 188,-468 188,-432 242,-432 242,-468"/>
<text text-anchor="middle" x="215" y="-447.5" font-family="Helvetica,sans-Serif" font-size="10.00">input</text>
</a>
</g>
<!-- dir_4d4314fec0337faafb4fd99dc7917bfa&#45;&gt;dir_86afe70f6685ce518ba6965fc87e41ba -->
<g id="edge54" class="edge"><title>dir_4d4314fec0337faafb4fd99dc7917bfa&#45;&gt;dir_86afe70f6685ce518ba6965fc87e41ba</title>
<path fill="none" stroke="black" d="M203.392,-431.831C198.202,-423.708 191.977,-413.964 186.258,-405.012"/>
<polygon fill="black" stroke="black" points="189.097,-402.956 180.764,-396.413 183.199,-406.725 189.097,-402.956"/>
<a xlink:href="dir_000004_000003.html" target="_top" xlink:title="5">
<text text-anchor="middle" x="193.425" y="-401.956" font-family="Helvetica,sans-Serif" font-size="10.00">5</text>
</a>
</g>
<!-- dir_4d4314fec0337faafb4fd99dc7917bfa&#45;&gt;dir_0af1587c8378955de40f48b4bd1869f0 -->
<g id="edge56" class="edge"><title>dir_4d4314fec0337faafb4fd99dc7917bfa&#45;&gt;dir_0af1587c8378955de40f48b4bd1869f0</title>
<path fill="none" stroke="black" d="M187.793,-439.241C167.609,-430.16 140.495,-415.513 122,-396 91.0975,-363.396 76,-350.922 76,-306 76,-306 76,-306 76,-162 76,-116.656 105.838,-71.5999 128.123,-44.2735"/>
<polygon fill="black" stroke="black" points="131.001,-46.2889 134.754,-36.3814 125.641,-41.7856 131.001,-46.2889"/>
<a xlink:href="dir_000004_000022.html" target="_top" xlink:title="7">
<text text-anchor="middle" x="130.862" y="-48.3675" font-family="Helvetica,sans-Serif" font-size="10.00">7</text>
</a>
</g>
<!-- dir_4d4314fec0337faafb4fd99dc7917bfa&#45;&gt;dir_c44c95bf3b41c3321c6014770d618ac8 -->
<g id="edge58" class="edge"><title>dir_4d4314fec0337faafb4fd99dc7917bfa&#45;&gt;dir_c44c95bf3b41c3321c6014770d618ac8</title>
<path fill="none" stroke="black" d="M215.127,-431.762C215.297,-407.201 215.602,-363.247 215.803,-334.354"/>
<polygon fill="black" stroke="black" points="219.305,-334.114 215.874,-324.09 212.305,-334.065 219.305,-334.114"/>
<a xlink:href="dir_000004_000038.html" target="_top" xlink:title="13">
<text text-anchor="middle" x="222.119" y="-335.228" font-family="Helvetica,sans-Serif" font-size="10.00">13</text>
</a>
</g>
<!-- dir_da9e88029a658bab9ad39bb8696ef9bc -->
<g id="node11" class="node"><title>dir_da9e88029a658bab9ad39bb8696ef9bc</title>
<a xlink:href="dir_da9e88029a658bab9ad39bb8696ef9bc.html" target="_top" xlink:title="unpacker">
<polygon fill="white" stroke="red" points="237,-252 181,-252 181,-216 237,-216 237,-252"/>
<text text-anchor="middle" x="209" y="-231.5" font-family="Helvetica,sans-Serif" font-size="10.00">unpacker</text>
</a>
</g>
<!-- dir_4d4314fec0337faafb4fd99dc7917bfa&#45;&gt;dir_da9e88029a658bab9ad39bb8696ef9bc -->
<g id="edge60" class="edge"><title>dir_4d4314fec0337faafb4fd99dc7917bfa&#45;&gt;dir_da9e88029a658bab9ad39bb8696ef9bc</title>
<path fill="none" stroke="black" d="M187.932,-440.267C168.794,-431.793 144.562,-417.459 133,-396 107.625,-348.907 150.772,-291.871 181.741,-259.576"/>
<polygon fill="black" stroke="black" points="184.383,-261.881 188.912,-252.303 179.399,-256.966 184.383,-261.881"/>
<a xlink:href="dir_000004_000039.html" target="_top" xlink:title="1">
<text text-anchor="middle" x="183.88" y="-263.934" font-family="Helvetica,sans-Serif" font-size="10.00">1</text>
</a>
</g>
<!-- dir_5eb03804bf445589bf35c6aa84fb9a34 -->
<g id="node13" class="node"><title>dir_5eb03804bf445589bf35c6aa84fb9a34</title>
<a xlink:href="dir_5eb03804bf445589bf35c6aa84fb9a34.html" target="_top" xlink:title="reconstruct">
<polygon fill="white" stroke="red" points="320,-108 256,-108 256,-72 320,-72 320,-108"/>
<text text-anchor="middle" x="288" y="-87.5" font-family="Helvetica,sans-Serif" font-size="10.00">reconstruct</text>
</a>
</g>
<!-- dir_4d4314fec0337faafb4fd99dc7917bfa&#45;&gt;dir_5eb03804bf445589bf35c6aa84fb9a34 -->
<g id="edge62" class="edge"><title>dir_4d4314fec0337faafb4fd99dc7917bfa&#45;&gt;dir_5eb03804bf445589bf35c6aa84fb9a34</title>
<path fill="none" stroke="black" d="M242.245,-435.138C279.561,-412.557 342,-365.834 342,-306 342,-306 342,-306 342,-234 342,-191.061 320.689,-145.243 304.843,-117.108"/>
<polygon fill="black" stroke="black" points="307.763,-115.167 299.717,-108.274 301.709,-118.68 307.763,-115.167"/>
<a xlink:href="dir_000004_000034.html" target="_top" xlink:title="1">
<text text-anchor="middle" x="312.023" y="-114.351" font-family="Helvetica,sans-Serif" font-size="10.00">1</text>
</a>
</g>
<!-- dir_a21a804d6482c442bcd1b39e4dfcc179 -->
<g id="node6" class="node"><title>dir_a21a804d6482c442bcd1b39e4dfcc179</title>
<a xlink:href="dir_a21a804d6482c442bcd1b39e4dfcc179.html" target="_top" xlink:title="physics">
<polygon fill="white" stroke="red" points="170,-540 116,-540 116,-504 170,-504 170,-540"/>
<text text-anchor="middle" x="143" y="-519.5" font-family="Helvetica,sans-Serif" font-size="10.00">physics</text>
</a>
</g>
<!-- dir_a21a804d6482c442bcd1b39e4dfcc179&#45;&gt;dir_86afe70f6685ce518ba6965fc87e41ba -->
<g id="edge4" class="edge"><title>dir_a21a804d6482c442bcd1b39e4dfcc179&#45;&gt;dir_86afe70f6685ce518ba6965fc87e41ba</title>
<path fill="none" stroke="black" d="M149.3,-503.71C152.646,-493.346 156.56,-480.076 159,-468 163.145,-447.486 165.683,-423.969 167.165,-406.12"/>
<polygon fill="black" stroke="black" points="170.66,-406.314 167.937,-396.075 163.681,-405.777 170.66,-406.314"/>
<a xlink:href="dir_000012_000003.html" target="_top" xlink:title="28">
<text text-anchor="middle" x="173.215" y="-407.616" font-family="Helvetica,sans-Serif" font-size="10.00">28</text>
</a>
</g>
<!-- dir_a21a804d6482c442bcd1b39e4dfcc179&#45;&gt;dir_4d4314fec0337faafb4fd99dc7917bfa -->
<g id="edge16" class="edge"><title>dir_a21a804d6482c442bcd1b39e4dfcc179&#45;&gt;dir_4d4314fec0337faafb4fd99dc7917bfa</title>
<path fill="none" stroke="black" d="M161.169,-503.831C169.715,-495.285 180.056,-484.944 189.38,-475.62"/>
<polygon fill="black" stroke="black" points="191.991,-477.959 196.587,-468.413 187.041,-473.009 191.991,-477.959"/>
<a xlink:href="dir_000012_000004.html" target="_top" xlink:title="2">
<text text-anchor="middle" x="191.456" y="-480.009" font-family="Helvetica,sans-Serif" font-size="10.00">2</text>
</a>
</g>
<!-- dir_8f68c37b22d514b4289e3a1255795d80 -->
<g id="node7" class="node"><title>dir_8f68c37b22d514b4289e3a1255795d80</title>
<a xlink:href="dir_8f68c37b22d514b4289e3a1255795d80.html" target="_top" xlink:title="plot">
<polygon fill="white" stroke="black" points="78,-468 24,-468 24,-432 78,-432 78,-468"/>
<text text-anchor="middle" x="51" y="-447.5" font-family="Helvetica,sans-Serif" font-size="10.00">plot</text>
</a>
</g>
<!-- dir_a21a804d6482c442bcd1b39e4dfcc179&#45;&gt;dir_8f68c37b22d514b4289e3a1255795d80 -->
<g id="edge14" class="edge"><title>dir_a21a804d6482c442bcd1b39e4dfcc179&#45;&gt;dir_8f68c37b22d514b4289e3a1255795d80</title>
<path fill="none" stroke="black" d="M119.785,-503.831C108.453,-494.963 94.6536,-484.164 82.3973,-474.572"/>
<polygon fill="black" stroke="black" points="84.2402,-471.57 74.2081,-468.163 79.926,-477.082 84.2402,-471.57"/>
<a xlink:href="dir_000012_000020.html" target="_top" xlink:title="40">
<text text-anchor="middle" x="88.8208" y="-469.049" font-family="Helvetica,sans-Serif" font-size="10.00">40</text>
</a>
</g>
<!-- dir_0a0aa297e888439a92fbcfd5e567f128 -->
<g id="node8" class="node"><title>dir_0a0aa297e888439a92fbcfd5e567f128</title>
<a xlink:href="dir_0a0aa297e888439a92fbcfd5e567f128.html" target="_top" xlink:title="utils">
<polygon fill="white" stroke="black" points="150,-468 96,-468 96,-432 150,-432 150,-468"/>
<text text-anchor="middle" x="123" y="-447.5" font-family="Helvetica,sans-Serif" font-size="10.00">utils</text>
</a>
</g>
<!-- dir_a21a804d6482c442bcd1b39e4dfcc179&#45;&gt;dir_0a0aa297e888439a92fbcfd5e567f128 -->
<g id="edge6" class="edge"><title>dir_a21a804d6482c442bcd1b39e4dfcc179&#45;&gt;dir_0a0aa297e888439a92fbcfd5e567f128</title>
<path fill="none" stroke="black" d="M137.953,-503.831C135.791,-496.046 133.215,-486.773 130.815,-478.135"/>
<polygon fill="black" stroke="black" points="134.164,-477.112 128.115,-468.413 127.419,-478.985 134.164,-477.112"/>
<a xlink:href="dir_000012_000021.html" target="_top" xlink:title="16">
<text text-anchor="middle" x="137.861" y="-477.315" font-family="Helvetica,sans-Serif" font-size="10.00">16</text>
</a>
</g>
<!-- dir_a21a804d6482c442bcd1b39e4dfcc179&#45;&gt;dir_0af1587c8378955de40f48b4bd1869f0 -->
<g id="edge8" class="edge"><title>dir_a21a804d6482c442bcd1b39e4dfcc179&#45;&gt;dir_0af1587c8378955de40f48b4bd1869f0</title>
<path fill="none" stroke="black" d="M170.204,-507.499C173.129,-506.212 176.098,-505.014 179,-504 251.908,-478.524 283.676,-509.2 349,-468 391.632,-441.112 418,-428.403 418,-378 418,-378 418,-378 418,-162 418,-59.394 263.044,-29.5289 189.67,-21.1388"/>
<polygon fill="black" stroke="black" points="189.78,-17.6307 179.465,-20.0506 189.037,-24.5912 189.78,-17.6307"/>
<a xlink:href="dir_000012_000022.html" target="_top" xlink:title="15">
<text text-anchor="middle" x="193.655" y="-12.6884" font-family="Helvetica,sans-Serif" font-size="10.00">15</text>
</a>
</g>
<!-- dir_a21a804d6482c442bcd1b39e4dfcc179&#45;&gt;dir_c44c95bf3b41c3321c6014770d618ac8 -->
<g id="edge10" class="edge"><title>dir_a21a804d6482c442bcd1b39e4dfcc179&#45;&gt;dir_c44c95bf3b41c3321c6014770d618ac8</title>
<path fill="none" stroke="black" d="M170.253,-508.374C202.247,-492.376 251,-468 251,-468 276.995,-425.939 252.32,-367.349 233.288,-333.374"/>
<polygon fill="black" stroke="black" points="236.168,-331.364 228.116,-324.478 230.116,-334.882 236.168,-331.364"/>
<a xlink:href="dir_000012_000038.html" target="_top" xlink:title="3">
<text text-anchor="middle" x="240.429" y="-330.545" font-family="Helvetica,sans-Serif" font-size="10.00">3</text>
</a>
</g>
<!-- dir_c4f4646ab0f4a2967be5b6215a500c22 -->
<g id="node12" class="node"><title>dir_c4f4646ab0f4a2967be5b6215a500c22</title>
<a xlink:href="dir_c4f4646ab0f4a2967be5b6215a500c22.html" target="_top" xlink:title="expconfig">
<polygon fill="white" stroke="red" points="276,-180 218,-180 218,-144 276,-144 276,-180"/>
<text text-anchor="middle" x="247" y="-159.5" font-family="Helvetica,sans-Serif" font-size="10.00">expconfig</text>
</a>
</g>
<!-- dir_a21a804d6482c442bcd1b39e4dfcc179&#45;&gt;dir_c4f4646ab0f4a2967be5b6215a500c22 -->
<g id="edge12" class="edge"><title>dir_a21a804d6482c442bcd1b39e4dfcc179&#45;&gt;dir_c4f4646ab0f4a2967be5b6215a500c22</title>
<path fill="none" stroke="black" d="M170.001,-508.171C173.019,-506.723 176.063,-505.306 179,-504 275.343,-461.17 380,-483.435 380,-378 380,-378 380,-378 380,-306 380,-249.762 324.58,-206.125 285.289,-182.256"/>
<polygon fill="black" stroke="black" points="286.581,-178.955 276.187,-176.899 283.031,-184.988 286.581,-178.955"/>
<a xlink:href="dir_000012_000030.html" target="_top" xlink:title="1">
<text text-anchor="middle" x="291.119" y="-175.831" font-family="Helvetica,sans-Serif" font-size="10.00">1</text>
</a>
</g>
<!-- dir_8f68c37b22d514b4289e3a1255795d80&#45;&gt;dir_86afe70f6685ce518ba6965fc87e41ba -->
<g id="edge50" class="edge"><title>dir_8f68c37b22d514b4289e3a1255795d80&#45;&gt;dir_86afe70f6685ce518ba6965fc87e41ba</title>
<path fill="none" stroke="black" d="M78.0716,-433.482C94.2954,-423.582 115.129,-410.871 132.759,-400.113"/>
<polygon fill="black" stroke="black" points="134.932,-402.887 141.646,-394.691 131.286,-396.912 134.932,-402.887"/>
<a xlink:href="dir_000020_000003.html" target="_top" xlink:title="2">
<text text-anchor="middle" x="133.343" y="-404.683" font-family="Helvetica,sans-Serif" font-size="10.00">2</text>
</a>
</g>
<!-- dir_8f68c37b22d514b4289e3a1255795d80&#45;&gt;dir_0af1587c8378955de40f48b4bd1869f0 -->
<g id="edge52" class="edge"><title>dir_8f68c37b22d514b4289e3a1255795d80&#45;&gt;dir_0af1587c8378955de40f48b4bd1869f0</title>
<path fill="none" stroke="black" d="M39.9338,-431.639C24.9342,-404.961 0,-353.474 0,-306 0,-306 0,-306 0,-162 0,-118.406 8.74803,-103.389 39,-72 59.6877,-50.5348 90.6295,-36.5725 114.907,-28.2336"/>
<polygon fill="black" stroke="black" points="116.094,-31.5279 124.518,-25.1021 113.926,-24.8723 116.094,-31.5279"/>
<a xlink:href="dir_000020_000022.html" target="_top" xlink:title="2">
<text text-anchor="middle" x="113.556" y="-32.841" font-family="Helvetica,sans-Serif" font-size="10.00">2</text>
</a>
</g>
<!-- dir_0a0aa297e888439a92fbcfd5e567f128&#45;&gt;dir_86afe70f6685ce518ba6965fc87e41ba -->
<g id="edge22" class="edge"><title>dir_0a0aa297e888439a92fbcfd5e567f128&#45;&gt;dir_86afe70f6685ce518ba6965fc87e41ba</title>
<path fill="none" stroke="black" d="M134.608,-431.831C139.798,-423.708 146.023,-413.964 151.742,-405.012"/>
<polygon fill="black" stroke="black" points="154.801,-406.725 157.236,-396.413 148.903,-402.956 154.801,-406.725"/>
<a xlink:href="dir_000021_000003.html" target="_top" xlink:title="4">
<text text-anchor="middle" x="155.259" y="-408.782" font-family="Helvetica,sans-Serif" font-size="10.00">4</text>
</a>
</g>
<!-- dir_0a0aa297e888439a92fbcfd5e567f128&#45;&gt;dir_0af1587c8378955de40f48b4bd1869f0 -->
<g id="edge24" class="edge"><title>dir_0a0aa297e888439a92fbcfd5e567f128&#45;&gt;dir_0af1587c8378955de40f48b4bd1869f0</title>
<path fill="none" stroke="black" d="M96.2704,-431.98C84.1863,-422.567 70.6974,-410.078 62,-396 40.2421,-360.781 38,-347.398 38,-306 38,-306 38,-306 38,-162 38,-120.602 37.0955,-105.069 62,-72 75.5976,-53.9448 97.1483,-40.7084 115.752,-31.86"/>
<polygon fill="black" stroke="black" points="117.197,-35.0479 124.877,-27.7489 114.322,-28.6657 117.197,-35.0479"/>
<a xlink:href="dir_000021_000022.html" target="_top" xlink:title="5">
<text text-anchor="middle" x="115.086" y="-36.6131" font-family="Helvetica,sans-Serif" font-size="10.00">5</text>
</a>
</g>
<!-- dir_c44c95bf3b41c3321c6014770d618ac8&#45;&gt;dir_0af1587c8378955de40f48b4bd1869f0 -->
<g id="edge26" class="edge"><title>dir_c44c95bf3b41c3321c6014770d618ac8&#45;&gt;dir_0af1587c8378955de40f48b4bd1869f0</title>
<path fill="none" stroke="black" d="M196.549,-287.862C187.451,-278.158 177.443,-265.452 172,-252 143.814,-182.34 145.846,-91.6974 149.195,-46.3898"/>
<polygon fill="black" stroke="black" points="152.706,-46.3968 150.034,-36.1444 145.729,-45.8253 152.706,-46.3968"/>
<a xlink:href="dir_000038_000022.html" target="_top" xlink:title="15">
<text text-anchor="middle" x="155.243" y="-47.7111" font-family="Helvetica,sans-Serif" font-size="10.00">15</text>
</a>
</g>
<!-- dir_c44c95bf3b41c3321c6014770d618ac8&#45;&gt;dir_da9e88029a658bab9ad39bb8696ef9bc -->
<g id="edge28" class="edge"><title>dir_c44c95bf3b41c3321c6014770d618ac8&#45;&gt;dir_da9e88029a658bab9ad39bb8696ef9bc</title>
<path fill="none" stroke="black" d="M208.281,-287.831C206.782,-280.131 205.671,-270.974 205.148,-262.417"/>
<polygon fill="black" stroke="black" points="208.645,-262.291 204.814,-252.413 201.649,-262.524 208.645,-262.291"/>
<a xlink:href="dir_000038_000039.html" target="_top" xlink:title="2">
<text text-anchor="middle" x="211.603" y="-263.289" font-family="Helvetica,sans-Serif" font-size="10.00">2</text>
</a>
</g>
<!-- dir_da9e88029a658bab9ad39bb8696ef9bc&#45;&gt;dir_0af1587c8378955de40f48b4bd1869f0 -->
<g id="edge30" class="edge"><title>dir_da9e88029a658bab9ad39bb8696ef9bc&#45;&gt;dir_0af1587c8378955de40f48b4bd1869f0</title>
<path fill="none" stroke="black" d="M204.238,-215.955C194.284,-178.235 171.216,-90.8188 159.347,-45.8399"/>
<polygon fill="black" stroke="black" points="162.724,-44.921 156.788,-36.1451 155.956,-46.7071 162.724,-44.921"/>
<a xlink:href="dir_000039_000022.html" target="_top" xlink:title="12">
<text text-anchor="middle" x="166.386" y="-45.1722" font-family="Helvetica,sans-Serif" font-size="10.00">12</text>
</a>
</g>
<!-- dir_da9e88029a658bab9ad39bb8696ef9bc&#45;&gt;dir_c44c95bf3b41c3321c6014770d618ac8 -->
<g id="edge32" class="edge"><title>dir_da9e88029a658bab9ad39bb8696ef9bc&#45;&gt;dir_c44c95bf3b41c3321c6014770d618ac8</title>
<path fill="none" stroke="black" d="M216.766,-252.413C218.241,-260.059 219.334,-269.108 219.852,-277.573"/>
<polygon fill="black" stroke="black" points="216.362,-277.951 220.186,-287.831 223.358,-277.723 216.362,-277.951"/>
<a xlink:href="dir_000039_000038.html" target="_top" xlink:title="11">
<text text-anchor="middle" x="213.407" y="-271.95" font-family="Helvetica,sans-Serif" font-size="10.00">11</text>
</a>
</g>
<!-- dir_da9e88029a658bab9ad39bb8696ef9bc&#45;&gt;dir_c4f4646ab0f4a2967be5b6215a500c22 -->
<g id="edge34" class="edge"><title>dir_da9e88029a658bab9ad39bb8696ef9bc&#45;&gt;dir_c4f4646ab0f4a2967be5b6215a500c22</title>
<path fill="none" stroke="black" d="M212.637,-215.831C216.132,-207.708 221.073,-197.964 226.184,-189.012"/>
<polygon fill="black" stroke="black" points="229.196,-190.796 231.306,-180.413 223.182,-187.214 229.196,-190.796"/>
<a xlink:href="dir_000039_000030.html" target="_top" xlink:title="4">
<text text-anchor="middle" x="229.795" y="-192.837" font-family="Helvetica,sans-Serif" font-size="10.00">4</text>
</a>
</g>
<!-- dir_c4f4646ab0f4a2967be5b6215a500c22&#45;&gt;dir_0af1587c8378955de40f48b4bd1869f0 -->
<g id="edge36" class="edge"><title>dir_c4f4646ab0f4a2967be5b6215a500c22&#45;&gt;dir_0af1587c8378955de40f48b4bd1869f0</title>
<path fill="none" stroke="black" d="M240.329,-143.834C232.956,-124.972 219.981,-95.0559 204,-72 197.004,-61.9068 188.1,-51.9177 179.646,-43.3272"/>
<polygon fill="black" stroke="black" points="181.969,-40.7018 172.392,-36.1706 177.053,-45.6851 181.969,-40.7018"/>
<a xlink:href="dir_000030_000022.html" target="_top" xlink:title="16">
<text text-anchor="middle" x="186.522" y="-38.705" font-family="Helvetica,sans-Serif" font-size="10.00">16</text>
</a>
</g>
<!-- dir_c4f4646ab0f4a2967be5b6215a500c22&#45;&gt;dir_c44c95bf3b41c3321c6014770d618ac8 -->
<g id="edge38" class="edge"><title>dir_c4f4646ab0f4a2967be5b6215a500c22&#45;&gt;dir_c44c95bf3b41c3321c6014770d618ac8</title>
<path fill="none" stroke="black" d="M249.386,-180.281C251.195,-198.719 252.406,-227.833 246,-252 243.498,-261.44 238.98,-270.997 234.197,-279.393"/>
<polygon fill="black" stroke="black" points="231.177,-277.622 228.985,-287.988 237.163,-281.252 231.177,-277.622"/>
<a xlink:href="dir_000030_000038.html" target="_top" xlink:title="7">
<text text-anchor="middle" x="230.613" y="-270.576" font-family="Helvetica,sans-Serif" font-size="10.00">7</text>
</a>
</g>
<!-- dir_c4f4646ab0f4a2967be5b6215a500c22&#45;&gt;dir_da9e88029a658bab9ad39bb8696ef9bc -->
<g id="edge40" class="edge"><title>dir_c4f4646ab0f4a2967be5b6215a500c22&#45;&gt;dir_da9e88029a658bab9ad39bb8696ef9bc</title>
<path fill="none" stroke="black" d="M243.258,-180.413C239.77,-188.484 234.88,-198.118 229.822,-206.978"/>
<polygon fill="black" stroke="black" points="226.658,-205.45 224.541,-215.831 232.67,-209.036 226.658,-205.45"/>
<a xlink:href="dir_000030_000039.html" target="_top" xlink:title="10">
<text text-anchor="middle" x="226.06" y="-198.408" font-family="Helvetica,sans-Serif" font-size="10.00">10</text>
</a>
</g>
<!-- dir_c4f4646ab0f4a2967be5b6215a500c22&#45;&gt;dir_5eb03804bf445589bf35c6aa84fb9a34 -->
<g id="edge42" class="edge"><title>dir_c4f4646ab0f4a2967be5b6215a500c22&#45;&gt;dir_5eb03804bf445589bf35c6aa84fb9a34</title>
<path fill="none" stroke="black" d="M251.394,-143.831C255.228,-135.708 260.574,-125.964 266.059,-117.012"/>
<polygon fill="black" stroke="black" points="269.116,-118.727 271.539,-108.413 263.213,-114.965 269.116,-118.727"/>
<a xlink:href="dir_000030_000034.html" target="_top" xlink:title="1">
<text text-anchor="middle" x="269.578" y="-120.785" font-family="Helvetica,sans-Serif" font-size="10.00">1</text>
</a>
</g>
<!-- dir_5eb03804bf445589bf35c6aa84fb9a34&#45;&gt;dir_0af1587c8378955de40f48b4bd1869f0 -->
<g id="edge44" class="edge"><title>dir_5eb03804bf445589bf35c6aa84fb9a34&#45;&gt;dir_0af1587c8378955de40f48b4bd1869f0</title>
<path fill="none" stroke="black" d="M255.77,-72.937C235.517,-62.2146 209.345,-48.3591 188.352,-37.2454"/>
<polygon fill="black" stroke="black" points="189.885,-34.0964 179.409,-32.5107 186.609,-40.2829 189.885,-34.0964"/>
<a xlink:href="dir_000034_000022.html" target="_top" xlink:title="10">
<text text-anchor="middle" x="194.39" y="-30.7689" font-family="Helvetica,sans-Serif" font-size="10.00">10</text>
</a>
</g>
<!-- dir_5eb03804bf445589bf35c6aa84fb9a34&#45;&gt;dir_c44c95bf3b41c3321c6014770d618ac8 -->
<g id="edge46" class="edge"><title>dir_5eb03804bf445589bf35c6aa84fb9a34&#45;&gt;dir_c44c95bf3b41c3321c6014770d618ac8</title>
<path fill="none" stroke="black" d="M289.138,-108.315C290.268,-139.777 288.948,-205.213 263,-252 257.518,-261.884 250,-271.56 242.585,-279.928"/>
<polygon fill="black" stroke="black" points="239.791,-277.795 235.576,-287.515 244.932,-282.545 239.791,-277.795"/>
<a xlink:href="dir_000034_000038.html" target="_top" xlink:title="11">
<text text-anchor="middle" x="240.144" y="-270.728" font-family="Helvetica,sans-Serif" font-size="10.00">11</text>
</a>
</g>
<!-- dir_5eb03804bf445589bf35c6aa84fb9a34&#45;&gt;dir_c4f4646ab0f4a2967be5b6215a500c22 -->
<g id="edge48" class="edge"><title>dir_5eb03804bf445589bf35c6aa84fb9a34&#45;&gt;dir_c4f4646ab0f4a2967be5b6215a500c22</title>
<path fill="none" stroke="black" d="M283.491,-108.413C279.626,-116.569 274.263,-126.321 268.776,-135.257"/>
<polygon fill="black" stroke="black" points="265.733,-133.52 263.298,-143.831 271.632,-137.289 265.733,-133.52"/>
<a xlink:href="dir_000034_000030.html" target="_top" xlink:title="6">
<text text-anchor="middle" x="265.275" y="-126.462" font-family="Helvetica,sans-Serif" font-size="10.00">6</text>
</a>
</g>
</g>
</svg>
