<?xml version="1.0" encoding="UTF-8" standalone="no"?>
<!DOCTYPE svg PUBLIC "-//W3C//DTD SVG 1.1//EN"
 "http://www.w3.org/Graphics/SVG/1.1/DTD/svg11.dtd">
<!-- Generated by graphviz version 2.26.3 (20100126.1600)
 -->
<!-- Title: src/analysis/physics/common Pages: 1 -->
<svg width="193pt" height="297pt"
 viewBox="0.00 0.00 192.60 297.00" xmlns="http://www.w3.org/2000/svg" xmlns:xlink="http://www.w3.org/1999/xlink">
<g id="graph1" class="graph" transform="scale(1 1) rotate(0) translate(4 293)">
<title>src/analysis/physics/common</title>
<polygon fill="white" stroke="white" points="-4,5 -4,-293 189.604,-293 189.604,5 -4,5"/>
<g id="graph2" class="cluster"><title>clusterdir_a21a804d6482c442bcd1b39e4dfcc179</title>
<a xlink:href="dir_a21a804d6482c442bcd1b39e4dfcc179.html" target="_top" xlink:title="physics">
<polygon fill="#ddddee" stroke="black" points="18.6042,-208 18.6042,-281 88.6042,-281 88.6042,-208 18.6042,-208"/>
<text text-anchor="middle" x="53.6042" y="-268" font-family="Helvetica,sans-Serif" font-size="10.00">physics</text>
</a>
</g>
<!-- dir_b41e020219f4b77363d5457b150817df -->
<g id="node2" class="node"><title>dir_b41e020219f4b77363d5457b150817df</title>
<a xlink:href="dir_b41e020219f4b77363d5457b150817df.html" target="_top" xlink:title="common">
<polygon fill="#eeeeff" stroke="black" points="80.6042,-252 26.6042,-252 26.6042,-216 80.6042,-216 80.6042,-252"/>
<text text-anchor="middle" x="53.6042" y="-231.5" font-family="Helvetica,sans-Serif" font-size="10.00">common</text>
</a>
</g>
<!-- dir_86afe70f6685ce518ba6965fc87e41ba -->
<g id="node3" class="node"><title>dir_86afe70f6685ce518ba6965fc87e41ba</title>
<a xlink:href="dir_86afe70f6685ce518ba6965fc87e41ba.html" target="_top" xlink:title="data">
<polygon fill="none" stroke="black" points="70.6042,-108 16.6042,-108 16.6042,-72 70.6042,-72 70.6042,-108"/>
<text text-anchor="middle" x="43.6042" y="-87.5" font-family="Helvetica,sans-Serif" font-size="10.00">data</text>
</a>
</g>
<!-- dir_b41e020219f4b77363d5457b150817df&#45;&gt;dir_86afe70f6685ce518ba6965fc87e41ba -->
<g id="edge11" class="edge"><title>dir_b41e020219f4b77363d5457b150817df&#45;&gt;dir_86afe70f6685ce518ba6965fc87e41ba</title>
<path fill="none" stroke="black" d="M50.2915,-215.572C48.5676,-205.166 46.6138,-191.899 45.6042,-180 43.8643,-159.495 43.3851,-136.274 43.33,-118.555"/>
<polygon fill="black" stroke="black" points="46.8302,-118.312 43.3431,-108.307 39.8303,-118.303 46.8302,-118.312"/>
<a xlink:href="dir_000013_000003.html" target="_top" xlink:title="4">
<text text-anchor="middle" x="49.665" y="-119.41" font-family="Helvetica,sans-Serif" font-size="10.00">4</text>
</a>
</g>
<!-- dir_0af1587c8378955de40f48b4bd1869f0 -->
<g id="node4" class="node"><title>dir_0af1587c8378955de40f48b4bd1869f0</title>
<a xlink:href="dir_0af1587c8378955de40f48b4bd1869f0.html" target="_top" xlink:title="base">
<polygon fill="white" stroke="red" points="97.6042,-36 43.6042,-36 43.6042,-1.77636e-14 97.6042,-3.55271e-15 97.6042,-36"/>
<text text-anchor="middle" x="70.6042" y="-15.5" font-family="Helvetica,sans-Serif" font-size="10.00">base</text>
</a>
</g>
<!-- dir_b41e020219f4b77363d5457b150817df&#45;&gt;dir_0af1587c8378955de40f48b4bd1869f0 -->
<g id="edge13" class="edge"><title>dir_b41e020219f4b77363d5457b150817df&#45;&gt;dir_0af1587c8378955de40f48b4bd1869f0</title>
<path fill="none" stroke="black" d="M40.4013,-215.863C19.8339,-185.217 -15.2413,-121.671 7.60417,-72 13.5521,-59.0678 24.2945,-48.0737 35.244,-39.4482"/>
<polygon fill="black" stroke="black" points="37.596,-42.0633 43.5815,-33.3211 33.4508,-36.4226 37.596,-42.0633"/>
<a xlink:href="dir_000013_000022.html" target="_top" xlink:title="1">
<text text-anchor="middle" x="36.3808" y="-43.9798" font-family="Helvetica,sans-Serif" font-size="10.00">1</text>
</a>
</g>
<!-- dir_c4f4646ab0f4a2967be5b6215a500c22 -->
<g id="node5" class="node"><title>dir_c4f4646ab0f4a2967be5b6215a500c22</title>
<a xlink:href="dir_c4f4646ab0f4a2967be5b6215a500c22.html" target="_top" xlink:title="expconfig">
<polygon fill="white" stroke="red" points="184.604,-180 126.604,-180 126.604,-144 184.604,-144 184.604,-180"/>
<text text-anchor="middle" x="155.604" y="-159.5" font-family="Helvetica,sans-Serif" font-size="10.00">expconfig</text>
</a>
</g>
<!-- dir_b41e020219f4b77363d5457b150817df&#45;&gt;dir_c4f4646ab0f4a2967be5b6215a500c22 -->
<g id="edge15" class="edge"><title>dir_b41e020219f4b77363d5457b150817df&#45;&gt;dir_c4f4646ab0f4a2967be5b6215a500c22</title>
<path fill="none" stroke="black" d="M79.3431,-215.831C92.1479,-206.793 107.795,-195.748 121.576,-186.02"/>
<polygon fill="black" stroke="black" points="123.722,-188.789 129.873,-180.163 119.685,-183.07 123.722,-188.789"/>
<a xlink:href="dir_000013_000030.html" target="_top" xlink:title="1">
<text text-anchor="middle" x="122.423" y="-190.682" font-family="Helvetica,sans-Serif" font-size="10.00">1</text>
</a>
</g>
<!-- dir_8f68c37b22d514b4289e3a1255795d80 -->
<g id="node6" class="node"><title>dir_8f68c37b22d514b4289e3a1255795d80</title>
<a xlink:href="dir_8f68c37b22d514b4289e3a1255795d80.html" target="_top" xlink:title="plot">
<polygon fill="none" stroke="black" points="108.604,-180 54.6042,-180 54.6042,-144 108.604,-144 108.604,-180"/>
<text text-anchor="middle" x="81.6042" y="-159.5" font-family="Helvetica,sans-Serif" font-size="10.00">plot</text>
</a>
</g>
<!-- dir_b41e020219f4b77363d5457b150817df&#45;&gt;dir_8f68c37b22d514b4289e3a1255795d80 -->
<g id="edge17" class="edge"><title>dir_b41e020219f4b77363d5457b150817df&#45;&gt;dir_8f68c37b22d514b4289e3a1255795d80</title>
<path fill="none" stroke="black" d="M60.6698,-215.831C63.7302,-207.962 67.3821,-198.571 70.7723,-189.853"/>
<polygon fill="black" stroke="black" points="74.0809,-191.002 74.4435,-180.413 67.5569,-188.465 74.0809,-191.002"/>
<a xlink:href="dir_000013_000020.html" target="_top" xlink:title="6">
<text text-anchor="middle" x="75.4244" y="-192.881" font-family="Helvetica,sans-Serif" font-size="10.00">6</text>
</a>
</g>
<!-- dir_86afe70f6685ce518ba6965fc87e41ba&#45;&gt;dir_0af1587c8378955de40f48b4bd1869f0 -->
<g id="edge3" class="edge"><title>dir_86afe70f6685ce518ba6965fc87e41ba&#45;&gt;dir_0af1587c8378955de40f48b4bd1869f0</title>
<path fill="none" stroke="black" d="M50.4174,-71.8314C53.3685,-63.9617 56.89,-54.5712 60.1592,-45.8533"/>
<polygon fill="black" stroke="black" points="63.4651,-47.0055 63.6992,-36.4133 56.9107,-44.5476 63.4651,-47.0055"/>
<a xlink:href="dir_000003_000022.html" target="_top" xlink:title="15">
<text text-anchor="middle" x="64.8615" y="-48.8682" font-family="Helvetica,sans-Serif" font-size="10.00">15</text>
</a>
</g>
<!-- dir_c4f4646ab0f4a2967be5b6215a500c22&#45;&gt;dir_0af1587c8378955de40f48b4bd1869f0 -->
<g id="edge5" class="edge"><title>dir_c4f4646ab0f4a2967be5b6215a500c22&#45;&gt;dir_0af1587c8378955de40f48b4bd1869f0</title>
<path fill="none" stroke="black" d="M144.839,-143.762C130.085,-118.768 103.478,-73.6924 86.4477,-44.8409"/>
<polygon fill="black" stroke="black" points="89.3795,-42.9221 81.2821,-36.0896 83.3513,-46.4804 89.3795,-42.9221"/>
<a xlink:href="dir_000030_000022.html" target="_top" xlink:title="16">
<text text-anchor="middle" x="93.6517" y="-42.0744" font-family="Helvetica,sans-Serif" font-size="10.00">16</text>
</a>
</g>
<!-- dir_8f68c37b22d514b4289e3a1255795d80&#45;&gt;dir_86afe70f6685ce518ba6965fc87e41ba -->
<g id="edge7" class="edge"><title>dir_8f68c37b22d514b4289e3a1255795d80&#45;&gt;dir_86afe70f6685ce518ba6965fc87e41ba</title>
<path fill="none" stroke="black" d="M72.0152,-143.831C67.7724,-135.792 62.6921,-126.167 58.0082,-117.292"/>
<polygon fill="black" stroke="black" points="61.0853,-115.623 53.3223,-108.413 54.8946,-118.891 61.0853,-115.623"/>
<a xlink:href="dir_000020_000003.html" target="_top" xlink:title="2">
<text text-anchor="middle" x="65.274" y="-114.977" font-family="Helvetica,sans-Serif" font-size="10.00">2</text>
</a>
</g>
<!-- dir_8f68c37b22d514b4289e3a1255795d80&#45;&gt;dir_0af1587c8378955de40f48b4bd1869f0 -->
<g id="edge9" class="edge"><title>dir_8f68c37b22d514b4289e3a1255795d80&#45;&gt;dir_0af1587c8378955de40f48b4bd1869f0</title>
<path fill="none" stroke="black" d="M81.9616,-143.684C82.1373,-125.467 81.9288,-96.7409 79.6042,-72 78.8165,-63.6167 77.4961,-54.5685 76.1061,-46.3197"/>
<polygon fill="black" stroke="black" points="79.5404,-45.6413 74.343,-36.4089 72.6486,-46.8674 79.5404,-45.6413"/>
<a xlink:href="dir_000020_000022.html" target="_top" xlink:title="2">
<text text-anchor="middle" x="82.9653" y="-46.1831" font-family="Helvetica,sans-Serif" font-size="10.00">2</text>
</a>
</g>
</g>
</svg>
