<?xml version="1.0" encoding="UTF-8" standalone="no"?>
<!DOCTYPE svg PUBLIC "-//W3C//DTD SVG 1.1//EN"
 "http://www.w3.org/Graphics/SVG/1.1/DTD/svg11.dtd">
<!-- Generated by graphviz version 2.26.3 (20100126.1600)
 -->
<!-- Title: src/base Pages: 1 -->
<svg width="210pt" height="185pt"
 viewBox="0.00 0.00 210.00 185.00" xmlns="http://www.w3.org/2000/svg" xmlns:xlink="http://www.w3.org/1999/xlink">
<g id="graph1" class="graph" transform="scale(1 1) rotate(0) translate(4 181)">
<title>src/base</title>
<polygon fill="white" stroke="white" points="-4,5 -4,-181 207,-181 207,5 -4,5"/>
<g id="graph2" class="cluster"><title>clusterdir_68267d1309a1af8e8297ef4c3efbcdba</title>
<a xlink:href="dir_68267d1309a1af8e8297ef4c3efbcdba.html" target="_top" xlink:title="src">
<polygon fill="#ddddee" stroke="black" points="8,-8 8,-169 194,-169 194,-8 8,-8"/>
<text text-anchor="middle" x="101" y="-156" font-family="Helvetica,sans-Serif" font-size="10.00">src</text>
</a>
</g>
<g id="graph3" class="cluster"><title>clusterdir_0af1587c8378955de40f48b4bd1869f0</title>
<a xlink:href="dir_0af1587c8378955de40f48b4bd1869f0.html" target="_top">
<polygon fill="#eeeeff" stroke="black" points="16,-16 16,-140 186,-140 186,-16 16,-16"/>
</a>
</g>
<!-- dir_0af1587c8378955de40f48b4bd1869f0 -->
<g id="node3" class="node"><title>dir_0af1587c8378955de40f48b4bd1869f0</title>
<text text-anchor="middle" x="151" y="-111.5" font-family="Helvetica,sans-Serif" font-size="10.00">base</text>
</g>
<!-- dir_2785e539dc2185bb77968109a302f52f -->
<g id="node5" class="node"><title>dir_2785e539dc2185bb77968109a302f52f</title>
<a xlink:href="dir_2785e539dc2185bb77968109a302f52f.html" target="_top" xlink:title="std_ext">
<polygon fill="white" stroke="black" points="178,-60 124,-60 124,-24 178,-24 178,-60"/>
<text text-anchor="middle" x="151" y="-39.5" font-family="Helvetica,sans-Serif" font-size="10.00">std_ext</text>
</a>
</g>
<!-- dir_0af1587c8378955de40f48b4bd1869f0&#45;&gt;dir_2785e539dc2185bb77968109a302f52f -->
<g id="edge4" class="edge"><title>dir_0af1587c8378955de40f48b4bd1869f0&#45;&gt;dir_2785e539dc2185bb77968109a302f52f</title>
<path fill="none" stroke="black" d="M151,-95.8314C151,-88.131 151,-78.9743 151,-70.4166"/>
<polygon fill="black" stroke="black" points="154.5,-70.4132 151,-60.4133 147.5,-70.4133 154.5,-70.4132"/>
<a xlink:href="dir_000022_000024.html" target="_top" xlink:title="4">
<text text-anchor="middle" x="157.339" y="-71.5079" font-family="Helvetica,sans-Serif" font-size="10.00">4</text>
</a>
</g>
<!-- dir_d5f0873a81aafa8486282a1d3ccfcca9 -->
<g id="node4" class="node"><title>dir_d5f0873a81aafa8486282a1d3ccfcca9</title>
<a xlink:href="dir_d5f0873a81aafa8486282a1d3ccfcca9.html" target="_top" xlink:title="cbtaps_display">
<polygon fill="white" stroke="black" points="106,-132 24,-132 24,-96 106,-96 106,-132"/>
<text text-anchor="middle" x="65" y="-111.5" font-family="Helvetica,sans-Serif" font-size="10.00">cbtaps_display</text>
</a>
</g>
</g>
</svg>
