<?xml version="1.0" encoding="UTF-8" standalone="no"?>
<!DOCTYPE svg PUBLIC "-//W3C//DTD SVG 1.1//EN"
 "http://www.w3.org/Graphics/SVG/1.1/DTD/svg11.dtd">
<!-- Generated by graphviz version 2.26.3 (20100126.1600)
 -->
<!-- Title: src/expconfig/setups Pages: 1 -->
<svg width="246pt" height="441pt"
 viewBox="0.00 0.00 246.00 441.00" xmlns="http://www.w3.org/2000/svg" xmlns:xlink="http://www.w3.org/1999/xlink">
<g id="graph1" class="graph" transform="scale(1 1) rotate(0) translate(4 437)">
<title>src/expconfig/setups</title>
<polygon fill="white" stroke="white" points="-4,5 -4,-437 243,-437 243,5 -4,5"/>
<g id="graph2" class="cluster"><title>clusterdir_c4f4646ab0f4a2967be5b6215a500c22</title>
<a xlink:href="dir_c4f4646ab0f4a2967be5b6215a500c22.html" target="_top" xlink:title="expconfig">
<polygon fill="#ddddee" stroke="black" points="59,-352 59,-425 129,-425 129,-352 59,-352"/>
<text text-anchor="middle" x="94" y="-412" font-family="Helvetica,sans-Serif" font-size="10.00">expconfig</text>
</a>
</g>
<!-- dir_3d468596428ffb12814829a3f430a3ed -->
<g id="node2" class="node"><title>dir_3d468596428ffb12814829a3f430a3ed</title>
<a xlink:href="dir_3d468596428ffb12814829a3f430a3ed.html" target="_top" xlink:title="setups">
<polygon fill="#eeeeff" stroke="black" points="121,-396 67,-396 67,-360 121,-360 121,-396"/>
<text text-anchor="middle" x="94" y="-375.5" font-family="Helvetica,sans-Serif" font-size="10.00">setups</text>
</a>
</g>
<!-- dir_f0b5461fe6d76f238177302312df4359 -->
<g id="node3" class="node"><title>dir_f0b5461fe6d76f238177302312df4359</title>
<a xlink:href="dir_f0b5461fe6d76f238177302312df4359.html" target="_top" xlink:title="detectors">
<polygon fill="white" stroke="red" points="122,-252 66,-252 66,-216 122,-216 122,-252"/>
<text text-anchor="middle" x="94" y="-231.5" font-family="Helvetica,sans-Serif" font-size="10.00">detectors</text>
</a>
</g>
<!-- dir_3d468596428ffb12814829a3f430a3ed&#45;&gt;dir_f0b5461fe6d76f238177302312df4359 -->
<g id="edge3" class="edge"><title>dir_3d468596428ffb12814829a3f430a3ed&#45;&gt;dir_f0b5461fe6d76f238177302312df4359</title>
<path fill="none" stroke="black" d="M94,-359.762C94,-335.201 94,-291.247 94,-262.354"/>
<polygon fill="black" stroke="black" points="97.5001,-262.09 94,-252.09 90.5001,-262.09 97.5001,-262.09"/>
<a xlink:href="dir_000033_000031.html" target="_top" xlink:title="6">
<text text-anchor="middle" x="100.339" y="-263.184" font-family="Helvetica,sans-Serif" font-size="10.00">6</text>
</a>
</g>
<!-- dir_0af1587c8378955de40f48b4bd1869f0 -->
<g id="node4" class="node"><title>dir_0af1587c8378955de40f48b4bd1869f0</title>
<a xlink:href="dir_0af1587c8378955de40f48b4bd1869f0.html" target="_top" xlink:title="base">
<polygon fill="white" stroke="red" points="159,-36 105,-36 105,-1.77636e-14 159,-3.55271e-15 159,-36"/>
<text text-anchor="middle" x="132" y="-15.5" font-family="Helvetica,sans-Serif" font-size="10.00">base</text>
</a>
</g>
<!-- dir_3d468596428ffb12814829a3f430a3ed&#45;&gt;dir_0af1587c8378955de40f48b4bd1869f0 -->
<g id="edge5" class="edge"><title>dir_3d468596428ffb12814829a3f430a3ed&#45;&gt;dir_0af1587c8378955de40f48b4bd1869f0</title>
<path fill="none" stroke="black" d="M72.1982,-359.996C44.4297,-334.903 0,-286.545 0,-234 0,-234 0,-234 0,-162 0,-105.014 56.8675,-60.798 95.9509,-37.1388"/>
<polygon fill="black" stroke="black" points="98.1145,-39.9274 104.969,-31.8489 94.5728,-33.8894 98.1145,-39.9274"/>
<a xlink:href="dir_000033_000022.html" target="_top" xlink:title="2">
<text text-anchor="middle" x="96.4504" y="-41.6951" font-family="Helvetica,sans-Serif" font-size="10.00">2</text>
</a>
</g>
<!-- dir_c44c95bf3b41c3321c6014770d618ac8 -->
<g id="node5" class="node"><title>dir_c44c95bf3b41c3321c6014770d618ac8</title>
<a xlink:href="dir_c44c95bf3b41c3321c6014770d618ac8.html" target="_top" xlink:title="tree">
<polygon fill="none" stroke="black" points="196,-180 142,-180 142,-144 196,-144 196,-180"/>
<text text-anchor="middle" x="169" y="-159.5" font-family="Helvetica,sans-Serif" font-size="10.00">tree</text>
</a>
</g>
<!-- dir_3d468596428ffb12814829a3f430a3ed&#45;&gt;dir_c44c95bf3b41c3321c6014770d618ac8 -->
<g id="edge7" class="edge"><title>dir_3d468596428ffb12814829a3f430a3ed&#45;&gt;dir_c44c95bf3b41c3321c6014770d618ac8</title>
<path fill="none" stroke="black" d="M100.265,-359.955C113.363,-322.235 143.716,-234.819 159.333,-189.84"/>
<polygon fill="black" stroke="black" points="162.726,-190.74 162.7,-180.145 156.113,-188.444 162.726,-190.74"/>
<a xlink:href="dir_000033_000038.html" target="_top" xlink:title="1">
<text text-anchor="middle" x="164.229" y="-192.567" font-family="Helvetica,sans-Serif" font-size="10.00">1</text>
</a>
</g>
<!-- dir_f1b881a94df93d2a183c4d8f47373448 -->
<g id="node6" class="node"><title>dir_f1b881a94df93d2a183c4d8f47373448</title>
<a xlink:href="dir_f1b881a94df93d2a183c4d8f47373448.html" target="_top" xlink:title="calibration">
<polygon fill="white" stroke="red" points="238,-324 178,-324 178,-288 238,-288 238,-324"/>
<text text-anchor="middle" x="208" y="-303.5" font-family="Helvetica,sans-Serif" font-size="10.00">calibration</text>
</a>
</g>
<!-- dir_3d468596428ffb12814829a3f430a3ed&#45;&gt;dir_f1b881a94df93d2a183c4d8f47373448 -->
<g id="edge9" class="edge"><title>dir_3d468596428ffb12814829a3f430a3ed&#45;&gt;dir_f1b881a94df93d2a183c4d8f47373448</title>
<path fill="none" stroke="black" d="M121.016,-360.937C135.794,-351.604 154.33,-339.897 170.49,-329.69"/>
<polygon fill="black" stroke="black" points="172.599,-332.498 179.185,-324.199 168.861,-326.58 172.599,-332.498"/>
<a xlink:href="dir_000033_000025.html" target="_top" xlink:title="17">
<text text-anchor="middle" x="171.076" y="-334.318" font-family="Helvetica,sans-Serif" font-size="10.00">17</text>
</a>
</g>
<!-- dir_da9e88029a658bab9ad39bb8696ef9bc -->
<g id="node7" class="node"><title>dir_da9e88029a658bab9ad39bb8696ef9bc</title>
<a xlink:href="dir_da9e88029a658bab9ad39bb8696ef9bc.html" target="_top" xlink:title="unpacker">
<polygon fill="white" stroke="red" points="160,-108 104,-108 104,-72 160,-72 160,-108"/>
<text text-anchor="middle" x="132" y="-87.5" font-family="Helvetica,sans-Serif" font-size="10.00">unpacker</text>
</a>
</g>
<!-- dir_3d468596428ffb12814829a3f430a3ed&#45;&gt;dir_da9e88029a658bab9ad39bb8696ef9bc -->
<g id="edge11" class="edge"><title>dir_3d468596428ffb12814829a3f430a3ed&#45;&gt;dir_da9e88029a658bab9ad39bb8696ef9bc</title>
<path fill="none" stroke="black" d="M84.0212,-359.892C68.7485,-329.813 42.7672,-267.738 57,-216 67.389,-178.235 92.3814,-140.351 110.671,-116.133"/>
<polygon fill="black" stroke="black" points="113.486,-118.214 116.826,-108.159 107.945,-113.936 113.486,-118.214"/>
<a xlink:href="dir_000033_000039.html" target="_top" xlink:title="2">
<text text-anchor="middle" x="113.537" y="-120.294" font-family="Helvetica,sans-Serif" font-size="10.00">2</text>
</a>
</g>
<!-- dir_f0b5461fe6d76f238177302312df4359&#45;&gt;dir_0af1587c8378955de40f48b4bd1869f0 -->
<g id="edge13" class="edge"><title>dir_f0b5461fe6d76f238177302312df4359&#45;&gt;dir_0af1587c8378955de40f48b4bd1869f0</title>
<path fill="none" stroke="black" d="M90.7537,-215.977C85.9947,-185.497 79.2843,-122.192 95,-72 98.0748,-62.1799 103.603,-52.5509 109.465,-44.2064"/>
<polygon fill="black" stroke="black" points="112.404,-46.121 115.605,-36.0214 106.805,-41.9203 112.404,-46.121"/>
<a xlink:href="dir_000031_000022.html" target="_top" xlink:title="10">
<text text-anchor="middle" x="112.518" y="-48.2003" font-family="Helvetica,sans-Serif" font-size="10.00">10</text>
</a>
</g>
<!-- dir_f0b5461fe6d76f238177302312df4359&#45;&gt;dir_c44c95bf3b41c3321c6014770d618ac8 -->
<g id="edge15" class="edge"><title>dir_f0b5461fe6d76f238177302312df4359&#45;&gt;dir_c44c95bf3b41c3321c6014770d618ac8</title>
<path fill="none" stroke="black" d="M112.926,-215.831C121.986,-207.134 132.981,-196.578 142.827,-187.127"/>
<polygon fill="black" stroke="black" points="145.29,-189.613 150.08,-180.163 140.443,-184.563 145.29,-189.613"/>
<a xlink:href="dir_000031_000038.html" target="_top" xlink:title="5">
<text text-anchor="middle" x="144.664" y="-191.651" font-family="Helvetica,sans-Serif" font-size="10.00">5</text>
</a>
</g>
<!-- dir_f0b5461fe6d76f238177302312df4359&#45;&gt;dir_da9e88029a658bab9ad39bb8696ef9bc -->
<g id="edge17" class="edge"><title>dir_f0b5461fe6d76f238177302312df4359&#45;&gt;dir_da9e88029a658bab9ad39bb8696ef9bc</title>
<path fill="none" stroke="black" d="M98.8127,-215.762C105.323,-191.093 116.995,-146.86 124.618,-117.973"/>
<polygon fill="black" stroke="black" points="128.059,-118.652 127.226,-108.09 121.291,-116.866 128.059,-118.652"/>
<a xlink:href="dir_000031_000039.html" target="_top" xlink:title="6">
<text text-anchor="middle" x="129.887" y="-120.352" font-family="Helvetica,sans-Serif" font-size="10.00">6</text>
</a>
</g>
<!-- dir_c44c95bf3b41c3321c6014770d618ac8&#45;&gt;dir_0af1587c8378955de40f48b4bd1869f0 -->
<g id="edge19" class="edge"><title>dir_c44c95bf3b41c3321c6014770d618ac8&#45;&gt;dir_0af1587c8378955de40f48b4bd1869f0</title>
<path fill="none" stroke="black" d="M172.075,-143.944C174.524,-125.432 176.443,-96.03 169,-72 165.956,-62.1704 160.436,-52.5387 154.573,-44.1946"/>
<polygon fill="black" stroke="black" points="157.231,-41.9061 148.428,-36.011 151.634,-46.1092 157.231,-41.9061"/>
<a xlink:href="dir_000038_000022.html" target="_top" xlink:title="15">
<text text-anchor="middle" x="161.66" y="-40.5758" font-family="Helvetica,sans-Serif" font-size="10.00">15</text>
</a>
</g>
<!-- dir_c44c95bf3b41c3321c6014770d618ac8&#45;&gt;dir_da9e88029a658bab9ad39bb8696ef9bc -->
<g id="edge21" class="edge"><title>dir_c44c95bf3b41c3321c6014770d618ac8&#45;&gt;dir_da9e88029a658bab9ad39bb8696ef9bc</title>
<path fill="none" stroke="black" d="M153.711,-143.831C148.848,-135.877 143.752,-126.369 139.586,-117.572"/>
<polygon fill="black" stroke="black" points="142.767,-116.111 135.486,-108.413 136.378,-118.971 142.767,-116.111"/>
<a xlink:href="dir_000038_000039.html" target="_top" xlink:title="2">
<text text-anchor="middle" x="146.827" y="-115.731" font-family="Helvetica,sans-Serif" font-size="10.00">2</text>
</a>
</g>
<!-- dir_f1b881a94df93d2a183c4d8f47373448&#45;&gt;dir_f0b5461fe6d76f238177302312df4359 -->
<g id="edge23" class="edge"><title>dir_f1b881a94df93d2a183c4d8f47373448&#45;&gt;dir_f0b5461fe6d76f238177302312df4359</title>
<path fill="none" stroke="black" d="M179.233,-287.831C164.676,-278.638 146.833,-267.368 131.241,-257.521"/>
<polygon fill="black" stroke="black" points="132.687,-254.294 122.363,-251.913 128.949,-260.213 132.687,-254.294"/>
<a xlink:href="dir_000025_000031.html" target="_top" xlink:title="5">
<text text-anchor="middle" x="137.242" y="-251.313" font-family="Helvetica,sans-Serif" font-size="10.00">5</text>
</a>
</g>
<!-- dir_f1b881a94df93d2a183c4d8f47373448&#45;&gt;dir_0af1587c8378955de40f48b4bd1869f0 -->
<g id="edge25" class="edge"><title>dir_f1b881a94df93d2a183c4d8f47373448&#45;&gt;dir_0af1587c8378955de40f48b4bd1869f0</title>
<path fill="none" stroke="black" d="M211.095,-287.775C217.173,-246.292 226.772,-142.929 186,-72 179.919,-61.4205 171.23,-51.4683 162.595,-43.0597"/>
<polygon fill="black" stroke="black" points="164.798,-40.3288 155.087,-36.0907 160.035,-45.4592 164.798,-40.3288"/>
<a xlink:href="dir_000025_000022.html" target="_top" xlink:title="49">
<text text-anchor="middle" x="169.364" y="-38.1933" font-family="Helvetica,sans-Serif" font-size="10.00">49</text>
</a>
</g>
<!-- dir_f1b881a94df93d2a183c4d8f47373448&#45;&gt;dir_c44c95bf3b41c3321c6014770d618ac8 -->
<g id="edge27" class="edge"><title>dir_f1b881a94df93d2a183c4d8f47373448&#45;&gt;dir_c44c95bf3b41c3321c6014770d618ac8</title>
<path fill="none" stroke="black" d="M203.061,-287.762C196.379,-263.093 184.4,-218.86 176.576,-189.973"/>
<polygon fill="black" stroke="black" points="179.892,-188.827 173.899,-180.09 173.135,-190.657 179.892,-188.827"/>
<a xlink:href="dir_000025_000038.html" target="_top" xlink:title="23">
<text text-anchor="middle" x="183.572" y="-189.054" font-family="Helvetica,sans-Serif" font-size="10.00">23</text>
</a>
</g>
<!-- dir_da9e88029a658bab9ad39bb8696ef9bc&#45;&gt;dir_0af1587c8378955de40f48b4bd1869f0 -->
<g id="edge29" class="edge"><title>dir_da9e88029a658bab9ad39bb8696ef9bc&#45;&gt;dir_0af1587c8378955de40f48b4bd1869f0</title>
<path fill="none" stroke="black" d="M132,-71.8314C132,-64.131 132,-54.9743 132,-46.4166"/>
<polygon fill="black" stroke="black" points="135.5,-46.4132 132,-36.4133 128.5,-46.4133 135.5,-46.4132"/>
<a xlink:href="dir_000039_000022.html" target="_top" xlink:title="12">
<text text-anchor="middle" x="138.339" y="-47.5079" font-family="Helvetica,sans-Serif" font-size="10.00">12</text>
</a>
</g>
<!-- dir_da9e88029a658bab9ad39bb8696ef9bc&#45;&gt;dir_c44c95bf3b41c3321c6014770d618ac8 -->
<g id="edge31" class="edge"><title>dir_da9e88029a658bab9ad39bb8696ef9bc&#45;&gt;dir_c44c95bf3b41c3321c6014770d618ac8</title>
<path fill="none" stroke="black" d="M147.438,-108.413C152.306,-116.399 157.395,-125.916 161.541,-134.697"/>
<polygon fill="black" stroke="black" points="158.345,-136.125 165.616,-143.831 164.738,-133.273 158.345,-136.125"/>
<a xlink:href="dir_000039_000038.html" target="_top" xlink:title="11">
<text text-anchor="middle" x="154.288" y="-131.498" font-family="Helvetica,sans-Serif" font-size="10.00">11</text>
</a>
</g>
</g>
</svg>
