<?xml version="1.0" encoding="UTF-8" standalone="no"?>
<!DOCTYPE svg PUBLIC "-//W3C//DTD SVG 1.1//EN"
 "http://www.w3.org/Graphics/SVG/1.1/DTD/svg11.dtd">
<!-- Generated by graphviz version 2.26.3 (20100126.1600)
 -->
<!-- Title: src/analysis/physics/DeltaPlus Pages: 1 -->
<svg width="135pt" height="297pt"
 viewBox="0.00 0.00 135.00 297.00" xmlns="http://www.w3.org/2000/svg" xmlns:xlink="http://www.w3.org/1999/xlink">
<g id="graph1" class="graph" transform="scale(1 1) rotate(0) translate(4 293)">
<title>src/analysis/physics/DeltaPlus</title>
<polygon fill="white" stroke="white" points="-4,5 -4,-293 132,-293 132,5 -4,5"/>
<g id="graph2" class="cluster"><title>clusterdir_a21a804d6482c442bcd1b39e4dfcc179</title>
<a xlink:href="dir_a21a804d6482c442bcd1b39e4dfcc179.html" target="_top" xlink:title="physics">
<polygon fill="#ddddee" stroke="black" points="8,-208 8,-281 82,-281 82,-208 8,-208"/>
<text text-anchor="middle" x="45" y="-268" font-family="Helvetica,sans-Serif" font-size="10.00">physics</text>
</a>
</g>
<!-- dir_aa4412e8ff7d066c54b5e32d9607e3e6 -->
<g id="node2" class="node"><title>dir_aa4412e8ff7d066c54b5e32d9607e3e6</title>
<a xlink:href="dir_aa4412e8ff7d066c54b5e32d9607e3e6.html" target="_top" xlink:title="DeltaPlus">
<polygon fill="#eeeeff" stroke="black" points="74,-252 16,-252 16,-216 74,-216 74,-252"/>
<text text-anchor="middle" x="45" y="-231.5" font-family="Helvetica,sans-Serif" font-size="10.00">DeltaPlus</text>
</a>
</g>
<!-- dir_86afe70f6685ce518ba6965fc87e41ba -->
<g id="node3" class="node"><title>dir_86afe70f6685ce518ba6965fc87e41ba</title>
<a xlink:href="dir_86afe70f6685ce518ba6965fc87e41ba.html" target="_top" xlink:title="data">
<polygon fill="none" stroke="black" points="81,-108 27,-108 27,-72 81,-72 81,-108"/>
<text text-anchor="middle" x="54" y="-87.5" font-family="Helvetica,sans-Serif" font-size="10.00">data</text>
</a>
</g>
<!-- dir_aa4412e8ff7d066c54b5e32d9607e3e6&#45;&gt;dir_86afe70f6685ce518ba6965fc87e41ba -->
<g id="edge9" class="edge"><title>dir_aa4412e8ff7d066c54b5e32d9607e3e6&#45;&gt;dir_86afe70f6685ce518ba6965fc87e41ba</title>
<path fill="none" stroke="black" d="M46.1399,-215.762C47.6749,-191.201 50.422,-147.247 52.2279,-118.354"/>
<polygon fill="black" stroke="black" points="55.7387,-118.288 52.8694,-108.09 48.7523,-117.852 55.7387,-118.288"/>
<a xlink:href="dir_000014_000003.html" target="_top" xlink:title="2">
<text text-anchor="middle" x="58.3483" y="-119.553" font-family="Helvetica,sans-Serif" font-size="10.00">2</text>
</a>
</g>
<!-- dir_0af1587c8378955de40f48b4bd1869f0 -->
<g id="node4" class="node"><title>dir_0af1587c8378955de40f48b4bd1869f0</title>
<a xlink:href="dir_0af1587c8378955de40f48b4bd1869f0.html" target="_top" xlink:title="base">
<polygon fill="white" stroke="red" points="81,-36 27,-36 27,-1.77636e-14 81,-3.55271e-15 81,-36"/>
<text text-anchor="middle" x="54" y="-15.5" font-family="Helvetica,sans-Serif" font-size="10.00">base</text>
</a>
</g>
<!-- dir_aa4412e8ff7d066c54b5e32d9607e3e6&#45;&gt;dir_0af1587c8378955de40f48b4bd1869f0 -->
<g id="edge11" class="edge"><title>dir_aa4412e8ff7d066c54b5e32d9607e3e6&#45;&gt;dir_0af1587c8378955de40f48b4bd1869f0</title>
<path fill="none" stroke="black" d="M36.6006,-215.672C23.8485,-185.277 2.63156,-122.759 18,-72 20.9564,-62.2355 26.3252,-52.6229 32.03,-44.2762"/>
<polygon fill="black" stroke="black" points="34.9414,-46.2239 38.0095,-36.0831 29.2871,-42.0973 34.9414,-46.2239"/>
<a xlink:href="dir_000014_000022.html" target="_top" xlink:title="2">
<text text-anchor="middle" x="35.1158" y="-48.3013" font-family="Helvetica,sans-Serif" font-size="10.00">2</text>
</a>
</g>
<!-- dir_8f68c37b22d514b4289e3a1255795d80 -->
<g id="node5" class="node"><title>dir_8f68c37b22d514b4289e3a1255795d80</title>
<a xlink:href="dir_8f68c37b22d514b4289e3a1255795d80.html" target="_top" xlink:title="plot">
<polygon fill="none" stroke="black" points="127,-180 73,-180 73,-144 127,-144 127,-180"/>
<text text-anchor="middle" x="100" y="-159.5" font-family="Helvetica,sans-Serif" font-size="10.00">plot</text>
</a>
</g>
<!-- dir_aa4412e8ff7d066c54b5e32d9607e3e6&#45;&gt;dir_8f68c37b22d514b4289e3a1255795d80 -->
<g id="edge13" class="edge"><title>dir_aa4412e8ff7d066c54b5e32d9607e3e6&#45;&gt;dir_8f68c37b22d514b4289e3a1255795d80</title>
<path fill="none" stroke="black" d="M58.8788,-215.831C65.2136,-207.539 72.8384,-197.557 79.7926,-188.453"/>
<polygon fill="black" stroke="black" points="82.6452,-190.485 85.9343,-180.413 77.0825,-186.235 82.6452,-190.485"/>
<a xlink:href="dir_000014_000020.html" target="_top" xlink:title="2">
<text text-anchor="middle" x="82.7195" y="-192.565" font-family="Helvetica,sans-Serif" font-size="10.00">2</text>
</a>
</g>
<!-- dir_86afe70f6685ce518ba6965fc87e41ba&#45;&gt;dir_0af1587c8378955de40f48b4bd1869f0 -->
<g id="edge3" class="edge"><title>dir_86afe70f6685ce518ba6965fc87e41ba&#45;&gt;dir_0af1587c8378955de40f48b4bd1869f0</title>
<path fill="none" stroke="black" d="M54,-71.8314C54,-64.131 54,-54.9743 54,-46.4166"/>
<polygon fill="black" stroke="black" points="57.5001,-46.4132 54,-36.4133 50.5001,-46.4133 57.5001,-46.4132"/>
<a xlink:href="dir_000003_000022.html" target="_top" xlink:title="15">
<text text-anchor="middle" x="60.3393" y="-47.5079" font-family="Helvetica,sans-Serif" font-size="10.00">15</text>
</a>
</g>
<!-- dir_8f68c37b22d514b4289e3a1255795d80&#45;&gt;dir_86afe70f6685ce518ba6965fc87e41ba -->
<g id="edge5" class="edge"><title>dir_8f68c37b22d514b4289e3a1255795d80&#45;&gt;dir_86afe70f6685ce518ba6965fc87e41ba</title>
<path fill="none" stroke="black" d="M88.3923,-143.831C83.2022,-135.708 76.9768,-125.964 71.2575,-117.012"/>
<polygon fill="black" stroke="black" points="74.0974,-114.956 65.764,-108.413 68.1985,-118.725 74.0974,-114.956"/>
<a xlink:href="dir_000020_000003.html" target="_top" xlink:title="2">
<text text-anchor="middle" x="78.4253" y="-113.956" font-family="Helvetica,sans-Serif" font-size="10.00">2</text>
</a>
</g>
<!-- dir_8f68c37b22d514b4289e3a1255795d80&#45;&gt;dir_0af1587c8378955de40f48b4bd1869f0 -->
<g id="edge7" class="edge"><title>dir_8f68c37b22d514b4289e3a1255795d80&#45;&gt;dir_0af1587c8378955de40f48b4bd1869f0</title>
<path fill="none" stroke="black" d="M100.47,-143.842C100.385,-125.248 98.6632,-95.7823 90,-72 86.5081,-62.414 80.9827,-52.8535 75.299,-44.4998"/>
<polygon fill="black" stroke="black" points="78.073,-42.3622 69.3975,-36.2807 72.387,-46.445 78.073,-42.3622"/>
<a xlink:href="dir_000020_000022.html" target="_top" xlink:title="2">
<text text-anchor="middle" x="82.4759" y="-41.1261" font-family="Helvetica,sans-Serif" font-size="10.00">2</text>
</a>
</g>
</g>
</svg>
