<?xml version="1.0" encoding="UTF-8" standalone="no"?>
<!DOCTYPE svg PUBLIC "-//W3C//DTD SVG 1.1//EN"
 "http://www.w3.org/Graphics/SVG/1.1/DTD/svg11.dtd">
<!-- Generated by graphviz version 2.26.3 (20100126.1600)
 -->
<!-- Title: src/unpacker Pages: 1 -->
<svg width="200pt" height="305pt"
 viewBox="0.00 0.00 200.00 305.00" xmlns="http://www.w3.org/2000/svg" xmlns:xlink="http://www.w3.org/1999/xlink">
<g id="graph1" class="graph" transform="scale(1 1) rotate(0) translate(4 301)">
<title>src/unpacker</title>
<polygon fill="white" stroke="white" points="-4,5 -4,-301 197,-301 197,5 -4,5"/>
<g id="graph2" class="cluster"><title>clusterdir_68267d1309a1af8e8297ef4c3efbcdba</title>
<a xlink:href="dir_68267d1309a1af8e8297ef4c3efbcdba.html" target="_top" xlink:title="src">
<polygon fill="#ddddee" stroke="black" points="8,-128 8,-289 96,-289 96,-128 8,-128"/>
<text text-anchor="middle" x="52" y="-276" font-family="Helvetica,sans-Serif" font-size="10.00">src</text>
</a>
</g>
<g id="graph3" class="cluster"><title>clusterdir_da9e88029a658bab9ad39bb8696ef9bc</title>
<a xlink:href="dir_da9e88029a658bab9ad39bb8696ef9bc.html" target="_top">
<polygon fill="#eeeeff" stroke="black" points="16,-136 16,-260 88,-260 88,-136 16,-136"/>
</a>
</g>
<!-- dir_da9e88029a658bab9ad39bb8696ef9bc -->
<g id="node3" class="node"><title>dir_da9e88029a658bab9ad39bb8696ef9bc</title>
<text text-anchor="middle" x="52" y="-231.5" font-family="Helvetica,sans-Serif" font-size="10.00">unpacker</text>
</g>
<!-- dir_567e523e8ffcef81078570749a0749e1 -->
<g id="node4" class="node"><title>dir_567e523e8ffcef81078570749a0749e1</title>
<a xlink:href="dir_567e523e8ffcef81078570749a0749e1.html" target="_top" xlink:title="detail">
<polygon fill="white" stroke="black" points="78,-180 24,-180 24,-144 78,-144 78,-180"/>
<text text-anchor="middle" x="51" y="-159.5" font-family="Helvetica,sans-Serif" font-size="10.00">detail</text>
</a>
</g>
<!-- dir_da9e88029a658bab9ad39bb8696ef9bc&#45;&gt;dir_567e523e8ffcef81078570749a0749e1 -->
<g id="edge8" class="edge"><title>dir_da9e88029a658bab9ad39bb8696ef9bc&#45;&gt;dir_567e523e8ffcef81078570749a0749e1</title>
<path fill="none" stroke="black" d="M51.7477,-215.831C51.6407,-208.131 51.5135,-198.974 51.3947,-190.417"/>
<polygon fill="black" stroke="black" points="54.8944,-190.364 51.2557,-180.413 47.8951,-190.461 54.8944,-190.364"/>
<a xlink:href="dir_000039_000040.html" target="_top" xlink:title="1">
<text text-anchor="middle" x="57.7832" y="-191.419" font-family="Helvetica,sans-Serif" font-size="10.00">1</text>
</a>
</g>
<!-- dir_0af1587c8378955de40f48b4bd1869f0 -->
<g id="node5" class="node"><title>dir_0af1587c8378955de40f48b4bd1869f0</title>
<a xlink:href="dir_0af1587c8378955de40f48b4bd1869f0.html" target="_top" xlink:title="base">
<polygon fill="white" stroke="red" points="133,-36 79,-36 79,-1.77636e-14 133,-3.55271e-15 133,-36"/>
<text text-anchor="middle" x="106" y="-15.5" font-family="Helvetica,sans-Serif" font-size="10.00">base</text>
</a>
</g>
<!-- dir_567e523e8ffcef81078570749a0749e1&#45;&gt;dir_0af1587c8378955de40f48b4bd1869f0 -->
<g id="edge14" class="edge"><title>dir_567e523e8ffcef81078570749a0749e1&#45;&gt;dir_0af1587c8378955de40f48b4bd1869f0</title>
<path fill="none" stroke="black" d="M52.7905,-143.808C55.0888,-125.188 60.0345,-95.7008 70,-72 73.9544,-62.5953 79.6152,-53.0879 85.2805,-44.727"/>
<polygon fill="black" stroke="black" points="88.1959,-46.6664 91.1147,-36.4815 82.4816,-42.6231 88.1959,-46.6664"/>
<a xlink:href="dir_000040_000022.html" target="_top" xlink:title="4">
<text text-anchor="middle" x="88.4374" y="-48.7406" font-family="Helvetica,sans-Serif" font-size="10.00">4</text>
</a>
</g>
<!-- dir_c44c95bf3b41c3321c6014770d618ac8 -->
<g id="node6" class="node"><title>dir_c44c95bf3b41c3321c6014770d618ac8</title>
<a xlink:href="dir_c44c95bf3b41c3321c6014770d618ac8.html" target="_top" xlink:title="tree">
<polygon fill="none" stroke="black" points="133,-108 79,-108 79,-72 133,-72 133,-108"/>
<text text-anchor="middle" x="106" y="-87.5" font-family="Helvetica,sans-Serif" font-size="10.00">tree</text>
</a>
</g>
<!-- dir_567e523e8ffcef81078570749a0749e1&#45;&gt;dir_c44c95bf3b41c3321c6014770d618ac8 -->
<g id="edge16" class="edge"><title>dir_567e523e8ffcef81078570749a0749e1&#45;&gt;dir_c44c95bf3b41c3321c6014770d618ac8</title>
<path fill="none" stroke="black" d="M64.8788,-143.831C71.2136,-135.539 78.8384,-125.557 85.7926,-116.453"/>
<polygon fill="black" stroke="black" points="88.6452,-118.485 91.9343,-108.413 83.0825,-114.235 88.6452,-118.485"/>
<a xlink:href="dir_000040_000038.html" target="_top" xlink:title="8">
<text text-anchor="middle" x="88.7195" y="-120.565" font-family="Helvetica,sans-Serif" font-size="10.00">8</text>
</a>
</g>
<!-- dir_c4f4646ab0f4a2967be5b6215a500c22 -->
<g id="node7" class="node"><title>dir_c4f4646ab0f4a2967be5b6215a500c22</title>
<a xlink:href="dir_c4f4646ab0f4a2967be5b6215a500c22.html" target="_top" xlink:title="expconfig">
<polygon fill="white" stroke="red" points="192,-180 134,-180 134,-144 192,-144 192,-180"/>
<text text-anchor="middle" x="163" y="-159.5" font-family="Helvetica,sans-Serif" font-size="10.00">expconfig</text>
</a>
</g>
<!-- dir_567e523e8ffcef81078570749a0749e1&#45;&gt;dir_c4f4646ab0f4a2967be5b6215a500c22 -->
<g id="edge18" class="edge"><title>dir_567e523e8ffcef81078570749a0749e1&#45;&gt;dir_c4f4646ab0f4a2967be5b6215a500c22</title>
<path fill="none" stroke="black" d="M78.125,-162C93.3553,-162 108.586,-162 123.816,-162"/>
<polygon fill="black" stroke="black" points="123.824,-165.5 133.824,-162 123.824,-158.5 123.824,-165.5"/>
<a xlink:href="dir_000040_000030.html" target="_top" xlink:title="1">
<text text-anchor="middle" x="120.23" y="-165.839" font-family="Helvetica,sans-Serif" font-size="10.00">1</text>
</a>
</g>
<!-- dir_c44c95bf3b41c3321c6014770d618ac8&#45;&gt;dir_da9e88029a658bab9ad39bb8696ef9bc -->
<g id="edge6" class="edge"><title>dir_c44c95bf3b41c3321c6014770d618ac8&#45;&gt;dir_da9e88029a658bab9ad39bb8696ef9bc</title>
<path fill="none" stroke="black" d="M104.146,-108.165C101.797,-126.765 96.8121,-156.235 87,-180 83.0761,-189.504 77.4502,-199.153 71.853,-207.615"/>
<polygon fill="black" stroke="black" points="68.9018,-205.729 66.1032,-215.948 74.6634,-209.705 68.9018,-205.729"/>
<a xlink:href="dir_000038_000039.html" target="_top" xlink:title="2">
<text text-anchor="middle" x="68.6064" y="-198.658" font-family="Helvetica,sans-Serif" font-size="10.00">2</text>
</a>
</g>
<!-- dir_c44c95bf3b41c3321c6014770d618ac8&#45;&gt;dir_0af1587c8378955de40f48b4bd1869f0 -->
<g id="edge4" class="edge"><title>dir_c44c95bf3b41c3321c6014770d618ac8&#45;&gt;dir_0af1587c8378955de40f48b4bd1869f0</title>
<path fill="none" stroke="black" d="M106,-71.8314C106,-64.131 106,-54.9743 106,-46.4166"/>
<polygon fill="black" stroke="black" points="109.5,-46.4132 106,-36.4133 102.5,-46.4133 109.5,-46.4132"/>
<a xlink:href="dir_000038_000022.html" target="_top" xlink:title="15">
<text text-anchor="middle" x="112.339" y="-47.5079" font-family="Helvetica,sans-Serif" font-size="10.00">15</text>
</a>
</g>
<!-- dir_c4f4646ab0f4a2967be5b6215a500c22&#45;&gt;dir_0af1587c8378955de40f48b4bd1869f0 -->
<g id="edge10" class="edge"><title>dir_c4f4646ab0f4a2967be5b6215a500c22&#45;&gt;dir_0af1587c8378955de40f48b4bd1869f0</title>
<path fill="none" stroke="black" d="M160.711,-143.81C157.924,-125.191 152.264,-95.7053 142,-72 137.88,-62.4842 132.069,-52.8314 126.317,-44.3698"/>
<polygon fill="black" stroke="black" points="129.052,-42.1761 120.416,-36.0389 123.34,-46.2222 129.052,-42.1761"/>
<a xlink:href="dir_000030_000022.html" target="_top" xlink:title="16">
<text text-anchor="middle" x="133.446" y="-40.9683" font-family="Helvetica,sans-Serif" font-size="10.00">16</text>
</a>
</g>
<!-- dir_c4f4646ab0f4a2967be5b6215a500c22&#45;&gt;dir_c44c95bf3b41c3321c6014770d618ac8 -->
<g id="edge12" class="edge"><title>dir_c4f4646ab0f4a2967be5b6215a500c22&#45;&gt;dir_c44c95bf3b41c3321c6014770d618ac8</title>
<path fill="none" stroke="black" d="M148.616,-143.831C142.051,-135.539 134.149,-125.557 126.942,-116.453"/>
<polygon fill="black" stroke="black" points="129.528,-114.081 120.577,-108.413 124.04,-118.426 129.528,-114.081"/>
<a xlink:href="dir_000030_000038.html" target="_top" xlink:title="7">
<text text-anchor="middle" x="133.986" y="-112.637" font-family="Helvetica,sans-Serif" font-size="10.00">7</text>
</a>
</g>
</g>
</svg>
