<?xml version="1.0" encoding="UTF-8" standalone="no"?>
<!DOCTYPE svg PUBLIC "-//W3C//DTD SVG 1.1//EN"
 "http://www.w3.org/Graphics/SVG/1.1/DTD/svg11.dtd">
<!-- Generated by graphviz version 2.26.3 (20100126.1600)
 -->
<!-- Title: src/analysis/physics/omega Pages: 1 -->
<svg width="185pt" height="297pt"
 viewBox="0.00 0.00 185.29 297.00" xmlns="http://www.w3.org/2000/svg" xmlns:xlink="http://www.w3.org/1999/xlink">
<g id="graph1" class="graph" transform="scale(1 1) rotate(0) translate(4 293)">
<title>src/analysis/physics/omega</title>
<polygon fill="white" stroke="white" points="-4,5 -4,-293 182.29,-293 182.29,5 -4,5"/>
<g id="graph2" class="cluster"><title>clusterdir_a21a804d6482c442bcd1b39e4dfcc179</title>
<a xlink:href="dir_a21a804d6482c442bcd1b39e4dfcc179.html" target="_top" xlink:title="physics">
<polygon fill="#ddddee" stroke="black" points="74,-208 74,-281 144,-281 144,-208 74,-208"/>
<text text-anchor="middle" x="109" y="-268" font-family="Helvetica,sans-Serif" font-size="10.00">physics</text>
</a>
</g>
<!-- dir_f60af29919b24042904573a5ae25dc4a -->
<g id="node2" class="node"><title>dir_f60af29919b24042904573a5ae25dc4a</title>
<a xlink:href="dir_f60af29919b24042904573a5ae25dc4a.html" target="_top" xlink:title="omega">
<polygon fill="#eeeeff" stroke="black" points="136,-252 82,-252 82,-216 136,-216 136,-252"/>
<text text-anchor="middle" x="109" y="-231.5" font-family="Helvetica,sans-Serif" font-size="10.00">omega</text>
</a>
</g>
<!-- dir_86afe70f6685ce518ba6965fc87e41ba -->
<g id="node3" class="node"><title>dir_86afe70f6685ce518ba6965fc87e41ba</title>
<a xlink:href="dir_86afe70f6685ce518ba6965fc87e41ba.html" target="_top" xlink:title="data">
<polygon fill="none" stroke="black" points="109,-108 55,-108 55,-72 109,-72 109,-108"/>
<text text-anchor="middle" x="82" y="-87.5" font-family="Helvetica,sans-Serif" font-size="10.00">data</text>
</a>
</g>
<!-- dir_f60af29919b24042904573a5ae25dc4a&#45;&gt;dir_86afe70f6685ce518ba6965fc87e41ba -->
<g id="edge9" class="edge"><title>dir_f60af29919b24042904573a5ae25dc4a&#45;&gt;dir_86afe70f6685ce518ba6965fc87e41ba</title>
<path fill="none" stroke="black" d="M105.58,-215.762C100.955,-191.093 92.6612,-146.86 87.245,-117.973"/>
<polygon fill="black" stroke="black" points="90.6748,-117.273 85.3918,-108.09 83.7947,-118.563 90.6748,-117.273"/>
<a xlink:href="dir_000017_000003.html" target="_top" xlink:title="6">
<text text-anchor="middle" x="94.1278" y="-117.783" font-family="Helvetica,sans-Serif" font-size="10.00">6</text>
</a>
</g>
<!-- dir_0a0aa297e888439a92fbcfd5e567f128 -->
<g id="node4" class="node"><title>dir_0a0aa297e888439a92fbcfd5e567f128</title>
<a xlink:href="dir_0a0aa297e888439a92fbcfd5e567f128.html" target="_top" xlink:title="utils">
<polygon fill="none" stroke="black" points="54,-180 2.13163e-14,-180 0,-144 54,-144 54,-180"/>
<text text-anchor="middle" x="27" y="-159.5" font-family="Helvetica,sans-Serif" font-size="10.00">utils</text>
</a>
</g>
<!-- dir_f60af29919b24042904573a5ae25dc4a&#45;&gt;dir_0a0aa297e888439a92fbcfd5e567f128 -->
<g id="edge11" class="edge"><title>dir_f60af29919b24042904573a5ae25dc4a&#45;&gt;dir_0a0aa297e888439a92fbcfd5e567f128</title>
<path fill="none" stroke="black" d="M88.3079,-215.831C78.3052,-207.048 66.145,-196.371 55.3001,-186.849"/>
<polygon fill="black" stroke="black" points="57.5092,-184.131 47.6854,-180.163 52.8906,-189.391 57.5092,-184.131"/>
<a xlink:href="dir_000017_000021.html" target="_top" xlink:title="7">
<text text-anchor="middle" x="62.0836" y="-181.869" font-family="Helvetica,sans-Serif" font-size="10.00">7</text>
</a>
</g>
<!-- dir_0af1587c8378955de40f48b4bd1869f0 -->
<g id="node5" class="node"><title>dir_0af1587c8378955de40f48b4bd1869f0</title>
<a xlink:href="dir_0af1587c8378955de40f48b4bd1869f0.html" target="_top" xlink:title="base">
<polygon fill="white" stroke="red" points="136,-36 82,-36 82,-1.77636e-14 136,-3.55271e-15 136,-36"/>
<text text-anchor="middle" x="109" y="-15.5" font-family="Helvetica,sans-Serif" font-size="10.00">base</text>
</a>
</g>
<!-- dir_f60af29919b24042904573a5ae25dc4a&#45;&gt;dir_0af1587c8378955de40f48b4bd1869f0 -->
<g id="edge13" class="edge"><title>dir_f60af29919b24042904573a5ae25dc4a&#45;&gt;dir_0af1587c8378955de40f48b4bd1869f0</title>
<path fill="none" stroke="black" d="M136.109,-218.997C149.904,-209.741 165.343,-196.48 173,-180 179.742,-165.49 176.676,-159.572 173,-144 164.315,-107.208 142.9,-69.061 127.226,-44.5178"/>
<polygon fill="black" stroke="black" points="130.141,-42.5806 121.745,-36.1187 124.279,-46.4061 130.141,-42.5806"/>
<a xlink:href="dir_000017_000022.html" target="_top" xlink:title="3">
<text text-anchor="middle" x="134.483" y="-41.5392" font-family="Helvetica,sans-Serif" font-size="10.00">3</text>
</a>
</g>
<!-- dir_8f68c37b22d514b4289e3a1255795d80 -->
<g id="node6" class="node"><title>dir_8f68c37b22d514b4289e3a1255795d80</title>
<a xlink:href="dir_8f68c37b22d514b4289e3a1255795d80.html" target="_top" xlink:title="plot">
<polygon fill="none" stroke="black" points="164,-180 110,-180 110,-144 164,-144 164,-180"/>
<text text-anchor="middle" x="137" y="-159.5" font-family="Helvetica,sans-Serif" font-size="10.00">plot</text>
</a>
</g>
<!-- dir_f60af29919b24042904573a5ae25dc4a&#45;&gt;dir_8f68c37b22d514b4289e3a1255795d80 -->
<g id="edge15" class="edge"><title>dir_f60af29919b24042904573a5ae25dc4a&#45;&gt;dir_8f68c37b22d514b4289e3a1255795d80</title>
<path fill="none" stroke="black" d="M116.066,-215.831C119.126,-207.962 122.778,-198.571 126.168,-189.853"/>
<polygon fill="black" stroke="black" points="129.477,-191.002 129.839,-180.413 122.953,-188.465 129.477,-191.002"/>
<a xlink:href="dir_000017_000020.html" target="_top" xlink:title="11">
<text text-anchor="middle" x="130.82" y="-192.881" font-family="Helvetica,sans-Serif" font-size="10.00">11</text>
</a>
</g>
<!-- dir_86afe70f6685ce518ba6965fc87e41ba&#45;&gt;dir_0af1587c8378955de40f48b4bd1869f0 -->
<g id="edge3" class="edge"><title>dir_86afe70f6685ce518ba6965fc87e41ba&#45;&gt;dir_0af1587c8378955de40f48b4bd1869f0</title>
<path fill="none" stroke="black" d="M88.8132,-71.8314C91.7644,-63.9617 95.2858,-54.5712 98.555,-45.8533"/>
<polygon fill="black" stroke="black" points="101.861,-47.0055 102.095,-36.4133 95.3066,-44.5476 101.861,-47.0055"/>
<a xlink:href="dir_000003_000022.html" target="_top" xlink:title="15">
<text text-anchor="middle" x="103.257" y="-48.8682" font-family="Helvetica,sans-Serif" font-size="10.00">15</text>
</a>
</g>
<!-- dir_0a0aa297e888439a92fbcfd5e567f128&#45;&gt;dir_86afe70f6685ce518ba6965fc87e41ba -->
<g id="edge5" class="edge"><title>dir_0a0aa297e888439a92fbcfd5e567f128&#45;&gt;dir_86afe70f6685ce518ba6965fc87e41ba</title>
<path fill="none" stroke="black" d="M40.8788,-143.831C47.2136,-135.539 54.8384,-125.557 61.7926,-116.453"/>
<polygon fill="black" stroke="black" points="64.6452,-118.485 67.9343,-108.413 59.0825,-114.235 64.6452,-118.485"/>
<a xlink:href="dir_000021_000003.html" target="_top" xlink:title="4">
<text text-anchor="middle" x="64.7195" y="-120.565" font-family="Helvetica,sans-Serif" font-size="10.00">4</text>
</a>
</g>
<!-- dir_0a0aa297e888439a92fbcfd5e567f128&#45;&gt;dir_0af1587c8378955de40f48b4bd1869f0 -->
<g id="edge7" class="edge"><title>dir_0a0aa297e888439a92fbcfd5e567f128&#45;&gt;dir_0af1587c8378955de40f48b4bd1869f0</title>
<path fill="none" stroke="black" d="M27.4453,-143.862C28.653,-124.756 32.7263,-94.3914 46,-72 52.8977,-60.3643 63.2111,-49.9994 73.5066,-41.5385"/>
<polygon fill="black" stroke="black" points="75.9473,-44.0743 81.6938,-35.1733 71.6508,-38.548 75.9473,-44.0743"/>
<a xlink:href="dir_000021_000022.html" target="_top" xlink:title="5">
<text text-anchor="middle" x="74.8521" y="-46.0221" font-family="Helvetica,sans-Serif" font-size="10.00">5</text>
</a>
</g>
<!-- dir_8f68c37b22d514b4289e3a1255795d80&#45;&gt;dir_86afe70f6685ce518ba6965fc87e41ba -->
<g id="edge17" class="edge"><title>dir_8f68c37b22d514b4289e3a1255795d80&#45;&gt;dir_86afe70f6685ce518ba6965fc87e41ba</title>
<path fill="none" stroke="black" d="M123.121,-143.831C116.786,-135.539 109.162,-125.557 102.207,-116.453"/>
<polygon fill="black" stroke="black" points="104.917,-114.235 96.0657,-108.413 99.3548,-118.485 104.917,-114.235"/>
<a xlink:href="dir_000020_000003.html" target="_top" xlink:title="2">
<text text-anchor="middle" x="109.356" y="-112.868" font-family="Helvetica,sans-Serif" font-size="10.00">2</text>
</a>
</g>
<!-- dir_8f68c37b22d514b4289e3a1255795d80&#45;&gt;dir_0af1587c8378955de40f48b4bd1869f0 -->
<g id="edge19" class="edge"><title>dir_8f68c37b22d514b4289e3a1255795d80&#45;&gt;dir_0af1587c8378955de40f48b4bd1869f0</title>
<path fill="none" stroke="black" d="M133.454,-143.762C128.657,-119.093 120.056,-74.8598 114.439,-45.9731"/>
<polygon fill="black" stroke="black" points="117.862,-45.2377 112.517,-36.0896 110.991,-46.5738 117.862,-45.2377"/>
<a xlink:href="dir_000020_000022.html" target="_top" xlink:title="2">
<text text-anchor="middle" x="121.335" y="-45.7243" font-family="Helvetica,sans-Serif" font-size="10.00">2</text>
</a>
</g>
</g>
</svg>
