<?xml version="1.0" encoding="UTF-8" standalone="no"?>
<!DOCTYPE svg PUBLIC "-//W3C//DTD SVG 1.1//EN"
 "http://www.w3.org/Graphics/SVG/1.1/DTD/svg11.dtd">
<!-- Generated by graphviz version 2.26.3 (20100126.1600)
 -->
<!-- Title: src/analysis/input/pluto Pages: 1 -->
<svg width="191pt" height="233pt"
 viewBox="0.00 0.00 191.00 233.00" xmlns="http://www.w3.org/2000/svg" xmlns:xlink="http://www.w3.org/1999/xlink">
<g id="graph1" class="graph" transform="scale(1 1) rotate(0) translate(4 229)">
<title>src/analysis/input/pluto</title>
<polygon fill="white" stroke="white" points="-4,5 -4,-229 188,-229 188,5 -4,5"/>
<g id="graph2" class="cluster"><title>clusterdir_4d4314fec0337faafb4fd99dc7917bfa</title>
<a xlink:href="dir_4d4314fec0337faafb4fd99dc7917bfa.html" target="_top" xlink:title="input">
<polygon fill="#ddddee" stroke="black" points="8,-56 8,-217 94,-217 94,-56 8,-56"/>
<text text-anchor="middle" x="51" y="-204" font-family="Helvetica,sans-Serif" font-size="10.00">input</text>
</a>
</g>
<g id="graph3" class="cluster"><title>clusterdir_afb7c24399562c2231a021453aaf5419</title>
<a xlink:href="dir_afb7c24399562c2231a021453aaf5419.html" target="_top">
<polygon fill="#eeeeff" stroke="black" points="16,-64 16,-188 86,-188 86,-64 16,-64"/>
</a>
</g>
<!-- dir_afb7c24399562c2231a021453aaf5419 -->
<g id="node3" class="node"><title>dir_afb7c24399562c2231a021453aaf5419</title>
<text text-anchor="middle" x="51" y="-159.5" font-family="Helvetica,sans-Serif" font-size="10.00">pluto</text>
</g>
<!-- dir_e87ce045b23dd11be7b26265498c3ece -->
<g id="node4" class="node"><title>dir_e87ce045b23dd11be7b26265498c3ece</title>
<a xlink:href="dir_e87ce045b23dd11be7b26265498c3ece.html" target="_top" xlink:title="detail">
<polygon fill="white" stroke="black" points="78,-108 24,-108 24,-72 78,-72 78,-108"/>
<text text-anchor="middle" x="51" y="-87.5" font-family="Helvetica,sans-Serif" font-size="10.00">detail</text>
</a>
</g>
<!-- dir_afb7c24399562c2231a021453aaf5419&#45;&gt;dir_e87ce045b23dd11be7b26265498c3ece -->
<g id="edge10" class="edge"><title>dir_afb7c24399562c2231a021453aaf5419&#45;&gt;dir_e87ce045b23dd11be7b26265498c3ece</title>
<path fill="none" stroke="black" d="M51,-143.831C51,-136.131 51,-126.974 51,-118.417"/>
<polygon fill="black" stroke="black" points="54.5001,-118.413 51,-108.413 47.5001,-118.413 54.5001,-118.413"/>
<a xlink:href="dir_000010_000011.html" target="_top" xlink:title="1">
<text text-anchor="middle" x="57.3393" y="-119.508" font-family="Helvetica,sans-Serif" font-size="10.00">1</text>
</a>
</g>
<!-- dir_86afe70f6685ce518ba6965fc87e41ba -->
<g id="node5" class="node"><title>dir_86afe70f6685ce518ba6965fc87e41ba</title>
<a xlink:href="dir_86afe70f6685ce518ba6965fc87e41ba.html" target="_top" xlink:title="data">
<polygon fill="none" stroke="black" points="156,-108 102,-108 102,-72 156,-72 156,-108"/>
<text text-anchor="middle" x="129" y="-87.5" font-family="Helvetica,sans-Serif" font-size="10.00">data</text>
</a>
</g>
<!-- dir_afb7c24399562c2231a021453aaf5419&#45;&gt;dir_86afe70f6685ce518ba6965fc87e41ba -->
<g id="edge6" class="edge"><title>dir_afb7c24399562c2231a021453aaf5419&#45;&gt;dir_86afe70f6685ce518ba6965fc87e41ba</title>
<path fill="none" stroke="black" d="M70.6827,-143.831C80.1051,-135.134 91.5401,-124.578 101.78,-115.127"/>
<polygon fill="black" stroke="black" points="104.35,-117.517 109.324,-108.163 99.6016,-112.374 104.35,-117.517"/>
<a xlink:href="dir_000010_000003.html" target="_top" xlink:title="1">
<text text-anchor="middle" x="103.634" y="-119.542" font-family="Helvetica,sans-Serif" font-size="10.00">1</text>
</a>
</g>
<!-- dir_0af1587c8378955de40f48b4bd1869f0 -->
<g id="node6" class="node"><title>dir_0af1587c8378955de40f48b4bd1869f0</title>
<a xlink:href="dir_0af1587c8378955de40f48b4bd1869f0.html" target="_top" xlink:title="base">
<polygon fill="white" stroke="red" points="183,-36 129,-36 129,-1.77636e-14 183,-3.55271e-15 183,-36"/>
<text text-anchor="middle" x="156" y="-15.5" font-family="Helvetica,sans-Serif" font-size="10.00">base</text>
</a>
</g>
<!-- dir_afb7c24399562c2231a021453aaf5419&#45;&gt;dir_0af1587c8378955de40f48b4bd1869f0 -->
<g id="edge8" class="edge"><title>dir_afb7c24399562c2231a021453aaf5419&#45;&gt;dir_0af1587c8378955de40f48b4bd1869f0</title>
<path fill="none" stroke="black" d="M78.1495,-157.631C105.416,-151.64 146.028,-137.979 165,-108 176.673,-89.5538 173.015,-64.602 167.233,-45.6494"/>
<polygon fill="black" stroke="black" points="170.516,-44.4293 163.987,-36.0847 163.887,-46.6791 170.516,-44.4293"/>
<a xlink:href="dir_000010_000022.html" target="_top" xlink:title="2">
<text text-anchor="middle" x="174.359" y="-44.4208" font-family="Helvetica,sans-Serif" font-size="10.00">2</text>
</a>
</g>
<!-- dir_86afe70f6685ce518ba6965fc87e41ba&#45;&gt;dir_0af1587c8378955de40f48b4bd1869f0 -->
<g id="edge4" class="edge"><title>dir_86afe70f6685ce518ba6965fc87e41ba&#45;&gt;dir_0af1587c8378955de40f48b4bd1869f0</title>
<path fill="none" stroke="black" d="M135.813,-71.8314C138.764,-63.9617 142.286,-54.5712 145.555,-45.8533"/>
<polygon fill="black" stroke="black" points="148.861,-47.0055 149.095,-36.4133 142.307,-44.5476 148.861,-47.0055"/>
<a xlink:href="dir_000003_000022.html" target="_top" xlink:title="15">
<text text-anchor="middle" x="150.257" y="-48.8682" font-family="Helvetica,sans-Serif" font-size="10.00">15</text>
</a>
</g>
</g>
</svg>
