<?xml version="1.0" encoding="UTF-8" standalone="no"?>
<!DOCTYPE svg PUBLIC "-//W3C//DTD SVG 1.1//EN"
 "http://www.w3.org/Graphics/SVG/1.1/DTD/svg11.dtd">
<!-- Generated by graphviz version 2.26.3 (20100126.1600)
 -->
<!-- Title: src/analysis/input/ant/detail Pages: 1 -->
<svg width="133pt" height="297pt"
 viewBox="0.00 0.00 133.00 297.00" xmlns="http://www.w3.org/2000/svg" xmlns:xlink="http://www.w3.org/1999/xlink">
<g id="graph1" class="graph" transform="scale(1 1) rotate(0) translate(4 293)">
<title>src/analysis/input/ant/detail</title>
<polygon fill="white" stroke="white" points="-4,5 -4,-293 130,-293 130,5 -4,5"/>
<g id="graph2" class="cluster"><title>clusterdir_0dfa530d699612f2413b2376f341aa41</title>
<a xlink:href="dir_0dfa530d699612f2413b2376f341aa41.html" target="_top" xlink:title="ant">
<polygon fill="#ddddee" stroke="black" points="47,-208 47,-281 117,-281 117,-208 47,-208"/>
<text text-anchor="middle" x="82" y="-268" font-family="Helvetica,sans-Serif" font-size="10.00">ant</text>
</a>
</g>
<!-- dir_2273dd33b5536b719c8f7d3b9bd145fe -->
<g id="node2" class="node"><title>dir_2273dd33b5536b719c8f7d3b9bd145fe</title>
<a xlink:href="dir_2273dd33b5536b719c8f7d3b9bd145fe.html" target="_top" xlink:title="detail">
<polygon fill="#eeeeff" stroke="black" points="109,-252 55,-252 55,-216 109,-216 109,-252"/>
<text text-anchor="middle" x="82" y="-231.5" font-family="Helvetica,sans-Serif" font-size="10.00">detail</text>
</a>
</g>
<!-- dir_86afe70f6685ce518ba6965fc87e41ba -->
<g id="node3" class="node"><title>dir_86afe70f6685ce518ba6965fc87e41ba</title>
<a xlink:href="dir_86afe70f6685ce518ba6965fc87e41ba.html" target="_top" xlink:title="data">
<polygon fill="none" stroke="black" points="54,-180 2.13163e-14,-180 0,-144 54,-144 54,-180"/>
<text text-anchor="middle" x="27" y="-159.5" font-family="Helvetica,sans-Serif" font-size="10.00">data</text>
</a>
</g>
<!-- dir_2273dd33b5536b719c8f7d3b9bd145fe&#45;&gt;dir_86afe70f6685ce518ba6965fc87e41ba -->
<g id="edge9" class="edge"><title>dir_2273dd33b5536b719c8f7d3b9bd145fe&#45;&gt;dir_86afe70f6685ce518ba6965fc87e41ba</title>
<path fill="none" stroke="black" d="M68.1212,-215.831C61.7864,-207.539 54.1616,-197.557 47.2074,-188.453"/>
<polygon fill="black" stroke="black" points="49.9175,-186.235 41.0657,-180.413 44.3548,-190.485 49.9175,-186.235"/>
<a xlink:href="dir_000006_000003.html" target="_top" xlink:title="1">
<text text-anchor="middle" x="54.3558" y="-184.868" font-family="Helvetica,sans-Serif" font-size="10.00">1</text>
</a>
</g>
<!-- dir_0af1587c8378955de40f48b4bd1869f0 -->
<g id="node4" class="node"><title>dir_0af1587c8378955de40f48b4bd1869f0</title>
<a xlink:href="dir_0af1587c8378955de40f48b4bd1869f0.html" target="_top" xlink:title="base">
<polygon fill="white" stroke="red" points="101,-36 47,-36 47,-1.77636e-14 101,-3.55271e-15 101,-36"/>
<text text-anchor="middle" x="74" y="-15.5" font-family="Helvetica,sans-Serif" font-size="10.00">base</text>
</a>
</g>
<!-- dir_2273dd33b5536b719c8f7d3b9bd145fe&#45;&gt;dir_0af1587c8378955de40f48b4bd1869f0 -->
<g id="edge11" class="edge"><title>dir_2273dd33b5536b719c8f7d3b9bd145fe&#45;&gt;dir_0af1587c8378955de40f48b4bd1869f0</title>
<path fill="none" stroke="black" d="M90.5863,-215.684C103.632,-185.306 125.384,-122.81 110,-72 107.044,-62.2355 101.675,-52.6229 95.97,-44.2762"/>
<polygon fill="black" stroke="black" points="98.7129,-42.0973 89.9905,-36.0831 93.0586,-46.2239 98.7129,-42.0973"/>
<a xlink:href="dir_000006_000022.html" target="_top" xlink:title="1">
<text text-anchor="middle" x="103.125" y="-40.827" font-family="Helvetica,sans-Serif" font-size="10.00">1</text>
</a>
</g>
<!-- dir_c44c95bf3b41c3321c6014770d618ac8 -->
<g id="node5" class="node"><title>dir_c44c95bf3b41c3321c6014770d618ac8</title>
<a xlink:href="dir_c44c95bf3b41c3321c6014770d618ac8.html" target="_top" xlink:title="tree">
<polygon fill="none" stroke="black" points="101,-108 47,-108 47,-72 101,-72 101,-108"/>
<text text-anchor="middle" x="74" y="-87.5" font-family="Helvetica,sans-Serif" font-size="10.00">tree</text>
</a>
</g>
<!-- dir_2273dd33b5536b719c8f7d3b9bd145fe&#45;&gt;dir_c44c95bf3b41c3321c6014770d618ac8 -->
<g id="edge13" class="edge"><title>dir_2273dd33b5536b719c8f7d3b9bd145fe&#45;&gt;dir_c44c95bf3b41c3321c6014770d618ac8</title>
<path fill="none" stroke="black" d="M80.9868,-215.762C79.6223,-191.201 77.1804,-147.247 75.5752,-118.354"/>
<polygon fill="black" stroke="black" points="79.0544,-117.88 75.005,-108.09 72.0652,-118.268 79.0544,-117.88"/>
<a xlink:href="dir_000006_000038.html" target="_top" xlink:title="5">
<text text-anchor="middle" x="82.0886" y="-118.812" font-family="Helvetica,sans-Serif" font-size="10.00">5</text>
</a>
</g>
<!-- dir_86afe70f6685ce518ba6965fc87e41ba&#45;&gt;dir_0af1587c8378955de40f48b4bd1869f0 -->
<g id="edge3" class="edge"><title>dir_86afe70f6685ce518ba6965fc87e41ba&#45;&gt;dir_0af1587c8378955de40f48b4bd1869f0</title>
<path fill="none" stroke="black" d="M26.7827,-143.835C27.1146,-125.235 29.1954,-95.7649 38,-72 41.5444,-62.4332 47.0852,-52.8784 52.7667,-44.524"/>
<polygon fill="black" stroke="black" points="55.679,-46.4687 58.6607,-36.302 49.9898,-42.3903 55.679,-46.4687"/>
<a xlink:href="dir_000003_000022.html" target="_top" xlink:title="15">
<text text-anchor="middle" x="55.8924" y="-48.5444" font-family="Helvetica,sans-Serif" font-size="10.00">15</text>
</a>
</g>
<!-- dir_86afe70f6685ce518ba6965fc87e41ba&#45;&gt;dir_c44c95bf3b41c3321c6014770d618ac8 -->
<g id="edge5" class="edge"><title>dir_86afe70f6685ce518ba6965fc87e41ba&#45;&gt;dir_c44c95bf3b41c3321c6014770d618ac8</title>
<path fill="none" stroke="black" d="M38.8601,-143.831C44.1629,-135.708 50.5237,-125.964 56.3673,-117.012"/>
<polygon fill="black" stroke="black" points="59.4448,-118.7 61.9802,-108.413 53.5831,-114.874 59.4448,-118.7"/>
<a xlink:href="dir_000003_000038.html" target="_top" xlink:title="2">
<text text-anchor="middle" x="59.8575" y="-120.762" font-family="Helvetica,sans-Serif" font-size="10.00">2</text>
</a>
</g>
<!-- dir_c44c95bf3b41c3321c6014770d618ac8&#45;&gt;dir_0af1587c8378955de40f48b4bd1869f0 -->
<g id="edge7" class="edge"><title>dir_c44c95bf3b41c3321c6014770d618ac8&#45;&gt;dir_0af1587c8378955de40f48b4bd1869f0</title>
<path fill="none" stroke="black" d="M74,-71.8314C74,-64.131 74,-54.9743 74,-46.4166"/>
<polygon fill="black" stroke="black" points="77.5001,-46.4132 74,-36.4133 70.5001,-46.4133 77.5001,-46.4132"/>
<a xlink:href="dir_000038_000022.html" target="_top" xlink:title="15">
<text text-anchor="middle" x="80.3393" y="-47.5079" font-family="Helvetica,sans-Serif" font-size="10.00">15</text>
</a>
</g>
</g>
</svg>
