<?xml version="1.0" encoding="UTF-8" standalone="no"?>
<!DOCTYPE svg PUBLIC "-//W3C//DTD SVG 1.1//EN"
 "http://www.w3.org/Graphics/SVG/1.1/DTD/svg11.dtd">
<!-- Generated by graphviz version 2.26.3 (20100126.1600)
 -->
<!-- Title: src/calibration Pages: 1 -->
<svg width="560pt" height="397pt"
 viewBox="0.00 0.00 559.58 397.45" xmlns="http://www.w3.org/2000/svg" xmlns:xlink="http://www.w3.org/1999/xlink">
<g id="graph1" class="graph" transform="scale(1 1) rotate(0) translate(4 393.455)">
<title>src/calibration</title>
<polygon fill="white" stroke="white" points="-4,5 -4,-393.455 556.584,-393.455 556.584,5 -4,5"/>
<g id="graph2" class="cluster"><title>clusterdir_68267d1309a1af8e8297ef4c3efbcdba</title>
<a xlink:href="dir_68267d1309a1af8e8297ef4c3efbcdba.html" target="_top" xlink:title="src">
<polygon fill="#ddddee" stroke="black" points="8,-128 8,-361 252,-361 252,-128 8,-128"/>
<text text-anchor="middle" x="130" y="-348" font-family="Helvetica,sans-Serif" font-size="10.00">src</text>
</a>
</g>
<g id="graph3" class="cluster"><title>clusterdir_f1b881a94df93d2a183c4d8f47373448</title>
<a xlink:href="dir_f1b881a94df93d2a183c4d8f47373448.html" target="_top">
<polygon fill="#eeeeff" stroke="black" points="16,-136 16,-332 244,-332 244,-136 16,-136"/>
</a>
</g>
<!-- dir_f1b881a94df93d2a183c4d8f47373448 -->
<g id="node3" class="node"><title>dir_f1b881a94df93d2a183c4d8f47373448</title>
<text text-anchor="middle" x="126" y="-303.5" font-family="Helvetica,sans-Serif" font-size="10.00">calibration</text>
</g>
<!-- dir_4584aed4c24fbdfe1cf1a414e4d4a562 -->
<g id="node6" class="node"><title>dir_4584aed4c24fbdfe1cf1a414e4d4a562</title>
<a xlink:href="dir_4584aed4c24fbdfe1cf1a414e4d4a562.html" target="_top" xlink:title="gui">
<polygon fill="white" stroke="black" points="117,-252 63,-252 63,-216 117,-216 117,-252"/>
<text text-anchor="middle" x="90" y="-231.5" font-family="Helvetica,sans-Serif" font-size="10.00">gui</text>
</a>
</g>
<!-- dir_f1b881a94df93d2a183c4d8f47373448&#45;&gt;dir_4584aed4c24fbdfe1cf1a414e4d4a562 -->
<g id="edge32" class="edge"><title>dir_f1b881a94df93d2a183c4d8f47373448&#45;&gt;dir_4584aed4c24fbdfe1cf1a414e4d4a562</title>
<path fill="none" stroke="black" d="M116.916,-287.831C112.939,-279.877 108.185,-270.369 103.786,-261.572"/>
<polygon fill="black" stroke="black" points="106.809,-259.792 99.2066,-252.413 100.548,-262.923 106.809,-259.792"/>
<a xlink:href="dir_000025_000028.html" target="_top" xlink:title="8">
<text text-anchor="middle" x="110.956" y="-259.238" font-family="Helvetica,sans-Serif" font-size="10.00">8</text>
</a>
</g>
<!-- dir_0af1587c8378955de40f48b4bd1869f0 -->
<g id="node8" class="node"><title>dir_0af1587c8378955de40f48b4bd1869f0</title>
<a xlink:href="dir_0af1587c8378955de40f48b4bd1869f0.html" target="_top" xlink:title="base">
<polygon fill="white" stroke="red" points="262,-36 208,-36 208,-1.77636e-14 262,-3.55271e-15 262,-36"/>
<text text-anchor="middle" x="235" y="-15.5" font-family="Helvetica,sans-Serif" font-size="10.00">base</text>
</a>
</g>
<!-- dir_f1b881a94df93d2a183c4d8f47373448&#45;&gt;dir_0af1587c8378955de40f48b4bd1869f0 -->
<g id="edge28" class="edge"><title>dir_f1b881a94df93d2a183c4d8f47373448&#45;&gt;dir_0af1587c8378955de40f48b4bd1869f0</title>
<path fill="none" stroke="black" d="M95.9329,-287.77C82.0075,-278.311 65.9421,-265.842 54,-252 16.2605,-208.258 -7.57593,-181.179 15,-128 45.3344,-56.5456 143.52,-31.1042 197.899,-22.3584"/>
<polygon fill="black" stroke="black" points="198.467,-25.8124 207.838,-20.8676 197.429,-18.8898 198.467,-25.8124"/>
<a xlink:href="dir_000025_000022.html" target="_top" xlink:title="49">
<text text-anchor="middle" x="195.334" y="-26.6534" font-family="Helvetica,sans-Serif" font-size="10.00">49</text>
</a>
</g>
<!-- dir_c44c95bf3b41c3321c6014770d618ac8 -->
<g id="node9" class="node"><title>dir_c44c95bf3b41c3321c6014770d618ac8</title>
<a xlink:href="dir_c44c95bf3b41c3321c6014770d618ac8.html" target="_top" xlink:title="tree">
<polygon fill="none" stroke="black" points="305,-108 251,-108 251,-72 305,-72 305,-108"/>
<text text-anchor="middle" x="278" y="-87.5" font-family="Helvetica,sans-Serif" font-size="10.00">tree</text>
</a>
</g>
<!-- dir_f1b881a94df93d2a183c4d8f47373448&#45;&gt;dir_c44c95bf3b41c3321c6014770d618ac8 -->
<g id="edge30" class="edge"><title>dir_f1b881a94df93d2a183c4d8f47373448&#45;&gt;dir_c44c95bf3b41c3321c6014770d618ac8</title>
<path fill="none" stroke="black" d="M154.105,-287.991C167.948,-278.32 184.34,-265.605 197,-252 233.885,-212.363 257.796,-152.757 269.499,-117.977"/>
<polygon fill="black" stroke="black" points="272.97,-118.622 272.74,-108.03 266.314,-116.454 272.97,-118.622"/>
<a xlink:href="dir_000025_000038.html" target="_top" xlink:title="23">
<text text-anchor="middle" x="274.556" y="-120.419" font-family="Helvetica,sans-Serif" font-size="10.00">23</text>
</a>
</g>
<!-- dir_5eb03804bf445589bf35c6aa84fb9a34 -->
<g id="node11" class="node"><title>dir_5eb03804bf445589bf35c6aa84fb9a34</title>
<a xlink:href="dir_5eb03804bf445589bf35c6aa84fb9a34.html" target="_top" xlink:title="reconstruct">
<polygon fill="white" stroke="red" points="436,-180 372,-180 372,-144 436,-144 436,-180"/>
<text text-anchor="middle" x="404" y="-159.5" font-family="Helvetica,sans-Serif" font-size="10.00">reconstruct</text>
</a>
</g>
<!-- dir_f1b881a94df93d2a183c4d8f47373448&#45;&gt;dir_5eb03804bf445589bf35c6aa84fb9a34 -->
<g id="edge34" class="edge"><title>dir_f1b881a94df93d2a183c4d8f47373448&#45;&gt;dir_5eb03804bf445589bf35c6aa84fb9a34</title>
<path fill="none" stroke="black" d="M156.375,-291.126C159.255,-289.977 162.16,-288.911 165,-288 246.426,-261.889 284.702,-302.098 354,-252 374.818,-236.95 388.02,-210.432 395.596,-190.067"/>
<polygon fill="black" stroke="black" points="398.994,-190.951 398.964,-180.356 392.381,-188.657 398.994,-190.951"/>
<a xlink:href="dir_000025_000034.html" target="_top" xlink:title="4">
<text text-anchor="middle" x="400.499" y="-192.778" font-family="Helvetica,sans-Serif" font-size="10.00">4</text>
</a>
</g>
<!-- dir_2eec376824a17f48dc36b4bd0c810e01 -->
<g id="node12" class="node"><title>dir_2eec376824a17f48dc36b4bd0c810e01</title>
<a xlink:href="dir_2eec376824a17f48dc36b4bd0c810e01.html" target="_top" xlink:title="analysis">
<polygon fill="white" stroke="red" points="343,-324 289,-324 289,-288 343,-288 343,-324"/>
<text text-anchor="middle" x="316" y="-303.5" font-family="Helvetica,sans-Serif" font-size="10.00">analysis</text>
</a>
</g>
<!-- dir_f1b881a94df93d2a183c4d8f47373448&#45;&gt;dir_2eec376824a17f48dc36b4bd0c810e01 -->
<g id="edge36" class="edge"><title>dir_f1b881a94df93d2a183c4d8f47373448&#45;&gt;dir_2eec376824a17f48dc36b4bd0c810e01</title>
<path fill="none" stroke="black" d="M132.176,-324.238C139.23,-341.845 152.639,-367.481 174,-379 199.427,-392.712 212.165,-389.699 239,-379 262.675,-369.561 283.251,-349.002 297.162,-332.099"/>
<polygon fill="black" stroke="black" points="299.983,-334.175 303.44,-324.16 294.492,-329.833 299.983,-334.175"/>
<a xlink:href="dir_000025_000002.html" target="_top" xlink:title="20">
<text text-anchor="middle" x="299.98" y="-336.255" font-family="Helvetica,sans-Serif" font-size="10.00">20</text>
</a>
</g>
<!-- dir_ea8b188b89e3cad3e09837d8f37afb37 -->
<g id="node4" class="node"><title>dir_ea8b188b89e3cad3e09837d8f37afb37</title>
<a xlink:href="dir_ea8b188b89e3cad3e09837d8f37afb37.html" target="_top" xlink:title="converters">
<polygon fill="white" stroke="black" points="236,-324 174,-324 174,-288 236,-288 236,-324"/>
<text text-anchor="middle" x="205" y="-303.5" font-family="Helvetica,sans-Serif" font-size="10.00">converters</text>
</a>
</g>
<!-- dir_ea8b188b89e3cad3e09837d8f37afb37&#45;&gt;dir_c44c95bf3b41c3321c6014770d618ac8 -->
<g id="edge58" class="edge"><title>dir_ea8b188b89e3cad3e09837d8f37afb37&#45;&gt;dir_c44c95bf3b41c3321c6014770d618ac8</title>
<path fill="none" stroke="black" d="M236.11,-289.48C237.413,-288.955 238.712,-288.458 240,-288 312.762,-262.11 349.154,-299.565 410,-252 438.032,-230.087 437.019,-214.674 445,-180 450.184,-157.478 459.416,-146.064 445,-128 429.075,-108.044 359.364,-97.7616 315.196,-93.1547"/>
<polygon fill="black" stroke="black" points="315.403,-89.6581 305.106,-92.154 314.712,-96.624 315.403,-89.6581"/>
<a xlink:href="dir_000026_000038.html" target="_top" xlink:title="2">
<text text-anchor="middle" x="319.26" y="-84.6874" font-family="Helvetica,sans-Serif" font-size="10.00">2</text>
</a>
</g>
<!-- dir_ea8b188b89e3cad3e09837d8f37afb37&#45;&gt;dir_5eb03804bf445589bf35c6aa84fb9a34 -->
<g id="edge60" class="edge"><title>dir_ea8b188b89e3cad3e09837d8f37afb37&#45;&gt;dir_5eb03804bf445589bf35c6aa84fb9a34</title>
<path fill="none" stroke="black" d="M236.129,-289.532C237.426,-288.992 238.72,-288.478 240,-288 303.009,-264.456 340.726,-300.818 387,-252 402.485,-235.663 406.043,-209.875 406.129,-190.082"/>
<polygon fill="black" stroke="black" points="409.628,-189.995 405.889,-180.082 402.63,-190.163 409.628,-189.995"/>
<a xlink:href="dir_000026_000034.html" target="_top" xlink:title="2">
<text text-anchor="middle" x="412.553" y="-191.02" font-family="Helvetica,sans-Serif" font-size="10.00">2</text>
</a>
</g>
<!-- dir_47eae98cac04703c45f6b4e608e28f25 -->
<g id="node5" class="node"><title>dir_47eae98cac04703c45f6b4e608e28f25</title>
<a xlink:href="dir_47eae98cac04703c45f6b4e608e28f25.html" target="_top" xlink:title="fitfunctions">
<polygon fill="white" stroke="black" points="88,-180 24,-180 24,-144 88,-144 88,-180"/>
<text text-anchor="middle" x="56" y="-159.5" font-family="Helvetica,sans-Serif" font-size="10.00">fitfunctions</text>
</a>
</g>
<!-- dir_47eae98cac04703c45f6b4e608e28f25&#45;&gt;dir_4584aed4c24fbdfe1cf1a414e4d4a562 -->
<g id="edge72" class="edge"><title>dir_47eae98cac04703c45f6b4e608e28f25&#45;&gt;dir_4584aed4c24fbdfe1cf1a414e4d4a562</title>
<path fill="none" stroke="black" d="M70.6712,-180.413C75.1576,-188.314 79.7985,-197.713 83.5579,-206.417"/>
<polygon fill="black" stroke="black" points="80.3734,-207.878 87.3728,-215.831 86.861,-205.249 80.3734,-207.878"/>
<a xlink:href="dir_000027_000028.html" target="_top" xlink:title="2">
<text text-anchor="middle" x="76.3921" y="-203.113" font-family="Helvetica,sans-Serif" font-size="10.00">2</text>
</a>
</g>
<!-- dir_47eae98cac04703c45f6b4e608e28f25&#45;&gt;dir_0af1587c8378955de40f48b4bd1869f0 -->
<g id="edge70" class="edge"><title>dir_47eae98cac04703c45f6b4e608e28f25&#45;&gt;dir_0af1587c8378955de40f48b4bd1869f0</title>
<path fill="none" stroke="black" d="M61.0972,-143.749C67.561,-123.683 80.5283,-91.6841 102,-72 129.031,-47.2192 168.931,-33.085 197.973,-25.5456"/>
<polygon fill="black" stroke="black" points="198.876,-28.928 207.755,-23.1472 197.209,-22.1294 198.876,-28.928"/>
<a xlink:href="dir_000027_000022.html" target="_top" xlink:title="12">
<text text-anchor="middle" x="196.061" y="-30.0416" font-family="Helvetica,sans-Serif" font-size="10.00">12</text>
</a>
</g>
<!-- dir_4584aed4c24fbdfe1cf1a414e4d4a562&#45;&gt;dir_47eae98cac04703c45f6b4e608e28f25 -->
<g id="edge26" class="edge"><title>dir_4584aed4c24fbdfe1cf1a414e4d4a562&#45;&gt;dir_47eae98cac04703c45f6b4e608e28f25</title>
<path fill="none" stroke="black" d="M75.468,-215.831C70.9848,-207.962 66.3365,-198.571 62.559,-189.853"/>
<polygon fill="black" stroke="black" points="65.7291,-188.358 58.7191,-180.413 59.245,-190.995 65.7291,-188.358"/>
<a xlink:href="dir_000028_000027.html" target="_top" xlink:title="2">
<text text-anchor="middle" x="69.7134" y="-188.117" font-family="Helvetica,sans-Serif" font-size="10.00">2</text>
</a>
</g>
<!-- dir_4584aed4c24fbdfe1cf1a414e4d4a562&#45;&gt;dir_0af1587c8378955de40f48b4bd1869f0 -->
<g id="edge20" class="edge"><title>dir_4584aed4c24fbdfe1cf1a414e4d4a562&#45;&gt;dir_0af1587c8378955de40f48b4bd1869f0</title>
<path fill="none" stroke="black" d="M97.5696,-215.882C111.068,-184.718 141.345,-119.719 178,-72 185.915,-61.6964 195.837,-51.5798 205.175,-42.9392"/>
<polygon fill="black" stroke="black" points="207.732,-45.3471 212.825,-36.0566 203.05,-40.1433 207.732,-45.3471"/>
<a xlink:href="dir_000028_000022.html" target="_top" xlink:title="10">
<text text-anchor="middle" x="206.959" y="-47.362" font-family="Helvetica,sans-Serif" font-size="10.00">10</text>
</a>
</g>
<!-- dir_4584aed4c24fbdfe1cf1a414e4d4a562&#45;&gt;dir_c44c95bf3b41c3321c6014770d618ac8 -->
<g id="edge22" class="edge"><title>dir_4584aed4c24fbdfe1cf1a414e4d4a562&#45;&gt;dir_c44c95bf3b41c3321c6014770d618ac8</title>
<path fill="none" stroke="black" d="M109.759,-215.771C133.951,-193.838 176.579,-156.419 216,-128 224.295,-122.02 233.548,-116.02 242.322,-110.611"/>
<polygon fill="black" stroke="black" points="244.146,-113.598 250.883,-105.422 240.517,-107.612 244.146,-113.598"/>
<a xlink:href="dir_000028_000038.html" target="_top" xlink:title="4">
<text text-anchor="middle" x="242.543" y="-115.39" font-family="Helvetica,sans-Serif" font-size="10.00">4</text>
</a>
</g>
<!-- dir_4584aed4c24fbdfe1cf1a414e4d4a562&#45;&gt;dir_2eec376824a17f48dc36b4bd0c810e01 -->
<g id="edge24" class="edge"><title>dir_4584aed4c24fbdfe1cf1a414e4d4a562&#45;&gt;dir_2eec376824a17f48dc36b4bd0c810e01</title>
<path fill="none" stroke="black" d="M117.189,-250.294C118.464,-250.897 119.738,-251.469 121,-252 128.392,-255.109 224.483,-281.265 278.953,-296.003"/>
<polygon fill="black" stroke="black" points="278.042,-299.382 288.609,-298.613 279.869,-292.624 278.042,-299.382"/>
<a xlink:href="dir_000028_000002.html" target="_top" xlink:title="1">
<text text-anchor="middle" x="273.831" y="-298.684" font-family="Helvetica,sans-Serif" font-size="10.00">1</text>
</a>
</g>
<!-- dir_a6416823a81055497e03f4e1c81c0ea0 -->
<g id="node7" class="node"><title>dir_a6416823a81055497e03f4e1c81c0ea0</title>
<a xlink:href="dir_a6416823a81055497e03f4e1c81c0ea0.html" target="_top" xlink:title="modules">
<polygon fill="white" stroke="black" points="78,-324 24,-324 24,-288 78,-288 78,-324"/>
<text text-anchor="middle" x="51" y="-303.5" font-family="Helvetica,sans-Serif" font-size="10.00">modules</text>
</a>
</g>
<!-- dir_a6416823a81055497e03f4e1c81c0ea0&#45;&gt;dir_47eae98cac04703c45f6b4e608e28f25 -->
<g id="edge16" class="edge"><title>dir_a6416823a81055497e03f4e1c81c0ea0&#45;&gt;dir_47eae98cac04703c45f6b4e608e28f25</title>
<path fill="none" stroke="black" d="M51.5893,-287.728C52.1803,-269.544 53.1259,-240.842 54,-216 54.289,-207.786 54.6144,-198.87 54.9175,-190.694"/>
<polygon fill="black" stroke="black" points="58.4227,-190.617 55.2981,-180.494 51.4276,-190.356 58.4227,-190.617"/>
<a xlink:href="dir_000029_000027.html" target="_top" xlink:title="5">
<text text-anchor="middle" x="61.1261" y="-191.815" font-family="Helvetica,sans-Serif" font-size="10.00">5</text>
</a>
</g>
<!-- dir_a6416823a81055497e03f4e1c81c0ea0&#45;&gt;dir_4584aed4c24fbdfe1cf1a414e4d4a562 -->
<g id="edge8" class="edge"><title>dir_a6416823a81055497e03f4e1c81c0ea0&#45;&gt;dir_4584aed4c24fbdfe1cf1a414e4d4a562</title>
<path fill="none" stroke="black" d="M60.8413,-287.831C65.1957,-279.792 70.4098,-270.167 75.2169,-261.292"/>
<polygon fill="black" stroke="black" points="78.3408,-262.873 80.0261,-252.413 72.1857,-259.539 78.3408,-262.873"/>
<a xlink:href="dir_000029_000028.html" target="_top" xlink:title="5">
<text text-anchor="middle" x="79.1253" y="-264.886" font-family="Helvetica,sans-Serif" font-size="10.00">5</text>
</a>
</g>
<!-- dir_a6416823a81055497e03f4e1c81c0ea0&#45;&gt;dir_0af1587c8378955de40f48b4bd1869f0 -->
<g id="edge4" class="edge"><title>dir_a6416823a81055497e03f4e1c81c0ea0&#45;&gt;dir_0af1587c8378955de40f48b4bd1869f0</title>
<path fill="none" stroke="black" d="M78.3173,-291.089C93.8626,-281.532 112.804,-267.945 126,-252 179.395,-187.483 212.917,-92.4726 227.128,-45.8628"/>
<polygon fill="black" stroke="black" points="230.52,-46.7352 230.021,-36.1521 223.811,-44.7364 230.52,-46.7352"/>
<a xlink:href="dir_000029_000022.html" target="_top" xlink:title="15">
<text text-anchor="middle" x="232.215" y="-48.4909" font-family="Helvetica,sans-Serif" font-size="10.00">15</text>
</a>
</g>
<!-- dir_a6416823a81055497e03f4e1c81c0ea0&#45;&gt;dir_c44c95bf3b41c3321c6014770d618ac8 -->
<g id="edge6" class="edge"><title>dir_a6416823a81055497e03f4e1c81c0ea0&#45;&gt;dir_c44c95bf3b41c3321c6014770d618ac8</title>
<path fill="none" stroke="black" d="M78.2358,-292.388C110.212,-276.407 158.947,-252.046 159,-252 209.375,-208.105 202.749,-180.562 244,-128 247.197,-123.926 250.709,-119.73 254.224,-115.68"/>
<polygon fill="black" stroke="black" points="256.891,-117.947 260.906,-108.142 251.653,-113.303 256.891,-117.947"/>
<a xlink:href="dir_000029_000038.html" target="_top" xlink:title="12">
<text text-anchor="middle" x="256.631" y="-120.02" font-family="Helvetica,sans-Serif" font-size="10.00">12</text>
</a>
</g>
<!-- dir_c4f4646ab0f4a2967be5b6215a500c22 -->
<g id="node10" class="node"><title>dir_c4f4646ab0f4a2967be5b6215a500c22</title>
<a xlink:href="dir_c4f4646ab0f4a2967be5b6215a500c22.html" target="_top" xlink:title="expconfig">
<polygon fill="white" stroke="red" points="345,-252 287,-252 287,-216 345,-216 345,-252"/>
<text text-anchor="middle" x="316" y="-231.5" font-family="Helvetica,sans-Serif" font-size="10.00">expconfig</text>
</a>
</g>
<!-- dir_a6416823a81055497e03f4e1c81c0ea0&#45;&gt;dir_c4f4646ab0f4a2967be5b6215a500c22 -->
<g id="edge10" class="edge"><title>dir_a6416823a81055497e03f4e1c81c0ea0&#45;&gt;dir_c4f4646ab0f4a2967be5b6215a500c22</title>
<path fill="none" stroke="black" d="M77.6046,-288.142C77.7365,-288.094 77.8683,-288.047 78,-288 147.081,-263.422 167.768,-269.385 239,-252 251.235,-249.014 264.647,-245.513 276.891,-242.396"/>
<polygon fill="black" stroke="black" points="278.007,-245.724 286.85,-239.888 276.298,-238.936 278.007,-245.724"/>
<a xlink:href="dir_000029_000030.html" target="_top" xlink:title="5">
<text text-anchor="middle" x="275.215" y="-246.855" font-family="Helvetica,sans-Serif" font-size="10.00">5</text>
</a>
</g>
<!-- dir_a6416823a81055497e03f4e1c81c0ea0&#45;&gt;dir_5eb03804bf445589bf35c6aa84fb9a34 -->
<g id="edge12" class="edge"><title>dir_a6416823a81055497e03f4e1c81c0ea0&#45;&gt;dir_5eb03804bf445589bf35c6aa84fb9a34</title>
<path fill="none" stroke="black" d="M78.3245,-291.817C81.2265,-290.468 84.1562,-289.169 87,-288 134.578,-268.445 148.99,-270.47 197,-252 233.768,-237.855 241.894,-231.76 278,-216 306.114,-203.729 337.858,-190.126 362.45,-179.642"/>
<polygon fill="black" stroke="black" points="364.012,-182.782 371.841,-175.643 361.269,-176.342 364.012,-182.782"/>
<a xlink:href="dir_000029_000034.html" target="_top" xlink:title="1">
<text text-anchor="middle" x="361.817" y="-184.302" font-family="Helvetica,sans-Serif" font-size="10.00">1</text>
</a>
</g>
<!-- dir_a6416823a81055497e03f4e1c81c0ea0&#45;&gt;dir_2eec376824a17f48dc36b4bd0c810e01 -->
<g id="edge14" class="edge"><title>dir_a6416823a81055497e03f4e1c81c0ea0&#45;&gt;dir_2eec376824a17f48dc36b4bd0c810e01</title>
<path fill="none" stroke="black" d="M56.4637,-324.199C62.8226,-341.775 75.201,-367.388 96,-379 123.746,-394.491 209.482,-390.768 239,-379 262.675,-369.561 283.251,-349.002 297.162,-332.099"/>
<polygon fill="black" stroke="black" points="299.983,-334.175 303.44,-324.16 294.492,-329.833 299.983,-334.175"/>
<a xlink:href="dir_000029_000002.html" target="_top" xlink:title="17">
<text text-anchor="middle" x="299.98" y="-336.255" font-family="Helvetica,sans-Serif" font-size="10.00">17</text>
</a>
</g>
<!-- dir_c44c95bf3b41c3321c6014770d618ac8&#45;&gt;dir_0af1587c8378955de40f48b4bd1869f0 -->
<g id="edge18" class="edge"><title>dir_c44c95bf3b41c3321c6014770d618ac8&#45;&gt;dir_0af1587c8378955de40f48b4bd1869f0</title>
<path fill="none" stroke="black" d="M267.149,-71.8314C262.298,-63.7079 256.478,-53.9637 251.132,-45.0118"/>
<polygon fill="black" stroke="black" points="254.129,-43.2041 245.997,-36.4133 248.119,-46.7933 254.129,-43.2041"/>
<a xlink:href="dir_000038_000022.html" target="_top" xlink:title="15">
<text text-anchor="middle" x="258.41" y="-42.3344" font-family="Helvetica,sans-Serif" font-size="10.00">15</text>
</a>
</g>
<!-- dir_c4f4646ab0f4a2967be5b6215a500c22&#45;&gt;dir_f1b881a94df93d2a183c4d8f47373448 -->
<g id="edge44" class="edge"><title>dir_c4f4646ab0f4a2967be5b6215a500c22&#45;&gt;dir_f1b881a94df93d2a183c4d8f47373448</title>
<path fill="none" stroke="black" d="M286.973,-246.496C282.323,-248.398 277.546,-250.294 273,-252 228.406,-268.739 213.75,-269.356 165.505,-288.011"/>
<polygon fill="black" stroke="black" points="164.117,-284.796 156.091,-291.712 166.678,-291.31 164.117,-284.796"/>
<a xlink:href="dir_000030_000025.html" target="_top" xlink:title="18">
<text text-anchor="middle" x="166.423" y="-278.338" font-family="Helvetica,sans-Serif" font-size="10.00">18</text>
</a>
</g>
<!-- dir_c4f4646ab0f4a2967be5b6215a500c22&#45;&gt;dir_ea8b188b89e3cad3e09837d8f37afb37 -->
<g id="edge48" class="edge"><title>dir_c4f4646ab0f4a2967be5b6215a500c22&#45;&gt;dir_ea8b188b89e3cad3e09837d8f37afb37</title>
<path fill="none" stroke="black" d="M287.999,-252.163C273.934,-261.286 256.717,-272.454 241.616,-282.249"/>
<polygon fill="black" stroke="black" points="239.495,-279.453 233.01,-287.831 243.304,-285.326 239.495,-279.453"/>
<a xlink:href="dir_000030_000026.html" target="_top" xlink:title="4">
<text text-anchor="middle" x="240.966" y="-272.615" font-family="Helvetica,sans-Serif" font-size="10.00">4</text>
</a>
</g>
<!-- dir_c4f4646ab0f4a2967be5b6215a500c22&#45;&gt;dir_47eae98cac04703c45f6b4e608e28f25 -->
<g id="edge50" class="edge"><title>dir_c4f4646ab0f4a2967be5b6215a500c22&#45;&gt;dir_47eae98cac04703c45f6b4e608e28f25</title>
<path fill="none" stroke="black" d="M286.933,-226.087C274.905,-222.87 260.802,-219.171 248,-216 182.169,-199.696 160.938,-203.642 97.6719,-181.884"/>
<polygon fill="black" stroke="black" points="98.6171,-178.506 88.0223,-178.482 96.2894,-185.108 98.6171,-178.506"/>
<a xlink:href="dir_000030_000027.html" target="_top" xlink:title="3">
<text text-anchor="middle" x="102.951" y="-174.524" font-family="Helvetica,sans-Serif" font-size="10.00">3</text>
</a>
</g>
<!-- dir_c4f4646ab0f4a2967be5b6215a500c22&#45;&gt;dir_a6416823a81055497e03f4e1c81c0ea0 -->
<g id="edge38" class="edge"><title>dir_c4f4646ab0f4a2967be5b6215a500c22&#45;&gt;dir_a6416823a81055497e03f4e1c81c0ea0</title>
<path fill="none" stroke="black" d="M286.993,-244.258C277.457,-246.86 266.847,-249.597 257,-252 185.768,-269.385 165.081,-263.422 96,-288 93.1938,-288.998 90.324,-290.163 87.4481,-291.412"/>
<polygon fill="black" stroke="black" points="85.9561,-288.245 78.3122,-295.582 88.8627,-294.613 85.9561,-288.245"/>
<a xlink:href="dir_000030_000029.html" target="_top" xlink:title="9">
<text text-anchor="middle" x="88.0472" y="-281.67" font-family="Helvetica,sans-Serif" font-size="10.00">9</text>
</a>
</g>
<!-- dir_c4f4646ab0f4a2967be5b6215a500c22&#45;&gt;dir_0af1587c8378955de40f48b4bd1869f0 -->
<g id="edge40" class="edge"><title>dir_c4f4646ab0f4a2967be5b6215a500c22&#45;&gt;dir_0af1587c8378955de40f48b4bd1869f0</title>
<path fill="none" stroke="black" d="M320.937,-215.648C328.343,-184.131 338.969,-118.613 314,-72 304.819,-54.8613 287.523,-42.1073 271.449,-33.3107"/>
<polygon fill="black" stroke="black" points="272.694,-30.0169 262.197,-28.5855 269.511,-36.2509 272.694,-30.0169"/>
<a xlink:href="dir_000030_000022.html" target="_top" xlink:title="16">
<text text-anchor="middle" x="277.187" y="-26.6232" font-family="Helvetica,sans-Serif" font-size="10.00">16</text>
</a>
</g>
<!-- dir_c4f4646ab0f4a2967be5b6215a500c22&#45;&gt;dir_c44c95bf3b41c3321c6014770d618ac8 -->
<g id="edge42" class="edge"><title>dir_c4f4646ab0f4a2967be5b6215a500c22&#45;&gt;dir_c44c95bf3b41c3321c6014770d618ac8</title>
<path fill="none" stroke="black" d="M311.187,-215.762C304.677,-191.093 293.005,-146.86 285.382,-117.973"/>
<polygon fill="black" stroke="black" points="288.709,-116.866 282.774,-108.09 281.941,-118.652 288.709,-116.866"/>
<a xlink:href="dir_000030_000038.html" target="_top" xlink:title="7">
<text text-anchor="middle" x="292.372" y="-117.117" font-family="Helvetica,sans-Serif" font-size="10.00">7</text>
</a>
</g>
<!-- dir_c4f4646ab0f4a2967be5b6215a500c22&#45;&gt;dir_5eb03804bf445589bf35c6aa84fb9a34 -->
<g id="edge46" class="edge"><title>dir_c4f4646ab0f4a2967be5b6215a500c22&#45;&gt;dir_5eb03804bf445589bf35c6aa84fb9a34</title>
<path fill="none" stroke="black" d="M332.254,-215.831C342.324,-206.878 355.517,-195.956 367.883,-186.295"/>
<polygon fill="black" stroke="black" points="370.06,-189.036 375.849,-180.163 365.79,-183.49 370.06,-189.036"/>
<a xlink:href="dir_000030_000034.html" target="_top" xlink:title="1">
<text text-anchor="middle" x="368.944" y="-190.979" font-family="Helvetica,sans-Serif" font-size="10.00">1</text>
</a>
</g>
<!-- dir_5eb03804bf445589bf35c6aa84fb9a34&#45;&gt;dir_0af1587c8378955de40f48b4bd1869f0 -->
<g id="edge52" class="edge"><title>dir_5eb03804bf445589bf35c6aa84fb9a34&#45;&gt;dir_0af1587c8378955de40f48b4bd1869f0</title>
<path fill="none" stroke="black" d="M398.8,-143.86C392.244,-123.893 379.194,-91.9829 358,-72 333.851,-49.2307 298.538,-35.0886 271.937,-27.0184"/>
<polygon fill="black" stroke="black" points="272.788,-23.6213 262.21,-24.2174 270.851,-30.348 272.788,-23.6213"/>
<a xlink:href="dir_000034_000022.html" target="_top" xlink:title="10">
<text text-anchor="middle" x="277.028" y="-19.3875" font-family="Helvetica,sans-Serif" font-size="10.00">10</text>
</a>
</g>
<!-- dir_5eb03804bf445589bf35c6aa84fb9a34&#45;&gt;dir_c44c95bf3b41c3321c6014770d618ac8 -->
<g id="edge54" class="edge"><title>dir_5eb03804bf445589bf35c6aa84fb9a34&#45;&gt;dir_c44c95bf3b41c3321c6014770d618ac8</title>
<path fill="none" stroke="black" d="M372.205,-143.831C354.412,-133.664 332.176,-120.958 313.776,-110.444"/>
<polygon fill="black" stroke="black" points="315.507,-107.402 305.088,-105.479 312.034,-113.479 315.507,-107.402"/>
<a xlink:href="dir_000034_000038.html" target="_top" xlink:title="11">
<text text-anchor="middle" x="320.037" y="-104.22" font-family="Helvetica,sans-Serif" font-size="10.00">11</text>
</a>
</g>
<!-- dir_5eb03804bf445589bf35c6aa84fb9a34&#45;&gt;dir_c4f4646ab0f4a2967be5b6215a500c22 -->
<g id="edge56" class="edge"><title>dir_5eb03804bf445589bf35c6aa84fb9a34&#45;&gt;dir_c4f4646ab0f4a2967be5b6215a500c22</title>
<path fill="none" stroke="black" d="M387.753,-180.163C377.684,-189.115 364.492,-200.037 352.125,-209.698"/>
<polygon fill="black" stroke="black" points="349.947,-206.958 344.159,-215.831 354.217,-212.504 349.947,-206.958"/>
<a xlink:href="dir_000034_000030.html" target="_top" xlink:title="6">
<text text-anchor="middle" x="351.063" y="-200.015" font-family="Helvetica,sans-Serif" font-size="10.00">6</text>
</a>
</g>
<!-- dir_2eec376824a17f48dc36b4bd0c810e01&#45;&gt;dir_0af1587c8378955de40f48b4bd1869f0 -->
<g id="edge62" class="edge"><title>dir_2eec376824a17f48dc36b4bd0c810e01&#45;&gt;dir_0af1587c8378955de40f48b4bd1869f0</title>
<path fill="none" stroke="black" d="M343.377,-303.006C394.931,-296.753 503.285,-280.47 526,-252 560.376,-208.915 559.066,-173.529 528,-128 498.154,-84.2593 343.903,-43.358 271.989,-26.329"/>
<polygon fill="black" stroke="black" points="272.535,-22.8624 262.001,-23.9923 270.94,-29.6783 272.535,-22.8624"/>
<a xlink:href="dir_000002_000022.html" target="_top" xlink:title="44">
<text text-anchor="middle" x="276.682" y="-18.4165" font-family="Helvetica,sans-Serif" font-size="10.00">44</text>
</a>
</g>
<!-- dir_2eec376824a17f48dc36b4bd0c810e01&#45;&gt;dir_c44c95bf3b41c3321c6014770d618ac8 -->
<g id="edge64" class="edge"><title>dir_2eec376824a17f48dc36b4bd0c810e01&#45;&gt;dir_c44c95bf3b41c3321c6014770d618ac8</title>
<path fill="none" stroke="black" d="M343.115,-302.096C389.749,-294.766 481.982,-277.363 501,-252 534.062,-207.908 536.546,-170.116 501,-128 489.171,-113.985 375.888,-100.192 315.495,-93.7579"/>
<polygon fill="black" stroke="black" points="315.533,-90.2428 305.222,-92.6801 314.803,-97.2046 315.533,-90.2428"/>
<a xlink:href="dir_000002_000038.html" target="_top" xlink:title="18">
<text text-anchor="middle" x="319.404" y="-85.294" font-family="Helvetica,sans-Serif" font-size="10.00">18</text>
</a>
</g>
<!-- dir_2eec376824a17f48dc36b4bd0c810e01&#45;&gt;dir_c4f4646ab0f4a2967be5b6215a500c22 -->
<g id="edge66" class="edge"><title>dir_2eec376824a17f48dc36b4bd0c810e01&#45;&gt;dir_c4f4646ab0f4a2967be5b6215a500c22</title>
<path fill="none" stroke="black" d="M316,-287.831C316,-280.131 316,-270.974 316,-262.417"/>
<polygon fill="black" stroke="black" points="319.5,-262.413 316,-252.413 312.5,-262.413 319.5,-262.413"/>
<a xlink:href="dir_000002_000030.html" target="_top" xlink:title="1">
<text text-anchor="middle" x="322.339" y="-263.508" font-family="Helvetica,sans-Serif" font-size="10.00">1</text>
</a>
</g>
<!-- dir_2eec376824a17f48dc36b4bd0c810e01&#45;&gt;dir_5eb03804bf445589bf35c6aa84fb9a34 -->
<g id="edge68" class="edge"><title>dir_2eec376824a17f48dc36b4bd0c810e01&#45;&gt;dir_5eb03804bf445589bf35c6aa84fb9a34</title>
<path fill="none" stroke="black" d="M343.462,-300.905C369.535,-294.452 407.294,-280.531 425,-252 436.797,-232.99 429.512,-207.987 420.433,-189.16"/>
<polygon fill="black" stroke="black" points="423.489,-187.452 415.761,-180.205 417.283,-190.69 423.489,-187.452"/>
<a xlink:href="dir_000002_000034.html" target="_top" xlink:title="1">
<text text-anchor="middle" x="427.669" y="-186.825" font-family="Helvetica,sans-Serif" font-size="10.00">1</text>
</a>
</g>
</g>
</svg>
