<?xml version="1.0" encoding="UTF-8" standalone="no"?>
<!DOCTYPE svg PUBLIC "-//W3C//DTD SVG 1.1//EN"
 "http://www.w3.org/Graphics/SVG/1.1/DTD/svg11.dtd">
<!-- Generated by graphviz version 2.26.3 (20100126.1600)
 -->
<!-- Title: src/analysis/input/detail Pages: 1 -->
<svg width="105pt" height="225pt"
 viewBox="0.00 0.00 105.00 225.00" xmlns="http://www.w3.org/2000/svg" xmlns:xlink="http://www.w3.org/1999/xlink">
<g id="graph1" class="graph" transform="scale(1 1) rotate(0) translate(4 221)">
<title>src/analysis/input/detail</title>
<polygon fill="white" stroke="white" points="-4,5 -4,-221 102,-221 102,5 -4,5"/>
<g id="graph2" class="cluster"><title>clusterdir_4d4314fec0337faafb4fd99dc7917bfa</title>
<a xlink:href="dir_4d4314fec0337faafb4fd99dc7917bfa.html" target="_top" xlink:title="input">
<polygon fill="#ddddee" stroke="black" points="19,-136 19,-209 89,-209 89,-136 19,-136"/>
<text text-anchor="middle" x="54" y="-196" font-family="Helvetica,sans-Serif" font-size="10.00">input</text>
</a>
</g>
<!-- dir_de939fcbf36d4005ef2424dd277e5714 -->
<g id="node2" class="node"><title>dir_de939fcbf36d4005ef2424dd277e5714</title>
<a xlink:href="dir_de939fcbf36d4005ef2424dd277e5714.html" target="_top" xlink:title="detail">
<polygon fill="#eeeeff" stroke="black" points="81,-180 27,-180 27,-144 81,-144 81,-180"/>
<text text-anchor="middle" x="54" y="-159.5" font-family="Helvetica,sans-Serif" font-size="10.00">detail</text>
</a>
</g>
<!-- dir_86afe70f6685ce518ba6965fc87e41ba -->
<g id="node3" class="node"><title>dir_86afe70f6685ce518ba6965fc87e41ba</title>
<a xlink:href="dir_86afe70f6685ce518ba6965fc87e41ba.html" target="_top" xlink:title="data">
<polygon fill="none" stroke="black" points="54,-108 2.13163e-14,-108 0,-72 54,-72 54,-108"/>
<text text-anchor="middle" x="27" y="-87.5" font-family="Helvetica,sans-Serif" font-size="10.00">data</text>
</a>
</g>
<!-- dir_de939fcbf36d4005ef2424dd277e5714&#45;&gt;dir_86afe70f6685ce518ba6965fc87e41ba -->
<g id="edge5" class="edge"><title>dir_de939fcbf36d4005ef2424dd277e5714&#45;&gt;dir_86afe70f6685ce518ba6965fc87e41ba</title>
<path fill="none" stroke="black" d="M47.1868,-143.831C44.2356,-135.962 40.7142,-126.571 37.445,-117.853"/>
<polygon fill="black" stroke="black" points="40.6934,-116.548 33.905,-108.413 34.1391,-119.006 40.6934,-116.548"/>
<a xlink:href="dir_000007_000003.html" target="_top" xlink:title="1">
<text text-anchor="middle" x="44.614" y="-116.416" font-family="Helvetica,sans-Serif" font-size="10.00">1</text>
</a>
</g>
<!-- dir_c44c95bf3b41c3321c6014770d618ac8 -->
<g id="node4" class="node"><title>dir_c44c95bf3b41c3321c6014770d618ac8</title>
<a xlink:href="dir_c44c95bf3b41c3321c6014770d618ac8.html" target="_top" xlink:title="tree">
<polygon fill="none" stroke="black" points="81,-36 27,-36 27,-1.77636e-14 81,-3.55271e-15 81,-36"/>
<text text-anchor="middle" x="54" y="-15.5" font-family="Helvetica,sans-Serif" font-size="10.00">tree</text>
</a>
</g>
<!-- dir_de939fcbf36d4005ef2424dd277e5714&#45;&gt;dir_c44c95bf3b41c3321c6014770d618ac8 -->
<g id="edge7" class="edge"><title>dir_de939fcbf36d4005ef2424dd277e5714&#45;&gt;dir_c44c95bf3b41c3321c6014770d618ac8</title>
<path fill="none" stroke="black" d="M57.8413,-143.6C59.8166,-133.203 62.0123,-119.935 63,-108 64.3197,-92.0545 64.3197,-87.9455 63,-72 62.3055,-63.6085 61.0138,-54.5578 59.6214,-46.3092"/>
<polygon fill="black" stroke="black" points="63.0544,-45.6235 57.8413,-36.3999 56.1647,-46.8612 63.0544,-45.6235"/>
<a xlink:href="dir_000007_000038.html" target="_top" xlink:title="1">
<text text-anchor="middle" x="66.4844" y="-46.1595" font-family="Helvetica,sans-Serif" font-size="10.00">1</text>
</a>
</g>
<!-- dir_86afe70f6685ce518ba6965fc87e41ba&#45;&gt;dir_c44c95bf3b41c3321c6014770d618ac8 -->
<g id="edge3" class="edge"><title>dir_86afe70f6685ce518ba6965fc87e41ba&#45;&gt;dir_c44c95bf3b41c3321c6014770d618ac8</title>
<path fill="none" stroke="black" d="M33.8132,-71.8314C36.7644,-63.9617 40.2858,-54.5712 43.555,-45.8533"/>
<polygon fill="black" stroke="black" points="46.8609,-47.0055 47.095,-36.4133 40.3066,-44.5476 46.8609,-47.0055"/>
<a xlink:href="dir_000003_000038.html" target="_top" xlink:title="2">
<text text-anchor="middle" x="48.2573" y="-48.8682" font-family="Helvetica,sans-Serif" font-size="10.00">2</text>
</a>
</g>
</g>
</svg>
