<?xml version="1.0" encoding="UTF-8" standalone="no"?>
<!DOCTYPE svg PUBLIC "-//W3C//DTD SVG 1.1//EN"
 "http://www.w3.org/Graphics/SVG/1.1/DTD/svg11.dtd">
<!-- Generated by graphviz version 2.26.3 (20100126.1600)
 -->
<!-- Title: src/analysis/physics Pages: 1 -->
<svg width="730pt" height="377pt"
 viewBox="0.00 0.00 730.31 377.00" xmlns="http://www.w3.org/2000/svg" xmlns:xlink="http://www.w3.org/1999/xlink">
<g id="graph1" class="graph" transform="scale(1 1) rotate(0) translate(4 373)">
<title>src/analysis/physics</title>
<polygon fill="white" stroke="white" points="-4,5 -4,-373 727.31,-373 727.31,5 -4,5"/>
<g id="graph2" class="cluster"><title>clusterdir_2eec376824a17f48dc36b4bd0c810e01</title>
<a xlink:href="dir_2eec376824a17f48dc36b4bd0c810e01.html" target="_top" xlink:title="analysis">
<polygon fill="#ddddee" stroke="black" points="43.6389,-272 43.6389,-361 685.639,-361 685.639,-272 43.6389,-272"/>
<text text-anchor="middle" x="364.639" y="-348" font-family="Helvetica,sans-Serif" font-size="10.00">analysis</text>
</a>
</g>
<g id="graph3" class="cluster"><title>clusterdir_a21a804d6482c442bcd1b39e4dfcc179</title>
<a xlink:href="dir_a21a804d6482c442bcd1b39e4dfcc179.html" target="_top">
<polygon fill="#eeeeff" stroke="black" points="51.6389,-280 51.6389,-332 677.639,-332 677.639,-280 51.6389,-280"/>
</a>
</g>
<!-- dir_a21a804d6482c442bcd1b39e4dfcc179 -->
<g id="node3" class="node"><title>dir_a21a804d6482c442bcd1b39e4dfcc179</title>
<text text-anchor="middle" x="642.639" y="-303.5" font-family="Helvetica,sans-Serif" font-size="10.00">physics</text>
</g>
<!-- dir_c44c95bf3b41c3321c6014770d618ac8 -->
<g id="node14" class="node"><title>dir_c44c95bf3b41c3321c6014770d618ac8</title>
<a xlink:href="dir_c44c95bf3b41c3321c6014770d618ac8.html" target="_top" xlink:title="tree">
<polygon fill="none" stroke="black" points="670.639,-108 616.639,-108 616.639,-72 670.639,-72 670.639,-108"/>
<text text-anchor="middle" x="643.639" y="-87.5" font-family="Helvetica,sans-Serif" font-size="10.00">tree</text>
</a>
</g>
<!-- dir_a21a804d6482c442bcd1b39e4dfcc179&#45;&gt;dir_c44c95bf3b41c3321c6014770d618ac8 -->
<g id="edge4" class="edge"><title>dir_a21a804d6482c442bcd1b39e4dfcc179&#45;&gt;dir_c44c95bf3b41c3321c6014770d618ac8</title>
<path fill="none" stroke="black" d="M669.694,-294.525C686.843,-285.654 707.618,-271.564 717.639,-252 724.933,-237.76 721.734,-231.467 717.639,-216 707.649,-178.268 682.937,-140.378 664.808,-116.149"/>
<polygon fill="black" stroke="black" points="667.561,-113.987 658.705,-108.171 662.001,-118.24 667.561,-113.987"/>
<a xlink:href="dir_000012_000038.html" target="_top" xlink:title="3">
<text text-anchor="middle" x="672" y="-112.617" font-family="Helvetica,sans-Serif" font-size="10.00">3</text>
</a>
</g>
<!-- dir_4d4314fec0337faafb4fd99dc7917bfa -->
<g id="node17" class="node"><title>dir_4d4314fec0337faafb4fd99dc7917bfa</title>
<a xlink:href="dir_4d4314fec0337faafb4fd99dc7917bfa.html" target="_top" xlink:title="input">
<polygon fill="white" stroke="red" points="708.639,-252 654.639,-252 654.639,-216 708.639,-216 708.639,-252"/>
<text text-anchor="middle" x="681.639" y="-231.5" font-family="Helvetica,sans-Serif" font-size="10.00">input</text>
</a>
</g>
<!-- dir_a21a804d6482c442bcd1b39e4dfcc179&#45;&gt;dir_4d4314fec0337faafb4fd99dc7917bfa -->
<g id="edge6" class="edge"><title>dir_a21a804d6482c442bcd1b39e4dfcc179&#45;&gt;dir_4d4314fec0337faafb4fd99dc7917bfa</title>
<path fill="none" stroke="black" d="M652.48,-287.831C656.835,-279.792 662.049,-270.167 666.856,-261.292"/>
<polygon fill="black" stroke="black" points="669.98,-262.873 671.665,-252.413 663.825,-259.539 669.98,-262.873"/>
<a xlink:href="dir_000012_000004.html" target="_top" xlink:title="2">
<text text-anchor="middle" x="670.764" y="-264.886" font-family="Helvetica,sans-Serif" font-size="10.00">2</text>
</a>
</g>
<!-- dir_b41e020219f4b77363d5457b150817df -->
<g id="node4" class="node"><title>dir_b41e020219f4b77363d5457b150817df</title>
<a xlink:href="dir_b41e020219f4b77363d5457b150817df.html" target="_top" xlink:title="common">
<polygon fill="white" stroke="black" points="597.639,-324 543.639,-324 543.639,-288 597.639,-288 597.639,-324"/>
<text text-anchor="middle" x="570.639" y="-303.5" font-family="Helvetica,sans-Serif" font-size="10.00">common</text>
</a>
</g>
<!-- dir_86afe70f6685ce518ba6965fc87e41ba -->
<g id="node11" class="node"><title>dir_86afe70f6685ce518ba6965fc87e41ba</title>
<a xlink:href="dir_86afe70f6685ce518ba6965fc87e41ba.html" target="_top" xlink:title="data">
<polygon fill="none" stroke="black" points="387.639,-180 333.639,-180 333.639,-144 387.639,-144 387.639,-180"/>
<text text-anchor="middle" x="360.639" y="-159.5" font-family="Helvetica,sans-Serif" font-size="10.00">data</text>
</a>
</g>
<!-- dir_b41e020219f4b77363d5457b150817df&#45;&gt;dir_86afe70f6685ce518ba6965fc87e41ba -->
<g id="edge62" class="edge"><title>dir_b41e020219f4b77363d5457b150817df&#45;&gt;dir_86afe70f6685ce518ba6965fc87e41ba</title>
<path fill="none" stroke="black" d="M552.936,-287.99C547.292,-282.606 540.886,-276.851 534.639,-272 489.361,-236.839 432.51,-202.553 396.365,-181.851"/>
<polygon fill="black" stroke="black" points="398.065,-178.791 387.642,-176.888 394.603,-184.875 398.065,-178.791"/>
<a xlink:href="dir_000013_000003.html" target="_top" xlink:title="4">
<text text-anchor="middle" x="402.593" y="-175.6" font-family="Helvetica,sans-Serif" font-size="10.00">4</text>
</a>
</g>
<!-- dir_0af1587c8378955de40f48b4bd1869f0 -->
<g id="node13" class="node"><title>dir_0af1587c8378955de40f48b4bd1869f0</title>
<a xlink:href="dir_0af1587c8378955de40f48b4bd1869f0.html" target="_top" xlink:title="base">
<polygon fill="white" stroke="red" points="387.639,-36 333.639,-36 333.639,-1.77636e-14 387.639,-3.55271e-15 387.639,-36"/>
<text text-anchor="middle" x="360.639" y="-15.5" font-family="Helvetica,sans-Serif" font-size="10.00">base</text>
</a>
</g>
<!-- dir_b41e020219f4b77363d5457b150817df&#45;&gt;dir_0af1587c8378955de40f48b4bd1869f0 -->
<g id="edge64" class="edge"><title>dir_b41e020219f4b77363d5457b150817df&#45;&gt;dir_0af1587c8378955de40f48b4bd1869f0</title>
<path fill="none" stroke="black" d="M561.346,-287.824C539.942,-246.874 484.177,-145.261 421.639,-72 412.799,-61.6444 401.982,-51.4411 391.924,-42.74"/>
<polygon fill="black" stroke="black" points="393.972,-39.888 384.073,-36.1097 389.455,-45.2359 393.972,-39.888"/>
<a xlink:href="dir_000013_000022.html" target="_top" xlink:title="1">
<text text-anchor="middle" x="398.55" y="-37.5381" font-family="Helvetica,sans-Serif" font-size="10.00">1</text>
</a>
</g>
<!-- dir_c4f4646ab0f4a2967be5b6215a500c22 -->
<g id="node15" class="node"><title>dir_c4f4646ab0f4a2967be5b6215a500c22</title>
<a xlink:href="dir_c4f4646ab0f4a2967be5b6215a500c22.html" target="_top" xlink:title="expconfig">
<polygon fill="white" stroke="red" points="636.639,-180 578.639,-180 578.639,-144 636.639,-144 636.639,-180"/>
<text text-anchor="middle" x="607.639" y="-159.5" font-family="Helvetica,sans-Serif" font-size="10.00">expconfig</text>
</a>
</g>
<!-- dir_b41e020219f4b77363d5457b150817df&#45;&gt;dir_c4f4646ab0f4a2967be5b6215a500c22 -->
<g id="edge66" class="edge"><title>dir_b41e020219f4b77363d5457b150817df&#45;&gt;dir_c4f4646ab0f4a2967be5b6215a500c22</title>
<path fill="none" stroke="black" d="M584.584,-287.558C591.322,-277.58 598.771,-264.72 602.639,-252 608.738,-231.944 609.823,-208.234 609.472,-190.186"/>
<polygon fill="black" stroke="black" points="612.964,-189.895 609.113,-180.025 605.968,-190.142 612.964,-189.895"/>
<a xlink:href="dir_000013_000030.html" target="_top" xlink:title="1">
<text text-anchor="middle" x="615.928" y="-190.887" font-family="Helvetica,sans-Serif" font-size="10.00">1</text>
</a>
</g>
<!-- dir_8f68c37b22d514b4289e3a1255795d80 -->
<g id="node16" class="node"><title>dir_8f68c37b22d514b4289e3a1255795d80</title>
<a xlink:href="dir_8f68c37b22d514b4289e3a1255795d80.html" target="_top" xlink:title="plot">
<polygon fill="none" stroke="black" points="332.639,-252 278.639,-252 278.639,-216 332.639,-216 332.639,-252"/>
<text text-anchor="middle" x="305.639" y="-231.5" font-family="Helvetica,sans-Serif" font-size="10.00">plot</text>
</a>
</g>
<!-- dir_b41e020219f4b77363d5457b150817df&#45;&gt;dir_8f68c37b22d514b4289e3a1255795d80 -->
<g id="edge68" class="edge"><title>dir_b41e020219f4b77363d5457b150817df&#45;&gt;dir_8f68c37b22d514b4289e3a1255795d80</title>
<path fill="none" stroke="black" d="M555.406,-287.768C549.517,-281.845 542.34,-275.821 534.639,-272 501.657,-255.633 399.092,-243.271 343.078,-237.535"/>
<polygon fill="black" stroke="black" points="343.159,-234.026 332.859,-236.509 342.459,-240.991 343.159,-234.026"/>
<a xlink:href="dir_000013_000020.html" target="_top" xlink:title="6">
<text text-anchor="middle" x="347.019" y="-229.059" font-family="Helvetica,sans-Serif" font-size="10.00">6</text>
</a>
</g>
<!-- dir_aa4412e8ff7d066c54b5e32d9607e3e6 -->
<g id="node5" class="node"><title>dir_aa4412e8ff7d066c54b5e32d9607e3e6</title>
<a xlink:href="dir_aa4412e8ff7d066c54b5e32d9607e3e6.html" target="_top" xlink:title="DeltaPlus">
<polygon fill="white" stroke="black" points="525.639,-324 467.639,-324 467.639,-288 525.639,-288 525.639,-324"/>
<text text-anchor="middle" x="496.639" y="-303.5" font-family="Helvetica,sans-Serif" font-size="10.00">DeltaPlus</text>
</a>
</g>
<!-- dir_aa4412e8ff7d066c54b5e32d9607e3e6&#45;&gt;dir_86afe70f6685ce518ba6965fc87e41ba -->
<g id="edge56" class="edge"><title>dir_aa4412e8ff7d066c54b5e32d9607e3e6&#45;&gt;dir_86afe70f6685ce518ba6965fc87e41ba</title>
<path fill="none" stroke="black" d="M479.414,-287.762C455.502,-262.444 412.128,-216.518 384.935,-187.725"/>
<polygon fill="black" stroke="black" points="387.134,-184.957 377.724,-180.09 382.045,-189.763 387.134,-184.957"/>
<a xlink:href="dir_000014_000003.html" target="_top" xlink:title="2">
<text text-anchor="middle" x="391.667" y="-183.12" font-family="Helvetica,sans-Serif" font-size="10.00">2</text>
</a>
</g>
<!-- dir_aa4412e8ff7d066c54b5e32d9607e3e6&#45;&gt;dir_0af1587c8378955de40f48b4bd1869f0 -->
<g id="edge58" class="edge"><title>dir_aa4412e8ff7d066c54b5e32d9607e3e6&#45;&gt;dir_0af1587c8378955de40f48b4bd1869f0</title>
<path fill="none" stroke="black" d="M490.533,-287.773C476.737,-247.558 441.036,-148.711 398.639,-72 393.482,-62.6692 387.057,-52.9912 380.965,-44.4498"/>
<polygon fill="black" stroke="black" points="383.769,-42.3539 375.045,-36.3421 378.116,-46.4821 383.769,-42.3539"/>
<a xlink:href="dir_000014_000022.html" target="_top" xlink:title="2">
<text text-anchor="middle" x="388.182" y="-41.0824" font-family="Helvetica,sans-Serif" font-size="10.00">2</text>
</a>
</g>
<!-- dir_aa4412e8ff7d066c54b5e32d9607e3e6&#45;&gt;dir_8f68c37b22d514b4289e3a1255795d80 -->
<g id="edge60" class="edge"><title>dir_aa4412e8ff7d066c54b5e32d9607e3e6&#45;&gt;dir_8f68c37b22d514b4289e3a1255795d80</title>
<path fill="none" stroke="black" d="M479.844,-287.769C473.673,-281.991 466.307,-276.057 458.639,-272 422.016,-252.622 375.203,-242.874 343.059,-238.143"/>
<polygon fill="black" stroke="black" points="343.14,-234.621 332.756,-236.724 342.185,-241.556 343.14,-234.621"/>
<a xlink:href="dir_000014_000020.html" target="_top" xlink:title="2">
<text text-anchor="middle" x="347.089" y="-229.799" font-family="Helvetica,sans-Serif" font-size="10.00">2</text>
</a>
</g>
<!-- dir_835987677c858f85564250229e07a331 -->
<g id="node6" class="node"><title>dir_835987677c858f85564250229e07a331</title>
<a xlink:href="dir_835987677c858f85564250229e07a331.html" target="_top" xlink:title="DeltaTreeGenerator">
<polygon fill="white" stroke="black" points="449.639,-324 347.639,-324 347.639,-288 449.639,-288 449.639,-324"/>
<text text-anchor="middle" x="398.639" y="-303.5" font-family="Helvetica,sans-Serif" font-size="10.00">DeltaTreeGenerator</text>
</a>
</g>
<!-- dir_835987677c858f85564250229e07a331&#45;&gt;dir_86afe70f6685ce518ba6965fc87e41ba -->
<g id="edge76" class="edge"><title>dir_835987677c858f85564250229e07a331&#45;&gt;dir_86afe70f6685ce518ba6965fc87e41ba</title>
<path fill="none" stroke="black" d="M393.826,-287.762C387.316,-263.093 375.644,-218.86 368.021,-189.973"/>
<polygon fill="black" stroke="black" points="371.348,-188.866 365.413,-180.09 364.58,-190.652 371.348,-188.866"/>
<a xlink:href="dir_000015_000003.html" target="_top" xlink:title="2">
<text text-anchor="middle" x="375.011" y="-189.117" font-family="Helvetica,sans-Serif" font-size="10.00">2</text>
</a>
</g>
<!-- dir_835987677c858f85564250229e07a331&#45;&gt;dir_0af1587c8378955de40f48b4bd1869f0 -->
<g id="edge78" class="edge"><title>dir_835987677c858f85564250229e07a331&#45;&gt;dir_0af1587c8378955de40f48b4bd1869f0</title>
<path fill="none" stroke="black" d="M399.971,-287.898C401.838,-257.828 404.215,-195.765 396.639,-144 391.572,-109.377 379.598,-70.8746 370.846,-45.6527"/>
<polygon fill="black" stroke="black" points="374.076,-44.2873 367.439,-36.0289 367.477,-46.6236 374.076,-44.2873"/>
<a xlink:href="dir_000015_000022.html" target="_top" xlink:title="3">
<text text-anchor="middle" x="377.952" y="-44.2281" font-family="Helvetica,sans-Serif" font-size="10.00">3</text>
</a>
</g>
<!-- dir_835987677c858f85564250229e07a331&#45;&gt;dir_8f68c37b22d514b4289e3a1255795d80 -->
<g id="edge80" class="edge"><title>dir_835987677c858f85564250229e07a331&#45;&gt;dir_8f68c37b22d514b4289e3a1255795d80</title>
<path fill="none" stroke="black" d="M375.171,-287.831C363.606,-278.878 349.499,-267.956 337.021,-258.295"/>
<polygon fill="black" stroke="black" points="339.149,-255.517 329.099,-252.163 334.864,-261.052 339.149,-255.517"/>
<a xlink:href="dir_000015_000020.html" target="_top" xlink:title="3">
<text text-anchor="middle" x="343.73" y="-252.972" font-family="Helvetica,sans-Serif" font-size="10.00">3</text>
</a>
</g>
<!-- dir_04cc45a024de8890cf589dc336108ee4 -->
<g id="node7" class="node"><title>dir_04cc45a024de8890cf589dc336108ee4</title>
<a xlink:href="dir_04cc45a024de8890cf589dc336108ee4.html" target="_top" xlink:title="misc">
<polygon fill="white" stroke="black" points="257.639,-324 203.639,-324 203.639,-288 257.639,-288 257.639,-324"/>
<text text-anchor="middle" x="230.639" y="-303.5" font-family="Helvetica,sans-Serif" font-size="10.00">misc</text>
</a>
</g>
<!-- dir_04cc45a024de8890cf589dc336108ee4&#45;&gt;dir_86afe70f6685ce518ba6965fc87e41ba -->
<g id="edge34" class="edge"><title>dir_04cc45a024de8890cf589dc336108ee4&#45;&gt;dir_86afe70f6685ce518ba6965fc87e41ba</title>
<path fill="none" stroke="black" d="M234.88,-287.961C240.235,-268.378 251.068,-237.086 269.639,-216 284.425,-199.212 305.734,-186.177 324.016,-177.123"/>
<polygon fill="black" stroke="black" points="325.708,-180.194 333.249,-172.752 322.713,-173.867 325.708,-180.194"/>
<a xlink:href="dir_000016_000003.html" target="_top" xlink:title="6">
<text text-anchor="middle" x="323.674" y="-181.798" font-family="Helvetica,sans-Serif" font-size="10.00">6</text>
</a>
</g>
<!-- dir_0a0aa297e888439a92fbcfd5e567f128 -->
<g id="node12" class="node"><title>dir_0a0aa297e888439a92fbcfd5e567f128</title>
<a xlink:href="dir_0a0aa297e888439a92fbcfd5e567f128.html" target="_top" xlink:title="utils">
<polygon fill="none" stroke="black" points="108.639,-252 54.6389,-252 54.6389,-216 108.639,-216 108.639,-252"/>
<text text-anchor="middle" x="81.6389" y="-231.5" font-family="Helvetica,sans-Serif" font-size="10.00">utils</text>
</a>
</g>
<!-- dir_04cc45a024de8890cf589dc336108ee4&#45;&gt;dir_0a0aa297e888439a92fbcfd5e567f128 -->
<g id="edge36" class="edge"><title>dir_04cc45a024de8890cf589dc336108ee4&#45;&gt;dir_0a0aa297e888439a92fbcfd5e567f128</title>
<path fill="none" stroke="black" d="M214.811,-287.866C208.971,-282.095 201.976,-276.141 194.639,-272 165.717,-255.674 153.924,-263.148 122.639,-252 121.22,-251.494 119.781,-250.962 118.333,-250.41"/>
<polygon fill="black" stroke="black" points="119.351,-247.047 108.767,-246.557 116.735,-253.54 119.351,-247.047"/>
<a xlink:href="dir_000016_000021.html" target="_top" xlink:title="6">
<text text-anchor="middle" x="123.746" y="-243.257" font-family="Helvetica,sans-Serif" font-size="10.00">6</text>
</a>
</g>
<!-- dir_04cc45a024de8890cf589dc336108ee4&#45;&gt;dir_0af1587c8378955de40f48b4bd1869f0 -->
<g id="edge38" class="edge"><title>dir_04cc45a024de8890cf589dc336108ee4&#45;&gt;dir_0af1587c8378955de40f48b4bd1869f0</title>
<path fill="none" stroke="black" d="M233.087,-287.808C239.357,-246.391 258.985,-143.159 306.639,-72 313.543,-61.6905 322.616,-51.702 331.349,-43.1776"/>
<polygon fill="black" stroke="black" points="333.993,-45.4959 338.874,-36.0922 329.194,-40.3998 333.993,-45.4959"/>
<a xlink:href="dir_000016_000022.html" target="_top" xlink:title="2">
<text text-anchor="middle" x="333.322" y="-47.5272" font-family="Helvetica,sans-Serif" font-size="10.00">2</text>
</a>
</g>
<!-- dir_04cc45a024de8890cf589dc336108ee4&#45;&gt;dir_8f68c37b22d514b4289e3a1255795d80 -->
<g id="edge40" class="edge"><title>dir_04cc45a024de8890cf589dc336108ee4&#45;&gt;dir_8f68c37b22d514b4289e3a1255795d80</title>
<path fill="none" stroke="black" d="M249.565,-287.831C258.625,-279.134 269.62,-268.578 279.465,-259.127"/>
<polygon fill="black" stroke="black" points="281.929,-261.613 286.719,-252.163 277.082,-256.563 281.929,-261.613"/>
<a xlink:href="dir_000016_000020.html" target="_top" xlink:title="10">
<text text-anchor="middle" x="281.302" y="-263.651" font-family="Helvetica,sans-Serif" font-size="10.00">10</text>
</a>
</g>
<!-- dir_f60af29919b24042904573a5ae25dc4a -->
<g id="node8" class="node"><title>dir_f60af29919b24042904573a5ae25dc4a</title>
<a xlink:href="dir_f60af29919b24042904573a5ae25dc4a.html" target="_top" xlink:title="omega">
<polygon fill="white" stroke="black" points="185.639,-324 131.639,-324 131.639,-288 185.639,-288 185.639,-324"/>
<text text-anchor="middle" x="158.639" y="-303.5" font-family="Helvetica,sans-Serif" font-size="10.00">omega</text>
</a>
</g>
<!-- dir_f60af29919b24042904573a5ae25dc4a&#45;&gt;dir_86afe70f6685ce518ba6965fc87e41ba -->
<g id="edge24" class="edge"><title>dir_f60af29919b24042904573a5ae25dc4a&#45;&gt;dir_86afe70f6685ce518ba6965fc87e41ba</title>
<path fill="none" stroke="black" d="M172.527,-287.843C188.308,-268.157 215.656,-236.774 244.639,-216 269.077,-198.483 300.1,-184.394 323.914,-175.005"/>
<polygon fill="black" stroke="black" points="325.23,-178.248 333.31,-171.395 322.72,-171.714 325.23,-178.248"/>
<a xlink:href="dir_000017_000003.html" target="_top" xlink:title="6">
<text text-anchor="middle" x="322.893" y="-179.688" font-family="Helvetica,sans-Serif" font-size="10.00">6</text>
</a>
</g>
<!-- dir_f60af29919b24042904573a5ae25dc4a&#45;&gt;dir_0a0aa297e888439a92fbcfd5e567f128 -->
<g id="edge26" class="edge"><title>dir_f60af29919b24042904573a5ae25dc4a&#45;&gt;dir_0a0aa297e888439a92fbcfd5e567f128</title>
<path fill="none" stroke="black" d="M139.613,-287.968C134.143,-282.801 128.163,-277.169 122.639,-272 118.19,-267.837 113.457,-263.431 108.847,-259.151"/>
<polygon fill="black" stroke="black" points="110.99,-256.364 101.277,-252.132 106.23,-261.497 110.99,-256.364"/>
<a xlink:href="dir_000017_000021.html" target="_top" xlink:title="7">
<text text-anchor="middle" x="115.556" y="-254.226" font-family="Helvetica,sans-Serif" font-size="10.00">7</text>
</a>
</g>
<!-- dir_f60af29919b24042904573a5ae25dc4a&#45;&gt;dir_0af1587c8378955de40f48b4bd1869f0 -->
<g id="edge28" class="edge"><title>dir_f60af29919b24042904573a5ae25dc4a&#45;&gt;dir_0af1587c8378955de40f48b4bd1869f0</title>
<path fill="none" stroke="black" d="M142.85,-287.795C137.013,-282.018 130.01,-276.08 122.639,-272 91.7029,-254.879 67.2708,-279.968 45.6389,-252 7.95487,-203.277 7.98953,-148.69 95.6389,-72 129.111,-42.7128 258.175,-27.1991 323.013,-21.1127"/>
<polygon fill="black" stroke="black" points="323.576,-24.576 333.217,-20.1831 322.941,-17.6049 323.576,-24.576"/>
<a xlink:href="dir_000017_000022.html" target="_top" xlink:title="3">
<text text-anchor="middle" x="320.254" y="-25.2296" font-family="Helvetica,sans-Serif" font-size="10.00">3</text>
</a>
</g>
<!-- dir_f60af29919b24042904573a5ae25dc4a&#45;&gt;dir_8f68c37b22d514b4289e3a1255795d80 -->
<g id="edge30" class="edge"><title>dir_f60af29919b24042904573a5ae25dc4a&#45;&gt;dir_8f68c37b22d514b4289e3a1255795d80</title>
<path fill="none" stroke="black" d="M174.97,-287.758C180.746,-282.115 187.574,-276.267 194.639,-272 217.47,-258.211 245.986,-248.586 268.398,-242.473"/>
<polygon fill="black" stroke="black" points="269.432,-245.82 278.224,-239.909 267.664,-239.047 269.432,-245.82"/>
<a xlink:href="dir_000017_000020.html" target="_top" xlink:title="11">
<text text-anchor="middle" x="266.67" y="-246.975" font-family="Helvetica,sans-Serif" font-size="10.00">11</text>
</a>
</g>
<!-- dir_5c11a4f25a9b21b2fb0c201db60c6fab -->
<g id="node9" class="node"><title>dir_5c11a4f25a9b21b2fb0c201db60c6fab</title>
<a xlink:href="dir_5c11a4f25a9b21b2fb0c201db60c6fab.html" target="_top" xlink:title="test">
<polygon fill="white" stroke="black" points="113.639,-324 59.6389,-324 59.6389,-288 113.639,-288 113.639,-324"/>
<text text-anchor="middle" x="86.6389" y="-303.5" font-family="Helvetica,sans-Serif" font-size="10.00">test</text>
</a>
</g>
<!-- dir_5c11a4f25a9b21b2fb0c201db60c6fab&#45;&gt;dir_86afe70f6685ce518ba6965fc87e41ba -->
<g id="edge8" class="edge"><title>dir_5c11a4f25a9b21b2fb0c201db60c6fab&#45;&gt;dir_86afe70f6685ce518ba6965fc87e41ba</title>
<path fill="none" stroke="black" d="M67.5266,-287.825C49.4191,-268.409 27.4876,-237.528 45.6389,-216 63.4382,-194.89 244.019,-173.959 323.465,-165.693"/>
<polygon fill="black" stroke="black" points="323.941,-169.162 333.531,-164.657 323.225,-162.199 323.941,-169.162"/>
<a xlink:href="dir_000018_000003.html" target="_top" xlink:title="4">
<text text-anchor="middle" x="320.656" y="-169.854" font-family="Helvetica,sans-Serif" font-size="10.00">4</text>
</a>
</g>
<!-- dir_5c11a4f25a9b21b2fb0c201db60c6fab&#45;&gt;dir_0a0aa297e888439a92fbcfd5e567f128 -->
<g id="edge10" class="edge"><title>dir_5c11a4f25a9b21b2fb0c201db60c6fab&#45;&gt;dir_0a0aa297e888439a92fbcfd5e567f128</title>
<path fill="none" stroke="black" d="M85.3772,-287.831C84.8424,-280.131 84.2066,-270.974 83.6123,-262.417"/>
<polygon fill="black" stroke="black" points="87.1021,-262.147 82.9176,-252.413 80.1189,-262.632 87.1021,-262.147"/>
<a xlink:href="dir_000018_000021.html" target="_top" xlink:title="2">
<text text-anchor="middle" x="90.1834" y="-263.036" font-family="Helvetica,sans-Serif" font-size="10.00">2</text>
</a>
</g>
<!-- dir_5c11a4f25a9b21b2fb0c201db60c6fab&#45;&gt;dir_0af1587c8378955de40f48b4bd1869f0 -->
<g id="edge12" class="edge"><title>dir_5c11a4f25a9b21b2fb0c201db60c6fab&#45;&gt;dir_0af1587c8378955de40f48b4bd1869f0</title>
<path fill="none" stroke="black" d="M59.5577,-290.601C45.9529,-281.305 30.6858,-268.131 22.6389,-252 -13.7406,-179.072 -8.43558,-119.709 57.6389,-72 99.5654,-41.7271 251.315,-26.3616 322.842,-20.6673"/>
<polygon fill="black" stroke="black" points="323.497,-24.1271 333.197,-19.8661 322.957,-17.148 323.497,-24.1271"/>
<a xlink:href="dir_000018_000022.html" target="_top" xlink:title="1">
<text text-anchor="middle" x="320.132" y="-24.7352" font-family="Helvetica,sans-Serif" font-size="10.00">1</text>
</a>
</g>
<!-- dir_5c11a4f25a9b21b2fb0c201db60c6fab&#45;&gt;dir_8f68c37b22d514b4289e3a1255795d80 -->
<g id="edge14" class="edge"><title>dir_5c11a4f25a9b21b2fb0c201db60c6fab&#45;&gt;dir_8f68c37b22d514b4289e3a1255795d80</title>
<path fill="none" stroke="black" d="M101.96,-287.94C107.856,-282.034 115.017,-275.976 122.639,-272 147.528,-259.017 222.368,-246.226 268.269,-239.297"/>
<polygon fill="black" stroke="black" points="269.054,-242.719 278.431,-237.787 268.025,-235.795 269.054,-242.719"/>
<a xlink:href="dir_000018_000020.html" target="_top" xlink:title="6">
<text text-anchor="middle" x="265.915" y="-243.555" font-family="Helvetica,sans-Serif" font-size="10.00">6</text>
</a>
</g>
<!-- dir_617eb4193b53c338b2aeda01a5aa62b1 -->
<g id="node10" class="node"><title>dir_617eb4193b53c338b2aeda01a5aa62b1</title>
<a xlink:href="dir_617eb4193b53c338b2aeda01a5aa62b1.html" target="_top" xlink:title="tpc">
<polygon fill="white" stroke="black" points="329.639,-324 275.639,-324 275.639,-288 329.639,-288 329.639,-324"/>
<text text-anchor="middle" x="302.639" y="-303.5" font-family="Helvetica,sans-Serif" font-size="10.00">tpc</text>
</a>
</g>
<!-- dir_617eb4193b53c338b2aeda01a5aa62b1&#45;&gt;dir_86afe70f6685ce518ba6965fc87e41ba -->
<g id="edge42" class="edge"><title>dir_617eb4193b53c338b2aeda01a5aa62b1&#45;&gt;dir_86afe70f6685ce518ba6965fc87e41ba</title>
<path fill="none" stroke="black" d="M318.815,-287.707C326.803,-277.77 335.928,-264.901 341.639,-252 350.339,-232.347 355.143,-208.483 357.743,-190.268"/>
<polygon fill="black" stroke="black" points="361.224,-190.636 359.031,-180.271 354.281,-189.741 361.224,-190.636"/>
<a xlink:href="dir_000019_000003.html" target="_top" xlink:title="1">
<text text-anchor="middle" x="363.581" y="-192.064" font-family="Helvetica,sans-Serif" font-size="10.00">1</text>
</a>
</g>
<!-- dir_617eb4193b53c338b2aeda01a5aa62b1&#45;&gt;dir_0af1587c8378955de40f48b4bd1869f0 -->
<g id="edge44" class="edge"><title>dir_617eb4193b53c338b2aeda01a5aa62b1&#45;&gt;dir_0af1587c8378955de40f48b4bd1869f0</title>
<path fill="none" stroke="black" d="M287.964,-287.709C280.934,-277.772 273.269,-264.903 269.639,-252 265.305,-236.598 266.455,-231.68 269.639,-216 282.896,-150.719 320.966,-81.5702 343.445,-44.7571"/>
<polygon fill="black" stroke="black" points="346.507,-46.4604 348.799,-36.1165 340.557,-42.7731 346.507,-46.4604"/>
<a xlink:href="dir_000019_000022.html" target="_top" xlink:title="1">
<text text-anchor="middle" x="347.027" y="-48.5114" font-family="Helvetica,sans-Serif" font-size="10.00">1</text>
</a>
</g>
<!-- dir_617eb4193b53c338b2aeda01a5aa62b1&#45;&gt;dir_8f68c37b22d514b4289e3a1255795d80 -->
<g id="edge46" class="edge"><title>dir_617eb4193b53c338b2aeda01a5aa62b1&#45;&gt;dir_8f68c37b22d514b4289e3a1255795d80</title>
<path fill="none" stroke="black" d="M303.396,-287.831C303.717,-280.131 304.098,-270.974 304.455,-262.417"/>
<polygon fill="black" stroke="black" points="307.952,-262.55 304.872,-252.413 300.958,-262.259 307.952,-262.55"/>
<a xlink:href="dir_000019_000020.html" target="_top" xlink:title="1">
<text text-anchor="middle" x="310.64" y="-263.76" font-family="Helvetica,sans-Serif" font-size="10.00">1</text>
</a>
</g>
<!-- dir_86afe70f6685ce518ba6965fc87e41ba&#45;&gt;dir_0af1587c8378955de40f48b4bd1869f0 -->
<g id="edge16" class="edge"><title>dir_86afe70f6685ce518ba6965fc87e41ba&#45;&gt;dir_0af1587c8378955de40f48b4bd1869f0</title>
<path fill="none" stroke="black" d="M360.639,-143.762C360.639,-119.201 360.639,-75.2474 360.639,-46.3541"/>
<polygon fill="black" stroke="black" points="364.139,-46.0896 360.639,-36.0896 357.139,-46.0897 364.139,-46.0896"/>
<a xlink:href="dir_000003_000022.html" target="_top" xlink:title="15">
<text text-anchor="middle" x="366.978" y="-47.1842" font-family="Helvetica,sans-Serif" font-size="10.00">15</text>
</a>
</g>
<!-- dir_86afe70f6685ce518ba6965fc87e41ba&#45;&gt;dir_c44c95bf3b41c3321c6014770d618ac8 -->
<g id="edge18" class="edge"><title>dir_86afe70f6685ce518ba6965fc87e41ba&#45;&gt;dir_c44c95bf3b41c3321c6014770d618ac8</title>
<path fill="none" stroke="black" d="M387.774,-155.096C438.803,-142.114 549.102,-114.052 606.788,-99.3754"/>
<polygon fill="black" stroke="black" points="607.758,-102.74 616.586,-96.8828 606.032,-95.9565 607.758,-102.74"/>
<a xlink:href="dir_000003_000038.html" target="_top" xlink:title="2">
<text text-anchor="middle" x="604.974" y="-103.878" font-family="Helvetica,sans-Serif" font-size="10.00">2</text>
</a>
</g>
<!-- dir_0a0aa297e888439a92fbcfd5e567f128&#45;&gt;dir_86afe70f6685ce518ba6965fc87e41ba -->
<g id="edge20" class="edge"><title>dir_0a0aa297e888439a92fbcfd5e567f128&#45;&gt;dir_86afe70f6685ce518ba6965fc87e41ba</title>
<path fill="none" stroke="black" d="M108.644,-227.031C158.853,-214.074 266.633,-186.26 323.599,-171.559"/>
<polygon fill="black" stroke="black" points="324.811,-174.861 333.619,-168.973 323.061,-168.083 324.811,-174.861"/>
<a xlink:href="dir_000021_000003.html" target="_top" xlink:title="4">
<text text-anchor="middle" x="322.04" y="-176.008" font-family="Helvetica,sans-Serif" font-size="10.00">4</text>
</a>
</g>
<!-- dir_0a0aa297e888439a92fbcfd5e567f128&#45;&gt;dir_0af1587c8378955de40f48b4bd1869f0 -->
<g id="edge22" class="edge"><title>dir_0a0aa297e888439a92fbcfd5e567f128&#45;&gt;dir_0af1587c8378955de40f48b4bd1869f0</title>
<path fill="none" stroke="black" d="M80.5691,-215.981C79.6402,-182.573 82.7665,-110.897 122.639,-72 150.82,-44.5079 263.51,-28.4735 323.16,-21.7497"/>
<polygon fill="black" stroke="black" points="323.742,-25.2071 333.301,-20.6389 322.98,-18.2487 323.742,-25.2071"/>
<a xlink:href="dir_000021_000022.html" target="_top" xlink:title="5">
<text text-anchor="middle" x="320.478" y="-25.9208" font-family="Helvetica,sans-Serif" font-size="10.00">5</text>
</a>
</g>
<!-- dir_c44c95bf3b41c3321c6014770d618ac8&#45;&gt;dir_0af1587c8378955de40f48b4bd1869f0 -->
<g id="edge32" class="edge"><title>dir_c44c95bf3b41c3321c6014770d618ac8&#45;&gt;dir_0af1587c8378955de40f48b4bd1869f0</title>
<path fill="none" stroke="black" d="M616.58,-77.2413C611.986,-75.3302 607.219,-73.5007 602.639,-72 531.752,-48.7748 445.95,-32.2496 397.904,-23.9954"/>
<polygon fill="black" stroke="black" points="398.402,-20.5301 387.959,-22.3127 397.235,-27.432 398.402,-20.5301"/>
<a xlink:href="dir_000038_000022.html" target="_top" xlink:title="15">
<text text-anchor="middle" x="402.42" y="-15.8302" font-family="Helvetica,sans-Serif" font-size="10.00">15</text>
</a>
</g>
<!-- dir_c4f4646ab0f4a2967be5b6215a500c22&#45;&gt;dir_0af1587c8378955de40f48b4bd1869f0 -->
<g id="edge48" class="edge"><title>dir_c4f4646ab0f4a2967be5b6215a500c22&#45;&gt;dir_0af1587c8378955de40f48b4bd1869f0</title>
<path fill="none" stroke="black" d="M603.83,-143.987C598.558,-123.521 587.04,-90.5615 564.639,-72 539.368,-51.0611 449.556,-32.9823 397.915,-24.0156"/>
<polygon fill="black" stroke="black" points="398.265,-20.5248 387.819,-22.2941 397.089,-27.4252 398.265,-20.5248"/>
<a xlink:href="dir_000030_000022.html" target="_top" xlink:title="16">
<text text-anchor="middle" x="402.286" y="-15.8301" font-family="Helvetica,sans-Serif" font-size="10.00">16</text>
</a>
</g>
<!-- dir_c4f4646ab0f4a2967be5b6215a500c22&#45;&gt;dir_c44c95bf3b41c3321c6014770d618ac8 -->
<g id="edge50" class="edge"><title>dir_c4f4646ab0f4a2967be5b6215a500c22&#45;&gt;dir_c44c95bf3b41c3321c6014770d618ac8</title>
<path fill="none" stroke="black" d="M616.723,-143.831C620.7,-135.877 625.454,-126.369 629.853,-117.572"/>
<polygon fill="black" stroke="black" points="633.091,-118.923 634.432,-108.413 626.83,-115.792 633.091,-118.923"/>
<a xlink:href="dir_000030_000038.html" target="_top" xlink:title="7">
<text text-anchor="middle" x="634.023" y="-120.908" font-family="Helvetica,sans-Serif" font-size="10.00">7</text>
</a>
</g>
<!-- dir_8f68c37b22d514b4289e3a1255795d80&#45;&gt;dir_86afe70f6685ce518ba6965fc87e41ba -->
<g id="edge52" class="edge"><title>dir_8f68c37b22d514b4289e3a1255795d80&#45;&gt;dir_86afe70f6685ce518ba6965fc87e41ba</title>
<path fill="none" stroke="black" d="M319.518,-215.831C325.852,-207.539 333.477,-197.557 340.431,-188.453"/>
<polygon fill="black" stroke="black" points="343.284,-190.485 346.573,-180.413 337.721,-186.235 343.284,-190.485"/>
<a xlink:href="dir_000020_000003.html" target="_top" xlink:title="2">
<text text-anchor="middle" x="343.358" y="-192.565" font-family="Helvetica,sans-Serif" font-size="10.00">2</text>
</a>
</g>
<!-- dir_8f68c37b22d514b4289e3a1255795d80&#45;&gt;dir_0af1587c8378955de40f48b4bd1869f0 -->
<g id="edge54" class="edge"><title>dir_8f68c37b22d514b4289e3a1255795d80&#45;&gt;dir_0af1587c8378955de40f48b4bd1869f0</title>
<path fill="none" stroke="black" d="M309.055,-215.986C312.603,-197.756 318.487,-168.799 324.639,-144 333.065,-110.038 344.361,-71.4021 352.037,-45.9686"/>
<polygon fill="black" stroke="black" points="355.43,-46.8402 354.987,-36.2546 348.732,-44.8063 355.43,-46.8402"/>
<a xlink:href="dir_000020_000022.html" target="_top" xlink:title="2">
<text text-anchor="middle" x="357.103" y="-48.6047" font-family="Helvetica,sans-Serif" font-size="10.00">2</text>
</a>
</g>
<!-- dir_4d4314fec0337faafb4fd99dc7917bfa&#45;&gt;dir_86afe70f6685ce518ba6965fc87e41ba -->
<g id="edge70" class="edge"><title>dir_4d4314fec0337faafb4fd99dc7917bfa&#45;&gt;dir_86afe70f6685ce518ba6965fc87e41ba</title>
<path fill="none" stroke="black" d="M654.547,-227.923C597.157,-215.051 463.255,-185.017 397.88,-170.353"/>
<polygon fill="black" stroke="black" points="398.522,-166.91 387.999,-168.137 396.99,-173.741 398.522,-166.91"/>
<a xlink:href="dir_000004_000003.html" target="_top" xlink:title="5">
<text text-anchor="middle" x="402.651" y="-162.426" font-family="Helvetica,sans-Serif" font-size="10.00">5</text>
</a>
</g>
<!-- dir_4d4314fec0337faafb4fd99dc7917bfa&#45;&gt;dir_0af1587c8378955de40f48b4bd1869f0 -->
<g id="edge72" class="edge"><title>dir_4d4314fec0337faafb4fd99dc7917bfa&#45;&gt;dir_0af1587c8378955de40f48b4bd1869f0</title>
<path fill="none" stroke="black" d="M688.072,-215.867C698.488,-182.908 714.565,-112.821 679.639,-72 661.444,-50.7344 478.235,-29.851 397.973,-21.6438"/>
<polygon fill="black" stroke="black" points="398.111,-18.1399 387.809,-20.6161 397.407,-25.1044 398.111,-18.1399"/>
<a xlink:href="dir_000004_000022.html" target="_top" xlink:title="7">
<text text-anchor="middle" x="401.973" y="-13.1766" font-family="Helvetica,sans-Serif" font-size="10.00">7</text>
</a>
</g>
<!-- dir_4d4314fec0337faafb4fd99dc7917bfa&#45;&gt;dir_c44c95bf3b41c3321c6014770d618ac8 -->
<g id="edge74" class="edge"><title>dir_4d4314fec0337faafb4fd99dc7917bfa&#45;&gt;dir_c44c95bf3b41c3321c6014770d618ac8</title>
<path fill="none" stroke="black" d="M676.826,-215.762C670.316,-191.093 658.644,-146.86 651.021,-117.973"/>
<polygon fill="black" stroke="black" points="654.348,-116.866 648.413,-108.09 647.58,-118.652 654.348,-116.866"/>
<a xlink:href="dir_000004_000038.html" target="_top" xlink:title="13">
<text text-anchor="middle" x="658.011" y="-117.117" font-family="Helvetica,sans-Serif" font-size="10.00">13</text>
</a>
</g>
</g>
</svg>
