<?xml version="1.0" encoding="UTF-8" standalone="no"?>
<!DOCTYPE svg PUBLIC "-//W3C//DTD SVG 1.1//EN"
 "http://www.w3.org/Graphics/SVG/1.1/DTD/svg11.dtd">
<!-- Generated by graphviz version 2.26.3 (20100126.1600)
 -->
<!-- Title: src Pages: 1 -->
<svg width="264pt" height="508pt"
 viewBox="0.00 0.00 264.00 508.00" xmlns="http://www.w3.org/2000/svg" xmlns:xlink="http://www.w3.org/1999/xlink">
<g id="graph1" class="graph" transform="scale(1 1) rotate(0) translate(4 504)">
<title>src</title>
<polygon fill="white" stroke="white" points="-4,5 -4,-504 261,-504 261,5 -4,5"/>
<g id="graph2" class="cluster"><title>clusterdir_68267d1309a1af8e8297ef4c3efbcdba</title>
<a xlink:href="dir_68267d1309a1af8e8297ef4c3efbcdba.html" target="_top">
<polygon fill="#eeeeff" stroke="black" points="8,-8 8,-492 248,-492 248,-8 8,-8"/>
</a>
</g>
<!-- dir_68267d1309a1af8e8297ef4c3efbcdba -->
<g id="node2" class="node"><title>dir_68267d1309a1af8e8297ef4c3efbcdba</title>
<text text-anchor="middle" x="208" y="-463.5" font-family="Helvetica,sans-Serif" font-size="10.00">src</text>
</g>
<!-- dir_2eec376824a17f48dc36b4bd0c810e01 -->
<g id="node3" class="node"><title>dir_2eec376824a17f48dc36b4bd0c810e01</title>
<a xlink:href="dir_2eec376824a17f48dc36b4bd0c810e01.html" target="_top" xlink:title="analysis">
<polygon fill="white" stroke="red" points="162,-484 108,-484 108,-448 162,-448 162,-484"/>
<text text-anchor="middle" x="135" y="-463.5" font-family="Helvetica,sans-Serif" font-size="10.00">analysis</text>
</a>
</g>
<!-- dir_0af1587c8378955de40f48b4bd1869f0 -->
<g id="node4" class="node"><title>dir_0af1587c8378955de40f48b4bd1869f0</title>
<a xlink:href="dir_0af1587c8378955de40f48b4bd1869f0.html" target="_top" xlink:title="base">
<polygon fill="white" stroke="red" points="126,-52 72,-52 72,-16 126,-16 126,-52"/>
<text text-anchor="middle" x="99" y="-31.5" font-family="Helvetica,sans-Serif" font-size="10.00">base</text>
</a>
</g>
<!-- dir_2eec376824a17f48dc36b4bd0c810e01&#45;&gt;dir_0af1587c8378955de40f48b4bd1869f0 -->
<g id="edge39" class="edge"><title>dir_2eec376824a17f48dc36b4bd0c810e01&#45;&gt;dir_0af1587c8378955de40f48b4bd1869f0</title>
<path fill="none" stroke="black" d="M107.928,-449.468C73.0908,-425.882 17,-379.047 17,-322 17,-322 17,-322 17,-178 17,-131.653 49.4722,-86.6131 73.548,-59.5884"/>
<polygon fill="black" stroke="black" points="76.2112,-61.8627 80.3929,-52.1281 71.0533,-57.1303 76.2112,-61.8627"/>
<a xlink:href="dir_000002_000022.html" target="_top" xlink:title="44">
<text text-anchor="middle" x="75.8731" y="-63.9309" font-family="Helvetica,sans-Serif" font-size="10.00">44</text>
</a>
</g>
<!-- dir_c4f4646ab0f4a2967be5b6215a500c22 -->
<g id="node6" class="node"><title>dir_c4f4646ab0f4a2967be5b6215a500c22</title>
<a xlink:href="dir_c4f4646ab0f4a2967be5b6215a500c22.html" target="_top" xlink:title="expconfig">
<polygon fill="white" stroke="red" points="168,-412 110,-412 110,-376 168,-376 168,-412"/>
<text text-anchor="middle" x="139" y="-391.5" font-family="Helvetica,sans-Serif" font-size="10.00">expconfig</text>
</a>
</g>
<!-- dir_2eec376824a17f48dc36b4bd0c810e01&#45;&gt;dir_c4f4646ab0f4a2967be5b6215a500c22 -->
<g id="edge45" class="edge"><title>dir_2eec376824a17f48dc36b4bd0c810e01&#45;&gt;dir_c4f4646ab0f4a2967be5b6215a500c22</title>
<path fill="none" stroke="black" d="M136.009,-447.831C136.437,-440.131 136.946,-430.974 137.421,-422.417"/>
<polygon fill="black" stroke="black" points="140.917,-422.592 137.977,-412.413 133.928,-422.204 140.917,-422.592"/>
<a xlink:href="dir_000002_000030.html" target="_top" xlink:title="1">
<text text-anchor="middle" x="143.552" y="-423.839" font-family="Helvetica,sans-Serif" font-size="10.00">1</text>
</a>
</g>
<!-- dir_5eb03804bf445589bf35c6aa84fb9a34 -->
<g id="node7" class="node"><title>dir_5eb03804bf445589bf35c6aa84fb9a34</title>
<a xlink:href="dir_5eb03804bf445589bf35c6aa84fb9a34.html" target="_top" xlink:title="reconstruct">
<polygon fill="white" stroke="red" points="140,-268 76,-268 76,-232 140,-232 140,-268"/>
<text text-anchor="middle" x="108" y="-247.5" font-family="Helvetica,sans-Serif" font-size="10.00">reconstruct</text>
</a>
</g>
<!-- dir_2eec376824a17f48dc36b4bd0c810e01&#45;&gt;dir_5eb03804bf445589bf35c6aa84fb9a34 -->
<g id="edge47" class="edge"><title>dir_2eec376824a17f48dc36b4bd0c810e01&#45;&gt;dir_5eb03804bf445589bf35c6aa84fb9a34</title>
<path fill="none" stroke="black" d="M117.021,-447.965C95.8136,-425.158 62.0445,-383.579 51,-340 47.0693,-324.49 44.6779,-318.698 51,-304 55.7491,-292.959 63.9885,-283.118 72.7506,-274.959"/>
<polygon fill="black" stroke="black" points="75.245,-277.429 80.5106,-268.235 70.661,-272.139 75.245,-277.429"/>
<a xlink:href="dir_000002_000034.html" target="_top" xlink:title="1">
<text text-anchor="middle" x="74.3877" y="-279.429" font-family="Helvetica,sans-Serif" font-size="10.00">1</text>
</a>
</g>
<!-- dir_c44c95bf3b41c3321c6014770d618ac8 -->
<g id="node9" class="node"><title>dir_c44c95bf3b41c3321c6014770d618ac8</title>
<a xlink:href="dir_c44c95bf3b41c3321c6014770d618ac8.html" target="_top" xlink:title="tree">
<polygon fill="white" stroke="black" points="160,-196 106,-196 106,-160 160,-160 160,-196"/>
<text text-anchor="middle" x="133" y="-175.5" font-family="Helvetica,sans-Serif" font-size="10.00">tree</text>
</a>
</g>
<!-- dir_2eec376824a17f48dc36b4bd0c810e01&#45;&gt;dir_c44c95bf3b41c3321c6014770d618ac8 -->
<g id="edge41" class="edge"><title>dir_2eec376824a17f48dc36b4bd0c810e01&#45;&gt;dir_c44c95bf3b41c3321c6014770d618ac8</title>
<path fill="none" stroke="black" d="M154.05,-447.886C162.857,-438.189 172.375,-425.481 177,-412 201.819,-339.663 167.785,-249.667 147,-205.316"/>
<polygon fill="black" stroke="black" points="150.037,-203.554 142.543,-196.064 143.73,-206.592 150.037,-203.554"/>
<a xlink:href="dir_000002_000038.html" target="_top" xlink:title="18">
<text text-anchor="middle" x="154.155" y="-203.06" font-family="Helvetica,sans-Serif" font-size="10.00">18</text>
</a>
</g>
<!-- dir_da9e88029a658bab9ad39bb8696ef9bc -->
<g id="node10" class="node"><title>dir_da9e88029a658bab9ad39bb8696ef9bc</title>
<a xlink:href="dir_da9e88029a658bab9ad39bb8696ef9bc.html" target="_top" xlink:title="unpacker">
<polygon fill="white" stroke="red" points="196,-124 140,-124 140,-88 196,-88 196,-124"/>
<text text-anchor="middle" x="168" y="-103.5" font-family="Helvetica,sans-Serif" font-size="10.00">unpacker</text>
</a>
</g>
<!-- dir_2eec376824a17f48dc36b4bd0c810e01&#45;&gt;dir_da9e88029a658bab9ad39bb8696ef9bc -->
<g id="edge43" class="edge"><title>dir_2eec376824a17f48dc36b4bd0c810e01&#45;&gt;dir_da9e88029a658bab9ad39bb8696ef9bc</title>
<path fill="none" stroke="black" d="M159.911,-447.871C190.678,-423.171 239,-375.813 239,-322 239,-322 239,-322 239,-250 239,-205.036 210.809,-159.562 189.954,-132.073"/>
<polygon fill="black" stroke="black" points="192.672,-129.866 183.757,-124.14 187.155,-134.175 192.672,-129.866"/>
<a xlink:href="dir_000002_000039.html" target="_top" xlink:title="1">
<text text-anchor="middle" x="197.122" y="-128.451" font-family="Helvetica,sans-Serif" font-size="10.00">1</text>
</a>
</g>
<!-- dir_f1b881a94df93d2a183c4d8f47373448 -->
<g id="node5" class="node"><title>dir_f1b881a94df93d2a183c4d8f47373448</title>
<a xlink:href="dir_f1b881a94df93d2a183c4d8f47373448.html" target="_top" xlink:title="calibration">
<polygon fill="white" stroke="red" points="120,-340 60,-340 60,-304 120,-304 120,-340"/>
<text text-anchor="middle" x="90" y="-319.5" font-family="Helvetica,sans-Serif" font-size="10.00">calibration</text>
</a>
</g>
<!-- dir_f1b881a94df93d2a183c4d8f47373448&#45;&gt;dir_2eec376824a17f48dc36b4bd0c810e01 -->
<g id="edge15" class="edge"><title>dir_f1b881a94df93d2a183c4d8f47373448&#45;&gt;dir_2eec376824a17f48dc36b4bd0c810e01</title>
<path fill="none" stroke="black" d="M89.911,-340.119C90.3451,-358.681 92.506,-388.122 101,-412 104.327,-421.352 109.489,-430.772 114.795,-439.067"/>
<polygon fill="black" stroke="black" points="112.036,-441.235 120.529,-447.57 117.84,-437.322 112.036,-441.235"/>
<a xlink:href="dir_000025_000002.html" target="_top" xlink:title="20">
<text text-anchor="middle" x="107.672" y="-437.343" font-family="Helvetica,sans-Serif" font-size="10.00">20</text>
</a>
</g>
<!-- dir_f1b881a94df93d2a183c4d8f47373448&#45;&gt;dir_0af1587c8378955de40f48b4bd1869f0 -->
<g id="edge7" class="edge"><title>dir_f1b881a94df93d2a183c4d8f47373448&#45;&gt;dir_0af1587c8378955de40f48b4bd1869f0</title>
<path fill="none" stroke="black" d="M76.2037,-303.577C69.5974,-293.604 62.3977,-280.743 59,-268 39.4463,-194.664 68.7237,-105.748 86.6968,-61.6175"/>
<polygon fill="black" stroke="black" points="90.0278,-62.7243 90.6626,-52.1485 83.5712,-60.0201 90.0278,-62.7243"/>
<a xlink:href="dir_000025_000022.html" target="_top" xlink:title="49">
<text text-anchor="middle" x="91.2581" y="-64.6367" font-family="Helvetica,sans-Serif" font-size="10.00">49</text>
</a>
</g>
<!-- dir_f1b881a94df93d2a183c4d8f47373448&#45;&gt;dir_c4f4646ab0f4a2967be5b6215a500c22 -->
<g id="edge11" class="edge"><title>dir_f1b881a94df93d2a183c4d8f47373448&#45;&gt;dir_c4f4646ab0f4a2967be5b6215a500c22</title>
<path fill="none" stroke="black" d="M108.507,-340.413C114.838,-348.569 121.665,-358.321 127.348,-367.257"/>
<polygon fill="black" stroke="black" points="124.386,-369.124 132.588,-375.831 130.359,-365.473 124.386,-369.124"/>
<a xlink:href="dir_000025_000030.html" target="_top" xlink:title="5">
<text text-anchor="middle" x="120.089" y="-365.037" font-family="Helvetica,sans-Serif" font-size="10.00">5</text>
</a>
</g>
<!-- dir_f1b881a94df93d2a183c4d8f47373448&#45;&gt;dir_5eb03804bf445589bf35c6aa84fb9a34 -->
<g id="edge13" class="edge"><title>dir_f1b881a94df93d2a183c4d8f47373448&#45;&gt;dir_5eb03804bf445589bf35c6aa84fb9a34</title>
<path fill="none" stroke="black" d="M94.5422,-303.831C96.4884,-296.046 98.8068,-286.773 100.966,-278.135"/>
<polygon fill="black" stroke="black" points="104.367,-278.964 103.397,-268.413 97.5758,-277.266 104.367,-278.964"/>
<a xlink:href="dir_000025_000034.html" target="_top" xlink:title="4">
<text text-anchor="middle" x="106.25" y="-280.639" font-family="Helvetica,sans-Serif" font-size="10.00">4</text>
</a>
</g>
<!-- dir_f1b881a94df93d2a183c4d8f47373448&#45;&gt;dir_c44c95bf3b41c3321c6014770d618ac8 -->
<g id="edge9" class="edge"><title>dir_f1b881a94df93d2a183c4d8f47373448&#45;&gt;dir_c44c95bf3b41c3321c6014770d618ac8</title>
<path fill="none" stroke="black" d="M78.2552,-303.71C67.8447,-285.011 55.8811,-255.464 67,-232 73.4791,-218.328 85.3031,-206.966 97.1721,-198.249"/>
<polygon fill="black" stroke="black" points="99.4758,-200.913 105.747,-192.373 95.5191,-195.138 99.4758,-200.913"/>
<a xlink:href="dir_000025_000038.html" target="_top" xlink:title="23">
<text text-anchor="middle" x="98.1153" y="-202.787" font-family="Helvetica,sans-Serif" font-size="10.00">23</text>
</a>
</g>
<!-- dir_c4f4646ab0f4a2967be5b6215a500c22&#45;&gt;dir_0af1587c8378955de40f48b4bd1869f0 -->
<g id="edge23" class="edge"><title>dir_c4f4646ab0f4a2967be5b6215a500c22&#45;&gt;dir_0af1587c8378955de40f48b4bd1869f0</title>
<path fill="none" stroke="black" d="M157.153,-375.786C180.757,-350.08 219,-300.62 219,-250 219,-250 219,-250 219,-178 219,-137.519 228.75,-120.782 205,-88 188.46,-65.1703 159.422,-51.3338 135.916,-43.3908"/>
<polygon fill="black" stroke="black" points="136.823,-40.007 126.234,-40.3384 134.719,-46.6831 136.823,-40.007"/>
<a xlink:href="dir_000030_000022.html" target="_top" xlink:title="16">
<text text-anchor="middle" x="141.105" y="-35.8798" font-family="Helvetica,sans-Serif" font-size="10.00">16</text>
</a>
</g>
<!-- dir_c4f4646ab0f4a2967be5b6215a500c22&#45;&gt;dir_f1b881a94df93d2a183c4d8f47373448 -->
<g id="edge27" class="edge"><title>dir_c4f4646ab0f4a2967be5b6215a500c22&#45;&gt;dir_f1b881a94df93d2a183c4d8f47373448</title>
<path fill="none" stroke="black" d="M120.683,-375.831C114.363,-367.708 107.529,-357.964 101.824,-349.012"/>
<polygon fill="black" stroke="black" points="104.764,-347.111 96.5552,-340.413 98.7953,-350.769 104.764,-347.111"/>
<a xlink:href="dir_000030_000025.html" target="_top" xlink:title="18">
<text text-anchor="middle" x="109.063" y="-346.193" font-family="Helvetica,sans-Serif" font-size="10.00">18</text>
</a>
</g>
<!-- dir_c4f4646ab0f4a2967be5b6215a500c22&#45;&gt;dir_5eb03804bf445589bf35c6aa84fb9a34 -->
<g id="edge31" class="edge"><title>dir_c4f4646ab0f4a2967be5b6215a500c22&#45;&gt;dir_5eb03804bf445589bf35c6aa84fb9a34</title>
<path fill="none" stroke="black" d="M131.564,-375.829C128.405,-357.477 125.998,-328.428 120,-304 117.851,-295.249 114.635,-286.011 111.747,-277.697"/>
<polygon fill="black" stroke="black" points="115.019,-276.448 108.481,-268.111 108.393,-278.705 115.019,-276.448"/>
<a xlink:href="dir_000030_000034.html" target="_top" xlink:title="1">
<text text-anchor="middle" x="118.866" y="-276.435" font-family="Helvetica,sans-Serif" font-size="10.00">1</text>
</a>
</g>
<!-- dir_c4f4646ab0f4a2967be5b6215a500c22&#45;&gt;dir_c44c95bf3b41c3321c6014770d618ac8 -->
<g id="edge25" class="edge"><title>dir_c4f4646ab0f4a2967be5b6215a500c22&#45;&gt;dir_c44c95bf3b41c3321c6014770d618ac8</title>
<path fill="none" stroke="black" d="M142.522,-375.921C147.835,-345.885 156.523,-283.869 149,-232 147.743,-223.332 145.406,-214.118 142.9,-205.802"/>
<polygon fill="black" stroke="black" points="146.207,-204.653 139.819,-196.2 139.542,-206.792 146.207,-204.653"/>
<a xlink:href="dir_000030_000038.html" target="_top" xlink:title="7">
<text text-anchor="middle" x="150.009" y="-204.708" font-family="Helvetica,sans-Serif" font-size="10.00">7</text>
</a>
</g>
<!-- dir_c4f4646ab0f4a2967be5b6215a500c22&#45;&gt;dir_da9e88029a658bab9ad39bb8696ef9bc -->
<g id="edge29" class="edge"><title>dir_c4f4646ab0f4a2967be5b6215a500c22&#45;&gt;dir_da9e88029a658bab9ad39bb8696ef9bc</title>
<path fill="none" stroke="black" d="M137.437,-375.722C139.73,-365.363 143.643,-352.093 146,-340 161.35,-261.24 160.743,-240.238 160,-160 159.924,-151.786 159.783,-142.869 159.991,-134.693"/>
<polygon fill="black" stroke="black" points="163.497,-134.655 160.5,-124.493 156.506,-134.306 163.497,-134.655"/>
<a xlink:href="dir_000030_000039.html" target="_top" xlink:title="10">
<text text-anchor="middle" x="166.154" y="-135.887" font-family="Helvetica,sans-Serif" font-size="10.00">10</text>
</a>
</g>
<!-- dir_5eb03804bf445589bf35c6aa84fb9a34&#45;&gt;dir_0af1587c8378955de40f48b4bd1869f0 -->
<g id="edge33" class="edge"><title>dir_5eb03804bf445589bf35c6aa84fb9a34&#45;&gt;dir_0af1587c8378955de40f48b4bd1869f0</title>
<path fill="none" stroke="black" d="M103.307,-231.646C100.893,-221.263 98.2092,-207.994 97,-196 92.2852,-149.234 94.578,-94.4931 96.7387,-62.1164"/>
<polygon fill="black" stroke="black" points="100.237,-62.261 97.4561,-52.0377 93.2548,-61.7639 100.237,-62.261"/>
<a xlink:href="dir_000034_000022.html" target="_top" xlink:title="10">
<text text-anchor="middle" x="102.814" y="-63.5481" font-family="Helvetica,sans-Serif" font-size="10.00">10</text>
</a>
</g>
<!-- dir_5eb03804bf445589bf35c6aa84fb9a34&#45;&gt;dir_c4f4646ab0f4a2967be5b6215a500c22 -->
<g id="edge37" class="edge"><title>dir_5eb03804bf445589bf35c6aa84fb9a34&#45;&gt;dir_c4f4646ab0f4a2967be5b6215a500c22</title>
<path fill="none" stroke="black" d="M124.335,-268.111C129.843,-278.418 134.978,-291.691 138,-304 142.991,-324.325 145.495,-347.849 145.484,-365.749"/>
<polygon fill="black" stroke="black" points="141.983,-365.725 145.169,-375.829 148.979,-365.943 141.983,-365.725"/>
<a xlink:href="dir_000034_000030.html" target="_top" xlink:title="6">
<text text-anchor="middle" x="139.257" y="-359.543" font-family="Helvetica,sans-Serif" font-size="10.00">6</text>
</a>
</g>
<!-- dir_5eb03804bf445589bf35c6aa84fb9a34&#45;&gt;dir_c44c95bf3b41c3321c6014770d618ac8 -->
<g id="edge35" class="edge"><title>dir_5eb03804bf445589bf35c6aa84fb9a34&#45;&gt;dir_c44c95bf3b41c3321c6014770d618ac8</title>
<path fill="none" stroke="black" d="M114.309,-231.831C117.012,-224.046 120.232,-214.773 123.231,-206.135"/>
<polygon fill="black" stroke="black" points="126.633,-207.008 126.607,-196.413 120.02,-204.712 126.633,-207.008"/>
<a xlink:href="dir_000034_000038.html" target="_top" xlink:title="11">
<text text-anchor="middle" x="128.136" y="-208.835" font-family="Helvetica,sans-Serif" font-size="10.00">11</text>
</a>
</g>
<!-- dir_d73d1ee04cc237a5854777ea99c55872 -->
<g id="node8" class="node"><title>dir_d73d1ee04cc237a5854777ea99c55872</title>
<a xlink:href="dir_d73d1ee04cc237a5854777ea99c55872.html" target="_top" xlink:title="simulation">
<polygon fill="white" stroke="red" points="81,-484 21,-484 21,-448 81,-448 81,-484"/>
<text text-anchor="middle" x="51" y="-463.5" font-family="Helvetica,sans-Serif" font-size="10.00">simulation</text>
</a>
</g>
<!-- dir_c44c95bf3b41c3321c6014770d618ac8&#45;&gt;dir_0af1587c8378955de40f48b4bd1869f0 -->
<g id="edge3" class="edge"><title>dir_c44c95bf3b41c3321c6014770d618ac8&#45;&gt;dir_0af1587c8378955de40f48b4bd1869f0</title>
<path fill="none" stroke="black" d="M128.694,-159.762C122.869,-135.093 112.425,-90.8598 105.605,-61.9731"/>
<polygon fill="black" stroke="black" points="108.976,-61.0177 103.271,-52.0896 102.163,-62.6263 108.976,-61.0177"/>
<a xlink:href="dir_000038_000022.html" target="_top" xlink:title="15">
<text text-anchor="middle" x="112.565" y="-61.3637" font-family="Helvetica,sans-Serif" font-size="10.00">15</text>
</a>
</g>
<!-- dir_c44c95bf3b41c3321c6014770d618ac8&#45;&gt;dir_da9e88029a658bab9ad39bb8696ef9bc -->
<g id="edge5" class="edge"><title>dir_c44c95bf3b41c3321c6014770d618ac8&#45;&gt;dir_da9e88029a658bab9ad39bb8696ef9bc</title>
<path fill="none" stroke="black" d="M135.88,-159.831C139.004,-151.792 143.477,-142.167 148.162,-133.292"/>
<polygon fill="black" stroke="black" points="151.295,-134.858 153.073,-124.413 145.17,-131.47 151.295,-134.858"/>
<a xlink:href="dir_000038_000039.html" target="_top" xlink:title="2">
<text text-anchor="middle" x="152.04" y="-136.878" font-family="Helvetica,sans-Serif" font-size="10.00">2</text>
</a>
</g>
<!-- dir_da9e88029a658bab9ad39bb8696ef9bc&#45;&gt;dir_0af1587c8378955de40f48b4bd1869f0 -->
<g id="edge17" class="edge"><title>dir_da9e88029a658bab9ad39bb8696ef9bc&#45;&gt;dir_0af1587c8378955de40f48b4bd1869f0</title>
<path fill="none" stroke="black" d="M150.588,-87.8314C142.479,-79.3694 132.684,-69.1489 123.818,-59.8971"/>
<polygon fill="black" stroke="black" points="126.092,-57.2115 116.646,-52.4133 121.038,-62.0549 126.092,-57.2115"/>
<a xlink:href="dir_000039_000022.html" target="_top" xlink:title="12">
<text text-anchor="middle" x="130.629" y="-55.3422" font-family="Helvetica,sans-Serif" font-size="10.00">12</text>
</a>
</g>
<!-- dir_da9e88029a658bab9ad39bb8696ef9bc&#45;&gt;dir_c4f4646ab0f4a2967be5b6215a500c22 -->
<g id="edge21" class="edge"><title>dir_da9e88029a658bab9ad39bb8696ef9bc&#45;&gt;dir_c4f4646ab0f4a2967be5b6215a500c22</title>
<path fill="none" stroke="black" d="M176.354,-124.493C177.647,-134.92 177.891,-148.186 178,-160 178.743,-240.238 179.35,-261.24 164,-340 162.306,-348.692 159.808,-357.992 156.889,-366.382"/>
<polygon fill="black" stroke="black" points="153.619,-365.133 153.291,-375.722 160.152,-367.649 153.619,-365.133"/>
<a xlink:href="dir_000039_000030.html" target="_top" xlink:title="4">
<text text-anchor="middle" x="152.262" y="-358.258" font-family="Helvetica,sans-Serif" font-size="10.00">4</text>
</a>
</g>
<!-- dir_da9e88029a658bab9ad39bb8696ef9bc&#45;&gt;dir_c44c95bf3b41c3321c6014770d618ac8 -->
<g id="edge19" class="edge"><title>dir_da9e88029a658bab9ad39bb8696ef9bc&#45;&gt;dir_c44c95bf3b41c3321c6014770d618ac8</title>
<path fill="none" stroke="black" d="M165.025,-124.413C161.874,-132.484 157.385,-142.118 152.696,-150.978"/>
<polygon fill="black" stroke="black" points="149.575,-149.389 147.784,-159.831 155.696,-152.785 149.575,-149.389"/>
<a xlink:href="dir_000039_000038.html" target="_top" xlink:title="11">
<text text-anchor="middle" x="148.835" y="-142.368" font-family="Helvetica,sans-Serif" font-size="10.00">11</text>
</a>
</g>
</g>
</svg>
