<?xml version="1.0" encoding="UTF-8" standalone="no"?>
<!DOCTYPE svg PUBLIC "-//W3C//DTD SVG 1.1//EN"
 "http://www.w3.org/Graphics/SVG/1.1/DTD/svg11.dtd">
<!-- Generated by graphviz version 2.26.3 (20100126.1600)
 -->
<!-- Title: src/calibration/modules Pages: 1 -->
<svg width="438pt" height="513pt"
 viewBox="0.00 0.00 438.00 513.00" xmlns="http://www.w3.org/2000/svg" xmlns:xlink="http://www.w3.org/1999/xlink">
<g id="graph1" class="graph" transform="scale(1 1) rotate(0) translate(4 509)">
<title>src/calibration/modules</title>
<polygon fill="white" stroke="white" points="-4,5 -4,-509 435,-509 435,5 -4,5"/>
<g id="graph2" class="cluster"><title>clusterdir_f1b881a94df93d2a183c4d8f47373448</title>
<a xlink:href="dir_f1b881a94df93d2a183c4d8f47373448.html" target="_top" xlink:title="calibration">
<polygon fill="#ddddee" stroke="black" points="144,-424 144,-497 214,-497 214,-424 144,-424"/>
<text text-anchor="middle" x="179" y="-484" font-family="Helvetica,sans-Serif" font-size="10.00">calibration</text>
</a>
</g>
<!-- dir_a6416823a81055497e03f4e1c81c0ea0 -->
<g id="node2" class="node"><title>dir_a6416823a81055497e03f4e1c81c0ea0</title>
<a xlink:href="dir_a6416823a81055497e03f4e1c81c0ea0.html" target="_top" xlink:title="modules">
<polygon fill="#eeeeff" stroke="black" points="206,-468 152,-468 152,-432 206,-432 206,-468"/>
<text text-anchor="middle" x="179" y="-447.5" font-family="Helvetica,sans-Serif" font-size="10.00">modules</text>
</a>
</g>
<!-- dir_0af1587c8378955de40f48b4bd1869f0 -->
<g id="node3" class="node"><title>dir_0af1587c8378955de40f48b4bd1869f0</title>
<a xlink:href="dir_0af1587c8378955de40f48b4bd1869f0.html" target="_top" xlink:title="base">
<polygon fill="white" stroke="red" points="223,-36 169,-36 169,-1.77636e-14 223,-3.55271e-15 223,-36"/>
<text text-anchor="middle" x="196" y="-15.5" font-family="Helvetica,sans-Serif" font-size="10.00">base</text>
</a>
</g>
<!-- dir_a6416823a81055497e03f4e1c81c0ea0&#45;&gt;dir_0af1587c8378955de40f48b4bd1869f0 -->
<g id="edge3" class="edge"><title>dir_a6416823a81055497e03f4e1c81c0ea0&#45;&gt;dir_0af1587c8378955de40f48b4bd1869f0</title>
<path fill="none" stroke="black" d="M151.814,-442.115C101.739,-425.733 0,-382.976 0,-306 0,-306 0,-306 0,-162 0,-83.928 102.245,-43.5136 159.04,-27.0867"/>
<polygon fill="black" stroke="black" points="160.052,-30.4381 168.747,-24.3842 158.175,-23.6946 160.052,-30.4381"/>
<a xlink:href="dir_000029_000022.html" target="_top" xlink:title="15">
<text text-anchor="middle" x="157.351" y="-31.6374" font-family="Helvetica,sans-Serif" font-size="10.00">15</text>
</a>
</g>
<!-- dir_c44c95bf3b41c3321c6014770d618ac8 -->
<g id="node4" class="node"><title>dir_c44c95bf3b41c3321c6014770d618ac8</title>
<a xlink:href="dir_c44c95bf3b41c3321c6014770d618ac8.html" target="_top" xlink:title="tree">
<polygon fill="none" stroke="black" points="223,-108 169,-108 169,-72 223,-72 223,-108"/>
<text text-anchor="middle" x="196" y="-87.5" font-family="Helvetica,sans-Serif" font-size="10.00">tree</text>
</a>
</g>
<!-- dir_a6416823a81055497e03f4e1c81c0ea0&#45;&gt;dir_c44c95bf3b41c3321c6014770d618ac8 -->
<g id="edge5" class="edge"><title>dir_a6416823a81055497e03f4e1c81c0ea0&#45;&gt;dir_c44c95bf3b41c3321c6014770d618ac8</title>
<path fill="none" stroke="black" d="M190.934,-431.755C207.11,-405.219 234,-353.903 234,-306 234,-306 234,-306 234,-234 234,-192.368 218.967,-146.14 207.812,-117.567"/>
<polygon fill="black" stroke="black" points="211.037,-116.206 204.059,-108.233 204.542,-118.817 211.037,-116.206"/>
<a xlink:href="dir_000029_000038.html" target="_top" xlink:title="12">
<text text-anchor="middle" x="215.012" y="-115.981" font-family="Helvetica,sans-Serif" font-size="10.00">12</text>
</a>
</g>
<!-- dir_4584aed4c24fbdfe1cf1a414e4d4a562 -->
<g id="node5" class="node"><title>dir_4584aed4c24fbdfe1cf1a414e4d4a562</title>
<a xlink:href="dir_4584aed4c24fbdfe1cf1a414e4d4a562.html" target="_top" xlink:title="gui">
<polygon fill="none" stroke="black" points="360,-396 306,-396 306,-360 360,-360 360,-396"/>
<text text-anchor="middle" x="333" y="-375.5" font-family="Helvetica,sans-Serif" font-size="10.00">gui</text>
</a>
</g>
<!-- dir_a6416823a81055497e03f4e1c81c0ea0&#45;&gt;dir_4584aed4c24fbdfe1cf1a414e4d4a562 -->
<g id="edge7" class="edge"><title>dir_a6416823a81055497e03f4e1c81c0ea0&#45;&gt;dir_4584aed4c24fbdfe1cf1a414e4d4a562</title>
<path fill="none" stroke="black" d="M206.178,-437.294C231.281,-425.557 268.766,-408.032 296.477,-395.075"/>
<polygon fill="black" stroke="black" points="298.259,-398.106 305.836,-390.7 295.294,-391.765 298.259,-398.106"/>
<a xlink:href="dir_000029_000028.html" target="_top" xlink:title="5">
<text text-anchor="middle" x="296.205" y="-399.701" font-family="Helvetica,sans-Serif" font-size="10.00">5</text>
</a>
</g>
<!-- dir_c4f4646ab0f4a2967be5b6215a500c22 -->
<g id="node6" class="node"><title>dir_c4f4646ab0f4a2967be5b6215a500c22</title>
<a xlink:href="dir_c4f4646ab0f4a2967be5b6215a500c22.html" target="_top" xlink:title="expconfig">
<polygon fill="white" stroke="red" points="168,-252 110,-252 110,-216 168,-216 168,-252"/>
<text text-anchor="middle" x="139" y="-231.5" font-family="Helvetica,sans-Serif" font-size="10.00">expconfig</text>
</a>
</g>
<!-- dir_a6416823a81055497e03f4e1c81c0ea0&#45;&gt;dir_c4f4646ab0f4a2967be5b6215a500c22 -->
<g id="edge9" class="edge"><title>dir_a6416823a81055497e03f4e1c81c0ea0&#45;&gt;dir_c4f4646ab0f4a2967be5b6215a500c22</title>
<path fill="none" stroke="black" d="M172.39,-431.942C163.87,-407.747 149.396,-363.296 143,-324 139.655,-303.449 138.707,-279.934 138.568,-262.095"/>
<polygon fill="black" stroke="black" points="142.068,-262.057 138.57,-252.056 135.068,-262.056 142.068,-262.057"/>
<a xlink:href="dir_000029_000030.html" target="_top" xlink:title="5">
<text text-anchor="middle" x="144.907" y="-263.152" font-family="Helvetica,sans-Serif" font-size="10.00">5</text>
</a>
</g>
<!-- dir_5eb03804bf445589bf35c6aa84fb9a34 -->
<g id="node7" class="node"><title>dir_5eb03804bf445589bf35c6aa84fb9a34</title>
<a xlink:href="dir_5eb03804bf445589bf35c6aa84fb9a34.html" target="_top" xlink:title="reconstruct">
<polygon fill="white" stroke="red" points="92,-180 28,-180 28,-144 92,-144 92,-180"/>
<text text-anchor="middle" x="60" y="-159.5" font-family="Helvetica,sans-Serif" font-size="10.00">reconstruct</text>
</a>
</g>
<!-- dir_a6416823a81055497e03f4e1c81c0ea0&#45;&gt;dir_5eb03804bf445589bf35c6aa84fb9a34 -->
<g id="edge11" class="edge"><title>dir_a6416823a81055497e03f4e1c81c0ea0&#45;&gt;dir_5eb03804bf445589bf35c6aa84fb9a34</title>
<path fill="none" stroke="black" d="M166.913,-431.788C145.051,-397.928 99.0703,-322.321 76,-252 69.4142,-231.926 65.3512,-208.392 62.9681,-190.425"/>
<polygon fill="black" stroke="black" points="66.4173,-189.796 61.7232,-180.298 59.4696,-190.65 66.4173,-189.796"/>
<a xlink:href="dir_000029_000034.html" target="_top" xlink:title="1">
<text text-anchor="middle" x="69.6738" y="-190.518" font-family="Helvetica,sans-Serif" font-size="10.00">1</text>
</a>
</g>
<!-- dir_2eec376824a17f48dc36b4bd0c810e01 -->
<g id="node8" class="node"><title>dir_2eec376824a17f48dc36b4bd0c810e01</title>
<a xlink:href="dir_2eec376824a17f48dc36b4bd0c810e01.html" target="_top" xlink:title="analysis">
<polygon fill="white" stroke="red" points="206,-324 152,-324 152,-288 206,-288 206,-324"/>
<text text-anchor="middle" x="179" y="-303.5" font-family="Helvetica,sans-Serif" font-size="10.00">analysis</text>
</a>
</g>
<!-- dir_a6416823a81055497e03f4e1c81c0ea0&#45;&gt;dir_2eec376824a17f48dc36b4bd0c810e01 -->
<g id="edge13" class="edge"><title>dir_a6416823a81055497e03f4e1c81c0ea0&#45;&gt;dir_2eec376824a17f48dc36b4bd0c810e01</title>
<path fill="none" stroke="black" d="M179,-431.762C179,-407.201 179,-363.247 179,-334.354"/>
<polygon fill="black" stroke="black" points="182.5,-334.09 179,-324.09 175.5,-334.09 182.5,-334.09"/>
<a xlink:href="dir_000029_000002.html" target="_top" xlink:title="17">
<text text-anchor="middle" x="185.339" y="-335.184" font-family="Helvetica,sans-Serif" font-size="10.00">17</text>
</a>
</g>
<!-- dir_47eae98cac04703c45f6b4e608e28f25 -->
<g id="node9" class="node"><title>dir_47eae98cac04703c45f6b4e608e28f25</title>
<a xlink:href="dir_47eae98cac04703c45f6b4e608e28f25.html" target="_top" xlink:title="fitfunctions">
<polygon fill="none" stroke="black" points="402,-180 338,-180 338,-144 402,-144 402,-180"/>
<text text-anchor="middle" x="370" y="-159.5" font-family="Helvetica,sans-Serif" font-size="10.00">fitfunctions</text>
</a>
</g>
<!-- dir_a6416823a81055497e03f4e1c81c0ea0&#45;&gt;dir_47eae98cac04703c45f6b4e608e28f25 -->
<g id="edge15" class="edge"><title>dir_a6416823a81055497e03f4e1c81c0ea0&#45;&gt;dir_47eae98cac04703c45f6b4e608e28f25</title>
<path fill="none" stroke="black" d="M206.247,-446.099C253.667,-438.717 348.3,-421.156 369,-396 417.698,-336.817 395.164,-237.781 379.938,-189.773"/>
<polygon fill="black" stroke="black" points="383.193,-188.465 376.736,-180.065 376.545,-190.658 383.193,-188.465"/>
<a xlink:href="dir_000029_000027.html" target="_top" xlink:title="5">
<text text-anchor="middle" x="387.015" y="-188.489" font-family="Helvetica,sans-Serif" font-size="10.00">5</text>
</a>
</g>
<!-- dir_c44c95bf3b41c3321c6014770d618ac8&#45;&gt;dir_0af1587c8378955de40f48b4bd1869f0 -->
<g id="edge17" class="edge"><title>dir_c44c95bf3b41c3321c6014770d618ac8&#45;&gt;dir_0af1587c8378955de40f48b4bd1869f0</title>
<path fill="none" stroke="black" d="M196,-71.8314C196,-64.131 196,-54.9743 196,-46.4166"/>
<polygon fill="black" stroke="black" points="199.5,-46.4132 196,-36.4133 192.5,-46.4133 199.5,-46.4132"/>
<a xlink:href="dir_000038_000022.html" target="_top" xlink:title="15">
<text text-anchor="middle" x="202.339" y="-47.5079" font-family="Helvetica,sans-Serif" font-size="10.00">15</text>
</a>
</g>
<!-- dir_4584aed4c24fbdfe1cf1a414e4d4a562&#45;&gt;dir_0af1587c8378955de40f48b4bd1869f0 -->
<g id="edge19" class="edge"><title>dir_4584aed4c24fbdfe1cf1a414e4d4a562&#45;&gt;dir_0af1587c8378955de40f48b4bd1869f0</title>
<path fill="none" stroke="black" d="M355.988,-359.717C384.672,-334.672 430,-286.75 430,-234 430,-234 430,-234 430,-162 430,-70.7633 299.377,-35.4764 233.319,-23.4646"/>
<polygon fill="black" stroke="black" points="233.751,-19.9875 223.301,-21.7316 232.558,-26.8851 233.751,-19.9875"/>
<a xlink:href="dir_000028_000022.html" target="_top" xlink:title="10">
<text text-anchor="middle" x="237.777" y="-15.3024" font-family="Helvetica,sans-Serif" font-size="10.00">10</text>
</a>
</g>
<!-- dir_4584aed4c24fbdfe1cf1a414e4d4a562&#45;&gt;dir_c44c95bf3b41c3321c6014770d618ac8 -->
<g id="edge21" class="edge"><title>dir_4584aed4c24fbdfe1cf1a414e4d4a562&#45;&gt;dir_c44c95bf3b41c3321c6014770d618ac8</title>
<path fill="none" stroke="black" d="M329.143,-359.838C319.888,-318.915 293.733,-217.356 248,-144 241.556,-133.664 232.874,-123.668 224.452,-115.146"/>
<polygon fill="black" stroke="black" points="226.786,-112.533 217.18,-108.064 221.902,-117.548 226.786,-112.533"/>
<a xlink:href="dir_000028_000038.html" target="_top" xlink:title="4">
<text text-anchor="middle" x="231.342" y="-110.507" font-family="Helvetica,sans-Serif" font-size="10.00">4</text>
</a>
</g>
<!-- dir_4584aed4c24fbdfe1cf1a414e4d4a562&#45;&gt;dir_2eec376824a17f48dc36b4bd0c810e01 -->
<g id="edge23" class="edge"><title>dir_4584aed4c24fbdfe1cf1a414e4d4a562&#45;&gt;dir_2eec376824a17f48dc36b4bd0c810e01</title>
<path fill="none" stroke="black" d="M305.822,-365.294C280.719,-353.557 243.234,-336.032 215.523,-323.075"/>
<polygon fill="black" stroke="black" points="216.706,-319.765 206.164,-318.7 213.741,-326.106 216.706,-319.765"/>
<a xlink:href="dir_000028_000002.html" target="_top" xlink:title="1">
<text text-anchor="middle" x="221.164" y="-316.215" font-family="Helvetica,sans-Serif" font-size="10.00">1</text>
</a>
</g>
<!-- dir_4584aed4c24fbdfe1cf1a414e4d4a562&#45;&gt;dir_47eae98cac04703c45f6b4e608e28f25 -->
<g id="edge25" class="edge"><title>dir_4584aed4c24fbdfe1cf1a414e4d4a562&#45;&gt;dir_47eae98cac04703c45f6b4e608e28f25</title>
<path fill="none" stroke="black" d="M332.145,-359.955C335.134,-322.314 349.8,-235.187 360.459,-190.125"/>
<polygon fill="black" stroke="black" points="363.923,-190.694 362.937,-180.145 357.13,-189.007 363.923,-190.694"/>
<a xlink:href="dir_000028_000027.html" target="_top" xlink:title="2">
<text text-anchor="middle" x="365.813" y="-192.367" font-family="Helvetica,sans-Serif" font-size="10.00">2</text>
</a>
</g>
<!-- dir_c4f4646ab0f4a2967be5b6215a500c22&#45;&gt;dir_0af1587c8378955de40f48b4bd1869f0 -->
<g id="edge27" class="edge"><title>dir_c4f4646ab0f4a2967be5b6215a500c22&#45;&gt;dir_0af1587c8378955de40f48b4bd1869f0</title>
<path fill="none" stroke="black" d="M138.699,-215.861C138.765,-185.212 141.394,-121.663 160,-72 163.579,-62.4462 169.13,-52.8952 174.81,-44.5402"/>
<polygon fill="black" stroke="black" points="177.723,-46.4846 180.699,-36.3164 172.032,-42.4092 177.723,-46.4846"/>
<a xlink:href="dir_000030_000022.html" target="_top" xlink:title="16">
<text text-anchor="middle" x="177.939" y="-48.5602" font-family="Helvetica,sans-Serif" font-size="10.00">16</text>
</a>
</g>
<!-- dir_c4f4646ab0f4a2967be5b6215a500c22&#45;&gt;dir_c44c95bf3b41c3321c6014770d618ac8 -->
<g id="edge29" class="edge"><title>dir_c4f4646ab0f4a2967be5b6215a500c22&#45;&gt;dir_c44c95bf3b41c3321c6014770d618ac8</title>
<path fill="none" stroke="black" d="M146.219,-215.762C156.027,-190.985 173.647,-146.471 185.077,-117.594"/>
<polygon fill="black" stroke="black" points="188.413,-118.676 188.84,-108.09 181.905,-116.099 188.413,-118.676"/>
<a xlink:href="dir_000030_000038.html" target="_top" xlink:title="7">
<text text-anchor="middle" x="189.73" y="-120.563" font-family="Helvetica,sans-Serif" font-size="10.00">7</text>
</a>
</g>
<!-- dir_c4f4646ab0f4a2967be5b6215a500c22&#45;&gt;dir_5eb03804bf445589bf35c6aa84fb9a34 -->
<g id="edge31" class="edge"><title>dir_c4f4646ab0f4a2967be5b6215a500c22&#45;&gt;dir_5eb03804bf445589bf35c6aa84fb9a34</title>
<path fill="none" stroke="black" d="M113.113,-215.831C102.902,-207.285 91.3758,-196.944 81.6165,-187.62"/>
<polygon fill="black" stroke="black" points="83.8301,-184.89 74.2274,-180.413 78.9426,-189.901 83.8301,-184.89"/>
<a xlink:href="dir_000030_000034.html" target="_top" xlink:title="1">
<text text-anchor="middle" x="88.3859" y="-182.867" font-family="Helvetica,sans-Serif" font-size="10.00">1</text>
</a>
</g>
<!-- dir_c4f4646ab0f4a2967be5b6215a500c22&#45;&gt;dir_47eae98cac04703c45f6b4e608e28f25 -->
<g id="edge33" class="edge"><title>dir_c4f4646ab0f4a2967be5b6215a500c22&#45;&gt;dir_47eae98cac04703c45f6b4e608e28f25</title>
<path fill="none" stroke="black" d="M168.256,-224.881C208.635,-212.296 281.686,-189.527 327.922,-175.115"/>
<polygon fill="black" stroke="black" points="329.137,-178.403 337.643,-172.085 327.054,-171.72 329.137,-178.403"/>
<a xlink:href="dir_000030_000027.html" target="_top" xlink:title="3">
<text text-anchor="middle" x="326.551" y="-179.683" font-family="Helvetica,sans-Serif" font-size="10.00">3</text>
</a>
</g>
<!-- dir_5eb03804bf445589bf35c6aa84fb9a34&#45;&gt;dir_0af1587c8378955de40f48b4bd1869f0 -->
<g id="edge35" class="edge"><title>dir_5eb03804bf445589bf35c6aa84fb9a34&#45;&gt;dir_0af1587c8378955de40f48b4bd1869f0</title>
<path fill="none" stroke="black" d="M65.8122,-143.988C72.8381,-124.429 86.2337,-93.1566 106,-72 121.042,-55.8995 141.955,-42.961 159.835,-33.7895"/>
<polygon fill="black" stroke="black" points="161.44,-36.9006 168.862,-29.34 158.345,-30.622 161.44,-36.9006"/>
<a xlink:href="dir_000034_000022.html" target="_top" xlink:title="10">
<text text-anchor="middle" x="159.471" y="-38.5365" font-family="Helvetica,sans-Serif" font-size="10.00">10</text>
</a>
</g>
<!-- dir_5eb03804bf445589bf35c6aa84fb9a34&#45;&gt;dir_c44c95bf3b41c3321c6014770d618ac8 -->
<g id="edge37" class="edge"><title>dir_5eb03804bf445589bf35c6aa84fb9a34&#45;&gt;dir_c44c95bf3b41c3321c6014770d618ac8</title>
<path fill="none" stroke="black" d="M92.2301,-144.937C112.483,-134.215 138.655,-120.359 159.648,-109.245"/>
<polygon fill="black" stroke="black" points="161.391,-112.283 168.591,-104.511 158.115,-106.096 161.391,-112.283"/>
<a xlink:href="dir_000034_000038.html" target="_top" xlink:title="11">
<text text-anchor="middle" x="159.542" y="-113.974" font-family="Helvetica,sans-Serif" font-size="10.00">11</text>
</a>
</g>
<!-- dir_5eb03804bf445589bf35c6aa84fb9a34&#45;&gt;dir_c4f4646ab0f4a2967be5b6215a500c22 -->
<g id="edge39" class="edge"><title>dir_5eb03804bf445589bf35c6aa84fb9a34&#45;&gt;dir_c4f4646ab0f4a2967be5b6215a500c22</title>
<path fill="none" stroke="black" d="M85.8805,-180.163C96.1688,-188.774 107.794,-199.208 117.602,-208.589"/>
<polygon fill="black" stroke="black" points="115.418,-211.348 125.017,-215.831 120.309,-206.34 115.418,-211.348"/>
<a xlink:href="dir_000034_000030.html" target="_top" xlink:title="6">
<text text-anchor="middle" x="110.862" y="-208.368" font-family="Helvetica,sans-Serif" font-size="10.00">6</text>
</a>
</g>
<!-- dir_2eec376824a17f48dc36b4bd0c810e01&#45;&gt;dir_0af1587c8378955de40f48b4bd1869f0 -->
<g id="edge41" class="edge"><title>dir_2eec376824a17f48dc36b4bd0c810e01&#45;&gt;dir_0af1587c8378955de40f48b4bd1869f0</title>
<path fill="none" stroke="black" d="M186.448,-287.705C190.497,-277.341 195.398,-264.071 199,-252 217.775,-189.082 224.62,-173.243 232,-108 233.798,-92.1014 236.637,-87.3135 232,-72 229.044,-62.2355 223.675,-52.6229 217.97,-44.2762"/>
<polygon fill="black" stroke="black" points="220.713,-42.0973 211.99,-36.0831 215.059,-46.2239 220.713,-42.0973"/>
<a xlink:href="dir_000002_000022.html" target="_top" xlink:title="44">
<text text-anchor="middle" x="225.125" y="-40.827" font-family="Helvetica,sans-Serif" font-size="10.00">44</text>
</a>
</g>
<!-- dir_2eec376824a17f48dc36b4bd0c810e01&#45;&gt;dir_c44c95bf3b41c3321c6014770d618ac8 -->
<g id="edge43" class="edge"><title>dir_2eec376824a17f48dc36b4bd0c810e01&#45;&gt;dir_c44c95bf3b41c3321c6014770d618ac8</title>
<path fill="none" stroke="black" d="M180.42,-287.955C183.383,-250.314 190.24,-163.187 193.786,-118.125"/>
<polygon fill="black" stroke="black" points="197.276,-118.389 194.572,-108.145 190.298,-117.84 197.276,-118.389"/>
<a xlink:href="dir_000002_000038.html" target="_top" xlink:title="18">
<text text-anchor="middle" x="199.825" y="-119.695" font-family="Helvetica,sans-Serif" font-size="10.00">18</text>
</a>
</g>
<!-- dir_2eec376824a17f48dc36b4bd0c810e01&#45;&gt;dir_c4f4646ab0f4a2967be5b6215a500c22 -->
<g id="edge45" class="edge"><title>dir_2eec376824a17f48dc36b4bd0c810e01&#45;&gt;dir_c4f4646ab0f4a2967be5b6215a500c22</title>
<path fill="none" stroke="black" d="M168.906,-287.831C164.44,-279.792 159.093,-270.167 154.162,-261.292"/>
<polygon fill="black" stroke="black" points="157.146,-259.455 149.23,-252.413 151.027,-262.855 157.146,-259.455"/>
<a xlink:href="dir_000002_000030.html" target="_top" xlink:title="1">
<text text-anchor="middle" x="161.373" y="-258.718" font-family="Helvetica,sans-Serif" font-size="10.00">1</text>
</a>
</g>
<!-- dir_2eec376824a17f48dc36b4bd0c810e01&#45;&gt;dir_5eb03804bf445589bf35c6aa84fb9a34 -->
<g id="edge47" class="edge"><title>dir_2eec376824a17f48dc36b4bd0c810e01&#45;&gt;dir_5eb03804bf445589bf35c6aa84fb9a34</title>
<path fill="none" stroke="black" d="M151.643,-292.005C135.247,-282.515 114.945,-268.679 101,-252 85.6898,-233.688 74.9173,-208.725 68.2689,-189.734"/>
<polygon fill="black" stroke="black" points="71.5576,-188.531 65.0815,-180.146 64.9151,-190.74 71.5576,-188.531"/>
<a xlink:href="dir_000002_000034.html" target="_top" xlink:title="1">
<text text-anchor="middle" x="75.3858" y="-188.547" font-family="Helvetica,sans-Serif" font-size="10.00">1</text>
</a>
</g>
<!-- dir_47eae98cac04703c45f6b4e608e28f25&#45;&gt;dir_0af1587c8378955de40f48b4bd1869f0 -->
<g id="edge49" class="edge"><title>dir_47eae98cac04703c45f6b4e608e28f25&#45;&gt;dir_0af1587c8378955de40f48b4bd1869f0</title>
<path fill="none" stroke="black" d="M355.521,-143.672C339.734,-124.406 313.086,-93.91 286,-72 269.504,-58.6566 249.395,-46.2801 232.373,-36.7513"/>
<polygon fill="black" stroke="black" points="233.727,-33.5021 223.276,-31.7624 230.361,-39.6398 233.727,-33.5021"/>
<a xlink:href="dir_000027_000022.html" target="_top" xlink:title="12">
<text text-anchor="middle" x="238.244" y="-30.2411" font-family="Helvetica,sans-Serif" font-size="10.00">12</text>
</a>
</g>
<!-- dir_47eae98cac04703c45f6b4e608e28f25&#45;&gt;dir_4584aed4c24fbdfe1cf1a414e4d4a562 -->
<g id="edge51" class="edge"><title>dir_47eae98cac04703c45f6b4e608e28f25&#45;&gt;dir_4584aed4c24fbdfe1cf1a414e4d4a562</title>
<path fill="none" stroke="black" d="M370.847,-180.145C367.837,-217.874 353.165,-305.008 342.513,-349.996"/>
<polygon fill="black" stroke="black" points="339.053,-349.406 340.037,-359.955 345.846,-351.095 339.053,-349.406"/>
<a xlink:href="dir_000027_000028.html" target="_top" xlink:title="2">
<text text-anchor="middle" x="337.165" y="-342.733" font-family="Helvetica,sans-Serif" font-size="10.00">2</text>
</a>
</g>
</g>
</svg>
