<?xml version="1.0" encoding="UTF-8" standalone="no"?>
<!DOCTYPE svg PUBLIC "-//W3C//DTD SVG 1.1//EN"
 "http://www.w3.org/Graphics/SVG/1.1/DTD/svg11.dtd">
<!-- Generated by graphviz version 2.26.3 (20100126.1600)
 -->
<!-- Title: Graphical Class Hierarchy Pages: 1 -->
<svg width="218pt" height="56pt"
 viewBox="0.00 0.00 218.00 56.00" xmlns="http://www.w3.org/2000/svg" xmlns:xlink="http://www.w3.org/1999/xlink">
<g id="graph1" class="graph" transform="scale(1 1) rotate(0) translate(4 52)">
<title>Graphical Class Hierarchy</title>
<polygon fill="white" stroke="white" points="-4,5 -4,-52 215,-52 215,5 -4,5"/>
<!-- Node1 -->
<g id="node1" class="node"><title>Node1</title>
<polygon fill="white" stroke="#bfbfbf" points="0.5,-13.5 0.5,-34.5 47.5,-34.5 47.5,-13.5 0.5,-13.5"/>
<text text-anchor="middle" x="24" y="-21.5" font-family="Helvetica,sans-Serif" font-size="10.00">iterator</text>
</g>
<!-- Node2 -->
<g id="node3" class="node"><title>Node2</title>
<a xlink:href="classant_1_1analysis_1_1utils_1_1_kof_nvector_1_1const__iterator.html" target="_top" xlink:title="Iterator over the elements of a combination. Used to iterate over the current combination. ">
<polygon fill="white" stroke="black" points="84,-0.5 84,-47.5 210,-47.5 210,-0.5 84,-0.5"/>
<text text-anchor="start" x="92" y="-34.5" font-family="Helvetica,sans-Serif" font-size="10.00">ant::analysis::utils</text>
<text text-anchor="start" x="92" y="-21.5" font-family="Helvetica,sans-Serif" font-size="10.00">::KofNvector&lt; T &gt;::const</text>
<text text-anchor="middle" x="147" y="-8.5" font-family="Helvetica,sans-Serif" font-size="10.00">_iterator</text>
</a>
</g>
<!-- Node1&#45;&gt;Node2 -->
<g id="edge2" class="edge"><title>Node1&#45;&gt;Node2</title>
<path fill="none" stroke="midnightblue" d="M57.8867,-24C66.0303,-24 74.9892,-24 83.9912,-24"/>
<polygon fill="midnightblue" stroke="midnightblue" points="57.7157,-20.5001 47.7156,-24 57.7156,-27.5001 57.7157,-20.5001"/>
</g>
</g>
</svg>
