<?xml version="1.0" encoding="UTF-8" standalone="no"?>
<!DOCTYPE svg PUBLIC "-//W3C//DTD SVG 1.1//EN"
 "http://www.w3.org/Graphics/SVG/1.1/DTD/svg11.dtd">
<!-- Generated by graphviz version 2.26.3 (20100126.1600)
 -->
<!-- Title: Graphical Class Hierarchy Pages: 1 -->
<svg width="326pt" height="56pt"
 viewBox="0.00 0.00 326.00 56.00" xmlns="http://www.w3.org/2000/svg" xmlns:xlink="http://www.w3.org/1999/xlink">
<g id="graph1" class="graph" transform="scale(1 1) rotate(0) translate(4 52)">
<title>Graphical Class Hierarchy</title>
<polygon fill="white" stroke="white" points="-4,5 -4,-52 323,-52 323,5 -4,5"/>
<!-- Node1 -->
<g id="node1" class="node"><title>Node1</title>
<a xlink:href="structant_1_1analysis_1_1physics_1_1_reconstruct_check_1_1list__of__hists__t.html" target="_top" xlink:title="ant::analysis::physics\l::ReconstructCheck::list\l_of_hists_t">
<polygon fill="white" stroke="black" points="0.5,-0.5 0.5,-47.5 123.5,-47.5 123.5,-0.5 0.5,-0.5"/>
<text text-anchor="start" x="8.5" y="-34.5" font-family="Helvetica,sans-Serif" font-size="10.00">ant::analysis::physics</text>
<text text-anchor="start" x="8.5" y="-21.5" font-family="Helvetica,sans-Serif" font-size="10.00">::ReconstructCheck::list</text>
<text text-anchor="middle" x="62" y="-8.5" font-family="Helvetica,sans-Serif" font-size="10.00">_of_hists_t</text>
</a>
</g>
<!-- Node2 -->
<g id="node3" class="node"><title>Node2</title>
<a xlink:href="structant_1_1analysis_1_1physics_1_1_reconstruct_check_1_1candidates_event__t.html" target="_top" xlink:title="ant::analysis::physics\l::ReconstructCheck::candidates\lEvent_t">
<polygon fill="white" stroke="black" points="160,-0.5 160,-47.5 318,-47.5 318,-0.5 160,-0.5"/>
<text text-anchor="start" x="168" y="-34.5" font-family="Helvetica,sans-Serif" font-size="10.00">ant::analysis::physics</text>
<text text-anchor="start" x="168" y="-21.5" font-family="Helvetica,sans-Serif" font-size="10.00">::ReconstructCheck::candidates</text>
<text text-anchor="middle" x="239" y="-8.5" font-family="Helvetica,sans-Serif" font-size="10.00">Event_t</text>
</a>
</g>
<!-- Node1&#45;&gt;Node2 -->
<g id="edge2" class="edge"><title>Node1&#45;&gt;Node2</title>
<path fill="none" stroke="midnightblue" d="M134.08,-24C142.523,-24 151.172,-24 159.706,-24"/>
<polygon fill="midnightblue" stroke="midnightblue" points="133.906,-20.5001 123.906,-24 133.906,-27.5001 133.906,-20.5001"/>
</g>
</g>
</svg>
