<?xml version="1.0" encoding="UTF-8" standalone="no"?>
<!DOCTYPE svg PUBLIC "-//W3C//DTD SVG 1.1//EN"
 "http://www.w3.org/Graphics/SVG/1.1/DTD/svg11.dtd">
<!-- Generated by graphviz version 2.26.3 (20100126.1600)
 -->
<!-- Title: Graphical Class Hierarchy Pages: 1 -->
<svg width="550pt" height="195pt"
 viewBox="0.00 0.00 550.00 195.00" xmlns="http://www.w3.org/2000/svg" xmlns:xlink="http://www.w3.org/1999/xlink">
<g id="graph1" class="graph" transform="scale(1 1) rotate(0) translate(4 191)">
<title>Graphical Class Hierarchy</title>
<polygon fill="white" stroke="white" points="-4,5 -4,-191 547,-191 547,5 -4,5"/>
<!-- Node1 -->
<g id="node1" class="node"><title>Node1</title>
<a xlink:href="classant_1_1calibration_1_1gui_1_1_dialog_handler__traits.html" target="_top" xlink:title="ant::calibration::gui\l::DialogHandler_traits">
<polygon fill="white" stroke="black" points="0.5,-153 0.5,-187 111.5,-187 111.5,-153 0.5,-153"/>
<text text-anchor="start" x="8.5" y="-174" font-family="Helvetica,sans-Serif" font-size="10.00">ant::calibration::gui</text>
<text text-anchor="middle" x="56" y="-161" font-family="Helvetica,sans-Serif" font-size="10.00">::DialogHandler_traits</text>
</a>
</g>
<!-- Node2 -->
<g id="node3" class="node"><title>Node2</title>
<a xlink:href="classant_1_1calibration_1_1gui_1_1_a_c_e_canvas.html" target="_top" xlink:title="ant::calibration::gui\l::ACECanvas">
<polygon fill="white" stroke="black" points="148.5,-153 148.5,-187 247.5,-187 247.5,-153 148.5,-153"/>
<text text-anchor="start" x="156.5" y="-174" font-family="Helvetica,sans-Serif" font-size="10.00">ant::calibration::gui</text>
<text text-anchor="middle" x="198" y="-161" font-family="Helvetica,sans-Serif" font-size="10.00">::ACECanvas</text>
</a>
</g>
<!-- Node1&#45;&gt;Node2 -->
<g id="edge2" class="edge"><title>Node1&#45;&gt;Node2</title>
<path fill="none" stroke="midnightblue" d="M121.767,-170C130.74,-170 139.825,-170 148.444,-170"/>
<polygon fill="midnightblue" stroke="midnightblue" points="121.715,-166.5 111.715,-170 121.715,-173.5 121.715,-166.5"/>
</g>
<!-- Node3 -->
<g id="node4" class="node"><title>Node3</title>
<polygon fill="white" stroke="#bfbfbf" points="28,-110.5 28,-131.5 84,-131.5 84,-110.5 28,-110.5"/>
<text text-anchor="middle" x="56" y="-118.5" font-family="Helvetica,sans-Serif" font-size="10.00">TCanvas</text>
</g>
<!-- Node3&#45;&gt;Node2 -->
<g id="edge4" class="edge"><title>Node3&#45;&gt;Node2</title>
<path fill="none" stroke="midnightblue" d="M93.5837,-133.969C110.478,-139.799 130.644,-146.757 148.728,-152.998"/>
<polygon fill="midnightblue" stroke="midnightblue" points="94.6494,-130.634 84.0546,-130.681 92.3659,-137.251 94.6494,-130.634"/>
</g>
<!-- Node4 -->
<g id="node7" class="node"><title>Node4</title>
<a xlink:href="classant_1_1calibration_1_1gui_1_1_cal_canvas.html" target="_top" xlink:title="ant::calibration::gui\l::CalCanvas">
<polygon fill="white" stroke="black" points="148.5,-101 148.5,-135 247.5,-135 247.5,-101 148.5,-101"/>
<text text-anchor="start" x="156.5" y="-122" font-family="Helvetica,sans-Serif" font-size="10.00">ant::calibration::gui</text>
<text text-anchor="middle" x="198" y="-109" font-family="Helvetica,sans-Serif" font-size="10.00">::CalCanvas</text>
</a>
</g>
<!-- Node3&#45;&gt;Node4 -->
<g id="edge6" class="edge"><title>Node3&#45;&gt;Node4</title>
<path fill="none" stroke="midnightblue" d="M94.4863,-120.187C111.104,-119.836 130.753,-119.421 148.443,-119.047"/>
<polygon fill="midnightblue" stroke="midnightblue" points="93.9784,-116.697 84.0546,-120.407 94.1264,-123.695 93.9784,-116.697"/>
</g>
<!-- Node5 -->
<g id="node8" class="node"><title>Node5</title>
<polygon fill="white" stroke="#bfbfbf" points="177.5,-9.5 177.5,-30.5 218.5,-30.5 218.5,-9.5 177.5,-9.5"/>
<text text-anchor="middle" x="198" y="-17.5" font-family="Helvetica,sans-Serif" font-size="10.00">TLine</text>
</g>
<!-- Node6 -->
<g id="node10" class="node"><title>Node6</title>
<a xlink:href="classant_1_1calibration_1_1gui_1_1_indicator_line.html" target="_top" xlink:title="ant::calibration::gui\l::IndicatorLine">
<polygon fill="white" stroke="black" points="284.5,-26 284.5,-60 383.5,-60 383.5,-26 284.5,-26"/>
<text text-anchor="start" x="292.5" y="-47" font-family="Helvetica,sans-Serif" font-size="10.00">ant::calibration::gui</text>
<text text-anchor="middle" x="334" y="-34" font-family="Helvetica,sans-Serif" font-size="10.00">::IndicatorLine</text>
</a>
</g>
<!-- Node5&#45;&gt;Node6 -->
<g id="edge8" class="edge"><title>Node5&#45;&gt;Node6</title>
<path fill="none" stroke="midnightblue" d="M228.758,-25.2018C245.144,-27.9729 265.702,-31.4497 284.29,-34.5932"/>
<polygon fill="midnightblue" stroke="midnightblue" points="229.099,-21.7098 218.655,-23.4932 227.932,-28.6118 229.099,-21.7098"/>
</g>
<!-- Node7 -->
<g id="node12" class="node"><title>Node7</title>
<a xlink:href="classant_1_1calibration_1_1gui_1_1_horizontal_indicator_line.html" target="_top" xlink:title="ant::calibration::gui\l::HorizontalIndicatorLine">
<polygon fill="white" stroke="black" points="420,-52 420,-86 542,-86 542,-52 420,-52"/>
<text text-anchor="start" x="428" y="-73" font-family="Helvetica,sans-Serif" font-size="10.00">ant::calibration::gui</text>
<text text-anchor="middle" x="481" y="-60" font-family="Helvetica,sans-Serif" font-size="10.00">::HorizontalIndicatorLine</text>
</a>
</g>
<!-- Node6&#45;&gt;Node7 -->
<g id="edge10" class="edge"><title>Node6&#45;&gt;Node7</title>
<path fill="none" stroke="midnightblue" d="M393.715,-53.5619C402.317,-55.0833 411.18,-56.6509 419.81,-58.1772"/>
<polygon fill="midnightblue" stroke="midnightblue" points="394.224,-50.0977 383.767,-51.8024 393.005,-56.9907 394.224,-50.0977"/>
</g>
<!-- Node8 -->
<g id="node14" class="node"><title>Node8</title>
<a xlink:href="classant_1_1calibration_1_1gui_1_1_vertical_indicator_line.html" target="_top" xlink:title="ant::calibration::gui\l::VerticalIndicatorLine">
<polygon fill="white" stroke="black" points="425.5,-0 425.5,-34 536.5,-34 536.5,-0 425.5,-0"/>
<text text-anchor="start" x="433.5" y="-21" font-family="Helvetica,sans-Serif" font-size="10.00">ant::calibration::gui</text>
<text text-anchor="middle" x="481" y="-8" font-family="Helvetica,sans-Serif" font-size="10.00">::VerticalIndicatorLine</text>
</a>
</g>
<!-- Node6&#45;&gt;Node8 -->
<g id="edge12" class="edge"><title>Node6&#45;&gt;Node8</title>
<path fill="none" stroke="midnightblue" d="M393.689,-32.4427C404.193,-30.5849 415.087,-28.6581 425.471,-26.8214"/>
<polygon fill="midnightblue" stroke="midnightblue" points="393.005,-29.0093 383.767,-34.1976 394.224,-35.9023 393.005,-29.0093"/>
</g>
<!-- Node9 -->
<g id="node15" class="node"><title>Node9</title>
<a xlink:href="classant_1_1calibration_1_1gui_1_1update__notify__traits.html" target="_top" xlink:title="ant::calibration::gui\l::update_notify_traits">
<polygon fill="white" stroke="black" points="2,-55 2,-89 110,-89 110,-55 2,-55"/>
<text text-anchor="start" x="10" y="-76" font-family="Helvetica,sans-Serif" font-size="10.00">ant::calibration::gui</text>
<text text-anchor="middle" x="56" y="-63" font-family="Helvetica,sans-Serif" font-size="10.00">::update_notify_traits</text>
</a>
</g>
<!-- Node9&#45;&gt;Node4 -->
<g id="edge14" class="edge"><title>Node9&#45;&gt;Node4</title>
<path fill="none" stroke="midnightblue" d="M118.396,-92.2128C128.428,-95.4626 138.693,-98.7877 148.373,-101.924"/>
<polygon fill="midnightblue" stroke="midnightblue" points="119.467,-88.8809 108.876,-89.1287 117.31,-95.5402 119.467,-88.8809"/>
</g>
<!-- Node10 -->
<g id="node18" class="node"><title>Node10</title>
<a xlink:href="classant_1_1calibration_1_1gui_1_1_indicator.html" target="_top" xlink:title="ant::calibration::gui\l::Indicator">
<polygon fill="white" stroke="black" points="148.5,-49 148.5,-83 247.5,-83 247.5,-49 148.5,-49"/>
<text text-anchor="start" x="156.5" y="-70" font-family="Helvetica,sans-Serif" font-size="10.00">ant::calibration::gui</text>
<text text-anchor="middle" x="198" y="-57" font-family="Helvetica,sans-Serif" font-size="10.00">::Indicator</text>
</a>
</g>
<!-- Node9&#45;&gt;Node10 -->
<g id="edge16" class="edge"><title>Node9&#45;&gt;Node10</title>
<path fill="none" stroke="midnightblue" d="M120.209,-69.287C129.622,-68.8892 139.196,-68.4847 148.26,-68.1017"/>
<polygon fill="midnightblue" stroke="midnightblue" points="119.932,-65.7954 110.089,-69.7145 120.228,-72.7892 119.932,-65.7954"/>
</g>
<!-- Node10&#45;&gt;Node6 -->
<g id="edge18" class="edge"><title>Node10&#45;&gt;Node6</title>
<path fill="none" stroke="midnightblue" d="M258,-55.853C266.729,-54.3767 275.637,-52.8702 284.137,-51.4327"/>
<polygon fill="midnightblue" stroke="midnightblue" points="257.145,-52.4477 247.869,-57.5662 258.313,-59.3497 257.145,-52.4477"/>
</g>
</g>
</svg>
