<?xml version="1.0" encoding="UTF-8" standalone="no"?>
<!DOCTYPE svg PUBLIC "-//W3C//DTD SVG 1.1//EN"
 "http://www.w3.org/Graphics/SVG/1.1/DTD/svg11.dtd">
<!-- Generated by graphviz version 2.26.3 (20100126.1600)
 -->
<!-- Title: Graphical Class Hierarchy Pages: 1 -->
<svg width="258pt" height="70pt"
 viewBox="0.00 0.00 258.00 70.00" xmlns="http://www.w3.org/2000/svg" xmlns:xlink="http://www.w3.org/1999/xlink">
<g id="graph1" class="graph" transform="scale(1 1) rotate(0) translate(4 66)">
<title>Graphical Class Hierarchy</title>
<polygon fill="white" stroke="white" points="-4,5 -4,-66 255,-66 255,5 -4,5"/>
<!-- Node1 -->
<g id="node1" class="node"><title>Node1</title>
<a xlink:href="classant_1_1padoption_1_1base.html" target="_top" xlink:title="ant::padoption::base">
<polygon fill="white" stroke="black" points="0.5,-20.5 0.5,-41.5 105.5,-41.5 105.5,-20.5 0.5,-20.5"/>
<text text-anchor="middle" x="53" y="-28.5" font-family="Helvetica,sans-Serif" font-size="10.00">ant::padoption::base</text>
</a>
</g>
<!-- Node2 -->
<g id="node3" class="node"><title>Node2</title>
<a xlink:href="classant_1_1padoption_1_1set.html" target="_top" xlink:title="ant::padoption::set">
<polygon fill="white" stroke="black" points="147,-40.5 147,-61.5 245,-61.5 245,-40.5 147,-40.5"/>
<text text-anchor="middle" x="196" y="-48.5" font-family="Helvetica,sans-Serif" font-size="10.00">ant::padoption::set</text>
</a>
</g>
<!-- Node1&#45;&gt;Node2 -->
<g id="edge2" class="edge"><title>Node1&#45;&gt;Node2</title>
<path fill="none" stroke="midnightblue" d="M116.01,-39.8125C126.289,-41.2502 136.806,-42.7211 146.694,-44.104"/>
<polygon fill="midnightblue" stroke="midnightblue" points="116.23,-36.3094 105.842,-38.3904 115.26,-43.2419 116.23,-36.3094"/>
</g>
<!-- Node3 -->
<g id="node5" class="node"><title>Node3</title>
<a xlink:href="classant_1_1padoption_1_1unset.html" target="_top" xlink:title="ant::padoption::unset">
<polygon fill="white" stroke="black" points="142,-0.5 142,-21.5 250,-21.5 250,-0.5 142,-0.5"/>
<text text-anchor="middle" x="196" y="-8.5" font-family="Helvetica,sans-Serif" font-size="10.00">ant::padoption::unset</text>
</a>
</g>
<!-- Node1&#45;&gt;Node3 -->
<g id="edge4" class="edge"><title>Node1&#45;&gt;Node3</title>
<path fill="none" stroke="midnightblue" d="M115.918,-22.2003C124.595,-20.9867 133.443,-19.7492 141.941,-18.5607"/>
<polygon fill="midnightblue" stroke="midnightblue" points="115.26,-18.7581 105.842,-23.6096 116.23,-25.6906 115.26,-18.7581"/>
</g>
</g>
</svg>
