<?xml version="1.0" encoding="UTF-8" standalone="no"?>
<!DOCTYPE svg PUBLIC "-//W3C//DTD SVG 1.1//EN"
 "http://www.w3.org/Graphics/SVG/1.1/DTD/svg11.dtd">
<!-- Generated by graphviz version 2.26.3 (20100126.1600)
 -->
<!-- Title: Graphical Class Hierarchy Pages: 1 -->
<svg width="818pt" height="439pt"
 viewBox="0.00 0.00 818.00 438.84" xmlns="http://www.w3.org/2000/svg" xmlns:xlink="http://www.w3.org/1999/xlink">
<g id="graph1" class="graph" transform="scale(1 1) rotate(0) translate(4 434.836)">
<title>Graphical Class Hierarchy</title>
<polygon fill="white" stroke="white" points="-4,5 -4,-434.836 815,-434.836 815,5 -4,5"/>
<!-- Node1 -->
<g id="node1" class="node"><title>Node1</title>
<a xlink:href="classant_1_1_reconstruct_hook_1_1_base.html" target="_top" xlink:title="The Base class just defines some useful types. ">
<polygon fill="white" stroke="black" points="189.5,-119.836 189.5,-153.836 302.5,-153.836 302.5,-119.836 189.5,-119.836"/>
<text text-anchor="start" x="197.5" y="-140.836" font-family="Helvetica,sans-Serif" font-size="10.00">ant::ReconstructHook</text>
<text text-anchor="middle" x="246" y="-127.836" font-family="Helvetica,sans-Serif" font-size="10.00">::Base</text>
</a>
</g>
<!-- Node2 -->
<g id="node3" class="node"><title>Node2</title>
<a xlink:href="classant_1_1_reconstruct_hook_1_1_cluster_hits.html" target="_top" xlink:title="The ClusterHits class instances are applied before clustering and after hit matching. ">
<polygon fill="white" stroke="black" points="355.5,-122.836 355.5,-156.836 468.5,-156.836 468.5,-122.836 355.5,-122.836"/>
<text text-anchor="start" x="363.5" y="-143.836" font-family="Helvetica,sans-Serif" font-size="10.00">ant::ReconstructHook</text>
<text text-anchor="middle" x="412" y="-130.836" font-family="Helvetica,sans-Serif" font-size="10.00">::ClusterHits</text>
</a>
</g>
<!-- Node1&#45;&gt;Node2 -->
<g id="edge2" class="edge"><title>Node1&#45;&gt;Node2</title>
<path fill="none" stroke="midnightblue" d="M312.788,-138.043C326.884,-138.298 341.629,-138.564 355.31,-138.812"/>
<polygon fill="midnightblue" stroke="midnightblue" points="312.725,-134.542 302.663,-137.86 312.599,-141.54 312.725,-134.542"/>
</g>
<!-- Node4 -->
<g id="node7" class="node"><title>Node4</title>
<a xlink:href="classant_1_1_reconstruct_hook_1_1_clusters.html" target="_top" xlink:title="The Clusters class instances are applied before candidate matching and after clustering. ">
<polygon fill="white" stroke="black" points="355.5,-70.8361 355.5,-104.836 468.5,-104.836 468.5,-70.8361 355.5,-70.8361"/>
<text text-anchor="start" x="363.5" y="-91.8361" font-family="Helvetica,sans-Serif" font-size="10.00">ant::ReconstructHook</text>
<text text-anchor="middle" x="412" y="-78.8361" font-family="Helvetica,sans-Serif" font-size="10.00">::Clusters</text>
</a>
</g>
<!-- Node1&#45;&gt;Node4 -->
<g id="edge6" class="edge"><title>Node1&#45;&gt;Node4</title>
<path fill="none" stroke="midnightblue" d="M312.378,-117.243C326.598,-113.045 341.496,-108.648 355.31,-104.57"/>
<polygon fill="midnightblue" stroke="midnightblue" points="311.264,-113.922 302.663,-120.11 313.245,-120.636 311.264,-113.922"/>
</g>
<!-- Node6 -->
<g id="node11" class="node"><title>Node6</title>
<a xlink:href="classant_1_1_reconstruct_hook_1_1_detector_read_hits.html" target="_top" xlink:title="The DetectorReadHits class instances are applied before hit matching. ">
<polygon fill="white" stroke="black" points="355.5,-214.836 355.5,-248.836 468.5,-248.836 468.5,-214.836 355.5,-214.836"/>
<text text-anchor="start" x="363.5" y="-235.836" font-family="Helvetica,sans-Serif" font-size="10.00">ant::ReconstructHook</text>
<text text-anchor="middle" x="412" y="-222.836" font-family="Helvetica,sans-Serif" font-size="10.00">::DetectorReadHits</text>
</a>
</g>
<!-- Node1&#45;&gt;Node6 -->
<g id="edge10" class="edge"><title>Node1&#45;&gt;Node6</title>
<path fill="none" stroke="midnightblue" d="M306.183,-158.972C308.187,-160.203 310.133,-161.49 312,-162.836 332.22,-177.41 327.858,-191.155 348,-205.836 352.555,-209.156 357.595,-212.134 362.788,-214.782"/>
<polygon fill="midnightblue" stroke="midnightblue" points="307.538,-155.721 297.095,-153.932 304.144,-161.843 307.538,-155.721"/>
</g>
<!-- Node3 -->
<g id="node5" class="node"><title>Node3</title>
<a xlink:href="classant_1_1calibration_1_1_c_b___time_walk.html" target="_top" xlink:title="ant::calibration::CB\l_TimeWalk">
<polygon fill="white" stroke="black" points="525.5,-76.8361 525.5,-110.836 626.5,-110.836 626.5,-76.8361 525.5,-76.8361"/>
<text text-anchor="start" x="533.5" y="-97.8361" font-family="Helvetica,sans-Serif" font-size="10.00">ant::calibration::CB</text>
<text text-anchor="middle" x="576" y="-84.8361" font-family="Helvetica,sans-Serif" font-size="10.00">_TimeWalk</text>
</a>
</g>
<!-- Node2&#45;&gt;Node3 -->
<g id="edge4" class="edge"><title>Node2&#45;&gt;Node3</title>
<path fill="none" stroke="midnightblue" d="M478.928,-121.064C494.389,-116.727 510.591,-112.183 525.231,-108.076"/>
<polygon fill="midnightblue" stroke="midnightblue" points="477.582,-117.806 468.899,-123.877 479.473,-124.546 477.582,-117.806"/>
</g>
<!-- Node5 -->
<g id="node9" class="node"><title>Node5</title>
<a xlink:href="classant_1_1calibration_1_1_t_a_p_s___shower_correction.html" target="_top" xlink:title="ant::calibration::TAPS\l_ShowerCorrection">
<polygon fill="white" stroke="black" points="519.5,-5.83614 519.5,-39.8361 632.5,-39.8361 632.5,-5.83614 519.5,-5.83614"/>
<text text-anchor="start" x="527.5" y="-26.8361" font-family="Helvetica,sans-Serif" font-size="10.00">ant::calibration::TAPS</text>
<text text-anchor="middle" x="576" y="-13.8361" font-family="Helvetica,sans-Serif" font-size="10.00">_ShowerCorrection</text>
</a>
</g>
<!-- Node4&#45;&gt;Node5 -->
<g id="edge8" class="edge"><title>Node4&#45;&gt;Node5</title>
<path fill="none" stroke="midnightblue" d="M464.638,-66.9734C486.687,-58.2345 511.999,-48.2022 532.914,-39.9128"/>
<polygon fill="midnightblue" stroke="midnightblue" points="463.096,-63.8198 455.089,-70.7582 465.675,-70.3273 463.096,-63.8198"/>
</g>
<!-- Node7 -->
<g id="node13" class="node"><title>Node7</title>
<a xlink:href="structant_1_1calibration_1_1converter_1_1_c_a_t_c_h___t_d_c.html" target="_top" xlink:title="ant::calibration::converter\l::CATCH_TDC">
<polygon fill="white" stroke="black" points="512.5,-374.836 512.5,-408.836 639.5,-408.836 639.5,-374.836 512.5,-374.836"/>
<text text-anchor="start" x="520.5" y="-395.836" font-family="Helvetica,sans-Serif" font-size="10.00">ant::calibration::converter</text>
<text text-anchor="middle" x="576" y="-382.836" font-family="Helvetica,sans-Serif" font-size="10.00">::CATCH_TDC</text>
</a>
</g>
<!-- Node6&#45;&gt;Node7 -->
<g id="edge12" class="edge"><title>Node6&#45;&gt;Node7</title>
<path fill="none" stroke="midnightblue" d="M431.942,-256.919C451.251,-280.513 481.941,-316.239 512,-343.836 524.073,-354.92 538.613,-365.984 550.782,-374.692"/>
<polygon fill="midnightblue" stroke="midnightblue" points="434.626,-254.672 425.606,-249.113 429.19,-259.083 434.626,-254.672"/>
</g>
<!-- Node8 -->
<g id="node15" class="node"><title>Node8</title>
<a xlink:href="structant_1_1calibration_1_1converter_1_1_scaler_frequency.html" target="_top" xlink:title="ant::calibration::converter\l::ScalerFrequency">
<polygon fill="white" stroke="black" points="512.5,-300.836 512.5,-334.836 639.5,-334.836 639.5,-300.836 512.5,-300.836"/>
<text text-anchor="start" x="520.5" y="-321.836" font-family="Helvetica,sans-Serif" font-size="10.00">ant::calibration::converter</text>
<text text-anchor="middle" x="576" y="-308.836" font-family="Helvetica,sans-Serif" font-size="10.00">::ScalerFrequency</text>
</a>
</g>
<!-- Node6&#45;&gt;Node8 -->
<g id="edge14" class="edge"><title>Node6&#45;&gt;Node8</title>
<path fill="none" stroke="midnightblue" d="M446.681,-254.454C465.59,-266.32 489.639,-280.67 512,-291.836 518.223,-294.944 524.912,-297.978 531.535,-300.812"/>
<polygon fill="midnightblue" stroke="midnightblue" points="448.432,-251.42 438.111,-249.026 444.686,-257.334 448.432,-251.42"/>
</g>
<!-- Node9 -->
<g id="node17" class="node"><title>Node9</title>
<a xlink:href="classant_1_1calibration_1_1_energy.html" target="_top" xlink:title="ant::calibration::Energy">
<polygon fill="white" stroke="black" points="517.5,-221.336 517.5,-242.336 634.5,-242.336 634.5,-221.336 517.5,-221.336"/>
<text text-anchor="middle" x="576" y="-229.336" font-family="Helvetica,sans-Serif" font-size="10.00">ant::calibration::Energy</text>
</a>
</g>
<!-- Node6&#45;&gt;Node9 -->
<g id="edge16" class="edge"><title>Node6&#45;&gt;Node9</title>
<path fill="none" stroke="midnightblue" d="M478.948,-231.836C491.643,-231.836 504.836,-231.836 517.253,-231.836"/>
<polygon fill="midnightblue" stroke="midnightblue" points="478.899,-228.336 468.899,-231.836 478.899,-235.336 478.899,-228.336"/>
</g>
<!-- Node14 -->
<g id="node27" class="node"><title>Node14</title>
<a xlink:href="classant_1_1calibration_1_1_scaler.html" target="_top" xlink:title="ant::calibration::Scaler">
<polygon fill="white" stroke="black" points="519,-261.336 519,-282.336 633,-282.336 633,-261.336 519,-261.336"/>
<text text-anchor="middle" x="576" y="-269.336" font-family="Helvetica,sans-Serif" font-size="10.00">ant::calibration::Scaler</text>
</a>
</g>
<!-- Node6&#45;&gt;Node14 -->
<g id="edge26" class="edge"><title>Node6&#45;&gt;Node14</title>
<path fill="none" stroke="midnightblue" d="M478.644,-248.091C496.95,-252.556 516.314,-257.279 532.91,-261.326"/>
<polygon fill="midnightblue" stroke="midnightblue" points="479.444,-244.683 468.899,-245.714 477.785,-251.484 479.444,-244.683"/>
</g>
<!-- Node15 -->
<g id="node29" class="node"><title>Node15</title>
<a xlink:href="classant_1_1calibration_1_1_time.html" target="_top" xlink:title="ant::calibration::Time">
<polygon fill="white" stroke="black" points="522,-181.336 522,-202.336 630,-202.336 630,-181.336 522,-181.336"/>
<text text-anchor="middle" x="576" y="-189.336" font-family="Helvetica,sans-Serif" font-size="10.00">ant::calibration::Time</text>
</a>
</g>
<!-- Node6&#45;&gt;Node15 -->
<g id="edge28" class="edge"><title>Node6&#45;&gt;Node15</title>
<path fill="none" stroke="midnightblue" d="M478.644,-215.582C496.95,-211.117 516.314,-206.394 532.91,-202.346"/>
<polygon fill="midnightblue" stroke="midnightblue" points="477.785,-212.188 468.899,-217.958 479.444,-218.989 477.785,-212.188"/>
</g>
<!-- Node10 -->
<g id="node19" class="node"><title>Node10</title>
<a xlink:href="classant_1_1calibration_1_1_c_b___energy.html" target="_top" xlink:title="ant::calibration::CB\l_Energy">
<polygon fill="white" stroke="black" points="692.5,-292.836 692.5,-326.836 793.5,-326.836 793.5,-292.836 692.5,-292.836"/>
<text text-anchor="start" x="700.5" y="-313.836" font-family="Helvetica,sans-Serif" font-size="10.00">ant::calibration::CB</text>
<text text-anchor="middle" x="743" y="-300.836" font-family="Helvetica,sans-Serif" font-size="10.00">_Energy</text>
</a>
</g>
<!-- Node9&#45;&gt;Node10 -->
<g id="edge18" class="edge"><title>Node9&#45;&gt;Node10</title>
<path fill="none" stroke="midnightblue" d="M628.29,-246.11C632.343,-247.836 636.295,-249.741 640,-251.836 658.633,-262.376 657.732,-272.676 676,-283.836 681.324,-287.088 687.124,-290.062 693.011,-292.742"/>
<polygon fill="midnightblue" stroke="midnightblue" points="629.308,-242.751 618.719,-242.402 626.779,-249.278 629.308,-242.751"/>
</g>
<!-- Node11 -->
<g id="node21" class="node"><title>Node11</title>
<a xlink:href="classant_1_1calibration_1_1_p_i_d___energy.html" target="_top" xlink:title="ant::calibration::PID\l_Energy">
<polygon fill="white" stroke="black" points="691,-240.836 691,-274.836 795,-274.836 795,-240.836 691,-240.836"/>
<text text-anchor="start" x="699" y="-261.836" font-family="Helvetica,sans-Serif" font-size="10.00">ant::calibration::PID</text>
<text text-anchor="middle" x="743" y="-248.836" font-family="Helvetica,sans-Serif" font-size="10.00">_Energy</text>
</a>
</g>
<!-- Node9&#45;&gt;Node11 -->
<g id="edge20" class="edge"><title>Node9&#45;&gt;Node11</title>
<path fill="none" stroke="midnightblue" d="M644.842,-242.554C660.189,-244.943 676.218,-247.439 690.767,-249.704"/>
<polygon fill="midnightblue" stroke="midnightblue" points="645.297,-239.083 634.878,-241.003 644.22,-246 645.297,-239.083"/>
</g>
<!-- Node12 -->
<g id="node23" class="node"><title>Node12</title>
<a xlink:href="classant_1_1calibration_1_1_t_a_p_s___energy.html" target="_top" xlink:title="ant::calibration::TAPS\l_Energy">
<polygon fill="white" stroke="black" points="686.5,-188.836 686.5,-222.836 799.5,-222.836 799.5,-188.836 686.5,-188.836"/>
<text text-anchor="start" x="694.5" y="-209.836" font-family="Helvetica,sans-Serif" font-size="10.00">ant::calibration::TAPS</text>
<text text-anchor="middle" x="743" y="-196.836" font-family="Helvetica,sans-Serif" font-size="10.00">_Energy</text>
</a>
</g>
<!-- Node9&#45;&gt;Node12 -->
<g id="edge22" class="edge"><title>Node9&#45;&gt;Node12</title>
<path fill="none" stroke="midnightblue" d="M644.815,-221.122C658.627,-218.972 672.993,-216.735 686.336,-214.658"/>
<polygon fill="midnightblue" stroke="midnightblue" points="644.22,-217.673 634.878,-222.67 645.297,-224.589 644.22,-217.673"/>
</g>
<!-- Node13 -->
<g id="node25" class="node"><title>Node13</title>
<a xlink:href="classant_1_1calibration_1_1_t_a_p_s_veto___energy.html" target="_top" xlink:title="ant::calibration::TAPSVeto\l_Energy">
<polygon fill="white" stroke="black" points="676.5,-136.836 676.5,-170.836 809.5,-170.836 809.5,-136.836 676.5,-136.836"/>
<text text-anchor="start" x="684.5" y="-157.836" font-family="Helvetica,sans-Serif" font-size="10.00">ant::calibration::TAPSVeto</text>
<text text-anchor="middle" x="743" y="-144.836" font-family="Helvetica,sans-Serif" font-size="10.00">_Energy</text>
</a>
</g>
<!-- Node9&#45;&gt;Node13 -->
<g id="edge24" class="edge"><title>Node9&#45;&gt;Node13</title>
<path fill="none" stroke="midnightblue" d="M628.29,-217.562C632.343,-215.836 636.295,-213.932 640,-211.836 658.633,-201.297 657.732,-190.996 676,-179.836 681.324,-176.584 687.124,-173.61 693.011,-170.93"/>
<polygon fill="midnightblue" stroke="midnightblue" points="626.779,-214.394 618.719,-221.271 629.308,-220.922 626.779,-214.394"/>
</g>
<!-- Node16 -->
<g id="node30" class="node"><title>Node16</title>
<a xlink:href="classant_1_1_calibration_1_1_base_module.html" target="_top" xlink:title="The BaseModule class provides a name for identification. ">
<polygon fill="white" stroke="black" points="0.5,-178.336 0.5,-199.336 143.5,-199.336 143.5,-178.336 0.5,-178.336"/>
<text text-anchor="middle" x="72" y="-186.336" font-family="Helvetica,sans-Serif" font-size="10.00">ant::Calibration::BaseModule</text>
</a>
</g>
<!-- Node16&#45;&gt;Node5 -->
<g id="edge44" class="edge"><title>Node16&#45;&gt;Node5</title>
<path fill="none" stroke="midnightblue" d="M80.997,-169.02C96.3914,-137.6 130.942,-76.934 180,-47.8361 286.204,15.1563 437.829,2.19154 519.199,-11.2442"/>
<polygon fill="midnightblue" stroke="midnightblue" points="77.8053,-167.583 76.6779,-178.117 84.1288,-170.585 77.8053,-167.583"/>
</g>
<!-- Node16&#45;&gt;Node14 -->
<g id="edge42" class="edge"><title>Node16&#45;&gt;Node14</title>
<path fill="none" stroke="midnightblue" d="M115.489,-202.349C169.446,-218.499 264.539,-244.953 348,-257.836 405.615,-266.73 472.24,-270.026 518.531,-271.22"/>
<polygon fill="midnightblue" stroke="midnightblue" points="116.168,-198.899 105.583,-199.362 114.146,-205.6 116.168,-198.899"/>
</g>
<!-- Node17 -->
<g id="node32" class="node"><title>Node17</title>
<a xlink:href="classant_1_1_calibration_1_1_physics_module.html" target="_top" xlink:title="The PhysicsModule class gives the modules the ability to create histograms from events as well as fit...">
<polygon fill="white" stroke="black" points="184,-171.836 184,-205.836 308,-205.836 308,-171.836 184,-171.836"/>
<text text-anchor="start" x="192" y="-192.836" font-family="Helvetica,sans-Serif" font-size="10.00">ant::Calibration::Physics</text>
<text text-anchor="middle" x="246" y="-179.836" font-family="Helvetica,sans-Serif" font-size="10.00">Module</text>
</a>
</g>
<!-- Node16&#45;&gt;Node17 -->
<g id="edge30" class="edge"><title>Node16&#45;&gt;Node17</title>
<path fill="none" stroke="midnightblue" d="M153.653,-188.836C163.833,-188.836 174.112,-188.836 183.928,-188.836"/>
<polygon fill="midnightblue" stroke="midnightblue" points="153.526,-185.336 143.526,-188.836 153.526,-192.336 153.526,-185.336"/>
</g>
<!-- Node18 -->
<g id="node34" class="node"><title>Node18</title>
<a xlink:href="classant_1_1_calibration_1_1_module.html" target="_top" xlink:title="The Module class is typically used for calibrations. ">
<polygon fill="white" stroke="black" points="352,-175.336 352,-196.336 472,-196.336 472,-175.336 352,-175.336"/>
<text text-anchor="middle" x="412" y="-183.336" font-family="Helvetica,sans-Serif" font-size="10.00">ant::Calibration::Module</text>
</a>
</g>
<!-- Node17&#45;&gt;Node18 -->
<g id="edge32" class="edge"><title>Node17&#45;&gt;Node18</title>
<path fill="none" stroke="midnightblue" d="M318.431,-187.527C329.584,-187.326 340.996,-187.119 351.844,-186.923"/>
<polygon fill="midnightblue" stroke="midnightblue" points="318.22,-184.03 308.285,-187.711 318.346,-191.029 318.22,-184.03"/>
</g>
<!-- Node18&#45;&gt;Node3 -->
<g id="edge34" class="edge"><title>Node18&#45;&gt;Node3</title>
<path fill="none" stroke="midnightblue" d="M467.331,-170.994C470.356,-169.437 473.271,-167.723 476,-165.836 497.356,-151.074 491.275,-135.471 512,-119.836 516.404,-116.514 521.292,-113.546 526.347,-110.912"/>
<polygon fill="midnightblue" stroke="midnightblue" points="465.672,-167.903 458,-175.209 468.554,-174.282 465.672,-167.903"/>
</g>
<!-- Node18&#45;&gt;Node9 -->
<g id="edge36" class="edge"><title>Node18&#45;&gt;Node9</title>
<path fill="none" stroke="midnightblue" d="M459.341,-199.115C484.52,-206.177 515.042,-214.738 538.55,-221.332"/>
<polygon fill="midnightblue" stroke="midnightblue" points="460.199,-195.72 449.625,-196.389 458.308,-202.46 460.199,-195.72"/>
</g>
<!-- Node18&#45;&gt;Node15 -->
<g id="edge40" class="edge"><title>Node18&#45;&gt;Node15</title>
<path fill="none" stroke="midnightblue" d="M482.182,-188.404C495.457,-188.889 509.154,-189.391 521.842,-189.855"/>
<polygon fill="midnightblue" stroke="midnightblue" points="482.258,-184.904 472.136,-188.036 482.002,-191.9 482.258,-184.904"/>
</g>
<!-- Node19 -->
<g id="node38" class="node"><title>Node19</title>
<a xlink:href="classant_1_1calibration_1_1_p_i_d___phi_angle.html" target="_top" xlink:title="ant::calibration::PID\l_PhiAngle">
<polygon fill="white" stroke="black" points="524,-128.836 524,-162.836 628,-162.836 628,-128.836 524,-128.836"/>
<text text-anchor="start" x="532" y="-149.836" font-family="Helvetica,sans-Serif" font-size="10.00">ant::calibration::PID</text>
<text text-anchor="middle" x="576" y="-136.836" font-family="Helvetica,sans-Serif" font-size="10.00">_PhiAngle</text>
</a>
</g>
<!-- Node18&#45;&gt;Node19 -->
<g id="edge38" class="edge"><title>Node18&#45;&gt;Node19</title>
<path fill="none" stroke="midnightblue" d="M465.001,-172.909C483.858,-168.31 505.064,-163.138 523.849,-158.556"/>
<polygon fill="midnightblue" stroke="midnightblue" points="463.975,-169.557 455.089,-175.327 465.634,-176.357 463.975,-169.557"/>
</g>
<!-- Node20 -->
<g id="node42" class="node"><title>Node20</title>
<a xlink:href="structant_1_1_calibration_1_1_converter.html" target="_top" xlink:title="The Converter struct handles the transition from raw bytes to somewhat meaningful values (not necessa...">
<polygon fill="white" stroke="black" points="180.5,-351.336 180.5,-372.336 311.5,-372.336 311.5,-351.336 180.5,-351.336"/>
<text text-anchor="middle" x="246" y="-359.336" font-family="Helvetica,sans-Serif" font-size="10.00">ant::Calibration::Converter</text>
</a>
</g>
<!-- Node20&#45;&gt;Node8 -->
<g id="edge52" class="edge"><title>Node20&#45;&gt;Node8</title>
<path fill="none" stroke="midnightblue" d="M291.096,-348.575C308.708,-343.862 329.161,-338.957 348,-335.836 403.037,-326.718 466.339,-322.186 512.256,-319.954"/>
<polygon fill="midnightblue" stroke="midnightblue" points="289.811,-345.298 281.089,-351.312 291.658,-352.05 289.811,-345.298"/>
</g>
<!-- Node21 -->
<g id="node44" class="node"><title>Node21</title>
<a xlink:href="structant_1_1calibration_1_1converter_1_1_ge_si_ca___s_a_d_c.html" target="_top" xlink:title="ant::calibration::converter\l::GeSiCa_SADC">
<polygon fill="white" stroke="black" points="348.5,-344.836 348.5,-378.836 475.5,-378.836 475.5,-344.836 348.5,-344.836"/>
<text text-anchor="start" x="356.5" y="-365.836" font-family="Helvetica,sans-Serif" font-size="10.00">ant::calibration::converter</text>
<text text-anchor="middle" x="412" y="-352.836" font-family="Helvetica,sans-Serif" font-size="10.00">::GeSiCa_SADC</text>
</a>
</g>
<!-- Node20&#45;&gt;Node21 -->
<g id="edge46" class="edge"><title>Node20&#45;&gt;Node21</title>
<path fill="none" stroke="midnightblue" d="M321.663,-361.836C330.633,-361.836 339.718,-361.836 348.495,-361.836"/>
<polygon fill="midnightblue" stroke="midnightblue" points="321.608,-358.336 311.608,-361.836 321.608,-365.336 321.608,-358.336"/>
</g>
<!-- Node22 -->
<g id="node46" class="node"><title>Node22</title>
<a xlink:href="structant_1_1calibration_1_1converter_1_1_multi_hit16bit.html" target="_top" xlink:title="ant::calibration::converter\l::MultiHit16bit">
<polygon fill="white" stroke="black" points="348.5,-396.836 348.5,-430.836 475.5,-430.836 475.5,-396.836 348.5,-396.836"/>
<text text-anchor="start" x="356.5" y="-417.836" font-family="Helvetica,sans-Serif" font-size="10.00">ant::calibration::converter</text>
<text text-anchor="middle" x="412" y="-404.836" font-family="Helvetica,sans-Serif" font-size="10.00">::MultiHit16bit</text>
</a>
</g>
<!-- Node20&#45;&gt;Node22 -->
<g id="edge48" class="edge"><title>Node20&#45;&gt;Node22</title>
<path fill="none" stroke="midnightblue" d="M289.155,-375.354C310.043,-381.898 335.345,-389.824 357.545,-396.778"/>
<polygon fill="midnightblue" stroke="midnightblue" points="290.182,-372.009 279.593,-372.359 288.089,-378.688 290.182,-372.009"/>
</g>
<!-- Node22&#45;&gt;Node7 -->
<g id="edge50" class="edge"><title>Node22&#45;&gt;Node7</title>
<path fill="none" stroke="midnightblue" d="M485.788,-403.938C494.635,-402.751 503.611,-401.547 512.298,-400.382"/>
<polygon fill="midnightblue" stroke="midnightblue" points="485.322,-400.469 475.876,-405.267 486.253,-407.407 485.322,-400.469"/>
</g>
<!-- Node23 -->
<g id="node49" class="node"><title>Node23</title>
<a xlink:href="classant_1_1_updateable__traits.html" target="_top" xlink:title="The Updateable_traits class used by the UpdateableManager. ">
<polygon fill="white" stroke="black" points="189.5,-57.3361 189.5,-78.3361 302.5,-78.3361 302.5,-57.3361 189.5,-57.3361"/>
<text text-anchor="middle" x="246" y="-65.3361" font-family="Helvetica,sans-Serif" font-size="10.00">ant::Updateable_traits</text>
</a>
</g>
<!-- Node23&#45;&gt;Node18 -->
<g id="edge54" class="edge"><title>Node23&#45;&gt;Node18</title>
<path fill="none" stroke="midnightblue" d="M275.799,-83.6383C287.874,-90.919 301.432,-100.29 312,-110.836 332.68,-131.472 324.69,-148.224 348,-165.836 353.015,-169.626 358.763,-172.706 364.71,-175.209"/>
<polygon fill="midnightblue" stroke="midnightblue" points="277.335,-80.4828 266.928,-78.4935 273.823,-86.5382 277.335,-80.4828"/>
</g>
<!-- Node24 -->
<g id="node52" class="node"><title>Node24</title>
<a xlink:href="struct_updateable_item.html" target="_top" xlink:title="UpdateableItem">
<polygon fill="white" stroke="black" points="369,-31.3361 369,-52.3361 455,-52.3361 455,-31.3361 369,-31.3361"/>
<text text-anchor="middle" x="412" y="-39.3361" font-family="Helvetica,sans-Serif" font-size="10.00">UpdateableItem</text>
</a>
</g>
<!-- Node23&#45;&gt;Node24 -->
<g id="edge56" class="edge"><title>Node23&#45;&gt;Node24</title>
<path fill="none" stroke="midnightblue" d="M312.742,-57.3826C331.69,-54.4148 351.815,-51.2627 368.955,-48.5782"/>
<polygon fill="midnightblue" stroke="midnightblue" points="312.001,-53.9558 302.663,-58.9611 313.085,-60.8715 312.001,-53.9558"/>
</g>
</g>
</svg>
