<?xml version="1.0" encoding="UTF-8" standalone="no"?>
<!DOCTYPE svg PUBLIC "-//W3C//DTD SVG 1.1//EN"
 "http://www.w3.org/Graphics/SVG/1.1/DTD/svg11.dtd">
<!-- Generated by graphviz version 2.26.3 (20100126.1600)
 -->
<!-- Title: Graphical Class Hierarchy Pages: 1 -->
<svg width="542pt" height="146pt"
 viewBox="0.00 0.00 542.00 146.00" xmlns="http://www.w3.org/2000/svg" xmlns:xlink="http://www.w3.org/1999/xlink">
<g id="graph1" class="graph" transform="scale(1 1) rotate(0) translate(4 142)">
<title>Graphical Class Hierarchy</title>
<polygon fill="white" stroke="white" points="-4,5 -4,-142 539,-142 539,5 -4,5"/>
<!-- Node1 -->
<g id="node1" class="node"><title>Node1</title>
<a xlink:href="classant_1_1calibration_1_1gui_1_1_indicator_knob.html" target="_top" xlink:title="ant::calibration::gui\l::IndicatorKnob">
<polygon fill="white" stroke="black" points="0.5,-52 0.5,-86 99.5,-86 99.5,-52 0.5,-52"/>
<text text-anchor="start" x="8.5" y="-73" font-family="Helvetica,sans-Serif" font-size="10.00">ant::calibration::gui</text>
<text text-anchor="middle" x="50" y="-60" font-family="Helvetica,sans-Serif" font-size="10.00">::IndicatorKnob</text>
</a>
</g>
<!-- Node2 -->
<g id="node3" class="node"><title>Node2</title>
<a xlink:href="classant_1_1calibration_1_1gui_1_1_knobs_t_f1_1_1_parameter_knob.html" target="_top" xlink:title="ant::calibration::gui\l::KnobsTF1::ParameterKnob">
<polygon fill="white" stroke="black" points="158.5,-104 158.5,-138 299.5,-138 299.5,-104 158.5,-104"/>
<text text-anchor="start" x="166.5" y="-125" font-family="Helvetica,sans-Serif" font-size="10.00">ant::calibration::gui</text>
<text text-anchor="middle" x="229" y="-112" font-family="Helvetica,sans-Serif" font-size="10.00">::KnobsTF1::ParameterKnob</text>
</a>
</g>
<!-- Node1&#45;&gt;Node2 -->
<g id="edge2" class="edge"><title>Node1&#45;&gt;Node2</title>
<path fill="none" stroke="midnightblue" d="M109.16,-87.0636C118.143,-89.7549 127.311,-92.4722 136,-95 146.141,-97.9503 156.924,-101.023 167.417,-103.979"/>
<polygon fill="midnightblue" stroke="midnightblue" points="110.101,-83.6918 99.5168,-84.1639 108.085,-90.3953 110.101,-83.6918"/>
</g>
<!-- Node4 -->
<g id="node7" class="node"><title>Node4</title>
<a xlink:href="classant_1_1calibration_1_1gui_1_1_knobs_t_f1_1_1_range_knob.html" target="_top" xlink:title="ant::calibration::gui\l::KnobsTF1::RangeKnob">
<polygon fill="white" stroke="black" points="166.5,-52 166.5,-86 291.5,-86 291.5,-52 166.5,-52"/>
<text text-anchor="start" x="174.5" y="-73" font-family="Helvetica,sans-Serif" font-size="10.00">ant::calibration::gui</text>
<text text-anchor="middle" x="229" y="-60" font-family="Helvetica,sans-Serif" font-size="10.00">::KnobsTF1::RangeKnob</text>
</a>
</g>
<!-- Node1&#45;&gt;Node4 -->
<g id="edge6" class="edge"><title>Node1&#45;&gt;Node4</title>
<path fill="none" stroke="midnightblue" d="M109.998,-69C128.105,-69 148.025,-69 166.302,-69"/>
<polygon fill="midnightblue" stroke="midnightblue" points="109.862,-65.5001 99.8615,-69 109.861,-72.5001 109.862,-65.5001"/>
</g>
<!-- Node5 -->
<g id="node9" class="node"><title>Node5</title>
<a xlink:href="classant_1_1calibration_1_1gui_1_1_knobs_t_f1_1_1_reference_parameter_knob.html" target="_top" xlink:title="ant::calibration::gui\l::KnobsTF1::ReferenceParameterKnob">
<polygon fill="white" stroke="black" points="136,-0 136,-34 322,-34 322,-0 136,-0"/>
<text text-anchor="start" x="144" y="-21" font-family="Helvetica,sans-Serif" font-size="10.00">ant::calibration::gui</text>
<text text-anchor="middle" x="229" y="-8" font-family="Helvetica,sans-Serif" font-size="10.00">::KnobsTF1::ReferenceParameterKnob</text>
</a>
</g>
<!-- Node1&#45;&gt;Node5 -->
<g id="edge8" class="edge"><title>Node1&#45;&gt;Node5</title>
<path fill="none" stroke="midnightblue" d="M109.16,-50.9364C118.143,-48.2451 127.311,-45.5278 136,-43 146.141,-40.0497 156.924,-36.9769 167.417,-34.0205"/>
<polygon fill="midnightblue" stroke="midnightblue" points="108.085,-47.6047 99.5168,-53.8361 110.101,-54.3082 108.085,-47.6047"/>
</g>
<!-- Node3 -->
<g id="node5" class="node"><title>Node3</title>
<a xlink:href="classant_1_1calibration_1_1gui_1_1_knobs_t_f1_1_1_ranged_parameter_knob.html" target="_top" xlink:title="ant::calibration::gui\l::KnobsTF1::RangedParameterKnob">
<polygon fill="white" stroke="black" points="358.5,-104 358.5,-138 533.5,-138 533.5,-104 358.5,-104"/>
<text text-anchor="start" x="366.5" y="-125" font-family="Helvetica,sans-Serif" font-size="10.00">ant::calibration::gui</text>
<text text-anchor="middle" x="446" y="-112" font-family="Helvetica,sans-Serif" font-size="10.00">::KnobsTF1::RangedParameterKnob</text>
</a>
</g>
<!-- Node2&#45;&gt;Node3 -->
<g id="edge4" class="edge"><title>Node2&#45;&gt;Node3</title>
<path fill="none" stroke="midnightblue" d="M309.971,-121C325.724,-121 342.306,-121 358.265,-121"/>
<polygon fill="midnightblue" stroke="midnightblue" points="309.754,-117.5 299.754,-121 309.754,-124.5 309.754,-117.5"/>
</g>
</g>
</svg>
