<?xml version="1.0" encoding="UTF-8" standalone="no"?>
<!DOCTYPE svg PUBLIC "-//W3C//DTD SVG 1.1//EN"
 "http://www.w3.org/Graphics/SVG/1.1/DTD/svg11.dtd">
<!-- Generated by graphviz version 2.26.3 (20100126.1600)
 -->
<!-- Title: Graphical Class Hierarchy Pages: 1 -->
<svg width="282pt" height="94pt"
 viewBox="0.00 0.00 282.00 94.00" xmlns="http://www.w3.org/2000/svg" xmlns:xlink="http://www.w3.org/1999/xlink">
<g id="graph1" class="graph" transform="scale(1 1) rotate(0) translate(4 90)">
<title>Graphical Class Hierarchy</title>
<polygon fill="white" stroke="white" points="-4,5 -4,-90 279,-90 279,5 -4,5"/>
<!-- Node1 -->
<g id="node1" class="node"><title>Node1</title>
<a xlink:href="classant_1_1simulation_1_1mc_1_1_managed_pluto_reaction.html" target="_top" xlink:title="ant::simulation::mc\l::ManagedPlutoReaction">
<polygon fill="white" stroke="black" points="0,-26 0,-60 124,-60 124,-26 0,-26"/>
<text text-anchor="start" x="8" y="-47" font-family="Helvetica,sans-Serif" font-size="10.00">ant::simulation::mc</text>
<text text-anchor="middle" x="62" y="-34" font-family="Helvetica,sans-Serif" font-size="10.00">::ManagedPlutoReaction</text>
</a>
</g>
<!-- Node2 -->
<g id="node3" class="node"><title>Node2</title>
<a xlink:href="classant_1_1simulation_1_1mc_1_1_a2_cocktail.html" target="_top" xlink:title="The A2Cocktail. ">
<polygon fill="white" stroke="black" points="167,-52 167,-86 267,-86 267,-52 167,-52"/>
<text text-anchor="start" x="175" y="-73" font-family="Helvetica,sans-Serif" font-size="10.00">ant::simulation::mc</text>
<text text-anchor="middle" x="217" y="-60" font-family="Helvetica,sans-Serif" font-size="10.00">::A2Cocktail</text>
</a>
</g>
<!-- Node1&#45;&gt;Node2 -->
<g id="edge2" class="edge"><title>Node1&#45;&gt;Node2</title>
<path fill="none" stroke="midnightblue" d="M134.192,-55.1096C145.196,-56.9555 156.344,-58.8255 166.743,-60.5698"/>
<polygon fill="midnightblue" stroke="midnightblue" points="134.593,-51.628 124.151,-53.4254 133.435,-58.5315 134.593,-51.628"/>
</g>
<!-- Node3 -->
<g id="node5" class="node"><title>Node3</title>
<a xlink:href="classant_1_1simulation_1_1mc_1_1_fixed_energy_cocktail.html" target="_top" xlink:title="The A2OldCocktail class generates MC events for a fixed energy, using the Pluto class PDecayManager...">
<polygon fill="white" stroke="black" points="160.5,-0 160.5,-34 273.5,-34 273.5,-0 160.5,-0"/>
<text text-anchor="start" x="168.5" y="-21" font-family="Helvetica,sans-Serif" font-size="10.00">ant::simulation::mc</text>
<text text-anchor="middle" x="217" y="-8" font-family="Helvetica,sans-Serif" font-size="10.00">::FixedEnergyCocktail</text>
</a>
</g>
<!-- Node1&#45;&gt;Node3 -->
<g id="edge4" class="edge"><title>Node1&#45;&gt;Node3</title>
<path fill="none" stroke="midnightblue" d="M134.051,-30.914C142.877,-29.4335 151.798,-27.9371 160.353,-26.5021"/>
<polygon fill="midnightblue" stroke="midnightblue" points="133.435,-27.4685 124.151,-32.5746 134.593,-34.372 133.435,-27.4685"/>
</g>
</g>
</svg>
