<?xml version="1.0" encoding="UTF-8" standalone="no"?>
<!DOCTYPE svg PUBLIC "-//W3C//DTD SVG 1.1//EN"
 "http://www.w3.org/Graphics/SVG/1.1/DTD/svg11.dtd">
<!-- Generated by graphviz version 2.26.3 (20100126.1600)
 -->
<!-- Title: Graphical Class Hierarchy Pages: 1 -->
<svg width="266pt" height="82pt"
 viewBox="0.00 0.00 266.00 82.00" xmlns="http://www.w3.org/2000/svg" xmlns:xlink="http://www.w3.org/1999/xlink">
<g id="graph1" class="graph" transform="scale(1 1) rotate(0) translate(4 78)">
<title>Graphical Class Hierarchy</title>
<polygon fill="white" stroke="white" points="-4,5 -4,-78 263,-78 263,5 -4,5"/>
<!-- Node1 -->
<g id="node1" class="node"><title>Node1</title>
<a xlink:href="classant_1_1calibration_1_1gui_1_1_manager_window__traits.html" target="_top" xlink:title="ant::calibration::gui\l::ManagerWindow_traits">
<polygon fill="white" stroke="black" points="0,-40 0,-74 122,-74 122,-40 0,-40"/>
<text text-anchor="start" x="8" y="-61" font-family="Helvetica,sans-Serif" font-size="10.00">ant::calibration::gui</text>
<text text-anchor="middle" x="61" y="-48" font-family="Helvetica,sans-Serif" font-size="10.00">::ManagerWindow_traits</text>
</a>
</g>
<!-- Node2 -->
<g id="node3" class="node"><title>Node2</title>
<a xlink:href="classant_1_1calibration_1_1gui_1_1_manager_window.html" target="_top" xlink:title="ant::calibration::gui\l::ManagerWindow">
<polygon fill="white" stroke="black" points="158.5,-17 158.5,-51 257.5,-51 257.5,-17 158.5,-17"/>
<text text-anchor="start" x="166.5" y="-38" font-family="Helvetica,sans-Serif" font-size="10.00">ant::calibration::gui</text>
<text text-anchor="middle" x="208" y="-25" font-family="Helvetica,sans-Serif" font-size="10.00">::ManagerWindow</text>
</a>
</g>
<!-- Node1&#45;&gt;Node2 -->
<g id="edge2" class="edge"><title>Node1&#45;&gt;Node2</title>
<path fill="none" stroke="midnightblue" d="M131.975,-45.8951C140.795,-44.5151 149.664,-43.1274 158.072,-41.8118"/>
<polygon fill="midnightblue" stroke="midnightblue" points="131.403,-42.4419 122.064,-47.4457 132.485,-49.3578 131.403,-42.4419"/>
</g>
<!-- Node3 -->
<g id="node4" class="node"><title>Node3</title>
<polygon fill="white" stroke="#bfbfbf" points="21.5,-0.5 21.5,-21.5 100.5,-21.5 100.5,-0.5 21.5,-0.5"/>
<text text-anchor="middle" x="61" y="-8.5" font-family="Helvetica,sans-Serif" font-size="10.00">TGMainFrame</text>
</g>
<!-- Node3&#45;&gt;Node2 -->
<g id="edge4" class="edge"><title>Node3&#45;&gt;Node2</title>
<path fill="none" stroke="midnightblue" d="M111.093,-18.8377C126.392,-21.2314 143.202,-23.8615 158.464,-26.2494"/>
<polygon fill="midnightblue" stroke="midnightblue" points="111.201,-15.3121 100.78,-17.2241 110.119,-22.228 111.201,-15.3121"/>
</g>
</g>
</svg>
