<?xml version="1.0" encoding="UTF-8" standalone="no"?>
<!DOCTYPE svg PUBLIC "-//W3C//DTD SVG 1.1//EN"
 "http://www.w3.org/Graphics/SVG/1.1/DTD/svg11.dtd">
<!-- Generated by graphviz version 2.26.3 (20100126.1600)
 -->
<!-- Title: Graphical Class Hierarchy Pages: 1 -->
<svg width="272pt" height="94pt"
 viewBox="0.00 0.00 272.00 94.00" xmlns="http://www.w3.org/2000/svg" xmlns:xlink="http://www.w3.org/1999/xlink">
<g id="graph1" class="graph" transform="scale(1 1) rotate(0) translate(4 90)">
<title>Graphical Class Hierarchy</title>
<polygon fill="white" stroke="white" points="-4,5 -4,-90 269,-90 269,5 -4,5"/>
<!-- Node1 -->
<g id="node1" class="node"><title>Node1</title>
<a xlink:href="classant_1_1analysis_1_1utils_1_1_particle_i_d.html" target="_top" xlink:title="ant::analysis::utils\l::ParticleID">
<polygon fill="white" stroke="black" points="0,-26 0,-60 96,-60 96,-26 0,-26"/>
<text text-anchor="start" x="8" y="-47" font-family="Helvetica,sans-Serif" font-size="10.00">ant::analysis::utils</text>
<text text-anchor="middle" x="48" y="-34" font-family="Helvetica,sans-Serif" font-size="10.00">::ParticleID</text>
</a>
</g>
<!-- Node2 -->
<g id="node3" class="node"><title>Node2</title>
<a xlink:href="classant_1_1analysis_1_1utils_1_1_basic_particle_i_d.html" target="_top" xlink:title="ant::analysis::utils\l::BasicParticleID">
<polygon fill="white" stroke="black" points="150,-52 150,-86 246,-86 246,-52 150,-52"/>
<text text-anchor="start" x="158" y="-73" font-family="Helvetica,sans-Serif" font-size="10.00">ant::analysis::utils</text>
<text text-anchor="middle" x="198" y="-60" font-family="Helvetica,sans-Serif" font-size="10.00">::BasicParticleID</text>
</a>
</g>
<!-- Node1&#45;&gt;Node2 -->
<g id="edge2" class="edge"><title>Node1&#45;&gt;Node2</title>
<path fill="none" stroke="midnightblue" d="M106.536,-53.1462C120.86,-55.629 136.027,-58.2579 149.804,-60.646"/>
<polygon fill="midnightblue" stroke="midnightblue" points="106.737,-49.629 96.2866,-51.3697 105.542,-56.5262 106.737,-49.629"/>
</g>
<!-- Node3 -->
<g id="node5" class="node"><title>Node3</title>
<a xlink:href="classant_1_1analysis_1_1utils_1_1_c_b_t_a_p_s_basic_particle_i_d.html" target="_top" xlink:title="ant::analysis::utils\l::CBTAPSBasicParticleID">
<polygon fill="white" stroke="black" points="132.5,-0 132.5,-34 263.5,-34 263.5,-0 132.5,-0"/>
<text text-anchor="start" x="140.5" y="-21" font-family="Helvetica,sans-Serif" font-size="10.00">ant::analysis::utils</text>
<text text-anchor="middle" x="198" y="-8" font-family="Helvetica,sans-Serif" font-size="10.00">::CBTAPSBasicParticleID</text>
</a>
</g>
<!-- Node1&#45;&gt;Node3 -->
<g id="edge4" class="edge"><title>Node1&#45;&gt;Node3</title>
<path fill="none" stroke="midnightblue" d="M106.169,-32.9174C114.732,-31.4331 123.604,-29.8952 132.307,-28.3868"/>
<polygon fill="midnightblue" stroke="midnightblue" points="105.542,-29.4738 96.2866,-34.6303 106.737,-36.3709 105.542,-29.4738"/>
</g>
</g>
</svg>
