<?xml version="1.0" encoding="UTF-8" standalone="no"?>
<!DOCTYPE svg PUBLIC "-//W3C//DTD SVG 1.1//EN"
 "http://www.w3.org/Graphics/SVG/1.1/DTD/svg11.dtd">
<!-- Generated by graphviz version 2.26.3 (20100126.1600)
 -->
<!-- Title: Graphical Class Hierarchy Pages: 1 -->
<svg width="480pt" height="260pt"
 viewBox="0.00 0.00 480.00 260.00" xmlns="http://www.w3.org/2000/svg" xmlns:xlink="http://www.w3.org/1999/xlink">
<g id="graph1" class="graph" transform="scale(1 1) rotate(0) translate(4 256)">
<title>Graphical Class Hierarchy</title>
<polygon fill="white" stroke="white" points="-4,5 -4,-256 477,-256 477,5 -4,5"/>
<!-- Node1 -->
<g id="node1" class="node"><title>Node1</title>
<a xlink:href="classant_1_1root__drawable__traits.html" target="_top" xlink:title="ant::root_drawable\l_traits">
<polygon fill="white" stroke="black" points="0.5,-57 0.5,-91 97.5,-91 97.5,-57 0.5,-57"/>
<text text-anchor="start" x="8.5" y="-78" font-family="Helvetica,sans-Serif" font-size="10.00">ant::root_drawable</text>
<text text-anchor="middle" x="49" y="-65" font-family="Helvetica,sans-Serif" font-size="10.00">_traits</text>
</a>
</g>
<!-- Node2 -->
<g id="node3" class="node"><title>Node2</title>
<a xlink:href="classant_1_1analysis_1_1_smart_hist1_base.html" target="_top" xlink:title="ant::analysis::SmartHist1Base">
<polygon fill="white" stroke="black" points="134,-132.5 134,-153.5 284,-153.5 284,-132.5 134,-132.5"/>
<text text-anchor="middle" x="209" y="-140.5" font-family="Helvetica,sans-Serif" font-size="10.00">ant::analysis::SmartHist1Base</text>
</a>
</g>
<!-- Node1&#45;&gt;Node2 -->
<g id="edge2" class="edge"><title>Node1&#45;&gt;Node2</title>
<path fill="none" stroke="midnightblue" d="M83.0253,-96.3594C98.1651,-105.577 116.497,-115.769 134,-123 142.843,-126.653 152.55,-129.818 161.961,-132.485"/>
<polygon fill="midnightblue" stroke="midnightblue" points="84.8527,-93.3743 74.5104,-91.0746 81.1613,-99.3219 84.8527,-93.3743"/>
</g>
<!-- Node8 -->
<g id="node15" class="node"><title>Node8</title>
<a xlink:href="classant_1_1canvas_1_1drawable__container.html" target="_top" xlink:title="ant::canvas::drawable\l_container\&lt; T \&gt;">
<polygon fill="white" stroke="black" points="152.5,-80 152.5,-114 265.5,-114 265.5,-80 152.5,-80"/>
<text text-anchor="start" x="160.5" y="-101" font-family="Helvetica,sans-Serif" font-size="10.00">ant::canvas::drawable</text>
<text text-anchor="middle" x="209" y="-88" font-family="Helvetica,sans-Serif" font-size="10.00">_container&lt; T &gt;</text>
</a>
</g>
<!-- Node1&#45;&gt;Node8 -->
<g id="edge14" class="edge"><title>Node1&#45;&gt;Node8</title>
<path fill="none" stroke="midnightblue" d="M108.175,-82.5064C122.596,-84.5794 137.987,-86.7919 152.291,-88.8481"/>
<polygon fill="midnightblue" stroke="midnightblue" points="108.271,-78.9843 97.8747,-81.0257 107.275,-85.9131 108.271,-78.9843"/>
</g>
<!-- Node9 -->
<g id="node17" class="node"><title>Node9</title>
<a xlink:href="classant_1_1hstack.html" target="_top" xlink:title="The hstack class. ">
<polygon fill="white" stroke="black" points="176.5,-40.5 176.5,-61.5 241.5,-61.5 241.5,-40.5 176.5,-40.5"/>
<text text-anchor="middle" x="209" y="-48.5" font-family="Helvetica,sans-Serif" font-size="10.00">ant::hstack</text>
</a>
</g>
<!-- Node1&#45;&gt;Node9 -->
<g id="edge16" class="edge"><title>Node1&#45;&gt;Node9</title>
<path fill="none" stroke="midnightblue" d="M107.903,-65.5327C130.925,-62.2233 156.457,-58.5531 176.102,-55.729"/>
<polygon fill="midnightblue" stroke="midnightblue" points="107.275,-62.0869 97.8747,-66.9743 108.271,-69.0157 107.275,-62.0869"/>
</g>
<!-- Node10 -->
<g id="node19" class="node"><title>Node10</title>
<a xlink:href="classant_1_1_text_pad.html" target="_top" xlink:title="ant::TextPad">
<polygon fill="white" stroke="black" points="172.5,-0.5 172.5,-21.5 245.5,-21.5 245.5,-0.5 172.5,-0.5"/>
<text text-anchor="middle" x="209" y="-8.5" font-family="Helvetica,sans-Serif" font-size="10.00">ant::TextPad</text>
</a>
</g>
<!-- Node1&#45;&gt;Node10 -->
<g id="edge18" class="edge"><title>Node1&#45;&gt;Node10</title>
<path fill="none" stroke="midnightblue" d="M87.9765,-52.1422C102.173,-44.7581 118.536,-36.8996 134,-31 146.213,-26.3406 159.938,-22.3407 172.277,-19.1695"/>
<polygon fill="midnightblue" stroke="midnightblue" points="86.1905,-49.1275 78.9915,-56.9008 89.4668,-55.3135 86.1905,-49.1275"/>
</g>
<!-- Node3 -->
<g id="node5" class="node"><title>Node3</title>
<a xlink:href="classant_1_1analysis_1_1_smart_hist1.html" target="_top" xlink:title="ant::analysis::SmartHist1\&lt; T \&gt;">
<polygon fill="white" stroke="black" points="320,-230.5 320,-251.5 472,-251.5 472,-230.5 320,-230.5"/>
<text text-anchor="middle" x="396" y="-238.5" font-family="Helvetica,sans-Serif" font-size="10.00">ant::analysis::SmartHist1&lt; T &gt;</text>
</a>
</g>
<!-- Node2&#45;&gt;Node3 -->
<g id="edge4" class="edge"><title>Node2&#45;&gt;Node3</title>
<path fill="none" stroke="midnightblue" d="M228.739,-160.181C249.948,-177.813 285.303,-204.88 320,-221 328.043,-224.737 336.901,-227.865 345.642,-230.453"/>
<polygon fill="midnightblue" stroke="midnightblue" points="230.973,-157.486 221.075,-153.706 226.455,-162.833 230.973,-157.486"/>
</g>
<!-- Node4 -->
<g id="node7" class="node"><title>Node4</title>
<a xlink:href="classant_1_1analysis_1_1_smart_hist1.html" target="_top" xlink:title="ant::analysis::SmartHist1\l\&lt; const data::ParticlePtr &amp; \&gt;">
<polygon fill="white" stroke="black" points="325,-178 325,-212 467,-212 467,-178 325,-178"/>
<text text-anchor="start" x="333" y="-199" font-family="Helvetica,sans-Serif" font-size="10.00">ant::analysis::SmartHist1</text>
<text text-anchor="middle" x="396" y="-186" font-family="Helvetica,sans-Serif" font-size="10.00">&lt; const data::ParticlePtr &amp; &gt;</text>
</a>
</g>
<!-- Node2&#45;&gt;Node4 -->
<g id="edge6" class="edge"><title>Node2&#45;&gt;Node4</title>
<path fill="none" stroke="midnightblue" d="M256.659,-156.253C280.37,-162.846 309.308,-170.893 334.656,-177.942"/>
<polygon fill="midnightblue" stroke="midnightblue" points="257.414,-152.83 246.842,-153.523 255.539,-159.574 257.414,-152.83"/>
</g>
<!-- Node5 -->
<g id="node9" class="node"><title>Node5</title>
<a xlink:href="classant_1_1analysis_1_1_smart_hist1.html" target="_top" xlink:title="ant::analysis::SmartHist1\l\&lt; double \&gt;">
<polygon fill="white" stroke="black" points="332,-126 332,-160 460,-160 460,-126 332,-126"/>
<text text-anchor="start" x="340" y="-147" font-family="Helvetica,sans-Serif" font-size="10.00">ant::analysis::SmartHist1</text>
<text text-anchor="middle" x="396" y="-134" font-family="Helvetica,sans-Serif" font-size="10.00">&lt; double &gt;</text>
</a>
</g>
<!-- Node2&#45;&gt;Node5 -->
<g id="edge8" class="edge"><title>Node2&#45;&gt;Node5</title>
<path fill="none" stroke="midnightblue" d="M294.284,-143C306.87,-143 319.655,-143 331.719,-143"/>
<polygon fill="midnightblue" stroke="midnightblue" points="294.252,-139.5 284.252,-143 294.252,-146.5 294.252,-139.5"/>
</g>
<!-- Node6 -->
<g id="node11" class="node"><title>Node6</title>
<a xlink:href="classant_1_1analysis_1_1_smart_hist1.html" target="_top" xlink:title="ant::analysis::SmartHist1\l\&lt; int \&gt;">
<polygon fill="white" stroke="black" points="332,-74 332,-108 460,-108 460,-74 332,-74"/>
<text text-anchor="start" x="340" y="-95" font-family="Helvetica,sans-Serif" font-size="10.00">ant::analysis::SmartHist1</text>
<text text-anchor="middle" x="396" y="-82" font-family="Helvetica,sans-Serif" font-size="10.00">&lt; int &gt;</text>
</a>
</g>
<!-- Node2&#45;&gt;Node6 -->
<g id="edge10" class="edge"><title>Node2&#45;&gt;Node6</title>
<path fill="none" stroke="midnightblue" d="M258.844,-129.84C267.248,-127.584 275.877,-125.243 284,-123 301.251,-118.236 319.96,-112.941 337.057,-108.052"/>
<polygon fill="midnightblue" stroke="midnightblue" points="257.882,-126.475 249.126,-132.44 259.691,-133.237 257.882,-126.475"/>
</g>
<!-- Node7 -->
<g id="node13" class="node"><title>Node7</title>
<a xlink:href="classant_1_1analysis_1_1_smart_hist1.html" target="_top" xlink:title="ant::analysis::SmartHist1\l\&lt; std::string \&gt;">
<polygon fill="white" stroke="black" points="332,-22 332,-56 460,-56 460,-22 332,-22"/>
<text text-anchor="start" x="340" y="-43" font-family="Helvetica,sans-Serif" font-size="10.00">ant::analysis::SmartHist1</text>
<text text-anchor="middle" x="396" y="-30" font-family="Helvetica,sans-Serif" font-size="10.00">&lt; std::string &gt;</text>
</a>
</g>
<!-- Node2&#45;&gt;Node7 -->
<g id="edge12" class="edge"><title>Node2&#45;&gt;Node7</title>
<path fill="none" stroke="midnightblue" d="M276.015,-128.092C278.805,-126.558 281.483,-124.866 284,-123 308.372,-104.931 296.266,-83.899 320,-65 324.255,-61.6122 328.977,-58.6532 333.925,-56.071"/>
<polygon fill="midnightblue" stroke="midnightblue" points="274.319,-125.023 266.788,-132.475 277.322,-131.346 274.319,-125.023"/>
</g>
</g>
</svg>
