<?xml version="1.0" encoding="UTF-8" standalone="no"?>
<!DOCTYPE svg PUBLIC "-//W3C//DTD SVG 1.1//EN"
 "http://www.w3.org/Graphics/SVG/1.1/DTD/svg11.dtd">
<!-- Generated by graphviz version 2.26.3 (20100126.1600)
 -->
<!-- Title: Graphical Class Hierarchy Pages: 1 -->
<svg width="200pt" height="110pt"
 viewBox="0.00 0.00 200.00 110.00" xmlns="http://www.w3.org/2000/svg" xmlns:xlink="http://www.w3.org/1999/xlink">
<g id="graph1" class="graph" transform="scale(1 1) rotate(0) translate(4 106)">
<title>Graphical Class Hierarchy</title>
<polygon fill="white" stroke="white" points="-4,5 -4,-106 197,-106 197,5 -4,5"/>
<!-- Node1 -->
<g id="node1" class="node"><title>Node1</title>
<a xlink:href="classant_1_1modifier.html" target="_top" xlink:title="ant::modifier">
<polygon fill="white" stroke="black" points="0.5,-40.5 0.5,-61.5 71.5,-61.5 71.5,-40.5 0.5,-40.5"/>
<text text-anchor="middle" x="36" y="-48.5" font-family="Helvetica,sans-Serif" font-size="10.00">ant::modifier</text>
</a>
</g>
<!-- Node2 -->
<g id="node3" class="node"><title>Node2</title>
<a xlink:href="classant_1_1drawoption.html" target="_top" xlink:title="ant::drawoption">
<polygon fill="white" stroke="black" points="108.5,-80.5 108.5,-101.5 191.5,-101.5 191.5,-80.5 108.5,-80.5"/>
<text text-anchor="middle" x="150" y="-88.5" font-family="Helvetica,sans-Serif" font-size="10.00">ant::drawoption</text>
</a>
</g>
<!-- Node1&#45;&gt;Node2 -->
<g id="edge2" class="edge"><title>Node1&#45;&gt;Node2</title>
<path fill="none" stroke="midnightblue" d="M75.6723,-64.9201C90.1696,-70.0069 106.32,-75.6735 119.852,-80.4218"/>
<polygon fill="midnightblue" stroke="midnightblue" points="76.547,-61.5179 65.9522,-61.5095 74.2293,-68.1231 76.547,-61.5179"/>
</g>
<!-- Node3 -->
<g id="node5" class="node"><title>Node3</title>
<a xlink:href="classant_1_1endcanvas.html" target="_top" xlink:title="ant::endcanvas">
<polygon fill="white" stroke="black" points="108.5,-40.5 108.5,-61.5 191.5,-61.5 191.5,-40.5 108.5,-40.5"/>
<text text-anchor="middle" x="150" y="-48.5" font-family="Helvetica,sans-Serif" font-size="10.00">ant::endcanvas</text>
</a>
</g>
<!-- Node1&#45;&gt;Node3 -->
<g id="edge4" class="edge"><title>Node1&#45;&gt;Node3</title>
<path fill="none" stroke="midnightblue" d="M81.8382,-51C90.614,-51 99.7572,-51 108.391,-51"/>
<polygon fill="midnightblue" stroke="midnightblue" points="81.7576,-47.5001 71.7575,-51 81.7575,-54.5001 81.7576,-47.5001"/>
</g>
<!-- Node4 -->
<g id="node7" class="node"><title>Node4</title>
<a xlink:href="classant_1_1padoption.html" target="_top" xlink:title="ant::padoption">
<polygon fill="white" stroke="black" points="111,-0.5 111,-21.5 189,-21.5 189,-0.5 111,-0.5"/>
<text text-anchor="middle" x="150" y="-8.5" font-family="Helvetica,sans-Serif" font-size="10.00">ant::padoption</text>
</a>
</g>
<!-- Node1&#45;&gt;Node4 -->
<g id="edge6" class="edge"><title>Node1&#45;&gt;Node4</title>
<path fill="none" stroke="midnightblue" d="M75.6723,-37.0799C90.1696,-31.9931 106.32,-26.3265 119.852,-21.5782"/>
<polygon fill="midnightblue" stroke="midnightblue" points="74.2293,-33.8769 65.9522,-40.4905 76.547,-40.4821 74.2293,-33.8769"/>
</g>
</g>
</svg>
