<?xml version="1.0" encoding="UTF-8" standalone="no"?>
<!DOCTYPE svg PUBLIC "-//W3C//DTD SVG 1.1//EN"
 "http://www.w3.org/Graphics/SVG/1.1/DTD/svg11.dtd">
<!-- Generated by graphviz version 2.26.3 (20100126.1600)
 -->
<!-- Title: Graphical Class Hierarchy Pages: 1 -->
<svg width="596pt" height="286pt"
 viewBox="0.00 0.00 596.00 286.00" xmlns="http://www.w3.org/2000/svg" xmlns:xlink="http://www.w3.org/1999/xlink">
<g id="graph1" class="graph" transform="scale(1 1) rotate(0) translate(4 282)">
<title>Graphical Class Hierarchy</title>
<polygon fill="white" stroke="white" points="-4,5 -4,-282 593,-282 593,5 -4,5"/>
<!-- Node1 -->
<g id="node1" class="node"><title>Node1</title>
<a xlink:title="STL class. ">
<polygon fill="white" stroke="#bfbfbf" points="0,-164.5 0,-185.5 78,-185.5 78,-164.5 0,-164.5"/>
<text text-anchor="middle" x="39" y="-172.5" font-family="Helvetica,sans-Serif" font-size="10.00">std::exception</text>
</a>
</g>
<!-- Node2 -->
<g id="node3" class="node"><title>Node2</title>
<a xlink:href="classant_1_1analysis_1_1uninitialized__histogram.html" target="_top" xlink:title="ant::analysis::uninitialized\l_histogram">
<polygon fill="white" stroke="black" points="114.5,-181 114.5,-215 243.5,-215 243.5,-181 114.5,-181"/>
<text text-anchor="start" x="122.5" y="-202" font-family="Helvetica,sans-Serif" font-size="10.00">ant::analysis::uninitialized</text>
<text text-anchor="middle" x="179" y="-189" font-family="Helvetica,sans-Serif" font-size="10.00">_histogram</text>
</a>
</g>
<!-- Node1&#45;&gt;Node2 -->
<g id="edge2" class="edge"><title>Node1&#45;&gt;Node2</title>
<path fill="none" stroke="midnightblue" d="M88.411,-183.118C96.8512,-184.504 105.73,-185.963 114.493,-187.402"/>
<polygon fill="midnightblue" stroke="midnightblue" points="88.8055,-179.635 78.3704,-181.468 87.6707,-186.543 88.8055,-179.635"/>
</g>
<!-- Node3 -->
<g id="node5" class="node"><title>Node3</title>
<a xlink:title="STL class. ">
<polygon fill="white" stroke="#bfbfbf" points="132.5,-141.5 132.5,-162.5 225.5,-162.5 225.5,-141.5 132.5,-141.5"/>
<text text-anchor="middle" x="179" y="-149.5" font-family="Helvetica,sans-Serif" font-size="10.00">std::runtime_error</text>
</a>
</g>
<!-- Node1&#45;&gt;Node3 -->
<g id="edge4" class="edge"><title>Node1&#45;&gt;Node3</title>
<path fill="none" stroke="midnightblue" d="M88.5251,-166.864C102.827,-164.514 118.38,-161.959 132.491,-159.641"/>
<polygon fill="midnightblue" stroke="midnightblue" points="87.6707,-163.457 78.3704,-168.532 88.8055,-170.365 87.6707,-163.457"/>
</g>
<!-- Node4 -->
<g id="node7" class="node"><title>Node4</title>
<a xlink:href="classant_1_1analysis_1_1input_1_1_data_reader_1_1_exception.html" target="_top" xlink:title="ant::analysis::input\l::DataReader::Exception">
<polygon fill="white" stroke="black" points="287.5,-244 287.5,-278 412.5,-278 412.5,-244 287.5,-244"/>
<text text-anchor="start" x="295.5" y="-265" font-family="Helvetica,sans-Serif" font-size="10.00">ant::analysis::input</text>
<text text-anchor="middle" x="350" y="-252" font-family="Helvetica,sans-Serif" font-size="10.00">::DataReader::Exception</text>
</a>
</g>
<!-- Node3&#45;&gt;Node4 -->
<g id="edge6" class="edge"><title>Node3&#45;&gt;Node4</title>
<path fill="none" stroke="midnightblue" d="M234.641,-165.831C237.955,-167.641 241.111,-169.687 244,-172 269.176,-192.154 255.41,-214.135 280,-235 283.954,-238.355 288.381,-241.296 293.038,-243.872"/>
<polygon fill="midnightblue" stroke="midnightblue" points="236.112,-162.655 225.573,-161.569 233.134,-168.99 236.112,-162.655"/>
</g>
<!-- Node5 -->
<g id="node9" class="node"><title>Node5</title>
<a xlink:href="classant_1_1_detector__t_1_1_exception.html" target="_top" xlink:title="ant::Detector_t::Exception">
<polygon fill="white" stroke="black" points="284.5,-204.5 284.5,-225.5 415.5,-225.5 415.5,-204.5 284.5,-204.5"/>
<text text-anchor="middle" x="350" y="-212.5" font-family="Helvetica,sans-Serif" font-size="10.00">ant::Detector_t::Exception</text>
</a>
</g>
<!-- Node3&#45;&gt;Node5 -->
<g id="edge8" class="edge"><title>Node3&#45;&gt;Node5</title>
<path fill="none" stroke="#8b1a1a" d="M229.243,-165.957C234.3,-167.806 239.299,-169.824 244,-172 261.23,-179.976 262.69,-187.199 280,-195 288.066,-198.635 296.955,-201.778 305.613,-204.425"/>
<polygon fill="#8b1a1a" stroke="#8b1a1a" points="230.106,-162.552 219.511,-162.61 227.829,-169.172 230.106,-162.552"/>
</g>
<!-- Node6 -->
<g id="node11" class="node"><title>Node6</title>
<a xlink:href="classant_1_1_exp_config_1_1_exception.html" target="_top" xlink:title="ant::ExpConfig::Exception">
<polygon fill="white" stroke="black" points="284.5,-164.5 284.5,-185.5 415.5,-185.5 415.5,-164.5 284.5,-164.5"/>
<text text-anchor="middle" x="350" y="-172.5" font-family="Helvetica,sans-Serif" font-size="10.00">ant::ExpConfig::Exception</text>
</a>
</g>
<!-- Node3&#45;&gt;Node6 -->
<g id="edge10" class="edge"><title>Node3&#45;&gt;Node6</title>
<path fill="none" stroke="midnightblue" d="M235.741,-159.632C251.335,-161.729 268.374,-164.021 284.422,-166.18"/>
<polygon fill="midnightblue" stroke="midnightblue" points="236.104,-156.149 225.727,-158.285 235.171,-163.087 236.104,-156.149"/>
</g>
<!-- Node8 -->
<g id="node15" class="node"><title>Node8</title>
<a xlink:href="classant_1_1_raw_file_reader_1_1_exception.html" target="_top" xlink:title="ant::RawFileReader\l::Exception">
<polygon fill="white" stroke="black" points="298,-112 298,-146 402,-146 402,-112 298,-112"/>
<text text-anchor="start" x="306" y="-133" font-family="Helvetica,sans-Serif" font-size="10.00">ant::RawFileReader</text>
<text text-anchor="middle" x="350" y="-120" font-family="Helvetica,sans-Serif" font-size="10.00">::Exception</text>
</a>
</g>
<!-- Node3&#45;&gt;Node8 -->
<g id="edge14" class="edge"><title>Node3&#45;&gt;Node8</title>
<path fill="none" stroke="midnightblue" d="M235.673,-144.377C255.751,-141.677 278.232,-138.653 297.911,-136.006"/>
<polygon fill="midnightblue" stroke="midnightblue" points="235.171,-140.913 225.727,-145.715 236.104,-147.851 235.171,-140.913"/>
</g>
<!-- Node9 -->
<g id="node17" class="node"><title>Node9</title>
<a xlink:href="classant_1_1_reconstruct_1_1_exception.html" target="_top" xlink:title="ant::Reconstruct::Exception">
<polygon fill="white" stroke="black" points="280.5,-72.5 280.5,-93.5 419.5,-93.5 419.5,-72.5 280.5,-72.5"/>
<text text-anchor="middle" x="350" y="-80.5" font-family="Helvetica,sans-Serif" font-size="10.00">ant::Reconstruct::Exception</text>
</a>
</g>
<!-- Node3&#45;&gt;Node9 -->
<g id="edge16" class="edge"><title>Node3&#45;&gt;Node9</title>
<path fill="none" stroke="midnightblue" d="M207.154,-136.707C227.097,-126.282 254.697,-112.669 280,-103 289.091,-99.5262 299.046,-96.3327 308.523,-93.5651"/>
<polygon fill="midnightblue" stroke="midnightblue" points="205.498,-133.623 198.294,-141.392 208.77,-139.812 205.498,-133.623"/>
</g>
<!-- Node10 -->
<g id="node19" class="node"><title>Node10</title>
<a xlink:href="classant_1_1_unpacker_1_1_exception.html" target="_top" xlink:title="The Exception class is thrown if an unexpected error during unpacking occurs. ">
<polygon fill="white" stroke="black" points="286,-32.5 286,-53.5 414,-53.5 414,-32.5 286,-32.5"/>
<text text-anchor="middle" x="350" y="-40.5" font-family="Helvetica,sans-Serif" font-size="10.00">ant::Unpacker::Exception</text>
</a>
</g>
<!-- Node3&#45;&gt;Node10 -->
<g id="edge18" class="edge"><title>Node3&#45;&gt;Node10</title>
<path fill="none" stroke="midnightblue" d="M195.012,-133.676C213.553,-113.551 245.936,-81.6232 280,-63 286.876,-59.241 294.527,-56.1296 302.175,-53.5727"/>
<polygon fill="midnightblue" stroke="midnightblue" points="192.272,-131.488 188.169,-141.257 197.468,-136.179 192.272,-131.488"/>
</g>
<!-- Node7 -->
<g id="node13" class="node"><title>Node7</title>
<a xlink:href="classant_1_1_exp_config_1_1_exception_no_config.html" target="_top" xlink:title="ant::ExpConfig::Exception\lNoConfig">
<polygon fill="white" stroke="black" points="456.5,-158 456.5,-192 587.5,-192 587.5,-158 456.5,-158"/>
<text text-anchor="start" x="464.5" y="-179" font-family="Helvetica,sans-Serif" font-size="10.00">ant::ExpConfig::Exception</text>
<text text-anchor="middle" x="522" y="-166" font-family="Helvetica,sans-Serif" font-size="10.00">NoConfig</text>
</a>
</g>
<!-- Node6&#45;&gt;Node7 -->
<g id="edge12" class="edge"><title>Node6&#45;&gt;Node7</title>
<path fill="none" stroke="midnightblue" d="M425.666,-175C435.903,-175 446.339,-175 456.381,-175"/>
<polygon fill="midnightblue" stroke="midnightblue" points="425.517,-171.5 415.516,-175 425.516,-178.5 425.517,-171.5"/>
</g>
<!-- Node11 -->
<g id="node21" class="node"><title>Node11</title>
<a xlink:href="classant_1_1_unpacker_a2_geant_1_1_exception.html" target="_top" xlink:title="ant::UnpackerA2Geant\l::Exception">
<polygon fill="white" stroke="black" points="464,-52 464,-86 580,-86 580,-52 464,-52"/>
<text text-anchor="start" x="472" y="-73" font-family="Helvetica,sans-Serif" font-size="10.00">ant::UnpackerA2Geant</text>
<text text-anchor="middle" x="522" y="-60" font-family="Helvetica,sans-Serif" font-size="10.00">::Exception</text>
</a>
</g>
<!-- Node10&#45;&gt;Node11 -->
<g id="edge20" class="edge"><title>Node10&#45;&gt;Node11</title>
<path fill="none" stroke="midnightblue" d="M424.118,-54.2038C437.414,-56.2138 451.097,-58.2822 463.862,-60.2117"/>
<polygon fill="midnightblue" stroke="midnightblue" points="424.457,-50.7155 414.046,-52.6814 423.411,-57.6369 424.457,-50.7155"/>
</g>
<!-- Node12 -->
<g id="node23" class="node"><title>Node12</title>
<a xlink:href="classant_1_1_unpacker_acqu_1_1_exception.html" target="_top" xlink:title="ant::UnpackerAcqu::\lException">
<polygon fill="white" stroke="black" points="468.5,-0 468.5,-34 575.5,-34 575.5,-0 468.5,-0"/>
<text text-anchor="start" x="476.5" y="-21" font-family="Helvetica,sans-Serif" font-size="10.00">ant::UnpackerAcqu::</text>
<text text-anchor="middle" x="522" y="-8" font-family="Helvetica,sans-Serif" font-size="10.00">Exception</text>
</a>
</g>
<!-- Node10&#45;&gt;Node12 -->
<g id="edge22" class="edge"><title>Node10&#45;&gt;Node12</title>
<path fill="none" stroke="midnightblue" d="M424.214,-31.7817C439.042,-29.5402 454.346,-27.2267 468.319,-25.1146"/>
<polygon fill="midnightblue" stroke="midnightblue" points="423.411,-28.3631 414.046,-33.3186 424.457,-35.2845 423.411,-28.3631"/>
</g>
</g>
</svg>
