<?xml version="1.0" encoding="UTF-8" standalone="no"?>
<!DOCTYPE svg PUBLIC "-//W3C//DTD SVG 1.1//EN"
 "http://www.w3.org/Graphics/SVG/1.1/DTD/svg11.dtd">
<!-- Generated by graphviz version 2.26.3 (20100126.1600)
 -->
<!-- Title: Graphical Class Hierarchy Pages: 1 -->
<svg width="314pt" height="42pt"
 viewBox="0.00 0.00 314.00 42.00" xmlns="http://www.w3.org/2000/svg" xmlns:xlink="http://www.w3.org/1999/xlink">
<g id="graph1" class="graph" transform="scale(1 1) rotate(0) translate(4 38)">
<title>Graphical Class Hierarchy</title>
<polygon fill="white" stroke="white" points="-4,5 -4,-38 311,-38 311,5 -4,5"/>
<!-- Node1 -->
<g id="node1" class="node"><title>Node1</title>
<a xlink:href="structant_1_1_unpacker_acqu_config_1_1mapping__t.html" target="_top" xlink:title="ant::UnpackerAcquConfig\l::mapping_t\&lt; std::uint16_t \&gt;">
<polygon fill="white" stroke="black" points="0,-0 0,-34 140,-34 140,-0 0,-0"/>
<text text-anchor="start" x="8" y="-21" font-family="Helvetica,sans-Serif" font-size="10.00">ant::UnpackerAcquConfig</text>
<text text-anchor="middle" x="70" y="-8" font-family="Helvetica,sans-Serif" font-size="10.00">::mapping_t&lt; std::uint16_t &gt;</text>
</a>
</g>
<!-- Node2 -->
<g id="node3" class="node"><title>Node2</title>
<a xlink:href="structant_1_1_unpacker_acqu_config_1_1hit__mapping__t.html" target="_top" xlink:title="ant::UnpackerAcquConfig\l::hit_mapping_t">
<polygon fill="white" stroke="black" points="176.5,-0 176.5,-34 305.5,-34 305.5,-0 176.5,-0"/>
<text text-anchor="start" x="184.5" y="-21" font-family="Helvetica,sans-Serif" font-size="10.00">ant::UnpackerAcquConfig</text>
<text text-anchor="middle" x="241" y="-8" font-family="Helvetica,sans-Serif" font-size="10.00">::hit_mapping_t</text>
</a>
</g>
<!-- Node1&#45;&gt;Node2 -->
<g id="edge2" class="edge"><title>Node1&#45;&gt;Node2</title>
<path fill="none" stroke="midnightblue" d="M150.24,-17C158.972,-17 167.777,-17 176.289,-17"/>
<polygon fill="midnightblue" stroke="midnightblue" points="150.046,-13.5001 140.046,-17 150.046,-20.5001 150.046,-13.5001"/>
</g>
</g>
</svg>
