<?xml version="1.0" encoding="UTF-8" standalone="no"?>
<!DOCTYPE svg PUBLIC "-//W3C//DTD SVG 1.1//EN"
 "http://www.w3.org/Graphics/SVG/1.1/DTD/svg11.dtd">
<!-- Generated by graphviz version 2.26.3 (20100126.1600)
 -->
<!-- Title: src/base/iterators.h Pages: 1 -->
<svg width="272pt" height="102pt"
 viewBox="0.00 0.00 272.00 102.00" xmlns="http://www.w3.org/2000/svg" xmlns:xlink="http://www.w3.org/1999/xlink">
<g id="graph1" class="graph" transform="scale(1 1) rotate(0) translate(4 98)">
<title>src/base/iterators.h</title>
<polygon fill="white" stroke="white" points="-4,5 -4,-98 269,-98 269,5 -4,5"/>
<!-- Node1 -->
<g id="node1" class="node"><title>Node1</title>
<polygon fill="#bfbfbf" stroke="black" points="89.5,-72.5 89.5,-93.5 190.5,-93.5 190.5,-72.5 89.5,-72.5"/>
<text text-anchor="middle" x="140" y="-80.5" font-family="Helvetica,sans-Serif" font-size="10.00">src/base/iterators.h</text>
</g>
<!-- Node2 -->
<g id="node3" class="node"><title>Node2</title>
<a xlink:href="omega__histograms_8cc.html" target="_top" xlink:title="progs/omega_histograms.cc">
<polygon fill="white" stroke="black" points="0,-7.5 0,-28.5 140,-28.5 140,-7.5 0,-7.5"/>
<text text-anchor="middle" x="70" y="-15.5" font-family="Helvetica,sans-Serif" font-size="10.00">progs/omega_histograms.cc</text>
</a>
</g>
<!-- Node1&#45;&gt;Node2 -->
<g id="edge2" class="edge"><title>Node1&#45;&gt;Node2</title>
<path fill="none" stroke="midnightblue" d="M121.083,-65.4338C108.384,-53.6419 92.0751,-38.4983 81.344,-28.5337"/>
<polygon fill="midnightblue" stroke="midnightblue" points="118.731,-68.0268 128.441,-72.2666 123.495,-62.8972 118.731,-68.0268"/>
</g>
<!-- Node3 -->
<g id="node5" class="node"><title>Node3</title>
<a xlink:href="omega_8cc.html" target="_top" xlink:title="src/analysis/physics\l/omega/omega.cc">
<polygon fill="white" stroke="black" points="158,-1 158,-35 264,-35 264,-1 158,-1"/>
<text text-anchor="start" x="166" y="-22" font-family="Helvetica,sans-Serif" font-size="10.00">src/analysis/physics</text>
<text text-anchor="middle" x="211" y="-9" font-family="Helvetica,sans-Serif" font-size="10.00">/omega/omega.cc</text>
</a>
</g>
<!-- Node1&#45;&gt;Node3 -->
<g id="edge4" class="edge"><title>Node1&#45;&gt;Node3</title>
<path fill="none" stroke="midnightblue" d="M159.37,-65.2667C169.625,-55.8787 182.16,-44.4029 192.311,-35.1099"/>
<polygon fill="midnightblue" stroke="midnightblue" points="156.737,-62.9324 151.724,-72.2666 161.463,-68.0956 156.737,-62.9324"/>
</g>
</g>
</svg>
