<?xml version="1.0" encoding="UTF-8" standalone="no"?>
<!DOCTYPE svg PUBLIC "-//W3C//DTD SVG 1.1//EN"
 "http://www.w3.org/Graphics/SVG/1.1/DTD/svg11.dtd">
<!-- Generated by graphviz version 2.26.3 (20100126.1600)
 -->
<!-- Title: src/analysis/utils/matcher.h Pages: 1 -->
<svg width="428pt" height="218pt"
 viewBox="0.00 0.00 428.00 218.00" xmlns="http://www.w3.org/2000/svg" xmlns:xlink="http://www.w3.org/1999/xlink">
<g id="graph1" class="graph" transform="scale(1 1) rotate(0) translate(4 214)">
<title>src/analysis/utils/matcher.h</title>
<polygon fill="white" stroke="white" points="-4,5 -4,-214 425,-214 425,5 -4,5"/>
<!-- Node1 -->
<g id="node1" class="node"><title>Node1</title>
<polygon fill="#bfbfbf" stroke="black" points="67,-175 67,-209 157,-209 157,-175 67,-175"/>
<text text-anchor="start" x="75" y="-196" font-family="Helvetica,sans-Serif" font-size="10.00">src/analysis/utils</text>
<text text-anchor="middle" x="112" y="-183" font-family="Helvetica,sans-Serif" font-size="10.00">/matcher.h</text>
</g>
<!-- Node2 -->
<g id="node3" class="node"><title>Node2</title>
<polygon fill="white" stroke="#bfbfbf" points="-0.5,-116.5 -0.5,-137.5 28.5,-137.5 28.5,-116.5 -0.5,-116.5"/>
<text text-anchor="middle" x="14" y="-124.5" font-family="Helvetica,sans-Serif" font-size="10.00">list</text>
</g>
<!-- Node1&#45;&gt;Node2 -->
<g id="edge2" class="edge"><title>Node1&#45;&gt;Node2</title>
<path fill="none" stroke="midnightblue" d="M86.2517,-174.922C71.0356,-164.83 51.9252,-152.154 37.1809,-142.375"/>
<polygon fill="midnightblue" stroke="midnightblue" points="38.9067,-139.32 28.6385,-136.709 35.0375,-145.153 38.9067,-139.32"/>
</g>
<!-- Node3 -->
<g id="node5" class="node"><title>Node3</title>
<polygon fill="white" stroke="#bfbfbf" points="106,-0.5 106,-21.5 150,-21.5 150,-0.5 106,-0.5"/>
<text text-anchor="middle" x="128" y="-8.5" font-family="Helvetica,sans-Serif" font-size="10.00">vector</text>
</g>
<!-- Node1&#45;&gt;Node3 -->
<g id="edge4" class="edge"><title>Node1&#45;&gt;Node3</title>
<path fill="none" stroke="midnightblue" d="M99.996,-174.925C83.2846,-148.887 56.9825,-98.0593 75,-58 80.5176,-45.7325 90.995,-35.3682 101.187,-27.52"/>
<polygon fill="midnightblue" stroke="midnightblue" points="103.464,-30.1944 109.566,-21.5328 99.3947,-24.499 103.464,-30.1944"/>
</g>
<!-- Node4 -->
<g id="node7" class="node"><title>Node4</title>
<polygon fill="white" stroke="#bfbfbf" points="84,-58.5 84,-79.5 140,-79.5 140,-58.5 84,-58.5"/>
<text text-anchor="middle" x="112" y="-66.5" font-family="Helvetica,sans-Serif" font-size="10.00">algorithm</text>
</g>
<!-- Node1&#45;&gt;Node4 -->
<g id="edge6" class="edge"><title>Node1&#45;&gt;Node4</title>
<path fill="none" stroke="midnightblue" d="M112,-174.897C112,-152.673 112,-113.886 112,-89.9293"/>
<polygon fill="midnightblue" stroke="midnightblue" points="115.5,-89.7874 112,-79.7875 108.5,-89.7875 115.5,-89.7874"/>
</g>
<!-- Node5 -->
<g id="node9" class="node"><title>Node5</title>
<a xlink:href="interval_8h.html" target="_top" xlink:title="base/interval.h">
<polygon fill="white" stroke="black" points="183,-116.5 183,-137.5 263,-137.5 263,-116.5 183,-116.5"/>
<text text-anchor="middle" x="223" y="-124.5" font-family="Helvetica,sans-Serif" font-size="10.00">base/interval.h</text>
</a>
</g>
<!-- Node1&#45;&gt;Node5 -->
<g id="edge8" class="edge"><title>Node1&#45;&gt;Node5</title>
<path fill="none" stroke="midnightblue" d="M141.164,-174.922C158.182,-164.957 179.5,-152.473 196.112,-142.745"/>
<polygon fill="midnightblue" stroke="midnightblue" points="197.938,-145.732 204.799,-137.658 194.401,-139.691 197.938,-145.732"/>
</g>
<!-- Node10 -->
<g id="node21" class="node"><title>Node10</title>
<polygon fill="white" stroke="#bfbfbf" points="380,-58.5 380,-79.5 420,-79.5 420,-58.5 380,-58.5"/>
<text text-anchor="middle" x="400" y="-66.5" font-family="Helvetica,sans-Serif" font-size="10.00">limits</text>
</g>
<!-- Node1&#45;&gt;Node10 -->
<g id="edge24" class="edge"><title>Node1&#45;&gt;Node10</title>
<path fill="none" stroke="midnightblue" d="M157.249,-178.968C189.718,-169.079 234.222,-154.417 272,-138 308.499,-122.138 348.584,-99.6473 373.997,-84.706"/>
<polygon fill="midnightblue" stroke="midnightblue" points="375.846,-87.6793 382.663,-79.5691 372.276,-81.6578 375.846,-87.6793"/>
</g>
<!-- Node5&#45;&gt;Node4 -->
<g id="edge10" class="edge"><title>Node5&#45;&gt;Node4</title>
<path fill="none" stroke="midnightblue" d="M202.899,-116.497C185.718,-107.519 160.77,-94.4835 141.355,-84.3387"/>
<polygon fill="midnightblue" stroke="midnightblue" points="142.811,-81.1503 132.327,-79.6212 139.569,-87.3544 142.811,-81.1503"/>
</g>
<!-- Node6 -->
<g id="node12" class="node"><title>Node6</title>
<polygon fill="white" stroke="#bfbfbf" points="157.5,-58.5 157.5,-79.5 216.5,-79.5 216.5,-58.5 157.5,-58.5"/>
<text text-anchor="middle" x="187" y="-66.5" font-family="Helvetica,sans-Serif" font-size="10.00">stdexcept</text>
</g>
<!-- Node5&#45;&gt;Node6 -->
<g id="edge12" class="edge"><title>Node5&#45;&gt;Node6</title>
<path fill="none" stroke="midnightblue" d="M216.397,-116.362C211.525,-108.513 204.762,-97.6159 198.95,-88.2527"/>
<polygon fill="midnightblue" stroke="midnightblue" points="201.809,-86.2213 193.561,-79.5707 195.861,-89.9129 201.809,-86.2213"/>
</g>
<!-- Node7 -->
<g id="node14" class="node"><title>Node7</title>
<a xlink:href="printable_8h.html" target="_top" xlink:title="printable.h">
<polygon fill="white" stroke="black" points="234,-58.5 234,-79.5 296,-79.5 296,-58.5 234,-58.5"/>
<text text-anchor="middle" x="265" y="-66.5" font-family="Helvetica,sans-Serif" font-size="10.00">printable.h</text>
</a>
</g>
<!-- Node5&#45;&gt;Node7 -->
<g id="edge14" class="edge"><title>Node5&#45;&gt;Node7</title>
<path fill="none" stroke="midnightblue" d="M230.703,-116.362C236.446,-108.431 244.443,-97.3885 251.27,-87.9606"/>
<polygon fill="midnightblue" stroke="midnightblue" points="254.315,-89.7229 257.345,-79.5707 248.645,-85.6173 254.315,-89.7229"/>
</g>
<!-- Node9 -->
<g id="node19" class="node"><title>Node9</title>
<a xlink:href="types_8h.html" target="_top" xlink:title="types.h">
<polygon fill="white" stroke="black" points="313.5,-58.5 313.5,-79.5 362.5,-79.5 362.5,-58.5 313.5,-58.5"/>
<text text-anchor="middle" x="338" y="-66.5" font-family="Helvetica,sans-Serif" font-size="10.00">types.h</text>
</a>
</g>
<!-- Node5&#45;&gt;Node9 -->
<g id="edge20" class="edge"><title>Node5&#45;&gt;Node9</title>
<path fill="none" stroke="midnightblue" d="M243.826,-116.497C261.706,-107.479 287.707,-94.3649 307.861,-84.2006"/>
<polygon fill="midnightblue" stroke="midnightblue" points="309.588,-87.2495 316.941,-79.6212 306.436,-80.9994 309.588,-87.2495"/>
</g>
<!-- Node5&#45;&gt;Node10 -->
<g id="edge22" class="edge"><title>Node5&#45;&gt;Node10</title>
<path fill="none" stroke="midnightblue" d="M258.166,-116.429C286.209,-107.867 326.677,-95.2182 370.155,-80.1832"/>
<polygon fill="midnightblue" stroke="midnightblue" points="371.477,-83.4291 379.77,-76.8358 369.176,-76.8182 371.477,-83.4291"/>
</g>
<!-- Node7&#45;&gt;Node3 -->
<g id="edge16" class="edge"><title>Node7&#45;&gt;Node3</title>
<path fill="none" stroke="midnightblue" d="M240.19,-58.4966C217.59,-48.9287 184.1,-34.7506 159.595,-24.3758"/>
<polygon fill="midnightblue" stroke="midnightblue" points="160.93,-21.1406 150.357,-20.465 158.201,-27.5867 160.93,-21.1406"/>
</g>
<!-- Node8 -->
<g id="node17" class="node"><title>Node8</title>
<polygon fill="white" stroke="#bfbfbf" points="239,-0.5 239,-21.5 291,-21.5 291,-0.5 239,-0.5"/>
<text text-anchor="middle" x="265" y="-8.5" font-family="Helvetica,sans-Serif" font-size="10.00">ostream</text>
</g>
<!-- Node7&#45;&gt;Node8 -->
<g id="edge18" class="edge"><title>Node7&#45;&gt;Node8</title>
<path fill="none" stroke="midnightblue" d="M265,-58.3619C265,-50.9219 265,-40.7427 265,-31.7276"/>
<polygon fill="midnightblue" stroke="midnightblue" points="268.5,-31.5706 265,-21.5707 261.5,-31.5707 268.5,-31.5706"/>
</g>
</g>
</svg>
