<?xml version="1.0" encoding="UTF-8" standalone="no"?>
<!DOCTYPE svg PUBLIC "-//W3C//DTD SVG 1.1//EN"
 "http://www.w3.org/Graphics/SVG/1.1/DTD/svg11.dtd">
<!-- Generated by graphviz version 2.26.3 (20100126.1600)
 -->
<!-- Title: src/analysis/utils/matcher.h Pages: 1 -->
<svg width="392pt" height="116pt"
 viewBox="0.00 0.00 392.00 116.00" xmlns="http://www.w3.org/2000/svg" xmlns:xlink="http://www.w3.org/1999/xlink">
<g id="graph1" class="graph" transform="scale(1 1) rotate(0) translate(4 112)">
<title>src/analysis/utils/matcher.h</title>
<polygon fill="white" stroke="white" points="-4,5 -4,-112 389,-112 389,5 -4,5"/>
<!-- Node1 -->
<g id="node1" class="node"><title>Node1</title>
<polygon fill="#bfbfbf" stroke="black" points="134,-73 134,-107 224,-107 224,-73 134,-73"/>
<text text-anchor="start" x="142" y="-94" font-family="Helvetica,sans-Serif" font-size="10.00">src/analysis/utils</text>
<text text-anchor="middle" x="179" y="-81" font-family="Helvetica,sans-Serif" font-size="10.00">/matcher.h</text>
</g>
<!-- Node2 -->
<g id="node3" class="node"><title>Node2</title>
<a xlink:href="_reco_check_8cc.html" target="_top" xlink:title="src/analysis/physics\l/misc/RecoCheck.cc">
<polygon fill="white" stroke="black" points="-0.5,-1 -0.5,-35 108.5,-35 108.5,-1 -0.5,-1"/>
<text text-anchor="start" x="7.5" y="-22" font-family="Helvetica,sans-Serif" font-size="10.00">src/analysis/physics</text>
<text text-anchor="middle" x="54" y="-9" font-family="Helvetica,sans-Serif" font-size="10.00">/misc/RecoCheck.cc</text>
</a>
</g>
<!-- Node1&#45;&gt;Node2 -->
<g id="edge2" class="edge"><title>Node1&#45;&gt;Node2</title>
<path fill="none" stroke="midnightblue" d="M140.701,-67.9398C122.425,-57.4125 100.883,-45.0044 83.8438,-35.19"/>
<polygon fill="midnightblue" stroke="midnightblue" points="138.964,-70.9786 149.377,-72.937 142.458,-64.9129 138.964,-70.9786"/>
</g>
<!-- Node3 -->
<g id="node5" class="node"><title>Node3</title>
<a xlink:href="_split_check_8cc.html" target="_top" xlink:title="src/analysis/physics\l/misc/SplitCheck.cc">
<polygon fill="white" stroke="black" points="126,-1 126,-35 232,-35 232,-1 126,-1"/>
<text text-anchor="start" x="134" y="-22" font-family="Helvetica,sans-Serif" font-size="10.00">src/analysis/physics</text>
<text text-anchor="middle" x="179" y="-9" font-family="Helvetica,sans-Serif" font-size="10.00">/misc/SplitCheck.cc</text>
</a>
</g>
<!-- Node1&#45;&gt;Node3 -->
<g id="edge4" class="edge"><title>Node1&#45;&gt;Node3</title>
<path fill="none" stroke="midnightblue" d="M179,-62.7193C179,-53.572 179,-43.6255 179,-35.4407"/>
<polygon fill="midnightblue" stroke="midnightblue" points="175.5,-62.937 179,-72.937 182.5,-62.937 175.5,-62.937"/>
</g>
<!-- Node4 -->
<g id="node7" class="node"><title>Node4</title>
<a xlink:href="_geo_acceptance_8cc.html" target="_top" xlink:title="src/analysis/physics\l/omega/GeoAcceptance.cc">
<polygon fill="white" stroke="black" points="249.5,-1 249.5,-35 384.5,-35 384.5,-1 249.5,-1"/>
<text text-anchor="start" x="257.5" y="-22" font-family="Helvetica,sans-Serif" font-size="10.00">src/analysis/physics</text>
<text text-anchor="middle" x="317" y="-9" font-family="Helvetica,sans-Serif" font-size="10.00">/omega/GeoAcceptance.cc</text>
</a>
</g>
<!-- Node1&#45;&gt;Node4 -->
<g id="edge6" class="edge"><title>Node1&#45;&gt;Node4</title>
<path fill="none" stroke="midnightblue" d="M220.733,-68.2264C241.027,-57.6383 265.071,-45.0936 284.052,-35.19"/>
<polygon fill="midnightblue" stroke="midnightblue" points="218.951,-65.2082 211.704,-72.937 222.189,-71.4143 218.951,-65.2082"/>
</g>
</g>
</svg>
