<?xml version="1.0" encoding="UTF-8" standalone="no"?>
<!DOCTYPE svg PUBLIC "-//W3C//DTD SVG 1.1//EN"
 "http://www.w3.org/Graphics/SVG/1.1/DTD/svg11.dtd">
<!-- Generated by graphviz version 2.26.3 (20100126.1600)
 -->
<!-- Title: src/base/std_ext/math.h Pages: 1 -->
<svg width="130pt" height="88pt"
 viewBox="0.00 0.00 130.00 88.00" xmlns="http://www.w3.org/2000/svg" xmlns:xlink="http://www.w3.org/1999/xlink">
<g id="graph1" class="graph" transform="scale(1 1) rotate(0) translate(4 84)">
<title>src/base/std_ext/math.h</title>
<polygon fill="white" stroke="white" points="-4,5 -4,-84 127,-84 127,5 -4,5"/>
<!-- Node1 -->
<g id="node1" class="node"><title>Node1</title>
<polygon fill="#bfbfbf" stroke="black" points="0,-58.5 0,-79.5 122,-79.5 122,-58.5 0,-58.5"/>
<text text-anchor="middle" x="61" y="-66.5" font-family="Helvetica,sans-Serif" font-size="10.00">src/base/std_ext/math.h</text>
</g>
<!-- Node2 -->
<g id="node3" class="node"><title>Node2</title>
<polygon fill="white" stroke="#bfbfbf" points="9,-0.5 9,-21.5 53,-21.5 53,-0.5 9,-0.5"/>
<text text-anchor="middle" x="31" y="-8.5" font-family="Helvetica,sans-Serif" font-size="10.00">cmath</text>
</g>
<!-- Node1&#45;&gt;Node2 -->
<g id="edge2" class="edge"><title>Node1&#45;&gt;Node2</title>
<path fill="none" stroke="midnightblue" d="M55.4975,-58.3619C51.4801,-50.5949 45.9186,-39.8426 41.1099,-30.5458"/>
<polygon fill="midnightblue" stroke="midnightblue" points="44.1706,-28.8448 36.4676,-21.5707 37.9531,-32.0608 44.1706,-28.8448"/>
</g>
<!-- Node3 -->
<g id="node5" class="node"><title>Node3</title>
<polygon fill="white" stroke="#bfbfbf" points="71,-0.5 71,-21.5 111,-21.5 111,-0.5 71,-0.5"/>
<text text-anchor="middle" x="91" y="-8.5" font-family="Helvetica,sans-Serif" font-size="10.00">limits</text>
</g>
<!-- Node1&#45;&gt;Node3 -->
<g id="edge4" class="edge"><title>Node1&#45;&gt;Node3</title>
<path fill="none" stroke="midnightblue" d="M66.5025,-58.3619C70.5199,-50.5949 76.0814,-39.8426 80.8901,-30.5458"/>
<polygon fill="midnightblue" stroke="midnightblue" points="84.0469,-32.0608 85.5324,-21.5707 77.8294,-28.8448 84.0469,-32.0608"/>
</g>
</g>
</svg>
