<?xml version="1.0" encoding="UTF-8" standalone="no"?>
<!DOCTYPE svg PUBLIC "-//W3C//DTD SVG 1.1//EN"
 "http://www.w3.org/Graphics/SVG/1.1/DTD/svg11.dtd">
<!-- Generated by graphviz version 2.26.3 (20100126.1600)
 -->
<!-- Title: src/base/std_ext/math.h Pages: 1 -->
<svg width="686pt" height="318pt"
 viewBox="0.00 0.00 686.00 318.00" xmlns="http://www.w3.org/2000/svg" xmlns:xlink="http://www.w3.org/1999/xlink">
<g id="graph1" class="graph" transform="scale(1 1) rotate(0) translate(4 314)">
<title>src/base/std_ext/math.h</title>
<polygon fill="white" stroke="white" points="-4,5 -4,-314 683,-314 683,5 -4,5"/>
<!-- Node1 -->
<g id="node1" class="node"><title>Node1</title>
<polygon fill="#bfbfbf" stroke="black" points="277,-288.5 277,-309.5 399,-309.5 399,-288.5 277,-288.5"/>
<text text-anchor="middle" x="338" y="-296.5" font-family="Helvetica,sans-Serif" font-size="10.00">src/base/std_ext/math.h</text>
</g>
<!-- Node2 -->
<g id="node3" class="node"><title>Node2</title>
<a xlink:href="_base_functions_8cc.html" target="_top" xlink:title="src/calibration/fitfunctions\l/BaseFunctions.cc">
<polygon fill="white" stroke="black" points="0,-217 0,-251 128,-251 128,-217 0,-217"/>
<text text-anchor="start" x="8" y="-238" font-family="Helvetica,sans-Serif" font-size="10.00">src/calibration/fitfunctions</text>
<text text-anchor="middle" x="64" y="-225" font-family="Helvetica,sans-Serif" font-size="10.00">/BaseFunctions.cc</text>
</a>
</g>
<!-- Node1&#45;&gt;Node2 -->
<g id="edge2" class="edge"><title>Node1&#45;&gt;Node2</title>
<path fill="none" stroke="midnightblue" d="M282.146,-286.13C241.789,-276.784 185.989,-263.767 137,-252 134.081,-251.299 131.097,-250.578 128.083,-249.848"/>
<polygon fill="midnightblue" stroke="midnightblue" points="281.529,-289.579 292.06,-288.424 283.107,-282.759 281.529,-289.579"/>
</g>
<!-- Node3 -->
<g id="node5" class="node"><title>Node3</title>
<a xlink:href="_p_i_d___phi_angle_8cc.html" target="_top" xlink:title="src/calibration/modules\l/PID_PhiAngle.cc">
<polygon fill="white" stroke="black" points="145.5,-217 145.5,-251 262.5,-251 262.5,-217 145.5,-217"/>
<text text-anchor="start" x="153.5" y="-238" font-family="Helvetica,sans-Serif" font-size="10.00">src/calibration/modules</text>
<text text-anchor="middle" x="204" y="-225" font-family="Helvetica,sans-Serif" font-size="10.00">/PID_PhiAngle.cc</text>
</a>
</g>
<!-- Node1&#45;&gt;Node3 -->
<g id="edge4" class="edge"><title>Node1&#45;&gt;Node3</title>
<path fill="none" stroke="midnightblue" d="M307.06,-283.992C286.788,-274.158 260.243,-261.282 239.171,-251.06"/>
<polygon fill="midnightblue" stroke="midnightblue" points="305.647,-287.197 316.172,-288.412 308.703,-280.898 305.647,-287.197"/>
</g>
<!-- Node4 -->
<g id="node7" class="node"><title>Node4</title>
<a xlink:href="_time_8h.html" target="_top" xlink:title="src/calibration/modules\l/Time.h">
<polygon fill="white" stroke="black" points="279.5,-217 279.5,-251 396.5,-251 396.5,-217 279.5,-217"/>
<text text-anchor="start" x="287.5" y="-238" font-family="Helvetica,sans-Serif" font-size="10.00">src/calibration/modules</text>
<text text-anchor="middle" x="338" y="-225" font-family="Helvetica,sans-Serif" font-size="10.00">/Time.h</text>
</a>
</g>
<!-- Node1&#45;&gt;Node4 -->
<g id="edge6" class="edge"><title>Node1&#45;&gt;Node4</title>
<path fill="none" stroke="midnightblue" d="M338,-278.131C338,-269.405 338,-259.391 338,-251.11"/>
<polygon fill="midnightblue" stroke="midnightblue" points="334.5,-278.267 338,-288.267 341.5,-278.267 334.5,-278.267"/>
</g>
<!-- Node14 -->
<g id="node27" class="node"><title>Node14</title>
<a xlink:href="_p_i_d_8cc.html" target="_top" xlink:title="src/expconfig/detectors\l/PID.cc">
<polygon fill="white" stroke="black" points="413.5,-217 413.5,-251 532.5,-251 532.5,-217 413.5,-217"/>
<text text-anchor="start" x="421.5" y="-238" font-family="Helvetica,sans-Serif" font-size="10.00">src/expconfig/detectors</text>
<text text-anchor="middle" x="473" y="-225" font-family="Helvetica,sans-Serif" font-size="10.00">/PID.cc</text>
</a>
</g>
<!-- Node1&#45;&gt;Node14 -->
<g id="edge26" class="edge"><title>Node1&#45;&gt;Node14</title>
<path fill="none" stroke="midnightblue" d="M369.171,-283.992C389.594,-274.158 416.337,-261.282 437.567,-251.06"/>
<polygon fill="midnightblue" stroke="midnightblue" points="367.482,-280.92 359.991,-288.412 370.519,-287.227 367.482,-280.92"/>
</g>
<!-- Node15 -->
<g id="node29" class="node"><title>Node15</title>
<a xlink:href="_candidate_builder_8cc.html" target="_top" xlink:title="src/reconstruct/Candidate\lBuilder.cc">
<polygon fill="white" stroke="black" points="549.5,-217 549.5,-251 678.5,-251 678.5,-217 549.5,-217"/>
<text text-anchor="start" x="557.5" y="-238" font-family="Helvetica,sans-Serif" font-size="10.00">src/reconstruct/Candidate</text>
<text text-anchor="middle" x="614" y="-225" font-family="Helvetica,sans-Serif" font-size="10.00">Builder.cc</text>
</a>
</g>
<!-- Node1&#45;&gt;Node15 -->
<g id="edge28" class="edge"><title>Node1&#45;&gt;Node15</title>
<path fill="none" stroke="midnightblue" d="M394.158,-286.224C434.94,-276.891 491.431,-263.849 541,-252 543.666,-251.363 546.386,-250.709 549.133,-250.045"/>
<polygon fill="midnightblue" stroke="midnightblue" points="393.372,-282.813 384.403,-288.454 394.932,-289.637 393.372,-282.813"/>
</g>
<!-- Node5 -->
<g id="node9" class="node"><title>Node5</title>
<a xlink:href="_time_8cc.html" target="_top" xlink:title="src/calibration/modules\l/Time.cc">
<polygon fill="white" stroke="black" points="214.5,-145 214.5,-179 331.5,-179 331.5,-145 214.5,-145"/>
<text text-anchor="start" x="222.5" y="-166" font-family="Helvetica,sans-Serif" font-size="10.00">src/calibration/modules</text>
<text text-anchor="middle" x="273" y="-153" font-family="Helvetica,sans-Serif" font-size="10.00">/Time.cc</text>
</a>
</g>
<!-- Node4&#45;&gt;Node5 -->
<g id="edge8" class="edge"><title>Node4&#45;&gt;Node5</title>
<path fill="none" stroke="midnightblue" d="M315.772,-209.379C306.886,-199.535 296.857,-188.426 288.745,-179.441"/>
<polygon fill="midnightblue" stroke="midnightblue" points="313.297,-211.86 322.596,-216.937 318.493,-207.169 313.297,-211.86"/>
</g>
<!-- Node6 -->
<g id="node11" class="node"><title>Node6</title>
<a xlink:href="_setup_8h.html" target="_top" xlink:title="src/expconfig/setups\l/Setup.h">
<polygon fill="white" stroke="black" points="348.5,-145 348.5,-179 455.5,-179 455.5,-145 348.5,-145"/>
<text text-anchor="start" x="356.5" y="-166" font-family="Helvetica,sans-Serif" font-size="10.00">src/expconfig/setups</text>
<text text-anchor="middle" x="402" y="-153" font-family="Helvetica,sans-Serif" font-size="10.00">/Setup.h</text>
</a>
</g>
<!-- Node4&#45;&gt;Node6 -->
<g id="edge10" class="edge"><title>Node4&#45;&gt;Node6</title>
<path fill="none" stroke="midnightblue" d="M359.886,-209.379C368.636,-199.535 378.51,-188.426 386.497,-179.441"/>
<polygon fill="midnightblue" stroke="midnightblue" points="357.195,-207.138 353.167,-216.937 362.427,-211.788 357.195,-207.138"/>
</g>
<!-- Node7 -->
<g id="node13" class="node"><title>Node7</title>
<a xlink:href="_exp_config_8cc.html" target="_top" xlink:title="src/expconfig/ExpConfig.cc">
<polygon fill="white" stroke="black" points="128.5,-79.5 128.5,-100.5 265.5,-100.5 265.5,-79.5 128.5,-79.5"/>
<text text-anchor="middle" x="197" y="-87.5" font-family="Helvetica,sans-Serif" font-size="10.00">src/expconfig/ExpConfig.cc</text>
</a>
</g>
<!-- Node6&#45;&gt;Node7 -->
<g id="edge12" class="edge"><title>Node6&#45;&gt;Node7</title>
<path fill="none" stroke="midnightblue" d="M343.98,-141.622C305.933,-128.259 257.741,-111.333 227.13,-100.582"/>
<polygon fill="midnightblue" stroke="midnightblue" points="342.823,-144.925 353.418,-144.937 345.143,-138.321 342.823,-144.925"/>
</g>
<!-- Node8 -->
<g id="node15" class="node"><title>Node8</title>
<a xlink:href="_setup__2014___e_p_t_8h.html" target="_top" xlink:title="src/expconfig/setups\l/Setup_2014_EPT.h">
<polygon fill="white" stroke="black" points="282.5,-73 282.5,-107 389.5,-107 389.5,-73 282.5,-73"/>
<text text-anchor="start" x="290.5" y="-94" font-family="Helvetica,sans-Serif" font-size="10.00">src/expconfig/setups</text>
<text text-anchor="middle" x="336" y="-81" font-family="Helvetica,sans-Serif" font-size="10.00">/Setup_2014_EPT.h</text>
</a>
</g>
<!-- Node6&#45;&gt;Node8 -->
<g id="edge14" class="edge"><title>Node6&#45;&gt;Node8</title>
<path fill="none" stroke="midnightblue" d="M379.43,-137.379C370.407,-127.535 360.224,-116.426 351.987,-107.441"/>
<polygon fill="midnightblue" stroke="midnightblue" points="377.022,-139.93 386.359,-144.937 382.182,-135.2 377.022,-139.93"/>
</g>
<!-- Node12 -->
<g id="node23" class="node"><title>Node12</title>
<a xlink:href="_setup__2015__dummy_8cc.html" target="_top" xlink:title="src/expconfig/setups\l/Setup_2015_dummy.cc">
<polygon fill="white" stroke="black" points="407,-73 407,-107 529,-107 529,-73 407,-73"/>
<text text-anchor="start" x="415" y="-94" font-family="Helvetica,sans-Serif" font-size="10.00">src/expconfig/setups</text>
<text text-anchor="middle" x="468" y="-81" font-family="Helvetica,sans-Serif" font-size="10.00">/Setup_2015_dummy.cc</text>
</a>
</g>
<!-- Node6&#45;&gt;Node12 -->
<g id="edge22" class="edge"><title>Node6&#45;&gt;Node12</title>
<path fill="none" stroke="midnightblue" d="M424.57,-137.379C433.593,-127.535 443.776,-116.426 452.013,-107.441"/>
<polygon fill="midnightblue" stroke="midnightblue" points="421.818,-135.2 417.641,-144.937 426.978,-139.93 421.818,-135.2"/>
</g>
<!-- Node13 -->
<g id="node25" class="node"><title>Node13</title>
<a xlink:href="_setup_registry_8cc.html" target="_top" xlink:title="src/expconfig/setups\l/SetupRegistry.cc">
<polygon fill="white" stroke="black" points="546.5,-73 546.5,-107 653.5,-107 653.5,-73 546.5,-73"/>
<text text-anchor="start" x="554.5" y="-94" font-family="Helvetica,sans-Serif" font-size="10.00">src/expconfig/setups</text>
<text text-anchor="middle" x="600" y="-81" font-family="Helvetica,sans-Serif" font-size="10.00">/SetupRegistry.cc</text>
</a>
</g>
<!-- Node6&#45;&gt;Node13 -->
<g id="edge24" class="edge"><title>Node6&#45;&gt;Node13</title>
<path fill="none" stroke="midnightblue" d="M458.399,-141.491C488.335,-130.606 524.692,-117.385 553.071,-107.065"/>
<polygon fill="midnightblue" stroke="midnightblue" points="457.125,-138.23 448.923,-144.937 459.517,-144.809 457.125,-138.23"/>
</g>
<!-- Node9 -->
<g id="node17" class="node"><title>Node9</title>
<a xlink:href="_setup__2014__07___e_p_t___prod_8cc.html" target="_top" xlink:title="src/expconfig/setups\l/Setup_2014_07_EPT_Prod.cc">
<polygon fill="white" stroke="black" points="92.5,-1 92.5,-35 243.5,-35 243.5,-1 92.5,-1"/>
<text text-anchor="start" x="100.5" y="-22" font-family="Helvetica,sans-Serif" font-size="10.00">src/expconfig/setups</text>
<text text-anchor="middle" x="168" y="-9" font-family="Helvetica,sans-Serif" font-size="10.00">/Setup_2014_07_EPT_Prod.cc</text>
</a>
</g>
<!-- Node8&#45;&gt;Node9 -->
<g id="edge16" class="edge"><title>Node8&#45;&gt;Node9</title>
<path fill="none" stroke="midnightblue" d="M286.822,-68.9238C261.68,-58.1485 231.48,-45.2059 207.819,-35.0651"/>
<polygon fill="midnightblue" stroke="midnightblue" points="285.616,-72.2148 296.186,-72.937 288.374,-65.7807 285.616,-72.2148"/>
</g>
<!-- Node10 -->
<g id="node19" class="node"><title>Node10</title>
<a xlink:href="_setup__2014__10___e_p_t___prod_8cc.html" target="_top" xlink:title="src/expconfig/setups\l/Setup_2014_10_EPT_Prod.cc">
<polygon fill="white" stroke="black" points="260.5,-1 260.5,-35 411.5,-35 411.5,-1 260.5,-1"/>
<text text-anchor="start" x="268.5" y="-22" font-family="Helvetica,sans-Serif" font-size="10.00">src/expconfig/setups</text>
<text text-anchor="middle" x="336" y="-9" font-family="Helvetica,sans-Serif" font-size="10.00">/Setup_2014_10_EPT_Prod.cc</text>
</a>
</g>
<!-- Node8&#45;&gt;Node10 -->
<g id="edge18" class="edge"><title>Node8&#45;&gt;Node10</title>
<path fill="none" stroke="midnightblue" d="M336,-62.7193C336,-53.572 336,-43.6255 336,-35.4407"/>
<polygon fill="midnightblue" stroke="midnightblue" points="332.5,-62.937 336,-72.937 339.5,-62.937 332.5,-62.937"/>
</g>
<!-- Node11 -->
<g id="node21" class="node"><title>Node11</title>
<a xlink:href="_setup__2014__12___e_p_t___prod_8cc.html" target="_top" xlink:title="src/expconfig/setups\l/Setup_2014_12_EPT_Prod.cc">
<polygon fill="white" stroke="black" points="428.5,-1 428.5,-35 579.5,-35 579.5,-1 428.5,-1"/>
<text text-anchor="start" x="436.5" y="-22" font-family="Helvetica,sans-Serif" font-size="10.00">src/expconfig/setups</text>
<text text-anchor="middle" x="504" y="-9" font-family="Helvetica,sans-Serif" font-size="10.00">/Setup_2014_12_EPT_Prod.cc</text>
</a>
</g>
<!-- Node8&#45;&gt;Node11 -->
<g id="edge20" class="edge"><title>Node8&#45;&gt;Node11</title>
<path fill="none" stroke="midnightblue" d="M385.178,-68.9238C410.32,-58.1485 440.52,-45.2059 464.181,-35.0651"/>
<polygon fill="midnightblue" stroke="midnightblue" points="383.626,-65.7807 375.814,-72.937 386.384,-72.2148 383.626,-65.7807"/>
</g>
</g>
</svg>
