<?xml version="1.0" encoding="UTF-8" standalone="no"?>
<!DOCTYPE svg PUBLIC "-//W3C//DTD SVG 1.1//EN"
 "http://www.w3.org/Graphics/SVG/1.1/DTD/svg11.dtd">
<!-- Generated by graphviz version 2.26.3 (20100126.1600)
 -->
<!-- Title: src/base/matrixstack.cc Pages: 1 -->
<svg width="431pt" height="204pt"
 viewBox="0.00 0.00 431.00 204.00" xmlns="http://www.w3.org/2000/svg" xmlns:xlink="http://www.w3.org/1999/xlink">
<g id="graph1" class="graph" transform="scale(1 1) rotate(0) translate(4 200)">
<title>src/base/matrixstack.cc</title>
<polygon fill="white" stroke="white" points="-4,5 -4,-200 428,-200 428,5 -4,5"/>
<!-- Node1 -->
<g id="node1" class="node"><title>Node1</title>
<polygon fill="#bfbfbf" stroke="black" points="290,-174.5 290,-195.5 412,-195.5 412,-174.5 290,-174.5"/>
<text text-anchor="middle" x="351" y="-182.5" font-family="Helvetica,sans-Serif" font-size="10.00">src/base/matrixstack.cc</text>
</g>
<!-- Node2 -->
<g id="node3" class="node"><title>Node2</title>
<a xlink:href="matrixstack_8h.html" target="_top" xlink:title="matrixstack.h">
<polygon fill="white" stroke="black" points="210,-116.5 210,-137.5 286,-137.5 286,-116.5 210,-116.5"/>
<text text-anchor="middle" x="248" y="-124.5" font-family="Helvetica,sans-Serif" font-size="10.00">matrixstack.h</text>
</a>
</g>
<!-- Node1&#45;&gt;Node2 -->
<g id="edge2" class="edge"><title>Node1&#45;&gt;Node2</title>
<path fill="none" stroke="midnightblue" d="M332.108,-174.362C316.282,-165.45 293.477,-152.609 275.605,-142.545"/>
<polygon fill="midnightblue" stroke="midnightblue" points="277.203,-139.428 266.772,-137.571 273.768,-145.527 277.203,-139.428"/>
</g>
<!-- Node8 -->
<g id="node15" class="node"><title>Node8</title>
<polygon fill="white" stroke="#bfbfbf" points="337.5,-58.5 337.5,-79.5 402.5,-79.5 402.5,-58.5 337.5,-58.5"/>
<text text-anchor="middle" x="370" y="-66.5" font-family="Helvetica,sans-Serif" font-size="10.00">TVector2.h</text>
</g>
<!-- Node1&#45;&gt;Node8 -->
<g id="edge20" class="edge"><title>Node1&#45;&gt;Node8</title>
<path fill="none" stroke="midnightblue" d="M352.753,-174.295C355.892,-155.131 362.522,-114.654 366.586,-89.8434"/>
<polygon fill="midnightblue" stroke="midnightblue" points="370.088,-90.1135 368.251,-79.6792 363.18,-88.9819 370.088,-90.1135"/>
</g>
<!-- Node10 -->
<g id="node19" class="node"><title>Node10</title>
<polygon fill="white" stroke="#bfbfbf" points="379,-116.5 379,-137.5 423,-137.5 423,-116.5 379,-116.5"/>
<text text-anchor="middle" x="401" y="-124.5" font-family="Helvetica,sans-Serif" font-size="10.00">cmath</text>
</g>
<!-- Node1&#45;&gt;Node10 -->
<g id="edge18" class="edge"><title>Node1&#45;&gt;Node10</title>
<path fill="none" stroke="midnightblue" d="M360.171,-174.362C367.148,-166.268 376.921,-154.932 385.156,-145.38"/>
<polygon fill="midnightblue" stroke="midnightblue" points="388.009,-147.43 391.887,-137.571 382.707,-142.859 388.009,-147.43"/>
</g>
<!-- Node3 -->
<g id="node5" class="node"><title>Node3</title>
<a xlink:href="printable_8h.html" target="_top" xlink:title="base/printable.h">
<polygon fill="white" stroke="black" points="12,-58.5 12,-79.5 98,-79.5 98,-58.5 12,-58.5"/>
<text text-anchor="middle" x="55" y="-66.5" font-family="Helvetica,sans-Serif" font-size="10.00">base/printable.h</text>
</a>
</g>
<!-- Node2&#45;&gt;Node3 -->
<g id="edge4" class="edge"><title>Node2&#45;&gt;Node3</title>
<path fill="none" stroke="midnightblue" d="M213.049,-116.497C181.313,-106.959 134.332,-92.8408 99.8394,-82.475"/>
<polygon fill="midnightblue" stroke="midnightblue" points="100.601,-79.0492 90.0164,-79.5231 98.586,-85.7531 100.601,-79.0492"/>
</g>
<!-- Node6 -->
<g id="node11" class="node"><title>Node6</title>
<polygon fill="white" stroke="#bfbfbf" points="115.5,-58.5 115.5,-79.5 180.5,-79.5 180.5,-58.5 115.5,-58.5"/>
<text text-anchor="middle" x="148" y="-66.5" font-family="Helvetica,sans-Serif" font-size="10.00">TVectorT.h</text>
</g>
<!-- Node2&#45;&gt;Node6 -->
<g id="edge10" class="edge"><title>Node2&#45;&gt;Node6</title>
<path fill="none" stroke="midnightblue" d="M229.658,-116.362C214.434,-107.532 192.559,-94.844 175.28,-84.8224"/>
<polygon fill="midnightblue" stroke="midnightblue" points="176.632,-81.5603 166.225,-79.5707 173.12,-87.6155 176.632,-81.5603"/>
</g>
<!-- Node7 -->
<g id="node13" class="node"><title>Node7</title>
<polygon fill="white" stroke="#bfbfbf" points="198,-58.5 198,-79.5 262,-79.5 262,-58.5 198,-58.5"/>
<text text-anchor="middle" x="230" y="-66.5" font-family="Helvetica,sans-Serif" font-size="10.00">TMatrixT.h</text>
</g>
<!-- Node2&#45;&gt;Node7 -->
<g id="edge12" class="edge"><title>Node2&#45;&gt;Node7</title>
<path fill="none" stroke="midnightblue" d="M244.699,-116.362C242.339,-108.758 239.091,-98.294 236.249,-89.1349"/>
<polygon fill="midnightblue" stroke="midnightblue" points="239.587,-88.0839 233.281,-79.5707 232.902,-90.1587 239.587,-88.0839"/>
</g>
<!-- Node2&#45;&gt;Node8 -->
<g id="edge14" class="edge"><title>Node2&#45;&gt;Node8</title>
<path fill="none" stroke="midnightblue" d="M270.093,-116.497C289.234,-107.397 317.146,-94.1273 338.605,-83.9253"/>
<polygon fill="midnightblue" stroke="midnightblue" points="340.13,-87.0758 347.659,-79.6212 337.125,-80.7539 340.13,-87.0758"/>
</g>
<!-- Node9 -->
<g id="node17" class="node"><title>Node9</title>
<polygon fill="white" stroke="#bfbfbf" points="279.5,-58.5 279.5,-79.5 320.5,-79.5 320.5,-58.5 279.5,-58.5"/>
<text text-anchor="middle" x="300" y="-66.5" font-family="Helvetica,sans-Serif" font-size="10.00">stack</text>
</g>
<!-- Node2&#45;&gt;Node9 -->
<g id="edge16" class="edge"><title>Node2&#45;&gt;Node9</title>
<path fill="none" stroke="midnightblue" d="M257.538,-116.362C264.868,-108.186 275.163,-96.7025 283.781,-87.0907"/>
<polygon fill="midnightblue" stroke="midnightblue" points="286.453,-89.3528 290.523,-79.5707 281.241,-84.68 286.453,-89.3528"/>
</g>
<!-- Node4 -->
<g id="node7" class="node"><title>Node4</title>
<polygon fill="white" stroke="#bfbfbf" points="0,-0.5 0,-21.5 44,-21.5 44,-0.5 0,-0.5"/>
<text text-anchor="middle" x="22" y="-8.5" font-family="Helvetica,sans-Serif" font-size="10.00">vector</text>
</g>
<!-- Node3&#45;&gt;Node4 -->
<g id="edge6" class="edge"><title>Node3&#45;&gt;Node4</title>
<path fill="none" stroke="midnightblue" d="M48.9473,-58.3619C44.5281,-50.5949 38.4104,-39.8426 33.1209,-30.5458"/>
<polygon fill="midnightblue" stroke="midnightblue" points="36.0017,-28.5315 28.0143,-21.5707 29.9176,-31.9932 36.0017,-28.5315"/>
</g>
<!-- Node5 -->
<g id="node9" class="node"><title>Node5</title>
<polygon fill="white" stroke="#bfbfbf" points="62,-0.5 62,-21.5 114,-21.5 114,-0.5 62,-0.5"/>
<text text-anchor="middle" x="88" y="-8.5" font-family="Helvetica,sans-Serif" font-size="10.00">ostream</text>
</g>
<!-- Node3&#45;&gt;Node5 -->
<g id="edge8" class="edge"><title>Node3&#45;&gt;Node5</title>
<path fill="none" stroke="midnightblue" d="M61.0527,-58.3619C65.4719,-50.5949 71.5896,-39.8426 76.8791,-30.5458"/>
<polygon fill="midnightblue" stroke="midnightblue" points="80.0824,-31.9932 81.9857,-21.5707 73.9983,-28.5315 80.0824,-31.9932"/>
</g>
</g>
</svg>
