<?xml version="1.0" encoding="UTF-8" standalone="no"?>
<!DOCTYPE svg PUBLIC "-//W3C//DTD SVG 1.1//EN"
 "http://www.w3.org/Graphics/SVG/1.1/DTD/svg11.dtd">
<!-- Generated by graphviz version 2.26.3 (20100126.1600)
 -->
<!-- Title: src/base/matrixstack.h Pages: 1 -->
<svg width="615pt" height="246pt"
 viewBox="0.00 0.00 615.00 246.00" xmlns="http://www.w3.org/2000/svg" xmlns:xlink="http://www.w3.org/1999/xlink">
<g id="graph1" class="graph" transform="scale(1 1) rotate(0) translate(4 242)">
<title>src/base/matrixstack.h</title>
<polygon fill="white" stroke="white" points="-4,5 -4,-242 612,-242 612,5 -4,5"/>
<!-- Node1 -->
<g id="node1" class="node"><title>Node1</title>
<polygon fill="#bfbfbf" stroke="black" points="278,-216.5 278,-237.5 394,-237.5 394,-216.5 278,-216.5"/>
<text text-anchor="middle" x="336" y="-224.5" font-family="Helvetica,sans-Serif" font-size="10.00">src/base/matrixstack.h</text>
</g>
<!-- Node2 -->
<g id="node3" class="node"><title>Node2</title>
<a xlink:href="_t_h2_c_b_8h.html" target="_top" xlink:title="src/base/cbtaps_display\l/TH2CB.h">
<polygon fill="white" stroke="black" points="65,-73 65,-107 187,-107 187,-73 65,-73"/>
<text text-anchor="start" x="73" y="-94" font-family="Helvetica,sans-Serif" font-size="10.00">src/base/cbtaps_display</text>
<text text-anchor="middle" x="126" y="-81" font-family="Helvetica,sans-Serif" font-size="10.00">/TH2CB.h</text>
</a>
</g>
<!-- Node1&#45;&gt;Node2 -->
<g id="edge2" class="edge"><title>Node1&#45;&gt;Node2</title>
<path fill="none" stroke="midnightblue" d="M271.232,-213.77C246.181,-206.557 218.248,-195.777 196,-180 168.55,-160.535 146.689,-127.234 135.098,-107.056"/>
<polygon fill="midnightblue" stroke="midnightblue" points="270.466,-217.189 281.036,-216.457 272.316,-210.438 270.466,-217.189"/>
</g>
<!-- Node5 -->
<g id="node9" class="node"><title>Node5</title>
<a xlink:href="_t_h2_crystals_8h.html" target="_top" xlink:title="src/base/cbtaps_display\l/TH2Crystals.h">
<polygon fill="white" stroke="black" points="205,-145 205,-179 327,-179 327,-145 205,-145"/>
<text text-anchor="start" x="213" y="-166" font-family="Helvetica,sans-Serif" font-size="10.00">src/base/cbtaps_display</text>
<text text-anchor="middle" x="266" y="-153" font-family="Helvetica,sans-Serif" font-size="10.00">/TH2Crystals.h</text>
</a>
</g>
<!-- Node1&#45;&gt;Node5 -->
<g id="edge8" class="edge"><title>Node1&#45;&gt;Node5</title>
<path fill="none" stroke="midnightblue" d="M316.903,-209.267C306.792,-199.879 294.434,-188.403 284.426,-179.11"/>
<polygon fill="midnightblue" stroke="midnightblue" points="314.731,-212.027 324.441,-216.267 319.495,-206.897 314.731,-212.027"/>
</g>
<!-- Node9 -->
<g id="node18" class="node"><title>Node9</title>
<a xlink:href="_t_h2_draw_tool_8h.html" target="_top" xlink:title="src/base/cbtaps_display\l/TH2DrawTool.h">
<polygon fill="white" stroke="black" points="345,-145 345,-179 467,-179 467,-145 345,-145"/>
<text text-anchor="start" x="353" y="-166" font-family="Helvetica,sans-Serif" font-size="10.00">src/base/cbtaps_display</text>
<text text-anchor="middle" x="406" y="-153" font-family="Helvetica,sans-Serif" font-size="10.00">/TH2DrawTool.h</text>
</a>
</g>
<!-- Node1&#45;&gt;Node9 -->
<g id="edge18" class="edge"><title>Node1&#45;&gt;Node9</title>
<path fill="none" stroke="midnightblue" d="M355.097,-209.267C365.208,-199.879 377.566,-188.403 387.574,-179.11"/>
<polygon fill="midnightblue" stroke="midnightblue" points="352.505,-206.897 347.559,-216.267 357.269,-212.027 352.505,-206.897"/>
</g>
<!-- Node11 -->
<g id="node24" class="node"><title>Node11</title>
<a xlink:href="matrixstack_8cc.html" target="_top" xlink:title="src/base/matrixstack.cc">
<polygon fill="white" stroke="black" points="485,-151.5 485,-172.5 607,-172.5 607,-151.5 485,-151.5"/>
<text text-anchor="middle" x="546" y="-159.5" font-family="Helvetica,sans-Serif" font-size="10.00">src/base/matrixstack.cc</text>
</a>
</g>
<!-- Node1&#45;&gt;Node11 -->
<g id="edge26" class="edge"><title>Node1&#45;&gt;Node11</title>
<path fill="none" stroke="midnightblue" d="M379.784,-213.448C419.032,-201.3 475.813,-183.725 511.807,-172.584"/>
<polygon fill="midnightblue" stroke="midnightblue" points="378.725,-210.112 370.208,-216.412 380.795,-216.799 378.725,-210.112"/>
</g>
<!-- Node3 -->
<g id="node5" class="node"><title>Node3</title>
<a xlink:href="_t_h2_c_b_8cc.html" target="_top" xlink:title="src/base/cbtaps_display\l/TH2CB.cc">
<polygon fill="white" stroke="black" points="134,-1 134,-35 256,-35 256,-1 134,-1"/>
<text text-anchor="start" x="142" y="-22" font-family="Helvetica,sans-Serif" font-size="10.00">src/base/cbtaps_display</text>
<text text-anchor="middle" x="195" y="-9" font-family="Helvetica,sans-Serif" font-size="10.00">/TH2CB.cc</text>
</a>
</g>
<!-- Node2&#45;&gt;Node3 -->
<g id="edge4" class="edge"><title>Node2&#45;&gt;Node3</title>
<path fill="none" stroke="midnightblue" d="M149.316,-65.6706C158.818,-55.7551 169.59,-44.5151 178.286,-35.4407"/>
<polygon fill="midnightblue" stroke="midnightblue" points="146.744,-63.2954 142.352,-72.937 151.798,-68.1388 146.744,-63.2954"/>
</g>
<!-- Node4 -->
<g id="node7" class="node"><title>Node4</title>
<a xlink:href="_c_b___energy_8cc.html" target="_top" xlink:title="src/calibration/modules\l/CB_Energy.cc">
<polygon fill="white" stroke="black" points="-0.5,-1 -0.5,-35 116.5,-35 116.5,-1 -0.5,-1"/>
<text text-anchor="start" x="7.5" y="-22" font-family="Helvetica,sans-Serif" font-size="10.00">src/calibration/modules</text>
<text text-anchor="middle" x="58" y="-9" font-family="Helvetica,sans-Serif" font-size="10.00">/CB_Energy.cc</text>
</a>
</g>
<!-- Node2&#45;&gt;Node4 -->
<g id="edge6" class="edge"><title>Node2&#45;&gt;Node4</title>
<path fill="none" stroke="midnightblue" d="M102.746,-65.3785C93.4496,-55.5349 82.958,-44.4262 74.4717,-35.4407"/>
<polygon fill="midnightblue" stroke="midnightblue" points="100.474,-68.07 109.885,-72.937 105.563,-63.2637 100.474,-68.07"/>
</g>
<!-- Node5&#45;&gt;Node2 -->
<g id="edge10" class="edge"><title>Node5&#45;&gt;Node2</title>
<path fill="none" stroke="midnightblue" d="M223.662,-140.226C203.075,-129.638 178.682,-117.094 159.425,-107.19"/>
<polygon fill="midnightblue" stroke="midnightblue" points="222.328,-143.476 232.822,-144.937 225.53,-137.251 222.328,-143.476"/>
</g>
<!-- Node6 -->
<g id="node12" class="node"><title>Node6</title>
<a xlink:href="_t_h2_crystals_8cc.html" target="_top" xlink:title="src/base/cbtaps_display\l/TH2Crystals.cc">
<polygon fill="white" stroke="black" points="205,-73 205,-107 327,-107 327,-73 205,-73"/>
<text text-anchor="start" x="213" y="-94" font-family="Helvetica,sans-Serif" font-size="10.00">src/base/cbtaps_display</text>
<text text-anchor="middle" x="266" y="-81" font-family="Helvetica,sans-Serif" font-size="10.00">/TH2Crystals.cc</text>
</a>
</g>
<!-- Node5&#45;&gt;Node6 -->
<g id="edge12" class="edge"><title>Node5&#45;&gt;Node6</title>
<path fill="none" stroke="midnightblue" d="M266,-134.719C266,-125.572 266,-115.625 266,-107.441"/>
<polygon fill="midnightblue" stroke="midnightblue" points="262.5,-134.937 266,-144.937 269.5,-134.937 262.5,-134.937"/>
</g>
<!-- Node7 -->
<g id="node14" class="node"><title>Node7</title>
<a xlink:href="_t_h2_t_a_p_s_8h.html" target="_top" xlink:title="src/base/cbtaps_display\l/TH2TAPS.h">
<polygon fill="white" stroke="black" points="345,-73 345,-107 467,-107 467,-73 345,-73"/>
<text text-anchor="start" x="353" y="-94" font-family="Helvetica,sans-Serif" font-size="10.00">src/base/cbtaps_display</text>
<text text-anchor="middle" x="406" y="-81" font-family="Helvetica,sans-Serif" font-size="10.00">/TH2TAPS.h</text>
</a>
</g>
<!-- Node5&#45;&gt;Node7 -->
<g id="edge14" class="edge"><title>Node5&#45;&gt;Node7</title>
<path fill="none" stroke="midnightblue" d="M308.338,-140.226C328.925,-129.638 353.318,-117.094 372.575,-107.19"/>
<polygon fill="midnightblue" stroke="midnightblue" points="306.47,-137.251 299.178,-144.937 309.672,-143.476 306.47,-137.251"/>
</g>
<!-- Node8 -->
<g id="node16" class="node"><title>Node8</title>
<a xlink:href="_t_h2_t_a_p_s_8cc.html" target="_top" xlink:title="src/base/cbtaps_display\l/TH2TAPS.cc">
<polygon fill="white" stroke="black" points="345,-1 345,-35 467,-35 467,-1 345,-1"/>
<text text-anchor="start" x="353" y="-22" font-family="Helvetica,sans-Serif" font-size="10.00">src/base/cbtaps_display</text>
<text text-anchor="middle" x="406" y="-9" font-family="Helvetica,sans-Serif" font-size="10.00">/TH2TAPS.cc</text>
</a>
</g>
<!-- Node7&#45;&gt;Node8 -->
<g id="edge16" class="edge"><title>Node7&#45;&gt;Node8</title>
<path fill="none" stroke="midnightblue" d="M406,-62.7193C406,-53.572 406,-43.6255 406,-35.4407"/>
<polygon fill="midnightblue" stroke="midnightblue" points="402.5,-62.937 406,-72.937 409.5,-62.937 402.5,-62.937"/>
</g>
<!-- Node9&#45;&gt;Node2 -->
<g id="edge20" class="edge"><title>Node9&#45;&gt;Node2</title>
<path fill="none" stroke="midnightblue" d="M335.097,-143.768C289.561,-132.059 231.01,-117.003 187.454,-105.802"/>
<polygon fill="midnightblue" stroke="midnightblue" points="334.342,-147.188 344.899,-146.288 336.086,-140.408 334.342,-147.188"/>
</g>
<!-- Node9&#45;&gt;Node7 -->
<g id="edge24" class="edge"><title>Node9&#45;&gt;Node7</title>
<path fill="none" stroke="midnightblue" d="M406,-134.719C406,-125.572 406,-115.625 406,-107.441"/>
<polygon fill="midnightblue" stroke="midnightblue" points="402.5,-134.937 406,-144.937 409.5,-134.937 402.5,-134.937"/>
</g>
<!-- Node10 -->
<g id="node21" class="node"><title>Node10</title>
<a xlink:href="_t_h2_draw_tool_8cc.html" target="_top" xlink:title="src/base/cbtaps_display\l/TH2DrawTool.cc">
<polygon fill="white" stroke="black" points="485,-73 485,-107 607,-107 607,-73 485,-73"/>
<text text-anchor="start" x="493" y="-94" font-family="Helvetica,sans-Serif" font-size="10.00">src/base/cbtaps_display</text>
<text text-anchor="middle" x="546" y="-81" font-family="Helvetica,sans-Serif" font-size="10.00">/TH2DrawTool.cc</text>
</a>
</g>
<!-- Node9&#45;&gt;Node10 -->
<g id="edge22" class="edge"><title>Node9&#45;&gt;Node10</title>
<path fill="none" stroke="midnightblue" d="M448.338,-140.226C468.925,-129.638 493.318,-117.094 512.575,-107.19"/>
<polygon fill="midnightblue" stroke="midnightblue" points="446.47,-137.251 439.178,-144.937 449.672,-143.476 446.47,-137.251"/>
</g>
</g>
</svg>
