<?xml version="1.0" encoding="UTF-8" standalone="no"?>
<!DOCTYPE svg PUBLIC "-//W3C//DTD SVG 1.1//EN"
 "http://www.w3.org/Graphics/SVG/1.1/DTD/svg11.dtd">
<!-- Generated by graphviz version 2.26.3 (20100126.1600)
 -->
<!-- Title: src/base/std_ext/misc.h Pages: 1 -->
<svg width="728pt" height="102pt"
 viewBox="0.00 0.00 728.00 102.00" xmlns="http://www.w3.org/2000/svg" xmlns:xlink="http://www.w3.org/1999/xlink">
<g id="graph1" class="graph" transform="scale(1 1) rotate(0) translate(4 98)">
<title>src/base/std_ext/misc.h</title>
<polygon fill="white" stroke="white" points="-4,5 -4,-98 725,-98 725,5 -4,5"/>
<!-- Node1 -->
<g id="node1" class="node"><title>Node1</title>
<polygon fill="#bfbfbf" stroke="black" points="271,-72.5 271,-93.5 393,-93.5 393,-72.5 271,-72.5"/>
<text text-anchor="middle" x="332" y="-80.5" font-family="Helvetica,sans-Serif" font-size="10.00">src/base/std_ext/misc.h</text>
</g>
<!-- Node2 -->
<g id="node3" class="node"><title>Node2</title>
<a xlink:href="_data_base_8cc.html" target="_top" xlink:title="src/calibration/DataBase.cc">
<polygon fill="white" stroke="black" points="-0.5,-7.5 -0.5,-28.5 136.5,-28.5 136.5,-7.5 -0.5,-7.5"/>
<text text-anchor="middle" x="68" y="-15.5" font-family="Helvetica,sans-Serif" font-size="10.00">src/calibration/DataBase.cc</text>
</a>
</g>
<!-- Node1&#45;&gt;Node2 -->
<g id="edge2" class="edge"><title>Node1&#45;&gt;Node2</title>
<path fill="none" stroke="midnightblue" d="M279.41,-70.0517C229.888,-57.8588 156.634,-39.8227 110.648,-28.5005"/>
<polygon fill="midnightblue" stroke="midnightblue" points="278.744,-73.4921 289.29,-72.4844 280.417,-66.6951 278.744,-73.4921"/>
</g>
<!-- Node3 -->
<g id="node5" class="node"><title>Node3</title>
<a xlink:href="_manager_8cc.html" target="_top" xlink:title="src/calibration/gui\l/Manager.cc">
<polygon fill="white" stroke="black" points="153.5,-1 153.5,-35 246.5,-35 246.5,-1 153.5,-1"/>
<text text-anchor="start" x="161.5" y="-22" font-family="Helvetica,sans-Serif" font-size="10.00">src/calibration/gui</text>
<text text-anchor="middle" x="200" y="-9" font-family="Helvetica,sans-Serif" font-size="10.00">/Manager.cc</text>
</a>
</g>
<!-- Node1&#45;&gt;Node3 -->
<g id="edge4" class="edge"><title>Node1&#45;&gt;Node3</title>
<path fill="none" stroke="midnightblue" d="M301.521,-67.9916C281.552,-58.1583 255.404,-45.2821 234.646,-35.0604"/>
<polygon fill="midnightblue" stroke="midnightblue" points="299.981,-71.1342 310.498,-72.412 303.073,-64.8543 299.981,-71.1342"/>
</g>
<!-- Node4 -->
<g id="node7" class="node"><title>Node4</title>
<a xlink:href="_exp_config_8cc.html" target="_top" xlink:title="src/expconfig/ExpConfig.cc">
<polygon fill="white" stroke="black" points="263.5,-7.5 263.5,-28.5 400.5,-28.5 400.5,-7.5 263.5,-7.5"/>
<text text-anchor="middle" x="332" y="-15.5" font-family="Helvetica,sans-Serif" font-size="10.00">src/expconfig/ExpConfig.cc</text>
</a>
</g>
<!-- Node1&#45;&gt;Node4 -->
<g id="edge6" class="edge"><title>Node1&#45;&gt;Node4</title>
<path fill="none" stroke="midnightblue" d="M332,-62.0142C332,-50.8307 332,-37.5583 332,-28.5337"/>
<polygon fill="midnightblue" stroke="midnightblue" points="328.5,-62.2665 332,-72.2666 335.5,-62.2666 328.5,-62.2665"/>
</g>
<!-- Node5 -->
<g id="node9" class="node"><title>Node5</title>
<a xlink:href="_unpacker_acqu__detail_8cc.html" target="_top" xlink:title="src/unpacker/detail\l/UnpackerAcqu_detail.cc">
<polygon fill="white" stroke="black" points="418,-1 418,-35 544,-35 544,-1 418,-1"/>
<text text-anchor="start" x="426" y="-22" font-family="Helvetica,sans-Serif" font-size="10.00">src/unpacker/detail</text>
<text text-anchor="middle" x="481" y="-9" font-family="Helvetica,sans-Serif" font-size="10.00">/UnpackerAcqu_detail.cc</text>
</a>
</g>
<!-- Node1&#45;&gt;Node5 -->
<g id="edge8" class="edge"><title>Node1&#45;&gt;Node5</title>
<path fill="none" stroke="midnightblue" d="M365.49,-68.3904C388.142,-58.5084 418.143,-45.4209 441.892,-35.0604"/>
<polygon fill="midnightblue" stroke="midnightblue" points="364.037,-65.2054 356.271,-72.412 366.836,-71.6214 364.037,-65.2054"/>
</g>
<!-- Node6 -->
<g id="node11" class="node"><title>Node6</title>
<a xlink:href="_test_tree_writer_8cc.html" target="_top" xlink:title="test/unpacker/TestTreeWriter.cc">
<polygon fill="white" stroke="black" points="562,-7.5 562,-28.5 720,-28.5 720,-7.5 562,-7.5"/>
<text text-anchor="middle" x="641" y="-15.5" font-family="Helvetica,sans-Serif" font-size="10.00">test/unpacker/TestTreeWriter.cc</text>
</a>
</g>
<!-- Node1&#45;&gt;Node6 -->
<g id="edge10" class="edge"><title>Node1&#45;&gt;Node6</title>
<path fill="none" stroke="midnightblue" d="M392.108,-70.3559C450.083,-58.1605 536.809,-39.9172 591.082,-28.5005"/>
<polygon fill="midnightblue" stroke="midnightblue" points="391.055,-67.0008 381.99,-72.4844 392.496,-73.8508 391.055,-67.0008"/>
</g>
</g>
</svg>
