<?xml version="1.0" encoding="UTF-8" standalone="no"?>
<!DOCTYPE svg PUBLIC "-//W3C//DTD SVG 1.1//EN"
 "http://www.w3.org/Graphics/SVG/1.1/DTD/svg11.dtd">
<!-- Generated by graphviz version 2.26.3 (20100126.1600)
 -->
<!-- Title: src/base/std_ext/misc.h Pages: 1 -->
<svg width="134pt" height="88pt"
 viewBox="0.00 0.00 134.00 88.00" xmlns="http://www.w3.org/2000/svg" xmlns:xlink="http://www.w3.org/1999/xlink">
<g id="graph1" class="graph" transform="scale(1 1) rotate(0) translate(4 84)">
<title>src/base/std_ext/misc.h</title>
<polygon fill="white" stroke="white" points="-4,5 -4,-84 131,-84 131,5 -4,5"/>
<!-- Node1 -->
<g id="node1" class="node"><title>Node1</title>
<polygon fill="#bfbfbf" stroke="black" points="3,-58.5 3,-79.5 125,-79.5 125,-58.5 3,-58.5"/>
<text text-anchor="middle" x="64" y="-66.5" font-family="Helvetica,sans-Serif" font-size="10.00">src/base/std_ext/misc.h</text>
</g>
<!-- Node2 -->
<g id="node3" class="node"><title>Node2</title>
<polygon fill="white" stroke="#bfbfbf" points="0,-0.5 0,-21.5 56,-21.5 56,-0.5 0,-0.5"/>
<text text-anchor="middle" x="28" y="-8.5" font-family="Helvetica,sans-Serif" font-size="10.00">algorithm</text>
</g>
<!-- Node1&#45;&gt;Node2 -->
<g id="edge2" class="edge"><title>Node1&#45;&gt;Node2</title>
<path fill="none" stroke="midnightblue" d="M57.397,-58.3619C52.5254,-50.5131 45.7616,-39.6159 39.95,-30.2527"/>
<polygon fill="midnightblue" stroke="midnightblue" points="42.8085,-28.2213 34.5611,-21.5707 36.861,-31.9129 42.8085,-28.2213"/>
</g>
<!-- Node3 -->
<g id="node5" class="node"><title>Node3</title>
<polygon fill="white" stroke="#bfbfbf" points="73.5,-0.5 73.5,-21.5 126.5,-21.5 126.5,-0.5 73.5,-0.5"/>
<text text-anchor="middle" x="100" y="-8.5" font-family="Helvetica,sans-Serif" font-size="10.00">cxxabi.h</text>
</g>
<!-- Node1&#45;&gt;Node3 -->
<g id="edge4" class="edge"><title>Node1&#45;&gt;Node3</title>
<path fill="none" stroke="midnightblue" d="M70.603,-58.3619C75.4746,-50.5131 82.2384,-39.6159 88.05,-30.2527"/>
<polygon fill="midnightblue" stroke="midnightblue" points="91.139,-31.9129 93.4389,-21.5707 85.1915,-28.2213 91.139,-31.9129"/>
</g>
</g>
</svg>
