<?xml version="1.0" encoding="UTF-8" standalone="no"?>
<!DOCTYPE svg PUBLIC "-//W3C//DTD SVG 1.1//EN"
 "http://www.w3.org/Graphics/SVG/1.1/DTD/svg11.dtd">
<!-- Generated by graphviz version 2.26.3 (20100126.1600)
 -->
<!-- Title: src/analysis/utils/particle_tools.cc Pages: 1 -->
<svg width="728pt" height="450pt"
 viewBox="0.00 0.00 727.66 450.00" xmlns="http://www.w3.org/2000/svg" xmlns:xlink="http://www.w3.org/1999/xlink">
<g id="graph1" class="graph" transform="scale(1 1) rotate(0) translate(4 446)">
<title>src/analysis/utils/particle_tools.cc</title>
<polygon fill="white" stroke="white" points="-4,5 -4,-446 724.662,-446 724.662,5 -4,5"/>
<!-- Node1 -->
<g id="node1" class="node"><title>Node1</title>
<polygon fill="#bfbfbf" stroke="black" points="160.392,-407 160.392,-441 251.392,-441 251.392,-407 160.392,-407"/>
<text text-anchor="start" x="168.392" y="-428" font-family="Helvetica,sans-Serif" font-size="10.00">src/analysis/utils</text>
<text text-anchor="middle" x="205.892" y="-415" font-family="Helvetica,sans-Serif" font-size="10.00">/particle_tools.cc</text>
</g>
<!-- Node2 -->
<g id="node3" class="node"><title>Node2</title>
<a xlink:href="particle__tools_8h.html" target="_top" xlink:title="particle_tools.h">
<polygon fill="white" stroke="black" points="122.392,-348.5 122.392,-369.5 205.392,-369.5 205.392,-348.5 122.392,-348.5"/>
<text text-anchor="middle" x="163.892" y="-356.5" font-family="Helvetica,sans-Serif" font-size="10.00">particle_tools.h</text>
</a>
</g>
<!-- Node1&#45;&gt;Node2 -->
<g id="edge2" class="edge"><title>Node1&#45;&gt;Node2</title>
<path fill="none" stroke="midnightblue" d="M194.857,-406.922C189.17,-398.12 182.213,-387.354 176.336,-378.258"/>
<polygon fill="midnightblue" stroke="midnightblue" points="179.271,-376.352 170.904,-369.852 173.392,-380.151 179.271,-376.352"/>
</g>
<!-- Node24 -->
<g id="node62" class="node"><title>Node24</title>
<polygon fill="white" stroke="#bfbfbf" points="222.892,-348.5 222.892,-369.5 274.892,-369.5 274.892,-348.5 222.892,-348.5"/>
<text text-anchor="middle" x="248.892" y="-356.5" font-family="Helvetica,sans-Serif" font-size="10.00">sstream</text>
</g>
<!-- Node1&#45;&gt;Node24 -->
<g id="edge76" class="edge"><title>Node1&#45;&gt;Node24</title>
<path fill="none" stroke="midnightblue" d="M217.19,-406.922C223.013,-398.12 230.135,-387.354 236.153,-378.258"/>
<polygon fill="midnightblue" stroke="midnightblue" points="239.115,-380.123 241.713,-369.852 233.277,-376.261 239.115,-380.123"/>
</g>
<!-- Node3 -->
<g id="node5" class="node"><title>Node3</title>
<a xlink:href="_particle_8h.html" target="_top" xlink:title="analysis/data/Particle.h">
<polygon fill="white" stroke="black" points="321.392,-290.5 321.392,-311.5 440.392,-311.5 440.392,-290.5 321.392,-290.5"/>
<text text-anchor="middle" x="380.892" y="-298.5" font-family="Helvetica,sans-Serif" font-size="10.00">analysis/data/Particle.h</text>
</a>
</g>
<!-- Node2&#45;&gt;Node3 -->
<g id="edge4" class="edge"><title>Node2&#45;&gt;Node3</title>
<path fill="none" stroke="midnightblue" d="M203.189,-348.497C239.179,-338.877 292.603,-324.598 331.472,-314.209"/>
<polygon fill="midnightblue" stroke="midnightblue" points="332.764,-317.487 341.521,-311.523 330.957,-310.724 332.764,-317.487"/>
</g>
<!-- Node9 -->
<g id="node18" class="node"><title>Node9</title>
<polygon fill="white" stroke="#bfbfbf" points="109.392,-58.5 109.392,-79.5 150.392,-79.5 150.392,-58.5 109.392,-58.5"/>
<text text-anchor="middle" x="129.892" y="-66.5" font-family="Helvetica,sans-Serif" font-size="10.00">string</text>
</g>
<!-- Node2&#45;&gt;Node9 -->
<g id="edge74" class="edge"><title>Node2&#45;&gt;Node9</title>
<path fill="none" stroke="midnightblue" d="M146.758,-348.366C111.866,-325.563 33.3761,-268.126 3.89218,-196 -17.6321,-143.346 56.1323,-101.029 99.8586,-81.2086"/>
<polygon fill="midnightblue" stroke="midnightblue" points="101.461,-84.3278 109.21,-77.1029 98.6466,-77.9183 101.461,-84.3278"/>
</g>
<!-- Node4 -->
<g id="node7" class="node"><title>Node4</title>
<a xlink:href="printable_8h.html" target="_top" xlink:title="base/printable.h">
<polygon fill="white" stroke="black" points="621.892,-58.5 621.892,-79.5 707.892,-79.5 707.892,-58.5 621.892,-58.5"/>
<text text-anchor="middle" x="664.892" y="-66.5" font-family="Helvetica,sans-Serif" font-size="10.00">base/printable.h</text>
</a>
</g>
<!-- Node3&#45;&gt;Node4 -->
<g id="edge6" class="edge"><title>Node3&#45;&gt;Node4</title>
<path fill="none" stroke="midnightblue" d="M440.419,-299.118C512.276,-295.487 626.981,-284.884 654.892,-254 696.113,-208.389 681.356,-127.761 671.231,-89.8291"/>
<polygon fill="midnightblue" stroke="midnightblue" points="674.517,-88.5878 668.427,-79.9189 667.782,-90.4941 674.517,-88.5878"/>
</g>
<!-- Node5 -->
<g id="node9" class="node"><title>Node5</title>
<polygon fill="white" stroke="#bfbfbf" points="193.892,-0.5 193.892,-21.5 237.892,-21.5 237.892,-0.5 193.892,-0.5"/>
<text text-anchor="middle" x="215.892" y="-8.5" font-family="Helvetica,sans-Serif" font-size="10.00">vector</text>
</g>
<!-- Node3&#45;&gt;Node5 -->
<g id="edge68" class="edge"><title>Node3&#45;&gt;Node5</title>
<path fill="none" stroke="midnightblue" d="M351.413,-290.453C315.427,-275.718 256.564,-245.121 233.892,-196 208.511,-141.009 210.671,-67.2113 213.631,-31.742"/>
<polygon fill="midnightblue" stroke="midnightblue" points="217.129,-31.9305 214.587,-21.6452 210.16,-31.271 217.129,-31.9305"/>
</g>
<!-- Node7 -->
<g id="node13" class="node"><title>Node7</title>
<a xlink:href="types_8h.html" target="_top" xlink:title="base/types.h">
<polygon fill="white" stroke="black" points="242.392,-174.5 242.392,-195.5 315.392,-195.5 315.392,-174.5 242.392,-174.5"/>
<text text-anchor="middle" x="278.892" y="-182.5" font-family="Helvetica,sans-Serif" font-size="10.00">base/types.h</text>
</a>
</g>
<!-- Node3&#45;&gt;Node7 -->
<g id="edge12" class="edge"><title>Node3&#45;&gt;Node7</title>
<path fill="none" stroke="midnightblue" d="M356.446,-290.354C340.502,-282.346 320.248,-270.012 306.892,-254 295.164,-239.94 287.843,-220.319 283.642,-205.593"/>
<polygon fill="midnightblue" stroke="midnightblue" points="287.022,-204.681 281.116,-195.885 280.247,-206.444 287.022,-204.681"/>
</g>
<!-- Node8 -->
<g id="node15" class="node"><title>Node8</title>
<a xlink:href="_particle_type_8h.html" target="_top" xlink:title="base/ParticleType.h">
<polygon fill="white" stroke="black" points="82.8922,-232.5 82.8922,-253.5 186.892,-253.5 186.892,-232.5 82.8922,-232.5"/>
<text text-anchor="middle" x="134.892" y="-240.5" font-family="Helvetica,sans-Serif" font-size="10.00">base/ParticleType.h</text>
</a>
</g>
<!-- Node3&#45;&gt;Node8 -->
<g id="edge14" class="edge"><title>Node3&#45;&gt;Node8</title>
<path fill="none" stroke="midnightblue" d="M336.343,-290.497C295.11,-280.775 233.69,-266.294 189.516,-255.879"/>
<polygon fill="midnightblue" stroke="midnightblue" points="190.061,-252.411 179.524,-253.523 188.454,-259.225 190.061,-252.411"/>
</g>
<!-- Node12 -->
<g id="node26" class="node"><title>Node12</title>
<a xlink:href="_candidate_8h.html" target="_top" xlink:title="analysis/data/Candidate.h">
<polygon fill="white" stroke="black" points="315.892,-232.5 315.892,-253.5 445.892,-253.5 445.892,-232.5 315.892,-232.5"/>
<text text-anchor="middle" x="380.892" y="-240.5" font-family="Helvetica,sans-Serif" font-size="10.00">analysis/data/Candidate.h</text>
</a>
</g>
<!-- Node3&#45;&gt;Node12 -->
<g id="edge28" class="edge"><title>Node3&#45;&gt;Node12</title>
<path fill="none" stroke="midnightblue" d="M380.892,-290.362C380.892,-282.922 380.892,-272.743 380.892,-263.728"/>
<polygon fill="midnightblue" stroke="midnightblue" points="384.392,-263.571 380.892,-253.571 377.392,-263.571 384.392,-263.571"/>
</g>
<!-- Node19 -->
<g id="node46" class="node"><title>Node19</title>
<polygon fill="white" stroke="#bfbfbf" points="591.392,-116.5 591.392,-137.5 620.392,-137.5 620.392,-116.5 591.392,-116.5"/>
<text text-anchor="middle" x="605.892" y="-124.5" font-family="Helvetica,sans-Serif" font-size="10.00">list</text>
</g>
<!-- Node3&#45;&gt;Node19 -->
<g id="edge70" class="edge"><title>Node3&#45;&gt;Node19</title>
<path fill="none" stroke="midnightblue" d="M440.427,-298.606C508.099,-294.488 612.379,-283.423 636.892,-254 662.883,-222.803 637.406,-173.184 619.704,-146.128"/>
<polygon fill="midnightblue" stroke="midnightblue" points="622.391,-143.855 613.864,-137.566 616.608,-147.8 622.391,-143.855"/>
</g>
<!-- Node22 -->
<g id="node55" class="node"><title>Node22</title>
<polygon fill="white" stroke="#bfbfbf" points="463.892,-232.5 463.892,-253.5 555.892,-253.5 555.892,-232.5 463.892,-232.5"/>
<text text-anchor="middle" x="509.892" y="-240.5" font-family="Helvetica,sans-Serif" font-size="10.00">TLorentzVector.h</text>
</g>
<!-- Node3&#45;&gt;Node22 -->
<g id="edge66" class="edge"><title>Node3&#45;&gt;Node22</title>
<path fill="none" stroke="midnightblue" d="M404.253,-290.497C424.583,-281.356 454.271,-268.008 477.001,-257.788"/>
<polygon fill="midnightblue" stroke="midnightblue" points="478.584,-260.914 486.269,-253.621 475.713,-254.53 478.584,-260.914"/>
</g>
<!-- Node23 -->
<g id="node59" class="node"><title>Node23</title>
<polygon fill="white" stroke="#bfbfbf" points="573.892,-232.5 573.892,-253.5 627.892,-253.5 627.892,-232.5 573.892,-232.5"/>
<text text-anchor="middle" x="600.892" y="-240.5" font-family="Helvetica,sans-Serif" font-size="10.00">iostream</text>
</g>
<!-- Node3&#45;&gt;Node23 -->
<g id="edge72" class="edge"><title>Node3&#45;&gt;Node23</title>
<path fill="none" stroke="midnightblue" d="M424.541,-290.457C459.729,-281.821 510.707,-269.005 563.858,-254.209"/>
<polygon fill="midnightblue" stroke="midnightblue" points="565.119,-257.491 573.805,-251.424 563.232,-250.75 565.119,-257.491"/>
</g>
<!-- Node4&#45;&gt;Node5 -->
<g id="edge8" class="edge"><title>Node4&#45;&gt;Node5</title>
<path fill="none" stroke="midnightblue" d="M621.819,-59.5743C618.803,-59.0112 615.806,-58.4796 612.892,-58 478.006,-35.7956 315.673,-19.9368 247.974,-13.8032"/>
<polygon fill="midnightblue" stroke="midnightblue" points="248.213,-10.3107 237.94,-12.9028 247.587,-17.2826 248.213,-10.3107"/>
</g>
<!-- Node6 -->
<g id="node11" class="node"><title>Node6</title>
<polygon fill="white" stroke="#bfbfbf" points="638.892,-0.5 638.892,-21.5 690.892,-21.5 690.892,-0.5 638.892,-0.5"/>
<text text-anchor="middle" x="664.892" y="-8.5" font-family="Helvetica,sans-Serif" font-size="10.00">ostream</text>
</g>
<!-- Node4&#45;&gt;Node6 -->
<g id="edge10" class="edge"><title>Node4&#45;&gt;Node6</title>
<path fill="none" stroke="midnightblue" d="M664.892,-58.3619C664.892,-50.9219 664.892,-40.7427 664.892,-31.7276"/>
<polygon fill="midnightblue" stroke="midnightblue" points="668.392,-31.5706 664.892,-21.5707 661.392,-31.5707 668.392,-31.5706"/>
</g>
<!-- Node8&#45;&gt;Node5 -->
<g id="edge26" class="edge"><title>Node8&#45;&gt;Node5</title>
<path fill="none" stroke="midnightblue" d="M82.6417,-236.589C40.5343,-228.621 -9.6153,-211.21 3.89218,-174 26.824,-110.828 46.635,-97.6572 100.892,-58 126.032,-39.625 159.392,-27.027 183.705,-19.5343"/>
<polygon fill="midnightblue" stroke="midnightblue" points="184.923,-22.8243 193.521,-16.6338 182.939,-16.1113 184.923,-22.8243"/>
</g>
<!-- Node8&#45;&gt;Node6 -->
<g id="edge20" class="edge"><title>Node8&#45;&gt;Node6</title>
<path fill="none" stroke="midnightblue" d="M139.205,-232.254C152.979,-199.497 199.369,-100.548 272.892,-58 332.984,-23.2246 543.452,-14.0552 628.665,-11.7427"/>
<polygon fill="midnightblue" stroke="midnightblue" points="628.982,-15.2359 638.889,-11.4822 628.804,-8.23816 628.982,-15.2359"/>
</g>
<!-- Node8&#45;&gt;Node7 -->
<g id="edge16" class="edge"><title>Node8&#45;&gt;Node7</title>
<path fill="none" stroke="midnightblue" d="M160.969,-232.497C183.967,-223.234 217.693,-209.65 243.192,-199.379"/>
<polygon fill="midnightblue" stroke="midnightblue" points="244.554,-202.604 252.522,-195.621 241.939,-196.111 244.554,-202.604"/>
</g>
<!-- Node8&#45;&gt;Node9 -->
<g id="edge18" class="edge"><title>Node8&#45;&gt;Node9</title>
<path fill="none" stroke="midnightblue" d="M134.587,-232.377C133.78,-204.293 131.578,-127.673 130.501,-90.2027"/>
<polygon fill="midnightblue" stroke="midnightblue" points="133.992,-89.823 130.206,-79.9277 126.995,-90.0242 133.992,-89.823"/>
</g>
<!-- Node10 -->
<g id="node21" class="node"><title>Node10</title>
<polygon fill="white" stroke="#bfbfbf" points="12.3922,-174.5 12.3922,-195.5 47.3922,-195.5 47.3922,-174.5 12.3922,-174.5"/>
<text text-anchor="middle" x="29.8922" y="-182.5" font-family="Helvetica,sans-Serif" font-size="10.00">map</text>
</g>
<!-- Node8&#45;&gt;Node10 -->
<g id="edge22" class="edge"><title>Node8&#45;&gt;Node10</title>
<path fill="none" stroke="midnightblue" d="M115.634,-232.362C99.0212,-223.186 74.8654,-209.842 56.4237,-199.655"/>
<polygon fill="midnightblue" stroke="midnightblue" points="58.0754,-196.569 47.6298,-194.798 54.6908,-202.697 58.0754,-196.569"/>
</g>
<!-- Node11 -->
<g id="node23" class="node"><title>Node11</title>
<polygon fill="white" stroke="#bfbfbf" points="64.3922,-174.5 64.3922,-195.5 111.392,-195.5 111.392,-174.5 64.3922,-174.5"/>
<text text-anchor="middle" x="87.8922" y="-182.5" font-family="Helvetica,sans-Serif" font-size="10.00">iterator</text>
</g>
<!-- Node8&#45;&gt;Node11 -->
<g id="edge24" class="edge"><title>Node8&#45;&gt;Node11</title>
<path fill="none" stroke="midnightblue" d="M126.272,-232.362C119.713,-224.268 110.527,-212.932 102.786,-203.38"/>
<polygon fill="midnightblue" stroke="midnightblue" points="105.473,-201.136 96.4581,-195.571 100.035,-205.544 105.473,-201.136"/>
</g>
<!-- Node12&#45;&gt;Node4 -->
<g id="edge30" class="edge"><title>Node12&#45;&gt;Node4</title>
<path fill="none" stroke="midnightblue" d="M444.767,-232.497C506.128,-221.936 591.345,-205.847 603.892,-196 638.037,-169.205 654.155,-118.538 660.831,-89.9669"/>
<polygon fill="midnightblue" stroke="midnightblue" points="664.323,-90.3776 663.011,-79.8644 657.48,-88.9012 664.323,-90.3776"/>
</g>
<!-- Node12&#45;&gt;Node5 -->
<g id="edge64" class="edge"><title>Node12&#45;&gt;Node5</title>
<path fill="none" stroke="midnightblue" d="M373.374,-232.429C347.604,-196.195 262.61,-76.6882 229.378,-29.9621"/>
<polygon fill="midnightblue" stroke="midnightblue" points="232.103,-27.7542 223.455,-21.6335 226.398,-31.8112 232.103,-27.7542"/>
</g>
<!-- Node12&#45;&gt;Node6 -->
<g id="edge60" class="edge"><title>Node12&#45;&gt;Node6</title>
<path fill="none" stroke="midnightblue" d="M445.908,-233.084C513.789,-222.342 612.516,-205.474 627.892,-196 683.216,-161.913 696.006,-141.534 716.892,-80 720.035,-70.741 720.861,-66.9362 716.892,-58 711.49,-45.8358 701.212,-35.4865 691.211,-27.6217"/>
<polygon fill="midnightblue" stroke="midnightblue" points="693.127,-24.6872 682.987,-21.6143 688.998,-30.3395 693.127,-24.6872"/>
</g>
<!-- Node12&#45;&gt;Node7 -->
<g id="edge32" class="edge"><title>Node12&#45;&gt;Node7</title>
<path fill="none" stroke="midnightblue" d="M362.184,-232.362C346.512,-223.45 323.928,-210.609 306.229,-200.545"/>
<polygon fill="midnightblue" stroke="midnightblue" points="307.905,-197.471 297.482,-195.571 304.445,-203.556 307.905,-197.471"/>
</g>
<!-- Node13 -->
<g id="node30" class="node"><title>Node13</title>
<a xlink:href="_detector__t_8h.html" target="_top" xlink:title="base/Detector_t.h">
<polygon fill="white" stroke="black" points="333.392,-116.5 333.392,-137.5 428.392,-137.5 428.392,-116.5 333.392,-116.5"/>
<text text-anchor="middle" x="380.892" y="-124.5" font-family="Helvetica,sans-Serif" font-size="10.00">base/Detector_t.h</text>
</a>
</g>
<!-- Node12&#45;&gt;Node13 -->
<g id="edge34" class="edge"><title>Node12&#45;&gt;Node13</title>
<path fill="none" stroke="midnightblue" d="M380.892,-232.295C380.892,-213.131 380.892,-172.654 380.892,-147.843"/>
<polygon fill="midnightblue" stroke="midnightblue" points="384.392,-147.679 380.892,-137.679 377.392,-147.679 384.392,-147.679"/>
</g>
<!-- Node18 -->
<g id="node43" class="node"><title>Node18</title>
<a xlink:href="_cluster_8h.html" target="_top" xlink:title="analysis/data/Cluster.h">
<polygon fill="white" stroke="black" points="478.392,-174.5 478.392,-195.5 595.392,-195.5 595.392,-174.5 478.392,-174.5"/>
<text text-anchor="middle" x="536.892" y="-182.5" font-family="Helvetica,sans-Serif" font-size="10.00">analysis/data/Cluster.h</text>
</a>
</g>
<!-- Node12&#45;&gt;Node18 -->
<g id="edge50" class="edge"><title>Node12&#45;&gt;Node18</title>
<path fill="none" stroke="midnightblue" d="M409.143,-232.497C434.355,-223.123 471.468,-209.324 499.204,-199.012"/>
<polygon fill="midnightblue" stroke="midnightblue" points="500.435,-202.289 508.589,-195.523 497.996,-195.727 500.435,-202.289"/>
</g>
<!-- Node21 -->
<g id="node52" class="node"><title>Node21</title>
<polygon fill="white" stroke="#bfbfbf" points="408.892,-174.5 408.892,-195.5 460.892,-195.5 460.892,-174.5 408.892,-174.5"/>
<text text-anchor="middle" x="434.892" y="-182.5" font-family="Helvetica,sans-Serif" font-size="10.00">memory</text>
</g>
<!-- Node12&#45;&gt;Node21 -->
<g id="edge62" class="edge"><title>Node12&#45;&gt;Node21</title>
<path fill="none" stroke="midnightblue" d="M390.797,-232.362C398.409,-224.186 409.1,-212.702 418.049,-203.091"/>
<polygon fill="midnightblue" stroke="midnightblue" points="420.798,-205.275 425.051,-195.571 415.675,-200.505 420.798,-205.275"/>
</g>
<!-- Node13&#45;&gt;Node4 -->
<g id="edge36" class="edge"><title>Node13&#45;&gt;Node4</title>
<path fill="none" stroke="midnightblue" d="M428.46,-117.488C473.265,-108.5 542.537,-94.532 611.972,-80.1795"/>
<polygon fill="midnightblue" stroke="midnightblue" points="612.685,-83.6062 621.768,-78.1522 611.266,-76.7514 612.685,-83.6062"/>
</g>
<!-- Node13&#45;&gt;Node5 -->
<g id="edge48" class="edge"><title>Node13&#45;&gt;Node5</title>
<path fill="none" stroke="midnightblue" d="M379.378,-116.345C376.692,-101.304 369.699,-73.9069 352.892,-58 324.058,-30.7099 278.68,-19.2043 248.132,-14.3936"/>
<polygon fill="midnightblue" stroke="midnightblue" points="248.389,-10.8951 237.997,-12.9563 247.406,-17.8258 248.389,-10.8951"/>
</g>
<!-- Node13&#45;&gt;Node9 -->
<g id="edge44" class="edge"><title>Node13&#45;&gt;Node9</title>
<path fill="none" stroke="midnightblue" d="M335.438,-116.497C284.693,-104.771 203.981,-86.12 160.326,-76.0325"/>
<polygon fill="midnightblue" stroke="midnightblue" points="161.107,-72.6209 150.576,-73.7795 159.531,-79.4412 161.107,-72.6209"/>
</g>
<!-- Node14 -->
<g id="node33" class="node"><title>Node14</title>
<polygon fill="white" stroke="#bfbfbf" points="539.392,-58.5 539.392,-79.5 604.392,-79.5 604.392,-58.5 539.392,-58.5"/>
<text text-anchor="middle" x="571.892" y="-66.5" font-family="Helvetica,sans-Serif" font-size="10.00">TVector3.h</text>
</g>
<!-- Node13&#45;&gt;Node14 -->
<g id="edge38" class="edge"><title>Node13&#45;&gt;Node14</title>
<path fill="none" stroke="midnightblue" d="M415.481,-116.497C447.476,-106.781 495.125,-92.3114 529.418,-81.8978"/>
<polygon fill="midnightblue" stroke="midnightblue" points="530.604,-85.1956 539.156,-78.9409 528.57,-78.4976 530.604,-85.1956"/>
</g>
<!-- Node15 -->
<g id="node35" class="node"><title>Node15</title>
<polygon fill="white" stroke="#bfbfbf" points="399.892,-58.5 399.892,-79.5 445.892,-79.5 445.892,-58.5 399.892,-58.5"/>
<text text-anchor="middle" x="422.892" y="-66.5" font-family="Helvetica,sans-Serif" font-size="10.00">cstdint</text>
</g>
<!-- Node13&#45;&gt;Node15 -->
<g id="edge40" class="edge"><title>Node13&#45;&gt;Node15</title>
<path fill="none" stroke="midnightblue" d="M388.596,-116.362C394.338,-108.431 402.335,-97.3885 409.162,-87.9606"/>
<polygon fill="midnightblue" stroke="midnightblue" points="412.207,-89.7229 415.238,-79.5707 406.538,-85.6173 412.207,-89.7229"/>
</g>
<!-- Node16 -->
<g id="node37" class="node"><title>Node16</title>
<polygon fill="white" stroke="#bfbfbf" points="463.392,-58.5 463.392,-79.5 522.392,-79.5 522.392,-58.5 463.392,-58.5"/>
<text text-anchor="middle" x="492.892" y="-66.5" font-family="Helvetica,sans-Serif" font-size="10.00">stdexcept</text>
</g>
<!-- Node13&#45;&gt;Node16 -->
<g id="edge42" class="edge"><title>Node13&#45;&gt;Node16</title>
<path fill="none" stroke="midnightblue" d="M401.175,-116.497C418.51,-107.519 443.683,-94.4835 463.273,-84.3387"/>
<polygon fill="midnightblue" stroke="midnightblue" points="465.112,-87.3278 472.382,-79.6212 461.893,-81.1118 465.112,-87.3278"/>
</g>
<!-- Node17 -->
<g id="node40" class="node"><title>Node17</title>
<polygon fill="white" stroke="#bfbfbf" points="281.892,-58.5 281.892,-79.5 343.892,-79.5 343.892,-58.5 281.892,-58.5"/>
<text text-anchor="middle" x="312.892" y="-66.5" font-family="Helvetica,sans-Serif" font-size="10.00">type_traits</text>
</g>
<!-- Node13&#45;&gt;Node17 -->
<g id="edge46" class="edge"><title>Node13&#45;&gt;Node17</title>
<path fill="none" stroke="midnightblue" d="M368.42,-116.362C358.547,-107.941 344.56,-96.0105 333.094,-86.2308"/>
<polygon fill="midnightblue" stroke="midnightblue" points="335.165,-83.3972 325.285,-79.5707 330.622,-88.7231 335.165,-83.3972"/>
</g>
<!-- Node18&#45;&gt;Node13 -->
<g id="edge52" class="edge"><title>Node18&#45;&gt;Node13</title>
<path fill="none" stroke="midnightblue" d="M508.642,-174.497C483.43,-165.123 446.316,-151.324 418.58,-141.012"/>
<polygon fill="midnightblue" stroke="midnightblue" points="419.788,-137.727 409.196,-137.523 417.349,-144.289 419.788,-137.727"/>
</g>
<!-- Node18&#45;&gt;Node14 -->
<g id="edge56" class="edge"><title>Node18&#45;&gt;Node14</title>
<path fill="none" stroke="midnightblue" d="M540.122,-174.295C545.93,-155.045 558.227,-114.289 565.704,-89.5091"/>
<polygon fill="midnightblue" stroke="midnightblue" points="569.132,-90.264 568.67,-79.6792 562.431,-88.2419 569.132,-90.264"/>
</g>
<!-- Node18&#45;&gt;Node19 -->
<g id="edge54" class="edge"><title>Node18&#45;&gt;Node19</title>
<path fill="none" stroke="midnightblue" d="M549.548,-174.362C559.566,-165.941 573.759,-154.011 585.393,-144.231"/>
<polygon fill="midnightblue" stroke="midnightblue" points="587.914,-146.684 593.317,-137.571 583.41,-141.326 587.914,-146.684"/>
</g>
<!-- Node20 -->
<g id="node49" class="node"><title>Node20</title>
<a xlink:href="enumfield_8h.html" target="_top" xlink:title="base/enumfield.h">
<polygon fill="white" stroke="black" points="445.392,-116.5 445.392,-137.5 536.392,-137.5 536.392,-116.5 445.392,-116.5"/>
<text text-anchor="middle" x="490.892" y="-124.5" font-family="Helvetica,sans-Serif" font-size="10.00">base/enumfield.h</text>
</a>
</g>
<!-- Node18&#45;&gt;Node20 -->
<g id="edge58" class="edge"><title>Node18&#45;&gt;Node20</title>
<path fill="none" stroke="midnightblue" d="M528.455,-174.362C522.1,-166.35 513.226,-155.161 505.699,-145.67"/>
<polygon fill="midnightblue" stroke="midnightblue" points="508.232,-143.231 499.276,-137.571 502.748,-147.581 508.232,-143.231"/>
</g>
</g>
</svg>
