<?xml version="1.0" encoding="UTF-8" standalone="no"?>
<!DOCTYPE svg PUBLIC "-//W3C//DTD SVG 1.1//EN"
 "http://www.w3.org/Graphics/SVG/1.1/DTD/svg11.dtd">
<!-- Generated by graphviz version 2.26.3 (20100126.1600)
 -->
<!-- Title: src/analysis/utils/particle_tools.h Pages: 1 -->
<svg width="728pt" height="392pt"
 viewBox="0.00 0.00 727.54 392.00" xmlns="http://www.w3.org/2000/svg" xmlns:xlink="http://www.w3.org/1999/xlink">
<g id="graph1" class="graph" transform="scale(1 1) rotate(0) translate(4 388)">
<title>src/analysis/utils/particle_tools.h</title>
<polygon fill="white" stroke="white" points="-4,5 -4,-388 724.536,-388 724.536,5 -4,5"/>
<!-- Node1 -->
<g id="node1" class="node"><title>Node1</title>
<polygon fill="#bfbfbf" stroke="black" points="118.766,-349 118.766,-383 208.766,-383 208.766,-349 118.766,-349"/>
<text text-anchor="start" x="126.766" y="-370" font-family="Helvetica,sans-Serif" font-size="10.00">src/analysis/utils</text>
<text text-anchor="middle" x="163.766" y="-357" font-family="Helvetica,sans-Serif" font-size="10.00">/particle_tools.h</text>
</g>
<!-- Node2 -->
<g id="node3" class="node"><title>Node2</title>
<a xlink:href="_particle_8h.html" target="_top" xlink:title="analysis/data/Particle.h">
<polygon fill="white" stroke="black" points="321.266,-290.5 321.266,-311.5 440.266,-311.5 440.266,-290.5 321.266,-290.5"/>
<text text-anchor="middle" x="380.766" y="-298.5" font-family="Helvetica,sans-Serif" font-size="10.00">analysis/data/Particle.h</text>
</a>
</g>
<!-- Node1&#45;&gt;Node2 -->
<g id="edge2" class="edge"><title>Node1&#45;&gt;Node2</title>
<path fill="none" stroke="midnightblue" d="M208.992,-352.453C246.119,-341.332 298.439,-325.66 335.56,-314.541"/>
<polygon fill="midnightblue" stroke="midnightblue" points="337.027,-317.755 345.602,-311.533 335.018,-311.05 337.027,-317.755"/>
</g>
<!-- Node8 -->
<g id="node16" class="node"><title>Node8</title>
<polygon fill="white" stroke="#bfbfbf" points="109.266,-58.5 109.266,-79.5 150.266,-79.5 150.266,-58.5 109.266,-58.5"/>
<text text-anchor="middle" x="129.766" y="-66.5" font-family="Helvetica,sans-Serif" font-size="10.00">string</text>
</g>
<!-- Node1&#45;&gt;Node8 -->
<g id="edge72" class="edge"><title>Node1&#45;&gt;Node8</title>
<path fill="none" stroke="midnightblue" d="M138.204,-348.786C100.356,-321.565 30.959,-264.569 3.76602,-196 -17.204,-143.122 56.3216,-100.902 99.8671,-81.1544"/>
<polygon fill="midnightblue" stroke="midnightblue" points="101.431,-84.2905 109.179,-77.0646 98.6155,-77.8815 101.431,-84.2905"/>
</g>
<!-- Node3 -->
<g id="node5" class="node"><title>Node3</title>
<a xlink:href="printable_8h.html" target="_top" xlink:title="base/printable.h">
<polygon fill="white" stroke="black" points="621.766,-58.5 621.766,-79.5 707.766,-79.5 707.766,-58.5 621.766,-58.5"/>
<text text-anchor="middle" x="664.766" y="-66.5" font-family="Helvetica,sans-Serif" font-size="10.00">base/printable.h</text>
</a>
</g>
<!-- Node2&#45;&gt;Node3 -->
<g id="edge4" class="edge"><title>Node2&#45;&gt;Node3</title>
<path fill="none" stroke="midnightblue" d="M440.293,-299.118C512.15,-295.487 626.854,-284.884 654.766,-254 695.987,-208.389 681.23,-127.761 671.105,-89.8291"/>
<polygon fill="midnightblue" stroke="midnightblue" points="674.391,-88.5878 668.3,-79.9189 667.656,-90.4941 674.391,-88.5878"/>
</g>
<!-- Node4 -->
<g id="node7" class="node"><title>Node4</title>
<polygon fill="white" stroke="#bfbfbf" points="193.766,-0.5 193.766,-21.5 237.766,-21.5 237.766,-0.5 193.766,-0.5"/>
<text text-anchor="middle" x="215.766" y="-8.5" font-family="Helvetica,sans-Serif" font-size="10.00">vector</text>
</g>
<!-- Node2&#45;&gt;Node4 -->
<g id="edge66" class="edge"><title>Node2&#45;&gt;Node4</title>
<path fill="none" stroke="midnightblue" d="M351.287,-290.453C315.301,-275.718 256.438,-245.121 233.766,-196 208.384,-141.009 210.545,-67.2113 213.505,-31.742"/>
<polygon fill="midnightblue" stroke="midnightblue" points="217.003,-31.9305 214.46,-21.6452 210.034,-31.271 217.003,-31.9305"/>
</g>
<!-- Node6 -->
<g id="node11" class="node"><title>Node6</title>
<a xlink:href="types_8h.html" target="_top" xlink:title="base/types.h">
<polygon fill="white" stroke="black" points="242.266,-174.5 242.266,-195.5 315.266,-195.5 315.266,-174.5 242.266,-174.5"/>
<text text-anchor="middle" x="278.766" y="-182.5" font-family="Helvetica,sans-Serif" font-size="10.00">base/types.h</text>
</a>
</g>
<!-- Node2&#45;&gt;Node6 -->
<g id="edge10" class="edge"><title>Node2&#45;&gt;Node6</title>
<path fill="none" stroke="midnightblue" d="M356.32,-290.354C340.376,-282.346 320.122,-270.012 306.766,-254 295.038,-239.94 287.717,-220.319 283.516,-205.593"/>
<polygon fill="midnightblue" stroke="midnightblue" points="286.895,-204.681 280.99,-195.885 280.121,-206.444 286.895,-204.681"/>
</g>
<!-- Node7 -->
<g id="node13" class="node"><title>Node7</title>
<a xlink:href="_particle_type_8h.html" target="_top" xlink:title="base/ParticleType.h">
<polygon fill="white" stroke="black" points="82.766,-232.5 82.766,-253.5 186.766,-253.5 186.766,-232.5 82.766,-232.5"/>
<text text-anchor="middle" x="134.766" y="-240.5" font-family="Helvetica,sans-Serif" font-size="10.00">base/ParticleType.h</text>
</a>
</g>
<!-- Node2&#45;&gt;Node7 -->
<g id="edge12" class="edge"><title>Node2&#45;&gt;Node7</title>
<path fill="none" stroke="midnightblue" d="M336.217,-290.497C294.984,-280.775 233.564,-266.294 189.39,-255.879"/>
<polygon fill="midnightblue" stroke="midnightblue" points="189.935,-252.411 179.398,-253.523 188.328,-259.225 189.935,-252.411"/>
</g>
<!-- Node11 -->
<g id="node24" class="node"><title>Node11</title>
<a xlink:href="_candidate_8h.html" target="_top" xlink:title="analysis/data/Candidate.h">
<polygon fill="white" stroke="black" points="315.766,-232.5 315.766,-253.5 445.766,-253.5 445.766,-232.5 315.766,-232.5"/>
<text text-anchor="middle" x="380.766" y="-240.5" font-family="Helvetica,sans-Serif" font-size="10.00">analysis/data/Candidate.h</text>
</a>
</g>
<!-- Node2&#45;&gt;Node11 -->
<g id="edge26" class="edge"><title>Node2&#45;&gt;Node11</title>
<path fill="none" stroke="midnightblue" d="M380.766,-290.362C380.766,-282.922 380.766,-272.743 380.766,-263.728"/>
<polygon fill="midnightblue" stroke="midnightblue" points="384.266,-263.571 380.766,-253.571 377.266,-263.571 384.266,-263.571"/>
</g>
<!-- Node18 -->
<g id="node44" class="node"><title>Node18</title>
<polygon fill="white" stroke="#bfbfbf" points="591.266,-116.5 591.266,-137.5 620.266,-137.5 620.266,-116.5 591.266,-116.5"/>
<text text-anchor="middle" x="605.766" y="-124.5" font-family="Helvetica,sans-Serif" font-size="10.00">list</text>
</g>
<!-- Node2&#45;&gt;Node18 -->
<g id="edge68" class="edge"><title>Node2&#45;&gt;Node18</title>
<path fill="none" stroke="midnightblue" d="M440.301,-298.606C507.973,-294.488 612.253,-283.423 636.766,-254 662.756,-222.803 637.28,-173.184 619.578,-146.128"/>
<polygon fill="midnightblue" stroke="midnightblue" points="622.265,-143.855 613.738,-137.566 616.482,-147.8 622.265,-143.855"/>
</g>
<!-- Node21 -->
<g id="node53" class="node"><title>Node21</title>
<polygon fill="white" stroke="#bfbfbf" points="463.766,-232.5 463.766,-253.5 555.766,-253.5 555.766,-232.5 463.766,-232.5"/>
<text text-anchor="middle" x="509.766" y="-240.5" font-family="Helvetica,sans-Serif" font-size="10.00">TLorentzVector.h</text>
</g>
<!-- Node2&#45;&gt;Node21 -->
<g id="edge64" class="edge"><title>Node2&#45;&gt;Node21</title>
<path fill="none" stroke="midnightblue" d="M404.127,-290.497C424.457,-281.356 454.144,-268.008 476.875,-257.788"/>
<polygon fill="midnightblue" stroke="midnightblue" points="478.458,-260.914 486.143,-253.621 475.587,-254.53 478.458,-260.914"/>
</g>
<!-- Node22 -->
<g id="node57" class="node"><title>Node22</title>
<polygon fill="white" stroke="#bfbfbf" points="573.766,-232.5 573.766,-253.5 627.766,-253.5 627.766,-232.5 573.766,-232.5"/>
<text text-anchor="middle" x="600.766" y="-240.5" font-family="Helvetica,sans-Serif" font-size="10.00">iostream</text>
</g>
<!-- Node2&#45;&gt;Node22 -->
<g id="edge70" class="edge"><title>Node2&#45;&gt;Node22</title>
<path fill="none" stroke="midnightblue" d="M424.415,-290.457C459.603,-281.821 510.581,-269.005 563.732,-254.209"/>
<polygon fill="midnightblue" stroke="midnightblue" points="564.993,-257.491 573.679,-251.424 563.105,-250.75 564.993,-257.491"/>
</g>
<!-- Node3&#45;&gt;Node4 -->
<g id="edge6" class="edge"><title>Node3&#45;&gt;Node4</title>
<path fill="none" stroke="midnightblue" d="M621.693,-59.5743C618.677,-59.0112 615.68,-58.4796 612.766,-58 477.879,-35.7956 315.546,-19.9368 247.848,-13.8032"/>
<polygon fill="midnightblue" stroke="midnightblue" points="248.086,-10.3107 237.814,-12.9028 247.461,-17.2826 248.086,-10.3107"/>
</g>
<!-- Node5 -->
<g id="node9" class="node"><title>Node5</title>
<polygon fill="white" stroke="#bfbfbf" points="638.766,-0.5 638.766,-21.5 690.766,-21.5 690.766,-0.5 638.766,-0.5"/>
<text text-anchor="middle" x="664.766" y="-8.5" font-family="Helvetica,sans-Serif" font-size="10.00">ostream</text>
</g>
<!-- Node3&#45;&gt;Node5 -->
<g id="edge8" class="edge"><title>Node3&#45;&gt;Node5</title>
<path fill="none" stroke="midnightblue" d="M664.766,-58.3619C664.766,-50.9219 664.766,-40.7427 664.766,-31.7276"/>
<polygon fill="midnightblue" stroke="midnightblue" points="668.266,-31.5706 664.766,-21.5707 661.266,-31.5707 668.266,-31.5706"/>
</g>
<!-- Node7&#45;&gt;Node4 -->
<g id="edge24" class="edge"><title>Node7&#45;&gt;Node4</title>
<path fill="none" stroke="midnightblue" d="M82.5155,-236.589C40.4082,-228.621 -9.74147,-211.21 3.76602,-174 26.6979,-110.828 46.5088,-97.6572 100.766,-58 125.906,-39.625 159.266,-27.027 183.579,-19.5343"/>
<polygon fill="midnightblue" stroke="midnightblue" points="184.796,-22.8243 193.395,-16.6338 182.813,-16.1113 184.796,-22.8243"/>
</g>
<!-- Node7&#45;&gt;Node5 -->
<g id="edge18" class="edge"><title>Node7&#45;&gt;Node5</title>
<path fill="none" stroke="midnightblue" d="M139.079,-232.254C152.853,-199.497 199.242,-100.548 272.766,-58 332.858,-23.2246 543.326,-14.0552 628.539,-11.7427"/>
<polygon fill="midnightblue" stroke="midnightblue" points="628.856,-15.2359 638.763,-11.4822 628.677,-8.23816 628.856,-15.2359"/>
</g>
<!-- Node7&#45;&gt;Node6 -->
<g id="edge14" class="edge"><title>Node7&#45;&gt;Node6</title>
<path fill="none" stroke="midnightblue" d="M160.843,-232.497C183.841,-223.234 217.566,-209.65 243.066,-199.379"/>
<polygon fill="midnightblue" stroke="midnightblue" points="244.428,-202.604 252.396,-195.621 241.813,-196.111 244.428,-202.604"/>
</g>
<!-- Node7&#45;&gt;Node8 -->
<g id="edge16" class="edge"><title>Node7&#45;&gt;Node8</title>
<path fill="none" stroke="midnightblue" d="M134.461,-232.377C133.654,-204.293 131.452,-127.673 130.375,-90.2027"/>
<polygon fill="midnightblue" stroke="midnightblue" points="133.866,-89.823 130.08,-79.9277 126.869,-90.0242 133.866,-89.823"/>
</g>
<!-- Node9 -->
<g id="node19" class="node"><title>Node9</title>
<polygon fill="white" stroke="#bfbfbf" points="12.266,-174.5 12.266,-195.5 47.266,-195.5 47.266,-174.5 12.266,-174.5"/>
<text text-anchor="middle" x="29.766" y="-182.5" font-family="Helvetica,sans-Serif" font-size="10.00">map</text>
</g>
<!-- Node7&#45;&gt;Node9 -->
<g id="edge20" class="edge"><title>Node7&#45;&gt;Node9</title>
<path fill="none" stroke="midnightblue" d="M115.507,-232.362C98.895,-223.186 74.7392,-209.842 56.2975,-199.655"/>
<polygon fill="midnightblue" stroke="midnightblue" points="57.9493,-196.569 47.5036,-194.798 54.5646,-202.697 57.9493,-196.569"/>
</g>
<!-- Node10 -->
<g id="node21" class="node"><title>Node10</title>
<polygon fill="white" stroke="#bfbfbf" points="64.266,-174.5 64.266,-195.5 111.266,-195.5 111.266,-174.5 64.266,-174.5"/>
<text text-anchor="middle" x="87.766" y="-182.5" font-family="Helvetica,sans-Serif" font-size="10.00">iterator</text>
</g>
<!-- Node7&#45;&gt;Node10 -->
<g id="edge22" class="edge"><title>Node7&#45;&gt;Node10</title>
<path fill="none" stroke="midnightblue" d="M126.145,-232.362C119.587,-224.268 110.4,-212.932 102.66,-203.38"/>
<polygon fill="midnightblue" stroke="midnightblue" points="105.347,-201.136 96.3319,-195.571 99.9085,-205.544 105.347,-201.136"/>
</g>
<!-- Node11&#45;&gt;Node3 -->
<g id="edge28" class="edge"><title>Node11&#45;&gt;Node3</title>
<path fill="none" stroke="midnightblue" d="M444.641,-232.497C506.002,-221.936 591.218,-205.847 603.766,-196 637.911,-169.205 654.028,-118.538 660.705,-89.9669"/>
<polygon fill="midnightblue" stroke="midnightblue" points="664.197,-90.3776 662.885,-79.8644 657.354,-88.9012 664.197,-90.3776"/>
</g>
<!-- Node11&#45;&gt;Node4 -->
<g id="edge62" class="edge"><title>Node11&#45;&gt;Node4</title>
<path fill="none" stroke="midnightblue" d="M373.248,-232.429C347.478,-196.195 262.484,-76.6882 229.252,-29.9621"/>
<polygon fill="midnightblue" stroke="midnightblue" points="231.977,-27.7542 223.329,-21.6335 226.272,-31.8112 231.977,-27.7542"/>
</g>
<!-- Node11&#45;&gt;Node5 -->
<g id="edge58" class="edge"><title>Node11&#45;&gt;Node5</title>
<path fill="none" stroke="midnightblue" d="M445.781,-233.084C513.663,-222.342 612.39,-205.474 627.766,-196 683.09,-161.913 695.88,-141.534 716.766,-80 719.909,-70.741 720.735,-66.9362 716.766,-58 711.364,-45.8358 701.086,-35.4865 691.084,-27.6217"/>
<polygon fill="midnightblue" stroke="midnightblue" points="693.001,-24.6872 682.861,-21.6143 688.871,-30.3395 693.001,-24.6872"/>
</g>
<!-- Node11&#45;&gt;Node6 -->
<g id="edge30" class="edge"><title>Node11&#45;&gt;Node6</title>
<path fill="none" stroke="midnightblue" d="M362.058,-232.362C346.385,-223.45 323.802,-210.609 306.103,-200.545"/>
<polygon fill="midnightblue" stroke="midnightblue" points="307.779,-197.471 297.356,-195.571 304.319,-203.556 307.779,-197.471"/>
</g>
<!-- Node12 -->
<g id="node28" class="node"><title>Node12</title>
<a xlink:href="_detector__t_8h.html" target="_top" xlink:title="base/Detector_t.h">
<polygon fill="white" stroke="black" points="333.266,-116.5 333.266,-137.5 428.266,-137.5 428.266,-116.5 333.266,-116.5"/>
<text text-anchor="middle" x="380.766" y="-124.5" font-family="Helvetica,sans-Serif" font-size="10.00">base/Detector_t.h</text>
</a>
</g>
<!-- Node11&#45;&gt;Node12 -->
<g id="edge32" class="edge"><title>Node11&#45;&gt;Node12</title>
<path fill="none" stroke="midnightblue" d="M380.766,-232.295C380.766,-213.131 380.766,-172.654 380.766,-147.843"/>
<polygon fill="midnightblue" stroke="midnightblue" points="384.266,-147.679 380.766,-137.679 377.266,-147.679 384.266,-147.679"/>
</g>
<!-- Node17 -->
<g id="node41" class="node"><title>Node17</title>
<a xlink:href="_cluster_8h.html" target="_top" xlink:title="analysis/data/Cluster.h">
<polygon fill="white" stroke="black" points="478.266,-174.5 478.266,-195.5 595.266,-195.5 595.266,-174.5 478.266,-174.5"/>
<text text-anchor="middle" x="536.766" y="-182.5" font-family="Helvetica,sans-Serif" font-size="10.00">analysis/data/Cluster.h</text>
</a>
</g>
<!-- Node11&#45;&gt;Node17 -->
<g id="edge48" class="edge"><title>Node11&#45;&gt;Node17</title>
<path fill="none" stroke="midnightblue" d="M409.016,-232.497C434.228,-223.123 471.342,-209.324 499.078,-199.012"/>
<polygon fill="midnightblue" stroke="midnightblue" points="500.309,-202.289 508.463,-195.523 497.87,-195.727 500.309,-202.289"/>
</g>
<!-- Node20 -->
<g id="node50" class="node"><title>Node20</title>
<polygon fill="white" stroke="#bfbfbf" points="408.766,-174.5 408.766,-195.5 460.766,-195.5 460.766,-174.5 408.766,-174.5"/>
<text text-anchor="middle" x="434.766" y="-182.5" font-family="Helvetica,sans-Serif" font-size="10.00">memory</text>
</g>
<!-- Node11&#45;&gt;Node20 -->
<g id="edge60" class="edge"><title>Node11&#45;&gt;Node20</title>
<path fill="none" stroke="midnightblue" d="M390.67,-232.362C398.282,-224.186 408.974,-212.702 417.923,-203.091"/>
<polygon fill="midnightblue" stroke="midnightblue" points="420.672,-205.275 424.924,-195.571 415.549,-200.505 420.672,-205.275"/>
</g>
<!-- Node12&#45;&gt;Node3 -->
<g id="edge34" class="edge"><title>Node12&#45;&gt;Node3</title>
<path fill="none" stroke="midnightblue" d="M428.333,-117.488C473.139,-108.5 542.411,-94.532 611.846,-80.1795"/>
<polygon fill="midnightblue" stroke="midnightblue" points="612.559,-83.6062 621.642,-78.1522 611.14,-76.7514 612.559,-83.6062"/>
</g>
<!-- Node12&#45;&gt;Node4 -->
<g id="edge46" class="edge"><title>Node12&#45;&gt;Node4</title>
<path fill="none" stroke="midnightblue" d="M379.252,-116.345C376.566,-101.304 369.573,-73.9069 352.766,-58 323.932,-30.7099 278.554,-19.2043 248.006,-14.3936"/>
<polygon fill="midnightblue" stroke="midnightblue" points="248.263,-10.8951 237.871,-12.9563 247.28,-17.8258 248.263,-10.8951"/>
</g>
<!-- Node12&#45;&gt;Node8 -->
<g id="edge42" class="edge"><title>Node12&#45;&gt;Node8</title>
<path fill="none" stroke="midnightblue" d="M335.312,-116.497C284.566,-104.771 203.854,-86.12 160.2,-76.0325"/>
<polygon fill="midnightblue" stroke="midnightblue" points="160.981,-72.6209 150.45,-73.7795 159.405,-79.4412 160.981,-72.6209"/>
</g>
<!-- Node13 -->
<g id="node31" class="node"><title>Node13</title>
<polygon fill="white" stroke="#bfbfbf" points="539.266,-58.5 539.266,-79.5 604.266,-79.5 604.266,-58.5 539.266,-58.5"/>
<text text-anchor="middle" x="571.766" y="-66.5" font-family="Helvetica,sans-Serif" font-size="10.00">TVector3.h</text>
</g>
<!-- Node12&#45;&gt;Node13 -->
<g id="edge36" class="edge"><title>Node12&#45;&gt;Node13</title>
<path fill="none" stroke="midnightblue" d="M415.355,-116.497C447.349,-106.781 494.999,-92.3114 529.292,-81.8978"/>
<polygon fill="midnightblue" stroke="midnightblue" points="530.478,-85.1956 539.03,-78.9409 528.444,-78.4976 530.478,-85.1956"/>
</g>
<!-- Node14 -->
<g id="node33" class="node"><title>Node14</title>
<polygon fill="white" stroke="#bfbfbf" points="399.766,-58.5 399.766,-79.5 445.766,-79.5 445.766,-58.5 399.766,-58.5"/>
<text text-anchor="middle" x="422.766" y="-66.5" font-family="Helvetica,sans-Serif" font-size="10.00">cstdint</text>
</g>
<!-- Node12&#45;&gt;Node14 -->
<g id="edge38" class="edge"><title>Node12&#45;&gt;Node14</title>
<path fill="none" stroke="midnightblue" d="M388.469,-116.362C394.212,-108.431 402.209,-97.3885 409.036,-87.9606"/>
<polygon fill="midnightblue" stroke="midnightblue" points="412.081,-89.7229 415.111,-79.5707 406.411,-85.6173 412.081,-89.7229"/>
</g>
<!-- Node15 -->
<g id="node35" class="node"><title>Node15</title>
<polygon fill="white" stroke="#bfbfbf" points="463.266,-58.5 463.266,-79.5 522.266,-79.5 522.266,-58.5 463.266,-58.5"/>
<text text-anchor="middle" x="492.766" y="-66.5" font-family="Helvetica,sans-Serif" font-size="10.00">stdexcept</text>
</g>
<!-- Node12&#45;&gt;Node15 -->
<g id="edge40" class="edge"><title>Node12&#45;&gt;Node15</title>
<path fill="none" stroke="midnightblue" d="M401.048,-116.497C418.384,-107.519 443.556,-94.4835 463.146,-84.3387"/>
<polygon fill="midnightblue" stroke="midnightblue" points="464.986,-87.3278 472.256,-79.6212 461.767,-81.1118 464.986,-87.3278"/>
</g>
<!-- Node16 -->
<g id="node38" class="node"><title>Node16</title>
<polygon fill="white" stroke="#bfbfbf" points="281.766,-58.5 281.766,-79.5 343.766,-79.5 343.766,-58.5 281.766,-58.5"/>
<text text-anchor="middle" x="312.766" y="-66.5" font-family="Helvetica,sans-Serif" font-size="10.00">type_traits</text>
</g>
<!-- Node12&#45;&gt;Node16 -->
<g id="edge44" class="edge"><title>Node12&#45;&gt;Node16</title>
<path fill="none" stroke="midnightblue" d="M368.294,-116.362C358.421,-107.941 344.434,-96.0105 332.968,-86.2308"/>
<polygon fill="midnightblue" stroke="midnightblue" points="335.039,-83.3972 325.159,-79.5707 330.496,-88.7231 335.039,-83.3972"/>
</g>
<!-- Node17&#45;&gt;Node12 -->
<g id="edge50" class="edge"><title>Node17&#45;&gt;Node12</title>
<path fill="none" stroke="midnightblue" d="M508.516,-174.497C483.304,-165.123 446.19,-151.324 418.454,-141.012"/>
<polygon fill="midnightblue" stroke="midnightblue" points="419.662,-137.727 409.069,-137.523 417.223,-144.289 419.662,-137.727"/>
</g>
<!-- Node17&#45;&gt;Node13 -->
<g id="edge54" class="edge"><title>Node17&#45;&gt;Node13</title>
<path fill="none" stroke="midnightblue" d="M539.996,-174.295C545.804,-155.045 558.101,-114.289 565.578,-89.5091"/>
<polygon fill="midnightblue" stroke="midnightblue" points="569.006,-90.264 568.544,-79.6792 562.304,-88.2419 569.006,-90.264"/>
</g>
<!-- Node17&#45;&gt;Node18 -->
<g id="edge52" class="edge"><title>Node17&#45;&gt;Node18</title>
<path fill="none" stroke="midnightblue" d="M549.422,-174.362C559.44,-165.941 573.633,-154.011 585.267,-144.231"/>
<polygon fill="midnightblue" stroke="midnightblue" points="587.788,-146.684 593.191,-137.571 583.284,-141.326 587.788,-146.684"/>
</g>
<!-- Node19 -->
<g id="node47" class="node"><title>Node19</title>
<a xlink:href="enumfield_8h.html" target="_top" xlink:title="base/enumfield.h">
<polygon fill="white" stroke="black" points="445.266,-116.5 445.266,-137.5 536.266,-137.5 536.266,-116.5 445.266,-116.5"/>
<text text-anchor="middle" x="490.766" y="-124.5" font-family="Helvetica,sans-Serif" font-size="10.00">base/enumfield.h</text>
</a>
</g>
<!-- Node17&#45;&gt;Node19 -->
<g id="edge56" class="edge"><title>Node17&#45;&gt;Node19</title>
<path fill="none" stroke="midnightblue" d="M528.329,-174.362C521.974,-166.35 513.1,-155.161 505.573,-145.67"/>
<polygon fill="midnightblue" stroke="midnightblue" points="508.106,-143.231 499.15,-137.571 502.621,-147.581 508.106,-143.231"/>
</g>
</g>
</svg>
