<?xml version="1.0" encoding="UTF-8" standalone="no"?>
<!DOCTYPE svg PUBLIC "-//W3C//DTD SVG 1.1//EN"
 "http://www.w3.org/Graphics/SVG/1.1/DTD/svg11.dtd">
<!-- Generated by graphviz version 2.26.3 (20100126.1600)
 -->
<!-- Title: src/base/piecewise_interval.h Pages: 1 -->
<svg width="372pt" height="218pt"
 viewBox="0.00 0.00 372.00 218.00" xmlns="http://www.w3.org/2000/svg" xmlns:xlink="http://www.w3.org/1999/xlink">
<g id="graph1" class="graph" transform="scale(1 1) rotate(0) translate(4 214)">
<title>src/base/piecewise_interval.h</title>
<polygon fill="white" stroke="white" points="-4,5 -4,-214 369,-214 369,5 -4,5"/>
<!-- Node1 -->
<g id="node1" class="node"><title>Node1</title>
<polygon fill="#bfbfbf" stroke="black" points="235.5,-175 235.5,-209 336.5,-209 336.5,-175 235.5,-175"/>
<text text-anchor="start" x="243.5" y="-196" font-family="Helvetica,sans-Serif" font-size="10.00">src/base/piecewise</text>
<text text-anchor="middle" x="286" y="-183" font-family="Helvetica,sans-Serif" font-size="10.00">_interval.h</text>
</g>
<!-- Node2 -->
<g id="node3" class="node"><title>Node2</title>
<a xlink:href="interval_8h.html" target="_top" xlink:title="interval.h">
<polygon fill="white" stroke="black" points="165,-116.5 165,-137.5 221,-137.5 221,-116.5 165,-116.5"/>
<text text-anchor="middle" x="193" y="-124.5" font-family="Helvetica,sans-Serif" font-size="10.00">interval.h</text>
</a>
</g>
<!-- Node1&#45;&gt;Node2 -->
<g id="edge2" class="edge"><title>Node1&#45;&gt;Node2</title>
<path fill="none" stroke="midnightblue" d="M261.565,-174.922C247.703,-165.233 230.435,-153.165 216.697,-143.562"/>
<polygon fill="midnightblue" stroke="midnightblue" points="218.451,-140.518 208.25,-137.658 214.441,-146.256 218.451,-140.518"/>
</g>
<!-- Node5 -->
<g id="node9" class="node"><title>Node5</title>
<a xlink:href="printable_8h.html" target="_top" xlink:title="printable.h">
<polygon fill="white" stroke="black" points="274,-58.5 274,-79.5 336,-79.5 336,-58.5 274,-58.5"/>
<text text-anchor="middle" x="305" y="-66.5" font-family="Helvetica,sans-Serif" font-size="10.00">printable.h</text>
</a>
</g>
<!-- Node1&#45;&gt;Node5 -->
<g id="edge18" class="edge"><title>Node1&#45;&gt;Node5</title>
<path fill="none" stroke="midnightblue" d="M288.642,-174.897C292.075,-152.673 298.066,-113.886 301.767,-89.9293"/>
<polygon fill="midnightblue" stroke="midnightblue" points="305.266,-90.2046 303.334,-79.7875 298.348,-89.1359 305.266,-90.2046"/>
</g>
<!-- Node10 -->
<g id="node20" class="node"><title>Node10</title>
<polygon fill="white" stroke="#bfbfbf" points="313.5,-116.5 313.5,-137.5 342.5,-137.5 342.5,-116.5 313.5,-116.5"/>
<text text-anchor="middle" x="328" y="-124.5" font-family="Helvetica,sans-Serif" font-size="10.00">list</text>
</g>
<!-- Node1&#45;&gt;Node10 -->
<g id="edge20" class="edge"><title>Node1&#45;&gt;Node10</title>
<path fill="none" stroke="midnightblue" d="M297.035,-174.922C302.722,-166.12 309.679,-155.354 315.557,-146.258"/>
<polygon fill="midnightblue" stroke="midnightblue" points="318.5,-148.151 320.988,-137.852 312.621,-144.352 318.5,-148.151"/>
</g>
<!-- Node3 -->
<g id="node5" class="node"><title>Node3</title>
<polygon fill="white" stroke="#bfbfbf" points="0,-58.5 0,-79.5 56,-79.5 56,-58.5 0,-58.5"/>
<text text-anchor="middle" x="28" y="-66.5" font-family="Helvetica,sans-Serif" font-size="10.00">algorithm</text>
</g>
<!-- Node2&#45;&gt;Node3 -->
<g id="edge4" class="edge"><title>Node2&#45;&gt;Node3</title>
<path fill="none" stroke="midnightblue" d="M164.635,-117.029C137.4,-107.456 96.0717,-92.9282 66,-82.3576"/>
<polygon fill="midnightblue" stroke="midnightblue" points="66.8648,-78.9517 56.27,-78.9373 64.5434,-85.5556 66.8648,-78.9517"/>
</g>
<!-- Node4 -->
<g id="node7" class="node"><title>Node4</title>
<polygon fill="white" stroke="#bfbfbf" points="73.5,-58.5 73.5,-79.5 132.5,-79.5 132.5,-58.5 73.5,-58.5"/>
<text text-anchor="middle" x="103" y="-66.5" font-family="Helvetica,sans-Serif" font-size="10.00">stdexcept</text>
</g>
<!-- Node2&#45;&gt;Node4 -->
<g id="edge6" class="edge"><title>Node2&#45;&gt;Node4</title>
<path fill="none" stroke="midnightblue" d="M176.493,-116.362C162.918,-107.614 143.467,-95.0786 127.985,-85.1015"/>
<polygon fill="midnightblue" stroke="midnightblue" points="129.704,-82.0457 119.403,-79.5707 125.912,-87.9297 129.704,-82.0457"/>
</g>
<!-- Node2&#45;&gt;Node5 -->
<g id="edge8" class="edge"><title>Node2&#45;&gt;Node5</title>
<path fill="none" stroke="midnightblue" d="M213.282,-116.497C230.618,-107.519 255.79,-94.4835 275.38,-84.3387"/>
<polygon fill="midnightblue" stroke="midnightblue" points="277.22,-87.3278 284.49,-79.6212 274.001,-81.1118 277.22,-87.3278"/>
</g>
<!-- Node8 -->
<g id="node15" class="node"><title>Node8</title>
<a xlink:href="types_8h.html" target="_top" xlink:title="types.h">
<polygon fill="white" stroke="black" points="149.5,-58.5 149.5,-79.5 198.5,-79.5 198.5,-58.5 149.5,-58.5"/>
<text text-anchor="middle" x="174" y="-66.5" font-family="Helvetica,sans-Serif" font-size="10.00">types.h</text>
</a>
</g>
<!-- Node2&#45;&gt;Node8 -->
<g id="edge14" class="edge"><title>Node2&#45;&gt;Node8</title>
<path fill="none" stroke="midnightblue" d="M189.515,-116.362C187.024,-108.758 183.596,-98.294 180.596,-89.1349"/>
<polygon fill="midnightblue" stroke="midnightblue" points="183.902,-87.9841 177.463,-79.5707 177.25,-90.1634 183.902,-87.9841"/>
</g>
<!-- Node9 -->
<g id="node17" class="node"><title>Node9</title>
<polygon fill="white" stroke="#bfbfbf" points="216,-58.5 216,-79.5 256,-79.5 256,-58.5 216,-58.5"/>
<text text-anchor="middle" x="236" y="-66.5" font-family="Helvetica,sans-Serif" font-size="10.00">limits</text>
</g>
<!-- Node2&#45;&gt;Node9 -->
<g id="edge16" class="edge"><title>Node2&#45;&gt;Node9</title>
<path fill="none" stroke="midnightblue" d="M200.887,-116.362C206.827,-108.35 215.122,-97.1605 222.159,-87.6696"/>
<polygon fill="midnightblue" stroke="midnightblue" points="225.019,-89.6883 228.163,-79.5707 219.396,-85.5193 225.019,-89.6883"/>
</g>
<!-- Node6 -->
<g id="node11" class="node"><title>Node6</title>
<polygon fill="white" stroke="#bfbfbf" points="250,-0.5 250,-21.5 294,-21.5 294,-0.5 250,-0.5"/>
<text text-anchor="middle" x="272" y="-8.5" font-family="Helvetica,sans-Serif" font-size="10.00">vector</text>
</g>
<!-- Node5&#45;&gt;Node6 -->
<g id="edge10" class="edge"><title>Node5&#45;&gt;Node6</title>
<path fill="none" stroke="midnightblue" d="M298.947,-58.3619C294.528,-50.5949 288.41,-39.8426 283.121,-30.5458"/>
<polygon fill="midnightblue" stroke="midnightblue" points="286.002,-28.5315 278.014,-21.5707 279.918,-31.9932 286.002,-28.5315"/>
</g>
<!-- Node7 -->
<g id="node13" class="node"><title>Node7</title>
<polygon fill="white" stroke="#bfbfbf" points="312,-0.5 312,-21.5 364,-21.5 364,-0.5 312,-0.5"/>
<text text-anchor="middle" x="338" y="-8.5" font-family="Helvetica,sans-Serif" font-size="10.00">ostream</text>
</g>
<!-- Node5&#45;&gt;Node7 -->
<g id="edge12" class="edge"><title>Node5&#45;&gt;Node7</title>
<path fill="none" stroke="midnightblue" d="M311.053,-58.3619C315.472,-50.5949 321.59,-39.8426 326.879,-30.5458"/>
<polygon fill="midnightblue" stroke="midnightblue" points="330.082,-31.9932 331.986,-21.5707 323.998,-28.5315 330.082,-31.9932"/>
</g>
</g>
</svg>
