<?xml version="1.0" encoding="UTF-8" standalone="no"?>
<!DOCTYPE svg PUBLIC "-//W3C//DTD SVG 1.1//EN"
 "http://www.w3.org/Graphics/SVG/1.1/DTD/svg11.dtd">
<!-- Generated by graphviz version 2.26.3 (20100126.1600)
 -->
<!-- Title: src/base/printable.h Pages: 1 -->
<svg width="122pt" height="88pt"
 viewBox="0.00 0.00 122.00 88.00" xmlns="http://www.w3.org/2000/svg" xmlns:xlink="http://www.w3.org/1999/xlink">
<g id="graph1" class="graph" transform="scale(1 1) rotate(0) translate(4 84)">
<title>src/base/printable.h</title>
<polygon fill="white" stroke="white" points="-4,5 -4,-84 119,-84 119,5 -4,5"/>
<!-- Node1 -->
<g id="node1" class="node"><title>Node1</title>
<polygon fill="#bfbfbf" stroke="black" points="4,-58.5 4,-79.5 106,-79.5 106,-58.5 4,-58.5"/>
<text text-anchor="middle" x="55" y="-66.5" font-family="Helvetica,sans-Serif" font-size="10.00">src/base/printable.h</text>
</g>
<!-- Node2 -->
<g id="node3" class="node"><title>Node2</title>
<polygon fill="white" stroke="#bfbfbf" points="0,-0.5 0,-21.5 44,-21.5 44,-0.5 0,-0.5"/>
<text text-anchor="middle" x="22" y="-8.5" font-family="Helvetica,sans-Serif" font-size="10.00">vector</text>
</g>
<!-- Node1&#45;&gt;Node2 -->
<g id="edge2" class="edge"><title>Node1&#45;&gt;Node2</title>
<path fill="none" stroke="midnightblue" d="M48.9473,-58.3619C44.5281,-50.5949 38.4104,-39.8426 33.1209,-30.5458"/>
<polygon fill="midnightblue" stroke="midnightblue" points="36.0017,-28.5315 28.0143,-21.5707 29.9176,-31.9932 36.0017,-28.5315"/>
</g>
<!-- Node3 -->
<g id="node5" class="node"><title>Node3</title>
<polygon fill="white" stroke="#bfbfbf" points="62,-0.5 62,-21.5 114,-21.5 114,-0.5 62,-0.5"/>
<text text-anchor="middle" x="88" y="-8.5" font-family="Helvetica,sans-Serif" font-size="10.00">ostream</text>
</g>
<!-- Node1&#45;&gt;Node3 -->
<g id="edge4" class="edge"><title>Node1&#45;&gt;Node3</title>
<path fill="none" stroke="midnightblue" d="M61.0527,-58.3619C65.4719,-50.5949 71.5896,-39.8426 76.8791,-30.5458"/>
<polygon fill="midnightblue" stroke="midnightblue" points="80.0824,-31.9932 81.9857,-21.5707 73.9983,-28.5315 80.0824,-31.9932"/>
</g>
</g>
</svg>
