<?xml version="1.0" encoding="UTF-8" standalone="no"?>
<!DOCTYPE svg PUBLIC "-//W3C//DTD SVG 1.1//EN"
 "http://www.w3.org/Graphics/SVG/1.1/DTD/svg11.dtd">
<!-- Generated by graphviz version 2.26.3 (20100126.1600)
 -->
<!-- Title: src/analysis/plot/root_draw.cc Pages: 1 -->
<svg width="1144pt" height="160pt"
 viewBox="0.00 0.00 1144.00 160.00" xmlns="http://www.w3.org/2000/svg" xmlns:xlink="http://www.w3.org/1999/xlink">
<g id="graph1" class="graph" transform="scale(1 1) rotate(0) translate(4 156)">
<title>src/analysis/plot/root_draw.cc</title>
<polygon fill="white" stroke="white" points="-4,5 -4,-156 1141,-156 1141,5 -4,5"/>
<!-- Node1 -->
<g id="node1" class="node"><title>Node1</title>
<polygon fill="#bfbfbf" stroke="black" points="593.5,-117 593.5,-151 700.5,-151 700.5,-117 593.5,-117"/>
<text text-anchor="start" x="601.5" y="-138" font-family="Helvetica,sans-Serif" font-size="10.00">src/analysis/plot/root</text>
<text text-anchor="middle" x="647" y="-125" font-family="Helvetica,sans-Serif" font-size="10.00">_draw.cc</text>
</g>
<!-- Node2 -->
<g id="node3" class="node"><title>Node2</title>
<a xlink:href="root__draw_8h.html" target="_top" xlink:title="plot/root_draw.h">
<polygon fill="white" stroke="black" points="140,-58.5 140,-79.5 226,-79.5 226,-58.5 140,-58.5"/>
<text text-anchor="middle" x="183" y="-66.5" font-family="Helvetica,sans-Serif" font-size="10.00">plot/root_draw.h</text>
</a>
</g>
<!-- Node1&#45;&gt;Node2 -->
<g id="edge2" class="edge"><title>Node1&#45;&gt;Node2</title>
<path fill="none" stroke="midnightblue" d="M593.467,-128.336C516.606,-119.906 370.356,-102.755 236.133,-80.0954"/>
<polygon fill="midnightblue" stroke="midnightblue" points="236.526,-76.612 226.08,-78.3839 235.351,-83.5127 236.526,-76.612"/>
</g>
<!-- Node10 -->
<g id="node19" class="node"><title>Node10</title>
<polygon fill="white" stroke="#bfbfbf" points="243.5,-58.5 243.5,-79.5 294.5,-79.5 294.5,-58.5 243.5,-58.5"/>
<text text-anchor="middle" x="269" y="-66.5" font-family="Helvetica,sans-Serif" font-size="10.00">TH1D.h</text>
</g>
<!-- Node1&#45;&gt;Node10 -->
<g id="edge18" class="edge"><title>Node1&#45;&gt;Node10</title>
<path fill="none" stroke="midnightblue" d="M593.455,-128.24C527.422,-120.552 411.706,-105.178 304.849,-80.2004"/>
<polygon fill="midnightblue" stroke="midnightblue" points="305.407,-76.7357 294.869,-77.833 303.791,-83.5467 305.407,-76.7357"/>
</g>
<!-- Node11 -->
<g id="node21" class="node"><title>Node11</title>
<polygon fill="white" stroke="#bfbfbf" points="311.5,-58.5 311.5,-79.5 362.5,-79.5 362.5,-58.5 311.5,-58.5"/>
<text text-anchor="middle" x="337" y="-66.5" font-family="Helvetica,sans-Serif" font-size="10.00">TH2D.h</text>
</g>
<!-- Node1&#45;&gt;Node11 -->
<g id="edge20" class="edge"><title>Node1&#45;&gt;Node11</title>
<path fill="none" stroke="midnightblue" d="M593.406,-125.471C539.668,-116.482 454.441,-101.039 372.498,-80.1891"/>
<polygon fill="midnightblue" stroke="midnightblue" points="373.08,-76.725 362.523,-77.6198 371.334,-83.5037 373.08,-76.725"/>
</g>
<!-- Node12 -->
<g id="node23" class="node"><title>Node12</title>
<polygon fill="white" stroke="#bfbfbf" points="379.5,-58.5 379.5,-79.5 438.5,-79.5 438.5,-58.5 379.5,-58.5"/>
<text text-anchor="middle" x="409" y="-66.5" font-family="Helvetica,sans-Serif" font-size="10.00">TObject.h</text>
</g>
<!-- Node1&#45;&gt;Node12 -->
<g id="edge22" class="edge"><title>Node1&#45;&gt;Node12</title>
<path fill="none" stroke="midnightblue" d="M593.449,-119.822C555.414,-109.688 502.889,-95.5645 448.643,-80.4335"/>
<polygon fill="midnightblue" stroke="midnightblue" points="449.429,-77.0191 438.856,-77.6977 447.545,-83.7607 449.429,-77.0191"/>
</g>
<!-- Node13 -->
<g id="node25" class="node"><title>Node13</title>
<polygon fill="white" stroke="#bfbfbf" points="456,-58.5 456,-79.5 518,-79.5 518,-58.5 456,-58.5"/>
<text text-anchor="middle" x="487" y="-66.5" font-family="Helvetica,sans-Serif" font-size="10.00">TNamed.h</text>
</g>
<!-- Node1&#45;&gt;Node13 -->
<g id="edge24" class="edge"><title>Node1&#45;&gt;Node13</title>
<path fill="none" stroke="midnightblue" d="M604.962,-116.922C579.41,-106.541 547.131,-93.4282 522.801,-83.5443"/>
<polygon fill="midnightblue" stroke="midnightblue" points="523.818,-80.1796 513.236,-79.6584 521.183,-86.6648 523.818,-80.1796"/>
</g>
<!-- Node14 -->
<g id="node27" class="node"><title>Node14</title>
<polygon fill="white" stroke="#bfbfbf" points="535.5,-58.5 535.5,-79.5 600.5,-79.5 600.5,-58.5 535.5,-58.5"/>
<text text-anchor="middle" x="568" y="-66.5" font-family="Helvetica,sans-Serif" font-size="10.00">TCanvas.h</text>
</g>
<!-- Node1&#45;&gt;Node14 -->
<g id="edge26" class="edge"><title>Node1&#45;&gt;Node14</title>
<path fill="none" stroke="midnightblue" d="M626.244,-116.922C614.766,-107.479 600.54,-95.7736 589.021,-86.2957"/>
<polygon fill="midnightblue" stroke="midnightblue" points="591.135,-83.503 581.189,-79.8521 586.688,-88.9085 591.135,-83.503"/>
</g>
<!-- Node15 -->
<g id="node29" class="node"><title>Node15</title>
<polygon fill="white" stroke="#bfbfbf" points="617.5,-58.5 617.5,-79.5 676.5,-79.5 676.5,-58.5 617.5,-58.5"/>
<text text-anchor="middle" x="647" y="-66.5" font-family="Helvetica,sans-Serif" font-size="10.00">TROOT.h</text>
</g>
<!-- Node1&#45;&gt;Node15 -->
<g id="edge28" class="edge"><title>Node1&#45;&gt;Node15</title>
<path fill="none" stroke="midnightblue" d="M647,-116.922C647,-108.67 647,-98.6922 647,-89.9818"/>
<polygon fill="midnightblue" stroke="midnightblue" points="650.5,-89.8521 647,-79.8521 643.5,-89.8521 650.5,-89.8521"/>
</g>
<!-- Node16 -->
<g id="node31" class="node"><title>Node16</title>
<polygon fill="white" stroke="#bfbfbf" points="694,-58.5 694,-79.5 748,-79.5 748,-58.5 694,-58.5"/>
<text text-anchor="middle" x="721" y="-66.5" font-family="Helvetica,sans-Serif" font-size="10.00">iostream</text>
</g>
<!-- Node1&#45;&gt;Node16 -->
<g id="edge30" class="edge"><title>Node1&#45;&gt;Node16</title>
<path fill="none" stroke="midnightblue" d="M666.443,-116.922C677.089,-107.57 690.261,-96.0007 700.995,-86.5724"/>
<polygon fill="midnightblue" stroke="midnightblue" points="703.442,-89.0812 708.645,-79.8521 698.822,-83.8219 703.442,-89.0812"/>
</g>
<!-- Node17 -->
<g id="node33" class="node"><title>Node17</title>
<polygon fill="white" stroke="#bfbfbf" points="766,-58.5 766,-79.5 818,-79.5 818,-58.5 766,-58.5"/>
<text text-anchor="middle" x="792" y="-66.5" font-family="Helvetica,sans-Serif" font-size="10.00">sstream</text>
</g>
<!-- Node1&#45;&gt;Node17 -->
<g id="edge32" class="edge"><title>Node1&#45;&gt;Node17</title>
<path fill="none" stroke="midnightblue" d="M685.097,-116.922C708.048,-106.634 736.987,-93.6612 758.965,-83.8086"/>
<polygon fill="midnightblue" stroke="midnightblue" points="760.53,-86.9428 768.224,-79.6584 757.667,-80.5552 760.53,-86.9428"/>
</g>
<!-- Node18 -->
<g id="node35" class="node"><title>Node18</title>
<polygon fill="white" stroke="#bfbfbf" points="836,-58.5 836,-79.5 886,-79.5 886,-58.5 836,-58.5"/>
<text text-anchor="middle" x="861" y="-66.5" font-family="Helvetica,sans-Serif" font-size="10.00">iomanip</text>
</g>
<!-- Node1&#45;&gt;Node18 -->
<g id="edge34" class="edge"><title>Node1&#45;&gt;Node18</title>
<path fill="none" stroke="midnightblue" d="M700.65,-118.232C734.246,-108.283 778.668,-94.992 826.219,-80.2062"/>
<polygon fill="midnightblue" stroke="midnightblue" points="827.263,-83.547 835.768,-77.2297 825.18,-76.8641 827.263,-83.547"/>
</g>
<!-- Node19 -->
<g id="node37" class="node"><title>Node19</title>
<polygon fill="white" stroke="#bfbfbf" points="904,-58.5 904,-79.5 968,-79.5 968,-58.5 904,-58.5"/>
<text text-anchor="middle" x="936" y="-66.5" font-family="Helvetica,sans-Serif" font-size="10.00">THStack.h</text>
</g>
<!-- Node1&#45;&gt;Node19 -->
<g id="edge36" class="edge"><title>Node1&#45;&gt;Node19</title>
<path fill="none" stroke="midnightblue" d="M700.868,-123.044C749.055,-113.069 821.831,-97.5739 894.082,-80.1505"/>
<polygon fill="midnightblue" stroke="midnightblue" points="894.915,-83.5501 903.808,-77.7923 893.265,-76.7472 894.915,-83.5501"/>
</g>
<!-- Node20 -->
<g id="node39" class="node"><title>Node20</title>
<polygon fill="white" stroke="#bfbfbf" points="986,-58.5 986,-79.5 1062,-79.5 1062,-58.5 986,-58.5"/>
<text text-anchor="middle" x="1024" y="-66.5" font-family="Helvetica,sans-Serif" font-size="10.00">TVirtualPad.h</text>
</g>
<!-- Node1&#45;&gt;Node20 -->
<g id="edge38" class="edge"><title>Node1&#45;&gt;Node20</title>
<path fill="none" stroke="midnightblue" d="M700.642,-126.363C764.059,-117.08 872.982,-100.341 975.889,-80.1287"/>
<polygon fill="midnightblue" stroke="midnightblue" points="976.697,-83.5368 985.827,-78.162 975.338,-76.6699 976.697,-83.5368"/>
</g>
<!-- Node21 -->
<g id="node41" class="node"><title>Node21</title>
<polygon fill="white" stroke="#bfbfbf" points="1080,-58.5 1080,-79.5 1136,-79.5 1136,-58.5 1080,-58.5"/>
<text text-anchor="middle" x="1108" y="-66.5" font-family="Helvetica,sans-Serif" font-size="10.00">algorithm</text>
</g>
<!-- Node1&#45;&gt;Node21 -->
<g id="edge40" class="edge"><title>Node1&#45;&gt;Node21</title>
<path fill="none" stroke="midnightblue" d="M700.678,-129.975C779.708,-123.432 932.042,-108.474 1069.94,-79.9615"/>
<polygon fill="midnightblue" stroke="midnightblue" points="1070.77,-83.363 1079.84,-77.8851 1069.33,-76.512 1070.77,-83.363"/>
</g>
<!-- Node3 -->
<g id="node5" class="node"><title>Node3</title>
<polygon fill="white" stroke="#bfbfbf" points="-0.5,-0.5 -0.5,-21.5 40.5,-21.5 40.5,-0.5 -0.5,-0.5"/>
<text text-anchor="middle" x="20" y="-8.5" font-family="Helvetica,sans-Serif" font-size="10.00">string</text>
</g>
<!-- Node2&#45;&gt;Node3 -->
<g id="edge4" class="edge"><title>Node2&#45;&gt;Node3</title>
<path fill="none" stroke="midnightblue" d="M152.32,-58.4854C127.076,-49.7792 90.1425,-36.9185 50.005,-22.3184"/>
<polygon fill="midnightblue" stroke="midnightblue" points="51.1651,-19.016 40.5712,-18.8761 48.7656,-25.5919 51.1651,-19.016"/>
</g>
<!-- Node4 -->
<g id="node7" class="node"><title>Node4</title>
<polygon fill="white" stroke="#bfbfbf" points="57.5,-0.5 57.5,-21.5 86.5,-21.5 86.5,-0.5 57.5,-0.5"/>
<text text-anchor="middle" x="72" y="-8.5" font-family="Helvetica,sans-Serif" font-size="10.00">list</text>
</g>
<!-- Node2&#45;&gt;Node4 -->
<g id="edge6" class="edge"><title>Node2&#45;&gt;Node4</title>
<path fill="none" stroke="midnightblue" d="M162.899,-58.4966C144,-48.6217 115.703,-33.8358 95.7099,-23.3889"/>
<polygon fill="midnightblue" stroke="midnightblue" points="97.1237,-20.1787 86.6397,-18.6496 93.8818,-26.3828 97.1237,-20.1787"/>
</g>
<!-- Node5 -->
<g id="node9" class="node"><title>Node5</title>
<polygon fill="white" stroke="#bfbfbf" points="104,-0.5 104,-21.5 148,-21.5 148,-0.5 104,-0.5"/>
<text text-anchor="middle" x="126" y="-8.5" font-family="Helvetica,sans-Serif" font-size="10.00">vector</text>
</g>
<!-- Node2&#45;&gt;Node5 -->
<g id="edge8" class="edge"><title>Node2&#45;&gt;Node5</title>
<path fill="none" stroke="midnightblue" d="M172.545,-58.3619C164.43,-50.1043 152.999,-38.4725 143.496,-28.8029"/>
<polygon fill="midnightblue" stroke="midnightblue" points="145.894,-26.2497 136.388,-21.5707 140.901,-31.1562 145.894,-26.2497"/>
</g>
<!-- Node6 -->
<g id="node11" class="node"><title>Node6</title>
<polygon fill="white" stroke="#bfbfbf" points="165.5,-0.5 165.5,-21.5 200.5,-21.5 200.5,-0.5 165.5,-0.5"/>
<text text-anchor="middle" x="183" y="-8.5" font-family="Helvetica,sans-Serif" font-size="10.00">map</text>
</g>
<!-- Node2&#45;&gt;Node6 -->
<g id="edge10" class="edge"><title>Node2&#45;&gt;Node6</title>
<path fill="none" stroke="midnightblue" d="M183,-58.3619C183,-50.9219 183,-40.7427 183,-31.7276"/>
<polygon fill="midnightblue" stroke="midnightblue" points="186.5,-31.5706 183,-21.5707 179.5,-31.5707 186.5,-31.5706"/>
</g>
<!-- Node7 -->
<g id="node13" class="node"><title>Node7</title>
<polygon fill="white" stroke="#bfbfbf" points="218,-0.5 218,-21.5 270,-21.5 270,-0.5 218,-0.5"/>
<text text-anchor="middle" x="244" y="-8.5" font-family="Helvetica,sans-Serif" font-size="10.00">memory</text>
</g>
<!-- Node2&#45;&gt;Node7 -->
<g id="edge12" class="edge"><title>Node2&#45;&gt;Node7</title>
<path fill="none" stroke="midnightblue" d="M194.188,-58.3619C202.959,-50.0226 215.349,-38.2418 225.578,-28.5162"/>
<polygon fill="midnightblue" stroke="midnightblue" points="228.047,-30.9978 232.883,-21.5707 223.224,-25.9248 228.047,-30.9978"/>
</g>
<!-- Node8 -->
<g id="node15" class="node"><title>Node8</title>
<polygon fill="white" stroke="#bfbfbf" points="287.5,-0.5 287.5,-21.5 346.5,-21.5 346.5,-0.5 287.5,-0.5"/>
<text text-anchor="middle" x="317" y="-8.5" font-family="Helvetica,sans-Serif" font-size="10.00">functional</text>
</g>
<!-- Node2&#45;&gt;Node8 -->
<g id="edge14" class="edge"><title>Node2&#45;&gt;Node8</title>
<path fill="none" stroke="midnightblue" d="M207.266,-58.4966C228.478,-49.3154 259.498,-35.8889 283.15,-25.6516"/>
<polygon fill="midnightblue" stroke="midnightblue" points="284.674,-28.8055 292.461,-21.6212 281.894,-22.3815 284.674,-28.8055"/>
</g>
<!-- Node9 -->
<g id="node17" class="node"><title>Node9</title>
<polygon fill="white" stroke="#bfbfbf" points="364,-0.5 364,-21.5 420,-21.5 420,-0.5 364,-0.5"/>
<text text-anchor="middle" x="392" y="-8.5" font-family="Helvetica,sans-Serif" font-size="10.00">Rtypes.h</text>
</g>
<!-- Node2&#45;&gt;Node9 -->
<g id="edge16" class="edge"><title>Node2&#45;&gt;Node9</title>
<path fill="none" stroke="midnightblue" d="M222.693,-58.4222C255.486,-49.623 303.5,-36.6024 353.955,-22.2613"/>
<polygon fill="midnightblue" stroke="midnightblue" points="355.08,-25.5801 363.737,-19.4728 353.161,-18.8483 355.08,-25.5801"/>
</g>
</g>
</svg>
