<?xml version="1.0" encoding="UTF-8" standalone="no"?>
<!DOCTYPE svg PUBLIC "-//W3C//DTD SVG 1.1//EN"
 "http://www.w3.org/Graphics/SVG/1.1/DTD/svg11.dtd">
<!-- Generated by graphviz version 2.26.3 (20100126.1600)
 -->
<!-- Title: ant::calibration::Energy::CalibType Pages: 1 -->
<svg width="213pt" height="190pt"
 viewBox="0.00 0.00 213.00 190.00" xmlns="http://www.w3.org/2000/svg" xmlns:xlink="http://www.w3.org/1999/xlink">
<g id="graph1" class="graph" transform="scale(1 1) rotate(0) translate(4 186)">
<title>ant::calibration::Energy::CalibType</title>
<polygon fill="white" stroke="white" points="-4,5 -4,-186 210,-186 210,5 -4,5"/>
<!-- Node1 -->
<g id="node1" class="node"><title>Node1</title>
<polygon fill="#bfbfbf" stroke="black" points="64.5,-1 64.5,-35 181.5,-35 181.5,-1 64.5,-1"/>
<text text-anchor="start" x="72.5" y="-22" font-family="Helvetica,sans-Serif" font-size="10.00">ant::calibration::Energy</text>
<text text-anchor="middle" x="123" y="-9" font-family="Helvetica,sans-Serif" font-size="10.00">::CalibType</text>
</g>
<!-- Node2 -->
<g id="node2" class="node"><title>Node2</title>
<a xlink:title="STL class. ">
<polygon fill="white" stroke="#bfbfbf" points="17,-86.5 17,-107.5 77,-107.5 77,-86.5 17,-86.5"/>
<text text-anchor="middle" x="47" y="-94.5" font-family="Helvetica,sans-Serif" font-size="10.00">std::string</text>
</a>
</g>
<!-- Node2&#45;&gt;Node1 -->
<g id="edge2" class="edge"><title>Node2&#45;&gt;Node1</title>
<path fill="none" stroke="#9a32cd" stroke-dasharray="5,2" d="M64.4867,-78.823C77.1364,-65.674 94.1169,-48.0232 106.527,-35.1236"/>
<polygon fill="#9a32cd" stroke="#9a32cd" points="61.6603,-76.7126 57.2497,-86.3457 66.7049,-81.5656 61.6603,-76.7126"/>
<text text-anchor="middle" x="103" y="-58.5" font-family="Helvetica,sans-Serif" font-size="10.00"> Name</text>
</g>
<!-- Node3 -->
<g id="node4" class="node"><title>Node3</title>
<a xlink:title="STL class. ">
<polygon fill="white" stroke="#bfbfbf" points="-0.5,-147 -0.5,-181 94.5,-181 94.5,-147 -0.5,-147"/>
<text text-anchor="start" x="7.5" y="-168" font-family="Helvetica,sans-Serif" font-size="10.00">std::basic_string&lt;</text>
<text text-anchor="middle" x="47" y="-155" font-family="Helvetica,sans-Serif" font-size="10.00"> char &gt;</text>
</a>
</g>
<!-- Node3&#45;&gt;Node2 -->
<g id="edge4" class="edge"><title>Node3&#45;&gt;Node2</title>
<path fill="none" stroke="midnightblue" d="M47,-136.534C47,-126.306 47,-115.301 47,-107.506"/>
<polygon fill="midnightblue" stroke="midnightblue" points="43.5001,-136.746 47,-146.746 50.5001,-136.746 43.5001,-136.746"/>
</g>
<!-- Node4 -->
<g id="node6" class="node"><title>Node4</title>
<polygon fill="white" stroke="#bfbfbf" points="95,-86.5 95,-107.5 205,-107.5 205,-86.5 95,-86.5"/>
<text text-anchor="middle" x="150" y="-94.5" font-family="Helvetica,sans-Serif" font-size="10.00">std::vector&lt; double &gt;</text>
</g>
<!-- Node4&#45;&gt;Node1 -->
<g id="edge6" class="edge"><title>Node4&#45;&gt;Node1</title>
<path fill="none" stroke="#9a32cd" stroke-dasharray="5,2" d="M143.01,-76.5486C138.616,-63.691 133.012,-47.293 128.852,-35.1236"/>
<polygon fill="#9a32cd" stroke="#9a32cd" points="139.813,-78.015 146.359,-86.3457 146.436,-75.7512 139.813,-78.015"/>
<text text-anchor="middle" x="156" y="-58.5" font-family="Helvetica,sans-Serif" font-size="10.00"> Values</text>
</g>
</g>
</svg>
