<?xml version="1.0" encoding="UTF-8" standalone="no"?>
<!DOCTYPE svg PUBLIC "-//W3C//DTD SVG 1.1//EN"
 "http://www.w3.org/Graphics/SVG/1.1/DTD/svg11.dtd">
<!-- Generated by graphviz version 2.26.3 (20100126.1600)
 -->
<!-- Title: ant::Calibration::Converter Pages: 1 -->
<svg width="468pt" height="146pt"
 viewBox="0.00 0.00 468.00 146.00" xmlns="http://www.w3.org/2000/svg" xmlns:xlink="http://www.w3.org/1999/xlink">
<g id="graph1" class="graph" transform="scale(1 1) rotate(0) translate(4 142)">
<title>ant::Calibration::Converter</title>
<polygon fill="white" stroke="white" points="-4,5 -4,-142 465,-142 465,5 -4,5"/>
<!-- Node1 -->
<g id="node1" class="node"><title>Node1</title>
<polygon fill="#bfbfbf" stroke="black" points="0.5,-58.5 0.5,-79.5 131.5,-79.5 131.5,-58.5 0.5,-58.5"/>
<text text-anchor="middle" x="66" y="-66.5" font-family="Helvetica,sans-Serif" font-size="10.00">ant::Calibration::Converter</text>
</g>
<!-- Node2 -->
<g id="node3" class="node"><title>Node2</title>
<a xlink:href="structant_1_1calibration_1_1converter_1_1_ge_si_ca___s_a_d_c.html" target="_top" xlink:title="ant::calibration::converter\l::GeSiCa_SADC">
<polygon fill="white" stroke="black" points="168.5,-104 168.5,-138 295.5,-138 295.5,-104 168.5,-104"/>
<text text-anchor="start" x="176.5" y="-125" font-family="Helvetica,sans-Serif" font-size="10.00">ant::calibration::converter</text>
<text text-anchor="middle" x="232" y="-112" font-family="Helvetica,sans-Serif" font-size="10.00">::GeSiCa_SADC</text>
</a>
</g>
<!-- Node1&#45;&gt;Node2 -->
<g id="edge2" class="edge"><title>Node1&#45;&gt;Node2</title>
<path fill="none" stroke="midnightblue" d="M109.155,-82.5184C130.043,-89.0616 155.345,-96.9876 177.545,-103.942"/>
<polygon fill="midnightblue" stroke="midnightblue" points="110.182,-79.1724 99.5926,-79.523 108.089,-85.8523 110.182,-79.1724"/>
</g>
<!-- Node3 -->
<g id="node5" class="node"><title>Node3</title>
<a xlink:href="structant_1_1calibration_1_1converter_1_1_multi_hit16bit.html" target="_top" xlink:title="ant::calibration::converter\l::MultiHit16bit">
<polygon fill="white" stroke="black" points="168.5,-52 168.5,-86 295.5,-86 295.5,-52 168.5,-52"/>
<text text-anchor="start" x="176.5" y="-73" font-family="Helvetica,sans-Serif" font-size="10.00">ant::calibration::converter</text>
<text text-anchor="middle" x="232" y="-60" font-family="Helvetica,sans-Serif" font-size="10.00">::MultiHit16bit</text>
</a>
</g>
<!-- Node1&#45;&gt;Node3 -->
<g id="edge4" class="edge"><title>Node1&#45;&gt;Node3</title>
<path fill="none" stroke="midnightblue" d="M141.663,-69C150.633,-69 159.718,-69 168.495,-69"/>
<polygon fill="midnightblue" stroke="midnightblue" points="141.608,-65.5001 131.608,-69 141.608,-72.5001 141.608,-65.5001"/>
</g>
<!-- Node5 -->
<g id="node9" class="node"><title>Node5</title>
<a xlink:href="structant_1_1calibration_1_1converter_1_1_scaler_frequency.html" target="_top" xlink:title="ant::calibration::converter\l::ScalerFrequency">
<polygon fill="white" stroke="black" points="168.5,-0 168.5,-34 295.5,-34 295.5,-0 168.5,-0"/>
<text text-anchor="start" x="176.5" y="-21" font-family="Helvetica,sans-Serif" font-size="10.00">ant::calibration::converter</text>
<text text-anchor="middle" x="232" y="-8" font-family="Helvetica,sans-Serif" font-size="10.00">::ScalerFrequency</text>
</a>
</g>
<!-- Node1&#45;&gt;Node5 -->
<g id="edge8" class="edge"><title>Node1&#45;&gt;Node5</title>
<path fill="none" stroke="midnightblue" d="M109.155,-55.4816C130.043,-48.9384 155.345,-41.0124 177.545,-34.0582"/>
<polygon fill="midnightblue" stroke="midnightblue" points="108.089,-52.1477 99.5926,-58.477 110.182,-58.8276 108.089,-52.1477"/>
</g>
<!-- Node4 -->
<g id="node7" class="node"><title>Node4</title>
<a xlink:href="structant_1_1calibration_1_1converter_1_1_c_a_t_c_h___t_d_c.html" target="_top" xlink:title="ant::calibration::converter\l::CATCH_TDC">
<polygon fill="white" stroke="black" points="332.5,-52 332.5,-86 459.5,-86 459.5,-52 332.5,-52"/>
<text text-anchor="start" x="340.5" y="-73" font-family="Helvetica,sans-Serif" font-size="10.00">ant::calibration::converter</text>
<text text-anchor="middle" x="396" y="-60" font-family="Helvetica,sans-Serif" font-size="10.00">::CATCH_TDC</text>
</a>
</g>
<!-- Node3&#45;&gt;Node4 -->
<g id="edge6" class="edge"><title>Node3&#45;&gt;Node4</title>
<path fill="none" stroke="midnightblue" d="M306.073,-69C314.828,-69 323.704,-69 332.298,-69"/>
<polygon fill="midnightblue" stroke="midnightblue" points="305.876,-65.5001 295.876,-69 305.876,-72.5001 305.876,-65.5001"/>
</g>
</g>
</svg>
