<?xml version="1.0" encoding="UTF-8" standalone="no"?>
<!DOCTYPE svg PUBLIC "-//W3C//DTD SVG 1.1//EN"
 "http://www.w3.org/Graphics/SVG/1.1/DTD/svg11.dtd">
<!-- Generated by graphviz version 2.26.3 (20100126.1600)
 -->
<!-- Title: ant::expconfig::detector::CB Pages: 1 -->
<svg width="267pt" height="218pt"
 viewBox="0.00 0.00 267.00 218.00" xmlns="http://www.w3.org/2000/svg" xmlns:xlink="http://www.w3.org/1999/xlink">
<g id="graph1" class="graph" transform="scale(1 1) rotate(0) translate(4 214)">
<title>ant::expconfig::detector::CB</title>
<polygon fill="white" stroke="white" points="-4,5 -4,-214 264,-214 264,5 -4,5"/>
<!-- Node1 -->
<g id="node1" class="node"><title>Node1</title>
<polygon fill="#bfbfbf" stroke="black" points="55,-0.5 55,-21.5 195,-21.5 195,-0.5 55,-0.5"/>
<text text-anchor="middle" x="125" y="-8.5" font-family="Helvetica,sans-Serif" font-size="10.00">ant::expconfig::detector::CB</text>
</g>
<!-- Node2 -->
<g id="node2" class="node"><title>Node2</title>
<a xlink:href="structant_1_1_cluster_detector__t.html" target="_top" xlink:title="ant::ClusterDetector_t">
<polygon fill="white" stroke="black" points="-0.5,-58.5 -0.5,-79.5 112.5,-79.5 112.5,-58.5 -0.5,-58.5"/>
<text text-anchor="middle" x="56" y="-66.5" font-family="Helvetica,sans-Serif" font-size="10.00">ant::ClusterDetector_t</text>
</a>
</g>
<!-- Node2&#45;&gt;Node1 -->
<g id="edge2" class="edge"><title>Node2&#45;&gt;Node1</title>
<path fill="none" stroke="midnightblue" d="M76.592,-51.6908C88.2401,-41.8996 102.429,-29.973 112.425,-21.5707"/>
<polygon fill="midnightblue" stroke="midnightblue" points="74.0585,-49.2481 68.6557,-58.3619 78.5626,-54.6066 74.0585,-49.2481"/>
</g>
<!-- Node3 -->
<g id="node4" class="node"><title>Node3</title>
<a xlink:href="structant_1_1_detector__t.html" target="_top" xlink:title="The Detector_t struct is the minimal base class for all detectors. ">
<polygon fill="white" stroke="black" points="15,-123.5 15,-144.5 97,-144.5 97,-123.5 15,-123.5"/>
<text text-anchor="middle" x="56" y="-131.5" font-family="Helvetica,sans-Serif" font-size="10.00">ant::Detector_t</text>
</a>
</g>
<!-- Node3&#45;&gt;Node2 -->
<g id="edge4" class="edge"><title>Node3&#45;&gt;Node2</title>
<path fill="none" stroke="midnightblue" d="M56,-113.014C56,-101.831 56,-88.5583 56,-79.5337"/>
<polygon fill="midnightblue" stroke="midnightblue" points="52.5001,-113.267 56,-123.267 59.5001,-113.267 52.5001,-113.267"/>
</g>
<!-- Node4 -->
<g id="node6" class="node"><title>Node4</title>
<a xlink:href="classant_1_1printable__traits.html" target="_top" xlink:title="ant::printable_traits">
<polygon fill="white" stroke="black" points="6,-188.5 6,-209.5 106,-209.5 106,-188.5 6,-188.5"/>
<text text-anchor="middle" x="56" y="-196.5" font-family="Helvetica,sans-Serif" font-size="10.00">ant::printable_traits</text>
</a>
</g>
<!-- Node4&#45;&gt;Node3 -->
<g id="edge6" class="edge"><title>Node4&#45;&gt;Node3</title>
<path fill="none" stroke="midnightblue" d="M56,-178.014C56,-166.831 56,-153.558 56,-144.534"/>
<polygon fill="midnightblue" stroke="midnightblue" points="52.5001,-178.267 56,-188.267 59.5001,-178.267 52.5001,-178.267"/>
</g>
<!-- Node5 -->
<g id="node8" class="node"><title>Node5</title>
<a xlink:href="classant_1_1_unpacker_acqu_config.html" target="_top" xlink:title="ant::UnpackerAcquConfig">
<polygon fill="white" stroke="black" points="129.5,-58.5 129.5,-79.5 258.5,-79.5 258.5,-58.5 129.5,-58.5"/>
<text text-anchor="middle" x="194" y="-66.5" font-family="Helvetica,sans-Serif" font-size="10.00">ant::UnpackerAcquConfig</text>
</a>
</g>
<!-- Node5&#45;&gt;Node1 -->
<g id="edge8" class="edge"><title>Node5&#45;&gt;Node1</title>
<path fill="none" stroke="midnightblue" d="M173.408,-51.6908C161.76,-41.8996 147.571,-29.973 137.575,-21.5707"/>
<polygon fill="midnightblue" stroke="midnightblue" points="171.437,-54.6066 181.344,-58.3619 175.942,-49.2481 171.437,-54.6066"/>
</g>
<!-- Node6 -->
<g id="node10" class="node"><title>Node6</title>
<a xlink:href="classant_1_1_exp_config_1_1_unpacker.html" target="_top" xlink:title="ant::ExpConfig::Unpacker\l\&lt; UnpackerAcquConfig \&gt;">
<polygon fill="white" stroke="black" points="129,-117 129,-151 259,-151 259,-117 129,-117"/>
<text text-anchor="start" x="137" y="-138" font-family="Helvetica,sans-Serif" font-size="10.00">ant::ExpConfig::Unpacker</text>
<text text-anchor="middle" x="194" y="-125" font-family="Helvetica,sans-Serif" font-size="10.00">&lt; UnpackerAcquConfig &gt;</text>
</a>
</g>
<!-- Node6&#45;&gt;Node5 -->
<g id="edge10" class="edge"><title>Node6&#45;&gt;Node5</title>
<path fill="none" stroke="midnightblue" d="M194,-106.688C194,-97.2415 194,-87.1949 194,-79.8521"/>
<polygon fill="midnightblue" stroke="midnightblue" points="190.5,-106.922 194,-116.922 197.5,-106.922 190.5,-106.922"/>
</g>
<!-- Node7 -->
<g id="node12" class="node"><title>Node7</title>
<a xlink:href="classant_1_1_exp_config_1_1_base.html" target="_top" xlink:title="ant::ExpConfig::Base">
<polygon fill="white" stroke="black" points="139,-188.5 139,-209.5 249,-209.5 249,-188.5 139,-188.5"/>
<text text-anchor="middle" x="194" y="-196.5" font-family="Helvetica,sans-Serif" font-size="10.00">ant::ExpConfig::Base</text>
</a>
</g>
<!-- Node7&#45;&gt;Node6 -->
<g id="edge12" class="edge"><title>Node7&#45;&gt;Node6</title>
<path fill="none" stroke="midnightblue" d="M194,-178.131C194,-169.405 194,-159.391 194,-151.11"/>
<polygon fill="midnightblue" stroke="midnightblue" points="190.5,-178.267 194,-188.267 197.5,-178.267 190.5,-178.267"/>
</g>
</g>
</svg>
