<?xml version="1.0" encoding="UTF-8" standalone="no"?>
<!DOCTYPE svg PUBLIC "-//W3C//DTD SVG 1.1//EN"
 "http://www.w3.org/Graphics/SVG/1.1/DTD/svg11.dtd">
<!-- Generated by graphviz version 2.26.3 (20100126.1600)
 -->
<!-- Title: ant::TEvent Pages: 1 -->
<svg width="856pt" height="213pt"
 viewBox="0.00 0.00 856.00 213.41" xmlns="http://www.w3.org/2000/svg" xmlns:xlink="http://www.w3.org/1999/xlink">
<g id="graph1" class="graph" transform="scale(1 1) rotate(0) translate(4 209.41)">
<title>ant::TEvent</title>
<polygon fill="white" stroke="white" points="-4,5 -4,-209.41 853,-209.41 853,5 -4,5"/>
<!-- Node1 -->
<g id="node1" class="node"><title>Node1</title>
<polygon fill="#bfbfbf" stroke="black" points="780,-78.5 780,-99.5 848,-99.5 848,-78.5 780,-78.5"/>
<text text-anchor="middle" x="814" y="-86.5" font-family="Helvetica,sans-Serif" font-size="10.00">ant::TEvent</text>
</g>
<!-- Node2 -->
<g id="node2" class="node"><title>Node2</title>
<a xlink:href="structant_1_1_t_data_record.html" target="_top" xlink:title="ant::TDataRecord">
<polygon fill="white" stroke="black" points="372.5,-165.5 372.5,-186.5 467.5,-186.5 467.5,-165.5 372.5,-165.5"/>
<text text-anchor="middle" x="420" y="-173.5" font-family="Helvetica,sans-Serif" font-size="10.00">ant::TDataRecord</text>
</a>
</g>
<!-- Node2&#45;&gt;Node1 -->
<g id="edge2" class="edge"><title>Node2&#45;&gt;Node1</title>
<path fill="none" stroke="midnightblue" d="M478.047,-174.002C547.591,-170.002 666.655,-158.002 762,-122 776.204,-116.637 790.65,-107.07 800.699,-99.613"/>
<polygon fill="midnightblue" stroke="midnightblue" points="477.536,-170.524 467.738,-174.556 477.912,-177.514 477.536,-170.524"/>
</g>
<!-- Node3 -->
<g id="node4" class="node"><title>Node3</title>
<a xlink:href="classant_1_1printable__traits.html" target="_top" xlink:title="ant::printable_traits">
<polygon fill="white" stroke="black" points="0,-142.5 0,-163.5 100,-163.5 100,-142.5 0,-142.5"/>
<text text-anchor="middle" x="50" y="-150.5" font-family="Helvetica,sans-Serif" font-size="10.00">ant::printable_traits</text>
</a>
</g>
<!-- Node3&#45;&gt;Node2 -->
<g id="edge4" class="edge"><title>Node3&#45;&gt;Node2</title>
<path fill="none" stroke="midnightblue" d="M74.7709,-168.902C91.8043,-178.86 115.355,-190.763 138,-196 221.684,-215.352 322.735,-198.9 378.303,-186.552"/>
<polygon fill="midnightblue" stroke="midnightblue" points="76.3957,-165.795 66.0255,-163.625 72.779,-171.788 76.3957,-165.795"/>
</g>
<!-- Node4 -->
<g id="node6" class="node"><title>Node4</title>
<a xlink:href="structant_1_1_t_i_d.html" target="_top" xlink:title="ant::TID">
<polygon fill="white" stroke="black" points="177.5,-165.5 177.5,-186.5 230.5,-186.5 230.5,-165.5 177.5,-165.5"/>
<text text-anchor="middle" x="204" y="-173.5" font-family="Helvetica,sans-Serif" font-size="10.00">ant::TID</text>
</a>
</g>
<!-- Node3&#45;&gt;Node4 -->
<g id="edge8" class="edge"><title>Node3&#45;&gt;Node4</title>
<path fill="none" stroke="midnightblue" d="M110.525,-162.039C133.647,-165.493 158.849,-169.257 177.252,-172.005"/>
<polygon fill="midnightblue" stroke="midnightblue" points="110.833,-158.547 100.425,-160.531 109.799,-165.47 110.833,-158.547"/>
</g>
<!-- Node5 -->
<g id="node9" class="node"><title>Node5</title>
<a xlink:href="structant_1_1_t_tagger.html" target="_top" xlink:title="ant::TTagger">
<polygon fill="white" stroke="black" points="585,-104.5 585,-125.5 657,-125.5 657,-104.5 585,-104.5"/>
<text text-anchor="middle" x="621" y="-112.5" font-family="Helvetica,sans-Serif" font-size="10.00">ant::TTagger</text>
</a>
</g>
<!-- Node3&#45;&gt;Node5 -->
<g id="edge12" class="edge"><title>Node3&#45;&gt;Node5</title>
<path fill="none" stroke="midnightblue" d="M110.27,-150.403C204.293,-146.121 391.541,-136.672 550,-123 561.37,-122.019 573.737,-120.71 584.917,-119.435"/>
<polygon fill="midnightblue" stroke="midnightblue" points="109.928,-146.914 100.096,-150.862 110.244,-153.907 109.928,-146.914"/>
</g>
<!-- Node7 -->
<g id="node14" class="node"><title>Node7</title>
<a xlink:href="structant_1_1_t_key_value.html" target="_top" xlink:title="ant::TKeyValue\&lt; double \&gt;">
<polygon fill="white" stroke="black" points="138.5,-86.5 138.5,-107.5 269.5,-107.5 269.5,-86.5 138.5,-86.5"/>
<text text-anchor="middle" x="204" y="-94.5" font-family="Helvetica,sans-Serif" font-size="10.00">ant::TKeyValue&lt; double &gt;</text>
</a>
</g>
<!-- Node3&#45;&gt;Node7 -->
<g id="edge18" class="edge"><title>Node3&#45;&gt;Node7</title>
<path fill="none" stroke="midnightblue" d="M81.2314,-138.267C92.6725,-133.124 105.805,-127.515 118,-123 133.359,-117.314 150.587,-111.919 165.566,-107.532"/>
<polygon fill="midnightblue" stroke="midnightblue" points="79.7221,-135.108 72.0762,-142.442 82.6269,-141.477 79.7221,-135.108"/>
</g>
<!-- Node4&#45;&gt;Node2 -->
<g id="edge6" class="edge"><title>Node4&#45;&gt;Node2</title>
<path fill="none" stroke="#9a32cd" stroke-dasharray="5,2" d="M241.055,-176C277.28,-176 332.601,-176 372.138,-176"/>
<polygon fill="#9a32cd" stroke="#9a32cd" points="240.92,-172.5 230.92,-176 240.92,-179.5 240.92,-172.5"/>
<text text-anchor="middle" x="310" y="-180" font-family="Helvetica,sans-Serif" font-size="10.00"> ID</text>
</g>
<!-- Node5&#45;&gt;Node1 -->
<g id="edge10" class="edge"><title>Node5&#45;&gt;Node1</title>
<path fill="none" stroke="#9a32cd" stroke-dasharray="5,2" d="M667.629,-108.718C702.221,-104.058 748.603,-97.81 779.805,-93.6066"/>
<polygon fill="#9a32cd" stroke="#9a32cd" points="666.745,-105.306 657.302,-110.11 667.68,-112.243 666.745,-105.306"/>
<text text-anchor="middle" x="727" y="-109" font-family="Helvetica,sans-Serif" font-size="10.00"> Tagger</text>
</g>
<!-- Node6 -->
<g id="node12" class="node"><title>Node6</title>
<polygon fill="white" stroke="#bfbfbf" points="350,-75 350,-109 490,-109 490,-75 350,-75"/>
<text text-anchor="start" x="358" y="-96" font-family="Helvetica,sans-Serif" font-size="10.00">std::vector&lt; ant::TKeyValue</text>
<text text-anchor="middle" x="420" y="-83" font-family="Helvetica,sans-Serif" font-size="10.00">&lt; double &gt; &gt;</text>
</g>
<!-- Node6&#45;&gt;Node5 -->
<g id="edge14" class="edge"><title>Node6&#45;&gt;Node5</title>
<path fill="none" stroke="#9a32cd" stroke-dasharray="5,2" d="M500.244,-92.4478C516.757,-93.279 533.987,-94.6884 550,-97 561.705,-98.6897 574.276,-101.527 585.538,-104.456"/>
<polygon fill="#9a32cd" stroke="#9a32cd" points="500.217,-88.9433 490.073,-92.0021 499.91,-95.9366 500.217,-88.9433"/>
<text text-anchor="middle" x="529" y="-114" font-family="Helvetica,sans-Serif" font-size="10.00"> Energies</text>
<text text-anchor="middle" x="529" y="-101" font-family="Helvetica,sans-Serif" font-size="10.00">Scalers</text>
</g>
<!-- Node7&#45;&gt;Node6 -->
<g id="edge16" class="edge"><title>Node7&#45;&gt;Node6</title>
<path fill="none" stroke="#9a32cd" stroke-dasharray="5,2" d="M279.954,-95.2418C302.654,-94.7163 327.431,-94.1428 349.747,-93.6262"/>
<polygon fill="#9a32cd" stroke="#9a32cd" points="279.603,-91.7489 269.687,-95.4795 279.765,-98.747 279.603,-91.7489"/>
<text text-anchor="middle" x="310" y="-98" font-family="Helvetica,sans-Serif" font-size="10.00"> elements</text>
</g>
<!-- Node8 -->
<g id="node17" class="node"><title>Node8</title>
<polygon fill="white" stroke="#bfbfbf" points="367.5,-23 367.5,-57 472.5,-57 472.5,-23 367.5,-23"/>
<text text-anchor="start" x="375.5" y="-44" font-family="Helvetica,sans-Serif" font-size="10.00">std::vector&lt; ant::ant</text>
<text text-anchor="middle" x="420" y="-31" font-family="Helvetica,sans-Serif" font-size="10.00">::TTaggerHit &gt;</text>
</g>
<!-- Node8&#45;&gt;Node5 -->
<g id="edge20" class="edge"><title>Node8&#45;&gt;Node5</title>
<path fill="none" stroke="#9a32cd" stroke-dasharray="5,2" d="M482.361,-50.0605C504.771,-55.4905 529.544,-63.7023 550,-76 559.969,-81.9934 558.313,-88.5609 568,-95 573.57,-98.702 579.92,-101.848 586.243,-104.473"/>
<polygon fill="#9a32cd" stroke="#9a32cd" points="483.117,-46.6432 472.589,-47.8284 481.558,-53.4674 483.117,-46.6432"/>
<text text-anchor="middle" x="529" y="-80" font-family="Helvetica,sans-Serif" font-size="10.00"> Hits</text>
</g>
<!-- Node9 -->
<g id="node19" class="node"><title>Node9</title>
<polygon fill="white" stroke="#bfbfbf" points="568.5,-52 568.5,-86 673.5,-86 673.5,-52 568.5,-52"/>
<text text-anchor="start" x="576.5" y="-73" font-family="Helvetica,sans-Serif" font-size="10.00">std::vector&lt; ant::ant</text>
<text text-anchor="middle" x="621" y="-60" font-family="Helvetica,sans-Serif" font-size="10.00">::TCandidate &gt;</text>
</g>
<!-- Node9&#45;&gt;Node1 -->
<g id="edge22" class="edge"><title>Node9&#45;&gt;Node1</title>
<path fill="none" stroke="#9a32cd" stroke-dasharray="5,2" d="M684.065,-68.7222C708.52,-69.3868 736.679,-71.1016 762,-75 767.821,-75.8963 773.927,-77.1993 779.824,-78.6546"/>
<polygon fill="#9a32cd" stroke="#9a32cd" points="683.905,-65.2179 673.83,-68.4984 683.751,-72.2163 683.905,-65.2179"/>
<text text-anchor="middle" x="727" y="-79" font-family="Helvetica,sans-Serif" font-size="10.00"> Candidates</text>
</g>
<!-- Node10 -->
<g id="node21" class="node"><title>Node10</title>
<polygon fill="white" stroke="#bfbfbf" points="568.5,-0 568.5,-34 673.5,-34 673.5,-0 568.5,-0"/>
<text text-anchor="start" x="576.5" y="-21" font-family="Helvetica,sans-Serif" font-size="10.00">std::vector&lt; ant::ant</text>
<text text-anchor="middle" x="621" y="-8" font-family="Helvetica,sans-Serif" font-size="10.00">::TCluster &gt;</text>
</g>
<!-- Node10&#45;&gt;Node1 -->
<g id="edge24" class="edge"><title>Node10&#45;&gt;Node1</title>
<path fill="none" stroke="#9a32cd" stroke-dasharray="5,2" d="M683.513,-27.9516C708.595,-33.6171 737.343,-41.7584 762,-53 776.587,-59.6502 791.449,-70.4243 801.528,-78.4554"/>
<polygon fill="#9a32cd" stroke="#9a32cd" points="684.252,-24.5306 673.736,-25.8249 682.764,-31.3706 684.252,-24.5306"/>
<text text-anchor="middle" x="727" y="-57" font-family="Helvetica,sans-Serif" font-size="10.00"> InsaneClusters</text>
</g>
</g>
</svg>
