<?xml version="1.0" encoding="UTF-8" standalone="no"?>
<!DOCTYPE svg PUBLIC "-//W3C//DTD SVG 1.1//EN"
 "http://www.w3.org/Graphics/SVG/1.1/DTD/svg11.dtd">
<!-- Generated by graphviz version 2.26.3 (20100126.1600)
 -->
<!-- Title: ant::UnpackerAcquConfig::RawChannel_t&lt; T &gt; Pages: 1 -->
<svg width="136pt" height="142pt"
 viewBox="0.00 0.00 136.00 142.00" xmlns="http://www.w3.org/2000/svg" xmlns:xlink="http://www.w3.org/1999/xlink">
<g id="graph1" class="graph" transform="scale(1 1) rotate(0) translate(4 138)">
<title>ant::UnpackerAcquConfig::RawChannel_t&lt; T &gt;</title>
<polygon fill="white" stroke="white" points="-4,5 -4,-138 133,-138 133,5 -4,5"/>
<!-- Node1 -->
<g id="node1" class="node"><title>Node1</title>
<polygon fill="#bfbfbf" stroke="black" points="-0.5,-1 -0.5,-35 128.5,-35 128.5,-1 -0.5,-1"/>
<text text-anchor="start" x="7.5" y="-22" font-family="Helvetica,sans-Serif" font-size="10.00">ant::UnpackerAcquConfig</text>
<text text-anchor="middle" x="64" y="-9" font-family="Helvetica,sans-Serif" font-size="10.00">::RawChannel_t&lt; T &gt;</text>
</g>
<!-- Node2 -->
<g id="node2" class="node"><title>Node2</title>
<polygon fill="white" stroke="#bfbfbf" points="49.5,-112.5 49.5,-133.5 78.5,-133.5 78.5,-112.5 49.5,-112.5"/>
<text text-anchor="middle" x="64" y="-120.5" font-family="Helvetica,sans-Serif" font-size="10.00">T</text>
</g>
<!-- Node2&#45;&gt;Node1 -->
<g id="edge2" class="edge"><title>Node2&#45;&gt;Node1</title>
<path fill="none" stroke="#9a32cd" stroke-dasharray="5,2" d="M64,-102.097C64,-82.4787 64,-53.4874 64,-35.1807"/>
<polygon fill="#9a32cd" stroke="#9a32cd" points="60.5001,-102.159 64,-112.159 67.5001,-102.159 60.5001,-102.159"/>
<text text-anchor="middle" x="94" y="-84.5" font-family="Helvetica,sans-Serif" font-size="10.00"> RawChannel</text>
<text text-anchor="middle" x="94" y="-71.5" font-family="Helvetica,sans-Serif" font-size="10.00">NoMask</text>
<text text-anchor="middle" x="94" y="-58.5" font-family="Helvetica,sans-Serif" font-size="10.00">Mask</text>
</g>
</g>
</svg>
