<?xml version="1.0" encoding="UTF-8" standalone="no"?>
<!DOCTYPE svg PUBLIC "-//W3C//DTD SVG 1.1//EN"
 "http://www.w3.org/Graphics/SVG/1.1/DTD/svg11.dtd">
<!-- Generated by graphviz version 2.26.3 (20100126.1600)
 -->
<!-- Title: ant::expconfig::detector::EPT Pages: 1 -->
<svg width="267pt" height="290pt"
 viewBox="0.00 0.00 267.00 290.00" xmlns="http://www.w3.org/2000/svg" xmlns:xlink="http://www.w3.org/1999/xlink">
<g id="graph1" class="graph" transform="scale(1 1) rotate(0) translate(4 286)">
<title>ant::expconfig::detector::EPT</title>
<polygon fill="white" stroke="white" points="-4,5 -4,-286 264,-286 264,5 -4,5"/>
<!-- Node1 -->
<g id="node1" class="node"><title>Node1</title>
<polygon fill="#bfbfbf" stroke="black" points="52.5,-72.5 52.5,-93.5 197.5,-93.5 197.5,-72.5 52.5,-72.5"/>
<text text-anchor="middle" x="125" y="-80.5" font-family="Helvetica,sans-Serif" font-size="10.00">ant::expconfig::detector::EPT</text>
</g>
<!-- Node8 -->
<g id="node15" class="node"><title>Node8</title>
<a xlink:href="structant_1_1expconfig_1_1detector_1_1_e_p_t__2014.html" target="_top" xlink:title="ant::expconfig::detector\l::EPT_2014">
<polygon fill="white" stroke="black" points="65.5,-1 65.5,-35 184.5,-35 184.5,-1 65.5,-1"/>
<text text-anchor="start" x="73.5" y="-22" font-family="Helvetica,sans-Serif" font-size="10.00">ant::expconfig::detector</text>
<text text-anchor="middle" x="125" y="-9" font-family="Helvetica,sans-Serif" font-size="10.00">::EPT_2014</text>
</a>
</g>
<!-- Node1&#45;&gt;Node8 -->
<g id="edge14" class="edge"><title>Node1&#45;&gt;Node8</title>
<path fill="none" stroke="midnightblue" d="M125,-62.1306C125,-53.4049 125,-43.3908 125,-35.1099"/>
<polygon fill="midnightblue" stroke="midnightblue" points="121.5,-62.2665 125,-72.2666 128.5,-62.2666 121.5,-62.2665"/>
</g>
<!-- Node2 -->
<g id="node2" class="node"><title>Node2</title>
<a xlink:href="structant_1_1_tagger_detector__t.html" target="_top" xlink:title="ant::TaggerDetector_t">
<polygon fill="white" stroke="black" points="0,-130.5 0,-151.5 112,-151.5 112,-130.5 0,-130.5"/>
<text text-anchor="middle" x="56" y="-138.5" font-family="Helvetica,sans-Serif" font-size="10.00">ant::TaggerDetector_t</text>
</a>
</g>
<!-- Node2&#45;&gt;Node1 -->
<g id="edge2" class="edge"><title>Node2&#45;&gt;Node1</title>
<path fill="none" stroke="midnightblue" d="M76.592,-123.691C88.2401,-113.9 102.429,-101.973 112.425,-93.5707"/>
<polygon fill="midnightblue" stroke="midnightblue" points="74.0585,-121.248 68.6557,-130.362 78.5626,-126.607 74.0585,-121.248"/>
</g>
<!-- Node3 -->
<g id="node4" class="node"><title>Node3</title>
<a xlink:href="structant_1_1_detector__t.html" target="_top" xlink:title="The Detector_t struct is the minimal base class for all detectors. ">
<polygon fill="white" stroke="black" points="15,-195.5 15,-216.5 97,-216.5 97,-195.5 15,-195.5"/>
<text text-anchor="middle" x="56" y="-203.5" font-family="Helvetica,sans-Serif" font-size="10.00">ant::Detector_t</text>
</a>
</g>
<!-- Node3&#45;&gt;Node2 -->
<g id="edge4" class="edge"><title>Node3&#45;&gt;Node2</title>
<path fill="none" stroke="midnightblue" d="M56,-185.014C56,-173.831 56,-160.558 56,-151.534"/>
<polygon fill="midnightblue" stroke="midnightblue" points="52.5001,-185.267 56,-195.267 59.5001,-185.267 52.5001,-185.267"/>
</g>
<!-- Node4 -->
<g id="node6" class="node"><title>Node4</title>
<a xlink:href="classant_1_1printable__traits.html" target="_top" xlink:title="ant::printable_traits">
<polygon fill="white" stroke="black" points="6,-260.5 6,-281.5 106,-281.5 106,-260.5 6,-260.5"/>
<text text-anchor="middle" x="56" y="-268.5" font-family="Helvetica,sans-Serif" font-size="10.00">ant::printable_traits</text>
</a>
</g>
<!-- Node4&#45;&gt;Node3 -->
<g id="edge6" class="edge"><title>Node4&#45;&gt;Node3</title>
<path fill="none" stroke="midnightblue" d="M56,-250.014C56,-238.831 56,-225.558 56,-216.534"/>
<polygon fill="midnightblue" stroke="midnightblue" points="52.5001,-250.267 56,-260.267 59.5001,-250.267 52.5001,-250.267"/>
</g>
<!-- Node5 -->
<g id="node8" class="node"><title>Node5</title>
<a xlink:href="classant_1_1_unpacker_acqu_config.html" target="_top" xlink:title="ant::UnpackerAcquConfig">
<polygon fill="white" stroke="black" points="129.5,-130.5 129.5,-151.5 258.5,-151.5 258.5,-130.5 129.5,-130.5"/>
<text text-anchor="middle" x="194" y="-138.5" font-family="Helvetica,sans-Serif" font-size="10.00">ant::UnpackerAcquConfig</text>
</a>
</g>
<!-- Node5&#45;&gt;Node1 -->
<g id="edge8" class="edge"><title>Node5&#45;&gt;Node1</title>
<path fill="none" stroke="midnightblue" d="M173.408,-123.691C161.76,-113.9 147.571,-101.973 137.575,-93.5707"/>
<polygon fill="midnightblue" stroke="midnightblue" points="171.437,-126.607 181.344,-130.362 175.942,-121.248 171.437,-126.607"/>
</g>
<!-- Node6 -->
<g id="node10" class="node"><title>Node6</title>
<a xlink:href="classant_1_1_exp_config_1_1_unpacker.html" target="_top" xlink:title="ant::ExpConfig::Unpacker\l\&lt; UnpackerAcquConfig \&gt;">
<polygon fill="white" stroke="black" points="129,-189 129,-223 259,-223 259,-189 129,-189"/>
<text text-anchor="start" x="137" y="-210" font-family="Helvetica,sans-Serif" font-size="10.00">ant::ExpConfig::Unpacker</text>
<text text-anchor="middle" x="194" y="-197" font-family="Helvetica,sans-Serif" font-size="10.00">&lt; UnpackerAcquConfig &gt;</text>
</a>
</g>
<!-- Node6&#45;&gt;Node5 -->
<g id="edge10" class="edge"><title>Node6&#45;&gt;Node5</title>
<path fill="none" stroke="midnightblue" d="M194,-178.688C194,-169.242 194,-159.195 194,-151.852"/>
<polygon fill="midnightblue" stroke="midnightblue" points="190.5,-178.922 194,-188.922 197.5,-178.922 190.5,-178.922"/>
</g>
<!-- Node7 -->
<g id="node12" class="node"><title>Node7</title>
<a xlink:href="classant_1_1_exp_config_1_1_base.html" target="_top" xlink:title="ant::ExpConfig::Base">
<polygon fill="white" stroke="black" points="139,-260.5 139,-281.5 249,-281.5 249,-260.5 139,-260.5"/>
<text text-anchor="middle" x="194" y="-268.5" font-family="Helvetica,sans-Serif" font-size="10.00">ant::ExpConfig::Base</text>
</a>
</g>
<!-- Node7&#45;&gt;Node6 -->
<g id="edge12" class="edge"><title>Node7&#45;&gt;Node6</title>
<path fill="none" stroke="midnightblue" d="M194,-250.131C194,-241.405 194,-231.391 194,-223.11"/>
<polygon fill="midnightblue" stroke="midnightblue" points="190.5,-250.267 194,-260.267 197.5,-250.267 190.5,-250.267"/>
</g>
</g>
</svg>
