<?xml version="1.0" encoding="UTF-8" standalone="no"?>
<!DOCTYPE svg PUBLIC "-//W3C//DTD SVG 1.1//EN"
 "http://www.w3.org/Graphics/SVG/1.1/DTD/svg11.dtd">
<!-- Generated by graphviz version 2.26.3 (20100126.1600)
 -->
<!-- Title: ant::unpacker::acqu::FileFormatBase::Info Pages: 1 -->
<svg width="834pt" height="115pt"
 viewBox="0.00 0.00 834.00 115.00" xmlns="http://www.w3.org/2000/svg" xmlns:xlink="http://www.w3.org/1999/xlink">
<g id="graph1" class="graph" transform="scale(1 1) rotate(0) translate(4 111)">
<title>ant::unpacker::acqu::FileFormatBase::Info</title>
<polygon fill="white" stroke="white" points="-4,5 -4,-111 831,-111 831,5 -4,5"/>
<!-- Node1 -->
<g id="node1" class="node"><title>Node1</title>
<polygon fill="#bfbfbf" stroke="black" points="712,-36 712,-70 826,-70 826,-36 712,-36"/>
<text text-anchor="start" x="720" y="-57" font-family="Helvetica,sans-Serif" font-size="10.00">ant::unpacker::acqu</text>
<text text-anchor="middle" x="769" y="-44" font-family="Helvetica,sans-Serif" font-size="10.00">::FileFormatBase::Info</text>
</g>
<!-- Node2 -->
<g id="node2" class="node"><title>Node2</title>
<polygon fill="white" stroke="#bfbfbf" points="476.5,-0.5 476.5,-47.5 607.5,-47.5 607.5,-0.5 476.5,-0.5"/>
<text text-anchor="start" x="484.5" y="-34.5" font-family="Helvetica,sans-Serif" font-size="10.00">std::vector&lt; ant::unpacker</text>
<text text-anchor="start" x="484.5" y="-21.5" font-family="Helvetica,sans-Serif" font-size="10.00">::acqu::FileFormatBase::</text>
<text text-anchor="middle" x="542" y="-8.5" font-family="Helvetica,sans-Serif" font-size="10.00">Info::HardwareModule &gt;</text>
</g>
<!-- Node2&#45;&gt;Node1 -->
<g id="edge2" class="edge"><title>Node2&#45;&gt;Node1</title>
<path fill="none" stroke="#9a32cd" stroke-dasharray="5,2" d="M617.967,-27.8388C642.336,-29.6463 669.383,-32.2584 694,-36 699.808,-36.8828 705.835,-37.9643 711.834,-39.1501"/>
<polygon fill="#9a32cd" stroke="#9a32cd" points="617.924,-24.3271 607.702,-27.1124 617.43,-31.3096 617.924,-24.3271"/>
<text text-anchor="middle" x="660" y="-53" font-family="Helvetica,sans-Serif" font-size="10.00"> ScalerModules</text>
<text text-anchor="middle" x="660" y="-40" font-family="Helvetica,sans-Serif" font-size="10.00">ADCModules</text>
</g>
<!-- Node3 -->
<g id="node4" class="node"><title>Node3</title>
<a xlink:href="structant_1_1unpacker_1_1acqu_1_1_file_format_base_1_1_info_1_1_hardware_module.html" target="_top" xlink:title="ant::unpacker::acqu\l::FileFormatBase::Info\l::HardwareModule">
<polygon fill="white" stroke="black" points="272,-0.5 272,-47.5 386,-47.5 386,-0.5 272,-0.5"/>
<text text-anchor="start" x="280" y="-34.5" font-family="Helvetica,sans-Serif" font-size="10.00">ant::unpacker::acqu</text>
<text text-anchor="start" x="280" y="-21.5" font-family="Helvetica,sans-Serif" font-size="10.00">::FileFormatBase::Info</text>
<text text-anchor="middle" x="329" y="-8.5" font-family="Helvetica,sans-Serif" font-size="10.00">::HardwareModule</text>
</a>
</g>
<!-- Node3&#45;&gt;Node2 -->
<g id="edge4" class="edge"><title>Node3&#45;&gt;Node2</title>
<path fill="none" stroke="#9a32cd" stroke-dasharray="5,2" d="M396.093,-24C421.75,-24 450.959,-24 476.468,-24"/>
<polygon fill="#9a32cd" stroke="#9a32cd" points="396.08,-20.5001 386.08,-24 396.08,-27.5001 396.08,-20.5001"/>
<text text-anchor="middle" x="431" y="-28" font-family="Helvetica,sans-Serif" font-size="10.00"> elements</text>
</g>
<!-- Node4 -->
<g id="node6" class="node"><title>Node4</title>
<a xlink:title="STL class. ">
<polygon fill="white" stroke="#bfbfbf" points="134,-51.5 134,-72.5 194,-72.5 194,-51.5 134,-51.5"/>
<text text-anchor="middle" x="164" y="-59.5" font-family="Helvetica,sans-Serif" font-size="10.00">std::string</text>
</a>
</g>
<!-- Node4&#45;&gt;Node1 -->
<g id="edge10" class="edge"><title>Node4&#45;&gt;Node1</title>
<path fill="none" stroke="#9a32cd" stroke-dasharray="5,2" d="M204.376,-63.6412C293.063,-66.8861 511.518,-72.9098 694,-62 699.76,-61.6556 705.756,-61.1638 711.736,-60.5853"/>
<polygon fill="#9a32cd" stroke="#9a32cd" points="204.339,-60.1375 194.215,-63.2606 204.077,-67.1326 204.339,-60.1375"/>
<text text-anchor="middle" x="431" y="-98" font-family="Helvetica,sans-Serif" font-size="10.00"> Description</text>
<text text-anchor="middle" x="431" y="-85" font-family="Helvetica,sans-Serif" font-size="10.00">OutFile</text>
<text text-anchor="middle" x="431" y="-72" font-family="Helvetica,sans-Serif" font-size="10.00">RunNote</text>
</g>
<!-- Node4&#45;&gt;Node3 -->
<g id="edge6" class="edge"><title>Node4&#45;&gt;Node3</title>
<path fill="none" stroke="#9a32cd" stroke-dasharray="5,2" d="M203.961,-51.0026C206.678,-50.3089 209.376,-49.6351 212,-49 231.38,-44.3086 252.679,-39.6202 271.731,-35.5921"/>
<polygon fill="#9a32cd" stroke="#9a32cd" points="202.94,-47.652 194.15,-53.5677 204.71,-54.4244 202.94,-47.652"/>
<text text-anchor="middle" x="233" y="-53" font-family="Helvetica,sans-Serif" font-size="10.00"> Identifier</text>
</g>
<!-- Node5 -->
<g id="node8" class="node"><title>Node5</title>
<a xlink:title="STL class. ">
<polygon fill="white" stroke="#bfbfbf" points="0.5,-45 0.5,-79 95.5,-79 95.5,-45 0.5,-45"/>
<text text-anchor="start" x="8.5" y="-66" font-family="Helvetica,sans-Serif" font-size="10.00">std::basic_string&lt;</text>
<text text-anchor="middle" x="48" y="-53" font-family="Helvetica,sans-Serif" font-size="10.00"> char &gt;</text>
</a>
</g>
<!-- Node5&#45;&gt;Node4 -->
<g id="edge8" class="edge"><title>Node5&#45;&gt;Node4</title>
<path fill="none" stroke="midnightblue" d="M105.582,-62C115.29,-62 125.014,-62 133.666,-62"/>
<polygon fill="midnightblue" stroke="midnightblue" points="105.516,-58.5001 95.5163,-62 105.516,-65.5001 105.516,-58.5001"/>
</g>
</g>
</svg>
