<?xml version="1.0" encoding="UTF-8" standalone="no"?>
<!DOCTYPE svg PUBLIC "-//W3C//DTD SVG 1.1//EN"
 "http://www.w3.org/Graphics/SVG/1.1/DTD/svg11.dtd">
<!-- Generated by graphviz version 2.26.3 (20100126.1600)
 -->
<!-- Title: ant::Reconstruct_traits Pages: 1 -->
<svg width="146pt" height="146pt"
 viewBox="0.00 0.00 146.00 146.00" xmlns="http://www.w3.org/2000/svg" xmlns:xlink="http://www.w3.org/1999/xlink">
<g id="graph1" class="graph" transform="scale(1 1) rotate(0) translate(4 142)">
<title>ant::Reconstruct_traits</title>
<polygon fill="white" stroke="white" points="-4,5 -4,-142 143,-142 143,5 -4,5"/>
<!-- Node1 -->
<g id="node1" class="node"><title>Node1</title>
<polygon fill="#bfbfbf" stroke="black" points="22,-116.5 22,-137.5 138,-137.5 138,-116.5 22,-116.5"/>
<text text-anchor="middle" x="80" y="-124.5" font-family="Helvetica,sans-Serif" font-size="10.00">ant::Reconstruct_traits</text>
</g>
<!-- Node2 -->
<g id="node3" class="node"><title>Node2</title>
<a xlink:href="classant_1_1_reconstruct.html" target="_top" xlink:title="ant::Reconstruct">
<polygon fill="white" stroke="black" points="-0.5,-58.5 -0.5,-79.5 88.5,-79.5 88.5,-58.5 -0.5,-58.5"/>
<text text-anchor="middle" x="44" y="-66.5" font-family="Helvetica,sans-Serif" font-size="10.00">ant::Reconstruct</text>
</a>
</g>
<!-- Node1&#45;&gt;Node2 -->
<g id="edge2" class="edge"><title>Node1&#45;&gt;Node2</title>
<path fill="none" stroke="midnightblue" d="M68,-107.667C62.183,-98.2948 55.4219,-87.4019 50.5611,-79.5707"/>
<polygon fill="midnightblue" stroke="midnightblue" points="65.1496,-109.711 73.397,-116.362 71.0971,-106.02 65.1496,-109.711"/>
</g>
<!-- Node3 -->
<g id="node5" class="node"><title>Node3</title>
<a xlink:href="structant_1_1_reconstruct_tester.html" target="_top" xlink:title="ant::ReconstructTester">
<polygon fill="white" stroke="black" points="21.5,-0.5 21.5,-21.5 138.5,-21.5 138.5,-0.5 21.5,-0.5"/>
<text text-anchor="middle" x="80" y="-8.5" font-family="Helvetica,sans-Serif" font-size="10.00">ant::ReconstructTester</text>
</a>
</g>
<!-- Node1&#45;&gt;Node3 -->
<g id="edge6" class="edge"><title>Node1&#45;&gt;Node3</title>
<path fill="none" stroke="midnightblue" d="M88.9551,-107.034C92.1716,-98.8335 95.3988,-89.1344 97,-80 98.6882,-70.3691 98.6882,-67.6309 97,-58 94.7227,-45.0089 89.1566,-30.8754 85.0099,-21.536"/>
<polygon fill="midnightblue" stroke="midnightblue" points="85.6406,-105.888 85.0099,-116.464 92.0983,-108.59 85.6406,-105.888"/>
</g>
<!-- Node2&#45;&gt;Node3 -->
<g id="edge4" class="edge"><title>Node2&#45;&gt;Node3</title>
<path fill="none" stroke="midnightblue" d="M56,-49.6667C61.817,-40.2948 68.5781,-29.4019 73.4389,-21.5707"/>
<polygon fill="midnightblue" stroke="midnightblue" points="52.9029,-48.0197 50.603,-58.3619 58.8504,-51.7113 52.9029,-48.0197"/>
</g>
</g>
</svg>
