<?xml version="1.0" encoding="UTF-8" standalone="no"?>
<!DOCTYPE svg PUBLIC "-//W3C//DTD SVG 1.1//EN"
 "http://www.w3.org/Graphics/SVG/1.1/DTD/svg11.dtd">
<!-- Generated by graphviz version 2.26.3 (20100126.1600)
 -->
<!-- Title: ant::Detector_t Pages: 1 -->
<svg width="744pt" height="492pt"
 viewBox="0.00 0.00 744.00 492.00" xmlns="http://www.w3.org/2000/svg" xmlns:xlink="http://www.w3.org/1999/xlink">
<g id="graph1" class="graph" transform="scale(1 1) rotate(0) translate(4 488)">
<title>ant::Detector_t</title>
<polygon fill="white" stroke="white" points="-4,5 -4,-488 741,-488 741,5 -4,5"/>
<!-- Node1 -->
<g id="node1" class="node"><title>Node1</title>
<polygon fill="#bfbfbf" stroke="black" points="136,-104.5 136,-125.5 218,-125.5 218,-104.5 136,-104.5"/>
<text text-anchor="middle" x="177" y="-112.5" font-family="Helvetica,sans-Serif" font-size="10.00">ant::Detector_t</text>
</g>
<!-- Node3 -->
<g id="node5" class="node"><title>Node3</title>
<a xlink:href="structant_1_1_cluster_detector__t.html" target="_top" xlink:title="ant::ClusterDetector_t">
<polygon fill="white" stroke="black" points="269.5,-416.5 269.5,-437.5 382.5,-437.5 382.5,-416.5 269.5,-416.5"/>
<text text-anchor="middle" x="326" y="-424.5" font-family="Helvetica,sans-Serif" font-size="10.00">ant::ClusterDetector_t</text>
</a>
</g>
<!-- Node1&#45;&gt;Node3 -->
<g id="edge4" class="edge"><title>Node1&#45;&gt;Node3</title>
<path fill="none" stroke="midnightblue" d="M186.495,-134.883C215.012,-194.595 299.263,-371.013 320.893,-416.305"/>
<polygon fill="midnightblue" stroke="midnightblue" points="189.597,-133.255 182.129,-125.74 183.28,-136.272 189.597,-133.255"/>
</g>
<!-- Node7 -->
<g id="node13" class="node"><title>Node7</title>
<a xlink:href="structant_1_1expconfig_1_1detector_1_1_p_i_d.html" target="_top" xlink:title="ant::expconfig::detector::PID">
<polygon fill="white" stroke="black" points="254.5,-234.5 254.5,-255.5 397.5,-255.5 397.5,-234.5 254.5,-234.5"/>
<text text-anchor="middle" x="326" y="-242.5" font-family="Helvetica,sans-Serif" font-size="10.00">ant::expconfig::detector::PID</text>
</a>
</g>
<!-- Node1&#45;&gt;Node7 -->
<g id="edge12" class="edge"><title>Node1&#45;&gt;Node7</title>
<path fill="none" stroke="midnightblue" d="M196.841,-132.311C228.085,-159.57 287.841,-211.707 313.638,-234.215"/>
<polygon fill="midnightblue" stroke="midnightblue" points="199.029,-129.575 189.193,-125.638 194.427,-134.85 199.029,-129.575"/>
</g>
<!-- Node13 -->
<g id="node25" class="node"><title>Node13</title>
<a xlink:href="structant_1_1expconfig_1_1detector_1_1_t_a_p_s_veto.html" target="_top" xlink:title="ant::expconfig::detector\l::TAPSVeto">
<polygon fill="white" stroke="black" points="266.5,-98 266.5,-132 385.5,-132 385.5,-98 266.5,-98"/>
<text text-anchor="start" x="274.5" y="-119" font-family="Helvetica,sans-Serif" font-size="10.00">ant::expconfig::detector</text>
<text text-anchor="middle" x="326" y="-106" font-family="Helvetica,sans-Serif" font-size="10.00">::TAPSVeto</text>
</a>
</g>
<!-- Node1&#45;&gt;Node13 -->
<g id="edge24" class="edge"><title>Node1&#45;&gt;Node13</title>
<path fill="none" stroke="midnightblue" d="M228.178,-115C240.468,-115 253.699,-115 266.337,-115"/>
<polygon fill="midnightblue" stroke="midnightblue" points="228.109,-111.5 218.109,-115 228.109,-118.5 228.109,-111.5"/>
</g>
<!-- Node16 -->
<g id="node31" class="node"><title>Node16</title>
<a xlink:href="structant_1_1expconfig_1_1detector_1_1_trigger.html" target="_top" xlink:title="ant::expconfig::detector\l::Trigger">
<polygon fill="white" stroke="black" points="266.5,-46 266.5,-80 385.5,-80 385.5,-46 266.5,-46"/>
<text text-anchor="start" x="274.5" y="-67" font-family="Helvetica,sans-Serif" font-size="10.00">ant::expconfig::detector</text>
<text text-anchor="middle" x="326" y="-54" font-family="Helvetica,sans-Serif" font-size="10.00">::Trigger</text>
</a>
</g>
<!-- Node1&#45;&gt;Node16 -->
<g id="edge30" class="edge"><title>Node1&#45;&gt;Node16</title>
<path fill="none" stroke="midnightblue" d="M216.757,-101.125C235.305,-94.6518 257.556,-86.8866 277.122,-80.0582"/>
<polygon fill="midnightblue" stroke="midnightblue" points="215.441,-97.8774 207.152,-104.477 217.747,-104.486 215.441,-97.8774"/>
</g>
<!-- Node18 -->
<g id="node35" class="node"><title>Node18</title>
<a xlink:href="structant_1_1_tagger_detector__t.html" target="_top" xlink:title="ant::TaggerDetector_t">
<polygon fill="white" stroke="black" points="270,-6.5 270,-27.5 382,-27.5 382,-6.5 270,-6.5"/>
<text text-anchor="middle" x="326" y="-14.5" font-family="Helvetica,sans-Serif" font-size="10.00">ant::TaggerDetector_t</text>
</a>
</g>
<!-- Node1&#45;&gt;Node18 -->
<g id="edge34" class="edge"><title>Node1&#45;&gt;Node18</title>
<path fill="none" stroke="midnightblue" d="M190.557,-96.4892C204.535,-78.7023 227.92,-52.33 254,-37 260.487,-33.187 267.73,-30.0752 275.054,-27.5425"/>
<polygon fill="midnightblue" stroke="midnightblue" points="187.769,-94.3737 184.48,-104.445 193.332,-98.6228 187.769,-94.3737"/>
</g>
<!-- Node2 -->
<g id="node2" class="node"><title>Node2</title>
<a xlink:href="classant_1_1printable__traits.html" target="_top" xlink:title="ant::printable_traits">
<polygon fill="white" stroke="black" points="0,-104.5 0,-125.5 100,-125.5 100,-104.5 0,-104.5"/>
<text text-anchor="middle" x="50" y="-112.5" font-family="Helvetica,sans-Serif" font-size="10.00">ant::printable_traits</text>
</a>
</g>
<!-- Node2&#45;&gt;Node1 -->
<g id="edge2" class="edge"><title>Node2&#45;&gt;Node1</title>
<path fill="none" stroke="midnightblue" d="M110.252,-115C118.885,-115 127.598,-115 135.75,-115"/>
<polygon fill="midnightblue" stroke="midnightblue" points="110.194,-111.5 100.194,-115 110.194,-118.5 110.194,-111.5"/>
</g>
<!-- Node4 -->
<g id="node7" class="node"><title>Node4</title>
<a xlink:href="structant_1_1expconfig_1_1detector_1_1_c_b.html" target="_top" xlink:title="ant::expconfig::detector::CB">
<polygon fill="white" stroke="black" points="437,-462.5 437,-483.5 577,-483.5 577,-462.5 437,-462.5"/>
<text text-anchor="middle" x="507" y="-470.5" font-family="Helvetica,sans-Serif" font-size="10.00">ant::expconfig::detector::CB</text>
</a>
</g>
<!-- Node3&#45;&gt;Node4 -->
<g id="edge6" class="edge"><title>Node3&#45;&gt;Node4</title>
<path fill="none" stroke="midnightblue" d="M377.512,-440.091C405.44,-447.189 439.494,-455.844 465.668,-462.496"/>
<polygon fill="midnightblue" stroke="midnightblue" points="378.079,-436.624 367.525,-437.553 376.355,-443.409 378.079,-436.624"/>
</g>
<!-- Node5 -->
<g id="node9" class="node"><title>Node5</title>
<a xlink:href="structant_1_1expconfig_1_1detector_1_1_t_a_p_s.html" target="_top" xlink:title="ant::expconfig::detector\l::TAPS">
<polygon fill="white" stroke="black" points="447.5,-410 447.5,-444 566.5,-444 566.5,-410 447.5,-410"/>
<text text-anchor="start" x="455.5" y="-431" font-family="Helvetica,sans-Serif" font-size="10.00">ant::expconfig::detector</text>
<text text-anchor="middle" x="507" y="-418" font-family="Helvetica,sans-Serif" font-size="10.00">::TAPS</text>
</a>
</g>
<!-- Node3&#45;&gt;Node5 -->
<g id="edge8" class="edge"><title>Node3&#45;&gt;Node5</title>
<path fill="none" stroke="midnightblue" d="M393.072,-427C410.856,-427 429.937,-427 447.301,-427"/>
<polygon fill="midnightblue" stroke="midnightblue" points="392.773,-423.5 382.773,-427 392.773,-430.5 392.773,-423.5"/>
</g>
<!-- Node6 -->
<g id="node11" class="node"><title>Node6</title>
<a xlink:href="structant_1_1expconfig_1_1detector_1_1_t_a_p_s__2013.html" target="_top" xlink:title="ant::expconfig::detector\l::TAPS_2013">
<polygon fill="white" stroke="black" points="616.5,-410 616.5,-444 735.5,-444 735.5,-410 616.5,-410"/>
<text text-anchor="start" x="624.5" y="-431" font-family="Helvetica,sans-Serif" font-size="10.00">ant::expconfig::detector</text>
<text text-anchor="middle" x="676" y="-418" font-family="Helvetica,sans-Serif" font-size="10.00">::TAPS_2013</text>
</a>
</g>
<!-- Node5&#45;&gt;Node6 -->
<g id="edge10" class="edge"><title>Node5&#45;&gt;Node6</title>
<path fill="none" stroke="midnightblue" d="M576.959,-427C590.058,-427 603.636,-427 616.385,-427"/>
<polygon fill="midnightblue" stroke="midnightblue" points="576.583,-423.5 566.583,-427 576.583,-430.5 576.583,-423.5"/>
</g>
<!-- Node8 -->
<g id="node15" class="node"><title>Node8</title>
<a xlink:href="structant_1_1expconfig_1_1detector_1_1_p_i_d__2004.html" target="_top" xlink:title="ant::expconfig::detector\l::PID_2004">
<polygon fill="white" stroke="black" points="447.5,-358 447.5,-392 566.5,-392 566.5,-358 447.5,-358"/>
<text text-anchor="start" x="455.5" y="-379" font-family="Helvetica,sans-Serif" font-size="10.00">ant::expconfig::detector</text>
<text text-anchor="middle" x="507" y="-366" font-family="Helvetica,sans-Serif" font-size="10.00">::PID_2004</text>
</a>
</g>
<!-- Node7&#45;&gt;Node8 -->
<g id="edge14" class="edge"><title>Node7&#45;&gt;Node8</title>
<path fill="none" stroke="midnightblue" d="M340.95,-263.622C360.256,-286.576 395.928,-325.43 434,-349 439.376,-352.328 445.239,-355.311 451.228,-357.963"/>
<polygon fill="midnightblue" stroke="midnightblue" points="343.447,-261.15 334.381,-255.668 338.05,-265.607 343.447,-261.15"/>
</g>
<!-- Node9 -->
<g id="node17" class="node"><title>Node9</title>
<a xlink:href="structant_1_1expconfig_1_1detector_1_1_p_i_d__2009__05.html" target="_top" xlink:title="ant::expconfig::detector\l::PID_2009_05">
<polygon fill="white" stroke="black" points="447.5,-306 447.5,-340 566.5,-340 566.5,-306 447.5,-306"/>
<text text-anchor="start" x="455.5" y="-327" font-family="Helvetica,sans-Serif" font-size="10.00">ant::expconfig::detector</text>
<text text-anchor="middle" x="507" y="-314" font-family="Helvetica,sans-Serif" font-size="10.00">::PID_2009_05</text>
</a>
</g>
<!-- Node7&#45;&gt;Node9 -->
<g id="edge16" class="edge"><title>Node7&#45;&gt;Node9</title>
<path fill="none" stroke="midnightblue" d="M355.355,-260.183C376.859,-271.046 406.9,-285.688 434,-297 441.325,-300.058 449.151,-303.087 456.858,-305.939"/>
<polygon fill="midnightblue" stroke="midnightblue" points="356.907,-257.045 346.407,-255.631 353.733,-263.285 356.907,-257.045"/>
</g>
<!-- Node10 -->
<g id="node19" class="node"><title>Node10</title>
<a xlink:href="structant_1_1expconfig_1_1detector_1_1_p_i_d__2009__06.html" target="_top" xlink:title="ant::expconfig::detector\l::PID_2009_06">
<polygon fill="white" stroke="black" points="447.5,-254 447.5,-288 566.5,-288 566.5,-254 447.5,-254"/>
<text text-anchor="start" x="455.5" y="-275" font-family="Helvetica,sans-Serif" font-size="10.00">ant::expconfig::detector</text>
<text text-anchor="middle" x="507" y="-262" font-family="Helvetica,sans-Serif" font-size="10.00">::PID_2009_06</text>
</a>
</g>
<!-- Node7&#45;&gt;Node10 -->
<g id="edge18" class="edge"><title>Node7&#45;&gt;Node10</title>
<path fill="none" stroke="midnightblue" d="M407.681,-256.733C421.04,-258.652 434.657,-260.608 447.354,-262.432"/>
<polygon fill="midnightblue" stroke="midnightblue" points="407.932,-253.233 397.536,-255.276 406.937,-260.162 407.932,-253.233"/>
</g>
<!-- Node11 -->
<g id="node21" class="node"><title>Node11</title>
<a xlink:href="structant_1_1expconfig_1_1detector_1_1_p_i_d__2009__07.html" target="_top" xlink:title="ant::expconfig::detector\l::PID_2009_07">
<polygon fill="white" stroke="black" points="447.5,-202 447.5,-236 566.5,-236 566.5,-202 447.5,-202"/>
<text text-anchor="start" x="455.5" y="-223" font-family="Helvetica,sans-Serif" font-size="10.00">ant::expconfig::detector</text>
<text text-anchor="middle" x="507" y="-210" font-family="Helvetica,sans-Serif" font-size="10.00">::PID_2009_07</text>
</a>
</g>
<!-- Node7&#45;&gt;Node11 -->
<g id="edge20" class="edge"><title>Node7&#45;&gt;Node11</title>
<path fill="none" stroke="midnightblue" d="M407.681,-233.267C421.04,-231.348 434.657,-229.392 447.354,-227.568"/>
<polygon fill="midnightblue" stroke="midnightblue" points="406.937,-229.838 397.536,-234.724 407.932,-236.767 406.937,-229.838"/>
</g>
<!-- Node12 -->
<g id="node23" class="node"><title>Node12</title>
<a xlink:href="structant_1_1expconfig_1_1detector_1_1_p_i_d__2014.html" target="_top" xlink:title="ant::expconfig::detector\l::PID_2014">
<polygon fill="white" stroke="black" points="447.5,-150 447.5,-184 566.5,-184 566.5,-150 447.5,-150"/>
<text text-anchor="start" x="455.5" y="-171" font-family="Helvetica,sans-Serif" font-size="10.00">ant::expconfig::detector</text>
<text text-anchor="middle" x="507" y="-158" font-family="Helvetica,sans-Serif" font-size="10.00">::PID_2014</text>
</a>
</g>
<!-- Node7&#45;&gt;Node12 -->
<g id="edge22" class="edge"><title>Node7&#45;&gt;Node12</title>
<path fill="none" stroke="midnightblue" d="M355.355,-229.817C376.859,-218.954 406.9,-204.312 434,-193 441.325,-189.942 449.151,-186.913 456.858,-184.061"/>
<polygon fill="midnightblue" stroke="midnightblue" points="353.733,-226.715 346.407,-234.369 356.907,-232.955 353.733,-226.715"/>
</g>
<!-- Node14 -->
<g id="node27" class="node"><title>Node14</title>
<a xlink:href="structant_1_1expconfig_1_1detector_1_1_t_a_p_s_veto__2013.html" target="_top" xlink:title="ant::expconfig::detector\l::TAPSVeto_2013">
<polygon fill="white" stroke="black" points="447.5,-98 447.5,-132 566.5,-132 566.5,-98 447.5,-98"/>
<text text-anchor="start" x="455.5" y="-119" font-family="Helvetica,sans-Serif" font-size="10.00">ant::expconfig::detector</text>
<text text-anchor="middle" x="507" y="-106" font-family="Helvetica,sans-Serif" font-size="10.00">::TAPSVeto_2013</text>
</a>
</g>
<!-- Node13&#45;&gt;Node14 -->
<g id="edge26" class="edge"><title>Node13&#45;&gt;Node14</title>
<path fill="none" stroke="midnightblue" d="M395.949,-115C412.952,-115 430.977,-115 447.447,-115"/>
<polygon fill="midnightblue" stroke="midnightblue" points="395.517,-111.5 385.517,-115 395.517,-118.5 395.517,-111.5"/>
</g>
<!-- Node15 -->
<g id="node29" class="node"><title>Node15</title>
<a xlink:href="structant_1_1expconfig_1_1detector_1_1_t_a_p_s_veto__2014.html" target="_top" xlink:title="ant::expconfig::detector\l::TAPSVeto_2014">
<polygon fill="white" stroke="black" points="616.5,-98 616.5,-132 735.5,-132 735.5,-98 616.5,-98"/>
<text text-anchor="start" x="624.5" y="-119" font-family="Helvetica,sans-Serif" font-size="10.00">ant::expconfig::detector</text>
<text text-anchor="middle" x="676" y="-106" font-family="Helvetica,sans-Serif" font-size="10.00">::TAPSVeto_2014</text>
</a>
</g>
<!-- Node14&#45;&gt;Node15 -->
<g id="edge28" class="edge"><title>Node14&#45;&gt;Node15</title>
<path fill="none" stroke="midnightblue" d="M576.959,-115C590.058,-115 603.636,-115 616.385,-115"/>
<polygon fill="midnightblue" stroke="midnightblue" points="576.583,-111.5 566.583,-115 576.583,-118.5 576.583,-111.5"/>
</g>
<!-- Node17 -->
<g id="node33" class="node"><title>Node17</title>
<a xlink:href="structant_1_1expconfig_1_1detector_1_1_trigger__2014.html" target="_top" xlink:title="ant::expconfig::detector\l::Trigger_2014">
<polygon fill="white" stroke="black" points="447.5,-46 447.5,-80 566.5,-80 566.5,-46 447.5,-46"/>
<text text-anchor="start" x="455.5" y="-67" font-family="Helvetica,sans-Serif" font-size="10.00">ant::expconfig::detector</text>
<text text-anchor="middle" x="507" y="-54" font-family="Helvetica,sans-Serif" font-size="10.00">::Trigger_2014</text>
</a>
</g>
<!-- Node16&#45;&gt;Node17 -->
<g id="edge32" class="edge"><title>Node16&#45;&gt;Node17</title>
<path fill="none" stroke="midnightblue" d="M395.949,-63C412.952,-63 430.977,-63 447.447,-63"/>
<polygon fill="midnightblue" stroke="midnightblue" points="395.517,-59.5001 385.517,-63 395.517,-66.5001 395.517,-59.5001"/>
</g>
<!-- Node19 -->
<g id="node37" class="node"><title>Node19</title>
<a xlink:href="structant_1_1expconfig_1_1detector_1_1_e_p_t.html" target="_top" xlink:title="ant::expconfig::detector::EPT">
<polygon fill="white" stroke="black" points="434.5,-6.5 434.5,-27.5 579.5,-27.5 579.5,-6.5 434.5,-6.5"/>
<text text-anchor="middle" x="507" y="-14.5" font-family="Helvetica,sans-Serif" font-size="10.00">ant::expconfig::detector::EPT</text>
</a>
</g>
<!-- Node18&#45;&gt;Node19 -->
<g id="edge36" class="edge"><title>Node18&#45;&gt;Node19</title>
<path fill="none" stroke="midnightblue" d="M392.53,-17C406.166,-17 420.585,-17 434.421,-17"/>
<polygon fill="midnightblue" stroke="midnightblue" points="392.277,-13.5001 382.277,-17 392.277,-20.5001 392.277,-13.5001"/>
</g>
<!-- Node20 -->
<g id="node39" class="node"><title>Node20</title>
<a xlink:href="structant_1_1expconfig_1_1detector_1_1_e_p_t__2014.html" target="_top" xlink:title="ant::expconfig::detector\l::EPT_2014">
<polygon fill="white" stroke="black" points="616.5,-0 616.5,-34 735.5,-34 735.5,-0 616.5,-0"/>
<text text-anchor="start" x="624.5" y="-21" font-family="Helvetica,sans-Serif" font-size="10.00">ant::expconfig::detector</text>
<text text-anchor="middle" x="676" y="-8" font-family="Helvetica,sans-Serif" font-size="10.00">::EPT_2014</text>
</a>
</g>
<!-- Node19&#45;&gt;Node20 -->
<g id="edge38" class="edge"><title>Node19&#45;&gt;Node20</title>
<path fill="none" stroke="midnightblue" d="M589.76,-17C598.743,-17 607.751,-17 616.38,-17"/>
<polygon fill="midnightblue" stroke="midnightblue" points="589.652,-13.5001 579.652,-17 589.652,-20.5001 589.652,-13.5001"/>
</g>
</g>
</svg>
