<?xml version="1.0" encoding="UTF-8" standalone="no"?>
<!DOCTYPE svg PUBLIC "-//W3C//DTD SVG 1.1//EN"
 "http://www.w3.org/Graphics/SVG/1.1/DTD/svg11.dtd">
<!-- Generated by graphviz version 2.26.3 (20100126.1600)
 -->
<!-- Title: ant::ClusterDetector_t::Element_t Pages: 1 -->
<svg width="278pt" height="116pt"
 viewBox="0.00 0.00 278.00 116.00" xmlns="http://www.w3.org/2000/svg" xmlns:xlink="http://www.w3.org/1999/xlink">
<g id="graph1" class="graph" transform="scale(1 1) rotate(0) translate(4 112)">
<title>ant::ClusterDetector_t::Element_t</title>
<polygon fill="white" stroke="white" points="-4,5 -4,-112 275,-112 275,5 -4,5"/>
<!-- Node1 -->
<g id="node1" class="node"><title>Node1</title>
<polygon fill="#bfbfbf" stroke="black" points="85.5,-1 85.5,-35 190.5,-35 190.5,-1 85.5,-1"/>
<text text-anchor="start" x="93.5" y="-22" font-family="Helvetica,sans-Serif" font-size="10.00">ant::ClusterDetector</text>
<text text-anchor="middle" x="138" y="-9" font-family="Helvetica,sans-Serif" font-size="10.00">_t::Element_t</text>
</g>
<!-- Node2 -->
<g id="node2" class="node"><title>Node2</title>
<a xlink:href="structant_1_1_detector__t_1_1_element__t.html" target="_top" xlink:title="ant::Detector_t::Element_t">
<polygon fill="white" stroke="black" points="0,-86.5 0,-107.5 132,-107.5 132,-86.5 0,-86.5"/>
<text text-anchor="middle" x="66" y="-94.5" font-family="Helvetica,sans-Serif" font-size="10.00">ant::Detector_t::Element_t</text>
</a>
</g>
<!-- Node2&#45;&gt;Node1 -->
<g id="edge2" class="edge"><title>Node2&#45;&gt;Node1</title>
<path fill="none" stroke="midnightblue" d="M82.5664,-78.823C94.5503,-65.674 110.637,-48.0232 122.394,-35.1236"/>
<polygon fill="midnightblue" stroke="midnightblue" points="79.8595,-76.5971 75.7102,-86.3457 85.0331,-81.3124 79.8595,-76.5971"/>
</g>
<!-- Node3 -->
<g id="node4" class="node"><title>Node3</title>
<polygon fill="white" stroke="#bfbfbf" points="150,-86.5 150,-107.5 270,-107.5 270,-86.5 150,-86.5"/>
<text text-anchor="middle" x="210" y="-94.5" font-family="Helvetica,sans-Serif" font-size="10.00">std::vector&lt; unsigned &gt;</text>
</g>
<!-- Node3&#45;&gt;Node1 -->
<g id="edge4" class="edge"><title>Node3&#45;&gt;Node1</title>
<path fill="none" stroke="#9a32cd" stroke-dasharray="5,2" d="M193.434,-78.823C181.45,-65.674 165.363,-48.0232 153.606,-35.1236"/>
<polygon fill="#9a32cd" stroke="#9a32cd" points="190.967,-81.3124 200.29,-86.3457 196.141,-76.5971 190.967,-81.3124"/>
<text text-anchor="middle" x="208.5" y="-58.5" font-family="Helvetica,sans-Serif" font-size="10.00"> Neighbours</text>
</g>
</g>
</svg>
