<?xml version="1.0" encoding="UTF-8" standalone="no"?>
<!DOCTYPE svg PUBLIC "-//W3C//DTD SVG 1.1//EN"
 "http://www.w3.org/Graphics/SVG/1.1/DTD/svg11.dtd">
<!-- Generated by graphviz version 2.26.3 (20100126.1600)
 -->
<!-- Title: ant::calibration::Energy::GUI_CalibType Pages: 1 -->
<svg width="424pt" height="94pt"
 viewBox="0.00 0.00 424.00 94.00" xmlns="http://www.w3.org/2000/svg" xmlns:xlink="http://www.w3.org/1999/xlink">
<g id="graph1" class="graph" transform="scale(1 1) rotate(0) translate(4 90)">
<title>ant::calibration::Energy::GUI_CalibType</title>
<polygon fill="white" stroke="white" points="-4,5 -4,-90 421,-90 421,5 -4,5"/>
<!-- Node1 -->
<g id="node1" class="node"><title>Node1</title>
<polygon fill="#bfbfbf" stroke="black" points="136.5,-26 136.5,-60 253.5,-60 253.5,-26 136.5,-26"/>
<text text-anchor="start" x="144.5" y="-47" font-family="Helvetica,sans-Serif" font-size="10.00">ant::calibration::Energy</text>
<text text-anchor="middle" x="195" y="-34" font-family="Helvetica,sans-Serif" font-size="10.00">::GUI_CalibType</text>
</g>
<!-- Node3 -->
<g id="node5" class="node"><title>Node3</title>
<a xlink:href="structant_1_1calibration_1_1_c_b___energy_1_1_g_u_i___gains.html" target="_top" xlink:title="ant::calibration::CB\l_Energy::GUI_Gains">
<polygon fill="white" stroke="black" points="299.5,-52 299.5,-86 406.5,-86 406.5,-52 299.5,-52"/>
<text text-anchor="start" x="307.5" y="-73" font-family="Helvetica,sans-Serif" font-size="10.00">ant::calibration::CB</text>
<text text-anchor="middle" x="353" y="-60" font-family="Helvetica,sans-Serif" font-size="10.00">_Energy::GUI_Gains</text>
</a>
</g>
<!-- Node1&#45;&gt;Node3 -->
<g id="edge4" class="edge"><title>Node1&#45;&gt;Node3</title>
<path fill="none" stroke="midnightblue" d="M263.745,-54.3124C275.662,-56.2735 287.895,-58.2866 299.336,-60.1692"/>
<polygon fill="midnightblue" stroke="midnightblue" points="264.269,-50.8517 253.833,-52.6814 263.132,-57.7588 264.269,-50.8517"/>
</g>
<!-- Node4 -->
<g id="node7" class="node"><title>Node4</title>
<a xlink:href="structant_1_1calibration_1_1_p_i_d___energy_1_1_g_u_i___pedestals.html" target="_top" xlink:title="ant::calibration::PID\l_Energy::GUI_Pedestals">
<polygon fill="white" stroke="black" points="290.5,-0 290.5,-34 415.5,-34 415.5,-0 290.5,-0"/>
<text text-anchor="start" x="298.5" y="-21" font-family="Helvetica,sans-Serif" font-size="10.00">ant::calibration::PID</text>
<text text-anchor="middle" x="353" y="-8" font-family="Helvetica,sans-Serif" font-size="10.00">_Energy::GUI_Pedestals</text>
</a>
</g>
<!-- Node1&#45;&gt;Node4 -->
<g id="edge6" class="edge"><title>Node1&#45;&gt;Node4</title>
<path fill="none" stroke="midnightblue" d="M263.745,-31.6876C272.611,-30.2286 281.653,-28.7407 290.412,-27.2992"/>
<polygon fill="midnightblue" stroke="midnightblue" points="263.132,-28.2412 253.833,-33.3186 264.269,-35.1483 263.132,-28.2412"/>
</g>
<!-- Node2 -->
<g id="node2" class="node"><title>Node2</title>
<a xlink:href="classant_1_1calibration_1_1gui_1_1_manager__traits.html" target="_top" xlink:title="ant::calibration::gui\l::Manager_traits">
<polygon fill="white" stroke="black" points="0.5,-26 0.5,-60 99.5,-60 99.5,-26 0.5,-26"/>
<text text-anchor="start" x="8.5" y="-47" font-family="Helvetica,sans-Serif" font-size="10.00">ant::calibration::gui</text>
<text text-anchor="middle" x="50" y="-34" font-family="Helvetica,sans-Serif" font-size="10.00">::Manager_traits</text>
</a>
</g>
<!-- Node2&#45;&gt;Node1 -->
<g id="edge2" class="edge"><title>Node2&#45;&gt;Node1</title>
<path fill="none" stroke="midnightblue" d="M109.961,-43C118.655,-43 127.597,-43 136.266,-43"/>
<polygon fill="midnightblue" stroke="midnightblue" points="109.901,-39.5001 99.9008,-43 109.901,-46.5001 109.901,-39.5001"/>
</g>
</g>
</svg>
