<?xml version="1.0" encoding="UTF-8" standalone="no"?>
<!DOCTYPE svg PUBLIC "-//W3C//DTD SVG 1.1//EN"
 "http://www.w3.org/Graphics/SVG/1.1/DTD/svg11.dtd">
<!-- Generated by graphviz version 2.26.3 (20100126.1600)
 -->
<!-- Title: ant::expconfig::detector::TAPS Pages: 1 -->
<svg width="267pt" height="232pt"
 viewBox="0.00 0.00 267.00 232.00" xmlns="http://www.w3.org/2000/svg" xmlns:xlink="http://www.w3.org/1999/xlink">
<g id="graph1" class="graph" transform="scale(1 1) rotate(0) translate(4 228)">
<title>ant::expconfig::detector::TAPS</title>
<polygon fill="white" stroke="white" points="-4,5 -4,-228 264,-228 264,5 -4,5"/>
<!-- Node1 -->
<g id="node1" class="node"><title>Node1</title>
<polygon fill="#bfbfbf" stroke="black" points="65.5,-1 65.5,-35 184.5,-35 184.5,-1 65.5,-1"/>
<text text-anchor="start" x="73.5" y="-22" font-family="Helvetica,sans-Serif" font-size="10.00">ant::expconfig::detector</text>
<text text-anchor="middle" x="125" y="-9" font-family="Helvetica,sans-Serif" font-size="10.00">::TAPS</text>
</g>
<!-- Node2 -->
<g id="node2" class="node"><title>Node2</title>
<a xlink:href="structant_1_1_cluster_detector__t.html" target="_top" xlink:title="ant::ClusterDetector_t">
<polygon fill="white" stroke="black" points="-0.5,-72.5 -0.5,-93.5 112.5,-93.5 112.5,-72.5 -0.5,-72.5"/>
<text text-anchor="middle" x="56" y="-80.5" font-family="Helvetica,sans-Serif" font-size="10.00">ant::ClusterDetector_t</text>
</a>
</g>
<!-- Node2&#45;&gt;Node1 -->
<g id="edge2" class="edge"><title>Node2&#45;&gt;Node1</title>
<path fill="none" stroke="midnightblue" d="M74.8245,-65.2667C84.7903,-55.8787 96.9723,-44.4029 106.837,-35.1099"/>
<polygon fill="midnightblue" stroke="midnightblue" points="72.2729,-62.862 67.3939,-72.2666 77.0728,-67.9572 72.2729,-62.862"/>
</g>
<!-- Node3 -->
<g id="node4" class="node"><title>Node3</title>
<a xlink:href="structant_1_1_detector__t.html" target="_top" xlink:title="The Detector_t struct is the minimal base class for all detectors. ">
<polygon fill="white" stroke="black" points="15,-137.5 15,-158.5 97,-158.5 97,-137.5 15,-137.5"/>
<text text-anchor="middle" x="56" y="-145.5" font-family="Helvetica,sans-Serif" font-size="10.00">ant::Detector_t</text>
</a>
</g>
<!-- Node3&#45;&gt;Node2 -->
<g id="edge4" class="edge"><title>Node3&#45;&gt;Node2</title>
<path fill="none" stroke="midnightblue" d="M56,-127.014C56,-115.831 56,-102.558 56,-93.5337"/>
<polygon fill="midnightblue" stroke="midnightblue" points="52.5001,-127.267 56,-137.267 59.5001,-127.267 52.5001,-127.267"/>
</g>
<!-- Node4 -->
<g id="node6" class="node"><title>Node4</title>
<a xlink:href="classant_1_1printable__traits.html" target="_top" xlink:title="ant::printable_traits">
<polygon fill="white" stroke="black" points="6,-202.5 6,-223.5 106,-223.5 106,-202.5 6,-202.5"/>
<text text-anchor="middle" x="56" y="-210.5" font-family="Helvetica,sans-Serif" font-size="10.00">ant::printable_traits</text>
</a>
</g>
<!-- Node4&#45;&gt;Node3 -->
<g id="edge6" class="edge"><title>Node4&#45;&gt;Node3</title>
<path fill="none" stroke="midnightblue" d="M56,-192.014C56,-180.831 56,-167.558 56,-158.534"/>
<polygon fill="midnightblue" stroke="midnightblue" points="52.5001,-192.267 56,-202.267 59.5001,-192.267 52.5001,-192.267"/>
</g>
<!-- Node5 -->
<g id="node8" class="node"><title>Node5</title>
<a xlink:href="classant_1_1_unpacker_acqu_config.html" target="_top" xlink:title="ant::UnpackerAcquConfig">
<polygon fill="white" stroke="black" points="129.5,-72.5 129.5,-93.5 258.5,-93.5 258.5,-72.5 129.5,-72.5"/>
<text text-anchor="middle" x="194" y="-80.5" font-family="Helvetica,sans-Serif" font-size="10.00">ant::UnpackerAcquConfig</text>
</a>
</g>
<!-- Node5&#45;&gt;Node1 -->
<g id="edge8" class="edge"><title>Node5&#45;&gt;Node1</title>
<path fill="none" stroke="midnightblue" d="M175.175,-65.2667C165.21,-55.8787 153.028,-44.4029 143.163,-35.1099"/>
<polygon fill="midnightblue" stroke="midnightblue" points="172.927,-67.9572 182.606,-72.2666 177.727,-62.862 172.927,-67.9572"/>
</g>
<!-- Node6 -->
<g id="node10" class="node"><title>Node6</title>
<a xlink:href="classant_1_1_exp_config_1_1_unpacker.html" target="_top" xlink:title="ant::ExpConfig::Unpacker\l\&lt; UnpackerAcquConfig \&gt;">
<polygon fill="white" stroke="black" points="129,-131 129,-165 259,-165 259,-131 129,-131"/>
<text text-anchor="start" x="137" y="-152" font-family="Helvetica,sans-Serif" font-size="10.00">ant::ExpConfig::Unpacker</text>
<text text-anchor="middle" x="194" y="-139" font-family="Helvetica,sans-Serif" font-size="10.00">&lt; UnpackerAcquConfig &gt;</text>
</a>
</g>
<!-- Node6&#45;&gt;Node5 -->
<g id="edge10" class="edge"><title>Node6&#45;&gt;Node5</title>
<path fill="none" stroke="midnightblue" d="M194,-120.688C194,-111.242 194,-101.195 194,-93.8521"/>
<polygon fill="midnightblue" stroke="midnightblue" points="190.5,-120.922 194,-130.922 197.5,-120.922 190.5,-120.922"/>
</g>
<!-- Node7 -->
<g id="node12" class="node"><title>Node7</title>
<a xlink:href="classant_1_1_exp_config_1_1_base.html" target="_top" xlink:title="ant::ExpConfig::Base">
<polygon fill="white" stroke="black" points="139,-202.5 139,-223.5 249,-223.5 249,-202.5 139,-202.5"/>
<text text-anchor="middle" x="194" y="-210.5" font-family="Helvetica,sans-Serif" font-size="10.00">ant::ExpConfig::Base</text>
</a>
</g>
<!-- Node7&#45;&gt;Node6 -->
<g id="edge12" class="edge"><title>Node7&#45;&gt;Node6</title>
<path fill="none" stroke="midnightblue" d="M194,-192.131C194,-183.405 194,-173.391 194,-165.11"/>
<polygon fill="midnightblue" stroke="midnightblue" points="190.5,-192.267 194,-202.267 197.5,-192.267 190.5,-192.267"/>
</g>
</g>
</svg>
