<?xml version="1.0" encoding="UTF-8" standalone="no"?>
<!DOCTYPE svg PUBLIC "-//W3C//DTD SVG 1.1//EN"
 "http://www.w3.org/Graphics/SVG/1.1/DTD/svg11.dtd">
<!-- Generated by graphviz version 2.26.3 (20100126.1600)
 -->
<!-- Title: ant::analysis::data::Cluster::Hit Pages: 1 -->
<svg width="150pt" height="216pt"
 viewBox="0.00 0.00 150.00 216.00" xmlns="http://www.w3.org/2000/svg" xmlns:xlink="http://www.w3.org/1999/xlink">
<g id="graph1" class="graph" transform="scale(1 1) rotate(0) translate(4 212)">
<title>ant::analysis::data::Cluster::Hit</title>
<polygon fill="white" stroke="white" points="-4,5 -4,-212 147,-212 147,5 -4,5"/>
<!-- Node1 -->
<g id="node1" class="node"><title>Node1</title>
<polygon fill="#bfbfbf" stroke="black" points="22.5,-1 22.5,-35 119.5,-35 119.5,-1 22.5,-1"/>
<text text-anchor="start" x="30.5" y="-22" font-family="Helvetica,sans-Serif" font-size="10.00">ant::analysis::data</text>
<text text-anchor="middle" x="71" y="-9" font-family="Helvetica,sans-Serif" font-size="10.00">::Cluster::Hit</text>
</g>
<!-- Node2 -->
<g id="node2" class="node"><title>Node2</title>
<polygon fill="white" stroke="#bfbfbf" points="0,-87 0,-121 142,-121 142,-87 0,-87"/>
<text text-anchor="start" x="8" y="-108" font-family="Helvetica,sans-Serif" font-size="10.00">std::list&lt; ant::analysis</text>
<text text-anchor="middle" x="71" y="-95" font-family="Helvetica,sans-Serif" font-size="10.00">::data::Cluster::Hit::Datum &gt;</text>
</g>
<!-- Node2&#45;&gt;Node1 -->
<g id="edge2" class="edge"><title>Node2&#45;&gt;Node1</title>
<path fill="none" stroke="#9a32cd" stroke-dasharray="5,2" d="M71,-76.342C71,-62.7741 71,-46.8607 71,-35.084"/>
<polygon fill="#9a32cd" stroke="#9a32cd" points="67.5001,-76.5966 71,-86.5966 74.5001,-76.5967 67.5001,-76.5966"/>
<text text-anchor="middle" x="83.5" y="-58.5" font-family="Helvetica,sans-Serif" font-size="10.00"> Data</text>
</g>
<!-- Node3 -->
<g id="node4" class="node"><title>Node3</title>
<a xlink:href="structant_1_1analysis_1_1data_1_1_cluster_1_1_hit_1_1_datum.html" target="_top" xlink:title="ant::analysis::data\l::Cluster::Hit::Datum">
<polygon fill="white" stroke="black" points="17,-173 17,-207 125,-207 125,-173 17,-173"/>
<text text-anchor="start" x="25" y="-194" font-family="Helvetica,sans-Serif" font-size="10.00">ant::analysis::data</text>
<text text-anchor="middle" x="71" y="-181" font-family="Helvetica,sans-Serif" font-size="10.00">::Cluster::Hit::Datum</text>
</a>
</g>
<!-- Node3&#45;&gt;Node2 -->
<g id="edge4" class="edge"><title>Node3&#45;&gt;Node2</title>
<path fill="none" stroke="#9a32cd" stroke-dasharray="5,2" d="M71,-162.342C71,-148.774 71,-132.861 71,-121.084"/>
<polygon fill="#9a32cd" stroke="#9a32cd" points="67.5001,-162.597 71,-172.597 74.5001,-162.597 67.5001,-162.597"/>
<text text-anchor="middle" x="92.5" y="-144.5" font-family="Helvetica,sans-Serif" font-size="10.00"> elements</text>
</g>
</g>
</svg>
