<?xml version="1.0" encoding="UTF-8" standalone="no"?>
<!DOCTYPE svg PUBLIC "-//W3C//DTD SVG 1.1//EN"
 "http://www.w3.org/Graphics/SVG/1.1/DTD/svg11.dtd">
<!-- Generated by graphviz version 2.26.3 (20100126.1600)
 -->
<!-- Title: ant::expconfig::detector::TAPS_2013 Pages: 1 -->
<svg width="267pt" height="304pt"
 viewBox="0.00 0.00 267.00 304.00" xmlns="http://www.w3.org/2000/svg" xmlns:xlink="http://www.w3.org/1999/xlink">
<g id="graph1" class="graph" transform="scale(1 1) rotate(0) translate(4 300)">
<title>ant::expconfig::detector::TAPS_2013</title>
<polygon fill="white" stroke="white" points="-4,5 -4,-300 264,-300 264,5 -4,5"/>
<!-- Node1 -->
<g id="node1" class="node"><title>Node1</title>
<polygon fill="#bfbfbf" stroke="black" points="65.5,-1 65.5,-35 184.5,-35 184.5,-1 65.5,-1"/>
<text text-anchor="start" x="73.5" y="-22" font-family="Helvetica,sans-Serif" font-size="10.00">ant::expconfig::detector</text>
<text text-anchor="middle" x="125" y="-9" font-family="Helvetica,sans-Serif" font-size="10.00">::TAPS_2013</text>
</g>
<!-- Node2 -->
<g id="node2" class="node"><title>Node2</title>
<a xlink:href="structant_1_1expconfig_1_1detector_1_1_t_a_p_s.html" target="_top" xlink:title="ant::expconfig::detector\l::TAPS">
<polygon fill="white" stroke="black" points="65.5,-73 65.5,-107 184.5,-107 184.5,-73 65.5,-73"/>
<text text-anchor="start" x="73.5" y="-94" font-family="Helvetica,sans-Serif" font-size="10.00">ant::expconfig::detector</text>
<text text-anchor="middle" x="125" y="-81" font-family="Helvetica,sans-Serif" font-size="10.00">::TAPS</text>
</a>
</g>
<!-- Node2&#45;&gt;Node1 -->
<g id="edge2" class="edge"><title>Node2&#45;&gt;Node1</title>
<path fill="none" stroke="midnightblue" d="M125,-62.7193C125,-53.572 125,-43.6255 125,-35.4407"/>
<polygon fill="midnightblue" stroke="midnightblue" points="121.5,-62.937 125,-72.937 128.5,-62.937 121.5,-62.937"/>
</g>
<!-- Node3 -->
<g id="node4" class="node"><title>Node3</title>
<a xlink:href="structant_1_1_cluster_detector__t.html" target="_top" xlink:title="ant::ClusterDetector_t">
<polygon fill="white" stroke="black" points="-0.5,-144.5 -0.5,-165.5 112.5,-165.5 112.5,-144.5 -0.5,-144.5"/>
<text text-anchor="middle" x="56" y="-152.5" font-family="Helvetica,sans-Serif" font-size="10.00">ant::ClusterDetector_t</text>
</a>
</g>
<!-- Node3&#45;&gt;Node2 -->
<g id="edge4" class="edge"><title>Node3&#45;&gt;Node2</title>
<path fill="none" stroke="midnightblue" d="M74.8245,-137.267C84.7903,-127.879 96.9723,-116.403 106.837,-107.11"/>
<polygon fill="midnightblue" stroke="midnightblue" points="72.2729,-134.862 67.3939,-144.267 77.0728,-139.957 72.2729,-134.862"/>
</g>
<!-- Node4 -->
<g id="node6" class="node"><title>Node4</title>
<a xlink:href="structant_1_1_detector__t.html" target="_top" xlink:title="The Detector_t struct is the minimal base class for all detectors. ">
<polygon fill="white" stroke="black" points="15,-209.5 15,-230.5 97,-230.5 97,-209.5 15,-209.5"/>
<text text-anchor="middle" x="56" y="-217.5" font-family="Helvetica,sans-Serif" font-size="10.00">ant::Detector_t</text>
</a>
</g>
<!-- Node4&#45;&gt;Node3 -->
<g id="edge6" class="edge"><title>Node4&#45;&gt;Node3</title>
<path fill="none" stroke="midnightblue" d="M56,-199.014C56,-187.831 56,-174.558 56,-165.534"/>
<polygon fill="midnightblue" stroke="midnightblue" points="52.5001,-199.267 56,-209.267 59.5001,-199.267 52.5001,-199.267"/>
</g>
<!-- Node5 -->
<g id="node8" class="node"><title>Node5</title>
<a xlink:href="classant_1_1printable__traits.html" target="_top" xlink:title="ant::printable_traits">
<polygon fill="white" stroke="black" points="6,-274.5 6,-295.5 106,-295.5 106,-274.5 6,-274.5"/>
<text text-anchor="middle" x="56" y="-282.5" font-family="Helvetica,sans-Serif" font-size="10.00">ant::printable_traits</text>
</a>
</g>
<!-- Node5&#45;&gt;Node4 -->
<g id="edge8" class="edge"><title>Node5&#45;&gt;Node4</title>
<path fill="none" stroke="midnightblue" d="M56,-264.014C56,-252.831 56,-239.558 56,-230.534"/>
<polygon fill="midnightblue" stroke="midnightblue" points="52.5001,-264.267 56,-274.267 59.5001,-264.267 52.5001,-264.267"/>
</g>
<!-- Node6 -->
<g id="node10" class="node"><title>Node6</title>
<a xlink:href="classant_1_1_unpacker_acqu_config.html" target="_top" xlink:title="ant::UnpackerAcquConfig">
<polygon fill="white" stroke="black" points="129.5,-144.5 129.5,-165.5 258.5,-165.5 258.5,-144.5 129.5,-144.5"/>
<text text-anchor="middle" x="194" y="-152.5" font-family="Helvetica,sans-Serif" font-size="10.00">ant::UnpackerAcquConfig</text>
</a>
</g>
<!-- Node6&#45;&gt;Node2 -->
<g id="edge10" class="edge"><title>Node6&#45;&gt;Node2</title>
<path fill="none" stroke="midnightblue" d="M175.175,-137.267C165.21,-127.879 153.028,-116.403 143.163,-107.11"/>
<polygon fill="midnightblue" stroke="midnightblue" points="172.927,-139.957 182.606,-144.267 177.727,-134.862 172.927,-139.957"/>
</g>
<!-- Node7 -->
<g id="node12" class="node"><title>Node7</title>
<a xlink:href="classant_1_1_exp_config_1_1_unpacker.html" target="_top" xlink:title="ant::ExpConfig::Unpacker\l\&lt; UnpackerAcquConfig \&gt;">
<polygon fill="white" stroke="black" points="129,-203 129,-237 259,-237 259,-203 129,-203"/>
<text text-anchor="start" x="137" y="-224" font-family="Helvetica,sans-Serif" font-size="10.00">ant::ExpConfig::Unpacker</text>
<text text-anchor="middle" x="194" y="-211" font-family="Helvetica,sans-Serif" font-size="10.00">&lt; UnpackerAcquConfig &gt;</text>
</a>
</g>
<!-- Node7&#45;&gt;Node6 -->
<g id="edge12" class="edge"><title>Node7&#45;&gt;Node6</title>
<path fill="none" stroke="midnightblue" d="M194,-192.688C194,-183.242 194,-173.195 194,-165.852"/>
<polygon fill="midnightblue" stroke="midnightblue" points="190.5,-192.922 194,-202.922 197.5,-192.922 190.5,-192.922"/>
</g>
<!-- Node8 -->
<g id="node14" class="node"><title>Node8</title>
<a xlink:href="classant_1_1_exp_config_1_1_base.html" target="_top" xlink:title="ant::ExpConfig::Base">
<polygon fill="white" stroke="black" points="139,-274.5 139,-295.5 249,-295.5 249,-274.5 139,-274.5"/>
<text text-anchor="middle" x="194" y="-282.5" font-family="Helvetica,sans-Serif" font-size="10.00">ant::ExpConfig::Base</text>
</a>
</g>
<!-- Node8&#45;&gt;Node7 -->
<g id="edge14" class="edge"><title>Node8&#45;&gt;Node7</title>
<path fill="none" stroke="midnightblue" d="M194,-264.131C194,-255.405 194,-245.391 194,-237.11"/>
<polygon fill="midnightblue" stroke="midnightblue" points="190.5,-264.267 194,-274.267 197.5,-264.267 190.5,-264.267"/>
</g>
</g>
</svg>
