<?xml version="1.0" encoding="UTF-8" standalone="no"?>
<!DOCTYPE svg PUBLIC "-//W3C//DTD SVG 1.1//EN"
 "http://www.w3.org/Graphics/SVG/1.1/DTD/svg11.dtd">
<!-- Generated by graphviz version 2.26.3 (20100126.1600)
 -->
<!-- Title: ant::expconfig::detector::Trigger Pages: 1 -->
<svg width="256pt" height="304pt"
 viewBox="0.00 0.00 256.00 304.00" xmlns="http://www.w3.org/2000/svg" xmlns:xlink="http://www.w3.org/1999/xlink">
<g id="graph1" class="graph" transform="scale(1 1) rotate(0) translate(4 300)">
<title>ant::expconfig::detector::Trigger</title>
<polygon fill="white" stroke="white" points="-4,5 -4,-300 253,-300 253,5 -4,5"/>
<!-- Node1 -->
<g id="node1" class="node"><title>Node1</title>
<polygon fill="#bfbfbf" stroke="black" points="57.5,-73 57.5,-107 176.5,-107 176.5,-73 57.5,-73"/>
<text text-anchor="start" x="65.5" y="-94" font-family="Helvetica,sans-Serif" font-size="10.00">ant::expconfig::detector</text>
<text text-anchor="middle" x="117" y="-81" font-family="Helvetica,sans-Serif" font-size="10.00">::Trigger</text>
</g>
<!-- Node7 -->
<g id="node13" class="node"><title>Node7</title>
<a xlink:href="structant_1_1expconfig_1_1detector_1_1_trigger__2014.html" target="_top" xlink:title="ant::expconfig::detector\l::Trigger_2014">
<polygon fill="white" stroke="black" points="57.5,-1 57.5,-35 176.5,-35 176.5,-1 57.5,-1"/>
<text text-anchor="start" x="65.5" y="-22" font-family="Helvetica,sans-Serif" font-size="10.00">ant::expconfig::detector</text>
<text text-anchor="middle" x="117" y="-9" font-family="Helvetica,sans-Serif" font-size="10.00">::Trigger_2014</text>
</a>
</g>
<!-- Node1&#45;&gt;Node7 -->
<g id="edge12" class="edge"><title>Node1&#45;&gt;Node7</title>
<path fill="none" stroke="midnightblue" d="M117,-62.7193C117,-53.572 117,-43.6255 117,-35.4407"/>
<polygon fill="midnightblue" stroke="midnightblue" points="113.5,-62.937 117,-72.937 120.5,-62.937 113.5,-62.937"/>
</g>
<!-- Node2 -->
<g id="node2" class="node"><title>Node2</title>
<a xlink:href="structant_1_1_detector__t.html" target="_top" xlink:title="The Detector_t struct is the minimal base class for all detectors. ">
<polygon fill="white" stroke="black" points="14,-144.5 14,-165.5 96,-165.5 96,-144.5 14,-144.5"/>
<text text-anchor="middle" x="55" y="-152.5" font-family="Helvetica,sans-Serif" font-size="10.00">ant::Detector_t</text>
</a>
</g>
<!-- Node2&#45;&gt;Node1 -->
<g id="edge2" class="edge"><title>Node2&#45;&gt;Node1</title>
<path fill="none" stroke="midnightblue" d="M72.1814,-136.987C81.0861,-127.652 91.9035,-116.311 100.68,-107.11"/>
<polygon fill="midnightblue" stroke="midnightblue" points="69.6075,-134.615 65.238,-144.267 74.6728,-139.446 69.6075,-134.615"/>
</g>
<!-- Node3 -->
<g id="node4" class="node"><title>Node3</title>
<a xlink:href="classant_1_1printable__traits.html" target="_top" xlink:title="ant::printable_traits">
<polygon fill="white" stroke="black" points="0,-209.5 0,-230.5 100,-230.5 100,-209.5 0,-209.5"/>
<text text-anchor="middle" x="50" y="-217.5" font-family="Helvetica,sans-Serif" font-size="10.00">ant::printable_traits</text>
</a>
</g>
<!-- Node3&#45;&gt;Node2 -->
<g id="edge4" class="edge"><title>Node3&#45;&gt;Node2</title>
<path fill="none" stroke="midnightblue" d="M51.6143,-199.014C52.4746,-187.831 53.4955,-174.558 54.1897,-165.534"/>
<polygon fill="midnightblue" stroke="midnightblue" points="48.103,-199.028 50.8256,-209.267 55.0824,-199.564 48.103,-199.028"/>
</g>
<!-- Node4 -->
<g id="node6" class="node"><title>Node4</title>
<a xlink:href="classant_1_1_unpacker_acqu_config.html" target="_top" xlink:title="ant::UnpackerAcquConfig">
<polygon fill="white" stroke="black" points="115.5,-144.5 115.5,-165.5 244.5,-165.5 244.5,-144.5 115.5,-144.5"/>
<text text-anchor="middle" x="180" y="-152.5" font-family="Helvetica,sans-Serif" font-size="10.00">ant::UnpackerAcquConfig</text>
</a>
</g>
<!-- Node4&#45;&gt;Node1 -->
<g id="edge6" class="edge"><title>Node4&#45;&gt;Node1</title>
<path fill="none" stroke="midnightblue" d="M162.542,-136.987C153.493,-127.652 142.501,-116.311 133.583,-107.11"/>
<polygon fill="midnightblue" stroke="midnightblue" points="160.124,-139.522 169.597,-144.267 165.15,-134.65 160.124,-139.522"/>
</g>
<!-- Node5 -->
<g id="node8" class="node"><title>Node5</title>
<a xlink:href="classant_1_1_exp_config_1_1_unpacker.html" target="_top" xlink:title="ant::ExpConfig::Unpacker\l\&lt; UnpackerAcquConfig \&gt;">
<polygon fill="white" stroke="black" points="118,-203 118,-237 248,-237 248,-203 118,-203"/>
<text text-anchor="start" x="126" y="-224" font-family="Helvetica,sans-Serif" font-size="10.00">ant::ExpConfig::Unpacker</text>
<text text-anchor="middle" x="183" y="-211" font-family="Helvetica,sans-Serif" font-size="10.00">&lt; UnpackerAcquConfig &gt;</text>
</a>
</g>
<!-- Node5&#45;&gt;Node4 -->
<g id="edge8" class="edge"><title>Node5&#45;&gt;Node4</title>
<path fill="none" stroke="midnightblue" d="M181.739,-192.688C181.303,-183.242 180.84,-173.195 180.501,-165.852"/>
<polygon fill="midnightblue" stroke="midnightblue" points="178.254,-193.094 182.212,-202.922 185.247,-192.771 178.254,-193.094"/>
</g>
<!-- Node6 -->
<g id="node10" class="node"><title>Node6</title>
<a xlink:href="classant_1_1_exp_config_1_1_base.html" target="_top" xlink:title="ant::ExpConfig::Base">
<polygon fill="white" stroke="black" points="128,-274.5 128,-295.5 238,-295.5 238,-274.5 128,-274.5"/>
<text text-anchor="middle" x="183" y="-282.5" font-family="Helvetica,sans-Serif" font-size="10.00">ant::ExpConfig::Base</text>
</a>
</g>
<!-- Node6&#45;&gt;Node5 -->
<g id="edge10" class="edge"><title>Node6&#45;&gt;Node5</title>
<path fill="none" stroke="midnightblue" d="M183,-264.131C183,-255.405 183,-245.391 183,-237.11"/>
<polygon fill="midnightblue" stroke="midnightblue" points="179.5,-264.267 183,-274.267 186.5,-264.267 179.5,-264.267"/>
</g>
</g>
</svg>
