<?xml version="1.0" encoding="UTF-8" standalone="no"?>
<!DOCTYPE svg PUBLIC "-//W3C//DTD SVG 1.1//EN"
 "http://www.w3.org/Graphics/SVG/1.1/DTD/svg11.dtd">
<!-- Generated by graphviz version 2.26.3 (20100126.1600)
 -->
<!-- Title: ant::expconfig::detector::Trigger Pages: 1 -->
<svg width="429pt" height="262pt"
 viewBox="0.00 0.00 429.00 262.00" xmlns="http://www.w3.org/2000/svg" xmlns:xlink="http://www.w3.org/1999/xlink">
<g id="graph1" class="graph" transform="scale(1 1) rotate(0) translate(4 258)">
<title>ant::expconfig::detector::Trigger</title>
<polygon fill="white" stroke="white" points="-4,5 -4,-258 426,-258 426,5 -4,5"/>
<!-- Node1 -->
<g id="node1" class="node"><title>Node1</title>
<polygon fill="#bfbfbf" stroke="black" points="120.5,-1 120.5,-35 239.5,-35 239.5,-1 120.5,-1"/>
<text text-anchor="start" x="128.5" y="-22" font-family="Helvetica,sans-Serif" font-size="10.00">ant::expconfig::detector</text>
<text text-anchor="middle" x="180" y="-9" font-family="Helvetica,sans-Serif" font-size="10.00">::Trigger</text>
</g>
<!-- Node2 -->
<g id="node2" class="node"><title>Node2</title>
<a xlink:href="structant_1_1_detector__t.html" target="_top" xlink:title="The Detector_t struct is the minimal base class for all detectors. ">
<polygon fill="white" stroke="black" points="11,-98.5 11,-119.5 93,-119.5 93,-98.5 11,-98.5"/>
<text text-anchor="middle" x="52" y="-106.5" font-family="Helvetica,sans-Serif" font-size="10.00">ant::Detector_t</text>
</a>
</g>
<!-- Node2&#45;&gt;Node1 -->
<g id="edge2" class="edge"><title>Node2&#45;&gt;Node1</title>
<path fill="none" stroke="midnightblue" d="M75.3651,-92.3889C98.2428,-76.1243 132.934,-51.461 156.02,-35.048"/>
<polygon fill="midnightblue" stroke="midnightblue" points="73.056,-89.7361 66.9337,-98.383 77.112,-95.4413 73.056,-89.7361"/>
</g>
<!-- Node3 -->
<g id="node4" class="node"><title>Node3</title>
<a xlink:href="classant_1_1printable__traits.html" target="_top" xlink:title="ant::printable_traits">
<polygon fill="white" stroke="black" points="0,-165.5 0,-186.5 100,-186.5 100,-165.5 0,-165.5"/>
<text text-anchor="middle" x="50" y="-173.5" font-family="Helvetica,sans-Serif" font-size="10.00">ant::printable_traits</text>
</a>
</g>
<!-- Node3&#45;&gt;Node2 -->
<g id="edge4" class="edge"><title>Node3&#45;&gt;Node2</title>
<path fill="none" stroke="midnightblue" d="M50.6297,-154.904C50.9813,-143.127 51.404,-128.967 51.6861,-119.517"/>
<polygon fill="midnightblue" stroke="midnightblue" points="47.1214,-155.135 50.3213,-165.235 54.1182,-155.344 47.1214,-155.135"/>
</g>
<!-- Node4 -->
<g id="node6" class="node"><title>Node4</title>
<a xlink:href="classant_1_1_unpacker_acqu_config.html" target="_top" xlink:title="ant::UnpackerAcquConfig">
<polygon fill="white" stroke="black" points="115.5,-98.5 115.5,-119.5 244.5,-119.5 244.5,-98.5 115.5,-98.5"/>
<text text-anchor="middle" x="180" y="-106.5" font-family="Helvetica,sans-Serif" font-size="10.00">ant::UnpackerAcquConfig</text>
</a>
</g>
<!-- Node4&#45;&gt;Node1 -->
<g id="edge6" class="edge"><title>Node4&#45;&gt;Node1</title>
<path fill="none" stroke="midnightblue" d="M180,-87.7551C180,-71.7995 180,-50.2207 180,-35.3088"/>
<polygon fill="midnightblue" stroke="midnightblue" points="176.5,-88.2037 180,-98.2038 183.5,-88.2038 176.5,-88.2037"/>
</g>
<!-- Node5 -->
<g id="node8" class="node"><title>Node5</title>
<a xlink:href="classant_1_1_exp_config_1_1_unpacker.html" target="_top" xlink:title="ant::ExpConfig::Unpacker\l\&lt; UnpackerAcquConfig \&gt;">
<polygon fill="white" stroke="black" points="118,-159 118,-193 248,-193 248,-159 118,-159"/>
<text text-anchor="start" x="126" y="-180" font-family="Helvetica,sans-Serif" font-size="10.00">ant::ExpConfig::Unpacker</text>
<text text-anchor="middle" x="183" y="-167" font-family="Helvetica,sans-Serif" font-size="10.00">&lt; UnpackerAcquConfig &gt;</text>
</a>
</g>
<!-- Node5&#45;&gt;Node4 -->
<g id="edge8" class="edge"><title>Node5&#45;&gt;Node4</title>
<path fill="none" stroke="midnightblue" d="M181.77,-148.534C181.312,-138.306 180.819,-127.301 180.47,-119.506"/>
<polygon fill="midnightblue" stroke="midnightblue" points="178.284,-148.912 182.227,-158.746 185.277,-148.599 178.284,-148.912"/>
</g>
<!-- Node6 -->
<g id="node10" class="node"><title>Node6</title>
<a xlink:href="classant_1_1_exp_config_1_1_base.html" target="_top" xlink:title="ant::ExpConfig::Base">
<polygon fill="white" stroke="black" points="128,-232.5 128,-253.5 238,-253.5 238,-232.5 128,-232.5"/>
<text text-anchor="middle" x="183" y="-240.5" font-family="Helvetica,sans-Serif" font-size="10.00">ant::ExpConfig::Base</text>
</a>
</g>
<!-- Node6&#45;&gt;Node5 -->
<g id="edge10" class="edge"><title>Node6&#45;&gt;Node5</title>
<path fill="none" stroke="midnightblue" d="M183,-222.165C183,-212.797 183,-201.88 183,-193.014"/>
<polygon fill="midnightblue" stroke="midnightblue" points="179.5,-222.235 183,-232.235 186.5,-222.235 179.5,-222.235"/>
</g>
<!-- Node7 -->
<g id="node12" class="node"><title>Node7</title>
<a xlink:href="structant_1_1_logical_channel__t.html" target="_top" xlink:title="The LogicalChannel_t struct uniquely identifies detector element within setup. ">
<polygon fill="white" stroke="black" points="261.5,-98.5 261.5,-119.5 372.5,-119.5 372.5,-98.5 261.5,-98.5"/>
<text text-anchor="middle" x="317" y="-106.5" font-family="Helvetica,sans-Serif" font-size="10.00">ant::LogicalChannel_t</text>
</a>
</g>
<!-- Node7&#45;&gt;Node1 -->
<g id="edge12" class="edge"><title>Node7&#45;&gt;Node1</title>
<path fill="none" stroke="#9a32cd" stroke-dasharray="5,2" d="M292.639,-92.8187C268.164,-76.5614 230.594,-51.6062 205.666,-35.048"/>
<polygon fill="#9a32cd" stroke="#9a32cd" points="290.75,-95.7655 301.016,-98.383 294.623,-89.9346 290.75,-95.7655"/>
<text text-anchor="middle" x="347" y="-71" font-family="Helvetica,sans-Serif" font-size="10.00"> Reference_CATCH_TaggerCrate</text>
<text text-anchor="middle" x="347" y="-58" font-family="Helvetica,sans-Serif" font-size="10.00">Reference_CATCH_CBCrate</text>
</g>
</g>
</svg>
