<?xml version="1.0" encoding="UTF-8" standalone="no"?>
<!DOCTYPE svg PUBLIC "-//W3C//DTD SVG 1.1//EN"
 "http://www.w3.org/Graphics/SVG/1.1/DTD/svg11.dtd">
<!-- Generated by graphviz version 2.26.3 (20100126.1600)
 -->
<!-- Title: ant::TCalibrationData Pages: 1 -->
<svg width="774pt" height="234pt"
 viewBox="0.00 0.00 774.00 234.00" xmlns="http://www.w3.org/2000/svg" xmlns:xlink="http://www.w3.org/1999/xlink">
<g id="graph1" class="graph" transform="scale(1 1) rotate(0) translate(4 230)">
<title>ant::TCalibrationData</title>
<polygon fill="white" stroke="white" points="-4,5 -4,-230 771,-230 771,5 -4,5"/>
<!-- Node1 -->
<g id="node1" class="node"><title>Node1</title>
<polygon fill="#bfbfbf" stroke="black" points="656,-91.5 656,-112.5 766,-112.5 766,-91.5 656,-91.5"/>
<text text-anchor="middle" x="711" y="-99.5" font-family="Helvetica,sans-Serif" font-size="10.00">ant::TCalibrationData</text>
</g>
<!-- Node2 -->
<g id="node2" class="node"><title>Node2</title>
<a xlink:href="classant_1_1printable__traits.html" target="_top" xlink:title="ant::printable_traits">
<polygon fill="white" stroke="black" points="0,-112.5 0,-133.5 100,-133.5 100,-112.5 0,-112.5"/>
<text text-anchor="middle" x="50" y="-120.5" font-family="Helvetica,sans-Serif" font-size="10.00">ant::printable_traits</text>
</a>
</g>
<!-- Node2&#45;&gt;Node1 -->
<g id="edge2" class="edge"><title>Node2&#45;&gt;Node1</title>
<path fill="none" stroke="midnightblue" d="M110.584,-121.075C238.201,-117.021 533.007,-107.655 655.78,-103.754"/>
<polygon fill="midnightblue" stroke="midnightblue" points="110.109,-117.588 100.225,-121.404 110.331,-124.585 110.109,-117.588"/>
</g>
<!-- Node4 -->
<g id="node6" class="node"><title>Node4</title>
<a xlink:href="structant_1_1_t_key_value.html" target="_top" xlink:title="ant::TKeyValue\&lt; ValueType \&gt;">
<polygon fill="white" stroke="black" points="164.5,-52.5 164.5,-73.5 313.5,-73.5 313.5,-52.5 164.5,-52.5"/>
<text text-anchor="middle" x="239" y="-60.5" font-family="Helvetica,sans-Serif" font-size="10.00">ant::TKeyValue&lt; ValueType &gt;</text>
</a>
</g>
<!-- Node2&#45;&gt;Node4 -->
<g id="edge8" class="edge"><title>Node2&#45;&gt;Node4</title>
<path fill="none" stroke="midnightblue" d="M78.5202,-107.924C90.4762,-102.043 104.673,-95.6188 118,-91 138.577,-83.8685 161.752,-78.0059 182.271,-73.5209"/>
<polygon fill="midnightblue" stroke="midnightblue" points="76.8298,-104.856 69.4716,-112.479 79.9774,-111.109 76.8298,-104.856"/>
</g>
<!-- Node7 -->
<g id="node13" class="node"><title>Node7</title>
<a xlink:href="structant_1_1_t_key_value.html" target="_top" xlink:title="ant::TKeyValue\&lt; double \&gt;">
<polygon fill="white" stroke="black" points="173.5,-185.5 173.5,-206.5 304.5,-206.5 304.5,-185.5 173.5,-185.5"/>
<text text-anchor="middle" x="239" y="-193.5" font-family="Helvetica,sans-Serif" font-size="10.00">ant::TKeyValue&lt; double &gt;</text>
</a>
</g>
<!-- Node2&#45;&gt;Node7 -->
<g id="edge16" class="edge"><title>Node2&#45;&gt;Node7</title>
<path fill="none" stroke="midnightblue" d="M77.1675,-138.337C89.4152,-144.896 104.201,-152.331 118,-158 144.578,-168.92 175.503,-178.581 199.435,-185.429"/>
<polygon fill="midnightblue" stroke="midnightblue" points="78.8105,-135.246 68.3546,-133.536 75.4618,-141.393 78.8105,-135.246"/>
</g>
<!-- Node8 -->
<g id="node16" class="node"><title>Node8</title>
<a xlink:href="structant_1_1_t_i_d.html" target="_top" xlink:title="ant::TID">
<polygon fill="white" stroke="black" points="332.5,-135.5 332.5,-156.5 385.5,-156.5 385.5,-135.5 332.5,-135.5"/>
<text text-anchor="middle" x="359" y="-143.5" font-family="Helvetica,sans-Serif" font-size="10.00">ant::TID</text>
</a>
</g>
<!-- Node2&#45;&gt;Node8 -->
<g id="edge20" class="edge"><title>Node2&#45;&gt;Node8</title>
<path fill="none" stroke="midnightblue" d="M110.357,-127.493C177.492,-132.49 282.955,-140.34 332.109,-143.998"/>
<polygon fill="midnightblue" stroke="midnightblue" points="110.566,-123.999 100.334,-126.747 110.046,-130.979 110.566,-123.999"/>
</g>
<!-- Node3 -->
<g id="node4" class="node"><title>Node3</title>
<polygon fill="white" stroke="#bfbfbf" points="404.5,-52.5 404.5,-73.5 553.5,-73.5 553.5,-52.5 404.5,-52.5"/>
<text text-anchor="middle" x="479" y="-60.5" font-family="Helvetica,sans-Serif" font-size="10.00">std::vector&lt; ant::TKeyValue &gt;</text>
</g>
<!-- Node3&#45;&gt;Node1 -->
<g id="edge4" class="edge"><title>Node3&#45;&gt;Node1</title>
<path fill="none" stroke="#9a32cd" stroke-dasharray="5,2" d="M563.853,-65.0161C588.01,-66.7713 614.216,-69.8113 638,-75 655.031,-78.7154 673.434,-85.5423 687.502,-91.4014"/>
<polygon fill="#9a32cd" stroke="#9a32cd" points="563.848,-61.5082 553.639,-64.3401 563.386,-68.4929 563.848,-61.5082"/>
<text text-anchor="middle" x="605" y="-79" font-family="Helvetica,sans-Serif" font-size="10.00"> FitParameters</text>
</g>
<!-- Node4&#45;&gt;Node3 -->
<g id="edge6" class="edge"><title>Node4&#45;&gt;Node3</title>
<path fill="none" stroke="#9a32cd" stroke-dasharray="5,2" d="M323.937,-63C350.199,-63 378.918,-63 404.424,-63"/>
<polygon fill="#9a32cd" stroke="#9a32cd" points="323.622,-59.5001 313.622,-63 323.622,-66.5001 323.622,-59.5001"/>
<text text-anchor="middle" x="359" y="-67" font-family="Helvetica,sans-Serif" font-size="10.00"> elements</text>
</g>
<!-- Node5 -->
<g id="node9" class="node"><title>Node5</title>
<polygon fill="white" stroke="#bfbfbf" points="18.5,-38.5 18.5,-59.5 81.5,-59.5 81.5,-38.5 18.5,-38.5"/>
<text text-anchor="middle" x="50" y="-46.5" font-family="Helvetica,sans-Serif" font-size="10.00">ValueType</text>
</g>
<!-- Node5&#45;&gt;Node4 -->
<g id="edge10" class="edge"><title>Node5&#45;&gt;Node4</title>
<path fill="none" stroke="#9a32cd" stroke-dasharray="5,2" d="M91.7138,-48.2702C108.59,-48.2782 128.244,-48.672 146,-50 154.129,-50.6079 162.63,-51.4743 171.048,-52.475"/>
<polygon fill="#9a32cd" stroke="#9a32cd" points="91.5929,-44.7706 81.6068,-48.3102 91.6206,-51.7705 91.5929,-44.7706"/>
<text text-anchor="middle" x="132" y="-54" font-family="Helvetica,sans-Serif" font-size="10.00"> Value</text>
</g>
<!-- Node6 -->
<g id="node11" class="node"><title>Node6</title>
<polygon fill="white" stroke="#bfbfbf" points="419,-192 419,-226 539,-226 539,-192 419,-192"/>
<text text-anchor="start" x="427" y="-213" font-family="Helvetica,sans-Serif" font-size="10.00">std::vector&lt; TKeyValue</text>
<text text-anchor="middle" x="479" y="-200" font-family="Helvetica,sans-Serif" font-size="10.00">&lt; double &gt; &gt;</text>
</g>
<!-- Node6&#45;&gt;Node1 -->
<g id="edge12" class="edge"><title>Node6&#45;&gt;Node1</title>
<path fill="none" stroke="#9a32cd" stroke-dasharray="5,2" d="M549.255,-194.693C577.803,-187.255 610.476,-176.599 638,-162 662.927,-148.778 687.312,-126.238 700.63,-112.87"/>
<polygon fill="#9a32cd" stroke="#9a32cd" points="548.186,-191.352 539.345,-197.19 549.897,-198.14 548.186,-191.352"/>
<text text-anchor="middle" x="605" y="-191" font-family="Helvetica,sans-Serif" font-size="10.00"> Data</text>
</g>
<!-- Node7&#45;&gt;Node6 -->
<g id="edge14" class="edge"><title>Node7&#45;&gt;Node6</title>
<path fill="none" stroke="#9a32cd" stroke-dasharray="5,2" d="M314.813,-200.107C348.384,-201.925 387.318,-204.034 418.844,-205.742"/>
<polygon fill="#9a32cd" stroke="#9a32cd" points="314.756,-196.598 304.581,-199.552 314.377,-203.588 314.756,-196.598"/>
<text text-anchor="middle" x="359" y="-207" font-family="Helvetica,sans-Serif" font-size="10.00"> elements</text>
</g>
<!-- Node8&#45;&gt;Node1 -->
<g id="edge18" class="edge"><title>Node8&#45;&gt;Node1</title>
<path fill="none" stroke="#9a32cd" stroke-dasharray="5,2" d="M395.655,-143.028C449.107,-138.475 551.498,-128.923 638,-116 644.764,-114.989 651.857,-113.797 658.851,-112.542"/>
<polygon fill="#9a32cd" stroke="#9a32cd" points="395.308,-139.545 385.637,-143.872 395.895,-146.52 395.308,-139.545"/>
<text text-anchor="middle" x="479" y="-159" font-family="Helvetica,sans-Serif" font-size="10.00"> LastID</text>
<text text-anchor="middle" x="479" y="-146" font-family="Helvetica,sans-Serif" font-size="10.00">FirstID</text>
</g>
<!-- Node9 -->
<g id="node19" class="node"><title>Node9</title>
<a xlink:title="STL class. ">
<polygon fill="white" stroke="#bfbfbf" points="449,-9.5 449,-30.5 509,-30.5 509,-9.5 449,-9.5"/>
<text text-anchor="middle" x="479" y="-17.5" font-family="Helvetica,sans-Serif" font-size="10.00">std::string</text>
</a>
</g>
<!-- Node9&#45;&gt;Node1 -->
<g id="edge22" class="edge"><title>Node9&#45;&gt;Node1</title>
<path fill="none" stroke="#9a32cd" stroke-dasharray="5,2" d="M519.402,-16.8732C552.652,-15.8933 600.278,-18.2306 638,-35 666.452,-47.6482 691.163,-75.9039 703.2,-91.3744"/>
<polygon fill="#9a32cd" stroke="#9a32cd" points="518.991,-13.387 509.142,-17.2938 519.277,-20.3812 518.991,-13.387"/>
<text text-anchor="middle" x="605" y="-52" font-family="Helvetica,sans-Serif" font-size="10.00"> Author</text>
<text text-anchor="middle" x="605" y="-39" font-family="Helvetica,sans-Serif" font-size="10.00">CalibrationID</text>
</g>
<!-- Node10 -->
<g id="node21" class="node"><title>Node10</title>
<a xlink:title="STL class. ">
<polygon fill="white" stroke="#bfbfbf" points="191.5,-0 191.5,-34 286.5,-34 286.5,-0 191.5,-0"/>
<text text-anchor="start" x="199.5" y="-21" font-family="Helvetica,sans-Serif" font-size="10.00">std::basic_string&lt;</text>
<text text-anchor="middle" x="239" y="-8" font-family="Helvetica,sans-Serif" font-size="10.00"> char &gt;</text>
</a>
</g>
<!-- Node10&#45;&gt;Node9 -->
<g id="edge24" class="edge"><title>Node10&#45;&gt;Node9</title>
<path fill="none" stroke="midnightblue" d="M296.93,-17.7241C344.805,-18.3226 410.868,-19.1484 448.844,-19.6231"/>
<polygon fill="midnightblue" stroke="midnightblue" points="296.746,-14.2217 286.703,-17.5963 296.659,-21.2211 296.746,-14.2217"/>
</g>
</g>
</svg>
