<?xml version="1.0" encoding="UTF-8" standalone="no"?>
<!DOCTYPE svg PUBLIC "-//W3C//DTD SVG 1.1//EN"
 "http://www.w3.org/Graphics/SVG/1.1/DTD/svg11.dtd">
<!-- Generated by graphviz version 2.26.3 (20100126.1600)
 -->
<!-- Title: ant::expconfig::detector::EPT Pages: 1 -->
<svg width="736pt" height="134pt"
 viewBox="0.00 0.00 736.00 134.00" xmlns="http://www.w3.org/2000/svg" xmlns:xlink="http://www.w3.org/1999/xlink">
<g id="graph1" class="graph" transform="scale(1 1) rotate(0) translate(4 130)">
<title>ant::expconfig::detector::EPT</title>
<polygon fill="white" stroke="white" points="-4,5 -4,-130 733,-130 733,5 -4,5"/>
<!-- Node1 -->
<g id="node1" class="node"><title>Node1</title>
<polygon fill="#bfbfbf" stroke="black" points="582.5,-58.5 582.5,-79.5 727.5,-79.5 727.5,-58.5 582.5,-58.5"/>
<text text-anchor="middle" x="655" y="-66.5" font-family="Helvetica,sans-Serif" font-size="10.00">ant::expconfig::detector::EPT</text>
</g>
<!-- Node2 -->
<g id="node2" class="node"><title>Node2</title>
<a xlink:href="structant_1_1_tagger_detector__t.html" target="_top" xlink:title="ant::TaggerDetector_t">
<polygon fill="white" stroke="black" points="374,-99.5 374,-120.5 486,-120.5 486,-99.5 374,-99.5"/>
<text text-anchor="middle" x="430" y="-107.5" font-family="Helvetica,sans-Serif" font-size="10.00">ant::TaggerDetector_t</text>
</a>
</g>
<!-- Node2&#45;&gt;Node1 -->
<g id="edge2" class="edge"><title>Node2&#45;&gt;Node1</title>
<path fill="none" stroke="midnightblue" d="M496.357,-97.9084C528.353,-92.0779 566.373,-85.1498 597.171,-79.5377"/>
<polygon fill="midnightblue" stroke="midnightblue" points="495.407,-94.5236 486.197,-99.7597 496.662,-101.41 495.407,-94.5236"/>
</g>
<!-- Node3 -->
<g id="node4" class="node"><title>Node3</title>
<a xlink:href="structant_1_1_detector__t.html" target="_top" xlink:title="The Detector_t struct is the minimal base class for all detectors. ">
<polygon fill="white" stroke="black" points="172,-104.5 172,-125.5 254,-125.5 254,-104.5 172,-104.5"/>
<text text-anchor="middle" x="213" y="-112.5" font-family="Helvetica,sans-Serif" font-size="10.00">ant::Detector_t</text>
</a>
</g>
<!-- Node3&#45;&gt;Node2 -->
<g id="edge4" class="edge"><title>Node3&#45;&gt;Node2</title>
<path fill="none" stroke="midnightblue" d="M264.399,-113.816C297.347,-113.057 340.118,-112.071 373.939,-111.292"/>
<polygon fill="midnightblue" stroke="midnightblue" points="263.988,-110.324 254.071,-114.054 264.149,-117.322 263.988,-110.324"/>
</g>
<!-- Node4 -->
<g id="node6" class="node"><title>Node4</title>
<a xlink:href="classant_1_1printable__traits.html" target="_top" xlink:title="ant::printable_traits">
<polygon fill="white" stroke="black" points="5,-104.5 5,-125.5 105,-125.5 105,-104.5 5,-104.5"/>
<text text-anchor="middle" x="55" y="-112.5" font-family="Helvetica,sans-Serif" font-size="10.00">ant::printable_traits</text>
</a>
</g>
<!-- Node4&#45;&gt;Node3 -->
<g id="edge6" class="edge"><title>Node4&#45;&gt;Node3</title>
<path fill="none" stroke="midnightblue" d="M115.668,-115C134.424,-115 154.639,-115 171.761,-115"/>
<polygon fill="midnightblue" stroke="midnightblue" points="115.427,-111.5 105.427,-115 115.427,-118.5 115.427,-111.5"/>
</g>
<!-- Node5 -->
<g id="node8" class="node"><title>Node5</title>
<a xlink:href="classant_1_1_unpacker_acqu_config.html" target="_top" xlink:title="ant::UnpackerAcquConfig">
<polygon fill="white" stroke="black" points="365.5,-58.5 365.5,-79.5 494.5,-79.5 494.5,-58.5 365.5,-58.5"/>
<text text-anchor="middle" x="430" y="-66.5" font-family="Helvetica,sans-Serif" font-size="10.00">ant::UnpackerAcquConfig</text>
</a>
</g>
<!-- Node5&#45;&gt;Node1 -->
<g id="edge8" class="edge"><title>Node5&#45;&gt;Node1</title>
<path fill="none" stroke="midnightblue" d="M504.918,-69C529.87,-69 557.61,-69 582.385,-69"/>
<polygon fill="midnightblue" stroke="midnightblue" points="504.777,-65.5001 494.777,-69 504.777,-72.5001 504.777,-65.5001"/>
</g>
<!-- Node6 -->
<g id="node10" class="node"><title>Node6</title>
<a xlink:href="classant_1_1_exp_config_1_1_unpacker.html" target="_top" xlink:title="ant::ExpConfig::Unpacker\l\&lt; UnpackerAcquConfig \&gt;">
<polygon fill="white" stroke="black" points="148,-52 148,-86 278,-86 278,-52 148,-52"/>
<text text-anchor="start" x="156" y="-73" font-family="Helvetica,sans-Serif" font-size="10.00">ant::ExpConfig::Unpacker</text>
<text text-anchor="middle" x="213" y="-60" font-family="Helvetica,sans-Serif" font-size="10.00">&lt; UnpackerAcquConfig &gt;</text>
</a>
</g>
<!-- Node6&#45;&gt;Node5 -->
<g id="edge10" class="edge"><title>Node6&#45;&gt;Node5</title>
<path fill="none" stroke="midnightblue" d="M288.311,-69C313.398,-69 341.104,-69 365.313,-69"/>
<polygon fill="midnightblue" stroke="midnightblue" points="288.107,-65.5001 278.107,-69 288.107,-72.5001 288.107,-65.5001"/>
</g>
<!-- Node7 -->
<g id="node12" class="node"><title>Node7</title>
<a xlink:href="classant_1_1_exp_config_1_1_base.html" target="_top" xlink:title="ant::ExpConfig::Base">
<polygon fill="white" stroke="black" points="0,-58.5 0,-79.5 110,-79.5 110,-58.5 0,-58.5"/>
<text text-anchor="middle" x="55" y="-66.5" font-family="Helvetica,sans-Serif" font-size="10.00">ant::ExpConfig::Base</text>
</a>
</g>
<!-- Node7&#45;&gt;Node6 -->
<g id="edge12" class="edge"><title>Node7&#45;&gt;Node6</title>
<path fill="none" stroke="midnightblue" d="M120.346,-69C129.395,-69 138.69,-69 147.738,-69"/>
<polygon fill="midnightblue" stroke="midnightblue" points="120.261,-65.5001 110.261,-69 120.261,-72.5001 120.261,-65.5001"/>
</g>
<!-- Node8 -->
<g id="node14" class="node"><title>Node8</title>
<polygon fill="white" stroke="#bfbfbf" points="358.5,-5 358.5,-39 501.5,-39 501.5,-5 358.5,-5"/>
<text text-anchor="start" x="366.5" y="-26" font-family="Helvetica,sans-Serif" font-size="10.00">std::vector&lt; ant::expconfig</text>
<text text-anchor="middle" x="430" y="-13" font-family="Helvetica,sans-Serif" font-size="10.00">::detector::EPT::Element_t &gt;</text>
</g>
<!-- Node8&#45;&gt;Node1 -->
<g id="edge14" class="edge"><title>Node8&#45;&gt;Node1</title>
<path fill="none" stroke="#9a32cd" stroke-dasharray="5,2" d="M511.488,-39.0219C542.664,-45.5342 577.286,-52.7665 604.713,-58.4956"/>
<polygon fill="#9a32cd" stroke="#9a32cd" points="512.005,-35.5545 501.501,-36.9357 510.574,-42.4066 512.005,-35.5545"/>
<text text-anchor="middle" x="542" y="-53" font-family="Helvetica,sans-Serif" font-size="10.00"> elements</text>
</g>
<!-- Node9 -->
<g id="node16" class="node"><title>Node9</title>
<a xlink:href="structant_1_1expconfig_1_1detector_1_1_e_p_t_1_1_element__t.html" target="_top" xlink:title="ant::expconfig::detector\l::EPT::Element_t">
<polygon fill="white" stroke="black" points="153.5,-0 153.5,-34 272.5,-34 272.5,-0 153.5,-0"/>
<text text-anchor="start" x="161.5" y="-21" font-family="Helvetica,sans-Serif" font-size="10.00">ant::expconfig::detector</text>
<text text-anchor="middle" x="213" y="-8" font-family="Helvetica,sans-Serif" font-size="10.00">::EPT::Element_t</text>
</a>
</g>
<!-- Node9&#45;&gt;Node8 -->
<g id="edge16" class="edge"><title>Node9&#45;&gt;Node8</title>
<path fill="none" stroke="#9a32cd" stroke-dasharray="5,2" d="M282.725,-18.6066C306.848,-19.1624 333.915,-19.7861 358.202,-20.3457"/>
<polygon fill="#9a32cd" stroke="#9a32cd" points="282.661,-15.1043 272.583,-18.3729 282.5,-22.1024 282.661,-15.1043"/>
<text text-anchor="middle" x="318" y="-23" font-family="Helvetica,sans-Serif" font-size="10.00"> elements</text>
</g>
<!-- Node10 -->
<g id="node18" class="node"><title>Node10</title>
<a xlink:href="structant_1_1_tagger_detector__t_1_1_element__t.html" target="_top" xlink:title="ant::TaggerDetector\l_t::Element_t">
<polygon fill="white" stroke="black" points="3,-0 3,-34 107,-34 107,-0 3,-0"/>
<text text-anchor="start" x="11" y="-21" font-family="Helvetica,sans-Serif" font-size="10.00">ant::TaggerDetector</text>
<text text-anchor="middle" x="55" y="-8" font-family="Helvetica,sans-Serif" font-size="10.00">_t::Element_t</text>
</a>
</g>
<!-- Node10&#45;&gt;Node9 -->
<g id="edge18" class="edge"><title>Node10&#45;&gt;Node9</title>
<path fill="none" stroke="midnightblue" d="M117.445,-17C129.32,-17 141.718,-17 153.498,-17"/>
<polygon fill="midnightblue" stroke="midnightblue" points="117.173,-13.5001 107.173,-17 117.173,-20.5001 117.173,-13.5001"/>
</g>
</g>
</svg>
