<?xml version="1.0" encoding="UTF-8" standalone="no"?>
<!DOCTYPE svg PUBLIC "-//W3C//DTD SVG 1.1//EN"
 "http://www.w3.org/Graphics/SVG/1.1/DTD/svg11.dtd">
<!-- Generated by graphviz version 2.26.3 (20100126.1600)
 -->
<!-- Title: ant::expconfig::detector::PID Pages: 1 -->
<svg width="256pt" height="218pt"
 viewBox="0.00 0.00 256.00 218.00" xmlns="http://www.w3.org/2000/svg" xmlns:xlink="http://www.w3.org/1999/xlink">
<g id="graph1" class="graph" transform="scale(1 1) rotate(0) translate(4 214)">
<title>ant::expconfig::detector::PID</title>
<polygon fill="white" stroke="white" points="-4,5 -4,-214 253,-214 253,5 -4,5"/>
<!-- Node1 -->
<g id="node1" class="node"><title>Node1</title>
<polygon fill="#bfbfbf" stroke="black" points="45.5,-0.5 45.5,-21.5 188.5,-21.5 188.5,-0.5 45.5,-0.5"/>
<text text-anchor="middle" x="117" y="-8.5" font-family="Helvetica,sans-Serif" font-size="10.00">ant::expconfig::detector::PID</text>
</g>
<!-- Node2 -->
<g id="node2" class="node"><title>Node2</title>
<a xlink:href="structant_1_1_detector__t.html" target="_top" xlink:title="The Detector_t struct is the minimal base class for all detectors. ">
<polygon fill="white" stroke="black" points="14,-58.5 14,-79.5 96,-79.5 96,-58.5 14,-58.5"/>
<text text-anchor="middle" x="55" y="-66.5" font-family="Helvetica,sans-Serif" font-size="10.00">ant::Detector_t</text>
</a>
</g>
<!-- Node2&#45;&gt;Node1 -->
<g id="edge2" class="edge"><title>Node2&#45;&gt;Node1</title>
<path fill="none" stroke="midnightblue" d="M73.8085,-51.405C84.2166,-41.6683 96.8058,-29.8914 105.7,-21.5707"/>
<polygon fill="midnightblue" stroke="midnightblue" points="71.2834,-48.9743 66.3718,-58.3619 76.0656,-54.0863 71.2834,-48.9743"/>
</g>
<!-- Node3 -->
<g id="node4" class="node"><title>Node3</title>
<a xlink:href="classant_1_1printable__traits.html" target="_top" xlink:title="ant::printable_traits">
<polygon fill="white" stroke="black" points="0,-123.5 0,-144.5 100,-144.5 100,-123.5 0,-123.5"/>
<text text-anchor="middle" x="50" y="-131.5" font-family="Helvetica,sans-Serif" font-size="10.00">ant::printable_traits</text>
</a>
</g>
<!-- Node3&#45;&gt;Node2 -->
<g id="edge4" class="edge"><title>Node3&#45;&gt;Node2</title>
<path fill="none" stroke="midnightblue" d="M51.6143,-113.014C52.4746,-101.831 53.4955,-88.5583 54.1897,-79.5337"/>
<polygon fill="midnightblue" stroke="midnightblue" points="48.103,-113.028 50.8256,-123.267 55.0824,-113.564 48.103,-113.028"/>
</g>
<!-- Node4 -->
<g id="node6" class="node"><title>Node4</title>
<a xlink:href="classant_1_1_unpacker_acqu_config.html" target="_top" xlink:title="ant::UnpackerAcquConfig">
<polygon fill="white" stroke="black" points="115.5,-58.5 115.5,-79.5 244.5,-79.5 244.5,-58.5 115.5,-58.5"/>
<text text-anchor="middle" x="180" y="-66.5" font-family="Helvetica,sans-Serif" font-size="10.00">ant::UnpackerAcquConfig</text>
</a>
</g>
<!-- Node4&#45;&gt;Node1 -->
<g id="edge6" class="edge"><title>Node4&#45;&gt;Node1</title>
<path fill="none" stroke="midnightblue" d="M160.888,-51.405C150.312,-41.6683 137.52,-29.8914 128.482,-21.5707"/>
<polygon fill="midnightblue" stroke="midnightblue" points="158.717,-54.1637 168.445,-58.3619 163.458,-49.0138 158.717,-54.1637"/>
</g>
<!-- Node5 -->
<g id="node8" class="node"><title>Node5</title>
<a xlink:href="classant_1_1_exp_config_1_1_unpacker.html" target="_top" xlink:title="ant::ExpConfig::Unpacker\l\&lt; UnpackerAcquConfig \&gt;">
<polygon fill="white" stroke="black" points="118,-117 118,-151 248,-151 248,-117 118,-117"/>
<text text-anchor="start" x="126" y="-138" font-family="Helvetica,sans-Serif" font-size="10.00">ant::ExpConfig::Unpacker</text>
<text text-anchor="middle" x="183" y="-125" font-family="Helvetica,sans-Serif" font-size="10.00">&lt; UnpackerAcquConfig &gt;</text>
</a>
</g>
<!-- Node5&#45;&gt;Node4 -->
<g id="edge8" class="edge"><title>Node5&#45;&gt;Node4</title>
<path fill="none" stroke="midnightblue" d="M181.739,-106.688C181.303,-97.2415 180.84,-87.1949 180.501,-79.8521"/>
<polygon fill="midnightblue" stroke="midnightblue" points="178.254,-107.094 182.212,-116.922 185.247,-106.771 178.254,-107.094"/>
</g>
<!-- Node6 -->
<g id="node10" class="node"><title>Node6</title>
<a xlink:href="classant_1_1_exp_config_1_1_base.html" target="_top" xlink:title="ant::ExpConfig::Base">
<polygon fill="white" stroke="black" points="128,-188.5 128,-209.5 238,-209.5 238,-188.5 128,-188.5"/>
<text text-anchor="middle" x="183" y="-196.5" font-family="Helvetica,sans-Serif" font-size="10.00">ant::ExpConfig::Base</text>
</a>
</g>
<!-- Node6&#45;&gt;Node5 -->
<g id="edge10" class="edge"><title>Node6&#45;&gt;Node5</title>
<path fill="none" stroke="midnightblue" d="M183,-178.131C183,-169.405 183,-159.391 183,-151.11"/>
<polygon fill="midnightblue" stroke="midnightblue" points="179.5,-178.267 183,-188.267 186.5,-178.267 179.5,-178.267"/>
</g>
</g>
</svg>
