<?xml version="1.0" encoding="UTF-8" standalone="no"?>
<!DOCTYPE svg PUBLIC "-//W3C//DTD SVG 1.1//EN"
 "http://www.w3.org/Graphics/SVG/1.1/DTD/svg11.dtd">
<!-- Generated by graphviz version 2.26.3 (20100126.1600)
 -->
<!-- Title: ant::expconfig::detector::TAPSVeto Pages: 1 -->
<svg width="256pt" height="232pt"
 viewBox="0.00 0.00 256.00 232.00" xmlns="http://www.w3.org/2000/svg" xmlns:xlink="http://www.w3.org/1999/xlink">
<g id="graph1" class="graph" transform="scale(1 1) rotate(0) translate(4 228)">
<title>ant::expconfig::detector::TAPSVeto</title>
<polygon fill="white" stroke="white" points="-4,5 -4,-228 253,-228 253,5 -4,5"/>
<!-- Node1 -->
<g id="node1" class="node"><title>Node1</title>
<polygon fill="#bfbfbf" stroke="black" points="57.5,-1 57.5,-35 176.5,-35 176.5,-1 57.5,-1"/>
<text text-anchor="start" x="65.5" y="-22" font-family="Helvetica,sans-Serif" font-size="10.00">ant::expconfig::detector</text>
<text text-anchor="middle" x="117" y="-9" font-family="Helvetica,sans-Serif" font-size="10.00">::TAPSVeto</text>
</g>
<!-- Node2 -->
<g id="node2" class="node"><title>Node2</title>
<a xlink:href="structant_1_1_detector__t.html" target="_top" xlink:title="The Detector_t struct is the minimal base class for all detectors. ">
<polygon fill="white" stroke="black" points="14,-72.5 14,-93.5 96,-93.5 96,-72.5 14,-72.5"/>
<text text-anchor="middle" x="55" y="-80.5" font-family="Helvetica,sans-Serif" font-size="10.00">ant::Detector_t</text>
</a>
</g>
<!-- Node2&#45;&gt;Node1 -->
<g id="edge2" class="edge"><title>Node2&#45;&gt;Node1</title>
<path fill="none" stroke="midnightblue" d="M72.1814,-64.9873C81.0861,-55.6517 91.9035,-44.3109 100.68,-35.1099"/>
<polygon fill="midnightblue" stroke="midnightblue" points="69.6075,-62.6147 65.238,-72.2666 74.6728,-67.4462 69.6075,-62.6147"/>
</g>
<!-- Node3 -->
<g id="node4" class="node"><title>Node3</title>
<a xlink:href="classant_1_1printable__traits.html" target="_top" xlink:title="ant::printable_traits">
<polygon fill="white" stroke="black" points="0,-137.5 0,-158.5 100,-158.5 100,-137.5 0,-137.5"/>
<text text-anchor="middle" x="50" y="-145.5" font-family="Helvetica,sans-Serif" font-size="10.00">ant::printable_traits</text>
</a>
</g>
<!-- Node3&#45;&gt;Node2 -->
<g id="edge4" class="edge"><title>Node3&#45;&gt;Node2</title>
<path fill="none" stroke="midnightblue" d="M51.6143,-127.014C52.4746,-115.831 53.4955,-102.558 54.1897,-93.5337"/>
<polygon fill="midnightblue" stroke="midnightblue" points="48.103,-127.028 50.8256,-137.267 55.0824,-127.564 48.103,-127.028"/>
</g>
<!-- Node4 -->
<g id="node6" class="node"><title>Node4</title>
<a xlink:href="classant_1_1_unpacker_acqu_config.html" target="_top" xlink:title="ant::UnpackerAcquConfig">
<polygon fill="white" stroke="black" points="115.5,-72.5 115.5,-93.5 244.5,-93.5 244.5,-72.5 115.5,-72.5"/>
<text text-anchor="middle" x="180" y="-80.5" font-family="Helvetica,sans-Serif" font-size="10.00">ant::UnpackerAcquConfig</text>
</a>
</g>
<!-- Node4&#45;&gt;Node1 -->
<g id="edge6" class="edge"><title>Node4&#45;&gt;Node1</title>
<path fill="none" stroke="midnightblue" d="M162.542,-64.9873C153.493,-55.6517 142.501,-44.3109 133.583,-35.1099"/>
<polygon fill="midnightblue" stroke="midnightblue" points="160.124,-67.5218 169.597,-72.2666 165.15,-62.65 160.124,-67.5218"/>
</g>
<!-- Node5 -->
<g id="node8" class="node"><title>Node5</title>
<a xlink:href="classant_1_1_exp_config_1_1_unpacker.html" target="_top" xlink:title="ant::ExpConfig::Unpacker\l\&lt; UnpackerAcquConfig \&gt;">
<polygon fill="white" stroke="black" points="118,-131 118,-165 248,-165 248,-131 118,-131"/>
<text text-anchor="start" x="126" y="-152" font-family="Helvetica,sans-Serif" font-size="10.00">ant::ExpConfig::Unpacker</text>
<text text-anchor="middle" x="183" y="-139" font-family="Helvetica,sans-Serif" font-size="10.00">&lt; UnpackerAcquConfig &gt;</text>
</a>
</g>
<!-- Node5&#45;&gt;Node4 -->
<g id="edge8" class="edge"><title>Node5&#45;&gt;Node4</title>
<path fill="none" stroke="midnightblue" d="M181.739,-120.688C181.303,-111.242 180.84,-101.195 180.501,-93.8521"/>
<polygon fill="midnightblue" stroke="midnightblue" points="178.254,-121.094 182.212,-130.922 185.247,-120.771 178.254,-121.094"/>
</g>
<!-- Node6 -->
<g id="node10" class="node"><title>Node6</title>
<a xlink:href="classant_1_1_exp_config_1_1_base.html" target="_top" xlink:title="ant::ExpConfig::Base">
<polygon fill="white" stroke="black" points="128,-202.5 128,-223.5 238,-223.5 238,-202.5 128,-202.5"/>
<text text-anchor="middle" x="183" y="-210.5" font-family="Helvetica,sans-Serif" font-size="10.00">ant::ExpConfig::Base</text>
</a>
</g>
<!-- Node6&#45;&gt;Node5 -->
<g id="edge10" class="edge"><title>Node6&#45;&gt;Node5</title>
<path fill="none" stroke="midnightblue" d="M183,-192.131C183,-183.405 183,-173.391 183,-165.11"/>
<polygon fill="midnightblue" stroke="midnightblue" points="179.5,-192.267 183,-202.267 186.5,-192.267 179.5,-192.267"/>
</g>
</g>
</svg>
