<?xml version="1.0" encoding="UTF-8" standalone="no"?>
<!DOCTYPE svg PUBLIC "-//W3C//DTD SVG 1.1//EN"
 "http://www.w3.org/Graphics/SVG/1.1/DTD/svg11.dtd">
<!-- Generated by graphviz version 2.26.3 (20100126.1600)
 -->
<!-- Title: ant::expconfig::detector::PID_2004 Pages: 1 -->
<svg width="256pt" height="290pt"
 viewBox="0.00 0.00 256.00 290.00" xmlns="http://www.w3.org/2000/svg" xmlns:xlink="http://www.w3.org/1999/xlink">
<g id="graph1" class="graph" transform="scale(1 1) rotate(0) translate(4 286)">
<title>ant::expconfig::detector::PID_2004</title>
<polygon fill="white" stroke="white" points="-4,5 -4,-286 253,-286 253,5 -4,5"/>
<!-- Node1 -->
<g id="node1" class="node"><title>Node1</title>
<polygon fill="#bfbfbf" stroke="black" points="57.5,-1 57.5,-35 176.5,-35 176.5,-1 57.5,-1"/>
<text text-anchor="start" x="65.5" y="-22" font-family="Helvetica,sans-Serif" font-size="10.00">ant::expconfig::detector</text>
<text text-anchor="middle" x="117" y="-9" font-family="Helvetica,sans-Serif" font-size="10.00">::PID_2004</text>
</g>
<!-- Node2 -->
<g id="node2" class="node"><title>Node2</title>
<a xlink:href="structant_1_1expconfig_1_1detector_1_1_p_i_d.html" target="_top" xlink:title="ant::expconfig::detector::PID">
<polygon fill="white" stroke="black" points="45.5,-72.5 45.5,-93.5 188.5,-93.5 188.5,-72.5 45.5,-72.5"/>
<text text-anchor="middle" x="117" y="-80.5" font-family="Helvetica,sans-Serif" font-size="10.00">ant::expconfig::detector::PID</text>
</a>
</g>
<!-- Node2&#45;&gt;Node1 -->
<g id="edge2" class="edge"><title>Node2&#45;&gt;Node1</title>
<path fill="none" stroke="midnightblue" d="M117,-62.1306C117,-53.4049 117,-43.3908 117,-35.1099"/>
<polygon fill="midnightblue" stroke="midnightblue" points="113.5,-62.2665 117,-72.2666 120.5,-62.2666 113.5,-62.2665"/>
</g>
<!-- Node3 -->
<g id="node4" class="node"><title>Node3</title>
<a xlink:href="structant_1_1_detector__t.html" target="_top" xlink:title="The Detector_t struct is the minimal base class for all detectors. ">
<polygon fill="white" stroke="black" points="14,-130.5 14,-151.5 96,-151.5 96,-130.5 14,-130.5"/>
<text text-anchor="middle" x="55" y="-138.5" font-family="Helvetica,sans-Serif" font-size="10.00">ant::Detector_t</text>
</a>
</g>
<!-- Node3&#45;&gt;Node2 -->
<g id="edge4" class="edge"><title>Node3&#45;&gt;Node2</title>
<path fill="none" stroke="midnightblue" d="M73.8085,-123.405C84.2166,-113.668 96.8058,-101.891 105.7,-93.5707"/>
<polygon fill="midnightblue" stroke="midnightblue" points="71.2834,-120.974 66.3718,-130.362 76.0656,-126.086 71.2834,-120.974"/>
</g>
<!-- Node4 -->
<g id="node6" class="node"><title>Node4</title>
<a xlink:href="classant_1_1printable__traits.html" target="_top" xlink:title="ant::printable_traits">
<polygon fill="white" stroke="black" points="0,-195.5 0,-216.5 100,-216.5 100,-195.5 0,-195.5"/>
<text text-anchor="middle" x="50" y="-203.5" font-family="Helvetica,sans-Serif" font-size="10.00">ant::printable_traits</text>
</a>
</g>
<!-- Node4&#45;&gt;Node3 -->
<g id="edge6" class="edge"><title>Node4&#45;&gt;Node3</title>
<path fill="none" stroke="midnightblue" d="M51.6143,-185.014C52.4746,-173.831 53.4955,-160.558 54.1897,-151.534"/>
<polygon fill="midnightblue" stroke="midnightblue" points="48.103,-185.028 50.8256,-195.267 55.0824,-185.564 48.103,-185.028"/>
</g>
<!-- Node5 -->
<g id="node8" class="node"><title>Node5</title>
<a xlink:href="classant_1_1_unpacker_acqu_config.html" target="_top" xlink:title="ant::UnpackerAcquConfig">
<polygon fill="white" stroke="black" points="115.5,-130.5 115.5,-151.5 244.5,-151.5 244.5,-130.5 115.5,-130.5"/>
<text text-anchor="middle" x="180" y="-138.5" font-family="Helvetica,sans-Serif" font-size="10.00">ant::UnpackerAcquConfig</text>
</a>
</g>
<!-- Node5&#45;&gt;Node2 -->
<g id="edge8" class="edge"><title>Node5&#45;&gt;Node2</title>
<path fill="none" stroke="midnightblue" d="M160.888,-123.405C150.312,-113.668 137.52,-101.891 128.482,-93.5707"/>
<polygon fill="midnightblue" stroke="midnightblue" points="158.717,-126.164 168.445,-130.362 163.458,-121.014 158.717,-126.164"/>
</g>
<!-- Node6 -->
<g id="node10" class="node"><title>Node6</title>
<a xlink:href="classant_1_1_exp_config_1_1_unpacker.html" target="_top" xlink:title="ant::ExpConfig::Unpacker\l\&lt; UnpackerAcquConfig \&gt;">
<polygon fill="white" stroke="black" points="118,-189 118,-223 248,-223 248,-189 118,-189"/>
<text text-anchor="start" x="126" y="-210" font-family="Helvetica,sans-Serif" font-size="10.00">ant::ExpConfig::Unpacker</text>
<text text-anchor="middle" x="183" y="-197" font-family="Helvetica,sans-Serif" font-size="10.00">&lt; UnpackerAcquConfig &gt;</text>
</a>
</g>
<!-- Node6&#45;&gt;Node5 -->
<g id="edge10" class="edge"><title>Node6&#45;&gt;Node5</title>
<path fill="none" stroke="midnightblue" d="M181.739,-178.688C181.303,-169.242 180.84,-159.195 180.501,-151.852"/>
<polygon fill="midnightblue" stroke="midnightblue" points="178.254,-179.094 182.212,-188.922 185.247,-178.771 178.254,-179.094"/>
</g>
<!-- Node7 -->
<g id="node12" class="node"><title>Node7</title>
<a xlink:href="classant_1_1_exp_config_1_1_base.html" target="_top" xlink:title="ant::ExpConfig::Base">
<polygon fill="white" stroke="black" points="128,-260.5 128,-281.5 238,-281.5 238,-260.5 128,-260.5"/>
<text text-anchor="middle" x="183" y="-268.5" font-family="Helvetica,sans-Serif" font-size="10.00">ant::ExpConfig::Base</text>
</a>
</g>
<!-- Node7&#45;&gt;Node6 -->
<g id="edge12" class="edge"><title>Node7&#45;&gt;Node6</title>
<path fill="none" stroke="midnightblue" d="M183,-250.131C183,-241.405 183,-231.391 183,-223.11"/>
<polygon fill="midnightblue" stroke="midnightblue" points="179.5,-250.267 183,-260.267 186.5,-250.267 179.5,-250.267"/>
</g>
</g>
</svg>
