<?xml version="1.0" encoding="UTF-8" standalone="no"?>
<!DOCTYPE svg PUBLIC "-//W3C//DTD SVG 1.1//EN"
 "http://www.w3.org/Graphics/SVG/1.1/DTD/svg11.dtd">
<!-- Generated by graphviz version 2.26.3 (20100126.1600)
 -->
<!-- Title: ant::UnpackerAcquConfig::hit_mapping_t Pages: 1 -->
<svg width="148pt" height="116pt"
 viewBox="0.00 0.00 148.00 116.00" xmlns="http://www.w3.org/2000/svg" xmlns:xlink="http://www.w3.org/1999/xlink">
<g id="graph1" class="graph" transform="scale(1 1) rotate(0) translate(4 112)">
<title>ant::UnpackerAcquConfig::hit_mapping_t</title>
<polygon fill="white" stroke="white" points="-4,5 -4,-112 145,-112 145,5 -4,5"/>
<!-- Node1 -->
<g id="node1" class="node"><title>Node1</title>
<polygon fill="#bfbfbf" stroke="black" points="5.5,-1 5.5,-35 134.5,-35 134.5,-1 5.5,-1"/>
<text text-anchor="start" x="13.5" y="-22" font-family="Helvetica,sans-Serif" font-size="10.00">ant::UnpackerAcquConfig</text>
<text text-anchor="middle" x="70" y="-9" font-family="Helvetica,sans-Serif" font-size="10.00">::hit_mapping_t</text>
</g>
<!-- Node2 -->
<g id="node2" class="node"><title>Node2</title>
<a xlink:href="structant_1_1_unpacker_acqu_config_1_1mapping__t.html" target="_top" xlink:title="ant::UnpackerAcquConfig\l::mapping_t\&lt; std::uint16_t \&gt;">
<polygon fill="white" stroke="black" points="0,-73 0,-107 140,-107 140,-73 0,-73"/>
<text text-anchor="start" x="8" y="-94" font-family="Helvetica,sans-Serif" font-size="10.00">ant::UnpackerAcquConfig</text>
<text text-anchor="middle" x="70" y="-81" font-family="Helvetica,sans-Serif" font-size="10.00">::mapping_t&lt; std::uint16_t &gt;</text>
</a>
</g>
<!-- Node2&#45;&gt;Node1 -->
<g id="edge2" class="edge"><title>Node2&#45;&gt;Node1</title>
<path fill="none" stroke="midnightblue" d="M70,-62.7193C70,-53.572 70,-43.6255 70,-35.4407"/>
<polygon fill="midnightblue" stroke="midnightblue" points="66.5001,-62.937 70,-72.937 73.5001,-62.937 66.5001,-62.937"/>
</g>
</g>
</svg>
