<?xml version="1.0" encoding="UTF-8" standalone="no"?>
<!DOCTYPE svg PUBLIC "-//W3C//DTD SVG 1.1//EN"
 "http://www.w3.org/Graphics/SVG/1.1/DTD/svg11.dtd">
<!-- Generated by graphviz version 2.26.3 (20100126.1600)
 -->
<!-- Title: ant::expconfig::detector::PID_2004 Pages: 1 -->
<svg width="309pt" height="310pt"
 viewBox="0.00 0.00 309.00 310.00" xmlns="http://www.w3.org/2000/svg" xmlns:xlink="http://www.w3.org/1999/xlink">
<g id="graph1" class="graph" transform="scale(1 1) rotate(0) translate(4 306)">
<title>ant::expconfig::detector::PID_2004</title>
<polygon fill="white" stroke="white" points="-4,5 -4,-306 306,-306 306,5 -4,5"/>
<!-- Node1 -->
<g id="node1" class="node"><title>Node1</title>
<polygon fill="#bfbfbf" stroke="black" points="141.5,-1 141.5,-35 260.5,-35 260.5,-1 141.5,-1"/>
<text text-anchor="start" x="149.5" y="-22" font-family="Helvetica,sans-Serif" font-size="10.00">ant::expconfig::detector</text>
<text text-anchor="middle" x="201" y="-9" font-family="Helvetica,sans-Serif" font-size="10.00">::PID_2004</text>
</g>
<!-- Node2 -->
<g id="node2" class="node"><title>Node2</title>
<a xlink:href="structant_1_1expconfig_1_1detector_1_1_p_i_d.html" target="_top" xlink:title="ant::expconfig::detector::PID">
<polygon fill="white" stroke="black" points="16.5,-86.5 16.5,-107.5 159.5,-107.5 159.5,-86.5 16.5,-86.5"/>
<text text-anchor="middle" x="88" y="-94.5" font-family="Helvetica,sans-Serif" font-size="10.00">ant::expconfig::detector::PID</text>
</a>
</g>
<!-- Node2&#45;&gt;Node1 -->
<g id="edge2" class="edge"><title>Node2&#45;&gt;Node1</title>
<path fill="none" stroke="midnightblue" d="M111.64,-80.4726C130.652,-67.1812 157.272,-48.5708 176.507,-35.1236"/>
<polygon fill="midnightblue" stroke="midnightblue" points="109.43,-77.7474 103.24,-86.3457 113.441,-83.4844 109.43,-77.7474"/>
</g>
<!-- Node3 -->
<g id="node4" class="node"><title>Node3</title>
<a xlink:href="structant_1_1_detector__t.html" target="_top" xlink:title="The Detector_t struct is the minimal base class for all detectors. ">
<polygon fill="white" stroke="black" points="11,-146.5 11,-167.5 93,-167.5 93,-146.5 11,-146.5"/>
<text text-anchor="middle" x="52" y="-154.5" font-family="Helvetica,sans-Serif" font-size="10.00">ant::Detector_t</text>
</a>
</g>
<!-- Node3&#45;&gt;Node2 -->
<g id="edge4" class="edge"><title>Node3&#45;&gt;Node2</title>
<path fill="none" stroke="midnightblue" d="M63.7199,-137.467C69.671,-127.548 76.6692,-115.885 81.6196,-107.634"/>
<polygon fill="midnightblue" stroke="midnightblue" points="60.5799,-135.898 58.4361,-146.273 66.5823,-139.499 60.5799,-135.898"/>
</g>
<!-- Node4 -->
<g id="node6" class="node"><title>Node4</title>
<a xlink:href="classant_1_1printable__traits.html" target="_top" xlink:title="ant::printable_traits">
<polygon fill="white" stroke="black" points="0,-213.5 0,-234.5 100,-234.5 100,-213.5 0,-213.5"/>
<text text-anchor="middle" x="50" y="-221.5" font-family="Helvetica,sans-Serif" font-size="10.00">ant::printable_traits</text>
</a>
</g>
<!-- Node4&#45;&gt;Node3 -->
<g id="edge6" class="edge"><title>Node4&#45;&gt;Node3</title>
<path fill="none" stroke="midnightblue" d="M50.6297,-202.904C50.9813,-191.127 51.404,-176.967 51.6861,-167.517"/>
<polygon fill="midnightblue" stroke="midnightblue" points="47.1214,-203.135 50.3213,-213.235 54.1182,-203.344 47.1214,-203.135"/>
</g>
<!-- Node5 -->
<g id="node8" class="node"><title>Node5</title>
<a xlink:href="classant_1_1_unpacker_acqu_config.html" target="_top" xlink:title="ant::UnpackerAcquConfig">
<polygon fill="white" stroke="black" points="115.5,-146.5 115.5,-167.5 244.5,-167.5 244.5,-146.5 115.5,-146.5"/>
<text text-anchor="middle" x="180" y="-154.5" font-family="Helvetica,sans-Serif" font-size="10.00">ant::UnpackerAcquConfig</text>
</a>
</g>
<!-- Node5&#45;&gt;Node2 -->
<g id="edge8" class="edge"><title>Node5&#45;&gt;Node2</title>
<path fill="none" stroke="midnightblue" d="M155.108,-140.766C138.964,-130.238 118.391,-116.82 104.305,-107.634"/>
<polygon fill="midnightblue" stroke="midnightblue" points="153.264,-143.742 163.552,-146.273 157.088,-137.879 153.264,-143.742"/>
</g>
<!-- Node6 -->
<g id="node10" class="node"><title>Node6</title>
<a xlink:href="classant_1_1_exp_config_1_1_unpacker.html" target="_top" xlink:title="ant::ExpConfig::Unpacker\l\&lt; UnpackerAcquConfig \&gt;">
<polygon fill="white" stroke="black" points="118,-207 118,-241 248,-241 248,-207 118,-207"/>
<text text-anchor="start" x="126" y="-228" font-family="Helvetica,sans-Serif" font-size="10.00">ant::ExpConfig::Unpacker</text>
<text text-anchor="middle" x="183" y="-215" font-family="Helvetica,sans-Serif" font-size="10.00">&lt; UnpackerAcquConfig &gt;</text>
</a>
</g>
<!-- Node6&#45;&gt;Node5 -->
<g id="edge10" class="edge"><title>Node6&#45;&gt;Node5</title>
<path fill="none" stroke="midnightblue" d="M181.77,-196.534C181.312,-186.306 180.819,-175.301 180.47,-167.506"/>
<polygon fill="midnightblue" stroke="midnightblue" points="178.284,-196.912 182.227,-206.746 185.277,-196.599 178.284,-196.912"/>
</g>
<!-- Node7 -->
<g id="node12" class="node"><title>Node7</title>
<a xlink:href="classant_1_1_exp_config_1_1_base.html" target="_top" xlink:title="ant::ExpConfig::Base">
<polygon fill="white" stroke="black" points="128,-280.5 128,-301.5 238,-301.5 238,-280.5 128,-280.5"/>
<text text-anchor="middle" x="183" y="-288.5" font-family="Helvetica,sans-Serif" font-size="10.00">ant::ExpConfig::Base</text>
</a>
</g>
<!-- Node7&#45;&gt;Node6 -->
<g id="edge12" class="edge"><title>Node7&#45;&gt;Node6</title>
<path fill="none" stroke="midnightblue" d="M183,-270.165C183,-260.797 183,-249.88 183,-241.014"/>
<polygon fill="midnightblue" stroke="midnightblue" points="179.5,-270.235 183,-280.235 186.5,-270.235 179.5,-270.235"/>
</g>
<!-- Node8 -->
<g id="node14" class="node"><title>Node8</title>
<polygon fill="white" stroke="#bfbfbf" points="176.5,-86.5 176.5,-107.5 301.5,-107.5 301.5,-86.5 176.5,-86.5"/>
<text text-anchor="middle" x="239" y="-94.5" font-family="Helvetica,sans-Serif" font-size="10.00">std::vector&lt; Element_t &gt;</text>
</g>
<!-- Node8&#45;&gt;Node1 -->
<g id="edge14" class="edge"><title>Node8&#45;&gt;Node1</title>
<path fill="none" stroke="#9a32cd" stroke-dasharray="5,2" d="M229.532,-77.3157C223.294,-64.3486 215.207,-47.5364 209.237,-35.1236"/>
<polygon fill="#9a32cd" stroke="#9a32cd" points="226.386,-78.8512 233.875,-86.3457 232.694,-75.8169 226.386,-78.8512"/>
<text text-anchor="middle" x="255.5" y="-58.5" font-family="Helvetica,sans-Serif" font-size="10.00"> elements_init</text>
</g>
</g>
</svg>
