<?xml version="1.0" encoding="UTF-8" standalone="no"?>
<!DOCTYPE svg PUBLIC "-//W3C//DTD SVG 1.1//EN"
 "http://www.w3.org/Graphics/SVG/1.1/DTD/svg11.dtd">
<!-- Generated by graphviz version 2.26.3 (20100126.1600)
 -->
<!-- Title: ant::calibration::Energy::GUI_CalibType Pages: 1 -->
<svg width="670pt" height="195pt"
 viewBox="0.00 0.00 670.00 195.00" xmlns="http://www.w3.org/2000/svg" xmlns:xlink="http://www.w3.org/1999/xlink">
<g id="graph1" class="graph" transform="scale(1 1) rotate(0) translate(4 191)">
<title>ant::calibration::Energy::GUI_CalibType</title>
<polygon fill="white" stroke="white" points="-4,5 -4,-191 667,-191 667,5 -4,5"/>
<!-- Node1 -->
<g id="node1" class="node"><title>Node1</title>
<polygon fill="#bfbfbf" stroke="black" points="544.5,-73 544.5,-107 661.5,-107 661.5,-73 544.5,-73"/>
<text text-anchor="start" x="552.5" y="-94" font-family="Helvetica,sans-Serif" font-size="10.00">ant::calibration::Energy</text>
<text text-anchor="middle" x="603" y="-81" font-family="Helvetica,sans-Serif" font-size="10.00">::GUI_CalibType</text>
</g>
<!-- Node2 -->
<g id="node2" class="node"><title>Node2</title>
<a xlink:href="classant_1_1calibration_1_1gui_1_1_manager__traits.html" target="_top" xlink:title="ant::calibration::gui\l::Manager_traits">
<polygon fill="white" stroke="black" points="335.5,-153 335.5,-187 434.5,-187 434.5,-153 335.5,-153"/>
<text text-anchor="start" x="343.5" y="-174" font-family="Helvetica,sans-Serif" font-size="10.00">ant::calibration::gui</text>
<text text-anchor="middle" x="385" y="-161" font-family="Helvetica,sans-Serif" font-size="10.00">::Manager_traits</text>
</a>
</g>
<!-- Node2&#45;&gt;Node1 -->
<g id="edge2" class="edge"><title>Node2&#45;&gt;Node1</title>
<path fill="none" stroke="midnightblue" d="M444.524,-152.041C469.844,-144.026 499.57,-134.117 526,-124 539.375,-118.88 553.793,-112.698 566.497,-107.017"/>
<polygon fill="midnightblue" stroke="midnightblue" points="443.184,-148.793 434.692,-155.129 445.281,-155.472 443.184,-148.793"/>
</g>
<!-- Node3 -->
<g id="node4" class="node"><title>Node3</title>
<a xlink:href="structant_1_1calibration_1_1_energy_1_1_calib_type.html" target="_top" xlink:title="The CalibType struct stores the data for the Updateable interface and for the GUI. ">
<polygon fill="white" stroke="black" points="326.5,-101 326.5,-135 443.5,-135 443.5,-101 326.5,-101"/>
<text text-anchor="start" x="334.5" y="-122" font-family="Helvetica,sans-Serif" font-size="10.00">ant::calibration::Energy</text>
<text text-anchor="middle" x="385" y="-109" font-family="Helvetica,sans-Serif" font-size="10.00">::CalibType</text>
</a>
</g>
<!-- Node3&#45;&gt;Node1 -->
<g id="edge4" class="edge"><title>Node3&#45;&gt;Node1</title>
<path fill="none" stroke="#9a32cd" stroke-dasharray="5,2" d="M453.78,-109.166C482.829,-105.435 516.31,-101.134 544.188,-97.5538"/>
<polygon fill="#9a32cd" stroke="#9a32cd" points="453.179,-105.714 443.707,-110.46 454.071,-112.657 453.179,-105.714"/>
<text text-anchor="middle" x="495" y="-111" font-family="Helvetica,sans-Serif" font-size="10.00"> calibType</text>
</g>
<!-- Node4 -->
<g id="node6" class="node"><title>Node4</title>
<a xlink:title="STL class. ">
<polygon fill="white" stroke="#bfbfbf" points="159,-128.5 159,-149.5 219,-149.5 219,-128.5 159,-128.5"/>
<text text-anchor="middle" x="189" y="-136.5" font-family="Helvetica,sans-Serif" font-size="10.00">std::string</text>
</a>
</g>
<!-- Node4&#45;&gt;Node3 -->
<g id="edge6" class="edge"><title>Node4&#45;&gt;Node3</title>
<path fill="none" stroke="#9a32cd" stroke-dasharray="5,2" d="M229.408,-134.671C257.384,-131.673 295.063,-127.636 326.336,-124.285"/>
<polygon fill="#9a32cd" stroke="#9a32cd" points="228.766,-131.219 219.195,-135.765 229.511,-138.179 228.766,-131.219"/>
<text text-anchor="middle" x="284" y="-134" font-family="Helvetica,sans-Serif" font-size="10.00"> Name</text>
</g>
<!-- Node5 -->
<g id="node8" class="node"><title>Node5</title>
<a xlink:title="STL class. ">
<polygon fill="white" stroke="#bfbfbf" points="0.5,-122 0.5,-156 95.5,-156 95.5,-122 0.5,-122"/>
<text text-anchor="start" x="8.5" y="-143" font-family="Helvetica,sans-Serif" font-size="10.00">std::basic_string&lt;</text>
<text text-anchor="middle" x="48" y="-130" font-family="Helvetica,sans-Serif" font-size="10.00"> char &gt;</text>
</a>
</g>
<!-- Node5&#45;&gt;Node4 -->
<g id="edge8" class="edge"><title>Node5&#45;&gt;Node4</title>
<path fill="none" stroke="midnightblue" d="M105.989,-139C124.191,-139 143.543,-139 158.979,-139"/>
<polygon fill="midnightblue" stroke="midnightblue" points="105.736,-135.5 95.7362,-139 105.736,-142.5 105.736,-135.5"/>
</g>
<!-- Node6 -->
<g id="node10" class="node"><title>Node6</title>
<polygon fill="white" stroke="#bfbfbf" points="134,-59.5 134,-80.5 244,-80.5 244,-59.5 134,-59.5"/>
<text text-anchor="middle" x="189" y="-67.5" font-family="Helvetica,sans-Serif" font-size="10.00">std::vector&lt; double &gt;</text>
</g>
<!-- Node6&#45;&gt;Node1 -->
<g id="edge16" class="edge"><title>Node6&#45;&gt;Node1</title>
<path fill="none" stroke="#9a32cd" stroke-dasharray="5,2" d="M254.252,-71.6557C306.215,-73.1261 380.796,-75.5751 446,-79 478.471,-80.7055 514.678,-83.2023 544.132,-85.3862"/>
<polygon fill="#9a32cd" stroke="#9a32cd" points="254.264,-68.1548 244.171,-71.3747 254.069,-75.1521 254.264,-68.1548"/>
<text text-anchor="middle" x="385" y="-83" font-family="Helvetica,sans-Serif" font-size="10.00"> previousValues</text>
</g>
<!-- Node6&#45;&gt;Node3 -->
<g id="edge10" class="edge"><title>Node6&#45;&gt;Node3</title>
<path fill="none" stroke="#9a32cd" stroke-dasharray="5,2" d="M241.747,-82.9175C267.903,-89.3232 299.571,-97.0786 326.474,-103.667"/>
<polygon fill="#9a32cd" stroke="#9a32cd" points="242.559,-79.513 232.013,-80.5338 240.893,-86.3121 242.559,-79.513"/>
<text text-anchor="middle" x="284" y="-102" font-family="Helvetica,sans-Serif" font-size="10.00"> Values</text>
</g>
<!-- Node7 -->
<g id="node12" class="node"><title>Node7</title>
<polygon fill="white" stroke="#bfbfbf" points="324,-0 324,-34 446,-34 446,-0 324,-0"/>
<text text-anchor="start" x="332" y="-21" font-family="Helvetica,sans-Serif" font-size="10.00">std::map&lt; unsigned,</text>
<text text-anchor="middle" x="385" y="-8" font-family="Helvetica,sans-Serif" font-size="10.00"> std::vector&lt; double &gt; &gt;</text>
</g>
<!-- Node6&#45;&gt;Node7 -->
<g id="edge14" class="edge"><title>Node6&#45;&gt;Node7</title>
<path fill="none" stroke="#9a32cd" stroke-dasharray="5,2" d="M224.263,-55.776C236.13,-51.3073 249.525,-46.6045 262,-43 281.92,-37.2442 303.994,-32.1798 323.88,-28.0863"/>
<polygon fill="#9a32cd" stroke="#9a32cd" points="222.789,-52.5929 214.708,-59.4453 225.298,-59.1277 222.789,-52.5929"/>
<text text-anchor="middle" x="284" y="-47" font-family="Helvetica,sans-Serif" font-size="10.00"> elements</text>
</g>
<!-- Node7&#45;&gt;Node1 -->
<g id="edge12" class="edge"><title>Node7&#45;&gt;Node1</title>
<path fill="none" stroke="#9a32cd" stroke-dasharray="5,2" d="M455.987,-24.9016C478.827,-28.8035 503.924,-34.5595 526,-43 545.31,-50.3829 565.179,-62.6481 579.896,-72.7977"/>
<polygon fill="#9a32cd" stroke="#9a32cd" points="456.444,-21.43 446.013,-23.2886 455.326,-28.3403 456.444,-21.43"/>
<text text-anchor="middle" x="495" y="-47" font-family="Helvetica,sans-Serif" font-size="10.00"> fitParameters</text>
</g>
</g>
</svg>
