<?xml version="1.0" encoding="UTF-8" standalone="no"?>
<!DOCTYPE svg PUBLIC "-//W3C//DTD SVG 1.1//EN"
 "http://www.w3.org/Graphics/SVG/1.1/DTD/svg11.dtd">
<!-- Generated by graphviz version 2.26.3 (20100126.1600)
 -->
<!-- Title: ant::calibration::PID_Energy::GUI_Pedestals Pages: 1 -->
<svg width="132pt" height="188pt"
 viewBox="0.00 0.00 132.00 188.00" xmlns="http://www.w3.org/2000/svg" xmlns:xlink="http://www.w3.org/1999/xlink">
<g id="graph1" class="graph" transform="scale(1 1) rotate(0) translate(4 184)">
<title>ant::calibration::PID_Energy::GUI_Pedestals</title>
<polygon fill="white" stroke="white" points="-4,5 -4,-184 129,-184 129,5 -4,5"/>
<!-- Node1 -->
<g id="node1" class="node"><title>Node1</title>
<polygon fill="#bfbfbf" stroke="black" points="-0.5,-1 -0.5,-35 124.5,-35 124.5,-1 -0.5,-1"/>
<text text-anchor="start" x="7.5" y="-22" font-family="Helvetica,sans-Serif" font-size="10.00">ant::calibration::PID</text>
<text text-anchor="middle" x="62" y="-9" font-family="Helvetica,sans-Serif" font-size="10.00">_Energy::GUI_Pedestals</text>
</g>
<!-- Node2 -->
<g id="node2" class="node"><title>Node2</title>
<a xlink:href="structant_1_1calibration_1_1_energy_1_1_g_u_i___calib_type.html" target="_top" xlink:title="The GUI_CalibType struct is an abstract base class for handling the data storage for a provided Calib...">
<polygon fill="white" stroke="black" points="3.5,-73 3.5,-107 120.5,-107 120.5,-73 3.5,-73"/>
<text text-anchor="start" x="11.5" y="-94" font-family="Helvetica,sans-Serif" font-size="10.00">ant::calibration::Energy</text>
<text text-anchor="middle" x="62" y="-81" font-family="Helvetica,sans-Serif" font-size="10.00">::GUI_CalibType</text>
</a>
</g>
<!-- Node2&#45;&gt;Node1 -->
<g id="edge2" class="edge"><title>Node2&#45;&gt;Node1</title>
<path fill="none" stroke="midnightblue" d="M62,-62.7193C62,-53.572 62,-43.6255 62,-35.4407"/>
<polygon fill="midnightblue" stroke="midnightblue" points="58.5001,-62.937 62,-72.937 65.5001,-62.937 58.5001,-62.937"/>
</g>
<!-- Node3 -->
<g id="node4" class="node"><title>Node3</title>
<a xlink:href="classant_1_1calibration_1_1gui_1_1_manager__traits.html" target="_top" xlink:title="ant::calibration::gui\l::Manager_traits">
<polygon fill="white" stroke="black" points="12.5,-145 12.5,-179 111.5,-179 111.5,-145 12.5,-145"/>
<text text-anchor="start" x="20.5" y="-166" font-family="Helvetica,sans-Serif" font-size="10.00">ant::calibration::gui</text>
<text text-anchor="middle" x="62" y="-153" font-family="Helvetica,sans-Serif" font-size="10.00">::Manager_traits</text>
</a>
</g>
<!-- Node3&#45;&gt;Node2 -->
<g id="edge4" class="edge"><title>Node3&#45;&gt;Node2</title>
<path fill="none" stroke="midnightblue" d="M62,-134.719C62,-125.572 62,-115.625 62,-107.441"/>
<polygon fill="midnightblue" stroke="midnightblue" points="58.5001,-134.937 62,-144.937 65.5001,-134.937 58.5001,-134.937"/>
</g>
</g>
</svg>
