<?xml version="1.0" encoding="UTF-8" standalone="no"?>
<!DOCTYPE svg PUBLIC "-//W3C//DTD SVG 1.1//EN"
 "http://www.w3.org/Graphics/SVG/1.1/DTD/svg11.dtd">
<!-- Generated by graphviz version 2.26.3 (20100126.1600)
 -->
<!-- Title: ant::THeaderInfo Pages: 1 -->
<svg width="232pt" height="260pt"
 viewBox="0.00 0.00 232.00 260.00" xmlns="http://www.w3.org/2000/svg" xmlns:xlink="http://www.w3.org/1999/xlink">
<g id="graph1" class="graph" transform="scale(1 1) rotate(0) translate(4 256)">
<title>ant::THeaderInfo</title>
<polygon fill="white" stroke="white" points="-4,5 -4,-256 229,-256 229,5 -4,5"/>
<!-- Node1 -->
<g id="node1" class="node"><title>Node1</title>
<polygon fill="#bfbfbf" stroke="black" points="92,-0.5 92,-21.5 182,-21.5 182,-0.5 92,-0.5"/>
<text text-anchor="middle" x="137" y="-8.5" font-family="Helvetica,sans-Serif" font-size="10.00">ant::THeaderInfo</text>
</g>
<!-- Node2 -->
<g id="node2" class="node"><title>Node2</title>
<a xlink:href="structant_1_1_t_data_record.html" target="_top" xlink:title="ant::TDataRecord">
<polygon fill="white" stroke="black" points="34.5,-84.5 34.5,-105.5 129.5,-105.5 129.5,-84.5 34.5,-84.5"/>
<text text-anchor="middle" x="82" y="-92.5" font-family="Helvetica,sans-Serif" font-size="10.00">ant::TDataRecord</text>
</a>
</g>
<!-- Node2&#45;&gt;Node1 -->
<g id="edge2" class="edge"><title>Node2&#45;&gt;Node1</title>
<path fill="none" stroke="midnightblue" d="M94.5429,-75.8436C105.564,-59.0108 121.193,-35.142 130.091,-21.5523"/>
<polygon fill="midnightblue" stroke="midnightblue" points="91.5155,-74.0779 88.9658,-84.3613 97.3719,-77.9124 91.5155,-74.0779"/>
</g>
<!-- Node3 -->
<g id="node4" class="node"><title>Node3</title>
<a xlink:href="classant_1_1printable__traits.html" target="_top" xlink:title="ant::printable_traits">
<polygon fill="white" stroke="black" points="0,-230.5 0,-251.5 100,-251.5 100,-230.5 0,-230.5"/>
<text text-anchor="middle" x="50" y="-238.5" font-family="Helvetica,sans-Serif" font-size="10.00">ant::printable_traits</text>
</a>
</g>
<!-- Node3&#45;&gt;Node2 -->
<g id="edge4" class="edge"><title>Node3&#45;&gt;Node2</title>
<path fill="none" stroke="midnightblue" d="M47.2531,-220.158C45.6065,-202.742 44.7296,-177.392 50,-156 54.6918,-136.957 66.505,-117.278 74.3899,-105.594"/>
<polygon fill="midnightblue" stroke="midnightblue" points="43.8014,-220.786 48.3895,-230.336 50.7581,-220.009 43.8014,-220.786"/>
</g>
<!-- Node4 -->
<g id="node6" class="node"><title>Node4</title>
<a xlink:href="structant_1_1_t_i_d.html" target="_top" xlink:title="ant::TID">
<polygon fill="white" stroke="black" points="58.5,-163.5 58.5,-184.5 111.5,-184.5 111.5,-163.5 58.5,-163.5"/>
<text text-anchor="middle" x="85" y="-171.5" font-family="Helvetica,sans-Serif" font-size="10.00">ant::TID</text>
</a>
</g>
<!-- Node3&#45;&gt;Node4 -->
<g id="edge8" class="edge"><title>Node3&#45;&gt;Node4</title>
<path fill="none" stroke="midnightblue" d="M60.2655,-221.349C66.5584,-209.302 74.3661,-194.356 79.506,-184.517"/>
<polygon fill="midnightblue" stroke="midnightblue" points="57.1514,-219.751 55.6234,-230.235 63.3558,-222.992 57.1514,-219.751"/>
</g>
<!-- Node4&#45;&gt;Node2 -->
<g id="edge6" class="edge"><title>Node4&#45;&gt;Node2</title>
<path fill="none" stroke="#9a32cd" stroke-dasharray="5,2" d="M84.2133,-153.284C83.6341,-138.031 82.8699,-117.907 82.4078,-105.738"/>
<polygon fill="#9a32cd" stroke="#9a32cd" points="80.7184,-153.486 84.5954,-163.346 87.7133,-153.22 80.7184,-153.486"/>
<text text-anchor="middle" x="91" y="-128.5" font-family="Helvetica,sans-Serif" font-size="10.00"> ID</text>
</g>
<!-- Node5 -->
<g id="node9" class="node"><title>Node5</title>
<a xlink:title="STL class. ">
<polygon fill="white" stroke="#bfbfbf" points="147,-84.5 147,-105.5 207,-105.5 207,-84.5 147,-84.5"/>
<text text-anchor="middle" x="177" y="-92.5" font-family="Helvetica,sans-Serif" font-size="10.00">std::string</text>
</a>
</g>
<!-- Node5&#45;&gt;Node1 -->
<g id="edge10" class="edge"><title>Node5&#45;&gt;Node1</title>
<path fill="none" stroke="#9a32cd" stroke-dasharray="5,2" d="M167.429,-74.9013C159.443,-58.1303 148.376,-34.8903 142.025,-21.5523"/>
<polygon fill="#9a32cd" stroke="#9a32cd" points="164.475,-76.8375 171.934,-84.3613 170.795,-73.8279 164.475,-76.8375"/>
<text text-anchor="middle" x="188.5" y="-57" font-family="Helvetica,sans-Serif" font-size="10.00"> Description</text>
<text text-anchor="middle" x="188.5" y="-44" font-family="Helvetica,sans-Serif" font-size="10.00">SetupName</text>
</g>
<!-- Node6 -->
<g id="node11" class="node"><title>Node6</title>
<a xlink:title="STL class. ">
<polygon fill="white" stroke="#bfbfbf" points="129.5,-157 129.5,-191 224.5,-191 224.5,-157 129.5,-157"/>
<text text-anchor="start" x="137.5" y="-178" font-family="Helvetica,sans-Serif" font-size="10.00">std::basic_string&lt;</text>
<text text-anchor="middle" x="177" y="-165" font-family="Helvetica,sans-Serif" font-size="10.00"> char &gt;</text>
</a>
</g>
<!-- Node6&#45;&gt;Node5 -->
<g id="edge12" class="edge"><title>Node6&#45;&gt;Node5</title>
<path fill="none" stroke="midnightblue" d="M177,-146.623C177,-132.473 177,-116.024 177,-105.567"/>
<polygon fill="midnightblue" stroke="midnightblue" points="173.5,-146.858 177,-156.858 180.5,-146.858 173.5,-146.858"/>
</g>
</g>
</svg>
