<?xml version="1.0" encoding="UTF-8" standalone="no"?>
<!DOCTYPE svg PUBLIC "-//W3C//DTD SVG 1.1//EN"
 "http://www.w3.org/Graphics/SVG/1.1/DTD/svg11.dtd">
<!-- Generated by graphviz version 2.26.3 (20100126.1600)
 -->
<!-- Title: ant::TTagger Pages: 1 -->
<svg width="648pt" height="129pt"
 viewBox="0.00 0.00 648.00 128.84" xmlns="http://www.w3.org/2000/svg" xmlns:xlink="http://www.w3.org/1999/xlink">
<g id="graph1" class="graph" transform="scale(1 1) rotate(0) translate(4 124.84)">
<title>ant::TTagger</title>
<polygon fill="white" stroke="white" points="-4,5 -4,-124.84 645,-124.84 645,5 -4,5"/>
<!-- Node1 -->
<g id="node1" class="node"><title>Node1</title>
<polygon fill="#bfbfbf" stroke="black" points="568,-58.5 568,-79.5 640,-79.5 640,-58.5 568,-58.5"/>
<text text-anchor="middle" x="604" y="-66.5" font-family="Helvetica,sans-Serif" font-size="10.00">ant::TTagger</text>
</g>
<!-- Node2 -->
<g id="node2" class="node"><title>Node2</title>
<a xlink:href="classant_1_1printable__traits.html" target="_top" xlink:title="ant::printable_traits">
<polygon fill="white" stroke="black" points="0,-87.5 0,-108.5 100,-108.5 100,-87.5 0,-87.5"/>
<text text-anchor="middle" x="50" y="-95.5" font-family="Helvetica,sans-Serif" font-size="10.00">ant::printable_traits</text>
</a>
</g>
<!-- Node2&#45;&gt;Node1 -->
<g id="edge2" class="edge"><title>Node2&#45;&gt;Node1</title>
<path fill="none" stroke="midnightblue" d="M110.273,-99.8665C112.884,-99.9178 115.468,-99.9628 118,-100 118.889,-100.013 119.111,-100.001 120,-100 311.111,-99.7778 365.054,-147.154 550,-99 564.53,-95.2169 579.318,-86.5994 589.736,-79.5665"/>
<polygon fill="midnightblue" stroke="midnightblue" points="110.205,-96.3642 100.13,-99.6414 110.049,-103.363 110.205,-96.3642"/>
</g>
<!-- Node4 -->
<g id="node6" class="node"><title>Node4</title>
<a xlink:href="structant_1_1_t_key_value.html" target="_top" xlink:title="ant::TKeyValue\&lt; double \&gt;">
<polygon fill="white" stroke="black" points="138.5,-63.5 138.5,-84.5 269.5,-84.5 269.5,-63.5 138.5,-63.5"/>
<text text-anchor="middle" x="204" y="-71.5" font-family="Helvetica,sans-Serif" font-size="10.00">ant::TKeyValue&lt; double &gt;</text>
</a>
</g>
<!-- Node2&#45;&gt;Node4 -->
<g id="edge8" class="edge"><title>Node2&#45;&gt;Node4</title>
<path fill="none" stroke="midnightblue" d="M110.551,-88.5635C119.666,-87.143 129.104,-85.6722 138.32,-84.2358"/>
<polygon fill="midnightblue" stroke="midnightblue" points="109.767,-85.1433 100.425,-90.1415 110.845,-92.0598 109.767,-85.1433"/>
</g>
<!-- Node3 -->
<g id="node4" class="node"><title>Node3</title>
<polygon fill="white" stroke="#bfbfbf" points="350,-52 350,-86 490,-86 490,-52 350,-52"/>
<text text-anchor="start" x="358" y="-73" font-family="Helvetica,sans-Serif" font-size="10.00">std::vector&lt; ant::TKeyValue</text>
<text text-anchor="middle" x="420" y="-60" font-family="Helvetica,sans-Serif" font-size="10.00">&lt; double &gt; &gt;</text>
</g>
<!-- Node3&#45;&gt;Node1 -->
<g id="edge4" class="edge"><title>Node3&#45;&gt;Node1</title>
<path fill="none" stroke="#9a32cd" stroke-dasharray="5,2" d="M500.13,-69C523.757,-69 548.446,-69 567.823,-69"/>
<polygon fill="#9a32cd" stroke="#9a32cd" points="500.087,-65.5001 490.087,-69 500.087,-72.5001 500.087,-65.5001"/>
<text text-anchor="middle" x="529" y="-86" font-family="Helvetica,sans-Serif" font-size="10.00"> Energies</text>
<text text-anchor="middle" x="529" y="-73" font-family="Helvetica,sans-Serif" font-size="10.00">Scalers</text>
</g>
<!-- Node4&#45;&gt;Node3 -->
<g id="edge6" class="edge"><title>Node4&#45;&gt;Node3</title>
<path fill="none" stroke="#9a32cd" stroke-dasharray="5,2" d="M279.954,-72.2418C302.654,-71.7163 327.431,-71.1428 349.747,-70.6262"/>
<polygon fill="#9a32cd" stroke="#9a32cd" points="279.603,-68.7489 269.687,-72.4795 279.765,-75.747 279.603,-68.7489"/>
<text text-anchor="middle" x="310" y="-75" font-family="Helvetica,sans-Serif" font-size="10.00"> elements</text>
</g>
<!-- Node5 -->
<g id="node9" class="node"><title>Node5</title>
<polygon fill="white" stroke="#bfbfbf" points="367.5,-0 367.5,-34 472.5,-34 472.5,-0 367.5,-0"/>
<text text-anchor="start" x="375.5" y="-21" font-family="Helvetica,sans-Serif" font-size="10.00">std::vector&lt; ant::ant</text>
<text text-anchor="middle" x="420" y="-8" font-family="Helvetica,sans-Serif" font-size="10.00">::TTaggerHit &gt;</text>
</g>
<!-- Node5&#45;&gt;Node1 -->
<g id="edge10" class="edge"><title>Node5&#45;&gt;Node1</title>
<path fill="none" stroke="#9a32cd" stroke-dasharray="5,2" d="M482.311,-33.2069C503.811,-38.9498 528.014,-45.5825 550,-52 556.887,-54.0103 564.238,-56.2565 571.227,-58.4405"/>
<polygon fill="#9a32cd" stroke="#9a32cd" points="483.204,-29.8227 472.64,-30.6348 481.405,-36.5876 483.204,-29.8227"/>
<text text-anchor="middle" x="529" y="-56" font-family="Helvetica,sans-Serif" font-size="10.00"> Hits</text>
</g>
</g>
</svg>
