<?xml version="1.0" encoding="UTF-8" standalone="no"?>
<!DOCTYPE svg PUBLIC "-//W3C//DTD SVG 1.1//EN"
 "http://www.w3.org/Graphics/SVG/1.1/DTD/svg11.dtd">
<!-- Generated by graphviz version 2.26.3 (20100126.1600)
 -->
<!-- Title: ant::TCluster Pages: 1 -->
<svg width="254pt" height="346pt"
 viewBox="0.00 0.00 254.00 346.00" xmlns="http://www.w3.org/2000/svg" xmlns:xlink="http://www.w3.org/1999/xlink">
<g id="graph1" class="graph" transform="scale(1 1) rotate(0) translate(4 342)">
<title>ant::TCluster</title>
<polygon fill="white" stroke="white" points="-4,5 -4,-342 251,-342 251,5 -4,5"/>
<!-- Node1 -->
<g id="node1" class="node"><title>Node1</title>
<polygon fill="#bfbfbf" stroke="black" points="44,-0.5 44,-21.5 118,-21.5 118,-0.5 44,-0.5"/>
<text text-anchor="middle" x="81" y="-8.5" font-family="Helvetica,sans-Serif" font-size="10.00">ant::TCluster</text>
</g>
<!-- Node2 -->
<g id="node2" class="node"><title>Node2</title>
<a xlink:href="classant_1_1printable__traits.html" target="_top" xlink:title="ant::printable_traits">
<polygon fill="white" stroke="black" points="0,-237.5 0,-258.5 100,-258.5 100,-237.5 0,-237.5"/>
<text text-anchor="middle" x="50" y="-245.5" font-family="Helvetica,sans-Serif" font-size="10.00">ant::printable_traits</text>
</a>
</g>
<!-- Node2&#45;&gt;Node1 -->
<g id="edge2" class="edge"><title>Node2&#45;&gt;Node1</title>
<path fill="none" stroke="midnightblue" d="M51.6743,-226.997C54.4443,-193.921 60.5284,-127.718 69,-72 71.6932,-54.2868 75.9393,-33.8966 78.592,-21.7491"/>
<polygon fill="midnightblue" stroke="midnightblue" points="48.1631,-226.991 50.8342,-237.244 55.1397,-227.563 48.1631,-226.991"/>
</g>
<!-- Node4 -->
<g id="node6" class="node"><title>Node4</title>
<a xlink:href="structant_1_1_t_cluster_hit.html" target="_top" xlink:title="ant::TClusterHit">
<polygon fill="white" stroke="black" points="99,-158.5 99,-179.5 185,-179.5 185,-158.5 99,-158.5"/>
<text text-anchor="middle" x="142" y="-166.5" font-family="Helvetica,sans-Serif" font-size="10.00">ant::TClusterHit</text>
</a>
</g>
<!-- Node2&#45;&gt;Node4 -->
<g id="edge8" class="edge"><title>Node2&#45;&gt;Node4</title>
<path fill="none" stroke="midnightblue" d="M70.0963,-230.743C88.192,-215.205 114.223,-192.852 129.495,-179.738"/>
<polygon fill="midnightblue" stroke="midnightblue" points="67.7141,-228.176 62.4075,-237.346 72.2745,-233.486 67.7141,-228.176"/>
</g>
<!-- Node3 -->
<g id="node4" class="node"><title>Node3</title>
<polygon fill="white" stroke="#bfbfbf" points="77.5,-73 77.5,-107 206.5,-107 206.5,-73 77.5,-73"/>
<text text-anchor="start" x="85.5" y="-94" font-family="Helvetica,sans-Serif" font-size="10.00">std::vector&lt; ant::TCluster</text>
<text text-anchor="middle" x="142" y="-81" font-family="Helvetica,sans-Serif" font-size="10.00">Hit &gt;</text>
</g>
<!-- Node3&#45;&gt;Node1 -->
<g id="edge4" class="edge"><title>Node3&#45;&gt;Node1</title>
<path fill="none" stroke="#9a32cd" stroke-dasharray="5,2" d="M122.454,-64.6862C111.191,-50.0997 97.6298,-32.5369 89.1595,-21.5672"/>
<polygon fill="#9a32cd" stroke="#9a32cd" points="119.882,-67.0822 128.764,-72.8582 125.423,-62.804 119.882,-67.0822"/>
<text text-anchor="middle" x="124" y="-44.5" font-family="Helvetica,sans-Serif" font-size="10.00"> Hits</text>
</g>
<!-- Node4&#45;&gt;Node3 -->
<g id="edge6" class="edge"><title>Node4&#45;&gt;Node3</title>
<path fill="none" stroke="#9a32cd" stroke-dasharray="5,2" d="M142,-148.162C142,-135.363 142,-119.171 142,-107.124"/>
<polygon fill="#9a32cd" stroke="#9a32cd" points="138.5,-148.346 142,-158.346 145.5,-148.346 138.5,-148.346"/>
<text text-anchor="middle" x="163.5" y="-130.5" font-family="Helvetica,sans-Serif" font-size="10.00"> elements</text>
</g>
<!-- Node5 -->
<g id="node9" class="node"><title>Node5</title>
<polygon fill="white" stroke="#bfbfbf" points="117.5,-231 117.5,-265 246.5,-265 246.5,-231 117.5,-231"/>
<text text-anchor="start" x="125.5" y="-252" font-family="Helvetica,sans-Serif" font-size="10.00">std::vector&lt; ant::TCluster</text>
<text text-anchor="middle" x="182" y="-239" font-family="Helvetica,sans-Serif" font-size="10.00">HitDatum &gt;</text>
</g>
<!-- Node5&#45;&gt;Node4 -->
<g id="edge10" class="edge"><title>Node5&#45;&gt;Node4</title>
<path fill="none" stroke="#9a32cd" stroke-dasharray="5,2" d="M168.767,-221.865C161.466,-207.445 152.801,-190.332 147.35,-179.567"/>
<polygon fill="#9a32cd" stroke="#9a32cd" points="165.681,-223.518 173.321,-230.858 171.926,-220.356 165.681,-223.518"/>
<text text-anchor="middle" x="175.5" y="-202.5" font-family="Helvetica,sans-Serif" font-size="10.00"> Data</text>
</g>
<!-- Node6 -->
<g id="node11" class="node"><title>Node6</title>
<a xlink:href="structant_1_1_t_cluster_hit_datum.html" target="_top" xlink:title="ant::TClusterHitDatum">
<polygon fill="white" stroke="black" points="124,-316.5 124,-337.5 240,-337.5 240,-316.5 124,-316.5"/>
<text text-anchor="middle" x="182" y="-324.5" font-family="Helvetica,sans-Serif" font-size="10.00">ant::TClusterHitDatum</text>
</a>
</g>
<!-- Node6&#45;&gt;Node5 -->
<g id="edge12" class="edge"><title>Node6&#45;&gt;Node5</title>
<path fill="none" stroke="#9a32cd" stroke-dasharray="5,2" d="M182,-306.162C182,-293.363 182,-277.171 182,-265.124"/>
<polygon fill="#9a32cd" stroke="#9a32cd" points="178.5,-306.346 182,-316.346 185.5,-306.346 178.5,-306.346"/>
<text text-anchor="middle" x="203.5" y="-288.5" font-family="Helvetica,sans-Serif" font-size="10.00"> elements</text>
</g>
</g>
</svg>
