<?xml version="1.0" encoding="UTF-8" standalone="no"?>
<!DOCTYPE svg PUBLIC "-//W3C//DTD SVG 1.1//EN"
 "http://www.w3.org/Graphics/SVG/1.1/DTD/svg11.dtd">
<!-- Generated by graphviz version 2.26.3 (20100126.1600)
 -->
<!-- Title: ant::expconfig::detector::TAPSVeto_2014 Pages: 1 -->
<svg width="256pt" height="376pt"
 viewBox="0.00 0.00 256.00 376.00" xmlns="http://www.w3.org/2000/svg" xmlns:xlink="http://www.w3.org/1999/xlink">
<g id="graph1" class="graph" transform="scale(1 1) rotate(0) translate(4 372)">
<title>ant::expconfig::detector::TAPSVeto_2014</title>
<polygon fill="white" stroke="white" points="-4,5 -4,-372 253,-372 253,5 -4,5"/>
<!-- Node1 -->
<g id="node1" class="node"><title>Node1</title>
<polygon fill="#bfbfbf" stroke="black" points="57.5,-1 57.5,-35 176.5,-35 176.5,-1 57.5,-1"/>
<text text-anchor="start" x="65.5" y="-22" font-family="Helvetica,sans-Serif" font-size="10.00">ant::expconfig::detector</text>
<text text-anchor="middle" x="117" y="-9" font-family="Helvetica,sans-Serif" font-size="10.00">::TAPSVeto_2014</text>
</g>
<!-- Node2 -->
<g id="node2" class="node"><title>Node2</title>
<a xlink:href="structant_1_1expconfig_1_1detector_1_1_t_a_p_s_veto__2013.html" target="_top" xlink:title="ant::expconfig::detector\l::TAPSVeto_2013">
<polygon fill="white" stroke="black" points="57.5,-73 57.5,-107 176.5,-107 176.5,-73 57.5,-73"/>
<text text-anchor="start" x="65.5" y="-94" font-family="Helvetica,sans-Serif" font-size="10.00">ant::expconfig::detector</text>
<text text-anchor="middle" x="117" y="-81" font-family="Helvetica,sans-Serif" font-size="10.00">::TAPSVeto_2013</text>
</a>
</g>
<!-- Node2&#45;&gt;Node1 -->
<g id="edge2" class="edge"><title>Node2&#45;&gt;Node1</title>
<path fill="none" stroke="midnightblue" d="M117,-62.7193C117,-53.572 117,-43.6255 117,-35.4407"/>
<polygon fill="midnightblue" stroke="midnightblue" points="113.5,-62.937 117,-72.937 120.5,-62.937 113.5,-62.937"/>
</g>
<!-- Node3 -->
<g id="node4" class="node"><title>Node3</title>
<a xlink:href="structant_1_1expconfig_1_1detector_1_1_t_a_p_s_veto.html" target="_top" xlink:title="ant::expconfig::detector\l::TAPSVeto">
<polygon fill="white" stroke="black" points="57.5,-145 57.5,-179 176.5,-179 176.5,-145 57.5,-145"/>
<text text-anchor="start" x="65.5" y="-166" font-family="Helvetica,sans-Serif" font-size="10.00">ant::expconfig::detector</text>
<text text-anchor="middle" x="117" y="-153" font-family="Helvetica,sans-Serif" font-size="10.00">::TAPSVeto</text>
</a>
</g>
<!-- Node3&#45;&gt;Node2 -->
<g id="edge4" class="edge"><title>Node3&#45;&gt;Node2</title>
<path fill="none" stroke="midnightblue" d="M117,-134.719C117,-125.572 117,-115.625 117,-107.441"/>
<polygon fill="midnightblue" stroke="midnightblue" points="113.5,-134.937 117,-144.937 120.5,-134.937 113.5,-134.937"/>
</g>
<!-- Node4 -->
<g id="node6" class="node"><title>Node4</title>
<a xlink:href="structant_1_1_detector__t.html" target="_top" xlink:title="The Detector_t struct is the minimal base class for all detectors. ">
<polygon fill="white" stroke="black" points="14,-216.5 14,-237.5 96,-237.5 96,-216.5 14,-216.5"/>
<text text-anchor="middle" x="55" y="-224.5" font-family="Helvetica,sans-Serif" font-size="10.00">ant::Detector_t</text>
</a>
</g>
<!-- Node4&#45;&gt;Node3 -->
<g id="edge6" class="edge"><title>Node4&#45;&gt;Node3</title>
<path fill="none" stroke="midnightblue" d="M72.1814,-208.987C81.0861,-199.652 91.9035,-188.311 100.68,-179.11"/>
<polygon fill="midnightblue" stroke="midnightblue" points="69.6075,-206.615 65.238,-216.267 74.6728,-211.446 69.6075,-206.615"/>
</g>
<!-- Node5 -->
<g id="node8" class="node"><title>Node5</title>
<a xlink:href="classant_1_1printable__traits.html" target="_top" xlink:title="ant::printable_traits">
<polygon fill="white" stroke="black" points="0,-281.5 0,-302.5 100,-302.5 100,-281.5 0,-281.5"/>
<text text-anchor="middle" x="50" y="-289.5" font-family="Helvetica,sans-Serif" font-size="10.00">ant::printable_traits</text>
</a>
</g>
<!-- Node5&#45;&gt;Node4 -->
<g id="edge8" class="edge"><title>Node5&#45;&gt;Node4</title>
<path fill="none" stroke="midnightblue" d="M51.6143,-271.014C52.4746,-259.831 53.4955,-246.558 54.1897,-237.534"/>
<polygon fill="midnightblue" stroke="midnightblue" points="48.103,-271.028 50.8256,-281.267 55.0824,-271.564 48.103,-271.028"/>
</g>
<!-- Node6 -->
<g id="node10" class="node"><title>Node6</title>
<a xlink:href="classant_1_1_unpacker_acqu_config.html" target="_top" xlink:title="ant::UnpackerAcquConfig">
<polygon fill="white" stroke="black" points="115.5,-216.5 115.5,-237.5 244.5,-237.5 244.5,-216.5 115.5,-216.5"/>
<text text-anchor="middle" x="180" y="-224.5" font-family="Helvetica,sans-Serif" font-size="10.00">ant::UnpackerAcquConfig</text>
</a>
</g>
<!-- Node6&#45;&gt;Node3 -->
<g id="edge10" class="edge"><title>Node6&#45;&gt;Node3</title>
<path fill="none" stroke="midnightblue" d="M162.542,-208.987C153.493,-199.652 142.501,-188.311 133.583,-179.11"/>
<polygon fill="midnightblue" stroke="midnightblue" points="160.124,-211.522 169.597,-216.267 165.15,-206.65 160.124,-211.522"/>
</g>
<!-- Node7 -->
<g id="node12" class="node"><title>Node7</title>
<a xlink:href="classant_1_1_exp_config_1_1_unpacker.html" target="_top" xlink:title="ant::ExpConfig::Unpacker\l\&lt; UnpackerAcquConfig \&gt;">
<polygon fill="white" stroke="black" points="118,-275 118,-309 248,-309 248,-275 118,-275"/>
<text text-anchor="start" x="126" y="-296" font-family="Helvetica,sans-Serif" font-size="10.00">ant::ExpConfig::Unpacker</text>
<text text-anchor="middle" x="183" y="-283" font-family="Helvetica,sans-Serif" font-size="10.00">&lt; UnpackerAcquConfig &gt;</text>
</a>
</g>
<!-- Node7&#45;&gt;Node6 -->
<g id="edge12" class="edge"><title>Node7&#45;&gt;Node6</title>
<path fill="none" stroke="midnightblue" d="M181.739,-264.688C181.303,-255.242 180.84,-245.195 180.501,-237.852"/>
<polygon fill="midnightblue" stroke="midnightblue" points="178.254,-265.094 182.212,-274.922 185.247,-264.771 178.254,-265.094"/>
</g>
<!-- Node8 -->
<g id="node14" class="node"><title>Node8</title>
<a xlink:href="classant_1_1_exp_config_1_1_base.html" target="_top" xlink:title="ant::ExpConfig::Base">
<polygon fill="white" stroke="black" points="128,-346.5 128,-367.5 238,-367.5 238,-346.5 128,-346.5"/>
<text text-anchor="middle" x="183" y="-354.5" font-family="Helvetica,sans-Serif" font-size="10.00">ant::ExpConfig::Base</text>
</a>
</g>
<!-- Node8&#45;&gt;Node7 -->
<g id="edge14" class="edge"><title>Node8&#45;&gt;Node7</title>
<path fill="none" stroke="midnightblue" d="M183,-336.131C183,-327.405 183,-317.391 183,-309.11"/>
<polygon fill="midnightblue" stroke="midnightblue" points="179.5,-336.267 183,-346.267 186.5,-336.267 179.5,-336.267"/>
</g>
</g>
</svg>
