<?xml version="1.0" encoding="UTF-8" standalone="no"?>
<!DOCTYPE svg PUBLIC "-//W3C//DTD SVG 1.1//EN"
 "http://www.w3.org/Graphics/SVG/1.1/DTD/svg11.dtd">
<!-- Generated by graphviz version 2.26.3 (20100126.1600)
 -->
<!-- Title: ant::TDetectorReadHit Pages: 1 -->
<svg width="336pt" height="150pt"
 viewBox="0.00 0.00 336.00 150.00" xmlns="http://www.w3.org/2000/svg" xmlns:xlink="http://www.w3.org/1999/xlink">
<g id="graph1" class="graph" transform="scale(1 1) rotate(0) translate(4 146)">
<title>ant::TDetectorReadHit</title>
<polygon fill="white" stroke="white" points="-4,5 -4,-146 333,-146 333,5 -4,5"/>
<!-- Node1 -->
<g id="node1" class="node"><title>Node1</title>
<polygon fill="#bfbfbf" stroke="black" points="212,-60.5 212,-81.5 328,-81.5 328,-60.5 212,-60.5"/>
<text text-anchor="middle" x="270" y="-68.5" font-family="Helvetica,sans-Serif" font-size="10.00">ant::TDetectorReadHit</text>
</g>
<!-- Node2 -->
<g id="node2" class="node"><title>Node2</title>
<a xlink:href="classant_1_1printable__traits.html" target="_top" xlink:title="ant::printable_traits">
<polygon fill="white" stroke="black" points="15,-120.5 15,-141.5 115,-141.5 115,-120.5 15,-120.5"/>
<text text-anchor="middle" x="65" y="-128.5" font-family="Helvetica,sans-Serif" font-size="10.00">ant::printable_traits</text>
</a>
</g>
<!-- Node2&#45;&gt;Node1 -->
<g id="edge2" class="edge"><title>Node2&#45;&gt;Node1</title>
<path fill="none" stroke="midnightblue" d="M122.848,-118.083C145.225,-112.713 170.951,-106.081 194,-99 210.667,-93.8794 229.019,-87.15 243.513,-81.5718"/>
<polygon fill="midnightblue" stroke="midnightblue" points="121.747,-114.747 112.824,-120.458 123.361,-121.558 121.747,-114.747"/>
</g>
<!-- Node3 -->
<g id="node4" class="node"><title>Node3</title>
<polygon fill="white" stroke="#bfbfbf" points="15.5,-80.5 15.5,-101.5 114.5,-101.5 114.5,-80.5 15.5,-80.5"/>
<text text-anchor="middle" x="65" y="-88.5" font-family="Helvetica,sans-Serif" font-size="10.00">std::vector&lt; bool &gt;</text>
</g>
<!-- Node3&#45;&gt;Node1 -->
<g id="edge4" class="edge"><title>Node3&#45;&gt;Node1</title>
<path fill="none" stroke="#9a32cd" stroke-dasharray="5,2" d="M124.855,-85.1604C152.235,-82.4892 184.556,-79.336 211.739,-76.684"/>
<polygon fill="#9a32cd" stroke="#9a32cd" points="124.238,-81.704 114.625,-86.1586 124.917,-88.6709 124.238,-81.704"/>
<text text-anchor="middle" x="171" y="-86" font-family="Helvetica,sans-Serif" font-size="10.00"> ValueBits</text>
</g>
<!-- Node4 -->
<g id="node6" class="node"><title>Node4</title>
<polygon fill="white" stroke="#bfbfbf" points="10,-40.5 10,-61.5 120,-61.5 120,-40.5 10,-40.5"/>
<text text-anchor="middle" x="65" y="-48.5" font-family="Helvetica,sans-Serif" font-size="10.00">std::vector&lt; double &gt;</text>
</g>
<!-- Node4&#45;&gt;Node1 -->
<g id="edge6" class="edge"><title>Node4&#45;&gt;Node1</title>
<path fill="none" stroke="#9a32cd" stroke-dasharray="5,2" d="M130.429,-55.3902C150.814,-56.9411 173.359,-58.8435 194,-61 199.824,-61.6084 205.891,-62.3031 211.946,-63.0365"/>
<polygon fill="#9a32cd" stroke="#9a32cd" points="130.533,-51.8884 120.301,-54.6348 130.013,-58.869 130.533,-51.8884"/>
<text text-anchor="middle" x="171" y="-65" font-family="Helvetica,sans-Serif" font-size="10.00"> Values</text>
</g>
<!-- Node5 -->
<g id="node8" class="node"><title>Node5</title>
<polygon fill="white" stroke="#bfbfbf" points="0,-0.5 0,-21.5 130,-21.5 130,-0.5 0,-0.5"/>
<text text-anchor="middle" x="65" y="-8.5" font-family="Helvetica,sans-Serif" font-size="10.00">std::vector&lt; std::uint8_t &gt;</text>
</g>
<!-- Node5&#45;&gt;Node1 -->
<g id="edge8" class="edge"><title>Node5&#45;&gt;Node1</title>
<path fill="none" stroke="#9a32cd" stroke-dasharray="5,2" d="M131.217,-23.6744C151.547,-28.1553 173.862,-33.6774 194,-40 212.218,-45.7197 232.187,-53.9452 247.083,-60.4861"/>
<polygon fill="#9a32cd" stroke="#9a32cd" points="131.929,-20.2473 121.415,-21.5593 130.452,-27.0899 131.929,-20.2473"/>
<text text-anchor="middle" x="171" y="-44" font-family="Helvetica,sans-Serif" font-size="10.00"> RawData</text>
</g>
</g>
</svg>
