<?xml version="1.0" encoding="UTF-8" standalone="no"?>
<!DOCTYPE svg PUBLIC "-//W3C//DTD SVG 1.1//EN"
 "http://www.w3.org/Graphics/SVG/1.1/DTD/svg11.dtd">
<!-- Generated by graphviz version 2.26.3 (20100126.1600)
 -->
<!-- Title: ant::TSlowControl Pages: 1 -->
<svg width="870pt" height="227pt"
 viewBox="0.00 0.00 870.00 227.28" xmlns="http://www.w3.org/2000/svg" xmlns:xlink="http://www.w3.org/1999/xlink">
<g id="graph1" class="graph" transform="scale(1 1) rotate(0) translate(4 223.278)">
<title>ant::TSlowControl</title>
<polygon fill="white" stroke="white" points="-4,5 -4,-223.278 867,-223.278 867,5 -4,5"/>
<!-- Node1 -->
<g id="node1" class="node"><title>Node1</title>
<polygon fill="#bfbfbf" stroke="black" points="766.5,-88.4122 766.5,-109.412 861.5,-109.412 861.5,-88.4122 766.5,-88.4122"/>
<text text-anchor="middle" x="814" y="-96.4122" font-family="Helvetica,sans-Serif" font-size="10.00">ant::TSlowControl</text>
</g>
<!-- Node2 -->
<g id="node2" class="node"><title>Node2</title>
<a xlink:href="structant_1_1_t_data_record.html" target="_top" xlink:title="ant::TDataRecord">
<polygon fill="white" stroke="black" points="542.5,-186.412 542.5,-207.412 637.5,-207.412 637.5,-186.412 542.5,-186.412"/>
<text text-anchor="middle" x="590" y="-194.412" font-family="Helvetica,sans-Serif" font-size="10.00">ant::TDataRecord</text>
</a>
</g>
<!-- Node2&#45;&gt;Node1 -->
<g id="edge2" class="edge"><title>Node2&#45;&gt;Node1</title>
<path fill="none" stroke="midnightblue" d="M647.434,-184.357C678.285,-176.332 716.369,-164.319 748,-147.912 768.523,-137.267 789.501,-120.473 802.14,-109.574"/>
<polygon fill="midnightblue" stroke="midnightblue" points="646.524,-180.976 637.688,-186.822 648.241,-187.762 646.524,-180.976"/>
</g>
<!-- Node3 -->
<g id="node4" class="node"><title>Node3</title>
<a xlink:href="classant_1_1printable__traits.html" target="_top" xlink:title="ant::printable_traits">
<polygon fill="white" stroke="black" points="134,-136.412 134,-157.412 234,-157.412 234,-136.412 134,-136.412"/>
<text text-anchor="middle" x="184" y="-144.412" font-family="Helvetica,sans-Serif" font-size="10.00">ant::printable_traits</text>
</a>
</g>
<!-- Node3&#45;&gt;Node2 -->
<g id="edge4" class="edge"><title>Node3&#45;&gt;Node2</title>
<path fill="none" stroke="midnightblue" d="M206.927,-163.166C229.05,-177.801 264.088,-198.293 298,-206.912 381.942,-228.248 483.811,-216.674 542.349,-206.599"/>
<polygon fill="midnightblue" stroke="midnightblue" points="208.797,-160.206 198.555,-157.497 204.872,-166.002 208.797,-160.206"/>
</g>
<!-- Node4 -->
<g id="node6" class="node"><title>Node4</title>
<a xlink:href="structant_1_1_t_i_d.html" target="_top" xlink:title="ant::TID">
<polygon fill="white" stroke="black" points="337.5,-176.412 337.5,-197.412 390.5,-197.412 390.5,-176.412 337.5,-176.412"/>
<text text-anchor="middle" x="364" y="-184.412" font-family="Helvetica,sans-Serif" font-size="10.00">ant::TID</text>
</a>
</g>
<!-- Node3&#45;&gt;Node4 -->
<g id="edge8" class="edge"><title>Node3&#45;&gt;Node4</title>
<path fill="none" stroke="midnightblue" d="M241.068,-159.594C273.316,-166.76 312.106,-175.38 337.371,-180.995"/>
<polygon fill="midnightblue" stroke="midnightblue" points="241.814,-156.174 231.293,-157.422 240.295,-163.008 241.814,-156.174"/>
</g>
<!-- Node6 -->
<g id="node11" class="node"><title>Node6</title>
<a xlink:href="structant_1_1_t_key_value.html" target="_top" xlink:title="ant::TKeyValue\&lt; double \&gt;">
<polygon fill="white" stroke="black" points="298.5,-136.412 298.5,-157.412 429.5,-157.412 429.5,-136.412 298.5,-136.412"/>
<text text-anchor="middle" x="364" y="-144.412" font-family="Helvetica,sans-Serif" font-size="10.00">ant::TKeyValue&lt; double &gt;</text>
</a>
</g>
<!-- Node3&#45;&gt;Node6 -->
<g id="edge14" class="edge"><title>Node3&#45;&gt;Node6</title>
<path fill="none" stroke="midnightblue" d="M244.159,-146.912C261.542,-146.912 280.6,-146.912 298.302,-146.912"/>
<polygon fill="midnightblue" stroke="midnightblue" points="244.14,-143.412 234.14,-146.912 244.14,-150.412 244.14,-143.412"/>
</g>
<!-- Node8 -->
<g id="node16" class="node"><title>Node8</title>
<a xlink:href="structant_1_1_t_key_value.html" target="_top" xlink:title="ant::TKeyValue\&lt; std\l::int64_t \&gt;">
<polygon fill="white" stroke="black" points="310.5,-83.9122 310.5,-117.912 417.5,-117.912 417.5,-83.9122 310.5,-83.9122"/>
<text text-anchor="start" x="318.5" y="-104.912" font-family="Helvetica,sans-Serif" font-size="10.00">ant::TKeyValue&lt; std</text>
<text text-anchor="middle" x="364" y="-91.9122" font-family="Helvetica,sans-Serif" font-size="10.00">::int64_t &gt;</text>
</a>
</g>
<!-- Node3&#45;&gt;Node8 -->
<g id="edge20" class="edge"><title>Node3&#45;&gt;Node8</title>
<path fill="none" stroke="midnightblue" d="M235.071,-133.861C258.566,-127.857 286.444,-120.732 310.256,-114.647"/>
<polygon fill="midnightblue" stroke="midnightblue" points="234.118,-130.492 225.296,-136.359 235.851,-137.274 234.118,-130.492"/>
</g>
<!-- Node12 -->
<g id="node25" class="node"><title>Node12</title>
<a xlink:href="structant_1_1_t_key_value.html" target="_top" xlink:title="ant::TKeyValue\&lt; std\l::string \&gt;">
<polygon fill="white" stroke="black" points="310.5,-31.9122 310.5,-65.9122 417.5,-65.9122 417.5,-31.9122 310.5,-31.9122"/>
<text text-anchor="start" x="318.5" y="-52.9122" font-family="Helvetica,sans-Serif" font-size="10.00">ant::TKeyValue&lt; std</text>
<text text-anchor="middle" x="364" y="-39.9122" font-family="Helvetica,sans-Serif" font-size="10.00">::string &gt;</text>
</a>
</g>
<!-- Node3&#45;&gt;Node12 -->
<g id="edge30" class="edge"><title>Node3&#45;&gt;Node12</title>
<path fill="none" stroke="midnightblue" d="M207.194,-130.436C229.708,-114.889 265.192,-91.5481 298,-74.9122 304.151,-71.7931 310.769,-68.7945 317.356,-66.0129"/>
<polygon fill="midnightblue" stroke="midnightblue" points="205.153,-127.592 198.95,-136.181 209.156,-133.335 205.153,-127.592"/>
</g>
<!-- Node4&#45;&gt;Node2 -->
<g id="edge6" class="edge"><title>Node4&#45;&gt;Node2</title>
<path fill="none" stroke="#9a32cd" stroke-dasharray="5,2" d="M401.079,-188.553C439.66,-190.26 500.214,-192.939 542.328,-194.803"/>
<polygon fill="#9a32cd" stroke="#9a32cd" points="400.958,-185.044 390.813,-188.099 400.648,-192.037 400.958,-185.044"/>
<text text-anchor="middle" x="475" y="-195.912" font-family="Helvetica,sans-Serif" font-size="10.00"> ID</text>
</g>
<!-- Node5 -->
<g id="node9" class="node"><title>Node5</title>
<polygon fill="white" stroke="#bfbfbf" points="520,-133.912 520,-167.912 660,-167.912 660,-133.912 520,-133.912"/>
<text text-anchor="start" x="528" y="-154.912" font-family="Helvetica,sans-Serif" font-size="10.00">std::vector&lt; ant::TKeyValue</text>
<text text-anchor="middle" x="590" y="-141.912" font-family="Helvetica,sans-Serif" font-size="10.00">&lt; double &gt; &gt;</text>
</g>
<!-- Node5&#45;&gt;Node1 -->
<g id="edge10" class="edge"><title>Node5&#45;&gt;Node1</title>
<path fill="none" stroke="#9a32cd" stroke-dasharray="5,2" d="M669.937,-133.76C694.972,-128.239 722.673,-121.977 748,-115.912 756.4,-113.901 765.376,-111.654 773.917,-109.47"/>
<polygon fill="#9a32cd" stroke="#9a32cd" points="669.135,-130.352 660.12,-135.917 670.638,-137.189 669.135,-130.352"/>
<text text-anchor="middle" x="713" y="-134.912" font-family="Helvetica,sans-Serif" font-size="10.00"> Payload_Float</text>
</g>
<!-- Node6&#45;&gt;Node5 -->
<g id="edge12" class="edge"><title>Node6&#45;&gt;Node5</title>
<path fill="none" stroke="#9a32cd" stroke-dasharray="5,2" d="M439.799,-148.254C465.653,-148.711 494.432,-149.221 519.825,-149.67"/>
<polygon fill="#9a32cd" stroke="#9a32cd" points="439.733,-144.752 429.672,-148.075 439.609,-151.751 439.733,-144.752"/>
<text text-anchor="middle" x="475" y="-152.912" font-family="Helvetica,sans-Serif" font-size="10.00"> elements</text>
</g>
<!-- Node7 -->
<g id="node14" class="node"><title>Node7</title>
<polygon fill="white" stroke="#bfbfbf" points="520,-81.9122 520,-115.912 660,-115.912 660,-81.9122 520,-81.9122"/>
<text text-anchor="start" x="528" y="-102.912" font-family="Helvetica,sans-Serif" font-size="10.00">std::vector&lt; ant::TKeyValue</text>
<text text-anchor="middle" x="590" y="-89.9122" font-family="Helvetica,sans-Serif" font-size="10.00">&lt; std::int64_t &gt; &gt;</text>
</g>
<!-- Node7&#45;&gt;Node1 -->
<g id="edge16" class="edge"><title>Node7&#45;&gt;Node1</title>
<path fill="none" stroke="#9a32cd" stroke-dasharray="5,2" d="M670.534,-98.9122C702.627,-98.9122 738.471,-98.9122 766.304,-98.9122"/>
<polygon fill="#9a32cd" stroke="#9a32cd" points="670.26,-95.4123 660.26,-98.9122 670.26,-102.412 670.26,-95.4123"/>
<text text-anchor="middle" x="713" y="-102.912" font-family="Helvetica,sans-Serif" font-size="10.00"> Payload_Int</text>
</g>
<!-- Node8&#45;&gt;Node7 -->
<g id="edge18" class="edge"><title>Node8&#45;&gt;Node7</title>
<path fill="none" stroke="#9a32cd" stroke-dasharray="5,2" d="M427.854,-100.347C456.488,-100.094 490.352,-99.794 519.707,-99.5342"/>
<polygon fill="#9a32cd" stroke="#9a32cd" points="427.527,-96.8497 417.559,-100.438 427.589,-103.849 427.527,-96.8497"/>
<text text-anchor="middle" x="475" y="-103.912" font-family="Helvetica,sans-Serif" font-size="10.00"> elements</text>
</g>
<!-- Node9 -->
<g id="node19" class="node"><title>Node9</title>
<a xlink:title="STL class. ">
<polygon fill="white" stroke="#bfbfbf" points="154,-13.4122 154,-34.4122 214,-34.4122 214,-13.4122 154,-13.4122"/>
<text text-anchor="middle" x="184" y="-21.4122" font-family="Helvetica,sans-Serif" font-size="10.00">std::string</text>
</a>
</g>
<!-- Node9&#45;&gt;Node1 -->
<g id="edge22" class="edge"><title>Node9&#45;&gt;Node1</title>
<path fill="none" stroke="#9a32cd" stroke-dasharray="5,2" d="M224.058,-17.4133C306.839,-5.33723 502.224,16.1396 660,-20.9122 715.143,-33.8618 772.803,-70.2051 799.207,-88.3416"/>
<polygon fill="#9a32cd" stroke="#9a32cd" points="223.439,-13.9668 214.066,-18.9059 224.473,-20.89 223.439,-13.9668"/>
<text text-anchor="middle" x="475" y="-18.9122" font-family="Helvetica,sans-Serif" font-size="10.00"> Description</text>
<text text-anchor="middle" x="475" y="-5.91217" font-family="Helvetica,sans-Serif" font-size="10.00">Name</text>
</g>
<!-- Node9&#45;&gt;Node12 -->
<g id="edge32" class="edge"><title>Node9&#45;&gt;Node12</title>
<path fill="none" stroke="#9a32cd" stroke-dasharray="5,2" d="M224.165,-29.4906C249.6,-33.0233 282.791,-37.6331 310.453,-41.4751"/>
<polygon fill="#9a32cd" stroke="#9a32cd" points="224.514,-26.0057 214.128,-28.0966 223.551,-32.9391 224.514,-26.0057"/>
<text text-anchor="middle" x="266" y="-40.9122" font-family="Helvetica,sans-Serif" font-size="10.00"> Value</text>
</g>
<!-- Node10 -->
<g id="node21" class="node"><title>Node10</title>
<a xlink:title="STL class. ">
<polygon fill="white" stroke="#bfbfbf" points="0.5,-6.91217 0.5,-40.9122 95.5,-40.9122 95.5,-6.91217 0.5,-6.91217"/>
<text text-anchor="start" x="8.5" y="-27.9122" font-family="Helvetica,sans-Serif" font-size="10.00">std::basic_string&lt;</text>
<text text-anchor="middle" x="48" y="-14.9122" font-family="Helvetica,sans-Serif" font-size="10.00"> char &gt;</text>
</a>
</g>
<!-- Node10&#45;&gt;Node9 -->
<g id="edge24" class="edge"><title>Node10&#45;&gt;Node9</title>
<path fill="none" stroke="midnightblue" d="M105.698,-23.9122C122.2,-23.9122 139.53,-23.9122 153.68,-23.9122"/>
<polygon fill="midnightblue" stroke="midnightblue" points="105.566,-20.4123 95.5662,-23.9122 105.566,-27.4123 105.566,-20.4123"/>
</g>
<!-- Node11 -->
<g id="node23" class="node"><title>Node11</title>
<polygon fill="white" stroke="#bfbfbf" points="520,-29.9122 520,-63.9122 660,-63.9122 660,-29.9122 520,-29.9122"/>
<text text-anchor="start" x="528" y="-50.9122" font-family="Helvetica,sans-Serif" font-size="10.00">std::vector&lt; ant::TKeyValue</text>
<text text-anchor="middle" x="590" y="-37.9122" font-family="Helvetica,sans-Serif" font-size="10.00">&lt; std::string &gt; &gt;</text>
</g>
<!-- Node11&#45;&gt;Node1 -->
<g id="edge26" class="edge"><title>Node11&#45;&gt;Node1</title>
<path fill="none" stroke="#9a32cd" stroke-dasharray="5,2" d="M669.937,-64.0645C694.972,-69.5853 722.673,-75.847 748,-81.9122 756.4,-83.9238 765.376,-86.1705 773.917,-88.3546"/>
<polygon fill="#9a32cd" stroke="#9a32cd" points="670.638,-60.6351 660.12,-61.9074 669.135,-67.472 670.638,-60.6351"/>
<text text-anchor="middle" x="713" y="-85.9122" font-family="Helvetica,sans-Serif" font-size="10.00"> Payload_String</text>
</g>
<!-- Node12&#45;&gt;Node11 -->
<g id="edge28" class="edge"><title>Node12&#45;&gt;Node11</title>
<path fill="none" stroke="#9a32cd" stroke-dasharray="5,2" d="M427.854,-48.3471C456.488,-48.0937 490.352,-47.794 519.707,-47.5342"/>
<polygon fill="#9a32cd" stroke="#9a32cd" points="427.527,-44.8497 417.559,-48.4382 427.589,-51.8495 427.527,-44.8497"/>
<text text-anchor="middle" x="475" y="-51.9122" font-family="Helvetica,sans-Serif" font-size="10.00"> elements</text>
</g>
</g>
</svg>
