<?xml version="1.0" encoding="UTF-8" standalone="no"?>
<!DOCTYPE svg PUBLIC "-//W3C//DTD SVG 1.1//EN"
 "http://www.w3.org/Graphics/SVG/1.1/DTD/svg11.dtd">
<!-- Generated by graphviz version 2.26.3 (20100126.1600)
 -->
<!-- Title: ant::UnpackerAcquConfig::scaler_mapping_t::entry_t Pages: 1 -->
<svg width="802pt" height="96pt"
 viewBox="0.00 0.00 802.00 96.00" xmlns="http://www.w3.org/2000/svg" xmlns:xlink="http://www.w3.org/1999/xlink">
<g id="graph1" class="graph" transform="scale(1 1) rotate(0) translate(4 92)">
<title>ant::UnpackerAcquConfig::scaler_mapping_t::entry_t</title>
<polygon fill="white" stroke="white" points="-4,5 -4,-92 799,-92 799,5 -4,5"/>
<!-- Node1 -->
<g id="node1" class="node"><title>Node1</title>
<polygon fill="#bfbfbf" stroke="black" points="658.5,-16 658.5,-50 793.5,-50 793.5,-16 658.5,-16"/>
<text text-anchor="start" x="666.5" y="-37" font-family="Helvetica,sans-Serif" font-size="10.00">ant::UnpackerAcquConfig</text>
<text text-anchor="middle" x="726" y="-24" font-family="Helvetica,sans-Serif" font-size="10.00">::scaler_mapping_t::entry_t</text>
</g>
<!-- Node2 -->
<g id="node2" class="node"><title>Node2</title>
<a xlink:href="structant_1_1_unpacker_acqu_config_1_1mapping__t.html" target="_top" xlink:title="ant::UnpackerAcquConfig\l::mapping_t\&lt; std::uint32_t \&gt;">
<polygon fill="white" stroke="black" points="480,-16 480,-50 620,-50 620,-16 480,-16"/>
<text text-anchor="start" x="488" y="-37" font-family="Helvetica,sans-Serif" font-size="10.00">ant::UnpackerAcquConfig</text>
<text text-anchor="middle" x="550" y="-24" font-family="Helvetica,sans-Serif" font-size="10.00">::mapping_t&lt; std::uint32_t &gt;</text>
</a>
</g>
<!-- Node2&#45;&gt;Node1 -->
<g id="edge2" class="edge"><title>Node2&#45;&gt;Node1</title>
<path fill="none" stroke="midnightblue" d="M630.238,-33C639.674,-33 649.231,-33 658.469,-33"/>
<polygon fill="midnightblue" stroke="midnightblue" points="630.066,-29.5001 620.066,-33 630.066,-36.5001 630.066,-29.5001"/>
</g>
<!-- Node3 -->
<g id="node4" class="node"><title>Node3</title>
<polygon fill="white" stroke="#bfbfbf" points="240,-40.5 240,-87.5 374,-87.5 374,-40.5 240,-40.5"/>
<text text-anchor="start" x="248" y="-74.5" font-family="Helvetica,sans-Serif" font-size="10.00">std::vector&lt; ant::Unpacker</text>
<text text-anchor="start" x="248" y="-61.5" font-family="Helvetica,sans-Serif" font-size="10.00">AcquConfig::RawChannel</text>
<text text-anchor="middle" x="307" y="-48.5" font-family="Helvetica,sans-Serif" font-size="10.00">_t&lt; std::uint32_t &gt; &gt;</text>
</g>
<!-- Node3&#45;&gt;Node2 -->
<g id="edge4" class="edge"><title>Node3&#45;&gt;Node2</title>
<path fill="none" stroke="#9a32cd" stroke-dasharray="5,2" d="M384.254,-54.1446C414.891,-50.2361 449.876,-45.773 479.783,-41.9577"/>
<polygon fill="#9a32cd" stroke="#9a32cd" points="383.521,-50.7096 374.044,-55.4471 384.407,-57.6534 383.521,-50.7096"/>
<text text-anchor="middle" x="427" y="-58" font-family="Helvetica,sans-Serif" font-size="10.00"> RawChannels</text>
</g>
<!-- Node4 -->
<g id="node6" class="node"><title>Node4</title>
<a xlink:href="structant_1_1_unpacker_acqu_config_1_1_raw_channel__t.html" target="_top" xlink:title="ant::UnpackerAcquConfig\l::RawChannel_t\&lt; std::uint32_t \&gt;">
<polygon fill="white" stroke="black" points="0.5,-47 0.5,-81 159.5,-81 159.5,-47 0.5,-47"/>
<text text-anchor="start" x="8.5" y="-68" font-family="Helvetica,sans-Serif" font-size="10.00">ant::UnpackerAcquConfig</text>
<text text-anchor="middle" x="80" y="-55" font-family="Helvetica,sans-Serif" font-size="10.00">::RawChannel_t&lt; std::uint32_t &gt;</text>
</a>
</g>
<!-- Node4&#45;&gt;Node3 -->
<g id="edge6" class="edge"><title>Node4&#45;&gt;Node3</title>
<path fill="none" stroke="#9a32cd" stroke-dasharray="5,2" d="M169.958,-64C193.273,-64 217.973,-64 239.888,-64"/>
<polygon fill="#9a32cd" stroke="#9a32cd" points="169.713,-60.5001 159.713,-64 169.712,-67.5001 169.713,-60.5001"/>
<text text-anchor="middle" x="200" y="-68" font-family="Helvetica,sans-Serif" font-size="10.00"> elements</text>
</g>
<!-- Node5 -->
<g id="node8" class="node"><title>Node5</title>
<a xlink:href="structant_1_1_logical_channel__t.html" target="_top" xlink:title="The LogicalChannel_t struct uniquely identifies detector element within setup. ">
<polygon fill="white" stroke="black" points="251.5,-0.5 251.5,-21.5 362.5,-21.5 362.5,-0.5 251.5,-0.5"/>
<text text-anchor="middle" x="307" y="-8.5" font-family="Helvetica,sans-Serif" font-size="10.00">ant::LogicalChannel_t</text>
</a>
</g>
<!-- Node5&#45;&gt;Node2 -->
<g id="edge8" class="edge"><title>Node5&#45;&gt;Node2</title>
<path fill="none" stroke="#9a32cd" stroke-dasharray="5,2" d="M373.005,-13.5402C400.559,-14.9359 432.874,-17.009 462,-20 467.838,-20.5995 473.882,-21.3075 479.941,-22.0785"/>
<polygon fill="#9a32cd" stroke="#9a32cd" points="372.853,-10.0287 362.694,-13.0379 372.512,-17.0204 372.853,-10.0287"/>
<text text-anchor="middle" x="427" y="-24" font-family="Helvetica,sans-Serif" font-size="10.00"> LogicalChannel</text>
</g>
</g>
</svg>
