<?xml version="1.0" encoding="UTF-8" standalone="no"?>
<!DOCTYPE svg PUBLIC "-//W3C//DTD SVG 1.1//EN"
 "http://www.w3.org/Graphics/SVG/1.1/DTD/svg11.dtd">
<!-- Generated by graphviz version 2.26.3 (20100126.1600)
 -->
<!-- Title: ant::analysis::physics::ReconstructCheck::candidatesEvent_t Pages: 1 -->
<svg width="166pt" height="140pt"
 viewBox="0.00 0.00 166.00 140.00" xmlns="http://www.w3.org/2000/svg" xmlns:xlink="http://www.w3.org/1999/xlink">
<g id="graph1" class="graph" transform="scale(1 1) rotate(0) translate(4 136)">
<title>ant::analysis::physics::ReconstructCheck::candidatesEvent_t</title>
<polygon fill="white" stroke="white" points="-4,5 -4,-136 163,-136 163,5 -4,5"/>
<!-- Node1 -->
<g id="node1" class="node"><title>Node1</title>
<polygon fill="#bfbfbf" stroke="black" points="0,-0.5 0,-47.5 158,-47.5 158,-0.5 0,-0.5"/>
<text text-anchor="start" x="8" y="-34.5" font-family="Helvetica,sans-Serif" font-size="10.00">ant::analysis::physics</text>
<text text-anchor="start" x="8" y="-21.5" font-family="Helvetica,sans-Serif" font-size="10.00">::ReconstructCheck::candidates</text>
<text text-anchor="middle" x="79" y="-8.5" font-family="Helvetica,sans-Serif" font-size="10.00">Event_t</text>
</g>
<!-- Node2 -->
<g id="node2" class="node"><title>Node2</title>
<a xlink:href="structant_1_1analysis_1_1physics_1_1_reconstruct_check_1_1list__of__hists__t.html" target="_top" xlink:title="ant::analysis::physics\l::ReconstructCheck::list\l_of_hists_t">
<polygon fill="white" stroke="black" points="17.5,-84.5 17.5,-131.5 140.5,-131.5 140.5,-84.5 17.5,-84.5"/>
<text text-anchor="start" x="25.5" y="-118.5" font-family="Helvetica,sans-Serif" font-size="10.00">ant::analysis::physics</text>
<text text-anchor="start" x="25.5" y="-105.5" font-family="Helvetica,sans-Serif" font-size="10.00">::ReconstructCheck::list</text>
<text text-anchor="middle" x="79" y="-92.5" font-family="Helvetica,sans-Serif" font-size="10.00">_of_hists_t</text>
</a>
</g>
<!-- Node2&#45;&gt;Node1 -->
<g id="edge2" class="edge"><title>Node2&#45;&gt;Node1</title>
<path fill="none" stroke="midnightblue" d="M79,-74.0664C79,-65.1933 79,-55.821 79,-47.6152"/>
<polygon fill="midnightblue" stroke="midnightblue" points="75.5001,-74.1536 79,-84.1537 82.5001,-74.1537 75.5001,-74.1536"/>
</g>
</g>
</svg>
