<?xml version="1.0" encoding="UTF-8" standalone="no"?>
<!DOCTYPE svg PUBLIC "-//W3C//DTD SVG 1.1//EN"
 "http://www.w3.org/Graphics/SVG/1.1/DTD/svg11.dtd">
<!-- Generated by graphviz version 2.26.3 (20100126.1600)
 -->
<!-- Title: ant::calibration::PID_Energy::GUI_Pedestals Pages: 1 -->
<svg width="964pt" height="481pt"
 viewBox="0.00 0.00 964.00 481.00" xmlns="http://www.w3.org/2000/svg" xmlns:xlink="http://www.w3.org/1999/xlink">
<g id="graph1" class="graph" transform="scale(1 1) rotate(0) translate(4 477)">
<title>ant::calibration::PID_Energy::GUI_Pedestals</title>
<polygon fill="white" stroke="white" points="-4,5 -4,-477 961,-477 961,5 -4,5"/>
<!-- Node1 -->
<g id="node1" class="node"><title>Node1</title>
<polygon fill="#bfbfbf" stroke="black" points="830.5,-266 830.5,-300 955.5,-300 955.5,-266 830.5,-266"/>
<text text-anchor="start" x="838.5" y="-287" font-family="Helvetica,sans-Serif" font-size="10.00">ant::calibration::PID</text>
<text text-anchor="middle" x="893" y="-274" font-family="Helvetica,sans-Serif" font-size="10.00">_Energy::GUI_Pedestals</text>
</g>
<!-- Node2 -->
<g id="node2" class="node"><title>Node2</title>
<a xlink:href="structant_1_1calibration_1_1_energy_1_1_g_u_i___calib_type.html" target="_top" xlink:title="The GUI_CalibType struct is an abstract base class for handling the data storage for a provided Calib...">
<polygon fill="white" stroke="black" points="640.5,-339 640.5,-373 757.5,-373 757.5,-339 640.5,-339"/>
<text text-anchor="start" x="648.5" y="-360" font-family="Helvetica,sans-Serif" font-size="10.00">ant::calibration::Energy</text>
<text text-anchor="middle" x="699" y="-347" font-family="Helvetica,sans-Serif" font-size="10.00">::GUI_CalibType</text>
</a>
</g>
<!-- Node2&#45;&gt;Node1 -->
<g id="edge2" class="edge"><title>Node2&#45;&gt;Node1</title>
<path fill="none" stroke="midnightblue" d="M753.872,-335.352C783.552,-324.184 819.762,-310.559 847.801,-300.008"/>
<polygon fill="midnightblue" stroke="midnightblue" points="752.611,-332.087 744.484,-338.885 755.076,-338.639 752.611,-332.087"/>
</g>
<!-- Node3 -->
<g id="node4" class="node"><title>Node3</title>
<a xlink:href="classant_1_1calibration_1_1gui_1_1_manager__traits.html" target="_top" xlink:title="ant::calibration::gui\l::Manager_traits">
<polygon fill="white" stroke="black" points="410.5,-439 410.5,-473 509.5,-473 509.5,-439 410.5,-439"/>
<text text-anchor="start" x="418.5" y="-460" font-family="Helvetica,sans-Serif" font-size="10.00">ant::calibration::gui</text>
<text text-anchor="middle" x="460" y="-447" font-family="Helvetica,sans-Serif" font-size="10.00">::Manager_traits</text>
</a>
</g>
<!-- Node3&#45;&gt;Node2 -->
<g id="edge4" class="edge"><title>Node3&#45;&gt;Node2</title>
<path fill="none" stroke="midnightblue" d="M519.429,-438.285C550.579,-428.207 589.01,-414.511 622,-399 638.489,-391.248 656.286,-381.411 670.613,-373.103"/>
<polygon fill="midnightblue" stroke="midnightblue" points="518.049,-435.051 509.588,-441.427 520.179,-441.72 518.049,-435.051"/>
</g>
<!-- Node4 -->
<g id="node6" class="node"><title>Node4</title>
<a xlink:href="structant_1_1calibration_1_1_energy_1_1_calib_type.html" target="_top" xlink:title="The CalibType struct stores the data for the Updateable interface and for the GUI. ">
<polygon fill="white" stroke="black" points="401.5,-387 401.5,-421 518.5,-421 518.5,-387 401.5,-387"/>
<text text-anchor="start" x="409.5" y="-408" font-family="Helvetica,sans-Serif" font-size="10.00">ant::calibration::Energy</text>
<text text-anchor="middle" x="460" y="-395" font-family="Helvetica,sans-Serif" font-size="10.00">::CalibType</text>
</a>
</g>
<!-- Node4&#45;&gt;Node2 -->
<g id="edge6" class="edge"><title>Node4&#45;&gt;Node2</title>
<path fill="none" stroke="#9a32cd" stroke-dasharray="5,2" d="M528.997,-390.143C564.289,-383.055 606.781,-374.521 640.455,-367.758"/>
<polygon fill="#9a32cd" stroke="#9a32cd" points="527.887,-386.796 518.772,-392.196 529.266,-393.659 527.887,-386.796"/>
<text text-anchor="middle" x="591" y="-386" font-family="Helvetica,sans-Serif" font-size="10.00"> calibType</text>
</g>
<!-- Node5 -->
<g id="node8" class="node"><title>Node5</title>
<a xlink:title="STL class. ">
<polygon fill="white" stroke="#bfbfbf" points="213,-414.5 213,-435.5 273,-435.5 273,-414.5 213,-414.5"/>
<text text-anchor="middle" x="243" y="-422.5" font-family="Helvetica,sans-Serif" font-size="10.00">std::string</text>
</a>
</g>
<!-- Node5&#45;&gt;Node4 -->
<g id="edge8" class="edge"><title>Node5&#45;&gt;Node4</title>
<path fill="none" stroke="#9a32cd" stroke-dasharray="5,2" d="M283.388,-421.091C316.483,-417.889 363.771,-413.312 401.089,-409.701"/>
<polygon fill="#9a32cd" stroke="#9a32cd" points="282.789,-417.633 273.173,-422.08 283.464,-424.6 282.789,-417.633"/>
<text text-anchor="middle" x="338" y="-421" font-family="Helvetica,sans-Serif" font-size="10.00"> Name</text>
</g>
<!-- Node6 -->
<g id="node10" class="node"><title>Node6</title>
<a xlink:title="STL class. ">
<polygon fill="white" stroke="#bfbfbf" points="6.5,-408 6.5,-442 101.5,-442 101.5,-408 6.5,-408"/>
<text text-anchor="start" x="14.5" y="-429" font-family="Helvetica,sans-Serif" font-size="10.00">std::basic_string&lt;</text>
<text text-anchor="middle" x="54" y="-416" font-family="Helvetica,sans-Serif" font-size="10.00"> char &gt;</text>
</a>
</g>
<!-- Node6&#45;&gt;Node5 -->
<g id="edge10" class="edge"><title>Node6&#45;&gt;Node5</title>
<path fill="none" stroke="midnightblue" d="M111.781,-425C145.109,-425 185.651,-425 212.771,-425"/>
<polygon fill="midnightblue" stroke="midnightblue" points="111.693,-421.5 101.693,-425 111.693,-428.5 111.693,-421.5"/>
</g>
<!-- Node7 -->
<g id="node12" class="node"><title>Node7</title>
<polygon fill="white" stroke="#bfbfbf" points="188,-345.5 188,-366.5 298,-366.5 298,-345.5 188,-345.5"/>
<text text-anchor="middle" x="243" y="-353.5" font-family="Helvetica,sans-Serif" font-size="10.00">std::vector&lt; double &gt;</text>
</g>
<!-- Node7&#45;&gt;Node2 -->
<g id="edge18" class="edge"><title>Node7&#45;&gt;Node2</title>
<path fill="none" stroke="#9a32cd" stroke-dasharray="5,2" d="M308.225,-356C397.071,-356 554.823,-356 640.198,-356"/>
<polygon fill="#9a32cd" stroke="#9a32cd" points="308.004,-352.5 298.004,-356 308.004,-359.5 308.004,-352.5"/>
<text text-anchor="middle" x="460" y="-360" font-family="Helvetica,sans-Serif" font-size="10.00"> previousValues</text>
</g>
<!-- Node7&#45;&gt;Node4 -->
<g id="edge12" class="edge"><title>Node7&#45;&gt;Node4</title>
<path fill="none" stroke="#9a32cd" stroke-dasharray="5,2" d="M300.453,-368.708C331.574,-375.592 369.952,-384.082 401.269,-391.009"/>
<polygon fill="#9a32cd" stroke="#9a32cd" points="301.142,-365.276 290.622,-366.534 299.63,-372.111 301.142,-365.276"/>
<text text-anchor="middle" x="338" y="-385" font-family="Helvetica,sans-Serif" font-size="10.00"> Values</text>
</g>
<!-- Node8 -->
<g id="node14" class="node"><title>Node8</title>
<polygon fill="white" stroke="#bfbfbf" points="399,-286 399,-320 521,-320 521,-286 399,-286"/>
<text text-anchor="start" x="407" y="-307" font-family="Helvetica,sans-Serif" font-size="10.00">std::map&lt; unsigned,</text>
<text text-anchor="middle" x="460" y="-294" font-family="Helvetica,sans-Serif" font-size="10.00"> std::vector&lt; double &gt; &gt;</text>
</g>
<!-- Node7&#45;&gt;Node8 -->
<g id="edge16" class="edge"><title>Node7&#45;&gt;Node8</title>
<path fill="none" stroke="#9a32cd" stroke-dasharray="5,2" d="M277.913,-341.668C289.847,-337.151 303.371,-332.447 316,-329 342.836,-321.676 373.06,-315.86 398.865,-311.603"/>
<polygon fill="#9a32cd" stroke="#9a32cd" points="276.377,-338.51 268.317,-345.386 278.907,-345.037 276.377,-338.51"/>
<text text-anchor="middle" x="338" y="-333" font-family="Helvetica,sans-Serif" font-size="10.00"> elements</text>
</g>
<!-- Node8&#45;&gt;Node2 -->
<g id="edge14" class="edge"><title>Node8&#45;&gt;Node2</title>
<path fill="none" stroke="#9a32cd" stroke-dasharray="5,2" d="M531.544,-311.681C559.936,-315.852 592.736,-321.584 622,-329 632.711,-331.714 644.043,-335.281 654.624,-338.929"/>
<polygon fill="#9a32cd" stroke="#9a32cd" points="531.693,-308.167 521.298,-310.214 530.701,-315.096 531.693,-308.167"/>
<text text-anchor="middle" x="591" y="-333" font-family="Helvetica,sans-Serif" font-size="10.00"> fitParameters</text>
</g>
<!-- Node9 -->
<g id="node18" class="node"><title>Node9</title>
<a xlink:href="classant_1_1calibration_1_1gui_1_1_cal_canvas.html" target="_top" xlink:title="ant::calibration::gui\l::CalCanvas">
<polygon fill="white" stroke="black" points="649.5,-156 649.5,-190 748.5,-190 748.5,-156 649.5,-156"/>
<text text-anchor="start" x="657.5" y="-177" font-family="Helvetica,sans-Serif" font-size="10.00">ant::calibration::gui</text>
<text text-anchor="middle" x="699" y="-164" font-family="Helvetica,sans-Serif" font-size="10.00">::CalCanvas</text>
</a>
</g>
<!-- Node9&#45;&gt;Node1 -->
<g id="edge20" class="edge"><title>Node9&#45;&gt;Node1</title>
<path fill="none" stroke="#9a32cd" stroke-dasharray="5,2" d="M738.277,-195.27C775.108,-216.154 829.389,-246.932 862.9,-265.933"/>
<polygon fill="#9a32cd" stroke="#9a32cd" points="739.738,-192.075 729.312,-190.188 736.285,-198.165 739.738,-192.075"/>
<text text-anchor="middle" x="794" y="-238" font-family="Helvetica,sans-Serif" font-size="10.00"> canvas</text>
</g>
<!-- Node10 -->
<g id="node20" class="node"><title>Node10</title>
<polygon fill="white" stroke="#bfbfbf" points="432,-246.5 432,-267.5 488,-267.5 488,-246.5 432,-246.5"/>
<text text-anchor="middle" x="460" y="-254.5" font-family="Helvetica,sans-Serif" font-size="10.00">TCanvas</text>
</g>
<!-- Node10&#45;&gt;Node9 -->
<g id="edge22" class="edge"><title>Node10&#45;&gt;Node9</title>
<path fill="none" stroke="midnightblue" d="M498.458,-256.4C532.241,-254.648 582.087,-249.038 622,-232 645.079,-222.148 667.377,-203.778 681.985,-190.142"/>
<polygon fill="midnightblue" stroke="midnightblue" points="497.929,-252.919 488.087,-256.843 498.228,-259.913 497.929,-252.919"/>
</g>
<!-- Node11 -->
<g id="node22" class="node"><title>Node11</title>
<a xlink:href="classant_1_1calibration_1_1gui_1_1update__notify__traits.html" target="_top" xlink:title="ant::calibration::gui\l::update_notify_traits">
<polygon fill="white" stroke="black" points="0,-179 0,-213 108,-213 108,-179 0,-179"/>
<text text-anchor="start" x="8" y="-200" font-family="Helvetica,sans-Serif" font-size="10.00">ant::calibration::gui</text>
<text text-anchor="middle" x="54" y="-187" font-family="Helvetica,sans-Serif" font-size="10.00">::update_notify_traits</text>
</a>
</g>
<!-- Node11&#45;&gt;Node9 -->
<g id="edge24" class="edge"><title>Node11&#45;&gt;Node9</title>
<path fill="none" stroke="midnightblue" d="M118.356,-198.938C211.77,-202.626 390.346,-207.504 542,-199 577.724,-196.997 586.704,-195.865 622,-190 630.913,-188.519 640.348,-186.672 649.444,-184.745"/>
<polygon fill="midnightblue" stroke="midnightblue" points="118.348,-195.435 108.215,-198.529 118.066,-202.429 118.348,-195.435"/>
</g>
<!-- Node16 -->
<g id="node32" class="node"><title>Node16</title>
<a xlink:href="classant_1_1calibration_1_1gui_1_1_indicator.html" target="_top" xlink:title="ant::calibration::gui\l::Indicator">
<polygon fill="white" stroke="black" points="193.5,-156 193.5,-190 292.5,-190 292.5,-156 193.5,-156"/>
<text text-anchor="start" x="201.5" y="-177" font-family="Helvetica,sans-Serif" font-size="10.00">ant::calibration::gui</text>
<text text-anchor="middle" x="243" y="-164" font-family="Helvetica,sans-Serif" font-size="10.00">::Indicator</text>
</a>
</g>
<!-- Node11&#45;&gt;Node16 -->
<g id="edge36" class="edge"><title>Node11&#45;&gt;Node16</title>
<path fill="none" stroke="midnightblue" d="M118.123,-188.197C142.698,-185.206 170.341,-181.842 193.36,-179.041"/>
<polygon fill="midnightblue" stroke="midnightblue" points="117.664,-184.727 108.16,-189.409 118.509,-191.675 117.664,-184.727"/>
</g>
<!-- Node12 -->
<g id="node24" class="node"><title>Node12</title>
<polygon fill="white" stroke="#bfbfbf" points="378,-104 378,-138 542,-138 542,-104 378,-104"/>
<text text-anchor="start" x="386" y="-125" font-family="Helvetica,sans-Serif" font-size="10.00">std::stack&lt; ant::calibration</text>
<text text-anchor="middle" x="460" y="-112" font-family="Helvetica,sans-Serif" font-size="10.00">::gui::FitFunction::SavedState_t &gt;</text>
</g>
<!-- Node12&#45;&gt;Node9 -->
<g id="edge26" class="edge"><title>Node12&#45;&gt;Node9</title>
<path fill="none" stroke="#9a32cd" stroke-dasharray="5,2" d="M549.142,-140.184C572.828,-145.301 598.387,-150.843 622,-156 630.827,-157.928 640.221,-159.992 649.302,-161.993"/>
<polygon fill="#9a32cd" stroke="#9a32cd" points="549.631,-136.708 539.117,-138.018 548.153,-143.551 549.631,-136.708"/>
<text text-anchor="middle" x="591" y="-160" font-family="Helvetica,sans-Serif" font-size="10.00"> UndoStack</text>
</g>
<!-- Node13 -->
<g id="node26" class="node"><title>Node13</title>
<a xlink:title="STL class. ">
<polygon fill="white" stroke="#bfbfbf" points="199.5,-110.5 199.5,-131.5 286.5,-131.5 286.5,-110.5 199.5,-110.5"/>
<text text-anchor="middle" x="243" y="-118.5" font-family="Helvetica,sans-Serif" font-size="10.00">std::vector&lt; T &gt;</text>
</a>
</g>
<!-- Node13&#45;&gt;Node12 -->
<g id="edge28" class="edge"><title>Node13&#45;&gt;Node12</title>
<path fill="none" stroke="#9a32cd" stroke-dasharray="5,2" d="M296.795,-121C321.227,-121 350.671,-121 377.785,-121"/>
<polygon fill="#9a32cd" stroke="#9a32cd" points="296.652,-117.5 286.652,-121 296.652,-124.5 296.652,-117.5"/>
<text text-anchor="middle" x="338" y="-125" font-family="Helvetica,sans-Serif" font-size="10.00"> elements</text>
</g>
<!-- Node14 -->
<g id="node28" class="node"><title>Node14</title>
<polygon fill="white" stroke="#bfbfbf" points="39.5,-110.5 39.5,-131.5 68.5,-131.5 68.5,-110.5 39.5,-110.5"/>
<text text-anchor="middle" x="54" y="-118.5" font-family="Helvetica,sans-Serif" font-size="10.00">T</text>
</g>
<!-- Node14&#45;&gt;Node13 -->
<g id="edge30" class="edge"><title>Node14&#45;&gt;Node13</title>
<path fill="none" stroke="#9a32cd" stroke-dasharray="5,2" d="M78.7289,-121C109.344,-121 162.018,-121 199.462,-121"/>
<polygon fill="#9a32cd" stroke="#9a32cd" points="78.5167,-117.5 68.5167,-121 78.5167,-124.5 78.5167,-117.5"/>
<text text-anchor="middle" x="148" y="-125" font-family="Helvetica,sans-Serif" font-size="10.00"> elements</text>
</g>
<!-- Node15 -->
<g id="node30" class="node"><title>Node15</title>
<polygon fill="white" stroke="#bfbfbf" points="399,-156 399,-190 521,-190 521,-156 399,-156"/>
<text text-anchor="start" x="407" y="-177" font-family="Helvetica,sans-Serif" font-size="10.00">std::list&lt; ant::calibration</text>
<text text-anchor="middle" x="460" y="-164" font-family="Helvetica,sans-Serif" font-size="10.00">::gui::Indicator * &gt;</text>
</g>
<!-- Node15&#45;&gt;Node9 -->
<g id="edge32" class="edge"><title>Node15&#45;&gt;Node9</title>
<path fill="none" stroke="#9a32cd" stroke-dasharray="5,2" d="M531.707,-173C569.603,-173 615.177,-173 649.181,-173"/>
<polygon fill="#9a32cd" stroke="#9a32cd" points="531.238,-169.5 521.238,-173 531.238,-176.5 531.238,-169.5"/>
<text text-anchor="middle" x="591" y="-177" font-family="Helvetica,sans-Serif" font-size="10.00"> indicators</text>
</g>
<!-- Node16&#45;&gt;Node15 -->
<g id="edge34" class="edge"><title>Node16&#45;&gt;Node15</title>
<path fill="none" stroke="#9a32cd" stroke-dasharray="5,2" d="M302.785,-173C332.614,-173 368.642,-173 398.68,-173"/>
<polygon fill="#9a32cd" stroke="#9a32cd" points="302.512,-169.5 292.512,-173 302.512,-176.5 302.512,-169.5"/>
<text text-anchor="middle" x="338" y="-177" font-family="Helvetica,sans-Serif" font-size="10.00"> elements</text>
</g>
<!-- Node17 -->
<g id="node35" class="node"><title>Node17</title>
<a xlink:href="structant_1_1calibration_1_1gui_1_1_cal_canvas_1_1axis__settings__t.html" target="_top" xlink:title="ant::calibration::gui\l::CalCanvas::axis_settings_t">
<polygon fill="white" stroke="black" points="388.5,-52 388.5,-86 531.5,-86 531.5,-52 388.5,-52"/>
<text text-anchor="start" x="396.5" y="-73" font-family="Helvetica,sans-Serif" font-size="10.00">ant::calibration::gui</text>
<text text-anchor="middle" x="460" y="-60" font-family="Helvetica,sans-Serif" font-size="10.00">::CalCanvas::axis_settings_t</text>
</a>
</g>
<!-- Node17&#45;&gt;Node9 -->
<g id="edge38" class="edge"><title>Node17&#45;&gt;Node9</title>
<path fill="none" stroke="#9a32cd" stroke-dasharray="5,2" d="M528.877,-89.1649C558.236,-98.7909 592.46,-111.407 622,-126 639.833,-134.81 658.923,-146.446 673.633,-155.936"/>
<polygon fill="#9a32cd" stroke="#9a32cd" points="529.712,-85.7567 519.12,-86.0164 527.562,-92.4184 529.712,-85.7567"/>
<text text-anchor="middle" x="591" y="-130" font-family="Helvetica,sans-Serif" font-size="10.00"> axis_settings</text>
</g>
<!-- Node18 -->
<g id="node37" class="node"><title>Node18</title>
<a xlink:href="classant_1_1calibration_1_1gui_1_1_fit_function.html" target="_top" xlink:title="ant::calibration::gui\l::FitFunction">
<polygon fill="white" stroke="black" points="410.5,-0 410.5,-34 509.5,-34 509.5,-0 410.5,-0"/>
<text text-anchor="start" x="418.5" y="-21" font-family="Helvetica,sans-Serif" font-size="10.00">ant::calibration::gui</text>
<text text-anchor="middle" x="460" y="-8" font-family="Helvetica,sans-Serif" font-size="10.00">::FitFunction</text>
</a>
</g>
<!-- Node18&#45;&gt;Node9 -->
<g id="edge40" class="edge"><title>Node18&#45;&gt;Node9</title>
<path fill="none" stroke="#9a32cd" stroke-dasharray="5,2" d="M519.587,-32.9731C552.141,-43.7267 591.844,-60.325 622,-84 648.838,-105.07 673.428,-136.524 687.283,-155.848"/>
<polygon fill="#9a32cd" stroke="#9a32cd" points="520.324,-29.534 509.733,-29.822 518.192,-36.2014 520.324,-29.534"/>
<text text-anchor="middle" x="591" y="-88" font-family="Helvetica,sans-Serif" font-size="10.00"> func</text>
</g>
</g>
</svg>
