<?xml version="1.0" encoding="UTF-8" standalone="no"?>
<!DOCTYPE svg PUBLIC "-//W3C//DTD SVG 1.1//EN"
 "http://www.w3.org/Graphics/SVG/1.1/DTD/svg11.dtd">
<!-- Generated by graphviz version 2.26.3 (20100126.1600)
 -->
<!-- Title: ant::TDataRecord Pages: 1 -->
<svg width="400pt" height="190pt"
 viewBox="0.00 0.00 400.00 190.00" xmlns="http://www.w3.org/2000/svg" xmlns:xlink="http://www.w3.org/1999/xlink">
<g id="graph1" class="graph" transform="scale(1 1) rotate(0) translate(4 186)">
<title>ant::TDataRecord</title>
<polygon fill="white" stroke="white" points="-4,5 -4,-186 397,-186 397,5 -4,5"/>
<!-- Node1 -->
<g id="node1" class="node"><title>Node1</title>
<polygon fill="#bfbfbf" stroke="black" points="136.5,-80.5 136.5,-101.5 231.5,-101.5 231.5,-80.5 136.5,-80.5"/>
<text text-anchor="middle" x="184" y="-88.5" font-family="Helvetica,sans-Serif" font-size="10.00">ant::TDataRecord</text>
</g>
<!-- Node3 -->
<g id="node5" class="node"><title>Node3</title>
<a xlink:href="structant_1_1_t_detector_read.html" target="_top" xlink:title="ant::TDetectorRead">
<polygon fill="white" stroke="black" points="278.5,-160.5 278.5,-181.5 381.5,-181.5 381.5,-160.5 278.5,-160.5"/>
<text text-anchor="middle" x="330" y="-168.5" font-family="Helvetica,sans-Serif" font-size="10.00">ant::TDetectorRead</text>
</a>
</g>
<!-- Node1&#45;&gt;Node3 -->
<g id="edge4" class="edge"><title>Node1&#45;&gt;Node3</title>
<path fill="none" stroke="midnightblue" d="M204.095,-108.073C220.437,-121.264 244.551,-139.202 268,-151 275.173,-154.609 283.137,-157.755 290.9,-160.416"/>
<polygon fill="midnightblue" stroke="midnightblue" points="206.25,-105.313 196.303,-101.666 201.804,-110.72 206.25,-105.313"/>
</g>
<!-- Node4 -->
<g id="node7" class="node"><title>Node4</title>
<a xlink:href="structant_1_1_t_event.html" target="_top" xlink:title="ant::TEvent">
<polygon fill="white" stroke="black" points="296,-120.5 296,-141.5 364,-141.5 364,-120.5 296,-120.5"/>
<text text-anchor="middle" x="330" y="-128.5" font-family="Helvetica,sans-Serif" font-size="10.00">ant::TEvent</text>
</a>
</g>
<!-- Node1&#45;&gt;Node4 -->
<g id="edge6" class="edge"><title>Node1&#45;&gt;Node4</title>
<path fill="none" stroke="midnightblue" d="M232.013,-104.154C252.891,-109.874 276.868,-116.443 295.879,-121.652"/>
<polygon fill="midnightblue" stroke="midnightblue" points="232.929,-100.776 222.36,-101.51 231.08,-107.528 232.929,-100.776"/>
</g>
<!-- Node5 -->
<g id="node9" class="node"><title>Node5</title>
<a xlink:href="structant_1_1_t_header_info.html" target="_top" xlink:title="ant::THeaderInfo">
<polygon fill="white" stroke="black" points="285,-80.5 285,-101.5 375,-101.5 375,-80.5 285,-80.5"/>
<text text-anchor="middle" x="330" y="-88.5" font-family="Helvetica,sans-Serif" font-size="10.00">ant::THeaderInfo</text>
</a>
</g>
<!-- Node1&#45;&gt;Node5 -->
<g id="edge8" class="edge"><title>Node1&#45;&gt;Node5</title>
<path fill="none" stroke="midnightblue" d="M241.951,-91C256.12,-91 271.08,-91 284.568,-91"/>
<polygon fill="midnightblue" stroke="midnightblue" points="241.806,-87.5001 231.806,-91 241.806,-94.5001 241.806,-87.5001"/>
</g>
<!-- Node6 -->
<g id="node11" class="node"><title>Node6</title>
<a xlink:href="structant_1_1_t_slow_control.html" target="_top" xlink:title="ant::TSlowControl">
<polygon fill="white" stroke="black" points="282.5,-40.5 282.5,-61.5 377.5,-61.5 377.5,-40.5 282.5,-40.5"/>
<text text-anchor="middle" x="330" y="-48.5" font-family="Helvetica,sans-Serif" font-size="10.00">ant::TSlowControl</text>
</a>
</g>
<!-- Node1&#45;&gt;Node6 -->
<g id="edge10" class="edge"><title>Node1&#45;&gt;Node6</title>
<path fill="none" stroke="midnightblue" d="M232.186,-77.7985C251.498,-72.5073 273.441,-66.4955 291.643,-61.5087"/>
<polygon fill="midnightblue" stroke="midnightblue" points="231.08,-74.4724 222.36,-80.4905 232.929,-81.2237 231.08,-74.4724"/>
</g>
<!-- Node7 -->
<g id="node13" class="node"><title>Node7</title>
<a xlink:href="structant_1_1_t_unpacker_message.html" target="_top" xlink:title="ant::TUnpackerMessage">
<polygon fill="white" stroke="black" points="268,-0.5 268,-21.5 392,-21.5 392,-0.5 268,-0.5"/>
<text text-anchor="middle" x="330" y="-8.5" font-family="Helvetica,sans-Serif" font-size="10.00">ant::TUnpackerMessage</text>
</a>
</g>
<!-- Node1&#45;&gt;Node7 -->
<g id="edge12" class="edge"><title>Node1&#45;&gt;Node7</title>
<path fill="none" stroke="midnightblue" d="M204.095,-73.927C220.437,-60.7363 244.551,-42.7977 268,-31 275.173,-27.3909 283.137,-24.2453 290.9,-21.5838"/>
<polygon fill="midnightblue" stroke="midnightblue" points="201.804,-71.2797 196.303,-80.3343 206.25,-76.6867 201.804,-71.2797"/>
</g>
<!-- Node2 -->
<g id="node2" class="node"><title>Node2</title>
<a xlink:href="classant_1_1printable__traits.html" target="_top" xlink:title="ant::printable_traits">
<polygon fill="white" stroke="black" points="0,-80.5 0,-101.5 100,-101.5 100,-80.5 0,-80.5"/>
<text text-anchor="middle" x="50" y="-88.5" font-family="Helvetica,sans-Serif" font-size="10.00">ant::printable_traits</text>
</a>
</g>
<!-- Node2&#45;&gt;Node1 -->
<g id="edge2" class="edge"><title>Node2&#45;&gt;Node1</title>
<path fill="none" stroke="midnightblue" d="M110.317,-91C118.957,-91 127.746,-91 136.103,-91"/>
<polygon fill="midnightblue" stroke="midnightblue" points="110.278,-87.5001 100.278,-91 110.278,-94.5001 110.278,-87.5001"/>
</g>
</g>
</svg>
