<?xml version="1.0" encoding="UTF-8" standalone="no"?>
<!DOCTYPE svg PUBLIC "-//W3C//DTD SVG 1.1//EN"
 "http://www.w3.org/Graphics/SVG/1.1/DTD/svg11.dtd">
<!-- Generated by graphviz version 2.26.3 (20100126.1600)
 -->
<!-- Title: ant::UnpackerAcquConfig::mapping_t&lt; T &gt; Pages: 1 -->
<svg width="270pt" height="142pt"
 viewBox="0.00 0.00 270.00 142.00" xmlns="http://www.w3.org/2000/svg" xmlns:xlink="http://www.w3.org/1999/xlink">
<g id="graph1" class="graph" transform="scale(1 1) rotate(0) translate(4 138)">
<title>ant::UnpackerAcquConfig::mapping_t&lt; T &gt;</title>
<polygon fill="white" stroke="white" points="-4,5 -4,-138 267,-138 267,5 -4,5"/>
<!-- Node1 -->
<g id="node1" class="node"><title>Node1</title>
<polygon fill="#bfbfbf" stroke="black" points="72.5,-1 72.5,-35 201.5,-35 201.5,-1 72.5,-1"/>
<text text-anchor="start" x="80.5" y="-22" font-family="Helvetica,sans-Serif" font-size="10.00">ant::UnpackerAcquConfig</text>
<text text-anchor="middle" x="137" y="-9" font-family="Helvetica,sans-Serif" font-size="10.00">::mapping_t&lt; T &gt;</text>
</g>
<!-- Node2 -->
<g id="node2" class="node"><title>Node2</title>
<polygon fill="white" stroke="#bfbfbf" points="0,-86.5 0,-133.5 134,-133.5 134,-86.5 0,-86.5"/>
<text text-anchor="start" x="8" y="-120.5" font-family="Helvetica,sans-Serif" font-size="10.00">std::vector&lt; ant::Unpacker</text>
<text text-anchor="start" x="8" y="-107.5" font-family="Helvetica,sans-Serif" font-size="10.00">AcquConfig::RawChannel</text>
<text text-anchor="middle" x="67" y="-94.5" font-family="Helvetica,sans-Serif" font-size="10.00">_t&lt; T &gt; &gt;</text>
</g>
<!-- Node2&#45;&gt;Node1 -->
<g id="edge2" class="edge"><title>Node2&#45;&gt;Node1</title>
<path fill="none" stroke="#9a32cd" stroke-dasharray="5,2" d="M91.2619,-78.1129C102.22,-63.7109 114.733,-47.2653 123.898,-35.2202"/>
<polygon fill="#9a32cd" stroke="#9a32cd" points="88.2966,-76.2301 85.0267,-86.3077 93.8674,-80.4687 88.2966,-76.2301"/>
<text text-anchor="middle" x="141.5" y="-58.5" font-family="Helvetica,sans-Serif" font-size="10.00"> RawChannels</text>
</g>
<!-- Node3 -->
<g id="node4" class="node"><title>Node3</title>
<a xlink:href="structant_1_1_logical_channel__t.html" target="_top" xlink:title="The LogicalChannel_t struct uniquely identifies detector element within setup. ">
<polygon fill="white" stroke="black" points="151.5,-99.5 151.5,-120.5 262.5,-120.5 262.5,-99.5 151.5,-99.5"/>
<text text-anchor="middle" x="207" y="-107.5" font-family="Helvetica,sans-Serif" font-size="10.00">ant::LogicalChannel_t</text>
</a>
</g>
<!-- Node3&#45;&gt;Node1 -->
<g id="edge4" class="edge"><title>Node3&#45;&gt;Node1</title>
<path fill="none" stroke="#9a32cd" stroke-dasharray="5,2" d="M198.869,-90.038C193.784,-78.8382 186.576,-64.9581 178,-54 172.746,-47.2862 166.119,-40.8436 159.733,-35.3113"/>
<polygon fill="#9a32cd" stroke="#9a32cd" points="195.74,-91.6193 202.921,-99.4094 202.165,-88.8415 195.74,-91.6193"/>
<text text-anchor="middle" x="221" y="-58.5" font-family="Helvetica,sans-Serif" font-size="10.00"> LogicalChannel</text>
</g>
</g>
</svg>
