<?xml version="1.0" encoding="UTF-8" standalone="no"?>
<!DOCTYPE svg PUBLIC "-//W3C//DTD SVG 1.1//EN"
 "http://www.w3.org/Graphics/SVG/1.1/DTD/svg11.dtd">
<!-- Generated by graphviz version 2.26.3 (20100126.1600)
 -->
<!-- Title: ant::expconfig::detector::TAPS::BaF2_Element_t Pages: 1 -->
<svg width="278pt" height="264pt"
 viewBox="0.00 0.00 278.00 264.00" xmlns="http://www.w3.org/2000/svg" xmlns:xlink="http://www.w3.org/1999/xlink">
<g id="graph1" class="graph" transform="scale(1 1) rotate(0) translate(4 260)">
<title>ant::expconfig::detector::TAPS::BaF2_Element_t</title>
<polygon fill="white" stroke="white" points="-4,5 -4,-260 275,-260 275,5 -4,5"/>
<!-- Node1 -->
<g id="node1" class="node"><title>Node1</title>
<polygon fill="#bfbfbf" stroke="black" points="74,-1 74,-35 202,-35 202,-1 74,-1"/>
<text text-anchor="start" x="82" y="-22" font-family="Helvetica,sans-Serif" font-size="10.00">ant::expconfig::detector</text>
<text text-anchor="middle" x="138" y="-9" font-family="Helvetica,sans-Serif" font-size="10.00">::TAPS::BaF2_Element_t</text>
</g>
<!-- Node2 -->
<g id="node2" class="node"><title>Node2</title>
<a xlink:href="structant_1_1expconfig_1_1detector_1_1_t_a_p_s_1_1_t_a_p_s___element__t.html" target="_top" xlink:title="ant::expconfig::detector\l::TAPS::TAPS_Element_t">
<polygon fill="white" stroke="black" points="72.5,-75 72.5,-109 203.5,-109 203.5,-75 72.5,-75"/>
<text text-anchor="start" x="80.5" y="-96" font-family="Helvetica,sans-Serif" font-size="10.00">ant::expconfig::detector</text>
<text text-anchor="middle" x="138" y="-83" font-family="Helvetica,sans-Serif" font-size="10.00">::TAPS::TAPS_Element_t</text>
</a>
</g>
<!-- Node2&#45;&gt;Node1 -->
<g id="edge2" class="edge"><title>Node2&#45;&gt;Node1</title>
<path fill="none" stroke="midnightblue" d="M138,-64.6275C138,-54.7253 138,-43.8344 138,-35.07"/>
<polygon fill="midnightblue" stroke="midnightblue" points="134.5,-64.8369 138,-74.8369 141.5,-64.8369 134.5,-64.8369"/>
</g>
<!-- Node3 -->
<g id="node4" class="node"><title>Node3</title>
<a xlink:href="structant_1_1_cluster_detector__t_1_1_element__t.html" target="_top" xlink:title="ant::ClusterDetector\l_t::Element_t">
<polygon fill="white" stroke="black" points="85.5,-149 85.5,-183 190.5,-183 190.5,-149 85.5,-149"/>
<text text-anchor="start" x="93.5" y="-170" font-family="Helvetica,sans-Serif" font-size="10.00">ant::ClusterDetector</text>
<text text-anchor="middle" x="138" y="-157" font-family="Helvetica,sans-Serif" font-size="10.00">_t::Element_t</text>
</a>
</g>
<!-- Node3&#45;&gt;Node2 -->
<g id="edge4" class="edge"><title>Node3&#45;&gt;Node2</title>
<path fill="none" stroke="midnightblue" d="M138,-138.627C138,-128.725 138,-117.834 138,-109.07"/>
<polygon fill="midnightblue" stroke="midnightblue" points="134.5,-138.837 138,-148.837 141.5,-138.837 134.5,-138.837"/>
</g>
<!-- Node4 -->
<g id="node6" class="node"><title>Node4</title>
<a xlink:href="structant_1_1_detector__t_1_1_element__t.html" target="_top" xlink:title="ant::Detector_t::Element_t">
<polygon fill="white" stroke="black" points="0,-234.5 0,-255.5 132,-255.5 132,-234.5 0,-234.5"/>
<text text-anchor="middle" x="66" y="-242.5" font-family="Helvetica,sans-Serif" font-size="10.00">ant::Detector_t::Element_t</text>
</a>
</g>
<!-- Node4&#45;&gt;Node3 -->
<g id="edge6" class="edge"><title>Node4&#45;&gt;Node3</title>
<path fill="none" stroke="midnightblue" d="M82.5664,-226.823C94.5503,-213.674 110.637,-196.023 122.394,-183.124"/>
<polygon fill="midnightblue" stroke="midnightblue" points="79.8595,-224.597 75.7102,-234.346 85.0331,-229.312 79.8595,-224.597"/>
</g>
<!-- Node5 -->
<g id="node8" class="node"><title>Node5</title>
<polygon fill="white" stroke="#bfbfbf" points="150,-234.5 150,-255.5 270,-255.5 270,-234.5 150,-234.5"/>
<text text-anchor="middle" x="210" y="-242.5" font-family="Helvetica,sans-Serif" font-size="10.00">std::vector&lt; unsigned &gt;</text>
</g>
<!-- Node5&#45;&gt;Node3 -->
<g id="edge8" class="edge"><title>Node5&#45;&gt;Node3</title>
<path fill="none" stroke="#9a32cd" stroke-dasharray="5,2" d="M193.434,-226.823C181.45,-213.674 165.363,-196.023 153.606,-183.124"/>
<polygon fill="#9a32cd" stroke="#9a32cd" points="190.967,-229.312 200.29,-234.346 196.141,-224.597 190.967,-229.312"/>
<text text-anchor="middle" x="208.5" y="-206.5" font-family="Helvetica,sans-Serif" font-size="10.00"> Neighbours</text>
</g>
</g>
</svg>
