<?xml version="1.0" encoding="UTF-8" standalone="no"?>
<!DOCTYPE svg PUBLIC "-//W3C//DTD SVG 1.1//EN"
 "http://www.w3.org/Graphics/SVG/1.1/DTD/svg11.dtd">
<!-- Generated by graphviz version 2.26.3 (20100126.1600)
 -->
<!-- Title: ant::ReconstructTester Pages: 1 -->
<svg width="146pt" height="146pt"
 viewBox="0.00 0.00 146.00 146.00" xmlns="http://www.w3.org/2000/svg" xmlns:xlink="http://www.w3.org/1999/xlink">
<g id="graph1" class="graph" transform="scale(1 1) rotate(0) translate(4 142)">
<title>ant::ReconstructTester</title>
<polygon fill="white" stroke="white" points="-4,5 -4,-142 143,-142 143,5 -4,5"/>
<!-- Node1 -->
<g id="node1" class="node"><title>Node1</title>
<polygon fill="#bfbfbf" stroke="black" points="-0.5,-0.5 -0.5,-21.5 116.5,-21.5 116.5,-0.5 -0.5,-0.5"/>
<text text-anchor="middle" x="58" y="-8.5" font-family="Helvetica,sans-Serif" font-size="10.00">ant::ReconstructTester</text>
</g>
<!-- Node2 -->
<g id="node2" class="node"><title>Node2</title>
<a xlink:href="structant_1_1_reconstruct__traits.html" target="_top" xlink:title="ant::Reconstruct_traits">
<polygon fill="white" stroke="black" points="0,-116.5 0,-137.5 116,-137.5 116,-116.5 0,-116.5"/>
<text text-anchor="middle" x="58" y="-124.5" font-family="Helvetica,sans-Serif" font-size="10.00">ant::Reconstruct_traits</text>
</a>
</g>
<!-- Node2&#45;&gt;Node1 -->
<g id="edge2" class="edge"><title>Node2&#45;&gt;Node1</title>
<path fill="none" stroke="midnightblue" d="M49.0449,-107.034C45.8284,-98.8335 42.6012,-89.1344 41,-80 39.3118,-70.3691 39.3118,-67.6309 41,-58 43.2773,-45.0089 48.8434,-30.8754 52.9901,-21.536"/>
<polygon fill="midnightblue" stroke="midnightblue" points="45.9017,-108.59 52.9901,-116.464 52.3594,-105.888 45.9017,-108.59"/>
</g>
<!-- Node3 -->
<g id="node4" class="node"><title>Node3</title>
<a xlink:href="classant_1_1_reconstruct.html" target="_top" xlink:title="ant::Reconstruct">
<polygon fill="white" stroke="black" points="49.5,-58.5 49.5,-79.5 138.5,-79.5 138.5,-58.5 49.5,-58.5"/>
<text text-anchor="middle" x="94" y="-66.5" font-family="Helvetica,sans-Serif" font-size="10.00">ant::Reconstruct</text>
</a>
</g>
<!-- Node2&#45;&gt;Node3 -->
<g id="edge6" class="edge"><title>Node2&#45;&gt;Node3</title>
<path fill="none" stroke="midnightblue" d="M70,-107.667C75.817,-98.2948 82.5781,-87.4019 87.4389,-79.5707"/>
<polygon fill="midnightblue" stroke="midnightblue" points="66.9029,-106.02 64.603,-116.362 72.8504,-109.711 66.9029,-106.02"/>
</g>
<!-- Node3&#45;&gt;Node1 -->
<g id="edge4" class="edge"><title>Node3&#45;&gt;Node1</title>
<path fill="none" stroke="midnightblue" d="M82,-49.6667C76.183,-40.2948 69.4219,-29.4019 64.5611,-21.5707"/>
<polygon fill="midnightblue" stroke="midnightblue" points="79.1496,-51.7113 87.397,-58.3619 85.0971,-48.0197 79.1496,-51.7113"/>
</g>
</g>
</svg>
