<?xml version="1.0" encoding="UTF-8" standalone="no"?>
<!DOCTYPE svg PUBLIC "-//W3C//DTD SVG 1.1//EN"
 "http://www.w3.org/Graphics/SVG/1.1/DTD/svg11.dtd">
<!-- Generated by graphviz version 2.26.3 (20100126.1600)
 -->
<!-- Title: ant::TaggerDetector_t Pages: 1 -->
<svg width="152pt" height="276pt"
 viewBox="0.00 0.00 152.00 276.00" xmlns="http://www.w3.org/2000/svg" xmlns:xlink="http://www.w3.org/1999/xlink">
<g id="graph1" class="graph" transform="scale(1 1) rotate(0) translate(4 272)">
<title>ant::TaggerDetector_t</title>
<polygon fill="white" stroke="white" points="-4,5 -4,-272 149,-272 149,5 -4,5"/>
<!-- Node1 -->
<g id="node1" class="node"><title>Node1</title>
<polygon fill="#bfbfbf" stroke="black" points="16,-130.5 16,-151.5 128,-151.5 128,-130.5 16,-130.5"/>
<text text-anchor="middle" x="72" y="-138.5" font-family="Helvetica,sans-Serif" font-size="10.00">ant::TaggerDetector_t</text>
</g>
<!-- Node4 -->
<g id="node7" class="node"><title>Node4</title>
<a xlink:href="structant_1_1expconfig_1_1detector_1_1_e_p_t.html" target="_top" xlink:title="ant::expconfig::detector::EPT">
<polygon fill="white" stroke="black" points="-0.5,-72.5 -0.5,-93.5 144.5,-93.5 144.5,-72.5 -0.5,-72.5"/>
<text text-anchor="middle" x="72" y="-80.5" font-family="Helvetica,sans-Serif" font-size="10.00">ant::expconfig::detector::EPT</text>
</a>
</g>
<!-- Node1&#45;&gt;Node4 -->
<g id="edge6" class="edge"><title>Node1&#45;&gt;Node4</title>
<path fill="none" stroke="midnightblue" d="M72,-120.191C72,-111.168 72,-100.994 72,-93.5707"/>
<polygon fill="midnightblue" stroke="midnightblue" points="68.5001,-120.362 72,-130.362 75.5001,-120.362 68.5001,-120.362"/>
</g>
<!-- Node2 -->
<g id="node2" class="node"><title>Node2</title>
<a xlink:href="structant_1_1_detector__t.html" target="_top" xlink:title="The Detector_t struct is the minimal base class for all detectors. ">
<polygon fill="white" stroke="black" points="31,-188.5 31,-209.5 113,-209.5 113,-188.5 31,-188.5"/>
<text text-anchor="middle" x="72" y="-196.5" font-family="Helvetica,sans-Serif" font-size="10.00">ant::Detector_t</text>
</a>
</g>
<!-- Node2&#45;&gt;Node1 -->
<g id="edge2" class="edge"><title>Node2&#45;&gt;Node1</title>
<path fill="none" stroke="midnightblue" d="M72,-178.191C72,-169.168 72,-158.994 72,-151.571"/>
<polygon fill="midnightblue" stroke="midnightblue" points="68.5001,-178.362 72,-188.362 75.5001,-178.362 68.5001,-178.362"/>
</g>
<!-- Node3 -->
<g id="node4" class="node"><title>Node3</title>
<a xlink:href="classant_1_1printable__traits.html" target="_top" xlink:title="ant::printable_traits">
<polygon fill="white" stroke="black" points="22,-246.5 22,-267.5 122,-267.5 122,-246.5 22,-246.5"/>
<text text-anchor="middle" x="72" y="-254.5" font-family="Helvetica,sans-Serif" font-size="10.00">ant::printable_traits</text>
</a>
</g>
<!-- Node3&#45;&gt;Node2 -->
<g id="edge4" class="edge"><title>Node3&#45;&gt;Node2</title>
<path fill="none" stroke="midnightblue" d="M72,-236.191C72,-227.168 72,-216.994 72,-209.571"/>
<polygon fill="midnightblue" stroke="midnightblue" points="68.5001,-236.362 72,-246.362 75.5001,-236.362 68.5001,-236.362"/>
</g>
<!-- Node5 -->
<g id="node9" class="node"><title>Node5</title>
<a xlink:href="structant_1_1expconfig_1_1detector_1_1_e_p_t__2014.html" target="_top" xlink:title="ant::expconfig::detector\l::EPT_2014">
<polygon fill="white" stroke="black" points="12.5,-1 12.5,-35 131.5,-35 131.5,-1 12.5,-1"/>
<text text-anchor="start" x="20.5" y="-22" font-family="Helvetica,sans-Serif" font-size="10.00">ant::expconfig::detector</text>
<text text-anchor="middle" x="72" y="-9" font-family="Helvetica,sans-Serif" font-size="10.00">::EPT_2014</text>
</a>
</g>
<!-- Node4&#45;&gt;Node5 -->
<g id="edge8" class="edge"><title>Node4&#45;&gt;Node5</title>
<path fill="none" stroke="midnightblue" d="M72,-62.1306C72,-53.4049 72,-43.3908 72,-35.1099"/>
<polygon fill="midnightblue" stroke="midnightblue" points="68.5001,-62.2665 72,-72.2666 75.5001,-62.2666 68.5001,-62.2665"/>
</g>
</g>
</svg>
