<?xml version="1.0" encoding="UTF-8" standalone="no"?>
<!DOCTYPE svg PUBLIC "-//W3C//DTD SVG 1.1//EN"
 "http://www.w3.org/Graphics/SVG/1.1/DTD/svg11.dtd">
<!-- Generated by graphviz version 2.26.3 (20100126.1600)
 -->
<!-- Title: ant::ReconstructTester Pages: 1 -->
<svg width="158pt" height="162pt"
 viewBox="0.00 0.00 158.00 162.00" xmlns="http://www.w3.org/2000/svg" xmlns:xlink="http://www.w3.org/1999/xlink">
<g id="graph1" class="graph" transform="scale(1 1) rotate(0) translate(4 158)">
<title>ant::ReconstructTester</title>
<polygon fill="white" stroke="white" points="-4,5 -4,-158 155,-158 155,5 -4,5"/>
<!-- Node1 -->
<g id="node1" class="node"><title>Node1</title>
<polygon fill="#bfbfbf" stroke="black" points="14.5,-0.5 14.5,-21.5 131.5,-21.5 131.5,-0.5 14.5,-0.5"/>
<text text-anchor="middle" x="73" y="-8.5" font-family="Helvetica,sans-Serif" font-size="10.00">ant::ReconstructTester</text>
</g>
<!-- Node2 -->
<g id="node2" class="node"><title>Node2</title>
<a xlink:href="structant_1_1_reconstruct__traits.html" target="_top" xlink:title="ant::Reconstruct_traits">
<polygon fill="white" stroke="black" points="0,-132.5 0,-153.5 116,-153.5 116,-132.5 0,-132.5"/>
<text text-anchor="middle" x="58" y="-140.5" font-family="Helvetica,sans-Serif" font-size="10.00">ant::Reconstruct_traits</text>
</a>
</g>
<!-- Node2&#45;&gt;Node1 -->
<g id="edge2" class="edge"><title>Node2&#45;&gt;Node1</title>
<path fill="none" stroke="midnightblue" d="M55.3969,-122.12C54.4376,-113.438 53.4706,-103.247 53,-94 52.5031,-84.2349 51.4576,-81.6554 53,-72 55.9185,-53.731 63.4615,-33.5059 68.4044,-21.543"/>
<polygon fill="midnightblue" stroke="midnightblue" points="51.9293,-122.601 56.57,-132.126 58.8816,-121.786 51.9293,-122.601"/>
</g>
<!-- Node3 -->
<g id="node4" class="node"><title>Node3</title>
<a xlink:href="classant_1_1_reconstruct.html" target="_top" xlink:title="ant::Reconstruct">
<polygon fill="white" stroke="black" points="61.5,-72.5 61.5,-93.5 150.5,-93.5 150.5,-72.5 61.5,-72.5"/>
<text text-anchor="middle" x="106" y="-80.5" font-family="Helvetica,sans-Serif" font-size="10.00">ant::Reconstruct</text>
</a>
</g>
<!-- Node2&#45;&gt;Node3 -->
<g id="edge6" class="edge"><title>Node2&#45;&gt;Node3</title>
<path fill="none" stroke="midnightblue" d="M72.8945,-124.382C80.9816,-114.273 90.6882,-102.14 97.4929,-93.6339"/>
<polygon fill="midnightblue" stroke="midnightblue" points="70.0954,-122.278 66.5814,-132.273 75.5615,-126.651 70.0954,-122.278"/>
</g>
<!-- Node3&#45;&gt;Node1 -->
<g id="edge4" class="edge"><title>Node3&#45;&gt;Node1</title>
<path fill="none" stroke="midnightblue" d="M92.4717,-63.8922C90.4888,-60.6723 88.5843,-57.3018 87,-54 81.9054,-43.3825 77.9745,-30.4445 75.5927,-21.5506"/>
<polygon fill="midnightblue" stroke="midnightblue" points="89.6435,-65.9612 98.0676,-72.3866 95.4891,-62.1103 89.6435,-65.9612"/>
</g>
<!-- Node3&#45;&gt;Node1 -->
<g id="edge8" class="edge"><title>Node3&#45;&gt;Node1</title>
<path fill="none" stroke="#9a32cd" stroke-dasharray="5,2" d="M96.8455,-63.0266C90.7088,-49.6374 82.8688,-32.5318 77.8892,-21.6674"/>
<polygon fill="#9a32cd" stroke="#9a32cd" points="93.7824,-64.7438 101.131,-72.3762 100.146,-61.8272 93.7824,-64.7438"/>
<text text-anchor="middle" x="95.5" y="-44.5" font-family="Helvetica,sans-Serif" font-size="10.00"> r</text>
</g>
</g>
</svg>
