<?xml version="1.0" encoding="UTF-8" standalone="no"?>
<!DOCTYPE svg PUBLIC "-//W3C//DTD SVG 1.1//EN"
 "http://www.w3.org/Graphics/SVG/1.1/DTD/svg11.dtd">
<!-- Generated by graphviz version 2.26.3 (20100126.1600)
 -->
<!-- Title: ant::expconfig::detector::CB Pages: 1 -->
<svg width="946pt" height="185pt"
 viewBox="0.00 0.00 946.00 185.00" xmlns="http://www.w3.org/2000/svg" xmlns:xlink="http://www.w3.org/1999/xlink">
<g id="graph1" class="graph" transform="scale(1 1) rotate(0) translate(4 181)">
<title>ant::expconfig::detector::CB</title>
<polygon fill="white" stroke="white" points="-4,5 -4,-181 943,-181 943,5 -4,5"/>
<!-- Node1 -->
<g id="node1" class="node"><title>Node1</title>
<polygon fill="#bfbfbf" stroke="black" points="798,-77.5 798,-98.5 938,-98.5 938,-77.5 798,-77.5"/>
<text text-anchor="middle" x="868" y="-85.5" font-family="Helvetica,sans-Serif" font-size="10.00">ant::expconfig::detector::CB</text>
</g>
<!-- Node2 -->
<g id="node2" class="node"><title>Node2</title>
<a xlink:href="structant_1_1_cluster_detector__t.html" target="_top" xlink:title="ant::ClusterDetector_t">
<polygon fill="white" stroke="black" points="592.5,-145.5 592.5,-166.5 705.5,-166.5 705.5,-145.5 592.5,-145.5"/>
<text text-anchor="middle" x="649" y="-153.5" font-family="Helvetica,sans-Serif" font-size="10.00">ant::ClusterDetector_t</text>
</a>
</g>
<!-- Node2&#45;&gt;Node1 -->
<g id="edge2" class="edge"><title>Node2&#45;&gt;Node1</title>
<path fill="none" stroke="midnightblue" d="M692.811,-142.397C734.396,-129.484 796.032,-110.346 834.022,-98.5504"/>
<polygon fill="midnightblue" stroke="midnightblue" points="691.731,-139.067 683.219,-145.375 693.807,-145.752 691.731,-139.067"/>
</g>
<!-- Node3 -->
<g id="node4" class="node"><title>Node3</title>
<a xlink:href="structant_1_1_detector__t.html" target="_top" xlink:title="The Detector_t struct is the minimal base class for all detectors. ">
<polygon fill="white" stroke="black" points="394,-155.5 394,-176.5 476,-176.5 476,-155.5 394,-155.5"/>
<text text-anchor="middle" x="435" y="-163.5" font-family="Helvetica,sans-Serif" font-size="10.00">ant::Detector_t</text>
</a>
</g>
<!-- Node3&#45;&gt;Node2 -->
<g id="edge4" class="edge"><title>Node3&#45;&gt;Node2</title>
<path fill="none" stroke="midnightblue" d="M486.05,-163.614C518.055,-162.119 559.352,-160.189 592.363,-158.647"/>
<polygon fill="midnightblue" stroke="midnightblue" points="485.834,-160.121 476.008,-164.084 486.161,-167.113 485.834,-160.121"/>
</g>
<!-- Node4 -->
<g id="node6" class="node"><title>Node4</title>
<a xlink:href="classant_1_1printable__traits.html" target="_top" xlink:title="ant::printable_traits">
<polygon fill="white" stroke="black" points="227,-155.5 227,-176.5 327,-176.5 327,-155.5 227,-155.5"/>
<text text-anchor="middle" x="277" y="-163.5" font-family="Helvetica,sans-Serif" font-size="10.00">ant::printable_traits</text>
</a>
</g>
<!-- Node4&#45;&gt;Node3 -->
<g id="edge6" class="edge"><title>Node4&#45;&gt;Node3</title>
<path fill="none" stroke="midnightblue" d="M337.668,-166C356.424,-166 376.639,-166 393.761,-166"/>
<polygon fill="midnightblue" stroke="midnightblue" points="337.427,-162.5 327.427,-166 337.427,-169.5 337.427,-162.5"/>
</g>
<!-- Node5 -->
<g id="node8" class="node"><title>Node5</title>
<a xlink:href="classant_1_1_unpacker_acqu_config.html" target="_top" xlink:title="ant::UnpackerAcquConfig">
<polygon fill="white" stroke="black" points="584.5,-102.5 584.5,-123.5 713.5,-123.5 713.5,-102.5 584.5,-102.5"/>
<text text-anchor="middle" x="649" y="-110.5" font-family="Helvetica,sans-Serif" font-size="10.00">ant::UnpackerAcquConfig</text>
</a>
</g>
<!-- Node5&#45;&gt;Node1 -->
<g id="edge8" class="edge"><title>Node5&#45;&gt;Node1</title>
<path fill="none" stroke="midnightblue" d="M723.643,-104.479C747.648,-101.739 774.149,-98.7136 797.822,-96.0112"/>
<polygon fill="midnightblue" stroke="midnightblue" points="723.061,-101.023 713.523,-105.634 723.855,-107.978 723.061,-101.023"/>
</g>
<!-- Node6 -->
<g id="node10" class="node"><title>Node6</title>
<a xlink:href="classant_1_1_exp_config_1_1_unpacker.html" target="_top" xlink:title="ant::ExpConfig::Unpacker\l\&lt; UnpackerAcquConfig \&gt;">
<polygon fill="white" stroke="black" points="370,-103 370,-137 500,-137 500,-103 370,-103"/>
<text text-anchor="start" x="378" y="-124" font-family="Helvetica,sans-Serif" font-size="10.00">ant::ExpConfig::Unpacker</text>
<text text-anchor="middle" x="435" y="-111" font-family="Helvetica,sans-Serif" font-size="10.00">&lt; UnpackerAcquConfig &gt;</text>
</a>
</g>
<!-- Node6&#45;&gt;Node5 -->
<g id="edge10" class="edge"><title>Node6&#45;&gt;Node5</title>
<path fill="none" stroke="midnightblue" d="M510.263,-117.538C534.402,-116.749 560.91,-115.881 584.231,-115.119"/>
<polygon fill="midnightblue" stroke="midnightblue" points="509.959,-114.046 500.079,-117.871 510.188,-121.042 509.959,-114.046"/>
</g>
<!-- Node7 -->
<g id="node12" class="node"><title>Node7</title>
<a xlink:href="classant_1_1_exp_config_1_1_base.html" target="_top" xlink:title="ant::ExpConfig::Base">
<polygon fill="white" stroke="black" points="222,-109.5 222,-130.5 332,-130.5 332,-109.5 222,-109.5"/>
<text text-anchor="middle" x="277" y="-117.5" font-family="Helvetica,sans-Serif" font-size="10.00">ant::ExpConfig::Base</text>
</a>
</g>
<!-- Node7&#45;&gt;Node6 -->
<g id="edge12" class="edge"><title>Node7&#45;&gt;Node6</title>
<path fill="none" stroke="midnightblue" d="M342.346,-120C351.395,-120 360.69,-120 369.738,-120"/>
<polygon fill="midnightblue" stroke="midnightblue" points="342.261,-116.5 332.261,-120 342.261,-123.5 342.261,-116.5"/>
</g>
<!-- Node8 -->
<g id="node14" class="node"><title>Node8</title>
<polygon fill="white" stroke="#bfbfbf" points="6,-50.5 6,-71.5 126,-71.5 126,-50.5 6,-50.5"/>
<text text-anchor="middle" x="66" y="-58.5" font-family="Helvetica,sans-Serif" font-size="10.00">std::vector&lt; unsigned &gt;</text>
</g>
<!-- Node8&#45;&gt;Node1 -->
<g id="edge14" class="edge"><title>Node8&#45;&gt;Node1</title>
<path fill="none" stroke="#9a32cd" stroke-dasharray="5,2" d="M136.594,-66.5206C177.561,-69.2637 230.165,-72 277,-72 277,-72 277,-72 649,-72 698.749,-72 754.687,-76.1578 797.576,-80.2343"/>
<polygon fill="#9a32cd" stroke="#9a32cd" points="136.655,-63.0168 126.439,-65.8248 136.177,-70.0004 136.655,-63.0168"/>
<text text-anchor="middle" x="435" y="-76" font-family="Helvetica,sans-Serif" font-size="10.00"> ignoredChannels</text>
</g>
<!-- Node11 -->
<g id="node20" class="node"><title>Node11</title>
<a xlink:href="structant_1_1_cluster_detector__t_1_1_element__t.html" target="_top" xlink:title="ant::ClusterDetector\l_t::Element_t">
<polygon fill="white" stroke="black" points="224.5,-2 224.5,-36 329.5,-36 329.5,-2 224.5,-2"/>
<text text-anchor="start" x="232.5" y="-23" font-family="Helvetica,sans-Serif" font-size="10.00">ant::ClusterDetector</text>
<text text-anchor="middle" x="277" y="-10" font-family="Helvetica,sans-Serif" font-size="10.00">_t::Element_t</text>
</a>
</g>
<!-- Node8&#45;&gt;Node11 -->
<g id="edge24" class="edge"><title>Node8&#45;&gt;Node11</title>
<path fill="none" stroke="#9a32cd" stroke-dasharray="5,2" d="M129.044,-48.4509C159.438,-42.401 195.474,-35.2279 224.372,-29.4757"/>
<polygon fill="#9a32cd" stroke="#9a32cd" points="128.096,-45.0709 118.972,-50.4558 129.463,-51.9362 128.096,-45.0709"/>
<text text-anchor="middle" x="177" y="-47" font-family="Helvetica,sans-Serif" font-size="10.00"> Neighbours</text>
</g>
<!-- Node9 -->
<g id="node16" class="node"><title>Node9</title>
<polygon fill="white" stroke="#bfbfbf" points="580.5,-8 580.5,-42 717.5,-42 717.5,-8 580.5,-8"/>
<text text-anchor="start" x="588.5" y="-29" font-family="Helvetica,sans-Serif" font-size="10.00">std::vector&lt; ant::expconfig</text>
<text text-anchor="middle" x="649" y="-16" font-family="Helvetica,sans-Serif" font-size="10.00">::detector::CB::Element_t &gt;</text>
</g>
<!-- Node9&#45;&gt;Node1 -->
<g id="edge16" class="edge"><title>Node9&#45;&gt;Node1</title>
<path fill="none" stroke="#9a32cd" stroke-dasharray="5,2" d="M727.707,-33.0599C745.154,-35.9359 763.388,-39.8065 780,-45 805.643,-53.0168 833.154,-67.5174 850.459,-77.4447"/>
<polygon fill="#9a32cd" stroke="#9a32cd" points="727.963,-29.5577 717.544,-31.479 726.887,-36.4745 727.963,-29.5577"/>
<text text-anchor="middle" x="758" y="-49" font-family="Helvetica,sans-Serif" font-size="10.00"> elements</text>
</g>
<!-- Node10 -->
<g id="node18" class="node"><title>Node10</title>
<a xlink:href="structant_1_1expconfig_1_1detector_1_1_c_b_1_1_element__t.html" target="_top" xlink:title="ant::expconfig::detector\l::CB::Element_t">
<polygon fill="white" stroke="black" points="375.5,-2 375.5,-36 494.5,-36 494.5,-2 375.5,-2"/>
<text text-anchor="start" x="383.5" y="-23" font-family="Helvetica,sans-Serif" font-size="10.00">ant::expconfig::detector</text>
<text text-anchor="middle" x="435" y="-10" font-family="Helvetica,sans-Serif" font-size="10.00">::CB::Element_t</text>
</a>
</g>
<!-- Node10&#45;&gt;Node9 -->
<g id="edge18" class="edge"><title>Node10&#45;&gt;Node9</title>
<path fill="none" stroke="#9a32cd" stroke-dasharray="5,2" d="M504.794,-20.9568C529.01,-21.6358 556.131,-22.3962 580.261,-23.0727"/>
<polygon fill="#9a32cd" stroke="#9a32cd" points="504.705,-17.4531 494.611,-20.6713 504.509,-24.4503 504.705,-17.4531"/>
<text text-anchor="middle" x="540" y="-26" font-family="Helvetica,sans-Serif" font-size="10.00"> elements</text>
</g>
<!-- Node11&#45;&gt;Node10 -->
<g id="edge20" class="edge"><title>Node11&#45;&gt;Node10</title>
<path fill="none" stroke="midnightblue" d="M339.74,-19C351.442,-19 363.642,-19 375.251,-19"/>
<polygon fill="midnightblue" stroke="midnightblue" points="339.612,-15.5001 329.612,-19 339.612,-22.5001 339.612,-15.5001"/>
</g>
<!-- Node12 -->
<g id="node22" class="node"><title>Node12</title>
<a xlink:href="structant_1_1_detector__t_1_1_element__t.html" target="_top" xlink:title="ant::Detector_t::Element_t">
<polygon fill="white" stroke="black" points="0,-0.5 0,-21.5 132,-21.5 132,-0.5 0,-0.5"/>
<text text-anchor="middle" x="66" y="-8.5" font-family="Helvetica,sans-Serif" font-size="10.00">ant::Detector_t::Element_t</text>
</a>
</g>
<!-- Node12&#45;&gt;Node11 -->
<g id="edge22" class="edge"><title>Node12&#45;&gt;Node11</title>
<path fill="none" stroke="midnightblue" d="M142.457,-13.8988C169.666,-14.9305 199.669,-16.068 224.425,-17.0066"/>
<polygon fill="midnightblue" stroke="midnightblue" points="142.308,-10.3908 132.183,-13.5093 142.043,-17.3858 142.308,-10.3908"/>
</g>
</g>
</svg>
