<?xml version="1.0" encoding="UTF-8" standalone="no"?>
<!DOCTYPE svg PUBLIC "-//W3C//DTD SVG 1.1//EN"
 "http://www.w3.org/Graphics/SVG/1.1/DTD/svg11.dtd">
<!-- Generated by graphviz version 2.26.3 (20100126.1600)
 -->
<!-- Title: ant::simulation::mc::ParticleData Pages: 1 -->
<svg width="118pt" height="128pt"
 viewBox="0.00 0.00 118.00 128.00" xmlns="http://www.w3.org/2000/svg" xmlns:xlink="http://www.w3.org/1999/xlink">
<g id="graph1" class="graph" transform="scale(1 1) rotate(0) translate(4 124)">
<title>ant::simulation::mc::ParticleData</title>
<polygon fill="white" stroke="white" points="-4,5 -4,-124 115,-124 115,5 -4,5"/>
<!-- Node1 -->
<g id="node1" class="node"><title>Node1</title>
<polygon fill="#bfbfbf" stroke="black" points="5,-1 5,-35 105,-35 105,-1 5,-1"/>
<text text-anchor="start" x="13" y="-22" font-family="Helvetica,sans-Serif" font-size="10.00">ant::simulation::mc</text>
<text text-anchor="middle" x="55" y="-9" font-family="Helvetica,sans-Serif" font-size="10.00">::ParticleData</text>
</g>
<!-- Node2 -->
<g id="node2" class="node"><title>Node2</title>
<polygon fill="white" stroke="#bfbfbf" points="0,-98.5 0,-119.5 110,-119.5 110,-98.5 0,-98.5"/>
<text text-anchor="middle" x="55" y="-106.5" font-family="Helvetica,sans-Serif" font-size="10.00">std::vector&lt; double &gt;</text>
</g>
<!-- Node2&#45;&gt;Node1 -->
<g id="edge2" class="edge"><title>Node2&#45;&gt;Node1</title>
<path fill="none" stroke="#9a32cd" stroke-dasharray="5,2" d="M55,-87.7551C55,-71.7995 55,-50.2207 55,-35.3088"/>
<polygon fill="#9a32cd" stroke="#9a32cd" points="51.5001,-88.2037 55,-98.2038 58.5001,-88.2038 51.5001,-88.2037"/>
<text text-anchor="middle" x="77" y="-71" font-family="Helvetica,sans-Serif" font-size="10.00"> Energies</text>
<text text-anchor="middle" x="77" y="-58" font-family="Helvetica,sans-Serif" font-size="10.00">Xsections</text>
</g>
</g>
</svg>
