<?xml version="1.0" encoding="UTF-8" standalone="no"?>
<!DOCTYPE svg PUBLIC "-//W3C//DTD SVG 1.1//EN"
 "http://www.w3.org/Graphics/SVG/1.1/DTD/svg11.dtd">
<!-- Generated by graphviz version 2.26.3 (20100126.1600)
 -->
<!-- Title: ant::TCandidate Pages: 1 -->
<svg width="254pt" height="490pt"
 viewBox="0.00 0.00 254.00 490.00" xmlns="http://www.w3.org/2000/svg" xmlns:xlink="http://www.w3.org/1999/xlink">
<g id="graph1" class="graph" transform="scale(1 1) rotate(0) translate(4 486)">
<title>ant::TCandidate</title>
<polygon fill="white" stroke="white" points="-4,5 -4,-486 251,-486 251,5 -4,5"/>
<!-- Node1 -->
<g id="node1" class="node"><title>Node1</title>
<polygon fill="#bfbfbf" stroke="black" points="20,-0.5 20,-21.5 106,-21.5 106,-0.5 20,-0.5"/>
<text text-anchor="middle" x="63" y="-8.5" font-family="Helvetica,sans-Serif" font-size="10.00">ant::TCandidate</text>
</g>
<!-- Node2 -->
<g id="node2" class="node"><title>Node2</title>
<a xlink:href="classant_1_1printable__traits.html" target="_top" xlink:title="ant::printable_traits">
<polygon fill="white" stroke="black" points="0,-381.5 0,-402.5 100,-402.5 100,-381.5 0,-381.5"/>
<text text-anchor="middle" x="50" y="-389.5" font-family="Helvetica,sans-Serif" font-size="10.00">ant::printable_traits</text>
</a>
</g>
<!-- Node2&#45;&gt;Node1 -->
<g id="edge2" class="edge"><title>Node2&#45;&gt;Node1</title>
<path fill="none" stroke="midnightblue" d="M42.3404,-371.737C37.064,-355.965 31,-333.401 31,-313 31,-313 31,-313 31,-83 31,-59.4722 45.4453,-35.0579 54.925,-21.5692"/>
<polygon fill="midnightblue" stroke="midnightblue" points="39.1463,-373.202 45.7833,-381.46 45.7448,-370.866 39.1463,-373.202"/>
</g>
<!-- Node4 -->
<g id="node6" class="node"><title>Node4</title>
<a xlink:href="structant_1_1_t_cluster.html" target="_top" xlink:title="ant::TCluster">
<polygon fill="white" stroke="black" points="91,-144.5 91,-165.5 165,-165.5 165,-144.5 91,-144.5"/>
<text text-anchor="middle" x="128" y="-152.5" font-family="Helvetica,sans-Serif" font-size="10.00">ant::TCluster</text>
</a>
</g>
<!-- Node2&#45;&gt;Node4 -->
<g id="edge8" class="edge"><title>Node2&#45;&gt;Node4</title>
<path fill="none" stroke="midnightblue" d="M51.9888,-371.248C55.758,-337.559 65.6558,-269.366 88,-216 96.0213,-196.842 110.181,-177.196 119.323,-165.549"/>
<polygon fill="midnightblue" stroke="midnightblue" points="48.499,-370.968 50.9364,-381.279 55.4608,-371.698 48.499,-370.968"/>
</g>
<!-- Node6 -->
<g id="node11" class="node"><title>Node6</title>
<a xlink:href="structant_1_1_t_cluster_hit.html" target="_top" xlink:title="ant::TClusterHit">
<polygon fill="white" stroke="black" points="118,-302.5 118,-323.5 204,-323.5 204,-302.5 118,-302.5"/>
<text text-anchor="middle" x="161" y="-310.5" font-family="Helvetica,sans-Serif" font-size="10.00">ant::TClusterHit</text>
</a>
</g>
<!-- Node2&#45;&gt;Node6 -->
<g id="edge14" class="edge"><title>Node2&#45;&gt;Node6</title>
<path fill="none" stroke="midnightblue" d="M73.3668,-375.37C95.2283,-359.81 127.237,-337.03 145.913,-323.738"/>
<polygon fill="midnightblue" stroke="midnightblue" points="71.0877,-372.696 64.97,-381.346 75.1467,-378.399 71.0877,-372.696"/>
</g>
<!-- Node3 -->
<g id="node4" class="node"><title>Node3</title>
<polygon fill="white" stroke="#bfbfbf" points="59,-72.5 59,-93.5 197,-93.5 197,-72.5 59,-72.5"/>
<text text-anchor="middle" x="128" y="-80.5" font-family="Helvetica,sans-Serif" font-size="10.00">std::vector&lt; ant::TCluster &gt;</text>
</g>
<!-- Node3&#45;&gt;Node1 -->
<g id="edge4" class="edge"><title>Node3&#45;&gt;Node1</title>
<path fill="none" stroke="#9a32cd" stroke-dasharray="5,2" d="M111.375,-64.5841C99.1008,-50.9886 82.8231,-32.9579 72.6303,-21.6674"/>
<polygon fill="#9a32cd" stroke="#9a32cd" points="109.11,-67.2988 118.409,-72.3762 114.306,-62.6081 109.11,-67.2988"/>
<text text-anchor="middle" x="121" y="-44.5" font-family="Helvetica,sans-Serif" font-size="10.00"> Clusters</text>
</g>
<!-- Node4&#45;&gt;Node3 -->
<g id="edge6" class="edge"><title>Node4&#45;&gt;Node3</title>
<path fill="none" stroke="#9a32cd" stroke-dasharray="5,2" d="M128,-134.235C128,-120.969 128,-104.319 128,-93.6674"/>
<polygon fill="#9a32cd" stroke="#9a32cd" points="124.5,-134.376 128,-144.376 131.5,-134.376 124.5,-134.376"/>
<text text-anchor="middle" x="149.5" y="-116.5" font-family="Helvetica,sans-Serif" font-size="10.00"> elements</text>
</g>
<!-- Node5 -->
<g id="node9" class="node"><title>Node5</title>
<polygon fill="white" stroke="#bfbfbf" points="96.5,-217 96.5,-251 225.5,-251 225.5,-217 96.5,-217"/>
<text text-anchor="start" x="104.5" y="-238" font-family="Helvetica,sans-Serif" font-size="10.00">std::vector&lt; ant::TCluster</text>
<text text-anchor="middle" x="161" y="-225" font-family="Helvetica,sans-Serif" font-size="10.00">Hit &gt;</text>
</g>
<!-- Node5&#45;&gt;Node4 -->
<g id="edge10" class="edge"><title>Node5&#45;&gt;Node4</title>
<path fill="none" stroke="#9a32cd" stroke-dasharray="5,2" d="M149.911,-207.452C143.924,-193.12 136.868,-176.229 132.414,-165.567"/>
<polygon fill="#9a32cd" stroke="#9a32cd" points="146.755,-208.98 153.839,-216.858 153.215,-206.282 146.755,-208.98"/>
<text text-anchor="middle" x="156" y="-188.5" font-family="Helvetica,sans-Serif" font-size="10.00"> Hits</text>
</g>
<!-- Node6&#45;&gt;Node5 -->
<g id="edge12" class="edge"><title>Node6&#45;&gt;Node5</title>
<path fill="none" stroke="#9a32cd" stroke-dasharray="5,2" d="M161,-292.162C161,-279.363 161,-263.171 161,-251.124"/>
<polygon fill="#9a32cd" stroke="#9a32cd" points="157.5,-292.346 161,-302.346 164.5,-292.346 157.5,-292.346"/>
<text text-anchor="middle" x="182.5" y="-274.5" font-family="Helvetica,sans-Serif" font-size="10.00"> elements</text>
</g>
<!-- Node7 -->
<g id="node14" class="node"><title>Node7</title>
<polygon fill="white" stroke="#bfbfbf" points="117.5,-375 117.5,-409 246.5,-409 246.5,-375 117.5,-375"/>
<text text-anchor="start" x="125.5" y="-396" font-family="Helvetica,sans-Serif" font-size="10.00">std::vector&lt; ant::TCluster</text>
<text text-anchor="middle" x="182" y="-383" font-family="Helvetica,sans-Serif" font-size="10.00">HitDatum &gt;</text>
</g>
<!-- Node7&#45;&gt;Node6 -->
<g id="edge16" class="edge"><title>Node7&#45;&gt;Node6</title>
<path fill="none" stroke="#9a32cd" stroke-dasharray="5,2" d="M174.833,-365.038C171.047,-350.796 166.616,-334.127 163.809,-323.567"/>
<polygon fill="#9a32cd" stroke="#9a32cd" points="171.492,-366.093 177.443,-374.858 178.257,-364.295 171.492,-366.093"/>
<text text-anchor="middle" x="184.5" y="-346.5" font-family="Helvetica,sans-Serif" font-size="10.00"> Data</text>
</g>
<!-- Node8 -->
<g id="node16" class="node"><title>Node8</title>
<a xlink:href="structant_1_1_t_cluster_hit_datum.html" target="_top" xlink:title="ant::TClusterHitDatum">
<polygon fill="white" stroke="black" points="124,-460.5 124,-481.5 240,-481.5 240,-460.5 124,-460.5"/>
<text text-anchor="middle" x="182" y="-468.5" font-family="Helvetica,sans-Serif" font-size="10.00">ant::TClusterHitDatum</text>
</a>
</g>
<!-- Node8&#45;&gt;Node7 -->
<g id="edge18" class="edge"><title>Node8&#45;&gt;Node7</title>
<path fill="none" stroke="#9a32cd" stroke-dasharray="5,2" d="M182,-450.162C182,-437.363 182,-421.171 182,-409.124"/>
<polygon fill="#9a32cd" stroke="#9a32cd" points="178.5,-450.346 182,-460.346 185.5,-450.346 178.5,-450.346"/>
<text text-anchor="middle" x="203.5" y="-432.5" font-family="Helvetica,sans-Serif" font-size="10.00"> elements</text>
</g>
</g>
</svg>
