<?xml version="1.0" encoding="UTF-8" standalone="no"?>
<!DOCTYPE svg PUBLIC "-//W3C//DTD SVG 1.1//EN"
 "http://www.w3.org/Graphics/SVG/1.1/DTD/svg11.dtd">
<!-- Generated by graphviz version 2.26.3 (20100126.1600)
 -->
<!-- Title: ant::reconstruct::clustering::crystal_t Pages: 1 -->
<svg width="1092pt" height="133pt"
 viewBox="0.00 0.00 1092.00 133.00" xmlns="http://www.w3.org/2000/svg" xmlns:xlink="http://www.w3.org/1999/xlink">
<g id="graph1" class="graph" transform="scale(1 1) rotate(0) translate(4 129)">
<title>ant::reconstruct::clustering::crystal_t</title>
<polygon fill="white" stroke="white" points="-4,5 -4,-129 1089,-129 1089,5 -4,5"/>
<!-- Node1 -->
<g id="node1" class="node"><title>Node1</title>
<polygon fill="#bfbfbf" stroke="black" points="950.5,-59 950.5,-93 1083.5,-93 1083.5,-59 950.5,-59"/>
<text text-anchor="start" x="958.5" y="-80" font-family="Helvetica,sans-Serif" font-size="10.00">ant::reconstruct::clustering</text>
<text text-anchor="middle" x="1017" y="-67" font-family="Helvetica,sans-Serif" font-size="10.00">::crystal_t</text>
</g>
<!-- Node2 -->
<g id="node2" class="node"><title>Node2</title>
<a xlink:href="structant_1_1reconstruct_1_1_adaptor_t_cluster_hit.html" target="_top" xlink:title="The AdaptorTClusterHit struct. ">
<polygon fill="white" stroke="black" points="748.5,-83 748.5,-117 873.5,-117 873.5,-83 748.5,-83"/>
<text text-anchor="start" x="756.5" y="-104" font-family="Helvetica,sans-Serif" font-size="10.00">ant::reconstruct::Adaptor</text>
<text text-anchor="middle" x="811" y="-91" font-family="Helvetica,sans-Serif" font-size="10.00">TClusterHit</text>
</a>
</g>
<!-- Node2&#45;&gt;Node1 -->
<g id="edge2" class="edge"><title>Node2&#45;&gt;Node1</title>
<path fill="none" stroke="#9a32cd" stroke-dasharray="5,2" d="M883.781,-91.5207C905.458,-88.9951 929.096,-86.2413 950.361,-83.7638"/>
<polygon fill="#9a32cd" stroke="#9a32cd" points="883.174,-88.0677 873.646,-92.7015 883.984,-95.0206 883.174,-88.0677"/>
<text text-anchor="middle" x="912" y="-95" font-family="Helvetica,sans-Serif" font-size="10.00"> Hit</text>
</g>
<!-- Node3 -->
<g id="node4" class="node"><title>Node3</title>
<polygon fill="white" stroke="#bfbfbf" points="540,-83 540,-117 644,-117 644,-83 540,-83"/>
<text text-anchor="start" x="548" y="-104" font-family="Helvetica,sans-Serif" font-size="10.00">std::unique_ptr&lt; ant</text>
<text text-anchor="middle" x="592" y="-91" font-family="Helvetica,sans-Serif" font-size="10.00">::TClusterHit &gt;</text>
</g>
<!-- Node3&#45;&gt;Node2 -->
<g id="edge4" class="edge"><title>Node3&#45;&gt;Node2</title>
<path fill="none" stroke="#9a32cd" stroke-dasharray="5,2" d="M654.336,-100C683.771,-100 718.826,-100 748.306,-100"/>
<polygon fill="#9a32cd" stroke="#9a32cd" points="654.178,-96.5001 644.178,-100 654.178,-103.5 654.178,-96.5001"/>
<text text-anchor="middle" x="703" y="-104" font-family="Helvetica,sans-Serif" font-size="10.00"> Hit</text>
</g>
<!-- Node4 -->
<g id="node6" class="node"><title>Node4</title>
<a xlink:href="structant_1_1_t_cluster_hit.html" target="_top" xlink:title="ant::TClusterHit">
<polygon fill="white" stroke="black" points="388,-89.5 388,-110.5 474,-110.5 474,-89.5 388,-89.5"/>
<text text-anchor="middle" x="431" y="-97.5" font-family="Helvetica,sans-Serif" font-size="10.00">ant::TClusterHit</text>
</a>
</g>
<!-- Node4&#45;&gt;Node3 -->
<g id="edge6" class="edge"><title>Node4&#45;&gt;Node3</title>
<path fill="none" stroke="#9a32cd" stroke-dasharray="5,2" d="M484.388,-100C502.233,-100 522.091,-100 539.841,-100"/>
<polygon fill="#9a32cd" stroke="#9a32cd" points="484.145,-96.5001 474.145,-100 484.145,-103.5 484.145,-96.5001"/>
<text text-anchor="middle" x="500" y="-104" font-family="Helvetica,sans-Serif" font-size="10.00"> ptr</text>
</g>
<!-- Node5 -->
<g id="node8" class="node"><title>Node5</title>
<a xlink:href="classant_1_1printable__traits.html" target="_top" xlink:title="ant::printable_traits">
<polygon fill="white" stroke="black" points="211,-103.5 211,-124.5 311,-124.5 311,-103.5 211,-103.5"/>
<text text-anchor="middle" x="261" y="-111.5" font-family="Helvetica,sans-Serif" font-size="10.00">ant::printable_traits</text>
</a>
</g>
<!-- Node5&#45;&gt;Node4 -->
<g id="edge8" class="edge"><title>Node5&#45;&gt;Node4</title>
<path fill="none" stroke="midnightblue" d="M321.323,-109.032C343.305,-107.222 367.699,-105.213 387.889,-103.55"/>
<polygon fill="midnightblue" stroke="midnightblue" points="320.765,-105.566 311.086,-109.875 321.34,-112.543 320.765,-105.566"/>
</g>
<!-- Node6 -->
<g id="node10" class="node"><title>Node6</title>
<polygon fill="white" stroke="#bfbfbf" points="196.5,-51 196.5,-85 325.5,-85 325.5,-51 196.5,-51"/>
<text text-anchor="start" x="204.5" y="-72" font-family="Helvetica,sans-Serif" font-size="10.00">std::vector&lt; ant::TCluster</text>
<text text-anchor="middle" x="261" y="-59" font-family="Helvetica,sans-Serif" font-size="10.00">HitDatum &gt;</text>
</g>
<!-- Node6&#45;&gt;Node4 -->
<g id="edge10" class="edge"><title>Node6&#45;&gt;Node4</title>
<path fill="none" stroke="#9a32cd" stroke-dasharray="5,2" d="M335.617,-81.5605C347.135,-83.6914 358.89,-85.888 370,-88 375.726,-89.0885 381.75,-90.2517 387.692,-91.4096"/>
<polygon fill="#9a32cd" stroke="#9a32cd" points="336.048,-78.0809 325.579,-79.7085 334.778,-84.9648 336.048,-78.0809"/>
<text text-anchor="middle" x="357" y="-92" font-family="Helvetica,sans-Serif" font-size="10.00"> Data</text>
</g>
<!-- Node7 -->
<g id="node12" class="node"><title>Node7</title>
<a xlink:href="structant_1_1_t_cluster_hit_datum.html" target="_top" xlink:title="ant::TClusterHitDatum">
<polygon fill="white" stroke="black" points="0,-57.5 0,-78.5 116,-78.5 116,-57.5 0,-57.5"/>
<text text-anchor="middle" x="58" y="-65.5" font-family="Helvetica,sans-Serif" font-size="10.00">ant::TClusterHitDatum</text>
</a>
</g>
<!-- Node7&#45;&gt;Node6 -->
<g id="edge12" class="edge"><title>Node7&#45;&gt;Node6</title>
<path fill="none" stroke="#9a32cd" stroke-dasharray="5,2" d="M126.372,-68C148.993,-68 174.078,-68 196.406,-68"/>
<polygon fill="#9a32cd" stroke="#9a32cd" points="126.172,-64.5001 116.172,-68 126.172,-71.5001 126.172,-64.5001"/>
<text text-anchor="middle" x="156" y="-72" font-family="Helvetica,sans-Serif" font-size="10.00"> elements</text>
</g>
<!-- Node8 -->
<g id="node14" class="node"><title>Node8</title>
<a xlink:href="structant_1_1_cluster_detector__t_1_1_element__t.html" target="_top" xlink:title="ant::ClusterDetector\l_t::Element_t">
<polygon fill="white" stroke="black" points="758.5,-31 758.5,-65 863.5,-65 863.5,-31 758.5,-31"/>
<text text-anchor="start" x="766.5" y="-52" font-family="Helvetica,sans-Serif" font-size="10.00">ant::ClusterDetector</text>
<text text-anchor="middle" x="811" y="-39" font-family="Helvetica,sans-Serif" font-size="10.00">_t::Element_t</text>
</a>
</g>
<!-- Node8&#45;&gt;Node1 -->
<g id="edge14" class="edge"><title>Node8&#45;&gt;Node1</title>
<path fill="none" stroke="#9a32cd" stroke-dasharray="5,2" d="M873.65,-56.5155C897.845,-59.8042 925.569,-63.5725 950.148,-66.9133"/>
<polygon fill="#9a32cd" stroke="#9a32cd" points="873.896,-53.0168 863.516,-55.138 872.953,-59.9531 873.896,-53.0168"/>
<text text-anchor="middle" x="912" y="-68" font-family="Helvetica,sans-Serif" font-size="10.00"> Element</text>
</g>
<!-- Node9 -->
<g id="node16" class="node"><title>Node9</title>
<a xlink:href="structant_1_1_detector__t_1_1_element__t.html" target="_top" xlink:title="ant::Detector_t::Element_t">
<polygon fill="white" stroke="black" points="526,-40.5 526,-61.5 658,-61.5 658,-40.5 526,-40.5"/>
<text text-anchor="middle" x="592" y="-48.5" font-family="Helvetica,sans-Serif" font-size="10.00">ant::Detector_t::Element_t</text>
</a>
</g>
<!-- Node9&#45;&gt;Node8 -->
<g id="edge16" class="edge"><title>Node9&#45;&gt;Node8</title>
<path fill="none" stroke="midnightblue" d="M668.348,-49.9541C698.063,-49.5471 731.374,-49.0908 758.329,-48.7215"/>
<polygon fill="midnightblue" stroke="midnightblue" points="667.955,-46.4591 658.004,-50.0958 668.051,-53.4584 667.955,-46.4591"/>
</g>
<!-- Node10 -->
<g id="node18" class="node"><title>Node10</title>
<polygon fill="white" stroke="#bfbfbf" points="532,-0.5 532,-21.5 652,-21.5 652,-0.5 532,-0.5"/>
<text text-anchor="middle" x="592" y="-8.5" font-family="Helvetica,sans-Serif" font-size="10.00">std::vector&lt; unsigned &gt;</text>
</g>
<!-- Node10&#45;&gt;Node8 -->
<g id="edge18" class="edge"><title>Node10&#45;&gt;Node8</title>
<path fill="none" stroke="#9a32cd" stroke-dasharray="5,2" d="M662.303,-21.8596C684.026,-25.3087 708.018,-29.2131 730,-33 739.161,-34.5782 748.892,-36.322 758.313,-38.0456"/>
<polygon fill="#9a32cd" stroke="#9a32cd" points="662.594,-18.3622 652.17,-20.2574 661.501,-25.2763 662.594,-18.3622"/>
<text text-anchor="middle" x="703" y="-37" font-family="Helvetica,sans-Serif" font-size="10.00"> Neighbours</text>
</g>
</g>
</svg>
