<?xml version="1.0" encoding="UTF-8" standalone="no"?>
<!DOCTYPE svg PUBLIC "-//W3C//DTD SVG 1.1//EN"
 "http://www.w3.org/Graphics/SVG/1.1/DTD/svg11.dtd">
<!-- Generated by graphviz version 2.26.3 (20100126.1600)
 -->
<!-- Title: ant::UnpackerAcquConfig::hit_mapping_t Pages: 1 -->
<svg width="796pt" height="96pt"
 viewBox="0.00 0.00 796.00 96.00" xmlns="http://www.w3.org/2000/svg" xmlns:xlink="http://www.w3.org/1999/xlink">
<g id="graph1" class="graph" transform="scale(1 1) rotate(0) translate(4 92)">
<title>ant::UnpackerAcquConfig::hit_mapping_t</title>
<polygon fill="white" stroke="white" points="-4,5 -4,-92 793,-92 793,5 -4,5"/>
<!-- Node1 -->
<g id="node1" class="node"><title>Node1</title>
<polygon fill="#bfbfbf" stroke="black" points="658.5,-38 658.5,-72 787.5,-72 787.5,-38 658.5,-38"/>
<text text-anchor="start" x="666.5" y="-59" font-family="Helvetica,sans-Serif" font-size="10.00">ant::UnpackerAcquConfig</text>
<text text-anchor="middle" x="723" y="-46" font-family="Helvetica,sans-Serif" font-size="10.00">::hit_mapping_t</text>
</g>
<!-- Node2 -->
<g id="node2" class="node"><title>Node2</title>
<a xlink:href="structant_1_1_unpacker_acqu_config_1_1mapping__t.html" target="_top" xlink:title="ant::UnpackerAcquConfig\l::mapping_t\&lt; std::uint16_t \&gt;">
<polygon fill="white" stroke="black" points="480,-38 480,-72 620,-72 620,-38 480,-38"/>
<text text-anchor="start" x="488" y="-59" font-family="Helvetica,sans-Serif" font-size="10.00">ant::UnpackerAcquConfig</text>
<text text-anchor="middle" x="550" y="-46" font-family="Helvetica,sans-Serif" font-size="10.00">::mapping_t&lt; std::uint16_t &gt;</text>
</a>
</g>
<!-- Node2&#45;&gt;Node1 -->
<g id="edge2" class="edge"><title>Node2&#45;&gt;Node1</title>
<path fill="none" stroke="midnightblue" d="M630.433,-55C639.765,-55 649.19,-55 658.274,-55"/>
<polygon fill="midnightblue" stroke="midnightblue" points="630.366,-51.5001 620.366,-55 630.366,-58.5001 630.366,-51.5001"/>
</g>
<!-- Node3 -->
<g id="node4" class="node"><title>Node3</title>
<a xlink:href="structant_1_1_logical_channel__t.html" target="_top" xlink:title="The LogicalChannel_t struct uniquely identifies detector element within setup. ">
<polygon fill="white" stroke="black" points="251.5,-66.5 251.5,-87.5 362.5,-87.5 362.5,-66.5 251.5,-66.5"/>
<text text-anchor="middle" x="307" y="-74.5" font-family="Helvetica,sans-Serif" font-size="10.00">ant::LogicalChannel_t</text>
</a>
</g>
<!-- Node3&#45;&gt;Node2 -->
<g id="edge4" class="edge"><title>Node3&#45;&gt;Node2</title>
<path fill="none" stroke="#9a32cd" stroke-dasharray="5,2" d="M372.778,-71.0448C405.871,-68.0487 446.004,-64.4153 479.704,-61.3642"/>
<polygon fill="#9a32cd" stroke="#9a32cd" points="372.393,-67.5653 362.749,-71.9528 373.024,-74.5367 372.393,-67.5653"/>
<text text-anchor="middle" x="427" y="-73" font-family="Helvetica,sans-Serif" font-size="10.00"> LogicalChannel</text>
</g>
<!-- Node4 -->
<g id="node6" class="node"><title>Node4</title>
<polygon fill="white" stroke="#bfbfbf" points="240,-0.5 240,-47.5 374,-47.5 374,-0.5 240,-0.5"/>
<text text-anchor="start" x="248" y="-34.5" font-family="Helvetica,sans-Serif" font-size="10.00">std::vector&lt; ant::Unpacker</text>
<text text-anchor="start" x="248" y="-21.5" font-family="Helvetica,sans-Serif" font-size="10.00">AcquConfig::RawChannel</text>
<text text-anchor="middle" x="307" y="-8.5" font-family="Helvetica,sans-Serif" font-size="10.00">_t&lt; std::uint16_t &gt; &gt;</text>
</g>
<!-- Node4&#45;&gt;Node2 -->
<g id="edge6" class="edge"><title>Node4&#45;&gt;Node2</title>
<path fill="none" stroke="#9a32cd" stroke-dasharray="5,2" d="M384.254,-33.8554C414.891,-37.7639 449.876,-42.227 479.783,-46.0423"/>
<polygon fill="#9a32cd" stroke="#9a32cd" points="384.407,-30.3466 374.044,-32.5529 383.521,-37.2904 384.407,-30.3466"/>
<text text-anchor="middle" x="427" y="-47" font-family="Helvetica,sans-Serif" font-size="10.00"> RawChannels</text>
</g>
<!-- Node5 -->
<g id="node8" class="node"><title>Node5</title>
<a xlink:href="structant_1_1_unpacker_acqu_config_1_1_raw_channel__t.html" target="_top" xlink:title="ant::UnpackerAcquConfig\l::RawChannel_t\&lt; std::uint16_t \&gt;">
<polygon fill="white" stroke="black" points="0.5,-7 0.5,-41 159.5,-41 159.5,-7 0.5,-7"/>
<text text-anchor="start" x="8.5" y="-28" font-family="Helvetica,sans-Serif" font-size="10.00">ant::UnpackerAcquConfig</text>
<text text-anchor="middle" x="80" y="-15" font-family="Helvetica,sans-Serif" font-size="10.00">::RawChannel_t&lt; std::uint16_t &gt;</text>
</a>
</g>
<!-- Node5&#45;&gt;Node4 -->
<g id="edge8" class="edge"><title>Node5&#45;&gt;Node4</title>
<path fill="none" stroke="#9a32cd" stroke-dasharray="5,2" d="M169.958,-24C193.273,-24 217.973,-24 239.888,-24"/>
<polygon fill="#9a32cd" stroke="#9a32cd" points="169.713,-20.5001 159.713,-24 169.712,-27.5001 169.713,-20.5001"/>
<text text-anchor="middle" x="200" y="-28" font-family="Helvetica,sans-Serif" font-size="10.00"> elements</text>
</g>
</g>
</svg>
