<?xml version="1.0" encoding="UTF-8" standalone="no"?>
<!DOCTYPE svg PUBLIC "-//W3C//DTD SVG 1.1//EN"
 "http://www.w3.org/Graphics/SVG/1.1/DTD/svg11.dtd">
<!-- Generated by graphviz version 2.26.3 (20100126.1600)
 -->
<!-- Title: ant::reconstruct::AdaptorTClusterHit Pages: 1 -->
<svg width="254pt" height="360pt"
 viewBox="0.00 0.00 254.00 360.00" xmlns="http://www.w3.org/2000/svg" xmlns:xlink="http://www.w3.org/1999/xlink">
<g id="graph1" class="graph" transform="scale(1 1) rotate(0) translate(4 356)">
<title>ant::reconstruct::AdaptorTClusterHit</title>
<polygon fill="white" stroke="white" points="-4,5 -4,-356 251,-356 251,5 -4,5"/>
<!-- Node1 -->
<g id="node1" class="node"><title>Node1</title>
<polygon fill="#bfbfbf" stroke="black" points="28.5,-1 28.5,-35 153.5,-35 153.5,-1 28.5,-1"/>
<text text-anchor="start" x="36.5" y="-22" font-family="Helvetica,sans-Serif" font-size="10.00">ant::reconstruct::Adaptor</text>
<text text-anchor="middle" x="91" y="-9" font-family="Helvetica,sans-Serif" font-size="10.00">TClusterHit</text>
</g>
<!-- Node2 -->
<g id="node2" class="node"><title>Node2</title>
<polygon fill="white" stroke="#bfbfbf" points="39,-87 39,-121 143,-121 143,-87 39,-87"/>
<text text-anchor="start" x="47" y="-108" font-family="Helvetica,sans-Serif" font-size="10.00">std::unique_ptr&lt; ant</text>
<text text-anchor="middle" x="91" y="-95" font-family="Helvetica,sans-Serif" font-size="10.00">::TClusterHit &gt;</text>
</g>
<!-- Node2&#45;&gt;Node1 -->
<g id="edge2" class="edge"><title>Node2&#45;&gt;Node1</title>
<path fill="none" stroke="#9a32cd" stroke-dasharray="5,2" d="M91,-76.342C91,-62.7741 91,-46.8607 91,-35.084"/>
<polygon fill="#9a32cd" stroke="#9a32cd" points="87.5001,-76.5966 91,-86.5966 94.5001,-76.5967 87.5001,-76.5966"/>
<text text-anchor="middle" x="99" y="-58.5" font-family="Helvetica,sans-Serif" font-size="10.00"> Hit</text>
</g>
<!-- Node3 -->
<g id="node4" class="node"><title>Node3</title>
<a xlink:href="structant_1_1_t_cluster_hit.html" target="_top" xlink:title="ant::TClusterHit">
<polygon fill="white" stroke="black" points="48,-172.5 48,-193.5 134,-193.5 134,-172.5 48,-172.5"/>
<text text-anchor="middle" x="91" y="-180.5" font-family="Helvetica,sans-Serif" font-size="10.00">ant::TClusterHit</text>
</a>
</g>
<!-- Node3&#45;&gt;Node2 -->
<g id="edge4" class="edge"><title>Node3&#45;&gt;Node2</title>
<path fill="none" stroke="#9a32cd" stroke-dasharray="5,2" d="M91,-162.162C91,-149.363 91,-133.171 91,-121.124"/>
<polygon fill="#9a32cd" stroke="#9a32cd" points="87.5001,-162.346 91,-172.346 94.5001,-162.346 87.5001,-162.346"/>
<text text-anchor="middle" x="98.5" y="-144.5" font-family="Helvetica,sans-Serif" font-size="10.00"> ptr</text>
</g>
<!-- Node4 -->
<g id="node6" class="node"><title>Node4</title>
<a xlink:href="classant_1_1printable__traits.html" target="_top" xlink:title="ant::printable_traits">
<polygon fill="white" stroke="black" points="0,-251.5 0,-272.5 100,-272.5 100,-251.5 0,-251.5"/>
<text text-anchor="middle" x="50" y="-259.5" font-family="Helvetica,sans-Serif" font-size="10.00">ant::printable_traits</text>
</a>
</g>
<!-- Node4&#45;&gt;Node3 -->
<g id="edge6" class="edge"><title>Node4&#45;&gt;Node3</title>
<path fill="none" stroke="midnightblue" d="M60.2934,-242.166C68.2605,-226.815 78.9889,-206.143 85.4272,-193.738"/>
<polygon fill="midnightblue" stroke="midnightblue" points="57.0294,-240.858 55.5294,-251.346 63.2425,-244.082 57.0294,-240.858"/>
</g>
<!-- Node5 -->
<g id="node8" class="node"><title>Node5</title>
<polygon fill="white" stroke="#bfbfbf" points="117.5,-245 117.5,-279 246.5,-279 246.5,-245 117.5,-245"/>
<text text-anchor="start" x="125.5" y="-266" font-family="Helvetica,sans-Serif" font-size="10.00">std::vector&lt; ant::TCluster</text>
<text text-anchor="middle" x="182" y="-253" font-family="Helvetica,sans-Serif" font-size="10.00">HitDatum &gt;</text>
</g>
<!-- Node5&#45;&gt;Node3 -->
<g id="edge8" class="edge"><title>Node5&#45;&gt;Node3</title>
<path fill="none" stroke="#9a32cd" stroke-dasharray="5,2" d="M154.246,-237.906C137.179,-223.09 116.163,-204.845 103.172,-193.567"/>
<polygon fill="#9a32cd" stroke="#9a32cd" points="152.408,-240.946 162.254,-244.858 156.997,-235.66 152.408,-240.946"/>
<text text-anchor="middle" x="151.5" y="-216.5" font-family="Helvetica,sans-Serif" font-size="10.00"> Data</text>
</g>
<!-- Node6 -->
<g id="node10" class="node"><title>Node6</title>
<a xlink:href="structant_1_1_t_cluster_hit_datum.html" target="_top" xlink:title="ant::TClusterHitDatum">
<polygon fill="white" stroke="black" points="124,-330.5 124,-351.5 240,-351.5 240,-330.5 124,-330.5"/>
<text text-anchor="middle" x="182" y="-338.5" font-family="Helvetica,sans-Serif" font-size="10.00">ant::TClusterHitDatum</text>
</a>
</g>
<!-- Node6&#45;&gt;Node5 -->
<g id="edge10" class="edge"><title>Node6&#45;&gt;Node5</title>
<path fill="none" stroke="#9a32cd" stroke-dasharray="5,2" d="M182,-320.162C182,-307.363 182,-291.171 182,-279.124"/>
<polygon fill="#9a32cd" stroke="#9a32cd" points="178.5,-320.346 182,-330.346 185.5,-320.346 178.5,-320.346"/>
<text text-anchor="middle" x="203.5" y="-302.5" font-family="Helvetica,sans-Serif" font-size="10.00"> elements</text>
</g>
</g>
</svg>
