<?xml version="1.0" encoding="UTF-8" standalone="no"?>
<!DOCTYPE svg PUBLIC "-//W3C//DTD SVG 1.1//EN"
 "http://www.w3.org/Graphics/SVG/1.1/DTD/svg11.dtd">
<!-- Generated by graphviz version 2.26.3 (20100126.1600)
 -->
<!-- Title: ant::expconfig::detector::Trigger_2014 Pages: 1 -->
<svg width="484pt" height="336pt"
 viewBox="0.00 0.00 484.00 336.00" xmlns="http://www.w3.org/2000/svg" xmlns:xlink="http://www.w3.org/1999/xlink">
<g id="graph1" class="graph" transform="scale(1 1) rotate(0) translate(4 332)">
<title>ant::expconfig::detector::Trigger_2014</title>
<polygon fill="white" stroke="white" points="-4,5 -4,-332 481,-332 481,5 -4,5"/>
<!-- Node1 -->
<g id="node1" class="node"><title>Node1</title>
<polygon fill="#bfbfbf" stroke="black" points="268.5,-1 268.5,-35 387.5,-35 387.5,-1 268.5,-1"/>
<text text-anchor="start" x="276.5" y="-22" font-family="Helvetica,sans-Serif" font-size="10.00">ant::expconfig::detector</text>
<text text-anchor="middle" x="328" y="-9" font-family="Helvetica,sans-Serif" font-size="10.00">::Trigger_2014</text>
</g>
<!-- Node2 -->
<g id="node2" class="node"><title>Node2</title>
<a xlink:href="structant_1_1expconfig_1_1detector_1_1_trigger.html" target="_top" xlink:title="ant::expconfig::detector\l::Trigger">
<polygon fill="white" stroke="black" points="121.5,-75 121.5,-109 240.5,-109 240.5,-75 121.5,-75"/>
<text text-anchor="start" x="129.5" y="-96" font-family="Helvetica,sans-Serif" font-size="10.00">ant::expconfig::detector</text>
<text text-anchor="middle" x="181" y="-83" font-family="Helvetica,sans-Serif" font-size="10.00">::Trigger</text>
</a>
</g>
<!-- Node2&#45;&gt;Node1 -->
<g id="edge2" class="edge"><title>Node2&#45;&gt;Node1</title>
<path fill="none" stroke="midnightblue" d="M224.037,-70.3353C246.366,-59.0945 273.254,-45.5593 294.091,-35.07"/>
<polygon fill="midnightblue" stroke="midnightblue" points="222.453,-67.2142 215.094,-74.8369 225.6,-73.4667 222.453,-67.2142"/>
</g>
<!-- Node3 -->
<g id="node4" class="node"><title>Node3</title>
<a xlink:href="structant_1_1_detector__t.html" target="_top" xlink:title="The Detector_t struct is the minimal base class for all detectors. ">
<polygon fill="white" stroke="black" points="11,-172.5 11,-193.5 93,-193.5 93,-172.5 11,-172.5"/>
<text text-anchor="middle" x="52" y="-180.5" font-family="Helvetica,sans-Serif" font-size="10.00">ant::Detector_t</text>
</a>
</g>
<!-- Node3&#45;&gt;Node2 -->
<g id="edge4" class="edge"><title>Node3&#45;&gt;Node2</title>
<path fill="none" stroke="midnightblue" d="M75.2422,-166.604C98.2944,-150.343 133.463,-125.534 156.833,-109.048"/>
<polygon fill="midnightblue" stroke="midnightblue" points="73.2043,-163.759 67.0504,-172.383 77.2394,-169.479 73.2043,-163.759"/>
</g>
<!-- Node4 -->
<g id="node6" class="node"><title>Node4</title>
<a xlink:href="classant_1_1printable__traits.html" target="_top" xlink:title="ant::printable_traits">
<polygon fill="white" stroke="black" points="0,-239.5 0,-260.5 100,-260.5 100,-239.5 0,-239.5"/>
<text text-anchor="middle" x="50" y="-247.5" font-family="Helvetica,sans-Serif" font-size="10.00">ant::printable_traits</text>
</a>
</g>
<!-- Node4&#45;&gt;Node3 -->
<g id="edge6" class="edge"><title>Node4&#45;&gt;Node3</title>
<path fill="none" stroke="midnightblue" d="M50.6297,-228.904C50.9813,-217.127 51.404,-202.967 51.6861,-193.517"/>
<polygon fill="midnightblue" stroke="midnightblue" points="47.1214,-229.135 50.3213,-239.235 54.1182,-229.344 47.1214,-229.135"/>
</g>
<!-- Node5 -->
<g id="node8" class="node"><title>Node5</title>
<a xlink:href="classant_1_1_unpacker_acqu_config.html" target="_top" xlink:title="ant::UnpackerAcquConfig">
<polygon fill="white" stroke="black" points="115.5,-172.5 115.5,-193.5 244.5,-193.5 244.5,-172.5 115.5,-172.5"/>
<text text-anchor="middle" x="180" y="-180.5" font-family="Helvetica,sans-Serif" font-size="10.00">ant::UnpackerAcquConfig</text>
</a>
</g>
<!-- Node5&#45;&gt;Node2 -->
<g id="edge8" class="edge"><title>Node5&#45;&gt;Node2</title>
<path fill="none" stroke="midnightblue" d="M179.195,-162.172C179.115,-159.424 179.046,-156.644 179,-154 178.801,-142.446 178.679,-139.551 179,-128 179.17,-121.868 179.503,-115.155 179.849,-109.205"/>
<polygon fill="midnightblue" stroke="midnightblue" points="175.701,-162.386 179.541,-172.26 182.696,-162.146 175.701,-162.386"/>
</g>
<!-- Node6 -->
<g id="node10" class="node"><title>Node6</title>
<a xlink:href="classant_1_1_exp_config_1_1_unpacker.html" target="_top" xlink:title="ant::ExpConfig::Unpacker\l\&lt; UnpackerAcquConfig \&gt;">
<polygon fill="white" stroke="black" points="118,-233 118,-267 248,-267 248,-233 118,-233"/>
<text text-anchor="start" x="126" y="-254" font-family="Helvetica,sans-Serif" font-size="10.00">ant::ExpConfig::Unpacker</text>
<text text-anchor="middle" x="183" y="-241" font-family="Helvetica,sans-Serif" font-size="10.00">&lt; UnpackerAcquConfig &gt;</text>
</a>
</g>
<!-- Node6&#45;&gt;Node5 -->
<g id="edge10" class="edge"><title>Node6&#45;&gt;Node5</title>
<path fill="none" stroke="midnightblue" d="M181.77,-222.534C181.312,-212.306 180.819,-201.301 180.47,-193.506"/>
<polygon fill="midnightblue" stroke="midnightblue" points="178.284,-222.912 182.227,-232.746 185.277,-222.599 178.284,-222.912"/>
</g>
<!-- Node7 -->
<g id="node12" class="node"><title>Node7</title>
<a xlink:href="classant_1_1_exp_config_1_1_base.html" target="_top" xlink:title="ant::ExpConfig::Base">
<polygon fill="white" stroke="black" points="128,-306.5 128,-327.5 238,-327.5 238,-306.5 128,-306.5"/>
<text text-anchor="middle" x="183" y="-314.5" font-family="Helvetica,sans-Serif" font-size="10.00">ant::ExpConfig::Base</text>
</a>
</g>
<!-- Node7&#45;&gt;Node6 -->
<g id="edge12" class="edge"><title>Node7&#45;&gt;Node6</title>
<path fill="none" stroke="midnightblue" d="M183,-296.165C183,-286.797 183,-275.88 183,-267.014"/>
<polygon fill="midnightblue" stroke="midnightblue" points="179.5,-296.235 183,-306.235 186.5,-296.235 179.5,-296.235"/>
</g>
<!-- Node8 -->
<g id="node14" class="node"><title>Node8</title>
<a xlink:href="structant_1_1_logical_channel__t.html" target="_top" xlink:title="The LogicalChannel_t struct uniquely identifies detector element within setup. ">
<polygon fill="white" stroke="black" points="276.5,-172.5 276.5,-193.5 387.5,-193.5 387.5,-172.5 276.5,-172.5"/>
<text text-anchor="middle" x="332" y="-180.5" font-family="Helvetica,sans-Serif" font-size="10.00">ant::LogicalChannel_t</text>
</a>
</g>
<!-- Node8&#45;&gt;Node1 -->
<g id="edge16" class="edge"><title>Node8&#45;&gt;Node1</title>
<path fill="none" stroke="#9a32cd" stroke-dasharray="5,2" d="M343.704,-163.389C345.062,-160.336 346.234,-157.148 347,-154 357.201,-112.072 343.479,-61.4474 334.564,-35.3832"/>
<polygon fill="#9a32cd" stroke="#9a32cd" points="340.492,-161.981 338.999,-172.47 346.707,-165.202 340.492,-161.981"/>
<text text-anchor="middle" x="413.5" y="-96" font-family="Helvetica,sans-Serif" font-size="10.00"> Scaler_Beampolmon_1MHz</text>
<text text-anchor="middle" x="413.5" y="-83" font-family="Helvetica,sans-Serif" font-size="10.00">Scaler_Exptrigger_1MHz</text>
</g>
<!-- Node8&#45;&gt;Node2 -->
<g id="edge14" class="edge"><title>Node8&#45;&gt;Node2</title>
<path fill="none" stroke="#9a32cd" stroke-dasharray="5,2" d="M266.37,-171.756C235.533,-165.919 204.337,-158.986 199,-154 186.715,-142.522 182.647,-123.209 181.384,-109.183"/>
<polygon fill="#9a32cd" stroke="#9a32cd" points="265.865,-175.222 276.336,-173.609 267.144,-168.34 265.865,-175.222"/>
<text text-anchor="middle" x="273" y="-145" font-family="Helvetica,sans-Serif" font-size="10.00"> Reference_CATCH_TaggerCrate</text>
<text text-anchor="middle" x="273" y="-132" font-family="Helvetica,sans-Serif" font-size="10.00">Reference_CATCH_CBCrate</text>
</g>
</g>
</svg>
