<?xml version="1.0" encoding="UTF-8" standalone="no"?>
<!DOCTYPE svg PUBLIC "-//W3C//DTD SVG 1.1//EN"
 "http://www.w3.org/Graphics/SVG/1.1/DTD/svg11.dtd">
<!-- Generated by graphviz version 2.26.3 (20100126.1600)
 -->
<!-- Title: ant::TDataRecord Pages: 1 -->
<svg width="119pt" height="162pt"
 viewBox="0.00 0.00 119.00 162.00" xmlns="http://www.w3.org/2000/svg" xmlns:xlink="http://www.w3.org/1999/xlink">
<g id="graph1" class="graph" transform="scale(1 1) rotate(0) translate(4 158)">
<title>ant::TDataRecord</title>
<polygon fill="white" stroke="white" points="-4,5 -4,-158 116,-158 116,5 -4,5"/>
<!-- Node1 -->
<g id="node1" class="node"><title>Node1</title>
<polygon fill="#bfbfbf" stroke="black" points="-0.5,-0.5 -0.5,-21.5 94.5,-21.5 94.5,-0.5 -0.5,-0.5"/>
<text text-anchor="middle" x="47" y="-8.5" font-family="Helvetica,sans-Serif" font-size="10.00">ant::TDataRecord</text>
</g>
<!-- Node2 -->
<g id="node2" class="node"><title>Node2</title>
<a xlink:href="classant_1_1printable__traits.html" target="_top" xlink:title="ant::printable_traits">
<polygon fill="white" stroke="black" points="0,-132.5 0,-153.5 100,-153.5 100,-132.5 0,-132.5"/>
<text text-anchor="middle" x="50" y="-140.5" font-family="Helvetica,sans-Serif" font-size="10.00">ant::printable_traits</text>
</a>
</g>
<!-- Node2&#45;&gt;Node1 -->
<g id="edge2" class="edge"><title>Node2&#45;&gt;Node1</title>
<path fill="none" stroke="midnightblue" d="M49.5245,-122.078C48.8752,-93.5071 47.7353,-43.3534 47.2405,-21.5825"/>
<polygon fill="midnightblue" stroke="midnightblue" points="46.0281,-122.28 49.7545,-132.198 53.0263,-122.121 46.0281,-122.28"/>
</g>
<!-- Node3 -->
<g id="node4" class="node"><title>Node3</title>
<a xlink:href="structant_1_1_t_i_d.html" target="_top" xlink:title="ant::TID">
<polygon fill="white" stroke="black" points="58.5,-72.5 58.5,-93.5 111.5,-93.5 111.5,-72.5 58.5,-72.5"/>
<text text-anchor="middle" x="85" y="-80.5" font-family="Helvetica,sans-Serif" font-size="10.00">ant::TID</text>
</a>
</g>
<!-- Node2&#45;&gt;Node3 -->
<g id="edge6" class="edge"><title>Node2&#45;&gt;Node3</title>
<path fill="none" stroke="midnightblue" d="M61.3944,-123.467C67.1802,-113.548 73.984,-101.885 78.7969,-93.6339"/>
<polygon fill="midnightblue" stroke="midnightblue" points="58.2728,-121.872 56.2573,-132.273 64.3193,-125.399 58.2728,-121.872"/>
</g>
<!-- Node3&#45;&gt;Node1 -->
<g id="edge4" class="edge"><title>Node3&#45;&gt;Node1</title>
<path fill="none" stroke="#9a32cd" stroke-dasharray="5,2" d="M74.6658,-63.4193C67.5693,-49.9734 58.4202,-32.6384 52.63,-21.6674"/>
<polygon fill="#9a32cd" stroke="#9a32cd" points="71.63,-65.166 79.393,-72.3762 77.8207,-61.8986 71.63,-65.166"/>
<text text-anchor="middle" x="76" y="-44.5" font-family="Helvetica,sans-Serif" font-size="10.00"> ID</text>
</g>
</g>
</svg>
