<?xml version="1.0" encoding="UTF-8" standalone="no"?>
<!DOCTYPE svg PUBLIC "-//W3C//DTD SVG 1.1//EN"
 "http://www.w3.org/Graphics/SVG/1.1/DTD/svg11.dtd">
<!-- Generated by graphviz version 2.26.3 (20100126.1600)
 -->
<!-- Title: src/base/std_ext/system.cc Pages: 1 -->
<svg width="420pt" height="146pt"
 viewBox="0.00 0.00 420.00 146.00" xmlns="http://www.w3.org/2000/svg" xmlns:xlink="http://www.w3.org/1999/xlink">
<g id="graph1" class="graph" transform="scale(1 1) rotate(0) translate(4 142)">
<title>src/base/std_ext/system.cc</title>
<polygon fill="white" stroke="white" points="-4,5 -4,-142 417,-142 417,5 -4,5"/>
<!-- Node1 -->
<g id="node1" class="node"><title>Node1</title>
<polygon fill="#bfbfbf" stroke="black" points="161,-116.5 161,-137.5 299,-137.5 299,-116.5 161,-116.5"/>
<text text-anchor="middle" x="230" y="-124.5" font-family="Helvetica,sans-Serif" font-size="10.00">src/base/std_ext/system.cc</text>
</g>
<!-- Node2 -->
<g id="node3" class="node"><title>Node2</title>
<a xlink:href="system_8h.html" target="_top" xlink:title="system.h">
<polygon fill="white" stroke="black" points="31.5,-58.5 31.5,-79.5 88.5,-79.5 88.5,-58.5 31.5,-58.5"/>
<text text-anchor="middle" x="60" y="-66.5" font-family="Helvetica,sans-Serif" font-size="10.00">system.h</text>
</a>
</g>
<!-- Node1&#45;&gt;Node2 -->
<g id="edge2" class="edge"><title>Node1&#45;&gt;Node2</title>
<path fill="none" stroke="midnightblue" d="M199.214,-116.497C170.932,-106.847 128.906,-92.5091 98.4316,-82.112"/>
<polygon fill="midnightblue" stroke="midnightblue" points="99.1707,-78.6661 88.5762,-78.7495 96.9104,-85.2911 99.1707,-78.6661"/>
</g>
<!-- Node5 -->
<g id="node9" class="node"><title>Node5</title>
<a xlink:href="string_8h.html" target="_top" xlink:title="string.h">
<polygon fill="white" stroke="black" points="105.5,-58.5 105.5,-79.5 154.5,-79.5 154.5,-58.5 105.5,-58.5"/>
<text text-anchor="middle" x="130" y="-66.5" font-family="Helvetica,sans-Serif" font-size="10.00">string.h</text>
</a>
</g>
<!-- Node1&#45;&gt;Node5 -->
<g id="edge8" class="edge"><title>Node1&#45;&gt;Node5</title>
<path fill="none" stroke="midnightblue" d="M211.658,-116.362C196.434,-107.532 174.559,-94.844 157.28,-84.8224"/>
<polygon fill="midnightblue" stroke="midnightblue" points="158.632,-81.5603 148.225,-79.5707 155.12,-87.6155 158.632,-81.5603"/>
</g>
<!-- Node8 -->
<g id="node16" class="node"><title>Node8</title>
<polygon fill="white" stroke="#bfbfbf" points="171.5,-58.5 171.5,-79.5 222.5,-79.5 222.5,-58.5 171.5,-58.5"/>
<text text-anchor="middle" x="197" y="-66.5" font-family="Helvetica,sans-Serif" font-size="10.00">unistd.h</text>
</g>
<!-- Node1&#45;&gt;Node8 -->
<g id="edge16" class="edge"><title>Node1&#45;&gt;Node8</title>
<path fill="none" stroke="midnightblue" d="M223.947,-116.362C219.528,-108.595 213.41,-97.8426 208.121,-88.5458"/>
<polygon fill="midnightblue" stroke="midnightblue" points="211.002,-86.5315 203.014,-79.5707 204.918,-89.9932 211.002,-86.5315"/>
</g>
<!-- Node9 -->
<g id="node18" class="node"><title>Node9</title>
<polygon fill="white" stroke="#bfbfbf" points="239.5,-58.5 239.5,-79.5 288.5,-79.5 288.5,-58.5 239.5,-58.5"/>
<text text-anchor="middle" x="264" y="-66.5" font-family="Helvetica,sans-Serif" font-size="10.00">dirent.h</text>
</g>
<!-- Node1&#45;&gt;Node9 -->
<g id="edge18" class="edge"><title>Node1&#45;&gt;Node9</title>
<path fill="none" stroke="midnightblue" d="M236.236,-116.362C240.837,-108.513 247.225,-97.6159 252.714,-88.2527"/>
<polygon fill="midnightblue" stroke="midnightblue" points="255.766,-89.9677 257.803,-79.5707 249.727,-86.4276 255.766,-89.9677"/>
</g>
<!-- Node10 -->
<g id="node20" class="node"><title>Node10</title>
<polygon fill="white" stroke="#bfbfbf" points="305.5,-58.5 305.5,-79.5 348.5,-79.5 348.5,-58.5 305.5,-58.5"/>
<text text-anchor="middle" x="327" y="-66.5" font-family="Helvetica,sans-Serif" font-size="10.00">cstdio</text>
</g>
<!-- Node1&#45;&gt;Node10 -->
<g id="edge20" class="edge"><title>Node1&#45;&gt;Node10</title>
<path fill="none" stroke="midnightblue" d="M247.791,-116.362C262.559,-107.532 283.778,-94.844 300.538,-84.8224"/>
<polygon fill="midnightblue" stroke="midnightblue" points="302.535,-87.7066 309.321,-79.5707 298.943,-81.6987 302.535,-87.7066"/>
</g>
<!-- Node11 -->
<g id="node22" class="node"><title>Node11</title>
<polygon fill="white" stroke="#bfbfbf" points="366,-58.5 366,-79.5 412,-79.5 412,-58.5 366,-58.5"/>
<text text-anchor="middle" x="389" y="-66.5" font-family="Helvetica,sans-Serif" font-size="10.00">cstring</text>
</g>
<!-- Node1&#45;&gt;Node11 -->
<g id="edge22" class="edge"><title>Node1&#45;&gt;Node11</title>
<path fill="none" stroke="midnightblue" d="M258.794,-116.497C286.172,-106.51 327.319,-91.4999 356.007,-81.0353"/>
<polygon fill="midnightblue" stroke="midnightblue" points="357.396,-84.2542 365.591,-77.5391 354.997,-77.678 357.396,-84.2542"/>
</g>
<!-- Node3 -->
<g id="node5" class="node"><title>Node3</title>
<polygon fill="white" stroke="#bfbfbf" points="-0.5,-0.5 -0.5,-21.5 28.5,-21.5 28.5,-0.5 -0.5,-0.5"/>
<text text-anchor="middle" x="14" y="-8.5" font-family="Helvetica,sans-Serif" font-size="10.00">list</text>
</g>
<!-- Node2&#45;&gt;Node3 -->
<g id="edge4" class="edge"><title>Node2&#45;&gt;Node3</title>
<path fill="none" stroke="midnightblue" d="M51.5629,-58.3619C45.2083,-50.3496 36.3342,-39.1605 28.8069,-29.6696"/>
<polygon fill="midnightblue" stroke="midnightblue" points="31.3399,-27.2308 22.3836,-21.5707 25.8554,-31.5805 31.3399,-27.2308"/>
</g>
<!-- Node4 -->
<g id="node7" class="node"><title>Node4</title>
<polygon fill="white" stroke="#bfbfbf" points="45.5,-0.5 45.5,-21.5 86.5,-21.5 86.5,-0.5 45.5,-0.5"/>
<text text-anchor="middle" x="66" y="-8.5" font-family="Helvetica,sans-Serif" font-size="10.00">string</text>
</g>
<!-- Node2&#45;&gt;Node4 -->
<g id="edge6" class="edge"><title>Node2&#45;&gt;Node4</title>
<path fill="none" stroke="midnightblue" d="M61.1005,-58.3619C61.8701,-50.9219 62.9232,-40.7427 63.8558,-31.7276"/>
<polygon fill="midnightblue" stroke="midnightblue" points="67.3588,-31.8777 64.9065,-21.5707 60.396,-31.1574 67.3588,-31.8777"/>
</g>
<!-- Node5&#45;&gt;Node4 -->
<g id="edge10" class="edge"><title>Node5&#45;&gt;Node4</title>
<path fill="none" stroke="midnightblue" d="M118.261,-58.3619C109.059,-50.0226 96.0599,-38.2418 85.3283,-28.5162"/>
<polygon fill="midnightblue" stroke="midnightblue" points="87.4244,-25.6924 77.6642,-21.5707 82.7237,-30.8793 87.4244,-25.6924"/>
</g>
<!-- Node6 -->
<g id="node12" class="node"><title>Node6</title>
<polygon fill="white" stroke="#bfbfbf" points="104,-0.5 104,-21.5 156,-21.5 156,-0.5 104,-0.5"/>
<text text-anchor="middle" x="130" y="-8.5" font-family="Helvetica,sans-Serif" font-size="10.00">sstream</text>
</g>
<!-- Node5&#45;&gt;Node6 -->
<g id="edge12" class="edge"><title>Node5&#45;&gt;Node6</title>
<path fill="none" stroke="midnightblue" d="M130,-58.3619C130,-50.9219 130,-40.7427 130,-31.7276"/>
<polygon fill="midnightblue" stroke="midnightblue" points="133.5,-31.5706 130,-21.5707 126.5,-31.5707 133.5,-31.5706"/>
</g>
<!-- Node7 -->
<g id="node14" class="node"><title>Node7</title>
<polygon fill="white" stroke="#bfbfbf" points="174,-0.5 174,-21.5 230,-21.5 230,-0.5 174,-0.5"/>
<text text-anchor="middle" x="202" y="-8.5" font-family="Helvetica,sans-Serif" font-size="10.00">algorithm</text>
</g>
<!-- Node5&#45;&gt;Node7 -->
<g id="edge14" class="edge"><title>Node5&#45;&gt;Node7</title>
<path fill="none" stroke="midnightblue" d="M143.206,-58.3619C153.761,-49.859 168.758,-37.7785 180.963,-27.9466"/>
<polygon fill="midnightblue" stroke="midnightblue" points="183.286,-30.5696 188.878,-21.5707 178.895,-25.1183 183.286,-30.5696"/>
</g>
</g>
</svg>
