<?xml version="1.0" encoding="UTF-8" standalone="no"?>
<!DOCTYPE svg PUBLIC "-//W3C//DTD SVG 1.1//EN"
 "http://www.w3.org/Graphics/SVG/1.1/DTD/svg11.dtd">
<!-- Generated by graphviz version 2.26.3 (20100126.1600)
 -->
<!-- Title: src/base/std_ext/vector.h Pages: 1 -->
<svg width="136pt" height="88pt"
 viewBox="0.00 0.00 136.00 88.00" xmlns="http://www.w3.org/2000/svg" xmlns:xlink="http://www.w3.org/1999/xlink">
<g id="graph1" class="graph" transform="scale(1 1) rotate(0) translate(4 84)">
<title>src/base/std_ext/vector.h</title>
<polygon fill="white" stroke="white" points="-4,5 -4,-84 133,-84 133,5 -4,5"/>
<!-- Node1 -->
<g id="node1" class="node"><title>Node1</title>
<polygon fill="#bfbfbf" stroke="black" points="0,-58.5 0,-79.5 128,-79.5 128,-58.5 0,-58.5"/>
<text text-anchor="middle" x="64" y="-66.5" font-family="Helvetica,sans-Serif" font-size="10.00">src/base/std_ext/vector.h</text>
</g>
<!-- Node2 -->
<g id="node3" class="node"><title>Node2</title>
<polygon fill="white" stroke="#bfbfbf" points="8,-0.5 8,-21.5 52,-21.5 52,-0.5 8,-0.5"/>
<text text-anchor="middle" x="30" y="-8.5" font-family="Helvetica,sans-Serif" font-size="10.00">vector</text>
</g>
<!-- Node1&#45;&gt;Node2 -->
<g id="edge2" class="edge"><title>Node1&#45;&gt;Node2</title>
<path fill="none" stroke="midnightblue" d="M57.7639,-58.3619C53.1629,-50.5131 46.7748,-39.6159 41.2861,-30.2527"/>
<polygon fill="midnightblue" stroke="midnightblue" points="44.2733,-28.4276 36.1966,-21.5707 38.2344,-31.9677 44.2733,-28.4276"/>
</g>
<!-- Node3 -->
<g id="node5" class="node"><title>Node3</title>
<polygon fill="white" stroke="#bfbfbf" points="70,-0.5 70,-21.5 126,-21.5 126,-0.5 70,-0.5"/>
<text text-anchor="middle" x="98" y="-8.5" font-family="Helvetica,sans-Serif" font-size="10.00">algorithm</text>
</g>
<!-- Node1&#45;&gt;Node3 -->
<g id="edge4" class="edge"><title>Node1&#45;&gt;Node3</title>
<path fill="none" stroke="midnightblue" d="M70.2361,-58.3619C74.8371,-50.5131 81.2252,-39.6159 86.7139,-30.2527"/>
<polygon fill="midnightblue" stroke="midnightblue" points="89.7656,-31.9677 91.8034,-21.5707 83.7267,-28.4276 89.7656,-31.9677"/>
</g>
</g>
</svg>
