<?xml version="1.0" encoding="UTF-8" standalone="no"?>
<!DOCTYPE svg PUBLIC "-//W3C//DTD SVG 1.1//EN"
 "http://www.w3.org/Graphics/SVG/1.1/DTD/svg11.dtd">
<!-- Generated by graphviz version 2.26.3 (20100126.1600)
 -->
<!-- Title: src/base/std_ext/vector.h Pages: 1 -->
<svg width="356pt" height="102pt"
 viewBox="0.00 0.00 356.00 102.00" xmlns="http://www.w3.org/2000/svg" xmlns:xlink="http://www.w3.org/1999/xlink">
<g id="graph1" class="graph" transform="scale(1 1) rotate(0) translate(4 98)">
<title>src/base/std_ext/vector.h</title>
<polygon fill="white" stroke="white" points="-4,5 -4,-98 353,-98 353,5 -4,5"/>
<!-- Node1 -->
<g id="node1" class="node"><title>Node1</title>
<polygon fill="#bfbfbf" stroke="black" points="85,-72.5 85,-93.5 213,-93.5 213,-72.5 85,-72.5"/>
<text text-anchor="middle" x="149" y="-80.5" font-family="Helvetica,sans-Serif" font-size="10.00">src/base/std_ext/vector.h</text>
</g>
<!-- Node2 -->
<g id="node3" class="node"><title>Node2</title>
<a xlink:href="_ant_8cc.html" target="_top" xlink:title="progs/Ant.cc">
<polygon fill="white" stroke="black" points="0,-7.5 0,-28.5 72,-28.5 72,-7.5 0,-7.5"/>
<text text-anchor="middle" x="36" y="-15.5" font-family="Helvetica,sans-Serif" font-size="10.00">progs/Ant.cc</text>
</a>
</g>
<!-- Node1&#45;&gt;Node2 -->
<g id="edge2" class="edge"><title>Node1&#45;&gt;Node2</title>
<path fill="none" stroke="midnightblue" d="M121.867,-67.3927C100.989,-55.383 72.7005,-39.1109 54.399,-28.5835"/>
<polygon fill="midnightblue" stroke="midnightblue" points="120.18,-70.4596 130.593,-72.412 123.67,-64.3919 120.18,-70.4596"/>
</g>
<!-- Node3 -->
<g id="node5" class="node"><title>Node3</title>
<a xlink:href="_c_b_8cc.html" target="_top" xlink:title="src/expconfig/detectors\l/CB.cc">
<polygon fill="white" stroke="black" points="89.5,-1 89.5,-35 208.5,-35 208.5,-1 89.5,-1"/>
<text text-anchor="start" x="97.5" y="-22" font-family="Helvetica,sans-Serif" font-size="10.00">src/expconfig/detectors</text>
<text text-anchor="middle" x="149" y="-9" font-family="Helvetica,sans-Serif" font-size="10.00">/CB.cc</text>
</a>
</g>
<!-- Node1&#45;&gt;Node3 -->
<g id="edge4" class="edge"><title>Node1&#45;&gt;Node3</title>
<path fill="none" stroke="midnightblue" d="M149,-62.1306C149,-53.4049 149,-43.3908 149,-35.1099"/>
<polygon fill="midnightblue" stroke="midnightblue" points="145.5,-62.2665 149,-72.2666 152.5,-62.2666 145.5,-62.2665"/>
</g>
<!-- Node4 -->
<g id="node7" class="node"><title>Node4</title>
<a xlink:href="_test_std_ext_8cc.html" target="_top" xlink:title="test/base/TestStdExt.cc">
<polygon fill="white" stroke="black" points="225.5,-7.5 225.5,-28.5 348.5,-28.5 348.5,-7.5 225.5,-7.5"/>
<text text-anchor="middle" x="287" y="-15.5" font-family="Helvetica,sans-Serif" font-size="10.00">test/base/TestStdExt.cc</text>
</a>
</g>
<!-- Node1&#45;&gt;Node4 -->
<g id="edge6" class="edge"><title>Node1&#45;&gt;Node4</title>
<path fill="none" stroke="midnightblue" d="M180.772,-68.0348C206.39,-55.9686 241.779,-39.2997 264.53,-28.5835"/>
<polygon fill="midnightblue" stroke="midnightblue" points="179.035,-64.9844 171.479,-72.412 182.017,-71.3171 179.035,-64.9844"/>
</g>
</g>
</svg>
